<?plantuml 1.2026.1?><svg xmlns="http://www.w3.org/2000/svg" xmlns:xlink="http://www.w3.org/1999/xlink" contentStyleType="text/css" data-diagram-type="CLASS" height="315px" preserveAspectRatio="none" style="width:658px;height:315px;background:#FFFFFF;" version="1.1" viewBox="0 0 658 315" width="658px" zoomAndPan="magnify"><defs/><g><!--cluster bo4e--><g class="cluster" data-qualified-name="bo4e" data-source-line="15" id="ent0005"><path d="M484.29,6 L524.166,6 A3.75,3.75 0 0 1 526.666,8.5 L533.666,28.2969 L649.45,28.2969 A2.5,2.5 0 0 1 651.95,30.7969 L651.95,305.5 A2.5,2.5 0 0 1 649.45,308 L484.29,308 A2.5,2.5 0 0 1 481.79,305.5 L481.79,8.5 A2.5,2.5 0 0 1 484.29,6" fill="none" style="stroke:#000000;stroke-width:1.5;"/><line style="stroke:#000000;stroke-width:1.5;" x1="481.79" x2="533.666" y1="28.2969" y2="28.2969"/><text fill="#000000" font-family="sans-serif" font-size="14" font-weight="bold" lengthAdjust="spacing" textLength="38.876" x="485.79" y="20.9951">bo4e</text></g><!--cluster com--><g class="cluster" data-qualified-name="bo4e.com" data-source-line="14" id="ent0003"><path d="M508.29,49 L585.9892,49 A3.75,3.75 0 0 1 588.4892,51.5 L595.4892,71.2969 L625.45,71.2969 A2.5,2.5 0 0 1 627.95,73.7969 L627.95,281.5 A2.5,2.5 0 0 1 625.45,284 L508.29,284 A2.5,2.5 0 0 1 505.79,281.5 L505.79,51.5 A2.5,2.5 0 0 1 508.29,49" fill="#E0A86C" style="stroke:#000000;stroke-width:1.5;"/><line style="stroke:#000000;stroke-width:1.5;" x1="505.79" x2="595.4892" y1="71.2969" y2="71.2969"/><text fill="#000000" font-family="sans-serif" font-size="14" font-weight="bold" lengthAdjust="spacing" textLength="76.6992" x="509.79" y="63.9951">bo4e.com</text></g><!--class Betrag--><g class="entity" data-qualified-name="bo4e.com.Betrag" data-source-line="15" id="ent0004"><rect fill="#F1F1F1" height="37.9375" rx="2.5" ry="2.5" style="stroke:#181818;stroke-width:0.5;" width="90.0566" x="521.84" y="84.03"/><ellipse cx="536.84" cy="102.9988" fill="#ADD1B2" rx="11" ry="11" style="stroke:#181818;stroke-width:1;"/><path d="M539.8088,108.6394 Q539.2306,108.9363 538.59,109.0769 Q537.9494,109.2331 537.2463,109.2331 Q534.7463,109.2331 533.4181,107.5925 Q532.1056,105.9363 532.1056,102.8113 Q532.1056,99.6863 533.4181,98.03 Q534.7463,96.3738 537.2463,96.3738 Q537.9494,96.3738 538.59,96.53 Q539.2463,96.6863 539.8088,96.9831 L539.8088,99.7019 Q539.1838,99.1238 538.59,98.8581 Q537.9963,98.5769 537.3713,98.5769 Q536.0275,98.5769 535.34,99.655 Q534.6525,100.7175 534.6525,102.8113 Q534.6525,104.905 535.34,105.9831 Q536.0275,107.0456 537.3713,107.0456 Q537.9963,107.0456 538.59,106.78 Q539.1838,106.4988 539.8088,105.9206 L539.8088,108.6394 Z " fill="#000000"/><a href="https://bo4e.github.io/BO4E-python/test-304506/api/com.Betrag.html" target="_top" title="https://bo4e.github.io/BO4E-python/test-304506/api/com.Betrag.html" xlink:actuate="onRequest" xlink:href="https://bo4e.github.io/BO4E-python/test-304506/api/com.Betrag.html" xlink:show="new" xlink:title="https://bo4e.github.io/BO4E-python/test-304506/api/com.Betrag.html" xlink:type="simple"><text fill="#0000FF" font-family="sans-serif" font-size="14" lengthAdjust="spacing" text-decoration="underline" textLength="46.9287" x="556.404" y="102.0251">Betrag</text></a><text fill="#000000" font-family="sans-serif" font-size="10" lengthAdjust="spacing" textLength="58.0566" x="550.84" y="114.6091">com.Betrag</text></g><!--class Menge--><g class="entity" data-qualified-name="bo4e.com.Menge" data-source-line="21" id="ent0006"><rect fill="#F1F1F1" height="37.9375" rx="2.5" ry="2.5" style="stroke:#181818;stroke-width:0.5;" width="90.1543" x="521.79" y="157.03"/><ellipse cx="536.79" cy="175.9988" fill="#ADD1B2" rx="11" ry="11" style="stroke:#181818;stroke-width:1;"/><path d="M539.7588,181.6394 Q539.1806,181.9363 538.54,182.0769 Q537.8994,182.2331 537.1963,182.2331 Q534.6963,182.2331 533.3681,180.5925 Q532.0556,178.9363 532.0556,175.8113 Q532.0556,172.6863 533.3681,171.03 Q534.6963,169.3738 537.1963,169.3738 Q537.8994,169.3738 538.54,169.53 Q539.1963,169.6863 539.7588,169.9831 L539.7588,172.7019 Q539.1338,172.1238 538.54,171.8581 Q537.9463,171.5769 537.3213,171.5769 Q535.9775,171.5769 535.29,172.655 Q534.6025,173.7175 534.6025,175.8113 Q534.6025,177.905 535.29,178.9831 Q535.9775,180.0456 537.3213,180.0456 Q537.9463,180.0456 538.54,179.78 Q539.1338,179.4988 539.7588,178.9206 L539.7588,181.6394 Z " fill="#000000"/><a href="https://bo4e.github.io/BO4E-python/test-304506/api/com.Menge.html" target="_top" title="https://bo4e.github.io/BO4E-python/test-304506/api/com.Menge.html" xlink:actuate="onRequest" xlink:href="https://bo4e.github.io/BO4E-python/test-304506/api/com.Menge.html" xlink:show="new" xlink:title="https://bo4e.github.io/BO4E-python/test-304506/api/com.Menge.html" xlink:type="simple"><text fill="#0000FF" font-family="sans-serif" font-size="14" lengthAdjust="spacing" text-decoration="underline" textLength="47.0654" x="556.3344" y="175.0251">Menge</text></a><text fill="#000000" font-family="sans-serif" font-size="10" lengthAdjust="spacing" textLength="58.1543" x="550.79" y="187.6091">com.Menge</text></g><!--class Preis--><g class="entity" data-qualified-name="bo4e.com.Preis" data-source-line="27" id="ent0007"><rect fill="#F1F1F1" height="37.9375" rx="2.5" ry="2.5" style="stroke:#181818;stroke-width:0.5;" width="80.8184" x="526.46" y="230.03"/><ellipse cx="541.46" cy="248.9988" fill="#ADD1B2" rx="11" ry="11" style="stroke:#181818;stroke-width:1;"/><path d="M544.4288,254.6394 Q543.8506,254.9363 543.21,255.0769 Q542.5694,255.2331 541.8663,255.2331 Q539.3663,255.2331 538.0381,253.5925 Q536.7256,251.9363 536.7256,248.8113 Q536.7256,245.6863 538.0381,244.03 Q539.3663,242.3738 541.8663,242.3738 Q542.5694,242.3738 543.21,242.53 Q543.8663,242.6863 544.4288,242.9831 L544.4288,245.7019 Q543.8038,245.1238 543.21,244.8581 Q542.6163,244.5769 541.9913,244.5769 Q540.6475,244.5769 539.96,245.655 Q539.2725,246.7175 539.2725,248.8113 Q539.2725,250.905 539.96,251.9831 Q540.6475,253.0456 541.9913,253.0456 Q542.6163,253.0456 543.21,252.78 Q543.8038,252.4988 544.4288,251.9206 L544.4288,254.6394 Z " fill="#000000"/><a href="https://bo4e.github.io/BO4E-python/test-304506/api/com.Preis.html" target="_top" title="https://bo4e.github.io/BO4E-python/test-304506/api/com.Preis.html" xlink:actuate="onRequest" xlink:href="https://bo4e.github.io/BO4E-python/test-304506/api/com.Preis.html" xlink:show="new" xlink:title="https://bo4e.github.io/BO4E-python/test-304506/api/com.Preis.html" xlink:type="simple"><text fill="#0000FF" font-family="sans-serif" font-size="14" lengthAdjust="spacing" text-decoration="underline" textLength="33.9951" x="562.8716" y="248.0251">Preis</text></a><text fill="#000000" font-family="sans-serif" font-size="10" lengthAdjust="spacing" textLength="48.8184" x="555.46" y="260.6091">com.Preis</text></g><!--class Kostenposition--><g class="entity" data-qualified-name="Kostenposition" data-source-line="3" id="ent0002"><rect fill="#F1F1F1" height="176.3125" rx="2.5" ry="2.5" style="stroke:#181818;stroke-width:0.5;" width="288.7939" x="7" y="88.84"/><ellipse cx="95.4126" cy="107.8088" fill="#ADD1B2" rx="11" ry="11" style="stroke:#181818;stroke-width:1;"/><path d="M98.3813,113.4494 Q97.8032,113.7463 97.1626,113.8869 Q96.522,114.0431 95.8188,114.0431 Q93.3188,114.0431 91.9907,112.4025 Q90.6782,110.7463 90.6782,107.6213 Q90.6782,104.4963 91.9907,102.84 Q93.3188,101.1838 95.8188,101.1838 Q96.522,101.1838 97.1626,101.34 Q97.8188,101.4963 98.3813,101.7931 L98.3813,104.5119 Q97.7563,103.9338 97.1626,103.6681 Q96.5688,103.3869 95.9438,103.3869 Q94.6001,103.3869 93.9126,104.465 Q93.2251,105.5275 93.2251,107.6213 Q93.2251,109.715 93.9126,110.7931 Q94.6001,111.8556 95.9438,111.8556 Q96.5688,111.8556 97.1626,111.59 Q97.7563,111.3088 98.3813,110.7306 L98.3813,113.4494 Z " fill="#000000"/><a href="https://bo4e.github.io/BO4E-python/test-304506/api/com.Kostenposition.html" target="_top" title="https://bo4e.github.io/BO4E-python/test-304506/api/com.Kostenposition.html" xlink:actuate="onRequest" xlink:href="https://bo4e.github.io/BO4E-python/test-304506/api/com.Kostenposition.html" xlink:show="new" xlink:title="https://bo4e.github.io/BO4E-python/test-304506/api/com.Kostenposition.html" xlink:type="simple"><text fill="#0000FF" font-family="sans-serif" font-size="14" lengthAdjust="spacing" text-decoration="underline" textLength="103.4688" x="115.9126" y="106.8351">Kostenposition</text></a><text fill="#000000" font-family="sans-serif" font-size="10" lengthAdjust="spacing" textLength="98.4424" x="118.4258" y="119.4191">com.Kostenposition</text><line style="stroke:#181818;stroke-width:0.5;" x1="8" x2="294.7939" y1="126.7775" y2="126.7775"/><text fill="#000000" font-family="sans-serif" font-size="14" lengthAdjust="spacing" textLength="94.0215" x="13" y="143.7726">_id : str [0..1]</text><text fill="#000000" font-family="sans-serif" font-size="14" lengthAdjust="spacing" textLength="276.7939" x="13" y="160.0695">_typ : Literal["KOSTENPOSITION"] [0..1]</text><text fill="#000000" font-family="sans-serif" font-size="14" lengthAdjust="spacing" textLength="132.5215" x="13" y="176.3664">_version : str [0..1]</text><text fill="#000000" font-family="sans-serif" font-size="14" lengthAdjust="spacing" textLength="207.9971" x="13" y="192.6632">artikelbezeichnung : str [0..1]</text><text fill="#000000" font-family="sans-serif" font-size="14" lengthAdjust="spacing" textLength="157.917" x="13" y="208.9601">artikeldetail : str [0..1]</text><text fill="#000000" font-family="sans-serif" font-size="14" lengthAdjust="spacing" textLength="138.9746" x="13" y="225.257">bis : datetime [0..1]</text><text fill="#000000" font-family="sans-serif" font-size="14" lengthAdjust="spacing" textLength="164.3633" x="13" y="241.5539">positionstitel : str [0..1]</text><text fill="#000000" font-family="sans-serif" font-size="14" lengthAdjust="spacing" textLength="144.6279" x="13" y="257.8507">von : datetime [0..1]</text></g><!--link Kostenposition to Betrag--><g class="link" data-entity-1="ent0002" data-entity-2="ent0004" data-link-type="composition" data-source-line="35" id="lnk8"><path codeLine="35" d="M296.14,151.27 C375.18,137.13 455.9878,122.6646 509.5578,113.0746" fill="none" id="Kostenposition-to-Betrag" style="stroke:#181818;stroke-width:1;"/><polygon fill="#181818" points="521.37,110.96,514.759,108.0799,509.5578,113.0746,516.1688,115.9547,521.37,110.96" style="stroke:#181818;stroke-width:1;"/><text fill="#000000" font-family="sans-serif" font-size="13" lengthAdjust="spacing" textLength="138.9883" x="326.79" y="119.0669">betragKostenposition</text><text fill="#000000" font-family="sans-serif" font-size="13" lengthAdjust="spacing" textLength="24.8066" x="488.9842" y="125.3075">0..1</text></g><!--link Kostenposition to Menge--><g class="link" data-entity-1="ent0002" data-entity-2="ent0006" data-link-type="composition" data-source-line="36" id="lnk9"><path codeLine="36" d="M296.14,176.65 C375.18,176.46 455.8,176.2691 509.37,176.1391" fill="none" id="Kostenposition-to-Menge" style="stroke:#181818;stroke-width:1;"/><polygon fill="#181818" points="521.37,176.11,515.3603,172.1246,509.37,176.1391,515.3797,180.1245,521.37,176.11" style="stroke:#181818;stroke-width:1;"/><text fill="#000000" font-family="sans-serif" font-size="13" lengthAdjust="spacing" textLength="45.1509" x="373.29" y="173.0669">menge</text><text fill="#000000" font-family="sans-serif" font-size="13" lengthAdjust="spacing" textLength="24.8066" x="488.9843" y="189.3046">0..1</text></g><!--link Kostenposition to Menge--><g class="link" data-entity-1="ent0002" data-entity-2="ent0006" data-link-type="composition" data-source-line="37" id="lnk10"><path codeLine="37" d="M296.23,200.92 C349.6,206.52 410.57,209.06 465.79,202 C484.31,199.63 492.7394,198.1176 509.9494,193.3276" fill="none" id="Kostenposition-to-Menge-1" style="stroke:#181818;stroke-width:1;"/><polygon fill="#181818" points="521.51,190.11,514.6572,187.8653,509.9494,193.3276,516.8022,195.5723,521.51,190.11" style="stroke:#181818;stroke-width:1;"/><text fill="#000000" font-family="sans-serif" font-size="13" lengthAdjust="spacing" textLength="68.6816" x="361.79" y="198.0669">zeitmenge</text><text fill="#000000" font-family="sans-serif" font-size="13" lengthAdjust="spacing" textLength="24.8066" x="489.1449" y="205.3608">0..1</text></g><!--link Kostenposition to Preis--><g class="link" data-entity-1="ent0002" data-entity-2="ent0007" data-link-type="composition" data-source-line="38" id="lnk11"><path codeLine="38" d="M296.02,225.4 C306.03,227.89 316.02,230.13 325.79,232 C395.36,245.3 466.0509,248.2898 513.9909,248.8898" fill="none" id="Kostenposition-to-Preis" style="stroke:#181818;stroke-width:1;"/><polygon fill="#181818" points="525.99,249.04,520.0405,244.9652,513.9909,248.8898,519.9404,252.9646,525.99,249.04" style="stroke:#181818;stroke-width:1;"/><text fill="#000000" font-family="sans-serif" font-size="13" lengthAdjust="spacing" textLength="70.2622" x="360.79" y="228.0669">einzelpreis</text><text fill="#000000" font-family="sans-serif" font-size="13" lengthAdjust="spacing" textLength="24.8066" x="493.6267" y="262.3194">0..1</text></g><?plantuml-src nLJlQzim4Ftkl-BmlWrYkomhmun2Cqm9NPFGv5iMYcnVx6EsPAHhIpFslq-M5hR4-z7GmVp5Jqzt9xrxaXhSCh02JLNDK9B6Wad982WQOGo4wtNDt9aqZdCrngWYhk_pY5GycO-pKVV4jP8ne-7HcsJyDZcFHKTneTheMXb6sIb3VRsevhQ1Gswp-IJV6zfXUfPS35D24EOe0xu4OByxAY45mnhMIHITRJp9JvrbFnAZ5iqwl9ulLzbiCLzELzFvBDmSn3wWDdszGHMXcJvZa-CEgQZblQn-6rCY2sg6qpaPIvQ2aQd5dsVsCWpRJVuYyy7jw3ZpQn18qQBfH84GEXTiirntzWDubIMNxyu_VE_FIwsR86jHUSiy7bZbQRS93q-nPfAjRY-ldcl98sgsxBPHWd_qv5_el45PePVfu42bOvr8XqxHU9FDhhB_Bt6XaOoNwE10ecETH8TEaRYupQRBbqcqP_leXez6ho7ifyFzmKeXT-0my0zvtgiKslx_Z3XxrVbliRuvAI397JPTFmg2cagqgxIv5HsOMZt2qHC6MxBlXFa6?></g></svg>