<?plantuml 1.2026.1?><svg xmlns="http://www.w3.org/2000/svg" xmlns:xlink="http://www.w3.org/1999/xlink" contentStyleType="text/css" data-diagram-type="CLASS" height="242px" preserveAspectRatio="none" style="width:798px;height:242px;background:#FFFFFF;" version="1.1" viewBox="0 0 798 242" width="798px" zoomAndPan="magnify"><defs/><g><!--cluster bo4e--><g class="cluster" data-qualified-name="bo4e" data-source-line="13" id="ent0005"><path d="M553.7,6 L593.576,6 A3.75,3.75 0 0 1 596.076,8.5 L603.076,28.2969 L788.53,28.2969 A2.5,2.5 0 0 1 791.03,30.7969 L791.03,232.5 A2.5,2.5 0 0 1 788.53,235 L553.7,235 A2.5,2.5 0 0 1 551.2,232.5 L551.2,8.5 A2.5,2.5 0 0 1 553.7,6" fill="none" style="stroke:#000000;stroke-width:1.5;"/><line style="stroke:#000000;stroke-width:1.5;" x1="551.2" x2="603.076" y1="28.2969" y2="28.2969"/><text fill="#000000" font-family="sans-serif" font-size="14" font-weight="bold" lengthAdjust="spacing" textLength="38.876" x="555.2" y="20.9951">bo4e</text></g><!--cluster enum--><g class="cluster" data-qualified-name="bo4e.enum" data-source-line="12" id="ent0003"><path d="M577.7,49 L666.9109,49 A3.75,3.75 0 0 1 669.4109,51.5 L676.4109,71.2969 L764.53,71.2969 A2.5,2.5 0 0 1 767.03,73.7969 L767.03,208.5 A2.5,2.5 0 0 1 764.53,211 L577.7,211 A2.5,2.5 0 0 1 575.2,208.5 L575.2,51.5 A2.5,2.5 0 0 1 577.7,49" fill="#D1C358" style="stroke:#000000;stroke-width:1.5;"/><line style="stroke:#000000;stroke-width:1.5;" x1="575.2" x2="676.4109" y1="71.2969" y2="71.2969"/><text fill="#000000" font-family="sans-serif" font-size="14" font-weight="bold" lengthAdjust="spacing" textLength="88.2109" x="579.2" y="63.9951">bo4e.enum</text></g><!--class AufAbschlagstyp--><g class="entity" data-qualified-name="bo4e.enum.AufAbschlagstyp" data-source-line="13" id="ent0004"><rect fill="#F1F1F1" height="37.9375" rx="2.5" ry="2.5" style="stroke:#181818;stroke-width:0.5;" width="149.0176" x="596.6" y="84.03"/><ellipse cx="611.6" cy="102.9988" fill="#ADD1B2" rx="11" ry="11" style="stroke:#181818;stroke-width:1;"/><path d="M614.5688,108.6394 Q613.9906,108.9363 613.35,109.0769 Q612.7094,109.2331 612.0063,109.2331 Q609.5063,109.2331 608.1781,107.5925 Q606.8656,105.9363 606.8656,102.8113 Q606.8656,99.6863 608.1781,98.03 Q609.5063,96.3738 612.0063,96.3738 Q612.7094,96.3738 613.35,96.53 Q614.0063,96.6863 614.5688,96.9831 L614.5688,99.7019 Q613.9438,99.1238 613.35,98.8581 Q612.7563,98.5769 612.1313,98.5769 Q610.7875,98.5769 610.1,99.655 Q609.4125,100.7175 609.4125,102.8113 Q609.4125,104.905 610.1,105.9831 Q610.7875,107.0456 612.1313,107.0456 Q612.7563,107.0456 613.35,106.78 Q613.9438,106.4988 614.5688,105.9206 L614.5688,108.6394 Z " fill="#000000"/><a href="https://bo4e.github.io/BO4E-python/test-304506/api/enum.AufAbschlagstyp.html" target="_top" title="https://bo4e.github.io/BO4E-python/test-304506/api/enum.AufAbschlagstyp.html" xlink:actuate="onRequest" xlink:href="https://bo4e.github.io/BO4E-python/test-304506/api/enum.AufAbschlagstyp.html" xlink:show="new" xlink:title="https://bo4e.github.io/BO4E-python/test-304506/api/enum.AufAbschlagstyp.html" xlink:type="simple"><text fill="#0000FF" font-family="sans-serif" font-size="14" lengthAdjust="spacing" text-decoration="underline" textLength="117.0176" x="625.6" y="102.0251">AufAbschlagstyp</text></a><text fill="#000000" font-family="sans-serif" font-size="10" lengthAdjust="spacing" textLength="115.332" x="626.4428" y="114.6091">enum.AufAbschlagstyp</text></g><!--class Waehrungseinheit--><g class="entity" data-qualified-name="bo4e.enum.Waehrungseinheit" data-source-line="15" id="ent0006"><rect fill="#F1F1F1" height="37.9375" rx="2.5" ry="2.5" style="stroke:#181818;stroke-width:0.5;" width="159.832" x="591.2" y="157.03"/><ellipse cx="606.2" cy="175.9988" fill="#ADD1B2" rx="11" ry="11" style="stroke:#181818;stroke-width:1;"/><path d="M609.1688,181.6394 Q608.5906,181.9363 607.95,182.0769 Q607.3094,182.2331 606.6063,182.2331 Q604.1063,182.2331 602.7781,180.5925 Q601.4656,178.9363 601.4656,175.8113 Q601.4656,172.6863 602.7781,171.03 Q604.1063,169.3738 606.6063,169.3738 Q607.3094,169.3738 607.95,169.53 Q608.6063,169.6863 609.1688,169.9831 L609.1688,172.7019 Q608.5438,172.1238 607.95,171.8581 Q607.3563,171.5769 606.7313,171.5769 Q605.3875,171.5769 604.7,172.655 Q604.0125,173.7175 604.0125,175.8113 Q604.0125,177.905 604.7,178.9831 Q605.3875,180.0456 606.7313,180.0456 Q607.3563,180.0456 607.95,179.78 Q608.5438,179.4988 609.1688,178.9206 L609.1688,181.6394 Z " fill="#000000"/><a href="https://bo4e.github.io/BO4E-python/test-304506/api/enum.Waehrungseinheit.html" target="_top" title="https://bo4e.github.io/BO4E-python/test-304506/api/enum.Waehrungseinheit.html" xlink:actuate="onRequest" xlink:href="https://bo4e.github.io/BO4E-python/test-304506/api/enum.Waehrungseinheit.html" xlink:show="new" xlink:title="https://bo4e.github.io/BO4E-python/test-304506/api/enum.Waehrungseinheit.html" xlink:type="simple"><text fill="#0000FF" font-family="sans-serif" font-size="14" lengthAdjust="spacing" text-decoration="underline" textLength="127.832" x="620.2" y="175.0251">Waehrungseinheit</text></a><text fill="#000000" font-family="sans-serif" font-size="10" lengthAdjust="spacing" textLength="123.0566" x="622.5877" y="187.6091">enum.Waehrungseinheit</text></g><!--class PositionsAufAbschlag--><g class="entity" data-qualified-name="PositionsAufAbschlag" data-source-line="3" id="ent0002"><rect fill="#F1F1F1" height="143.7188" rx="2.5" ry="2.5" style="stroke:#181818;stroke-width:0.5;" width="345.1973" x="7" y="68.14"/><ellipse cx="100.666" cy="87.1087" fill="#ADD1B2" rx="11" ry="11" style="stroke:#181818;stroke-width:1;"/><path d="M103.6348,92.7494 Q103.0566,93.0462 102.416,93.1869 Q101.7754,93.3431 101.0723,93.3431 Q98.5723,93.3431 97.2441,91.7025 Q95.9316,90.0462 95.9316,86.9212 Q95.9316,83.7962 97.2441,82.14 Q98.5723,80.4837 101.0723,80.4837 Q101.7754,80.4837 102.416,80.64 Q103.0723,80.7962 103.6348,81.0931 L103.6348,83.8119 Q103.0098,83.2337 102.416,82.9681 Q101.8223,82.6869 101.1973,82.6869 Q99.8535,82.6869 99.166,83.765 Q98.4785,84.8275 98.4785,86.9212 Q98.4785,89.015 99.166,90.0931 Q99.8535,91.1556 101.1973,91.1556 Q101.8223,91.1556 102.416,90.89 Q103.0098,90.6087 103.6348,90.0306 L103.6348,92.7494 Z " fill="#000000"/><a href="https://bo4e.github.io/BO4E-python/test-304506/api/com.PositionsAufAbschlag.html" target="_top" title="https://bo4e.github.io/BO4E-python/test-304506/api/com.PositionsAufAbschlag.html" xlink:actuate="onRequest" xlink:href="https://bo4e.github.io/BO4E-python/test-304506/api/com.PositionsAufAbschlag.html" xlink:show="new" xlink:title="https://bo4e.github.io/BO4E-python/test-304506/api/com.PositionsAufAbschlag.html" xlink:type="simple"><text fill="#0000FF" font-family="sans-serif" font-size="14" lengthAdjust="spacing" text-decoration="underline" textLength="149.3652" x="121.166" y="86.1351">PositionsAufAbschlag</text></a><text fill="#000000" font-family="sans-serif" font-size="10" lengthAdjust="spacing" textLength="131.2256" x="130.2358" y="98.7191">com.PositionsAufAbschlag</text><line style="stroke:#181818;stroke-width:0.5;" x1="8" x2="351.1973" y1="106.0775" y2="106.0775"/><text fill="#000000" font-family="sans-serif" font-size="14" lengthAdjust="spacing" textLength="94.0215" x="13" y="123.0726">_id : str [0..1]</text><text fill="#000000" font-family="sans-serif" font-size="14" lengthAdjust="spacing" textLength="333.1973" x="13" y="139.3695">_typ : Literal["POSITIONSAUFABSCHLAG"] [0..1]</text><text fill="#000000" font-family="sans-serif" font-size="14" lengthAdjust="spacing" textLength="132.5215" x="13" y="155.6664">_version : str [0..1]</text><text fill="#000000" font-family="sans-serif" font-size="14" lengthAdjust="spacing" textLength="211.8252" x="13" y="171.9632">aufAbschlagswert : float [0..1]</text><text fill="#000000" font-family="sans-serif" font-size="14" lengthAdjust="spacing" textLength="169.3877" x="13" y="188.2601">beschreibung : str [0..1]</text><text fill="#000000" font-family="sans-serif" font-size="14" lengthAdjust="spacing" textLength="163.6729" x="13" y="204.557">bezeichnung : str [0..1]</text></g><!--link PositionsAufAbschlag to AufAbschlagstyp--><g class="link" data-entity-1="ent0002" data-entity-2="ent0004" data-link-type="composition" data-source-line="19" id="lnk7"><path codeLine="19" d="M352.49,127.01 C435.97,120.7 519.9142,114.355 584.3042,109.485" fill="none" id="PositionsAufAbschlag-to-AufAbschlagstyp" style="stroke:#181818;stroke-width:1;"/><polygon fill="#181818" points="596.27,108.58,589.9854,105.0439,584.3042,109.485,590.5888,113.0211,596.27,108.58" style="stroke:#181818;stroke-width:1;"/><text fill="#000000" font-family="sans-serif" font-size="13" lengthAdjust="spacing" textLength="107.7324" x="405.2" y="110.0669">aufAbschlagstyp</text><text fill="#000000" font-family="sans-serif" font-size="13" lengthAdjust="spacing" textLength="24.8066" x="563.7615" y="121.9411">0..1</text></g><!--link PositionsAufAbschlag to Waehrungseinheit--><g class="link" data-entity-1="ent0002" data-entity-2="ent0006" data-link-type="composition" data-source-line="20" id="lnk8"><path codeLine="20" d="M352.59,164.23 C362.59,165.27 372.52,166.2 382.2,167 C452.6,172.8 520.961,174.7846 578.861,175.5346" fill="none" id="PositionsAufAbschlag-to-Waehrungseinheit" style="stroke:#181818;stroke-width:1;"/><polygon fill="#181818" points="590.86,175.69,584.9123,171.6126,578.861,175.5346,584.8087,179.612,590.86,175.69" style="stroke:#181818;stroke-width:1;"/><text fill="#000000" font-family="sans-serif" font-size="13" lengthAdjust="spacing" textLength="151.6011" x="383.2" y="163.0669">aufAbschlagswaehrung</text><text fill="#000000" font-family="sans-serif" font-size="13" lengthAdjust="spacing" textLength="24.8066" x="558.3923" y="188.426">0..1</text></g><?plantuml-src hLDDQy904BtdLmpfhM2YgAM4KeYb7u9KmPOUh9HDCd4Nacp8Z1Kj_lUkKLfDKdfeSzitCs_Ul9aa63EmXa8j94Ea2WnPwSoomaGGWJsRIUQSFDSDT0-TXMAv31obtS6uTzlAronrvZ8IjxhjNhzzuOfSkQ5EdOacjMCYVndx0OKo4Gj7Sff0KsG-VyskI6tGwxIlVogtGL1ZDNnOOBut5O47n0NCsexJcUz1NkS67Id6GYGpUpAU3f-6uyUf_tpd3wOt3oF_tfwVLBnZGQP3dKjyjwGL5cmouaGBFiu9q2GKg89bjgWp1BX15Sgi5jnQLYPIf5o427RfDMRBj1pvwmLdKIVizYyFy_vbHJiwvyX2CZRjrrC1JpRJL5LAh616uFP_9Bu8b8LnYr1b4XNlDLRHkiXgHgco2fOoZVEDDzLgdOEzMuvTcyuxkGI3_CfGwtnAiJg4BKkg2275D30tQ97KAsZy5I1Mc4Jq2G00?></g></svg>