<?plantuml 1.2026.1?><svg xmlns="http://www.w3.org/2000/svg" xmlns:xlink="http://www.w3.org/1999/xlink" contentStyleType="text/css" data-diagram-type="CLASS" height="428px" preserveAspectRatio="none" style="width:852px;height:428px;background:#FFFFFF;" version="1.1" viewBox="0 0 852 428" width="852px" zoomAndPan="magnify"><defs/><g><!--cluster bo4e--><g class="cluster" data-qualified-name="bo4e" data-source-line="10" id="ent0005"><path d="M588.67,6 L628.546,6 A3.75,3.75 0 0 1 631.046,8.5 L638.046,28.2969 L843.03,28.2969 A2.5,2.5 0 0 1 845.53,30.7969 L845.53,418.5 A2.5,2.5 0 0 1 843.03,421 L588.67,421 A2.5,2.5 0 0 1 586.17,418.5 L586.17,8.5 A2.5,2.5 0 0 1 588.67,6" fill="none" style="stroke:#000000;stroke-width:1.5;"/><line style="stroke:#000000;stroke-width:1.5;" x1="586.17" x2="638.046" y1="28.2969" y2="28.2969"/><text fill="#000000" font-family="sans-serif" font-size="14" font-weight="bold" lengthAdjust="spacing" textLength="38.876" x="590.17" y="20.9951">bo4e</text></g><!--cluster com--><g class="cluster" data-qualified-name="bo4e.com" data-source-line="9" id="ent0003"><path d="M612.67,49 L690.3692,49 A3.75,3.75 0 0 1 692.8692,51.5 L699.8692,71.2969 L819.03,71.2969 A2.5,2.5 0 0 1 821.53,73.7969 L821.53,135.5 A2.5,2.5 0 0 1 819.03,138 L612.67,138 A2.5,2.5 0 0 1 610.17,135.5 L610.17,51.5 A2.5,2.5 0 0 1 612.67,49" fill="#E0A86C" style="stroke:#000000;stroke-width:1.5;"/><line style="stroke:#000000;stroke-width:1.5;" x1="610.17" x2="699.8692" y1="71.2969" y2="71.2969"/><text fill="#000000" font-family="sans-serif" font-size="14" font-weight="bold" lengthAdjust="spacing" textLength="76.6992" x="614.17" y="63.9951">bo4e.com</text></g><!--cluster enum--><g class="cluster" data-qualified-name="bo4e.enum" data-source-line="20" id="ent0006"><path d="M622.43,162 L711.6409,162 A3.75,3.75 0 0 1 714.1409,164.5 L721.1409,184.2969 L809.27,184.2969 A2.5,2.5 0 0 1 811.77,186.7969 L811.77,394.5 A2.5,2.5 0 0 1 809.27,397 L622.43,397 A2.5,2.5 0 0 1 619.93,394.5 L619.93,164.5 A2.5,2.5 0 0 1 622.43,162" fill="#D1C358" style="stroke:#000000;stroke-width:1.5;"/><line style="stroke:#000000;stroke-width:1.5;" x1="619.93" x2="721.1409" y1="184.2969" y2="184.2969"/><text fill="#000000" font-family="sans-serif" font-size="14" font-weight="bold" lengthAdjust="spacing" textLength="88.2109" x="623.93" y="176.9951">bo4e.enum</text></g><!--class RegionalePreisstaffel--><g class="entity" data-qualified-name="bo4e.com.RegionalePreisstaffel" data-source-line="10" id="ent0004"><rect fill="#F1F1F1" height="37.9375" rx="2.5" ry="2.5" style="stroke:#181818;stroke-width:0.5;" width="179.3555" x="626.17" y="84.03"/><ellipse cx="641.17" cy="102.9987" fill="#ADD1B2" rx="11" ry="11" style="stroke:#181818;stroke-width:1;"/><path d="M644.1388,108.6394 Q643.5606,108.9362 642.92,109.0769 Q642.2794,109.2331 641.5763,109.2331 Q639.0763,109.2331 637.7481,107.5925 Q636.4356,105.9362 636.4356,102.8112 Q636.4356,99.6862 637.7481,98.03 Q639.0763,96.3737 641.5763,96.3737 Q642.2794,96.3737 642.92,96.53 Q643.5763,96.6862 644.1388,96.9831 L644.1388,99.7019 Q643.5138,99.1237 642.92,98.8581 Q642.3263,98.5769 641.7013,98.5769 Q640.3575,98.5769 639.67,99.655 Q638.9825,100.7175 638.9825,102.8112 Q638.9825,104.905 639.67,105.9831 Q640.3575,107.0456 641.7013,107.0456 Q642.3263,107.0456 642.92,106.78 Q643.5138,106.4987 644.1388,105.9206 L644.1388,108.6394 Z " fill="#000000"/><a href="https://bo4e.github.io/BO4E-python/test-304506/api/com.RegionalePreisstaffel.html" target="_top" title="https://bo4e.github.io/BO4E-python/test-304506/api/com.RegionalePreisstaffel.html" xlink:actuate="onRequest" xlink:href="https://bo4e.github.io/BO4E-python/test-304506/api/com.RegionalePreisstaffel.html" xlink:show="new" xlink:title="https://bo4e.github.io/BO4E-python/test-304506/api/com.RegionalePreisstaffel.html" xlink:type="simple"><text fill="#0000FF" font-family="sans-serif" font-size="14" lengthAdjust="spacing" text-decoration="underline" textLength="147.3555" x="655.17" y="102.0251">RegionalePreisstaffel</text></a><text fill="#000000" font-family="sans-serif" font-size="10" lengthAdjust="spacing" textLength="129.79" x="663.9527" y="114.6091">com.RegionalePreisstaffel</text></g><!--class Mengeneinheit--><g class="entity" data-qualified-name="bo4e.enum.Mengeneinheit" data-source-line="21" id="ent0007"><rect fill="#F1F1F1" height="37.9375" rx="2.5" ry="2.5" style="stroke:#181818;stroke-width:0.5;" width="138.1621" x="646.77" y="197.03"/><ellipse cx="661.77" cy="215.9988" fill="#ADD1B2" rx="11" ry="11" style="stroke:#181818;stroke-width:1;"/><path d="M664.7388,221.6394 Q664.1606,221.9363 663.52,222.0769 Q662.8794,222.2331 662.1763,222.2331 Q659.6763,222.2331 658.3481,220.5925 Q657.0356,218.9363 657.0356,215.8113 Q657.0356,212.6863 658.3481,211.03 Q659.6763,209.3738 662.1763,209.3738 Q662.8794,209.3738 663.52,209.53 Q664.1763,209.6863 664.7388,209.9831 L664.7388,212.7019 Q664.1138,212.1238 663.52,211.8581 Q662.9263,211.5769 662.3013,211.5769 Q660.9575,211.5769 660.27,212.655 Q659.5825,213.7175 659.5825,215.8113 Q659.5825,217.905 660.27,218.9831 Q660.9575,220.0456 662.3013,220.0456 Q662.9263,220.0456 663.52,219.78 Q664.1138,219.4988 664.7388,218.9206 L664.7388,221.6394 Z " fill="#000000"/><a href="https://bo4e.github.io/BO4E-python/test-304506/api/enum.Mengeneinheit.html" target="_top" title="https://bo4e.github.io/BO4E-python/test-304506/api/enum.Mengeneinheit.html" xlink:actuate="onRequest" xlink:href="https://bo4e.github.io/BO4E-python/test-304506/api/enum.Mengeneinheit.html" xlink:show="new" xlink:title="https://bo4e.github.io/BO4E-python/test-304506/api/enum.Mengeneinheit.html" xlink:type="simple"><text fill="#0000FF" font-family="sans-serif" font-size="14" lengthAdjust="spacing" text-decoration="underline" textLength="104.1797" x="676.7612" y="215.0251">Mengeneinheit</text></a><text fill="#000000" font-family="sans-serif" font-size="10" lengthAdjust="spacing" textLength="106.1621" x="675.77" y="227.6091">enum.Mengeneinheit</text></g><!--class Preistyp--><g class="entity" data-qualified-name="bo4e.enum.Preistyp" data-source-line="23" id="ent0008"><rect fill="#F1F1F1" height="37.9375" rx="2.5" ry="2.5" style="stroke:#181818;stroke-width:0.5;" width="104.2168" x="663.74" y="270.03"/><ellipse cx="678.74" cy="288.9988" fill="#ADD1B2" rx="11" ry="11" style="stroke:#181818;stroke-width:1;"/><path d="M681.7088,294.6394 Q681.1306,294.9363 680.49,295.0769 Q679.8494,295.2331 679.1463,295.2331 Q676.6463,295.2331 675.3181,293.5925 Q674.0056,291.9363 674.0056,288.8113 Q674.0056,285.6863 675.3181,284.03 Q676.6463,282.3738 679.1463,282.3738 Q679.8494,282.3738 680.49,282.53 Q681.1463,282.6863 681.7088,282.9831 L681.7088,285.7019 Q681.0838,285.1238 680.49,284.8581 Q679.8963,284.5769 679.2713,284.5769 Q677.9275,284.5769 677.24,285.655 Q676.5525,286.7175 676.5525,288.8113 Q676.5525,290.905 677.24,291.9831 Q677.9275,293.0456 679.2713,293.0456 Q679.8963,293.0456 680.49,292.78 Q681.0838,292.4988 681.7088,291.9206 L681.7088,294.6394 Z " fill="#000000"/><a href="https://bo4e.github.io/BO4E-python/test-304506/api/enum.Preistyp.html" target="_top" title="https://bo4e.github.io/BO4E-python/test-304506/api/enum.Preistyp.html" xlink:actuate="onRequest" xlink:href="https://bo4e.github.io/BO4E-python/test-304506/api/enum.Preistyp.html" xlink:show="new" xlink:title="https://bo4e.github.io/BO4E-python/test-304506/api/enum.Preistyp.html" xlink:type="simple"><text fill="#0000FF" font-family="sans-serif" font-size="14" lengthAdjust="spacing" text-decoration="underline" textLength="56.6563" x="700.5203" y="288.0251">Preistyp</text></a><text fill="#000000" font-family="sans-serif" font-size="10" lengthAdjust="spacing" textLength="72.2168" x="692.74" y="300.6091">enum.Preistyp</text></g><!--class Waehrungseinheit--><g class="entity" data-qualified-name="bo4e.enum.Waehrungseinheit" data-source-line="25" id="ent0009"><rect fill="#F1F1F1" height="37.9375" rx="2.5" ry="2.5" style="stroke:#181818;stroke-width:0.5;" width="159.832" x="635.93" y="343.03"/><ellipse cx="650.93" cy="361.9988" fill="#ADD1B2" rx="11" ry="11" style="stroke:#181818;stroke-width:1;"/><path d="M653.8988,367.6394 Q653.3206,367.9363 652.68,368.0769 Q652.0394,368.2331 651.3363,368.2331 Q648.8363,368.2331 647.5081,366.5925 Q646.1956,364.9363 646.1956,361.8113 Q646.1956,358.6863 647.5081,357.03 Q648.8363,355.3738 651.3363,355.3738 Q652.0394,355.3738 652.68,355.53 Q653.3363,355.6863 653.8988,355.9831 L653.8988,358.7019 Q653.2738,358.1238 652.68,357.8581 Q652.0863,357.5769 651.4613,357.5769 Q650.1175,357.5769 649.43,358.655 Q648.7425,359.7175 648.7425,361.8113 Q648.7425,363.905 649.43,364.9831 Q650.1175,366.0456 651.4613,366.0456 Q652.0863,366.0456 652.68,365.78 Q653.2738,365.4988 653.8988,364.9206 L653.8988,367.6394 Z " fill="#000000"/><a href="https://bo4e.github.io/BO4E-python/test-304506/api/enum.Waehrungseinheit.html" target="_top" title="https://bo4e.github.io/BO4E-python/test-304506/api/enum.Waehrungseinheit.html" xlink:actuate="onRequest" xlink:href="https://bo4e.github.io/BO4E-python/test-304506/api/enum.Waehrungseinheit.html" xlink:show="new" xlink:title="https://bo4e.github.io/BO4E-python/test-304506/api/enum.Waehrungseinheit.html" xlink:type="simple"><text fill="#0000FF" font-family="sans-serif" font-size="14" lengthAdjust="spacing" text-decoration="underline" textLength="127.832" x="664.93" y="361.0251">Waehrungseinheit</text></a><text fill="#000000" font-family="sans-serif" font-size="10" lengthAdjust="spacing" textLength="123.0566" x="667.3177" y="373.6091">enum.Waehrungseinheit</text></g><!--class RegionaleTarifpreisposition--><g class="entity" data-qualified-name="RegionaleTarifpreisposition" data-source-line="3" id="ent0002"><rect fill="#F1F1F1" height="94.8281" rx="2.5" ry="2.5" style="stroke:#181818;stroke-width:0.5;" width="393.1719" x="7" y="184.59"/><ellipse cx="103.7183" cy="203.5588" fill="#ADD1B2" rx="11" ry="11" style="stroke:#181818;stroke-width:1;"/><path d="M106.687,209.1994 Q106.1089,209.4963 105.4683,209.6369 Q104.8276,209.7931 104.1245,209.7931 Q101.6245,209.7931 100.2964,208.1525 Q98.9839,206.4963 98.9839,203.3713 Q98.9839,200.2463 100.2964,198.59 Q101.6245,196.9338 104.1245,196.9338 Q104.8276,196.9338 105.4683,197.09 Q106.1245,197.2463 106.687,197.5431 L106.687,200.2619 Q106.062,199.6838 105.4683,199.4181 Q104.8745,199.1369 104.2495,199.1369 Q102.9058,199.1369 102.2183,200.215 Q101.5308,201.2775 101.5308,203.3713 Q101.5308,205.465 102.2183,206.5431 Q102.9058,207.6056 104.2495,207.6056 Q104.8745,207.6056 105.4683,207.34 Q106.062,207.0588 106.687,206.4806 L106.687,209.1994 Z " fill="#000000"/><a href="https://bo4e.github.io/BO4E-python/test-304506/api/com.RegionaleTarifpreisposition.html" target="_top" title="https://bo4e.github.io/BO4E-python/test-304506/api/com.RegionaleTarifpreisposition.html" xlink:actuate="onRequest" xlink:href="https://bo4e.github.io/BO4E-python/test-304506/api/com.RegionaleTarifpreisposition.html" xlink:show="new" xlink:title="https://bo4e.github.io/BO4E-python/test-304506/api/com.RegionaleTarifpreisposition.html" xlink:type="simple"><text fill="#0000FF" font-family="sans-serif" font-size="14" lengthAdjust="spacing" text-decoration="underline" textLength="191.2354" x="124.2183" y="202.5851">RegionaleTarifpreisposition</text></a><text fill="#000000" font-family="sans-serif" font-size="10" lengthAdjust="spacing" textLength="161.1328" x="139.2695" y="215.1691">com.RegionaleTarifpreisposition</text><line style="stroke:#181818;stroke-width:0.5;" x1="8" x2="399.1719" y1="222.5275" y2="222.5275"/><text fill="#000000" font-family="sans-serif" font-size="14" lengthAdjust="spacing" textLength="94.0215" x="13" y="239.5226">_id : str [0..1]</text><text fill="#000000" font-family="sans-serif" font-size="14" lengthAdjust="spacing" textLength="381.1719" x="13" y="255.8195">_typ : Literal["REGIONALETARIFPREISPOSITION"] [0..1]</text><text fill="#000000" font-family="sans-serif" font-size="14" lengthAdjust="spacing" textLength="132.5215" x="13" y="272.1164">_version : str [0..1]</text></g><!--link RegionaleTarifpreisposition to RegionalePreisstaffel--><g class="link" data-entity-1="ent0002" data-entity-2="ent0004" data-link-type="composition" data-source-line="29" id="lnk10"><path codeLine="29" d="M393.86,184.15 C478.53,162.75 561.9361,141.6614 626.4861,125.3414" fill="none" id="RegionaleTarifpreisposition-to-RegionalePreisstaffel" style="stroke:#181818;stroke-width:1;"/><polygon fill="#181818" points="638.12,122.4,631.3226,119.9927,626.4861,125.3414,633.2835,127.7487,638.12,122.4" style="stroke:#181818;stroke-width:1;"/><text fill="#000000" font-family="sans-serif" font-size="13" lengthAdjust="spacing" textLength="80.8184" x="460.17" y="138.0669">preisstaffeln</text><text fill="#000000" font-family="sans-serif" font-size="13" lengthAdjust="spacing" textLength="23.0356" x="595.6053" y="140.3661">0..*</text></g><!--link RegionaleTarifpreisposition to Mengeneinheit--><g class="link" data-entity-1="ent0002" data-entity-2="ent0007" data-link-type="composition" data-source-line="30" id="lnk11"><path codeLine="30" d="M400.47,215.42 C410.51,214.87 420.46,214.39 430.17,214 C492.34,211.52 507.95,213.57 570.17,214 C595.04,214.17 610.3113,214.3357 634.4113,214.6857" fill="none" id="RegionaleTarifpreisposition-to-Mengeneinheit" style="stroke:#181818;stroke-width:1;"/><polygon fill="#181818" points="646.41,214.86,640.4687,210.7733,634.4113,214.6857,640.3525,218.7725,646.41,214.86" style="stroke:#181818;stroke-width:1;"/><text fill="#000000" font-family="sans-serif" font-size="13" lengthAdjust="spacing" textLength="91.1333" x="454.67" y="209.0669">bezugseinheit</text><text fill="#000000" font-family="sans-serif" font-size="13" lengthAdjust="spacing" textLength="24.8066" x="614.053" y="211.0429">0..1</text></g><!--link RegionaleTarifpreisposition to Mengeneinheit--><g class="link" data-entity-1="ent0002" data-entity-2="ent0007" data-link-type="composition" data-source-line="31" id="lnk12"><path codeLine="31" d="M400.22,242.81 C455.26,243.93 515.11,243.35 570.17,239 C595.15,237.03 610.4835,235.1444 634.4635,231.1444" fill="none" id="RegionaleTarifpreisposition-to-Mengeneinheit-1" style="stroke:#181818;stroke-width:1;"/><polygon fill="#181818" points="646.3,229.17,639.7236,226.2117,634.4635,231.1444,641.0399,234.1027,646.3,229.17" style="stroke:#181818;stroke-width:1;"/><text fill="#000000" font-family="sans-serif" font-size="13" lengthAdjust="spacing" textLength="138.7852" x="431.17" y="235.0669">mengeneinheitstaffel</text><text fill="#000000" font-family="sans-serif" font-size="13" lengthAdjust="spacing" textLength="24.8066" x="613.9316" y="243.3755">0..1</text></g><!--link RegionaleTarifpreisposition to Preistyp--><g class="link" data-entity-1="ent0002" data-entity-2="ent0008" data-link-type="composition" data-source-line="32" id="lnk13"><path codeLine="32" d="M400.37,265.24 C410.44,266.59 420.42,267.86 430.17,269 C511.37,278.49 594.1739,283.483 651.3039,286.233" fill="none" id="RegionaleTarifpreisposition-to-Preistyp" style="stroke:#181818;stroke-width:1;"/><polygon fill="#181818" points="663.29,286.81,657.4893,282.5261,651.3039,286.233,657.1046,290.5169,663.29,286.81" style="stroke:#181818;stroke-width:1;"/><text fill="#000000" font-family="sans-serif" font-size="13" lengthAdjust="spacing" textLength="53.022" x="473.67" y="265.0669">preistyp</text><text fill="#000000" font-family="sans-serif" font-size="13" lengthAdjust="spacing" textLength="24.8066" x="631.0701" y="299.5659">0..1</text></g><!--link RegionaleTarifpreisposition to Waehrungseinheit--><g class="link" data-entity-1="ent0002" data-entity-2="ent0009" data-link-type="composition" data-source-line="33" id="lnk14"><path codeLine="33" d="M339.12,279.91 C368.89,289.61 400.43,299.22 430.17,307 C498.84,324.97 566.388,337.8288 623.858,347.5488" fill="none" id="RegionaleTarifpreisposition-to-Waehrungseinheit" style="stroke:#181818;stroke-width:1;"/><polygon fill="#181818" points="635.69,349.55,630.4411,344.6054,623.858,347.5488,629.107,352.4934,635.69,349.55" style="stroke:#181818;stroke-width:1;"/><text fill="#000000" font-family="sans-serif" font-size="13" lengthAdjust="spacing" textLength="44.7954" x="478.17" y="303.0669">einheit</text><text fill="#000000" font-family="sans-serif" font-size="13" lengthAdjust="spacing" textLength="24.8066" x="603.2315" y="361.1668">0..1</text></g><?plantuml-src hPHTQwD058Rl_HK7UrU86fgM8ij2MimYP3SX2RiNsL0cUjIXEihCP9TcoN_lED6YPfjAYTvuFkRrcVSufXX9a3bm6YSIGiena3HdXX6aH0Wmr-j4oaAujhtDHsZ5L2QxhKLp-s4syWR5YqnoPaiKSd3ZZ6wTEviKr0xop5fWh7H8YYl2QLHmfAB81It5hKHcAPnfs6n-io-2xj4TEby_43E1Y7DQyCy0TJtH45mGaiFQiQpXvfYKBuNAJgb4JjArkV2--RCVuwct6Y_yoNpX-SlvREclLDBSj1R-GIvAyPRamJ0OoL0K940mjLyANWFM0LnvplZ-xh6YkfZ9ytBBGf8emhHZRxFqlh7DhhQbpSgdpDG-BbVZoSIRzh6nh10kwJEc_d_UWvGbIANGKrRbACs9R3PKh357jiU77Zq_DK6hvw3kxYoHxHh3B2Eu2eV1pUtz1QPPobdVaSN8gWqUnzXAjSPtkaB3jJ8Ax70PDFqLg0aVgUhe5AYkQ9Owk1p6Bu89tx5Oj4pgPa-nkXqQhvlKcEeGd_kR30RNOAflvDfyvuIuK3H2rajiQ7R6vi8MzxitiC-APCsu8kghzJQxQaFgiU_I4r_T-j0QHa93L5pPLfryGoJvNpZtSuU8OXgALm00?></g></svg>