<?plantuml 1.2026.1?><svg xmlns="http://www.w3.org/2000/svg" xmlns:xlink="http://www.w3.org/1999/xlink" contentStyleType="text/css" data-diagram-type="CLASS" height="793px" preserveAspectRatio="none" style="width:868px;height:793px;background:#FFFFFF;" version="1.1" viewBox="0 0 868 793" width="868px" zoomAndPan="magnify"><defs/><g><!--cluster bo4e--><g class="cluster" data-qualified-name="bo4e" data-source-line="16" id="ent0005"><path d="M604.15,6 L644.026,6 A3.75,3.75 0 0 1 646.526,8.5 L653.526,28.2969 L858.51,28.2969 A2.5,2.5 0 0 1 861.01,30.7969 L861.01,783.5 A2.5,2.5 0 0 1 858.51,786 L604.15,786 A2.5,2.5 0 0 1 601.65,783.5 L601.65,8.5 A2.5,2.5 0 0 1 604.15,6" fill="none" style="stroke:#000000;stroke-width:1.5;"/><line style="stroke:#000000;stroke-width:1.5;" x1="601.65" x2="653.526" y1="28.2969" y2="28.2969"/><text fill="#000000" font-family="sans-serif" font-size="14" font-weight="bold" lengthAdjust="spacing" textLength="38.876" x="605.65" y="20.9951">bo4e</text></g><!--cluster com--><g class="cluster" data-qualified-name="bo4e.com" data-source-line="15" id="ent0003"><path d="M628.15,49 L705.8492,49 A3.75,3.75 0 0 1 708.3492,51.5 L715.3492,71.2969 L834.51,71.2969 A2.5,2.5 0 0 1 837.01,73.7969 L837.01,500.5 A2.5,2.5 0 0 1 834.51,503 L628.15,503 A2.5,2.5 0 0 1 625.65,500.5 L625.65,51.5 A2.5,2.5 0 0 1 628.15,49" fill="#E0A86C" style="stroke:#000000;stroke-width:1.5;"/><line style="stroke:#000000;stroke-width:1.5;" x1="625.65" x2="715.3492" y1="71.2969" y2="71.2969"/><text fill="#000000" font-family="sans-serif" font-size="14" font-weight="bold" lengthAdjust="spacing" textLength="76.6992" x="629.65" y="63.9951">bo4e.com</text></g><!--cluster enum--><g class="cluster" data-qualified-name="bo4e.enum" data-source-line="68" id="ent0011"><path d="M637.92,527 L727.1309,527 A3.75,3.75 0 0 1 729.6309,529.5 L736.6309,549.2969 L824.75,549.2969 A2.5,2.5 0 0 1 827.25,551.7969 L827.25,759.5 A2.5,2.5 0 0 1 824.75,762 L637.92,762 A2.5,2.5 0 0 1 635.42,759.5 L635.42,529.5 A2.5,2.5 0 0 1 637.92,527" fill="#D1C358" style="stroke:#000000;stroke-width:1.5;"/><line style="stroke:#000000;stroke-width:1.5;" x1="635.42" x2="736.6309" y1="549.2969" y2="549.2969"/><text fill="#000000" font-family="sans-serif" font-size="14" font-weight="bold" lengthAdjust="spacing" textLength="88.2109" x="639.42" y="541.9951">bo4e.enum</text></g><!--class Energiemix--><g class="entity" data-qualified-name="bo4e.com.Energiemix" data-source-line="16" id="ent0004"><rect fill="#F1F1F1" height="37.9375" rx="2.5" ry="2.5" style="stroke:#181818;stroke-width:0.5;" width="113.1719" x="674.75" y="84.03"/><ellipse cx="689.75" cy="102.9987" fill="#ADD1B2" rx="11" ry="11" style="stroke:#181818;stroke-width:1;"/><path d="M692.7188,108.6394 Q692.1406,108.9362 691.5,109.0769 Q690.8594,109.2331 690.1563,109.2331 Q687.6563,109.2331 686.3281,107.5925 Q685.0156,105.9362 685.0156,102.8112 Q685.0156,99.6862 686.3281,98.03 Q687.6563,96.3737 690.1563,96.3737 Q690.8594,96.3737 691.5,96.53 Q692.1563,96.6862 692.7188,96.9831 L692.7188,99.7019 Q692.0938,99.1237 691.5,98.8581 Q690.9063,98.5769 690.2813,98.5769 Q688.9375,98.5769 688.25,99.655 Q687.5625,100.7175 687.5625,102.8112 Q687.5625,104.905 688.25,105.9831 Q688.9375,107.0456 690.2813,107.0456 Q690.9063,107.0456 691.5,106.78 Q692.0938,106.4987 692.7188,105.9206 L692.7188,108.6394 Z " fill="#000000"/><a href="https://bo4e.github.io/BO4E-python/test-304506/api/com.Energiemix.html" target="_top" title="https://bo4e.github.io/BO4E-python/test-304506/api/com.Energiemix.html" xlink:actuate="onRequest" xlink:href="https://bo4e.github.io/BO4E-python/test-304506/api/com.Energiemix.html" xlink:show="new" xlink:title="https://bo4e.github.io/BO4E-python/test-304506/api/com.Energiemix.html" xlink:type="simple"><text fill="#0000FF" font-family="sans-serif" font-size="14" lengthAdjust="spacing" text-decoration="underline" textLength="79.29" x="704.6909" y="102.0251">Energiemix</text></a><text fill="#000000" font-family="sans-serif" font-size="10" lengthAdjust="spacing" textLength="81.1719" x="703.75" y="114.6091">com.Energiemix</text></g><!--class Preisgarantie--><g class="entity" data-qualified-name="bo4e.com.Preisgarantie" data-source-line="29" id="ent0006"><rect fill="#F1F1F1" height="37.9375" rx="2.5" ry="2.5" style="stroke:#181818;stroke-width:0.5;" width="124.6611" x="669" y="157.03"/><ellipse cx="684" cy="175.9987" fill="#ADD1B2" rx="11" ry="11" style="stroke:#181818;stroke-width:1;"/><path d="M686.9688,181.6394 Q686.3906,181.9362 685.75,182.0769 Q685.1094,182.2331 684.4063,182.2331 Q681.9063,182.2331 680.5781,180.5925 Q679.2656,178.9362 679.2656,175.8112 Q679.2656,172.6862 680.5781,171.03 Q681.9063,169.3737 684.4063,169.3737 Q685.1094,169.3737 685.75,169.53 Q686.4063,169.6862 686.9688,169.9831 L686.9688,172.7019 Q686.3438,172.1237 685.75,171.8581 Q685.1563,171.5769 684.5313,171.5769 Q683.1875,171.5769 682.5,172.655 Q681.8125,173.7175 681.8125,175.8112 Q681.8125,177.905 682.5,178.9831 Q683.1875,180.0456 684.5313,180.0456 Q685.1563,180.0456 685.75,179.78 Q686.3438,179.4987 686.9688,178.9206 L686.9688,181.6394 Z " fill="#000000"/><a href="https://bo4e.github.io/BO4E-python/test-304506/api/com.Preisgarantie.html" target="_top" title="https://bo4e.github.io/BO4E-python/test-304506/api/com.Preisgarantie.html" xlink:actuate="onRequest" xlink:href="https://bo4e.github.io/BO4E-python/test-304506/api/com.Preisgarantie.html" xlink:show="new" xlink:title="https://bo4e.github.io/BO4E-python/test-304506/api/com.Preisgarantie.html" xlink:type="simple"><text fill="#0000FF" font-family="sans-serif" font-size="14" lengthAdjust="spacing" text-decoration="underline" textLength="92.6611" x="698" y="175.0251">Preisgarantie</text></a><text fill="#000000" font-family="sans-serif" font-size="10" lengthAdjust="spacing" textLength="90.7227" x="698.9692" y="187.6091">com.Preisgarantie</text></g><!--class RegionalePreisstaffel--><g class="entity" data-qualified-name="bo4e.com.RegionalePreisstaffel" data-source-line="35" id="ent0007"><rect fill="#F1F1F1" height="37.9375" rx="2.5" ry="2.5" style="stroke:#181818;stroke-width:0.5;" width="179.3555" x="641.65" y="230.03"/><ellipse cx="656.65" cy="248.9987" fill="#ADD1B2" rx="11" ry="11" style="stroke:#181818;stroke-width:1;"/><path d="M659.6188,254.6394 Q659.0406,254.9362 658.4,255.0769 Q657.7594,255.2331 657.0563,255.2331 Q654.5563,255.2331 653.2281,253.5925 Q651.9156,251.9362 651.9156,248.8112 Q651.9156,245.6862 653.2281,244.03 Q654.5563,242.3737 657.0563,242.3737 Q657.7594,242.3737 658.4,242.53 Q659.0563,242.6862 659.6188,242.9831 L659.6188,245.7019 Q658.9938,245.1237 658.4,244.8581 Q657.8063,244.5769 657.1813,244.5769 Q655.8375,244.5769 655.15,245.655 Q654.4625,246.7175 654.4625,248.8112 Q654.4625,250.905 655.15,251.9831 Q655.8375,253.0456 657.1813,253.0456 Q657.8063,253.0456 658.4,252.78 Q658.9938,252.4987 659.6188,251.9206 L659.6188,254.6394 Z " fill="#000000"/><a href="https://bo4e.github.io/BO4E-python/test-304506/api/com.RegionalePreisstaffel.html" target="_top" title="https://bo4e.github.io/BO4E-python/test-304506/api/com.RegionalePreisstaffel.html" xlink:actuate="onRequest" xlink:href="https://bo4e.github.io/BO4E-python/test-304506/api/com.RegionalePreisstaffel.html" xlink:show="new" xlink:title="https://bo4e.github.io/BO4E-python/test-304506/api/com.RegionalePreisstaffel.html" xlink:type="simple"><text fill="#0000FF" font-family="sans-serif" font-size="14" lengthAdjust="spacing" text-decoration="underline" textLength="147.3555" x="670.65" y="248.0251">RegionalePreisstaffel</text></a><text fill="#000000" font-family="sans-serif" font-size="10" lengthAdjust="spacing" textLength="129.79" x="679.4327" y="260.6091">com.RegionalePreisstaffel</text></g><!--class Tarifeinschraenkung--><g class="entity" data-qualified-name="bo4e.com.Tarifeinschraenkung" data-source-line="44" id="ent0008"><rect fill="#F1F1F1" height="37.9375" rx="2.5" ry="2.5" style="stroke:#181818;stroke-width:0.5;" width="175.5068" x="643.58" y="303.03"/><ellipse cx="658.58" cy="321.9988" fill="#ADD1B2" rx="11" ry="11" style="stroke:#181818;stroke-width:1;"/><path d="M661.5488,327.6394 Q660.9706,327.9363 660.33,328.0769 Q659.6894,328.2331 658.9863,328.2331 Q656.4863,328.2331 655.1581,326.5925 Q653.8456,324.9363 653.8456,321.8113 Q653.8456,318.6863 655.1581,317.03 Q656.4863,315.3738 658.9863,315.3738 Q659.6894,315.3738 660.33,315.53 Q660.9863,315.6863 661.5488,315.9831 L661.5488,318.7019 Q660.9238,318.1238 660.33,317.8581 Q659.7363,317.5769 659.1113,317.5769 Q657.7675,317.5769 657.08,318.655 Q656.3925,319.7175 656.3925,321.8113 Q656.3925,323.905 657.08,324.9831 Q657.7675,326.0456 659.1113,326.0456 Q659.7363,326.0456 660.33,325.78 Q660.9238,325.4988 661.5488,324.9206 L661.5488,327.6394 Z " fill="#000000"/><a href="https://bo4e.github.io/BO4E-python/test-304506/api/com.Tarifeinschraenkung.html" target="_top" title="https://bo4e.github.io/BO4E-python/test-304506/api/com.Tarifeinschraenkung.html" xlink:actuate="onRequest" xlink:href="https://bo4e.github.io/BO4E-python/test-304506/api/com.Tarifeinschraenkung.html" xlink:show="new" xlink:title="https://bo4e.github.io/BO4E-python/test-304506/api/com.Tarifeinschraenkung.html" xlink:type="simple"><text fill="#0000FF" font-family="sans-serif" font-size="14" lengthAdjust="spacing" text-decoration="underline" textLength="143.5068" x="672.58" y="321.0251">Tarifeinschraenkung</text></a><text fill="#000000" font-family="sans-serif" font-size="10" lengthAdjust="spacing" textLength="127.041" x="680.8129" y="333.6091">com.Tarifeinschraenkung</text></g><!--class Vertragskonditionen--><g class="entity" data-qualified-name="bo4e.com.Vertragskonditionen" data-source-line="50" id="ent0009"><rect fill="#F1F1F1" height="37.9375" rx="2.5" ry="2.5" style="stroke:#181818;stroke-width:0.5;" width="174.5771" x="644.04" y="376.03"/><ellipse cx="659.04" cy="394.9988" fill="#ADD1B2" rx="11" ry="11" style="stroke:#181818;stroke-width:1;"/><path d="M662.0088,400.6394 Q661.4306,400.9363 660.79,401.0769 Q660.1494,401.2331 659.4463,401.2331 Q656.9463,401.2331 655.6181,399.5925 Q654.3056,397.9363 654.3056,394.8113 Q654.3056,391.6863 655.6181,390.03 Q656.9463,388.3738 659.4463,388.3738 Q660.1494,388.3738 660.79,388.53 Q661.4463,388.6863 662.0088,388.9831 L662.0088,391.7019 Q661.3838,391.1238 660.79,390.8581 Q660.1963,390.5769 659.5713,390.5769 Q658.2275,390.5769 657.54,391.655 Q656.8525,392.7175 656.8525,394.8113 Q656.8525,396.905 657.54,397.9831 Q658.2275,399.0456 659.5713,399.0456 Q660.1963,399.0456 660.79,398.78 Q661.3838,398.4988 662.0088,397.9206 L662.0088,400.6394 Z " fill="#000000"/><a href="https://bo4e.github.io/BO4E-python/test-304506/api/com.Vertragskonditionen.html" target="_top" title="https://bo4e.github.io/BO4E-python/test-304506/api/com.Vertragskonditionen.html" xlink:actuate="onRequest" xlink:href="https://bo4e.github.io/BO4E-python/test-304506/api/com.Vertragskonditionen.html" xlink:show="new" xlink:title="https://bo4e.github.io/BO4E-python/test-304506/api/com.Vertragskonditionen.html" xlink:type="simple"><text fill="#0000FF" font-family="sans-serif" font-size="14" lengthAdjust="spacing" text-decoration="underline" textLength="142.5771" x="673.04" y="394.0251">Vertragskonditionen</text></a><text fill="#000000" font-family="sans-serif" font-size="10" lengthAdjust="spacing" textLength="126.377" x="681.1401" y="406.6091">com.Vertragskonditionen</text></g><!--class Zeitraum--><g class="entity" data-qualified-name="bo4e.com.Zeitraum" data-source-line="57" id="ent0010"><rect fill="#F1F1F1" height="37.9375" rx="2.5" ry="2.5" style="stroke:#181818;stroke-width:0.5;" width="102.5566" x="680.05" y="449.03"/><ellipse cx="695.05" cy="467.9988" fill="#ADD1B2" rx="11" ry="11" style="stroke:#181818;stroke-width:1;"/><path d="M698.0188,473.6394 Q697.4406,473.9363 696.8,474.0769 Q696.1594,474.2331 695.4563,474.2331 Q692.9563,474.2331 691.6281,472.5925 Q690.3156,470.9363 690.3156,467.8113 Q690.3156,464.6863 691.6281,463.03 Q692.9563,461.3738 695.4563,461.3738 Q696.1594,461.3738 696.8,461.53 Q697.4563,461.6863 698.0188,461.9831 L698.0188,464.7019 Q697.3938,464.1238 696.8,463.8581 Q696.2063,463.5769 695.5813,463.5769 Q694.2375,463.5769 693.55,464.655 Q692.8625,465.7175 692.8625,467.8113 Q692.8625,469.905 693.55,470.9831 Q694.2375,472.0456 695.5813,472.0456 Q696.2063,472.0456 696.8,471.78 Q697.3938,471.4988 698.0188,470.9206 L698.0188,473.6394 Z " fill="#000000"/><a href="https://bo4e.github.io/BO4E-python/test-304506/api/com.Zeitraum.html" target="_top" title="https://bo4e.github.io/BO4E-python/test-304506/api/com.Zeitraum.html" xlink:actuate="onRequest" xlink:href="https://bo4e.github.io/BO4E-python/test-304506/api/com.Zeitraum.html" xlink:show="new" xlink:title="https://bo4e.github.io/BO4E-python/test-304506/api/com.Zeitraum.html" xlink:type="simple"><text fill="#0000FF" font-family="sans-serif" font-size="14" lengthAdjust="spacing" text-decoration="underline" textLength="64.4287" x="712.114" y="467.0251">Zeitraum</text></a><text fill="#000000" font-family="sans-serif" font-size="10" lengthAdjust="spacing" textLength="70.5566" x="709.05" y="479.6091">com.Zeitraum</text></g><!--class AufAbschlagstyp--><g class="entity" data-qualified-name="bo4e.enum.AufAbschlagstyp" data-source-line="69" id="ent0012"><rect fill="#F1F1F1" height="37.9375" rx="2.5" ry="2.5" style="stroke:#181818;stroke-width:0.5;" width="149.0176" x="656.82" y="562.03"/><ellipse cx="671.82" cy="580.9988" fill="#ADD1B2" rx="11" ry="11" style="stroke:#181818;stroke-width:1;"/><path d="M674.7888,586.6394 Q674.2106,586.9363 673.57,587.0769 Q672.9294,587.2331 672.2263,587.2331 Q669.7263,587.2331 668.3981,585.5925 Q667.0856,583.9363 667.0856,580.8113 Q667.0856,577.6863 668.3981,576.03 Q669.7263,574.3738 672.2263,574.3738 Q672.9294,574.3738 673.57,574.53 Q674.2263,574.6863 674.7888,574.9831 L674.7888,577.7019 Q674.1638,577.1238 673.57,576.8581 Q672.9763,576.5769 672.3513,576.5769 Q671.0075,576.5769 670.32,577.655 Q669.6325,578.7175 669.6325,580.8113 Q669.6325,582.905 670.32,583.9831 Q671.0075,585.0456 672.3513,585.0456 Q672.9763,585.0456 673.57,584.78 Q674.1638,584.4988 674.7888,583.9206 L674.7888,586.6394 Z " fill="#000000"/><a href="https://bo4e.github.io/BO4E-python/test-304506/api/enum.AufAbschlagstyp.html" target="_top" title="https://bo4e.github.io/BO4E-python/test-304506/api/enum.AufAbschlagstyp.html" xlink:actuate="onRequest" xlink:href="https://bo4e.github.io/BO4E-python/test-304506/api/enum.AufAbschlagstyp.html" xlink:show="new" xlink:title="https://bo4e.github.io/BO4E-python/test-304506/api/enum.AufAbschlagstyp.html" xlink:type="simple"><text fill="#0000FF" font-family="sans-serif" font-size="14" lengthAdjust="spacing" text-decoration="underline" textLength="117.0176" x="685.82" y="580.0251">AufAbschlagstyp</text></a><text fill="#000000" font-family="sans-serif" font-size="10" lengthAdjust="spacing" textLength="115.332" x="686.6628" y="592.6091">enum.AufAbschlagstyp</text></g><!--class AufAbschlagsziel--><g class="entity" data-qualified-name="bo4e.enum.AufAbschlagsziel" data-source-line="71" id="ent0013"><rect fill="#F1F1F1" height="37.9375" rx="2.5" ry="2.5" style="stroke:#181818;stroke-width:0.5;" width="150.0977" x="656.28" y="635.03"/><ellipse cx="671.28" cy="653.9988" fill="#ADD1B2" rx="11" ry="11" style="stroke:#181818;stroke-width:1;"/><path d="M674.2488,659.6394 Q673.6706,659.9363 673.03,660.0769 Q672.3894,660.2331 671.6863,660.2331 Q669.1863,660.2331 667.8581,658.5925 Q666.5456,656.9363 666.5456,653.8113 Q666.5456,650.6863 667.8581,649.03 Q669.1863,647.3738 671.6863,647.3738 Q672.3894,647.3738 673.03,647.53 Q673.6863,647.6863 674.2488,647.9831 L674.2488,650.7019 Q673.6238,650.1238 673.03,649.8581 Q672.4363,649.5769 671.8113,649.5769 Q670.4675,649.5769 669.78,650.655 Q669.0925,651.7175 669.0925,653.8113 Q669.0925,655.905 669.78,656.9831 Q670.4675,658.0456 671.8113,658.0456 Q672.4363,658.0456 673.03,657.78 Q673.6238,657.4988 674.2488,656.9206 L674.2488,659.6394 Z " fill="#000000"/><a href="https://bo4e.github.io/BO4E-python/test-304506/api/enum.AufAbschlagsziel.html" target="_top" title="https://bo4e.github.io/BO4E-python/test-304506/api/enum.AufAbschlagsziel.html" xlink:actuate="onRequest" xlink:href="https://bo4e.github.io/BO4E-python/test-304506/api/enum.AufAbschlagsziel.html" xlink:show="new" xlink:title="https://bo4e.github.io/BO4E-python/test-304506/api/enum.AufAbschlagsziel.html" xlink:type="simple"><text fill="#0000FF" font-family="sans-serif" font-size="14" lengthAdjust="spacing" text-decoration="underline" textLength="118.0977" x="685.28" y="653.0251">AufAbschlagsziel</text></a><text fill="#000000" font-family="sans-serif" font-size="10" lengthAdjust="spacing" textLength="116.1035" x="686.2771" y="665.6091">enum.AufAbschlagsziel</text></g><!--class Waehrungseinheit--><g class="entity" data-qualified-name="bo4e.enum.Waehrungseinheit" data-source-line="73" id="ent0014"><rect fill="#F1F1F1" height="37.9375" rx="2.5" ry="2.5" style="stroke:#181818;stroke-width:0.5;" width="159.832" x="651.42" y="708.03"/><ellipse cx="666.42" cy="726.9988" fill="#ADD1B2" rx="11" ry="11" style="stroke:#181818;stroke-width:1;"/><path d="M669.3888,732.6394 Q668.8106,732.9363 668.17,733.0769 Q667.5294,733.2331 666.8263,733.2331 Q664.3263,733.2331 662.9981,731.5925 Q661.6856,729.9363 661.6856,726.8113 Q661.6856,723.6863 662.9981,722.03 Q664.3263,720.3738 666.8263,720.3738 Q667.5294,720.3738 668.17,720.53 Q668.8263,720.6863 669.3888,720.9831 L669.3888,723.7019 Q668.7638,723.1238 668.17,722.8581 Q667.5763,722.5769 666.9513,722.5769 Q665.6075,722.5769 664.92,723.655 Q664.2325,724.7175 664.2325,726.8113 Q664.2325,728.905 664.92,729.9831 Q665.6075,731.0456 666.9513,731.0456 Q667.5763,731.0456 668.17,730.78 Q668.7638,730.4988 669.3888,729.9206 L669.3888,732.6394 Z " fill="#000000"/><a href="https://bo4e.github.io/BO4E-python/test-304506/api/enum.Waehrungseinheit.html" target="_top" title="https://bo4e.github.io/BO4E-python/test-304506/api/enum.Waehrungseinheit.html" xlink:actuate="onRequest" xlink:href="https://bo4e.github.io/BO4E-python/test-304506/api/enum.Waehrungseinheit.html" xlink:show="new" xlink:title="https://bo4e.github.io/BO4E-python/test-304506/api/enum.Waehrungseinheit.html" xlink:type="simple"><text fill="#0000FF" font-family="sans-serif" font-size="14" lengthAdjust="spacing" text-decoration="underline" textLength="127.832" x="680.42" y="726.0251">Waehrungseinheit</text></a><text fill="#000000" font-family="sans-serif" font-size="10" lengthAdjust="spacing" textLength="123.0566" x="682.8077" y="738.6091">enum.Waehrungseinheit</text></g><!--class RegionalerAufAbschlag--><g class="entity" data-qualified-name="RegionalerAufAbschlag" data-source-line="3" id="ent0002"><rect fill="#F1F1F1" height="192.6094" rx="2.5" ry="2.5" style="stroke:#181818;stroke-width:0.5;" width="360.6533" x="7" y="298.7"/><ellipse cx="101.8486" cy="317.6688" fill="#ADD1B2" rx="11" ry="11" style="stroke:#181818;stroke-width:1;"/><path d="M104.8174,323.3094 Q104.2393,323.6063 103.5986,323.7469 Q102.958,323.9031 102.2549,323.9031 Q99.7549,323.9031 98.4268,322.2625 Q97.1143,320.6063 97.1143,317.4813 Q97.1143,314.3563 98.4268,312.7 Q99.7549,311.0438 102.2549,311.0438 Q102.958,311.0438 103.5986,311.2 Q104.2549,311.3563 104.8174,311.6531 L104.8174,314.3719 Q104.1924,313.7938 103.5986,313.5281 Q103.0049,313.2469 102.3799,313.2469 Q101.0361,313.2469 100.3486,314.325 Q99.6611,315.3875 99.6611,317.4813 Q99.6611,319.575 100.3486,320.6531 Q101.0361,321.7156 102.3799,321.7156 Q103.0049,321.7156 103.5986,321.45 Q104.1924,321.1688 104.8174,320.5906 L104.8174,323.3094 Z " fill="#000000"/><a href="https://bo4e.github.io/BO4E-python/test-304506/api/com.RegionalerAufAbschlag.html" target="_top" title="https://bo4e.github.io/BO4E-python/test-304506/api/com.RegionalerAufAbschlag.html" xlink:actuate="onRequest" xlink:href="https://bo4e.github.io/BO4E-python/test-304506/api/com.RegionalerAufAbschlag.html" xlink:show="new" xlink:title="https://bo4e.github.io/BO4E-python/test-304506/api/com.RegionalerAufAbschlag.html" xlink:type="simple"><text fill="#0000FF" font-family="sans-serif" font-size="14" lengthAdjust="spacing" text-decoration="underline" textLength="162.4561" x="122.3486" y="316.6951">RegionalerAufAbschlag</text></a><text fill="#000000" font-family="sans-serif" font-size="10" lengthAdjust="spacing" textLength="140.5762" x="133.2886" y="329.2791">com.RegionalerAufAbschlag</text><line style="stroke:#181818;stroke-width:0.5;" x1="8" x2="366.6533" y1="336.6375" y2="336.6375"/><text fill="#000000" font-family="sans-serif" font-size="14" lengthAdjust="spacing" textLength="94.0215" x="13" y="353.6326">_id : str [0..1]</text><text fill="#000000" font-family="sans-serif" font-size="14" lengthAdjust="spacing" textLength="348.6533" x="13" y="369.9295">_typ : Literal["REGIONALERAUFABSCHLAG"] [0..1]</text><text fill="#000000" font-family="sans-serif" font-size="14" lengthAdjust="spacing" textLength="132.5215" x="13" y="386.2264">_version : str [0..1]</text><text fill="#000000" font-family="sans-serif" font-size="14" lengthAdjust="spacing" textLength="169.3877" x="13" y="402.5232">beschreibung : str [0..1]</text><text fill="#000000" font-family="sans-serif" font-size="14" lengthAdjust="spacing" textLength="163.6729" x="13" y="418.8201">bezeichnung : str [0..1]</text><text fill="#000000" font-family="sans-serif" font-size="14" lengthAdjust="spacing" textLength="252.1982" x="13" y="435.117">tarifnamensaenderungen : str [0..1]</text><text fill="#000000" font-family="sans-serif" font-size="14" lengthAdjust="spacing" textLength="224.041" x="13" y="451.4139">voraussetzungen : list[str] [0..*]</text><text fill="#000000" font-family="sans-serif" font-size="14" lengthAdjust="spacing" textLength="128.4814" x="13" y="467.7107">website : str [0..1]</text><text fill="#000000" font-family="sans-serif" font-size="14" lengthAdjust="spacing" textLength="211.9346" x="13" y="484.0076">zusatzprodukte : list[str] [0..*]</text></g><!--link RegionalerAufAbschlag to Energiemix--><g class="link" data-entity-1="ent0002" data-entity-2="ent0004" data-link-type="composition" data-source-line="77" id="lnk15"><path codeLine="77" d="M256.65,298.3 C293.42,253.25 342.53,202.89 397.65,172 C485.9,122.55 593.2396,109.0761 662.3896,105.1161" fill="none" id="RegionalerAufAbschlag-to-Energiemix" style="stroke:#181818;stroke-width:1;"/><polygon fill="#181818" points="674.37,104.43,668.1511,100.7796,662.3896,105.1161,668.6085,108.7665,674.37,104.43" style="stroke:#181818;stroke-width:1;"/><text fill="#000000" font-family="sans-serif" font-size="13" lengthAdjust="spacing" textLength="143.9395" x="420.15" y="111.0669">energiemixaenderung</text><text fill="#000000" font-family="sans-serif" font-size="13" lengthAdjust="spacing" textLength="24.8066" x="642.0139" y="117.5935">0..1</text></g><!--link RegionalerAufAbschlag to Preisgarantie--><g class="link" data-entity-1="ent0002" data-entity-2="ent0006" data-link-type="composition" data-source-line="78" id="lnk16"><path codeLine="78" d="M312.48,298.3 C339.47,280.56 368.65,263.68 397.65,251 C487.43,211.75 588.275,193.4839 656.765,184.3639" fill="none" id="RegionalerAufAbschlag-to-Preisgarantie" style="stroke:#181818;stroke-width:1;"/><polygon fill="#181818" points="668.66,182.78,662.1845,179.607,656.765,184.3639,663.2405,187.537,668.66,182.78" style="stroke:#181818;stroke-width:1;"/><text fill="#000000" font-family="sans-serif" font-size="13" lengthAdjust="spacing" textLength="125.0044" x="429.15" y="193.0669">garantieaenderung</text><text fill="#000000" font-family="sans-serif" font-size="13" lengthAdjust="spacing" textLength="24.8066" x="636.0728" y="196.5058">0..1</text></g><!--link RegionalerAufAbschlag to RegionalePreisstaffel--><g class="link" data-entity-1="ent0002" data-entity-2="ent0007" data-link-type="composition" data-source-line="79" id="lnk17"><path codeLine="79" d="M368.14,325.98 C378.08,322.8 387.96,319.78 397.65,317 C478.97,293.69 561.8392,277.2161 629.3492,265.4161" fill="none" id="RegionalerAufAbschlag-to-RegionalePreisstaffel" style="stroke:#181818;stroke-width:1;"/><polygon fill="#181818" points="641.17,263.35,634.5709,260.4428,629.3492,265.4161,635.9483,268.3233,641.17,263.35" style="stroke:#181818;stroke-width:1;"/><text fill="#000000" font-family="sans-serif" font-size="13" lengthAdjust="spacing" textLength="48.8389" x="467.65" y="272.0669">staffeln</text><text fill="#000000" font-family="sans-serif" font-size="13" lengthAdjust="spacing" textLength="23.0356" x="610.7058" y="277.0265">0..*</text></g><!--link RegionalerAufAbschlag to Tarifeinschraenkung--><g class="link" data-entity-1="ent0002" data-entity-2="ent0008" data-link-type="composition" data-source-line="80" id="lnk18"><path codeLine="80" d="M368.05,370.79 C460.65,358.32 557.4572,345.2807 631.4572,335.3207" fill="none" id="RegionalerAufAbschlag-to-Tarifeinschraenkung" style="stroke:#181818;stroke-width:1;"/><polygon fill="#181818" points="643.35,333.72,636.8701,330.5561,631.4572,335.3207,637.9372,338.4846,643.35,333.72" style="stroke:#181818;stroke-width:1;"/><text fill="#000000" font-family="sans-serif" font-size="13" lengthAdjust="spacing" textLength="181.1177" x="401.15" y="338.0669">einschraenkungsaenderung</text><text fill="#000000" font-family="sans-serif" font-size="13" lengthAdjust="spacing" textLength="24.8066" x="610.7923" y="347.4444">0..1</text></g><!--link RegionalerAufAbschlag to Vertragskonditionen--><g class="link" data-entity-1="ent0002" data-entity-2="ent0009" data-link-type="composition" data-source-line="81" id="lnk19"><path codeLine="81" d="M368.05,395 C460.81,395 557.71,395 631.72,395" fill="none" id="RegionalerAufAbschlag-to-Vertragskonditionen" style="stroke:#181818;stroke-width:1;"/><polygon fill="#181818" points="643.72,395,637.72,391,631.72,395,637.72,399,643.72,395" style="stroke:#181818;stroke-width:1;"/><text fill="#000000" font-family="sans-serif" font-size="13" lengthAdjust="spacing" textLength="186.9131" x="398.65" y="391.0669">vertagskonditionsaenderung</text><text fill="#000000" font-family="sans-serif" font-size="13" lengthAdjust="spacing" textLength="24.8066" x="611.1945" y="407.7172">0..1</text></g><!--link RegionalerAufAbschlag to Zeitraum--><g class="link" data-entity-1="ent0002" data-entity-2="ent0010" data-link-type="composition" data-source-line="82" id="lnk20"><path codeLine="82" d="M368.05,419.21 C477.29,433.92 597.0375,450.0477 667.6975,459.5677" fill="none" id="RegionalerAufAbschlag-to-Zeitraum" style="stroke:#181818;stroke-width:1;"/><polygon fill="#181818" points="679.59,461.17,674.1778,456.4047,667.6975,459.5677,673.1096,464.333,679.59,461.17" style="stroke:#181818;stroke-width:1;"/><text fill="#000000" font-family="sans-serif" font-size="13" lengthAdjust="spacing" textLength="133.8149" x="425.15" y="420.0669">gueltigkeitszeitraum</text><text fill="#000000" font-family="sans-serif" font-size="13" lengthAdjust="spacing" textLength="24.8066" x="647.0794" y="473.336">0..1</text></g><!--link RegionalerAufAbschlag to AufAbschlagstyp--><g class="link" data-entity-1="ent0002" data-entity-2="ent0012" data-link-type="composition" data-source-line="83" id="lnk21"><path codeLine="83" d="M367.96,463.45 C377.99,467.07 387.94,470.61 397.65,474 C490.73,506.51 588.2251,537.3166 655.3951,558.0766" fill="none" id="RegionalerAufAbschlag-to-AufAbschlagstyp" style="stroke:#181818;stroke-width:1;"/><polygon fill="#181818" points="666.86,561.62,662.3087,556.0267,655.3951,558.0766,659.9464,563.6699,666.86,561.62" style="stroke:#181818;stroke-width:1;"/><text fill="#000000" font-family="sans-serif" font-size="13" lengthAdjust="spacing" textLength="107.7324" x="438.15" y="470.0669">aufAbschlagstyp</text><text fill="#000000" font-family="sans-serif" font-size="13" lengthAdjust="spacing" textLength="24.8066" x="624.319" y="552.1514">0..1</text></g><!--link RegionalerAufAbschlag to AufAbschlagsziel--><g class="link" data-entity-1="ent0002" data-entity-2="ent0013" data-link-type="composition" data-source-line="84" id="lnk22"><path codeLine="84" d="M295.7,491.62 C326.96,516.18 362.26,540.75 397.65,559 C478.39,600.64 506.25,592.24 593.65,617 C614.23,622.83 625.0271,625.8336 645.5971,631.4036" fill="none" id="RegionalerAufAbschlag-to-AufAbschlagsziel" style="stroke:#181818;stroke-width:1;"/><polygon fill="#181818" points="657.18,634.54,652.434,629.1108,645.5971,631.4036,650.3431,636.8327,657.18,634.54" style="stroke:#181818;stroke-width:1;"/><text fill="#000000" font-family="sans-serif" font-size="13" lengthAdjust="spacing" textLength="108.7354" x="437.65" y="555.0669">aufAbschlagsziel</text><text fill="#000000" font-family="sans-serif" font-size="13" lengthAdjust="spacing" textLength="24.8066" x="623.2657" y="628.4975">0..1</text></g><!--link RegionalerAufAbschlag to Waehrungseinheit--><g class="link" data-entity-1="ent0002" data-entity-2="ent0014" data-link-type="composition" data-source-line="85" id="lnk23"><path codeLine="85" d="M249.45,491.72 C286.48,542.87 338.04,602.64 397.65,640 C475.56,688.82 568.2248,708.7975 639.1848,718.2375" fill="none" id="RegionalerAufAbschlag-to-Waehrungseinheit" style="stroke:#181818;stroke-width:1;"/><polygon fill="#181818" points="651.08,719.82,645.6599,715.0637,639.1848,718.2375,644.6049,722.9938,651.08,719.82" style="stroke:#181818;stroke-width:1;"/><text fill="#000000" font-family="sans-serif" font-size="13" lengthAdjust="spacing" textLength="44.7954" x="469.65" y="636.0669">einheit</text><text fill="#000000" font-family="sans-serif" font-size="13" lengthAdjust="spacing" textLength="24.8066" x="618.6123" y="731.9226">0..1</text></g><?plantuml-src jLTjRziu3FwUNo5atmeqIM_TC1Y70UvEpOnrwU2ctR1SSL1YnjPYou4axyL3__lHSjpwHLtZMoxv4f4KzOWFHJ8nh3NHAP4yZ3G9k8ILvgaO35OnKueC5uj8wwronkDbUWgZaEieMuvuEZwxFAN7snywIiLOWzB7poUdBoOlnspBnwiq6VaGeXyMWtIpjRjKgoXcuIZIIKoigjlRlyMVYkVWd4nUF-fWI9YoxoS_1mG___20E4HfIHQJqUZajXJg7rkKNd0DaiMBeK-dtkNClQ2-UttkdbszUNlXJeUtZIrVGIeyfUji2NYW1BxCH6ZJvi1NaR0gDPDyBLW2GZ4G0KYq0iiHNrF9CgL0vvL1p9LUe5M9yQWq-mPBXLVgxiypnNI-bMcGROo-i_rkC2Xmg2rR0HaQQZ7c9hhLWZoZ4_VLopUxmFvkFb01CkIGyEzb4ZoiEym_g0oWXsKVZkcC-bEFllS-xKiiqscIP137g5h7ATDDNXEGc_wKhz8_QCBLxiIEMxY_cyWIF05jk6XOX8X8yt03NAilBB9O8BUUk8HDEa-tSvCjopIDwnRMHBax2AqVy2Mea4acD8UIsOQeGsv3Q_XjIFfG_C6dtjNKzTtPtAE__tmF4v3xucIkfJHRho5krRswwl6wLxTgrhswvZ_LFHEvgxbxVaulzduUKlCDn9xb7E0YAl9pM-2ofVaEQoX1v72sXyrDzxaSXfvvKO8HRv44M8EB5rsIOr5qgB7O668iyZwqp5tVEwVU3FkGxzBPk-lPtiredqf_YB3TWDIIXMgJYe0N0mA8CcmMHITi5XiJDekyJzXkg3_ttUdLkylPNzuS4vlEzivbaRCeteqE48Azul-_XU8plXXiyqaPnshL2LwbC16h5dt2z9bw6ARhz_l69c2PwKFjDow2W6aysa4BJBMcAeiaDa6DIiqJQ3rhgH_RQPJslNVuROye8BBQZ5AioBFWPFNynQi332c5kr5je5GOnvARbh11aMsNWTYI8S2xmqFCUTLRsj9VWomiEYWBuU5WVcGG5VEjsZM74cPRseNPjZ0msq834sTO-p-1u-CZCYooQ5YV7PtQi7K_VJ_jeJcTEAJwkQ-Be-4ZVTkfEfvu6eIjmJYaAL0zBcMhl0x1ag3hmZuUxokJqvXOyvtuQGVjz-8GrfJqSs6IkUcZ43tjf9DgJZNU30OH3u0aa2onTWvKb7uZzd-fP8r71UfV?></g></svg>