<?plantuml 1.2026.1?><svg xmlns="http://www.w3.org/2000/svg" xmlns:xlink="http://www.w3.org/1999/xlink" contentStyleType="text/css" data-diagram-type="CLASS" height="181px" preserveAspectRatio="none" style="width:779px;height:181px;background:#FFFFFF;" version="1.1" viewBox="0 0 779 181" width="779px" zoomAndPan="magnify"><defs/><g><!--cluster bo4e--><g class="cluster" data-qualified-name="bo4e" data-source-line="13" id="ent0005"><path d="M507.89,6 L547.766,6 A3.75,3.75 0 0 1 550.266,8.5 L557.266,28.2969 L769.79,28.2969 A2.5,2.5 0 0 1 772.29,30.7969 L772.29,159.5 A2.5,2.5 0 0 1 769.79,162 L507.89,162 A2.5,2.5 0 0 1 505.39,159.5 L505.39,8.5 A2.5,2.5 0 0 1 507.89,6" fill="none" style="stroke:#000000;stroke-width:1.5;"/><line style="stroke:#000000;stroke-width:1.5;" x1="505.39" x2="557.266" y1="28.2969" y2="28.2969"/><text fill="#000000" font-family="sans-serif" font-size="14" font-weight="bold" lengthAdjust="spacing" textLength="38.876" x="509.39" y="20.9951">bo4e</text></g><!--cluster com--><g class="cluster" data-qualified-name="bo4e.com" data-source-line="12" id="ent0003"><path d="M531.89,49 L609.5892,49 A3.75,3.75 0 0 1 612.0892,51.5 L619.0892,71.2969 L745.79,71.2969 A2.5,2.5 0 0 1 748.29,73.7969 L748.29,135.5 A2.5,2.5 0 0 1 745.79,138 L531.89,138 A2.5,2.5 0 0 1 529.39,135.5 L529.39,51.5 A2.5,2.5 0 0 1 531.89,49" fill="#E0A86C" style="stroke:#000000;stroke-width:1.5;"/><line style="stroke:#000000;stroke-width:1.5;" x1="529.39" x2="619.0892" y1="71.2969" y2="71.2969"/><text fill="#000000" font-family="sans-serif" font-size="14" font-weight="bold" lengthAdjust="spacing" textLength="76.6992" x="533.39" y="63.9951">bo4e.com</text></g><!--class TarifpreisstaffelProOrt--><g class="entity" data-qualified-name="bo4e.com.TarifpreisstaffelProOrt" data-source-line="13" id="ent0004"><rect fill="#F1F1F1" height="37.9375" rx="2.5" ry="2.5" style="stroke:#181818;stroke-width:0.5;" width="186.8955" x="545.39" y="84.03"/><ellipse cx="560.39" cy="102.9988" fill="#ADD1B2" rx="11" ry="11" style="stroke:#181818;stroke-width:1;"/><path d="M563.3588,108.6394 Q562.7806,108.9363 562.14,109.0769 Q561.4994,109.2331 560.7963,109.2331 Q558.2963,109.2331 556.9681,107.5925 Q555.6556,105.9363 555.6556,102.8113 Q555.6556,99.6863 556.9681,98.03 Q558.2963,96.3738 560.7963,96.3738 Q561.4994,96.3738 562.14,96.53 Q562.7963,96.6863 563.3588,96.9831 L563.3588,99.7019 Q562.7338,99.1238 562.14,98.8581 Q561.5463,98.5769 560.9213,98.5769 Q559.5775,98.5769 558.89,99.655 Q558.2025,100.7175 558.2025,102.8113 Q558.2025,104.905 558.89,105.9831 Q559.5775,107.0456 560.9213,107.0456 Q561.5463,107.0456 562.14,106.78 Q562.7338,106.4988 563.3588,105.9206 L563.3588,108.6394 Z " fill="#000000"/><a href="https://bo4e.github.io/BO4E-python/test-304506/api/com.TarifpreisstaffelProOrt.html" target="_top" title="https://bo4e.github.io/BO4E-python/test-304506/api/com.TarifpreisstaffelProOrt.html" xlink:actuate="onRequest" xlink:href="https://bo4e.github.io/BO4E-python/test-304506/api/com.TarifpreisstaffelProOrt.html" xlink:show="new" xlink:title="https://bo4e.github.io/BO4E-python/test-304506/api/com.TarifpreisstaffelProOrt.html" xlink:type="simple"><text fill="#0000FF" font-family="sans-serif" font-size="14" lengthAdjust="spacing" text-decoration="underline" textLength="154.8955" x="574.39" y="102.0251">TarifpreisstaffelProOrt</text></a><text fill="#000000" font-family="sans-serif" font-size="10" lengthAdjust="spacing" textLength="135.1758" x="584.2499" y="114.6091">com.TarifpreisstaffelProOrt</text></g><!--class TarifpreispositionProOrt--><g class="entity" data-qualified-name="TarifpreispositionProOrt" data-source-line="3" id="ent0002"><rect fill="#F1F1F1" height="143.7188" rx="2.5" ry="2.5" style="stroke:#181818;stroke-width:0.5;" width="370.3945" x="7" y="31.14"/><ellipse cx="104.6343" cy="50.1087" fill="#ADD1B2" rx="11" ry="11" style="stroke:#181818;stroke-width:1;"/><path d="M107.603,55.7494 Q107.0249,56.0462 106.3843,56.1869 Q105.7437,56.3431 105.0405,56.3431 Q102.5405,56.3431 101.2124,54.7025 Q99.8999,53.0462 99.8999,49.9212 Q99.8999,46.7962 101.2124,45.14 Q102.5405,43.4837 105.0405,43.4837 Q105.7437,43.4837 106.3843,43.64 Q107.0405,43.7962 107.603,44.0931 L107.603,46.8119 Q106.978,46.2337 106.3843,45.9681 Q105.7905,45.6869 105.1655,45.6869 Q103.8218,45.6869 103.1343,46.765 Q102.4468,47.8275 102.4468,49.9212 Q102.4468,52.015 103.1343,53.0931 Q103.8218,54.1556 105.1655,54.1556 Q105.7905,54.1556 106.3843,53.89 Q106.978,53.6087 107.603,53.0306 L107.603,55.7494 Z " fill="#000000"/><a href="https://bo4e.github.io/BO4E-python/test-304506/api/com.TarifpreispositionProOrt.html" target="_top" title="https://bo4e.github.io/BO4E-python/test-304506/api/com.TarifpreispositionProOrt.html" xlink:actuate="onRequest" xlink:href="https://bo4e.github.io/BO4E-python/test-304506/api/com.TarifpreispositionProOrt.html" xlink:show="new" xlink:title="https://bo4e.github.io/BO4E-python/test-304506/api/com.TarifpreispositionProOrt.html" xlink:type="simple"><text fill="#0000FF" font-family="sans-serif" font-size="14" lengthAdjust="spacing" text-decoration="underline" textLength="166.626" x="125.1343" y="49.1351">TarifpreispositionProOrt</text></a><text fill="#000000" font-family="sans-serif" font-size="10" lengthAdjust="spacing" textLength="143.5547" x="136.6699" y="61.7191">com.TarifpreispositionProOrt</text><line style="stroke:#181818;stroke-width:0.5;" x1="8" x2="376.3945" y1="69.0775" y2="69.0775"/><text fill="#000000" font-family="sans-serif" font-size="14" lengthAdjust="spacing" textLength="94.0215" x="13" y="86.0726">_id : str [0..1]</text><text fill="#000000" font-family="sans-serif" font-size="14" lengthAdjust="spacing" textLength="358.3945" x="13" y="102.3695">_typ : Literal["TARIFPREISPOSITIONPROORT"] [0..1]</text><text fill="#000000" font-family="sans-serif" font-size="14" lengthAdjust="spacing" textLength="132.5215" x="13" y="118.6664">_version : str [0..1]</text><text fill="#000000" font-family="sans-serif" font-size="14" lengthAdjust="spacing" textLength="119.1982" x="13" y="134.9632">netznr : str [0..1]</text><text fill="#000000" font-family="sans-serif" font-size="14" lengthAdjust="spacing" textLength="94.0557" x="13" y="151.2601">ort : str [0..1]</text><text fill="#000000" font-family="sans-serif" font-size="14" lengthAdjust="spacing" textLength="155.0527" x="13" y="167.557">postleitzahl : str [0..1]</text></g><!--link TarifpreispositionProOrt to TarifpreisstaffelProOrt--><g class="link" data-entity-1="ent0002" data-entity-2="ent0004" data-link-type="composition" data-source-line="25" id="lnk6"><path codeLine="25" d="M377.58,103 C435.24,103 484.41,103 532.95,103" fill="none" id="TarifpreispositionProOrt-to-TarifpreisstaffelProOrt" style="stroke:#181818;stroke-width:1;"/><polygon fill="#181818" points="544.95,103,538.95,99,532.95,103,538.95,107,544.95,103" style="stroke:#181818;stroke-width:1;"/><text fill="#000000" font-family="sans-serif" font-size="13" lengthAdjust="spacing" textLength="80.8184" x="408.39" y="99.0669">preisstaffeln</text><text fill="#000000" font-family="sans-serif" font-size="13" lengthAdjust="spacing" textLength="23.0356" x="514.2119" y="115.6226">0..*</text></g><?plantuml-src hLFHQi9047pFLopfcs0IgPKYfQ15GH0ZCVGbbNAQJN9moOMxjSKK_xsdjT1K8stflTtCxB2xSoSm8I09YgSPGSmLhedBmhBMWcaDTXHbHANkk-vATj59EMMRbSEbE_IxetQvfKmMBg6czhNNlV5wBYkvkvQv4pB5ar8XrwNKVEyvLz9Nv6IK2sXYbykduaxp2liTx_wIZGrCDxh0cmNcFFCO-g19GUGvJcVv0TAsDEYK4oec8ZiS19FnF1XD5dD_CGad_cmU-7uGsijQrGigRVnF_Ggagb2dk3Hjd82cJHB8gMAPgBCxoofOZhfaQmJxi6ip_c7ApmjSZRp1RU_XEDt_1QI99GcAy_dKo0lnr7JVqgbnVmjd4Gx6uz7qTzamjJBBreSU39i8oQY9duNd5AdQ575Z_N6kL65HuV07ciT3bpNDRXzzuqDkjrjW6s7BRbnd7xw2vkTcF4R8CL-PjLWwaw_G-8iWuIXY_Gu0?></g></svg>