<?xml version="1.0" encoding="us-ascii" standalone="no"?><svg xmlns="http://www.w3.org/2000/svg" xmlns:xlink="http://www.w3.org/1999/xlink" contentStyleType="text/css" height="388px" preserveAspectRatio="none" style="width:1097px;height:388px;background:#FFFFFF;" version="1.1" viewBox="0 0 1097 388" width="1097px" zoomAndPan="magnify"><defs/><g><!--cluster bo4e--><g id="cluster_bo4e"><path d="M895.5,6 L936.5,6 A3.75,3.75 0 0 1 939,8.5 L946,28.2969 L1087.5,28.2969 A2.5,2.5 0 0 1 1090,30.7969 L1090,378.5 A2.5,2.5 0 0 1 1087.5,381 L895.5,381 A2.5,2.5 0 0 1 893,378.5 L893,8.5 A2.5,2.5 0 0 1 895.5,6 " fill="none" style="stroke:#000000;stroke-width:1.5;"/><line style="stroke:#000000;stroke-width:1.5;" x1="893" x2="946" y1="28.2969" y2="28.2969"/><text fill="#000000" font-family="sans-serif" font-size="14" font-weight="bold" lengthAdjust="spacing" textLength="40" x="897" y="20.9951">bo4e</text></g><!--cluster com--><g id="cluster_com"><path d="M919.5,49 L998.5,49 A3.75,3.75 0 0 1 1001,51.5 L1008,71.2969 L1063.5,71.2969 A2.5,2.5 0 0 1 1066,73.7969 L1066,354.5 A2.5,2.5 0 0 1 1063.5,357 L919.5,357 A2.5,2.5 0 0 1 917,354.5 L917,51.5 A2.5,2.5 0 0 1 919.5,49 " fill="#E0A86C" style="stroke:#000000;stroke-width:1.5;"/><line style="stroke:#000000;stroke-width:1.5;" x1="917" x2="1008" y1="71.2969" y2="71.2969"/><a href="https://bo4e.github.io/BO4E-python/latest/api/bo4e.com.html" target="_top" title="https://bo4e.github.io/BO4E-python/latest/api/bo4e.com.html" xlink:actuate="onRequest" xlink:href="https://bo4e.github.io/BO4E-python/latest/api/bo4e.com.html" xlink:show="new" xlink:title="https://bo4e.github.io/BO4E-python/latest/api/bo4e.com.html" xlink:type="simple"><text fill="#0000FF" font-family="sans-serif" font-size="14" font-weight="bold" lengthAdjust="spacing" text-decoration="underline" textLength="78" x="921" y="63.9951">bo4e.com</text></a></g><!--class COM--><g id="elem_COM"><rect codeLine="9" fill="#F1F1F1" height="37.9375" id="COM" rx="2.5" ry="2.5" style="stroke:#181818;stroke-width:0.5;" width="104" x="939.5" y="84.03"/><ellipse cx="954.5" cy="102.9987" fill="#ADD1B2" rx="11" ry="11" style="stroke:#181818;stroke-width:1.0;"/><path d="M957.4688,108.6394 Q956.8906,108.9362 956.25,109.0769 Q955.6094,109.2331 954.9063,109.2331 Q952.4063,109.2331 951.0781,107.5925 Q949.7656,105.9362 949.7656,102.8112 Q949.7656,99.6862 951.0781,98.03 Q952.4063,96.3737 954.9063,96.3737 Q955.6094,96.3737 956.25,96.53 Q956.9063,96.6862 957.4688,96.9831 L957.4688,99.7019 Q956.8438,99.1237 956.25,98.8581 Q955.6563,98.5769 955.0313,98.5769 Q953.6875,98.5769 953,99.655 Q952.3125,100.7175 952.3125,102.8112 Q952.3125,104.905 953,105.9831 Q953.6875,107.0456 955.0313,107.0456 Q955.6563,107.0456 956.25,106.78 Q956.8438,106.4987 957.4688,105.9206 L957.4688,108.6394 Z " fill="#000000"/><a href="https://bo4e.github.io/BO4E-python/latest/api/bo4e.com.html#bo4e.com.com.COM" target="_top" title="https://bo4e.github.io/BO4E-python/latest/api/bo4e.com.html#bo4e.com.com.COM" xlink:actuate="onRequest" xlink:href="https://bo4e.github.io/BO4E-python/latest/api/bo4e.com.html#bo4e.com.com.COM" xlink:show="new" xlink:title="https://bo4e.github.io/BO4E-python/latest/api/bo4e.com.html#bo4e.com.com.COM" xlink:type="simple"><text fill="#0000FF" font-family="sans-serif" font-size="14" lengthAdjust="spacing" text-decoration="underline" textLength="33" x="988" y="102.0251">COM</text></a><text fill="#000000" font-family="sans-serif" font-size="10" lengthAdjust="spacing" textLength="72" x="968.5" y="114.6091">bo4e.com.com</text></g><!--class Menge--><g id="elem_Menge"><rect codeLine="10" fill="#F1F1F1" height="37.9375" id="Menge" rx="2.5" ry="2.5" style="stroke:#181818;stroke-width:0.5;" width="117" x="933" y="157.03"/><ellipse cx="948" cy="175.9988" fill="#ADD1B2" rx="11" ry="11" style="stroke:#181818;stroke-width:1.0;"/><path d="M950.9688,181.6394 Q950.3906,181.9363 949.75,182.0769 Q949.1094,182.2331 948.4063,182.2331 Q945.9063,182.2331 944.5781,180.5925 Q943.2656,178.9363 943.2656,175.8113 Q943.2656,172.6863 944.5781,171.03 Q945.9063,169.3738 948.4063,169.3738 Q949.1094,169.3738 949.75,169.53 Q950.4063,169.6863 950.9688,169.9831 L950.9688,172.7019 Q950.3438,172.1238 949.75,171.8581 Q949.1563,171.5769 948.5313,171.5769 Q947.1875,171.5769 946.5,172.655 Q945.8125,173.7175 945.8125,175.8113 Q945.8125,177.905 946.5,178.9831 Q947.1875,180.0456 948.5313,180.0456 Q949.1563,180.0456 949.75,179.78 Q950.3438,179.4988 950.9688,178.9206 L950.9688,181.6394 Z " fill="#000000"/><a href="https://bo4e.github.io/BO4E-python/latest/api/bo4e.com.html#bo4e.com.menge.Menge" target="_top" title="https://bo4e.github.io/BO4E-python/latest/api/bo4e.com.html#bo4e.com.menge.Menge" xlink:actuate="onRequest" xlink:href="https://bo4e.github.io/BO4E-python/latest/api/bo4e.com.html#bo4e.com.menge.Menge" xlink:show="new" xlink:title="https://bo4e.github.io/BO4E-python/latest/api/bo4e.com.html#bo4e.com.menge.Menge" xlink:type="simple"><text fill="#0000FF" font-family="sans-serif" font-size="14" lengthAdjust="spacing" text-decoration="underline" textLength="48" x="980.5" y="175.0251">Menge</text></a><text fill="#000000" font-family="sans-serif" font-size="10" lengthAdjust="spacing" textLength="85" x="962" y="187.6091">bo4e.com.menge</text></g><!--class Preis--><g id="elem_Preis"><rect codeLine="11" fill="#F1F1F1" height="37.9375" id="Preis" rx="2.5" ry="2.5" style="stroke:#181818;stroke-width:0.5;" width="106" x="938.5" y="230.03"/><ellipse cx="953.5" cy="248.9988" fill="#ADD1B2" rx="11" ry="11" style="stroke:#181818;stroke-width:1.0;"/><path d="M956.4688,254.6394 Q955.8906,254.9363 955.25,255.0769 Q954.6094,255.2331 953.9063,255.2331 Q951.4063,255.2331 950.0781,253.5925 Q948.7656,251.9363 948.7656,248.8113 Q948.7656,245.6863 950.0781,244.03 Q951.4063,242.3738 953.9063,242.3738 Q954.6094,242.3738 955.25,242.53 Q955.9063,242.6863 956.4688,242.9831 L956.4688,245.7019 Q955.8438,245.1238 955.25,244.8581 Q954.6563,244.5769 954.0313,244.5769 Q952.6875,244.5769 952,245.655 Q951.3125,246.7175 951.3125,248.8113 Q951.3125,250.905 952,251.9831 Q952.6875,253.0456 954.0313,253.0456 Q954.6563,253.0456 955.25,252.78 Q955.8438,252.4988 956.4688,251.9206 L956.4688,254.6394 Z " fill="#000000"/><a href="https://bo4e.github.io/BO4E-python/latest/api/bo4e.com.html#bo4e.com.preis.Preis" target="_top" title="https://bo4e.github.io/BO4E-python/latest/api/bo4e.com.html#bo4e.com.preis.Preis" xlink:actuate="onRequest" xlink:href="https://bo4e.github.io/BO4E-python/latest/api/bo4e.com.html#bo4e.com.preis.Preis" xlink:show="new" xlink:title="https://bo4e.github.io/BO4E-python/latest/api/bo4e.com.html#bo4e.com.preis.Preis" xlink:type="simple"><text fill="#0000FF" font-family="sans-serif" font-size="14" lengthAdjust="spacing" text-decoration="underline" textLength="34" x="987.5" y="248.0251">Preis</text></a><text fill="#000000" font-family="sans-serif" font-size="10" lengthAdjust="spacing" textLength="74" x="967.5" y="260.6091">bo4e.com.preis</text></g><!--class Betrag--><g id="elem_Betrag"><rect codeLine="12" fill="#F1F1F1" height="37.9375" id="Betrag" rx="2.5" ry="2.5" style="stroke:#181818;stroke-width:0.5;" width="115" x="934" y="303.03"/><ellipse cx="949" cy="321.9988" fill="#ADD1B2" rx="11" ry="11" style="stroke:#181818;stroke-width:1.0;"/><path d="M951.9688,327.6394 Q951.3906,327.9363 950.75,328.0769 Q950.1094,328.2331 949.4063,328.2331 Q946.9063,328.2331 945.5781,326.5925 Q944.2656,324.9363 944.2656,321.8113 Q944.2656,318.6863 945.5781,317.03 Q946.9063,315.3738 949.4063,315.3738 Q950.1094,315.3738 950.75,315.53 Q951.4063,315.6863 951.9688,315.9831 L951.9688,318.7019 Q951.3438,318.1238 950.75,317.8581 Q950.1563,317.5769 949.5313,317.5769 Q948.1875,317.5769 947.5,318.655 Q946.8125,319.7175 946.8125,321.8113 Q946.8125,323.905 947.5,324.9831 Q948.1875,326.0456 949.5313,326.0456 Q950.1563,326.0456 950.75,325.78 Q951.3438,325.4988 951.9688,324.9206 L951.9688,327.6394 Z " fill="#000000"/><a href="https://bo4e.github.io/BO4E-python/latest/api/bo4e.com.html#bo4e.com.betrag.Betrag" target="_top" title="https://bo4e.github.io/BO4E-python/latest/api/bo4e.com.html#bo4e.com.betrag.Betrag" xlink:actuate="onRequest" xlink:href="https://bo4e.github.io/BO4E-python/latest/api/bo4e.com.html#bo4e.com.betrag.Betrag" xlink:show="new" xlink:title="https://bo4e.github.io/BO4E-python/latest/api/bo4e.com.html#bo4e.com.betrag.Betrag" xlink:type="simple"><text fill="#0000FF" font-family="sans-serif" font-size="14" lengthAdjust="spacing" text-decoration="underline" textLength="46" x="981.5" y="321.0251">Betrag</text></a><text fill="#000000" font-family="sans-serif" font-size="10" lengthAdjust="spacing" textLength="83" x="963" y="333.6091">bo4e.com.betrag</text></g><!--class Angebotsposition--><g id="elem_Angebotsposition"><rect codeLine="3" fill="#F1F1F1" height="78.5313" id="Angebotsposition" rx="2.5" ry="2.5" style="stroke:#181818;stroke-width:0.5;" width="736" x="7" y="177.73"/><ellipse cx="304.25" cy="196.6988" fill="#ADD1B2" rx="11" ry="11" style="stroke:#181818;stroke-width:1.0;"/><path d="M307.2188,202.3394 Q306.6406,202.6363 306,202.7769 Q305.3594,202.9331 304.6563,202.9331 Q302.1563,202.9331 300.8281,201.2925 Q299.5156,199.6363 299.5156,196.5113 Q299.5156,193.3863 300.8281,191.73 Q302.1563,190.0738 304.6563,190.0738 Q305.3594,190.0738 306,190.23 Q306.6563,190.3863 307.2188,190.6831 L307.2188,193.4019 Q306.5938,192.8238 306,192.5581 Q305.4063,192.2769 304.7813,192.2769 Q303.4375,192.2769 302.75,193.355 Q302.0625,194.4175 302.0625,196.5113 Q302.0625,198.605 302.75,199.6831 Q303.4375,200.7456 304.7813,200.7456 Q305.4063,200.7456 306,200.48 Q306.5938,200.1988 307.2188,199.6206 L307.2188,202.3394 Z " fill="#000000"/><a href="https://bo4e.github.io/BO4E-python/latest/api/bo4e.com.html#bo4e.com.angebotsposition.Angebotsposition" target="_top" title="https://bo4e.github.io/BO4E-python/latest/api/bo4e.com.html#bo4e.com.angebotsposition.Angebotsposition" xlink:actuate="onRequest" xlink:href="https://bo4e.github.io/BO4E-python/latest/api/bo4e.com.html#bo4e.com.angebotsposition.Angebotsposition" xlink:show="new" xlink:title="https://bo4e.github.io/BO4E-python/latest/api/bo4e.com.html#bo4e.com.angebotsposition.Angebotsposition" xlink:type="simple"><text fill="#0000FF" font-family="sans-serif" font-size="14" lengthAdjust="spacing" text-decoration="underline" textLength="122" x="330.25" y="195.7251">Angebotsposition</text></a><text fill="#000000" font-family="sans-serif" font-size="10" lengthAdjust="spacing" textLength="133" x="324.75" y="208.3091">bo4e.com.angebotsposition</text><line style="stroke:#181818;stroke-width:0.5;" x1="8" x2="742" y1="215.6675" y2="215.6675"/><text fill="#000000" font-family="sans-serif" font-size="14" lengthAdjust="spacing" textLength="724" x="13" y="232.6626">_typ : Literal[&lt;ComTyp.ANGEBOTSPOSITION: 'ANGEBOTSPOSITION'&gt;] [1] = ComTyp.ANGEBOTSPOSITION</text><text fill="#000000" font-family="sans-serif" font-size="14" lengthAdjust="spacing" textLength="282" x="13" y="248.9595">positionsbezeichnung : str [0..1] = None</text></g><!--link Angebotsposition to COM--><g id="link_Angebotsposition_COM"><path codeLine="15" d="M590.06,177.29 C715.1,154.09 845.1918,129.9526 921.4818,115.8026 " fill="none" id="Angebotsposition-to-COM" style="stroke:#181818;stroke-width:1.0;"/><polygon fill="none" points="939.18,112.52,920.3877,109.9032,922.576,121.702,939.18,112.52" style="stroke:#181818;stroke-width:1.0;"/></g><!--link Angebotsposition to Preis--><g id="link_Angebotsposition_Preis"><path codeLine="16" d="M743.42,238.5 C753.39,239.02 763.26,239.52 773,240 C829.43,242.8 882.1387,244.9428 926.1987,246.6228 " fill="none" id="Angebotsposition-to-Preis" style="stroke:#181818;stroke-width:1.0;"/><polygon fill="#181818" points="938.19,247.08,932.3468,242.8543,926.1987,246.6228,932.0419,250.8485,938.19,247.08" style="stroke:#181818;stroke-width:1.0;"/><text fill="#000000" font-family="sans-serif" font-size="13" lengthAdjust="spacing" textLength="88" x="781" y="236.0669">positionspreis</text><text fill="#000000" font-family="sans-serif" font-size="13" lengthAdjust="spacing" textLength="24" x="906.6385" y="259.7999">0..1</text></g><!--link Angebotsposition to Menge--><g id="link_Angebotsposition_Menge"><path codeLine="17" d="M743.22,192.5 C817.29,187.56 874.5567,183.7398 920.8167,180.6498 " fill="none" id="Angebotsposition-to-Menge" style="stroke:#181818;stroke-width:1.0;"/><polygon fill="#181818" points="932.79,179.85,926.5367,176.2588,920.8167,180.6498,927.0699,184.241,932.79,179.85" style="stroke:#181818;stroke-width:1.0;"/><text fill="#000000" font-family="sans-serif" font-size="13" lengthAdjust="spacing" textLength="102" x="774" y="180.0669">positionsmenge</text><text fill="#000000" font-family="sans-serif" font-size="13" lengthAdjust="spacing" textLength="24" x="901.0561" y="193.1657">0..1</text></g><!--link Angebotsposition to Betrag--><g id="link_Angebotsposition_Betrag"><path codeLine="18" d="M608.32,256.7 C726.25,276.85 848.0514,297.6592 921.9214,310.2792 " fill="none" id="Angebotsposition-to-Betrag" style="stroke:#181818;stroke-width:1.0;"/><polygon fill="#181818" points="933.75,312.3,928.5093,307.3467,921.9214,310.2792,927.1621,315.2325,933.75,312.3" style="stroke:#181818;stroke-width:1.0;"/><text fill="#000000" font-family="sans-serif" font-size="13" lengthAdjust="spacing" textLength="100" x="775" y="282.0669">positionskosten</text><text fill="#000000" font-family="sans-serif" font-size="13" lengthAdjust="spacing" textLength="24" x="902.1211" y="324.1337">0..1</text></g><!--SRC=[hLHHQy9037wsloBK1s7WLK76A4vGaI5CAyothenhZUsnjbTwaQ7R_llQwtIY5OJvS3aIlY_vSaaRuvg09EGYZ0XM8iU0X4mD8uYvKc2wRaIKATkoVDb35WgADZuJqXevlKaxsr8aKolcX8eideaA5SY4HPJ4pOF7qn1zIIgJIfJvsV0a0AS1ptjD-qhiqEvs1XVpcC3L6HK-ZSORRJEmuLaGvZns-sEPBBSP6ywV9YDd-R9mNgRBgJEteNKQQWqySBiUFC85Zj7O5r8-xb04KRf9mwAOeXpS3cEQF9Sf6j-6aV84LSO3_ETRmjxpFDtqteNcf3Dyk1-NJTzsPkKPEpCeJlqmYgEb581Rrqwmc2cRbHQqhLUWOLg31jrQHPQZK6nHMj2sNeM6QHKQT6iLFbBEGpRI5rHNlP0AgPLKi781pp-rTljhSDYVSiGrc09q1sQvpEOVj7e96mxxhpk_bbrDyuYjftSj-xVz8_gxL8J5doeIAuG44nzpPQX8Vi1vohN0UAL-0000]--></g></svg>