<svg xmlns="http://www.w3.org/2000/svg" xmlns:xlink="http://www.w3.org/1999/xlink" contentStyleType="text/css" data-diagram-type="CLASS" height="501px" preserveAspectRatio="none" style="width:1175px;height:501px;background:#FFFFFF;" version="1.1" viewBox="0 0 1175 501" width="1175px" zoomAndPan="magnify"><defs/><g><!--cluster bo4e--><g class="cluster" data-entity="bo4e" data-source-line="10" data-uid="ent0005" id="cluster_bo4e"><path d="M922.05,6 L961.926,6 A3.75,3.75 0 0 1 964.426,8.5 L971.426,28.2969 L1166.25,28.2969 A2.5,2.5 0 0 1 1168.75,30.7969 L1168.75,491.5 A2.5,2.5 0 0 1 1166.25,494 L922.05,494 A2.5,2.5 0 0 1 919.55,491.5 L919.55,8.5 A2.5,2.5 0 0 1 922.05,6" fill="none" style="stroke:#000000;stroke-width:1.5;"/><line style="stroke:#000000;stroke-width:1.5;" x1="919.55" x2="971.426" y1="28.2969" y2="28.2969"/><text fill="#000000" font-family="sans-serif" font-size="14" font-weight="bold" lengthAdjust="spacing" textLength="38.876" x="923.55" y="20.9951">bo4e</text></g><!--cluster com--><g class="cluster" data-entity="com" data-source-line="9" data-uid="ent0003" id="cluster_com"><path d="M957.21,49 L1034.9092,49 A3.75,3.75 0 0 1 1037.4092,51.5 L1044.4092,71.2969 L1131.1,71.2969 A2.5,2.5 0 0 1 1133.6,73.7969 L1133.6,354.5 A2.5,2.5 0 0 1 1131.1,357 L957.21,357 A2.5,2.5 0 0 1 954.71,354.5 L954.71,51.5 A2.5,2.5 0 0 1 957.21,49" fill="#E0A86C" style="stroke:#000000;stroke-width:1.5;"/><line style="stroke:#000000;stroke-width:1.5;" x1="954.71" x2="1044.4092" y1="71.2969" y2="71.2969"/><a href="file:////home/runner/work/BO4E-python/BO4E-python/docs/../.tox/docs/tmp/html/api/bo4e.com.html" target="_top" title="file:////home/runner/work/BO4E-python/BO4E-python/docs/../.tox/docs/tmp/html/api/bo4e.com.html" xlink:actuate="onRequest" xlink:href="file:////home/runner/work/BO4E-python/BO4E-python/docs/../.tox/docs/tmp/html/api/bo4e.com.html" xlink:show="new" xlink:title="file:////home/runner/work/BO4E-python/BO4E-python/docs/../.tox/docs/tmp/html/api/bo4e.com.html" xlink:type="simple"><text fill="#0000FF" font-family="sans-serif" font-size="14" font-weight="bold" lengthAdjust="spacing" text-decoration="underline" textLength="76.6992" x="958.71" y="63.9951">bo4e.com</text></a></g><!--cluster enum--><g class="cluster" data-entity="enum" data-source-line="15" data-uid="ent0009" id="cluster_enum"><path d="M946.05,381 L1035.2609,381 A3.75,3.75 0 0 1 1037.7609,383.5 L1044.7609,403.2969 L1142.25,403.2969 A2.5,2.5 0 0 1 1144.75,405.7969 L1144.75,467.5 A2.5,2.5 0 0 1 1142.25,470 L946.05,470 A2.5,2.5 0 0 1 943.55,467.5 L943.55,383.5 A2.5,2.5 0 0 1 946.05,381" fill="#D1C358" style="stroke:#000000;stroke-width:1.5;"/><line style="stroke:#000000;stroke-width:1.5;" x1="943.55" x2="1044.7609" y1="403.2969" y2="403.2969"/><a href="file:////home/runner/work/BO4E-python/BO4E-python/docs/../.tox/docs/tmp/html/api/bo4e.enum.html" target="_top" title="file:////home/runner/work/BO4E-python/BO4E-python/docs/../.tox/docs/tmp/html/api/bo4e.enum.html" xlink:actuate="onRequest" xlink:href="file:////home/runner/work/BO4E-python/BO4E-python/docs/../.tox/docs/tmp/html/api/bo4e.enum.html" xlink:show="new" xlink:title="file:////home/runner/work/BO4E-python/BO4E-python/docs/../.tox/docs/tmp/html/api/bo4e.enum.html" xlink:type="simple"><text fill="#0000FF" font-family="sans-serif" font-size="14" font-weight="bold" lengthAdjust="spacing" text-decoration="underline" textLength="88.2109" x="947.55" y="395.9951">bo4e.enum</text></a></g><!--class COM--><g class="entity" data-entity="COM" data-source-line="10" data-uid="ent0004" id="entity_COM"><rect fill="#F1F1F1" height="37.9375" rx="2.5" ry="2.5" style="stroke:#181818;stroke-width:0.5;" width="106.0527" x="991.13" y="84.03"/><ellipse cx="1006.13" cy="102.9987" fill="#ADD1B2" rx="11" ry="11" style="stroke:#181818;stroke-width:1;"/><path d="M1009.0988,108.6394 Q1008.5206,108.9362 1007.88,109.0769 Q1007.2394,109.2331 1006.5363,109.2331 Q1004.0363,109.2331 1002.7081,107.5925 Q1001.3956,105.9362 1001.3956,102.8112 Q1001.3956,99.6862 1002.7081,98.03 Q1004.0363,96.3737 1006.5363,96.3737 Q1007.2394,96.3737 1007.88,96.53 Q1008.5363,96.6862 1009.0988,96.9831 L1009.0988,99.7019 Q1008.4738,99.1237 1007.88,98.8581 Q1007.2863,98.5769 1006.6613,98.5769 Q1005.3175,98.5769 1004.63,99.655 Q1003.9425,100.7175 1003.9425,102.8112 Q1003.9425,104.905 1004.63,105.9831 Q1005.3175,107.0456 1006.6613,107.0456 Q1007.2863,107.0456 1007.88,106.78 Q1008.4738,106.4987 1009.0988,105.9206 L1009.0988,108.6394 Z " fill="#000000"/><a href="file:////home/runner/work/BO4E-python/BO4E-python/docs/../.tox/docs/tmp/html/api/bo4e.com.html#bo4e.com.com.COM" target="_top" title="file:////home/runner/work/BO4E-python/BO4E-python/docs/../.tox/docs/tmp/html/api/bo4e.com.html#bo4e.com.com.COM" xlink:actuate="onRequest" xlink:href="file:////home/runner/work/BO4E-python/BO4E-python/docs/../.tox/docs/tmp/html/api/bo4e.com.html#bo4e.com.com.COM" xlink:show="new" xlink:title="file:////home/runner/work/BO4E-python/BO4E-python/docs/../.tox/docs/tmp/html/api/bo4e.com.html#bo4e.com.com.COM" xlink:type="simple"><text fill="#0000FF" font-family="sans-serif" font-size="14" lengthAdjust="spacing" text-decoration="underline" textLength="32.874" x="1040.7194" y="102.0251">COM</text></a><text fill="#000000" font-family="sans-serif" font-size="10" lengthAdjust="spacing" textLength="74.0527" x="1020.13" y="114.6091">bo4e.com.com</text></g><!--class Angebotsteil--><g class="entity" data-entity="Angebotsteil" data-source-line="11" data-uid="ent0006" id="entity_Angebotsteil"><rect fill="#F1F1F1" height="37.9375" rx="2.5" ry="2.5" style="stroke:#181818;stroke-width:0.5;" width="146.8877" x="970.71" y="157.03"/><ellipse cx="985.71" cy="175.9987" fill="#ADD1B2" rx="11" ry="11" style="stroke:#181818;stroke-width:1;"/><path d="M988.6788,181.6394 Q988.1006,181.9362 987.46,182.0769 Q986.8194,182.2331 986.1163,182.2331 Q983.6163,182.2331 982.2881,180.5925 Q980.9756,178.9362 980.9756,175.8112 Q980.9756,172.6862 982.2881,171.03 Q983.6163,169.3737 986.1163,169.3737 Q986.8194,169.3737 987.46,169.53 Q988.1163,169.6862 988.6788,169.9831 L988.6788,172.7019 Q988.0538,172.1237 987.46,171.8581 Q986.8663,171.5769 986.2413,171.5769 Q984.8975,171.5769 984.21,172.655 Q983.5225,173.7175 983.5225,175.8112 Q983.5225,177.905 984.21,178.9831 Q984.8975,180.0456 986.2413,180.0456 Q986.8663,180.0456 987.46,179.78 Q988.0538,179.4987 988.6788,178.9206 L988.6788,181.6394 Z " fill="#000000"/><a href="file:////home/runner/work/BO4E-python/BO4E-python/docs/../.tox/docs/tmp/html/api/bo4e.com.html#bo4e.com.angebotsteil.Angebotsteil" target="_top" title="file:////home/runner/work/BO4E-python/BO4E-python/docs/../.tox/docs/tmp/html/api/bo4e.com.html#bo4e.com.angebotsteil.Angebotsteil" xlink:actuate="onRequest" xlink:href="file:////home/runner/work/BO4E-python/BO4E-python/docs/../.tox/docs/tmp/html/api/bo4e.com.html#bo4e.com.angebotsteil.Angebotsteil" xlink:show="new" xlink:title="file:////home/runner/work/BO4E-python/BO4E-python/docs/../.tox/docs/tmp/html/api/bo4e.com.html#bo4e.com.angebotsteil.Angebotsteil" xlink:type="simple"><text fill="#0000FF" font-family="sans-serif" font-size="14" lengthAdjust="spacing" text-decoration="underline" textLength="88.0674" x="1013.1202" y="175.0251">Angebotsteil</text></a><text fill="#000000" font-family="sans-serif" font-size="10" lengthAdjust="spacing" textLength="114.8877" x="999.71" y="187.6091">bo4e.com.angebotsteil</text></g><!--class Betrag--><g class="entity" data-entity="Betrag" data-source-line="12" data-uid="ent0007" id="entity_Betrag"><rect fill="#F1F1F1" height="37.9375" rx="2.5" ry="2.5" style="stroke:#181818;stroke-width:0.5;" width="117.7031" x="985.3" y="230.03"/><ellipse cx="1000.3" cy="248.9987" fill="#ADD1B2" rx="11" ry="11" style="stroke:#181818;stroke-width:1;"/><path d="M1003.2688,254.6394 Q1002.6906,254.9362 1002.05,255.0769 Q1001.4094,255.2331 1000.7063,255.2331 Q998.2063,255.2331 996.8781,253.5925 Q995.5656,251.9362 995.5656,248.8112 Q995.5656,245.6862 996.8781,244.03 Q998.2063,242.3737 1000.7063,242.3737 Q1001.4094,242.3737 1002.05,242.53 Q1002.7063,242.6862 1003.2688,242.9831 L1003.2688,245.7019 Q1002.6438,245.1237 1002.05,244.8581 Q1001.4563,244.5769 1000.8313,244.5769 Q999.4875,244.5769 998.8,245.655 Q998.1125,246.7175 998.1125,248.8112 Q998.1125,250.905 998.8,251.9831 Q999.4875,253.0456 1000.8313,253.0456 Q1001.4563,253.0456 1002.05,252.78 Q1002.6438,252.4987 1003.2688,251.9206 L1003.2688,254.6394 Z " fill="#000000"/><a href="file:////home/runner/work/BO4E-python/BO4E-python/docs/../.tox/docs/tmp/html/api/bo4e.com.html#bo4e.com.betrag.Betrag" target="_top" title="file:////home/runner/work/BO4E-python/BO4E-python/docs/../.tox/docs/tmp/html/api/bo4e.com.html#bo4e.com.betrag.Betrag" xlink:actuate="onRequest" xlink:href="file:////home/runner/work/BO4E-python/BO4E-python/docs/../.tox/docs/tmp/html/api/bo4e.com.html#bo4e.com.betrag.Betrag" xlink:show="new" xlink:title="file:////home/runner/work/BO4E-python/BO4E-python/docs/../.tox/docs/tmp/html/api/bo4e.com.html#bo4e.com.betrag.Betrag" xlink:type="simple"><text fill="#0000FF" font-family="sans-serif" font-size="14" lengthAdjust="spacing" text-decoration="underline" textLength="46.9287" x="1033.6872" y="248.0251">Betrag</text></a><text fill="#000000" font-family="sans-serif" font-size="10" lengthAdjust="spacing" textLength="85.7031" x="1014.3" y="260.6091">bo4e.com.betrag</text></g><!--class Menge--><g class="entity" data-entity="Menge" data-source-line="13" data-uid="ent0008" id="entity_Menge"><rect fill="#F1F1F1" height="37.9375" rx="2.5" ry="2.5" style="stroke:#181818;stroke-width:0.5;" width="119.4268" x="984.44" y="303.03"/><ellipse cx="999.44" cy="321.9988" fill="#ADD1B2" rx="11" ry="11" style="stroke:#181818;stroke-width:1;"/><path d="M1002.4088,327.6394 Q1001.8306,327.9363 1001.19,328.0769 Q1000.5494,328.2331 999.8463,328.2331 Q997.3463,328.2331 996.0181,326.5925 Q994.7056,324.9363 994.7056,321.8113 Q994.7056,318.6863 996.0181,317.03 Q997.3463,315.3738 999.8463,315.3738 Q1000.5494,315.3738 1001.19,315.53 Q1001.8463,315.6863 1002.4088,315.9831 L1002.4088,318.7019 Q1001.7838,318.1238 1001.19,317.8581 Q1000.5963,317.5769 999.9713,317.5769 Q998.6275,317.5769 997.94,318.655 Q997.2525,319.7175 997.2525,321.8113 Q997.2525,323.905 997.94,324.9831 Q998.6275,326.0456 999.9713,326.0456 Q1000.5963,326.0456 1001.19,325.78 Q1001.7838,325.4988 1002.4088,324.9206 L1002.4088,327.6394 Z " fill="#000000"/><a href="file:////home/runner/work/BO4E-python/BO4E-python/docs/../.tox/docs/tmp/html/api/bo4e.com.html#bo4e.com.menge.Menge" target="_top" title="file:////home/runner/work/BO4E-python/BO4E-python/docs/../.tox/docs/tmp/html/api/bo4e.com.html#bo4e.com.menge.Menge" xlink:actuate="onRequest" xlink:href="file:////home/runner/work/BO4E-python/BO4E-python/docs/../.tox/docs/tmp/html/api/bo4e.com.html#bo4e.com.menge.Menge" xlink:show="new" xlink:title="file:////home/runner/work/BO4E-python/BO4E-python/docs/../.tox/docs/tmp/html/api/bo4e.com.html#bo4e.com.menge.Menge" xlink:type="simple"><text fill="#0000FF" font-family="sans-serif" font-size="14" lengthAdjust="spacing" text-decoration="underline" textLength="47.0654" x="1033.6207" y="321.0251">Menge</text></a><text fill="#000000" font-family="sans-serif" font-size="10" lengthAdjust="spacing" textLength="87.4268" x="1013.44" y="333.6091">bo4e.com.menge</text></g><!--class Angebotsstatus--><g class="entity" data-entity="Angebotsstatus" data-source-line="16" data-uid="ent0010" id="entity_Angebotsstatus"><rect fill="#F1F1F1" height="37.9375" rx="2.5" ry="2.5" style="stroke:#181818;stroke-width:0.5;" width="169.1973" x="959.55" y="416.03"/><ellipse cx="974.55" cy="434.9988" fill="#ADD1B2" rx="11" ry="11" style="stroke:#181818;stroke-width:1;"/><path d="M977.5188,440.6394 Q976.9406,440.9363 976.3,441.0769 Q975.6594,441.2331 974.9563,441.2331 Q972.4563,441.2331 971.1281,439.5925 Q969.8156,437.9363 969.8156,434.8113 Q969.8156,431.6863 971.1281,430.03 Q972.4563,428.3738 974.9563,428.3738 Q975.6594,428.3738 976.3,428.53 Q976.9563,428.6863 977.5188,428.9831 L977.5188,431.7019 Q976.8938,431.1238 976.3,430.8581 Q975.7063,430.5769 975.0813,430.5769 Q973.7375,430.5769 973.05,431.655 Q972.3625,432.7175 972.3625,434.8113 Q972.3625,436.905 973.05,437.9831 Q973.7375,439.0456 975.0813,439.0456 Q975.7063,439.0456 976.3,438.78 Q976.8938,438.4988 977.5188,437.9206 L977.5188,440.6394 Z " fill="#000000"/><a href="file:////home/runner/work/BO4E-python/BO4E-python/docs/../.tox/docs/tmp/html/api/bo4e.enum.html#bo4e.enum.angebotsstatus.Angebotsstatus" target="_top" title="file:////home/runner/work/BO4E-python/BO4E-python/docs/../.tox/docs/tmp/html/api/bo4e.enum.html#bo4e.enum.angebotsstatus.Angebotsstatus" xlink:actuate="onRequest" xlink:href="file:////home/runner/work/BO4E-python/BO4E-python/docs/../.tox/docs/tmp/html/api/bo4e.enum.html#bo4e.enum.angebotsstatus.Angebotsstatus" xlink:show="new" xlink:title="file:////home/runner/work/BO4E-python/BO4E-python/docs/../.tox/docs/tmp/html/api/bo4e.enum.html#bo4e.enum.angebotsstatus.Angebotsstatus" xlink:type="simple"><text fill="#0000FF" font-family="sans-serif" font-size="14" lengthAdjust="spacing" text-decoration="underline" textLength="109.2041" x="1002.5466" y="434.0251">Angebotsstatus</text></a><text fill="#000000" font-family="sans-serif" font-size="10" lengthAdjust="spacing" textLength="137.1973" x="988.55" y="446.6091">bo4e.enum.angebotsstatus</text></g><!--class Angebotsvariante--><g class="entity" data-entity="Angebotsvariante" data-source-line="3" data-uid="ent0002" id="entity_Angebotsvariante"><rect fill="#F1F1F1" height="94.8281" rx="2.5" ry="2.5" style="stroke:#181818;stroke-width:0.5;" width="764.5547" x="7" y="201.59"/><ellipse cx="314.6611" cy="220.5587" fill="#ADD1B2" rx="11" ry="11" style="stroke:#181818;stroke-width:1;"/><path d="M317.6299,226.1994 Q317.0518,226.4962 316.4111,226.6369 Q315.7705,226.7931 315.0674,226.7931 Q312.5674,226.7931 311.2393,225.1525 Q309.9268,223.4962 309.9268,220.3712 Q309.9268,217.2462 311.2393,215.59 Q312.5674,213.9337 315.0674,213.9337 Q315.7705,213.9337 316.4111,214.09 Q317.0674,214.2462 317.6299,214.5431 L317.6299,217.2619 Q317.0049,216.6837 316.4111,216.4181 Q315.8174,216.1369 315.1924,216.1369 Q313.8486,216.1369 313.1611,217.215 Q312.4736,218.2775 312.4736,220.3712 Q312.4736,222.465 313.1611,223.5431 Q313.8486,224.6056 315.1924,224.6056 Q315.8174,224.6056 316.4111,224.34 Q317.0049,224.0587 317.6299,223.4806 L317.6299,226.1994 Z " fill="#000000"/><a href="file:////home/runner/work/BO4E-python/BO4E-python/docs/../.tox/docs/tmp/html/api/bo4e.com.html#bo4e.com.angebotsvariante.Angebotsvariante" target="_top" title="file:////home/runner/work/BO4E-python/BO4E-python/docs/../.tox/docs/tmp/html/api/bo4e.com.html#bo4e.com.angebotsvariante.Angebotsvariante" xlink:actuate="onRequest" xlink:href="file:////home/runner/work/BO4E-python/BO4E-python/docs/../.tox/docs/tmp/html/api/bo4e.com.html#bo4e.com.angebotsvariante.Angebotsvariante" xlink:show="new" xlink:title="file:////home/runner/work/BO4E-python/BO4E-python/docs/../.tox/docs/tmp/html/api/bo4e.com.html#bo4e.com.angebotsvariante.Angebotsvariante" xlink:type="simple"><text fill="#0000FF" font-family="sans-serif" font-size="14" lengthAdjust="spacing" text-decoration="underline" textLength="124.25" x="343.4023" y="219.5851">Angebotsvariante</text></a><text fill="#000000" font-family="sans-serif" font-size="10" lengthAdjust="spacing" textLength="140.7324" x="335.1611" y="232.1691">bo4e.com.angebotsvariante</text><line style="stroke:#181818;stroke-width:0.5;" x1="8" x2="770.5547" y1="239.5275" y2="239.5275"/><text fill="#000000" font-family="sans-serif" font-size="14" lengthAdjust="spacing" textLength="752.5547" x="13" y="256.5226">_typ : Literal[&lt;ComTyp.ANGEBOTSVARIANTE: 'ANGEBOTSVARIANTE'&gt;] [1] = ComTyp.ANGEBOTSVARIANTE</text><text fill="#000000" font-family="sans-serif" font-size="14" lengthAdjust="spacing" textLength="344.8662" x="13" y="272.8195">erstellungsdatum : AwareDatetime [0..1] = None</text><text fill="#000000" font-family="sans-serif" font-size="14" lengthAdjust="spacing" textLength="288.4355" x="13" y="289.1164">bindefrist : AwareDatetime [0..1] = None</text></g><!--link Angebotsvariante to COM--><g class="link" data-entity-1="Angebotsvariante" data-entity-2="COM" data-source-line="19" data-uid="lnk11" id="link_Angebotsvariante_COM"><path codeLine="19" d="M604.51,201.09 C741.13,170.54 890.0538,137.238 973.1438,118.658" fill="none" id="Angebotsvariante-to-COM" style="stroke:#181818;stroke-width:1;"/><polygon fill="none" points="990.71,114.73,971.8345,112.8026,974.4532,124.5134,990.71,114.73" style="stroke:#181818;stroke-width:1;"/></g><!--link Angebotsvariante to Angebotsstatus--><g class="link" data-entity-1="Angebotsvariante" data-entity-2="Angebotsstatus" data-source-line="20" data-uid="lnk12" id="link_Angebotsvariante_Angebotsstatus"><path codeLine="20" d="M558.41,296.9 C693.86,335.49 865.7394,384.4516 963.5494,412.3216" fill="none" id="Angebotsvariante-to-Angebotsstatus" style="stroke:#181818;stroke-width:1;"/><polygon fill="#181818" points="975.09,415.61,970.4158,410.1189,963.5494,412.3216,968.2235,417.8127,975.09,415.61" style="stroke:#181818;stroke-width:1;"/><text fill="#000000" font-family="sans-serif" font-size="13" lengthAdjust="spacing" textLength="100.4771" x="802.55" y="363.0669">angebotsstatus</text><text fill="#000000" font-family="sans-serif" font-size="13" lengthAdjust="spacing" textLength="24.8066" x="927.3975" y="404.7978">0..1</text></g><!--link Angebotsvariante to Angebotsteil--><g class="link" data-entity-1="Angebotsvariante" data-entity-2="Angebotsteil" data-source-line="21" data-uid="lnk13" id="link_Angebotsvariante_Angebotsteil"><path codeLine="21" d="M771.95,206.32 C847.85,197.84 907.7243,191.1432 958.3543,185.4832" fill="none" id="Angebotsvariante-to-Angebotsteil" style="stroke:#181818;stroke-width:1;"/><polygon fill="#181818" points="970.28,184.15,963.8727,180.8414,958.3543,185.4832,964.7615,188.7918,970.28,184.15" style="stroke:#181818;stroke-width:1;"/><text fill="#000000" font-family="sans-serif" font-size="13" lengthAdjust="spacing" textLength="28.3169" x="838.55" y="188.0669">teile</text><text fill="#000000" font-family="sans-serif" font-size="13" lengthAdjust="spacing" textLength="23.0356" x="939.678" y="197.6167">0..*</text></g><!--link Angebotsvariante to Menge--><g class="link" data-entity-1="Angebotsvariante" data-entity-2="Menge" data-source-line="22" data-uid="lnk14" id="link_Angebotsvariante_Menge"><path codeLine="22" d="M771.95,291.68 C854.96,300.96 921.1443,308.3563 972.0243,314.0463" fill="none" id="Angebotsvariante-to-Menge" style="stroke:#181818;stroke-width:1;"/><polygon fill="#181818" points="983.95,315.38,978.4317,310.7379,972.0243,314.0463,977.5426,318.6884,983.95,315.38" style="stroke:#181818;stroke-width:1;"/><text fill="#000000" font-family="sans-serif" font-size="13" lengthAdjust="spacing" textLength="93.9009" x="806.05" y="292.0669">gesamtmenge</text><text fill="#000000" font-family="sans-serif" font-size="13" lengthAdjust="spacing" textLength="24.8066" x="951.6481" y="327.5565">0..1</text></g><!--link Angebotsvariante to Betrag--><g class="link" data-entity-1="Angebotsvariante" data-entity-2="Betrag" data-source-line="23" data-uid="lnk15" id="link_Angebotsvariante_Betrag"><path codeLine="23" d="M771.95,249 C855.52,249 922.12,249 972.97,249" fill="none" id="Angebotsvariante-to-Betrag" style="stroke:#181818;stroke-width:1;"/><polygon fill="#181818" points="984.97,249,978.97,245,972.97,249,978.97,253,984.97,249" style="stroke:#181818;stroke-width:1;"/><text fill="#000000" font-family="sans-serif" font-size="13" lengthAdjust="spacing" textLength="92.3394" x="806.55" y="245.0669">gesamtkosten</text><text fill="#000000" font-family="sans-serif" font-size="13" lengthAdjust="spacing" textLength="24.8066" x="952.3439" y="261.9892">0..1</text></g><!--SRC=[nLNVQzim47wE_ueZUIWK8YUi6yLq0ISBOx0ci8MzP6R8ziKMjIGZASlIRV_x97lvuIJj-hB48ClVSNV-VFxkLE32W96WM9ORI9d2n30fF2yfgDRGdiyNhC30jrSkEVfgAGGgVoNLWp-SteoxvThaKZIUKvbedn2V6FcZ1eQNVcvuuTEI-R6yGP98JfobiqLKP1XBexzJnQWmIC830nmQekYhkDFi4OD-R_1adZPGVHGAFxtMDxCk8O2FpA2YnVnk9FbiNP9myduydCu-Vma_VGWdit40LuUcgq44ytu4R-696A-5IXiiYgN8T4hDajiNXIkgy1qrQ1X7cFS8gL9Cf42l5JEHua8nRVxX-Tlp1EMeIvhW__yzi45HLDLn0w4pxeMtRqQkZcTNYbkZwJtOTLe2TbLihSC5w6q4Q90LMn4x0FlWUV4wZuPmdU42tnAZKJGZmsg3UZlDlFQiEDTk5s3BqLQBtBixLFVJL2ktYcdbP5lg31s5OhdVKWxkzvJ3q4dxoQlNjsTegYsRpWvkjAUD7LXwgzmQGXCU5_P4YeQ0QvCRNyU3lTlzDTYE5jVQ9toiqpMqtIXixofsI3A09eFdybotTwziT6a0RiENS72njTm2o51JRYfjlJJqRrjjOX-a9M2Ftfob21nvR0yHJ-To1SVv5WoBLFy1]--></g></svg>