<?xml version="1.0" encoding="us-ascii" standalone="no"?><svg xmlns="http://www.w3.org/2000/svg" xmlns:xlink="http://www.w3.org/1999/xlink" contentStyleType="text/css" height="388px" preserveAspectRatio="none" style="width:655px;height:388px;background:#FFFFFF;" version="1.1" viewBox="0 0 655 388" width="655px" zoomAndPan="magnify"><defs/><g><!--cluster bo4e--><g id="cluster_bo4e"><path d="M453.5,6 L494.5,6 A3.75,3.75 0 0 1 497,8.5 L504,28.2969 L645.5,28.2969 A2.5,2.5 0 0 1 648,30.7969 L648,378.5 A2.5,2.5 0 0 1 645.5,381 L453.5,381 A2.5,2.5 0 0 1 451,378.5 L451,8.5 A2.5,2.5 0 0 1 453.5,6 " fill="none" style="stroke:#000000;stroke-width:1.5;"/><line style="stroke:#000000;stroke-width:1.5;" x1="451" x2="504" y1="28.2969" y2="28.2969"/><text fill="#000000" font-family="sans-serif" font-size="14" font-weight="bold" lengthAdjust="spacing" textLength="40" x="455" y="20.9951">bo4e</text></g><!--cluster com--><g id="cluster_com"><path d="M477.5,49 L556.5,49 A3.75,3.75 0 0 1 559,51.5 L566,71.2969 L621.5,71.2969 A2.5,2.5 0 0 1 624,73.7969 L624,354.5 A2.5,2.5 0 0 1 621.5,357 L477.5,357 A2.5,2.5 0 0 1 475,354.5 L475,51.5 A2.5,2.5 0 0 1 477.5,49 " fill="#E0A86C" style="stroke:#000000;stroke-width:1.5;"/><line style="stroke:#000000;stroke-width:1.5;" x1="475" x2="566" y1="71.2969" y2="71.2969"/><a href="https://bo4e.github.io/BO4E-python/latest/api/bo4e.com.html" target="_top" title="https://bo4e.github.io/BO4E-python/latest/api/bo4e.com.html" xlink:actuate="onRequest" xlink:href="https://bo4e.github.io/BO4E-python/latest/api/bo4e.com.html" xlink:show="new" xlink:title="https://bo4e.github.io/BO4E-python/latest/api/bo4e.com.html" xlink:type="simple"><text fill="#0000FF" font-family="sans-serif" font-size="14" font-weight="bold" lengthAdjust="spacing" text-decoration="underline" textLength="78" x="479" y="63.9951">bo4e.com</text></a></g><!--class Menge--><g id="elem_Menge"><rect codeLine="8" fill="#F1F1F1" height="37.9375" id="Menge" rx="2.5" ry="2.5" style="stroke:#181818;stroke-width:0.5;" width="117" x="491" y="84.03"/><ellipse cx="506" cy="102.9987" fill="#ADD1B2" rx="11" ry="11" style="stroke:#181818;stroke-width:1.0;"/><path d="M508.9688,108.6394 Q508.3906,108.9362 507.75,109.0769 Q507.1094,109.2331 506.4063,109.2331 Q503.9063,109.2331 502.5781,107.5925 Q501.2656,105.9362 501.2656,102.8112 Q501.2656,99.6862 502.5781,98.03 Q503.9063,96.3737 506.4063,96.3737 Q507.1094,96.3737 507.75,96.53 Q508.4063,96.6862 508.9688,96.9831 L508.9688,99.7019 Q508.3438,99.1237 507.75,98.8581 Q507.1563,98.5769 506.5313,98.5769 Q505.1875,98.5769 504.5,99.655 Q503.8125,100.7175 503.8125,102.8112 Q503.8125,104.905 504.5,105.9831 Q505.1875,107.0456 506.5313,107.0456 Q507.1563,107.0456 507.75,106.78 Q508.3438,106.4987 508.9688,105.9206 L508.9688,108.6394 Z " fill="#000000"/><a href="https://bo4e.github.io/BO4E-python/latest/api/bo4e.com.html#bo4e.com.menge.Menge" target="_top" title="https://bo4e.github.io/BO4E-python/latest/api/bo4e.com.html#bo4e.com.menge.Menge" xlink:actuate="onRequest" xlink:href="https://bo4e.github.io/BO4E-python/latest/api/bo4e.com.html#bo4e.com.menge.Menge" xlink:show="new" xlink:title="https://bo4e.github.io/BO4E-python/latest/api/bo4e.com.html#bo4e.com.menge.Menge" xlink:type="simple"><text fill="#0000FF" font-family="sans-serif" font-size="14" lengthAdjust="spacing" text-decoration="underline" textLength="48" x="538.5" y="102.0251">Menge</text></a><text fill="#000000" font-family="sans-serif" font-size="10" lengthAdjust="spacing" textLength="85" x="520" y="114.6091">bo4e.com.menge</text></g><!--class COM--><g id="elem_COM"><rect codeLine="9" fill="#F1F1F1" height="37.9375" id="COM" rx="2.5" ry="2.5" style="stroke:#181818;stroke-width:0.5;" width="104" x="497.5" y="157.03"/><ellipse cx="512.5" cy="175.9988" fill="#ADD1B2" rx="11" ry="11" style="stroke:#181818;stroke-width:1.0;"/><path d="M515.4688,181.6394 Q514.8906,181.9363 514.25,182.0769 Q513.6094,182.2331 512.9063,182.2331 Q510.4063,182.2331 509.0781,180.5925 Q507.7656,178.9363 507.7656,175.8113 Q507.7656,172.6863 509.0781,171.03 Q510.4063,169.3738 512.9063,169.3738 Q513.6094,169.3738 514.25,169.53 Q514.9063,169.6863 515.4688,169.9831 L515.4688,172.7019 Q514.8438,172.1238 514.25,171.8581 Q513.6563,171.5769 513.0313,171.5769 Q511.6875,171.5769 511,172.655 Q510.3125,173.7175 510.3125,175.8113 Q510.3125,177.905 511,178.9831 Q511.6875,180.0456 513.0313,180.0456 Q513.6563,180.0456 514.25,179.78 Q514.8438,179.4988 515.4688,178.9206 L515.4688,181.6394 Z " fill="#000000"/><a href="https://bo4e.github.io/BO4E-python/latest/api/bo4e.com.html#bo4e.com.com.COM" target="_top" title="https://bo4e.github.io/BO4E-python/latest/api/bo4e.com.html#bo4e.com.com.COM" xlink:actuate="onRequest" xlink:href="https://bo4e.github.io/BO4E-python/latest/api/bo4e.com.html#bo4e.com.com.COM" xlink:show="new" xlink:title="https://bo4e.github.io/BO4E-python/latest/api/bo4e.com.html#bo4e.com.com.COM" xlink:type="simple"><text fill="#0000FF" font-family="sans-serif" font-size="14" lengthAdjust="spacing" text-decoration="underline" textLength="33" x="546" y="175.0251">COM</text></a><text fill="#000000" font-family="sans-serif" font-size="10" lengthAdjust="spacing" textLength="72" x="526.5" y="187.6091">bo4e.com.com</text></g><!--class Betrag--><g id="elem_Betrag"><rect codeLine="10" fill="#F1F1F1" height="37.9375" id="Betrag" rx="2.5" ry="2.5" style="stroke:#181818;stroke-width:0.5;" width="115" x="492" y="230.03"/><ellipse cx="507" cy="248.9988" fill="#ADD1B2" rx="11" ry="11" style="stroke:#181818;stroke-width:1.0;"/><path d="M509.9688,254.6394 Q509.3906,254.9363 508.75,255.0769 Q508.1094,255.2331 507.4063,255.2331 Q504.9063,255.2331 503.5781,253.5925 Q502.2656,251.9363 502.2656,248.8113 Q502.2656,245.6863 503.5781,244.03 Q504.9063,242.3738 507.4063,242.3738 Q508.1094,242.3738 508.75,242.53 Q509.4063,242.6863 509.9688,242.9831 L509.9688,245.7019 Q509.3438,245.1238 508.75,244.8581 Q508.1563,244.5769 507.5313,244.5769 Q506.1875,244.5769 505.5,245.655 Q504.8125,246.7175 504.8125,248.8113 Q504.8125,250.905 505.5,251.9831 Q506.1875,253.0456 507.5313,253.0456 Q508.1563,253.0456 508.75,252.78 Q509.3438,252.4988 509.9688,251.9206 L509.9688,254.6394 Z " fill="#000000"/><a href="https://bo4e.github.io/BO4E-python/latest/api/bo4e.com.html#bo4e.com.betrag.Betrag" target="_top" title="https://bo4e.github.io/BO4E-python/latest/api/bo4e.com.html#bo4e.com.betrag.Betrag" xlink:actuate="onRequest" xlink:href="https://bo4e.github.io/BO4E-python/latest/api/bo4e.com.html#bo4e.com.betrag.Betrag" xlink:show="new" xlink:title="https://bo4e.github.io/BO4E-python/latest/api/bo4e.com.html#bo4e.com.betrag.Betrag" xlink:type="simple"><text fill="#0000FF" font-family="sans-serif" font-size="14" lengthAdjust="spacing" text-decoration="underline" textLength="46" x="539.5" y="248.0251">Betrag</text></a><text fill="#000000" font-family="sans-serif" font-size="10" lengthAdjust="spacing" textLength="83" x="521" y="260.6091">bo4e.com.betrag</text></g><!--class Preis--><g id="elem_Preis"><rect codeLine="11" fill="#F1F1F1" height="37.9375" id="Preis" rx="2.5" ry="2.5" style="stroke:#181818;stroke-width:0.5;" width="106" x="496.5" y="303.03"/><ellipse cx="511.5" cy="321.9988" fill="#ADD1B2" rx="11" ry="11" style="stroke:#181818;stroke-width:1.0;"/><path d="M514.4688,327.6394 Q513.8906,327.9363 513.25,328.0769 Q512.6094,328.2331 511.9063,328.2331 Q509.4063,328.2331 508.0781,326.5925 Q506.7656,324.9363 506.7656,321.8113 Q506.7656,318.6863 508.0781,317.03 Q509.4063,315.3738 511.9063,315.3738 Q512.6094,315.3738 513.25,315.53 Q513.9063,315.6863 514.4688,315.9831 L514.4688,318.7019 Q513.8438,318.1238 513.25,317.8581 Q512.6563,317.5769 512.0313,317.5769 Q510.6875,317.5769 510,318.655 Q509.3125,319.7175 509.3125,321.8113 Q509.3125,323.905 510,324.9831 Q510.6875,326.0456 512.0313,326.0456 Q512.6563,326.0456 513.25,325.78 Q513.8438,325.4988 514.4688,324.9206 L514.4688,327.6394 Z " fill="#000000"/><a href="https://bo4e.github.io/BO4E-python/latest/api/bo4e.com.html#bo4e.com.preis.Preis" target="_top" title="https://bo4e.github.io/BO4E-python/latest/api/bo4e.com.html#bo4e.com.preis.Preis" xlink:actuate="onRequest" xlink:href="https://bo4e.github.io/BO4E-python/latest/api/bo4e.com.html#bo4e.com.preis.Preis" xlink:show="new" xlink:title="https://bo4e.github.io/BO4E-python/latest/api/bo4e.com.html#bo4e.com.preis.Preis" xlink:type="simple"><text fill="#0000FF" font-family="sans-serif" font-size="14" lengthAdjust="spacing" text-decoration="underline" textLength="34" x="545.5" y="321.0251">Preis</text></a><text fill="#000000" font-family="sans-serif" font-size="10" lengthAdjust="spacing" textLength="74" x="525.5" y="333.6091">bo4e.com.preis</text></g><!--class Angebotsposition--><g id="elem_Angebotsposition"><rect codeLine="3" fill="#F1F1F1" height="62.2344" id="Angebotsposition" rx="2.5" ry="2.5" style="stroke:#181818;stroke-width:0.5;" width="294" x="7" y="189.88"/><ellipse cx="83.25" cy="208.8488" fill="#ADD1B2" rx="11" ry="11" style="stroke:#181818;stroke-width:1.0;"/><path d="M86.2188,214.4894 Q85.6406,214.7863 85,214.9269 Q84.3594,215.0831 83.6563,215.0831 Q81.1563,215.0831 79.8281,213.4425 Q78.5156,211.7863 78.5156,208.6613 Q78.5156,205.5363 79.8281,203.88 Q81.1563,202.2238 83.6563,202.2238 Q84.3594,202.2238 85,202.38 Q85.6563,202.5363 86.2188,202.8331 L86.2188,205.5519 Q85.5938,204.9738 85,204.7081 Q84.4063,204.4269 83.7813,204.4269 Q82.4375,204.4269 81.75,205.505 Q81.0625,206.5675 81.0625,208.6613 Q81.0625,210.755 81.75,211.8331 Q82.4375,212.8956 83.7813,212.8956 Q84.4063,212.8956 85,212.63 Q85.5938,212.3488 86.2188,211.7706 L86.2188,214.4894 Z " fill="#000000"/><a href="https://bo4e.github.io/BO4E-python/latest/api/bo4e.com.html#bo4e.com.angebotsposition.Angebotsposition" target="_top" title="https://bo4e.github.io/BO4E-python/latest/api/bo4e.com.html#bo4e.com.angebotsposition.Angebotsposition" xlink:actuate="onRequest" xlink:href="https://bo4e.github.io/BO4E-python/latest/api/bo4e.com.html#bo4e.com.angebotsposition.Angebotsposition" xlink:show="new" xlink:title="https://bo4e.github.io/BO4E-python/latest/api/bo4e.com.html#bo4e.com.angebotsposition.Angebotsposition" xlink:type="simple"><text fill="#0000FF" font-family="sans-serif" font-size="14" lengthAdjust="spacing" text-decoration="underline" textLength="122" x="109.25" y="207.8751">Angebotsposition</text></a><text fill="#000000" font-family="sans-serif" font-size="10" lengthAdjust="spacing" textLength="133" x="103.75" y="220.4591">bo4e.com.angebotsposition</text><line style="stroke:#181818;stroke-width:0.5;" x1="8" x2="300" y1="227.8175" y2="227.8175"/><text fill="#000000" font-family="sans-serif" font-size="14" lengthAdjust="spacing" textLength="282" x="13" y="244.8126">positionsbezeichnung : str [0..1] = None</text></g><!--link Angebotsposition to COM--><g id="link_Angebotsposition_COM"><path codeLine="14" d="M301.25,204.28 C370.11,196.4 429.9464,189.5539 479.5564,183.8839 " fill="none" id="Angebotsposition-to-COM" style="stroke:#181818;stroke-width:1.0;"/><polygon fill="none" points="497.44,181.84,478.8751,177.9227,480.2377,189.8451,497.44,181.84" style="stroke:#181818;stroke-width:1.0;"/></g><!--link Angebotsposition to Preis--><g id="link_Angebotsposition_Preis"><path codeLine="15" d="M278.16,252.61 C351.54,271.45 429.2564,291.398 484.6064,305.598 " fill="none" id="Angebotsposition-to-Preis" style="stroke:#181818;stroke-width:1.0;"/><polygon fill="#181818" points="496.23,308.58,491.4122,303.2145,484.6064,305.598,489.4242,310.9635,496.23,308.58" style="stroke:#181818;stroke-width:1.0;"/><text fill="#000000" font-family="sans-serif" font-size="13" lengthAdjust="spacing" textLength="88" x="339" y="265.0669">positionspreis</text><text fill="#000000" font-family="sans-serif" font-size="13" lengthAdjust="spacing" textLength="24" x="464.6832" y="319.9702">0..1</text></g><!--link Angebotsposition to Menge--><g id="link_Angebotsposition_Menge"><path codeLine="16" d="M260.19,189.46 C334.07,167.3 418.6155,141.9461 479.0555,123.8261 " fill="none" id="Angebotsposition-to-Menge" style="stroke:#181818;stroke-width:1.0;"/><polygon fill="#181818" points="490.55,120.38,483.654,118.2715,479.0555,123.8261,485.9514,125.9346,490.55,120.38" style="stroke:#181818;stroke-width:1.0;"/><text fill="#000000" font-family="sans-serif" font-size="13" lengthAdjust="spacing" textLength="102" x="332" y="134.0669">positionsmenge</text><text fill="#000000" font-family="sans-serif" font-size="13" lengthAdjust="spacing" textLength="24" x="458.7898" y="135.1755">0..1</text></g><!--link Angebotsposition to Betrag--><g id="link_Angebotsposition_Betrag"><path codeLine="17" d="M301.25,231.41 C367.49,236.12 429.9501,240.5703 479.6801,244.1003 " fill="none" id="Angebotsposition-to-Betrag" style="stroke:#181818;stroke-width:1.0;"/><polygon fill="#181818" points="491.65,244.95,485.9483,240.5352,479.6801,244.1003,485.3818,248.5151,491.65,244.95" style="stroke:#181818;stroke-width:1.0;"/><text fill="#000000" font-family="sans-serif" font-size="13" lengthAdjust="spacing" textLength="100" x="333" y="231.0669">positionskosten</text><text fill="#000000" font-family="sans-serif" font-size="13" lengthAdjust="spacing" textLength="24" x="460.0102" y="257.4016">0..1</text></g><!--SRC=[hLJ1Ri8m33slNs6LsoHIaD0qeGq944V6xgo7j9WcMfjKjT4qjltxcdGm19s4j1xinD6p_UAyDiSj0rkeTAOODhh2bBKrGP3caWZ2zLenbpIEeiIEK6IQrIuHsaQprMZHBzzPMHFbaf4uagLkKAajXE8YxnqZQJ9CB5DfIRlwOdfs0ES7SVnY7aZlSJmSJFwi4uAaYrJu26uEUqfmZpfLPcSo60Dn1Uk14CCO7k796Wo-Wi380gcKAVxpkd28ujZpEeJGMmocztTpnwlRiHPONrqidGVlswVcOPwI1tNDmjbyjOJQsllNvhlNWAvx9yYLpCJCBz0ixIGQfEVHmBgcKbQeIJmx3zwty_0mJyE3d00lluP-_tDor8yRRWkc1jr2wCGS_aARzcCuwj-tkpQxKT99jbVEjTa_Zt2I_cg9iVwPABr1AB18iAA0b7s3ov9RZVc6lW40]--></g></svg>