<svg xmlns="http://www.w3.org/2000/svg" xmlns:xlink="http://www.w3.org/1999/xlink" contentStyleType="text/css" data-diagram-type="CLASS" height="388px" preserveAspectRatio="none" style="width:1117px;height:388px;background:#FFFFFF;" version="1.1" viewBox="0 0 1117 388" width="1117px" zoomAndPan="magnify"><defs/><g><!--cluster bo4e--><g class="cluster" data-entity="bo4e" data-source-line="9" data-uid="ent0005" id="cluster_bo4e"><path d="M913.63,6 L953.506,6 A3.75,3.75 0 0 1 956.006,8.5 L963.006,28.2969 L1108.06,28.2969 A2.5,2.5 0 0 1 1110.56,30.7969 L1110.56,378.5 A2.5,2.5 0 0 1 1108.06,381 L913.63,381 A2.5,2.5 0 0 1 911.13,378.5 L911.13,8.5 A2.5,2.5 0 0 1 913.63,6" fill="none" style="stroke:#000000;stroke-width:1.5;"/><line style="stroke:#000000;stroke-width:1.5;" x1="911.13" x2="963.006" y1="28.2969" y2="28.2969"/><text fill="#000000" font-family="sans-serif" font-size="14" font-weight="bold" lengthAdjust="spacing" textLength="38.876" x="915.13" y="20.9951">bo4e</text></g><!--cluster com--><g class="cluster" data-entity="com" data-source-line="8" data-uid="ent0003" id="cluster_com"><path d="M937.63,49 L1015.3292,49 A3.75,3.75 0 0 1 1017.8292,51.5 L1024.8292,71.2969 L1084.06,71.2969 A2.5,2.5 0 0 1 1086.56,73.7969 L1086.56,354.5 A2.5,2.5 0 0 1 1084.06,357 L937.63,357 A2.5,2.5 0 0 1 935.13,354.5 L935.13,51.5 A2.5,2.5 0 0 1 937.63,49" fill="#E0A86C" style="stroke:#000000;stroke-width:1.5;"/><line style="stroke:#000000;stroke-width:1.5;" x1="935.13" x2="1024.8292" y1="71.2969" y2="71.2969"/><a href="file:////home/runner/work/BO4E-python/BO4E-python/docs/../.tox/docs/tmp/html/api/bo4e.com.html" target="_top" title="file:////home/runner/work/BO4E-python/BO4E-python/docs/../.tox/docs/tmp/html/api/bo4e.com.html" xlink:actuate="onRequest" xlink:href="file:////home/runner/work/BO4E-python/BO4E-python/docs/../.tox/docs/tmp/html/api/bo4e.com.html" xlink:show="new" xlink:title="file:////home/runner/work/BO4E-python/BO4E-python/docs/../.tox/docs/tmp/html/api/bo4e.com.html" xlink:type="simple"><text fill="#0000FF" font-family="sans-serif" font-size="14" font-weight="bold" lengthAdjust="spacing" text-decoration="underline" textLength="76.6992" x="939.13" y="63.9951">bo4e.com</text></a></g><!--class Preis--><g class="entity" data-entity="Preis" data-source-line="9" data-uid="ent0004" id="entity_Preis"><rect fill="#F1F1F1" height="37.9375" rx="2.5" ry="2.5" style="stroke:#181818;stroke-width:0.5;" width="109.2949" x="956.2" y="84.03"/><ellipse cx="971.2" cy="102.9987" fill="#ADD1B2" rx="11" ry="11" style="stroke:#181818;stroke-width:1;"/><path d="M974.1688,108.6394 Q973.5906,108.9362 972.95,109.0769 Q972.3094,109.2331 971.6063,109.2331 Q969.1063,109.2331 967.7781,107.5925 Q966.4656,105.9362 966.4656,102.8112 Q966.4656,99.6862 967.7781,98.03 Q969.1063,96.3737 971.6063,96.3737 Q972.3094,96.3737 972.95,96.53 Q973.6063,96.6862 974.1688,96.9831 L974.1688,99.7019 Q973.5438,99.1237 972.95,98.8581 Q972.3563,98.5769 971.7313,98.5769 Q970.3875,98.5769 969.7,99.655 Q969.0125,100.7175 969.0125,102.8112 Q969.0125,104.905 969.7,105.9831 Q970.3875,107.0456 971.7313,107.0456 Q972.3563,107.0456 972.95,106.78 Q973.5438,106.4987 974.1688,105.9206 L974.1688,108.6394 Z " fill="#000000"/><a href="file:////home/runner/work/BO4E-python/BO4E-python/docs/../.tox/docs/tmp/html/api/bo4e.com.html#bo4e.com.preis.Preis" target="_top" title="file:////home/runner/work/BO4E-python/BO4E-python/docs/../.tox/docs/tmp/html/api/bo4e.com.html#bo4e.com.preis.Preis" xlink:actuate="onRequest" xlink:href="file:////home/runner/work/BO4E-python/BO4E-python/docs/../.tox/docs/tmp/html/api/bo4e.com.html#bo4e.com.preis.Preis" xlink:show="new" xlink:title="file:////home/runner/work/BO4E-python/BO4E-python/docs/../.tox/docs/tmp/html/api/bo4e.com.html#bo4e.com.preis.Preis" xlink:type="simple"><text fill="#0000FF" font-family="sans-serif" font-size="14" lengthAdjust="spacing" text-decoration="underline" textLength="33.9951" x="1006.8499" y="102.0251">Preis</text></a><text fill="#000000" font-family="sans-serif" font-size="10" lengthAdjust="spacing" textLength="77.2949" x="985.2" y="114.6091">bo4e.com.preis</text></g><!--class COM--><g class="entity" data-entity="COM" data-source-line="10" data-uid="ent0006" id="entity_COM"><rect fill="#F1F1F1" height="37.9375" rx="2.5" ry="2.5" style="stroke:#181818;stroke-width:0.5;" width="106.0527" x="957.82" y="157.03"/><ellipse cx="972.82" cy="175.9988" fill="#ADD1B2" rx="11" ry="11" style="stroke:#181818;stroke-width:1;"/><path d="M975.7888,181.6394 Q975.2106,181.9363 974.57,182.0769 Q973.9294,182.2331 973.2263,182.2331 Q970.7263,182.2331 969.3981,180.5925 Q968.0856,178.9363 968.0856,175.8113 Q968.0856,172.6863 969.3981,171.03 Q970.7263,169.3738 973.2263,169.3738 Q973.9294,169.3738 974.57,169.53 Q975.2263,169.6863 975.7888,169.9831 L975.7888,172.7019 Q975.1638,172.1238 974.57,171.8581 Q973.9763,171.5769 973.3513,171.5769 Q972.0075,171.5769 971.32,172.655 Q970.6325,173.7175 970.6325,175.8113 Q970.6325,177.905 971.32,178.9831 Q972.0075,180.0456 973.3513,180.0456 Q973.9763,180.0456 974.57,179.78 Q975.1638,179.4988 975.7888,178.9206 L975.7888,181.6394 Z " fill="#000000"/><a href="file:////home/runner/work/BO4E-python/BO4E-python/docs/../.tox/docs/tmp/html/api/bo4e.com.html#bo4e.com.com.COM" target="_top" title="file:////home/runner/work/BO4E-python/BO4E-python/docs/../.tox/docs/tmp/html/api/bo4e.com.html#bo4e.com.com.COM" xlink:actuate="onRequest" xlink:href="file:////home/runner/work/BO4E-python/BO4E-python/docs/../.tox/docs/tmp/html/api/bo4e.com.html#bo4e.com.com.COM" xlink:show="new" xlink:title="file:////home/runner/work/BO4E-python/BO4E-python/docs/../.tox/docs/tmp/html/api/bo4e.com.html#bo4e.com.com.COM" xlink:type="simple"><text fill="#0000FF" font-family="sans-serif" font-size="14" lengthAdjust="spacing" text-decoration="underline" textLength="32.874" x="1007.4094" y="175.0251">COM</text></a><text fill="#000000" font-family="sans-serif" font-size="10" lengthAdjust="spacing" textLength="74.0527" x="986.82" y="187.6091">bo4e.com.com</text></g><!--class Betrag--><g class="entity" data-entity="Betrag" data-source-line="11" data-uid="ent0007" id="entity_Betrag"><rect fill="#F1F1F1" height="37.9375" rx="2.5" ry="2.5" style="stroke:#181818;stroke-width:0.5;" width="117.7031" x="951.99" y="230.03"/><ellipse cx="966.99" cy="248.9988" fill="#ADD1B2" rx="11" ry="11" style="stroke:#181818;stroke-width:1;"/><path d="M969.9588,254.6394 Q969.3806,254.9363 968.74,255.0769 Q968.0994,255.2331 967.3963,255.2331 Q964.8963,255.2331 963.5681,253.5925 Q962.2556,251.9363 962.2556,248.8113 Q962.2556,245.6863 963.5681,244.03 Q964.8963,242.3738 967.3963,242.3738 Q968.0994,242.3738 968.74,242.53 Q969.3963,242.6863 969.9588,242.9831 L969.9588,245.7019 Q969.3338,245.1238 968.74,244.8581 Q968.1463,244.5769 967.5213,244.5769 Q966.1775,244.5769 965.49,245.655 Q964.8025,246.7175 964.8025,248.8113 Q964.8025,250.905 965.49,251.9831 Q966.1775,253.0456 967.5213,253.0456 Q968.1463,253.0456 968.74,252.78 Q969.3338,252.4988 969.9588,251.9206 L969.9588,254.6394 Z " fill="#000000"/><a href="file:////home/runner/work/BO4E-python/BO4E-python/docs/../.tox/docs/tmp/html/api/bo4e.com.html#bo4e.com.betrag.Betrag" target="_top" title="file:////home/runner/work/BO4E-python/BO4E-python/docs/../.tox/docs/tmp/html/api/bo4e.com.html#bo4e.com.betrag.Betrag" xlink:actuate="onRequest" xlink:href="file:////home/runner/work/BO4E-python/BO4E-python/docs/../.tox/docs/tmp/html/api/bo4e.com.html#bo4e.com.betrag.Betrag" xlink:show="new" xlink:title="file:////home/runner/work/BO4E-python/BO4E-python/docs/../.tox/docs/tmp/html/api/bo4e.com.html#bo4e.com.betrag.Betrag" xlink:type="simple"><text fill="#0000FF" font-family="sans-serif" font-size="14" lengthAdjust="spacing" text-decoration="underline" textLength="46.9287" x="1000.3772" y="248.0251">Betrag</text></a><text fill="#000000" font-family="sans-serif" font-size="10" lengthAdjust="spacing" textLength="85.7031" x="980.99" y="260.6091">bo4e.com.betrag</text></g><!--class Menge--><g class="entity" data-entity="Menge" data-source-line="12" data-uid="ent0008" id="entity_Menge"><rect fill="#F1F1F1" height="37.9375" rx="2.5" ry="2.5" style="stroke:#181818;stroke-width:0.5;" width="119.4268" x="951.13" y="303.03"/><ellipse cx="966.13" cy="321.9988" fill="#ADD1B2" rx="11" ry="11" style="stroke:#181818;stroke-width:1;"/><path d="M969.0988,327.6394 Q968.5206,327.9363 967.88,328.0769 Q967.2394,328.2331 966.5363,328.2331 Q964.0363,328.2331 962.7081,326.5925 Q961.3956,324.9363 961.3956,321.8113 Q961.3956,318.6863 962.7081,317.03 Q964.0363,315.3738 966.5363,315.3738 Q967.2394,315.3738 967.88,315.53 Q968.5363,315.6863 969.0988,315.9831 L969.0988,318.7019 Q968.4738,318.1238 967.88,317.8581 Q967.2863,317.5769 966.6613,317.5769 Q965.3175,317.5769 964.63,318.655 Q963.9425,319.7175 963.9425,321.8113 Q963.9425,323.905 964.63,324.9831 Q965.3175,326.0456 966.6613,326.0456 Q967.2863,326.0456 967.88,325.78 Q968.4738,325.4988 969.0988,324.9206 L969.0988,327.6394 Z " fill="#000000"/><a href="file:////home/runner/work/BO4E-python/BO4E-python/docs/../.tox/docs/tmp/html/api/bo4e.com.html#bo4e.com.menge.Menge" target="_top" title="file:////home/runner/work/BO4E-python/BO4E-python/docs/../.tox/docs/tmp/html/api/bo4e.com.html#bo4e.com.menge.Menge" xlink:actuate="onRequest" xlink:href="file:////home/runner/work/BO4E-python/BO4E-python/docs/../.tox/docs/tmp/html/api/bo4e.com.html#bo4e.com.menge.Menge" xlink:show="new" xlink:title="file:////home/runner/work/BO4E-python/BO4E-python/docs/../.tox/docs/tmp/html/api/bo4e.com.html#bo4e.com.menge.Menge" xlink:type="simple"><text fill="#0000FF" font-family="sans-serif" font-size="14" lengthAdjust="spacing" text-decoration="underline" textLength="47.0654" x="1000.3107" y="321.0251">Menge</text></a><text fill="#000000" font-family="sans-serif" font-size="10" lengthAdjust="spacing" textLength="87.4268" x="980.13" y="333.6091">bo4e.com.menge</text></g><!--class Angebotsposition--><g class="entity" data-entity="Angebotsposition" data-source-line="3" data-uid="ent0002" id="entity_Angebotsposition"><rect fill="#F1F1F1" height="78.5313" rx="2.5" ry="2.5" style="stroke:#181818;stroke-width:0.5;" width="753.1318" x="7" y="181.73"/><ellipse cx="309.8823" cy="200.6988" fill="#ADD1B2" rx="11" ry="11" style="stroke:#181818;stroke-width:1;"/><path d="M312.8511,206.3394 Q312.2729,206.6363 311.6323,206.7769 Q310.9917,206.9331 310.2886,206.9331 Q307.7886,206.9331 306.4604,205.2925 Q305.1479,203.6363 305.1479,200.5113 Q305.1479,197.3863 306.4604,195.73 Q307.7886,194.0738 310.2886,194.0738 Q310.9917,194.0738 311.6323,194.23 Q312.2886,194.3863 312.8511,194.6831 L312.8511,197.4019 Q312.2261,196.8238 311.6323,196.5581 Q311.0386,196.2769 310.4136,196.2769 Q309.0698,196.2769 308.3823,197.355 Q307.6948,198.4175 307.6948,200.5113 Q307.6948,202.605 308.3823,203.6831 Q309.0698,204.7456 310.4136,204.7456 Q311.0386,204.7456 311.6323,204.48 Q312.2261,204.1988 312.8511,203.6206 L312.8511,206.3394 Z " fill="#000000"/><a href="file:////home/runner/work/BO4E-python/BO4E-python/docs/../.tox/docs/tmp/html/api/bo4e.com.html#bo4e.com.angebotsposition.Angebotsposition" target="_top" title="file:////home/runner/work/BO4E-python/BO4E-python/docs/../.tox/docs/tmp/html/api/bo4e.com.html#bo4e.com.angebotsposition.Angebotsposition" xlink:actuate="onRequest" xlink:href="file:////home/runner/work/BO4E-python/BO4E-python/docs/../.tox/docs/tmp/html/api/bo4e.com.html#bo4e.com.angebotsposition.Angebotsposition" xlink:show="new" xlink:title="file:////home/runner/work/BO4E-python/BO4E-python/docs/../.tox/docs/tmp/html/api/bo4e.com.html#bo4e.com.angebotsposition.Angebotsposition" xlink:type="simple"><text fill="#0000FF" font-family="sans-serif" font-size="14" lengthAdjust="spacing" text-decoration="underline" textLength="121.6387" x="338.9966" y="199.7251">Angebotsposition</text></a><text fill="#000000" font-family="sans-serif" font-size="10" lengthAdjust="spacing" textLength="138.8672" x="330.3823" y="212.3091">bo4e.com.angebotsposition</text><line style="stroke:#181818;stroke-width:0.5;" x1="8" x2="759.1318" y1="219.6675" y2="219.6675"/><text fill="#000000" font-family="sans-serif" font-size="14" lengthAdjust="spacing" textLength="741.1318" x="13" y="236.6626">_typ : Literal[&lt;ComTyp.ANGEBOTSPOSITION: 'ANGEBOTSPOSITION'&gt;] [1] = ComTyp.ANGEBOTSPOSITION</text><text fill="#000000" font-family="sans-serif" font-size="14" lengthAdjust="spacing" textLength="283.5752" x="13" y="252.9595">positionsbezeichnung : str [0..1] = None</text></g><!--link Angebotsposition to COM--><g class="link" data-entity-1="Angebotsposition" data-entity-2="COM" data-source-line="15" data-uid="lnk9" id="link_Angebotsposition_COM"><path codeLine="15" d="M760.47,193.95 C838.43,188.34 892.9665,184.4134 939.4665,181.0634" fill="none" id="Angebotsposition-to-COM" style="stroke:#181818;stroke-width:1;"/><polygon fill="none" points="957.42,179.77,939.0354,175.0789,939.8977,187.0479,957.42,179.77" style="stroke:#181818;stroke-width:1;"/></g><!--link Angebotsposition to Preis--><g class="link" data-entity-1="Angebotsposition" data-entity-2="Preis" data-source-line="16" data-uid="lnk10" id="link_Angebotsposition_Preis"><path codeLine="16" d="M594.95,181.3 C722.81,157.17 864.5081,130.4251 944.1581,115.3951" fill="none" id="Angebotsposition-to-Preis" style="stroke:#181818;stroke-width:1;"/><polygon fill="#181818" points="955.95,113.17,949.3123,110.3519,944.1581,115.3951,950.7958,118.2132,955.95,113.17" style="stroke:#181818;stroke-width:1;"/><text fill="#000000" font-family="sans-serif" font-size="13" lengthAdjust="spacing" textLength="90.2446" x="797.63" y="122.0669">positionspreis</text><text fill="#000000" font-family="sans-serif" font-size="13" lengthAdjust="spacing" textLength="24.8066" x="923.4304" y="127.5095">0..1</text></g><!--link Angebotsposition to Menge--><g class="link" data-entity-1="Angebotsposition" data-entity-2="Menge" data-source-line="17" data-uid="lnk11" id="link_Angebotsposition_Menge"><path codeLine="17" d="M630.35,260.7 C747.29,279.59 865.4834,298.6874 938.9434,310.5474" fill="none" id="Angebotsposition-to-Menge" style="stroke:#181818;stroke-width:1;"/><polygon fill="#181818" points="950.79,312.46,945.5042,307.5548,938.9434,310.5474,944.2292,315.4526,950.79,312.46" style="stroke:#181818;stroke-width:1;"/><text fill="#000000" font-family="sans-serif" font-size="13" lengthAdjust="spacing" textLength="103.416" x="791.13" y="284.0669">positionsmenge</text><text fill="#000000" font-family="sans-serif" font-size="13" lengthAdjust="spacing" textLength="24.8066" x="918.5055" y="324.2988">0..1</text></g><!--link Angebotsposition to Betrag--><g class="link" data-entity-1="Angebotsposition" data-entity-2="Betrag" data-source-line="18" data-uid="lnk12" id="link_Angebotsposition_Betrag"><path codeLine="18" d="M760.47,237.83 C835.32,241.18 893.1421,243.7723 939.7421,245.8623" fill="none" id="Angebotsposition-to-Betrag" style="stroke:#181818;stroke-width:1;"/><polygon fill="#181818" points="951.73,246.4,945.9152,242.1352,939.7421,245.8623,945.5568,250.1272,951.73,246.4" style="stroke:#181818;stroke-width:1;"/><text fill="#000000" font-family="sans-serif" font-size="13" lengthAdjust="spacing" textLength="101.8545" x="792.13" y="236.0669">positionskosten</text><text fill="#000000" font-family="sans-serif" font-size="13" lengthAdjust="spacing" textLength="24.8066" x="919.1124" y="259.0723">0..1</text></g><!--SRC=[nLHHIyCm47wsl-BO7WHXoGGHANEmZI62MmVkhHPfkziQR9AIPEYc_dURr4tTAkn5LxXBx_Y-vECkbnpd1em4nHQPWHbJc1ecXUUbUQmrDC9mpdBqQVbbaYDLIo5GqMUfdcW_k1YsYfN9fFZnFvEffeHGOkHB5HXUqCpmdCO5eucyG99AJcockOrYiS146br8pQm4qjj9m6uYYXv4HxCr-kVjxg_xD23MUrHuzKuUpQe07-wOGHNdOMSW-NHLaDxuPjWFflUJuFvsUXkCVJZTJPrs8mZF8xY6NpZUoUOWdU0QMPg9fLYKXscZ86mJuiXZAT1xzpmHSzH5dEBVbnisKHIvkcn2Q0xRlQlBWQtBltU-KCWqcLWFpjStri6SQWSwWb1hWs04fTLBBCq9B057a9UWKV62zDq2rLAliq8wgHNi26evbZD9HjQ3y_LI7SmfTI0xB_ilGwlrrjtUPTkY6am9EeE6dRt65xIwT3vinzLTiaFPbVXlR2VsKFPddxxHdwGsMBwz6PiXSEG9AktfJ3x3_fPpXlbCVm00]--></g></svg>