<?xml version="1.0" encoding="us-ascii" standalone="no"?><svg xmlns="http://www.w3.org/2000/svg" xmlns:xlink="http://www.w3.org/1999/xlink" contentStyleType="text/css" height="574px" preserveAspectRatio="none" style="width:757px;height:574px;background:#FFFFFF;" version="1.1" viewBox="0 0 757 574" width="757px" zoomAndPan="magnify"><defs/><g><!--cluster bo4e--><g id="cluster_bo4e"><path d="M507.5,6 L548.5,6 A3.75,3.75 0 0 1 551,8.5 L558,28.2969 L747.5,28.2969 A2.5,2.5 0 0 1 750,30.7969 L750,564.5 A2.5,2.5 0 0 1 747.5,567 L507.5,567 A2.5,2.5 0 0 1 505,564.5 L505,8.5 A2.5,2.5 0 0 1 507.5,6 " fill="none" style="stroke:#000000;stroke-width:1.5;"/><line style="stroke:#000000;stroke-width:1.5;" x1="505" x2="558" y1="28.2969" y2="28.2969"/><text fill="#000000" font-family="sans-serif" font-size="14" font-weight="bold" lengthAdjust="spacing" textLength="40" x="509" y="20.9951">bo4e</text></g><!--cluster bo--><g id="cluster_bo"><path d="M544,49 L610,49 A3.75,3.75 0 0 1 612.5,51.5 L619.5,71.2969 L711,71.2969 A2.5,2.5 0 0 1 713.5,73.7969 L713.5,135.5 A2.5,2.5 0 0 1 711,138 L544,138 A2.5,2.5 0 0 1 541.5,135.5 L541.5,51.5 A2.5,2.5 0 0 1 544,49 " fill="#B6D7A8" style="stroke:#000000;stroke-width:1.5;"/><line style="stroke:#000000;stroke-width:1.5;" x1="541.5" x2="619.5" y1="71.2969" y2="71.2969"/><a href="https://bo4e.github.io/BO4E-python/latest/api/bo4e.bo.html" target="_top" title="https://bo4e.github.io/BO4E-python/latest/api/bo4e.bo.html" xlink:actuate="onRequest" xlink:href="https://bo4e.github.io/BO4E-python/latest/api/bo4e.bo.html" xlink:show="new" xlink:title="https://bo4e.github.io/BO4E-python/latest/api/bo4e.bo.html" xlink:type="simple"><text fill="#0000FF" font-family="sans-serif" font-size="14" font-weight="bold" lengthAdjust="spacing" text-decoration="underline" textLength="65" x="545.5" y="63.9951">bo4e.bo</text></a></g><!--cluster com--><g id="cluster_com"><path d="M531.5,162 L610.5,162 A3.75,3.75 0 0 1 613,164.5 L620,184.2969 L723.5,184.2969 A2.5,2.5 0 0 1 726,186.7969 L726,540.5 A2.5,2.5 0 0 1 723.5,543 L531.5,543 A2.5,2.5 0 0 1 529,540.5 L529,164.5 A2.5,2.5 0 0 1 531.5,162 " fill="#E0A86C" style="stroke:#000000;stroke-width:1.5;"/><line style="stroke:#000000;stroke-width:1.5;" x1="529" x2="620" y1="184.2969" y2="184.2969"/><a href="https://bo4e.github.io/BO4E-python/latest/api/bo4e.com.html" target="_top" title="https://bo4e.github.io/BO4E-python/latest/api/bo4e.com.html" xlink:actuate="onRequest" xlink:href="https://bo4e.github.io/BO4E-python/latest/api/bo4e.com.html" xlink:show="new" xlink:title="https://bo4e.github.io/BO4E-python/latest/api/bo4e.com.html" xlink:type="simple"><text fill="#0000FF" font-family="sans-serif" font-size="14" font-weight="bold" lengthAdjust="spacing" text-decoration="underline" textLength="78" x="533" y="176.9951">bo4e.com</text></a></g><!--class Marktlokation--><g id="elem_Marktlokation"><rect codeLine="8" fill="#F1F1F1" height="37.9375" id="Marktlokation" rx="2.5" ry="2.5" style="stroke:#181818;stroke-width:0.5;" width="140" x="557.5" y="84.03"/><ellipse cx="572.5" cy="102.9987" fill="#ADD1B2" rx="11" ry="11" style="stroke:#181818;stroke-width:1.0;"/><path d="M575.4688,108.6394 Q574.8906,108.9362 574.25,109.0769 Q573.6094,109.2331 572.9063,109.2331 Q570.4063,109.2331 569.0781,107.5925 Q567.7656,105.9362 567.7656,102.8112 Q567.7656,99.6862 569.0781,98.03 Q570.4063,96.3737 572.9063,96.3737 Q573.6094,96.3737 574.25,96.53 Q574.9063,96.6862 575.4688,96.9831 L575.4688,99.7019 Q574.8438,99.1237 574.25,98.8581 Q573.6563,98.5769 573.0313,98.5769 Q571.6875,98.5769 571,99.655 Q570.3125,100.7175 570.3125,102.8112 Q570.3125,104.905 571,105.9831 Q571.6875,107.0456 573.0313,107.0456 Q573.6563,107.0456 574.25,106.78 Q574.8438,106.4987 575.4688,105.9206 L575.4688,108.6394 Z " fill="#000000"/><a href="https://bo4e.github.io/BO4E-python/latest/api/bo4e.bo.html#bo4e.bo.marktlokation.Marktlokation" target="_top" title="https://bo4e.github.io/BO4E-python/latest/api/bo4e.bo.html#bo4e.bo.marktlokation.Marktlokation" xlink:actuate="onRequest" xlink:href="https://bo4e.github.io/BO4E-python/latest/api/bo4e.bo.html#bo4e.bo.marktlokation.Marktlokation" xlink:show="new" xlink:title="https://bo4e.github.io/BO4E-python/latest/api/bo4e.bo.html#bo4e.bo.marktlokation.Marktlokation" xlink:type="simple"><text fill="#0000FF" font-family="sans-serif" font-size="14" lengthAdjust="spacing" text-decoration="underline" textLength="92" x="594.5" y="102.0251">Marktlokation</text></a><text fill="#000000" font-family="sans-serif" font-size="10" lengthAdjust="spacing" textLength="108" x="586.5" y="114.6091">bo4e.bo.marktlokation</text></g><!--class Angebotsposition--><g id="elem_Angebotsposition"><rect codeLine="11" fill="#F1F1F1" height="37.9375" id="Angebotsposition" rx="2.5" ry="2.5" style="stroke:#181818;stroke-width:0.5;" width="165" x="545" y="197.03"/><ellipse cx="560" cy="215.9987" fill="#ADD1B2" rx="11" ry="11" style="stroke:#181818;stroke-width:1.0;"/><path d="M562.9688,221.6394 Q562.3906,221.9362 561.75,222.0769 Q561.1094,222.2331 560.4063,222.2331 Q557.9063,222.2331 556.5781,220.5925 Q555.2656,218.9362 555.2656,215.8112 Q555.2656,212.6862 556.5781,211.03 Q557.9063,209.3737 560.4063,209.3737 Q561.1094,209.3737 561.75,209.53 Q562.4063,209.6862 562.9688,209.9831 L562.9688,212.7019 Q562.3438,212.1237 561.75,211.8581 Q561.1563,211.5769 560.5313,211.5769 Q559.1875,211.5769 558.5,212.655 Q557.8125,213.7175 557.8125,215.8112 Q557.8125,217.905 558.5,218.9831 Q559.1875,220.0456 560.5313,220.0456 Q561.1563,220.0456 561.75,219.78 Q562.3438,219.4987 562.9688,218.9206 L562.9688,221.6394 Z " fill="#000000"/><a href="https://bo4e.github.io/BO4E-python/latest/api/bo4e.com.html#bo4e.com.angebotsposition.Angebotsposition" target="_top" title="https://bo4e.github.io/BO4E-python/latest/api/bo4e.com.html#bo4e.com.angebotsposition.Angebotsposition" xlink:actuate="onRequest" xlink:href="https://bo4e.github.io/BO4E-python/latest/api/bo4e.com.html#bo4e.com.angebotsposition.Angebotsposition" xlink:show="new" xlink:title="https://bo4e.github.io/BO4E-python/latest/api/bo4e.com.html#bo4e.com.angebotsposition.Angebotsposition" xlink:type="simple"><text fill="#0000FF" font-family="sans-serif" font-size="14" lengthAdjust="spacing" text-decoration="underline" textLength="122" x="579.5" y="215.0251">Angebotsposition</text></a><text fill="#000000" font-family="sans-serif" font-size="10" lengthAdjust="spacing" textLength="133" x="574" y="227.6091">bo4e.com.angebotsposition</text></g><!--class Menge--><g id="elem_Menge"><rect codeLine="12" fill="#F1F1F1" height="37.9375" id="Menge" rx="2.5" ry="2.5" style="stroke:#181818;stroke-width:0.5;" width="117" x="569" y="270.03"/><ellipse cx="584" cy="288.9988" fill="#ADD1B2" rx="11" ry="11" style="stroke:#181818;stroke-width:1.0;"/><path d="M586.9688,294.6394 Q586.3906,294.9363 585.75,295.0769 Q585.1094,295.2331 584.4063,295.2331 Q581.9063,295.2331 580.5781,293.5925 Q579.2656,291.9363 579.2656,288.8113 Q579.2656,285.6863 580.5781,284.03 Q581.9063,282.3738 584.4063,282.3738 Q585.1094,282.3738 585.75,282.53 Q586.4063,282.6863 586.9688,282.9831 L586.9688,285.7019 Q586.3438,285.1238 585.75,284.8581 Q585.1563,284.5769 584.5313,284.5769 Q583.1875,284.5769 582.5,285.655 Q581.8125,286.7175 581.8125,288.8113 Q581.8125,290.905 582.5,291.9831 Q583.1875,293.0456 584.5313,293.0456 Q585.1563,293.0456 585.75,292.78 Q586.3438,292.4988 586.9688,291.9206 L586.9688,294.6394 Z " fill="#000000"/><a href="https://bo4e.github.io/BO4E-python/latest/api/bo4e.com.html#bo4e.com.menge.Menge" target="_top" title="https://bo4e.github.io/BO4E-python/latest/api/bo4e.com.html#bo4e.com.menge.Menge" xlink:actuate="onRequest" xlink:href="https://bo4e.github.io/BO4E-python/latest/api/bo4e.com.html#bo4e.com.menge.Menge" xlink:show="new" xlink:title="https://bo4e.github.io/BO4E-python/latest/api/bo4e.com.html#bo4e.com.menge.Menge" xlink:type="simple"><text fill="#0000FF" font-family="sans-serif" font-size="14" lengthAdjust="spacing" text-decoration="underline" textLength="48" x="616.5" y="288.0251">Menge</text></a><text fill="#000000" font-family="sans-serif" font-size="10" lengthAdjust="spacing" textLength="85" x="598" y="300.6091">bo4e.com.menge</text></g><!--class COM--><g id="elem_COM"><rect codeLine="13" fill="#F1F1F1" height="37.9375" id="COM" rx="2.5" ry="2.5" style="stroke:#181818;stroke-width:0.5;" width="104" x="575.5" y="343.03"/><ellipse cx="590.5" cy="361.9988" fill="#ADD1B2" rx="11" ry="11" style="stroke:#181818;stroke-width:1.0;"/><path d="M593.4688,367.6394 Q592.8906,367.9363 592.25,368.0769 Q591.6094,368.2331 590.9063,368.2331 Q588.4063,368.2331 587.0781,366.5925 Q585.7656,364.9363 585.7656,361.8113 Q585.7656,358.6863 587.0781,357.03 Q588.4063,355.3738 590.9063,355.3738 Q591.6094,355.3738 592.25,355.53 Q592.9063,355.6863 593.4688,355.9831 L593.4688,358.7019 Q592.8438,358.1238 592.25,357.8581 Q591.6563,357.5769 591.0313,357.5769 Q589.6875,357.5769 589,358.655 Q588.3125,359.7175 588.3125,361.8113 Q588.3125,363.905 589,364.9831 Q589.6875,366.0456 591.0313,366.0456 Q591.6563,366.0456 592.25,365.78 Q592.8438,365.4988 593.4688,364.9206 L593.4688,367.6394 Z " fill="#000000"/><a href="https://bo4e.github.io/BO4E-python/latest/api/bo4e.com.html#bo4e.com.com.COM" target="_top" title="https://bo4e.github.io/BO4E-python/latest/api/bo4e.com.html#bo4e.com.com.COM" xlink:actuate="onRequest" xlink:href="https://bo4e.github.io/BO4E-python/latest/api/bo4e.com.html#bo4e.com.com.COM" xlink:show="new" xlink:title="https://bo4e.github.io/BO4E-python/latest/api/bo4e.com.html#bo4e.com.com.COM" xlink:type="simple"><text fill="#0000FF" font-family="sans-serif" font-size="14" lengthAdjust="spacing" text-decoration="underline" textLength="33" x="624" y="361.0251">COM</text></a><text fill="#000000" font-family="sans-serif" font-size="10" lengthAdjust="spacing" textLength="72" x="604.5" y="373.6091">bo4e.com.com</text></g><!--class Zeitraum--><g id="elem_Zeitraum"><rect codeLine="14" fill="#F1F1F1" height="37.9375" id="Zeitraum" rx="2.5" ry="2.5" style="stroke:#181818;stroke-width:0.5;" width="126" x="564.5" y="416.03"/><ellipse cx="579.5" cy="434.9988" fill="#ADD1B2" rx="11" ry="11" style="stroke:#181818;stroke-width:1.0;"/><path d="M582.4688,440.6394 Q581.8906,440.9363 581.25,441.0769 Q580.6094,441.2331 579.9063,441.2331 Q577.4063,441.2331 576.0781,439.5925 Q574.7656,437.9363 574.7656,434.8113 Q574.7656,431.6863 576.0781,430.03 Q577.4063,428.3738 579.9063,428.3738 Q580.6094,428.3738 581.25,428.53 Q581.9063,428.6863 582.4688,428.9831 L582.4688,431.7019 Q581.8438,431.1238 581.25,430.8581 Q580.6563,430.5769 580.0313,430.5769 Q578.6875,430.5769 578,431.655 Q577.3125,432.7175 577.3125,434.8113 Q577.3125,436.905 578,437.9831 Q578.6875,439.0456 580.0313,439.0456 Q580.6563,439.0456 581.25,438.78 Q581.8438,438.4988 582.4688,437.9206 L582.4688,440.6394 Z " fill="#000000"/><a href="https://bo4e.github.io/BO4E-python/latest/api/bo4e.com.html#bo4e.com.zeitraum.Zeitraum" target="_top" title="https://bo4e.github.io/BO4E-python/latest/api/bo4e.com.html#bo4e.com.zeitraum.Zeitraum" xlink:actuate="onRequest" xlink:href="https://bo4e.github.io/BO4E-python/latest/api/bo4e.com.html#bo4e.com.zeitraum.Zeitraum" xlink:show="new" xlink:title="https://bo4e.github.io/BO4E-python/latest/api/bo4e.com.html#bo4e.com.zeitraum.Zeitraum" xlink:type="simple"><text fill="#0000FF" font-family="sans-serif" font-size="14" lengthAdjust="spacing" text-decoration="underline" textLength="62" x="609.5" y="434.0251">Zeitraum</text></a><text fill="#000000" font-family="sans-serif" font-size="10" lengthAdjust="spacing" textLength="94" x="593.5" y="446.6091">bo4e.com.zeitraum</text></g><!--class Betrag--><g id="elem_Betrag"><rect codeLine="15" fill="#F1F1F1" height="37.9375" id="Betrag" rx="2.5" ry="2.5" style="stroke:#181818;stroke-width:0.5;" width="115" x="570" y="489.03"/><ellipse cx="585" cy="507.9988" fill="#ADD1B2" rx="11" ry="11" style="stroke:#181818;stroke-width:1.0;"/><path d="M587.9688,513.6394 Q587.3906,513.9363 586.75,514.0769 Q586.1094,514.2331 585.4063,514.2331 Q582.9063,514.2331 581.5781,512.5925 Q580.2656,510.9363 580.2656,507.8113 Q580.2656,504.6863 581.5781,503.03 Q582.9063,501.3738 585.4063,501.3738 Q586.1094,501.3738 586.75,501.53 Q587.4063,501.6863 587.9688,501.9831 L587.9688,504.7019 Q587.3438,504.1238 586.75,503.8581 Q586.1563,503.5769 585.5313,503.5769 Q584.1875,503.5769 583.5,504.655 Q582.8125,505.7175 582.8125,507.8113 Q582.8125,509.905 583.5,510.9831 Q584.1875,512.0456 585.5313,512.0456 Q586.1563,512.0456 586.75,511.78 Q587.3438,511.4988 587.9688,510.9206 L587.9688,513.6394 Z " fill="#000000"/><a href="https://bo4e.github.io/BO4E-python/latest/api/bo4e.com.html#bo4e.com.betrag.Betrag" target="_top" title="https://bo4e.github.io/BO4E-python/latest/api/bo4e.com.html#bo4e.com.betrag.Betrag" xlink:actuate="onRequest" xlink:href="https://bo4e.github.io/BO4E-python/latest/api/bo4e.com.html#bo4e.com.betrag.Betrag" xlink:show="new" xlink:title="https://bo4e.github.io/BO4E-python/latest/api/bo4e.com.html#bo4e.com.betrag.Betrag" xlink:type="simple"><text fill="#0000FF" font-family="sans-serif" font-size="14" lengthAdjust="spacing" text-decoration="underline" textLength="46" x="617.5" y="507.0251">Betrag</text></a><text fill="#000000" font-family="sans-serif" font-size="10" lengthAdjust="spacing" textLength="83" x="599" y="519.6091">bo4e.com.betrag</text></g><!--class Angebotsteil--><g id="elem_Angebotsteil"><rect codeLine="3" fill="#F1F1F1" height="62.2344" id="Angebotsteil" rx="2.5" ry="2.5" style="stroke:#181818;stroke-width:0.5;" width="277" x="7" y="297.88"/><ellipse cx="86.25" cy="316.8488" fill="#ADD1B2" rx="11" ry="11" style="stroke:#181818;stroke-width:1.0;"/><path d="M89.2188,322.4894 Q88.6406,322.7863 88,322.9269 Q87.3594,323.0831 86.6563,323.0831 Q84.1563,323.0831 82.8281,321.4425 Q81.5156,319.7863 81.5156,316.6613 Q81.5156,313.5363 82.8281,311.88 Q84.1563,310.2238 86.6563,310.2238 Q87.3594,310.2238 88,310.38 Q88.6563,310.5363 89.2188,310.8331 L89.2188,313.5519 Q88.5938,312.9738 88,312.7081 Q87.4063,312.4269 86.7813,312.4269 Q85.4375,312.4269 84.75,313.505 Q84.0625,314.5675 84.0625,316.6613 Q84.0625,318.755 84.75,319.8331 Q85.4375,320.8956 86.7813,320.8956 Q87.4063,320.8956 88,320.63 Q88.5938,320.3488 89.2188,319.7706 L89.2188,322.4894 Z " fill="#000000"/><a href="https://bo4e.github.io/BO4E-python/latest/api/bo4e.com.html#bo4e.com.angebotsteil.Angebotsteil" target="_top" title="https://bo4e.github.io/BO4E-python/latest/api/bo4e.com.html#bo4e.com.angebotsteil.Angebotsteil" xlink:actuate="onRequest" xlink:href="https://bo4e.github.io/BO4E-python/latest/api/bo4e.com.html#bo4e.com.angebotsteil.Angebotsteil" xlink:show="new" xlink:title="https://bo4e.github.io/BO4E-python/latest/api/bo4e.com.html#bo4e.com.angebotsteil.Angebotsteil" xlink:type="simple"><text fill="#0000FF" font-family="sans-serif" font-size="14" lengthAdjust="spacing" text-decoration="underline" textLength="87" x="118.25" y="315.8751">Angebotsteil</text></a><text fill="#000000" font-family="sans-serif" font-size="10" lengthAdjust="spacing" textLength="110" x="106.75" y="328.4591">bo4e.com.angebotsteil</text><line style="stroke:#181818;stroke-width:0.5;" x1="8" x2="283" y1="335.8175" y2="335.8175"/><text fill="#000000" font-family="sans-serif" font-size="14" lengthAdjust="spacing" textLength="265" x="13" y="352.8126">anfrageSubreferenz : str [0..1] = None</text></g><!--link Angebotsteil to COM--><g id="link_Angebotsteil_COM"><path codeLine="18" d="M284.37,338.48 C381.59,345.16 488.3524,352.5058 557.1724,357.2358 " fill="none" id="Angebotsteil-to-COM" style="stroke:#181818;stroke-width:1.0;"/><polygon fill="none" points="575.13,358.47,557.5838,351.2499,556.761,363.2216,575.13,358.47" style="stroke:#181818;stroke-width:1.0;"/></g><!--link Angebotsteil to Angebotsposition--><g id="link_Angebotsteil_Angebotsposition"><path codeLine="19" d="M239.41,297.48 C263.54,289.88 289.61,282.18 314,276 C391.52,256.37 469.4484,241.7531 532.8284,231.0231 " fill="none" id="Angebotsteil-to-Angebotsposition" style="stroke:#181818;stroke-width:1.0;"/><polygon fill="#181818" points="544.66,229.02,538.0765,226.0776,532.8284,231.0231,539.4119,233.9654,544.66,229.02" style="stroke:#181818;stroke-width:1.0;"/><text fill="#000000" font-family="sans-serif" font-size="13" lengthAdjust="spacing" textLength="66" x="368.5" y="236.0669">positionen</text><text fill="#000000" font-family="sans-serif" font-size="13" lengthAdjust="spacing" textLength="23" x="514.1423" y="242.7275">0..*</text></g><!--link Angebotsteil to Marktlokation--><g id="link_Angebotsteil_Marktlokation"><path codeLine="20" d="M186.34,297.61 C219.2,272.8 267.76,238.54 314,215 C393.99,174.28 480.8205,145.0794 545.5705,125.7694 " fill="none" id="Angebotsteil-to-Marktlokation" style="stroke:#181818;stroke-width:1.0;"/><polygon fill="#181818" points="557.07,122.34,550.1771,120.2215,545.5705,125.7694,552.4634,127.8879,557.07,122.34" style="stroke:#181818;stroke-width:1.0;"/><text fill="#000000" font-family="sans-serif" font-size="13" lengthAdjust="spacing" textLength="152" x="325.5" y="140.0669">lieferstellenangebotsteil</text><text fill="#000000" font-family="sans-serif" font-size="13" lengthAdjust="spacing" textLength="23" x="526.5171" y="136.8874">0..*</text></g><!--link Angebotsteil to Menge--><g id="link_Angebotsteil_Menge"><path codeLine="21" d="M284.37,317.51 C378.69,309.65 486.9115,300.637 556.8415,294.807 " fill="none" id="Angebotsteil-to-Menge" style="stroke:#181818;stroke-width:1.0;"/><polygon fill="#181818" points="568.8,293.81,562.4884,290.3223,556.8415,294.807,563.1531,298.2947,568.8,293.81" style="stroke:#181818;stroke-width:1.0;"/><text fill="#000000" font-family="sans-serif" font-size="13" lengthAdjust="spacing" textLength="173" x="315" y="297.0669">gesamtmengeangebotsteil</text><text fill="#000000" font-family="sans-serif" font-size="13" lengthAdjust="spacing" textLength="24" x="537.0672" y="307.2307">0..1</text></g><!--link Angebotsteil to Betrag--><g id="link_Angebotsteil_Betrag"><path codeLine="22" d="M185.84,360.44 C218.42,384.98 266.84,418.14 314,438 C399.18,473.88 493.6308,491.0531 557.7208,499.8231 " fill="none" id="Angebotsteil-to-Betrag" style="stroke:#181818;stroke-width:1.0;"/><polygon fill="#181818" points="569.61,501.45,564.2077,496.6735,557.7208,499.8231,563.1231,504.5996,569.61,501.45" style="stroke:#181818;stroke-width:1.0;"/><text fill="#000000" font-family="sans-serif" font-size="13" lengthAdjust="spacing" textLength="171" x="316" y="434.0669">gesamtkostenangebotsteil</text><text fill="#000000" font-family="sans-serif" font-size="13" lengthAdjust="spacing" textLength="24" x="537.9658" y="513.6282">0..1</text></g><!--link Angebotsteil to Zeitraum--><g id="link_Angebotsteil_Zeitraum"><path codeLine="23" d="M247.91,360.51 C269.61,366.73 292.48,372.9 314,378 C400,398.36 488.9273,413.6956 552.2873,423.7156 " fill="none" id="Angebotsteil-to-Zeitraum" style="stroke:#181818;stroke-width:1.0;"/><polygon fill="#181818" points="564.14,425.59,558.8385,420.7019,552.2873,423.7156,557.5888,428.6037,564.14,425.59" style="stroke:#181818;stroke-width:1.0;"/><text fill="#000000" font-family="sans-serif" font-size="13" lengthAdjust="spacing" textLength="88" x="357.5" y="374.0669">lieferzeitraum</text><text fill="#000000" font-family="sans-serif" font-size="13" lengthAdjust="spacing" textLength="24" x="532.3685" y="437.4669">0..1</text></g><!--SRC=[hLHDJ-Cm43tZNp5gRqXrMWa1YXQabkLOE72ZvE2qqyIgFwBOrMhBxd_7SUAIbB28RGzE_9pdcUVdoGXSMx0QIfxb5bQynANbMX6o5CmO62mMkRM5YQCerHT8CsxpRKgvZcQF5_UZuhVDjOe4isXin0fUivPQqjnACTmZfZ9CjJKMkQ3J5e0sI98NzSFm7SQJyMtltW4mqza2h-ICgNN9CdpQfYMkiKIrWnYCBM4nfdIIm0qyQ8NaBo6AIJG5M-9_7YpL_bpGW2JnUXe4mzdbpwlfTINf6FUQ9CC092itLkWDgow6pji8EkYZVOUxlTpE7kVAiQQ4suQ0shOu2CFxyVJwykvONpwlga8RxisP7Yp0uSA_AoomEbKM5ayjNg9BGEVL4_opNvkdrVTMpKwjeXftZtDmep-_6pwx8vmwzmwvBTbMqkTc0c7IBoNmlPv0FRMe55tOZCxy2-fNlvoQwSNKjAh3T9lRQFJdTlyVL3uVV7U4SnYuBdK-UATzAE8OmXJLLm7S7z_j4348NdL5nnS2LRkPVXPhqX9JrsSC6HechI_6xuPeh0mnDjfnlwrZNoBXFA4O2Cdv2a6YJDqXYSdrB-Z6MtCKA_C6]--></g></svg>