<svg xmlns="http://www.w3.org/2000/svg" xmlns:xlink="http://www.w3.org/1999/xlink" contentStyleType="text/css" data-diagram-type="CLASS" height="574px" preserveAspectRatio="none" style="width:1128px;height:574px;background:#FFFFFF;" version="1.1" viewBox="0 0 1128 574" width="1128px" zoomAndPan="magnify"><defs/><g><!--cluster bo4e--><g class="cluster" data-entity="bo4e" data-source-line="9" data-uid="ent0005" id="cluster_bo4e"><path d="M872.66,6 L912.536,6 A3.75,3.75 0 0 1 915.036,8.5 L922.036,28.2969 L1118.53,28.2969 A2.5,2.5 0 0 1 1121.03,30.7969 L1121.03,564.5 A2.5,2.5 0 0 1 1118.53,567 L872.66,567 A2.5,2.5 0 0 1 870.16,564.5 L870.16,8.5 A2.5,2.5 0 0 1 872.66,6" fill="none" style="stroke:#000000;stroke-width:1.5;"/><line style="stroke:#000000;stroke-width:1.5;" x1="870.16" x2="922.036" y1="28.2969" y2="28.2969"/><text fill="#000000" font-family="sans-serif" font-size="14" font-weight="bold" lengthAdjust="spacing" textLength="38.876" x="874.16" y="20.9951">bo4e</text></g><!--cluster bo--><g class="cluster" data-entity="bo" data-source-line="8" data-uid="ent0003" id="cluster_bo"><path d="M909.36,49 L974.194,49 A3.75,3.75 0 0 1 976.694,51.5 L983.694,71.2969 L1081.83,71.2969 A2.5,2.5 0 0 1 1084.33,73.7969 L1084.33,135.5 A2.5,2.5 0 0 1 1081.83,138 L909.36,138 A2.5,2.5 0 0 1 906.86,135.5 L906.86,51.5 A2.5,2.5 0 0 1 909.36,49" fill="#B6D7A8" style="stroke:#000000;stroke-width:1.5;"/><line style="stroke:#000000;stroke-width:1.5;" x1="906.86" x2="983.694" y1="71.2969" y2="71.2969"/><a href="file:////home/runner/work/BO4E-python/BO4E-python/docs/../.tox/docs/tmp/html/api/bo4e.bo.html" target="_top" title="file:////home/runner/work/BO4E-python/BO4E-python/docs/../.tox/docs/tmp/html/api/bo4e.bo.html" xlink:actuate="onRequest" xlink:href="file:////home/runner/work/BO4E-python/BO4E-python/docs/../.tox/docs/tmp/html/api/bo4e.bo.html" xlink:show="new" xlink:title="file:////home/runner/work/BO4E-python/BO4E-python/docs/../.tox/docs/tmp/html/api/bo4e.bo.html" xlink:type="simple"><text fill="#0000FF" font-family="sans-serif" font-size="14" font-weight="bold" lengthAdjust="spacing" text-decoration="underline" textLength="63.834" x="910.86" y="63.9951">bo4e.bo</text></a></g><!--cluster com--><g class="cluster" data-entity="com" data-source-line="11" data-uid="ent0006" id="cluster_com"><path d="M896.66,162 L974.3592,162 A3.75,3.75 0 0 1 976.8592,164.5 L983.8592,184.2969 L1094.53,184.2969 A2.5,2.5 0 0 1 1097.03,186.7969 L1097.03,540.5 A2.5,2.5 0 0 1 1094.53,543 L896.66,543 A2.5,2.5 0 0 1 894.16,540.5 L894.16,164.5 A2.5,2.5 0 0 1 896.66,162" fill="#E0A86C" style="stroke:#000000;stroke-width:1.5;"/><line style="stroke:#000000;stroke-width:1.5;" x1="894.16" x2="983.8592" y1="184.2969" y2="184.2969"/><a href="file:////home/runner/work/BO4E-python/BO4E-python/docs/../.tox/docs/tmp/html/api/bo4e.com.html" target="_top" title="file:////home/runner/work/BO4E-python/BO4E-python/docs/../.tox/docs/tmp/html/api/bo4e.com.html" xlink:actuate="onRequest" xlink:href="file:////home/runner/work/BO4E-python/BO4E-python/docs/../.tox/docs/tmp/html/api/bo4e.com.html" xlink:show="new" xlink:title="file:////home/runner/work/BO4E-python/BO4E-python/docs/../.tox/docs/tmp/html/api/bo4e.com.html" xlink:type="simple"><text fill="#0000FF" font-family="sans-serif" font-size="14" font-weight="bold" lengthAdjust="spacing" text-decoration="underline" textLength="76.6992" x="898.16" y="176.9951">bo4e.com</text></a></g><!--class Marktlokation--><g class="entity" data-entity="Marktlokation" data-source-line="9" data-uid="ent0004" id="entity_Marktlokation"><rect fill="#F1F1F1" height="37.9375" rx="2.5" ry="2.5" style="stroke:#181818;stroke-width:0.5;" width="145.4668" x="922.86" y="84.03"/><ellipse cx="937.86" cy="102.9987" fill="#ADD1B2" rx="11" ry="11" style="stroke:#181818;stroke-width:1;"/><path d="M940.8288,108.6394 Q940.2506,108.9362 939.61,109.0769 Q938.9694,109.2331 938.2663,109.2331 Q935.7663,109.2331 934.4381,107.5925 Q933.1256,105.9362 933.1256,102.8112 Q933.1256,99.6862 934.4381,98.03 Q935.7663,96.3737 938.2663,96.3737 Q938.9694,96.3737 939.61,96.53 Q940.2663,96.6862 940.8288,96.9831 L940.8288,99.7019 Q940.2038,99.1237 939.61,98.8581 Q939.0163,98.5769 938.3913,98.5769 Q937.0475,98.5769 936.36,99.655 Q935.6725,100.7175 935.6725,102.8112 Q935.6725,104.905 936.36,105.9831 Q937.0475,107.0456 938.3913,107.0456 Q939.0163,107.0456 939.61,106.78 Q940.2038,106.4987 940.8288,105.9206 L940.8288,108.6394 Z " fill="#000000"/><a href="file:////home/runner/work/BO4E-python/BO4E-python/docs/../.tox/docs/tmp/html/api/bo4e.bo.html#bo4e.bo.marktlokation.Marktlokation" target="_top" title="file:////home/runner/work/BO4E-python/BO4E-python/docs/../.tox/docs/tmp/html/api/bo4e.bo.html#bo4e.bo.marktlokation.Marktlokation" xlink:actuate="onRequest" xlink:href="file:////home/runner/work/BO4E-python/BO4E-python/docs/../.tox/docs/tmp/html/api/bo4e.bo.html#bo4e.bo.marktlokation.Marktlokation" xlink:show="new" xlink:title="file:////home/runner/work/BO4E-python/BO4E-python/docs/../.tox/docs/tmp/html/api/bo4e.bo.html#bo4e.bo.marktlokation.Marktlokation" xlink:type="simple"><text fill="#0000FF" font-family="sans-serif" font-size="14" lengthAdjust="spacing" text-decoration="underline" textLength="95.9697" x="960.6085" y="102.0251">Marktlokation</text></a><text fill="#000000" font-family="sans-serif" font-size="10" lengthAdjust="spacing" textLength="113.4668" x="951.86" y="114.6091">bo4e.bo.marktlokation</text></g><!--class Menge--><g class="entity" data-entity="Menge" data-source-line="12" data-uid="ent0007" id="entity_Menge"><rect fill="#F1F1F1" height="37.9375" rx="2.5" ry="2.5" style="stroke:#181818;stroke-width:0.5;" width="119.4268" x="935.88" y="197.03"/><ellipse cx="950.88" cy="215.9987" fill="#ADD1B2" rx="11" ry="11" style="stroke:#181818;stroke-width:1;"/><path d="M953.8488,221.6394 Q953.2706,221.9362 952.63,222.0769 Q951.9894,222.2331 951.2863,222.2331 Q948.7863,222.2331 947.4581,220.5925 Q946.1456,218.9362 946.1456,215.8112 Q946.1456,212.6862 947.4581,211.03 Q948.7863,209.3737 951.2863,209.3737 Q951.9894,209.3737 952.63,209.53 Q953.2863,209.6862 953.8488,209.9831 L953.8488,212.7019 Q953.2238,212.1237 952.63,211.8581 Q952.0363,211.5769 951.4113,211.5769 Q950.0675,211.5769 949.38,212.655 Q948.6925,213.7175 948.6925,215.8112 Q948.6925,217.905 949.38,218.9831 Q950.0675,220.0456 951.4113,220.0456 Q952.0363,220.0456 952.63,219.78 Q953.2238,219.4987 953.8488,218.9206 L953.8488,221.6394 Z " fill="#000000"/><a href="file:////home/runner/work/BO4E-python/BO4E-python/docs/../.tox/docs/tmp/html/api/bo4e.com.html#bo4e.com.menge.Menge" target="_top" title="file:////home/runner/work/BO4E-python/BO4E-python/docs/../.tox/docs/tmp/html/api/bo4e.com.html#bo4e.com.menge.Menge" xlink:actuate="onRequest" xlink:href="file:////home/runner/work/BO4E-python/BO4E-python/docs/../.tox/docs/tmp/html/api/bo4e.com.html#bo4e.com.menge.Menge" xlink:show="new" xlink:title="file:////home/runner/work/BO4E-python/BO4E-python/docs/../.tox/docs/tmp/html/api/bo4e.com.html#bo4e.com.menge.Menge" xlink:type="simple"><text fill="#0000FF" font-family="sans-serif" font-size="14" lengthAdjust="spacing" text-decoration="underline" textLength="47.0654" x="985.0607" y="215.0251">Menge</text></a><text fill="#000000" font-family="sans-serif" font-size="10" lengthAdjust="spacing" textLength="87.4268" x="964.88" y="227.6091">bo4e.com.menge</text></g><!--class Zeitraum--><g class="entity" data-entity="Zeitraum" data-source-line="13" data-uid="ent0008" id="entity_Zeitraum"><rect fill="#F1F1F1" height="37.9375" rx="2.5" ry="2.5" style="stroke:#181818;stroke-width:0.5;" width="129.1143" x="931.04" y="270.03"/><ellipse cx="946.04" cy="288.9988" fill="#ADD1B2" rx="11" ry="11" style="stroke:#181818;stroke-width:1;"/><path d="M949.0088,294.6394 Q948.4306,294.9363 947.79,295.0769 Q947.1494,295.2331 946.4463,295.2331 Q943.9463,295.2331 942.6181,293.5925 Q941.3056,291.9363 941.3056,288.8113 Q941.3056,285.6863 942.6181,284.03 Q943.9463,282.3738 946.4463,282.3738 Q947.1494,282.3738 947.79,282.53 Q948.4463,282.6863 949.0088,282.9831 L949.0088,285.7019 Q948.3838,285.1238 947.79,284.8581 Q947.1963,284.5769 946.5713,284.5769 Q945.2275,284.5769 944.54,285.655 Q943.8525,286.7175 943.8525,288.8113 Q943.8525,290.905 944.54,291.9831 Q945.2275,293.0456 946.5713,293.0456 Q947.1963,293.0456 947.79,292.78 Q948.3838,292.4988 949.0088,291.9206 L949.0088,294.6394 Z " fill="#000000"/><a href="file:////home/runner/work/BO4E-python/BO4E-python/docs/../.tox/docs/tmp/html/api/bo4e.com.html#bo4e.com.zeitraum.Zeitraum" target="_top" title="file:////home/runner/work/BO4E-python/BO4E-python/docs/../.tox/docs/tmp/html/api/bo4e.com.html#bo4e.com.zeitraum.Zeitraum" xlink:actuate="onRequest" xlink:href="file:////home/runner/work/BO4E-python/BO4E-python/docs/../.tox/docs/tmp/html/api/bo4e.com.html#bo4e.com.zeitraum.Zeitraum" xlink:show="new" xlink:title="file:////home/runner/work/BO4E-python/BO4E-python/docs/../.tox/docs/tmp/html/api/bo4e.com.html#bo4e.com.zeitraum.Zeitraum" xlink:type="simple"><text fill="#0000FF" font-family="sans-serif" font-size="14" lengthAdjust="spacing" text-decoration="underline" textLength="64.4287" x="976.3828" y="288.0251">Zeitraum</text></a><text fill="#000000" font-family="sans-serif" font-size="10" lengthAdjust="spacing" textLength="97.1143" x="960.04" y="300.6091">bo4e.com.zeitraum</text></g><!--class Betrag--><g class="entity" data-entity="Betrag" data-source-line="14" data-uid="ent0009" id="entity_Betrag"><rect fill="#F1F1F1" height="37.9375" rx="2.5" ry="2.5" style="stroke:#181818;stroke-width:0.5;" width="117.7031" x="936.74" y="343.03"/><ellipse cx="951.74" cy="361.9988" fill="#ADD1B2" rx="11" ry="11" style="stroke:#181818;stroke-width:1;"/><path d="M954.7088,367.6394 Q954.1306,367.9363 953.49,368.0769 Q952.8494,368.2331 952.1463,368.2331 Q949.6463,368.2331 948.3181,366.5925 Q947.0056,364.9363 947.0056,361.8113 Q947.0056,358.6863 948.3181,357.03 Q949.6463,355.3738 952.1463,355.3738 Q952.8494,355.3738 953.49,355.53 Q954.1463,355.6863 954.7088,355.9831 L954.7088,358.7019 Q954.0838,358.1238 953.49,357.8581 Q952.8963,357.5769 952.2713,357.5769 Q950.9275,357.5769 950.24,358.655 Q949.5525,359.7175 949.5525,361.8113 Q949.5525,363.905 950.24,364.9831 Q950.9275,366.0456 952.2713,366.0456 Q952.8963,366.0456 953.49,365.78 Q954.0838,365.4988 954.7088,364.9206 L954.7088,367.6394 Z " fill="#000000"/><a href="file:////home/runner/work/BO4E-python/BO4E-python/docs/../.tox/docs/tmp/html/api/bo4e.com.html#bo4e.com.betrag.Betrag" target="_top" title="file:////home/runner/work/BO4E-python/BO4E-python/docs/../.tox/docs/tmp/html/api/bo4e.com.html#bo4e.com.betrag.Betrag" xlink:actuate="onRequest" xlink:href="file:////home/runner/work/BO4E-python/BO4E-python/docs/../.tox/docs/tmp/html/api/bo4e.com.html#bo4e.com.betrag.Betrag" xlink:show="new" xlink:title="file:////home/runner/work/BO4E-python/BO4E-python/docs/../.tox/docs/tmp/html/api/bo4e.com.html#bo4e.com.betrag.Betrag" xlink:type="simple"><text fill="#0000FF" font-family="sans-serif" font-size="14" lengthAdjust="spacing" text-decoration="underline" textLength="46.9287" x="985.1272" y="361.0251">Betrag</text></a><text fill="#000000" font-family="sans-serif" font-size="10" lengthAdjust="spacing" textLength="85.7031" x="965.74" y="373.6091">bo4e.com.betrag</text></g><!--class Angebotsposition--><g class="entity" data-entity="Angebotsposition" data-source-line="15" data-uid="ent0010" id="entity_Angebotsposition"><rect fill="#F1F1F1" height="37.9375" rx="2.5" ry="2.5" style="stroke:#181818;stroke-width:0.5;" width="170.8672" x="910.16" y="416.03"/><ellipse cx="925.16" cy="434.9988" fill="#ADD1B2" rx="11" ry="11" style="stroke:#181818;stroke-width:1;"/><path d="M928.1288,440.6394 Q927.5506,440.9363 926.91,441.0769 Q926.2694,441.2331 925.5663,441.2331 Q923.0663,441.2331 921.7381,439.5925 Q920.4256,437.9363 920.4256,434.8113 Q920.4256,431.6863 921.7381,430.03 Q923.0663,428.3738 925.5663,428.3738 Q926.2694,428.3738 926.91,428.53 Q927.5663,428.6863 928.1288,428.9831 L928.1288,431.7019 Q927.5038,431.1238 926.91,430.8581 Q926.3163,430.5769 925.6913,430.5769 Q924.3475,430.5769 923.66,431.655 Q922.9725,432.7175 922.9725,434.8113 Q922.9725,436.905 923.66,437.9831 Q924.3475,439.0456 925.6913,439.0456 Q926.3163,439.0456 926.91,438.78 Q927.5038,438.4988 928.1288,437.9206 L928.1288,440.6394 Z " fill="#000000"/><a href="file:////home/runner/work/BO4E-python/BO4E-python/docs/../.tox/docs/tmp/html/api/bo4e.com.html#bo4e.com.angebotsposition.Angebotsposition" target="_top" title="file:////home/runner/work/BO4E-python/BO4E-python/docs/../.tox/docs/tmp/html/api/bo4e.com.html#bo4e.com.angebotsposition.Angebotsposition" xlink:actuate="onRequest" xlink:href="file:////home/runner/work/BO4E-python/BO4E-python/docs/../.tox/docs/tmp/html/api/bo4e.com.html#bo4e.com.angebotsposition.Angebotsposition" xlink:show="new" xlink:title="file:////home/runner/work/BO4E-python/BO4E-python/docs/../.tox/docs/tmp/html/api/bo4e.com.html#bo4e.com.angebotsposition.Angebotsposition" xlink:type="simple"><text fill="#0000FF" font-family="sans-serif" font-size="14" lengthAdjust="spacing" text-decoration="underline" textLength="121.6387" x="947.7743" y="434.0251">Angebotsposition</text></a><text fill="#000000" font-family="sans-serif" font-size="10" lengthAdjust="spacing" textLength="138.8672" x="939.16" y="446.6091">bo4e.com.angebotsposition</text></g><!--class COM--><g class="entity" data-entity="COM" data-source-line="16" data-uid="ent0011" id="entity_COM"><rect fill="#F1F1F1" height="37.9375" rx="2.5" ry="2.5" style="stroke:#181818;stroke-width:0.5;" width="106.0527" x="942.57" y="489.03"/><ellipse cx="957.57" cy="507.9988" fill="#ADD1B2" rx="11" ry="11" style="stroke:#181818;stroke-width:1;"/><path d="M960.5388,513.6394 Q959.9606,513.9363 959.32,514.0769 Q958.6794,514.2331 957.9763,514.2331 Q955.4763,514.2331 954.1481,512.5925 Q952.8356,510.9363 952.8356,507.8113 Q952.8356,504.6863 954.1481,503.03 Q955.4763,501.3738 957.9763,501.3738 Q958.6794,501.3738 959.32,501.53 Q959.9763,501.6863 960.5388,501.9831 L960.5388,504.7019 Q959.9138,504.1238 959.32,503.8581 Q958.7263,503.5769 958.1013,503.5769 Q956.7575,503.5769 956.07,504.655 Q955.3825,505.7175 955.3825,507.8113 Q955.3825,509.905 956.07,510.9831 Q956.7575,512.0456 958.1013,512.0456 Q958.7263,512.0456 959.32,511.78 Q959.9138,511.4988 960.5388,510.9206 L960.5388,513.6394 Z " fill="#000000"/><a href="file:////home/runner/work/BO4E-python/BO4E-python/docs/../.tox/docs/tmp/html/api/bo4e.com.html#bo4e.com.com.COM" target="_top" title="file:////home/runner/work/BO4E-python/BO4E-python/docs/../.tox/docs/tmp/html/api/bo4e.com.html#bo4e.com.com.COM" xlink:actuate="onRequest" xlink:href="file:////home/runner/work/BO4E-python/BO4E-python/docs/../.tox/docs/tmp/html/api/bo4e.com.html#bo4e.com.com.COM" xlink:show="new" xlink:title="file:////home/runner/work/BO4E-python/BO4E-python/docs/../.tox/docs/tmp/html/api/bo4e.com.html#bo4e.com.com.COM" xlink:type="simple"><text fill="#0000FF" font-family="sans-serif" font-size="14" lengthAdjust="spacing" text-decoration="underline" textLength="32.874" x="992.1594" y="507.0251">COM</text></a><text fill="#000000" font-family="sans-serif" font-size="10" lengthAdjust="spacing" textLength="74.0527" x="971.57" y="519.6091">bo4e.com.com</text></g><!--class Angebotsteil--><g class="entity" data-entity="Angebotsteil" data-source-line="3" data-uid="ent0002" id="entity_Angebotsteil"><rect fill="#F1F1F1" height="78.5313" rx="2.5" ry="2.5" style="stroke:#181818;stroke-width:0.5;" width="641.1592" x="7" y="290.73"/><ellipse cx="265.8857" cy="309.6988" fill="#ADD1B2" rx="11" ry="11" style="stroke:#181818;stroke-width:1;"/><path d="M268.8545,315.3394 Q268.2764,315.6363 267.6357,315.7769 Q266.9951,315.9331 266.292,315.9331 Q263.792,315.9331 262.4639,314.2925 Q261.1514,312.6363 261.1514,309.5113 Q261.1514,306.3863 262.4639,304.73 Q263.792,303.0738 266.292,303.0738 Q266.9951,303.0738 267.6357,303.23 Q268.292,303.3863 268.8545,303.6831 L268.8545,306.4019 Q268.2295,305.8238 267.6357,305.5581 Q267.042,305.2769 266.417,305.2769 Q265.0732,305.2769 264.3857,306.355 Q263.6982,307.4175 263.6982,309.5113 Q263.6982,311.605 264.3857,312.6831 Q265.0732,313.7456 266.417,313.7456 Q267.042,313.7456 267.6357,313.48 Q268.2295,313.1988 268.8545,312.6206 L268.8545,315.3394 Z " fill="#000000"/><a href="file:////home/runner/work/BO4E-python/BO4E-python/docs/../.tox/docs/tmp/html/api/bo4e.com.html#bo4e.com.angebotsteil.Angebotsteil" target="_top" title="file:////home/runner/work/BO4E-python/BO4E-python/docs/../.tox/docs/tmp/html/api/bo4e.com.html#bo4e.com.angebotsteil.Angebotsteil" xlink:actuate="onRequest" xlink:href="file:////home/runner/work/BO4E-python/BO4E-python/docs/../.tox/docs/tmp/html/api/bo4e.com.html#bo4e.com.angebotsteil.Angebotsteil" xlink:show="new" xlink:title="file:////home/runner/work/BO4E-python/BO4E-python/docs/../.tox/docs/tmp/html/api/bo4e.com.html#bo4e.com.angebotsteil.Angebotsteil" xlink:type="simple"><text fill="#0000FF" font-family="sans-serif" font-size="14" lengthAdjust="spacing" text-decoration="underline" textLength="88.0674" x="299.7959" y="308.7251">Angebotsteil</text></a><text fill="#000000" font-family="sans-serif" font-size="10" lengthAdjust="spacing" textLength="114.8877" x="286.3857" y="321.3091">bo4e.com.angebotsteil</text><line style="stroke:#181818;stroke-width:0.5;" x1="8" x2="647.1592" y1="328.6675" y2="328.6675"/><text fill="#000000" font-family="sans-serif" font-size="14" lengthAdjust="spacing" textLength="629.1592" x="13" y="345.6626">_typ : Literal[&lt;ComTyp.ANGEBOTSTEIL: 'ANGEBOTSTEIL'&gt;] [1] = ComTyp.ANGEBOTSTEIL</text><text fill="#000000" font-family="sans-serif" font-size="14" lengthAdjust="spacing" textLength="270.7646" x="13" y="361.9595">anfrageSubreferenz : str [0..1] = None</text></g><!--link Angebotsteil to COM--><g class="link" data-entity-1="Angebotsteil" data-entity-2="COM" data-source-line="19" data-uid="lnk12" id="link_Angebotsteil_COM"><path codeLine="19" d="M477.22,369.73 C624.82,409.17 825.5904,462.8322 924.7404,489.3322" fill="none" id="Angebotsteil-to-COM" style="stroke:#181818;stroke-width:1;"/><polygon fill="none" points="942.13,493.98,926.2896,483.5357,923.1911,495.1288,942.13,493.98" style="stroke:#181818;stroke-width:1;"/></g><!--link Angebotsteil to Angebotsposition--><g class="link" data-entity-1="Angebotsteil" data-entity-2="Angebotsposition" data-source-line="20" data-uid="lnk13" id="link_Angebotsteil_Angebotsposition"><path codeLine="20" d="M580.37,369.7 C696.59,388.02 815.0063,406.6921 897.8863,419.7521" fill="none" id="Angebotsteil-to-Angebotsposition" style="stroke:#181818;stroke-width:1;"/><polygon fill="#181818" points="909.74,421.62,904.4358,416.7348,897.8863,419.7521,903.1905,424.6373,909.74,421.62" style="stroke:#181818;stroke-width:1;"/><text fill="#000000" font-family="sans-serif" font-size="13" lengthAdjust="spacing" textLength="67.7295" x="732.66" y="382.0669">positionen</text><text fill="#000000" font-family="sans-serif" font-size="13" lengthAdjust="spacing" textLength="23.0356" x="878.9836" y="433.2237">0..*</text></g><!--link Angebotsteil to Marktlokation--><g class="link" data-entity-1="Angebotsteil" data-entity-2="Marktlokation" data-source-line="21" data-uid="lnk14" id="link_Angebotsteil_Marktlokation"><path codeLine="21" d="M444.97,290.33 C589.09,241.21 817.4617,163.3716 926.3317,126.2616" fill="none" id="Angebotsteil-to-Marktlokation" style="stroke:#181818;stroke-width:1;"/><polygon fill="#181818" points="937.69,122.39,930.7203,120.5397,926.3317,126.2616,933.3014,128.1119,937.69,122.39" style="stroke:#181818;stroke-width:1;"/><text fill="#000000" font-family="sans-serif" font-size="13" lengthAdjust="spacing" textLength="157.3203" x="687.66" y="149.0669">lieferstellenangebotsteil</text><text fill="#000000" font-family="sans-serif" font-size="13" lengthAdjust="spacing" textLength="23.0356" x="895.1753" y="142.0387">0..*</text></g><!--link Angebotsteil to Menge--><g class="link" data-entity-1="Angebotsteil" data-entity-2="Menge" data-source-line="22" data-uid="lnk15" id="link_Angebotsteil_Menge"><path codeLine="22" d="M560.58,290.29 C694.23,267.41 840.0219,242.4537 923.6619,228.1437" fill="none" id="Angebotsteil-to-Menge" style="stroke:#181818;stroke-width:1;"/><polygon fill="#181818" points="935.49,226.12,928.9014,223.1891,923.6619,228.1437,930.2505,231.0746,935.49,226.12" style="stroke:#181818;stroke-width:1;"/><text fill="#000000" font-family="sans-serif" font-size="13" lengthAdjust="spacing" textLength="174.751" x="679.16" y="237.0669">gesamtmengeangebotsteil</text><text fill="#000000" font-family="sans-serif" font-size="13" lengthAdjust="spacing" textLength="24.8066" x="903.1997" y="240.232">0..1</text></g><!--link Angebotsteil to Betrag--><g class="link" data-entity-1="Angebotsteil" data-entity-2="Betrag" data-source-line="23" data-uid="lnk16" id="link_Angebotsteil_Betrag"><path codeLine="23" d="M648.6,351.53 C658.57,352.05 668.44,352.54 678.16,353 C768.19,357.24 860.7323,359.5039 924.2523,360.7539" fill="none" id="Angebotsteil-to-Betrag" style="stroke:#181818;stroke-width:1;"/><polygon fill="#181818" points="936.25,360.99,930.3299,356.8727,924.2523,360.7539,930.1725,364.8712,936.25,360.99" style="stroke:#181818;stroke-width:1;"/><text fill="#000000" font-family="sans-serif" font-size="13" lengthAdjust="spacing" textLength="173.1895" x="679.66" y="349.0669">gesamtkostenangebotsteil</text><text fill="#000000" font-family="sans-serif" font-size="13" lengthAdjust="spacing" textLength="24.8066" x="904.0478" y="373.8151">0..1</text></g><!--link Angebotsteil to Zeitraum--><g class="link" data-entity-1="Angebotsteil" data-entity-2="Zeitraum" data-source-line="24" data-uid="lnk17" id="link_Angebotsteil_Zeitraum"><path codeLine="24" d="M648.42,310.31 C755.49,303.72 852.3927,297.7584 918.7327,293.6684" fill="none" id="Angebotsteil-to-Zeitraum" style="stroke:#181818;stroke-width:1;"/><polygon fill="#181818" points="930.71,292.93,924.4752,289.3068,918.7327,293.6684,924.9675,297.2916,930.71,292.93" style="stroke:#181818;stroke-width:1;"/><text fill="#000000" font-family="sans-serif" font-size="13" lengthAdjust="spacing" textLength="90.8857" x="721.16" y="294.0669">lieferzeitraum</text><text fill="#000000" font-family="sans-serif" font-size="13" lengthAdjust="spacing" textLength="24.8066" x="898.3446" y="306.2545">0..1</text></g><!--SRC=[nLLHRzem47vkViK97YfLmW6fwggeGmA6facbVIXFOz7am44iOZkoZJhO-j_dE9Wba6tgGqia9_Svtrq-Ntpd39S6Z0J5Lgc11LCuDqoA89XdL6jepMPBbc4KsYkL74Er4G9L-2pLEXm-Neyx-TQaKjJiXPpha92G6FcZ18RdOMfu5jASXOcyHZANd1GpxGEYOeM9DDeWoyYW0g0AulYRkDDiXr6lss_qRG7LDHVu6LnyDziS8hXd1XNDPdSZoQVRd0mUFe-7ZzEdwVZBVGINLNZPZs7MY-4ZD7232ogMYgxmQPCeNA92iRFXjL4mwnBYt1wamE0b20Jbg7CwnxTBPY9TBc4FujZbO8-WFRpvz65mMwJXZN_gNaVR0qxLscHoJOijHIPL13Lq-bUFlTsAQZusj- -GMhzFmQDgSYs4zhWxkBqPlKDsJqk6eztcP5BSmTsRgyFHoWGMrXc4xf0PHJUSVDqRu8rcnPxlH7lg6NGdQB-y8aFtWFBHhBXaEhqbxGngVHVCfMQkuWP74t0yyUzkwbcrZkedpx2-OemU9s17it0xd5PBA3fl_HJfT7xr3sLRn3bwRmbNqBBT-whrXtQImGYyYU9_0MmFg_Uy239Md1QMdsKeggVMtsBrAcBAGezWXPfouwhwjI7sEzd7M4lBVRMEGn7xzVXo3OAKBH0uyiGkCj2fV8Pwl2N3RA5_0m00]--></g></svg>