<?xml version="1.0" encoding="us-ascii" standalone="no"?><svg xmlns="http://www.w3.org/2000/svg" xmlns:xlink="http://www.w3.org/1999/xlink" contentStyleType="text/css" height="866px" preserveAspectRatio="none" style="width:1326px;height:866px;background:#FFFFFF;" version="1.1" viewBox="0 0 1326 866" width="1326px" zoomAndPan="magnify"><defs/><g><!--cluster bo4e--><g id="cluster_bo4e"><path d="M1062.5,6 L1103.5,6 A3.75,3.75 0 0 1 1106,8.5 L1113,28.2969 L1316.5,28.2969 A2.5,2.5 0 0 1 1319,30.7969 L1319,856.5 A2.5,2.5 0 0 1 1316.5,859 L1062.5,859 A2.5,2.5 0 0 1 1060,856.5 L1060,8.5 A2.5,2.5 0 0 1 1062.5,6 " fill="none" style="stroke:#000000;stroke-width:1.5;"/><line style="stroke:#000000;stroke-width:1.5;" x1="1060" x2="1113" y1="28.2969" y2="28.2969"/><text fill="#000000" font-family="sans-serif" font-size="14" font-weight="bold" lengthAdjust="spacing" textLength="40" x="1064" y="20.9951">bo4e</text></g><!--cluster com--><g id="cluster_com"><path d="M1086.5,49 L1165.5,49 A3.75,3.75 0 0 1 1168,51.5 L1175,71.2969 L1292.5,71.2969 A2.5,2.5 0 0 1 1295,73.7969 L1295,573.5 A2.5,2.5 0 0 1 1292.5,576 L1086.5,576 A2.5,2.5 0 0 1 1084,573.5 L1084,51.5 A2.5,2.5 0 0 1 1086.5,49 " fill="#E0A86C" style="stroke:#000000;stroke-width:1.5;"/><line style="stroke:#000000;stroke-width:1.5;" x1="1084" x2="1175" y1="71.2969" y2="71.2969"/><a href="https://bo4e.github.io/BO4E-python/latest/api/bo4e.com.html" target="_top" title="https://bo4e.github.io/BO4E-python/latest/api/bo4e.com.html" xlink:actuate="onRequest" xlink:href="https://bo4e.github.io/BO4E-python/latest/api/bo4e.com.html" xlink:show="new" xlink:title="https://bo4e.github.io/BO4E-python/latest/api/bo4e.com.html" xlink:type="simple"><text fill="#0000FF" font-family="sans-serif" font-size="14" font-weight="bold" lengthAdjust="spacing" text-decoration="underline" textLength="78" x="1088" y="63.9951">bo4e.com</text></a></g><!--cluster enum--><g id="cluster_enum"><path d="M1088.5,600 L1178.5,600 A3.75,3.75 0 0 1 1181,602.5 L1188,622.2969 L1290.5,622.2969 A2.5,2.5 0 0 1 1293,624.7969 L1293,832.5 A2.5,2.5 0 0 1 1290.5,835 L1088.5,835 A2.5,2.5 0 0 1 1086,832.5 L1086,602.5 A2.5,2.5 0 0 1 1088.5,600 " fill="#D1C358" style="stroke:#000000;stroke-width:1.5;"/><line style="stroke:#000000;stroke-width:1.5;" x1="1086" x2="1188" y1="622.2969" y2="622.2969"/><a href="https://bo4e.github.io/BO4E-python/latest/api/bo4e.enum.html" target="_top" title="https://bo4e.github.io/BO4E-python/latest/api/bo4e.enum.html" xlink:actuate="onRequest" xlink:href="https://bo4e.github.io/BO4E-python/latest/api/bo4e.enum.html" xlink:show="new" xlink:title="https://bo4e.github.io/BO4E-python/latest/api/bo4e.enum.html" xlink:type="simple"><text fill="#0000FF" font-family="sans-serif" font-size="14" font-weight="bold" lengthAdjust="spacing" text-decoration="underline" textLength="89" x="1090" y="614.9951">bo4e.enum</text></a></g><!--class Zeitraum--><g id="elem_Zeitraum"><rect codeLine="14" fill="#F1F1F1" height="37.9375" id="Zeitraum" rx="2.5" ry="2.5" style="stroke:#181818;stroke-width:0.5;" width="126" x="1126.5" y="84.03"/><ellipse cx="1141.5" cy="102.9987" fill="#ADD1B2" rx="11" ry="11" style="stroke:#181818;stroke-width:1.0;"/><path d="M1144.4688,108.6394 Q1143.8906,108.9362 1143.25,109.0769 Q1142.6094,109.2331 1141.9063,109.2331 Q1139.4063,109.2331 1138.0781,107.5925 Q1136.7656,105.9362 1136.7656,102.8112 Q1136.7656,99.6862 1138.0781,98.03 Q1139.4063,96.3737 1141.9063,96.3737 Q1142.6094,96.3737 1143.25,96.53 Q1143.9063,96.6862 1144.4688,96.9831 L1144.4688,99.7019 Q1143.8438,99.1237 1143.25,98.8581 Q1142.6563,98.5769 1142.0313,98.5769 Q1140.6875,98.5769 1140,99.655 Q1139.3125,100.7175 1139.3125,102.8112 Q1139.3125,104.905 1140,105.9831 Q1140.6875,107.0456 1142.0313,107.0456 Q1142.6563,107.0456 1143.25,106.78 Q1143.8438,106.4987 1144.4688,105.9206 L1144.4688,108.6394 Z " fill="#000000"/><a href="https://bo4e.github.io/BO4E-python/latest/api/bo4e.com.html#bo4e.com.zeitraum.Zeitraum" target="_top" title="https://bo4e.github.io/BO4E-python/latest/api/bo4e.com.html#bo4e.com.zeitraum.Zeitraum" xlink:actuate="onRequest" xlink:href="https://bo4e.github.io/BO4E-python/latest/api/bo4e.com.html#bo4e.com.zeitraum.Zeitraum" xlink:show="new" xlink:title="https://bo4e.github.io/BO4E-python/latest/api/bo4e.com.html#bo4e.com.zeitraum.Zeitraum" xlink:type="simple"><text fill="#0000FF" font-family="sans-serif" font-size="14" lengthAdjust="spacing" text-decoration="underline" textLength="62" x="1171.5" y="102.0251">Zeitraum</text></a><text fill="#000000" font-family="sans-serif" font-size="10" lengthAdjust="spacing" textLength="94" x="1155.5" y="114.6091">bo4e.com.zeitraum</text></g><!--class Preisgarantie--><g id="elem_Preisgarantie"><rect codeLine="15" fill="#F1F1F1" height="37.9375" id="Preisgarantie" rx="2.5" ry="2.5" style="stroke:#181818;stroke-width:0.5;" width="146" x="1116.5" y="157.03"/><ellipse cx="1131.5" cy="175.9987" fill="#ADD1B2" rx="11" ry="11" style="stroke:#181818;stroke-width:1.0;"/><path d="M1134.4688,181.6394 Q1133.8906,181.9362 1133.25,182.0769 Q1132.6094,182.2331 1131.9063,182.2331 Q1129.4063,182.2331 1128.0781,180.5925 Q1126.7656,178.9362 1126.7656,175.8112 Q1126.7656,172.6862 1128.0781,171.03 Q1129.4063,169.3737 1131.9063,169.3737 Q1132.6094,169.3737 1133.25,169.53 Q1133.9063,169.6862 1134.4688,169.9831 L1134.4688,172.7019 Q1133.8438,172.1237 1133.25,171.8581 Q1132.6563,171.5769 1132.0313,171.5769 Q1130.6875,171.5769 1130,172.655 Q1129.3125,173.7175 1129.3125,175.8112 Q1129.3125,177.905 1130,178.9831 Q1130.6875,180.0456 1132.0313,180.0456 Q1132.6563,180.0456 1133.25,179.78 Q1133.8438,179.4987 1134.4688,178.9206 L1134.4688,181.6394 Z " fill="#000000"/><a href="https://bo4e.github.io/BO4E-python/latest/api/bo4e.com.html#bo4e.com.preisgarantie.Preisgarantie" target="_top" title="https://bo4e.github.io/BO4E-python/latest/api/bo4e.com.html#bo4e.com.preisgarantie.Preisgarantie" xlink:actuate="onRequest" xlink:href="https://bo4e.github.io/BO4E-python/latest/api/bo4e.com.html#bo4e.com.preisgarantie.Preisgarantie" xlink:show="new" xlink:title="https://bo4e.github.io/BO4E-python/latest/api/bo4e.com.html#bo4e.com.preisgarantie.Preisgarantie" xlink:type="simple"><text fill="#0000FF" font-family="sans-serif" font-size="14" lengthAdjust="spacing" text-decoration="underline" textLength="90" x="1157.5" y="175.0251">Preisgarantie</text></a><text fill="#000000" font-family="sans-serif" font-size="10" lengthAdjust="spacing" textLength="114" x="1145.5" y="187.6091">bo4e.com.preisgarantie</text></g><!--class Energiemix--><g id="elem_Energiemix"><rect codeLine="16" fill="#F1F1F1" height="37.9375" id="Energiemix" rx="2.5" ry="2.5" style="stroke:#181818;stroke-width:0.5;" width="137" x="1121" y="230.03"/><ellipse cx="1136" cy="248.9987" fill="#ADD1B2" rx="11" ry="11" style="stroke:#181818;stroke-width:1.0;"/><path d="M1138.9688,254.6394 Q1138.3906,254.9362 1137.75,255.0769 Q1137.1094,255.2331 1136.4063,255.2331 Q1133.9063,255.2331 1132.5781,253.5925 Q1131.2656,251.9362 1131.2656,248.8112 Q1131.2656,245.6862 1132.5781,244.03 Q1133.9063,242.3737 1136.4063,242.3737 Q1137.1094,242.3737 1137.75,242.53 Q1138.4063,242.6862 1138.9688,242.9831 L1138.9688,245.7019 Q1138.3438,245.1237 1137.75,244.8581 Q1137.1563,244.5769 1136.5313,244.5769 Q1135.1875,244.5769 1134.5,245.655 Q1133.8125,246.7175 1133.8125,248.8112 Q1133.8125,250.905 1134.5,251.9831 Q1135.1875,253.0456 1136.5313,253.0456 Q1137.1563,253.0456 1137.75,252.78 Q1138.3438,252.4987 1138.9688,251.9206 L1138.9688,254.6394 Z " fill="#000000"/><a href="https://bo4e.github.io/BO4E-python/latest/api/bo4e.com.html#bo4e.com.energiemix.Energiemix" target="_top" title="https://bo4e.github.io/BO4E-python/latest/api/bo4e.com.html#bo4e.com.energiemix.Energiemix" xlink:actuate="onRequest" xlink:href="https://bo4e.github.io/BO4E-python/latest/api/bo4e.com.html#bo4e.com.energiemix.Energiemix" xlink:show="new" xlink:title="https://bo4e.github.io/BO4E-python/latest/api/bo4e.com.html#bo4e.com.energiemix.Energiemix" xlink:type="simple"><text fill="#0000FF" font-family="sans-serif" font-size="14" lengthAdjust="spacing" text-decoration="underline" textLength="76" x="1164.5" y="248.0251">Energiemix</text></a><text fill="#000000" font-family="sans-serif" font-size="10" lengthAdjust="spacing" textLength="105" x="1150" y="260.6091">bo4e.com.energiemix</text></g><!--class AufAbschlagProOrt--><g id="elem_AufAbschlagProOrt"><rect codeLine="17" fill="#F1F1F1" height="37.9375" id="AufAbschlagProOrt" rx="2.5" ry="2.5" style="stroke:#181818;stroke-width:0.5;" width="171" x="1104" y="303.03"/><ellipse cx="1119" cy="321.9988" fill="#ADD1B2" rx="11" ry="11" style="stroke:#181818;stroke-width:1.0;"/><path d="M1121.9688,327.6394 Q1121.3906,327.9363 1120.75,328.0769 Q1120.1094,328.2331 1119.4063,328.2331 Q1116.9063,328.2331 1115.5781,326.5925 Q1114.2656,324.9363 1114.2656,321.8113 Q1114.2656,318.6863 1115.5781,317.03 Q1116.9063,315.3738 1119.4063,315.3738 Q1120.1094,315.3738 1120.75,315.53 Q1121.4063,315.6863 1121.9688,315.9831 L1121.9688,318.7019 Q1121.3438,318.1238 1120.75,317.8581 Q1120.1563,317.5769 1119.5313,317.5769 Q1118.1875,317.5769 1117.5,318.655 Q1116.8125,319.7175 1116.8125,321.8113 Q1116.8125,323.905 1117.5,324.9831 Q1118.1875,326.0456 1119.5313,326.0456 Q1120.1563,326.0456 1120.75,325.78 Q1121.3438,325.4988 1121.9688,324.9206 L1121.9688,327.6394 Z " fill="#000000"/><a href="https://bo4e.github.io/BO4E-python/latest/api/bo4e.com.html#bo4e.com.aufabschlagproort.AufAbschlagProOrt" target="_top" title="https://bo4e.github.io/BO4E-python/latest/api/bo4e.com.html#bo4e.com.aufabschlagproort.AufAbschlagProOrt" xlink:actuate="onRequest" xlink:href="https://bo4e.github.io/BO4E-python/latest/api/bo4e.com.html#bo4e.com.aufabschlagproort.AufAbschlagProOrt" xlink:show="new" xlink:title="https://bo4e.github.io/BO4E-python/latest/api/bo4e.com.html#bo4e.com.aufabschlagproort.AufAbschlagProOrt" xlink:type="simple"><text fill="#0000FF" font-family="sans-serif" font-size="14" lengthAdjust="spacing" text-decoration="underline" textLength="129" x="1138" y="321.0251">AufAbschlagProOrt</text></a><text fill="#000000" font-family="sans-serif" font-size="10" lengthAdjust="spacing" textLength="139" x="1133" y="333.6091">bo4e.com.aufabschlagproort</text></g><!--class COM--><g id="elem_COM"><rect codeLine="18" fill="#F1F1F1" height="37.9375" id="COM" rx="2.5" ry="2.5" style="stroke:#181818;stroke-width:0.5;" width="104" x="1137.5" y="376.03"/><ellipse cx="1152.5" cy="394.9988" fill="#ADD1B2" rx="11" ry="11" style="stroke:#181818;stroke-width:1.0;"/><path d="M1155.4688,400.6394 Q1154.8906,400.9363 1154.25,401.0769 Q1153.6094,401.2331 1152.9063,401.2331 Q1150.4063,401.2331 1149.0781,399.5925 Q1147.7656,397.9363 1147.7656,394.8113 Q1147.7656,391.6863 1149.0781,390.03 Q1150.4063,388.3738 1152.9063,388.3738 Q1153.6094,388.3738 1154.25,388.53 Q1154.9063,388.6863 1155.4688,388.9831 L1155.4688,391.7019 Q1154.8438,391.1238 1154.25,390.8581 Q1153.6563,390.5769 1153.0313,390.5769 Q1151.6875,390.5769 1151,391.655 Q1150.3125,392.7175 1150.3125,394.8113 Q1150.3125,396.905 1151,397.9831 Q1151.6875,399.0456 1153.0313,399.0456 Q1153.6563,399.0456 1154.25,398.78 Q1154.8438,398.4988 1155.4688,397.9206 L1155.4688,400.6394 Z " fill="#000000"/><a href="https://bo4e.github.io/BO4E-python/latest/api/bo4e.com.html#bo4e.com.com.COM" target="_top" title="https://bo4e.github.io/BO4E-python/latest/api/bo4e.com.html#bo4e.com.com.COM" xlink:actuate="onRequest" xlink:href="https://bo4e.github.io/BO4E-python/latest/api/bo4e.com.html#bo4e.com.com.COM" xlink:show="new" xlink:title="https://bo4e.github.io/BO4E-python/latest/api/bo4e.com.html#bo4e.com.com.COM" xlink:type="simple"><text fill="#0000FF" font-family="sans-serif" font-size="14" lengthAdjust="spacing" text-decoration="underline" textLength="33" x="1186" y="394.0251">COM</text></a><text fill="#000000" font-family="sans-serif" font-size="10" lengthAdjust="spacing" textLength="72" x="1166.5" y="406.6091">bo4e.com.com</text></g><!--class Tarifeinschraenkung--><g id="elem_Tarifeinschraenkung"><rect codeLine="19" fill="#F1F1F1" height="37.9375" id="Tarifeinschraenkung" rx="2.5" ry="2.5" style="stroke:#181818;stroke-width:0.5;" width="178" x="1100.5" y="449.03"/><ellipse cx="1115.5" cy="467.9988" fill="#ADD1B2" rx="11" ry="11" style="stroke:#181818;stroke-width:1.0;"/><path d="M1118.4688,473.6394 Q1117.8906,473.9363 1117.25,474.0769 Q1116.6094,474.2331 1115.9063,474.2331 Q1113.4063,474.2331 1112.0781,472.5925 Q1110.7656,470.9363 1110.7656,467.8113 Q1110.7656,464.6863 1112.0781,463.03 Q1113.4063,461.3738 1115.9063,461.3738 Q1116.6094,461.3738 1117.25,461.53 Q1117.9063,461.6863 1118.4688,461.9831 L1118.4688,464.7019 Q1117.8438,464.1238 1117.25,463.8581 Q1116.6563,463.5769 1116.0313,463.5769 Q1114.6875,463.5769 1114,464.655 Q1113.3125,465.7175 1113.3125,467.8113 Q1113.3125,469.905 1114,470.9831 Q1114.6875,472.0456 1116.0313,472.0456 Q1116.6563,472.0456 1117.25,471.78 Q1117.8438,471.4988 1118.4688,470.9206 L1118.4688,473.6394 Z " fill="#000000"/><a href="https://bo4e.github.io/BO4E-python/latest/api/bo4e.com.html#bo4e.com.tarifeinschraenkung.Tarifeinschraenkung" target="_top" title="https://bo4e.github.io/BO4E-python/latest/api/bo4e.com.html#bo4e.com.tarifeinschraenkung.Tarifeinschraenkung" xlink:actuate="onRequest" xlink:href="https://bo4e.github.io/BO4E-python/latest/api/bo4e.com.html#bo4e.com.tarifeinschraenkung.Tarifeinschraenkung" xlink:show="new" xlink:title="https://bo4e.github.io/BO4E-python/latest/api/bo4e.com.html#bo4e.com.tarifeinschraenkung.Tarifeinschraenkung" xlink:type="simple"><text fill="#0000FF" font-family="sans-serif" font-size="14" lengthAdjust="spacing" text-decoration="underline" textLength="141" x="1132" y="467.0251">Tarifeinschraenkung</text></a><text fill="#000000" font-family="sans-serif" font-size="10" lengthAdjust="spacing" textLength="146" x="1129.5" y="479.6091">bo4e.com.tarifeinschraenkung</text></g><!--class Vertragskonditionen--><g id="elem_Vertragskonditionen"><rect codeLine="20" fill="#F1F1F1" height="37.9375" id="Vertragskonditionen" rx="2.5" ry="2.5" style="stroke:#181818;stroke-width:0.5;" width="179" x="1100" y="522.03"/><ellipse cx="1115" cy="540.9988" fill="#ADD1B2" rx="11" ry="11" style="stroke:#181818;stroke-width:1.0;"/><path d="M1117.9688,546.6394 Q1117.3906,546.9363 1116.75,547.0769 Q1116.1094,547.2331 1115.4063,547.2331 Q1112.9063,547.2331 1111.5781,545.5925 Q1110.2656,543.9363 1110.2656,540.8113 Q1110.2656,537.6863 1111.5781,536.03 Q1112.9063,534.3738 1115.4063,534.3738 Q1116.1094,534.3738 1116.75,534.53 Q1117.4063,534.6863 1117.9688,534.9831 L1117.9688,537.7019 Q1117.3438,537.1238 1116.75,536.8581 Q1116.1563,536.5769 1115.5313,536.5769 Q1114.1875,536.5769 1113.5,537.655 Q1112.8125,538.7175 1112.8125,540.8113 Q1112.8125,542.905 1113.5,543.9831 Q1114.1875,545.0456 1115.5313,545.0456 Q1116.1563,545.0456 1116.75,544.78 Q1117.3438,544.4988 1117.9688,543.9206 L1117.9688,546.6394 Z " fill="#000000"/><a href="https://bo4e.github.io/BO4E-python/latest/api/bo4e.com.html#bo4e.com.vertragskonditionen.Vertragskonditionen" target="_top" title="https://bo4e.github.io/BO4E-python/latest/api/bo4e.com.html#bo4e.com.vertragskonditionen.Vertragskonditionen" xlink:actuate="onRequest" xlink:href="https://bo4e.github.io/BO4E-python/latest/api/bo4e.com.html#bo4e.com.vertragskonditionen.Vertragskonditionen" xlink:show="new" xlink:title="https://bo4e.github.io/BO4E-python/latest/api/bo4e.com.html#bo4e.com.vertragskonditionen.Vertragskonditionen" xlink:type="simple"><text fill="#0000FF" font-family="sans-serif" font-size="14" lengthAdjust="spacing" text-decoration="underline" textLength="140" x="1132.5" y="540.0251">Vertragskonditionen</text></a><text fill="#000000" font-family="sans-serif" font-size="10" lengthAdjust="spacing" textLength="147" x="1129" y="552.6091">bo4e.com.vertragskonditionen</text></g><!--class AufAbschlagsziel--><g id="elem_AufAbschlagsziel"><rect codeLine="23" fill="#F1F1F1" height="37.9375" id="AufAbschlagsziel" rx="2.5" ry="2.5" style="stroke:#181818;stroke-width:0.5;" width="168" x="1105.5" y="635.03"/><ellipse cx="1120.5" cy="653.9988" fill="#ADD1B2" rx="11" ry="11" style="stroke:#181818;stroke-width:1.0;"/><path d="M1123.4688,659.6394 Q1122.8906,659.9363 1122.25,660.0769 Q1121.6094,660.2331 1120.9063,660.2331 Q1118.4063,660.2331 1117.0781,658.5925 Q1115.7656,656.9363 1115.7656,653.8113 Q1115.7656,650.6863 1117.0781,649.03 Q1118.4063,647.3738 1120.9063,647.3738 Q1121.6094,647.3738 1122.25,647.53 Q1122.9063,647.6863 1123.4688,647.9831 L1123.4688,650.7019 Q1122.8438,650.1238 1122.25,649.8581 Q1121.6563,649.5769 1121.0313,649.5769 Q1119.6875,649.5769 1119,650.655 Q1118.3125,651.7175 1118.3125,653.8113 Q1118.3125,655.905 1119,656.9831 Q1119.6875,658.0456 1121.0313,658.0456 Q1121.6563,658.0456 1122.25,657.78 Q1122.8438,657.4988 1123.4688,656.9206 L1123.4688,659.6394 Z " fill="#000000"/><a href="https://bo4e.github.io/BO4E-python/latest/api/bo4e.enum.html#bo4e.enum.aufabschlagsziel.AufAbschlagsziel" target="_top" title="https://bo4e.github.io/BO4E-python/latest/api/bo4e.enum.html#bo4e.enum.aufabschlagsziel.AufAbschlagsziel" xlink:actuate="onRequest" xlink:href="https://bo4e.github.io/BO4E-python/latest/api/bo4e.enum.html#bo4e.enum.aufabschlagsziel.AufAbschlagsziel" xlink:show="new" xlink:title="https://bo4e.github.io/BO4E-python/latest/api/bo4e.enum.html#bo4e.enum.aufabschlagsziel.AufAbschlagsziel" xlink:type="simple"><text fill="#0000FF" font-family="sans-serif" font-size="14" lengthAdjust="spacing" text-decoration="underline" textLength="116" x="1144.5" y="653.0251">AufAbschlagsziel</text></a><text fill="#000000" font-family="sans-serif" font-size="10" lengthAdjust="spacing" textLength="136" x="1134.5" y="665.6091">bo4e.enum.aufabschlagsziel</text></g><!--class AufAbschlagstyp--><g id="elem_AufAbschlagstyp"><rect codeLine="24" fill="#F1F1F1" height="37.9375" id="AufAbschlagstyp" rx="2.5" ry="2.5" style="stroke:#181818;stroke-width:0.5;" width="169" x="1105" y="708.03"/><ellipse cx="1120" cy="726.9988" fill="#ADD1B2" rx="11" ry="11" style="stroke:#181818;stroke-width:1.0;"/><path d="M1122.9688,732.6394 Q1122.3906,732.9363 1121.75,733.0769 Q1121.1094,733.2331 1120.4063,733.2331 Q1117.9063,733.2331 1116.5781,731.5925 Q1115.2656,729.9363 1115.2656,726.8113 Q1115.2656,723.6863 1116.5781,722.03 Q1117.9063,720.3738 1120.4063,720.3738 Q1121.1094,720.3738 1121.75,720.53 Q1122.4063,720.6863 1122.9688,720.9831 L1122.9688,723.7019 Q1122.3438,723.1238 1121.75,722.8581 Q1121.1563,722.5769 1120.5313,722.5769 Q1119.1875,722.5769 1118.5,723.655 Q1117.8125,724.7175 1117.8125,726.8113 Q1117.8125,728.905 1118.5,729.9831 Q1119.1875,731.0456 1120.5313,731.0456 Q1121.1563,731.0456 1121.75,730.78 Q1122.3438,730.4988 1122.9688,729.9206 L1122.9688,732.6394 Z " fill="#000000"/><a href="https://bo4e.github.io/BO4E-python/latest/api/bo4e.enum.html#bo4e.enum.aufabschlagstyp.AufAbschlagstyp" target="_top" title="https://bo4e.github.io/BO4E-python/latest/api/bo4e.enum.html#bo4e.enum.aufabschlagstyp.AufAbschlagstyp" xlink:actuate="onRequest" xlink:href="https://bo4e.github.io/BO4E-python/latest/api/bo4e.enum.html#bo4e.enum.aufabschlagstyp.AufAbschlagstyp" xlink:show="new" xlink:title="https://bo4e.github.io/BO4E-python/latest/api/bo4e.enum.html#bo4e.enum.aufabschlagstyp.AufAbschlagstyp" xlink:type="simple"><text fill="#0000FF" font-family="sans-serif" font-size="14" lengthAdjust="spacing" text-decoration="underline" textLength="114" x="1145.5" y="726.0251">AufAbschlagstyp</text></a><text fill="#000000" font-family="sans-serif" font-size="10" lengthAdjust="spacing" textLength="137" x="1134" y="738.6091">bo4e.enum.aufabschlagstyp</text></g><!--class Waehrungseinheit--><g id="elem_Waehrungseinheit"><rect codeLine="25" fill="#F1F1F1" height="37.9375" id="Waehrungseinheit" rx="2.5" ry="2.5" style="stroke:#181818;stroke-width:0.5;" width="175" x="1102" y="781.03"/><ellipse cx="1117" cy="799.9988" fill="#ADD1B2" rx="11" ry="11" style="stroke:#181818;stroke-width:1.0;"/><path d="M1119.9688,805.6394 Q1119.3906,805.9363 1118.75,806.0769 Q1118.1094,806.2331 1117.4063,806.2331 Q1114.9063,806.2331 1113.5781,804.5925 Q1112.2656,802.9363 1112.2656,799.8113 Q1112.2656,796.6863 1113.5781,795.03 Q1114.9063,793.3738 1117.4063,793.3738 Q1118.1094,793.3738 1118.75,793.53 Q1119.4063,793.6863 1119.9688,793.9831 L1119.9688,796.7019 Q1119.3438,796.1238 1118.75,795.8581 Q1118.1563,795.5769 1117.5313,795.5769 Q1116.1875,795.5769 1115.5,796.655 Q1114.8125,797.7175 1114.8125,799.8113 Q1114.8125,801.905 1115.5,802.9831 Q1116.1875,804.0456 1117.5313,804.0456 Q1118.1563,804.0456 1118.75,803.78 Q1119.3438,803.4988 1119.9688,802.9206 L1119.9688,805.6394 Z " fill="#000000"/><a href="https://bo4e.github.io/BO4E-python/latest/api/bo4e.enum.html#bo4e.enum.waehrungseinheit.Waehrungseinheit" target="_top" title="https://bo4e.github.io/BO4E-python/latest/api/bo4e.enum.html#bo4e.enum.waehrungseinheit.Waehrungseinheit" xlink:actuate="onRequest" xlink:href="https://bo4e.github.io/BO4E-python/latest/api/bo4e.enum.html#bo4e.enum.waehrungseinheit.Waehrungseinheit" xlink:show="new" xlink:title="https://bo4e.github.io/BO4E-python/latest/api/bo4e.enum.html#bo4e.enum.waehrungseinheit.Waehrungseinheit" xlink:type="simple"><text fill="#0000FF" font-family="sans-serif" font-size="14" lengthAdjust="spacing" text-decoration="underline" textLength="126" x="1139.5" y="799.0251">Waehrungseinheit</text></a><text fill="#000000" font-family="sans-serif" font-size="10" lengthAdjust="spacing" textLength="143" x="1131" y="811.6091">bo4e.enum.waehrungseinheit</text></g><!--class AufAbschlagRegional--><g id="elem_AufAbschlagRegional"><rect codeLine="3" fill="#F1F1F1" height="160.0156" id="AufAbschlagRegional" rx="2.5" ry="2.5" style="stroke:#181818;stroke-width:0.5;" width="823" x="7" y="359.99"/><ellipse cx="340.75" cy="378.9588" fill="#ADD1B2" rx="11" ry="11" style="stroke:#181818;stroke-width:1.0;"/><path d="M343.7188,384.5994 Q343.1406,384.8963 342.5,385.0369 Q341.8594,385.1931 341.1563,385.1931 Q338.6563,385.1931 337.3281,383.5525 Q336.0156,381.8963 336.0156,378.7713 Q336.0156,375.6463 337.3281,373.99 Q338.6563,372.3338 341.1563,372.3338 Q341.8594,372.3338 342.5,372.49 Q343.1563,372.6463 343.7188,372.9431 L343.7188,375.6619 Q343.0938,375.0838 342.5,374.8181 Q341.9063,374.5369 341.2813,374.5369 Q339.9375,374.5369 339.25,375.615 Q338.5625,376.6775 338.5625,378.7713 Q338.5625,380.865 339.25,381.9431 Q339.9375,383.0056 341.2813,383.0056 Q341.9063,383.0056 342.5,382.74 Q343.0938,382.4588 343.7188,381.8806 L343.7188,384.5994 Z " fill="#000000"/><a href="https://bo4e.github.io/BO4E-python/latest/api/bo4e.com.html#bo4e.com.aufabschlagregional.AufAbschlagRegional" target="_top" title="https://bo4e.github.io/BO4E-python/latest/api/bo4e.com.html#bo4e.com.aufabschlagregional.AufAbschlagRegional" xlink:actuate="onRequest" xlink:href="https://bo4e.github.io/BO4E-python/latest/api/bo4e.com.html#bo4e.com.aufabschlagregional.AufAbschlagRegional" xlink:show="new" xlink:title="https://bo4e.github.io/BO4E-python/latest/api/bo4e.com.html#bo4e.com.aufabschlagregional.AufAbschlagRegional" xlink:type="simple"><text fill="#0000FF" font-family="sans-serif" font-size="14" lengthAdjust="spacing" text-decoration="underline" textLength="145" x="362.25" y="377.9851">AufAbschlagRegional</text></a><text fill="#000000" font-family="sans-serif" font-size="10" lengthAdjust="spacing" textLength="147" x="361.25" y="390.5691">bo4e.com.aufabschlagregional</text><line style="stroke:#181818;stroke-width:0.5;" x1="8" x2="829" y1="397.9275" y2="397.9275"/><text fill="#000000" font-family="sans-serif" font-size="14" lengthAdjust="spacing" textLength="811" x="13" y="414.9226">_typ : Literal[&lt;ComTyp.AUFABSCHLAGREGIONAL: 'AUFABSCHLAGREGIONAL'&gt;] [1] = ComTyp.AUFABSCHLAGREGIONAL</text><text fill="#000000" font-family="sans-serif" font-size="14" lengthAdjust="spacing" textLength="219" x="13" y="431.2195">bezeichnung : str [0..1] = None</text><text fill="#000000" font-family="sans-serif" font-size="14" lengthAdjust="spacing" textLength="224" x="13" y="447.5164">beschreibung : str [0..1] = None</text><text fill="#000000" font-family="sans-serif" font-size="14" lengthAdjust="spacing" textLength="182" x="13" y="463.8132">website : str [0..1] = None</text><text fill="#000000" font-family="sans-serif" font-size="14" lengthAdjust="spacing" textLength="235" x="13" y="480.1101">zusatzprodukte : str [0..*] = None</text><text fill="#000000" font-family="sans-serif" font-size="14" lengthAdjust="spacing" textLength="247" x="13" y="496.407">voraussetzungen : str [0..*] = None</text><text fill="#000000" font-family="sans-serif" font-size="14" lengthAdjust="spacing" textLength="303" x="13" y="512.7039">tarifnamensaenderungen : str [0..1] = None</text></g><!--link AufAbschlagRegional to COM--><g id="link_AufAbschlagRegional_COM"><path codeLine="28" d="M830.45,415.95 C952.9,408.79 1053.7807,402.8817 1119.0507,399.0617 " fill="none" id="AufAbschlagRegional-to-COM" style="stroke:#181818;stroke-width:1.0;"/><polygon fill="none" points="1137.02,398.01,1118.7002,393.0719,1119.4013,405.0514,1137.02,398.01" style="stroke:#181818;stroke-width:1.0;"/></g><!--link AufAbschlagRegional to AufAbschlagProOrt--><g id="link_AufAbschlagRegional_AufAbschlagProOrt"><path codeLine="29" d="M830.45,376.94 C934.31,361 1023.709,347.2912 1091.899,336.8212 " fill="none" id="AufAbschlagRegional-to-AufAbschlagProOrt" style="stroke:#181818;stroke-width:1.0;"/><polygon fill="#181818" points="1103.76,335,1097.2224,331.9569,1091.899,336.8212,1098.4366,339.8642,1103.76,335" style="stroke:#181818;stroke-width:1.0;"/><text fill="#000000" font-family="sans-serif" font-size="13" lengthAdjust="spacing" textLength="58" x="923" y="341.0669">betraege</text><text fill="#000000" font-family="sans-serif" font-size="13" lengthAdjust="spacing" textLength="23" x="1073.0112" y="348.7059">0..*</text></g><!--link AufAbschlagRegional to AufAbschlagstyp--><g id="link_AufAbschlagRegional_AufAbschlagstyp"><path codeLine="30" d="M580.85,520.51 C663.09,559.57 765.46,605.24 860,639 C941.6,668.14 1025.907,690.05 1092.977,705.78 " fill="none" id="AufAbschlagRegional-to-AufAbschlagstyp" style="stroke:#181818;stroke-width:1.0;"/><polygon fill="#181818" points="1104.66,708.52,1099.7318,703.2557,1092.977,705.78,1097.9052,711.0443,1104.66,708.52" style="stroke:#181818;stroke-width:1.0;"/><text fill="#000000" font-family="sans-serif" font-size="13" lengthAdjust="spacing" textLength="105" x="899.5" y="635.0669">aufAbschlagstyp</text><text fill="#000000" font-family="sans-serif" font-size="13" lengthAdjust="spacing" textLength="24" x="1072.9431" y="719.7173">0..1</text></g><!--link AufAbschlagRegional to AufAbschlagsziel--><g id="link_AufAbschlagRegional_AufAbschlagsziel"><path codeLine="31" d="M708.58,520.45 C857.25,561.82 1014.6694,605.6225 1107.1894,631.3725 " fill="none" id="AufAbschlagRegional-to-AufAbschlagsziel" style="stroke:#181818;stroke-width:1.0;"/><polygon fill="#181818" points="1118.75,634.59,1114.0422,629.1277,1107.1894,631.3725,1111.8972,636.8348,1118.75,634.59" style="stroke:#181818;stroke-width:1.0;"/><text fill="#000000" font-family="sans-serif" font-size="13" lengthAdjust="spacing" textLength="106" x="899" y="559.0669">aufAbschlagsziel</text><text fill="#000000" font-family="sans-serif" font-size="13" lengthAdjust="spacing" textLength="24" x="1073.5453" y="624.7785">0..1</text></g><!--link AufAbschlagRegional to Waehrungseinheit--><g id="link_AufAbschlagRegional_Waehrungseinheit"><path codeLine="32" d="M525.99,520.42 C612.09,582.02 738.54,665.01 860,717 C938.68,750.68 1022.2523,770.6326 1089.9123,783.5326 " fill="none" id="AufAbschlagRegional-to-Waehrungseinheit" style="stroke:#181818;stroke-width:1.0;"/><polygon fill="#181818" points="1101.7,785.78,1096.5553,780.7271,1089.9123,783.5326,1095.057,788.5855,1101.7,785.78" style="stroke:#181818;stroke-width:1.0;"/><text fill="#000000" font-family="sans-serif" font-size="13" lengthAdjust="spacing" textLength="43" x="930.5" y="713.0669">einheit</text><text fill="#000000" font-family="sans-serif" font-size="13" lengthAdjust="spacing" textLength="24" x="1070.0591" y="797.3376">0..1</text></g><!--link AufAbschlagRegional to Zeitraum--><g id="link_AufAbschlagRegional_Zeitraum"><path codeLine="33" d="M534.77,359.75 C620.93,303 743.47,228.94 860,182 C949.23,146.06 1047.1181,125.7413 1114.4581,114.3513 " fill="none" id="AufAbschlagRegional-to-Zeitraum" style="stroke:#181818;stroke-width:1.0;"/><polygon fill="#181818" points="1126.29,112.35,1119.7069,109.4067,1114.4581,114.3513,1121.0411,117.2946,1126.29,112.35" style="stroke:#181818;stroke-width:1.0;"/><text fill="#000000" font-family="sans-serif" font-size="13" lengthAdjust="spacing" textLength="130" x="887" y="126.0669">gueltigkeitszeitraum</text><text fill="#000000" font-family="sans-serif" font-size="13" lengthAdjust="spacing" textLength="24" x="1094.534" y="126.1615">0..1</text></g><!--link AufAbschlagRegional to Energiemix--><g id="link_AufAbschlagRegional_Energiemix"><path codeLine="34" d="M706.23,359.52 C757.32,345.86 810.14,332.17 860,320 C949.7,298.1 1042.2719,278.5475 1108.8719,264.9675 " fill="none" id="AufAbschlagRegional-to-Energiemix" style="stroke:#181818;stroke-width:1.0;"/><polygon fill="#181818" points="1120.63,262.57,1113.9518,259.8494,1108.8719,264.9675,1115.5501,267.6881,1120.63,262.57" style="stroke:#181818;stroke-width:1.0;"/><text fill="#000000" font-family="sans-serif" font-size="13" lengthAdjust="spacing" textLength="140" x="882" y="276.0669">energiemixaenderung</text><text fill="#000000" font-family="sans-serif" font-size="13" lengthAdjust="spacing" textLength="24" x="1088.9221" y="276.6516">0..1</text></g><!--link AufAbschlagRegional to Vertragskonditionen--><g id="link_AufAbschlagRegional_Vertragskonditionen"><path codeLine="35" d="M830.45,493.97 C932.34,507.36 1019.8423,518.8466 1087.9523,527.7966 " fill="none" id="AufAbschlagRegional-to-Vertragskonditionen" style="stroke:#181818;stroke-width:1.0;"/><polygon fill="#181818" points="1099.85,529.36,1094.4223,524.6124,1087.9523,527.7966,1093.38,532.5442,1099.85,529.36" style="stroke:#181818;stroke-width:1.0;"/><text fill="#000000" font-family="sans-serif" font-size="13" lengthAdjust="spacing" textLength="182" x="861" y="495.0669">vertagskonditionsaenderung</text><text fill="#000000" font-family="sans-serif" font-size="13" lengthAdjust="spacing" textLength="24" x="1068.0674" y="541.1151">0..1</text></g><!--link AufAbschlagRegional to Preisgarantie--><g id="link_AufAbschlagRegional_Preisgarantie"><path codeLine="36" d="M592.8,359.58 C672.97,324.37 770.15,284.46 860,255 C946.53,226.63 1037.173,206.0225 1104.363,192.2925 " fill="none" id="AufAbschlagRegional-to-Preisgarantie" style="stroke:#181818;stroke-width:1.0;"/><polygon fill="#181818" points="1116.12,189.89,1109.4406,187.1722,1104.363,192.2925,1111.0423,195.0103,1116.12,189.89" style="stroke:#181818;stroke-width:1.0;"/><text fill="#000000" font-family="sans-serif" font-size="13" lengthAdjust="spacing" textLength="122" x="891" y="203.0669">garantieaenderung</text><text fill="#000000" font-family="sans-serif" font-size="13" lengthAdjust="spacing" textLength="24" x="1084.5158" y="203.868">0..1</text></g><!--link AufAbschlagRegional to Tarifeinschraenkung--><g id="link_AufAbschlagRegional_Tarifeinschraenkung"><path codeLine="37" d="M830.45,454.96 C932.52,458.68 1020.098,461.8617 1088.218,464.3517 " fill="none" id="AufAbschlagRegional-to-Tarifeinschraenkung" style="stroke:#181818;stroke-width:1.0;"/><polygon fill="#181818" points="1100.21,464.79,1094.3601,460.5735,1088.218,464.3517,1094.0679,468.5682,1100.21,464.79" style="stroke:#181818;stroke-width:1.0;"/><text fill="#000000" font-family="sans-serif" font-size="13" lengthAdjust="spacing" textLength="177" x="863.5" y="453.0669">einschraenkungsaenderung</text><text fill="#000000" font-family="sans-serif" font-size="13" lengthAdjust="spacing" textLength="24" x="1068.455" y="477.1905">0..1</text></g><!--SRC=[jLPjQzim4FvS_ueZ-L0er6bODuhf2cx8ka7NbAxRO5aOSdAnHMpPI7ApPjj_dwGcjcEhwvltmQ1xV7hkaNIwKunp2J85JiD8menod4gQCiUPnaG8w8p7aPIPy7gz83r4DwGooWENfhtJqU5mFxkLKSfwCP4eP8zazCvhcYPk99EuMrWadvD0JAEOX1n35O34hf_F_JLsjSR0Waqctzcne2lq-WSd_oBi014s0lZbxFoGjnbuS4ubSXAFZmTfSdsRkVxdT_xffy7xS__iQdZsONJXdtkmQq5tJoOmxa_WBTm_qza9S8Lq6h6SXIgOa1p61wvhfbsa3BM3aiQH1lTwB34GIgJzvoeNHAuodixonPRFNkbpatAI2u5ofM8Wipj9mkcSaGIP8CXcoEk-PT0_ZgCTHKQc-C9qW8qrcPYpsfZG7HxuHsy6-g3QJJjr759jH-9-MmzWCx1drSRVoDkujYqgKmaWGi89anJTowe5MvPTuzPq8tHhKjjgaI4FAIRqfpiiXb0ExIBBMKPXwTwsl4eTKFSYvR9QLYvvEk8I6iY39UMEgbvGxYQtlGBz3KOVGNrsNUepIfH3sx5D7K3AT5LIXM2Xoe1xtSJ0WjcrMWYDTWj1sskvGQwkQoWMAPjHtSEGkL-Q65Wm-reiX6Oj5W9L9LzQ997brIgfpMgPr3PqP_tfgzT7BwsJHQXkQLQINwmeRdLd0q0TQ6wQbQX-YGpuV_LBtPyh4NNlhzcF4A-y6jeLrhxq9S58Ds2XxaUaUexxjGP07RX7VPt8oA_FrGtT-lJQt_zzKhHaNP7iRifl3phwET4flPirruC0rIt141-WwNVA16-ScWUajllF93CPlCrcyl09T8rJyM2pfOzZqHjLl4Cy27EC9GqN2X6RTySJc2hDM0afZE8vzmGgMvNqG9U_AYYUGxtzkb6BNW-VmsLhJEOCAa15f1FH6KA2IO1SE29Abs2DDLTvC1D_0G00]--></g></svg>