<svg xmlns="http://www.w3.org/2000/svg" xmlns:xlink="http://www.w3.org/1999/xlink" contentStyleType="text/css" data-diagram-type="CLASS" height="866px" preserveAspectRatio="none" style="width:1364px;height:866px;background:#FFFFFF;" version="1.1" viewBox="0 0 1364 866" width="1364px" zoomAndPan="magnify"><defs/><g><!--cluster bo4e--><g class="cluster" data-entity="bo4e" data-source-line="14" data-uid="ent0005" id="cluster_bo4e"><path d="M1093.94,6 L1133.816,6 A3.75,3.75 0 0 1 1136.316,8.5 L1143.316,28.2969 L1354.55,28.2969 A2.5,2.5 0 0 1 1357.05,30.7969 L1357.05,856.5 A2.5,2.5 0 0 1 1354.55,859 L1093.94,859 A2.5,2.5 0 0 1 1091.44,856.5 L1091.44,8.5 A2.5,2.5 0 0 1 1093.94,6" fill="none" style="stroke:#000000;stroke-width:1.5;"/><line style="stroke:#000000;stroke-width:1.5;" x1="1091.44" x2="1143.316" y1="28.2969" y2="28.2969"/><text fill="#000000" font-family="sans-serif" font-size="14" font-weight="bold" lengthAdjust="spacing" textLength="38.876" x="1095.44" y="20.9951">bo4e</text></g><!--cluster com--><g class="cluster" data-entity="com" data-source-line="13" data-uid="ent0003" id="cluster_com"><path d="M1117.94,49 L1195.6392,49 A3.75,3.75 0 0 1 1198.1392,51.5 L1205.1392,71.2969 L1330.55,71.2969 A2.5,2.5 0 0 1 1333.05,73.7969 L1333.05,573.5 A2.5,2.5 0 0 1 1330.55,576 L1117.94,576 A2.5,2.5 0 0 1 1115.44,573.5 L1115.44,51.5 A2.5,2.5 0 0 1 1117.94,49" fill="#E0A86C" style="stroke:#000000;stroke-width:1.5;"/><line style="stroke:#000000;stroke-width:1.5;" x1="1115.44" x2="1205.1392" y1="71.2969" y2="71.2969"/><a href="file:////home/runner/work/BO4E-python/BO4E-python/docs/../.tox/docs/tmp/html/api/bo4e.com.html" target="_top" title="file:////home/runner/work/BO4E-python/BO4E-python/docs/../.tox/docs/tmp/html/api/bo4e.com.html" xlink:actuate="onRequest" xlink:href="file:////home/runner/work/BO4E-python/BO4E-python/docs/../.tox/docs/tmp/html/api/bo4e.com.html" xlink:show="new" xlink:title="file:////home/runner/work/BO4E-python/BO4E-python/docs/../.tox/docs/tmp/html/api/bo4e.com.html" xlink:type="simple"><text fill="#0000FF" font-family="sans-serif" font-size="14" font-weight="bold" lengthAdjust="spacing" text-decoration="underline" textLength="76.6992" x="1119.44" y="63.9951">bo4e.com</text></a></g><!--cluster enum--><g class="cluster" data-entity="enum" data-source-line="22" data-uid="ent0012" id="cluster_enum"><path d="M1119.99,600 L1209.2009,600 A3.75,3.75 0 0 1 1211.7009,602.5 L1218.7009,622.2969 L1328.5,622.2969 A2.5,2.5 0 0 1 1331,624.7969 L1331,832.5 A2.5,2.5 0 0 1 1328.5,835 L1119.99,835 A2.5,2.5 0 0 1 1117.49,832.5 L1117.49,602.5 A2.5,2.5 0 0 1 1119.99,600" fill="#D1C358" style="stroke:#000000;stroke-width:1.5;"/><line style="stroke:#000000;stroke-width:1.5;" x1="1117.49" x2="1218.7009" y1="622.2969" y2="622.2969"/><a href="file:////home/runner/work/BO4E-python/BO4E-python/docs/../.tox/docs/tmp/html/api/bo4e.enum.html" target="_top" title="file:////home/runner/work/BO4E-python/BO4E-python/docs/../.tox/docs/tmp/html/api/bo4e.enum.html" xlink:actuate="onRequest" xlink:href="file:////home/runner/work/BO4E-python/BO4E-python/docs/../.tox/docs/tmp/html/api/bo4e.enum.html" xlink:show="new" xlink:title="file:////home/runner/work/BO4E-python/BO4E-python/docs/../.tox/docs/tmp/html/api/bo4e.enum.html" xlink:type="simple"><text fill="#0000FF" font-family="sans-serif" font-size="14" font-weight="bold" lengthAdjust="spacing" text-decoration="underline" textLength="88.2109" x="1121.49" y="614.9951">bo4e.enum</text></a></g><!--class AufAbschlagProOrt--><g class="entity" data-entity="AufAbschlagProOrt" data-source-line="14" data-uid="ent0004" id="entity_AufAbschlagProOrt"><rect fill="#F1F1F1" height="37.9375" rx="2.5" ry="2.5" style="stroke:#181818;stroke-width:0.5;" width="176.1846" x="1136.16" y="84.03"/><ellipse cx="1151.16" cy="102.9987" fill="#ADD1B2" rx="11" ry="11" style="stroke:#181818;stroke-width:1;"/><path d="M1154.1288,108.6394 Q1153.5506,108.9362 1152.91,109.0769 Q1152.2694,109.2331 1151.5663,109.2331 Q1149.0663,109.2331 1147.7381,107.5925 Q1146.4256,105.9362 1146.4256,102.8112 Q1146.4256,99.6862 1147.7381,98.03 Q1149.0663,96.3737 1151.5663,96.3737 Q1152.2694,96.3737 1152.91,96.53 Q1153.5663,96.6862 1154.1288,96.9831 L1154.1288,99.7019 Q1153.5038,99.1237 1152.91,98.8581 Q1152.3163,98.5769 1151.6913,98.5769 Q1150.3475,98.5769 1149.66,99.655 Q1148.9725,100.7175 1148.9725,102.8112 Q1148.9725,104.905 1149.66,105.9831 Q1150.3475,107.0456 1151.6913,107.0456 Q1152.3163,107.0456 1152.91,106.78 Q1153.5038,106.4987 1154.1288,105.9206 L1154.1288,108.6394 Z " fill="#000000"/><a href="file:////home/runner/work/BO4E-python/BO4E-python/docs/../.tox/docs/tmp/html/api/bo4e.com.html#bo4e.com.aufabschlagproort.AufAbschlagProOrt" target="_top" title="file:////home/runner/work/BO4E-python/BO4E-python/docs/../.tox/docs/tmp/html/api/bo4e.com.html#bo4e.com.aufabschlagproort.AufAbschlagProOrt" xlink:actuate="onRequest" xlink:href="file:////home/runner/work/BO4E-python/BO4E-python/docs/../.tox/docs/tmp/html/api/bo4e.com.html#bo4e.com.aufabschlagproort.AufAbschlagProOrt" xlink:show="new" xlink:title="file:////home/runner/work/BO4E-python/BO4E-python/docs/../.tox/docs/tmp/html/api/bo4e.com.html#bo4e.com.aufabschlagproort.AufAbschlagProOrt" xlink:type="simple"><text fill="#0000FF" font-family="sans-serif" font-size="14" lengthAdjust="spacing" text-decoration="underline" textLength="132.0908" x="1171.2069" y="102.0251">AufAbschlagProOrt</text></a><text fill="#000000" font-family="sans-serif" font-size="10" lengthAdjust="spacing" textLength="144.1846" x="1165.16" y="114.6091">bo4e.com.aufabschlagproort</text></g><!--class Energiemix--><g class="entity" data-entity="Energiemix" data-source-line="15" data-uid="ent0006" id="entity_Energiemix"><rect fill="#F1F1F1" height="37.9375" rx="2.5" ry="2.5" style="stroke:#181818;stroke-width:0.5;" width="141.165" x="1153.67" y="157.03"/><ellipse cx="1168.67" cy="175.9987" fill="#ADD1B2" rx="11" ry="11" style="stroke:#181818;stroke-width:1;"/><path d="M1171.6388,181.6394 Q1171.0606,181.9362 1170.42,182.0769 Q1169.7794,182.2331 1169.0763,182.2331 Q1166.5763,182.2331 1165.2481,180.5925 Q1163.9356,178.9362 1163.9356,175.8112 Q1163.9356,172.6862 1165.2481,171.03 Q1166.5763,169.3737 1169.0763,169.3737 Q1169.7794,169.3737 1170.42,169.53 Q1171.0763,169.6862 1171.6388,169.9831 L1171.6388,172.7019 Q1171.0138,172.1237 1170.42,171.8581 Q1169.8263,171.5769 1169.2013,171.5769 Q1167.8575,171.5769 1167.17,172.655 Q1166.4825,173.7175 1166.4825,175.8112 Q1166.4825,177.905 1167.17,178.9831 Q1167.8575,180.0456 1169.2013,180.0456 Q1169.8263,180.0456 1170.42,179.78 Q1171.0138,179.4987 1171.6388,178.9206 L1171.6388,181.6394 Z " fill="#000000"/><a href="file:////home/runner/work/BO4E-python/BO4E-python/docs/../.tox/docs/tmp/html/api/bo4e.com.html#bo4e.com.energiemix.Energiemix" target="_top" title="file:////home/runner/work/BO4E-python/BO4E-python/docs/../.tox/docs/tmp/html/api/bo4e.com.html#bo4e.com.energiemix.Energiemix" xlink:actuate="onRequest" xlink:href="file:////home/runner/work/BO4E-python/BO4E-python/docs/../.tox/docs/tmp/html/api/bo4e.com.html#bo4e.com.energiemix.Energiemix" xlink:show="new" xlink:title="file:////home/runner/work/BO4E-python/BO4E-python/docs/../.tox/docs/tmp/html/api/bo4e.com.html#bo4e.com.energiemix.Energiemix" xlink:type="simple"><text fill="#0000FF" font-family="sans-serif" font-size="14" lengthAdjust="spacing" text-decoration="underline" textLength="79.29" x="1197.6075" y="175.0251">Energiemix</text></a><text fill="#000000" font-family="sans-serif" font-size="10" lengthAdjust="spacing" textLength="109.165" x="1182.67" y="187.6091">bo4e.com.energiemix</text></g><!--class COM--><g class="entity" data-entity="COM" data-source-line="16" data-uid="ent0007" id="entity_COM"><rect fill="#F1F1F1" height="37.9375" rx="2.5" ry="2.5" style="stroke:#181818;stroke-width:0.5;" width="106.0527" x="1171.22" y="230.03"/><ellipse cx="1186.22" cy="248.9987" fill="#ADD1B2" rx="11" ry="11" style="stroke:#181818;stroke-width:1;"/><path d="M1189.1888,254.6394 Q1188.6106,254.9362 1187.97,255.0769 Q1187.3294,255.2331 1186.6263,255.2331 Q1184.1263,255.2331 1182.7981,253.5925 Q1181.4856,251.9362 1181.4856,248.8112 Q1181.4856,245.6862 1182.7981,244.03 Q1184.1263,242.3737 1186.6263,242.3737 Q1187.3294,242.3737 1187.97,242.53 Q1188.6263,242.6862 1189.1888,242.9831 L1189.1888,245.7019 Q1188.5638,245.1237 1187.97,244.8581 Q1187.3763,244.5769 1186.7513,244.5769 Q1185.4075,244.5769 1184.72,245.655 Q1184.0325,246.7175 1184.0325,248.8112 Q1184.0325,250.905 1184.72,251.9831 Q1185.4075,253.0456 1186.7513,253.0456 Q1187.3763,253.0456 1187.97,252.78 Q1188.5638,252.4987 1189.1888,251.9206 L1189.1888,254.6394 Z " fill="#000000"/><a href="file:////home/runner/work/BO4E-python/BO4E-python/docs/../.tox/docs/tmp/html/api/bo4e.com.html#bo4e.com.com.COM" target="_top" title="file:////home/runner/work/BO4E-python/BO4E-python/docs/../.tox/docs/tmp/html/api/bo4e.com.html#bo4e.com.com.COM" xlink:actuate="onRequest" xlink:href="file:////home/runner/work/BO4E-python/BO4E-python/docs/../.tox/docs/tmp/html/api/bo4e.com.html#bo4e.com.com.COM" xlink:show="new" xlink:title="file:////home/runner/work/BO4E-python/BO4E-python/docs/../.tox/docs/tmp/html/api/bo4e.com.html#bo4e.com.com.COM" xlink:type="simple"><text fill="#0000FF" font-family="sans-serif" font-size="14" lengthAdjust="spacing" text-decoration="underline" textLength="32.874" x="1220.8094" y="248.0251">COM</text></a><text fill="#000000" font-family="sans-serif" font-size="10" lengthAdjust="spacing" textLength="74.0527" x="1200.22" y="260.6091">bo4e.com.com</text></g><!--class Tarifeinschraenkung--><g class="entity" data-entity="Tarifeinschraenkung" data-source-line="17" data-uid="ent0008" id="entity_Tarifeinschraenkung"><rect fill="#F1F1F1" height="37.9375" rx="2.5" ry="2.5" style="stroke:#181818;stroke-width:0.5;" width="185.0127" x="1131.74" y="303.03"/><ellipse cx="1146.74" cy="321.9988" fill="#ADD1B2" rx="11" ry="11" style="stroke:#181818;stroke-width:1;"/><path d="M1149.7088,327.6394 Q1149.1306,327.9363 1148.49,328.0769 Q1147.8494,328.2331 1147.1463,328.2331 Q1144.6463,328.2331 1143.3181,326.5925 Q1142.0056,324.9363 1142.0056,321.8113 Q1142.0056,318.6863 1143.3181,317.03 Q1144.6463,315.3738 1147.1463,315.3738 Q1147.8494,315.3738 1148.49,315.53 Q1149.1463,315.6863 1149.7088,315.9831 L1149.7088,318.7019 Q1149.0838,318.1238 1148.49,317.8581 Q1147.8963,317.5769 1147.2713,317.5769 Q1145.9275,317.5769 1145.24,318.655 Q1144.5525,319.7175 1144.5525,321.8113 Q1144.5525,323.905 1145.24,324.9831 Q1145.9275,326.0456 1147.2713,326.0456 Q1147.8963,326.0456 1148.49,325.78 Q1149.0838,325.4988 1149.7088,324.9206 L1149.7088,327.6394 Z " fill="#000000"/><a href="file:////home/runner/work/BO4E-python/BO4E-python/docs/../.tox/docs/tmp/html/api/bo4e.com.html#bo4e.com.tarifeinschraenkung.Tarifeinschraenkung" target="_top" title="file:////home/runner/work/BO4E-python/BO4E-python/docs/../.tox/docs/tmp/html/api/bo4e.com.html#bo4e.com.tarifeinschraenkung.Tarifeinschraenkung" xlink:actuate="onRequest" xlink:href="file:////home/runner/work/BO4E-python/BO4E-python/docs/../.tox/docs/tmp/html/api/bo4e.com.html#bo4e.com.tarifeinschraenkung.Tarifeinschraenkung" xlink:show="new" xlink:title="file:////home/runner/work/BO4E-python/BO4E-python/docs/../.tox/docs/tmp/html/api/bo4e.com.html#bo4e.com.tarifeinschraenkung.Tarifeinschraenkung" xlink:type="simple"><text fill="#0000FF" font-family="sans-serif" font-size="14" lengthAdjust="spacing" text-decoration="underline" textLength="143.5068" x="1165.4929" y="321.0251">Tarifeinschraenkung</text></a><text fill="#000000" font-family="sans-serif" font-size="10" lengthAdjust="spacing" textLength="153.0127" x="1160.74" y="333.6091">bo4e.com.tarifeinschraenkung</text></g><!--class Zeitraum--><g class="entity" data-entity="Zeitraum" data-source-line="18" data-uid="ent0009" id="entity_Zeitraum"><rect fill="#F1F1F1" height="37.9375" rx="2.5" ry="2.5" style="stroke:#181818;stroke-width:0.5;" width="129.1143" x="1159.69" y="376.03"/><ellipse cx="1174.69" cy="394.9988" fill="#ADD1B2" rx="11" ry="11" style="stroke:#181818;stroke-width:1;"/><path d="M1177.6588,400.6394 Q1177.0806,400.9363 1176.44,401.0769 Q1175.7994,401.2331 1175.0963,401.2331 Q1172.5963,401.2331 1171.2681,399.5925 Q1169.9556,397.9363 1169.9556,394.8113 Q1169.9556,391.6863 1171.2681,390.03 Q1172.5963,388.3738 1175.0963,388.3738 Q1175.7994,388.3738 1176.44,388.53 Q1177.0963,388.6863 1177.6588,388.9831 L1177.6588,391.7019 Q1177.0338,391.1238 1176.44,390.8581 Q1175.8463,390.5769 1175.2213,390.5769 Q1173.8775,390.5769 1173.19,391.655 Q1172.5025,392.7175 1172.5025,394.8113 Q1172.5025,396.905 1173.19,397.9831 Q1173.8775,399.0456 1175.2213,399.0456 Q1175.8463,399.0456 1176.44,398.78 Q1177.0338,398.4988 1177.6588,397.9206 L1177.6588,400.6394 Z " fill="#000000"/><a href="file:////home/runner/work/BO4E-python/BO4E-python/docs/../.tox/docs/tmp/html/api/bo4e.com.html#bo4e.com.zeitraum.Zeitraum" target="_top" title="file:////home/runner/work/BO4E-python/BO4E-python/docs/../.tox/docs/tmp/html/api/bo4e.com.html#bo4e.com.zeitraum.Zeitraum" xlink:actuate="onRequest" xlink:href="file:////home/runner/work/BO4E-python/BO4E-python/docs/../.tox/docs/tmp/html/api/bo4e.com.html#bo4e.com.zeitraum.Zeitraum" xlink:show="new" xlink:title="file:////home/runner/work/BO4E-python/BO4E-python/docs/../.tox/docs/tmp/html/api/bo4e.com.html#bo4e.com.zeitraum.Zeitraum" xlink:type="simple"><text fill="#0000FF" font-family="sans-serif" font-size="14" lengthAdjust="spacing" text-decoration="underline" textLength="64.4287" x="1205.0328" y="394.0251">Zeitraum</text></a><text fill="#000000" font-family="sans-serif" font-size="10" lengthAdjust="spacing" textLength="97.1143" x="1188.69" y="406.6091">bo4e.com.zeitraum</text></g><!--class Preisgarantie--><g class="entity" data-entity="Preisgarantie" data-source-line="19" data-uid="ent0010" id="entity_Preisgarantie"><rect fill="#F1F1F1" height="37.9375" rx="2.5" ry="2.5" style="stroke:#181818;stroke-width:0.5;" width="151.1992" x="1148.65" y="449.03"/><ellipse cx="1163.65" cy="467.9988" fill="#ADD1B2" rx="11" ry="11" style="stroke:#181818;stroke-width:1;"/><path d="M1166.6188,473.6394 Q1166.0406,473.9363 1165.4,474.0769 Q1164.7594,474.2331 1164.0563,474.2331 Q1161.5563,474.2331 1160.2281,472.5925 Q1158.9156,470.9363 1158.9156,467.8113 Q1158.9156,464.6863 1160.2281,463.03 Q1161.5563,461.3738 1164.0563,461.3738 Q1164.7594,461.3738 1165.4,461.53 Q1166.0563,461.6863 1166.6188,461.9831 L1166.6188,464.7019 Q1165.9938,464.1238 1165.4,463.8581 Q1164.8063,463.5769 1164.1813,463.5769 Q1162.8375,463.5769 1162.15,464.655 Q1161.4625,465.7175 1161.4625,467.8113 Q1161.4625,469.905 1162.15,470.9831 Q1162.8375,472.0456 1164.1813,472.0456 Q1164.8063,472.0456 1165.4,471.78 Q1165.9938,471.4988 1166.6188,470.9206 L1166.6188,473.6394 Z " fill="#000000"/><a href="file:////home/runner/work/BO4E-python/BO4E-python/docs/../.tox/docs/tmp/html/api/bo4e.com.html#bo4e.com.preisgarantie.Preisgarantie" target="_top" title="file:////home/runner/work/BO4E-python/BO4E-python/docs/../.tox/docs/tmp/html/api/bo4e.com.html#bo4e.com.preisgarantie.Preisgarantie" xlink:actuate="onRequest" xlink:href="file:////home/runner/work/BO4E-python/BO4E-python/docs/../.tox/docs/tmp/html/api/bo4e.com.html#bo4e.com.preisgarantie.Preisgarantie" xlink:show="new" xlink:title="file:////home/runner/work/BO4E-python/BO4E-python/docs/../.tox/docs/tmp/html/api/bo4e.com.html#bo4e.com.preisgarantie.Preisgarantie" xlink:type="simple"><text fill="#0000FF" font-family="sans-serif" font-size="14" lengthAdjust="spacing" text-decoration="underline" textLength="92.6611" x="1190.919" y="467.0251">Preisgarantie</text></a><text fill="#000000" font-family="sans-serif" font-size="10" lengthAdjust="spacing" textLength="119.1992" x="1177.65" y="479.6091">bo4e.com.preisgarantie</text></g><!--class Vertragskonditionen--><g class="entity" data-entity="Vertragskonditionen" data-source-line="20" data-uid="ent0011" id="entity_Vertragskonditionen"><rect fill="#F1F1F1" height="37.9375" rx="2.5" ry="2.5" style="stroke:#181818;stroke-width:0.5;" width="185.6133" x="1131.44" y="522.03"/><ellipse cx="1146.44" cy="540.9988" fill="#ADD1B2" rx="11" ry="11" style="stroke:#181818;stroke-width:1;"/><path d="M1149.4088,546.6394 Q1148.8306,546.9363 1148.19,547.0769 Q1147.5494,547.2331 1146.8463,547.2331 Q1144.3463,547.2331 1143.0181,545.5925 Q1141.7056,543.9363 1141.7056,540.8113 Q1141.7056,537.6863 1143.0181,536.03 Q1144.3463,534.3738 1146.8463,534.3738 Q1147.5494,534.3738 1148.19,534.53 Q1148.8463,534.6863 1149.4088,534.9831 L1149.4088,537.7019 Q1148.7838,537.1238 1148.19,536.8581 Q1147.5963,536.5769 1146.9713,536.5769 Q1145.6275,536.5769 1144.94,537.655 Q1144.2525,538.7175 1144.2525,540.8113 Q1144.2525,542.905 1144.94,543.9831 Q1145.6275,545.0456 1146.9713,545.0456 Q1147.5963,545.0456 1148.19,544.78 Q1148.7838,544.4988 1149.4088,543.9206 L1149.4088,546.6394 Z " fill="#000000"/><a href="file:////home/runner/work/BO4E-python/BO4E-python/docs/../.tox/docs/tmp/html/api/bo4e.com.html#bo4e.com.vertragskonditionen.Vertragskonditionen" target="_top" title="file:////home/runner/work/BO4E-python/BO4E-python/docs/../.tox/docs/tmp/html/api/bo4e.com.html#bo4e.com.vertragskonditionen.Vertragskonditionen" xlink:actuate="onRequest" xlink:href="file:////home/runner/work/BO4E-python/BO4E-python/docs/../.tox/docs/tmp/html/api/bo4e.com.html#bo4e.com.vertragskonditionen.Vertragskonditionen" xlink:show="new" xlink:title="file:////home/runner/work/BO4E-python/BO4E-python/docs/../.tox/docs/tmp/html/api/bo4e.com.html#bo4e.com.vertragskonditionen.Vertragskonditionen" xlink:type="simple"><text fill="#0000FF" font-family="sans-serif" font-size="14" lengthAdjust="spacing" text-decoration="underline" textLength="142.5771" x="1165.9581" y="540.0251">Vertragskonditionen</text></a><text fill="#000000" font-family="sans-serif" font-size="10" lengthAdjust="spacing" textLength="153.6133" x="1160.44" y="552.6091">bo4e.com.vertragskonditionen</text></g><!--class AufAbschlagstyp--><g class="entity" data-entity="AufAbschlagstyp" data-source-line="23" data-uid="ent0013" id="entity_AufAbschlagstyp"><rect fill="#F1F1F1" height="37.9375" rx="2.5" ry="2.5" style="stroke:#181818;stroke-width:0.5;" width="174.0654" x="1137.22" y="635.03"/><ellipse cx="1152.22" cy="653.9988" fill="#ADD1B2" rx="11" ry="11" style="stroke:#181818;stroke-width:1;"/><path d="M1155.1888,659.6394 Q1154.6106,659.9363 1153.97,660.0769 Q1153.3294,660.2331 1152.6263,660.2331 Q1150.1263,660.2331 1148.7981,658.5925 Q1147.4856,656.9363 1147.4856,653.8113 Q1147.4856,650.6863 1148.7981,649.03 Q1150.1263,647.3738 1152.6263,647.3738 Q1153.3294,647.3738 1153.97,647.53 Q1154.6263,647.6863 1155.1888,647.9831 L1155.1888,650.7019 Q1154.5638,650.1238 1153.97,649.8581 Q1153.3763,649.5769 1152.7513,649.5769 Q1151.4075,649.5769 1150.72,650.655 Q1150.0325,651.7175 1150.0325,653.8113 Q1150.0325,655.905 1150.72,656.9831 Q1151.4075,658.0456 1152.7513,658.0456 Q1153.3763,658.0456 1153.97,657.78 Q1154.5638,657.4988 1155.1888,656.9206 L1155.1888,659.6394 Z " fill="#000000"/><a href="file:////home/runner/work/BO4E-python/BO4E-python/docs/../.tox/docs/tmp/html/api/bo4e.enum.html#bo4e.enum.aufabschlagstyp.AufAbschlagstyp" target="_top" title="file:////home/runner/work/BO4E-python/BO4E-python/docs/../.tox/docs/tmp/html/api/bo4e.enum.html#bo4e.enum.aufabschlagstyp.AufAbschlagstyp" xlink:actuate="onRequest" xlink:href="file:////home/runner/work/BO4E-python/BO4E-python/docs/../.tox/docs/tmp/html/api/bo4e.enum.html#bo4e.enum.aufabschlagstyp.AufAbschlagstyp" xlink:show="new" xlink:title="file:////home/runner/work/BO4E-python/BO4E-python/docs/../.tox/docs/tmp/html/api/bo4e.enum.html#bo4e.enum.aufabschlagstyp.AufAbschlagstyp" xlink:type="simple"><text fill="#0000FF" font-family="sans-serif" font-size="14" lengthAdjust="spacing" text-decoration="underline" textLength="117.0176" x="1178.7439" y="653.0251">AufAbschlagstyp</text></a><text fill="#000000" font-family="sans-serif" font-size="10" lengthAdjust="spacing" textLength="142.0654" x="1166.22" y="665.6091">bo4e.enum.aufabschlagstyp</text></g><!--class AufAbschlagsziel--><g class="entity" data-entity="AufAbschlagsziel" data-source-line="24" data-uid="ent0014" id="entity_AufAbschlagsziel"><rect fill="#F1F1F1" height="37.9375" rx="2.5" ry="2.5" style="stroke:#181818;stroke-width:0.5;" width="174.8369" x="1136.83" y="708.03"/><ellipse cx="1151.83" cy="726.9988" fill="#ADD1B2" rx="11" ry="11" style="stroke:#181818;stroke-width:1;"/><path d="M1154.7988,732.6394 Q1154.2206,732.9363 1153.58,733.0769 Q1152.9394,733.2331 1152.2363,733.2331 Q1149.7363,733.2331 1148.4081,731.5925 Q1147.0956,729.9363 1147.0956,726.8113 Q1147.0956,723.6863 1148.4081,722.03 Q1149.7363,720.3738 1152.2363,720.3738 Q1152.9394,720.3738 1153.58,720.53 Q1154.2363,720.6863 1154.7988,720.9831 L1154.7988,723.7019 Q1154.1738,723.1238 1153.58,722.8581 Q1152.9863,722.5769 1152.3613,722.5769 Q1151.0175,722.5769 1150.33,723.655 Q1149.6425,724.7175 1149.6425,726.8113 Q1149.6425,728.905 1150.33,729.9831 Q1151.0175,731.0456 1152.3613,731.0456 Q1152.9863,731.0456 1153.58,730.78 Q1154.1738,730.4988 1154.7988,729.9206 L1154.7988,732.6394 Z " fill="#000000"/><a href="file:////home/runner/work/BO4E-python/BO4E-python/docs/../.tox/docs/tmp/html/api/bo4e.enum.html#bo4e.enum.aufabschlagsziel.AufAbschlagsziel" target="_top" title="file:////home/runner/work/BO4E-python/BO4E-python/docs/../.tox/docs/tmp/html/api/bo4e.enum.html#bo4e.enum.aufabschlagsziel.AufAbschlagsziel" xlink:actuate="onRequest" xlink:href="file:////home/runner/work/BO4E-python/BO4E-python/docs/../.tox/docs/tmp/html/api/bo4e.enum.html#bo4e.enum.aufabschlagsziel.AufAbschlagsziel" xlink:show="new" xlink:title="file:////home/runner/work/BO4E-python/BO4E-python/docs/../.tox/docs/tmp/html/api/bo4e.enum.html#bo4e.enum.aufabschlagsziel.AufAbschlagsziel" xlink:type="simple"><text fill="#0000FF" font-family="sans-serif" font-size="14" lengthAdjust="spacing" text-decoration="underline" textLength="118.0977" x="1178.1996" y="726.0251">AufAbschlagsziel</text></a><text fill="#000000" font-family="sans-serif" font-size="10" lengthAdjust="spacing" textLength="142.8369" x="1165.83" y="738.6091">bo4e.enum.aufabschlagsziel</text></g><!--class Waehrungseinheit--><g class="entity" data-entity="Waehrungseinheit" data-source-line="25" data-uid="ent0015" id="entity_Waehrungseinheit"><rect fill="#F1F1F1" height="37.9375" rx="2.5" ry="2.5" style="stroke:#181818;stroke-width:0.5;" width="181.5068" x="1133.49" y="781.03"/><ellipse cx="1148.49" cy="799.9988" fill="#ADD1B2" rx="11" ry="11" style="stroke:#181818;stroke-width:1;"/><path d="M1151.4588,805.6394 Q1150.8806,805.9363 1150.24,806.0769 Q1149.5994,806.2331 1148.8963,806.2331 Q1146.3963,806.2331 1145.0681,804.5925 Q1143.7556,802.9363 1143.7556,799.8113 Q1143.7556,796.6863 1145.0681,795.03 Q1146.3963,793.3738 1148.8963,793.3738 Q1149.5994,793.3738 1150.24,793.53 Q1150.8963,793.6863 1151.4588,793.9831 L1151.4588,796.7019 Q1150.8338,796.1238 1150.24,795.8581 Q1149.6463,795.5769 1149.0213,795.5769 Q1147.6775,795.5769 1146.99,796.655 Q1146.3025,797.7175 1146.3025,799.8113 Q1146.3025,801.905 1146.99,802.9831 Q1147.6775,804.0456 1149.0213,804.0456 Q1149.6463,804.0456 1150.24,803.78 Q1150.8338,803.4988 1151.4588,802.9206 L1151.4588,805.6394 Z " fill="#000000"/><a href="file:////home/runner/work/BO4E-python/BO4E-python/docs/../.tox/docs/tmp/html/api/bo4e.enum.html#bo4e.enum.waehrungseinheit.Waehrungseinheit" target="_top" title="file:////home/runner/work/BO4E-python/BO4E-python/docs/../.tox/docs/tmp/html/api/bo4e.enum.html#bo4e.enum.waehrungseinheit.Waehrungseinheit" xlink:actuate="onRequest" xlink:href="file:////home/runner/work/BO4E-python/BO4E-python/docs/../.tox/docs/tmp/html/api/bo4e.enum.html#bo4e.enum.waehrungseinheit.Waehrungseinheit" xlink:show="new" xlink:title="file:////home/runner/work/BO4E-python/BO4E-python/docs/../.tox/docs/tmp/html/api/bo4e.enum.html#bo4e.enum.waehrungseinheit.Waehrungseinheit" xlink:type="simple"><text fill="#0000FF" font-family="sans-serif" font-size="14" lengthAdjust="spacing" text-decoration="underline" textLength="127.832" x="1173.3274" y="799.0251">Waehrungseinheit</text></a><text fill="#000000" font-family="sans-serif" font-size="10" lengthAdjust="spacing" textLength="149.5068" x="1162.49" y="811.6091">bo4e.enum.waehrungseinheit</text></g><!--class AufAbschlagRegional--><g class="entity" data-entity="AufAbschlagRegional" data-source-line="3" data-uid="ent0002" id="entity_AufAbschlagRegional"><rect fill="#F1F1F1" height="160.0156" rx="2.5" ry="2.5" style="stroke:#181818;stroke-width:0.5;" width="850.4414" x="7" y="355.99"/><ellipse cx="350.8662" cy="374.9588" fill="#ADD1B2" rx="11" ry="11" style="stroke:#181818;stroke-width:1;"/><path d="M353.835,380.5994 Q353.2568,380.8963 352.6162,381.0369 Q351.9756,381.1931 351.2725,381.1931 Q348.7725,381.1931 347.4443,379.5525 Q346.1318,377.8963 346.1318,374.7713 Q346.1318,371.6463 347.4443,369.99 Q348.7725,368.3338 351.2725,368.3338 Q351.9756,368.3338 352.6162,368.49 Q353.2725,368.6463 353.835,368.9431 L353.835,371.6619 Q353.21,371.0838 352.6162,370.8181 Q352.0225,370.5369 351.3975,370.5369 Q350.0537,370.5369 349.3662,371.615 Q348.6787,372.6775 348.6787,374.7713 Q348.6787,376.865 349.3662,377.9431 Q350.0537,379.0056 351.3975,379.0056 Q352.0225,379.0056 352.6162,378.74 Q353.21,378.4588 353.835,377.8806 L353.835,380.5994 Z " fill="#000000"/><a href="file:////home/runner/work/BO4E-python/BO4E-python/docs/../.tox/docs/tmp/html/api/bo4e.com.html#bo4e.com.aufabschlagregional.AufAbschlagRegional" target="_top" title="file:////home/runner/work/BO4E-python/BO4E-python/docs/../.tox/docs/tmp/html/api/bo4e.com.html#bo4e.com.aufabschlagregional.AufAbschlagRegional" xlink:actuate="onRequest" xlink:href="file:////home/runner/work/BO4E-python/BO4E-python/docs/../.tox/docs/tmp/html/api/bo4e.com.html#bo4e.com.aufabschlagregional.AufAbschlagRegional" xlink:show="new" xlink:title="file:////home/runner/work/BO4E-python/BO4E-python/docs/../.tox/docs/tmp/html/api/bo4e.com.html#bo4e.com.aufabschlagregional.AufAbschlagRegional" xlink:type="simple"><text fill="#0000FF" font-family="sans-serif" font-size="14" lengthAdjust="spacing" text-decoration="underline" textLength="148.0869" x="374.4272" y="373.9851">AufAbschlagRegional</text></a><text fill="#000000" font-family="sans-serif" font-size="10" lengthAdjust="spacing" textLength="154.209" x="371.3662" y="386.5691">bo4e.com.aufabschlagregional</text><line style="stroke:#181818;stroke-width:0.5;" x1="8" x2="856.4414" y1="393.9275" y2="393.9275"/><text fill="#000000" font-family="sans-serif" font-size="14" lengthAdjust="spacing" textLength="838.4414" x="13" y="410.9226">_typ : Literal[&lt;ComTyp.AUFABSCHLAGREGIONAL: 'AUFABSCHLAGREGIONAL'&gt;] [1] = ComTyp.AUFABSCHLAGREGIONAL</text><text fill="#000000" font-family="sans-serif" font-size="14" lengthAdjust="spacing" textLength="220.8281" x="13" y="427.2195">bezeichnung : str [0..1] = None</text><text fill="#000000" font-family="sans-serif" font-size="14" lengthAdjust="spacing" textLength="226.543" x="13" y="443.5164">beschreibung : str [0..1] = None</text><text fill="#000000" font-family="sans-serif" font-size="14" lengthAdjust="spacing" textLength="185.6367" x="13" y="459.8132">website : str [0..1] = None</text><text fill="#000000" font-family="sans-serif" font-size="14" lengthAdjust="spacing" textLength="237.6035" x="13" y="476.1101">zusatzprodukte : str [0..*] = None</text><text fill="#000000" font-family="sans-serif" font-size="14" lengthAdjust="spacing" textLength="249.71" x="13" y="492.407">voraussetzungen : str [0..*] = None</text><text fill="#000000" font-family="sans-serif" font-size="14" lengthAdjust="spacing" textLength="309.3535" x="13" y="508.7039">tarifnamensaenderungen : str [0..1] = None</text></g><!--link AufAbschlagRegional to COM--><g class="link" data-entity-1="AufAbschlagRegional" data-entity-2="COM" data-source-line="28" data-uid="lnk16" id="link_AufAbschlagRegional_COM"><path codeLine="28" d="M737.54,355.53 C787.53,342.91 838.86,330.31 887.44,319 C987.2,295.77 1086.8365,275.6144 1153.0665,262.6244" fill="none" id="AufAbschlagRegional-to-COM" style="stroke:#181818;stroke-width:1;"/><polygon fill="none" points="1170.73,259.16,1151.9117,256.7366,1154.2213,268.5122,1170.73,259.16" style="stroke:#181818;stroke-width:1;"/></g><!--link AufAbschlagRegional to AufAbschlagProOrt--><g class="link" data-entity-1="AufAbschlagRegional" data-entity-2="AufAbschlagProOrt" data-source-line="29" data-uid="lnk17" id="link_AufAbschlagRegional_AufAbschlagProOrt"><path codeLine="29" d="M565.14,355.7 C653.86,304.23 774.76,238.9 887.44,194 C971.38,160.55 996.21,163.56 1083.44,140 C1104.77,134.24 1116.3592,131.1395 1137.5992,125.5195" fill="none" id="AufAbschlagRegional-to-AufAbschlagProOrt" style="stroke:#181818;stroke-width:1;"/><polygon fill="#181818" points="1149.2,122.45,1142.3764,120.1178,1137.5992,125.5195,1144.4228,127.8517,1149.2,122.45" style="stroke:#181818;stroke-width:1;"/><text fill="#000000" font-family="sans-serif" font-size="13" lengthAdjust="spacing" textLength="58.9063" x="952.44" y="139.0669">betraege</text><text fill="#000000" font-family="sans-serif" font-size="13" lengthAdjust="spacing" textLength="23.0356" x="1105.1072" y="141.1024">0..*</text></g><!--link AufAbschlagRegional to AufAbschlagstyp--><g class="link" data-entity-1="AufAbschlagRegional" data-entity-2="AufAbschlagstyp" data-source-line="30" data-uid="lnk18" id="link_AufAbschlagRegional_AufAbschlagstyp"><path codeLine="30" d="M724.87,516.48 C879.63,559.18 1045.5924,604.9776 1141.4324,631.4276" fill="none" id="AufAbschlagRegional-to-AufAbschlagstyp" style="stroke:#181818;stroke-width:1;"/><polygon fill="#181818" points="1153,634.62,1148.2804,629.1679,1141.4324,631.4276,1146.1521,636.8796,1153,634.62" style="stroke:#181818;stroke-width:1;"/><text fill="#000000" font-family="sans-serif" font-size="13" lengthAdjust="spacing" textLength="107.7324" x="927.94" y="561.0669">aufAbschlagstyp</text><text fill="#000000" font-family="sans-serif" font-size="13" lengthAdjust="spacing" textLength="24.8066" x="1104.663" y="623.8108">0..1</text></g><!--link AufAbschlagRegional to AufAbschlagsziel--><g class="link" data-entity-1="AufAbschlagRegional" data-entity-2="AufAbschlagsziel" data-source-line="31" data-uid="lnk19" id="link_AufAbschlagRegional_AufAbschlagsziel"><path codeLine="31" d="M597.04,516.44 C682.31,556.35 789.05,603.32 887.44,638 C972.44,667.96 996.32,666.92 1083.44,690 C1105.04,695.72 1116.9188,698.872 1138.3588,704.542" fill="none" id="AufAbschlagRegional-to-AufAbschlagsziel" style="stroke:#181818;stroke-width:1;"/><polygon fill="#181818" points="1149.96,707.61,1145.1821,702.2089,1138.3588,704.542,1143.1367,709.943,1149.96,707.61" style="stroke:#181818;stroke-width:1;"/><text fill="#000000" font-family="sans-serif" font-size="13" lengthAdjust="spacing" textLength="108.7354" x="927.44" y="634.0669">aufAbschlagsziel</text><text fill="#000000" font-family="sans-serif" font-size="13" lengthAdjust="spacing" textLength="24.8066" x="1103.9519" y="697.8037">0..1</text></g><!--link AufAbschlagRegional to Waehrungseinheit--><g class="link" data-entity-1="AufAbschlagRegional" data-entity-2="Waehrungseinheit" data-source-line="32" data-uid="lnk20" id="link_AufAbschlagRegional_Waehrungseinheit"><path codeLine="32" d="M543.96,516.35 C632.99,577.71 763.26,660.42 887.44,713 C967.58,746.93 1052.4763,767.9102 1121.4763,781.8102" fill="none" id="AufAbschlagRegional-to-Waehrungseinheit" style="stroke:#181818;stroke-width:1;"/><polygon fill="#181818" points="1133.24,784.18,1128.1481,779.0739,1121.4763,781.8102,1126.5682,786.9163,1133.24,784.18" style="stroke:#181818;stroke-width:1;"/><text fill="#000000" font-family="sans-serif" font-size="13" lengthAdjust="spacing" textLength="44.7954" x="959.44" y="709.0669">einheit</text><text fill="#000000" font-family="sans-serif" font-size="13" lengthAdjust="spacing" textLength="24.8066" x="1100.7434" y="795.5635">0..1</text></g><!--link AufAbschlagRegional to Zeitraum--><g class="link" data-entity-1="AufAbschlagRegional" data-entity-2="Zeitraum" data-source-line="33" data-uid="lnk21" id="link_AufAbschlagRegional_Zeitraum"><path codeLine="33" d="M857.72,413.97 C976,407.83 1078.7562,402.5033 1147.2062,398.9433" fill="none" id="AufAbschlagRegional-to-Zeitraum" style="stroke:#181818;stroke-width:1;"/><polygon fill="#181818" points="1159.19,398.32,1152.9903,394.637,1147.2062,398.9433,1153.4059,402.6262,1159.19,398.32" style="stroke:#181818;stroke-width:1;"/><text fill="#000000" font-family="sans-serif" font-size="13" lengthAdjust="spacing" textLength="133.8149" x="914.94" y="399.0669">gueltigkeitszeitraum</text><text fill="#000000" font-family="sans-serif" font-size="13" lengthAdjust="spacing" textLength="24.8066" x="1126.806" y="411.5777">0..1</text></g><!--link AufAbschlagRegional to Energiemix--><g class="link" data-entity-1="AufAbschlagRegional" data-entity-2="Energiemix" data-source-line="34" data-uid="lnk22" id="link_AufAbschlagRegional_Energiemix"><path codeLine="34" d="M650.08,355.52 C775.68,310.45 937.36,255.04 1083.44,213 C1106.12,206.47 1119.3945,202.8016 1141.7945,196.9116" fill="none" id="AufAbschlagRegional-to-Energiemix" style="stroke:#181818;stroke-width:1;"/><polygon fill="#181818" points="1153.4,193.86,1146.58,191.5173,1141.7945,196.9116,1148.6145,199.2543,1153.4,193.86" style="stroke:#181818;stroke-width:1;"/><text fill="#000000" font-family="sans-serif" font-size="13" lengthAdjust="spacing" textLength="143.9395" x="909.94" y="215.0669">energiemixaenderung</text><text fill="#000000" font-family="sans-serif" font-size="13" lengthAdjust="spacing" textLength="24.8066" x="1120.8974" y="208.5491">0..1</text></g><!--link AufAbschlagRegional to Vertragskonditionen--><g class="link" data-entity-1="AufAbschlagRegional" data-entity-2="Vertragskonditionen" data-source-line="35" data-uid="lnk23" id="link_AufAbschlagRegional_Vertragskonditionen"><path codeLine="35" d="M857.72,492.42 C961.01,506.15 1049.7045,517.9401 1119.1245,527.1601" fill="none" id="AufAbschlagRegional-to-Vertragskonditionen" style="stroke:#181818;stroke-width:1;"/><polygon fill="#181818" points="1131.02,528.74,1125.5989,523.9849,1119.1245,527.1601,1124.5456,531.9152,1131.02,528.74" style="stroke:#181818;stroke-width:1;"/><text fill="#000000" font-family="sans-serif" font-size="13" lengthAdjust="spacing" textLength="186.9131" x="888.44" y="494.0669">vertagskonditionsaenderung</text><text fill="#000000" font-family="sans-serif" font-size="13" lengthAdjust="spacing" textLength="24.8066" x="1098.6669" y="540.433">0..1</text></g><!--link AufAbschlagRegional to Preisgarantie--><g class="link" data-entity-1="AufAbschlagRegional" data-entity-2="Preisgarantie" data-source-line="36" data-uid="lnk24" id="link_AufAbschlagRegional_Preisgarantie"><path codeLine="36" d="M857.83,457.82 C867.8,458.23 877.68,458.62 887.44,459 C977.04,462.47 1068.1428,464.7592 1136.2128,466.2392" fill="none" id="AufAbschlagRegional-to-Preisgarantie" style="stroke:#181818;stroke-width:1;"/><polygon fill="#181818" points="1148.21,466.5,1142.2984,462.3705,1136.2128,466.2392,1142.1245,470.3686,1148.21,466.5" style="stroke:#181818;stroke-width:1;"/><text fill="#000000" font-family="sans-serif" font-size="13" lengthAdjust="spacing" textLength="125.0044" x="918.94" y="455.0669">garantieaenderung</text><text fill="#000000" font-family="sans-serif" font-size="13" lengthAdjust="spacing" textLength="24.8066" x="1115.8572" y="479.1452">0..1</text></g><!--link AufAbschlagRegional to Tarifeinschraenkung--><g class="link" data-entity-1="AufAbschlagRegional" data-entity-2="Tarifeinschraenkung" data-source-line="37" data-uid="lnk25" id="link_AufAbschlagRegional_Tarifeinschraenkung"><path codeLine="37" d="M857.72,374.75 C961.19,359.81 1050.0828,346.9824 1119.5128,336.9724" fill="none" id="AufAbschlagRegional-to-Tarifeinschraenkung" style="stroke:#181818;stroke-width:1;"/><polygon fill="#181818" points="1131.39,335.26,1124.8806,332.1571,1119.5128,336.9724,1126.0222,340.0753,1131.39,335.26" style="stroke:#181818;stroke-width:1;"/><text fill="#000000" font-family="sans-serif" font-size="13" lengthAdjust="spacing" textLength="181.1177" x="890.94" y="340.0669">einschraenkungsaenderung</text><text fill="#000000" font-family="sans-serif" font-size="13" lengthAdjust="spacing" textLength="24.8066" x="1099.0664" y="348.9866">0..1</text></g><!--SRC=[nLPjQzim4FvS_ueZ-L0Or6vODuhf2cd8ka7NbAxRO5aOYdsnHMp9I7BJPjj_d-GciMEhwmki3XXqJqwFxj7BtIKuKw0u21h52a8gC52KCyS94Y8bTCRZ6KtGz_GlvYbw8cSCXRVWOkwTZ0w6UzcjYZdR6eSya9xhUgxYDtU6IZClLcdYaOnwKtw0Ri1Jro3TZKNo6PdA84v8933ICP34xUUp_WgxN65WmIQJ7-n8qYNwlVtZVn5sW4WR0VnoTdwgsmnyEACA1Kd6HmEUNjrcRl_B-_x9vy67i_xfvV3qu-YyV-R3hWNTFPx0k3U1Tt3_J6TdYakaGSno5kd5f18mtdVTOjevPsWST6W2wVHUZmLEfGxI_kSobqGjCy73VBxbywhqkUQ2v5AYMkeraDcT515qnaYAJ19a8OgwRxde7ySnZZ8Z0Vx_6mDhQp8fZdDjGdUutpzyEp1dsURbrNlFXQfUtGl1Hq910tdmsjvHrI_jtUGMHABcZIYczCOTRePG3krwobc5aDAz1GNc6um-WVximUglY58xj11UyUQGCfC1zAERwoVdNZKni61sEHR2Gfw5e0MvEXCgdObIz_jg0Ek1NStQlv2mTcqXxaodPnaHGPYYw5vKBTYox3AsfXTQjYQr8EWQXTxBICuv2waf_yZShqqCB9XTeeMm46eXqDNZ1Oe7ihnQFOnPBH_6XcxO2rw_ENo1-h69fbkQbRGlbUaUoeHlRAZPpNstiTHBXy5QLxUakDNP5G3KWKS8D6uDXGPiHUA2O6oQ9AdpQgoJa_kj1a0Tk4TYdQYGM9zhcYvhUxotz_juqnEPOcTtqtwle6DQlaxftUnPV9YYVh4OuGCqlKxvaXftrmTIkuFF92jkoZPRSTvFe6kSYW_hBNqSYzceJS7o8SenKJIQQqIk2zGJc2gDb0vaOsnQxYTGsJAs3oOLLq7v7Ehj6gT5huRFuR8rDCKPL81Aa4vCGuGKqoaAwSYOBy2wrapVWr3-1G00]--></g></svg>