<svg xmlns="http://www.w3.org/2000/svg" xmlns:xlink="http://www.w3.org/1999/xlink" contentStyleType="text/css" data-diagram-type="CLASS" height="501px" preserveAspectRatio="none" style="width:1341px;height:501px;background:#FFFFFF;" version="1.1" viewBox="0 0 1341 501" width="1341px" zoomAndPan="magnify"><defs/><g><!--cluster bo4e--><g class="cluster" data-entity="bo4e" data-source-line="16" data-uid="ent0005" id="cluster_bo4e"><path d="M1112.3,6 L1152.176,6 A3.75,3.75 0 0 1 1154.676,8.5 L1161.676,28.2969 L1332.3,28.2969 A2.5,2.5 0 0 1 1334.8,30.7969 L1334.8,491.5 A2.5,2.5 0 0 1 1332.3,494 L1112.3,494 A2.5,2.5 0 0 1 1109.8,491.5 L1109.8,8.5 A2.5,2.5 0 0 1 1112.3,6" fill="none" style="stroke:#000000;stroke-width:1.5;"/><line style="stroke:#000000;stroke-width:1.5;" x1="1109.8" x2="1161.676" y1="28.2969" y2="28.2969"/><text fill="#000000" font-family="sans-serif" font-size="14" font-weight="bold" lengthAdjust="spacing" textLength="38.876" x="1113.8" y="20.9951">bo4e</text></g><!--cluster com--><g class="cluster" data-entity="com" data-source-line="15" data-uid="ent0003" id="cluster_com"><path d="M1144.24,49 L1221.9392,49 A3.75,3.75 0 0 1 1224.4392,51.5 L1231.4392,71.2969 L1300.36,71.2969 A2.5,2.5 0 0 1 1302.86,73.7969 L1302.86,354.5 A2.5,2.5 0 0 1 1300.36,357 L1144.24,357 A2.5,2.5 0 0 1 1141.74,354.5 L1141.74,51.5 A2.5,2.5 0 0 1 1144.24,49" fill="#E0A86C" style="stroke:#000000;stroke-width:1.5;"/><line style="stroke:#000000;stroke-width:1.5;" x1="1141.74" x2="1231.4392" y1="71.2969" y2="71.2969"/><a href="file:////home/runner/work/BO4E-python/BO4E-python/docs/../.tox/docs/tmp/html/api/bo4e.com.html" target="_top" title="file:////home/runner/work/BO4E-python/BO4E-python/docs/../.tox/docs/tmp/html/api/bo4e.com.html" xlink:actuate="onRequest" xlink:href="file:////home/runner/work/BO4E-python/BO4E-python/docs/../.tox/docs/tmp/html/api/bo4e.com.html" xlink:show="new" xlink:title="file:////home/runner/work/BO4E-python/BO4E-python/docs/../.tox/docs/tmp/html/api/bo4e.com.html" xlink:type="simple"><text fill="#0000FF" font-family="sans-serif" font-size="14" font-weight="bold" lengthAdjust="spacing" text-decoration="underline" textLength="76.6992" x="1145.74" y="63.9951">bo4e.com</text></a></g><!--cluster enum--><g class="cluster" data-entity="enum" data-source-line="21" data-uid="ent0009" id="cluster_enum"><path d="M1136.3,381 L1225.5109,381 A3.75,3.75 0 0 1 1228.0109,383.5 L1235.0109,403.2969 L1308.3,403.2969 A2.5,2.5 0 0 1 1310.8,405.7969 L1310.8,467.5 A2.5,2.5 0 0 1 1308.3,470 L1136.3,470 A2.5,2.5 0 0 1 1133.8,467.5 L1133.8,383.5 A2.5,2.5 0 0 1 1136.3,381" fill="#D1C358" style="stroke:#000000;stroke-width:1.5;"/><line style="stroke:#000000;stroke-width:1.5;" x1="1133.8" x2="1235.0109" y1="403.2969" y2="403.2969"/><a href="file:////home/runner/work/BO4E-python/BO4E-python/docs/../.tox/docs/tmp/html/api/bo4e.enum.html" target="_top" title="file:////home/runner/work/BO4E-python/BO4E-python/docs/../.tox/docs/tmp/html/api/bo4e.enum.html" xlink:actuate="onRequest" xlink:href="file:////home/runner/work/BO4E-python/BO4E-python/docs/../.tox/docs/tmp/html/api/bo4e.enum.html" xlink:show="new" xlink:title="file:////home/runner/work/BO4E-python/BO4E-python/docs/../.tox/docs/tmp/html/api/bo4e.enum.html" xlink:type="simple"><text fill="#0000FF" font-family="sans-serif" font-size="14" font-weight="bold" lengthAdjust="spacing" text-decoration="underline" textLength="88.2109" x="1137.8" y="395.9951">bo4e.enum</text></a></g><!--class Adresse--><g class="entity" data-entity="Adresse" data-source-line="16" data-uid="ent0004" id="entity_Adresse"><rect fill="#F1F1F1" height="37.9375" rx="2.5" ry="2.5" style="stroke:#181818;stroke-width:0.5;" width="124.0068" x="1160.3" y="84.03"/><ellipse cx="1175.3" cy="102.9987" fill="#ADD1B2" rx="11" ry="11" style="stroke:#181818;stroke-width:1;"/><path d="M1178.2688,108.6394 Q1177.6906,108.9362 1177.05,109.0769 Q1176.4094,109.2331 1175.7063,109.2331 Q1173.2063,109.2331 1171.8781,107.5925 Q1170.5656,105.9362 1170.5656,102.8112 Q1170.5656,99.6862 1171.8781,98.03 Q1173.2063,96.3737 1175.7063,96.3737 Q1176.4094,96.3737 1177.05,96.53 Q1177.7063,96.6862 1178.2688,96.9831 L1178.2688,99.7019 Q1177.6438,99.1237 1177.05,98.8581 Q1176.4563,98.5769 1175.8313,98.5769 Q1174.4875,98.5769 1173.8,99.655 Q1173.1125,100.7175 1173.1125,102.8112 Q1173.1125,104.905 1173.8,105.9831 Q1174.4875,107.0456 1175.8313,107.0456 Q1176.4563,107.0456 1177.05,106.78 Q1177.6438,106.4987 1178.2688,105.9206 L1178.2688,108.6394 Z " fill="#000000"/><a href="file:////home/runner/work/BO4E-python/BO4E-python/docs/../.tox/docs/tmp/html/api/bo4e.com.html#bo4e.com.adresse.Adresse" target="_top" title="file:////home/runner/work/BO4E-python/BO4E-python/docs/../.tox/docs/tmp/html/api/bo4e.com.html#bo4e.com.adresse.Adresse" xlink:actuate="onRequest" xlink:href="file:////home/runner/work/BO4E-python/BO4E-python/docs/../.tox/docs/tmp/html/api/bo4e.com.html#bo4e.com.adresse.Adresse" xlink:show="new" xlink:title="file:////home/runner/work/BO4E-python/BO4E-python/docs/../.tox/docs/tmp/html/api/bo4e.com.html#bo4e.com.adresse.Adresse" xlink:type="simple"><text fill="#0000FF" font-family="sans-serif" font-size="14" lengthAdjust="spacing" text-decoration="underline" textLength="56.0342" x="1207.2863" y="102.0251">Adresse</text></a><text fill="#000000" font-family="sans-serif" font-size="10" lengthAdjust="spacing" textLength="92.0068" x="1189.3" y="114.6091">bo4e.com.adresse</text></g><!--class Zeitraum--><g class="entity" data-entity="Zeitraum" data-source-line="17" data-uid="ent0006" id="entity_Zeitraum"><rect fill="#F1F1F1" height="37.9375" rx="2.5" ry="2.5" style="stroke:#181818;stroke-width:0.5;" width="129.1143" x="1157.74" y="157.03"/><ellipse cx="1172.74" cy="175.9987" fill="#ADD1B2" rx="11" ry="11" style="stroke:#181818;stroke-width:1;"/><path d="M1175.7088,181.6394 Q1175.1306,181.9362 1174.49,182.0769 Q1173.8494,182.2331 1173.1463,182.2331 Q1170.6463,182.2331 1169.3181,180.5925 Q1168.0056,178.9362 1168.0056,175.8112 Q1168.0056,172.6862 1169.3181,171.03 Q1170.6463,169.3737 1173.1463,169.3737 Q1173.8494,169.3737 1174.49,169.53 Q1175.1463,169.6862 1175.7088,169.9831 L1175.7088,172.7019 Q1175.0838,172.1237 1174.49,171.8581 Q1173.8963,171.5769 1173.2713,171.5769 Q1171.9275,171.5769 1171.24,172.655 Q1170.5525,173.7175 1170.5525,175.8112 Q1170.5525,177.905 1171.24,178.9831 Q1171.9275,180.0456 1173.2713,180.0456 Q1173.8963,180.0456 1174.49,179.78 Q1175.0838,179.4987 1175.7088,178.9206 L1175.7088,181.6394 Z " fill="#000000"/><a href="file:////home/runner/work/BO4E-python/BO4E-python/docs/../.tox/docs/tmp/html/api/bo4e.com.html#bo4e.com.zeitraum.Zeitraum" target="_top" title="file:////home/runner/work/BO4E-python/BO4E-python/docs/../.tox/docs/tmp/html/api/bo4e.com.html#bo4e.com.zeitraum.Zeitraum" xlink:actuate="onRequest" xlink:href="file:////home/runner/work/BO4E-python/BO4E-python/docs/../.tox/docs/tmp/html/api/bo4e.com.html#bo4e.com.zeitraum.Zeitraum" xlink:show="new" xlink:title="file:////home/runner/work/BO4E-python/BO4E-python/docs/../.tox/docs/tmp/html/api/bo4e.com.html#bo4e.com.zeitraum.Zeitraum" xlink:type="simple"><text fill="#0000FF" font-family="sans-serif" font-size="14" lengthAdjust="spacing" text-decoration="underline" textLength="64.4287" x="1203.0828" y="175.0251">Zeitraum</text></a><text fill="#000000" font-family="sans-serif" font-size="10" lengthAdjust="spacing" textLength="97.1143" x="1186.74" y="187.6091">bo4e.com.zeitraum</text></g><!--class Menge--><g class="entity" data-entity="Menge" data-source-line="18" data-uid="ent0007" id="entity_Menge"><rect fill="#F1F1F1" height="37.9375" rx="2.5" ry="2.5" style="stroke:#181818;stroke-width:0.5;" width="119.4268" x="1162.59" y="230.03"/><ellipse cx="1177.59" cy="248.9987" fill="#ADD1B2" rx="11" ry="11" style="stroke:#181818;stroke-width:1;"/><path d="M1180.5588,254.6394 Q1179.9806,254.9362 1179.34,255.0769 Q1178.6994,255.2331 1177.9963,255.2331 Q1175.4963,255.2331 1174.1681,253.5925 Q1172.8556,251.9362 1172.8556,248.8112 Q1172.8556,245.6862 1174.1681,244.03 Q1175.4963,242.3737 1177.9963,242.3737 Q1178.6994,242.3737 1179.34,242.53 Q1179.9963,242.6862 1180.5588,242.9831 L1180.5588,245.7019 Q1179.9338,245.1237 1179.34,244.8581 Q1178.7463,244.5769 1178.1213,244.5769 Q1176.7775,244.5769 1176.09,245.655 Q1175.4025,246.7175 1175.4025,248.8112 Q1175.4025,250.905 1176.09,251.9831 Q1176.7775,253.0456 1178.1213,253.0456 Q1178.7463,253.0456 1179.34,252.78 Q1179.9338,252.4987 1180.5588,251.9206 L1180.5588,254.6394 Z " fill="#000000"/><a href="file:////home/runner/work/BO4E-python/BO4E-python/docs/../.tox/docs/tmp/html/api/bo4e.com.html#bo4e.com.menge.Menge" target="_top" title="file:////home/runner/work/BO4E-python/BO4E-python/docs/../.tox/docs/tmp/html/api/bo4e.com.html#bo4e.com.menge.Menge" xlink:actuate="onRequest" xlink:href="file:////home/runner/work/BO4E-python/BO4E-python/docs/../.tox/docs/tmp/html/api/bo4e.com.html#bo4e.com.menge.Menge" xlink:show="new" xlink:title="file:////home/runner/work/BO4E-python/BO4E-python/docs/../.tox/docs/tmp/html/api/bo4e.com.html#bo4e.com.menge.Menge" xlink:type="simple"><text fill="#0000FF" font-family="sans-serif" font-size="14" lengthAdjust="spacing" text-decoration="underline" textLength="47.0654" x="1211.7707" y="248.0251">Menge</text></a><text fill="#000000" font-family="sans-serif" font-size="10" lengthAdjust="spacing" textLength="87.4268" x="1191.59" y="260.6091">bo4e.com.menge</text></g><!--class COM--><g class="entity" data-entity="COM" data-source-line="19" data-uid="ent0008" id="entity_COM"><rect fill="#F1F1F1" height="37.9375" rx="2.5" ry="2.5" style="stroke:#181818;stroke-width:0.5;" width="106.0527" x="1169.27" y="303.03"/><ellipse cx="1184.27" cy="321.9988" fill="#ADD1B2" rx="11" ry="11" style="stroke:#181818;stroke-width:1;"/><path d="M1187.2388,327.6394 Q1186.6606,327.9363 1186.02,328.0769 Q1185.3794,328.2331 1184.6763,328.2331 Q1182.1763,328.2331 1180.8481,326.5925 Q1179.5356,324.9363 1179.5356,321.8113 Q1179.5356,318.6863 1180.8481,317.03 Q1182.1763,315.3738 1184.6763,315.3738 Q1185.3794,315.3738 1186.02,315.53 Q1186.6763,315.6863 1187.2388,315.9831 L1187.2388,318.7019 Q1186.6138,318.1238 1186.02,317.8581 Q1185.4263,317.5769 1184.8013,317.5769 Q1183.4575,317.5769 1182.77,318.655 Q1182.0825,319.7175 1182.0825,321.8113 Q1182.0825,323.905 1182.77,324.9831 Q1183.4575,326.0456 1184.8013,326.0456 Q1185.4263,326.0456 1186.02,325.78 Q1186.6138,325.4988 1187.2388,324.9206 L1187.2388,327.6394 Z " fill="#000000"/><a href="file:////home/runner/work/BO4E-python/BO4E-python/docs/../.tox/docs/tmp/html/api/bo4e.com.html#bo4e.com.com.COM" target="_top" title="file:////home/runner/work/BO4E-python/BO4E-python/docs/../.tox/docs/tmp/html/api/bo4e.com.html#bo4e.com.com.COM" xlink:actuate="onRequest" xlink:href="file:////home/runner/work/BO4E-python/BO4E-python/docs/../.tox/docs/tmp/html/api/bo4e.com.html#bo4e.com.com.COM" xlink:show="new" xlink:title="file:////home/runner/work/BO4E-python/BO4E-python/docs/../.tox/docs/tmp/html/api/bo4e.com.html#bo4e.com.com.COM" xlink:type="simple"><text fill="#0000FF" font-family="sans-serif" font-size="14" lengthAdjust="spacing" text-decoration="underline" textLength="32.874" x="1218.8594" y="321.0251">COM</text></a><text fill="#000000" font-family="sans-serif" font-size="10" lengthAdjust="spacing" textLength="74.0527" x="1198.27" y="333.6091">bo4e.com.com</text></g><!--class Zaehlertyp--><g class="entity" data-entity="Zaehlertyp" data-source-line="22" data-uid="ent0010" id="entity_Zaehlertyp"><rect fill="#F1F1F1" height="37.9375" rx="2.5" ry="2.5" style="stroke:#181818;stroke-width:0.5;" width="145.0029" x="1149.8" y="416.03"/><ellipse cx="1164.8" cy="434.9988" fill="#ADD1B2" rx="11" ry="11" style="stroke:#181818;stroke-width:1;"/><path d="M1167.7688,440.6394 Q1167.1906,440.9363 1166.55,441.0769 Q1165.9094,441.2331 1165.2063,441.2331 Q1162.7063,441.2331 1161.3781,439.5925 Q1160.0656,437.9363 1160.0656,434.8113 Q1160.0656,431.6863 1161.3781,430.03 Q1162.7063,428.3738 1165.2063,428.3738 Q1165.9094,428.3738 1166.55,428.53 Q1167.2063,428.6863 1167.7688,428.9831 L1167.7688,431.7019 Q1167.1438,431.1238 1166.55,430.8581 Q1165.9563,430.5769 1165.3313,430.5769 Q1163.9875,430.5769 1163.3,431.655 Q1162.6125,432.7175 1162.6125,434.8113 Q1162.6125,436.905 1163.3,437.9831 Q1163.9875,439.0456 1165.3313,439.0456 Q1165.9563,439.0456 1166.55,438.78 Q1167.1438,438.4988 1167.7688,437.9206 L1167.7688,440.6394 Z " fill="#000000"/><a href="file:////home/runner/work/BO4E-python/BO4E-python/docs/../.tox/docs/tmp/html/api/bo4e.enum.html#bo4e.enum.zaehlertyp.Zaehlertyp" target="_top" title="file:////home/runner/work/BO4E-python/BO4E-python/docs/../.tox/docs/tmp/html/api/bo4e.enum.html#bo4e.enum.zaehlertyp.Zaehlertyp" xlink:actuate="onRequest" xlink:href="file:////home/runner/work/BO4E-python/BO4E-python/docs/../.tox/docs/tmp/html/api/bo4e.enum.html#bo4e.enum.zaehlertyp.Zaehlertyp" xlink:show="new" xlink:title="file:////home/runner/work/BO4E-python/BO4E-python/docs/../.tox/docs/tmp/html/api/bo4e.enum.html#bo4e.enum.zaehlertyp.Zaehlertyp" xlink:type="simple"><text fill="#0000FF" font-family="sans-serif" font-size="14" lengthAdjust="spacing" text-decoration="underline" textLength="76.5762" x="1197.0134" y="434.0251">Zaehlertyp</text></a><text fill="#000000" font-family="sans-serif" font-size="10" lengthAdjust="spacing" textLength="113.0029" x="1178.8" y="446.6091">bo4e.enum.zaehlertyp</text></g><!--class Ausschreibungsdetail--><g class="entity" data-entity="Ausschreibungsdetail" data-source-line="3" data-uid="ent0002" id="entity_Ausschreibungsdetail"><rect fill="#F1F1F1" height="192.6094" rx="2.5" ry="2.5" style="stroke:#181818;stroke-width:0.5;" width="860.7979" x="7" y="151.7"/><ellipse cx="353.5762" cy="170.6688" fill="#ADD1B2" rx="11" ry="11" style="stroke:#181818;stroke-width:1;"/><path d="M356.5449,176.3094 Q355.9668,176.6063 355.3262,176.7469 Q354.6855,176.9031 353.9824,176.9031 Q351.4824,176.9031 350.1543,175.2625 Q348.8418,173.6063 348.8418,170.4813 Q348.8418,167.3563 350.1543,165.7 Q351.4824,164.0438 353.9824,164.0438 Q354.6855,164.0438 355.3262,164.2 Q355.9824,164.3563 356.5449,164.6531 L356.5449,167.3719 Q355.9199,166.7938 355.3262,166.5281 Q354.7324,166.2469 354.1074,166.2469 Q352.7637,166.2469 352.0762,167.325 Q351.3887,168.3875 351.3887,170.4813 Q351.3887,172.575 352.0762,173.6531 Q352.7637,174.7156 354.1074,174.7156 Q354.7324,174.7156 355.3262,174.45 Q355.9199,174.1688 356.5449,173.5906 L356.5449,176.3094 Z " fill="#000000"/><a href="file:////home/runner/work/BO4E-python/BO4E-python/docs/../.tox/docs/tmp/html/api/bo4e.com.html#bo4e.com.ausschreibungsdetail.Ausschreibungsdetail" target="_top" title="file:////home/runner/work/BO4E-python/BO4E-python/docs/../.tox/docs/tmp/html/api/bo4e.com.html#bo4e.com.ausschreibungsdetail.Ausschreibungsdetail" xlink:actuate="onRequest" xlink:href="file:////home/runner/work/BO4E-python/BO4E-python/docs/../.tox/docs/tmp/html/api/bo4e.com.html#bo4e.com.ausschreibungsdetail.Ausschreibungsdetail" xlink:show="new" xlink:title="file:////home/runner/work/BO4E-python/BO4E-python/docs/../.tox/docs/tmp/html/api/bo4e.com.html#bo4e.com.ausschreibungsdetail.Ausschreibungsdetail" xlink:type="simple"><text fill="#0000FF" font-family="sans-serif" font-size="14" lengthAdjust="spacing" text-decoration="underline" textLength="150.0283" x="378.6348" y="169.6951">Ausschreibungsdetail</text></a><text fill="#000000" font-family="sans-serif" font-size="10" lengthAdjust="spacing" textLength="159.1455" x="374.0762" y="182.2791">bo4e.com.ausschreibungsdetail</text><line style="stroke:#181818;stroke-width:0.5;" x1="8" x2="866.7979" y1="189.6375" y2="189.6375"/><text fill="#000000" font-family="sans-serif" font-size="14" lengthAdjust="spacing" textLength="848.7979" x="13" y="206.6326">_typ : Literal[&lt;ComTyp.AUSSCHREIBUNGSDETAIL: 'AUSSCHREIBUNGSDETAIL'&gt;] [1] = ComTyp.AUSSCHREIBUNGSDETAIL</text><text fill="#000000" font-family="sans-serif" font-size="14" lengthAdjust="spacing" textLength="249.2383" x="13" y="222.9295">marktlokationsId : str [0..1] = None</text><text fill="#000000" font-family="sans-serif" font-size="14" lengthAdjust="spacing" textLength="271.5576" x="13" y="239.2264">netzebeneLieferung : str [0..1] = None</text><text fill="#000000" font-family="sans-serif" font-size="14" lengthAdjust="spacing" textLength="267.2373" x="13" y="255.5232">netzebeneMessung : str [0..1] = None</text><text fill="#000000" font-family="sans-serif" font-size="14" lengthAdjust="spacing" textLength="226.2285" x="13" y="271.8201">netzbetreiber : str [0..1] = None</text><text fill="#000000" font-family="sans-serif" font-size="14" lengthAdjust="spacing" textLength="174.7539" x="13" y="288.117">kunde : str [0..1] = None</text><text fill="#000000" font-family="sans-serif" font-size="14" lengthAdjust="spacing" textLength="242.4639" x="13" y="304.4139">zaehlernummer : str [0..1] = None</text><text fill="#000000" font-family="sans-serif" font-size="14" lengthAdjust="spacing" textLength="325.6504" x="13" y="320.7107">marktlokationsbezeichnung : str [0..1] = None</text><text fill="#000000" font-family="sans-serif" font-size="14" lengthAdjust="spacing" textLength="300.4258" x="13" y="337.0076">istLastgangVorhanden : bool [0..1] = None</text></g><!--link Ausschreibungsdetail to COM--><g class="link" data-entity-1="Ausschreibungsdetail" data-entity-2="COM" data-source-line="25" data-uid="lnk11" id="link_Ausschreibungsdetail_COM"><path codeLine="25" d="M719.73,344.77 C835.54,372.93 971.06,390.9 1093.8,369 C1123.64,363.67 1139.0953,358.9169 1163.5753,348.4669" fill="none" id="Ausschreibungsdetail-to-COM" style="stroke:#181818;stroke-width:1;"/><polygon fill="none" points="1180.13,341.4,1161.2196,342.9486,1165.9309,353.9851,1180.13,341.4" style="stroke:#181818;stroke-width:1;"/></g><!--link Ausschreibungsdetail to Adresse--><g class="link" data-entity-1="Ausschreibungsdetail" data-entity-2="Adresse" data-source-line="26" data-uid="lnk12" id="link_Ausschreibungsdetail_Adresse"><path codeLine="26" d="M666.02,151.23 C738.72,124.97 820.42,100.17 897.8,87 C988.16,71.62 1082.7322,80.5437 1148.1422,90.3337" fill="none" id="Ausschreibungsdetail-to-Adresse" style="stroke:#181818;stroke-width:1;"/><polygon fill="#181818" points="1160.01,92.11,1154.6682,87.2659,1148.1422,90.3337,1153.484,95.1778,1160.01,92.11" style="stroke:#181818;stroke-width:1;"/><text fill="#000000" font-family="sans-serif" font-size="13" lengthAdjust="spacing" textLength="148.4399" x="921.8" y="76.0669">marktlokationsadresse</text><text fill="#000000" font-family="sans-serif" font-size="13" lengthAdjust="spacing" textLength="24.8066" x="1127.4665" y="103.7927">0..1</text></g><!--link Ausschreibungsdetail to Adresse--><g class="link" data-entity-1="Ausschreibungsdetail" data-entity-2="Adresse" data-source-line="27" data-uid="lnk13" id="link_Ausschreibungsdetail_Adresse"><path codeLine="27" d="M868.21,168.39 C983.47,147.05 1082.4507,128.7156 1148.2607,116.5256" fill="none" id="Ausschreibungsdetail-to-Adresse-1" style="stroke:#181818;stroke-width:1;"/><polygon fill="#181818" points="1160.06,114.34,1153.4318,111.4997,1148.2607,116.5256,1154.8889,119.3659,1160.06,114.34" style="stroke:#181818;stroke-width:1;"/><text fill="#000000" font-family="sans-serif" font-size="13" lengthAdjust="spacing" textLength="119.5771" x="936.3" y="124.0669">rechnungsadresse</text><text fill="#000000" font-family="sans-serif" font-size="13" lengthAdjust="spacing" textLength="24.8066" x="1127.5222" y="128.5931">0..1</text></g><!--link Ausschreibungsdetail to Zeitraum--><g class="link" data-entity-1="Ausschreibungsdetail" data-entity-2="Zeitraum" data-source-line="28" data-uid="lnk14" id="link_Ausschreibungsdetail_Zeitraum"><path codeLine="28" d="M868.21,208.47 C981.87,198.02 1079.2204,189.0688 1145.3404,182.9888" fill="none" id="Ausschreibungsdetail-to-Zeitraum" style="stroke:#181818;stroke-width:1;"/><polygon fill="#181818" points="1157.29,181.89,1150.9489,178.4562,1145.3404,182.9888,1151.6815,186.4226,1157.29,181.89" style="stroke:#181818;stroke-width:1;"/><text fill="#000000" font-family="sans-serif" font-size="13" lengthAdjust="spacing" textLength="90.8857" x="950.8" y="185.0669">lieferzeitraum</text><text fill="#000000" font-family="sans-serif" font-size="13" lengthAdjust="spacing" textLength="24.8066" x="1124.9115" y="195.4288">0..1</text></g><!--link Ausschreibungsdetail to Zaehlertyp--><g class="link" data-entity-1="Ausschreibungsdetail" data-entity-2="Zaehlertyp" data-source-line="29" data-uid="lnk15" id="link_Ausschreibungsdetail_Zaehlertyp"><path codeLine="29" d="M688.79,344.73 C755.82,367.38 828.83,389.2 897.8,404 C983.16,422.32 1071.5529,429.2628 1137.5929,432.3328" fill="none" id="Ausschreibungsdetail-to-Zaehlertyp" style="stroke:#181818;stroke-width:1;"/><polygon fill="#181818" points="1149.58,432.89,1143.7722,428.6157,1137.5929,432.3328,1143.4007,436.6071,1149.58,432.89" style="stroke:#181818;stroke-width:1;"/><text fill="#000000" font-family="sans-serif" font-size="13" lengthAdjust="spacing" textLength="95.8433" x="948.3" y="400.0669">zaehlertechnik</text><text fill="#000000" font-family="sans-serif" font-size="13" lengthAdjust="spacing" textLength="24.8066" x="1116.8847" y="445.5197">0..1</text></g><!--link Ausschreibungsdetail to Menge--><g class="link" data-entity-1="Ausschreibungsdetail" data-entity-2="Menge" data-source-line="30" data-uid="lnk16" id="link_Ausschreibungsdetail_Menge"><path codeLine="30" d="M868.21,248.55 C984.72,248.7 1084.64,248.8254 1150.18,248.9054" fill="none" id="Ausschreibungsdetail-to-Menge" style="stroke:#181818;stroke-width:1;"/><polygon fill="#181818" points="1162.18,248.92,1156.1849,244.9127,1150.18,248.9054,1156.1751,252.9127,1162.18,248.92" style="stroke:#181818;stroke-width:1;"/><text fill="#000000" font-family="sans-serif" font-size="13" lengthAdjust="spacing" textLength="139.1914" x="926.3" y="245.0669">prognoseJahresarbeit</text><text fill="#000000" font-family="sans-serif" font-size="13" lengthAdjust="spacing" textLength="24.8066" x="1129.8874" y="261.8527">0..1</text></g><!--link Ausschreibungsdetail to Menge--><g class="link" data-entity-1="Ausschreibungsdetail" data-entity-2="Menge" data-source-line="31" data-uid="lnk17" id="link_Ausschreibungsdetail_Menge"><path codeLine="31" d="M868.1,281.81 C943.42,282.96 1020.98,281.07 1093.8,274 C1116.36,271.81 1129.1104,269.9287 1150.5504,265.4787" fill="none" id="Ausschreibungsdetail-to-Menge-1" style="stroke:#181818;stroke-width:1;"/><polygon fill="#181818" points="1162.3,263.04,1155.6123,260.3428,1150.5504,265.4787,1157.2381,268.1759,1162.3,263.04" style="stroke:#181818;stroke-width:1;"/><text fill="#000000" font-family="sans-serif" font-size="13" lengthAdjust="spacing" textLength="194.4795" x="898.8" y="270.0669">prognoseArbeitLieferzeitraum</text><text fill="#000000" font-family="sans-serif" font-size="13" lengthAdjust="spacing" textLength="24.8066" x="1129.5737" y="277.7403">0..1</text></g><!--link Ausschreibungsdetail to Menge--><g class="link" data-entity-1="Ausschreibungsdetail" data-entity-2="Menge" data-source-line="32" data-uid="lnk18" id="link_Ausschreibungsdetail_Menge"><path codeLine="32" d="M690.88,344.74 C821.94,377.86 978.33,388.87 1093.8,308 C1102.32,302.03 1094.26,293.18 1101.8,286 C1118.15,270.42 1129.2849,264.2463 1150.5849,259.0263" fill="none" id="Ausschreibungsdetail-to-Menge-2" style="stroke:#181818;stroke-width:1;"/><polygon fill="#181818" points="1162.24,256.17,1155.4603,253.7131,1150.5849,259.0263,1157.3646,261.4832,1162.24,256.17" style="stroke:#181818;stroke-width:1;"/><text fill="#000000" font-family="sans-serif" font-size="13" lengthAdjust="spacing" textLength="116.2192" x="937.8" y="304.0669">prognoseLeistung</text><text fill="#000000" font-family="sans-serif" font-size="13" lengthAdjust="spacing" textLength="24.8066" x="1129.9543" y="253.2066">0..1</text></g><!--SRC=[nLLjRvim4FuSViKf-L1fKaogTLE5kaeqYxPCj9MMTX-QHPE12rZ1Dh8TTSss_pu3WRGToRPEQv0CT-Qvu-5yBndE3HW9YYMfWPWfZ0oJmd6YZ6eDtUbqpZBqN7kbagEhbaAWSc-bMhXdbqUZVdvdKYaUoB6Cj4k8IupyMYc6vsvgUERIdBcXF48IIKwAdLwZqQNMKQgGXKkHw1WDPHdnMpQXRNCs-onED5kXTpWutUcp2rItke1lJkUBkSl1Wu0PL3IRdWmblxhBYNyzcGpVVnoDpwultatUZgxySU31GTlsmUaCfeSpU0CxR9qEfsfXChcWHRJrEBOVrKR1T418QNmX1JeTWMQ58GeC6CxHnZxv3UuSjTw92j4KVusg7R9OYXZRNwqefXagiUHyc_N3dmfnXInAnLO-J9k0QfDGaNoIAgNsqy8YGocpHz0VZYCeHvtJ2Fz_JaAjpMPbijGgz4O3__Zri4YKvo-FMDcpHU9NJrW_j-HzzR9AzKhU0sLx_4RH9IStQm5gePrrZIzfrz0zyEOe4YJdnHtAUplT4bPoBK5x85giuUKvsDLEqQwIe0NO6dg64aBR7kxLKA7UBw92Xrvy6BryTVmCLTImwMtKTHkpVPxSD29in5y3-SYioiv6BNfJ-vZgzx-VDhsZEASjE0jy0TsYttKtyBhCFNZOLDUL_JHNThYNxVWfNfeQzY0hXr5ThN_gf0pZlP1xKCUqOCKMVqEcgaqFSYKJ8JL-eDPCKnLQJl_Ynoyz14_wlpP_0TePPuqS9sLshdBaTl9gHwVo5jhTpXbciVu9]--></g></svg>