<?xml version="1.0" encoding="us-ascii" standalone="no"?><svg xmlns="http://www.w3.org/2000/svg" xmlns:xlink="http://www.w3.org/1999/xlink" contentStyleType="text/css" height="762px" preserveAspectRatio="none" style="width:753px;height:762px;background:#FFFFFF;" version="1.1" viewBox="0 0 753 762" width="753px" zoomAndPan="magnify"><defs/><g><!--cluster bo4e--><g id="cluster_bo4e"><path d="M485.5,48.66 L526.5,48.66 A3.75,3.75 0 0 1 529,51.16 L536,70.9569 L743.5,70.9569 A2.5,2.5 0 0 1 746,73.4569 L746,753.16 A2.5,2.5 0 0 1 743.5,755.66 L485.5,755.66 A2.5,2.5 0 0 1 483,753.16 L483,51.16 A2.5,2.5 0 0 1 485.5,48.66 " fill="none" style="stroke:#000000;stroke-width:1.5;"/><line style="stroke:#000000;stroke-width:1.5;" x1="483" x2="536" y1="70.9569" y2="70.9569"/><text fill="#000000" font-family="sans-serif" font-size="14" font-weight="bold" lengthAdjust="spacing" textLength="40" x="487" y="63.6551">bo4e</text></g><!--cluster com--><g id="cluster_com"><path d="M509.5,91.66 L588.5,91.66 A3.75,3.75 0 0 1 591,94.16 L598,113.9569 L719.5,113.9569 A2.5,2.5 0 0 1 722,116.4569 L722,397.16 A2.5,2.5 0 0 1 719.5,399.66 L509.5,399.66 A2.5,2.5 0 0 1 507,397.16 L507,94.16 A2.5,2.5 0 0 1 509.5,91.66 " fill="#E0A86C" style="stroke:#000000;stroke-width:1.5;"/><line style="stroke:#000000;stroke-width:1.5;" x1="507" x2="598" y1="113.9569" y2="113.9569"/><a href="https://bo4e.github.io/BO4E-python/latest/api/bo4e.com.html" target="_top" title="https://bo4e.github.io/BO4E-python/latest/api/bo4e.com.html" xlink:actuate="onRequest" xlink:href="https://bo4e.github.io/BO4E-python/latest/api/bo4e.com.html" xlink:show="new" xlink:title="https://bo4e.github.io/BO4E-python/latest/api/bo4e.com.html" xlink:type="simple"><text fill="#0000FF" font-family="sans-serif" font-size="14" font-weight="bold" lengthAdjust="spacing" text-decoration="underline" textLength="78" x="511" y="106.6551">bo4e.com</text></a></g><!--cluster enum--><g id="cluster_enum"><path d="M515,423.66 L605,423.66 A3.75,3.75 0 0 1 607.5,426.16 L614.5,445.9569 L714,445.9569 A2.5,2.5 0 0 1 716.5,448.4569 L716.5,729.16 A2.5,2.5 0 0 1 714,731.66 L515,731.66 A2.5,2.5 0 0 1 512.5,729.16 L512.5,426.16 A2.5,2.5 0 0 1 515,423.66 " fill="#D1C358" style="stroke:#000000;stroke-width:1.5;"/><line style="stroke:#000000;stroke-width:1.5;" x1="512.5" x2="614.5" y1="445.9569" y2="445.9569"/><a href="https://bo4e.github.io/BO4E-python/latest/api/bo4e.enum.html" target="_top" title="https://bo4e.github.io/BO4E-python/latest/api/bo4e.enum.html" xlink:actuate="onRequest" xlink:href="https://bo4e.github.io/BO4E-python/latest/api/bo4e.enum.html" xlink:show="new" xlink:title="https://bo4e.github.io/BO4E-python/latest/api/bo4e.enum.html" xlink:type="simple"><text fill="#0000FF" font-family="sans-serif" font-size="14" font-weight="bold" lengthAdjust="spacing" text-decoration="underline" textLength="89" x="516.5" y="438.6551">bo4e.enum</text></a></g><!--class Menge--><g id="elem_Menge"><rect codeLine="12" fill="#F1F1F1" height="37.9375" id="Menge" rx="2.5" ry="2.5" style="stroke:#181818;stroke-width:0.5;" width="117" x="556" y="126.69"/><ellipse cx="571" cy="145.6587" fill="#ADD1B2" rx="11" ry="11" style="stroke:#181818;stroke-width:1.0;"/><path d="M573.9688,151.2994 Q573.3906,151.5962 572.75,151.7369 Q572.1094,151.8931 571.4063,151.8931 Q568.9063,151.8931 567.5781,150.2525 Q566.2656,148.5962 566.2656,145.4712 Q566.2656,142.3462 567.5781,140.69 Q568.9063,139.0337 571.4063,139.0337 Q572.1094,139.0337 572.75,139.19 Q573.4063,139.3462 573.9688,139.6431 L573.9688,142.3619 Q573.3438,141.7837 572.75,141.5181 Q572.1563,141.2369 571.5313,141.2369 Q570.1875,141.2369 569.5,142.315 Q568.8125,143.3775 568.8125,145.4712 Q568.8125,147.565 569.5,148.6431 Q570.1875,149.7056 571.5313,149.7056 Q572.1563,149.7056 572.75,149.44 Q573.3438,149.1587 573.9688,148.5806 L573.9688,151.2994 Z " fill="#000000"/><a href="https://bo4e.github.io/BO4E-python/latest/api/bo4e.com.html#bo4e.com.menge.Menge" target="_top" title="https://bo4e.github.io/BO4E-python/latest/api/bo4e.com.html#bo4e.com.menge.Menge" xlink:actuate="onRequest" xlink:href="https://bo4e.github.io/BO4E-python/latest/api/bo4e.com.html#bo4e.com.menge.Menge" xlink:show="new" xlink:title="https://bo4e.github.io/BO4E-python/latest/api/bo4e.com.html#bo4e.com.menge.Menge" xlink:type="simple"><text fill="#0000FF" font-family="sans-serif" font-size="14" lengthAdjust="spacing" text-decoration="underline" textLength="48" x="603.5" y="144.6851">Menge</text></a><text fill="#000000" font-family="sans-serif" font-size="10" lengthAdjust="spacing" textLength="85" x="585" y="157.2691">bo4e.com.menge</text></g><!--class COM--><g id="elem_COM"><rect codeLine="13" fill="#F1F1F1" height="37.9375" id="COM" rx="2.5" ry="2.5" style="stroke:#181818;stroke-width:0.5;" width="104" x="562.5" y="199.69"/><ellipse cx="577.5" cy="218.6587" fill="#ADD1B2" rx="11" ry="11" style="stroke:#181818;stroke-width:1.0;"/><path d="M580.4688,224.2994 Q579.8906,224.5962 579.25,224.7369 Q578.6094,224.8931 577.9063,224.8931 Q575.4063,224.8931 574.0781,223.2525 Q572.7656,221.5962 572.7656,218.4712 Q572.7656,215.3462 574.0781,213.69 Q575.4063,212.0337 577.9063,212.0337 Q578.6094,212.0337 579.25,212.19 Q579.9063,212.3462 580.4688,212.6431 L580.4688,215.3619 Q579.8438,214.7837 579.25,214.5181 Q578.6563,214.2369 578.0313,214.2369 Q576.6875,214.2369 576,215.315 Q575.3125,216.3775 575.3125,218.4712 Q575.3125,220.565 576,221.6431 Q576.6875,222.7056 578.0313,222.7056 Q578.6563,222.7056 579.25,222.44 Q579.8438,222.1587 580.4688,221.5806 L580.4688,224.2994 Z " fill="#000000"/><a href="https://bo4e.github.io/BO4E-python/latest/api/bo4e.com.html#bo4e.com.com.COM" target="_top" title="https://bo4e.github.io/BO4E-python/latest/api/bo4e.com.html#bo4e.com.com.COM" xlink:actuate="onRequest" xlink:href="https://bo4e.github.io/BO4E-python/latest/api/bo4e.com.html#bo4e.com.com.COM" xlink:show="new" xlink:title="https://bo4e.github.io/BO4E-python/latest/api/bo4e.com.html#bo4e.com.com.COM" xlink:type="simple"><text fill="#0000FF" font-family="sans-serif" font-size="14" lengthAdjust="spacing" text-decoration="underline" textLength="33" x="611" y="217.6851">COM</text></a><text fill="#000000" font-family="sans-serif" font-size="10" lengthAdjust="spacing" textLength="72" x="591.5" y="230.2691">bo4e.com.com</text></g><!--class Zeitraum--><g id="elem_Zeitraum"><rect codeLine="14" fill="#F1F1F1" height="37.9375" id="Zeitraum" rx="2.5" ry="2.5" style="stroke:#181818;stroke-width:0.5;" width="126" x="551.5" y="272.69"/><ellipse cx="566.5" cy="291.6587" fill="#ADD1B2" rx="11" ry="11" style="stroke:#181818;stroke-width:1.0;"/><path d="M569.4688,297.2994 Q568.8906,297.5962 568.25,297.7369 Q567.6094,297.8931 566.9063,297.8931 Q564.4063,297.8931 563.0781,296.2525 Q561.7656,294.5962 561.7656,291.4712 Q561.7656,288.3462 563.0781,286.69 Q564.4063,285.0337 566.9063,285.0337 Q567.6094,285.0337 568.25,285.19 Q568.9063,285.3462 569.4688,285.6431 L569.4688,288.3619 Q568.8438,287.7837 568.25,287.5181 Q567.6563,287.2369 567.0313,287.2369 Q565.6875,287.2369 565,288.315 Q564.3125,289.3775 564.3125,291.4712 Q564.3125,293.565 565,294.6431 Q565.6875,295.7056 567.0313,295.7056 Q567.6563,295.7056 568.25,295.44 Q568.8438,295.1587 569.4688,294.5806 L569.4688,297.2994 Z " fill="#000000"/><a href="https://bo4e.github.io/BO4E-python/latest/api/bo4e.com.html#bo4e.com.zeitraum.Zeitraum" target="_top" title="https://bo4e.github.io/BO4E-python/latest/api/bo4e.com.html#bo4e.com.zeitraum.Zeitraum" xlink:actuate="onRequest" xlink:href="https://bo4e.github.io/BO4E-python/latest/api/bo4e.com.html#bo4e.com.zeitraum.Zeitraum" xlink:show="new" xlink:title="https://bo4e.github.io/BO4E-python/latest/api/bo4e.com.html#bo4e.com.zeitraum.Zeitraum" xlink:type="simple"><text fill="#0000FF" font-family="sans-serif" font-size="14" lengthAdjust="spacing" text-decoration="underline" textLength="62" x="596.5" y="290.6851">Zeitraum</text></a><text fill="#000000" font-family="sans-serif" font-size="10" lengthAdjust="spacing" textLength="94" x="580.5" y="303.2691">bo4e.com.zeitraum</text></g><!--class Ausschreibungsdetail--><g id="elem_Ausschreibungsdetail"><rect codeLine="15" fill="#F1F1F1" height="37.9375" id="Ausschreibungsdetail" rx="2.5" ry="2.5" style="stroke:#181818;stroke-width:0.5;" width="183" x="523" y="345.69"/><ellipse cx="538" cy="364.6587" fill="#ADD1B2" rx="11" ry="11" style="stroke:#181818;stroke-width:1.0;"/><path d="M540.9688,370.2994 Q540.3906,370.5962 539.75,370.7369 Q539.1094,370.8931 538.4063,370.8931 Q535.9063,370.8931 534.5781,369.2525 Q533.2656,367.5962 533.2656,364.4712 Q533.2656,361.3462 534.5781,359.69 Q535.9063,358.0337 538.4063,358.0337 Q539.1094,358.0337 539.75,358.19 Q540.4063,358.3462 540.9688,358.6431 L540.9688,361.3619 Q540.3438,360.7837 539.75,360.5181 Q539.1563,360.2369 538.5313,360.2369 Q537.1875,360.2369 536.5,361.315 Q535.8125,362.3775 535.8125,364.4712 Q535.8125,366.565 536.5,367.6431 Q537.1875,368.7056 538.5313,368.7056 Q539.1563,368.7056 539.75,368.44 Q540.3438,368.1587 540.9688,367.5806 L540.9688,370.2994 Z " fill="#000000"/><a href="https://bo4e.github.io/BO4E-python/latest/api/bo4e.com.html#bo4e.com.ausschreibungsdetail.Ausschreibungsdetail" target="_top" title="https://bo4e.github.io/BO4E-python/latest/api/bo4e.com.html#bo4e.com.ausschreibungsdetail.Ausschreibungsdetail" xlink:actuate="onRequest" xlink:href="https://bo4e.github.io/BO4E-python/latest/api/bo4e.com.html#bo4e.com.ausschreibungsdetail.Ausschreibungsdetail" xlink:show="new" xlink:title="https://bo4e.github.io/BO4E-python/latest/api/bo4e.com.html#bo4e.com.ausschreibungsdetail.Ausschreibungsdetail" xlink:type="simple"><text fill="#0000FF" font-family="sans-serif" font-size="14" lengthAdjust="spacing" text-decoration="underline" textLength="149" x="553" y="363.6851">Ausschreibungsdetail</text></a><text fill="#000000" font-family="sans-serif" font-size="10" lengthAdjust="spacing" textLength="151" x="552" y="376.2691">bo4e.com.ausschreibungsdetail</text></g><!--class Preismodell--><g id="elem_Preismodell"><rect codeLine="18" fill="#F1F1F1" height="37.9375" id="Preismodell" rx="2.5" ry="2.5" style="stroke:#181818;stroke-width:0.5;" width="145" x="542" y="458.69"/><ellipse cx="557" cy="477.6587" fill="#ADD1B2" rx="11" ry="11" style="stroke:#181818;stroke-width:1.0;"/><path d="M559.9688,483.2994 Q559.3906,483.5962 558.75,483.7369 Q558.1094,483.8931 557.4063,483.8931 Q554.9063,483.8931 553.5781,482.2525 Q552.2656,480.5962 552.2656,477.4712 Q552.2656,474.3462 553.5781,472.69 Q554.9063,471.0337 557.4063,471.0337 Q558.1094,471.0337 558.75,471.19 Q559.4063,471.3462 559.9688,471.6431 L559.9688,474.3619 Q559.3438,473.7837 558.75,473.5181 Q558.1563,473.2369 557.5313,473.2369 Q556.1875,473.2369 555.5,474.315 Q554.8125,475.3775 554.8125,477.4712 Q554.8125,479.565 555.5,480.6431 Q556.1875,481.7056 557.5313,481.7056 Q558.1563,481.7056 558.75,481.44 Q559.3438,481.1587 559.9688,480.5806 L559.9688,483.2994 Z " fill="#000000"/><a href="https://bo4e.github.io/BO4E-python/latest/api/bo4e.enum.html#bo4e.enum.preismodell.Preismodell" target="_top" title="https://bo4e.github.io/BO4E-python/latest/api/bo4e.enum.html#bo4e.enum.preismodell.Preismodell" xlink:actuate="onRequest" xlink:href="https://bo4e.github.io/BO4E-python/latest/api/bo4e.enum.html#bo4e.enum.preismodell.Preismodell" xlink:show="new" xlink:title="https://bo4e.github.io/BO4E-python/latest/api/bo4e.enum.html#bo4e.enum.preismodell.Preismodell" xlink:type="simple"><text fill="#0000FF" font-family="sans-serif" font-size="14" lengthAdjust="spacing" text-decoration="underline" textLength="80" x="587.5" y="476.6851">Preismodell</text></a><text fill="#000000" font-family="sans-serif" font-size="10" lengthAdjust="spacing" textLength="113" x="571" y="489.2691">bo4e.enum.preismodell</text></g><!--class Rechnungslegung--><g id="elem_Rechnungslegung"><rect codeLine="19" fill="#F1F1F1" height="37.9375" id="Rechnungslegung" rx="2.5" ry="2.5" style="stroke:#181818;stroke-width:0.5;" width="172" x="528.5" y="531.69"/><ellipse cx="543.5" cy="550.6587" fill="#ADD1B2" rx="11" ry="11" style="stroke:#181818;stroke-width:1.0;"/><path d="M546.4688,556.2994 Q545.8906,556.5962 545.25,556.7369 Q544.6094,556.8931 543.9063,556.8931 Q541.4063,556.8931 540.0781,555.2525 Q538.7656,553.5962 538.7656,550.4712 Q538.7656,547.3462 540.0781,545.69 Q541.4063,544.0337 543.9063,544.0337 Q544.6094,544.0337 545.25,544.19 Q545.9063,544.3462 546.4688,544.6431 L546.4688,547.3619 Q545.8438,546.7837 545.25,546.5181 Q544.6563,546.2369 544.0313,546.2369 Q542.6875,546.2369 542,547.315 Q541.3125,548.3775 541.3125,550.4712 Q541.3125,552.565 542,553.6431 Q542.6875,554.7056 544.0313,554.7056 Q544.6563,554.7056 545.25,554.44 Q545.8438,554.1587 546.4688,553.5806 L546.4688,556.2994 Z " fill="#000000"/><a href="https://bo4e.github.io/BO4E-python/latest/api/bo4e.enum.html#bo4e.enum.rechnungslegung.Rechnungslegung" target="_top" title="https://bo4e.github.io/BO4E-python/latest/api/bo4e.enum.html#bo4e.enum.rechnungslegung.Rechnungslegung" xlink:actuate="onRequest" xlink:href="https://bo4e.github.io/BO4E-python/latest/api/bo4e.enum.html#bo4e.enum.rechnungslegung.Rechnungslegung" xlink:show="new" xlink:title="https://bo4e.github.io/BO4E-python/latest/api/bo4e.enum.html#bo4e.enum.rechnungslegung.Rechnungslegung" xlink:type="simple"><text fill="#0000FF" font-family="sans-serif" font-size="14" lengthAdjust="spacing" text-decoration="underline" textLength="128" x="563.5" y="549.6851">Rechnungslegung</text></a><text fill="#000000" font-family="sans-serif" font-size="10" lengthAdjust="spacing" textLength="140" x="557.5" y="562.2691">bo4e.enum.rechnungslegung</text></g><!--class Vertragsform--><g id="elem_Vertragsform"><rect codeLine="20" fill="#F1F1F1" height="37.9375" id="Vertragsform" rx="2.5" ry="2.5" style="stroke:#181818;stroke-width:0.5;" width="155" x="537" y="604.69"/><ellipse cx="552" cy="623.6587" fill="#ADD1B2" rx="11" ry="11" style="stroke:#181818;stroke-width:1.0;"/><path d="M554.9688,629.2994 Q554.3906,629.5962 553.75,629.7369 Q553.1094,629.8931 552.4063,629.8931 Q549.9063,629.8931 548.5781,628.2525 Q547.2656,626.5962 547.2656,623.4712 Q547.2656,620.3462 548.5781,618.69 Q549.9063,617.0337 552.4063,617.0337 Q553.1094,617.0337 553.75,617.19 Q554.4063,617.3462 554.9688,617.6431 L554.9688,620.3619 Q554.3438,619.7837 553.75,619.5181 Q553.1563,619.2369 552.5313,619.2369 Q551.1875,619.2369 550.5,620.315 Q549.8125,621.3775 549.8125,623.4712 Q549.8125,625.565 550.5,626.6431 Q551.1875,627.7056 552.5313,627.7056 Q553.1563,627.7056 553.75,627.44 Q554.3438,627.1587 554.9688,626.5806 L554.9688,629.2994 Z " fill="#000000"/><a href="https://bo4e.github.io/BO4E-python/latest/api/bo4e.enum.html#bo4e.enum.vertragsform.Vertragsform" target="_top" title="https://bo4e.github.io/BO4E-python/latest/api/bo4e.enum.html#bo4e.enum.vertragsform.Vertragsform" xlink:actuate="onRequest" xlink:href="https://bo4e.github.io/BO4E-python/latest/api/bo4e.enum.html#bo4e.enum.vertragsform.Vertragsform" xlink:show="new" xlink:title="https://bo4e.github.io/BO4E-python/latest/api/bo4e.enum.html#bo4e.enum.vertragsform.Vertragsform" xlink:type="simple"><text fill="#0000FF" font-family="sans-serif" font-size="14" lengthAdjust="spacing" text-decoration="underline" textLength="89" x="583" y="622.6851">Vertragsform</text></a><text fill="#000000" font-family="sans-serif" font-size="10" lengthAdjust="spacing" textLength="123" x="566" y="635.2691">bo4e.enum.vertragsform</text></g><!--class Sparte--><g id="elem_Sparte"><rect codeLine="21" fill="#F1F1F1" height="37.9375" id="Sparte" rx="2.5" ry="2.5" style="stroke:#181818;stroke-width:0.5;" width="121" x="554" y="677.69"/><ellipse cx="569" cy="696.6587" fill="#ADD1B2" rx="11" ry="11" style="stroke:#181818;stroke-width:1.0;"/><path d="M571.9688,702.2994 Q571.3906,702.5962 570.75,702.7369 Q570.1094,702.8931 569.4063,702.8931 Q566.9063,702.8931 565.5781,701.2525 Q564.2656,699.5962 564.2656,696.4712 Q564.2656,693.3462 565.5781,691.69 Q566.9063,690.0337 569.4063,690.0337 Q570.1094,690.0337 570.75,690.19 Q571.4063,690.3462 571.9688,690.6431 L571.9688,693.3619 Q571.3438,692.7837 570.75,692.5181 Q570.1563,692.2369 569.5313,692.2369 Q568.1875,692.2369 567.5,693.315 Q566.8125,694.3775 566.8125,696.4712 Q566.8125,698.565 567.5,699.6431 Q568.1875,700.7056 569.5313,700.7056 Q570.1563,700.7056 570.75,700.44 Q571.3438,700.1587 571.9688,699.5806 L571.9688,702.2994 Z " fill="#000000"/><a href="https://bo4e.github.io/BO4E-python/latest/api/bo4e.enum.html#bo4e.enum.sparte.Sparte" target="_top" title="https://bo4e.github.io/BO4E-python/latest/api/bo4e.enum.html#bo4e.enum.sparte.Sparte" xlink:actuate="onRequest" xlink:href="https://bo4e.github.io/BO4E-python/latest/api/bo4e.enum.html#bo4e.enum.sparte.Sparte" xlink:show="new" xlink:title="https://bo4e.github.io/BO4E-python/latest/api/bo4e.enum.html#bo4e.enum.sparte.Sparte" xlink:type="simple"><text fill="#0000FF" font-family="sans-serif" font-size="14" lengthAdjust="spacing" text-decoration="underline" textLength="45" x="605" y="695.6851">Sparte</text></a><text fill="#000000" font-family="sans-serif" font-size="10" lengthAdjust="spacing" textLength="89" x="583" y="708.2691">bo4e.enum.sparte</text></g><!--class Ausschreibungslos--><g id="elem_Ausschreibungslos"><rect codeLine="3" fill="#F1F1F1" height="127.4219" id="Ausschreibungslos" rx="2.5" ry="2.5" style="stroke:#181818;stroke-width:0.5;" width="267" x="7" y="284.95"/><ellipse cx="67.25" cy="303.9188" fill="#ADD1B2" rx="11" ry="11" style="stroke:#181818;stroke-width:1.0;"/><path d="M70.2188,309.5594 Q69.6406,309.8563 69,309.9969 Q68.3594,310.1531 67.6563,310.1531 Q65.1563,310.1531 63.8281,308.5125 Q62.5156,306.8563 62.5156,303.7313 Q62.5156,300.6063 63.8281,298.95 Q65.1563,297.2938 67.6563,297.2938 Q68.3594,297.2938 69,297.45 Q69.6563,297.6063 70.2188,297.9031 L70.2188,300.6219 Q69.5938,300.0438 69,299.7781 Q68.4063,299.4969 67.7813,299.4969 Q66.4375,299.4969 65.75,300.575 Q65.0625,301.6375 65.0625,303.7313 Q65.0625,305.825 65.75,306.9031 Q66.4375,307.9656 67.7813,307.9656 Q68.4063,307.9656 69,307.7 Q69.5938,307.4188 70.2188,306.8406 L70.2188,309.5594 Z " fill="#000000"/><a href="https://bo4e.github.io/BO4E-python/latest/api/bo4e.com.html#bo4e.com.ausschreibungslos.Ausschreibungslos" target="_top" title="https://bo4e.github.io/BO4E-python/latest/api/bo4e.com.html#bo4e.com.ausschreibungslos.Ausschreibungslos" xlink:actuate="onRequest" xlink:href="https://bo4e.github.io/BO4E-python/latest/api/bo4e.com.html#bo4e.com.ausschreibungslos.Ausschreibungslos" xlink:show="new" xlink:title="https://bo4e.github.io/BO4E-python/latest/api/bo4e.com.html#bo4e.com.ausschreibungslos.Ausschreibungslos" xlink:type="simple"><text fill="#0000FF" font-family="sans-serif" font-size="14" lengthAdjust="spacing" text-decoration="underline" textLength="132" x="90.75" y="302.9451">Ausschreibungslos</text></a><text fill="#000000" font-family="sans-serif" font-size="10" lengthAdjust="spacing" textLength="138" x="87.75" y="315.5291">bo4e.com.ausschreibungslos</text><line style="stroke:#181818;stroke-width:0.5;" x1="8" x2="273" y1="322.8875" y2="322.8875"/><text fill="#000000" font-family="sans-serif" font-size="14" lengthAdjust="spacing" textLength="206" x="13" y="339.8826">losnummer : str [0..1] = None</text><text fill="#000000" font-family="sans-serif" font-size="14" lengthAdjust="spacing" textLength="219" x="13" y="356.1795">bezeichnung : str [0..1] = None</text><text fill="#000000" font-family="sans-serif" font-size="14" lengthAdjust="spacing" textLength="221" x="13" y="372.4764">betreutDurch : str [0..1] = None</text><text fill="#000000" font-family="sans-serif" font-size="14" lengthAdjust="spacing" textLength="255" x="13" y="388.7732">anzahlLieferstellen : int [0..1] = None</text><text fill="#000000" font-family="sans-serif" font-size="14" lengthAdjust="spacing" textLength="208" x="13" y="405.0701">bemerkung : str [0..1] = None</text></g><!--link Ausschreibungslos to COM--><g id="link_Ausschreibungslos_COM"><path codeLine="24" d="M219.3,284.5 C244.8,266.87 274.27,249.82 304,239.66 C390.89,209.97 481.3609,209.456 544.1009,213.136 " fill="none" id="Ausschreibungslos-to-COM" style="stroke:#181818;stroke-width:1.0;"/><polygon fill="none" points="562.07,214.19,544.4522,207.1463,543.7496,219.1257,562.07,214.19" style="stroke:#181818;stroke-width:1.0;"/></g><!--link Ausschreibungslos to Preismodell--><g id="link_Ausschreibungslos_Preismodell"><path codeLine="25" d="M183.66,412.78 C212.51,450.47 254.43,494.73 304,515.66 C370.74,543.84 395.14,524.83 467,515.66 C495.67,512 515.2041,507.7398 541.3341,500.3398 " fill="none" id="Ausschreibungslos-to-Preismodell" style="stroke:#181818;stroke-width:1.0;"/><polygon fill="#181818" points="552.88,497.07,546.0171,494.8563,541.3341,500.3398,548.197,502.5535,552.88,497.07" style="stroke:#181818;stroke-width:1.0;"/><text fill="#000000" font-family="sans-serif" font-size="13" lengthAdjust="spacing" textLength="74" x="348.5" y="511.7269">preismodell</text><text fill="#000000" font-family="sans-serif" font-size="13" lengthAdjust="spacing" textLength="24" x="510.0149" y="516.0499">0..1</text></g><!--link Ausschreibungslos to Sparte--><g id="link_Ausschreibungslos_Sparte"><path codeLine="26" d="M154.51,412.62 C173.43,487.62 216.31,609.24 304,668.66 C378.36,719.05 475.0155,717.251 541.8255,708.771 " fill="none" id="Ausschreibungslos-to-Sparte" style="stroke:#181818;stroke-width:1.0;"/><polygon fill="#181818" points="553.73,707.26,547.2741,704.0473,541.8255,708.771,548.2814,711.9837,553.73,707.26" style="stroke:#181818;stroke-width:1.0;"/><text fill="#000000" font-family="sans-serif" font-size="13" lengthAdjust="spacing" textLength="66" x="352.5" y="664.7269">energieart</text><text fill="#000000" font-family="sans-serif" font-size="13" lengthAdjust="spacing" textLength="24" x="522.2256" y="721.2004">0..1</text></g><!--link Ausschreibungslos to Rechnungslegung--><g id="link_Ausschreibungslos_Rechnungslegung"><path codeLine="27" d="M171.67,412.81 C198.68,461.96 243.4,526.19 304,555.66 C377.58,591.44 461.3338,585.1966 526.6838,572.3966 " fill="none" id="Ausschreibungslos-to-Rechnungslegung" style="stroke:#181818;stroke-width:1.0;"/><polygon fill="#181818" points="538.46,570.09,531.803,567.3179,526.6838,572.3966,533.3407,575.1687,538.46,570.09" style="stroke:#181818;stroke-width:1.0;"/><text fill="#000000" font-family="sans-serif" font-size="13" lengthAdjust="spacing" textLength="160" x="305.5" y="551.7269">wunschRechnungslegung</text><text fill="#000000" font-family="sans-serif" font-size="13" lengthAdjust="spacing" textLength="24" x="496.3017" y="587.7252">0..1</text></g><!--link Ausschreibungslos to Vertragsform--><g id="link_Ausschreibungslos_Vertragsform"><path codeLine="28" d="M162.34,412.75 C186.06,474.23 231.23,563.85 304,606.66 C374.5,648.14 458.4828,647.8393 524.7628,639.5493 " fill="none" id="Ausschreibungslos-to-Vertragsform" style="stroke:#181818;stroke-width:1.0;"/><polygon fill="#181818" points="536.67,638.06,530.22,634.8356,524.7628,639.5493,531.2128,642.7737,536.67,638.06" style="stroke:#181818;stroke-width:1.0;"/><text fill="#000000" font-family="sans-serif" font-size="13" lengthAdjust="spacing" textLength="132" x="319.5" y="602.7269">wunschVertragsform</text><text fill="#000000" font-family="sans-serif" font-size="13" lengthAdjust="spacing" textLength="24" x="504.9502" y="652.0147">0..1</text></g><!--link Ausschreibungslos to Ausschreibungsdetail--><g id="link_Ausschreibungslos_Ausschreibungsdetail"><path codeLine="29" d="M210.13,412.61 C237.28,433.79 270.09,454.72 304,465.66 C372.95,487.9 407.96,507.64 467,465.66 C475.82,459.39 468.06,450.96 475,442.66 C497.21,416.09 519.9663,401.6983 548.5763,388.9683 " fill="none" id="Ausschreibungslos-to-Ausschreibungsdetail" style="stroke:#181818;stroke-width:1.0;"/><polygon fill="#181818" points="559.54,384.09,552.4321,382.8746,548.5763,388.9683,555.6843,390.1837,559.54,384.09" style="stroke:#181818;stroke-width:1.0;"/><text fill="#000000" font-family="sans-serif" font-size="13" lengthAdjust="spacing" textLength="73" x="349" y="461.7269">lieferstellen</text><text fill="#000000" font-family="sans-serif" font-size="13" lengthAdjust="spacing" textLength="23" x="517.8481" y="403.75">0..*</text></g><!--link Ausschreibungslos to Zeitraum--><g id="link_Ausschreibungslos_Zeitraum"><path codeLine="30" d="M266.5,284.6 C278.93,280.17 291.56,276.39 304,273.66 C388.11,255.19 476.169,264.7186 539.249,276.0486 " fill="none" id="Ausschreibungslos-to-Zeitraum" style="stroke:#181818;stroke-width:1.0;"/><polygon fill="#181818" points="551.06,278.17,545.8616,273.1723,539.249,276.0486,544.4474,281.0463,551.06,278.17" style="stroke:#181818;stroke-width:1.0;"/><text fill="#000000" font-family="sans-serif" font-size="13" lengthAdjust="spacing" textLength="88" x="341.5" y="260.7269">lieferzeitraum</text><text fill="#000000" font-family="sans-serif" font-size="13" lengthAdjust="spacing" textLength="24" x="519.2802" y="289.6262">0..1</text></g><!--link Ausschreibungslos to Zeitraum--><g id="link_Ausschreibungslos_Zeitraum"><path codeLine="31" d="M274.23,332.63 C364.9,321.68 468.9765,309.1078 539.1565,300.6378 " fill="none" id="Ausschreibungslos-to-Zeitraum-1" style="stroke:#181818;stroke-width:1.0;"/><polygon fill="#181818" points="551.07,299.2,544.6339,295.9477,539.1565,300.6378,545.5925,303.8901,551.07,299.2" style="stroke:#181818;stroke-width:1.0;"/><text fill="#000000" font-family="sans-serif" font-size="13" lengthAdjust="spacing" textLength="141" x="315" y="306.7269">wiederholungsintervall</text><text fill="#000000" font-family="sans-serif" font-size="13" lengthAdjust="spacing" textLength="24" x="519.2913" y="312.8249">0..1</text></g><!--link Ausschreibungslos to Zeitraum--><g id="link_Ausschreibungslos_Zeitraum"><path codeLine="32" d="M274.13,366.4 C350.3,373.61 436.7,375.78 467,353.66 C476.42,346.78 466.55,336.71 475,328.66 C495.36,309.26 512.9128,301.8093 539.3728,297.2693 " fill="none" id="Ausschreibungslos-to-Zeitraum-2" style="stroke:#181818;stroke-width:1.0;"/><polygon fill="#181818" points="551.2,295.24,544.61,292.3123,539.3728,297.2693,545.9628,300.197,551.2,295.24" style="stroke:#181818;stroke-width:1.0;"/><text fill="#000000" font-family="sans-serif" font-size="13" lengthAdjust="spacing" textLength="161" x="305" y="349.7269">wunschKuendingungsfrist</text><text fill="#000000" font-family="sans-serif" font-size="13" lengthAdjust="spacing" textLength="24" x="519.4347" y="308.4565">0..1</text></g><!--link Ausschreibungslos to Zeitraum--><g id="link_Ausschreibungslos_Zeitraum"><path codeLine="33" d="M274.09,412.81 C339.5,434.34 415.24,442.68 467,396.66 C478.37,386.55 465.04,340.16 475,328.66 C493.81,306.92 511.9699,299.0309 539.2699,294.9809 " fill="none" id="Ausschreibungslos-to-Zeitraum-3" style="stroke:#181818;stroke-width:1.0;"/><polygon fill="#181818" points="551.14,293.22,544.618,290.1438,539.2699,294.9809,545.7919,298.0572,551.14,293.22" style="stroke:#181818;stroke-width:1.0;"/><text fill="#000000" font-family="sans-serif" font-size="13" lengthAdjust="spacing" textLength="128" x="321.5" y="392.7269">wunschZahlungsziel</text><text fill="#000000" font-family="sans-serif" font-size="13" lengthAdjust="spacing" textLength="24" x="519.682" y="310.8776">0..1</text></g><!--link Ausschreibungslos to Menge--><g id="link_Ausschreibungslos_Menge"><path codeLine="34" d="M157.28,284.62 C178.07,215.67 222.01,109.46 304,61.66 C399.48,6 523.1949,80.1996 578.3449,119.4696 " fill="none" id="Ausschreibungslos-to-Menge" style="stroke:#181818;stroke-width:1.0;"/><polygon fill="#181818" points="588.12,126.43,585.5526,119.6914,578.3449,119.4696,580.9123,126.2081,588.12,126.43" style="stroke:#181818;stroke-width:1.0;"/><text fill="#000000" font-family="sans-serif" font-size="13" lengthAdjust="spacing" textLength="92" x="339.5" y="39.7269">gesamtMenge</text><text fill="#000000" font-family="sans-serif" font-size="13" lengthAdjust="spacing" textLength="24" x="583.8959" y="115.6648">0..1</text></g><!--link Ausschreibungslos to Menge--><g id="link_Ausschreibungslos_Menge"><path codeLine="35" d="M166.49,284.71 C191.92,229.48 237.14,153.29 304,118.66 C387.82,75.25 490.3509,99.8254 554.0109,122.2354 " fill="none" id="Ausschreibungslos-to-Menge-1" style="stroke:#181818;stroke-width:1.0;"/><polygon fill="#181818" points="565.33,126.22,560.9986,120.4546,554.0109,122.2354,558.3422,128.0007,565.33,126.22" style="stroke:#181818;stroke-width:1.0;"/><text fill="#000000" font-family="sans-serif" font-size="13" lengthAdjust="spacing" textLength="142" x="314.5" y="92.7269">wunschMindestmenge</text><text fill="#000000" font-family="sans-serif" font-size="13" lengthAdjust="spacing" textLength="24" x="524.1259" y="115.729">0..1</text></g><!--link Ausschreibungslos to Menge--><g id="link_Ausschreibungslos_Menge"><path codeLine="36" d="M195.93,284.47 C224.96,254.38 263.09,220.79 304,200.66 C385.28,160.66 479.3027,149.9621 543.7927,146.9921 " fill="none" id="Ausschreibungslos-to-Menge-2" style="stroke:#181818;stroke-width:1.0;"/><polygon fill="#181818" points="555.78,146.44,549.6023,142.7203,543.7927,146.9921,549.9704,150.7118,555.78,146.44" style="stroke:#181818;stroke-width:1.0;"/><text fill="#000000" font-family="sans-serif" font-size="13" lengthAdjust="spacing" textLength="145" x="313" y="152.7269">wunschMaximalmenge</text><text fill="#000000" font-family="sans-serif" font-size="13" lengthAdjust="spacing" textLength="24" x="524.045" y="159.4199">0..1</text></g><!--SRC=[hLRVRzCm47vU_efJ-pPfRYi6cYAODCQUe0o1nCDA7zpa6bluHsKxAnJutt6SfKtJ58Kr3wbzxdUVlvplpX6uTE0q69un1oatc3YkLHGbWbeBWzcCERUoyMYqq9T8CkvOlY1SZzxUNzvTh7uwfjL8K8VMZUYAbwX4IyAS5CEjHNDh4sQGBtALMQ4jkMckmC7AVFvDlRPyW_5aV7sSQW2qnHb-HMT-KBcKQ206wmpCneHCvl06Fcg5qTa2DyWJfhp7CO0pcBjtkKbOEuAg3MNY0ySb6kjG25GUo9KxfF8olX_RwKyKAIhHhcY29yOSAci-3u6fJ1ZUZM-kNjqMSUdtR2Mg3Ccq-8Nmstvk0HOa1L3VAehdzduA_cdVtpzXTm_eUs-VHixGN9A7fmbKatOf5JxegQ1zYzglanGTvQ9HTUKYj2rsgRqIsL9-vHy-gqzDQlJbMylgmgodTM73C9qaBrvUdPhNsws6EtFbNyXAdVgw9fzsSwZD3-FKz0noQnxzo_GzEpGnAp3p0_cyRqF3FYAvmH9aDppxb_w8nYT_PfVQIFArPa3TEAAuxXpardtwr-eJsJWaNy80vN14MGaDcafSqU5RhhoBYz_NsmvTjAysa4UTmw2uBmQxjD_BnnXg-TQTukbDOa259kFehUxEpIIBOPqhxzbCcSw4UwTViUsTwB-epWUxEBOskHX4_PRkfAiWsxRqYg1gtizXM7DCqJ0j2WV_bO3caNOyiIPJ2C_x75NALH5ekpJSkkTJFVZlcC9Zmx6xeFBIZo53IwKhx_N_zIstdtAL-WgKfr3G7rnIKL94ZAS84kN27tbacLv32-lIlsng_m80]--></g></svg>