<?xml version="1.0" encoding="us-ascii" standalone="no"?><svg xmlns="http://www.w3.org/2000/svg" xmlns:xlink="http://www.w3.org/1999/xlink" contentStyleType="text/css" height="751px" preserveAspectRatio="none" style="width:753px;height:751px;background:#FFFFFF;" version="1.1" viewBox="0 0 753 751" width="753px" zoomAndPan="magnify"><defs/><g><!--cluster bo4e--><g id="cluster_bo4e"><path d="M485.5,37.07 L526.5,37.07 A3.75,3.75 0 0 1 529,39.57 L536,59.3669 L743.5,59.3669 A2.5,2.5 0 0 1 746,61.8669 L746,741.57 A2.5,2.5 0 0 1 743.5,744.07 L485.5,744.07 A2.5,2.5 0 0 1 483,741.57 L483,39.57 A2.5,2.5 0 0 1 485.5,37.07 " fill="none" style="stroke:#000000;stroke-width:1.5;"/><line style="stroke:#000000;stroke-width:1.5;" x1="483" x2="536" y1="59.3669" y2="59.3669"/><text fill="#000000" font-family="sans-serif" font-size="14" font-weight="bold" lengthAdjust="spacing" textLength="40" x="487" y="52.0651">bo4e</text></g><!--cluster com--><g id="cluster_com"><path d="M509.5,80.07 L588.5,80.07 A3.75,3.75 0 0 1 591,82.57 L598,102.3669 L719.5,102.3669 A2.5,2.5 0 0 1 722,104.8669 L722,385.57 A2.5,2.5 0 0 1 719.5,388.07 L509.5,388.07 A2.5,2.5 0 0 1 507,385.57 L507,82.57 A2.5,2.5 0 0 1 509.5,80.07 " fill="#E0A86C" style="stroke:#000000;stroke-width:1.5;"/><line style="stroke:#000000;stroke-width:1.5;" x1="507" x2="598" y1="102.3669" y2="102.3669"/><a href="https://bo4e.github.io/BO4E-python/latest/api/bo4e.com.html" target="_top" title="https://bo4e.github.io/BO4E-python/latest/api/bo4e.com.html" xlink:actuate="onRequest" xlink:href="https://bo4e.github.io/BO4E-python/latest/api/bo4e.com.html" xlink:show="new" xlink:title="https://bo4e.github.io/BO4E-python/latest/api/bo4e.com.html" xlink:type="simple"><text fill="#0000FF" font-family="sans-serif" font-size="14" font-weight="bold" lengthAdjust="spacing" text-decoration="underline" textLength="78" x="511" y="95.0651">bo4e.com</text></a></g><!--cluster enum--><g id="cluster_enum"><path d="M515,412.07 L605,412.07 A3.75,3.75 0 0 1 607.5,414.57 L614.5,434.3669 L714,434.3669 A2.5,2.5 0 0 1 716.5,436.8669 L716.5,717.57 A2.5,2.5 0 0 1 714,720.07 L515,720.07 A2.5,2.5 0 0 1 512.5,717.57 L512.5,414.57 A2.5,2.5 0 0 1 515,412.07 " fill="#D1C358" style="stroke:#000000;stroke-width:1.5;"/><line style="stroke:#000000;stroke-width:1.5;" x1="512.5" x2="614.5" y1="434.3669" y2="434.3669"/><a href="https://bo4e.github.io/BO4E-python/latest/api/bo4e.enum.html" target="_top" title="https://bo4e.github.io/BO4E-python/latest/api/bo4e.enum.html" xlink:actuate="onRequest" xlink:href="https://bo4e.github.io/BO4E-python/latest/api/bo4e.enum.html" xlink:show="new" xlink:title="https://bo4e.github.io/BO4E-python/latest/api/bo4e.enum.html" xlink:type="simple"><text fill="#0000FF" font-family="sans-serif" font-size="14" font-weight="bold" lengthAdjust="spacing" text-decoration="underline" textLength="89" x="516.5" y="427.0651">bo4e.enum</text></a></g><!--class COM--><g id="elem_COM"><rect codeLine="12" fill="#F1F1F1" height="37.9375" id="COM" rx="2.5" ry="2.5" style="stroke:#181818;stroke-width:0.5;" width="104" x="562.5" y="115.1"/><ellipse cx="577.5" cy="134.0688" fill="#ADD1B2" rx="11" ry="11" style="stroke:#181818;stroke-width:1.0;"/><path d="M580.4688,139.7094 Q579.8906,140.0063 579.25,140.1469 Q578.6094,140.3031 577.9063,140.3031 Q575.4063,140.3031 574.0781,138.6625 Q572.7656,137.0063 572.7656,133.8813 Q572.7656,130.7563 574.0781,129.1 Q575.4063,127.4438 577.9063,127.4438 Q578.6094,127.4438 579.25,127.6 Q579.9063,127.7563 580.4688,128.0531 L580.4688,130.7719 Q579.8438,130.1938 579.25,129.9281 Q578.6563,129.6469 578.0313,129.6469 Q576.6875,129.6469 576,130.725 Q575.3125,131.7875 575.3125,133.8813 Q575.3125,135.975 576,137.0531 Q576.6875,138.1156 578.0313,138.1156 Q578.6563,138.1156 579.25,137.85 Q579.8438,137.5688 580.4688,136.9906 L580.4688,139.7094 Z " fill="#000000"/><a href="https://bo4e.github.io/BO4E-python/latest/api/bo4e.com.html#bo4e.com.com.COM" target="_top" title="https://bo4e.github.io/BO4E-python/latest/api/bo4e.com.html#bo4e.com.com.COM" xlink:actuate="onRequest" xlink:href="https://bo4e.github.io/BO4E-python/latest/api/bo4e.com.html#bo4e.com.com.COM" xlink:show="new" xlink:title="https://bo4e.github.io/BO4E-python/latest/api/bo4e.com.html#bo4e.com.com.COM" xlink:type="simple"><text fill="#0000FF" font-family="sans-serif" font-size="14" lengthAdjust="spacing" text-decoration="underline" textLength="33" x="611" y="133.0951">COM</text></a><text fill="#000000" font-family="sans-serif" font-size="10" lengthAdjust="spacing" textLength="72" x="591.5" y="145.6791">bo4e.com.com</text></g><!--class Ausschreibungsdetail--><g id="elem_Ausschreibungsdetail"><rect codeLine="13" fill="#F1F1F1" height="37.9375" id="Ausschreibungsdetail" rx="2.5" ry="2.5" style="stroke:#181818;stroke-width:0.5;" width="183" x="523" y="188.1"/><ellipse cx="538" cy="207.0688" fill="#ADD1B2" rx="11" ry="11" style="stroke:#181818;stroke-width:1.0;"/><path d="M540.9688,212.7094 Q540.3906,213.0063 539.75,213.1469 Q539.1094,213.3031 538.4063,213.3031 Q535.9063,213.3031 534.5781,211.6625 Q533.2656,210.0063 533.2656,206.8813 Q533.2656,203.7563 534.5781,202.1 Q535.9063,200.4438 538.4063,200.4438 Q539.1094,200.4438 539.75,200.6 Q540.4063,200.7563 540.9688,201.0531 L540.9688,203.7719 Q540.3438,203.1938 539.75,202.9281 Q539.1563,202.6469 538.5313,202.6469 Q537.1875,202.6469 536.5,203.725 Q535.8125,204.7875 535.8125,206.8813 Q535.8125,208.975 536.5,210.0531 Q537.1875,211.1156 538.5313,211.1156 Q539.1563,211.1156 539.75,210.85 Q540.3438,210.5688 540.9688,209.9906 L540.9688,212.7094 Z " fill="#000000"/><a href="https://bo4e.github.io/BO4E-python/latest/api/bo4e.com.html#bo4e.com.ausschreibungsdetail.Ausschreibungsdetail" target="_top" title="https://bo4e.github.io/BO4E-python/latest/api/bo4e.com.html#bo4e.com.ausschreibungsdetail.Ausschreibungsdetail" xlink:actuate="onRequest" xlink:href="https://bo4e.github.io/BO4E-python/latest/api/bo4e.com.html#bo4e.com.ausschreibungsdetail.Ausschreibungsdetail" xlink:show="new" xlink:title="https://bo4e.github.io/BO4E-python/latest/api/bo4e.com.html#bo4e.com.ausschreibungsdetail.Ausschreibungsdetail" xlink:type="simple"><text fill="#0000FF" font-family="sans-serif" font-size="14" lengthAdjust="spacing" text-decoration="underline" textLength="149" x="553" y="206.0951">Ausschreibungsdetail</text></a><text fill="#000000" font-family="sans-serif" font-size="10" lengthAdjust="spacing" textLength="151" x="552" y="218.6791">bo4e.com.ausschreibungsdetail</text></g><!--class Zeitraum--><g id="elem_Zeitraum"><rect codeLine="14" fill="#F1F1F1" height="37.9375" id="Zeitraum" rx="2.5" ry="2.5" style="stroke:#181818;stroke-width:0.5;" width="126" x="551.5" y="261.1"/><ellipse cx="566.5" cy="280.0688" fill="#ADD1B2" rx="11" ry="11" style="stroke:#181818;stroke-width:1.0;"/><path d="M569.4688,285.7094 Q568.8906,286.0063 568.25,286.1469 Q567.6094,286.3031 566.9063,286.3031 Q564.4063,286.3031 563.0781,284.6625 Q561.7656,283.0063 561.7656,279.8813 Q561.7656,276.7563 563.0781,275.1 Q564.4063,273.4438 566.9063,273.4438 Q567.6094,273.4438 568.25,273.6 Q568.9063,273.7563 569.4688,274.0531 L569.4688,276.7719 Q568.8438,276.1938 568.25,275.9281 Q567.6563,275.6469 567.0313,275.6469 Q565.6875,275.6469 565,276.725 Q564.3125,277.7875 564.3125,279.8813 Q564.3125,281.975 565,283.0531 Q565.6875,284.1156 567.0313,284.1156 Q567.6563,284.1156 568.25,283.85 Q568.8438,283.5688 569.4688,282.9906 L569.4688,285.7094 Z " fill="#000000"/><a href="https://bo4e.github.io/BO4E-python/latest/api/bo4e.com.html#bo4e.com.zeitraum.Zeitraum" target="_top" title="https://bo4e.github.io/BO4E-python/latest/api/bo4e.com.html#bo4e.com.zeitraum.Zeitraum" xlink:actuate="onRequest" xlink:href="https://bo4e.github.io/BO4E-python/latest/api/bo4e.com.html#bo4e.com.zeitraum.Zeitraum" xlink:show="new" xlink:title="https://bo4e.github.io/BO4E-python/latest/api/bo4e.com.html#bo4e.com.zeitraum.Zeitraum" xlink:type="simple"><text fill="#0000FF" font-family="sans-serif" font-size="14" lengthAdjust="spacing" text-decoration="underline" textLength="62" x="596.5" y="279.0951">Zeitraum</text></a><text fill="#000000" font-family="sans-serif" font-size="10" lengthAdjust="spacing" textLength="94" x="580.5" y="291.6791">bo4e.com.zeitraum</text></g><!--class Menge--><g id="elem_Menge"><rect codeLine="15" fill="#F1F1F1" height="37.9375" id="Menge" rx="2.5" ry="2.5" style="stroke:#181818;stroke-width:0.5;" width="117" x="556" y="334.1"/><ellipse cx="571" cy="353.0688" fill="#ADD1B2" rx="11" ry="11" style="stroke:#181818;stroke-width:1.0;"/><path d="M573.9688,358.7094 Q573.3906,359.0063 572.75,359.1469 Q572.1094,359.3031 571.4063,359.3031 Q568.9063,359.3031 567.5781,357.6625 Q566.2656,356.0063 566.2656,352.8813 Q566.2656,349.7563 567.5781,348.1 Q568.9063,346.4438 571.4063,346.4438 Q572.1094,346.4438 572.75,346.6 Q573.4063,346.7563 573.9688,347.0531 L573.9688,349.7719 Q573.3438,349.1938 572.75,348.9281 Q572.1563,348.6469 571.5313,348.6469 Q570.1875,348.6469 569.5,349.725 Q568.8125,350.7875 568.8125,352.8813 Q568.8125,354.975 569.5,356.0531 Q570.1875,357.1156 571.5313,357.1156 Q572.1563,357.1156 572.75,356.85 Q573.3438,356.5688 573.9688,355.9906 L573.9688,358.7094 Z " fill="#000000"/><a href="https://bo4e.github.io/BO4E-python/latest/api/bo4e.com.html#bo4e.com.menge.Menge" target="_top" title="https://bo4e.github.io/BO4E-python/latest/api/bo4e.com.html#bo4e.com.menge.Menge" xlink:actuate="onRequest" xlink:href="https://bo4e.github.io/BO4E-python/latest/api/bo4e.com.html#bo4e.com.menge.Menge" xlink:show="new" xlink:title="https://bo4e.github.io/BO4E-python/latest/api/bo4e.com.html#bo4e.com.menge.Menge" xlink:type="simple"><text fill="#0000FF" font-family="sans-serif" font-size="14" lengthAdjust="spacing" text-decoration="underline" textLength="48" x="603.5" y="352.0951">Menge</text></a><text fill="#000000" font-family="sans-serif" font-size="10" lengthAdjust="spacing" textLength="85" x="585" y="364.6791">bo4e.com.menge</text></g><!--class Sparte--><g id="elem_Sparte"><rect codeLine="18" fill="#F1F1F1" height="37.9375" id="Sparte" rx="2.5" ry="2.5" style="stroke:#181818;stroke-width:0.5;" width="121" x="554" y="447.1"/><ellipse cx="569" cy="466.0688" fill="#ADD1B2" rx="11" ry="11" style="stroke:#181818;stroke-width:1.0;"/><path d="M571.9688,471.7094 Q571.3906,472.0063 570.75,472.1469 Q570.1094,472.3031 569.4063,472.3031 Q566.9063,472.3031 565.5781,470.6625 Q564.2656,469.0063 564.2656,465.8813 Q564.2656,462.7563 565.5781,461.1 Q566.9063,459.4438 569.4063,459.4438 Q570.1094,459.4438 570.75,459.6 Q571.4063,459.7563 571.9688,460.0531 L571.9688,462.7719 Q571.3438,462.1938 570.75,461.9281 Q570.1563,461.6469 569.5313,461.6469 Q568.1875,461.6469 567.5,462.725 Q566.8125,463.7875 566.8125,465.8813 Q566.8125,467.975 567.5,469.0531 Q568.1875,470.1156 569.5313,470.1156 Q570.1563,470.1156 570.75,469.85 Q571.3438,469.5688 571.9688,468.9906 L571.9688,471.7094 Z " fill="#000000"/><a href="https://bo4e.github.io/BO4E-python/latest/api/bo4e.enum.html#bo4e.enum.sparte.Sparte" target="_top" title="https://bo4e.github.io/BO4E-python/latest/api/bo4e.enum.html#bo4e.enum.sparte.Sparte" xlink:actuate="onRequest" xlink:href="https://bo4e.github.io/BO4E-python/latest/api/bo4e.enum.html#bo4e.enum.sparte.Sparte" xlink:show="new" xlink:title="https://bo4e.github.io/BO4E-python/latest/api/bo4e.enum.html#bo4e.enum.sparte.Sparte" xlink:type="simple"><text fill="#0000FF" font-family="sans-serif" font-size="14" lengthAdjust="spacing" text-decoration="underline" textLength="45" x="605" y="465.0951">Sparte</text></a><text fill="#000000" font-family="sans-serif" font-size="10" lengthAdjust="spacing" textLength="89" x="583" y="477.6791">bo4e.enum.sparte</text></g><!--class Preismodell--><g id="elem_Preismodell"><rect codeLine="19" fill="#F1F1F1" height="37.9375" id="Preismodell" rx="2.5" ry="2.5" style="stroke:#181818;stroke-width:0.5;" width="145" x="542" y="520.1"/><ellipse cx="557" cy="539.0688" fill="#ADD1B2" rx="11" ry="11" style="stroke:#181818;stroke-width:1.0;"/><path d="M559.9688,544.7094 Q559.3906,545.0063 558.75,545.1469 Q558.1094,545.3031 557.4063,545.3031 Q554.9063,545.3031 553.5781,543.6625 Q552.2656,542.0063 552.2656,538.8813 Q552.2656,535.7563 553.5781,534.1 Q554.9063,532.4438 557.4063,532.4438 Q558.1094,532.4438 558.75,532.6 Q559.4063,532.7563 559.9688,533.0531 L559.9688,535.7719 Q559.3438,535.1938 558.75,534.9281 Q558.1563,534.6469 557.5313,534.6469 Q556.1875,534.6469 555.5,535.725 Q554.8125,536.7875 554.8125,538.8813 Q554.8125,540.975 555.5,542.0531 Q556.1875,543.1156 557.5313,543.1156 Q558.1563,543.1156 558.75,542.85 Q559.3438,542.5688 559.9688,541.9906 L559.9688,544.7094 Z " fill="#000000"/><a href="https://bo4e.github.io/BO4E-python/latest/api/bo4e.enum.html#bo4e.enum.preismodell.Preismodell" target="_top" title="https://bo4e.github.io/BO4E-python/latest/api/bo4e.enum.html#bo4e.enum.preismodell.Preismodell" xlink:actuate="onRequest" xlink:href="https://bo4e.github.io/BO4E-python/latest/api/bo4e.enum.html#bo4e.enum.preismodell.Preismodell" xlink:show="new" xlink:title="https://bo4e.github.io/BO4E-python/latest/api/bo4e.enum.html#bo4e.enum.preismodell.Preismodell" xlink:type="simple"><text fill="#0000FF" font-family="sans-serif" font-size="14" lengthAdjust="spacing" text-decoration="underline" textLength="80" x="587.5" y="538.0951">Preismodell</text></a><text fill="#000000" font-family="sans-serif" font-size="10" lengthAdjust="spacing" textLength="113" x="571" y="550.6791">bo4e.enum.preismodell</text></g><!--class Vertragsform--><g id="elem_Vertragsform"><rect codeLine="20" fill="#F1F1F1" height="37.9375" id="Vertragsform" rx="2.5" ry="2.5" style="stroke:#181818;stroke-width:0.5;" width="155" x="537" y="593.1"/><ellipse cx="552" cy="612.0688" fill="#ADD1B2" rx="11" ry="11" style="stroke:#181818;stroke-width:1.0;"/><path d="M554.9688,617.7094 Q554.3906,618.0063 553.75,618.1469 Q553.1094,618.3031 552.4063,618.3031 Q549.9063,618.3031 548.5781,616.6625 Q547.2656,615.0063 547.2656,611.8813 Q547.2656,608.7563 548.5781,607.1 Q549.9063,605.4438 552.4063,605.4438 Q553.1094,605.4438 553.75,605.6 Q554.4063,605.7563 554.9688,606.0531 L554.9688,608.7719 Q554.3438,608.1938 553.75,607.9281 Q553.1563,607.6469 552.5313,607.6469 Q551.1875,607.6469 550.5,608.725 Q549.8125,609.7875 549.8125,611.8813 Q549.8125,613.975 550.5,615.0531 Q551.1875,616.1156 552.5313,616.1156 Q553.1563,616.1156 553.75,615.85 Q554.3438,615.5688 554.9688,614.9906 L554.9688,617.7094 Z " fill="#000000"/><a href="https://bo4e.github.io/BO4E-python/latest/api/bo4e.enum.html#bo4e.enum.vertragsform.Vertragsform" target="_top" title="https://bo4e.github.io/BO4E-python/latest/api/bo4e.enum.html#bo4e.enum.vertragsform.Vertragsform" xlink:actuate="onRequest" xlink:href="https://bo4e.github.io/BO4E-python/latest/api/bo4e.enum.html#bo4e.enum.vertragsform.Vertragsform" xlink:show="new" xlink:title="https://bo4e.github.io/BO4E-python/latest/api/bo4e.enum.html#bo4e.enum.vertragsform.Vertragsform" xlink:type="simple"><text fill="#0000FF" font-family="sans-serif" font-size="14" lengthAdjust="spacing" text-decoration="underline" textLength="89" x="583" y="611.0951">Vertragsform</text></a><text fill="#000000" font-family="sans-serif" font-size="10" lengthAdjust="spacing" textLength="123" x="566" y="623.6791">bo4e.enum.vertragsform</text></g><!--class Rechnungslegung--><g id="elem_Rechnungslegung"><rect codeLine="21" fill="#F1F1F1" height="37.9375" id="Rechnungslegung" rx="2.5" ry="2.5" style="stroke:#181818;stroke-width:0.5;" width="172" x="528.5" y="666.1"/><ellipse cx="543.5" cy="685.0688" fill="#ADD1B2" rx="11" ry="11" style="stroke:#181818;stroke-width:1.0;"/><path d="M546.4688,690.7094 Q545.8906,691.0063 545.25,691.1469 Q544.6094,691.3031 543.9063,691.3031 Q541.4063,691.3031 540.0781,689.6625 Q538.7656,688.0063 538.7656,684.8813 Q538.7656,681.7563 540.0781,680.1 Q541.4063,678.4438 543.9063,678.4438 Q544.6094,678.4438 545.25,678.6 Q545.9063,678.7563 546.4688,679.0531 L546.4688,681.7719 Q545.8438,681.1938 545.25,680.9281 Q544.6563,680.6469 544.0313,680.6469 Q542.6875,680.6469 542,681.725 Q541.3125,682.7875 541.3125,684.8813 Q541.3125,686.975 542,688.0531 Q542.6875,689.1156 544.0313,689.1156 Q544.6563,689.1156 545.25,688.85 Q545.8438,688.5688 546.4688,687.9906 L546.4688,690.7094 Z " fill="#000000"/><a href="https://bo4e.github.io/BO4E-python/latest/api/bo4e.enum.html#bo4e.enum.rechnungslegung.Rechnungslegung" target="_top" title="https://bo4e.github.io/BO4E-python/latest/api/bo4e.enum.html#bo4e.enum.rechnungslegung.Rechnungslegung" xlink:actuate="onRequest" xlink:href="https://bo4e.github.io/BO4E-python/latest/api/bo4e.enum.html#bo4e.enum.rechnungslegung.Rechnungslegung" xlink:show="new" xlink:title="https://bo4e.github.io/BO4E-python/latest/api/bo4e.enum.html#bo4e.enum.rechnungslegung.Rechnungslegung" xlink:type="simple"><text fill="#0000FF" font-family="sans-serif" font-size="14" lengthAdjust="spacing" text-decoration="underline" textLength="128" x="563.5" y="684.0951">Rechnungslegung</text></a><text fill="#000000" font-family="sans-serif" font-size="10" lengthAdjust="spacing" textLength="140" x="557.5" y="696.6791">bo4e.enum.rechnungslegung</text></g><!--class Ausschreibungslos--><g id="elem_Ausschreibungslos"><rect codeLine="3" fill="#F1F1F1" height="127.4219" id="Ausschreibungslos" rx="2.5" ry="2.5" style="stroke:#181818;stroke-width:0.5;" width="267" x="7" y="279.36"/><ellipse cx="67.25" cy="298.3288" fill="#ADD1B2" rx="11" ry="11" style="stroke:#181818;stroke-width:1.0;"/><path d="M70.2188,303.9694 Q69.6406,304.2663 69,304.4069 Q68.3594,304.5631 67.6563,304.5631 Q65.1563,304.5631 63.8281,302.9225 Q62.5156,301.2663 62.5156,298.1413 Q62.5156,295.0163 63.8281,293.36 Q65.1563,291.7038 67.6563,291.7038 Q68.3594,291.7038 69,291.86 Q69.6563,292.0163 70.2188,292.3131 L70.2188,295.0319 Q69.5938,294.4538 69,294.1881 Q68.4063,293.9069 67.7813,293.9069 Q66.4375,293.9069 65.75,294.985 Q65.0625,296.0475 65.0625,298.1413 Q65.0625,300.235 65.75,301.3131 Q66.4375,302.3756 67.7813,302.3756 Q68.4063,302.3756 69,302.11 Q69.5938,301.8288 70.2188,301.2506 L70.2188,303.9694 Z " fill="#000000"/><a href="https://bo4e.github.io/BO4E-python/latest/api/bo4e.com.html#bo4e.com.ausschreibungslos.Ausschreibungslos" target="_top" title="https://bo4e.github.io/BO4E-python/latest/api/bo4e.com.html#bo4e.com.ausschreibungslos.Ausschreibungslos" xlink:actuate="onRequest" xlink:href="https://bo4e.github.io/BO4E-python/latest/api/bo4e.com.html#bo4e.com.ausschreibungslos.Ausschreibungslos" xlink:show="new" xlink:title="https://bo4e.github.io/BO4E-python/latest/api/bo4e.com.html#bo4e.com.ausschreibungslos.Ausschreibungslos" xlink:type="simple"><text fill="#0000FF" font-family="sans-serif" font-size="14" lengthAdjust="spacing" text-decoration="underline" textLength="132" x="90.75" y="297.3551">Ausschreibungslos</text></a><text fill="#000000" font-family="sans-serif" font-size="10" lengthAdjust="spacing" textLength="138" x="87.75" y="309.9391">bo4e.com.ausschreibungslos</text><line style="stroke:#181818;stroke-width:0.5;" x1="8" x2="273" y1="317.2975" y2="317.2975"/><text fill="#000000" font-family="sans-serif" font-size="14" lengthAdjust="spacing" textLength="206" x="13" y="334.2926">losnummer : str [0..1] = None</text><text fill="#000000" font-family="sans-serif" font-size="14" lengthAdjust="spacing" textLength="219" x="13" y="350.5895">bezeichnung : str [0..1] = None</text><text fill="#000000" font-family="sans-serif" font-size="14" lengthAdjust="spacing" textLength="221" x="13" y="366.8864">betreutDurch : str [0..1] = None</text><text fill="#000000" font-family="sans-serif" font-size="14" lengthAdjust="spacing" textLength="255" x="13" y="383.1832">anzahlLieferstellen : int [0..1] = None</text><text fill="#000000" font-family="sans-serif" font-size="14" lengthAdjust="spacing" textLength="208" x="13" y="399.4801">bemerkung : str [0..1] = None</text></g><!--link Ausschreibungslos to COM--><g id="link_Ausschreibungslos_COM"><path codeLine="24" d="M155.6,279.15 C175.24,207.28 218.5,93.99 304,43.07 C366.24,6 397.34,23.19 467,43.07 C515.95,57.03 550.5954,81.1371 577.6854,103.4471 " fill="none" id="Ausschreibungslos-to-COM" style="stroke:#181818;stroke-width:1.0;"/><polygon fill="none" points="591.58,114.89,581.4997,98.8156,573.8711,108.0786,591.58,114.89" style="stroke:#181818;stroke-width:1.0;"/></g><!--link Ausschreibungslos to Preismodell--><g id="link_Ausschreibungslos_Preismodell"><path codeLine="25" d="M194.56,406.99 C223.64,437.69 262.22,472.08 304,492.07 C379.62,528.26 464.4854,537.5404 529.5254,539.4904 " fill="none" id="Ausschreibungslos-to-Preismodell" style="stroke:#181818;stroke-width:1.0;"/><polygon fill="#181818" points="541.52,539.85,535.6426,535.672,529.5254,539.4904,535.4028,543.6684,541.52,539.85" style="stroke:#181818;stroke-width:1.0;"/><text fill="#000000" font-family="sans-serif" font-size="13" lengthAdjust="spacing" textLength="74" x="348.5" y="488.1369">preismodell</text><text fill="#000000" font-family="sans-serif" font-size="13" lengthAdjust="spacing" textLength="24" x="509.9515" y="552.6604">0..1</text></g><!--link Ausschreibungslos to Sparte--><g id="link_Ausschreibungslos_Sparte"><path codeLine="26" d="M232.55,407.17 C254.99,420.16 279.6,432.23 304,440.07 C387.68,466.96 478.2723,470.3824 541.7723,469.1524 " fill="none" id="Ausschreibungslos-to-Sparte" style="stroke:#181818;stroke-width:1.0;"/><polygon fill="#181818" points="553.77,468.92,547.6937,465.0369,541.7723,469.1524,547.8486,473.0354,553.77,468.92" style="stroke:#181818;stroke-width:1.0;"/><text fill="#000000" font-family="sans-serif" font-size="13" lengthAdjust="spacing" textLength="66" x="352.5" y="436.1369">energieart</text><text fill="#000000" font-family="sans-serif" font-size="13" lengthAdjust="spacing" textLength="24" x="521.8152" y="482.1263">0..1</text></g><!--link Ausschreibungslos to Rechnungslegung--><g id="link_Ausschreibungslos_Rechnungslegung"><path codeLine="27" d="M158.89,407 C180.91,475.01 225.74,580.19 304,635.07 C369.4,680.93 449.52,690.6508 516.24,690.5908 " fill="none" id="Ausschreibungslos-to-Rechnungslegung" style="stroke:#181818;stroke-width:1.0;"/><polygon fill="#181818" points="528.24,690.58,522.2364,686.5854,516.24,690.5908,522.2436,694.5854,528.24,690.58" style="stroke:#181818;stroke-width:1.0;"/><text fill="#000000" font-family="sans-serif" font-size="13" lengthAdjust="spacing" textLength="160" x="305.5" y="631.1369">wunschRechnungslegung</text><text fill="#000000" font-family="sans-serif" font-size="13" lengthAdjust="spacing" textLength="24" x="496.4099" y="703.689">0..1</text></g><!--link Ausschreibungslos to Vertragsform--><g id="link_Ausschreibungslos_Vertragsform"><path codeLine="28" d="M172.48,407.16 C199.96,456.81 244.91,523.03 304,559.07 C374.74,602.22 458.593,612.54 524.793,614.03 " fill="none" id="Ausschreibungslos-to-Vertragsform" style="stroke:#181818;stroke-width:1.0;"/><polygon fill="#181818" points="536.79,614.3,530.8815,610.166,524.793,614.03,530.7015,618.164,536.79,614.3" style="stroke:#181818;stroke-width:1.0;"/><text fill="#000000" font-family="sans-serif" font-size="13" lengthAdjust="spacing" textLength="132" x="319.5" y="555.1369">wunschVertragsform</text><text fill="#000000" font-family="sans-serif" font-size="13" lengthAdjust="spacing" textLength="24" x="505.0805" y="627.2089">0..1</text></g><!--link Ausschreibungslos to Ausschreibungsdetail--><g id="link_Ausschreibungslos_Ausschreibungsdetail"><path codeLine="29" d="M163.89,279.03 C188.25,220.28 233.45,136.85 304,99.07 C367.86,64.87 412.98,50.8 467,99.07 C478.84,109.65 464.64,158.04 475,170.07 C487.34,184.4 493.1094,189.9006 511.2294,195.5806 " fill="none" id="Ausschreibungslos-to-Ausschreibungsdetail" style="stroke:#181818;stroke-width:1.0;"/><polygon fill="#181818" points="522.68,199.17,518.1512,193.5584,511.2294,195.5806,515.7582,201.1922,522.68,199.17" style="stroke:#181818;stroke-width:1.0;"/><text fill="#000000" font-family="sans-serif" font-size="13" lengthAdjust="spacing" textLength="73" x="349" y="64.1369">lieferstellen</text><text fill="#000000" font-family="sans-serif" font-size="13" lengthAdjust="spacing" textLength="23" x="492.0924" y="211.2125">0..*</text></g><!--link Ausschreibungslos to Zeitraum--><g id="link_Ausschreibungslos_Zeitraum"><path codeLine="30" d="M176.25,279.26 C204.26,235.05 248.15,179.7 304,154.07 C369.84,123.85 413.53,105.19 467,154.07 C481.66,167.47 462.21,227.88 475,243.07 C493.59,265.16 511.8936,273.1024 539.3436,277.0724 " fill="none" id="Ausschreibungslos-to-Zeitraum" style="stroke:#181818;stroke-width:1.0;"/><polygon fill="#181818" points="551.22,278.79,545.8543,273.9724,539.3436,277.0724,544.7092,281.89,551.22,278.79" style="stroke:#181818;stroke-width:1.0;"/><text fill="#000000" font-family="sans-serif" font-size="13" lengthAdjust="spacing" textLength="88" x="341.5" y="120.1369">lieferzeitraum</text><text fill="#000000" font-family="sans-serif" font-size="13" lengthAdjust="spacing" textLength="24" x="519.4568" y="291.5053">0..1</text></g><!--link Ausschreibungslos to Zeitraum--><g id="link_Ausschreibungslos_Zeitraum"><path codeLine="31" d="M199.98,279.08 C228.46,252.62 264.95,224.93 304,211.07 C372.27,186.84 409.9,166.49 467,211.07 C478.56,220.09 464.72,232.62 475,243.07 C494.9,263.29 512.6969,270.906 539.4569,275.276 " fill="none" id="Ausschreibungslos-to-Zeitraum-1" style="stroke:#181818;stroke-width:1.0;"/><polygon fill="#181818" points="551.3,277.21,546.0231,272.2953,539.4569,275.276,544.7338,280.1907,551.3,277.21" style="stroke:#181818;stroke-width:1.0;"/><text fill="#000000" font-family="sans-serif" font-size="13" lengthAdjust="spacing" textLength="141" x="315" y="181.1369">wiederholungsintervall</text><text fill="#000000" font-family="sans-serif" font-size="13" lengthAdjust="spacing" textLength="24" x="519.545" y="273.2155">0..1</text></g><!--link Ausschreibungslos to Zeitraum--><g id="link_Ausschreibungslos_Zeitraum"><path codeLine="32" d="M266.5,279.01 C278.93,274.58 291.56,270.8 304,268.07 C388.03,249.61 476.056,257.1088 539.156,266.6888 " fill="none" id="Ausschreibungslos-to-Zeitraum-2" style="stroke:#181818;stroke-width:1.0;"/><polygon fill="#181818" points="551.02,268.49,545.6884,263.6347,539.156,266.6888,544.4876,271.5441,551.02,268.49" style="stroke:#181818;stroke-width:1.0;"/><text fill="#000000" font-family="sans-serif" font-size="13" lengthAdjust="spacing" textLength="161" x="305" y="254.1369">wunschKuendingungsfrist</text><text fill="#000000" font-family="sans-serif" font-size="13" lengthAdjust="spacing" textLength="24" x="519.5899" y="263.6854">0..1</text></g><!--link Ausschreibungslos to Zeitraum--><g id="link_Ausschreibungslos_Zeitraum"><path codeLine="33" d="M274.23,325.35 C364.9,313.25 468.9955,299.3581 539.1755,289.9881 " fill="none" id="Ausschreibungslos-to-Zeitraum-3" style="stroke:#181818;stroke-width:1.0;"/><polygon fill="#181818" points="551.07,288.4,544.5934,285.2292,539.1755,289.9881,545.6521,293.1589,551.07,288.4" style="stroke:#181818;stroke-width:1.0;"/><text fill="#000000" font-family="sans-serif" font-size="13" lengthAdjust="spacing" textLength="128" x="321.5" y="297.1369">wunschZahlungsziel</text><text fill="#000000" font-family="sans-serif" font-size="13" lengthAdjust="spacing" textLength="24" x="519.2913" y="302.1063">0..1</text></g><!--link Ausschreibungslos to Menge--><g id="link_Ausschreibungslos_Menge"><path codeLine="34" d="M274.23,345.88 C366.94,347.85 474.1327,350.115 543.7527,351.595 " fill="none" id="Ausschreibungslos-to-Menge" style="stroke:#181818;stroke-width:1.0;"/><polygon fill="#181818" points="555.75,351.85,549.8364,347.7234,543.7527,351.595,549.6663,355.7216,555.75,351.85" style="stroke:#181818;stroke-width:1.0;"/><text fill="#000000" font-family="sans-serif" font-size="13" lengthAdjust="spacing" textLength="92" x="339.5" y="343.1369">gesamtMenge</text><text fill="#000000" font-family="sans-serif" font-size="13" lengthAdjust="spacing" textLength="24" x="524.0117" y="347.9705">0..1</text></g><!--link Ausschreibungslos to Menge--><g id="link_Ausschreibungslos_Menge"><path codeLine="35" d="M274.21,371.39 C284.26,372.86 294.27,374.12 304,375.07 C376.1,382.1 394.76,380.46 467,375.07 C496.37,372.88 516.9315,370.2021 543.7815,365.7521 " fill="none" id="Ausschreibungslos-to-Menge-1" style="stroke:#181818;stroke-width:1.0;"/><polygon fill="#181818" points="555.62,363.79,549.0467,360.8249,543.7815,365.7521,550.3548,368.7172,555.62,363.79" style="stroke:#181818;stroke-width:1.0;"/><text fill="#000000" font-family="sans-serif" font-size="13" lengthAdjust="spacing" textLength="142" x="314.5" y="371.1369">wunschMindestmenge</text><text fill="#000000" font-family="sans-serif" font-size="13" lengthAdjust="spacing" textLength="24" x="523.8675" y="377.8571">0..1</text></g><!--link Ausschreibungslos to Menge--><g id="link_Ausschreibungslos_Menge"><path codeLine="36" d="M274.29,398.13 C284.23,400.89 294.2,403.26 304,405.07 C375.24,418.2 395.61,417.36 467,405.07 C503.17,398.84 531.1921,389.187 559.8821,377.167 " fill="none" id="Ausschreibungslos-to-Menge-2" style="stroke:#181818;stroke-width:1.0;"/><polygon fill="#181818" points="570.95,372.53,563.8704,371.1592,559.8821,377.167,566.9617,378.5378,570.95,372.53" style="stroke:#181818;stroke-width:1.0;"/><text fill="#000000" font-family="sans-serif" font-size="13" lengthAdjust="spacing" textLength="145" x="313" y="401.1369">wunschMaximalmenge</text><text fill="#000000" font-family="sans-serif" font-size="13" lengthAdjust="spacing" textLength="24" x="562.0766" y="392.1984">0..1</text></g><!--SRC=[hLRHRjCm57rUlkAgVPiqjnK3JH5C6cDFK8P0uc6b3svo6rlOJcKxAnJuTnndQTqqHM7DGsfVzzpZO_laEWAN5cmEccVCGier9fRdAeeIGOs1mMp6h5sPU3HQv9T8CcvPiI0y7xszlxoxMFsqB5SZGIqQEw8hNg6IN19cfHXk8reOap2DV56ep8ZSa9lc21oCpEVVr6l3DnXFnjV7gGP0MvBXLtJc6bL8YHfYC5R3R4p8P0vlu6EkC3fRu0PvmfJBE0Qm6Wlxhj09QqTGjQ5CVE2uH6qi2e7A0RcoXrHEnlTZC_s98aKbcXLDyCGzXpgQp_t6r24CxyOtLwzkottfzspBv_P-2kvfFp7tU2aEqFVS-sP8qL8k6jQg1g5ji8l1AcIBnwe_-bwGSwJLj93auQa3TQTTR8tt0cjetw8agWp9jFm5_zkknSEy40zohZxLrEXUty3LPHZQkenXc4wI5o-lJlNrTghXBdJIjKNonJTGDOTB3w1UMeNhNytAES_8F7LLXdpQzI7e7n4NP7g5GKR_CXzHEnDcPfbhIRu60OJ14QLXifSQvlIlrTrsllmRWPbhoEVz61hn4T4D5g-xaLbM-9Ohx-BYz_MsGfT5j0taKESmAE-BmSxsUmw88JZXxXHFleu15UgCeukw9pUtAePreLncS-6T2VUiKhFj7V-_gCu7ktrihVynYF2MxgIh9DlMuPgWhhZFOLXpJ56pN9G9xYi1zIFjU69D9hyzxmjKALVbHfkbviO-d-h1VSUK6HkEtGLLLq8C6HegRLNr_pUtcdxALUfULtaA1Vt19HKLHSHuYY1HBjoHHuRbQsXXNRh5fkOl]--></g></svg>