<?xml version="1.0" encoding="us-ascii" standalone="no"?><svg xmlns="http://www.w3.org/2000/svg" xmlns:xlink="http://www.w3.org/1999/xlink" contentStyleType="text/css" height="772px" preserveAspectRatio="none" style="width:753px;height:772px;background:#FFFFFF;" version="1.1" viewBox="0 0 753 772" width="753px" zoomAndPan="magnify"><defs/><g><!--cluster bo4e--><g id="cluster_bo4e"><path d="M485.5,58.5659 L526.5,58.5659 A3.75,3.75 0 0 1 529,61.0659 L536,80.8628 L743.5,80.8628 A2.5,2.5 0 0 1 746,83.3628 L746,763.0659 A2.5,2.5 0 0 1 743.5,765.5659 L485.5,765.5659 A2.5,2.5 0 0 1 483,763.0659 L483,61.0659 A2.5,2.5 0 0 1 485.5,58.5659 " fill="none" style="stroke:#000000;stroke-width:1.5;"/><line style="stroke:#000000;stroke-width:1.5;" x1="483" x2="536" y1="80.8628" y2="80.8628"/><text fill="#000000" font-family="sans-serif" font-size="14" font-weight="bold" lengthAdjust="spacing" textLength="40" x="487" y="73.561">bo4e</text></g><!--cluster com--><g id="cluster_com"><path d="M509.5,101.5659 L588.5,101.5659 A3.75,3.75 0 0 1 591,104.0659 L598,123.8628 L719.5,123.8628 A2.5,2.5 0 0 1 722,126.3628 L722,407.0659 A2.5,2.5 0 0 1 719.5,409.5659 L509.5,409.5659 A2.5,2.5 0 0 1 507,407.0659 L507,104.0659 A2.5,2.5 0 0 1 509.5,101.5659 " fill="#E0A86C" style="stroke:#000000;stroke-width:1.5;"/><line style="stroke:#000000;stroke-width:1.5;" x1="507" x2="598" y1="123.8628" y2="123.8628"/><a href="https://bo4e.github.io/BO4E-python/latest/api/bo4e.com.html" target="_top" title="https://bo4e.github.io/BO4E-python/latest/api/bo4e.com.html" xlink:actuate="onRequest" xlink:href="https://bo4e.github.io/BO4E-python/latest/api/bo4e.com.html" xlink:show="new" xlink:title="https://bo4e.github.io/BO4E-python/latest/api/bo4e.com.html" xlink:type="simple"><text fill="#0000FF" font-family="sans-serif" font-size="14" font-weight="bold" lengthAdjust="spacing" text-decoration="underline" textLength="78" x="511" y="116.561">bo4e.com</text></a></g><!--cluster enum--><g id="cluster_enum"><path d="M515,433.5659 L605,433.5659 A3.75,3.75 0 0 1 607.5,436.0659 L614.5,455.8628 L714,455.8628 A2.5,2.5 0 0 1 716.5,458.3628 L716.5,739.0659 A2.5,2.5 0 0 1 714,741.5659 L515,741.5659 A2.5,2.5 0 0 1 512.5,739.0659 L512.5,436.0659 A2.5,2.5 0 0 1 515,433.5659 " fill="#D1C358" style="stroke:#000000;stroke-width:1.5;"/><line style="stroke:#000000;stroke-width:1.5;" x1="512.5" x2="614.5" y1="455.8628" y2="455.8628"/><a href="https://bo4e.github.io/BO4E-python/latest/api/bo4e.enum.html" target="_top" title="https://bo4e.github.io/BO4E-python/latest/api/bo4e.enum.html" xlink:actuate="onRequest" xlink:href="https://bo4e.github.io/BO4E-python/latest/api/bo4e.enum.html" xlink:show="new" xlink:title="https://bo4e.github.io/BO4E-python/latest/api/bo4e.enum.html" xlink:type="simple"><text fill="#0000FF" font-family="sans-serif" font-size="14" font-weight="bold" lengthAdjust="spacing" text-decoration="underline" textLength="89" x="516.5" y="448.561">bo4e.enum</text></a></g><!--class Zeitraum--><g id="elem_Zeitraum"><rect codeLine="12" fill="#F1F1F1" height="37.9375" id="Zeitraum" rx="2.5" ry="2.5" style="stroke:#181818;stroke-width:0.5;" width="126" x="551.5" y="136.5959"/><ellipse cx="566.5" cy="155.5647" fill="#ADD1B2" rx="11" ry="11" style="stroke:#181818;stroke-width:1.0;"/><path d="M569.4688,161.2053 Q568.8906,161.5022 568.25,161.6428 Q567.6094,161.799 566.9063,161.799 Q564.4063,161.799 563.0781,160.1584 Q561.7656,158.5022 561.7656,155.3772 Q561.7656,152.2522 563.0781,150.5959 Q564.4063,148.9397 566.9063,148.9397 Q567.6094,148.9397 568.25,149.0959 Q568.9063,149.2522 569.4688,149.549 L569.4688,152.2678 Q568.8438,151.6897 568.25,151.424 Q567.6563,151.1428 567.0313,151.1428 Q565.6875,151.1428 565,152.2209 Q564.3125,153.2834 564.3125,155.3772 Q564.3125,157.4709 565,158.549 Q565.6875,159.6115 567.0313,159.6115 Q567.6563,159.6115 568.25,159.3459 Q568.8438,159.0647 569.4688,158.4865 L569.4688,161.2053 Z " fill="#000000"/><a href="https://bo4e.github.io/BO4E-python/latest/api/bo4e.com.html#bo4e.com.zeitraum.Zeitraum" target="_top" title="https://bo4e.github.io/BO4E-python/latest/api/bo4e.com.html#bo4e.com.zeitraum.Zeitraum" xlink:actuate="onRequest" xlink:href="https://bo4e.github.io/BO4E-python/latest/api/bo4e.com.html#bo4e.com.zeitraum.Zeitraum" xlink:show="new" xlink:title="https://bo4e.github.io/BO4E-python/latest/api/bo4e.com.html#bo4e.com.zeitraum.Zeitraum" xlink:type="simple"><text fill="#0000FF" font-family="sans-serif" font-size="14" lengthAdjust="spacing" text-decoration="underline" textLength="62" x="596.5" y="154.591">Zeitraum</text></a><text fill="#000000" font-family="sans-serif" font-size="10" lengthAdjust="spacing" textLength="94" x="580.5" y="167.175">bo4e.com.zeitraum</text></g><!--class Ausschreibungsdetail--><g id="elem_Ausschreibungsdetail"><rect codeLine="13" fill="#F1F1F1" height="37.9375" id="Ausschreibungsdetail" rx="2.5" ry="2.5" style="stroke:#181818;stroke-width:0.5;" width="183" x="523" y="209.5959"/><ellipse cx="538" cy="228.5647" fill="#ADD1B2" rx="11" ry="11" style="stroke:#181818;stroke-width:1.0;"/><path d="M540.9688,234.2053 Q540.3906,234.5022 539.75,234.6428 Q539.1094,234.799 538.4063,234.799 Q535.9063,234.799 534.5781,233.1584 Q533.2656,231.5022 533.2656,228.3772 Q533.2656,225.2522 534.5781,223.5959 Q535.9063,221.9397 538.4063,221.9397 Q539.1094,221.9397 539.75,222.0959 Q540.4063,222.2522 540.9688,222.549 L540.9688,225.2678 Q540.3438,224.6897 539.75,224.424 Q539.1563,224.1428 538.5313,224.1428 Q537.1875,224.1428 536.5,225.2209 Q535.8125,226.2834 535.8125,228.3772 Q535.8125,230.4709 536.5,231.549 Q537.1875,232.6115 538.5313,232.6115 Q539.1563,232.6115 539.75,232.3459 Q540.3438,232.0647 540.9688,231.4865 L540.9688,234.2053 Z " fill="#000000"/><a href="https://bo4e.github.io/BO4E-python/latest/api/bo4e.com.html#bo4e.com.ausschreibungsdetail.Ausschreibungsdetail" target="_top" title="https://bo4e.github.io/BO4E-python/latest/api/bo4e.com.html#bo4e.com.ausschreibungsdetail.Ausschreibungsdetail" xlink:actuate="onRequest" xlink:href="https://bo4e.github.io/BO4E-python/latest/api/bo4e.com.html#bo4e.com.ausschreibungsdetail.Ausschreibungsdetail" xlink:show="new" xlink:title="https://bo4e.github.io/BO4E-python/latest/api/bo4e.com.html#bo4e.com.ausschreibungsdetail.Ausschreibungsdetail" xlink:type="simple"><text fill="#0000FF" font-family="sans-serif" font-size="14" lengthAdjust="spacing" text-decoration="underline" textLength="149" x="553" y="227.591">Ausschreibungsdetail</text></a><text fill="#000000" font-family="sans-serif" font-size="10" lengthAdjust="spacing" textLength="151" x="552" y="240.175">bo4e.com.ausschreibungsdetail</text></g><!--class Menge--><g id="elem_Menge"><rect codeLine="14" fill="#F1F1F1" height="37.9375" id="Menge" rx="2.5" ry="2.5" style="stroke:#181818;stroke-width:0.5;" width="117" x="556" y="282.5959"/><ellipse cx="571" cy="301.5647" fill="#ADD1B2" rx="11" ry="11" style="stroke:#181818;stroke-width:1.0;"/><path d="M573.9688,307.2053 Q573.3906,307.5022 572.75,307.6428 Q572.1094,307.799 571.4063,307.799 Q568.9063,307.799 567.5781,306.1584 Q566.2656,304.5022 566.2656,301.3772 Q566.2656,298.2522 567.5781,296.5959 Q568.9063,294.9397 571.4063,294.9397 Q572.1094,294.9397 572.75,295.0959 Q573.4063,295.2522 573.9688,295.549 L573.9688,298.2678 Q573.3438,297.6897 572.75,297.424 Q572.1563,297.1428 571.5313,297.1428 Q570.1875,297.1428 569.5,298.2209 Q568.8125,299.2834 568.8125,301.3772 Q568.8125,303.4709 569.5,304.549 Q570.1875,305.6115 571.5313,305.6115 Q572.1563,305.6115 572.75,305.3459 Q573.3438,305.0647 573.9688,304.4865 L573.9688,307.2053 Z " fill="#000000"/><a href="https://bo4e.github.io/BO4E-python/latest/api/bo4e.com.html#bo4e.com.menge.Menge" target="_top" title="https://bo4e.github.io/BO4E-python/latest/api/bo4e.com.html#bo4e.com.menge.Menge" xlink:actuate="onRequest" xlink:href="https://bo4e.github.io/BO4E-python/latest/api/bo4e.com.html#bo4e.com.menge.Menge" xlink:show="new" xlink:title="https://bo4e.github.io/BO4E-python/latest/api/bo4e.com.html#bo4e.com.menge.Menge" xlink:type="simple"><text fill="#0000FF" font-family="sans-serif" font-size="14" lengthAdjust="spacing" text-decoration="underline" textLength="48" x="603.5" y="300.591">Menge</text></a><text fill="#000000" font-family="sans-serif" font-size="10" lengthAdjust="spacing" textLength="85" x="585" y="313.175">bo4e.com.menge</text></g><!--class COM--><g id="elem_COM"><rect codeLine="15" fill="#F1F1F1" height="37.9375" id="COM" rx="2.5" ry="2.5" style="stroke:#181818;stroke-width:0.5;" width="104" x="562.5" y="355.5959"/><ellipse cx="577.5" cy="374.5647" fill="#ADD1B2" rx="11" ry="11" style="stroke:#181818;stroke-width:1.0;"/><path d="M580.4688,380.2053 Q579.8906,380.5022 579.25,380.6428 Q578.6094,380.799 577.9063,380.799 Q575.4063,380.799 574.0781,379.1584 Q572.7656,377.5022 572.7656,374.3772 Q572.7656,371.2522 574.0781,369.5959 Q575.4063,367.9397 577.9063,367.9397 Q578.6094,367.9397 579.25,368.0959 Q579.9063,368.2522 580.4688,368.549 L580.4688,371.2678 Q579.8438,370.6897 579.25,370.424 Q578.6563,370.1428 578.0313,370.1428 Q576.6875,370.1428 576,371.2209 Q575.3125,372.2834 575.3125,374.3772 Q575.3125,376.4709 576,377.549 Q576.6875,378.6115 578.0313,378.6115 Q578.6563,378.6115 579.25,378.3459 Q579.8438,378.0647 580.4688,377.4865 L580.4688,380.2053 Z " fill="#000000"/><a href="https://bo4e.github.io/BO4E-python/latest/api/bo4e.com.html#bo4e.com.com.COM" target="_top" title="https://bo4e.github.io/BO4E-python/latest/api/bo4e.com.html#bo4e.com.com.COM" xlink:actuate="onRequest" xlink:href="https://bo4e.github.io/BO4E-python/latest/api/bo4e.com.html#bo4e.com.com.COM" xlink:show="new" xlink:title="https://bo4e.github.io/BO4E-python/latest/api/bo4e.com.html#bo4e.com.com.COM" xlink:type="simple"><text fill="#0000FF" font-family="sans-serif" font-size="14" lengthAdjust="spacing" text-decoration="underline" textLength="33" x="611" y="373.591">COM</text></a><text fill="#000000" font-family="sans-serif" font-size="10" lengthAdjust="spacing" textLength="72" x="591.5" y="386.175">bo4e.com.com</text></g><!--class Vertragsform--><g id="elem_Vertragsform"><rect codeLine="18" fill="#F1F1F1" height="37.9375" id="Vertragsform" rx="2.5" ry="2.5" style="stroke:#181818;stroke-width:0.5;" width="155" x="537" y="468.5959"/><ellipse cx="552" cy="487.5647" fill="#ADD1B2" rx="11" ry="11" style="stroke:#181818;stroke-width:1.0;"/><path d="M554.9688,493.2053 Q554.3906,493.5022 553.75,493.6428 Q553.1094,493.799 552.4063,493.799 Q549.9063,493.799 548.5781,492.1584 Q547.2656,490.5022 547.2656,487.3772 Q547.2656,484.2522 548.5781,482.5959 Q549.9063,480.9397 552.4063,480.9397 Q553.1094,480.9397 553.75,481.0959 Q554.4063,481.2522 554.9688,481.549 L554.9688,484.2678 Q554.3438,483.6897 553.75,483.424 Q553.1563,483.1428 552.5313,483.1428 Q551.1875,483.1428 550.5,484.2209 Q549.8125,485.2834 549.8125,487.3772 Q549.8125,489.4709 550.5,490.549 Q551.1875,491.6115 552.5313,491.6115 Q553.1563,491.6115 553.75,491.3459 Q554.3438,491.0647 554.9688,490.4865 L554.9688,493.2053 Z " fill="#000000"/><a href="https://bo4e.github.io/BO4E-python/latest/api/bo4e.enum.html#bo4e.enum.vertragsform.Vertragsform" target="_top" title="https://bo4e.github.io/BO4E-python/latest/api/bo4e.enum.html#bo4e.enum.vertragsform.Vertragsform" xlink:actuate="onRequest" xlink:href="https://bo4e.github.io/BO4E-python/latest/api/bo4e.enum.html#bo4e.enum.vertragsform.Vertragsform" xlink:show="new" xlink:title="https://bo4e.github.io/BO4E-python/latest/api/bo4e.enum.html#bo4e.enum.vertragsform.Vertragsform" xlink:type="simple"><text fill="#0000FF" font-family="sans-serif" font-size="14" lengthAdjust="spacing" text-decoration="underline" textLength="89" x="583" y="486.591">Vertragsform</text></a><text fill="#000000" font-family="sans-serif" font-size="10" lengthAdjust="spacing" textLength="123" x="566" y="499.175">bo4e.enum.vertragsform</text></g><!--class Preismodell--><g id="elem_Preismodell"><rect codeLine="19" fill="#F1F1F1" height="37.9375" id="Preismodell" rx="2.5" ry="2.5" style="stroke:#181818;stroke-width:0.5;" width="145" x="542" y="541.5959"/><ellipse cx="557" cy="560.5647" fill="#ADD1B2" rx="11" ry="11" style="stroke:#181818;stroke-width:1.0;"/><path d="M559.9688,566.2053 Q559.3906,566.5022 558.75,566.6428 Q558.1094,566.799 557.4063,566.799 Q554.9063,566.799 553.5781,565.1584 Q552.2656,563.5022 552.2656,560.3772 Q552.2656,557.2522 553.5781,555.5959 Q554.9063,553.9397 557.4063,553.9397 Q558.1094,553.9397 558.75,554.0959 Q559.4063,554.2522 559.9688,554.549 L559.9688,557.2678 Q559.3438,556.6897 558.75,556.424 Q558.1563,556.1428 557.5313,556.1428 Q556.1875,556.1428 555.5,557.2209 Q554.8125,558.2834 554.8125,560.3772 Q554.8125,562.4709 555.5,563.549 Q556.1875,564.6115 557.5313,564.6115 Q558.1563,564.6115 558.75,564.3459 Q559.3438,564.0647 559.9688,563.4865 L559.9688,566.2053 Z " fill="#000000"/><a href="https://bo4e.github.io/BO4E-python/latest/api/bo4e.enum.html#bo4e.enum.preismodell.Preismodell" target="_top" title="https://bo4e.github.io/BO4E-python/latest/api/bo4e.enum.html#bo4e.enum.preismodell.Preismodell" xlink:actuate="onRequest" xlink:href="https://bo4e.github.io/BO4E-python/latest/api/bo4e.enum.html#bo4e.enum.preismodell.Preismodell" xlink:show="new" xlink:title="https://bo4e.github.io/BO4E-python/latest/api/bo4e.enum.html#bo4e.enum.preismodell.Preismodell" xlink:type="simple"><text fill="#0000FF" font-family="sans-serif" font-size="14" lengthAdjust="spacing" text-decoration="underline" textLength="80" x="587.5" y="559.591">Preismodell</text></a><text fill="#000000" font-family="sans-serif" font-size="10" lengthAdjust="spacing" textLength="113" x="571" y="572.175">bo4e.enum.preismodell</text></g><!--class Sparte--><g id="elem_Sparte"><rect codeLine="20" fill="#F1F1F1" height="37.9375" id="Sparte" rx="2.5" ry="2.5" style="stroke:#181818;stroke-width:0.5;" width="121" x="554" y="614.5959"/><ellipse cx="569" cy="633.5647" fill="#ADD1B2" rx="11" ry="11" style="stroke:#181818;stroke-width:1.0;"/><path d="M571.9688,639.2053 Q571.3906,639.5022 570.75,639.6428 Q570.1094,639.799 569.4063,639.799 Q566.9063,639.799 565.5781,638.1584 Q564.2656,636.5022 564.2656,633.3772 Q564.2656,630.2522 565.5781,628.5959 Q566.9063,626.9397 569.4063,626.9397 Q570.1094,626.9397 570.75,627.0959 Q571.4063,627.2522 571.9688,627.549 L571.9688,630.2678 Q571.3438,629.6897 570.75,629.424 Q570.1563,629.1428 569.5313,629.1428 Q568.1875,629.1428 567.5,630.2209 Q566.8125,631.2834 566.8125,633.3772 Q566.8125,635.4709 567.5,636.549 Q568.1875,637.6115 569.5313,637.6115 Q570.1563,637.6115 570.75,637.3459 Q571.3438,637.0647 571.9688,636.4865 L571.9688,639.2053 Z " fill="#000000"/><a href="https://bo4e.github.io/BO4E-python/latest/api/bo4e.enum.html#bo4e.enum.sparte.Sparte" target="_top" title="https://bo4e.github.io/BO4E-python/latest/api/bo4e.enum.html#bo4e.enum.sparte.Sparte" xlink:actuate="onRequest" xlink:href="https://bo4e.github.io/BO4E-python/latest/api/bo4e.enum.html#bo4e.enum.sparte.Sparte" xlink:show="new" xlink:title="https://bo4e.github.io/BO4E-python/latest/api/bo4e.enum.html#bo4e.enum.sparte.Sparte" xlink:type="simple"><text fill="#0000FF" font-family="sans-serif" font-size="14" lengthAdjust="spacing" text-decoration="underline" textLength="45" x="605" y="632.591">Sparte</text></a><text fill="#000000" font-family="sans-serif" font-size="10" lengthAdjust="spacing" textLength="89" x="583" y="645.175">bo4e.enum.sparte</text></g><!--class Rechnungslegung--><g id="elem_Rechnungslegung"><rect codeLine="21" fill="#F1F1F1" height="37.9375" id="Rechnungslegung" rx="2.5" ry="2.5" style="stroke:#181818;stroke-width:0.5;" width="172" x="528.5" y="687.5959"/><ellipse cx="543.5" cy="706.5647" fill="#ADD1B2" rx="11" ry="11" style="stroke:#181818;stroke-width:1.0;"/><path d="M546.4688,712.2053 Q545.8906,712.5022 545.25,712.6428 Q544.6094,712.799 543.9063,712.799 Q541.4063,712.799 540.0781,711.1584 Q538.7656,709.5022 538.7656,706.3772 Q538.7656,703.2522 540.0781,701.5959 Q541.4063,699.9397 543.9063,699.9397 Q544.6094,699.9397 545.25,700.0959 Q545.9063,700.2522 546.4688,700.549 L546.4688,703.2678 Q545.8438,702.6897 545.25,702.424 Q544.6563,702.1428 544.0313,702.1428 Q542.6875,702.1428 542,703.2209 Q541.3125,704.2834 541.3125,706.3772 Q541.3125,708.4709 542,709.549 Q542.6875,710.6115 544.0313,710.6115 Q544.6563,710.6115 545.25,710.3459 Q545.8438,710.0647 546.4688,709.4865 L546.4688,712.2053 Z " fill="#000000"/><a href="https://bo4e.github.io/BO4E-python/latest/api/bo4e.enum.html#bo4e.enum.rechnungslegung.Rechnungslegung" target="_top" title="https://bo4e.github.io/BO4E-python/latest/api/bo4e.enum.html#bo4e.enum.rechnungslegung.Rechnungslegung" xlink:actuate="onRequest" xlink:href="https://bo4e.github.io/BO4E-python/latest/api/bo4e.enum.html#bo4e.enum.rechnungslegung.Rechnungslegung" xlink:show="new" xlink:title="https://bo4e.github.io/BO4E-python/latest/api/bo4e.enum.html#bo4e.enum.rechnungslegung.Rechnungslegung" xlink:type="simple"><text fill="#0000FF" font-family="sans-serif" font-size="14" lengthAdjust="spacing" text-decoration="underline" textLength="128" x="563.5" y="705.591">Rechnungslegung</text></a><text fill="#000000" font-family="sans-serif" font-size="10" lengthAdjust="spacing" textLength="140" x="557.5" y="718.175">bo4e.enum.rechnungslegung</text></g><!--class Ausschreibungslos--><g id="elem_Ausschreibungslos"><rect codeLine="3" fill="#F1F1F1" height="127.4219" id="Ausschreibungslos" rx="2.5" ry="2.5" style="stroke:#181818;stroke-width:0.5;" width="267" x="7" y="284.8559"/><ellipse cx="67.25" cy="303.8247" fill="#ADD1B2" rx="11" ry="11" style="stroke:#181818;stroke-width:1.0;"/><path d="M70.2188,309.4653 Q69.6406,309.7622 69,309.9028 Q68.3594,310.059 67.6563,310.059 Q65.1563,310.059 63.8281,308.4184 Q62.5156,306.7622 62.5156,303.6372 Q62.5156,300.5122 63.8281,298.8559 Q65.1563,297.1997 67.6563,297.1997 Q68.3594,297.1997 69,297.3559 Q69.6563,297.5122 70.2188,297.809 L70.2188,300.5278 Q69.5938,299.9497 69,299.684 Q68.4063,299.4028 67.7813,299.4028 Q66.4375,299.4028 65.75,300.4809 Q65.0625,301.5434 65.0625,303.6372 Q65.0625,305.7309 65.75,306.809 Q66.4375,307.8715 67.7813,307.8715 Q68.4063,307.8715 69,307.6059 Q69.5938,307.3247 70.2188,306.7465 L70.2188,309.4653 Z " fill="#000000"/><a href="https://bo4e.github.io/BO4E-python/latest/api/bo4e.com.html#bo4e.com.ausschreibungslos.Ausschreibungslos" target="_top" title="https://bo4e.github.io/BO4E-python/latest/api/bo4e.com.html#bo4e.com.ausschreibungslos.Ausschreibungslos" xlink:actuate="onRequest" xlink:href="https://bo4e.github.io/BO4E-python/latest/api/bo4e.com.html#bo4e.com.ausschreibungslos.Ausschreibungslos" xlink:show="new" xlink:title="https://bo4e.github.io/BO4E-python/latest/api/bo4e.com.html#bo4e.com.ausschreibungslos.Ausschreibungslos" xlink:type="simple"><text fill="#0000FF" font-family="sans-serif" font-size="14" lengthAdjust="spacing" text-decoration="underline" textLength="132" x="90.75" y="302.851">Ausschreibungslos</text></a><text fill="#000000" font-family="sans-serif" font-size="10" lengthAdjust="spacing" textLength="138" x="87.75" y="315.435">bo4e.com.ausschreibungslos</text><line style="stroke:#181818;stroke-width:0.5;" x1="8" x2="273" y1="322.7934" y2="322.7934"/><text fill="#000000" font-family="sans-serif" font-size="14" lengthAdjust="spacing" textLength="206" x="13" y="339.7885">losnummer : str [0..1] = None</text><text fill="#000000" font-family="sans-serif" font-size="14" lengthAdjust="spacing" textLength="219" x="13" y="356.0854">bezeichnung : str [0..1] = None</text><text fill="#000000" font-family="sans-serif" font-size="14" lengthAdjust="spacing" textLength="221" x="13" y="372.3823">betreutDurch : str [0..1] = None</text><text fill="#000000" font-family="sans-serif" font-size="14" lengthAdjust="spacing" textLength="255" x="13" y="388.6792">anzahlLieferstellen : int [0..1] = None</text><text fill="#000000" font-family="sans-serif" font-size="14" lengthAdjust="spacing" textLength="208" x="13" y="404.976">bemerkung : str [0..1] = None</text></g><!--link Ausschreibungslos to COM--><g id="link_Ausschreibungslos_COM"><path codeLine="24" d="M234.56,412.6659 C256.42,424.5859 280.28,435.2559 304,441.5659 C374.01,460.1859 396.22,456.9859 467,441.5659 C508.81,432.4559 537.3206,419.1995 566.0906,402.8495 " fill="none" id="Ausschreibungslos-to-COM" style="stroke:#181818;stroke-width:1.0;"/><polygon fill="none" points="581.74,393.9559,563.1261,397.633,569.0551,408.066,581.74,393.9559" style="stroke:#181818;stroke-width:1.0;"/></g><!--link Ausschreibungslos to Preismodell--><g id="link_Ausschreibungslos_Preismodell"><path codeLine="25" d="M181.17,412.6059 C209.96,453.1059 252.76,502.5559 304,528.5659 C378.54,566.4059 464.0719,570.7206 529.5419,567.8006 " fill="none" id="Ausschreibungslos-to-Preismodell" style="stroke:#181818;stroke-width:1.0;"/><polygon fill="#181818" points="541.53,567.2659,535.3577,563.5372,529.5419,567.8006,535.7142,571.5293,541.53,567.2659" style="stroke:#181818;stroke-width:1.0;"/><text fill="#000000" font-family="sans-serif" font-size="13" lengthAdjust="spacing" textLength="74" x="348.5" y="524.6328">preismodell</text><text fill="#000000" font-family="sans-serif" font-size="13" lengthAdjust="spacing" textLength="24" x="509.9624" y="580.6035">0..1</text></g><!--link Ausschreibungslos to Sparte--><g id="link_Ausschreibungslos_Sparte"><path codeLine="26" d="M166.04,412.7759 C191.46,469.9259 236.95,550.7659 304,592.5659 C380.24,640.0959 475.5184,643.9307 541.6684,640.2607 " fill="none" id="Ausschreibungslos-to-Sparte" style="stroke:#181818;stroke-width:1.0;"/><polygon fill="#181818" points="553.65,639.5959,547.4376,635.9344,541.6684,640.2607,547.8808,643.9221,553.65,639.5959" style="stroke:#181818;stroke-width:1.0;"/><text fill="#000000" font-family="sans-serif" font-size="13" lengthAdjust="spacing" textLength="66" x="352.5" y="588.6328">energieart</text><text fill="#000000" font-family="sans-serif" font-size="13" lengthAdjust="spacing" textLength="24" x="522.1373" y="653.0651">0..1</text></g><!--link Ausschreibungslos to Rechnungslegung--><g id="link_Ausschreibungslos_Rechnungslegung"><path codeLine="27" d="M155.64,412.7259 C175.45,486.2959 218.99,604.4759 304,664.5659 C368.98,710.4959 449.1673,717.9939 516.0173,715.6639 " fill="none" id="Ausschreibungslos-to-Rechnungslegung" style="stroke:#181818;stroke-width:1.0;"/><polygon fill="#181818" points="528.01,715.2459,521.8743,711.4573,516.0173,715.6639,522.153,719.4525,528.01,715.2459" style="stroke:#181818;stroke-width:1.0;"/><text fill="#000000" font-family="sans-serif" font-size="13" lengthAdjust="spacing" textLength="160" x="305.5" y="660.6328">wunschRechnungslegung</text><text fill="#000000" font-family="sans-serif" font-size="13" lengthAdjust="spacing" textLength="24" x="496.4694" y="728.5568">0..1</text></g><!--link Ausschreibungslos to Vertragsform--><g id="link_Ausschreibungslos_Vertragsform"><path codeLine="28" d="M201.37,412.6459 C229.72,438.5059 265.73,465.5059 304,479.5659 C379.43,507.2859 460.3691,506.5459 524.5891,500.1459 " fill="none" id="Ausschreibungslos-to-Vertragsform" style="stroke:#181818;stroke-width:1.0;"/><polygon fill="#181818" points="536.53,498.9559,530.1629,495.5706,524.5891,500.1459,530.9562,503.5312,536.53,498.9559" style="stroke:#181818;stroke-width:1.0;"/><text fill="#000000" font-family="sans-serif" font-size="13" lengthAdjust="spacing" textLength="132" x="319.5" y="475.6328">wunschVertragsform</text><text fill="#000000" font-family="sans-serif" font-size="13" lengthAdjust="spacing" textLength="24" x="505.0794" y="512.5927">0..1</text></g><!--link Ausschreibungslos to Ausschreibungsdetail--><g id="link_Ausschreibungslos_Ausschreibungsdetail"><path codeLine="29" d="M274.46,299.3559 C284.41,296.2159 294.33,293.2459 304,290.5659 C376.61,270.4459 448.6897,256.1246 510.7997,245.2546 " fill="none" id="Ausschreibungslos-to-Ausschreibungsdetail" style="stroke:#181818;stroke-width:1.0;"/><polygon fill="#181818" points="522.62,243.1859,516.0203,240.2802,510.7997,245.2546,517.3994,248.1604,522.62,243.1859" style="stroke:#181818;stroke-width:1.0;"/><text fill="#000000" font-family="sans-serif" font-size="13" lengthAdjust="spacing" textLength="73" x="349" y="250.6328">lieferstellen</text><text fill="#000000" font-family="sans-serif" font-size="13" lengthAdjust="spacing" textLength="23" x="492.028" y="256.8822">0..*</text></g><!--link Ausschreibungslos to Zeitraum--><g id="link_Ausschreibungslos_Zeitraum"><path codeLine="30" d="M155.23,284.6759 C174.6,212.1459 217.69,97.2159 304,45.5659 C366.16,8.3659 398.28,22.6359 467,45.5659 C520.7,63.4859 562.2449,101.0042 587.6349,127.4842 " fill="none" id="Ausschreibungslos-to-Zeitraum" style="stroke:#181818;stroke-width:1.0;"/><polygon fill="#181818" points="595.94,136.1459,594.6747,129.0467,587.6349,127.4842,588.9002,134.5835,595.94,136.1459" style="stroke:#181818;stroke-width:1.0;"/><text fill="#000000" font-family="sans-serif" font-size="13" lengthAdjust="spacing" textLength="88" x="341.5" y="19.6328">lieferzeitraum</text><text fill="#000000" font-family="sans-serif" font-size="13" lengthAdjust="spacing" textLength="24" x="563.345" y="125.6606">0..1</text></g><!--link Ausschreibungslos to Zeitraum--><g id="link_Ausschreibungslos_Zeitraum"><path codeLine="31" d="M163.51,284.5759 C187.71,225.3359 232.89,140.8159 304,102.5659 C394.5,53.8859 508.8591,100.1366 568.4991,130.8166 " fill="none" id="Ausschreibungslos-to-Zeitraum-1" style="stroke:#181818;stroke-width:1.0;"/><polygon fill="#181818" points="579.17,136.3059,575.6643,130.0043,568.4991,130.8166,572.0048,137.1182,579.17,136.3059" style="stroke:#181818;stroke-width:1.0;"/><text fill="#000000" font-family="sans-serif" font-size="13" lengthAdjust="spacing" textLength="141" x="315" y="79.6328">wiederholungsintervall</text><text fill="#000000" font-family="sans-serif" font-size="13" lengthAdjust="spacing" textLength="24" x="541.2668" y="125.5319">0..1</text></g><!--link Ausschreibungslos to Zeitraum--><g id="link_Ausschreibungslos_Zeitraum"><path codeLine="32" d="M176.65,284.5059 C204.72,240.4759 248.52,185.4659 304,159.5659 C383,122.6859 474.3584,128.9427 539.3284,139.9427 " fill="none" id="Ausschreibungslos-to-Zeitraum-2" style="stroke:#181818;stroke-width:1.0;"/><polygon fill="#181818" points="551.16,141.9459,545.9119,137.0004,539.3284,139.9427,544.5765,144.8882,551.16,141.9459" style="stroke:#181818;stroke-width:1.0;"/><text fill="#000000" font-family="sans-serif" font-size="13" lengthAdjust="spacing" textLength="161" x="305" y="129.6328">wunschKuendingungsfrist</text><text fill="#000000" font-family="sans-serif" font-size="13" lengthAdjust="spacing" textLength="24" x="519.3906" y="153.3887">0..1</text></g><!--link Ausschreibungslos to Zeitraum--><g id="link_Ausschreibungslos_Zeitraum"><path codeLine="33" d="M216.07,284.3559 C242.43,264.3459 273.22,243.8059 304,229.5659 C347.43,209.4659 462.0567,185.0076 539.2367,169.7876 " fill="none" id="Ausschreibungslos-to-Zeitraum-3" style="stroke:#181818;stroke-width:1.0;"/><polygon fill="#181818" points="551.01,167.4659,544.3495,164.7023,539.2367,169.7876,545.8973,172.5512,551.01,167.4659" style="stroke:#181818;stroke-width:1.0;"/><text fill="#000000" font-family="sans-serif" font-size="13" lengthAdjust="spacing" textLength="128" x="321.5" y="181.6328">wunschZahlungsziel</text><text fill="#000000" font-family="sans-serif" font-size="13" lengthAdjust="spacing" textLength="24" x="519.579" y="181.4492">0..1</text></g><!--link Ausschreibungslos to Menge--><g id="link_Ausschreibungslos_Menge"><path codeLine="34" d="M274.06,333.6959 C284.19,332.6159 294.26,331.5659 304,330.5659 C391.65,321.6059 481.418,313.3481 543.618,307.7681 " fill="none" id="Ausschreibungslos-to-Menge" style="stroke:#181818;stroke-width:1.0;"/><polygon fill="#181818" points="555.57,306.6959,549.2366,303.248,543.618,307.7681,549.9514,311.216,555.57,306.6959" style="stroke:#181818;stroke-width:1.0;"/><text fill="#000000" font-family="sans-serif" font-size="13" lengthAdjust="spacing" textLength="92" x="339.5" y="311.6328">gesamtMenge</text><text fill="#000000" font-family="sans-serif" font-size="13" lengthAdjust="spacing" textLength="24" x="523.812" y="320.1516">0..1</text></g><!--link Ausschreibungslos to Menge--><g id="link_Ausschreibungslos_Menge"><path codeLine="35" d="M274.45,365.9759 C349.95,373.0659 435.5,375.5559 467,355.5659 C474.05,351.0959 468.59,343.9159 475,338.5659 C497.54,319.7359 516.8887,312.4113 543.9687,307.8213 " fill="none" id="Ausschreibungslos-to-Menge-1" style="stroke:#181818;stroke-width:1.0;"/><polygon fill="#181818" points="555.8,305.8159,549.2159,302.8749,543.9687,307.8213,550.5528,310.7624,555.8,305.8159" style="stroke:#181818;stroke-width:1.0;"/><text fill="#000000" font-family="sans-serif" font-size="13" lengthAdjust="spacing" textLength="142" x="314.5" y="351.6328">wunschMindestmenge</text><text fill="#000000" font-family="sans-serif" font-size="13" lengthAdjust="spacing" textLength="24" x="524.0672" y="302.5347">0..1</text></g><!--link Ausschreibungslos to Menge--><g id="link_Ausschreibungslos_Menge"><path codeLine="36" d="M274.12,412.4159 C339.33,433.7359 414.89,441.9759 467,396.5659 C486.62,379.4659 457.78,358.0659 475,338.5659 C495.02,315.8959 515.3316,307.9741 543.6616,304.2641 " fill="none" id="Ausschreibungslos-to-Menge-2" style="stroke:#181818;stroke-width:1.0;"/><polygon fill="#181818" points="555.56,302.7059,549.0914,299.5189,543.6616,304.2641,550.1302,307.4511,555.56,302.7059" style="stroke:#181818;stroke-width:1.0;"/><text fill="#000000" font-family="sans-serif" font-size="13" lengthAdjust="spacing" textLength="145" x="313" y="392.6328">wunschMaximalmenge</text><text fill="#000000" font-family="sans-serif" font-size="13" lengthAdjust="spacing" textLength="24" x="523.8009" y="299.0846">0..1</text></g><!--SRC=[hLPHRzCm47vUViMfVPiqjnK3JH5C6cDFK8P0uc6b3svoZIrifxAT5GhyTsndQTCqHM7DGsgV-ztdBtTdNmGkBTWSDC-OXPHhJ2pFLHGbWXe3WzcCMRioyMYqo2-HPDooOa5uFdfxVtbtiVffMQv6WbeqTaHNl4GbkIJCIZ7SMhGm9c4Q-Q9GcH6v8JVD5JXOcS-_gTU6Rp2UZA-FKms0jZZ3h-ZC3QgG4ZN4OAo6sPYGoHpUmCTSONIsm0toX2ddSGnWDHRsNQ4JrewWQaEP-C1nYTfO50AL0t9b3wcSZE_7TleJHOfAD2kQu8anXygQpqDWAXE6T-ERgrUtFYxzvjO5qMfQIFBmD85gqfx02X_aLT2-HUrNIOgMSj6ekN8HsXQxL5w9R2c-ye- -NqYYof1C_I-4ttQD0HP41L3VAlnpUpy5zxJlxvwmkmEugZwrgD4TtrfLUxDUrjw6OJf9NhoyEhMkjriDT-OZQbUScLdcMfAlDGFgnc4W3fo3vBfF_rfNhloCp5Dt1v5FkpdKvaU4rZo3pff7_p9TDMYBv4iOe1oEw2gXGLA9wr-DwtRX-ZS2CpUGp_isDEmZGXiiGN73qz_mBItlukBtzVQ6zWUh3UHGvp3m_MAmA_kz7CTGos5tYgSan80ATSRHMTsTcw6AOLqevzbyySw4U-UhOjixC_-YEX_iujXwpSSWwbswaovFjcrg5K7Llfx3iEQOecQvy0xkAm7r8-sOiIPJ2C_x0bNAbG-qMMfkxFEf7jntZFVOSEmkg6n7CMHegBHbn_bVttBxALUfEwxo50hwWqigIeg8yHH1eboub4U6vMjeOLswbqtDNm00]--></g></svg>