<?xml version="1.0" encoding="us-ascii" standalone="no"?><svg xmlns="http://www.w3.org/2000/svg" xmlns:xlink="http://www.w3.org/1999/xlink" contentStyleType="text/css" height="752px" preserveAspectRatio="none" style="width:753px;height:752px;background:#FFFFFF;" version="1.1" viewBox="0 0 753 752" width="753px" zoomAndPan="magnify"><defs/><g><!--cluster bo4e--><g id="cluster_bo4e"><path d="M485.5,38.58 L526.5,38.58 A3.75,3.75 0 0 1 529,41.08 L536,60.8769 L743.5,60.8769 A2.5,2.5 0 0 1 746,63.3769 L746,743.08 A2.5,2.5 0 0 1 743.5,745.58 L485.5,745.58 A2.5,2.5 0 0 1 483,743.08 L483,41.08 A2.5,2.5 0 0 1 485.5,38.58 " fill="none" style="stroke:#000000;stroke-width:1.5;"/><line style="stroke:#000000;stroke-width:1.5;" x1="483" x2="536" y1="60.8769" y2="60.8769"/><text fill="#000000" font-family="sans-serif" font-size="14" font-weight="bold" lengthAdjust="spacing" textLength="40" x="487" y="53.5751">bo4e</text></g><!--cluster com--><g id="cluster_com"><path d="M509.5,81.58 L588.5,81.58 A3.75,3.75 0 0 1 591,84.08 L598,103.8769 L719.5,103.8769 A2.5,2.5 0 0 1 722,106.3769 L722,387.08 A2.5,2.5 0 0 1 719.5,389.58 L509.5,389.58 A2.5,2.5 0 0 1 507,387.08 L507,84.08 A2.5,2.5 0 0 1 509.5,81.58 " fill="#E0A86C" style="stroke:#000000;stroke-width:1.5;"/><line style="stroke:#000000;stroke-width:1.5;" x1="507" x2="598" y1="103.8769" y2="103.8769"/><a href="https://bo4e.github.io/BO4E-python/latest/api/bo4e.com.html" target="_top" title="https://bo4e.github.io/BO4E-python/latest/api/bo4e.com.html" xlink:actuate="onRequest" xlink:href="https://bo4e.github.io/BO4E-python/latest/api/bo4e.com.html" xlink:show="new" xlink:title="https://bo4e.github.io/BO4E-python/latest/api/bo4e.com.html" xlink:type="simple"><text fill="#0000FF" font-family="sans-serif" font-size="14" font-weight="bold" lengthAdjust="spacing" text-decoration="underline" textLength="78" x="511" y="96.5751">bo4e.com</text></a></g><!--cluster enum--><g id="cluster_enum"><path d="M515,413.58 L605,413.58 A3.75,3.75 0 0 1 607.5,416.08 L614.5,435.8769 L714,435.8769 A2.5,2.5 0 0 1 716.5,438.3769 L716.5,719.08 A2.5,2.5 0 0 1 714,721.58 L515,721.58 A2.5,2.5 0 0 1 512.5,719.08 L512.5,416.08 A2.5,2.5 0 0 1 515,413.58 " fill="#D1C358" style="stroke:#000000;stroke-width:1.5;"/><line style="stroke:#000000;stroke-width:1.5;" x1="512.5" x2="614.5" y1="435.8769" y2="435.8769"/><a href="https://bo4e.github.io/BO4E-python/latest/api/bo4e.enum.html" target="_top" title="https://bo4e.github.io/BO4E-python/latest/api/bo4e.enum.html" xlink:actuate="onRequest" xlink:href="https://bo4e.github.io/BO4E-python/latest/api/bo4e.enum.html" xlink:show="new" xlink:title="https://bo4e.github.io/BO4E-python/latest/api/bo4e.enum.html" xlink:type="simple"><text fill="#0000FF" font-family="sans-serif" font-size="14" font-weight="bold" lengthAdjust="spacing" text-decoration="underline" textLength="89" x="516.5" y="428.5751">bo4e.enum</text></a></g><!--class Menge--><g id="elem_Menge"><rect codeLine="12" fill="#F1F1F1" height="37.9375" id="Menge" rx="2.5" ry="2.5" style="stroke:#181818;stroke-width:0.5;" width="117" x="556" y="116.61"/><ellipse cx="571" cy="135.5788" fill="#ADD1B2" rx="11" ry="11" style="stroke:#181818;stroke-width:1.0;"/><path d="M573.9688,141.2194 Q573.3906,141.5163 572.75,141.6569 Q572.1094,141.8131 571.4063,141.8131 Q568.9063,141.8131 567.5781,140.1725 Q566.2656,138.5163 566.2656,135.3913 Q566.2656,132.2663 567.5781,130.61 Q568.9063,128.9538 571.4063,128.9538 Q572.1094,128.9538 572.75,129.11 Q573.4063,129.2663 573.9688,129.5631 L573.9688,132.2819 Q573.3438,131.7038 572.75,131.4381 Q572.1563,131.1569 571.5313,131.1569 Q570.1875,131.1569 569.5,132.235 Q568.8125,133.2975 568.8125,135.3913 Q568.8125,137.485 569.5,138.5631 Q570.1875,139.6256 571.5313,139.6256 Q572.1563,139.6256 572.75,139.36 Q573.3438,139.0788 573.9688,138.5006 L573.9688,141.2194 Z " fill="#000000"/><a href="https://bo4e.github.io/BO4E-python/latest/api/bo4e.com.html#bo4e.com.menge.Menge" target="_top" title="https://bo4e.github.io/BO4E-python/latest/api/bo4e.com.html#bo4e.com.menge.Menge" xlink:actuate="onRequest" xlink:href="https://bo4e.github.io/BO4E-python/latest/api/bo4e.com.html#bo4e.com.menge.Menge" xlink:show="new" xlink:title="https://bo4e.github.io/BO4E-python/latest/api/bo4e.com.html#bo4e.com.menge.Menge" xlink:type="simple"><text fill="#0000FF" font-family="sans-serif" font-size="14" lengthAdjust="spacing" text-decoration="underline" textLength="48" x="603.5" y="134.6051">Menge</text></a><text fill="#000000" font-family="sans-serif" font-size="10" lengthAdjust="spacing" textLength="85" x="585" y="147.1891">bo4e.com.menge</text></g><!--class Ausschreibungsdetail--><g id="elem_Ausschreibungsdetail"><rect codeLine="13" fill="#F1F1F1" height="37.9375" id="Ausschreibungsdetail" rx="2.5" ry="2.5" style="stroke:#181818;stroke-width:0.5;" width="183" x="523" y="189.61"/><ellipse cx="538" cy="208.5788" fill="#ADD1B2" rx="11" ry="11" style="stroke:#181818;stroke-width:1.0;"/><path d="M540.9688,214.2194 Q540.3906,214.5163 539.75,214.6569 Q539.1094,214.8131 538.4063,214.8131 Q535.9063,214.8131 534.5781,213.1725 Q533.2656,211.5163 533.2656,208.3913 Q533.2656,205.2663 534.5781,203.61 Q535.9063,201.9538 538.4063,201.9538 Q539.1094,201.9538 539.75,202.11 Q540.4063,202.2663 540.9688,202.5631 L540.9688,205.2819 Q540.3438,204.7038 539.75,204.4381 Q539.1563,204.1569 538.5313,204.1569 Q537.1875,204.1569 536.5,205.235 Q535.8125,206.2975 535.8125,208.3913 Q535.8125,210.485 536.5,211.5631 Q537.1875,212.6256 538.5313,212.6256 Q539.1563,212.6256 539.75,212.36 Q540.3438,212.0788 540.9688,211.5006 L540.9688,214.2194 Z " fill="#000000"/><a href="https://bo4e.github.io/BO4E-python/latest/api/bo4e.com.html#bo4e.com.ausschreibungsdetail.Ausschreibungsdetail" target="_top" title="https://bo4e.github.io/BO4E-python/latest/api/bo4e.com.html#bo4e.com.ausschreibungsdetail.Ausschreibungsdetail" xlink:actuate="onRequest" xlink:href="https://bo4e.github.io/BO4E-python/latest/api/bo4e.com.html#bo4e.com.ausschreibungsdetail.Ausschreibungsdetail" xlink:show="new" xlink:title="https://bo4e.github.io/BO4E-python/latest/api/bo4e.com.html#bo4e.com.ausschreibungsdetail.Ausschreibungsdetail" xlink:type="simple"><text fill="#0000FF" font-family="sans-serif" font-size="14" lengthAdjust="spacing" text-decoration="underline" textLength="149" x="553" y="207.6051">Ausschreibungsdetail</text></a><text fill="#000000" font-family="sans-serif" font-size="10" lengthAdjust="spacing" textLength="151" x="552" y="220.1891">bo4e.com.ausschreibungsdetail</text></g><!--class COM--><g id="elem_COM"><rect codeLine="14" fill="#F1F1F1" height="37.9375" id="COM" rx="2.5" ry="2.5" style="stroke:#181818;stroke-width:0.5;" width="104" x="562.5" y="262.61"/><ellipse cx="577.5" cy="281.5788" fill="#ADD1B2" rx="11" ry="11" style="stroke:#181818;stroke-width:1.0;"/><path d="M580.4688,287.2194 Q579.8906,287.5163 579.25,287.6569 Q578.6094,287.8131 577.9063,287.8131 Q575.4063,287.8131 574.0781,286.1725 Q572.7656,284.5163 572.7656,281.3913 Q572.7656,278.2663 574.0781,276.61 Q575.4063,274.9538 577.9063,274.9538 Q578.6094,274.9538 579.25,275.11 Q579.9063,275.2663 580.4688,275.5631 L580.4688,278.2819 Q579.8438,277.7038 579.25,277.4381 Q578.6563,277.1569 578.0313,277.1569 Q576.6875,277.1569 576,278.235 Q575.3125,279.2975 575.3125,281.3913 Q575.3125,283.485 576,284.5631 Q576.6875,285.6256 578.0313,285.6256 Q578.6563,285.6256 579.25,285.36 Q579.8438,285.0788 580.4688,284.5006 L580.4688,287.2194 Z " fill="#000000"/><a href="https://bo4e.github.io/BO4E-python/latest/api/bo4e.com.html#bo4e.com.com.COM" target="_top" title="https://bo4e.github.io/BO4E-python/latest/api/bo4e.com.html#bo4e.com.com.COM" xlink:actuate="onRequest" xlink:href="https://bo4e.github.io/BO4E-python/latest/api/bo4e.com.html#bo4e.com.com.COM" xlink:show="new" xlink:title="https://bo4e.github.io/BO4E-python/latest/api/bo4e.com.html#bo4e.com.com.COM" xlink:type="simple"><text fill="#0000FF" font-family="sans-serif" font-size="14" lengthAdjust="spacing" text-decoration="underline" textLength="33" x="611" y="280.6051">COM</text></a><text fill="#000000" font-family="sans-serif" font-size="10" lengthAdjust="spacing" textLength="72" x="591.5" y="293.1891">bo4e.com.com</text></g><!--class Zeitraum--><g id="elem_Zeitraum"><rect codeLine="15" fill="#F1F1F1" height="37.9375" id="Zeitraum" rx="2.5" ry="2.5" style="stroke:#181818;stroke-width:0.5;" width="126" x="551.5" y="335.61"/><ellipse cx="566.5" cy="354.5788" fill="#ADD1B2" rx="11" ry="11" style="stroke:#181818;stroke-width:1.0;"/><path d="M569.4688,360.2194 Q568.8906,360.5163 568.25,360.6569 Q567.6094,360.8131 566.9063,360.8131 Q564.4063,360.8131 563.0781,359.1725 Q561.7656,357.5163 561.7656,354.3913 Q561.7656,351.2663 563.0781,349.61 Q564.4063,347.9538 566.9063,347.9538 Q567.6094,347.9538 568.25,348.11 Q568.9063,348.2663 569.4688,348.5631 L569.4688,351.2819 Q568.8438,350.7038 568.25,350.4381 Q567.6563,350.1569 567.0313,350.1569 Q565.6875,350.1569 565,351.235 Q564.3125,352.2975 564.3125,354.3913 Q564.3125,356.485 565,357.5631 Q565.6875,358.6256 567.0313,358.6256 Q567.6563,358.6256 568.25,358.36 Q568.8438,358.0788 569.4688,357.5006 L569.4688,360.2194 Z " fill="#000000"/><a href="https://bo4e.github.io/BO4E-python/latest/api/bo4e.com.html#bo4e.com.zeitraum.Zeitraum" target="_top" title="https://bo4e.github.io/BO4E-python/latest/api/bo4e.com.html#bo4e.com.zeitraum.Zeitraum" xlink:actuate="onRequest" xlink:href="https://bo4e.github.io/BO4E-python/latest/api/bo4e.com.html#bo4e.com.zeitraum.Zeitraum" xlink:show="new" xlink:title="https://bo4e.github.io/BO4E-python/latest/api/bo4e.com.html#bo4e.com.zeitraum.Zeitraum" xlink:type="simple"><text fill="#0000FF" font-family="sans-serif" font-size="14" lengthAdjust="spacing" text-decoration="underline" textLength="62" x="596.5" y="353.6051">Zeitraum</text></a><text fill="#000000" font-family="sans-serif" font-size="10" lengthAdjust="spacing" textLength="94" x="580.5" y="366.1891">bo4e.com.zeitraum</text></g><!--class Vertragsform--><g id="elem_Vertragsform"><rect codeLine="18" fill="#F1F1F1" height="37.9375" id="Vertragsform" rx="2.5" ry="2.5" style="stroke:#181818;stroke-width:0.5;" width="155" x="537" y="448.61"/><ellipse cx="552" cy="467.5788" fill="#ADD1B2" rx="11" ry="11" style="stroke:#181818;stroke-width:1.0;"/><path d="M554.9688,473.2194 Q554.3906,473.5163 553.75,473.6569 Q553.1094,473.8131 552.4063,473.8131 Q549.9063,473.8131 548.5781,472.1725 Q547.2656,470.5163 547.2656,467.3913 Q547.2656,464.2663 548.5781,462.61 Q549.9063,460.9538 552.4063,460.9538 Q553.1094,460.9538 553.75,461.11 Q554.4063,461.2663 554.9688,461.5631 L554.9688,464.2819 Q554.3438,463.7038 553.75,463.4381 Q553.1563,463.1569 552.5313,463.1569 Q551.1875,463.1569 550.5,464.235 Q549.8125,465.2975 549.8125,467.3913 Q549.8125,469.485 550.5,470.5631 Q551.1875,471.6256 552.5313,471.6256 Q553.1563,471.6256 553.75,471.36 Q554.3438,471.0788 554.9688,470.5006 L554.9688,473.2194 Z " fill="#000000"/><a href="https://bo4e.github.io/BO4E-python/latest/api/bo4e.enum.html#bo4e.enum.vertragsform.Vertragsform" target="_top" title="https://bo4e.github.io/BO4E-python/latest/api/bo4e.enum.html#bo4e.enum.vertragsform.Vertragsform" xlink:actuate="onRequest" xlink:href="https://bo4e.github.io/BO4E-python/latest/api/bo4e.enum.html#bo4e.enum.vertragsform.Vertragsform" xlink:show="new" xlink:title="https://bo4e.github.io/BO4E-python/latest/api/bo4e.enum.html#bo4e.enum.vertragsform.Vertragsform" xlink:type="simple"><text fill="#0000FF" font-family="sans-serif" font-size="14" lengthAdjust="spacing" text-decoration="underline" textLength="89" x="583" y="466.6051">Vertragsform</text></a><text fill="#000000" font-family="sans-serif" font-size="10" lengthAdjust="spacing" textLength="123" x="566" y="479.1891">bo4e.enum.vertragsform</text></g><!--class Preismodell--><g id="elem_Preismodell"><rect codeLine="19" fill="#F1F1F1" height="37.9375" id="Preismodell" rx="2.5" ry="2.5" style="stroke:#181818;stroke-width:0.5;" width="145" x="542" y="521.61"/><ellipse cx="557" cy="540.5788" fill="#ADD1B2" rx="11" ry="11" style="stroke:#181818;stroke-width:1.0;"/><path d="M559.9688,546.2194 Q559.3906,546.5163 558.75,546.6569 Q558.1094,546.8131 557.4063,546.8131 Q554.9063,546.8131 553.5781,545.1725 Q552.2656,543.5163 552.2656,540.3913 Q552.2656,537.2663 553.5781,535.61 Q554.9063,533.9538 557.4063,533.9538 Q558.1094,533.9538 558.75,534.11 Q559.4063,534.2663 559.9688,534.5631 L559.9688,537.2819 Q559.3438,536.7038 558.75,536.4381 Q558.1563,536.1569 557.5313,536.1569 Q556.1875,536.1569 555.5,537.235 Q554.8125,538.2975 554.8125,540.3913 Q554.8125,542.485 555.5,543.5631 Q556.1875,544.6256 557.5313,544.6256 Q558.1563,544.6256 558.75,544.36 Q559.3438,544.0788 559.9688,543.5006 L559.9688,546.2194 Z " fill="#000000"/><a href="https://bo4e.github.io/BO4E-python/latest/api/bo4e.enum.html#bo4e.enum.preismodell.Preismodell" target="_top" title="https://bo4e.github.io/BO4E-python/latest/api/bo4e.enum.html#bo4e.enum.preismodell.Preismodell" xlink:actuate="onRequest" xlink:href="https://bo4e.github.io/BO4E-python/latest/api/bo4e.enum.html#bo4e.enum.preismodell.Preismodell" xlink:show="new" xlink:title="https://bo4e.github.io/BO4E-python/latest/api/bo4e.enum.html#bo4e.enum.preismodell.Preismodell" xlink:type="simple"><text fill="#0000FF" font-family="sans-serif" font-size="14" lengthAdjust="spacing" text-decoration="underline" textLength="80" x="587.5" y="539.6051">Preismodell</text></a><text fill="#000000" font-family="sans-serif" font-size="10" lengthAdjust="spacing" textLength="113" x="571" y="552.1891">bo4e.enum.preismodell</text></g><!--class Sparte--><g id="elem_Sparte"><rect codeLine="20" fill="#F1F1F1" height="37.9375" id="Sparte" rx="2.5" ry="2.5" style="stroke:#181818;stroke-width:0.5;" width="121" x="554" y="594.61"/><ellipse cx="569" cy="613.5788" fill="#ADD1B2" rx="11" ry="11" style="stroke:#181818;stroke-width:1.0;"/><path d="M571.9688,619.2194 Q571.3906,619.5163 570.75,619.6569 Q570.1094,619.8131 569.4063,619.8131 Q566.9063,619.8131 565.5781,618.1725 Q564.2656,616.5163 564.2656,613.3913 Q564.2656,610.2663 565.5781,608.61 Q566.9063,606.9538 569.4063,606.9538 Q570.1094,606.9538 570.75,607.11 Q571.4063,607.2663 571.9688,607.5631 L571.9688,610.2819 Q571.3438,609.7038 570.75,609.4381 Q570.1563,609.1569 569.5313,609.1569 Q568.1875,609.1569 567.5,610.235 Q566.8125,611.2975 566.8125,613.3913 Q566.8125,615.485 567.5,616.5631 Q568.1875,617.6256 569.5313,617.6256 Q570.1563,617.6256 570.75,617.36 Q571.3438,617.0788 571.9688,616.5006 L571.9688,619.2194 Z " fill="#000000"/><a href="https://bo4e.github.io/BO4E-python/latest/api/bo4e.enum.html#bo4e.enum.sparte.Sparte" target="_top" title="https://bo4e.github.io/BO4E-python/latest/api/bo4e.enum.html#bo4e.enum.sparte.Sparte" xlink:actuate="onRequest" xlink:href="https://bo4e.github.io/BO4E-python/latest/api/bo4e.enum.html#bo4e.enum.sparte.Sparte" xlink:show="new" xlink:title="https://bo4e.github.io/BO4E-python/latest/api/bo4e.enum.html#bo4e.enum.sparte.Sparte" xlink:type="simple"><text fill="#0000FF" font-family="sans-serif" font-size="14" lengthAdjust="spacing" text-decoration="underline" textLength="45" x="605" y="612.6051">Sparte</text></a><text fill="#000000" font-family="sans-serif" font-size="10" lengthAdjust="spacing" textLength="89" x="583" y="625.1891">bo4e.enum.sparte</text></g><!--class Rechnungslegung--><g id="elem_Rechnungslegung"><rect codeLine="21" fill="#F1F1F1" height="37.9375" id="Rechnungslegung" rx="2.5" ry="2.5" style="stroke:#181818;stroke-width:0.5;" width="172" x="528.5" y="667.61"/><ellipse cx="543.5" cy="686.5788" fill="#ADD1B2" rx="11" ry="11" style="stroke:#181818;stroke-width:1.0;"/><path d="M546.4688,692.2194 Q545.8906,692.5163 545.25,692.6569 Q544.6094,692.8131 543.9063,692.8131 Q541.4063,692.8131 540.0781,691.1725 Q538.7656,689.5163 538.7656,686.3913 Q538.7656,683.2663 540.0781,681.61 Q541.4063,679.9538 543.9063,679.9538 Q544.6094,679.9538 545.25,680.11 Q545.9063,680.2663 546.4688,680.5631 L546.4688,683.2819 Q545.8438,682.7038 545.25,682.4381 Q544.6563,682.1569 544.0313,682.1569 Q542.6875,682.1569 542,683.235 Q541.3125,684.2975 541.3125,686.3913 Q541.3125,688.485 542,689.5631 Q542.6875,690.6256 544.0313,690.6256 Q544.6563,690.6256 545.25,690.36 Q545.8438,690.0788 546.4688,689.5006 L546.4688,692.2194 Z " fill="#000000"/><a href="https://bo4e.github.io/BO4E-python/latest/api/bo4e.enum.html#bo4e.enum.rechnungslegung.Rechnungslegung" target="_top" title="https://bo4e.github.io/BO4E-python/latest/api/bo4e.enum.html#bo4e.enum.rechnungslegung.Rechnungslegung" xlink:actuate="onRequest" xlink:href="https://bo4e.github.io/BO4E-python/latest/api/bo4e.enum.html#bo4e.enum.rechnungslegung.Rechnungslegung" xlink:show="new" xlink:title="https://bo4e.github.io/BO4E-python/latest/api/bo4e.enum.html#bo4e.enum.rechnungslegung.Rechnungslegung" xlink:type="simple"><text fill="#0000FF" font-family="sans-serif" font-size="14" lengthAdjust="spacing" text-decoration="underline" textLength="128" x="563.5" y="685.6051">Rechnungslegung</text></a><text fill="#000000" font-family="sans-serif" font-size="10" lengthAdjust="spacing" textLength="140" x="557.5" y="698.1891">bo4e.enum.rechnungslegung</text></g><!--class Ausschreibungslos--><g id="elem_Ausschreibungslos"><rect codeLine="3" fill="#F1F1F1" height="127.4219" id="Ausschreibungslos" rx="2.5" ry="2.5" style="stroke:#181818;stroke-width:0.5;" width="267" x="7" y="283.87"/><ellipse cx="67.25" cy="302.8388" fill="#ADD1B2" rx="11" ry="11" style="stroke:#181818;stroke-width:1.0;"/><path d="M70.2188,308.4794 Q69.6406,308.7763 69,308.9169 Q68.3594,309.0731 67.6563,309.0731 Q65.1563,309.0731 63.8281,307.4325 Q62.5156,305.7763 62.5156,302.6513 Q62.5156,299.5263 63.8281,297.87 Q65.1563,296.2138 67.6563,296.2138 Q68.3594,296.2138 69,296.37 Q69.6563,296.5263 70.2188,296.8231 L70.2188,299.5419 Q69.5938,298.9638 69,298.6981 Q68.4063,298.4169 67.7813,298.4169 Q66.4375,298.4169 65.75,299.495 Q65.0625,300.5575 65.0625,302.6513 Q65.0625,304.745 65.75,305.8231 Q66.4375,306.8856 67.7813,306.8856 Q68.4063,306.8856 69,306.62 Q69.5938,306.3388 70.2188,305.7606 L70.2188,308.4794 Z " fill="#000000"/><a href="https://bo4e.github.io/BO4E-python/latest/api/bo4e.com.html#bo4e.com.ausschreibungslos.Ausschreibungslos" target="_top" title="https://bo4e.github.io/BO4E-python/latest/api/bo4e.com.html#bo4e.com.ausschreibungslos.Ausschreibungslos" xlink:actuate="onRequest" xlink:href="https://bo4e.github.io/BO4E-python/latest/api/bo4e.com.html#bo4e.com.ausschreibungslos.Ausschreibungslos" xlink:show="new" xlink:title="https://bo4e.github.io/BO4E-python/latest/api/bo4e.com.html#bo4e.com.ausschreibungslos.Ausschreibungslos" xlink:type="simple"><text fill="#0000FF" font-family="sans-serif" font-size="14" lengthAdjust="spacing" text-decoration="underline" textLength="132" x="90.75" y="301.8651">Ausschreibungslos</text></a><text fill="#000000" font-family="sans-serif" font-size="10" lengthAdjust="spacing" textLength="138" x="87.75" y="314.4491">bo4e.com.ausschreibungslos</text><line style="stroke:#181818;stroke-width:0.5;" x1="8" x2="273" y1="321.8075" y2="321.8075"/><text fill="#000000" font-family="sans-serif" font-size="14" lengthAdjust="spacing" textLength="206" x="13" y="338.8026">losnummer : str [0..1] = None</text><text fill="#000000" font-family="sans-serif" font-size="14" lengthAdjust="spacing" textLength="219" x="13" y="355.0995">bezeichnung : str [0..1] = None</text><text fill="#000000" font-family="sans-serif" font-size="14" lengthAdjust="spacing" textLength="221" x="13" y="371.3964">betreutDurch : str [0..1] = None</text><text fill="#000000" font-family="sans-serif" font-size="14" lengthAdjust="spacing" textLength="255" x="13" y="387.6932">anzahlLieferstellen : int [0..1] = None</text><text fill="#000000" font-family="sans-serif" font-size="14" lengthAdjust="spacing" textLength="208" x="13" y="403.9901">bemerkung : str [0..1] = None</text></g><!--link Ausschreibungslos to COM--><g id="link_Ausschreibungslos_COM"><path codeLine="24" d="M274.44,307.51 C284.39,305.26 294.32,303.24 304,301.58 C393.95,286.12 482.4714,282.5975 544.1814,281.8175 " fill="none" id="Ausschreibungslos-to-COM" style="stroke:#181818;stroke-width:1.0;"/><polygon fill="none" points="562.18,281.59,544.1056,275.818,544.2573,287.817,562.18,281.59" style="stroke:#181818;stroke-width:1.0;"/></g><!--link Ausschreibungslos to Preismodell--><g id="link_Ausschreibungslos_Preismodell"><path codeLine="25" d="M193.19,411.49 C222.31,442.97 261.35,478.41 304,498.58 C379.61,534.34 464.4706,542.1419 529.5206,542.7819 " fill="none" id="Ausschreibungslos-to-Preismodell" style="stroke:#181818;stroke-width:1.0;"/><polygon fill="#181818" points="541.52,542.9,535.5596,538.8412,529.5206,542.7819,535.4809,546.8408,541.52,542.9" style="stroke:#181818;stroke-width:1.0;"/><text fill="#000000" font-family="sans-serif" font-size="13" lengthAdjust="spacing" textLength="74" x="348.5" y="494.6469">preismodell</text><text fill="#000000" font-family="sans-serif" font-size="13" lengthAdjust="spacing" textLength="24" x="509.9515" y="555.8475">0..1</text></g><!--link Ausschreibungslos to Sparte--><g id="link_Ausschreibungslos_Sparte"><path codeLine="26" d="M172.25,411.57 C199.67,461.33 244.64,527.75 304,563.58 C381.12,610.12 475.8807,617.5157 541.7307,616.8257 " fill="none" id="Ausschreibungslos-to-Sparte" style="stroke:#181818;stroke-width:1.0;"/><polygon fill="#181818" points="553.73,616.7,547.6884,612.7631,541.7307,616.8257,547.7722,620.7626,553.73,616.7" style="stroke:#181818;stroke-width:1.0;"/><text fill="#000000" font-family="sans-serif" font-size="13" lengthAdjust="spacing" textLength="66" x="352.5" y="559.6469">energieart</text><text fill="#000000" font-family="sans-serif" font-size="13" lengthAdjust="spacing" textLength="24" x="522.2256" y="629.8691">0..1</text></g><!--link Ausschreibungslos to Rechnungslegung--><g id="link_Ausschreibungslos_Rechnungslegung"><path codeLine="27" d="M159.19,411.75 C181.36,479.36 226.22,583.39 304,637.58 C369.5,683.22 449.6101,692.6786 516.3001,692.4086 " fill="none" id="Ausschreibungslos-to-Rechnungslegung" style="stroke:#181818;stroke-width:1.0;"/><polygon fill="#181818" points="528.3,692.36,522.2839,688.3843,516.3001,692.4086,522.3162,696.3843,528.3,692.36" style="stroke:#181818;stroke-width:1.0;"/><text fill="#000000" font-family="sans-serif" font-size="13" lengthAdjust="spacing" textLength="160" x="305.5" y="633.6469">wunschRechnungslegung</text><text fill="#000000" font-family="sans-serif" font-size="13" lengthAdjust="spacing" textLength="24" x="496.4747" y="705.4905">0..1</text></g><!--link Ausschreibungslos to Vertragsform--><g id="link_Ausschreibungslos_Vertragsform"><path codeLine="28" d="M226.99,411.61 C250.78,426.31 277.42,440.1 304,448.58 C380.42,472.95 460.7373,475.8072 524.5473,473.5872 " fill="none" id="Ausschreibungslos-to-Vertragsform" style="stroke:#181818;stroke-width:1.0;"/><polygon fill="#181818" points="536.54,473.17,530.4045,469.381,524.5473,473.5872,530.6827,477.3762,536.54,473.17" style="stroke:#181818;stroke-width:1.0;"/><text fill="#000000" font-family="sans-serif" font-size="13" lengthAdjust="spacing" textLength="132" x="319.5" y="444.6469">wunschVertragsform</text><text fill="#000000" font-family="sans-serif" font-size="13" lengthAdjust="spacing" textLength="24" x="505.0902" y="486.3265">0..1</text></g><!--link Ausschreibungslos to Ausschreibungsdetail--><g id="link_Ausschreibungslos_Ausschreibungsdetail"><path codeLine="29" d="M262.9,283.47 C276.55,277.57 290.43,272.12 304,267.58 C375.71,243.58 448.3519,230.0064 510.9319,221.0164 " fill="none" id="Ausschreibungslos-to-Ausschreibungsdetail" style="stroke:#181818;stroke-width:1.0;"/><polygon fill="#181818" points="522.81,219.31,516.3022,216.2038,510.9319,221.0164,517.4398,224.1225,522.81,219.31" style="stroke:#181818;stroke-width:1.0;"/><text fill="#000000" font-family="sans-serif" font-size="13" lengthAdjust="spacing" textLength="73" x="349" y="225.6469">lieferstellen</text><text fill="#000000" font-family="sans-serif" font-size="13" lengthAdjust="spacing" textLength="23" x="491.9095" y="232.7778">0..*</text></g><!--link Ausschreibungslos to Zeitraum--><g id="link_Ausschreibungslos_Zeitraum"><path codeLine="30" d="M274.42,331.65 C284.42,330.82 294.36,330.11 304,329.58 C376.33,325.59 394.81,323.46 467,329.58 C494.77,331.93 513.3796,334.5705 539.2596,339.3505 " fill="none" id="Ausschreibungslos-to-Zeitraum" style="stroke:#181818;stroke-width:1.0;"/><polygon fill="#181818" points="551.06,341.53,545.8863,336.5068,539.2596,339.3505,544.4333,344.3737,551.06,341.53" style="stroke:#181818;stroke-width:1.0;"/><text fill="#000000" font-family="sans-serif" font-size="13" lengthAdjust="spacing" textLength="88" x="341.5" y="322.6469">lieferzeitraum</text><text fill="#000000" font-family="sans-serif" font-size="13" lengthAdjust="spacing" textLength="24" x="519.2802" y="353.0315">0..1</text></g><!--link Ausschreibungslos to Zeitraum--><g id="link_Ausschreibungslos_Zeitraum"><path codeLine="31" d="M274.07,353.76 C284.19,354.09 294.26,354.37 304,354.58 C389.68,356.42 476.7406,356.0852 539.2506,355.4852 " fill="none" id="Ausschreibungslos-to-Zeitraum-1" style="stroke:#181818;stroke-width:1.0;"/><polygon fill="#181818" points="551.25,355.37,545.2119,351.4278,539.2506,355.4852,545.2887,359.4274,551.25,355.37" style="stroke:#181818;stroke-width:1.0;"/><text fill="#000000" font-family="sans-serif" font-size="13" lengthAdjust="spacing" textLength="141" x="315" y="350.6469">wiederholungsintervall</text><text fill="#000000" font-family="sans-serif" font-size="13" lengthAdjust="spacing" textLength="24" x="519.4898" y="368.2988">0..1</text></g><!--link Ausschreibungslos to Zeitraum--><g id="link_Ausschreibungslos_Zeitraum"><path codeLine="32" d="M274.17,377.66 C284.23,379.23 294.25,380.57 304,381.58 C376.06,389.04 394.86,388.17 467,381.58 C494.82,379.04 513.4727,376.1916 539.3427,371.0216 " fill="none" id="Ausschreibungslos-to-Zeitraum-2" style="stroke:#181818;stroke-width:1.0;"/><polygon fill="#181818" points="551.11,368.67,544.4425,365.9234,539.3427,371.0216,546.0102,373.7683,551.11,368.67" style="stroke:#181818;stroke-width:1.0;"/><text fill="#000000" font-family="sans-serif" font-size="13" lengthAdjust="spacing" textLength="161" x="305" y="377.6469">wunschKuendingungsfrist</text><text fill="#000000" font-family="sans-serif" font-size="13" lengthAdjust="spacing" textLength="24" x="519.3354" y="382.9703">0..1</text></g><!--link Ausschreibungslos to Zeitraum--><g id="link_Ausschreibungslos_Zeitraum"><path codeLine="33" d="M274.18,405.3 C284.15,408.2 294.15,410.68 304,412.58 C375.14,426.28 395.84,426.15 467,412.58 C505.69,405.2 536.3857,392.9501 565.3057,379.1101 " fill="none" id="Ausschreibungslos-to-Zeitraum-3" style="stroke:#181818;stroke-width:1.0;"/><polygon fill="#181818" points="576.13,373.93,568.9911,372.9119,565.3057,379.1101,572.4445,380.1282,576.13,373.93" style="stroke:#181818;stroke-width:1.0;"/><text fill="#000000" font-family="sans-serif" font-size="13" lengthAdjust="spacing" textLength="128" x="321.5" y="408.6469">wunschZahlungsziel</text><text fill="#000000" font-family="sans-serif" font-size="13" lengthAdjust="spacing" textLength="24" x="537.9634" y="393.5675">0..1</text></g><!--link Ausschreibungslos to Menge--><g id="link_Ausschreibungslos_Menge"><path codeLine="34" d="M157.28,283.54 C178.07,214.59 222.01,108.38 304,60.58 C397.62,6 519.2831,72.3675 575.8631,109.5675 " fill="none" id="Ausschreibungslos-to-Menge" style="stroke:#181818;stroke-width:1.0;"/><polygon fill="#181818" points="585.89,116.16,583.074,109.5215,575.8631,109.5675,578.679,116.2061,585.89,116.16" style="stroke:#181818;stroke-width:1.0;"/><text fill="#000000" font-family="sans-serif" font-size="13" lengthAdjust="spacing" textLength="92" x="339.5" y="37.6469">gesamtMenge</text><text fill="#000000" font-family="sans-serif" font-size="13" lengthAdjust="spacing" textLength="24" x="550.4684" y="105.6747">0..1</text></g><!--link Ausschreibungslos to Menge--><g id="link_Ausschreibungslos_Menge"><path codeLine="35" d="M166.49,283.63 C191.92,228.4 237.14,152.21 304,117.58 C384.65,75.81 481.9568,93.5128 546.7568,112.7628 " fill="none" id="Ausschreibungslos-to-Menge-1" style="stroke:#181818;stroke-width:1.0;"/><polygon fill="#181818" points="558.26,116.18,553.6475,110.637,546.7568,112.7628,551.3693,118.3058,558.26,116.18" style="stroke:#181818;stroke-width:1.0;"/><text fill="#000000" font-family="sans-serif" font-size="13" lengthAdjust="spacing" textLength="142" x="314.5" y="89.6469">wunschMindestmenge</text><text fill="#000000" font-family="sans-serif" font-size="13" lengthAdjust="spacing" textLength="24" x="523.8108" y="109.1382">0..1</text></g><!--link Ausschreibungslos to Menge--><g id="link_Ausschreibungslos_Menge"><path codeLine="36" d="M199.65,283.42 C228.46,255.29 265.31,224.26 304,204.58 C385.33,163.21 479.1534,147.7214 543.6134,141.0714 " fill="none" id="Ausschreibungslos-to-Menge-2" style="stroke:#181818;stroke-width:1.0;"/><polygon fill="#181818" points="555.55,139.84,549.1712,136.4768,543.6134,141.0714,549.9922,144.4346,555.55,139.84" style="stroke:#181818;stroke-width:1.0;"/><text fill="#000000" font-family="sans-serif" font-size="13" lengthAdjust="spacing" textLength="145" x="313" y="150.6469">wunschMaximalmenge</text><text fill="#000000" font-family="sans-serif" font-size="13" lengthAdjust="spacing" textLength="24" x="523.7898" y="153.2005">0..1</text></g><!--SRC=[hLPHRzCm47vUViMfVPiqjnK3JH5C6cDFK8P0uc6b3svoZIrifxAT5GhyTsndQTCqHM7DGsAVyztdp-VpEGAN5cmEccVCGier9fRdAeeIGOs1mMp6h5sPU3HQv9T8CcvPiI0y7xszlxoxMFsqB5SZGIqQEw8hNgAIN19cfHXkBLeOap2DV56ep8ZSa9lc21oCpEVVr6l3DnXFnjV7gGP0MvpXLtJc6bL8YHfYC5R3R4p8P0vlu6EkC3fRu0PvmfJpE0Qm6Wlxhj09QqTGjQ5CVE2uH6qi2e7A0RcoXrHEnlTZC_s98aKbcXLDyCIOGsNDvo4mbGd3k_7DrQjR7vT-zrQYof1C_Hl2kttV0Yn82g2-LUodHOgMSj58id8GsWQxf5g9RCcsyaFV2_BFxVqKtDEkpZr1Z0FqFRSx5rRJGfA7fmvKdNOf5JxegQ0kgqzDQdJ7jvRLtgodjRTXc4wI5o-lJithxLJ3dVc8sgqaCyjSI_ArPa3TE0p9WNEGNFVfN-lAPQEHUUfg4FcqwqEjVqHepJFeh7dqBzDbWxP8leG6okQ8hX8Q99Mu_jMusowKVoCmSmtvl6z3mpuYjC4I53SyVOLlkV8kBdvVRokqF-rj88SwXu6_BmQxjD_RunXgUzYTucaJOa25EkFehExEpL35i2wKysmkl3FXtlcgsFREpB-epWUxEBPM_HX4_PRkfCkJRIjWHL3LkkSmh3ccg5akl8FxIq3zI3lkM9CfXETzWIhboWVQB3KtzlbK3-u_ndjiE7ONL5xwCMHegBJblVw_lkNqKwvITrpbAHJq1vTKb1GHuoc2HBbmMnuPbg-XXNNf5fkQlm00]--></g></svg>