<?xml version="1.0" encoding="us-ascii" standalone="no"?><svg xmlns="http://www.w3.org/2000/svg" xmlns:xlink="http://www.w3.org/1999/xlink" contentStyleType="text/css" height="757px" preserveAspectRatio="none" style="width:1261px;height:757px;background:#FFFFFF;" version="1.1" viewBox="0 0 1261 757" width="1261px" zoomAndPan="magnify"><defs/><g><!--cluster bo4e--><g id="cluster_bo4e"><path d="M993.5,43.5659 L1034.5,43.5659 A3.75,3.75 0 0 1 1037,46.0659 L1044,65.8628 L1251.5,65.8628 A2.5,2.5 0 0 1 1254,68.3628 L1254,748.0659 A2.5,2.5 0 0 1 1251.5,750.5659 L993.5,750.5659 A2.5,2.5 0 0 1 991,748.0659 L991,46.0659 A2.5,2.5 0 0 1 993.5,43.5659 " fill="none" style="stroke:#000000;stroke-width:1.5;"/><line style="stroke:#000000;stroke-width:1.5;" x1="991" x2="1044" y1="65.8628" y2="65.8628"/><text fill="#000000" font-family="sans-serif" font-size="14" font-weight="bold" lengthAdjust="spacing" textLength="40" x="995" y="58.561">bo4e</text></g><!--cluster com--><g id="cluster_com"><path d="M1017.5,86.5659 L1096.5,86.5659 A3.75,3.75 0 0 1 1099,89.0659 L1106,108.8628 L1227.5,108.8628 A2.5,2.5 0 0 1 1230,111.3628 L1230,392.0659 A2.5,2.5 0 0 1 1227.5,394.5659 L1017.5,394.5659 A2.5,2.5 0 0 1 1015,392.0659 L1015,89.0659 A2.5,2.5 0 0 1 1017.5,86.5659 " fill="#E0A86C" style="stroke:#000000;stroke-width:1.5;"/><line style="stroke:#000000;stroke-width:1.5;" x1="1015" x2="1106" y1="108.8628" y2="108.8628"/><a href="https://bo4e.github.io/BO4E-python/latest/api/bo4e.com.html" target="_top" title="https://bo4e.github.io/BO4E-python/latest/api/bo4e.com.html" xlink:actuate="onRequest" xlink:href="https://bo4e.github.io/BO4E-python/latest/api/bo4e.com.html" xlink:show="new" xlink:title="https://bo4e.github.io/BO4E-python/latest/api/bo4e.com.html" xlink:type="simple"><text fill="#0000FF" font-family="sans-serif" font-size="14" font-weight="bold" lengthAdjust="spacing" text-decoration="underline" textLength="78" x="1019" y="101.561">bo4e.com</text></a></g><!--cluster enum--><g id="cluster_enum"><path d="M1023,418.5659 L1113,418.5659 A3.75,3.75 0 0 1 1115.5,421.0659 L1122.5,440.8628 L1222,440.8628 A2.5,2.5 0 0 1 1224.5,443.3628 L1224.5,724.0659 A2.5,2.5 0 0 1 1222,726.5659 L1023,726.5659 A2.5,2.5 0 0 1 1020.5,724.0659 L1020.5,421.0659 A2.5,2.5 0 0 1 1023,418.5659 " fill="#D1C358" style="stroke:#000000;stroke-width:1.5;"/><line style="stroke:#000000;stroke-width:1.5;" x1="1020.5" x2="1122.5" y1="440.8628" y2="440.8628"/><a href="https://bo4e.github.io/BO4E-python/latest/api/bo4e.enum.html" target="_top" title="https://bo4e.github.io/BO4E-python/latest/api/bo4e.enum.html" xlink:actuate="onRequest" xlink:href="https://bo4e.github.io/BO4E-python/latest/api/bo4e.enum.html" xlink:show="new" xlink:title="https://bo4e.github.io/BO4E-python/latest/api/bo4e.enum.html" xlink:type="simple"><text fill="#0000FF" font-family="sans-serif" font-size="14" font-weight="bold" lengthAdjust="spacing" text-decoration="underline" textLength="89" x="1024.5" y="433.561">bo4e.enum</text></a></g><!--class Zeitraum--><g id="elem_Zeitraum"><rect codeLine="13" fill="#F1F1F1" height="37.9375" id="Zeitraum" rx="2.5" ry="2.5" style="stroke:#181818;stroke-width:0.5;" width="126" x="1059.5" y="121.5959"/><ellipse cx="1074.5" cy="140.5647" fill="#ADD1B2" rx="11" ry="11" style="stroke:#181818;stroke-width:1.0;"/><path d="M1077.4688,146.2053 Q1076.8906,146.5022 1076.25,146.6428 Q1075.6094,146.799 1074.9063,146.799 Q1072.4063,146.799 1071.0781,145.1584 Q1069.7656,143.5022 1069.7656,140.3772 Q1069.7656,137.2522 1071.0781,135.5959 Q1072.4063,133.9397 1074.9063,133.9397 Q1075.6094,133.9397 1076.25,134.0959 Q1076.9063,134.2522 1077.4688,134.549 L1077.4688,137.2678 Q1076.8438,136.6897 1076.25,136.424 Q1075.6563,136.1428 1075.0313,136.1428 Q1073.6875,136.1428 1073,137.2209 Q1072.3125,138.2834 1072.3125,140.3772 Q1072.3125,142.4709 1073,143.549 Q1073.6875,144.6115 1075.0313,144.6115 Q1075.6563,144.6115 1076.25,144.3459 Q1076.8438,144.0647 1077.4688,143.4865 L1077.4688,146.2053 Z " fill="#000000"/><a href="https://bo4e.github.io/BO4E-python/latest/api/bo4e.com.html#bo4e.com.zeitraum.Zeitraum" target="_top" title="https://bo4e.github.io/BO4E-python/latest/api/bo4e.com.html#bo4e.com.zeitraum.Zeitraum" xlink:actuate="onRequest" xlink:href="https://bo4e.github.io/BO4E-python/latest/api/bo4e.com.html#bo4e.com.zeitraum.Zeitraum" xlink:show="new" xlink:title="https://bo4e.github.io/BO4E-python/latest/api/bo4e.com.html#bo4e.com.zeitraum.Zeitraum" xlink:type="simple"><text fill="#0000FF" font-family="sans-serif" font-size="14" lengthAdjust="spacing" text-decoration="underline" textLength="62" x="1104.5" y="139.591">Zeitraum</text></a><text fill="#000000" font-family="sans-serif" font-size="10" lengthAdjust="spacing" textLength="94" x="1088.5" y="152.175">bo4e.com.zeitraum</text></g><!--class Ausschreibungsdetail--><g id="elem_Ausschreibungsdetail"><rect codeLine="14" fill="#F1F1F1" height="37.9375" id="Ausschreibungsdetail" rx="2.5" ry="2.5" style="stroke:#181818;stroke-width:0.5;" width="183" x="1031" y="194.5959"/><ellipse cx="1046" cy="213.5647" fill="#ADD1B2" rx="11" ry="11" style="stroke:#181818;stroke-width:1.0;"/><path d="M1048.9688,219.2053 Q1048.3906,219.5022 1047.75,219.6428 Q1047.1094,219.799 1046.4063,219.799 Q1043.9063,219.799 1042.5781,218.1584 Q1041.2656,216.5022 1041.2656,213.3772 Q1041.2656,210.2522 1042.5781,208.5959 Q1043.9063,206.9397 1046.4063,206.9397 Q1047.1094,206.9397 1047.75,207.0959 Q1048.4063,207.2522 1048.9688,207.549 L1048.9688,210.2678 Q1048.3438,209.6897 1047.75,209.424 Q1047.1563,209.1428 1046.5313,209.1428 Q1045.1875,209.1428 1044.5,210.2209 Q1043.8125,211.2834 1043.8125,213.3772 Q1043.8125,215.4709 1044.5,216.549 Q1045.1875,217.6115 1046.5313,217.6115 Q1047.1563,217.6115 1047.75,217.3459 Q1048.3438,217.0647 1048.9688,216.4865 L1048.9688,219.2053 Z " fill="#000000"/><a href="https://bo4e.github.io/BO4E-python/latest/api/bo4e.com.html#bo4e.com.ausschreibungsdetail.Ausschreibungsdetail" target="_top" title="https://bo4e.github.io/BO4E-python/latest/api/bo4e.com.html#bo4e.com.ausschreibungsdetail.Ausschreibungsdetail" xlink:actuate="onRequest" xlink:href="https://bo4e.github.io/BO4E-python/latest/api/bo4e.com.html#bo4e.com.ausschreibungsdetail.Ausschreibungsdetail" xlink:show="new" xlink:title="https://bo4e.github.io/BO4E-python/latest/api/bo4e.com.html#bo4e.com.ausschreibungsdetail.Ausschreibungsdetail" xlink:type="simple"><text fill="#0000FF" font-family="sans-serif" font-size="14" lengthAdjust="spacing" text-decoration="underline" textLength="149" x="1061" y="212.591">Ausschreibungsdetail</text></a><text fill="#000000" font-family="sans-serif" font-size="10" lengthAdjust="spacing" textLength="151" x="1060" y="225.175">bo4e.com.ausschreibungsdetail</text></g><!--class COM--><g id="elem_COM"><rect codeLine="15" fill="#F1F1F1" height="37.9375" id="COM" rx="2.5" ry="2.5" style="stroke:#181818;stroke-width:0.5;" width="104" x="1070.5" y="267.5959"/><ellipse cx="1085.5" cy="286.5647" fill="#ADD1B2" rx="11" ry="11" style="stroke:#181818;stroke-width:1.0;"/><path d="M1088.4688,292.2053 Q1087.8906,292.5022 1087.25,292.6428 Q1086.6094,292.799 1085.9063,292.799 Q1083.4063,292.799 1082.0781,291.1584 Q1080.7656,289.5022 1080.7656,286.3772 Q1080.7656,283.2522 1082.0781,281.5959 Q1083.4063,279.9397 1085.9063,279.9397 Q1086.6094,279.9397 1087.25,280.0959 Q1087.9063,280.2522 1088.4688,280.549 L1088.4688,283.2678 Q1087.8438,282.6897 1087.25,282.424 Q1086.6563,282.1428 1086.0313,282.1428 Q1084.6875,282.1428 1084,283.2209 Q1083.3125,284.2834 1083.3125,286.3772 Q1083.3125,288.4709 1084,289.549 Q1084.6875,290.6115 1086.0313,290.6115 Q1086.6563,290.6115 1087.25,290.3459 Q1087.8438,290.0647 1088.4688,289.4865 L1088.4688,292.2053 Z " fill="#000000"/><a href="https://bo4e.github.io/BO4E-python/latest/api/bo4e.com.html#bo4e.com.com.COM" target="_top" title="https://bo4e.github.io/BO4E-python/latest/api/bo4e.com.html#bo4e.com.com.COM" xlink:actuate="onRequest" xlink:href="https://bo4e.github.io/BO4E-python/latest/api/bo4e.com.html#bo4e.com.com.COM" xlink:show="new" xlink:title="https://bo4e.github.io/BO4E-python/latest/api/bo4e.com.html#bo4e.com.com.COM" xlink:type="simple"><text fill="#0000FF" font-family="sans-serif" font-size="14" lengthAdjust="spacing" text-decoration="underline" textLength="33" x="1119" y="285.591">COM</text></a><text fill="#000000" font-family="sans-serif" font-size="10" lengthAdjust="spacing" textLength="72" x="1099.5" y="298.175">bo4e.com.com</text></g><!--class Menge--><g id="elem_Menge"><rect codeLine="16" fill="#F1F1F1" height="37.9375" id="Menge" rx="2.5" ry="2.5" style="stroke:#181818;stroke-width:0.5;" width="117" x="1064" y="340.5959"/><ellipse cx="1079" cy="359.5647" fill="#ADD1B2" rx="11" ry="11" style="stroke:#181818;stroke-width:1.0;"/><path d="M1081.9688,365.2053 Q1081.3906,365.5022 1080.75,365.6428 Q1080.1094,365.799 1079.4063,365.799 Q1076.9063,365.799 1075.5781,364.1584 Q1074.2656,362.5022 1074.2656,359.3772 Q1074.2656,356.2522 1075.5781,354.5959 Q1076.9063,352.9397 1079.4063,352.9397 Q1080.1094,352.9397 1080.75,353.0959 Q1081.4063,353.2522 1081.9688,353.549 L1081.9688,356.2678 Q1081.3438,355.6897 1080.75,355.424 Q1080.1563,355.1428 1079.5313,355.1428 Q1078.1875,355.1428 1077.5,356.2209 Q1076.8125,357.2834 1076.8125,359.3772 Q1076.8125,361.4709 1077.5,362.549 Q1078.1875,363.6115 1079.5313,363.6115 Q1080.1563,363.6115 1080.75,363.3459 Q1081.3438,363.0647 1081.9688,362.4865 L1081.9688,365.2053 Z " fill="#000000"/><a href="https://bo4e.github.io/BO4E-python/latest/api/bo4e.com.html#bo4e.com.menge.Menge" target="_top" title="https://bo4e.github.io/BO4E-python/latest/api/bo4e.com.html#bo4e.com.menge.Menge" xlink:actuate="onRequest" xlink:href="https://bo4e.github.io/BO4E-python/latest/api/bo4e.com.html#bo4e.com.menge.Menge" xlink:show="new" xlink:title="https://bo4e.github.io/BO4E-python/latest/api/bo4e.com.html#bo4e.com.menge.Menge" xlink:type="simple"><text fill="#0000FF" font-family="sans-serif" font-size="14" lengthAdjust="spacing" text-decoration="underline" textLength="48" x="1111.5" y="358.591">Menge</text></a><text fill="#000000" font-family="sans-serif" font-size="10" lengthAdjust="spacing" textLength="85" x="1093" y="371.175">bo4e.com.menge</text></g><!--class Vertragsform--><g id="elem_Vertragsform"><rect codeLine="19" fill="#F1F1F1" height="37.9375" id="Vertragsform" rx="2.5" ry="2.5" style="stroke:#181818;stroke-width:0.5;" width="155" x="1045" y="453.5959"/><ellipse cx="1060" cy="472.5647" fill="#ADD1B2" rx="11" ry="11" style="stroke:#181818;stroke-width:1.0;"/><path d="M1062.9688,478.2053 Q1062.3906,478.5022 1061.75,478.6428 Q1061.1094,478.799 1060.4063,478.799 Q1057.9063,478.799 1056.5781,477.1584 Q1055.2656,475.5022 1055.2656,472.3772 Q1055.2656,469.2522 1056.5781,467.5959 Q1057.9063,465.9397 1060.4063,465.9397 Q1061.1094,465.9397 1061.75,466.0959 Q1062.4063,466.2522 1062.9688,466.549 L1062.9688,469.2678 Q1062.3438,468.6897 1061.75,468.424 Q1061.1563,468.1428 1060.5313,468.1428 Q1059.1875,468.1428 1058.5,469.2209 Q1057.8125,470.2834 1057.8125,472.3772 Q1057.8125,474.4709 1058.5,475.549 Q1059.1875,476.6115 1060.5313,476.6115 Q1061.1563,476.6115 1061.75,476.3459 Q1062.3438,476.0647 1062.9688,475.4865 L1062.9688,478.2053 Z " fill="#000000"/><a href="https://bo4e.github.io/BO4E-python/latest/api/bo4e.enum.html#bo4e.enum.vertragsform.Vertragsform" target="_top" title="https://bo4e.github.io/BO4E-python/latest/api/bo4e.enum.html#bo4e.enum.vertragsform.Vertragsform" xlink:actuate="onRequest" xlink:href="https://bo4e.github.io/BO4E-python/latest/api/bo4e.enum.html#bo4e.enum.vertragsform.Vertragsform" xlink:show="new" xlink:title="https://bo4e.github.io/BO4E-python/latest/api/bo4e.enum.html#bo4e.enum.vertragsform.Vertragsform" xlink:type="simple"><text fill="#0000FF" font-family="sans-serif" font-size="14" lengthAdjust="spacing" text-decoration="underline" textLength="89" x="1091" y="471.591">Vertragsform</text></a><text fill="#000000" font-family="sans-serif" font-size="10" lengthAdjust="spacing" textLength="123" x="1074" y="484.175">bo4e.enum.vertragsform</text></g><!--class Sparte--><g id="elem_Sparte"><rect codeLine="20" fill="#F1F1F1" height="37.9375" id="Sparte" rx="2.5" ry="2.5" style="stroke:#181818;stroke-width:0.5;" width="121" x="1062" y="526.5959"/><ellipse cx="1077" cy="545.5647" fill="#ADD1B2" rx="11" ry="11" style="stroke:#181818;stroke-width:1.0;"/><path d="M1079.9688,551.2053 Q1079.3906,551.5022 1078.75,551.6428 Q1078.1094,551.799 1077.4063,551.799 Q1074.9063,551.799 1073.5781,550.1584 Q1072.2656,548.5022 1072.2656,545.3772 Q1072.2656,542.2522 1073.5781,540.5959 Q1074.9063,538.9397 1077.4063,538.9397 Q1078.1094,538.9397 1078.75,539.0959 Q1079.4063,539.2522 1079.9688,539.549 L1079.9688,542.2678 Q1079.3438,541.6897 1078.75,541.424 Q1078.1563,541.1428 1077.5313,541.1428 Q1076.1875,541.1428 1075.5,542.2209 Q1074.8125,543.2834 1074.8125,545.3772 Q1074.8125,547.4709 1075.5,548.549 Q1076.1875,549.6115 1077.5313,549.6115 Q1078.1563,549.6115 1078.75,549.3459 Q1079.3438,549.0647 1079.9688,548.4865 L1079.9688,551.2053 Z " fill="#000000"/><a href="https://bo4e.github.io/BO4E-python/latest/api/bo4e.enum.html#bo4e.enum.sparte.Sparte" target="_top" title="https://bo4e.github.io/BO4E-python/latest/api/bo4e.enum.html#bo4e.enum.sparte.Sparte" xlink:actuate="onRequest" xlink:href="https://bo4e.github.io/BO4E-python/latest/api/bo4e.enum.html#bo4e.enum.sparte.Sparte" xlink:show="new" xlink:title="https://bo4e.github.io/BO4E-python/latest/api/bo4e.enum.html#bo4e.enum.sparte.Sparte" xlink:type="simple"><text fill="#0000FF" font-family="sans-serif" font-size="14" lengthAdjust="spacing" text-decoration="underline" textLength="45" x="1113" y="544.591">Sparte</text></a><text fill="#000000" font-family="sans-serif" font-size="10" lengthAdjust="spacing" textLength="89" x="1091" y="557.175">bo4e.enum.sparte</text></g><!--class Preismodell--><g id="elem_Preismodell"><rect codeLine="21" fill="#F1F1F1" height="37.9375" id="Preismodell" rx="2.5" ry="2.5" style="stroke:#181818;stroke-width:0.5;" width="145" x="1050" y="599.5959"/><ellipse cx="1065" cy="618.5647" fill="#ADD1B2" rx="11" ry="11" style="stroke:#181818;stroke-width:1.0;"/><path d="M1067.9688,624.2053 Q1067.3906,624.5022 1066.75,624.6428 Q1066.1094,624.799 1065.4063,624.799 Q1062.9063,624.799 1061.5781,623.1584 Q1060.2656,621.5022 1060.2656,618.3772 Q1060.2656,615.2522 1061.5781,613.5959 Q1062.9063,611.9397 1065.4063,611.9397 Q1066.1094,611.9397 1066.75,612.0959 Q1067.4063,612.2522 1067.9688,612.549 L1067.9688,615.2678 Q1067.3438,614.6897 1066.75,614.424 Q1066.1563,614.1428 1065.5313,614.1428 Q1064.1875,614.1428 1063.5,615.2209 Q1062.8125,616.2834 1062.8125,618.3772 Q1062.8125,620.4709 1063.5,621.549 Q1064.1875,622.6115 1065.5313,622.6115 Q1066.1563,622.6115 1066.75,622.3459 Q1067.3438,622.0647 1067.9688,621.4865 L1067.9688,624.2053 Z " fill="#000000"/><a href="https://bo4e.github.io/BO4E-python/latest/api/bo4e.enum.html#bo4e.enum.preismodell.Preismodell" target="_top" title="https://bo4e.github.io/BO4E-python/latest/api/bo4e.enum.html#bo4e.enum.preismodell.Preismodell" xlink:actuate="onRequest" xlink:href="https://bo4e.github.io/BO4E-python/latest/api/bo4e.enum.html#bo4e.enum.preismodell.Preismodell" xlink:show="new" xlink:title="https://bo4e.github.io/BO4E-python/latest/api/bo4e.enum.html#bo4e.enum.preismodell.Preismodell" xlink:type="simple"><text fill="#0000FF" font-family="sans-serif" font-size="14" lengthAdjust="spacing" text-decoration="underline" textLength="80" x="1095.5" y="617.591">Preismodell</text></a><text fill="#000000" font-family="sans-serif" font-size="10" lengthAdjust="spacing" textLength="113" x="1079" y="630.175">bo4e.enum.preismodell</text></g><!--class Rechnungslegung--><g id="elem_Rechnungslegung"><rect codeLine="22" fill="#F1F1F1" height="37.9375" id="Rechnungslegung" rx="2.5" ry="2.5" style="stroke:#181818;stroke-width:0.5;" width="172" x="1036.5" y="672.5959"/><ellipse cx="1051.5" cy="691.5647" fill="#ADD1B2" rx="11" ry="11" style="stroke:#181818;stroke-width:1.0;"/><path d="M1054.4688,697.2053 Q1053.8906,697.5022 1053.25,697.6428 Q1052.6094,697.799 1051.9063,697.799 Q1049.4063,697.799 1048.0781,696.1584 Q1046.7656,694.5022 1046.7656,691.3772 Q1046.7656,688.2522 1048.0781,686.5959 Q1049.4063,684.9397 1051.9063,684.9397 Q1052.6094,684.9397 1053.25,685.0959 Q1053.9063,685.2522 1054.4688,685.549 L1054.4688,688.2678 Q1053.8438,687.6897 1053.25,687.424 Q1052.6563,687.1428 1052.0313,687.1428 Q1050.6875,687.1428 1050,688.2209 Q1049.3125,689.2834 1049.3125,691.3772 Q1049.3125,693.4709 1050,694.549 Q1050.6875,695.6115 1052.0313,695.6115 Q1052.6563,695.6115 1053.25,695.3459 Q1053.8438,695.0647 1054.4688,694.4865 L1054.4688,697.2053 Z " fill="#000000"/><a href="https://bo4e.github.io/BO4E-python/latest/api/bo4e.enum.html#bo4e.enum.rechnungslegung.Rechnungslegung" target="_top" title="https://bo4e.github.io/BO4E-python/latest/api/bo4e.enum.html#bo4e.enum.rechnungslegung.Rechnungslegung" xlink:actuate="onRequest" xlink:href="https://bo4e.github.io/BO4E-python/latest/api/bo4e.enum.html#bo4e.enum.rechnungslegung.Rechnungslegung" xlink:show="new" xlink:title="https://bo4e.github.io/BO4E-python/latest/api/bo4e.enum.html#bo4e.enum.rechnungslegung.Rechnungslegung" xlink:type="simple"><text fill="#0000FF" font-family="sans-serif" font-size="14" lengthAdjust="spacing" text-decoration="underline" textLength="128" x="1071.5" y="690.591">Rechnungslegung</text></a><text fill="#000000" font-family="sans-serif" font-size="10" lengthAdjust="spacing" textLength="140" x="1065.5" y="703.175">bo4e.enum.rechnungslegung</text></g><!--class Ausschreibungslos--><g id="elem_Ausschreibungslos"><rect codeLine="3" fill="#F1F1F1" height="143.7188" id="Ausschreibungslos" rx="2.5" ry="2.5" style="stroke:#181818;stroke-width:0.5;" width="775" x="7" y="254.7059"/><ellipse cx="321.25" cy="273.6747" fill="#ADD1B2" rx="11" ry="11" style="stroke:#181818;stroke-width:1.0;"/><path d="M324.2188,279.3153 Q323.6406,279.6122 323,279.7528 Q322.3594,279.909 321.6563,279.909 Q319.1563,279.909 317.8281,278.2684 Q316.5156,276.6122 316.5156,273.4872 Q316.5156,270.3622 317.8281,268.7059 Q319.1563,267.0497 321.6563,267.0497 Q322.3594,267.0497 323,267.2059 Q323.6563,267.3622 324.2188,267.659 L324.2188,270.3778 Q323.5938,269.7997 323,269.534 Q322.4063,269.2528 321.7813,269.2528 Q320.4375,269.2528 319.75,270.3309 Q319.0625,271.3934 319.0625,273.4872 Q319.0625,275.5809 319.75,276.659 Q320.4375,277.7215 321.7813,277.7215 Q322.4063,277.7215 323,277.4559 Q323.5938,277.1747 324.2188,276.5965 L324.2188,279.3153 Z " fill="#000000"/><a href="https://bo4e.github.io/BO4E-python/latest/api/bo4e.com.html#bo4e.com.ausschreibungslos.Ausschreibungslos" target="_top" title="https://bo4e.github.io/BO4E-python/latest/api/bo4e.com.html#bo4e.com.ausschreibungslos.Ausschreibungslos" xlink:actuate="onRequest" xlink:href="https://bo4e.github.io/BO4E-python/latest/api/bo4e.com.html#bo4e.com.ausschreibungslos.Ausschreibungslos" xlink:show="new" xlink:title="https://bo4e.github.io/BO4E-python/latest/api/bo4e.com.html#bo4e.com.ausschreibungslos.Ausschreibungslos" xlink:type="simple"><text fill="#0000FF" font-family="sans-serif" font-size="14" lengthAdjust="spacing" text-decoration="underline" textLength="132" x="344.75" y="272.701">Ausschreibungslos</text></a><text fill="#000000" font-family="sans-serif" font-size="10" lengthAdjust="spacing" textLength="138" x="341.75" y="285.285">bo4e.com.ausschreibungslos</text><line style="stroke:#181818;stroke-width:0.5;" x1="8" x2="781" y1="292.6434" y2="292.6434"/><text fill="#000000" font-family="sans-serif" font-size="14" lengthAdjust="spacing" textLength="763" x="13" y="309.6385">_typ : Literal[&lt;ComTyp.AUSSCHREIBUNGSLOS: 'AUSSCHREIBUNGSLOS'&gt;] [1] = ComTyp.AUSSCHREIBUNGSLOS</text><text fill="#000000" font-family="sans-serif" font-size="14" lengthAdjust="spacing" textLength="206" x="13" y="325.9354">losnummer : str [0..1] = None</text><text fill="#000000" font-family="sans-serif" font-size="14" lengthAdjust="spacing" textLength="219" x="13" y="342.2323">bezeichnung : str [0..1] = None</text><text fill="#000000" font-family="sans-serif" font-size="14" lengthAdjust="spacing" textLength="221" x="13" y="358.5292">betreutDurch : str [0..1] = None</text><text fill="#000000" font-family="sans-serif" font-size="14" lengthAdjust="spacing" textLength="255" x="13" y="374.826">anzahlLieferstellen : int [0..1] = None</text><text fill="#000000" font-family="sans-serif" font-size="14" lengthAdjust="spacing" textLength="208" x="13" y="391.1229">bemerkung : str [0..1] = None</text></g><!--link Ausschreibungslos to COM--><g id="link_Ausschreibungslos_COM"><path codeLine="25" d="M782.41,305.2459 C896.74,298.9459 989.9273,293.8177 1052.2673,290.3777 " fill="none" id="Ausschreibungslos-to-COM" style="stroke:#181818;stroke-width:1.0;"/><polygon fill="none" points="1070.24,289.3859,1051.9368,284.3868,1052.5979,296.3686,1070.24,289.3859" style="stroke:#181818;stroke-width:1.0;"/></g><!--link Ausschreibungslos to Preismodell--><g id="link_Ausschreibungslos_Preismodell"><path codeLine="26" d="M511.48,398.7459 C592.98,446.7659 705.95,508.0559 812,547.5659 C890.91,576.9659 974.0157,594.5098 1037.7557,605.5398 " fill="none" id="Ausschreibungslos-to-Preismodell" style="stroke:#181818;stroke-width:1.0;"/><polygon fill="#181818" points="1049.58,607.5859,1044.3499,602.6214,1037.7557,605.5398,1042.9858,610.5043,1049.58,607.5859" style="stroke:#181818;stroke-width:1.0;"/><text fill="#000000" font-family="sans-serif" font-size="13" lengthAdjust="spacing" textLength="74" x="856.5" y="543.6328">preismodell</text><text fill="#000000" font-family="sans-serif" font-size="13" lengthAdjust="spacing" textLength="24" x="1018.0168" y="619.3489">0..1</text></g><!--link Ausschreibungslos to Sparte--><g id="link_Ausschreibungslos_Sparte"><path codeLine="27" d="M563.39,398.9259 C638.41,429.1959 728.56,462.7959 812,486.5659 C897.35,510.8859 986.97,526.3147 1049.85,535.6447 " fill="none" id="Ausschreibungslos-to-Sparte" style="stroke:#181818;stroke-width:1.0;"/><polygon fill="#181818" points="1061.72,537.4059,1056.3721,532.5686,1049.85,535.6447,1055.1979,540.482,1061.72,537.4059" style="stroke:#181818;stroke-width:1.0;"/><text fill="#000000" font-family="sans-serif" font-size="13" lengthAdjust="spacing" textLength="66" x="860.5" y="482.6328">energieart</text><text fill="#000000" font-family="sans-serif" font-size="13" lengthAdjust="spacing" textLength="24" x="1030.2146" y="549.4117">0..1</text></g><!--link Ausschreibungslos to Rechnungslegung--><g id="link_Ausschreibungslos_Rechnungslegung"><path codeLine="28" d="M478.28,398.6359 C558.46,464.8359 686.08,560.9859 812,617.5659 C884.19,649.9959 960.666,667.3169 1024.446,678.0369 " fill="none" id="Ausschreibungslos-to-Rechnungslegung" style="stroke:#181818;stroke-width:1.0;"/><polygon fill="#181818" points="1036.28,680.0259,1031.026,675.0867,1024.446,678.0369,1029.7,682.9761,1036.28,680.0259" style="stroke:#181818;stroke-width:1.0;"/><text fill="#000000" font-family="sans-serif" font-size="13" lengthAdjust="spacing" textLength="160" x="813.5" y="613.6328">wunschRechnungslegung</text><text fill="#000000" font-family="sans-serif" font-size="13" lengthAdjust="spacing" textLength="24" x="1004.4531" y="691.7763">0..1</text></g><!--link Ausschreibungslos to Vertragsform--><g id="link_Ausschreibungslos_Vertragsform"><path codeLine="29" d="M636.54,398.9259 C693.66,414.1259 754.66,428.7959 812,439.5659 C890.6,454.3259 969.7938,462.1465 1032.7238,466.8765 " fill="none" id="Ausschreibungslos-to-Vertragsform" style="stroke:#181818;stroke-width:1.0;"/><polygon fill="#181818" points="1044.69,467.7759,1039.0067,463.3375,1032.7238,466.8765,1038.4071,471.315,1044.69,467.7759" style="stroke:#181818;stroke-width:1.0;"/><text fill="#000000" font-family="sans-serif" font-size="13" lengthAdjust="spacing" textLength="132" x="827.5" y="435.6328">wunschVertragsform</text><text fill="#000000" font-family="sans-serif" font-size="13" lengthAdjust="spacing" textLength="24" x="1012.972" y="480.0815">0..1</text></g><!--link Ausschreibungslos to Ausschreibungsdetail--><g id="link_Ausschreibungslos_Ausschreibungsdetail"><path codeLine="30" d="M782.41,266.3459 C875.43,251.8659 954.4928,239.5617 1018.7328,229.5617 " fill="none" id="Ausschreibungslos-to-Ausschreibungsdetail" style="stroke:#181818;stroke-width:1.0;"/><polygon fill="#181818" points="1030.59,227.7159,1024.0461,224.6864,1018.7328,229.5617,1025.2767,232.5912,1030.59,227.7159" style="stroke:#181818;stroke-width:1.0;"/><text fill="#000000" font-family="sans-serif" font-size="13" lengthAdjust="spacing" textLength="73" x="857" y="234.6328">lieferstellen</text><text fill="#000000" font-family="sans-serif" font-size="13" lengthAdjust="spacing" textLength="23" x="999.9958" y="241.3777">0..*</text></g><!--link Ausschreibungslos to Zeitraum--><g id="link_Ausschreibungslos_Zeitraum"><path codeLine="31" d="M469.59,254.3559 C547.48,183.9359 677.21,81.5059 812,39.5659 C881.17,18.0459 905.83,18.0359 975,39.5659 C1026.62,55.6359 1067.3647,88.7295 1093.5247,113.2495 " fill="none" id="Ausschreibungslos-to-Zeitraum" style="stroke:#181818;stroke-width:1.0;"/><polygon fill="#181818" points="1102.28,121.4559,1100.6378,114.4343,1093.5247,113.2495,1095.1669,120.2711,1102.28,121.4559" style="stroke:#181818;stroke-width:1.0;"/><text fill="#000000" font-family="sans-serif" font-size="13" lengthAdjust="spacing" textLength="88" x="849.5" y="19.6328">lieferzeitraum</text><text fill="#000000" font-family="sans-serif" font-size="13" lengthAdjust="spacing" textLength="24" x="1068.4126" y="110.3942">0..1</text></g><!--link Ausschreibungslos to Zeitraum--><g id="link_Ausschreibungslos_Zeitraum"><path codeLine="32" d="M492.54,254.3159 C573.32,198.9459 693.82,127.0259 812,96.5659 C901.21,73.5659 996.8184,96.6135 1058.7784,117.3135 " fill="none" id="Ausschreibungslos-to-Zeitraum-1" style="stroke:#181818;stroke-width:1.0;"/><polygon fill="#181818" points="1070.16,121.1159,1065.7367,115.4208,1058.7784,117.3135,1063.2017,123.0086,1070.16,121.1159" style="stroke:#181818;stroke-width:1.0;"/><text fill="#000000" font-family="sans-serif" font-size="13" lengthAdjust="spacing" textLength="141" x="823" y="84.6328">wiederholungsintervall</text><text fill="#000000" font-family="sans-serif" font-size="13" lengthAdjust="spacing" textLength="24" x="1028.0644" y="110.6222">0..1</text></g><!--link Ausschreibungslos to Zeitraum--><g id="link_Ausschreibungslos_Zeitraum"><path codeLine="33" d="M534.58,254.3059 C613.68,216.9659 715.87,174.8459 812,153.5659 C896.01,134.9659 983.918,134.0989 1047.028,136.3989 " fill="none" id="Ausschreibungslos-to-Zeitraum-2" style="stroke:#181818;stroke-width:1.0;"/><polygon fill="#181818" points="1059.02,136.8359,1053.1697,132.6201,1047.028,136.3989,1052.8783,140.6147,1059.02,136.8359" style="stroke:#181818;stroke-width:1.0;"/><text fill="#000000" font-family="sans-serif" font-size="13" lengthAdjust="spacing" textLength="161" x="813" y="132.6328">wunschKuendingungsfrist</text><text fill="#000000" font-family="sans-serif" font-size="13" lengthAdjust="spacing" textLength="24" x="1027.5899" y="149.2806">0..1</text></g><!--link Ausschreibungslos to Zeitraum--><g id="link_Ausschreibungslos_Zeitraum"><path codeLine="34" d="M653.51,254.2659 C705.83,240.2459 760.58,226.0559 812,213.5659 C884,196.0859 902.9,195.6459 975,178.5659 C1002.74,171.9959 1021.6752,167.2201 1047.6652,160.3801 " fill="none" id="Ausschreibungslos-to-Zeitraum-3" style="stroke:#181818;stroke-width:1.0;"/><polygon fill="#181818" points="1059.27,157.3259,1052.4495,154.9847,1047.6652,160.3801,1054.4856,162.7213,1059.27,157.3259" style="stroke:#181818;stroke-width:1.0;"/><text fill="#000000" font-family="sans-serif" font-size="13" lengthAdjust="spacing" textLength="128" x="829.5" y="174.6328">wunschZahlungsziel</text><text fill="#000000" font-family="sans-serif" font-size="13" lengthAdjust="spacing" textLength="24" x="1027.5119" y="171.9016">0..1</text></g><!--link Ausschreibungslos to Menge--><g id="link_Ausschreibungslos_Menge"><path codeLine="35" d="M782.41,344.1559 C892.85,349.1759 988.3424,353.5112 1051.7224,356.3912 " fill="none" id="Ausschreibungslos-to-Menge" style="stroke:#181818;stroke-width:1.0;"/><polygon fill="#181818" points="1063.71,356.9359,1057.8978,352.6677,1051.7224,356.3912,1057.5346,360.6594,1063.71,356.9359" style="stroke:#181818;stroke-width:1.0;"/><text fill="#000000" font-family="sans-serif" font-size="13" lengthAdjust="spacing" textLength="92" x="847.5" y="342.6328">gesamtMenge</text><text fill="#000000" font-family="sans-serif" font-size="13" lengthAdjust="spacing" textLength="24" x="1031.9673" y="352.9022">0..1</text></g><!--link Ausschreibungslos to Menge--><g id="link_Ausschreibungslos_Menge"><path codeLine="36" d="M782.2,376.6559 C846.55,380.3759 912.63,381.3859 975,377.5659 C1004.29,375.7759 1024.7886,373.5968 1051.6586,369.9568 " fill="none" id="Ausschreibungslos-to-Menge-1" style="stroke:#181818;stroke-width:1.0;"/><polygon fill="#181818" points="1063.55,368.3459,1057.0673,365.1876,1051.6586,369.9568,1058.1413,373.1152,1063.55,368.3459" style="stroke:#181818;stroke-width:1.0;"/><text fill="#000000" font-family="sans-serif" font-size="13" lengthAdjust="spacing" textLength="142" x="822.5" y="373.6328">wunschMindestmenge</text><text fill="#000000" font-family="sans-serif" font-size="13" lengthAdjust="spacing" textLength="24" x="1031.7898" y="382.2008">0..1</text></g><!--link Ausschreibungslos to Menge--><g id="link_Ausschreibungslos_Menge"><path codeLine="37" d="M685.38,398.9259 C778.01,413.2559 880.91,419.9959 975,405.5659 C1008.47,400.4359 1033.4937,393.1526 1061.5937,383.0026 " fill="none" id="Ausschreibungslos-to-Menge-2" style="stroke:#181818;stroke-width:1.0;"/><polygon fill="#181818" points="1072.88,378.9259,1065.8779,377.2022,1061.5937,383.0026,1068.5958,384.7264,1072.88,378.9259" style="stroke:#181818;stroke-width:1.0;"/><text fill="#000000" font-family="sans-serif" font-size="13" lengthAdjust="spacing" textLength="145" x="821" y="401.6328">wunschMaximalmenge</text><text fill="#000000" font-family="sans-serif" font-size="13" lengthAdjust="spacing" textLength="24" x="1062.2994" y="398.5662">0..1</text></g><!--SRC=[hLPTRvim57qkl-8gUQXKgIJHkgb2NQKsgxPf_PYQTG_Deic16x1c6sIRTiss_pvZIa88JApXWU3hd7jyk1pxmd2XGSSWQHXf2AX4NzDOE8xFY5BGcquZhHFb3GRp-0ZTaEeedRiq7fpV75qS9aywYiM04OrA3qX2SvGVSpVIdFLN4KcLyYE9T9wAKB5OkMVL6TYQcSs-YHD5b-YDXgVDL3qWDSdmozdxhfyIyE2IQfI4JK_6CV_obBXdTvF9-CFjnSVpk-ltaykRYGVxMtFxfpEOZcRm5fgod3spZ4WvHsaMKLh2TEYwDkKw5kZipN69r8-4KTG4q19J_IwLVbIF86998dP9SO5IQMGCXG5IeRUfZ8mVJIlzSHn1EAg4-BZZEuKYciriuOiG-XV3i-CtuwpktNh7555BadBt_da0nQ3U80NUoYkWNOlQT660cb1MyNG-2NMJRPoT8slCdV_HzGDbr_Zc2inLhyvSLem1TBqsHn6YUvNzWlsjLs1XLeC56LVlQceqsxVawYmispgBeH-C_5UlZtVrzMgf_ZfyG6dC6Qf5BBdxjHH0ETWknbQobLpEwLwhARFKw4xi3V9RWx8SQZNbkExL96OpA1u7vaHqFw_7K1etY2jbMeMbZEvbccvgZt_5C3GtztOpXahS8Bd2OcLNChCJlgQb7Xx-FbsTqDdshWCPr07qidxHMzj-eweUbAhMdkBPAnwWG1bID57xv6gfF7XCXSciFdXhmetzLR1jx9b_KHtqrdMiFUOzOEKktKfNHhPgQWL1qRvUml18CK0PnInBC5y9A1z8opTMPRBb-PIY2AZ82gqMaYhzSgfxynsJPImfjXUKjmGFGbI4w_pK_z_SVFahAWApNVak5EGdvOJb54v40mIEV6vUkQEY-15gM1VcOGFr5m00]--></g></svg>