<svg xmlns="http://www.w3.org/2000/svg" xmlns:xlink="http://www.w3.org/1999/xlink" contentStyleType="text/css" data-diagram-type="CLASS" height="501px" preserveAspectRatio="none" style="width:1341px;height:501px;background:#FFFFFF;" version="1.1" viewBox="0 0 1341 501" width="1341px" zoomAndPan="magnify"><defs/><g><!--cluster bo4e--><g class="cluster" data-entity="bo4e" data-source-line="16" data-uid="ent0005" id="cluster_bo4e"><path d="M1112.3,6 L1152.176,6 A3.75,3.75 0 0 1 1154.676,8.5 L1161.676,28.2969 L1332.3,28.2969 A2.5,2.5 0 0 1 1334.8,30.7969 L1334.8,491.5 A2.5,2.5 0 0 1 1332.3,494 L1112.3,494 A2.5,2.5 0 0 1 1109.8,491.5 L1109.8,8.5 A2.5,2.5 0 0 1 1112.3,6" fill="none" style="stroke:#000000;stroke-width:1.5;"/><line style="stroke:#000000;stroke-width:1.5;" x1="1109.8" x2="1161.676" y1="28.2969" y2="28.2969"/><text fill="#000000" font-family="sans-serif" font-size="14" font-weight="bold" lengthAdjust="spacing" textLength="38.876" x="1113.8" y="20.9951">bo4e</text></g><!--cluster com--><g class="cluster" data-entity="com" data-source-line="15" data-uid="ent0003" id="cluster_com"><path d="M1144.24,49 L1221.9392,49 A3.75,3.75 0 0 1 1224.4392,51.5 L1231.4392,71.2969 L1300.36,71.2969 A2.5,2.5 0 0 1 1302.86,73.7969 L1302.86,354.5 A2.5,2.5 0 0 1 1300.36,357 L1144.24,357 A2.5,2.5 0 0 1 1141.74,354.5 L1141.74,51.5 A2.5,2.5 0 0 1 1144.24,49" fill="#E0A86C" style="stroke:#000000;stroke-width:1.5;"/><line style="stroke:#000000;stroke-width:1.5;" x1="1141.74" x2="1231.4392" y1="71.2969" y2="71.2969"/><a href="file:////home/runner/work/BO4E-python/BO4E-python/docs/../.tox/docs/tmp/html/api/bo4e.com.html" target="_top" title="file:////home/runner/work/BO4E-python/BO4E-python/docs/../.tox/docs/tmp/html/api/bo4e.com.html" xlink:actuate="onRequest" xlink:href="file:////home/runner/work/BO4E-python/BO4E-python/docs/../.tox/docs/tmp/html/api/bo4e.com.html" xlink:show="new" xlink:title="file:////home/runner/work/BO4E-python/BO4E-python/docs/../.tox/docs/tmp/html/api/bo4e.com.html" xlink:type="simple"><text fill="#0000FF" font-family="sans-serif" font-size="14" font-weight="bold" lengthAdjust="spacing" text-decoration="underline" textLength="76.6992" x="1145.74" y="63.9951">bo4e.com</text></a></g><!--cluster enum--><g class="cluster" data-entity="enum" data-source-line="21" data-uid="ent0009" id="cluster_enum"><path d="M1136.3,381 L1225.5109,381 A3.75,3.75 0 0 1 1228.0109,383.5 L1235.0109,403.2969 L1308.3,403.2969 A2.5,2.5 0 0 1 1310.8,405.7969 L1310.8,467.5 A2.5,2.5 0 0 1 1308.3,470 L1136.3,470 A2.5,2.5 0 0 1 1133.8,467.5 L1133.8,383.5 A2.5,2.5 0 0 1 1136.3,381" fill="#D1C358" style="stroke:#000000;stroke-width:1.5;"/><line style="stroke:#000000;stroke-width:1.5;" x1="1133.8" x2="1235.0109" y1="403.2969" y2="403.2969"/><a href="file:////home/runner/work/BO4E-python/BO4E-python/docs/../.tox/docs/tmp/html/api/bo4e.enum.html" target="_top" title="file:////home/runner/work/BO4E-python/BO4E-python/docs/../.tox/docs/tmp/html/api/bo4e.enum.html" xlink:actuate="onRequest" xlink:href="file:////home/runner/work/BO4E-python/BO4E-python/docs/../.tox/docs/tmp/html/api/bo4e.enum.html" xlink:show="new" xlink:title="file:////home/runner/work/BO4E-python/BO4E-python/docs/../.tox/docs/tmp/html/api/bo4e.enum.html" xlink:type="simple"><text fill="#0000FF" font-family="sans-serif" font-size="14" font-weight="bold" lengthAdjust="spacing" text-decoration="underline" textLength="88.2109" x="1137.8" y="395.9951">bo4e.enum</text></a></g><!--class Menge--><g class="entity" data-entity="Menge" data-source-line="16" data-uid="ent0004" id="entity_Menge"><rect fill="#F1F1F1" height="37.9375" rx="2.5" ry="2.5" style="stroke:#181818;stroke-width:0.5;" width="119.4268" x="1162.59" y="84.03"/><ellipse cx="1177.59" cy="102.9987" fill="#ADD1B2" rx="11" ry="11" style="stroke:#181818;stroke-width:1;"/><path d="M1180.5588,108.6394 Q1179.9806,108.9362 1179.34,109.0769 Q1178.6994,109.2331 1177.9963,109.2331 Q1175.4963,109.2331 1174.1681,107.5925 Q1172.8556,105.9362 1172.8556,102.8112 Q1172.8556,99.6862 1174.1681,98.03 Q1175.4963,96.3737 1177.9963,96.3737 Q1178.6994,96.3737 1179.34,96.53 Q1179.9963,96.6862 1180.5588,96.9831 L1180.5588,99.7019 Q1179.9338,99.1237 1179.34,98.8581 Q1178.7463,98.5769 1178.1213,98.5769 Q1176.7775,98.5769 1176.09,99.655 Q1175.4025,100.7175 1175.4025,102.8112 Q1175.4025,104.905 1176.09,105.9831 Q1176.7775,107.0456 1178.1213,107.0456 Q1178.7463,107.0456 1179.34,106.78 Q1179.9338,106.4987 1180.5588,105.9206 L1180.5588,108.6394 Z " fill="#000000"/><a href="file:////home/runner/work/BO4E-python/BO4E-python/docs/../.tox/docs/tmp/html/api/bo4e.com.html#bo4e.com.menge.Menge" target="_top" title="file:////home/runner/work/BO4E-python/BO4E-python/docs/../.tox/docs/tmp/html/api/bo4e.com.html#bo4e.com.menge.Menge" xlink:actuate="onRequest" xlink:href="file:////home/runner/work/BO4E-python/BO4E-python/docs/../.tox/docs/tmp/html/api/bo4e.com.html#bo4e.com.menge.Menge" xlink:show="new" xlink:title="file:////home/runner/work/BO4E-python/BO4E-python/docs/../.tox/docs/tmp/html/api/bo4e.com.html#bo4e.com.menge.Menge" xlink:type="simple"><text fill="#0000FF" font-family="sans-serif" font-size="14" lengthAdjust="spacing" text-decoration="underline" textLength="47.0654" x="1211.7707" y="102.0251">Menge</text></a><text fill="#000000" font-family="sans-serif" font-size="10" lengthAdjust="spacing" textLength="87.4268" x="1191.59" y="114.6091">bo4e.com.menge</text></g><!--class Zeitraum--><g class="entity" data-entity="Zeitraum" data-source-line="17" data-uid="ent0006" id="entity_Zeitraum"><rect fill="#F1F1F1" height="37.9375" rx="2.5" ry="2.5" style="stroke:#181818;stroke-width:0.5;" width="129.1143" x="1157.74" y="157.03"/><ellipse cx="1172.74" cy="175.9987" fill="#ADD1B2" rx="11" ry="11" style="stroke:#181818;stroke-width:1;"/><path d="M1175.7088,181.6394 Q1175.1306,181.9362 1174.49,182.0769 Q1173.8494,182.2331 1173.1463,182.2331 Q1170.6463,182.2331 1169.3181,180.5925 Q1168.0056,178.9362 1168.0056,175.8112 Q1168.0056,172.6862 1169.3181,171.03 Q1170.6463,169.3737 1173.1463,169.3737 Q1173.8494,169.3737 1174.49,169.53 Q1175.1463,169.6862 1175.7088,169.9831 L1175.7088,172.7019 Q1175.0838,172.1237 1174.49,171.8581 Q1173.8963,171.5769 1173.2713,171.5769 Q1171.9275,171.5769 1171.24,172.655 Q1170.5525,173.7175 1170.5525,175.8112 Q1170.5525,177.905 1171.24,178.9831 Q1171.9275,180.0456 1173.2713,180.0456 Q1173.8963,180.0456 1174.49,179.78 Q1175.0838,179.4987 1175.7088,178.9206 L1175.7088,181.6394 Z " fill="#000000"/><a href="file:////home/runner/work/BO4E-python/BO4E-python/docs/../.tox/docs/tmp/html/api/bo4e.com.html#bo4e.com.zeitraum.Zeitraum" target="_top" title="file:////home/runner/work/BO4E-python/BO4E-python/docs/../.tox/docs/tmp/html/api/bo4e.com.html#bo4e.com.zeitraum.Zeitraum" xlink:actuate="onRequest" xlink:href="file:////home/runner/work/BO4E-python/BO4E-python/docs/../.tox/docs/tmp/html/api/bo4e.com.html#bo4e.com.zeitraum.Zeitraum" xlink:show="new" xlink:title="file:////home/runner/work/BO4E-python/BO4E-python/docs/../.tox/docs/tmp/html/api/bo4e.com.html#bo4e.com.zeitraum.Zeitraum" xlink:type="simple"><text fill="#0000FF" font-family="sans-serif" font-size="14" lengthAdjust="spacing" text-decoration="underline" textLength="64.4287" x="1203.0828" y="175.0251">Zeitraum</text></a><text fill="#000000" font-family="sans-serif" font-size="10" lengthAdjust="spacing" textLength="97.1143" x="1186.74" y="187.6091">bo4e.com.zeitraum</text></g><!--class COM--><g class="entity" data-entity="COM" data-source-line="18" data-uid="ent0007" id="entity_COM"><rect fill="#F1F1F1" height="37.9375" rx="2.5" ry="2.5" style="stroke:#181818;stroke-width:0.5;" width="106.0527" x="1169.27" y="230.03"/><ellipse cx="1184.27" cy="248.9987" fill="#ADD1B2" rx="11" ry="11" style="stroke:#181818;stroke-width:1;"/><path d="M1187.2388,254.6394 Q1186.6606,254.9362 1186.02,255.0769 Q1185.3794,255.2331 1184.6763,255.2331 Q1182.1763,255.2331 1180.8481,253.5925 Q1179.5356,251.9362 1179.5356,248.8112 Q1179.5356,245.6862 1180.8481,244.03 Q1182.1763,242.3737 1184.6763,242.3737 Q1185.3794,242.3737 1186.02,242.53 Q1186.6763,242.6862 1187.2388,242.9831 L1187.2388,245.7019 Q1186.6138,245.1237 1186.02,244.8581 Q1185.4263,244.5769 1184.8013,244.5769 Q1183.4575,244.5769 1182.77,245.655 Q1182.0825,246.7175 1182.0825,248.8112 Q1182.0825,250.905 1182.77,251.9831 Q1183.4575,253.0456 1184.8013,253.0456 Q1185.4263,253.0456 1186.02,252.78 Q1186.6138,252.4987 1187.2388,251.9206 L1187.2388,254.6394 Z " fill="#000000"/><a href="file:////home/runner/work/BO4E-python/BO4E-python/docs/../.tox/docs/tmp/html/api/bo4e.com.html#bo4e.com.com.COM" target="_top" title="file:////home/runner/work/BO4E-python/BO4E-python/docs/../.tox/docs/tmp/html/api/bo4e.com.html#bo4e.com.com.COM" xlink:actuate="onRequest" xlink:href="file:////home/runner/work/BO4E-python/BO4E-python/docs/../.tox/docs/tmp/html/api/bo4e.com.html#bo4e.com.com.COM" xlink:show="new" xlink:title="file:////home/runner/work/BO4E-python/BO4E-python/docs/../.tox/docs/tmp/html/api/bo4e.com.html#bo4e.com.com.COM" xlink:type="simple"><text fill="#0000FF" font-family="sans-serif" font-size="14" lengthAdjust="spacing" text-decoration="underline" textLength="32.874" x="1218.8594" y="248.0251">COM</text></a><text fill="#000000" font-family="sans-serif" font-size="10" lengthAdjust="spacing" textLength="74.0527" x="1198.27" y="260.6091">bo4e.com.com</text></g><!--class Adresse--><g class="entity" data-entity="Adresse" data-source-line="19" data-uid="ent0008" id="entity_Adresse"><rect fill="#F1F1F1" height="37.9375" rx="2.5" ry="2.5" style="stroke:#181818;stroke-width:0.5;" width="124.0068" x="1160.3" y="303.03"/><ellipse cx="1175.3" cy="321.9988" fill="#ADD1B2" rx="11" ry="11" style="stroke:#181818;stroke-width:1;"/><path d="M1178.2688,327.6394 Q1177.6906,327.9363 1177.05,328.0769 Q1176.4094,328.2331 1175.7063,328.2331 Q1173.2063,328.2331 1171.8781,326.5925 Q1170.5656,324.9363 1170.5656,321.8113 Q1170.5656,318.6863 1171.8781,317.03 Q1173.2063,315.3738 1175.7063,315.3738 Q1176.4094,315.3738 1177.05,315.53 Q1177.7063,315.6863 1178.2688,315.9831 L1178.2688,318.7019 Q1177.6438,318.1238 1177.05,317.8581 Q1176.4563,317.5769 1175.8313,317.5769 Q1174.4875,317.5769 1173.8,318.655 Q1173.1125,319.7175 1173.1125,321.8113 Q1173.1125,323.905 1173.8,324.9831 Q1174.4875,326.0456 1175.8313,326.0456 Q1176.4563,326.0456 1177.05,325.78 Q1177.6438,325.4988 1178.2688,324.9206 L1178.2688,327.6394 Z " fill="#000000"/><a href="file:////home/runner/work/BO4E-python/BO4E-python/docs/../.tox/docs/tmp/html/api/bo4e.com.html#bo4e.com.adresse.Adresse" target="_top" title="file:////home/runner/work/BO4E-python/BO4E-python/docs/../.tox/docs/tmp/html/api/bo4e.com.html#bo4e.com.adresse.Adresse" xlink:actuate="onRequest" xlink:href="file:////home/runner/work/BO4E-python/BO4E-python/docs/../.tox/docs/tmp/html/api/bo4e.com.html#bo4e.com.adresse.Adresse" xlink:show="new" xlink:title="file:////home/runner/work/BO4E-python/BO4E-python/docs/../.tox/docs/tmp/html/api/bo4e.com.html#bo4e.com.adresse.Adresse" xlink:type="simple"><text fill="#0000FF" font-family="sans-serif" font-size="14" lengthAdjust="spacing" text-decoration="underline" textLength="56.0342" x="1207.2863" y="321.0251">Adresse</text></a><text fill="#000000" font-family="sans-serif" font-size="10" lengthAdjust="spacing" textLength="92.0068" x="1189.3" y="333.6091">bo4e.com.adresse</text></g><!--class Zaehlertyp--><g class="entity" data-entity="Zaehlertyp" data-source-line="22" data-uid="ent0010" id="entity_Zaehlertyp"><rect fill="#F1F1F1" height="37.9375" rx="2.5" ry="2.5" style="stroke:#181818;stroke-width:0.5;" width="145.0029" x="1149.8" y="416.03"/><ellipse cx="1164.8" cy="434.9988" fill="#ADD1B2" rx="11" ry="11" style="stroke:#181818;stroke-width:1;"/><path d="M1167.7688,440.6394 Q1167.1906,440.9363 1166.55,441.0769 Q1165.9094,441.2331 1165.2063,441.2331 Q1162.7063,441.2331 1161.3781,439.5925 Q1160.0656,437.9363 1160.0656,434.8113 Q1160.0656,431.6863 1161.3781,430.03 Q1162.7063,428.3738 1165.2063,428.3738 Q1165.9094,428.3738 1166.55,428.53 Q1167.2063,428.6863 1167.7688,428.9831 L1167.7688,431.7019 Q1167.1438,431.1238 1166.55,430.8581 Q1165.9563,430.5769 1165.3313,430.5769 Q1163.9875,430.5769 1163.3,431.655 Q1162.6125,432.7175 1162.6125,434.8113 Q1162.6125,436.905 1163.3,437.9831 Q1163.9875,439.0456 1165.3313,439.0456 Q1165.9563,439.0456 1166.55,438.78 Q1167.1438,438.4988 1167.7688,437.9206 L1167.7688,440.6394 Z " fill="#000000"/><a href="file:////home/runner/work/BO4E-python/BO4E-python/docs/../.tox/docs/tmp/html/api/bo4e.enum.html#bo4e.enum.zaehlertyp.Zaehlertyp" target="_top" title="file:////home/runner/work/BO4E-python/BO4E-python/docs/../.tox/docs/tmp/html/api/bo4e.enum.html#bo4e.enum.zaehlertyp.Zaehlertyp" xlink:actuate="onRequest" xlink:href="file:////home/runner/work/BO4E-python/BO4E-python/docs/../.tox/docs/tmp/html/api/bo4e.enum.html#bo4e.enum.zaehlertyp.Zaehlertyp" xlink:show="new" xlink:title="file:////home/runner/work/BO4E-python/BO4E-python/docs/../.tox/docs/tmp/html/api/bo4e.enum.html#bo4e.enum.zaehlertyp.Zaehlertyp" xlink:type="simple"><text fill="#0000FF" font-family="sans-serif" font-size="14" lengthAdjust="spacing" text-decoration="underline" textLength="76.5762" x="1197.0134" y="434.0251">Zaehlertyp</text></a><text fill="#000000" font-family="sans-serif" font-size="10" lengthAdjust="spacing" textLength="113.0029" x="1178.8" y="446.6091">bo4e.enum.zaehlertyp</text></g><!--class Ausschreibungsdetail--><g class="entity" data-entity="Ausschreibungsdetail" data-source-line="3" data-uid="ent0002" id="entity_Ausschreibungsdetail"><rect fill="#F1F1F1" height="192.6094" rx="2.5" ry="2.5" style="stroke:#181818;stroke-width:0.5;" width="860.7979" x="7" y="136.7"/><ellipse cx="353.5762" cy="155.6688" fill="#ADD1B2" rx="11" ry="11" style="stroke:#181818;stroke-width:1;"/><path d="M356.5449,161.3094 Q355.9668,161.6063 355.3262,161.7469 Q354.6855,161.9031 353.9824,161.9031 Q351.4824,161.9031 350.1543,160.2625 Q348.8418,158.6063 348.8418,155.4813 Q348.8418,152.3563 350.1543,150.7 Q351.4824,149.0438 353.9824,149.0438 Q354.6855,149.0438 355.3262,149.2 Q355.9824,149.3563 356.5449,149.6531 L356.5449,152.3719 Q355.9199,151.7938 355.3262,151.5281 Q354.7324,151.2469 354.1074,151.2469 Q352.7637,151.2469 352.0762,152.325 Q351.3887,153.3875 351.3887,155.4813 Q351.3887,157.575 352.0762,158.6531 Q352.7637,159.7156 354.1074,159.7156 Q354.7324,159.7156 355.3262,159.45 Q355.9199,159.1688 356.5449,158.5906 L356.5449,161.3094 Z " fill="#000000"/><a href="file:////home/runner/work/BO4E-python/BO4E-python/docs/../.tox/docs/tmp/html/api/bo4e.com.html#bo4e.com.ausschreibungsdetail.Ausschreibungsdetail" target="_top" title="file:////home/runner/work/BO4E-python/BO4E-python/docs/../.tox/docs/tmp/html/api/bo4e.com.html#bo4e.com.ausschreibungsdetail.Ausschreibungsdetail" xlink:actuate="onRequest" xlink:href="file:////home/runner/work/BO4E-python/BO4E-python/docs/../.tox/docs/tmp/html/api/bo4e.com.html#bo4e.com.ausschreibungsdetail.Ausschreibungsdetail" xlink:show="new" xlink:title="file:////home/runner/work/BO4E-python/BO4E-python/docs/../.tox/docs/tmp/html/api/bo4e.com.html#bo4e.com.ausschreibungsdetail.Ausschreibungsdetail" xlink:type="simple"><text fill="#0000FF" font-family="sans-serif" font-size="14" lengthAdjust="spacing" text-decoration="underline" textLength="150.0283" x="378.6348" y="154.6951">Ausschreibungsdetail</text></a><text fill="#000000" font-family="sans-serif" font-size="10" lengthAdjust="spacing" textLength="159.1455" x="374.0762" y="167.2791">bo4e.com.ausschreibungsdetail</text><line style="stroke:#181818;stroke-width:0.5;" x1="8" x2="866.7979" y1="174.6375" y2="174.6375"/><text fill="#000000" font-family="sans-serif" font-size="14" lengthAdjust="spacing" textLength="848.7979" x="13" y="191.6326">_typ : Literal[&lt;ComTyp.AUSSCHREIBUNGSDETAIL: 'AUSSCHREIBUNGSDETAIL'&gt;] [1] = ComTyp.AUSSCHREIBUNGSDETAIL</text><text fill="#000000" font-family="sans-serif" font-size="14" lengthAdjust="spacing" textLength="249.2383" x="13" y="207.9295">marktlokationsId : str [0..1] = None</text><text fill="#000000" font-family="sans-serif" font-size="14" lengthAdjust="spacing" textLength="271.5576" x="13" y="224.2264">netzebeneLieferung : str [0..1] = None</text><text fill="#000000" font-family="sans-serif" font-size="14" lengthAdjust="spacing" textLength="267.2373" x="13" y="240.5232">netzebeneMessung : str [0..1] = None</text><text fill="#000000" font-family="sans-serif" font-size="14" lengthAdjust="spacing" textLength="226.2285" x="13" y="256.8201">netzbetreiber : str [0..1] = None</text><text fill="#000000" font-family="sans-serif" font-size="14" lengthAdjust="spacing" textLength="174.7539" x="13" y="273.117">kunde : str [0..1] = None</text><text fill="#000000" font-family="sans-serif" font-size="14" lengthAdjust="spacing" textLength="242.4639" x="13" y="289.4139">zaehlernummer : str [0..1] = None</text><text fill="#000000" font-family="sans-serif" font-size="14" lengthAdjust="spacing" textLength="325.6504" x="13" y="305.7107">marktlokationsbezeichnung : str [0..1] = None</text><text fill="#000000" font-family="sans-serif" font-size="14" lengthAdjust="spacing" textLength="300.4258" x="13" y="322.0076">istLastgangVorhanden : bool [0..1] = None</text></g><!--link Ausschreibungsdetail to COM--><g class="link" data-entity-1="Ausschreibungsdetail" data-entity-2="COM" data-source-line="25" data-uid="lnk11" id="link_Ausschreibungsdetail_COM"><path codeLine="25" d="M868.21,241.78 C988.81,244.25 1086.5038,246.2412 1150.9138,247.5612" fill="none" id="Ausschreibungsdetail-to-COM" style="stroke:#181818;stroke-width:1;"/><polygon fill="none" points="1168.91,247.93,1151.0367,241.5625,1150.7908,253.5599,1168.91,247.93" style="stroke:#181818;stroke-width:1;"/></g><!--link Ausschreibungsdetail to Adresse--><g class="link" data-entity-1="Ausschreibungsdetail" data-entity-2="Adresse" data-source-line="26" data-uid="lnk12" id="link_Ausschreibungsdetail_Adresse"><path codeLine="26" d="M868.21,281.86 C983.47,294.96 1082.3268,306.2048 1148.1368,313.6848" fill="none" id="Ausschreibungsdetail-to-Adresse" style="stroke:#181818;stroke-width:1;"/><polygon fill="#181818" points="1160.06,315.04,1154.5501,310.388,1148.1368,313.6848,1153.6467,318.3368,1160.06,315.04" style="stroke:#181818;stroke-width:1;"/><text fill="#000000" font-family="sans-serif" font-size="13" lengthAdjust="spacing" textLength="148.4399" x="921.8" y="282.0669">marktlokationsadresse</text><text fill="#000000" font-family="sans-serif" font-size="13" lengthAdjust="spacing" textLength="24.8066" x="1127.5222" y="327.1772">0..1</text></g><!--link Ausschreibungsdetail to Adresse--><g class="link" data-entity-1="Ausschreibungsdetail" data-entity-2="Adresse" data-source-line="27" data-uid="lnk13" id="link_Ausschreibungsdetail_Adresse"><path codeLine="27" d="M868.01,329.47 C878.02,330.76 887.96,331.94 897.8,333 C984.41,342.32 1006.77,336.75 1093.8,333 C1115.44,332.07 1127.1384,331.3262 1148.1284,329.4362" fill="none" id="Ausschreibungsdetail-to-Adresse-1" style="stroke:#181818;stroke-width:1;"/><polygon fill="#181818" points="1160.08,328.36,1153.7455,324.9142,1148.1284,329.4362,1154.4629,332.882,1160.08,328.36" style="stroke:#181818;stroke-width:1;"/><text fill="#000000" font-family="sans-serif" font-size="13" lengthAdjust="spacing" textLength="119.5771" x="936.3" y="329.0669">rechnungsadresse</text><text fill="#000000" font-family="sans-serif" font-size="13" lengthAdjust="spacing" textLength="24.8066" x="1127.5446" y="342.0373">0..1</text></g><!--link Ausschreibungsdetail to Zeitraum--><g class="link" data-entity-1="Ausschreibungsdetail" data-entity-2="Zeitraum" data-source-line="28" data-uid="lnk14" id="link_Ausschreibungsdetail_Zeitraum"><path codeLine="28" d="M868.28,228.19 C943.67,223.86 1021.2,217.16 1093.8,207 C1114.67,204.08 1125.4549,202.1168 1145.5949,197.1068" fill="none" id="Ausschreibungsdetail-to-Zeitraum" style="stroke:#181818;stroke-width:1;"/><polygon fill="#181818" points="1157.24,194.21,1150.4518,191.7767,1145.5949,197.1068,1152.3831,199.5401,1157.24,194.21" style="stroke:#181818;stroke-width:1;"/><text fill="#000000" font-family="sans-serif" font-size="13" lengthAdjust="spacing" textLength="90.8857" x="950.8" y="203.0669">lieferzeitraum</text><text fill="#000000" font-family="sans-serif" font-size="13" lengthAdjust="spacing" textLength="24.8066" x="1124.856" y="209.0963">0..1</text></g><!--link Ausschreibungsdetail to Zaehlertyp--><g class="link" data-entity-1="Ausschreibungsdetail" data-entity-2="Zaehlertyp" data-source-line="29" data-uid="lnk15" id="link_Ausschreibungsdetail_Zaehlertyp"><path codeLine="29" d="M768.34,329.73 C811.77,341.68 855.78,353.41 897.8,364 C983.8,385.68 1071.8562,404.5917 1137.6162,418.1217" fill="none" id="Ausschreibungsdetail-to-Zaehlertyp" style="stroke:#181818;stroke-width:1;"/><polygon fill="#181818" points="1149.37,420.54,1144.2992,415.4129,1137.6162,418.1217,1142.687,423.2488,1149.37,420.54" style="stroke:#181818;stroke-width:1;"/><text fill="#000000" font-family="sans-serif" font-size="13" lengthAdjust="spacing" textLength="95.8433" x="948.3" y="360.0669">zaehlertechnik</text><text fill="#000000" font-family="sans-serif" font-size="13" lengthAdjust="spacing" textLength="24.8066" x="1117.0493" y="431.9284">0..1</text></g><!--link Ausschreibungsdetail to Menge--><g class="link" data-entity-1="Ausschreibungsdetail" data-entity-2="Menge" data-source-line="30" data-uid="lnk16" id="link_Ausschreibungsdetail_Menge"><path codeLine="30" d="M666.02,136.23 C738.72,109.97 820.42,85.17 897.8,72 C983.67,57.39 1007.31,61.64 1093.8,72 C1116.42,74.71 1129.1971,77.0453 1150.5371,82.5253" fill="none" id="Ausschreibungsdetail-to-Menge" style="stroke:#181818;stroke-width:1;"/><polygon fill="#181818" points="1162.16,85.51,1157.3435,80.1434,1150.5371,82.5253,1155.3537,87.8919,1162.16,85.51" style="stroke:#181818;stroke-width:1;"/><text fill="#000000" font-family="sans-serif" font-size="13" lengthAdjust="spacing" textLength="139.1914" x="926.3" y="59.0669">prognoseJahresarbeit</text><text fill="#000000" font-family="sans-serif" font-size="13" lengthAdjust="spacing" textLength="24.8066" x="1129.8651" y="96.4296">0..1</text></g><!--link Ausschreibungsdetail to Menge--><g class="link" data-entity-1="Ausschreibungsdetail" data-entity-2="Menge" data-source-line="31" data-uid="lnk17" id="link_Ausschreibungsdetail_Menge"><path codeLine="31" d="M853.57,136.23 C868.47,133.64 883.25,131.22 897.8,129 C989.56,115 1085.213,108.8082 1150.283,105.7782" fill="none" id="Ausschreibungsdetail-to-Menge-1" style="stroke:#181818;stroke-width:1;"/><polygon fill="#181818" points="1162.27,105.22,1156.0904,101.5034,1150.283,105.7782,1156.4626,109.4948,1162.27,105.22" style="stroke:#181818;stroke-width:1;"/><text fill="#000000" font-family="sans-serif" font-size="13" lengthAdjust="spacing" textLength="194.4795" x="898.8" y="106.0669">prognoseArbeitLieferzeitraum</text><text fill="#000000" font-family="sans-serif" font-size="13" lengthAdjust="spacing" textLength="24.8066" x="1129.9878" y="118.4186">0..1</text></g><!--link Ausschreibungsdetail to Menge--><g class="link" data-entity-1="Ausschreibungsdetail" data-entity-2="Menge" data-source-line="32" data-uid="lnk18" id="link_Ausschreibungsdetail_Menge"><path codeLine="32" d="M868.07,188.48 C984.57,174.99 1082.17,161.71 1093.8,154 C1099.77,150.04 1096.21,144.48 1101.8,140 C1119.08,126.14 1129.9505,120.4863 1150.7505,115.0463" fill="none" id="Ausschreibungsdetail-to-Menge-2" style="stroke:#181818;stroke-width:1;"/><polygon fill="#181818" points="1162.36,112.01,1155.5431,109.6583,1150.7505,115.0463,1157.5674,117.398,1162.36,112.01" style="stroke:#181818;stroke-width:1;"/><text fill="#000000" font-family="sans-serif" font-size="13" lengthAdjust="spacing" textLength="116.2192" x="937.8" y="150.0669">prognoseLeistung</text><text fill="#000000" font-family="sans-serif" font-size="13" lengthAdjust="spacing" textLength="24.8066" x="1129.6411" y="126.0973">0..1</text></g><!--SRC=[nLLjRvim4FuSViKf-L1fKaogTLE5kaeqYxPCj9MMTX-QHPE12rZ1Dh8TTSss_pu3WRGToRPEQv0CT-Qvu-5yBndE3HW9YYMfWPWfZ0oJmd6YZ6eDtUbqpZBqN7kbagEhbaAWSc-bMhXdbqUZVdvdKYaUoB6Cj4k8IupyMYc6vsvgUERIdBcXF48IIKwAdLwZqQNMKQgGXKkHw1WDPHdnMpQXRNCs-onED5kXTpWutUcp2rItke1lJkUBkSl1Wu0PL3IRdWmblxhBYNyzcGpVVnoDpwultatUZgxySU31GTlsmUaCfeSpU0CxR9qEfsfXChcWHRJrEBOVrKR1T418QNmX1JeTWMQ58GeC6CxHnZxv3UuSjTw92j4KVusg7R9OYXZRNwqefXagiUHyc_N3dmfnXInAnLO-J9k0QfDGaNoIAgNsqy8YGocpHz0VZYCeHvtJ2Fz_JaAjpMPbijGgz4O3__Zri4YKPoyFZY91SbxSeRotPtm9ArcNe3qGjOTk55roShCMe1RQ6TVuadGDtGFlOWqlpy6kTg9sbHmjO0_qQAniRIFngoUidrlwNlMoQdMLR6le6Ke8RNkuLqE5Uh-82XrwyM7qyjNnCrHHmwQtKTTjpFPvSjE8i15_3UWZiofF6xNeJUrZgj__VjhqZYArjk0iy0LqYtxNtS3hO_RWOLDTd-pJNDdXNhRZftXfgjc3h1n6TTt-gPCoZFT2xa4Tqu8LM_mDcQeDUf0hcGYfyGErPfggq7Bw5pz-wI5uql-r-GlGpZXhv3WfitEL8xUJLpiwbRVGxdREC8lrJm00]--></g></svg>