<?xml version="1.0" encoding="us-ascii" standalone="no"?><svg xmlns="http://www.w3.org/2000/svg" xmlns:xlink="http://www.w3.org/1999/xlink" contentStyleType="text/css" height="755px" preserveAspectRatio="none" style="width:753px;height:755px;background:#FFFFFF;" version="1.1" viewBox="0 0 753 755" width="753px" zoomAndPan="magnify"><defs/><g><!--cluster bo4e--><g id="cluster_bo4e"><path d="M485.5,41.5659 L526.5,41.5659 A3.75,3.75 0 0 1 529,44.0659 L536,63.8628 L743.5,63.8628 A2.5,2.5 0 0 1 746,66.3628 L746,746.0659 A2.5,2.5 0 0 1 743.5,748.5659 L485.5,748.5659 A2.5,2.5 0 0 1 483,746.0659 L483,44.0659 A2.5,2.5 0 0 1 485.5,41.5659 " fill="none" style="stroke:#000000;stroke-width:1.5;"/><line style="stroke:#000000;stroke-width:1.5;" x1="483" x2="536" y1="63.8628" y2="63.8628"/><text fill="#000000" font-family="sans-serif" font-size="14" font-weight="bold" lengthAdjust="spacing" textLength="40" x="487" y="56.561">bo4e</text></g><!--cluster com--><g id="cluster_com"><path d="M509.5,84.5659 L588.5,84.5659 A3.75,3.75 0 0 1 591,87.0659 L598,106.8628 L719.5,106.8628 A2.5,2.5 0 0 1 722,109.3628 L722,390.0659 A2.5,2.5 0 0 1 719.5,392.5659 L509.5,392.5659 A2.5,2.5 0 0 1 507,390.0659 L507,87.0659 A2.5,2.5 0 0 1 509.5,84.5659 " fill="#E0A86C" style="stroke:#000000;stroke-width:1.5;"/><line style="stroke:#000000;stroke-width:1.5;" x1="507" x2="598" y1="106.8628" y2="106.8628"/><a href="https://bo4e.github.io/BO4E-python/latest/api/bo4e.com.html" target="_top" title="https://bo4e.github.io/BO4E-python/latest/api/bo4e.com.html" xlink:actuate="onRequest" xlink:href="https://bo4e.github.io/BO4E-python/latest/api/bo4e.com.html" xlink:show="new" xlink:title="https://bo4e.github.io/BO4E-python/latest/api/bo4e.com.html" xlink:type="simple"><text fill="#0000FF" font-family="sans-serif" font-size="14" font-weight="bold" lengthAdjust="spacing" text-decoration="underline" textLength="78" x="511" y="99.561">bo4e.com</text></a></g><!--cluster enum--><g id="cluster_enum"><path d="M515,416.5659 L605,416.5659 A3.75,3.75 0 0 1 607.5,419.0659 L614.5,438.8628 L714,438.8628 A2.5,2.5 0 0 1 716.5,441.3628 L716.5,722.0659 A2.5,2.5 0 0 1 714,724.5659 L515,724.5659 A2.5,2.5 0 0 1 512.5,722.0659 L512.5,419.0659 A2.5,2.5 0 0 1 515,416.5659 " fill="#D1C358" style="stroke:#000000;stroke-width:1.5;"/><line style="stroke:#000000;stroke-width:1.5;" x1="512.5" x2="614.5" y1="438.8628" y2="438.8628"/><a href="https://bo4e.github.io/BO4E-python/latest/api/bo4e.enum.html" target="_top" title="https://bo4e.github.io/BO4E-python/latest/api/bo4e.enum.html" xlink:actuate="onRequest" xlink:href="https://bo4e.github.io/BO4E-python/latest/api/bo4e.enum.html" xlink:show="new" xlink:title="https://bo4e.github.io/BO4E-python/latest/api/bo4e.enum.html" xlink:type="simple"><text fill="#0000FF" font-family="sans-serif" font-size="14" font-weight="bold" lengthAdjust="spacing" text-decoration="underline" textLength="89" x="516.5" y="431.561">bo4e.enum</text></a></g><!--class Zeitraum--><g id="elem_Zeitraum"><rect codeLine="12" fill="#F1F1F1" height="37.9375" id="Zeitraum" rx="2.5" ry="2.5" style="stroke:#181818;stroke-width:0.5;" width="126" x="551.5" y="119.5959"/><ellipse cx="566.5" cy="138.5647" fill="#ADD1B2" rx="11" ry="11" style="stroke:#181818;stroke-width:1.0;"/><path d="M569.4688,144.2053 Q568.8906,144.5022 568.25,144.6428 Q567.6094,144.799 566.9063,144.799 Q564.4063,144.799 563.0781,143.1584 Q561.7656,141.5022 561.7656,138.3772 Q561.7656,135.2522 563.0781,133.5959 Q564.4063,131.9397 566.9063,131.9397 Q567.6094,131.9397 568.25,132.0959 Q568.9063,132.2522 569.4688,132.549 L569.4688,135.2678 Q568.8438,134.6897 568.25,134.424 Q567.6563,134.1428 567.0313,134.1428 Q565.6875,134.1428 565,135.2209 Q564.3125,136.2834 564.3125,138.3772 Q564.3125,140.4709 565,141.549 Q565.6875,142.6115 567.0313,142.6115 Q567.6563,142.6115 568.25,142.3459 Q568.8438,142.0647 569.4688,141.4865 L569.4688,144.2053 Z " fill="#000000"/><a href="https://bo4e.github.io/BO4E-python/latest/api/bo4e.com.html#bo4e.com.zeitraum.Zeitraum" target="_top" title="https://bo4e.github.io/BO4E-python/latest/api/bo4e.com.html#bo4e.com.zeitraum.Zeitraum" xlink:actuate="onRequest" xlink:href="https://bo4e.github.io/BO4E-python/latest/api/bo4e.com.html#bo4e.com.zeitraum.Zeitraum" xlink:show="new" xlink:title="https://bo4e.github.io/BO4E-python/latest/api/bo4e.com.html#bo4e.com.zeitraum.Zeitraum" xlink:type="simple"><text fill="#0000FF" font-family="sans-serif" font-size="14" lengthAdjust="spacing" text-decoration="underline" textLength="62" x="596.5" y="137.591">Zeitraum</text></a><text fill="#000000" font-family="sans-serif" font-size="10" lengthAdjust="spacing" textLength="94" x="580.5" y="150.175">bo4e.com.zeitraum</text></g><!--class COM--><g id="elem_COM"><rect codeLine="13" fill="#F1F1F1" height="37.9375" id="COM" rx="2.5" ry="2.5" style="stroke:#181818;stroke-width:0.5;" width="104" x="562.5" y="192.5959"/><ellipse cx="577.5" cy="211.5647" fill="#ADD1B2" rx="11" ry="11" style="stroke:#181818;stroke-width:1.0;"/><path d="M580.4688,217.2053 Q579.8906,217.5022 579.25,217.6428 Q578.6094,217.799 577.9063,217.799 Q575.4063,217.799 574.0781,216.1584 Q572.7656,214.5022 572.7656,211.3772 Q572.7656,208.2522 574.0781,206.5959 Q575.4063,204.9397 577.9063,204.9397 Q578.6094,204.9397 579.25,205.0959 Q579.9063,205.2522 580.4688,205.549 L580.4688,208.2678 Q579.8438,207.6897 579.25,207.424 Q578.6563,207.1428 578.0313,207.1428 Q576.6875,207.1428 576,208.2209 Q575.3125,209.2834 575.3125,211.3772 Q575.3125,213.4709 576,214.549 Q576.6875,215.6115 578.0313,215.6115 Q578.6563,215.6115 579.25,215.3459 Q579.8438,215.0647 580.4688,214.4865 L580.4688,217.2053 Z " fill="#000000"/><a href="https://bo4e.github.io/BO4E-python/latest/api/bo4e.com.html#bo4e.com.com.COM" target="_top" title="https://bo4e.github.io/BO4E-python/latest/api/bo4e.com.html#bo4e.com.com.COM" xlink:actuate="onRequest" xlink:href="https://bo4e.github.io/BO4E-python/latest/api/bo4e.com.html#bo4e.com.com.COM" xlink:show="new" xlink:title="https://bo4e.github.io/BO4E-python/latest/api/bo4e.com.html#bo4e.com.com.COM" xlink:type="simple"><text fill="#0000FF" font-family="sans-serif" font-size="14" lengthAdjust="spacing" text-decoration="underline" textLength="33" x="611" y="210.591">COM</text></a><text fill="#000000" font-family="sans-serif" font-size="10" lengthAdjust="spacing" textLength="72" x="591.5" y="223.175">bo4e.com.com</text></g><!--class Ausschreibungsdetail--><g id="elem_Ausschreibungsdetail"><rect codeLine="14" fill="#F1F1F1" height="37.9375" id="Ausschreibungsdetail" rx="2.5" ry="2.5" style="stroke:#181818;stroke-width:0.5;" width="183" x="523" y="265.5959"/><ellipse cx="538" cy="284.5647" fill="#ADD1B2" rx="11" ry="11" style="stroke:#181818;stroke-width:1.0;"/><path d="M540.9688,290.2053 Q540.3906,290.5022 539.75,290.6428 Q539.1094,290.799 538.4063,290.799 Q535.9063,290.799 534.5781,289.1584 Q533.2656,287.5022 533.2656,284.3772 Q533.2656,281.2522 534.5781,279.5959 Q535.9063,277.9397 538.4063,277.9397 Q539.1094,277.9397 539.75,278.0959 Q540.4063,278.2522 540.9688,278.549 L540.9688,281.2678 Q540.3438,280.6897 539.75,280.424 Q539.1563,280.1428 538.5313,280.1428 Q537.1875,280.1428 536.5,281.2209 Q535.8125,282.2834 535.8125,284.3772 Q535.8125,286.4709 536.5,287.549 Q537.1875,288.6115 538.5313,288.6115 Q539.1563,288.6115 539.75,288.3459 Q540.3438,288.0647 540.9688,287.4865 L540.9688,290.2053 Z " fill="#000000"/><a href="https://bo4e.github.io/BO4E-python/latest/api/bo4e.com.html#bo4e.com.ausschreibungsdetail.Ausschreibungsdetail" target="_top" title="https://bo4e.github.io/BO4E-python/latest/api/bo4e.com.html#bo4e.com.ausschreibungsdetail.Ausschreibungsdetail" xlink:actuate="onRequest" xlink:href="https://bo4e.github.io/BO4E-python/latest/api/bo4e.com.html#bo4e.com.ausschreibungsdetail.Ausschreibungsdetail" xlink:show="new" xlink:title="https://bo4e.github.io/BO4E-python/latest/api/bo4e.com.html#bo4e.com.ausschreibungsdetail.Ausschreibungsdetail" xlink:type="simple"><text fill="#0000FF" font-family="sans-serif" font-size="14" lengthAdjust="spacing" text-decoration="underline" textLength="149" x="553" y="283.591">Ausschreibungsdetail</text></a><text fill="#000000" font-family="sans-serif" font-size="10" lengthAdjust="spacing" textLength="151" x="552" y="296.175">bo4e.com.ausschreibungsdetail</text></g><!--class Menge--><g id="elem_Menge"><rect codeLine="15" fill="#F1F1F1" height="37.9375" id="Menge" rx="2.5" ry="2.5" style="stroke:#181818;stroke-width:0.5;" width="117" x="556" y="338.5959"/><ellipse cx="571" cy="357.5647" fill="#ADD1B2" rx="11" ry="11" style="stroke:#181818;stroke-width:1.0;"/><path d="M573.9688,363.2053 Q573.3906,363.5022 572.75,363.6428 Q572.1094,363.799 571.4063,363.799 Q568.9063,363.799 567.5781,362.1584 Q566.2656,360.5022 566.2656,357.3772 Q566.2656,354.2522 567.5781,352.5959 Q568.9063,350.9397 571.4063,350.9397 Q572.1094,350.9397 572.75,351.0959 Q573.4063,351.2522 573.9688,351.549 L573.9688,354.2678 Q573.3438,353.6897 572.75,353.424 Q572.1563,353.1428 571.5313,353.1428 Q570.1875,353.1428 569.5,354.2209 Q568.8125,355.2834 568.8125,357.3772 Q568.8125,359.4709 569.5,360.549 Q570.1875,361.6115 571.5313,361.6115 Q572.1563,361.6115 572.75,361.3459 Q573.3438,361.0647 573.9688,360.4865 L573.9688,363.2053 Z " fill="#000000"/><a href="https://bo4e.github.io/BO4E-python/latest/api/bo4e.com.html#bo4e.com.menge.Menge" target="_top" title="https://bo4e.github.io/BO4E-python/latest/api/bo4e.com.html#bo4e.com.menge.Menge" xlink:actuate="onRequest" xlink:href="https://bo4e.github.io/BO4E-python/latest/api/bo4e.com.html#bo4e.com.menge.Menge" xlink:show="new" xlink:title="https://bo4e.github.io/BO4E-python/latest/api/bo4e.com.html#bo4e.com.menge.Menge" xlink:type="simple"><text fill="#0000FF" font-family="sans-serif" font-size="14" lengthAdjust="spacing" text-decoration="underline" textLength="48" x="603.5" y="356.591">Menge</text></a><text fill="#000000" font-family="sans-serif" font-size="10" lengthAdjust="spacing" textLength="85" x="585" y="369.175">bo4e.com.menge</text></g><!--class Preismodell--><g id="elem_Preismodell"><rect codeLine="18" fill="#F1F1F1" height="37.9375" id="Preismodell" rx="2.5" ry="2.5" style="stroke:#181818;stroke-width:0.5;" width="145" x="542" y="451.5959"/><ellipse cx="557" cy="470.5647" fill="#ADD1B2" rx="11" ry="11" style="stroke:#181818;stroke-width:1.0;"/><path d="M559.9688,476.2053 Q559.3906,476.5022 558.75,476.6428 Q558.1094,476.799 557.4063,476.799 Q554.9063,476.799 553.5781,475.1584 Q552.2656,473.5022 552.2656,470.3772 Q552.2656,467.2522 553.5781,465.5959 Q554.9063,463.9397 557.4063,463.9397 Q558.1094,463.9397 558.75,464.0959 Q559.4063,464.2522 559.9688,464.549 L559.9688,467.2678 Q559.3438,466.6897 558.75,466.424 Q558.1563,466.1428 557.5313,466.1428 Q556.1875,466.1428 555.5,467.2209 Q554.8125,468.2834 554.8125,470.3772 Q554.8125,472.4709 555.5,473.549 Q556.1875,474.6115 557.5313,474.6115 Q558.1563,474.6115 558.75,474.3459 Q559.3438,474.0647 559.9688,473.4865 L559.9688,476.2053 Z " fill="#000000"/><a href="https://bo4e.github.io/BO4E-python/latest/api/bo4e.enum.html#bo4e.enum.preismodell.Preismodell" target="_top" title="https://bo4e.github.io/BO4E-python/latest/api/bo4e.enum.html#bo4e.enum.preismodell.Preismodell" xlink:actuate="onRequest" xlink:href="https://bo4e.github.io/BO4E-python/latest/api/bo4e.enum.html#bo4e.enum.preismodell.Preismodell" xlink:show="new" xlink:title="https://bo4e.github.io/BO4E-python/latest/api/bo4e.enum.html#bo4e.enum.preismodell.Preismodell" xlink:type="simple"><text fill="#0000FF" font-family="sans-serif" font-size="14" lengthAdjust="spacing" text-decoration="underline" textLength="80" x="587.5" y="469.591">Preismodell</text></a><text fill="#000000" font-family="sans-serif" font-size="10" lengthAdjust="spacing" textLength="113" x="571" y="482.175">bo4e.enum.preismodell</text></g><!--class Vertragsform--><g id="elem_Vertragsform"><rect codeLine="19" fill="#F1F1F1" height="37.9375" id="Vertragsform" rx="2.5" ry="2.5" style="stroke:#181818;stroke-width:0.5;" width="155" x="537" y="524.5959"/><ellipse cx="552" cy="543.5647" fill="#ADD1B2" rx="11" ry="11" style="stroke:#181818;stroke-width:1.0;"/><path d="M554.9688,549.2053 Q554.3906,549.5022 553.75,549.6428 Q553.1094,549.799 552.4063,549.799 Q549.9063,549.799 548.5781,548.1584 Q547.2656,546.5022 547.2656,543.3772 Q547.2656,540.2522 548.5781,538.5959 Q549.9063,536.9397 552.4063,536.9397 Q553.1094,536.9397 553.75,537.0959 Q554.4063,537.2522 554.9688,537.549 L554.9688,540.2678 Q554.3438,539.6897 553.75,539.424 Q553.1563,539.1428 552.5313,539.1428 Q551.1875,539.1428 550.5,540.2209 Q549.8125,541.2834 549.8125,543.3772 Q549.8125,545.4709 550.5,546.549 Q551.1875,547.6115 552.5313,547.6115 Q553.1563,547.6115 553.75,547.3459 Q554.3438,547.0647 554.9688,546.4865 L554.9688,549.2053 Z " fill="#000000"/><a href="https://bo4e.github.io/BO4E-python/latest/api/bo4e.enum.html#bo4e.enum.vertragsform.Vertragsform" target="_top" title="https://bo4e.github.io/BO4E-python/latest/api/bo4e.enum.html#bo4e.enum.vertragsform.Vertragsform" xlink:actuate="onRequest" xlink:href="https://bo4e.github.io/BO4E-python/latest/api/bo4e.enum.html#bo4e.enum.vertragsform.Vertragsform" xlink:show="new" xlink:title="https://bo4e.github.io/BO4E-python/latest/api/bo4e.enum.html#bo4e.enum.vertragsform.Vertragsform" xlink:type="simple"><text fill="#0000FF" font-family="sans-serif" font-size="14" lengthAdjust="spacing" text-decoration="underline" textLength="89" x="583" y="542.591">Vertragsform</text></a><text fill="#000000" font-family="sans-serif" font-size="10" lengthAdjust="spacing" textLength="123" x="566" y="555.175">bo4e.enum.vertragsform</text></g><!--class Sparte--><g id="elem_Sparte"><rect codeLine="20" fill="#F1F1F1" height="37.9375" id="Sparte" rx="2.5" ry="2.5" style="stroke:#181818;stroke-width:0.5;" width="121" x="554" y="597.5959"/><ellipse cx="569" cy="616.5647" fill="#ADD1B2" rx="11" ry="11" style="stroke:#181818;stroke-width:1.0;"/><path d="M571.9688,622.2053 Q571.3906,622.5022 570.75,622.6428 Q570.1094,622.799 569.4063,622.799 Q566.9063,622.799 565.5781,621.1584 Q564.2656,619.5022 564.2656,616.3772 Q564.2656,613.2522 565.5781,611.5959 Q566.9063,609.9397 569.4063,609.9397 Q570.1094,609.9397 570.75,610.0959 Q571.4063,610.2522 571.9688,610.549 L571.9688,613.2678 Q571.3438,612.6897 570.75,612.424 Q570.1563,612.1428 569.5313,612.1428 Q568.1875,612.1428 567.5,613.2209 Q566.8125,614.2834 566.8125,616.3772 Q566.8125,618.4709 567.5,619.549 Q568.1875,620.6115 569.5313,620.6115 Q570.1563,620.6115 570.75,620.3459 Q571.3438,620.0647 571.9688,619.4865 L571.9688,622.2053 Z " fill="#000000"/><a href="https://bo4e.github.io/BO4E-python/latest/api/bo4e.enum.html#bo4e.enum.sparte.Sparte" target="_top" title="https://bo4e.github.io/BO4E-python/latest/api/bo4e.enum.html#bo4e.enum.sparte.Sparte" xlink:actuate="onRequest" xlink:href="https://bo4e.github.io/BO4E-python/latest/api/bo4e.enum.html#bo4e.enum.sparte.Sparte" xlink:show="new" xlink:title="https://bo4e.github.io/BO4E-python/latest/api/bo4e.enum.html#bo4e.enum.sparte.Sparte" xlink:type="simple"><text fill="#0000FF" font-family="sans-serif" font-size="14" lengthAdjust="spacing" text-decoration="underline" textLength="45" x="605" y="615.591">Sparte</text></a><text fill="#000000" font-family="sans-serif" font-size="10" lengthAdjust="spacing" textLength="89" x="583" y="628.175">bo4e.enum.sparte</text></g><!--class Rechnungslegung--><g id="elem_Rechnungslegung"><rect codeLine="21" fill="#F1F1F1" height="37.9375" id="Rechnungslegung" rx="2.5" ry="2.5" style="stroke:#181818;stroke-width:0.5;" width="172" x="528.5" y="670.5959"/><ellipse cx="543.5" cy="689.5647" fill="#ADD1B2" rx="11" ry="11" style="stroke:#181818;stroke-width:1.0;"/><path d="M546.4688,695.2053 Q545.8906,695.5022 545.25,695.6428 Q544.6094,695.799 543.9063,695.799 Q541.4063,695.799 540.0781,694.1584 Q538.7656,692.5022 538.7656,689.3772 Q538.7656,686.2522 540.0781,684.5959 Q541.4063,682.9397 543.9063,682.9397 Q544.6094,682.9397 545.25,683.0959 Q545.9063,683.2522 546.4688,683.549 L546.4688,686.2678 Q545.8438,685.6897 545.25,685.424 Q544.6563,685.1428 544.0313,685.1428 Q542.6875,685.1428 542,686.2209 Q541.3125,687.2834 541.3125,689.3772 Q541.3125,691.4709 542,692.549 Q542.6875,693.6115 544.0313,693.6115 Q544.6563,693.6115 545.25,693.3459 Q545.8438,693.0647 546.4688,692.4865 L546.4688,695.2053 Z " fill="#000000"/><a href="https://bo4e.github.io/BO4E-python/latest/api/bo4e.enum.html#bo4e.enum.rechnungslegung.Rechnungslegung" target="_top" title="https://bo4e.github.io/BO4E-python/latest/api/bo4e.enum.html#bo4e.enum.rechnungslegung.Rechnungslegung" xlink:actuate="onRequest" xlink:href="https://bo4e.github.io/BO4E-python/latest/api/bo4e.enum.html#bo4e.enum.rechnungslegung.Rechnungslegung" xlink:show="new" xlink:title="https://bo4e.github.io/BO4E-python/latest/api/bo4e.enum.html#bo4e.enum.rechnungslegung.Rechnungslegung" xlink:type="simple"><text fill="#0000FF" font-family="sans-serif" font-size="14" lengthAdjust="spacing" text-decoration="underline" textLength="128" x="563.5" y="688.591">Rechnungslegung</text></a><text fill="#000000" font-family="sans-serif" font-size="10" lengthAdjust="spacing" textLength="140" x="557.5" y="701.175">bo4e.enum.rechnungslegung</text></g><!--class Ausschreibungslos--><g id="elem_Ausschreibungslos"><rect codeLine="3" fill="#F1F1F1" height="127.4219" id="Ausschreibungslos" rx="2.5" ry="2.5" style="stroke:#181818;stroke-width:0.5;" width="267" x="7" y="267.8559"/><ellipse cx="67.25" cy="286.8247" fill="#ADD1B2" rx="11" ry="11" style="stroke:#181818;stroke-width:1.0;"/><path d="M70.2188,292.4653 Q69.6406,292.7622 69,292.9028 Q68.3594,293.059 67.6563,293.059 Q65.1563,293.059 63.8281,291.4184 Q62.5156,289.7622 62.5156,286.6372 Q62.5156,283.5122 63.8281,281.8559 Q65.1563,280.1997 67.6563,280.1997 Q68.3594,280.1997 69,280.3559 Q69.6563,280.5122 70.2188,280.809 L70.2188,283.5278 Q69.5938,282.9497 69,282.684 Q68.4063,282.4028 67.7813,282.4028 Q66.4375,282.4028 65.75,283.4809 Q65.0625,284.5434 65.0625,286.6372 Q65.0625,288.7309 65.75,289.809 Q66.4375,290.8715 67.7813,290.8715 Q68.4063,290.8715 69,290.6059 Q69.5938,290.3247 70.2188,289.7465 L70.2188,292.4653 Z " fill="#000000"/><a href="https://bo4e.github.io/BO4E-python/latest/api/bo4e.com.html#bo4e.com.ausschreibungslos.Ausschreibungslos" target="_top" title="https://bo4e.github.io/BO4E-python/latest/api/bo4e.com.html#bo4e.com.ausschreibungslos.Ausschreibungslos" xlink:actuate="onRequest" xlink:href="https://bo4e.github.io/BO4E-python/latest/api/bo4e.com.html#bo4e.com.ausschreibungslos.Ausschreibungslos" xlink:show="new" xlink:title="https://bo4e.github.io/BO4E-python/latest/api/bo4e.com.html#bo4e.com.ausschreibungslos.Ausschreibungslos" xlink:type="simple"><text fill="#0000FF" font-family="sans-serif" font-size="14" lengthAdjust="spacing" text-decoration="underline" textLength="132" x="90.75" y="285.851">Ausschreibungslos</text></a><text fill="#000000" font-family="sans-serif" font-size="10" lengthAdjust="spacing" textLength="138" x="87.75" y="298.435">bo4e.com.ausschreibungslos</text><line style="stroke:#181818;stroke-width:0.5;" x1="8" x2="273" y1="305.7934" y2="305.7934"/><text fill="#000000" font-family="sans-serif" font-size="14" lengthAdjust="spacing" textLength="206" x="13" y="322.7885">losnummer : str [0..1] = None</text><text fill="#000000" font-family="sans-serif" font-size="14" lengthAdjust="spacing" textLength="219" x="13" y="339.0854">bezeichnung : str [0..1] = None</text><text fill="#000000" font-family="sans-serif" font-size="14" lengthAdjust="spacing" textLength="221" x="13" y="355.3823">betreutDurch : str [0..1] = None</text><text fill="#000000" font-family="sans-serif" font-size="14" lengthAdjust="spacing" textLength="255" x="13" y="371.6792">anzahlLieferstellen : int [0..1] = None</text><text fill="#000000" font-family="sans-serif" font-size="14" lengthAdjust="spacing" textLength="208" x="13" y="387.976">bemerkung : str [0..1] = None</text></g><!--link Ausschreibungslos to COM--><g id="link_Ausschreibungslos_COM"><path codeLine="24" d="M274.09,284.3259 C284.16,281.2159 294.22,278.2559 304,275.5659 C393.69,250.9459 482.5568,233.9634 544.3568,223.2034 " fill="none" id="Ausschreibungslos-to-COM" style="stroke:#181818;stroke-width:1.0;"/><polygon fill="none" points="562.09,220.1159,543.3276,217.2924,545.386,229.1145,562.09,220.1159" style="stroke:#181818;stroke-width:1.0;"/></g><!--link Ausschreibungslos to Preismodell--><g id="link_Ausschreibungslos_Preismodell"><path codeLine="25" d="M218.97,395.5559 C244.58,413.4359 274.18,430.8759 304,441.5659 C381.85,469.4759 465.4105,474.4744 529.5705,473.8944 " fill="none" id="Ausschreibungslos-to-Preismodell" style="stroke:#181818;stroke-width:1.0;"/><polygon fill="#181818" points="541.57,473.7859,535.5341,469.8403,529.5705,473.8944,535.6064,477.84,541.57,473.7859" style="stroke:#181818;stroke-width:1.0;"/><text fill="#000000" font-family="sans-serif" font-size="13" lengthAdjust="spacing" textLength="74" x="348.5" y="437.6328">preismodell</text><text fill="#000000" font-family="sans-serif" font-size="13" lengthAdjust="spacing" textLength="24" x="510.0059" y="486.8136">0..1</text></g><!--link Ausschreibungslos to Sparte--><g id="link_Ausschreibungslos_Sparte"><path codeLine="26" d="M168.44,395.6259 C194.78,449.9459 240.24,525.2759 304,565.5659 C380.3,613.7859 475.5412,621.1183 541.6712,620.1683 " fill="none" id="Ausschreibungslos-to-Sparte" style="stroke:#181818;stroke-width:1.0;"/><polygon fill="#181818" points="553.67,619.9959,547.6132,616.0825,541.6712,620.1683,547.7281,624.0817,553.67,619.9959" style="stroke:#181818;stroke-width:1.0;"/><text fill="#000000" font-family="sans-serif" font-size="13" lengthAdjust="spacing" textLength="66" x="352.5" y="561.6328">energieart</text><text fill="#000000" font-family="sans-serif" font-size="13" lengthAdjust="spacing" textLength="24" x="522.1594" y="633.1969">0..1</text></g><!--link Ausschreibungslos to Rechnungslegung--><g id="link_Ausschreibungslos_Rechnungslegung"><path codeLine="27" d="M156.56,395.5459 C177.06,467.5659 221.09,582.2659 304,641.5659 C369.01,688.0659 449.4109,697.1448 516.3109,696.3148 " fill="none" id="Ausschreibungslos-to-Rechnungslegung" style="stroke:#181818;stroke-width:1.0;"/><polygon fill="#181818" points="528.31,696.1659,522.2608,692.2407,516.3109,696.3148,522.3601,700.24,528.31,696.1659" style="stroke:#181818;stroke-width:1.0;"/><text fill="#000000" font-family="sans-serif" font-size="13" lengthAdjust="spacing" textLength="160" x="305.5" y="637.6328">wunschRechnungslegung</text><text fill="#000000" font-family="sans-serif" font-size="13" lengthAdjust="spacing" textLength="24" x="496.4855" y="709.3618">0..1</text></g><!--link Ausschreibungslos to Vertragsform--><g id="link_Ausschreibungslos_Vertragsform"><path codeLine="28" d="M187.69,395.6959 C216.9,431.2759 257.8,472.9859 304,496.5659 C376.98,533.8059 459.3339,543.1807 524.5839,544.8407 " fill="none" id="Ausschreibungslos-to-Vertragsform" style="stroke:#181818;stroke-width:1.0;"/><polygon fill="#181818" points="536.58,545.1459,530.6837,540.9946,524.5839,544.8407,530.4802,548.992,536.58,545.1459" style="stroke:#181818;stroke-width:1.0;"/><text fill="#000000" font-family="sans-serif" font-size="13" lengthAdjust="spacing" textLength="132" x="319.5" y="492.6328">wunschVertragsform</text><text fill="#000000" font-family="sans-serif" font-size="13" lengthAdjust="spacing" textLength="24" x="505.1335" y="557.9704">0..1</text></g><!--link Ausschreibungslos to Ausschreibungsdetail--><g id="link_Ausschreibungslos_Ausschreibungsdetail"><path codeLine="29" d="M274.23,318.3459 C353.58,310.4459 440.3891,301.8056 510.8491,294.7856 " fill="none" id="Ausschreibungslos-to-Ausschreibungsdetail" style="stroke:#181818;stroke-width:1.0;"/><polygon fill="#181818" points="522.79,293.5959,516.423,290.2105,510.8491,294.7856,517.2161,298.1711,522.79,293.5959" style="stroke:#181818;stroke-width:1.0;"/><text fill="#000000" font-family="sans-serif" font-size="13" lengthAdjust="spacing" textLength="73" x="349" y="296.6328">lieferstellen</text><text fill="#000000" font-family="sans-serif" font-size="13" lengthAdjust="spacing" textLength="23" x="491.888" y="306.9336">0..*</text></g><!--link Ausschreibungslos to Zeitraum--><g id="link_Ausschreibungslos_Zeitraum"><path codeLine="30" d="M157.28,267.5259 C178.07,198.5759 222.01,92.3659 304,44.5659 C366.59,8.0759 397.48,24.1859 467,44.5659 C516.59,59.1059 556.1722,88.3642 583.0522,111.3642 " fill="none" id="Ausschreibungslos-to-Zeitraum" style="stroke:#181818;stroke-width:1.0;"/><polygon fill="#181818" points="592.17,119.1659,590.2117,112.2258,583.0522,111.3642,585.0106,118.3043,592.17,119.1659" style="stroke:#181818;stroke-width:1.0;"/><text fill="#000000" font-family="sans-serif" font-size="13" lengthAdjust="spacing" textLength="88" x="341.5" y="19.6328">lieferzeitraum</text><text fill="#000000" font-family="sans-serif" font-size="13" lengthAdjust="spacing" textLength="24" x="558.5147" y="108.6862">0..1</text></g><!--link Ausschreibungslos to Zeitraum--><g id="link_Ausschreibungslos_Zeitraum"><path codeLine="31" d="M166.49,267.6159 C191.92,212.3859 237.14,136.1959 304,101.5659 C390.86,56.5859 498.256,88.9916 560.416,114.6216 " fill="none" id="Ausschreibungslos-to-Zeitraum-1" style="stroke:#181818;stroke-width:1.0;"/><polygon fill="#181818" points="571.51,119.1959,567.4878,113.2108,560.416,114.6216,564.4383,120.6068,571.51,119.1959" style="stroke:#181818;stroke-width:1.0;"/><text fill="#000000" font-family="sans-serif" font-size="13" lengthAdjust="spacing" textLength="141" x="315" y="76.6328">wiederholungsintervall</text><text fill="#000000" font-family="sans-serif" font-size="13" lengthAdjust="spacing" textLength="24" x="531.3567" y="108.3896">0..1</text></g><!--link Ausschreibungslos to Zeitraum--><g id="link_Ausschreibungslos_Zeitraum"><path codeLine="32" d="M182.69,267.6259 C211.56,228.7559 253.87,182.2059 304,158.5659 C346.31,138.6159 461.7605,136.4245 539.2905,137.1445 " fill="none" id="Ausschreibungslos-to-Zeitraum-2" style="stroke:#181818;stroke-width:1.0;"/><polygon fill="#181818" points="551.29,137.2559,545.3274,133.2004,539.2905,137.1445,545.2531,141.2,551.29,137.2559" style="stroke:#181818;stroke-width:1.0;"/><text fill="#000000" font-family="sans-serif" font-size="13" lengthAdjust="spacing" textLength="161" x="305" y="134.6328">wunschKuendingungsfrist</text><text fill="#000000" font-family="sans-serif" font-size="13" lengthAdjust="spacing" textLength="24" x="519.534" y="133.4213">0..1</text></g><!--link Ausschreibungslos to Zeitraum--><g id="link_Ausschreibungslos_Zeitraum"><path codeLine="33" d="M236.29,267.4459 C257.96,254.4459 281.3,241.6759 304,231.5659 C372.99,200.8359 402.07,222.1259 467,183.5659 C471.32,180.9959 470.64,178.0759 475,175.5659 C498.18,162.1959 514.5998,156.1571 539.4398,150.5971 " fill="none" id="Ausschreibungslos-to-Zeitraum-3" style="stroke:#181818;stroke-width:1.0;"/><polygon fill="#181818" points="551.15,147.9759,544.4212,145.3831,539.4398,150.5971,546.1686,153.1899,551.15,147.9759" style="stroke:#181818;stroke-width:1.0;"/><text fill="#000000" font-family="sans-serif" font-size="13" lengthAdjust="spacing" textLength="128" x="321.5" y="179.6328">wunschZahlungsziel</text><text fill="#000000" font-family="sans-serif" font-size="13" lengthAdjust="spacing" textLength="24" x="519.3795" y="161.7936">0..1</text></g><!--link Ausschreibungslos to Menge--><g id="link_Ausschreibungslos_Menge"><path codeLine="34" d="M274.23,338.8759 C366.94,343.9859 474.1482,349.885 543.7682,353.725 " fill="none" id="Ausschreibungslos-to-Menge" style="stroke:#181818;stroke-width:1.0;"/><polygon fill="#181818" points="555.75,354.3859,549.9794,350.0616,543.7682,353.725,549.5388,358.0494,555.75,354.3859" style="stroke:#181818;stroke-width:1.0;"/><text fill="#000000" font-family="sans-serif" font-size="13" lengthAdjust="spacing" textLength="92" x="339.5" y="337.6328">gesamtMenge</text><text fill="#000000" font-family="sans-serif" font-size="13" lengthAdjust="spacing" textLength="24" x="524.0117" y="350.2921">0..1</text></g><!--link Ausschreibungslos to Menge--><g id="link_Ausschreibungslos_Menge"><path codeLine="35" d="M274.41,369.6959 C284.37,371.6359 294.31,373.3059 304,374.5659 C375.84,383.9059 394.68,378.7459 467,374.5659 C496.27,372.8759 516.7571,370.8198 543.6271,367.3798 " fill="none" id="Ausschreibungslos-to-Menge-1" style="stroke:#181818;stroke-width:1.0;"/><polygon fill="#181818" points="555.53,365.8559,549.0706,362.6502,543.6271,367.3798,550.0865,370.5855,555.53,365.8559" style="stroke:#181818;stroke-width:1.0;"/><text fill="#000000" font-family="sans-serif" font-size="13" lengthAdjust="spacing" textLength="142" x="314.5" y="370.6328">wunschMindestmenge</text><text fill="#000000" font-family="sans-serif" font-size="13" lengthAdjust="spacing" textLength="24" x="524.2112" y="379.5581">0..1</text></g><!--link Ausschreibungslos to Menge--><g id="link_Ausschreibungslos_Menge"><path codeLine="36" d="M269.28,395.7259 C280.81,399.6859 292.49,403.0659 304,405.5659 C374.8,420.9259 395.46,416.9859 467,405.5659 C501.36,400.0759 527.3827,392.0488 555.7227,381.2788 " fill="none" id="Ausschreibungslos-to-Menge-2" style="stroke:#181818;stroke-width:1.0;"/><polygon fill="#181818" points="566.94,377.0159,559.9104,375.4083,555.7227,381.2788,562.7523,382.8865,566.94,377.0159" style="stroke:#181818;stroke-width:1.0;"/><text fill="#000000" font-family="sans-serif" font-size="13" lengthAdjust="spacing" textLength="145" x="313" y="401.6328">wunschMaximalmenge</text><text fill="#000000" font-family="sans-serif" font-size="13" lengthAdjust="spacing" textLength="24" x="556.9388" y="396.6815">0..1</text></g><!--SRC=[hLPTRzCm57rUViLL-pPfRYi6cYAODCQUe0o1nCDA7zpaDhRmHsKxAnJuxpZEqgPfYiAQXzI-xhd79zV7TWGk7JWDXcVCGSeD9evh5KM9eDR2O3PZpgriF1ejz2MIZ3kMBmZNexVtbtSNgv-EQJKIrA5r8xhY9IhHaZ0dnN0RqTpQX1daYrnbLcXBRfeZS30odtzJhotVO3mPNn-d6W1jIOPVqPblL2ub6eZ1EWEpCI6JERo1ZrfXTBR03VA4APzn3E0CvkvTRXBMZg1gGvdum769nZeK0fK7SkKEgRoCxyTc-XD5YagqAvhWYJM7AfhFGs6g48PtuvkhLxT5NVfTMrz4PsWkoSDJ1wfE-m9M-22lWlOjgdXkxwVWdtOL_Wa2FA3lkVSTcgAZN3JyNWv2ss0NrvV85kENV_JzGX9LXcHQ_4BuRTSOO45K07bNdsfgzDktvkeYhDkwY66OJf8NBwzEzVLsgk4kNFcoMgbJlw_9frqVQlt3IZGpWznQHlyo7z7uFPJPfJQIVAq5K0-EAAqd1wdrdFwrUZSOX-HBQA1iZYWheK5JYUjVZR_jml5l1MQ-8P_tOsZ4HuGsM8BYHcPnmhTSUHSNlw-t9tHnNhM1FEeS1iLzCTZPVi-FCTJyrftYQH5YG8Kcu-YZxidDKiMmpfNFRBvuPy8zurPiUsRy5zNvO5V7rgCs1b6_fJlfAiYsbrf5K5rVps5OSqpHC2sA1F-LWEQHTbon9bCep_iSLSfLKMYxDDowvrCz-E-O8cF3iRkWyag88KDBfIjF_V_DBQUVSfNwxIfFeQ0_kAIYf8WOJn4aoeLVyiWolOOMrgL_sTJ-1G00]--></g></svg>