<svg xmlns="http://www.w3.org/2000/svg" xmlns:xlink="http://www.w3.org/1999/xlink" contentStyleType="text/css" data-diagram-type="CLASS" height="767px" preserveAspectRatio="none" style="width:1295px;height:767px;background:#FFFFFF;" version="1.1" viewBox="0 0 1295 767" width="1295px" zoomAndPan="magnify"><defs/><g><!--cluster bo4e--><g class="cluster" data-entity="bo4e" data-source-line="13" data-uid="ent0005" id="cluster_bo4e"><path d="M1019.37,53.5659 L1059.246,53.5659 A3.75,3.75 0 0 1 1061.746,56.0659 L1068.746,75.8628 L1285.51,75.8628 A2.5,2.5 0 0 1 1288.01,78.3628 L1288.01,758.0659 A2.5,2.5 0 0 1 1285.51,760.5659 L1019.37,760.5659 A2.5,2.5 0 0 1 1016.87,758.0659 L1016.87,56.0659 A2.5,2.5 0 0 1 1019.37,53.5659" fill="none" style="stroke:#000000;stroke-width:1.5;"/><line style="stroke:#000000;stroke-width:1.5;" x1="1016.87" x2="1068.746" y1="75.8628" y2="75.8628"/><text fill="#000000" font-family="sans-serif" font-size="14" font-weight="bold" lengthAdjust="spacing" textLength="38.876" x="1020.87" y="68.561">bo4e</text></g><!--cluster com--><g class="cluster" data-entity="com" data-source-line="12" data-uid="ent0003" id="cluster_com"><path d="M1043.37,96.5659 L1121.0692,96.5659 A3.75,3.75 0 0 1 1123.5692,99.0659 L1130.5692,118.8628 L1261.51,118.8628 A2.5,2.5 0 0 1 1264.01,121.3628 L1264.01,402.0659 A2.5,2.5 0 0 1 1261.51,404.5659 L1043.37,404.5659 A2.5,2.5 0 0 1 1040.87,402.0659 L1040.87,99.0659 A2.5,2.5 0 0 1 1043.37,96.5659" fill="#E0A86C" style="stroke:#000000;stroke-width:1.5;"/><line style="stroke:#000000;stroke-width:1.5;" x1="1040.87" x2="1130.5692" y1="118.8628" y2="118.8628"/><a href="file:////home/runner/work/BO4E-python/BO4E-python/docs/../.tox/docs/tmp/html/api/bo4e.com.html" target="_top" title="file:////home/runner/work/BO4E-python/BO4E-python/docs/../.tox/docs/tmp/html/api/bo4e.com.html" xlink:actuate="onRequest" xlink:href="file:////home/runner/work/BO4E-python/BO4E-python/docs/../.tox/docs/tmp/html/api/bo4e.com.html" xlink:show="new" xlink:title="file:////home/runner/work/BO4E-python/BO4E-python/docs/../.tox/docs/tmp/html/api/bo4e.com.html" xlink:type="simple"><text fill="#0000FF" font-family="sans-serif" font-size="14" font-weight="bold" lengthAdjust="spacing" text-decoration="underline" textLength="76.6992" x="1044.87" y="111.561">bo4e.com</text></a></g><!--cluster enum--><g class="cluster" data-entity="enum" data-source-line="18" data-uid="ent0009" id="cluster_enum"><path d="M1049.5,428.5659 L1138.7109,428.5659 A3.75,3.75 0 0 1 1141.2109,431.0659 L1148.2109,450.8628 L1255.38,450.8628 A2.5,2.5 0 0 1 1257.88,453.3628 L1257.88,734.0659 A2.5,2.5 0 0 1 1255.38,736.5659 L1049.5,736.5659 A2.5,2.5 0 0 1 1047,734.0659 L1047,431.0659 A2.5,2.5 0 0 1 1049.5,428.5659" fill="#D1C358" style="stroke:#000000;stroke-width:1.5;"/><line style="stroke:#000000;stroke-width:1.5;" x1="1047" x2="1148.2109" y1="450.8628" y2="450.8628"/><a href="file:////home/runner/work/BO4E-python/BO4E-python/docs/../.tox/docs/tmp/html/api/bo4e.enum.html" target="_top" title="file:////home/runner/work/BO4E-python/BO4E-python/docs/../.tox/docs/tmp/html/api/bo4e.enum.html" xlink:actuate="onRequest" xlink:href="file:////home/runner/work/BO4E-python/BO4E-python/docs/../.tox/docs/tmp/html/api/bo4e.enum.html" xlink:show="new" xlink:title="file:////home/runner/work/BO4E-python/BO4E-python/docs/../.tox/docs/tmp/html/api/bo4e.enum.html" xlink:type="simple"><text fill="#0000FF" font-family="sans-serif" font-size="14" font-weight="bold" lengthAdjust="spacing" text-decoration="underline" textLength="88.2109" x="1051" y="443.561">bo4e.enum</text></a></g><!--class Zeitraum--><g class="entity" data-entity="Zeitraum" data-source-line="13" data-uid="ent0004" id="entity_Zeitraum"><rect fill="#F1F1F1" height="37.9375" rx="2.5" ry="2.5" style="stroke:#181818;stroke-width:0.5;" width="129.1143" x="1087.88" y="131.5959"/><ellipse cx="1102.88" cy="150.5647" fill="#ADD1B2" rx="11" ry="11" style="stroke:#181818;stroke-width:1;"/><path d="M1105.8488,156.2053 Q1105.2706,156.5022 1104.63,156.6428 Q1103.9894,156.799 1103.2863,156.799 Q1100.7863,156.799 1099.4581,155.1584 Q1098.1456,153.5022 1098.1456,150.3772 Q1098.1456,147.2522 1099.4581,145.5959 Q1100.7863,143.9397 1103.2863,143.9397 Q1103.9894,143.9397 1104.63,144.0959 Q1105.2863,144.2522 1105.8488,144.549 L1105.8488,147.2678 Q1105.2238,146.6897 1104.63,146.424 Q1104.0363,146.1428 1103.4113,146.1428 Q1102.0675,146.1428 1101.38,147.2209 Q1100.6925,148.2834 1100.6925,150.3772 Q1100.6925,152.4709 1101.38,153.549 Q1102.0675,154.6115 1103.4113,154.6115 Q1104.0363,154.6115 1104.63,154.3459 Q1105.2238,154.0647 1105.8488,153.4865 L1105.8488,156.2053 Z " fill="#000000"/><a href="file:////home/runner/work/BO4E-python/BO4E-python/docs/../.tox/docs/tmp/html/api/bo4e.com.html#bo4e.com.zeitraum.Zeitraum" target="_top" title="file:////home/runner/work/BO4E-python/BO4E-python/docs/../.tox/docs/tmp/html/api/bo4e.com.html#bo4e.com.zeitraum.Zeitraum" xlink:actuate="onRequest" xlink:href="file:////home/runner/work/BO4E-python/BO4E-python/docs/../.tox/docs/tmp/html/api/bo4e.com.html#bo4e.com.zeitraum.Zeitraum" xlink:show="new" xlink:title="file:////home/runner/work/BO4E-python/BO4E-python/docs/../.tox/docs/tmp/html/api/bo4e.com.html#bo4e.com.zeitraum.Zeitraum" xlink:type="simple"><text fill="#0000FF" font-family="sans-serif" font-size="14" lengthAdjust="spacing" text-decoration="underline" textLength="64.4287" x="1133.2228" y="149.591">Zeitraum</text></a><text fill="#000000" font-family="sans-serif" font-size="10" lengthAdjust="spacing" textLength="97.1143" x="1116.88" y="162.175">bo4e.com.zeitraum</text></g><!--class Ausschreibungsdetail--><g class="entity" data-entity="Ausschreibungsdetail" data-source-line="14" data-uid="ent0006" id="entity_Ausschreibungsdetail"><rect fill="#F1F1F1" height="37.9375" rx="2.5" ry="2.5" style="stroke:#181818;stroke-width:0.5;" width="191.1455" x="1056.87" y="204.5959"/><ellipse cx="1071.87" cy="223.5647" fill="#ADD1B2" rx="11" ry="11" style="stroke:#181818;stroke-width:1;"/><path d="M1074.8388,229.2053 Q1074.2606,229.5022 1073.62,229.6428 Q1072.9794,229.799 1072.2763,229.799 Q1069.7763,229.799 1068.4481,228.1584 Q1067.1356,226.5022 1067.1356,223.3772 Q1067.1356,220.2522 1068.4481,218.5959 Q1069.7763,216.9397 1072.2763,216.9397 Q1072.9794,216.9397 1073.62,217.0959 Q1074.2763,217.2522 1074.8388,217.549 L1074.8388,220.2678 Q1074.2138,219.6897 1073.62,219.424 Q1073.0263,219.1428 1072.4013,219.1428 Q1071.0575,219.1428 1070.37,220.2209 Q1069.6825,221.2834 1069.6825,223.3772 Q1069.6825,225.4709 1070.37,226.549 Q1071.0575,227.6115 1072.4013,227.6115 Q1073.0263,227.6115 1073.62,227.3459 Q1074.2138,227.0647 1074.8388,226.4865 L1074.8388,229.2053 Z " fill="#000000"/><a href="file:////home/runner/work/BO4E-python/BO4E-python/docs/../.tox/docs/tmp/html/api/bo4e.com.html#bo4e.com.ausschreibungsdetail.Ausschreibungsdetail" target="_top" title="file:////home/runner/work/BO4E-python/BO4E-python/docs/../.tox/docs/tmp/html/api/bo4e.com.html#bo4e.com.ausschreibungsdetail.Ausschreibungsdetail" xlink:actuate="onRequest" xlink:href="file:////home/runner/work/BO4E-python/BO4E-python/docs/../.tox/docs/tmp/html/api/bo4e.com.html#bo4e.com.ausschreibungsdetail.Ausschreibungsdetail" xlink:show="new" xlink:title="file:////home/runner/work/BO4E-python/BO4E-python/docs/../.tox/docs/tmp/html/api/bo4e.com.html#bo4e.com.ausschreibungsdetail.Ausschreibungsdetail" xlink:type="simple"><text fill="#0000FF" font-family="sans-serif" font-size="14" lengthAdjust="spacing" text-decoration="underline" textLength="150.0283" x="1090.4286" y="222.591">Ausschreibungsdetail</text></a><text fill="#000000" font-family="sans-serif" font-size="10" lengthAdjust="spacing" textLength="159.1455" x="1085.87" y="235.175">bo4e.com.ausschreibungsdetail</text></g><!--class Menge--><g class="entity" data-entity="Menge" data-source-line="15" data-uid="ent0007" id="entity_Menge"><rect fill="#F1F1F1" height="37.9375" rx="2.5" ry="2.5" style="stroke:#181818;stroke-width:0.5;" width="119.4268" x="1092.72" y="277.5959"/><ellipse cx="1107.72" cy="296.5647" fill="#ADD1B2" rx="11" ry="11" style="stroke:#181818;stroke-width:1;"/><path d="M1110.6888,302.2053 Q1110.1106,302.5022 1109.47,302.6428 Q1108.8294,302.799 1108.1263,302.799 Q1105.6263,302.799 1104.2981,301.1584 Q1102.9856,299.5022 1102.9856,296.3772 Q1102.9856,293.2522 1104.2981,291.5959 Q1105.6263,289.9397 1108.1263,289.9397 Q1108.8294,289.9397 1109.47,290.0959 Q1110.1263,290.2522 1110.6888,290.549 L1110.6888,293.2678 Q1110.0638,292.6897 1109.47,292.424 Q1108.8763,292.1428 1108.2513,292.1428 Q1106.9075,292.1428 1106.22,293.2209 Q1105.5325,294.2834 1105.5325,296.3772 Q1105.5325,298.4709 1106.22,299.549 Q1106.9075,300.6115 1108.2513,300.6115 Q1108.8763,300.6115 1109.47,300.3459 Q1110.0638,300.0647 1110.6888,299.4865 L1110.6888,302.2053 Z " fill="#000000"/><a href="file:////home/runner/work/BO4E-python/BO4E-python/docs/../.tox/docs/tmp/html/api/bo4e.com.html#bo4e.com.menge.Menge" target="_top" title="file:////home/runner/work/BO4E-python/BO4E-python/docs/../.tox/docs/tmp/html/api/bo4e.com.html#bo4e.com.menge.Menge" xlink:actuate="onRequest" xlink:href="file:////home/runner/work/BO4E-python/BO4E-python/docs/../.tox/docs/tmp/html/api/bo4e.com.html#bo4e.com.menge.Menge" xlink:show="new" xlink:title="file:////home/runner/work/BO4E-python/BO4E-python/docs/../.tox/docs/tmp/html/api/bo4e.com.html#bo4e.com.menge.Menge" xlink:type="simple"><text fill="#0000FF" font-family="sans-serif" font-size="14" lengthAdjust="spacing" text-decoration="underline" textLength="47.0654" x="1141.9007" y="295.591">Menge</text></a><text fill="#000000" font-family="sans-serif" font-size="10" lengthAdjust="spacing" textLength="87.4268" x="1121.72" y="308.175">bo4e.com.menge</text></g><!--class COM--><g class="entity" data-entity="COM" data-source-line="16" data-uid="ent0008" id="entity_COM"><rect fill="#F1F1F1" height="37.9375" rx="2.5" ry="2.5" style="stroke:#181818;stroke-width:0.5;" width="106.0527" x="1099.41" y="350.5959"/><ellipse cx="1114.41" cy="369.5647" fill="#ADD1B2" rx="11" ry="11" style="stroke:#181818;stroke-width:1;"/><path d="M1117.3788,375.2053 Q1116.8006,375.5022 1116.16,375.6428 Q1115.5194,375.799 1114.8163,375.799 Q1112.3163,375.799 1110.9881,374.1584 Q1109.6756,372.5022 1109.6756,369.3772 Q1109.6756,366.2522 1110.9881,364.5959 Q1112.3163,362.9397 1114.8163,362.9397 Q1115.5194,362.9397 1116.16,363.0959 Q1116.8163,363.2522 1117.3788,363.549 L1117.3788,366.2678 Q1116.7538,365.6897 1116.16,365.424 Q1115.5663,365.1428 1114.9413,365.1428 Q1113.5975,365.1428 1112.91,366.2209 Q1112.2225,367.2834 1112.2225,369.3772 Q1112.2225,371.4709 1112.91,372.549 Q1113.5975,373.6115 1114.9413,373.6115 Q1115.5663,373.6115 1116.16,373.3459 Q1116.7538,373.0647 1117.3788,372.4865 L1117.3788,375.2053 Z " fill="#000000"/><a href="file:////home/runner/work/BO4E-python/BO4E-python/docs/../.tox/docs/tmp/html/api/bo4e.com.html#bo4e.com.com.COM" target="_top" title="file:////home/runner/work/BO4E-python/BO4E-python/docs/../.tox/docs/tmp/html/api/bo4e.com.html#bo4e.com.com.COM" xlink:actuate="onRequest" xlink:href="file:////home/runner/work/BO4E-python/BO4E-python/docs/../.tox/docs/tmp/html/api/bo4e.com.html#bo4e.com.com.COM" xlink:show="new" xlink:title="file:////home/runner/work/BO4E-python/BO4E-python/docs/../.tox/docs/tmp/html/api/bo4e.com.html#bo4e.com.com.COM" xlink:type="simple"><text fill="#0000FF" font-family="sans-serif" font-size="14" lengthAdjust="spacing" text-decoration="underline" textLength="32.874" x="1148.9994" y="368.591">COM</text></a><text fill="#000000" font-family="sans-serif" font-size="10" lengthAdjust="spacing" textLength="74.0527" x="1128.41" y="381.175">bo4e.com.com</text></g><!--class Preismodell--><g class="entity" data-entity="Preismodell" data-source-line="19" data-uid="ent0010" id="entity_Preismodell"><rect fill="#F1F1F1" height="37.9375" rx="2.5" ry="2.5" style="stroke:#181818;stroke-width:0.5;" width="150.4229" x="1077.23" y="463.5959"/><ellipse cx="1092.23" cy="482.5647" fill="#ADD1B2" rx="11" ry="11" style="stroke:#181818;stroke-width:1;"/><path d="M1095.1988,488.2053 Q1094.6206,488.5022 1093.98,488.6428 Q1093.3394,488.799 1092.6363,488.799 Q1090.1363,488.799 1088.8081,487.1584 Q1087.4956,485.5022 1087.4956,482.3772 Q1087.4956,479.2522 1088.8081,477.5959 Q1090.1363,475.9397 1092.6363,475.9397 Q1093.3394,475.9397 1093.98,476.0959 Q1094.6363,476.2522 1095.1988,476.549 L1095.1988,479.2678 Q1094.5738,478.6897 1093.98,478.424 Q1093.3863,478.1428 1092.7613,478.1428 Q1091.4175,478.1428 1090.73,479.2209 Q1090.0425,480.2834 1090.0425,482.3772 Q1090.0425,484.4709 1090.73,485.549 Q1091.4175,486.6115 1092.7613,486.6115 Q1093.3863,486.6115 1093.98,486.3459 Q1094.5738,486.0647 1095.1988,485.4865 L1095.1988,488.2053 Z " fill="#000000"/><a href="file:////home/runner/work/BO4E-python/BO4E-python/docs/../.tox/docs/tmp/html/api/bo4e.enum.html#bo4e.enum.preismodell.Preismodell" target="_top" title="file:////home/runner/work/BO4E-python/BO4E-python/docs/../.tox/docs/tmp/html/api/bo4e.enum.html#bo4e.enum.preismodell.Preismodell" xlink:actuate="onRequest" xlink:href="file:////home/runner/work/BO4E-python/BO4E-python/docs/../.tox/docs/tmp/html/api/bo4e.enum.html#bo4e.enum.preismodell.Preismodell" xlink:show="new" xlink:title="file:////home/runner/work/BO4E-python/BO4E-python/docs/../.tox/docs/tmp/html/api/bo4e.enum.html#bo4e.enum.preismodell.Preismodell" xlink:type="simple"><text fill="#0000FF" font-family="sans-serif" font-size="14" lengthAdjust="spacing" text-decoration="underline" textLength="81.4775" x="1124.7027" y="481.591">Preismodell</text></a><text fill="#000000" font-family="sans-serif" font-size="10" lengthAdjust="spacing" textLength="118.4229" x="1106.23" y="494.175">bo4e.enum.preismodell</text></g><!--class Sparte--><g class="entity" data-entity="Sparte" data-source-line="20" data-uid="ent0011" id="entity_Sparte"><rect fill="#F1F1F1" height="37.9375" rx="2.5" ry="2.5" style="stroke:#181818;stroke-width:0.5;" width="123.7773" x="1090.55" y="536.5959"/><ellipse cx="1105.55" cy="555.5647" fill="#ADD1B2" rx="11" ry="11" style="stroke:#181818;stroke-width:1;"/><path d="M1108.5188,561.2053 Q1107.9406,561.5022 1107.3,561.6428 Q1106.6594,561.799 1105.9563,561.799 Q1103.4563,561.799 1102.1281,560.1584 Q1100.8156,558.5022 1100.8156,555.3772 Q1100.8156,552.2522 1102.1281,550.5959 Q1103.4563,548.9397 1105.9563,548.9397 Q1106.6594,548.9397 1107.3,549.0959 Q1107.9563,549.2522 1108.5188,549.549 L1108.5188,552.2678 Q1107.8938,551.6897 1107.3,551.424 Q1106.7063,551.1428 1106.0813,551.1428 Q1104.7375,551.1428 1104.05,552.2209 Q1103.3625,553.2834 1103.3625,555.3772 Q1103.3625,557.4709 1104.05,558.549 Q1104.7375,559.6115 1106.0813,559.6115 Q1106.7063,559.6115 1107.3,559.3459 Q1107.8938,559.0647 1108.5188,558.4865 L1108.5188,561.2053 Z " fill="#000000"/><a href="file:////home/runner/work/BO4E-python/BO4E-python/docs/../.tox/docs/tmp/html/api/bo4e.enum.html#bo4e.enum.sparte.Sparte" target="_top" title="file:////home/runner/work/BO4E-python/BO4E-python/docs/../.tox/docs/tmp/html/api/bo4e.enum.html#bo4e.enum.sparte.Sparte" xlink:actuate="onRequest" xlink:href="file:////home/runner/work/BO4E-python/BO4E-python/docs/../.tox/docs/tmp/html/api/bo4e.enum.html#bo4e.enum.sparte.Sparte" xlink:show="new" xlink:title="file:////home/runner/work/BO4E-python/BO4E-python/docs/../.tox/docs/tmp/html/api/bo4e.enum.html#bo4e.enum.sparte.Sparte" xlink:type="simple"><text fill="#0000FF" font-family="sans-serif" font-size="14" lengthAdjust="spacing" text-decoration="underline" textLength="46.2109" x="1142.3332" y="554.591">Sparte</text></a><text fill="#000000" font-family="sans-serif" font-size="10" lengthAdjust="spacing" textLength="91.7773" x="1119.55" y="567.175">bo4e.enum.sparte</text></g><!--class Vertragsform--><g class="entity" data-entity="Vertragsform" data-source-line="21" data-uid="ent0012" id="entity_Vertragsform"><rect fill="#F1F1F1" height="37.9375" rx="2.5" ry="2.5" style="stroke:#181818;stroke-width:0.5;" width="157.2979" x="1073.79" y="609.5959"/><ellipse cx="1088.79" cy="628.5647" fill="#ADD1B2" rx="11" ry="11" style="stroke:#181818;stroke-width:1;"/><path d="M1091.7588,634.2053 Q1091.1806,634.5022 1090.54,634.6428 Q1089.8994,634.799 1089.1963,634.799 Q1086.6963,634.799 1085.3681,633.1584 Q1084.0556,631.5022 1084.0556,628.3772 Q1084.0556,625.2522 1085.3681,623.5959 Q1086.6963,621.9397 1089.1963,621.9397 Q1089.8994,621.9397 1090.54,622.0959 Q1091.1963,622.2522 1091.7588,622.549 L1091.7588,625.2678 Q1091.1338,624.6897 1090.54,624.424 Q1089.9463,624.1428 1089.3213,624.1428 Q1087.9775,624.1428 1087.29,625.2209 Q1086.6025,626.2834 1086.6025,628.3772 Q1086.6025,630.4709 1087.29,631.549 Q1087.9775,632.6115 1089.3213,632.6115 Q1089.9463,632.6115 1090.54,632.3459 Q1091.1338,632.0647 1091.7588,631.4865 L1091.7588,634.2053 Z " fill="#000000"/><a href="file:////home/runner/work/BO4E-python/BO4E-python/docs/../.tox/docs/tmp/html/api/bo4e.enum.html#bo4e.enum.vertragsform.Vertragsform" target="_top" title="file:////home/runner/work/BO4E-python/BO4E-python/docs/../.tox/docs/tmp/html/api/bo4e.enum.html#bo4e.enum.vertragsform.Vertragsform" xlink:actuate="onRequest" xlink:href="file:////home/runner/work/BO4E-python/BO4E-python/docs/../.tox/docs/tmp/html/api/bo4e.enum.html#bo4e.enum.vertragsform.Vertragsform" xlink:show="new" xlink:title="file:////home/runner/work/BO4E-python/BO4E-python/docs/../.tox/docs/tmp/html/api/bo4e.enum.html#bo4e.enum.vertragsform.Vertragsform" xlink:type="simple"><text fill="#0000FF" font-family="sans-serif" font-size="14" lengthAdjust="spacing" text-decoration="underline" textLength="92.8389" x="1119.0195" y="627.591">Vertragsform</text></a><text fill="#000000" font-family="sans-serif" font-size="10" lengthAdjust="spacing" textLength="125.2979" x="1102.79" y="640.175">bo4e.enum.vertragsform</text></g><!--class Rechnungslegung--><g class="entity" data-entity="Rechnungslegung" data-source-line="22" data-uid="ent0013" id="entity_Rechnungslegung"><rect fill="#F1F1F1" height="37.9375" rx="2.5" ry="2.5" style="stroke:#181818;stroke-width:0.5;" width="178.8799" x="1063" y="682.5959"/><ellipse cx="1078" cy="701.5647" fill="#ADD1B2" rx="11" ry="11" style="stroke:#181818;stroke-width:1;"/><path d="M1080.9688,707.2053 Q1080.3906,707.5022 1079.75,707.6428 Q1079.1094,707.799 1078.4063,707.799 Q1075.9063,707.799 1074.5781,706.1584 Q1073.2656,704.5022 1073.2656,701.3772 Q1073.2656,698.2522 1074.5781,696.5959 Q1075.9063,694.9397 1078.4063,694.9397 Q1079.1094,694.9397 1079.75,695.0959 Q1080.4063,695.2522 1080.9688,695.549 L1080.9688,698.2678 Q1080.3438,697.6897 1079.75,697.424 Q1079.1563,697.1428 1078.5313,697.1428 Q1077.1875,697.1428 1076.5,698.2209 Q1075.8125,699.2834 1075.8125,701.3772 Q1075.8125,703.4709 1076.5,704.549 Q1077.1875,705.6115 1078.5313,705.6115 Q1079.1563,705.6115 1079.75,705.3459 Q1080.3438,705.0647 1080.9688,704.4865 L1080.9688,707.2053 Z " fill="#000000"/><a href="file:////home/runner/work/BO4E-python/BO4E-python/docs/../.tox/docs/tmp/html/api/bo4e.enum.html#bo4e.enum.rechnungslegung.Rechnungslegung" target="_top" title="file:////home/runner/work/BO4E-python/BO4E-python/docs/../.tox/docs/tmp/html/api/bo4e.enum.html#bo4e.enum.rechnungslegung.Rechnungslegung" xlink:actuate="onRequest" xlink:href="file:////home/runner/work/BO4E-python/BO4E-python/docs/../.tox/docs/tmp/html/api/bo4e.enum.html#bo4e.enum.rechnungslegung.Rechnungslegung" xlink:show="new" xlink:title="file:////home/runner/work/BO4E-python/BO4E-python/docs/../.tox/docs/tmp/html/api/bo4e.enum.html#bo4e.enum.rechnungslegung.Rechnungslegung" xlink:type="simple"><text fill="#0000FF" font-family="sans-serif" font-size="14" lengthAdjust="spacing" text-decoration="underline" textLength="125.7334" x="1102.5732" y="700.591">Rechnungslegung</text></a><text fill="#000000" font-family="sans-serif" font-size="10" lengthAdjust="spacing" textLength="146.8799" x="1092" y="713.175">bo4e.enum.rechnungslegung</text></g><!--class Ausschreibungslos--><g class="entity" data-entity="Ausschreibungslos" data-source-line="3" data-uid="ent0002" id="entity_Ausschreibungslos"><rect fill="#F1F1F1" height="143.7188" rx="2.5" ry="2.5" style="stroke:#181818;stroke-width:0.5;" width="794.8652" x="7" y="271.7059"/><ellipse cx="327.6094" cy="290.6747" fill="#ADD1B2" rx="11" ry="11" style="stroke:#181818;stroke-width:1;"/><path d="M330.5781,296.3153 Q330,296.6122 329.3594,296.7528 Q328.7188,296.909 328.0156,296.909 Q325.5156,296.909 324.1875,295.2684 Q322.875,293.6122 322.875,290.4872 Q322.875,287.3622 324.1875,285.7059 Q325.5156,284.0497 328.0156,284.0497 Q328.7188,284.0497 329.3594,284.2059 Q330.0156,284.3622 330.5781,284.659 L330.5781,287.3778 Q329.9531,286.7997 329.3594,286.534 Q328.7656,286.2528 328.1406,286.2528 Q326.7969,286.2528 326.1094,287.3309 Q325.4219,288.3934 325.4219,290.4872 Q325.4219,292.5809 326.1094,293.659 Q326.7969,294.7215 328.1406,294.7215 Q328.7656,294.7215 329.3594,294.4559 Q329.9531,294.1747 330.5781,293.5965 L330.5781,296.3153 Z " fill="#000000"/><a href="file:////home/runner/work/BO4E-python/BO4E-python/docs/../.tox/docs/tmp/html/api/bo4e.com.html#bo4e.com.ausschreibungslos.Ausschreibungslos" target="_top" title="file:////home/runner/work/BO4E-python/BO4E-python/docs/../.tox/docs/tmp/html/api/bo4e.com.html#bo4e.com.ausschreibungslos.Ausschreibungslos" xlink:actuate="onRequest" xlink:href="file:////home/runner/work/BO4E-python/BO4E-python/docs/../.tox/docs/tmp/html/api/bo4e.com.html#bo4e.com.ausschreibungslos.Ausschreibungslos" xlink:show="new" xlink:title="file:////home/runner/work/BO4E-python/BO4E-python/docs/../.tox/docs/tmp/html/api/bo4e.com.html#bo4e.com.ausschreibungslos.Ausschreibungslos" xlink:type="simple"><text fill="#0000FF" font-family="sans-serif" font-size="14" lengthAdjust="spacing" text-decoration="underline" textLength="130.4297" x="355.4678" y="289.701">Ausschreibungslos</text></a><text fill="#000000" font-family="sans-serif" font-size="10" lengthAdjust="spacing" textLength="145.1465" x="348.1094" y="302.285">bo4e.com.ausschreibungslos</text><line style="stroke:#181818;stroke-width:0.5;" x1="8" x2="800.8652" y1="309.6434" y2="309.6434"/><text fill="#000000" font-family="sans-serif" font-size="14" lengthAdjust="spacing" textLength="782.8652" x="13" y="326.6385">_typ : Literal[&lt;ComTyp.AUSSCHREIBUNGSLOS: 'AUSSCHREIBUNGSLOS'&gt;] [1] = ComTyp.AUSSCHREIBUNGSLOS</text><text fill="#000000" font-family="sans-serif" font-size="14" lengthAdjust="spacing" textLength="210.54" x="13" y="342.9354">losnummer : str [0..1] = None</text><text fill="#000000" font-family="sans-serif" font-size="14" lengthAdjust="spacing" textLength="220.8281" x="13" y="359.2323">bezeichnung : str [0..1] = None</text><text fill="#000000" font-family="sans-serif" font-size="14" lengthAdjust="spacing" textLength="225.1006" x="13" y="375.5292">betreutDurch : str [0..1] = None</text><text fill="#000000" font-family="sans-serif" font-size="14" lengthAdjust="spacing" textLength="263.5186" x="13" y="391.826">anzahlLieferstellen : int [0..1] = None</text><text fill="#000000" font-family="sans-serif" font-size="14" lengthAdjust="spacing" textLength="211.6475" x="13" y="408.1229">bemerkung : str [0..1] = None</text></g><!--link Ausschreibungslos to COM--><g class="link" data-entity-1="Ausschreibungslos" data-entity-2="COM" data-source-line="25" data-uid="lnk14" id="link_Ausschreibungslos_COM"><path codeLine="25" d="M624.58,415.9059 C737.52,443.5759 877.16,462.8459 1000.87,436.5659 C1043.69,427.4659 1073.3549,414.0209 1102.9649,397.6609" fill="none" id="Ausschreibungslos-to-COM" style="stroke:#181818;stroke-width:1;"/><polygon fill="none" points="1118.72,388.9559,1100.0632,392.4092,1105.8665,402.9126,1118.72,388.9559" style="stroke:#181818;stroke-width:1;"/></g><!--link Ausschreibungslos to Preismodell--><g class="link" data-entity-1="Ausschreibungslos" data-entity-2="Preismodell" data-source-line="26" data-uid="lnk15" id="link_Ausschreibungslos_Preismodell"><path codeLine="26" d="M601,415.9059 C672.61,439.1159 754.95,462.0359 831.87,474.5659 C914.99,488.1159 999.8657,488.7744 1064.9757,486.7744" fill="none" id="Ausschreibungslos-to-Preismodell" style="stroke:#181818;stroke-width:1;"/><polygon fill="#181818" points="1076.97,486.4059,1070.85,482.592,1064.9757,486.7744,1071.0956,490.5882,1076.97,486.4059" style="stroke:#181818;stroke-width:1;"/><text fill="#000000" font-family="sans-serif" font-size="13" lengthAdjust="spacing" textLength="76.0703" x="878.37" y="470.6328">preismodell</text><text fill="#000000" font-family="sans-serif" font-size="13" lengthAdjust="spacing" textLength="24.8066" x="1044.3992" y="499.5958">0..1</text></g><!--link Ausschreibungslos to Sparte--><g class="link" data-entity-1="Ausschreibungslos" data-entity-2="Sparte" data-source-line="27" data-uid="lnk16" id="link_Ausschreibungslos_Sparte"><path codeLine="27" d="M560.83,415.7359 C640.34,449.9259 739.6,488.4659 831.87,512.5659 C920.02,535.5959 1013.2861,545.7958 1078.2461,550.8458" fill="none" id="Ausschreibungslos-to-Sparte" style="stroke:#181818;stroke-width:1;"/><polygon fill="#181818" points="1090.21,551.7759,1084.5381,547.3229,1078.2461,550.8458,1083.918,555.2988,1090.21,551.7759" style="stroke:#181818;stroke-width:1;"/><text fill="#000000" font-family="sans-serif" font-size="13" lengthAdjust="spacing" textLength="67.8501" x="882.87" y="508.6328">energieart</text><text fill="#000000" font-family="sans-serif" font-size="13" lengthAdjust="spacing" textLength="24.8066" x="1057.6739" y="564.2796">0..1</text></g><!--link Ausschreibungslos to Rechnungslegung--><g class="link" data-entity-1="Ausschreibungslos" data-entity-2="Rechnungslegung" data-source-line="28" data-uid="lnk17" id="link_Ausschreibungslos_Rechnungslegung"><path codeLine="28" d="M489.82,415.6959 C571.91,482.1159 702.79,578.4759 831.87,633.5659 C906.21,665.2959 984.9173,681.1019 1050.6473,690.3619" fill="none" id="Ausschreibungslos-to-Rechnungslegung" style="stroke:#181818;stroke-width:1;"/><polygon fill="#181818" points="1062.53,692.0359,1057.1467,687.238,1050.6473,690.3619,1056.0307,695.1598,1062.53,692.0359" style="stroke:#181818;stroke-width:1;"/><text fill="#000000" font-family="sans-serif" font-size="13" lengthAdjust="spacing" textLength="166.0229" x="833.37" y="629.6328">wunschRechnungslegung</text><text fill="#000000" font-family="sans-serif" font-size="13" lengthAdjust="spacing" textLength="24.8066" x="1030.124" y="703.9403">0..1</text></g><!--link Ausschreibungslos to Vertragsform--><g class="link" data-entity-1="Ausschreibungslos" data-entity-2="Vertragsform" data-source-line="29" data-uid="lnk18" id="link_Ausschreibungslos_Vertragsform"><path codeLine="29" d="M520.23,415.8059 C603.75,465.3459 721.14,528.8759 831.87,567.5659 C911.85,595.5159 995.9206,610.1052 1061.6806,618.6752" fill="none" id="Ausschreibungslos-to-Vertragsform" style="stroke:#181818;stroke-width:1;"/><polygon fill="#181818" points="1073.58,620.2259,1068.1472,615.4841,1061.6806,618.6752,1067.1134,623.417,1073.58,620.2259" style="stroke:#181818;stroke-width:1;"/><text fill="#000000" font-family="sans-serif" font-size="13" lengthAdjust="spacing" textLength="135.478" x="848.87" y="563.6328">wunschVertragsform</text><text fill="#000000" font-family="sans-serif" font-size="13" lengthAdjust="spacing" textLength="24.8066" x="1040.9585" y="632.2192">0..1</text></g><!--link Ausschreibungslos to Ausschreibungsdetail--><g class="link" data-entity-1="Ausschreibungslos" data-entity-2="Ausschreibungsdetail" data-source-line="30" data-uid="lnk19" id="link_Ausschreibungslos_Ausschreibungsdetail"><path codeLine="30" d="M802.19,279.7459 C897.41,264.4259 978.7124,251.3524 1044.8324,240.7124" fill="none" id="Ausschreibungslos-to-Ausschreibungsdetail" style="stroke:#181818;stroke-width:1;"/><polygon fill="#181818" points="1056.68,238.8059,1050.1207,235.81,1044.8324,240.7124,1051.3917,243.7084,1056.68,238.8059" style="stroke:#181818;stroke-width:1;"/><text fill="#000000" font-family="sans-serif" font-size="13" lengthAdjust="spacing" textLength="76.4702" x="878.37" y="245.6328">lieferstellen</text><text fill="#000000" font-family="sans-serif" font-size="13" lengthAdjust="spacing" textLength="23.0356" x="1025.8042" y="252.5477">0..*</text></g><!--link Ausschreibungslos to Zeitraum--><g class="link" data-entity-1="Ausschreibungslos" data-entity-2="Zeitraum" data-source-line="31" data-uid="lnk20" id="link_Ausschreibungslos_Zeitraum"><path codeLine="31" d="M476.45,271.4959 C555.28,197.1159 690.19,85.7759 831.87,40.5659 C903.42,17.7359 929.46,17.2659 1000.87,40.5659 C1055.65,58.4459 1098.595,96.1205 1124.835,122.6105" fill="none" id="Ausschreibungslos-to-Zeitraum" style="stroke:#181818;stroke-width:1;"/><polygon fill="#181818" points="1133.28,131.1359,1131.8993,124.0582,1124.835,122.6105,1126.2157,129.6882,1133.28,131.1359" style="stroke:#181818;stroke-width:1;"/><text fill="#000000" font-family="sans-serif" font-size="13" lengthAdjust="spacing" textLength="90.8857" x="871.37" y="19.6328">lieferzeitraum</text><text fill="#000000" font-family="sans-serif" font-size="13" lengthAdjust="spacing" textLength="24.8066" x="1100.6305" y="120.6478">0..1</text></g><!--link Ausschreibungslos to Zeitraum--><g class="link" data-entity-1="Ausschreibungslos" data-entity-2="Zeitraum" data-source-line="32" data-uid="lnk21" id="link_Ausschreibungslos_Zeitraum"><path codeLine="32" d="M497.25,271.3959 C579.57,211.5959 706.37,131.1659 831.87,97.5659 C904.42,78.1359 926.83,84.9159 1000.87,97.5659 C1038.43,103.9859 1068.0051,114.1757 1097.5851,126.5157" fill="none" id="Ausschreibungslos-to-Zeitraum-1" style="stroke:#181818;stroke-width:1;"/><polygon fill="#181818" points="1108.66,131.1359,1104.6626,125.1342,1097.5851,126.5157,1101.5825,132.5175,1108.66,131.1359" style="stroke:#181818;stroke-width:1;"/><text fill="#000000" font-family="sans-serif" font-size="13" lengthAdjust="spacing" textLength="148.3193" x="842.37" y="81.6328">wiederholungsintervall</text><text fill="#000000" font-family="sans-serif" font-size="13" lengthAdjust="spacing" textLength="24.8066" x="1069.0861" y="120.6478">0..1</text></g><!--link Ausschreibungslos to Zeitraum--><g class="link" data-entity-1="Ausschreibungslos" data-entity-2="Zeitraum" data-source-line="33" data-uid="lnk22" id="link_Ausschreibungslos_Zeitraum"><path codeLine="33" d="M531.9,271.2259 C614.4,228.2159 726.05,177.6559 831.87,154.5659 C918.87,135.5759 1010.4362,137.8945 1075.5562,142.9645" fill="none" id="Ausschreibungslos-to-Zeitraum-2" style="stroke:#181818;stroke-width:1;"/><polygon fill="#181818" points="1087.52,143.8959,1081.8486,139.4423,1075.5562,142.9645,1081.2276,147.4181,1087.52,143.8959" style="stroke:#181818;stroke-width:1;"/><text fill="#000000" font-family="sans-serif" font-size="13" lengthAdjust="spacing" textLength="167.5337" x="832.87" y="136.6328">wunschKuendingungsfrist</text><text fill="#000000" font-family="sans-serif" font-size="13" lengthAdjust="spacing" textLength="24.8066" x="1055.1513" y="156.061">0..1</text></g><!--link Ausschreibungslos to Zeitraum--><g class="link" data-entity-1="Ausschreibungslos" data-entity-2="Zeitraum" data-source-line="34" data-uid="lnk23" id="link_Ausschreibungslos_Zeitraum"><path codeLine="34" d="M657.48,271.2259 C714.69,255.3659 775.26,239.0059 831.87,224.5659 C920.16,202.0359 1011.2028,181.3558 1075.8528,167.0658" fill="none" id="Ausschreibungslos-to-Zeitraum-3" style="stroke:#181818;stroke-width:1;"/><polygon fill="#181818" points="1087.57,164.4759,1080.8481,161.8652,1075.8528,167.0658,1082.5747,169.6766,1087.57,164.4759" style="stroke:#181818;stroke-width:1;"/><text fill="#000000" font-family="sans-serif" font-size="13" lengthAdjust="spacing" textLength="131.5425" x="850.87" y="181.6328">wunschZahlungsziel</text><text fill="#000000" font-family="sans-serif" font-size="13" lengthAdjust="spacing" textLength="24.8066" x="1055.2068" y="178.8919">0..1</text></g><!--link Ausschreibungslos to Menge--><g class="link" data-entity-1="Ausschreibungslos" data-entity-2="Menge" data-source-line="35" data-uid="lnk24" id="link_Ausschreibungslos_Menge"><path codeLine="35" d="M802.19,318.5659 C916.21,311.3859 1015.2837,305.1405 1080.5137,301.0305" fill="none" id="Ausschreibungslos-to-Menge" style="stroke:#181818;stroke-width:1;"/><polygon fill="#181818" points="1092.49,300.2759,1086.2503,296.6611,1080.5137,301.0305,1086.7534,304.6453,1092.49,300.2759" style="stroke:#181818;stroke-width:1;"/><text fill="#000000" font-family="sans-serif" font-size="13" lengthAdjust="spacing" textLength="92.4536" x="870.37" y="303.6328">gesamtMenge</text><text fill="#000000" font-family="sans-serif" font-size="13" lengthAdjust="spacing" textLength="24.8066" x="1059.7711" y="313.7173">0..1</text></g><!--link Ausschreibungslos to Menge--><g class="link" data-entity-1="Ausschreibungslos" data-entity-2="Menge" data-source-line="36" data-uid="lnk25" id="link_Ausschreibungslos_Menge"><path codeLine="36" d="M802,384.9759 C870.18,380.1659 938.95,367.3359 1000.87,341.5659 C1005.51,339.6359 1004.5,336.0659 1008.87,333.5659 C1034.39,318.9659 1053.9888,312.398 1080.7988,306.968" fill="none" id="Ausschreibungslos-to-Menge-1" style="stroke:#181818;stroke-width:1;"/><polygon fill="#181818" points="1092.56,304.5859,1085.8854,301.8566,1080.7988,306.968,1087.4734,309.6974,1092.56,304.5859" style="stroke:#181818;stroke-width:1;"/><text fill="#000000" font-family="sans-serif" font-size="13" lengthAdjust="spacing" textLength="145.6089" x="843.87" y="337.6328">wunschMindestmenge</text><text fill="#000000" font-family="sans-serif" font-size="13" lengthAdjust="spacing" textLength="24.8066" x="1059.8496" y="301.7244">0..1</text></g><!--link Ausschreibungslos to Menge--><g class="link" data-entity-1="Ausschreibungslos" data-entity-2="Menge" data-source-line="37" data-uid="lnk26" id="link_Ausschreibungslos_Menge"><path codeLine="37" d="M706.23,415.8759 C830.59,437.7259 956.16,446.6359 1000.87,406.5659 C1013.02,395.6759 998.19,345.9059 1008.87,333.5659 C1029.36,309.8759 1050.9622,301.7885 1080.3622,298.3285" fill="none" id="Ausschreibungslos-to-Menge-2" style="stroke:#181818;stroke-width:1;"/><polygon fill="#181818" points="1092.28,296.9259,1085.8536,293.6546,1080.3622,298.3285,1086.7886,301.5998,1092.28,296.9259" style="stroke:#181818;stroke-width:1;"/><text fill="#000000" font-family="sans-serif" font-size="13" lengthAdjust="spacing" textLength="149.1509" x="841.87" y="402.6328">wunschMaximalmenge</text><text fill="#000000" font-family="sans-serif" font-size="13" lengthAdjust="spacing" textLength="24.8066" x="1059.9839" y="293.1751">0..1</text></g><!--SRC=[nLPjJzim4FvCViMf_O24X0CQcr34aA13spHU9ZhsWQwQtEJQMCHsPJiKkks_pt58cwR9b36DLahYS-yUF-Uxypd1iG4ZGR59R21Y2aF3fF2yCA5QGsSm6BC40z_-OidHLwaGgFoPL7V-wTN1sUxqqSHIh8mZ6MgV49yO-P0BXa_zsF34frFcZ-G1ab1oairq5n9DjGvZXMoKYebEf2OdrHbOcnaEluaZpUOOxEyTDqDrWDOOmmzlwxjvd480vyoWeidWg2VvbySfERdfztiVhiy-djvSlk-VN_K3s5wRspuUmc1_26-XoShRiik8b7DKTX5j50ps274cbrAWjpN2ER8m5fPHau9Hc9ftgGhZUWqgvZHEpXcEKMc3IOB2AZ9Xrg4iZRkcbNvvdg0SzPI6-F_33eKq7BhO529qp_PE3j_qij2yU0RQK1X5KqvkdmPG3EhJhD1t7XIg6-2zckuH6igIIl7aar0tsQQ4SisQAih_s83F7CK4oKNs1lUkTyEfETvEQGD4iwTtTG7sgQTe7qVGAjWYV84QH7iWbOem4yjLcCdGZVR3LwyFNw0C5sowIt5gqqjp6Td3Z7nUZg4qNj_BggNpg6In4KziA9L1qdSVo3yDr7DLnphNsmZXUrJs69leiLISV2q9K1OQN2WREqVADXjnnrvdN7FL2KxiXrolob2H6_oge3ZNAfPP_woviEpk_ZnUDBVi7AXJibexqCcwSMTPWYk97q0fiTj3FALT06WtUCBGIksDgriLm2mLrhBgU6l0bMmgq5Oov4zGEvtbFjRsjW2IyXse5QyCRD7i2u2YhJy7OSOmGXNB93EmTp1KzxHbnAf8Rdi-fIWY9hADrcF5j7a-rAsz9MOMSuRj2UKDDe09QifDtaF_rZPV_eA92BNX_m917nYdIGxXnIn2uCX7DkIUZkKCQb37rjb8_mO0]--></g></svg>