<?xml version="1.0" encoding="us-ascii" standalone="no"?><svg xmlns="http://www.w3.org/2000/svg" xmlns:xlink="http://www.w3.org/1999/xlink" contentStyleType="text/css" height="501px" preserveAspectRatio="none" style="width:1311px;height:501px;background:#FFFFFF;" version="1.1" viewBox="0 0 1311 501" width="1311px" zoomAndPan="magnify"><defs/><g><!--cluster bo4e--><g id="cluster_bo4e"><path d="M1085.5,6 L1126.5,6 A3.75,3.75 0 0 1 1129,8.5 L1136,28.2969 L1301.5,28.2969 A2.5,2.5 0 0 1 1304,30.7969 L1304,491.5 A2.5,2.5 0 0 1 1301.5,494 L1085.5,494 A2.5,2.5 0 0 1 1083,491.5 L1083,8.5 A2.5,2.5 0 0 1 1085.5,6 " fill="none" style="stroke:#000000;stroke-width:1.5;"/><line style="stroke:#000000;stroke-width:1.5;" x1="1083" x2="1136" y1="28.2969" y2="28.2969"/><text fill="#000000" font-family="sans-serif" font-size="14" font-weight="bold" lengthAdjust="spacing" textLength="40" x="1087" y="20.9951">bo4e</text></g><!--cluster com--><g id="cluster_com"><path d="M1117,49 L1196,49 A3.75,3.75 0 0 1 1198.5,51.5 L1205.5,71.2969 L1270,71.2969 A2.5,2.5 0 0 1 1272.5,73.7969 L1272.5,354.5 A2.5,2.5 0 0 1 1270,357 L1117,357 A2.5,2.5 0 0 1 1114.5,354.5 L1114.5,51.5 A2.5,2.5 0 0 1 1117,49 " fill="#E0A86C" style="stroke:#000000;stroke-width:1.5;"/><line style="stroke:#000000;stroke-width:1.5;" x1="1114.5" x2="1205.5" y1="71.2969" y2="71.2969"/><a href="https://bo4e.github.io/BO4E-python/latest/api/bo4e.com.html" target="_top" title="https://bo4e.github.io/BO4E-python/latest/api/bo4e.com.html" xlink:actuate="onRequest" xlink:href="https://bo4e.github.io/BO4E-python/latest/api/bo4e.com.html" xlink:show="new" xlink:title="https://bo4e.github.io/BO4E-python/latest/api/bo4e.com.html" xlink:type="simple"><text fill="#0000FF" font-family="sans-serif" font-size="14" font-weight="bold" lengthAdjust="spacing" text-decoration="underline" textLength="78" x="1118.5" y="63.9951">bo4e.com</text></a></g><!--cluster enum--><g id="cluster_enum"><path d="M1109.5,381 L1199.5,381 A3.75,3.75 0 0 1 1202,383.5 L1209,403.2969 L1277.5,403.2969 A2.5,2.5 0 0 1 1280,405.7969 L1280,467.5 A2.5,2.5 0 0 1 1277.5,470 L1109.5,470 A2.5,2.5 0 0 1 1107,467.5 L1107,383.5 A2.5,2.5 0 0 1 1109.5,381 " fill="#D1C358" style="stroke:#000000;stroke-width:1.5;"/><line style="stroke:#000000;stroke-width:1.5;" x1="1107" x2="1209" y1="403.2969" y2="403.2969"/><a href="https://bo4e.github.io/BO4E-python/latest/api/bo4e.enum.html" target="_top" title="https://bo4e.github.io/BO4E-python/latest/api/bo4e.enum.html" xlink:actuate="onRequest" xlink:href="https://bo4e.github.io/BO4E-python/latest/api/bo4e.enum.html" xlink:show="new" xlink:title="https://bo4e.github.io/BO4E-python/latest/api/bo4e.enum.html" xlink:type="simple"><text fill="#0000FF" font-family="sans-serif" font-size="14" font-weight="bold" lengthAdjust="spacing" text-decoration="underline" textLength="89" x="1111" y="395.9951">bo4e.enum</text></a></g><!--class Zeitraum--><g id="elem_Zeitraum"><rect codeLine="16" fill="#F1F1F1" height="37.9375" id="Zeitraum" rx="2.5" ry="2.5" style="stroke:#181818;stroke-width:0.5;" width="126" x="1130.5" y="84.03"/><ellipse cx="1145.5" cy="102.9987" fill="#ADD1B2" rx="11" ry="11" style="stroke:#181818;stroke-width:1.0;"/><path d="M1148.4688,108.6394 Q1147.8906,108.9362 1147.25,109.0769 Q1146.6094,109.2331 1145.9063,109.2331 Q1143.4063,109.2331 1142.0781,107.5925 Q1140.7656,105.9362 1140.7656,102.8112 Q1140.7656,99.6862 1142.0781,98.03 Q1143.4063,96.3737 1145.9063,96.3737 Q1146.6094,96.3737 1147.25,96.53 Q1147.9063,96.6862 1148.4688,96.9831 L1148.4688,99.7019 Q1147.8438,99.1237 1147.25,98.8581 Q1146.6563,98.5769 1146.0313,98.5769 Q1144.6875,98.5769 1144,99.655 Q1143.3125,100.7175 1143.3125,102.8112 Q1143.3125,104.905 1144,105.9831 Q1144.6875,107.0456 1146.0313,107.0456 Q1146.6563,107.0456 1147.25,106.78 Q1147.8438,106.4987 1148.4688,105.9206 L1148.4688,108.6394 Z " fill="#000000"/><a href="https://bo4e.github.io/BO4E-python/latest/api/bo4e.com.html#bo4e.com.zeitraum.Zeitraum" target="_top" title="https://bo4e.github.io/BO4E-python/latest/api/bo4e.com.html#bo4e.com.zeitraum.Zeitraum" xlink:actuate="onRequest" xlink:href="https://bo4e.github.io/BO4E-python/latest/api/bo4e.com.html#bo4e.com.zeitraum.Zeitraum" xlink:show="new" xlink:title="https://bo4e.github.io/BO4E-python/latest/api/bo4e.com.html#bo4e.com.zeitraum.Zeitraum" xlink:type="simple"><text fill="#0000FF" font-family="sans-serif" font-size="14" lengthAdjust="spacing" text-decoration="underline" textLength="62" x="1175.5" y="102.0251">Zeitraum</text></a><text fill="#000000" font-family="sans-serif" font-size="10" lengthAdjust="spacing" textLength="94" x="1159.5" y="114.6091">bo4e.com.zeitraum</text></g><!--class COM--><g id="elem_COM"><rect codeLine="17" fill="#F1F1F1" height="37.9375" id="COM" rx="2.5" ry="2.5" style="stroke:#181818;stroke-width:0.5;" width="104" x="1141.5" y="157.03"/><ellipse cx="1156.5" cy="175.9987" fill="#ADD1B2" rx="11" ry="11" style="stroke:#181818;stroke-width:1.0;"/><path d="M1159.4688,181.6394 Q1158.8906,181.9362 1158.25,182.0769 Q1157.6094,182.2331 1156.9063,182.2331 Q1154.4063,182.2331 1153.0781,180.5925 Q1151.7656,178.9362 1151.7656,175.8112 Q1151.7656,172.6862 1153.0781,171.03 Q1154.4063,169.3737 1156.9063,169.3737 Q1157.6094,169.3737 1158.25,169.53 Q1158.9063,169.6862 1159.4688,169.9831 L1159.4688,172.7019 Q1158.8438,172.1237 1158.25,171.8581 Q1157.6563,171.5769 1157.0313,171.5769 Q1155.6875,171.5769 1155,172.655 Q1154.3125,173.7175 1154.3125,175.8112 Q1154.3125,177.905 1155,178.9831 Q1155.6875,180.0456 1157.0313,180.0456 Q1157.6563,180.0456 1158.25,179.78 Q1158.8438,179.4987 1159.4688,178.9206 L1159.4688,181.6394 Z " fill="#000000"/><a href="https://bo4e.github.io/BO4E-python/latest/api/bo4e.com.html#bo4e.com.com.COM" target="_top" title="https://bo4e.github.io/BO4E-python/latest/api/bo4e.com.html#bo4e.com.com.COM" xlink:actuate="onRequest" xlink:href="https://bo4e.github.io/BO4E-python/latest/api/bo4e.com.html#bo4e.com.com.COM" xlink:show="new" xlink:title="https://bo4e.github.io/BO4E-python/latest/api/bo4e.com.html#bo4e.com.com.COM" xlink:type="simple"><text fill="#0000FF" font-family="sans-serif" font-size="14" lengthAdjust="spacing" text-decoration="underline" textLength="33" x="1190" y="175.0251">COM</text></a><text fill="#000000" font-family="sans-serif" font-size="10" lengthAdjust="spacing" textLength="72" x="1170.5" y="187.6091">bo4e.com.com</text></g><!--class Menge--><g id="elem_Menge"><rect codeLine="18" fill="#F1F1F1" height="37.9375" id="Menge" rx="2.5" ry="2.5" style="stroke:#181818;stroke-width:0.5;" width="117" x="1135" y="230.03"/><ellipse cx="1150" cy="248.9987" fill="#ADD1B2" rx="11" ry="11" style="stroke:#181818;stroke-width:1.0;"/><path d="M1152.9688,254.6394 Q1152.3906,254.9362 1151.75,255.0769 Q1151.1094,255.2331 1150.4063,255.2331 Q1147.9063,255.2331 1146.5781,253.5925 Q1145.2656,251.9362 1145.2656,248.8112 Q1145.2656,245.6862 1146.5781,244.03 Q1147.9063,242.3737 1150.4063,242.3737 Q1151.1094,242.3737 1151.75,242.53 Q1152.4063,242.6862 1152.9688,242.9831 L1152.9688,245.7019 Q1152.3438,245.1237 1151.75,244.8581 Q1151.1563,244.5769 1150.5313,244.5769 Q1149.1875,244.5769 1148.5,245.655 Q1147.8125,246.7175 1147.8125,248.8112 Q1147.8125,250.905 1148.5,251.9831 Q1149.1875,253.0456 1150.5313,253.0456 Q1151.1563,253.0456 1151.75,252.78 Q1152.3438,252.4987 1152.9688,251.9206 L1152.9688,254.6394 Z " fill="#000000"/><a href="https://bo4e.github.io/BO4E-python/latest/api/bo4e.com.html#bo4e.com.menge.Menge" target="_top" title="https://bo4e.github.io/BO4E-python/latest/api/bo4e.com.html#bo4e.com.menge.Menge" xlink:actuate="onRequest" xlink:href="https://bo4e.github.io/BO4E-python/latest/api/bo4e.com.html#bo4e.com.menge.Menge" xlink:show="new" xlink:title="https://bo4e.github.io/BO4E-python/latest/api/bo4e.com.html#bo4e.com.menge.Menge" xlink:type="simple"><text fill="#0000FF" font-family="sans-serif" font-size="14" lengthAdjust="spacing" text-decoration="underline" textLength="48" x="1182.5" y="248.0251">Menge</text></a><text fill="#000000" font-family="sans-serif" font-size="10" lengthAdjust="spacing" textLength="85" x="1164" y="260.6091">bo4e.com.menge</text></g><!--class Adresse--><g id="elem_Adresse"><rect codeLine="19" fill="#F1F1F1" height="37.9375" id="Adresse" rx="2.5" ry="2.5" style="stroke:#181818;stroke-width:0.5;" width="121" x="1133" y="303.03"/><ellipse cx="1148" cy="321.9988" fill="#ADD1B2" rx="11" ry="11" style="stroke:#181818;stroke-width:1.0;"/><path d="M1150.9688,327.6394 Q1150.3906,327.9363 1149.75,328.0769 Q1149.1094,328.2331 1148.4063,328.2331 Q1145.9063,328.2331 1144.5781,326.5925 Q1143.2656,324.9363 1143.2656,321.8113 Q1143.2656,318.6863 1144.5781,317.03 Q1145.9063,315.3738 1148.4063,315.3738 Q1149.1094,315.3738 1149.75,315.53 Q1150.4063,315.6863 1150.9688,315.9831 L1150.9688,318.7019 Q1150.3438,318.1238 1149.75,317.8581 Q1149.1563,317.5769 1148.5313,317.5769 Q1147.1875,317.5769 1146.5,318.655 Q1145.8125,319.7175 1145.8125,321.8113 Q1145.8125,323.905 1146.5,324.9831 Q1147.1875,326.0456 1148.5313,326.0456 Q1149.1563,326.0456 1149.75,325.78 Q1150.3438,325.4988 1150.9688,324.9206 L1150.9688,327.6394 Z " fill="#000000"/><a href="https://bo4e.github.io/BO4E-python/latest/api/bo4e.com.html#bo4e.com.adresse.Adresse" target="_top" title="https://bo4e.github.io/BO4E-python/latest/api/bo4e.com.html#bo4e.com.adresse.Adresse" xlink:actuate="onRequest" xlink:href="https://bo4e.github.io/BO4E-python/latest/api/bo4e.com.html#bo4e.com.adresse.Adresse" xlink:show="new" xlink:title="https://bo4e.github.io/BO4E-python/latest/api/bo4e.com.html#bo4e.com.adresse.Adresse" xlink:type="simple"><text fill="#0000FF" font-family="sans-serif" font-size="14" lengthAdjust="spacing" text-decoration="underline" textLength="57" x="1178" y="321.0251">Adresse</text></a><text fill="#000000" font-family="sans-serif" font-size="10" lengthAdjust="spacing" textLength="89" x="1162" y="333.6091">bo4e.com.adresse</text></g><!--class Zaehlertyp--><g id="elem_Zaehlertyp"><rect codeLine="22" fill="#F1F1F1" height="37.9375" id="Zaehlertyp" rx="2.5" ry="2.5" style="stroke:#181818;stroke-width:0.5;" width="141" x="1123" y="416.03"/><ellipse cx="1138" cy="434.9988" fill="#ADD1B2" rx="11" ry="11" style="stroke:#181818;stroke-width:1.0;"/><path d="M1140.9688,440.6394 Q1140.3906,440.9363 1139.75,441.0769 Q1139.1094,441.2331 1138.4063,441.2331 Q1135.9063,441.2331 1134.5781,439.5925 Q1133.2656,437.9363 1133.2656,434.8113 Q1133.2656,431.6863 1134.5781,430.03 Q1135.9063,428.3738 1138.4063,428.3738 Q1139.1094,428.3738 1139.75,428.53 Q1140.4063,428.6863 1140.9688,428.9831 L1140.9688,431.7019 Q1140.3438,431.1238 1139.75,430.8581 Q1139.1563,430.5769 1138.5313,430.5769 Q1137.1875,430.5769 1136.5,431.655 Q1135.8125,432.7175 1135.8125,434.8113 Q1135.8125,436.905 1136.5,437.9831 Q1137.1875,439.0456 1138.5313,439.0456 Q1139.1563,439.0456 1139.75,438.78 Q1140.3438,438.4988 1140.9688,437.9206 L1140.9688,440.6394 Z " fill="#000000"/><a href="https://bo4e.github.io/BO4E-python/latest/api/bo4e.enum.html#bo4e.enum.zaehlertyp.Zaehlertyp" target="_top" title="https://bo4e.github.io/BO4E-python/latest/api/bo4e.enum.html#bo4e.enum.zaehlertyp.Zaehlertyp" xlink:actuate="onRequest" xlink:href="https://bo4e.github.io/BO4E-python/latest/api/bo4e.enum.html#bo4e.enum.zaehlertyp.Zaehlertyp" xlink:show="new" xlink:title="https://bo4e.github.io/BO4E-python/latest/api/bo4e.enum.html#bo4e.enum.zaehlertyp.Zaehlertyp" xlink:type="simple"><text fill="#0000FF" font-family="sans-serif" font-size="14" lengthAdjust="spacing" text-decoration="underline" textLength="74" x="1169.5" y="434.0251">Zaehlertyp</text></a><text fill="#000000" font-family="sans-serif" font-size="10" lengthAdjust="spacing" textLength="109" x="1152" y="446.6091">bo4e.enum.zaehlertyp</text></g><!--class Ausschreibungsdetail--><g id="elem_Ausschreibungsdetail"><rect codeLine="3" fill="#F1F1F1" height="192.6094" id="Ausschreibungsdetail" rx="2.5" ry="2.5" style="stroke:#181818;stroke-width:0.5;" width="838" x="7" y="161.7"/><ellipse cx="346.25" cy="180.6688" fill="#ADD1B2" rx="11" ry="11" style="stroke:#181818;stroke-width:1.0;"/><path d="M349.2188,186.3094 Q348.6406,186.6063 348,186.7469 Q347.3594,186.9031 346.6563,186.9031 Q344.1563,186.9031 342.8281,185.2625 Q341.5156,183.6063 341.5156,180.4813 Q341.5156,177.3563 342.8281,175.7 Q344.1563,174.0438 346.6563,174.0438 Q347.3594,174.0438 348,174.2 Q348.6563,174.3563 349.2188,174.6531 L349.2188,177.3719 Q348.5938,176.7938 348,176.5281 Q347.4063,176.2469 346.7813,176.2469 Q345.4375,176.2469 344.75,177.325 Q344.0625,178.3875 344.0625,180.4813 Q344.0625,182.575 344.75,183.6531 Q345.4375,184.7156 346.7813,184.7156 Q347.4063,184.7156 348,184.45 Q348.5938,184.1688 349.2188,183.5906 L349.2188,186.3094 Z " fill="#000000"/><a href="https://bo4e.github.io/BO4E-python/latest/api/bo4e.com.html#bo4e.com.ausschreibungsdetail.Ausschreibungsdetail" target="_top" title="https://bo4e.github.io/BO4E-python/latest/api/bo4e.com.html#bo4e.com.ausschreibungsdetail.Ausschreibungsdetail" xlink:actuate="onRequest" xlink:href="https://bo4e.github.io/BO4E-python/latest/api/bo4e.com.html#bo4e.com.ausschreibungsdetail.Ausschreibungsdetail" xlink:show="new" xlink:title="https://bo4e.github.io/BO4E-python/latest/api/bo4e.com.html#bo4e.com.ausschreibungsdetail.Ausschreibungsdetail" xlink:type="simple"><text fill="#0000FF" font-family="sans-serif" font-size="14" lengthAdjust="spacing" text-decoration="underline" textLength="149" x="367.75" y="179.6951">Ausschreibungsdetail</text></a><text fill="#000000" font-family="sans-serif" font-size="10" lengthAdjust="spacing" textLength="151" x="366.75" y="192.2791">bo4e.com.ausschreibungsdetail</text><line style="stroke:#181818;stroke-width:0.5;" x1="8" x2="844" y1="199.6375" y2="199.6375"/><text fill="#000000" font-family="sans-serif" font-size="14" lengthAdjust="spacing" textLength="826" x="13" y="216.6326">_typ : Literal[&lt;ComTyp.AUSSCHREIBUNGSDETAIL: 'AUSSCHREIBUNGSDETAIL'&gt;] [1] = ComTyp.AUSSCHREIBUNGSDETAIL</text><text fill="#000000" font-family="sans-serif" font-size="14" lengthAdjust="spacing" textLength="241" x="13" y="232.9295">marktlokationsId : str [0..1] = None</text><text fill="#000000" font-family="sans-serif" font-size="14" lengthAdjust="spacing" textLength="268" x="13" y="249.2264">netzebeneLieferung : str [0..1] = None</text><text fill="#000000" font-family="sans-serif" font-size="14" lengthAdjust="spacing" textLength="268" x="13" y="265.5232">netzebeneMessung : str [0..1] = None</text><text fill="#000000" font-family="sans-serif" font-size="14" lengthAdjust="spacing" textLength="222" x="13" y="281.8201">netzbetreiber : str [0..1] = None</text><text fill="#000000" font-family="sans-serif" font-size="14" lengthAdjust="spacing" textLength="172" x="13" y="298.117">kunde : str [0..1] = None</text><text fill="#000000" font-family="sans-serif" font-size="14" lengthAdjust="spacing" textLength="237" x="13" y="314.4139">zaehlernummer : str [0..1] = None</text><text fill="#000000" font-family="sans-serif" font-size="14" lengthAdjust="spacing" textLength="320" x="13" y="330.7107">marktlokationsbezeichnung : str [0..1] = None</text><text fill="#000000" font-family="sans-serif" font-size="14" lengthAdjust="spacing" textLength="295" x="13" y="347.0076">istLastgangVorhanden : bool [0..1] = None</text></g><!--link Ausschreibungsdetail to COM--><g id="link_Ausschreibungsdetail_COM"><path codeLine="25" d="M845.48,178 C855.4,176.9 865.25,175.9 875,175 C959.98,167.19 981.67,174.66 1067,175 C1091.4,175.1 1100.4807,175.1416 1123.2107,175.3416 " fill="none" id="Ausschreibungsdetail-to-COM" style="stroke:#181818;stroke-width:1.0;"/><polygon fill="none" points="1141.21,175.5,1123.2635,169.3419,1123.1579,181.3414,1141.21,175.5" style="stroke:#181818;stroke-width:1.0;"/></g><!--link Ausschreibungsdetail to Adresse--><g id="link_Ausschreibungsdetail_Adresse"><path codeLine="26" d="M845.38,311.63 C855.35,312.47 865.23,313.27 875,314 C964.63,320.71 1056.84,322.0937 1120.72,322.2337 " fill="none" id="Ausschreibungsdetail-to-Adresse" style="stroke:#181818;stroke-width:1.0;"/><polygon fill="#181818" points="1132.72,322.26,1126.7288,318.2469,1120.72,322.2337,1126.7112,326.2468,1132.72,322.26" style="stroke:#181818;stroke-width:1.0;"/><text fill="#000000" font-family="sans-serif" font-size="13" lengthAdjust="spacing" textLength="146" x="898" y="310.0669">marktlokationsadresse</text><text fill="#000000" font-family="sans-serif" font-size="13" lengthAdjust="spacing" textLength="24" x="1101.2146" y="318.5872">0..1</text></g><!--link Ausschreibungsdetail to Adresse--><g id="link_Ausschreibungsdetail_Adresse"><path codeLine="27" d="M845.14,344.86 C918.94,351.98 995.13,354.09 1067,347 C1088.56,344.87 1100.1522,343.1875 1120.7922,338.8875 " fill="none" id="Ausschreibungsdetail-to-Adresse-1" style="stroke:#181818;stroke-width:1.0;"/><polygon fill="#181818" points="1132.54,336.44,1125.8503,333.7478,1120.7922,338.8875,1127.4819,341.5796,1132.54,336.44" style="stroke:#181818;stroke-width:1.0;"/><text fill="#000000" font-family="sans-serif" font-size="13" lengthAdjust="spacing" textLength="118" x="912" y="343.0669">rechnungsadresse</text><text fill="#000000" font-family="sans-serif" font-size="13" lengthAdjust="spacing" textLength="24" x="1101.016" y="350.7764">0..1</text></g><!--link Ausschreibungsdetail to Zeitraum--><g id="link_Ausschreibungsdetail_Zeitraum"><path codeLine="28" d="M810.13,161.26 C832.03,156.56 853.77,152.1 875,148 C963.01,131 1053.9835,119.0035 1118.2235,111.3835 " fill="none" id="Ausschreibungsdetail-to-Zeitraum" style="stroke:#181818;stroke-width:1.0;"/><polygon fill="#181818" points="1130.14,109.97,1123.7106,106.7046,1118.2235,111.3835,1124.6529,114.6489,1130.14,109.97" style="stroke:#181818;stroke-width:1.0;"/><text fill="#000000" font-family="sans-serif" font-size="13" lengthAdjust="spacing" textLength="88" x="927" y="115.0669">lieferzeitraum</text><text fill="#000000" font-family="sans-serif" font-size="13" lengthAdjust="spacing" textLength="24" x="1098.3685" y="123.5361">0..1</text></g><!--link Ausschreibungsdetail to Zaehlertyp--><g id="link_Ausschreibungsdetail_Zaehlertyp"><path codeLine="29" d="M780.96,354.78 C812.68,362.62 844.37,370.15 875,377 C959.76,395.97 1046.4307,411.2727 1110.9707,421.9427 " fill="none" id="Ausschreibungsdetail-to-Zaehlertyp" style="stroke:#181818;stroke-width:1.0;"/><polygon fill="#181818" points="1122.81,423.9,1117.5428,418.9749,1110.9707,421.9427,1116.2379,426.8678,1122.81,423.9" style="stroke:#181818;stroke-width:1.0;"/><text fill="#000000" font-family="sans-serif" font-size="13" lengthAdjust="spacing" textLength="93" x="924.5" y="373.0669">zaehlertechnik</text><text fill="#000000" font-family="sans-serif" font-size="13" lengthAdjust="spacing" textLength="24" x="1090.9286" y="435.6302">0..1</text></g><!--link Ausschreibungsdetail to Menge--><g id="link_Ausschreibungsdetail_Menge"><path codeLine="30" d="M845.4,200.81 C919.43,198.22 995.64,200.43 1067,211 C1091.77,214.67 1107.0387,218.4267 1129.3787,225.8267 " fill="none" id="Ausschreibungsdetail-to-Menge" style="stroke:#181818;stroke-width:1.0;"/><polygon fill="#181818" points="1140.77,229.6,1136.3321,223.9162,1129.3787,225.8267,1133.8166,231.5105,1140.77,229.6" style="stroke:#181818;stroke-width:1.0;"/><text fill="#000000" font-family="sans-serif" font-size="13" lengthAdjust="spacing" textLength="136" x="903" y="196.0669">prognoseJahresarbeit</text><text fill="#000000" font-family="sans-serif" font-size="13" lengthAdjust="spacing" textLength="24" x="1102.6103" y="220.7973">0..1</text></g><!--link Ausschreibungsdetail to Menge--><g id="link_Ausschreibungsdetail_Menge"><path codeLine="31" d="M845.31,253.08 C959.86,251.74 1058.1308,250.5815 1122.5908,249.8215 " fill="none" id="Ausschreibungsdetail-to-Menge-1" style="stroke:#181818;stroke-width:1.0;"/><polygon fill="#181818" points="1134.59,249.68,1128.5433,245.751,1122.5908,249.8215,1128.6376,253.7505,1134.59,249.68" style="stroke:#181818;stroke-width:1.0;"/><text fill="#000000" font-family="sans-serif" font-size="13" lengthAdjust="spacing" textLength="190" x="876" y="247.0669">prognoseArbeitLieferzeitraum</text><text fill="#000000" font-family="sans-serif" font-size="13" lengthAdjust="spacing" textLength="24" x="1102.8342" y="262.649">0..1</text></g><!--link Ausschreibungsdetail to Menge--><g id="link_Ausschreibungsdetail_Menge"><path codeLine="32" d="M845.14,288.46 C919.2,288.91 995.48,286.16 1067,278 C1089.33,275.45 1101.8138,273.2919 1122.9038,268.1319 " fill="none" id="Ausschreibungsdetail-to-Menge-2" style="stroke:#181818;stroke-width:1.0;"/><polygon fill="#181818" points="1134.56,265.28,1127.7813,262.8205,1122.9038,268.1319,1129.6825,270.5913,1134.56,265.28" style="stroke:#181818;stroke-width:1.0;"/><text fill="#000000" font-family="sans-serif" font-size="13" lengthAdjust="spacing" textLength="114" x="914" y="274.0669">prognoseLeistung</text><text fill="#000000" font-family="sans-serif" font-size="13" lengthAdjust="spacing" textLength="24" x="1102.8009" y="279.9552">0..1</text></g><!--SRC=[hLLHRzem47vkViK97YfD8e3MJLNK8QKCRKoXbKQxXp8qEScHM2HsP3kQODj_dvEGG3l3Dk31YS_vxlpvyjqvmOK2nK7GA5OGKe61efnPLf0GAQ4rcyLAPTBfTdr-XNP4LPpxDkNTs_khKITRgPYpRa8KIjKb6QrG0K_jMAL9kx58BcKG2wH-pY8PeY8qiLt38fWMv_Elx4RIDJhztk1Wp1OGQGm1FwoBRsgLWGCULIX8ChiPylHXbTdkutGw_FXvDBvzlFimVJzwSCUU0vUcvSl176RzERo30xxMHKh4KYLyIOfKod6eDvLAmAndswNp7MTeNJ1KQ_IHeKTnWK9p_GjkWb8UHFceYbEZC4EMEGlH_6bDC4vGi3nDzta_FvIFQwH1pFRoeL9vHAg8iEWB5p7HMpEDz3bFNa1_MHOZASgC17YYuA2svlDI2RK9xL7FlNuxB5HmNc7hB2X1yjH-saoWdfX5M-DBUZNqtAIACRoVW1vc5dgK13JWt7kdo2Aq9yKJogUPGGahEPIWSxCWeT35WhPRlM7ptjD8gezLxwZcMfIdQX9rCUs8iZ1tLLdOq0xxmUitrwVAijcglJKt5QrRdltKJ64x_JCLBzmgXJPcKQRcZjtf_1mqbLReRWzE0rz1goZzrXPU_o07dlUNpJyvBfI-nChET4oKfeuTICg-N5VilmOfqxYJSWVgd1QiwF9_o5Hbv40cUCIun4z4kqaYVCtfb3Xk6S4xwdocU1xgTg-TB2kc-ef9CTMNaBHapB-3EUo2OXBAtm00]--></g></svg>