<?xml version="1.0" encoding="us-ascii" standalone="no"?><svg xmlns="http://www.w3.org/2000/svg" xmlns:xlink="http://www.w3.org/1999/xlink" contentStyleType="text/css" height="506px" preserveAspectRatio="none" style="width:805px;height:506px;background:#FFFFFF;" version="1.1" viewBox="0 0 805 506" width="805px" zoomAndPan="magnify"><defs/><g><!--cluster bo4e--><g id="cluster_bo4e"><path d="M579.5,11.5659 L620.5,11.5659 A3.75,3.75 0 0 1 623,14.0659 L630,33.8628 L795.5,33.8628 A2.5,2.5 0 0 1 798,36.3628 L798,497.0659 A2.5,2.5 0 0 1 795.5,499.5659 L579.5,499.5659 A2.5,2.5 0 0 1 577,497.0659 L577,14.0659 A2.5,2.5 0 0 1 579.5,11.5659 " fill="none" style="stroke:#000000;stroke-width:1.5;"/><line style="stroke:#000000;stroke-width:1.5;" x1="577" x2="630" y1="33.8628" y2="33.8628"/><text fill="#000000" font-family="sans-serif" font-size="14" font-weight="bold" lengthAdjust="spacing" textLength="40" x="581" y="26.561">bo4e</text></g><!--cluster com--><g id="cluster_com"><path d="M611,54.5659 L690,54.5659 A3.75,3.75 0 0 1 692.5,57.0659 L699.5,76.8628 L764,76.8628 A2.5,2.5 0 0 1 766.5,79.3628 L766.5,360.0659 A2.5,2.5 0 0 1 764,362.5659 L611,362.5659 A2.5,2.5 0 0 1 608.5,360.0659 L608.5,57.0659 A2.5,2.5 0 0 1 611,54.5659 " fill="#E0A86C" style="stroke:#000000;stroke-width:1.5;"/><line style="stroke:#000000;stroke-width:1.5;" x1="608.5" x2="699.5" y1="76.8628" y2="76.8628"/><a href="https://bo4e.github.io/BO4E-python/latest/api/bo4e.com.html" target="_top" title="https://bo4e.github.io/BO4E-python/latest/api/bo4e.com.html" xlink:actuate="onRequest" xlink:href="https://bo4e.github.io/BO4E-python/latest/api/bo4e.com.html" xlink:show="new" xlink:title="https://bo4e.github.io/BO4E-python/latest/api/bo4e.com.html" xlink:type="simple"><text fill="#0000FF" font-family="sans-serif" font-size="14" font-weight="bold" lengthAdjust="spacing" text-decoration="underline" textLength="78" x="612.5" y="69.561">bo4e.com</text></a></g><!--cluster enum--><g id="cluster_enum"><path d="M603.5,386.5659 L693.5,386.5659 A3.75,3.75 0 0 1 696,389.0659 L703,408.8628 L771.5,408.8628 A2.5,2.5 0 0 1 774,411.3628 L774,473.0659 A2.5,2.5 0 0 1 771.5,475.5659 L603.5,475.5659 A2.5,2.5 0 0 1 601,473.0659 L601,389.0659 A2.5,2.5 0 0 1 603.5,386.5659 " fill="#D1C358" style="stroke:#000000;stroke-width:1.5;"/><line style="stroke:#000000;stroke-width:1.5;" x1="601" x2="703" y1="408.8628" y2="408.8628"/><a href="https://bo4e.github.io/BO4E-python/latest/api/bo4e.enum.html" target="_top" title="https://bo4e.github.io/BO4E-python/latest/api/bo4e.enum.html" xlink:actuate="onRequest" xlink:href="https://bo4e.github.io/BO4E-python/latest/api/bo4e.enum.html" xlink:show="new" xlink:title="https://bo4e.github.io/BO4E-python/latest/api/bo4e.enum.html" xlink:type="simple"><text fill="#0000FF" font-family="sans-serif" font-size="14" font-weight="bold" lengthAdjust="spacing" text-decoration="underline" textLength="89" x="605" y="401.561">bo4e.enum</text></a></g><!--class Menge--><g id="elem_Menge"><rect codeLine="15" fill="#F1F1F1" height="37.9375" id="Menge" rx="2.5" ry="2.5" style="stroke:#181818;stroke-width:0.5;" width="117" x="629" y="89.5959"/><ellipse cx="644" cy="108.5647" fill="#ADD1B2" rx="11" ry="11" style="stroke:#181818;stroke-width:1.0;"/><path d="M646.9688,114.2053 Q646.3906,114.5022 645.75,114.6428 Q645.1094,114.799 644.4063,114.799 Q641.9063,114.799 640.5781,113.1584 Q639.2656,111.5022 639.2656,108.3772 Q639.2656,105.2522 640.5781,103.5959 Q641.9063,101.9397 644.4063,101.9397 Q645.1094,101.9397 645.75,102.0959 Q646.4063,102.2522 646.9688,102.549 L646.9688,105.2678 Q646.3438,104.6897 645.75,104.424 Q645.1563,104.1428 644.5313,104.1428 Q643.1875,104.1428 642.5,105.2209 Q641.8125,106.2834 641.8125,108.3772 Q641.8125,110.4709 642.5,111.549 Q643.1875,112.6115 644.5313,112.6115 Q645.1563,112.6115 645.75,112.3459 Q646.3438,112.0647 646.9688,111.4865 L646.9688,114.2053 Z " fill="#000000"/><a href="https://bo4e.github.io/BO4E-python/latest/api/bo4e.com.html#bo4e.com.menge.Menge" target="_top" title="https://bo4e.github.io/BO4E-python/latest/api/bo4e.com.html#bo4e.com.menge.Menge" xlink:actuate="onRequest" xlink:href="https://bo4e.github.io/BO4E-python/latest/api/bo4e.com.html#bo4e.com.menge.Menge" xlink:show="new" xlink:title="https://bo4e.github.io/BO4E-python/latest/api/bo4e.com.html#bo4e.com.menge.Menge" xlink:type="simple"><text fill="#0000FF" font-family="sans-serif" font-size="14" lengthAdjust="spacing" text-decoration="underline" textLength="48" x="676.5" y="107.591">Menge</text></a><text fill="#000000" font-family="sans-serif" font-size="10" lengthAdjust="spacing" textLength="85" x="658" y="120.175">bo4e.com.menge</text></g><!--class Adresse--><g id="elem_Adresse"><rect codeLine="16" fill="#F1F1F1" height="37.9375" id="Adresse" rx="2.5" ry="2.5" style="stroke:#181818;stroke-width:0.5;" width="121" x="627" y="162.5959"/><ellipse cx="642" cy="181.5647" fill="#ADD1B2" rx="11" ry="11" style="stroke:#181818;stroke-width:1.0;"/><path d="M644.9688,187.2053 Q644.3906,187.5022 643.75,187.6428 Q643.1094,187.799 642.4063,187.799 Q639.9063,187.799 638.5781,186.1584 Q637.2656,184.5022 637.2656,181.3772 Q637.2656,178.2522 638.5781,176.5959 Q639.9063,174.9397 642.4063,174.9397 Q643.1094,174.9397 643.75,175.0959 Q644.4063,175.2522 644.9688,175.549 L644.9688,178.2678 Q644.3438,177.6897 643.75,177.424 Q643.1563,177.1428 642.5313,177.1428 Q641.1875,177.1428 640.5,178.2209 Q639.8125,179.2834 639.8125,181.3772 Q639.8125,183.4709 640.5,184.549 Q641.1875,185.6115 642.5313,185.6115 Q643.1563,185.6115 643.75,185.3459 Q644.3438,185.0647 644.9688,184.4865 L644.9688,187.2053 Z " fill="#000000"/><a href="https://bo4e.github.io/BO4E-python/latest/api/bo4e.com.html#bo4e.com.adresse.Adresse" target="_top" title="https://bo4e.github.io/BO4E-python/latest/api/bo4e.com.html#bo4e.com.adresse.Adresse" xlink:actuate="onRequest" xlink:href="https://bo4e.github.io/BO4E-python/latest/api/bo4e.com.html#bo4e.com.adresse.Adresse" xlink:show="new" xlink:title="https://bo4e.github.io/BO4E-python/latest/api/bo4e.com.html#bo4e.com.adresse.Adresse" xlink:type="simple"><text fill="#0000FF" font-family="sans-serif" font-size="14" lengthAdjust="spacing" text-decoration="underline" textLength="57" x="672" y="180.591">Adresse</text></a><text fill="#000000" font-family="sans-serif" font-size="10" lengthAdjust="spacing" textLength="89" x="656" y="193.175">bo4e.com.adresse</text></g><!--class Zeitraum--><g id="elem_Zeitraum"><rect codeLine="17" fill="#F1F1F1" height="37.9375" id="Zeitraum" rx="2.5" ry="2.5" style="stroke:#181818;stroke-width:0.5;" width="126" x="624.5" y="235.5959"/><ellipse cx="639.5" cy="254.5647" fill="#ADD1B2" rx="11" ry="11" style="stroke:#181818;stroke-width:1.0;"/><path d="M642.4688,260.2053 Q641.8906,260.5022 641.25,260.6428 Q640.6094,260.799 639.9063,260.799 Q637.4063,260.799 636.0781,259.1584 Q634.7656,257.5022 634.7656,254.3772 Q634.7656,251.2522 636.0781,249.5959 Q637.4063,247.9397 639.9063,247.9397 Q640.6094,247.9397 641.25,248.0959 Q641.9063,248.2522 642.4688,248.549 L642.4688,251.2678 Q641.8438,250.6897 641.25,250.424 Q640.6563,250.1428 640.0313,250.1428 Q638.6875,250.1428 638,251.2209 Q637.3125,252.2834 637.3125,254.3772 Q637.3125,256.4709 638,257.549 Q638.6875,258.6115 640.0313,258.6115 Q640.6563,258.6115 641.25,258.3459 Q641.8438,258.0647 642.4688,257.4865 L642.4688,260.2053 Z " fill="#000000"/><a href="https://bo4e.github.io/BO4E-python/latest/api/bo4e.com.html#bo4e.com.zeitraum.Zeitraum" target="_top" title="https://bo4e.github.io/BO4E-python/latest/api/bo4e.com.html#bo4e.com.zeitraum.Zeitraum" xlink:actuate="onRequest" xlink:href="https://bo4e.github.io/BO4E-python/latest/api/bo4e.com.html#bo4e.com.zeitraum.Zeitraum" xlink:show="new" xlink:title="https://bo4e.github.io/BO4E-python/latest/api/bo4e.com.html#bo4e.com.zeitraum.Zeitraum" xlink:type="simple"><text fill="#0000FF" font-family="sans-serif" font-size="14" lengthAdjust="spacing" text-decoration="underline" textLength="62" x="669.5" y="253.591">Zeitraum</text></a><text fill="#000000" font-family="sans-serif" font-size="10" lengthAdjust="spacing" textLength="94" x="653.5" y="266.175">bo4e.com.zeitraum</text></g><!--class COM--><g id="elem_COM"><rect codeLine="18" fill="#F1F1F1" height="37.9375" id="COM" rx="2.5" ry="2.5" style="stroke:#181818;stroke-width:0.5;" width="104" x="635.5" y="308.5959"/><ellipse cx="650.5" cy="327.5647" fill="#ADD1B2" rx="11" ry="11" style="stroke:#181818;stroke-width:1.0;"/><path d="M653.4688,333.2053 Q652.8906,333.5022 652.25,333.6428 Q651.6094,333.799 650.9063,333.799 Q648.4063,333.799 647.0781,332.1584 Q645.7656,330.5022 645.7656,327.3772 Q645.7656,324.2522 647.0781,322.5959 Q648.4063,320.9397 650.9063,320.9397 Q651.6094,320.9397 652.25,321.0959 Q652.9063,321.2522 653.4688,321.549 L653.4688,324.2678 Q652.8438,323.6897 652.25,323.424 Q651.6563,323.1428 651.0313,323.1428 Q649.6875,323.1428 649,324.2209 Q648.3125,325.2834 648.3125,327.3772 Q648.3125,329.4709 649,330.549 Q649.6875,331.6115 651.0313,331.6115 Q651.6563,331.6115 652.25,331.3459 Q652.8438,331.0647 653.4688,330.4865 L653.4688,333.2053 Z " fill="#000000"/><a href="https://bo4e.github.io/BO4E-python/latest/api/bo4e.com.html#bo4e.com.com.COM" target="_top" title="https://bo4e.github.io/BO4E-python/latest/api/bo4e.com.html#bo4e.com.com.COM" xlink:actuate="onRequest" xlink:href="https://bo4e.github.io/BO4E-python/latest/api/bo4e.com.html#bo4e.com.com.COM" xlink:show="new" xlink:title="https://bo4e.github.io/BO4E-python/latest/api/bo4e.com.html#bo4e.com.com.COM" xlink:type="simple"><text fill="#0000FF" font-family="sans-serif" font-size="14" lengthAdjust="spacing" text-decoration="underline" textLength="33" x="684" y="326.591">COM</text></a><text fill="#000000" font-family="sans-serif" font-size="10" lengthAdjust="spacing" textLength="72" x="664.5" y="339.175">bo4e.com.com</text></g><!--class Zaehlertyp--><g id="elem_Zaehlertyp"><rect codeLine="21" fill="#F1F1F1" height="37.9375" id="Zaehlertyp" rx="2.5" ry="2.5" style="stroke:#181818;stroke-width:0.5;" width="141" x="617" y="421.5959"/><ellipse cx="632" cy="440.5647" fill="#ADD1B2" rx="11" ry="11" style="stroke:#181818;stroke-width:1.0;"/><path d="M634.9688,446.2053 Q634.3906,446.5022 633.75,446.6428 Q633.1094,446.799 632.4063,446.799 Q629.9063,446.799 628.5781,445.1584 Q627.2656,443.5022 627.2656,440.3772 Q627.2656,437.2522 628.5781,435.5959 Q629.9063,433.9397 632.4063,433.9397 Q633.1094,433.9397 633.75,434.0959 Q634.4063,434.2522 634.9688,434.549 L634.9688,437.2678 Q634.3438,436.6897 633.75,436.424 Q633.1563,436.1428 632.5313,436.1428 Q631.1875,436.1428 630.5,437.2209 Q629.8125,438.2834 629.8125,440.3772 Q629.8125,442.4709 630.5,443.549 Q631.1875,444.6115 632.5313,444.6115 Q633.1563,444.6115 633.75,444.3459 Q634.3438,444.0647 634.9688,443.4865 L634.9688,446.2053 Z " fill="#000000"/><a href="https://bo4e.github.io/BO4E-python/latest/api/bo4e.enum.html#bo4e.enum.zaehlertyp.Zaehlertyp" target="_top" title="https://bo4e.github.io/BO4E-python/latest/api/bo4e.enum.html#bo4e.enum.zaehlertyp.Zaehlertyp" xlink:actuate="onRequest" xlink:href="https://bo4e.github.io/BO4E-python/latest/api/bo4e.enum.html#bo4e.enum.zaehlertyp.Zaehlertyp" xlink:show="new" xlink:title="https://bo4e.github.io/BO4E-python/latest/api/bo4e.enum.html#bo4e.enum.zaehlertyp.Zaehlertyp" xlink:type="simple"><text fill="#0000FF" font-family="sans-serif" font-size="14" lengthAdjust="spacing" text-decoration="underline" textLength="74" x="663.5" y="439.591">Zaehlertyp</text></a><text fill="#000000" font-family="sans-serif" font-size="10" lengthAdjust="spacing" textLength="109" x="646" y="452.175">bo4e.enum.zaehlertyp</text></g><!--class Ausschreibungsdetail--><g id="elem_Ausschreibungsdetail"><rect codeLine="3" fill="#F1F1F1" height="176.3125" id="Ausschreibungsdetail" rx="2.5" ry="2.5" style="stroke:#181818;stroke-width:0.5;" width="332" x="7" y="114.4059"/><ellipse cx="93.25" cy="133.3747" fill="#ADD1B2" rx="11" ry="11" style="stroke:#181818;stroke-width:1.0;"/><path d="M96.2188,139.0153 Q95.6406,139.3122 95,139.4528 Q94.3594,139.609 93.6563,139.609 Q91.1563,139.609 89.8281,137.9684 Q88.5156,136.3122 88.5156,133.1872 Q88.5156,130.0622 89.8281,128.4059 Q91.1563,126.7497 93.6563,126.7497 Q94.3594,126.7497 95,126.9059 Q95.6563,127.0622 96.2188,127.359 L96.2188,130.0778 Q95.5938,129.4997 95,129.234 Q94.4063,128.9528 93.7813,128.9528 Q92.4375,128.9528 91.75,130.0309 Q91.0625,131.0934 91.0625,133.1872 Q91.0625,135.2809 91.75,136.359 Q92.4375,137.4215 93.7813,137.4215 Q94.4063,137.4215 95,137.1559 Q95.5938,136.8747 96.2188,136.2965 L96.2188,139.0153 Z " fill="#000000"/><a href="https://bo4e.github.io/BO4E-python/latest/api/bo4e.com.html#bo4e.com.ausschreibungsdetail.Ausschreibungsdetail" target="_top" title="https://bo4e.github.io/BO4E-python/latest/api/bo4e.com.html#bo4e.com.ausschreibungsdetail.Ausschreibungsdetail" xlink:actuate="onRequest" xlink:href="https://bo4e.github.io/BO4E-python/latest/api/bo4e.com.html#bo4e.com.ausschreibungsdetail.Ausschreibungsdetail" xlink:show="new" xlink:title="https://bo4e.github.io/BO4E-python/latest/api/bo4e.com.html#bo4e.com.ausschreibungsdetail.Ausschreibungsdetail" xlink:type="simple"><text fill="#0000FF" font-family="sans-serif" font-size="14" lengthAdjust="spacing" text-decoration="underline" textLength="149" x="114.75" y="132.401">Ausschreibungsdetail</text></a><text fill="#000000" font-family="sans-serif" font-size="10" lengthAdjust="spacing" textLength="151" x="113.75" y="144.985">bo4e.com.ausschreibungsdetail</text><line style="stroke:#181818;stroke-width:0.5;" x1="8" x2="338" y1="152.3434" y2="152.3434"/><text fill="#000000" font-family="sans-serif" font-size="14" lengthAdjust="spacing" textLength="241" x="13" y="169.3385">marktlokationsId : str [0..1] = None</text><text fill="#000000" font-family="sans-serif" font-size="14" lengthAdjust="spacing" textLength="268" x="13" y="185.6354">netzebeneLieferung : str [0..1] = None</text><text fill="#000000" font-family="sans-serif" font-size="14" lengthAdjust="spacing" textLength="268" x="13" y="201.9323">netzebeneMessung : str [0..1] = None</text><text fill="#000000" font-family="sans-serif" font-size="14" lengthAdjust="spacing" textLength="222" x="13" y="218.2292">netzbetreiber : str [0..1] = None</text><text fill="#000000" font-family="sans-serif" font-size="14" lengthAdjust="spacing" textLength="172" x="13" y="234.526">kunde : str [0..1] = None</text><text fill="#000000" font-family="sans-serif" font-size="14" lengthAdjust="spacing" textLength="237" x="13" y="250.8229">zaehlernummer : str [0..1] = None</text><text fill="#000000" font-family="sans-serif" font-size="14" lengthAdjust="spacing" textLength="320" x="13" y="267.1198">marktlokationsbezeichnung : str [0..1] = None</text><text fill="#000000" font-family="sans-serif" font-size="14" lengthAdjust="spacing" textLength="295" x="13" y="283.4167">istLastgangVorhanden : bool [0..1] = None</text></g><!--link Ausschreibungsdetail to COM--><g id="link_Ausschreibungsdetail_COM"><path codeLine="24" d="M339.4,262.2359 C349.37,265.2159 359.29,268.0159 369,270.5659 C461.49,294.8359 554.0218,309.6051 617.2618,318.4051 " fill="none" id="Ausschreibungsdetail-to-COM" style="stroke:#181818;stroke-width:1.0;"/><polygon fill="none" points="635.09,320.8859,618.0887,312.4623,616.4348,324.3478,635.09,320.8859" style="stroke:#181818;stroke-width:1.0;"/></g><!--link Ausschreibungsdetail to Adresse--><g id="link_Ausschreibungsdetail_Adresse"><path codeLine="25" d="M339.33,195.7959 C437.77,191.7559 544.7801,187.3774 614.8001,184.5074 " fill="none" id="Ausschreibungsdetail-to-Adresse" style="stroke:#181818;stroke-width:1.0;"/><polygon fill="#181818" points="626.79,184.0159,620.6312,180.265,614.8001,184.5074,620.9588,188.2583,626.79,184.0159" style="stroke:#181818;stroke-width:1.0;"/><text fill="#000000" font-family="sans-serif" font-size="13" lengthAdjust="spacing" textLength="146" x="392" y="183.6328">marktlokationsadresse</text><text fill="#000000" font-family="sans-serif" font-size="13" lengthAdjust="spacing" textLength="24" x="594.8373" y="197.1785">0..1</text></g><!--link Ausschreibungsdetail to Adresse--><g id="link_Ausschreibungsdetail_Adresse"><path codeLine="26" d="M339.49,223.6359 C408.3,228.8259 488.82,230.2559 561,219.5659 C585.77,215.8959 601.0387,212.1392 623.3787,204.7392 " fill="none" id="Ausschreibungsdetail-to-Adresse-1" style="stroke:#181818;stroke-width:1.0;"/><polygon fill="#181818" points="634.77,200.9659,627.8166,199.0555,623.3787,204.7392,630.3321,206.6497,634.77,200.9659" style="stroke:#181818;stroke-width:1.0;"/><text fill="#000000" font-family="sans-serif" font-size="13" lengthAdjust="spacing" textLength="118" x="406" y="215.6328">rechnungsadresse</text><text fill="#000000" font-family="sans-serif" font-size="13" lengthAdjust="spacing" textLength="24" x="594.9921" y="219.6062">0..1</text></g><!--link Ausschreibungsdetail to Zeitraum--><g id="link_Ausschreibungsdetail_Zeitraum"><path codeLine="27" d="M339.39,248.8559 C349.36,250.7059 359.28,252.2959 369,253.5659 C457,265.0259 547.9076,263.1149 612.1576,259.6349 " fill="none" id="Ausschreibungsdetail-to-Zeitraum" style="stroke:#181818;stroke-width:1.0;"/><polygon fill="#181818" points="624.14,258.9859,617.9324,255.3163,612.1576,259.6349,618.3651,263.3046,624.14,258.9859" style="stroke:#181818;stroke-width:1.0;"/><text fill="#000000" font-family="sans-serif" font-size="13" lengthAdjust="spacing" textLength="88" x="421" y="249.6328">lieferzeitraum</text><text fill="#000000" font-family="sans-serif" font-size="13" lengthAdjust="spacing" textLength="24" x="592.3685" y="272.289">0..1</text></g><!--link Ausschreibungsdetail to Zaehlertyp--><g id="link_Ausschreibungsdetail_Zaehlertyp"><path codeLine="28" d="M293.91,291.1459 C318.07,306.8459 343.8,322.1259 369,334.5659 C450.42,374.7659 539.144,402.261 604.954,420.011 " fill="none" id="Ausschreibungsdetail-to-Zaehlertyp" style="stroke:#181818;stroke-width:1.0;"/><polygon fill="#181818" points="616.54,423.1359,611.7887,417.7115,604.954,420.011,609.7054,425.4354,616.54,423.1359" style="stroke:#181818;stroke-width:1.0;"/><text fill="#000000" font-family="sans-serif" font-size="13" lengthAdjust="spacing" textLength="93" x="418.5" y="330.6328">zaehlertechnik</text><text fill="#000000" font-family="sans-serif" font-size="13" lengthAdjust="spacing" textLength="24" x="584.8921" y="434.2936">0..1</text></g><!--link Ausschreibungsdetail to Menge--><g id="link_Ausschreibungsdetail_Menge"><path codeLine="29" d="M255.05,114.3259 C287.34,85.3459 326.86,56.7159 369,41.5659 C449.3,12.6959 478.22,20.8559 561,41.5659 C597.66,50.7359 625.3612,66.1959 649.7312,82.5259 " fill="none" id="Ausschreibungsdetail-to-Menge" style="stroke:#181818;stroke-width:1.0;"/><polygon fill="#181818" points="659.7,89.2059,656.9422,82.543,649.7312,82.5259,652.4889,89.1889,659.7,89.2059" style="stroke:#181818;stroke-width:1.0;"/><text fill="#000000" font-family="sans-serif" font-size="13" lengthAdjust="spacing" textLength="136" x="397" y="19.6328">prognoseJahresarbeit</text><text fill="#000000" font-family="sans-serif" font-size="13" lengthAdjust="spacing" textLength="24" x="624.0088" y="78.4026">0..1</text></g><!--link Ausschreibungsdetail to Menge--><g id="link_Ausschreibungsdetail_Menge"><path codeLine="30" d="M322.75,114.0159 C337.99,107.7659 353.55,102.4259 369,98.5659 C457.55,76.4259 552.4506,85.201 616.8606,95.501 " fill="none" id="Ausschreibungsdetail-to-Menge-1" style="stroke:#181818;stroke-width:1.0;"/><polygon fill="#181818" points="628.71,97.3959,623.4169,92.4987,616.8606,95.501,622.1536,100.3983,628.71,97.3959" style="stroke:#181818;stroke-width:1.0;"/><text fill="#000000" font-family="sans-serif" font-size="13" lengthAdjust="spacing" textLength="190" x="370" y="82.6328">prognoseArbeitLieferzeitraum</text><text fill="#000000" font-family="sans-serif" font-size="13" lengthAdjust="spacing" textLength="24" x="596.9673" y="109.0688">0..1</text></g><!--link Ausschreibungsdetail to Menge--><g id="link_Ausschreibungsdetail_Menge"><path codeLine="31" d="M339.35,168.2459 C349.38,166.2859 359.32,164.3859 369,162.5659 C459.54,145.5859 553.1941,130.0129 616.9041,119.7029 " fill="none" id="Ausschreibungsdetail-to-Menge-2" style="stroke:#181818;stroke-width:1.0;"/><polygon fill="#181818" points="628.75,117.7859,622.1881,114.7958,616.9041,119.7029,623.466,122.693,628.75,117.7859" style="stroke:#181818;stroke-width:1.0;"/><text fill="#000000" font-family="sans-serif" font-size="13" lengthAdjust="spacing" textLength="114" x="408" y="125.6328">prognoseLeistung</text><text fill="#000000" font-family="sans-serif" font-size="13" lengthAdjust="spacing" textLength="24" x="597.0117" y="131.689">0..1</text></g><!--SRC=[hLN1Rjim33tNNq4ajm5r4gmR2cCha1KzR4ZMsmvDSv1jnX9YIuOeOsYs_ViaENRIJkcs90VPfFr4FL6FL8ah0qQ15WKta0kDcH5AHb5MCY8OB1RSc9gIqIXLLnWNml0cZOKQVRg_khkidmnNSbGoWsH6h1OjAbDLp4rL3dkFDKGProZIHXQKes6YZAU1Zn3wk5m-oWyaDfXCnZUlnXm0es08-15TL4olJQdMpEsGFkUG01aDYt4SJvRm4RugYT65HBF152NE1AvGsn1_mSsHw5LKYiQHGHs6h1kPO_ZNXY4lKSkcgWxDVhwf53SeCYuFyX5aPenCmMJnJMdExDBI8bEboXVGNr4aMOLKimnFr05qtdBf3wXpONWtdbw_ltM7SrwzLIWBZEVk2VuPbf27UKeUT6uMBDTM6nXFspTitmVatFvi5TpQv-PZjM4qQwhuOMj0PuGfTNZFgOEUcvGRj_Tpi2FCmWvFm0AiA4_L9DfYsXEbS_TLwNmOvfFixRlhKsNPBpNSkTkADazr_D2Ri3F_JC6BQUrPzAuhqt0ZlRpyUTDNcilm0Pm5le61A_t13jufDe7d_MKhqkD2sRl5TwPZelIAJQ3qVRdJvhy6yMdSIta2NKuTAx7-7p9jNqcWrggGYl0BizE8wTHoEYNEr4UO7RM_KBmPsdPl9qKH5_QAgR2obn15nDLt28TT2Inp-Wq0]--></g></svg>