<svg xmlns="http://www.w3.org/2000/svg" xmlns:xlink="http://www.w3.org/1999/xlink" contentStyleType="text/css" data-diagram-type="CLASS" height="729px" preserveAspectRatio="none" style="width:1295px;height:729px;background:#FFFFFF;" version="1.1" viewBox="0 0 1295 729" width="1295px" zoomAndPan="magnify"><defs/><g><!--cluster bo4e--><g class="cluster" data-entity="bo4e" data-source-line="13" data-uid="ent0005" id="cluster_bo4e"><path d="M1019.37,15.5659 L1059.246,15.5659 A3.75,3.75 0 0 1 1061.746,18.0659 L1068.746,37.8628 L1285.51,37.8628 A2.5,2.5 0 0 1 1288.01,40.3628 L1288.01,720.0659 A2.5,2.5 0 0 1 1285.51,722.5659 L1019.37,722.5659 A2.5,2.5 0 0 1 1016.87,720.0659 L1016.87,18.0659 A2.5,2.5 0 0 1 1019.37,15.5659" fill="none" style="stroke:#000000;stroke-width:1.5;"/><line style="stroke:#000000;stroke-width:1.5;" x1="1016.87" x2="1068.746" y1="37.8628" y2="37.8628"/><text fill="#000000" font-family="sans-serif" font-size="14" font-weight="bold" lengthAdjust="spacing" textLength="38.876" x="1020.87" y="30.561">bo4e</text></g><!--cluster com--><g class="cluster" data-entity="com" data-source-line="12" data-uid="ent0003" id="cluster_com"><path d="M1043.37,58.5659 L1121.0692,58.5659 A3.75,3.75 0 0 1 1123.5692,61.0659 L1130.5692,80.8628 L1261.51,80.8628 A2.5,2.5 0 0 1 1264.01,83.3628 L1264.01,364.0659 A2.5,2.5 0 0 1 1261.51,366.5659 L1043.37,366.5659 A2.5,2.5 0 0 1 1040.87,364.0659 L1040.87,61.0659 A2.5,2.5 0 0 1 1043.37,58.5659" fill="#E0A86C" style="stroke:#000000;stroke-width:1.5;"/><line style="stroke:#000000;stroke-width:1.5;" x1="1040.87" x2="1130.5692" y1="80.8628" y2="80.8628"/><a href="file:////home/runner/work/BO4E-python/BO4E-python/docs/../.tox/docs/tmp/html/api/bo4e.com.html" target="_top" title="file:////home/runner/work/BO4E-python/BO4E-python/docs/../.tox/docs/tmp/html/api/bo4e.com.html" xlink:actuate="onRequest" xlink:href="file:////home/runner/work/BO4E-python/BO4E-python/docs/../.tox/docs/tmp/html/api/bo4e.com.html" xlink:show="new" xlink:title="file:////home/runner/work/BO4E-python/BO4E-python/docs/../.tox/docs/tmp/html/api/bo4e.com.html" xlink:type="simple"><text fill="#0000FF" font-family="sans-serif" font-size="14" font-weight="bold" lengthAdjust="spacing" text-decoration="underline" textLength="76.6992" x="1044.87" y="73.561">bo4e.com</text></a></g><!--cluster enum--><g class="cluster" data-entity="enum" data-source-line="18" data-uid="ent0009" id="cluster_enum"><path d="M1049.5,390.5659 L1138.7109,390.5659 A3.75,3.75 0 0 1 1141.2109,393.0659 L1148.2109,412.8628 L1255.38,412.8628 A2.5,2.5 0 0 1 1257.88,415.3628 L1257.88,696.0659 A2.5,2.5 0 0 1 1255.38,698.5659 L1049.5,698.5659 A2.5,2.5 0 0 1 1047,696.0659 L1047,393.0659 A2.5,2.5 0 0 1 1049.5,390.5659" fill="#D1C358" style="stroke:#000000;stroke-width:1.5;"/><line style="stroke:#000000;stroke-width:1.5;" x1="1047" x2="1148.2109" y1="412.8628" y2="412.8628"/><a href="file:////home/runner/work/BO4E-python/BO4E-python/docs/../.tox/docs/tmp/html/api/bo4e.enum.html" target="_top" title="file:////home/runner/work/BO4E-python/BO4E-python/docs/../.tox/docs/tmp/html/api/bo4e.enum.html" xlink:actuate="onRequest" xlink:href="file:////home/runner/work/BO4E-python/BO4E-python/docs/../.tox/docs/tmp/html/api/bo4e.enum.html" xlink:show="new" xlink:title="file:////home/runner/work/BO4E-python/BO4E-python/docs/../.tox/docs/tmp/html/api/bo4e.enum.html" xlink:type="simple"><text fill="#0000FF" font-family="sans-serif" font-size="14" font-weight="bold" lengthAdjust="spacing" text-decoration="underline" textLength="88.2109" x="1051" y="405.561">bo4e.enum</text></a></g><!--class Menge--><g class="entity" data-entity="Menge" data-source-line="13" data-uid="ent0004" id="entity_Menge"><rect fill="#F1F1F1" height="37.9375" rx="2.5" ry="2.5" style="stroke:#181818;stroke-width:0.5;" width="119.4268" x="1092.72" y="93.5959"/><ellipse cx="1107.72" cy="112.5647" fill="#ADD1B2" rx="11" ry="11" style="stroke:#181818;stroke-width:1;"/><path d="M1110.6888,118.2053 Q1110.1106,118.5022 1109.47,118.6428 Q1108.8294,118.799 1108.1263,118.799 Q1105.6263,118.799 1104.2981,117.1584 Q1102.9856,115.5022 1102.9856,112.3772 Q1102.9856,109.2522 1104.2981,107.5959 Q1105.6263,105.9397 1108.1263,105.9397 Q1108.8294,105.9397 1109.47,106.0959 Q1110.1263,106.2522 1110.6888,106.549 L1110.6888,109.2678 Q1110.0638,108.6897 1109.47,108.424 Q1108.8763,108.1428 1108.2513,108.1428 Q1106.9075,108.1428 1106.22,109.2209 Q1105.5325,110.2834 1105.5325,112.3772 Q1105.5325,114.4709 1106.22,115.549 Q1106.9075,116.6115 1108.2513,116.6115 Q1108.8763,116.6115 1109.47,116.3459 Q1110.0638,116.0647 1110.6888,115.4865 L1110.6888,118.2053 Z " fill="#000000"/><a href="file:////home/runner/work/BO4E-python/BO4E-python/docs/../.tox/docs/tmp/html/api/bo4e.com.html#bo4e.com.menge.Menge" target="_top" title="file:////home/runner/work/BO4E-python/BO4E-python/docs/../.tox/docs/tmp/html/api/bo4e.com.html#bo4e.com.menge.Menge" xlink:actuate="onRequest" xlink:href="file:////home/runner/work/BO4E-python/BO4E-python/docs/../.tox/docs/tmp/html/api/bo4e.com.html#bo4e.com.menge.Menge" xlink:show="new" xlink:title="file:////home/runner/work/BO4E-python/BO4E-python/docs/../.tox/docs/tmp/html/api/bo4e.com.html#bo4e.com.menge.Menge" xlink:type="simple"><text fill="#0000FF" font-family="sans-serif" font-size="14" lengthAdjust="spacing" text-decoration="underline" textLength="47.0654" x="1141.9007" y="111.591">Menge</text></a><text fill="#000000" font-family="sans-serif" font-size="10" lengthAdjust="spacing" textLength="87.4268" x="1121.72" y="124.175">bo4e.com.menge</text></g><!--class COM--><g class="entity" data-entity="COM" data-source-line="14" data-uid="ent0006" id="entity_COM"><rect fill="#F1F1F1" height="37.9375" rx="2.5" ry="2.5" style="stroke:#181818;stroke-width:0.5;" width="106.0527" x="1099.41" y="166.5959"/><ellipse cx="1114.41" cy="185.5647" fill="#ADD1B2" rx="11" ry="11" style="stroke:#181818;stroke-width:1;"/><path d="M1117.3788,191.2053 Q1116.8006,191.5022 1116.16,191.6428 Q1115.5194,191.799 1114.8163,191.799 Q1112.3163,191.799 1110.9881,190.1584 Q1109.6756,188.5022 1109.6756,185.3772 Q1109.6756,182.2522 1110.9881,180.5959 Q1112.3163,178.9397 1114.8163,178.9397 Q1115.5194,178.9397 1116.16,179.0959 Q1116.8163,179.2522 1117.3788,179.549 L1117.3788,182.2678 Q1116.7538,181.6897 1116.16,181.424 Q1115.5663,181.1428 1114.9413,181.1428 Q1113.5975,181.1428 1112.91,182.2209 Q1112.2225,183.2834 1112.2225,185.3772 Q1112.2225,187.4709 1112.91,188.549 Q1113.5975,189.6115 1114.9413,189.6115 Q1115.5663,189.6115 1116.16,189.3459 Q1116.7538,189.0647 1117.3788,188.4865 L1117.3788,191.2053 Z " fill="#000000"/><a href="file:////home/runner/work/BO4E-python/BO4E-python/docs/../.tox/docs/tmp/html/api/bo4e.com.html#bo4e.com.com.COM" target="_top" title="file:////home/runner/work/BO4E-python/BO4E-python/docs/../.tox/docs/tmp/html/api/bo4e.com.html#bo4e.com.com.COM" xlink:actuate="onRequest" xlink:href="file:////home/runner/work/BO4E-python/BO4E-python/docs/../.tox/docs/tmp/html/api/bo4e.com.html#bo4e.com.com.COM" xlink:show="new" xlink:title="file:////home/runner/work/BO4E-python/BO4E-python/docs/../.tox/docs/tmp/html/api/bo4e.com.html#bo4e.com.com.COM" xlink:type="simple"><text fill="#0000FF" font-family="sans-serif" font-size="14" lengthAdjust="spacing" text-decoration="underline" textLength="32.874" x="1148.9994" y="184.591">COM</text></a><text fill="#000000" font-family="sans-serif" font-size="10" lengthAdjust="spacing" textLength="74.0527" x="1128.41" y="197.175">bo4e.com.com</text></g><!--class Ausschreibungsdetail--><g class="entity" data-entity="Ausschreibungsdetail" data-source-line="15" data-uid="ent0007" id="entity_Ausschreibungsdetail"><rect fill="#F1F1F1" height="37.9375" rx="2.5" ry="2.5" style="stroke:#181818;stroke-width:0.5;" width="191.1455" x="1056.87" y="239.5959"/><ellipse cx="1071.87" cy="258.5647" fill="#ADD1B2" rx="11" ry="11" style="stroke:#181818;stroke-width:1;"/><path d="M1074.8388,264.2053 Q1074.2606,264.5022 1073.62,264.6428 Q1072.9794,264.799 1072.2763,264.799 Q1069.7763,264.799 1068.4481,263.1584 Q1067.1356,261.5022 1067.1356,258.3772 Q1067.1356,255.2522 1068.4481,253.5959 Q1069.7763,251.9397 1072.2763,251.9397 Q1072.9794,251.9397 1073.62,252.0959 Q1074.2763,252.2522 1074.8388,252.549 L1074.8388,255.2678 Q1074.2138,254.6897 1073.62,254.424 Q1073.0263,254.1428 1072.4013,254.1428 Q1071.0575,254.1428 1070.37,255.2209 Q1069.6825,256.2834 1069.6825,258.3772 Q1069.6825,260.4709 1070.37,261.549 Q1071.0575,262.6115 1072.4013,262.6115 Q1073.0263,262.6115 1073.62,262.3459 Q1074.2138,262.0647 1074.8388,261.4865 L1074.8388,264.2053 Z " fill="#000000"/><a href="file:////home/runner/work/BO4E-python/BO4E-python/docs/../.tox/docs/tmp/html/api/bo4e.com.html#bo4e.com.ausschreibungsdetail.Ausschreibungsdetail" target="_top" title="file:////home/runner/work/BO4E-python/BO4E-python/docs/../.tox/docs/tmp/html/api/bo4e.com.html#bo4e.com.ausschreibungsdetail.Ausschreibungsdetail" xlink:actuate="onRequest" xlink:href="file:////home/runner/work/BO4E-python/BO4E-python/docs/../.tox/docs/tmp/html/api/bo4e.com.html#bo4e.com.ausschreibungsdetail.Ausschreibungsdetail" xlink:show="new" xlink:title="file:////home/runner/work/BO4E-python/BO4E-python/docs/../.tox/docs/tmp/html/api/bo4e.com.html#bo4e.com.ausschreibungsdetail.Ausschreibungsdetail" xlink:type="simple"><text fill="#0000FF" font-family="sans-serif" font-size="14" lengthAdjust="spacing" text-decoration="underline" textLength="150.0283" x="1090.4286" y="257.591">Ausschreibungsdetail</text></a><text fill="#000000" font-family="sans-serif" font-size="10" lengthAdjust="spacing" textLength="159.1455" x="1085.87" y="270.175">bo4e.com.ausschreibungsdetail</text></g><!--class Zeitraum--><g class="entity" data-entity="Zeitraum" data-source-line="16" data-uid="ent0008" id="entity_Zeitraum"><rect fill="#F1F1F1" height="37.9375" rx="2.5" ry="2.5" style="stroke:#181818;stroke-width:0.5;" width="129.1143" x="1087.88" y="312.5959"/><ellipse cx="1102.88" cy="331.5647" fill="#ADD1B2" rx="11" ry="11" style="stroke:#181818;stroke-width:1;"/><path d="M1105.8488,337.2053 Q1105.2706,337.5022 1104.63,337.6428 Q1103.9894,337.799 1103.2863,337.799 Q1100.7863,337.799 1099.4581,336.1584 Q1098.1456,334.5022 1098.1456,331.3772 Q1098.1456,328.2522 1099.4581,326.5959 Q1100.7863,324.9397 1103.2863,324.9397 Q1103.9894,324.9397 1104.63,325.0959 Q1105.2863,325.2522 1105.8488,325.549 L1105.8488,328.2678 Q1105.2238,327.6897 1104.63,327.424 Q1104.0363,327.1428 1103.4113,327.1428 Q1102.0675,327.1428 1101.38,328.2209 Q1100.6925,329.2834 1100.6925,331.3772 Q1100.6925,333.4709 1101.38,334.549 Q1102.0675,335.6115 1103.4113,335.6115 Q1104.0363,335.6115 1104.63,335.3459 Q1105.2238,335.0647 1105.8488,334.4865 L1105.8488,337.2053 Z " fill="#000000"/><a href="file:////home/runner/work/BO4E-python/BO4E-python/docs/../.tox/docs/tmp/html/api/bo4e.com.html#bo4e.com.zeitraum.Zeitraum" target="_top" title="file:////home/runner/work/BO4E-python/BO4E-python/docs/../.tox/docs/tmp/html/api/bo4e.com.html#bo4e.com.zeitraum.Zeitraum" xlink:actuate="onRequest" xlink:href="file:////home/runner/work/BO4E-python/BO4E-python/docs/../.tox/docs/tmp/html/api/bo4e.com.html#bo4e.com.zeitraum.Zeitraum" xlink:show="new" xlink:title="file:////home/runner/work/BO4E-python/BO4E-python/docs/../.tox/docs/tmp/html/api/bo4e.com.html#bo4e.com.zeitraum.Zeitraum" xlink:type="simple"><text fill="#0000FF" font-family="sans-serif" font-size="14" lengthAdjust="spacing" text-decoration="underline" textLength="64.4287" x="1133.2228" y="330.591">Zeitraum</text></a><text fill="#000000" font-family="sans-serif" font-size="10" lengthAdjust="spacing" textLength="97.1143" x="1116.88" y="343.175">bo4e.com.zeitraum</text></g><!--class Sparte--><g class="entity" data-entity="Sparte" data-source-line="19" data-uid="ent0010" id="entity_Sparte"><rect fill="#F1F1F1" height="37.9375" rx="2.5" ry="2.5" style="stroke:#181818;stroke-width:0.5;" width="123.7773" x="1090.55" y="425.5959"/><ellipse cx="1105.55" cy="444.5647" fill="#ADD1B2" rx="11" ry="11" style="stroke:#181818;stroke-width:1;"/><path d="M1108.5188,450.2053 Q1107.9406,450.5022 1107.3,450.6428 Q1106.6594,450.799 1105.9563,450.799 Q1103.4563,450.799 1102.1281,449.1584 Q1100.8156,447.5022 1100.8156,444.3772 Q1100.8156,441.2522 1102.1281,439.5959 Q1103.4563,437.9397 1105.9563,437.9397 Q1106.6594,437.9397 1107.3,438.0959 Q1107.9563,438.2522 1108.5188,438.549 L1108.5188,441.2678 Q1107.8938,440.6897 1107.3,440.424 Q1106.7063,440.1428 1106.0813,440.1428 Q1104.7375,440.1428 1104.05,441.2209 Q1103.3625,442.2834 1103.3625,444.3772 Q1103.3625,446.4709 1104.05,447.549 Q1104.7375,448.6115 1106.0813,448.6115 Q1106.7063,448.6115 1107.3,448.3459 Q1107.8938,448.0647 1108.5188,447.4865 L1108.5188,450.2053 Z " fill="#000000"/><a href="file:////home/runner/work/BO4E-python/BO4E-python/docs/../.tox/docs/tmp/html/api/bo4e.enum.html#bo4e.enum.sparte.Sparte" target="_top" title="file:////home/runner/work/BO4E-python/BO4E-python/docs/../.tox/docs/tmp/html/api/bo4e.enum.html#bo4e.enum.sparte.Sparte" xlink:actuate="onRequest" xlink:href="file:////home/runner/work/BO4E-python/BO4E-python/docs/../.tox/docs/tmp/html/api/bo4e.enum.html#bo4e.enum.sparte.Sparte" xlink:show="new" xlink:title="file:////home/runner/work/BO4E-python/BO4E-python/docs/../.tox/docs/tmp/html/api/bo4e.enum.html#bo4e.enum.sparte.Sparte" xlink:type="simple"><text fill="#0000FF" font-family="sans-serif" font-size="14" lengthAdjust="spacing" text-decoration="underline" textLength="46.2109" x="1142.3332" y="443.591">Sparte</text></a><text fill="#000000" font-family="sans-serif" font-size="10" lengthAdjust="spacing" textLength="91.7773" x="1119.55" y="456.175">bo4e.enum.sparte</text></g><!--class Rechnungslegung--><g class="entity" data-entity="Rechnungslegung" data-source-line="20" data-uid="ent0011" id="entity_Rechnungslegung"><rect fill="#F1F1F1" height="37.9375" rx="2.5" ry="2.5" style="stroke:#181818;stroke-width:0.5;" width="178.8799" x="1063" y="498.5959"/><ellipse cx="1078" cy="517.5647" fill="#ADD1B2" rx="11" ry="11" style="stroke:#181818;stroke-width:1;"/><path d="M1080.9688,523.2053 Q1080.3906,523.5022 1079.75,523.6428 Q1079.1094,523.799 1078.4063,523.799 Q1075.9063,523.799 1074.5781,522.1584 Q1073.2656,520.5022 1073.2656,517.3772 Q1073.2656,514.2522 1074.5781,512.5959 Q1075.9063,510.9397 1078.4063,510.9397 Q1079.1094,510.9397 1079.75,511.0959 Q1080.4063,511.2522 1080.9688,511.549 L1080.9688,514.2678 Q1080.3438,513.6897 1079.75,513.424 Q1079.1563,513.1428 1078.5313,513.1428 Q1077.1875,513.1428 1076.5,514.2209 Q1075.8125,515.2834 1075.8125,517.3772 Q1075.8125,519.4709 1076.5,520.549 Q1077.1875,521.6115 1078.5313,521.6115 Q1079.1563,521.6115 1079.75,521.3459 Q1080.3438,521.0647 1080.9688,520.4865 L1080.9688,523.2053 Z " fill="#000000"/><a href="file:////home/runner/work/BO4E-python/BO4E-python/docs/../.tox/docs/tmp/html/api/bo4e.enum.html#bo4e.enum.rechnungslegung.Rechnungslegung" target="_top" title="file:////home/runner/work/BO4E-python/BO4E-python/docs/../.tox/docs/tmp/html/api/bo4e.enum.html#bo4e.enum.rechnungslegung.Rechnungslegung" xlink:actuate="onRequest" xlink:href="file:////home/runner/work/BO4E-python/BO4E-python/docs/../.tox/docs/tmp/html/api/bo4e.enum.html#bo4e.enum.rechnungslegung.Rechnungslegung" xlink:show="new" xlink:title="file:////home/runner/work/BO4E-python/BO4E-python/docs/../.tox/docs/tmp/html/api/bo4e.enum.html#bo4e.enum.rechnungslegung.Rechnungslegung" xlink:type="simple"><text fill="#0000FF" font-family="sans-serif" font-size="14" lengthAdjust="spacing" text-decoration="underline" textLength="125.7334" x="1102.5732" y="516.591">Rechnungslegung</text></a><text fill="#000000" font-family="sans-serif" font-size="10" lengthAdjust="spacing" textLength="146.8799" x="1092" y="529.175">bo4e.enum.rechnungslegung</text></g><!--class Preismodell--><g class="entity" data-entity="Preismodell" data-source-line="21" data-uid="ent0012" id="entity_Preismodell"><rect fill="#F1F1F1" height="37.9375" rx="2.5" ry="2.5" style="stroke:#181818;stroke-width:0.5;" width="150.4229" x="1077.23" y="571.5959"/><ellipse cx="1092.23" cy="590.5647" fill="#ADD1B2" rx="11" ry="11" style="stroke:#181818;stroke-width:1;"/><path d="M1095.1988,596.2053 Q1094.6206,596.5022 1093.98,596.6428 Q1093.3394,596.799 1092.6363,596.799 Q1090.1363,596.799 1088.8081,595.1584 Q1087.4956,593.5022 1087.4956,590.3772 Q1087.4956,587.2522 1088.8081,585.5959 Q1090.1363,583.9397 1092.6363,583.9397 Q1093.3394,583.9397 1093.98,584.0959 Q1094.6363,584.2522 1095.1988,584.549 L1095.1988,587.2678 Q1094.5738,586.6897 1093.98,586.424 Q1093.3863,586.1428 1092.7613,586.1428 Q1091.4175,586.1428 1090.73,587.2209 Q1090.0425,588.2834 1090.0425,590.3772 Q1090.0425,592.4709 1090.73,593.549 Q1091.4175,594.6115 1092.7613,594.6115 Q1093.3863,594.6115 1093.98,594.3459 Q1094.5738,594.0647 1095.1988,593.4865 L1095.1988,596.2053 Z " fill="#000000"/><a href="file:////home/runner/work/BO4E-python/BO4E-python/docs/../.tox/docs/tmp/html/api/bo4e.enum.html#bo4e.enum.preismodell.Preismodell" target="_top" title="file:////home/runner/work/BO4E-python/BO4E-python/docs/../.tox/docs/tmp/html/api/bo4e.enum.html#bo4e.enum.preismodell.Preismodell" xlink:actuate="onRequest" xlink:href="file:////home/runner/work/BO4E-python/BO4E-python/docs/../.tox/docs/tmp/html/api/bo4e.enum.html#bo4e.enum.preismodell.Preismodell" xlink:show="new" xlink:title="file:////home/runner/work/BO4E-python/BO4E-python/docs/../.tox/docs/tmp/html/api/bo4e.enum.html#bo4e.enum.preismodell.Preismodell" xlink:type="simple"><text fill="#0000FF" font-family="sans-serif" font-size="14" lengthAdjust="spacing" text-decoration="underline" textLength="81.4775" x="1124.7027" y="589.591">Preismodell</text></a><text fill="#000000" font-family="sans-serif" font-size="10" lengthAdjust="spacing" textLength="118.4229" x="1106.23" y="602.175">bo4e.enum.preismodell</text></g><!--class Vertragsform--><g class="entity" data-entity="Vertragsform" data-source-line="22" data-uid="ent0013" id="entity_Vertragsform"><rect fill="#F1F1F1" height="37.9375" rx="2.5" ry="2.5" style="stroke:#181818;stroke-width:0.5;" width="157.2979" x="1073.79" y="644.5959"/><ellipse cx="1088.79" cy="663.5647" fill="#ADD1B2" rx="11" ry="11" style="stroke:#181818;stroke-width:1;"/><path d="M1091.7588,669.2053 Q1091.1806,669.5022 1090.54,669.6428 Q1089.8994,669.799 1089.1963,669.799 Q1086.6963,669.799 1085.3681,668.1584 Q1084.0556,666.5022 1084.0556,663.3772 Q1084.0556,660.2522 1085.3681,658.5959 Q1086.6963,656.9397 1089.1963,656.9397 Q1089.8994,656.9397 1090.54,657.0959 Q1091.1963,657.2522 1091.7588,657.549 L1091.7588,660.2678 Q1091.1338,659.6897 1090.54,659.424 Q1089.9463,659.1428 1089.3213,659.1428 Q1087.9775,659.1428 1087.29,660.2209 Q1086.6025,661.2834 1086.6025,663.3772 Q1086.6025,665.4709 1087.29,666.549 Q1087.9775,667.6115 1089.3213,667.6115 Q1089.9463,667.6115 1090.54,667.3459 Q1091.1338,667.0647 1091.7588,666.4865 L1091.7588,669.2053 Z " fill="#000000"/><a href="file:////home/runner/work/BO4E-python/BO4E-python/docs/../.tox/docs/tmp/html/api/bo4e.enum.html#bo4e.enum.vertragsform.Vertragsform" target="_top" title="file:////home/runner/work/BO4E-python/BO4E-python/docs/../.tox/docs/tmp/html/api/bo4e.enum.html#bo4e.enum.vertragsform.Vertragsform" xlink:actuate="onRequest" xlink:href="file:////home/runner/work/BO4E-python/BO4E-python/docs/../.tox/docs/tmp/html/api/bo4e.enum.html#bo4e.enum.vertragsform.Vertragsform" xlink:show="new" xlink:title="file:////home/runner/work/BO4E-python/BO4E-python/docs/../.tox/docs/tmp/html/api/bo4e.enum.html#bo4e.enum.vertragsform.Vertragsform" xlink:type="simple"><text fill="#0000FF" font-family="sans-serif" font-size="14" lengthAdjust="spacing" text-decoration="underline" textLength="92.8389" x="1119.0195" y="662.591">Vertragsform</text></a><text fill="#000000" font-family="sans-serif" font-size="10" lengthAdjust="spacing" textLength="125.2979" x="1102.79" y="675.175">bo4e.enum.vertragsform</text></g><!--class Ausschreibungslos--><g class="entity" data-entity="Ausschreibungslos" data-source-line="3" data-uid="ent0002" id="entity_Ausschreibungslos"><rect fill="#F1F1F1" height="143.7188" rx="2.5" ry="2.5" style="stroke:#181818;stroke-width:0.5;" width="794.8652" x="7" y="252.7059"/><ellipse cx="327.6094" cy="271.6747" fill="#ADD1B2" rx="11" ry="11" style="stroke:#181818;stroke-width:1;"/><path d="M330.5781,277.3153 Q330,277.6122 329.3594,277.7528 Q328.7188,277.909 328.0156,277.909 Q325.5156,277.909 324.1875,276.2684 Q322.875,274.6122 322.875,271.4872 Q322.875,268.3622 324.1875,266.7059 Q325.5156,265.0497 328.0156,265.0497 Q328.7188,265.0497 329.3594,265.2059 Q330.0156,265.3622 330.5781,265.659 L330.5781,268.3778 Q329.9531,267.7997 329.3594,267.534 Q328.7656,267.2528 328.1406,267.2528 Q326.7969,267.2528 326.1094,268.3309 Q325.4219,269.3934 325.4219,271.4872 Q325.4219,273.5809 326.1094,274.659 Q326.7969,275.7215 328.1406,275.7215 Q328.7656,275.7215 329.3594,275.4559 Q329.9531,275.1747 330.5781,274.5965 L330.5781,277.3153 Z " fill="#000000"/><a href="file:////home/runner/work/BO4E-python/BO4E-python/docs/../.tox/docs/tmp/html/api/bo4e.com.html#bo4e.com.ausschreibungslos.Ausschreibungslos" target="_top" title="file:////home/runner/work/BO4E-python/BO4E-python/docs/../.tox/docs/tmp/html/api/bo4e.com.html#bo4e.com.ausschreibungslos.Ausschreibungslos" xlink:actuate="onRequest" xlink:href="file:////home/runner/work/BO4E-python/BO4E-python/docs/../.tox/docs/tmp/html/api/bo4e.com.html#bo4e.com.ausschreibungslos.Ausschreibungslos" xlink:show="new" xlink:title="file:////home/runner/work/BO4E-python/BO4E-python/docs/../.tox/docs/tmp/html/api/bo4e.com.html#bo4e.com.ausschreibungslos.Ausschreibungslos" xlink:type="simple"><text fill="#0000FF" font-family="sans-serif" font-size="14" lengthAdjust="spacing" text-decoration="underline" textLength="130.4297" x="355.4678" y="270.701">Ausschreibungslos</text></a><text fill="#000000" font-family="sans-serif" font-size="10" lengthAdjust="spacing" textLength="145.1465" x="348.1094" y="283.285">bo4e.com.ausschreibungslos</text><line style="stroke:#181818;stroke-width:0.5;" x1="8" x2="800.8652" y1="290.6434" y2="290.6434"/><text fill="#000000" font-family="sans-serif" font-size="14" lengthAdjust="spacing" textLength="782.8652" x="13" y="307.6385">_typ : Literal[&lt;ComTyp.AUSSCHREIBUNGSLOS: 'AUSSCHREIBUNGSLOS'&gt;] [1] = ComTyp.AUSSCHREIBUNGSLOS</text><text fill="#000000" font-family="sans-serif" font-size="14" lengthAdjust="spacing" textLength="210.54" x="13" y="323.9354">losnummer : str [0..1] = None</text><text fill="#000000" font-family="sans-serif" font-size="14" lengthAdjust="spacing" textLength="220.8281" x="13" y="340.2323">bezeichnung : str [0..1] = None</text><text fill="#000000" font-family="sans-serif" font-size="14" lengthAdjust="spacing" textLength="225.1006" x="13" y="356.5292">betreutDurch : str [0..1] = None</text><text fill="#000000" font-family="sans-serif" font-size="14" lengthAdjust="spacing" textLength="263.5186" x="13" y="372.826">anzahlLieferstellen : int [0..1] = None</text><text fill="#000000" font-family="sans-serif" font-size="14" lengthAdjust="spacing" textLength="211.6475" x="13" y="389.1229">bemerkung : str [0..1] = None</text></g><!--link Ausschreibungslos to COM--><g class="link" data-entity-1="Ausschreibungslos" data-entity-2="COM" data-source-line="25" data-uid="lnk14" id="link_Ausschreibungslos_COM"><path codeLine="25" d="M769.68,252.2059 C790.71,248.2259 811.55,244.3159 831.87,240.5659 C925.84,223.2259 1017.9426,207.6415 1081.3026,197.1315" fill="none" id="Ausschreibungslos-to-COM" style="stroke:#181818;stroke-width:1;"/><polygon fill="none" points="1099.06,194.1859,1080.3208,191.2123,1082.2845,203.0506,1099.06,194.1859" style="stroke:#181818;stroke-width:1;"/></g><!--link Ausschreibungslos to Preismodell--><g class="link" data-entity-1="Ausschreibungslos" data-entity-2="Preismodell" data-source-line="26" data-uid="lnk15" id="link_Ausschreibungslos_Preismodell"><path codeLine="26" d="M539.48,396.8559 C621.88,438.8059 730.72,489.8659 831.87,523.5659 C913.75,550.8459 999.422,567.472 1065.012,578.012" fill="none" id="Ausschreibungslos-to-Preismodell" style="stroke:#181818;stroke-width:1;"/><polygon fill="#181818" points="1076.86,579.9159,1071.5706,575.0146,1065.012,578.012,1070.3014,582.9133,1076.86,579.9159" style="stroke:#181818;stroke-width:1;"/><text fill="#000000" font-family="sans-serif" font-size="13" lengthAdjust="spacing" textLength="76.0703" x="878.37" y="519.6328">preismodell</text><text fill="#000000" font-family="sans-serif" font-size="13" lengthAdjust="spacing" textLength="24.8066" x="1044.5508" y="591.689">0..1</text></g><!--link Ausschreibungslos to Sparte--><g class="link" data-entity-1="Ausschreibungslos" data-entity-2="Sparte" data-source-line="27" data-uid="lnk16" id="link_Ausschreibungslos_Sparte"><path codeLine="27" d="M679.64,396.8859 C729.98,408.0459 782.28,418.2759 831.87,425.5659 C921.08,438.6859 1013.5823,442.5718 1078.1523,443.8318" fill="none" id="Ausschreibungslos-to-Sparte" style="stroke:#181818;stroke-width:1;"/><polygon fill="#181818" points="1090.15,444.0659,1084.2292,439.9496,1078.1523,443.8318,1084.0731,447.9481,1090.15,444.0659" style="stroke:#181818;stroke-width:1;"/><text fill="#000000" font-family="sans-serif" font-size="13" lengthAdjust="spacing" textLength="67.8501" x="882.87" y="421.6328">energieart</text><text fill="#000000" font-family="sans-serif" font-size="13" lengthAdjust="spacing" textLength="24.8066" x="1057.607" y="456.95">0..1</text></g><!--link Ausschreibungslos to Rechnungslegung--><g class="link" data-entity-1="Ausschreibungslos" data-entity-2="Rechnungslegung" data-source-line="28" data-uid="lnk17" id="link_Ausschreibungslos_Rechnungslegung"><path codeLine="28" d="M600.39,396.9259 C672.38,421.6659 755.12,447.7959 831.87,466.5659 C908.95,485.4159 986.3598,497.4517 1050.9398,505.8317" fill="none" id="Ausschreibungslos-to-Rechnungslegung" style="stroke:#181818;stroke-width:1;"/><polygon fill="#181818" points="1062.84,507.3759,1057.4046,502.6371,1050.9398,505.8317,1056.3752,510.5706,1062.84,507.3759" style="stroke:#181818;stroke-width:1;"/><text fill="#000000" font-family="sans-serif" font-size="13" lengthAdjust="spacing" textLength="166.0229" x="833.37" y="462.6328">wunschRechnungslegung</text><text fill="#000000" font-family="sans-serif" font-size="13" lengthAdjust="spacing" textLength="24.8066" x="1030.1434" y="519.2175">0..1</text></g><!--link Ausschreibungslos to Vertragsform--><g class="link" data-entity-1="Ausschreibungslos" data-entity-2="Vertragsform" data-source-line="29" data-uid="lnk18" id="link_Ausschreibungslos_Vertragsform"><path codeLine="29" d="M500.33,396.7559 C583.58,456.8159 710.06,540.3359 831.87,590.5659 C910.91,623.1659 995.4094,640.7581 1061.5094,651.2881" fill="none" id="Ausschreibungslos-to-Vertragsform" style="stroke:#181818;stroke-width:1;"/><polygon fill="#181818" points="1073.36,653.1759,1068.064,648.2818,1061.5094,651.2881,1066.8054,656.1822,1073.36,653.1759" style="stroke:#181818;stroke-width:1;"/><text fill="#000000" font-family="sans-serif" font-size="13" lengthAdjust="spacing" textLength="135.478" x="848.87" y="586.6328">wunschVertragsform</text><text fill="#000000" font-family="sans-serif" font-size="13" lengthAdjust="spacing" textLength="24.8066" x="1041.0008" y="664.9826">0..1</text></g><!--link Ausschreibungslos to Ausschreibungsdetail--><g class="link" data-entity-1="Ausschreibungslos" data-entity-2="Ausschreibungsdetail" data-source-line="30" data-uid="lnk19" id="link_Ausschreibungslos_Ausschreibungsdetail"><path codeLine="30" d="M802.3,278.1459 C812.25,277.2459 822.12,276.3859 831.87,275.5659 C907.3,269.2359 980.9711,265.3421 1044.6111,262.6021" fill="none" id="Ausschreibungslos-to-Ausschreibungsdetail" style="stroke:#181818;stroke-width:1;"/><polygon fill="#181818" points="1056.6,262.0859,1050.4335,258.3477,1044.6111,262.6021,1050.7776,266.3403,1056.6,262.0859" style="stroke:#181818;stroke-width:1;"/><text fill="#000000" font-family="sans-serif" font-size="13" lengthAdjust="spacing" textLength="76.4702" x="878.37" y="261.6328">lieferstellen</text><text fill="#000000" font-family="sans-serif" font-size="13" lengthAdjust="spacing" textLength="23.0356" x="1025.7183" y="274.9671">0..*</text></g><!--link Ausschreibungslos to Zeitraum--><g class="link" data-entity-1="Ausschreibungslos" data-entity-2="Zeitraum" data-source-line="31" data-uid="lnk20" id="link_Ausschreibungslos_Zeitraum"><path codeLine="31" d="M802.11,300.1459 C868.54,299.6259 936.7,301.2759 1000.87,306.5659 C1029.52,308.9259 1049.1202,311.6476 1075.8102,316.4576" fill="none" id="Ausschreibungslos-to-Zeitraum" style="stroke:#181818;stroke-width:1;"/><polygon fill="#181818" points="1087.62,318.5859,1082.4246,313.5852,1075.8102,316.4576,1081.0057,321.4583,1087.62,318.5859" style="stroke:#181818;stroke-width:1;"/><text fill="#000000" font-family="sans-serif" font-size="13" lengthAdjust="spacing" textLength="90.8857" x="871.37" y="296.6328">lieferzeitraum</text><text fill="#000000" font-family="sans-serif" font-size="13" lengthAdjust="spacing" textLength="24.8066" x="1055.2622" y="313.4202">0..1</text></g><!--link Ausschreibungslos to Zeitraum--><g class="link" data-entity-1="Ausschreibungslos" data-entity-2="Zeitraum" data-source-line="32" data-uid="lnk21" id="link_Ausschreibungslos_Zeitraum"><path codeLine="32" d="M802.09,331.2959 C812.12,331.3959 822.05,331.4859 831.87,331.5659 C920.49,332.2959 1010.9501,332.1606 1075.4701,331.9206" fill="none" id="Ausschreibungslos-to-Zeitraum-1" style="stroke:#181818;stroke-width:1;"/><polygon fill="#181818" points="1087.47,331.8759,1081.4552,327.8983,1075.4701,331.9206,1081.4849,335.8982,1087.47,331.8759" style="stroke:#181818;stroke-width:1;"/><text fill="#000000" font-family="sans-serif" font-size="13" lengthAdjust="spacing" textLength="148.3193" x="842.37" y="327.6328">wiederholungsintervall</text><text fill="#000000" font-family="sans-serif" font-size="13" lengthAdjust="spacing" textLength="24.8066" x="1055.0958" y="344.8044">0..1</text></g><!--link Ausschreibungslos to Zeitraum--><g class="link" data-entity-1="Ausschreibungslos" data-entity-2="Zeitraum" data-source-line="33" data-uid="lnk22" id="link_Ausschreibungslos_Zeitraum"><path codeLine="33" d="M802.02,362.1159 C868.46,363.9459 936.65,363.0659 1000.87,357.5659 C1029.54,355.1059 1049.1653,352.2763 1075.8453,347.2763" fill="none" id="Ausschreibungslos-to-Zeitraum-2" style="stroke:#181818;stroke-width:1;"/><polygon fill="#181818" points="1087.64,345.0659,1081.0059,342.2396,1075.8453,347.2763,1082.4795,350.1027,1087.64,345.0659" style="stroke:#181818;stroke-width:1;"/><text fill="#000000" font-family="sans-serif" font-size="13" lengthAdjust="spacing" textLength="167.5337" x="832.87" y="353.6328">wunschKuendingungsfrist</text><text fill="#000000" font-family="sans-serif" font-size="13" lengthAdjust="spacing" textLength="24.8066" x="1055.2844" y="359.4371">0..1</text></g><!--link Ausschreibungslos to Zeitraum--><g class="link" data-entity-1="Ausschreibungslos" data-entity-2="Zeitraum" data-source-line="34" data-uid="lnk23" id="link_Ausschreibungslos_Zeitraum"><path codeLine="34" d="M769.57,396.9259 C846.26,402.8859 926.46,402.1759 1000.87,388.5659 C1040.05,381.3959 1071.3379,369.5165 1101.0679,355.9865" fill="none" id="Ausschreibungslos-to-Zeitraum-3" style="stroke:#181818;stroke-width:1;"/><polygon fill="#181818" points="1111.99,351.0159,1104.8721,349.8605,1101.0679,355.9865,1108.1858,357.1419,1111.99,351.0159" style="stroke:#181818;stroke-width:1;"/><text fill="#000000" font-family="sans-serif" font-size="13" lengthAdjust="spacing" textLength="131.5425" x="850.87" y="384.6328">wunschZahlungsziel</text><text fill="#000000" font-family="sans-serif" font-size="13" lengthAdjust="spacing" textLength="24.8066" x="1073.3527" y="370.6815">0..1</text></g><!--link Ausschreibungslos to Menge--><g class="link" data-entity-1="Ausschreibungslos" data-entity-2="Menge" data-source-line="35" data-uid="lnk24" id="link_Ausschreibungslos_Menge"><path codeLine="35" d="M481.62,252.3259 C561.62,181.8859 694.66,79.4359 831.87,37.5659 C903.71,15.6459 927.75,20.3659 1000.87,37.5659 C1046.21,48.2359 1083.3544,68.3176 1112.5644,86.7676" fill="none" id="Ausschreibungslos-to-Menge" style="stroke:#181818;stroke-width:1;"/><polygon fill="#181818" points="1122.71,93.1759,1119.7733,86.5899,1112.5644,86.7676,1115.5011,93.3536,1122.71,93.1759" style="stroke:#181818;stroke-width:1;"/><text fill="#000000" font-family="sans-serif" font-size="13" lengthAdjust="spacing" textLength="92.4536" x="870.37" y="19.6328">gesamtMenge</text><text fill="#000000" font-family="sans-serif" font-size="13" lengthAdjust="spacing" textLength="24.8066" x="1086.5722" y="82.3637">0..1</text></g><!--link Ausschreibungslos to Menge--><g class="link" data-entity-1="Ausschreibungslos" data-entity-2="Menge" data-source-line="36" data-uid="lnk25" id="link_Ausschreibungslos_Menge"><path codeLine="36" d="M505.06,252.2859 C587.91,196.9059 711.37,124.9859 831.87,94.5659 C920.63,72.1559 1015.725,83.733 1080.635,96.483" fill="none" id="Ausschreibungslos-to-Menge-1" style="stroke:#181818;stroke-width:1;"/><polygon fill="#181818" points="1092.41,98.7959,1087.2935,93.7145,1080.635,96.483,1085.7515,101.5645,1092.41,98.7959" style="stroke:#181818;stroke-width:1;"/><text fill="#000000" font-family="sans-serif" font-size="13" lengthAdjust="spacing" textLength="145.6089" x="843.87" y="79.6328">wunschMindestmenge</text><text fill="#000000" font-family="sans-serif" font-size="13" lengthAdjust="spacing" textLength="24.8066" x="1060.1289" y="110.1457">0..1</text></g><!--link Ausschreibungslos to Menge--><g class="link" data-entity-1="Ausschreibungslos" data-entity-2="Menge" data-source-line="37" data-uid="lnk26" id="link_Ausschreibungslos_Menge"><path codeLine="37" d="M648.66,252.2259 C758.48,220.0259 889.98,182.1159 1008.87,149.5659 C1036.24,142.0659 1055.0572,137.1008 1080.7572,130.5008" fill="none" id="Ausschreibungslos-to-Menge-2" style="stroke:#181818;stroke-width:1;"/><polygon fill="#181818" points="1092.38,127.5159,1085.5736,125.1341,1080.7572,130.5008,1087.5635,132.8826,1092.38,127.5159" style="stroke:#181818;stroke-width:1;"/><text fill="#000000" font-family="sans-serif" font-size="13" lengthAdjust="spacing" textLength="149.1509" x="841.87" y="150.6328">wunschMaximalmenge</text><text fill="#000000" font-family="sans-serif" font-size="13" lengthAdjust="spacing" textLength="24.8066" x="1060.0955" y="142.1864">0..1</text></g><!--SRC=[nLPjJzim4FvCViMf_O24X0CQcr34aA13spHU9ZhsWQwQtEJQMCHsPJiKkks_pt58cwR9b36DLahYS-zvV7VsOpl1iG4ZGR59R21Y2aF3fF2yCA5QGsSm6BC40z_-OidHLwaGgFoPL7V-wTN1sUxqqSHIhBGZ6MgV49yO-P0RXa_zsF34frFcZ-G1ab1oalLq5nPDjGvZXMoKYebEf2OdrHvOwnaEluaZpUOOxEyTDrDrWDQ0uOUtzTqyJY60SsPGqMHmr9Fyo-EKdDpq-xqFrsSVJsykt_VFh_e1RA_rRHyFOR0_XBVGXFAsx30YvHoL7KGR1OCzGXpaKWhqjaOuHnR6maRKv60KfkPTgiAuteEAEOsJSuPZLDfWag2mZaoOTIeRnbtJIByyJr2EUaf3_F_J3eKr7BgvAKpedksT7BxfPLFpuYkGevWWkSZUuDxrgykvkQYTqmO2pPxUrGNOfpv4-xW0hSC6mbkLNuI6igGYvhmJwZhRI3hth55r_iS6ShOoDegcdDm-DQ1erETJ-BiS2bShmXVG8DeDgIJ2p2ohCBEX6-s7hruVle0C5z5qbwOjW398-ku3-MUzZ2LN5ttkjv60xQdfzd2TuCH-oFMg3HMx8PSAYqkgWjn8TbEhBirbPCyMyddPXbAx8QCIqcLJGcmaatjKLcWJFPQAawyb0yf6Gp9biCkcZCdEpveBo-xkp-F5uPRjsNLErci7Ejbft5bASANI0PGgsPxYIK01eAteXA6rseEhQpY0MIeiiheYMnEkrBjWMwdXdwXsEiiwrfub0IJbEr2hk3AonOPT41HRytCOPWmZLB5CCe2zWw6wfordhChaolCfHH4naHLQZnNJvlbKj_QMc27c3Di7b5-60fYWfjpazvs_nUR3Np0HeJRyNoZe0-CqoIcyc4K87Fd8JhcdOpc36jQnJJRIlm40]--></g></svg>