<svg xmlns="http://www.w3.org/2000/svg" xmlns:xlink="http://www.w3.org/1999/xlink" contentStyleType="text/css" data-diagram-type="CLASS" height="282px" preserveAspectRatio="none" style="width:1129px;height:282px;background:#FFFFFF;" version="1.1" viewBox="0 0 1129 282" width="1129px" zoomAndPan="magnify"><defs/><g><!--cluster bo4e--><g class="cluster" data-entity="bo4e" data-source-line="9" data-uid="ent0005" id="cluster_bo4e"><path d="M860.6,6 L900.476,6 A3.75,3.75 0 0 1 902.976,8.5 L909.976,28.2969 L1119.52,28.2969 A2.5,2.5 0 0 1 1122.02,30.7969 L1122.02,272.5 A2.5,2.5 0 0 1 1119.52,275 L860.6,275 A2.5,2.5 0 0 1 858.1,272.5 L858.1,8.5 A2.5,2.5 0 0 1 860.6,6" fill="none" style="stroke:#000000;stroke-width:1.5;"/><line style="stroke:#000000;stroke-width:1.5;" x1="858.1" x2="909.976" y1="28.2969" y2="28.2969"/><text fill="#000000" font-family="sans-serif" font-size="14" font-weight="bold" lengthAdjust="spacing" textLength="38.876" x="862.1" y="20.9951">bo4e</text></g><!--cluster com--><g class="cluster" data-entity="com" data-source-line="8" data-uid="ent0003" id="cluster_com"><path d="M923.53,49 L1001.2292,49 A3.75,3.75 0 0 1 1003.7292,51.5 L1010.7292,71.2969 L1056.59,71.2969 A2.5,2.5 0 0 1 1059.09,73.7969 L1059.09,135.5 A2.5,2.5 0 0 1 1056.59,138 L923.53,138 A2.5,2.5 0 0 1 921.03,135.5 L921.03,51.5 A2.5,2.5 0 0 1 923.53,49" fill="#E0A86C" style="stroke:#000000;stroke-width:1.5;"/><line style="stroke:#000000;stroke-width:1.5;" x1="921.03" x2="1010.7292" y1="71.2969" y2="71.2969"/><a href="https://bo4e.github.io/BO4E-python/latest/api/bo4e.com.html" target="_top" title="https://bo4e.github.io/BO4E-python/latest/api/bo4e.com.html" xlink:actuate="onRequest" xlink:href="https://bo4e.github.io/BO4E-python/latest/api/bo4e.com.html" xlink:show="new" xlink:title="https://bo4e.github.io/BO4E-python/latest/api/bo4e.com.html" xlink:type="simple"><text fill="#0000FF" font-family="sans-serif" font-size="14" font-weight="bold" lengthAdjust="spacing" text-decoration="underline" textLength="76.6992" x="925.03" y="63.9951">bo4e.com</text></a></g><!--cluster enum--><g class="cluster" data-entity="enum" data-source-line="11" data-uid="ent0006" id="cluster_enum"><path d="M884.6,162 L973.8109,162 A3.75,3.75 0 0 1 976.3109,164.5 L983.3109,184.2969 L1095.52,184.2969 A2.5,2.5 0 0 1 1098.02,186.7969 L1098.02,248.5 A2.5,2.5 0 0 1 1095.52,251 L884.6,251 A2.5,2.5 0 0 1 882.1,248.5 L882.1,164.5 A2.5,2.5 0 0 1 884.6,162" fill="#D1C358" style="stroke:#000000;stroke-width:1.5;"/><line style="stroke:#000000;stroke-width:1.5;" x1="882.1" x2="983.3109" y1="184.2969" y2="184.2969"/><a href="https://bo4e.github.io/BO4E-python/latest/api/bo4e.enum.html" target="_top" title="https://bo4e.github.io/BO4E-python/latest/api/bo4e.enum.html" xlink:actuate="onRequest" xlink:href="https://bo4e.github.io/BO4E-python/latest/api/bo4e.enum.html" xlink:show="new" xlink:title="https://bo4e.github.io/BO4E-python/latest/api/bo4e.enum.html" xlink:type="simple"><text fill="#0000FF" font-family="sans-serif" font-size="14" font-weight="bold" lengthAdjust="spacing" text-decoration="underline" textLength="88.2109" x="886.1" y="176.9951">bo4e.enum</text></a></g><!--class COM--><g class="entity" data-entity="COM" data-source-line="9" data-uid="ent0004" id="entity_COM"><rect fill="#F1F1F1" height="37.9375" rx="2.5" ry="2.5" style="stroke:#181818;stroke-width:0.5;" width="106.0527" x="937.03" y="84.03"/><ellipse cx="952.03" cy="102.9988" fill="#ADD1B2" rx="11" ry="11" style="stroke:#181818;stroke-width:1;"/><path d="M954.9988,108.6394 Q954.4206,108.9363 953.78,109.0769 Q953.1394,109.2331 952.4363,109.2331 Q949.9363,109.2331 948.6081,107.5925 Q947.2956,105.9363 947.2956,102.8113 Q947.2956,99.6863 948.6081,98.03 Q949.9363,96.3738 952.4363,96.3738 Q953.1394,96.3738 953.78,96.53 Q954.4363,96.6863 954.9988,96.9831 L954.9988,99.7019 Q954.3738,99.1238 953.78,98.8581 Q953.1863,98.5769 952.5613,98.5769 Q951.2175,98.5769 950.53,99.655 Q949.8425,100.7175 949.8425,102.8113 Q949.8425,104.905 950.53,105.9831 Q951.2175,107.0456 952.5613,107.0456 Q953.1863,107.0456 953.78,106.78 Q954.3738,106.4988 954.9988,105.9206 L954.9988,108.6394 Z " fill="#000000"/><a href="https://bo4e.github.io/BO4E-python/latest/api/bo4e.com.html#bo4e.com.com.COM" target="_top" title="https://bo4e.github.io/BO4E-python/latest/api/bo4e.com.html#bo4e.com.com.COM" xlink:actuate="onRequest" xlink:href="https://bo4e.github.io/BO4E-python/latest/api/bo4e.com.html#bo4e.com.com.COM" xlink:show="new" xlink:title="https://bo4e.github.io/BO4E-python/latest/api/bo4e.com.html#bo4e.com.com.COM" xlink:type="simple"><text fill="#0000FF" font-family="sans-serif" font-size="14" lengthAdjust="spacing" text-decoration="underline" textLength="32.874" x="986.6194" y="102.0251">COM</text></a><text fill="#000000" font-family="sans-serif" font-size="10" lengthAdjust="spacing" textLength="74.0527" x="966.03" y="114.6091">bo4e.com.com</text></g><!--class Dienstleistungstyp--><g class="entity" data-entity="Dienstleistungstyp" data-source-line="12" data-uid="ent0007" id="entity_Dienstleistungstyp"><rect fill="#F1F1F1" height="37.9375" rx="2.5" ry="2.5" style="stroke:#181818;stroke-width:0.5;" width="183.9141" x="898.1" y="197.03"/><ellipse cx="913.1" cy="215.9988" fill="#ADD1B2" rx="11" ry="11" style="stroke:#181818;stroke-width:1;"/><path d="M916.0688,221.6394 Q915.4906,221.9363 914.85,222.0769 Q914.2094,222.2331 913.5063,222.2331 Q911.0063,222.2331 909.6781,220.5925 Q908.3656,218.9363 908.3656,215.8113 Q908.3656,212.6863 909.6781,211.03 Q911.0063,209.3738 913.5063,209.3738 Q914.2094,209.3738 914.85,209.53 Q915.5063,209.6863 916.0688,209.9831 L916.0688,212.7019 Q915.4438,212.1238 914.85,211.8581 Q914.2563,211.5769 913.6313,211.5769 Q912.2875,211.5769 911.6,212.655 Q910.9125,213.7175 910.9125,215.8113 Q910.9125,217.905 911.6,218.9831 Q912.2875,220.0456 913.6313,220.0456 Q914.2563,220.0456 914.85,219.78 Q915.4438,219.4988 916.0688,218.9206 L916.0688,221.6394 Z " fill="#000000"/><a href="https://bo4e.github.io/BO4E-python/latest/api/bo4e.enum.html#bo4e.enum.dienstleistungstyp.Dienstleistungstyp" target="_top" title="https://bo4e.github.io/BO4E-python/latest/api/bo4e.enum.html#bo4e.enum.dienstleistungstyp.Dienstleistungstyp" xlink:actuate="onRequest" xlink:href="https://bo4e.github.io/BO4E-python/latest/api/bo4e.enum.html#bo4e.enum.dienstleistungstyp.Dienstleistungstyp" xlink:show="new" xlink:title="https://bo4e.github.io/BO4E-python/latest/api/bo4e.enum.html#bo4e.enum.dienstleistungstyp.Dienstleistungstyp" xlink:type="simple"><text fill="#0000FF" font-family="sans-serif" font-size="14" lengthAdjust="spacing" text-decoration="underline" textLength="130.7031" x="937.7055" y="215.0251">Dienstleistungstyp</text></a><text fill="#000000" font-family="sans-serif" font-size="10" lengthAdjust="spacing" textLength="151.9141" x="927.1" y="227.6091">bo4e.enum.dienstleistungstyp</text></g><!--class Dienstleistung--><g class="entity" data-entity="Dienstleistung" data-source-line="3" data-uid="ent0002" id="entity_Dienstleistung"><rect fill="#F1F1F1" height="78.5313" rx="2.5" ry="2.5" style="stroke:#181818;stroke-width:0.5;" width="684.1025" x="7" y="120.73"/><ellipse cx="283.1484" cy="139.6988" fill="#ADD1B2" rx="11" ry="11" style="stroke:#181818;stroke-width:1;"/><path d="M286.1172,145.3394 Q285.5391,145.6363 284.8984,145.7769 Q284.2578,145.9331 283.5547,145.9331 Q281.0547,145.9331 279.7266,144.2925 Q278.4141,142.6363 278.4141,139.5113 Q278.4141,136.3863 279.7266,134.73 Q281.0547,133.0738 283.5547,133.0738 Q284.2578,133.0738 284.8984,133.23 Q285.5547,133.3863 286.1172,133.6831 L286.1172,136.4019 Q285.4922,135.8238 284.8984,135.5581 Q284.3047,135.2769 283.6797,135.2769 Q282.3359,135.2769 281.6484,136.355 Q280.9609,137.4175 280.9609,139.5113 Q280.9609,141.605 281.6484,142.6831 Q282.3359,143.7456 283.6797,143.7456 Q284.3047,143.7456 284.8984,143.48 Q285.4922,143.1988 286.1172,142.6206 L286.1172,145.3394 Z " fill="#000000"/><a href="https://bo4e.github.io/BO4E-python/latest/api/bo4e.com.html#bo4e.com.dienstleistung.Dienstleistung" target="_top" title="https://bo4e.github.io/BO4E-python/latest/api/bo4e.com.html#bo4e.com.dienstleistung.Dienstleistung" xlink:actuate="onRequest" xlink:href="https://bo4e.github.io/BO4E-python/latest/api/bo4e.com.html#bo4e.com.dienstleistung.Dienstleistung" xlink:show="new" xlink:title="https://bo4e.github.io/BO4E-python/latest/api/bo4e.com.html#bo4e.com.dienstleistung.Dienstleistung" xlink:type="simple"><text fill="#0000FF" font-family="sans-serif" font-size="14" lengthAdjust="spacing" text-decoration="underline" textLength="100.748" x="314.9272" y="138.7251">Dienstleistung</text></a><text fill="#000000" font-family="sans-serif" font-size="10" lengthAdjust="spacing" textLength="123.3057" x="303.6484" y="151.3091">bo4e.com.dienstleistung</text><line style="stroke:#181818;stroke-width:0.5;" x1="8" x2="690.1025" y1="158.6675" y2="158.6675"/><text fill="#000000" font-family="sans-serif" font-size="14" lengthAdjust="spacing" textLength="672.1025" x="13" y="175.6626">_typ : Literal[&lt;ComTyp.DIENSTLEISTUNG: 'DIENSTLEISTUNG'&gt;] [1] = ComTyp.DIENSTLEISTUNG</text><text fill="#000000" font-family="sans-serif" font-size="14" lengthAdjust="spacing" textLength="220.8281" x="13" y="191.9595">bezeichnung : str [0..1] = None</text></g><!--link Dienstleistung to COM--><g class="link" data-entity-1="Dienstleistung" data-entity-2="COM" data-source-line="15" data-uid="lnk8" id="link_Dienstleistung_COM"><path codeLine="15" d="M691.54,129.54 C787.49,120.98 862.8613,114.2601 918.6613,109.2801" fill="none" id="Dienstleistung-to-COM" style="stroke:#181818;stroke-width:1;"/><polygon fill="none" points="936.59,107.68,918.1279,103.3038,919.1946,115.2563,936.59,107.68" style="stroke:#181818;stroke-width:1;"/></g><!--link Dienstleistung to Dienstleistungstyp--><g class="link" data-entity-1="Dienstleistung" data-entity-2="Dienstleistungstyp" data-source-line="16" data-uid="lnk9" id="link_Dienstleistung_Dienstleistungstyp"><path codeLine="16" d="M691.54,189.93 C767.73,196.6 830.3059,202.0813 885.7059,206.9413" fill="none" id="Dienstleistung-to-Dienstleistungstyp" style="stroke:#181818;stroke-width:1;"/><polygon fill="#181818" points="897.66,207.99,892.0325,203.481,885.7059,206.9413,891.3334,211.4504,897.66,207.99" style="stroke:#181818;stroke-width:1;"/><text fill="#000000" font-family="sans-serif" font-size="13" lengthAdjust="spacing" textLength="119.6089" x="722.1" y="190.0669">dienstleistungstyp</text><text fill="#000000" font-family="sans-serif" font-size="13" lengthAdjust="spacing" textLength="24.8066" x="865.373" y="220.0216">0..1</text></g><!--SRC=[hL9DQy9043rtVyLW3aB1HAaj4gpGQYY2rOFsb8QIZz4i9BiXErAqxNzlrk97J3pPmnpUyERZpRm4bmGa8UUhc23YEOR4fM0iJ7obeE6wCL6cRCiAP1VD5QTu7PXSMi-phjFADXHBOIK-eIBBp_WVAvIf6LEQ60SKSHIA4kIArc9bZaeGoj3ptaLVyItQdVRWGeS6-Egi3BxOpGTjCh1XmWbpFt7xGvakDfav6ZlJ-MBYZEUBj-cB3SroeZdmmEruy0YrV7OJu1Pv60iznGP5ERXjqznLJAL0ziEOy5DKcH_YbIU3FVAydSOz1CDfF_KUXbhb_xv6nt3s2aNKNxw8tIe5eL1whL0KwrEb6fvArHYCg1FUtVUkrNeOPHnXsKQAzBShAQYcggUvqAx6cJgjFN9k-rRhUt1uiFv1XL5GRg6XlTOudgTkOHkgcp0MymWXnJJ0N34Loqyu7x3ac4Jg5m00]--></g></svg>