<svg xmlns="http://www.w3.org/2000/svg" xmlns:xlink="http://www.w3.org/1999/xlink" contentStyleType="text/css" data-diagram-type="CLASS" height="436px" preserveAspectRatio="none" style="width:644px;height:436px;background:#FFFFFF;" version="1.1" viewBox="0 0 644 436" width="644px" zoomAndPan="magnify"><?plantuml 1.2026.6?><defs/><g><!--cluster bo4e--><g class="cluster" data-qualified-name="bo4e" data-source-line="18" id="ent0004"><path d="M407.2,6 L447.076,6 A3.75,3.75 0 0 1 449.576,8.5 L456.576,28.2969 L627.19,28.2969 A2.5,2.5 0 0 1 629.69,30.7969 L629.69,418.5 A2.5,2.5 0 0 1 627.19,421 L407.2,421 A2.5,2.5 0 0 1 404.7,418.5 L404.7,8.5 A2.5,2.5 0 0 1 407.2,6" fill="none" style="stroke:#000000;stroke-width:1.5;"/><line style="stroke:#000000;stroke-width:1.5;" x1="404.7" x2="456.576" y1="28.2969" y2="28.2969"/><text fill="#000000" font-family="sans-serif" font-size="14" font-weight="700" lengthAdjust="spacing" textLength="38.876" x="408.7" y="20.9951">bo4e</text></g><!--cluster com--><g class="cluster" data-qualified-name="bo4e.com" data-source-line="17" id="ent0002"><path d="M431.2,49 L508.8992,49 A3.75,3.75 0 0 1 511.3992,51.5 L518.3992,71.2969 L603.19,71.2969 A2.5,2.5 0 0 1 605.69,73.7969 L605.69,135.5 A2.5,2.5 0 0 1 603.19,138 L431.2,138 A2.5,2.5 0 0 1 428.7,135.5 L428.7,51.5 A2.5,2.5 0 0 1 431.2,49" fill="#E0A86C" style="stroke:#000000;stroke-width:1.5;"/><line style="stroke:#000000;stroke-width:1.5;" x1="428.7" x2="518.3992" y1="71.2969" y2="71.2969"/><text fill="#000000" font-family="sans-serif" font-size="14" font-weight="700" lengthAdjust="spacing" textLength="76.6992" x="432.7" y="63.9951">bo4e.com</text></g><!--cluster enum--><g class="cluster" data-qualified-name="bo4e.enum" data-source-line="25" id="ent0005"><path d="M436.68,162 L525.8909,162 A3.75,3.75 0 0 1 528.3909,164.5 L535.3909,184.2969 L597.71,184.2969 A2.5,2.5 0 0 1 600.21,186.7969 L600.21,394.5 A2.5,2.5 0 0 1 597.71,397 L436.68,397 A2.5,2.5 0 0 1 434.18,394.5 L434.18,164.5 A2.5,2.5 0 0 1 436.68,162" fill="#D1C358" style="stroke:#000000;stroke-width:1.5;"/><line style="stroke:#000000;stroke-width:1.5;" x1="434.18" x2="535.3909" y1="184.2969" y2="184.2969"/><text fill="#000000" font-family="sans-serif" font-size="14" font-weight="700" lengthAdjust="spacing" textLength="88.2109" x="438.18" y="176.9951">bo4e.enum</text></g><!--class Energieherkunft--><g class="entity" data-qualified-name="bo4e.com.Energieherkunft" data-source-line="18" id="ent0003"><rect fill="#F1F1F1" height="37.9375" rx="2.5" ry="2.5" style="stroke:#181818;stroke-width:0.5;" width="144.9912" x="444.7" y="84.03"/><ellipse cx="459.7" cy="102.9987" fill="#ADD1B2" rx="11" ry="11" style="stroke:#181818;stroke-width:1;"/><path d="M462.6688,108.6394 Q462.0906,108.9362 461.45,109.0769 Q460.8094,109.2331 460.1063,109.2331 Q457.6063,109.2331 456.2781,107.5925 Q454.9656,105.9362 454.9656,102.8112 Q454.9656,99.6862 456.2781,98.03 Q457.6063,96.3737 460.1063,96.3737 Q460.8094,96.3737 461.45,96.53 Q462.1063,96.6862 462.6688,96.9831 L462.6688,99.7019 Q462.0438,99.1237 461.45,98.8581 Q460.8563,98.5769 460.2313,98.5769 Q458.8875,98.5769 458.2,99.655 Q457.5125,100.7175 457.5125,102.8112 Q457.5125,104.905 458.2,105.9831 Q458.8875,107.0456 460.2313,107.0456 Q460.8563,107.0456 461.45,106.78 Q462.0438,106.4987 462.6688,105.9206 L462.6688,108.6394 Z " fill="#000000"/><a href="https://bo4e.github.io/BO4E-python/latest/api/bo4e.com.html#module-bo4e.com.energieherkunft" target="_top" title="https://bo4e.github.io/BO4E-python/latest/api/bo4e.com.html#module-bo4e.com.energieherkunft" xlink:actuate="onRequest" xlink:href="https://bo4e.github.io/BO4E-python/latest/api/bo4e.com.html#module-bo4e.com.energieherkunft" xlink:show="new" xlink:title="https://bo4e.github.io/BO4E-python/latest/api/bo4e.com.html#module-bo4e.com.energieherkunft" xlink:type="simple"><text fill="#0000FF" font-family="sans-serif" font-size="14" lengthAdjust="spacing" text-decoration="underline" textLength="112.9912" x="473.7" y="102.0251">Energieherkunft</text></a><text fill="#000000" font-family="sans-serif" font-size="10" lengthAdjust="spacing" textLength="105.2441" x="477.5735" y="114.6091">com.Energieherkunft</text></g><!--class Oekolabel--><g class="entity" data-qualified-name="bo4e.enum.Oekolabel" data-source-line="26" id="ent0006"><rect fill="#F1F1F1" height="37.9375" rx="2.5" ry="2.5" style="stroke:#181818;stroke-width:0.5;" width="113.8652" x="460.26" y="197.03"/><ellipse cx="475.26" cy="215.9988" fill="#ADD1B2" rx="11" ry="11" style="stroke:#181818;stroke-width:1;"/><path d="M478.2288,221.6394 Q477.6506,221.9363 477.01,222.0769 Q476.3694,222.2331 475.6663,222.2331 Q473.1663,222.2331 471.8381,220.5925 Q470.5256,218.9363 470.5256,215.8113 Q470.5256,212.6863 471.8381,211.03 Q473.1663,209.3738 475.6663,209.3738 Q476.3694,209.3738 477.01,209.53 Q477.6663,209.6863 478.2288,209.9831 L478.2288,212.7019 Q477.6038,212.1238 477.01,211.8581 Q476.4163,211.5769 475.7913,211.5769 Q474.4475,211.5769 473.76,212.655 Q473.0725,213.7175 473.0725,215.8113 Q473.0725,217.905 473.76,218.9831 Q474.4475,220.0456 475.7913,220.0456 Q476.4163,220.0456 477.01,219.78 Q477.6038,219.4988 478.2288,218.9206 L478.2288,221.6394 Z " fill="#000000"/><a href="https://bo4e.github.io/BO4E-python/latest/api/bo4e.enum.html#module-bo4e.enum.oekolabel" target="_top" title="https://bo4e.github.io/BO4E-python/latest/api/bo4e.enum.html#module-bo4e.enum.oekolabel" xlink:actuate="onRequest" xlink:href="https://bo4e.github.io/BO4E-python/latest/api/bo4e.enum.html#module-bo4e.enum.oekolabel" xlink:show="new" xlink:title="https://bo4e.github.io/BO4E-python/latest/api/bo4e.enum.html#module-bo4e.enum.oekolabel" xlink:type="simple"><text fill="#0000FF" font-family="sans-serif" font-size="14" lengthAdjust="spacing" text-decoration="underline" textLength="70.1641" x="495.1106" y="215.0251">Oekolabel</text></a><text fill="#000000" font-family="sans-serif" font-size="10" lengthAdjust="spacing" textLength="81.8652" x="489.26" y="227.6091">enum.Oekolabel</text></g><!--class Oekozertifikat--><g class="entity" data-qualified-name="bo4e.enum.Oekozertifikat" data-source-line="28" id="ent0007"><rect fill="#F1F1F1" height="37.9375" rx="2.5" ry="2.5" style="stroke:#181818;stroke-width:0.5;" width="134.0313" x="450.18" y="270.03"/><ellipse cx="465.18" cy="288.9988" fill="#ADD1B2" rx="11" ry="11" style="stroke:#181818;stroke-width:1;"/><path d="M468.1488,294.6394 Q467.5706,294.9363 466.93,295.0769 Q466.2894,295.2331 465.5863,295.2331 Q463.0863,295.2331 461.7581,293.5925 Q460.4456,291.9363 460.4456,288.8113 Q460.4456,285.6863 461.7581,284.03 Q463.0863,282.3738 465.5863,282.3738 Q466.2894,282.3738 466.93,282.53 Q467.5863,282.6863 468.1488,282.9831 L468.1488,285.7019 Q467.5238,285.1238 466.93,284.8581 Q466.3363,284.5769 465.7113,284.5769 Q464.3675,284.5769 463.68,285.655 Q462.9925,286.7175 462.9925,288.8113 Q462.9925,290.905 463.68,291.9831 Q464.3675,293.0456 465.7113,293.0456 Q466.3363,293.0456 466.93,292.78 Q467.5238,292.4988 468.1488,291.9206 L468.1488,294.6394 Z " fill="#000000"/><a href="https://bo4e.github.io/BO4E-python/latest/api/bo4e.enum.html#module-bo4e.enum.oekozertifikat" target="_top" title="https://bo4e.github.io/BO4E-python/latest/api/bo4e.enum.html#module-bo4e.enum.oekozertifikat" xlink:actuate="onRequest" xlink:href="https://bo4e.github.io/BO4E-python/latest/api/bo4e.enum.html#module-bo4e.enum.oekozertifikat" xlink:show="new" xlink:title="https://bo4e.github.io/BO4E-python/latest/api/bo4e.enum.html#module-bo4e.enum.oekozertifikat" xlink:type="simple"><text fill="#0000FF" font-family="sans-serif" font-size="14" lengthAdjust="spacing" text-decoration="underline" textLength="98.3965" x="480.9974" y="288.0251">Oekozertifikat</text></a><text fill="#000000" font-family="sans-serif" font-size="10" lengthAdjust="spacing" textLength="102.0313" x="479.18" y="300.6091">enum.Oekozertifikat</text></g><!--class Sparte--><g class="entity" data-qualified-name="bo4e.enum.Sparte" data-source-line="30" id="ent0008"><rect fill="#F1F1F1" height="37.9375" rx="2.5" ry="2.5" style="stroke:#181818;stroke-width:0.5;" width="96.7559" x="468.82" y="343.03"/><ellipse cx="483.82" cy="361.9988" fill="#ADD1B2" rx="11" ry="11" style="stroke:#181818;stroke-width:1;"/><path d="M486.7888,367.6394 Q486.2106,367.9363 485.57,368.0769 Q484.9294,368.2331 484.2263,368.2331 Q481.7263,368.2331 480.3981,366.5925 Q479.0856,364.9363 479.0856,361.8113 Q479.0856,358.6863 480.3981,357.03 Q481.7263,355.3738 484.2263,355.3738 Q484.9294,355.3738 485.57,355.53 Q486.2263,355.6863 486.7888,355.9831 L486.7888,358.7019 Q486.1638,358.1238 485.57,357.8581 Q484.9763,357.5769 484.3513,357.5769 Q483.0075,357.5769 482.32,358.655 Q481.6325,359.7175 481.6325,361.8113 Q481.6325,363.905 482.32,364.9831 Q483.0075,366.0456 484.3513,366.0456 Q484.9763,366.0456 485.57,365.78 Q486.1638,365.4988 486.7888,364.9206 L486.7888,367.6394 Z " fill="#000000"/><a href="https://bo4e.github.io/BO4E-python/latest/api/bo4e.enum.html#module-bo4e.enum.sparte" target="_top" title="https://bo4e.github.io/BO4E-python/latest/api/bo4e.enum.html#module-bo4e.enum.sparte" xlink:actuate="onRequest" xlink:href="https://bo4e.github.io/BO4E-python/latest/api/bo4e.enum.html#module-bo4e.enum.sparte" xlink:show="new" xlink:title="https://bo4e.github.io/BO4E-python/latest/api/bo4e.enum.html#module-bo4e.enum.sparte" xlink:type="simple"><text fill="#0000FF" font-family="sans-serif" font-size="14" lengthAdjust="spacing" text-decoration="underline" textLength="46.2109" x="507.0925" y="361.0251">Sparte</text></a><text fill="#000000" font-family="sans-serif" font-size="10" lengthAdjust="spacing" textLength="64.7559" x="497.82" y="373.6091">enum.Sparte</text></g><!--class Energiemix--><g class="entity" data-qualified-name="Energiemix" data-source-line="3" id="ent0001"><rect fill="#F1F1F1" height="225.2031" rx="2.5" ry="2.5" style="stroke:#181818;stroke-width:0.5;" width="252.7002" x="7" y="144.4"/><ellipse cx="88.5142" cy="163.3687" fill="#ADD1B2" rx="11" ry="11" style="stroke:#181818;stroke-width:1;"/><path d="M91.4829,169.0094 Q90.9048,169.3062 90.2642,169.4469 Q89.6235,169.6031 88.9204,169.6031 Q86.4204,169.6031 85.0923,167.9625 Q83.7798,166.3062 83.7798,163.1812 Q83.7798,160.0562 85.0923,158.4 Q86.4204,156.7437 88.9204,156.7437 Q89.6235,156.7437 90.2642,156.9 Q90.9204,157.0562 91.4829,157.3531 L91.4829,160.0719 Q90.8579,159.4937 90.2642,159.2281 Q89.6704,158.9469 89.0454,158.9469 Q87.7017,158.9469 87.0142,160.025 Q86.3267,161.0875 86.3267,163.1812 Q86.3267,165.275 87.0142,166.3531 Q87.7017,167.4156 89.0454,167.4156 Q89.6704,167.4156 90.2642,167.15 Q90.8579,166.8687 91.4829,166.2906 L91.4829,169.0094 Z " fill="#000000"/><a href="https://bo4e.github.io/BO4E-python/latest/api/bo4e.com.html#module-bo4e.com.energiemix" target="_top" title="https://bo4e.github.io/BO4E-python/latest/api/bo4e.com.html#module-bo4e.com.energiemix" xlink:actuate="onRequest" xlink:href="https://bo4e.github.io/BO4E-python/latest/api/bo4e.com.html#module-bo4e.com.energiemix" xlink:show="new" xlink:title="https://bo4e.github.io/BO4E-python/latest/api/bo4e.com.html#module-bo4e.com.energiemix" xlink:type="simple"><text fill="#0000FF" font-family="sans-serif" font-size="14" lengthAdjust="spacing" text-decoration="underline" textLength="79.29" x="109.9551" y="162.3951">Energiemix</text></a><text fill="#000000" font-family="sans-serif" font-size="10" lengthAdjust="spacing" textLength="81.1719" x="109.0142" y="174.9791">com.Energiemix</text><line style="stroke:#181818;stroke-width:0.5;" x1="8" x2="258.7002" y1="182.3375" y2="182.3375"/><text fill="#000000" font-family="sans-serif" font-size="14" lengthAdjust="spacing" textLength="94.0215" x="13" y="199.3326">_id : str [0..1]</text><text fill="#000000" font-family="sans-serif" font-size="14" lengthAdjust="spacing" textLength="240.7002" x="13" y="215.6295">_typ : Literal["ENERGIEMIX"] [0..1]</text><text fill="#000000" font-family="sans-serif" font-size="14" lengthAdjust="spacing" textLength="132.5215" x="13" y="231.9264">_version : str [0..1]</text><text fill="#000000" font-family="sans-serif" font-size="14" lengthAdjust="spacing" textLength="162.333" x="13" y="248.2232">atommuell : float [0..1]</text><text fill="#000000" font-family="sans-serif" font-size="14" lengthAdjust="spacing" textLength="154.4922" x="13" y="264.5201">bemerkung : str [0..1]</text><text fill="#000000" font-family="sans-serif" font-size="14" lengthAdjust="spacing" textLength="163.6729" x="13" y="280.817">bezeichnung : str [0..1]</text><text fill="#000000" font-family="sans-serif" font-size="14" lengthAdjust="spacing" textLength="174.6172" x="13" y="297.1139">co2Emission : float [0..1]</text><text fill="#000000" font-family="sans-serif" font-size="14" lengthAdjust="spacing" textLength="212.4063" x="13" y="313.4107">energiemixnummer : int [0..1]</text><text fill="#000000" font-family="sans-serif" font-size="14" lengthAdjust="spacing" textLength="182.9775" x="13" y="329.7076">gueltigkeitsjahr : int [0..1]</text><text fill="#000000" font-family="sans-serif" font-size="14" lengthAdjust="spacing" textLength="203.6357" x="13" y="346.0045">istInOekoTopTen : bool [0..1]</text><text fill="#000000" font-family="sans-serif" font-size="14" lengthAdjust="spacing" textLength="128.4814" x="13" y="362.3014">website : str [0..1]</text></g><!--link Energiemix to Energieherkunft--><g class="link" data-entity-1="ent0001" data-entity-2="ent0003" data-link-type="composition" data-source-line="34" id="lnk9"><path codeLine="34" d="M260.17,206.25 C331.45,177.51 405.3413,147.7092 457.2513,126.7692" fill="none" id="Energiemix-to-Energieherkunft" style="stroke:#181818;stroke-width:1;"/><polygon fill="#181818" points="468.38,122.28,461.3193,120.815,457.2513,126.7692,464.3121,128.2342,468.38,122.28" style="stroke:#181818;stroke-width:1;stroke-linejoin:miter;stroke-miterlimit:10;"/><text fill="#000000" font-family="sans-serif" font-size="13" lengthAdjust="spacing" textLength="36.5244" x="321.2" y="153.2769">anteil</text><text fill="#000000" font-family="sans-serif" font-size="13" lengthAdjust="spacing" textLength="23.0356" x="428.4212" y="141.8978">0..*</text></g><!--link Energiemix to Oekolabel--><g class="link" data-entity-1="ent0001" data-entity-2="ent0006" data-link-type="composition" data-source-line="35" id="lnk10"><path codeLine="35" d="M260.17,243.49 C327.65,236.25 395.5085,228.9607 447.8685,223.3407" fill="none" id="Energiemix-to-Oekolabel" style="stroke:#181818;stroke-width:1;"/><polygon fill="#181818" points="459.8,222.06,453.4074,218.7232,447.8685,223.3407,454.2611,226.6775,459.8,222.06" style="stroke:#181818;stroke-width:1;stroke-linejoin:miter;stroke-miterlimit:10;"/><text fill="#000000" font-family="sans-serif" font-size="13" lengthAdjust="spacing" textLength="62.8735" x="308.2" y="226.4969">oekolabel</text><text fill="#000000" font-family="sans-serif" font-size="13" lengthAdjust="spacing" textLength="23.0356" x="429.2668" y="235.6174">0..*</text></g><!--link Energiemix to Oekozertifikat--><g class="link" data-entity-1="ent0001" data-entity-2="ent0007" data-link-type="composition" data-source-line="36" id="lnk11"><path codeLine="36" d="M260.12,276.79 C270.11,278 280.06,279.1 289.7,280 C343.58,285.04 392.9228,287.0128 438.1628,287.9828" fill="none" id="Energiemix-to-Oekozertifikat" style="stroke:#181818;stroke-width:1;"/><polygon fill="#181818" points="450.16,288.24,444.2471,284.1123,438.1628,287.9828,444.0756,292.1105,450.16,288.24" style="stroke:#181818;stroke-width:1;stroke-linejoin:miter;stroke-miterlimit:10;"/><text fill="#000000" font-family="sans-serif" font-size="13" lengthAdjust="spacing" textLength="97.0874" x="290.7" y="276.0669">oekozertifikate</text><text fill="#000000" font-family="sans-serif" font-size="13" lengthAdjust="spacing" textLength="23.0356" x="419.0629" y="301.0089">0..*</text></g><!--link Energiemix to Sparte--><g class="link" data-entity-1="ent0001" data-entity-2="ent0008" data-link-type="composition" data-source-line="37" id="lnk12"><path codeLine="37" d="M259.87,301.98 C269.92,305.17 279.95,308.22 289.7,311 C350.75,328.42 410.6415,341.3645 456.7515,350.5545" fill="none" id="Energiemix-to-Sparte" style="stroke:#181818;stroke-width:1;"/><polygon fill="#181818" points="468.52,352.9,463.4176,347.8044,456.7515,350.5545,461.8539,355.6501,468.52,352.9" style="stroke:#181818;stroke-width:1;stroke-linejoin:miter;stroke-miterlimit:10;"/><text fill="#000000" font-family="sans-serif" font-size="13" lengthAdjust="spacing" textLength="67.8501" x="305.7" y="307.0669">energieart</text><text fill="#000000" font-family="sans-serif" font-size="13" lengthAdjust="spacing" textLength="24.8066" x="436.0439" y="364.7514">0..1</text></g><?plantuml-src jLHjYzD04FwUNx6atmxQj7hA4KHGYLhKgvmLX5faaqoJiViIiXlFg_I_EqsQjqjF56pxeJippyu-VURP5R2np6gMOv9Q5cCEaKMj72SIt1ZchbQfjPdnFI_Kbp19qAP5E47jlLnS1kFipgPQUO9RCDRZ6LQeICj9QgKOIHqN0iPD4XJa2OB4donebklrL_NCu0xysVJv0TMMNCPD1yb-EOm-tp1cFZCsPwlfP39RLqbxbr7sFLh8kLYvmNLmysOUV9X_STSzt0_83Vt3OGTkjPG5246bZT3STeiXICYtXKg6-qBO0KQfEbcCzAD0eZcUE6ZR2g8AIISG1bKFaH0ZYyaMq9hlF3s1G6FdQW5RlTJP4Wx7X5gBBk8MGaEwzDdj7KTn2IRZ4J2t7b6fU1smKJ1zSVNqrL7tSreYBTKbBmRz-25prFMkGveU_swJjy7Dky_NhvT_xHLb0SN7NE-0Xd5li7lwtfSMQBwjjeU8ZU9PzFZ9rNyGzz1kg6wPrUGBmKCGR56lUfAMeAPKCcmYOhO_DxSTv1Otk2Nr5htmDCkstb3jT3WpNvfdJhVeK_apv5VbIrxLikH3rwppW8t75ymbbrou0zFwHrCz06-duhDcg7_0TcIfDhG9EBLjvjQi_VfLeiXnKeo1IP0XNGN7fFgMTTvdja4GiVaD?></g></svg>