<?xml version="1.0" encoding="us-ascii" standalone="no"?><svg xmlns="http://www.w3.org/2000/svg" xmlns:xlink="http://www.w3.org/1999/xlink" contentStyleType="text/css" height="315px" preserveAspectRatio="none" style="width:1219px;height:315px;background:#FFFFFF;" version="1.1" viewBox="0 0 1219 315" width="1219px" zoomAndPan="magnify"><defs/><g><!--cluster bo4e--><g id="cluster_bo4e"><path d="M952.5,6 L993.5,6 A3.75,3.75 0 0 1 996,8.5 L1003,28.2969 L1209.5,28.2969 A2.5,2.5 0 0 1 1212,30.7969 L1212,305.5 A2.5,2.5 0 0 1 1209.5,308 L952.5,308 A2.5,2.5 0 0 1 950,305.5 L950,8.5 A2.5,2.5 0 0 1 952.5,6 " fill="none" style="stroke:#000000;stroke-width:1.5;"/><line style="stroke:#000000;stroke-width:1.5;" x1="950" x2="1003" y1="28.2969" y2="28.2969"/><text fill="#000000" font-family="sans-serif" font-size="14" font-weight="bold" lengthAdjust="spacing" textLength="40" x="954" y="20.9951">bo4e</text></g><!--cluster com--><g id="cluster_com"><path d="M976.5,49 L1055.5,49 A3.75,3.75 0 0 1 1058,51.5 L1065,71.2969 L1185.5,71.2969 A2.5,2.5 0 0 1 1188,73.7969 L1188,281.5 A2.5,2.5 0 0 1 1185.5,284 L976.5,284 A2.5,2.5 0 0 1 974,281.5 L974,51.5 A2.5,2.5 0 0 1 976.5,49 " fill="#E0A86C" style="stroke:#000000;stroke-width:1.5;"/><line style="stroke:#000000;stroke-width:1.5;" x1="974" x2="1065" y1="71.2969" y2="71.2969"/><a href="https://bo4e.github.io/BO4E-python/latest/api/bo4e.com.html" target="_top" title="https://bo4e.github.io/BO4E-python/latest/api/bo4e.com.html" xlink:actuate="onRequest" xlink:href="https://bo4e.github.io/BO4E-python/latest/api/bo4e.com.html" xlink:show="new" xlink:title="https://bo4e.github.io/BO4E-python/latest/api/bo4e.com.html" xlink:type="simple"><text fill="#0000FF" font-family="sans-serif" font-size="14" font-weight="bold" lengthAdjust="spacing" text-decoration="underline" textLength="78" x="978" y="63.9951">bo4e.com</text></a></g><!--class COM--><g id="elem_COM"><rect codeLine="9" fill="#F1F1F1" height="37.9375" id="COM" rx="2.5" ry="2.5" style="stroke:#181818;stroke-width:0.5;" width="104" x="1029" y="84.03"/><ellipse cx="1044" cy="102.9988" fill="#ADD1B2" rx="11" ry="11" style="stroke:#181818;stroke-width:1.0;"/><path d="M1046.9688,108.6394 Q1046.3906,108.9363 1045.75,109.0769 Q1045.1094,109.2331 1044.4063,109.2331 Q1041.9063,109.2331 1040.5781,107.5925 Q1039.2656,105.9363 1039.2656,102.8113 Q1039.2656,99.6863 1040.5781,98.03 Q1041.9063,96.3738 1044.4063,96.3738 Q1045.1094,96.3738 1045.75,96.53 Q1046.4063,96.6863 1046.9688,96.9831 L1046.9688,99.7019 Q1046.3438,99.1238 1045.75,98.8581 Q1045.1563,98.5769 1044.5313,98.5769 Q1043.1875,98.5769 1042.5,99.655 Q1041.8125,100.7175 1041.8125,102.8113 Q1041.8125,104.905 1042.5,105.9831 Q1043.1875,107.0456 1044.5313,107.0456 Q1045.1563,107.0456 1045.75,106.78 Q1046.3438,106.4988 1046.9688,105.9206 L1046.9688,108.6394 Z " fill="#000000"/><a href="https://bo4e.github.io/BO4E-python/latest/api/bo4e.com.html#bo4e.com.com.COM" target="_top" title="https://bo4e.github.io/BO4E-python/latest/api/bo4e.com.html#bo4e.com.com.COM" xlink:actuate="onRequest" xlink:href="https://bo4e.github.io/BO4E-python/latest/api/bo4e.com.html#bo4e.com.com.COM" xlink:show="new" xlink:title="https://bo4e.github.io/BO4E-python/latest/api/bo4e.com.html#bo4e.com.com.COM" xlink:type="simple"><text fill="#0000FF" font-family="sans-serif" font-size="14" lengthAdjust="spacing" text-decoration="underline" textLength="33" x="1077.5" y="102.0251">COM</text></a><text fill="#000000" font-family="sans-serif" font-size="10" lengthAdjust="spacing" textLength="72" x="1058" y="114.6091">bo4e.com.com</text></g><!--class Fremdkostenposition--><g id="elem_Fremdkostenposition"><rect codeLine="10" fill="#F1F1F1" height="37.9375" id="Fremdkostenposition" rx="2.5" ry="2.5" style="stroke:#181818;stroke-width:0.5;" width="182" x="990" y="157.03"/><ellipse cx="1005" cy="175.9988" fill="#ADD1B2" rx="11" ry="11" style="stroke:#181818;stroke-width:1.0;"/><path d="M1007.9688,181.6394 Q1007.3906,181.9363 1006.75,182.0769 Q1006.1094,182.2331 1005.4063,182.2331 Q1002.9063,182.2331 1001.5781,180.5925 Q1000.2656,178.9363 1000.2656,175.8113 Q1000.2656,172.6863 1001.5781,171.03 Q1002.9063,169.3738 1005.4063,169.3738 Q1006.1094,169.3738 1006.75,169.53 Q1007.4063,169.6863 1007.9688,169.9831 L1007.9688,172.7019 Q1007.3438,172.1238 1006.75,171.8581 Q1006.1563,171.5769 1005.5313,171.5769 Q1004.1875,171.5769 1003.5,172.655 Q1002.8125,173.7175 1002.8125,175.8113 Q1002.8125,177.905 1003.5,178.9831 Q1004.1875,180.0456 1005.5313,180.0456 Q1006.1563,180.0456 1006.75,179.78 Q1007.3438,179.4988 1007.9688,178.9206 L1007.9688,181.6394 Z " fill="#000000"/><a href="https://bo4e.github.io/BO4E-python/latest/api/bo4e.com.html#bo4e.com.fremdkostenposition.Fremdkostenposition" target="_top" title="https://bo4e.github.io/BO4E-python/latest/api/bo4e.com.html#bo4e.com.fremdkostenposition.Fremdkostenposition" xlink:actuate="onRequest" xlink:href="https://bo4e.github.io/BO4E-python/latest/api/bo4e.com.html#bo4e.com.fremdkostenposition.Fremdkostenposition" xlink:show="new" xlink:title="https://bo4e.github.io/BO4E-python/latest/api/bo4e.com.html#bo4e.com.fremdkostenposition.Fremdkostenposition" xlink:type="simple"><text fill="#0000FF" font-family="sans-serif" font-size="14" lengthAdjust="spacing" text-decoration="underline" textLength="147" x="1020.5" y="175.0251">Fremdkostenposition</text></a><text fill="#000000" font-family="sans-serif" font-size="10" lengthAdjust="spacing" textLength="150" x="1019" y="187.6091">bo4e.com.fremdkostenposition</text></g><!--class Betrag--><g id="elem_Betrag"><rect codeLine="11" fill="#F1F1F1" height="37.9375" id="Betrag" rx="2.5" ry="2.5" style="stroke:#181818;stroke-width:0.5;" width="115" x="1023.5" y="230.03"/><ellipse cx="1038.5" cy="248.9988" fill="#ADD1B2" rx="11" ry="11" style="stroke:#181818;stroke-width:1.0;"/><path d="M1041.4688,254.6394 Q1040.8906,254.9363 1040.25,255.0769 Q1039.6094,255.2331 1038.9063,255.2331 Q1036.4063,255.2331 1035.0781,253.5925 Q1033.7656,251.9363 1033.7656,248.8113 Q1033.7656,245.6863 1035.0781,244.03 Q1036.4063,242.3738 1038.9063,242.3738 Q1039.6094,242.3738 1040.25,242.53 Q1040.9063,242.6863 1041.4688,242.9831 L1041.4688,245.7019 Q1040.8438,245.1238 1040.25,244.8581 Q1039.6563,244.5769 1039.0313,244.5769 Q1037.6875,244.5769 1037,245.655 Q1036.3125,246.7175 1036.3125,248.8113 Q1036.3125,250.905 1037,251.9831 Q1037.6875,253.0456 1039.0313,253.0456 Q1039.6563,253.0456 1040.25,252.78 Q1040.8438,252.4988 1041.4688,251.9206 L1041.4688,254.6394 Z " fill="#000000"/><a href="https://bo4e.github.io/BO4E-python/latest/api/bo4e.com.html#bo4e.com.betrag.Betrag" target="_top" title="https://bo4e.github.io/BO4E-python/latest/api/bo4e.com.html#bo4e.com.betrag.Betrag" xlink:actuate="onRequest" xlink:href="https://bo4e.github.io/BO4E-python/latest/api/bo4e.com.html#bo4e.com.betrag.Betrag" xlink:show="new" xlink:title="https://bo4e.github.io/BO4E-python/latest/api/bo4e.com.html#bo4e.com.betrag.Betrag" xlink:type="simple"><text fill="#0000FF" font-family="sans-serif" font-size="14" lengthAdjust="spacing" text-decoration="underline" textLength="46" x="1071" y="248.0251">Betrag</text></a><text fill="#000000" font-family="sans-serif" font-size="10" lengthAdjust="spacing" textLength="83" x="1052.5" y="260.6091">bo4e.com.betrag</text></g><!--class Fremdkostenblock--><g id="elem_Fremdkostenblock"><rect codeLine="3" fill="#F1F1F1" height="78.5313" id="Fremdkostenblock" rx="2.5" ry="2.5" style="stroke:#181818;stroke-width:0.5;" width="769" x="7" y="136.73"/><ellipse cx="318.75" cy="155.6988" fill="#ADD1B2" rx="11" ry="11" style="stroke:#181818;stroke-width:1.0;"/><path d="M321.7188,161.3394 Q321.1406,161.6363 320.5,161.7769 Q319.8594,161.9331 319.1563,161.9331 Q316.6563,161.9331 315.3281,160.2925 Q314.0156,158.6363 314.0156,155.5113 Q314.0156,152.3863 315.3281,150.73 Q316.6563,149.0738 319.1563,149.0738 Q319.8594,149.0738 320.5,149.23 Q321.1563,149.3863 321.7188,149.6831 L321.7188,152.4019 Q321.0938,151.8238 320.5,151.5581 Q319.9063,151.2769 319.2813,151.2769 Q317.9375,151.2769 317.25,152.355 Q316.5625,153.4175 316.5625,155.5113 Q316.5625,157.605 317.25,158.6831 Q317.9375,159.7456 319.2813,159.7456 Q319.9063,159.7456 320.5,159.48 Q321.0938,159.1988 321.7188,158.6206 L321.7188,161.3394 Z " fill="#000000"/><a href="https://bo4e.github.io/BO4E-python/latest/api/bo4e.com.html#bo4e.com.fremdkostenblock.Fremdkostenblock" target="_top" title="https://bo4e.github.io/BO4E-python/latest/api/bo4e.com.html#bo4e.com.fremdkostenblock.Fremdkostenblock" xlink:actuate="onRequest" xlink:href="https://bo4e.github.io/BO4E-python/latest/api/bo4e.com.html#bo4e.com.fremdkostenblock.Fremdkostenblock" xlink:show="new" xlink:title="https://bo4e.github.io/BO4E-python/latest/api/bo4e.com.html#bo4e.com.fremdkostenblock.Fremdkostenblock" xlink:type="simple"><text fill="#0000FF" font-family="sans-serif" font-size="14" lengthAdjust="spacing" text-decoration="underline" textLength="129" x="343.25" y="154.7251">Fremdkostenblock</text></a><text fill="#000000" font-family="sans-serif" font-size="10" lengthAdjust="spacing" textLength="137" x="339.25" y="167.3091">bo4e.com.fremdkostenblock</text><line style="stroke:#181818;stroke-width:0.5;" x1="8" x2="775" y1="174.6675" y2="174.6675"/><text fill="#000000" font-family="sans-serif" font-size="14" lengthAdjust="spacing" textLength="757" x="13" y="191.6626">_typ : Literal[&lt;ComTyp.FREMDKOSTENBLOCK: 'FREMDKOSTENBLOCK'&gt;] [1] = ComTyp.FREMDKOSTENBLOCK</text><text fill="#000000" font-family="sans-serif" font-size="14" lengthAdjust="spacing" textLength="304" x="13" y="207.9595">kostenblockbezeichnung : str [0..1] = None</text></g><!--link Fremdkostenblock to COM--><g id="link_Fremdkostenblock_COM"><path codeLine="14" d="M766.93,136.24 C870.58,125.24 952.5808,116.5325 1010.6308,110.3625 " fill="none" id="Fremdkostenblock-to-COM" style="stroke:#181818;stroke-width:1.0;"/><polygon fill="none" points="1028.53,108.46,1009.9967,104.3961,1011.265,116.3289,1028.53,108.46" style="stroke:#181818;stroke-width:1.0;"/></g><!--link Fremdkostenblock to Fremdkostenposition--><g id="link_Fremdkostenblock_Fremdkostenposition"><path codeLine="15" d="M776.45,176 C856.27,176 921.15,176 977.57,176 " fill="none" id="Fremdkostenblock-to-Fremdkostenposition" style="stroke:#181818;stroke-width:1.0;"/><polygon fill="#181818" points="989.57,176,983.57,172,977.57,176,983.57,180,989.57,176" style="stroke:#181818;stroke-width:1.0;"/><text fill="#000000" font-family="sans-serif" font-size="13" lengthAdjust="spacing" textLength="109" x="815.5" y="172.0669">kostenpositionen</text><text fill="#000000" font-family="sans-serif" font-size="13" lengthAdjust="spacing" textLength="23" x="959.0111" y="188.6226">0..*</text></g><!--link Fremdkostenblock to Betrag--><g id="link_Fremdkostenblock_Betrag"><path codeLine="16" d="M766.93,215.76 C867.44,226.43 952.487,235.4637 1011.197,241.6937 " fill="none" id="Fremdkostenblock-to-Betrag" style="stroke:#181818;stroke-width:1.0;"/><polygon fill="#181818" points="1023.13,242.96,1017.5856,238.3492,1011.197,241.6937,1016.7414,246.3045,1023.13,242.96" style="stroke:#181818;stroke-width:1.0;"/><text fill="#000000" font-family="sans-serif" font-size="13" lengthAdjust="spacing" textLength="126" x="807" y="217.0669">summeKostenblock</text><text fill="#000000" font-family="sans-serif" font-size="13" lengthAdjust="spacing" textLength="24" x="991.488" y="255.194">0..1</text></g><!--SRC=[hLDDQy9043rtVyMW1q4mKP1IWXLg6Yz-15flQIX979F5x6x8hXHj-z-Rn4PjZEsX7ePb7c- -tyQuKg04f3IC52nfYe6YWXCIn9wKq72SIAb46hhkYpvg8LNHnjUeq4Tst-eaMnK9hiUUGgbqBw5xLY2O5YaMDm_UAaMsN0kfaFkn2DRQk0905N3T5pwGT8T6hpkycAS1dZmBXNToywgs2HWmfGfJBtO6fc2BRQADdwpPuyH-NbZpqTGs9mQqgb1hw8BJS-4UBiIGcvDQFkwG1X7Vy30h9rKAJbVJYl2vu4W-2U4UGvbu0Vvpcr1whbkCNRhGjBeFTxTcFlPrhvQRQSyWi_fpP5QqaX6kNVlaqecGD1VbgMXA36gmFwLJ4glgAV5hp-AZIhrG6nKFx9_w9lVCegyzBHVG-MVfT3w6X_ld9whXPAGsD38njXj7Qjq63VW98FyjM-yas_T0cUutZE7aI2Saeai4Xip7L18PYJSupxcY62_b5m00]--></g></svg>