<?xml version="1.0" encoding="us-ascii" standalone="no"?><svg xmlns="http://www.w3.org/2000/svg" xmlns:xlink="http://www.w3.org/1999/xlink" contentStyleType="text/css" height="190px" preserveAspectRatio="none" style="width:616px;height:190px;background:#FFFFFF;" version="1.1" viewBox="0 0 616 190" width="616px" zoomAndPan="magnify"><defs/><g><!--cluster bo4e--><g id="cluster_bo4e"><path d="M379.5,6 L420.5,6 A3.75,3.75 0 0 1 423,8.5 L430,28.2969 L606.5,28.2969 A2.5,2.5 0 0 1 609,30.7969 L609,159.5 A2.5,2.5 0 0 1 606.5,162 L379.5,162 A2.5,2.5 0 0 1 377,159.5 L377,8.5 A2.5,2.5 0 0 1 379.5,6 " fill="none" style="stroke:#000000;stroke-width:1.5;"/><line style="stroke:#000000;stroke-width:1.5;" x1="377" x2="430" y1="28.2969" y2="28.2969"/><text fill="#000000" font-family="sans-serif" font-size="14" font-weight="bold" lengthAdjust="spacing" textLength="40" x="381" y="20.9951">bo4e</text></g><!--cluster com--><g id="cluster_com"><path d="M403.5,49 L482.5,49 A3.75,3.75 0 0 1 485,51.5 L492,71.2969 L582.5,71.2969 A2.5,2.5 0 0 1 585,73.7969 L585,135.5 A2.5,2.5 0 0 1 582.5,138 L403.5,138 A2.5,2.5 0 0 1 401,135.5 L401,51.5 A2.5,2.5 0 0 1 403.5,49 " fill="#E0A86C" style="stroke:#000000;stroke-width:1.5;"/><line style="stroke:#000000;stroke-width:1.5;" x1="401" x2="492" y1="71.2969" y2="71.2969"/><a href="https://bo4e.github.io/BO4E-python/latest/api/bo4e.com.html" target="_top" title="https://bo4e.github.io/BO4E-python/latest/api/bo4e.com.html" xlink:actuate="onRequest" xlink:href="https://bo4e.github.io/BO4E-python/latest/api/bo4e.com.html" xlink:show="new" xlink:title="https://bo4e.github.io/BO4E-python/latest/api/bo4e.com.html" xlink:type="simple"><text fill="#0000FF" font-family="sans-serif" font-size="14" font-weight="bold" lengthAdjust="spacing" text-decoration="underline" textLength="78" x="405" y="63.9951">bo4e.com</text></a></g><!--class Kostenposition--><g id="elem_Kostenposition"><rect codeLine="14" fill="#F1F1F1" height="37.9375" id="Kostenposition" rx="2.5" ry="2.5" style="stroke:#181818;stroke-width:0.5;" width="152" x="417" y="84.03"/><ellipse cx="432" cy="102.9987" fill="#ADD1B2" rx="11" ry="11" style="stroke:#181818;stroke-width:1.0;"/><path d="M434.9688,108.6394 Q434.3906,108.9362 433.75,109.0769 Q433.1094,109.2331 432.4063,109.2331 Q429.9063,109.2331 428.5781,107.5925 Q427.2656,105.9362 427.2656,102.8112 Q427.2656,99.6862 428.5781,98.03 Q429.9063,96.3737 432.4063,96.3737 Q433.1094,96.3737 433.75,96.53 Q434.4063,96.6862 434.9688,96.9831 L434.9688,99.7019 Q434.3438,99.1237 433.75,98.8581 Q433.1563,98.5769 432.5313,98.5769 Q431.1875,98.5769 430.5,99.655 Q429.8125,100.7175 429.8125,102.8112 Q429.8125,104.905 430.5,105.9831 Q431.1875,107.0456 432.5313,107.0456 Q433.1563,107.0456 433.75,106.78 Q434.3438,106.4987 434.9688,105.9206 L434.9688,108.6394 Z " fill="#000000"/><a href="https://bo4e.github.io/BO4E-python/latest/api/bo4e.com.html#bo4e.com.kostenposition.Kostenposition" target="_top" title="https://bo4e.github.io/BO4E-python/latest/api/bo4e.com.html#bo4e.com.kostenposition.Kostenposition" xlink:actuate="onRequest" xlink:href="https://bo4e.github.io/BO4E-python/latest/api/bo4e.com.html#bo4e.com.kostenposition.Kostenposition" xlink:show="new" xlink:title="https://bo4e.github.io/BO4E-python/latest/api/bo4e.com.html#bo4e.com.kostenposition.Kostenposition" xlink:type="simple"><text fill="#0000FF" font-family="sans-serif" font-size="14" lengthAdjust="spacing" text-decoration="underline" textLength="104" x="454" y="102.0251">Kostenposition</text></a><text fill="#000000" font-family="sans-serif" font-size="10" lengthAdjust="spacing" textLength="120" x="446" y="114.6091">bo4e.com.kostenposition</text></g><!--class Fremdkostenposition--><g id="elem_Fremdkostenposition"><rect codeLine="3" fill="#F1F1F1" height="160.0156" id="Fremdkostenposition" rx="2.5" ry="2.5" style="stroke:#181818;stroke-width:0.5;" width="350" x="7" y="22.99"/><ellipse cx="102.75" cy="41.9587" fill="#ADD1B2" rx="11" ry="11" style="stroke:#181818;stroke-width:1.0;"/><path d="M105.7188,47.5994 Q105.1406,47.8962 104.5,48.0369 Q103.8594,48.1931 103.1563,48.1931 Q100.6563,48.1931 99.3281,46.5525 Q98.0156,44.8962 98.0156,41.7712 Q98.0156,38.6462 99.3281,36.99 Q100.6563,35.3337 103.1563,35.3337 Q103.8594,35.3337 104.5,35.49 Q105.1563,35.6462 105.7188,35.9431 L105.7188,38.6619 Q105.0938,38.0837 104.5,37.8181 Q103.9063,37.5369 103.2813,37.5369 Q101.9375,37.5369 101.25,38.615 Q100.5625,39.6775 100.5625,41.7712 Q100.5625,43.865 101.25,44.9431 Q101.9375,46.0056 103.2813,46.0056 Q103.9063,46.0056 104.5,45.74 Q105.0938,45.4587 105.7188,44.8806 L105.7188,47.5994 Z " fill="#000000"/><a href="https://bo4e.github.io/BO4E-python/latest/api/bo4e.com.html#bo4e.com.fremdkostenposition.Fremdkostenposition" target="_top" title="https://bo4e.github.io/BO4E-python/latest/api/bo4e.com.html#bo4e.com.fremdkostenposition.Fremdkostenposition" xlink:actuate="onRequest" xlink:href="https://bo4e.github.io/BO4E-python/latest/api/bo4e.com.html#bo4e.com.fremdkostenposition.Fremdkostenposition" xlink:show="new" xlink:title="https://bo4e.github.io/BO4E-python/latest/api/bo4e.com.html#bo4e.com.fremdkostenposition.Fremdkostenposition" xlink:type="simple"><text fill="#0000FF" font-family="sans-serif" font-size="14" lengthAdjust="spacing" text-decoration="underline" textLength="147" x="124.75" y="40.9851">Fremdkostenposition</text></a><text fill="#000000" font-family="sans-serif" font-size="10" lengthAdjust="spacing" textLength="150" x="123.25" y="53.5691">bo4e.com.fremdkostenposition</text><line style="stroke:#181818;stroke-width:0.5;" x1="8" x2="356" y1="60.9275" y2="60.9275"/><text fill="#000000" font-family="sans-serif" font-size="14" lengthAdjust="spacing" textLength="338" x="13" y="77.9226">_version : str [0..1] = 202401.5.1.dev1+g6faf2fbf</text><text fill="#000000" font-family="sans-serif" font-size="14" lengthAdjust="spacing" textLength="147" x="13" y="94.2195">_id : str [0..1] = None</text><text fill="#000000" font-family="sans-serif" font-size="14" lengthAdjust="spacing" textLength="311" x="13" y="110.5164">zusatzAttribute : ZusatzAttribut [0..*] = None</text><text fill="#000000" font-family="sans-serif" font-size="14" lengthAdjust="spacing" textLength="256" x="13" y="126.8132">marktpartnername : str [0..1] = None</text><text fill="#000000" font-family="sans-serif" font-size="14" lengthAdjust="spacing" textLength="252" x="13" y="143.1101">marktpartnercode : str [0..1] = None</text><text fill="#000000" font-family="sans-serif" font-size="14" lengthAdjust="spacing" textLength="227" x="13" y="159.407">gebietcodeEic : str [0..1] = None</text><text fill="#000000" font-family="sans-serif" font-size="14" lengthAdjust="spacing" textLength="215" x="13" y="175.7039">linkPreisblatt : str [0..1] = None</text></g><!--link Fremdkostenposition to Kostenposition--><g id="link_Fremdkostenposition_Kostenposition"><path codeLine="17" d="M357.37,103 C378.17,103 380.49,103 398.78,103 " fill="none" id="Fremdkostenposition-to-Kostenposition" style="stroke:#181818;stroke-width:1.0;"/><polygon fill="none" points="416.78,103,398.78,97,398.78,109,416.78,103" style="stroke:#181818;stroke-width:1.0;"/></g><!--SRC=[hP9HJy8m4CUVwQTeu4spRYD8354IDFX2eZwBY-csstPXQvVsm8ZwtTqme60r9lhMk_xkhht_luICE6bkC2-8fsWW8TIAiQIKrlBkV5uGrNRa-x4UWCYHYcKiKFiNDuEfLpzHePLVIW9BlgpndKfq9GggojukoWnKwK9R0bLhY-q8SVKrnnsvABfNPnRNC0g3yKyDkrnQLmF-p3eFAp2sFO-u9SFdWH1XnCzvF-WFWb2SY52ai0gFys4cituMPqq9feVqjLR0EkkbbRIU41cCbmGDTBUNsV177tmbpO9gQKY1KR82TzVFLABJRwWSOWHgxwUOk94IrUBM0DguaOMSp2jZxKDiBHFueyHy6qNHPl_RaFUcmUHqUDak_t-jTE2YsRxMirzuns6R_R9sGKvxUjxBUFV5Wz6C5TZ8La4LDrvZjj2FtDaaGoXJ-mO0]--></g></svg>