<svg xmlns="http://www.w3.org/2000/svg" xmlns:xlink="http://www.w3.org/1999/xlink" contentStyleType="text/css" data-diagram-type="CLASS" height="190px" preserveAspectRatio="none" style="width:616px;height:190px;background:#FFFFFF;" version="1.1" viewBox="0 0 616 190" width="616px" zoomAndPan="magnify"><defs/><g><!--cluster bo4e--><g class="cluster" data-entity="bo4e" data-source-line="14" data-uid="ent0005" id="cluster_bo4e"><path d="M373.71,6 L413.586,6 A3.75,3.75 0 0 1 416.086,8.5 L423.086,28.2969 L606.54,28.2969 A2.5,2.5 0 0 1 609.04,30.7969 L609.04,159.5 A2.5,2.5 0 0 1 606.54,162 L373.71,162 A2.5,2.5 0 0 1 371.21,159.5 L371.21,8.5 A2.5,2.5 0 0 1 373.71,6" fill="none" style="stroke:#000000;stroke-width:1.5;"/><line style="stroke:#000000;stroke-width:1.5;" x1="371.21" x2="423.086" y1="28.2969" y2="28.2969"/><text fill="#000000" font-family="sans-serif" font-size="14" font-weight="bold" lengthAdjust="spacing" textLength="38.876" x="375.21" y="20.9951">bo4e</text></g><!--cluster com--><g class="cluster" data-entity="com" data-source-line="13" data-uid="ent0003" id="cluster_com"><path d="M397.71,49 L475.4092,49 A3.75,3.75 0 0 1 477.9092,51.5 L484.9092,71.2969 L582.54,71.2969 A2.5,2.5 0 0 1 585.04,73.7969 L585.04,135.5 A2.5,2.5 0 0 1 582.54,138 L397.71,138 A2.5,2.5 0 0 1 395.21,135.5 L395.21,51.5 A2.5,2.5 0 0 1 397.71,49" fill="#E0A86C" style="stroke:#000000;stroke-width:1.5;"/><line style="stroke:#000000;stroke-width:1.5;" x1="395.21" x2="484.9092" y1="71.2969" y2="71.2969"/><a href="file:////home/runner/work/BO4E-python/BO4E-python/docs/../.tox/docs/tmp/html/api/bo4e.com.html" target="_top" title="file:////home/runner/work/BO4E-python/BO4E-python/docs/../.tox/docs/tmp/html/api/bo4e.com.html" xlink:actuate="onRequest" xlink:href="file:////home/runner/work/BO4E-python/BO4E-python/docs/../.tox/docs/tmp/html/api/bo4e.com.html" xlink:show="new" xlink:title="file:////home/runner/work/BO4E-python/BO4E-python/docs/../.tox/docs/tmp/html/api/bo4e.com.html" xlink:type="simple"><text fill="#0000FF" font-family="sans-serif" font-size="14" font-weight="bold" lengthAdjust="spacing" text-decoration="underline" textLength="76.6992" x="399.21" y="63.9951">bo4e.com</text></a></g><!--class Kostenposition--><g class="entity" data-entity="Kostenposition" data-source-line="14" data-uid="ent0004" id="entity_Kostenposition"><rect fill="#F1F1F1" height="37.9375" rx="2.5" ry="2.5" style="stroke:#181818;stroke-width:0.5;" width="157.835" x="411.21" y="84.03"/><ellipse cx="426.21" cy="102.9987" fill="#ADD1B2" rx="11" ry="11" style="stroke:#181818;stroke-width:1;"/><path d="M429.1788,108.6394 Q428.6006,108.9362 427.96,109.0769 Q427.3194,109.2331 426.6163,109.2331 Q424.1163,109.2331 422.7881,107.5925 Q421.4756,105.9362 421.4756,102.8112 Q421.4756,99.6862 422.7881,98.03 Q424.1163,96.3737 426.6163,96.3737 Q427.3194,96.3737 427.96,96.53 Q428.6163,96.6862 429.1788,96.9831 L429.1788,99.7019 Q428.5538,99.1237 427.96,98.8581 Q427.3663,98.5769 426.7413,98.5769 Q425.3975,98.5769 424.71,99.655 Q424.0225,100.7175 424.0225,102.8112 Q424.0225,104.905 424.71,105.9831 Q425.3975,107.0456 426.7413,107.0456 Q427.3663,107.0456 427.96,106.78 Q428.5538,106.4987 429.1788,105.9206 L429.1788,108.6394 Z " fill="#000000"/><a href="file:////home/runner/work/BO4E-python/BO4E-python/docs/../.tox/docs/tmp/html/api/bo4e.com.html#bo4e.com.kostenposition.Kostenposition" target="_top" title="file:////home/runner/work/BO4E-python/BO4E-python/docs/../.tox/docs/tmp/html/api/bo4e.com.html#bo4e.com.kostenposition.Kostenposition" xlink:actuate="onRequest" xlink:href="file:////home/runner/work/BO4E-python/BO4E-python/docs/../.tox/docs/tmp/html/api/bo4e.com.html#bo4e.com.kostenposition.Kostenposition" xlink:show="new" xlink:title="file:////home/runner/work/BO4E-python/BO4E-python/docs/../.tox/docs/tmp/html/api/bo4e.com.html#bo4e.com.kostenposition.Kostenposition" xlink:type="simple"><text fill="#0000FF" font-family="sans-serif" font-size="14" lengthAdjust="spacing" text-decoration="underline" textLength="103.4688" x="451.3931" y="102.0251">Kostenposition</text></a><text fill="#000000" font-family="sans-serif" font-size="10" lengthAdjust="spacing" textLength="125.835" x="440.21" y="114.6091">bo4e.com.kostenposition</text></g><!--class Fremdkostenposition--><g class="entity" data-entity="Fremdkostenposition" data-source-line="3" data-uid="ent0002" id="entity_Fremdkostenposition"><rect fill="#F1F1F1" height="160.0156" rx="2.5" ry="2.5" style="stroke:#181818;stroke-width:0.5;" width="344.2061" x="7" y="22.99"/><ellipse cx="96.999" cy="41.9587" fill="#ADD1B2" rx="11" ry="11" style="stroke:#181818;stroke-width:1;"/><path d="M99.9678,47.5994 Q99.3896,47.8962 98.749,48.0369 Q98.1084,48.1931 97.4053,48.1931 Q94.9053,48.1931 93.5771,46.5525 Q92.2646,44.8962 92.2646,41.7712 Q92.2646,38.6462 93.5771,36.99 Q94.9053,35.3337 97.4053,35.3337 Q98.1084,35.3337 98.749,35.49 Q99.4053,35.6462 99.9678,35.9431 L99.9678,38.6619 Q99.3428,38.0837 98.749,37.8181 Q98.1553,37.5369 97.5303,37.5369 Q96.1865,37.5369 95.499,38.615 Q94.8115,39.6775 94.8115,41.7712 Q94.8115,43.865 95.499,44.9431 Q96.1865,46.0056 97.5303,46.0056 Q98.1553,46.0056 98.749,45.74 Q99.3428,45.4587 99.9678,44.8806 L99.9678,47.5994 Z " fill="#000000"/><a href="file:////home/runner/work/BO4E-python/BO4E-python/docs/../.tox/docs/tmp/html/api/bo4e.com.html#bo4e.com.fremdkostenposition.Fremdkostenposition" target="_top" title="file:////home/runner/work/BO4E-python/BO4E-python/docs/../.tox/docs/tmp/html/api/bo4e.com.html#bo4e.com.fremdkostenposition.Fremdkostenposition" xlink:actuate="onRequest" xlink:href="file:////home/runner/work/BO4E-python/BO4E-python/docs/../.tox/docs/tmp/html/api/bo4e.com.html#bo4e.com.fremdkostenposition.Fremdkostenposition" xlink:show="new" xlink:title="file:////home/runner/work/BO4E-python/BO4E-python/docs/../.tox/docs/tmp/html/api/bo4e.com.html#bo4e.com.fremdkostenposition.Fremdkostenposition" xlink:type="simple"><text fill="#0000FF" font-family="sans-serif" font-size="14" lengthAdjust="spacing" text-decoration="underline" textLength="147.3418" x="121.6821" y="40.9851">Fremdkostenposition</text></a><text fill="#000000" font-family="sans-serif" font-size="10" lengthAdjust="spacing" textLength="155.708" x="117.499" y="53.5691">bo4e.com.fremdkostenposition</text><line style="stroke:#181818;stroke-width:0.5;" x1="8" x2="350.2061" y1="60.9275" y2="60.9275"/><text fill="#000000" font-family="sans-serif" font-size="14" lengthAdjust="spacing" textLength="332.2061" x="13" y="77.9226">_version : str [0..1] = 202501.0.0+g245ac3b0a</text><text fill="#000000" font-family="sans-serif" font-size="14" lengthAdjust="spacing" textLength="151.1768" x="13" y="94.2195">_id : str [0..1] = None</text><text fill="#000000" font-family="sans-serif" font-size="14" lengthAdjust="spacing" textLength="318.5752" x="13" y="110.5164">zusatzAttribute : ZusatzAttribut [0..*] = None</text><text fill="#000000" font-family="sans-serif" font-size="14" lengthAdjust="spacing" textLength="264.626" x="13" y="126.8132">marktpartnername : str [0..1] = None</text><text fill="#000000" font-family="sans-serif" font-size="14" lengthAdjust="spacing" textLength="258.6855" x="13" y="143.1101">marktpartnercode : str [0..1] = None</text><text fill="#000000" font-family="sans-serif" font-size="14" lengthAdjust="spacing" textLength="229.9746" x="13" y="159.407">gebietcodeEic : str [0..1] = None</text><text fill="#000000" font-family="sans-serif" font-size="14" lengthAdjust="spacing" textLength="222.4893" x="13" y="175.7039">linkPreisblatt : str [0..1] = None</text></g><!--link Fremdkostenposition to Kostenposition--><g class="link" data-entity-1="Fremdkostenposition" data-entity-2="Kostenposition" data-source-line="17" data-uid="lnk6" id="link_Fremdkostenposition_Kostenposition"><path codeLine="17" d="M351.33,103 C372.08,103 374.42,103 392.84,103" fill="none" id="Fremdkostenposition-to-Kostenposition" style="stroke:#181818;stroke-width:1;"/><polygon fill="none" points="410.84,103,392.84,97,392.84,109,410.84,103" style="stroke:#181818;stroke-width:1;"/></g><!--SRC=[lP9HJy8m4CUVwQTeu4r3Mn2C8Kg21bz8r6TnCTrsOytMTcaFKTJlxeO17KxZY_RfxlhhlvUxVmu9KhJKgKMAD5OE8bJM41BbqdlQdiyJbSE8boUr6hXR6WEEhwpB-FdrODejdZ2rfXR7DlASCSxGFhudg0kUeiwvB1GFxG1OP3MhAfrTbZZGSMOzWYciLrKNxF9hZJRKWk3Ed7grXb5FZ7yIR5FfcmJeCsdTFu3pLJoY7XsT2yPw0JsZVT4VYXuJJ1mk-eEXZ8v28KjSnVlabJL0MkkbbxYU83eLBX5AwBPMsV077xoMBiD2EYpdQgI6PjNFL6JZRwW5X0gmkf-gg1d9bSbk72WVvXAnaNabf6h45pA2ltS0tMP1i5dFDgMTgPYS75zKk_btC-xvS5Pto-mNxcimNlrPDUP6WtUxB-FT5FQ-9YHLvV8rwB1qA_6fNT56aKH17lit]--></g></svg>