<?xml version="1.0" encoding="us-ascii" standalone="no"?><svg xmlns="http://www.w3.org/2000/svg" xmlns:xlink="http://www.w3.org/1999/xlink" contentStyleType="text/css" height="190px" preserveAspectRatio="none" style="width:637px;height:190px;background:#FFFFFF;" version="1.1" viewBox="0 0 637 190" width="637px" zoomAndPan="magnify"><defs/><g><!--cluster bo4e--><g id="cluster_bo4e"><path d="M400.5,6 L441.5,6 A3.75,3.75 0 0 1 444,8.5 L451,28.2969 L627.5,28.2969 A2.5,2.5 0 0 1 630,30.7969 L630,159.5 A2.5,2.5 0 0 1 627.5,162 L400.5,162 A2.5,2.5 0 0 1 398,159.5 L398,8.5 A2.5,2.5 0 0 1 400.5,6 " fill="none" style="stroke:#000000;stroke-width:1.5;"/><line style="stroke:#000000;stroke-width:1.5;" x1="398" x2="451" y1="28.2969" y2="28.2969"/><text fill="#000000" font-family="sans-serif" font-size="14" font-weight="bold" lengthAdjust="spacing" textLength="40" x="402" y="20.9951">bo4e</text></g><!--cluster com--><g id="cluster_com"><path d="M424.5,49 L503.5,49 A3.75,3.75 0 0 1 506,51.5 L513,71.2969 L603.5,71.2969 A2.5,2.5 0 0 1 606,73.7969 L606,135.5 A2.5,2.5 0 0 1 603.5,138 L424.5,138 A2.5,2.5 0 0 1 422,135.5 L422,51.5 A2.5,2.5 0 0 1 424.5,49 " fill="#E0A86C" style="stroke:#000000;stroke-width:1.5;"/><line style="stroke:#000000;stroke-width:1.5;" x1="422" x2="513" y1="71.2969" y2="71.2969"/><a href="https://bo4e.github.io/BO4E-python/latest/api/bo4e.com.html" target="_top" title="https://bo4e.github.io/BO4E-python/latest/api/bo4e.com.html" xlink:actuate="onRequest" xlink:href="https://bo4e.github.io/BO4E-python/latest/api/bo4e.com.html" xlink:show="new" xlink:title="https://bo4e.github.io/BO4E-python/latest/api/bo4e.com.html" xlink:type="simple"><text fill="#0000FF" font-family="sans-serif" font-size="14" font-weight="bold" lengthAdjust="spacing" text-decoration="underline" textLength="78" x="426" y="63.9951">bo4e.com</text></a></g><!--class Kostenposition--><g id="elem_Kostenposition"><rect codeLine="14" fill="#F1F1F1" height="37.9375" id="Kostenposition" rx="2.5" ry="2.5" style="stroke:#181818;stroke-width:0.5;" width="152" x="438" y="84.03"/><ellipse cx="453" cy="102.9987" fill="#ADD1B2" rx="11" ry="11" style="stroke:#181818;stroke-width:1.0;"/><path d="M455.9688,108.6394 Q455.3906,108.9362 454.75,109.0769 Q454.1094,109.2331 453.4063,109.2331 Q450.9063,109.2331 449.5781,107.5925 Q448.2656,105.9362 448.2656,102.8112 Q448.2656,99.6862 449.5781,98.03 Q450.9063,96.3737 453.4063,96.3737 Q454.1094,96.3737 454.75,96.53 Q455.4063,96.6862 455.9688,96.9831 L455.9688,99.7019 Q455.3438,99.1237 454.75,98.8581 Q454.1563,98.5769 453.5313,98.5769 Q452.1875,98.5769 451.5,99.655 Q450.8125,100.7175 450.8125,102.8112 Q450.8125,104.905 451.5,105.9831 Q452.1875,107.0456 453.5313,107.0456 Q454.1563,107.0456 454.75,106.78 Q455.3438,106.4987 455.9688,105.9206 L455.9688,108.6394 Z " fill="#000000"/><a href="https://bo4e.github.io/BO4E-python/latest/api/bo4e.com.html#bo4e.com.kostenposition.Kostenposition" target="_top" title="https://bo4e.github.io/BO4E-python/latest/api/bo4e.com.html#bo4e.com.kostenposition.Kostenposition" xlink:actuate="onRequest" xlink:href="https://bo4e.github.io/BO4E-python/latest/api/bo4e.com.html#bo4e.com.kostenposition.Kostenposition" xlink:show="new" xlink:title="https://bo4e.github.io/BO4E-python/latest/api/bo4e.com.html#bo4e.com.kostenposition.Kostenposition" xlink:type="simple"><text fill="#0000FF" font-family="sans-serif" font-size="14" lengthAdjust="spacing" text-decoration="underline" textLength="104" x="475" y="102.0251">Kostenposition</text></a><text fill="#000000" font-family="sans-serif" font-size="10" lengthAdjust="spacing" textLength="120" x="467" y="114.6091">bo4e.com.kostenposition</text></g><!--class Fremdkostenposition--><g id="elem_Fremdkostenposition"><rect codeLine="3" fill="#F1F1F1" height="160.0156" id="Fremdkostenposition" rx="2.5" ry="2.5" style="stroke:#181818;stroke-width:0.5;" width="371" x="7" y="22.99"/><ellipse cx="113.25" cy="41.9587" fill="#ADD1B2" rx="11" ry="11" style="stroke:#181818;stroke-width:1.0;"/><path d="M116.2188,47.5994 Q115.6406,47.8962 115,48.0369 Q114.3594,48.1931 113.6563,48.1931 Q111.1563,48.1931 109.8281,46.5525 Q108.5156,44.8962 108.5156,41.7712 Q108.5156,38.6462 109.8281,36.99 Q111.1563,35.3337 113.6563,35.3337 Q114.3594,35.3337 115,35.49 Q115.6563,35.6462 116.2188,35.9431 L116.2188,38.6619 Q115.5938,38.0837 115,37.8181 Q114.4063,37.5369 113.7813,37.5369 Q112.4375,37.5369 111.75,38.615 Q111.0625,39.6775 111.0625,41.7712 Q111.0625,43.865 111.75,44.9431 Q112.4375,46.0056 113.7813,46.0056 Q114.4063,46.0056 115,45.74 Q115.5938,45.4587 116.2188,44.8806 L116.2188,47.5994 Z " fill="#000000"/><a href="https://bo4e.github.io/BO4E-python/latest/api/bo4e.com.html#bo4e.com.fremdkostenposition.Fremdkostenposition" target="_top" title="https://bo4e.github.io/BO4E-python/latest/api/bo4e.com.html#bo4e.com.fremdkostenposition.Fremdkostenposition" xlink:actuate="onRequest" xlink:href="https://bo4e.github.io/BO4E-python/latest/api/bo4e.com.html#bo4e.com.fremdkostenposition.Fremdkostenposition" xlink:show="new" xlink:title="https://bo4e.github.io/BO4E-python/latest/api/bo4e.com.html#bo4e.com.fremdkostenposition.Fremdkostenposition" xlink:type="simple"><text fill="#0000FF" font-family="sans-serif" font-size="14" lengthAdjust="spacing" text-decoration="underline" textLength="147" x="135.25" y="40.9851">Fremdkostenposition</text></a><text fill="#000000" font-family="sans-serif" font-size="10" lengthAdjust="spacing" textLength="150" x="133.75" y="53.5691">bo4e.com.fremdkostenposition</text><line style="stroke:#181818;stroke-width:0.5;" x1="8" x2="377" y1="60.9275" y2="60.9275"/><text fill="#000000" font-family="sans-serif" font-size="14" lengthAdjust="spacing" textLength="359" x="13" y="77.9226">_version : str [0..1] = 202401.2.2.dev11+gbe436e4</text><text fill="#000000" font-family="sans-serif" font-size="14" lengthAdjust="spacing" textLength="147" x="13" y="94.2195">_id : str [0..1] = None</text><text fill="#000000" font-family="sans-serif" font-size="14" lengthAdjust="spacing" textLength="311" x="13" y="110.5164">zusatzAttribute : ZusatzAttribut [0..*] = None</text><text fill="#000000" font-family="sans-serif" font-size="14" lengthAdjust="spacing" textLength="256" x="13" y="126.8132">marktpartnername : str [0..1] = None</text><text fill="#000000" font-family="sans-serif" font-size="14" lengthAdjust="spacing" textLength="252" x="13" y="143.1101">marktpartnercode : str [0..1] = None</text><text fill="#000000" font-family="sans-serif" font-size="14" lengthAdjust="spacing" textLength="227" x="13" y="159.407">gebietcodeEic : str [0..1] = None</text><text fill="#000000" font-family="sans-serif" font-size="14" lengthAdjust="spacing" textLength="215" x="13" y="175.7039">linkPreisblatt : str [0..1] = None</text></g><!--link Fremdkostenposition to Kostenposition--><g id="link_Fremdkostenposition_Kostenposition"><path codeLine="17" d="M378.43,103 C399.27,103 401.52,103 419.72,103 " fill="none" id="Fremdkostenposition-to-Kostenposition" style="stroke:#181818;stroke-width:1.0;"/><polygon fill="none" points="437.72,103,419.72,97,419.72,109,437.72,103" style="stroke:#181818;stroke-width:1.0;"/></g><!--SRC=[hPBVJy8m4CUVwL_Hm9k6_S256A8aQF25H7qM5zDj1xkmjKllm8ZwlxjXGC5gJ3HzwLq__LvxzorWnfADj3ZFMMPe8MKqMeYqK4IoFPtcp1KDV3yn4NXpv7oPU6ZyYvjetAsUE3VQBnG3iQygVATIKtevbqLd5yqibDd248Ek365JmhlwcfEEN1pVwpF2DGp2OFYJO5igSWd8Pz5wM86bPZ-Gn5PE0yyBOtakUq4l2aAlLwyCLc5uF4yWEkb3L5_1x92-DXf4QxqanUiHiyLaoL13TtkP3N_qmPVABhXIbZLOhKfmgtwcKfDzGyqXGU3cV8of6obGBsuj82NrMDZ9l0hHF8GgbS8VHootKHnl-hyDPMSSZ4xxbqtp_zTA1owQxCzwyWllE6opVwrfaDEUtUxBSFV5Wz92v5YFhOGogRqcA3UFqYaoGoWoUWC0]--></g></svg>