<?xml version="1.0" encoding="us-ascii" standalone="no"?><svg xmlns="http://www.w3.org/2000/svg" xmlns:xlink="http://www.w3.org/1999/xlink" contentStyleType="text/css" height="190px" preserveAspectRatio="none" style="width:645px;height:190px;background:#FFFFFF;" version="1.1" viewBox="0 0 645 190" width="645px" zoomAndPan="magnify"><defs/><g><!--cluster bo4e--><g id="cluster_bo4e"><path d="M408.5,6 L449.5,6 A3.75,3.75 0 0 1 452,8.5 L459,28.2969 L635.5,28.2969 A2.5,2.5 0 0 1 638,30.7969 L638,159.5 A2.5,2.5 0 0 1 635.5,162 L408.5,162 A2.5,2.5 0 0 1 406,159.5 L406,8.5 A2.5,2.5 0 0 1 408.5,6 " fill="none" style="stroke:#000000;stroke-width:1.5;"/><line style="stroke:#000000;stroke-width:1.5;" x1="406" x2="459" y1="28.2969" y2="28.2969"/><text fill="#000000" font-family="sans-serif" font-size="14" font-weight="bold" lengthAdjust="spacing" textLength="40" x="410" y="20.9951">bo4e</text></g><!--cluster com--><g id="cluster_com"><path d="M432.5,49 L511.5,49 A3.75,3.75 0 0 1 514,51.5 L521,71.2969 L611.5,71.2969 A2.5,2.5 0 0 1 614,73.7969 L614,135.5 A2.5,2.5 0 0 1 611.5,138 L432.5,138 A2.5,2.5 0 0 1 430,135.5 L430,51.5 A2.5,2.5 0 0 1 432.5,49 " fill="#E0A86C" style="stroke:#000000;stroke-width:1.5;"/><line style="stroke:#000000;stroke-width:1.5;" x1="430" x2="521" y1="71.2969" y2="71.2969"/><a href="https://bo4e.github.io/BO4E-python/latest/api/bo4e.com.html" target="_top" title="https://bo4e.github.io/BO4E-python/latest/api/bo4e.com.html" xlink:actuate="onRequest" xlink:href="https://bo4e.github.io/BO4E-python/latest/api/bo4e.com.html" xlink:show="new" xlink:title="https://bo4e.github.io/BO4E-python/latest/api/bo4e.com.html" xlink:type="simple"><text fill="#0000FF" font-family="sans-serif" font-size="14" font-weight="bold" lengthAdjust="spacing" text-decoration="underline" textLength="78" x="434" y="63.9951">bo4e.com</text></a></g><!--class Kostenposition--><g id="elem_Kostenposition"><rect codeLine="14" fill="#F1F1F1" height="37.9375" id="Kostenposition" rx="2.5" ry="2.5" style="stroke:#181818;stroke-width:0.5;" width="152" x="446" y="84.03"/><ellipse cx="461" cy="102.9987" fill="#ADD1B2" rx="11" ry="11" style="stroke:#181818;stroke-width:1.0;"/><path d="M463.9688,108.6394 Q463.3906,108.9362 462.75,109.0769 Q462.1094,109.2331 461.4063,109.2331 Q458.9063,109.2331 457.5781,107.5925 Q456.2656,105.9362 456.2656,102.8112 Q456.2656,99.6862 457.5781,98.03 Q458.9063,96.3737 461.4063,96.3737 Q462.1094,96.3737 462.75,96.53 Q463.4063,96.6862 463.9688,96.9831 L463.9688,99.7019 Q463.3438,99.1237 462.75,98.8581 Q462.1563,98.5769 461.5313,98.5769 Q460.1875,98.5769 459.5,99.655 Q458.8125,100.7175 458.8125,102.8112 Q458.8125,104.905 459.5,105.9831 Q460.1875,107.0456 461.5313,107.0456 Q462.1563,107.0456 462.75,106.78 Q463.3438,106.4987 463.9688,105.9206 L463.9688,108.6394 Z " fill="#000000"/><a href="https://bo4e.github.io/BO4E-python/latest/api/bo4e.com.html#bo4e.com.kostenposition.Kostenposition" target="_top" title="https://bo4e.github.io/BO4E-python/latest/api/bo4e.com.html#bo4e.com.kostenposition.Kostenposition" xlink:actuate="onRequest" xlink:href="https://bo4e.github.io/BO4E-python/latest/api/bo4e.com.html#bo4e.com.kostenposition.Kostenposition" xlink:show="new" xlink:title="https://bo4e.github.io/BO4E-python/latest/api/bo4e.com.html#bo4e.com.kostenposition.Kostenposition" xlink:type="simple"><text fill="#0000FF" font-family="sans-serif" font-size="14" lengthAdjust="spacing" text-decoration="underline" textLength="104" x="483" y="102.0251">Kostenposition</text></a><text fill="#000000" font-family="sans-serif" font-size="10" lengthAdjust="spacing" textLength="120" x="475" y="114.6091">bo4e.com.kostenposition</text></g><!--class Fremdkostenposition--><g id="elem_Fremdkostenposition"><rect codeLine="3" fill="#F1F1F1" height="160.0156" id="Fremdkostenposition" rx="2.5" ry="2.5" style="stroke:#181818;stroke-width:0.5;" width="379" x="7" y="22.99"/><ellipse cx="117.25" cy="41.9587" fill="#ADD1B2" rx="11" ry="11" style="stroke:#181818;stroke-width:1.0;"/><path d="M120.2188,47.5994 Q119.6406,47.8962 119,48.0369 Q118.3594,48.1931 117.6563,48.1931 Q115.1563,48.1931 113.8281,46.5525 Q112.5156,44.8962 112.5156,41.7712 Q112.5156,38.6462 113.8281,36.99 Q115.1563,35.3337 117.6563,35.3337 Q118.3594,35.3337 119,35.49 Q119.6563,35.6462 120.2188,35.9431 L120.2188,38.6619 Q119.5938,38.0837 119,37.8181 Q118.4063,37.5369 117.7813,37.5369 Q116.4375,37.5369 115.75,38.615 Q115.0625,39.6775 115.0625,41.7712 Q115.0625,43.865 115.75,44.9431 Q116.4375,46.0056 117.7813,46.0056 Q118.4063,46.0056 119,45.74 Q119.5938,45.4587 120.2188,44.8806 L120.2188,47.5994 Z " fill="#000000"/><a href="https://bo4e.github.io/BO4E-python/latest/api/bo4e.com.html#bo4e.com.fremdkostenposition.Fremdkostenposition" target="_top" title="https://bo4e.github.io/BO4E-python/latest/api/bo4e.com.html#bo4e.com.fremdkostenposition.Fremdkostenposition" xlink:actuate="onRequest" xlink:href="https://bo4e.github.io/BO4E-python/latest/api/bo4e.com.html#bo4e.com.fremdkostenposition.Fremdkostenposition" xlink:show="new" xlink:title="https://bo4e.github.io/BO4E-python/latest/api/bo4e.com.html#bo4e.com.fremdkostenposition.Fremdkostenposition" xlink:type="simple"><text fill="#0000FF" font-family="sans-serif" font-size="14" lengthAdjust="spacing" text-decoration="underline" textLength="147" x="139.25" y="40.9851">Fremdkostenposition</text></a><text fill="#000000" font-family="sans-serif" font-size="10" lengthAdjust="spacing" textLength="150" x="137.75" y="53.5691">bo4e.com.fremdkostenposition</text><line style="stroke:#181818;stroke-width:0.5;" x1="8" x2="385" y1="60.9275" y2="60.9275"/><text fill="#000000" font-family="sans-serif" font-size="14" lengthAdjust="spacing" textLength="367" x="13" y="77.9226">_version : str [0..1] = 202401.2.2.dev29+gd7bab545</text><text fill="#000000" font-family="sans-serif" font-size="14" lengthAdjust="spacing" textLength="147" x="13" y="94.2195">_id : str [0..1] = None</text><text fill="#000000" font-family="sans-serif" font-size="14" lengthAdjust="spacing" textLength="311" x="13" y="110.5164">zusatzAttribute : ZusatzAttribut [0..*] = None</text><text fill="#000000" font-family="sans-serif" font-size="14" lengthAdjust="spacing" textLength="256" x="13" y="126.8132">marktpartnername : str [0..1] = None</text><text fill="#000000" font-family="sans-serif" font-size="14" lengthAdjust="spacing" textLength="252" x="13" y="143.1101">marktpartnercode : str [0..1] = None</text><text fill="#000000" font-family="sans-serif" font-size="14" lengthAdjust="spacing" textLength="227" x="13" y="159.407">gebietcodeEic : str [0..1] = None</text><text fill="#000000" font-family="sans-serif" font-size="14" lengthAdjust="spacing" textLength="215" x="13" y="175.7039">linkPreisblatt : str [0..1] = None</text></g><!--link Fremdkostenposition to Kostenposition--><g id="link_Fremdkostenposition_Kostenposition"><path codeLine="17" d="M386.15,103 C407.08,103 409.4,103 427.64,103 " fill="none" id="Fremdkostenposition-to-Kostenposition" style="stroke:#181818;stroke-width:1.0;"/><polygon fill="none" points="445.64,103,427.64,97,427.64,109,445.64,103" style="stroke:#181818;stroke-width:1.0;"/></g><!--SRC=[hPBVJy8m4CUVwL_Hm9k6RIp37qH9qE0BYVeiBgRTZkt2rYxjWH7rVtV3W8BLc6Zwqhj-UjVUzrl0Z3XfRZ3BYQTe827KYh6a4DRozdIQ4rLsuFjIH-1bIFb2UgZzYvjetAsUADVABmI19LzK-4ubklHoAelEDfePADEvjWIgqXQR5jxLrnntvEBuNfrPNC6W5mn_AjZcmheAy6VMUbY2iSr-m2qPFWqyhnVpSnu6OHJqlB1UAIp3qyCiFPP2zgD-VGVJVVnQAs2jrS8AMes83Ce5GGtTxMJM_C47NmepfqeOKc2KAC5TzJELwFGRAWE9GCtv61CtKg2Qtnf0AsjToCcyCjOyn5OYWJzgp3TH7Ay5s8IyCmv69qUNpVJ_rqjxDfhiYZtvXNaSljczrWp8wSzkzsMu_U9UQyPoh6KhePIrsPZDzIDt5faX5Abz0m00]--></g></svg>