<svg xmlns="http://www.w3.org/2000/svg" xmlns:xlink="http://www.w3.org/1999/xlink" contentStyleType="text/css" data-diagram-type="CLASS" height="190px" preserveAspectRatio="none" style="width:616px;height:190px;background:#FFFFFF;" version="1.1" viewBox="0 0 616 190" width="616px" zoomAndPan="magnify"><defs/><g><!--cluster bo4e--><g class="cluster" data-entity="bo4e" data-source-line="14" data-uid="ent0005" id="cluster_bo4e"><path d="M374.38,6 L414.256,6 A3.75,3.75 0 0 1 416.756,8.5 L423.756,28.2969 L607.22,28.2969 A2.5,2.5 0 0 1 609.72,30.7969 L609.72,159.5 A2.5,2.5 0 0 1 607.22,162 L374.38,162 A2.5,2.5 0 0 1 371.88,159.5 L371.88,8.5 A2.5,2.5 0 0 1 374.38,6" fill="none" style="stroke:#000000;stroke-width:1.5;"/><line style="stroke:#000000;stroke-width:1.5;" x1="371.88" x2="423.756" y1="28.2969" y2="28.2969"/><text fill="#000000" font-family="sans-serif" font-size="14" font-weight="bold" lengthAdjust="spacing" textLength="38.876" x="375.88" y="20.9951">bo4e</text></g><!--cluster com--><g class="cluster" data-entity="com" data-source-line="13" data-uid="ent0003" id="cluster_com"><path d="M398.38,49 L476.0792,49 A3.75,3.75 0 0 1 478.5792,51.5 L485.5792,71.2969 L583.22,71.2969 A2.5,2.5 0 0 1 585.72,73.7969 L585.72,135.5 A2.5,2.5 0 0 1 583.22,138 L398.38,138 A2.5,2.5 0 0 1 395.88,135.5 L395.88,51.5 A2.5,2.5 0 0 1 398.38,49" fill="#E0A86C" style="stroke:#000000;stroke-width:1.5;"/><line style="stroke:#000000;stroke-width:1.5;" x1="395.88" x2="485.5792" y1="71.2969" y2="71.2969"/><a href="file:////home/runner/work/BO4E-python/BO4E-python/docs/../.tox/docs/tmp/html/api/bo4e.com.html" target="_top" title="file:////home/runner/work/BO4E-python/BO4E-python/docs/../.tox/docs/tmp/html/api/bo4e.com.html" xlink:actuate="onRequest" xlink:href="file:////home/runner/work/BO4E-python/BO4E-python/docs/../.tox/docs/tmp/html/api/bo4e.com.html" xlink:show="new" xlink:title="file:////home/runner/work/BO4E-python/BO4E-python/docs/../.tox/docs/tmp/html/api/bo4e.com.html" xlink:type="simple"><text fill="#0000FF" font-family="sans-serif" font-size="14" font-weight="bold" lengthAdjust="spacing" text-decoration="underline" textLength="76.6992" x="399.88" y="63.9951">bo4e.com</text></a></g><!--class Kostenposition--><g class="entity" data-entity="Kostenposition" data-source-line="14" data-uid="ent0004" id="entity_Kostenposition"><rect fill="#F1F1F1" height="37.9375" rx="2.5" ry="2.5" style="stroke:#181818;stroke-width:0.5;" width="157.835" x="411.88" y="84.03"/><ellipse cx="426.88" cy="102.9987" fill="#ADD1B2" rx="11" ry="11" style="stroke:#181818;stroke-width:1;"/><path d="M429.8488,108.6394 Q429.2706,108.9362 428.63,109.0769 Q427.9894,109.2331 427.2863,109.2331 Q424.7863,109.2331 423.4581,107.5925 Q422.1456,105.9362 422.1456,102.8112 Q422.1456,99.6862 423.4581,98.03 Q424.7863,96.3737 427.2863,96.3737 Q427.9894,96.3737 428.63,96.53 Q429.2863,96.6862 429.8488,96.9831 L429.8488,99.7019 Q429.2238,99.1237 428.63,98.8581 Q428.0363,98.5769 427.4113,98.5769 Q426.0675,98.5769 425.38,99.655 Q424.6925,100.7175 424.6925,102.8112 Q424.6925,104.905 425.38,105.9831 Q426.0675,107.0456 427.4113,107.0456 Q428.0363,107.0456 428.63,106.78 Q429.2238,106.4987 429.8488,105.9206 L429.8488,108.6394 Z " fill="#000000"/><a href="file:////home/runner/work/BO4E-python/BO4E-python/docs/../.tox/docs/tmp/html/api/bo4e.com.html#bo4e.com.kostenposition.Kostenposition" target="_top" title="file:////home/runner/work/BO4E-python/BO4E-python/docs/../.tox/docs/tmp/html/api/bo4e.com.html#bo4e.com.kostenposition.Kostenposition" xlink:actuate="onRequest" xlink:href="file:////home/runner/work/BO4E-python/BO4E-python/docs/../.tox/docs/tmp/html/api/bo4e.com.html#bo4e.com.kostenposition.Kostenposition" xlink:show="new" xlink:title="file:////home/runner/work/BO4E-python/BO4E-python/docs/../.tox/docs/tmp/html/api/bo4e.com.html#bo4e.com.kostenposition.Kostenposition" xlink:type="simple"><text fill="#0000FF" font-family="sans-serif" font-size="14" lengthAdjust="spacing" text-decoration="underline" textLength="103.4688" x="452.0631" y="102.0251">Kostenposition</text></a><text fill="#000000" font-family="sans-serif" font-size="10" lengthAdjust="spacing" textLength="125.835" x="440.88" y="114.6091">bo4e.com.kostenposition</text></g><!--class Fremdkostenposition--><g class="entity" data-entity="Fremdkostenposition" data-source-line="3" data-uid="ent0002" id="entity_Fremdkostenposition"><rect fill="#F1F1F1" height="160.0156" rx="2.5" ry="2.5" style="stroke:#181818;stroke-width:0.5;" width="344.8828" x="7" y="22.99"/><ellipse cx="97.3374" cy="41.9587" fill="#ADD1B2" rx="11" ry="11" style="stroke:#181818;stroke-width:1;"/><path d="M100.3062,47.5994 Q99.728,47.8962 99.0874,48.0369 Q98.4468,48.1931 97.7437,48.1931 Q95.2437,48.1931 93.9155,46.5525 Q92.603,44.8962 92.603,41.7712 Q92.603,38.6462 93.9155,36.99 Q95.2437,35.3337 97.7437,35.3337 Q98.4468,35.3337 99.0874,35.49 Q99.7437,35.6462 100.3062,35.9431 L100.3062,38.6619 Q99.6812,38.0837 99.0874,37.8181 Q98.4937,37.5369 97.8687,37.5369 Q96.5249,37.5369 95.8374,38.615 Q95.1499,39.6775 95.1499,41.7712 Q95.1499,43.865 95.8374,44.9431 Q96.5249,46.0056 97.8687,46.0056 Q98.4937,46.0056 99.0874,45.74 Q99.6812,45.4587 100.3062,44.8806 L100.3062,47.5994 Z " fill="#000000"/><a href="file:////home/runner/work/BO4E-python/BO4E-python/docs/../.tox/docs/tmp/html/api/bo4e.com.html#bo4e.com.fremdkostenposition.Fremdkostenposition" target="_top" title="file:////home/runner/work/BO4E-python/BO4E-python/docs/../.tox/docs/tmp/html/api/bo4e.com.html#bo4e.com.fremdkostenposition.Fremdkostenposition" xlink:actuate="onRequest" xlink:href="file:////home/runner/work/BO4E-python/BO4E-python/docs/../.tox/docs/tmp/html/api/bo4e.com.html#bo4e.com.fremdkostenposition.Fremdkostenposition" xlink:show="new" xlink:title="file:////home/runner/work/BO4E-python/BO4E-python/docs/../.tox/docs/tmp/html/api/bo4e.com.html#bo4e.com.fremdkostenposition.Fremdkostenposition" xlink:type="simple"><text fill="#0000FF" font-family="sans-serif" font-size="14" lengthAdjust="spacing" text-decoration="underline" textLength="147.3418" x="122.0205" y="40.9851">Fremdkostenposition</text></a><text fill="#000000" font-family="sans-serif" font-size="10" lengthAdjust="spacing" textLength="155.708" x="117.8374" y="53.5691">bo4e.com.fremdkostenposition</text><line style="stroke:#181818;stroke-width:0.5;" x1="8" x2="350.8828" y1="60.9275" y2="60.9275"/><text fill="#000000" font-family="sans-serif" font-size="14" lengthAdjust="spacing" textLength="332.8828" x="13" y="77.9226">_version : str [0..1] = 202501.0.0+g3357850c5</text><text fill="#000000" font-family="sans-serif" font-size="14" lengthAdjust="spacing" textLength="151.1768" x="13" y="94.2195">_id : str [0..1] = None</text><text fill="#000000" font-family="sans-serif" font-size="14" lengthAdjust="spacing" textLength="318.5752" x="13" y="110.5164">zusatzAttribute : ZusatzAttribut [0..*] = None</text><text fill="#000000" font-family="sans-serif" font-size="14" lengthAdjust="spacing" textLength="264.626" x="13" y="126.8132">marktpartnername : str [0..1] = None</text><text fill="#000000" font-family="sans-serif" font-size="14" lengthAdjust="spacing" textLength="258.6855" x="13" y="143.1101">marktpartnercode : str [0..1] = None</text><text fill="#000000" font-family="sans-serif" font-size="14" lengthAdjust="spacing" textLength="229.9746" x="13" y="159.407">gebietcodeEic : str [0..1] = None</text><text fill="#000000" font-family="sans-serif" font-size="14" lengthAdjust="spacing" textLength="222.4893" x="13" y="175.7039">linkPreisblatt : str [0..1] = None</text></g><!--link Fremdkostenposition to Kostenposition--><g class="link" data-entity-1="Fremdkostenposition" data-entity-2="Kostenposition" data-source-line="17" data-uid="lnk6" id="link_Fremdkostenposition_Kostenposition"><path codeLine="17" d="M352.31,103 C373.03,103 375.34,103 393.71,103" fill="none" id="Fremdkostenposition-to-Kostenposition" style="stroke:#181818;stroke-width:1;"/><polygon fill="none" points="411.71,103,393.71,97,393.71,109,411.71,103" style="stroke:#181818;stroke-width:1;"/></g><!--SRC=[lP9DJyCm38RFv5T4smsqfFieJ1DC6cXS9W5dHeNIrbsZDacLU0m6_7VQeGqw2k82ETdEapUM_UQG84L3hLoaI6Df8K9fD25HBfoZhVayaJcCU7bIeu3RfTPW-ShOZ9zV3wQTuWbJesjnR2B76UCCpUDxWghWAQgSYqBoq0o0HKQngjBUPOa55MV68UZ2E5brmIw_rcX3BGZkzAcJQnXrlV5FWYqgN9C0VIO7zmzWNHMFg4DBvnvZtO2UqPxNyxqkyvXtjEZt_PEXxqL-YSjudxmo6iZ1Uka4hYU8LePBX1AwhLKs_E47huJDi10MoxbgeQ1PzJCLcVWRQW6X1Apkfp9gHdAfiniBqeMvG6naNWcf6d65YE3l7K2tMH1irhDDQNlgJOR75zLk_jsCUpwSrTqo-uNx6enNVrQDkT7WdSxBU3U5lQy9IMMvV0KgBDrAN6fMj54aaP37xWq0]--></g></svg>