<svg xmlns="http://www.w3.org/2000/svg" xmlns:xlink="http://www.w3.org/1999/xlink" contentStyleType="text/css" data-diagram-type="CLASS" height="147px" preserveAspectRatio="none" style="width:323px;height:147px;background:#FFFFFF;" version="1.1" viewBox="0 0 323 147" width="323px" zoomAndPan="magnify"><?plantuml 1.2026.6?><defs/><g><!--class Katasteradresse--><g class="entity" data-qualified-name="Katasteradresse" data-source-line="3" id="ent0001"><rect fill="#F1F1F1" height="127.4219" rx="2.5" ry="2.5" style="stroke:#181818;stroke-width:0.5;" width="303.6348" x="7" y="7"/><ellipse cx="97.5591" cy="25.9688" fill="#ADD1B2" rx="11" ry="11" style="stroke:#181818;stroke-width:1;"/><path d="M100.5278,31.6094 Q99.9497,31.9063 99.3091,32.0469 Q98.6685,32.2031 97.9653,32.2031 Q95.4653,32.2031 94.1372,30.5625 Q92.8247,28.9063 92.8247,25.7813 Q92.8247,22.6563 94.1372,21 Q95.4653,19.3438 97.9653,19.3438 Q98.6685,19.3438 99.3091,19.5 Q99.9653,19.6563 100.5278,19.9531 L100.5278,22.6719 Q99.9028,22.0938 99.3091,21.8281 Q98.7153,21.5469 98.0903,21.5469 Q96.7466,21.5469 96.0591,22.625 Q95.3716,23.6875 95.3716,25.7813 Q95.3716,27.875 96.0591,28.9531 Q96.7466,30.0156 98.0903,30.0156 Q98.7153,30.0156 99.3091,29.75 Q99.9028,29.4688 100.5278,28.8906 L100.5278,31.6094 Z " fill="#000000"/><a href="https://bo4e.github.io/BO4E-python/latest/api/bo4e.com.html#module-bo4e.com.katasteradresse" target="_top" title="https://bo4e.github.io/BO4E-python/latest/api/bo4e.com.html#module-bo4e.com.katasteradresse" xlink:actuate="onRequest" xlink:href="https://bo4e.github.io/BO4E-python/latest/api/bo4e.com.html#module-bo4e.com.katasteradresse" xlink:show="new" xlink:title="https://bo4e.github.io/BO4E-python/latest/api/bo4e.com.html#module-bo4e.com.katasteradresse" xlink:type="simple"><text fill="#0000FF" font-family="sans-serif" font-size="14" lengthAdjust="spacing" text-decoration="underline" textLength="114.0166" x="118.0591" y="24.9951">Katasteradresse</text></a><text fill="#000000" font-family="sans-serif" font-size="10" lengthAdjust="spacing" textLength="105.9766" x="122.0791" y="37.5791">com.Katasteradresse</text><line style="stroke:#181818;stroke-width:0.5;" x1="8" x2="309.6348" y1="44.9375" y2="44.9375"/><text fill="#000000" font-family="sans-serif" font-size="14" lengthAdjust="spacing" textLength="94.0215" x="13" y="61.9326">_id : str [0..1]</text><text fill="#000000" font-family="sans-serif" font-size="14" lengthAdjust="spacing" textLength="291.6348" x="13" y="78.2295">_typ : Literal["KATASTERADRESSE"] [0..1]</text><text fill="#000000" font-family="sans-serif" font-size="14" lengthAdjust="spacing" textLength="132.5215" x="13" y="94.5264">_version : str [0..1]</text><text fill="#000000" font-family="sans-serif" font-size="14" lengthAdjust="spacing" textLength="143.7666" x="13" y="110.8232">flurstueck : str [0..1]</text><text fill="#000000" font-family="sans-serif" font-size="14" lengthAdjust="spacing" textLength="181.0293" x="13" y="127.1201">gemarkungFlur : str [0..1]</text></g><?plantuml-src POz1QuD048Nl_eh1dgC9v2IbO8czf528kLafgpkwYxkkx8mjQUb_xuP0GVDkyzut3vx1Ze4TUDqh1gazjgpT64Mj4KGGLvLYdYXBqyRjCUargxb9j4kVt_R5PhgmScDg12DnAYPzerfd4yNMF5WdPuERVtCGB8ZH2-cH2E6ulElwVNma_OtPRljqvLTv38BMF_0JGT27bf01iOTgcoIx-cRoPGhkgxxYfegF-JalpyKfFvoAiYpYUW5_egSm_RwcCxCddh4TxhCUhV33FFOl0Lh6lr6GqXB1ecr2UKJAVS5w57GQZQG_?></g></svg>