<?xml version="1.0" encoding="us-ascii" standalone="no"?><svg xmlns="http://www.w3.org/2000/svg" xmlns:xlink="http://www.w3.org/1999/xlink" contentStyleType="text/css" height="282px" preserveAspectRatio="none" style="width:695px;height:282px;background:#FFFFFF;" version="1.1" viewBox="0 0 695 282" width="695px" zoomAndPan="magnify"><defs/><g><!--cluster bo4e--><g id="cluster_bo4e"><path d="M455.5,6 L496.5,6 A3.75,3.75 0 0 1 499,8.5 L506,28.2969 L685.5,28.2969 A2.5,2.5 0 0 1 688,30.7969 L688,272.5 A2.5,2.5 0 0 1 685.5,275 L455.5,275 A2.5,2.5 0 0 1 453,272.5 L453,8.5 A2.5,2.5 0 0 1 455.5,6 " fill="none" style="stroke:#000000;stroke-width:1.5;"/><line style="stroke:#000000;stroke-width:1.5;" x1="453" x2="506" y1="28.2969" y2="28.2969"/><text fill="#000000" font-family="sans-serif" font-size="14" font-weight="bold" lengthAdjust="spacing" textLength="40" x="457" y="20.9951">bo4e</text></g><!--cluster bo--><g id="cluster_bo"><path d="M479.5,49 L545.5,49 A3.75,3.75 0 0 1 548,51.5 L555,71.2969 L661.5,71.2969 A2.5,2.5 0 0 1 664,73.7969 L664,135.5 A2.5,2.5 0 0 1 661.5,138 L479.5,138 A2.5,2.5 0 0 1 477,135.5 L477,51.5 A2.5,2.5 0 0 1 479.5,49 " fill="#B6D7A8" style="stroke:#000000;stroke-width:1.5;"/><line style="stroke:#000000;stroke-width:1.5;" x1="477" x2="555" y1="71.2969" y2="71.2969"/><a href="https://bo4e.github.io/BO4E-python/latest/api/bo4e.bo.html" target="_top" title="https://bo4e.github.io/BO4E-python/latest/api/bo4e.bo.html" xlink:actuate="onRequest" xlink:href="https://bo4e.github.io/BO4E-python/latest/api/bo4e.bo.html" xlink:show="new" xlink:title="https://bo4e.github.io/BO4E-python/latest/api/bo4e.bo.html" xlink:type="simple"><text fill="#0000FF" font-family="sans-serif" font-size="14" font-weight="bold" lengthAdjust="spacing" text-decoration="underline" textLength="65" x="481" y="63.9951">bo4e.bo</text></a></g><!--cluster com--><g id="cluster_com"><path d="M505,162 L584,162 A3.75,3.75 0 0 1 586.5,164.5 L593.5,184.2969 L636,184.2969 A2.5,2.5 0 0 1 638.5,186.7969 L638.5,248.5 A2.5,2.5 0 0 1 636,251 L505,251 A2.5,2.5 0 0 1 502.5,248.5 L502.5,164.5 A2.5,2.5 0 0 1 505,162 " fill="#E0A86C" style="stroke:#000000;stroke-width:1.5;"/><line style="stroke:#000000;stroke-width:1.5;" x1="502.5" x2="593.5" y1="184.2969" y2="184.2969"/><a href="https://bo4e.github.io/BO4E-python/latest/api/bo4e.com.html" target="_top" title="https://bo4e.github.io/BO4E-python/latest/api/bo4e.com.html" xlink:actuate="onRequest" xlink:href="https://bo4e.github.io/BO4E-python/latest/api/bo4e.com.html" xlink:show="new" xlink:title="https://bo4e.github.io/BO4E-python/latest/api/bo4e.com.html" xlink:type="simple"><text fill="#0000FF" font-family="sans-serif" font-size="14" font-weight="bold" lengthAdjust="spacing" text-decoration="underline" textLength="78" x="506.5" y="176.9951">bo4e.com</text></a></g><!--class Marktteilnehmer--><g id="elem_Marktteilnehmer"><rect codeLine="10" fill="#F1F1F1" height="37.9375" id="Marktteilnehmer" rx="2.5" ry="2.5" style="stroke:#181818;stroke-width:0.5;" width="155" x="493" y="84.03"/><ellipse cx="508" cy="102.9988" fill="#ADD1B2" rx="11" ry="11" style="stroke:#181818;stroke-width:1.0;"/><path d="M510.9688,108.6394 Q510.3906,108.9363 509.75,109.0769 Q509.1094,109.2331 508.4063,109.2331 Q505.9063,109.2331 504.5781,107.5925 Q503.2656,105.9363 503.2656,102.8113 Q503.2656,99.6863 504.5781,98.03 Q505.9063,96.3738 508.4063,96.3738 Q509.1094,96.3738 509.75,96.53 Q510.4063,96.6863 510.9688,96.9831 L510.9688,99.7019 Q510.3438,99.1238 509.75,98.8581 Q509.1563,98.5769 508.5313,98.5769 Q507.1875,98.5769 506.5,99.655 Q505.8125,100.7175 505.8125,102.8113 Q505.8125,104.905 506.5,105.9831 Q507.1875,107.0456 508.5313,107.0456 Q509.1563,107.0456 509.75,106.78 Q510.3438,106.4988 510.9688,105.9206 L510.9688,108.6394 Z " fill="#000000"/><a href="https://bo4e.github.io/BO4E-python/latest/api/bo4e.bo.html#bo4e.bo.marktteilnehmer.Marktteilnehmer" target="_top" title="https://bo4e.github.io/BO4E-python/latest/api/bo4e.bo.html#bo4e.bo.marktteilnehmer.Marktteilnehmer" xlink:actuate="onRequest" xlink:href="https://bo4e.github.io/BO4E-python/latest/api/bo4e.bo.html#bo4e.bo.marktteilnehmer.Marktteilnehmer" xlink:show="new" xlink:title="https://bo4e.github.io/BO4E-python/latest/api/bo4e.bo.html#bo4e.bo.marktteilnehmer.Marktteilnehmer" xlink:type="simple"><text fill="#0000FF" font-family="sans-serif" font-size="14" lengthAdjust="spacing" text-decoration="underline" textLength="112" x="527.5" y="102.0251">Marktteilnehmer</text></a><text fill="#000000" font-family="sans-serif" font-size="10" lengthAdjust="spacing" textLength="123" x="522" y="114.6091">bo4e.bo.marktteilnehmer</text></g><!--class COM--><g id="elem_COM"><rect codeLine="13" fill="#F1F1F1" height="37.9375" id="COM" rx="2.5" ry="2.5" style="stroke:#181818;stroke-width:0.5;" width="104" x="518.5" y="197.03"/><ellipse cx="533.5" cy="215.9988" fill="#ADD1B2" rx="11" ry="11" style="stroke:#181818;stroke-width:1.0;"/><path d="M536.4688,221.6394 Q535.8906,221.9363 535.25,222.0769 Q534.6094,222.2331 533.9063,222.2331 Q531.4063,222.2331 530.0781,220.5925 Q528.7656,218.9363 528.7656,215.8113 Q528.7656,212.6863 530.0781,211.03 Q531.4063,209.3738 533.9063,209.3738 Q534.6094,209.3738 535.25,209.53 Q535.9063,209.6863 536.4688,209.9831 L536.4688,212.7019 Q535.8438,212.1238 535.25,211.8581 Q534.6563,211.5769 534.0313,211.5769 Q532.6875,211.5769 532,212.655 Q531.3125,213.7175 531.3125,215.8113 Q531.3125,217.905 532,218.9831 Q532.6875,220.0456 534.0313,220.0456 Q534.6563,220.0456 535.25,219.78 Q535.8438,219.4988 536.4688,218.9206 L536.4688,221.6394 Z " fill="#000000"/><a href="https://bo4e.github.io/BO4E-python/latest/api/bo4e.com.html#bo4e.com.com.COM" target="_top" title="https://bo4e.github.io/BO4E-python/latest/api/bo4e.com.html#bo4e.com.com.COM" xlink:actuate="onRequest" xlink:href="https://bo4e.github.io/BO4E-python/latest/api/bo4e.com.html#bo4e.com.com.COM" xlink:show="new" xlink:title="https://bo4e.github.io/BO4E-python/latest/api/bo4e.com.html#bo4e.com.com.COM" xlink:type="simple"><text fill="#0000FF" font-family="sans-serif" font-size="14" lengthAdjust="spacing" text-decoration="underline" textLength="33" x="567" y="215.0251">COM</text></a><text fill="#000000" font-family="sans-serif" font-size="10" lengthAdjust="spacing" textLength="72" x="547.5" y="227.6091">bo4e.com.com</text></g><!--class Konfigurationsprodukt--><g id="elem_Konfigurationsprodukt"><rect codeLine="3" fill="#F1F1F1" height="94.8281" id="Konfigurationsprodukt" rx="2.5" ry="2.5" style="stroke:#181818;stroke-width:0.5;" width="313" x="7" y="112.59"/><ellipse cx="81.25" cy="131.5588" fill="#ADD1B2" rx="11" ry="11" style="stroke:#181818;stroke-width:1.0;"/><path d="M84.2188,137.1994 Q83.6406,137.4963 83,137.6369 Q82.3594,137.7931 81.6563,137.7931 Q79.1563,137.7931 77.8281,136.1525 Q76.5156,134.4963 76.5156,131.3713 Q76.5156,128.2463 77.8281,126.59 Q79.1563,124.9338 81.6563,124.9338 Q82.3594,124.9338 83,125.09 Q83.6563,125.2463 84.2188,125.5431 L84.2188,128.2619 Q83.5938,127.6838 83,127.4181 Q82.4063,127.1369 81.7813,127.1369 Q80.4375,127.1369 79.75,128.215 Q79.0625,129.2775 79.0625,131.3713 Q79.0625,133.465 79.75,134.5431 Q80.4375,135.6056 81.7813,135.6056 Q82.4063,135.6056 83,135.34 Q83.5938,135.0588 84.2188,134.4806 L84.2188,137.1994 Z " fill="#000000"/><a href="https://bo4e.github.io/BO4E-python/latest/api/bo4e.com.html#bo4e.com.konfigurationsprodukt.Konfigurationsprodukt" target="_top" title="https://bo4e.github.io/BO4E-python/latest/api/bo4e.com.html#bo4e.com.konfigurationsprodukt.Konfigurationsprodukt" xlink:actuate="onRequest" xlink:href="https://bo4e.github.io/BO4E-python/latest/api/bo4e.com.html#bo4e.com.konfigurationsprodukt.Konfigurationsprodukt" xlink:show="new" xlink:title="https://bo4e.github.io/BO4E-python/latest/api/bo4e.com.html#bo4e.com.konfigurationsprodukt.Konfigurationsprodukt" xlink:type="simple"><text fill="#0000FF" font-family="sans-serif" font-size="14" lengthAdjust="spacing" text-decoration="underline" textLength="153" x="103.25" y="130.5851">Konfigurationsprodukt</text></a><text fill="#000000" font-family="sans-serif" font-size="10" lengthAdjust="spacing" textLength="156" x="101.75" y="143.1691">bo4e.com.konfigurationsprodukt</text><line style="stroke:#181818;stroke-width:0.5;" x1="8" x2="319" y1="150.5275" y2="150.5275"/><text fill="#000000" font-family="sans-serif" font-size="14" lengthAdjust="spacing" textLength="217" x="13" y="167.5226">produktcode : str [0..1] = None</text><text fill="#000000" font-family="sans-serif" font-size="14" lengthAdjust="spacing" textLength="301" x="13" y="183.8195">leistungskurvendefinition : str [0..1] = None</text><text fill="#000000" font-family="sans-serif" font-size="14" lengthAdjust="spacing" textLength="257" x="13" y="200.1164">schaltzeitdefinition : str [0..1] = None</text></g><!--link Konfigurationsprodukt to COM--><g id="link_Konfigurationsprodukt_COM"><path codeLine="16" d="M320.21,181.53 C390.44,191.24 450.7896,199.5847 500.5496,206.4647 " fill="none" id="Konfigurationsprodukt-to-COM" style="stroke:#181818;stroke-width:1.0;"/><polygon fill="none" points="518.38,208.93,501.3714,200.5212,499.7279,212.4082,518.38,208.93" style="stroke:#181818;stroke-width:1.0;"/></g><!--link Konfigurationsprodukt to Marktteilnehmer--><g id="link_Konfigurationsprodukt_Marktteilnehmer"><path codeLine="17" d="M320.21,138.08 C379.3,129.77 432.1171,122.3321 480.7971,115.4821 " fill="none" id="Konfigurationsprodukt-to-Marktteilnehmer" style="stroke:#181818;stroke-width:1.0;"/><polygon fill="#181818" points="492.68,113.81,486.1812,110.6851,480.7971,115.4821,487.2959,118.607,492.68,113.81" style="stroke:#181818;stroke-width:1.0;"/><text fill="#000000" font-family="sans-serif" font-size="13" lengthAdjust="spacing" textLength="85" x="351" y="120.0669">marktpartner</text><text fill="#000000" font-family="sans-serif" font-size="13" lengthAdjust="spacing" textLength="24" x="460.9611" y="127.4562">0..1</text></g><!--SRC=[fLBHJi8m57scNt43RoPia10qH4a0UJB81-0Ukkr26xfsQUyqelwxtGIYR6WY3pVfkJazlJttA5mJa04hDu8WbHOJaaOpbYZk7BHNAq6Kkr4OncQ0mKQIAE90cd2w7Cox-Ii9eqF52Hs5F9TVhCHaWQ1CTOveQ_HQRWhBIt6NMvCMMmeUchhGs8sY9tthv0v7_TxuTzasSDSi0c-ijJyc9aKOWICBgruGz2EuWqUZaRKKIaU5thXjOPzHfxYMMfOgpNIN2AveXvB-O7umfdc6BkS9_jFNs5IsmXv4KVNLFOBET7X_FRafFtd9ylQFT0uWutPBX59f51dQOF4JmmckBwgkKOrzSi_xSwazXzZ10Nqto4Fep7kJc-7iKeVgyIvhjbo0h-QW-gf6yOGo26UIt-s-Zu_JbeBdY9vv1UqoNkt3-cjx6K7bUiujQMyl4z8dFiCiHkkO4-O5peYl9QhKVG80]--></g></svg>