<?xml version="1.0" encoding="us-ascii" standalone="no"?><svg xmlns="http://www.w3.org/2000/svg" xmlns:xlink="http://www.w3.org/1999/xlink" contentStyleType="text/css" height="282px" preserveAspectRatio="none" style="width:683px;height:282px;background:#FFFFFF;" version="1.1" viewBox="0 0 683 282" width="683px" zoomAndPan="magnify"><defs/><g><!--cluster bo4e--><g id="cluster_bo4e"><path d="M458.5,6 L499.5,6 A3.75,3.75 0 0 1 502,8.5 L509,28.2969 L673.5,28.2969 A2.5,2.5 0 0 1 676,30.7969 L676,272.5 A2.5,2.5 0 0 1 673.5,275 L458.5,275 A2.5,2.5 0 0 1 456,272.5 L456,8.5 A2.5,2.5 0 0 1 458.5,6 " fill="none" style="stroke:#000000;stroke-width:1.5;"/><line style="stroke:#000000;stroke-width:1.5;" x1="456" x2="509" y1="28.2969" y2="28.2969"/><text fill="#000000" font-family="sans-serif" font-size="14" font-weight="bold" lengthAdjust="spacing" textLength="40" x="460" y="20.9951">bo4e</text></g><!--cluster com--><g id="cluster_com"><path d="M500.5,49 L579.5,49 A3.75,3.75 0 0 1 582,51.5 L589,71.2969 L631.5,71.2969 A2.5,2.5 0 0 1 634,73.7969 L634,135.5 A2.5,2.5 0 0 1 631.5,138 L500.5,138 A2.5,2.5 0 0 1 498,135.5 L498,51.5 A2.5,2.5 0 0 1 500.5,49 " fill="#E0A86C" style="stroke:#000000;stroke-width:1.5;"/><line style="stroke:#000000;stroke-width:1.5;" x1="498" x2="589" y1="71.2969" y2="71.2969"/><a href="https://bo4e-python.readthedocs.io/en/v0.0.0/api/bo4e.com.html" target="_top" title="https://bo4e-python.readthedocs.io/en/v0.0.0/api/bo4e.com.html" xlink:actuate="onRequest" xlink:href="https://bo4e-python.readthedocs.io/en/v0.0.0/api/bo4e.com.html" xlink:show="new" xlink:title="https://bo4e-python.readthedocs.io/en/v0.0.0/api/bo4e.com.html" xlink:type="simple"><text fill="#0000FF" font-family="sans-serif" font-size="14" font-weight="bold" lengthAdjust="spacing" text-decoration="underline" textLength="78" x="502" y="63.9951">bo4e.com</text></a></g><!--cluster enum--><g id="cluster_enum"><path d="M482.5,162 L572.5,162 A3.75,3.75 0 0 1 575,164.5 L582,184.2969 L649.5,184.2969 A2.5,2.5 0 0 1 652,186.7969 L652,248.5 A2.5,2.5 0 0 1 649.5,251 L482.5,251 A2.5,2.5 0 0 1 480,248.5 L480,164.5 A2.5,2.5 0 0 1 482.5,162 " fill="#D1C358" style="stroke:#000000;stroke-width:1.5;"/><line style="stroke:#000000;stroke-width:1.5;" x1="480" x2="582" y1="184.2969" y2="184.2969"/><a href="https://bo4e-python.readthedocs.io/en/v0.0.0/api/bo4e.enum.html" target="_top" title="https://bo4e-python.readthedocs.io/en/v0.0.0/api/bo4e.enum.html" xlink:actuate="onRequest" xlink:href="https://bo4e-python.readthedocs.io/en/v0.0.0/api/bo4e.enum.html" xlink:show="new" xlink:title="https://bo4e-python.readthedocs.io/en/v0.0.0/api/bo4e.enum.html" xlink:type="simple"><text fill="#0000FF" font-family="sans-serif" font-size="14" font-weight="bold" lengthAdjust="spacing" text-decoration="underline" textLength="89" x="484" y="176.9951">bo4e.enum</text></a></g><!--class COM--><g id="elem_COM"><rect codeLine="10" fill="#F1F1F1" height="37.9375" id="COM" rx="2.5" ry="2.5" style="stroke:#181818;stroke-width:0.5;" width="104" x="514" y="84.03"/><ellipse cx="529" cy="102.9988" fill="#ADD1B2" rx="11" ry="11" style="stroke:#181818;stroke-width:1.0;"/><path d="M531.9688,108.6394 Q531.3906,108.9363 530.75,109.0769 Q530.1094,109.2331 529.4063,109.2331 Q526.9063,109.2331 525.5781,107.5925 Q524.2656,105.9363 524.2656,102.8113 Q524.2656,99.6863 525.5781,98.03 Q526.9063,96.3738 529.4063,96.3738 Q530.1094,96.3738 530.75,96.53 Q531.4063,96.6863 531.9688,96.9831 L531.9688,99.7019 Q531.3438,99.1238 530.75,98.8581 Q530.1563,98.5769 529.5313,98.5769 Q528.1875,98.5769 527.5,99.655 Q526.8125,100.7175 526.8125,102.8113 Q526.8125,104.905 527.5,105.9831 Q528.1875,107.0456 529.5313,107.0456 Q530.1563,107.0456 530.75,106.78 Q531.3438,106.4988 531.9688,105.9206 L531.9688,108.6394 Z " fill="#000000"/><a href="https://bo4e-python.readthedocs.io/en/v0.0.0/api/bo4e.com.html#bo4e.com.com.COM" target="_top" title="https://bo4e-python.readthedocs.io/en/v0.0.0/api/bo4e.com.html#bo4e.com.com.COM" xlink:actuate="onRequest" xlink:href="https://bo4e-python.readthedocs.io/en/v0.0.0/api/bo4e.com.html#bo4e.com.com.COM" xlink:show="new" xlink:title="https://bo4e-python.readthedocs.io/en/v0.0.0/api/bo4e.com.html#bo4e.com.com.COM" xlink:type="simple"><text fill="#0000FF" font-family="sans-serif" font-size="14" lengthAdjust="spacing" text-decoration="underline" textLength="33" x="562.5" y="102.0251">COM</text></a><text fill="#000000" font-family="sans-serif" font-size="10" lengthAdjust="spacing" textLength="72" x="543" y="114.6091">bo4e.com.com</text></g><!--class Kontaktart--><g id="elem_Kontaktart"><rect codeLine="13" fill="#F1F1F1" height="37.9375" id="Kontaktart" rx="2.5" ry="2.5" style="stroke:#181818;stroke-width:0.5;" width="140" x="496" y="197.03"/><ellipse cx="511" cy="215.9988" fill="#ADD1B2" rx="11" ry="11" style="stroke:#181818;stroke-width:1.0;"/><path d="M513.9688,221.6394 Q513.3906,221.9363 512.75,222.0769 Q512.1094,222.2331 511.4063,222.2331 Q508.9063,222.2331 507.5781,220.5925 Q506.2656,218.9363 506.2656,215.8113 Q506.2656,212.6863 507.5781,211.03 Q508.9063,209.3738 511.4063,209.3738 Q512.1094,209.3738 512.75,209.53 Q513.4063,209.6863 513.9688,209.9831 L513.9688,212.7019 Q513.3438,212.1238 512.75,211.8581 Q512.1563,211.5769 511.5313,211.5769 Q510.1875,211.5769 509.5,212.655 Q508.8125,213.7175 508.8125,215.8113 Q508.8125,217.905 509.5,218.9831 Q510.1875,220.0456 511.5313,220.0456 Q512.1563,220.0456 512.75,219.78 Q513.3438,219.4988 513.9688,218.9206 L513.9688,221.6394 Z " fill="#000000"/><a href="https://bo4e-python.readthedocs.io/en/v0.0.0/api/bo4e.enum.html#bo4e.enum.kontaktart.Kontaktart" target="_top" title="https://bo4e-python.readthedocs.io/en/v0.0.0/api/bo4e.enum.html#bo4e.enum.kontaktart.Kontaktart" xlink:actuate="onRequest" xlink:href="https://bo4e-python.readthedocs.io/en/v0.0.0/api/bo4e.enum.html#bo4e.enum.kontaktart.Kontaktart" xlink:show="new" xlink:title="https://bo4e-python.readthedocs.io/en/v0.0.0/api/bo4e.enum.html#bo4e.enum.kontaktart.Kontaktart" xlink:type="simple"><text fill="#0000FF" font-family="sans-serif" font-size="14" lengthAdjust="spacing" text-decoration="underline" textLength="71" x="543.5" y="215.0251">Kontaktart</text></a><text fill="#000000" font-family="sans-serif" font-size="10" lengthAdjust="spacing" textLength="108" x="525" y="227.6091">bo4e.enum.kontaktart</text></g><!--class Kontaktweg--><g id="elem_Kontaktweg"><rect codeLine="3" fill="#F1F1F1" height="94.8281" id="Kontaktweg" rx="2.5" ry="2.5" style="stroke:#181818;stroke-width:0.5;" width="335" x="7" y="112.59"/><ellipse cx="116.75" cy="131.5588" fill="#ADD1B2" rx="11" ry="11" style="stroke:#181818;stroke-width:1.0;"/><path d="M119.7188,137.1994 Q119.1406,137.4963 118.5,137.6369 Q117.8594,137.7931 117.1563,137.7931 Q114.6563,137.7931 113.3281,136.1525 Q112.0156,134.4963 112.0156,131.3713 Q112.0156,128.2463 113.3281,126.59 Q114.6563,124.9338 117.1563,124.9338 Q117.8594,124.9338 118.5,125.09 Q119.1563,125.2463 119.7188,125.5431 L119.7188,128.2619 Q119.0938,127.6838 118.5,127.4181 Q117.9063,127.1369 117.2813,127.1369 Q115.9375,127.1369 115.25,128.215 Q114.5625,129.2775 114.5625,131.3713 Q114.5625,133.465 115.25,134.5431 Q115.9375,135.6056 117.2813,135.6056 Q117.9063,135.6056 118.5,135.34 Q119.0938,135.0588 119.7188,134.4806 L119.7188,137.1994 Z " fill="#000000"/><a href="https://bo4e-python.readthedocs.io/en/v0.0.0/api/bo4e.com.html#bo4e.com.kontaktweg.Kontaktweg" target="_top" title="https://bo4e-python.readthedocs.io/en/v0.0.0/api/bo4e.com.html#bo4e.com.kontaktweg.Kontaktweg" xlink:actuate="onRequest" xlink:href="https://bo4e-python.readthedocs.io/en/v0.0.0/api/bo4e.com.html#bo4e.com.kontaktweg.Kontaktweg" xlink:show="new" xlink:title="https://bo4e-python.readthedocs.io/en/v0.0.0/api/bo4e.com.html#bo4e.com.kontaktweg.Kontaktweg" xlink:type="simple"><text fill="#0000FF" font-family="sans-serif" font-size="14" lengthAdjust="spacing" text-decoration="underline" textLength="82" x="149.75" y="130.5851">Kontaktweg</text></a><text fill="#000000" font-family="sans-serif" font-size="10" lengthAdjust="spacing" textLength="107" x="137.25" y="143.1691">bo4e.com.kontaktweg</text><line style="stroke:#181818;stroke-width:0.5;" x1="8" x2="341" y1="150.5275" y2="150.5275"/><text fill="#000000" font-family="sans-serif" font-size="14" lengthAdjust="spacing" textLength="224" x="13" y="167.5226">beschreibung : str [0..1] = None</text><text fill="#000000" font-family="sans-serif" font-size="14" lengthAdjust="spacing" textLength="210" x="13" y="183.8195">kontaktwert : str [0..1] = None</text><text fill="#000000" font-family="sans-serif" font-size="14" lengthAdjust="spacing" textLength="323" x="13" y="200.1164">istBevorzugterKontaktweg : bool [0..1] = None</text></g><!--link Kontaktweg to COM--><g id="link_Kontaktweg_COM"><path codeLine="16" d="M342.38,135.58 C404.12,126.54 451.8599,119.5575 495.7099,113.1375 " fill="none" id="Kontaktweg-to-COM" style="stroke:#181818;stroke-width:1.0;"/><polygon fill="none" points="513.52,110.53,494.8407,107.2008,496.5791,119.0743,513.52,110.53" style="stroke:#181818;stroke-width:1.0;"/></g><!--link Kontaktweg to Kontaktart--><g id="link_Kontaktweg_Kontaktart"><path codeLine="17" d="M342.38,183.99 C396.27,191.74 441.192,198.2032 483.922,204.3432 " fill="none" id="Kontaktweg-to-Kontaktart" style="stroke:#181818;stroke-width:1.0;"/><polygon fill="#181818" points="495.8,206.05,490.4299,201.2373,483.922,204.3432,489.2921,209.1559,495.8,206.05" style="stroke:#181818;stroke-width:1.0;"/><text fill="#000000" font-family="sans-serif" font-size="13" lengthAdjust="spacing" textLength="66" x="373" y="185.0669">kontaktart</text><text fill="#000000" font-family="sans-serif" font-size="13" lengthAdjust="spacing" textLength="24" x="463.9653" y="217.8898">0..1</text></g><!--SRC=[hL9DJyCm33qlly9gRqXBE_6XgO99C752m0yOFQIjrqHhaohnDZ7WlzDEh0rZDwR8af_ydFWvhy8b0HcmgfG4XRAOapAQiRmIpa6mM4YYnYLHb9ah73Vl98tc5aL14WkJEwvCX3hQnBmzaMZKdiXpKtD9THNsQ6KqYHLjiUHFVGf3cgPl-jQf7IQJU7QYAm3XF3fyi566BfSMLRRM9IJWoC8YvdoImXsy68rirBTREarGZXvmO-nkNH9Qx_e4CcEg8_eNOrhKw1gHu_zt0mUKfdjn1mZXOtm_lPbt4i_-3LtCNv-XZTCRRsC_JKjezPv1BkgrhxU3lk0EGrXCyilhwHaKzw-50_nnWR1qi5wRmf3-NSHHc- -z5dO-y4qy7d_E-j_hjlkhsfOl8EXy50oA_K4I65vYJAe2eSOwG-kOasOB_cLBXLNXlW40]--></g></svg>