<svg xmlns="http://www.w3.org/2000/svg" xmlns:xlink="http://www.w3.org/1999/xlink" contentStyleType="text/css" data-diagram-type="CLASS" height="388px" preserveAspectRatio="none" style="width:1090px;height:388px;background:#FFFFFF;" version="1.1" viewBox="0 0 1090 388" width="1090px" zoomAndPan="magnify"><defs/><g><!--cluster bo4e--><g class="cluster" data-entity="bo4e" data-source-line="13" data-uid="ent0005" id="cluster_bo4e"><path d="M886.08,6 L925.956,6 A3.75,3.75 0 0 1 928.456,8.5 L935.456,28.2969 L1080.51,28.2969 A2.5,2.5 0 0 1 1083.01,30.7969 L1083.01,378.5 A2.5,2.5 0 0 1 1080.51,381 L886.08,381 A2.5,2.5 0 0 1 883.58,378.5 L883.58,8.5 A2.5,2.5 0 0 1 886.08,6" fill="none" style="stroke:#000000;stroke-width:1.5;"/><line style="stroke:#000000;stroke-width:1.5;" x1="883.58" x2="935.456" y1="28.2969" y2="28.2969"/><text fill="#000000" font-family="sans-serif" font-size="14" font-weight="bold" lengthAdjust="spacing" textLength="38.876" x="887.58" y="20.9951">bo4e</text></g><!--cluster com--><g class="cluster" data-entity="com" data-source-line="12" data-uid="ent0003" id="cluster_com"><path d="M910.08,49 L987.7792,49 A3.75,3.75 0 0 1 990.2792,51.5 L997.2792,71.2969 L1056.51,71.2969 A2.5,2.5 0 0 1 1059.01,73.7969 L1059.01,354.5 A2.5,2.5 0 0 1 1056.51,357 L910.08,357 A2.5,2.5 0 0 1 907.58,354.5 L907.58,51.5 A2.5,2.5 0 0 1 910.08,49" fill="#E0A86C" style="stroke:#000000;stroke-width:1.5;"/><line style="stroke:#000000;stroke-width:1.5;" x1="907.58" x2="997.2792" y1="71.2969" y2="71.2969"/><a href="file:////home/runner/work/BO4E-python/BO4E-python/docs/../.tox/docs/tmp/html/api/bo4e.com.html" target="_top" title="file:////home/runner/work/BO4E-python/BO4E-python/docs/../.tox/docs/tmp/html/api/bo4e.com.html" xlink:actuate="onRequest" xlink:href="file:////home/runner/work/BO4E-python/BO4E-python/docs/../.tox/docs/tmp/html/api/bo4e.com.html" xlink:show="new" xlink:title="file:////home/runner/work/BO4E-python/BO4E-python/docs/../.tox/docs/tmp/html/api/bo4e.com.html" xlink:type="simple"><text fill="#0000FF" font-family="sans-serif" font-size="14" font-weight="bold" lengthAdjust="spacing" text-decoration="underline" textLength="76.6992" x="911.58" y="63.9951">bo4e.com</text></a></g><!--class Betrag--><g class="entity" data-entity="Betrag" data-source-line="13" data-uid="ent0004" id="entity_Betrag"><rect fill="#F1F1F1" height="37.9375" rx="2.5" ry="2.5" style="stroke:#181818;stroke-width:0.5;" width="117.7031" x="924.44" y="84.03"/><ellipse cx="939.44" cy="102.9987" fill="#ADD1B2" rx="11" ry="11" style="stroke:#181818;stroke-width:1;"/><path d="M942.4088,108.6394 Q941.8306,108.9362 941.19,109.0769 Q940.5494,109.2331 939.8463,109.2331 Q937.3463,109.2331 936.0181,107.5925 Q934.7056,105.9362 934.7056,102.8112 Q934.7056,99.6862 936.0181,98.03 Q937.3463,96.3737 939.8463,96.3737 Q940.5494,96.3737 941.19,96.53 Q941.8463,96.6862 942.4088,96.9831 L942.4088,99.7019 Q941.7838,99.1237 941.19,98.8581 Q940.5963,98.5769 939.9713,98.5769 Q938.6275,98.5769 937.94,99.655 Q937.2525,100.7175 937.2525,102.8112 Q937.2525,104.905 937.94,105.9831 Q938.6275,107.0456 939.9713,107.0456 Q940.5963,107.0456 941.19,106.78 Q941.7838,106.4987 942.4088,105.9206 L942.4088,108.6394 Z " fill="#000000"/><a href="file:////home/runner/work/BO4E-python/BO4E-python/docs/../.tox/docs/tmp/html/api/bo4e.com.html#bo4e.com.betrag.Betrag" target="_top" title="file:////home/runner/work/BO4E-python/BO4E-python/docs/../.tox/docs/tmp/html/api/bo4e.com.html#bo4e.com.betrag.Betrag" xlink:actuate="onRequest" xlink:href="file:////home/runner/work/BO4E-python/BO4E-python/docs/../.tox/docs/tmp/html/api/bo4e.com.html#bo4e.com.betrag.Betrag" xlink:show="new" xlink:title="file:////home/runner/work/BO4E-python/BO4E-python/docs/../.tox/docs/tmp/html/api/bo4e.com.html#bo4e.com.betrag.Betrag" xlink:type="simple"><text fill="#0000FF" font-family="sans-serif" font-size="14" lengthAdjust="spacing" text-decoration="underline" textLength="46.9287" x="972.8272" y="102.0251">Betrag</text></a><text fill="#000000" font-family="sans-serif" font-size="10" lengthAdjust="spacing" textLength="85.7031" x="953.44" y="114.6091">bo4e.com.betrag</text></g><!--class Menge--><g class="entity" data-entity="Menge" data-source-line="14" data-uid="ent0006" id="entity_Menge"><rect fill="#F1F1F1" height="37.9375" rx="2.5" ry="2.5" style="stroke:#181818;stroke-width:0.5;" width="119.4268" x="923.58" y="157.03"/><ellipse cx="938.58" cy="175.9988" fill="#ADD1B2" rx="11" ry="11" style="stroke:#181818;stroke-width:1;"/><path d="M941.5488,181.6394 Q940.9706,181.9363 940.33,182.0769 Q939.6894,182.2331 938.9863,182.2331 Q936.4863,182.2331 935.1581,180.5925 Q933.8456,178.9363 933.8456,175.8113 Q933.8456,172.6863 935.1581,171.03 Q936.4863,169.3738 938.9863,169.3738 Q939.6894,169.3738 940.33,169.53 Q940.9863,169.6863 941.5488,169.9831 L941.5488,172.7019 Q940.9238,172.1238 940.33,171.8581 Q939.7363,171.5769 939.1113,171.5769 Q937.7675,171.5769 937.08,172.655 Q936.3925,173.7175 936.3925,175.8113 Q936.3925,177.905 937.08,178.9831 Q937.7675,180.0456 939.1113,180.0456 Q939.7363,180.0456 940.33,179.78 Q940.9238,179.4988 941.5488,178.9206 L941.5488,181.6394 Z " fill="#000000"/><a href="file:////home/runner/work/BO4E-python/BO4E-python/docs/../.tox/docs/tmp/html/api/bo4e.com.html#bo4e.com.menge.Menge" target="_top" title="file:////home/runner/work/BO4E-python/BO4E-python/docs/../.tox/docs/tmp/html/api/bo4e.com.html#bo4e.com.menge.Menge" xlink:actuate="onRequest" xlink:href="file:////home/runner/work/BO4E-python/BO4E-python/docs/../.tox/docs/tmp/html/api/bo4e.com.html#bo4e.com.menge.Menge" xlink:show="new" xlink:title="file:////home/runner/work/BO4E-python/BO4E-python/docs/../.tox/docs/tmp/html/api/bo4e.com.html#bo4e.com.menge.Menge" xlink:type="simple"><text fill="#0000FF" font-family="sans-serif" font-size="14" lengthAdjust="spacing" text-decoration="underline" textLength="47.0654" x="972.7607" y="175.0251">Menge</text></a><text fill="#000000" font-family="sans-serif" font-size="10" lengthAdjust="spacing" textLength="87.4268" x="952.58" y="187.6091">bo4e.com.menge</text></g><!--class COM--><g class="entity" data-entity="COM" data-source-line="15" data-uid="ent0007" id="entity_COM"><rect fill="#F1F1F1" height="37.9375" rx="2.5" ry="2.5" style="stroke:#181818;stroke-width:0.5;" width="106.0527" x="930.27" y="230.03"/><ellipse cx="945.27" cy="248.9988" fill="#ADD1B2" rx="11" ry="11" style="stroke:#181818;stroke-width:1;"/><path d="M948.2388,254.6394 Q947.6606,254.9363 947.02,255.0769 Q946.3794,255.2331 945.6763,255.2331 Q943.1763,255.2331 941.8481,253.5925 Q940.5356,251.9363 940.5356,248.8113 Q940.5356,245.6863 941.8481,244.03 Q943.1763,242.3738 945.6763,242.3738 Q946.3794,242.3738 947.02,242.53 Q947.6763,242.6863 948.2388,242.9831 L948.2388,245.7019 Q947.6138,245.1238 947.02,244.8581 Q946.4263,244.5769 945.8013,244.5769 Q944.4575,244.5769 943.77,245.655 Q943.0825,246.7175 943.0825,248.8113 Q943.0825,250.905 943.77,251.9831 Q944.4575,253.0456 945.8013,253.0456 Q946.4263,253.0456 947.02,252.78 Q947.6138,252.4988 948.2388,251.9206 L948.2388,254.6394 Z " fill="#000000"/><a href="file:////home/runner/work/BO4E-python/BO4E-python/docs/../.tox/docs/tmp/html/api/bo4e.com.html#bo4e.com.com.COM" target="_top" title="file:////home/runner/work/BO4E-python/BO4E-python/docs/../.tox/docs/tmp/html/api/bo4e.com.html#bo4e.com.com.COM" xlink:actuate="onRequest" xlink:href="file:////home/runner/work/BO4E-python/BO4E-python/docs/../.tox/docs/tmp/html/api/bo4e.com.html#bo4e.com.com.COM" xlink:show="new" xlink:title="file:////home/runner/work/BO4E-python/BO4E-python/docs/../.tox/docs/tmp/html/api/bo4e.com.html#bo4e.com.com.COM" xlink:type="simple"><text fill="#0000FF" font-family="sans-serif" font-size="14" lengthAdjust="spacing" text-decoration="underline" textLength="32.874" x="979.8594" y="248.0251">COM</text></a><text fill="#000000" font-family="sans-serif" font-size="10" lengthAdjust="spacing" textLength="74.0527" x="959.27" y="260.6091">bo4e.com.com</text></g><!--class Preis--><g class="entity" data-entity="Preis" data-source-line="16" data-uid="ent0008" id="entity_Preis"><rect fill="#F1F1F1" height="37.9375" rx="2.5" ry="2.5" style="stroke:#181818;stroke-width:0.5;" width="109.2949" x="928.65" y="303.03"/><ellipse cx="943.65" cy="321.9988" fill="#ADD1B2" rx="11" ry="11" style="stroke:#181818;stroke-width:1;"/><path d="M946.6188,327.6394 Q946.0406,327.9363 945.4,328.0769 Q944.7594,328.2331 944.0563,328.2331 Q941.5563,328.2331 940.2281,326.5925 Q938.9156,324.9363 938.9156,321.8113 Q938.9156,318.6863 940.2281,317.03 Q941.5563,315.3738 944.0563,315.3738 Q944.7594,315.3738 945.4,315.53 Q946.0563,315.6863 946.6188,315.9831 L946.6188,318.7019 Q945.9938,318.1238 945.4,317.8581 Q944.8063,317.5769 944.1813,317.5769 Q942.8375,317.5769 942.15,318.655 Q941.4625,319.7175 941.4625,321.8113 Q941.4625,323.905 942.15,324.9831 Q942.8375,326.0456 944.1813,326.0456 Q944.8063,326.0456 945.4,325.78 Q945.9938,325.4988 946.6188,324.9206 L946.6188,327.6394 Z " fill="#000000"/><a href="file:////home/runner/work/BO4E-python/BO4E-python/docs/../.tox/docs/tmp/html/api/bo4e.com.html#bo4e.com.preis.Preis" target="_top" title="file:////home/runner/work/BO4E-python/BO4E-python/docs/../.tox/docs/tmp/html/api/bo4e.com.html#bo4e.com.preis.Preis" xlink:actuate="onRequest" xlink:href="file:////home/runner/work/BO4E-python/BO4E-python/docs/../.tox/docs/tmp/html/api/bo4e.com.html#bo4e.com.preis.Preis" xlink:show="new" xlink:title="file:////home/runner/work/BO4E-python/BO4E-python/docs/../.tox/docs/tmp/html/api/bo4e.com.html#bo4e.com.preis.Preis" xlink:type="simple"><text fill="#0000FF" font-family="sans-serif" font-size="14" lengthAdjust="spacing" text-decoration="underline" textLength="33.9951" x="979.2999" y="321.0251">Preis</text></a><text fill="#000000" font-family="sans-serif" font-size="10" lengthAdjust="spacing" textLength="77.2949" x="957.65" y="333.6091">bo4e.com.preis</text></g><!--class Kostenposition--><g class="entity" data-entity="Kostenposition" data-source-line="3" data-uid="ent0002" id="entity_Kostenposition"><rect fill="#F1F1F1" height="143.7188" rx="2.5" ry="2.5" style="stroke:#181818;stroke-width:0.5;" width="690.583" x="7" y="145.14"/><ellipse cx="285.124" cy="164.1088" fill="#ADD1B2" rx="11" ry="11" style="stroke:#181818;stroke-width:1;"/><path d="M288.0928,169.7494 Q287.5146,170.0463 286.874,170.1869 Q286.2334,170.3431 285.5303,170.3431 Q283.0303,170.3431 281.7021,168.7025 Q280.3896,167.0463 280.3896,163.9213 Q280.3896,160.7963 281.7021,159.14 Q283.0303,157.4838 285.5303,157.4838 Q286.2334,157.4838 286.874,157.64 Q287.5303,157.7963 288.0928,158.0931 L288.0928,160.8119 Q287.4678,160.2338 286.874,159.9681 Q286.2803,159.6869 285.6553,159.6869 Q284.3115,159.6869 283.624,160.765 Q282.9365,161.8275 282.9365,163.9213 Q282.9365,166.015 283.624,167.0931 Q284.3115,168.1556 285.6553,168.1556 Q286.2803,168.1556 286.874,167.89 Q287.4678,167.6088 288.0928,167.0306 L288.0928,169.7494 Z " fill="#000000"/><a href="file:////home/runner/work/BO4E-python/BO4E-python/docs/../.tox/docs/tmp/html/api/bo4e.com.html#bo4e.com.kostenposition.Kostenposition" target="_top" title="file:////home/runner/work/BO4E-python/BO4E-python/docs/../.tox/docs/tmp/html/api/bo4e.com.html#bo4e.com.kostenposition.Kostenposition" xlink:actuate="onRequest" xlink:href="file:////home/runner/work/BO4E-python/BO4E-python/docs/../.tox/docs/tmp/html/api/bo4e.com.html#bo4e.com.kostenposition.Kostenposition" xlink:show="new" xlink:title="file:////home/runner/work/BO4E-python/BO4E-python/docs/../.tox/docs/tmp/html/api/bo4e.com.html#bo4e.com.kostenposition.Kostenposition" xlink:type="simple"><text fill="#0000FF" font-family="sans-serif" font-size="14" lengthAdjust="spacing" text-decoration="underline" textLength="103.4688" x="316.8071" y="163.1351">Kostenposition</text></a><text fill="#000000" font-family="sans-serif" font-size="10" lengthAdjust="spacing" textLength="125.835" x="305.624" y="175.7191">bo4e.com.kostenposition</text><line style="stroke:#181818;stroke-width:0.5;" x1="8" x2="696.583" y1="183.0775" y2="183.0775"/><text fill="#000000" font-family="sans-serif" font-size="14" lengthAdjust="spacing" textLength="678.583" x="13" y="200.0726">_typ : Literal[&lt;ComTyp.KOSTENPOSITION: 'KOSTENPOSITION'&gt;] [1] = ComTyp.KOSTENPOSITION</text><text fill="#000000" font-family="sans-serif" font-size="14" lengthAdjust="spacing" textLength="221.5186" x="13" y="216.3695">positionstitel : str [0..1] = None</text><text fill="#000000" font-family="sans-serif" font-size="14" lengthAdjust="spacing" textLength="265.1523" x="13" y="232.6664">artikelbezeichnung : str [0..1] = None</text><text fill="#000000" font-family="sans-serif" font-size="14" lengthAdjust="spacing" textLength="247.6523" x="13" y="248.9632">von : AwareDatetime [0..1] = None</text><text fill="#000000" font-family="sans-serif" font-size="14" lengthAdjust="spacing" textLength="241.999" x="13" y="265.2601">bis : AwareDatetime [0..1] = None</text><text fill="#000000" font-family="sans-serif" font-size="14" lengthAdjust="spacing" textLength="215.0723" x="13" y="281.557">artikeldetail : str [0..1] = None</text></g><!--link Kostenposition to COM--><g class="link" data-entity-1="Kostenposition" data-entity-2="COM" data-source-line="19" data-uid="lnk9" id="link_Kostenposition_COM"><path codeLine="19" d="M697.87,251.4 C707.88,251.99 717.8,252.53 727.58,253 C789.73,255.98 805.37,254.08 867.58,253 C888.01,252.64 892.4721,252.5911 912.0621,251.8711" fill="none" id="Kostenposition-to-COM" style="stroke:#181818;stroke-width:1;"/><polygon fill="none" points="930.05,251.21,911.8418,245.8752,912.2825,257.8671,930.05,251.21" style="stroke:#181818;stroke-width:1;"/></g><!--link Kostenposition to Betrag--><g class="link" data-entity-1="Kostenposition" data-entity-2="Betrag" data-source-line="20" data-uid="lnk10" id="link_Kostenposition_Betrag"><path codeLine="20" d="M697.7,154.58 C785.5,138.67 858.3622,125.4591 912.1822,115.7091" fill="none" id="Kostenposition-to-Betrag" style="stroke:#181818;stroke-width:1;"/><polygon fill="#181818" points="923.99,113.57,917.3731,110.7036,912.1822,115.7091,918.7991,118.5755,923.99,113.57" style="stroke:#181818;stroke-width:1;"/><text fill="#000000" font-family="sans-serif" font-size="13" lengthAdjust="spacing" textLength="138.9883" x="728.58" y="121.0669">betragKostenposition</text><text fill="#000000" font-family="sans-serif" font-size="13" lengthAdjust="spacing" textLength="24.8066" x="891.7924" y="127.7341">0..1</text></g><!--link Kostenposition to Preis--><g class="link" data-entity-1="Kostenposition" data-entity-2="Preis" data-source-line="21" data-uid="lnk11" id="link_Kostenposition_Preis"><path codeLine="21" d="M697.96,275.06 C707.94,276.73 717.83,278.38 727.58,280 C796.99,291.56 865.2284,302.7966 916.7784,311.2566" fill="none" id="Kostenposition-to-Preis" style="stroke:#181818;stroke-width:1;"/><polygon fill="#181818" points="928.62,313.2,923.347,308.2811,916.7784,311.2566,922.0514,316.1755,928.62,313.2" style="stroke:#181818;stroke-width:1;"/><text fill="#000000" font-family="sans-serif" font-size="13" lengthAdjust="spacing" textLength="70.2622" x="762.58" y="276.0669">einzelpreis</text><text fill="#000000" font-family="sans-serif" font-size="13" lengthAdjust="spacing" textLength="24.8066" x="895.7144" y="325.1013">0..1</text></g><!--link Kostenposition to Menge--><g class="link" data-entity-1="Kostenposition" data-entity-2="Menge" data-source-line="22" data-uid="lnk12" id="link_Kostenposition_Menge"><path codeLine="22" d="M697.7,194.55 C785.07,188.86 857.3654,184.1404 911.2254,180.6304" fill="none" id="Kostenposition-to-Menge" style="stroke:#181818;stroke-width:1;"/><polygon fill="#181818" points="923.2,179.85,916.9526,176.2487,911.2254,180.6304,917.4728,184.2317,923.2,179.85" style="stroke:#181818;stroke-width:1;"/><text fill="#000000" font-family="sans-serif" font-size="13" lengthAdjust="spacing" textLength="45.1509" x="775.08" y="180.0669">menge</text><text fill="#000000" font-family="sans-serif" font-size="13" lengthAdjust="spacing" textLength="24.8066" x="890.9108" y="176.5027">0..1</text></g><!--link Kostenposition to Menge--><g class="link" data-entity-1="Kostenposition" data-entity-2="Menge" data-source-line="23" data-uid="lnk13" id="link_Kostenposition_Menge"><path codeLine="23" d="M697.96,244.25 C755.37,241.26 813.73,233.45 867.58,218 C871.61,216.84 871.8,214.81 875.58,213 C890.62,205.81 896.0934,203.2447 911.8534,197.7747" fill="none" id="Kostenposition-to-Menge-1" style="stroke:#181818;stroke-width:1;"/><polygon fill="#181818" points="923.19,193.84,916.2101,192.0285,911.8534,197.7747,918.8333,199.5862,923.19,193.84" style="stroke:#181818;stroke-width:1;"/><text fill="#000000" font-family="sans-serif" font-size="13" lengthAdjust="spacing" textLength="68.6816" x="763.58" y="214.0669">zeitmenge</text><text fill="#000000" font-family="sans-serif" font-size="13" lengthAdjust="spacing" textLength="24.8066" x="890.8997" y="208.8447">0..1</text></g><!--SRC=[nPHHQzim4CUVuqznf0-5GUGKoXYc3RHP7ahNkD2ykMR8pYKMiIKZNPSbMxzx9RdfSEgnzg6BGIUV-T_fP_INIbmGa08jbWN1N6ZCIIWP17d9ZO5-aYn4YL5edq9L6Ee7AL67QwLNuMLyEXdK6ogKRBtFLMv2na96wcUJK5M71LLbo6iHPkeKMQugvhuSlMGhPGXbhOnm0EowbK8xJTDxUMR45gEJuUWl7Vh0pLuP_0fwtsbJGmJV1A7cPN8sLjLiKxFh-6uscTx6TrUpgtWQmN7xm_4eXUGaXNFer0UztHA6REFIBc18Gp9ap1TDbSIWnpM95POPRb7aXNoGosxT3qiQmSMQQ_pA2KbKk2_9XFcNv7crEH8NtK2FGI1vXQRcENxyJiCkIrE_DRiKZYR3Yo-Vnsvp_hlfCYJDb-pIJz1CtUPgb9wyaHs0jaAvH7RZ8lZOZUfbdjIB3W3gnZY-0Jkw4UtmW5Pm0BnQep3iraNmiHlIopoc5xdpidyj3GQ_HozETh_yIc4bdw3lpbt_Z_3PRn4qhcgNlAr5Gny12hd5qgE-hR2nJmJU9UyhiVSMDML18UPeMrGPQXEOGgrXlzD2sCl7F040]--></g></svg>