<?xml version="1.0" encoding="us-ascii" standalone="no"?><svg xmlns="http://www.w3.org/2000/svg" xmlns:xlink="http://www.w3.org/1999/xlink" contentStyleType="text/css" height="388px" preserveAspectRatio="none" style="width:667px;height:388px;background:#FFFFFF;" version="1.1" viewBox="0 0 667 388" width="667px" zoomAndPan="magnify"><defs/><g><!--cluster bo4e--><g id="cluster_bo4e"><path d="M465.5,6 L506.5,6 A3.75,3.75 0 0 1 509,8.5 L516,28.2969 L657.5,28.2969 A2.5,2.5 0 0 1 660,30.7969 L660,378.5 A2.5,2.5 0 0 1 657.5,381 L465.5,381 A2.5,2.5 0 0 1 463,378.5 L463,8.5 A2.5,2.5 0 0 1 465.5,6 " fill="none" style="stroke:#000000;stroke-width:1.5;"/><line style="stroke:#000000;stroke-width:1.5;" x1="463" x2="516" y1="28.2969" y2="28.2969"/><text fill="#000000" font-family="sans-serif" font-size="14" font-weight="bold" lengthAdjust="spacing" textLength="40" x="467" y="20.9951">bo4e</text></g><!--cluster com--><g id="cluster_com"><path d="M489.5,49 L568.5,49 A3.75,3.75 0 0 1 571,51.5 L578,71.2969 L633.5,71.2969 A2.5,2.5 0 0 1 636,73.7969 L636,354.5 A2.5,2.5 0 0 1 633.5,357 L489.5,357 A2.5,2.5 0 0 1 487,354.5 L487,51.5 A2.5,2.5 0 0 1 489.5,49 " fill="#E0A86C" style="stroke:#000000;stroke-width:1.5;"/><line style="stroke:#000000;stroke-width:1.5;" x1="487" x2="578" y1="71.2969" y2="71.2969"/><a href="https://bo4e.github.io/BO4E-python/latest/api/bo4e.com.html" target="_top" title="https://bo4e.github.io/BO4E-python/latest/api/bo4e.com.html" xlink:actuate="onRequest" xlink:href="https://bo4e.github.io/BO4E-python/latest/api/bo4e.com.html" xlink:show="new" xlink:title="https://bo4e.github.io/BO4E-python/latest/api/bo4e.com.html" xlink:type="simple"><text fill="#0000FF" font-family="sans-serif" font-size="14" font-weight="bold" lengthAdjust="spacing" text-decoration="underline" textLength="78" x="491" y="63.9951">bo4e.com</text></a></g><!--class Betrag--><g id="elem_Betrag"><rect codeLine="12" fill="#F1F1F1" height="37.9375" id="Betrag" rx="2.5" ry="2.5" style="stroke:#181818;stroke-width:0.5;" width="115" x="504" y="84.03"/><ellipse cx="519" cy="102.9987" fill="#ADD1B2" rx="11" ry="11" style="stroke:#181818;stroke-width:1.0;"/><path d="M521.9688,108.6394 Q521.3906,108.9362 520.75,109.0769 Q520.1094,109.2331 519.4063,109.2331 Q516.9063,109.2331 515.5781,107.5925 Q514.2656,105.9362 514.2656,102.8112 Q514.2656,99.6862 515.5781,98.03 Q516.9063,96.3737 519.4063,96.3737 Q520.1094,96.3737 520.75,96.53 Q521.4063,96.6862 521.9688,96.9831 L521.9688,99.7019 Q521.3438,99.1237 520.75,98.8581 Q520.1563,98.5769 519.5313,98.5769 Q518.1875,98.5769 517.5,99.655 Q516.8125,100.7175 516.8125,102.8112 Q516.8125,104.905 517.5,105.9831 Q518.1875,107.0456 519.5313,107.0456 Q520.1563,107.0456 520.75,106.78 Q521.3438,106.4987 521.9688,105.9206 L521.9688,108.6394 Z " fill="#000000"/><a href="https://bo4e.github.io/BO4E-python/latest/api/bo4e.com.html#bo4e.com.betrag.Betrag" target="_top" title="https://bo4e.github.io/BO4E-python/latest/api/bo4e.com.html#bo4e.com.betrag.Betrag" xlink:actuate="onRequest" xlink:href="https://bo4e.github.io/BO4E-python/latest/api/bo4e.com.html#bo4e.com.betrag.Betrag" xlink:show="new" xlink:title="https://bo4e.github.io/BO4E-python/latest/api/bo4e.com.html#bo4e.com.betrag.Betrag" xlink:type="simple"><text fill="#0000FF" font-family="sans-serif" font-size="14" lengthAdjust="spacing" text-decoration="underline" textLength="46" x="551.5" y="102.0251">Betrag</text></a><text fill="#000000" font-family="sans-serif" font-size="10" lengthAdjust="spacing" textLength="83" x="533" y="114.6091">bo4e.com.betrag</text></g><!--class Preis--><g id="elem_Preis"><rect codeLine="13" fill="#F1F1F1" height="37.9375" id="Preis" rx="2.5" ry="2.5" style="stroke:#181818;stroke-width:0.5;" width="106" x="508.5" y="157.03"/><ellipse cx="523.5" cy="175.9988" fill="#ADD1B2" rx="11" ry="11" style="stroke:#181818;stroke-width:1.0;"/><path d="M526.4688,181.6394 Q525.8906,181.9363 525.25,182.0769 Q524.6094,182.2331 523.9063,182.2331 Q521.4063,182.2331 520.0781,180.5925 Q518.7656,178.9363 518.7656,175.8113 Q518.7656,172.6863 520.0781,171.03 Q521.4063,169.3738 523.9063,169.3738 Q524.6094,169.3738 525.25,169.53 Q525.9063,169.6863 526.4688,169.9831 L526.4688,172.7019 Q525.8438,172.1238 525.25,171.8581 Q524.6563,171.5769 524.0313,171.5769 Q522.6875,171.5769 522,172.655 Q521.3125,173.7175 521.3125,175.8113 Q521.3125,177.905 522,178.9831 Q522.6875,180.0456 524.0313,180.0456 Q524.6563,180.0456 525.25,179.78 Q525.8438,179.4988 526.4688,178.9206 L526.4688,181.6394 Z " fill="#000000"/><a href="https://bo4e.github.io/BO4E-python/latest/api/bo4e.com.html#bo4e.com.preis.Preis" target="_top" title="https://bo4e.github.io/BO4E-python/latest/api/bo4e.com.html#bo4e.com.preis.Preis" xlink:actuate="onRequest" xlink:href="https://bo4e.github.io/BO4E-python/latest/api/bo4e.com.html#bo4e.com.preis.Preis" xlink:show="new" xlink:title="https://bo4e.github.io/BO4E-python/latest/api/bo4e.com.html#bo4e.com.preis.Preis" xlink:type="simple"><text fill="#0000FF" font-family="sans-serif" font-size="14" lengthAdjust="spacing" text-decoration="underline" textLength="34" x="557.5" y="175.0251">Preis</text></a><text fill="#000000" font-family="sans-serif" font-size="10" lengthAdjust="spacing" textLength="74" x="537.5" y="187.6091">bo4e.com.preis</text></g><!--class Menge--><g id="elem_Menge"><rect codeLine="14" fill="#F1F1F1" height="37.9375" id="Menge" rx="2.5" ry="2.5" style="stroke:#181818;stroke-width:0.5;" width="117" x="503" y="230.03"/><ellipse cx="518" cy="248.9988" fill="#ADD1B2" rx="11" ry="11" style="stroke:#181818;stroke-width:1.0;"/><path d="M520.9688,254.6394 Q520.3906,254.9363 519.75,255.0769 Q519.1094,255.2331 518.4063,255.2331 Q515.9063,255.2331 514.5781,253.5925 Q513.2656,251.9363 513.2656,248.8113 Q513.2656,245.6863 514.5781,244.03 Q515.9063,242.3738 518.4063,242.3738 Q519.1094,242.3738 519.75,242.53 Q520.4063,242.6863 520.9688,242.9831 L520.9688,245.7019 Q520.3438,245.1238 519.75,244.8581 Q519.1563,244.5769 518.5313,244.5769 Q517.1875,244.5769 516.5,245.655 Q515.8125,246.7175 515.8125,248.8113 Q515.8125,250.905 516.5,251.9831 Q517.1875,253.0456 518.5313,253.0456 Q519.1563,253.0456 519.75,252.78 Q520.3438,252.4988 520.9688,251.9206 L520.9688,254.6394 Z " fill="#000000"/><a href="https://bo4e.github.io/BO4E-python/latest/api/bo4e.com.html#bo4e.com.menge.Menge" target="_top" title="https://bo4e.github.io/BO4E-python/latest/api/bo4e.com.html#bo4e.com.menge.Menge" xlink:actuate="onRequest" xlink:href="https://bo4e.github.io/BO4E-python/latest/api/bo4e.com.html#bo4e.com.menge.Menge" xlink:show="new" xlink:title="https://bo4e.github.io/BO4E-python/latest/api/bo4e.com.html#bo4e.com.menge.Menge" xlink:type="simple"><text fill="#0000FF" font-family="sans-serif" font-size="14" lengthAdjust="spacing" text-decoration="underline" textLength="48" x="550.5" y="248.0251">Menge</text></a><text fill="#000000" font-family="sans-serif" font-size="10" lengthAdjust="spacing" textLength="85" x="532" y="260.6091">bo4e.com.menge</text></g><!--class COM--><g id="elem_COM"><rect codeLine="15" fill="#F1F1F1" height="37.9375" id="COM" rx="2.5" ry="2.5" style="stroke:#181818;stroke-width:0.5;" width="104" x="509.5" y="303.03"/><ellipse cx="524.5" cy="321.9988" fill="#ADD1B2" rx="11" ry="11" style="stroke:#181818;stroke-width:1.0;"/><path d="M527.4688,327.6394 Q526.8906,327.9363 526.25,328.0769 Q525.6094,328.2331 524.9063,328.2331 Q522.4063,328.2331 521.0781,326.5925 Q519.7656,324.9363 519.7656,321.8113 Q519.7656,318.6863 521.0781,317.03 Q522.4063,315.3738 524.9063,315.3738 Q525.6094,315.3738 526.25,315.53 Q526.9063,315.6863 527.4688,315.9831 L527.4688,318.7019 Q526.8438,318.1238 526.25,317.8581 Q525.6563,317.5769 525.0313,317.5769 Q523.6875,317.5769 523,318.655 Q522.3125,319.7175 522.3125,321.8113 Q522.3125,323.905 523,324.9831 Q523.6875,326.0456 525.0313,326.0456 Q525.6563,326.0456 526.25,325.78 Q526.8438,325.4988 527.4688,324.9206 L527.4688,327.6394 Z " fill="#000000"/><a href="https://bo4e.github.io/BO4E-python/latest/api/bo4e.com.html#bo4e.com.com.COM" target="_top" title="https://bo4e.github.io/BO4E-python/latest/api/bo4e.com.html#bo4e.com.com.COM" xlink:actuate="onRequest" xlink:href="https://bo4e.github.io/BO4E-python/latest/api/bo4e.com.html#bo4e.com.com.COM" xlink:show="new" xlink:title="https://bo4e.github.io/BO4E-python/latest/api/bo4e.com.html#bo4e.com.com.COM" xlink:type="simple"><text fill="#0000FF" font-family="sans-serif" font-size="14" lengthAdjust="spacing" text-decoration="underline" textLength="33" x="558" y="321.0251">COM</text></a><text fill="#000000" font-family="sans-serif" font-size="10" lengthAdjust="spacing" textLength="72" x="538.5" y="333.6091">bo4e.com.com</text></g><!--class Kostenposition--><g id="elem_Kostenposition"><rect codeLine="3" fill="#F1F1F1" height="127.4219" id="Kostenposition" rx="2.5" ry="2.5" style="stroke:#181818;stroke-width:0.5;" width="272" x="7" y="153.29"/><ellipse cx="78.75" cy="172.2588" fill="#ADD1B2" rx="11" ry="11" style="stroke:#181818;stroke-width:1.0;"/><path d="M81.7188,177.8994 Q81.1406,178.1963 80.5,178.3369 Q79.8594,178.4931 79.1563,178.4931 Q76.6563,178.4931 75.3281,176.8525 Q74.0156,175.1963 74.0156,172.0713 Q74.0156,168.9463 75.3281,167.29 Q76.6563,165.6338 79.1563,165.6338 Q79.8594,165.6338 80.5,165.79 Q81.1563,165.9463 81.7188,166.2431 L81.7188,168.9619 Q81.0938,168.3838 80.5,168.1181 Q79.9063,167.8369 79.2813,167.8369 Q77.9375,167.8369 77.25,168.915 Q76.5625,169.9775 76.5625,172.0713 Q76.5625,174.165 77.25,175.2431 Q77.9375,176.3056 79.2813,176.3056 Q79.9063,176.3056 80.5,176.04 Q81.0938,175.7588 81.7188,175.1806 L81.7188,177.8994 Z " fill="#000000"/><a href="https://bo4e.github.io/BO4E-python/latest/api/bo4e.com.html#bo4e.com.kostenposition.Kostenposition" target="_top" title="https://bo4e.github.io/BO4E-python/latest/api/bo4e.com.html#bo4e.com.kostenposition.Kostenposition" xlink:actuate="onRequest" xlink:href="https://bo4e.github.io/BO4E-python/latest/api/bo4e.com.html#bo4e.com.kostenposition.Kostenposition" xlink:show="new" xlink:title="https://bo4e.github.io/BO4E-python/latest/api/bo4e.com.html#bo4e.com.kostenposition.Kostenposition" xlink:type="simple"><text fill="#0000FF" font-family="sans-serif" font-size="14" lengthAdjust="spacing" text-decoration="underline" textLength="104" x="107.25" y="171.2851">Kostenposition</text></a><text fill="#000000" font-family="sans-serif" font-size="10" lengthAdjust="spacing" textLength="120" x="99.25" y="183.8691">bo4e.com.kostenposition</text><line style="stroke:#181818;stroke-width:0.5;" x1="8" x2="278" y1="191.2275" y2="191.2275"/><text fill="#000000" font-family="sans-serif" font-size="14" lengthAdjust="spacing" textLength="216" x="13" y="208.2226">positionstitel : str [0..1] = None</text><text fill="#000000" font-family="sans-serif" font-size="14" lengthAdjust="spacing" textLength="260" x="13" y="224.5195">artikelbezeichnung : str [0..1] = None</text><text fill="#000000" font-family="sans-serif" font-size="14" lengthAdjust="spacing" textLength="240" x="13" y="240.8164">von : AwareDatetime [0..1] = None</text><text fill="#000000" font-family="sans-serif" font-size="14" lengthAdjust="spacing" textLength="235" x="13" y="257.1132">bis : AwareDatetime [0..1] = None</text><text fill="#000000" font-family="sans-serif" font-size="14" lengthAdjust="spacing" textLength="206" x="13" y="273.4101">artikeldetail : str [0..1] = None</text></g><!--link Kostenposition to COM--><g id="link_Kostenposition_COM"><path codeLine="18" d="M279.33,269.24 C289.31,272.41 299.27,275.37 309,278 C377.26,296.43 440.2483,306.5883 491.4883,313.4283 " fill="none" id="Kostenposition-to-COM" style="stroke:#181818;stroke-width:1.0;"/><polygon fill="none" points="509.33,315.81,492.2822,307.4811,490.6944,319.3756,509.33,315.81" style="stroke:#181818;stroke-width:1.0;"/></g><!--link Kostenposition to Betrag--><g id="link_Kostenposition_Betrag"><path codeLine="19" d="M279.28,172.67 C289.31,169.65 299.3,166.73 309,164 C375.28,145.34 440.6259,129.8082 491.8059,118.2282 " fill="none" id="Kostenposition-to-Betrag" style="stroke:#181818;stroke-width:1.0;"/><polygon fill="#181818" points="503.51,115.58,496.7752,113.0027,491.8059,118.2282,498.5407,120.8055,503.51,115.58" style="stroke:#181818;stroke-width:1.0;"/><text fill="#000000" font-family="sans-serif" font-size="13" lengthAdjust="spacing" textLength="136" x="310" y="126.0669">betragKostenposition</text><text fill="#000000" font-family="sans-serif" font-size="13" lengthAdjust="spacing" textLength="24" x="471.8548" y="129.8505">0..1</text></g><!--link Kostenposition to Preis--><g id="link_Kostenposition_Preis"><path codeLine="20" d="M279.23,203.69 C357.25,196.01 438.9976,187.9546 496.1376,182.3346 " fill="none" id="Kostenposition-to-Preis" style="stroke:#181818;stroke-width:1.0;"/><polygon fill="#181818" points="508.08,181.16,501.7173,177.7665,496.1376,182.3346,502.5003,185.7281,508.08,181.16" style="stroke:#181818;stroke-width:1.0;"/><text fill="#000000" font-family="sans-serif" font-size="13" lengthAdjust="spacing" textLength="68" x="344" y="185.0669">einzelpreis</text><text fill="#000000" font-family="sans-serif" font-size="13" lengthAdjust="spacing" textLength="24" x="476.5158" y="194.6985">0..1</text></g><!--link Kostenposition to Menge--><g id="link_Kostenposition_Menge"><path codeLine="21" d="M279.23,227.39 C354.88,233.2 433.2851,239.2325 490.7951,243.6425 " fill="none" id="Kostenposition-to-Menge" style="stroke:#181818;stroke-width:1.0;"/><polygon fill="#181818" points="502.76,244.56,497.0834,240.113,490.7951,243.6425,496.4717,248.0895,502.76,244.56" style="stroke:#181818;stroke-width:1.0;"/><text fill="#000000" font-family="sans-serif" font-size="13" lengthAdjust="spacing" textLength="45" x="355.5" y="227.0669">menge</text><text fill="#000000" font-family="sans-serif" font-size="13" lengthAdjust="spacing" textLength="24" x="471.0228" y="240.3284">0..1</text></g><!--link Kostenposition to Menge--><g id="link_Kostenposition_Menge"><path codeLine="22" d="M279.29,259.65 C289.28,261.78 299.25,263.61 309,265 C369.72,273.65 385.82,269.29 447,265 C465.16,263.73 472.9633,263.0357 490.7533,260.4657 " fill="none" id="Kostenposition-to-Menge-1" style="stroke:#181818;stroke-width:1.0;"/><polygon fill="#181818" points="502.63,258.75,496.1197,255.649,490.7533,260.4657,497.2636,263.5668,502.63,258.75" style="stroke:#181818;stroke-width:1.0;"/><text fill="#000000" font-family="sans-serif" font-size="13" lengthAdjust="spacing" textLength="68" x="344" y="261.0669">zeitmenge</text><text fill="#000000" font-family="sans-serif" font-size="13" lengthAdjust="spacing" textLength="24" x="470.8786" y="272.711">0..1</text></g><!--SRC=[hPHDJyCm38RFww-moWrfwP0cX2f0se0JukC-UaWxhxNM9bLZc1ZmtqdJRMYbY25wY5DBZvstjfCS5moieQ8qOvXJXGcJLfwNvD8Oy6UpZBaqOH34UemY9SwUOq4wc3wCRuRbAsTQ1RbaD1p8aXegqON8kCYFTjvI6qPLQaDrTd6xvyA-6qLFwjpG6iEJqUKF6NoGfXK6RzvW-ssO67C8mN05iv4G9n5SmBrMw0ranRJ4FCOrKfAfPvLsSoysPGYJbQpmsluVKu5j92Rp6x8vROuigLlGX-SfMQ0fPOB_h3TilIXo1TgwS7GpcfoTNjKbwhUlCN8bKp5r6pHRT_yQqibgiBwbb1MI4O-r1MUxTJZCoN1GtoeAL2cAkzg2izqg7EPKEAXl5VMwUhW3kxhFjykTRe5w0DiNSZXylznDJvtf6s6HO_3hGVQ_mCqOXD0qUp_ai1HD_q90KclCNRCE2snA7eAhxDz2x4F0JPYNqHnjYYB6odWcqojePrgGlStc4m00]--></g></svg>