<?xml version="1.0" encoding="us-ascii" standalone="no"?><svg xmlns="http://www.w3.org/2000/svg" xmlns:xlink="http://www.w3.org/1999/xlink" contentStyleType="text/css" height="282px" preserveAspectRatio="none" style="width:557px;height:282px;background:#FFFFFF;" version="1.1" viewBox="0 0 557 282" width="557px" zoomAndPan="magnify"><defs/><g><!--cluster bo4e--><g id="cluster_bo4e"><path d="M284.5,6 L325.5,6 A3.75,3.75 0 0 1 328,8.5 L335,28.2969 L547.5,28.2969 A2.5,2.5 0 0 1 550,30.7969 L550,272.5 A2.5,2.5 0 0 1 547.5,275 L284.5,275 A2.5,2.5 0 0 1 282,272.5 L282,8.5 A2.5,2.5 0 0 1 284.5,6 " fill="none" style="stroke:#000000;stroke-width:1.5;"/><line style="stroke:#000000;stroke-width:1.5;" x1="282" x2="335" y1="28.2969" y2="28.2969"/><text fill="#000000" font-family="sans-serif" font-size="14" font-weight="bold" lengthAdjust="spacing" textLength="40" x="286" y="20.9951">bo4e</text></g><!--cluster com--><g id="cluster_com"><path d="M350.5,49 L429.5,49 A3.75,3.75 0 0 1 432,51.5 L439,71.2969 L481.5,71.2969 A2.5,2.5 0 0 1 484,73.7969 L484,135.5 A2.5,2.5 0 0 1 481.5,138 L350.5,138 A2.5,2.5 0 0 1 348,135.5 L348,51.5 A2.5,2.5 0 0 1 350.5,49 " fill="#E0A86C" style="stroke:#000000;stroke-width:1.5;"/><line style="stroke:#000000;stroke-width:1.5;" x1="348" x2="439" y1="71.2969" y2="71.2969"/><a href="https://bo4e-python.readthedocs.io/en/v0.0.0/api/bo4e.com.html" target="_top" title="https://bo4e-python.readthedocs.io/en/v0.0.0/api/bo4e.com.html" xlink:actuate="onRequest" xlink:href="https://bo4e-python.readthedocs.io/en/v0.0.0/api/bo4e.com.html" xlink:show="new" xlink:title="https://bo4e-python.readthedocs.io/en/v0.0.0/api/bo4e.com.html" xlink:type="simple"><text fill="#0000FF" font-family="sans-serif" font-size="14" font-weight="bold" lengthAdjust="spacing" text-decoration="underline" textLength="78" x="352" y="63.9951">bo4e.com</text></a></g><!--cluster enum--><g id="cluster_enum"><path d="M308.5,162 L398.5,162 A3.75,3.75 0 0 1 401,164.5 L408,184.2969 L523.5,184.2969 A2.5,2.5 0 0 1 526,186.7969 L526,248.5 A2.5,2.5 0 0 1 523.5,251 L308.5,251 A2.5,2.5 0 0 1 306,248.5 L306,164.5 A2.5,2.5 0 0 1 308.5,162 " fill="#D1C358" style="stroke:#000000;stroke-width:1.5;"/><line style="stroke:#000000;stroke-width:1.5;" x1="306" x2="408" y1="184.2969" y2="184.2969"/><a href="https://bo4e-python.readthedocs.io/en/v0.0.0/api/bo4e.enum.html" target="_top" title="https://bo4e-python.readthedocs.io/en/v0.0.0/api/bo4e.enum.html" xlink:actuate="onRequest" xlink:href="https://bo4e-python.readthedocs.io/en/v0.0.0/api/bo4e.enum.html" xlink:show="new" xlink:title="https://bo4e-python.readthedocs.io/en/v0.0.0/api/bo4e.enum.html" xlink:type="simple"><text fill="#0000FF" font-family="sans-serif" font-size="14" font-weight="bold" lengthAdjust="spacing" text-decoration="underline" textLength="89" x="310" y="176.9951">bo4e.enum</text></a></g><!--class COM--><g id="elem_COM"><rect codeLine="8" fill="#F1F1F1" height="37.9375" id="COM" rx="2.5" ry="2.5" style="stroke:#181818;stroke-width:0.5;" width="104" x="364" y="84.03"/><ellipse cx="379" cy="102.9988" fill="#ADD1B2" rx="11" ry="11" style="stroke:#181818;stroke-width:1.0;"/><path d="M381.9688,108.6394 Q381.3906,108.9363 380.75,109.0769 Q380.1094,109.2331 379.4063,109.2331 Q376.9063,109.2331 375.5781,107.5925 Q374.2656,105.9363 374.2656,102.8113 Q374.2656,99.6863 375.5781,98.03 Q376.9063,96.3738 379.4063,96.3738 Q380.1094,96.3738 380.75,96.53 Q381.4063,96.6863 381.9688,96.9831 L381.9688,99.7019 Q381.3438,99.1238 380.75,98.8581 Q380.1563,98.5769 379.5313,98.5769 Q378.1875,98.5769 377.5,99.655 Q376.8125,100.7175 376.8125,102.8113 Q376.8125,104.905 377.5,105.9831 Q378.1875,107.0456 379.5313,107.0456 Q380.1563,107.0456 380.75,106.78 Q381.3438,106.4988 381.9688,105.9206 L381.9688,108.6394 Z " fill="#000000"/><a href="https://bo4e-python.readthedocs.io/en/v0.0.0/api/bo4e.com.html#bo4e.com.com.COM" target="_top" title="https://bo4e-python.readthedocs.io/en/v0.0.0/api/bo4e.com.html#bo4e.com.com.COM" xlink:actuate="onRequest" xlink:href="https://bo4e-python.readthedocs.io/en/v0.0.0/api/bo4e.com.html#bo4e.com.com.COM" xlink:show="new" xlink:title="https://bo4e-python.readthedocs.io/en/v0.0.0/api/bo4e.com.html#bo4e.com.com.COM" xlink:type="simple"><text fill="#0000FF" font-family="sans-serif" font-size="14" lengthAdjust="spacing" text-decoration="underline" textLength="33" x="412.5" y="102.0251">COM</text></a><text fill="#000000" font-family="sans-serif" font-size="10" lengthAdjust="spacing" textLength="72" x="393" y="114.6091">bo4e.com.com</text></g><!--class Tarifregionskriterium--><g id="elem_Tarifregionskriterium"><rect codeLine="11" fill="#F1F1F1" height="37.9375" id="Tarifregionskriterium" rx="2.5" ry="2.5" style="stroke:#181818;stroke-width:0.5;" width="188" x="322" y="197.03"/><ellipse cx="337" cy="215.9988" fill="#ADD1B2" rx="11" ry="11" style="stroke:#181818;stroke-width:1.0;"/><path d="M339.9688,221.6394 Q339.3906,221.9363 338.75,222.0769 Q338.1094,222.2331 337.4063,222.2331 Q334.9063,222.2331 333.5781,220.5925 Q332.2656,218.9363 332.2656,215.8113 Q332.2656,212.6863 333.5781,211.03 Q334.9063,209.3738 337.4063,209.3738 Q338.1094,209.3738 338.75,209.53 Q339.4063,209.6863 339.9688,209.9831 L339.9688,212.7019 Q339.3438,212.1238 338.75,211.8581 Q338.1563,211.5769 337.5313,211.5769 Q336.1875,211.5769 335.5,212.655 Q334.8125,213.7175 334.8125,215.8113 Q334.8125,217.905 335.5,218.9831 Q336.1875,220.0456 337.5313,220.0456 Q338.1563,220.0456 338.75,219.78 Q339.3438,219.4988 339.9688,218.9206 L339.9688,221.6394 Z " fill="#000000"/><a href="https://bo4e-python.readthedocs.io/en/v0.0.0/api/bo4e.enum.html#bo4e.enum.tarifregionskriterium.Tarifregionskriterium" target="_top" title="https://bo4e-python.readthedocs.io/en/v0.0.0/api/bo4e.enum.html#bo4e.enum.tarifregionskriterium.Tarifregionskriterium" xlink:actuate="onRequest" xlink:href="https://bo4e-python.readthedocs.io/en/v0.0.0/api/bo4e.enum.html#bo4e.enum.tarifregionskriterium.Tarifregionskriterium" xlink:show="new" xlink:title="https://bo4e-python.readthedocs.io/en/v0.0.0/api/bo4e.enum.html#bo4e.enum.tarifregionskriterium.Tarifregionskriterium" xlink:type="simple"><text fill="#0000FF" font-family="sans-serif" font-size="14" lengthAdjust="spacing" text-decoration="underline" textLength="141" x="358.5" y="215.0251">Tarifregionskriterium</text></a><text fill="#000000" font-family="sans-serif" font-size="10" lengthAdjust="spacing" textLength="156" x="351" y="227.6091">bo4e.enum.tarifregionskriterium</text></g><!--class KriteriumWert--><g id="elem_KriteriumWert"><rect codeLine="3" fill="#F1F1F1" height="62.2344" id="KriteriumWert" rx="2.5" ry="2.5" style="stroke:#181818;stroke-width:0.5;" width="170" x="7" y="128.88"/><ellipse cx="31.9" cy="147.8488" fill="#ADD1B2" rx="11" ry="11" style="stroke:#181818;stroke-width:1.0;"/><path d="M34.8688,153.4894 Q34.2906,153.7863 33.65,153.9269 Q33.0094,154.0831 32.3063,154.0831 Q29.8063,154.0831 28.4781,152.4425 Q27.1656,150.7863 27.1656,147.6613 Q27.1656,144.5363 28.4781,142.88 Q29.8063,141.2238 32.3063,141.2238 Q33.0094,141.2238 33.65,141.38 Q34.3063,141.5363 34.8688,141.8331 L34.8688,144.5519 Q34.2438,143.9738 33.65,143.7081 Q33.0563,143.4269 32.4313,143.4269 Q31.0875,143.4269 30.4,144.505 Q29.7125,145.5675 29.7125,147.6613 Q29.7125,149.755 30.4,150.8331 Q31.0875,151.8956 32.4313,151.8956 Q33.0563,151.8956 33.65,151.63 Q34.2438,151.3488 34.8688,150.7706 L34.8688,153.4894 Z " fill="#000000"/><a href="https://bo4e-python.readthedocs.io/en/v0.0.0/api/bo4e.com.html#bo4e.com.kriteriumwert.KriteriumWert" target="_top" title="https://bo4e-python.readthedocs.io/en/v0.0.0/api/bo4e.com.html#bo4e.com.kriteriumwert.KriteriumWert" xlink:actuate="onRequest" xlink:href="https://bo4e-python.readthedocs.io/en/v0.0.0/api/bo4e.com.html#bo4e.com.kriteriumwert.KriteriumWert" xlink:show="new" xlink:title="https://bo4e-python.readthedocs.io/en/v0.0.0/api/bo4e.com.html#bo4e.com.kriteriumwert.KriteriumWert" xlink:type="simple"><text fill="#0000FF" font-family="sans-serif" font-size="14" lengthAdjust="spacing" text-decoration="underline" textLength="93" x="59.6" y="146.8751">KriteriumWert</text></a><text fill="#000000" font-family="sans-serif" font-size="10" lengthAdjust="spacing" textLength="116" x="48.1" y="159.4591">bo4e.com.kriteriumwert</text><line style="stroke:#181818;stroke-width:0.5;" x1="8" x2="176" y1="166.8175" y2="166.8175"/><text fill="#000000" font-family="sans-serif" font-size="14" lengthAdjust="spacing" textLength="158" x="13" y="183.8126">wert : str [0..1] = None</text></g><!--link KriteriumWert to COM--><g id="link_KriteriumWert_COM"><path codeLine="14" d="M177.18,145.1 C236.44,134.61 296.1058,124.049 346.2458,115.169 " fill="none" id="KriteriumWert-to-COM" style="stroke:#181818;stroke-width:1.0;"/><polygon fill="none" points="363.97,112.03,345.1995,109.261,347.2922,121.0771,363.97,112.03" style="stroke:#181818;stroke-width:1.0;"/></g><!--link KriteriumWert to Tarifregionskriterium--><g id="link_KriteriumWert_Tarifregionskriterium"><path codeLine="15" d="M177.18,174.64 C221.53,182.35 264.2176,189.7728 309.8476,197.7128 " fill="none" id="KriteriumWert-to-Tarifregionskriterium" style="stroke:#181818;stroke-width:1.0;"/><polygon fill="#181818" points="321.67,199.77,316.4446,194.8006,309.8476,197.7128,315.0731,202.6822,321.67,199.77" style="stroke:#181818;stroke-width:1.0;"/><text fill="#000000" font-family="sans-serif" font-size="13" lengthAdjust="spacing" textLength="57" x="208" y="178.0669">kriterium</text><text fill="#000000" font-family="sans-serif" font-size="13" lengthAdjust="spacing" textLength="24" x="289.8614" y="211.2008">0..1</text></g><!--SRC=[hP9BQyCm3CVFywSGoMrG9sKFIjWAe-mqjbq6EtGvk8bQcoLsiDMLlRxxx43JLtfQCJhyR5dINrA5Sm8oODL24fJAOa7AQCQAIZW7qNGgYHgN9SdCNEAW-IHfDBSeIf9Oci9nPHBKoKVA_Kb4erf7NfYQIwghkADtgmYjMjOhjCGVrlJg2NOepz_qZLDVc0tJSV_t28JR_GJVx2oyG0QEB4nJpeSvtCAJqSX-6TEYHjU80lyl2TQKvsqTQuJuFhqRNKz2AIVlNh39yoDuw- -FjxOQx-3rda0kwkMste3RWWD3N0wBYwlH2HHtsU8Dah1gRd7Xzz5ru-SlVRVGUtlOgUDnMsMzKSBwxEthOF0pxkOUvhBlu3tE8GfB66tQTQJq33Qfc5GbGetr3ArZJfeLx4MUAwnAzmS0]--></g></svg>