<svg xmlns="http://www.w3.org/2000/svg" xmlns:xlink="http://www.w3.org/1999/xlink" contentStyleType="text/css" data-diagram-type="CLASS" height="169px" preserveAspectRatio="none" style="width:940px;height:169px;background:#FFFFFF;" version="1.1" viewBox="0 0 940 169" width="940px" zoomAndPan="magnify"><defs/><g><!--cluster bo4e--><g class="cluster" data-entity="bo4e" data-source-line="10" data-uid="ent0005" id="cluster_bo4e"><path d="M750.11,6 L789.986,6 A3.75,3.75 0 0 1 792.486,8.5 L799.486,28.2969 L931.16,28.2969 A2.5,2.5 0 0 1 933.66,30.7969 L933.66,159.5 A2.5,2.5 0 0 1 931.16,162 L750.11,162 A2.5,2.5 0 0 1 747.61,159.5 L747.61,8.5 A2.5,2.5 0 0 1 750.11,6" fill="none" style="stroke:#000000;stroke-width:1.5;"/><line style="stroke:#000000;stroke-width:1.5;" x1="747.61" x2="799.486" y1="28.2969" y2="28.2969"/><text fill="#000000" font-family="sans-serif" font-size="14" font-weight="bold" lengthAdjust="spacing" textLength="38.876" x="751.61" y="20.9951">bo4e</text></g><!--cluster com--><g class="cluster" data-entity="com" data-source-line="9" data-uid="ent0003" id="cluster_com"><path d="M774.11,49 L851.8092,49 A3.75,3.75 0 0 1 854.3092,51.5 L861.3092,71.2969 L907.16,71.2969 A2.5,2.5 0 0 1 909.66,73.7969 L909.66,135.5 A2.5,2.5 0 0 1 907.16,138 L774.11,138 A2.5,2.5 0 0 1 771.61,135.5 L771.61,51.5 A2.5,2.5 0 0 1 774.11,49" fill="#E0A86C" style="stroke:#000000;stroke-width:1.5;"/><line style="stroke:#000000;stroke-width:1.5;" x1="771.61" x2="861.3092" y1="71.2969" y2="71.2969"/><a href="file:////home/runner/work/BO4E-python/BO4E-python/docs/../.tox/docs/tmp/html/api/bo4e.com.html" target="_top" title="file:////home/runner/work/BO4E-python/BO4E-python/docs/../.tox/docs/tmp/html/api/bo4e.com.html" xlink:actuate="onRequest" xlink:href="file:////home/runner/work/BO4E-python/BO4E-python/docs/../.tox/docs/tmp/html/api/bo4e.com.html" xlink:show="new" xlink:title="file:////home/runner/work/BO4E-python/BO4E-python/docs/../.tox/docs/tmp/html/api/bo4e.com.html" xlink:type="simple"><text fill="#0000FF" font-family="sans-serif" font-size="14" font-weight="bold" lengthAdjust="spacing" text-decoration="underline" textLength="76.6992" x="775.61" y="63.9951">bo4e.com</text></a></g><!--class COM--><g class="entity" data-entity="COM" data-source-line="10" data-uid="ent0004" id="entity_COM"><rect fill="#F1F1F1" height="37.9375" rx="2.5" ry="2.5" style="stroke:#181818;stroke-width:0.5;" width="106.0527" x="787.61" y="84.03"/><ellipse cx="802.61" cy="102.9988" fill="#ADD1B2" rx="11" ry="11" style="stroke:#181818;stroke-width:1;"/><path d="M805.5788,108.6394 Q805.0006,108.9363 804.36,109.0769 Q803.7194,109.2331 803.0163,109.2331 Q800.5163,109.2331 799.1881,107.5925 Q797.8756,105.9363 797.8756,102.8113 Q797.8756,99.6863 799.1881,98.03 Q800.5163,96.3738 803.0163,96.3738 Q803.7194,96.3738 804.36,96.53 Q805.0163,96.6863 805.5788,96.9831 L805.5788,99.7019 Q804.9538,99.1238 804.36,98.8581 Q803.7663,98.5769 803.1413,98.5769 Q801.7975,98.5769 801.11,99.655 Q800.4225,100.7175 800.4225,102.8113 Q800.4225,104.905 801.11,105.9831 Q801.7975,107.0456 803.1413,107.0456 Q803.7663,107.0456 804.36,106.78 Q804.9538,106.4988 805.5788,105.9206 L805.5788,108.6394 Z " fill="#000000"/><a href="file:////home/runner/work/BO4E-python/BO4E-python/docs/../.tox/docs/tmp/html/api/bo4e.com.html#bo4e.com.com.COM" target="_top" title="file:////home/runner/work/BO4E-python/BO4E-python/docs/../.tox/docs/tmp/html/api/bo4e.com.html#bo4e.com.com.COM" xlink:actuate="onRequest" xlink:href="file:////home/runner/work/BO4E-python/BO4E-python/docs/../.tox/docs/tmp/html/api/bo4e.com.html#bo4e.com.com.COM" xlink:show="new" xlink:title="file:////home/runner/work/BO4E-python/BO4E-python/docs/../.tox/docs/tmp/html/api/bo4e.com.html#bo4e.com.com.COM" xlink:type="simple"><text fill="#0000FF" font-family="sans-serif" font-size="14" lengthAdjust="spacing" text-decoration="underline" textLength="32.874" x="837.1994" y="102.0251">COM</text></a><text fill="#000000" font-family="sans-serif" font-size="10" lengthAdjust="spacing" textLength="74.0527" x="816.61" y="114.6091">bo4e.com.com</text></g><!--class MarktgebietInfo--><g class="entity" data-entity="MarktgebietInfo" data-source-line="3" data-uid="ent0002" id="entity_MarktgebietInfo"><rect fill="#F1F1F1" height="94.8281" rx="2.5" ry="2.5" style="stroke:#181818;stroke-width:0.5;" width="720.6064" x="7" y="55.59"/><ellipse cx="296.6323" cy="74.5588" fill="#ADD1B2" rx="11" ry="11" style="stroke:#181818;stroke-width:1;"/><path d="M299.6011,80.1994 Q299.0229,80.4963 298.3823,80.6369 Q297.7417,80.7931 297.0386,80.7931 Q294.5386,80.7931 293.2104,79.1525 Q291.8979,77.4963 291.8979,74.3713 Q291.8979,71.2463 293.2104,69.59 Q294.5386,67.9338 297.0386,67.9338 Q297.7417,67.9338 298.3823,68.09 Q299.0386,68.2463 299.6011,68.5431 L299.6011,71.2619 Q298.9761,70.6838 298.3823,70.4181 Q297.7886,70.1369 297.1636,70.1369 Q295.8198,70.1369 295.1323,71.215 Q294.4448,72.2775 294.4448,74.3713 Q294.4448,76.465 295.1323,77.5431 Q295.8198,78.6056 297.1636,78.6056 Q297.7886,78.6056 298.3823,78.34 Q298.9761,78.0588 299.6011,77.4806 L299.6011,80.1994 Z " fill="#000000"/><a href="file:////home/runner/work/BO4E-python/BO4E-python/docs/../.tox/docs/tmp/html/api/bo4e.com.html#bo4e.com.marktgebietinfo.MarktgebietInfo" target="_top" title="file:////home/runner/work/BO4E-python/BO4E-python/docs/../.tox/docs/tmp/html/api/bo4e.com.html#bo4e.com.marktgebietinfo.MarktgebietInfo" xlink:actuate="onRequest" xlink:href="file:////home/runner/work/BO4E-python/BO4E-python/docs/../.tox/docs/tmp/html/api/bo4e.com.html#bo4e.com.marktgebietinfo.MarktgebietInfo" xlink:show="new" xlink:title="file:////home/runner/work/BO4E-python/BO4E-python/docs/../.tox/docs/tmp/html/api/bo4e.com.html#bo4e.com.marktgebietinfo.MarktgebietInfo" xlink:type="simple"><text fill="#0000FF" font-family="sans-serif" font-size="14" lengthAdjust="spacing" text-decoration="underline" textLength="110.8857" x="328.1104" y="73.5851">MarktgebietInfo</text></a><text fill="#000000" font-family="sans-serif" font-size="10" lengthAdjust="spacing" textLength="132.8418" x="317.1323" y="86.1691">bo4e.com.marktgebietinfo</text><line style="stroke:#181818;stroke-width:0.5;" x1="8" x2="726.6064" y1="93.5275" y2="93.5275"/><text fill="#000000" font-family="sans-serif" font-size="14" lengthAdjust="spacing" textLength="708.6064" x="13" y="110.5226">_typ : Literal[&lt;ComTyp.MARKTGEBIETINFO: 'MARKTGEBIETINFO'&gt;] [1] = ComTyp.MARKTGEBIETINFO</text><text fill="#000000" font-family="sans-serif" font-size="14" lengthAdjust="spacing" textLength="217.3486" x="13" y="126.8195">marktgebiet : str [0..1] = None</text><text fill="#000000" font-family="sans-serif" font-size="14" lengthAdjust="spacing" textLength="251.1113" x="13" y="143.1164">marktgebietcode : str [0..1] = None</text></g><!--link MarktgebietInfo to COM--><g class="link" data-entity-1="MarktgebietInfo" data-entity-2="COM" data-source-line="13" data-uid="lnk6" id="link_MarktgebietInfo_COM"><path codeLine="13" d="M727.93,103 C750.11,103 752.24,103 769.11,103" fill="none" id="MarktgebietInfo-to-COM" style="stroke:#181818;stroke-width:1;"/><polygon fill="none" points="787.11,103,769.11,97,769.11,109,787.11,103" style="stroke:#181818;stroke-width:1;"/></g><!--SRC=[lL9DQm8n43sRNp7emPE9WfIoM45bMwHLeNZRBYNkphh1JR8aATP-_FTc5MtzwB4DFCWRvaqcRwR0p87JOCGoTv0AWuaJMX6I5DnQg4TH9WeCc3-vbiZCYr9es5gR5HlEkc6htBXSgwDxgXFBA6NKwTSTSR9akPC5uwLW2zr5ccX9gqZZm2GtAxV4XK0dLARfv9kFFOSJ7iTFgcV56mQTTl-t8dNWzbG8xwJsx3Ob1F0W71fUHBsHblDDIIU3n_lvNJWSX_Fnz7OMGFCaqkp747LYk87B2bBxqO1_m3e3KPlIhMIg5Hub93h5YqcVX2WkqPOymRyV0UnP76_zsbDeXEt1zTMeCkpVjw72Q3O1ZykJzjXswnCglyxMfTNww1- -KfKY91VURuboWSOIc-irdAaoWKLglm00]--></g></svg>