<svg xmlns="http://www.w3.org/2000/svg" xmlns:xlink="http://www.w3.org/1999/xlink" contentStyleType="text/css" data-diagram-type="CLASS" height="428px" preserveAspectRatio="none" style="width:1048px;height:428px;background:#FFFFFF;" version="1.1" viewBox="0 0 1048 428" width="1048px" zoomAndPan="magnify"><defs/><g><!--cluster bo4e--><g class="cluster" data-entity="bo4e" data-source-line="9" data-uid="ent0005" id="cluster_bo4e"><path d="M760.26,6 L800.136,6 A3.75,3.75 0 0 1 802.636,8.5 L809.636,28.2969 L1038.67,28.2969 A2.5,2.5 0 0 1 1041.17,30.7969 L1041.17,418.5 A2.5,2.5 0 0 1 1038.67,421 L760.26,421 A2.5,2.5 0 0 1 757.76,418.5 L757.76,8.5 A2.5,2.5 0 0 1 760.26,6" fill="none" style="stroke:#000000;stroke-width:1.5;"/><line style="stroke:#000000;stroke-width:1.5;" x1="757.76" x2="809.636" y1="28.2969" y2="28.2969"/><text fill="#000000" font-family="sans-serif" font-size="14" font-weight="bold" lengthAdjust="spacing" textLength="38.876" x="761.76" y="20.9951">bo4e</text></g><!--cluster com--><g class="cluster" data-entity="com" data-source-line="8" data-uid="ent0003" id="cluster_com"><path d="M826.25,49 L903.9492,49 A3.75,3.75 0 0 1 906.4492,51.5 L913.4492,71.2969 L972.68,71.2969 A2.5,2.5 0 0 1 975.18,73.7969 L975.18,208.5 A2.5,2.5 0 0 1 972.68,211 L826.25,211 A2.5,2.5 0 0 1 823.75,208.5 L823.75,51.5 A2.5,2.5 0 0 1 826.25,49" fill="#E0A86C" style="stroke:#000000;stroke-width:1.5;"/><line style="stroke:#000000;stroke-width:1.5;" x1="823.75" x2="913.4492" y1="71.2969" y2="71.2969"/><a href="file:////home/runner/work/BO4E-python/BO4E-python/docs/../.tox/docs/tmp/html/api/bo4e.com.html" target="_top" title="file:////home/runner/work/BO4E-python/BO4E-python/docs/../.tox/docs/tmp/html/api/bo4e.com.html" xlink:actuate="onRequest" xlink:href="file:////home/runner/work/BO4E-python/BO4E-python/docs/../.tox/docs/tmp/html/api/bo4e.com.html" xlink:show="new" xlink:title="file:////home/runner/work/BO4E-python/BO4E-python/docs/../.tox/docs/tmp/html/api/bo4e.com.html" xlink:type="simple"><text fill="#0000FF" font-family="sans-serif" font-size="14" font-weight="bold" lengthAdjust="spacing" text-decoration="underline" textLength="76.6992" x="827.75" y="63.9951">bo4e.com</text></a></g><!--cluster enum--><g class="cluster" data-entity="enum" data-source-line="12" data-uid="ent0007" id="cluster_enum"><path d="M784.26,235 L873.4709,235 A3.75,3.75 0 0 1 875.9709,237.5 L882.9709,257.2969 L1014.67,257.2969 A2.5,2.5 0 0 1 1017.17,259.7969 L1017.17,394.5 A2.5,2.5 0 0 1 1014.67,397 L784.26,397 A2.5,2.5 0 0 1 781.76,394.5 L781.76,237.5 A2.5,2.5 0 0 1 784.26,235" fill="#D1C358" style="stroke:#000000;stroke-width:1.5;"/><line style="stroke:#000000;stroke-width:1.5;" x1="781.76" x2="882.9709" y1="257.2969" y2="257.2969"/><a href="file:////home/runner/work/BO4E-python/BO4E-python/docs/../.tox/docs/tmp/html/api/bo4e.enum.html" target="_top" title="file:////home/runner/work/BO4E-python/BO4E-python/docs/../.tox/docs/tmp/html/api/bo4e.enum.html" xlink:actuate="onRequest" xlink:href="file:////home/runner/work/BO4E-python/BO4E-python/docs/../.tox/docs/tmp/html/api/bo4e.enum.html" xlink:show="new" xlink:title="file:////home/runner/work/BO4E-python/BO4E-python/docs/../.tox/docs/tmp/html/api/bo4e.enum.html" xlink:type="simple"><text fill="#0000FF" font-family="sans-serif" font-size="14" font-weight="bold" lengthAdjust="spacing" text-decoration="underline" textLength="88.2109" x="785.76" y="249.9951">bo4e.enum</text></a></g><!--class COM--><g class="entity" data-entity="COM" data-source-line="9" data-uid="ent0004" id="entity_COM"><rect fill="#F1F1F1" height="37.9375" rx="2.5" ry="2.5" style="stroke:#181818;stroke-width:0.5;" width="106.0527" x="846.44" y="84.03"/><ellipse cx="861.44" cy="102.9987" fill="#ADD1B2" rx="11" ry="11" style="stroke:#181818;stroke-width:1;"/><path d="M864.4088,108.6394 Q863.8306,108.9362 863.19,109.0769 Q862.5494,109.2331 861.8463,109.2331 Q859.3463,109.2331 858.0181,107.5925 Q856.7056,105.9362 856.7056,102.8112 Q856.7056,99.6862 858.0181,98.03 Q859.3463,96.3737 861.8463,96.3737 Q862.5494,96.3737 863.19,96.53 Q863.8463,96.6862 864.4088,96.9831 L864.4088,99.7019 Q863.7838,99.1237 863.19,98.8581 Q862.5963,98.5769 861.9713,98.5769 Q860.6275,98.5769 859.94,99.655 Q859.2525,100.7175 859.2525,102.8112 Q859.2525,104.905 859.94,105.9831 Q860.6275,107.0456 861.9713,107.0456 Q862.5963,107.0456 863.19,106.78 Q863.7838,106.4987 864.4088,105.9206 L864.4088,108.6394 Z " fill="#000000"/><a href="file:////home/runner/work/BO4E-python/BO4E-python/docs/../.tox/docs/tmp/html/api/bo4e.com.html#bo4e.com.com.COM" target="_top" title="file:////home/runner/work/BO4E-python/BO4E-python/docs/../.tox/docs/tmp/html/api/bo4e.com.html#bo4e.com.com.COM" xlink:actuate="onRequest" xlink:href="file:////home/runner/work/BO4E-python/BO4E-python/docs/../.tox/docs/tmp/html/api/bo4e.com.html#bo4e.com.com.COM" xlink:show="new" xlink:title="file:////home/runner/work/BO4E-python/BO4E-python/docs/../.tox/docs/tmp/html/api/bo4e.com.html#bo4e.com.com.COM" xlink:type="simple"><text fill="#0000FF" font-family="sans-serif" font-size="14" lengthAdjust="spacing" text-decoration="underline" textLength="32.874" x="896.0294" y="102.0251">COM</text></a><text fill="#000000" font-family="sans-serif" font-size="10" lengthAdjust="spacing" textLength="74.0527" x="875.44" y="114.6091">bo4e.com.com</text></g><!--class Menge--><g class="entity" data-entity="Menge" data-source-line="10" data-uid="ent0006" id="entity_Menge"><rect fill="#F1F1F1" height="37.9375" rx="2.5" ry="2.5" style="stroke:#181818;stroke-width:0.5;" width="119.4268" x="839.75" y="157.03"/><ellipse cx="854.75" cy="175.9987" fill="#ADD1B2" rx="11" ry="11" style="stroke:#181818;stroke-width:1;"/><path d="M857.7188,181.6394 Q857.1406,181.9362 856.5,182.0769 Q855.8594,182.2331 855.1563,182.2331 Q852.6563,182.2331 851.3281,180.5925 Q850.0156,178.9362 850.0156,175.8112 Q850.0156,172.6862 851.3281,171.03 Q852.6563,169.3737 855.1563,169.3737 Q855.8594,169.3737 856.5,169.53 Q857.1563,169.6862 857.7188,169.9831 L857.7188,172.7019 Q857.0938,172.1237 856.5,171.8581 Q855.9063,171.5769 855.2813,171.5769 Q853.9375,171.5769 853.25,172.655 Q852.5625,173.7175 852.5625,175.8112 Q852.5625,177.905 853.25,178.9831 Q853.9375,180.0456 855.2813,180.0456 Q855.9063,180.0456 856.5,179.78 Q857.0938,179.4987 857.7188,178.9206 L857.7188,181.6394 Z " fill="#000000"/><a href="file:////home/runner/work/BO4E-python/BO4E-python/docs/../.tox/docs/tmp/html/api/bo4e.com.html#bo4e.com.menge.Menge" target="_top" title="file:////home/runner/work/BO4E-python/BO4E-python/docs/../.tox/docs/tmp/html/api/bo4e.com.html#bo4e.com.menge.Menge" xlink:actuate="onRequest" xlink:href="file:////home/runner/work/BO4E-python/BO4E-python/docs/../.tox/docs/tmp/html/api/bo4e.com.html#bo4e.com.menge.Menge" xlink:show="new" xlink:title="file:////home/runner/work/BO4E-python/BO4E-python/docs/../.tox/docs/tmp/html/api/bo4e.com.html#bo4e.com.menge.Menge" xlink:type="simple"><text fill="#0000FF" font-family="sans-serif" font-size="14" lengthAdjust="spacing" text-decoration="underline" textLength="47.0654" x="888.9307" y="175.0251">Menge</text></a><text fill="#000000" font-family="sans-serif" font-size="10" lengthAdjust="spacing" textLength="87.4268" x="868.75" y="187.6091">bo4e.com.menge</text></g><!--class Messwertstatuszusatz--><g class="entity" data-entity="Messwertstatuszusatz" data-source-line="13" data-uid="ent0008" id="entity_Messwertstatuszusatz"><rect fill="#F1F1F1" height="37.9375" rx="2.5" ry="2.5" style="stroke:#181818;stroke-width:0.5;" width="203.4063" x="797.76" y="270.03"/><ellipse cx="812.76" cy="288.9988" fill="#ADD1B2" rx="11" ry="11" style="stroke:#181818;stroke-width:1;"/><path d="M815.7288,294.6394 Q815.1506,294.9363 814.51,295.0769 Q813.8694,295.2331 813.1663,295.2331 Q810.6663,295.2331 809.3381,293.5925 Q808.0256,291.9363 808.0256,288.8113 Q808.0256,285.6863 809.3381,284.03 Q810.6663,282.3738 813.1663,282.3738 Q813.8694,282.3738 814.51,282.53 Q815.1663,282.6863 815.7288,282.9831 L815.7288,285.7019 Q815.1038,285.1238 814.51,284.8581 Q813.9163,284.5769 813.2913,284.5769 Q811.9475,284.5769 811.26,285.655 Q810.5725,286.7175 810.5725,288.8113 Q810.5725,290.905 811.26,291.9831 Q811.9475,293.0456 813.2913,293.0456 Q813.9163,293.0456 814.51,292.78 Q815.1038,292.4988 815.7288,291.9206 L815.7288,294.6394 Z " fill="#000000"/><a href="file:////home/runner/work/BO4E-python/BO4E-python/docs/../.tox/docs/tmp/html/api/bo4e.enum.html#bo4e.enum.messwertstatuszusatz.Messwertstatuszusatz" target="_top" title="file:////home/runner/work/BO4E-python/BO4E-python/docs/../.tox/docs/tmp/html/api/bo4e.enum.html#bo4e.enum.messwertstatuszusatz.Messwertstatuszusatz" xlink:actuate="onRequest" xlink:href="file:////home/runner/work/BO4E-python/BO4E-python/docs/../.tox/docs/tmp/html/api/bo4e.enum.html#bo4e.enum.messwertstatuszusatz.Messwertstatuszusatz" xlink:show="new" xlink:title="file:////home/runner/work/BO4E-python/BO4E-python/docs/../.tox/docs/tmp/html/api/bo4e.enum.html#bo4e.enum.messwertstatuszusatz.Messwertstatuszusatz" xlink:type="simple"><text fill="#0000FF" font-family="sans-serif" font-size="14" lengthAdjust="spacing" text-decoration="underline" textLength="154.54" x="835.1931" y="288.0251">Messwertstatuszusatz</text></a><text fill="#000000" font-family="sans-serif" font-size="10" lengthAdjust="spacing" textLength="171.4063" x="826.76" y="300.6091">bo4e.enum.messwertstatuszusatz</text></g><!--class Messwertstatus--><g class="entity" data-entity="Messwertstatus" data-source-line="14" data-uid="ent0009" id="entity_Messwertstatus"><rect fill="#F1F1F1" height="37.9375" rx="2.5" ry="2.5" style="stroke:#181818;stroke-width:0.5;" width="171.3115" x="813.81" y="343.03"/><ellipse cx="828.81" cy="361.9988" fill="#ADD1B2" rx="11" ry="11" style="stroke:#181818;stroke-width:1;"/><path d="M831.7788,367.6394 Q831.2006,367.9363 830.56,368.0769 Q829.9194,368.2331 829.2163,368.2331 Q826.7163,368.2331 825.3881,366.5925 Q824.0756,364.9363 824.0756,361.8113 Q824.0756,358.6863 825.3881,357.03 Q826.7163,355.3738 829.2163,355.3738 Q829.9194,355.3738 830.56,355.53 Q831.2163,355.6863 831.7788,355.9831 L831.7788,358.7019 Q831.1538,358.1238 830.56,357.8581 Q829.9663,357.5769 829.3413,357.5769 Q827.9975,357.5769 827.31,358.655 Q826.6225,359.7175 826.6225,361.8113 Q826.6225,363.905 827.31,364.9831 Q827.9975,366.0456 829.3413,366.0456 Q829.9663,366.0456 830.56,365.78 Q831.1538,365.4988 831.7788,364.9206 L831.7788,367.6394 Z " fill="#000000"/><a href="file:////home/runner/work/BO4E-python/BO4E-python/docs/../.tox/docs/tmp/html/api/bo4e.enum.html#bo4e.enum.messwertstatus.Messwertstatus" target="_top" title="file:////home/runner/work/BO4E-python/BO4E-python/docs/../.tox/docs/tmp/html/api/bo4e.enum.html#bo4e.enum.messwertstatus.Messwertstatus" xlink:actuate="onRequest" xlink:href="file:////home/runner/work/BO4E-python/BO4E-python/docs/../.tox/docs/tmp/html/api/bo4e.enum.html#bo4e.enum.messwertstatus.Messwertstatus" xlink:show="new" xlink:title="file:////home/runner/work/BO4E-python/BO4E-python/docs/../.tox/docs/tmp/html/api/bo4e.enum.html#bo4e.enum.messwertstatus.Messwertstatus" xlink:type="simple"><text fill="#0000FF" font-family="sans-serif" font-size="14" lengthAdjust="spacing" text-decoration="underline" textLength="109.6074" x="857.6621" y="361.0251">Messwertstatus</text></a><text fill="#000000" font-family="sans-serif" font-size="10" lengthAdjust="spacing" textLength="139.3115" x="842.81" y="373.6091">bo4e.enum.messwertstatus</text></g><!--class Messwert--><g class="entity" data-entity="Messwert" data-source-line="3" data-uid="ent0002" id="entity_Messwert"><rect fill="#F1F1F1" height="78.5313" rx="2.5" ry="2.5" style="stroke:#181818;stroke-width:0.5;" width="558.7588" x="7" y="207.73"/><ellipse cx="231.4434" cy="226.6988" fill="#ADD1B2" rx="11" ry="11" style="stroke:#181818;stroke-width:1;"/><path d="M234.4121,232.3394 Q233.834,232.6363 233.1934,232.7769 Q232.5527,232.9331 231.8496,232.9331 Q229.3496,232.9331 228.0215,231.2925 Q226.709,229.6363 226.709,226.5113 Q226.709,223.3863 228.0215,221.73 Q229.3496,220.0738 231.8496,220.0738 Q232.5527,220.0738 233.1934,220.23 Q233.8496,220.3863 234.4121,220.6831 L234.4121,223.4019 Q233.7871,222.8238 233.1934,222.5581 Q232.5996,222.2769 231.9746,222.2769 Q230.6309,222.2769 229.9434,223.355 Q229.2559,224.4175 229.2559,226.5113 Q229.2559,228.605 229.9434,229.6831 Q230.6309,230.7456 231.9746,230.7456 Q232.5996,230.7456 233.1934,230.48 Q233.7871,230.1988 234.4121,229.6206 L234.4121,232.3394 Z " fill="#000000"/><a href="file:////home/runner/work/BO4E-python/BO4E-python/docs/../.tox/docs/tmp/html/api/bo4e.com.html#bo4e.com.messwert.Messwert" target="_top" title="file:////home/runner/work/BO4E-python/BO4E-python/docs/../.tox/docs/tmp/html/api/bo4e.com.html#bo4e.com.messwert.Messwert" xlink:actuate="onRequest" xlink:href="file:////home/runner/work/BO4E-python/BO4E-python/docs/../.tox/docs/tmp/html/api/bo4e.com.html#bo4e.com.messwert.Messwert" xlink:show="new" xlink:title="file:////home/runner/work/BO4E-python/BO4E-python/docs/../.tox/docs/tmp/html/api/bo4e.com.html#bo4e.com.messwert.Messwert" xlink:type="simple"><text fill="#0000FF" font-family="sans-serif" font-size="14" lengthAdjust="spacing" text-decoration="underline" textLength="66.5889" x="269.335" y="225.7251">Messwert</text></a><text fill="#000000" font-family="sans-serif" font-size="10" lengthAdjust="spacing" textLength="101.3721" x="251.9434" y="238.3091">bo4e.com.messwert</text><line style="stroke:#181818;stroke-width:0.5;" x1="8" x2="564.7588" y1="245.6675" y2="245.6675"/><text fill="#000000" font-family="sans-serif" font-size="14" lengthAdjust="spacing" textLength="546.7588" x="13" y="262.6626">_typ : Literal[&lt;ComTyp.MESSWERT: 'MESSWERT'&gt;] [1] = ComTyp.MESSWERT</text><text fill="#000000" font-family="sans-serif" font-size="14" lengthAdjust="spacing" textLength="287.499" x="13" y="278.9595">zeitpunkt : AwareDatetime [0..1] = None</text></g><!--link Messwert to COM--><g class="link" data-entity-1="Messwert" data-entity-2="COM" data-source-line="17" data-uid="lnk10" id="link_Messwert_COM"><path codeLine="17" d="M445.69,207.32 C493.83,195.43 546.92,182.5 595.76,171 C683.44,150.35 768.1781,131.517 828.5781,118.267" fill="none" id="Messwert-to-COM" style="stroke:#181818;stroke-width:1;"/><polygon fill="none" points="846.16,114.41,827.2924,112.4063,829.8637,124.1276,846.16,114.41" style="stroke:#181818;stroke-width:1;"/></g><!--link Messwert to Messwertstatus--><g class="link" data-entity-1="Messwert" data-entity-2="Messwertstatus" data-source-line="18" data-uid="lnk11" id="link_Messwert_Messwertstatus"><path codeLine="18" d="M498.54,286.74 C606.69,307.09 720.5369,328.5214 801.7069,343.7914" fill="none" id="Messwert-to-Messwertstatus" style="stroke:#181818;stroke-width:1;"/><polygon fill="#181818" points="813.5,346.01,808.343,340.9697,801.7069,343.7914,806.8639,348.8318,813.5,346.01" style="stroke:#181818;stroke-width:1;"/><text fill="#000000" font-family="sans-serif" font-size="13" lengthAdjust="spacing" textLength="103.2256" x="617.26" y="303.0669">messwertstatus</text><text fill="#000000" font-family="sans-serif" font-size="13" lengthAdjust="spacing" textLength="24.8066" x="781.1157" y="357.3531">0..1</text></g><!--link Messwert to Messwertstatuszusatz--><g class="link" data-entity-1="Messwert" data-entity-2="Messwertstatuszusatz" data-source-line="19" data-uid="lnk12" id="link_Messwert_Messwertstatuszusatz"><path codeLine="19" d="M566.1,266.16 C648.73,271.84 722.0182,276.8777 785.4982,281.2377" fill="none" id="Messwert-to-Messwertstatuszusatz" style="stroke:#181818;stroke-width:1;"/><polygon fill="#181818" points="797.47,282.06,791.7582,277.6583,785.4982,281.2377,791.21,285.6395,797.47,282.06" style="stroke:#181818;stroke-width:1;"/><text fill="#000000" font-family="sans-serif" font-size="13" lengthAdjust="spacing" textLength="144.9487" x="596.76" y="265.0669">messwertstatuszusatz</text><text fill="#000000" font-family="sans-serif" font-size="13" lengthAdjust="spacing" textLength="24.8066" x="765.1282" y="294.173">0..1</text></g><!--link Messwert to Menge--><g class="link" data-entity-1="Messwert" data-entity-2="Menge" data-source-line="20" data-uid="lnk13" id="link_Messwert_Menge"><path codeLine="20" d="M566.1,214.62 C668.72,202.69 763.4801,191.6845 827.4501,184.2545" fill="none" id="Messwert-to-Menge" style="stroke:#181818;stroke-width:1;"/><polygon fill="#181818" points="839.37,182.87,832.9486,179.5889,827.4501,184.2545,833.8716,187.5355,839.37,182.87" style="stroke:#181818;stroke-width:1;"/><text fill="#000000" font-family="sans-serif" font-size="13" lengthAdjust="spacing" textLength="29.0723" x="654.26" y="192.0669">wert</text><text fill="#000000" font-family="sans-serif" font-size="13" lengthAdjust="spacing" textLength="24.8066" x="807.0808" y="196.6062">0..1</text></g><!--SRC=[pLHHQzim47wkViMHF1G6aHBMZMAwG9lcRLbXBUp1CqErBxMe9Hb99aks_VT9QUmuRbgwXwKrIDodEvtlzDrTWNC7JeCHTxc3J1XCdT2AaBJWra8lZkUYm8ZvBzSIcQcKGiCMsjopYwkJwQ1Skboh7JdJgMMKCkhqpmVWPCbo9ml6Iy5kzGdIL4iQJleDacZj0esZiuq0jP0atzMP5IkCHiFn8_iUSDkOmYzozCCjIuZWit1eU16VJRIyMPPqDhs-_ZRzUXF1SIqUZnE8HmbyWeuDELgXS6MbxfttTBxW1Y-vGoSaGZoaT7tdYrP8_X2Yk0-bv2d-_zU26YN9EkqQGdywF3_zE0df7voui2PNC_1hFrD-hQFr1gyGdaHrXxwe_0xh_QboygfDBNd94ti0Nb5LRM83R3CRCFIpKVh-m-a1g6sYwMzXtMNMSLVPLMMvMpKTsZw4VOUFd_f9fpjjt5QyWRGx2NV2V56IUz8BisCxx0Q3t-EcdqC_jNHU-GvwOUxqjeNH3Ig2tJ_-u_qDYrql6mwUyHN2VUYk28858Rd8qBkHjsWiiRbUmFRwN62HsRy0]--></g></svg>