<svg xmlns="http://www.w3.org/2000/svg" xmlns:xlink="http://www.w3.org/1999/xlink" contentStyleType="text/css" data-diagram-type="CLASS" height="355px" preserveAspectRatio="none" style="width:1334px;height:355px;background:#FFFFFF;" version="1.1" viewBox="0 0 1334 355" width="1334px" zoomAndPan="magnify"><defs/><g><!--cluster bo4e--><g class="cluster" data-entity="bo4e" data-source-line="11" data-uid="ent0005" id="cluster_bo4e"><path d="M1068.29,6 L1108.166,6 A3.75,3.75 0 0 1 1110.666,8.5 L1117.666,28.2969 L1324.8,28.2969 A2.5,2.5 0 0 1 1327.3,30.7969 L1327.3,345.5 A2.5,2.5 0 0 1 1324.8,348 L1068.29,348 A2.5,2.5 0 0 1 1065.79,345.5 L1065.79,8.5 A2.5,2.5 0 0 1 1068.29,6" fill="none" style="stroke:#000000;stroke-width:1.5;"/><line style="stroke:#000000;stroke-width:1.5;" x1="1065.79" x2="1117.666" y1="28.2969" y2="28.2969"/><text fill="#000000" font-family="sans-serif" font-size="14" font-weight="bold" lengthAdjust="spacing" textLength="38.876" x="1069.79" y="20.9951">bo4e</text></g><!--cluster com--><g class="cluster" data-entity="com" data-source-line="10" data-uid="ent0003" id="cluster_com"><path d="M1130.02,49 L1207.7192,49 A3.75,3.75 0 0 1 1210.2192,51.5 L1217.2192,71.2969 L1263.07,71.2969 A2.5,2.5 0 0 1 1265.57,73.7969 L1265.57,135.5 A2.5,2.5 0 0 1 1263.07,138 L1130.02,138 A2.5,2.5 0 0 1 1127.52,135.5 L1127.52,51.5 A2.5,2.5 0 0 1 1130.02,49" fill="#E0A86C" style="stroke:#000000;stroke-width:1.5;"/><line style="stroke:#000000;stroke-width:1.5;" x1="1127.52" x2="1217.2192" y1="71.2969" y2="71.2969"/><a href="file:////home/runner/work/BO4E-python/BO4E-python/docs/../.tox/docs/tmp/html/api/bo4e.com.html" target="_top" title="file:////home/runner/work/BO4E-python/BO4E-python/docs/../.tox/docs/tmp/html/api/bo4e.com.html" xlink:actuate="onRequest" xlink:href="file:////home/runner/work/BO4E-python/BO4E-python/docs/../.tox/docs/tmp/html/api/bo4e.com.html" xlink:show="new" xlink:title="file:////home/runner/work/BO4E-python/BO4E-python/docs/../.tox/docs/tmp/html/api/bo4e.com.html" xlink:type="simple"><text fill="#0000FF" font-family="sans-serif" font-size="14" font-weight="bold" lengthAdjust="spacing" text-decoration="underline" textLength="76.6992" x="1131.52" y="63.9951">bo4e.com</text></a></g><!--cluster enum--><g class="cluster" data-entity="enum" data-source-line="13" data-uid="ent0006" id="cluster_enum"><path d="M1092.29,162 L1181.5009,162 A3.75,3.75 0 0 1 1184.0009,164.5 L1191.0009,184.2969 L1300.8,184.2969 A2.5,2.5 0 0 1 1303.3,186.7969 L1303.3,321.5 A2.5,2.5 0 0 1 1300.8,324 L1092.29,324 A2.5,2.5 0 0 1 1089.79,321.5 L1089.79,164.5 A2.5,2.5 0 0 1 1092.29,162" fill="#D1C358" style="stroke:#000000;stroke-width:1.5;"/><line style="stroke:#000000;stroke-width:1.5;" x1="1089.79" x2="1191.0009" y1="184.2969" y2="184.2969"/><a href="file:////home/runner/work/BO4E-python/BO4E-python/docs/../.tox/docs/tmp/html/api/bo4e.enum.html" target="_top" title="file:////home/runner/work/BO4E-python/BO4E-python/docs/../.tox/docs/tmp/html/api/bo4e.enum.html" xlink:actuate="onRequest" xlink:href="file:////home/runner/work/BO4E-python/BO4E-python/docs/../.tox/docs/tmp/html/api/bo4e.enum.html" xlink:show="new" xlink:title="file:////home/runner/work/BO4E-python/BO4E-python/docs/../.tox/docs/tmp/html/api/bo4e.enum.html" xlink:type="simple"><text fill="#0000FF" font-family="sans-serif" font-size="14" font-weight="bold" lengthAdjust="spacing" text-decoration="underline" textLength="88.2109" x="1093.79" y="176.9951">bo4e.enum</text></a></g><!--class COM--><g class="entity" data-entity="COM" data-source-line="11" data-uid="ent0004" id="entity_COM"><rect fill="#F1F1F1" height="37.9375" rx="2.5" ry="2.5" style="stroke:#181818;stroke-width:0.5;" width="106.0527" x="1143.52" y="84.03"/><ellipse cx="1158.52" cy="102.9987" fill="#ADD1B2" rx="11" ry="11" style="stroke:#181818;stroke-width:1;"/><path d="M1161.4888,108.6394 Q1160.9106,108.9362 1160.27,109.0769 Q1159.6294,109.2331 1158.9263,109.2331 Q1156.4263,109.2331 1155.0981,107.5925 Q1153.7856,105.9362 1153.7856,102.8112 Q1153.7856,99.6862 1155.0981,98.03 Q1156.4263,96.3737 1158.9263,96.3737 Q1159.6294,96.3737 1160.27,96.53 Q1160.9263,96.6862 1161.4888,96.9831 L1161.4888,99.7019 Q1160.8638,99.1237 1160.27,98.8581 Q1159.6763,98.5769 1159.0513,98.5769 Q1157.7075,98.5769 1157.02,99.655 Q1156.3325,100.7175 1156.3325,102.8112 Q1156.3325,104.905 1157.02,105.9831 Q1157.7075,107.0456 1159.0513,107.0456 Q1159.6763,107.0456 1160.27,106.78 Q1160.8638,106.4987 1161.4888,105.9206 L1161.4888,108.6394 Z " fill="#000000"/><a href="file:////home/runner/work/BO4E-python/BO4E-python/docs/../.tox/docs/tmp/html/api/bo4e.com.html#bo4e.com.com.COM" target="_top" title="file:////home/runner/work/BO4E-python/BO4E-python/docs/../.tox/docs/tmp/html/api/bo4e.com.html#bo4e.com.com.COM" xlink:actuate="onRequest" xlink:href="file:////home/runner/work/BO4E-python/BO4E-python/docs/../.tox/docs/tmp/html/api/bo4e.com.html#bo4e.com.com.COM" xlink:show="new" xlink:title="file:////home/runner/work/BO4E-python/BO4E-python/docs/../.tox/docs/tmp/html/api/bo4e.com.html#bo4e.com.com.COM" xlink:type="simple"><text fill="#0000FF" font-family="sans-serif" font-size="14" lengthAdjust="spacing" text-decoration="underline" textLength="32.874" x="1193.1094" y="102.0251">COM</text></a><text fill="#000000" font-family="sans-serif" font-size="10" lengthAdjust="spacing" textLength="74.0527" x="1172.52" y="114.6091">bo4e.com.com</text></g><!--class AufAbschlagstyp--><g class="entity" data-entity="AufAbschlagstyp" data-source-line="14" data-uid="ent0007" id="entity_AufAbschlagstyp"><rect fill="#F1F1F1" height="37.9375" rx="2.5" ry="2.5" style="stroke:#181818;stroke-width:0.5;" width="174.0654" x="1109.51" y="197.03"/><ellipse cx="1124.51" cy="215.9988" fill="#ADD1B2" rx="11" ry="11" style="stroke:#181818;stroke-width:1;"/><path d="M1127.4788,221.6394 Q1126.9006,221.9363 1126.26,222.0769 Q1125.6194,222.2331 1124.9163,222.2331 Q1122.4163,222.2331 1121.0881,220.5925 Q1119.7756,218.9363 1119.7756,215.8113 Q1119.7756,212.6863 1121.0881,211.03 Q1122.4163,209.3738 1124.9163,209.3738 Q1125.6194,209.3738 1126.26,209.53 Q1126.9163,209.6863 1127.4788,209.9831 L1127.4788,212.7019 Q1126.8538,212.1238 1126.26,211.8581 Q1125.6663,211.5769 1125.0413,211.5769 Q1123.6975,211.5769 1123.01,212.655 Q1122.3225,213.7175 1122.3225,215.8113 Q1122.3225,217.905 1123.01,218.9831 Q1123.6975,220.0456 1125.0413,220.0456 Q1125.6663,220.0456 1126.26,219.78 Q1126.8538,219.4988 1127.4788,218.9206 L1127.4788,221.6394 Z " fill="#000000"/><a href="file:////home/runner/work/BO4E-python/BO4E-python/docs/../.tox/docs/tmp/html/api/bo4e.enum.html#bo4e.enum.aufabschlagstyp.AufAbschlagstyp" target="_top" title="file:////home/runner/work/BO4E-python/BO4E-python/docs/../.tox/docs/tmp/html/api/bo4e.enum.html#bo4e.enum.aufabschlagstyp.AufAbschlagstyp" xlink:actuate="onRequest" xlink:href="file:////home/runner/work/BO4E-python/BO4E-python/docs/../.tox/docs/tmp/html/api/bo4e.enum.html#bo4e.enum.aufabschlagstyp.AufAbschlagstyp" xlink:show="new" xlink:title="file:////home/runner/work/BO4E-python/BO4E-python/docs/../.tox/docs/tmp/html/api/bo4e.enum.html#bo4e.enum.aufabschlagstyp.AufAbschlagstyp" xlink:type="simple"><text fill="#0000FF" font-family="sans-serif" font-size="14" lengthAdjust="spacing" text-decoration="underline" textLength="117.0176" x="1151.0339" y="215.0251">AufAbschlagstyp</text></a><text fill="#000000" font-family="sans-serif" font-size="10" lengthAdjust="spacing" textLength="142.0654" x="1138.51" y="227.6091">bo4e.enum.aufabschlagstyp</text></g><!--class Waehrungseinheit--><g class="entity" data-entity="Waehrungseinheit" data-source-line="15" data-uid="ent0008" id="entity_Waehrungseinheit"><rect fill="#F1F1F1" height="37.9375" rx="2.5" ry="2.5" style="stroke:#181818;stroke-width:0.5;" width="181.5068" x="1105.79" y="270.03"/><ellipse cx="1120.79" cy="288.9988" fill="#ADD1B2" rx="11" ry="11" style="stroke:#181818;stroke-width:1;"/><path d="M1123.7588,294.6394 Q1123.1806,294.9363 1122.54,295.0769 Q1121.8994,295.2331 1121.1963,295.2331 Q1118.6963,295.2331 1117.3681,293.5925 Q1116.0556,291.9363 1116.0556,288.8113 Q1116.0556,285.6863 1117.3681,284.03 Q1118.6963,282.3738 1121.1963,282.3738 Q1121.8994,282.3738 1122.54,282.53 Q1123.1963,282.6863 1123.7588,282.9831 L1123.7588,285.7019 Q1123.1338,285.1238 1122.54,284.8581 Q1121.9463,284.5769 1121.3213,284.5769 Q1119.9775,284.5769 1119.29,285.655 Q1118.6025,286.7175 1118.6025,288.8113 Q1118.6025,290.905 1119.29,291.9831 Q1119.9775,293.0456 1121.3213,293.0456 Q1121.9463,293.0456 1122.54,292.78 Q1123.1338,292.4988 1123.7588,291.9206 L1123.7588,294.6394 Z " fill="#000000"/><a href="file:////home/runner/work/BO4E-python/BO4E-python/docs/../.tox/docs/tmp/html/api/bo4e.enum.html#bo4e.enum.waehrungseinheit.Waehrungseinheit" target="_top" title="file:////home/runner/work/BO4E-python/BO4E-python/docs/../.tox/docs/tmp/html/api/bo4e.enum.html#bo4e.enum.waehrungseinheit.Waehrungseinheit" xlink:actuate="onRequest" xlink:href="file:////home/runner/work/BO4E-python/BO4E-python/docs/../.tox/docs/tmp/html/api/bo4e.enum.html#bo4e.enum.waehrungseinheit.Waehrungseinheit" xlink:show="new" xlink:title="file:////home/runner/work/BO4E-python/BO4E-python/docs/../.tox/docs/tmp/html/api/bo4e.enum.html#bo4e.enum.waehrungseinheit.Waehrungseinheit" xlink:type="simple"><text fill="#0000FF" font-family="sans-serif" font-size="14" lengthAdjust="spacing" text-decoration="underline" textLength="127.832" x="1145.6274" y="288.0251">Waehrungseinheit</text></a><text fill="#000000" font-family="sans-serif" font-size="10" lengthAdjust="spacing" textLength="149.5068" x="1134.79" y="300.6091">bo4e.enum.waehrungseinheit</text></g><!--class PositionsAufAbschlag--><g class="entity" data-entity="PositionsAufAbschlag" data-source-line="3" data-uid="ent0002" id="entity_PositionsAufAbschlag"><rect fill="#F1F1F1" height="111.125" rx="2.5" ry="2.5" style="stroke:#181818;stroke-width:0.5;" width="859.793" x="7" y="160.44"/><ellipse cx="353.5083" cy="179.4088" fill="#ADD1B2" rx="11" ry="11" style="stroke:#181818;stroke-width:1;"/><path d="M356.4771,185.0494 Q355.8989,185.3463 355.2583,185.4869 Q354.6177,185.6431 353.9146,185.6431 Q351.4146,185.6431 350.0864,184.0025 Q348.7739,182.3463 348.7739,179.2213 Q348.7739,176.0963 350.0864,174.44 Q351.4146,172.7838 353.9146,172.7838 Q354.6177,172.7838 355.2583,172.94 Q355.9146,173.0963 356.4771,173.3931 L356.4771,176.1119 Q355.8521,175.5338 355.2583,175.2681 Q354.6646,174.9869 354.0396,174.9869 Q352.6958,174.9869 352.0083,176.065 Q351.3208,177.1275 351.3208,179.2213 Q351.3208,181.315 352.0083,182.3931 Q352.6958,183.4556 354.0396,183.4556 Q354.6646,183.4556 355.2583,183.19 Q355.8521,182.9088 356.4771,182.3306 L356.4771,185.0494 Z " fill="#000000"/><a href="file:////home/runner/work/BO4E-python/BO4E-python/docs/../.tox/docs/tmp/html/api/bo4e.com.html#bo4e.com.positionsaufabschlag.PositionsAufAbschlag" target="_top" title="file:////home/runner/work/BO4E-python/BO4E-python/docs/../.tox/docs/tmp/html/api/bo4e.com.html#bo4e.com.positionsaufabschlag.PositionsAufAbschlag" xlink:actuate="onRequest" xlink:href="file:////home/runner/work/BO4E-python/BO4E-python/docs/../.tox/docs/tmp/html/api/bo4e.com.html#bo4e.com.positionsaufabschlag.PositionsAufAbschlag" xlink:show="new" xlink:title="file:////home/runner/work/BO4E-python/BO4E-python/docs/../.tox/docs/tmp/html/api/bo4e.com.html#bo4e.com.positionsaufabschlag.PositionsAufAbschlag" xlink:type="simple"><text fill="#0000FF" font-family="sans-serif" font-size="14" lengthAdjust="spacing" text-decoration="underline" textLength="149.3652" x="378.4639" y="178.4351">PositionsAufAbschlag</text></a><text fill="#000000" font-family="sans-serif" font-size="10" lengthAdjust="spacing" textLength="158.2764" x="374.0083" y="191.0191">bo4e.com.positionsaufabschlag</text><line style="stroke:#181818;stroke-width:0.5;" x1="8" x2="865.793" y1="198.3775" y2="198.3775"/><text fill="#000000" font-family="sans-serif" font-size="14" lengthAdjust="spacing" textLength="847.793" x="13" y="215.3726">_typ : Literal[&lt;ComTyp.POSITIONSAUFABSCHLAG: 'POSITIONSAUFABSCHLAG'&gt;] [1] = ComTyp.POSITIONSAUFABSCHLAG</text><text fill="#000000" font-family="sans-serif" font-size="14" lengthAdjust="spacing" textLength="220.8281" x="13" y="231.6695">bezeichnung : str [0..1] = None</text><text fill="#000000" font-family="sans-serif" font-size="14" lengthAdjust="spacing" textLength="226.543" x="13" y="247.9664">beschreibung : str [0..1] = None</text><text fill="#000000" font-family="sans-serif" font-size="14" lengthAdjust="spacing" textLength="294.6152" x="13" y="264.2632">aufAbschlagswert : Decimal [0..1] = None</text></g><!--link PositionsAufAbschlag to COM--><g class="link" data-entity-1="PositionsAufAbschlag" data-entity-2="COM" data-source-line="18" data-uid="lnk9" id="link_PositionsAufAbschlag_COM"><path codeLine="18" d="M813.67,159.96 C943.28,140.62 1055.5769,123.8754 1125.4369,113.4554" fill="none" id="PositionsAufAbschlag-to-COM" style="stroke:#181818;stroke-width:1;"/><polygon fill="none" points="1143.24,110.8,1124.5518,107.5211,1126.3221,119.3898,1143.24,110.8" style="stroke:#181818;stroke-width:1;"/></g><!--link PositionsAufAbschlag to AufAbschlagstyp--><g class="link" data-entity-1="PositionsAufAbschlag" data-entity-2="AufAbschlagstyp" data-source-line="19" data-uid="lnk10" id="link_PositionsAufAbschlag_AufAbschlagstyp"><path codeLine="19" d="M867.09,216 C959.22,216 1035.3,216 1097.02,216" fill="none" id="PositionsAufAbschlag-to-AufAbschlagstyp" style="stroke:#181818;stroke-width:1;"/><polygon fill="#181818" points="1109.02,216,1103.02,212,1097.02,216,1103.02,220,1109.02,216" style="stroke:#181818;stroke-width:1;"/><text fill="#000000" font-family="sans-serif" font-size="13" lengthAdjust="spacing" textLength="107.7324" x="919.79" y="212.0669">aufAbschlagstyp</text><text fill="#000000" font-family="sans-serif" font-size="13" lengthAdjust="spacing" textLength="24.8066" x="1076.8117" y="228.6936">0..1</text></g><!--link PositionsAufAbschlag to Waehrungseinheit--><g class="link" data-entity-1="PositionsAufAbschlag" data-entity-2="Waehrungseinheit" data-source-line="20" data-uid="lnk11" id="link_PositionsAufAbschlag_Waehrungseinheit"><path codeLine="20" d="M867.09,257.35 C957.54,266.07 1032.1553,273.2588 1093.6853,279.1888" fill="none" id="PositionsAufAbschlag-to-Waehrungseinheit" style="stroke:#181818;stroke-width:1;"/><polygon fill="#181818" points="1105.63,280.34,1100.0414,275.7829,1093.6853,279.1888,1099.2739,283.746,1105.63,280.34" style="stroke:#181818;stroke-width:1;"/><text fill="#000000" font-family="sans-serif" font-size="13" lengthAdjust="spacing" textLength="151.6011" x="897.79" y="258.0669">aufAbschlagswaehrung</text><text fill="#000000" font-family="sans-serif" font-size="13" lengthAdjust="spacing" textLength="24.8066" x="1073.1409" y="292.3164">0..1</text></g><!--SRC=[nLJlQzim4FrS_nL7yg4mY9omRXJJ1joismfTKqZ7FhYcoFOv4hCb8ycawRR_VPAt_AZZ5FPXgK7WzxXxkdk-Su6v0ID1yJapa765gU5IU5vQKAsX5qKvBp3mxSDaYRwgXK3bBwJwxbzCJou7rT8mAPwzPpBLFY4-CVBn3p1bvJDJ5Zwjk9_84oIfB8bZ-cjKIStTrPhMEKrqoWew9xShCgppy2y9NMGStuippPym60t7BshsWEfE2VZX7JsOPGK1N7E3YXRHsKIMTykAt4vdLtTNqvjP-FLZU36RVBuEFmLmt4KVZsE8HZ6Smmkvtb62JyXJ9cenj_Tfeo0Q4jBatKY1Bi1MfP0dUoFefdIzG6Lir0TCUKcBLkGlpnEqH5tH5F__5uKLYkF6wXM4_kKmF7q_SJOVVBZScKo_W3tTas9FKwqDi7uTm2uKzRPV3cuRvZ3qir7wzjtf0HnRLzFVmAsTqNOjoDQgE0mjlEjhbqhJOIlpLRfRK6HMVwwH2uRSa6yj0jh4dWRRGas7xLotWzq_iy7WvtYz8sv6zyJPm3VGStlTsqp8pZS9WBQy_HUr7GkUowqwzJp6CuGIomILzZIJ2-Y-9kTOPFet]--></g></svg>