<svg xmlns="http://www.w3.org/2000/svg" xmlns:xlink="http://www.w3.org/1999/xlink" contentStyleType="text/css" data-diagram-type="CLASS" height="206px" preserveAspectRatio="none" style="width:696px;height:206px;background:#FFFFFF;" version="1.1" viewBox="0 0 696 206" width="696px" zoomAndPan="magnify"><?plantuml 1.2026.6?><defs/><g><!--cluster bo4e--><g class="cluster" data-qualified-name="bo4e" data-source-line="15" id="ent0004"><path d="M441.48,6 L481.356,6 A3.75,3.75 0 0 1 483.856,8.5 L490.856,28.2969 L679.04,28.2969 A2.5,2.5 0 0 1 681.54,30.7969 L681.54,159.5 A2.5,2.5 0 0 1 679.04,162 L441.48,162 A2.5,2.5 0 0 1 438.98,159.5 L438.98,8.5 A2.5,2.5 0 0 1 441.48,6" fill="none" style="stroke:#000000;stroke-width:1.5;"/><line style="stroke:#000000;stroke-width:1.5;" x1="438.98" x2="490.856" y1="28.2969" y2="28.2969"/><text fill="#000000" font-family="sans-serif" font-size="14" font-weight="700" lengthAdjust="spacing" textLength="38.876" x="442.98" y="20.9951">bo4e</text></g><!--cluster com--><g class="cluster" data-qualified-name="bo4e.com" data-source-line="14" id="ent0002"><path d="M465.48,49 L543.1792,49 A3.75,3.75 0 0 1 545.6792,51.5 L552.6792,71.2969 L655.04,71.2969 A2.5,2.5 0 0 1 657.54,73.7969 L657.54,135.5 A2.5,2.5 0 0 1 655.04,138 L465.48,138 A2.5,2.5 0 0 1 462.98,135.5 L462.98,51.5 A2.5,2.5 0 0 1 465.48,49" fill="#E0A86C" style="stroke:#000000;stroke-width:1.5;"/><line style="stroke:#000000;stroke-width:1.5;" x1="462.98" x2="552.6792" y1="71.2969" y2="71.2969"/><text fill="#000000" font-family="sans-serif" font-size="14" font-weight="700" lengthAdjust="spacing" textLength="76.6992" x="466.98" y="63.9951">bo4e.com</text></g><!--class Sigmoidparameter--><g class="entity" data-qualified-name="bo4e.com.Sigmoidparameter" data-source-line="15" id="ent0003"><rect fill="#F1F1F1" height="37.9375" rx="2.5" ry="2.5" style="stroke:#181818;stroke-width:0.5;" width="162.5527" x="478.98" y="84.03"/><ellipse cx="493.98" cy="102.9988" fill="#ADD1B2" rx="11" ry="11" style="stroke:#181818;stroke-width:1;"/><path d="M496.9488,108.6394 Q496.3706,108.9363 495.73,109.0769 Q495.0894,109.2331 494.3863,109.2331 Q491.8863,109.2331 490.5581,107.5925 Q489.2456,105.9363 489.2456,102.8113 Q489.2456,99.6863 490.5581,98.03 Q491.8863,96.3738 494.3863,96.3738 Q495.0894,96.3738 495.73,96.53 Q496.3863,96.6863 496.9488,96.9831 L496.9488,99.7019 Q496.3238,99.1238 495.73,98.8581 Q495.1363,98.5769 494.5113,98.5769 Q493.1675,98.5769 492.48,99.655 Q491.7925,100.7175 491.7925,102.8113 Q491.7925,104.905 492.48,105.9831 Q493.1675,107.0456 494.5113,107.0456 Q495.1363,107.0456 495.73,106.78 Q496.3238,106.4988 496.9488,105.9206 L496.9488,108.6394 Z " fill="#000000"/><a href="https://bo4e.github.io/BO4E-python/latest/api/bo4e.com.html#module-bo4e.com.sigmoidparameter" target="_top" title="https://bo4e.github.io/BO4E-python/latest/api/bo4e.com.html#module-bo4e.com.sigmoidparameter" xlink:actuate="onRequest" xlink:href="https://bo4e.github.io/BO4E-python/latest/api/bo4e.com.html#module-bo4e.com.sigmoidparameter" xlink:show="new" xlink:title="https://bo4e.github.io/BO4E-python/latest/api/bo4e.com.html#module-bo4e.com.sigmoidparameter" xlink:type="simple"><text fill="#0000FF" font-family="sans-serif" font-size="14" lengthAdjust="spacing" text-decoration="underline" textLength="130.5527" x="507.98" y="102.0251">Sigmoidparameter</text></a><text fill="#000000" font-family="sans-serif" font-size="10" lengthAdjust="spacing" textLength="117.7881" x="514.3623" y="114.6091">com.Sigmoidparameter</text></g><!--class Preisstaffel--><g class="entity" data-qualified-name="Preisstaffel" data-source-line="3" id="ent0001"><rect fill="#F1F1F1" height="176.3125" rx="2.5" ry="2.5" style="stroke:#181818;stroke-width:0.5;" width="264.9844" x="7" y="14.85"/><ellipse cx="95.2178" cy="33.8187" fill="#ADD1B2" rx="11" ry="11" style="stroke:#181818;stroke-width:1;"/><path d="M98.1865,39.4594 Q97.6084,39.7562 96.9678,39.8969 Q96.3271,40.0531 95.624,40.0531 Q93.124,40.0531 91.7959,38.4125 Q90.4834,36.7562 90.4834,33.6312 Q90.4834,30.5062 91.7959,28.85 Q93.124,27.1937 95.624,27.1937 Q96.3271,27.1937 96.9678,27.35 Q97.624,27.5062 98.1865,27.8031 L98.1865,30.5219 Q97.5615,29.9437 96.9678,29.6781 Q96.374,29.3969 95.749,29.3969 Q94.4053,29.3969 93.7178,30.475 Q93.0303,31.5375 93.0303,33.6312 Q93.0303,35.725 93.7178,36.8031 Q94.4053,37.8656 95.749,37.8656 Q96.374,37.8656 96.9678,37.6 Q97.5615,37.3187 98.1865,36.7406 L98.1865,39.4594 Z " fill="#000000"/><a href="https://bo4e.github.io/BO4E-python/latest/api/bo4e.com.html#module-bo4e.com.preisstaffel" target="_top" title="https://bo4e.github.io/BO4E-python/latest/api/bo4e.com.html#module-bo4e.com.preisstaffel" xlink:actuate="onRequest" xlink:href="https://bo4e.github.io/BO4E-python/latest/api/bo4e.com.html#module-bo4e.com.preisstaffel" xlink:show="new" xlink:title="https://bo4e.github.io/BO4E-python/latest/api/bo4e.com.html#module-bo4e.com.preisstaffel" xlink:type="simple"><text fill="#0000FF" font-family="sans-serif" font-size="14" lengthAdjust="spacing" text-decoration="underline" textLength="77.7178" x="116.8833" y="32.8451">Preisstaffel</text></a><text fill="#000000" font-family="sans-serif" font-size="10" lengthAdjust="spacing" textLength="80.0488" x="115.7178" y="45.4291">com.Preisstaffel</text><line style="stroke:#181818;stroke-width:0.5;" x1="8" x2="270.9844" y1="52.7875" y2="52.7875"/><text fill="#000000" font-family="sans-serif" font-size="14" lengthAdjust="spacing" textLength="94.0215" x="13" y="69.7826">_id : str [0..1]</text><text fill="#000000" font-family="sans-serif" font-size="14" lengthAdjust="spacing" textLength="252.9844" x="13" y="86.0795">_typ : Literal["PREISSTAFFEL"] [0..1]</text><text fill="#000000" font-family="sans-serif" font-size="14" lengthAdjust="spacing" textLength="132.5215" x="13" y="102.3764">_version : str [0..1]</text><text fill="#000000" font-family="sans-serif" font-size="14" lengthAdjust="spacing" textLength="131.585" x="13" y="118.6732">artikelId : str [0..1]</text><text fill="#000000" font-family="sans-serif" font-size="14" lengthAdjust="spacing" textLength="163.6729" x="13" y="134.9701">bezeichnung : str [0..1]</text><text fill="#000000" font-family="sans-serif" font-size="14" lengthAdjust="spacing" textLength="121.5977" x="13" y="151.267">preis : float [0..1]</text><text fill="#000000" font-family="sans-serif" font-size="14" lengthAdjust="spacing" textLength="199.7598" x="13" y="167.5639">staffelgrenzeBis : float [0..1]</text><text fill="#000000" font-family="sans-serif" font-size="14" lengthAdjust="spacing" textLength="205.9873" x="13" y="183.8607">staffelgrenzeVon : float [0..1]</text></g><!--link Preisstaffel to Sigmoidparameter--><g class="link" data-entity-1="ent0001" data-entity-2="ent0003" data-link-type="composition" data-source-line="26" id="lnk5"><path codeLine="26" d="M272.42,103 C340.03,103 408.18,103 466.54,103" fill="none" id="Preisstaffel-to-Sigmoidparameter" style="stroke:#181818;stroke-width:1;"/><polygon fill="#181818" points="478.54,103,472.54,99,466.54,103,472.54,107,478.54,103" style="stroke:#181818;stroke-width:1;stroke-linejoin:miter;stroke-miterlimit:10;"/><text fill="#000000" font-family="sans-serif" font-size="13" lengthAdjust="spacing" textLength="119.7485" x="302.98" y="99.0669">sigmoidparameter</text><text fill="#000000" font-family="sans-serif" font-size="13" lengthAdjust="spacing" textLength="24.8066" x="446.2293" y="115.7409">0..1</text></g><?plantuml-src jP9FQy904CNl-HH3l1LC5AGKAOMeiGYAejAB3MLD9idIJJRiZYrQ_EwDKOlvS_3ItFOtByERDoCm9209YaSnGS0L-iHbQXY-O5g3kTd4H9dks_PMzj2AECMxhSMbFPZtt7QsfrYcjc24ccoMyRFAbuaLKo9QYGns0jj_C5F8jIOMXYXWSVFmlFVqMVC3zhkTbvFojcW2qoKr_1YGVnyyW3veKh3fM5RNEqFQPpcTSaB5nCPSBDt9QhLsncDtQdebvHSgdSzQxy4KyKyKauRsMpmWz-DqbqRrOZ5UZaCX6TqMBhuZXUa11tTetWfR9StHC5AMeCwOZs1U8osokJwWvNQSfyVX9Pz_MQ7cKI9va36LcyapXbK5r5PP5HIMg_1YsMbAPj04Xqrmr0JlEfFLv7KsdumMpjAPkMjtUS-f74yxATrbk_q0vgberWVCVwqWmuXvW91WiitR6pgMtr0wV0WvYa3_0W00?></g></svg>