<?xml version="1.0" encoding="us-ascii" standalone="no"?><svg xmlns="http://www.w3.org/2000/svg" xmlns:xlink="http://www.w3.org/1999/xlink" contentStyleType="text/css" height="242px" preserveAspectRatio="none" style="width:726px;height:242px;background:#FFFFFF;" version="1.1" viewBox="0 0 726 242" width="726px" zoomAndPan="magnify"><defs/><g><!--cluster bo4e--><g id="cluster_bo4e"><path d="M469.5,6 L510.5,6 A3.75,3.75 0 0 1 513,8.5 L520,28.2969 L716.5,28.2969 A2.5,2.5 0 0 1 719,30.7969 L719,232.5 A2.5,2.5 0 0 1 716.5,235 L469.5,235 A2.5,2.5 0 0 1 467,232.5 L467,8.5 A2.5,2.5 0 0 1 469.5,6 " fill="none" style="stroke:#000000;stroke-width:1.5;"/><line style="stroke:#000000;stroke-width:1.5;" x1="467" x2="520" y1="28.2969" y2="28.2969"/><text fill="#000000" font-family="sans-serif" font-size="14" font-weight="bold" lengthAdjust="spacing" textLength="40" x="471" y="20.9951">bo4e</text></g><!--cluster com--><g id="cluster_com"><path d="M493.5,49 L572.5,49 A3.75,3.75 0 0 1 575,51.5 L582,71.2969 L692.5,71.2969 A2.5,2.5 0 0 1 695,73.7969 L695,208.5 A2.5,2.5 0 0 1 692.5,211 L493.5,211 A2.5,2.5 0 0 1 491,208.5 L491,51.5 A2.5,2.5 0 0 1 493.5,49 " fill="#E0A86C" style="stroke:#000000;stroke-width:1.5;"/><line style="stroke:#000000;stroke-width:1.5;" x1="491" x2="582" y1="71.2969" y2="71.2969"/><a href="https://bo4e.github.io/BO4E-python/latest/api/bo4e.com.html" target="_top" title="https://bo4e.github.io/BO4E-python/latest/api/bo4e.com.html" xlink:actuate="onRequest" xlink:href="https://bo4e.github.io/BO4E-python/latest/api/bo4e.com.html" xlink:show="new" xlink:title="https://bo4e.github.io/BO4E-python/latest/api/bo4e.com.html" xlink:type="simple"><text fill="#0000FF" font-family="sans-serif" font-size="14" font-weight="bold" lengthAdjust="spacing" text-decoration="underline" textLength="78" x="495" y="63.9951">bo4e.com</text></a></g><!--class COM--><g id="elem_COM"><rect codeLine="11" fill="#F1F1F1" height="37.9375" id="COM" rx="2.5" ry="2.5" style="stroke:#181818;stroke-width:0.5;" width="104" x="541" y="84.03"/><ellipse cx="556" cy="102.9988" fill="#ADD1B2" rx="11" ry="11" style="stroke:#181818;stroke-width:1.0;"/><path d="M558.9688,108.6394 Q558.3906,108.9363 557.75,109.0769 Q557.1094,109.2331 556.4063,109.2331 Q553.9063,109.2331 552.5781,107.5925 Q551.2656,105.9363 551.2656,102.8113 Q551.2656,99.6863 552.5781,98.03 Q553.9063,96.3738 556.4063,96.3738 Q557.1094,96.3738 557.75,96.53 Q558.4063,96.6863 558.9688,96.9831 L558.9688,99.7019 Q558.3438,99.1238 557.75,98.8581 Q557.1563,98.5769 556.5313,98.5769 Q555.1875,98.5769 554.5,99.655 Q553.8125,100.7175 553.8125,102.8113 Q553.8125,104.905 554.5,105.9831 Q555.1875,107.0456 556.5313,107.0456 Q557.1563,107.0456 557.75,106.78 Q558.3438,106.4988 558.9688,105.9206 L558.9688,108.6394 Z " fill="#000000"/><a href="https://bo4e.github.io/BO4E-python/latest/api/bo4e.com.html#bo4e.com.com.COM" target="_top" title="https://bo4e.github.io/BO4E-python/latest/api/bo4e.com.html#bo4e.com.com.COM" xlink:actuate="onRequest" xlink:href="https://bo4e.github.io/BO4E-python/latest/api/bo4e.com.html#bo4e.com.com.COM" xlink:show="new" xlink:title="https://bo4e.github.io/BO4E-python/latest/api/bo4e.com.html#bo4e.com.com.COM" xlink:type="simple"><text fill="#0000FF" font-family="sans-serif" font-size="14" lengthAdjust="spacing" text-decoration="underline" textLength="33" x="589.5" y="102.0251">COM</text></a><text fill="#000000" font-family="sans-serif" font-size="10" lengthAdjust="spacing" textLength="72" x="570" y="114.6091">bo4e.com.com</text></g><!--class Sigmoidparameter--><g id="elem_Sigmoidparameter"><rect codeLine="12" fill="#F1F1F1" height="37.9375" id="Sigmoidparameter" rx="2.5" ry="2.5" style="stroke:#181818;stroke-width:0.5;" width="172" x="507" y="157.03"/><ellipse cx="522" cy="175.9988" fill="#ADD1B2" rx="11" ry="11" style="stroke:#181818;stroke-width:1.0;"/><path d="M524.9688,181.6394 Q524.3906,181.9363 523.75,182.0769 Q523.1094,182.2331 522.4063,182.2331 Q519.9063,182.2331 518.5781,180.5925 Q517.2656,178.9363 517.2656,175.8113 Q517.2656,172.6863 518.5781,171.03 Q519.9063,169.3738 522.4063,169.3738 Q523.1094,169.3738 523.75,169.53 Q524.4063,169.6863 524.9688,169.9831 L524.9688,172.7019 Q524.3438,172.1238 523.75,171.8581 Q523.1563,171.5769 522.5313,171.5769 Q521.1875,171.5769 520.5,172.655 Q519.8125,173.7175 519.8125,175.8113 Q519.8125,177.905 520.5,178.9831 Q521.1875,180.0456 522.5313,180.0456 Q523.1563,180.0456 523.75,179.78 Q524.3438,179.4988 524.9688,178.9206 L524.9688,181.6394 Z " fill="#000000"/><a href="https://bo4e.github.io/BO4E-python/latest/api/bo4e.com.html#bo4e.com.sigmoidparameter.Sigmoidparameter" target="_top" title="https://bo4e.github.io/BO4E-python/latest/api/bo4e.com.html#bo4e.com.sigmoidparameter.Sigmoidparameter" xlink:actuate="onRequest" xlink:href="https://bo4e.github.io/BO4E-python/latest/api/bo4e.com.html#bo4e.com.sigmoidparameter.Sigmoidparameter" xlink:show="new" xlink:title="https://bo4e.github.io/BO4E-python/latest/api/bo4e.com.html#bo4e.com.sigmoidparameter.Sigmoidparameter" xlink:type="simple"><text fill="#0000FF" font-family="sans-serif" font-size="14" lengthAdjust="spacing" text-decoration="underline" textLength="126" x="543" y="175.0251">Sigmoidparameter</text></a><text fill="#000000" font-family="sans-serif" font-size="10" lengthAdjust="spacing" textLength="140" x="536" y="187.6091">bo4e.com.sigmoidparameter</text></g><!--class Preisstaffel--><g id="elem_Preisstaffel"><rect codeLine="3" fill="#F1F1F1" height="111.125" id="Preisstaffel" rx="2.5" ry="2.5" style="stroke:#181818;stroke-width:0.5;" width="294" x="7" y="84.44"/><ellipse cx="97.25" cy="103.4088" fill="#ADD1B2" rx="11" ry="11" style="stroke:#181818;stroke-width:1.0;"/><path d="M100.2188,109.0494 Q99.6406,109.3463 99,109.4869 Q98.3594,109.6431 97.6563,109.6431 Q95.1563,109.6431 93.8281,108.0025 Q92.5156,106.3463 92.5156,103.2213 Q92.5156,100.0963 93.8281,98.44 Q95.1563,96.7838 97.6563,96.7838 Q98.3594,96.7838 99,96.94 Q99.6563,97.0963 100.2188,97.3931 L100.2188,100.1119 Q99.5938,99.5338 99,99.2681 Q98.4063,98.9869 97.7813,98.9869 Q96.4375,98.9869 95.75,100.065 Q95.0625,101.1275 95.0625,103.2213 Q95.0625,105.315 95.75,106.3931 Q96.4375,107.4556 97.7813,107.4556 Q98.4063,107.4556 99,107.19 Q99.5938,106.9088 100.2188,106.3306 L100.2188,109.0494 Z " fill="#000000"/><a href="https://bo4e.github.io/BO4E-python/latest/api/bo4e.com.html#bo4e.com.preisstaffel.Preisstaffel" target="_top" title="https://bo4e.github.io/BO4E-python/latest/api/bo4e.com.html#bo4e.com.preisstaffel.Preisstaffel" xlink:actuate="onRequest" xlink:href="https://bo4e.github.io/BO4E-python/latest/api/bo4e.com.html#bo4e.com.preisstaffel.Preisstaffel" xlink:show="new" xlink:title="https://bo4e.github.io/BO4E-python/latest/api/bo4e.com.html#bo4e.com.preisstaffel.Preisstaffel" xlink:type="simple"><text fill="#0000FF" font-family="sans-serif" font-size="14" lengthAdjust="spacing" text-decoration="underline" textLength="75" x="132.75" y="102.4351">Preisstaffel</text></a><text fill="#000000" font-family="sans-serif" font-size="10" lengthAdjust="spacing" textLength="105" x="117.75" y="115.0191">bo4e.com.preisstaffel</text><line style="stroke:#181818;stroke-width:0.5;" x1="8" x2="300" y1="122.3775" y2="122.3775"/><text fill="#000000" font-family="sans-serif" font-size="14" lengthAdjust="spacing" textLength="254" x="13" y="139.3726">einheitspreis : Decimal [0..1] = None</text><text fill="#000000" font-family="sans-serif" font-size="14" lengthAdjust="spacing" textLength="282" x="13" y="155.6695">staffelgrenzeVon : Decimal [0..1] = None</text><text fill="#000000" font-family="sans-serif" font-size="14" lengthAdjust="spacing" textLength="276" x="13" y="171.9664">staffelgrenzeBis : Decimal [0..1] = None</text><text fill="#000000" font-family="sans-serif" font-size="14" lengthAdjust="spacing" textLength="181" x="13" y="188.2632">artikelId : str [0..1] = None</text></g><!--link Preisstaffel to COM--><g id="link_Preisstaffel_COM"><path codeLine="15" d="M301.43,127.6 C384.02,120.61 464.1544,113.8312 522.6344,108.8712 " fill="none" id="Preisstaffel-to-COM" style="stroke:#181818;stroke-width:1.0;"/><polygon fill="none" points="540.57,107.35,522.1273,102.8927,523.1415,114.8497,540.57,107.35" style="stroke:#181818;stroke-width:1.0;"/></g><!--link Preisstaffel to Sigmoidparameter--><g id="link_Preisstaffel_Sigmoidparameter"><path codeLine="16" d="M301.45,152.53 C311.45,153.37 321.37,154.2 331,155 C389.67,159.86 443.8078,164.2277 494.8078,168.2877 " fill="none" id="Preisstaffel-to-Sigmoidparameter" style="stroke:#181818;stroke-width:1.0;"/><polygon fill="#181818" points="506.77,169.24,501.1063,164.7765,494.8078,168.2877,500.4715,172.7512,506.77,169.24" style="stroke:#181818;stroke-width:1.0;"/><text fill="#000000" font-family="sans-serif" font-size="13" lengthAdjust="spacing" textLength="118" x="332" y="151.0669">sigmoidparameter</text><text fill="#000000" font-family="sans-serif" font-size="13" lengthAdjust="spacing" textLength="24" x="474.9423" y="181.3713">0..1</text></g><!--SRC=[hLB1IiD043rtls98RqAJ5ef8qOAjFNZG2eANciCscMG7DxjXTqIi-kyciQrjB2BOmnpUp9kPnvlHc36m1KUvOaZ9OS9aZH29bjv3i5WevjAFecXfXnZcnEfv6PAD9lFXh5U-ih8cqfBHSoHB-c8bjWWL5xgxHQL3yfvbbg4ExtO0x88uVZJddbOu6lJ71ti3a7wl1Tv41yae9FOD4KPmXGaLKiEY7uQ362xWrXeKdNL7xj2iyC6QFp8dlysKZka9zNLQKJoxLlb322CBzALCy9zMmWR5SUF11a9trhyyEvtMFXptP7LCvpTGnU6xLD58gGZ7tkqfBoobfNILVOmkl6ybe9quBB4zfz7RRgtFjF-JlTxxUEjmRKAhNX5E8AXF7NpJVaYiFgAzIIXA4GeibkYyyCg-mFxaZ52d_XC0]--></g></svg>