<svg xmlns="http://www.w3.org/2000/svg" xmlns:xlink="http://www.w3.org/1999/xlink" contentStyleType="text/css" data-diagram-type="CLASS" height="355px" preserveAspectRatio="none" style="width:1096px;height:355px;background:#FFFFFF;" version="1.1" viewBox="0 0 1096 355" width="1096px" zoomAndPan="magnify"><defs/><g><!--cluster bo4e--><g class="cluster" data-entity="bo4e" data-source-line="9" data-uid="ent0005" id="cluster_bo4e"><path d="M837.54,6 L877.416,6 A3.75,3.75 0 0 1 879.916,8.5 L886.916,28.2969 L1087.14,28.2969 A2.5,2.5 0 0 1 1089.64,30.7969 L1089.64,345.5 A2.5,2.5 0 0 1 1087.14,348 L837.54,348 A2.5,2.5 0 0 1 835.04,345.5 L835.04,8.5 A2.5,2.5 0 0 1 837.54,6" fill="none" style="stroke:#000000;stroke-width:1.5;"/><line style="stroke:#000000;stroke-width:1.5;" x1="835.04" x2="886.916" y1="28.2969" y2="28.2969"/><text fill="#000000" font-family="sans-serif" font-size="14" font-weight="bold" lengthAdjust="spacing" textLength="38.876" x="839.04" y="20.9951">bo4e</text></g><!--cluster com--><g class="cluster" data-entity="com" data-source-line="8" data-uid="ent0003" id="cluster_com"><path d="M884.28,49 L961.9792,49 A3.75,3.75 0 0 1 964.4792,51.5 L971.4792,71.2969 L1040.4,71.2969 A2.5,2.5 0 0 1 1042.9,73.7969 L1042.9,208.5 A2.5,2.5 0 0 1 1040.4,211 L884.28,211 A2.5,2.5 0 0 1 881.78,208.5 L881.78,51.5 A2.5,2.5 0 0 1 884.28,49" fill="#E0A86C" style="stroke:#000000;stroke-width:1.5;"/><line style="stroke:#000000;stroke-width:1.5;" x1="881.78" x2="971.4792" y1="71.2969" y2="71.2969"/><a href="file:////home/runner/work/BO4E-python/BO4E-python/docs/../.tox/docs/tmp/html/api/bo4e.com.html" target="_top" title="file:////home/runner/work/BO4E-python/BO4E-python/docs/../.tox/docs/tmp/html/api/bo4e.com.html" xlink:actuate="onRequest" xlink:href="file:////home/runner/work/BO4E-python/BO4E-python/docs/../.tox/docs/tmp/html/api/bo4e.com.html" xlink:show="new" xlink:title="file:////home/runner/work/BO4E-python/BO4E-python/docs/../.tox/docs/tmp/html/api/bo4e.com.html" xlink:type="simple"><text fill="#0000FF" font-family="sans-serif" font-size="14" font-weight="bold" lengthAdjust="spacing" text-decoration="underline" textLength="76.6992" x="885.78" y="63.9951">bo4e.com</text></a></g><!--cluster enum--><g class="cluster" data-entity="enum" data-source-line="12" data-uid="ent0007" id="cluster_enum"><path d="M861.54,235 L950.7509,235 A3.75,3.75 0 0 1 953.2509,237.5 L960.2509,257.2969 L1063.14,257.2969 A2.5,2.5 0 0 1 1065.64,259.7969 L1065.64,321.5 A2.5,2.5 0 0 1 1063.14,324 L861.54,324 A2.5,2.5 0 0 1 859.04,321.5 L859.04,237.5 A2.5,2.5 0 0 1 861.54,235" fill="#D1C358" style="stroke:#000000;stroke-width:1.5;"/><line style="stroke:#000000;stroke-width:1.5;" x1="859.04" x2="960.2509" y1="257.2969" y2="257.2969"/><a href="file:////home/runner/work/BO4E-python/BO4E-python/docs/../.tox/docs/tmp/html/api/bo4e.enum.html" target="_top" title="file:////home/runner/work/BO4E-python/BO4E-python/docs/../.tox/docs/tmp/html/api/bo4e.enum.html" xlink:actuate="onRequest" xlink:href="file:////home/runner/work/BO4E-python/BO4E-python/docs/../.tox/docs/tmp/html/api/bo4e.enum.html" xlink:show="new" xlink:title="file:////home/runner/work/BO4E-python/BO4E-python/docs/../.tox/docs/tmp/html/api/bo4e.enum.html" xlink:type="simple"><text fill="#0000FF" font-family="sans-serif" font-size="14" font-weight="bold" lengthAdjust="spacing" text-decoration="underline" textLength="88.2109" x="863.04" y="249.9951">bo4e.enum</text></a></g><!--class COM--><g class="entity" data-entity="COM" data-source-line="9" data-uid="ent0004" id="entity_COM"><rect fill="#F1F1F1" height="37.9375" rx="2.5" ry="2.5" style="stroke:#181818;stroke-width:0.5;" width="106.0527" x="909.32" y="84.03"/><ellipse cx="924.32" cy="102.9987" fill="#ADD1B2" rx="11" ry="11" style="stroke:#181818;stroke-width:1;"/><path d="M927.2888,108.6394 Q926.7106,108.9362 926.07,109.0769 Q925.4294,109.2331 924.7263,109.2331 Q922.2263,109.2331 920.8981,107.5925 Q919.5856,105.9362 919.5856,102.8112 Q919.5856,99.6862 920.8981,98.03 Q922.2263,96.3737 924.7263,96.3737 Q925.4294,96.3737 926.07,96.53 Q926.7263,96.6862 927.2888,96.9831 L927.2888,99.7019 Q926.6638,99.1237 926.07,98.8581 Q925.4763,98.5769 924.8513,98.5769 Q923.5075,98.5769 922.82,99.655 Q922.1325,100.7175 922.1325,102.8112 Q922.1325,104.905 922.82,105.9831 Q923.5075,107.0456 924.8513,107.0456 Q925.4763,107.0456 926.07,106.78 Q926.6638,106.4987 927.2888,105.9206 L927.2888,108.6394 Z " fill="#000000"/><a href="file:////home/runner/work/BO4E-python/BO4E-python/docs/../.tox/docs/tmp/html/api/bo4e.com.html#bo4e.com.com.COM" target="_top" title="file:////home/runner/work/BO4E-python/BO4E-python/docs/../.tox/docs/tmp/html/api/bo4e.com.html#bo4e.com.com.COM" xlink:actuate="onRequest" xlink:href="file:////home/runner/work/BO4E-python/BO4E-python/docs/../.tox/docs/tmp/html/api/bo4e.com.html#bo4e.com.com.COM" xlink:show="new" xlink:title="file:////home/runner/work/BO4E-python/BO4E-python/docs/../.tox/docs/tmp/html/api/bo4e.com.html#bo4e.com.com.COM" xlink:type="simple"><text fill="#0000FF" font-family="sans-serif" font-size="14" lengthAdjust="spacing" text-decoration="underline" textLength="32.874" x="958.9094" y="102.0251">COM</text></a><text fill="#000000" font-family="sans-serif" font-size="10" lengthAdjust="spacing" textLength="74.0527" x="938.32" y="114.6091">bo4e.com.com</text></g><!--class Zeitraum--><g class="entity" data-entity="Zeitraum" data-source-line="10" data-uid="ent0006" id="entity_Zeitraum"><rect fill="#F1F1F1" height="37.9375" rx="2.5" ry="2.5" style="stroke:#181818;stroke-width:0.5;" width="129.1143" x="897.78" y="157.03"/><ellipse cx="912.78" cy="175.9988" fill="#ADD1B2" rx="11" ry="11" style="stroke:#181818;stroke-width:1;"/><path d="M915.7488,181.6394 Q915.1706,181.9363 914.53,182.0769 Q913.8894,182.2331 913.1863,182.2331 Q910.6863,182.2331 909.3581,180.5925 Q908.0456,178.9363 908.0456,175.8113 Q908.0456,172.6863 909.3581,171.03 Q910.6863,169.3738 913.1863,169.3738 Q913.8894,169.3738 914.53,169.53 Q915.1863,169.6863 915.7488,169.9831 L915.7488,172.7019 Q915.1238,172.1238 914.53,171.8581 Q913.9363,171.5769 913.3113,171.5769 Q911.9675,171.5769 911.28,172.655 Q910.5925,173.7175 910.5925,175.8113 Q910.5925,177.905 911.28,178.9831 Q911.9675,180.0456 913.3113,180.0456 Q913.9363,180.0456 914.53,179.78 Q915.1238,179.4988 915.7488,178.9206 L915.7488,181.6394 Z " fill="#000000"/><a href="file:////home/runner/work/BO4E-python/BO4E-python/docs/../.tox/docs/tmp/html/api/bo4e.com.html#bo4e.com.zeitraum.Zeitraum" target="_top" title="file:////home/runner/work/BO4E-python/BO4E-python/docs/../.tox/docs/tmp/html/api/bo4e.com.html#bo4e.com.zeitraum.Zeitraum" xlink:actuate="onRequest" xlink:href="file:////home/runner/work/BO4E-python/BO4E-python/docs/../.tox/docs/tmp/html/api/bo4e.com.html#bo4e.com.zeitraum.Zeitraum" xlink:show="new" xlink:title="file:////home/runner/work/BO4E-python/BO4E-python/docs/../.tox/docs/tmp/html/api/bo4e.com.html#bo4e.com.zeitraum.Zeitraum" xlink:type="simple"><text fill="#0000FF" font-family="sans-serif" font-size="14" lengthAdjust="spacing" text-decoration="underline" textLength="64.4287" x="943.1228" y="175.0251">Zeitraum</text></a><text fill="#000000" font-family="sans-serif" font-size="10" lengthAdjust="spacing" textLength="97.1143" x="926.78" y="187.6091">bo4e.com.zeitraum</text></g><!--class Preisgarantietyp--><g class="entity" data-entity="Preisgarantietyp" data-source-line="13" data-uid="ent0008" id="entity_Preisgarantietyp"><rect fill="#F1F1F1" height="37.9375" rx="2.5" ry="2.5" style="stroke:#181818;stroke-width:0.5;" width="174.5977" x="875.04" y="270.03"/><ellipse cx="890.04" cy="288.9988" fill="#ADD1B2" rx="11" ry="11" style="stroke:#181818;stroke-width:1;"/><path d="M893.0088,294.6394 Q892.4306,294.9363 891.79,295.0769 Q891.1494,295.2331 890.4463,295.2331 Q887.9463,295.2331 886.6181,293.5925 Q885.3056,291.9363 885.3056,288.8113 Q885.3056,285.6863 886.6181,284.03 Q887.9463,282.3738 890.4463,282.3738 Q891.1494,282.3738 891.79,282.53 Q892.4463,282.6863 893.0088,282.9831 L893.0088,285.7019 Q892.3838,285.1238 891.79,284.8581 Q891.1963,284.5769 890.5713,284.5769 Q889.2275,284.5769 888.54,285.655 Q887.8525,286.7175 887.8525,288.8113 Q887.8525,290.905 888.54,291.9831 Q889.2275,293.0456 890.5713,293.0456 Q891.1963,293.0456 891.79,292.78 Q892.3838,292.4988 893.0088,291.9206 L893.0088,294.6394 Z " fill="#000000"/><a href="file:////home/runner/work/BO4E-python/BO4E-python/docs/../.tox/docs/tmp/html/api/bo4e.enum.html#bo4e.enum.preisgarantietyp.Preisgarantietyp" target="_top" title="file:////home/runner/work/BO4E-python/BO4E-python/docs/../.tox/docs/tmp/html/api/bo4e.enum.html#bo4e.enum.preisgarantietyp.Preisgarantietyp" xlink:actuate="onRequest" xlink:href="file:////home/runner/work/BO4E-python/BO4E-python/docs/../.tox/docs/tmp/html/api/bo4e.enum.html#bo4e.enum.preisgarantietyp.Preisgarantietyp" xlink:show="new" xlink:title="file:////home/runner/work/BO4E-python/BO4E-python/docs/../.tox/docs/tmp/html/api/bo4e.enum.html#bo4e.enum.preisgarantietyp.Preisgarantietyp" xlink:type="simple"><text fill="#0000FF" font-family="sans-serif" font-size="14" lengthAdjust="spacing" text-decoration="underline" textLength="115.3223" x="917.6777" y="288.0251">Preisgarantietyp</text></a><text fill="#000000" font-family="sans-serif" font-size="10" lengthAdjust="spacing" textLength="142.5977" x="904.04" y="300.6091">bo4e.enum.preisgarantietyp</text></g><!--class Preisgarantie--><g class="entity" data-entity="Preisgarantie" data-source-line="3" data-uid="ent0002" id="entity_Preisgarantie"><rect fill="#F1F1F1" height="78.5313" rx="2.5" ry="2.5" style="stroke:#181818;stroke-width:0.5;" width="655.043" x="7" y="136.73"/><ellipse cx="270.6719" cy="155.6988" fill="#ADD1B2" rx="11" ry="11" style="stroke:#181818;stroke-width:1;"/><path d="M273.6406,161.3394 Q273.0625,161.6363 272.4219,161.7769 Q271.7813,161.9331 271.0781,161.9331 Q268.5781,161.9331 267.25,160.2925 Q265.9375,158.6363 265.9375,155.5113 Q265.9375,152.3863 267.25,150.73 Q268.5781,149.0738 271.0781,149.0738 Q271.7813,149.0738 272.4219,149.23 Q273.0781,149.3863 273.6406,149.6831 L273.6406,152.4019 Q273.0156,151.8238 272.4219,151.5581 Q271.8281,151.2769 271.2031,151.2769 Q269.8594,151.2769 269.1719,152.355 Q268.4844,153.4175 268.4844,155.5113 Q268.4844,157.605 269.1719,158.6831 Q269.8594,159.7456 271.2031,159.7456 Q271.8281,159.7456 272.4219,159.48 Q273.0156,159.1988 273.6406,158.6206 L273.6406,161.3394 Z " fill="#000000"/><a href="file:////home/runner/work/BO4E-python/BO4E-python/docs/../.tox/docs/tmp/html/api/bo4e.com.html#bo4e.com.preisgarantie.Preisgarantie" target="_top" title="file:////home/runner/work/BO4E-python/BO4E-python/docs/../.tox/docs/tmp/html/api/bo4e.com.html#bo4e.com.preisgarantie.Preisgarantie" xlink:actuate="onRequest" xlink:href="file:////home/runner/work/BO4E-python/BO4E-python/docs/../.tox/docs/tmp/html/api/bo4e.com.html#bo4e.com.preisgarantie.Preisgarantie" xlink:show="new" xlink:title="file:////home/runner/work/BO4E-python/BO4E-python/docs/../.tox/docs/tmp/html/api/bo4e.com.html#bo4e.com.preisgarantie.Preisgarantie" xlink:type="simple"><text fill="#0000FF" font-family="sans-serif" font-size="14" lengthAdjust="spacing" text-decoration="underline" textLength="92.6611" x="304.4409" y="154.7251">Preisgarantie</text></a><text fill="#000000" font-family="sans-serif" font-size="10" lengthAdjust="spacing" textLength="119.1992" x="291.1719" y="167.3091">bo4e.com.preisgarantie</text><line style="stroke:#181818;stroke-width:0.5;" x1="8" x2="661.043" y1="174.6675" y2="174.6675"/><text fill="#000000" font-family="sans-serif" font-size="14" lengthAdjust="spacing" textLength="643.043" x="13" y="191.6626">_typ : Literal[&lt;ComTyp.PREISGARANTIE: 'PREISGARANTIE'&gt;] [1] = ComTyp.PREISGARANTIE</text><text fill="#000000" font-family="sans-serif" font-size="14" lengthAdjust="spacing" textLength="226.543" x="13" y="207.9595">beschreibung : str [0..1] = None</text></g><!--link Preisgarantie to COM--><g class="link" data-entity-1="Preisgarantie" data-entity-2="COM" data-source-line="16" data-uid="lnk9" id="link_Preisgarantie_COM"><path codeLine="16" d="M662.18,137.9 C758.35,126.68 834.9111,117.7443 891.1811,111.1843" fill="none" id="Preisgarantie-to-COM" style="stroke:#181818;stroke-width:1;"/><polygon fill="none" points="909.06,109.1,890.4863,105.2247,891.8759,117.144,909.06,109.1" style="stroke:#181818;stroke-width:1;"/></g><!--link Preisgarantie to Preisgarantietyp--><g class="link" data-entity-1="Preisgarantie" data-entity-2="Preisgarantietyp" data-source-line="17" data-uid="lnk10" id="link_Preisgarantie_Preisgarantietyp"><path codeLine="17" d="M555.72,215.76 C665.74,235.63 780.751,256.3877 862.881,271.2177" fill="none" id="Preisgarantie-to-Preisgarantietyp" style="stroke:#181818;stroke-width:1;"/><polygon fill="#181818" points="874.69,273.35,869.4963,268.3475,862.881,271.2177,868.0747,276.2202,874.69,273.35" style="stroke:#181818;stroke-width:1;"/><text fill="#000000" font-family="sans-serif" font-size="13" lengthAdjust="spacing" textLength="107.4976" x="702.04" y="239.0669">preisgarantietyp</text><text fill="#000000" font-family="sans-serif" font-size="13" lengthAdjust="spacing" textLength="24.8066" x="842.1611" y="284.7223">0..1</text></g><!--link Preisgarantie to Zeitraum--><g class="link" data-entity-1="Preisgarantie" data-entity-2="Zeitraum" data-source-line="18" data-uid="lnk11" id="link_Preisgarantie_Zeitraum"><path codeLine="18" d="M662.18,176 C751.98,176 828.27,176 885.38,176" fill="none" id="Preisgarantie-to-Zeitraum" style="stroke:#181818;stroke-width:1;"/><polygon fill="#181818" points="897.38,176,891.38,172,885.38,176,891.38,180,897.38,176" style="stroke:#181818;stroke-width:1;"/><text fill="#000000" font-family="sans-serif" font-size="13" lengthAdjust="spacing" textLength="125.2583" x="693.04" y="172.0669">zeitlicheGueltigkeit</text><text fill="#000000" font-family="sans-serif" font-size="13" lengthAdjust="spacing" textLength="24.8066" x="865.0069" y="188.8946">0..1</text></g><!--SRC=[nLJVQzim47wk_eeZUIWC8YMiAyMqWIo4KbX_qFQfhXcAVOb5BSb8CcswxN-VbDPfx1ZsrCnmSDznT_guxyu5BXmu3KOiSmUPC9WweHKXQS6jXLuSBqI14VDVhYKoKoc5XZrhyyI-Nn_D1kNAvLer_4odbb7AgDClRy39akLE5eoNWitr4T9KIneY_Gqg3Ggxv8Oh9v3UR2Dee2HvLATMl68q6ewxotl0RRC8Vf63dsvLGWG_X4F3Y_XqgkNzggGtjxEBk_F9xUJg_c8MmM437uuJY4S9d45NDZcOeqrp_z2yKalVspe3yP3ITSMLLaZ-4AAuH5lo53z_d52Z95dFe8RGdmqd9yVJC8QzAnjiUdq9thgryxPcwnF-0xrN5CxmIjA7TmTgfvjjdR-cNATwdVSWCwfgM-S0juKE6FhPAFtwxMGFIc_Oz3zWumnTk9TM0Dg1tI5tDjezQHyCrzNwLGm6lyURjGzhrqxm6L-W5swqzp6rNPeHj1dyir5uSBD34OGzAKIQutc5XHFB9uy9oKM6857EqLXYS_qChROBWKLc_m80]--></g></svg>