<?plantuml 1.2026.1?><svg xmlns="http://www.w3.org/2000/svg" xmlns:xlink="http://www.w3.org/1999/xlink" contentStyleType="text/css" data-diagram-type="CLASS" height="190px" preserveAspectRatio="none" style="width:688px;height:190px;background:#FFFFFF;" version="1.1" viewBox="0 0 688 190" width="688px" zoomAndPan="magnify"><defs/><g><!--cluster bo4e--><g class="cluster" data-qualified-name="bo4e" data-source-line="14" id="ent0005"><path d="M441.48,6 L481.356,6 A3.75,3.75 0 0 1 483.856,8.5 L490.856,28.2969 L679.04,28.2969 A2.5,2.5 0 0 1 681.54,30.7969 L681.54,159.5 A2.5,2.5 0 0 1 679.04,162 L441.48,162 A2.5,2.5 0 0 1 438.98,159.5 L438.98,8.5 A2.5,2.5 0 0 1 441.48,6" fill="none" style="stroke:#000000;stroke-width:1.5;"/><line style="stroke:#000000;stroke-width:1.5;" x1="438.98" x2="490.856" y1="28.2969" y2="28.2969"/><text fill="#000000" font-family="sans-serif" font-size="14" font-weight="bold" lengthAdjust="spacing" textLength="38.876" x="442.98" y="20.9951">bo4e</text></g><!--cluster com--><g class="cluster" data-qualified-name="bo4e.com" data-source-line="13" id="ent0003"><path d="M465.48,49 L543.1792,49 A3.75,3.75 0 0 1 545.6792,51.5 L552.6792,71.2969 L655.04,71.2969 A2.5,2.5 0 0 1 657.54,73.7969 L657.54,135.5 A2.5,2.5 0 0 1 655.04,138 L465.48,138 A2.5,2.5 0 0 1 462.98,135.5 L462.98,51.5 A2.5,2.5 0 0 1 465.48,49" fill="#E0A86C" style="stroke:#000000;stroke-width:1.5;"/><line style="stroke:#000000;stroke-width:1.5;" x1="462.98" x2="552.6792" y1="71.2969" y2="71.2969"/><text fill="#000000" font-family="sans-serif" font-size="14" font-weight="bold" lengthAdjust="spacing" textLength="76.6992" x="466.98" y="63.9951">bo4e.com</text></g><!--class Sigmoidparameter--><g class="entity" data-qualified-name="bo4e.com.Sigmoidparameter" data-source-line="14" id="ent0004"><rect fill="#F1F1F1" height="37.9375" rx="2.5" ry="2.5" style="stroke:#181818;stroke-width:0.5;" width="162.5527" x="478.98" y="84.03"/><ellipse cx="493.98" cy="102.9987" fill="#ADD1B2" rx="11" ry="11" style="stroke:#181818;stroke-width:1;"/><path d="M496.9488,108.6394 Q496.3706,108.9362 495.73,109.0769 Q495.0894,109.2331 494.3863,109.2331 Q491.8863,109.2331 490.5581,107.5925 Q489.2456,105.9362 489.2456,102.8112 Q489.2456,99.6862 490.5581,98.03 Q491.8863,96.3737 494.3863,96.3737 Q495.0894,96.3737 495.73,96.53 Q496.3863,96.6862 496.9488,96.9831 L496.9488,99.7019 Q496.3238,99.1237 495.73,98.8581 Q495.1363,98.5769 494.5113,98.5769 Q493.1675,98.5769 492.48,99.655 Q491.7925,100.7175 491.7925,102.8112 Q491.7925,104.905 492.48,105.9831 Q493.1675,107.0456 494.5113,107.0456 Q495.1363,107.0456 495.73,106.78 Q496.3238,106.4987 496.9488,105.9206 L496.9488,108.6394 Z " fill="#000000"/><a href="https://bo4e.github.io/BO4E-python/latest/api/com.Sigmoidparameter.html" target="_top" title="https://bo4e.github.io/BO4E-python/latest/api/com.Sigmoidparameter.html" xlink:actuate="onRequest" xlink:href="https://bo4e.github.io/BO4E-python/latest/api/com.Sigmoidparameter.html" xlink:show="new" xlink:title="https://bo4e.github.io/BO4E-python/latest/api/com.Sigmoidparameter.html" xlink:type="simple"><text fill="#0000FF" font-family="sans-serif" font-size="14" lengthAdjust="spacing" text-decoration="underline" textLength="130.5527" x="507.98" y="102.0251">Sigmoidparameter</text></a><text fill="#000000" font-family="sans-serif" font-size="10" lengthAdjust="spacing" textLength="117.7881" x="514.3623" y="114.6091">com.Sigmoidparameter</text></g><!--class Preisstaffel--><g class="entity" data-qualified-name="Preisstaffel" data-source-line="3" id="ent0002"><rect fill="#F1F1F1" height="160.0156" rx="2.5" ry="2.5" style="stroke:#181818;stroke-width:0.5;" width="264.9844" x="7" y="22.99"/><ellipse cx="95.2178" cy="41.9587" fill="#ADD1B2" rx="11" ry="11" style="stroke:#181818;stroke-width:1;"/><path d="M98.1865,47.5994 Q97.6084,47.8962 96.9678,48.0369 Q96.3271,48.1931 95.624,48.1931 Q93.124,48.1931 91.7959,46.5525 Q90.4834,44.8962 90.4834,41.7712 Q90.4834,38.6462 91.7959,36.99 Q93.124,35.3337 95.624,35.3337 Q96.3271,35.3337 96.9678,35.49 Q97.624,35.6462 98.1865,35.9431 L98.1865,38.6619 Q97.5615,38.0837 96.9678,37.8181 Q96.374,37.5369 95.749,37.5369 Q94.4053,37.5369 93.7178,38.615 Q93.0303,39.6775 93.0303,41.7712 Q93.0303,43.865 93.7178,44.9431 Q94.4053,46.0056 95.749,46.0056 Q96.374,46.0056 96.9678,45.74 Q97.5615,45.4587 98.1865,44.8806 L98.1865,47.5994 Z " fill="#000000"/><a href="https://bo4e.github.io/BO4E-python/latest/api/com.Preisstaffel.html" target="_top" title="https://bo4e.github.io/BO4E-python/latest/api/com.Preisstaffel.html" xlink:actuate="onRequest" xlink:href="https://bo4e.github.io/BO4E-python/latest/api/com.Preisstaffel.html" xlink:show="new" xlink:title="https://bo4e.github.io/BO4E-python/latest/api/com.Preisstaffel.html" xlink:type="simple"><text fill="#0000FF" font-family="sans-serif" font-size="14" lengthAdjust="spacing" text-decoration="underline" textLength="77.7178" x="116.8833" y="40.9851">Preisstaffel</text></a><text fill="#000000" font-family="sans-serif" font-size="10" lengthAdjust="spacing" textLength="80.0488" x="115.7178" y="53.5691">com.Preisstaffel</text><line style="stroke:#181818;stroke-width:0.5;" x1="8" x2="270.9844" y1="60.9275" y2="60.9275"/><text fill="#000000" font-family="sans-serif" font-size="14" lengthAdjust="spacing" textLength="94.0215" x="13" y="77.9226">_id : str [0..1]</text><text fill="#000000" font-family="sans-serif" font-size="14" lengthAdjust="spacing" textLength="252.9844" x="13" y="94.2195">_typ : Literal["PREISSTAFFEL"] [0..1]</text><text fill="#000000" font-family="sans-serif" font-size="14" lengthAdjust="spacing" textLength="132.5215" x="13" y="110.5164">_version : str [0..1]</text><text fill="#000000" font-family="sans-serif" font-size="14" lengthAdjust="spacing" textLength="131.585" x="13" y="126.8132">artikelId : str [0..1]</text><text fill="#000000" font-family="sans-serif" font-size="14" lengthAdjust="spacing" textLength="177.1328" x="13" y="143.1101">einheitspreis : float [0..1]</text><text fill="#000000" font-family="sans-serif" font-size="14" lengthAdjust="spacing" textLength="199.7598" x="13" y="159.407">staffelgrenzeBis : float [0..1]</text><text fill="#000000" font-family="sans-serif" font-size="14" lengthAdjust="spacing" textLength="205.9873" x="13" y="175.7039">staffelgrenzeVon : float [0..1]</text></g><!--link Preisstaffel to Sigmoidparameter--><g class="link" data-entity-1="ent0002" data-entity-2="ent0004" data-link-type="composition" data-source-line="25" id="lnk6"><path codeLine="25" d="M272.42,103 C340.03,103 408.18,103 466.54,103" fill="none" id="Preisstaffel-to-Sigmoidparameter" style="stroke:#181818;stroke-width:1;"/><polygon fill="#181818" points="478.54,103,472.54,99,466.54,103,472.54,107,478.54,103" style="stroke:#181818;stroke-width:1;"/><text fill="#000000" font-family="sans-serif" font-size="13" lengthAdjust="spacing" textLength="119.7485" x="302.98" y="99.0669">sigmoidparameter</text><text fill="#000000" font-family="sans-serif" font-size="13" lengthAdjust="spacing" textLength="24.8066" x="446.2293" y="115.7409">0..1</text></g><?plantuml-src fP9FQy904CNl-HH3UYkOA4WfKWfHOn4KHQKN6yfg9cRe9XjsforQ_EvT_nHCp47etlQtRsVVlXc92GChqBH96MBIk6PIkUEifJ06tEKoPIvCn_TNgetUXZZzN7ca_Ewa7JQABQSgzwLWDEoBWlorohofHZA6HPAWz5BE95oIA7hBdmpjiDDgFbVbBWXJKiEF0tQzKmmTCAnXsVIyLdI2l2qi7H6Z5dBfJcVXS3vV18D1E7AZal8BjR7VkguXDDC7oc5DUQGyHM9J7EpOuqGgmPU2iyMDndo7tHiqhqS79StUSNAHeId46i4zPcmpESRmju6xi1ayFlJEKVoZCNFQP8hYGcZxf0tjr9mglMfGLN1qLuLdTq5T2DqwsAk3_JfuK_FdmvVnPDYV1hDW72x2sIq3i3_4NvgsHkCUtCEXU_r1UxM272Ub6273R6NBEoPLtr0QPqW8PMn-0G00?></g></svg>