<svg xmlns="http://www.w3.org/2000/svg" xmlns:xlink="http://www.w3.org/1999/xlink" contentStyleType="text/css" data-diagram-type="CLASS" height="428px" preserveAspectRatio="none" style="width:838px;height:428px;background:#FFFFFF;" version="1.1" viewBox="0 0 838 428" width="838px" zoomAndPan="magnify"><defs/><g><!--cluster bo4e--><g class="cluster" data-entity="bo4e" data-source-line="9" data-uid="ent0005" id="cluster_bo4e"><path d="M572.35,6 L612.226,6 A3.75,3.75 0 0 1 614.726,8.5 L621.726,28.2969 L828.86,28.2969 A2.5,2.5 0 0 1 831.36,30.7969 L831.36,418.5 A2.5,2.5 0 0 1 828.86,421 L572.35,421 A2.5,2.5 0 0 1 569.85,418.5 L569.85,8.5 A2.5,2.5 0 0 1 572.35,6" fill="none" style="stroke:#000000;stroke-width:1.5;"/><line style="stroke:#000000;stroke-width:1.5;" x1="569.85" x2="621.726" y1="28.2969" y2="28.2969"/><text fill="#000000" font-family="sans-serif" font-size="14" font-weight="bold" lengthAdjust="spacing" textLength="38.876" x="573.85" y="20.9951">bo4e</text></g><!--cluster com--><g class="cluster" data-entity="com" data-source-line="8" data-uid="ent0003" id="cluster_com"><path d="M634.08,49 L711.7792,49 A3.75,3.75 0 0 1 714.2792,51.5 L721.2792,71.2969 L767.13,71.2969 A2.5,2.5 0 0 1 769.63,73.7969 L769.63,135.5 A2.5,2.5 0 0 1 767.13,138 L634.08,138 A2.5,2.5 0 0 1 631.58,135.5 L631.58,51.5 A2.5,2.5 0 0 1 634.08,49" fill="#E0A86C" style="stroke:#000000;stroke-width:1.5;"/><line style="stroke:#000000;stroke-width:1.5;" x1="631.58" x2="721.2792" y1="71.2969" y2="71.2969"/><a href="https://bo4e.github.io/BO4E-python/latest/api/bo4e.com.html" target="_top" title="https://bo4e.github.io/BO4E-python/latest/api/bo4e.com.html" xlink:actuate="onRequest" xlink:href="https://bo4e.github.io/BO4E-python/latest/api/bo4e.com.html" xlink:show="new" xlink:title="https://bo4e.github.io/BO4E-python/latest/api/bo4e.com.html" xlink:type="simple"><text fill="#0000FF" font-family="sans-serif" font-size="14" font-weight="bold" lengthAdjust="spacing" text-decoration="underline" textLength="76.6992" x="635.58" y="63.9951">bo4e.com</text></a></g><!--cluster enum--><g class="cluster" data-entity="enum" data-source-line="11" data-uid="ent0006" id="cluster_enum"><path d="M596.35,162 L685.5609,162 A3.75,3.75 0 0 1 688.0609,164.5 L695.0609,184.2969 L804.86,184.2969 A2.5,2.5 0 0 1 807.36,186.7969 L807.36,394.5 A2.5,2.5 0 0 1 804.86,397 L596.35,397 A2.5,2.5 0 0 1 593.85,394.5 L593.85,164.5 A2.5,2.5 0 0 1 596.35,162" fill="#D1C358" style="stroke:#000000;stroke-width:1.5;"/><line style="stroke:#000000;stroke-width:1.5;" x1="593.85" x2="695.0609" y1="184.2969" y2="184.2969"/><a href="https://bo4e.github.io/BO4E-python/latest/api/bo4e.enum.html" target="_top" title="https://bo4e.github.io/BO4E-python/latest/api/bo4e.enum.html" xlink:actuate="onRequest" xlink:href="https://bo4e.github.io/BO4E-python/latest/api/bo4e.enum.html" xlink:show="new" xlink:title="https://bo4e.github.io/BO4E-python/latest/api/bo4e.enum.html" xlink:type="simple"><text fill="#0000FF" font-family="sans-serif" font-size="14" font-weight="bold" lengthAdjust="spacing" text-decoration="underline" textLength="88.2109" x="597.85" y="176.9951">bo4e.enum</text></a></g><!--class COM--><g class="entity" data-entity="COM" data-source-line="9" data-uid="ent0004" id="entity_COM"><rect fill="#F1F1F1" height="37.9375" rx="2.5" ry="2.5" style="stroke:#181818;stroke-width:0.5;" width="106.0527" x="647.58" y="84.03"/><ellipse cx="662.58" cy="102.9987" fill="#ADD1B2" rx="11" ry="11" style="stroke:#181818;stroke-width:1;"/><path d="M665.5488,108.6394 Q664.9706,108.9362 664.33,109.0769 Q663.6894,109.2331 662.9863,109.2331 Q660.4863,109.2331 659.1581,107.5925 Q657.8456,105.9362 657.8456,102.8112 Q657.8456,99.6862 659.1581,98.03 Q660.4863,96.3737 662.9863,96.3737 Q663.6894,96.3737 664.33,96.53 Q664.9863,96.6862 665.5488,96.9831 L665.5488,99.7019 Q664.9238,99.1237 664.33,98.8581 Q663.7363,98.5769 663.1113,98.5769 Q661.7675,98.5769 661.08,99.655 Q660.3925,100.7175 660.3925,102.8112 Q660.3925,104.905 661.08,105.9831 Q661.7675,107.0456 663.1113,107.0456 Q663.7363,107.0456 664.33,106.78 Q664.9238,106.4987 665.5488,105.9206 L665.5488,108.6394 Z " fill="#000000"/><a href="https://bo4e.github.io/BO4E-python/latest/api/bo4e.com.html#bo4e.com.com.COM" target="_top" title="https://bo4e.github.io/BO4E-python/latest/api/bo4e.com.html#bo4e.com.com.COM" xlink:actuate="onRequest" xlink:href="https://bo4e.github.io/BO4E-python/latest/api/bo4e.com.html#bo4e.com.com.COM" xlink:show="new" xlink:title="https://bo4e.github.io/BO4E-python/latest/api/bo4e.com.html#bo4e.com.com.COM" xlink:type="simple"><text fill="#0000FF" font-family="sans-serif" font-size="14" lengthAdjust="spacing" text-decoration="underline" textLength="32.874" x="697.1694" y="102.0251">COM</text></a><text fill="#000000" font-family="sans-serif" font-size="10" lengthAdjust="spacing" textLength="74.0527" x="676.58" y="114.6091">bo4e.com.com</text></g><!--class Preisstatus--><g class="entity" data-entity="Preisstatus" data-source-line="12" data-uid="ent0007" id="entity_Preisstatus"><rect fill="#F1F1F1" height="37.9375" rx="2.5" ry="2.5" style="stroke:#181818;stroke-width:0.5;" width="147.2344" x="626.99" y="197.03"/><ellipse cx="641.99" cy="215.9988" fill="#ADD1B2" rx="11" ry="11" style="stroke:#181818;stroke-width:1;"/><path d="M644.9588,221.6394 Q644.3806,221.9363 643.74,222.0769 Q643.0994,222.2331 642.3963,222.2331 Q639.8963,222.2331 638.5681,220.5925 Q637.2556,218.9363 637.2556,215.8113 Q637.2556,212.6863 638.5681,211.03 Q639.8963,209.3738 642.3963,209.3738 Q643.0994,209.3738 643.74,209.53 Q644.3963,209.6863 644.9588,209.9831 L644.9588,212.7019 Q644.3338,212.1238 643.74,211.8581 Q643.1463,211.5769 642.5213,211.5769 Q641.1775,211.5769 640.49,212.655 Q639.8025,213.7175 639.8025,215.8113 Q639.8025,217.905 640.49,218.9831 Q641.1775,220.0456 642.5213,220.0456 Q643.1463,220.0456 643.74,219.78 Q644.3338,219.4988 644.9588,218.9206 L644.9588,221.6394 Z " fill="#000000"/><a href="https://bo4e.github.io/BO4E-python/latest/api/bo4e.enum.html#bo4e.enum.preisstatus.Preisstatus" target="_top" title="https://bo4e.github.io/BO4E-python/latest/api/bo4e.enum.html#bo4e.enum.preisstatus.Preisstatus" xlink:actuate="onRequest" xlink:href="https://bo4e.github.io/BO4E-python/latest/api/bo4e.enum.html#bo4e.enum.preisstatus.Preisstatus" xlink:show="new" xlink:title="https://bo4e.github.io/BO4E-python/latest/api/bo4e.enum.html#bo4e.enum.preisstatus.Preisstatus" xlink:type="simple"><text fill="#0000FF" font-family="sans-serif" font-size="14" lengthAdjust="spacing" text-decoration="underline" textLength="77.0137" x="675.1004" y="215.0251">Preisstatus</text></a><text fill="#000000" font-family="sans-serif" font-size="10" lengthAdjust="spacing" textLength="115.2344" x="655.99" y="227.6091">bo4e.enum.preisstatus</text></g><!--class Waehrungseinheit--><g class="entity" data-entity="Waehrungseinheit" data-source-line="13" data-uid="ent0008" id="entity_Waehrungseinheit"><rect fill="#F1F1F1" height="37.9375" rx="2.5" ry="2.5" style="stroke:#181818;stroke-width:0.5;" width="181.5068" x="609.85" y="270.03"/><ellipse cx="624.85" cy="288.9988" fill="#ADD1B2" rx="11" ry="11" style="stroke:#181818;stroke-width:1;"/><path d="M627.8188,294.6394 Q627.2406,294.9363 626.6,295.0769 Q625.9594,295.2331 625.2563,295.2331 Q622.7563,295.2331 621.4281,293.5925 Q620.1156,291.9363 620.1156,288.8113 Q620.1156,285.6863 621.4281,284.03 Q622.7563,282.3738 625.2563,282.3738 Q625.9594,282.3738 626.6,282.53 Q627.2563,282.6863 627.8188,282.9831 L627.8188,285.7019 Q627.1938,285.1238 626.6,284.8581 Q626.0063,284.5769 625.3813,284.5769 Q624.0375,284.5769 623.35,285.655 Q622.6625,286.7175 622.6625,288.8113 Q622.6625,290.905 623.35,291.9831 Q624.0375,293.0456 625.3813,293.0456 Q626.0063,293.0456 626.6,292.78 Q627.1938,292.4988 627.8188,291.9206 L627.8188,294.6394 Z " fill="#000000"/><a href="https://bo4e.github.io/BO4E-python/latest/api/bo4e.enum.html#bo4e.enum.waehrungseinheit.Waehrungseinheit" target="_top" title="https://bo4e.github.io/BO4E-python/latest/api/bo4e.enum.html#bo4e.enum.waehrungseinheit.Waehrungseinheit" xlink:actuate="onRequest" xlink:href="https://bo4e.github.io/BO4E-python/latest/api/bo4e.enum.html#bo4e.enum.waehrungseinheit.Waehrungseinheit" xlink:show="new" xlink:title="https://bo4e.github.io/BO4E-python/latest/api/bo4e.enum.html#bo4e.enum.waehrungseinheit.Waehrungseinheit" xlink:type="simple"><text fill="#0000FF" font-family="sans-serif" font-size="14" lengthAdjust="spacing" text-decoration="underline" textLength="127.832" x="649.6874" y="288.0251">Waehrungseinheit</text></a><text fill="#000000" font-family="sans-serif" font-size="10" lengthAdjust="spacing" textLength="149.5068" x="638.85" y="300.6091">bo4e.enum.waehrungseinheit</text></g><!--class Mengeneinheit--><g class="entity" data-entity="Mengeneinheit" data-source-line="14" data-uid="ent0009" id="entity_Mengeneinheit"><rect fill="#F1F1F1" height="37.9375" rx="2.5" ry="2.5" style="stroke:#181818;stroke-width:0.5;" width="167.4346" x="616.89" y="343.03"/><ellipse cx="631.89" cy="361.9988" fill="#ADD1B2" rx="11" ry="11" style="stroke:#181818;stroke-width:1;"/><path d="M634.8588,367.6394 Q634.2806,367.9363 633.64,368.0769 Q632.9994,368.2331 632.2963,368.2331 Q629.7963,368.2331 628.4681,366.5925 Q627.1556,364.9363 627.1556,361.8113 Q627.1556,358.6863 628.4681,357.03 Q629.7963,355.3738 632.2963,355.3738 Q632.9994,355.3738 633.64,355.53 Q634.2963,355.6863 634.8588,355.9831 L634.8588,358.7019 Q634.2338,358.1238 633.64,357.8581 Q633.0463,357.5769 632.4213,357.5769 Q631.0775,357.5769 630.39,358.655 Q629.7025,359.7175 629.7025,361.8113 Q629.7025,363.905 630.39,364.9831 Q631.0775,366.0456 632.4213,366.0456 Q633.0463,366.0456 633.64,365.78 Q634.2338,365.4988 634.8588,364.9206 L634.8588,367.6394 Z " fill="#000000"/><a href="https://bo4e.github.io/BO4E-python/latest/api/bo4e.enum.html#bo4e.enum.mengeneinheit.Mengeneinheit" target="_top" title="https://bo4e.github.io/BO4E-python/latest/api/bo4e.enum.html#bo4e.enum.mengeneinheit.Mengeneinheit" xlink:actuate="onRequest" xlink:href="https://bo4e.github.io/BO4E-python/latest/api/bo4e.enum.html#bo4e.enum.mengeneinheit.Mengeneinheit" xlink:show="new" xlink:title="https://bo4e.github.io/BO4E-python/latest/api/bo4e.enum.html#bo4e.enum.mengeneinheit.Mengeneinheit" xlink:type="simple"><text fill="#0000FF" font-family="sans-serif" font-size="14" lengthAdjust="spacing" text-decoration="underline" textLength="104.1797" x="661.5174" y="361.0251">Mengeneinheit</text></a><text fill="#000000" font-family="sans-serif" font-size="10" lengthAdjust="spacing" textLength="135.4346" x="645.89" y="373.6091">bo4e.enum.mengeneinheit</text></g><!--class Preis--><g class="entity" data-entity="Preis" data-source-line="3" data-uid="ent0002" id="entity_Preis"><rect fill="#F1F1F1" height="78.5313" rx="2.5" ry="2.5" style="stroke:#181818;stroke-width:0.5;" width="439.8545" x="7" y="217.73"/><ellipse cx="184.0298" cy="236.6988" fill="#ADD1B2" rx="11" ry="11" style="stroke:#181818;stroke-width:1;"/><path d="M186.9985,242.3394 Q186.4204,242.6363 185.7798,242.7769 Q185.1392,242.9331 184.436,242.9331 Q181.936,242.9331 180.6079,241.2925 Q179.2954,239.6363 179.2954,236.5113 Q179.2954,233.3863 180.6079,231.73 Q181.936,230.0738 184.436,230.0738 Q185.1392,230.0738 185.7798,230.23 Q186.436,230.3863 186.9985,230.6831 L186.9985,233.4019 Q186.3735,232.8238 185.7798,232.5581 Q185.186,232.2769 184.561,232.2769 Q183.2173,232.2769 182.5298,233.355 Q181.8423,234.4175 181.8423,236.5113 Q181.8423,238.605 182.5298,239.6831 Q183.2173,240.7456 184.561,240.7456 Q185.186,240.7456 185.7798,240.48 Q186.3735,240.1988 186.9985,239.6206 L186.9985,242.3394 Z " fill="#000000"/><a href="https://bo4e.github.io/BO4E-python/latest/api/bo4e.com.html#bo4e.com.preis.Preis" target="_top" title="https://bo4e.github.io/BO4E-python/latest/api/bo4e.com.html#bo4e.com.preis.Preis" xlink:actuate="onRequest" xlink:href="https://bo4e.github.io/BO4E-python/latest/api/bo4e.com.html#bo4e.com.preis.Preis" xlink:show="new" xlink:title="https://bo4e.github.io/BO4E-python/latest/api/bo4e.com.html#bo4e.com.preis.Preis" xlink:type="simple"><text fill="#0000FF" font-family="sans-serif" font-size="14" lengthAdjust="spacing" text-decoration="underline" textLength="33.9951" x="226.1797" y="235.7251">Preis</text></a><text fill="#000000" font-family="sans-serif" font-size="10" lengthAdjust="spacing" textLength="77.2949" x="204.5298" y="248.3091">bo4e.com.preis</text><line style="stroke:#181818;stroke-width:0.5;" x1="8" x2="445.8545" y1="255.6675" y2="255.6675"/><text fill="#000000" font-family="sans-serif" font-size="14" lengthAdjust="spacing" textLength="427.8545" x="13" y="272.6626">_typ : Literal[&lt;ComTyp.PREIS: 'PREIS'&gt;] [1] = ComTyp.PREIS</text><text fill="#000000" font-family="sans-serif" font-size="14" lengthAdjust="spacing" textLength="201.2568" x="13" y="288.9595">wert : Decimal [0..1] = None</text></g><!--link Preis to COM--><g class="link" data-entity-1="Preis" data-entity-2="COM" data-source-line="17" data-uid="lnk10" id="link_Preis_COM"><path codeLine="17" d="M349.7,217.24 C446.06,185.78 558.7588,148.9862 630.0988,125.6962" fill="none" id="Preis-to-COM" style="stroke:#181818;stroke-width:1;"/><polygon fill="none" points="647.21,120.11,628.2367,119.9925,631.9608,131.4,647.21,120.11" style="stroke:#181818;stroke-width:1;"/></g><!--link Preis to Waehrungseinheit--><g class="link" data-entity-1="Preis" data-entity-2="Waehrungseinheit" data-source-line="18" data-uid="lnk11" id="link_Preis_Waehrungseinheit"><path codeLine="18" d="M447.11,277.88 C457.16,278.64 467.11,279.35 476.85,280 C520.49,282.9 557.0174,284.5674 597.5974,285.9974" fill="none" id="Preis-to-Waehrungseinheit" style="stroke:#181818;stroke-width:1;"/><polygon fill="#181818" points="609.59,286.42,603.7346,282.2112,597.5974,285.9974,603.4529,290.2062,609.59,286.42" style="stroke:#181818;stroke-width:1;"/><text fill="#000000" font-family="sans-serif" font-size="13" lengthAdjust="spacing" textLength="44.7954" x="493.35" y="276.0669">einheit</text><text fill="#000000" font-family="sans-serif" font-size="13" lengthAdjust="spacing" textLength="24.8066" x="577.0926" y="298.8999">0..1</text></g><!--link Preis to Mengeneinheit--><g class="link" data-entity-1="Preis" data-entity-2="Mengeneinheit" data-source-line="19" data-uid="lnk12" id="link_Preis_Mengeneinheit"><path codeLine="19" d="M406.25,296.7 C478.51,312.78 546.7364,327.9738 604.8964,340.9138" fill="none" id="Preis-to-Mengeneinheit" style="stroke:#181818;stroke-width:1;"/><polygon fill="#181818" points="616.61,343.52,611.6219,338.3124,604.8964,340.9138,609.8845,346.1215,616.61,343.52" style="stroke:#181818;stroke-width:1;"/><text fill="#000000" font-family="sans-serif" font-size="13" lengthAdjust="spacing" textLength="75.4102" x="477.85" y="309.0669">bezugswert</text><text fill="#000000" font-family="sans-serif" font-size="13" lengthAdjust="spacing" textLength="24.8066" x="584.0962" y="354.615">0..1</text></g><!--link Preis to Preisstatus--><g class="link" data-entity-1="Preis" data-entity-2="Preisstatus" data-source-line="20" data-uid="lnk13" id="link_Preis_Preisstatus"><path codeLine="20" d="M447.2,237.94 C511.91,232.32 566.3451,227.579 614.7851,223.369" fill="none" id="Preis-to-Preisstatus" style="stroke:#181818;stroke-width:1;"/><polygon fill="#181818" points="626.74,222.33,620.4162,218.8645,614.7851,223.369,621.1089,226.8345,626.74,222.33" style="stroke:#181818;stroke-width:1;"/><text fill="#000000" font-family="sans-serif" font-size="13" lengthAdjust="spacing" textLength="39.9458" x="495.85" y="226.0669">status</text><text fill="#000000" font-family="sans-serif" font-size="13" lengthAdjust="spacing" textLength="24.8066" x="593.9265" y="235.8301">0..1</text></g><!--SRC=[hLJ1Yjim43sllc983Wk5s0dTBi6aWMusXqBJ3Tj23wufYZDh2Mp9M6D2qkw_h-NOYUqqUqaEalMaUV9xmunYV24W3PcC1C5QPXYIr8gnCER6GC_t1L5gFDTTwJjq8aaYNpbIkmzFT_D1kYMXbHjpGaCkJ-K-AjI98oY9-mUKPYYDixGpb7CG_5OJ8tVeZORJTbWFU1K4VzdD7zgcuC4tIPZns9_CTF9pcphBv_dN7nxSbj_RQG3-A83Fq3nbDnlCgE0-OYWJ7eC_T9mowhjMo5uPKpn1a_8GB_G9DGg2KdmDeJyVVXdVpwoFw-RJZjdJ0ehn_qmMevHI11HEBpMAAcywjR1frMBehqVXnq_ZIxqUVjK_mh8i377AgnhQhw6nFir2btaigps-limDHv7bAZ8ebK19pg_E1dGtpgZkNbHAxtAlhpz15Q6gnI-Q25heZEmMlzJSOjcEgvw0mU3VzD0bjf3hW-Ba0_Hid_QEfNMQHm_gEz_bjIruiC9T7XdxAhpFQzQO1rMvC27N20acAymCCq9leBhaHMAyDcy0]--></g></svg>