<?plantuml 1.2026.1?><svg xmlns="http://www.w3.org/2000/svg" xmlns:xlink="http://www.w3.org/1999/xlink" contentStyleType="text/css" data-diagram-type="CLASS" height="720px" preserveAspectRatio="none" style="width:743px;height:720px;background:#FFFFFF;" version="1.1" viewBox="0 0 743 720" width="743px" zoomAndPan="magnify"><defs/><g><!--cluster bo4e--><g class="cluster" data-qualified-name="bo4e" data-source-line="14" id="ent0005"><path d="M478.91,6 L518.786,6 A3.75,3.75 0 0 1 521.286,8.5 L528.286,28.2969 L733.8,28.2969 A2.5,2.5 0 0 1 736.3,30.7969 L736.3,710.5 A2.5,2.5 0 0 1 733.8,713 L478.91,713 A2.5,2.5 0 0 1 476.41,710.5 L476.41,8.5 A2.5,2.5 0 0 1 478.91,6" fill="none" style="stroke:#000000;stroke-width:1.5;"/><line style="stroke:#000000;stroke-width:1.5;" x1="476.41" x2="528.286" y1="28.2969" y2="28.2969"/><text fill="#000000" font-family="sans-serif" font-size="14" font-weight="bold" lengthAdjust="spacing" textLength="38.876" x="480.41" y="20.9951">bo4e</text></g><!--cluster com--><g class="cluster" data-qualified-name="bo4e.com" data-source-line="13" id="ent0003"><path d="M536.83,49 L614.5292,49 A3.75,3.75 0 0 1 617.0292,51.5 L624.0292,71.2969 L675.88,71.2969 A2.5,2.5 0 0 1 678.38,73.7969 L678.38,135.5 A2.5,2.5 0 0 1 675.88,138 L536.83,138 A2.5,2.5 0 0 1 534.33,135.5 L534.33,51.5 A2.5,2.5 0 0 1 536.83,49" fill="#E0A86C" style="stroke:#000000;stroke-width:1.5;"/><line style="stroke:#000000;stroke-width:1.5;" x1="534.33" x2="624.0292" y1="71.2969" y2="71.2969"/><text fill="#000000" font-family="sans-serif" font-size="14" font-weight="bold" lengthAdjust="spacing" textLength="76.6992" x="538.33" y="63.9951">bo4e.com</text></g><!--cluster enum--><g class="cluster" data-qualified-name="bo4e.enum" data-source-line="24" id="ent0006"><path d="M502.91,162 L592.1209,162 A3.75,3.75 0 0 1 594.6209,164.5 L601.6209,184.2969 L709.8,184.2969 A2.5,2.5 0 0 1 712.3,186.7969 L712.3,686.5 A2.5,2.5 0 0 1 709.8,689 L502.91,689 A2.5,2.5 0 0 1 500.41,686.5 L500.41,164.5 A2.5,2.5 0 0 1 502.91,162" fill="#D1C358" style="stroke:#000000;stroke-width:1.5;"/><line style="stroke:#000000;stroke-width:1.5;" x1="500.41" x2="601.6209" y1="184.2969" y2="184.2969"/><text fill="#000000" font-family="sans-serif" font-size="14" font-weight="bold" lengthAdjust="spacing" textLength="88.2109" x="504.41" y="176.9951">bo4e.enum</text></g><!--class Preisstaffel--><g class="entity" data-qualified-name="bo4e.com.Preisstaffel" data-source-line="14" id="ent0004"><rect fill="#F1F1F1" height="37.9375" rx="2.5" ry="2.5" style="stroke:#181818;stroke-width:0.5;" width="112.0488" x="550.33" y="84.03"/><ellipse cx="565.33" cy="102.9987" fill="#ADD1B2" rx="11" ry="11" style="stroke:#181818;stroke-width:1;"/><path d="M568.2988,108.6394 Q567.7206,108.9362 567.08,109.0769 Q566.4394,109.2331 565.7363,109.2331 Q563.2363,109.2331 561.9081,107.5925 Q560.5956,105.9362 560.5956,102.8112 Q560.5956,99.6862 561.9081,98.03 Q563.2363,96.3737 565.7363,96.3737 Q566.4394,96.3737 567.08,96.53 Q567.7363,96.6862 568.2988,96.9831 L568.2988,99.7019 Q567.6738,99.1237 567.08,98.8581 Q566.4863,98.5769 565.8613,98.5769 Q564.5175,98.5769 563.83,99.655 Q563.1425,100.7175 563.1425,102.8112 Q563.1425,104.905 563.83,105.9831 Q564.5175,107.0456 565.8613,107.0456 Q566.4863,107.0456 567.08,106.78 Q567.6738,106.4987 568.2988,105.9206 L568.2988,108.6394 Z " fill="#000000"/><a href="https://bo4e.github.io/BO4E-python/latest/api/com.Preisstaffel.html" target="_top" title="https://bo4e.github.io/BO4E-python/latest/api/com.Preisstaffel.html" xlink:actuate="onRequest" xlink:href="https://bo4e.github.io/BO4E-python/latest/api/com.Preisstaffel.html" xlink:show="new" xlink:title="https://bo4e.github.io/BO4E-python/latest/api/com.Preisstaffel.html" xlink:type="simple"><text fill="#0000FF" font-family="sans-serif" font-size="14" lengthAdjust="spacing" text-decoration="underline" textLength="77.7178" x="580.4955" y="102.0251">Preisstaffel</text></a><text fill="#000000" font-family="sans-serif" font-size="10" lengthAdjust="spacing" textLength="80.0488" x="579.33" y="114.6091">com.Preisstaffel</text></g><!--class BDEWArtikelnummer--><g class="entity" data-qualified-name="bo4e.enum.BDEWArtikelnummer" data-source-line="25" id="ent0007"><rect fill="#F1F1F1" height="37.9375" rx="2.5" ry="2.5" style="stroke:#181818;stroke-width:0.5;" width="179.7861" x="516.46" y="197.03"/><ellipse cx="531.46" cy="215.9987" fill="#ADD1B2" rx="11" ry="11" style="stroke:#181818;stroke-width:1;"/><path d="M534.4288,221.6394 Q533.8506,221.9362 533.21,222.0769 Q532.5694,222.2331 531.8663,222.2331 Q529.3663,222.2331 528.0381,220.5925 Q526.7256,218.9362 526.7256,215.8112 Q526.7256,212.6862 528.0381,211.03 Q529.3663,209.3737 531.8663,209.3737 Q532.5694,209.3737 533.21,209.53 Q533.8663,209.6862 534.4288,209.9831 L534.4288,212.7019 Q533.8038,212.1237 533.21,211.8581 Q532.6163,211.5769 531.9913,211.5769 Q530.6475,211.5769 529.96,212.655 Q529.2725,213.7175 529.2725,215.8112 Q529.2725,217.905 529.96,218.9831 Q530.6475,220.0456 531.9913,220.0456 Q532.6163,220.0456 533.21,219.78 Q533.8038,219.4987 534.4288,218.9206 L534.4288,221.6394 Z " fill="#000000"/><a href="https://bo4e.github.io/BO4E-python/latest/api/enum.BDEWArtikelnummer.html" target="_top" title="https://bo4e.github.io/BO4E-python/latest/api/enum.BDEWArtikelnummer.html" xlink:actuate="onRequest" xlink:href="https://bo4e.github.io/BO4E-python/latest/api/enum.BDEWArtikelnummer.html" xlink:show="new" xlink:title="https://bo4e.github.io/BO4E-python/latest/api/enum.BDEWArtikelnummer.html" xlink:type="simple"><text fill="#0000FF" font-family="sans-serif" font-size="14" lengthAdjust="spacing" text-decoration="underline" textLength="147.7861" x="545.46" y="215.0251">BDEWArtikelnummer</text></a><text fill="#000000" font-family="sans-serif" font-size="10" lengthAdjust="spacing" textLength="137.3096" x="550.6983" y="227.6091">enum.BDEWArtikelnummer</text></g><!--class Bemessungsgroesse--><g class="entity" data-qualified-name="bo4e.enum.Bemessungsgroesse" data-source-line="27" id="ent0008"><rect fill="#F1F1F1" height="37.9375" rx="2.5" ry="2.5" style="stroke:#181818;stroke-width:0.5;" width="176.0059" x="518.35" y="270.03"/><ellipse cx="533.35" cy="288.9988" fill="#ADD1B2" rx="11" ry="11" style="stroke:#181818;stroke-width:1;"/><path d="M536.3188,294.6394 Q535.7406,294.9363 535.1,295.0769 Q534.4594,295.2331 533.7563,295.2331 Q531.2563,295.2331 529.9281,293.5925 Q528.6156,291.9363 528.6156,288.8113 Q528.6156,285.6863 529.9281,284.03 Q531.2563,282.3738 533.7563,282.3738 Q534.4594,282.3738 535.1,282.53 Q535.7563,282.6863 536.3188,282.9831 L536.3188,285.7019 Q535.6938,285.1238 535.1,284.8581 Q534.5063,284.5769 533.8813,284.5769 Q532.5375,284.5769 531.85,285.655 Q531.1625,286.7175 531.1625,288.8113 Q531.1625,290.905 531.85,291.9831 Q532.5375,293.0456 533.8813,293.0456 Q534.5063,293.0456 535.1,292.78 Q535.6938,292.4988 536.3188,291.9206 L536.3188,294.6394 Z " fill="#000000"/><a href="https://bo4e.github.io/BO4E-python/latest/api/enum.Bemessungsgroesse.html" target="_top" title="https://bo4e.github.io/BO4E-python/latest/api/enum.Bemessungsgroesse.html" xlink:actuate="onRequest" xlink:href="https://bo4e.github.io/BO4E-python/latest/api/enum.Bemessungsgroesse.html" xlink:show="new" xlink:title="https://bo4e.github.io/BO4E-python/latest/api/enum.Bemessungsgroesse.html" xlink:type="simple"><text fill="#0000FF" font-family="sans-serif" font-size="14" lengthAdjust="spacing" text-decoration="underline" textLength="144.0059" x="547.35" y="288.0251">Bemessungsgroesse</text></a><text fill="#000000" font-family="sans-serif" font-size="10" lengthAdjust="spacing" textLength="134.6094" x="552.0482" y="300.6091">enum.Bemessungsgroesse</text></g><!--class Kalkulationsmethode--><g class="entity" data-qualified-name="bo4e.enum.Kalkulationsmethode" data-source-line="29" id="ent0009"><rect fill="#F1F1F1" height="37.9375" rx="2.5" ry="2.5" style="stroke:#181818;stroke-width:0.5;" width="179.8887" x="516.41" y="343.03"/><ellipse cx="531.41" cy="361.9988" fill="#ADD1B2" rx="11" ry="11" style="stroke:#181818;stroke-width:1;"/><path d="M534.3788,367.6394 Q533.8006,367.9363 533.16,368.0769 Q532.5194,368.2331 531.8163,368.2331 Q529.3163,368.2331 527.9881,366.5925 Q526.6756,364.9363 526.6756,361.8113 Q526.6756,358.6863 527.9881,357.03 Q529.3163,355.3738 531.8163,355.3738 Q532.5194,355.3738 533.16,355.53 Q533.8163,355.6863 534.3788,355.9831 L534.3788,358.7019 Q533.7538,358.1238 533.16,357.8581 Q532.5663,357.5769 531.9413,357.5769 Q530.5975,357.5769 529.91,358.655 Q529.2225,359.7175 529.2225,361.8113 Q529.2225,363.905 529.91,364.9831 Q530.5975,366.0456 531.9413,366.0456 Q532.5663,366.0456 533.16,365.78 Q533.7538,365.4988 534.3788,364.9206 L534.3788,367.6394 Z " fill="#000000"/><a href="https://bo4e.github.io/BO4E-python/latest/api/enum.Kalkulationsmethode.html" target="_top" title="https://bo4e.github.io/BO4E-python/latest/api/enum.Kalkulationsmethode.html" xlink:actuate="onRequest" xlink:href="https://bo4e.github.io/BO4E-python/latest/api/enum.Kalkulationsmethode.html" xlink:show="new" xlink:title="https://bo4e.github.io/BO4E-python/latest/api/enum.Kalkulationsmethode.html" xlink:type="simple"><text fill="#0000FF" font-family="sans-serif" font-size="14" lengthAdjust="spacing" text-decoration="underline" textLength="147.8887" x="545.41" y="361.0251">Kalkulationsmethode</text></a><text fill="#000000" font-family="sans-serif" font-size="10" lengthAdjust="spacing" textLength="137.3828" x="550.6629" y="373.6091">enum.Kalkulationsmethode</text></g><!--class Leistungstyp--><g class="entity" data-qualified-name="bo4e.enum.Leistungstyp" data-source-line="31" id="ent0010"><rect fill="#F1F1F1" height="37.9375" rx="2.5" ry="2.5" style="stroke:#181818;stroke-width:0.5;" width="127.8008" x="542.45" y="416.03"/><ellipse cx="557.45" cy="434.9988" fill="#ADD1B2" rx="11" ry="11" style="stroke:#181818;stroke-width:1;"/><path d="M560.4188,440.6394 Q559.8406,440.9363 559.2,441.0769 Q558.5594,441.2331 557.8563,441.2331 Q555.3563,441.2331 554.0281,439.5925 Q552.7156,437.9363 552.7156,434.8113 Q552.7156,431.6863 554.0281,430.03 Q555.3563,428.3738 557.8563,428.3738 Q558.5594,428.3738 559.2,428.53 Q559.8563,428.6863 560.4188,428.9831 L560.4188,431.7019 Q559.7938,431.1238 559.2,430.8581 Q558.6063,430.5769 557.9813,430.5769 Q556.6375,430.5769 555.95,431.655 Q555.2625,432.7175 555.2625,434.8113 Q555.2625,436.905 555.95,437.9831 Q556.6375,439.0456 557.9813,439.0456 Q558.6063,439.0456 559.2,438.78 Q559.7938,438.4988 560.4188,437.9206 L560.4188,440.6394 Z " fill="#000000"/><a href="https://bo4e.github.io/BO4E-python/latest/api/enum.Leistungstyp.html" target="_top" title="https://bo4e.github.io/BO4E-python/latest/api/enum.Leistungstyp.html" xlink:actuate="onRequest" xlink:href="https://bo4e.github.io/BO4E-python/latest/api/enum.Leistungstyp.html" xlink:show="new" xlink:title="https://bo4e.github.io/BO4E-python/latest/api/enum.Leistungstyp.html" xlink:type="simple"><text fill="#0000FF" font-family="sans-serif" font-size="14" lengthAdjust="spacing" text-decoration="underline" textLength="89.6738" x="574.5135" y="434.0251">Leistungstyp</text></a><text fill="#000000" font-family="sans-serif" font-size="10" lengthAdjust="spacing" textLength="95.8008" x="571.45" y="446.6091">enum.Leistungstyp</text></g><!--class Mengeneinheit--><g class="entity" data-qualified-name="bo4e.enum.Mengeneinheit" data-source-line="33" id="ent0011"><rect fill="#F1F1F1" height="37.9375" rx="2.5" ry="2.5" style="stroke:#181818;stroke-width:0.5;" width="138.1621" x="537.27" y="489.03"/><ellipse cx="552.27" cy="507.9988" fill="#ADD1B2" rx="11" ry="11" style="stroke:#181818;stroke-width:1;"/><path d="M555.2388,513.6394 Q554.6606,513.9363 554.02,514.0769 Q553.3794,514.2331 552.6763,514.2331 Q550.1763,514.2331 548.8481,512.5925 Q547.5356,510.9363 547.5356,507.8113 Q547.5356,504.6863 548.8481,503.03 Q550.1763,501.3738 552.6763,501.3738 Q553.3794,501.3738 554.02,501.53 Q554.6763,501.6863 555.2388,501.9831 L555.2388,504.7019 Q554.6138,504.1238 554.02,503.8581 Q553.4263,503.5769 552.8013,503.5769 Q551.4575,503.5769 550.77,504.655 Q550.0825,505.7175 550.0825,507.8113 Q550.0825,509.905 550.77,510.9831 Q551.4575,512.0456 552.8013,512.0456 Q553.4263,512.0456 554.02,511.78 Q554.6138,511.4988 555.2388,510.9206 L555.2388,513.6394 Z " fill="#000000"/><a href="https://bo4e.github.io/BO4E-python/latest/api/enum.Mengeneinheit.html" target="_top" title="https://bo4e.github.io/BO4E-python/latest/api/enum.Mengeneinheit.html" xlink:actuate="onRequest" xlink:href="https://bo4e.github.io/BO4E-python/latest/api/enum.Mengeneinheit.html" xlink:show="new" xlink:title="https://bo4e.github.io/BO4E-python/latest/api/enum.Mengeneinheit.html" xlink:type="simple"><text fill="#0000FF" font-family="sans-serif" font-size="14" lengthAdjust="spacing" text-decoration="underline" textLength="104.1797" x="567.2612" y="507.0251">Mengeneinheit</text></a><text fill="#000000" font-family="sans-serif" font-size="10" lengthAdjust="spacing" textLength="106.1621" x="566.27" y="519.6091">enum.Mengeneinheit</text></g><!--class Tarifzeit--><g class="entity" data-qualified-name="bo4e.enum.Tarifzeit" data-source-line="35" id="ent0012"><rect fill="#F1F1F1" height="37.9375" rx="2.5" ry="2.5" style="stroke:#181818;stroke-width:0.5;" width="104.4951" x="554.1" y="562.03"/><ellipse cx="569.1" cy="580.9988" fill="#ADD1B2" rx="11" ry="11" style="stroke:#181818;stroke-width:1;"/><path d="M572.0688,586.6394 Q571.4906,586.9363 570.85,587.0769 Q570.2094,587.2331 569.5063,587.2331 Q567.0063,587.2331 565.6781,585.5925 Q564.3656,583.9363 564.3656,580.8113 Q564.3656,577.6863 565.6781,576.03 Q567.0063,574.3738 569.5063,574.3738 Q570.2094,574.3738 570.85,574.53 Q571.5063,574.6863 572.0688,574.9831 L572.0688,577.7019 Q571.4438,577.1238 570.85,576.8581 Q570.2563,576.5769 569.6313,576.5769 Q568.2875,576.5769 567.6,577.655 Q566.9125,578.7175 566.9125,580.8113 Q566.9125,582.905 567.6,583.9831 Q568.2875,585.0456 569.6313,585.0456 Q570.2563,585.0456 570.85,584.78 Q571.4438,584.4988 572.0688,583.9206 L572.0688,586.6394 Z " fill="#000000"/><a href="https://bo4e.github.io/BO4E-python/latest/api/enum.Tarifzeit.html" target="_top" title="https://bo4e.github.io/BO4E-python/latest/api/enum.Tarifzeit.html" xlink:actuate="onRequest" xlink:href="https://bo4e.github.io/BO4E-python/latest/api/enum.Tarifzeit.html" xlink:show="new" xlink:title="https://bo4e.github.io/BO4E-python/latest/api/enum.Tarifzeit.html" xlink:type="simple"><text fill="#0000FF" font-family="sans-serif" font-size="14" lengthAdjust="spacing" text-decoration="underline" textLength="57.0459" x="590.8246" y="580.0251">Tarifzeit</text></a><text fill="#000000" font-family="sans-serif" font-size="10" lengthAdjust="spacing" textLength="72.4951" x="583.1" y="592.6091">enum.Tarifzeit</text></g><!--class Waehrungseinheit--><g class="entity" data-qualified-name="bo4e.enum.Waehrungseinheit" data-source-line="37" id="ent0013"><rect fill="#F1F1F1" height="37.9375" rx="2.5" ry="2.5" style="stroke:#181818;stroke-width:0.5;" width="159.832" x="526.44" y="635.03"/><ellipse cx="541.44" cy="653.9988" fill="#ADD1B2" rx="11" ry="11" style="stroke:#181818;stroke-width:1;"/><path d="M544.4088,659.6394 Q543.8306,659.9363 543.19,660.0769 Q542.5494,660.2331 541.8463,660.2331 Q539.3463,660.2331 538.0181,658.5925 Q536.7056,656.9363 536.7056,653.8113 Q536.7056,650.6863 538.0181,649.03 Q539.3463,647.3738 541.8463,647.3738 Q542.5494,647.3738 543.19,647.53 Q543.8463,647.6863 544.4088,647.9831 L544.4088,650.7019 Q543.7838,650.1238 543.19,649.8581 Q542.5963,649.5769 541.9713,649.5769 Q540.6275,649.5769 539.94,650.655 Q539.2525,651.7175 539.2525,653.8113 Q539.2525,655.905 539.94,656.9831 Q540.6275,658.0456 541.9713,658.0456 Q542.5963,658.0456 543.19,657.78 Q543.7838,657.4988 544.4088,656.9206 L544.4088,659.6394 Z " fill="#000000"/><a href="https://bo4e.github.io/BO4E-python/latest/api/enum.Waehrungseinheit.html" target="_top" title="https://bo4e.github.io/BO4E-python/latest/api/enum.Waehrungseinheit.html" xlink:actuate="onRequest" xlink:href="https://bo4e.github.io/BO4E-python/latest/api/enum.Waehrungseinheit.html" xlink:show="new" xlink:title="https://bo4e.github.io/BO4E-python/latest/api/enum.Waehrungseinheit.html" xlink:type="simple"><text fill="#0000FF" font-family="sans-serif" font-size="14" lengthAdjust="spacing" text-decoration="underline" textLength="127.832" x="555.44" y="653.0251">Waehrungseinheit</text></a><text fill="#000000" font-family="sans-serif" font-size="10" lengthAdjust="spacing" textLength="123.0566" x="557.8277" y="665.6091">enum.Waehrungseinheit</text></g><!--class Preisposition--><g class="entity" data-qualified-name="Preisposition" data-source-line="3" id="ent0002"><rect fill="#F1F1F1" height="160.0156" rx="2.5" ry="2.5" style="stroke:#181818;stroke-width:0.5;" width="279.4082" x="7" y="329.99"/><ellipse cx="97.73" cy="348.9588" fill="#ADD1B2" rx="11" ry="11" style="stroke:#181818;stroke-width:1;"/><path d="M100.6987,354.5994 Q100.1206,354.8963 99.48,355.0369 Q98.8394,355.1931 98.1362,355.1931 Q95.6362,355.1931 94.3081,353.5525 Q92.9956,351.8963 92.9956,348.7713 Q92.9956,345.6463 94.3081,343.99 Q95.6362,342.3338 98.1362,342.3338 Q98.8394,342.3338 99.48,342.49 Q100.1362,342.6463 100.6987,342.9431 L100.6987,345.6619 Q100.0737,345.0838 99.48,344.8181 Q98.8862,344.5369 98.2612,344.5369 Q96.9175,344.5369 96.23,345.615 Q95.5425,346.6775 95.5425,348.7713 Q95.5425,350.865 96.23,351.9431 Q96.9175,353.0056 98.2612,353.0056 Q98.8862,353.0056 99.48,352.74 Q100.0737,352.4588 100.6987,351.8806 L100.6987,354.5994 Z " fill="#000000"/><a href="https://bo4e.github.io/BO4E-python/latest/api/com.Preisposition.html" target="_top" title="https://bo4e.github.io/BO4E-python/latest/api/com.Preisposition.html" xlink:actuate="onRequest" xlink:href="https://bo4e.github.io/BO4E-python/latest/api/com.Preisposition.html" xlink:show="new" xlink:title="https://bo4e.github.io/BO4E-python/latest/api/com.Preisposition.html" xlink:type="simple"><text fill="#0000FF" font-family="sans-serif" font-size="14" lengthAdjust="spacing" text-decoration="underline" textLength="89.4482" x="118.23" y="347.9851">Preisposition</text></a><text fill="#000000" font-family="sans-serif" font-size="10" lengthAdjust="spacing" textLength="88.4277" x="118.7402" y="360.5691">com.Preisposition</text><line style="stroke:#181818;stroke-width:0.5;" x1="8" x2="285.4082" y1="367.9275" y2="367.9275"/><text fill="#000000" font-family="sans-serif" font-size="14" lengthAdjust="spacing" textLength="94.0215" x="13" y="384.9226">_id : str [0..1]</text><text fill="#000000" font-family="sans-serif" font-size="14" lengthAdjust="spacing" textLength="259.8682" x="13" y="401.2195">_typ : Literal["PREISPOSITION"] [0..1]</text><text fill="#000000" font-family="sans-serif" font-size="14" lengthAdjust="spacing" textLength="132.5215" x="13" y="417.5164">_version : str [0..1]</text><text fill="#000000" font-family="sans-serif" font-size="14" lengthAdjust="spacing" textLength="235.3271" x="13" y="433.8132">freimengeBlindarbeit : float [0..1]</text><text fill="#000000" font-family="sans-serif" font-size="14" lengthAdjust="spacing" textLength="267.4082" x="13" y="450.1101">freimengeLeistungsfaktor : float [0..1]</text><text fill="#000000" font-family="sans-serif" font-size="14" lengthAdjust="spacing" textLength="190.3604" x="13" y="466.407">gruppenartikelId : str [0..1]</text><text fill="#000000" font-family="sans-serif" font-size="14" lengthAdjust="spacing" textLength="226.7754" x="13" y="482.7039">leistungsbezeichnung : str [0..1]</text></g><!--link Preisposition to Preisstaffel--><g class="link" data-entity-1="ent0002" data-entity-2="ent0004" data-link-type="composition" data-source-line="41" id="lnk14"><path codeLine="41" d="M206.22,329.63 C235.99,293.06 274.68,251.48 316.41,222 C389.74,170.19 477.5081,139.0277 538.5381,121.0677" fill="none" id="Preisposition-to-Preisstaffel" style="stroke:#181818;stroke-width:1;"/><polygon fill="#181818" points="550.05,117.68,543.1648,115.5366,538.5381,121.0677,545.4233,123.2112,550.05,117.68" style="stroke:#181818;stroke-width:1;"/><text fill="#000000" font-family="sans-serif" font-size="13" lengthAdjust="spacing" textLength="80.8184" x="348.41" y="145.0669">preisstaffeln</text><text fill="#000000" font-family="sans-serif" font-size="13" lengthAdjust="spacing" textLength="23.0356" x="519.2122" y="132.3193">0..*</text></g><!--link Preisposition to BDEWArtikelnummer--><g class="link" data-entity-1="ent0002" data-entity-2="ent0007" data-link-type="composition" data-source-line="42" id="lnk15"><path codeLine="42" d="M252.9,329.72 C273.26,316.51 294.95,303.92 316.41,294 C380.32,264.46 445.7806,246.8275 504.3006,234.4275" fill="none" id="Preisposition-to-BDEWArtikelnummer" style="stroke:#181818;stroke-width:1;"/><polygon fill="#181818" points="516.04,231.94,509.3412,229.2706,504.3006,234.4275,510.9995,237.0969,516.04,231.94" style="stroke:#181818;stroke-width:1;"/><text fill="#000000" font-family="sans-serif" font-size="13" lengthAdjust="spacing" textLength="132.3677" x="322.41" y="243.0669">bdewArtikelnummer</text><text fill="#000000" font-family="sans-serif" font-size="13" lengthAdjust="spacing" textLength="24.8066" x="483.6006" y="245.9536">0..1</text></g><!--link Preisposition to Bemessungsgroesse--><g class="link" data-entity-1="ent0002" data-entity-2="ent0008" data-link-type="composition" data-source-line="43" id="lnk16"><path codeLine="43" d="M286.81,361.69 C296.79,358.63 306.73,355.7 316.41,353 C383.47,334.3 448.7301,319.8587 506.3801,308.1487" fill="none" id="Preisposition-to-Bemessungsgroesse" style="stroke:#181818;stroke-width:1;"/><polygon fill="#181818" points="518.14,305.76,511.4638,303.0344,506.3801,308.1487,513.0563,310.8743,518.14,305.76" style="stroke:#181818;stroke-width:1;"/><text fill="#000000" font-family="sans-serif" font-size="13" lengthAdjust="spacing" textLength="105.6123" x="335.91" y="315.0669">zonungsgroesse</text><text fill="#000000" font-family="sans-serif" font-size="13" lengthAdjust="spacing" textLength="24.8066" x="485.5626" y="319.9176">0..1</text></g><!--link Preisposition to Kalkulationsmethode--><g class="link" data-entity-1="ent0002" data-entity-2="ent0009" data-link-type="composition" data-source-line="44" id="lnk17"><path codeLine="44" d="M286.88,395.4 C361.43,387.58 439.1354,379.4312 504.2854,372.6012" fill="none" id="Preisposition-to-Kalkulationsmethode" style="stroke:#181818;stroke-width:1;"/><polygon fill="#181818" points="516.22,371.35,509.8356,367.9974,504.2854,372.6012,510.6698,375.9538,516.22,371.35" style="stroke:#181818;stroke-width:1;"/><text fill="#000000" font-family="sans-serif" font-size="13" lengthAdjust="spacing" textLength="142.9238" x="317.41" y="374.0669">berechnungsmethode</text><text fill="#000000" font-family="sans-serif" font-size="13" lengthAdjust="spacing" textLength="24.8066" x="483.4775" y="384.8708">0..1</text></g><!--link Preisposition to Leistungstyp--><g class="link" data-entity-1="ent0002" data-entity-2="ent0010" data-link-type="composition" data-source-line="45" id="lnk18"><path codeLine="45" d="M286.88,417.6 C371.95,422.25 464.6778,427.3158 530.2478,430.8958" fill="none" id="Preisposition-to-Leistungstyp" style="stroke:#181818;stroke-width:1;"/><polygon fill="#181818" points="542.23,431.55,536.457,427.2288,530.2478,430.8958,536.0209,435.2169,542.23,431.55" style="stroke:#181818;stroke-width:1;"/><text fill="#000000" font-family="sans-serif" font-size="13" lengthAdjust="spacing" textLength="79.6377" x="348.91" y="416.0669">leistungstyp</text><text fill="#000000" font-family="sans-serif" font-size="13" lengthAdjust="spacing" textLength="24.8066" x="509.4752" y="444.093">0..1</text></g><!--link Preisposition to Mengeneinheit--><g class="link" data-entity-1="ent0002" data-entity-2="ent0011" data-link-type="composition" data-source-line="46" id="lnk19"><path codeLine="46" d="M286.58,445.19 C296.66,447.55 306.68,449.85 316.41,452 C391.49,468.61 466.3554,482.8935 525.0354,493.6135" fill="none" id="Preisposition-to-Mengeneinheit" style="stroke:#181818;stroke-width:1;"/><polygon fill="#181818" points="536.84,495.77,531.6565,490.7569,525.0354,493.6135,530.2188,498.6266,536.84,495.77" style="stroke:#181818;stroke-width:1;"/><text fill="#000000" font-family="sans-serif" font-size="13" lengthAdjust="spacing" textLength="97.4302" x="339.91" y="448.0669">bezugsgroesse</text><text fill="#000000" font-family="sans-serif" font-size="13" lengthAdjust="spacing" textLength="24.8066" x="504.4758" y="507.3561">0..1</text></g><!--link Preisposition to Mengeneinheit--><g class="link" data-entity-1="ent0002" data-entity-2="ent0011" data-link-type="composition" data-source-line="47" id="lnk20"><path codeLine="47" d="M271.25,490.37 C286.01,497.12 301.24,502.92 316.41,507 C389.8,526.73 465.58,524.6582 524.97,518.6982" fill="none" id="Preisposition-to-Mengeneinheit-1" style="stroke:#181818;stroke-width:1;"/><polygon fill="#181818" points="536.91,517.5,530.5406,514.1191,524.97,518.6982,531.3394,522.0791,536.91,517.5" style="stroke:#181818;stroke-width:1;"/><text fill="#000000" font-family="sans-serif" font-size="13" lengthAdjust="spacing" textLength="56.9067" x="360.41" y="503.0669">zeitbasis</text><text fill="#000000" font-family="sans-serif" font-size="13" lengthAdjust="spacing" textLength="24.8066" x="504.553" y="531.327">0..1</text></g><!--link Preisposition to Tarifzeit--><g class="link" data-entity-1="ent0002" data-entity-2="ent0012" data-link-type="composition" data-source-line="48" id="lnk21"><path codeLine="48" d="M226.79,490.3 C253.2,512.59 284.16,534.38 316.41,548 C394.43,580.96 482.2724,585.1317 541.8324,583.9317" fill="none" id="Preisposition-to-Tarifzeit" style="stroke:#181818;stroke-width:1;"/><polygon fill="#181818" points="553.83,583.69,547.7506,579.8117,541.8324,583.9317,547.9118,587.8101,553.83,583.69" style="stroke:#181818;stroke-width:1;"/><text fill="#000000" font-family="sans-serif" font-size="13" lengthAdjust="spacing" textLength="50.1274" x="363.41" y="544.0669">tarifzeit</text><text fill="#000000" font-family="sans-serif" font-size="13" lengthAdjust="spacing" textLength="24.8066" x="521.2146" y="597.1353">0..1</text></g><!--link Preisposition to Waehrungseinheit--><g class="link" data-entity-1="ent0002" data-entity-2="ent0013" data-link-type="composition" data-source-line="49" id="lnk22"><path codeLine="49" d="M197.43,490.35 C226.95,531.17 268.04,577.77 316.41,605 C380.81,641.26 453.1612,651.6324 514.0812,654.2624" fill="none" id="Preisposition-to-Waehrungseinheit" style="stroke:#181818;stroke-width:1;"/><polygon fill="#181818" points="526.07,654.78,520.2481,650.5249,514.0812,654.2624,519.9031,658.5175,526.07,654.78" style="stroke:#181818;stroke-width:1;"/><text fill="#000000" font-family="sans-serif" font-size="13" lengthAdjust="spacing" textLength="76.7749" x="350.41" y="601.0669">preiseinheit</text><text fill="#000000" font-family="sans-serif" font-size="13" lengthAdjust="spacing" textLength="24.8066" x="493.5996" y="667.6164">0..1</text></g><?plantuml-src hPRRZjem48RlynHMzcub4b2trIggAa7BIgYqe8Aw5nHLJZ99B1mdifskbefthtC0uXnML00tcTyppiVyFa0Xa4WcY9CmaiWd73n94cOO7iL287EpYQHCXMFRRl80LaXabBaMIUp9uc4wI5zbb32ROWb2sZWbjfV4rf834MaYI3wJ5ScO8atQRd-nZuBimHaDFxKAJ8I5de_-6aXzVXCVEKX8ZZP3onfjIr6-fagT4maSqusv_36ThPQBrMmzMtmtjrhg7-0YdwurIQ3U5WCBOK89yp5tWKYL5T04oywykQAJ6Gj5W7SouLsv8S_I51Zcako0pZhGwN4I5_P0l8YfPpthO1WCno1Ix04o2mDKkue67GDqDnsE7pzyhdfqhMj2uY00MZEjKhezgmRFbbN2VpksMe-VdgRpImrxewj0MAJi4scEqsLCXHXoO7kON93pio3GSWxgstG6M5Qp9e_GdJ_othr_lCwRV2PhycNwF2v_j0fZuAL3BLcpgRkoO6ofYl5mFIMebeXyIOSyKKzGKJRb3ifcIadPL6z2-HNJNQP4jR9432h5hpWx1jga7Ka5QuT-4zhJKQEsJObPLzfyzT42h2xSXEXRVWAoQf-LI9hKPjA62oXDkGdL6dCIx4z4fx1DSnegI4xHJIYUCKGyRxRMdgRQPcfc56XDiI1KTu9-EGu6zyXKnzAzgH_13afh8Ukf6faTPu63N1zUDEsDyjOcTT0-OJMXlxPhqwYNW_eNKbo7Hx5_1crrE-SxLONzHVhgor-upowWRPRbgyR5WeZ-alFgSf0yFlUdjnolJAn2muY8wb0CiMgHC4IKl23zpnCA251V_0C0?></g></svg>