<svg xmlns="http://www.w3.org/2000/svg" xmlns:xlink="http://www.w3.org/1999/xlink" contentStyleType="text/css" data-diagram-type="CLASS" height="720px" preserveAspectRatio="none" style="width:1254px;height:720px;background:#FFFFFF;" version="1.1" viewBox="0 0 1254 720" width="1254px" zoomAndPan="magnify"><defs/><g><!--cluster bo4e--><g class="cluster" data-entity="bo4e" data-source-line="11" data-uid="ent0005" id="cluster_bo4e"><path d="M976.62,6 L1016.496,6 A3.75,3.75 0 0 1 1018.996,8.5 L1025.996,28.2969 L1244.64,28.2969 A2.5,2.5 0 0 1 1247.14,30.7969 L1247.14,710.5 A2.5,2.5 0 0 1 1244.64,713 L976.62,713 A2.5,2.5 0 0 1 974.12,710.5 L974.12,8.5 A2.5,2.5 0 0 1 976.62,6" fill="none" style="stroke:#000000;stroke-width:1.5;"/><line style="stroke:#000000;stroke-width:1.5;" x1="974.12" x2="1025.996" y1="28.2969" y2="28.2969"/><text fill="#000000" font-family="sans-serif" font-size="14" font-weight="bold" lengthAdjust="spacing" textLength="38.876" x="978.12" y="20.9951">bo4e</text></g><!--cluster com--><g class="cluster" data-entity="com" data-source-line="10" data-uid="ent0003" id="cluster_com"><path d="M1022.34,49 L1100.0392,49 A3.75,3.75 0 0 1 1102.5392,51.5 L1109.5392,71.2969 L1198.92,71.2969 A2.5,2.5 0 0 1 1201.42,73.7969 L1201.42,500.5 A2.5,2.5 0 0 1 1198.92,503 L1022.34,503 A2.5,2.5 0 0 1 1019.84,500.5 L1019.84,51.5 A2.5,2.5 0 0 1 1022.34,49" fill="#E0A86C" style="stroke:#000000;stroke-width:1.5;"/><line style="stroke:#000000;stroke-width:1.5;" x1="1019.84" x2="1109.5392" y1="71.2969" y2="71.2969"/><a href="file:////home/runner/work/BO4E-python/BO4E-python/docs/../.tox/docs/tmp/html/api/bo4e.com.html" target="_top" title="file:////home/runner/work/BO4E-python/BO4E-python/docs/../.tox/docs/tmp/html/api/bo4e.com.html" xlink:actuate="onRequest" xlink:href="file:////home/runner/work/BO4E-python/BO4E-python/docs/../.tox/docs/tmp/html/api/bo4e.com.html" xlink:show="new" xlink:title="file:////home/runner/work/BO4E-python/BO4E-python/docs/../.tox/docs/tmp/html/api/bo4e.com.html" xlink:type="simple"><text fill="#0000FF" font-family="sans-serif" font-size="14" font-weight="bold" lengthAdjust="spacing" text-decoration="underline" textLength="76.6992" x="1023.84" y="63.9951">bo4e.com</text></a></g><!--cluster enum--><g class="cluster" data-entity="enum" data-source-line="18" data-uid="ent0011" id="cluster_enum"><path d="M1000.62,527 L1089.8309,527 A3.75,3.75 0 0 1 1092.3309,529.5 L1099.3309,549.2969 L1220.64,549.2969 A2.5,2.5 0 0 1 1223.14,551.7969 L1223.14,686.5 A2.5,2.5 0 0 1 1220.64,689 L1000.62,689 A2.5,2.5 0 0 1 998.12,686.5 L998.12,529.5 A2.5,2.5 0 0 1 1000.62,527" fill="#D1C358" style="stroke:#000000;stroke-width:1.5;"/><line style="stroke:#000000;stroke-width:1.5;" x1="998.12" x2="1099.3309" y1="549.2969" y2="549.2969"/><a href="file:////home/runner/work/BO4E-python/BO4E-python/docs/../.tox/docs/tmp/html/api/bo4e.enum.html" target="_top" title="file:////home/runner/work/BO4E-python/BO4E-python/docs/../.tox/docs/tmp/html/api/bo4e.enum.html" xlink:actuate="onRequest" xlink:href="file:////home/runner/work/BO4E-python/BO4E-python/docs/../.tox/docs/tmp/html/api/bo4e.enum.html" xlink:show="new" xlink:title="file:////home/runner/work/BO4E-python/BO4E-python/docs/../.tox/docs/tmp/html/api/bo4e.enum.html" xlink:type="simple"><text fill="#0000FF" font-family="sans-serif" font-size="14" font-weight="bold" lengthAdjust="spacing" text-decoration="underline" textLength="88.2109" x="1002.12" y="541.9951">bo4e.enum</text></a></g><!--class Menge--><g class="entity" data-entity="Menge" data-source-line="11" data-uid="ent0004" id="entity_Menge"><rect fill="#F1F1F1" height="37.9375" rx="2.5" ry="2.5" style="stroke:#181818;stroke-width:0.5;" width="119.4268" x="1050.92" y="84.03"/><ellipse cx="1065.92" cy="102.9987" fill="#ADD1B2" rx="11" ry="11" style="stroke:#181818;stroke-width:1;"/><path d="M1068.8888,108.6394 Q1068.3106,108.9362 1067.67,109.0769 Q1067.0294,109.2331 1066.3263,109.2331 Q1063.8263,109.2331 1062.4981,107.5925 Q1061.1856,105.9362 1061.1856,102.8112 Q1061.1856,99.6862 1062.4981,98.03 Q1063.8263,96.3737 1066.3263,96.3737 Q1067.0294,96.3737 1067.67,96.53 Q1068.3263,96.6862 1068.8888,96.9831 L1068.8888,99.7019 Q1068.2638,99.1237 1067.67,98.8581 Q1067.0763,98.5769 1066.4513,98.5769 Q1065.1075,98.5769 1064.42,99.655 Q1063.7325,100.7175 1063.7325,102.8112 Q1063.7325,104.905 1064.42,105.9831 Q1065.1075,107.0456 1066.4513,107.0456 Q1067.0763,107.0456 1067.67,106.78 Q1068.2638,106.4987 1068.8888,105.9206 L1068.8888,108.6394 Z " fill="#000000"/><a href="file:////home/runner/work/BO4E-python/BO4E-python/docs/../.tox/docs/tmp/html/api/bo4e.com.html#bo4e.com.menge.Menge" target="_top" title="file:////home/runner/work/BO4E-python/BO4E-python/docs/../.tox/docs/tmp/html/api/bo4e.com.html#bo4e.com.menge.Menge" xlink:actuate="onRequest" xlink:href="file:////home/runner/work/BO4E-python/BO4E-python/docs/../.tox/docs/tmp/html/api/bo4e.com.html#bo4e.com.menge.Menge" xlink:show="new" xlink:title="file:////home/runner/work/BO4E-python/BO4E-python/docs/../.tox/docs/tmp/html/api/bo4e.com.html#bo4e.com.menge.Menge" xlink:type="simple"><text fill="#0000FF" font-family="sans-serif" font-size="14" lengthAdjust="spacing" text-decoration="underline" textLength="47.0654" x="1100.1007" y="102.0251">Menge</text></a><text fill="#000000" font-family="sans-serif" font-size="10" lengthAdjust="spacing" textLength="87.4268" x="1079.92" y="114.6091">bo4e.com.menge</text></g><!--class Betrag--><g class="entity" data-entity="Betrag" data-source-line="12" data-uid="ent0006" id="entity_Betrag"><rect fill="#F1F1F1" height="37.9375" rx="2.5" ry="2.5" style="stroke:#181818;stroke-width:0.5;" width="117.7031" x="1051.78" y="157.03"/><ellipse cx="1066.78" cy="175.9987" fill="#ADD1B2" rx="11" ry="11" style="stroke:#181818;stroke-width:1;"/><path d="M1069.7488,181.6394 Q1069.1706,181.9362 1068.53,182.0769 Q1067.8894,182.2331 1067.1863,182.2331 Q1064.6863,182.2331 1063.3581,180.5925 Q1062.0456,178.9362 1062.0456,175.8112 Q1062.0456,172.6862 1063.3581,171.03 Q1064.6863,169.3737 1067.1863,169.3737 Q1067.8894,169.3737 1068.53,169.53 Q1069.1863,169.6862 1069.7488,169.9831 L1069.7488,172.7019 Q1069.1238,172.1237 1068.53,171.8581 Q1067.9363,171.5769 1067.3113,171.5769 Q1065.9675,171.5769 1065.28,172.655 Q1064.5925,173.7175 1064.5925,175.8112 Q1064.5925,177.905 1065.28,178.9831 Q1065.9675,180.0456 1067.3113,180.0456 Q1067.9363,180.0456 1068.53,179.78 Q1069.1238,179.4987 1069.7488,178.9206 L1069.7488,181.6394 Z " fill="#000000"/><a href="file:////home/runner/work/BO4E-python/BO4E-python/docs/../.tox/docs/tmp/html/api/bo4e.com.html#bo4e.com.betrag.Betrag" target="_top" title="file:////home/runner/work/BO4E-python/BO4E-python/docs/../.tox/docs/tmp/html/api/bo4e.com.html#bo4e.com.betrag.Betrag" xlink:actuate="onRequest" xlink:href="file:////home/runner/work/BO4E-python/BO4E-python/docs/../.tox/docs/tmp/html/api/bo4e.com.html#bo4e.com.betrag.Betrag" xlink:show="new" xlink:title="file:////home/runner/work/BO4E-python/BO4E-python/docs/../.tox/docs/tmp/html/api/bo4e.com.html#bo4e.com.betrag.Betrag" xlink:type="simple"><text fill="#0000FF" font-family="sans-serif" font-size="14" lengthAdjust="spacing" text-decoration="underline" textLength="46.9287" x="1100.1672" y="175.0251">Betrag</text></a><text fill="#000000" font-family="sans-serif" font-size="10" lengthAdjust="spacing" textLength="85.7031" x="1080.78" y="187.6091">bo4e.com.betrag</text></g><!--class COM--><g class="entity" data-entity="COM" data-source-line="13" data-uid="ent0007" id="entity_COM"><rect fill="#F1F1F1" height="37.9375" rx="2.5" ry="2.5" style="stroke:#181818;stroke-width:0.5;" width="106.0527" x="1057.6" y="230.03"/><ellipse cx="1072.6" cy="248.9987" fill="#ADD1B2" rx="11" ry="11" style="stroke:#181818;stroke-width:1;"/><path d="M1075.5688,254.6394 Q1074.9906,254.9362 1074.35,255.0769 Q1073.7094,255.2331 1073.0063,255.2331 Q1070.5063,255.2331 1069.1781,253.5925 Q1067.8656,251.9362 1067.8656,248.8112 Q1067.8656,245.6862 1069.1781,244.03 Q1070.5063,242.3737 1073.0063,242.3737 Q1073.7094,242.3737 1074.35,242.53 Q1075.0063,242.6862 1075.5688,242.9831 L1075.5688,245.7019 Q1074.9438,245.1237 1074.35,244.8581 Q1073.7563,244.5769 1073.1313,244.5769 Q1071.7875,244.5769 1071.1,245.655 Q1070.4125,246.7175 1070.4125,248.8112 Q1070.4125,250.905 1071.1,251.9831 Q1071.7875,253.0456 1073.1313,253.0456 Q1073.7563,253.0456 1074.35,252.78 Q1074.9438,252.4987 1075.5688,251.9206 L1075.5688,254.6394 Z " fill="#000000"/><a href="file:////home/runner/work/BO4E-python/BO4E-python/docs/../.tox/docs/tmp/html/api/bo4e.com.html#bo4e.com.com.COM" target="_top" title="file:////home/runner/work/BO4E-python/BO4E-python/docs/../.tox/docs/tmp/html/api/bo4e.com.html#bo4e.com.com.COM" xlink:actuate="onRequest" xlink:href="file:////home/runner/work/BO4E-python/BO4E-python/docs/../.tox/docs/tmp/html/api/bo4e.com.html#bo4e.com.com.COM" xlink:show="new" xlink:title="file:////home/runner/work/BO4E-python/BO4E-python/docs/../.tox/docs/tmp/html/api/bo4e.com.html#bo4e.com.com.COM" xlink:type="simple"><text fill="#0000FF" font-family="sans-serif" font-size="14" lengthAdjust="spacing" text-decoration="underline" textLength="32.874" x="1107.1894" y="248.0251">COM</text></a><text fill="#000000" font-family="sans-serif" font-size="10" lengthAdjust="spacing" textLength="74.0527" x="1086.6" y="260.6091">bo4e.com.com</text></g><!--class Zeitraum--><g class="entity" data-entity="Zeitraum" data-source-line="14" data-uid="ent0008" id="entity_Zeitraum"><rect fill="#F1F1F1" height="37.9375" rx="2.5" ry="2.5" style="stroke:#181818;stroke-width:0.5;" width="129.1143" x="1046.07" y="303.03"/><ellipse cx="1061.07" cy="321.9988" fill="#ADD1B2" rx="11" ry="11" style="stroke:#181818;stroke-width:1;"/><path d="M1064.0388,327.6394 Q1063.4606,327.9363 1062.82,328.0769 Q1062.1794,328.2331 1061.4763,328.2331 Q1058.9763,328.2331 1057.6481,326.5925 Q1056.3356,324.9363 1056.3356,321.8113 Q1056.3356,318.6863 1057.6481,317.03 Q1058.9763,315.3738 1061.4763,315.3738 Q1062.1794,315.3738 1062.82,315.53 Q1063.4763,315.6863 1064.0388,315.9831 L1064.0388,318.7019 Q1063.4138,318.1238 1062.82,317.8581 Q1062.2263,317.5769 1061.6013,317.5769 Q1060.2575,317.5769 1059.57,318.655 Q1058.8825,319.7175 1058.8825,321.8113 Q1058.8825,323.905 1059.57,324.9831 Q1060.2575,326.0456 1061.6013,326.0456 Q1062.2263,326.0456 1062.82,325.78 Q1063.4138,325.4988 1064.0388,324.9206 L1064.0388,327.6394 Z " fill="#000000"/><a href="file:////home/runner/work/BO4E-python/BO4E-python/docs/../.tox/docs/tmp/html/api/bo4e.com.html#bo4e.com.zeitraum.Zeitraum" target="_top" title="file:////home/runner/work/BO4E-python/BO4E-python/docs/../.tox/docs/tmp/html/api/bo4e.com.html#bo4e.com.zeitraum.Zeitraum" xlink:actuate="onRequest" xlink:href="file:////home/runner/work/BO4E-python/BO4E-python/docs/../.tox/docs/tmp/html/api/bo4e.com.html#bo4e.com.zeitraum.Zeitraum" xlink:show="new" xlink:title="file:////home/runner/work/BO4E-python/BO4E-python/docs/../.tox/docs/tmp/html/api/bo4e.com.html#bo4e.com.zeitraum.Zeitraum" xlink:type="simple"><text fill="#0000FF" font-family="sans-serif" font-size="14" lengthAdjust="spacing" text-decoration="underline" textLength="64.4287" x="1091.4128" y="321.0251">Zeitraum</text></a><text fill="#000000" font-family="sans-serif" font-size="10" lengthAdjust="spacing" textLength="97.1143" x="1075.07" y="333.6091">bo4e.com.zeitraum</text></g><!--class Preis--><g class="entity" data-entity="Preis" data-source-line="15" data-uid="ent0009" id="entity_Preis"><rect fill="#F1F1F1" height="37.9375" rx="2.5" ry="2.5" style="stroke:#181818;stroke-width:0.5;" width="109.2949" x="1055.98" y="376.03"/><ellipse cx="1070.98" cy="394.9988" fill="#ADD1B2" rx="11" ry="11" style="stroke:#181818;stroke-width:1;"/><path d="M1073.9488,400.6394 Q1073.3706,400.9363 1072.73,401.0769 Q1072.0894,401.2331 1071.3863,401.2331 Q1068.8863,401.2331 1067.5581,399.5925 Q1066.2456,397.9363 1066.2456,394.8113 Q1066.2456,391.6863 1067.5581,390.03 Q1068.8863,388.3738 1071.3863,388.3738 Q1072.0894,388.3738 1072.73,388.53 Q1073.3863,388.6863 1073.9488,388.9831 L1073.9488,391.7019 Q1073.3238,391.1238 1072.73,390.8581 Q1072.1363,390.5769 1071.5113,390.5769 Q1070.1675,390.5769 1069.48,391.655 Q1068.7925,392.7175 1068.7925,394.8113 Q1068.7925,396.905 1069.48,397.9831 Q1070.1675,399.0456 1071.5113,399.0456 Q1072.1363,399.0456 1072.73,398.78 Q1073.3238,398.4988 1073.9488,397.9206 L1073.9488,400.6394 Z " fill="#000000"/><a href="file:////home/runner/work/BO4E-python/BO4E-python/docs/../.tox/docs/tmp/html/api/bo4e.com.html#bo4e.com.preis.Preis" target="_top" title="file:////home/runner/work/BO4E-python/BO4E-python/docs/../.tox/docs/tmp/html/api/bo4e.com.html#bo4e.com.preis.Preis" xlink:actuate="onRequest" xlink:href="file:////home/runner/work/BO4E-python/BO4E-python/docs/../.tox/docs/tmp/html/api/bo4e.com.html#bo4e.com.preis.Preis" xlink:show="new" xlink:title="file:////home/runner/work/BO4E-python/BO4E-python/docs/../.tox/docs/tmp/html/api/bo4e.com.html#bo4e.com.preis.Preis" xlink:type="simple"><text fill="#0000FF" font-family="sans-serif" font-size="14" lengthAdjust="spacing" text-decoration="underline" textLength="33.9951" x="1106.6299" y="394.0251">Preis</text></a><text fill="#000000" font-family="sans-serif" font-size="10" lengthAdjust="spacing" textLength="77.2949" x="1084.98" y="406.6091">bo4e.com.preis</text></g><!--class Steuerbetrag--><g class="entity" data-entity="Steuerbetrag" data-source-line="16" data-uid="ent0010" id="entity_Steuerbetrag"><rect fill="#F1F1F1" height="37.9375" rx="2.5" ry="2.5" style="stroke:#181818;stroke-width:0.5;" width="149.5879" x="1035.84" y="449.03"/><ellipse cx="1050.84" cy="467.9988" fill="#ADD1B2" rx="11" ry="11" style="stroke:#181818;stroke-width:1;"/><path d="M1053.8088,473.6394 Q1053.2306,473.9363 1052.59,474.0769 Q1051.9494,474.2331 1051.2463,474.2331 Q1048.7463,474.2331 1047.4181,472.5925 Q1046.1056,470.9363 1046.1056,467.8113 Q1046.1056,464.6863 1047.4181,463.03 Q1048.7463,461.3738 1051.2463,461.3738 Q1051.9494,461.3738 1052.59,461.53 Q1053.2463,461.6863 1053.8088,461.9831 L1053.8088,464.7019 Q1053.1838,464.1238 1052.59,463.8581 Q1051.9963,463.5769 1051.3713,463.5769 Q1050.0275,463.5769 1049.34,464.655 Q1048.6525,465.7175 1048.6525,467.8113 Q1048.6525,469.905 1049.34,470.9831 Q1050.0275,472.0456 1051.3713,472.0456 Q1051.9963,472.0456 1052.59,471.78 Q1053.1838,471.4988 1053.8088,470.9206 L1053.8088,473.6394 Z " fill="#000000"/><a href="file:////home/runner/work/BO4E-python/BO4E-python/docs/../.tox/docs/tmp/html/api/bo4e.com.html#bo4e.com.steuerbetrag.Steuerbetrag" target="_top" title="file:////home/runner/work/BO4E-python/BO4E-python/docs/../.tox/docs/tmp/html/api/bo4e.com.html#bo4e.com.steuerbetrag.Steuerbetrag" xlink:actuate="onRequest" xlink:href="file:////home/runner/work/BO4E-python/BO4E-python/docs/../.tox/docs/tmp/html/api/bo4e.com.html#bo4e.com.steuerbetrag.Steuerbetrag" xlink:show="new" xlink:title="file:////home/runner/work/BO4E-python/BO4E-python/docs/../.tox/docs/tmp/html/api/bo4e.com.html#bo4e.com.steuerbetrag.Steuerbetrag" xlink:type="simple"><text fill="#0000FF" font-family="sans-serif" font-size="14" lengthAdjust="spacing" text-decoration="underline" textLength="92.4424" x="1077.4128" y="467.0251">Steuerbetrag</text></a><text fill="#000000" font-family="sans-serif" font-size="10" lengthAdjust="spacing" textLength="117.5879" x="1064.84" y="479.6091">bo4e.com.steuerbetrag</text></g><!--class BDEWArtikelnummer--><g class="entity" data-entity="BDEWArtikelnummer" data-source-line="19" data-uid="ent0012" id="entity_BDEWArtikelnummer"><rect fill="#F1F1F1" height="37.9375" rx="2.5" ry="2.5" style="stroke:#181818;stroke-width:0.5;" width="193.0156" x="1014.12" y="562.03"/><ellipse cx="1029.12" cy="580.9988" fill="#ADD1B2" rx="11" ry="11" style="stroke:#181818;stroke-width:1;"/><path d="M1032.0888,586.6394 Q1031.5106,586.9363 1030.87,587.0769 Q1030.2294,587.2331 1029.5263,587.2331 Q1027.0263,587.2331 1025.6981,585.5925 Q1024.3856,583.9363 1024.3856,580.8113 Q1024.3856,577.6863 1025.6981,576.03 Q1027.0263,574.3738 1029.5263,574.3738 Q1030.2294,574.3738 1030.87,574.53 Q1031.5263,574.6863 1032.0888,574.9831 L1032.0888,577.7019 Q1031.4638,577.1238 1030.87,576.8581 Q1030.2763,576.5769 1029.6513,576.5769 Q1028.3075,576.5769 1027.62,577.655 Q1026.9325,578.7175 1026.9325,580.8113 Q1026.9325,582.905 1027.62,583.9831 Q1028.3075,585.0456 1029.6513,585.0456 Q1030.2763,585.0456 1030.87,584.78 Q1031.4638,584.4988 1032.0888,583.9206 L1032.0888,586.6394 Z " fill="#000000"/><a href="file:////home/runner/work/BO4E-python/BO4E-python/docs/../.tox/docs/tmp/html/api/bo4e.enum.html#bo4e.enum.bdewartikelnummer.BDEWArtikelnummer" target="_top" title="file:////home/runner/work/BO4E-python/BO4E-python/docs/../.tox/docs/tmp/html/api/bo4e.enum.html#bo4e.enum.bdewartikelnummer.BDEWArtikelnummer" xlink:actuate="onRequest" xlink:href="file:////home/runner/work/BO4E-python/BO4E-python/docs/../.tox/docs/tmp/html/api/bo4e.enum.html#bo4e.enum.bdewartikelnummer.BDEWArtikelnummer" xlink:show="new" xlink:title="file:////home/runner/work/BO4E-python/BO4E-python/docs/../.tox/docs/tmp/html/api/bo4e.enum.html#bo4e.enum.bdewartikelnummer.BDEWArtikelnummer" xlink:type="simple"><text fill="#0000FF" font-family="sans-serif" font-size="14" lengthAdjust="spacing" text-decoration="underline" textLength="147.7861" x="1049.7347" y="580.0251">BDEWArtikelnummer</text></a><text fill="#000000" font-family="sans-serif" font-size="10" lengthAdjust="spacing" textLength="161.0156" x="1043.12" y="592.6091">bo4e.enum.bdewartikelnummer</text></g><!--class Mengeneinheit--><g class="entity" data-entity="Mengeneinheit" data-source-line="20" data-uid="ent0013" id="entity_Mengeneinheit"><rect fill="#F1F1F1" height="37.9375" rx="2.5" ry="2.5" style="stroke:#181818;stroke-width:0.5;" width="167.4346" x="1026.91" y="635.03"/><ellipse cx="1041.91" cy="653.9988" fill="#ADD1B2" rx="11" ry="11" style="stroke:#181818;stroke-width:1;"/><path d="M1044.8787,659.6394 Q1044.3006,659.9363 1043.66,660.0769 Q1043.0194,660.2331 1042.3162,660.2331 Q1039.8162,660.2331 1038.4881,658.5925 Q1037.1756,656.9363 1037.1756,653.8113 Q1037.1756,650.6863 1038.4881,649.03 Q1039.8162,647.3738 1042.3162,647.3738 Q1043.0194,647.3738 1043.66,647.53 Q1044.3162,647.6863 1044.8787,647.9831 L1044.8787,650.7019 Q1044.2537,650.1238 1043.66,649.8581 Q1043.0662,649.5769 1042.4412,649.5769 Q1041.0975,649.5769 1040.41,650.655 Q1039.7225,651.7175 1039.7225,653.8113 Q1039.7225,655.905 1040.41,656.9831 Q1041.0975,658.0456 1042.4412,658.0456 Q1043.0662,658.0456 1043.66,657.78 Q1044.2537,657.4988 1044.8787,656.9206 L1044.8787,659.6394 Z " fill="#000000"/><a href="file:////home/runner/work/BO4E-python/BO4E-python/docs/../.tox/docs/tmp/html/api/bo4e.enum.html#bo4e.enum.mengeneinheit.Mengeneinheit" target="_top" title="file:////home/runner/work/BO4E-python/BO4E-python/docs/../.tox/docs/tmp/html/api/bo4e.enum.html#bo4e.enum.mengeneinheit.Mengeneinheit" xlink:actuate="onRequest" xlink:href="file:////home/runner/work/BO4E-python/BO4E-python/docs/../.tox/docs/tmp/html/api/bo4e.enum.html#bo4e.enum.mengeneinheit.Mengeneinheit" xlink:show="new" xlink:title="file:////home/runner/work/BO4E-python/BO4E-python/docs/../.tox/docs/tmp/html/api/bo4e.enum.html#bo4e.enum.mengeneinheit.Mengeneinheit" xlink:type="simple"><text fill="#0000FF" font-family="sans-serif" font-size="14" lengthAdjust="spacing" text-decoration="underline" textLength="104.1797" x="1071.5374" y="653.0251">Mengeneinheit</text></a><text fill="#000000" font-family="sans-serif" font-size="10" lengthAdjust="spacing" textLength="135.4346" x="1055.91" y="665.6091">bo4e.enum.mengeneinheit</text></g><!--class Rechnungsposition--><g class="entity" data-entity="Rechnungsposition" data-source-line="3" data-uid="ent0002" id="entity_Rechnungsposition"><rect fill="#F1F1F1" height="111.125" rx="2.5" ry="2.5" style="stroke:#181818;stroke-width:0.5;" width="789.123" x="7" y="266.44"/><ellipse cx="324.8237" cy="285.4088" fill="#ADD1B2" rx="11" ry="11" style="stroke:#181818;stroke-width:1;"/><path d="M327.7925,291.0494 Q327.2144,291.3463 326.5737,291.4869 Q325.9331,291.6431 325.23,291.6431 Q322.73,291.6431 321.4019,290.0025 Q320.0894,288.3463 320.0894,285.2213 Q320.0894,282.0963 321.4019,280.44 Q322.73,278.7838 325.23,278.7838 Q325.9331,278.7838 326.5737,278.94 Q327.23,279.0963 327.7925,279.3931 L327.7925,282.1119 Q327.1675,281.5338 326.5737,281.2681 Q325.98,280.9869 325.355,280.9869 Q324.0112,280.9869 323.3237,282.065 Q322.6362,283.1275 322.6362,285.2213 Q322.6362,287.315 323.3237,288.3931 Q324.0112,289.4556 325.355,289.4556 Q325.98,289.4556 326.5737,289.19 Q327.1675,288.9088 327.7925,288.3306 L327.7925,291.0494 Z " fill="#000000"/><a href="file:////home/runner/work/BO4E-python/BO4E-python/docs/../.tox/docs/tmp/html/api/bo4e.com.html#bo4e.com.rechnungsposition.Rechnungsposition" target="_top" title="file:////home/runner/work/BO4E-python/BO4E-python/docs/../.tox/docs/tmp/html/api/bo4e.com.html#bo4e.com.rechnungsposition.Rechnungsposition" xlink:actuate="onRequest" xlink:href="file:////home/runner/work/BO4E-python/BO4E-python/docs/../.tox/docs/tmp/html/api/bo4e.com.html#bo4e.com.rechnungsposition.Rechnungsposition" xlink:show="new" xlink:title="file:////home/runner/work/BO4E-python/BO4E-python/docs/../.tox/docs/tmp/html/api/bo4e.com.html#bo4e.com.rechnungsposition.Rechnungsposition" xlink:type="simple"><text fill="#0000FF" font-family="sans-serif" font-size="14" lengthAdjust="spacing" text-decoration="underline" textLength="133.1641" x="351.2295" y="284.4351">Rechnungsposition</text></a><text fill="#000000" font-family="sans-serif" font-size="10" lengthAdjust="spacing" textLength="144.9756" x="345.3237" y="297.0191">bo4e.com.rechnungsposition</text><line style="stroke:#181818;stroke-width:0.5;" x1="8" x2="795.123" y1="304.3775" y2="304.3775"/><text fill="#000000" font-family="sans-serif" font-size="14" lengthAdjust="spacing" textLength="777.123" x="13" y="321.3726">_typ : Literal[&lt;ComTyp.RECHNUNGSPOSITION: 'RECHNUNGSPOSITION'&gt;] [1] = ComTyp.RECHNUNGSPOSITION</text><text fill="#000000" font-family="sans-serif" font-size="14" lengthAdjust="spacing" textLength="253.251" x="13" y="337.6695">positionsnummer : int [0..1] = None</text><text fill="#000000" font-family="sans-serif" font-size="14" lengthAdjust="spacing" textLength="222.0244" x="13" y="353.9664">positionstext : str [0..1] = None</text><text fill="#000000" font-family="sans-serif" font-size="14" lengthAdjust="spacing" textLength="188.7402" x="13" y="370.2632">artikelId : str [0..1] = None</text></g><!--link Rechnungsposition to COM--><g class="link" data-entity-1="Rechnungsposition" data-entity-2="COM" data-source-line="23" data-uid="lnk14" id="link_Rechnungsposition_COM"><path codeLine="23" d="M796.41,281.34 C900.1,270.63 981.2052,262.2588 1039.2152,256.2688" fill="none" id="Rechnungsposition-to-COM" style="stroke:#181818;stroke-width:1;"/><polygon fill="none" points="1057.12,254.42,1038.5989,250.3005,1039.8315,262.2371,1057.12,254.42" style="stroke:#181818;stroke-width:1;"/></g><!--link Rechnungsposition to Zeitraum--><g class="link" data-entity-1="Rechnungsposition" data-entity-2="Zeitraum" data-source-line="24" data-uid="lnk15" id="link_Rechnungsposition_Zeitraum"><path codeLine="24" d="M796.41,322 C893.6,322 974.68,322 1033.73,322" fill="none" id="Rechnungsposition-to-Zeitraum" style="stroke:#181818;stroke-width:1;"/><polygon fill="#181818" points="1045.73,322,1039.73,318,1033.73,322,1039.73,326,1045.73,322" style="stroke:#181818;stroke-width:1;"/><text fill="#000000" font-family="sans-serif" font-size="13" lengthAdjust="spacing" textLength="122.3892" x="831.12" y="318.0669">lieferungszeitraum</text><text fill="#000000" font-family="sans-serif" font-size="13" lengthAdjust="spacing" textLength="24.8066" x="1013.3635" y="334.8946">0..1</text></g><!--link Rechnungsposition to Menge--><g class="link" data-entity-1="Rechnungsposition" data-entity-2="Menge" data-source-line="25" data-uid="lnk16" id="link_Rechnungsposition_Menge"><path codeLine="25" d="M512.97,265.96 C596.83,225.73 716.1,173.45 826.12,143 C902.06,121.98 980.6812,112.654 1038.6712,107.834" fill="none" id="Rechnungsposition-to-Menge" style="stroke:#181818;stroke-width:1;"/><polygon fill="#181818" points="1050.63,106.84,1044.3193,103.3507,1038.6712,107.834,1044.9819,111.3232,1050.63,106.84" style="stroke:#181818;stroke-width:1;"/><text fill="#000000" font-family="sans-serif" font-size="13" lengthAdjust="spacing" textLength="101.9688" x="841.62" y="114.0669">positionsMenge</text><text fill="#000000" font-family="sans-serif" font-size="13" lengthAdjust="spacing" textLength="24.8066" x="1017.9037" y="120.2972">0..1</text></g><!--link Rechnungsposition to Menge--><g class="link" data-entity-1="Rechnungsposition" data-entity-2="Menge" data-source-line="26" data-uid="lnk17" id="link_Rechnungsposition_Menge"><path codeLine="26" d="M590.53,266 C663.85,244.64 748.73,220.52 826.12,200 C884.47,184.53 914.58,209.81 958.12,168 C967.46,159.04 956.85,149.03 966.12,140 C988.42,118.27 1009.8094,110.437 1038.7094,106.507" fill="none" id="Rechnungsposition-to-Menge-1" style="stroke:#181818;stroke-width:1;"/><polygon fill="#181818" points="1050.6,104.89,1044.1157,101.735,1038.7094,106.507,1045.1937,109.662,1050.6,104.89" style="stroke:#181818;stroke-width:1;"/><text fill="#000000" font-family="sans-serif" font-size="13" lengthAdjust="spacing" textLength="130.749" x="827.12" y="164.0669">zeitbezogeneMenge</text><text fill="#000000" font-family="sans-serif" font-size="13" lengthAdjust="spacing" textLength="24.8066" x="1018.3178" y="101.3161">0..1</text></g><!--link Rechnungsposition to Preis--><g class="link" data-entity-1="Rechnungsposition" data-entity-2="Preis" data-source-line="27" data-uid="lnk18" id="link_Rechnungsposition_Preis"><path codeLine="27" d="M796.41,362.66 C899.15,373.27 985.3534,382.1678 1043.5734,388.1778" fill="none" id="Rechnungsposition-to-Preis" style="stroke:#181818;stroke-width:1;"/><polygon fill="#181818" points="1055.51,389.41,1049.9524,384.815,1043.5734,388.1778,1049.131,392.7728,1055.51,389.41" style="stroke:#181818;stroke-width:1;"/><text fill="#000000" font-family="sans-serif" font-size="13" lengthAdjust="spacing" textLength="70.2622" x="857.12" y="363.0669">einzelpreis</text><text fill="#000000" font-family="sans-serif" font-size="13" lengthAdjust="spacing" textLength="24.8066" x="1023.3792" y="401.7179">0..1</text></g><!--link Rechnungsposition to Betrag--><g class="link" data-entity-1="Rechnungsposition" data-entity-2="Betrag" data-source-line="28" data-uid="lnk19" id="link_Rechnungsposition_Betrag"><path codeLine="28" d="M756.79,265.95 C853.29,248.98 937.2,231.96 958.12,221 C962.58,218.67 961.76,215.49 966.12,213 C992.15,198.14 1012.4387,191.4718 1039.6487,186.0818" fill="none" id="Rechnungsposition-to-Betrag" style="stroke:#181818;stroke-width:1;"/><polygon fill="#181818" points="1051.42,183.75,1044.7571,180.9921,1039.6487,186.0818,1046.3116,188.8396,1051.42,183.75" style="stroke:#181818;stroke-width:1;"/><text fill="#000000" font-family="sans-serif" font-size="13" lengthAdjust="spacing" textLength="80.7295" x="852.12" y="217.0669">gesamtpreis</text><text fill="#000000" font-family="sans-serif" font-size="13" lengthAdjust="spacing" textLength="24.8066" x="1018.7902" y="197.6837">0..1</text></g><!--link Rechnungsposition to BDEWArtikelnummer--><g class="link" data-entity-1="Rechnungsposition" data-entity-2="BDEWArtikelnummer" data-source-line="29" data-uid="lnk20" id="link_Rechnungsposition_BDEWArtikelnummer"><path codeLine="29" d="M555.55,378.04 C713.71,435.98 940.6321,519.0928 1045.5521,557.5228" fill="none" id="Rechnungsposition-to-BDEWArtikelnummer" style="stroke:#181818;stroke-width:1;"/><polygon fill="#181818" points="1056.82,561.65,1052.5618,555.8304,1045.5521,557.5228,1049.8103,563.3424,1056.82,561.65" style="stroke:#181818;stroke-width:1;"/><text fill="#000000" font-family="sans-serif" font-size="13" lengthAdjust="spacing" textLength="96.3066" x="844.12" y="475.0669">artikelnummer</text><text fill="#000000" font-family="sans-serif" font-size="13" lengthAdjust="spacing" textLength="24.8066" x="1013.6074" y="550.8496">0..1</text></g><!--link Rechnungsposition to Steuerbetrag--><g class="link" data-entity-1="Rechnungsposition" data-entity-2="Steuerbetrag" data-source-line="30" data-uid="lnk21" id="link_Rechnungsposition_Steuerbetrag"><path codeLine="30" d="M673.91,378.03 C803.99,404.89 938.0281,432.5625 1023.6681,450.2525" fill="none" id="Rechnungsposition-to-Steuerbetrag" style="stroke:#181818;stroke-width:1;"/><polygon fill="#181818" points="1035.42,452.68,1030.3532,447.5489,1023.6681,450.2525,1028.7349,455.3836,1035.42,452.68" style="stroke:#181818;stroke-width:1;"/><text fill="#000000" font-family="sans-serif" font-size="13" lengthAdjust="spacing" textLength="84.3604" x="850.12" y="407.0669">steuerbetrag</text><text fill="#000000" font-family="sans-serif" font-size="13" lengthAdjust="spacing" textLength="24.8066" x="1003.1459" y="464.008">0..1</text></g><!--link Rechnungsposition to Mengeneinheit--><g class="link" data-entity-1="Rechnungsposition" data-entity-2="Mengeneinheit" data-source-line="31" data-uid="lnk22" id="link_Rechnungsposition_Mengeneinheit"><path codeLine="31" d="M490.85,377.93 C598.96,444.08 789.54,553.25 966.12,617 C985.36,623.95 994.8822,627.1072 1014.8722,632.3472" fill="none" id="Rechnungsposition-to-Mengeneinheit" style="stroke:#181818;stroke-width:1;"/><polygon fill="#181818" points="1026.48,635.39,1021.6903,629.9993,1014.8722,632.3472,1019.6618,637.7379,1026.48,635.39" style="stroke:#181818;stroke-width:1;"/><text fill="#000000" font-family="sans-serif" font-size="13" lengthAdjust="spacing" textLength="68.3262" x="858.12" y="561.0669">zeiteinheit</text><text fill="#000000" font-family="sans-serif" font-size="13" lengthAdjust="spacing" textLength="24.8066" x="994.252" y="646.5079">0..1</text></g><!--SRC=[nLPHRzem47vkViK97YfDmW6jgwgeGoeCRPLMg4gdIMDe2kGWLcCxieqeRFllinq20O947mP8TdANx-pFb-Ex93ZHe0L8EeqrH5JYM5F1FM-SX4f1PJ2Oq0G3t_nYmT2NCyvH-dCXN_nMxwfJInSw5dphFX9ZvHFY4orUCqEpr8yrI_mmfVv8N24P2qQifxgspCund_6fIeMYbWDvslN0dcSu_Cbl5LrYqAWt3ozLWL3j1yDlx-ANNgGGm5UgKOR9uBOjsFCY9K-TzfVkj-xd_cElV_zyt-i6SBddksmEOT0OmaSu5ELTv7ifFcCCfTcASWs3EY4ki2iu5a0QNxM1A2rt8Q7Kz0MJ-wZqyL_Fuo53bOPZ_F_l379hE7I9pKseTkftDzTjczUJbmz3FaNoO6TmStbfE9XZxK1d83f2BSCfQRaBP9TohXdIaSrWPs1hHxlt06QKapJ3CJI0Cz1R8ZM9cJ7oOtK3-KqvsnplAEVGC_1E9L957kqCRYwdws2EgmETWQYHf1dALSts2mOKZNBsnLXtY6A8qQmJI1OQsIrebZMBecLjg4QDyViFDoTGhJMRwiOSHJXVYNlM8aZhK-VxNT43UvxzV9UlbMd7RlHPpkc4boFbiVdNPJgTMx1b7JZRLln6m7EFRO4b7morsf_ckZzP8Ii36TGxgDY6MjbWru8IG49nWjA6vF9nz2fPFmfWtU6phlFMSBll29V2dlTjAsGI4u19qn8JfoT7nwvQL01JL27JnmUx5xPVnW5i5UVHFBPantx-55JaQ3hR5PUbDAyTBwOH0aCsGgay5OivbAmxePX4wXy0]--></g></svg>