<?xml version="1.0" encoding="us-ascii" standalone="no"?><svg xmlns="http://www.w3.org/2000/svg" xmlns:xlink="http://www.w3.org/1999/xlink" contentStyleType="text/css" height="647px" preserveAspectRatio="none" style="width:772px;height:647px;background:#FFFFFF;" version="1.1" viewBox="0 0 772 647" width="772px" zoomAndPan="magnify"><defs/><g><!--cluster bo4e--><g id="cluster_bo4e"><path d="M500.5,6 L541.5,6 A3.75,3.75 0 0 1 544,8.5 L551,28.2969 L762.5,28.2969 A2.5,2.5 0 0 1 765,30.7969 L765,637.5 A2.5,2.5 0 0 1 762.5,640 L500.5,640 A2.5,2.5 0 0 1 498,637.5 L498,8.5 A2.5,2.5 0 0 1 500.5,6 " fill="none" style="stroke:#000000;stroke-width:1.5;"/><line style="stroke:#000000;stroke-width:1.5;" x1="498" x2="551" y1="28.2969" y2="28.2969"/><text fill="#000000" font-family="sans-serif" font-size="14" font-weight="bold" lengthAdjust="spacing" textLength="40" x="502" y="20.9951">bo4e</text></g><!--cluster com--><g id="cluster_com"><path d="M545,49 L624,49 A3.75,3.75 0 0 1 626.5,51.5 L633.5,71.2969 L718,71.2969 A2.5,2.5 0 0 1 720.5,73.7969 L720.5,427.5 A2.5,2.5 0 0 1 718,430 L545,430 A2.5,2.5 0 0 1 542.5,427.5 L542.5,51.5 A2.5,2.5 0 0 1 545,49 " fill="#E0A86C" style="stroke:#000000;stroke-width:1.5;"/><line style="stroke:#000000;stroke-width:1.5;" x1="542.5" x2="633.5" y1="71.2969" y2="71.2969"/><a href="https://bo4e.github.io/BO4E-python/latest/api/bo4e.com.html" target="_top" title="https://bo4e.github.io/BO4E-python/latest/api/bo4e.com.html" xlink:actuate="onRequest" xlink:href="https://bo4e.github.io/BO4E-python/latest/api/bo4e.com.html" xlink:show="new" xlink:title="https://bo4e.github.io/BO4E-python/latest/api/bo4e.com.html" xlink:type="simple"><text fill="#0000FF" font-family="sans-serif" font-size="14" font-weight="bold" lengthAdjust="spacing" text-decoration="underline" textLength="78" x="546.5" y="63.9951">bo4e.com</text></a></g><!--cluster enum--><g id="cluster_enum"><path d="M524.5,454 L614.5,454 A3.75,3.75 0 0 1 617,456.5 L624,476.2969 L738.5,476.2969 A2.5,2.5 0 0 1 741,478.7969 L741,613.5 A2.5,2.5 0 0 1 738.5,616 L524.5,616 A2.5,2.5 0 0 1 522,613.5 L522,456.5 A2.5,2.5 0 0 1 524.5,454 " fill="#D1C358" style="stroke:#000000;stroke-width:1.5;"/><line style="stroke:#000000;stroke-width:1.5;" x1="522" x2="624" y1="476.2969" y2="476.2969"/><a href="https://bo4e.github.io/BO4E-python/latest/api/bo4e.enum.html" target="_top" title="https://bo4e.github.io/BO4E-python/latest/api/bo4e.enum.html" xlink:actuate="onRequest" xlink:href="https://bo4e.github.io/BO4E-python/latest/api/bo4e.enum.html" xlink:show="new" xlink:title="https://bo4e.github.io/BO4E-python/latest/api/bo4e.enum.html" xlink:type="simple"><text fill="#0000FF" font-family="sans-serif" font-size="14" font-weight="bold" lengthAdjust="spacing" text-decoration="underline" textLength="89" x="526" y="468.9951">bo4e.enum</text></a></g><!--class Menge--><g id="elem_Menge"><rect codeLine="13" fill="#F1F1F1" height="37.9375" id="Menge" rx="2.5" ry="2.5" style="stroke:#181818;stroke-width:0.5;" width="117" x="573" y="84.03"/><ellipse cx="588" cy="102.9987" fill="#ADD1B2" rx="11" ry="11" style="stroke:#181818;stroke-width:1.0;"/><path d="M590.9688,108.6394 Q590.3906,108.9362 589.75,109.0769 Q589.1094,109.2331 588.4063,109.2331 Q585.9063,109.2331 584.5781,107.5925 Q583.2656,105.9362 583.2656,102.8112 Q583.2656,99.6862 584.5781,98.03 Q585.9063,96.3737 588.4063,96.3737 Q589.1094,96.3737 589.75,96.53 Q590.4063,96.6862 590.9688,96.9831 L590.9688,99.7019 Q590.3438,99.1237 589.75,98.8581 Q589.1563,98.5769 588.5313,98.5769 Q587.1875,98.5769 586.5,99.655 Q585.8125,100.7175 585.8125,102.8112 Q585.8125,104.905 586.5,105.9831 Q587.1875,107.0456 588.5313,107.0456 Q589.1563,107.0456 589.75,106.78 Q590.3438,106.4987 590.9688,105.9206 L590.9688,108.6394 Z " fill="#000000"/><a href="https://bo4e.github.io/BO4E-python/latest/api/bo4e.com.html#bo4e.com.menge.Menge" target="_top" title="https://bo4e.github.io/BO4E-python/latest/api/bo4e.com.html#bo4e.com.menge.Menge" xlink:actuate="onRequest" xlink:href="https://bo4e.github.io/BO4E-python/latest/api/bo4e.com.html#bo4e.com.menge.Menge" xlink:show="new" xlink:title="https://bo4e.github.io/BO4E-python/latest/api/bo4e.com.html#bo4e.com.menge.Menge" xlink:type="simple"><text fill="#0000FF" font-family="sans-serif" font-size="14" lengthAdjust="spacing" text-decoration="underline" textLength="48" x="620.5" y="102.0251">Menge</text></a><text fill="#000000" font-family="sans-serif" font-size="10" lengthAdjust="spacing" textLength="85" x="602" y="114.6091">bo4e.com.menge</text></g><!--class Steuerbetrag--><g id="elem_Steuerbetrag"><rect codeLine="14" fill="#F1F1F1" height="37.9375" id="Steuerbetrag" rx="2.5" ry="2.5" style="stroke:#181818;stroke-width:0.5;" width="146" x="558.5" y="157.03"/><ellipse cx="573.5" cy="175.9987" fill="#ADD1B2" rx="11" ry="11" style="stroke:#181818;stroke-width:1.0;"/><path d="M576.4688,181.6394 Q575.8906,181.9362 575.25,182.0769 Q574.6094,182.2331 573.9063,182.2331 Q571.4063,182.2331 570.0781,180.5925 Q568.7656,178.9362 568.7656,175.8112 Q568.7656,172.6862 570.0781,171.03 Q571.4063,169.3737 573.9063,169.3737 Q574.6094,169.3737 575.25,169.53 Q575.9063,169.6862 576.4688,169.9831 L576.4688,172.7019 Q575.8438,172.1237 575.25,171.8581 Q574.6563,171.5769 574.0313,171.5769 Q572.6875,171.5769 572,172.655 Q571.3125,173.7175 571.3125,175.8112 Q571.3125,177.905 572,178.9831 Q572.6875,180.0456 574.0313,180.0456 Q574.6563,180.0456 575.25,179.78 Q575.8438,179.4987 576.4688,178.9206 L576.4688,181.6394 Z " fill="#000000"/><a href="https://bo4e.github.io/BO4E-python/latest/api/bo4e.com.html#bo4e.com.steuerbetrag.Steuerbetrag" target="_top" title="https://bo4e.github.io/BO4E-python/latest/api/bo4e.com.html#bo4e.com.steuerbetrag.Steuerbetrag" xlink:actuate="onRequest" xlink:href="https://bo4e.github.io/BO4E-python/latest/api/bo4e.com.html#bo4e.com.steuerbetrag.Steuerbetrag" xlink:show="new" xlink:title="https://bo4e.github.io/BO4E-python/latest/api/bo4e.com.html#bo4e.com.steuerbetrag.Steuerbetrag" xlink:type="simple"><text fill="#0000FF" font-family="sans-serif" font-size="14" lengthAdjust="spacing" text-decoration="underline" textLength="91" x="599" y="175.0251">Steuerbetrag</text></a><text fill="#000000" font-family="sans-serif" font-size="10" lengthAdjust="spacing" textLength="114" x="587.5" y="187.6091">bo4e.com.steuerbetrag</text></g><!--class Preis--><g id="elem_Preis"><rect codeLine="15" fill="#F1F1F1" height="37.9375" id="Preis" rx="2.5" ry="2.5" style="stroke:#181818;stroke-width:0.5;" width="106" x="578.5" y="230.03"/><ellipse cx="593.5" cy="248.9987" fill="#ADD1B2" rx="11" ry="11" style="stroke:#181818;stroke-width:1.0;"/><path d="M596.4688,254.6394 Q595.8906,254.9362 595.25,255.0769 Q594.6094,255.2331 593.9063,255.2331 Q591.4063,255.2331 590.0781,253.5925 Q588.7656,251.9362 588.7656,248.8112 Q588.7656,245.6862 590.0781,244.03 Q591.4063,242.3737 593.9063,242.3737 Q594.6094,242.3737 595.25,242.53 Q595.9063,242.6862 596.4688,242.9831 L596.4688,245.7019 Q595.8438,245.1237 595.25,244.8581 Q594.6563,244.5769 594.0313,244.5769 Q592.6875,244.5769 592,245.655 Q591.3125,246.7175 591.3125,248.8112 Q591.3125,250.905 592,251.9831 Q592.6875,253.0456 594.0313,253.0456 Q594.6563,253.0456 595.25,252.78 Q595.8438,252.4987 596.4688,251.9206 L596.4688,254.6394 Z " fill="#000000"/><a href="https://bo4e.github.io/BO4E-python/latest/api/bo4e.com.html#bo4e.com.preis.Preis" target="_top" title="https://bo4e.github.io/BO4E-python/latest/api/bo4e.com.html#bo4e.com.preis.Preis" xlink:actuate="onRequest" xlink:href="https://bo4e.github.io/BO4E-python/latest/api/bo4e.com.html#bo4e.com.preis.Preis" xlink:show="new" xlink:title="https://bo4e.github.io/BO4E-python/latest/api/bo4e.com.html#bo4e.com.preis.Preis" xlink:type="simple"><text fill="#0000FF" font-family="sans-serif" font-size="14" lengthAdjust="spacing" text-decoration="underline" textLength="34" x="627.5" y="248.0251">Preis</text></a><text fill="#000000" font-family="sans-serif" font-size="10" lengthAdjust="spacing" textLength="74" x="607.5" y="260.6091">bo4e.com.preis</text></g><!--class COM--><g id="elem_COM"><rect codeLine="16" fill="#F1F1F1" height="37.9375" id="COM" rx="2.5" ry="2.5" style="stroke:#181818;stroke-width:0.5;" width="104" x="579.5" y="303.03"/><ellipse cx="594.5" cy="321.9988" fill="#ADD1B2" rx="11" ry="11" style="stroke:#181818;stroke-width:1.0;"/><path d="M597.4688,327.6394 Q596.8906,327.9363 596.25,328.0769 Q595.6094,328.2331 594.9063,328.2331 Q592.4063,328.2331 591.0781,326.5925 Q589.7656,324.9363 589.7656,321.8113 Q589.7656,318.6863 591.0781,317.03 Q592.4063,315.3738 594.9063,315.3738 Q595.6094,315.3738 596.25,315.53 Q596.9063,315.6863 597.4688,315.9831 L597.4688,318.7019 Q596.8438,318.1238 596.25,317.8581 Q595.6563,317.5769 595.0313,317.5769 Q593.6875,317.5769 593,318.655 Q592.3125,319.7175 592.3125,321.8113 Q592.3125,323.905 593,324.9831 Q593.6875,326.0456 595.0313,326.0456 Q595.6563,326.0456 596.25,325.78 Q596.8438,325.4988 597.4688,324.9206 L597.4688,327.6394 Z " fill="#000000"/><a href="https://bo4e.github.io/BO4E-python/latest/api/bo4e.com.html#bo4e.com.com.COM" target="_top" title="https://bo4e.github.io/BO4E-python/latest/api/bo4e.com.html#bo4e.com.com.COM" xlink:actuate="onRequest" xlink:href="https://bo4e.github.io/BO4E-python/latest/api/bo4e.com.html#bo4e.com.com.COM" xlink:show="new" xlink:title="https://bo4e.github.io/BO4E-python/latest/api/bo4e.com.html#bo4e.com.com.COM" xlink:type="simple"><text fill="#0000FF" font-family="sans-serif" font-size="14" lengthAdjust="spacing" text-decoration="underline" textLength="33" x="628" y="321.0251">COM</text></a><text fill="#000000" font-family="sans-serif" font-size="10" lengthAdjust="spacing" textLength="72" x="608.5" y="333.6091">bo4e.com.com</text></g><!--class Betrag--><g id="elem_Betrag"><rect codeLine="17" fill="#F1F1F1" height="37.9375" id="Betrag" rx="2.5" ry="2.5" style="stroke:#181818;stroke-width:0.5;" width="115" x="574" y="376.03"/><ellipse cx="589" cy="394.9988" fill="#ADD1B2" rx="11" ry="11" style="stroke:#181818;stroke-width:1.0;"/><path d="M591.9688,400.6394 Q591.3906,400.9363 590.75,401.0769 Q590.1094,401.2331 589.4063,401.2331 Q586.9063,401.2331 585.5781,399.5925 Q584.2656,397.9363 584.2656,394.8113 Q584.2656,391.6863 585.5781,390.03 Q586.9063,388.3738 589.4063,388.3738 Q590.1094,388.3738 590.75,388.53 Q591.4063,388.6863 591.9688,388.9831 L591.9688,391.7019 Q591.3438,391.1238 590.75,390.8581 Q590.1563,390.5769 589.5313,390.5769 Q588.1875,390.5769 587.5,391.655 Q586.8125,392.7175 586.8125,394.8113 Q586.8125,396.905 587.5,397.9831 Q588.1875,399.0456 589.5313,399.0456 Q590.1563,399.0456 590.75,398.78 Q591.3438,398.4988 591.9688,397.9206 L591.9688,400.6394 Z " fill="#000000"/><a href="https://bo4e.github.io/BO4E-python/latest/api/bo4e.com.html#bo4e.com.betrag.Betrag" target="_top" title="https://bo4e.github.io/BO4E-python/latest/api/bo4e.com.html#bo4e.com.betrag.Betrag" xlink:actuate="onRequest" xlink:href="https://bo4e.github.io/BO4E-python/latest/api/bo4e.com.html#bo4e.com.betrag.Betrag" xlink:show="new" xlink:title="https://bo4e.github.io/BO4E-python/latest/api/bo4e.com.html#bo4e.com.betrag.Betrag" xlink:type="simple"><text fill="#0000FF" font-family="sans-serif" font-size="14" lengthAdjust="spacing" text-decoration="underline" textLength="46" x="621.5" y="394.0251">Betrag</text></a><text fill="#000000" font-family="sans-serif" font-size="10" lengthAdjust="spacing" textLength="83" x="603" y="406.6091">bo4e.com.betrag</text></g><!--class BDEWArtikelnummer--><g id="elem_BDEWArtikelnummer"><rect codeLine="20" fill="#F1F1F1" height="37.9375" id="BDEWArtikelnummer" rx="2.5" ry="2.5" style="stroke:#181818;stroke-width:0.5;" width="187" x="538" y="489.03"/><ellipse cx="553" cy="507.9988" fill="#ADD1B2" rx="11" ry="11" style="stroke:#181818;stroke-width:1.0;"/><path d="M555.9688,513.6394 Q555.3906,513.9363 554.75,514.0769 Q554.1094,514.2331 553.4063,514.2331 Q550.9063,514.2331 549.5781,512.5925 Q548.2656,510.9363 548.2656,507.8113 Q548.2656,504.6863 549.5781,503.03 Q550.9063,501.3738 553.4063,501.3738 Q554.1094,501.3738 554.75,501.53 Q555.4063,501.6863 555.9688,501.9831 L555.9688,504.7019 Q555.3438,504.1238 554.75,503.8581 Q554.1563,503.5769 553.5313,503.5769 Q552.1875,503.5769 551.5,504.655 Q550.8125,505.7175 550.8125,507.8113 Q550.8125,509.905 551.5,510.9831 Q552.1875,512.0456 553.5313,512.0456 Q554.1563,512.0456 554.75,511.78 Q555.3438,511.4988 555.9688,510.9206 L555.9688,513.6394 Z " fill="#000000"/><a href="https://bo4e.github.io/BO4E-python/latest/api/bo4e.enum.html#bo4e.enum.bdewartikelnummer.BDEWArtikelnummer" target="_top" title="https://bo4e.github.io/BO4E-python/latest/api/bo4e.enum.html#bo4e.enum.bdewartikelnummer.BDEWArtikelnummer" xlink:actuate="onRequest" xlink:href="https://bo4e.github.io/BO4E-python/latest/api/bo4e.enum.html#bo4e.enum.bdewartikelnummer.BDEWArtikelnummer" xlink:show="new" xlink:title="https://bo4e.github.io/BO4E-python/latest/api/bo4e.enum.html#bo4e.enum.bdewartikelnummer.BDEWArtikelnummer" xlink:type="simple"><text fill="#0000FF" font-family="sans-serif" font-size="14" lengthAdjust="spacing" text-decoration="underline" textLength="143" x="573" y="507.0251">BDEWArtikelnummer</text></a><text fill="#000000" font-family="sans-serif" font-size="10" lengthAdjust="spacing" textLength="155" x="567" y="519.6091">bo4e.enum.bdewartikelnummer</text></g><!--class Mengeneinheit--><g id="elem_Mengeneinheit"><rect codeLine="21" fill="#F1F1F1" height="37.9375" id="Mengeneinheit" rx="2.5" ry="2.5" style="stroke:#181818;stroke-width:0.5;" width="162" x="550.5" y="562.03"/><ellipse cx="565.5" cy="580.9988" fill="#ADD1B2" rx="11" ry="11" style="stroke:#181818;stroke-width:1.0;"/><path d="M568.4688,586.6394 Q567.8906,586.9363 567.25,587.0769 Q566.6094,587.2331 565.9063,587.2331 Q563.4063,587.2331 562.0781,585.5925 Q560.7656,583.9363 560.7656,580.8113 Q560.7656,577.6863 562.0781,576.03 Q563.4063,574.3738 565.9063,574.3738 Q566.6094,574.3738 567.25,574.53 Q567.9063,574.6863 568.4688,574.9831 L568.4688,577.7019 Q567.8438,577.1238 567.25,576.8581 Q566.6563,576.5769 566.0313,576.5769 Q564.6875,576.5769 564,577.655 Q563.3125,578.7175 563.3125,580.8113 Q563.3125,582.905 564,583.9831 Q564.6875,585.0456 566.0313,585.0456 Q566.6563,585.0456 567.25,584.78 Q567.8438,584.4988 568.4688,583.9206 L568.4688,586.6394 Z " fill="#000000"/><a href="https://bo4e.github.io/BO4E-python/latest/api/bo4e.enum.html#bo4e.enum.mengeneinheit.Mengeneinheit" target="_top" title="https://bo4e.github.io/BO4E-python/latest/api/bo4e.enum.html#bo4e.enum.mengeneinheit.Mengeneinheit" xlink:actuate="onRequest" xlink:href="https://bo4e.github.io/BO4E-python/latest/api/bo4e.enum.html#bo4e.enum.mengeneinheit.Mengeneinheit" xlink:show="new" xlink:title="https://bo4e.github.io/BO4E-python/latest/api/bo4e.enum.html#bo4e.enum.mengeneinheit.Mengeneinheit" xlink:type="simple"><text fill="#0000FF" font-family="sans-serif" font-size="14" lengthAdjust="spacing" text-decoration="underline" textLength="104" x="592.5" y="580.0251">Mengeneinheit</text></a><text fill="#000000" font-family="sans-serif" font-size="10" lengthAdjust="spacing" textLength="130" x="579.5" y="592.6091">bo4e.enum.mengeneinheit</text></g><!--class Rechnungsposition--><g id="elem_Rechnungsposition"><rect codeLine="3" fill="#F1F1F1" height="143.7188" id="Rechnungsposition" rx="2.5" ry="2.5" style="stroke:#181818;stroke-width:0.5;" width="314" x="7" y="250.14"/><ellipse cx="90.75" cy="269.1088" fill="#ADD1B2" rx="11" ry="11" style="stroke:#181818;stroke-width:1.0;"/><path d="M93.7188,274.7494 Q93.1406,275.0463 92.5,275.1869 Q91.8594,275.3431 91.1563,275.3431 Q88.6563,275.3431 87.3281,273.7025 Q86.0156,272.0463 86.0156,268.9213 Q86.0156,265.7963 87.3281,264.14 Q88.6563,262.4838 91.1563,262.4838 Q91.8594,262.4838 92.5,262.64 Q93.1563,262.7963 93.7188,263.0931 L93.7188,265.8119 Q93.0938,265.2338 92.5,264.9681 Q91.9063,264.6869 91.2813,264.6869 Q89.9375,264.6869 89.25,265.765 Q88.5625,266.8275 88.5625,268.9213 Q88.5625,271.015 89.25,272.0931 Q89.9375,273.1556 91.2813,273.1556 Q91.9063,273.1556 92.5,272.89 Q93.0938,272.6088 93.7188,272.0306 L93.7188,274.7494 Z " fill="#000000"/><a href="https://bo4e.github.io/BO4E-python/latest/api/bo4e.com.html#bo4e.com.rechnungsposition.Rechnungsposition" target="_top" title="https://bo4e.github.io/BO4E-python/latest/api/bo4e.com.html#bo4e.com.rechnungsposition.Rechnungsposition" xlink:actuate="onRequest" xlink:href="https://bo4e.github.io/BO4E-python/latest/api/bo4e.com.html#bo4e.com.rechnungsposition.Rechnungsposition" xlink:show="new" xlink:title="https://bo4e.github.io/BO4E-python/latest/api/bo4e.com.html#bo4e.com.rechnungsposition.Rechnungsposition" xlink:type="simple"><text fill="#0000FF" font-family="sans-serif" font-size="14" lengthAdjust="spacing" text-decoration="underline" textLength="135" x="112.75" y="268.1351">Rechnungsposition</text></a><text fill="#000000" font-family="sans-serif" font-size="10" lengthAdjust="spacing" textLength="138" x="111.25" y="280.7191">bo4e.com.rechnungsposition</text><line style="stroke:#181818;stroke-width:0.5;" x1="8" x2="320" y1="288.0775" y2="288.0775"/><text fill="#000000" font-family="sans-serif" font-size="14" lengthAdjust="spacing" textLength="248" x="13" y="305.0726">positionsnummer : int [0..1] = None</text><text fill="#000000" font-family="sans-serif" font-size="14" lengthAdjust="spacing" textLength="302" x="13" y="321.3695">lieferungVon : AwareDatetime [0..1] = None</text><text fill="#000000" font-family="sans-serif" font-size="14" lengthAdjust="spacing" textLength="296" x="13" y="337.6664">lieferungBis : AwareDatetime [0..1] = None</text><text fill="#000000" font-family="sans-serif" font-size="14" lengthAdjust="spacing" textLength="217" x="13" y="353.9632">positionstext : str [0..1] = None</text><text fill="#000000" font-family="sans-serif" font-size="14" lengthAdjust="spacing" textLength="202" x="13" y="370.2601">lokationsId : str [0..1] = None</text><text fill="#000000" font-family="sans-serif" font-size="14" lengthAdjust="spacing" textLength="181" x="13" y="386.557">artikelId : str [0..1] = None</text></g><!--link Rechnungsposition to COM--><g id="link_Rechnungsposition_COM"><path codeLine="24" d="M321.3,322 C410.84,322 499.36,322 561.12,322 " fill="none" id="Rechnungsposition-to-COM" style="stroke:#181818;stroke-width:1.0;"/><polygon fill="none" points="579.12,322,561.12,316,561.12,328,579.12,322" style="stroke:#181818;stroke-width:1.0;"/></g><!--link Rechnungsposition to Menge--><g id="link_Rechnungsposition_Menge"><path codeLine="25" d="M215.02,250.1 C248.39,208.18 296.13,158.49 351,132 C421.62,97.91 501.7726,94.6495 560.5626,97.3495 " fill="none" id="Rechnungsposition-to-Menge" style="stroke:#181818;stroke-width:1.0;"/><polygon fill="#181818" points="572.55,97.9,566.7398,93.6289,560.5626,97.3495,566.3728,101.6205,572.55,97.9" style="stroke:#181818;stroke-width:1.0;"/><text fill="#000000" font-family="sans-serif" font-size="13" lengthAdjust="spacing" textLength="100" x="366.5" y="97.0669">positionsMenge</text><text fill="#000000" font-family="sans-serif" font-size="13" lengthAdjust="spacing" textLength="24" x="540.7898" y="110.2368">0..1</text></g><!--link Rechnungsposition to Menge--><g id="link_Rechnungsposition_Menge"><path codeLine="26" d="M251.56,249.71 C281.55,227.57 316.36,204.89 351,189 C405.47,164.01 435.6,194.93 482,157 C488.47,151.72 483.58,145.34 490,140 C513.07,120.8 533.2062,113.3797 560.8262,108.8797 " fill="none" id="Rechnungsposition-to-Menge-1" style="stroke:#181818;stroke-width:1.0;"/><polygon fill="#181818" points="572.67,106.95,566.1049,103.9669,560.8262,108.8797,567.3913,111.8628,572.67,106.95" style="stroke:#181818;stroke-width:1.0;"/><text fill="#000000" font-family="sans-serif" font-size="13" lengthAdjust="spacing" textLength="129" x="352" y="153.0669">zeitbezogeneMenge</text><text fill="#000000" font-family="sans-serif" font-size="13" lengthAdjust="spacing" textLength="24" x="540.923" y="120.2766">0..1</text></g><!--link Rechnungsposition to Preis--><g id="link_Rechnungsposition_Preis"><path codeLine="27" d="M321.3,297.49 C410.31,283.53 504.2449,268.7991 566.1649,259.0891 " fill="none" id="Rechnungsposition-to-Preis" style="stroke:#181818;stroke-width:1.0;"/><polygon fill="#181818" points="578.02,257.23,571.4728,254.2078,566.1649,259.0891,572.7121,262.1112,578.02,257.23" style="stroke:#181818;stroke-width:1.0;"/><text fill="#000000" font-family="sans-serif" font-size="13" lengthAdjust="spacing" textLength="68" x="382.5" y="269.0669">einzelpreis</text><text fill="#000000" font-family="sans-serif" font-size="13" lengthAdjust="spacing" textLength="24" x="546.4489" y="271.1235">0..1</text></g><!--link Rechnungsposition to Betrag--><g id="link_Rechnungsposition_Betrag"><path codeLine="28" d="M321.3,346.51 C408.2,360.14 499.2351,374.4097 561.6851,384.2097 " fill="none" id="Rechnungsposition-to-Betrag" style="stroke:#181818;stroke-width:1.0;"/><polygon fill="#181818" points="573.54,386.07,568.2327,381.1882,561.6851,384.2097,566.9924,389.0915,573.54,386.07" style="stroke:#181818;stroke-width:1.0;"/><text fill="#000000" font-family="sans-serif" font-size="13" lengthAdjust="spacing" textLength="104" x="364.5" y="348.0669">teilsummeNetto</text><text fill="#000000" font-family="sans-serif" font-size="13" lengthAdjust="spacing" textLength="24" x="541.8881" y="397.9879">0..1</text></g><!--link Rechnungsposition to Betrag--><g id="link_Rechnungsposition_Betrag"><path codeLine="29" d="M321.26,389.87 C331.21,392.67 341.17,395.09 351,397 C426.98,411.74 504.8341,408.4777 561.7441,403.0577 " fill="none" id="Rechnungsposition-to-Betrag-1" style="stroke:#181818;stroke-width:1.0;"/><polygon fill="#181818" points="573.69,401.92,567.3378,398.5069,561.7441,403.0577,568.0963,406.4708,573.69,401.92" style="stroke:#181818;stroke-width:1.0;"/><text fill="#000000" font-family="sans-serif" font-size="13" lengthAdjust="spacing" textLength="94" x="369.5" y="393.0669">teilrabattNetto</text><text fill="#000000" font-family="sans-serif" font-size="13" lengthAdjust="spacing" textLength="24" x="542.0545" y="415.5715">0..1</text></g><!--link Rechnungsposition to Steuerbetrag--><g id="link_Rechnungsposition_Steuerbetrag"><path codeLine="30" d="M321.27,258.19 C331.28,254.61 341.25,251.18 351,248 C420.43,225.35 489.7107,207.8632 546.5807,194.6632 " fill="none" id="Rechnungsposition-to-Steuerbetrag" style="stroke:#181818;stroke-width:1.0;"/><polygon fill="#181818" points="558.27,191.95,551.521,189.4102,546.5807,194.6632,553.3298,197.203,558.27,191.95" style="stroke:#181818;stroke-width:1.0;"/><text fill="#000000" font-family="sans-serif" font-size="13" lengthAdjust="spacing" textLength="111" x="361" y="208.0669">teilsummeSteuer</text><text fill="#000000" font-family="sans-serif" font-size="13" lengthAdjust="spacing" textLength="24" x="526.4129" y="206.1849">0..1</text></g><!--link Rechnungsposition to Mengeneinheit--><g id="link_Rechnungsposition_Mengeneinheit"><path codeLine="31" d="M225,394.06 C258.73,430.57 303.53,472.98 351,501 C412.73,537.42 480.1833,555.8073 538.5233,566.9573 " fill="none" id="Rechnungsposition-to-Mengeneinheit" style="stroke:#181818;stroke-width:1.0;"/><polygon fill="#181818" points="550.31,569.21,545.1676,564.1548,538.5233,566.9573,543.6658,572.0125,550.31,569.21" style="stroke:#181818;stroke-width:1.0;"/><text fill="#000000" font-family="sans-serif" font-size="13" lengthAdjust="spacing" textLength="66" x="383.5" y="497.0669">zeiteinheit</text><text fill="#000000" font-family="sans-serif" font-size="13" lengthAdjust="spacing" textLength="24" x="518.5927" y="580.9272">0..1</text></g><!--link Rechnungsposition to BDEWArtikelnummer--><g id="link_Rechnungsposition_BDEWArtikelnummer"><path codeLine="32" d="M274.5,394.1 C299.02,408.31 325.37,422.16 351,433 C411.15,458.44 470.5833,474.7431 526.0333,487.2331 " fill="none" id="Rechnungsposition-to-BDEWArtikelnummer" style="stroke:#181818;stroke-width:1.0;"/><polygon fill="#181818" points="537.74,489.87,532.7656,484.6493,526.0333,487.2331,531.0077,492.4538,537.74,489.87" style="stroke:#181818;stroke-width:1.0;"/><text fill="#000000" font-family="sans-serif" font-size="13" lengthAdjust="spacing" textLength="94" x="369.5" y="429.0669">artikelnummer</text><text fill="#000000" font-family="sans-serif" font-size="13" lengthAdjust="spacing" textLength="24" x="505.9733" y="501.1612">0..1</text></g><!--SRC=[hLLDZzem43rlViK8RfK8e6whLTIk1BiSUjZTgfNQ0-NWa85OczYHFOYMjl-z_Y0GDg65aeCjPdWpy-pncsIu8209YYzJWeGhd1EN8WZc6TCQEjDfIbJegD-FvJM6IqxfAWwvx8-VhYUzuWUbKlGpHgYfpmhkKNEPXodbMNTdcRIfM8cbBgJcja3uwQK7QfxPx9juf_a6e-7WzdYg3Z1T3uQVmLNvMujLdgE22BWWc0x2S3Y3z_0e1GPN6SS5AXFwnGH5C5epXVVcGCHpF8eTS_qlxAuuuNSoO4sgbau-CmVva3G3c2B-ZDcHlty7WM0vweBDyS9EGMdDPkuwInEway7evksTlSrsNqIEOedXWzt1xStTTZ17oO7QPc6Qiq8L8ocs33zN3AWQpTIgiOvXDQHjeeL2hiEFTWUtDtDoC4V6WTfcOTVTqmEOrLpVB5VT0DgklMtIsBTd_9V6L5hYOKOfbme5pGYfACMQLQbO6xh9SFxwpSsbMjcLwkxDEC7rTXZuMHQExoTVHrKFr3prssdEvM_gPNJxXt1Q5iX5Yfoyz4iB3gmZn0_YzpEXzDXvsF1PwVL-tUxccNszJI23UWKTErqxUwmVJX7i9haVGUU6Rmot63VICZqlWvTx1EQ06yoSja-EtUea0aAUQTlHHoII_nUlMCo8pajmC4qhDBp_f3IkwuVln5zdsV6JazJL4i611e8WvGb2ZdcCIWSwbMjeoBxWc2Nw3m00]--></g></svg>