<?xml version="1.0" encoding="us-ascii" standalone="no"?><svg xmlns="http://www.w3.org/2000/svg" xmlns:xlink="http://www.w3.org/1999/xlink" contentStyleType="text/css" height="647px" preserveAspectRatio="none" style="width:772px;height:647px;background:#FFFFFF;" version="1.1" viewBox="0 0 772 647" width="772px" zoomAndPan="magnify"><defs/><g><!--cluster bo4e--><g id="cluster_bo4e"><path d="M500.5,6 L541.5,6 A3.75,3.75 0 0 1 544,8.5 L551,28.2969 L762.5,28.2969 A2.5,2.5 0 0 1 765,30.7969 L765,637.5 A2.5,2.5 0 0 1 762.5,640 L500.5,640 A2.5,2.5 0 0 1 498,637.5 L498,8.5 A2.5,2.5 0 0 1 500.5,6 " fill="none" style="stroke:#000000;stroke-width:1.5;"/><line style="stroke:#000000;stroke-width:1.5;" x1="498" x2="551" y1="28.2969" y2="28.2969"/><text fill="#000000" font-family="sans-serif" font-size="14" font-weight="bold" lengthAdjust="spacing" textLength="40" x="502" y="20.9951">bo4e</text></g><!--cluster com--><g id="cluster_com"><path d="M545,49 L624,49 A3.75,3.75 0 0 1 626.5,51.5 L633.5,71.2969 L718,71.2969 A2.5,2.5 0 0 1 720.5,73.7969 L720.5,427.5 A2.5,2.5 0 0 1 718,430 L545,430 A2.5,2.5 0 0 1 542.5,427.5 L542.5,51.5 A2.5,2.5 0 0 1 545,49 " fill="#E0A86C" style="stroke:#000000;stroke-width:1.5;"/><line style="stroke:#000000;stroke-width:1.5;" x1="542.5" x2="633.5" y1="71.2969" y2="71.2969"/><a href="https://bo4e.github.io/BO4E-python/latest/api/bo4e.com.html" target="_top" title="https://bo4e.github.io/BO4E-python/latest/api/bo4e.com.html" xlink:actuate="onRequest" xlink:href="https://bo4e.github.io/BO4E-python/latest/api/bo4e.com.html" xlink:show="new" xlink:title="https://bo4e.github.io/BO4E-python/latest/api/bo4e.com.html" xlink:type="simple"><text fill="#0000FF" font-family="sans-serif" font-size="14" font-weight="bold" lengthAdjust="spacing" text-decoration="underline" textLength="78" x="546.5" y="63.9951">bo4e.com</text></a></g><!--cluster enum--><g id="cluster_enum"><path d="M524.5,454 L614.5,454 A3.75,3.75 0 0 1 617,456.5 L624,476.2969 L738.5,476.2969 A2.5,2.5 0 0 1 741,478.7969 L741,613.5 A2.5,2.5 0 0 1 738.5,616 L524.5,616 A2.5,2.5 0 0 1 522,613.5 L522,456.5 A2.5,2.5 0 0 1 524.5,454 " fill="#D1C358" style="stroke:#000000;stroke-width:1.5;"/><line style="stroke:#000000;stroke-width:1.5;" x1="522" x2="624" y1="476.2969" y2="476.2969"/><a href="https://bo4e.github.io/BO4E-python/latest/api/bo4e.enum.html" target="_top" title="https://bo4e.github.io/BO4E-python/latest/api/bo4e.enum.html" xlink:actuate="onRequest" xlink:href="https://bo4e.github.io/BO4E-python/latest/api/bo4e.enum.html" xlink:show="new" xlink:title="https://bo4e.github.io/BO4E-python/latest/api/bo4e.enum.html" xlink:type="simple"><text fill="#0000FF" font-family="sans-serif" font-size="14" font-weight="bold" lengthAdjust="spacing" text-decoration="underline" textLength="89" x="526" y="468.9951">bo4e.enum</text></a></g><!--class Betrag--><g id="elem_Betrag"><rect codeLine="13" fill="#F1F1F1" height="37.9375" id="Betrag" rx="2.5" ry="2.5" style="stroke:#181818;stroke-width:0.5;" width="115" x="574" y="84.03"/><ellipse cx="589" cy="102.9987" fill="#ADD1B2" rx="11" ry="11" style="stroke:#181818;stroke-width:1.0;"/><path d="M591.9688,108.6394 Q591.3906,108.9362 590.75,109.0769 Q590.1094,109.2331 589.4063,109.2331 Q586.9063,109.2331 585.5781,107.5925 Q584.2656,105.9362 584.2656,102.8112 Q584.2656,99.6862 585.5781,98.03 Q586.9063,96.3737 589.4063,96.3737 Q590.1094,96.3737 590.75,96.53 Q591.4063,96.6862 591.9688,96.9831 L591.9688,99.7019 Q591.3438,99.1237 590.75,98.8581 Q590.1563,98.5769 589.5313,98.5769 Q588.1875,98.5769 587.5,99.655 Q586.8125,100.7175 586.8125,102.8112 Q586.8125,104.905 587.5,105.9831 Q588.1875,107.0456 589.5313,107.0456 Q590.1563,107.0456 590.75,106.78 Q591.3438,106.4987 591.9688,105.9206 L591.9688,108.6394 Z " fill="#000000"/><a href="https://bo4e.github.io/BO4E-python/latest/api/bo4e.com.html#bo4e.com.betrag.Betrag" target="_top" title="https://bo4e.github.io/BO4E-python/latest/api/bo4e.com.html#bo4e.com.betrag.Betrag" xlink:actuate="onRequest" xlink:href="https://bo4e.github.io/BO4E-python/latest/api/bo4e.com.html#bo4e.com.betrag.Betrag" xlink:show="new" xlink:title="https://bo4e.github.io/BO4E-python/latest/api/bo4e.com.html#bo4e.com.betrag.Betrag" xlink:type="simple"><text fill="#0000FF" font-family="sans-serif" font-size="14" lengthAdjust="spacing" text-decoration="underline" textLength="46" x="621.5" y="102.0251">Betrag</text></a><text fill="#000000" font-family="sans-serif" font-size="10" lengthAdjust="spacing" textLength="83" x="603" y="114.6091">bo4e.com.betrag</text></g><!--class Steuerbetrag--><g id="elem_Steuerbetrag"><rect codeLine="14" fill="#F1F1F1" height="37.9375" id="Steuerbetrag" rx="2.5" ry="2.5" style="stroke:#181818;stroke-width:0.5;" width="146" x="558.5" y="157.03"/><ellipse cx="573.5" cy="175.9987" fill="#ADD1B2" rx="11" ry="11" style="stroke:#181818;stroke-width:1.0;"/><path d="M576.4688,181.6394 Q575.8906,181.9362 575.25,182.0769 Q574.6094,182.2331 573.9063,182.2331 Q571.4063,182.2331 570.0781,180.5925 Q568.7656,178.9362 568.7656,175.8112 Q568.7656,172.6862 570.0781,171.03 Q571.4063,169.3737 573.9063,169.3737 Q574.6094,169.3737 575.25,169.53 Q575.9063,169.6862 576.4688,169.9831 L576.4688,172.7019 Q575.8438,172.1237 575.25,171.8581 Q574.6563,171.5769 574.0313,171.5769 Q572.6875,171.5769 572,172.655 Q571.3125,173.7175 571.3125,175.8112 Q571.3125,177.905 572,178.9831 Q572.6875,180.0456 574.0313,180.0456 Q574.6563,180.0456 575.25,179.78 Q575.8438,179.4987 576.4688,178.9206 L576.4688,181.6394 Z " fill="#000000"/><a href="https://bo4e.github.io/BO4E-python/latest/api/bo4e.com.html#bo4e.com.steuerbetrag.Steuerbetrag" target="_top" title="https://bo4e.github.io/BO4E-python/latest/api/bo4e.com.html#bo4e.com.steuerbetrag.Steuerbetrag" xlink:actuate="onRequest" xlink:href="https://bo4e.github.io/BO4E-python/latest/api/bo4e.com.html#bo4e.com.steuerbetrag.Steuerbetrag" xlink:show="new" xlink:title="https://bo4e.github.io/BO4E-python/latest/api/bo4e.com.html#bo4e.com.steuerbetrag.Steuerbetrag" xlink:type="simple"><text fill="#0000FF" font-family="sans-serif" font-size="14" lengthAdjust="spacing" text-decoration="underline" textLength="91" x="599" y="175.0251">Steuerbetrag</text></a><text fill="#000000" font-family="sans-serif" font-size="10" lengthAdjust="spacing" textLength="114" x="587.5" y="187.6091">bo4e.com.steuerbetrag</text></g><!--class COM--><g id="elem_COM"><rect codeLine="15" fill="#F1F1F1" height="37.9375" id="COM" rx="2.5" ry="2.5" style="stroke:#181818;stroke-width:0.5;" width="104" x="579.5" y="230.03"/><ellipse cx="594.5" cy="248.9987" fill="#ADD1B2" rx="11" ry="11" style="stroke:#181818;stroke-width:1.0;"/><path d="M597.4688,254.6394 Q596.8906,254.9362 596.25,255.0769 Q595.6094,255.2331 594.9063,255.2331 Q592.4063,255.2331 591.0781,253.5925 Q589.7656,251.9362 589.7656,248.8112 Q589.7656,245.6862 591.0781,244.03 Q592.4063,242.3737 594.9063,242.3737 Q595.6094,242.3737 596.25,242.53 Q596.9063,242.6862 597.4688,242.9831 L597.4688,245.7019 Q596.8438,245.1237 596.25,244.8581 Q595.6563,244.5769 595.0313,244.5769 Q593.6875,244.5769 593,245.655 Q592.3125,246.7175 592.3125,248.8112 Q592.3125,250.905 593,251.9831 Q593.6875,253.0456 595.0313,253.0456 Q595.6563,253.0456 596.25,252.78 Q596.8438,252.4987 597.4688,251.9206 L597.4688,254.6394 Z " fill="#000000"/><a href="https://bo4e.github.io/BO4E-python/latest/api/bo4e.com.html#bo4e.com.com.COM" target="_top" title="https://bo4e.github.io/BO4E-python/latest/api/bo4e.com.html#bo4e.com.com.COM" xlink:actuate="onRequest" xlink:href="https://bo4e.github.io/BO4E-python/latest/api/bo4e.com.html#bo4e.com.com.COM" xlink:show="new" xlink:title="https://bo4e.github.io/BO4E-python/latest/api/bo4e.com.html#bo4e.com.com.COM" xlink:type="simple"><text fill="#0000FF" font-family="sans-serif" font-size="14" lengthAdjust="spacing" text-decoration="underline" textLength="33" x="628" y="248.0251">COM</text></a><text fill="#000000" font-family="sans-serif" font-size="10" lengthAdjust="spacing" textLength="72" x="608.5" y="260.6091">bo4e.com.com</text></g><!--class Preis--><g id="elem_Preis"><rect codeLine="16" fill="#F1F1F1" height="37.9375" id="Preis" rx="2.5" ry="2.5" style="stroke:#181818;stroke-width:0.5;" width="106" x="578.5" y="303.03"/><ellipse cx="593.5" cy="321.9988" fill="#ADD1B2" rx="11" ry="11" style="stroke:#181818;stroke-width:1.0;"/><path d="M596.4688,327.6394 Q595.8906,327.9363 595.25,328.0769 Q594.6094,328.2331 593.9063,328.2331 Q591.4063,328.2331 590.0781,326.5925 Q588.7656,324.9363 588.7656,321.8113 Q588.7656,318.6863 590.0781,317.03 Q591.4063,315.3738 593.9063,315.3738 Q594.6094,315.3738 595.25,315.53 Q595.9063,315.6863 596.4688,315.9831 L596.4688,318.7019 Q595.8438,318.1238 595.25,317.8581 Q594.6563,317.5769 594.0313,317.5769 Q592.6875,317.5769 592,318.655 Q591.3125,319.7175 591.3125,321.8113 Q591.3125,323.905 592,324.9831 Q592.6875,326.0456 594.0313,326.0456 Q594.6563,326.0456 595.25,325.78 Q595.8438,325.4988 596.4688,324.9206 L596.4688,327.6394 Z " fill="#000000"/><a href="https://bo4e.github.io/BO4E-python/latest/api/bo4e.com.html#bo4e.com.preis.Preis" target="_top" title="https://bo4e.github.io/BO4E-python/latest/api/bo4e.com.html#bo4e.com.preis.Preis" xlink:actuate="onRequest" xlink:href="https://bo4e.github.io/BO4E-python/latest/api/bo4e.com.html#bo4e.com.preis.Preis" xlink:show="new" xlink:title="https://bo4e.github.io/BO4E-python/latest/api/bo4e.com.html#bo4e.com.preis.Preis" xlink:type="simple"><text fill="#0000FF" font-family="sans-serif" font-size="14" lengthAdjust="spacing" text-decoration="underline" textLength="34" x="627.5" y="321.0251">Preis</text></a><text fill="#000000" font-family="sans-serif" font-size="10" lengthAdjust="spacing" textLength="74" x="607.5" y="333.6091">bo4e.com.preis</text></g><!--class Menge--><g id="elem_Menge"><rect codeLine="17" fill="#F1F1F1" height="37.9375" id="Menge" rx="2.5" ry="2.5" style="stroke:#181818;stroke-width:0.5;" width="117" x="573" y="376.03"/><ellipse cx="588" cy="394.9988" fill="#ADD1B2" rx="11" ry="11" style="stroke:#181818;stroke-width:1.0;"/><path d="M590.9688,400.6394 Q590.3906,400.9363 589.75,401.0769 Q589.1094,401.2331 588.4063,401.2331 Q585.9063,401.2331 584.5781,399.5925 Q583.2656,397.9363 583.2656,394.8113 Q583.2656,391.6863 584.5781,390.03 Q585.9063,388.3738 588.4063,388.3738 Q589.1094,388.3738 589.75,388.53 Q590.4063,388.6863 590.9688,388.9831 L590.9688,391.7019 Q590.3438,391.1238 589.75,390.8581 Q589.1563,390.5769 588.5313,390.5769 Q587.1875,390.5769 586.5,391.655 Q585.8125,392.7175 585.8125,394.8113 Q585.8125,396.905 586.5,397.9831 Q587.1875,399.0456 588.5313,399.0456 Q589.1563,399.0456 589.75,398.78 Q590.3438,398.4988 590.9688,397.9206 L590.9688,400.6394 Z " fill="#000000"/><a href="https://bo4e.github.io/BO4E-python/latest/api/bo4e.com.html#bo4e.com.menge.Menge" target="_top" title="https://bo4e.github.io/BO4E-python/latest/api/bo4e.com.html#bo4e.com.menge.Menge" xlink:actuate="onRequest" xlink:href="https://bo4e.github.io/BO4E-python/latest/api/bo4e.com.html#bo4e.com.menge.Menge" xlink:show="new" xlink:title="https://bo4e.github.io/BO4E-python/latest/api/bo4e.com.html#bo4e.com.menge.Menge" xlink:type="simple"><text fill="#0000FF" font-family="sans-serif" font-size="14" lengthAdjust="spacing" text-decoration="underline" textLength="48" x="620.5" y="394.0251">Menge</text></a><text fill="#000000" font-family="sans-serif" font-size="10" lengthAdjust="spacing" textLength="85" x="602" y="406.6091">bo4e.com.menge</text></g><!--class Mengeneinheit--><g id="elem_Mengeneinheit"><rect codeLine="20" fill="#F1F1F1" height="37.9375" id="Mengeneinheit" rx="2.5" ry="2.5" style="stroke:#181818;stroke-width:0.5;" width="162" x="550.5" y="489.03"/><ellipse cx="565.5" cy="507.9988" fill="#ADD1B2" rx="11" ry="11" style="stroke:#181818;stroke-width:1.0;"/><path d="M568.4688,513.6394 Q567.8906,513.9363 567.25,514.0769 Q566.6094,514.2331 565.9063,514.2331 Q563.4063,514.2331 562.0781,512.5925 Q560.7656,510.9363 560.7656,507.8113 Q560.7656,504.6863 562.0781,503.03 Q563.4063,501.3738 565.9063,501.3738 Q566.6094,501.3738 567.25,501.53 Q567.9063,501.6863 568.4688,501.9831 L568.4688,504.7019 Q567.8438,504.1238 567.25,503.8581 Q566.6563,503.5769 566.0313,503.5769 Q564.6875,503.5769 564,504.655 Q563.3125,505.7175 563.3125,507.8113 Q563.3125,509.905 564,510.9831 Q564.6875,512.0456 566.0313,512.0456 Q566.6563,512.0456 567.25,511.78 Q567.8438,511.4988 568.4688,510.9206 L568.4688,513.6394 Z " fill="#000000"/><a href="https://bo4e.github.io/BO4E-python/latest/api/bo4e.enum.html#bo4e.enum.mengeneinheit.Mengeneinheit" target="_top" title="https://bo4e.github.io/BO4E-python/latest/api/bo4e.enum.html#bo4e.enum.mengeneinheit.Mengeneinheit" xlink:actuate="onRequest" xlink:href="https://bo4e.github.io/BO4E-python/latest/api/bo4e.enum.html#bo4e.enum.mengeneinheit.Mengeneinheit" xlink:show="new" xlink:title="https://bo4e.github.io/BO4E-python/latest/api/bo4e.enum.html#bo4e.enum.mengeneinheit.Mengeneinheit" xlink:type="simple"><text fill="#0000FF" font-family="sans-serif" font-size="14" lengthAdjust="spacing" text-decoration="underline" textLength="104" x="592.5" y="507.0251">Mengeneinheit</text></a><text fill="#000000" font-family="sans-serif" font-size="10" lengthAdjust="spacing" textLength="130" x="579.5" y="519.6091">bo4e.enum.mengeneinheit</text></g><!--class BDEWArtikelnummer--><g id="elem_BDEWArtikelnummer"><rect codeLine="21" fill="#F1F1F1" height="37.9375" id="BDEWArtikelnummer" rx="2.5" ry="2.5" style="stroke:#181818;stroke-width:0.5;" width="187" x="538" y="562.03"/><ellipse cx="553" cy="580.9988" fill="#ADD1B2" rx="11" ry="11" style="stroke:#181818;stroke-width:1.0;"/><path d="M555.9688,586.6394 Q555.3906,586.9363 554.75,587.0769 Q554.1094,587.2331 553.4063,587.2331 Q550.9063,587.2331 549.5781,585.5925 Q548.2656,583.9363 548.2656,580.8113 Q548.2656,577.6863 549.5781,576.03 Q550.9063,574.3738 553.4063,574.3738 Q554.1094,574.3738 554.75,574.53 Q555.4063,574.6863 555.9688,574.9831 L555.9688,577.7019 Q555.3438,577.1238 554.75,576.8581 Q554.1563,576.5769 553.5313,576.5769 Q552.1875,576.5769 551.5,577.655 Q550.8125,578.7175 550.8125,580.8113 Q550.8125,582.905 551.5,583.9831 Q552.1875,585.0456 553.5313,585.0456 Q554.1563,585.0456 554.75,584.78 Q555.3438,584.4988 555.9688,583.9206 L555.9688,586.6394 Z " fill="#000000"/><a href="https://bo4e.github.io/BO4E-python/latest/api/bo4e.enum.html#bo4e.enum.bdewartikelnummer.BDEWArtikelnummer" target="_top" title="https://bo4e.github.io/BO4E-python/latest/api/bo4e.enum.html#bo4e.enum.bdewartikelnummer.BDEWArtikelnummer" xlink:actuate="onRequest" xlink:href="https://bo4e.github.io/BO4E-python/latest/api/bo4e.enum.html#bo4e.enum.bdewartikelnummer.BDEWArtikelnummer" xlink:show="new" xlink:title="https://bo4e.github.io/BO4E-python/latest/api/bo4e.enum.html#bo4e.enum.bdewartikelnummer.BDEWArtikelnummer" xlink:type="simple"><text fill="#0000FF" font-family="sans-serif" font-size="14" lengthAdjust="spacing" text-decoration="underline" textLength="143" x="573" y="580.0251">BDEWArtikelnummer</text></a><text fill="#000000" font-family="sans-serif" font-size="10" lengthAdjust="spacing" textLength="155" x="567" y="592.6091">bo4e.enum.bdewartikelnummer</text></g><!--class Rechnungsposition--><g id="elem_Rechnungsposition"><rect codeLine="3" fill="#F1F1F1" height="143.7188" id="Rechnungsposition" rx="2.5" ry="2.5" style="stroke:#181818;stroke-width:0.5;" width="314" x="7" y="243.14"/><ellipse cx="90.75" cy="262.1088" fill="#ADD1B2" rx="11" ry="11" style="stroke:#181818;stroke-width:1.0;"/><path d="M93.7188,267.7494 Q93.1406,268.0463 92.5,268.1869 Q91.8594,268.3431 91.1563,268.3431 Q88.6563,268.3431 87.3281,266.7025 Q86.0156,265.0463 86.0156,261.9213 Q86.0156,258.7963 87.3281,257.14 Q88.6563,255.4838 91.1563,255.4838 Q91.8594,255.4838 92.5,255.64 Q93.1563,255.7963 93.7188,256.0931 L93.7188,258.8119 Q93.0938,258.2338 92.5,257.9681 Q91.9063,257.6869 91.2813,257.6869 Q89.9375,257.6869 89.25,258.765 Q88.5625,259.8275 88.5625,261.9213 Q88.5625,264.015 89.25,265.0931 Q89.9375,266.1556 91.2813,266.1556 Q91.9063,266.1556 92.5,265.89 Q93.0938,265.6088 93.7188,265.0306 L93.7188,267.7494 Z " fill="#000000"/><a href="https://bo4e.github.io/BO4E-python/latest/api/bo4e.com.html#bo4e.com.rechnungsposition.Rechnungsposition" target="_top" title="https://bo4e.github.io/BO4E-python/latest/api/bo4e.com.html#bo4e.com.rechnungsposition.Rechnungsposition" xlink:actuate="onRequest" xlink:href="https://bo4e.github.io/BO4E-python/latest/api/bo4e.com.html#bo4e.com.rechnungsposition.Rechnungsposition" xlink:show="new" xlink:title="https://bo4e.github.io/BO4E-python/latest/api/bo4e.com.html#bo4e.com.rechnungsposition.Rechnungsposition" xlink:type="simple"><text fill="#0000FF" font-family="sans-serif" font-size="14" lengthAdjust="spacing" text-decoration="underline" textLength="135" x="112.75" y="261.1351">Rechnungsposition</text></a><text fill="#000000" font-family="sans-serif" font-size="10" lengthAdjust="spacing" textLength="138" x="111.25" y="273.7191">bo4e.com.rechnungsposition</text><line style="stroke:#181818;stroke-width:0.5;" x1="8" x2="320" y1="281.0775" y2="281.0775"/><text fill="#000000" font-family="sans-serif" font-size="14" lengthAdjust="spacing" textLength="248" x="13" y="298.0726">positionsnummer : int [0..1] = None</text><text fill="#000000" font-family="sans-serif" font-size="14" lengthAdjust="spacing" textLength="302" x="13" y="314.3695">lieferungVon : AwareDatetime [0..1] = None</text><text fill="#000000" font-family="sans-serif" font-size="14" lengthAdjust="spacing" textLength="296" x="13" y="330.6664">lieferungBis : AwareDatetime [0..1] = None</text><text fill="#000000" font-family="sans-serif" font-size="14" lengthAdjust="spacing" textLength="217" x="13" y="346.9632">positionstext : str [0..1] = None</text><text fill="#000000" font-family="sans-serif" font-size="14" lengthAdjust="spacing" textLength="202" x="13" y="363.2601">lokationsId : str [0..1] = None</text><text fill="#000000" font-family="sans-serif" font-size="14" lengthAdjust="spacing" textLength="181" x="13" y="379.557">artikelId : str [0..1] = None</text></g><!--link Rechnungsposition to COM--><g id="link_Rechnungsposition_COM"><path codeLine="24" d="M321.3,292.84 C410.84,280.14 499.5384,267.5678 561.2984,258.8078 " fill="none" id="Rechnungsposition-to-COM" style="stroke:#181818;stroke-width:1.0;"/><polygon fill="none" points="579.12,256.28,560.4558,252.8673,562.141,264.7483,579.12,256.28" style="stroke:#181818;stroke-width:1.0;"/></g><!--link Rechnungsposition to Menge--><g id="link_Rechnungsposition_Menge"><path codeLine="25" d="M321.3,341.86 C407.8,356.73 498.3232,372.2887 560.8532,383.0287 " fill="none" id="Rechnungsposition-to-Menge" style="stroke:#181818;stroke-width:1.0;"/><polygon fill="#181818" points="572.68,385.06,567.4437,380.1021,560.8532,383.0287,566.0895,387.9866,572.68,385.06" style="stroke:#181818;stroke-width:1.0;"/><text fill="#000000" font-family="sans-serif" font-size="13" lengthAdjust="spacing" textLength="100" x="366.5" y="344.0669">positionsMenge</text><text fill="#000000" font-family="sans-serif" font-size="13" lengthAdjust="spacing" textLength="24" x="540.9341" y="396.8674">0..1</text></g><!--link Rechnungsposition to Menge--><g id="link_Rechnungsposition_Menge"><path codeLine="26" d="M320.83,387.3 C330.91,390.33 341.02,392.94 351,395 C426.33,410.51 503.5672,407.8828 560.5872,402.8128 " fill="none" id="Rechnungsposition-to-Menge-1" style="stroke:#181818;stroke-width:1.0;"/><polygon fill="#181818" points="572.54,401.75,566.2093,398.2971,560.5872,402.8128,566.9178,406.2657,572.54,401.75" style="stroke:#181818;stroke-width:1.0;"/><text fill="#000000" font-family="sans-serif" font-size="13" lengthAdjust="spacing" textLength="129" x="352" y="391.0669">zeitbezogeneMenge</text><text fill="#000000" font-family="sans-serif" font-size="13" lengthAdjust="spacing" textLength="24" x="540.7788" y="415.3829">0..1</text></g><!--link Rechnungsposition to Preis--><g id="link_Rechnungsposition_Preis"><path codeLine="27" d="M321.29,317.54 C331.34,317.7 341.31,317.85 351,318 C430.21,319.21 510.0612,320.3333 566.2112,321.1133 " fill="none" id="Rechnungsposition-to-Preis" style="stroke:#181818;stroke-width:1.0;"/><polygon fill="#181818" points="578.21,321.28,572.2661,317.197,566.2112,321.1133,572.155,325.1963,578.21,321.28" style="stroke:#181818;stroke-width:1.0;"/><text fill="#000000" font-family="sans-serif" font-size="13" lengthAdjust="spacing" textLength="68" x="382.5" y="314.0669">einzelpreis</text><text fill="#000000" font-family="sans-serif" font-size="13" lengthAdjust="spacing" textLength="24" x="546.6608" y="334.1387">0..1</text></g><!--link Rechnungsposition to Betrag--><g id="link_Rechnungsposition_Betrag"><path codeLine="28" d="M223.37,242.74 C256.8,206.48 301.82,165.39 351,142 C422.46,108.02 502.9901,101.4433 561.5701,101.1833 " fill="none" id="Rechnungsposition-to-Betrag" style="stroke:#181818;stroke-width:1.0;"/><polygon fill="#181818" points="573.57,101.13,567.5523,97.1567,561.5701,101.1833,567.5878,105.1566,573.57,101.13" style="stroke:#181818;stroke-width:1.0;"/><text fill="#000000" font-family="sans-serif" font-size="13" lengthAdjust="spacing" textLength="104" x="364.5" y="104.0669">teilsummeNetto</text><text fill="#000000" font-family="sans-serif" font-size="13" lengthAdjust="spacing" textLength="24" x="541.9214" y="113.8201">0..1</text></g><!--link Rechnungsposition to Betrag--><g id="link_Rechnungsposition_Betrag"><path codeLine="29" d="M268.07,242.66 C294.26,226.58 322.94,210.82 351,199 C406.24,175.74 438.61,208.34 482,167 C491.06,158.37 481.02,148.71 490,140 C512.18,118.49 533.4135,110.7363 561.9335,106.7863 " fill="none" id="Rechnungsposition-to-Betrag-1" style="stroke:#181818;stroke-width:1.0;"/><polygon fill="#181818" points="573.82,105.14,567.328,102.001,561.9335,106.7863,568.4255,109.9253,573.82,105.14" style="stroke:#181818;stroke-width:1.0;"/><text fill="#000000" font-family="sans-serif" font-size="13" lengthAdjust="spacing" textLength="94" x="369.5" y="163.0669">teilrabattNetto</text><text fill="#000000" font-family="sans-serif" font-size="13" lengthAdjust="spacing" textLength="24" x="542.1988" y="101.628">0..1</text></g><!--link Rechnungsposition to Steuerbetrag--><g id="link_Rechnungsposition_Steuerbetrag"><path codeLine="30" d="M321.4,264.91 C331.41,261.85 341.34,258.86 351,256 C408.9,238.87 428.82,248.6 482,220 C486.16,217.76 485.83,215.22 490,213 C510.94,201.88 523.8014,196.8226 546.4314,191.2226 " fill="none" id="Rechnungsposition-to-Steuerbetrag" style="stroke:#181818;stroke-width:1.0;"/><polygon fill="#181818" points="558.08,188.34,551.2948,185.8984,546.4314,191.2226,553.2165,193.6642,558.08,188.34" style="stroke:#181818;stroke-width:1.0;"/><text fill="#000000" font-family="sans-serif" font-size="13" lengthAdjust="spacing" textLength="111" x="361" y="216.0669">teilsummeSteuer</text><text fill="#000000" font-family="sans-serif" font-size="13" lengthAdjust="spacing" textLength="24" x="526.4723" y="202.1799">0..1</text></g><!--link Rechnungsposition to Mengeneinheit--><g id="link_Rechnungsposition_Mengeneinheit"><path codeLine="31" d="M267.74,387.17 C294.05,403.51 322.88,419.66 351,432 C415.47,460.29 481.283,477.8248 538.323,490.2048 " fill="none" id="Rechnungsposition-to-Mengeneinheit" style="stroke:#181818;stroke-width:1.0;"/><polygon fill="#181818" points="550.05,492.75,545.0349,487.5684,538.323,490.2048,543.3381,495.3864,550.05,492.75" style="stroke:#181818;stroke-width:1.0;"/><text fill="#000000" font-family="sans-serif" font-size="13" lengthAdjust="spacing" textLength="66" x="383.5" y="428.0669">zeiteinheit</text><text fill="#000000" font-family="sans-serif" font-size="13" lengthAdjust="spacing" textLength="24" x="518.6032" y="504.2047">0..1</text></g><!--link Rechnungsposition to BDEWArtikelnummer--><g id="link_Rechnungsposition_BDEWArtikelnummer"><path codeLine="32" d="M222.06,387.19 C255.9,425.76 301.73,471.28 351,501 C408.16,535.47 469.0868,553.3079 526.0168,564.7879 " fill="none" id="Rechnungsposition-to-BDEWArtikelnummer" style="stroke:#181818;stroke-width:1.0;"/><polygon fill="#181818" points="537.78,567.16,532.6891,562.0529,526.0168,564.7879,531.1077,569.895,537.78,567.16" style="stroke:#181818;stroke-width:1.0;"/><text fill="#000000" font-family="sans-serif" font-size="13" lengthAdjust="spacing" textLength="94" x="369.5" y="497.0669">artikelnummer</text><text fill="#000000" font-family="sans-serif" font-size="13" lengthAdjust="spacing" textLength="24" x="506.0162" y="578.7663">0..1</text></g><!--SRC=[hLLBRzf043x7ls84jqeOKDCgijf8a73e8KdLIks1SbZZ0QzYxrgxWsXf-z-p3mmcDYeK7tRj6Nyp- -sydE62W2Gelam94gvmJboA89XdJ6leJASfKQ6ZVZ-MrnWkEQMhEEIoFtwwdlIANvHAqSyOeQO-AxX7pMKUffHdtPratAPY9PQwa9hR0y8lhpLGqyncFyG7pJSO3GUtnrrrWEcwCVmEhiftBLPvZWeYu89WEWZ3uGm-mgCK65nb71UeZEatOnJ1QCqKtfiB4S_nA7RCzR-mkyC9Vv81Qr8rT_APESYdf1d05F5dp8vy_Xi4WkMe2pR72pC5fJIRkN2M8dGdWz7D-piRpNOh8aPIR1cEtGFyepdX7kbeULZRL4o6LgYsXBvM1AWApUIgjevYrQHjedRTFJs0MSrip78a3A3jimk5N8UVxGvkRsRWO8w30xND8aUnnF31xk3sPXOEvbWuaEcKIni5pGYfT8eLgwrYPUWcm_dRTpUNzihkgEvUT1SIo4MAdFpzImaEf7eywlRxm9IQzWd72QwtqyiFtt1yF_a-gcgWfZb2lkRBpuBNrdOUDlnMUhq_jxjvPjkd2MHGRw1ZfsjdZ_Lb5i5kaljYEjTyOm8SuqRQS9_dmNTR12PB6ynSQvriknsi4H3oJDi0FIAH_3zxnM96T9w3Wq5QeU7r9xbnsJyiTX_EicnFTb8llWWEIYe8KfuWv9Z7g7IWKxc61kyBZbcYNm00]--></g></svg>