<svg xmlns="http://www.w3.org/2000/svg" xmlns:xlink="http://www.w3.org/1999/xlink" contentStyleType="text/css" data-diagram-type="CLASS" height="647px" preserveAspectRatio="none" style="width:1254px;height:647px;background:#FFFFFF;" version="1.1" viewBox="0 0 1254 647" width="1254px" zoomAndPan="magnify"><defs/><g><!--cluster bo4e--><g class="cluster" data-entity="bo4e" data-source-line="14" data-uid="ent0005" id="cluster_bo4e"><path d="M976.62,6 L1016.496,6 A3.75,3.75 0 0 1 1018.996,8.5 L1025.996,28.2969 L1244.64,28.2969 A2.5,2.5 0 0 1 1247.14,30.7969 L1247.14,637.5 A2.5,2.5 0 0 1 1244.64,640 L976.62,640 A2.5,2.5 0 0 1 974.12,637.5 L974.12,8.5 A2.5,2.5 0 0 1 976.62,6" fill="none" style="stroke:#000000;stroke-width:1.5;"/><line style="stroke:#000000;stroke-width:1.5;" x1="974.12" x2="1025.996" y1="28.2969" y2="28.2969"/><text fill="#000000" font-family="sans-serif" font-size="14" font-weight="bold" lengthAdjust="spacing" textLength="38.876" x="978.12" y="20.9951">bo4e</text></g><!--cluster com--><g class="cluster" data-entity="com" data-source-line="13" data-uid="ent0003" id="cluster_com"><path d="M1022.34,49 L1100.0392,49 A3.75,3.75 0 0 1 1102.5392,51.5 L1109.5392,71.2969 L1198.92,71.2969 A2.5,2.5 0 0 1 1201.42,73.7969 L1201.42,427.5 A2.5,2.5 0 0 1 1198.92,430 L1022.34,430 A2.5,2.5 0 0 1 1019.84,427.5 L1019.84,51.5 A2.5,2.5 0 0 1 1022.34,49" fill="#E0A86C" style="stroke:#000000;stroke-width:1.5;"/><line style="stroke:#000000;stroke-width:1.5;" x1="1019.84" x2="1109.5392" y1="71.2969" y2="71.2969"/><a href="file:////home/runner/work/BO4E-python/BO4E-python/docs/../.tox/docs/tmp/html/api/bo4e.com.html" target="_top" title="file:////home/runner/work/BO4E-python/BO4E-python/docs/../.tox/docs/tmp/html/api/bo4e.com.html" xlink:actuate="onRequest" xlink:href="file:////home/runner/work/BO4E-python/BO4E-python/docs/../.tox/docs/tmp/html/api/bo4e.com.html" xlink:show="new" xlink:title="file:////home/runner/work/BO4E-python/BO4E-python/docs/../.tox/docs/tmp/html/api/bo4e.com.html" xlink:type="simple"><text fill="#0000FF" font-family="sans-serif" font-size="14" font-weight="bold" lengthAdjust="spacing" text-decoration="underline" textLength="76.6992" x="1023.84" y="63.9951">bo4e.com</text></a></g><!--cluster enum--><g class="cluster" data-entity="enum" data-source-line="20" data-uid="ent0010" id="cluster_enum"><path d="M1000.62,454 L1089.8309,454 A3.75,3.75 0 0 1 1092.3309,456.5 L1099.3309,476.2969 L1220.64,476.2969 A2.5,2.5 0 0 1 1223.14,478.7969 L1223.14,613.5 A2.5,2.5 0 0 1 1220.64,616 L1000.62,616 A2.5,2.5 0 0 1 998.12,613.5 L998.12,456.5 A2.5,2.5 0 0 1 1000.62,454" fill="#D1C358" style="stroke:#000000;stroke-width:1.5;"/><line style="stroke:#000000;stroke-width:1.5;" x1="998.12" x2="1099.3309" y1="476.2969" y2="476.2969"/><a href="file:////home/runner/work/BO4E-python/BO4E-python/docs/../.tox/docs/tmp/html/api/bo4e.enum.html" target="_top" title="file:////home/runner/work/BO4E-python/BO4E-python/docs/../.tox/docs/tmp/html/api/bo4e.enum.html" xlink:actuate="onRequest" xlink:href="file:////home/runner/work/BO4E-python/BO4E-python/docs/../.tox/docs/tmp/html/api/bo4e.enum.html" xlink:show="new" xlink:title="file:////home/runner/work/BO4E-python/BO4E-python/docs/../.tox/docs/tmp/html/api/bo4e.enum.html" xlink:type="simple"><text fill="#0000FF" font-family="sans-serif" font-size="14" font-weight="bold" lengthAdjust="spacing" text-decoration="underline" textLength="88.2109" x="1002.12" y="468.9951">bo4e.enum</text></a></g><!--class Menge--><g class="entity" data-entity="Menge" data-source-line="14" data-uid="ent0004" id="entity_Menge"><rect fill="#F1F1F1" height="37.9375" rx="2.5" ry="2.5" style="stroke:#181818;stroke-width:0.5;" width="119.4268" x="1050.92" y="84.03"/><ellipse cx="1065.92" cy="102.9987" fill="#ADD1B2" rx="11" ry="11" style="stroke:#181818;stroke-width:1;"/><path d="M1068.8888,108.6394 Q1068.3106,108.9362 1067.67,109.0769 Q1067.0294,109.2331 1066.3263,109.2331 Q1063.8263,109.2331 1062.4981,107.5925 Q1061.1856,105.9362 1061.1856,102.8112 Q1061.1856,99.6862 1062.4981,98.03 Q1063.8263,96.3737 1066.3263,96.3737 Q1067.0294,96.3737 1067.67,96.53 Q1068.3263,96.6862 1068.8888,96.9831 L1068.8888,99.7019 Q1068.2638,99.1237 1067.67,98.8581 Q1067.0763,98.5769 1066.4513,98.5769 Q1065.1075,98.5769 1064.42,99.655 Q1063.7325,100.7175 1063.7325,102.8112 Q1063.7325,104.905 1064.42,105.9831 Q1065.1075,107.0456 1066.4513,107.0456 Q1067.0763,107.0456 1067.67,106.78 Q1068.2638,106.4987 1068.8888,105.9206 L1068.8888,108.6394 Z " fill="#000000"/><a href="file:////home/runner/work/BO4E-python/BO4E-python/docs/../.tox/docs/tmp/html/api/bo4e.com.html#bo4e.com.menge.Menge" target="_top" title="file:////home/runner/work/BO4E-python/BO4E-python/docs/../.tox/docs/tmp/html/api/bo4e.com.html#bo4e.com.menge.Menge" xlink:actuate="onRequest" xlink:href="file:////home/runner/work/BO4E-python/BO4E-python/docs/../.tox/docs/tmp/html/api/bo4e.com.html#bo4e.com.menge.Menge" xlink:show="new" xlink:title="file:////home/runner/work/BO4E-python/BO4E-python/docs/../.tox/docs/tmp/html/api/bo4e.com.html#bo4e.com.menge.Menge" xlink:type="simple"><text fill="#0000FF" font-family="sans-serif" font-size="14" lengthAdjust="spacing" text-decoration="underline" textLength="47.0654" x="1100.1007" y="102.0251">Menge</text></a><text fill="#000000" font-family="sans-serif" font-size="10" lengthAdjust="spacing" textLength="87.4268" x="1079.92" y="114.6091">bo4e.com.menge</text></g><!--class Betrag--><g class="entity" data-entity="Betrag" data-source-line="15" data-uid="ent0006" id="entity_Betrag"><rect fill="#F1F1F1" height="37.9375" rx="2.5" ry="2.5" style="stroke:#181818;stroke-width:0.5;" width="117.7031" x="1051.78" y="157.03"/><ellipse cx="1066.78" cy="175.9987" fill="#ADD1B2" rx="11" ry="11" style="stroke:#181818;stroke-width:1;"/><path d="M1069.7488,181.6394 Q1069.1706,181.9362 1068.53,182.0769 Q1067.8894,182.2331 1067.1863,182.2331 Q1064.6863,182.2331 1063.3581,180.5925 Q1062.0456,178.9362 1062.0456,175.8112 Q1062.0456,172.6862 1063.3581,171.03 Q1064.6863,169.3737 1067.1863,169.3737 Q1067.8894,169.3737 1068.53,169.53 Q1069.1863,169.6862 1069.7488,169.9831 L1069.7488,172.7019 Q1069.1238,172.1237 1068.53,171.8581 Q1067.9363,171.5769 1067.3113,171.5769 Q1065.9675,171.5769 1065.28,172.655 Q1064.5925,173.7175 1064.5925,175.8112 Q1064.5925,177.905 1065.28,178.9831 Q1065.9675,180.0456 1067.3113,180.0456 Q1067.9363,180.0456 1068.53,179.78 Q1069.1238,179.4987 1069.7488,178.9206 L1069.7488,181.6394 Z " fill="#000000"/><a href="file:////home/runner/work/BO4E-python/BO4E-python/docs/../.tox/docs/tmp/html/api/bo4e.com.html#bo4e.com.betrag.Betrag" target="_top" title="file:////home/runner/work/BO4E-python/BO4E-python/docs/../.tox/docs/tmp/html/api/bo4e.com.html#bo4e.com.betrag.Betrag" xlink:actuate="onRequest" xlink:href="file:////home/runner/work/BO4E-python/BO4E-python/docs/../.tox/docs/tmp/html/api/bo4e.com.html#bo4e.com.betrag.Betrag" xlink:show="new" xlink:title="file:////home/runner/work/BO4E-python/BO4E-python/docs/../.tox/docs/tmp/html/api/bo4e.com.html#bo4e.com.betrag.Betrag" xlink:type="simple"><text fill="#0000FF" font-family="sans-serif" font-size="14" lengthAdjust="spacing" text-decoration="underline" textLength="46.9287" x="1100.1672" y="175.0251">Betrag</text></a><text fill="#000000" font-family="sans-serif" font-size="10" lengthAdjust="spacing" textLength="85.7031" x="1080.78" y="187.6091">bo4e.com.betrag</text></g><!--class Preis--><g class="entity" data-entity="Preis" data-source-line="16" data-uid="ent0007" id="entity_Preis"><rect fill="#F1F1F1" height="37.9375" rx="2.5" ry="2.5" style="stroke:#181818;stroke-width:0.5;" width="109.2949" x="1055.98" y="230.03"/><ellipse cx="1070.98" cy="248.9987" fill="#ADD1B2" rx="11" ry="11" style="stroke:#181818;stroke-width:1;"/><path d="M1073.9488,254.6394 Q1073.3706,254.9362 1072.73,255.0769 Q1072.0894,255.2331 1071.3863,255.2331 Q1068.8863,255.2331 1067.5581,253.5925 Q1066.2456,251.9362 1066.2456,248.8112 Q1066.2456,245.6862 1067.5581,244.03 Q1068.8863,242.3737 1071.3863,242.3737 Q1072.0894,242.3737 1072.73,242.53 Q1073.3863,242.6862 1073.9488,242.9831 L1073.9488,245.7019 Q1073.3238,245.1237 1072.73,244.8581 Q1072.1363,244.5769 1071.5113,244.5769 Q1070.1675,244.5769 1069.48,245.655 Q1068.7925,246.7175 1068.7925,248.8112 Q1068.7925,250.905 1069.48,251.9831 Q1070.1675,253.0456 1071.5113,253.0456 Q1072.1363,253.0456 1072.73,252.78 Q1073.3238,252.4987 1073.9488,251.9206 L1073.9488,254.6394 Z " fill="#000000"/><a href="file:////home/runner/work/BO4E-python/BO4E-python/docs/../.tox/docs/tmp/html/api/bo4e.com.html#bo4e.com.preis.Preis" target="_top" title="file:////home/runner/work/BO4E-python/BO4E-python/docs/../.tox/docs/tmp/html/api/bo4e.com.html#bo4e.com.preis.Preis" xlink:actuate="onRequest" xlink:href="file:////home/runner/work/BO4E-python/BO4E-python/docs/../.tox/docs/tmp/html/api/bo4e.com.html#bo4e.com.preis.Preis" xlink:show="new" xlink:title="file:////home/runner/work/BO4E-python/BO4E-python/docs/../.tox/docs/tmp/html/api/bo4e.com.html#bo4e.com.preis.Preis" xlink:type="simple"><text fill="#0000FF" font-family="sans-serif" font-size="14" lengthAdjust="spacing" text-decoration="underline" textLength="33.9951" x="1106.6299" y="248.0251">Preis</text></a><text fill="#000000" font-family="sans-serif" font-size="10" lengthAdjust="spacing" textLength="77.2949" x="1084.98" y="260.6091">bo4e.com.preis</text></g><!--class Steuerbetrag--><g class="entity" data-entity="Steuerbetrag" data-source-line="17" data-uid="ent0008" id="entity_Steuerbetrag"><rect fill="#F1F1F1" height="37.9375" rx="2.5" ry="2.5" style="stroke:#181818;stroke-width:0.5;" width="149.5879" x="1035.84" y="303.03"/><ellipse cx="1050.84" cy="321.9988" fill="#ADD1B2" rx="11" ry="11" style="stroke:#181818;stroke-width:1;"/><path d="M1053.8088,327.6394 Q1053.2306,327.9363 1052.59,328.0769 Q1051.9494,328.2331 1051.2463,328.2331 Q1048.7463,328.2331 1047.4181,326.5925 Q1046.1056,324.9363 1046.1056,321.8113 Q1046.1056,318.6863 1047.4181,317.03 Q1048.7463,315.3738 1051.2463,315.3738 Q1051.9494,315.3738 1052.59,315.53 Q1053.2463,315.6863 1053.8088,315.9831 L1053.8088,318.7019 Q1053.1838,318.1238 1052.59,317.8581 Q1051.9963,317.5769 1051.3713,317.5769 Q1050.0275,317.5769 1049.34,318.655 Q1048.6525,319.7175 1048.6525,321.8113 Q1048.6525,323.905 1049.34,324.9831 Q1050.0275,326.0456 1051.3713,326.0456 Q1051.9963,326.0456 1052.59,325.78 Q1053.1838,325.4988 1053.8088,324.9206 L1053.8088,327.6394 Z " fill="#000000"/><a href="file:////home/runner/work/BO4E-python/BO4E-python/docs/../.tox/docs/tmp/html/api/bo4e.com.html#bo4e.com.steuerbetrag.Steuerbetrag" target="_top" title="file:////home/runner/work/BO4E-python/BO4E-python/docs/../.tox/docs/tmp/html/api/bo4e.com.html#bo4e.com.steuerbetrag.Steuerbetrag" xlink:actuate="onRequest" xlink:href="file:////home/runner/work/BO4E-python/BO4E-python/docs/../.tox/docs/tmp/html/api/bo4e.com.html#bo4e.com.steuerbetrag.Steuerbetrag" xlink:show="new" xlink:title="file:////home/runner/work/BO4E-python/BO4E-python/docs/../.tox/docs/tmp/html/api/bo4e.com.html#bo4e.com.steuerbetrag.Steuerbetrag" xlink:type="simple"><text fill="#0000FF" font-family="sans-serif" font-size="14" lengthAdjust="spacing" text-decoration="underline" textLength="92.4424" x="1077.4128" y="321.0251">Steuerbetrag</text></a><text fill="#000000" font-family="sans-serif" font-size="10" lengthAdjust="spacing" textLength="117.5879" x="1064.84" y="333.6091">bo4e.com.steuerbetrag</text></g><!--class COM--><g class="entity" data-entity="COM" data-source-line="18" data-uid="ent0009" id="entity_COM"><rect fill="#F1F1F1" height="37.9375" rx="2.5" ry="2.5" style="stroke:#181818;stroke-width:0.5;" width="106.0527" x="1057.6" y="376.03"/><ellipse cx="1072.6" cy="394.9988" fill="#ADD1B2" rx="11" ry="11" style="stroke:#181818;stroke-width:1;"/><path d="M1075.5688,400.6394 Q1074.9906,400.9363 1074.35,401.0769 Q1073.7094,401.2331 1073.0063,401.2331 Q1070.5063,401.2331 1069.1781,399.5925 Q1067.8656,397.9363 1067.8656,394.8113 Q1067.8656,391.6863 1069.1781,390.03 Q1070.5063,388.3738 1073.0063,388.3738 Q1073.7094,388.3738 1074.35,388.53 Q1075.0063,388.6863 1075.5688,388.9831 L1075.5688,391.7019 Q1074.9438,391.1238 1074.35,390.8581 Q1073.7563,390.5769 1073.1313,390.5769 Q1071.7875,390.5769 1071.1,391.655 Q1070.4125,392.7175 1070.4125,394.8113 Q1070.4125,396.905 1071.1,397.9831 Q1071.7875,399.0456 1073.1313,399.0456 Q1073.7563,399.0456 1074.35,398.78 Q1074.9438,398.4988 1075.5688,397.9206 L1075.5688,400.6394 Z " fill="#000000"/><a href="file:////home/runner/work/BO4E-python/BO4E-python/docs/../.tox/docs/tmp/html/api/bo4e.com.html#bo4e.com.com.COM" target="_top" title="file:////home/runner/work/BO4E-python/BO4E-python/docs/../.tox/docs/tmp/html/api/bo4e.com.html#bo4e.com.com.COM" xlink:actuate="onRequest" xlink:href="file:////home/runner/work/BO4E-python/BO4E-python/docs/../.tox/docs/tmp/html/api/bo4e.com.html#bo4e.com.com.COM" xlink:show="new" xlink:title="file:////home/runner/work/BO4E-python/BO4E-python/docs/../.tox/docs/tmp/html/api/bo4e.com.html#bo4e.com.com.COM" xlink:type="simple"><text fill="#0000FF" font-family="sans-serif" font-size="14" lengthAdjust="spacing" text-decoration="underline" textLength="32.874" x="1107.1894" y="394.0251">COM</text></a><text fill="#000000" font-family="sans-serif" font-size="10" lengthAdjust="spacing" textLength="74.0527" x="1086.6" y="406.6091">bo4e.com.com</text></g><!--class Mengeneinheit--><g class="entity" data-entity="Mengeneinheit" data-source-line="21" data-uid="ent0011" id="entity_Mengeneinheit"><rect fill="#F1F1F1" height="37.9375" rx="2.5" ry="2.5" style="stroke:#181818;stroke-width:0.5;" width="167.4346" x="1026.91" y="489.03"/><ellipse cx="1041.91" cy="507.9988" fill="#ADD1B2" rx="11" ry="11" style="stroke:#181818;stroke-width:1;"/><path d="M1044.8787,513.6394 Q1044.3006,513.9363 1043.66,514.0769 Q1043.0194,514.2331 1042.3162,514.2331 Q1039.8162,514.2331 1038.4881,512.5925 Q1037.1756,510.9363 1037.1756,507.8113 Q1037.1756,504.6863 1038.4881,503.03 Q1039.8162,501.3738 1042.3162,501.3738 Q1043.0194,501.3738 1043.66,501.53 Q1044.3162,501.6863 1044.8787,501.9831 L1044.8787,504.7019 Q1044.2537,504.1238 1043.66,503.8581 Q1043.0662,503.5769 1042.4412,503.5769 Q1041.0975,503.5769 1040.41,504.655 Q1039.7225,505.7175 1039.7225,507.8113 Q1039.7225,509.905 1040.41,510.9831 Q1041.0975,512.0456 1042.4412,512.0456 Q1043.0662,512.0456 1043.66,511.78 Q1044.2537,511.4988 1044.8787,510.9206 L1044.8787,513.6394 Z " fill="#000000"/><a href="file:////home/runner/work/BO4E-python/BO4E-python/docs/../.tox/docs/tmp/html/api/bo4e.enum.html#bo4e.enum.mengeneinheit.Mengeneinheit" target="_top" title="file:////home/runner/work/BO4E-python/BO4E-python/docs/../.tox/docs/tmp/html/api/bo4e.enum.html#bo4e.enum.mengeneinheit.Mengeneinheit" xlink:actuate="onRequest" xlink:href="file:////home/runner/work/BO4E-python/BO4E-python/docs/../.tox/docs/tmp/html/api/bo4e.enum.html#bo4e.enum.mengeneinheit.Mengeneinheit" xlink:show="new" xlink:title="file:////home/runner/work/BO4E-python/BO4E-python/docs/../.tox/docs/tmp/html/api/bo4e.enum.html#bo4e.enum.mengeneinheit.Mengeneinheit" xlink:type="simple"><text fill="#0000FF" font-family="sans-serif" font-size="14" lengthAdjust="spacing" text-decoration="underline" textLength="104.1797" x="1071.5374" y="507.0251">Mengeneinheit</text></a><text fill="#000000" font-family="sans-serif" font-size="10" lengthAdjust="spacing" textLength="135.4346" x="1055.91" y="519.6091">bo4e.enum.mengeneinheit</text></g><!--class BDEWArtikelnummer--><g class="entity" data-entity="BDEWArtikelnummer" data-source-line="22" data-uid="ent0012" id="entity_BDEWArtikelnummer"><rect fill="#F1F1F1" height="37.9375" rx="2.5" ry="2.5" style="stroke:#181818;stroke-width:0.5;" width="193.0156" x="1014.12" y="562.03"/><ellipse cx="1029.12" cy="580.9988" fill="#ADD1B2" rx="11" ry="11" style="stroke:#181818;stroke-width:1;"/><path d="M1032.0888,586.6394 Q1031.5106,586.9363 1030.87,587.0769 Q1030.2294,587.2331 1029.5263,587.2331 Q1027.0263,587.2331 1025.6981,585.5925 Q1024.3856,583.9363 1024.3856,580.8113 Q1024.3856,577.6863 1025.6981,576.03 Q1027.0263,574.3738 1029.5263,574.3738 Q1030.2294,574.3738 1030.87,574.53 Q1031.5263,574.6863 1032.0888,574.9831 L1032.0888,577.7019 Q1031.4638,577.1238 1030.87,576.8581 Q1030.2763,576.5769 1029.6513,576.5769 Q1028.3075,576.5769 1027.62,577.655 Q1026.9325,578.7175 1026.9325,580.8113 Q1026.9325,582.905 1027.62,583.9831 Q1028.3075,585.0456 1029.6513,585.0456 Q1030.2763,585.0456 1030.87,584.78 Q1031.4638,584.4988 1032.0888,583.9206 L1032.0888,586.6394 Z " fill="#000000"/><a href="file:////home/runner/work/BO4E-python/BO4E-python/docs/../.tox/docs/tmp/html/api/bo4e.enum.html#bo4e.enum.bdewartikelnummer.BDEWArtikelnummer" target="_top" title="file:////home/runner/work/BO4E-python/BO4E-python/docs/../.tox/docs/tmp/html/api/bo4e.enum.html#bo4e.enum.bdewartikelnummer.BDEWArtikelnummer" xlink:actuate="onRequest" xlink:href="file:////home/runner/work/BO4E-python/BO4E-python/docs/../.tox/docs/tmp/html/api/bo4e.enum.html#bo4e.enum.bdewartikelnummer.BDEWArtikelnummer" xlink:show="new" xlink:title="file:////home/runner/work/BO4E-python/BO4E-python/docs/../.tox/docs/tmp/html/api/bo4e.enum.html#bo4e.enum.bdewartikelnummer.BDEWArtikelnummer" xlink:type="simple"><text fill="#0000FF" font-family="sans-serif" font-size="14" lengthAdjust="spacing" text-decoration="underline" textLength="147.7861" x="1049.7347" y="580.0251">BDEWArtikelnummer</text></a><text fill="#000000" font-family="sans-serif" font-size="10" lengthAdjust="spacing" textLength="161.0156" x="1043.12" y="592.6091">bo4e.enum.bdewartikelnummer</text></g><!--class Rechnungsposition--><g class="entity" data-entity="Rechnungsposition" data-source-line="3" data-uid="ent0002" id="entity_Rechnungsposition"><rect fill="#F1F1F1" height="160.0156" rx="2.5" ry="2.5" style="stroke:#181818;stroke-width:0.5;" width="789.123" x="7" y="199.99"/><ellipse cx="324.8237" cy="218.9588" fill="#ADD1B2" rx="11" ry="11" style="stroke:#181818;stroke-width:1;"/><path d="M327.7925,224.5994 Q327.2144,224.8963 326.5737,225.0369 Q325.9331,225.1931 325.23,225.1931 Q322.73,225.1931 321.4019,223.5525 Q320.0894,221.8963 320.0894,218.7713 Q320.0894,215.6463 321.4019,213.99 Q322.73,212.3338 325.23,212.3338 Q325.9331,212.3338 326.5737,212.49 Q327.23,212.6463 327.7925,212.9431 L327.7925,215.6619 Q327.1675,215.0838 326.5737,214.8181 Q325.98,214.5369 325.355,214.5369 Q324.0112,214.5369 323.3237,215.615 Q322.6362,216.6775 322.6362,218.7713 Q322.6362,220.865 323.3237,221.9431 Q324.0112,223.0056 325.355,223.0056 Q325.98,223.0056 326.5737,222.74 Q327.1675,222.4588 327.7925,221.8806 L327.7925,224.5994 Z " fill="#000000"/><a href="file:////home/runner/work/BO4E-python/BO4E-python/docs/../.tox/docs/tmp/html/api/bo4e.com.html#bo4e.com.rechnungsposition.Rechnungsposition" target="_top" title="file:////home/runner/work/BO4E-python/BO4E-python/docs/../.tox/docs/tmp/html/api/bo4e.com.html#bo4e.com.rechnungsposition.Rechnungsposition" xlink:actuate="onRequest" xlink:href="file:////home/runner/work/BO4E-python/BO4E-python/docs/../.tox/docs/tmp/html/api/bo4e.com.html#bo4e.com.rechnungsposition.Rechnungsposition" xlink:show="new" xlink:title="file:////home/runner/work/BO4E-python/BO4E-python/docs/../.tox/docs/tmp/html/api/bo4e.com.html#bo4e.com.rechnungsposition.Rechnungsposition" xlink:type="simple"><text fill="#0000FF" font-family="sans-serif" font-size="14" lengthAdjust="spacing" text-decoration="underline" textLength="133.1641" x="351.2295" y="217.9851">Rechnungsposition</text></a><text fill="#000000" font-family="sans-serif" font-size="10" lengthAdjust="spacing" textLength="144.9756" x="345.3237" y="230.5691">bo4e.com.rechnungsposition</text><line style="stroke:#181818;stroke-width:0.5;" x1="8" x2="795.123" y1="237.9275" y2="237.9275"/><text fill="#000000" font-family="sans-serif" font-size="14" lengthAdjust="spacing" textLength="777.123" x="13" y="254.9226">_typ : Literal[&lt;ComTyp.RECHNUNGSPOSITION: 'RECHNUNGSPOSITION'&gt;] [1] = ComTyp.RECHNUNGSPOSITION</text><text fill="#000000" font-family="sans-serif" font-size="14" lengthAdjust="spacing" textLength="253.251" x="13" y="271.2195">positionsnummer : int [0..1] = None</text><text fill="#000000" font-family="sans-serif" font-size="14" lengthAdjust="spacing" textLength="311.2676" x="13" y="287.5164">lieferungVon : AwareDatetime [0..1] = None</text><text fill="#000000" font-family="sans-serif" font-size="14" lengthAdjust="spacing" textLength="305.04" x="13" y="303.8132">lieferungBis : AwareDatetime [0..1] = None</text><text fill="#000000" font-family="sans-serif" font-size="14" lengthAdjust="spacing" textLength="222.0244" x="13" y="320.1101">positionstext : str [0..1] = None</text><text fill="#000000" font-family="sans-serif" font-size="14" lengthAdjust="spacing" textLength="207.6689" x="13" y="336.407">lokationsId : str [0..1] = None</text><text fill="#000000" font-family="sans-serif" font-size="14" lengthAdjust="spacing" textLength="188.7402" x="13" y="352.7039">artikelId : str [0..1] = None</text></g><!--link Rechnungsposition to COM--><g class="link" data-entity-1="Rechnungsposition" data-entity-2="COM" data-source-line="25" data-uid="lnk13" id="link_Rechnungsposition_COM"><path codeLine="25" d="M796.41,344.06 C900.1,360.92 981.3437,374.1289 1039.3537,383.5689" fill="none" id="Rechnungsposition-to-COM" style="stroke:#181818;stroke-width:1;"/><polygon fill="none" points="1057.12,386.46,1040.3174,377.6468,1038.39,389.491,1057.12,386.46" style="stroke:#181818;stroke-width:1;"/></g><!--link Rechnungsposition to Menge--><g class="link" data-entity-1="Rechnungsposition" data-entity-2="Menge" data-source-line="26" data-uid="lnk14" id="link_Rechnungsposition_Menge"><path codeLine="26" d="M542.54,199.64 C622.73,158.25 726.89,112.14 826.12,91 C902.37,74.76 980.8265,81.3753 1038.6765,90.1753" fill="none" id="Rechnungsposition-to-Menge" style="stroke:#181818;stroke-width:1;"/><polygon fill="#181818" points="1050.54,91.98,1045.2098,87.1232,1038.6765,90.1753,1044.0067,95.0322,1050.54,91.98" style="stroke:#181818;stroke-width:1;"/><text fill="#000000" font-family="sans-serif" font-size="13" lengthAdjust="spacing" textLength="101.9688" x="841.62" y="78.0669">positionsMenge</text><text fill="#000000" font-family="sans-serif" font-size="13" lengthAdjust="spacing" textLength="24.8066" x="1018.2508" y="103.6477">0..1</text></g><!--link Rechnungsposition to Menge--><g class="link" data-entity-1="Rechnungsposition" data-entity-2="Menge" data-source-line="27" data-uid="lnk15" id="link_Rechnungsposition_Menge"><path codeLine="27" d="M691.43,199.51 C736.42,187.57 782.46,175.7 826.12,165 C903.32,146.09 981.2795,129.3743 1038.7695,117.4643" fill="none" id="Rechnungsposition-to-Menge-1" style="stroke:#181818;stroke-width:1;"/><polygon fill="#181818" points="1050.52,115.03,1043.8333,112.3303,1038.7695,117.4643,1045.4562,120.164,1050.52,115.03" style="stroke:#181818;stroke-width:1;"/><text fill="#000000" font-family="sans-serif" font-size="13" lengthAdjust="spacing" textLength="130.749" x="827.12" y="131.0669">zeitbezogeneMenge</text><text fill="#000000" font-family="sans-serif" font-size="13" lengthAdjust="spacing" textLength="24.8066" x="1018.2285" y="129.3629">0..1</text></g><!--link Rechnungsposition to Preis--><g class="link" data-entity-1="Rechnungsposition" data-entity-2="Preis" data-source-line="28" data-uid="lnk16" id="link_Rechnungsposition_Preis"><path codeLine="28" d="M796.57,293.4 C850.95,291.96 906,288.78 958.12,283 C990.95,279.36 1015.4188,274.3723 1044.1388,267.0823" fill="none" id="Rechnungsposition-to-Preis" style="stroke:#181818;stroke-width:1;"/><polygon fill="#181818" points="1055.77,264.13,1048.9703,261.7291,1044.1388,267.0823,1050.9385,269.4832,1055.77,264.13" style="stroke:#181818;stroke-width:1;"/><text fill="#000000" font-family="sans-serif" font-size="13" lengthAdjust="spacing" textLength="70.2622" x="857.12" y="279.0669">einzelpreis</text><text fill="#000000" font-family="sans-serif" font-size="13" lengthAdjust="spacing" textLength="24.8066" x="1023.2556" y="279.105">0..1</text></g><!--link Rechnungsposition to Betrag--><g class="link" data-entity-1="Rechnungsposition" data-entity-2="Betrag" data-source-line="29" data-uid="lnk17" id="link_Rechnungsposition_Betrag"><path codeLine="29" d="M796.4,209.27 C806.4,207.79 816.32,206.37 826.12,205 C903.79,194.17 982.004,186.6565 1039.424,181.7265" fill="none" id="Rechnungsposition-to-Betrag" style="stroke:#181818;stroke-width:1;"/><polygon fill="#181818" points="1051.38,180.7,1045.0598,177.2279,1039.424,181.7265,1045.7442,185.1986,1051.38,180.7" style="stroke:#181818;stroke-width:1;"/><text fill="#000000" font-family="sans-serif" font-size="13" lengthAdjust="spacing" textLength="104.5269" x="840.12" y="186.0669">teilsummeNetto</text><text fill="#000000" font-family="sans-serif" font-size="13" lengthAdjust="spacing" textLength="24.8066" x="1019.1882" y="194.1853">0..1</text></g><!--link Rechnungsposition to Betrag--><g class="link" data-entity-1="Rechnungsposition" data-entity-2="Betrag" data-source-line="30" data-uid="lnk18" id="link_Rechnungsposition_Betrag"><path codeLine="30" d="M796.44,258.3 C876.5,250.96 941.53,241.6 958.12,230 C964.97,225.21 959.69,218.33 966.12,213 C989.9,193.31 1011.0611,185.7851 1039.4311,181.3951" fill="none" id="Rechnungsposition-to-Betrag-1" style="stroke:#181818;stroke-width:1;"/><polygon fill="#181818" points="1051.29,179.56,1044.7489,176.5246,1039.4311,181.3951,1045.9723,184.4305,1051.29,179.56" style="stroke:#181818;stroke-width:1;"/><text fill="#000000" font-family="sans-serif" font-size="13" lengthAdjust="spacing" textLength="95.9131" x="844.62" y="226.0669">teilrabattNetto</text><text fill="#000000" font-family="sans-serif" font-size="13" lengthAdjust="spacing" textLength="24.8066" x="1019.0878" y="176.1792">0..1</text></g><!--link Rechnungsposition to Steuerbetrag--><g class="link" data-entity-1="Rechnungsposition" data-entity-2="Steuerbetrag" data-source-line="31" data-uid="lnk19" id="link_Rechnungsposition_Steuerbetrag"><path codeLine="31" d="M796.48,316.34 C806.46,316.94 816.35,317.49 826.12,318 C897.16,321.68 966.33,322.48 1023.56,322.48" fill="none" id="Rechnungsposition-to-Steuerbetrag" style="stroke:#181818;stroke-width:1;"/><polygon fill="#181818" points="1035.56,322.48,1029.56,318.48,1023.56,322.48,1029.56,326.48,1035.56,322.48" style="stroke:#181818;stroke-width:1;"/><text fill="#000000" font-family="sans-serif" font-size="13" lengthAdjust="spacing" textLength="111.5854" x="836.62" y="314.0669">teilsummeSteuer</text><text fill="#000000" font-family="sans-serif" font-size="13" lengthAdjust="spacing" textLength="24.8066" x="1003.0284" y="335.3391">0..1</text></g><!--link Rechnungsposition to Mengeneinheit--><g class="link" data-entity-1="Rechnungsposition" data-entity-2="Mengeneinheit" data-source-line="32" data-uid="lnk20" id="link_Rechnungsposition_Mengeneinheit"><path codeLine="32" d="M651.85,360.38 C794.39,406.35 950.329,456.6374 1037.879,484.8674" fill="none" id="Rechnungsposition-to-Mengeneinheit" style="stroke:#181818;stroke-width:1;"/><polygon fill="#181818" points="1049.3,488.55,1044.8171,482.9017,1037.879,484.8674,1042.362,490.5157,1049.3,488.55" style="stroke:#181818;stroke-width:1;"/><text fill="#000000" font-family="sans-serif" font-size="13" lengthAdjust="spacing" textLength="68.3262" x="858.12" y="414.0669">zeiteinheit</text><text fill="#000000" font-family="sans-serif" font-size="13" lengthAdjust="spacing" textLength="24.8066" x="1004.7901" y="478.0562">0..1</text></g><!--link Rechnungsposition to BDEWArtikelnummer--><g class="link" data-entity-1="Rechnungsposition" data-entity-2="BDEWArtikelnummer" data-source-line="33" data-uid="lnk21" id="link_Rechnungsposition_BDEWArtikelnummer"><path codeLine="33" d="M550.73,360.37 C662.29,418.14 820.4,494.31 966.12,544 C985.12,550.48 994.2546,553.3881 1013.9146,558.5581" fill="none" id="Rechnungsposition-to-BDEWArtikelnummer" style="stroke:#181818;stroke-width:1;"/><polygon fill="#181818" points="1025.52,561.61,1020.7346,556.2156,1013.9146,558.5581,1018.7,563.9525,1025.52,561.61" style="stroke:#181818;stroke-width:1;"/><text fill="#000000" font-family="sans-serif" font-size="13" lengthAdjust="spacing" textLength="96.3066" x="844.12" y="492.0669">artikelnummer</text><text fill="#000000" font-family="sans-serif" font-size="13" lengthAdjust="spacing" textLength="24.8066" x="981.5747" y="553.1448">0..1</text></g><!--SRC=[nLLHRzem47vkViK97YfDmccrRggYhbAXQ4DQeMgxxO6XoI47iKZio3QYiEs_ptOQ24tGogGLf3ZSvRlpP_lkSu8J3Lg0PDDOGyGaZZKJtFF62LKA6iFXX2KO-EONYnHzEUSSfRyGSkQt1sVTLhRKiU1R_oCnLZuXFj7YCJTqclcnJXEVPimFnHcIiKY9zJJNbfavvdC-LPbGp78WTyyzKF6CHj_vXM8h34vFBdUdQW1LrM3uwHtzqCiC0lZCD4gQ32yw8drOPkIks_dK_zB_U7yxkEyzz0Rz08uhlkFB4GnFH_01TaLvHyLSYi_J5AMPYd4DmnD2N61VSFIE4eOJD3ix_Mf81N2re1AlgKRDKjo9RJFrD-nwSesFse2LbfLqOaOTf1VL0wZKR8R9Zi-_FO_J55L6n_Z_YmKAQpHo9rgOqEoUN9s_xzW3VVMwJP5FaTpO4TnONvCEvbWxq068XgWbdPAsUq7-gkUQ8ntP77O0jfb4fiYj7S6DzLGTp35re0CGDSqrH_cqkVSb0yf6FVjoh5j4EUG0Qx5FPt03vgadR1x7qm1Cxxz2wwFHpLBlMxFS_DQ6PdGwVllk_1MwVysckJ5TOtDaF4QcSnqeBDYogZjQZTy8HE4vo9h221TFmf_VMwHztVrsLVP0nRDZVPLSkQuyZxPNISsDtshzkbphlAtDEf11lO66lPWQ6soko06iBy5ST_SDNvap274bx8dibo7NhW3CGQumSKBrujWdaGv08qkKtQ0-QYt-BLxIa6gzNu8j8IlHoFqlIkDEVxiVykqiAll5IQh55y1MINbUp2A45DCGfV9KB1PGatt2C8dK7m00]--></g></svg>