<svg xmlns="http://www.w3.org/2000/svg" xmlns:xlink="http://www.w3.org/1999/xlink" contentStyleType="text/css" data-diagram-type="CLASS" height="242px" preserveAspectRatio="none" style="width:801px;height:242px;background:#FFFFFF;" version="1.1" viewBox="0 0 801 242" width="801px" zoomAndPan="magnify"><defs/><g><!--cluster bo4e--><g class="cluster" data-entity="bo4e" data-source-line="10" data-uid="ent0005" id="cluster_bo4e"><path d="M531.96,6 L571.836,6 A3.75,3.75 0 0 1 574.336,8.5 L581.336,28.2969 L791.87,28.2969 A2.5,2.5 0 0 1 794.37,30.7969 L794.37,232.5 A2.5,2.5 0 0 1 791.87,235 L531.96,235 A2.5,2.5 0 0 1 529.46,232.5 L529.46,8.5 A2.5,2.5 0 0 1 531.96,6" fill="none" style="stroke:#000000;stroke-width:1.5;"/><line style="stroke:#000000;stroke-width:1.5;" x1="529.46" x2="581.336" y1="28.2969" y2="28.2969"/><text fill="#000000" font-family="sans-serif" font-size="14" font-weight="bold" lengthAdjust="spacing" textLength="38.876" x="533.46" y="20.9951">bo4e</text></g><!--cluster com--><g class="cluster" data-entity="com" data-source-line="9" data-uid="ent0003" id="cluster_com"><path d="M555.96,49 L633.6592,49 A3.75,3.75 0 0 1 636.1592,51.5 L643.1592,71.2969 L767.87,71.2969 A2.5,2.5 0 0 1 770.37,73.7969 L770.37,208.5 A2.5,2.5 0 0 1 767.87,211 L555.96,211 A2.5,2.5 0 0 1 553.46,208.5 L553.46,51.5 A2.5,2.5 0 0 1 555.96,49" fill="#E0A86C" style="stroke:#000000;stroke-width:1.5;"/><line style="stroke:#000000;stroke-width:1.5;" x1="553.46" x2="643.1592" y1="71.2969" y2="71.2969"/><a href="file:////home/runner/work/BO4E-python/BO4E-python/docs/../.tox/docs/tmp/html/api/bo4e.com.html" target="_top" title="file:////home/runner/work/BO4E-python/BO4E-python/docs/../.tox/docs/tmp/html/api/bo4e.com.html" xlink:actuate="onRequest" xlink:href="file:////home/runner/work/BO4E-python/BO4E-python/docs/../.tox/docs/tmp/html/api/bo4e.com.html" xlink:show="new" xlink:title="file:////home/runner/work/BO4E-python/BO4E-python/docs/../.tox/docs/tmp/html/api/bo4e.com.html" xlink:type="simple"><text fill="#0000FF" font-family="sans-serif" font-size="14" font-weight="bold" lengthAdjust="spacing" text-decoration="underline" textLength="76.6992" x="557.46" y="63.9951">bo4e.com</text></a></g><!--class Preisgarantie--><g class="entity" data-entity="Preisgarantie" data-source-line="10" data-uid="ent0004" id="entity_Preisgarantie"><rect fill="#F1F1F1" height="37.9375" rx="2.5" ry="2.5" style="stroke:#181818;stroke-width:0.5;" width="151.1992" x="586.32" y="84.03"/><ellipse cx="601.32" cy="102.9988" fill="#ADD1B2" rx="11" ry="11" style="stroke:#181818;stroke-width:1;"/><path d="M604.2888,108.6394 Q603.7106,108.9363 603.07,109.0769 Q602.4294,109.2331 601.7263,109.2331 Q599.2263,109.2331 597.8981,107.5925 Q596.5856,105.9363 596.5856,102.8113 Q596.5856,99.6863 597.8981,98.03 Q599.2263,96.3738 601.7263,96.3738 Q602.4294,96.3738 603.07,96.53 Q603.7263,96.6863 604.2888,96.9831 L604.2888,99.7019 Q603.6638,99.1238 603.07,98.8581 Q602.4763,98.5769 601.8513,98.5769 Q600.5075,98.5769 599.82,99.655 Q599.1325,100.7175 599.1325,102.8113 Q599.1325,104.905 599.82,105.9831 Q600.5075,107.0456 601.8513,107.0456 Q602.4763,107.0456 603.07,106.78 Q603.6638,106.4988 604.2888,105.9206 L604.2888,108.6394 Z " fill="#000000"/><a href="file:////home/runner/work/BO4E-python/BO4E-python/docs/../.tox/docs/tmp/html/api/bo4e.com.html#bo4e.com.preisgarantie.Preisgarantie" target="_top" title="file:////home/runner/work/BO4E-python/BO4E-python/docs/../.tox/docs/tmp/html/api/bo4e.com.html#bo4e.com.preisgarantie.Preisgarantie" xlink:actuate="onRequest" xlink:href="file:////home/runner/work/BO4E-python/BO4E-python/docs/../.tox/docs/tmp/html/api/bo4e.com.html#bo4e.com.preisgarantie.Preisgarantie" xlink:show="new" xlink:title="file:////home/runner/work/BO4E-python/BO4E-python/docs/../.tox/docs/tmp/html/api/bo4e.com.html#bo4e.com.preisgarantie.Preisgarantie" xlink:type="simple"><text fill="#0000FF" font-family="sans-serif" font-size="14" lengthAdjust="spacing" text-decoration="underline" textLength="92.6611" x="628.589" y="102.0251">Preisgarantie</text></a><text fill="#000000" font-family="sans-serif" font-size="10" lengthAdjust="spacing" textLength="119.1992" x="615.32" y="114.6091">bo4e.com.preisgarantie</text></g><!--class RegionaleGueltigkeit--><g class="entity" data-entity="RegionaleGueltigkeit" data-source-line="11" data-uid="ent0006" id="entity_RegionaleGueltigkeit"><rect fill="#F1F1F1" height="37.9375" rx="2.5" ry="2.5" style="stroke:#181818;stroke-width:0.5;" width="184.9053" x="569.46" y="157.03"/><ellipse cx="584.46" cy="175.9988" fill="#ADD1B2" rx="11" ry="11" style="stroke:#181818;stroke-width:1;"/><path d="M587.4288,181.6394 Q586.8506,181.9363 586.21,182.0769 Q585.5694,182.2331 584.8663,182.2331 Q582.3663,182.2331 581.0381,180.5925 Q579.7256,178.9363 579.7256,175.8113 Q579.7256,172.6863 581.0381,171.03 Q582.3663,169.3738 584.8663,169.3738 Q585.5694,169.3738 586.21,169.53 Q586.8663,169.6863 587.4288,169.9831 L587.4288,172.7019 Q586.8038,172.1238 586.21,171.8581 Q585.6163,171.5769 584.9913,171.5769 Q583.6475,171.5769 582.96,172.655 Q582.2725,173.7175 582.2725,175.8113 Q582.2725,177.905 582.96,178.9831 Q583.6475,180.0456 584.9913,180.0456 Q585.6163,180.0456 586.21,179.78 Q586.8038,179.4988 587.4288,178.9206 L587.4288,181.6394 Z " fill="#000000"/><a href="file:////home/runner/work/BO4E-python/BO4E-python/docs/../.tox/docs/tmp/html/api/bo4e.com.html#bo4e.com.regionalegueltigkeit.RegionaleGueltigkeit" target="_top" title="file:////home/runner/work/BO4E-python/BO4E-python/docs/../.tox/docs/tmp/html/api/bo4e.com.html#bo4e.com.regionalegueltigkeit.RegionaleGueltigkeit" xlink:actuate="onRequest" xlink:href="file:////home/runner/work/BO4E-python/BO4E-python/docs/../.tox/docs/tmp/html/api/bo4e.com.html#bo4e.com.regionalegueltigkeit.RegionaleGueltigkeit" xlink:show="new" xlink:title="file:////home/runner/work/BO4E-python/BO4E-python/docs/../.tox/docs/tmp/html/api/bo4e.com.html#bo4e.com.regionalegueltigkeit.RegionaleGueltigkeit" xlink:type="simple"><text fill="#0000FF" font-family="sans-serif" font-size="14" lengthAdjust="spacing" text-decoration="underline" textLength="146.2275" x="601.7989" y="175.0251">RegionaleGueltigkeit</text></a><text fill="#000000" font-family="sans-serif" font-size="10" lengthAdjust="spacing" textLength="152.9053" x="598.46" y="187.6091">bo4e.com.regionalegueltigkeit</text></g><!--class RegionalePreisgarantie--><g class="entity" data-entity="RegionalePreisgarantie" data-source-line="3" data-uid="ent0002" id="entity_RegionalePreisgarantie"><rect fill="#F1F1F1" height="94.8281" rx="2.5" ry="2.5" style="stroke:#181818;stroke-width:0.5;" width="342.4629" x="7" y="92.59"/><ellipse cx="90.9297" cy="111.5588" fill="#ADD1B2" rx="11" ry="11" style="stroke:#181818;stroke-width:1;"/><path d="M93.8984,117.1994 Q93.3203,117.4963 92.6797,117.6369 Q92.0391,117.7931 91.3359,117.7931 Q88.8359,117.7931 87.5078,116.1525 Q86.1953,114.4963 86.1953,111.3713 Q86.1953,108.2463 87.5078,106.59 Q88.8359,104.9338 91.3359,104.9338 Q92.0391,104.9338 92.6797,105.09 Q93.3359,105.2463 93.8984,105.5431 L93.8984,108.2619 Q93.2734,107.6838 92.6797,107.4181 Q92.0859,107.1369 91.4609,107.1369 Q90.1172,107.1369 89.4297,108.215 Q88.7422,109.2775 88.7422,111.3713 Q88.7422,113.465 89.4297,114.5431 Q90.1172,115.6056 91.4609,115.6056 Q92.0859,115.6056 92.6797,115.34 Q93.2734,115.0588 93.8984,114.4806 L93.8984,117.1994 Z " fill="#000000"/><a href="file:////home/runner/work/BO4E-python/BO4E-python/docs/../.tox/docs/tmp/html/api/bo4e.com.html#bo4e.com.regionalepreisgarantie.RegionalePreisgarantie" target="_top" title="file:////home/runner/work/BO4E-python/BO4E-python/docs/../.tox/docs/tmp/html/api/bo4e.com.html#bo4e.com.regionalepreisgarantie.RegionalePreisgarantie" xlink:actuate="onRequest" xlink:href="file:////home/runner/work/BO4E-python/BO4E-python/docs/../.tox/docs/tmp/html/api/bo4e.com.html#bo4e.com.regionalepreisgarantie.RegionalePreisgarantie" xlink:show="new" xlink:title="file:////home/runner/work/BO4E-python/BO4E-python/docs/../.tox/docs/tmp/html/api/bo4e.com.html#bo4e.com.regionalepreisgarantie.RegionalePreisgarantie" xlink:type="simple"><text fill="#0000FF" font-family="sans-serif" font-size="14" lengthAdjust="spacing" text-decoration="underline" textLength="162.2988" x="113.332" y="110.5851">RegionalePreisgarantie</text></a><text fill="#000000" font-family="sans-serif" font-size="10" lengthAdjust="spacing" textLength="166.1035" x="111.4297" y="123.1691">bo4e.com.regionalepreisgarantie</text><line style="stroke:#181818;stroke-width:0.5;" x1="8" x2="348.4629" y1="130.5275" y2="130.5275"/><text fill="#000000" font-family="sans-serif" font-size="14" lengthAdjust="spacing" textLength="330.4629" x="13" y="147.5226">_version : str [0..1] = 202501.0.0+gc3c78750c</text><text fill="#000000" font-family="sans-serif" font-size="14" lengthAdjust="spacing" textLength="151.1768" x="13" y="163.8195">_id : str [0..1] = None</text><text fill="#000000" font-family="sans-serif" font-size="14" lengthAdjust="spacing" textLength="318.5752" x="13" y="180.1164">zusatzAttribute : ZusatzAttribut [0..*] = None</text></g><!--link RegionalePreisgarantie to Preisgarantie--><g class="link" data-entity-1="RegionalePreisgarantie" data-entity-2="Preisgarantie" data-source-line="14" data-uid="lnk7" id="link_RegionalePreisgarantie_Preisgarantie"><path codeLine="14" d="M349.73,126.9 C430.52,120.7 504.9327,114.9764 567.9127,110.1464" fill="none" id="RegionalePreisgarantie-to-Preisgarantie" style="stroke:#181818;stroke-width:1;"/><polygon fill="none" points="585.86,108.77,567.4539,104.164,568.3715,116.1288,585.86,108.77" style="stroke:#181818;stroke-width:1;"/></g><!--link RegionalePreisgarantie to RegionaleGueltigkeit--><g class="link" data-entity-1="RegionalePreisgarantie" data-entity-2="RegionaleGueltigkeit" data-source-line="15" data-uid="lnk8" id="link_RegionalePreisgarantie_RegionaleGueltigkeit"><path codeLine="15" d="M349.91,152.79 C359.91,153.54 369.82,154.28 379.46,155 C442.74,159.73 502.0532,164.1578 557.0432,168.2578" fill="none" id="RegionalePreisgarantie-to-RegionaleGueltigkeit" style="stroke:#181818;stroke-width:1;"/><polygon fill="#181818" points="569.01,169.15,563.324,164.715,557.0432,168.2578,562.7292,172.6928,569.01,169.15" style="stroke:#181818;stroke-width:1;"/><text fill="#000000" font-family="sans-serif" font-size="13" lengthAdjust="spacing" textLength="132.0947" x="380.46" y="151.0669">regionaleGueltigkeit</text><text fill="#000000" font-family="sans-serif" font-size="13" lengthAdjust="spacing" textLength="24.8066" x="536.6827" y="181.2741">0..1</text></g><!--SRC=[nLDHJy8m47wsl-8otZ2q0q78eYHeY6zgV1GNKxPZQzZMfUr4KV-x6uR1T0k-g7tgVVtkhhtlQuGB0qQ24a5em1SAFIDaGeWNSQt1ciqM8aA7vIkKCJAL9Gagjf9goIvk-jDE-c92cLJsllGqevHH8vy_0nEdB3Hnn7Wgs5psaNeofWNIAYE5GTwOHvWg53hWYYT68BtRmhVxCDJ3hlkGd6cnHgThZmzKje3hXZBmIeuUdr3f_0mSq4R1pAQqwy8vzEpUmEvIczh7WNVY3KV3WUtbTE5_PLxB1CdHEjFSh2V6A37F3EQa-mgouRTB_ZiX2OzHfzp3tvy-R2FNtOnZ6q9hQaz6fvV58FxS25NzgyByGEtl8bUI_k51fV-232CZWYKAi_FrrGw4El20f_TgLXszLw9mLTD7wdJUngNkrMatvkH9RR0AdrkxrDe7EQ3gxaD2uIF46C_pJqPqA5VGr6iXCFBr1m00]--></g></svg>