<svg xmlns="http://www.w3.org/2000/svg" xmlns:xlink="http://www.w3.org/1999/xlink" contentStyleType="text/css" data-diagram-type="CLASS" height="242px" preserveAspectRatio="none" style="width:804px;height:242px;background:#FFFFFF;" version="1.1" viewBox="0 0 804 242" width="804px" zoomAndPan="magnify"><defs/><g><!--cluster bo4e--><g class="cluster" data-entity="bo4e" data-source-line="10" data-uid="ent0005" id="cluster_bo4e"><path d="M535.26,6 L575.136,6 A3.75,3.75 0 0 1 577.636,8.5 L584.636,28.2969 L795.17,28.2969 A2.5,2.5 0 0 1 797.67,30.7969 L797.67,232.5 A2.5,2.5 0 0 1 795.17,235 L535.26,235 A2.5,2.5 0 0 1 532.76,232.5 L532.76,8.5 A2.5,2.5 0 0 1 535.26,6" fill="none" style="stroke:#000000;stroke-width:1.5;"/><line style="stroke:#000000;stroke-width:1.5;" x1="532.76" x2="584.636" y1="28.2969" y2="28.2969"/><text fill="#000000" font-family="sans-serif" font-size="14" font-weight="bold" lengthAdjust="spacing" textLength="38.876" x="536.76" y="20.9951">bo4e</text></g><!--cluster com--><g class="cluster" data-entity="com" data-source-line="9" data-uid="ent0003" id="cluster_com"><path d="M559.26,49 L636.9592,49 A3.75,3.75 0 0 1 639.4592,51.5 L646.4592,71.2969 L771.17,71.2969 A2.5,2.5 0 0 1 773.67,73.7969 L773.67,208.5 A2.5,2.5 0 0 1 771.17,211 L559.26,211 A2.5,2.5 0 0 1 556.76,208.5 L556.76,51.5 A2.5,2.5 0 0 1 559.26,49" fill="#E0A86C" style="stroke:#000000;stroke-width:1.5;"/><line style="stroke:#000000;stroke-width:1.5;" x1="556.76" x2="646.4592" y1="71.2969" y2="71.2969"/><a href="file:////home/runner/work/BO4E-python/BO4E-python/docs/../.tox/docs/tmp/html/api/bo4e.com.html" target="_top" title="file:////home/runner/work/BO4E-python/BO4E-python/docs/../.tox/docs/tmp/html/api/bo4e.com.html" xlink:actuate="onRequest" xlink:href="file:////home/runner/work/BO4E-python/BO4E-python/docs/../.tox/docs/tmp/html/api/bo4e.com.html" xlink:show="new" xlink:title="file:////home/runner/work/BO4E-python/BO4E-python/docs/../.tox/docs/tmp/html/api/bo4e.com.html" xlink:type="simple"><text fill="#0000FF" font-family="sans-serif" font-size="14" font-weight="bold" lengthAdjust="spacing" text-decoration="underline" textLength="76.6992" x="560.76" y="63.9951">bo4e.com</text></a></g><!--class Preisstaffel--><g class="entity" data-entity="Preisstaffel" data-source-line="10" data-uid="ent0004" id="entity_Preisstaffel"><rect fill="#F1F1F1" height="37.9375" rx="2.5" ry="2.5" style="stroke:#181818;stroke-width:0.5;" width="140.5254" x="594.95" y="84.03"/><ellipse cx="609.95" cy="102.9988" fill="#ADD1B2" rx="11" ry="11" style="stroke:#181818;stroke-width:1;"/><path d="M612.9188,108.6394 Q612.3406,108.9363 611.7,109.0769 Q611.0594,109.2331 610.3563,109.2331 Q607.8563,109.2331 606.5281,107.5925 Q605.2156,105.9363 605.2156,102.8113 Q605.2156,99.6863 606.5281,98.03 Q607.8563,96.3738 610.3563,96.3738 Q611.0594,96.3738 611.7,96.53 Q612.3563,96.6863 612.9188,96.9831 L612.9188,99.7019 Q612.2938,99.1238 611.7,98.8581 Q611.1063,98.5769 610.4813,98.5769 Q609.1375,98.5769 608.45,99.655 Q607.7625,100.7175 607.7625,102.8113 Q607.7625,104.905 608.45,105.9831 Q609.1375,107.0456 610.4813,107.0456 Q611.1063,107.0456 611.7,106.78 Q612.2938,106.4988 612.9188,105.9206 L612.9188,108.6394 Z " fill="#000000"/><a href="file:////home/runner/work/BO4E-python/BO4E-python/docs/../.tox/docs/tmp/html/api/bo4e.com.html#bo4e.com.preisstaffel.Preisstaffel" target="_top" title="file:////home/runner/work/BO4E-python/BO4E-python/docs/../.tox/docs/tmp/html/api/bo4e.com.html#bo4e.com.preisstaffel.Preisstaffel" xlink:actuate="onRequest" xlink:href="file:////home/runner/work/BO4E-python/BO4E-python/docs/../.tox/docs/tmp/html/api/bo4e.com.html#bo4e.com.preisstaffel.Preisstaffel" xlink:show="new" xlink:title="file:////home/runner/work/BO4E-python/BO4E-python/docs/../.tox/docs/tmp/html/api/bo4e.com.html#bo4e.com.preisstaffel.Preisstaffel" xlink:type="simple"><text fill="#0000FF" font-family="sans-serif" font-size="14" lengthAdjust="spacing" text-decoration="underline" textLength="77.7178" x="639.3538" y="102.0251">Preisstaffel</text></a><text fill="#000000" font-family="sans-serif" font-size="10" lengthAdjust="spacing" textLength="108.5254" x="623.95" y="114.6091">bo4e.com.preisstaffel</text></g><!--class RegionaleGueltigkeit--><g class="entity" data-entity="RegionaleGueltigkeit" data-source-line="11" data-uid="ent0006" id="entity_RegionaleGueltigkeit"><rect fill="#F1F1F1" height="37.9375" rx="2.5" ry="2.5" style="stroke:#181818;stroke-width:0.5;" width="184.9053" x="572.76" y="157.03"/><ellipse cx="587.76" cy="175.9988" fill="#ADD1B2" rx="11" ry="11" style="stroke:#181818;stroke-width:1;"/><path d="M590.7288,181.6394 Q590.1506,181.9363 589.51,182.0769 Q588.8694,182.2331 588.1663,182.2331 Q585.6663,182.2331 584.3381,180.5925 Q583.0256,178.9363 583.0256,175.8113 Q583.0256,172.6863 584.3381,171.03 Q585.6663,169.3738 588.1663,169.3738 Q588.8694,169.3738 589.51,169.53 Q590.1663,169.6863 590.7288,169.9831 L590.7288,172.7019 Q590.1038,172.1238 589.51,171.8581 Q588.9163,171.5769 588.2913,171.5769 Q586.9475,171.5769 586.26,172.655 Q585.5725,173.7175 585.5725,175.8113 Q585.5725,177.905 586.26,178.9831 Q586.9475,180.0456 588.2913,180.0456 Q588.9163,180.0456 589.51,179.78 Q590.1038,179.4988 590.7288,178.9206 L590.7288,181.6394 Z " fill="#000000"/><a href="file:////home/runner/work/BO4E-python/BO4E-python/docs/../.tox/docs/tmp/html/api/bo4e.com.html#bo4e.com.regionalegueltigkeit.RegionaleGueltigkeit" target="_top" title="file:////home/runner/work/BO4E-python/BO4E-python/docs/../.tox/docs/tmp/html/api/bo4e.com.html#bo4e.com.regionalegueltigkeit.RegionaleGueltigkeit" xlink:actuate="onRequest" xlink:href="file:////home/runner/work/BO4E-python/BO4E-python/docs/../.tox/docs/tmp/html/api/bo4e.com.html#bo4e.com.regionalegueltigkeit.RegionaleGueltigkeit" xlink:show="new" xlink:title="file:////home/runner/work/BO4E-python/BO4E-python/docs/../.tox/docs/tmp/html/api/bo4e.com.html#bo4e.com.regionalegueltigkeit.RegionaleGueltigkeit" xlink:type="simple"><text fill="#0000FF" font-family="sans-serif" font-size="14" lengthAdjust="spacing" text-decoration="underline" textLength="146.2275" x="605.0989" y="175.0251">RegionaleGueltigkeit</text></a><text fill="#000000" font-family="sans-serif" font-size="10" lengthAdjust="spacing" textLength="152.9053" x="601.76" y="187.6091">bo4e.com.regionalegueltigkeit</text></g><!--class RegionalePreisstaffel--><g class="entity" data-entity="RegionalePreisstaffel" data-source-line="3" data-uid="ent0002" id="entity_RegionalePreisstaffel"><rect fill="#F1F1F1" height="94.8281" rx="2.5" ry="2.5" style="stroke:#181818;stroke-width:0.5;" width="345.7646" x="7" y="92.59"/><ellipse cx="97.9175" cy="111.5588" fill="#ADD1B2" rx="11" ry="11" style="stroke:#181818;stroke-width:1;"/><path d="M100.8862,117.1994 Q100.3081,117.4963 99.6675,117.6369 Q99.0269,117.7931 98.3237,117.7931 Q95.8237,117.7931 94.4956,116.1525 Q93.1831,114.4963 93.1831,111.3713 Q93.1831,108.2463 94.4956,106.59 Q95.8237,104.9338 98.3237,104.9338 Q99.0269,104.9338 99.6675,105.09 Q100.3237,105.2463 100.8862,105.5431 L100.8862,108.2619 Q100.2612,107.6838 99.6675,107.4181 Q99.0737,107.1369 98.4487,107.1369 Q97.105,107.1369 96.4175,108.215 Q95.73,109.2775 95.73,111.3713 Q95.73,113.465 96.4175,114.5431 Q97.105,115.6056 98.4487,115.6056 Q99.0737,115.6056 99.6675,115.34 Q100.2612,115.0588 100.8862,114.4806 L100.8862,117.1994 Z " fill="#000000"/><a href="file:////home/runner/work/BO4E-python/BO4E-python/docs/../.tox/docs/tmp/html/api/bo4e.com.html#bo4e.com.regionalepreisstaffel.RegionalePreisstaffel" target="_top" title="file:////home/runner/work/BO4E-python/BO4E-python/docs/../.tox/docs/tmp/html/api/bo4e.com.html#bo4e.com.regionalepreisstaffel.RegionalePreisstaffel" xlink:actuate="onRequest" xlink:href="file:////home/runner/work/BO4E-python/BO4E-python/docs/../.tox/docs/tmp/html/api/bo4e.com.html#bo4e.com.regionalepreisstaffel.RegionalePreisstaffel" xlink:show="new" xlink:title="file:////home/runner/work/BO4E-python/BO4E-python/docs/../.tox/docs/tmp/html/api/bo4e.com.html#bo4e.com.regionalepreisstaffel.RegionalePreisstaffel" xlink:type="simple"><text fill="#0000FF" font-family="sans-serif" font-size="14" lengthAdjust="spacing" text-decoration="underline" textLength="147.3555" x="122.4546" y="110.5851">RegionalePreisstaffel</text></a><text fill="#000000" font-family="sans-serif" font-size="10" lengthAdjust="spacing" textLength="155.4297" x="118.4175" y="123.1691">bo4e.com.regionalepreisstaffel</text><line style="stroke:#181818;stroke-width:0.5;" x1="8" x2="351.7646" y1="130.5275" y2="130.5275"/><text fill="#000000" font-family="sans-serif" font-size="14" lengthAdjust="spacing" textLength="333.7646" x="13" y="147.5226">_version : str [0..1] = 202501.0.0+g5a3185351</text><text fill="#000000" font-family="sans-serif" font-size="14" lengthAdjust="spacing" textLength="151.1768" x="13" y="163.8195">_id : str [0..1] = None</text><text fill="#000000" font-family="sans-serif" font-size="14" lengthAdjust="spacing" textLength="318.5752" x="13" y="180.1164">zusatzAttribute : ZusatzAttribut [0..*] = None</text></g><!--link RegionalePreisstaffel to Preisstaffel--><g class="link" data-entity-1="RegionalePreisstaffel" data-entity-2="Preisstaffel" data-source-line="14" data-uid="lnk7" id="link_RegionalePreisstaffel_Preisstaffel"><path codeLine="14" d="M352.99,126.82 C436.25,120.45 513.6125,114.5236 576.5925,109.7036" fill="none" id="RegionalePreisstaffel-to-Preisstaffel" style="stroke:#181818;stroke-width:1;"/><polygon fill="none" points="594.54,108.33,576.1346,103.7211,577.0503,115.6861,594.54,108.33" style="stroke:#181818;stroke-width:1;"/></g><!--link RegionalePreisstaffel to RegionaleGueltigkeit--><g class="link" data-entity-1="RegionalePreisstaffel" data-entity-2="RegionaleGueltigkeit" data-source-line="15" data-uid="lnk8" id="link_RegionalePreisstaffel_RegionaleGueltigkeit"><path codeLine="15" d="M352.99,152.82 C427.03,158.33 498.6332,163.6685 560.5132,168.2785" fill="none" id="RegionalePreisstaffel-to-RegionaleGueltigkeit" style="stroke:#181818;stroke-width:1;"/><polygon fill="#181818" points="572.48,169.17,566.7938,164.7353,560.5132,168.2785,566.1994,172.7132,572.48,169.17" style="stroke:#181818;stroke-width:1;"/><text fill="#000000" font-family="sans-serif" font-size="13" lengthAdjust="spacing" textLength="132.0947" x="383.76" y="152.0669">regionaleGueltigkeit</text><text fill="#000000" font-family="sans-serif" font-size="13" lengthAdjust="spacing" textLength="24.8066" x="539.8402" y="181.298">0..1</text></g><!--SRC=[nLDHJuCm47uUl-B2tcRMmZRCGdJ9D8jlQdnq4jF10Ss0ahOudVhVPJDZeCmzgNtgVVtkhhtlQuAX1Yr0yYZM4729lkOYCmm_OKg1EP-7F46NbYiMAL9PP1bAkX9oIIzkHhD-_g9ZaJNsWV0L9OGIBPu_0vtcDDPfGbdEwKACaFWY9HkaMqKIex8nIp2No9NIB0mn8NSxzBQ6GYlgUG_PcU9hT6rhydDP4vXgBmAlHkVn2QKgZy05fINCBK9i3yvXO0qSooOMiKuYXmtjiJDqx9BEWw_CQv6XqLaNYkdrL6l95uN6adJVGBRyNiL_DuoCfQXovkFl3nvsaUTjfx4BeJkpfkFJoyqW_jm33UaRiXmN-fk-zPH_U4jblAZ0HFDeYLplxNor1w4DF6BcMiscbsibDeOwy7_w_RT9fNXZq8SoofGUc1j_c_l4rjUu8DikOyGyG4WnNPIVor2nMC61LY77950V]--></g></svg>