<svg xmlns="http://www.w3.org/2000/svg" xmlns:xlink="http://www.w3.org/1999/xlink" contentStyleType="text/css" data-diagram-type="CLASS" height="242px" preserveAspectRatio="none" style="width:801px;height:242px;background:#FFFFFF;" version="1.1" viewBox="0 0 801 242" width="801px" zoomAndPan="magnify"><defs/><g><!--cluster bo4e--><g class="cluster" data-entity="bo4e" data-source-line="10" data-uid="ent0005" id="cluster_bo4e"><path d="M531.96,6 L571.836,6 A3.75,3.75 0 0 1 574.336,8.5 L581.336,28.2969 L791.87,28.2969 A2.5,2.5 0 0 1 794.37,30.7969 L794.37,232.5 A2.5,2.5 0 0 1 791.87,235 L531.96,235 A2.5,2.5 0 0 1 529.46,232.5 L529.46,8.5 A2.5,2.5 0 0 1 531.96,6" fill="none" style="stroke:#000000;stroke-width:1.5;"/><line style="stroke:#000000;stroke-width:1.5;" x1="529.46" x2="581.336" y1="28.2969" y2="28.2969"/><text fill="#000000" font-family="sans-serif" font-size="14" font-weight="bold" lengthAdjust="spacing" textLength="38.876" x="533.46" y="20.9951">bo4e</text></g><!--cluster com--><g class="cluster" data-entity="com" data-source-line="9" data-uid="ent0003" id="cluster_com"><path d="M555.96,49 L633.6592,49 A3.75,3.75 0 0 1 636.1592,51.5 L643.1592,71.2969 L767.87,71.2969 A2.5,2.5 0 0 1 770.37,73.7969 L770.37,208.5 A2.5,2.5 0 0 1 767.87,211 L555.96,211 A2.5,2.5 0 0 1 553.46,208.5 L553.46,51.5 A2.5,2.5 0 0 1 555.96,49" fill="#E0A86C" style="stroke:#000000;stroke-width:1.5;"/><line style="stroke:#000000;stroke-width:1.5;" x1="553.46" x2="643.1592" y1="71.2969" y2="71.2969"/><a href="file:////home/runner/work/BO4E-python/BO4E-python/docs/../.tox/docs/tmp/html/api/bo4e.com.html" target="_top" title="file:////home/runner/work/BO4E-python/BO4E-python/docs/../.tox/docs/tmp/html/api/bo4e.com.html" xlink:actuate="onRequest" xlink:href="file:////home/runner/work/BO4E-python/BO4E-python/docs/../.tox/docs/tmp/html/api/bo4e.com.html" xlink:show="new" xlink:title="file:////home/runner/work/BO4E-python/BO4E-python/docs/../.tox/docs/tmp/html/api/bo4e.com.html" xlink:type="simple"><text fill="#0000FF" font-family="sans-serif" font-size="14" font-weight="bold" lengthAdjust="spacing" text-decoration="underline" textLength="76.6992" x="557.46" y="63.9951">bo4e.com</text></a></g><!--class Preisstaffel--><g class="entity" data-entity="Preisstaffel" data-source-line="10" data-uid="ent0004" id="entity_Preisstaffel"><rect fill="#F1F1F1" height="37.9375" rx="2.5" ry="2.5" style="stroke:#181818;stroke-width:0.5;" width="140.5254" x="591.65" y="84.03"/><ellipse cx="606.65" cy="102.9988" fill="#ADD1B2" rx="11" ry="11" style="stroke:#181818;stroke-width:1;"/><path d="M609.6188,108.6394 Q609.0406,108.9363 608.4,109.0769 Q607.7594,109.2331 607.0563,109.2331 Q604.5563,109.2331 603.2281,107.5925 Q601.9156,105.9363 601.9156,102.8113 Q601.9156,99.6863 603.2281,98.03 Q604.5563,96.3738 607.0563,96.3738 Q607.7594,96.3738 608.4,96.53 Q609.0563,96.6863 609.6188,96.9831 L609.6188,99.7019 Q608.9938,99.1238 608.4,98.8581 Q607.8063,98.5769 607.1813,98.5769 Q605.8375,98.5769 605.15,99.655 Q604.4625,100.7175 604.4625,102.8113 Q604.4625,104.905 605.15,105.9831 Q605.8375,107.0456 607.1813,107.0456 Q607.8063,107.0456 608.4,106.78 Q608.9938,106.4988 609.6188,105.9206 L609.6188,108.6394 Z " fill="#000000"/><a href="file:////home/runner/work/BO4E-python/BO4E-python/docs/../.tox/docs/tmp/html/api/bo4e.com.html#bo4e.com.preisstaffel.Preisstaffel" target="_top" title="file:////home/runner/work/BO4E-python/BO4E-python/docs/../.tox/docs/tmp/html/api/bo4e.com.html#bo4e.com.preisstaffel.Preisstaffel" xlink:actuate="onRequest" xlink:href="file:////home/runner/work/BO4E-python/BO4E-python/docs/../.tox/docs/tmp/html/api/bo4e.com.html#bo4e.com.preisstaffel.Preisstaffel" xlink:show="new" xlink:title="file:////home/runner/work/BO4E-python/BO4E-python/docs/../.tox/docs/tmp/html/api/bo4e.com.html#bo4e.com.preisstaffel.Preisstaffel" xlink:type="simple"><text fill="#0000FF" font-family="sans-serif" font-size="14" lengthAdjust="spacing" text-decoration="underline" textLength="77.7178" x="636.0538" y="102.0251">Preisstaffel</text></a><text fill="#000000" font-family="sans-serif" font-size="10" lengthAdjust="spacing" textLength="108.5254" x="620.65" y="114.6091">bo4e.com.preisstaffel</text></g><!--class RegionaleGueltigkeit--><g class="entity" data-entity="RegionaleGueltigkeit" data-source-line="11" data-uid="ent0006" id="entity_RegionaleGueltigkeit"><rect fill="#F1F1F1" height="37.9375" rx="2.5" ry="2.5" style="stroke:#181818;stroke-width:0.5;" width="184.9053" x="569.46" y="157.03"/><ellipse cx="584.46" cy="175.9988" fill="#ADD1B2" rx="11" ry="11" style="stroke:#181818;stroke-width:1;"/><path d="M587.4288,181.6394 Q586.8506,181.9363 586.21,182.0769 Q585.5694,182.2331 584.8663,182.2331 Q582.3663,182.2331 581.0381,180.5925 Q579.7256,178.9363 579.7256,175.8113 Q579.7256,172.6863 581.0381,171.03 Q582.3663,169.3738 584.8663,169.3738 Q585.5694,169.3738 586.21,169.53 Q586.8663,169.6863 587.4288,169.9831 L587.4288,172.7019 Q586.8038,172.1238 586.21,171.8581 Q585.6163,171.5769 584.9913,171.5769 Q583.6475,171.5769 582.96,172.655 Q582.2725,173.7175 582.2725,175.8113 Q582.2725,177.905 582.96,178.9831 Q583.6475,180.0456 584.9913,180.0456 Q585.6163,180.0456 586.21,179.78 Q586.8038,179.4988 587.4288,178.9206 L587.4288,181.6394 Z " fill="#000000"/><a href="file:////home/runner/work/BO4E-python/BO4E-python/docs/../.tox/docs/tmp/html/api/bo4e.com.html#bo4e.com.regionalegueltigkeit.RegionaleGueltigkeit" target="_top" title="file:////home/runner/work/BO4E-python/BO4E-python/docs/../.tox/docs/tmp/html/api/bo4e.com.html#bo4e.com.regionalegueltigkeit.RegionaleGueltigkeit" xlink:actuate="onRequest" xlink:href="file:////home/runner/work/BO4E-python/BO4E-python/docs/../.tox/docs/tmp/html/api/bo4e.com.html#bo4e.com.regionalegueltigkeit.RegionaleGueltigkeit" xlink:show="new" xlink:title="file:////home/runner/work/BO4E-python/BO4E-python/docs/../.tox/docs/tmp/html/api/bo4e.com.html#bo4e.com.regionalegueltigkeit.RegionaleGueltigkeit" xlink:type="simple"><text fill="#0000FF" font-family="sans-serif" font-size="14" lengthAdjust="spacing" text-decoration="underline" textLength="146.2275" x="601.7989" y="175.0251">RegionaleGueltigkeit</text></a><text fill="#000000" font-family="sans-serif" font-size="10" lengthAdjust="spacing" textLength="152.9053" x="598.46" y="187.6091">bo4e.com.regionalegueltigkeit</text></g><!--class RegionalePreisstaffel--><g class="entity" data-entity="RegionalePreisstaffel" data-source-line="3" data-uid="ent0002" id="entity_RegionalePreisstaffel"><rect fill="#F1F1F1" height="94.8281" rx="2.5" ry="2.5" style="stroke:#181818;stroke-width:0.5;" width="342.4629" x="7" y="92.59"/><ellipse cx="96.2666" cy="111.5588" fill="#ADD1B2" rx="11" ry="11" style="stroke:#181818;stroke-width:1;"/><path d="M99.2354,117.1994 Q98.6572,117.4963 98.0166,117.6369 Q97.376,117.7931 96.6729,117.7931 Q94.1729,117.7931 92.8447,116.1525 Q91.5322,114.4963 91.5322,111.3713 Q91.5322,108.2463 92.8447,106.59 Q94.1729,104.9338 96.6729,104.9338 Q97.376,104.9338 98.0166,105.09 Q98.6729,105.2463 99.2354,105.5431 L99.2354,108.2619 Q98.6104,107.6838 98.0166,107.4181 Q97.4229,107.1369 96.7979,107.1369 Q95.4541,107.1369 94.7666,108.215 Q94.0791,109.2775 94.0791,111.3713 Q94.0791,113.465 94.7666,114.5431 Q95.4541,115.6056 96.7979,115.6056 Q97.4229,115.6056 98.0166,115.34 Q98.6104,115.0588 99.2354,114.4806 L99.2354,117.1994 Z " fill="#000000"/><a href="file:////home/runner/work/BO4E-python/BO4E-python/docs/../.tox/docs/tmp/html/api/bo4e.com.html#bo4e.com.regionalepreisstaffel.RegionalePreisstaffel" target="_top" title="file:////home/runner/work/BO4E-python/BO4E-python/docs/../.tox/docs/tmp/html/api/bo4e.com.html#bo4e.com.regionalepreisstaffel.RegionalePreisstaffel" xlink:actuate="onRequest" xlink:href="file:////home/runner/work/BO4E-python/BO4E-python/docs/../.tox/docs/tmp/html/api/bo4e.com.html#bo4e.com.regionalepreisstaffel.RegionalePreisstaffel" xlink:show="new" xlink:title="file:////home/runner/work/BO4E-python/BO4E-python/docs/../.tox/docs/tmp/html/api/bo4e.com.html#bo4e.com.regionalepreisstaffel.RegionalePreisstaffel" xlink:type="simple"><text fill="#0000FF" font-family="sans-serif" font-size="14" lengthAdjust="spacing" text-decoration="underline" textLength="147.3555" x="120.8037" y="110.5851">RegionalePreisstaffel</text></a><text fill="#000000" font-family="sans-serif" font-size="10" lengthAdjust="spacing" textLength="155.4297" x="116.7666" y="123.1691">bo4e.com.regionalepreisstaffel</text><line style="stroke:#181818;stroke-width:0.5;" x1="8" x2="348.4629" y1="130.5275" y2="130.5275"/><text fill="#000000" font-family="sans-serif" font-size="14" lengthAdjust="spacing" textLength="330.4629" x="13" y="147.5226">_version : str [0..1] = 202501.0.0+gc3c78750c</text><text fill="#000000" font-family="sans-serif" font-size="14" lengthAdjust="spacing" textLength="151.1768" x="13" y="163.8195">_id : str [0..1] = None</text><text fill="#000000" font-family="sans-serif" font-size="14" lengthAdjust="spacing" textLength="318.5752" x="13" y="180.1164">zusatzAttribute : ZusatzAttribut [0..*] = None</text></g><!--link RegionalePreisstaffel to Preisstaffel--><g class="link" data-entity-1="RegionalePreisstaffel" data-entity-2="Preisstaffel" data-source-line="14" data-uid="lnk7" id="link_RegionalePreisstaffel_Preisstaffel"><path codeLine="14" d="M349.73,126.9 C432.82,120.52 510.2029,114.5786 573.2129,109.7386" fill="none" id="RegionalePreisstaffel-to-Preisstaffel" style="stroke:#181818;stroke-width:1;"/><polygon fill="none" points="591.16,108.36,572.7533,103.7562,573.6724,115.721,591.16,108.36" style="stroke:#181818;stroke-width:1;"/></g><!--link RegionalePreisstaffel to RegionaleGueltigkeit--><g class="link" data-entity-1="RegionalePreisstaffel" data-entity-2="RegionaleGueltigkeit" data-source-line="15" data-uid="lnk8" id="link_RegionalePreisstaffel_RegionaleGueltigkeit"><path codeLine="15" d="M349.91,152.79 C359.91,153.54 369.82,154.28 379.46,155 C442.74,159.73 502.0532,164.1578 557.0432,168.2578" fill="none" id="RegionalePreisstaffel-to-RegionaleGueltigkeit" style="stroke:#181818;stroke-width:1;"/><polygon fill="#181818" points="569.01,169.15,563.324,164.715,557.0432,168.2578,562.7292,172.6928,569.01,169.15" style="stroke:#181818;stroke-width:1;"/><text fill="#000000" font-family="sans-serif" font-size="13" lengthAdjust="spacing" textLength="132.0947" x="380.46" y="151.0669">regionaleGueltigkeit</text><text fill="#000000" font-family="sans-serif" font-size="13" lengthAdjust="spacing" textLength="24.8066" x="536.6827" y="181.2741">0..1</text></g><!--SRC=[nLDHJy8m47vsl-82RnZQWI1aKH8qn3SrFegB6TrjQ-ZMfUr4KV-x6uQnwP0djK-zhz_TjVTz5HWOC18K3oC3FbV839U9PJ7XQGsj-JpW0XsQhqZ6I5MM9AZeIgeblRWPpBhfYubaKjlxacbA22L6Fdy69avfP691lPJJXHmWOJ8c1T8k8uLXtjWJc2haMXil252GkorwMq6X4NNTX-HCypKwFNloSzaMUBgv2BnQHuzFg7H-10vees1k4z9puHpwTdzezuXDxEEGdR3HU3IqMKxd_bVcjKpGEbfdsZFhgJ6ABpA3EUc-XcpudPB_Rbc95wDEFOQ_FtZOHgwxcSOsXFRCdevFBuj1_Ba7QjBNP3aiz3Tzgod_y9RIU666ml1mYTpix7or0w49F63cIiswboib2aFj-J_TxjkaLBmsw7qPUKe7MeM_Mxl4njSue9ekOqNSHuWnNkIVozAHNC6ULW57uUiF]--></g></svg>