<?xml version="1.0" encoding="us-ascii" standalone="no"?><svg xmlns="http://www.w3.org/2000/svg" xmlns:xlink="http://www.w3.org/1999/xlink" contentStyleType="text/css" height="242px" preserveAspectRatio="none" style="width:818px;height:242px;background:#FFFFFF;" version="1.1" viewBox="0 0 818 242" width="818px" zoomAndPan="magnify"><defs/><g><!--cluster bo4e--><g id="cluster_bo4e"><path d="M557.5,6 L598.5,6 A3.75,3.75 0 0 1 601,8.5 L608,28.2969 L808.5,28.2969 A2.5,2.5 0 0 1 811,30.7969 L811,232.5 A2.5,2.5 0 0 1 808.5,235 L557.5,235 A2.5,2.5 0 0 1 555,232.5 L555,8.5 A2.5,2.5 0 0 1 557.5,6 " fill="none" style="stroke:#000000;stroke-width:1.5;"/><line style="stroke:#000000;stroke-width:1.5;" x1="555" x2="608" y1="28.2969" y2="28.2969"/><text fill="#000000" font-family="sans-serif" font-size="14" font-weight="bold" lengthAdjust="spacing" textLength="40" x="559" y="20.9951">bo4e</text></g><!--cluster com--><g id="cluster_com"><path d="M581.5,49 L660.5,49 A3.75,3.75 0 0 1 663,51.5 L670,71.2969 L784.5,71.2969 A2.5,2.5 0 0 1 787,73.7969 L787,208.5 A2.5,2.5 0 0 1 784.5,211 L581.5,211 A2.5,2.5 0 0 1 579,208.5 L579,51.5 A2.5,2.5 0 0 1 581.5,49 " fill="#E0A86C" style="stroke:#000000;stroke-width:1.5;"/><line style="stroke:#000000;stroke-width:1.5;" x1="579" x2="670" y1="71.2969" y2="71.2969"/><a href="https://bo4e.github.io/BO4E-python/latest/api/bo4e.com.html" target="_top" title="https://bo4e.github.io/BO4E-python/latest/api/bo4e.com.html" xlink:actuate="onRequest" xlink:href="https://bo4e.github.io/BO4E-python/latest/api/bo4e.com.html" xlink:show="new" xlink:title="https://bo4e.github.io/BO4E-python/latest/api/bo4e.com.html" xlink:type="simple"><text fill="#0000FF" font-family="sans-serif" font-size="14" font-weight="bold" lengthAdjust="spacing" text-decoration="underline" textLength="78" x="583" y="63.9951">bo4e.com</text></a></g><!--class RegionaleGueltigkeit--><g id="elem_RegionaleGueltigkeit"><rect codeLine="10" fill="#F1F1F1" height="37.9375" id="RegionaleGueltigkeit" rx="2.5" ry="2.5" style="stroke:#181818;stroke-width:0.5;" width="176" x="595" y="84.03"/><ellipse cx="610" cy="102.9988" fill="#ADD1B2" rx="11" ry="11" style="stroke:#181818;stroke-width:1.0;"/><path d="M612.9688,108.6394 Q612.3906,108.9363 611.75,109.0769 Q611.1094,109.2331 610.4063,109.2331 Q607.9063,109.2331 606.5781,107.5925 Q605.2656,105.9363 605.2656,102.8113 Q605.2656,99.6863 606.5781,98.03 Q607.9063,96.3738 610.4063,96.3738 Q611.1094,96.3738 611.75,96.53 Q612.4063,96.6863 612.9688,96.9831 L612.9688,99.7019 Q612.3438,99.1238 611.75,98.8581 Q611.1563,98.5769 610.5313,98.5769 Q609.1875,98.5769 608.5,99.655 Q607.8125,100.7175 607.8125,102.8113 Q607.8125,104.905 608.5,105.9831 Q609.1875,107.0456 610.5313,107.0456 Q611.1563,107.0456 611.75,106.78 Q612.3438,106.4988 612.9688,105.9206 L612.9688,108.6394 Z " fill="#000000"/><a href="https://bo4e.github.io/BO4E-python/latest/api/bo4e.com.html#bo4e.com.regionalegueltigkeit.RegionaleGueltigkeit" target="_top" title="https://bo4e.github.io/BO4E-python/latest/api/bo4e.com.html#bo4e.com.regionalegueltigkeit.RegionaleGueltigkeit" xlink:actuate="onRequest" xlink:href="https://bo4e.github.io/BO4E-python/latest/api/bo4e.com.html#bo4e.com.regionalegueltigkeit.RegionaleGueltigkeit" xlink:show="new" xlink:title="https://bo4e.github.io/BO4E-python/latest/api/bo4e.com.html#bo4e.com.regionalegueltigkeit.RegionaleGueltigkeit" xlink:type="simple"><text fill="#0000FF" font-family="sans-serif" font-size="14" lengthAdjust="spacing" text-decoration="underline" textLength="143" x="624.5" y="102.0251">RegionaleGueltigkeit</text></a><text fill="#000000" font-family="sans-serif" font-size="10" lengthAdjust="spacing" textLength="144" x="624" y="114.6091">bo4e.com.regionalegueltigkeit</text></g><!--class Preisstaffel--><g id="elem_Preisstaffel"><rect codeLine="11" fill="#F1F1F1" height="37.9375" id="Preisstaffel" rx="2.5" ry="2.5" style="stroke:#181818;stroke-width:0.5;" width="137" x="614.5" y="157.03"/><ellipse cx="629.5" cy="175.9988" fill="#ADD1B2" rx="11" ry="11" style="stroke:#181818;stroke-width:1.0;"/><path d="M632.4688,181.6394 Q631.8906,181.9363 631.25,182.0769 Q630.6094,182.2331 629.9063,182.2331 Q627.4063,182.2331 626.0781,180.5925 Q624.7656,178.9363 624.7656,175.8113 Q624.7656,172.6863 626.0781,171.03 Q627.4063,169.3738 629.9063,169.3738 Q630.6094,169.3738 631.25,169.53 Q631.9063,169.6863 632.4688,169.9831 L632.4688,172.7019 Q631.8438,172.1238 631.25,171.8581 Q630.6563,171.5769 630.0313,171.5769 Q628.6875,171.5769 628,172.655 Q627.3125,173.7175 627.3125,175.8113 Q627.3125,177.905 628,178.9831 Q628.6875,180.0456 630.0313,180.0456 Q630.6563,180.0456 631.25,179.78 Q631.8438,179.4988 632.4688,178.9206 L632.4688,181.6394 Z " fill="#000000"/><a href="https://bo4e.github.io/BO4E-python/latest/api/bo4e.com.html#bo4e.com.preisstaffel.Preisstaffel" target="_top" title="https://bo4e.github.io/BO4E-python/latest/api/bo4e.com.html#bo4e.com.preisstaffel.Preisstaffel" xlink:actuate="onRequest" xlink:href="https://bo4e.github.io/BO4E-python/latest/api/bo4e.com.html#bo4e.com.preisstaffel.Preisstaffel" xlink:show="new" xlink:title="https://bo4e.github.io/BO4E-python/latest/api/bo4e.com.html#bo4e.com.preisstaffel.Preisstaffel" xlink:type="simple"><text fill="#0000FF" font-family="sans-serif" font-size="14" lengthAdjust="spacing" text-decoration="underline" textLength="75" x="658.5" y="175.0251">Preisstaffel</text></a><text fill="#000000" font-family="sans-serif" font-size="10" lengthAdjust="spacing" textLength="105" x="643.5" y="187.6091">bo4e.com.preisstaffel</text></g><!--class RegionalePreisstaffel--><g id="elem_RegionalePreisstaffel"><rect codeLine="3" fill="#F1F1F1" height="94.8281" id="RegionalePreisstaffel" rx="2.5" ry="2.5" style="stroke:#181818;stroke-width:0.5;" width="373" x="7" y="92.59"/><ellipse cx="114.75" cy="111.5588" fill="#ADD1B2" rx="11" ry="11" style="stroke:#181818;stroke-width:1.0;"/><path d="M117.7188,117.1994 Q117.1406,117.4963 116.5,117.6369 Q115.8594,117.7931 115.1563,117.7931 Q112.6563,117.7931 111.3281,116.1525 Q110.0156,114.4963 110.0156,111.3713 Q110.0156,108.2463 111.3281,106.59 Q112.6563,104.9338 115.1563,104.9338 Q115.8594,104.9338 116.5,105.09 Q117.1563,105.2463 117.7188,105.5431 L117.7188,108.2619 Q117.0938,107.6838 116.5,107.4181 Q115.9063,107.1369 115.2813,107.1369 Q113.9375,107.1369 113.25,108.215 Q112.5625,109.2775 112.5625,111.3713 Q112.5625,113.465 113.25,114.5431 Q113.9375,115.6056 115.2813,115.6056 Q115.9063,115.6056 116.5,115.34 Q117.0938,115.0588 117.7188,114.4806 L117.7188,117.1994 Z " fill="#000000"/><a href="https://bo4e.github.io/BO4E-python/latest/api/bo4e.com.html#bo4e.com.regionalepreisstaffel.RegionalePreisstaffel" target="_top" title="https://bo4e.github.io/BO4E-python/latest/api/bo4e.com.html#bo4e.com.regionalepreisstaffel.RegionalePreisstaffel" xlink:actuate="onRequest" xlink:href="https://bo4e.github.io/BO4E-python/latest/api/bo4e.com.html#bo4e.com.regionalepreisstaffel.RegionalePreisstaffel" xlink:show="new" xlink:title="https://bo4e.github.io/BO4E-python/latest/api/bo4e.com.html#bo4e.com.regionalepreisstaffel.RegionalePreisstaffel" xlink:type="simple"><text fill="#0000FF" font-family="sans-serif" font-size="14" lengthAdjust="spacing" text-decoration="underline" textLength="144" x="137.75" y="110.5851">RegionalePreisstaffel</text></a><text fill="#000000" font-family="sans-serif" font-size="10" lengthAdjust="spacing" textLength="149" x="135.25" y="123.1691">bo4e.com.regionalepreisstaffel</text><line style="stroke:#181818;stroke-width:0.5;" x1="8" x2="379" y1="130.5275" y2="130.5275"/><text fill="#000000" font-family="sans-serif" font-size="14" lengthAdjust="spacing" textLength="361" x="13" y="147.5226">_version : str [0..1] = 202401.4.1.dev50+g7314aa9f</text><text fill="#000000" font-family="sans-serif" font-size="14" lengthAdjust="spacing" textLength="147" x="13" y="163.8195">_id : str [0..1] = None</text><text fill="#000000" font-family="sans-serif" font-size="14" lengthAdjust="spacing" textLength="311" x="13" y="180.1164">zusatzAttribute : ZusatzAttribut [0..*] = None</text></g><!--link RegionalePreisstaffel to Preisstaffel--><g id="link_RegionalePreisstaffel_Preisstaffel"><path codeLine="14" d="M380.19,153.71 C462.26,159.77 535.6989,165.1935 596.1889,169.6635 " fill="none" id="RegionalePreisstaffel-to-Preisstaffel" style="stroke:#181818;stroke-width:1.0;"/><polygon fill="none" points="614.14,170.99,596.6311,163.6798,595.7468,175.6472,614.14,170.99" style="stroke:#181818;stroke-width:1.0;"/></g><!--link RegionalePreisstaffel to RegionaleGueltigkeit--><g id="link_RegionalePreisstaffel_RegionaleGueltigkeit"><path codeLine="15" d="M380.19,125.91 C453.92,120.31 523.2043,115.0473 582.8143,110.5273 " fill="none" id="RegionalePreisstaffel-to-RegionaleGueltigkeit" style="stroke:#181818;stroke-width:1.0;"/><polygon fill="#181818" points="594.78,109.62,588.4947,106.0851,582.8143,110.5273,589.0996,114.0622,594.78,109.62" style="stroke:#181818;stroke-width:1.0;"/><text fill="#000000" font-family="sans-serif" font-size="13" lengthAdjust="spacing" textLength="127" x="411" y="110.0669">regionaleGueltigkeit</text><text fill="#000000" font-family="sans-serif" font-size="13" lengthAdjust="spacing" textLength="24" x="563.1069" y="122.7731">0..1</text></g><!--SRC=[jL9DJuD053oNN_52RpLTeE8NqIRLDDxKUBGIiy03DYuVsNtKMFM_IslQWb8zgCStEpERzsOanWHKW199IX09XI698ZUCK7AjmPpDKg9IUvOL52woH51Q1KmKrlcrEnsMpvGMkIKveIQBb-A35HOPIocJ_SsaCAbTkSHIeT2QU1oZPBThzAQ1GYVg-_VvgHOBz1nx_Bsj2Lntcy2BqNkOezBr4tYWIS7CPipnuGn6ziYr7UOoXqKuFx3tagDzn-Ny9Aur8lfClofoD7gBIdDQJ8YK22h2cdJNGbRymOR_PXWvpr2NFCHVdXRMa- -lzbsFq9_Qa-F3Y-Mg_nHXKg4aaJoYe6s2briGki0VycjujkDhMFprGgqgjchoS_6-zAqfMUQyezl3uUjuarNhqrsAMZ80SraxSoliFBi7gkjgHYeYX0ope2w-eTFY2NPy5GkKaNu7]--></g></svg>