<svg xmlns="http://www.w3.org/2000/svg" xmlns:xlink="http://www.w3.org/1999/xlink" contentStyleType="text/css" data-diagram-type="CLASS" height="242px" preserveAspectRatio="none" style="width:800px;height:242px;background:#FFFFFF;" version="1.1" viewBox="0 0 800 242" width="800px" zoomAndPan="magnify"><defs/><g><!--cluster bo4e--><g class="cluster" data-entity="bo4e" data-source-line="10" data-uid="ent0005" id="cluster_bo4e"><path d="M530.96,6 L570.836,6 A3.75,3.75 0 0 1 573.336,8.5 L580.336,28.2969 L790.86,28.2969 A2.5,2.5 0 0 1 793.36,30.7969 L793.36,232.5 A2.5,2.5 0 0 1 790.86,235 L530.96,235 A2.5,2.5 0 0 1 528.46,232.5 L528.46,8.5 A2.5,2.5 0 0 1 530.96,6" fill="none" style="stroke:#000000;stroke-width:1.5;"/><line style="stroke:#000000;stroke-width:1.5;" x1="528.46" x2="580.336" y1="28.2969" y2="28.2969"/><text fill="#000000" font-family="sans-serif" font-size="14" font-weight="bold" lengthAdjust="spacing" textLength="38.876" x="532.46" y="20.9951">bo4e</text></g><!--cluster com--><g class="cluster" data-entity="com" data-source-line="9" data-uid="ent0003" id="cluster_com"><path d="M554.96,49 L632.6592,49 A3.75,3.75 0 0 1 635.1592,51.5 L642.1592,71.2969 L766.86,71.2969 A2.5,2.5 0 0 1 769.36,73.7969 L769.36,208.5 A2.5,2.5 0 0 1 766.86,211 L554.96,211 A2.5,2.5 0 0 1 552.46,208.5 L552.46,51.5 A2.5,2.5 0 0 1 554.96,49" fill="#E0A86C" style="stroke:#000000;stroke-width:1.5;"/><line style="stroke:#000000;stroke-width:1.5;" x1="552.46" x2="642.1592" y1="71.2969" y2="71.2969"/><a href="file:////home/runner/work/BO4E-python/BO4E-python/docs/../.tox/docs/tmp/html/api/bo4e.com.html" target="_top" title="file:////home/runner/work/BO4E-python/BO4E-python/docs/../.tox/docs/tmp/html/api/bo4e.com.html" xlink:actuate="onRequest" xlink:href="file:////home/runner/work/BO4E-python/BO4E-python/docs/../.tox/docs/tmp/html/api/bo4e.com.html" xlink:show="new" xlink:title="file:////home/runner/work/BO4E-python/BO4E-python/docs/../.tox/docs/tmp/html/api/bo4e.com.html" xlink:type="simple"><text fill="#0000FF" font-family="sans-serif" font-size="14" font-weight="bold" lengthAdjust="spacing" text-decoration="underline" textLength="76.6992" x="556.46" y="63.9951">bo4e.com</text></a></g><!--class RegionaleGueltigkeit--><g class="entity" data-entity="RegionaleGueltigkeit" data-source-line="10" data-uid="ent0004" id="entity_RegionaleGueltigkeit"><rect fill="#F1F1F1" height="37.9375" rx="2.5" ry="2.5" style="stroke:#181818;stroke-width:0.5;" width="184.9053" x="568.46" y="84.03"/><ellipse cx="583.46" cy="102.9988" fill="#ADD1B2" rx="11" ry="11" style="stroke:#181818;stroke-width:1;"/><path d="M586.4288,108.6394 Q585.8506,108.9363 585.21,109.0769 Q584.5694,109.2331 583.8663,109.2331 Q581.3663,109.2331 580.0381,107.5925 Q578.7256,105.9363 578.7256,102.8113 Q578.7256,99.6863 580.0381,98.03 Q581.3663,96.3738 583.8663,96.3738 Q584.5694,96.3738 585.21,96.53 Q585.8663,96.6863 586.4288,96.9831 L586.4288,99.7019 Q585.8038,99.1238 585.21,98.8581 Q584.6163,98.5769 583.9913,98.5769 Q582.6475,98.5769 581.96,99.655 Q581.2725,100.7175 581.2725,102.8113 Q581.2725,104.905 581.96,105.9831 Q582.6475,107.0456 583.9913,107.0456 Q584.6163,107.0456 585.21,106.78 Q585.8038,106.4988 586.4288,105.9206 L586.4288,108.6394 Z " fill="#000000"/><a href="file:////home/runner/work/BO4E-python/BO4E-python/docs/../.tox/docs/tmp/html/api/bo4e.com.html#bo4e.com.regionalegueltigkeit.RegionaleGueltigkeit" target="_top" title="file:////home/runner/work/BO4E-python/BO4E-python/docs/../.tox/docs/tmp/html/api/bo4e.com.html#bo4e.com.regionalegueltigkeit.RegionaleGueltigkeit" xlink:actuate="onRequest" xlink:href="file:////home/runner/work/BO4E-python/BO4E-python/docs/../.tox/docs/tmp/html/api/bo4e.com.html#bo4e.com.regionalegueltigkeit.RegionaleGueltigkeit" xlink:show="new" xlink:title="file:////home/runner/work/BO4E-python/BO4E-python/docs/../.tox/docs/tmp/html/api/bo4e.com.html#bo4e.com.regionalegueltigkeit.RegionaleGueltigkeit" xlink:type="simple"><text fill="#0000FF" font-family="sans-serif" font-size="14" lengthAdjust="spacing" text-decoration="underline" textLength="146.2275" x="600.7989" y="102.0251">RegionaleGueltigkeit</text></a><text fill="#000000" font-family="sans-serif" font-size="10" lengthAdjust="spacing" textLength="152.9053" x="597.46" y="114.6091">bo4e.com.regionalegueltigkeit</text></g><!--class Preisgarantie--><g class="entity" data-entity="Preisgarantie" data-source-line="11" data-uid="ent0006" id="entity_Preisgarantie"><rect fill="#F1F1F1" height="37.9375" rx="2.5" ry="2.5" style="stroke:#181818;stroke-width:0.5;" width="151.1992" x="585.31" y="157.03"/><ellipse cx="600.31" cy="175.9988" fill="#ADD1B2" rx="11" ry="11" style="stroke:#181818;stroke-width:1;"/><path d="M603.2788,181.6394 Q602.7006,181.9363 602.06,182.0769 Q601.4194,182.2331 600.7163,182.2331 Q598.2163,182.2331 596.8881,180.5925 Q595.5756,178.9363 595.5756,175.8113 Q595.5756,172.6863 596.8881,171.03 Q598.2163,169.3738 600.7163,169.3738 Q601.4194,169.3738 602.06,169.53 Q602.7163,169.6863 603.2788,169.9831 L603.2788,172.7019 Q602.6538,172.1238 602.06,171.8581 Q601.4663,171.5769 600.8413,171.5769 Q599.4975,171.5769 598.81,172.655 Q598.1225,173.7175 598.1225,175.8113 Q598.1225,177.905 598.81,178.9831 Q599.4975,180.0456 600.8413,180.0456 Q601.4663,180.0456 602.06,179.78 Q602.6538,179.4988 603.2788,178.9206 L603.2788,181.6394 Z " fill="#000000"/><a href="file:////home/runner/work/BO4E-python/BO4E-python/docs/../.tox/docs/tmp/html/api/bo4e.com.html#bo4e.com.preisgarantie.Preisgarantie" target="_top" title="file:////home/runner/work/BO4E-python/BO4E-python/docs/../.tox/docs/tmp/html/api/bo4e.com.html#bo4e.com.preisgarantie.Preisgarantie" xlink:actuate="onRequest" xlink:href="file:////home/runner/work/BO4E-python/BO4E-python/docs/../.tox/docs/tmp/html/api/bo4e.com.html#bo4e.com.preisgarantie.Preisgarantie" xlink:show="new" xlink:title="file:////home/runner/work/BO4E-python/BO4E-python/docs/../.tox/docs/tmp/html/api/bo4e.com.html#bo4e.com.preisgarantie.Preisgarantie" xlink:type="simple"><text fill="#0000FF" font-family="sans-serif" font-size="14" lengthAdjust="spacing" text-decoration="underline" textLength="92.6611" x="627.579" y="175.0251">Preisgarantie</text></a><text fill="#000000" font-family="sans-serif" font-size="10" lengthAdjust="spacing" textLength="119.1992" x="614.31" y="187.6091">bo4e.com.preisgarantie</text></g><!--class RegionalePreisgarantie--><g class="entity" data-entity="RegionalePreisgarantie" data-source-line="3" data-uid="ent0002" id="entity_RegionalePreisgarantie"><rect fill="#F1F1F1" height="94.8281" rx="2.5" ry="2.5" style="stroke:#181818;stroke-width:0.5;" width="341.458" x="7" y="92.59"/><ellipse cx="90.4272" cy="111.5588" fill="#ADD1B2" rx="11" ry="11" style="stroke:#181818;stroke-width:1;"/><path d="M93.396,117.1994 Q92.8179,117.4963 92.1772,117.6369 Q91.5366,117.7931 90.8335,117.7931 Q88.3335,117.7931 87.0054,116.1525 Q85.6929,114.4963 85.6929,111.3713 Q85.6929,108.2463 87.0054,106.59 Q88.3335,104.9338 90.8335,104.9338 Q91.5366,104.9338 92.1772,105.09 Q92.8335,105.2463 93.396,105.5431 L93.396,108.2619 Q92.771,107.6838 92.1772,107.4181 Q91.5835,107.1369 90.9585,107.1369 Q89.6147,107.1369 88.9272,108.215 Q88.2397,109.2775 88.2397,111.3713 Q88.2397,113.465 88.9272,114.5431 Q89.6147,115.6056 90.9585,115.6056 Q91.5835,115.6056 92.1772,115.34 Q92.771,115.0588 93.396,114.4806 L93.396,117.1994 Z " fill="#000000"/><a href="file:////home/runner/work/BO4E-python/BO4E-python/docs/../.tox/docs/tmp/html/api/bo4e.com.html#bo4e.com.regionalepreisgarantie.RegionalePreisgarantie" target="_top" title="file:////home/runner/work/BO4E-python/BO4E-python/docs/../.tox/docs/tmp/html/api/bo4e.com.html#bo4e.com.regionalepreisgarantie.RegionalePreisgarantie" xlink:actuate="onRequest" xlink:href="file:////home/runner/work/BO4E-python/BO4E-python/docs/../.tox/docs/tmp/html/api/bo4e.com.html#bo4e.com.regionalepreisgarantie.RegionalePreisgarantie" xlink:show="new" xlink:title="file:////home/runner/work/BO4E-python/BO4E-python/docs/../.tox/docs/tmp/html/api/bo4e.com.html#bo4e.com.regionalepreisgarantie.RegionalePreisgarantie" xlink:type="simple"><text fill="#0000FF" font-family="sans-serif" font-size="14" lengthAdjust="spacing" text-decoration="underline" textLength="162.2988" x="112.8296" y="110.5851">RegionalePreisgarantie</text></a><text fill="#000000" font-family="sans-serif" font-size="10" lengthAdjust="spacing" textLength="166.1035" x="110.9272" y="123.1691">bo4e.com.regionalepreisgarantie</text><line style="stroke:#181818;stroke-width:0.5;" x1="8" x2="347.458" y1="130.5275" y2="130.5275"/><text fill="#000000" font-family="sans-serif" font-size="14" lengthAdjust="spacing" textLength="329.458" x="13" y="147.5226">_version : str [0..1] = 202501.0.0+g5aa0922f3</text><text fill="#000000" font-family="sans-serif" font-size="14" lengthAdjust="spacing" textLength="151.1768" x="13" y="163.8195">_id : str [0..1] = None</text><text fill="#000000" font-family="sans-serif" font-size="14" lengthAdjust="spacing" textLength="318.5752" x="13" y="180.1164">zusatzAttribute : ZusatzAttribut [0..*] = None</text></g><!--link RegionalePreisgarantie to Preisgarantie--><g class="link" data-entity-1="RegionalePreisgarantie" data-entity-2="Preisgarantie" data-source-line="14" data-uid="lnk7" id="link_RegionalePreisgarantie_Preisgarantie"><path codeLine="14" d="M348.71,152.72 C429.45,158.76 503.8701,164.328 566.8701,169.038" fill="none" id="RegionalePreisgarantie-to-Preisgarantie" style="stroke:#181818;stroke-width:1;"/><polygon fill="none" points="584.82,170.38,567.3174,163.0547,566.4228,175.0213,584.82,170.38" style="stroke:#181818;stroke-width:1;"/></g><!--link RegionalePreisgarantie to RegionaleGueltigkeit--><g class="link" data-entity-1="RegionalePreisgarantie" data-entity-2="RegionaleGueltigkeit" data-source-line="15" data-uid="lnk8" id="link_RegionalePreisgarantie_RegionaleGueltigkeit"><path codeLine="15" d="M348.71,126.93 C422.55,121.25 494.1554,115.7514 556.0954,110.9814" fill="none" id="RegionalePreisgarantie-to-RegionaleGueltigkeit" style="stroke:#181818;stroke-width:1;"/><polygon fill="#181818" points="568.06,110.06,561.7706,106.5325,556.0954,110.9814,562.3848,114.5089,568.06,110.06" style="stroke:#181818;stroke-width:1;"/><text fill="#000000" font-family="sans-serif" font-size="13" lengthAdjust="spacing" textLength="132.0947" x="379.46" y="111.0669">regionaleGueltigkeit</text><text fill="#000000" font-family="sans-serif" font-size="13" lengthAdjust="spacing" textLength="24.8066" x="535.7367" y="123.2925">0..1</text></g><!--SRC=[nPFVJuCm4CUVxLznOMypQnbkHeakcMRnJOsFJc8wEA0PKD8MfrF_Ts5cFr38V37hK-_RxzsbrqyJ30qO2Kf4iO50AFIDa1aXViAr1ciw3KM2BYjNB5DagiWoL6mXrPnTtGqclVpDn3AhxGFfQqOfeqQ-VWScpLbiqeJnNB2P723rPKehfRE954PbOvvWhb3eY2kU6O7qOItVxyhGB7lUKtQXnHBTlZtQKza2hblAm3ivUdv1fSipS44R1LERqhu7b-3Opj3kKvlQnz6GS_lSSSAJqYw2dyvRcI4vMXQQc-NO62LcXS7Iz5XJLlxknlz9ICPJr3dtyV-d3-l8yrRZM8VGcTZZizFhQX270o4gC34YcgCmMmnkjY8qYNiGsAbP1s2dn07kN6U-3kCV2FyDTYsfeghj8_Lw7wFDkzSxj-QKILsmAiwjRMhZ2xcWcWPCOX4Wf9ZEoaz6T2mNqDOh59W4-Wi0]--></g></svg>