<svg xmlns="http://www.w3.org/2000/svg" xmlns:xlink="http://www.w3.org/1999/xlink" contentStyleType="text/css" data-diagram-type="CLASS" height="242px" preserveAspectRatio="none" style="width:830px;height:242px;background:#FFFFFF;" version="1.1" viewBox="0 0 830 242" width="830px" zoomAndPan="magnify"><defs/><g><!--cluster bo4e--><g class="cluster" data-entity="bo4e" data-source-line="10" data-uid="ent0005" id="cluster_bo4e"><path d="M561.5,6 L601.376,6 A3.75,3.75 0 0 1 603.876,8.5 L610.876,28.2969 L821.41,28.2969 A2.5,2.5 0 0 1 823.91,30.7969 L823.91,232.5 A2.5,2.5 0 0 1 821.41,235 L561.5,235 A2.5,2.5 0 0 1 559,232.5 L559,8.5 A2.5,2.5 0 0 1 561.5,6" fill="none" style="stroke:#000000;stroke-width:1.5;"/><line style="stroke:#000000;stroke-width:1.5;" x1="559" x2="610.876" y1="28.2969" y2="28.2969"/><text fill="#000000" font-family="sans-serif" font-size="14" font-weight="bold" lengthAdjust="spacing" textLength="38.876" x="563" y="20.9951">bo4e</text></g><!--cluster com--><g class="cluster" data-entity="com" data-source-line="9" data-uid="ent0003" id="cluster_com"><path d="M585.5,49 L663.1992,49 A3.75,3.75 0 0 1 665.6992,51.5 L672.6992,71.2969 L797.41,71.2969 A2.5,2.5 0 0 1 799.91,73.7969 L799.91,208.5 A2.5,2.5 0 0 1 797.41,211 L585.5,211 A2.5,2.5 0 0 1 583,208.5 L583,51.5 A2.5,2.5 0 0 1 585.5,49" fill="#E0A86C" style="stroke:#000000;stroke-width:1.5;"/><line style="stroke:#000000;stroke-width:1.5;" x1="583" x2="672.6992" y1="71.2969" y2="71.2969"/><a href="https://bo4e.github.io/BO4E-python/latest/api/bo4e.com.html" target="_top" title="https://bo4e.github.io/BO4E-python/latest/api/bo4e.com.html" xlink:actuate="onRequest" xlink:href="https://bo4e.github.io/BO4E-python/latest/api/bo4e.com.html" xlink:show="new" xlink:title="https://bo4e.github.io/BO4E-python/latest/api/bo4e.com.html" xlink:type="simple"><text fill="#0000FF" font-family="sans-serif" font-size="14" font-weight="bold" lengthAdjust="spacing" text-decoration="underline" textLength="76.6992" x="587" y="63.9951">bo4e.com</text></a></g><!--class Preisgarantie--><g class="entity" data-entity="Preisgarantie" data-source-line="10" data-uid="ent0004" id="entity_Preisgarantie"><rect fill="#F1F1F1" height="37.9375" rx="2.5" ry="2.5" style="stroke:#181818;stroke-width:0.5;" width="151.1992" x="615.85" y="84.03"/><ellipse cx="630.85" cy="102.9988" fill="#ADD1B2" rx="11" ry="11" style="stroke:#181818;stroke-width:1;"/><path d="M633.8188,108.6394 Q633.2406,108.9363 632.6,109.0769 Q631.9594,109.2331 631.2563,109.2331 Q628.7563,109.2331 627.4281,107.5925 Q626.1156,105.9363 626.1156,102.8113 Q626.1156,99.6863 627.4281,98.03 Q628.7563,96.3738 631.2563,96.3738 Q631.9594,96.3738 632.6,96.53 Q633.2563,96.6863 633.8188,96.9831 L633.8188,99.7019 Q633.1938,99.1238 632.6,98.8581 Q632.0063,98.5769 631.3813,98.5769 Q630.0375,98.5769 629.35,99.655 Q628.6625,100.7175 628.6625,102.8113 Q628.6625,104.905 629.35,105.9831 Q630.0375,107.0456 631.3813,107.0456 Q632.0063,107.0456 632.6,106.78 Q633.1938,106.4988 633.8188,105.9206 L633.8188,108.6394 Z " fill="#000000"/><a href="https://bo4e.github.io/BO4E-python/latest/api/bo4e.com.html#bo4e.com.preisgarantie.Preisgarantie" target="_top" title="https://bo4e.github.io/BO4E-python/latest/api/bo4e.com.html#bo4e.com.preisgarantie.Preisgarantie" xlink:actuate="onRequest" xlink:href="https://bo4e.github.io/BO4E-python/latest/api/bo4e.com.html#bo4e.com.preisgarantie.Preisgarantie" xlink:show="new" xlink:title="https://bo4e.github.io/BO4E-python/latest/api/bo4e.com.html#bo4e.com.preisgarantie.Preisgarantie" xlink:type="simple"><text fill="#0000FF" font-family="sans-serif" font-size="14" lengthAdjust="spacing" text-decoration="underline" textLength="92.6611" x="658.119" y="102.0251">Preisgarantie</text></a><text fill="#000000" font-family="sans-serif" font-size="10" lengthAdjust="spacing" textLength="119.1992" x="644.85" y="114.6091">bo4e.com.preisgarantie</text></g><!--class RegionaleGueltigkeit--><g class="entity" data-entity="RegionaleGueltigkeit" data-source-line="11" data-uid="ent0006" id="entity_RegionaleGueltigkeit"><rect fill="#F1F1F1" height="37.9375" rx="2.5" ry="2.5" style="stroke:#181818;stroke-width:0.5;" width="184.9053" x="599" y="157.03"/><ellipse cx="614" cy="175.9988" fill="#ADD1B2" rx="11" ry="11" style="stroke:#181818;stroke-width:1;"/><path d="M616.9688,181.6394 Q616.3906,181.9363 615.75,182.0769 Q615.1094,182.2331 614.4063,182.2331 Q611.9063,182.2331 610.5781,180.5925 Q609.2656,178.9363 609.2656,175.8113 Q609.2656,172.6863 610.5781,171.03 Q611.9063,169.3738 614.4063,169.3738 Q615.1094,169.3738 615.75,169.53 Q616.4063,169.6863 616.9688,169.9831 L616.9688,172.7019 Q616.3438,172.1238 615.75,171.8581 Q615.1563,171.5769 614.5313,171.5769 Q613.1875,171.5769 612.5,172.655 Q611.8125,173.7175 611.8125,175.8113 Q611.8125,177.905 612.5,178.9831 Q613.1875,180.0456 614.5313,180.0456 Q615.1563,180.0456 615.75,179.78 Q616.3438,179.4988 616.9688,178.9206 L616.9688,181.6394 Z " fill="#000000"/><a href="https://bo4e.github.io/BO4E-python/latest/api/bo4e.com.html#bo4e.com.regionalegueltigkeit.RegionaleGueltigkeit" target="_top" title="https://bo4e.github.io/BO4E-python/latest/api/bo4e.com.html#bo4e.com.regionalegueltigkeit.RegionaleGueltigkeit" xlink:actuate="onRequest" xlink:href="https://bo4e.github.io/BO4E-python/latest/api/bo4e.com.html#bo4e.com.regionalegueltigkeit.RegionaleGueltigkeit" xlink:show="new" xlink:title="https://bo4e.github.io/BO4E-python/latest/api/bo4e.com.html#bo4e.com.regionalegueltigkeit.RegionaleGueltigkeit" xlink:type="simple"><text fill="#0000FF" font-family="sans-serif" font-size="14" lengthAdjust="spacing" text-decoration="underline" textLength="146.2275" x="631.3389" y="175.0251">RegionaleGueltigkeit</text></a><text fill="#000000" font-family="sans-serif" font-size="10" lengthAdjust="spacing" textLength="152.9053" x="628" y="187.6091">bo4e.com.regionalegueltigkeit</text></g><!--class RegionalePreisgarantie--><g class="entity" data-entity="RegionalePreisgarantie" data-source-line="3" data-uid="ent0002" id="entity_RegionalePreisgarantie"><rect fill="#F1F1F1" height="94.8281" rx="2.5" ry="2.5" style="stroke:#181818;stroke-width:0.5;" width="372.001" x="7" y="92.59"/><ellipse cx="105.6987" cy="111.5588" fill="#ADD1B2" rx="11" ry="11" style="stroke:#181818;stroke-width:1;"/><path d="M108.6675,117.1994 Q108.0894,117.4963 107.4487,117.6369 Q106.8081,117.7931 106.105,117.7931 Q103.605,117.7931 102.2769,116.1525 Q100.9644,114.4963 100.9644,111.3713 Q100.9644,108.2463 102.2769,106.59 Q103.605,104.9338 106.105,104.9338 Q106.8081,104.9338 107.4487,105.09 Q108.105,105.2463 108.6675,105.5431 L108.6675,108.2619 Q108.0425,107.6838 107.4487,107.4181 Q106.855,107.1369 106.23,107.1369 Q104.8862,107.1369 104.1987,108.215 Q103.5112,109.2775 103.5112,111.3713 Q103.5112,113.465 104.1987,114.5431 Q104.8862,115.6056 106.23,115.6056 Q106.855,115.6056 107.4487,115.34 Q108.0425,115.0588 108.6675,114.4806 L108.6675,117.1994 Z " fill="#000000"/><a href="https://bo4e.github.io/BO4E-python/latest/api/bo4e.com.html#bo4e.com.regionalepreisgarantie.RegionalePreisgarantie" target="_top" title="https://bo4e.github.io/BO4E-python/latest/api/bo4e.com.html#bo4e.com.regionalepreisgarantie.RegionalePreisgarantie" xlink:actuate="onRequest" xlink:href="https://bo4e.github.io/BO4E-python/latest/api/bo4e.com.html#bo4e.com.regionalepreisgarantie.RegionalePreisgarantie" xlink:show="new" xlink:title="https://bo4e.github.io/BO4E-python/latest/api/bo4e.com.html#bo4e.com.regionalepreisgarantie.RegionalePreisgarantie" xlink:type="simple"><text fill="#0000FF" font-family="sans-serif" font-size="14" lengthAdjust="spacing" text-decoration="underline" textLength="162.2988" x="128.1011" y="110.5851">RegionalePreisgarantie</text></a><text fill="#000000" font-family="sans-serif" font-size="10" lengthAdjust="spacing" textLength="166.1035" x="126.1987" y="123.1691">bo4e.com.regionalepreisgarantie</text><line style="stroke:#181818;stroke-width:0.5;" x1="8" x2="378.001" y1="130.5275" y2="130.5275"/><text fill="#000000" font-family="sans-serif" font-size="14" lengthAdjust="spacing" textLength="360.001" x="13" y="147.5226">_version : str [0..1] = 202501.0.1.dev3+g694da5f6</text><text fill="#000000" font-family="sans-serif" font-size="14" lengthAdjust="spacing" textLength="151.1768" x="13" y="163.8195">_id : str [0..1] = None</text><text fill="#000000" font-family="sans-serif" font-size="14" lengthAdjust="spacing" textLength="318.5752" x="13" y="180.1164">zusatzAttribute : ZusatzAttribut [0..*] = None</text></g><!--link RegionalePreisgarantie to Preisgarantie--><g class="link" data-entity-1="RegionalePreisgarantie" data-entity-2="Preisgarantie" data-source-line="14" data-uid="lnk7" id="link_RegionalePreisgarantie_Preisgarantie"><path codeLine="14" d="M379.21,126.2 C461.19,120.09 535.0298,114.5877 597.5598,109.9277" fill="none" id="RegionalePreisgarantie-to-Preisgarantie" style="stroke:#181818;stroke-width:1;"/><polygon fill="none" points="615.51,108.59,597.1139,103.9443,598.0057,115.9111,615.51,108.59" style="stroke:#181818;stroke-width:1;"/></g><!--link RegionalePreisgarantie to RegionaleGueltigkeit--><g class="link" data-entity-1="RegionalePreisgarantie" data-entity-2="RegionaleGueltigkeit" data-source-line="15" data-uid="lnk8" id="link_RegionalePreisgarantie_RegionaleGueltigkeit"><path codeLine="15" d="M379.21,153.43 C454.16,158.87 525.3513,164.0338 586.8413,168.4838" fill="none" id="RegionalePreisgarantie-to-RegionaleGueltigkeit" style="stroke:#181818;stroke-width:1;"/><polygon fill="#181818" points="598.81,169.35,593.1144,164.9273,586.8413,168.4838,592.5369,172.9065,598.81,169.35" style="stroke:#181818;stroke-width:1;"/><text fill="#000000" font-family="sans-serif" font-size="13" lengthAdjust="spacing" textLength="132.0947" x="410" y="152.0669">regionaleGueltigkeit</text><text fill="#000000" font-family="sans-serif" font-size="13" lengthAdjust="spacing" textLength="24.8066" x="566.1777" y="181.4929">0..1</text></g><!--SRC=[hLBHJeD047mkNx6XRpKzeBQD4crIJUER6X-jn1omXOl0aRkbngh_BgqfBGgfYNtSOMQutPa45mGaGOae9WY5me24p0mZIBZMOCxdCL6kNSlovH1P92WkV2QaTNKtdFNpDufbPYMSK9F5S_7D2cJAOagJRZKfZ4fNdc2kKEY8AvwHGFQmXU_tOMY6FUyfkz1YXQvZJmuucy1rYmsy6vtd9IfTVWCND2cOsumv7bp2m1wCR8VPp64XBazFel7vCEIZnRYKYF0d-rPcQ7HMXUQqcX8fuHU49UcnXcpulOh_QHWPJr7dFC1_dXUsa-TjzjsEq9tPqxFnzNhJuyPOJwz-rZzazJkYckZOhwsg4HMOa8XUKD2kSZSx49h00tNRywoNRSzY7NPRn_lzZqcLMFsKhPfIr0DpNJzp9srSo0NLz1uZ5Y52YgbVzj_GiNo5jdyj12QX_W80]--></g></svg>