<?xml version="1.0" encoding="us-ascii" standalone="no"?><svg xmlns="http://www.w3.org/2000/svg" xmlns:xlink="http://www.w3.org/1999/xlink" contentStyleType="text/css" height="242px" preserveAspectRatio="none" style="width:813px;height:242px;background:#FFFFFF;" version="1.1" viewBox="0 0 813 242" width="813px" zoomAndPan="magnify"><defs/><g><!--cluster bo4e--><g id="cluster_bo4e"><path d="M552.5,6 L593.5,6 A3.75,3.75 0 0 1 596,8.5 L603,28.2969 L803.5,28.2969 A2.5,2.5 0 0 1 806,30.7969 L806,232.5 A2.5,2.5 0 0 1 803.5,235 L552.5,235 A2.5,2.5 0 0 1 550,232.5 L550,8.5 A2.5,2.5 0 0 1 552.5,6 " fill="none" style="stroke:#000000;stroke-width:1.5;"/><line style="stroke:#000000;stroke-width:1.5;" x1="550" x2="603" y1="28.2969" y2="28.2969"/><text fill="#000000" font-family="sans-serif" font-size="14" font-weight="bold" lengthAdjust="spacing" textLength="40" x="554" y="20.9951">bo4e</text></g><!--cluster com--><g id="cluster_com"><path d="M576.5,49 L655.5,49 A3.75,3.75 0 0 1 658,51.5 L665,71.2969 L779.5,71.2969 A2.5,2.5 0 0 1 782,73.7969 L782,208.5 A2.5,2.5 0 0 1 779.5,211 L576.5,211 A2.5,2.5 0 0 1 574,208.5 L574,51.5 A2.5,2.5 0 0 1 576.5,49 " fill="#E0A86C" style="stroke:#000000;stroke-width:1.5;"/><line style="stroke:#000000;stroke-width:1.5;" x1="574" x2="665" y1="71.2969" y2="71.2969"/><a href="https://bo4e.github.io/BO4E-python/latest/api/bo4e.com.html" target="_top" title="https://bo4e.github.io/BO4E-python/latest/api/bo4e.com.html" xlink:actuate="onRequest" xlink:href="https://bo4e.github.io/BO4E-python/latest/api/bo4e.com.html" xlink:show="new" xlink:title="https://bo4e.github.io/BO4E-python/latest/api/bo4e.com.html" xlink:type="simple"><text fill="#0000FF" font-family="sans-serif" font-size="14" font-weight="bold" lengthAdjust="spacing" text-decoration="underline" textLength="78" x="578" y="63.9951">bo4e.com</text></a></g><!--class Preisstaffel--><g id="elem_Preisstaffel"><rect codeLine="10" fill="#F1F1F1" height="37.9375" id="Preisstaffel" rx="2.5" ry="2.5" style="stroke:#181818;stroke-width:0.5;" width="137" x="609.5" y="84.03"/><ellipse cx="624.5" cy="102.9988" fill="#ADD1B2" rx="11" ry="11" style="stroke:#181818;stroke-width:1.0;"/><path d="M627.4688,108.6394 Q626.8906,108.9363 626.25,109.0769 Q625.6094,109.2331 624.9063,109.2331 Q622.4063,109.2331 621.0781,107.5925 Q619.7656,105.9363 619.7656,102.8113 Q619.7656,99.6863 621.0781,98.03 Q622.4063,96.3738 624.9063,96.3738 Q625.6094,96.3738 626.25,96.53 Q626.9063,96.6863 627.4688,96.9831 L627.4688,99.7019 Q626.8438,99.1238 626.25,98.8581 Q625.6563,98.5769 625.0313,98.5769 Q623.6875,98.5769 623,99.655 Q622.3125,100.7175 622.3125,102.8113 Q622.3125,104.905 623,105.9831 Q623.6875,107.0456 625.0313,107.0456 Q625.6563,107.0456 626.25,106.78 Q626.8438,106.4988 627.4688,105.9206 L627.4688,108.6394 Z " fill="#000000"/><a href="https://bo4e.github.io/BO4E-python/latest/api/bo4e.com.html#bo4e.com.preisstaffel.Preisstaffel" target="_top" title="https://bo4e.github.io/BO4E-python/latest/api/bo4e.com.html#bo4e.com.preisstaffel.Preisstaffel" xlink:actuate="onRequest" xlink:href="https://bo4e.github.io/BO4E-python/latest/api/bo4e.com.html#bo4e.com.preisstaffel.Preisstaffel" xlink:show="new" xlink:title="https://bo4e.github.io/BO4E-python/latest/api/bo4e.com.html#bo4e.com.preisstaffel.Preisstaffel" xlink:type="simple"><text fill="#0000FF" font-family="sans-serif" font-size="14" lengthAdjust="spacing" text-decoration="underline" textLength="75" x="653.5" y="102.0251">Preisstaffel</text></a><text fill="#000000" font-family="sans-serif" font-size="10" lengthAdjust="spacing" textLength="105" x="638.5" y="114.6091">bo4e.com.preisstaffel</text></g><!--class RegionaleGueltigkeit--><g id="elem_RegionaleGueltigkeit"><rect codeLine="11" fill="#F1F1F1" height="37.9375" id="RegionaleGueltigkeit" rx="2.5" ry="2.5" style="stroke:#181818;stroke-width:0.5;" width="176" x="590" y="157.03"/><ellipse cx="605" cy="175.9988" fill="#ADD1B2" rx="11" ry="11" style="stroke:#181818;stroke-width:1.0;"/><path d="M607.9688,181.6394 Q607.3906,181.9363 606.75,182.0769 Q606.1094,182.2331 605.4063,182.2331 Q602.9063,182.2331 601.5781,180.5925 Q600.2656,178.9363 600.2656,175.8113 Q600.2656,172.6863 601.5781,171.03 Q602.9063,169.3738 605.4063,169.3738 Q606.1094,169.3738 606.75,169.53 Q607.4063,169.6863 607.9688,169.9831 L607.9688,172.7019 Q607.3438,172.1238 606.75,171.8581 Q606.1563,171.5769 605.5313,171.5769 Q604.1875,171.5769 603.5,172.655 Q602.8125,173.7175 602.8125,175.8113 Q602.8125,177.905 603.5,178.9831 Q604.1875,180.0456 605.5313,180.0456 Q606.1563,180.0456 606.75,179.78 Q607.3438,179.4988 607.9688,178.9206 L607.9688,181.6394 Z " fill="#000000"/><a href="https://bo4e.github.io/BO4E-python/latest/api/bo4e.com.html#bo4e.com.regionalegueltigkeit.RegionaleGueltigkeit" target="_top" title="https://bo4e.github.io/BO4E-python/latest/api/bo4e.com.html#bo4e.com.regionalegueltigkeit.RegionaleGueltigkeit" xlink:actuate="onRequest" xlink:href="https://bo4e.github.io/BO4E-python/latest/api/bo4e.com.html#bo4e.com.regionalegueltigkeit.RegionaleGueltigkeit" xlink:show="new" xlink:title="https://bo4e.github.io/BO4E-python/latest/api/bo4e.com.html#bo4e.com.regionalegueltigkeit.RegionaleGueltigkeit" xlink:type="simple"><text fill="#0000FF" font-family="sans-serif" font-size="14" lengthAdjust="spacing" text-decoration="underline" textLength="143" x="619.5" y="175.0251">RegionaleGueltigkeit</text></a><text fill="#000000" font-family="sans-serif" font-size="10" lengthAdjust="spacing" textLength="144" x="619" y="187.6091">bo4e.com.regionalegueltigkeit</text></g><!--class RegionalePreisstaffel--><g id="elem_RegionalePreisstaffel"><rect codeLine="3" fill="#F1F1F1" height="94.8281" id="RegionalePreisstaffel" rx="2.5" ry="2.5" style="stroke:#181818;stroke-width:0.5;" width="368" x="7" y="92.59"/><ellipse cx="112.25" cy="111.5588" fill="#ADD1B2" rx="11" ry="11" style="stroke:#181818;stroke-width:1.0;"/><path d="M115.2188,117.1994 Q114.6406,117.4963 114,117.6369 Q113.3594,117.7931 112.6563,117.7931 Q110.1563,117.7931 108.8281,116.1525 Q107.5156,114.4963 107.5156,111.3713 Q107.5156,108.2463 108.8281,106.59 Q110.1563,104.9338 112.6563,104.9338 Q113.3594,104.9338 114,105.09 Q114.6563,105.2463 115.2188,105.5431 L115.2188,108.2619 Q114.5938,107.6838 114,107.4181 Q113.4063,107.1369 112.7813,107.1369 Q111.4375,107.1369 110.75,108.215 Q110.0625,109.2775 110.0625,111.3713 Q110.0625,113.465 110.75,114.5431 Q111.4375,115.6056 112.7813,115.6056 Q113.4063,115.6056 114,115.34 Q114.5938,115.0588 115.2188,114.4806 L115.2188,117.1994 Z " fill="#000000"/><a href="https://bo4e.github.io/BO4E-python/latest/api/bo4e.com.html#bo4e.com.regionalepreisstaffel.RegionalePreisstaffel" target="_top" title="https://bo4e.github.io/BO4E-python/latest/api/bo4e.com.html#bo4e.com.regionalepreisstaffel.RegionalePreisstaffel" xlink:actuate="onRequest" xlink:href="https://bo4e.github.io/BO4E-python/latest/api/bo4e.com.html#bo4e.com.regionalepreisstaffel.RegionalePreisstaffel" xlink:show="new" xlink:title="https://bo4e.github.io/BO4E-python/latest/api/bo4e.com.html#bo4e.com.regionalepreisstaffel.RegionalePreisstaffel" xlink:type="simple"><text fill="#0000FF" font-family="sans-serif" font-size="14" lengthAdjust="spacing" text-decoration="underline" textLength="144" x="135.25" y="110.5851">RegionalePreisstaffel</text></a><text fill="#000000" font-family="sans-serif" font-size="10" lengthAdjust="spacing" textLength="149" x="132.75" y="123.1691">bo4e.com.regionalepreisstaffel</text><line style="stroke:#181818;stroke-width:0.5;" x1="8" x2="374" y1="130.5275" y2="130.5275"/><text fill="#000000" font-family="sans-serif" font-size="14" lengthAdjust="spacing" textLength="356" x="13" y="147.5226">_version : str [0..1] = 202401.6.1.dev4+g3a25ac61</text><text fill="#000000" font-family="sans-serif" font-size="14" lengthAdjust="spacing" textLength="147" x="13" y="163.8195">_id : str [0..1] = None</text><text fill="#000000" font-family="sans-serif" font-size="14" lengthAdjust="spacing" textLength="311" x="13" y="180.1164">zusatzAttribute : ZusatzAttribut [0..*] = None</text></g><!--link RegionalePreisstaffel to Preisstaffel--><g id="link_RegionalePreisstaffel_Preisstaffel"><path codeLine="14" d="M375.36,126.01 C457.17,119.77 530.6122,114.1703 591.1222,109.5503 " fill="none" id="RegionalePreisstaffel-to-Preisstaffel" style="stroke:#181818;stroke-width:1.0;"/><polygon fill="none" points="609.07,108.18,590.6655,103.5677,591.579,115.5329,609.07,108.18" style="stroke:#181818;stroke-width:1.0;"/></g><!--link RegionalePreisstaffel to RegionaleGueltigkeit--><g id="link_RegionalePreisstaffel_RegionaleGueltigkeit"><path codeLine="15" d="M375.36,153.61 C448.86,159.07 518.113,164.201 577.743,168.631 " fill="none" id="RegionalePreisstaffel-to-RegionaleGueltigkeit" style="stroke:#181818;stroke-width:1.0;"/><polygon fill="#181818" points="589.71,169.52,584.0228,165.0865,577.743,168.631,583.4301,173.0645,589.71,169.52" style="stroke:#181818;stroke-width:1.0;"/><text fill="#000000" font-family="sans-serif" font-size="13" lengthAdjust="spacing" textLength="127" x="406" y="152.0669">regionaleGueltigkeit</text><text fill="#000000" font-family="sans-serif" font-size="13" lengthAdjust="spacing" textLength="24" x="558.0315" y="181.6702">0..1</text></g><!--SRC=[hLB1JeD053ntl-A5tcgwGCN646rIJUDDZKShCGiyO2EmX7tKMFNVfJLjGQazsECRPePzRoR5Y80Kb39E249POa1IvOm5gT0QZFay8IgqQvg-Sf37afBAvrAPLtVER5YyKQ9oCnM4canHo6zMe3AUK9RsjrE9SUqgKYnAb5gJY29C-SC6lM-Wq8bwtbD-eUKINTkQ_6rhWD3T9l3EUiyBB7Nz2LpGLCBSujpsu196riYnR3xcDWznuPp4fs9q9eAnNKja-9Dzgt9alMMb1IsdHANqAyAQzDX2rlp1bl_9M2uor8K8y9-NXStaUUjrDoFqPzRqV7ozslIu2RQ2QntrS4o_qcbAZltGRIVY2bEIyGjAsZNjPWT25tYWPmtFTiqQ5gkSzrHxEFoORBDgNN6VefOCm5ZLpjW9ExTneUnw34jaY91XvjUzPpfHhx3dLv74DDHV]--></g></svg>