<svg xmlns="http://www.w3.org/2000/svg" xmlns:xlink="http://www.w3.org/1999/xlink" contentStyleType="text/css" data-diagram-type="CLASS" height="242px" preserveAspectRatio="none" style="width:803px;height:242px;background:#FFFFFF;" version="1.1" viewBox="0 0 803 242" width="803px" zoomAndPan="magnify"><defs/><g><!--cluster bo4e--><g class="cluster" data-entity="bo4e" data-source-line="10" data-uid="ent0005" id="cluster_bo4e"><path d="M533.71,6 L573.586,6 A3.75,3.75 0 0 1 576.086,8.5 L583.086,28.2969 L793.61,28.2969 A2.5,2.5 0 0 1 796.11,30.7969 L796.11,232.5 A2.5,2.5 0 0 1 793.61,235 L533.71,235 A2.5,2.5 0 0 1 531.21,232.5 L531.21,8.5 A2.5,2.5 0 0 1 533.71,6" fill="none" style="stroke:#000000;stroke-width:1.5;"/><line style="stroke:#000000;stroke-width:1.5;" x1="531.21" x2="583.086" y1="28.2969" y2="28.2969"/><text fill="#000000" font-family="sans-serif" font-size="14" font-weight="bold" lengthAdjust="spacing" textLength="38.876" x="535.21" y="20.9951">bo4e</text></g><!--cluster com--><g class="cluster" data-entity="com" data-source-line="9" data-uid="ent0003" id="cluster_com"><path d="M557.71,49 L635.4092,49 A3.75,3.75 0 0 1 637.9092,51.5 L644.9092,71.2969 L769.61,71.2969 A2.5,2.5 0 0 1 772.11,73.7969 L772.11,208.5 A2.5,2.5 0 0 1 769.61,211 L557.71,211 A2.5,2.5 0 0 1 555.21,208.5 L555.21,51.5 A2.5,2.5 0 0 1 557.71,49" fill="#E0A86C" style="stroke:#000000;stroke-width:1.5;"/><line style="stroke:#000000;stroke-width:1.5;" x1="555.21" x2="644.9092" y1="71.2969" y2="71.2969"/><a href="file:////home/runner/work/BO4E-python/BO4E-python/docs/../.tox/docs/tmp/html/api/bo4e.com.html" target="_top" title="file:////home/runner/work/BO4E-python/BO4E-python/docs/../.tox/docs/tmp/html/api/bo4e.com.html" xlink:actuate="onRequest" xlink:href="file:////home/runner/work/BO4E-python/BO4E-python/docs/../.tox/docs/tmp/html/api/bo4e.com.html" xlink:show="new" xlink:title="file:////home/runner/work/BO4E-python/BO4E-python/docs/../.tox/docs/tmp/html/api/bo4e.com.html" xlink:type="simple"><text fill="#0000FF" font-family="sans-serif" font-size="14" font-weight="bold" lengthAdjust="spacing" text-decoration="underline" textLength="76.6992" x="559.21" y="63.9951">bo4e.com</text></a></g><!--class Preisgarantie--><g class="entity" data-entity="Preisgarantie" data-source-line="10" data-uid="ent0004" id="entity_Preisgarantie"><rect fill="#F1F1F1" height="37.9375" rx="2.5" ry="2.5" style="stroke:#181818;stroke-width:0.5;" width="151.1992" x="588.06" y="84.03"/><ellipse cx="603.06" cy="102.9988" fill="#ADD1B2" rx="11" ry="11" style="stroke:#181818;stroke-width:1;"/><path d="M606.0288,108.6394 Q605.4506,108.9363 604.81,109.0769 Q604.1694,109.2331 603.4663,109.2331 Q600.9663,109.2331 599.6381,107.5925 Q598.3256,105.9363 598.3256,102.8113 Q598.3256,99.6863 599.6381,98.03 Q600.9663,96.3738 603.4663,96.3738 Q604.1694,96.3738 604.81,96.53 Q605.4663,96.6863 606.0288,96.9831 L606.0288,99.7019 Q605.4038,99.1238 604.81,98.8581 Q604.2163,98.5769 603.5913,98.5769 Q602.2475,98.5769 601.56,99.655 Q600.8725,100.7175 600.8725,102.8113 Q600.8725,104.905 601.56,105.9831 Q602.2475,107.0456 603.5913,107.0456 Q604.2163,107.0456 604.81,106.78 Q605.4038,106.4988 606.0288,105.9206 L606.0288,108.6394 Z " fill="#000000"/><a href="file:////home/runner/work/BO4E-python/BO4E-python/docs/../.tox/docs/tmp/html/api/bo4e.com.html#bo4e.com.preisgarantie.Preisgarantie" target="_top" title="file:////home/runner/work/BO4E-python/BO4E-python/docs/../.tox/docs/tmp/html/api/bo4e.com.html#bo4e.com.preisgarantie.Preisgarantie" xlink:actuate="onRequest" xlink:href="file:////home/runner/work/BO4E-python/BO4E-python/docs/../.tox/docs/tmp/html/api/bo4e.com.html#bo4e.com.preisgarantie.Preisgarantie" xlink:show="new" xlink:title="file:////home/runner/work/BO4E-python/BO4E-python/docs/../.tox/docs/tmp/html/api/bo4e.com.html#bo4e.com.preisgarantie.Preisgarantie" xlink:type="simple"><text fill="#0000FF" font-family="sans-serif" font-size="14" lengthAdjust="spacing" text-decoration="underline" textLength="92.6611" x="630.329" y="102.0251">Preisgarantie</text></a><text fill="#000000" font-family="sans-serif" font-size="10" lengthAdjust="spacing" textLength="119.1992" x="617.06" y="114.6091">bo4e.com.preisgarantie</text></g><!--class RegionaleGueltigkeit--><g class="entity" data-entity="RegionaleGueltigkeit" data-source-line="11" data-uid="ent0006" id="entity_RegionaleGueltigkeit"><rect fill="#F1F1F1" height="37.9375" rx="2.5" ry="2.5" style="stroke:#181818;stroke-width:0.5;" width="184.9053" x="571.21" y="157.03"/><ellipse cx="586.21" cy="175.9988" fill="#ADD1B2" rx="11" ry="11" style="stroke:#181818;stroke-width:1;"/><path d="M589.1788,181.6394 Q588.6006,181.9363 587.96,182.0769 Q587.3194,182.2331 586.6163,182.2331 Q584.1163,182.2331 582.7881,180.5925 Q581.4756,178.9363 581.4756,175.8113 Q581.4756,172.6863 582.7881,171.03 Q584.1163,169.3738 586.6163,169.3738 Q587.3194,169.3738 587.96,169.53 Q588.6163,169.6863 589.1788,169.9831 L589.1788,172.7019 Q588.5538,172.1238 587.96,171.8581 Q587.3663,171.5769 586.7413,171.5769 Q585.3975,171.5769 584.71,172.655 Q584.0225,173.7175 584.0225,175.8113 Q584.0225,177.905 584.71,178.9831 Q585.3975,180.0456 586.7413,180.0456 Q587.3663,180.0456 587.96,179.78 Q588.5538,179.4988 589.1788,178.9206 L589.1788,181.6394 Z " fill="#000000"/><a href="file:////home/runner/work/BO4E-python/BO4E-python/docs/../.tox/docs/tmp/html/api/bo4e.com.html#bo4e.com.regionalegueltigkeit.RegionaleGueltigkeit" target="_top" title="file:////home/runner/work/BO4E-python/BO4E-python/docs/../.tox/docs/tmp/html/api/bo4e.com.html#bo4e.com.regionalegueltigkeit.RegionaleGueltigkeit" xlink:actuate="onRequest" xlink:href="file:////home/runner/work/BO4E-python/BO4E-python/docs/../.tox/docs/tmp/html/api/bo4e.com.html#bo4e.com.regionalegueltigkeit.RegionaleGueltigkeit" xlink:show="new" xlink:title="file:////home/runner/work/BO4E-python/BO4E-python/docs/../.tox/docs/tmp/html/api/bo4e.com.html#bo4e.com.regionalegueltigkeit.RegionaleGueltigkeit" xlink:type="simple"><text fill="#0000FF" font-family="sans-serif" font-size="14" lengthAdjust="spacing" text-decoration="underline" textLength="146.2275" x="603.5489" y="175.0251">RegionaleGueltigkeit</text></a><text fill="#000000" font-family="sans-serif" font-size="10" lengthAdjust="spacing" textLength="152.9053" x="600.21" y="187.6091">bo4e.com.regionalegueltigkeit</text></g><!--class RegionalePreisgarantie--><g class="entity" data-entity="RegionalePreisgarantie" data-source-line="3" data-uid="ent0002" id="entity_RegionalePreisgarantie"><rect fill="#F1F1F1" height="94.8281" rx="2.5" ry="2.5" style="stroke:#181818;stroke-width:0.5;" width="344.2061" x="7" y="92.59"/><ellipse cx="91.8013" cy="111.5588" fill="#ADD1B2" rx="11" ry="11" style="stroke:#181818;stroke-width:1;"/><path d="M94.77,117.1994 Q94.1919,117.4963 93.5513,117.6369 Q92.9106,117.7931 92.2075,117.7931 Q89.7075,117.7931 88.3794,116.1525 Q87.0669,114.4963 87.0669,111.3713 Q87.0669,108.2463 88.3794,106.59 Q89.7075,104.9338 92.2075,104.9338 Q92.9106,104.9338 93.5513,105.09 Q94.2075,105.2463 94.77,105.5431 L94.77,108.2619 Q94.145,107.6838 93.5513,107.4181 Q92.9575,107.1369 92.3325,107.1369 Q90.9888,107.1369 90.3013,108.215 Q89.6138,109.2775 89.6138,111.3713 Q89.6138,113.465 90.3013,114.5431 Q90.9888,115.6056 92.3325,115.6056 Q92.9575,115.6056 93.5513,115.34 Q94.145,115.0588 94.77,114.4806 L94.77,117.1994 Z " fill="#000000"/><a href="file:////home/runner/work/BO4E-python/BO4E-python/docs/../.tox/docs/tmp/html/api/bo4e.com.html#bo4e.com.regionalepreisgarantie.RegionalePreisgarantie" target="_top" title="file:////home/runner/work/BO4E-python/BO4E-python/docs/../.tox/docs/tmp/html/api/bo4e.com.html#bo4e.com.regionalepreisgarantie.RegionalePreisgarantie" xlink:actuate="onRequest" xlink:href="file:////home/runner/work/BO4E-python/BO4E-python/docs/../.tox/docs/tmp/html/api/bo4e.com.html#bo4e.com.regionalepreisgarantie.RegionalePreisgarantie" xlink:show="new" xlink:title="file:////home/runner/work/BO4E-python/BO4E-python/docs/../.tox/docs/tmp/html/api/bo4e.com.html#bo4e.com.regionalepreisgarantie.RegionalePreisgarantie" xlink:type="simple"><text fill="#0000FF" font-family="sans-serif" font-size="14" lengthAdjust="spacing" text-decoration="underline" textLength="162.2988" x="114.2036" y="110.5851">RegionalePreisgarantie</text></a><text fill="#000000" font-family="sans-serif" font-size="10" lengthAdjust="spacing" textLength="166.1035" x="112.3013" y="123.1691">bo4e.com.regionalepreisgarantie</text><line style="stroke:#181818;stroke-width:0.5;" x1="8" x2="350.2061" y1="130.5275" y2="130.5275"/><text fill="#000000" font-family="sans-serif" font-size="14" lengthAdjust="spacing" textLength="332.2061" x="13" y="147.5226">_version : str [0..1] = 202501.0.0+g245ac3b0a</text><text fill="#000000" font-family="sans-serif" font-size="14" lengthAdjust="spacing" textLength="151.1768" x="13" y="163.8195">_id : str [0..1] = None</text><text fill="#000000" font-family="sans-serif" font-size="14" lengthAdjust="spacing" textLength="318.5752" x="13" y="180.1164">zusatzAttribute : ZusatzAttribut [0..*] = None</text></g><!--link RegionalePreisgarantie to Preisgarantie--><g class="link" data-entity-1="RegionalePreisgarantie" data-entity-2="Preisgarantie" data-source-line="14" data-uid="lnk7" id="link_RegionalePreisgarantie_Preisgarantie"><path codeLine="14" d="M351.59,126.85 C432.46,120.65 506.8126,114.9449 569.7326,110.1249" fill="none" id="RegionalePreisgarantie-to-Preisgarantie" style="stroke:#181818;stroke-width:1;"/><polygon fill="none" points="587.68,108.75,569.2743,104.1424,570.1909,116.1073,587.68,108.75" style="stroke:#181818;stroke-width:1;"/></g><!--link RegionalePreisgarantie to RegionaleGueltigkeit--><g class="link" data-entity-1="RegionalePreisgarantie" data-entity-2="RegionaleGueltigkeit" data-source-line="15" data-uid="lnk8" id="link_RegionalePreisgarantie_RegionaleGueltigkeit"><path codeLine="15" d="M351.59,152.79 C425.55,158.31 497.1033,163.6464 558.9733,168.2664" fill="none" id="RegionalePreisgarantie-to-RegionaleGueltigkeit" style="stroke:#181818;stroke-width:1;"/><polygon fill="#181818" points="570.94,169.16,565.2545,164.7243,558.9733,168.2664,564.6588,172.7021,570.94,169.16" style="stroke:#181818;stroke-width:1;"/><text fill="#000000" font-family="sans-serif" font-size="13" lengthAdjust="spacing" textLength="132.0947" x="382.21" y="152.0669">regionaleGueltigkeit</text><text fill="#000000" font-family="sans-serif" font-size="13" lengthAdjust="spacing" textLength="24.8066" x="538.3011" y="181.2872">0..1</text></g><!--SRC=[nLDHJy8m47wcl-8otZ2q0y6OHKdG4D_K-2WkfjkEhM5RbxOJHVtlRXW6qotuelQfz_Mxk_Q-hp4k31W9IeIHWK0ez8sGAI5-pBK6QpvVY1WTLgn89iXKdgQes4gg9Rku6StwsOk9P5hR1zBNZ596ZNp-34oIiSWaCUEPO9uS8VLbGakaMqKAmw8nZp5JA7J85K-DG7gtXM_tOMY6NVSXFTDYZSx0dXoeR07NBMNWbNGUdr3fuWmSq4R1tAPquC8v3EtXs1vGczf7uN0qvlwnP_E2BeAlp6kP8kciSytDUcgC4bvki23Trv0DlrVntmb9UO8wupx-_lHX6xdkPXpR4BepUtfwSbaEui-DKDU_BimFrFukSYtf7nvK-I_CCJOYNA8mErzVxK1e0WzuUgzctT5x9KfNjNsaVlzjKkbUdtPhJf7K0wlqkRLBRNoG0whfFYGI0KA2YLTyCg8ZkOAsNWk1SQ0_0000]--></g></svg>