<?xml version="1.0" encoding="us-ascii" standalone="no"?><svg xmlns="http://www.w3.org/2000/svg" xmlns:xlink="http://www.w3.org/1999/xlink" contentStyleType="text/css" height="242px" preserveAspectRatio="none" style="width:815px;height:242px;background:#FFFFFF;" version="1.1" viewBox="0 0 815 242" width="815px" zoomAndPan="magnify"><defs/><g><!--cluster bo4e--><g id="cluster_bo4e"><path d="M554.5,6 L595.5,6 A3.75,3.75 0 0 1 598,8.5 L605,28.2969 L805.5,28.2969 A2.5,2.5 0 0 1 808,30.7969 L808,232.5 A2.5,2.5 0 0 1 805.5,235 L554.5,235 A2.5,2.5 0 0 1 552,232.5 L552,8.5 A2.5,2.5 0 0 1 554.5,6 " fill="none" style="stroke:#000000;stroke-width:1.5;"/><line style="stroke:#000000;stroke-width:1.5;" x1="552" x2="605" y1="28.2969" y2="28.2969"/><text fill="#000000" font-family="sans-serif" font-size="14" font-weight="bold" lengthAdjust="spacing" textLength="40" x="556" y="20.9951">bo4e</text></g><!--cluster com--><g id="cluster_com"><path d="M578.5,49 L657.5,49 A3.75,3.75 0 0 1 660,51.5 L667,71.2969 L781.5,71.2969 A2.5,2.5 0 0 1 784,73.7969 L784,208.5 A2.5,2.5 0 0 1 781.5,211 L578.5,211 A2.5,2.5 0 0 1 576,208.5 L576,51.5 A2.5,2.5 0 0 1 578.5,49 " fill="#E0A86C" style="stroke:#000000;stroke-width:1.5;"/><line style="stroke:#000000;stroke-width:1.5;" x1="576" x2="667" y1="71.2969" y2="71.2969"/><a href="https://bo4e.github.io/BO4E-python/latest/api/bo4e.com.html" target="_top" title="https://bo4e.github.io/BO4E-python/latest/api/bo4e.com.html" xlink:actuate="onRequest" xlink:href="https://bo4e.github.io/BO4E-python/latest/api/bo4e.com.html" xlink:show="new" xlink:title="https://bo4e.github.io/BO4E-python/latest/api/bo4e.com.html" xlink:type="simple"><text fill="#0000FF" font-family="sans-serif" font-size="14" font-weight="bold" lengthAdjust="spacing" text-decoration="underline" textLength="78" x="580" y="63.9951">bo4e.com</text></a></g><!--class Preisgarantie--><g id="elem_Preisgarantie"><rect codeLine="10" fill="#F1F1F1" height="37.9375" id="Preisgarantie" rx="2.5" ry="2.5" style="stroke:#181818;stroke-width:0.5;" width="146" x="607" y="84.03"/><ellipse cx="622" cy="102.9988" fill="#ADD1B2" rx="11" ry="11" style="stroke:#181818;stroke-width:1.0;"/><path d="M624.9688,108.6394 Q624.3906,108.9363 623.75,109.0769 Q623.1094,109.2331 622.4063,109.2331 Q619.9063,109.2331 618.5781,107.5925 Q617.2656,105.9363 617.2656,102.8113 Q617.2656,99.6863 618.5781,98.03 Q619.9063,96.3738 622.4063,96.3738 Q623.1094,96.3738 623.75,96.53 Q624.4063,96.6863 624.9688,96.9831 L624.9688,99.7019 Q624.3438,99.1238 623.75,98.8581 Q623.1563,98.5769 622.5313,98.5769 Q621.1875,98.5769 620.5,99.655 Q619.8125,100.7175 619.8125,102.8113 Q619.8125,104.905 620.5,105.9831 Q621.1875,107.0456 622.5313,107.0456 Q623.1563,107.0456 623.75,106.78 Q624.3438,106.4988 624.9688,105.9206 L624.9688,108.6394 Z " fill="#000000"/><a href="https://bo4e.github.io/BO4E-python/latest/api/bo4e.com.html#bo4e.com.preisgarantie.Preisgarantie" target="_top" title="https://bo4e.github.io/BO4E-python/latest/api/bo4e.com.html#bo4e.com.preisgarantie.Preisgarantie" xlink:actuate="onRequest" xlink:href="https://bo4e.github.io/BO4E-python/latest/api/bo4e.com.html#bo4e.com.preisgarantie.Preisgarantie" xlink:show="new" xlink:title="https://bo4e.github.io/BO4E-python/latest/api/bo4e.com.html#bo4e.com.preisgarantie.Preisgarantie" xlink:type="simple"><text fill="#0000FF" font-family="sans-serif" font-size="14" lengthAdjust="spacing" text-decoration="underline" textLength="90" x="648" y="102.0251">Preisgarantie</text></a><text fill="#000000" font-family="sans-serif" font-size="10" lengthAdjust="spacing" textLength="114" x="636" y="114.6091">bo4e.com.preisgarantie</text></g><!--class RegionaleGueltigkeit--><g id="elem_RegionaleGueltigkeit"><rect codeLine="11" fill="#F1F1F1" height="37.9375" id="RegionaleGueltigkeit" rx="2.5" ry="2.5" style="stroke:#181818;stroke-width:0.5;" width="176" x="592" y="157.03"/><ellipse cx="607" cy="175.9988" fill="#ADD1B2" rx="11" ry="11" style="stroke:#181818;stroke-width:1.0;"/><path d="M609.9688,181.6394 Q609.3906,181.9363 608.75,182.0769 Q608.1094,182.2331 607.4063,182.2331 Q604.9063,182.2331 603.5781,180.5925 Q602.2656,178.9363 602.2656,175.8113 Q602.2656,172.6863 603.5781,171.03 Q604.9063,169.3738 607.4063,169.3738 Q608.1094,169.3738 608.75,169.53 Q609.4063,169.6863 609.9688,169.9831 L609.9688,172.7019 Q609.3438,172.1238 608.75,171.8581 Q608.1563,171.5769 607.5313,171.5769 Q606.1875,171.5769 605.5,172.655 Q604.8125,173.7175 604.8125,175.8113 Q604.8125,177.905 605.5,178.9831 Q606.1875,180.0456 607.5313,180.0456 Q608.1563,180.0456 608.75,179.78 Q609.3438,179.4988 609.9688,178.9206 L609.9688,181.6394 Z " fill="#000000"/><a href="https://bo4e.github.io/BO4E-python/latest/api/bo4e.com.html#bo4e.com.regionalegueltigkeit.RegionaleGueltigkeit" target="_top" title="https://bo4e.github.io/BO4E-python/latest/api/bo4e.com.html#bo4e.com.regionalegueltigkeit.RegionaleGueltigkeit" xlink:actuate="onRequest" xlink:href="https://bo4e.github.io/BO4E-python/latest/api/bo4e.com.html#bo4e.com.regionalegueltigkeit.RegionaleGueltigkeit" xlink:show="new" xlink:title="https://bo4e.github.io/BO4E-python/latest/api/bo4e.com.html#bo4e.com.regionalegueltigkeit.RegionaleGueltigkeit" xlink:type="simple"><text fill="#0000FF" font-family="sans-serif" font-size="14" lengthAdjust="spacing" text-decoration="underline" textLength="143" x="621.5" y="175.0251">RegionaleGueltigkeit</text></a><text fill="#000000" font-family="sans-serif" font-size="10" lengthAdjust="spacing" textLength="144" x="621" y="187.6091">bo4e.com.regionalegueltigkeit</text></g><!--class RegionalePreisgarantie--><g id="elem_RegionalePreisgarantie"><rect codeLine="3" fill="#F1F1F1" height="94.8281" id="RegionalePreisgarantie" rx="2.5" ry="2.5" style="stroke:#181818;stroke-width:0.5;" width="370" x="7" y="92.59"/><ellipse cx="108.25" cy="111.5588" fill="#ADD1B2" rx="11" ry="11" style="stroke:#181818;stroke-width:1.0;"/><path d="M111.2188,117.1994 Q110.6406,117.4963 110,117.6369 Q109.3594,117.7931 108.6563,117.7931 Q106.1563,117.7931 104.8281,116.1525 Q103.5156,114.4963 103.5156,111.3713 Q103.5156,108.2463 104.8281,106.59 Q106.1563,104.9338 108.6563,104.9338 Q109.3594,104.9338 110,105.09 Q110.6563,105.2463 111.2188,105.5431 L111.2188,108.2619 Q110.5938,107.6838 110,107.4181 Q109.4063,107.1369 108.7813,107.1369 Q107.4375,107.1369 106.75,108.215 Q106.0625,109.2775 106.0625,111.3713 Q106.0625,113.465 106.75,114.5431 Q107.4375,115.6056 108.7813,115.6056 Q109.4063,115.6056 110,115.34 Q110.5938,115.0588 111.2188,114.4806 L111.2188,117.1994 Z " fill="#000000"/><a href="https://bo4e.github.io/BO4E-python/latest/api/bo4e.com.html#bo4e.com.regionalepreisgarantie.RegionalePreisgarantie" target="_top" title="https://bo4e.github.io/BO4E-python/latest/api/bo4e.com.html#bo4e.com.regionalepreisgarantie.RegionalePreisgarantie" xlink:actuate="onRequest" xlink:href="https://bo4e.github.io/BO4E-python/latest/api/bo4e.com.html#bo4e.com.regionalepreisgarantie.RegionalePreisgarantie" xlink:show="new" xlink:title="https://bo4e.github.io/BO4E-python/latest/api/bo4e.com.html#bo4e.com.regionalepreisgarantie.RegionalePreisgarantie" xlink:type="simple"><text fill="#0000FF" font-family="sans-serif" font-size="14" lengthAdjust="spacing" text-decoration="underline" textLength="159" x="128.75" y="110.5851">RegionalePreisgarantie</text></a><text fill="#000000" font-family="sans-serif" font-size="10" lengthAdjust="spacing" textLength="158" x="129.25" y="123.1691">bo4e.com.regionalepreisgarantie</text><line style="stroke:#181818;stroke-width:0.5;" x1="8" x2="376" y1="130.5275" y2="130.5275"/><text fill="#000000" font-family="sans-serif" font-size="14" lengthAdjust="spacing" textLength="358" x="13" y="147.5226">_version : str [0..1] = 202401.2.2.dev36+g0841f83f</text><text fill="#000000" font-family="sans-serif" font-size="14" lengthAdjust="spacing" textLength="147" x="13" y="163.8195">_id : str [0..1] = None</text><text fill="#000000" font-family="sans-serif" font-size="14" lengthAdjust="spacing" textLength="311" x="13" y="180.1164">zusatzAttribute : ZusatzAttribut [0..*] = None</text></g><!--link RegionalePreisgarantie to Preisgarantie--><g id="link_RegionalePreisgarantie_Preisgarantie"><path codeLine="14" d="M377.43,125.96 C457.32,119.88 528.2319,114.476 588.6719,109.876 " fill="none" id="RegionalePreisgarantie-to-Preisgarantie" style="stroke:#181818;stroke-width:1.0;"/><polygon fill="none" points="606.62,108.51,588.2166,103.8933,589.1272,115.8587,606.62,108.51" style="stroke:#181818;stroke-width:1.0;"/></g><!--link RegionalePreisgarantie to RegionaleGueltigkeit--><g id="link_RegionalePreisgarantie_RegionaleGueltigkeit"><path codeLine="15" d="M377.43,153.66 C451.01,159.11 520.2327,164.2444 579.8227,168.6544 " fill="none" id="RegionalePreisgarantie-to-RegionaleGueltigkeit" style="stroke:#181818;stroke-width:1.0;"/><polygon fill="#181818" points="591.79,169.54,586.1016,165.1081,579.8227,168.6544,585.5111,173.0863,591.79,169.54" style="stroke:#181818;stroke-width:1.0;"/><text fill="#000000" font-family="sans-serif" font-size="13" lengthAdjust="spacing" textLength="127" x="408" y="153.0669">regionaleGueltigkeit</text><text fill="#000000" font-family="sans-serif" font-size="13" lengthAdjust="spacing" textLength="24" x="560.1177" y="181.6917">0..1</text></g><!--SRC=[hLDDJuD043sxls92RpNbessQXcYJQXflQZnQYLbWW8t0ajsXngh_NLfJMXHI4vizpUEzOMVUsnGZ0fAWH9mGX49XG4BcZ0KfrngCvJ8XAhHhMRuSenaBIahV5DAwkXil1iKR9JAtKaweoUA5-6O5CZCJoj9UNIcCgwuynKAXq35NF2U1viCElZ-4eHtslAVyGeirkeuzEzBP0Auxsi0xEtjUeTBLDt11auAbRPgE1vSmj8TZsp67rGbnDPgSn_Pqx4JJKLHfHFYJVYjpP6VhKdDQpucKy4l2YlJOGBRyVit_P2pd6Ug21_ZF_SAkyhpjmBiIUWjxFfrSRqOzhOzD-vfx_ODPlprgY4vzspeRSOafYVW51UqpTxC7eGqyahU3disq7RJOcDqLyi7WOrOxrbnbfwOIzS7OnC_OIri7Sa6rtOSb8aJ8CFEh1y1q8b-Xwr-Hm3JKNm00]--></g></svg>