<svg xmlns="http://www.w3.org/2000/svg" xmlns:xlink="http://www.w3.org/1999/xlink" contentStyleType="text/css" data-diagram-type="CLASS" height="866px" preserveAspectRatio="none" style="width:1421px;height:866px;background:#FFFFFF;" version="1.1" viewBox="0 0 1421 866" width="1421px" zoomAndPan="magnify"><defs/><g><!--cluster bo4e--><g class="cluster" data-entity="bo4e" data-source-line="14" data-uid="ent0005" id="cluster_bo4e"><path d="M1149.66,6 L1189.536,6 A3.75,3.75 0 0 1 1192.036,8.5 L1199.036,28.2969 L1412.09,28.2969 A2.5,2.5 0 0 1 1414.59,30.7969 L1414.59,856.5 A2.5,2.5 0 0 1 1412.09,859 L1149.66,859 A2.5,2.5 0 0 1 1147.16,856.5 L1147.16,8.5 A2.5,2.5 0 0 1 1149.66,6" fill="none" style="stroke:#000000;stroke-width:1.5;"/><line style="stroke:#000000;stroke-width:1.5;" x1="1147.16" x2="1199.036" y1="28.2969" y2="28.2969"/><text fill="#000000" font-family="sans-serif" font-size="14" font-weight="bold" lengthAdjust="spacing" textLength="38.876" x="1151.16" y="20.9951">bo4e</text></g><!--cluster com--><g class="cluster" data-entity="com" data-source-line="13" data-uid="ent0003" id="cluster_com"><path d="M1173.66,49 L1251.3592,49 A3.75,3.75 0 0 1 1253.8592,51.5 L1260.8592,71.2969 L1388.09,71.2969 A2.5,2.5 0 0 1 1390.59,73.7969 L1390.59,573.5 A2.5,2.5 0 0 1 1388.09,576 L1173.66,576 A2.5,2.5 0 0 1 1171.16,573.5 L1171.16,51.5 A2.5,2.5 0 0 1 1173.66,49" fill="#E0A86C" style="stroke:#000000;stroke-width:1.5;"/><line style="stroke:#000000;stroke-width:1.5;" x1="1171.16" x2="1260.8592" y1="71.2969" y2="71.2969"/><a href="file:////home/runner/work/BO4E-python/BO4E-python/docs/../.tox/docs/tmp/html/api/bo4e.com.html" target="_top" title="file:////home/runner/work/BO4E-python/BO4E-python/docs/../.tox/docs/tmp/html/api/bo4e.com.html" xlink:actuate="onRequest" xlink:href="file:////home/runner/work/BO4E-python/BO4E-python/docs/../.tox/docs/tmp/html/api/bo4e.com.html" xlink:show="new" xlink:title="file:////home/runner/work/BO4E-python/BO4E-python/docs/../.tox/docs/tmp/html/api/bo4e.com.html" xlink:type="simple"><text fill="#0000FF" font-family="sans-serif" font-size="14" font-weight="bold" lengthAdjust="spacing" text-decoration="underline" textLength="76.6992" x="1175.16" y="63.9951">bo4e.com</text></a></g><!--cluster enum--><g class="cluster" data-entity="enum" data-source-line="22" data-uid="ent0012" id="cluster_enum"><path d="M1176.62,600 L1265.8309,600 A3.75,3.75 0 0 1 1268.3309,602.5 L1275.3309,622.2969 L1385.13,622.2969 A2.5,2.5 0 0 1 1387.63,624.7969 L1387.63,832.5 A2.5,2.5 0 0 1 1385.13,835 L1176.62,835 A2.5,2.5 0 0 1 1174.12,832.5 L1174.12,602.5 A2.5,2.5 0 0 1 1176.62,600" fill="#D1C358" style="stroke:#000000;stroke-width:1.5;"/><line style="stroke:#000000;stroke-width:1.5;" x1="1174.12" x2="1275.3309" y1="622.2969" y2="622.2969"/><a href="file:////home/runner/work/BO4E-python/BO4E-python/docs/../.tox/docs/tmp/html/api/bo4e.enum.html" target="_top" title="file:////home/runner/work/BO4E-python/BO4E-python/docs/../.tox/docs/tmp/html/api/bo4e.enum.html" xlink:actuate="onRequest" xlink:href="file:////home/runner/work/BO4E-python/BO4E-python/docs/../.tox/docs/tmp/html/api/bo4e.enum.html" xlink:show="new" xlink:title="file:////home/runner/work/BO4E-python/BO4E-python/docs/../.tox/docs/tmp/html/api/bo4e.enum.html" xlink:type="simple"><text fill="#0000FF" font-family="sans-serif" font-size="14" font-weight="bold" lengthAdjust="spacing" text-decoration="underline" textLength="88.2109" x="1178.12" y="614.9951">bo4e.enum</text></a></g><!--class Preisgarantie--><g class="entity" data-entity="Preisgarantie" data-source-line="14" data-uid="ent0004" id="entity_Preisgarantie"><rect fill="#F1F1F1" height="37.9375" rx="2.5" ry="2.5" style="stroke:#181818;stroke-width:0.5;" width="151.1992" x="1205.28" y="84.03"/><ellipse cx="1220.28" cy="102.9987" fill="#ADD1B2" rx="11" ry="11" style="stroke:#181818;stroke-width:1;"/><path d="M1223.2488,108.6394 Q1222.6706,108.9362 1222.03,109.0769 Q1221.3894,109.2331 1220.6863,109.2331 Q1218.1863,109.2331 1216.8581,107.5925 Q1215.5456,105.9362 1215.5456,102.8112 Q1215.5456,99.6862 1216.8581,98.03 Q1218.1863,96.3737 1220.6863,96.3737 Q1221.3894,96.3737 1222.03,96.53 Q1222.6863,96.6862 1223.2488,96.9831 L1223.2488,99.7019 Q1222.6238,99.1237 1222.03,98.8581 Q1221.4363,98.5769 1220.8113,98.5769 Q1219.4675,98.5769 1218.78,99.655 Q1218.0925,100.7175 1218.0925,102.8112 Q1218.0925,104.905 1218.78,105.9831 Q1219.4675,107.0456 1220.8113,107.0456 Q1221.4363,107.0456 1222.03,106.78 Q1222.6238,106.4987 1223.2488,105.9206 L1223.2488,108.6394 Z " fill="#000000"/><a href="file:////home/runner/work/BO4E-python/BO4E-python/docs/../.tox/docs/tmp/html/api/bo4e.com.html#bo4e.com.preisgarantie.Preisgarantie" target="_top" title="file:////home/runner/work/BO4E-python/BO4E-python/docs/../.tox/docs/tmp/html/api/bo4e.com.html#bo4e.com.preisgarantie.Preisgarantie" xlink:actuate="onRequest" xlink:href="file:////home/runner/work/BO4E-python/BO4E-python/docs/../.tox/docs/tmp/html/api/bo4e.com.html#bo4e.com.preisgarantie.Preisgarantie" xlink:show="new" xlink:title="file:////home/runner/work/BO4E-python/BO4E-python/docs/../.tox/docs/tmp/html/api/bo4e.com.html#bo4e.com.preisgarantie.Preisgarantie" xlink:type="simple"><text fill="#0000FF" font-family="sans-serif" font-size="14" lengthAdjust="spacing" text-decoration="underline" textLength="92.6611" x="1247.549" y="102.0251">Preisgarantie</text></a><text fill="#000000" font-family="sans-serif" font-size="10" lengthAdjust="spacing" textLength="119.1992" x="1234.28" y="114.6091">bo4e.com.preisgarantie</text></g><!--class Energiemix--><g class="entity" data-entity="Energiemix" data-source-line="15" data-uid="ent0006" id="entity_Energiemix"><rect fill="#F1F1F1" height="37.9375" rx="2.5" ry="2.5" style="stroke:#181818;stroke-width:0.5;" width="141.165" x="1210.29" y="157.03"/><ellipse cx="1225.29" cy="175.9987" fill="#ADD1B2" rx="11" ry="11" style="stroke:#181818;stroke-width:1;"/><path d="M1228.2588,181.6394 Q1227.6806,181.9362 1227.04,182.0769 Q1226.3994,182.2331 1225.6963,182.2331 Q1223.1963,182.2331 1221.8681,180.5925 Q1220.5556,178.9362 1220.5556,175.8112 Q1220.5556,172.6862 1221.8681,171.03 Q1223.1963,169.3737 1225.6963,169.3737 Q1226.3994,169.3737 1227.04,169.53 Q1227.6963,169.6862 1228.2588,169.9831 L1228.2588,172.7019 Q1227.6338,172.1237 1227.04,171.8581 Q1226.4463,171.5769 1225.8213,171.5769 Q1224.4775,171.5769 1223.79,172.655 Q1223.1025,173.7175 1223.1025,175.8112 Q1223.1025,177.905 1223.79,178.9831 Q1224.4775,180.0456 1225.8213,180.0456 Q1226.4463,180.0456 1227.04,179.78 Q1227.6338,179.4987 1228.2588,178.9206 L1228.2588,181.6394 Z " fill="#000000"/><a href="file:////home/runner/work/BO4E-python/BO4E-python/docs/../.tox/docs/tmp/html/api/bo4e.com.html#bo4e.com.energiemix.Energiemix" target="_top" title="file:////home/runner/work/BO4E-python/BO4E-python/docs/../.tox/docs/tmp/html/api/bo4e.com.html#bo4e.com.energiemix.Energiemix" xlink:actuate="onRequest" xlink:href="file:////home/runner/work/BO4E-python/BO4E-python/docs/../.tox/docs/tmp/html/api/bo4e.com.html#bo4e.com.energiemix.Energiemix" xlink:show="new" xlink:title="file:////home/runner/work/BO4E-python/BO4E-python/docs/../.tox/docs/tmp/html/api/bo4e.com.html#bo4e.com.energiemix.Energiemix" xlink:type="simple"><text fill="#0000FF" font-family="sans-serif" font-size="14" lengthAdjust="spacing" text-decoration="underline" textLength="79.29" x="1254.2275" y="175.0251">Energiemix</text></a><text fill="#000000" font-family="sans-serif" font-size="10" lengthAdjust="spacing" textLength="109.165" x="1239.29" y="187.6091">bo4e.com.energiemix</text></g><!--class COM--><g class="entity" data-entity="COM" data-source-line="16" data-uid="ent0007" id="entity_COM"><rect fill="#F1F1F1" height="37.9375" rx="2.5" ry="2.5" style="stroke:#181818;stroke-width:0.5;" width="106.0527" x="1227.85" y="230.03"/><ellipse cx="1242.85" cy="248.9987" fill="#ADD1B2" rx="11" ry="11" style="stroke:#181818;stroke-width:1;"/><path d="M1245.8188,254.6394 Q1245.2406,254.9362 1244.6,255.0769 Q1243.9594,255.2331 1243.2563,255.2331 Q1240.7563,255.2331 1239.4281,253.5925 Q1238.1156,251.9362 1238.1156,248.8112 Q1238.1156,245.6862 1239.4281,244.03 Q1240.7563,242.3737 1243.2563,242.3737 Q1243.9594,242.3737 1244.6,242.53 Q1245.2563,242.6862 1245.8188,242.9831 L1245.8188,245.7019 Q1245.1938,245.1237 1244.6,244.8581 Q1244.0063,244.5769 1243.3813,244.5769 Q1242.0375,244.5769 1241.35,245.655 Q1240.6625,246.7175 1240.6625,248.8112 Q1240.6625,250.905 1241.35,251.9831 Q1242.0375,253.0456 1243.3813,253.0456 Q1244.0063,253.0456 1244.6,252.78 Q1245.1938,252.4987 1245.8188,251.9206 L1245.8188,254.6394 Z " fill="#000000"/><a href="file:////home/runner/work/BO4E-python/BO4E-python/docs/../.tox/docs/tmp/html/api/bo4e.com.html#bo4e.com.com.COM" target="_top" title="file:////home/runner/work/BO4E-python/BO4E-python/docs/../.tox/docs/tmp/html/api/bo4e.com.html#bo4e.com.com.COM" xlink:actuate="onRequest" xlink:href="file:////home/runner/work/BO4E-python/BO4E-python/docs/../.tox/docs/tmp/html/api/bo4e.com.html#bo4e.com.com.COM" xlink:show="new" xlink:title="file:////home/runner/work/BO4E-python/BO4E-python/docs/../.tox/docs/tmp/html/api/bo4e.com.html#bo4e.com.com.COM" xlink:type="simple"><text fill="#0000FF" font-family="sans-serif" font-size="14" lengthAdjust="spacing" text-decoration="underline" textLength="32.874" x="1277.4394" y="248.0251">COM</text></a><text fill="#000000" font-family="sans-serif" font-size="10" lengthAdjust="spacing" textLength="74.0527" x="1256.85" y="260.6091">bo4e.com.com</text></g><!--class Zeitraum--><g class="entity" data-entity="Zeitraum" data-source-line="17" data-uid="ent0008" id="entity_Zeitraum"><rect fill="#F1F1F1" height="37.9375" rx="2.5" ry="2.5" style="stroke:#181818;stroke-width:0.5;" width="129.1143" x="1216.32" y="303.03"/><ellipse cx="1231.32" cy="321.9988" fill="#ADD1B2" rx="11" ry="11" style="stroke:#181818;stroke-width:1;"/><path d="M1234.2888,327.6394 Q1233.7106,327.9363 1233.07,328.0769 Q1232.4294,328.2331 1231.7263,328.2331 Q1229.2263,328.2331 1227.8981,326.5925 Q1226.5856,324.9363 1226.5856,321.8113 Q1226.5856,318.6863 1227.8981,317.03 Q1229.2263,315.3738 1231.7263,315.3738 Q1232.4294,315.3738 1233.07,315.53 Q1233.7263,315.6863 1234.2888,315.9831 L1234.2888,318.7019 Q1233.6638,318.1238 1233.07,317.8581 Q1232.4763,317.5769 1231.8513,317.5769 Q1230.5075,317.5769 1229.82,318.655 Q1229.1325,319.7175 1229.1325,321.8113 Q1229.1325,323.905 1229.82,324.9831 Q1230.5075,326.0456 1231.8513,326.0456 Q1232.4763,326.0456 1233.07,325.78 Q1233.6638,325.4988 1234.2888,324.9206 L1234.2888,327.6394 Z " fill="#000000"/><a href="file:////home/runner/work/BO4E-python/BO4E-python/docs/../.tox/docs/tmp/html/api/bo4e.com.html#bo4e.com.zeitraum.Zeitraum" target="_top" title="file:////home/runner/work/BO4E-python/BO4E-python/docs/../.tox/docs/tmp/html/api/bo4e.com.html#bo4e.com.zeitraum.Zeitraum" xlink:actuate="onRequest" xlink:href="file:////home/runner/work/BO4E-python/BO4E-python/docs/../.tox/docs/tmp/html/api/bo4e.com.html#bo4e.com.zeitraum.Zeitraum" xlink:show="new" xlink:title="file:////home/runner/work/BO4E-python/BO4E-python/docs/../.tox/docs/tmp/html/api/bo4e.com.html#bo4e.com.zeitraum.Zeitraum" xlink:type="simple"><text fill="#0000FF" font-family="sans-serif" font-size="14" lengthAdjust="spacing" text-decoration="underline" textLength="64.4287" x="1261.6628" y="321.0251">Zeitraum</text></a><text fill="#000000" font-family="sans-serif" font-size="10" lengthAdjust="spacing" textLength="97.1143" x="1245.32" y="333.6091">bo4e.com.zeitraum</text></g><!--class RegionalePreisstaffel--><g class="entity" data-entity="RegionalePreisstaffel" data-source-line="18" data-uid="ent0009" id="entity_RegionalePreisstaffel"><rect fill="#F1F1F1" height="37.9375" rx="2.5" ry="2.5" style="stroke:#181818;stroke-width:0.5;" width="187.4297" x="1187.16" y="376.03"/><ellipse cx="1202.16" cy="394.9988" fill="#ADD1B2" rx="11" ry="11" style="stroke:#181818;stroke-width:1;"/><path d="M1205.1288,400.6394 Q1204.5506,400.9363 1203.91,401.0769 Q1203.2694,401.2331 1202.5663,401.2331 Q1200.0663,401.2331 1198.7381,399.5925 Q1197.4256,397.9363 1197.4256,394.8113 Q1197.4256,391.6863 1198.7381,390.03 Q1200.0663,388.3738 1202.5663,388.3738 Q1203.2694,388.3738 1203.91,388.53 Q1204.5663,388.6863 1205.1288,388.9831 L1205.1288,391.7019 Q1204.5038,391.1238 1203.91,390.8581 Q1203.3163,390.5769 1202.6913,390.5769 Q1201.3475,390.5769 1200.66,391.655 Q1199.9725,392.7175 1199.9725,394.8113 Q1199.9725,396.905 1200.66,397.9831 Q1201.3475,399.0456 1202.6913,399.0456 Q1203.3163,399.0456 1203.91,398.78 Q1204.5038,398.4988 1205.1288,397.9206 L1205.1288,400.6394 Z " fill="#000000"/><a href="file:////home/runner/work/BO4E-python/BO4E-python/docs/../.tox/docs/tmp/html/api/bo4e.com.html#bo4e.com.regionalepreisstaffel.RegionalePreisstaffel" target="_top" title="file:////home/runner/work/BO4E-python/BO4E-python/docs/../.tox/docs/tmp/html/api/bo4e.com.html#bo4e.com.regionalepreisstaffel.RegionalePreisstaffel" xlink:actuate="onRequest" xlink:href="file:////home/runner/work/BO4E-python/BO4E-python/docs/../.tox/docs/tmp/html/api/bo4e.com.html#bo4e.com.regionalepreisstaffel.RegionalePreisstaffel" xlink:show="new" xlink:title="file:////home/runner/work/BO4E-python/BO4E-python/docs/../.tox/docs/tmp/html/api/bo4e.com.html#bo4e.com.regionalepreisstaffel.RegionalePreisstaffel" xlink:type="simple"><text fill="#0000FF" font-family="sans-serif" font-size="14" lengthAdjust="spacing" text-decoration="underline" textLength="147.3555" x="1220.1971" y="394.0251">RegionalePreisstaffel</text></a><text fill="#000000" font-family="sans-serif" font-size="10" lengthAdjust="spacing" textLength="155.4297" x="1216.16" y="406.6091">bo4e.com.regionalepreisstaffel</text></g><!--class Vertragskonditionen--><g class="entity" data-entity="Vertragskonditionen" data-source-line="19" data-uid="ent0010" id="entity_Vertragskonditionen"><rect fill="#F1F1F1" height="37.9375" rx="2.5" ry="2.5" style="stroke:#181818;stroke-width:0.5;" width="185.6133" x="1188.07" y="449.03"/><ellipse cx="1203.07" cy="467.9988" fill="#ADD1B2" rx="11" ry="11" style="stroke:#181818;stroke-width:1;"/><path d="M1206.0388,473.6394 Q1205.4606,473.9363 1204.82,474.0769 Q1204.1794,474.2331 1203.4763,474.2331 Q1200.9763,474.2331 1199.6481,472.5925 Q1198.3356,470.9363 1198.3356,467.8113 Q1198.3356,464.6863 1199.6481,463.03 Q1200.9763,461.3738 1203.4763,461.3738 Q1204.1794,461.3738 1204.82,461.53 Q1205.4763,461.6863 1206.0388,461.9831 L1206.0388,464.7019 Q1205.4138,464.1238 1204.82,463.8581 Q1204.2263,463.5769 1203.6013,463.5769 Q1202.2575,463.5769 1201.57,464.655 Q1200.8825,465.7175 1200.8825,467.8113 Q1200.8825,469.905 1201.57,470.9831 Q1202.2575,472.0456 1203.6013,472.0456 Q1204.2263,472.0456 1204.82,471.78 Q1205.4138,471.4988 1206.0388,470.9206 L1206.0388,473.6394 Z " fill="#000000"/><a href="file:////home/runner/work/BO4E-python/BO4E-python/docs/../.tox/docs/tmp/html/api/bo4e.com.html#bo4e.com.vertragskonditionen.Vertragskonditionen" target="_top" title="file:////home/runner/work/BO4E-python/BO4E-python/docs/../.tox/docs/tmp/html/api/bo4e.com.html#bo4e.com.vertragskonditionen.Vertragskonditionen" xlink:actuate="onRequest" xlink:href="file:////home/runner/work/BO4E-python/BO4E-python/docs/../.tox/docs/tmp/html/api/bo4e.com.html#bo4e.com.vertragskonditionen.Vertragskonditionen" xlink:show="new" xlink:title="file:////home/runner/work/BO4E-python/BO4E-python/docs/../.tox/docs/tmp/html/api/bo4e.com.html#bo4e.com.vertragskonditionen.Vertragskonditionen" xlink:type="simple"><text fill="#0000FF" font-family="sans-serif" font-size="14" lengthAdjust="spacing" text-decoration="underline" textLength="142.5771" x="1222.5881" y="467.0251">Vertragskonditionen</text></a><text fill="#000000" font-family="sans-serif" font-size="10" lengthAdjust="spacing" textLength="153.6133" x="1217.07" y="479.6091">bo4e.com.vertragskonditionen</text></g><!--class Tarifeinschraenkung--><g class="entity" data-entity="Tarifeinschraenkung" data-source-line="20" data-uid="ent0011" id="entity_Tarifeinschraenkung"><rect fill="#F1F1F1" height="37.9375" rx="2.5" ry="2.5" style="stroke:#181818;stroke-width:0.5;" width="185.0127" x="1188.37" y="522.03"/><ellipse cx="1203.37" cy="540.9988" fill="#ADD1B2" rx="11" ry="11" style="stroke:#181818;stroke-width:1;"/><path d="M1206.3388,546.6394 Q1205.7606,546.9363 1205.12,547.0769 Q1204.4794,547.2331 1203.7763,547.2331 Q1201.2763,547.2331 1199.9481,545.5925 Q1198.6356,543.9363 1198.6356,540.8113 Q1198.6356,537.6863 1199.9481,536.03 Q1201.2763,534.3738 1203.7763,534.3738 Q1204.4794,534.3738 1205.12,534.53 Q1205.7763,534.6863 1206.3388,534.9831 L1206.3388,537.7019 Q1205.7138,537.1238 1205.12,536.8581 Q1204.5263,536.5769 1203.9013,536.5769 Q1202.5575,536.5769 1201.87,537.655 Q1201.1825,538.7175 1201.1825,540.8113 Q1201.1825,542.905 1201.87,543.9831 Q1202.5575,545.0456 1203.9013,545.0456 Q1204.5263,545.0456 1205.12,544.78 Q1205.7138,544.4988 1206.3388,543.9206 L1206.3388,546.6394 Z " fill="#000000"/><a href="file:////home/runner/work/BO4E-python/BO4E-python/docs/../.tox/docs/tmp/html/api/bo4e.com.html#bo4e.com.tarifeinschraenkung.Tarifeinschraenkung" target="_top" title="file:////home/runner/work/BO4E-python/BO4E-python/docs/../.tox/docs/tmp/html/api/bo4e.com.html#bo4e.com.tarifeinschraenkung.Tarifeinschraenkung" xlink:actuate="onRequest" xlink:href="file:////home/runner/work/BO4E-python/BO4E-python/docs/../.tox/docs/tmp/html/api/bo4e.com.html#bo4e.com.tarifeinschraenkung.Tarifeinschraenkung" xlink:show="new" xlink:title="file:////home/runner/work/BO4E-python/BO4E-python/docs/../.tox/docs/tmp/html/api/bo4e.com.html#bo4e.com.tarifeinschraenkung.Tarifeinschraenkung" xlink:type="simple"><text fill="#0000FF" font-family="sans-serif" font-size="14" lengthAdjust="spacing" text-decoration="underline" textLength="143.5068" x="1222.1229" y="540.0251">Tarifeinschraenkung</text></a><text fill="#000000" font-family="sans-serif" font-size="10" lengthAdjust="spacing" textLength="153.0127" x="1217.37" y="552.6091">bo4e.com.tarifeinschraenkung</text></g><!--class Waehrungseinheit--><g class="entity" data-entity="Waehrungseinheit" data-source-line="23" data-uid="ent0013" id="entity_Waehrungseinheit"><rect fill="#F1F1F1" height="37.9375" rx="2.5" ry="2.5" style="stroke:#181818;stroke-width:0.5;" width="181.5068" x="1190.12" y="635.03"/><ellipse cx="1205.12" cy="653.9988" fill="#ADD1B2" rx="11" ry="11" style="stroke:#181818;stroke-width:1;"/><path d="M1208.0888,659.6394 Q1207.5106,659.9363 1206.87,660.0769 Q1206.2294,660.2331 1205.5263,660.2331 Q1203.0263,660.2331 1201.6981,658.5925 Q1200.3856,656.9363 1200.3856,653.8113 Q1200.3856,650.6863 1201.6981,649.03 Q1203.0263,647.3738 1205.5263,647.3738 Q1206.2294,647.3738 1206.87,647.53 Q1207.5263,647.6863 1208.0888,647.9831 L1208.0888,650.7019 Q1207.4638,650.1238 1206.87,649.8581 Q1206.2763,649.5769 1205.6513,649.5769 Q1204.3075,649.5769 1203.62,650.655 Q1202.9325,651.7175 1202.9325,653.8113 Q1202.9325,655.905 1203.62,656.9831 Q1204.3075,658.0456 1205.6513,658.0456 Q1206.2763,658.0456 1206.87,657.78 Q1207.4638,657.4988 1208.0888,656.9206 L1208.0888,659.6394 Z " fill="#000000"/><a href="file:////home/runner/work/BO4E-python/BO4E-python/docs/../.tox/docs/tmp/html/api/bo4e.enum.html#bo4e.enum.waehrungseinheit.Waehrungseinheit" target="_top" title="file:////home/runner/work/BO4E-python/BO4E-python/docs/../.tox/docs/tmp/html/api/bo4e.enum.html#bo4e.enum.waehrungseinheit.Waehrungseinheit" xlink:actuate="onRequest" xlink:href="file:////home/runner/work/BO4E-python/BO4E-python/docs/../.tox/docs/tmp/html/api/bo4e.enum.html#bo4e.enum.waehrungseinheit.Waehrungseinheit" xlink:show="new" xlink:title="file:////home/runner/work/BO4E-python/BO4E-python/docs/../.tox/docs/tmp/html/api/bo4e.enum.html#bo4e.enum.waehrungseinheit.Waehrungseinheit" xlink:type="simple"><text fill="#0000FF" font-family="sans-serif" font-size="14" lengthAdjust="spacing" text-decoration="underline" textLength="127.832" x="1229.9574" y="653.0251">Waehrungseinheit</text></a><text fill="#000000" font-family="sans-serif" font-size="10" lengthAdjust="spacing" textLength="149.5068" x="1219.12" y="665.6091">bo4e.enum.waehrungseinheit</text></g><!--class AufAbschlagstyp--><g class="entity" data-entity="AufAbschlagstyp" data-source-line="24" data-uid="ent0014" id="entity_AufAbschlagstyp"><rect fill="#F1F1F1" height="37.9375" rx="2.5" ry="2.5" style="stroke:#181818;stroke-width:0.5;" width="174.0654" x="1193.84" y="708.03"/><ellipse cx="1208.84" cy="726.9988" fill="#ADD1B2" rx="11" ry="11" style="stroke:#181818;stroke-width:1;"/><path d="M1211.8088,732.6394 Q1211.2306,732.9363 1210.59,733.0769 Q1209.9494,733.2331 1209.2463,733.2331 Q1206.7463,733.2331 1205.4181,731.5925 Q1204.1056,729.9363 1204.1056,726.8113 Q1204.1056,723.6863 1205.4181,722.03 Q1206.7463,720.3738 1209.2463,720.3738 Q1209.9494,720.3738 1210.59,720.53 Q1211.2463,720.6863 1211.8088,720.9831 L1211.8088,723.7019 Q1211.1838,723.1238 1210.59,722.8581 Q1209.9963,722.5769 1209.3713,722.5769 Q1208.0275,722.5769 1207.34,723.655 Q1206.6525,724.7175 1206.6525,726.8113 Q1206.6525,728.905 1207.34,729.9831 Q1208.0275,731.0456 1209.3713,731.0456 Q1209.9963,731.0456 1210.59,730.78 Q1211.1838,730.4988 1211.8088,729.9206 L1211.8088,732.6394 Z " fill="#000000"/><a href="file:////home/runner/work/BO4E-python/BO4E-python/docs/../.tox/docs/tmp/html/api/bo4e.enum.html#bo4e.enum.aufabschlagstyp.AufAbschlagstyp" target="_top" title="file:////home/runner/work/BO4E-python/BO4E-python/docs/../.tox/docs/tmp/html/api/bo4e.enum.html#bo4e.enum.aufabschlagstyp.AufAbschlagstyp" xlink:actuate="onRequest" xlink:href="file:////home/runner/work/BO4E-python/BO4E-python/docs/../.tox/docs/tmp/html/api/bo4e.enum.html#bo4e.enum.aufabschlagstyp.AufAbschlagstyp" xlink:show="new" xlink:title="file:////home/runner/work/BO4E-python/BO4E-python/docs/../.tox/docs/tmp/html/api/bo4e.enum.html#bo4e.enum.aufabschlagstyp.AufAbschlagstyp" xlink:type="simple"><text fill="#0000FF" font-family="sans-serif" font-size="14" lengthAdjust="spacing" text-decoration="underline" textLength="117.0176" x="1235.3639" y="726.0251">AufAbschlagstyp</text></a><text fill="#000000" font-family="sans-serif" font-size="10" lengthAdjust="spacing" textLength="142.0654" x="1222.84" y="738.6091">bo4e.enum.aufabschlagstyp</text></g><!--class AufAbschlagsziel--><g class="entity" data-entity="AufAbschlagsziel" data-source-line="25" data-uid="ent0015" id="entity_AufAbschlagsziel"><rect fill="#F1F1F1" height="37.9375" rx="2.5" ry="2.5" style="stroke:#181818;stroke-width:0.5;" width="174.8369" x="1193.46" y="781.03"/><ellipse cx="1208.46" cy="799.9988" fill="#ADD1B2" rx="11" ry="11" style="stroke:#181818;stroke-width:1;"/><path d="M1211.4288,805.6394 Q1210.8506,805.9363 1210.21,806.0769 Q1209.5694,806.2331 1208.8663,806.2331 Q1206.3663,806.2331 1205.0381,804.5925 Q1203.7256,802.9363 1203.7256,799.8113 Q1203.7256,796.6863 1205.0381,795.03 Q1206.3663,793.3738 1208.8663,793.3738 Q1209.5694,793.3738 1210.21,793.53 Q1210.8663,793.6863 1211.4288,793.9831 L1211.4288,796.7019 Q1210.8038,796.1238 1210.21,795.8581 Q1209.6163,795.5769 1208.9913,795.5769 Q1207.6475,795.5769 1206.96,796.655 Q1206.2725,797.7175 1206.2725,799.8113 Q1206.2725,801.905 1206.96,802.9831 Q1207.6475,804.0456 1208.9913,804.0456 Q1209.6163,804.0456 1210.21,803.78 Q1210.8038,803.4988 1211.4288,802.9206 L1211.4288,805.6394 Z " fill="#000000"/><a href="file:////home/runner/work/BO4E-python/BO4E-python/docs/../.tox/docs/tmp/html/api/bo4e.enum.html#bo4e.enum.aufabschlagsziel.AufAbschlagsziel" target="_top" title="file:////home/runner/work/BO4E-python/BO4E-python/docs/../.tox/docs/tmp/html/api/bo4e.enum.html#bo4e.enum.aufabschlagsziel.AufAbschlagsziel" xlink:actuate="onRequest" xlink:href="file:////home/runner/work/BO4E-python/BO4E-python/docs/../.tox/docs/tmp/html/api/bo4e.enum.html#bo4e.enum.aufabschlagsziel.AufAbschlagsziel" xlink:show="new" xlink:title="file:////home/runner/work/BO4E-python/BO4E-python/docs/../.tox/docs/tmp/html/api/bo4e.enum.html#bo4e.enum.aufabschlagsziel.AufAbschlagsziel" xlink:type="simple"><text fill="#0000FF" font-family="sans-serif" font-size="14" lengthAdjust="spacing" text-decoration="underline" textLength="118.0977" x="1234.8296" y="799.0251">AufAbschlagsziel</text></a><text fill="#000000" font-family="sans-serif" font-size="10" lengthAdjust="spacing" textLength="142.8369" x="1222.46" y="811.6091">bo4e.enum.aufabschlagsziel</text></g><!--class RegionalerAufAbschlag--><g class="entity" data-entity="RegionalerAufAbschlag" data-source-line="3" data-uid="ent0002" id="entity_RegionalerAufAbschlag"><rect fill="#F1F1F1" height="160.0156" rx="2.5" ry="2.5" style="stroke:#181818;stroke-width:0.5;" width="906.1611" x="7" y="355.99"/><ellipse cx="373.5942" cy="374.9588" fill="#ADD1B2" rx="11" ry="11" style="stroke:#181818;stroke-width:1;"/><path d="M376.563,380.5994 Q375.9849,380.8963 375.3442,381.0369 Q374.7036,381.1931 374.0005,381.1931 Q371.5005,381.1931 370.1724,379.5525 Q368.8599,377.8963 368.8599,374.7713 Q368.8599,371.6463 370.1724,369.99 Q371.5005,368.3338 374.0005,368.3338 Q374.7036,368.3338 375.3442,368.49 Q376.0005,368.6463 376.563,368.9431 L376.563,371.6619 Q375.938,371.0838 375.3442,370.8181 Q374.7505,370.5369 374.1255,370.5369 Q372.7817,370.5369 372.0942,371.615 Q371.4067,372.6775 371.4067,374.7713 Q371.4067,376.865 372.0942,377.9431 Q372.7817,379.0056 374.1255,379.0056 Q374.7505,379.0056 375.3442,378.74 Q375.938,378.4588 376.563,377.8806 L376.563,380.5994 Z " fill="#000000"/><a href="file:////home/runner/work/BO4E-python/BO4E-python/docs/../.tox/docs/tmp/html/api/bo4e.com.html#bo4e.com.regionaleraufabschlag.RegionalerAufAbschlag" target="_top" title="file:////home/runner/work/BO4E-python/BO4E-python/docs/../.tox/docs/tmp/html/api/bo4e.com.html#bo4e.com.regionaleraufabschlag.RegionalerAufAbschlag" xlink:actuate="onRequest" xlink:href="file:////home/runner/work/BO4E-python/BO4E-python/docs/../.tox/docs/tmp/html/api/bo4e.com.html#bo4e.com.regionaleraufabschlag.RegionalerAufAbschlag" xlink:show="new" xlink:title="file:////home/runner/work/BO4E-python/BO4E-python/docs/../.tox/docs/tmp/html/api/bo4e.com.html#bo4e.com.regionaleraufabschlag.RegionalerAufAbschlag" xlink:type="simple"><text fill="#0000FF" font-family="sans-serif" font-size="14" lengthAdjust="spacing" text-decoration="underline" textLength="162.4561" x="395.1025" y="373.9851">RegionalerAufAbschlag</text></a><text fill="#000000" font-family="sans-serif" font-size="10" lengthAdjust="spacing" textLength="164.4727" x="394.0942" y="386.5691">bo4e.com.regionaleraufabschlag</text><line style="stroke:#181818;stroke-width:0.5;" x1="8" x2="912.1611" y1="393.9275" y2="393.9275"/><text fill="#000000" font-family="sans-serif" font-size="14" lengthAdjust="spacing" textLength="894.1611" x="13" y="410.9226">_typ : Literal[&lt;ComTyp.REGIONALERAUFABSCHLAG: 'REGIONALERAUFABSCHLAG'&gt;] [1] = ComTyp.REGIONALERAUFABSCHLAG</text><text fill="#000000" font-family="sans-serif" font-size="14" lengthAdjust="spacing" textLength="220.8281" x="13" y="427.2195">bezeichnung : str [0..1] = None</text><text fill="#000000" font-family="sans-serif" font-size="14" lengthAdjust="spacing" textLength="226.543" x="13" y="443.5164">beschreibung : str [0..1] = None</text><text fill="#000000" font-family="sans-serif" font-size="14" lengthAdjust="spacing" textLength="185.6367" x="13" y="459.8132">website : str [0..1] = None</text><text fill="#000000" font-family="sans-serif" font-size="14" lengthAdjust="spacing" textLength="237.6035" x="13" y="476.1101">zusatzprodukte : str [0..*] = None</text><text fill="#000000" font-family="sans-serif" font-size="14" lengthAdjust="spacing" textLength="249.71" x="13" y="492.407">voraussetzungen : str [0..*] = None</text><text fill="#000000" font-family="sans-serif" font-size="14" lengthAdjust="spacing" textLength="309.3535" x="13" y="508.7039">tarifnamensaenderungen : str [0..1] = None</text></g><!--link RegionalerAufAbschlag to COM--><g class="link" data-entity-1="RegionalerAufAbschlag" data-entity-2="COM" data-source-line="28" data-uid="lnk16" id="link_RegionalerAufAbschlag_COM"><path codeLine="28" d="M786.18,355.55 C838.6,343.02 892.33,330.45 943.16,319 C1043.49,296.4 1143.5964,276.0342 1209.9064,262.8342" fill="none" id="RegionalerAufAbschlag-to-COM" style="stroke:#181818;stroke-width:1;"/><polygon fill="none" points="1227.56,259.32,1208.735,256.9497,1211.0778,268.7188,1227.56,259.32" style="stroke:#181818;stroke-width:1;"/></g><!--link RegionalerAufAbschlag to RegionalePreisstaffel--><g class="link" data-entity-1="RegionalerAufAbschlag" data-entity-2="RegionalePreisstaffel" data-source-line="29" data-uid="lnk17" id="link_RegionalerAufAbschlag_RegionalePreisstaffel"><path codeLine="29" d="M913.59,413.34 C1017.51,408.14 1105.715,403.7206 1174.955,400.2506" fill="none" id="RegionalerAufAbschlag-to-RegionalePreisstaffel" style="stroke:#181818;stroke-width:1;"/><polygon fill="#181818" points="1186.94,399.65,1180.7473,395.9553,1174.955,400.2506,1181.1477,403.9453,1186.94,399.65" style="stroke:#181818;stroke-width:1;"/><text fill="#000000" font-family="sans-serif" font-size="13" lengthAdjust="spacing" textLength="48.8389" x="1013.16" y="399.0669">staffeln</text><text fill="#000000" font-family="sans-serif" font-size="13" lengthAdjust="spacing" textLength="23.0356" x="1156.1984" y="412.6141">0..*</text></g><!--link RegionalerAufAbschlag to AufAbschlagstyp--><g class="link" data-entity-1="RegionalerAufAbschlag" data-entity-2="AufAbschlagstyp" data-source-line="30" data-uid="lnk18" id="link_RegionalerAufAbschlag_AufAbschlagstyp"><path codeLine="30" d="M636.84,516.5 C727.24,556.14 839.86,602.84 943.16,638 C1028.48,667.04 1052.02,666.99 1139.16,690 C1160.78,695.71 1172.6548,698.8374 1194.1348,704.4874" fill="none" id="RegionalerAufAbschlag-to-AufAbschlagstyp" style="stroke:#181818;stroke-width:1;"/><polygon fill="#181818" points="1205.74,707.54,1200.9549,702.1453,1194.1348,704.4874,1198.9198,709.8821,1205.74,707.54" style="stroke:#181818;stroke-width:1;"/><text fill="#000000" font-family="sans-serif" font-size="13" lengthAdjust="spacing" textLength="107.7324" x="983.66" y="634.0669">aufAbschlagstyp</text><text fill="#000000" font-family="sans-serif" font-size="13" lengthAdjust="spacing" textLength="24.8066" x="1160.5997" y="698.0519">0..1</text></g><!--link RegionalerAufAbschlag to AufAbschlagsziel--><g class="link" data-entity-1="RegionalerAufAbschlag" data-entity-2="AufAbschlagsziel" data-source-line="31" data-uid="lnk19" id="link_RegionalerAufAbschlag_AufAbschlagsziel"><path codeLine="31" d="M579.82,516.32 C674.69,577.46 812.89,659.88 943.16,713 C1025.21,746.46 1112.0723,767.7406 1181.3123,781.8706" fill="none" id="RegionalerAufAbschlag-to-AufAbschlagsziel" style="stroke:#181818;stroke-width:1;"/><polygon fill="#181818" points="1193.07,784.27,1187.991,779.1511,1181.3123,781.8706,1186.3914,786.9895,1193.07,784.27" style="stroke:#181818;stroke-width:1;"/><text fill="#000000" font-family="sans-serif" font-size="13" lengthAdjust="spacing" textLength="108.7354" x="983.16" y="709.0669">aufAbschlagsziel</text><text fill="#000000" font-family="sans-serif" font-size="13" lengthAdjust="spacing" textLength="24.8066" x="1160.5274" y="795.6354">0..1</text></g><!--link RegionalerAufAbschlag to Waehrungseinheit--><g class="link" data-entity-1="RegionalerAufAbschlag" data-entity-2="Waehrungseinheit" data-source-line="32" data-uid="lnk20" id="link_RegionalerAufAbschlag_Waehrungseinheit"><path codeLine="32" d="M763.35,516.48 C923.75,559.18 1096.1441,605.0822 1195.4741,631.5322" fill="none" id="RegionalerAufAbschlag-to-Waehrungseinheit" style="stroke:#181818;stroke-width:1;"/><polygon fill="#181818" points="1207.07,634.62,1202.3013,629.2108,1195.4741,631.5322,1200.2428,636.9414,1207.07,634.62" style="stroke:#181818;stroke-width:1;"/><text fill="#000000" font-family="sans-serif" font-size="13" lengthAdjust="spacing" textLength="44.7954" x="1015.16" y="561.0669">einheit</text><text fill="#000000" font-family="sans-serif" font-size="13" lengthAdjust="spacing" textLength="24.8066" x="1157.9837" y="623.8108">0..1</text></g><!--link RegionalerAufAbschlag to Zeitraum--><g class="link" data-entity-1="RegionalerAufAbschlag" data-entity-2="Zeitraum" data-source-line="33" data-uid="lnk21" id="link_RegionalerAufAbschlag_Zeitraum"><path codeLine="33" d="M913.59,373 C1033.05,356.37 1135.6746,342.0741 1203.9346,332.5741" fill="none" id="RegionalerAufAbschlag-to-Zeitraum" style="stroke:#181818;stroke-width:1;"/><polygon fill="#181818" points="1215.82,330.92,1209.3259,327.7853,1203.9346,332.5741,1210.4287,335.7089,1215.82,330.92" style="stroke:#181818;stroke-width:1;"/><text fill="#000000" font-family="sans-serif" font-size="13" lengthAdjust="spacing" textLength="133.8149" x="970.66" y="340.0669">gueltigkeitszeitraum</text><text fill="#000000" font-family="sans-serif" font-size="13" lengthAdjust="spacing" textLength="24.8066" x="1183.436" y="344.7902">0..1</text></g><!--link RegionalerAufAbschlag to Energiemix--><g class="link" data-entity-1="RegionalerAufAbschlag" data-entity-2="Energiemix" data-source-line="34" data-uid="lnk22" id="link_RegionalerAufAbschlag_Energiemix"><path codeLine="34" d="M690.79,355.6 C821.47,311.09 988.62,256.19 1139.16,213 C1162.11,206.42 1175.6794,202.6822 1198.3094,196.7722" fill="none" id="RegionalerAufAbschlag-to-Energiemix" style="stroke:#181818;stroke-width:1;"/><polygon fill="#181818" points="1209.92,193.74,1203.104,191.3859,1198.3094,196.7722,1205.1254,199.1263,1209.92,193.74" style="stroke:#181818;stroke-width:1;"/><text fill="#000000" font-family="sans-serif" font-size="13" lengthAdjust="spacing" textLength="143.9395" x="965.66" y="215.0669">energiemixaenderung</text><text fill="#000000" font-family="sans-serif" font-size="13" lengthAdjust="spacing" textLength="24.8066" x="1177.4071" y="208.4167">0..1</text></g><!--link RegionalerAufAbschlag to Vertragskonditionen--><g class="link" data-entity-1="RegionalerAufAbschlag" data-entity-2="Vertragskonditionen" data-source-line="35" data-uid="lnk23" id="link_RegionalerAufAbschlag_Vertragskonditionen"><path codeLine="35" d="M913.66,457.87 C923.58,458.26 933.43,458.64 943.16,459 C1025.85,462.08 1108.0032,464.2235 1175.6832,465.7835" fill="none" id="RegionalerAufAbschlag-to-Vertragskonditionen" style="stroke:#181818;stroke-width:1;"/><polygon fill="#181818" points="1187.68,466.06,1181.7738,461.9228,1175.6832,465.7835,1181.5894,469.9207,1187.68,466.06" style="stroke:#181818;stroke-width:1;"/><text fill="#000000" font-family="sans-serif" font-size="13" lengthAdjust="spacing" textLength="186.9131" x="944.16" y="455.0669">vertagskonditionsaenderung</text><text fill="#000000" font-family="sans-serif" font-size="13" lengthAdjust="spacing" textLength="24.8066" x="1155.3293" y="478.5753">0..1</text></g><!--link RegionalerAufAbschlag to Preisgarantie--><g class="link" data-entity-1="RegionalerAufAbschlag" data-entity-2="Preisgarantie" data-source-line="36" data-uid="lnk24" id="link_RegionalerAufAbschlag_Preisgarantie"><path codeLine="36" d="M602.76,355.61 C697.08,304.43 824.94,239.45 943.16,194 C1027.5,161.58 1051.91,163.49 1139.16,140 C1160.63,134.22 1172.3543,131.0907 1193.7343,125.4707" fill="none" id="RegionalerAufAbschlag-to-Preisgarantie" style="stroke:#181818;stroke-width:1;"/><polygon fill="#181818" points="1205.34,122.42,1198.5202,120.0768,1193.7343,125.4707,1200.554,127.8139,1205.34,122.42" style="stroke:#181818;stroke-width:1;"/><text fill="#000000" font-family="sans-serif" font-size="13" lengthAdjust="spacing" textLength="125.0044" x="974.66" y="139.0669">garantieaenderung</text><text fill="#000000" font-family="sans-serif" font-size="13" lengthAdjust="spacing" textLength="24.8066" x="1172.3541" y="137.27">0..1</text></g><!--link RegionalerAufAbschlag to Tarifeinschraenkung--><g class="link" data-entity-1="RegionalerAufAbschlag" data-entity-2="Tarifeinschraenkung" data-source-line="37" data-uid="lnk25" id="link_RegionalerAufAbschlag_Tarifeinschraenkung"><path codeLine="37" d="M913.59,494.03 C1018.07,507.43 1106.8674,518.8144 1176.1474,527.6944" fill="none" id="RegionalerAufAbschlag-to-Tarifeinschraenkung" style="stroke:#181818;stroke-width:1;"/><polygon fill="#181818" points="1188.05,529.22,1182.6072,524.4896,1176.1474,527.6944,1181.5901,532.4247,1188.05,529.22" style="stroke:#181818;stroke-width:1;"/><text fill="#000000" font-family="sans-serif" font-size="13" lengthAdjust="spacing" textLength="181.1177" x="946.66" y="494.0669">einschraenkungsaenderung</text><text fill="#000000" font-family="sans-serif" font-size="13" lengthAdjust="spacing" textLength="24.8066" x="1155.4025" y="540.9381">0..1</text></g><!--SRC=[nLPjQzim4FvS_ueZ-L0OL6vPDuhf2cd8ka7NbgxRO5aOYdssHMpPM7BJPjj_dwGrjkCeVOFL0OFkoUdHFNgvkmH32JA3WaMnX80Lw4kMSSVn4oe4zCRZa2NekUeNPocwHSav5kuyAsRkyVd-Q2U_bN76LyP1vWkN49V8xEQV8TFSZMMQk3HdxZJRH-9dAT58lx8AZDJ2DC62bY6T2ZzEQ4GkAtHGXeCx5ApePFA37mgsG6zlz-X-sXvGOIU1NyxMJtcRWmUdJAf9oVXmcALNjpcv79ryF3yRd8uk1r_U3uu_3p-S3auysBRYsqSJ6EzDu1tSDzlPck82cH_paaTgII4B6EyIOYQUPHorWmgiG3RTw377gL2XslzSb8BAHLvaGJbRyNbL-rndQc-4GBbGQo2tEqbQi93J5BcWo0CishxredySHpkAdFhu_syGBAt9n1phqeJ-Q7Tmy7QeJ_J5BtEkJan4jA1SCYGNJGjMBFkbNPbkLArCwa0GAjw8OSfkoAWQGZsqwwXd6H6rUmSAz3Sy_mJgimUhFXEbSkWWF9K6f7g6AVb-Du3bm1xjqj-4l7Jj8EuglvexAoGDGqpgj7tHGC6AFf2scxIhQRj9qe7mQopKdaTYbl60wPg9d7nTny22sILR28rW2q47Sat-HyPrDL85OARIFxbQny22sULQ28rS2u6gA2zGK92NpOgYpMP9qJRqWpt_zPk35wWfLJJzsfnJZ7NT5MfxOlNaoRSM06rWVUkjH4PbUsud4XjDcb1j66cqPjg6bhr1Nul5o6lDx5pTWgaysGnA0z067Y5GkwqfrA1kn3Oqq3ixlu-gJacNnKsEolCLz7GhsAlzxTbTju9cn1yas-lLRshjY3sWhQDwDftPqbK-ip5F8bnxP1uiNyXZUVIcLNNTWwZ4HB9efX2nhEDFucgqO2gOogWQyoUHsOgM1xeQDK7nFFBLrbT9lni-ZyrMSCnfD816e4xC0eGKqoaMmX5nDeSDguNgLWJYBm00]--></g></svg>