<?xml version="1.0" encoding="us-ascii" standalone="no"?><svg xmlns="http://www.w3.org/2000/svg" xmlns:xlink="http://www.w3.org/1999/xlink" contentStyleType="text/css" height="242px" preserveAspectRatio="none" style="width:814px;height:242px;background:#FFFFFF;" version="1.1" viewBox="0 0 814 242" width="814px" zoomAndPan="magnify"><defs/><g><!--cluster bo4e--><g id="cluster_bo4e"><path d="M553.5,6 L594.5,6 A3.75,3.75 0 0 1 597,8.5 L604,28.2969 L804.5,28.2969 A2.5,2.5 0 0 1 807,30.7969 L807,232.5 A2.5,2.5 0 0 1 804.5,235 L553.5,235 A2.5,2.5 0 0 1 551,232.5 L551,8.5 A2.5,2.5 0 0 1 553.5,6 " fill="none" style="stroke:#000000;stroke-width:1.5;"/><line style="stroke:#000000;stroke-width:1.5;" x1="551" x2="604" y1="28.2969" y2="28.2969"/><text fill="#000000" font-family="sans-serif" font-size="14" font-weight="bold" lengthAdjust="spacing" textLength="40" x="555" y="20.9951">bo4e</text></g><!--cluster com--><g id="cluster_com"><path d="M577.5,49 L656.5,49 A3.75,3.75 0 0 1 659,51.5 L666,71.2969 L780.5,71.2969 A2.5,2.5 0 0 1 783,73.7969 L783,208.5 A2.5,2.5 0 0 1 780.5,211 L577.5,211 A2.5,2.5 0 0 1 575,208.5 L575,51.5 A2.5,2.5 0 0 1 577.5,49 " fill="#E0A86C" style="stroke:#000000;stroke-width:1.5;"/><line style="stroke:#000000;stroke-width:1.5;" x1="575" x2="666" y1="71.2969" y2="71.2969"/><a href="https://bo4e.github.io/BO4E-python/latest/api/bo4e.com.html" target="_top" title="https://bo4e.github.io/BO4E-python/latest/api/bo4e.com.html" xlink:actuate="onRequest" xlink:href="https://bo4e.github.io/BO4E-python/latest/api/bo4e.com.html" xlink:show="new" xlink:title="https://bo4e.github.io/BO4E-python/latest/api/bo4e.com.html" xlink:type="simple"><text fill="#0000FF" font-family="sans-serif" font-size="14" font-weight="bold" lengthAdjust="spacing" text-decoration="underline" textLength="78" x="579" y="63.9951">bo4e.com</text></a></g><!--class RegionaleGueltigkeit--><g id="elem_RegionaleGueltigkeit"><rect codeLine="10" fill="#F1F1F1" height="37.9375" id="RegionaleGueltigkeit" rx="2.5" ry="2.5" style="stroke:#181818;stroke-width:0.5;" width="176" x="591" y="84.03"/><ellipse cx="606" cy="102.9988" fill="#ADD1B2" rx="11" ry="11" style="stroke:#181818;stroke-width:1.0;"/><path d="M608.9688,108.6394 Q608.3906,108.9363 607.75,109.0769 Q607.1094,109.2331 606.4063,109.2331 Q603.9063,109.2331 602.5781,107.5925 Q601.2656,105.9363 601.2656,102.8113 Q601.2656,99.6863 602.5781,98.03 Q603.9063,96.3738 606.4063,96.3738 Q607.1094,96.3738 607.75,96.53 Q608.4063,96.6863 608.9688,96.9831 L608.9688,99.7019 Q608.3438,99.1238 607.75,98.8581 Q607.1563,98.5769 606.5313,98.5769 Q605.1875,98.5769 604.5,99.655 Q603.8125,100.7175 603.8125,102.8113 Q603.8125,104.905 604.5,105.9831 Q605.1875,107.0456 606.5313,107.0456 Q607.1563,107.0456 607.75,106.78 Q608.3438,106.4988 608.9688,105.9206 L608.9688,108.6394 Z " fill="#000000"/><a href="https://bo4e.github.io/BO4E-python/latest/api/bo4e.com.html#bo4e.com.regionalegueltigkeit.RegionaleGueltigkeit" target="_top" title="https://bo4e.github.io/BO4E-python/latest/api/bo4e.com.html#bo4e.com.regionalegueltigkeit.RegionaleGueltigkeit" xlink:actuate="onRequest" xlink:href="https://bo4e.github.io/BO4E-python/latest/api/bo4e.com.html#bo4e.com.regionalegueltigkeit.RegionaleGueltigkeit" xlink:show="new" xlink:title="https://bo4e.github.io/BO4E-python/latest/api/bo4e.com.html#bo4e.com.regionalegueltigkeit.RegionaleGueltigkeit" xlink:type="simple"><text fill="#0000FF" font-family="sans-serif" font-size="14" lengthAdjust="spacing" text-decoration="underline" textLength="143" x="620.5" y="102.0251">RegionaleGueltigkeit</text></a><text fill="#000000" font-family="sans-serif" font-size="10" lengthAdjust="spacing" textLength="144" x="620" y="114.6091">bo4e.com.regionalegueltigkeit</text></g><!--class Preisstaffel--><g id="elem_Preisstaffel"><rect codeLine="11" fill="#F1F1F1" height="37.9375" id="Preisstaffel" rx="2.5" ry="2.5" style="stroke:#181818;stroke-width:0.5;" width="137" x="610.5" y="157.03"/><ellipse cx="625.5" cy="175.9988" fill="#ADD1B2" rx="11" ry="11" style="stroke:#181818;stroke-width:1.0;"/><path d="M628.4688,181.6394 Q627.8906,181.9363 627.25,182.0769 Q626.6094,182.2331 625.9063,182.2331 Q623.4063,182.2331 622.0781,180.5925 Q620.7656,178.9363 620.7656,175.8113 Q620.7656,172.6863 622.0781,171.03 Q623.4063,169.3738 625.9063,169.3738 Q626.6094,169.3738 627.25,169.53 Q627.9063,169.6863 628.4688,169.9831 L628.4688,172.7019 Q627.8438,172.1238 627.25,171.8581 Q626.6563,171.5769 626.0313,171.5769 Q624.6875,171.5769 624,172.655 Q623.3125,173.7175 623.3125,175.8113 Q623.3125,177.905 624,178.9831 Q624.6875,180.0456 626.0313,180.0456 Q626.6563,180.0456 627.25,179.78 Q627.8438,179.4988 628.4688,178.9206 L628.4688,181.6394 Z " fill="#000000"/><a href="https://bo4e.github.io/BO4E-python/latest/api/bo4e.com.html#bo4e.com.preisstaffel.Preisstaffel" target="_top" title="https://bo4e.github.io/BO4E-python/latest/api/bo4e.com.html#bo4e.com.preisstaffel.Preisstaffel" xlink:actuate="onRequest" xlink:href="https://bo4e.github.io/BO4E-python/latest/api/bo4e.com.html#bo4e.com.preisstaffel.Preisstaffel" xlink:show="new" xlink:title="https://bo4e.github.io/BO4E-python/latest/api/bo4e.com.html#bo4e.com.preisstaffel.Preisstaffel" xlink:type="simple"><text fill="#0000FF" font-family="sans-serif" font-size="14" lengthAdjust="spacing" text-decoration="underline" textLength="75" x="654.5" y="175.0251">Preisstaffel</text></a><text fill="#000000" font-family="sans-serif" font-size="10" lengthAdjust="spacing" textLength="105" x="639.5" y="187.6091">bo4e.com.preisstaffel</text></g><!--class RegionalePreisstaffel--><g id="elem_RegionalePreisstaffel"><rect codeLine="3" fill="#F1F1F1" height="94.8281" id="RegionalePreisstaffel" rx="2.5" ry="2.5" style="stroke:#181818;stroke-width:0.5;" width="369" x="7" y="92.59"/><ellipse cx="112.75" cy="111.5588" fill="#ADD1B2" rx="11" ry="11" style="stroke:#181818;stroke-width:1.0;"/><path d="M115.7188,117.1994 Q115.1406,117.4963 114.5,117.6369 Q113.8594,117.7931 113.1563,117.7931 Q110.6563,117.7931 109.3281,116.1525 Q108.0156,114.4963 108.0156,111.3713 Q108.0156,108.2463 109.3281,106.59 Q110.6563,104.9338 113.1563,104.9338 Q113.8594,104.9338 114.5,105.09 Q115.1563,105.2463 115.7188,105.5431 L115.7188,108.2619 Q115.0938,107.6838 114.5,107.4181 Q113.9063,107.1369 113.2813,107.1369 Q111.9375,107.1369 111.25,108.215 Q110.5625,109.2775 110.5625,111.3713 Q110.5625,113.465 111.25,114.5431 Q111.9375,115.6056 113.2813,115.6056 Q113.9063,115.6056 114.5,115.34 Q115.0938,115.0588 115.7188,114.4806 L115.7188,117.1994 Z " fill="#000000"/><a href="https://bo4e.github.io/BO4E-python/latest/api/bo4e.com.html#bo4e.com.regionalepreisstaffel.RegionalePreisstaffel" target="_top" title="https://bo4e.github.io/BO4E-python/latest/api/bo4e.com.html#bo4e.com.regionalepreisstaffel.RegionalePreisstaffel" xlink:actuate="onRequest" xlink:href="https://bo4e.github.io/BO4E-python/latest/api/bo4e.com.html#bo4e.com.regionalepreisstaffel.RegionalePreisstaffel" xlink:show="new" xlink:title="https://bo4e.github.io/BO4E-python/latest/api/bo4e.com.html#bo4e.com.regionalepreisstaffel.RegionalePreisstaffel" xlink:type="simple"><text fill="#0000FF" font-family="sans-serif" font-size="14" lengthAdjust="spacing" text-decoration="underline" textLength="144" x="135.75" y="110.5851">RegionalePreisstaffel</text></a><text fill="#000000" font-family="sans-serif" font-size="10" lengthAdjust="spacing" textLength="149" x="133.25" y="123.1691">bo4e.com.regionalepreisstaffel</text><line style="stroke:#181818;stroke-width:0.5;" x1="8" x2="375" y1="130.5275" y2="130.5275"/><text fill="#000000" font-family="sans-serif" font-size="14" lengthAdjust="spacing" textLength="357" x="13" y="147.5226">_version : str [0..1] = 202401.7.1.dev1+gcbc02070</text><text fill="#000000" font-family="sans-serif" font-size="14" lengthAdjust="spacing" textLength="147" x="13" y="163.8195">_id : str [0..1] = None</text><text fill="#000000" font-family="sans-serif" font-size="14" lengthAdjust="spacing" textLength="311" x="13" y="180.1164">zusatzAttribute : ZusatzAttribut [0..*] = None</text></g><!--link RegionalePreisstaffel to Preisstaffel--><g id="link_RegionalePreisstaffel_Preisstaffel"><path codeLine="14" d="M376.39,153.64 C458.25,159.71 531.6594,165.1478 592.1594,169.6378 " fill="none" id="RegionalePreisstaffel-to-Preisstaffel" style="stroke:#181818;stroke-width:1.0;"/><polygon fill="none" points="610.11,170.97,592.6034,163.6543,591.7153,175.6213,610.11,170.97" style="stroke:#181818;stroke-width:1.0;"/></g><!--link RegionalePreisstaffel to RegionaleGueltigkeit--><g id="link_RegionalePreisstaffel_RegionaleGueltigkeit"><path codeLine="15" d="M376.39,125.99 C449.93,120.38 519.1747,115.1013 578.7847,110.5613 " fill="none" id="RegionalePreisstaffel-to-RegionaleGueltigkeit" style="stroke:#181818;stroke-width:1.0;"/><polygon fill="#181818" points="590.75,109.65,584.4636,106.1172,578.7847,110.5613,585.0711,114.0941,590.75,109.65" style="stroke:#181818;stroke-width:1.0;"/><text fill="#000000" font-family="sans-serif" font-size="13" lengthAdjust="spacing" textLength="127" x="407" y="110.0669">regionaleGueltigkeit</text><text fill="#000000" font-family="sans-serif" font-size="13" lengthAdjust="spacing" textLength="24" x="559.0746" y="122.8054">0..1</text></g><!--SRC=[jLB1JeD053pBLxpGMqqNQ1fhY3Qffl6cngELc0KUi75XoUwZngh_Bgrf2qhjGJs-sPdPl3SZCI4W1Lga6K4iD4OaL65PaUJ6W3sVPqIbyHqdL2DagQ2i2fbGpiNDQ3OeNoXJXICveI67b-AJ5QcSPPJBtdRIcDQkN6AfKHX3F4bGihiDUjj0eHCDWeVYp8Wb-fux-TdM1cwwJU3LEdfSe3Rr4_XWICFSPSmBu1o6xd3aUcpCF1RZmZjEep1oX-xOhIKY_ig-LWLQHylAS5fEYRG8AyAQTDz2rlp-blzkMGNFqPGymbzU5ZPJ4ApNtOpGcxdJqvFBrQR_b61QeIIHFg6WNO1NEn2wm0FnDJpRwJKi_dgXLXDRBJdSkszrQqfMEU-fzc3mDjbcrVfqdwAMzC5UrSxU2JlFxeFkkfgLYHWXnpoiUs-PJ3t3dgyIWJ8s7m00]--></g></svg>