<?xml version="1.0" encoding="us-ascii" standalone="no"?><svg xmlns="http://www.w3.org/2000/svg" xmlns:xlink="http://www.w3.org/1999/xlink" contentStyleType="text/css" height="242px" preserveAspectRatio="none" style="width:815px;height:242px;background:#FFFFFF;" version="1.1" viewBox="0 0 815 242" width="815px" zoomAndPan="magnify"><defs/><g><!--cluster bo4e--><g id="cluster_bo4e"><path d="M554.5,6 L595.5,6 A3.75,3.75 0 0 1 598,8.5 L605,28.2969 L805.5,28.2969 A2.5,2.5 0 0 1 808,30.7969 L808,232.5 A2.5,2.5 0 0 1 805.5,235 L554.5,235 A2.5,2.5 0 0 1 552,232.5 L552,8.5 A2.5,2.5 0 0 1 554.5,6 " fill="none" style="stroke:#000000;stroke-width:1.5;"/><line style="stroke:#000000;stroke-width:1.5;" x1="552" x2="605" y1="28.2969" y2="28.2969"/><text fill="#000000" font-family="sans-serif" font-size="14" font-weight="bold" lengthAdjust="spacing" textLength="40" x="556" y="20.9951">bo4e</text></g><!--cluster com--><g id="cluster_com"><path d="M578.5,49 L657.5,49 A3.75,3.75 0 0 1 660,51.5 L667,71.2969 L781.5,71.2969 A2.5,2.5 0 0 1 784,73.7969 L784,208.5 A2.5,2.5 0 0 1 781.5,211 L578.5,211 A2.5,2.5 0 0 1 576,208.5 L576,51.5 A2.5,2.5 0 0 1 578.5,49 " fill="#E0A86C" style="stroke:#000000;stroke-width:1.5;"/><line style="stroke:#000000;stroke-width:1.5;" x1="576" x2="667" y1="71.2969" y2="71.2969"/><a href="https://bo4e.github.io/BO4E-python/latest/api/bo4e.com.html" target="_top" title="https://bo4e.github.io/BO4E-python/latest/api/bo4e.com.html" xlink:actuate="onRequest" xlink:href="https://bo4e.github.io/BO4E-python/latest/api/bo4e.com.html" xlink:show="new" xlink:title="https://bo4e.github.io/BO4E-python/latest/api/bo4e.com.html" xlink:type="simple"><text fill="#0000FF" font-family="sans-serif" font-size="14" font-weight="bold" lengthAdjust="spacing" text-decoration="underline" textLength="78" x="580" y="63.9951">bo4e.com</text></a></g><!--class Preisstaffel--><g id="elem_Preisstaffel"><rect codeLine="10" fill="#F1F1F1" height="37.9375" id="Preisstaffel" rx="2.5" ry="2.5" style="stroke:#181818;stroke-width:0.5;" width="137" x="611.5" y="84.03"/><ellipse cx="626.5" cy="102.9988" fill="#ADD1B2" rx="11" ry="11" style="stroke:#181818;stroke-width:1.0;"/><path d="M629.4688,108.6394 Q628.8906,108.9363 628.25,109.0769 Q627.6094,109.2331 626.9063,109.2331 Q624.4063,109.2331 623.0781,107.5925 Q621.7656,105.9363 621.7656,102.8113 Q621.7656,99.6863 623.0781,98.03 Q624.4063,96.3738 626.9063,96.3738 Q627.6094,96.3738 628.25,96.53 Q628.9063,96.6863 629.4688,96.9831 L629.4688,99.7019 Q628.8438,99.1238 628.25,98.8581 Q627.6563,98.5769 627.0313,98.5769 Q625.6875,98.5769 625,99.655 Q624.3125,100.7175 624.3125,102.8113 Q624.3125,104.905 625,105.9831 Q625.6875,107.0456 627.0313,107.0456 Q627.6563,107.0456 628.25,106.78 Q628.8438,106.4988 629.4688,105.9206 L629.4688,108.6394 Z " fill="#000000"/><a href="https://bo4e.github.io/BO4E-python/latest/api/bo4e.com.html#bo4e.com.preisstaffel.Preisstaffel" target="_top" title="https://bo4e.github.io/BO4E-python/latest/api/bo4e.com.html#bo4e.com.preisstaffel.Preisstaffel" xlink:actuate="onRequest" xlink:href="https://bo4e.github.io/BO4E-python/latest/api/bo4e.com.html#bo4e.com.preisstaffel.Preisstaffel" xlink:show="new" xlink:title="https://bo4e.github.io/BO4E-python/latest/api/bo4e.com.html#bo4e.com.preisstaffel.Preisstaffel" xlink:type="simple"><text fill="#0000FF" font-family="sans-serif" font-size="14" lengthAdjust="spacing" text-decoration="underline" textLength="75" x="655.5" y="102.0251">Preisstaffel</text></a><text fill="#000000" font-family="sans-serif" font-size="10" lengthAdjust="spacing" textLength="105" x="640.5" y="114.6091">bo4e.com.preisstaffel</text></g><!--class RegionaleGueltigkeit--><g id="elem_RegionaleGueltigkeit"><rect codeLine="11" fill="#F1F1F1" height="37.9375" id="RegionaleGueltigkeit" rx="2.5" ry="2.5" style="stroke:#181818;stroke-width:0.5;" width="176" x="592" y="157.03"/><ellipse cx="607" cy="175.9988" fill="#ADD1B2" rx="11" ry="11" style="stroke:#181818;stroke-width:1.0;"/><path d="M609.9688,181.6394 Q609.3906,181.9363 608.75,182.0769 Q608.1094,182.2331 607.4063,182.2331 Q604.9063,182.2331 603.5781,180.5925 Q602.2656,178.9363 602.2656,175.8113 Q602.2656,172.6863 603.5781,171.03 Q604.9063,169.3738 607.4063,169.3738 Q608.1094,169.3738 608.75,169.53 Q609.4063,169.6863 609.9688,169.9831 L609.9688,172.7019 Q609.3438,172.1238 608.75,171.8581 Q608.1563,171.5769 607.5313,171.5769 Q606.1875,171.5769 605.5,172.655 Q604.8125,173.7175 604.8125,175.8113 Q604.8125,177.905 605.5,178.9831 Q606.1875,180.0456 607.5313,180.0456 Q608.1563,180.0456 608.75,179.78 Q609.3438,179.4988 609.9688,178.9206 L609.9688,181.6394 Z " fill="#000000"/><a href="https://bo4e.github.io/BO4E-python/latest/api/bo4e.com.html#bo4e.com.regionalegueltigkeit.RegionaleGueltigkeit" target="_top" title="https://bo4e.github.io/BO4E-python/latest/api/bo4e.com.html#bo4e.com.regionalegueltigkeit.RegionaleGueltigkeit" xlink:actuate="onRequest" xlink:href="https://bo4e.github.io/BO4E-python/latest/api/bo4e.com.html#bo4e.com.regionalegueltigkeit.RegionaleGueltigkeit" xlink:show="new" xlink:title="https://bo4e.github.io/BO4E-python/latest/api/bo4e.com.html#bo4e.com.regionalegueltigkeit.RegionaleGueltigkeit" xlink:type="simple"><text fill="#0000FF" font-family="sans-serif" font-size="14" lengthAdjust="spacing" text-decoration="underline" textLength="143" x="621.5" y="175.0251">RegionaleGueltigkeit</text></a><text fill="#000000" font-family="sans-serif" font-size="10" lengthAdjust="spacing" textLength="144" x="621" y="187.6091">bo4e.com.regionalegueltigkeit</text></g><!--class RegionalePreisstaffel--><g id="elem_RegionalePreisstaffel"><rect codeLine="3" fill="#F1F1F1" height="94.8281" id="RegionalePreisstaffel" rx="2.5" ry="2.5" style="stroke:#181818;stroke-width:0.5;" width="370" x="7" y="92.59"/><ellipse cx="113.25" cy="111.5588" fill="#ADD1B2" rx="11" ry="11" style="stroke:#181818;stroke-width:1.0;"/><path d="M116.2188,117.1994 Q115.6406,117.4963 115,117.6369 Q114.3594,117.7931 113.6563,117.7931 Q111.1563,117.7931 109.8281,116.1525 Q108.5156,114.4963 108.5156,111.3713 Q108.5156,108.2463 109.8281,106.59 Q111.1563,104.9338 113.6563,104.9338 Q114.3594,104.9338 115,105.09 Q115.6563,105.2463 116.2188,105.5431 L116.2188,108.2619 Q115.5938,107.6838 115,107.4181 Q114.4063,107.1369 113.7813,107.1369 Q112.4375,107.1369 111.75,108.215 Q111.0625,109.2775 111.0625,111.3713 Q111.0625,113.465 111.75,114.5431 Q112.4375,115.6056 113.7813,115.6056 Q114.4063,115.6056 115,115.34 Q115.5938,115.0588 116.2188,114.4806 L116.2188,117.1994 Z " fill="#000000"/><a href="https://bo4e.github.io/BO4E-python/latest/api/bo4e.com.html#bo4e.com.regionalepreisstaffel.RegionalePreisstaffel" target="_top" title="https://bo4e.github.io/BO4E-python/latest/api/bo4e.com.html#bo4e.com.regionalepreisstaffel.RegionalePreisstaffel" xlink:actuate="onRequest" xlink:href="https://bo4e.github.io/BO4E-python/latest/api/bo4e.com.html#bo4e.com.regionalepreisstaffel.RegionalePreisstaffel" xlink:show="new" xlink:title="https://bo4e.github.io/BO4E-python/latest/api/bo4e.com.html#bo4e.com.regionalepreisstaffel.RegionalePreisstaffel" xlink:type="simple"><text fill="#0000FF" font-family="sans-serif" font-size="14" lengthAdjust="spacing" text-decoration="underline" textLength="144" x="136.25" y="110.5851">RegionalePreisstaffel</text></a><text fill="#000000" font-family="sans-serif" font-size="10" lengthAdjust="spacing" textLength="149" x="133.75" y="123.1691">bo4e.com.regionalepreisstaffel</text><line style="stroke:#181818;stroke-width:0.5;" x1="8" x2="376" y1="130.5275" y2="130.5275"/><text fill="#000000" font-family="sans-serif" font-size="14" lengthAdjust="spacing" textLength="358" x="13" y="147.5226">_version : str [0..1] = 202401.6.1.dev8+gb2857c11</text><text fill="#000000" font-family="sans-serif" font-size="14" lengthAdjust="spacing" textLength="147" x="13" y="163.8195">_id : str [0..1] = None</text><text fill="#000000" font-family="sans-serif" font-size="14" lengthAdjust="spacing" textLength="311" x="13" y="180.1164">zusatzAttribute : ZusatzAttribut [0..*] = None</text></g><!--link RegionalePreisstaffel to Preisstaffel--><g id="link_RegionalePreisstaffel_Preisstaffel"><path codeLine="14" d="M377.43,125.96 C459.33,119.72 532.7219,114.1353 593.1919,109.5353 " fill="none" id="RegionalePreisstaffel-to-Preisstaffel" style="stroke:#181818;stroke-width:1.0;"/><polygon fill="none" points="611.14,108.17,592.7367,103.5526,593.647,115.518,611.14,108.17" style="stroke:#181818;stroke-width:1.0;"/></g><!--link RegionalePreisstaffel to RegionaleGueltigkeit--><g id="link_RegionalePreisstaffel_RegionaleGueltigkeit"><path codeLine="15" d="M377.43,153.66 C451.01,159.11 520.2327,164.2444 579.8227,168.6544 " fill="none" id="RegionalePreisstaffel-to-RegionaleGueltigkeit" style="stroke:#181818;stroke-width:1.0;"/><polygon fill="#181818" points="591.79,169.54,586.1016,165.1081,579.8227,168.6544,585.5111,173.0863,591.79,169.54" style="stroke:#181818;stroke-width:1.0;"/><text fill="#000000" font-family="sans-serif" font-size="13" lengthAdjust="spacing" textLength="127" x="408" y="153.0669">regionaleGueltigkeit</text><text fill="#000000" font-family="sans-serif" font-size="13" lengthAdjust="spacing" textLength="24" x="560.1177" y="181.6917">0..1</text></g><!--SRC=[hL9DJuD053oxl-A5tcgwG5DhGxH9DOqtDHwjn2pmW8ryPVTHOzN_Bgqf1QNsO8zlc1dslPa4GmBAGSae9WYaGfzadZ7c9q9hC1QBcAZGZcbw-GXv92akFIvpy-fkD1yKRnJdcPa8GascAEGtoyzJ7bEQzEf9OLIvYWGBXL9h4c682N_OelSD53fHrttABhHSeMDRqxzj3H2wsmJUsSdp4fMkFe43cXGiBCvj5ovXQ0r7bit7tEO1BYUdaJUSd9txjbr9PF2JVPjdo4vMfHQqcX4fwPM45UcnXMpu_Ph_oLWcKjI5yF6VbuNjvBgRTRSZzERMR3A-Nczwt0HRmRMEUZYcN-aq9ST-QDs9gCI4PFI2adPDkzc1q0KUw5d3irspXiKwvptL7Wm-fdLMhIlkKrIIFXZhsXaxOUSs3gYknx1O1WWffbxLUwRZ_1Ns_2gKc0Jw2m00]--></g></svg>