<svg xmlns="http://www.w3.org/2000/svg" xmlns:xlink="http://www.w3.org/1999/xlink" contentStyleType="text/css" data-diagram-type="CLASS" height="242px" preserveAspectRatio="none" style="width:803px;height:242px;background:#FFFFFF;" version="1.1" viewBox="0 0 803 242" width="803px" zoomAndPan="magnify"><defs/><g><!--cluster bo4e--><g class="cluster" data-entity="bo4e" data-source-line="10" data-uid="ent0005" id="cluster_bo4e"><path d="M533.71,6 L573.586,6 A3.75,3.75 0 0 1 576.086,8.5 L583.086,28.2969 L793.61,28.2969 A2.5,2.5 0 0 1 796.11,30.7969 L796.11,232.5 A2.5,2.5 0 0 1 793.61,235 L533.71,235 A2.5,2.5 0 0 1 531.21,232.5 L531.21,8.5 A2.5,2.5 0 0 1 533.71,6" fill="none" style="stroke:#000000;stroke-width:1.5;"/><line style="stroke:#000000;stroke-width:1.5;" x1="531.21" x2="583.086" y1="28.2969" y2="28.2969"/><text fill="#000000" font-family="sans-serif" font-size="14" font-weight="bold" lengthAdjust="spacing" textLength="38.876" x="535.21" y="20.9951">bo4e</text></g><!--cluster com--><g class="cluster" data-entity="com" data-source-line="9" data-uid="ent0003" id="cluster_com"><path d="M557.71,49 L635.4092,49 A3.75,3.75 0 0 1 637.9092,51.5 L644.9092,71.2969 L769.61,71.2969 A2.5,2.5 0 0 1 772.11,73.7969 L772.11,208.5 A2.5,2.5 0 0 1 769.61,211 L557.71,211 A2.5,2.5 0 0 1 555.21,208.5 L555.21,51.5 A2.5,2.5 0 0 1 557.71,49" fill="#E0A86C" style="stroke:#000000;stroke-width:1.5;"/><line style="stroke:#000000;stroke-width:1.5;" x1="555.21" x2="644.9092" y1="71.2969" y2="71.2969"/><a href="file:////home/runner/work/BO4E-python/BO4E-python/docs/../.tox/docs/tmp/html/api/bo4e.com.html" target="_top" title="file:////home/runner/work/BO4E-python/BO4E-python/docs/../.tox/docs/tmp/html/api/bo4e.com.html" xlink:actuate="onRequest" xlink:href="file:////home/runner/work/BO4E-python/BO4E-python/docs/../.tox/docs/tmp/html/api/bo4e.com.html" xlink:show="new" xlink:title="file:////home/runner/work/BO4E-python/BO4E-python/docs/../.tox/docs/tmp/html/api/bo4e.com.html" xlink:type="simple"><text fill="#0000FF" font-family="sans-serif" font-size="14" font-weight="bold" lengthAdjust="spacing" text-decoration="underline" textLength="76.6992" x="559.21" y="63.9951">bo4e.com</text></a></g><!--class Preisstaffel--><g class="entity" data-entity="Preisstaffel" data-source-line="10" data-uid="ent0004" id="entity_Preisstaffel"><rect fill="#F1F1F1" height="37.9375" rx="2.5" ry="2.5" style="stroke:#181818;stroke-width:0.5;" width="140.5254" x="593.4" y="84.03"/><ellipse cx="608.4" cy="102.9988" fill="#ADD1B2" rx="11" ry="11" style="stroke:#181818;stroke-width:1;"/><path d="M611.3688,108.6394 Q610.7906,108.9363 610.15,109.0769 Q609.5094,109.2331 608.8063,109.2331 Q606.3063,109.2331 604.9781,107.5925 Q603.6656,105.9363 603.6656,102.8113 Q603.6656,99.6863 604.9781,98.03 Q606.3063,96.3738 608.8063,96.3738 Q609.5094,96.3738 610.15,96.53 Q610.8063,96.6863 611.3688,96.9831 L611.3688,99.7019 Q610.7438,99.1238 610.15,98.8581 Q609.5563,98.5769 608.9313,98.5769 Q607.5875,98.5769 606.9,99.655 Q606.2125,100.7175 606.2125,102.8113 Q606.2125,104.905 606.9,105.9831 Q607.5875,107.0456 608.9313,107.0456 Q609.5563,107.0456 610.15,106.78 Q610.7438,106.4988 611.3688,105.9206 L611.3688,108.6394 Z " fill="#000000"/><a href="file:////home/runner/work/BO4E-python/BO4E-python/docs/../.tox/docs/tmp/html/api/bo4e.com.html#bo4e.com.preisstaffel.Preisstaffel" target="_top" title="file:////home/runner/work/BO4E-python/BO4E-python/docs/../.tox/docs/tmp/html/api/bo4e.com.html#bo4e.com.preisstaffel.Preisstaffel" xlink:actuate="onRequest" xlink:href="file:////home/runner/work/BO4E-python/BO4E-python/docs/../.tox/docs/tmp/html/api/bo4e.com.html#bo4e.com.preisstaffel.Preisstaffel" xlink:show="new" xlink:title="file:////home/runner/work/BO4E-python/BO4E-python/docs/../.tox/docs/tmp/html/api/bo4e.com.html#bo4e.com.preisstaffel.Preisstaffel" xlink:type="simple"><text fill="#0000FF" font-family="sans-serif" font-size="14" lengthAdjust="spacing" text-decoration="underline" textLength="77.7178" x="637.8038" y="102.0251">Preisstaffel</text></a><text fill="#000000" font-family="sans-serif" font-size="10" lengthAdjust="spacing" textLength="108.5254" x="622.4" y="114.6091">bo4e.com.preisstaffel</text></g><!--class RegionaleGueltigkeit--><g class="entity" data-entity="RegionaleGueltigkeit" data-source-line="11" data-uid="ent0006" id="entity_RegionaleGueltigkeit"><rect fill="#F1F1F1" height="37.9375" rx="2.5" ry="2.5" style="stroke:#181818;stroke-width:0.5;" width="184.9053" x="571.21" y="157.03"/><ellipse cx="586.21" cy="175.9988" fill="#ADD1B2" rx="11" ry="11" style="stroke:#181818;stroke-width:1;"/><path d="M589.1788,181.6394 Q588.6006,181.9363 587.96,182.0769 Q587.3194,182.2331 586.6163,182.2331 Q584.1163,182.2331 582.7881,180.5925 Q581.4756,178.9363 581.4756,175.8113 Q581.4756,172.6863 582.7881,171.03 Q584.1163,169.3738 586.6163,169.3738 Q587.3194,169.3738 587.96,169.53 Q588.6163,169.6863 589.1788,169.9831 L589.1788,172.7019 Q588.5538,172.1238 587.96,171.8581 Q587.3663,171.5769 586.7413,171.5769 Q585.3975,171.5769 584.71,172.655 Q584.0225,173.7175 584.0225,175.8113 Q584.0225,177.905 584.71,178.9831 Q585.3975,180.0456 586.7413,180.0456 Q587.3663,180.0456 587.96,179.78 Q588.5538,179.4988 589.1788,178.9206 L589.1788,181.6394 Z " fill="#000000"/><a href="file:////home/runner/work/BO4E-python/BO4E-python/docs/../.tox/docs/tmp/html/api/bo4e.com.html#bo4e.com.regionalegueltigkeit.RegionaleGueltigkeit" target="_top" title="file:////home/runner/work/BO4E-python/BO4E-python/docs/../.tox/docs/tmp/html/api/bo4e.com.html#bo4e.com.regionalegueltigkeit.RegionaleGueltigkeit" xlink:actuate="onRequest" xlink:href="file:////home/runner/work/BO4E-python/BO4E-python/docs/../.tox/docs/tmp/html/api/bo4e.com.html#bo4e.com.regionalegueltigkeit.RegionaleGueltigkeit" xlink:show="new" xlink:title="file:////home/runner/work/BO4E-python/BO4E-python/docs/../.tox/docs/tmp/html/api/bo4e.com.html#bo4e.com.regionalegueltigkeit.RegionaleGueltigkeit" xlink:type="simple"><text fill="#0000FF" font-family="sans-serif" font-size="14" lengthAdjust="spacing" text-decoration="underline" textLength="146.2275" x="603.5489" y="175.0251">RegionaleGueltigkeit</text></a><text fill="#000000" font-family="sans-serif" font-size="10" lengthAdjust="spacing" textLength="152.9053" x="600.21" y="187.6091">bo4e.com.regionalegueltigkeit</text></g><!--class RegionalePreisstaffel--><g class="entity" data-entity="RegionalePreisstaffel" data-source-line="3" data-uid="ent0002" id="entity_RegionalePreisstaffel"><rect fill="#F1F1F1" height="94.8281" rx="2.5" ry="2.5" style="stroke:#181818;stroke-width:0.5;" width="344.2061" x="7" y="92.59"/><ellipse cx="97.1382" cy="111.5588" fill="#ADD1B2" rx="11" ry="11" style="stroke:#181818;stroke-width:1;"/><path d="M100.1069,117.1994 Q99.5288,117.4963 98.8882,117.6369 Q98.2476,117.7931 97.5444,117.7931 Q95.0444,117.7931 93.7163,116.1525 Q92.4038,114.4963 92.4038,111.3713 Q92.4038,108.2463 93.7163,106.59 Q95.0444,104.9338 97.5444,104.9338 Q98.2476,104.9338 98.8882,105.09 Q99.5444,105.2463 100.1069,105.5431 L100.1069,108.2619 Q99.4819,107.6838 98.8882,107.4181 Q98.2944,107.1369 97.6694,107.1369 Q96.3257,107.1369 95.6382,108.215 Q94.9507,109.2775 94.9507,111.3713 Q94.9507,113.465 95.6382,114.5431 Q96.3257,115.6056 97.6694,115.6056 Q98.2944,115.6056 98.8882,115.34 Q99.4819,115.0588 100.1069,114.4806 L100.1069,117.1994 Z " fill="#000000"/><a href="file:////home/runner/work/BO4E-python/BO4E-python/docs/../.tox/docs/tmp/html/api/bo4e.com.html#bo4e.com.regionalepreisstaffel.RegionalePreisstaffel" target="_top" title="file:////home/runner/work/BO4E-python/BO4E-python/docs/../.tox/docs/tmp/html/api/bo4e.com.html#bo4e.com.regionalepreisstaffel.RegionalePreisstaffel" xlink:actuate="onRequest" xlink:href="file:////home/runner/work/BO4E-python/BO4E-python/docs/../.tox/docs/tmp/html/api/bo4e.com.html#bo4e.com.regionalepreisstaffel.RegionalePreisstaffel" xlink:show="new" xlink:title="file:////home/runner/work/BO4E-python/BO4E-python/docs/../.tox/docs/tmp/html/api/bo4e.com.html#bo4e.com.regionalepreisstaffel.RegionalePreisstaffel" xlink:type="simple"><text fill="#0000FF" font-family="sans-serif" font-size="14" lengthAdjust="spacing" text-decoration="underline" textLength="147.3555" x="121.6753" y="110.5851">RegionalePreisstaffel</text></a><text fill="#000000" font-family="sans-serif" font-size="10" lengthAdjust="spacing" textLength="155.4297" x="117.6382" y="123.1691">bo4e.com.regionalepreisstaffel</text><line style="stroke:#181818;stroke-width:0.5;" x1="8" x2="350.2061" y1="130.5275" y2="130.5275"/><text fill="#000000" font-family="sans-serif" font-size="14" lengthAdjust="spacing" textLength="332.2061" x="13" y="147.5226">_version : str [0..1] = 202501.0.0+g245ac3b0a</text><text fill="#000000" font-family="sans-serif" font-size="14" lengthAdjust="spacing" textLength="151.1768" x="13" y="163.8195">_id : str [0..1] = None</text><text fill="#000000" font-family="sans-serif" font-size="14" lengthAdjust="spacing" textLength="318.5752" x="13" y="180.1164">zusatzAttribute : ZusatzAttribut [0..*] = None</text></g><!--link RegionalePreisstaffel to Preisstaffel--><g class="link" data-entity-1="RegionalePreisstaffel" data-entity-2="Preisstaffel" data-source-line="14" data-uid="lnk7" id="link_RegionalePreisstaffel_Preisstaffel"><path codeLine="14" d="M351.59,126.85 C434.76,120.47 512.0827,114.5468 575.0427,109.7168" fill="none" id="RegionalePreisstaffel-to-Preisstaffel" style="stroke:#181818;stroke-width:1;"/><polygon fill="none" points="592.99,108.34,574.5838,103.7344,575.5017,115.6993,592.99,108.34" style="stroke:#181818;stroke-width:1;"/></g><!--link RegionalePreisstaffel to RegionaleGueltigkeit--><g class="link" data-entity-1="RegionalePreisstaffel" data-entity-2="RegionaleGueltigkeit" data-source-line="15" data-uid="lnk8" id="link_RegionalePreisstaffel_RegionaleGueltigkeit"><path codeLine="15" d="M351.59,152.79 C425.55,158.31 497.1033,163.6464 558.9733,168.2664" fill="none" id="RegionalePreisstaffel-to-RegionaleGueltigkeit" style="stroke:#181818;stroke-width:1;"/><polygon fill="#181818" points="570.94,169.16,565.2545,164.7243,558.9733,168.2664,564.6588,172.7021,570.94,169.16" style="stroke:#181818;stroke-width:1;"/><text fill="#000000" font-family="sans-serif" font-size="13" lengthAdjust="spacing" textLength="132.0947" x="382.21" y="152.0669">regionaleGueltigkeit</text><text fill="#000000" font-family="sans-serif" font-size="13" lengthAdjust="spacing" textLength="24.8066" x="538.3011" y="181.2872">0..1</text></g><!--SRC=[nLDHJy8m47vcl-8otZ2q1S6OHKdG4D_K-2WkfjjkMyEsBcqdYlhV7HZ6faEUr3xrldvtrzxtDS7GW96WH1GR28H2tmYPMPQVSAt1diz3aQ13onNB5AagiWmLNKgre1Stera_Vp6np1hxGFgQ4aA9aS-VWKbp6fiqeJmNr9CZ9BvCoHhfLf72g6pC4ymL2gqD3qDCoDqMlQsXq8gwxaDsfiKAdG6R_5pM1gxRYy2hrNbyGgNB8t106mLpHiZ0XNCOik6O3GWZx2WQZiRSF_OOB-aY-CgybXbQdLMXkLbDZL72AmoMfFi6ik7tAlwxPMKyHPrp7tz_yB2DN7SpZMq8tHcRdfvShWVnvnveID-GvR3Gt_Ijf_p3MohZHGKcHaGB56PdvwiT26tW0JFNQZQzN2knDjIU_zFllqqgnHk3tfTHflJ0NllRtYMsliO1rNOPAnO1GegfLtukIyTo2NjQXGAJG7y0]--></g></svg>