<?xml version="1.0" encoding="us-ascii" standalone="no"?><svg xmlns="http://www.w3.org/2000/svg" xmlns:xlink="http://www.w3.org/1999/xlink" contentStyleType="text/css" height="242px" preserveAspectRatio="none" style="width:818px;height:242px;background:#FFFFFF;" version="1.1" viewBox="0 0 818 242" width="818px" zoomAndPan="magnify"><defs/><g><!--cluster bo4e--><g id="cluster_bo4e"><path d="M557.5,6 L598.5,6 A3.75,3.75 0 0 1 601,8.5 L608,28.2969 L808.5,28.2969 A2.5,2.5 0 0 1 811,30.7969 L811,232.5 A2.5,2.5 0 0 1 808.5,235 L557.5,235 A2.5,2.5 0 0 1 555,232.5 L555,8.5 A2.5,2.5 0 0 1 557.5,6 " fill="none" style="stroke:#000000;stroke-width:1.5;"/><line style="stroke:#000000;stroke-width:1.5;" x1="555" x2="608" y1="28.2969" y2="28.2969"/><text fill="#000000" font-family="sans-serif" font-size="14" font-weight="bold" lengthAdjust="spacing" textLength="40" x="559" y="20.9951">bo4e</text></g><!--cluster com--><g id="cluster_com"><path d="M581.5,49 L660.5,49 A3.75,3.75 0 0 1 663,51.5 L670,71.2969 L784.5,71.2969 A2.5,2.5 0 0 1 787,73.7969 L787,208.5 A2.5,2.5 0 0 1 784.5,211 L581.5,211 A2.5,2.5 0 0 1 579,208.5 L579,51.5 A2.5,2.5 0 0 1 581.5,49 " fill="#E0A86C" style="stroke:#000000;stroke-width:1.5;"/><line style="stroke:#000000;stroke-width:1.5;" x1="579" x2="670" y1="71.2969" y2="71.2969"/><a href="https://bo4e.github.io/BO4E-python/latest/api/bo4e.com.html" target="_top" title="https://bo4e.github.io/BO4E-python/latest/api/bo4e.com.html" xlink:actuate="onRequest" xlink:href="https://bo4e.github.io/BO4E-python/latest/api/bo4e.com.html" xlink:show="new" xlink:title="https://bo4e.github.io/BO4E-python/latest/api/bo4e.com.html" xlink:type="simple"><text fill="#0000FF" font-family="sans-serif" font-size="14" font-weight="bold" lengthAdjust="spacing" text-decoration="underline" textLength="78" x="583" y="63.9951">bo4e.com</text></a></g><!--class Preisgarantie--><g id="elem_Preisgarantie"><rect codeLine="10" fill="#F1F1F1" height="37.9375" id="Preisgarantie" rx="2.5" ry="2.5" style="stroke:#181818;stroke-width:0.5;" width="146" x="610" y="84.03"/><ellipse cx="625" cy="102.9988" fill="#ADD1B2" rx="11" ry="11" style="stroke:#181818;stroke-width:1.0;"/><path d="M627.9688,108.6394 Q627.3906,108.9363 626.75,109.0769 Q626.1094,109.2331 625.4063,109.2331 Q622.9063,109.2331 621.5781,107.5925 Q620.2656,105.9363 620.2656,102.8113 Q620.2656,99.6863 621.5781,98.03 Q622.9063,96.3738 625.4063,96.3738 Q626.1094,96.3738 626.75,96.53 Q627.4063,96.6863 627.9688,96.9831 L627.9688,99.7019 Q627.3438,99.1238 626.75,98.8581 Q626.1563,98.5769 625.5313,98.5769 Q624.1875,98.5769 623.5,99.655 Q622.8125,100.7175 622.8125,102.8113 Q622.8125,104.905 623.5,105.9831 Q624.1875,107.0456 625.5313,107.0456 Q626.1563,107.0456 626.75,106.78 Q627.3438,106.4988 627.9688,105.9206 L627.9688,108.6394 Z " fill="#000000"/><a href="https://bo4e.github.io/BO4E-python/latest/api/bo4e.com.html#bo4e.com.preisgarantie.Preisgarantie" target="_top" title="https://bo4e.github.io/BO4E-python/latest/api/bo4e.com.html#bo4e.com.preisgarantie.Preisgarantie" xlink:actuate="onRequest" xlink:href="https://bo4e.github.io/BO4E-python/latest/api/bo4e.com.html#bo4e.com.preisgarantie.Preisgarantie" xlink:show="new" xlink:title="https://bo4e.github.io/BO4E-python/latest/api/bo4e.com.html#bo4e.com.preisgarantie.Preisgarantie" xlink:type="simple"><text fill="#0000FF" font-family="sans-serif" font-size="14" lengthAdjust="spacing" text-decoration="underline" textLength="90" x="651" y="102.0251">Preisgarantie</text></a><text fill="#000000" font-family="sans-serif" font-size="10" lengthAdjust="spacing" textLength="114" x="639" y="114.6091">bo4e.com.preisgarantie</text></g><!--class RegionaleGueltigkeit--><g id="elem_RegionaleGueltigkeit"><rect codeLine="11" fill="#F1F1F1" height="37.9375" id="RegionaleGueltigkeit" rx="2.5" ry="2.5" style="stroke:#181818;stroke-width:0.5;" width="176" x="595" y="157.03"/><ellipse cx="610" cy="175.9988" fill="#ADD1B2" rx="11" ry="11" style="stroke:#181818;stroke-width:1.0;"/><path d="M612.9688,181.6394 Q612.3906,181.9363 611.75,182.0769 Q611.1094,182.2331 610.4063,182.2331 Q607.9063,182.2331 606.5781,180.5925 Q605.2656,178.9363 605.2656,175.8113 Q605.2656,172.6863 606.5781,171.03 Q607.9063,169.3738 610.4063,169.3738 Q611.1094,169.3738 611.75,169.53 Q612.4063,169.6863 612.9688,169.9831 L612.9688,172.7019 Q612.3438,172.1238 611.75,171.8581 Q611.1563,171.5769 610.5313,171.5769 Q609.1875,171.5769 608.5,172.655 Q607.8125,173.7175 607.8125,175.8113 Q607.8125,177.905 608.5,178.9831 Q609.1875,180.0456 610.5313,180.0456 Q611.1563,180.0456 611.75,179.78 Q612.3438,179.4988 612.9688,178.9206 L612.9688,181.6394 Z " fill="#000000"/><a href="https://bo4e.github.io/BO4E-python/latest/api/bo4e.com.html#bo4e.com.regionalegueltigkeit.RegionaleGueltigkeit" target="_top" title="https://bo4e.github.io/BO4E-python/latest/api/bo4e.com.html#bo4e.com.regionalegueltigkeit.RegionaleGueltigkeit" xlink:actuate="onRequest" xlink:href="https://bo4e.github.io/BO4E-python/latest/api/bo4e.com.html#bo4e.com.regionalegueltigkeit.RegionaleGueltigkeit" xlink:show="new" xlink:title="https://bo4e.github.io/BO4E-python/latest/api/bo4e.com.html#bo4e.com.regionalegueltigkeit.RegionaleGueltigkeit" xlink:type="simple"><text fill="#0000FF" font-family="sans-serif" font-size="14" lengthAdjust="spacing" text-decoration="underline" textLength="143" x="624.5" y="175.0251">RegionaleGueltigkeit</text></a><text fill="#000000" font-family="sans-serif" font-size="10" lengthAdjust="spacing" textLength="144" x="624" y="187.6091">bo4e.com.regionalegueltigkeit</text></g><!--class RegionalePreisgarantie--><g id="elem_RegionalePreisgarantie"><rect codeLine="3" fill="#F1F1F1" height="94.8281" id="RegionalePreisgarantie" rx="2.5" ry="2.5" style="stroke:#181818;stroke-width:0.5;" width="373" x="7" y="92.59"/><ellipse cx="109.75" cy="111.5588" fill="#ADD1B2" rx="11" ry="11" style="stroke:#181818;stroke-width:1.0;"/><path d="M112.7188,117.1994 Q112.1406,117.4963 111.5,117.6369 Q110.8594,117.7931 110.1563,117.7931 Q107.6563,117.7931 106.3281,116.1525 Q105.0156,114.4963 105.0156,111.3713 Q105.0156,108.2463 106.3281,106.59 Q107.6563,104.9338 110.1563,104.9338 Q110.8594,104.9338 111.5,105.09 Q112.1563,105.2463 112.7188,105.5431 L112.7188,108.2619 Q112.0938,107.6838 111.5,107.4181 Q110.9063,107.1369 110.2813,107.1369 Q108.9375,107.1369 108.25,108.215 Q107.5625,109.2775 107.5625,111.3713 Q107.5625,113.465 108.25,114.5431 Q108.9375,115.6056 110.2813,115.6056 Q110.9063,115.6056 111.5,115.34 Q112.0938,115.0588 112.7188,114.4806 L112.7188,117.1994 Z " fill="#000000"/><a href="https://bo4e.github.io/BO4E-python/latest/api/bo4e.com.html#bo4e.com.regionalepreisgarantie.RegionalePreisgarantie" target="_top" title="https://bo4e.github.io/BO4E-python/latest/api/bo4e.com.html#bo4e.com.regionalepreisgarantie.RegionalePreisgarantie" xlink:actuate="onRequest" xlink:href="https://bo4e.github.io/BO4E-python/latest/api/bo4e.com.html#bo4e.com.regionalepreisgarantie.RegionalePreisgarantie" xlink:show="new" xlink:title="https://bo4e.github.io/BO4E-python/latest/api/bo4e.com.html#bo4e.com.regionalepreisgarantie.RegionalePreisgarantie" xlink:type="simple"><text fill="#0000FF" font-family="sans-serif" font-size="14" lengthAdjust="spacing" text-decoration="underline" textLength="159" x="130.25" y="110.5851">RegionalePreisgarantie</text></a><text fill="#000000" font-family="sans-serif" font-size="10" lengthAdjust="spacing" textLength="158" x="130.75" y="123.1691">bo4e.com.regionalepreisgarantie</text><line style="stroke:#181818;stroke-width:0.5;" x1="8" x2="379" y1="130.5275" y2="130.5275"/><text fill="#000000" font-family="sans-serif" font-size="14" lengthAdjust="spacing" textLength="361" x="13" y="147.5226">_version : str [0..1] = 202401.4.1.dev12+gcf38e0cb</text><text fill="#000000" font-family="sans-serif" font-size="14" lengthAdjust="spacing" textLength="147" x="13" y="163.8195">_id : str [0..1] = None</text><text fill="#000000" font-family="sans-serif" font-size="14" lengthAdjust="spacing" textLength="311" x="13" y="180.1164">zusatzAttribute : ZusatzAttribut [0..*] = None</text></g><!--link RegionalePreisgarantie to Preisgarantie--><g id="link_RegionalePreisgarantie_Preisgarantie"><path codeLine="14" d="M380.19,125.91 C460.24,119.83 531.2116,114.4426 591.6716,109.8526 " fill="none" id="RegionalePreisgarantie-to-Preisgarantie" style="stroke:#181818;stroke-width:1.0;"/><polygon fill="none" points="609.62,108.49,591.2174,103.8698,592.1258,115.8354,609.62,108.49" style="stroke:#181818;stroke-width:1.0;"/></g><!--link RegionalePreisgarantie to RegionaleGueltigkeit--><g id="link_RegionalePreisgarantie_RegionaleGueltigkeit"><path codeLine="15" d="M380.19,153.71 C453.92,159.16 523.2026,164.2766 582.8126,168.6766 " fill="none" id="RegionalePreisgarantie-to-RegionaleGueltigkeit" style="stroke:#181818;stroke-width:1.0;"/><polygon fill="#181818" points="594.78,169.56,589.0907,165.1292,582.8126,168.6766,588.5018,173.1075,594.78,169.56" style="stroke:#181818;stroke-width:1.0;"/><text fill="#000000" font-family="sans-serif" font-size="13" lengthAdjust="spacing" textLength="127" x="411" y="153.0669">regionaleGueltigkeit</text><text fill="#000000" font-family="sans-serif" font-size="13" lengthAdjust="spacing" textLength="24" x="563.1069" y="181.7132">0..1</text></g><!--SRC=[hLF1JeD043sxNp6XjvekK1lJ46rIJUDDZKShCGjCOIEmP7UeiUg_IsjAYq9gOe_pzhtPdNblKrmGa08juuGWaXf3aYfdB4o5CM3DvmbHOJpR3jG8UImfAGCkbNrrDveDYZTAL6wdWj2GBGhvpGfLnXFAqbvTQOohhYB5GgCqiT0Y9udyOGlVxyFG3ll-KtvXv0ezrvaSw6o1C1rju9sTF2zHc-eCF32aOUvmxlfm2KDdE79SFk8kZt3f3a_ZS74sHYSCAesCVj9lLOxiP5KQGQifaPP1ILYH7Xl8Xj-l-P-CvI93KuWG_xbVs5Q-lnbuMq9lvap7vzVhKO_hOzE-vbx_ODPlZngYOx-spaPSOaeoVa59kypTx41e0m_aRQzdCsrxBTPcTuLyCFYOr8urLzcfgKHziDRnitRIre4yq6tlOOcC43BCWke3C9EeL-YwQo4nZSmN]--></g></svg>