<?xml version="1.0" encoding="us-ascii" standalone="no"?><svg xmlns="http://www.w3.org/2000/svg" xmlns:xlink="http://www.w3.org/1999/xlink" contentStyleType="text/css" height="866px" preserveAspectRatio="none" style="width:1385px;height:866px;background:#FFFFFF;" version="1.1" viewBox="0 0 1385 866" width="1385px" zoomAndPan="magnify"><defs/><g><!--cluster bo4e--><g id="cluster_bo4e"><path d="M1119.5,6 L1160.5,6 A3.75,3.75 0 0 1 1163,8.5 L1170,28.2969 L1375.5,28.2969 A2.5,2.5 0 0 1 1378,30.7969 L1378,856.5 A2.5,2.5 0 0 1 1375.5,859 L1119.5,859 A2.5,2.5 0 0 1 1117,856.5 L1117,8.5 A2.5,2.5 0 0 1 1119.5,6 " fill="none" style="stroke:#000000;stroke-width:1.5;"/><line style="stroke:#000000;stroke-width:1.5;" x1="1117" x2="1170" y1="28.2969" y2="28.2969"/><text fill="#000000" font-family="sans-serif" font-size="14" font-weight="bold" lengthAdjust="spacing" textLength="40" x="1121" y="20.9951">bo4e</text></g><!--cluster com--><g id="cluster_com"><path d="M1143.5,49 L1222.5,49 A3.75,3.75 0 0 1 1225,51.5 L1232,71.2969 L1351.5,71.2969 A2.5,2.5 0 0 1 1354,73.7969 L1354,573.5 A2.5,2.5 0 0 1 1351.5,576 L1143.5,576 A2.5,2.5 0 0 1 1141,573.5 L1141,51.5 A2.5,2.5 0 0 1 1143.5,49 " fill="#E0A86C" style="stroke:#000000;stroke-width:1.5;"/><line style="stroke:#000000;stroke-width:1.5;" x1="1141" x2="1232" y1="71.2969" y2="71.2969"/><a href="https://bo4e.github.io/BO4E-python/latest/api/bo4e.com.html" target="_top" title="https://bo4e.github.io/BO4E-python/latest/api/bo4e.com.html" xlink:actuate="onRequest" xlink:href="https://bo4e.github.io/BO4E-python/latest/api/bo4e.com.html" xlink:show="new" xlink:title="https://bo4e.github.io/BO4E-python/latest/api/bo4e.com.html" xlink:type="simple"><text fill="#0000FF" font-family="sans-serif" font-size="14" font-weight="bold" lengthAdjust="spacing" text-decoration="underline" textLength="78" x="1145" y="63.9951">bo4e.com</text></a></g><!--cluster enum--><g id="cluster_enum"><path d="M1146.5,600 L1236.5,600 A3.75,3.75 0 0 1 1239,602.5 L1246,622.2969 L1348.5,622.2969 A2.5,2.5 0 0 1 1351,624.7969 L1351,832.5 A2.5,2.5 0 0 1 1348.5,835 L1146.5,835 A2.5,2.5 0 0 1 1144,832.5 L1144,602.5 A2.5,2.5 0 0 1 1146.5,600 " fill="#D1C358" style="stroke:#000000;stroke-width:1.5;"/><line style="stroke:#000000;stroke-width:1.5;" x1="1144" x2="1246" y1="622.2969" y2="622.2969"/><a href="https://bo4e.github.io/BO4E-python/latest/api/bo4e.enum.html" target="_top" title="https://bo4e.github.io/BO4E-python/latest/api/bo4e.enum.html" xlink:actuate="onRequest" xlink:href="https://bo4e.github.io/BO4E-python/latest/api/bo4e.enum.html" xlink:show="new" xlink:title="https://bo4e.github.io/BO4E-python/latest/api/bo4e.enum.html" xlink:type="simple"><text fill="#0000FF" font-family="sans-serif" font-size="14" font-weight="bold" lengthAdjust="spacing" text-decoration="underline" textLength="89" x="1148" y="614.9951">bo4e.enum</text></a></g><!--class Vertragskonditionen--><g id="elem_Vertragskonditionen"><rect codeLine="14" fill="#F1F1F1" height="37.9375" id="Vertragskonditionen" rx="2.5" ry="2.5" style="stroke:#181818;stroke-width:0.5;" width="179" x="1158" y="84.03"/><ellipse cx="1173" cy="102.9987" fill="#ADD1B2" rx="11" ry="11" style="stroke:#181818;stroke-width:1.0;"/><path d="M1175.9688,108.6394 Q1175.3906,108.9362 1174.75,109.0769 Q1174.1094,109.2331 1173.4063,109.2331 Q1170.9063,109.2331 1169.5781,107.5925 Q1168.2656,105.9362 1168.2656,102.8112 Q1168.2656,99.6862 1169.5781,98.03 Q1170.9063,96.3737 1173.4063,96.3737 Q1174.1094,96.3737 1174.75,96.53 Q1175.4063,96.6862 1175.9688,96.9831 L1175.9688,99.7019 Q1175.3438,99.1237 1174.75,98.8581 Q1174.1563,98.5769 1173.5313,98.5769 Q1172.1875,98.5769 1171.5,99.655 Q1170.8125,100.7175 1170.8125,102.8112 Q1170.8125,104.905 1171.5,105.9831 Q1172.1875,107.0456 1173.5313,107.0456 Q1174.1563,107.0456 1174.75,106.78 Q1175.3438,106.4987 1175.9688,105.9206 L1175.9688,108.6394 Z " fill="#000000"/><a href="https://bo4e.github.io/BO4E-python/latest/api/bo4e.com.html#bo4e.com.vertragskonditionen.Vertragskonditionen" target="_top" title="https://bo4e.github.io/BO4E-python/latest/api/bo4e.com.html#bo4e.com.vertragskonditionen.Vertragskonditionen" xlink:actuate="onRequest" xlink:href="https://bo4e.github.io/BO4E-python/latest/api/bo4e.com.html#bo4e.com.vertragskonditionen.Vertragskonditionen" xlink:show="new" xlink:title="https://bo4e.github.io/BO4E-python/latest/api/bo4e.com.html#bo4e.com.vertragskonditionen.Vertragskonditionen" xlink:type="simple"><text fill="#0000FF" font-family="sans-serif" font-size="14" lengthAdjust="spacing" text-decoration="underline" textLength="140" x="1190.5" y="102.0251">Vertragskonditionen</text></a><text fill="#000000" font-family="sans-serif" font-size="10" lengthAdjust="spacing" textLength="147" x="1187" y="114.6091">bo4e.com.vertragskonditionen</text></g><!--class Zeitraum--><g id="elem_Zeitraum"><rect codeLine="15" fill="#F1F1F1" height="37.9375" id="Zeitraum" rx="2.5" ry="2.5" style="stroke:#181818;stroke-width:0.5;" width="126" x="1184.5" y="157.03"/><ellipse cx="1199.5" cy="175.9987" fill="#ADD1B2" rx="11" ry="11" style="stroke:#181818;stroke-width:1.0;"/><path d="M1202.4688,181.6394 Q1201.8906,181.9362 1201.25,182.0769 Q1200.6094,182.2331 1199.9063,182.2331 Q1197.4063,182.2331 1196.0781,180.5925 Q1194.7656,178.9362 1194.7656,175.8112 Q1194.7656,172.6862 1196.0781,171.03 Q1197.4063,169.3737 1199.9063,169.3737 Q1200.6094,169.3737 1201.25,169.53 Q1201.9063,169.6862 1202.4688,169.9831 L1202.4688,172.7019 Q1201.8438,172.1237 1201.25,171.8581 Q1200.6563,171.5769 1200.0313,171.5769 Q1198.6875,171.5769 1198,172.655 Q1197.3125,173.7175 1197.3125,175.8112 Q1197.3125,177.905 1198,178.9831 Q1198.6875,180.0456 1200.0313,180.0456 Q1200.6563,180.0456 1201.25,179.78 Q1201.8438,179.4987 1202.4688,178.9206 L1202.4688,181.6394 Z " fill="#000000"/><a href="https://bo4e.github.io/BO4E-python/latest/api/bo4e.com.html#bo4e.com.zeitraum.Zeitraum" target="_top" title="https://bo4e.github.io/BO4E-python/latest/api/bo4e.com.html#bo4e.com.zeitraum.Zeitraum" xlink:actuate="onRequest" xlink:href="https://bo4e.github.io/BO4E-python/latest/api/bo4e.com.html#bo4e.com.zeitraum.Zeitraum" xlink:show="new" xlink:title="https://bo4e.github.io/BO4E-python/latest/api/bo4e.com.html#bo4e.com.zeitraum.Zeitraum" xlink:type="simple"><text fill="#0000FF" font-family="sans-serif" font-size="14" lengthAdjust="spacing" text-decoration="underline" textLength="62" x="1229.5" y="175.0251">Zeitraum</text></a><text fill="#000000" font-family="sans-serif" font-size="10" lengthAdjust="spacing" textLength="94" x="1213.5" y="187.6091">bo4e.com.zeitraum</text></g><!--class COM--><g id="elem_COM"><rect codeLine="16" fill="#F1F1F1" height="37.9375" id="COM" rx="2.5" ry="2.5" style="stroke:#181818;stroke-width:0.5;" width="104" x="1195.5" y="230.03"/><ellipse cx="1210.5" cy="248.9987" fill="#ADD1B2" rx="11" ry="11" style="stroke:#181818;stroke-width:1.0;"/><path d="M1213.4688,254.6394 Q1212.8906,254.9362 1212.25,255.0769 Q1211.6094,255.2331 1210.9063,255.2331 Q1208.4063,255.2331 1207.0781,253.5925 Q1205.7656,251.9362 1205.7656,248.8112 Q1205.7656,245.6862 1207.0781,244.03 Q1208.4063,242.3737 1210.9063,242.3737 Q1211.6094,242.3737 1212.25,242.53 Q1212.9063,242.6862 1213.4688,242.9831 L1213.4688,245.7019 Q1212.8438,245.1237 1212.25,244.8581 Q1211.6563,244.5769 1211.0313,244.5769 Q1209.6875,244.5769 1209,245.655 Q1208.3125,246.7175 1208.3125,248.8112 Q1208.3125,250.905 1209,251.9831 Q1209.6875,253.0456 1211.0313,253.0456 Q1211.6563,253.0456 1212.25,252.78 Q1212.8438,252.4987 1213.4688,251.9206 L1213.4688,254.6394 Z " fill="#000000"/><a href="https://bo4e.github.io/BO4E-python/latest/api/bo4e.com.html#bo4e.com.com.COM" target="_top" title="https://bo4e.github.io/BO4E-python/latest/api/bo4e.com.html#bo4e.com.com.COM" xlink:actuate="onRequest" xlink:href="https://bo4e.github.io/BO4E-python/latest/api/bo4e.com.html#bo4e.com.com.COM" xlink:show="new" xlink:title="https://bo4e.github.io/BO4E-python/latest/api/bo4e.com.html#bo4e.com.com.COM" xlink:type="simple"><text fill="#0000FF" font-family="sans-serif" font-size="14" lengthAdjust="spacing" text-decoration="underline" textLength="33" x="1244" y="248.0251">COM</text></a><text fill="#000000" font-family="sans-serif" font-size="10" lengthAdjust="spacing" textLength="72" x="1224.5" y="260.6091">bo4e.com.com</text></g><!--class Energiemix--><g id="elem_Energiemix"><rect codeLine="17" fill="#F1F1F1" height="37.9375" id="Energiemix" rx="2.5" ry="2.5" style="stroke:#181818;stroke-width:0.5;" width="137" x="1179" y="303.03"/><ellipse cx="1194" cy="321.9988" fill="#ADD1B2" rx="11" ry="11" style="stroke:#181818;stroke-width:1.0;"/><path d="M1196.9688,327.6394 Q1196.3906,327.9363 1195.75,328.0769 Q1195.1094,328.2331 1194.4063,328.2331 Q1191.9063,328.2331 1190.5781,326.5925 Q1189.2656,324.9363 1189.2656,321.8113 Q1189.2656,318.6863 1190.5781,317.03 Q1191.9063,315.3738 1194.4063,315.3738 Q1195.1094,315.3738 1195.75,315.53 Q1196.4063,315.6863 1196.9688,315.9831 L1196.9688,318.7019 Q1196.3438,318.1238 1195.75,317.8581 Q1195.1563,317.5769 1194.5313,317.5769 Q1193.1875,317.5769 1192.5,318.655 Q1191.8125,319.7175 1191.8125,321.8113 Q1191.8125,323.905 1192.5,324.9831 Q1193.1875,326.0456 1194.5313,326.0456 Q1195.1563,326.0456 1195.75,325.78 Q1196.3438,325.4988 1196.9688,324.9206 L1196.9688,327.6394 Z " fill="#000000"/><a href="https://bo4e.github.io/BO4E-python/latest/api/bo4e.com.html#bo4e.com.energiemix.Energiemix" target="_top" title="https://bo4e.github.io/BO4E-python/latest/api/bo4e.com.html#bo4e.com.energiemix.Energiemix" xlink:actuate="onRequest" xlink:href="https://bo4e.github.io/BO4E-python/latest/api/bo4e.com.html#bo4e.com.energiemix.Energiemix" xlink:show="new" xlink:title="https://bo4e.github.io/BO4E-python/latest/api/bo4e.com.html#bo4e.com.energiemix.Energiemix" xlink:type="simple"><text fill="#0000FF" font-family="sans-serif" font-size="14" lengthAdjust="spacing" text-decoration="underline" textLength="76" x="1222.5" y="321.0251">Energiemix</text></a><text fill="#000000" font-family="sans-serif" font-size="10" lengthAdjust="spacing" textLength="105" x="1208" y="333.6091">bo4e.com.energiemix</text></g><!--class Preisgarantie--><g id="elem_Preisgarantie"><rect codeLine="18" fill="#F1F1F1" height="37.9375" id="Preisgarantie" rx="2.5" ry="2.5" style="stroke:#181818;stroke-width:0.5;" width="146" x="1174.5" y="376.03"/><ellipse cx="1189.5" cy="394.9988" fill="#ADD1B2" rx="11" ry="11" style="stroke:#181818;stroke-width:1.0;"/><path d="M1192.4688,400.6394 Q1191.8906,400.9363 1191.25,401.0769 Q1190.6094,401.2331 1189.9063,401.2331 Q1187.4063,401.2331 1186.0781,399.5925 Q1184.7656,397.9363 1184.7656,394.8113 Q1184.7656,391.6863 1186.0781,390.03 Q1187.4063,388.3738 1189.9063,388.3738 Q1190.6094,388.3738 1191.25,388.53 Q1191.9063,388.6863 1192.4688,388.9831 L1192.4688,391.7019 Q1191.8438,391.1238 1191.25,390.8581 Q1190.6563,390.5769 1190.0313,390.5769 Q1188.6875,390.5769 1188,391.655 Q1187.3125,392.7175 1187.3125,394.8113 Q1187.3125,396.905 1188,397.9831 Q1188.6875,399.0456 1190.0313,399.0456 Q1190.6563,399.0456 1191.25,398.78 Q1191.8438,398.4988 1192.4688,397.9206 L1192.4688,400.6394 Z " fill="#000000"/><a href="https://bo4e.github.io/BO4E-python/latest/api/bo4e.com.html#bo4e.com.preisgarantie.Preisgarantie" target="_top" title="https://bo4e.github.io/BO4E-python/latest/api/bo4e.com.html#bo4e.com.preisgarantie.Preisgarantie" xlink:actuate="onRequest" xlink:href="https://bo4e.github.io/BO4E-python/latest/api/bo4e.com.html#bo4e.com.preisgarantie.Preisgarantie" xlink:show="new" xlink:title="https://bo4e.github.io/BO4E-python/latest/api/bo4e.com.html#bo4e.com.preisgarantie.Preisgarantie" xlink:type="simple"><text fill="#0000FF" font-family="sans-serif" font-size="14" lengthAdjust="spacing" text-decoration="underline" textLength="90" x="1215.5" y="394.0251">Preisgarantie</text></a><text fill="#000000" font-family="sans-serif" font-size="10" lengthAdjust="spacing" textLength="114" x="1203.5" y="406.6091">bo4e.com.preisgarantie</text></g><!--class RegionalePreisstaffel--><g id="elem_RegionalePreisstaffel"><rect codeLine="19" fill="#F1F1F1" height="37.9375" id="RegionalePreisstaffel" rx="2.5" ry="2.5" style="stroke:#181818;stroke-width:0.5;" width="181" x="1157" y="449.03"/><ellipse cx="1172" cy="467.9988" fill="#ADD1B2" rx="11" ry="11" style="stroke:#181818;stroke-width:1.0;"/><path d="M1174.9688,473.6394 Q1174.3906,473.9363 1173.75,474.0769 Q1173.1094,474.2331 1172.4063,474.2331 Q1169.9063,474.2331 1168.5781,472.5925 Q1167.2656,470.9363 1167.2656,467.8113 Q1167.2656,464.6863 1168.5781,463.03 Q1169.9063,461.3738 1172.4063,461.3738 Q1173.1094,461.3738 1173.75,461.53 Q1174.4063,461.6863 1174.9688,461.9831 L1174.9688,464.7019 Q1174.3438,464.1238 1173.75,463.8581 Q1173.1563,463.5769 1172.5313,463.5769 Q1171.1875,463.5769 1170.5,464.655 Q1169.8125,465.7175 1169.8125,467.8113 Q1169.8125,469.905 1170.5,470.9831 Q1171.1875,472.0456 1172.5313,472.0456 Q1173.1563,472.0456 1173.75,471.78 Q1174.3438,471.4988 1174.9688,470.9206 L1174.9688,473.6394 Z " fill="#000000"/><a href="https://bo4e.github.io/BO4E-python/latest/api/bo4e.com.html#bo4e.com.regionalepreisstaffel.RegionalePreisstaffel" target="_top" title="https://bo4e.github.io/BO4E-python/latest/api/bo4e.com.html#bo4e.com.regionalepreisstaffel.RegionalePreisstaffel" xlink:actuate="onRequest" xlink:href="https://bo4e.github.io/BO4E-python/latest/api/bo4e.com.html#bo4e.com.regionalepreisstaffel.RegionalePreisstaffel" xlink:show="new" xlink:title="https://bo4e.github.io/BO4E-python/latest/api/bo4e.com.html#bo4e.com.regionalepreisstaffel.RegionalePreisstaffel" xlink:type="simple"><text fill="#0000FF" font-family="sans-serif" font-size="14" lengthAdjust="spacing" text-decoration="underline" textLength="144" x="1188.5" y="467.0251">RegionalePreisstaffel</text></a><text fill="#000000" font-family="sans-serif" font-size="10" lengthAdjust="spacing" textLength="149" x="1186" y="479.6091">bo4e.com.regionalepreisstaffel</text></g><!--class Tarifeinschraenkung--><g id="elem_Tarifeinschraenkung"><rect codeLine="20" fill="#F1F1F1" height="37.9375" id="Tarifeinschraenkung" rx="2.5" ry="2.5" style="stroke:#181818;stroke-width:0.5;" width="178" x="1158.5" y="522.03"/><ellipse cx="1173.5" cy="540.9988" fill="#ADD1B2" rx="11" ry="11" style="stroke:#181818;stroke-width:1.0;"/><path d="M1176.4688,546.6394 Q1175.8906,546.9363 1175.25,547.0769 Q1174.6094,547.2331 1173.9063,547.2331 Q1171.4063,547.2331 1170.0781,545.5925 Q1168.7656,543.9363 1168.7656,540.8113 Q1168.7656,537.6863 1170.0781,536.03 Q1171.4063,534.3738 1173.9063,534.3738 Q1174.6094,534.3738 1175.25,534.53 Q1175.9063,534.6863 1176.4688,534.9831 L1176.4688,537.7019 Q1175.8438,537.1238 1175.25,536.8581 Q1174.6563,536.5769 1174.0313,536.5769 Q1172.6875,536.5769 1172,537.655 Q1171.3125,538.7175 1171.3125,540.8113 Q1171.3125,542.905 1172,543.9831 Q1172.6875,545.0456 1174.0313,545.0456 Q1174.6563,545.0456 1175.25,544.78 Q1175.8438,544.4988 1176.4688,543.9206 L1176.4688,546.6394 Z " fill="#000000"/><a href="https://bo4e.github.io/BO4E-python/latest/api/bo4e.com.html#bo4e.com.tarifeinschraenkung.Tarifeinschraenkung" target="_top" title="https://bo4e.github.io/BO4E-python/latest/api/bo4e.com.html#bo4e.com.tarifeinschraenkung.Tarifeinschraenkung" xlink:actuate="onRequest" xlink:href="https://bo4e.github.io/BO4E-python/latest/api/bo4e.com.html#bo4e.com.tarifeinschraenkung.Tarifeinschraenkung" xlink:show="new" xlink:title="https://bo4e.github.io/BO4E-python/latest/api/bo4e.com.html#bo4e.com.tarifeinschraenkung.Tarifeinschraenkung" xlink:type="simple"><text fill="#0000FF" font-family="sans-serif" font-size="14" lengthAdjust="spacing" text-decoration="underline" textLength="141" x="1190" y="540.0251">Tarifeinschraenkung</text></a><text fill="#000000" font-family="sans-serif" font-size="10" lengthAdjust="spacing" textLength="146" x="1187.5" y="552.6091">bo4e.com.tarifeinschraenkung</text></g><!--class Waehrungseinheit--><g id="elem_Waehrungseinheit"><rect codeLine="23" fill="#F1F1F1" height="37.9375" id="Waehrungseinheit" rx="2.5" ry="2.5" style="stroke:#181818;stroke-width:0.5;" width="175" x="1160" y="635.03"/><ellipse cx="1175" cy="653.9988" fill="#ADD1B2" rx="11" ry="11" style="stroke:#181818;stroke-width:1.0;"/><path d="M1177.9688,659.6394 Q1177.3906,659.9363 1176.75,660.0769 Q1176.1094,660.2331 1175.4063,660.2331 Q1172.9063,660.2331 1171.5781,658.5925 Q1170.2656,656.9363 1170.2656,653.8113 Q1170.2656,650.6863 1171.5781,649.03 Q1172.9063,647.3738 1175.4063,647.3738 Q1176.1094,647.3738 1176.75,647.53 Q1177.4063,647.6863 1177.9688,647.9831 L1177.9688,650.7019 Q1177.3438,650.1238 1176.75,649.8581 Q1176.1563,649.5769 1175.5313,649.5769 Q1174.1875,649.5769 1173.5,650.655 Q1172.8125,651.7175 1172.8125,653.8113 Q1172.8125,655.905 1173.5,656.9831 Q1174.1875,658.0456 1175.5313,658.0456 Q1176.1563,658.0456 1176.75,657.78 Q1177.3438,657.4988 1177.9688,656.9206 L1177.9688,659.6394 Z " fill="#000000"/><a href="https://bo4e.github.io/BO4E-python/latest/api/bo4e.enum.html#bo4e.enum.waehrungseinheit.Waehrungseinheit" target="_top" title="https://bo4e.github.io/BO4E-python/latest/api/bo4e.enum.html#bo4e.enum.waehrungseinheit.Waehrungseinheit" xlink:actuate="onRequest" xlink:href="https://bo4e.github.io/BO4E-python/latest/api/bo4e.enum.html#bo4e.enum.waehrungseinheit.Waehrungseinheit" xlink:show="new" xlink:title="https://bo4e.github.io/BO4E-python/latest/api/bo4e.enum.html#bo4e.enum.waehrungseinheit.Waehrungseinheit" xlink:type="simple"><text fill="#0000FF" font-family="sans-serif" font-size="14" lengthAdjust="spacing" text-decoration="underline" textLength="126" x="1197.5" y="653.0251">Waehrungseinheit</text></a><text fill="#000000" font-family="sans-serif" font-size="10" lengthAdjust="spacing" textLength="143" x="1189" y="665.6091">bo4e.enum.waehrungseinheit</text></g><!--class AufAbschlagsziel--><g id="elem_AufAbschlagsziel"><rect codeLine="24" fill="#F1F1F1" height="37.9375" id="AufAbschlagsziel" rx="2.5" ry="2.5" style="stroke:#181818;stroke-width:0.5;" width="168" x="1163.5" y="708.03"/><ellipse cx="1178.5" cy="726.9988" fill="#ADD1B2" rx="11" ry="11" style="stroke:#181818;stroke-width:1.0;"/><path d="M1181.4688,732.6394 Q1180.8906,732.9363 1180.25,733.0769 Q1179.6094,733.2331 1178.9063,733.2331 Q1176.4063,733.2331 1175.0781,731.5925 Q1173.7656,729.9363 1173.7656,726.8113 Q1173.7656,723.6863 1175.0781,722.03 Q1176.4063,720.3738 1178.9063,720.3738 Q1179.6094,720.3738 1180.25,720.53 Q1180.9063,720.6863 1181.4688,720.9831 L1181.4688,723.7019 Q1180.8438,723.1238 1180.25,722.8581 Q1179.6563,722.5769 1179.0313,722.5769 Q1177.6875,722.5769 1177,723.655 Q1176.3125,724.7175 1176.3125,726.8113 Q1176.3125,728.905 1177,729.9831 Q1177.6875,731.0456 1179.0313,731.0456 Q1179.6563,731.0456 1180.25,730.78 Q1180.8438,730.4988 1181.4688,729.9206 L1181.4688,732.6394 Z " fill="#000000"/><a href="https://bo4e.github.io/BO4E-python/latest/api/bo4e.enum.html#bo4e.enum.aufabschlagsziel.AufAbschlagsziel" target="_top" title="https://bo4e.github.io/BO4E-python/latest/api/bo4e.enum.html#bo4e.enum.aufabschlagsziel.AufAbschlagsziel" xlink:actuate="onRequest" xlink:href="https://bo4e.github.io/BO4E-python/latest/api/bo4e.enum.html#bo4e.enum.aufabschlagsziel.AufAbschlagsziel" xlink:show="new" xlink:title="https://bo4e.github.io/BO4E-python/latest/api/bo4e.enum.html#bo4e.enum.aufabschlagsziel.AufAbschlagsziel" xlink:type="simple"><text fill="#0000FF" font-family="sans-serif" font-size="14" lengthAdjust="spacing" text-decoration="underline" textLength="116" x="1202.5" y="726.0251">AufAbschlagsziel</text></a><text fill="#000000" font-family="sans-serif" font-size="10" lengthAdjust="spacing" textLength="136" x="1192.5" y="738.6091">bo4e.enum.aufabschlagsziel</text></g><!--class AufAbschlagstyp--><g id="elem_AufAbschlagstyp"><rect codeLine="25" fill="#F1F1F1" height="37.9375" id="AufAbschlagstyp" rx="2.5" ry="2.5" style="stroke:#181818;stroke-width:0.5;" width="169" x="1163" y="781.03"/><ellipse cx="1178" cy="799.9988" fill="#ADD1B2" rx="11" ry="11" style="stroke:#181818;stroke-width:1.0;"/><path d="M1180.9688,805.6394 Q1180.3906,805.9363 1179.75,806.0769 Q1179.1094,806.2331 1178.4063,806.2331 Q1175.9063,806.2331 1174.5781,804.5925 Q1173.2656,802.9363 1173.2656,799.8113 Q1173.2656,796.6863 1174.5781,795.03 Q1175.9063,793.3738 1178.4063,793.3738 Q1179.1094,793.3738 1179.75,793.53 Q1180.4063,793.6863 1180.9688,793.9831 L1180.9688,796.7019 Q1180.3438,796.1238 1179.75,795.8581 Q1179.1563,795.5769 1178.5313,795.5769 Q1177.1875,795.5769 1176.5,796.655 Q1175.8125,797.7175 1175.8125,799.8113 Q1175.8125,801.905 1176.5,802.9831 Q1177.1875,804.0456 1178.5313,804.0456 Q1179.1563,804.0456 1179.75,803.78 Q1180.3438,803.4988 1180.9688,802.9206 L1180.9688,805.6394 Z " fill="#000000"/><a href="https://bo4e.github.io/BO4E-python/latest/api/bo4e.enum.html#bo4e.enum.aufabschlagstyp.AufAbschlagstyp" target="_top" title="https://bo4e.github.io/BO4E-python/latest/api/bo4e.enum.html#bo4e.enum.aufabschlagstyp.AufAbschlagstyp" xlink:actuate="onRequest" xlink:href="https://bo4e.github.io/BO4E-python/latest/api/bo4e.enum.html#bo4e.enum.aufabschlagstyp.AufAbschlagstyp" xlink:show="new" xlink:title="https://bo4e.github.io/BO4E-python/latest/api/bo4e.enum.html#bo4e.enum.aufabschlagstyp.AufAbschlagstyp" xlink:type="simple"><text fill="#0000FF" font-family="sans-serif" font-size="14" lengthAdjust="spacing" text-decoration="underline" textLength="114" x="1203.5" y="799.0251">AufAbschlagstyp</text></a><text fill="#000000" font-family="sans-serif" font-size="10" lengthAdjust="spacing" textLength="137" x="1192" y="811.6091">bo4e.enum.aufabschlagstyp</text></g><!--class RegionalerAufAbschlag--><g id="elem_RegionalerAufAbschlag"><rect codeLine="3" fill="#F1F1F1" height="160.0156" id="RegionalerAufAbschlag" rx="2.5" ry="2.5" style="stroke:#181818;stroke-width:0.5;" width="880" x="7" y="355.99"/><ellipse cx="363.25" cy="374.9588" fill="#ADD1B2" rx="11" ry="11" style="stroke:#181818;stroke-width:1.0;"/><path d="M366.2188,380.5994 Q365.6406,380.8963 365,381.0369 Q364.3594,381.1931 363.6563,381.1931 Q361.1563,381.1931 359.8281,379.5525 Q358.5156,377.8963 358.5156,374.7713 Q358.5156,371.6463 359.8281,369.99 Q361.1563,368.3338 363.6563,368.3338 Q364.3594,368.3338 365,368.49 Q365.6563,368.6463 366.2188,368.9431 L366.2188,371.6619 Q365.5938,371.0838 365,370.8181 Q364.4063,370.5369 363.7813,370.5369 Q362.4375,370.5369 361.75,371.615 Q361.0625,372.6775 361.0625,374.7713 Q361.0625,376.865 361.75,377.9431 Q362.4375,379.0056 363.7813,379.0056 Q364.4063,379.0056 365,378.74 Q365.5938,378.4588 366.2188,377.8806 L366.2188,380.5994 Z " fill="#000000"/><a href="https://bo4e.github.io/BO4E-python/latest/api/bo4e.com.html#bo4e.com.regionaleraufabschlag.RegionalerAufAbschlag" target="_top" title="https://bo4e.github.io/BO4E-python/latest/api/bo4e.com.html#bo4e.com.regionaleraufabschlag.RegionalerAufAbschlag" xlink:actuate="onRequest" xlink:href="https://bo4e.github.io/BO4E-python/latest/api/bo4e.com.html#bo4e.com.regionaleraufabschlag.RegionalerAufAbschlag" xlink:show="new" xlink:title="https://bo4e.github.io/BO4E-python/latest/api/bo4e.com.html#bo4e.com.regionaleraufabschlag.RegionalerAufAbschlag" xlink:type="simple"><text fill="#0000FF" font-family="sans-serif" font-size="14" lengthAdjust="spacing" text-decoration="underline" textLength="159" x="383.75" y="373.9851">RegionalerAufAbschlag</text></a><text fill="#000000" font-family="sans-serif" font-size="10" lengthAdjust="spacing" textLength="157" x="384.75" y="386.5691">bo4e.com.regionaleraufabschlag</text><line style="stroke:#181818;stroke-width:0.5;" x1="8" x2="886" y1="393.9275" y2="393.9275"/><text fill="#000000" font-family="sans-serif" font-size="14" lengthAdjust="spacing" textLength="868" x="13" y="410.9226">_typ : Literal[&lt;ComTyp.REGIONALERAUFABSCHLAG: 'REGIONALERAUFABSCHLAG'&gt;] [1] = ComTyp.REGIONALERAUFABSCHLAG</text><text fill="#000000" font-family="sans-serif" font-size="14" lengthAdjust="spacing" textLength="219" x="13" y="427.2195">bezeichnung : str [0..1] = None</text><text fill="#000000" font-family="sans-serif" font-size="14" lengthAdjust="spacing" textLength="224" x="13" y="443.5164">beschreibung : str [0..1] = None</text><text fill="#000000" font-family="sans-serif" font-size="14" lengthAdjust="spacing" textLength="182" x="13" y="459.8132">website : str [0..1] = None</text><text fill="#000000" font-family="sans-serif" font-size="14" lengthAdjust="spacing" textLength="235" x="13" y="476.1101">zusatzprodukte : str [0..*] = None</text><text fill="#000000" font-family="sans-serif" font-size="14" lengthAdjust="spacing" textLength="247" x="13" y="492.407">voraussetzungen : str [0..*] = None</text><text fill="#000000" font-family="sans-serif" font-size="14" lengthAdjust="spacing" textLength="303" x="13" y="508.7039">tarifnamensaenderungen : str [0..1] = None</text></g><!--link RegionalerAufAbschlag to COM--><g id="link_RegionalerAufAbschlag_COM"><path codeLine="28" d="M764.25,355.5 C815.25,342.98 867.53,330.42 917,319 C1015.01,296.37 1112.4206,276.1349 1177.3706,262.9349 " fill="none" id="RegionalerAufAbschlag-to-COM" style="stroke:#181818;stroke-width:1.0;"/><polygon fill="none" points="1195.01,259.35,1176.1756,257.0551,1178.5656,268.8147,1195.01,259.35" style="stroke:#181818;stroke-width:1.0;"/></g><!--link RegionalerAufAbschlag to RegionalePreisstaffel--><g id="link_RegionalerAufAbschlag_RegionalePreisstaffel"><path codeLine="29" d="M887.36,457.84 C897.34,458.24 907.22,458.63 917,459 C998.06,462.09 1078.3733,464.2394 1144.6333,465.7894 " fill="none" id="RegionalerAufAbschlag-to-RegionalePreisstaffel" style="stroke:#181818;stroke-width:1.0;"/><polygon fill="#181818" points="1156.63,466.07,1150.7252,461.9308,1144.6333,465.7894,1150.5381,469.9286,1156.63,466.07" style="stroke:#181818;stroke-width:1.0;"/><text fill="#000000" font-family="sans-serif" font-size="13" lengthAdjust="spacing" textLength="47" x="985.5" y="455.0669">staffeln</text><text fill="#000000" font-family="sans-serif" font-size="13" lengthAdjust="spacing" textLength="23" x="1126.1122" y="478.5509">0..*</text></g><!--link RegionalerAufAbschlag to AufAbschlagstyp--><g id="link_RegionalerAufAbschlag_AufAbschlagstyp"><path codeLine="30" d="M563.27,516.31 C655.44,577.44 789.83,659.86 917,713 C997.66,746.7 1083.2205,768.0408 1151.0905,782.1308 " fill="none" id="RegionalerAufAbschlag-to-AufAbschlagstyp" style="stroke:#181818;stroke-width:1.0;"/><polygon fill="#181818" points="1162.84,784.57,1157.7783,779.4339,1151.0905,782.1308,1156.1522,787.2669,1162.84,784.57" style="stroke:#181818;stroke-width:1.0;"/><text fill="#000000" font-family="sans-serif" font-size="13" lengthAdjust="spacing" textLength="105" x="956.5" y="709.0669">aufAbschlagstyp</text><text fill="#000000" font-family="sans-serif" font-size="13" lengthAdjust="spacing" textLength="24" x="1131.1374" y="796.0104">0..1</text></g><!--link RegionalerAufAbschlag to AufAbschlagsziel--><g id="link_RegionalerAufAbschlag_AufAbschlagsziel"><path codeLine="31" d="M618.58,516.42 C706.54,556.1 816.23,602.85 917,638 C1000.48,667.11 1023.65,666.96 1109,690 C1130.12,695.7 1141.4825,698.7609 1162.4725,704.4109 " fill="none" id="RegionalerAufAbschlag-to-AufAbschlagsziel" style="stroke:#181818;stroke-width:1.0;"/><polygon fill="#181818" points="1174.06,707.53,1169.3059,702.1079,1162.4725,704.4109,1167.2265,709.833,1174.06,707.53" style="stroke:#181818;stroke-width:1.0;"/><text fill="#000000" font-family="sans-serif" font-size="13" lengthAdjust="spacing" textLength="106" x="956" y="634.0669">aufAbschlagsziel</text><text fill="#000000" font-family="sans-serif" font-size="13" lengthAdjust="spacing" textLength="24" x="1131.37" y="698.712">0..1</text></g><!--link RegionalerAufAbschlag to Waehrungseinheit--><g id="link_RegionalerAufAbschlag_Waehrungseinheit"><path codeLine="32" d="M742.78,516.48 C899.2,559.18 1067.0538,605.0092 1163.9238,631.4592 " fill="none" id="RegionalerAufAbschlag-to-Waehrungseinheit" style="stroke:#181818;stroke-width:1.0;"/><polygon fill="#181818" points="1175.5,634.62,1170.7655,629.1808,1163.9238,631.4592,1168.6583,636.8983,1175.5,634.62" style="stroke:#181818;stroke-width:1.0;"/><text fill="#000000" font-family="sans-serif" font-size="13" lengthAdjust="spacing" textLength="43" x="987.5" y="561.0669">einheit</text><text fill="#000000" font-family="sans-serif" font-size="13" lengthAdjust="spacing" textLength="24" x="1127.875" y="624.1459">0..1</text></g><!--link RegionalerAufAbschlag to Zeitraum--><g id="link_RegionalerAufAbschlag_Zeitraum"><path codeLine="33" d="M671.83,355.5 C799.18,310.96 962.13,256.07 1109,213 C1133.43,205.84 1148.8639,201.5371 1172.4539,195.2571 " fill="none" id="RegionalerAufAbschlag-to-Zeitraum" style="stroke:#181818;stroke-width:1.0;"/><polygon fill="#181818" points="1184.05,192.17,1177.2229,189.8482,1172.4539,195.2571,1179.281,197.5789,1184.05,192.17" style="stroke:#181818;stroke-width:1.0;"/><text fill="#000000" font-family="sans-serif" font-size="13" lengthAdjust="spacing" textLength="130" x="944" y="215.0669">gueltigkeitszeitraum</text><text fill="#000000" font-family="sans-serif" font-size="13" lengthAdjust="spacing" textLength="24" x="1152.2692" y="206.6848">0..1</text></g><!--link RegionalerAufAbschlag to Energiemix--><g id="link_RegionalerAufAbschlag_Energiemix"><path codeLine="34" d="M887.25,373.29 C1001.34,357 1099.1505,343.0363 1166.6605,333.3963 " fill="none" id="RegionalerAufAbschlag-to-Energiemix" style="stroke:#181818;stroke-width:1.0;"/><polygon fill="#181818" points="1178.54,331.7,1172.0348,328.5883,1166.6605,333.3963,1173.1657,336.508,1178.54,331.7" style="stroke:#181818;stroke-width:1.0;"/><text fill="#000000" font-family="sans-serif" font-size="13" lengthAdjust="spacing" textLength="140" x="939" y="340.0669">energiemixaenderung</text><text fill="#000000" font-family="sans-serif" font-size="13" lengthAdjust="spacing" textLength="24" x="1147.0765" y="345.3588">0..1</text></g><!--link RegionalerAufAbschlag to Vertragskonditionen--><g id="link_RegionalerAufAbschlag_Vertragskonditionen"><path codeLine="35" d="M585.64,355.58 C677.32,304.39 801.7,239.42 917,194 C999.48,161.51 1023.53,163.52 1109,140 C1129.97,134.23 1141.192,131.1675 1162.082,125.5475 " fill="none" id="RegionalerAufAbschlag-to-Vertragskonditionen" style="stroke:#181818;stroke-width:1.0;"/><polygon fill="#181818" points="1173.67,122.43,1166.8368,120.1261,1162.082,125.5475,1168.9152,127.8514,1173.67,122.43" style="stroke:#181818;stroke-width:1.0;"/><text fill="#000000" font-family="sans-serif" font-size="13" lengthAdjust="spacing" textLength="182" x="918" y="139.0669">vertagskonditionsaenderung</text><text fill="#000000" font-family="sans-serif" font-size="13" lengthAdjust="spacing" textLength="24" x="1125.5303" y="142.09">0..1</text></g><!--link RegionalerAufAbschlag to Preisgarantie--><g id="link_RegionalerAufAbschlag_Preisgarantie"><path codeLine="36" d="M887.25,413.45 C998.99,407.71 1094.5158,402.805 1162.3258,399.325 " fill="none" id="RegionalerAufAbschlag-to-Preisgarantie" style="stroke:#181818;stroke-width:1.0;"/><polygon fill="#181818" points="1174.31,398.71,1168.1129,395.0228,1162.3258,399.325,1168.5229,403.0123,1174.31,398.71" style="stroke:#181818;stroke-width:1.0;"/><text fill="#000000" font-family="sans-serif" font-size="13" lengthAdjust="spacing" textLength="122" x="948" y="399.0669">garantieaenderung</text><text fill="#000000" font-family="sans-serif" font-size="13" lengthAdjust="spacing" textLength="24" x="1142.4565" y="411.8166">0..1</text></g><!--link RegionalerAufAbschlag to Tarifeinschraenkung--><g id="link_RegionalerAufAbschlag_Tarifeinschraenkung"><path codeLine="37" d="M887.25,493.76 C990.47,507.33 1078.1925,518.8652 1146.2425,527.8152 " fill="none" id="RegionalerAufAbschlag-to-Tarifeinschraenkung" style="stroke:#181818;stroke-width:1.0;"/><polygon fill="#181818" points="1158.14,529.38,1152.7128,524.6318,1146.2425,527.8152,1151.6696,532.5635,1158.14,529.38" style="stroke:#181818;stroke-width:1.0;"/><text fill="#000000" font-family="sans-serif" font-size="13" lengthAdjust="spacing" textLength="177" x="920.5" y="494.0669">einschraenkungsaenderung</text><text fill="#000000" font-family="sans-serif" font-size="13" lengthAdjust="spacing" textLength="24" x="1126.3796" y="541.1366">0..1</text></g><!--SRC=[jLPTQzim57skVyKbUIWKwZIi6yLq1JTatQ1hIzTji2mCsRwsHMpPM7AxPjj_dwGr_ehIJ-_1e7joTNIkVNDq4mm5Y0mA6iK20bgWBsZ6BCjF2ESmcCrY8NBkZ4PUjezsH4LSUZRDHiVd-zFT_5R46HibH20N8vBJVrb-bjgnI9DX5HKOILQIO47Aa7ZSZnCIsPSLwfQXUuU24PtFlxD3JfVeZFUExgST0E5c4lXbRVqGjpauS4g5t9JC3YTPUdMRsvVJam_dP-xfzDBz_Cuz_ZHvV-gUEB1jnBUFvZ0Rp-4jtBVRsl9mYTIFMSaYUIGN1SpsR5jlFCiOgWGfh43gRSouGOzBgUOVboKdOfaNML0kMZaxTSvr9jyDvoYMyWnavYH12XeoaYBZ15c0HJUtFlIFPQb4dXCVNzWUi8hcS_tDLY4CftlkmPk9-bpzjk4r5g8W4LzaBA2gpv7PNzOnC63c1ZGGwb8C17tN8bjB7b6czhUx1QmMPgchVArlbTgtAFLCpZ-2VCmgvAC5o8I-pqQ6HKGnfJ_jQRM4UcaMLE_IkkhqlkNbyd_E8r8G9YZQ5yq8Mf5PPskxbjhQrBVQobdrkLoGCCIaDkoB1Wf6z073RjAs3Rj9qdTLskUGCkMwqkWMqkRigtKC39Yv7WEXhiP089tpfSQ9h6mwfmgRrgbY60PZ_zNhWvTwPtNKi0vl2CRgPk2oi5WQYFsr0q0NM7zfHY9TGdTl__eRCm9VKjdEZT500z05DkZl4cdztRt_Lx-SObhorLJJYHyXNcQjQPUOkkGt36Uxkx-FgejQMVscH9cv0mCrPWpgVBD_g353hzY3PED1tUfhzJj0EdKycqvtGvjFVzCd4QxzFHnOzVPZUTHBg-vt1w8I4q6ZXKJuwZv_4bVZOfHYgg0Q-fv4PfgS750ZKHFapoDlNv2ozBlbyzXC9g-_HWDe2BLY6Y2ac7fOS8l7sGriE2sKNH7mlm00]--></g></svg>