<svg xmlns="http://www.w3.org/2000/svg" xmlns:xlink="http://www.w3.org/1999/xlink" contentStyleType="text/css" data-diagram-type="CLASS" height="242px" preserveAspectRatio="none" style="width:803px;height:242px;background:#FFFFFF;" version="1.1" viewBox="0 0 803 242" width="803px" zoomAndPan="magnify"><defs/><g><!--cluster bo4e--><g class="cluster" data-entity="bo4e" data-source-line="10" data-uid="ent0005" id="cluster_bo4e"><path d="M534.36,6 L574.236,6 A3.75,3.75 0 0 1 576.736,8.5 L583.736,28.2969 L794.27,28.2969 A2.5,2.5 0 0 1 796.77,30.7969 L796.77,232.5 A2.5,2.5 0 0 1 794.27,235 L534.36,235 A2.5,2.5 0 0 1 531.86,232.5 L531.86,8.5 A2.5,2.5 0 0 1 534.36,6" fill="none" style="stroke:#000000;stroke-width:1.5;"/><line style="stroke:#000000;stroke-width:1.5;" x1="531.86" x2="583.736" y1="28.2969" y2="28.2969"/><text fill="#000000" font-family="sans-serif" font-size="14" font-weight="bold" lengthAdjust="spacing" textLength="38.876" x="535.86" y="20.9951">bo4e</text></g><!--cluster com--><g class="cluster" data-entity="com" data-source-line="9" data-uid="ent0003" id="cluster_com"><path d="M558.36,49 L636.0592,49 A3.75,3.75 0 0 1 638.5592,51.5 L645.5592,71.2969 L770.27,71.2969 A2.5,2.5 0 0 1 772.77,73.7969 L772.77,208.5 A2.5,2.5 0 0 1 770.27,211 L558.36,211 A2.5,2.5 0 0 1 555.86,208.5 L555.86,51.5 A2.5,2.5 0 0 1 558.36,49" fill="#E0A86C" style="stroke:#000000;stroke-width:1.5;"/><line style="stroke:#000000;stroke-width:1.5;" x1="555.86" x2="645.5592" y1="71.2969" y2="71.2969"/><a href="file:////home/runner/work/BO4E-python/BO4E-python/docs/../.tox/docs/tmp/html/api/bo4e.com.html" target="_top" title="file:////home/runner/work/BO4E-python/BO4E-python/docs/../.tox/docs/tmp/html/api/bo4e.com.html" xlink:actuate="onRequest" xlink:href="file:////home/runner/work/BO4E-python/BO4E-python/docs/../.tox/docs/tmp/html/api/bo4e.com.html" xlink:show="new" xlink:title="file:////home/runner/work/BO4E-python/BO4E-python/docs/../.tox/docs/tmp/html/api/bo4e.com.html" xlink:type="simple"><text fill="#0000FF" font-family="sans-serif" font-size="14" font-weight="bold" lengthAdjust="spacing" text-decoration="underline" textLength="76.6992" x="559.86" y="63.9951">bo4e.com</text></a></g><!--class Preisstaffel--><g class="entity" data-entity="Preisstaffel" data-source-line="10" data-uid="ent0004" id="entity_Preisstaffel"><rect fill="#F1F1F1" height="37.9375" rx="2.5" ry="2.5" style="stroke:#181818;stroke-width:0.5;" width="140.5254" x="594.05" y="84.03"/><ellipse cx="609.05" cy="102.9988" fill="#ADD1B2" rx="11" ry="11" style="stroke:#181818;stroke-width:1;"/><path d="M612.0188,108.6394 Q611.4406,108.9363 610.8,109.0769 Q610.1594,109.2331 609.4563,109.2331 Q606.9563,109.2331 605.6281,107.5925 Q604.3156,105.9363 604.3156,102.8113 Q604.3156,99.6863 605.6281,98.03 Q606.9563,96.3738 609.4563,96.3738 Q610.1594,96.3738 610.8,96.53 Q611.4563,96.6863 612.0188,96.9831 L612.0188,99.7019 Q611.3938,99.1238 610.8,98.8581 Q610.2063,98.5769 609.5813,98.5769 Q608.2375,98.5769 607.55,99.655 Q606.8625,100.7175 606.8625,102.8113 Q606.8625,104.905 607.55,105.9831 Q608.2375,107.0456 609.5813,107.0456 Q610.2063,107.0456 610.8,106.78 Q611.3938,106.4988 612.0188,105.9206 L612.0188,108.6394 Z " fill="#000000"/><a href="file:////home/runner/work/BO4E-python/BO4E-python/docs/../.tox/docs/tmp/html/api/bo4e.com.html#bo4e.com.preisstaffel.Preisstaffel" target="_top" title="file:////home/runner/work/BO4E-python/BO4E-python/docs/../.tox/docs/tmp/html/api/bo4e.com.html#bo4e.com.preisstaffel.Preisstaffel" xlink:actuate="onRequest" xlink:href="file:////home/runner/work/BO4E-python/BO4E-python/docs/../.tox/docs/tmp/html/api/bo4e.com.html#bo4e.com.preisstaffel.Preisstaffel" xlink:show="new" xlink:title="file:////home/runner/work/BO4E-python/BO4E-python/docs/../.tox/docs/tmp/html/api/bo4e.com.html#bo4e.com.preisstaffel.Preisstaffel" xlink:type="simple"><text fill="#0000FF" font-family="sans-serif" font-size="14" lengthAdjust="spacing" text-decoration="underline" textLength="77.7178" x="638.4538" y="102.0251">Preisstaffel</text></a><text fill="#000000" font-family="sans-serif" font-size="10" lengthAdjust="spacing" textLength="108.5254" x="623.05" y="114.6091">bo4e.com.preisstaffel</text></g><!--class RegionaleGueltigkeit--><g class="entity" data-entity="RegionaleGueltigkeit" data-source-line="11" data-uid="ent0006" id="entity_RegionaleGueltigkeit"><rect fill="#F1F1F1" height="37.9375" rx="2.5" ry="2.5" style="stroke:#181818;stroke-width:0.5;" width="184.9053" x="571.86" y="157.03"/><ellipse cx="586.86" cy="175.9988" fill="#ADD1B2" rx="11" ry="11" style="stroke:#181818;stroke-width:1;"/><path d="M589.8288,181.6394 Q589.2506,181.9363 588.61,182.0769 Q587.9694,182.2331 587.2663,182.2331 Q584.7663,182.2331 583.4381,180.5925 Q582.1256,178.9363 582.1256,175.8113 Q582.1256,172.6863 583.4381,171.03 Q584.7663,169.3738 587.2663,169.3738 Q587.9694,169.3738 588.61,169.53 Q589.2663,169.6863 589.8288,169.9831 L589.8288,172.7019 Q589.2038,172.1238 588.61,171.8581 Q588.0163,171.5769 587.3913,171.5769 Q586.0475,171.5769 585.36,172.655 Q584.6725,173.7175 584.6725,175.8113 Q584.6725,177.905 585.36,178.9831 Q586.0475,180.0456 587.3913,180.0456 Q588.0163,180.0456 588.61,179.78 Q589.2038,179.4988 589.8288,178.9206 L589.8288,181.6394 Z " fill="#000000"/><a href="file:////home/runner/work/BO4E-python/BO4E-python/docs/../.tox/docs/tmp/html/api/bo4e.com.html#bo4e.com.regionalegueltigkeit.RegionaleGueltigkeit" target="_top" title="file:////home/runner/work/BO4E-python/BO4E-python/docs/../.tox/docs/tmp/html/api/bo4e.com.html#bo4e.com.regionalegueltigkeit.RegionaleGueltigkeit" xlink:actuate="onRequest" xlink:href="file:////home/runner/work/BO4E-python/BO4E-python/docs/../.tox/docs/tmp/html/api/bo4e.com.html#bo4e.com.regionalegueltigkeit.RegionaleGueltigkeit" xlink:show="new" xlink:title="file:////home/runner/work/BO4E-python/BO4E-python/docs/../.tox/docs/tmp/html/api/bo4e.com.html#bo4e.com.regionalegueltigkeit.RegionaleGueltigkeit" xlink:type="simple"><text fill="#0000FF" font-family="sans-serif" font-size="14" lengthAdjust="spacing" text-decoration="underline" textLength="146.2275" x="604.1989" y="175.0251">RegionaleGueltigkeit</text></a><text fill="#000000" font-family="sans-serif" font-size="10" lengthAdjust="spacing" textLength="152.9053" x="600.86" y="187.6091">bo4e.com.regionalegueltigkeit</text></g><!--class RegionalePreisstaffel--><g class="entity" data-entity="RegionalePreisstaffel" data-source-line="3" data-uid="ent0002" id="entity_RegionalePreisstaffel"><rect fill="#F1F1F1" height="94.8281" rx="2.5" ry="2.5" style="stroke:#181818;stroke-width:0.5;" width="344.8623" x="7" y="92.59"/><ellipse cx="97.4663" cy="111.5588" fill="#ADD1B2" rx="11" ry="11" style="stroke:#181818;stroke-width:1;"/><path d="M100.4351,117.1994 Q99.8569,117.4963 99.2163,117.6369 Q98.5757,117.7931 97.8726,117.7931 Q95.3726,117.7931 94.0444,116.1525 Q92.7319,114.4963 92.7319,111.3713 Q92.7319,108.2463 94.0444,106.59 Q95.3726,104.9338 97.8726,104.9338 Q98.5757,104.9338 99.2163,105.09 Q99.8726,105.2463 100.4351,105.5431 L100.4351,108.2619 Q99.8101,107.6838 99.2163,107.4181 Q98.6226,107.1369 97.9976,107.1369 Q96.6538,107.1369 95.9663,108.215 Q95.2788,109.2775 95.2788,111.3713 Q95.2788,113.465 95.9663,114.5431 Q96.6538,115.6056 97.9976,115.6056 Q98.6226,115.6056 99.2163,115.34 Q99.8101,115.0588 100.4351,114.4806 L100.4351,117.1994 Z " fill="#000000"/><a href="file:////home/runner/work/BO4E-python/BO4E-python/docs/../.tox/docs/tmp/html/api/bo4e.com.html#bo4e.com.regionalepreisstaffel.RegionalePreisstaffel" target="_top" title="file:////home/runner/work/BO4E-python/BO4E-python/docs/../.tox/docs/tmp/html/api/bo4e.com.html#bo4e.com.regionalepreisstaffel.RegionalePreisstaffel" xlink:actuate="onRequest" xlink:href="file:////home/runner/work/BO4E-python/BO4E-python/docs/../.tox/docs/tmp/html/api/bo4e.com.html#bo4e.com.regionalepreisstaffel.RegionalePreisstaffel" xlink:show="new" xlink:title="file:////home/runner/work/BO4E-python/BO4E-python/docs/../.tox/docs/tmp/html/api/bo4e.com.html#bo4e.com.regionalepreisstaffel.RegionalePreisstaffel" xlink:type="simple"><text fill="#0000FF" font-family="sans-serif" font-size="14" lengthAdjust="spacing" text-decoration="underline" textLength="147.3555" x="122.0034" y="110.5851">RegionalePreisstaffel</text></a><text fill="#000000" font-family="sans-serif" font-size="10" lengthAdjust="spacing" textLength="155.4297" x="117.9663" y="123.1691">bo4e.com.regionalepreisstaffel</text><line style="stroke:#181818;stroke-width:0.5;" x1="8" x2="350.8623" y1="130.5275" y2="130.5275"/><text fill="#000000" font-family="sans-serif" font-size="14" lengthAdjust="spacing" textLength="332.8623" x="13" y="147.5226">_version : str [0..1] = 202501.0.0+g7b47c8326</text><text fill="#000000" font-family="sans-serif" font-size="14" lengthAdjust="spacing" textLength="151.1768" x="13" y="163.8195">_id : str [0..1] = None</text><text fill="#000000" font-family="sans-serif" font-size="14" lengthAdjust="spacing" textLength="318.5752" x="13" y="180.1164">zusatzAttribute : ZusatzAttribut [0..*] = None</text></g><!--link RegionalePreisstaffel to Preisstaffel--><g class="link" data-entity-1="RegionalePreisstaffel" data-entity-2="Preisstaffel" data-source-line="14" data-uid="lnk7" id="link_RegionalePreisstaffel_Preisstaffel"><path codeLine="14" d="M352.04,126.85 C435.26,120.47 512.6427,114.5457 575.6527,109.7157" fill="none" id="RegionalePreisstaffel-to-Preisstaffel" style="stroke:#181818;stroke-width:1;"/><polygon fill="none" points="593.6,108.34,575.1941,103.7333,576.1112,115.6982,593.6,108.34" style="stroke:#181818;stroke-width:1;"/></g><!--link RegionalePreisstaffel to RegionaleGueltigkeit--><g class="link" data-entity-1="RegionalePreisstaffel" data-entity-2="RegionaleGueltigkeit" data-source-line="15" data-uid="lnk8" id="link_RegionalePreisstaffel_RegionaleGueltigkeit"><path codeLine="15" d="M352.04,152.79 C426.04,158.31 497.6633,163.6468 559.5633,168.2668" fill="none" id="RegionalePreisstaffel-to-RegionaleGueltigkeit" style="stroke:#181818;stroke-width:1;"/><polygon fill="#181818" points="571.53,169.16,565.8444,164.7245,559.5633,168.2668,565.2489,172.7023,571.53,169.16" style="stroke:#181818;stroke-width:1;"/><text fill="#000000" font-family="sans-serif" font-size="13" lengthAdjust="spacing" textLength="132.0947" x="382.86" y="152.0669">regionaleGueltigkeit</text><text fill="#000000" font-family="sans-serif" font-size="13" lengthAdjust="spacing" textLength="24.8066" x="539.2123" y="181.2849">0..1</text></g><!--SRC=[nLDTJy8m57rsl-9cl65e1oAGHKdG4D_K-2WkPXztMqEtBcqdYlhVtJ2CJOSygNtgFJtttlQUKuwX1Yr0iYZM4329lcOYDGoVkqg1kLY4ZADDYnMB1AdCqnGbNGcvf1StmtalUz6nI1lxGFYA4aA95i-VWKuo6kk4KpTZr1D39Bv8I8bqgaXYL3HsEMOIcLBQ3KFav6wBtjPGQ4KTvo4zKsoDTj-Q_bpM15Ur5u5Nu-Zn2QKgZi06fIKiB4Bw3fp3m1gSMdrY4Uiu6dl3iJyv6OmAEWk-Cgz5YiRHEbUkNi-qbipBDHQa-mQouNSh_hjXf6w2AdDz_Ft1mpPodCqqjY5qvjPiChei1_7d7cX8tv3biD3VzAsd_CDRAkD5ENBDeYKolRFprGw4Dl20cMircrwkbIWDjUV_z7flqqhnng3tPHGfNJ1BVvkxnDRNs23RBcF4B418CF6ApsMeMAnWJwkG8G_K1m00]--></g></svg>