<?xml version="1.0" encoding="us-ascii" standalone="no"?><svg xmlns="http://www.w3.org/2000/svg" xmlns:xlink="http://www.w3.org/1999/xlink" contentStyleType="text/css" height="242px" preserveAspectRatio="none" style="width:806px;height:242px;background:#FFFFFF;" version="1.1" viewBox="0 0 806 242" width="806px" zoomAndPan="magnify"><defs/><g><!--cluster bo4e--><g id="cluster_bo4e"><path d="M545.5,6 L586.5,6 A3.75,3.75 0 0 1 589,8.5 L596,28.2969 L796.5,28.2969 A2.5,2.5 0 0 1 799,30.7969 L799,232.5 A2.5,2.5 0 0 1 796.5,235 L545.5,235 A2.5,2.5 0 0 1 543,232.5 L543,8.5 A2.5,2.5 0 0 1 545.5,6 " fill="none" style="stroke:#000000;stroke-width:1.5;"/><line style="stroke:#000000;stroke-width:1.5;" x1="543" x2="596" y1="28.2969" y2="28.2969"/><text fill="#000000" font-family="sans-serif" font-size="14" font-weight="bold" lengthAdjust="spacing" textLength="40" x="547" y="20.9951">bo4e</text></g><!--cluster com--><g id="cluster_com"><path d="M569.5,49 L648.5,49 A3.75,3.75 0 0 1 651,51.5 L658,71.2969 L772.5,71.2969 A2.5,2.5 0 0 1 775,73.7969 L775,208.5 A2.5,2.5 0 0 1 772.5,211 L569.5,211 A2.5,2.5 0 0 1 567,208.5 L567,51.5 A2.5,2.5 0 0 1 569.5,49 " fill="#E0A86C" style="stroke:#000000;stroke-width:1.5;"/><line style="stroke:#000000;stroke-width:1.5;" x1="567" x2="658" y1="71.2969" y2="71.2969"/><a href="https://bo4e.github.io/BO4E-python/latest/api/bo4e.com.html" target="_top" title="https://bo4e.github.io/BO4E-python/latest/api/bo4e.com.html" xlink:actuate="onRequest" xlink:href="https://bo4e.github.io/BO4E-python/latest/api/bo4e.com.html" xlink:show="new" xlink:title="https://bo4e.github.io/BO4E-python/latest/api/bo4e.com.html" xlink:type="simple"><text fill="#0000FF" font-family="sans-serif" font-size="14" font-weight="bold" lengthAdjust="spacing" text-decoration="underline" textLength="78" x="571" y="63.9951">bo4e.com</text></a></g><!--class Preisstaffel--><g id="elem_Preisstaffel"><rect codeLine="10" fill="#F1F1F1" height="37.9375" id="Preisstaffel" rx="2.5" ry="2.5" style="stroke:#181818;stroke-width:0.5;" width="137" x="602.5" y="84.03"/><ellipse cx="617.5" cy="102.9988" fill="#ADD1B2" rx="11" ry="11" style="stroke:#181818;stroke-width:1.0;"/><path d="M620.4688,108.6394 Q619.8906,108.9363 619.25,109.0769 Q618.6094,109.2331 617.9063,109.2331 Q615.4063,109.2331 614.0781,107.5925 Q612.7656,105.9363 612.7656,102.8113 Q612.7656,99.6863 614.0781,98.03 Q615.4063,96.3738 617.9063,96.3738 Q618.6094,96.3738 619.25,96.53 Q619.9063,96.6863 620.4688,96.9831 L620.4688,99.7019 Q619.8438,99.1238 619.25,98.8581 Q618.6563,98.5769 618.0313,98.5769 Q616.6875,98.5769 616,99.655 Q615.3125,100.7175 615.3125,102.8113 Q615.3125,104.905 616,105.9831 Q616.6875,107.0456 618.0313,107.0456 Q618.6563,107.0456 619.25,106.78 Q619.8438,106.4988 620.4688,105.9206 L620.4688,108.6394 Z " fill="#000000"/><a href="https://bo4e.github.io/BO4E-python/latest/api/bo4e.com.html#bo4e.com.preisstaffel.Preisstaffel" target="_top" title="https://bo4e.github.io/BO4E-python/latest/api/bo4e.com.html#bo4e.com.preisstaffel.Preisstaffel" xlink:actuate="onRequest" xlink:href="https://bo4e.github.io/BO4E-python/latest/api/bo4e.com.html#bo4e.com.preisstaffel.Preisstaffel" xlink:show="new" xlink:title="https://bo4e.github.io/BO4E-python/latest/api/bo4e.com.html#bo4e.com.preisstaffel.Preisstaffel" xlink:type="simple"><text fill="#0000FF" font-family="sans-serif" font-size="14" lengthAdjust="spacing" text-decoration="underline" textLength="75" x="646.5" y="102.0251">Preisstaffel</text></a><text fill="#000000" font-family="sans-serif" font-size="10" lengthAdjust="spacing" textLength="105" x="631.5" y="114.6091">bo4e.com.preisstaffel</text></g><!--class RegionaleGueltigkeit--><g id="elem_RegionaleGueltigkeit"><rect codeLine="11" fill="#F1F1F1" height="37.9375" id="RegionaleGueltigkeit" rx="2.5" ry="2.5" style="stroke:#181818;stroke-width:0.5;" width="176" x="583" y="157.03"/><ellipse cx="598" cy="175.9988" fill="#ADD1B2" rx="11" ry="11" style="stroke:#181818;stroke-width:1.0;"/><path d="M600.9688,181.6394 Q600.3906,181.9363 599.75,182.0769 Q599.1094,182.2331 598.4063,182.2331 Q595.9063,182.2331 594.5781,180.5925 Q593.2656,178.9363 593.2656,175.8113 Q593.2656,172.6863 594.5781,171.03 Q595.9063,169.3738 598.4063,169.3738 Q599.1094,169.3738 599.75,169.53 Q600.4063,169.6863 600.9688,169.9831 L600.9688,172.7019 Q600.3438,172.1238 599.75,171.8581 Q599.1563,171.5769 598.5313,171.5769 Q597.1875,171.5769 596.5,172.655 Q595.8125,173.7175 595.8125,175.8113 Q595.8125,177.905 596.5,178.9831 Q597.1875,180.0456 598.5313,180.0456 Q599.1563,180.0456 599.75,179.78 Q600.3438,179.4988 600.9688,178.9206 L600.9688,181.6394 Z " fill="#000000"/><a href="https://bo4e.github.io/BO4E-python/latest/api/bo4e.com.html#bo4e.com.regionalegueltigkeit.RegionaleGueltigkeit" target="_top" title="https://bo4e.github.io/BO4E-python/latest/api/bo4e.com.html#bo4e.com.regionalegueltigkeit.RegionaleGueltigkeit" xlink:actuate="onRequest" xlink:href="https://bo4e.github.io/BO4E-python/latest/api/bo4e.com.html#bo4e.com.regionalegueltigkeit.RegionaleGueltigkeit" xlink:show="new" xlink:title="https://bo4e.github.io/BO4E-python/latest/api/bo4e.com.html#bo4e.com.regionalegueltigkeit.RegionaleGueltigkeit" xlink:type="simple"><text fill="#0000FF" font-family="sans-serif" font-size="14" lengthAdjust="spacing" text-decoration="underline" textLength="143" x="612.5" y="175.0251">RegionaleGueltigkeit</text></a><text fill="#000000" font-family="sans-serif" font-size="10" lengthAdjust="spacing" textLength="144" x="612" y="187.6091">bo4e.com.regionalegueltigkeit</text></g><!--class RegionalePreisstaffel--><g id="elem_RegionalePreisstaffel"><rect codeLine="3" fill="#F1F1F1" height="94.8281" id="RegionalePreisstaffel" rx="2.5" ry="2.5" style="stroke:#181818;stroke-width:0.5;" width="361" x="7" y="92.59"/><ellipse cx="108.75" cy="111.5588" fill="#ADD1B2" rx="11" ry="11" style="stroke:#181818;stroke-width:1.0;"/><path d="M111.7188,117.1994 Q111.1406,117.4963 110.5,117.6369 Q109.8594,117.7931 109.1563,117.7931 Q106.6563,117.7931 105.3281,116.1525 Q104.0156,114.4963 104.0156,111.3713 Q104.0156,108.2463 105.3281,106.59 Q106.6563,104.9338 109.1563,104.9338 Q109.8594,104.9338 110.5,105.09 Q111.1563,105.2463 111.7188,105.5431 L111.7188,108.2619 Q111.0938,107.6838 110.5,107.4181 Q109.9063,107.1369 109.2813,107.1369 Q107.9375,107.1369 107.25,108.215 Q106.5625,109.2775 106.5625,111.3713 Q106.5625,113.465 107.25,114.5431 Q107.9375,115.6056 109.2813,115.6056 Q109.9063,115.6056 110.5,115.34 Q111.0938,115.0588 111.7188,114.4806 L111.7188,117.1994 Z " fill="#000000"/><a href="https://bo4e.github.io/BO4E-python/latest/api/bo4e.com.html#bo4e.com.regionalepreisstaffel.RegionalePreisstaffel" target="_top" title="https://bo4e.github.io/BO4E-python/latest/api/bo4e.com.html#bo4e.com.regionalepreisstaffel.RegionalePreisstaffel" xlink:actuate="onRequest" xlink:href="https://bo4e.github.io/BO4E-python/latest/api/bo4e.com.html#bo4e.com.regionalepreisstaffel.RegionalePreisstaffel" xlink:show="new" xlink:title="https://bo4e.github.io/BO4E-python/latest/api/bo4e.com.html#bo4e.com.regionalepreisstaffel.RegionalePreisstaffel" xlink:type="simple"><text fill="#0000FF" font-family="sans-serif" font-size="14" lengthAdjust="spacing" text-decoration="underline" textLength="144" x="131.75" y="110.5851">RegionalePreisstaffel</text></a><text fill="#000000" font-family="sans-serif" font-size="10" lengthAdjust="spacing" textLength="149" x="129.25" y="123.1691">bo4e.com.regionalepreisstaffel</text><line style="stroke:#181818;stroke-width:0.5;" x1="8" x2="367" y1="130.5275" y2="130.5275"/><text fill="#000000" font-family="sans-serif" font-size="14" lengthAdjust="spacing" textLength="349" x="13" y="147.5226">_version : str [0..1] = 202401.1.2.dev9+g602a481</text><text fill="#000000" font-family="sans-serif" font-size="14" lengthAdjust="spacing" textLength="147" x="13" y="163.8195">_id : str [0..1] = None</text><text fill="#000000" font-family="sans-serif" font-size="14" lengthAdjust="spacing" textLength="311" x="13" y="180.1164">zusatzAttribute : ZusatzAttribut [0..*] = None</text></g><!--link RegionalePreisstaffel to Preisstaffel--><g id="link_RegionalePreisstaffel_Preisstaffel"><path codeLine="14" d="M368.48,126.17 C450.08,119.9 523.7028,114.2374 584.2928,109.5874 " fill="none" id="RegionalePreisstaffel-to-Preisstaffel" style="stroke:#181818;stroke-width:1.0;"/><polygon fill="none" points="602.24,108.21,583.8337,103.605,584.7519,115.5698,602.24,108.21" style="stroke:#181818;stroke-width:1.0;"/></g><!--link RegionalePreisstaffel to RegionaleGueltigkeit--><g id="link_RegionalePreisstaffel_RegionaleGueltigkeit"><path codeLine="15" d="M368.48,153.46 C441.67,158.93 510.9034,164.1059 570.5934,168.5659 " fill="none" id="RegionalePreisstaffel-to-RegionaleGueltigkeit" style="stroke:#181818;stroke-width:1.0;"/><polygon fill="#181818" points="582.56,169.46,576.8747,165.024,570.5934,168.5659,576.2786,173.0018,582.56,169.46" style="stroke:#181818;stroke-width:1.0;"/><text fill="#000000" font-family="sans-serif" font-size="13" lengthAdjust="spacing" textLength="127" x="399" y="152.0669">regionaleGueltigkeit</text><text fill="#000000" font-family="sans-serif" font-size="13" lengthAdjust="spacing" textLength="24" x="550.8701" y="181.6056">0..1</text></g><!--SRC=[hL9DJuD053oNN_52RpLTFaAQIhH9DOqtDHwjn2pmW8tBHzX7ZLN_kxIc59JQWps-OMROzsOaHWIKGodYX20K9GOayapJ0icL0dsvJ8WAvHg6dpl8Oa59vJEH6rTtpc9Sl56IPuRaX8eCNeXlLf2dBA5K3fkfnBXsvHAB4eLInAC89NlOeVSj57fHptlABfHOeskPixzjTU2gtmJUjS7p2ajLVm8N59MmD1cpFBW4sxGTqs8Mirc8g_EpU6BQt9bQjKA4FyctUORQO5qfJkivKIdyYh0cFNQGBN_Ky3yrBUCfge87-C_3mcxolEsskn662tC-dLnl5ZrjW9tSEZSzdjAlSDgIKp-qgKHSeIGHlw2WVT5kzY3qWKTgrlBijgnbiSdvGBF7uuzParNdYeSKjMG4-gPs-bxOkuqBPTzZj4I422ccVbrxJINvAnpuLIHGXkeB]--></g></svg>