<svg xmlns="http://www.w3.org/2000/svg" xmlns:xlink="http://www.w3.org/1999/xlink" contentStyleType="text/css" data-diagram-type="CLASS" height="242px" preserveAspectRatio="none" style="width:802px;height:242px;background:#FFFFFF;" version="1.1" viewBox="0 0 802 242" width="802px" zoomAndPan="magnify"><defs/><g><!--cluster bo4e--><g class="cluster" data-entity="bo4e" data-source-line="10" data-uid="ent0005" id="cluster_bo4e"><path d="M533.11,6 L572.986,6 A3.75,3.75 0 0 1 575.486,8.5 L582.486,28.2969 L793.02,28.2969 A2.5,2.5 0 0 1 795.52,30.7969 L795.52,232.5 A2.5,2.5 0 0 1 793.02,235 L533.11,235 A2.5,2.5 0 0 1 530.61,232.5 L530.61,8.5 A2.5,2.5 0 0 1 533.11,6" fill="none" style="stroke:#000000;stroke-width:1.5;"/><line style="stroke:#000000;stroke-width:1.5;" x1="530.61" x2="582.486" y1="28.2969" y2="28.2969"/><text fill="#000000" font-family="sans-serif" font-size="14" font-weight="bold" lengthAdjust="spacing" textLength="38.876" x="534.61" y="20.9951">bo4e</text></g><!--cluster com--><g class="cluster" data-entity="com" data-source-line="9" data-uid="ent0003" id="cluster_com"><path d="M557.11,49 L634.8092,49 A3.75,3.75 0 0 1 637.3092,51.5 L644.3092,71.2969 L769.02,71.2969 A2.5,2.5 0 0 1 771.52,73.7969 L771.52,208.5 A2.5,2.5 0 0 1 769.02,211 L557.11,211 A2.5,2.5 0 0 1 554.61,208.5 L554.61,51.5 A2.5,2.5 0 0 1 557.11,49" fill="#E0A86C" style="stroke:#000000;stroke-width:1.5;"/><line style="stroke:#000000;stroke-width:1.5;" x1="554.61" x2="644.3092" y1="71.2969" y2="71.2969"/><a href="file:////home/runner/work/BO4E-python/BO4E-python/docs/../.tox/docs/tmp/html/api/bo4e.com.html" target="_top" title="file:////home/runner/work/BO4E-python/BO4E-python/docs/../.tox/docs/tmp/html/api/bo4e.com.html" xlink:actuate="onRequest" xlink:href="file:////home/runner/work/BO4E-python/BO4E-python/docs/../.tox/docs/tmp/html/api/bo4e.com.html" xlink:show="new" xlink:title="file:////home/runner/work/BO4E-python/BO4E-python/docs/../.tox/docs/tmp/html/api/bo4e.com.html" xlink:type="simple"><text fill="#0000FF" font-family="sans-serif" font-size="14" font-weight="bold" lengthAdjust="spacing" text-decoration="underline" textLength="76.6992" x="558.61" y="63.9951">bo4e.com</text></a></g><!--class RegionaleGueltigkeit--><g class="entity" data-entity="RegionaleGueltigkeit" data-source-line="10" data-uid="ent0004" id="entity_RegionaleGueltigkeit"><rect fill="#F1F1F1" height="37.9375" rx="2.5" ry="2.5" style="stroke:#181818;stroke-width:0.5;" width="184.9053" x="570.61" y="84.03"/><ellipse cx="585.61" cy="102.9988" fill="#ADD1B2" rx="11" ry="11" style="stroke:#181818;stroke-width:1;"/><path d="M588.5788,108.6394 Q588.0006,108.9363 587.36,109.0769 Q586.7194,109.2331 586.0163,109.2331 Q583.5163,109.2331 582.1881,107.5925 Q580.8756,105.9363 580.8756,102.8113 Q580.8756,99.6863 582.1881,98.03 Q583.5163,96.3738 586.0163,96.3738 Q586.7194,96.3738 587.36,96.53 Q588.0163,96.6863 588.5788,96.9831 L588.5788,99.7019 Q587.9538,99.1238 587.36,98.8581 Q586.7663,98.5769 586.1413,98.5769 Q584.7975,98.5769 584.11,99.655 Q583.4225,100.7175 583.4225,102.8113 Q583.4225,104.905 584.11,105.9831 Q584.7975,107.0456 586.1413,107.0456 Q586.7663,107.0456 587.36,106.78 Q587.9538,106.4988 588.5788,105.9206 L588.5788,108.6394 Z " fill="#000000"/><a href="file:////home/runner/work/BO4E-python/BO4E-python/docs/../.tox/docs/tmp/html/api/bo4e.com.html#bo4e.com.regionalegueltigkeit.RegionaleGueltigkeit" target="_top" title="file:////home/runner/work/BO4E-python/BO4E-python/docs/../.tox/docs/tmp/html/api/bo4e.com.html#bo4e.com.regionalegueltigkeit.RegionaleGueltigkeit" xlink:actuate="onRequest" xlink:href="file:////home/runner/work/BO4E-python/BO4E-python/docs/../.tox/docs/tmp/html/api/bo4e.com.html#bo4e.com.regionalegueltigkeit.RegionaleGueltigkeit" xlink:show="new" xlink:title="file:////home/runner/work/BO4E-python/BO4E-python/docs/../.tox/docs/tmp/html/api/bo4e.com.html#bo4e.com.regionalegueltigkeit.RegionaleGueltigkeit" xlink:type="simple"><text fill="#0000FF" font-family="sans-serif" font-size="14" lengthAdjust="spacing" text-decoration="underline" textLength="146.2275" x="602.9489" y="102.0251">RegionaleGueltigkeit</text></a><text fill="#000000" font-family="sans-serif" font-size="10" lengthAdjust="spacing" textLength="152.9053" x="599.61" y="114.6091">bo4e.com.regionalegueltigkeit</text></g><!--class Preisstaffel--><g class="entity" data-entity="Preisstaffel" data-source-line="11" data-uid="ent0006" id="entity_Preisstaffel"><rect fill="#F1F1F1" height="37.9375" rx="2.5" ry="2.5" style="stroke:#181818;stroke-width:0.5;" width="140.5254" x="592.8" y="157.03"/><ellipse cx="607.8" cy="175.9988" fill="#ADD1B2" rx="11" ry="11" style="stroke:#181818;stroke-width:1;"/><path d="M610.7688,181.6394 Q610.1906,181.9363 609.55,182.0769 Q608.9094,182.2331 608.2063,182.2331 Q605.7063,182.2331 604.3781,180.5925 Q603.0656,178.9363 603.0656,175.8113 Q603.0656,172.6863 604.3781,171.03 Q605.7063,169.3738 608.2063,169.3738 Q608.9094,169.3738 609.55,169.53 Q610.2063,169.6863 610.7688,169.9831 L610.7688,172.7019 Q610.1438,172.1238 609.55,171.8581 Q608.9563,171.5769 608.3313,171.5769 Q606.9875,171.5769 606.3,172.655 Q605.6125,173.7175 605.6125,175.8113 Q605.6125,177.905 606.3,178.9831 Q606.9875,180.0456 608.3313,180.0456 Q608.9563,180.0456 609.55,179.78 Q610.1438,179.4988 610.7688,178.9206 L610.7688,181.6394 Z " fill="#000000"/><a href="file:////home/runner/work/BO4E-python/BO4E-python/docs/../.tox/docs/tmp/html/api/bo4e.com.html#bo4e.com.preisstaffel.Preisstaffel" target="_top" title="file:////home/runner/work/BO4E-python/BO4E-python/docs/../.tox/docs/tmp/html/api/bo4e.com.html#bo4e.com.preisstaffel.Preisstaffel" xlink:actuate="onRequest" xlink:href="file:////home/runner/work/BO4E-python/BO4E-python/docs/../.tox/docs/tmp/html/api/bo4e.com.html#bo4e.com.preisstaffel.Preisstaffel" xlink:show="new" xlink:title="file:////home/runner/work/BO4E-python/BO4E-python/docs/../.tox/docs/tmp/html/api/bo4e.com.html#bo4e.com.preisstaffel.Preisstaffel" xlink:type="simple"><text fill="#0000FF" font-family="sans-serif" font-size="14" lengthAdjust="spacing" text-decoration="underline" textLength="77.7178" x="637.2038" y="175.0251">Preisstaffel</text></a><text fill="#000000" font-family="sans-serif" font-size="10" lengthAdjust="spacing" textLength="108.5254" x="621.8" y="187.6091">bo4e.com.preisstaffel</text></g><!--class RegionalePreisstaffel--><g class="entity" data-entity="RegionalePreisstaffel" data-source-line="3" data-uid="ent0002" id="entity_RegionalePreisstaffel"><rect fill="#F1F1F1" height="94.8281" rx="2.5" ry="2.5" style="stroke:#181818;stroke-width:0.5;" width="343.6113" x="7" y="92.59"/><ellipse cx="96.8408" cy="111.5588" fill="#ADD1B2" rx="11" ry="11" style="stroke:#181818;stroke-width:1;"/><path d="M99.8096,117.1994 Q99.2314,117.4963 98.5908,117.6369 Q97.9502,117.7931 97.2471,117.7931 Q94.7471,117.7931 93.4189,116.1525 Q92.1064,114.4963 92.1064,111.3713 Q92.1064,108.2463 93.4189,106.59 Q94.7471,104.9338 97.2471,104.9338 Q97.9502,104.9338 98.5908,105.09 Q99.2471,105.2463 99.8096,105.5431 L99.8096,108.2619 Q99.1846,107.6838 98.5908,107.4181 Q97.9971,107.1369 97.3721,107.1369 Q96.0283,107.1369 95.3408,108.215 Q94.6533,109.2775 94.6533,111.3713 Q94.6533,113.465 95.3408,114.5431 Q96.0283,115.6056 97.3721,115.6056 Q97.9971,115.6056 98.5908,115.34 Q99.1846,115.0588 99.8096,114.4806 L99.8096,117.1994 Z " fill="#000000"/><a href="file:////home/runner/work/BO4E-python/BO4E-python/docs/../.tox/docs/tmp/html/api/bo4e.com.html#bo4e.com.regionalepreisstaffel.RegionalePreisstaffel" target="_top" title="file:////home/runner/work/BO4E-python/BO4E-python/docs/../.tox/docs/tmp/html/api/bo4e.com.html#bo4e.com.regionalepreisstaffel.RegionalePreisstaffel" xlink:actuate="onRequest" xlink:href="file:////home/runner/work/BO4E-python/BO4E-python/docs/../.tox/docs/tmp/html/api/bo4e.com.html#bo4e.com.regionalepreisstaffel.RegionalePreisstaffel" xlink:show="new" xlink:title="file:////home/runner/work/BO4E-python/BO4E-python/docs/../.tox/docs/tmp/html/api/bo4e.com.html#bo4e.com.regionalepreisstaffel.RegionalePreisstaffel" xlink:type="simple"><text fill="#0000FF" font-family="sans-serif" font-size="14" lengthAdjust="spacing" text-decoration="underline" textLength="147.3555" x="121.3779" y="110.5851">RegionalePreisstaffel</text></a><text fill="#000000" font-family="sans-serif" font-size="10" lengthAdjust="spacing" textLength="155.4297" x="117.3408" y="123.1691">bo4e.com.regionalepreisstaffel</text><line style="stroke:#181818;stroke-width:0.5;" x1="8" x2="349.6113" y1="130.5275" y2="130.5275"/><text fill="#000000" font-family="sans-serif" font-size="14" lengthAdjust="spacing" textLength="331.6113" x="13" y="147.5226">_version : str [0..1] = 202501.0.0+gcd9cb333d</text><text fill="#000000" font-family="sans-serif" font-size="14" lengthAdjust="spacing" textLength="151.1768" x="13" y="163.8195">_id : str [0..1] = None</text><text fill="#000000" font-family="sans-serif" font-size="14" lengthAdjust="spacing" textLength="318.5752" x="13" y="180.1164">zusatzAttribute : ZusatzAttribut [0..*] = None</text></g><!--link RegionalePreisstaffel to Preisstaffel--><g class="link" data-entity-1="RegionalePreisstaffel" data-entity-2="Preisstaffel" data-source-line="14" data-uid="lnk7" id="link_RegionalePreisstaffel_Preisstaffel"><path codeLine="14" d="M350.85,152.77 C434,158.98 511.3799,164.7509 574.3799,169.4509" fill="none" id="RegionalePreisstaffel-to-Preisstaffel" style="stroke:#181818;stroke-width:1;"/><polygon fill="none" points="592.33,170.79,574.8263,163.4675,573.9335,175.4342,592.33,170.79" style="stroke:#181818;stroke-width:1;"/></g><!--link RegionalePreisstaffel to RegionaleGueltigkeit--><g class="link" data-entity-1="RegionalePreisstaffel" data-entity-2="RegionaleGueltigkeit" data-source-line="15" data-uid="lnk8" id="link_RegionalePreisstaffel_RegionaleGueltigkeit"><path codeLine="15" d="M350.85,126.88 C424.79,121.2 496.3952,115.708 558.3052,110.958" fill="none" id="RegionalePreisstaffel-to-RegionaleGueltigkeit" style="stroke:#181818;stroke-width:1;"/><polygon fill="#181818" points="570.27,110.04,563.9816,106.5107,558.3052,110.958,564.5936,114.4873,570.27,110.04" style="stroke:#181818;stroke-width:1;"/><text fill="#000000" font-family="sans-serif" font-size="13" lengthAdjust="spacing" textLength="132.0947" x="381.61" y="111.0669">regionaleGueltigkeit</text><text fill="#000000" font-family="sans-serif" font-size="13" lengthAdjust="spacing" textLength="24.8066" x="537.9515" y="123.2709">0..1</text></g><!--SRC=[nPDDJuD048RFyYicz5RJNVgXKQ9DgccygV5e9MQ10JPTMBAxMAtwtuMQjg3KdaptjFFopaoOULPWPC18K3nE38HSOM2up2mh44nhi6UpY0jqQNaIcI9LHPQXeWkfvlJgRZJjvMycaLdZ7if0Kq8eCVBrEp1fJXEJ2ifoJdqvGXB8b5HAPnCfZCl6J62ka6jjM1IX80zhzRwcGglgUK_PXUPBTFlE-E-oDZ3TNWJUhQFd5rIw_0GkQADWvX3Iz-0I1ixWnEaJXpZ7SH2U1_vmE0nBEmz_EczbXjRHij3CB2V6AEuN1alJOqDP-RiR_wTbPIn5dRC0_t_mi8uyRpMDTGYTgJCvExsk1d4u1k82XU7n7BdP8d2p5Q5Dt0D0hMPp_xKI1_Zd1kuD5FV3_OlfUae5r8xtq-jzZ3SRRpJTbL6cTC6k-BQtYQsRSK6r3TPAU8YGOkgNZylIYLp0ZbOHHn7gBm00]--></g></svg>