<?xml version="1.0" encoding="us-ascii" standalone="no"?><svg xmlns="http://www.w3.org/2000/svg" xmlns:xlink="http://www.w3.org/1999/xlink" contentStyleType="text/css" height="866px" preserveAspectRatio="none" style="width:820px;height:866px;background:#FFFFFF;" version="1.1" viewBox="0 0 820 866" width="820px" zoomAndPan="magnify"><defs/><g><!--cluster bo4e--><g id="cluster_bo4e"><path d="M554.5,6 L595.5,6 A3.75,3.75 0 0 1 598,8.5 L605,28.2969 L810.5,28.2969 A2.5,2.5 0 0 1 813,30.7969 L813,856.5 A2.5,2.5 0 0 1 810.5,859 L554.5,859 A2.5,2.5 0 0 1 552,856.5 L552,8.5 A2.5,2.5 0 0 1 554.5,6 " fill="none" style="stroke:#000000;stroke-width:1.5;"/><line style="stroke:#000000;stroke-width:1.5;" x1="552" x2="605" y1="28.2969" y2="28.2969"/><text fill="#000000" font-family="sans-serif" font-size="14" font-weight="bold" lengthAdjust="spacing" textLength="40" x="556" y="20.9951">bo4e</text></g><!--cluster com--><g id="cluster_com"><path d="M578.5,49 L657.5,49 A3.75,3.75 0 0 1 660,51.5 L667,71.2969 L786.5,71.2969 A2.5,2.5 0 0 1 789,73.7969 L789,573.5 A2.5,2.5 0 0 1 786.5,576 L578.5,576 A2.5,2.5 0 0 1 576,573.5 L576,51.5 A2.5,2.5 0 0 1 578.5,49 " fill="#E0A86C" style="stroke:#000000;stroke-width:1.5;"/><line style="stroke:#000000;stroke-width:1.5;" x1="576" x2="667" y1="71.2969" y2="71.2969"/><a href="https://bo4e.github.io/BO4E-python/latest/api/bo4e.com.html" target="_top" title="https://bo4e.github.io/BO4E-python/latest/api/bo4e.com.html" xlink:actuate="onRequest" xlink:href="https://bo4e.github.io/BO4E-python/latest/api/bo4e.com.html" xlink:show="new" xlink:title="https://bo4e.github.io/BO4E-python/latest/api/bo4e.com.html" xlink:type="simple"><text fill="#0000FF" font-family="sans-serif" font-size="14" font-weight="bold" lengthAdjust="spacing" text-decoration="underline" textLength="78" x="580" y="63.9951">bo4e.com</text></a></g><!--cluster enum--><g id="cluster_enum"><path d="M581.5,600 L671.5,600 A3.75,3.75 0 0 1 674,602.5 L681,622.2969 L783.5,622.2969 A2.5,2.5 0 0 1 786,624.7969 L786,832.5 A2.5,2.5 0 0 1 783.5,835 L581.5,835 A2.5,2.5 0 0 1 579,832.5 L579,602.5 A2.5,2.5 0 0 1 581.5,600 " fill="#D1C358" style="stroke:#000000;stroke-width:1.5;"/><line style="stroke:#000000;stroke-width:1.5;" x1="579" x2="681" y1="622.2969" y2="622.2969"/><a href="https://bo4e.github.io/BO4E-python/latest/api/bo4e.enum.html" target="_top" title="https://bo4e.github.io/BO4E-python/latest/api/bo4e.enum.html" xlink:actuate="onRequest" xlink:href="https://bo4e.github.io/BO4E-python/latest/api/bo4e.enum.html" xlink:show="new" xlink:title="https://bo4e.github.io/BO4E-python/latest/api/bo4e.enum.html" xlink:type="simple"><text fill="#0000FF" font-family="sans-serif" font-size="14" font-weight="bold" lengthAdjust="spacing" text-decoration="underline" textLength="89" x="583" y="614.9951">bo4e.enum</text></a></g><!--class RegionalePreisstaffel--><g id="elem_RegionalePreisstaffel"><rect codeLine="13" fill="#F1F1F1" height="37.9375" id="RegionalePreisstaffel" rx="2.5" ry="2.5" style="stroke:#181818;stroke-width:0.5;" width="181" x="592" y="84.03"/><ellipse cx="607" cy="102.9987" fill="#ADD1B2" rx="11" ry="11" style="stroke:#181818;stroke-width:1.0;"/><path d="M609.9688,108.6394 Q609.3906,108.9362 608.75,109.0769 Q608.1094,109.2331 607.4063,109.2331 Q604.9063,109.2331 603.5781,107.5925 Q602.2656,105.9362 602.2656,102.8112 Q602.2656,99.6862 603.5781,98.03 Q604.9063,96.3737 607.4063,96.3737 Q608.1094,96.3737 608.75,96.53 Q609.4063,96.6862 609.9688,96.9831 L609.9688,99.7019 Q609.3438,99.1237 608.75,98.8581 Q608.1563,98.5769 607.5313,98.5769 Q606.1875,98.5769 605.5,99.655 Q604.8125,100.7175 604.8125,102.8112 Q604.8125,104.905 605.5,105.9831 Q606.1875,107.0456 607.5313,107.0456 Q608.1563,107.0456 608.75,106.78 Q609.3438,106.4987 609.9688,105.9206 L609.9688,108.6394 Z " fill="#000000"/><a href="https://bo4e.github.io/BO4E-python/latest/api/bo4e.com.html#bo4e.com.regionalepreisstaffel.RegionalePreisstaffel" target="_top" title="https://bo4e.github.io/BO4E-python/latest/api/bo4e.com.html#bo4e.com.regionalepreisstaffel.RegionalePreisstaffel" xlink:actuate="onRequest" xlink:href="https://bo4e.github.io/BO4E-python/latest/api/bo4e.com.html#bo4e.com.regionalepreisstaffel.RegionalePreisstaffel" xlink:show="new" xlink:title="https://bo4e.github.io/BO4E-python/latest/api/bo4e.com.html#bo4e.com.regionalepreisstaffel.RegionalePreisstaffel" xlink:type="simple"><text fill="#0000FF" font-family="sans-serif" font-size="14" lengthAdjust="spacing" text-decoration="underline" textLength="144" x="623.5" y="102.0251">RegionalePreisstaffel</text></a><text fill="#000000" font-family="sans-serif" font-size="10" lengthAdjust="spacing" textLength="149" x="621" y="114.6091">bo4e.com.regionalepreisstaffel</text></g><!--class COM--><g id="elem_COM"><rect codeLine="14" fill="#F1F1F1" height="37.9375" id="COM" rx="2.5" ry="2.5" style="stroke:#181818;stroke-width:0.5;" width="104" x="630.5" y="157.03"/><ellipse cx="645.5" cy="175.9987" fill="#ADD1B2" rx="11" ry="11" style="stroke:#181818;stroke-width:1.0;"/><path d="M648.4688,181.6394 Q647.8906,181.9362 647.25,182.0769 Q646.6094,182.2331 645.9063,182.2331 Q643.4063,182.2331 642.0781,180.5925 Q640.7656,178.9362 640.7656,175.8112 Q640.7656,172.6862 642.0781,171.03 Q643.4063,169.3737 645.9063,169.3737 Q646.6094,169.3737 647.25,169.53 Q647.9063,169.6862 648.4688,169.9831 L648.4688,172.7019 Q647.8438,172.1237 647.25,171.8581 Q646.6563,171.5769 646.0313,171.5769 Q644.6875,171.5769 644,172.655 Q643.3125,173.7175 643.3125,175.8112 Q643.3125,177.905 644,178.9831 Q644.6875,180.0456 646.0313,180.0456 Q646.6563,180.0456 647.25,179.78 Q647.8438,179.4987 648.4688,178.9206 L648.4688,181.6394 Z " fill="#000000"/><a href="https://bo4e.github.io/BO4E-python/latest/api/bo4e.com.html#bo4e.com.com.COM" target="_top" title="https://bo4e.github.io/BO4E-python/latest/api/bo4e.com.html#bo4e.com.com.COM" xlink:actuate="onRequest" xlink:href="https://bo4e.github.io/BO4E-python/latest/api/bo4e.com.html#bo4e.com.com.COM" xlink:show="new" xlink:title="https://bo4e.github.io/BO4E-python/latest/api/bo4e.com.html#bo4e.com.com.COM" xlink:type="simple"><text fill="#0000FF" font-family="sans-serif" font-size="14" lengthAdjust="spacing" text-decoration="underline" textLength="33" x="679" y="175.0251">COM</text></a><text fill="#000000" font-family="sans-serif" font-size="10" lengthAdjust="spacing" textLength="72" x="659.5" y="187.6091">bo4e.com.com</text></g><!--class Vertragskonditionen--><g id="elem_Vertragskonditionen"><rect codeLine="15" fill="#F1F1F1" height="37.9375" id="Vertragskonditionen" rx="2.5" ry="2.5" style="stroke:#181818;stroke-width:0.5;" width="179" x="593" y="230.03"/><ellipse cx="608" cy="248.9987" fill="#ADD1B2" rx="11" ry="11" style="stroke:#181818;stroke-width:1.0;"/><path d="M610.9688,254.6394 Q610.3906,254.9362 609.75,255.0769 Q609.1094,255.2331 608.4063,255.2331 Q605.9063,255.2331 604.5781,253.5925 Q603.2656,251.9362 603.2656,248.8112 Q603.2656,245.6862 604.5781,244.03 Q605.9063,242.3737 608.4063,242.3737 Q609.1094,242.3737 609.75,242.53 Q610.4063,242.6862 610.9688,242.9831 L610.9688,245.7019 Q610.3438,245.1237 609.75,244.8581 Q609.1563,244.5769 608.5313,244.5769 Q607.1875,244.5769 606.5,245.655 Q605.8125,246.7175 605.8125,248.8112 Q605.8125,250.905 606.5,251.9831 Q607.1875,253.0456 608.5313,253.0456 Q609.1563,253.0456 609.75,252.78 Q610.3438,252.4987 610.9688,251.9206 L610.9688,254.6394 Z " fill="#000000"/><a href="https://bo4e.github.io/BO4E-python/latest/api/bo4e.com.html#bo4e.com.vertragskonditionen.Vertragskonditionen" target="_top" title="https://bo4e.github.io/BO4E-python/latest/api/bo4e.com.html#bo4e.com.vertragskonditionen.Vertragskonditionen" xlink:actuate="onRequest" xlink:href="https://bo4e.github.io/BO4E-python/latest/api/bo4e.com.html#bo4e.com.vertragskonditionen.Vertragskonditionen" xlink:show="new" xlink:title="https://bo4e.github.io/BO4E-python/latest/api/bo4e.com.html#bo4e.com.vertragskonditionen.Vertragskonditionen" xlink:type="simple"><text fill="#0000FF" font-family="sans-serif" font-size="14" lengthAdjust="spacing" text-decoration="underline" textLength="140" x="625.5" y="248.0251">Vertragskonditionen</text></a><text fill="#000000" font-family="sans-serif" font-size="10" lengthAdjust="spacing" textLength="147" x="622" y="260.6091">bo4e.com.vertragskonditionen</text></g><!--class Zeitraum--><g id="elem_Zeitraum"><rect codeLine="16" fill="#F1F1F1" height="37.9375" id="Zeitraum" rx="2.5" ry="2.5" style="stroke:#181818;stroke-width:0.5;" width="126" x="619.5" y="303.03"/><ellipse cx="634.5" cy="321.9988" fill="#ADD1B2" rx="11" ry="11" style="stroke:#181818;stroke-width:1.0;"/><path d="M637.4688,327.6394 Q636.8906,327.9363 636.25,328.0769 Q635.6094,328.2331 634.9063,328.2331 Q632.4063,328.2331 631.0781,326.5925 Q629.7656,324.9363 629.7656,321.8113 Q629.7656,318.6863 631.0781,317.03 Q632.4063,315.3738 634.9063,315.3738 Q635.6094,315.3738 636.25,315.53 Q636.9063,315.6863 637.4688,315.9831 L637.4688,318.7019 Q636.8438,318.1238 636.25,317.8581 Q635.6563,317.5769 635.0313,317.5769 Q633.6875,317.5769 633,318.655 Q632.3125,319.7175 632.3125,321.8113 Q632.3125,323.905 633,324.9831 Q633.6875,326.0456 635.0313,326.0456 Q635.6563,326.0456 636.25,325.78 Q636.8438,325.4988 637.4688,324.9206 L637.4688,327.6394 Z " fill="#000000"/><a href="https://bo4e.github.io/BO4E-python/latest/api/bo4e.com.html#bo4e.com.zeitraum.Zeitraum" target="_top" title="https://bo4e.github.io/BO4E-python/latest/api/bo4e.com.html#bo4e.com.zeitraum.Zeitraum" xlink:actuate="onRequest" xlink:href="https://bo4e.github.io/BO4E-python/latest/api/bo4e.com.html#bo4e.com.zeitraum.Zeitraum" xlink:show="new" xlink:title="https://bo4e.github.io/BO4E-python/latest/api/bo4e.com.html#bo4e.com.zeitraum.Zeitraum" xlink:type="simple"><text fill="#0000FF" font-family="sans-serif" font-size="14" lengthAdjust="spacing" text-decoration="underline" textLength="62" x="664.5" y="321.0251">Zeitraum</text></a><text fill="#000000" font-family="sans-serif" font-size="10" lengthAdjust="spacing" textLength="94" x="648.5" y="333.6091">bo4e.com.zeitraum</text></g><!--class Preisgarantie--><g id="elem_Preisgarantie"><rect codeLine="17" fill="#F1F1F1" height="37.9375" id="Preisgarantie" rx="2.5" ry="2.5" style="stroke:#181818;stroke-width:0.5;" width="146" x="609.5" y="376.03"/><ellipse cx="624.5" cy="394.9988" fill="#ADD1B2" rx="11" ry="11" style="stroke:#181818;stroke-width:1.0;"/><path d="M627.4688,400.6394 Q626.8906,400.9363 626.25,401.0769 Q625.6094,401.2331 624.9063,401.2331 Q622.4063,401.2331 621.0781,399.5925 Q619.7656,397.9363 619.7656,394.8113 Q619.7656,391.6863 621.0781,390.03 Q622.4063,388.3738 624.9063,388.3738 Q625.6094,388.3738 626.25,388.53 Q626.9063,388.6863 627.4688,388.9831 L627.4688,391.7019 Q626.8438,391.1238 626.25,390.8581 Q625.6563,390.5769 625.0313,390.5769 Q623.6875,390.5769 623,391.655 Q622.3125,392.7175 622.3125,394.8113 Q622.3125,396.905 623,397.9831 Q623.6875,399.0456 625.0313,399.0456 Q625.6563,399.0456 626.25,398.78 Q626.8438,398.4988 627.4688,397.9206 L627.4688,400.6394 Z " fill="#000000"/><a href="https://bo4e.github.io/BO4E-python/latest/api/bo4e.com.html#bo4e.com.preisgarantie.Preisgarantie" target="_top" title="https://bo4e.github.io/BO4E-python/latest/api/bo4e.com.html#bo4e.com.preisgarantie.Preisgarantie" xlink:actuate="onRequest" xlink:href="https://bo4e.github.io/BO4E-python/latest/api/bo4e.com.html#bo4e.com.preisgarantie.Preisgarantie" xlink:show="new" xlink:title="https://bo4e.github.io/BO4E-python/latest/api/bo4e.com.html#bo4e.com.preisgarantie.Preisgarantie" xlink:type="simple"><text fill="#0000FF" font-family="sans-serif" font-size="14" lengthAdjust="spacing" text-decoration="underline" textLength="90" x="650.5" y="394.0251">Preisgarantie</text></a><text fill="#000000" font-family="sans-serif" font-size="10" lengthAdjust="spacing" textLength="114" x="638.5" y="406.6091">bo4e.com.preisgarantie</text></g><!--class Energiemix--><g id="elem_Energiemix"><rect codeLine="18" fill="#F1F1F1" height="37.9375" id="Energiemix" rx="2.5" ry="2.5" style="stroke:#181818;stroke-width:0.5;" width="137" x="614" y="449.03"/><ellipse cx="629" cy="467.9988" fill="#ADD1B2" rx="11" ry="11" style="stroke:#181818;stroke-width:1.0;"/><path d="M631.9688,473.6394 Q631.3906,473.9363 630.75,474.0769 Q630.1094,474.2331 629.4063,474.2331 Q626.9063,474.2331 625.5781,472.5925 Q624.2656,470.9363 624.2656,467.8113 Q624.2656,464.6863 625.5781,463.03 Q626.9063,461.3738 629.4063,461.3738 Q630.1094,461.3738 630.75,461.53 Q631.4063,461.6863 631.9688,461.9831 L631.9688,464.7019 Q631.3438,464.1238 630.75,463.8581 Q630.1563,463.5769 629.5313,463.5769 Q628.1875,463.5769 627.5,464.655 Q626.8125,465.7175 626.8125,467.8113 Q626.8125,469.905 627.5,470.9831 Q628.1875,472.0456 629.5313,472.0456 Q630.1563,472.0456 630.75,471.78 Q631.3438,471.4988 631.9688,470.9206 L631.9688,473.6394 Z " fill="#000000"/><a href="https://bo4e.github.io/BO4E-python/latest/api/bo4e.com.html#bo4e.com.energiemix.Energiemix" target="_top" title="https://bo4e.github.io/BO4E-python/latest/api/bo4e.com.html#bo4e.com.energiemix.Energiemix" xlink:actuate="onRequest" xlink:href="https://bo4e.github.io/BO4E-python/latest/api/bo4e.com.html#bo4e.com.energiemix.Energiemix" xlink:show="new" xlink:title="https://bo4e.github.io/BO4E-python/latest/api/bo4e.com.html#bo4e.com.energiemix.Energiemix" xlink:type="simple"><text fill="#0000FF" font-family="sans-serif" font-size="14" lengthAdjust="spacing" text-decoration="underline" textLength="76" x="657.5" y="467.0251">Energiemix</text></a><text fill="#000000" font-family="sans-serif" font-size="10" lengthAdjust="spacing" textLength="105" x="643" y="479.6091">bo4e.com.energiemix</text></g><!--class Tarifeinschraenkung--><g id="elem_Tarifeinschraenkung"><rect codeLine="19" fill="#F1F1F1" height="37.9375" id="Tarifeinschraenkung" rx="2.5" ry="2.5" style="stroke:#181818;stroke-width:0.5;" width="178" x="593.5" y="522.03"/><ellipse cx="608.5" cy="540.9988" fill="#ADD1B2" rx="11" ry="11" style="stroke:#181818;stroke-width:1.0;"/><path d="M611.4688,546.6394 Q610.8906,546.9363 610.25,547.0769 Q609.6094,547.2331 608.9063,547.2331 Q606.4063,547.2331 605.0781,545.5925 Q603.7656,543.9363 603.7656,540.8113 Q603.7656,537.6863 605.0781,536.03 Q606.4063,534.3738 608.9063,534.3738 Q609.6094,534.3738 610.25,534.53 Q610.9063,534.6863 611.4688,534.9831 L611.4688,537.7019 Q610.8438,537.1238 610.25,536.8581 Q609.6563,536.5769 609.0313,536.5769 Q607.6875,536.5769 607,537.655 Q606.3125,538.7175 606.3125,540.8113 Q606.3125,542.905 607,543.9831 Q607.6875,545.0456 609.0313,545.0456 Q609.6563,545.0456 610.25,544.78 Q610.8438,544.4988 611.4688,543.9206 L611.4688,546.6394 Z " fill="#000000"/><a href="https://bo4e.github.io/BO4E-python/latest/api/bo4e.com.html#bo4e.com.tarifeinschraenkung.Tarifeinschraenkung" target="_top" title="https://bo4e.github.io/BO4E-python/latest/api/bo4e.com.html#bo4e.com.tarifeinschraenkung.Tarifeinschraenkung" xlink:actuate="onRequest" xlink:href="https://bo4e.github.io/BO4E-python/latest/api/bo4e.com.html#bo4e.com.tarifeinschraenkung.Tarifeinschraenkung" xlink:show="new" xlink:title="https://bo4e.github.io/BO4E-python/latest/api/bo4e.com.html#bo4e.com.tarifeinschraenkung.Tarifeinschraenkung" xlink:type="simple"><text fill="#0000FF" font-family="sans-serif" font-size="14" lengthAdjust="spacing" text-decoration="underline" textLength="141" x="625" y="540.0251">Tarifeinschraenkung</text></a><text fill="#000000" font-family="sans-serif" font-size="10" lengthAdjust="spacing" textLength="146" x="622.5" y="552.6091">bo4e.com.tarifeinschraenkung</text></g><!--class AufAbschlagstyp--><g id="elem_AufAbschlagstyp"><rect codeLine="22" fill="#F1F1F1" height="37.9375" id="AufAbschlagstyp" rx="2.5" ry="2.5" style="stroke:#181818;stroke-width:0.5;" width="169" x="598" y="635.03"/><ellipse cx="613" cy="653.9988" fill="#ADD1B2" rx="11" ry="11" style="stroke:#181818;stroke-width:1.0;"/><path d="M615.9688,659.6394 Q615.3906,659.9363 614.75,660.0769 Q614.1094,660.2331 613.4063,660.2331 Q610.9063,660.2331 609.5781,658.5925 Q608.2656,656.9363 608.2656,653.8113 Q608.2656,650.6863 609.5781,649.03 Q610.9063,647.3738 613.4063,647.3738 Q614.1094,647.3738 614.75,647.53 Q615.4063,647.6863 615.9688,647.9831 L615.9688,650.7019 Q615.3438,650.1238 614.75,649.8581 Q614.1563,649.5769 613.5313,649.5769 Q612.1875,649.5769 611.5,650.655 Q610.8125,651.7175 610.8125,653.8113 Q610.8125,655.905 611.5,656.9831 Q612.1875,658.0456 613.5313,658.0456 Q614.1563,658.0456 614.75,657.78 Q615.3438,657.4988 615.9688,656.9206 L615.9688,659.6394 Z " fill="#000000"/><a href="https://bo4e.github.io/BO4E-python/latest/api/bo4e.enum.html#bo4e.enum.aufabschlagstyp.AufAbschlagstyp" target="_top" title="https://bo4e.github.io/BO4E-python/latest/api/bo4e.enum.html#bo4e.enum.aufabschlagstyp.AufAbschlagstyp" xlink:actuate="onRequest" xlink:href="https://bo4e.github.io/BO4E-python/latest/api/bo4e.enum.html#bo4e.enum.aufabschlagstyp.AufAbschlagstyp" xlink:show="new" xlink:title="https://bo4e.github.io/BO4E-python/latest/api/bo4e.enum.html#bo4e.enum.aufabschlagstyp.AufAbschlagstyp" xlink:type="simple"><text fill="#0000FF" font-family="sans-serif" font-size="14" lengthAdjust="spacing" text-decoration="underline" textLength="114" x="638.5" y="653.0251">AufAbschlagstyp</text></a><text fill="#000000" font-family="sans-serif" font-size="10" lengthAdjust="spacing" textLength="137" x="627" y="665.6091">bo4e.enum.aufabschlagstyp</text></g><!--class Waehrungseinheit--><g id="elem_Waehrungseinheit"><rect codeLine="23" fill="#F1F1F1" height="37.9375" id="Waehrungseinheit" rx="2.5" ry="2.5" style="stroke:#181818;stroke-width:0.5;" width="175" x="595" y="708.03"/><ellipse cx="610" cy="726.9988" fill="#ADD1B2" rx="11" ry="11" style="stroke:#181818;stroke-width:1.0;"/><path d="M612.9688,732.6394 Q612.3906,732.9363 611.75,733.0769 Q611.1094,733.2331 610.4063,733.2331 Q607.9063,733.2331 606.5781,731.5925 Q605.2656,729.9363 605.2656,726.8113 Q605.2656,723.6863 606.5781,722.03 Q607.9063,720.3738 610.4063,720.3738 Q611.1094,720.3738 611.75,720.53 Q612.4063,720.6863 612.9688,720.9831 L612.9688,723.7019 Q612.3438,723.1238 611.75,722.8581 Q611.1563,722.5769 610.5313,722.5769 Q609.1875,722.5769 608.5,723.655 Q607.8125,724.7175 607.8125,726.8113 Q607.8125,728.905 608.5,729.9831 Q609.1875,731.0456 610.5313,731.0456 Q611.1563,731.0456 611.75,730.78 Q612.3438,730.4988 612.9688,729.9206 L612.9688,732.6394 Z " fill="#000000"/><a href="https://bo4e.github.io/BO4E-python/latest/api/bo4e.enum.html#bo4e.enum.waehrungseinheit.Waehrungseinheit" target="_top" title="https://bo4e.github.io/BO4E-python/latest/api/bo4e.enum.html#bo4e.enum.waehrungseinheit.Waehrungseinheit" xlink:actuate="onRequest" xlink:href="https://bo4e.github.io/BO4E-python/latest/api/bo4e.enum.html#bo4e.enum.waehrungseinheit.Waehrungseinheit" xlink:show="new" xlink:title="https://bo4e.github.io/BO4E-python/latest/api/bo4e.enum.html#bo4e.enum.waehrungseinheit.Waehrungseinheit" xlink:type="simple"><text fill="#0000FF" font-family="sans-serif" font-size="14" lengthAdjust="spacing" text-decoration="underline" textLength="126" x="632.5" y="726.0251">Waehrungseinheit</text></a><text fill="#000000" font-family="sans-serif" font-size="10" lengthAdjust="spacing" textLength="143" x="624" y="738.6091">bo4e.enum.waehrungseinheit</text></g><!--class AufAbschlagsziel--><g id="elem_AufAbschlagsziel"><rect codeLine="24" fill="#F1F1F1" height="37.9375" id="AufAbschlagsziel" rx="2.5" ry="2.5" style="stroke:#181818;stroke-width:0.5;" width="168" x="598.5" y="781.03"/><ellipse cx="613.5" cy="799.9988" fill="#ADD1B2" rx="11" ry="11" style="stroke:#181818;stroke-width:1.0;"/><path d="M616.4688,805.6394 Q615.8906,805.9363 615.25,806.0769 Q614.6094,806.2331 613.9063,806.2331 Q611.4063,806.2331 610.0781,804.5925 Q608.7656,802.9363 608.7656,799.8113 Q608.7656,796.6863 610.0781,795.03 Q611.4063,793.3738 613.9063,793.3738 Q614.6094,793.3738 615.25,793.53 Q615.9063,793.6863 616.4688,793.9831 L616.4688,796.7019 Q615.8438,796.1238 615.25,795.8581 Q614.6563,795.5769 614.0313,795.5769 Q612.6875,795.5769 612,796.655 Q611.3125,797.7175 611.3125,799.8113 Q611.3125,801.905 612,802.9831 Q612.6875,804.0456 614.0313,804.0456 Q614.6563,804.0456 615.25,803.78 Q615.8438,803.4988 616.4688,802.9206 L616.4688,805.6394 Z " fill="#000000"/><a href="https://bo4e.github.io/BO4E-python/latest/api/bo4e.enum.html#bo4e.enum.aufabschlagsziel.AufAbschlagsziel" target="_top" title="https://bo4e.github.io/BO4E-python/latest/api/bo4e.enum.html#bo4e.enum.aufabschlagsziel.AufAbschlagsziel" xlink:actuate="onRequest" xlink:href="https://bo4e.github.io/BO4E-python/latest/api/bo4e.enum.html#bo4e.enum.aufabschlagsziel.AufAbschlagsziel" xlink:show="new" xlink:title="https://bo4e.github.io/BO4E-python/latest/api/bo4e.enum.html#bo4e.enum.aufabschlagsziel.AufAbschlagsziel" xlink:type="simple"><text fill="#0000FF" font-family="sans-serif" font-size="14" lengthAdjust="spacing" text-decoration="underline" textLength="116" x="637.5" y="799.0251">AufAbschlagsziel</text></a><text fill="#000000" font-family="sans-serif" font-size="10" lengthAdjust="spacing" textLength="136" x="627.5" y="811.6091">bo4e.enum.aufabschlagsziel</text></g><!--class RegionalerAufAbschlag--><g id="elem_RegionalerAufAbschlag"><rect codeLine="3" fill="#F1F1F1" height="143.7188" id="RegionalerAufAbschlag" rx="2.5" ry="2.5" style="stroke:#181818;stroke-width:0.5;" width="315" x="7" y="364.14"/><ellipse cx="80.75" cy="383.1088" fill="#ADD1B2" rx="11" ry="11" style="stroke:#181818;stroke-width:1.0;"/><path d="M83.7188,388.7494 Q83.1406,389.0463 82.5,389.1869 Q81.8594,389.3431 81.1563,389.3431 Q78.6563,389.3431 77.3281,387.7025 Q76.0156,386.0463 76.0156,382.9213 Q76.0156,379.7963 77.3281,378.14 Q78.6563,376.4838 81.1563,376.4838 Q81.8594,376.4838 82.5,376.64 Q83.1563,376.7963 83.7188,377.0931 L83.7188,379.8119 Q83.0938,379.2338 82.5,378.9681 Q81.9063,378.6869 81.2813,378.6869 Q79.9375,378.6869 79.25,379.765 Q78.5625,380.8275 78.5625,382.9213 Q78.5625,385.015 79.25,386.0931 Q79.9375,387.1556 81.2813,387.1556 Q81.9063,387.1556 82.5,386.89 Q83.0938,386.6088 83.7188,386.0306 L83.7188,388.7494 Z " fill="#000000"/><a href="https://bo4e.github.io/BO4E-python/latest/api/bo4e.com.html#bo4e.com.regionaleraufabschlag.RegionalerAufAbschlag" target="_top" title="https://bo4e.github.io/BO4E-python/latest/api/bo4e.com.html#bo4e.com.regionaleraufabschlag.RegionalerAufAbschlag" xlink:actuate="onRequest" xlink:href="https://bo4e.github.io/BO4E-python/latest/api/bo4e.com.html#bo4e.com.regionaleraufabschlag.RegionalerAufAbschlag" xlink:show="new" xlink:title="https://bo4e.github.io/BO4E-python/latest/api/bo4e.com.html#bo4e.com.regionaleraufabschlag.RegionalerAufAbschlag" xlink:type="simple"><text fill="#0000FF" font-family="sans-serif" font-size="14" lengthAdjust="spacing" text-decoration="underline" textLength="159" x="101.25" y="382.1351">RegionalerAufAbschlag</text></a><text fill="#000000" font-family="sans-serif" font-size="10" lengthAdjust="spacing" textLength="157" x="102.25" y="394.7191">bo4e.com.regionaleraufabschlag</text><line style="stroke:#181818;stroke-width:0.5;" x1="8" x2="321" y1="402.0775" y2="402.0775"/><text fill="#000000" font-family="sans-serif" font-size="14" lengthAdjust="spacing" textLength="219" x="13" y="419.0726">bezeichnung : str [0..1] = None</text><text fill="#000000" font-family="sans-serif" font-size="14" lengthAdjust="spacing" textLength="224" x="13" y="435.3695">beschreibung : str [0..1] = None</text><text fill="#000000" font-family="sans-serif" font-size="14" lengthAdjust="spacing" textLength="182" x="13" y="451.6664">website : str [0..1] = None</text><text fill="#000000" font-family="sans-serif" font-size="14" lengthAdjust="spacing" textLength="235" x="13" y="467.9632">zusatzprodukte : str [0..*] = None</text><text fill="#000000" font-family="sans-serif" font-size="14" lengthAdjust="spacing" textLength="247" x="13" y="484.2601">voraussetzungen : str [0..*] = None</text><text fill="#000000" font-family="sans-serif" font-size="14" lengthAdjust="spacing" textLength="303" x="13" y="500.557">tarifnamensaenderungen : str [0..1] = None</text></g><!--link RegionalerAufAbschlag to COM--><g id="link_RegionalerAufAbschlag_COM"><path codeLine="27" d="M219.67,363.71 C253.43,323.7 300.22,276.44 352,248 C441.69,198.74 544.5173,184.4834 612.1473,179.5734 " fill="none" id="RegionalerAufAbschlag-to-COM" style="stroke:#181818;stroke-width:1.0;"/><polygon fill="none" points="630.1,178.27,611.7128,173.5891,612.5817,185.5576,630.1,178.27" style="stroke:#181818;stroke-width:1.0;"/></g><!--link RegionalerAufAbschlag to RegionalePreisstaffel--><g id="link_RegionalerAufAbschlag_RegionalePreisstaffel"><path codeLine="28" d="M203.71,363.7 C236.18,309.06 287.71,236.3 352,193 C424.05,144.47 509.678,123.7582 579.898,113.4182 " fill="none" id="RegionalerAufAbschlag-to-RegionalePreisstaffel" style="stroke:#181818;stroke-width:1.0;"/><polygon fill="#181818" points="591.77,111.67,585.2513,108.5868,579.898,113.4182,586.4167,116.5014,591.77,111.67" style="stroke:#181818;stroke-width:1.0;"/><text fill="#000000" font-family="sans-serif" font-size="13" lengthAdjust="spacing" textLength="47" x="420.5" y="119.0669">staffeln</text><text fill="#000000" font-family="sans-serif" font-size="13" lengthAdjust="spacing" textLength="23" x="560.943" y="124.9801">0..*</text></g><!--link RegionalerAufAbschlag to AufAbschlagstyp--><g id="link_RegionalerAufAbschlag_AufAbschlagstyp"><path codeLine="29" d="M275.09,508.26 C299.8,522.88 326.32,537.33 352,549 C434.81,586.64 523.4041,613.4122 591.4141,631.5222 " fill="none" id="RegionalerAufAbschlag-to-AufAbschlagstyp" style="stroke:#181818;stroke-width:1.0;"/><polygon fill="#181818" points="603.01,634.61,598.2413,629.2008,591.4141,631.5222,596.1828,636.9314,603.01,634.61" style="stroke:#181818;stroke-width:1.0;"/><text fill="#000000" font-family="sans-serif" font-size="13" lengthAdjust="spacing" textLength="105" x="391.5" y="545.0669">aufAbschlagstyp</text><text fill="#000000" font-family="sans-serif" font-size="13" lengthAdjust="spacing" textLength="24" x="566.1442" y="627.905">0..1</text></g><!--link RegionalerAufAbschlag to AufAbschlagsziel--><g id="link_RegionalerAufAbschlag_AufAbschlagsziel"><path codeLine="30" d="M191.85,508.27 C220.58,576.52 273.23,676.33 352,731 C424.86,781.57 515.1363,795.804 586.3463,799.524 " fill="none" id="RegionalerAufAbschlag-to-AufAbschlagsziel" style="stroke:#181818;stroke-width:1.0;"/><polygon fill="#181818" points="598.33,800.15,592.5468,795.8424,586.3463,799.524,592.1295,803.8315,598.33,800.15" style="stroke:#181818;stroke-width:1.0;"/><text fill="#000000" font-family="sans-serif" font-size="13" lengthAdjust="spacing" textLength="106" x="391" y="727.0669">aufAbschlagsziel</text><text fill="#000000" font-family="sans-serif" font-size="13" lengthAdjust="spacing" textLength="24" x="566.3659" y="812.856">0..1</text></g><!--link RegionalerAufAbschlag to Waehrungseinheit--><g id="link_RegionalerAufAbschlag_Waehrungseinheit"><path codeLine="31" d="M215.2,508.23 C248.97,552.13 297.34,605.91 352,639 C426.84,684.3 513.1909,704.7967 582.8609,715.5667 " fill="none" id="RegionalerAufAbschlag-to-Waehrungseinheit" style="stroke:#181818;stroke-width:1.0;"/><polygon fill="#181818" points="594.72,717.4,589.4015,712.5303,582.8609,715.5667,588.1793,720.4364,594.72,717.4" style="stroke:#181818;stroke-width:1.0;"/><text fill="#000000" font-family="sans-serif" font-size="13" lengthAdjust="spacing" textLength="43" x="422.5" y="635.0669">einheit</text><text fill="#000000" font-family="sans-serif" font-size="13" lengthAdjust="spacing" textLength="24" x="563.0806" y="729.3113">0..1</text></g><!--link RegionalerAufAbschlag to Zeitraum--><g id="link_RegionalerAufAbschlag_Zeitraum"><path codeLine="32" d="M322.44,390.26 C332.41,387.71 342.33,385.26 352,383 C444.33,361.38 540.8256,344.4863 607.3556,333.6663 " fill="none" id="RegionalerAufAbschlag-to-Zeitraum" style="stroke:#181818;stroke-width:1.0;"/><polygon fill="#181818" points="619.2,331.74,612.6357,328.755,607.3556,333.6663,613.9199,336.6513,619.2,331.74" style="stroke:#181818;stroke-width:1.0;"/><text fill="#000000" font-family="sans-serif" font-size="13" lengthAdjust="spacing" textLength="130" x="379" y="343.0669">gueltigkeitszeitraum</text><text fill="#000000" font-family="sans-serif" font-size="13" lengthAdjust="spacing" textLength="24" x="587.4347" y="345.5917">0..1</text></g><!--link RegionalerAufAbschlag to Energiemix--><g id="link_RegionalerAufAbschlag_Energiemix"><path codeLine="33" d="M322.35,456.44 C332.37,457.4 342.32,458.27 352,459 C442.31,465.79 534.8702,467.5462 601.5602,467.9562 " fill="none" id="RegionalerAufAbschlag-to-Energiemix" style="stroke:#181818;stroke-width:1.0;"/><polygon fill="#181818" points="613.56,468.03,607.5847,463.9932,601.5602,467.9562,607.5355,471.993,613.56,468.03" style="stroke:#181818;stroke-width:1.0;"/><text fill="#000000" font-family="sans-serif" font-size="13" lengthAdjust="spacing" textLength="140" x="374" y="455.0669">energiemixaenderung</text><text fill="#000000" font-family="sans-serif" font-size="13" lengthAdjust="spacing" textLength="24" x="582.0983" y="480.7973">0..1</text></g><!--link RegionalerAufAbschlag to Vertragskonditionen--><g id="link_RegionalerAufAbschlag_Vertragskonditionen"><path codeLine="34" d="M270.3,363.65 C296.15,348.17 324.37,333.14 352,322 C430.38,290.39 513.1971,273.0931 580.9071,262.3931 " fill="none" id="RegionalerAufAbschlag-to-Vertragskonditionen" style="stroke:#181818;stroke-width:1.0;"/><polygon fill="#181818" points="592.76,260.52,586.2092,257.5056,580.9071,262.3931,587.4579,265.4075,592.76,260.52" style="stroke:#181818;stroke-width:1.0;"/><text fill="#000000" font-family="sans-serif" font-size="13" lengthAdjust="spacing" textLength="182" x="353" y="269.0669">vertagskonditionsaenderung</text><text fill="#000000" font-family="sans-serif" font-size="13" lengthAdjust="spacing" textLength="24" x="560.9705" y="274.0483">0..1</text></g><!--link RegionalerAufAbschlag to Preisgarantie--><g id="link_RegionalerAufAbschlag_Preisgarantie"><path codeLine="35" d="M322.42,423.53 C417.89,415.95 523.3377,407.5705 597.3377,401.6905 " fill="none" id="RegionalerAufAbschlag-to-Preisgarantie" style="stroke:#181818;stroke-width:1.0;"/><polygon fill="#181818" points="609.3,400.74,603.002,397.2278,597.3377,401.6905,603.6357,405.2027,609.3,400.74" style="stroke:#181818;stroke-width:1.0;"/><text fill="#000000" font-family="sans-serif" font-size="13" lengthAdjust="spacing" textLength="122" x="383" y="404.0669">garantieaenderung</text><text fill="#000000" font-family="sans-serif" font-size="13" lengthAdjust="spacing" textLength="24" x="577.4456" y="414.0337">0..1</text></g><!--link RegionalerAufAbschlag to Tarifeinschraenkung--><g id="link_RegionalerAufAbschlag_Tarifeinschraenkung"><path codeLine="36" d="M322.28,484.84 C332.3,487.41 342.27,489.83 352,492 C432.86,510.05 514.4879,521.7901 581.1979,529.9101 " fill="none" id="RegionalerAufAbschlag-to-Tarifeinschraenkung" style="stroke:#181818;stroke-width:1.0;"/><polygon fill="#181818" points="593.11,531.36,587.6373,526.6643,581.1979,529.9101,586.6706,534.6057,593.11,531.36" style="stroke:#181818;stroke-width:1.0;"/><text fill="#000000" font-family="sans-serif" font-size="13" lengthAdjust="spacing" textLength="177" x="355.5" y="488.0669">einschraenkungsaenderung</text><text fill="#000000" font-family="sans-serif" font-size="13" lengthAdjust="spacing" textLength="24" x="561.3473" y="543.2682">0..1</text></g><!--SRC=[jLPDRvmm43sNNp7QlKMADwkcLOJQI6cKOvkegbgfspqO6C1QCCWsIRDj_tjjDu1XlSqNEI1v7i_FZs6OeS1KWQf0i2nNa321iM8L3uAue5B2RBNAbQfbk5X4rJ6IZAcyYGYh5XykZoyEwrkLLtnHK8LIBMZD_h7YgYIvAejv5mdCj2ejKD0cfP6Cyu9cv7E7dZNfsHqANdIz_i7VIRR5S7bq-d_P6L3f5u5VmQi8jyZYd3SyWn2a4h0w8cIvXlVmgU9e29eia4Lx6JSOIQRGVtFRIAgsjQYIPZFW7FISwqhxbHBLLf-1t4zILB2KqnAvfCWJ56DkV-YV8314MTCOd_dAe8tMQvl7DeJvnT7PoTjpay8NAerQ9rrAHTCKYxuqhXmKlEWzfU7A3al35PdwgSnrVlaHzENtfo_hHXEcFliQXH8qavkA9ynypSZ9rrqCF9ZVgqVGUlS8JFqi-cFLHpGb-NwtW7RXjzhohR-MEhKfMr8P5PGhXkJAZM0G-JqEjbkZWqrJkqME8cDOif_aebj2l_IRx7TPXprzQdkspo7ZfklgHhVHROvysSN0W_cTUmJj8tW4TETyRkD4thYTquHkwpGnp9Db_FhDoNDxPtVKl0-TkIVLRKsSQMTY6CMx6VEfMFkZdTDRlw6Ocw4czJl9zPTAleq060Dxt8-5hFtntfTD_PRfcULcp00m1XwGVKFRIRy1pP3VyyDqUFZxj1lKPkhi8shc0SpCRyQiv_idhVdDi2j-hzXorfVwJls5G4Trz6GvczAXdatCemHtQYo4ja0UgcEIrasZ4B862yMoZKPaEtqUfUKqPMsc2xgVlaU9-UPy26Q0kw1yclXmqkb7lri-JStNvEtRS037Q92p1A74Ca8X0vbNDx3dj5HNHIB_0W00]--></g></svg>