<?xml version="1.0" encoding="us-ascii" standalone="no"?><svg xmlns="http://www.w3.org/2000/svg" xmlns:xlink="http://www.w3.org/1999/xlink" contentStyleType="text/css" height="355px" preserveAspectRatio="none" style="width:695px;height:355px;background:#FFFFFF;" version="1.1" viewBox="0 0 695 355" width="695px" zoomAndPan="magnify"><defs/><g><!--cluster bo4e--><g id="cluster_bo4e"><path d="M430.5,6 L471.5,6 A3.75,3.75 0 0 1 474,8.5 L481,28.2969 L685.5,28.2969 A2.5,2.5 0 0 1 688,30.7969 L688,345.5 A2.5,2.5 0 0 1 685.5,348 L430.5,348 A2.5,2.5 0 0 1 428,345.5 L428,8.5 A2.5,2.5 0 0 1 430.5,6 " fill="none" style="stroke:#000000;stroke-width:1.5;"/><line style="stroke:#000000;stroke-width:1.5;" x1="428" x2="481" y1="28.2969" y2="28.2969"/><text fill="#000000" font-family="sans-serif" font-size="14" font-weight="bold" lengthAdjust="spacing" textLength="40" x="432" y="20.9951">bo4e</text></g><!--cluster com--><g id="cluster_com"><path d="M492.5,49 L571.5,49 A3.75,3.75 0 0 1 574,51.5 L581,71.2969 L623.5,71.2969 A2.5,2.5 0 0 1 626,73.7969 L626,135.5 A2.5,2.5 0 0 1 623.5,138 L492.5,138 A2.5,2.5 0 0 1 490,135.5 L490,51.5 A2.5,2.5 0 0 1 492.5,49 " fill="#E0A86C" style="stroke:#000000;stroke-width:1.5;"/><line style="stroke:#000000;stroke-width:1.5;" x1="490" x2="581" y1="71.2969" y2="71.2969"/><a href="https://bo4e.github.io/BO4E-python/latest/api/bo4e.com.html" target="_top" title="https://bo4e.github.io/BO4E-python/latest/api/bo4e.com.html" xlink:actuate="onRequest" xlink:href="https://bo4e.github.io/BO4E-python/latest/api/bo4e.com.html" xlink:show="new" xlink:title="https://bo4e.github.io/BO4E-python/latest/api/bo4e.com.html" xlink:type="simple"><text fill="#0000FF" font-family="sans-serif" font-size="14" font-weight="bold" lengthAdjust="spacing" text-decoration="underline" textLength="78" x="494" y="63.9951">bo4e.com</text></a></g><!--cluster enum--><g id="cluster_enum"><path d="M454.5,162 L544.5,162 A3.75,3.75 0 0 1 547,164.5 L554,184.2969 L661.5,184.2969 A2.5,2.5 0 0 1 664,186.7969 L664,321.5 A2.5,2.5 0 0 1 661.5,324 L454.5,324 A2.5,2.5 0 0 1 452,321.5 L452,164.5 A2.5,2.5 0 0 1 454.5,162 " fill="#D1C358" style="stroke:#000000;stroke-width:1.5;"/><line style="stroke:#000000;stroke-width:1.5;" x1="452" x2="554" y1="184.2969" y2="184.2969"/><a href="https://bo4e.github.io/BO4E-python/latest/api/bo4e.enum.html" target="_top" title="https://bo4e.github.io/BO4E-python/latest/api/bo4e.enum.html" xlink:actuate="onRequest" xlink:href="https://bo4e.github.io/BO4E-python/latest/api/bo4e.enum.html" xlink:show="new" xlink:title="https://bo4e.github.io/BO4E-python/latest/api/bo4e.enum.html" xlink:type="simple"><text fill="#0000FF" font-family="sans-serif" font-size="14" font-weight="bold" lengthAdjust="spacing" text-decoration="underline" textLength="89" x="456" y="176.9951">bo4e.enum</text></a></g><!--class COM--><g id="elem_COM"><rect codeLine="9" fill="#F1F1F1" height="37.9375" id="COM" rx="2.5" ry="2.5" style="stroke:#181818;stroke-width:0.5;" width="104" x="506" y="84.03"/><ellipse cx="521" cy="102.9987" fill="#ADD1B2" rx="11" ry="11" style="stroke:#181818;stroke-width:1.0;"/><path d="M523.9688,108.6394 Q523.3906,108.9362 522.75,109.0769 Q522.1094,109.2331 521.4063,109.2331 Q518.9063,109.2331 517.5781,107.5925 Q516.2656,105.9362 516.2656,102.8112 Q516.2656,99.6862 517.5781,98.03 Q518.9063,96.3737 521.4063,96.3737 Q522.1094,96.3737 522.75,96.53 Q523.4063,96.6862 523.9688,96.9831 L523.9688,99.7019 Q523.3438,99.1237 522.75,98.8581 Q522.1563,98.5769 521.5313,98.5769 Q520.1875,98.5769 519.5,99.655 Q518.8125,100.7175 518.8125,102.8112 Q518.8125,104.905 519.5,105.9831 Q520.1875,107.0456 521.5313,107.0456 Q522.1563,107.0456 522.75,106.78 Q523.3438,106.4987 523.9688,105.9206 L523.9688,108.6394 Z " fill="#000000"/><a href="https://bo4e.github.io/BO4E-python/latest/api/bo4e.com.html#bo4e.com.com.COM" target="_top" title="https://bo4e.github.io/BO4E-python/latest/api/bo4e.com.html#bo4e.com.com.COM" xlink:actuate="onRequest" xlink:href="https://bo4e.github.io/BO4E-python/latest/api/bo4e.com.html#bo4e.com.com.COM" xlink:show="new" xlink:title="https://bo4e.github.io/BO4E-python/latest/api/bo4e.com.html#bo4e.com.com.COM" xlink:type="simple"><text fill="#0000FF" font-family="sans-serif" font-size="14" lengthAdjust="spacing" text-decoration="underline" textLength="33" x="554.5" y="102.0251">COM</text></a><text fill="#000000" font-family="sans-serif" font-size="10" lengthAdjust="spacing" textLength="72" x="535" y="114.6091">bo4e.com.com</text></g><!--class Waehrungscode--><g id="elem_Waehrungscode"><rect codeLine="12" fill="#F1F1F1" height="37.9375" id="Waehrungscode" rx="2.5" ry="2.5" style="stroke:#181818;stroke-width:0.5;" width="166" x="475" y="197.03"/><ellipse cx="490" cy="215.9988" fill="#ADD1B2" rx="11" ry="11" style="stroke:#181818;stroke-width:1.0;"/><path d="M492.9688,221.6394 Q492.3906,221.9363 491.75,222.0769 Q491.1094,222.2331 490.4063,222.2331 Q487.9063,222.2331 486.5781,220.5925 Q485.2656,218.9363 485.2656,215.8113 Q485.2656,212.6863 486.5781,211.03 Q487.9063,209.3738 490.4063,209.3738 Q491.1094,209.3738 491.75,209.53 Q492.4063,209.6863 492.9688,209.9831 L492.9688,212.7019 Q492.3438,212.1238 491.75,211.8581 Q491.1563,211.5769 490.5313,211.5769 Q489.1875,211.5769 488.5,212.655 Q487.8125,213.7175 487.8125,215.8113 Q487.8125,217.905 488.5,218.9831 Q489.1875,220.0456 490.5313,220.0456 Q491.1563,220.0456 491.75,219.78 Q492.3438,219.4988 492.9688,218.9206 L492.9688,221.6394 Z " fill="#000000"/><a href="https://bo4e.github.io/BO4E-python/latest/api/bo4e.enum.html#bo4e.enum.waehrungscode.Waehrungscode" target="_top" title="https://bo4e.github.io/BO4E-python/latest/api/bo4e.enum.html#bo4e.enum.waehrungscode.Waehrungscode" xlink:actuate="onRequest" xlink:href="https://bo4e.github.io/BO4E-python/latest/api/bo4e.enum.html#bo4e.enum.waehrungscode.Waehrungscode" xlink:show="new" xlink:title="https://bo4e.github.io/BO4E-python/latest/api/bo4e.enum.html#bo4e.enum.waehrungscode.Waehrungscode" xlink:type="simple"><text fill="#0000FF" font-family="sans-serif" font-size="14" lengthAdjust="spacing" text-decoration="underline" textLength="114" x="514" y="215.0251">Waehrungscode</text></a><text fill="#000000" font-family="sans-serif" font-size="10" lengthAdjust="spacing" textLength="134" x="504" y="227.6091">bo4e.enum.waehrungscode</text></g><!--class Steuerkennzeichen--><g id="elem_Steuerkennzeichen"><rect codeLine="13" fill="#F1F1F1" height="37.9375" id="Steuerkennzeichen" rx="2.5" ry="2.5" style="stroke:#181818;stroke-width:0.5;" width="180" x="468" y="270.03"/><ellipse cx="483" cy="288.9988" fill="#ADD1B2" rx="11" ry="11" style="stroke:#181818;stroke-width:1.0;"/><path d="M485.9688,294.6394 Q485.3906,294.9363 484.75,295.0769 Q484.1094,295.2331 483.4063,295.2331 Q480.9063,295.2331 479.5781,293.5925 Q478.2656,291.9363 478.2656,288.8113 Q478.2656,285.6863 479.5781,284.03 Q480.9063,282.3738 483.4063,282.3738 Q484.1094,282.3738 484.75,282.53 Q485.4063,282.6863 485.9688,282.9831 L485.9688,285.7019 Q485.3438,285.1238 484.75,284.8581 Q484.1563,284.5769 483.5313,284.5769 Q482.1875,284.5769 481.5,285.655 Q480.8125,286.7175 480.8125,288.8113 Q480.8125,290.905 481.5,291.9831 Q482.1875,293.0456 483.5313,293.0456 Q484.1563,293.0456 484.75,292.78 Q485.3438,292.4988 485.9688,291.9206 L485.9688,294.6394 Z " fill="#000000"/><a href="https://bo4e.github.io/BO4E-python/latest/api/bo4e.enum.html#bo4e.enum.steuerkennzeichen.Steuerkennzeichen" target="_top" title="https://bo4e.github.io/BO4E-python/latest/api/bo4e.enum.html#bo4e.enum.steuerkennzeichen.Steuerkennzeichen" xlink:actuate="onRequest" xlink:href="https://bo4e.github.io/BO4E-python/latest/api/bo4e.enum.html#bo4e.enum.steuerkennzeichen.Steuerkennzeichen" xlink:show="new" xlink:title="https://bo4e.github.io/BO4E-python/latest/api/bo4e.enum.html#bo4e.enum.steuerkennzeichen.Steuerkennzeichen" xlink:type="simple"><text fill="#0000FF" font-family="sans-serif" font-size="14" lengthAdjust="spacing" text-decoration="underline" textLength="136" x="503" y="288.0251">Steuerkennzeichen</text></a><text fill="#000000" font-family="sans-serif" font-size="10" lengthAdjust="spacing" textLength="148" x="497" y="300.6091">bo4e.enum.steuerkennzeichen</text></g><!--class Steuerbetrag--><g id="elem_Steuerbetrag"><rect codeLine="3" fill="#F1F1F1" height="78.5313" id="Steuerbetrag" rx="2.5" ry="2.5" style="stroke:#181818;stroke-width:0.5;" width="252" x="7" y="176.73"/><ellipse cx="71.75" cy="195.6988" fill="#ADD1B2" rx="11" ry="11" style="stroke:#181818;stroke-width:1.0;"/><path d="M74.7188,201.3394 Q74.1406,201.6363 73.5,201.7769 Q72.8594,201.9331 72.1563,201.9331 Q69.6563,201.9331 68.3281,200.2925 Q67.0156,198.6363 67.0156,195.5113 Q67.0156,192.3863 68.3281,190.73 Q69.6563,189.0738 72.1563,189.0738 Q72.8594,189.0738 73.5,189.23 Q74.1563,189.3863 74.7188,189.6831 L74.7188,192.4019 Q74.0938,191.8238 73.5,191.5581 Q72.9063,191.2769 72.2813,191.2769 Q70.9375,191.2769 70.25,192.355 Q69.5625,193.4175 69.5625,195.5113 Q69.5625,197.605 70.25,198.6831 Q70.9375,199.7456 72.2813,199.7456 Q72.9063,199.7456 73.5,199.48 Q74.0938,199.1988 74.7188,198.6206 L74.7188,201.3394 Z " fill="#000000"/><a href="https://bo4e.github.io/BO4E-python/latest/api/bo4e.com.html#bo4e.com.steuerbetrag.Steuerbetrag" target="_top" title="https://bo4e.github.io/BO4E-python/latest/api/bo4e.com.html#bo4e.com.steuerbetrag.Steuerbetrag" xlink:actuate="onRequest" xlink:href="https://bo4e.github.io/BO4E-python/latest/api/bo4e.com.html#bo4e.com.steuerbetrag.Steuerbetrag" xlink:show="new" xlink:title="https://bo4e.github.io/BO4E-python/latest/api/bo4e.com.html#bo4e.com.steuerbetrag.Steuerbetrag" xlink:type="simple"><text fill="#0000FF" font-family="sans-serif" font-size="14" lengthAdjust="spacing" text-decoration="underline" textLength="91" x="103.75" y="194.7251">Steuerbetrag</text></a><text fill="#000000" font-family="sans-serif" font-size="10" lengthAdjust="spacing" textLength="114" x="92.25" y="207.3091">bo4e.com.steuerbetrag</text><line style="stroke:#181818;stroke-width:0.5;" x1="8" x2="258" y1="214.6675" y2="214.6675"/><text fill="#000000" font-family="sans-serif" font-size="14" lengthAdjust="spacing" textLength="231" x="13" y="231.6626">basiswert : Decimal [0..1] = None</text><text fill="#000000" font-family="sans-serif" font-size="14" lengthAdjust="spacing" textLength="240" x="13" y="247.9595">steuerwert : Decimal [0..1] = None</text></g><!--link Steuerbetrag to COM--><g id="link_Steuerbetrag_COM"><path codeLine="16" d="M259.48,182.48 C341.69,160.52 427.3994,137.614 488.1394,121.394 " fill="none" id="Steuerbetrag-to-COM" style="stroke:#181818;stroke-width:1.0;"/><polygon fill="none" points="505.53,116.75,486.5914,115.5971,489.6874,127.1909,505.53,116.75" style="stroke:#181818;stroke-width:1.0;"/></g><!--link Steuerbetrag to Steuerkennzeichen--><g id="link_Steuerbetrag_Steuerkennzeichen"><path codeLine="17" d="M259.48,237.66 C326.47,249.22 395.4947,261.1297 456.0047,271.5697 " fill="none" id="Steuerbetrag-to-Steuerkennzeichen" style="stroke:#181818;stroke-width:1.0;"/><polygon fill="#181818" points="467.83,273.61,462.5974,268.6481,456.0047,271.5697,461.2373,276.5316,467.83,273.61" style="stroke:#181818;stroke-width:1.0;"/><text fill="#000000" font-family="sans-serif" font-size="13" lengthAdjust="spacing" textLength="121" x="290" y="239.0669">steuerkennzeichen</text><text fill="#000000" font-family="sans-serif" font-size="13" lengthAdjust="spacing" textLength="24" x="436.0076" y="285.078">0..1</text></g><!--link Steuerbetrag to Waehrungscode--><g id="link_Steuerbetrag_Waehrungscode"><path codeLine="18" d="M259.48,216 C329.02,216 401.52,216 462.67,216 " fill="none" id="Steuerbetrag-to-Waehrungscode" style="stroke:#181818;stroke-width:1.0;"/><polygon fill="#181818" points="474.67,216,468.67,212,462.67,216,468.67,220,474.67,216" style="stroke:#181818;stroke-width:1.0;"/><text fill="#000000" font-family="sans-serif" font-size="13" lengthAdjust="spacing" textLength="62" x="319.5" y="212.0669">waehrung</text><text fill="#000000" font-family="sans-serif" font-size="13" lengthAdjust="spacing" textLength="24" x="443.0734" y="228.6699">0..1</text></g><!--SRC=[hLCzJyCm49tnhpWb6rAJLXHKHL09IaVemC1GCZZEDRP8x2XsL57WlnEtj7L8GKZjSCCxtvtVkuyS5mQCWafat40gAcH6A4a8owdMuCtdt9XIHs6Og246cJ2yJWAXmhlPSDehtmnNCiofGMr2MefD55D5m4sH-pka3TPO9MWgcWLF3W0NnF6BlDPYXT6WFpwOwm7LhHHu9sS9rK8liJ8GmJqoKT0SvlqW6CHm0uzA8ZdRrFWpvfCGIGlK9MLuf6xOeZXU4zv2yAVzsz7Ln98-RN-jJMOFqDZX9ZQsfj84D4gF5OgoTfLQw4gr6Fnqm2ukHyTgtNtbx-6I8gzgcMccKWoUNGGjrEr5DtzDkvLrUiARzNj5ALSe64VvVGEE1pgUNyXtQZatuNZjFhSlhTVx6EzMqMxBZ_Scu1myUnFUVem7Y4RGeV2lIkqvHR2T0Y5SD8u2YmGhJJHNIsZNMmZCK_q5]--></g></svg>