<svg xmlns="http://www.w3.org/2000/svg" xmlns:xlink="http://www.w3.org/1999/xlink" contentStyleType="text/css" data-diagram-type="CLASS" height="355px" preserveAspectRatio="none" style="width:1108px;height:355px;background:#FFFFFF;" version="1.1" viewBox="0 0 1108 355" width="1108px" zoomAndPan="magnify"><defs/><g><!--cluster bo4e--><g class="cluster" data-entity="bo4e" data-source-line="11" data-uid="ent0005" id="cluster_bo4e"><path d="M837.04,6 L876.916,6 A3.75,3.75 0 0 1 879.416,8.5 L886.416,28.2969 L1098.96,28.2969 A2.5,2.5 0 0 1 1101.46,30.7969 L1101.46,345.5 A2.5,2.5 0 0 1 1098.96,348 L837.04,348 A2.5,2.5 0 0 1 834.54,345.5 L834.54,8.5 A2.5,2.5 0 0 1 837.04,6" fill="none" style="stroke:#000000;stroke-width:1.5;"/><line style="stroke:#000000;stroke-width:1.5;" x1="834.54" x2="886.416" y1="28.2969" y2="28.2969"/><text fill="#000000" font-family="sans-serif" font-size="14" font-weight="bold" lengthAdjust="spacing" textLength="38.876" x="838.54" y="20.9951">bo4e</text></g><!--cluster com--><g class="cluster" data-entity="com" data-source-line="10" data-uid="ent0003" id="cluster_com"><path d="M901.47,49 L979.1692,49 A3.75,3.75 0 0 1 981.6692,51.5 L988.6692,71.2969 L1034.52,71.2969 A2.5,2.5 0 0 1 1037.02,73.7969 L1037.02,135.5 A2.5,2.5 0 0 1 1034.52,138 L901.47,138 A2.5,2.5 0 0 1 898.97,135.5 L898.97,51.5 A2.5,2.5 0 0 1 901.47,49" fill="#E0A86C" style="stroke:#000000;stroke-width:1.5;"/><line style="stroke:#000000;stroke-width:1.5;" x1="898.97" x2="988.6692" y1="71.2969" y2="71.2969"/><a href="file:////home/runner/work/BO4E-python/BO4E-python/docs/../.tox/docs/tmp/html/api/bo4e.com.html" target="_top" title="file:////home/runner/work/BO4E-python/BO4E-python/docs/../.tox/docs/tmp/html/api/bo4e.com.html" xlink:actuate="onRequest" xlink:href="file:////home/runner/work/BO4E-python/BO4E-python/docs/../.tox/docs/tmp/html/api/bo4e.com.html" xlink:show="new" xlink:title="file:////home/runner/work/BO4E-python/BO4E-python/docs/../.tox/docs/tmp/html/api/bo4e.com.html" xlink:type="simple"><text fill="#0000FF" font-family="sans-serif" font-size="14" font-weight="bold" lengthAdjust="spacing" text-decoration="underline" textLength="76.6992" x="902.97" y="63.9951">bo4e.com</text></a></g><!--cluster enum--><g class="cluster" data-entity="enum" data-source-line="13" data-uid="ent0006" id="cluster_enum"><path d="M861.04,162 L950.2509,162 A3.75,3.75 0 0 1 952.7509,164.5 L959.7509,184.2969 L1074.96,184.2969 A2.5,2.5 0 0 1 1077.46,186.7969 L1077.46,321.5 A2.5,2.5 0 0 1 1074.96,324 L861.04,324 A2.5,2.5 0 0 1 858.54,321.5 L858.54,164.5 A2.5,2.5 0 0 1 861.04,162" fill="#D1C358" style="stroke:#000000;stroke-width:1.5;"/><line style="stroke:#000000;stroke-width:1.5;" x1="858.54" x2="959.7509" y1="184.2969" y2="184.2969"/><a href="file:////home/runner/work/BO4E-python/BO4E-python/docs/../.tox/docs/tmp/html/api/bo4e.enum.html" target="_top" title="file:////home/runner/work/BO4E-python/BO4E-python/docs/../.tox/docs/tmp/html/api/bo4e.enum.html" xlink:actuate="onRequest" xlink:href="file:////home/runner/work/BO4E-python/BO4E-python/docs/../.tox/docs/tmp/html/api/bo4e.enum.html" xlink:show="new" xlink:title="file:////home/runner/work/BO4E-python/BO4E-python/docs/../.tox/docs/tmp/html/api/bo4e.enum.html" xlink:type="simple"><text fill="#0000FF" font-family="sans-serif" font-size="14" font-weight="bold" lengthAdjust="spacing" text-decoration="underline" textLength="88.2109" x="862.54" y="176.9951">bo4e.enum</text></a></g><!--class COM--><g class="entity" data-entity="COM" data-source-line="11" data-uid="ent0004" id="entity_COM"><rect fill="#F1F1F1" height="37.9375" rx="2.5" ry="2.5" style="stroke:#181818;stroke-width:0.5;" width="106.0527" x="914.97" y="84.03"/><ellipse cx="929.97" cy="102.9987" fill="#ADD1B2" rx="11" ry="11" style="stroke:#181818;stroke-width:1;"/><path d="M932.9388,108.6394 Q932.3606,108.9362 931.72,109.0769 Q931.0794,109.2331 930.3763,109.2331 Q927.8763,109.2331 926.5481,107.5925 Q925.2356,105.9362 925.2356,102.8112 Q925.2356,99.6862 926.5481,98.03 Q927.8763,96.3737 930.3763,96.3737 Q931.0794,96.3737 931.72,96.53 Q932.3763,96.6862 932.9388,96.9831 L932.9388,99.7019 Q932.3138,99.1237 931.72,98.8581 Q931.1263,98.5769 930.5013,98.5769 Q929.1575,98.5769 928.47,99.655 Q927.7825,100.7175 927.7825,102.8112 Q927.7825,104.905 928.47,105.9831 Q929.1575,107.0456 930.5013,107.0456 Q931.1263,107.0456 931.72,106.78 Q932.3138,106.4987 932.9388,105.9206 L932.9388,108.6394 Z " fill="#000000"/><a href="file:////home/runner/work/BO4E-python/BO4E-python/docs/../.tox/docs/tmp/html/api/bo4e.com.html#bo4e.com.com.COM" target="_top" title="file:////home/runner/work/BO4E-python/BO4E-python/docs/../.tox/docs/tmp/html/api/bo4e.com.html#bo4e.com.com.COM" xlink:actuate="onRequest" xlink:href="file:////home/runner/work/BO4E-python/BO4E-python/docs/../.tox/docs/tmp/html/api/bo4e.com.html#bo4e.com.com.COM" xlink:show="new" xlink:title="file:////home/runner/work/BO4E-python/BO4E-python/docs/../.tox/docs/tmp/html/api/bo4e.com.html#bo4e.com.com.COM" xlink:type="simple"><text fill="#0000FF" font-family="sans-serif" font-size="14" lengthAdjust="spacing" text-decoration="underline" textLength="32.874" x="964.5594" y="102.0251">COM</text></a><text fill="#000000" font-family="sans-serif" font-size="10" lengthAdjust="spacing" textLength="74.0527" x="943.97" y="114.6091">bo4e.com.com</text></g><!--class Steuerkennzeichen--><g class="entity" data-entity="Steuerkennzeichen" data-source-line="14" data-uid="ent0007" id="entity_Steuerkennzeichen"><rect fill="#F1F1F1" height="37.9375" rx="2.5" ry="2.5" style="stroke:#181818;stroke-width:0.5;" width="186.917" x="874.54" y="197.03"/><ellipse cx="889.54" cy="215.9988" fill="#ADD1B2" rx="11" ry="11" style="stroke:#181818;stroke-width:1;"/><path d="M892.5088,221.6394 Q891.9306,221.9363 891.29,222.0769 Q890.6494,222.2331 889.9463,222.2331 Q887.4463,222.2331 886.1181,220.5925 Q884.8056,218.9363 884.8056,215.8113 Q884.8056,212.6863 886.1181,211.03 Q887.4463,209.3738 889.9463,209.3738 Q890.6494,209.3738 891.29,209.53 Q891.9463,209.6863 892.5088,209.9831 L892.5088,212.7019 Q891.8838,212.1238 891.29,211.8581 Q890.6963,211.5769 890.0713,211.5769 Q888.7275,211.5769 888.04,212.655 Q887.3525,213.7175 887.3525,215.8113 Q887.3525,217.905 888.04,218.9831 Q888.7275,220.0456 890.0713,220.0456 Q890.6963,220.0456 891.29,219.78 Q891.8838,219.4988 892.5088,218.9206 L892.5088,221.6394 Z " fill="#000000"/><a href="file:////home/runner/work/BO4E-python/BO4E-python/docs/../.tox/docs/tmp/html/api/bo4e.enum.html#bo4e.enum.steuerkennzeichen.Steuerkennzeichen" target="_top" title="file:////home/runner/work/BO4E-python/BO4E-python/docs/../.tox/docs/tmp/html/api/bo4e.enum.html#bo4e.enum.steuerkennzeichen.Steuerkennzeichen" xlink:actuate="onRequest" xlink:href="file:////home/runner/work/BO4E-python/BO4E-python/docs/../.tox/docs/tmp/html/api/bo4e.enum.html#bo4e.enum.steuerkennzeichen.Steuerkennzeichen" xlink:show="new" xlink:title="file:////home/runner/work/BO4E-python/BO4E-python/docs/../.tox/docs/tmp/html/api/bo4e.enum.html#bo4e.enum.steuerkennzeichen.Steuerkennzeichen" xlink:type="simple"><text fill="#0000FF" font-family="sans-serif" font-size="14" lengthAdjust="spacing" text-decoration="underline" textLength="134.6064" x="913.6953" y="215.0251">Steuerkennzeichen</text></a><text fill="#000000" font-family="sans-serif" font-size="10" lengthAdjust="spacing" textLength="154.917" x="903.54" y="227.6091">bo4e.enum.steuerkennzeichen</text></g><!--class Waehrungscode--><g class="entity" data-entity="Waehrungscode" data-source-line="15" data-uid="ent0008" id="entity_Waehrungscode"><rect fill="#F1F1F1" height="37.9375" rx="2.5" ry="2.5" style="stroke:#181818;stroke-width:0.5;" width="171.165" x="882.42" y="270.03"/><ellipse cx="897.42" cy="288.9988" fill="#ADD1B2" rx="11" ry="11" style="stroke:#181818;stroke-width:1;"/><path d="M900.3888,294.6394 Q899.8106,294.9363 899.17,295.0769 Q898.5294,295.2331 897.8263,295.2331 Q895.3263,295.2331 893.9981,293.5925 Q892.6856,291.9363 892.6856,288.8113 Q892.6856,285.6863 893.9981,284.03 Q895.3263,282.3738 897.8263,282.3738 Q898.5294,282.3738 899.17,282.53 Q899.8263,282.6863 900.3888,282.9831 L900.3888,285.7019 Q899.7638,285.1238 899.17,284.8581 Q898.5763,284.5769 897.9513,284.5769 Q896.6075,284.5769 895.92,285.655 Q895.2325,286.7175 895.2325,288.8113 Q895.2325,290.905 895.92,291.9831 Q896.6075,293.0456 897.9513,293.0456 Q898.5763,293.0456 899.17,292.78 Q899.7638,292.4988 900.3888,291.9206 L900.3888,294.6394 Z " fill="#000000"/><a href="file:////home/runner/work/BO4E-python/BO4E-python/docs/../.tox/docs/tmp/html/api/bo4e.enum.html#bo4e.enum.waehrungscode.Waehrungscode" target="_top" title="file:////home/runner/work/BO4E-python/BO4E-python/docs/../.tox/docs/tmp/html/api/bo4e.enum.html#bo4e.enum.waehrungscode.Waehrungscode" xlink:actuate="onRequest" xlink:href="file:////home/runner/work/BO4E-python/BO4E-python/docs/../.tox/docs/tmp/html/api/bo4e.enum.html#bo4e.enum.waehrungscode.Waehrungscode" xlink:show="new" xlink:title="file:////home/runner/work/BO4E-python/BO4E-python/docs/../.tox/docs/tmp/html/api/bo4e.enum.html#bo4e.enum.waehrungscode.Waehrungscode" xlink:type="simple"><text fill="#0000FF" font-family="sans-serif" font-size="14" lengthAdjust="spacing" text-decoration="underline" textLength="113.3535" x="924.3258" y="288.0251">Waehrungscode</text></a><text fill="#000000" font-family="sans-serif" font-size="10" lengthAdjust="spacing" textLength="139.165" x="911.42" y="300.6091">bo4e.enum.waehrungscode</text></g><!--class Steuerbetrag--><g class="entity" data-entity="Steuerbetrag" data-source-line="3" data-uid="ent0002" id="entity_Steuerbetrag"><rect fill="#F1F1F1" height="111.125" rx="2.5" ry="2.5" style="stroke:#181818;stroke-width:0.5;" width="656.54" x="7" y="160.44"/><ellipse cx="272.2261" cy="179.4088" fill="#ADD1B2" rx="11" ry="11" style="stroke:#181818;stroke-width:1;"/><path d="M275.1948,185.0494 Q274.6167,185.3463 273.9761,185.4869 Q273.3354,185.6431 272.6323,185.6431 Q270.1323,185.6431 268.8042,184.0025 Q267.4917,182.3463 267.4917,179.2213 Q267.4917,176.0963 268.8042,174.44 Q270.1323,172.7838 272.6323,172.7838 Q273.3354,172.7838 273.9761,172.94 Q274.6323,173.0963 275.1948,173.3931 L275.1948,176.1119 Q274.5698,175.5338 273.9761,175.2681 Q273.3823,174.9869 272.7573,174.9869 Q271.4136,174.9869 270.7261,176.065 Q270.0386,177.1275 270.0386,179.2213 Q270.0386,181.315 270.7261,182.3931 Q271.4136,183.4556 272.7573,183.4556 Q273.3823,183.4556 273.9761,183.19 Q274.5698,182.9088 275.1948,182.3306 L275.1948,185.0494 Z " fill="#000000"/><a href="file:////home/runner/work/BO4E-python/BO4E-python/docs/../.tox/docs/tmp/html/api/bo4e.com.html#bo4e.com.steuerbetrag.Steuerbetrag" target="_top" title="file:////home/runner/work/BO4E-python/BO4E-python/docs/../.tox/docs/tmp/html/api/bo4e.com.html#bo4e.com.steuerbetrag.Steuerbetrag" xlink:actuate="onRequest" xlink:href="file:////home/runner/work/BO4E-python/BO4E-python/docs/../.tox/docs/tmp/html/api/bo4e.com.html#bo4e.com.steuerbetrag.Steuerbetrag" xlink:show="new" xlink:title="file:////home/runner/work/BO4E-python/BO4E-python/docs/../.tox/docs/tmp/html/api/bo4e.com.html#bo4e.com.steuerbetrag.Steuerbetrag" xlink:type="simple"><text fill="#0000FF" font-family="sans-serif" font-size="14" lengthAdjust="spacing" text-decoration="underline" textLength="92.4424" x="305.2988" y="178.4351">Steuerbetrag</text></a><text fill="#000000" font-family="sans-serif" font-size="10" lengthAdjust="spacing" textLength="117.5879" x="292.7261" y="191.0191">bo4e.com.steuerbetrag</text><line style="stroke:#181818;stroke-width:0.5;" x1="8" x2="662.54" y1="198.3775" y2="198.3775"/><text fill="#000000" font-family="sans-serif" font-size="14" lengthAdjust="spacing" textLength="644.54" x="13" y="215.3726">_typ : Literal[&lt;ComTyp.STEUERBETRAG: 'STEUERBETRAG'&gt;] [1] = ComTyp.STEUERBETRAG</text><text fill="#000000" font-family="sans-serif" font-size="14" lengthAdjust="spacing" textLength="291.2861" x="13" y="231.6695">sondersteuersatz : Decimal [0..1] = None</text><text fill="#000000" font-family="sans-serif" font-size="14" lengthAdjust="spacing" textLength="237.2002" x="13" y="247.9664">basiswert : Decimal [0..1] = None</text><text fill="#000000" font-family="sans-serif" font-size="14" lengthAdjust="spacing" textLength="245.8955" x="13" y="264.2632">steuerwert : Decimal [0..1] = None</text></g><!--link Steuerbetrag to COM--><g class="link" data-entity-1="Steuerbetrag" data-entity-2="COM" data-source-line="18" data-uid="lnk9" id="link_Steuerbetrag_COM"><path codeLine="18" d="M648.86,160 C751.55,141.6 836.9118,126.3028 896.8318,115.5728" fill="none" id="Steuerbetrag-to-COM" style="stroke:#181818;stroke-width:1;"/><polygon fill="none" points="914.55,112.4,895.7742,109.6668,897.8895,121.4789,914.55,112.4" style="stroke:#181818;stroke-width:1;"/></g><!--link Steuerbetrag to Steuerkennzeichen--><g class="link" data-entity-1="Steuerbetrag" data-entity-2="Steuerkennzeichen" data-source-line="19" data-uid="lnk10" id="link_Steuerbetrag_Steuerkennzeichen"><path codeLine="19" d="M663.64,216 C741.03,216 805.46,216 862.24,216" fill="none" id="Steuerbetrag-to-Steuerkennzeichen" style="stroke:#181818;stroke-width:1;"/><polygon fill="#181818" points="874.24,216,868.24,212,862.24,216,868.24,220,874.24,216" style="stroke:#181818;stroke-width:1;"/><text fill="#000000" font-family="sans-serif" font-size="13" lengthAdjust="spacing" textLength="123.5127" x="694.54" y="212.0669">steuerkennzeichen</text><text fill="#000000" font-family="sans-serif" font-size="13" lengthAdjust="spacing" textLength="24.8066" x="841.8445" y="228.6699">0..1</text></g><!--link Steuerbetrag to Waehrungscode--><g class="link" data-entity-1="Steuerbetrag" data-entity-2="Waehrungscode" data-source-line="20" data-uid="lnk11" id="link_Steuerbetrag_Waehrungscode"><path codeLine="20" d="M663.64,253.89 C744.63,263.26 812.6398,271.1286 870.1098,277.7886" fill="none" id="Steuerbetrag-to-Waehrungscode" style="stroke:#181818;stroke-width:1;"/><polygon fill="#181818" points="882.03,279.17,876.5304,274.5059,870.1098,277.7886,875.6094,282.4527,882.03,279.17" style="stroke:#181818;stroke-width:1;"/><text fill="#000000" font-family="sans-serif" font-size="13" lengthAdjust="spacing" textLength="64.9111" x="724.04" y="254.0669">waehrung</text><text fill="#000000" font-family="sans-serif" font-size="13" lengthAdjust="spacing" textLength="24.8066" x="849.6451" y="291.0425">0..1</text></g><!--SRC=[nPHHQzim4CUVeqzn90-5GUI4TQEODj2cPY_R2ctA7Zmp5FaIYrgIaHIofDjtdvmqgRouOozD3GB_pdSdtTztAd7cm6amObuuo8L1xeHMXF2IMGlTD9s94kF8FuMM69c5KcYYfJOFqTNDQTAlLgxGgl6UQsuZIYFgzCyjE5b5XPDbn2eHJVKfKgubhIszFLc72pHJT8RDwLq044AMVLVdLgmn7Wv6hR5TOBOH0e-ayyEjAeZXit1eM9cUZxMSh2fwDqdkazkhP79x-Ic6an1FHXcammmkeCMNTAnMEPhjlfQvjKz-ZLn8La8we7GJ-5Kh99qfiy8kqRYNNRPf_kdpcn359DgASNpzlm8xohADd3k4NZAuFFiuhYKzUeFKQtpp1VngxmA_DgVr3bwl8yY5QX7gLMCeMCtGouVy_OUp8oYsFqtl6RUTzO1AhL7m0jNJP0KMEB0SgjkUAvYqmFecTIuP5Zx_t7AT8_qM4ZJeXTeQyPkw6b7r-3Nlf7x_rsW_5dLR_lNTExo3RZt2tUTcQ14_XWDP_ojJiyGOTWKGKWXla2Yd_c8Yjj1BQEQR2Inp-mS0]--></g></svg>