<svg xmlns="http://www.w3.org/2000/svg" xmlns:xlink="http://www.w3.org/1999/xlink" contentStyleType="text/css" data-diagram-type="CLASS" height="355px" preserveAspectRatio="none" style="width:1072px;height:355px;background:#FFFFFF;" version="1.1" viewBox="0 0 1072 355" width="1072px" zoomAndPan="magnify"><defs/><g><!--cluster bo4e--><g class="cluster" data-entity="bo4e" data-source-line="11" data-uid="ent0005" id="cluster_bo4e"><path d="M817.04,6 L856.916,6 A3.75,3.75 0 0 1 859.416,8.5 L866.416,28.2969 L1063.21,28.2969 A2.5,2.5 0 0 1 1065.71,30.7969 L1065.71,345.5 A2.5,2.5 0 0 1 1063.21,348 L817.04,348 A2.5,2.5 0 0 1 814.54,345.5 L814.54,8.5 A2.5,2.5 0 0 1 817.04,6" fill="none" style="stroke:#000000;stroke-width:1.5;"/><line style="stroke:#000000;stroke-width:1.5;" x1="814.54" x2="866.416" y1="28.2969" y2="28.2969"/><text fill="#000000" font-family="sans-serif" font-size="14" font-weight="bold" lengthAdjust="spacing" textLength="38.876" x="818.54" y="20.9951">bo4e</text></g><!--cluster com--><g class="cluster" data-entity="com" data-source-line="10" data-uid="ent0003" id="cluster_com"><path d="M873.6,49 L951.2992,49 A3.75,3.75 0 0 1 953.7992,51.5 L960.7992,71.2969 L1006.65,71.2969 A2.5,2.5 0 0 1 1009.15,73.7969 L1009.15,135.5 A2.5,2.5 0 0 1 1006.65,138 L873.6,138 A2.5,2.5 0 0 1 871.1,135.5 L871.1,51.5 A2.5,2.5 0 0 1 873.6,49" fill="#E0A86C" style="stroke:#000000;stroke-width:1.5;"/><line style="stroke:#000000;stroke-width:1.5;" x1="871.1" x2="960.7992" y1="71.2969" y2="71.2969"/><a href="file:////home/runner/work/BO4E-python/BO4E-python/docs/../.tox/docs/tmp/html/api/bo4e.com.html" target="_top" title="file:////home/runner/work/BO4E-python/BO4E-python/docs/../.tox/docs/tmp/html/api/bo4e.com.html" xlink:actuate="onRequest" xlink:href="file:////home/runner/work/BO4E-python/BO4E-python/docs/../.tox/docs/tmp/html/api/bo4e.com.html" xlink:show="new" xlink:title="file:////home/runner/work/BO4E-python/BO4E-python/docs/../.tox/docs/tmp/html/api/bo4e.com.html" xlink:type="simple"><text fill="#0000FF" font-family="sans-serif" font-size="14" font-weight="bold" lengthAdjust="spacing" text-decoration="underline" textLength="76.6992" x="875.1" y="63.9951">bo4e.com</text></a></g><!--cluster enum--><g class="cluster" data-entity="enum" data-source-line="13" data-uid="ent0006" id="cluster_enum"><path d="M841.04,162 L930.2509,162 A3.75,3.75 0 0 1 932.7509,164.5 L939.7509,184.2969 L1039.21,184.2969 A2.5,2.5 0 0 1 1041.71,186.7969 L1041.71,321.5 A2.5,2.5 0 0 1 1039.21,324 L841.04,324 A2.5,2.5 0 0 1 838.54,321.5 L838.54,164.5 A2.5,2.5 0 0 1 841.04,162" fill="#D1C358" style="stroke:#000000;stroke-width:1.5;"/><line style="stroke:#000000;stroke-width:1.5;" x1="838.54" x2="939.7509" y1="184.2969" y2="184.2969"/><a href="file:////home/runner/work/BO4E-python/BO4E-python/docs/../.tox/docs/tmp/html/api/bo4e.enum.html" target="_top" title="file:////home/runner/work/BO4E-python/BO4E-python/docs/../.tox/docs/tmp/html/api/bo4e.enum.html" xlink:actuate="onRequest" xlink:href="file:////home/runner/work/BO4E-python/BO4E-python/docs/../.tox/docs/tmp/html/api/bo4e.enum.html" xlink:show="new" xlink:title="file:////home/runner/work/BO4E-python/BO4E-python/docs/../.tox/docs/tmp/html/api/bo4e.enum.html" xlink:type="simple"><text fill="#0000FF" font-family="sans-serif" font-size="14" font-weight="bold" lengthAdjust="spacing" text-decoration="underline" textLength="88.2109" x="842.54" y="176.9951">bo4e.enum</text></a></g><!--class COM--><g class="entity" data-entity="COM" data-source-line="11" data-uid="ent0004" id="entity_COM"><rect fill="#F1F1F1" height="37.9375" rx="2.5" ry="2.5" style="stroke:#181818;stroke-width:0.5;" width="106.0527" x="887.1" y="84.03"/><ellipse cx="902.1" cy="102.9987" fill="#ADD1B2" rx="11" ry="11" style="stroke:#181818;stroke-width:1;"/><path d="M905.0688,108.6394 Q904.4906,108.9362 903.85,109.0769 Q903.2094,109.2331 902.5063,109.2331 Q900.0063,109.2331 898.6781,107.5925 Q897.3656,105.9362 897.3656,102.8112 Q897.3656,99.6862 898.6781,98.03 Q900.0063,96.3737 902.5063,96.3737 Q903.2094,96.3737 903.85,96.53 Q904.5063,96.6862 905.0688,96.9831 L905.0688,99.7019 Q904.4438,99.1237 903.85,98.8581 Q903.2563,98.5769 902.6313,98.5769 Q901.2875,98.5769 900.6,99.655 Q899.9125,100.7175 899.9125,102.8112 Q899.9125,104.905 900.6,105.9831 Q901.2875,107.0456 902.6313,107.0456 Q903.2563,107.0456 903.85,106.78 Q904.4438,106.4987 905.0688,105.9206 L905.0688,108.6394 Z " fill="#000000"/><a href="file:////home/runner/work/BO4E-python/BO4E-python/docs/../.tox/docs/tmp/html/api/bo4e.com.html#bo4e.com.com.COM" target="_top" title="file:////home/runner/work/BO4E-python/BO4E-python/docs/../.tox/docs/tmp/html/api/bo4e.com.html#bo4e.com.com.COM" xlink:actuate="onRequest" xlink:href="file:////home/runner/work/BO4E-python/BO4E-python/docs/../.tox/docs/tmp/html/api/bo4e.com.html#bo4e.com.com.COM" xlink:show="new" xlink:title="file:////home/runner/work/BO4E-python/BO4E-python/docs/../.tox/docs/tmp/html/api/bo4e.com.html#bo4e.com.com.COM" xlink:type="simple"><text fill="#0000FF" font-family="sans-serif" font-size="14" lengthAdjust="spacing" text-decoration="underline" textLength="32.874" x="936.6894" y="102.0251">COM</text></a><text fill="#000000" font-family="sans-serif" font-size="10" lengthAdjust="spacing" textLength="74.0527" x="916.1" y="114.6091">bo4e.com.com</text></g><!--class Waehrungscode--><g class="entity" data-entity="Waehrungscode" data-source-line="14" data-uid="ent0007" id="entity_Waehrungscode"><rect fill="#F1F1F1" height="37.9375" rx="2.5" ry="2.5" style="stroke:#181818;stroke-width:0.5;" width="171.165" x="854.54" y="197.03"/><ellipse cx="869.54" cy="215.9988" fill="#ADD1B2" rx="11" ry="11" style="stroke:#181818;stroke-width:1;"/><path d="M872.5088,221.6394 Q871.9306,221.9363 871.29,222.0769 Q870.6494,222.2331 869.9463,222.2331 Q867.4463,222.2331 866.1181,220.5925 Q864.8056,218.9363 864.8056,215.8113 Q864.8056,212.6863 866.1181,211.03 Q867.4463,209.3738 869.9463,209.3738 Q870.6494,209.3738 871.29,209.53 Q871.9463,209.6863 872.5088,209.9831 L872.5088,212.7019 Q871.8838,212.1238 871.29,211.8581 Q870.6963,211.5769 870.0713,211.5769 Q868.7275,211.5769 868.04,212.655 Q867.3525,213.7175 867.3525,215.8113 Q867.3525,217.905 868.04,218.9831 Q868.7275,220.0456 870.0713,220.0456 Q870.6963,220.0456 871.29,219.78 Q871.8838,219.4988 872.5088,218.9206 L872.5088,221.6394 Z " fill="#000000"/><a href="file:////home/runner/work/BO4E-python/BO4E-python/docs/../.tox/docs/tmp/html/api/bo4e.enum.html#bo4e.enum.waehrungscode.Waehrungscode" target="_top" title="file:////home/runner/work/BO4E-python/BO4E-python/docs/../.tox/docs/tmp/html/api/bo4e.enum.html#bo4e.enum.waehrungscode.Waehrungscode" xlink:actuate="onRequest" xlink:href="file:////home/runner/work/BO4E-python/BO4E-python/docs/../.tox/docs/tmp/html/api/bo4e.enum.html#bo4e.enum.waehrungscode.Waehrungscode" xlink:show="new" xlink:title="file:////home/runner/work/BO4E-python/BO4E-python/docs/../.tox/docs/tmp/html/api/bo4e.enum.html#bo4e.enum.waehrungscode.Waehrungscode" xlink:type="simple"><text fill="#0000FF" font-family="sans-serif" font-size="14" lengthAdjust="spacing" text-decoration="underline" textLength="113.3535" x="896.4458" y="215.0251">Waehrungscode</text></a><text fill="#000000" font-family="sans-serif" font-size="10" lengthAdjust="spacing" textLength="139.165" x="883.54" y="227.6091">bo4e.enum.waehrungscode</text></g><!--class Steuerart--><g class="entity" data-entity="Steuerart" data-source-line="15" data-uid="ent0008" id="entity_Steuerart"><rect fill="#F1F1F1" height="37.9375" rx="2.5" ry="2.5" style="stroke:#181818;stroke-width:0.5;" width="137.9521" x="871.15" y="270.03"/><ellipse cx="886.15" cy="288.9988" fill="#ADD1B2" rx="11" ry="11" style="stroke:#181818;stroke-width:1;"/><path d="M889.1188,294.6394 Q888.5406,294.9363 887.9,295.0769 Q887.2594,295.2331 886.5563,295.2331 Q884.0563,295.2331 882.7281,293.5925 Q881.4156,291.9363 881.4156,288.8113 Q881.4156,285.6863 882.7281,284.03 Q884.0563,282.3738 886.5563,282.3738 Q887.2594,282.3738 887.9,282.53 Q888.5563,282.6863 889.1188,282.9831 L889.1188,285.7019 Q888.4938,285.1238 887.9,284.8581 Q887.3063,284.5769 886.6813,284.5769 Q885.3375,284.5769 884.65,285.655 Q883.9625,286.7175 883.9625,288.8113 Q883.9625,290.905 884.65,291.9831 Q885.3375,293.0456 886.6813,293.0456 Q887.3063,293.0456 887.9,292.78 Q888.4938,292.4988 889.1188,291.9206 L889.1188,294.6394 Z " fill="#000000"/><a href="file:////home/runner/work/BO4E-python/BO4E-python/docs/../.tox/docs/tmp/html/api/bo4e.enum.html#bo4e.enum.steuerart.Steuerart" target="_top" title="file:////home/runner/work/BO4E-python/BO4E-python/docs/../.tox/docs/tmp/html/api/bo4e.enum.html#bo4e.enum.steuerart.Steuerart" xlink:actuate="onRequest" xlink:href="file:////home/runner/work/BO4E-python/BO4E-python/docs/../.tox/docs/tmp/html/api/bo4e.enum.html#bo4e.enum.steuerart.Steuerart" xlink:show="new" xlink:title="file:////home/runner/work/BO4E-python/BO4E-python/docs/../.tox/docs/tmp/html/api/bo4e.enum.html#bo4e.enum.steuerart.Steuerart" xlink:type="simple"><text fill="#0000FF" font-family="sans-serif" font-size="14" lengthAdjust="spacing" text-decoration="underline" textLength="66.0557" x="920.0982" y="288.0251">Steuerart</text></a><text fill="#000000" font-family="sans-serif" font-size="10" lengthAdjust="spacing" textLength="105.9521" x="900.15" y="300.6091">bo4e.enum.steuerart</text></g><!--class Steuerbetrag--><g class="entity" data-entity="Steuerbetrag" data-source-line="3" data-uid="ent0002" id="entity_Steuerbetrag"><rect fill="#F1F1F1" height="111.125" rx="2.5" ry="2.5" style="stroke:#181818;stroke-width:0.5;" width="656.54" x="7" y="160.44"/><ellipse cx="272.2261" cy="179.4088" fill="#ADD1B2" rx="11" ry="11" style="stroke:#181818;stroke-width:1;"/><path d="M275.1948,185.0494 Q274.6167,185.3463 273.9761,185.4869 Q273.3354,185.6431 272.6323,185.6431 Q270.1323,185.6431 268.8042,184.0025 Q267.4917,182.3463 267.4917,179.2213 Q267.4917,176.0963 268.8042,174.44 Q270.1323,172.7838 272.6323,172.7838 Q273.3354,172.7838 273.9761,172.94 Q274.6323,173.0963 275.1948,173.3931 L275.1948,176.1119 Q274.5698,175.5338 273.9761,175.2681 Q273.3823,174.9869 272.7573,174.9869 Q271.4136,174.9869 270.7261,176.065 Q270.0386,177.1275 270.0386,179.2213 Q270.0386,181.315 270.7261,182.3931 Q271.4136,183.4556 272.7573,183.4556 Q273.3823,183.4556 273.9761,183.19 Q274.5698,182.9088 275.1948,182.3306 L275.1948,185.0494 Z " fill="#000000"/><a href="file:////home/runner/work/BO4E-python/BO4E-python/docs/../.tox/docs/tmp/html/api/bo4e.com.html#bo4e.com.steuerbetrag.Steuerbetrag" target="_top" title="file:////home/runner/work/BO4E-python/BO4E-python/docs/../.tox/docs/tmp/html/api/bo4e.com.html#bo4e.com.steuerbetrag.Steuerbetrag" xlink:actuate="onRequest" xlink:href="file:////home/runner/work/BO4E-python/BO4E-python/docs/../.tox/docs/tmp/html/api/bo4e.com.html#bo4e.com.steuerbetrag.Steuerbetrag" xlink:show="new" xlink:title="file:////home/runner/work/BO4E-python/BO4E-python/docs/../.tox/docs/tmp/html/api/bo4e.com.html#bo4e.com.steuerbetrag.Steuerbetrag" xlink:type="simple"><text fill="#0000FF" font-family="sans-serif" font-size="14" lengthAdjust="spacing" text-decoration="underline" textLength="92.4424" x="305.2988" y="178.4351">Steuerbetrag</text></a><text fill="#000000" font-family="sans-serif" font-size="10" lengthAdjust="spacing" textLength="117.5879" x="292.7261" y="191.0191">bo4e.com.steuerbetrag</text><line style="stroke:#181818;stroke-width:0.5;" x1="8" x2="662.54" y1="198.3775" y2="198.3775"/><text fill="#000000" font-family="sans-serif" font-size="14" lengthAdjust="spacing" textLength="644.54" x="13" y="215.3726">_typ : Literal[&lt;ComTyp.STEUERBETRAG: 'STEUERBETRAG'&gt;] [1] = ComTyp.STEUERBETRAG</text><text fill="#000000" font-family="sans-serif" font-size="14" lengthAdjust="spacing" textLength="243.2979" x="13" y="231.6695">steuersatz : Decimal [0..1] = None</text><text fill="#000000" font-family="sans-serif" font-size="14" lengthAdjust="spacing" textLength="237.2002" x="13" y="247.9664">basiswert : Decimal [0..1] = None</text><text fill="#000000" font-family="sans-serif" font-size="14" lengthAdjust="spacing" textLength="245.8955" x="13" y="264.2632">steuerwert : Decimal [0..1] = None</text></g><!--link Steuerbetrag to COM--><g class="link" data-entity-1="Steuerbetrag" data-entity-2="COM" data-source-line="18" data-uid="lnk9" id="link_Steuerbetrag_COM"><path codeLine="18" d="M635.05,160 C731.86,141.85 811.358,126.9453 868.938,116.1553" fill="none" id="Steuerbetrag-to-COM" style="stroke:#181818;stroke-width:1;"/><polygon fill="none" points="886.63,112.84,867.8328,110.258,870.0431,122.0527,886.63,112.84" style="stroke:#181818;stroke-width:1;"/></g><!--link Steuerbetrag to Steuerart--><g class="link" data-entity-1="Steuerbetrag" data-entity-2="Steuerart" data-source-line="19" data-uid="lnk10" id="link_Steuerbetrag_Steuerart"><path codeLine="19" d="M663.72,255.65 C742.38,265.18 806.7371,272.967 858.9971,279.297" fill="none" id="Steuerbetrag-to-Steuerart" style="stroke:#181818;stroke-width:1;"/><polygon fill="#181818" points="870.91,280.74,865.4345,276.0475,858.9971,279.297,864.4726,283.9895,870.91,280.74" style="stroke:#181818;stroke-width:1;"/><text fill="#000000" font-family="sans-serif" font-size="13" lengthAdjust="spacing" textLength="59.8584" x="716.54" y="257.0669">steuerart</text><text fill="#000000" font-family="sans-serif" font-size="13" lengthAdjust="spacing" textLength="24.8066" x="838.5762" y="292.7355">0..1</text></g><!--link Steuerbetrag to Waehrungscode--><g class="link" data-entity-1="Steuerbetrag" data-entity-2="Waehrungscode" data-source-line="20" data-uid="lnk11" id="link_Steuerbetrag_Waehrungscode"><path codeLine="20" d="M663.72,216 C734.36,216 791.08,216 842.2,216" fill="none" id="Steuerbetrag-to-Waehrungscode" style="stroke:#181818;stroke-width:1;"/><polygon fill="#181818" points="854.2,216,848.2,212,842.2,216,848.2,220,854.2,216" style="stroke:#181818;stroke-width:1;"/><text fill="#000000" font-family="sans-serif" font-size="13" lengthAdjust="spacing" textLength="103.0352" x="694.54" y="212.0669">waehrungscode</text><text fill="#000000" font-family="sans-serif" font-size="13" lengthAdjust="spacing" textLength="24.8066" x="821.8194" y="228.7172">0..1</text></g><!--SRC=[nLHjIyCm4Fwy_8fZ-o08IpPyGOeET1Q_-08wyKCjahMtDTWq9ScOy-M_csxQjMwANvo5WppfFPVBSxbBSMJ1Aj1Yd5Y8XSR82fKH4gNS66W6mKYaw37t9KeYqvCiGyscIZ-oawjTlvtFRAAosZfMaM6KCchLqm9OcRF4ofJnNB2XsaKQAKcBdLQ9ZCK9wY5QpSVqfWAW2iBmFZiquXczRgUtbji4RceKU26D1plBmODpOL7pD3ZiApcOvVHcuD_wroV-uFhup8EjAjpgXH1qGpY2DRwaiJZHSFlimfvY92HF8UXGEgTSgWn9OyYDC5FKzdkNHPWVVTu8oRX4a_C8_xuUy8d2S2xa9uIMtpa-sEyNOcxyQHJMlxe0P-lhxsoUhNDmUcr0BimcLRqAM1MimD2Akz7Eti4652kpQItXb6FYuezDf6AaTrK4DRIgw2f_VhCQwr_kjEWMhkt7V70hA5VVtAFaLEQ2GqLRrQTCk_tQAvzxyTo-_7SEsz0iMhEvB78b4G_Aetx5h9V4WvhWX2J2xKgKGpTbY4dK5Ef1HmBJsBm3]--></g></svg>