<svg xmlns="http://www.w3.org/2000/svg" xmlns:xlink="http://www.w3.org/1999/xlink" contentStyleType="text/css" data-diagram-type="CLASS" height="173px" preserveAspectRatio="none" style="width:936px;height:173px;background:#FFFFFF;" version="1.1" viewBox="0 0 936 173" width="936px" zoomAndPan="magnify"><defs/><g><!--cluster bo4e--><g class="cluster" data-entity="bo4e" data-source-line="12" data-uid="ent0005" id="cluster_bo4e"><path d="M745.51,6 L785.386,6 A3.75,3.75 0 0 1 787.886,8.5 L794.886,28.2969 L926.57,28.2969 A2.5,2.5 0 0 1 929.07,30.7969 L929.07,159.5 A2.5,2.5 0 0 1 926.57,162 L745.51,162 A2.5,2.5 0 0 1 743.01,159.5 L743.01,8.5 A2.5,2.5 0 0 1 745.51,6" fill="none" style="stroke:#000000;stroke-width:1.5;"/><line style="stroke:#000000;stroke-width:1.5;" x1="743.01" x2="794.886" y1="28.2969" y2="28.2969"/><text fill="#000000" font-family="sans-serif" font-size="14" font-weight="bold" lengthAdjust="spacing" textLength="38.876" x="747.01" y="20.9951">bo4e</text></g><!--cluster com--><g class="cluster" data-entity="com" data-source-line="11" data-uid="ent0003" id="cluster_com"><path d="M769.51,49 L847.2092,49 A3.75,3.75 0 0 1 849.7092,51.5 L856.7092,71.2969 L902.57,71.2969 A2.5,2.5 0 0 1 905.07,73.7969 L905.07,135.5 A2.5,2.5 0 0 1 902.57,138 L769.51,138 A2.5,2.5 0 0 1 767.01,135.5 L767.01,51.5 A2.5,2.5 0 0 1 769.51,49" fill="#E0A86C" style="stroke:#000000;stroke-width:1.5;"/><line style="stroke:#000000;stroke-width:1.5;" x1="767.01" x2="856.7092" y1="71.2969" y2="71.2969"/><a href="https://bo4e.github.io/BO4E-python/latest/api/bo4e.com.html" target="_top" title="https://bo4e.github.io/BO4E-python/latest/api/bo4e.com.html" xlink:actuate="onRequest" xlink:href="https://bo4e.github.io/BO4E-python/latest/api/bo4e.com.html" xlink:show="new" xlink:title="https://bo4e.github.io/BO4E-python/latest/api/bo4e.com.html" xlink:type="simple"><text fill="#0000FF" font-family="sans-serif" font-size="14" font-weight="bold" lengthAdjust="spacing" text-decoration="underline" textLength="76.6992" x="771.01" y="63.9951">bo4e.com</text></a></g><!--class COM--><g class="entity" data-entity="COM" data-source-line="12" data-uid="ent0004" id="entity_COM"><rect fill="#F1F1F1" height="37.9375" rx="2.5" ry="2.5" style="stroke:#181818;stroke-width:0.5;" width="106.0527" x="783.01" y="84.03"/><ellipse cx="798.01" cy="102.9988" fill="#ADD1B2" rx="11" ry="11" style="stroke:#181818;stroke-width:1;"/><path d="M800.9788,108.6394 Q800.4006,108.9363 799.76,109.0769 Q799.1194,109.2331 798.4163,109.2331 Q795.9163,109.2331 794.5881,107.5925 Q793.2756,105.9363 793.2756,102.8113 Q793.2756,99.6863 794.5881,98.03 Q795.9163,96.3738 798.4163,96.3738 Q799.1194,96.3738 799.76,96.53 Q800.4163,96.6863 800.9788,96.9831 L800.9788,99.7019 Q800.3538,99.1238 799.76,98.8581 Q799.1663,98.5769 798.5413,98.5769 Q797.1975,98.5769 796.51,99.655 Q795.8225,100.7175 795.8225,102.8113 Q795.8225,104.905 796.51,105.9831 Q797.1975,107.0456 798.5413,107.0456 Q799.1663,107.0456 799.76,106.78 Q800.3538,106.4988 800.9788,105.9206 L800.9788,108.6394 Z " fill="#000000"/><a href="https://bo4e.github.io/BO4E-python/latest/api/bo4e.com.html#bo4e.com.com.COM" target="_top" title="https://bo4e.github.io/BO4E-python/latest/api/bo4e.com.html#bo4e.com.com.COM" xlink:actuate="onRequest" xlink:href="https://bo4e.github.io/BO4E-python/latest/api/bo4e.com.html#bo4e.com.com.COM" xlink:show="new" xlink:title="https://bo4e.github.io/BO4E-python/latest/api/bo4e.com.html#bo4e.com.com.COM" xlink:type="simple"><text fill="#0000FF" font-family="sans-serif" font-size="14" lengthAdjust="spacing" text-decoration="underline" textLength="32.874" x="832.5994" y="102.0251">COM</text></a><text fill="#000000" font-family="sans-serif" font-size="10" lengthAdjust="spacing" textLength="74.0527" x="812.01" y="114.6091">bo4e.com.com</text></g><!--class Tagesparameter--><g class="entity" data-entity="Tagesparameter" data-source-line="3" data-uid="ent0002" id="entity_Tagesparameter"><rect fill="#F1F1F1" height="127.4219" rx="2.5" ry="2.5" style="stroke:#181818;stroke-width:0.5;" width="716.0127" x="7" y="39.29"/><ellipse cx="294.1328" cy="58.2587" fill="#ADD1B2" rx="11" ry="11" style="stroke:#181818;stroke-width:1;"/><path d="M297.1016,63.8994 Q296.5234,64.1962 295.8828,64.3369 Q295.2422,64.4931 294.5391,64.4931 Q292.0391,64.4931 290.7109,62.8525 Q289.3984,61.1962 289.3984,58.0712 Q289.3984,54.9462 290.7109,53.29 Q292.0391,51.6337 294.5391,51.6337 Q295.2422,51.6337 295.8828,51.79 Q296.5391,51.9462 297.1016,52.2431 L297.1016,54.9619 Q296.4766,54.3837 295.8828,54.1181 Q295.2891,53.8369 294.6641,53.8369 Q293.3203,53.8369 292.6328,54.915 Q291.9453,55.9775 291.9453,58.0712 Q291.9453,60.165 292.6328,61.2431 Q293.3203,62.3056 294.6641,62.3056 Q295.2891,62.3056 295.8828,62.04 Q296.4766,61.7587 297.1016,61.1806 L297.1016,63.8994 Z " fill="#000000"/><a href="https://bo4e.github.io/BO4E-python/latest/api/bo4e.com.html#bo4e.com.tagesparameter.Tagesparameter" target="_top" title="https://bo4e.github.io/BO4E-python/latest/api/bo4e.com.html#bo4e.com.tagesparameter.Tagesparameter" xlink:actuate="onRequest" xlink:href="https://bo4e.github.io/BO4E-python/latest/api/bo4e.com.html#bo4e.com.tagesparameter.Tagesparameter" xlink:show="new" xlink:title="https://bo4e.github.io/BO4E-python/latest/api/bo4e.com.html#bo4e.com.tagesparameter.Tagesparameter" xlink:type="simple"><text fill="#0000FF" font-family="sans-serif" font-size="14" lengthAdjust="spacing" text-decoration="underline" textLength="115.835" x="323.3389" y="57.2851">Tagesparameter</text></a><text fill="#000000" font-family="sans-serif" font-size="10" lengthAdjust="spacing" textLength="133.2471" x="314.6328" y="69.8691">bo4e.com.tagesparameter</text><line style="stroke:#181818;stroke-width:0.5;" x1="8" x2="722.0127" y1="77.2275" y2="77.2275"/><text fill="#000000" font-family="sans-serif" font-size="14" lengthAdjust="spacing" textLength="704.0127" x="13" y="94.2226">_typ : Literal[&lt;ComTyp.TAGESPARAMETER: 'TAGESPARAMETER'&gt;] [1] = ComTyp.TAGESPARAMETER</text><text fill="#000000" font-family="sans-serif" font-size="14" lengthAdjust="spacing" textLength="202.9043" x="13" y="110.5195">klimazone : str [0..1] = None</text><text fill="#000000" font-family="sans-serif" font-size="14" lengthAdjust="spacing" textLength="285.7217" x="13" y="126.8164">temperaturmessstelle : str [0..1] = None</text><text fill="#000000" font-family="sans-serif" font-size="14" lengthAdjust="spacing" textLength="233.1465" x="13" y="143.1132">dienstanbieter : str [0..1] = None</text><text fill="#000000" font-family="sans-serif" font-size="14" lengthAdjust="spacing" textLength="220.1445" x="13" y="159.4101">herausgeber : str [0..1] = None</text></g><!--link Tagesparameter to COM--><g class="link" data-entity-1="Tagesparameter" data-entity-2="COM" data-source-line="15" data-uid="lnk6" id="link_Tagesparameter_COM"><path codeLine="15" d="M723.29,103 C745.59,103 747.83,103 764.76,103" fill="none" id="Tagesparameter-to-COM" style="stroke:#181818;stroke-width:1;"/><polygon fill="none" points="782.76,103,764.76,97,764.76,109,782.76,103" style="stroke:#181818;stroke-width:1;"/></g><!--SRC=[hP9DQy9048RFxgyOzE39H45A2LP89VHIQx6vfQ5iaZ6xT3SRiYD5s_xtRb8K53srXpcyopFlpfV23G4PQ6Gf20hPO4xIL8pbYbiB_IGHHBKDV3ypK_HAIMARUTBuzwjfDAft94pbAqveoUUr_ALoepr1MWsEYdY9jkODrqZOUF69X5EPfg_LpCez1fFn_8f37xWzIuDFrdkZNGq1F4gdkKfc2wFZNUt5uKFqyXokmsKKH-i0XgSFmtaAoII5ExZ8izwxafhlJONEsr83oTZpElx9lR4UeQxTVxHjD5fh2PMwGXOIAqkyocHNyKL6EAkjBJ6x0dmpLhcENUCv_d4_S51fsWtq864GZSFRcqKxql-zWpOMgoMukBnc5rqf3cWxFR-KqUXhVYopTM9Co091etRpiimAym7dIHk9gh0_]--></g></svg>