<?xml version="1.0" encoding="us-ascii" standalone="no"?><svg xmlns="http://www.w3.org/2000/svg" xmlns:xlink="http://www.w3.org/1999/xlink" contentStyleType="text/css" height="282px" preserveAspectRatio="none" style="width:702px;height:282px;background:#FFFFFF;" version="1.1" viewBox="0 0 702 282" width="702px" zoomAndPan="magnify"><defs/><g><!--cluster bo4e--><g id="cluster_bo4e"><path d="M488.5,6 L529.5,6 A3.75,3.75 0 0 1 532,8.5 L539,28.2969 L692.5,28.2969 A2.5,2.5 0 0 1 695,30.7969 L695,272.5 A2.5,2.5 0 0 1 692.5,275 L488.5,275 A2.5,2.5 0 0 1 486,272.5 L486,8.5 A2.5,2.5 0 0 1 488.5,6 " fill="none" style="stroke:#000000;stroke-width:1.5;"/><line style="stroke:#000000;stroke-width:1.5;" x1="486" x2="539" y1="28.2969" y2="28.2969"/><text fill="#000000" font-family="sans-serif" font-size="14" font-weight="bold" lengthAdjust="spacing" textLength="40" x="490" y="20.9951">bo4e</text></g><!--cluster com--><g id="cluster_com"><path d="M524,49 L603,49 A3.75,3.75 0 0 1 605.5,51.5 L612.5,71.2969 L657,71.2969 A2.5,2.5 0 0 1 659.5,73.7969 L659.5,135.5 A2.5,2.5 0 0 1 657,138 L524,138 A2.5,2.5 0 0 1 521.5,135.5 L521.5,51.5 A2.5,2.5 0 0 1 524,49 " fill="#E0A86C" style="stroke:#000000;stroke-width:1.5;"/><line style="stroke:#000000;stroke-width:1.5;" x1="521.5" x2="612.5" y1="71.2969" y2="71.2969"/><a href="https://bo4e.github.io/BO4E-python/latest/api/bo4e.com.html" target="_top" title="https://bo4e.github.io/BO4E-python/latest/api/bo4e.com.html" xlink:actuate="onRequest" xlink:href="https://bo4e.github.io/BO4E-python/latest/api/bo4e.com.html" xlink:show="new" xlink:title="https://bo4e.github.io/BO4E-python/latest/api/bo4e.com.html" xlink:type="simple"><text fill="#0000FF" font-family="sans-serif" font-size="14" font-weight="bold" lengthAdjust="spacing" text-decoration="underline" textLength="78" x="525.5" y="63.9951">bo4e.com</text></a></g><!--cluster enum--><g id="cluster_enum"><path d="M512.5,162 L602.5,162 A3.75,3.75 0 0 1 605,164.5 L612,184.2969 L668.5,184.2969 A2.5,2.5 0 0 1 671,186.7969 L671,248.5 A2.5,2.5 0 0 1 668.5,251 L512.5,251 A2.5,2.5 0 0 1 510,248.5 L510,164.5 A2.5,2.5 0 0 1 512.5,162 " fill="#D1C358" style="stroke:#000000;stroke-width:1.5;"/><line style="stroke:#000000;stroke-width:1.5;" x1="510" x2="612" y1="184.2969" y2="184.2969"/><a href="https://bo4e.github.io/BO4E-python/latest/api/bo4e.enum.html" target="_top" title="https://bo4e.github.io/BO4E-python/latest/api/bo4e.enum.html" xlink:actuate="onRequest" xlink:href="https://bo4e.github.io/BO4E-python/latest/api/bo4e.enum.html" xlink:show="new" xlink:title="https://bo4e.github.io/BO4E-python/latest/api/bo4e.enum.html" xlink:type="simple"><text fill="#0000FF" font-family="sans-serif" font-size="14" font-weight="bold" lengthAdjust="spacing" text-decoration="underline" textLength="89" x="514" y="176.9951">bo4e.enum</text></a></g><!--class Preis--><g id="elem_Preis"><rect codeLine="11" fill="#F1F1F1" height="37.9375" id="Preis" rx="2.5" ry="2.5" style="stroke:#181818;stroke-width:0.5;" width="106" x="537.5" y="84.03"/><ellipse cx="552.5" cy="102.9988" fill="#ADD1B2" rx="11" ry="11" style="stroke:#181818;stroke-width:1.0;"/><path d="M555.4688,108.6394 Q554.8906,108.9363 554.25,109.0769 Q553.6094,109.2331 552.9063,109.2331 Q550.4063,109.2331 549.0781,107.5925 Q547.7656,105.9363 547.7656,102.8113 Q547.7656,99.6863 549.0781,98.03 Q550.4063,96.3738 552.9063,96.3738 Q553.6094,96.3738 554.25,96.53 Q554.9063,96.6863 555.4688,96.9831 L555.4688,99.7019 Q554.8438,99.1238 554.25,98.8581 Q553.6563,98.5769 553.0313,98.5769 Q551.6875,98.5769 551,99.655 Q550.3125,100.7175 550.3125,102.8113 Q550.3125,104.905 551,105.9831 Q551.6875,107.0456 553.0313,107.0456 Q553.6563,107.0456 554.25,106.78 Q554.8438,106.4988 555.4688,105.9206 L555.4688,108.6394 Z " fill="#000000"/><a href="https://bo4e.github.io/BO4E-python/latest/api/bo4e.com.html#bo4e.com.preis.Preis" target="_top" title="https://bo4e.github.io/BO4E-python/latest/api/bo4e.com.html#bo4e.com.preis.Preis" xlink:actuate="onRequest" xlink:href="https://bo4e.github.io/BO4E-python/latest/api/bo4e.com.html#bo4e.com.preis.Preis" xlink:show="new" xlink:title="https://bo4e.github.io/BO4E-python/latest/api/bo4e.com.html#bo4e.com.preis.Preis" xlink:type="simple"><text fill="#0000FF" font-family="sans-serif" font-size="14" lengthAdjust="spacing" text-decoration="underline" textLength="34" x="586.5" y="102.0251">Preis</text></a><text fill="#000000" font-family="sans-serif" font-size="10" lengthAdjust="spacing" textLength="74" x="566.5" y="114.6091">bo4e.com.preis</text></g><!--class Preistyp--><g id="elem_Preistyp"><rect codeLine="14" fill="#F1F1F1" height="37.9375" id="Preistyp" rx="2.5" ry="2.5" style="stroke:#181818;stroke-width:0.5;" width="129" x="526" y="197.03"/><ellipse cx="541" cy="215.9988" fill="#ADD1B2" rx="11" ry="11" style="stroke:#181818;stroke-width:1.0;"/><path d="M543.9688,221.6394 Q543.3906,221.9363 542.75,222.0769 Q542.1094,222.2331 541.4063,222.2331 Q538.9063,222.2331 537.5781,220.5925 Q536.2656,218.9363 536.2656,215.8113 Q536.2656,212.6863 537.5781,211.03 Q538.9063,209.3738 541.4063,209.3738 Q542.1094,209.3738 542.75,209.53 Q543.4063,209.6863 543.9688,209.9831 L543.9688,212.7019 Q543.3438,212.1238 542.75,211.8581 Q542.1563,211.5769 541.5313,211.5769 Q540.1875,211.5769 539.5,212.655 Q538.8125,213.7175 538.8125,215.8113 Q538.8125,217.905 539.5,218.9831 Q540.1875,220.0456 541.5313,220.0456 Q542.1563,220.0456 542.75,219.78 Q543.3438,219.4988 543.9688,218.9206 L543.9688,221.6394 Z " fill="#000000"/><a href="https://bo4e.github.io/BO4E-python/latest/api/bo4e.enum.html#bo4e.enum.preistyp.Preistyp" target="_top" title="https://bo4e.github.io/BO4E-python/latest/api/bo4e.enum.html#bo4e.enum.preistyp.Preistyp" xlink:actuate="onRequest" xlink:href="https://bo4e.github.io/BO4E-python/latest/api/bo4e.enum.html#bo4e.enum.preistyp.Preistyp" xlink:show="new" xlink:title="https://bo4e.github.io/BO4E-python/latest/api/bo4e.enum.html#bo4e.enum.preistyp.Preistyp" xlink:type="simple"><text fill="#0000FF" font-family="sans-serif" font-size="14" lengthAdjust="spacing" text-decoration="underline" textLength="55" x="576" y="215.0251">Preistyp</text></a><text fill="#000000" font-family="sans-serif" font-size="10" lengthAdjust="spacing" textLength="97" x="555" y="227.6091">bo4e.enum.preistyp</text></g><!--class Tarifpreis--><g id="elem_Tarifpreis"><rect codeLine="3" fill="#F1F1F1" height="111.125" id="Tarifpreis" rx="2.5" ry="2.5" style="stroke:#181818;stroke-width:0.5;" width="380" x="7" y="104.44"/><ellipse cx="145.75" cy="123.4088" fill="#ADD1B2" rx="11" ry="11" style="stroke:#181818;stroke-width:1.0;"/><path d="M148.7188,129.0494 Q148.1406,129.3463 147.5,129.4869 Q146.8594,129.6431 146.1563,129.6431 Q143.6563,129.6431 142.3281,128.0025 Q141.0156,126.3463 141.0156,123.2213 Q141.0156,120.0963 142.3281,118.44 Q143.6563,116.7838 146.1563,116.7838 Q146.8594,116.7838 147.5,116.94 Q148.1563,117.0963 148.7188,117.3931 L148.7188,120.1119 Q148.0938,119.5338 147.5,119.2681 Q146.9063,118.9869 146.2813,118.9869 Q144.9375,118.9869 144.25,120.065 Q143.5625,121.1275 143.5625,123.2213 Q143.5625,125.315 144.25,126.3931 Q144.9375,127.4556 146.2813,127.4556 Q146.9063,127.4556 147.5,127.19 Q148.0938,126.9088 148.7188,126.3306 L148.7188,129.0494 Z " fill="#000000"/><a href="https://bo4e.github.io/BO4E-python/latest/api/bo4e.com.html#bo4e.com.tarifpreis.Tarifpreis" target="_top" title="https://bo4e.github.io/BO4E-python/latest/api/bo4e.com.html#bo4e.com.tarifpreis.Tarifpreis" xlink:actuate="onRequest" xlink:href="https://bo4e.github.io/BO4E-python/latest/api/bo4e.com.html#bo4e.com.tarifpreis.Tarifpreis" xlink:show="new" xlink:title="https://bo4e.github.io/BO4E-python/latest/api/bo4e.com.html#bo4e.com.tarifpreis.Tarifpreis" xlink:type="simple"><text fill="#0000FF" font-family="sans-serif" font-size="14" lengthAdjust="spacing" text-decoration="underline" textLength="63" x="181.75" y="122.4351">Tarifpreis</text></a><text fill="#000000" font-family="sans-serif" font-size="10" lengthAdjust="spacing" textLength="94" x="166.25" y="135.0191">bo4e.com.tarifpreis</text><line style="stroke:#181818;stroke-width:0.5;" x1="8" x2="386" y1="142.3775" y2="142.3775"/><text fill="#000000" font-family="sans-serif" font-size="14" lengthAdjust="spacing" textLength="368" x="13" y="159.3726">_version : str [0..1] = 202401.4.1.dev58+g402111b5</text><text fill="#000000" font-family="sans-serif" font-size="14" lengthAdjust="spacing" textLength="147" x="13" y="175.6695">_id : str [0..1] = None</text><text fill="#000000" font-family="sans-serif" font-size="14" lengthAdjust="spacing" textLength="311" x="13" y="191.9664">zusatzAttribute : ZusatzAttribut [0..*] = None</text><text fill="#000000" font-family="sans-serif" font-size="14" lengthAdjust="spacing" textLength="224" x="13" y="208.2632">beschreibung : str [0..1] = None</text></g><!--link Tarifpreis to Preis--><g id="link_Tarifpreis_Preis"><path codeLine="17" d="M387.44,132.42 C442.48,124.4 480.3778,118.8836 519.3178,113.2136 " fill="none" id="Tarifpreis-to-Preis" style="stroke:#181818;stroke-width:1.0;"/><polygon fill="none" points="537.13,110.62,518.4533,107.2762,520.1824,119.151,537.13,110.62" style="stroke:#181818;stroke-width:1.0;"/></g><!--link Tarifpreis to Preistyp--><g id="link_Tarifpreis_Preistyp"><path codeLine="18" d="M387.44,187.1 C437.41,194.24 476.0409,199.7708 514.0709,205.2108 " fill="none" id="Tarifpreis-to-Preistyp" style="stroke:#181818;stroke-width:1.0;"/><polygon fill="#181818" points="525.95,206.91,520.5769,202.1007,514.0709,205.2108,519.444,210.0201,525.95,206.91" style="stroke:#181818;stroke-width:1.0;"/><text fill="#000000" font-family="sans-serif" font-size="13" lengthAdjust="spacing" textLength="51" x="418" y="188.0669">preistyp</text><text fill="#000000" font-family="sans-serif" font-size="13" lengthAdjust="spacing" textLength="24" x="494.0558" y="218.8199">0..1</text></g><!--SRC=[hL9DJy9043splsBItZ1iMoo6D4g2Xgjoy2GsfXz3kqc_qfrYGFtlRalwWU89R_FQDxFptfi4jmIKGocYc20K9GOayeon8F6a16spYOaAwHY6dzl88q5nvNEH6_TFzcfIx2dECoFn22KPNY6Eh21FUKnfedU8l59iYnA5vCzT2Ntfkg_PhHG7T2npSQPB0sz8XmysUjjXATMgu82a4ZOcvvOBTp0rfxPfSPjRFCJTR7uLsURKiYn_fdf4-9F-c6V8HeTAUdHO4fN2hmWLwUNaIyCVztmVPH2hJVmgYyvE_68iyrAKXHVWXIv2YrotiQ65eA_CvVpceJRZVzCw1hLkd5x_7K-VJ4DIcY-LZ5arr5p3eUWQWnvQmVLiVgdgxYczXuqWsXT7wQg0jlXjm4b3Ru82TVR3AvzCFXTTQCVH9_yLOGnQVJrQBxDVmO7s5SPY4IAacFhgz9cCytSO3jeAJ4Bv3G00]--></g></svg>