<?xml version="1.0" encoding="us-ascii" standalone="no"?><svg xmlns="http://www.w3.org/2000/svg" xmlns:xlink="http://www.w3.org/1999/xlink" contentStyleType="text/css" height="501px" preserveAspectRatio="none" style="width:1498px;height:501px;background:#FFFFFF;" version="1.1" viewBox="0 0 1498 501" width="1498px" zoomAndPan="magnify"><defs/><g><!--cluster bo4e--><g id="cluster_bo4e"><path d="M1204.5,6 L1245.5,6 A3.75,3.75 0 0 1 1248,8.5 L1255,28.2969 L1488.5,28.2969 A2.5,2.5 0 0 1 1491,30.7969 L1491,491.5 A2.5,2.5 0 0 1 1488.5,494 L1204.5,494 A2.5,2.5 0 0 1 1202,491.5 L1202,8.5 A2.5,2.5 0 0 1 1204.5,6 " fill="none" style="stroke:#000000;stroke-width:1.5;"/><line style="stroke:#000000;stroke-width:1.5;" x1="1202" x2="1255" y1="28.2969" y2="28.2969"/><text fill="#000000" font-family="sans-serif" font-size="14" font-weight="bold" lengthAdjust="spacing" textLength="40" x="1206" y="20.9951">bo4e</text></g><!--cluster com--><g id="cluster_com"><path d="M1270,49 L1349,49 A3.75,3.75 0 0 1 1351.5,51.5 L1358.5,71.2969 L1423,71.2969 A2.5,2.5 0 0 1 1425.5,73.7969 L1425.5,281.5 A2.5,2.5 0 0 1 1423,284 L1270,284 A2.5,2.5 0 0 1 1267.5,281.5 L1267.5,51.5 A2.5,2.5 0 0 1 1270,49 " fill="#E0A86C" style="stroke:#000000;stroke-width:1.5;"/><line style="stroke:#000000;stroke-width:1.5;" x1="1267.5" x2="1358.5" y1="71.2969" y2="71.2969"/><a href="https://bo4e.github.io/BO4E-python/latest/api/bo4e.com.html" target="_top" title="https://bo4e.github.io/BO4E-python/latest/api/bo4e.com.html" xlink:actuate="onRequest" xlink:href="https://bo4e.github.io/BO4E-python/latest/api/bo4e.com.html" xlink:show="new" xlink:title="https://bo4e.github.io/BO4E-python/latest/api/bo4e.com.html" xlink:type="simple"><text fill="#0000FF" font-family="sans-serif" font-size="14" font-weight="bold" lengthAdjust="spacing" text-decoration="underline" textLength="78" x="1271.5" y="63.9951">bo4e.com</text></a></g><!--cluster enum--><g id="cluster_enum"><path d="M1228.5,308 L1318.5,308 A3.75,3.75 0 0 1 1321,310.5 L1328,330.2969 L1464.5,330.2969 A2.5,2.5 0 0 1 1467,332.7969 L1467,467.5 A2.5,2.5 0 0 1 1464.5,470 L1228.5,470 A2.5,2.5 0 0 1 1226,467.5 L1226,310.5 A2.5,2.5 0 0 1 1228.5,308 " fill="#D1C358" style="stroke:#000000;stroke-width:1.5;"/><line style="stroke:#000000;stroke-width:1.5;" x1="1226" x2="1328" y1="330.2969" y2="330.2969"/><a href="https://bo4e.github.io/BO4E-python/latest/api/bo4e.enum.html" target="_top" title="https://bo4e.github.io/BO4E-python/latest/api/bo4e.enum.html" xlink:actuate="onRequest" xlink:href="https://bo4e.github.io/BO4E-python/latest/api/bo4e.enum.html" xlink:show="new" xlink:title="https://bo4e.github.io/BO4E-python/latest/api/bo4e.enum.html" xlink:type="simple"><text fill="#0000FF" font-family="sans-serif" font-size="14" font-weight="bold" lengthAdjust="spacing" text-decoration="underline" textLength="89" x="1230" y="322.9951">bo4e.enum</text></a></g><!--class Tarifpreis--><g id="elem_Tarifpreis"><rect codeLine="12" fill="#F1F1F1" height="37.9375" id="Tarifpreis" rx="2.5" ry="2.5" style="stroke:#181818;stroke-width:0.5;" width="126" x="1283.5" y="84.03"/><ellipse cx="1298.5" cy="102.9987" fill="#ADD1B2" rx="11" ry="11" style="stroke:#181818;stroke-width:1.0;"/><path d="M1301.4688,108.6394 Q1300.8906,108.9362 1300.25,109.0769 Q1299.6094,109.2331 1298.9063,109.2331 Q1296.4063,109.2331 1295.0781,107.5925 Q1293.7656,105.9362 1293.7656,102.8112 Q1293.7656,99.6862 1295.0781,98.03 Q1296.4063,96.3737 1298.9063,96.3737 Q1299.6094,96.3737 1300.25,96.53 Q1300.9063,96.6862 1301.4688,96.9831 L1301.4688,99.7019 Q1300.8438,99.1237 1300.25,98.8581 Q1299.6563,98.5769 1299.0313,98.5769 Q1297.6875,98.5769 1297,99.655 Q1296.3125,100.7175 1296.3125,102.8112 Q1296.3125,104.905 1297,105.9831 Q1297.6875,107.0456 1299.0313,107.0456 Q1299.6563,107.0456 1300.25,106.78 Q1300.8438,106.4987 1301.4688,105.9206 L1301.4688,108.6394 Z " fill="#000000"/><a href="https://bo4e.github.io/BO4E-python/latest/api/bo4e.com.html#bo4e.com.tarifpreis.Tarifpreis" target="_top" title="https://bo4e.github.io/BO4E-python/latest/api/bo4e.com.html#bo4e.com.tarifpreis.Tarifpreis" xlink:actuate="onRequest" xlink:href="https://bo4e.github.io/BO4E-python/latest/api/bo4e.com.html#bo4e.com.tarifpreis.Tarifpreis" xlink:show="new" xlink:title="https://bo4e.github.io/BO4E-python/latest/api/bo4e.com.html#bo4e.com.tarifpreis.Tarifpreis" xlink:type="simple"><text fill="#0000FF" font-family="sans-serif" font-size="14" lengthAdjust="spacing" text-decoration="underline" textLength="63" x="1328" y="102.0251">Tarifpreis</text></a><text fill="#000000" font-family="sans-serif" font-size="10" lengthAdjust="spacing" textLength="94" x="1312.5" y="114.6091">bo4e.com.tarifpreis</text></g><!--class COM--><g id="elem_COM"><rect codeLine="13" fill="#F1F1F1" height="37.9375" id="COM" rx="2.5" ry="2.5" style="stroke:#181818;stroke-width:0.5;" width="104" x="1294.5" y="157.03"/><ellipse cx="1309.5" cy="175.9987" fill="#ADD1B2" rx="11" ry="11" style="stroke:#181818;stroke-width:1.0;"/><path d="M1312.4688,181.6394 Q1311.8906,181.9362 1311.25,182.0769 Q1310.6094,182.2331 1309.9063,182.2331 Q1307.4063,182.2331 1306.0781,180.5925 Q1304.7656,178.9362 1304.7656,175.8112 Q1304.7656,172.6862 1306.0781,171.03 Q1307.4063,169.3737 1309.9063,169.3737 Q1310.6094,169.3737 1311.25,169.53 Q1311.9063,169.6862 1312.4688,169.9831 L1312.4688,172.7019 Q1311.8438,172.1237 1311.25,171.8581 Q1310.6563,171.5769 1310.0313,171.5769 Q1308.6875,171.5769 1308,172.655 Q1307.3125,173.7175 1307.3125,175.8112 Q1307.3125,177.905 1308,178.9831 Q1308.6875,180.0456 1310.0313,180.0456 Q1310.6563,180.0456 1311.25,179.78 Q1311.8438,179.4987 1312.4688,178.9206 L1312.4688,181.6394 Z " fill="#000000"/><a href="https://bo4e.github.io/BO4E-python/latest/api/bo4e.com.html#bo4e.com.com.COM" target="_top" title="https://bo4e.github.io/BO4E-python/latest/api/bo4e.com.html#bo4e.com.com.COM" xlink:actuate="onRequest" xlink:href="https://bo4e.github.io/BO4E-python/latest/api/bo4e.com.html#bo4e.com.com.COM" xlink:show="new" xlink:title="https://bo4e.github.io/BO4E-python/latest/api/bo4e.com.html#bo4e.com.com.COM" xlink:type="simple"><text fill="#0000FF" font-family="sans-serif" font-size="14" lengthAdjust="spacing" text-decoration="underline" textLength="33" x="1343" y="175.0251">COM</text></a><text fill="#000000" font-family="sans-serif" font-size="10" lengthAdjust="spacing" textLength="72" x="1323.5" y="187.6091">bo4e.com.com</text></g><!--class Preis--><g id="elem_Preis"><rect codeLine="14" fill="#F1F1F1" height="37.9375" id="Preis" rx="2.5" ry="2.5" style="stroke:#181818;stroke-width:0.5;" width="106" x="1293.5" y="230.03"/><ellipse cx="1308.5" cy="248.9987" fill="#ADD1B2" rx="11" ry="11" style="stroke:#181818;stroke-width:1.0;"/><path d="M1311.4688,254.6394 Q1310.8906,254.9362 1310.25,255.0769 Q1309.6094,255.2331 1308.9063,255.2331 Q1306.4063,255.2331 1305.0781,253.5925 Q1303.7656,251.9362 1303.7656,248.8112 Q1303.7656,245.6862 1305.0781,244.03 Q1306.4063,242.3737 1308.9063,242.3737 Q1309.6094,242.3737 1310.25,242.53 Q1310.9063,242.6862 1311.4688,242.9831 L1311.4688,245.7019 Q1310.8438,245.1237 1310.25,244.8581 Q1309.6563,244.5769 1309.0313,244.5769 Q1307.6875,244.5769 1307,245.655 Q1306.3125,246.7175 1306.3125,248.8112 Q1306.3125,250.905 1307,251.9831 Q1307.6875,253.0456 1309.0313,253.0456 Q1309.6563,253.0456 1310.25,252.78 Q1310.8438,252.4987 1311.4688,251.9206 L1311.4688,254.6394 Z " fill="#000000"/><a href="https://bo4e.github.io/BO4E-python/latest/api/bo4e.com.html#bo4e.com.preis.Preis" target="_top" title="https://bo4e.github.io/BO4E-python/latest/api/bo4e.com.html#bo4e.com.preis.Preis" xlink:actuate="onRequest" xlink:href="https://bo4e.github.io/BO4E-python/latest/api/bo4e.com.html#bo4e.com.preis.Preis" xlink:show="new" xlink:title="https://bo4e.github.io/BO4E-python/latest/api/bo4e.com.html#bo4e.com.preis.Preis" xlink:type="simple"><text fill="#0000FF" font-family="sans-serif" font-size="14" lengthAdjust="spacing" text-decoration="underline" textLength="34" x="1342.5" y="248.0251">Preis</text></a><text fill="#000000" font-family="sans-serif" font-size="10" lengthAdjust="spacing" textLength="74" x="1322.5" y="260.6091">bo4e.com.preis</text></g><!--class Messpreistyp--><g id="elem_Messpreistyp"><rect codeLine="17" fill="#F1F1F1" height="37.9375" id="Messpreistyp" rx="2.5" ry="2.5" style="stroke:#181818;stroke-width:0.5;" width="155" x="1269" y="343.03"/><ellipse cx="1284" cy="361.9988" fill="#ADD1B2" rx="11" ry="11" style="stroke:#181818;stroke-width:1.0;"/><path d="M1286.9688,367.6394 Q1286.3906,367.9363 1285.75,368.0769 Q1285.1094,368.2331 1284.4063,368.2331 Q1281.9063,368.2331 1280.5781,366.5925 Q1279.2656,364.9363 1279.2656,361.8113 Q1279.2656,358.6863 1280.5781,357.03 Q1281.9063,355.3738 1284.4063,355.3738 Q1285.1094,355.3738 1285.75,355.53 Q1286.4063,355.6863 1286.9688,355.9831 L1286.9688,358.7019 Q1286.3438,358.1238 1285.75,357.8581 Q1285.1563,357.5769 1284.5313,357.5769 Q1283.1875,357.5769 1282.5,358.655 Q1281.8125,359.7175 1281.8125,361.8113 Q1281.8125,363.905 1282.5,364.9831 Q1283.1875,366.0456 1284.5313,366.0456 Q1285.1563,366.0456 1285.75,365.78 Q1286.3438,365.4988 1286.9688,364.9206 L1286.9688,367.6394 Z " fill="#000000"/><a href="https://bo4e.github.io/BO4E-python/latest/api/bo4e.enum.html#bo4e.enum.messpreistyp.Messpreistyp" target="_top" title="https://bo4e.github.io/BO4E-python/latest/api/bo4e.enum.html#bo4e.enum.messpreistyp.Messpreistyp" xlink:actuate="onRequest" xlink:href="https://bo4e.github.io/BO4E-python/latest/api/bo4e.enum.html#bo4e.enum.messpreistyp.Messpreistyp" xlink:show="new" xlink:title="https://bo4e.github.io/BO4E-python/latest/api/bo4e.enum.html#bo4e.enum.messpreistyp.Messpreistyp" xlink:type="simple"><text fill="#0000FF" font-family="sans-serif" font-size="14" lengthAdjust="spacing" text-decoration="underline" textLength="92" x="1313.5" y="361.0251">Messpreistyp</text></a><text fill="#000000" font-family="sans-serif" font-size="10" lengthAdjust="spacing" textLength="123" x="1298" y="373.6091">bo4e.enum.messpreistyp</text></g><!--class Tarifkalkulationsmethode--><g id="elem_Tarifkalkulationsmethode"><rect codeLine="18" fill="#F1F1F1" height="37.9375" id="Tarifkalkulationsmethode" rx="2.5" ry="2.5" style="stroke:#181818;stroke-width:0.5;" width="209" x="1242" y="416.03"/><ellipse cx="1257" cy="434.9988" fill="#ADD1B2" rx="11" ry="11" style="stroke:#181818;stroke-width:1.0;"/><path d="M1259.9688,440.6394 Q1259.3906,440.9363 1258.75,441.0769 Q1258.1094,441.2331 1257.4063,441.2331 Q1254.9063,441.2331 1253.5781,439.5925 Q1252.2656,437.9363 1252.2656,434.8113 Q1252.2656,431.6863 1253.5781,430.03 Q1254.9063,428.3738 1257.4063,428.3738 Q1258.1094,428.3738 1258.75,428.53 Q1259.4063,428.6863 1259.9688,428.9831 L1259.9688,431.7019 Q1259.3438,431.1238 1258.75,430.8581 Q1258.1563,430.5769 1257.5313,430.5769 Q1256.1875,430.5769 1255.5,431.655 Q1254.8125,432.7175 1254.8125,434.8113 Q1254.8125,436.905 1255.5,437.9831 Q1256.1875,439.0456 1257.5313,439.0456 Q1258.1563,439.0456 1258.75,438.78 Q1259.3438,438.4988 1259.9688,437.9206 L1259.9688,440.6394 Z " fill="#000000"/><a href="https://bo4e.github.io/BO4E-python/latest/api/bo4e.enum.html#bo4e.enum.tarifkalkulationsmethode.Tarifkalkulationsmethode" target="_top" title="https://bo4e.github.io/BO4E-python/latest/api/bo4e.enum.html#bo4e.enum.tarifkalkulationsmethode.Tarifkalkulationsmethode" xlink:actuate="onRequest" xlink:href="https://bo4e.github.io/BO4E-python/latest/api/bo4e.enum.html#bo4e.enum.tarifkalkulationsmethode.Tarifkalkulationsmethode" xlink:show="new" xlink:title="https://bo4e.github.io/BO4E-python/latest/api/bo4e.enum.html#bo4e.enum.tarifkalkulationsmethode.Tarifkalkulationsmethode" xlink:type="simple"><text fill="#0000FF" font-family="sans-serif" font-size="14" lengthAdjust="spacing" text-decoration="underline" textLength="173" x="1273" y="434.0251">Tarifkalkulationsmethode</text></a><text fill="#000000" font-family="sans-serif" font-size="10" lengthAdjust="spacing" textLength="177" x="1271" y="446.6091">bo4e.enum.tarifkalkulationsmethode</text></g><!--class Tarifberechnungsparameter--><g id="elem_Tarifberechnungsparameter"><rect codeLine="3" fill="#F1F1F1" height="127.4219" id="Tarifberechnungsparameter" rx="2.5" ry="2.5" style="stroke:#181818;stroke-width:0.5;" width="1006" x="7" y="194.29"/><ellipse cx="409.25" cy="213.2588" fill="#ADD1B2" rx="11" ry="11" style="stroke:#181818;stroke-width:1.0;"/><path d="M412.2188,218.8994 Q411.6406,219.1963 411,219.3369 Q410.3594,219.4931 409.6563,219.4931 Q407.1563,219.4931 405.8281,217.8525 Q404.5156,216.1963 404.5156,213.0713 Q404.5156,209.9463 405.8281,208.29 Q407.1563,206.6338 409.6563,206.6338 Q410.3594,206.6338 411,206.79 Q411.6563,206.9463 412.2188,207.2431 L412.2188,209.9619 Q411.5938,209.3838 411,209.1181 Q410.4063,208.8369 409.7813,208.8369 Q408.4375,208.8369 407.75,209.915 Q407.0625,210.9775 407.0625,213.0713 Q407.0625,215.165 407.75,216.2431 Q408.4375,217.3056 409.7813,217.3056 Q410.4063,217.3056 411,217.04 Q411.5938,216.7588 412.2188,216.1806 L412.2188,218.8994 Z " fill="#000000"/><a href="https://bo4e.github.io/BO4E-python/latest/api/bo4e.com.html#bo4e.com.tarifberechnungsparameter.Tarifberechnungsparameter" target="_top" title="https://bo4e.github.io/BO4E-python/latest/api/bo4e.com.html#bo4e.com.tarifberechnungsparameter.Tarifberechnungsparameter" xlink:actuate="onRequest" xlink:href="https://bo4e.github.io/BO4E-python/latest/api/bo4e.com.html#bo4e.com.tarifberechnungsparameter.Tarifberechnungsparameter" xlink:show="new" xlink:title="https://bo4e.github.io/BO4E-python/latest/api/bo4e.com.html#bo4e.com.tarifberechnungsparameter.Tarifberechnungsparameter" xlink:type="simple"><text fill="#0000FF" font-family="sans-serif" font-size="14" lengthAdjust="spacing" text-decoration="underline" textLength="193" x="429.75" y="212.2851">Tarifberechnungsparameter</text></a><text fill="#000000" font-family="sans-serif" font-size="10" lengthAdjust="spacing" textLength="185" x="433.75" y="224.8691">bo4e.com.tarifberechnungsparameter</text><line style="stroke:#181818;stroke-width:0.5;" x1="8" x2="1012" y1="232.2275" y2="232.2275"/><text fill="#000000" font-family="sans-serif" font-size="14" lengthAdjust="spacing" textLength="994" x="13" y="249.2226">_typ : Literal[&lt;ComTyp.TARIFBERECHNUNGSPARAMETER: 'TARIFBERECHNUNGSPARAMETER'&gt;] [1] = ComTyp.TARIFBERECHNUNGSPARAMETER</text><text fill="#000000" font-family="sans-serif" font-size="14" lengthAdjust="spacing" textLength="382" x="13" y="265.5195">istMesspreisInGrundpreisEnthalten : bool [0..1] = None</text><text fill="#000000" font-family="sans-serif" font-size="14" lengthAdjust="spacing" textLength="367" x="13" y="281.8164">istMesspreisZuBeruecksichtigen : bool [0..1] = None</text><text fill="#000000" font-family="sans-serif" font-size="14" lengthAdjust="spacing" textLength="243" x="13" y="298.1132">kwInklusive : Decimal [0..1] = None</text><text fill="#000000" font-family="sans-serif" font-size="14" lengthAdjust="spacing" textLength="294" x="13" y="314.4101">kwWeitereMengen : Decimal [0..1] = None</text></g><!--link Tarifberechnungsparameter to COM--><g id="link_Tarifberechnungsparameter_COM"><path codeLine="21" d="M1013.29,208.64 C1128.23,197.35 1216.2763,188.7006 1276.3063,182.8006 " fill="none" id="Tarifberechnungsparameter-to-COM" style="stroke:#181818;stroke-width:1.0;"/><polygon fill="none" points="1294.22,181.04,1275.7194,176.8294,1276.8932,188.7719,1294.22,181.04" style="stroke:#181818;stroke-width:1.0;"/></g><!--link Tarifberechnungsparameter to Tarifkalkulationsmethode--><g id="link_Tarifberechnungsparameter_Tarifkalkulationsmethode"><path codeLine="22" d="M805.3,322.21 C882.6,338.91 965.91,356.77 1043,373 C1111.98,387.52 1178.1504,401.1001 1237.6404,413.1901 " fill="none" id="Tarifberechnungsparameter-to-Tarifkalkulationsmethode" style="stroke:#181818;stroke-width:1.0;"/><polygon fill="#181818" points="1249.4,415.58,1244.3168,410.4652,1237.6404,413.1901,1242.7236,418.3049,1249.4,415.58" style="stroke:#181818;stroke-width:1.0;"/><text fill="#000000" font-family="sans-serif" font-size="13" lengthAdjust="spacing" textLength="141" x="1044" y="369.0669">berechnungsmethode</text><text fill="#000000" font-family="sans-serif" font-size="13" lengthAdjust="spacing" textLength="24" x="1210.0578" y="408.8708">0..1</text></g><!--link Tarifberechnungsparameter to Messpreistyp--><g id="link_Tarifberechnungsparameter_Messpreistyp"><path codeLine="23" d="M963.6,322.19 C990.45,325.61 1017.07,328.91 1043,332 C1119.64,341.13 1195.4899,348.5265 1256.6899,354.1265 " fill="none" id="Tarifberechnungsparameter-to-Messpreistyp" style="stroke:#181818;stroke-width:1.0;"/><polygon fill="#181818" points="1268.64,355.22,1263.0295,350.6899,1256.6899,354.1265,1262.3005,358.6566,1268.64,355.22" style="stroke:#181818;stroke-width:1.0;"/><text fill="#000000" font-family="sans-serif" font-size="13" lengthAdjust="spacing" textLength="86" x="1071.5" y="328.0669">messpreistyp</text><text fill="#000000" font-family="sans-serif" font-size="13" lengthAdjust="spacing" textLength="24" x="1236.9177" y="367.3546">0..1</text></g><!--link Tarifberechnungsparameter to Preis--><g id="link_Tarifberechnungsparameter_Preis"><path codeLine="24" d="M1013.23,238.51 C1071.48,238.06 1130.05,238.42 1186,240 C1221.76,241.01 1250.015,242.5161 1281.115,244.5261 " fill="none" id="Tarifberechnungsparameter-to-Preis" style="stroke:#181818;stroke-width:1.0;"/><polygon fill="#181818" points="1293.09,245.3,1287.3605,240.9214,1281.115,244.5261,1286.8445,248.9047,1293.09,245.3" style="stroke:#181818;stroke-width:1.0;"/><text fill="#000000" font-family="sans-serif" font-size="13" lengthAdjust="spacing" textLength="99" x="1065" y="235.0669">hoechstpreisNT</text><text fill="#000000" font-family="sans-serif" font-size="13" lengthAdjust="spacing" textLength="24" x="1261.527" y="257.8141">0..1</text></g><!--link Tarifberechnungsparameter to Preis--><g id="link_Tarifberechnungsparameter_Preis"><path codeLine="25" d="M1013.35,269.91 C1071.59,269.31 1130.11,267.8 1186,265 C1221.86,263.21 1250.1588,260.5332 1281.2388,256.9532 " fill="none" id="Tarifberechnungsparameter-to-Preis-1" style="stroke:#181818;stroke-width:1.0;"/><polygon fill="#181818" points="1293.16,255.58,1286.7417,252.2929,1281.2388,256.9532,1287.6571,260.2403,1293.16,255.58" style="stroke:#181818;stroke-width:1.0;"/><text fill="#000000" font-family="sans-serif" font-size="13" lengthAdjust="spacing" textLength="99" x="1065" y="261.0669">hoechstpreisHT</text><text fill="#000000" font-family="sans-serif" font-size="13" lengthAdjust="spacing" textLength="24" x="1261.6051" y="269.2827">0..1</text></g><!--link Tarifberechnungsparameter to Preis--><g id="link_Tarifberechnungsparameter_Preis"><path codeLine="26" d="M1013.24,307.2 C1071.63,306.51 1130.22,302.88 1186,295 C1222.53,289.84 1251.0117,282.1225 1281.7517,271.9125 " fill="none" id="Tarifberechnungsparameter-to-Preis-2" style="stroke:#181818;stroke-width:1.0;"/><polygon fill="#181818" points="1293.14,268.13,1286.185,266.2252,1281.7517,271.9125,1288.7067,273.8173,1293.14,268.13" style="stroke:#181818;stroke-width:1.0;"/><text fill="#000000" font-family="sans-serif" font-size="13" lengthAdjust="spacing" textLength="83" x="1073" y="291.0669">mindestpreis</text><text fill="#000000" font-family="sans-serif" font-size="13" lengthAdjust="spacing" textLength="24" x="1280.9905" y="288.0393">0..1</text></g><!--link Tarifberechnungsparameter to Tarifpreis--><g id="link_Tarifberechnungsparameter_Tarifpreis"><path codeLine="27" d="M856.45,193.84 C1017.2,163.98 1180.8017,133.5911 1271.5317,116.7411 " fill="none" id="Tarifberechnungsparameter-to-Tarifpreis" style="stroke:#181818;stroke-width:1.0;"/><polygon fill="#181818" points="1283.33,114.55,1276.7005,111.7128,1271.5317,116.7411,1278.1612,119.5783,1283.33,114.55" style="stroke:#181818;stroke-width:1.0;"/><text fill="#000000" font-family="sans-serif" font-size="13" lengthAdjust="spacing" textLength="81" x="1074" y="129.0669">zusatzpreise</text><text fill="#000000" font-family="sans-serif" font-size="13" lengthAdjust="spacing" textLength="23" x="1252.6297" y="128.5884">0..*</text></g><!--SRC=[jLHHRzem47vkViK97YfL8e3MJLNK8G7BMgH14MEQD1PD9ZcmHM97iRCAjlxtEiuWgKheEjY39N-wk-_ETvyln8K29I1XIweWO0dwYWbkMNv8f8JQR4QLYgNJRCx59TfBfcWwjvbezkuktKQyLbJmPaWKIjKaCSkzV17PL4LXVOSKITXYZfgTyfGlPKmI4g72n9vMMQ3IuddV-RLa6tJQhSxBAMf0P3KP_BBEVgXr30vyOXgJS7RT5z5q7TlJxcJmiUTEtFxjwClevlEuE-aEtQaxSU2yqdRUyM3Mzk0zlCHYdJ6fXYXbd22J0twJf3mmTvShIaA5N1Sr5oA4MSks3UT8S7mQzotjOPAYlvBCfuejAuDMzmE-2bF9VgBs-80-YyWUfw-OTG67o7Eg_OuFbiLr_tGRVJnI9B15dcScjOLGTrlTgtVzR43_GOocURdwp1MAwm5z6NiXA0DFNLvs-dT3q6T_9VgO4hJ3gNFdNHcRXeohUr6qmJXfEHoh1kHfMGuPBEiXmr0FslwRjrV72cANgbx0QFkTz2QmXoK0PV2y6S-2JSdbcDFNQeIu8k4grTvwLqkznwW8C1Vp7WDK6IhUKvMWqFqUOxOI3YppHkDtP_UrCtaVSjRU5r3B5awj67_ry_I-ArYsvRoQ_idK7IWFzLLasVlo3-G05Jf0AiCpcfw4vlRVQIB60_n3yrSa5oMIqgPqO9DAeZO6eMLHfeSGOQJ9f2Mfk8S3v0k6OI0V0G00]--></g></svg>