<svg xmlns="http://www.w3.org/2000/svg" xmlns:xlink="http://www.w3.org/1999/xlink" contentStyleType="text/css" data-diagram-type="CLASS" height="501px" preserveAspectRatio="none" style="width:1521px;height:501px;background:#FFFFFF;" version="1.1" viewBox="0 0 1521 501" width="1521px" zoomAndPan="magnify"><defs/><g><!--cluster bo4e--><g class="cluster" data-entity="bo4e" data-source-line="12" data-uid="ent0005" id="cluster_bo4e"><path d="M1220.26,6 L1260.136,6 A3.75,3.75 0 0 1 1262.636,8.5 L1269.636,28.2969 L1512.49,28.2969 A2.5,2.5 0 0 1 1514.99,30.7969 L1514.99,491.5 A2.5,2.5 0 0 1 1512.49,494 L1220.26,494 A2.5,2.5 0 0 1 1217.76,491.5 L1217.76,8.5 A2.5,2.5 0 0 1 1220.26,6" fill="none" style="stroke:#000000;stroke-width:1.5;"/><line style="stroke:#000000;stroke-width:1.5;" x1="1217.76" x2="1269.636" y1="28.2969" y2="28.2969"/><text fill="#000000" font-family="sans-serif" font-size="14" font-weight="bold" lengthAdjust="spacing" textLength="38.876" x="1221.76" y="20.9951">bo4e</text></g><!--cluster com--><g class="cluster" data-entity="com" data-source-line="11" data-uid="ent0003" id="cluster_com"><path d="M1288,49 L1365.6992,49 A3.75,3.75 0 0 1 1368.1992,51.5 L1375.1992,71.2969 L1444.75,71.2969 A2.5,2.5 0 0 1 1447.25,73.7969 L1447.25,281.5 A2.5,2.5 0 0 1 1444.75,284 L1288,284 A2.5,2.5 0 0 1 1285.5,281.5 L1285.5,51.5 A2.5,2.5 0 0 1 1288,49" fill="#E0A86C" style="stroke:#000000;stroke-width:1.5;"/><line style="stroke:#000000;stroke-width:1.5;" x1="1285.5" x2="1375.1992" y1="71.2969" y2="71.2969"/><a href="file:////home/runner/work/BO4E-python/BO4E-python/docs/../.tox/docs/tmp/html/api/bo4e.com.html" target="_top" title="file:////home/runner/work/BO4E-python/BO4E-python/docs/../.tox/docs/tmp/html/api/bo4e.com.html" xlink:actuate="onRequest" xlink:href="file:////home/runner/work/BO4E-python/BO4E-python/docs/../.tox/docs/tmp/html/api/bo4e.com.html" xlink:show="new" xlink:title="file:////home/runner/work/BO4E-python/BO4E-python/docs/../.tox/docs/tmp/html/api/bo4e.com.html" xlink:type="simple"><text fill="#0000FF" font-family="sans-serif" font-size="14" font-weight="bold" lengthAdjust="spacing" text-decoration="underline" textLength="76.6992" x="1289.5" y="63.9951">bo4e.com</text></a></g><!--cluster enum--><g class="cluster" data-entity="enum" data-source-line="16" data-uid="ent0008" id="cluster_enum"><path d="M1244.26,308 L1333.4709,308 A3.75,3.75 0 0 1 1335.9709,310.5 L1342.9709,330.2969 L1488.49,330.2969 A2.5,2.5 0 0 1 1490.99,332.7969 L1490.99,467.5 A2.5,2.5 0 0 1 1488.49,470 L1244.26,470 A2.5,2.5 0 0 1 1241.76,467.5 L1241.76,310.5 A2.5,2.5 0 0 1 1244.26,308" fill="#D1C358" style="stroke:#000000;stroke-width:1.5;"/><line style="stroke:#000000;stroke-width:1.5;" x1="1241.76" x2="1342.9709" y1="330.2969" y2="330.2969"/><a href="file:////home/runner/work/BO4E-python/BO4E-python/docs/../.tox/docs/tmp/html/api/bo4e.enum.html" target="_top" title="file:////home/runner/work/BO4E-python/BO4E-python/docs/../.tox/docs/tmp/html/api/bo4e.enum.html" xlink:actuate="onRequest" xlink:href="file:////home/runner/work/BO4E-python/BO4E-python/docs/../.tox/docs/tmp/html/api/bo4e.enum.html" xlink:show="new" xlink:title="file:////home/runner/work/BO4E-python/BO4E-python/docs/../.tox/docs/tmp/html/api/bo4e.enum.html" xlink:type="simple"><text fill="#0000FF" font-family="sans-serif" font-size="14" font-weight="bold" lengthAdjust="spacing" text-decoration="underline" textLength="88.2109" x="1245.76" y="322.9951">bo4e.enum</text></a></g><!--class Preis--><g class="entity" data-entity="Preis" data-source-line="12" data-uid="ent0004" id="entity_Preis"><rect fill="#F1F1F1" height="37.9375" rx="2.5" ry="2.5" style="stroke:#181818;stroke-width:0.5;" width="109.2949" x="1311.73" y="84.03"/><ellipse cx="1326.73" cy="102.9987" fill="#ADD1B2" rx="11" ry="11" style="stroke:#181818;stroke-width:1;"/><path d="M1329.6988,108.6394 Q1329.1206,108.9362 1328.48,109.0769 Q1327.8394,109.2331 1327.1363,109.2331 Q1324.6363,109.2331 1323.3081,107.5925 Q1321.9956,105.9362 1321.9956,102.8112 Q1321.9956,99.6862 1323.3081,98.03 Q1324.6363,96.3737 1327.1363,96.3737 Q1327.8394,96.3737 1328.48,96.53 Q1329.1363,96.6862 1329.6988,96.9831 L1329.6988,99.7019 Q1329.0738,99.1237 1328.48,98.8581 Q1327.8863,98.5769 1327.2613,98.5769 Q1325.9175,98.5769 1325.23,99.655 Q1324.5425,100.7175 1324.5425,102.8112 Q1324.5425,104.905 1325.23,105.9831 Q1325.9175,107.0456 1327.2613,107.0456 Q1327.8863,107.0456 1328.48,106.78 Q1329.0738,106.4987 1329.6988,105.9206 L1329.6988,108.6394 Z " fill="#000000"/><a href="file:////home/runner/work/BO4E-python/BO4E-python/docs/../.tox/docs/tmp/html/api/bo4e.com.html#bo4e.com.preis.Preis" target="_top" title="file:////home/runner/work/BO4E-python/BO4E-python/docs/../.tox/docs/tmp/html/api/bo4e.com.html#bo4e.com.preis.Preis" xlink:actuate="onRequest" xlink:href="file:////home/runner/work/BO4E-python/BO4E-python/docs/../.tox/docs/tmp/html/api/bo4e.com.html#bo4e.com.preis.Preis" xlink:show="new" xlink:title="file:////home/runner/work/BO4E-python/BO4E-python/docs/../.tox/docs/tmp/html/api/bo4e.com.html#bo4e.com.preis.Preis" xlink:type="simple"><text fill="#0000FF" font-family="sans-serif" font-size="14" lengthAdjust="spacing" text-decoration="underline" textLength="33.9951" x="1362.3799" y="102.0251">Preis</text></a><text fill="#000000" font-family="sans-serif" font-size="10" lengthAdjust="spacing" textLength="77.2949" x="1340.73" y="114.6091">bo4e.com.preis</text></g><!--class Tarifpreis--><g class="entity" data-entity="Tarifpreis" data-source-line="13" data-uid="ent0006" id="entity_Tarifpreis"><rect fill="#F1F1F1" height="37.9375" rx="2.5" ry="2.5" style="stroke:#181818;stroke-width:0.5;" width="129.7539" x="1301.5" y="157.03"/><ellipse cx="1316.5" cy="175.9987" fill="#ADD1B2" rx="11" ry="11" style="stroke:#181818;stroke-width:1;"/><path d="M1319.4688,181.6394 Q1318.8906,181.9362 1318.25,182.0769 Q1317.6094,182.2331 1316.9063,182.2331 Q1314.4063,182.2331 1313.0781,180.5925 Q1311.7656,178.9362 1311.7656,175.8112 Q1311.7656,172.6862 1313.0781,171.03 Q1314.4063,169.3737 1316.9063,169.3737 Q1317.6094,169.3737 1318.25,169.53 Q1318.9063,169.6862 1319.4688,169.9831 L1319.4688,172.7019 Q1318.8438,172.1237 1318.25,171.8581 Q1317.6563,171.5769 1317.0313,171.5769 Q1315.6875,171.5769 1315,172.655 Q1314.3125,173.7175 1314.3125,175.8112 Q1314.3125,177.905 1315,178.9831 Q1315.6875,180.0456 1317.0313,180.0456 Q1317.6563,180.0456 1318.25,179.78 Q1318.8438,179.4987 1319.4688,178.9206 L1319.4688,181.6394 Z " fill="#000000"/><a href="file:////home/runner/work/BO4E-python/BO4E-python/docs/../.tox/docs/tmp/html/api/bo4e.com.html#bo4e.com.tarifpreis.Tarifpreis" target="_top" title="file:////home/runner/work/BO4E-python/BO4E-python/docs/../.tox/docs/tmp/html/api/bo4e.com.html#bo4e.com.tarifpreis.Tarifpreis" xlink:actuate="onRequest" xlink:href="file:////home/runner/work/BO4E-python/BO4E-python/docs/../.tox/docs/tmp/html/api/bo4e.com.html#bo4e.com.tarifpreis.Tarifpreis" xlink:show="new" xlink:title="file:////home/runner/work/BO4E-python/BO4E-python/docs/../.tox/docs/tmp/html/api/bo4e.com.html#bo4e.com.tarifpreis.Tarifpreis" xlink:type="simple"><text fill="#0000FF" font-family="sans-serif" font-size="14" lengthAdjust="spacing" text-decoration="underline" textLength="66.1445" x="1346.3047" y="175.0251">Tarifpreis</text></a><text fill="#000000" font-family="sans-serif" font-size="10" lengthAdjust="spacing" textLength="97.7539" x="1330.5" y="187.6091">bo4e.com.tarifpreis</text></g><!--class COM--><g class="entity" data-entity="COM" data-source-line="14" data-uid="ent0007" id="entity_COM"><rect fill="#F1F1F1" height="37.9375" rx="2.5" ry="2.5" style="stroke:#181818;stroke-width:0.5;" width="106.0527" x="1313.35" y="230.03"/><ellipse cx="1328.35" cy="248.9987" fill="#ADD1B2" rx="11" ry="11" style="stroke:#181818;stroke-width:1;"/><path d="M1331.3188,254.6394 Q1330.7406,254.9362 1330.1,255.0769 Q1329.4594,255.2331 1328.7563,255.2331 Q1326.2563,255.2331 1324.9281,253.5925 Q1323.6156,251.9362 1323.6156,248.8112 Q1323.6156,245.6862 1324.9281,244.03 Q1326.2563,242.3737 1328.7563,242.3737 Q1329.4594,242.3737 1330.1,242.53 Q1330.7563,242.6862 1331.3188,242.9831 L1331.3188,245.7019 Q1330.6938,245.1237 1330.1,244.8581 Q1329.5063,244.5769 1328.8813,244.5769 Q1327.5375,244.5769 1326.85,245.655 Q1326.1625,246.7175 1326.1625,248.8112 Q1326.1625,250.905 1326.85,251.9831 Q1327.5375,253.0456 1328.8813,253.0456 Q1329.5063,253.0456 1330.1,252.78 Q1330.6938,252.4987 1331.3188,251.9206 L1331.3188,254.6394 Z " fill="#000000"/><a href="file:////home/runner/work/BO4E-python/BO4E-python/docs/../.tox/docs/tmp/html/api/bo4e.com.html#bo4e.com.com.COM" target="_top" title="file:////home/runner/work/BO4E-python/BO4E-python/docs/../.tox/docs/tmp/html/api/bo4e.com.html#bo4e.com.com.COM" xlink:actuate="onRequest" xlink:href="file:////home/runner/work/BO4E-python/BO4E-python/docs/../.tox/docs/tmp/html/api/bo4e.com.html#bo4e.com.com.COM" xlink:show="new" xlink:title="file:////home/runner/work/BO4E-python/BO4E-python/docs/../.tox/docs/tmp/html/api/bo4e.com.html#bo4e.com.com.COM" xlink:type="simple"><text fill="#0000FF" font-family="sans-serif" font-size="14" lengthAdjust="spacing" text-decoration="underline" textLength="32.874" x="1362.9394" y="248.0251">COM</text></a><text fill="#000000" font-family="sans-serif" font-size="10" lengthAdjust="spacing" textLength="74.0527" x="1342.35" y="260.6091">bo4e.com.com</text></g><!--class Messpreistyp--><g class="entity" data-entity="Messpreistyp" data-source-line="17" data-uid="ent0009" id="entity_Messpreistyp"><rect fill="#F1F1F1" height="37.9375" rx="2.5" ry="2.5" style="stroke:#181818;stroke-width:0.5;" width="159.0068" x="1286.87" y="343.03"/><ellipse cx="1301.87" cy="361.9988" fill="#ADD1B2" rx="11" ry="11" style="stroke:#181818;stroke-width:1;"/><path d="M1304.8388,367.6394 Q1304.2606,367.9363 1303.62,368.0769 Q1302.9794,368.2331 1302.2763,368.2331 Q1299.7763,368.2331 1298.4481,366.5925 Q1297.1356,364.9363 1297.1356,361.8113 Q1297.1356,358.6863 1298.4481,357.03 Q1299.7763,355.3738 1302.2763,355.3738 Q1302.9794,355.3738 1303.62,355.53 Q1304.2763,355.6863 1304.8388,355.9831 L1304.8388,358.7019 Q1304.2138,358.1238 1303.62,357.8581 Q1303.0263,357.5769 1302.4013,357.5769 Q1301.0575,357.5769 1300.37,358.655 Q1299.6825,359.7175 1299.6825,361.8113 Q1299.6825,363.905 1300.37,364.9831 Q1301.0575,366.0456 1302.4013,366.0456 Q1303.0263,366.0456 1303.62,365.78 Q1304.2138,365.4988 1304.8388,364.9206 L1304.8388,367.6394 Z " fill="#000000"/><a href="file:////home/runner/work/BO4E-python/BO4E-python/docs/../.tox/docs/tmp/html/api/bo4e.enum.html#bo4e.enum.messpreistyp.Messpreistyp" target="_top" title="file:////home/runner/work/BO4E-python/BO4E-python/docs/../.tox/docs/tmp/html/api/bo4e.enum.html#bo4e.enum.messpreistyp.Messpreistyp" xlink:actuate="onRequest" xlink:href="file:////home/runner/work/BO4E-python/BO4E-python/docs/../.tox/docs/tmp/html/api/bo4e.enum.html#bo4e.enum.messpreistyp.Messpreistyp" xlink:show="new" xlink:title="file:////home/runner/work/BO4E-python/BO4E-python/docs/../.tox/docs/tmp/html/api/bo4e.enum.html#bo4e.enum.messpreistyp.Messpreistyp" xlink:type="simple"><text fill="#0000FF" font-family="sans-serif" font-size="14" lengthAdjust="spacing" text-decoration="underline" textLength="92.3809" x="1333.183" y="361.0251">Messpreistyp</text></a><text fill="#000000" font-family="sans-serif" font-size="10" lengthAdjust="spacing" textLength="127.0068" x="1315.87" y="373.6091">bo4e.enum.messpreistyp</text></g><!--class Tarifkalkulationsmethode--><g class="entity" data-entity="Tarifkalkulationsmethode" data-source-line="18" data-uid="ent0010" id="entity_Tarifkalkulationsmethode"><rect fill="#F1F1F1" height="37.9375" rx="2.5" ry="2.5" style="stroke:#181818;stroke-width:0.5;" width="217.2344" x="1257.76" y="416.03"/><ellipse cx="1272.76" cy="434.9988" fill="#ADD1B2" rx="11" ry="11" style="stroke:#181818;stroke-width:1;"/><path d="M1275.7288,440.6394 Q1275.1506,440.9363 1274.51,441.0769 Q1273.8694,441.2331 1273.1663,441.2331 Q1270.6663,441.2331 1269.3381,439.5925 Q1268.0256,437.9363 1268.0256,434.8113 Q1268.0256,431.6863 1269.3381,430.03 Q1270.6663,428.3738 1273.1663,428.3738 Q1273.8694,428.3738 1274.51,428.53 Q1275.1663,428.6863 1275.7288,428.9831 L1275.7288,431.7019 Q1275.1038,431.1238 1274.51,430.8581 Q1273.9163,430.5769 1273.2913,430.5769 Q1271.9475,430.5769 1271.26,431.655 Q1270.5725,432.7175 1270.5725,434.8113 Q1270.5725,436.905 1271.26,437.9831 Q1271.9475,439.0456 1273.2913,439.0456 Q1273.9163,439.0456 1274.51,438.78 Q1275.1038,438.4988 1275.7288,437.9206 L1275.7288,440.6394 Z " fill="#000000"/><a href="file:////home/runner/work/BO4E-python/BO4E-python/docs/../.tox/docs/tmp/html/api/bo4e.enum.html#bo4e.enum.tarifkalkulationsmethode.Tarifkalkulationsmethode" target="_top" title="file:////home/runner/work/BO4E-python/BO4E-python/docs/../.tox/docs/tmp/html/api/bo4e.enum.html#bo4e.enum.tarifkalkulationsmethode.Tarifkalkulationsmethode" xlink:actuate="onRequest" xlink:href="file:////home/runner/work/BO4E-python/BO4E-python/docs/../.tox/docs/tmp/html/api/bo4e.enum.html#bo4e.enum.tarifkalkulationsmethode.Tarifkalkulationsmethode" xlink:show="new" xlink:title="file:////home/runner/work/BO4E-python/BO4E-python/docs/../.tox/docs/tmp/html/api/bo4e.enum.html#bo4e.enum.tarifkalkulationsmethode.Tarifkalkulationsmethode" xlink:type="simple"><text fill="#0000FF" font-family="sans-serif" font-size="14" lengthAdjust="spacing" text-decoration="underline" textLength="178.5205" x="1290.1169" y="434.0251">Tarifkalkulationsmethode</text></a><text fill="#000000" font-family="sans-serif" font-size="10" lengthAdjust="spacing" textLength="185.2344" x="1286.76" y="446.6091">bo4e.enum.tarifkalkulationsmethode</text></g><!--class Tarifberechnungsparameter--><g class="entity" data-entity="Tarifberechnungsparameter" data-source-line="3" data-uid="ent0002" id="entity_Tarifberechnungsparameter"><rect fill="#F1F1F1" height="127.4219" rx="2.5" ry="2.5" style="stroke:#181818;stroke-width:0.5;" width="1020.7588" x="7" y="153.29"/><ellipse cx="414.7021" cy="172.2588" fill="#ADD1B2" rx="11" ry="11" style="stroke:#181818;stroke-width:1;"/><path d="M417.6709,177.8994 Q417.0928,178.1963 416.4521,178.3369 Q415.8115,178.4931 415.1084,178.4931 Q412.6084,178.4931 411.2803,176.8525 Q409.9678,175.1963 409.9678,172.0713 Q409.9678,168.9463 411.2803,167.29 Q412.6084,165.6338 415.1084,165.6338 Q415.8115,165.6338 416.4521,165.79 Q417.1084,165.9463 417.6709,166.2431 L417.6709,168.9619 Q417.0459,168.3838 416.4521,168.1181 Q415.8584,167.8369 415.2334,167.8369 Q413.8896,167.8369 413.2021,168.915 Q412.5146,169.9775 412.5146,172.0713 Q412.5146,174.165 413.2021,175.2431 Q413.8896,176.3056 415.2334,176.3056 Q415.8584,176.3056 416.4521,176.04 Q417.0459,175.7588 417.6709,175.1806 L417.6709,177.8994 Z " fill="#000000"/><a href="file:////home/runner/work/BO4E-python/BO4E-python/docs/../.tox/docs/tmp/html/api/bo4e.com.html#bo4e.com.tarifberechnungsparameter.Tarifberechnungsparameter" target="_top" title="file:////home/runner/work/BO4E-python/BO4E-python/docs/../.tox/docs/tmp/html/api/bo4e.com.html#bo4e.com.tarifberechnungsparameter.Tarifberechnungsparameter" xlink:actuate="onRequest" xlink:href="file:////home/runner/work/BO4E-python/BO4E-python/docs/../.tox/docs/tmp/html/api/bo4e.com.html#bo4e.com.tarifberechnungsparameter.Tarifberechnungsparameter" xlink:show="new" xlink:title="file:////home/runner/work/BO4E-python/BO4E-python/docs/../.tox/docs/tmp/html/api/bo4e.com.html#bo4e.com.tarifberechnungsparameter.Tarifberechnungsparameter" xlink:type="simple"><text fill="#0000FF" font-family="sans-serif" font-size="14" lengthAdjust="spacing" text-decoration="underline" textLength="196.8545" x="435.2021" y="171.2851">Tarifberechnungsparameter</text></a><text fill="#000000" font-family="sans-serif" font-size="10" lengthAdjust="spacing" textLength="191.1182" x="438.0703" y="183.8691">bo4e.com.tarifberechnungsparameter</text><line style="stroke:#181818;stroke-width:0.5;" x1="8" x2="1026.7588" y1="191.2275" y2="191.2275"/><text fill="#000000" font-family="sans-serif" font-size="14" lengthAdjust="spacing" textLength="1008.7588" x="13" y="208.2226">_typ : Literal[&lt;ComTyp.TARIFBERECHNUNGSPARAMETER: 'TARIFBERECHNUNGSPARAMETER'&gt;] [1] = ComTyp.TARIFBERECHNUNGSPARAMETER</text><text fill="#000000" font-family="sans-serif" font-size="14" lengthAdjust="spacing" textLength="387.3652" x="13" y="224.5195">istMesspreisInGrundpreisEnthalten : bool [0..1] = None</text><text fill="#000000" font-family="sans-serif" font-size="14" lengthAdjust="spacing" textLength="368.3955" x="13" y="240.8164">istMesspreisZuBeruecksichtigen : bool [0..1] = None</text><text fill="#000000" font-family="sans-serif" font-size="14" lengthAdjust="spacing" textLength="251.46" x="13" y="257.1132">kwInklusive : Decimal [0..1] = None</text><text fill="#000000" font-family="sans-serif" font-size="14" lengthAdjust="spacing" textLength="300.2617" x="13" y="273.4101">kwWeitereMengen : Decimal [0..1] = None</text></g><!--link Tarifberechnungsparameter to COM--><g class="link" data-entity-1="Tarifberechnungsparameter" data-entity-2="COM" data-source-line="21" data-uid="lnk11" id="link_Tarifberechnungsparameter_COM"><path codeLine="21" d="M1027.94,251.92 C1037.96,252.31 1047.91,252.67 1057.76,253 C1121.72,255.13 1137.76,253.78 1201.76,253 C1238.98,252.55 1262.9572,252.0199 1295.0672,251.1099" fill="none" id="Tarifberechnungsparameter-to-COM" style="stroke:#181818;stroke-width:1;"/><polygon fill="none" points="1313.06,250.6,1294.8973,245.1123,1295.2372,257.1075,1313.06,250.6" style="stroke:#181818;stroke-width:1;"/></g><!--link Tarifberechnungsparameter to Tarifkalkulationsmethode--><g class="link" data-entity-1="Tarifberechnungsparameter" data-entity-2="Tarifkalkulationsmethode" data-source-line="22" data-uid="lnk12" id="link_Tarifberechnungsparameter_Tarifkalkulationsmethode"><path codeLine="22" d="M758.01,281.16 C890.92,316.39 1059.29,360.42 1209.76,398 C1233.2,403.85 1247.0054,407.2246 1270.4354,412.7946" fill="none" id="Tarifberechnungsparameter-to-Tarifkalkulationsmethode" style="stroke:#181818;stroke-width:1;"/><polygon fill="#181818" points="1282.11,415.57,1277.1978,410.2908,1270.4354,412.7946,1275.3475,418.0738,1282.11,415.57" style="stroke:#181818;stroke-width:1;"/><text fill="#000000" font-family="sans-serif" font-size="13" lengthAdjust="spacing" textLength="142.9238" x="1058.76" y="356.0669">berechnungsmethode</text><text fill="#000000" font-family="sans-serif" font-size="13" lengthAdjust="spacing" textLength="24.8066" x="1231.1483" y="405.0819">0..1</text></g><!--link Tarifberechnungsparameter to Messpreistyp--><g class="link" data-entity-1="Tarifberechnungsparameter" data-entity-2="Messpreistyp" data-source-line="23" data-uid="lnk13" id="link_Tarifberechnungsparameter_Messpreistyp"><path codeLine="23" d="M893.27,281.18 C1040.68,306.41 1184.2222,330.9841 1274.8322,346.5041" fill="none" id="Tarifberechnungsparameter-to-Messpreistyp" style="stroke:#181818;stroke-width:1;"/><polygon fill="#181818" points="1286.66,348.53,1281.4214,343.5745,1274.8322,346.5041,1280.0708,351.4596,1286.66,348.53" style="stroke:#181818;stroke-width:1;"/><text fill="#000000" font-family="sans-serif" font-size="13" lengthAdjust="spacing" textLength="87.2295" x="1086.26" y="307.0669">messpreistyp</text><text fill="#000000" font-family="sans-serif" font-size="13" lengthAdjust="spacing" textLength="24.8066" x="1253.957" y="360.0343">0..1</text></g><!--link Tarifberechnungsparameter to Preis--><g class="link" data-entity-1="Tarifberechnungsparameter" data-entity-2="Preis" data-source-line="24" data-uid="lnk14" id="link_Tarifberechnungsparameter_Preis"><path codeLine="24" d="M729.81,152.8 C828.45,126.08 948.05,98.23 1057.76,85 C1121.3,77.34 1137.85,81.5 1201.76,85 C1238.43,87.01 1267.6042,90.0396 1299.4242,94.0496" fill="none" id="Tarifberechnungsparameter-to-Preis" style="stroke:#181818;stroke-width:1;"/><polygon fill="#181818" points="1311.33,95.55,1305.8772,90.8312,1299.4242,94.0496,1304.877,98.7684,1311.33,95.55" style="stroke:#181818;stroke-width:1;"/><text fill="#000000" font-family="sans-serif" font-size="13" lengthAdjust="spacing" textLength="101.0928" x="1079.26" y="77.0669">hoechstpreisNT</text><text fill="#000000" font-family="sans-serif" font-size="13" lengthAdjust="spacing" textLength="24.8066" x="1278.7912" y="107.632">0..1</text></g><!--link Tarifberechnungsparameter to Preis--><g class="link" data-entity-1="Tarifberechnungsparameter" data-entity-2="Preis" data-source-line="25" data-uid="lnk15" id="link_Tarifberechnungsparameter_Preis"><path codeLine="25" d="M977.37,152.79 C1004.56,149.11 1031.52,145.49 1057.76,142 C1146.61,130.19 1238.101,118.7251 1299.541,111.1151" fill="none" id="Tarifberechnungsparameter-to-Preis-1" style="stroke:#181818;stroke-width:1;"/><polygon fill="#181818" points="1311.45,109.64,1305.0038,106.4079,1299.541,111.1151,1305.9872,114.3472,1311.45,109.64" style="stroke:#181818;stroke-width:1;"/><text fill="#000000" font-family="sans-serif" font-size="13" lengthAdjust="spacing" textLength="101.1436" x="1079.26" y="120.0669">hoechstpreisHT</text><text fill="#000000" font-family="sans-serif" font-size="13" lengthAdjust="spacing" textLength="24.8066" x="1278.9266" y="123.5273">0..1</text></g><!--link Tarifberechnungsparameter to Preis--><g class="link" data-entity-1="Tarifberechnungsparameter" data-entity-2="Preis" data-source-line="26" data-uid="lnk16" id="link_Tarifberechnungsparameter_Preis"><path codeLine="26" d="M1028.17,198.84 C1115.44,191.54 1183.98,181.31 1201.76,167 C1211.51,159.15 1200.67,148.6 1209.76,140 C1236.78,114.42 1266.1896,106.4536 1299.4796,103.7436" fill="none" id="Tarifberechnungsparameter-to-Preis-2" style="stroke:#181818;stroke-width:1;"/><polygon fill="#181818" points="1311.44,102.77,1305.1352,99.27,1299.4796,103.7436,1305.7843,107.2436,1311.44,102.77" style="stroke:#181818;stroke-width:1;"/><text fill="#000000" font-family="sans-serif" font-size="13" lengthAdjust="spacing" textLength="84.6143" x="1087.76" y="163.0669">mindestpreis</text><text fill="#000000" font-family="sans-serif" font-size="13" lengthAdjust="spacing" textLength="24.8066" x="1278.9153" y="98.8552">0..1</text></g><!--link Tarifberechnungsparameter to Tarifpreis--><g class="link" data-entity-1="Tarifberechnungsparameter" data-entity-2="Tarifpreis" data-source-line="27" data-uid="lnk17" id="link_Tarifberechnungsparameter_Tarifpreis"><path codeLine="27" d="M1027.93,242.27 C1101.69,240.27 1165.04,233.8 1201.76,220 C1206.18,218.34 1205.56,215.17 1209.76,213 C1238.02,198.43 1260.3339,191.6926 1289.4139,186.2626" fill="none" id="Tarifberechnungsparameter-to-Tarifpreis" style="stroke:#181818;stroke-width:1;"/><polygon fill="#181818" points="1301.21,184.06,1294.5777,181.2293,1289.4139,186.2626,1296.0462,189.0934,1301.21,184.06" style="stroke:#181818;stroke-width:1;"/><text fill="#000000" font-family="sans-serif" font-size="13" lengthAdjust="spacing" textLength="81.7007" x="1089.26" y="216.0669">zusatzpreise</text><text fill="#000000" font-family="sans-serif" font-size="13" lengthAdjust="spacing" textLength="23.0356" x="1270.3056" y="197.7385">0..*</text></g><!--SRC=[nLLXZvf04Fry_8g9VhZa4a7JQtCXLnErzEwIwbsiJPDQqgmmoWRO9UnIgst_UvUr2kR0wpMjaYpPnymyPcOVGuHp2P93IXU119-cw4dAcM5u4H426jFfd4PeM-eAU8nMcZ66gRNaQMZrxo-TLhAI0MTxUvzxmZ9DovJysmR8EB426KSMIQWruvTeUZmsyoVD7P8afVCPgWG2bh65I4XAOfIOcfCw2zHQNFSpknPqZNQdtNtw5GqWefuClXjdN-Gg0HlUKOL9DBqUy7YoIin9Rtptjk-CdS7jwCFevlr3RzmREXDdRCDvhUsywyAquy9hU8h5EAD23b6894KgxjYDQh-lzmwJ0OaaCfNKZFC8fctJr9mZpd0_xbFMnpH3BnJK2oHTr0Q5opiMHfcWNr5vl46FngJ2wIFcNS0XiWrLjUDFms2gVwgD7lv_7S4MkQu-p2s4fjFkNRqQv6TuT4dhxfiF-HtqlLgMsardhPrEaAZ-C3RPJdPRABO7FgSY-SBz11NaQt0_1BMgarLBPwaSb3IFe4naMLcQEInhCyVGz3lUYvTNHn3dBfjc0UFjW52ppHoM09J1utO-2jPLbMDEKewMOqYYC8j8_WyJQdW7tCUDf2iCK6UeARdk1ONwAupv73pm1skrVdHtmofNy25dvNq1ZNpADWeHrPUdXdp1iatdsVHxmh2XVExF8ilhsun26mAk0eJKFAF9Fw6v_NkQc38VVzFy4Sb5YQGqBsrOPuB8jKPe605LXn1ZhCY48GA-X0FaSugHBtu1]--></g></svg>