<?xml version="1.0" encoding="us-ascii" standalone="no"?><svg xmlns="http://www.w3.org/2000/svg" xmlns:xlink="http://www.w3.org/1999/xlink" contentStyleType="text/css" height="282px" preserveAspectRatio="none" style="width:645px;height:282px;background:#FFFFFF;" version="1.1" viewBox="0 0 645 282" width="645px" zoomAndPan="magnify"><defs/><g><!--cluster bo4e--><g id="cluster_bo4e"><path d="M431.5,6 L472.5,6 A3.75,3.75 0 0 1 475,8.5 L482,28.2969 L635.5,28.2969 A2.5,2.5 0 0 1 638,30.7969 L638,272.5 A2.5,2.5 0 0 1 635.5,275 L431.5,275 A2.5,2.5 0 0 1 429,272.5 L429,8.5 A2.5,2.5 0 0 1 431.5,6 " fill="none" style="stroke:#000000;stroke-width:1.5;"/><line style="stroke:#000000;stroke-width:1.5;" x1="429" x2="482" y1="28.2969" y2="28.2969"/><text fill="#000000" font-family="sans-serif" font-size="14" font-weight="bold" lengthAdjust="spacing" textLength="40" x="433" y="20.9951">bo4e</text></g><!--cluster com--><g id="cluster_com"><path d="M467,49 L546,49 A3.75,3.75 0 0 1 548.5,51.5 L555.5,71.2969 L600,71.2969 A2.5,2.5 0 0 1 602.5,73.7969 L602.5,135.5 A2.5,2.5 0 0 1 600,138 L467,138 A2.5,2.5 0 0 1 464.5,135.5 L464.5,51.5 A2.5,2.5 0 0 1 467,49 " fill="#E0A86C" style="stroke:#000000;stroke-width:1.5;"/><line style="stroke:#000000;stroke-width:1.5;" x1="464.5" x2="555.5" y1="71.2969" y2="71.2969"/><a href="https://bo4e.github.io/BO4E-python//api/bo4e.com.html" target="_top" title="https://bo4e.github.io/BO4E-python//api/bo4e.com.html" xlink:actuate="onRequest" xlink:href="https://bo4e.github.io/BO4E-python//api/bo4e.com.html" xlink:show="new" xlink:title="https://bo4e.github.io/BO4E-python//api/bo4e.com.html" xlink:type="simple"><text fill="#0000FF" font-family="sans-serif" font-size="14" font-weight="bold" lengthAdjust="spacing" text-decoration="underline" textLength="78" x="468.5" y="63.9951">bo4e.com</text></a></g><!--cluster enum--><g id="cluster_enum"><path d="M455.5,162 L545.5,162 A3.75,3.75 0 0 1 548,164.5 L555,184.2969 L611.5,184.2969 A2.5,2.5 0 0 1 614,186.7969 L614,248.5 A2.5,2.5 0 0 1 611.5,251 L455.5,251 A2.5,2.5 0 0 1 453,248.5 L453,164.5 A2.5,2.5 0 0 1 455.5,162 " fill="#D1C358" style="stroke:#000000;stroke-width:1.5;"/><line style="stroke:#000000;stroke-width:1.5;" x1="453" x2="555" y1="184.2969" y2="184.2969"/><a href="https://bo4e.github.io/BO4E-python//api/bo4e.enum.html" target="_top" title="https://bo4e.github.io/BO4E-python//api/bo4e.enum.html" xlink:actuate="onRequest" xlink:href="https://bo4e.github.io/BO4E-python//api/bo4e.enum.html" xlink:show="new" xlink:title="https://bo4e.github.io/BO4E-python//api/bo4e.enum.html" xlink:type="simple"><text fill="#0000FF" font-family="sans-serif" font-size="14" font-weight="bold" lengthAdjust="spacing" text-decoration="underline" textLength="89" x="457" y="176.9951">bo4e.enum</text></a></g><!--class Preis--><g id="elem_Preis"><rect codeLine="11" fill="#F1F1F1" height="37.9375" id="Preis" rx="2.5" ry="2.5" style="stroke:#181818;stroke-width:0.5;" width="106" x="480.5" y="84.03"/><ellipse cx="495.5" cy="102.9988" fill="#ADD1B2" rx="11" ry="11" style="stroke:#181818;stroke-width:1.0;"/><path d="M498.4688,108.6394 Q497.8906,108.9363 497.25,109.0769 Q496.6094,109.2331 495.9063,109.2331 Q493.4063,109.2331 492.0781,107.5925 Q490.7656,105.9363 490.7656,102.8113 Q490.7656,99.6863 492.0781,98.03 Q493.4063,96.3738 495.9063,96.3738 Q496.6094,96.3738 497.25,96.53 Q497.9063,96.6863 498.4688,96.9831 L498.4688,99.7019 Q497.8438,99.1238 497.25,98.8581 Q496.6563,98.5769 496.0313,98.5769 Q494.6875,98.5769 494,99.655 Q493.3125,100.7175 493.3125,102.8113 Q493.3125,104.905 494,105.9831 Q494.6875,107.0456 496.0313,107.0456 Q496.6563,107.0456 497.25,106.78 Q497.8438,106.4988 498.4688,105.9206 L498.4688,108.6394 Z " fill="#000000"/><a href="https://bo4e.github.io/BO4E-python//api/bo4e.com.html#bo4e.com.preis.Preis" target="_top" title="https://bo4e.github.io/BO4E-python//api/bo4e.com.html#bo4e.com.preis.Preis" xlink:actuate="onRequest" xlink:href="https://bo4e.github.io/BO4E-python//api/bo4e.com.html#bo4e.com.preis.Preis" xlink:show="new" xlink:title="https://bo4e.github.io/BO4E-python//api/bo4e.com.html#bo4e.com.preis.Preis" xlink:type="simple"><text fill="#0000FF" font-family="sans-serif" font-size="14" lengthAdjust="spacing" text-decoration="underline" textLength="34" x="529.5" y="102.0251">Preis</text></a><text fill="#000000" font-family="sans-serif" font-size="10" lengthAdjust="spacing" textLength="74" x="509.5" y="114.6091">bo4e.com.preis</text></g><!--class Preistyp--><g id="elem_Preistyp"><rect codeLine="14" fill="#F1F1F1" height="37.9375" id="Preistyp" rx="2.5" ry="2.5" style="stroke:#181818;stroke-width:0.5;" width="129" x="469" y="197.03"/><ellipse cx="484" cy="215.9988" fill="#ADD1B2" rx="11" ry="11" style="stroke:#181818;stroke-width:1.0;"/><path d="M486.9688,221.6394 Q486.3906,221.9363 485.75,222.0769 Q485.1094,222.2331 484.4063,222.2331 Q481.9063,222.2331 480.5781,220.5925 Q479.2656,218.9363 479.2656,215.8113 Q479.2656,212.6863 480.5781,211.03 Q481.9063,209.3738 484.4063,209.3738 Q485.1094,209.3738 485.75,209.53 Q486.4063,209.6863 486.9688,209.9831 L486.9688,212.7019 Q486.3438,212.1238 485.75,211.8581 Q485.1563,211.5769 484.5313,211.5769 Q483.1875,211.5769 482.5,212.655 Q481.8125,213.7175 481.8125,215.8113 Q481.8125,217.905 482.5,218.9831 Q483.1875,220.0456 484.5313,220.0456 Q485.1563,220.0456 485.75,219.78 Q486.3438,219.4988 486.9688,218.9206 L486.9688,221.6394 Z " fill="#000000"/><a href="https://bo4e.github.io/BO4E-python//api/bo4e.enum.html#bo4e.enum.preistyp.Preistyp" target="_top" title="https://bo4e.github.io/BO4E-python//api/bo4e.enum.html#bo4e.enum.preistyp.Preistyp" xlink:actuate="onRequest" xlink:href="https://bo4e.github.io/BO4E-python//api/bo4e.enum.html#bo4e.enum.preistyp.Preistyp" xlink:show="new" xlink:title="https://bo4e.github.io/BO4E-python//api/bo4e.enum.html#bo4e.enum.preistyp.Preistyp" xlink:type="simple"><text fill="#0000FF" font-family="sans-serif" font-size="14" lengthAdjust="spacing" text-decoration="underline" textLength="55" x="519" y="215.0251">Preistyp</text></a><text fill="#000000" font-family="sans-serif" font-size="10" lengthAdjust="spacing" textLength="97" x="498" y="227.6091">bo4e.enum.preistyp</text></g><!--class Tarifpreis--><g id="elem_Tarifpreis"><rect codeLine="3" fill="#F1F1F1" height="111.125" id="Tarifpreis" rx="2.5" ry="2.5" style="stroke:#181818;stroke-width:0.5;" width="323" x="7" y="104.44"/><ellipse cx="117.25" cy="123.4088" fill="#ADD1B2" rx="11" ry="11" style="stroke:#181818;stroke-width:1.0;"/><path d="M120.2188,129.0494 Q119.6406,129.3463 119,129.4869 Q118.3594,129.6431 117.6563,129.6431 Q115.1563,129.6431 113.8281,128.0025 Q112.5156,126.3463 112.5156,123.2213 Q112.5156,120.0963 113.8281,118.44 Q115.1563,116.7838 117.6563,116.7838 Q118.3594,116.7838 119,116.94 Q119.6563,117.0963 120.2188,117.3931 L120.2188,120.1119 Q119.5938,119.5338 119,119.2681 Q118.4063,118.9869 117.7813,118.9869 Q116.4375,118.9869 115.75,120.065 Q115.0625,121.1275 115.0625,123.2213 Q115.0625,125.315 115.75,126.3931 Q116.4375,127.4556 117.7813,127.4556 Q118.4063,127.4556 119,127.19 Q119.5938,126.9088 120.2188,126.3306 L120.2188,129.0494 Z " fill="#000000"/><a href="https://bo4e.github.io/BO4E-python//api/bo4e.com.html#bo4e.com.tarifpreis.Tarifpreis" target="_top" title="https://bo4e.github.io/BO4E-python//api/bo4e.com.html#bo4e.com.tarifpreis.Tarifpreis" xlink:actuate="onRequest" xlink:href="https://bo4e.github.io/BO4E-python//api/bo4e.com.html#bo4e.com.tarifpreis.Tarifpreis" xlink:show="new" xlink:title="https://bo4e.github.io/BO4E-python//api/bo4e.com.html#bo4e.com.tarifpreis.Tarifpreis" xlink:type="simple"><text fill="#0000FF" font-family="sans-serif" font-size="14" lengthAdjust="spacing" text-decoration="underline" textLength="63" x="153.25" y="122.4351">Tarifpreis</text></a><text fill="#000000" font-family="sans-serif" font-size="10" lengthAdjust="spacing" textLength="94" x="137.75" y="135.0191">bo4e.com.tarifpreis</text><line style="stroke:#181818;stroke-width:0.5;" x1="8" x2="329" y1="142.3775" y2="142.3775"/><text fill="#000000" font-family="sans-serif" font-size="14" lengthAdjust="spacing" textLength="183" x="13" y="159.3726">_version : str [0..1] = 0.0.0</text><text fill="#000000" font-family="sans-serif" font-size="14" lengthAdjust="spacing" textLength="147" x="13" y="175.6695">_id : str [0..1] = None</text><text fill="#000000" font-family="sans-serif" font-size="14" lengthAdjust="spacing" textLength="311" x="13" y="191.9664">zusatzAttribute : ZusatzAttribut [0..*] = None</text><text fill="#000000" font-family="sans-serif" font-size="14" lengthAdjust="spacing" textLength="224" x="13" y="208.2632">beschreibung : str [0..1] = None</text></g><!--link Tarifpreis to Preis--><g id="link_Tarifpreis_Preis"><path codeLine="17" d="M330.3,134.75 C384.35,126.26 423.0984,120.1855 462.5984,113.9755 " fill="none" id="Tarifpreis-to-Preis" style="stroke:#181818;stroke-width:1.0;"/><polygon fill="none" points="480.38,111.18,461.6666,108.0483,463.5303,119.9027,480.38,111.18" style="stroke:#181818;stroke-width:1.0;"/></g><!--link Tarifpreis to Preistyp--><g id="link_Tarifpreis_Preistyp"><path codeLine="18" d="M330.3,184.81 C379.23,192.35 418.3302,198.3911 456.8502,204.3311 " fill="none" id="Tarifpreis-to-Preistyp" style="stroke:#181818;stroke-width:1.0;"/><polygon fill="#181818" points="468.71,206.16,463.3897,201.2923,456.8502,204.3311,462.1705,209.1988,468.71,206.16" style="stroke:#181818;stroke-width:1.0;"/><text fill="#000000" font-family="sans-serif" font-size="13" lengthAdjust="spacing" textLength="51" x="361" y="186.0669">preistyp</text><text fill="#000000" font-family="sans-serif" font-size="13" lengthAdjust="spacing" textLength="24" x="436.791" y="217.9926">0..1</text></g><!--SRC=[hP9DJyCm38RFow-msjkajPqOQAfWqa2xmWwS6DNK3s-9r2PLuu8suB-Jjkh7O5mcr8lV-esTnqwAEm9IK8Wz9qX4WJ499HcBqr1hi3ORJfHhttKZDKDdBuYNaIEKU_yqMqto0t4bNJVCHPEFLUPmobAxKnGMOfSNABJpt8NGXq7mAc-rEA8_zHPdJbaG3ktmmKRRDooqkIJueAc0ZUSuqm3km7FCPz8Y-PbvL1BPw5Zga8vBea949Q4nlPpygVtZtX-XZhbf6fLoVxRY5sCop53dOOmNZmfQ5GGrQol1NddB-Sr3HVnVosZsiAu7kVvx-ltWQvFXl1mJPJdahEGGjD9W9zFuwdf-EMdNnEvb3K67lC4r0RJ1R-YJ0psu4TMEXmztClbST2jgIf_aZM4CLlLAh1wmlu8FRHV6k4WGCimYyvgPvkeTXeLs0jD4VmC0]--></g></svg>