<svg xmlns="http://www.w3.org/2000/svg" xmlns:xlink="http://www.w3.org/1999/xlink" contentStyleType="text/css" data-diagram-type="CLASS" height="181px" preserveAspectRatio="none" style="width:1134px;height:181px;background:#FFFFFF;" version="1.1" viewBox="0 0 1134 181" width="1134px" zoomAndPan="magnify"><defs/><g><!--cluster bo4e--><g class="cluster" data-entity="bo4e" data-source-line="13" data-uid="ent0005" id="cluster_bo4e"><path d="M944.23,6 L984.106,6 A3.75,3.75 0 0 1 986.606,8.5 L993.606,28.2969 L1125.29,28.2969 A2.5,2.5 0 0 1 1127.79,30.7969 L1127.79,159.5 A2.5,2.5 0 0 1 1125.29,162 L944.23,162 A2.5,2.5 0 0 1 941.73,159.5 L941.73,8.5 A2.5,2.5 0 0 1 944.23,6" fill="none" style="stroke:#000000;stroke-width:1.5;"/><line style="stroke:#000000;stroke-width:1.5;" x1="941.73" x2="993.606" y1="28.2969" y2="28.2969"/><text fill="#000000" font-family="sans-serif" font-size="14" font-weight="bold" lengthAdjust="spacing" textLength="38.876" x="945.73" y="20.9951">bo4e</text></g><!--cluster com--><g class="cluster" data-entity="com" data-source-line="12" data-uid="ent0003" id="cluster_com"><path d="M968.23,49 L1045.9292,49 A3.75,3.75 0 0 1 1048.4292,51.5 L1055.4292,71.2969 L1101.29,71.2969 A2.5,2.5 0 0 1 1103.79,73.7969 L1103.79,135.5 A2.5,2.5 0 0 1 1101.29,138 L968.23,138 A2.5,2.5 0 0 1 965.73,135.5 L965.73,51.5 A2.5,2.5 0 0 1 968.23,49" fill="#E0A86C" style="stroke:#000000;stroke-width:1.5;"/><line style="stroke:#000000;stroke-width:1.5;" x1="965.73" x2="1055.4292" y1="71.2969" y2="71.2969"/><a href="https://bo4e.github.io/BO4E-python/latest/api/bo4e.com.html" target="_top" title="https://bo4e.github.io/BO4E-python/latest/api/bo4e.com.html" xlink:actuate="onRequest" xlink:href="https://bo4e.github.io/BO4E-python/latest/api/bo4e.com.html" xlink:show="new" xlink:title="https://bo4e.github.io/BO4E-python/latest/api/bo4e.com.html" xlink:type="simple"><text fill="#0000FF" font-family="sans-serif" font-size="14" font-weight="bold" lengthAdjust="spacing" text-decoration="underline" textLength="76.6992" x="969.73" y="63.9951">bo4e.com</text></a></g><!--class COM--><g class="entity" data-entity="COM" data-source-line="13" data-uid="ent0004" id="entity_COM"><rect fill="#F1F1F1" height="37.9375" rx="2.5" ry="2.5" style="stroke:#181818;stroke-width:0.5;" width="106.0527" x="981.73" y="84.03"/><ellipse cx="996.73" cy="102.9988" fill="#ADD1B2" rx="11" ry="11" style="stroke:#181818;stroke-width:1;"/><path d="M999.6988,108.6394 Q999.1206,108.9363 998.48,109.0769 Q997.8394,109.2331 997.1363,109.2331 Q994.6363,109.2331 993.3081,107.5925 Q991.9956,105.9363 991.9956,102.8113 Q991.9956,99.6863 993.3081,98.03 Q994.6363,96.3738 997.1363,96.3738 Q997.8394,96.3738 998.48,96.53 Q999.1363,96.6863 999.6988,96.9831 L999.6988,99.7019 Q999.0738,99.1238 998.48,98.8581 Q997.8863,98.5769 997.2613,98.5769 Q995.9175,98.5769 995.23,99.655 Q994.5425,100.7175 994.5425,102.8113 Q994.5425,104.905 995.23,105.9831 Q995.9175,107.0456 997.2613,107.0456 Q997.8863,107.0456 998.48,106.78 Q999.0738,106.4988 999.6988,105.9206 L999.6988,108.6394 Z " fill="#000000"/><a href="https://bo4e.github.io/BO4E-python/latest/api/bo4e.com.html#bo4e.com.com.COM" target="_top" title="https://bo4e.github.io/BO4E-python/latest/api/bo4e.com.html#bo4e.com.com.COM" xlink:actuate="onRequest" xlink:href="https://bo4e.github.io/BO4E-python/latest/api/bo4e.com.html#bo4e.com.com.COM" xlink:show="new" xlink:title="https://bo4e.github.io/BO4E-python/latest/api/bo4e.com.html#bo4e.com.com.COM" xlink:type="simple"><text fill="#0000FF" font-family="sans-serif" font-size="14" lengthAdjust="spacing" text-decoration="underline" textLength="32.874" x="1031.3194" y="102.0251">COM</text></a><text fill="#000000" font-family="sans-serif" font-size="10" lengthAdjust="spacing" textLength="74.0527" x="1010.73" y="114.6091">bo4e.com.com</text></g><!--class TarifpreisstaffelProOrt--><g class="entity" data-entity="TarifpreisstaffelProOrt" data-source-line="3" data-uid="ent0002" id="entity_TarifpreisstaffelProOrt"><rect fill="#F1F1F1" height="143.7188" rx="2.5" ry="2.5" style="stroke:#181818;stroke-width:0.5;" width="914.7334" x="7" y="31.14"/><ellipse cx="380.2607" cy="50.1087" fill="#ADD1B2" rx="11" ry="11" style="stroke:#181818;stroke-width:1;"/><path d="M383.2295,55.7494 Q382.6514,56.0462 382.0107,56.1869 Q381.3701,56.3431 380.667,56.3431 Q378.167,56.3431 376.8389,54.7025 Q375.5264,53.0462 375.5264,49.9212 Q375.5264,46.7962 376.8389,45.14 Q378.167,43.4837 380.667,43.4837 Q381.3701,43.4837 382.0107,43.64 Q382.667,43.7962 383.2295,44.0931 L383.2295,46.8119 Q382.6045,46.2337 382.0107,45.9681 Q381.417,45.6869 380.792,45.6869 Q379.4482,45.6869 378.7607,46.765 Q378.0732,47.8275 378.0732,49.9212 Q378.0732,52.015 378.7607,53.0931 Q379.4482,54.1556 380.792,54.1556 Q381.417,54.1556 382.0107,53.89 Q382.6045,53.6087 383.2295,53.0306 L383.2295,55.7494 Z " fill="#000000"/><a href="https://bo4e.github.io/BO4E-python/latest/api/bo4e.com.html#bo4e.com.tarifpreisstaffelproort.TarifpreisstaffelProOrt" target="_top" title="https://bo4e.github.io/BO4E-python/latest/api/bo4e.com.html#bo4e.com.tarifpreisstaffelproort.TarifpreisstaffelProOrt" xlink:actuate="onRequest" xlink:href="https://bo4e.github.io/BO4E-python/latest/api/bo4e.com.html#bo4e.com.tarifpreisstaffelproort.TarifpreisstaffelProOrt" xlink:show="new" xlink:title="https://bo4e.github.io/BO4E-python/latest/api/bo4e.com.html#bo4e.com.tarifpreisstaffelproort.TarifpreisstaffelProOrt" xlink:type="simple"><text fill="#0000FF" font-family="sans-serif" font-size="14" lengthAdjust="spacing" text-decoration="underline" textLength="154.8955" x="403.1689" y="49.1351">TarifpreisstaffelProOrt</text></a><text fill="#000000" font-family="sans-serif" font-size="10" lengthAdjust="spacing" textLength="159.7119" x="400.7607" y="61.7191">bo4e.com.tarifpreisstaffelproort</text><line style="stroke:#181818;stroke-width:0.5;" x1="8" x2="920.7334" y1="69.0775" y2="69.0775"/><text fill="#000000" font-family="sans-serif" font-size="14" lengthAdjust="spacing" textLength="902.7334" x="13" y="86.0726">_typ : Literal[&lt;ComTyp.TARIFPREISSTAFFELPROORT: 'TARIFPREISSTAFFELPROORT'&gt;] [1] = ComTyp.TARIFPREISSTAFFELPROORT</text><text fill="#000000" font-family="sans-serif" font-size="14" lengthAdjust="spacing" textLength="252.8955" x="13" y="102.3695">arbeitspreis : Decimal [0..1] = None</text><text fill="#000000" font-family="sans-serif" font-size="14" lengthAdjust="spacing" textLength="271.9199" x="13" y="118.6664">arbeitspreisNT : Decimal [0..1] = None</text><text fill="#000000" font-family="sans-serif" font-size="14" lengthAdjust="spacing" textLength="245.6631" x="13" y="134.9632">grundpreis : Decimal [0..1] = None</text><text fill="#000000" font-family="sans-serif" font-size="14" lengthAdjust="spacing" textLength="288.7773" x="13" y="151.2601">staffelgrenzeVon : Decimal [0..1] = None</text><text fill="#000000" font-family="sans-serif" font-size="14" lengthAdjust="spacing" textLength="282.5498" x="13" y="167.557">staffelgrenzeBis : Decimal [0..1] = None</text></g><!--link TarifpreisstaffelProOrt to COM--><g class="link" data-entity-1="TarifpreisstaffelProOrt" data-entity-2="COM" data-source-line="16" data-uid="lnk6" id="link_TarifpreisstaffelProOrt_COM"><path codeLine="16" d="M922.14,103 C944.47,103 946.52,103 963.25,103" fill="none" id="TarifpreisstaffelProOrt-to-COM" style="stroke:#181818;stroke-width:1;"/><polygon fill="none" points="981.25,103,963.25,97,963.25,109,981.25,103" style="stroke:#181818;stroke-width:1;"/></g><!--SRC=[hLB1Qi9043sxNp7emPE9WfGYLb2h85WZCVIIXh8c4xEGP9VTaQ9j_xr9MeMMnXRQmnpUx9ktRvYNOan04hJO9GIHq1YIa3bZOSgDWQRl9qJA36nxA_jexGGb-wqbf3rn-hEEEb0YSplbX8PihiGxAvIPbL2Mjiw8k1QnqYYC8Hx7c2ejfIRB-zfVQ-beWff-43paGoEEEEXrHp-9Du6REY5uPer7EYWOm58GQfxwmwdCl8EolB6xcA_TsMApySRp-MovTXt7zGRGhdbfZmBmUm7Sm6K5rk1wYu9CPQVu-HP3aV4K_AvbLVChcUDdrighv-tqFez-qFfOUgSnF-Azp7_9d5pGV6KivnaQnKFyOpxWX8AWEjO9GclM7LzVJSih_MyEovewTr3Kzraggh9I4CfDQmFQwRoCpdvBISOI4I5ac6rH6sOI-GIrqx70D39l]--></g></svg>