<svg xmlns="http://www.w3.org/2000/svg" xmlns:xlink="http://www.w3.org/1999/xlink" contentStyleType="text/css" data-diagram-type="CLASS" height="282px" preserveAspectRatio="none" style="width:670px;height:282px;background:#FFFFFF;" version="1.1" viewBox="0 0 670 282" width="670px" zoomAndPan="magnify"><defs/><g><!--cluster bo4e--><g class="cluster" data-entity="bo4e" data-source-line="11" data-uid="ent0005" id="cluster_bo4e"><path d="M452.96,6 L492.836,6 A3.75,3.75 0 0 1 495.336,8.5 L502.336,28.2969 L660.66,28.2969 A2.5,2.5 0 0 1 663.16,30.7969 L663.16,272.5 A2.5,2.5 0 0 1 660.66,275 L452.96,275 A2.5,2.5 0 0 1 450.46,272.5 L450.46,8.5 A2.5,2.5 0 0 1 452.96,6" fill="none" style="stroke:#000000;stroke-width:1.5;"/><line style="stroke:#000000;stroke-width:1.5;" x1="450.46" x2="502.336" y1="28.2969" y2="28.2969"/><text fill="#000000" font-family="sans-serif" font-size="14" font-weight="bold" lengthAdjust="spacing" textLength="38.876" x="454.46" y="20.9951">bo4e</text></g><!--cluster com--><g class="cluster" data-entity="com" data-source-line="10" data-uid="ent0003" id="cluster_com"><path d="M488.66,49 L566.3592,49 A3.75,3.75 0 0 1 568.8592,51.5 L575.8592,71.2969 L624.96,71.2969 A2.5,2.5 0 0 1 627.46,73.7969 L627.46,135.5 A2.5,2.5 0 0 1 624.96,138 L488.66,138 A2.5,2.5 0 0 1 486.16,135.5 L486.16,51.5 A2.5,2.5 0 0 1 488.66,49" fill="#E0A86C" style="stroke:#000000;stroke-width:1.5;"/><line style="stroke:#000000;stroke-width:1.5;" x1="486.16" x2="575.8592" y1="71.2969" y2="71.2969"/><a href="file:////home/runner/work/BO4E-python/BO4E-python/docs/../.tox/docs/tmp/html/api/bo4e.com.html" target="_top" title="file:////home/runner/work/BO4E-python/BO4E-python/docs/../.tox/docs/tmp/html/api/bo4e.com.html" xlink:actuate="onRequest" xlink:href="file:////home/runner/work/BO4E-python/BO4E-python/docs/../.tox/docs/tmp/html/api/bo4e.com.html" xlink:show="new" xlink:title="file:////home/runner/work/BO4E-python/BO4E-python/docs/../.tox/docs/tmp/html/api/bo4e.com.html" xlink:type="simple"><text fill="#0000FF" font-family="sans-serif" font-size="14" font-weight="bold" lengthAdjust="spacing" text-decoration="underline" textLength="76.6992" x="490.16" y="63.9951">bo4e.com</text></a></g><!--cluster enum--><g class="cluster" data-entity="enum" data-source-line="13" data-uid="ent0006" id="cluster_enum"><path d="M476.96,162 L566.1709,162 A3.75,3.75 0 0 1 568.6709,164.5 L575.6709,184.2969 L636.66,184.2969 A2.5,2.5 0 0 1 639.16,186.7969 L639.16,248.5 A2.5,2.5 0 0 1 636.66,251 L476.96,251 A2.5,2.5 0 0 1 474.46,248.5 L474.46,164.5 A2.5,2.5 0 0 1 476.96,162" fill="#D1C358" style="stroke:#000000;stroke-width:1.5;"/><line style="stroke:#000000;stroke-width:1.5;" x1="474.46" x2="575.6709" y1="184.2969" y2="184.2969"/><a href="file:////home/runner/work/BO4E-python/BO4E-python/docs/../.tox/docs/tmp/html/api/bo4e.enum.html" target="_top" title="file:////home/runner/work/BO4E-python/BO4E-python/docs/../.tox/docs/tmp/html/api/bo4e.enum.html" xlink:actuate="onRequest" xlink:href="file:////home/runner/work/BO4E-python/BO4E-python/docs/../.tox/docs/tmp/html/api/bo4e.enum.html" xlink:show="new" xlink:title="file:////home/runner/work/BO4E-python/BO4E-python/docs/../.tox/docs/tmp/html/api/bo4e.enum.html" xlink:type="simple"><text fill="#0000FF" font-family="sans-serif" font-size="14" font-weight="bold" lengthAdjust="spacing" text-decoration="underline" textLength="88.2109" x="478.46" y="176.9951">bo4e.enum</text></a></g><!--class Preis--><g class="entity" data-entity="Preis" data-source-line="11" data-uid="ent0004" id="entity_Preis"><rect fill="#F1F1F1" height="37.9375" rx="2.5" ry="2.5" style="stroke:#181818;stroke-width:0.5;" width="109.2949" x="502.16" y="84.03"/><ellipse cx="517.16" cy="102.9988" fill="#ADD1B2" rx="11" ry="11" style="stroke:#181818;stroke-width:1;"/><path d="M520.1288,108.6394 Q519.5506,108.9363 518.91,109.0769 Q518.2694,109.2331 517.5663,109.2331 Q515.0663,109.2331 513.7381,107.5925 Q512.4256,105.9363 512.4256,102.8113 Q512.4256,99.6863 513.7381,98.03 Q515.0663,96.3738 517.5663,96.3738 Q518.2694,96.3738 518.91,96.53 Q519.5663,96.6863 520.1288,96.9831 L520.1288,99.7019 Q519.5038,99.1238 518.91,98.8581 Q518.3163,98.5769 517.6913,98.5769 Q516.3475,98.5769 515.66,99.655 Q514.9725,100.7175 514.9725,102.8113 Q514.9725,104.905 515.66,105.9831 Q516.3475,107.0456 517.6913,107.0456 Q518.3163,107.0456 518.91,106.78 Q519.5038,106.4988 520.1288,105.9206 L520.1288,108.6394 Z " fill="#000000"/><a href="file:////home/runner/work/BO4E-python/BO4E-python/docs/../.tox/docs/tmp/html/api/bo4e.com.html#bo4e.com.preis.Preis" target="_top" title="file:////home/runner/work/BO4E-python/BO4E-python/docs/../.tox/docs/tmp/html/api/bo4e.com.html#bo4e.com.preis.Preis" xlink:actuate="onRequest" xlink:href="file:////home/runner/work/BO4E-python/BO4E-python/docs/../.tox/docs/tmp/html/api/bo4e.com.html#bo4e.com.preis.Preis" xlink:show="new" xlink:title="file:////home/runner/work/BO4E-python/BO4E-python/docs/../.tox/docs/tmp/html/api/bo4e.com.html#bo4e.com.preis.Preis" xlink:type="simple"><text fill="#0000FF" font-family="sans-serif" font-size="14" lengthAdjust="spacing" text-decoration="underline" textLength="33.9951" x="552.8099" y="102.0251">Preis</text></a><text fill="#000000" font-family="sans-serif" font-size="10" lengthAdjust="spacing" textLength="77.2949" x="531.16" y="114.6091">bo4e.com.preis</text></g><!--class Preistyp--><g class="entity" data-entity="Preistyp" data-source-line="14" data-uid="ent0007" id="entity_Preistyp"><rect fill="#F1F1F1" height="37.9375" rx="2.5" ry="2.5" style="stroke:#181818;stroke-width:0.5;" width="132.6934" x="490.46" y="197.03"/><ellipse cx="505.46" cy="215.9988" fill="#ADD1B2" rx="11" ry="11" style="stroke:#181818;stroke-width:1;"/><path d="M508.4288,221.6394 Q507.8506,221.9363 507.21,222.0769 Q506.5694,222.2331 505.8663,222.2331 Q503.3663,222.2331 502.0381,220.5925 Q500.7256,218.9363 500.7256,215.8113 Q500.7256,212.6863 502.0381,211.03 Q503.3663,209.3738 505.8663,209.3738 Q506.5694,209.3738 507.21,209.53 Q507.8663,209.6863 508.4288,209.9831 L508.4288,212.7019 Q507.8038,212.1238 507.21,211.8581 Q506.6163,211.5769 505.9913,211.5769 Q504.6475,211.5769 503.96,212.655 Q503.2725,213.7175 503.2725,215.8113 Q503.2725,217.905 503.96,218.9831 Q504.6475,220.0456 505.9913,220.0456 Q506.6163,220.0456 507.21,219.78 Q507.8038,219.4988 508.4288,218.9206 L508.4288,221.6394 Z " fill="#000000"/><a href="file:////home/runner/work/BO4E-python/BO4E-python/docs/../.tox/docs/tmp/html/api/bo4e.enum.html#bo4e.enum.preistyp.Preistyp" target="_top" title="file:////home/runner/work/BO4E-python/BO4E-python/docs/../.tox/docs/tmp/html/api/bo4e.enum.html#bo4e.enum.preistyp.Preistyp" xlink:actuate="onRequest" xlink:href="file:////home/runner/work/BO4E-python/BO4E-python/docs/../.tox/docs/tmp/html/api/bo4e.enum.html#bo4e.enum.preistyp.Preistyp" xlink:show="new" xlink:title="file:////home/runner/work/BO4E-python/BO4E-python/docs/../.tox/docs/tmp/html/api/bo4e.enum.html#bo4e.enum.preistyp.Preistyp" xlink:type="simple"><text fill="#0000FF" font-family="sans-serif" font-size="14" lengthAdjust="spacing" text-decoration="underline" textLength="56.6563" x="541.4786" y="215.0251">Preistyp</text></a><text fill="#000000" font-family="sans-serif" font-size="10" lengthAdjust="spacing" textLength="100.6934" x="519.46" y="227.6091">bo4e.enum.preistyp</text></g><!--class Tarifpreis--><g class="entity" data-entity="Tarifpreis" data-source-line="3" data-uid="ent0002" id="entity_Tarifpreis"><rect fill="#F1F1F1" height="111.125" rx="2.5" ry="2.5" style="stroke:#181818;stroke-width:0.5;" width="342.4629" x="7" y="104.44"/><ellipse cx="125.1045" cy="123.4088" fill="#ADD1B2" rx="11" ry="11" style="stroke:#181818;stroke-width:1;"/><path d="M128.0732,129.0494 Q127.4951,129.3463 126.8545,129.4869 Q126.2139,129.6431 125.5107,129.6431 Q123.0107,129.6431 121.6826,128.0025 Q120.3701,126.3463 120.3701,123.2213 Q120.3701,120.0963 121.6826,118.44 Q123.0107,116.7838 125.5107,116.7838 Q126.2139,116.7838 126.8545,116.94 Q127.5107,117.0963 128.0732,117.3931 L128.0732,120.1119 Q127.4482,119.5338 126.8545,119.2681 Q126.2607,118.9869 125.6357,118.9869 Q124.292,118.9869 123.6045,120.065 Q122.917,121.1275 122.917,123.2213 Q122.917,125.315 123.6045,126.3931 Q124.292,127.4556 125.6357,127.4556 Q126.2607,127.4556 126.8545,127.19 Q127.4482,126.9088 128.0732,126.3306 L128.0732,129.0494 Z " fill="#000000"/><a href="file:////home/runner/work/BO4E-python/BO4E-python/docs/../.tox/docs/tmp/html/api/bo4e.com.html#bo4e.com.tarifpreis.Tarifpreis" target="_top" title="file:////home/runner/work/BO4E-python/BO4E-python/docs/../.tox/docs/tmp/html/api/bo4e.com.html#bo4e.com.tarifpreis.Tarifpreis" xlink:actuate="onRequest" xlink:href="file:////home/runner/work/BO4E-python/BO4E-python/docs/../.tox/docs/tmp/html/api/bo4e.com.html#bo4e.com.tarifpreis.Tarifpreis" xlink:show="new" xlink:title="file:////home/runner/work/BO4E-python/BO4E-python/docs/../.tox/docs/tmp/html/api/bo4e.com.html#bo4e.com.tarifpreis.Tarifpreis" xlink:type="simple"><text fill="#0000FF" font-family="sans-serif" font-size="14" lengthAdjust="spacing" text-decoration="underline" textLength="66.1445" x="161.4092" y="122.4351">Tarifpreis</text></a><text fill="#000000" font-family="sans-serif" font-size="10" lengthAdjust="spacing" textLength="97.7539" x="145.6045" y="135.0191">bo4e.com.tarifpreis</text><line style="stroke:#181818;stroke-width:0.5;" x1="8" x2="348.4629" y1="142.3775" y2="142.3775"/><text fill="#000000" font-family="sans-serif" font-size="14" lengthAdjust="spacing" textLength="330.4629" x="13" y="159.3726">_version : str [0..1] = 202501.0.0+gc3c78750c</text><text fill="#000000" font-family="sans-serif" font-size="14" lengthAdjust="spacing" textLength="151.1768" x="13" y="175.6695">_id : str [0..1] = None</text><text fill="#000000" font-family="sans-serif" font-size="14" lengthAdjust="spacing" textLength="318.5752" x="13" y="191.9664">zusatzAttribute : ZusatzAttribut [0..*] = None</text><text fill="#000000" font-family="sans-serif" font-size="14" lengthAdjust="spacing" textLength="226.543" x="13" y="208.2632">beschreibung : str [0..1] = None</text></g><!--link Tarifpreis to Preis--><g class="link" data-entity-1="Tarifpreis" data-entity-2="Preis" data-source-line="17" data-uid="lnk8" id="link_Tarifpreis_Preis"><path codeLine="17" d="M349.89,134.17 C404.77,125.86 443.8627,119.9436 483.9027,113.8836" fill="none" id="Tarifpreis-to-Preis" style="stroke:#181818;stroke-width:1;"/><polygon fill="none" points="501.7,111.19,483.0048,107.9512,484.8005,119.816,501.7,111.19" style="stroke:#181818;stroke-width:1;"/></g><!--link Tarifpreis to Preistyp--><g class="link" data-entity-1="Tarifpreis" data-entity-2="Preistyp" data-source-line="18" data-uid="lnk9" id="link_Tarifpreis_Preistyp"><path codeLine="18" d="M349.89,185.38 C399.71,192.79 439.3209,198.6727 478.3409,204.4827" fill="none" id="Tarifpreis-to-Preistyp" style="stroke:#181818;stroke-width:1;"/><polygon fill="#181818" points="490.21,206.25,484.8645,201.41,478.3409,204.4827,483.6863,209.3227,490.21,206.25" style="stroke:#181818;stroke-width:1;"/><text fill="#000000" font-family="sans-serif" font-size="13" lengthAdjust="spacing" textLength="53.022" x="380.46" y="187.0669">preistyp</text><text fill="#000000" font-family="sans-serif" font-size="13" lengthAdjust="spacing" textLength="24.8066" x="457.6576" y="218.0782">0..1</text></g><!--SRC=[lPDDKy8m48RFvbVim0s7f7m9moWpw71L3fx4ZjEc2ytO9fqa5K7zxwPbe4NnA3djcxpPRf_T9BYqO1LeiOejH48Zjq99GdWI60EDnM8f4XmpjsAL8jEvbAZPMkbNTllGdxMpZOsLF8eZnGsZb56htdV2fXcBRPgm81CiL7saNAMqs6aUb0sqM6OQXQ6FXn2gqFUVvRKHMnntlCc9Mmq8wdRu81SlRwYD-niOWx4Q5Xwb7HzkeEjr1rw7UjIxNF4U7uw60uyxkuX-Ek-LH7AnpKrWjrDhjGXpYyxqTBHJ-bkLFqJ3OrT4cClLoOnVXCWWHPC57F-VCUoLxvUGzXAQCsywkhehK9sztRjEpyjMpV_kRzNQqkJ8dG4SohnEhf1rT8M6PjJXlS7e3EmErJGhMMAncsm7q0Mm3tvZFBfGeNIYcCFwOsktFoU7wTYbFZftXXOqYabkL2Ig4iQm_meXiOWGKan3zmA9YTKQwecM0fF8V0C0]--></g></svg>