<?xml version="1.0" encoding="us-ascii" standalone="no"?><svg xmlns="http://www.w3.org/2000/svg" xmlns:xlink="http://www.w3.org/1999/xlink" contentStyleType="text/css" height="282px" preserveAspectRatio="none" style="width:692px;height:282px;background:#FFFFFF;" version="1.1" viewBox="0 0 692 282" width="692px" zoomAndPan="magnify"><defs/><g><!--cluster bo4e--><g id="cluster_bo4e"><path d="M478.5,6 L519.5,6 A3.75,3.75 0 0 1 522,8.5 L529,28.2969 L682.5,28.2969 A2.5,2.5 0 0 1 685,30.7969 L685,272.5 A2.5,2.5 0 0 1 682.5,275 L478.5,275 A2.5,2.5 0 0 1 476,272.5 L476,8.5 A2.5,2.5 0 0 1 478.5,6 " fill="none" style="stroke:#000000;stroke-width:1.5;"/><line style="stroke:#000000;stroke-width:1.5;" x1="476" x2="529" y1="28.2969" y2="28.2969"/><text fill="#000000" font-family="sans-serif" font-size="14" font-weight="bold" lengthAdjust="spacing" textLength="40" x="480" y="20.9951">bo4e</text></g><!--cluster com--><g id="cluster_com"><path d="M514,49 L593,49 A3.75,3.75 0 0 1 595.5,51.5 L602.5,71.2969 L647,71.2969 A2.5,2.5 0 0 1 649.5,73.7969 L649.5,135.5 A2.5,2.5 0 0 1 647,138 L514,138 A2.5,2.5 0 0 1 511.5,135.5 L511.5,51.5 A2.5,2.5 0 0 1 514,49 " fill="#E0A86C" style="stroke:#000000;stroke-width:1.5;"/><line style="stroke:#000000;stroke-width:1.5;" x1="511.5" x2="602.5" y1="71.2969" y2="71.2969"/><a href="https://bo4e.github.io/BO4E-python/latest/api/bo4e.com.html" target="_top" title="https://bo4e.github.io/BO4E-python/latest/api/bo4e.com.html" xlink:actuate="onRequest" xlink:href="https://bo4e.github.io/BO4E-python/latest/api/bo4e.com.html" xlink:show="new" xlink:title="https://bo4e.github.io/BO4E-python/latest/api/bo4e.com.html" xlink:type="simple"><text fill="#0000FF" font-family="sans-serif" font-size="14" font-weight="bold" lengthAdjust="spacing" text-decoration="underline" textLength="78" x="515.5" y="63.9951">bo4e.com</text></a></g><!--cluster enum--><g id="cluster_enum"><path d="M502.5,162 L592.5,162 A3.75,3.75 0 0 1 595,164.5 L602,184.2969 L658.5,184.2969 A2.5,2.5 0 0 1 661,186.7969 L661,248.5 A2.5,2.5 0 0 1 658.5,251 L502.5,251 A2.5,2.5 0 0 1 500,248.5 L500,164.5 A2.5,2.5 0 0 1 502.5,162 " fill="#D1C358" style="stroke:#000000;stroke-width:1.5;"/><line style="stroke:#000000;stroke-width:1.5;" x1="500" x2="602" y1="184.2969" y2="184.2969"/><a href="https://bo4e.github.io/BO4E-python/latest/api/bo4e.enum.html" target="_top" title="https://bo4e.github.io/BO4E-python/latest/api/bo4e.enum.html" xlink:actuate="onRequest" xlink:href="https://bo4e.github.io/BO4E-python/latest/api/bo4e.enum.html" xlink:show="new" xlink:title="https://bo4e.github.io/BO4E-python/latest/api/bo4e.enum.html" xlink:type="simple"><text fill="#0000FF" font-family="sans-serif" font-size="14" font-weight="bold" lengthAdjust="spacing" text-decoration="underline" textLength="89" x="504" y="176.9951">bo4e.enum</text></a></g><!--class Preis--><g id="elem_Preis"><rect codeLine="11" fill="#F1F1F1" height="37.9375" id="Preis" rx="2.5" ry="2.5" style="stroke:#181818;stroke-width:0.5;" width="106" x="527.5" y="84.03"/><ellipse cx="542.5" cy="102.9988" fill="#ADD1B2" rx="11" ry="11" style="stroke:#181818;stroke-width:1.0;"/><path d="M545.4688,108.6394 Q544.8906,108.9363 544.25,109.0769 Q543.6094,109.2331 542.9063,109.2331 Q540.4063,109.2331 539.0781,107.5925 Q537.7656,105.9363 537.7656,102.8113 Q537.7656,99.6863 539.0781,98.03 Q540.4063,96.3738 542.9063,96.3738 Q543.6094,96.3738 544.25,96.53 Q544.9063,96.6863 545.4688,96.9831 L545.4688,99.7019 Q544.8438,99.1238 544.25,98.8581 Q543.6563,98.5769 543.0313,98.5769 Q541.6875,98.5769 541,99.655 Q540.3125,100.7175 540.3125,102.8113 Q540.3125,104.905 541,105.9831 Q541.6875,107.0456 543.0313,107.0456 Q543.6563,107.0456 544.25,106.78 Q544.8438,106.4988 545.4688,105.9206 L545.4688,108.6394 Z " fill="#000000"/><a href="https://bo4e.github.io/BO4E-python/latest/api/bo4e.com.html#bo4e.com.preis.Preis" target="_top" title="https://bo4e.github.io/BO4E-python/latest/api/bo4e.com.html#bo4e.com.preis.Preis" xlink:actuate="onRequest" xlink:href="https://bo4e.github.io/BO4E-python/latest/api/bo4e.com.html#bo4e.com.preis.Preis" xlink:show="new" xlink:title="https://bo4e.github.io/BO4E-python/latest/api/bo4e.com.html#bo4e.com.preis.Preis" xlink:type="simple"><text fill="#0000FF" font-family="sans-serif" font-size="14" lengthAdjust="spacing" text-decoration="underline" textLength="34" x="576.5" y="102.0251">Preis</text></a><text fill="#000000" font-family="sans-serif" font-size="10" lengthAdjust="spacing" textLength="74" x="556.5" y="114.6091">bo4e.com.preis</text></g><!--class Preistyp--><g id="elem_Preistyp"><rect codeLine="14" fill="#F1F1F1" height="37.9375" id="Preistyp" rx="2.5" ry="2.5" style="stroke:#181818;stroke-width:0.5;" width="129" x="516" y="197.03"/><ellipse cx="531" cy="215.9988" fill="#ADD1B2" rx="11" ry="11" style="stroke:#181818;stroke-width:1.0;"/><path d="M533.9688,221.6394 Q533.3906,221.9363 532.75,222.0769 Q532.1094,222.2331 531.4063,222.2331 Q528.9063,222.2331 527.5781,220.5925 Q526.2656,218.9363 526.2656,215.8113 Q526.2656,212.6863 527.5781,211.03 Q528.9063,209.3738 531.4063,209.3738 Q532.1094,209.3738 532.75,209.53 Q533.4063,209.6863 533.9688,209.9831 L533.9688,212.7019 Q533.3438,212.1238 532.75,211.8581 Q532.1563,211.5769 531.5313,211.5769 Q530.1875,211.5769 529.5,212.655 Q528.8125,213.7175 528.8125,215.8113 Q528.8125,217.905 529.5,218.9831 Q530.1875,220.0456 531.5313,220.0456 Q532.1563,220.0456 532.75,219.78 Q533.3438,219.4988 533.9688,218.9206 L533.9688,221.6394 Z " fill="#000000"/><a href="https://bo4e.github.io/BO4E-python/latest/api/bo4e.enum.html#bo4e.enum.preistyp.Preistyp" target="_top" title="https://bo4e.github.io/BO4E-python/latest/api/bo4e.enum.html#bo4e.enum.preistyp.Preistyp" xlink:actuate="onRequest" xlink:href="https://bo4e.github.io/BO4E-python/latest/api/bo4e.enum.html#bo4e.enum.preistyp.Preistyp" xlink:show="new" xlink:title="https://bo4e.github.io/BO4E-python/latest/api/bo4e.enum.html#bo4e.enum.preistyp.Preistyp" xlink:type="simple"><text fill="#0000FF" font-family="sans-serif" font-size="14" lengthAdjust="spacing" text-decoration="underline" textLength="55" x="566" y="215.0251">Preistyp</text></a><text fill="#000000" font-family="sans-serif" font-size="10" lengthAdjust="spacing" textLength="97" x="545" y="227.6091">bo4e.enum.preistyp</text></g><!--class Tarifpreis--><g id="elem_Tarifpreis"><rect codeLine="3" fill="#F1F1F1" height="111.125" id="Tarifpreis" rx="2.5" ry="2.5" style="stroke:#181818;stroke-width:0.5;" width="370" x="7" y="104.44"/><ellipse cx="140.75" cy="123.4088" fill="#ADD1B2" rx="11" ry="11" style="stroke:#181818;stroke-width:1.0;"/><path d="M143.7188,129.0494 Q143.1406,129.3463 142.5,129.4869 Q141.8594,129.6431 141.1563,129.6431 Q138.6563,129.6431 137.3281,128.0025 Q136.0156,126.3463 136.0156,123.2213 Q136.0156,120.0963 137.3281,118.44 Q138.6563,116.7838 141.1563,116.7838 Q141.8594,116.7838 142.5,116.94 Q143.1563,117.0963 143.7188,117.3931 L143.7188,120.1119 Q143.0938,119.5338 142.5,119.2681 Q141.9063,118.9869 141.2813,118.9869 Q139.9375,118.9869 139.25,120.065 Q138.5625,121.1275 138.5625,123.2213 Q138.5625,125.315 139.25,126.3931 Q139.9375,127.4556 141.2813,127.4556 Q141.9063,127.4556 142.5,127.19 Q143.0938,126.9088 143.7188,126.3306 L143.7188,129.0494 Z " fill="#000000"/><a href="https://bo4e.github.io/BO4E-python/latest/api/bo4e.com.html#bo4e.com.tarifpreis.Tarifpreis" target="_top" title="https://bo4e.github.io/BO4E-python/latest/api/bo4e.com.html#bo4e.com.tarifpreis.Tarifpreis" xlink:actuate="onRequest" xlink:href="https://bo4e.github.io/BO4E-python/latest/api/bo4e.com.html#bo4e.com.tarifpreis.Tarifpreis" xlink:show="new" xlink:title="https://bo4e.github.io/BO4E-python/latest/api/bo4e.com.html#bo4e.com.tarifpreis.Tarifpreis" xlink:type="simple"><text fill="#0000FF" font-family="sans-serif" font-size="14" lengthAdjust="spacing" text-decoration="underline" textLength="63" x="176.75" y="122.4351">Tarifpreis</text></a><text fill="#000000" font-family="sans-serif" font-size="10" lengthAdjust="spacing" textLength="94" x="161.25" y="135.0191">bo4e.com.tarifpreis</text><line style="stroke:#181818;stroke-width:0.5;" x1="8" x2="376" y1="142.3775" y2="142.3775"/><text fill="#000000" font-family="sans-serif" font-size="14" lengthAdjust="spacing" textLength="358" x="13" y="159.3726">_version : str [0..1] = 202401.6.1.dev8+gb2857c11</text><text fill="#000000" font-family="sans-serif" font-size="14" lengthAdjust="spacing" textLength="147" x="13" y="175.6695">_id : str [0..1] = None</text><text fill="#000000" font-family="sans-serif" font-size="14" lengthAdjust="spacing" textLength="311" x="13" y="191.9664">zusatzAttribute : ZusatzAttribut [0..*] = None</text><text fill="#000000" font-family="sans-serif" font-size="14" lengthAdjust="spacing" textLength="224" x="13" y="208.2632">beschreibung : str [0..1] = None</text></g><!--link Tarifpreis to Preis--><g id="link_Tarifpreis_Preis"><path codeLine="17" d="M377.48,132.79 C432.45,124.69 470.5629,119.068 509.5929,113.308 " fill="none" id="Tarifpreis-to-Preis" style="stroke:#181818;stroke-width:1.0;"/><polygon fill="none" points="527.4,110.68,508.7169,107.3722,510.4689,119.2437,527.4,110.68" style="stroke:#181818;stroke-width:1.0;"/></g><!--link Tarifpreis to Preistyp--><g id="link_Tarifpreis_Preistyp"><path codeLine="18" d="M377.48,186.73 C427.21,193.93 465.8341,199.5285 503.9141,205.0485 " fill="none" id="Tarifpreis-to-Preistyp" style="stroke:#181818;stroke-width:1.0;"/><polygon fill="#181818" points="515.79,206.77,510.4259,201.9506,503.9141,205.0485,509.2782,209.8679,515.79,206.77" style="stroke:#181818;stroke-width:1.0;"/><text fill="#000000" font-family="sans-serif" font-size="13" lengthAdjust="spacing" textLength="51" x="408" y="188.0669">preistyp</text><text fill="#000000" font-family="sans-serif" font-size="13" lengthAdjust="spacing" textLength="24" x="483.8793" y="218.6655">0..1</text></g><!--SRC=[hL9DJy9043spls9IRXYsBG8sZPAWuQeSF8cDwSVGRjAlTASOKF-xspQqHV64jtdjczbvxqsCMmBAe11XH1280dqIMSgO7xjIWhRPH4Ivj7NTowR8Gq5HwN6HwVTFqzKutrEKfNhi4ahItLmqB3zBU4H9F6mHkONOvWKAoP_R4hhISLxJMoaEQ9l6uaoN1cwV3XziyBR3GgfLmGP91MmCpaq7xc1YJAQ6oUVSv07khAlGcrYp6zyqLOi8Vh8VinJPu51AbmvBea9u9Q4YlPnygVcZZk-Xz2ErY5UcuTc9NuobRe8oTtsyq4Gu8iUfNJX26AwCfJL_gBputx2QdDQrqUk_q-c2gKbAywMICItxcYlO5rrX60QcVpspBbNTFZNiO2s8zdaZNHLmB7uRSDBGcQ10bNt_oCVZpqKRMZFwvByYZ42hhaVhP7Ohs71yXR5810W99fwwV2QZx1twWxO2uq1-0m00]--></g></svg>