<svg xmlns="http://www.w3.org/2000/svg" xmlns:xlink="http://www.w3.org/1999/xlink" contentStyleType="text/css" data-diagram-type="CLASS" height="282px" preserveAspectRatio="none" style="width:669px;height:282px;background:#FFFFFF;" version="1.1" viewBox="0 0 669 282" width="669px" zoomAndPan="magnify"><defs/><g><!--cluster bo4e--><g class="cluster" data-entity="bo4e" data-source-line="11" data-uid="ent0005" id="cluster_bo4e"><path d="M452.27,6 L492.146,6 A3.75,3.75 0 0 1 494.646,8.5 L501.646,28.2969 L659.96,28.2969 A2.5,2.5 0 0 1 662.46,30.7969 L662.46,272.5 A2.5,2.5 0 0 1 659.96,275 L452.27,275 A2.5,2.5 0 0 1 449.77,272.5 L449.77,8.5 A2.5,2.5 0 0 1 452.27,6" fill="none" style="stroke:#000000;stroke-width:1.5;"/><line style="stroke:#000000;stroke-width:1.5;" x1="449.77" x2="501.646" y1="28.2969" y2="28.2969"/><text fill="#000000" font-family="sans-serif" font-size="14" font-weight="bold" lengthAdjust="spacing" textLength="38.876" x="453.77" y="20.9951">bo4e</text></g><!--cluster com--><g class="cluster" data-entity="com" data-source-line="10" data-uid="ent0003" id="cluster_com"><path d="M487.96,49 L565.6592,49 A3.75,3.75 0 0 1 568.1592,51.5 L575.1592,71.2969 L624.26,71.2969 A2.5,2.5 0 0 1 626.76,73.7969 L626.76,135.5 A2.5,2.5 0 0 1 624.26,138 L487.96,138 A2.5,2.5 0 0 1 485.46,135.5 L485.46,51.5 A2.5,2.5 0 0 1 487.96,49" fill="#E0A86C" style="stroke:#000000;stroke-width:1.5;"/><line style="stroke:#000000;stroke-width:1.5;" x1="485.46" x2="575.1592" y1="71.2969" y2="71.2969"/><a href="file:////home/runner/work/BO4E-python/BO4E-python/docs/../.tox/docs/tmp/html/api/bo4e.com.html" target="_top" title="file:////home/runner/work/BO4E-python/BO4E-python/docs/../.tox/docs/tmp/html/api/bo4e.com.html" xlink:actuate="onRequest" xlink:href="file:////home/runner/work/BO4E-python/BO4E-python/docs/../.tox/docs/tmp/html/api/bo4e.com.html" xlink:show="new" xlink:title="file:////home/runner/work/BO4E-python/BO4E-python/docs/../.tox/docs/tmp/html/api/bo4e.com.html" xlink:type="simple"><text fill="#0000FF" font-family="sans-serif" font-size="14" font-weight="bold" lengthAdjust="spacing" text-decoration="underline" textLength="76.6992" x="489.46" y="63.9951">bo4e.com</text></a></g><!--cluster enum--><g class="cluster" data-entity="enum" data-source-line="13" data-uid="ent0006" id="cluster_enum"><path d="M476.27,162 L565.4809,162 A3.75,3.75 0 0 1 567.9809,164.5 L574.9809,184.2969 L635.96,184.2969 A2.5,2.5 0 0 1 638.46,186.7969 L638.46,248.5 A2.5,2.5 0 0 1 635.96,251 L476.27,251 A2.5,2.5 0 0 1 473.77,248.5 L473.77,164.5 A2.5,2.5 0 0 1 476.27,162" fill="#D1C358" style="stroke:#000000;stroke-width:1.5;"/><line style="stroke:#000000;stroke-width:1.5;" x1="473.77" x2="574.9809" y1="184.2969" y2="184.2969"/><a href="file:////home/runner/work/BO4E-python/BO4E-python/docs/../.tox/docs/tmp/html/api/bo4e.enum.html" target="_top" title="file:////home/runner/work/BO4E-python/BO4E-python/docs/../.tox/docs/tmp/html/api/bo4e.enum.html" xlink:actuate="onRequest" xlink:href="file:////home/runner/work/BO4E-python/BO4E-python/docs/../.tox/docs/tmp/html/api/bo4e.enum.html" xlink:show="new" xlink:title="file:////home/runner/work/BO4E-python/BO4E-python/docs/../.tox/docs/tmp/html/api/bo4e.enum.html" xlink:type="simple"><text fill="#0000FF" font-family="sans-serif" font-size="14" font-weight="bold" lengthAdjust="spacing" text-decoration="underline" textLength="88.2109" x="477.77" y="176.9951">bo4e.enum</text></a></g><!--class Preis--><g class="entity" data-entity="Preis" data-source-line="11" data-uid="ent0004" id="entity_Preis"><rect fill="#F1F1F1" height="37.9375" rx="2.5" ry="2.5" style="stroke:#181818;stroke-width:0.5;" width="109.2949" x="501.46" y="84.03"/><ellipse cx="516.46" cy="102.9988" fill="#ADD1B2" rx="11" ry="11" style="stroke:#181818;stroke-width:1;"/><path d="M519.4288,108.6394 Q518.8506,108.9363 518.21,109.0769 Q517.5694,109.2331 516.8663,109.2331 Q514.3663,109.2331 513.0381,107.5925 Q511.7256,105.9363 511.7256,102.8113 Q511.7256,99.6863 513.0381,98.03 Q514.3663,96.3738 516.8663,96.3738 Q517.5694,96.3738 518.21,96.53 Q518.8663,96.6863 519.4288,96.9831 L519.4288,99.7019 Q518.8038,99.1238 518.21,98.8581 Q517.6163,98.5769 516.9913,98.5769 Q515.6475,98.5769 514.96,99.655 Q514.2725,100.7175 514.2725,102.8113 Q514.2725,104.905 514.96,105.9831 Q515.6475,107.0456 516.9913,107.0456 Q517.6163,107.0456 518.21,106.78 Q518.8038,106.4988 519.4288,105.9206 L519.4288,108.6394 Z " fill="#000000"/><a href="file:////home/runner/work/BO4E-python/BO4E-python/docs/../.tox/docs/tmp/html/api/bo4e.com.html#bo4e.com.preis.Preis" target="_top" title="file:////home/runner/work/BO4E-python/BO4E-python/docs/../.tox/docs/tmp/html/api/bo4e.com.html#bo4e.com.preis.Preis" xlink:actuate="onRequest" xlink:href="file:////home/runner/work/BO4E-python/BO4E-python/docs/../.tox/docs/tmp/html/api/bo4e.com.html#bo4e.com.preis.Preis" xlink:show="new" xlink:title="file:////home/runner/work/BO4E-python/BO4E-python/docs/../.tox/docs/tmp/html/api/bo4e.com.html#bo4e.com.preis.Preis" xlink:type="simple"><text fill="#0000FF" font-family="sans-serif" font-size="14" lengthAdjust="spacing" text-decoration="underline" textLength="33.9951" x="552.1099" y="102.0251">Preis</text></a><text fill="#000000" font-family="sans-serif" font-size="10" lengthAdjust="spacing" textLength="77.2949" x="530.46" y="114.6091">bo4e.com.preis</text></g><!--class Preistyp--><g class="entity" data-entity="Preistyp" data-source-line="14" data-uid="ent0007" id="entity_Preistyp"><rect fill="#F1F1F1" height="37.9375" rx="2.5" ry="2.5" style="stroke:#181818;stroke-width:0.5;" width="132.6934" x="489.77" y="197.03"/><ellipse cx="504.77" cy="215.9988" fill="#ADD1B2" rx="11" ry="11" style="stroke:#181818;stroke-width:1;"/><path d="M507.7388,221.6394 Q507.1606,221.9363 506.52,222.0769 Q505.8794,222.2331 505.1763,222.2331 Q502.6763,222.2331 501.3481,220.5925 Q500.0356,218.9363 500.0356,215.8113 Q500.0356,212.6863 501.3481,211.03 Q502.6763,209.3738 505.1763,209.3738 Q505.8794,209.3738 506.52,209.53 Q507.1763,209.6863 507.7388,209.9831 L507.7388,212.7019 Q507.1138,212.1238 506.52,211.8581 Q505.9263,211.5769 505.3013,211.5769 Q503.9575,211.5769 503.27,212.655 Q502.5825,213.7175 502.5825,215.8113 Q502.5825,217.905 503.27,218.9831 Q503.9575,220.0456 505.3013,220.0456 Q505.9263,220.0456 506.52,219.78 Q507.1138,219.4988 507.7388,218.9206 L507.7388,221.6394 Z " fill="#000000"/><a href="file:////home/runner/work/BO4E-python/BO4E-python/docs/../.tox/docs/tmp/html/api/bo4e.enum.html#bo4e.enum.preistyp.Preistyp" target="_top" title="file:////home/runner/work/BO4E-python/BO4E-python/docs/../.tox/docs/tmp/html/api/bo4e.enum.html#bo4e.enum.preistyp.Preistyp" xlink:actuate="onRequest" xlink:href="file:////home/runner/work/BO4E-python/BO4E-python/docs/../.tox/docs/tmp/html/api/bo4e.enum.html#bo4e.enum.preistyp.Preistyp" xlink:show="new" xlink:title="file:////home/runner/work/BO4E-python/BO4E-python/docs/../.tox/docs/tmp/html/api/bo4e.enum.html#bo4e.enum.preistyp.Preistyp" xlink:type="simple"><text fill="#0000FF" font-family="sans-serif" font-size="14" lengthAdjust="spacing" text-decoration="underline" textLength="56.6563" x="540.7886" y="215.0251">Preistyp</text></a><text fill="#000000" font-family="sans-serif" font-size="10" lengthAdjust="spacing" textLength="100.6934" x="518.77" y="227.6091">bo4e.enum.preistyp</text></g><!--class Tarifpreis--><g class="entity" data-entity="Tarifpreis" data-source-line="3" data-uid="ent0002" id="entity_Tarifpreis"><rect fill="#F1F1F1" height="111.125" rx="2.5" ry="2.5" style="stroke:#181818;stroke-width:0.5;" width="341.7656" x="7" y="104.44"/><ellipse cx="124.7559" cy="123.4088" fill="#ADD1B2" rx="11" ry="11" style="stroke:#181818;stroke-width:1;"/><path d="M127.7246,129.0494 Q127.1465,129.3463 126.5059,129.4869 Q125.8652,129.6431 125.1621,129.6431 Q122.6621,129.6431 121.334,128.0025 Q120.0215,126.3463 120.0215,123.2213 Q120.0215,120.0963 121.334,118.44 Q122.6621,116.7838 125.1621,116.7838 Q125.8652,116.7838 126.5059,116.94 Q127.1621,117.0963 127.7246,117.3931 L127.7246,120.1119 Q127.0996,119.5338 126.5059,119.2681 Q125.9121,118.9869 125.2871,118.9869 Q123.9434,118.9869 123.2559,120.065 Q122.5684,121.1275 122.5684,123.2213 Q122.5684,125.315 123.2559,126.3931 Q123.9434,127.4556 125.2871,127.4556 Q125.9121,127.4556 126.5059,127.19 Q127.0996,126.9088 127.7246,126.3306 L127.7246,129.0494 Z " fill="#000000"/><a href="file:////home/runner/work/BO4E-python/BO4E-python/docs/../.tox/docs/tmp/html/api/bo4e.com.html#bo4e.com.tarifpreis.Tarifpreis" target="_top" title="file:////home/runner/work/BO4E-python/BO4E-python/docs/../.tox/docs/tmp/html/api/bo4e.com.html#bo4e.com.tarifpreis.Tarifpreis" xlink:actuate="onRequest" xlink:href="file:////home/runner/work/BO4E-python/BO4E-python/docs/../.tox/docs/tmp/html/api/bo4e.com.html#bo4e.com.tarifpreis.Tarifpreis" xlink:show="new" xlink:title="file:////home/runner/work/BO4E-python/BO4E-python/docs/../.tox/docs/tmp/html/api/bo4e.com.html#bo4e.com.tarifpreis.Tarifpreis" xlink:type="simple"><text fill="#0000FF" font-family="sans-serif" font-size="14" lengthAdjust="spacing" text-decoration="underline" textLength="66.1445" x="161.0605" y="122.4351">Tarifpreis</text></a><text fill="#000000" font-family="sans-serif" font-size="10" lengthAdjust="spacing" textLength="97.7539" x="145.2559" y="135.0191">bo4e.com.tarifpreis</text><line style="stroke:#181818;stroke-width:0.5;" x1="8" x2="347.7656" y1="142.3775" y2="142.3775"/><text fill="#000000" font-family="sans-serif" font-size="14" lengthAdjust="spacing" textLength="329.7656" x="13" y="159.3726">_version : str [0..1] = 202501.0.0+g64af9038d</text><text fill="#000000" font-family="sans-serif" font-size="14" lengthAdjust="spacing" textLength="151.1768" x="13" y="175.6695">_id : str [0..1] = None</text><text fill="#000000" font-family="sans-serif" font-size="14" lengthAdjust="spacing" textLength="318.5752" x="13" y="191.9664">zusatzAttribute : ZusatzAttribut [0..*] = None</text><text fill="#000000" font-family="sans-serif" font-size="14" lengthAdjust="spacing" textLength="226.543" x="13" y="208.2632">beschreibung : str [0..1] = None</text></g><!--link Tarifpreis to Preis--><g class="link" data-entity-1="Tarifpreis" data-entity-2="Preis" data-source-line="17" data-uid="lnk8" id="link_Tarifpreis_Preis"><path codeLine="17" d="M349.11,134.21 C403.98,125.9 443.103,119.966 483.173,113.896" fill="none" id="Tarifpreis-to-Preis" style="stroke:#181818;stroke-width:1;"/><polygon fill="none" points="500.97,111.2,482.2744,107.9637,484.0717,119.8283,500.97,111.2" style="stroke:#181818;stroke-width:1;"/></g><!--link Tarifpreis to Preistyp--><g class="link" data-entity-1="Tarifpreis" data-entity-2="Preistyp" data-source-line="18" data-uid="lnk9" id="link_Tarifpreis_Preistyp"><path codeLine="18" d="M349.11,185.34 C398.92,192.75 438.5507,198.654 477.6007,204.464" fill="none" id="Tarifpreis-to-Preistyp" style="stroke:#181818;stroke-width:1;"/><polygon fill="#181818" points="489.47,206.23,484.124,201.3906,477.6007,204.464,482.9467,209.3035,489.47,206.23" style="stroke:#181818;stroke-width:1;"/><text fill="#000000" font-family="sans-serif" font-size="13" lengthAdjust="spacing" textLength="53.022" x="379.77" y="187.0669">preistyp</text><text fill="#000000" font-family="sans-serif" font-size="13" lengthAdjust="spacing" textLength="24.8066" x="456.9121" y="218.056">0..1</text></g><!--SRC=[lPDDKy8m48RFvbVim0s7f7mECieCEboLWoUnu_HZIpEsIIT9HL3_ksaPsg9ub9psJTvijyzk4emC60cAhsC38LSO62u58K7YQGsjrIhY2KwPNR5CaQbS25Hi8zKhktqOBhhPriHI7CMX33IZb54Zt_V2f1cBJPemB-FCbqEaWKnfiTEkbF4KZpA5NDF7AeGwTDrdSQtv3gSzPtRYLWkyfXq-oCNB6ofj_mQce8s2bKDfpuKRw3lzaTEZ3dKkr-EX5rqvWqbexJpywRoN0id5BjUUsSsDKTpF3LhJqz5EwU_KVXzr4DiY_5oiJsRy8aHuAUhC2_3_6SD1kMu9wI2XlN3ca_5TWUhixTvtUbcsQlbtV-lMbYPBxWpWKEHDSeLieYiqjCDUC1XDpi2kggPTonABsMPxW3Q0G_0Ruz656gKLnHms7rkt-pchfcEV-kZS6ZhGAYQvLPEeIvZ2uIk4n3n4I37rxGiaEfORQ2QAE2QX_WO0]--></g></svg>