<?xml version="1.0" encoding="us-ascii" standalone="no"?><svg xmlns="http://www.w3.org/2000/svg" xmlns:xlink="http://www.w3.org/1999/xlink" contentStyleType="text/css" height="501px" preserveAspectRatio="none" style="width:615px;height:501px;background:#FFFFFF;" version="1.1" viewBox="0 0 615 501" width="615px" zoomAndPan="magnify"><defs/><g><!--cluster bo4e--><g id="cluster_bo4e"><path d="M355.5,6 L396.5,6 A3.75,3.75 0 0 1 399,8.5 L406,28.2969 L605.5,28.2969 A2.5,2.5 0 0 1 608,30.7969 L608,491.5 A2.5,2.5 0 0 1 605.5,494 L355.5,494 A2.5,2.5 0 0 1 353,491.5 L353,8.5 A2.5,2.5 0 0 1 355.5,6 " fill="none" style="stroke:#000000;stroke-width:1.5;"/><line style="stroke:#000000;stroke-width:1.5;" x1="353" x2="406" y1="28.2969" y2="28.2969"/><text fill="#000000" font-family="sans-serif" font-size="14" font-weight="bold" lengthAdjust="spacing" textLength="40" x="357" y="20.9951">bo4e</text></g><!--cluster com--><g id="cluster_com"><path d="M398.5,49 L477.5,49 A3.75,3.75 0 0 1 480,51.5 L487,71.2969 L562.5,71.2969 A2.5,2.5 0 0 1 565,73.7969 L565,208.5 A2.5,2.5 0 0 1 562.5,211 L398.5,211 A2.5,2.5 0 0 1 396,208.5 L396,51.5 A2.5,2.5 0 0 1 398.5,49 " fill="#E0A86C" style="stroke:#000000;stroke-width:1.5;"/><line style="stroke:#000000;stroke-width:1.5;" x1="396" x2="487" y1="71.2969" y2="71.2969"/><a href="https://bo4e.github.io/BO4E-python/latest/api/bo4e.com.html" target="_top" title="https://bo4e.github.io/BO4E-python/latest/api/bo4e.com.html" xlink:actuate="onRequest" xlink:href="https://bo4e.github.io/BO4E-python/latest/api/bo4e.com.html" xlink:show="new" xlink:title="https://bo4e.github.io/BO4E-python/latest/api/bo4e.com.html" xlink:type="simple"><text fill="#0000FF" font-family="sans-serif" font-size="14" font-weight="bold" lengthAdjust="spacing" text-decoration="underline" textLength="78" x="400" y="63.9951">bo4e.com</text></a></g><!--cluster enum--><g id="cluster_enum"><path d="M379.5,235 L469.5,235 A3.75,3.75 0 0 1 472,237.5 L479,257.2969 L581.5,257.2969 A2.5,2.5 0 0 1 584,259.7969 L584,467.5 A2.5,2.5 0 0 1 581.5,470 L379.5,470 A2.5,2.5 0 0 1 377,467.5 L377,237.5 A2.5,2.5 0 0 1 379.5,235 " fill="#D1C358" style="stroke:#000000;stroke-width:1.5;"/><line style="stroke:#000000;stroke-width:1.5;" x1="377" x2="479" y1="257.2969" y2="257.2969"/><a href="https://bo4e.github.io/BO4E-python/latest/api/bo4e.enum.html" target="_top" title="https://bo4e.github.io/BO4E-python/latest/api/bo4e.enum.html" xlink:actuate="onRequest" xlink:href="https://bo4e.github.io/BO4E-python/latest/api/bo4e.enum.html" xlink:show="new" xlink:title="https://bo4e.github.io/BO4E-python/latest/api/bo4e.enum.html" xlink:type="simple"><text fill="#0000FF" font-family="sans-serif" font-size="14" font-weight="bold" lengthAdjust="spacing" text-decoration="underline" textLength="89" x="381" y="249.9951">bo4e.enum</text></a></g><!--class COM--><g id="elem_COM"><rect codeLine="7" fill="#F1F1F1" height="37.9375" id="COM" rx="2.5" ry="2.5" style="stroke:#181818;stroke-width:0.5;" width="104" x="428.5" y="84.03"/><ellipse cx="443.5" cy="102.9987" fill="#ADD1B2" rx="11" ry="11" style="stroke:#181818;stroke-width:1.0;"/><path d="M446.4688,108.6394 Q445.8906,108.9362 445.25,109.0769 Q444.6094,109.2331 443.9063,109.2331 Q441.4063,109.2331 440.0781,107.5925 Q438.7656,105.9362 438.7656,102.8112 Q438.7656,99.6862 440.0781,98.03 Q441.4063,96.3737 443.9063,96.3737 Q444.6094,96.3737 445.25,96.53 Q445.9063,96.6862 446.4688,96.9831 L446.4688,99.7019 Q445.8438,99.1237 445.25,98.8581 Q444.6563,98.5769 444.0313,98.5769 Q442.6875,98.5769 442,99.655 Q441.3125,100.7175 441.3125,102.8112 Q441.3125,104.905 442,105.9831 Q442.6875,107.0456 444.0313,107.0456 Q444.6563,107.0456 445.25,106.78 Q445.8438,106.4987 446.4688,105.9206 L446.4688,108.6394 Z " fill="#000000"/><a href="https://bo4e.github.io/BO4E-python/latest/api/bo4e.com.html#bo4e.com.com.COM" target="_top" title="https://bo4e.github.io/BO4E-python/latest/api/bo4e.com.html#bo4e.com.com.COM" xlink:actuate="onRequest" xlink:href="https://bo4e.github.io/BO4E-python/latest/api/bo4e.com.html#bo4e.com.com.COM" xlink:show="new" xlink:title="https://bo4e.github.io/BO4E-python/latest/api/bo4e.com.html#bo4e.com.com.COM" xlink:type="simple"><text fill="#0000FF" font-family="sans-serif" font-size="14" lengthAdjust="spacing" text-decoration="underline" textLength="33" x="477" y="102.0251">COM</text></a><text fill="#000000" font-family="sans-serif" font-size="10" lengthAdjust="spacing" textLength="72" x="457.5" y="114.6091">bo4e.com.com</text></g><!--class Preisstaffel--><g id="elem_Preisstaffel"><rect codeLine="8" fill="#F1F1F1" height="37.9375" id="Preisstaffel" rx="2.5" ry="2.5" style="stroke:#181818;stroke-width:0.5;" width="137" x="412" y="157.03"/><ellipse cx="427" cy="175.9987" fill="#ADD1B2" rx="11" ry="11" style="stroke:#181818;stroke-width:1.0;"/><path d="M429.9688,181.6394 Q429.3906,181.9362 428.75,182.0769 Q428.1094,182.2331 427.4063,182.2331 Q424.9063,182.2331 423.5781,180.5925 Q422.2656,178.9362 422.2656,175.8112 Q422.2656,172.6862 423.5781,171.03 Q424.9063,169.3737 427.4063,169.3737 Q428.1094,169.3737 428.75,169.53 Q429.4063,169.6862 429.9688,169.9831 L429.9688,172.7019 Q429.3438,172.1237 428.75,171.8581 Q428.1563,171.5769 427.5313,171.5769 Q426.1875,171.5769 425.5,172.655 Q424.8125,173.7175 424.8125,175.8112 Q424.8125,177.905 425.5,178.9831 Q426.1875,180.0456 427.5313,180.0456 Q428.1563,180.0456 428.75,179.78 Q429.3438,179.4987 429.9688,178.9206 L429.9688,181.6394 Z " fill="#000000"/><a href="https://bo4e.github.io/BO4E-python/latest/api/bo4e.com.html#bo4e.com.preisstaffel.Preisstaffel" target="_top" title="https://bo4e.github.io/BO4E-python/latest/api/bo4e.com.html#bo4e.com.preisstaffel.Preisstaffel" xlink:actuate="onRequest" xlink:href="https://bo4e.github.io/BO4E-python/latest/api/bo4e.com.html#bo4e.com.preisstaffel.Preisstaffel" xlink:show="new" xlink:title="https://bo4e.github.io/BO4E-python/latest/api/bo4e.com.html#bo4e.com.preisstaffel.Preisstaffel" xlink:type="simple"><text fill="#0000FF" font-family="sans-serif" font-size="14" lengthAdjust="spacing" text-decoration="underline" textLength="75" x="456" y="175.0251">Preisstaffel</text></a><text fill="#000000" font-family="sans-serif" font-size="10" lengthAdjust="spacing" textLength="105" x="441" y="187.6091">bo4e.com.preisstaffel</text></g><!--class Mengeneinheit--><g id="elem_Mengeneinheit"><rect codeLine="11" fill="#F1F1F1" height="37.9375" id="Mengeneinheit" rx="2.5" ry="2.5" style="stroke:#181818;stroke-width:0.5;" width="162" x="399.5" y="270.03"/><ellipse cx="414.5" cy="288.9988" fill="#ADD1B2" rx="11" ry="11" style="stroke:#181818;stroke-width:1.0;"/><path d="M417.4688,294.6394 Q416.8906,294.9363 416.25,295.0769 Q415.6094,295.2331 414.9063,295.2331 Q412.4063,295.2331 411.0781,293.5925 Q409.7656,291.9363 409.7656,288.8113 Q409.7656,285.6863 411.0781,284.03 Q412.4063,282.3738 414.9063,282.3738 Q415.6094,282.3738 416.25,282.53 Q416.9063,282.6863 417.4688,282.9831 L417.4688,285.7019 Q416.8438,285.1238 416.25,284.8581 Q415.6563,284.5769 415.0313,284.5769 Q413.6875,284.5769 413,285.655 Q412.3125,286.7175 412.3125,288.8113 Q412.3125,290.905 413,291.9831 Q413.6875,293.0456 415.0313,293.0456 Q415.6563,293.0456 416.25,292.78 Q416.8438,292.4988 417.4688,291.9206 L417.4688,294.6394 Z " fill="#000000"/><a href="https://bo4e.github.io/BO4E-python/latest/api/bo4e.enum.html#bo4e.enum.mengeneinheit.Mengeneinheit" target="_top" title="https://bo4e.github.io/BO4E-python/latest/api/bo4e.enum.html#bo4e.enum.mengeneinheit.Mengeneinheit" xlink:actuate="onRequest" xlink:href="https://bo4e.github.io/BO4E-python/latest/api/bo4e.enum.html#bo4e.enum.mengeneinheit.Mengeneinheit" xlink:show="new" xlink:title="https://bo4e.github.io/BO4E-python/latest/api/bo4e.enum.html#bo4e.enum.mengeneinheit.Mengeneinheit" xlink:type="simple"><text fill="#0000FF" font-family="sans-serif" font-size="14" lengthAdjust="spacing" text-decoration="underline" textLength="104" x="441.5" y="288.0251">Mengeneinheit</text></a><text fill="#000000" font-family="sans-serif" font-size="10" lengthAdjust="spacing" textLength="130" x="428.5" y="300.6091">bo4e.enum.mengeneinheit</text></g><!--class Preistyp--><g id="elem_Preistyp"><rect codeLine="12" fill="#F1F1F1" height="37.9375" id="Preistyp" rx="2.5" ry="2.5" style="stroke:#181818;stroke-width:0.5;" width="129" x="416" y="343.03"/><ellipse cx="431" cy="361.9988" fill="#ADD1B2" rx="11" ry="11" style="stroke:#181818;stroke-width:1.0;"/><path d="M433.9688,367.6394 Q433.3906,367.9363 432.75,368.0769 Q432.1094,368.2331 431.4063,368.2331 Q428.9063,368.2331 427.5781,366.5925 Q426.2656,364.9363 426.2656,361.8113 Q426.2656,358.6863 427.5781,357.03 Q428.9063,355.3738 431.4063,355.3738 Q432.1094,355.3738 432.75,355.53 Q433.4063,355.6863 433.9688,355.9831 L433.9688,358.7019 Q433.3438,358.1238 432.75,357.8581 Q432.1563,357.5769 431.5313,357.5769 Q430.1875,357.5769 429.5,358.655 Q428.8125,359.7175 428.8125,361.8113 Q428.8125,363.905 429.5,364.9831 Q430.1875,366.0456 431.5313,366.0456 Q432.1563,366.0456 432.75,365.78 Q433.3438,365.4988 433.9688,364.9206 L433.9688,367.6394 Z " fill="#000000"/><a href="https://bo4e.github.io/BO4E-python/latest/api/bo4e.enum.html#bo4e.enum.preistyp.Preistyp" target="_top" title="https://bo4e.github.io/BO4E-python/latest/api/bo4e.enum.html#bo4e.enum.preistyp.Preistyp" xlink:actuate="onRequest" xlink:href="https://bo4e.github.io/BO4E-python/latest/api/bo4e.enum.html#bo4e.enum.preistyp.Preistyp" xlink:show="new" xlink:title="https://bo4e.github.io/BO4E-python/latest/api/bo4e.enum.html#bo4e.enum.preistyp.Preistyp" xlink:type="simple"><text fill="#0000FF" font-family="sans-serif" font-size="14" lengthAdjust="spacing" text-decoration="underline" textLength="55" x="466" y="361.0251">Preistyp</text></a><text fill="#000000" font-family="sans-serif" font-size="10" lengthAdjust="spacing" textLength="97" x="445" y="373.6091">bo4e.enum.preistyp</text></g><!--class Waehrungseinheit--><g id="elem_Waehrungseinheit"><rect codeLine="13" fill="#F1F1F1" height="37.9375" id="Waehrungseinheit" rx="2.5" ry="2.5" style="stroke:#181818;stroke-width:0.5;" width="175" x="393" y="416.03"/><ellipse cx="408" cy="434.9988" fill="#ADD1B2" rx="11" ry="11" style="stroke:#181818;stroke-width:1.0;"/><path d="M410.9688,440.6394 Q410.3906,440.9363 409.75,441.0769 Q409.1094,441.2331 408.4063,441.2331 Q405.9063,441.2331 404.5781,439.5925 Q403.2656,437.9363 403.2656,434.8113 Q403.2656,431.6863 404.5781,430.03 Q405.9063,428.3738 408.4063,428.3738 Q409.1094,428.3738 409.75,428.53 Q410.4063,428.6863 410.9688,428.9831 L410.9688,431.7019 Q410.3438,431.1238 409.75,430.8581 Q409.1563,430.5769 408.5313,430.5769 Q407.1875,430.5769 406.5,431.655 Q405.8125,432.7175 405.8125,434.8113 Q405.8125,436.905 406.5,437.9831 Q407.1875,439.0456 408.5313,439.0456 Q409.1563,439.0456 409.75,438.78 Q410.3438,438.4988 410.9688,437.9206 L410.9688,440.6394 Z " fill="#000000"/><a href="https://bo4e.github.io/BO4E-python/latest/api/bo4e.enum.html#bo4e.enum.waehrungseinheit.Waehrungseinheit" target="_top" title="https://bo4e.github.io/BO4E-python/latest/api/bo4e.enum.html#bo4e.enum.waehrungseinheit.Waehrungseinheit" xlink:actuate="onRequest" xlink:href="https://bo4e.github.io/BO4E-python/latest/api/bo4e.enum.html#bo4e.enum.waehrungseinheit.Waehrungseinheit" xlink:show="new" xlink:title="https://bo4e.github.io/BO4E-python/latest/api/bo4e.enum.html#bo4e.enum.waehrungseinheit.Waehrungseinheit" xlink:type="simple"><text fill="#0000FF" font-family="sans-serif" font-size="14" lengthAdjust="spacing" text-decoration="underline" textLength="126" x="430.5" y="434.0251">Waehrungseinheit</text></a><text fill="#000000" font-family="sans-serif" font-size="10" lengthAdjust="spacing" textLength="143" x="422" y="446.6091">bo4e.enum.waehrungseinheit</text></g><!--class Tarifpreisposition--><g id="elem_Tarifpreisposition"><rect codeLine="3" fill="#F1F1F1" height="45.9375" id="Tarifpreisposition" rx="2.5" ry="2.5" style="stroke:#181818;stroke-width:0.5;" width="163" x="7" y="245.03"/><ellipse cx="22" cy="263.9988" fill="#ADD1B2" rx="11" ry="11" style="stroke:#181818;stroke-width:1.0;"/><path d="M24.9688,269.6394 Q24.3906,269.9363 23.75,270.0769 Q23.1094,270.2331 22.4063,270.2331 Q19.9063,270.2331 18.5781,268.5925 Q17.2656,266.9363 17.2656,263.8113 Q17.2656,260.6863 18.5781,259.03 Q19.9063,257.3738 22.4063,257.3738 Q23.1094,257.3738 23.75,257.53 Q24.4063,257.6863 24.9688,257.9831 L24.9688,260.7019 Q24.3438,260.1238 23.75,259.8581 Q23.1563,259.5769 22.5313,259.5769 Q21.1875,259.5769 20.5,260.655 Q19.8125,261.7175 19.8125,263.8113 Q19.8125,265.905 20.5,266.9831 Q21.1875,268.0456 22.5313,268.0456 Q23.1563,268.0456 23.75,267.78 Q24.3438,267.4988 24.9688,266.9206 L24.9688,269.6394 Z " fill="#000000"/><a href="https://bo4e.github.io/BO4E-python/latest/api/bo4e.com.html#bo4e.com.tarifpreisposition.Tarifpreisposition" target="_top" title="https://bo4e.github.io/BO4E-python/latest/api/bo4e.com.html#bo4e.com.tarifpreisposition.Tarifpreisposition" xlink:actuate="onRequest" xlink:href="https://bo4e.github.io/BO4E-python/latest/api/bo4e.com.html#bo4e.com.tarifpreisposition.Tarifpreisposition" xlink:show="new" xlink:title="https://bo4e.github.io/BO4E-python/latest/api/bo4e.com.html#bo4e.com.tarifpreisposition.Tarifpreisposition" xlink:type="simple"><text fill="#0000FF" font-family="sans-serif" font-size="14" lengthAdjust="spacing" text-decoration="underline" textLength="118" x="42.5" y="263.0251">Tarifpreisposition</text></a><text fill="#000000" font-family="sans-serif" font-size="10" lengthAdjust="spacing" textLength="131" x="36" y="275.6091">bo4e.com.tarifpreisposition</text><line style="stroke:#181818;stroke-width:0.5;" x1="8" x2="169" y1="282.9675" y2="282.9675"/></g><!--link Tarifpreisposition to COM--><g id="link_Tarifpreisposition_COM"><path codeLine="16" d="M116.05,244.75 C137.49,226.94 169.09,202.82 200,187 C274.99,148.63 352.8423,128.3602 410.5623,116.2702 " fill="none" id="Tarifpreisposition-to-COM" style="stroke:#181818;stroke-width:1.0;"/><polygon fill="none" points="428.18,112.58,409.3323,110.3976,411.7924,122.1427,428.18,112.58" style="stroke:#181818;stroke-width:1.0;"/></g><!--link Tarifpreisposition to Preistyp--><g id="link_Tarifpreisposition_Preistyp"><path codeLine="17" d="M120.09,291.3 C141.33,306.17 170.93,324.4 200,334 C271.31,357.56 345.9705,362.8019 403.7105,363.3219 " fill="none" id="Tarifpreisposition-to-Preistyp" style="stroke:#181818;stroke-width:1.0;"/><polygon fill="#181818" points="415.71,363.43,409.7463,359.3761,403.7105,363.3219,409.6742,367.3758,415.71,363.43" style="stroke:#181818;stroke-width:1.0;"/><text fill="#000000" font-family="sans-serif" font-size="13" lengthAdjust="spacing" textLength="51" x="243" y="330.0669">preistyp</text><text fill="#000000" font-family="sans-serif" font-size="13" lengthAdjust="spacing" textLength="24" x="383.791" y="376.4248">0..1</text></g><!--link Tarifpreisposition to Waehrungseinheit--><g id="link_Tarifpreisposition_Waehrungseinheit"><path codeLine="18" d="M104.39,291.09 C123.2,318.23 158.21,362.42 200,385 C259.3,417.05 323.0331,428.2396 380.6931,432.5296 " fill="none" id="Tarifpreisposition-to-Waehrungseinheit" style="stroke:#181818;stroke-width:1.0;"/><polygon fill="#181818" points="392.66,433.42,386.9733,428.9858,380.6931,432.5296,386.3798,436.9638,392.66,433.42" style="stroke:#181818;stroke-width:1.0;"/><text fill="#000000" font-family="sans-serif" font-size="13" lengthAdjust="spacing" textLength="43" x="247" y="381.0669">einheit</text><text fill="#000000" font-family="sans-serif" font-size="13" lengthAdjust="spacing" textLength="24" x="361.016" y="445.9453">0..1</text></g><!--link Tarifpreisposition to Mengeneinheit--><g id="link_Tarifpreisposition_Mengeneinheit"><path codeLine="19" d="M170.35,270.52 C218.72,272.21 281.41,274.73 337,278 C357.19,279.19 366.9952,279.811 387.3052,281.371 " fill="none" id="Tarifpreisposition-to-Mengeneinheit" style="stroke:#181818;stroke-width:1.0;"/><polygon fill="#181818" points="399.27,282.29,393.594,277.8422,387.3052,281.371,392.9813,285.8187,399.27,282.29" style="stroke:#181818;stroke-width:1.0;"/><text fill="#000000" font-family="sans-serif" font-size="13" lengthAdjust="spacing" textLength="89" x="224" y="268.0669">bezugseinheit</text><text fill="#000000" font-family="sans-serif" font-size="13" lengthAdjust="spacing" textLength="24" x="367.5494" y="294.4279">0..1</text></g><!--link Tarifpreisposition to Mengeneinheit--><g id="link_Tarifpreisposition_Mengeneinheit"><path codeLine="20" d="M151.81,291.39 C167.33,296.2 184.09,300.54 200,303 C266.62,313.3 331.2151,309.747 387.3251,303.027 " fill="none" id="Tarifpreisposition-to-Mengeneinheit-1" style="stroke:#181818;stroke-width:1.0;"/><polygon fill="#181818" points="399.24,301.6,392.8069,298.3419,387.3251,303.027,393.7582,306.2851,399.24,301.6" style="stroke:#181818;stroke-width:1.0;"/><text fill="#000000" font-family="sans-serif" font-size="13" lengthAdjust="spacing" textLength="135" x="201" y="299.0669">mengeneinheitstaffel</text><text fill="#000000" font-family="sans-serif" font-size="13" lengthAdjust="spacing" textLength="24" x="367.5169" y="315.337">0..1</text></g><!--link Tarifpreisposition to Preisstaffel--><g id="link_Tarifpreisposition_Preisstaffel"><path codeLine="21" d="M170.31,248.94 C241.7,232.1 332.9505,210.5647 400.1105,194.7247 " fill="none" id="Tarifpreisposition-to-Preisstaffel" style="stroke:#181818;stroke-width:1.0;"/><polygon fill="#181818" points="411.79,191.97,405.032,189.4542,400.1105,194.7247,406.8685,197.2405,411.79,191.97" style="stroke:#181818;stroke-width:1.0;"/><text fill="#000000" font-family="sans-serif" font-size="13" lengthAdjust="spacing" textLength="78" x="229.5" y="208.0669">preisstaffeln</text><text fill="#000000" font-family="sans-serif" font-size="13" lengthAdjust="spacing" textLength="23" x="380.8943" y="206.3539">0..*</text></g><!--SRC=[hLLTQy8m57rUVyMblWccojoGCeHDV1JtCDY3wqEijoRGfgL94TtstvTMQp-LRVOXq7Ev7oVd9AcFdW8LGiotJC66n-Wg7Wh3S7qg9PYh5LCgahPbhSCnaYrNB5aJ7belo_5y4EqL2uNbKuLIMJJYnomt30XJWTyx8qLZxaKnSXc5agSJo5iZ1CsGuto89yaFQ8-6qolTJA2ofHm-ZM_343H06L4NRzmEvCXnidavXDvy-3nvdEbfTztAbgxPSW5wjIkXLqP59tGzEnDIAkfvw9FN4e0oQATLhitubKkq9RSwWY8fMvB2iYSfXjvcvDu_J6urvJogLy00nHO5Si6GAx8e8wYWfZhD-ensfQfxmfaVQXyTVTGVa7zSO9WN5EPfq3sl7KKM9s8hSotVQm6e1oxmhJVAUDThqxUWxTaP3BwcvykSthVMB9tM1tD8oCWiJbaXg0svPd-eRcpNXfphxvjKpvyDQpmanPx_twToIlExUxLTtonahBmO9t5EKFzT6D-W7X2iCPQ6PE4EsXfx7FsD_040]--></g></svg>