<svg xmlns="http://www.w3.org/2000/svg" xmlns:xlink="http://www.w3.org/1999/xlink" contentStyleType="text/css" data-diagram-type="CLASS" height="355px" preserveAspectRatio="none" style="width:998px;height:355px;background:#FFFFFF;" version="1.1" viewBox="0 0 998 355" width="998px" zoomAndPan="magnify"><defs/><g><!--cluster bo4e--><g class="cluster" data-entity="bo4e" data-source-line="12" data-uid="ent0005" id="cluster_bo4e"><path d="M743.09,6 L782.966,6 A3.75,3.75 0 0 1 785.466,8.5 L792.466,28.2969 L989.4,28.2969 A2.5,2.5 0 0 1 991.9,30.7969 L991.9,345.5 A2.5,2.5 0 0 1 989.4,348 L743.09,348 A2.5,2.5 0 0 1 740.59,345.5 L740.59,8.5 A2.5,2.5 0 0 1 743.09,6" fill="none" style="stroke:#000000;stroke-width:1.5;"/><line style="stroke:#000000;stroke-width:1.5;" x1="740.59" x2="792.466" y1="28.2969" y2="28.2969"/><text fill="#000000" font-family="sans-serif" font-size="14" font-weight="bold" lengthAdjust="spacing" textLength="38.876" x="744.59" y="20.9951">bo4e</text></g><!--cluster com--><g class="cluster" data-entity="com" data-source-line="11" data-uid="ent0003" id="cluster_com"><path d="M799.72,49 L877.4192,49 A3.75,3.75 0 0 1 879.9192,51.5 L886.9192,71.2969 L932.77,71.2969 A2.5,2.5 0 0 1 935.27,73.7969 L935.27,135.5 A2.5,2.5 0 0 1 932.77,138 L799.72,138 A2.5,2.5 0 0 1 797.22,135.5 L797.22,51.5 A2.5,2.5 0 0 1 799.72,49" fill="#E0A86C" style="stroke:#000000;stroke-width:1.5;"/><line style="stroke:#000000;stroke-width:1.5;" x1="797.22" x2="886.9192" y1="71.2969" y2="71.2969"/><a href="https://bo4e.github.io/BO4E-python/latest/api/bo4e.com.html" target="_top" title="https://bo4e.github.io/BO4E-python/latest/api/bo4e.com.html" xlink:actuate="onRequest" xlink:href="https://bo4e.github.io/BO4E-python/latest/api/bo4e.com.html" xlink:show="new" xlink:title="https://bo4e.github.io/BO4E-python/latest/api/bo4e.com.html" xlink:type="simple"><text fill="#0000FF" font-family="sans-serif" font-size="14" font-weight="bold" lengthAdjust="spacing" text-decoration="underline" textLength="76.6992" x="801.22" y="63.9951">bo4e.com</text></a></g><!--cluster enum--><g class="cluster" data-entity="enum" data-source-line="14" data-uid="ent0006" id="cluster_enum"><path d="M767.09,162 L856.3009,162 A3.75,3.75 0 0 1 858.8009,164.5 L865.8009,184.2969 L965.4,184.2969 A2.5,2.5 0 0 1 967.9,186.7969 L967.9,321.5 A2.5,2.5 0 0 1 965.4,324 L767.09,324 A2.5,2.5 0 0 1 764.59,321.5 L764.59,164.5 A2.5,2.5 0 0 1 767.09,162" fill="#D1C358" style="stroke:#000000;stroke-width:1.5;"/><line style="stroke:#000000;stroke-width:1.5;" x1="764.59" x2="865.8009" y1="184.2969" y2="184.2969"/><a href="https://bo4e.github.io/BO4E-python/latest/api/bo4e.enum.html" target="_top" title="https://bo4e.github.io/BO4E-python/latest/api/bo4e.enum.html" xlink:actuate="onRequest" xlink:href="https://bo4e.github.io/BO4E-python/latest/api/bo4e.enum.html" xlink:show="new" xlink:title="https://bo4e.github.io/BO4E-python/latest/api/bo4e.enum.html" xlink:type="simple"><text fill="#0000FF" font-family="sans-serif" font-size="14" font-weight="bold" lengthAdjust="spacing" text-decoration="underline" textLength="88.2109" x="768.59" y="176.9951">bo4e.enum</text></a></g><!--class COM--><g class="entity" data-entity="COM" data-source-line="12" data-uid="ent0004" id="entity_COM"><rect fill="#F1F1F1" height="37.9375" rx="2.5" ry="2.5" style="stroke:#181818;stroke-width:0.5;" width="106.0527" x="813.22" y="84.03"/><ellipse cx="828.22" cy="102.9987" fill="#ADD1B2" rx="11" ry="11" style="stroke:#181818;stroke-width:1;"/><path d="M831.1888,108.6394 Q830.6106,108.9362 829.97,109.0769 Q829.3294,109.2331 828.6263,109.2331 Q826.1263,109.2331 824.7981,107.5925 Q823.4856,105.9362 823.4856,102.8112 Q823.4856,99.6862 824.7981,98.03 Q826.1263,96.3737 828.6263,96.3737 Q829.3294,96.3737 829.97,96.53 Q830.6263,96.6862 831.1888,96.9831 L831.1888,99.7019 Q830.5638,99.1237 829.97,98.8581 Q829.3763,98.5769 828.7513,98.5769 Q827.4075,98.5769 826.72,99.655 Q826.0325,100.7175 826.0325,102.8112 Q826.0325,104.905 826.72,105.9831 Q827.4075,107.0456 828.7513,107.0456 Q829.3763,107.0456 829.97,106.78 Q830.5638,106.4987 831.1888,105.9206 L831.1888,108.6394 Z " fill="#000000"/><a href="https://bo4e.github.io/BO4E-python/latest/api/bo4e.com.html#bo4e.com.com.COM" target="_top" title="https://bo4e.github.io/BO4E-python/latest/api/bo4e.com.html#bo4e.com.com.COM" xlink:actuate="onRequest" xlink:href="https://bo4e.github.io/BO4E-python/latest/api/bo4e.com.html#bo4e.com.com.COM" xlink:show="new" xlink:title="https://bo4e.github.io/BO4E-python/latest/api/bo4e.com.html#bo4e.com.com.COM" xlink:type="simple"><text fill="#0000FF" font-family="sans-serif" font-size="14" lengthAdjust="spacing" text-decoration="underline" textLength="32.874" x="862.8094" y="102.0251">COM</text></a><text fill="#000000" font-family="sans-serif" font-size="10" lengthAdjust="spacing" textLength="74.0527" x="842.22" y="114.6091">bo4e.com.com</text></g><!--class Mengeneinheit--><g class="entity" data-entity="Mengeneinheit" data-source-line="15" data-uid="ent0007" id="entity_Mengeneinheit"><rect fill="#F1F1F1" height="37.9375" rx="2.5" ry="2.5" style="stroke:#181818;stroke-width:0.5;" width="167.4346" x="782.53" y="197.03"/><ellipse cx="797.53" cy="215.9988" fill="#ADD1B2" rx="11" ry="11" style="stroke:#181818;stroke-width:1;"/><path d="M800.4988,221.6394 Q799.9206,221.9363 799.28,222.0769 Q798.6394,222.2331 797.9363,222.2331 Q795.4363,222.2331 794.1081,220.5925 Q792.7956,218.9363 792.7956,215.8113 Q792.7956,212.6863 794.1081,211.03 Q795.4363,209.3738 797.9363,209.3738 Q798.6394,209.3738 799.28,209.53 Q799.9363,209.6863 800.4988,209.9831 L800.4988,212.7019 Q799.8738,212.1238 799.28,211.8581 Q798.6863,211.5769 798.0613,211.5769 Q796.7175,211.5769 796.03,212.655 Q795.3425,213.7175 795.3425,215.8113 Q795.3425,217.905 796.03,218.9831 Q796.7175,220.0456 798.0613,220.0456 Q798.6863,220.0456 799.28,219.78 Q799.8738,219.4988 800.4988,218.9206 L800.4988,221.6394 Z " fill="#000000"/><a href="https://bo4e.github.io/BO4E-python/latest/api/bo4e.enum.html#bo4e.enum.mengeneinheit.Mengeneinheit" target="_top" title="https://bo4e.github.io/BO4E-python/latest/api/bo4e.enum.html#bo4e.enum.mengeneinheit.Mengeneinheit" xlink:actuate="onRequest" xlink:href="https://bo4e.github.io/BO4E-python/latest/api/bo4e.enum.html#bo4e.enum.mengeneinheit.Mengeneinheit" xlink:show="new" xlink:title="https://bo4e.github.io/BO4E-python/latest/api/bo4e.enum.html#bo4e.enum.mengeneinheit.Mengeneinheit" xlink:type="simple"><text fill="#0000FF" font-family="sans-serif" font-size="14" lengthAdjust="spacing" text-decoration="underline" textLength="104.1797" x="827.1574" y="215.0251">Mengeneinheit</text></a><text fill="#000000" font-family="sans-serif" font-size="10" lengthAdjust="spacing" textLength="135.4346" x="811.53" y="227.6091">bo4e.enum.mengeneinheit</text></g><!--class Messwertstatus--><g class="entity" data-entity="Messwertstatus" data-source-line="16" data-uid="ent0008" id="entity_Messwertstatus"><rect fill="#F1F1F1" height="37.9375" rx="2.5" ry="2.5" style="stroke:#181818;stroke-width:0.5;" width="171.3115" x="780.59" y="270.03"/><ellipse cx="795.59" cy="288.9988" fill="#ADD1B2" rx="11" ry="11" style="stroke:#181818;stroke-width:1;"/><path d="M798.5588,294.6394 Q797.9806,294.9363 797.34,295.0769 Q796.6994,295.2331 795.9963,295.2331 Q793.4963,295.2331 792.1681,293.5925 Q790.8556,291.9363 790.8556,288.8113 Q790.8556,285.6863 792.1681,284.03 Q793.4963,282.3738 795.9963,282.3738 Q796.6994,282.3738 797.34,282.53 Q797.9963,282.6863 798.5588,282.9831 L798.5588,285.7019 Q797.9338,285.1238 797.34,284.8581 Q796.7463,284.5769 796.1213,284.5769 Q794.7775,284.5769 794.09,285.655 Q793.4025,286.7175 793.4025,288.8113 Q793.4025,290.905 794.09,291.9831 Q794.7775,293.0456 796.1213,293.0456 Q796.7463,293.0456 797.34,292.78 Q797.9338,292.4988 798.5588,291.9206 L798.5588,294.6394 Z " fill="#000000"/><a href="https://bo4e.github.io/BO4E-python/latest/api/bo4e.enum.html#bo4e.enum.messwertstatus.Messwertstatus" target="_top" title="https://bo4e.github.io/BO4E-python/latest/api/bo4e.enum.html#bo4e.enum.messwertstatus.Messwertstatus" xlink:actuate="onRequest" xlink:href="https://bo4e.github.io/BO4E-python/latest/api/bo4e.enum.html#bo4e.enum.messwertstatus.Messwertstatus" xlink:show="new" xlink:title="https://bo4e.github.io/BO4E-python/latest/api/bo4e.enum.html#bo4e.enum.messwertstatus.Messwertstatus" xlink:type="simple"><text fill="#0000FF" font-family="sans-serif" font-size="14" lengthAdjust="spacing" text-decoration="underline" textLength="109.6074" x="824.4421" y="288.0251">Messwertstatus</text></a><text fill="#000000" font-family="sans-serif" font-size="10" lengthAdjust="spacing" textLength="139.3115" x="809.59" y="300.6091">bo4e.enum.messwertstatus</text></g><!--class Verbrauch--><g class="entity" data-entity="Verbrauch" data-source-line="3" data-uid="ent0002" id="entity_Verbrauch"><rect fill="#F1F1F1" height="127.4219" rx="2.5" ry="2.5" style="stroke:#181818;stroke-width:0.5;" width="582.5889" x="7" y="152.29"/><ellipse cx="242.2256" cy="171.2588" fill="#ADD1B2" rx="11" ry="11" style="stroke:#181818;stroke-width:1;"/><path d="M245.1943,176.8994 Q244.6162,177.1963 243.9756,177.3369 Q243.335,177.4931 242.6318,177.4931 Q240.1318,177.4931 238.8037,175.8525 Q237.4912,174.1963 237.4912,171.0713 Q237.4912,167.9463 238.8037,166.29 Q240.1318,164.6338 242.6318,164.6338 Q243.335,164.6338 243.9756,164.79 Q244.6318,164.9463 245.1943,165.2431 L245.1943,167.9619 Q244.5693,167.3838 243.9756,167.1181 Q243.3818,166.8369 242.7568,166.8369 Q241.4131,166.8369 240.7256,167.915 Q240.0381,168.9775 240.0381,171.0713 Q240.0381,173.165 240.7256,174.2431 Q241.4131,175.3056 242.7568,175.3056 Q243.3818,175.3056 243.9756,175.04 Q244.5693,174.7588 245.1943,174.1806 L245.1943,176.8994 Z " fill="#000000"/><a href="https://bo4e.github.io/BO4E-python/latest/api/bo4e.com.html#bo4e.com.verbrauch.Verbrauch" target="_top" title="https://bo4e.github.io/BO4E-python/latest/api/bo4e.com.html#bo4e.com.verbrauch.Verbrauch" xlink:actuate="onRequest" xlink:href="https://bo4e.github.io/BO4E-python/latest/api/bo4e.com.html#bo4e.com.verbrauch.Verbrauch" xlink:show="new" xlink:title="https://bo4e.github.io/BO4E-python/latest/api/bo4e.com.html#bo4e.com.verbrauch.Verbrauch" xlink:type="simple"><text fill="#0000FF" font-family="sans-serif" font-size="14" lengthAdjust="spacing" text-decoration="underline" textLength="72.6113" x="278.2388" y="170.2851">Verbrauch</text></a><text fill="#000000" font-family="sans-serif" font-size="10" lengthAdjust="spacing" textLength="103.6377" x="262.7256" y="182.8691">bo4e.com.verbrauch</text><line style="stroke:#181818;stroke-width:0.5;" x1="8" x2="588.5889" y1="190.2275" y2="190.2275"/><text fill="#000000" font-family="sans-serif" font-size="14" lengthAdjust="spacing" textLength="570.5889" x="13" y="207.2226">_typ : Literal[&lt;ComTyp.VERBRAUCH: 'VERBRAUCH'&gt;] [1] = ComTyp.VERBRAUCH</text><text fill="#000000" font-family="sans-serif" font-size="14" lengthAdjust="spacing" textLength="224.2666" x="13" y="223.5195">obisKennzahl : str [0..1] = None</text><text fill="#000000" font-family="sans-serif" font-size="14" lengthAdjust="spacing" textLength="201.2568" x="13" y="239.8164">wert : Decimal [0..1] = None</text><text fill="#000000" font-family="sans-serif" font-size="14" lengthAdjust="spacing" textLength="300.002" x="13" y="256.1132">startdatum : AwareDatetime [0..1] = None</text><text fill="#000000" font-family="sans-serif" font-size="14" lengthAdjust="spacing" textLength="293.7676" x="13" y="272.4101">enddatum : AwareDatetime [0..1] = None</text></g><!--link Verbrauch to COM--><g class="link" data-entity-1="Verbrauch" data-entity-2="COM" data-source-line="19" data-uid="lnk9" id="link_Verbrauch_COM"><path codeLine="19" d="M589.73,158.01 C675.49,140.89 742.6889,127.4769 795.0889,117.0069" fill="none" id="Verbrauch-to-COM" style="stroke:#181818;stroke-width:1;"/><polygon fill="none" points="812.74,113.48,793.9133,111.1232,796.2645,122.8906,812.74,113.48" style="stroke:#181818;stroke-width:1;"/></g><!--link Verbrauch to Mengeneinheit--><g class="link" data-entity-1="Verbrauch" data-entity-2="Mengeneinheit" data-source-line="20" data-uid="lnk10" id="link_Verbrauch_Mengeneinheit"><path codeLine="20" d="M589.73,216 C660.43,216 718.51,216 770.3,216" fill="none" id="Verbrauch-to-Mengeneinheit" style="stroke:#181818;stroke-width:1;"/><polygon fill="#181818" points="782.3,216,776.3,212,770.3,216,776.3,220,782.3,216" style="stroke:#181818;stroke-width:1;"/><text fill="#000000" font-family="sans-serif" font-size="13" lengthAdjust="spacing" textLength="44.7954" x="650.09" y="212.0669">einheit</text><text fill="#000000" font-family="sans-serif" font-size="13" lengthAdjust="spacing" textLength="24.8066" x="749.7906" y="228.7409">0..1</text></g><!--link Verbrauch to Messwertstatus--><g class="link" data-entity-1="Verbrauch" data-entity-2="Messwertstatus" data-source-line="21" data-uid="lnk11" id="link_Verbrauch_Messwertstatus"><path codeLine="21" d="M589.73,253.46 C659.48,262.46 716.7285,269.8453 768.2985,276.4953" fill="none" id="Verbrauch-to-Messwertstatus" style="stroke:#181818;stroke-width:1;"/><polygon fill="#181818" points="780.2,278.03,774.7608,273.2955,768.2985,276.4953,773.7377,281.2298,780.2,278.03" style="stroke:#181818;stroke-width:1;"/><text fill="#000000" font-family="sans-serif" font-size="13" lengthAdjust="spacing" textLength="103.2256" x="620.59" y="256.0669">messwertstatus</text><text fill="#000000" font-family="sans-serif" font-size="13" lengthAdjust="spacing" textLength="24.8066" x="747.8089" y="289.8045">0..1</text></g><!--SRC=[jLDHQzim47wEViMHF1G6iHFMZMAwG9e61bjNA6jVF3Da-ne9BCb8vuLqst-Vd3MEd6nGoFOWk4_tdVpTT-SA7md8W9KhGL1AYmL9enahAkuS3DDK4DKkYUFSd6EqaYIQF98clhezNuxh3GcZuueJEefvBN-p2gCYGQeQTUWRsjpofX3Hmow2BigoB_hIoITCffFPSSaGkDkJuJiRVALD3Gbyb8IML-dbmgZFcpfwMDvTtStl5-yJEElYira6wJI3Tt38OWEJI_S1jNxYelBlERAGJg9eo_vaDBB16Ytvp3KMKl7gCEk8MoevDSfpvcjkyTexGLBX8HDr-HBUJyOqL-XgNk29tiCEPTdMm1s4qN8oltYxQ7tyjpDkp-Bs1lpvyqJzsKhn1D_fgOsYRi9EMnYssc8ObTFYzPkBKtljFZNQGuLwXHgb5YWfkWaHzD2n5yVrMzczglyXsBbsdVtIKkEyuX127_vLSqXw5XrUjGiS_E7ZyOzPjtZjReH9dtq5mtRzX_k97HYPmCwE5nJs-acWBvOn8Klqbof7wvWJPWt1cuyIgzBz0W00]--></g></svg>