<svg xmlns="http://www.w3.org/2000/svg" xmlns:xlink="http://www.w3.org/1999/xlink" contentStyleType="text/css" data-diagram-type="CLASS" height="253px" preserveAspectRatio="none" style="width:1067px;height:253px;background:#FFFFFF;" version="1.1" viewBox="0 0 1067 253" width="1067px" zoomAndPan="magnify"><defs/><g><!--cluster bo4e--><g class="cluster" data-entity="bo4e" data-source-line="11" data-uid="ent0005" id="cluster_bo4e"><path d="M863.47,6 L903.346,6 A3.75,3.75 0 0 1 905.846,8.5 L912.846,28.2969 L1057.89,28.2969 A2.5,2.5 0 0 1 1060.39,30.7969 L1060.39,232.5 A2.5,2.5 0 0 1 1057.89,235 L863.47,235 A2.5,2.5 0 0 1 860.97,232.5 L860.97,8.5 A2.5,2.5 0 0 1 863.47,6" fill="none" style="stroke:#000000;stroke-width:1.5;"/><line style="stroke:#000000;stroke-width:1.5;" x1="860.97" x2="912.846" y1="28.2969" y2="28.2969"/><text fill="#000000" font-family="sans-serif" font-size="14" font-weight="bold" lengthAdjust="spacing" textLength="38.876" x="864.97" y="20.9951">bo4e</text></g><!--cluster com--><g class="cluster" data-entity="com" data-source-line="10" data-uid="ent0003" id="cluster_com"><path d="M887.47,49 L965.1692,49 A3.75,3.75 0 0 1 967.6692,51.5 L974.6692,71.2969 L1033.89,71.2969 A2.5,2.5 0 0 1 1036.39,73.7969 L1036.39,208.5 A2.5,2.5 0 0 1 1033.89,211 L887.47,211 A2.5,2.5 0 0 1 884.97,208.5 L884.97,51.5 A2.5,2.5 0 0 1 887.47,49" fill="#E0A86C" style="stroke:#000000;stroke-width:1.5;"/><line style="stroke:#000000;stroke-width:1.5;" x1="884.97" x2="974.6692" y1="71.2969" y2="71.2969"/><a href="file:////home/runner/work/BO4E-python/BO4E-python/docs/../.tox/docs/tmp/html/api/bo4e.com.html" target="_top" title="file:////home/runner/work/BO4E-python/BO4E-python/docs/../.tox/docs/tmp/html/api/bo4e.com.html" xlink:actuate="onRequest" xlink:href="file:////home/runner/work/BO4E-python/BO4E-python/docs/../.tox/docs/tmp/html/api/bo4e.com.html" xlink:show="new" xlink:title="file:////home/runner/work/BO4E-python/BO4E-python/docs/../.tox/docs/tmp/html/api/bo4e.com.html" xlink:type="simple"><text fill="#0000FF" font-family="sans-serif" font-size="14" font-weight="bold" lengthAdjust="spacing" text-decoration="underline" textLength="76.6992" x="888.97" y="63.9951">bo4e.com</text></a></g><!--class COM--><g class="entity" data-entity="COM" data-source-line="11" data-uid="ent0004" id="entity_COM"><rect fill="#F1F1F1" height="37.9375" rx="2.5" ry="2.5" style="stroke:#181818;stroke-width:0.5;" width="106.0527" x="907.65" y="84.03"/><ellipse cx="922.65" cy="102.9988" fill="#ADD1B2" rx="11" ry="11" style="stroke:#181818;stroke-width:1;"/><path d="M925.6188,108.6394 Q925.0406,108.9363 924.4,109.0769 Q923.7594,109.2331 923.0563,109.2331 Q920.5563,109.2331 919.2281,107.5925 Q917.9156,105.9363 917.9156,102.8113 Q917.9156,99.6863 919.2281,98.03 Q920.5563,96.3738 923.0563,96.3738 Q923.7594,96.3738 924.4,96.53 Q925.0563,96.6863 925.6188,96.9831 L925.6188,99.7019 Q924.9938,99.1238 924.4,98.8581 Q923.8063,98.5769 923.1813,98.5769 Q921.8375,98.5769 921.15,99.655 Q920.4625,100.7175 920.4625,102.8113 Q920.4625,104.905 921.15,105.9831 Q921.8375,107.0456 923.1813,107.0456 Q923.8063,107.0456 924.4,106.78 Q924.9938,106.4988 925.6188,105.9206 L925.6188,108.6394 Z " fill="#000000"/><a href="file:////home/runner/work/BO4E-python/BO4E-python/docs/../.tox/docs/tmp/html/api/bo4e.com.html#bo4e.com.com.COM" target="_top" title="file:////home/runner/work/BO4E-python/BO4E-python/docs/../.tox/docs/tmp/html/api/bo4e.com.html#bo4e.com.com.COM" xlink:actuate="onRequest" xlink:href="file:////home/runner/work/BO4E-python/BO4E-python/docs/../.tox/docs/tmp/html/api/bo4e.com.html#bo4e.com.com.COM" xlink:show="new" xlink:title="file:////home/runner/work/BO4E-python/BO4E-python/docs/../.tox/docs/tmp/html/api/bo4e.com.html#bo4e.com.com.COM" xlink:type="simple"><text fill="#0000FF" font-family="sans-serif" font-size="14" lengthAdjust="spacing" text-decoration="underline" textLength="32.874" x="957.2394" y="102.0251">COM</text></a><text fill="#000000" font-family="sans-serif" font-size="10" lengthAdjust="spacing" textLength="74.0527" x="936.65" y="114.6091">bo4e.com.com</text></g><!--class Menge--><g class="entity" data-entity="Menge" data-source-line="12" data-uid="ent0006" id="entity_Menge"><rect fill="#F1F1F1" height="37.9375" rx="2.5" ry="2.5" style="stroke:#181818;stroke-width:0.5;" width="119.4268" x="900.97" y="157.03"/><ellipse cx="915.97" cy="175.9988" fill="#ADD1B2" rx="11" ry="11" style="stroke:#181818;stroke-width:1;"/><path d="M918.9388,181.6394 Q918.3606,181.9363 917.72,182.0769 Q917.0794,182.2331 916.3763,182.2331 Q913.8763,182.2331 912.5481,180.5925 Q911.2356,178.9363 911.2356,175.8113 Q911.2356,172.6863 912.5481,171.03 Q913.8763,169.3738 916.3763,169.3738 Q917.0794,169.3738 917.72,169.53 Q918.3763,169.6863 918.9388,169.9831 L918.9388,172.7019 Q918.3138,172.1238 917.72,171.8581 Q917.1263,171.5769 916.5013,171.5769 Q915.1575,171.5769 914.47,172.655 Q913.7825,173.7175 913.7825,175.8113 Q913.7825,177.905 914.47,178.9831 Q915.1575,180.0456 916.5013,180.0456 Q917.1263,180.0456 917.72,179.78 Q918.3138,179.4988 918.9388,178.9206 L918.9388,181.6394 Z " fill="#000000"/><a href="file:////home/runner/work/BO4E-python/BO4E-python/docs/../.tox/docs/tmp/html/api/bo4e.com.html#bo4e.com.menge.Menge" target="_top" title="file:////home/runner/work/BO4E-python/BO4E-python/docs/../.tox/docs/tmp/html/api/bo4e.com.html#bo4e.com.menge.Menge" xlink:actuate="onRequest" xlink:href="file:////home/runner/work/BO4E-python/BO4E-python/docs/../.tox/docs/tmp/html/api/bo4e.com.html#bo4e.com.menge.Menge" xlink:show="new" xlink:title="file:////home/runner/work/BO4E-python/BO4E-python/docs/../.tox/docs/tmp/html/api/bo4e.com.html#bo4e.com.menge.Menge" xlink:type="simple"><text fill="#0000FF" font-family="sans-serif" font-size="14" lengthAdjust="spacing" text-decoration="underline" textLength="47.0654" x="950.1507" y="175.0251">Menge</text></a><text fill="#000000" font-family="sans-serif" font-size="10" lengthAdjust="spacing" textLength="87.4268" x="929.97" y="187.6091">bo4e.com.menge</text></g><!--class Vertragsteil--><g class="entity" data-entity="Vertragsteil" data-source-line="3" data-uid="ent0002" id="entity_Vertragsteil"><rect fill="#F1F1F1" height="111.125" rx="2.5" ry="2.5" style="stroke:#181818;stroke-width:0.5;" width="634.9658" x="7" y="104.44"/><ellipse cx="265.1206" cy="123.4088" fill="#ADD1B2" rx="11" ry="11" style="stroke:#181818;stroke-width:1;"/><path d="M268.0894,129.0494 Q267.5112,129.3463 266.8706,129.4869 Q266.23,129.6431 265.5269,129.6431 Q263.0269,129.6431 261.6987,128.0025 Q260.3862,126.3463 260.3862,123.2213 Q260.3862,120.0963 261.6987,118.44 Q263.0269,116.7838 265.5269,116.7838 Q266.23,116.7838 266.8706,116.94 Q267.5269,117.0963 268.0894,117.3931 L268.0894,120.1119 Q267.4644,119.5338 266.8706,119.2681 Q266.2769,118.9869 265.6519,118.9869 Q264.3081,118.9869 263.6206,120.065 Q262.9331,121.1275 262.9331,123.2213 Q262.9331,125.315 263.6206,126.3931 Q264.3081,127.4556 265.6519,127.4556 Q266.2769,127.4556 266.8706,127.19 Q267.4644,126.9088 268.0894,126.3306 L268.0894,129.0494 Z " fill="#000000"/><a href="file:////home/runner/work/BO4E-python/BO4E-python/docs/../.tox/docs/tmp/html/api/bo4e.com.html#bo4e.com.vertragsteil.Vertragsteil" target="_top" title="file:////home/runner/work/BO4E-python/BO4E-python/docs/../.tox/docs/tmp/html/api/bo4e.com.html#bo4e.com.vertragsteil.Vertragsteil" xlink:actuate="onRequest" xlink:href="file:////home/runner/work/BO4E-python/BO4E-python/docs/../.tox/docs/tmp/html/api/bo4e.com.html#bo4e.com.vertragsteil.Vertragsteil" xlink:show="new" xlink:title="file:////home/runner/work/BO4E-python/BO4E-python/docs/../.tox/docs/tmp/html/api/bo4e.com.html#bo4e.com.vertragsteil.Vertragsteil" xlink:type="simple"><text fill="#0000FF" font-family="sans-serif" font-size="14" lengthAdjust="spacing" text-decoration="underline" textLength="81.833" x="299.8164" y="122.4351">Vertragsteil</text></a><text fill="#000000" font-family="sans-serif" font-size="10" lengthAdjust="spacing" textLength="110.2246" x="285.6206" y="135.0191">bo4e.com.vertragsteil</text><line style="stroke:#181818;stroke-width:0.5;" x1="8" x2="640.9658" y1="142.3775" y2="142.3775"/><text fill="#000000" font-family="sans-serif" font-size="14" lengthAdjust="spacing" textLength="622.9658" x="13" y="159.3726">_typ : Literal[&lt;ComTyp.VERTRAGSTEIL: 'VERTRAGSTEIL'&gt;] [1] = ComTyp.VERTRAGSTEIL</text><text fill="#000000" font-family="sans-serif" font-size="14" lengthAdjust="spacing" textLength="350.4922" x="13" y="175.6695">vertragsteilbeginn : AwareDatetime [0..1] = None</text><text fill="#000000" font-family="sans-serif" font-size="14" lengthAdjust="spacing" textLength="337.4561" x="13" y="191.9664">vertragsteilende : AwareDatetime [0..1] = None</text><text fill="#000000" font-family="sans-serif" font-size="14" lengthAdjust="spacing" textLength="187.3594" x="13" y="208.2632">lokation : str [0..1] = None</text></g><!--link Vertragsteil to COM--><g class="link" data-entity-1="Vertragsteil" data-entity-2="COM" data-source-line="15" data-uid="lnk7" id="link_Vertragsteil_COM"><path codeLine="15" d="M642.12,131.54 C744.87,122.31 829.7623,114.6818 889.4923,109.3118" fill="none" id="Vertragsteil-to-COM" style="stroke:#181818;stroke-width:1;"/><polygon fill="none" points="907.42,107.7,888.955,103.3359,890.0296,115.2877,907.42,107.7" style="stroke:#181818;stroke-width:1;"/></g><!--link Vertragsteil to Menge--><g class="link" data-entity-1="Vertragsteil" data-entity-2="Menge" data-source-line="16" data-uid="lnk8" id="link_Vertragsteil_Menge"><path codeLine="16" d="M642.14,164.43 C709.12,165.83 779.38,167.65 844.97,170 C863.1,170.65 870.8568,170.9544 888.7668,171.9044" fill="none" id="Vertragsteil-to-Menge" style="stroke:#181818;stroke-width:1;"/><polygon fill="#181818" points="900.75,172.54,894.9703,168.2278,888.7668,171.9044,894.5465,176.2166,900.75,172.54" style="stroke:#181818;stroke-width:1;"/><text fill="#000000" font-family="sans-serif" font-size="13" lengthAdjust="spacing" textLength="162.8428" x="677.47" y="162.0669">vertraglichFixierteMenge</text><text fill="#000000" font-family="sans-serif" font-size="13" lengthAdjust="spacing" textLength="24.8066" x="868.0323" y="185.1075">0..1</text></g><!--link Vertragsteil to Menge--><g class="link" data-entity-1="Vertragsteil" data-entity-2="Menge" data-source-line="17" data-uid="lnk9" id="link_Vertragsteil_Menge"><path codeLine="17" d="M642.21,196.41 C709.18,199.89 779.43,200.39 844.97,195 C863.17,193.5 871.0074,192.6875 888.8374,189.6775" fill="none" id="Vertragsteil-to-Menge-1" style="stroke:#181818;stroke-width:1;"/><polygon fill="#181818" points="900.67,187.68,894.0879,184.7346,888.8374,189.6775,895.4196,192.623,900.67,187.68" style="stroke:#181818;stroke-width:1;"/><text fill="#000000" font-family="sans-serif" font-size="13" lengthAdjust="spacing" textLength="167.7686" x="674.97" y="191.0669">minimaleAbnahmemenge</text><text fill="#000000" font-family="sans-serif" font-size="13" lengthAdjust="spacing" textLength="24.8066" x="867.9425" y="202.0927">0..1</text></g><!--link Vertragsteil to Menge--><g class="link" data-entity-1="Vertragsteil" data-entity-2="Menge" data-source-line="18" data-uid="lnk10" id="link_Vertragsteil_Menge"><path codeLine="18" d="M528.97,216.02 C625.33,234.77 741.67,246.14 844.97,225 C872.87,219.29 891.6427,211.8982 913.7427,200.8182" fill="none" id="Vertragsteil-to-Menge-2" style="stroke:#181818;stroke-width:1;"/><polygon fill="#181818" points="924.47,195.44,917.3136,194.5533,913.7427,200.8182,920.8991,201.7049,924.47,195.44" style="stroke:#181818;stroke-width:1;"/><text fill="#000000" font-family="sans-serif" font-size="13" lengthAdjust="spacing" textLength="171.5771" x="672.97" y="221.0669">maximaleAbnahmemenge</text><text fill="#000000" font-family="sans-serif" font-size="13" lengthAdjust="spacing" textLength="24.8066" x="887.0234" y="215.1028">0..1</text></g><!--SRC=[nLFRIWCn47rslsAe3uBGf8A8B5gejOhW1MhnPLqatKwxWxaiIRIjbtytk_NIrOBue2vCoDcSkMJcHEBOWpTWQP9x6975p9FHKPH9uHmqacHC4cCUljmevFPEQxHyQkmjFxZOxZMBkS-Dhkr79dESCSwycIs0LmNFlP9S5CI7PXjPPXGh_wo_etkqteg9yqYINIq1M0PfUgtt73rWlDLgh_HjW70r5tYCrcxyl80OJicZ5JBPwnerc1VigjSVz3l7buFUoMaC6yjmevr2ifN2FgpWHclB6OSu8Qr3-CvKM3mK7ZqfXAJ5M1NWt6YiUw0UuNTyQMv5EOh0Szv-EdsE8YqKka9a-Fj3WZUKfbLtto2izrgTtPrksU4_rqjftOip2BPQ5C6gQWFX7yfJg2V8pieLgdLraHMjAhCYbOEjYx_PV6g_DxoyyAVpGDY4HYcEnWTjaJQ6Lyr9ol8Zcb50k4ZpWnYAD2aXiJFK8bUeVkmlPb_zevp22mXeYDP5BZTJg8SS4ygHUm40]--></g></svg>