<svg xmlns="http://www.w3.org/2000/svg" xmlns:xlink="http://www.w3.org/1999/xlink" contentStyleType="text/css" data-diagram-type="CLASS" height="264px" preserveAspectRatio="none" style="width:1264px;height:264px;background:#FFFFFF;" version="1.1" viewBox="0 0 1264 264" width="1264px" zoomAndPan="magnify"><defs/><g><!--cluster bo4e--><g class="cluster" data-entity="bo4e" data-source-line="10" data-uid="ent0005" id="cluster_bo4e"><path d="M1050.71,28.74 L1090.586,28.74 A3.75,3.75 0 0 1 1093.086,31.24 L1100.086,51.0369 L1254.82,51.0369 A2.5,2.5 0 0 1 1257.32,53.5369 L1257.32,255.24 A2.5,2.5 0 0 1 1254.82,257.74 L1050.71,257.74 A2.5,2.5 0 0 1 1048.21,255.24 L1048.21,31.24 A2.5,2.5 0 0 1 1050.71,28.74" fill="none" style="stroke:#000000;stroke-width:1.5;"/><line style="stroke:#000000;stroke-width:1.5;" x1="1048.21" x2="1100.086" y1="51.0369" y2="51.0369"/><text fill="#000000" font-family="sans-serif" font-size="14" font-weight="bold" lengthAdjust="spacing" textLength="38.876" x="1052.21" y="43.7351">bo4e</text></g><!--cluster com--><g class="cluster" data-entity="com" data-source-line="9" data-uid="ent0003" id="cluster_com"><path d="M1074.71,71.74 L1152.4092,71.74 A3.75,3.75 0 0 1 1154.9092,74.24 L1161.9092,94.0369 L1230.82,94.0369 A2.5,2.5 0 0 1 1233.32,96.5369 L1233.32,231.24 A2.5,2.5 0 0 1 1230.82,233.74 L1074.71,233.74 A2.5,2.5 0 0 1 1072.21,231.24 L1072.21,74.24 A2.5,2.5 0 0 1 1074.71,71.74" fill="#E0A86C" style="stroke:#000000;stroke-width:1.5;"/><line style="stroke:#000000;stroke-width:1.5;" x1="1072.21" x2="1161.9092" y1="94.0369" y2="94.0369"/><a href="file:////home/runner/work/BO4E-python/BO4E-python/docs/../.tox/docs/tmp/html/api/bo4e.com.html" target="_top" title="file:////home/runner/work/BO4E-python/BO4E-python/docs/../.tox/docs/tmp/html/api/bo4e.com.html" xlink:actuate="onRequest" xlink:href="file:////home/runner/work/BO4E-python/BO4E-python/docs/../.tox/docs/tmp/html/api/bo4e.com.html" xlink:show="new" xlink:title="file:////home/runner/work/BO4E-python/BO4E-python/docs/../.tox/docs/tmp/html/api/bo4e.com.html" xlink:type="simple"><text fill="#0000FF" font-family="sans-serif" font-size="14" font-weight="bold" lengthAdjust="spacing" text-decoration="underline" textLength="76.6992" x="1076.21" y="86.7351">bo4e.com</text></a></g><!--class Zeitraum--><g class="entity" data-entity="Zeitraum" data-source-line="10" data-uid="ent0004" id="entity_Zeitraum"><rect fill="#F1F1F1" height="37.9375" rx="2.5" ry="2.5" style="stroke:#181818;stroke-width:0.5;" width="129.1143" x="1088.21" y="106.77"/><ellipse cx="1103.21" cy="125.7388" fill="#ADD1B2" rx="11" ry="11" style="stroke:#181818;stroke-width:1;"/><path d="M1106.1788,131.3794 Q1105.6006,131.6763 1104.96,131.8169 Q1104.3194,131.9731 1103.6163,131.9731 Q1101.1163,131.9731 1099.7881,130.3325 Q1098.4756,128.6763 1098.4756,125.5513 Q1098.4756,122.4263 1099.7881,120.77 Q1101.1163,119.1138 1103.6163,119.1138 Q1104.3194,119.1138 1104.96,119.27 Q1105.6163,119.4263 1106.1788,119.7231 L1106.1788,122.4419 Q1105.5538,121.8638 1104.96,121.5981 Q1104.3663,121.3169 1103.7413,121.3169 Q1102.3975,121.3169 1101.71,122.395 Q1101.0225,123.4575 1101.0225,125.5513 Q1101.0225,127.645 1101.71,128.7231 Q1102.3975,129.7856 1103.7413,129.7856 Q1104.3663,129.7856 1104.96,129.52 Q1105.5538,129.2388 1106.1788,128.6606 L1106.1788,131.3794 Z " fill="#000000"/><a href="file:////home/runner/work/BO4E-python/BO4E-python/docs/../.tox/docs/tmp/html/api/bo4e.com.html#bo4e.com.zeitraum.Zeitraum" target="_top" title="file:////home/runner/work/BO4E-python/BO4E-python/docs/../.tox/docs/tmp/html/api/bo4e.com.html#bo4e.com.zeitraum.Zeitraum" xlink:actuate="onRequest" xlink:href="file:////home/runner/work/BO4E-python/BO4E-python/docs/../.tox/docs/tmp/html/api/bo4e.com.html#bo4e.com.zeitraum.Zeitraum" xlink:show="new" xlink:title="file:////home/runner/work/BO4E-python/BO4E-python/docs/../.tox/docs/tmp/html/api/bo4e.com.html#bo4e.com.zeitraum.Zeitraum" xlink:type="simple"><text fill="#0000FF" font-family="sans-serif" font-size="14" lengthAdjust="spacing" text-decoration="underline" textLength="64.4287" x="1133.5528" y="124.7651">Zeitraum</text></a><text fill="#000000" font-family="sans-serif" font-size="10" lengthAdjust="spacing" textLength="97.1143" x="1117.21" y="137.3491">bo4e.com.zeitraum</text></g><!--class COM--><g class="entity" data-entity="COM" data-source-line="11" data-uid="ent0006" id="entity_COM"><rect fill="#F1F1F1" height="37.9375" rx="2.5" ry="2.5" style="stroke:#181818;stroke-width:0.5;" width="106.0527" x="1099.74" y="179.77"/><ellipse cx="1114.74" cy="198.7388" fill="#ADD1B2" rx="11" ry="11" style="stroke:#181818;stroke-width:1;"/><path d="M1117.7088,204.3794 Q1117.1306,204.6763 1116.49,204.8169 Q1115.8494,204.9731 1115.1463,204.9731 Q1112.6463,204.9731 1111.3181,203.3325 Q1110.0056,201.6763 1110.0056,198.5513 Q1110.0056,195.4263 1111.3181,193.77 Q1112.6463,192.1138 1115.1463,192.1138 Q1115.8494,192.1138 1116.49,192.27 Q1117.1463,192.4263 1117.7088,192.7231 L1117.7088,195.4419 Q1117.0838,194.8638 1116.49,194.5981 Q1115.8963,194.3169 1115.2713,194.3169 Q1113.9275,194.3169 1113.24,195.395 Q1112.5525,196.4575 1112.5525,198.5513 Q1112.5525,200.645 1113.24,201.7231 Q1113.9275,202.7856 1115.2713,202.7856 Q1115.8963,202.7856 1116.49,202.52 Q1117.0838,202.2388 1117.7088,201.6606 L1117.7088,204.3794 Z " fill="#000000"/><a href="file:////home/runner/work/BO4E-python/BO4E-python/docs/../.tox/docs/tmp/html/api/bo4e.com.html#bo4e.com.com.COM" target="_top" title="file:////home/runner/work/BO4E-python/BO4E-python/docs/../.tox/docs/tmp/html/api/bo4e.com.html#bo4e.com.com.COM" xlink:actuate="onRequest" xlink:href="file:////home/runner/work/BO4E-python/BO4E-python/docs/../.tox/docs/tmp/html/api/bo4e.com.html#bo4e.com.com.COM" xlink:show="new" xlink:title="file:////home/runner/work/BO4E-python/BO4E-python/docs/../.tox/docs/tmp/html/api/bo4e.com.html#bo4e.com.com.COM" xlink:type="simple"><text fill="#0000FF" font-family="sans-serif" font-size="14" lengthAdjust="spacing" text-decoration="underline" textLength="32.874" x="1149.3294" y="197.7651">COM</text></a><text fill="#000000" font-family="sans-serif" font-size="10" lengthAdjust="spacing" textLength="74.0527" x="1128.74" y="210.3491">bo4e.com.com</text></g><!--class Vertragskonditionen--><g class="entity" data-entity="Vertragskonditionen" data-source-line="3" data-uid="ent0002" id="entity_Vertragskonditionen"><rect fill="#F1F1F1" height="94.8281" rx="2.5" ry="2.5" style="stroke:#181818;stroke-width:0.5;" width="844.207" x="7" y="78.33"/><ellipse cx="348.0469" cy="97.2988" fill="#ADD1B2" rx="11" ry="11" style="stroke:#181818;stroke-width:1;"/><path d="M351.0156,102.9394 Q350.4375,103.2363 349.7969,103.3769 Q349.1563,103.5331 348.4531,103.5331 Q345.9531,103.5331 344.625,101.8925 Q343.3125,100.2363 343.3125,97.1113 Q343.3125,93.9863 344.625,92.33 Q345.9531,90.6738 348.4531,90.6738 Q349.1563,90.6738 349.7969,90.83 Q350.4531,90.9863 351.0156,91.2831 L351.0156,94.0019 Q350.3906,93.4238 349.7969,93.1581 Q349.2031,92.8769 348.5781,92.8769 Q347.2344,92.8769 346.5469,93.955 Q345.8594,95.0175 345.8594,97.1113 Q345.8594,99.205 346.5469,100.2831 Q347.2344,101.3456 348.5781,101.3456 Q349.2031,101.3456 349.7969,101.08 Q350.3906,100.7988 351.0156,100.2206 L351.0156,102.9394 Z " fill="#000000"/><a href="file:////home/runner/work/BO4E-python/BO4E-python/docs/../.tox/docs/tmp/html/api/bo4e.com.html#bo4e.com.vertragskonditionen.Vertragskonditionen" target="_top" title="file:////home/runner/work/BO4E-python/BO4E-python/docs/../.tox/docs/tmp/html/api/bo4e.com.html#bo4e.com.vertragskonditionen.Vertragskonditionen" xlink:actuate="onRequest" xlink:href="file:////home/runner/work/BO4E-python/BO4E-python/docs/../.tox/docs/tmp/html/api/bo4e.com.html#bo4e.com.vertragskonditionen.Vertragskonditionen" xlink:show="new" xlink:title="file:////home/runner/work/BO4E-python/BO4E-python/docs/../.tox/docs/tmp/html/api/bo4e.com.html#bo4e.com.vertragskonditionen.Vertragskonditionen" xlink:type="simple"><text fill="#0000FF" font-family="sans-serif" font-size="14" lengthAdjust="spacing" text-decoration="underline" textLength="142.5771" x="374.0649" y="96.3251">Vertragskonditionen</text></a><text fill="#000000" font-family="sans-serif" font-size="10" lengthAdjust="spacing" textLength="153.6133" x="368.5469" y="108.9091">bo4e.com.vertragskonditionen</text><line style="stroke:#181818;stroke-width:0.5;" x1="8" x2="850.207" y1="116.2675" y2="116.2675"/><text fill="#000000" font-family="sans-serif" font-size="14" lengthAdjust="spacing" textLength="832.207" x="13" y="133.2626">_typ : Literal[&lt;ComTyp.VERTRAGSKONDITIONEN: 'VERTRAGSKONDITIONEN'&gt;] [1] = ComTyp.VERTRAGSKONDITIONEN</text><text fill="#000000" font-family="sans-serif" font-size="14" lengthAdjust="spacing" textLength="226.543" x="13" y="149.5595">beschreibung : str [0..1] = None</text><text fill="#000000" font-family="sans-serif" font-size="14" lengthAdjust="spacing" textLength="297.001" x="13" y="165.8564">anzahlAbschlaege : Decimal [0..1] = None</text></g><!--link Vertragskonditionen to COM--><g class="link" data-entity-1="Vertragskonditionen" data-entity-2="COM" data-source-line="14" data-uid="lnk7" id="link_Vertragskonditionen_COM"><path codeLine="14" d="M820.28,173.65 C840.87,175.8 861.28,177.85 881.21,179.74 C956.91,186.93 1026.8111,191.5526 1081.3611,194.7626" fill="none" id="Vertragskonditionen-to-COM" style="stroke:#181818;stroke-width:1;"/><polygon fill="none" points="1099.33,195.82,1081.7135,188.773,1081.0086,200.7523,1099.33,195.82" style="stroke:#181818;stroke-width:1;"/></g><!--link Vertragskonditionen to Zeitraum--><g class="link" data-entity-1="Vertragskonditionen" data-entity-2="Zeitraum" data-source-line="15" data-uid="lnk8" id="link_Vertragskonditionen_Zeitraum"><path codeLine="15" d="M567.35,77.88 C690.99,41.96 876.69,6 1032.21,50.74 C1069.88,61.58 1097.8564,80.6032 1120.5164,99.0132" fill="none" id="Vertragskonditionen-to-Zeitraum" style="stroke:#181818;stroke-width:1;"/><polygon fill="#181818" points="1129.83,106.58,1127.6955,99.6921,1120.5164,99.0132,1122.6509,105.9011,1129.83,106.58" style="stroke:#181818;stroke-width:1;"/><text fill="#000000" font-family="sans-serif" font-size="13" lengthAdjust="spacing" textLength="102.394" x="905.71" y="26.8069">vertragslaufzeit</text><text fill="#000000" font-family="sans-serif" font-size="13" lengthAdjust="spacing" textLength="24.8066" x="1095.6857" y="95.8354">0..1</text></g><!--link Vertragskonditionen to Zeitraum--><g class="link" data-entity-1="Vertragskonditionen" data-entity-2="Zeitraum" data-source-line="16" data-uid="lnk9" id="link_Vertragskonditionen_Zeitraum"><path codeLine="16" d="M851.44,101.94 C912.14,101.77 973.81,103.37 1032.21,107.74 C1050.31,109.1 1057.9651,109.7947 1075.8751,112.5047" fill="none" id="Vertragskonditionen-to-Zeitraum-1" style="stroke:#181818;stroke-width:1;"/><polygon fill="#181818" points="1087.74,114.3,1082.406,109.4474,1075.8751,112.5047,1081.2091,117.3573,1087.74,114.3" style="stroke:#181818;stroke-width:1;"/><text fill="#000000" font-family="sans-serif" font-size="13" lengthAdjust="spacing" textLength="109.0273" x="902.21" y="98.8069">kuendigungsfrist</text><text fill="#000000" font-family="sans-serif" font-size="13" lengthAdjust="spacing" textLength="24.8066" x="1055.3593" y="125.9434">0..1</text></g><!--link Vertragskonditionen to Zeitraum--><g class="link" data-entity-1="Vertragskonditionen" data-entity-2="Zeitraum" data-source-line="17" data-uid="lnk10" id="link_Vertragskonditionen_Zeitraum"><path codeLine="17" d="M851.64,135.02 C912.24,135.08 973.82,134.45 1032.21,132.74 C1050.29,132.21 1057.9108,131.9354 1075.9108,130.8754" fill="none" id="Vertragskonditionen-to-Zeitraum-2" style="stroke:#181818;stroke-width:1;"/><polygon fill="#181818" points="1087.89,130.17,1081.6652,126.5296,1075.9108,130.8754,1082.1355,134.5158,1087.89,130.17" style="stroke:#181818;stroke-width:1;"/><text fill="#000000" font-family="sans-serif" font-size="13" lengthAdjust="spacing" textLength="149.646" x="882.21" y="128.8069">vertragsverlaengerung</text><text fill="#000000" font-family="sans-serif" font-size="13" lengthAdjust="spacing" textLength="24.8066" x="1055.5257" y="143.5491">0..1</text></g><!--link Vertragskonditionen to Zeitraum--><g class="link" data-entity-1="Vertragskonditionen" data-entity-2="Zeitraum" data-source-line="18" data-uid="lnk11" id="link_Vertragskonditionen_Zeitraum"><path codeLine="18" d="M851.69,171.68 C912.43,172.08 974.03,169.08 1032.21,160.74 C1053.94,157.62 1065.7726,155.0477 1085.9726,148.7577" fill="none" id="Vertragskonditionen-to-Zeitraum-3" style="stroke:#181818;stroke-width:1;"/><polygon fill="#181818" points="1097.43,145.19,1090.5121,143.1547,1085.9726,148.7577,1092.8905,150.793,1097.43,145.19" style="stroke:#181818;stroke-width:1;"/><text fill="#000000" font-family="sans-serif" font-size="13" lengthAdjust="spacing" textLength="105.6504" x="904.21" y="156.8069">abschlagszyklus</text><text fill="#000000" font-family="sans-serif" font-size="13" lengthAdjust="spacing" textLength="24.8066" x="1055.4415" y="164.5179">0..1</text></g><!--SRC=[nLDTQzim57sEViKbVIWC8gLGnZ1j84l3AEqIw48VwfeXszUsY3wC9BTDjlttoccTiSxRGySsmyNtNewEZkw7nCA3Ds15MNd8XSNC2wC9oIHt3ePnN0Y94GjVPHGossYDbjqRksRlbyVpKRtnbT4_-Bd97AEKKMyUdWAlQbPv9Hcl1KlDCTBCADfc3lRH7LflUUdMHkUYrO2QNl-SWvvSajpg4oUs61sD9xyZ709tVGJmXGm- -qqD4LmAZvRB-6Hcr6fJq-lvrUfg-k7JnN9nThuwNoxcYmWEUxA7amJYemHEuTSdoI15brKMHTheCjpcl8LuJEdkt2988GEkjxoIqpJW9CSI0-eCCw6uV87yHeZc2btDC_pxZO8kIf9T5RiG3kRZwRktixQ4_tncjYX2Anj5RvuTw9p-aUZmknTqqF-WkxNPyYC4wnSQRASn0De-zox2QFHricz3IzSF2xWtC6mdP_WTlQzN1DsQIDuKRNrUnx9kC83BCDMkiCBvFzCI_c7sTOcX1UNhgFZJ0fLkkrdBnX5IYHn1eKhHEk8gSm-zl8L0cRj7]--></g></svg>