<?xml version="1.0" encoding="us-ascii" standalone="no"?><svg xmlns="http://www.w3.org/2000/svg" xmlns:xlink="http://www.w3.org/1999/xlink" contentStyleType="text/css" height="265px" preserveAspectRatio="none" style="width:716px;height:265px;background:#FFFFFF;" version="1.1" viewBox="0 0 716 265" width="716px" zoomAndPan="magnify"><defs/><g><!--cluster bo4e--><g id="cluster_bo4e"><path d="M505.5,6 L546.5,6 A3.75,3.75 0 0 1 549,8.5 L556,28.2969 L706.5,28.2969 A2.5,2.5 0 0 1 709,30.7969 L709,232.5 A2.5,2.5 0 0 1 706.5,235 L505.5,235 A2.5,2.5 0 0 1 503,232.5 L503,8.5 A2.5,2.5 0 0 1 505.5,6 " fill="none" style="stroke:#000000;stroke-width:1.5;"/><line style="stroke:#000000;stroke-width:1.5;" x1="503" x2="556" y1="28.2969" y2="28.2969"/><text fill="#000000" font-family="sans-serif" font-size="14" font-weight="bold" lengthAdjust="spacing" textLength="40" x="507" y="20.9951">bo4e</text></g><!--cluster com--><g id="cluster_com"><path d="M529.5,49 L608.5,49 A3.75,3.75 0 0 1 611,51.5 L618,71.2969 L682.5,71.2969 A2.5,2.5 0 0 1 685,73.7969 L685,208.5 A2.5,2.5 0 0 1 682.5,211 L529.5,211 A2.5,2.5 0 0 1 527,208.5 L527,51.5 A2.5,2.5 0 0 1 529.5,49 " fill="#E0A86C" style="stroke:#000000;stroke-width:1.5;"/><line style="stroke:#000000;stroke-width:1.5;" x1="527" x2="618" y1="71.2969" y2="71.2969"/><a href="https://bo4e.github.io/BO4E-python/latest/api/bo4e.com.html" target="_top" title="https://bo4e.github.io/BO4E-python/latest/api/bo4e.com.html" xlink:actuate="onRequest" xlink:href="https://bo4e.github.io/BO4E-python/latest/api/bo4e.com.html" xlink:show="new" xlink:title="https://bo4e.github.io/BO4E-python/latest/api/bo4e.com.html" xlink:type="simple"><text fill="#0000FF" font-family="sans-serif" font-size="14" font-weight="bold" lengthAdjust="spacing" text-decoration="underline" textLength="78" x="531" y="63.9951">bo4e.com</text></a></g><!--class COM--><g id="elem_COM"><rect codeLine="9" fill="#F1F1F1" height="37.9375" id="COM" rx="2.5" ry="2.5" style="stroke:#181818;stroke-width:0.5;" width="104" x="554" y="84.03"/><ellipse cx="569" cy="102.9988" fill="#ADD1B2" rx="11" ry="11" style="stroke:#181818;stroke-width:1.0;"/><path d="M571.9688,108.6394 Q571.3906,108.9363 570.75,109.0769 Q570.1094,109.2331 569.4063,109.2331 Q566.9063,109.2331 565.5781,107.5925 Q564.2656,105.9363 564.2656,102.8113 Q564.2656,99.6863 565.5781,98.03 Q566.9063,96.3738 569.4063,96.3738 Q570.1094,96.3738 570.75,96.53 Q571.4063,96.6863 571.9688,96.9831 L571.9688,99.7019 Q571.3438,99.1238 570.75,98.8581 Q570.1563,98.5769 569.5313,98.5769 Q568.1875,98.5769 567.5,99.655 Q566.8125,100.7175 566.8125,102.8113 Q566.8125,104.905 567.5,105.9831 Q568.1875,107.0456 569.5313,107.0456 Q570.1563,107.0456 570.75,106.78 Q571.3438,106.4988 571.9688,105.9206 L571.9688,108.6394 Z " fill="#000000"/><a href="https://bo4e.github.io/BO4E-python/latest/api/bo4e.com.html#bo4e.com.com.COM" target="_top" title="https://bo4e.github.io/BO4E-python/latest/api/bo4e.com.html#bo4e.com.com.COM" xlink:actuate="onRequest" xlink:href="https://bo4e.github.io/BO4E-python/latest/api/bo4e.com.html#bo4e.com.com.COM" xlink:show="new" xlink:title="https://bo4e.github.io/BO4E-python/latest/api/bo4e.com.html#bo4e.com.com.COM" xlink:type="simple"><text fill="#0000FF" font-family="sans-serif" font-size="14" lengthAdjust="spacing" text-decoration="underline" textLength="33" x="602.5" y="102.0251">COM</text></a><text fill="#000000" font-family="sans-serif" font-size="10" lengthAdjust="spacing" textLength="72" x="583" y="114.6091">bo4e.com.com</text></g><!--class Zeitraum--><g id="elem_Zeitraum"><rect codeLine="10" fill="#F1F1F1" height="37.9375" id="Zeitraum" rx="2.5" ry="2.5" style="stroke:#181818;stroke-width:0.5;" width="126" x="543" y="157.03"/><ellipse cx="558" cy="175.9988" fill="#ADD1B2" rx="11" ry="11" style="stroke:#181818;stroke-width:1.0;"/><path d="M560.9688,181.6394 Q560.3906,181.9363 559.75,182.0769 Q559.1094,182.2331 558.4063,182.2331 Q555.9063,182.2331 554.5781,180.5925 Q553.2656,178.9363 553.2656,175.8113 Q553.2656,172.6863 554.5781,171.03 Q555.9063,169.3738 558.4063,169.3738 Q559.1094,169.3738 559.75,169.53 Q560.4063,169.6863 560.9688,169.9831 L560.9688,172.7019 Q560.3438,172.1238 559.75,171.8581 Q559.1563,171.5769 558.5313,171.5769 Q557.1875,171.5769 556.5,172.655 Q555.8125,173.7175 555.8125,175.8113 Q555.8125,177.905 556.5,178.9831 Q557.1875,180.0456 558.5313,180.0456 Q559.1563,180.0456 559.75,179.78 Q560.3438,179.4988 560.9688,178.9206 L560.9688,181.6394 Z " fill="#000000"/><a href="https://bo4e.github.io/BO4E-python/latest/api/bo4e.com.html#bo4e.com.zeitraum.Zeitraum" target="_top" title="https://bo4e.github.io/BO4E-python/latest/api/bo4e.com.html#bo4e.com.zeitraum.Zeitraum" xlink:actuate="onRequest" xlink:href="https://bo4e.github.io/BO4E-python/latest/api/bo4e.com.html#bo4e.com.zeitraum.Zeitraum" xlink:show="new" xlink:title="https://bo4e.github.io/BO4E-python/latest/api/bo4e.com.html#bo4e.com.zeitraum.Zeitraum" xlink:type="simple"><text fill="#0000FF" font-family="sans-serif" font-size="14" lengthAdjust="spacing" text-decoration="underline" textLength="62" x="588" y="175.0251">Zeitraum</text></a><text fill="#000000" font-family="sans-serif" font-size="10" lengthAdjust="spacing" textLength="94" x="572" y="187.6091">bo4e.com.zeitraum</text></g><!--class Vertragskonditionen--><g id="elem_Vertragskonditionen"><rect codeLine="3" fill="#F1F1F1" height="78.5313" id="Vertragskonditionen" rx="2.5" ry="2.5" style="stroke:#181818;stroke-width:0.5;" width="303" x="7" y="136.73"/><ellipse cx="80.75" cy="155.6988" fill="#ADD1B2" rx="11" ry="11" style="stroke:#181818;stroke-width:1.0;"/><path d="M83.7188,161.3394 Q83.1406,161.6363 82.5,161.7769 Q81.8594,161.9331 81.1563,161.9331 Q78.6563,161.9331 77.3281,160.2925 Q76.0156,158.6363 76.0156,155.5113 Q76.0156,152.3863 77.3281,150.73 Q78.6563,149.0738 81.1563,149.0738 Q81.8594,149.0738 82.5,149.23 Q83.1563,149.3863 83.7188,149.6831 L83.7188,152.4019 Q83.0938,151.8238 82.5,151.5581 Q81.9063,151.2769 81.2813,151.2769 Q79.9375,151.2769 79.25,152.355 Q78.5625,153.4175 78.5625,155.5113 Q78.5625,157.605 79.25,158.6831 Q79.9375,159.7456 81.2813,159.7456 Q81.9063,159.7456 82.5,159.48 Q83.0938,159.1988 83.7188,158.6206 L83.7188,161.3394 Z " fill="#000000"/><a href="https://bo4e.github.io/BO4E-python/latest/api/bo4e.com.html#bo4e.com.vertragskonditionen.Vertragskonditionen" target="_top" title="https://bo4e.github.io/BO4E-python/latest/api/bo4e.com.html#bo4e.com.vertragskonditionen.Vertragskonditionen" xlink:actuate="onRequest" xlink:href="https://bo4e.github.io/BO4E-python/latest/api/bo4e.com.html#bo4e.com.vertragskonditionen.Vertragskonditionen" xlink:show="new" xlink:title="https://bo4e.github.io/BO4E-python/latest/api/bo4e.com.html#bo4e.com.vertragskonditionen.Vertragskonditionen" xlink:type="simple"><text fill="#0000FF" font-family="sans-serif" font-size="14" lengthAdjust="spacing" text-decoration="underline" textLength="140" x="104.75" y="154.7251">Vertragskonditionen</text></a><text fill="#000000" font-family="sans-serif" font-size="10" lengthAdjust="spacing" textLength="147" x="101.25" y="167.3091">bo4e.com.vertragskonditionen</text><line style="stroke:#181818;stroke-width:0.5;" x1="8" x2="309" y1="174.6675" y2="174.6675"/><text fill="#000000" font-family="sans-serif" font-size="14" lengthAdjust="spacing" textLength="224" x="13" y="191.6626">beschreibung : str [0..1] = None</text><text fill="#000000" font-family="sans-serif" font-size="14" lengthAdjust="spacing" textLength="291" x="13" y="207.9595">anzahlAbschlaege : Decimal [0..1] = None</text></g><!--link Vertragskonditionen to COM--><g id="link_Vertragskonditionen_COM"><path codeLine="13" d="M310.34,136.75 C320.35,134.66 330.3,132.71 340,131 C413.8,117.97 482.3685,111.5401 535.9485,107.6001 " fill="none" id="Vertragskonditionen-to-COM" style="stroke:#181818;stroke-width:1.0;"/><polygon fill="none" points="553.9,106.28,535.5084,101.6162,536.3885,113.5839,553.9,106.28" style="stroke:#181818;stroke-width:1.0;"/></g><!--link Vertragskonditionen to Zeitraum--><g id="link_Vertragskonditionen_Zeitraum"><path codeLine="14" d="M310.4,159.47 C365.95,155.55 429.37,153.63 487,158 C505.18,159.38 512.9497,160.1143 530.8797,162.8743 " fill="none" id="Vertragskonditionen-to-Zeitraum" style="stroke:#181818;stroke-width:1.0;"/><polygon fill="#181818" points="542.74,164.7,537.4184,159.8337,530.8797,162.8743,536.2013,167.7406,542.74,164.7" style="stroke:#181818;stroke-width:1.0;"/><text fill="#000000" font-family="sans-serif" font-size="13" lengthAdjust="spacing" textLength="99" x="364" y="152.0669">vertragslaufzeit</text><text fill="#000000" font-family="sans-serif" font-size="13" lengthAdjust="spacing" textLength="24" x="510.9788" y="176.382">0..1</text></g><!--link Vertragskonditionen to Zeitraum--><g id="link_Vertragskonditionen_Zeitraum"><path codeLine="15" d="M310.33,182.44 C365.87,183.96 429.3,184.71 487,183 C505.05,182.47 512.6613,182.1848 530.5913,181.1148 " fill="none" id="Vertragskonditionen-to-Zeitraum-1" style="stroke:#181818;stroke-width:1.0;"/><polygon fill="#181818" points="542.57,180.4,536.3424,176.7645,530.5913,181.1148,536.8189,184.7503,542.57,180.4" style="stroke:#181818;stroke-width:1.0;"/><text fill="#000000" font-family="sans-serif" font-size="13" lengthAdjust="spacing" textLength="105" x="361" y="179.0669">kuendigungsfrist</text><text fill="#000000" font-family="sans-serif" font-size="13" lengthAdjust="spacing" textLength="24" x="510.7913" y="193.7011">0..1</text></g><!--link Vertragskonditionen to Zeitraum--><g id="link_Vertragskonditionen_Zeitraum"><path codeLine="16" d="M310.17,206.11 C365.84,213.31 429.39,216.9 487,209 C507.13,206.24 517.1387,204.3056 536.2287,198.7456 " fill="none" id="Vertragskonditionen-to-Zeitraum-2" style="stroke:#181818;stroke-width:1.0;"/><polygon fill="#181818" points="547.75,195.39,540.8708,193.2274,536.2287,198.7456,543.1079,200.9082,547.75,195.39" style="stroke:#181818;stroke-width:1.0;"/><text fill="#000000" font-family="sans-serif" font-size="13" lengthAdjust="spacing" textLength="145" x="341" y="205.0669">vertragsverlaengerung</text><text fill="#000000" font-family="sans-serif" font-size="13" lengthAdjust="spacing" textLength="24" x="510.7977" y="212.4272">0..1</text></g><!--link Vertragskonditionen to Zeitraum--><g id="link_Vertragskonditionen_Zeitraum"><path codeLine="17" d="M253.27,215.69 C319.08,238.28 408.93,258.54 487,239 C520.57,230.6 545.0293,217.2722 567.9793,202.0522 " fill="none" id="Vertragskonditionen-to-Zeitraum-3" style="stroke:#181818;stroke-width:1.0;"/><polygon fill="#181818" points="577.98,195.42,570.7689,195.4026,567.9793,202.0522,575.1904,202.0697,577.98,195.42" style="stroke:#181818;stroke-width:1.0;"/><text fill="#000000" font-family="sans-serif" font-size="13" lengthAdjust="spacing" textLength="103" x="362" y="235.0669">abschlagszyklus</text><text fill="#000000" font-family="sans-serif" font-size="13" lengthAdjust="spacing" textLength="24" x="542.7244" y="215.0772">0..1</text></g><!--SRC=[hP8nJyCm48Nd-bUSqWsfIIjL25LGgPIEq8s1ai59BhPLnuby3gW1_ZjE8KM2YA7jS8hF-lJySlSqvWvS2LO9wI1J5bEdIiDOgZaH19kDTAwYMHGbvHH3ePoiar2LqUrwkXfLEoTB4sdka5p4A_L5fMKHIbVeuQ5xGUii5xGjJQRQ1z24Zt_leESkZf_DDQa6PvFn_3_103Zr2S0R6oH8gRIeaje8c04v2vjn64vYk8473x41DmsNUf5uJdCKwAaxJ5N1zI_oWp732wIAftZYVA3hudXllcjXk1elhYwNhVFpxg6jvVeUVFNFrTVUYWVE_NQ3og-cBiAdxmDqXtuh7R_tqw7j-7kJCngzpmy3RF-n7_FS1GJjGeCV-c1e1bskDA_pri1nAjiQFInys2YtYjnfNlpNHz88j5xmE2d-bMj1pMwhQs9CgWoXm291Iuna-Ggzkhb2dT4d]--></g></svg>