<?xml version="1.0" encoding="us-ascii" standalone="no"?><svg xmlns="http://www.w3.org/2000/svg" xmlns:xlink="http://www.w3.org/1999/xlink" contentStyleType="text/css" height="295px" preserveAspectRatio="none" style="width:1236px;height:295px;background:#FFFFFF;" version="1.1" viewBox="0 0 1236 295" width="1236px" zoomAndPan="magnify"><defs/><g><!--cluster bo4e--><g id="cluster_bo4e"><path d="M1025.5,6 L1066.5,6 A3.75,3.75 0 0 1 1069,8.5 L1076,28.2969 L1226.5,28.2969 A2.5,2.5 0 0 1 1229,30.7969 L1229,232.5 A2.5,2.5 0 0 1 1226.5,235 L1025.5,235 A2.5,2.5 0 0 1 1023,232.5 L1023,8.5 A2.5,2.5 0 0 1 1025.5,6 " fill="none" style="stroke:#000000;stroke-width:1.5;"/><line style="stroke:#000000;stroke-width:1.5;" x1="1023" x2="1076" y1="28.2969" y2="28.2969"/><text fill="#000000" font-family="sans-serif" font-size="14" font-weight="bold" lengthAdjust="spacing" textLength="40" x="1027" y="20.9951">bo4e</text></g><!--cluster com--><g id="cluster_com"><path d="M1049.5,49 L1128.5,49 A3.75,3.75 0 0 1 1131,51.5 L1138,71.2969 L1202.5,71.2969 A2.5,2.5 0 0 1 1205,73.7969 L1205,208.5 A2.5,2.5 0 0 1 1202.5,211 L1049.5,211 A2.5,2.5 0 0 1 1047,208.5 L1047,51.5 A2.5,2.5 0 0 1 1049.5,49 " fill="#E0A86C" style="stroke:#000000;stroke-width:1.5;"/><line style="stroke:#000000;stroke-width:1.5;" x1="1047" x2="1138" y1="71.2969" y2="71.2969"/><a href="https://bo4e.github.io/BO4E-python/latest/api/bo4e.com.html" target="_top" title="https://bo4e.github.io/BO4E-python/latest/api/bo4e.com.html" xlink:actuate="onRequest" xlink:href="https://bo4e.github.io/BO4E-python/latest/api/bo4e.com.html" xlink:show="new" xlink:title="https://bo4e.github.io/BO4E-python/latest/api/bo4e.com.html" xlink:type="simple"><text fill="#0000FF" font-family="sans-serif" font-size="14" font-weight="bold" lengthAdjust="spacing" text-decoration="underline" textLength="78" x="1051" y="63.9951">bo4e.com</text></a></g><!--class COM--><g id="elem_COM"><rect codeLine="10" fill="#F1F1F1" height="37.9375" id="COM" rx="2.5" ry="2.5" style="stroke:#181818;stroke-width:0.5;" width="104" x="1074" y="84.03"/><ellipse cx="1089" cy="102.9988" fill="#ADD1B2" rx="11" ry="11" style="stroke:#181818;stroke-width:1.0;"/><path d="M1091.9688,108.6394 Q1091.3906,108.9363 1090.75,109.0769 Q1090.1094,109.2331 1089.4063,109.2331 Q1086.9063,109.2331 1085.5781,107.5925 Q1084.2656,105.9363 1084.2656,102.8113 Q1084.2656,99.6863 1085.5781,98.03 Q1086.9063,96.3738 1089.4063,96.3738 Q1090.1094,96.3738 1090.75,96.53 Q1091.4063,96.6863 1091.9688,96.9831 L1091.9688,99.7019 Q1091.3438,99.1238 1090.75,98.8581 Q1090.1563,98.5769 1089.5313,98.5769 Q1088.1875,98.5769 1087.5,99.655 Q1086.8125,100.7175 1086.8125,102.8113 Q1086.8125,104.905 1087.5,105.9831 Q1088.1875,107.0456 1089.5313,107.0456 Q1090.1563,107.0456 1090.75,106.78 Q1091.3438,106.4988 1091.9688,105.9206 L1091.9688,108.6394 Z " fill="#000000"/><a href="https://bo4e.github.io/BO4E-python/latest/api/bo4e.com.html#bo4e.com.com.COM" target="_top" title="https://bo4e.github.io/BO4E-python/latest/api/bo4e.com.html#bo4e.com.com.COM" xlink:actuate="onRequest" xlink:href="https://bo4e.github.io/BO4E-python/latest/api/bo4e.com.html#bo4e.com.com.COM" xlink:show="new" xlink:title="https://bo4e.github.io/BO4E-python/latest/api/bo4e.com.html#bo4e.com.com.COM" xlink:type="simple"><text fill="#0000FF" font-family="sans-serif" font-size="14" lengthAdjust="spacing" text-decoration="underline" textLength="33" x="1122.5" y="102.0251">COM</text></a><text fill="#000000" font-family="sans-serif" font-size="10" lengthAdjust="spacing" textLength="72" x="1103" y="114.6091">bo4e.com.com</text></g><!--class Zeitraum--><g id="elem_Zeitraum"><rect codeLine="11" fill="#F1F1F1" height="37.9375" id="Zeitraum" rx="2.5" ry="2.5" style="stroke:#181818;stroke-width:0.5;" width="126" x="1063" y="157.03"/><ellipse cx="1078" cy="175.9988" fill="#ADD1B2" rx="11" ry="11" style="stroke:#181818;stroke-width:1.0;"/><path d="M1080.9688,181.6394 Q1080.3906,181.9363 1079.75,182.0769 Q1079.1094,182.2331 1078.4063,182.2331 Q1075.9063,182.2331 1074.5781,180.5925 Q1073.2656,178.9363 1073.2656,175.8113 Q1073.2656,172.6863 1074.5781,171.03 Q1075.9063,169.3738 1078.4063,169.3738 Q1079.1094,169.3738 1079.75,169.53 Q1080.4063,169.6863 1080.9688,169.9831 L1080.9688,172.7019 Q1080.3438,172.1238 1079.75,171.8581 Q1079.1563,171.5769 1078.5313,171.5769 Q1077.1875,171.5769 1076.5,172.655 Q1075.8125,173.7175 1075.8125,175.8113 Q1075.8125,177.905 1076.5,178.9831 Q1077.1875,180.0456 1078.5313,180.0456 Q1079.1563,180.0456 1079.75,179.78 Q1080.3438,179.4988 1080.9688,178.9206 L1080.9688,181.6394 Z " fill="#000000"/><a href="https://bo4e.github.io/BO4E-python/latest/api/bo4e.com.html#bo4e.com.zeitraum.Zeitraum" target="_top" title="https://bo4e.github.io/BO4E-python/latest/api/bo4e.com.html#bo4e.com.zeitraum.Zeitraum" xlink:actuate="onRequest" xlink:href="https://bo4e.github.io/BO4E-python/latest/api/bo4e.com.html#bo4e.com.zeitraum.Zeitraum" xlink:show="new" xlink:title="https://bo4e.github.io/BO4E-python/latest/api/bo4e.com.html#bo4e.com.zeitraum.Zeitraum" xlink:type="simple"><text fill="#0000FF" font-family="sans-serif" font-size="14" lengthAdjust="spacing" text-decoration="underline" textLength="62" x="1108" y="175.0251">Zeitraum</text></a><text fill="#000000" font-family="sans-serif" font-size="10" lengthAdjust="spacing" textLength="94" x="1092" y="187.6091">bo4e.com.zeitraum</text></g><!--class Vertragskonditionen--><g id="elem_Vertragskonditionen"><rect codeLine="3" fill="#F1F1F1" height="94.8281" id="Vertragskonditionen" rx="2.5" ry="2.5" style="stroke:#181818;stroke-width:0.5;" width="823" x="7" y="128.58"/><ellipse cx="340.75" cy="147.5488" fill="#ADD1B2" rx="11" ry="11" style="stroke:#181818;stroke-width:1.0;"/><path d="M343.7188,153.1894 Q343.1406,153.4863 342.5,153.6269 Q341.8594,153.7831 341.1563,153.7831 Q338.6563,153.7831 337.3281,152.1425 Q336.0156,150.4863 336.0156,147.3613 Q336.0156,144.2363 337.3281,142.58 Q338.6563,140.9238 341.1563,140.9238 Q341.8594,140.9238 342.5,141.08 Q343.1563,141.2363 343.7188,141.5331 L343.7188,144.2519 Q343.0938,143.6738 342.5,143.4081 Q341.9063,143.1269 341.2813,143.1269 Q339.9375,143.1269 339.25,144.205 Q338.5625,145.2675 338.5625,147.3613 Q338.5625,149.455 339.25,150.5331 Q339.9375,151.5956 341.2813,151.5956 Q341.9063,151.5956 342.5,151.33 Q343.0938,151.0488 343.7188,150.4706 L343.7188,153.1894 Z " fill="#000000"/><a href="https://bo4e.github.io/BO4E-python/latest/api/bo4e.com.html#bo4e.com.vertragskonditionen.Vertragskonditionen" target="_top" title="https://bo4e.github.io/BO4E-python/latest/api/bo4e.com.html#bo4e.com.vertragskonditionen.Vertragskonditionen" xlink:actuate="onRequest" xlink:href="https://bo4e.github.io/BO4E-python/latest/api/bo4e.com.html#bo4e.com.vertragskonditionen.Vertragskonditionen" xlink:show="new" xlink:title="https://bo4e.github.io/BO4E-python/latest/api/bo4e.com.html#bo4e.com.vertragskonditionen.Vertragskonditionen" xlink:type="simple"><text fill="#0000FF" font-family="sans-serif" font-size="14" lengthAdjust="spacing" text-decoration="underline" textLength="140" x="364.75" y="146.5751">Vertragskonditionen</text></a><text fill="#000000" font-family="sans-serif" font-size="10" lengthAdjust="spacing" textLength="147" x="361.25" y="159.1591">bo4e.com.vertragskonditionen</text><line style="stroke:#181818;stroke-width:0.5;" x1="8" x2="829" y1="166.5175" y2="166.5175"/><text fill="#000000" font-family="sans-serif" font-size="14" lengthAdjust="spacing" textLength="811" x="13" y="183.5126">_typ : Literal[&lt;ComTyp.VERTRAGSKONDITIONEN: 'VERTRAGSKONDITIONEN'&gt;] [1] = ComTyp.VERTRAGSKONDITIONEN</text><text fill="#000000" font-family="sans-serif" font-size="14" lengthAdjust="spacing" textLength="224" x="13" y="199.8095">beschreibung : str [0..1] = None</text><text fill="#000000" font-family="sans-serif" font-size="14" lengthAdjust="spacing" textLength="291" x="13" y="216.1064">anzahlAbschlaege : Decimal [0..1] = None</text></g><!--link Vertragskonditionen to COM--><g id="link_Vertragskonditionen_COM"><path codeLine="14" d="M830.4,131.03 C840.36,130 850.24,128.99 860,128 C934.25,120.45 1002.3541,114.1115 1055.7541,109.2515 " fill="none" id="Vertragskonditionen-to-COM" style="stroke:#181818;stroke-width:1.0;"/><polygon fill="none" points="1073.68,107.62,1055.2103,103.2762,1056.2979,115.2268,1073.68,107.62" style="stroke:#181818;stroke-width:1.0;"/></g><!--link Vertragskonditionen to Zeitraum--><g id="link_Vertragskonditionen_Zeitraum"><path codeLine="15" d="M830.23,152.29 C889.59,152.1 949.89,153.67 1007,158 C1025.18,159.38 1032.9497,160.1143 1050.8797,162.8743 " fill="none" id="Vertragskonditionen-to-Zeitraum" style="stroke:#181818;stroke-width:1.0;"/><polygon fill="#181818" points="1062.74,164.7,1057.4184,159.8337,1050.8797,162.8743,1056.2013,167.7406,1062.74,164.7" style="stroke:#181818;stroke-width:1.0;"/><text fill="#000000" font-family="sans-serif" font-size="13" lengthAdjust="spacing" textLength="99" x="884" y="149.0669">vertragslaufzeit</text><text fill="#000000" font-family="sans-serif" font-size="13" lengthAdjust="spacing" textLength="24" x="1030.9788" y="176.382">0..1</text></g><!--link Vertragskonditionen to Zeitraum--><g id="link_Vertragskonditionen_Zeitraum"><path codeLine="16" d="M830.41,185.24 C889.67,185.31 949.9,184.69 1007,183 C1025.05,182.46 1032.6617,182.1915 1050.5917,181.1115 " fill="none" id="Vertragskonditionen-to-Zeitraum-1" style="stroke:#181818;stroke-width:1.0;"/><polygon fill="#181818" points="1062.57,180.39,1056.3404,176.758,1050.5917,181.1115,1056.8214,184.7435,1062.57,180.39" style="stroke:#181818;stroke-width:1.0;"/><text fill="#000000" font-family="sans-serif" font-size="13" lengthAdjust="spacing" textLength="105" x="881" y="179.0669">kuendigungsfrist</text><text fill="#000000" font-family="sans-serif" font-size="13" lengthAdjust="spacing" textLength="24" x="1030.7913" y="193.69">0..1</text></g><!--link Vertragskonditionen to Zeitraum--><g id="link_Vertragskonditionen_Zeitraum"><path codeLine="17" d="M830.48,221.75 C889.87,222.19 950.12,219.26 1007,211 C1028.46,207.88 1040.0164,205.3517 1059.9464,199.0617 " fill="none" id="Vertragskonditionen-to-Zeitraum-2" style="stroke:#181818;stroke-width:1.0;"/><polygon fill="#181818" points="1071.39,195.45,1064.4643,193.4413,1059.9464,199.0617,1066.8721,201.0704,1071.39,195.45" style="stroke:#181818;stroke-width:1.0;"/><text fill="#000000" font-family="sans-serif" font-size="13" lengthAdjust="spacing" textLength="145" x="861" y="207.0669">vertragsverlaengerung</text><text fill="#000000" font-family="sans-serif" font-size="13" lengthAdjust="spacing" textLength="24" x="1031.1538" y="214.1024">0..1</text></g><!--link Vertragskonditionen to Zeitraum--><g id="link_Vertragskonditionen_Zeitraum"><path codeLine="18" d="M562.79,223.89 C683.21,256.92 858.88,288.12 1007,247 C1043.17,236.96 1069.8563,219.8567 1092.4263,202.4567 " fill="none" id="Vertragskonditionen-to-Zeitraum-3" style="stroke:#181818;stroke-width:1.0;"/><polygon fill="#181818" points="1101.93,195.13,1094.7359,195.6255,1092.4263,202.4567,1099.6204,201.9612,1101.93,195.13" style="stroke:#181818;stroke-width:1.0;"/><text fill="#000000" font-family="sans-serif" font-size="13" lengthAdjust="spacing" textLength="103" x="882" y="243.0669">abschlagszyklus</text><text fill="#000000" font-family="sans-serif" font-size="13" lengthAdjust="spacing" textLength="24" x="1067.3344" y="215.0393">0..1</text></g><!--SRC=[hL9HIoCn47vkViNGFWW7tQqWnx5uXLgBY5uBMdouTP7iThe9pIPB9gkqwdytMszxeAiFreSXcU7BDrzcFeLB1yw0bRbmi90MCoUDPYnJd0YwSIoSAoaAmzGSOP1B9weqa2OycHrD-kNQ2QD3nHsI2tafNr6PAGBX2jNRPVTedUKvhOnUoBe1wk3cVGrQQaboguz9RZ0w70m_8-m2fpO2U6ITExSk8O9BwT1o5H-FJJ5Vby7Dv6f-DJgxlfXDJy_dvxFfP1h1GKlrO9X0V9Z0R_Zu9UkaI9cmADDAvxuREGln80YsxwPU2kjmlU52ZLAFKnnpzAXJp6J1rHlaCsEQ5qWbpt3FBK2J9SbsH4qAlSbWzEldk9xFzswxZl7i3_XetvwFhHGF-ExU6vJU05KH_FrtWURIBgN1R_Kqq7hyhVxizv-6km7MVso7UTmFwDOBxVv7xmH5qBXNyMfP2_WQowf23ywzsMXf9RdzjFZJMrBdQ3tXrwZugwzpsgnNgYB6X5mW55YaQ8cHC0_GohkKg1Rq0W00]--></g></svg>