<?plantuml 1.2026.1?><svg xmlns="http://www.w3.org/2000/svg" xmlns:xlink="http://www.w3.org/1999/xlink" contentStyleType="text/css" data-diagram-type="CLASS" height="173px" preserveAspectRatio="none" style="width:567px;height:173px;background:#FFFFFF;" version="1.1" viewBox="0 0 567 173" width="567px" zoomAndPan="magnify"><defs/><g><!--cluster bo4e--><g class="cluster" data-qualified-name="bo4e" data-source-line="12" id="ent0005"><path d="M392.79,6 L432.666,6 A3.75,3.75 0 0 1 435.166,8.5 L442.166,28.2969 L557.84,28.2969 A2.5,2.5 0 0 1 560.34,30.7969 L560.34,159.5 A2.5,2.5 0 0 1 557.84,162 L392.79,162 A2.5,2.5 0 0 1 390.29,159.5 L390.29,8.5 A2.5,2.5 0 0 1 392.79,6" fill="none" style="stroke:#000000;stroke-width:1.5;"/><line style="stroke:#000000;stroke-width:1.5;" x1="390.29" x2="442.166" y1="28.2969" y2="28.2969"/><text fill="#000000" font-family="sans-serif" font-size="14" font-weight="bold" lengthAdjust="spacing" textLength="38.876" x="394.29" y="20.9951">bo4e</text></g><!--cluster com--><g class="cluster" data-qualified-name="bo4e.com" data-source-line="11" id="ent0003"><path d="M416.79,49 L494.4892,49 A3.75,3.75 0 0 1 496.9892,51.5 L503.9892,71.2969 L533.84,71.2969 A2.5,2.5 0 0 1 536.34,73.7969 L536.34,135.5 A2.5,2.5 0 0 1 533.84,138 L416.79,138 A2.5,2.5 0 0 1 414.29,135.5 L414.29,51.5 A2.5,2.5 0 0 1 416.79,49" fill="#E0A86C" style="stroke:#000000;stroke-width:1.5;"/><line style="stroke:#000000;stroke-width:1.5;" x1="414.29" x2="503.9892" y1="71.2969" y2="71.2969"/><text fill="#000000" font-family="sans-serif" font-size="14" font-weight="bold" lengthAdjust="spacing" textLength="76.6992" x="418.29" y="63.9951">bo4e.com</text></g><!--class Betrag--><g class="entity" data-qualified-name="bo4e.com.Betrag" data-source-line="12" id="ent0004"><rect fill="#F1F1F1" height="37.9375" rx="2.5" ry="2.5" style="stroke:#181818;stroke-width:0.5;" width="90.0566" x="430.29" y="84.03"/><ellipse cx="445.29" cy="102.9988" fill="#ADD1B2" rx="11" ry="11" style="stroke:#181818;stroke-width:1;"/><path d="M448.2588,108.6394 Q447.6806,108.9363 447.04,109.0769 Q446.3994,109.2331 445.6963,109.2331 Q443.1963,109.2331 441.8681,107.5925 Q440.5556,105.9363 440.5556,102.8113 Q440.5556,99.6863 441.8681,98.03 Q443.1963,96.3738 445.6963,96.3738 Q446.3994,96.3738 447.04,96.53 Q447.6963,96.6863 448.2588,96.9831 L448.2588,99.7019 Q447.6338,99.1238 447.04,98.8581 Q446.4463,98.5769 445.8213,98.5769 Q444.4775,98.5769 443.79,99.655 Q443.1025,100.7175 443.1025,102.8113 Q443.1025,104.905 443.79,105.9831 Q444.4775,107.0456 445.8213,107.0456 Q446.4463,107.0456 447.04,106.78 Q447.6338,106.4988 448.2588,105.9206 L448.2588,108.6394 Z " fill="#000000"/><a href="https://bo4e.github.io/BO4E-python/latest/api/com.Betrag.html" target="_top" title="https://bo4e.github.io/BO4E-python/latest/api/com.Betrag.html" xlink:actuate="onRequest" xlink:href="https://bo4e.github.io/BO4E-python/latest/api/com.Betrag.html" xlink:show="new" xlink:title="https://bo4e.github.io/BO4E-python/latest/api/com.Betrag.html" xlink:type="simple"><text fill="#0000FF" font-family="sans-serif" font-size="14" lengthAdjust="spacing" text-decoration="underline" textLength="46.9287" x="464.854" y="102.0251">Betrag</text></a><text fill="#000000" font-family="sans-serif" font-size="10" lengthAdjust="spacing" textLength="58.0566" x="459.29" y="114.6091">com.Betrag</text></g><!--class Vorauszahlung--><g class="entity" data-qualified-name="Vorauszahlung" data-source-line="3" id="ent0002"><rect fill="#F1F1F1" height="127.4219" rx="2.5" ry="2.5" style="stroke:#181818;stroke-width:0.5;" width="293.2852" x="7" y="39.29"/><ellipse cx="97.4087" cy="58.2587" fill="#ADD1B2" rx="11" ry="11" style="stroke:#181818;stroke-width:1;"/><path d="M100.3774,63.8994 Q99.7993,64.1962 99.1587,64.3369 Q98.5181,64.4931 97.8149,64.4931 Q95.3149,64.4931 93.9868,62.8525 Q92.6743,61.1962 92.6743,58.0712 Q92.6743,54.9462 93.9868,53.29 Q95.3149,51.6337 97.8149,51.6337 Q98.5181,51.6337 99.1587,51.79 Q99.8149,51.9462 100.3774,52.2431 L100.3774,54.9619 Q99.7524,54.3837 99.1587,54.1181 Q98.5649,53.8369 97.9399,53.8369 Q96.5962,53.8369 95.9087,54.915 Q95.2212,55.9775 95.2212,58.0712 Q95.2212,60.165 95.9087,61.2431 Q96.5962,62.3056 97.9399,62.3056 Q98.5649,62.3056 99.1587,62.04 Q99.7524,61.7587 100.3774,61.1806 L100.3774,63.8994 Z " fill="#000000"/><a href="https://bo4e.github.io/BO4E-python/latest/api/com.Vorauszahlung.html" target="_top" title="https://bo4e.github.io/BO4E-python/latest/api/com.Vorauszahlung.html" xlink:actuate="onRequest" xlink:href="https://bo4e.github.io/BO4E-python/latest/api/com.Vorauszahlung.html" xlink:show="new" xlink:title="https://bo4e.github.io/BO4E-python/latest/api/com.Vorauszahlung.html" xlink:type="simple"><text fill="#0000FF" font-family="sans-serif" font-size="14" lengthAdjust="spacing" text-decoration="underline" textLength="103.9678" x="117.9087" y="57.2851">Vorauszahlung</text></a><text fill="#000000" font-family="sans-serif" font-size="10" lengthAdjust="spacing" textLength="98.7988" x="120.4932" y="69.8691">com.Vorauszahlung</text><line style="stroke:#181818;stroke-width:0.5;" x1="8" x2="299.2852" y1="77.2275" y2="77.2275"/><text fill="#000000" font-family="sans-serif" font-size="14" lengthAdjust="spacing" textLength="94.0215" x="13" y="94.2226">_id : str [0..1]</text><text fill="#000000" font-family="sans-serif" font-size="14" lengthAdjust="spacing" textLength="281.2852" x="13" y="110.5195">_typ : Literal["VORAUSZAHLUNG"] [0..1]</text><text fill="#000000" font-family="sans-serif" font-size="14" lengthAdjust="spacing" textLength="132.5215" x="13" y="126.8164">_version : str [0..1]</text><text fill="#000000" font-family="sans-serif" font-size="14" lengthAdjust="spacing" textLength="164.3701" x="13" y="143.1132">datum : datetime [0..1]</text><text fill="#000000" font-family="sans-serif" font-size="14" lengthAdjust="spacing" textLength="132.7471" x="13" y="159.4101">referenz : str [0..1]</text></g><!--link Vorauszahlung to Betrag--><g class="link" data-entity-1="ent0002" data-entity-2="ent0004" data-link-type="composition" data-source-line="20" id="lnk6"><path codeLine="20" d="M300.45,103 C347.54,103 384.27,103 418.12,103" fill="none" id="Vorauszahlung-to-Betrag" style="stroke:#181818;stroke-width:1;"/><polygon fill="#181818" points="430.12,103,424.12,99,418.12,103,424.12,107,430.12,103" style="stroke:#181818;stroke-width:1;"/><text fill="#000000" font-family="sans-serif" font-size="13" lengthAdjust="spacing" textLength="42.9102" x="331.29" y="99.0669">betrag</text><text fill="#000000" font-family="sans-serif" font-size="13" lengthAdjust="spacing" textLength="24.8066" x="397.4233" y="116.2257">0..1</text></g><?plantuml-src fP9HIyCm4CVVyocE-2QitM28514w6Vem74pdWxL8sbwNGDgKvEhOnEzkR3Uqx4KnBxdyxovtzqiqbWHamAgD92YKnPoKgHdBjN0EU998eiP5OPYPAGORHRBD0cN2sN8w7pKxagOEjI1q58f6XRcfWYTZHUlsGkgstWIIAWq3AKrVwYkdzXXDnjSd2Ho46yR3EmE_NbK14JYoa8o3O9Bs8kqQhouKeHKwuK_BLRn-U8xl5klxMvuEGj_GEZ_RwIM5eBRoij-HL8K_VHPBj5ZlXraVZDMYGjU8785tQFmWNUl70vpDn_7bnSsX-t_md25PSG3PsoS4Uxchtvj_OJQRFwxYNyFQeYMlbje8-iRXWGpVR3Gw1_xbvSUE8iWwWp6f2eGAgypNO4wQBGo_09GATU4-0G00?></g></svg>