<svg xmlns="http://www.w3.org/2000/svg" xmlns:xlink="http://www.w3.org/1999/xlink" contentStyleType="text/css" data-diagram-type="CLASS" height="793px" preserveAspectRatio="none" style="width:1124px;height:793px;background:#FFFFFF;" version="1.1" viewBox="0 0 1124 793" width="1124px" zoomAndPan="magnify"><defs/><g><!--cluster bo4e--><g class="cluster" data-entity="bo4e" data-source-line="18" data-uid="ent0005" id="cluster_bo4e"><path d="M776.07,6 L815.946,6 A3.75,3.75 0 0 1 818.446,8.5 L825.446,28.2969 L1115.47,28.2969 A2.5,2.5 0 0 1 1117.97,30.7969 L1117.97,783.5 A2.5,2.5 0 0 1 1115.47,786 L776.07,786 A2.5,2.5 0 0 1 773.57,783.5 L773.57,8.5 A2.5,2.5 0 0 1 776.07,6" fill="none" style="stroke:#000000;stroke-width:1.5;"/><line style="stroke:#000000;stroke-width:1.5;" x1="773.57" x2="825.446" y1="28.2969" y2="28.2969"/><text fill="#000000" font-family="sans-serif" font-size="14" font-weight="bold" lengthAdjust="spacing" textLength="38.876" x="777.57" y="20.9951">bo4e</text></g><!--cluster com--><g class="cluster" data-entity="com" data-source-line="17" data-uid="ent0003" id="cluster_com"><path d="M800.07,49 L877.7692,49 A3.75,3.75 0 0 1 880.2692,51.5 L887.2692,71.2969 L1091.47,71.2969 A2.5,2.5 0 0 1 1093.97,73.7969 L1093.97,427.5 A2.5,2.5 0 0 1 1091.47,430 L800.07,430 A2.5,2.5 0 0 1 797.57,427.5 L797.57,51.5 A2.5,2.5 0 0 1 800.07,49" fill="#E0A86C" style="stroke:#000000;stroke-width:1.5;"/><line style="stroke:#000000;stroke-width:1.5;" x1="797.57" x2="887.2692" y1="71.2969" y2="71.2969"/><a href="file:////home/runner/work/BO4E-python/BO4E-python/docs/../.tox/docs/tmp/html/api/bo4e.com.html" target="_top" title="file:////home/runner/work/BO4E-python/BO4E-python/docs/../.tox/docs/tmp/html/api/bo4e.com.html" xlink:actuate="onRequest" xlink:href="file:////home/runner/work/BO4E-python/BO4E-python/docs/../.tox/docs/tmp/html/api/bo4e.com.html" xlink:show="new" xlink:title="file:////home/runner/work/BO4E-python/BO4E-python/docs/../.tox/docs/tmp/html/api/bo4e.com.html" xlink:type="simple"><text fill="#0000FF" font-family="sans-serif" font-size="14" font-weight="bold" lengthAdjust="spacing" text-decoration="underline" textLength="76.6992" x="801.57" y="63.9951">bo4e.com</text></a></g><!--cluster enum--><g class="cluster" data-entity="enum" data-source-line="24" data-uid="ent0010" id="cluster_enum"><path d="M845.65,454 L934.8609,454 A3.75,3.75 0 0 1 937.3609,456.5 L944.3609,476.2969 L1045.89,476.2969 A2.5,2.5 0 0 1 1048.39,478.7969 L1048.39,759.5 A2.5,2.5 0 0 1 1045.89,762 L845.65,762 A2.5,2.5 0 0 1 843.15,759.5 L843.15,456.5 A2.5,2.5 0 0 1 845.65,454" fill="#D1C358" style="stroke:#000000;stroke-width:1.5;"/><line style="stroke:#000000;stroke-width:1.5;" x1="843.15" x2="944.3609" y1="476.2969" y2="476.2969"/><a href="file:////home/runner/work/BO4E-python/BO4E-python/docs/../.tox/docs/tmp/html/api/bo4e.enum.html" target="_top" title="file:////home/runner/work/BO4E-python/BO4E-python/docs/../.tox/docs/tmp/html/api/bo4e.enum.html" xlink:actuate="onRequest" xlink:href="file:////home/runner/work/BO4E-python/BO4E-python/docs/../.tox/docs/tmp/html/api/bo4e.enum.html" xlink:show="new" xlink:title="file:////home/runner/work/BO4E-python/BO4E-python/docs/../.tox/docs/tmp/html/api/bo4e.enum.html" xlink:type="simple"><text fill="#0000FF" font-family="sans-serif" font-size="14" font-weight="bold" lengthAdjust="spacing" text-decoration="underline" textLength="88.2109" x="847.15" y="468.9951">bo4e.enum</text></a></g><!--class VerwendungszweckProMarktrolle--><g class="entity" data-entity="VerwendungszweckProMarktrolle" data-source-line="18" data-uid="ent0004" id="entity_VerwendungszweckProMarktrolle"><rect fill="#F1F1F1" height="37.9375" rx="2.5" ry="2.5" style="stroke:#181818;stroke-width:0.5;" width="264.4014" x="813.57" y="84.03"/><ellipse cx="828.57" cy="102.9987" fill="#ADD1B2" rx="11" ry="11" style="stroke:#181818;stroke-width:1;"/><path d="M831.5388,108.6394 Q830.9606,108.9362 830.32,109.0769 Q829.6794,109.2331 828.9763,109.2331 Q826.4763,109.2331 825.1481,107.5925 Q823.8356,105.9362 823.8356,102.8112 Q823.8356,99.6862 825.1481,98.03 Q826.4763,96.3737 828.9763,96.3737 Q829.6794,96.3737 830.32,96.53 Q830.9763,96.6862 831.5388,96.9831 L831.5388,99.7019 Q830.9138,99.1237 830.32,98.8581 Q829.7263,98.5769 829.1013,98.5769 Q827.7575,98.5769 827.07,99.655 Q826.3825,100.7175 826.3825,102.8112 Q826.3825,104.905 827.07,105.9831 Q827.7575,107.0456 829.1013,107.0456 Q829.7263,107.0456 830.32,106.78 Q830.9138,106.4987 831.5388,105.9206 L831.5388,108.6394 Z " fill="#000000"/><a href="file:////home/runner/work/BO4E-python/BO4E-python/docs/../.tox/docs/tmp/html/api/bo4e.com.html#bo4e.com.verwendungszweckpromarktrolle.VerwendungszweckProMarktrolle" target="_top" title="file:////home/runner/work/BO4E-python/BO4E-python/docs/../.tox/docs/tmp/html/api/bo4e.com.html#bo4e.com.verwendungszweckpromarktrolle.VerwendungszweckProMarktrolle" xlink:actuate="onRequest" xlink:href="file:////home/runner/work/BO4E-python/BO4E-python/docs/../.tox/docs/tmp/html/api/bo4e.com.html#bo4e.com.verwendungszweckpromarktrolle.VerwendungszweckProMarktrolle" xlink:show="new" xlink:title="file:////home/runner/work/BO4E-python/BO4E-python/docs/../.tox/docs/tmp/html/api/bo4e.com.html#bo4e.com.verwendungszweckpromarktrolle.VerwendungszweckProMarktrolle" xlink:type="simple"><text fill="#0000FF" font-family="sans-serif" font-size="14" lengthAdjust="spacing" text-decoration="underline" textLength="232.4014" x="842.57" y="102.0251">VerwendungszweckProMarktrolle</text></a><text fill="#000000" font-family="sans-serif" font-size="10" lengthAdjust="spacing" textLength="219.2041" x="849.1686" y="114.6091">bo4e.com.verwendungszweckpromarktrolle</text></g><!--class COM--><g class="entity" data-entity="COM" data-source-line="19" data-uid="ent0006" id="entity_COM"><rect fill="#F1F1F1" height="37.9375" rx="2.5" ry="2.5" style="stroke:#181818;stroke-width:0.5;" width="106.0527" x="892.75" y="157.03"/><ellipse cx="907.75" cy="175.9987" fill="#ADD1B2" rx="11" ry="11" style="stroke:#181818;stroke-width:1;"/><path d="M910.7188,181.6394 Q910.1406,181.9362 909.5,182.0769 Q908.8594,182.2331 908.1563,182.2331 Q905.6563,182.2331 904.3281,180.5925 Q903.0156,178.9362 903.0156,175.8112 Q903.0156,172.6862 904.3281,171.03 Q905.6563,169.3737 908.1563,169.3737 Q908.8594,169.3737 909.5,169.53 Q910.1563,169.6862 910.7188,169.9831 L910.7188,172.7019 Q910.0938,172.1237 909.5,171.8581 Q908.9063,171.5769 908.2813,171.5769 Q906.9375,171.5769 906.25,172.655 Q905.5625,173.7175 905.5625,175.8112 Q905.5625,177.905 906.25,178.9831 Q906.9375,180.0456 908.2813,180.0456 Q908.9063,180.0456 909.5,179.78 Q910.0938,179.4987 910.7188,178.9206 L910.7188,181.6394 Z " fill="#000000"/><a href="file:////home/runner/work/BO4E-python/BO4E-python/docs/../.tox/docs/tmp/html/api/bo4e.com.html#bo4e.com.com.COM" target="_top" title="file:////home/runner/work/BO4E-python/BO4E-python/docs/../.tox/docs/tmp/html/api/bo4e.com.html#bo4e.com.com.COM" xlink:actuate="onRequest" xlink:href="file:////home/runner/work/BO4E-python/BO4E-python/docs/../.tox/docs/tmp/html/api/bo4e.com.html#bo4e.com.com.COM" xlink:show="new" xlink:title="file:////home/runner/work/BO4E-python/BO4E-python/docs/../.tox/docs/tmp/html/api/bo4e.com.html#bo4e.com.com.COM" xlink:type="simple"><text fill="#0000FF" font-family="sans-serif" font-size="14" lengthAdjust="spacing" text-decoration="underline" textLength="32.874" x="942.3394" y="175.0251">COM</text></a><text fill="#000000" font-family="sans-serif" font-size="10" lengthAdjust="spacing" textLength="74.0527" x="921.75" y="187.6091">bo4e.com.com</text></g><!--class Messwert--><g class="entity" data-entity="Messwert" data-source-line="20" data-uid="ent0007" id="entity_Messwert"><rect fill="#F1F1F1" height="37.9375" rx="2.5" ry="2.5" style="stroke:#181818;stroke-width:0.5;" width="133.3721" x="879.09" y="230.03"/><ellipse cx="894.09" cy="248.9987" fill="#ADD1B2" rx="11" ry="11" style="stroke:#181818;stroke-width:1;"/><path d="M897.0588,254.6394 Q896.4806,254.9362 895.84,255.0769 Q895.1994,255.2331 894.4963,255.2331 Q891.9963,255.2331 890.6681,253.5925 Q889.3556,251.9362 889.3556,248.8112 Q889.3556,245.6862 890.6681,244.03 Q891.9963,242.3737 894.4963,242.3737 Q895.1994,242.3737 895.84,242.53 Q896.4963,242.6862 897.0588,242.9831 L897.0588,245.7019 Q896.4338,245.1237 895.84,244.8581 Q895.2463,244.5769 894.6213,244.5769 Q893.2775,244.5769 892.59,245.655 Q891.9025,246.7175 891.9025,248.8112 Q891.9025,250.905 892.59,251.9831 Q893.2775,253.0456 894.6213,253.0456 Q895.2463,253.0456 895.84,252.78 Q896.4338,252.4987 897.0588,251.9206 L897.0588,254.6394 Z " fill="#000000"/><a href="file:////home/runner/work/BO4E-python/BO4E-python/docs/../.tox/docs/tmp/html/api/bo4e.com.html#bo4e.com.messwert.Messwert" target="_top" title="file:////home/runner/work/BO4E-python/BO4E-python/docs/../.tox/docs/tmp/html/api/bo4e.com.html#bo4e.com.messwert.Messwert" xlink:actuate="onRequest" xlink:href="file:////home/runner/work/BO4E-python/BO4E-python/docs/../.tox/docs/tmp/html/api/bo4e.com.html#bo4e.com.messwert.Messwert" xlink:show="new" xlink:title="file:////home/runner/work/BO4E-python/BO4E-python/docs/../.tox/docs/tmp/html/api/bo4e.com.html#bo4e.com.messwert.Messwert" xlink:type="simple"><text fill="#0000FF" font-family="sans-serif" font-size="14" lengthAdjust="spacing" text-decoration="underline" textLength="66.5889" x="925.4816" y="248.0251">Messwert</text></a><text fill="#000000" font-family="sans-serif" font-size="10" lengthAdjust="spacing" textLength="101.3721" x="908.09" y="260.6091">bo4e.com.messwert</text></g><!--class Zaehlzeitregister--><g class="entity" data-entity="Zaehlzeitregister" data-source-line="21" data-uid="ent0008" id="entity_Zaehlzeitregister"><rect fill="#F1F1F1" height="37.9375" rx="2.5" ry="2.5" style="stroke:#181818;stroke-width:0.5;" width="168.2256" x="861.66" y="303.03"/><ellipse cx="876.66" cy="321.9988" fill="#ADD1B2" rx="11" ry="11" style="stroke:#181818;stroke-width:1;"/><path d="M879.6288,327.6394 Q879.0506,327.9363 878.41,328.0769 Q877.7694,328.2331 877.0663,328.2331 Q874.5663,328.2331 873.2381,326.5925 Q871.9256,324.9363 871.9256,321.8113 Q871.9256,318.6863 873.2381,317.03 Q874.5663,315.3738 877.0663,315.3738 Q877.7694,315.3738 878.41,315.53 Q879.0663,315.6863 879.6288,315.9831 L879.6288,318.7019 Q879.0038,318.1238 878.41,317.8581 Q877.8163,317.5769 877.1913,317.5769 Q875.8475,317.5769 875.16,318.655 Q874.4725,319.7175 874.4725,321.8113 Q874.4725,323.905 875.16,324.9831 Q875.8475,326.0456 877.1913,326.0456 Q877.8163,326.0456 878.41,325.78 Q879.0038,325.4988 879.6288,324.9206 L879.6288,327.6394 Z " fill="#000000"/><a href="file:////home/runner/work/BO4E-python/BO4E-python/docs/../.tox/docs/tmp/html/api/bo4e.com.html#bo4e.com.zaehlzeitregister.Zaehlzeitregister" target="_top" title="file:////home/runner/work/BO4E-python/BO4E-python/docs/../.tox/docs/tmp/html/api/bo4e.com.html#bo4e.com.zaehlzeitregister.Zaehlzeitregister" xlink:actuate="onRequest" xlink:href="file:////home/runner/work/BO4E-python/BO4E-python/docs/../.tox/docs/tmp/html/api/bo4e.com.html#bo4e.com.zaehlzeitregister.Zaehlzeitregister" xlink:show="new" xlink:title="file:////home/runner/work/BO4E-python/BO4E-python/docs/../.tox/docs/tmp/html/api/bo4e.com.html#bo4e.com.zaehlzeitregister.Zaehlzeitregister" xlink:type="simple"><text fill="#0000FF" font-family="sans-serif" font-size="14" lengthAdjust="spacing" text-decoration="underline" textLength="119.1846" x="899.1805" y="321.0251">Zaehlzeitregister</text></a><text fill="#000000" font-family="sans-serif" font-size="10" lengthAdjust="spacing" textLength="136.2256" x="890.66" y="333.6091">bo4e.com.zaehlzeitregister</text></g><!--class Konzessionsabgabe--><g class="entity" data-entity="Konzessionsabgabe" data-source-line="22" data-uid="ent0009" id="entity_Konzessionsabgabe"><rect fill="#F1F1F1" height="37.9375" rx="2.5" ry="2.5" style="stroke:#181818;stroke-width:0.5;" width="182.6592" x="854.44" y="376.03"/><ellipse cx="869.44" cy="394.9988" fill="#ADD1B2" rx="11" ry="11" style="stroke:#181818;stroke-width:1;"/><path d="M872.4088,400.6394 Q871.8306,400.9363 871.19,401.0769 Q870.5494,401.2331 869.8463,401.2331 Q867.3463,401.2331 866.0181,399.5925 Q864.7056,397.9363 864.7056,394.8113 Q864.7056,391.6863 866.0181,390.03 Q867.3463,388.3738 869.8463,388.3738 Q870.5494,388.3738 871.19,388.53 Q871.8463,388.6863 872.4088,388.9831 L872.4088,391.7019 Q871.7838,391.1238 871.19,390.8581 Q870.5963,390.5769 869.9713,390.5769 Q868.6275,390.5769 867.94,391.655 Q867.2525,392.7175 867.2525,394.8113 Q867.2525,396.905 867.94,397.9831 Q868.6275,399.0456 869.9713,399.0456 Q870.5963,399.0456 871.19,398.78 Q871.7838,398.4988 872.4088,397.9206 L872.4088,400.6394 Z " fill="#000000"/><a href="file:////home/runner/work/BO4E-python/BO4E-python/docs/../.tox/docs/tmp/html/api/bo4e.com.html#bo4e.com.konzessionsabgabe.Konzessionsabgabe" target="_top" title="file:////home/runner/work/BO4E-python/BO4E-python/docs/../.tox/docs/tmp/html/api/bo4e.com.html#bo4e.com.konzessionsabgabe.Konzessionsabgabe" xlink:actuate="onRequest" xlink:href="file:////home/runner/work/BO4E-python/BO4E-python/docs/../.tox/docs/tmp/html/api/bo4e.com.html#bo4e.com.konzessionsabgabe.Konzessionsabgabe" xlink:show="new" xlink:title="file:////home/runner/work/BO4E-python/BO4E-python/docs/../.tox/docs/tmp/html/api/bo4e.com.html#bo4e.com.konzessionsabgabe.Konzessionsabgabe" xlink:type="simple"><text fill="#0000FF" font-family="sans-serif" font-size="14" lengthAdjust="spacing" text-decoration="underline" textLength="138.2227" x="889.6583" y="394.0251">Konzessionsabgabe</text></a><text fill="#000000" font-family="sans-serif" font-size="10" lengthAdjust="spacing" textLength="150.6592" x="883.44" y="406.6091">bo4e.com.konzessionsabgabe</text></g><!--class Mengeneinheit--><g class="entity" data-entity="Mengeneinheit" data-source-line="25" data-uid="ent0011" id="entity_Mengeneinheit"><rect fill="#F1F1F1" height="37.9375" rx="2.5" ry="2.5" style="stroke:#181818;stroke-width:0.5;" width="167.4346" x="862.06" y="489.03"/><ellipse cx="877.06" cy="507.9988" fill="#ADD1B2" rx="11" ry="11" style="stroke:#181818;stroke-width:1;"/><path d="M880.0288,513.6394 Q879.4506,513.9363 878.81,514.0769 Q878.1694,514.2331 877.4663,514.2331 Q874.9663,514.2331 873.6381,512.5925 Q872.3256,510.9363 872.3256,507.8113 Q872.3256,504.6863 873.6381,503.03 Q874.9663,501.3738 877.4663,501.3738 Q878.1694,501.3738 878.81,501.53 Q879.4663,501.6863 880.0288,501.9831 L880.0288,504.7019 Q879.4038,504.1238 878.81,503.8581 Q878.2163,503.5769 877.5913,503.5769 Q876.2475,503.5769 875.56,504.655 Q874.8725,505.7175 874.8725,507.8113 Q874.8725,509.905 875.56,510.9831 Q876.2475,512.0456 877.5913,512.0456 Q878.2163,512.0456 878.81,511.78 Q879.4038,511.4988 880.0288,510.9206 L880.0288,513.6394 Z " fill="#000000"/><a href="file:////home/runner/work/BO4E-python/BO4E-python/docs/../.tox/docs/tmp/html/api/bo4e.enum.html#bo4e.enum.mengeneinheit.Mengeneinheit" target="_top" title="file:////home/runner/work/BO4E-python/BO4E-python/docs/../.tox/docs/tmp/html/api/bo4e.enum.html#bo4e.enum.mengeneinheit.Mengeneinheit" xlink:actuate="onRequest" xlink:href="file:////home/runner/work/BO4E-python/BO4E-python/docs/../.tox/docs/tmp/html/api/bo4e.enum.html#bo4e.enum.mengeneinheit.Mengeneinheit" xlink:show="new" xlink:title="file:////home/runner/work/BO4E-python/BO4E-python/docs/../.tox/docs/tmp/html/api/bo4e.enum.html#bo4e.enum.mengeneinheit.Mengeneinheit" xlink:type="simple"><text fill="#0000FF" font-family="sans-serif" font-size="14" lengthAdjust="spacing" text-decoration="underline" textLength="104.1797" x="906.6874" y="507.0251">Mengeneinheit</text></a><text fill="#000000" font-family="sans-serif" font-size="10" lengthAdjust="spacing" textLength="135.4346" x="891.06" y="519.6091">bo4e.enum.mengeneinheit</text></g><!--class Waermenutzung--><g class="entity" data-entity="Waermenutzung" data-source-line="26" data-uid="ent0012" id="entity_Waermenutzung"><rect fill="#F1F1F1" height="37.9375" rx="2.5" ry="2.5" style="stroke:#181818;stroke-width:0.5;" width="173.2402" x="859.15" y="562.03"/><ellipse cx="874.15" cy="580.9988" fill="#ADD1B2" rx="11" ry="11" style="stroke:#181818;stroke-width:1;"/><path d="M877.1188,586.6394 Q876.5406,586.9363 875.9,587.0769 Q875.2594,587.2331 874.5563,587.2331 Q872.0563,587.2331 870.7281,585.5925 Q869.4156,583.9363 869.4156,580.8113 Q869.4156,577.6863 870.7281,576.03 Q872.0563,574.3738 874.5563,574.3738 Q875.2594,574.3738 875.9,574.53 Q876.5563,574.6863 877.1188,574.9831 L877.1188,577.7019 Q876.4938,577.1238 875.9,576.8581 Q875.3063,576.5769 874.6813,576.5769 Q873.3375,576.5769 872.65,577.655 Q871.9625,578.7175 871.9625,580.8113 Q871.9625,582.905 872.65,583.9831 Q873.3375,585.0456 874.6813,585.0456 Q875.3063,585.0456 875.9,584.78 Q876.4938,584.4988 877.1188,583.9206 L877.1188,586.6394 Z " fill="#000000"/><a href="file:////home/runner/work/BO4E-python/BO4E-python/docs/../.tox/docs/tmp/html/api/bo4e.enum.html#bo4e.enum.waermenutzung.Waermenutzung" target="_top" title="file:////home/runner/work/BO4E-python/BO4E-python/docs/../.tox/docs/tmp/html/api/bo4e.enum.html#bo4e.enum.waermenutzung.Waermenutzung" xlink:actuate="onRequest" xlink:href="file:////home/runner/work/BO4E-python/BO4E-python/docs/../.tox/docs/tmp/html/api/bo4e.enum.html#bo4e.enum.waermenutzung.Waermenutzung" xlink:show="new" xlink:title="file:////home/runner/work/BO4E-python/BO4E-python/docs/../.tox/docs/tmp/html/api/bo4e.enum.html#bo4e.enum.waermenutzung.Waermenutzung" xlink:type="simple"><text fill="#0000FF" font-family="sans-serif" font-size="14" lengthAdjust="spacing" text-decoration="underline" textLength="116.2588" x="900.6407" y="580.0251">Waermenutzung</text></a><text fill="#000000" font-family="sans-serif" font-size="10" lengthAdjust="spacing" textLength="141.2402" x="888.15" y="592.6091">bo4e.enum.waermenutzung</text></g><!--class Verbrauchsart--><g class="entity" data-entity="Verbrauchsart" data-source-line="27" data-uid="ent0013" id="entity_Verbrauchsart"><rect fill="#F1F1F1" height="37.9375" rx="2.5" ry="2.5" style="stroke:#181818;stroke-width:0.5;" width="162.2197" x="864.66" y="635.03"/><ellipse cx="879.66" cy="653.9988" fill="#ADD1B2" rx="11" ry="11" style="stroke:#181818;stroke-width:1;"/><path d="M882.6288,659.6394 Q882.0506,659.9363 881.41,660.0769 Q880.7694,660.2331 880.0663,660.2331 Q877.5663,660.2331 876.2381,658.5925 Q874.9256,656.9363 874.9256,653.8113 Q874.9256,650.6863 876.2381,649.03 Q877.5663,647.3738 880.0663,647.3738 Q880.7694,647.3738 881.41,647.53 Q882.0663,647.6863 882.6288,647.9831 L882.6288,650.7019 Q882.0038,650.1238 881.41,649.8581 Q880.8163,649.5769 880.1913,649.5769 Q878.8475,649.5769 878.16,650.655 Q877.4725,651.7175 877.4725,653.8113 Q877.4725,655.905 878.16,656.9831 Q878.8475,658.0456 880.1913,658.0456 Q880.8163,658.0456 881.41,657.78 Q882.0038,657.4988 882.6288,656.9206 L882.6288,659.6394 Z " fill="#000000"/><a href="file:////home/runner/work/BO4E-python/BO4E-python/docs/../.tox/docs/tmp/html/api/bo4e.enum.html#bo4e.enum.verbrauchsart.Verbrauchsart" target="_top" title="file:////home/runner/work/BO4E-python/BO4E-python/docs/../.tox/docs/tmp/html/api/bo4e.enum.html#bo4e.enum.verbrauchsart.Verbrauchsart" xlink:actuate="onRequest" xlink:href="file:////home/runner/work/BO4E-python/BO4E-python/docs/../.tox/docs/tmp/html/api/bo4e.enum.html#bo4e.enum.verbrauchsart.Verbrauchsart" xlink:show="new" xlink:title="file:////home/runner/work/BO4E-python/BO4E-python/docs/../.tox/docs/tmp/html/api/bo4e.enum.html#bo4e.enum.verbrauchsart.Verbrauchsart" xlink:type="simple"><text fill="#0000FF" font-family="sans-serif" font-size="14" lengthAdjust="spacing" text-decoration="underline" textLength="99.7295" x="908.9051" y="653.0251">Verbrauchsart</text></a><text fill="#000000" font-family="sans-serif" font-size="10" lengthAdjust="spacing" textLength="130.2197" x="893.66" y="665.6091">bo4e.enum.verbrauchsart</text></g><!--class Energierichtung--><g class="entity" data-entity="Energierichtung" data-source-line="28" data-uid="ent0014" id="entity_Energierichtung"><rect fill="#F1F1F1" height="37.9375" rx="2.5" ry="2.5" style="stroke:#181818;stroke-width:0.5;" width="171.6094" x="859.97" y="708.03"/><ellipse cx="874.97" cy="726.9988" fill="#ADD1B2" rx="11" ry="11" style="stroke:#181818;stroke-width:1;"/><path d="M877.9388,732.6394 Q877.3606,732.9363 876.72,733.0769 Q876.0794,733.2331 875.3763,733.2331 Q872.8763,733.2331 871.5481,731.5925 Q870.2356,729.9363 870.2356,726.8113 Q870.2356,723.6863 871.5481,722.03 Q872.8763,720.3738 875.3763,720.3738 Q876.0794,720.3738 876.72,720.53 Q877.3763,720.6863 877.9388,720.9831 L877.9388,723.7019 Q877.3138,723.1238 876.72,722.8581 Q876.1263,722.5769 875.5013,722.5769 Q874.1575,722.5769 873.47,723.655 Q872.7825,724.7175 872.7825,726.8113 Q872.7825,728.905 873.47,729.9831 Q874.1575,731.0456 875.5013,731.0456 Q876.1263,731.0456 876.72,730.78 Q877.3138,730.4988 877.9388,729.9206 L877.9388,732.6394 Z " fill="#000000"/><a href="file:////home/runner/work/BO4E-python/BO4E-python/docs/../.tox/docs/tmp/html/api/bo4e.enum.html#bo4e.enum.energierichtung.Energierichtung" target="_top" title="file:////home/runner/work/BO4E-python/BO4E-python/docs/../.tox/docs/tmp/html/api/bo4e.enum.html#bo4e.enum.energierichtung.Energierichtung" xlink:actuate="onRequest" xlink:href="file:////home/runner/work/BO4E-python/BO4E-python/docs/../.tox/docs/tmp/html/api/bo4e.enum.html#bo4e.enum.energierichtung.Energierichtung" xlink:show="new" xlink:title="file:////home/runner/work/BO4E-python/BO4E-python/docs/../.tox/docs/tmp/html/api/bo4e.enum.html#bo4e.enum.energierichtung.Energierichtung" xlink:type="simple"><text fill="#0000FF" font-family="sans-serif" font-size="14" lengthAdjust="spacing" text-decoration="underline" textLength="111.8154" x="902.867" y="726.0251">Energierichtung</text></a><text fill="#000000" font-family="sans-serif" font-size="10" lengthAdjust="spacing" textLength="139.6094" x="888.97" y="738.6091">bo4e.enum.energierichtung</text></g><!--class Zaehlwerk--><g class="entity" data-entity="Zaehlwerk" data-source-line="3" data-uid="ent0002" id="entity_Zaehlwerk"><rect fill="#F1F1F1" height="225.2031" rx="2.5" ry="2.5" style="stroke:#181818;stroke-width:0.5;" width="583.5732" x="7" y="282.4"/><ellipse cx="242.7495" cy="301.3688" fill="#ADD1B2" rx="11" ry="11" style="stroke:#181818;stroke-width:1;"/><path d="M245.7183,307.0094 Q245.1401,307.3063 244.4995,307.4469 Q243.8589,307.6031 243.1558,307.6031 Q240.6558,307.6031 239.3276,305.9625 Q238.0151,304.3063 238.0151,301.1813 Q238.0151,298.0563 239.3276,296.4 Q240.6558,294.7438 243.1558,294.7438 Q243.8589,294.7438 244.4995,294.9 Q245.1558,295.0563 245.7183,295.3531 L245.7183,298.0719 Q245.0933,297.4938 244.4995,297.2281 Q243.9058,296.9469 243.2808,296.9469 Q241.937,296.9469 241.2495,298.025 Q240.562,299.0875 240.562,301.1813 Q240.562,303.275 241.2495,304.3531 Q241.937,305.4156 243.2808,305.4156 Q243.9058,305.4156 244.4995,305.15 Q245.0933,304.8688 245.7183,304.2906 L245.7183,307.0094 Z " fill="#000000"/><a href="file:////home/runner/work/BO4E-python/BO4E-python/docs/../.tox/docs/tmp/html/api/bo4e.com.html#bo4e.com.zaehlwerk.Zaehlwerk" target="_top" title="file:////home/runner/work/BO4E-python/BO4E-python/docs/../.tox/docs/tmp/html/api/bo4e.com.html#bo4e.com.zaehlwerk.Zaehlwerk" xlink:actuate="onRequest" xlink:href="file:////home/runner/work/BO4E-python/BO4E-python/docs/../.tox/docs/tmp/html/api/bo4e.com.html#bo4e.com.zaehlwerk.Zaehlwerk" xlink:show="new" xlink:title="file:////home/runner/work/BO4E-python/BO4E-python/docs/../.tox/docs/tmp/html/api/bo4e.com.html#bo4e.com.zaehlwerk.Zaehlwerk" xlink:type="simple"><text fill="#0000FF" font-family="sans-serif" font-size="14" lengthAdjust="spacing" text-decoration="underline" textLength="73.4727" x="278.3003" y="300.3951">Zaehlwerk</text></a><text fill="#000000" font-family="sans-serif" font-size="10" lengthAdjust="spacing" textLength="103.5742" x="263.2495" y="312.9791">bo4e.com.zaehlwerk</text><line style="stroke:#181818;stroke-width:0.5;" x1="8" x2="589.5732" y1="320.3375" y2="320.3375"/><text fill="#000000" font-family="sans-serif" font-size="14" lengthAdjust="spacing" textLength="571.5732" x="13" y="337.3326">_typ : Literal[&lt;ComTyp.ZAEHLWERK: 'ZAEHLWERK'&gt;] [1] = ComTyp.ZAEHLWERK</text><text fill="#000000" font-family="sans-serif" font-size="14" lengthAdjust="spacing" textLength="215.6465" x="13" y="353.6295">zaehlwerkId : str [0..1] = None</text><text fill="#000000" font-family="sans-serif" font-size="14" lengthAdjust="spacing" textLength="220.8281" x="13" y="369.9264">bezeichnung : str [0..1] = None</text><text fill="#000000" font-family="sans-serif" font-size="14" lengthAdjust="spacing" textLength="224.2666" x="13" y="386.2232">obisKennzahl : str [0..1] = None</text><text fill="#000000" font-family="sans-serif" font-size="14" lengthAdjust="spacing" textLength="267.4219" x="13" y="402.5201">wandlerfaktor : Decimal [0..1] = None</text><text fill="#000000" font-family="sans-serif" font-size="14" lengthAdjust="spacing" textLength="290.5205" x="13" y="418.817">istSchwachlastfaehig : bool [0..1] = None</text><text fill="#000000" font-family="sans-serif" font-size="14" lengthAdjust="spacing" textLength="251.8496" x="13" y="435.1139">istSteuerbefreit : bool [0..1] = None</text><text fill="#000000" font-family="sans-serif" font-size="14" lengthAdjust="spacing" textLength="244.0361" x="13" y="451.4107">vorkommastelle : int [0..1] = None</text><text fill="#000000" font-family="sans-serif" font-size="14" lengthAdjust="spacing" textLength="255.4521" x="13" y="467.7076">nachkommastelle : int [0..1] = None</text><text fill="#000000" font-family="sans-serif" font-size="14" lengthAdjust="spacing" textLength="309.7432" x="13" y="484.0045">istAbrechnungsrelevant : bool [0..1] = None</text><text fill="#000000" font-family="sans-serif" font-size="14" lengthAdjust="spacing" textLength="259.6357" x="13" y="500.3014">anzahlAblesungen : int [0..1] = None</text></g><!--link Zaehlwerk to COM--><g class="link" data-entity-1="Zaehlwerk" data-entity-2="COM" data-source-line="31" data-uid="lnk15" id="link_Zaehlwerk_COM"><path codeLine="31" d="M561.73,281.92 C627.41,256.56 698.34,231.67 765.57,213 C807.81,201.27 838.8826,194.6625 874.8726,188.0925" fill="none" id="Zaehlwerk-to-COM" style="stroke:#181818;stroke-width:1;"/><polygon fill="none" points="892.58,184.86,873.7951,182.19,875.9501,193.995,892.58,184.86" style="stroke:#181818;stroke-width:1;"/></g><!--link Zaehlwerk to Energierichtung--><g class="link" data-entity-1="Zaehlwerk" data-entity-2="Energierichtung" data-source-line="32" data-uid="lnk16" id="link_Zaehlwerk_Energierichtung"><path codeLine="32" d="M428.83,507.87 C485,552.99 553.28,602.74 620.57,639 C680.71,671.41 699.75,671.72 765.57,690 C796.03,698.46 818.1114,703.5849 848.1214,709.5649" fill="none" id="Zaehlwerk-to-Energierichtung" style="stroke:#181818;stroke-width:1;"/><polygon fill="#181818" points="859.89,711.91,854.7874,706.8146,848.1214,709.5649,853.224,714.6603,859.89,711.91" style="stroke:#181818;stroke-width:1;"/><text fill="#000000" font-family="sans-serif" font-size="13" lengthAdjust="spacing" textLength="54.1709" x="662.07" y="635.0669">richtung</text><text fill="#000000" font-family="sans-serif" font-size="13" lengthAdjust="spacing" textLength="24.8066" x="827.2081" y="723.3069">0..1</text></g><!--link Zaehlwerk to Mengeneinheit--><g class="link" data-entity-1="Zaehlwerk" data-entity-2="Mengeneinheit" data-source-line="33" data-uid="lnk17" id="link_Zaehlwerk_Mengeneinheit"><path codeLine="33" d="M590.67,445.96 C689.57,463.29 780.6498,479.2504 849.8698,491.3704" fill="none" id="Zaehlwerk-to-Mengeneinheit" style="stroke:#181818;stroke-width:1;"/><polygon fill="#181818" points="861.69,493.44,856.4698,488.4651,849.8698,491.3704,855.09,496.3452,861.69,493.44" style="stroke:#181818;stroke-width:1;"/><text fill="#000000" font-family="sans-serif" font-size="13" lengthAdjust="spacing" textLength="44.7954" x="667.07" y="448.0669">einheit</text><text fill="#000000" font-family="sans-serif" font-size="13" lengthAdjust="spacing" textLength="24.8066" x="829.1681" y="504.8841">0..1</text></g><!--link Zaehlwerk to VerwendungszweckProMarktrolle--><g class="link" data-entity-1="Zaehlwerk" data-entity-2="VerwendungszweckProMarktrolle" data-source-line="34" data-uid="lnk18" id="link_Zaehlwerk_VerwendungszweckProMarktrolle"><path codeLine="34" d="M473.35,281.98 C558.34,231.41 664.03,175.35 765.57,140 C785.52,133.05 795.5009,129.8904 816.6609,125.0604" fill="none" id="Zaehlwerk-to-VerwendungszweckProMarktrolle" style="stroke:#181818;stroke-width:1;"/><polygon fill="#181818" points="828.36,122.39,821.6203,119.8255,816.6609,125.0604,823.4006,127.6249,828.36,122.39" style="stroke:#181818;stroke-width:1;"/><text fill="#000000" font-family="sans-serif" font-size="13" lengthAdjust="spacing" textLength="135.7891" x="621.57" y="141.0669">verwendungszwecke</text><text fill="#000000" font-family="sans-serif" font-size="13" lengthAdjust="spacing" textLength="23.0356" x="782.401" y="139.2587">0..*</text></g><!--link Zaehlwerk to Verbrauchsart--><g class="link" data-entity-1="Zaehlwerk" data-entity-2="Verbrauchsart" data-source-line="35" data-uid="lnk19" id="link_Zaehlwerk_Verbrauchsart"><path codeLine="35" d="M500.7,508.06 C539.93,528.43 581.14,548.67 620.57,566 C683.12,593.48 699.75,598.72 765.57,617 C797.56,625.88 821.5159,631.3623 852.6059,637.4823" fill="none" id="Zaehlwerk-to-Verbrauchsart" style="stroke:#181818;stroke-width:1;"/><polygon fill="#181818" points="864.38,639.8,859.2655,634.7165,852.6059,637.4823,857.7204,642.5658,864.38,639.8" style="stroke:#181818;stroke-width:1;"/><text fill="#000000" font-family="sans-serif" font-size="13" lengthAdjust="spacing" textLength="91.4063" x="643.57" y="562.0669">verbrauchsart</text><text fill="#000000" font-family="sans-serif" font-size="13" lengthAdjust="spacing" textLength="24.8066" x="831.8078" y="651.2555">0..1</text></g><!--link Zaehlwerk to Waermenutzung--><g class="link" data-entity-1="Zaehlwerk" data-entity-2="Waermenutzung" data-source-line="36" data-uid="lnk20" id="link_Zaehlwerk_Waermenutzung"><path codeLine="36" d="M590.79,494.05 C648.36,511.95 708.59,529.5 765.57,544 C795.74,551.68 817.3176,556.5237 846.9676,562.5137" fill="none" id="Zaehlwerk-to-Waermenutzung" style="stroke:#181818;stroke-width:1;"/><polygon fill="#181818" points="858.73,564.89,853.6409,559.7811,846.9676,562.5137,852.0567,567.6227,858.73,564.89" style="stroke:#181818;stroke-width:1;"/><text fill="#000000" font-family="sans-serif" font-size="13" lengthAdjust="spacing" textLength="105.7329" x="636.57" y="501.0669">waermenutzung</text><text fill="#000000" font-family="sans-serif" font-size="13" lengthAdjust="spacing" textLength="24.8066" x="826.2534" y="576.2228">0..1</text></g><!--link Zaehlwerk to Konzessionsabgabe--><g class="link" data-entity-1="Zaehlwerk" data-entity-2="Konzessionsabgabe" data-source-line="37" data-uid="lnk21" id="link_Zaehlwerk_Konzessionsabgabe"><path codeLine="37" d="M590.67,395 C686.06,395 773.17,395 842.19,395" fill="none" id="Zaehlwerk-to-Konzessionsabgabe" style="stroke:#181818;stroke-width:1;"/><polygon fill="#181818" points="854.19,395,848.19,391,842.19,395,848.19,399,854.19,395" style="stroke:#181818;stroke-width:1;"/><text fill="#000000" font-family="sans-serif" font-size="13" lengthAdjust="spacing" textLength="127.353" x="625.57" y="391.0669">konzessionsabgabe</text><text fill="#000000" font-family="sans-serif" font-size="13" lengthAdjust="spacing" textLength="24.8066" x="821.6457" y="407.6936">0..1</text></g><!--link Zaehlwerk to Zaehlzeitregister--><g class="link" data-entity-1="Zaehlwerk" data-entity-2="Zaehlzeitregister" data-source-line="38" data-uid="lnk22" id="link_Zaehlwerk_Zaehlzeitregister"><path codeLine="38" d="M590.67,362.08 C689.4,350.9 780.1962,340.6305 849.4162,332.7905" fill="none" id="Zaehlwerk-to-Zaehlzeitregister" style="stroke:#181818;stroke-width:1;"/><polygon fill="#181818" points="861.34,331.44,854.9279,328.1407,849.4162,332.7905,855.8283,336.0898,861.34,331.44" style="stroke:#181818;stroke-width:1;"/><text fill="#000000" font-family="sans-serif" font-size="13" lengthAdjust="spacing" textLength="108.5894" x="635.07" y="340.0669">zaehlzeitregister</text><text fill="#000000" font-family="sans-serif" font-size="13" lengthAdjust="spacing" textLength="24.8066" x="828.7874" y="345.0216">0..1</text></g><!--link Zaehlwerk to Messwert--><g class="link" data-entity-1="Zaehlwerk" data-entity-2="Messwert" data-source-line="39" data-uid="lnk23" id="link_Zaehlwerk_Messwert"><path codeLine="39" d="M590.79,325.37 C648.62,311.97 708.96,298.28 765.57,286 C802.98,277.88 833.1222,271.6088 866.9922,264.6988" fill="none" id="Zaehlwerk-to-Messwert" style="stroke:#181818;stroke-width:1;"/><polygon fill="#181818" points="878.75,262.3,872.0715,259.5801,866.9922,264.6988,873.6707,267.4187,878.75,262.3" style="stroke:#181818;stroke-width:1;"/><text fill="#000000" font-family="sans-serif" font-size="13" lengthAdjust="spacing" textLength="71.2778" x="653.57" y="285.0669">messwerte</text><text fill="#000000" font-family="sans-serif" font-size="13" lengthAdjust="spacing" textLength="23.0356" x="848.0218" y="276.4211">0..*</text></g><!--SRC=[nLPjQzj03FvS_mgHV2WKQhUi6yLqXQmBRFHjRAE5Pc6SRIK-Oj-5kqkzUjj_d-pMZj-IV5fjC9nqZtIIJj8fmfa18q7nUMWWu0fzmwMmB3zYMiDWCfdn25s7lb36wAYL4AYSHAg5y-7sP7ouV3AX5BLr87tjsBPZ6_dhcJ3nqWbD73bioHrFdg3jozZEECEIIXc6KO9gOJyKAoXNq-aFSQPvYkxnqNbRP01Chy7mszhxQPwMuC8LDwXOD3cxaF7tfwNzC1f_kheVVxrqORzSxvzFON8yXVVGH5bxvH6V0rAdZOB9aMtdu1ifqDhpC4NkXs8bvjq0wN5zYKAaB8ow4GaJGOHgnXP6Ae9yH9_7B6h2k3RV_31XVaXNOsPa6C-EzAJiX1fSeV9mff2R3R17kaKPnwGDemW9n8LfOWITjnD4vuqyIfqy35fXX8zCR3gLvQ4OUH5gGgFeLFdNiWIBKI-PZ_y_2w6WfjCybGeIXkEZqUcxYooZNhqW7b4bA88iecc2_cAfPCpKmYX9zs3VDNQ_A7bTxiBMtUvYsdfS7fMjIdi8KFPVt5u3_TqkqPyRJe0UpAFirTGvZ7tzie1YqMrjWSzDBg0zs9stF6fgHk6S2XlLSqEkSg35sTAWgx1rewvoUt1o8KLA8QQdJZDlpZoqBviSQ76wdMofofri2LDBUuMEXc9LRMaPMUrf6Gt3uDX_y_Rq5PfQQSrmJSQODNta8gGCeDgeK52Zsj5kox_KIeNJYqy9GqLshKnApT6-hr9GepRuL9FFVQf9zU8JlGUUOYi_r8nws5sLWXgrmQUQVF5-h3cz-4HPekOS5Gri9hkfSPs61ht1iuQMtBU6P3Q_LEROmyC_v-LGaRrPrKtQFO11DlqCraNQCis5KlTEsNfHkL2KHfVWmM1jsFQPmeNcY82xJQddJQwYaWCxnUkbv4AjKBQAP_wqMxeBhMwzKqlxzNEXzR3jZ6qv1BXGFFHeMI4FaEZOGwKj7Se4Adfc7AD0_mC0]--></g></svg>