<svg xmlns="http://www.w3.org/2000/svg" xmlns:xlink="http://www.w3.org/1999/xlink" contentStyleType="text/css" data-diagram-type="CLASS" height="163px" preserveAspectRatio="none" style="width:332px;height:163px;background:#FFFFFF;" version="1.1" viewBox="0 0 332 163" width="332px" zoomAndPan="magnify"><?plantuml 1.2026.6?><defs/><g><!--class Zaehlzeitregister--><g class="entity" data-qualified-name="Zaehlzeitregister" data-source-line="3" id="ent0001"><rect fill="#F1F1F1" height="143.7188" rx="2.5" ry="2.5" style="stroke:#181818;stroke-width:0.5;" width="312.207" x="7" y="7"/><ellipse cx="99.2612" cy="25.9688" fill="#ADD1B2" rx="11" ry="11" style="stroke:#181818;stroke-width:1;"/><path d="M102.23,31.6094 Q101.6519,31.9063 101.0112,32.0469 Q100.3706,32.2031 99.6675,32.2031 Q97.1675,32.2031 95.8394,30.5625 Q94.5269,28.9063 94.5269,25.7813 Q94.5269,22.6563 95.8394,21 Q97.1675,19.3438 99.6675,19.3438 Q100.3706,19.3438 101.0112,19.5 Q101.6675,19.6563 102.23,19.9531 L102.23,22.6719 Q101.605,22.0938 101.0112,21.8281 Q100.4175,21.5469 99.7925,21.5469 Q98.4487,21.5469 97.7612,22.625 Q97.0737,23.6875 97.0737,25.7813 Q97.0737,27.875 97.7612,28.9531 Q98.4487,30.0156 99.7925,30.0156 Q100.4175,30.0156 101.0112,29.75 Q101.605,29.4688 102.23,28.8906 L102.23,31.6094 Z " fill="#000000"/><a href="https://bo4e.github.io/BO4E-python/latest/api/com.Zaehlzeitregister.html" target="_top" title="https://bo4e.github.io/BO4E-python/latest/api/com.Zaehlzeitregister.html" xlink:actuate="onRequest" xlink:href="https://bo4e.github.io/BO4E-python/latest/api/com.Zaehlzeitregister.html" xlink:show="new" xlink:title="https://bo4e.github.io/BO4E-python/latest/api/com.Zaehlzeitregister.html" xlink:type="simple"><text fill="#0000FF" font-family="sans-serif" font-size="14" lengthAdjust="spacing" text-decoration="underline" textLength="119.1846" x="119.7612" y="24.9951">Zaehlzeitregister</text></a><text fill="#000000" font-family="sans-serif" font-size="10" lengthAdjust="spacing" textLength="109.668" x="124.5195" y="37.5791">com.Zaehlzeitregister</text><line style="stroke:#181818;stroke-width:0.5;" x1="8" x2="318.207" y1="44.9375" y2="44.9375"/><text fill="#000000" font-family="sans-serif" font-size="14" lengthAdjust="spacing" textLength="94.0215" x="13" y="61.9326">_id : str [0..1]</text><text fill="#000000" font-family="sans-serif" font-size="14" lengthAdjust="spacing" textLength="300.207" x="13" y="78.2295">_typ : Literal["ZAEHLZEITREGISTER"] [0..1]</text><text fill="#000000" font-family="sans-serif" font-size="14" lengthAdjust="spacing" textLength="132.5215" x="13" y="94.5264">_version : str [0..1]</text><text fill="#000000" font-family="sans-serif" font-size="14" lengthAdjust="spacing" textLength="233.3652" x="13" y="110.8232">istSchwachlastfaehig : bool [0..1]</text><text fill="#000000" font-family="sans-serif" font-size="14" lengthAdjust="spacing" textLength="204.6816" x="13" y="127.1201">zaehlzeitDefinition : str [0..1]</text><text fill="#000000" font-family="sans-serif" font-size="14" lengthAdjust="spacing" textLength="195.1592" x="13" y="143.417">zaehlzeitRegister : str [0..1]</text></g><?plantuml-src RP11QyCm38Nl-HKYzzajz1J6O6EXAnG6QK_9md0S9HOuSR2rbMRilyymEbRITtnyajwJnOw17NZg3KDB7ZMJ6vD4MnK2f5LbcAUGITcu3OgUs7mqWfnyUjtaTzEPZHkbLOo1fPf8QZU8Kg6nCn9xx2amUc5uiB2mw_fjl0yqOxPUFTmSJ465vHny9H3rJYra4DX3jH9YNV-QV9wYkwV8ALkbvMF-iY_ptR78jxl3CI_I-Wh_H1zYt-MYUEcWpKbf4n_1NSn0VQGQv-n_RBw4UyQEHkARk_wWujBW2lbEeWor20CEJGoK1EDEi7m7T8Is3Jy0?></g></svg>