<svg xmlns="http://www.w3.org/2000/svg" xmlns:xlink="http://www.w3.org/1999/xlink" contentStyleType="text/css" data-diagram-type="CLASS" height="169px" preserveAspectRatio="none" style="width:980px;height:169px;background:#FFFFFF;" version="1.1" viewBox="0 0 980 169" width="980px" zoomAndPan="magnify"><defs/><g><!--cluster bo4e--><g class="cluster" data-entity="bo4e" data-source-line="11" data-uid="ent0005" id="cluster_bo4e"><path d="M790.32,6 L830.196,6 A3.75,3.75 0 0 1 832.696,8.5 L839.696,28.2969 L971.38,28.2969 A2.5,2.5 0 0 1 973.88,30.7969 L973.88,159.5 A2.5,2.5 0 0 1 971.38,162 L790.32,162 A2.5,2.5 0 0 1 787.82,159.5 L787.82,8.5 A2.5,2.5 0 0 1 790.32,6" fill="none" style="stroke:#000000;stroke-width:1.5;"/><line style="stroke:#000000;stroke-width:1.5;" x1="787.82" x2="839.696" y1="28.2969" y2="28.2969"/><text fill="#000000" font-family="sans-serif" font-size="14" font-weight="bold" lengthAdjust="spacing" textLength="38.876" x="791.82" y="20.9951">bo4e</text></g><!--cluster com--><g class="cluster" data-entity="com" data-source-line="10" data-uid="ent0003" id="cluster_com"><path d="M814.32,49 L892.0192,49 A3.75,3.75 0 0 1 894.5192,51.5 L901.5192,71.2969 L947.38,71.2969 A2.5,2.5 0 0 1 949.88,73.7969 L949.88,135.5 A2.5,2.5 0 0 1 947.38,138 L814.32,138 A2.5,2.5 0 0 1 811.82,135.5 L811.82,51.5 A2.5,2.5 0 0 1 814.32,49" fill="#E0A86C" style="stroke:#000000;stroke-width:1.5;"/><line style="stroke:#000000;stroke-width:1.5;" x1="811.82" x2="901.5192" y1="71.2969" y2="71.2969"/><a href="file:////home/runner/work/BO4E-python/BO4E-python/docs/../.tox/docs/tmp/html/api/bo4e.com.html" target="_top" title="file:////home/runner/work/BO4E-python/BO4E-python/docs/../.tox/docs/tmp/html/api/bo4e.com.html" xlink:actuate="onRequest" xlink:href="file:////home/runner/work/BO4E-python/BO4E-python/docs/../.tox/docs/tmp/html/api/bo4e.com.html" xlink:show="new" xlink:title="file:////home/runner/work/BO4E-python/BO4E-python/docs/../.tox/docs/tmp/html/api/bo4e.com.html" xlink:type="simple"><text fill="#0000FF" font-family="sans-serif" font-size="14" font-weight="bold" lengthAdjust="spacing" text-decoration="underline" textLength="76.6992" x="815.82" y="63.9951">bo4e.com</text></a></g><!--class COM--><g class="entity" data-entity="COM" data-source-line="11" data-uid="ent0004" id="entity_COM"><rect fill="#F1F1F1" height="37.9375" rx="2.5" ry="2.5" style="stroke:#181818;stroke-width:0.5;" width="106.0527" x="827.82" y="84.03"/><ellipse cx="842.82" cy="102.9988" fill="#ADD1B2" rx="11" ry="11" style="stroke:#181818;stroke-width:1;"/><path d="M845.7888,108.6394 Q845.2106,108.9363 844.57,109.0769 Q843.9294,109.2331 843.2263,109.2331 Q840.7263,109.2331 839.3981,107.5925 Q838.0856,105.9363 838.0856,102.8113 Q838.0856,99.6863 839.3981,98.03 Q840.7263,96.3738 843.2263,96.3738 Q843.9294,96.3738 844.57,96.53 Q845.2263,96.6863 845.7888,96.9831 L845.7888,99.7019 Q845.1638,99.1238 844.57,98.8581 Q843.9763,98.5769 843.3513,98.5769 Q842.0075,98.5769 841.32,99.655 Q840.6325,100.7175 840.6325,102.8113 Q840.6325,104.905 841.32,105.9831 Q842.0075,107.0456 843.3513,107.0456 Q843.9763,107.0456 844.57,106.78 Q845.1638,106.4988 845.7888,105.9206 L845.7888,108.6394 Z " fill="#000000"/><a href="file:////home/runner/work/BO4E-python/BO4E-python/docs/../.tox/docs/tmp/html/api/bo4e.com.html#bo4e.com.com.COM" target="_top" title="file:////home/runner/work/BO4E-python/BO4E-python/docs/../.tox/docs/tmp/html/api/bo4e.com.html#bo4e.com.com.COM" xlink:actuate="onRequest" xlink:href="file:////home/runner/work/BO4E-python/BO4E-python/docs/../.tox/docs/tmp/html/api/bo4e.com.html#bo4e.com.com.COM" xlink:show="new" xlink:title="file:////home/runner/work/BO4E-python/BO4E-python/docs/../.tox/docs/tmp/html/api/bo4e.com.html#bo4e.com.com.COM" xlink:type="simple"><text fill="#0000FF" font-family="sans-serif" font-size="14" lengthAdjust="spacing" text-decoration="underline" textLength="32.874" x="877.4094" y="102.0251">COM</text></a><text fill="#000000" font-family="sans-serif" font-size="10" lengthAdjust="spacing" textLength="74.0527" x="856.82" y="114.6091">bo4e.com.com</text></g><!--class Zaehlzeitregister--><g class="entity" data-entity="Zaehlzeitregister" data-source-line="3" data-uid="ent0002" id="entity_Zaehlzeitregister"><rect fill="#F1F1F1" height="111.125" rx="2.5" ry="2.5" style="stroke:#181818;stroke-width:0.5;" width="760.8223" x="7" y="47.44"/><ellipse cx="315.0483" cy="66.4088" fill="#ADD1B2" rx="11" ry="11" style="stroke:#181818;stroke-width:1;"/><path d="M318.0171,72.0494 Q317.439,72.3463 316.7983,72.4869 Q316.1577,72.6431 315.4546,72.6431 Q312.9546,72.6431 311.6265,71.0025 Q310.314,69.3463 310.314,66.2213 Q310.314,63.0963 311.6265,61.44 Q312.9546,59.7838 315.4546,59.7838 Q316.1577,59.7838 316.7983,59.94 Q317.4546,60.0963 318.0171,60.3931 L318.0171,63.1119 Q317.3921,62.5338 316.7983,62.2681 Q316.2046,61.9869 315.5796,61.9869 Q314.2358,61.9869 313.5483,63.065 Q312.8608,64.1275 312.8608,66.2213 Q312.8608,68.315 313.5483,69.3931 Q314.2358,70.4556 315.5796,70.4556 Q316.2046,70.4556 316.7983,70.19 Q317.3921,69.9088 318.0171,69.3306 L318.0171,72.0494 Z " fill="#000000"/><a href="file:////home/runner/work/BO4E-python/BO4E-python/docs/../.tox/docs/tmp/html/api/bo4e.com.html#bo4e.com.zaehlzeitregister.Zaehlzeitregister" target="_top" title="file:////home/runner/work/BO4E-python/BO4E-python/docs/../.tox/docs/tmp/html/api/bo4e.com.html#bo4e.com.zaehlzeitregister.Zaehlzeitregister" xlink:actuate="onRequest" xlink:href="file:////home/runner/work/BO4E-python/BO4E-python/docs/../.tox/docs/tmp/html/api/bo4e.com.html#bo4e.com.zaehlzeitregister.Zaehlzeitregister" xlink:show="new" xlink:title="file:////home/runner/work/BO4E-python/BO4E-python/docs/../.tox/docs/tmp/html/api/bo4e.com.html#bo4e.com.zaehlzeitregister.Zaehlzeitregister" xlink:type="simple"><text fill="#0000FF" font-family="sans-serif" font-size="14" lengthAdjust="spacing" text-decoration="underline" textLength="119.1846" x="344.0688" y="65.4351">Zaehlzeitregister</text></a><text fill="#000000" font-family="sans-serif" font-size="10" lengthAdjust="spacing" textLength="136.2256" x="335.5483" y="78.0191">bo4e.com.zaehlzeitregister</text><line style="stroke:#181818;stroke-width:0.5;" x1="8" x2="766.8223" y1="85.3775" y2="85.3775"/><text fill="#000000" font-family="sans-serif" font-size="14" lengthAdjust="spacing" textLength="748.8223" x="13" y="102.3726">_typ : Literal[&lt;ComTyp.ZAEHLZEITREGISTER: 'ZAEHLZEITREGISTER'&gt;] [1] = ComTyp.ZAEHLZEITREGISTER</text><text fill="#000000" font-family="sans-serif" font-size="14" lengthAdjust="spacing" textLength="261.8369" x="13" y="118.6695">zaehlzeitDefinition : str [0..1] = None</text><text fill="#000000" font-family="sans-serif" font-size="14" lengthAdjust="spacing" textLength="252.3145" x="13" y="134.9664">zaehlzeitRegister : str [0..1] = None</text><text fill="#000000" font-family="sans-serif" font-size="14" lengthAdjust="spacing" textLength="290.5205" x="13" y="151.2632">istSchwachlastfaehig : bool [0..1] = None</text></g><!--link Zaehlzeitregister to COM--><g class="link" data-entity-1="Zaehlzeitregister" data-entity-2="COM" data-source-line="14" data-uid="lnk6" id="link_Zaehlzeitregister_COM"><path codeLine="14" d="M768.03,103 C790.33,103 792.51,103 809.39,103" fill="none" id="Zaehlzeitregister-to-COM" style="stroke:#181818;stroke-width:1;"/><polygon fill="none" points="827.39,103,809.39,97,809.39,109,827.39,103" style="stroke:#181818;stroke-width:1;"/></g><!--SRC=[lLB1QW8n43sRhnZquCb4GKfPh63jqWgsWdfokvIuEsj2TvCbIR7Qzj-RjIYjscCR6CXxUMyocKoEcGEdmSYLS91AWucJMX6IvDnQg4TH9dCCc5z25yZCYr9es5gRPtOzwOQjSkE4LZ_sgKuievHHfr-_W2jA9boHCrvAjjHTf8akQCKq3cZBKUHRbCxWIbg7XYwE6JXXulXHzQpSOj1fztzFLGTkJytmHcfFRbD206FfCS-Ztb0Nyqr95uFmRhm8H_DfU3kQpSDf0CqJhjcF8Uh4S0M_kKZjKCeDPbB9ghV-EkiCH6rAT-O7hV2RSBglxgpC7yqIiUQ9yF_ZCc-IAwzSQfqVIJy8KRn0M_84__uVOO_YUDViFOH6s1vSNWohNl_xI5KndDo3Z_E3ucDNhHTK_JepSQtMU__mc2eP8KAc20KMIpIMMA7NSCQNISnJ-ma0]--></g></svg>