<?plantuml 1.2026.1?><svg xmlns="http://www.w3.org/2000/svg" xmlns:xlink="http://www.w3.org/1999/xlink" contentStyleType="text/css" data-diagram-type="CLASS" height="355px" preserveAspectRatio="none" style="width:699px;height:355px;background:#FFFFFF;" version="1.1" viewBox="0 0 699 355" width="699px" zoomAndPan="magnify"><defs/><g><!--cluster bo4e--><g class="cluster" data-qualified-name="bo4e" data-source-line="11" id="ent0005"><path d="M428.32,6 L468.196,6 A3.75,3.75 0 0 1 470.696,8.5 L477.696,28.2969 L689.86,28.2969 A2.5,2.5 0 0 1 692.36,30.7969 L692.36,345.5 A2.5,2.5 0 0 1 689.86,348 L428.32,348 A2.5,2.5 0 0 1 425.82,345.5 L425.82,8.5 A2.5,2.5 0 0 1 428.32,6" fill="none" style="stroke:#000000;stroke-width:1.5;"/><line style="stroke:#000000;stroke-width:1.5;" x1="425.82" x2="477.696" y1="28.2969" y2="28.2969"/><text fill="#000000" font-family="sans-serif" font-size="14" font-weight="bold" lengthAdjust="spacing" textLength="38.876" x="429.82" y="20.9951">bo4e</text></g><!--cluster com--><g class="cluster" data-qualified-name="bo4e.com" data-source-line="10" id="ent0003"><path d="M494.31,49 L572.0092,49 A3.75,3.75 0 0 1 574.5092,51.5 L581.5092,71.2969 L623.87,71.2969 A2.5,2.5 0 0 1 626.37,73.7969 L626.37,135.5 A2.5,2.5 0 0 1 623.87,138 L494.31,138 A2.5,2.5 0 0 1 491.81,135.5 L491.81,51.5 A2.5,2.5 0 0 1 494.31,49" fill="#E0A86C" style="stroke:#000000;stroke-width:1.5;"/><line style="stroke:#000000;stroke-width:1.5;" x1="491.81" x2="581.5092" y1="71.2969" y2="71.2969"/><text fill="#000000" font-family="sans-serif" font-size="14" font-weight="bold" lengthAdjust="spacing" textLength="76.6992" x="495.81" y="63.9951">bo4e.com</text></g><!--cluster enum--><g class="cluster" data-qualified-name="bo4e.enum" data-source-line="22" id="ent0006"><path d="M452.32,162 L541.5309,162 A3.75,3.75 0 0 1 544.0309,164.5 L551.0309,184.2969 L665.86,184.2969 A2.5,2.5 0 0 1 668.36,186.7969 L668.36,321.5 A2.5,2.5 0 0 1 665.86,324 L452.32,324 A2.5,2.5 0 0 1 449.82,321.5 L449.82,164.5 A2.5,2.5 0 0 1 452.32,162" fill="#D1C358" style="stroke:#000000;stroke-width:1.5;"/><line style="stroke:#000000;stroke-width:1.5;" x1="449.82" x2="551.0309" y1="184.2969" y2="184.2969"/><text fill="#000000" font-family="sans-serif" font-size="14" font-weight="bold" lengthAdjust="spacing" textLength="88.2109" x="453.82" y="176.9951">bo4e.enum</text></g><!--class Zeitraum--><g class="entity" data-qualified-name="bo4e.com.Zeitraum" data-source-line="11" id="ent0004"><rect fill="#F1F1F1" height="37.9375" rx="2.5" ry="2.5" style="stroke:#181818;stroke-width:0.5;" width="102.5566" x="507.81" y="84.03"/><ellipse cx="522.81" cy="102.9987" fill="#ADD1B2" rx="11" ry="11" style="stroke:#181818;stroke-width:1;"/><path d="M525.7788,108.6394 Q525.2006,108.9362 524.56,109.0769 Q523.9194,109.2331 523.2163,109.2331 Q520.7163,109.2331 519.3881,107.5925 Q518.0756,105.9362 518.0756,102.8112 Q518.0756,99.6862 519.3881,98.03 Q520.7163,96.3737 523.2163,96.3737 Q523.9194,96.3737 524.56,96.53 Q525.2163,96.6862 525.7788,96.9831 L525.7788,99.7019 Q525.1538,99.1237 524.56,98.8581 Q523.9663,98.5769 523.3413,98.5769 Q521.9975,98.5769 521.31,99.655 Q520.6225,100.7175 520.6225,102.8112 Q520.6225,104.905 521.31,105.9831 Q521.9975,107.0456 523.3413,107.0456 Q523.9663,107.0456 524.56,106.78 Q525.1538,106.4987 525.7788,105.9206 L525.7788,108.6394 Z " fill="#000000"/><a href="https://bo4e.github.io/BO4E-python/latest/api/com.Zeitraum.html" target="_top" title="https://bo4e.github.io/BO4E-python/latest/api/com.Zeitraum.html" xlink:actuate="onRequest" xlink:href="https://bo4e.github.io/BO4E-python/latest/api/com.Zeitraum.html" xlink:show="new" xlink:title="https://bo4e.github.io/BO4E-python/latest/api/com.Zeitraum.html" xlink:type="simple"><text fill="#0000FF" font-family="sans-serif" font-size="14" lengthAdjust="spacing" text-decoration="underline" textLength="64.4287" x="539.874" y="102.0251">Zeitraum</text></a><text fill="#000000" font-family="sans-serif" font-size="10" lengthAdjust="spacing" textLength="70.5566" x="536.81" y="114.6091">com.Zeitraum</text></g><!--class Messwertstatus--><g class="entity" data-qualified-name="bo4e.enum.Messwertstatus" data-source-line="23" id="ent0007"><rect fill="#F1F1F1" height="37.9375" rx="2.5" ry="2.5" style="stroke:#181818;stroke-width:0.5;" width="142.0391" x="488.07" y="197.03"/><ellipse cx="503.07" cy="215.9988" fill="#ADD1B2" rx="11" ry="11" style="stroke:#181818;stroke-width:1;"/><path d="M506.0388,221.6394 Q505.4606,221.9363 504.82,222.0769 Q504.1794,222.2331 503.4763,222.2331 Q500.9763,222.2331 499.6481,220.5925 Q498.3356,218.9363 498.3356,215.8113 Q498.3356,212.6863 499.6481,211.03 Q500.9763,209.3738 503.4763,209.3738 Q504.1794,209.3738 504.82,209.53 Q505.4763,209.6863 506.0388,209.9831 L506.0388,212.7019 Q505.4138,212.1238 504.82,211.8581 Q504.2263,211.5769 503.6013,211.5769 Q502.2575,211.5769 501.57,212.655 Q500.8825,213.7175 500.8825,215.8113 Q500.8825,217.905 501.57,218.9831 Q502.2575,220.0456 503.6013,220.0456 Q504.2263,220.0456 504.82,219.78 Q505.4138,219.4988 506.0388,218.9206 L506.0388,221.6394 Z " fill="#000000"/><a href="https://bo4e.github.io/BO4E-python/latest/api/enum.Messwertstatus.html" target="_top" title="https://bo4e.github.io/BO4E-python/latest/api/enum.Messwertstatus.html" xlink:actuate="onRequest" xlink:href="https://bo4e.github.io/BO4E-python/latest/api/enum.Messwertstatus.html" xlink:show="new" xlink:title="https://bo4e.github.io/BO4E-python/latest/api/enum.Messwertstatus.html" xlink:type="simple"><text fill="#0000FF" font-family="sans-serif" font-size="14" lengthAdjust="spacing" text-decoration="underline" textLength="109.6074" x="517.2858" y="215.0251">Messwertstatus</text></a><text fill="#000000" font-family="sans-serif" font-size="10" lengthAdjust="spacing" textLength="110.0391" x="517.07" y="227.6091">enum.Messwertstatus</text></g><!--class Messwertstatuszusatz--><g class="entity" data-qualified-name="bo4e.enum.Messwertstatuszusatz" data-source-line="25" id="ent0008"><rect fill="#F1F1F1" height="37.9375" rx="2.5" ry="2.5" style="stroke:#181818;stroke-width:0.5;" width="186.54" x="465.82" y="270.03"/><ellipse cx="480.82" cy="288.9988" fill="#ADD1B2" rx="11" ry="11" style="stroke:#181818;stroke-width:1;"/><path d="M483.7888,294.6394 Q483.2106,294.9363 482.57,295.0769 Q481.9294,295.2331 481.2263,295.2331 Q478.7263,295.2331 477.3981,293.5925 Q476.0856,291.9363 476.0856,288.8113 Q476.0856,285.6863 477.3981,284.03 Q478.7263,282.3738 481.2263,282.3738 Q481.9294,282.3738 482.57,282.53 Q483.2263,282.6863 483.7888,282.9831 L483.7888,285.7019 Q483.1638,285.1238 482.57,284.8581 Q481.9763,284.5769 481.3513,284.5769 Q480.0075,284.5769 479.32,285.655 Q478.6325,286.7175 478.6325,288.8113 Q478.6325,290.905 479.32,291.9831 Q480.0075,293.0456 481.3513,293.0456 Q481.9763,293.0456 482.57,292.78 Q483.1638,292.4988 483.7888,291.9206 L483.7888,294.6394 Z " fill="#000000"/><a href="https://bo4e.github.io/BO4E-python/latest/api/enum.Messwertstatuszusatz.html" target="_top" title="https://bo4e.github.io/BO4E-python/latest/api/enum.Messwertstatuszusatz.html" xlink:actuate="onRequest" xlink:href="https://bo4e.github.io/BO4E-python/latest/api/enum.Messwertstatuszusatz.html" xlink:show="new" xlink:title="https://bo4e.github.io/BO4E-python/latest/api/enum.Messwertstatuszusatz.html" xlink:type="simple"><text fill="#0000FF" font-family="sans-serif" font-size="14" lengthAdjust="spacing" text-decoration="underline" textLength="154.54" x="494.82" y="288.0251">Messwertstatuszusatz</text></a><text fill="#000000" font-family="sans-serif" font-size="10" lengthAdjust="spacing" textLength="142.1338" x="501.0231" y="300.6091">enum.Messwertstatuszusatz</text></g><!--class Zeitreihenwert--><g class="entity" data-qualified-name="Zeitreihenwert" data-source-line="3" id="ent0002"><rect fill="#F1F1F1" height="111.125" rx="2.5" ry="2.5" style="stroke:#181818;stroke-width:0.5;" width="289.8193" x="7" y="160.44"/><ellipse cx="95.9048" cy="179.4088" fill="#ADD1B2" rx="11" ry="11" style="stroke:#181818;stroke-width:1;"/><path d="M98.8735,185.0494 Q98.2954,185.3463 97.6548,185.4869 Q97.0142,185.6431 96.311,185.6431 Q93.811,185.6431 92.4829,184.0025 Q91.1704,182.3463 91.1704,179.2213 Q91.1704,176.0963 92.4829,174.44 Q93.811,172.7838 96.311,172.7838 Q97.0142,172.7838 97.6548,172.94 Q98.311,173.0963 98.8735,173.3931 L98.8735,176.1119 Q98.2485,175.5338 97.6548,175.2681 Q97.061,174.9869 96.436,174.9869 Q95.0923,174.9869 94.4048,176.065 Q93.7173,177.1275 93.7173,179.2213 Q93.7173,181.315 94.4048,182.3931 Q95.0923,183.4556 96.436,183.4556 Q97.061,183.4556 97.6548,183.19 Q98.2485,182.9088 98.8735,182.3306 L98.8735,185.0494 Z " fill="#000000"/><a href="https://bo4e.github.io/BO4E-python/latest/api/com.Zeitreihenwert.html" target="_top" title="https://bo4e.github.io/BO4E-python/latest/api/com.Zeitreihenwert.html" xlink:actuate="onRequest" xlink:href="https://bo4e.github.io/BO4E-python/latest/api/com.Zeitreihenwert.html" xlink:show="new" xlink:title="https://bo4e.github.io/BO4E-python/latest/api/com.Zeitreihenwert.html" xlink:type="simple"><text fill="#0000FF" font-family="sans-serif" font-size="14" lengthAdjust="spacing" text-decoration="underline" textLength="103.5098" x="116.4048" y="178.4351">Zeitreihenwert</text></a><text fill="#000000" font-family="sans-serif" font-size="10" lengthAdjust="spacing" textLength="98.4717" x="118.9238" y="191.0191">com.Zeitreihenwert</text><line style="stroke:#181818;stroke-width:0.5;" x1="8" x2="295.8193" y1="198.3775" y2="198.3775"/><text fill="#000000" font-family="sans-serif" font-size="14" lengthAdjust="spacing" textLength="94.0215" x="13" y="215.3726">_id : str [0..1]</text><text fill="#000000" font-family="sans-serif" font-size="14" lengthAdjust="spacing" textLength="277.8193" x="13" y="231.6695">_typ : Literal["ZEITREIHENWERT"] [0..1]</text><text fill="#000000" font-family="sans-serif" font-size="14" lengthAdjust="spacing" textLength="132.5215" x="13" y="247.9664">_version : str [0..1]</text><text fill="#000000" font-family="sans-serif" font-size="14" lengthAdjust="spacing" textLength="118.4668" x="13" y="264.2632">wert : float [0..1]</text></g><!--link Zeitreihenwert to Zeitraum--><g class="link" data-entity-1="ent0002" data-entity-2="ent0004" data-link-type="composition" data-source-line="29" id="lnk9"><path codeLine="29" d="M297.19,175.76 C370.63,155.28 443.6811,134.9035 496.1411,120.2735" fill="none" id="Zeitreihenwert-to-Zeitraum" style="stroke:#181818;stroke-width:1;"/><polygon fill="#181818" points="507.7,117.05,500.846,114.8088,496.1411,120.2735,502.9951,122.5147,507.7,117.05" style="stroke:#181818;stroke-width:1;"/><text fill="#000000" font-family="sans-serif" font-size="13" lengthAdjust="spacing" textLength="57.7446" x="339.82" y="143.0669">zeitraum</text><text fill="#000000" font-family="sans-serif" font-size="13" lengthAdjust="spacing" textLength="24.8066" x="474.8427" y="132.1569">0..1</text></g><!--link Zeitreihenwert to Messwertstatus--><g class="link" data-entity-1="ent0002" data-entity-2="ent0007" data-link-type="composition" data-source-line="30" id="lnk10"><path codeLine="30" d="M297.19,216 C361.87,216 423.23,216 475.65,216" fill="none" id="Zeitreihenwert-to-Messwertstatus" style="stroke:#181818;stroke-width:1;"/><polygon fill="#181818" points="487.65,216,481.65,212,475.65,216,481.65,220,487.65,216" style="stroke:#181818;stroke-width:1;"/><text fill="#000000" font-family="sans-serif" font-size="13" lengthAdjust="spacing" textLength="39.9458" x="348.82" y="212.0669">status</text><text fill="#000000" font-family="sans-serif" font-size="13" lengthAdjust="spacing" textLength="24.8066" x="455.0869" y="228.8473">0..1</text></g><!--link Zeitreihenwert to Messwertstatuszusatz--><g class="link" data-entity-1="ent0002" data-entity-2="ent0008" data-link-type="composition" data-source-line="31" id="lnk11"><path codeLine="31" d="M297.19,241.99 C353.23,252.09 403.9805,261.2305 453.7805,270.2105" fill="none" id="Zeitreihenwert-to-Messwertstatuszusatz" style="stroke:#181818;stroke-width:1;"/><polygon fill="#181818" points="465.59,272.34,460.3951,267.3387,453.7805,270.2105,458.9754,275.2118,465.59,272.34" style="stroke:#181818;stroke-width:1;"/><text fill="#000000" font-family="sans-serif" font-size="13" lengthAdjust="spacing" textLength="81.6689" x="327.82" y="245.0669">statuszusatz</text><text fill="#000000" font-family="sans-serif" font-size="13" lengthAdjust="spacing" textLength="24.8066" x="432.8867" y="283.6539">0..1</text></g><?plantuml-src hLHTIyD047pFhrZIDw59YrLA4A5Am89La8hGMkIQR7i7-U9kOsca_zrBqj8cZLhHvELsPlTkChkN01S458CKIqxW2uaUYJWo32zWIe4vdNAYH3csFOzxQ2q5yNHkYTY-UUovxMHDF8xiW14gibaYR2yEhGaAaYWuHYkKP74A0wXYizbhTAL4XawtStrSOW9JjGhuC40_Ry871nH9c7OigpihGLed6hqNX985KtFY3iTFxl3EVNXndyRch9BxZbBf3ppUfJZ5WKKGCzhX6yE8M8WgOHw2MJYWrHRoTW6qtCwWVtcx5VXNsrWQ7XYcesQhDB4tIGU_jcVmF3hL69-bA8zXZ7oVaJxQqHc4DIhbCjFQD4aYh92AcAIlAWkokNQZttepC4eFkf57qFAxtlb5_s_jo7UoHgXKFXHQ4wMgx4eLg_IceQQGLeMqhiq_AyjInIXhqbSoFwaiingqbaIXM5-4sdrijy_0p3jZxeVGWMox_2QxvaS-L_dYv8gjgbrT6He65pv2YE5SZx6XUBo2say55W83Ntq2?></g></svg>