<?xml version="1.0" encoding="us-ascii" standalone="no"?><svg xmlns="http://www.w3.org/2000/svg" xmlns:xlink="http://www.w3.org/1999/xlink" contentStyleType="text/css" height="173px" preserveAspectRatio="none" style="width:449px;height:173px;background:#FFFFFF;" version="1.1" viewBox="0 0 449 173" width="449px" zoomAndPan="magnify"><defs/><g><!--cluster bo4e--><g id="cluster_bo4e"><path d="M260.5,6 L301.5,6 A3.75,3.75 0 0 1 304,8.5 L311,28.2969 L439.5,28.2969 A2.5,2.5 0 0 1 442,30.7969 L442,159.5 A2.5,2.5 0 0 1 439.5,162 L260.5,162 A2.5,2.5 0 0 1 258,159.5 L258,8.5 A2.5,2.5 0 0 1 260.5,6 " fill="none" style="stroke:#000000;stroke-width:1.5;"/><line style="stroke:#000000;stroke-width:1.5;" x1="258" x2="311" y1="28.2969" y2="28.2969"/><text fill="#000000" font-family="sans-serif" font-size="14" font-weight="bold" lengthAdjust="spacing" textLength="40" x="262" y="20.9951">bo4e</text></g><!--cluster com--><g id="cluster_com"><path d="M284.5,49 L363.5,49 A3.75,3.75 0 0 1 366,51.5 L373,71.2969 L415.5,71.2969 A2.5,2.5 0 0 1 418,73.7969 L418,135.5 A2.5,2.5 0 0 1 415.5,138 L284.5,138 A2.5,2.5 0 0 1 282,135.5 L282,51.5 A2.5,2.5 0 0 1 284.5,49 " fill="#E0A86C" style="stroke:#000000;stroke-width:1.5;"/><line style="stroke:#000000;stroke-width:1.5;" x1="282" x2="373" y1="71.2969" y2="71.2969"/><a href="https://bo4e.github.io/BO4E-python/latest/api/bo4e.com.html" target="_top" title="https://bo4e.github.io/BO4E-python/latest/api/bo4e.com.html" xlink:actuate="onRequest" xlink:href="https://bo4e.github.io/BO4E-python/latest/api/bo4e.com.html" xlink:show="new" xlink:title="https://bo4e.github.io/BO4E-python/latest/api/bo4e.com.html" xlink:type="simple"><text fill="#0000FF" font-family="sans-serif" font-size="14" font-weight="bold" lengthAdjust="spacing" text-decoration="underline" textLength="78" x="286" y="63.9951">bo4e.com</text></a></g><!--class COM--><g id="elem_COM"><rect codeLine="12" fill="#F1F1F1" height="37.9375" id="COM" rx="2.5" ry="2.5" style="stroke:#181818;stroke-width:0.5;" width="104" x="298" y="84.03"/><ellipse cx="313" cy="102.9988" fill="#ADD1B2" rx="11" ry="11" style="stroke:#181818;stroke-width:1.0;"/><path d="M315.9688,108.6394 Q315.3906,108.9363 314.75,109.0769 Q314.1094,109.2331 313.4063,109.2331 Q310.9063,109.2331 309.5781,107.5925 Q308.2656,105.9363 308.2656,102.8113 Q308.2656,99.6863 309.5781,98.03 Q310.9063,96.3738 313.4063,96.3738 Q314.1094,96.3738 314.75,96.53 Q315.4063,96.6863 315.9688,96.9831 L315.9688,99.7019 Q315.3438,99.1238 314.75,98.8581 Q314.1563,98.5769 313.5313,98.5769 Q312.1875,98.5769 311.5,99.655 Q310.8125,100.7175 310.8125,102.8113 Q310.8125,104.905 311.5,105.9831 Q312.1875,107.0456 313.5313,107.0456 Q314.1563,107.0456 314.75,106.78 Q315.3438,106.4988 315.9688,105.9206 L315.9688,108.6394 Z " fill="#000000"/><a href="https://bo4e.github.io/BO4E-python/latest/api/bo4e.com.html#bo4e.com.com.COM" target="_top" title="https://bo4e.github.io/BO4E-python/latest/api/bo4e.com.html#bo4e.com.com.COM" xlink:actuate="onRequest" xlink:href="https://bo4e.github.io/BO4E-python/latest/api/bo4e.com.html#bo4e.com.com.COM" xlink:show="new" xlink:title="https://bo4e.github.io/BO4E-python/latest/api/bo4e.com.html#bo4e.com.com.COM" xlink:type="simple"><text fill="#0000FF" font-family="sans-serif" font-size="14" lengthAdjust="spacing" text-decoration="underline" textLength="33" x="346.5" y="102.0251">COM</text></a><text fill="#000000" font-family="sans-serif" font-size="10" lengthAdjust="spacing" textLength="72" x="327" y="114.6091">bo4e.com.com</text></g><!--class Zeitraum--><g id="elem_Zeitraum"><rect codeLine="3" fill="#F1F1F1" height="127.4219" id="Zeitraum" rx="2.5" ry="2.5" style="stroke:#181818;stroke-width:0.5;" width="231" x="7" y="39.29"/><ellipse cx="71.25" cy="58.2587" fill="#ADD1B2" rx="11" ry="11" style="stroke:#181818;stroke-width:1.0;"/><path d="M74.2188,63.8994 Q73.6406,64.1962 73,64.3369 Q72.3594,64.4931 71.6563,64.4931 Q69.1563,64.4931 67.8281,62.8525 Q66.5156,61.1962 66.5156,58.0712 Q66.5156,54.9462 67.8281,53.29 Q69.1563,51.6337 71.6563,51.6337 Q72.3594,51.6337 73,51.79 Q73.6563,51.9462 74.2188,52.2431 L74.2188,54.9619 Q73.5938,54.3837 73,54.1181 Q72.4063,53.8369 71.7813,53.8369 Q70.4375,53.8369 69.75,54.915 Q69.0625,55.9775 69.0625,58.0712 Q69.0625,60.165 69.75,61.2431 Q70.4375,62.3056 71.7813,62.3056 Q72.4063,62.3056 73,62.04 Q73.5938,61.7587 74.2188,61.1806 L74.2188,63.8994 Z " fill="#000000"/><a href="https://bo4e.github.io/BO4E-python/latest/api/bo4e.com.html#bo4e.com.zeitraum.Zeitraum" target="_top" title="https://bo4e.github.io/BO4E-python/latest/api/bo4e.com.html#bo4e.com.zeitraum.Zeitraum" xlink:actuate="onRequest" xlink:href="https://bo4e.github.io/BO4E-python/latest/api/bo4e.com.html#bo4e.com.zeitraum.Zeitraum" xlink:show="new" xlink:title="https://bo4e.github.io/BO4E-python/latest/api/bo4e.com.html#bo4e.com.zeitraum.Zeitraum" xlink:type="simple"><text fill="#0000FF" font-family="sans-serif" font-size="14" lengthAdjust="spacing" text-decoration="underline" textLength="62" x="107.75" y="57.2851">Zeitraum</text></a><text fill="#000000" font-family="sans-serif" font-size="10" lengthAdjust="spacing" textLength="94" x="91.75" y="69.8691">bo4e.com.zeitraum</text><line style="stroke:#181818;stroke-width:0.5;" x1="8" x2="237" y1="77.2275" y2="77.2275"/><text fill="#000000" font-family="sans-serif" font-size="14" lengthAdjust="spacing" textLength="216" x="13" y="94.2226">startdatum : date [0..1] = None</text><text fill="#000000" font-family="sans-serif" font-size="14" lengthAdjust="spacing" textLength="212" x="13" y="110.5195">enddatum : date [0..1] = None</text><text fill="#000000" font-family="sans-serif" font-size="14" lengthAdjust="spacing" textLength="219" x="13" y="126.8164">startuhrzeit : time [0..1] = None</text><text fill="#000000" font-family="sans-serif" font-size="14" lengthAdjust="spacing" textLength="215" x="13" y="143.1132">enduhrzeit : time [0..1] = None</text><text fill="#000000" font-family="sans-serif" font-size="14" lengthAdjust="spacing" textLength="168" x="13" y="159.4101">dauer : str [0..1] = None</text></g><!--link Zeitraum to COM--><g id="link_Zeitraum_COM"><path codeLine="15" d="M238.23,103 C259.12,103 261.92,103 279.76,103 " fill="none" id="Zeitraum-to-COM" style="stroke:#181818;stroke-width:1.0;"/><polygon fill="none" points="297.76,103,279.76,97,279.76,109,297.76,103" style="stroke:#181818;stroke-width:1.0;"/></g><!--SRC=[hP71JiCm38RForDOsxbf9qq8LJ09fXrXTqeFQUCjaPgaIbmX1hmxQQ6T1DCkSB3YN_yNnx4Rt1EG0wyFYa1gZpLfPnch6n42p8j24RKXJzFAhP0VDAckujgbzxlLDcbVIJcRDe8mK2fQ_KNLpd15fbbCweYQlEWCV_fEO4pAyjdU17t4V9cjV_5p4652uOtD0WbFKb1KESGJeSWuNvPm2u_E8fkXbPViuNwdVFz0H4YRSnKk0r9qwACNoF-mFXYpmc1eHOr_d1sCgYo78OmI5jlixlfgqm_ZVtVKnsRt037EBoN6q4e4-f-UTfaax-kfmRu6OqfB18EcGXzOKEu5JlXUOoF39m00]--></g></svg>