<svg xmlns="http://www.w3.org/2000/svg" xmlns:xlink="http://www.w3.org/1999/xlink" contentStyleType="text/css" data-diagram-type="CLASS" height="403px" preserveAspectRatio="none" style="width:803px;height:403px;background:#FFFFFF;" version="1.1" viewBox="0 0 803 403" width="803px" zoomAndPan="magnify"><?plantuml 1.2026.6?><defs/><g><!--cluster bo4e--><g class="cluster" data-qualified-name="bo4e" data-source-line="12" id="ent0004"><path d="M548.32,6 L588.196,6 A3.75,3.75 0 0 1 590.696,8.5 L597.696,28.2969 L786.11,28.2969 A2.5,2.5 0 0 1 788.61,30.7969 L788.61,385.5 A2.5,2.5 0 0 1 786.11,388 L548.32,388 A2.5,2.5 0 0 1 545.82,385.5 L545.82,8.5 A2.5,2.5 0 0 1 548.32,6" fill="none" style="stroke:#000000;stroke-width:1.5;"/><line style="stroke:#000000;stroke-width:1.5;" x1="545.82" x2="597.696" y1="28.2969" y2="28.2969"/><text fill="#000000" font-family="sans-serif" font-size="14" font-weight="700" lengthAdjust="spacing" textLength="38.876" x="549.82" y="20.9951">bo4e</text></g><!--cluster bo--><g class="cluster" data-qualified-name="bo4e.bo" data-source-line="11" id="ent0002"><path d="M572.32,49 L637.154,49 A3.75,3.75 0 0 1 639.654,51.5 L646.654,71.2969 L762.11,71.2969 A2.5,2.5 0 0 1 764.61,73.7969 L764.61,135.5 A2.5,2.5 0 0 1 762.11,138 L572.32,138 A2.5,2.5 0 0 1 569.82,135.5 L569.82,51.5 A2.5,2.5 0 0 1 572.32,49" fill="#B6D7A8" style="stroke:#000000;stroke-width:1.5;"/><line style="stroke:#000000;stroke-width:1.5;" x1="569.82" x2="646.654" y1="71.2969" y2="71.2969"/><text fill="#000000" font-family="sans-serif" font-size="14" font-weight="700" lengthAdjust="spacing" textLength="63.834" x="573.82" y="63.9951">bo4e.bo</text></g><!--cluster com--><g class="cluster" data-qualified-name="bo4e.com" data-source-line="20" id="ent0005"><path d="M613.31,162 L691.0092,162 A3.75,3.75 0 0 1 693.5092,164.5 L700.5092,184.2969 L721.13,184.2969 A2.5,2.5 0 0 1 723.63,186.7969 L723.63,248.5 A2.5,2.5 0 0 1 721.13,251 L613.31,251 A2.5,2.5 0 0 1 610.81,248.5 L610.81,164.5 A2.5,2.5 0 0 1 613.31,162" fill="#E0A86C" style="stroke:#000000;stroke-width:1.5;"/><line style="stroke:#000000;stroke-width:1.5;" x1="610.81" x2="700.5092" y1="184.2969" y2="184.2969"/><text fill="#000000" font-family="sans-serif" font-size="14" font-weight="700" lengthAdjust="spacing" textLength="76.6992" x="614.81" y="176.9951">bo4e.com</text></g><!--cluster enum--><g class="cluster" data-qualified-name="bo4e.enum" data-source-line="28" id="ent0007"><path d="M588.81,275 L678.0209,275 A3.75,3.75 0 0 1 680.5209,277.5 L687.5209,297.2969 L745.62,297.2969 A2.5,2.5 0 0 1 748.12,299.7969 L748.12,361.5 A2.5,2.5 0 0 1 745.62,364 L588.81,364 A2.5,2.5 0 0 1 586.31,361.5 L586.31,277.5 A2.5,2.5 0 0 1 588.81,275" fill="#D1C358" style="stroke:#000000;stroke-width:1.5;"/><line style="stroke:#000000;stroke-width:1.5;" x1="586.31" x2="687.5209" y1="297.2969" y2="297.2969"/><text fill="#000000" font-family="sans-serif" font-size="14" font-weight="700" lengthAdjust="spacing" textLength="88.2109" x="590.31" y="289.9951">bo4e.enum</text></g><!--class Zaehlzeitdefinition--><g class="entity" data-qualified-name="bo4e.bo.Zaehlzeitdefinition" data-source-line="12" id="ent0003"><rect fill="#F1F1F1" height="37.9375" rx="2.5" ry="2.5" style="stroke:#181818;stroke-width:0.5;" width="162.7852" x="585.82" y="84.03"/><ellipse cx="600.82" cy="102.9987" fill="#ADD1B2" rx="11" ry="11" style="stroke:#181818;stroke-width:1;"/><path d="M603.7888,108.6394 Q603.2106,108.9362 602.57,109.0769 Q601.9294,109.2331 601.2263,109.2331 Q598.7263,109.2331 597.3981,107.5925 Q596.0856,105.9362 596.0856,102.8112 Q596.0856,99.6862 597.3981,98.03 Q598.7263,96.3737 601.2263,96.3737 Q601.9294,96.3737 602.57,96.53 Q603.2263,96.6862 603.7888,96.9831 L603.7888,99.7019 Q603.1638,99.1237 602.57,98.8581 Q601.9763,98.5769 601.3513,98.5769 Q600.0075,98.5769 599.32,99.655 Q598.6325,100.7175 598.6325,102.8112 Q598.6325,104.905 599.32,105.9831 Q600.0075,107.0456 601.3513,107.0456 Q601.9763,107.0456 602.57,106.78 Q603.1638,106.4987 603.7888,105.9206 L603.7888,108.6394 Z " fill="#000000"/><a href="https://bo4e.github.io/BO4E-python/latest/api/bo4e.bo.html#module-bo4e.bo.zaehlzeitdefinition" target="_top" title="https://bo4e.github.io/BO4E-python/latest/api/bo4e.bo.html#module-bo4e.bo.zaehlzeitdefinition" xlink:actuate="onRequest" xlink:href="https://bo4e.github.io/BO4E-python/latest/api/bo4e.bo.html#module-bo4e.bo.zaehlzeitdefinition" xlink:show="new" xlink:title="https://bo4e.github.io/BO4E-python/latest/api/bo4e.bo.html#module-bo4e.bo.zaehlzeitdefinition" xlink:type="simple"><text fill="#0000FF" font-family="sans-serif" font-size="14" lengthAdjust="spacing" text-decoration="underline" textLength="130.7852" x="614.82" y="102.0251">Zaehlzeitdefinition</text></a><text fill="#000000" font-family="sans-serif" font-size="10" lengthAdjust="spacing" textLength="109.0625" x="625.6813" y="114.6091">bo.Zaehlzeitdefinition</text></g><!--class Preis--><g class="entity" data-qualified-name="bo4e.com.Preis" data-source-line="21" id="ent0006"><rect fill="#F1F1F1" height="37.9375" rx="2.5" ry="2.5" style="stroke:#181818;stroke-width:0.5;" width="80.8184" x="626.81" y="197.03"/><ellipse cx="641.81" cy="215.9988" fill="#ADD1B2" rx="11" ry="11" style="stroke:#181818;stroke-width:1;"/><path d="M644.7788,221.6394 Q644.2006,221.9363 643.56,222.0769 Q642.9194,222.2331 642.2163,222.2331 Q639.7163,222.2331 638.3881,220.5925 Q637.0756,218.9363 637.0756,215.8113 Q637.0756,212.6863 638.3881,211.03 Q639.7163,209.3738 642.2163,209.3738 Q642.9194,209.3738 643.56,209.53 Q644.2163,209.6863 644.7788,209.9831 L644.7788,212.7019 Q644.1538,212.1238 643.56,211.8581 Q642.9663,211.5769 642.3413,211.5769 Q640.9975,211.5769 640.31,212.655 Q639.6225,213.7175 639.6225,215.8113 Q639.6225,217.905 640.31,218.9831 Q640.9975,220.0456 642.3413,220.0456 Q642.9663,220.0456 643.56,219.78 Q644.1538,219.4988 644.7788,218.9206 L644.7788,221.6394 Z " fill="#000000"/><a href="https://bo4e.github.io/BO4E-python/latest/api/bo4e.com.html#module-bo4e.com.preis" target="_top" title="https://bo4e.github.io/BO4E-python/latest/api/bo4e.com.html#module-bo4e.com.preis" xlink:actuate="onRequest" xlink:href="https://bo4e.github.io/BO4E-python/latest/api/bo4e.com.html#module-bo4e.com.preis" xlink:show="new" xlink:title="https://bo4e.github.io/BO4E-python/latest/api/bo4e.com.html#module-bo4e.com.preis" xlink:type="simple"><text fill="#0000FF" font-family="sans-serif" font-size="14" lengthAdjust="spacing" text-decoration="underline" textLength="33.9951" x="663.2216" y="215.0251">Preis</text></a><text fill="#000000" font-family="sans-serif" font-size="10" lengthAdjust="spacing" textLength="48.8184" x="655.81" y="227.6091">com.Preis</text></g><!--class Preisreferenz--><g class="entity" data-qualified-name="bo4e.enum.Preisreferenz" data-source-line="29" id="ent0008"><rect fill="#F1F1F1" height="37.9375" rx="2.5" ry="2.5" style="stroke:#181818;stroke-width:0.5;" width="129.8174" x="602.31" y="310.03"/><ellipse cx="617.31" cy="328.9988" fill="#ADD1B2" rx="11" ry="11" style="stroke:#181818;stroke-width:1;"/><path d="M620.2788,334.6394 Q619.7006,334.9363 619.06,335.0769 Q618.4194,335.2331 617.7163,335.2331 Q615.2163,335.2331 613.8881,333.5925 Q612.5756,331.9363 612.5756,328.8113 Q612.5756,325.6863 613.8881,324.03 Q615.2163,322.3738 617.7163,322.3738 Q618.4194,322.3738 619.06,322.53 Q619.7163,322.6863 620.2788,322.9831 L620.2788,325.7019 Q619.6538,325.1238 619.06,324.8581 Q618.4663,324.5769 617.8413,324.5769 Q616.4975,324.5769 615.81,325.655 Q615.1225,326.7175 615.1225,328.8113 Q615.1225,330.905 615.81,331.9831 Q616.4975,333.0456 617.8413,333.0456 Q618.4663,333.0456 619.06,332.78 Q619.6538,332.4988 620.2788,331.9206 L620.2788,334.6394 Z " fill="#000000"/><a href="https://bo4e.github.io/BO4E-python/latest/api/bo4e.enum.html#module-bo4e.enum.preisreferenz" target="_top" title="https://bo4e.github.io/BO4E-python/latest/api/bo4e.enum.html#module-bo4e.enum.preisreferenz" xlink:actuate="onRequest" xlink:href="https://bo4e.github.io/BO4E-python/latest/api/bo4e.enum.html#module-bo4e.enum.preisreferenz" xlink:show="new" xlink:title="https://bo4e.github.io/BO4E-python/latest/api/bo4e.enum.html#module-bo4e.enum.preisreferenz" xlink:type="simple"><text fill="#0000FF" font-family="sans-serif" font-size="14" lengthAdjust="spacing" text-decoration="underline" textLength="92.4971" x="633.9702" y="328.0251">Preisreferenz</text></a><text fill="#000000" font-family="sans-serif" font-size="10" lengthAdjust="spacing" textLength="97.8174" x="631.31" y="340.6091">enum.Preisreferenz</text></g><!--class ZeitvariablePreisposition--><g class="entity" data-qualified-name="ZeitvariablePreisposition" data-source-line="3" id="ent0001"><rect fill="#F1F1F1" height="127.4219" rx="2.5" ry="2.5" style="stroke:#181818;stroke-width:0.5;" width="371.8232" x="7" y="152.29"/><ellipse cx="101.9067" cy="171.2588" fill="#ADD1B2" rx="11" ry="11" style="stroke:#181818;stroke-width:1;"/><path d="M104.8755,176.8994 Q104.2974,177.1963 103.6567,177.3369 Q103.0161,177.4931 102.313,177.4931 Q99.813,177.4931 98.4849,175.8525 Q97.1724,174.1963 97.1724,171.0713 Q97.1724,167.9463 98.4849,166.29 Q99.813,164.6338 102.313,164.6338 Q103.0161,164.6338 103.6567,164.79 Q104.313,164.9463 104.8755,165.2431 L104.8755,167.9619 Q104.2505,167.3838 103.6567,167.1181 Q103.063,166.8369 102.438,166.8369 Q101.0942,166.8369 100.4067,167.915 Q99.7192,168.9775 99.7192,171.0713 Q99.7192,173.165 100.4067,174.2431 Q101.0942,175.3056 102.438,175.3056 Q103.063,175.3056 103.6567,175.04 Q104.2505,174.7588 104.8755,174.1806 L104.8755,176.8994 Z " fill="#000000"/><a href="https://bo4e.github.io/BO4E-python/latest/api/bo4e.com.html#module-bo4e.com.zeitvariablepreisposition" target="_top" title="https://bo4e.github.io/BO4E-python/latest/api/bo4e.com.html#module-bo4e.com.zeitvariablepreisposition" xlink:actuate="onRequest" xlink:href="https://bo4e.github.io/BO4E-python/latest/api/bo4e.com.html#module-bo4e.com.zeitvariablepreisposition" xlink:show="new" xlink:title="https://bo4e.github.io/BO4E-python/latest/api/bo4e.com.html#module-bo4e.com.zeitvariablepreisposition" xlink:type="simple"><text fill="#0000FF" font-family="sans-serif" font-size="14" lengthAdjust="spacing" text-decoration="underline" textLength="173.5098" x="122.4067" y="170.2851">ZeitvariablePreisposition</text></a><text fill="#000000" font-family="sans-serif" font-size="10" lengthAdjust="spacing" textLength="148.4717" x="134.9258" y="182.8691">com.ZeitvariablePreisposition</text><line style="stroke:#181818;stroke-width:0.5;" x1="8" x2="377.8232" y1="190.2275" y2="190.2275"/><text fill="#000000" font-family="sans-serif" font-size="14" lengthAdjust="spacing" textLength="94.0215" x="13" y="207.2226">_id : str [0..1]</text><text fill="#000000" font-family="sans-serif" font-size="14" lengthAdjust="spacing" textLength="359.8232" x="13" y="223.5195">_typ : Literal["ZEITVARIABLEPREISPOSITION"] [0..1]</text><text fill="#000000" font-family="sans-serif" font-size="14" lengthAdjust="spacing" textLength="132.5215" x="13" y="239.8164">_version : str [0..1]</text><text fill="#000000" font-family="sans-serif" font-size="14" lengthAdjust="spacing" textLength="163.6729" x="13" y="256.1132">bezeichnung : str [0..1]</text><text fill="#000000" font-family="sans-serif" font-size="14" lengthAdjust="spacing" textLength="191.1875" x="13" y="272.4101">zaehlzeitregister : str [0..1]</text></g><!--link ZeitvariablePreisposition to Zaehlzeitdefinition--><g class="link" data-entity-1="ent0001" data-entity-2="ent0003" data-link-type="composition" data-source-line="33" id="lnk9"><path codeLine="33" d="M379.22,171.66 C450.81,154.54 517.2693,138.632 573.9093,125.082" fill="none" id="ZeitvariablePreisposition-to-Zaehlzeitdefinition" style="stroke:#181818;stroke-width:1;"/><polygon fill="#181818" points="585.58,122.29,578.814,119.7958,573.9093,125.082,580.6753,127.5762,585.58,122.29" style="stroke:#181818;stroke-width:1;stroke-linejoin:miter;stroke-miterlimit:10;"/><text fill="#000000" font-family="sans-serif" font-size="13" lengthAdjust="spacing" textLength="119.3613" x="409.82" y="132.4569">zaehlzeitdefinition</text><text fill="#000000" font-family="sans-serif" font-size="13" lengthAdjust="spacing" textLength="24.8066" x="552.9854" y="136.8328">0..1</text></g><!--link ZeitvariablePreisposition to Preis--><g class="link" data-entity-1="ent0001" data-entity-2="ent0006" data-link-type="composition" data-source-line="34" id="lnk10"><path codeLine="34" d="M379.22,216 C470.45,216 560.3,216 614.77,216" fill="none" id="ZeitvariablePreisposition-to-Preis" style="stroke:#181818;stroke-width:1;"/><polygon fill="#181818" points="626.77,216,620.77,212,614.77,216,620.77,220,626.77,216" style="stroke:#181818;stroke-width:1;stroke-linejoin:miter;stroke-miterlimit:10;"/><text fill="#000000" font-family="sans-serif" font-size="13" lengthAdjust="spacing" textLength="31.9795" x="453.82" y="212.0669">preis</text><text fill="#000000" font-family="sans-serif" font-size="13" lengthAdjust="spacing" textLength="24.8066" x="594.1499" y="229.3203">0..1</text></g><!--link ZeitvariablePreisposition to Preisreferenz--><g class="link" data-entity-1="ent0001" data-entity-2="ent0008" data-link-type="composition" data-source-line="35" id="lnk11"><path codeLine="35" d="M379.22,260.34 C458.05,279.19 533.1293,297.1582 590.3993,310.8582" fill="none" id="ZeitvariablePreisposition-to-Preisreferenz" style="stroke:#181818;stroke-width:1;"/><polygon fill="#181818" points="602.07,313.65,597.1653,308.3638,590.3993,310.8582,595.304,316.1443,602.07,313.65" style="stroke:#181818;stroke-width:1;stroke-linejoin:miter;stroke-miterlimit:10;"/><text fill="#000000" font-family="sans-serif" font-size="13" lengthAdjust="spacing" textLength="86.3027" x="426.32" y="263.4869">preisreferenz</text><text fill="#000000" font-family="sans-serif" font-size="13" lengthAdjust="spacing" textLength="24.8066" x="569.676" y="324.8657">0..1</text></g><?plantuml-src hLJVQzim47xtNt4uRuFO2Ukw4aR1MJrc24reonwQXI7RPrjCbeoaj3Ib__jaEKtZEYuDgvzyt_sGxllkn33Je0L8cXSQKYenqLHmnqaOKGhSvRBGkb8Jtu_52NevrSKwzgZmf_EJS5Wzw49mdn6DIlkaearK8aglq2KRb29TCnpkm0rIVKSa9J73IY9LbL2qFWzkzpoBVSzgzPj_KtI3a_7elAxH6-a2KVrruD41y_sXAKn0QGdBaUUDLmse7og3pgX6ITZIlGsZcr_1LHHCP-7YAeok5_Fhw2QQNxghLjeTIbMNxXICqNIQ57pDywvpGx1WDHCISwhCaUsG9yVXf4HLaGJ1jTJ5mlQs_OV1zFJYQt2sxUX_X8f5LoU3xMwOOaRvLg0krfB6f1q8QJGvKEuODOBmvwoMv2By4LqUfKE65AKckVfB6FBqDTLrY29K2Lv9aL7sMeYdZX9c05-aC0OCmb5mTlhz0xJeNHgxA627kRCC5hKtid_7q6e7-xr4tXiQ3PenGVHR_21Vxn5KMp18nyddBnynhNMvBaKMjHn9p50YtpHSF5ijpcnmo_r2tYxzqRRcz3ybm-4dS6iIt8EpFO432_I-SesA4x3z796ok_iszTbsd8Ac22MMiP7MKOMuX_uN53AAB5N_0000?></g></svg>