<?xml version="1.0" encoding="us-ascii" standalone="no"?><svg xmlns="http://www.w3.org/2000/svg" xmlns:xlink="http://www.w3.org/1999/xlink" contentStyleType="text/css" height="428px" preserveAspectRatio="none" style="width:1099px;height:428px;background:#FFFFFF;" version="1.1" viewBox="0 0 1099 428" width="1099px" zoomAndPan="magnify"><defs/><g><!--cluster bo4e--><g id="cluster_bo4e"><path d="M815.5,6 L856.5,6 A3.75,3.75 0 0 1 859,8.5 L866,28.2969 L1089.5,28.2969 A2.5,2.5 0 0 1 1092,30.7969 L1092,418.5 A2.5,2.5 0 0 1 1089.5,421 L815.5,421 A2.5,2.5 0 0 1 813,418.5 L813,8.5 A2.5,2.5 0 0 1 815.5,6 " fill="none" style="stroke:#000000;stroke-width:1.5;"/><line style="stroke:#000000;stroke-width:1.5;" x1="813" x2="866" y1="28.2969" y2="28.2969"/><text fill="#000000" font-family="sans-serif" font-size="14" font-weight="bold" lengthAdjust="spacing" textLength="40" x="817" y="20.9951">bo4e</text></g><!--cluster com--><g id="cluster_com"><path d="M876,49 L955,49 A3.75,3.75 0 0 1 957.5,51.5 L964.5,71.2969 L1029,71.2969 A2.5,2.5 0 0 1 1031.5,73.7969 L1031.5,208.5 A2.5,2.5 0 0 1 1029,211 L876,211 A2.5,2.5 0 0 1 873.5,208.5 L873.5,51.5 A2.5,2.5 0 0 1 876,49 " fill="#E0A86C" style="stroke:#000000;stroke-width:1.5;"/><line style="stroke:#000000;stroke-width:1.5;" x1="873.5" x2="964.5" y1="71.2969" y2="71.2969"/><a href="https://bo4e.github.io/BO4E-python/latest/api/bo4e.com.html" target="_top" title="https://bo4e.github.io/BO4E-python/latest/api/bo4e.com.html" xlink:actuate="onRequest" xlink:href="https://bo4e.github.io/BO4E-python/latest/api/bo4e.com.html" xlink:show="new" xlink:title="https://bo4e.github.io/BO4E-python/latest/api/bo4e.com.html" xlink:type="simple"><text fill="#0000FF" font-family="sans-serif" font-size="14" font-weight="bold" lengthAdjust="spacing" text-decoration="underline" textLength="78" x="877.5" y="63.9951">bo4e.com</text></a></g><!--cluster enum--><g id="cluster_enum"><path d="M839.5,235 L929.5,235 A3.75,3.75 0 0 1 932,237.5 L939,257.2969 L1065.5,257.2969 A2.5,2.5 0 0 1 1068,259.7969 L1068,394.5 A2.5,2.5 0 0 1 1065.5,397 L839.5,397 A2.5,2.5 0 0 1 837,394.5 L837,237.5 A2.5,2.5 0 0 1 839.5,235 " fill="#D1C358" style="stroke:#000000;stroke-width:1.5;"/><line style="stroke:#000000;stroke-width:1.5;" x1="837" x2="939" y1="257.2969" y2="257.2969"/><a href="https://bo4e.github.io/BO4E-python/latest/api/bo4e.enum.html" target="_top" title="https://bo4e.github.io/BO4E-python/latest/api/bo4e.enum.html" xlink:actuate="onRequest" xlink:href="https://bo4e.github.io/BO4E-python/latest/api/bo4e.enum.html" xlink:show="new" xlink:title="https://bo4e.github.io/BO4E-python/latest/api/bo4e.enum.html" xlink:type="simple"><text fill="#0000FF" font-family="sans-serif" font-size="14" font-weight="bold" lengthAdjust="spacing" text-decoration="underline" textLength="89" x="841" y="249.9951">bo4e.enum</text></a></g><!--class Zeitraum--><g id="elem_Zeitraum"><rect codeLine="9" fill="#F1F1F1" height="37.9375" id="Zeitraum" rx="2.5" ry="2.5" style="stroke:#181818;stroke-width:0.5;" width="126" x="889.5" y="84.03"/><ellipse cx="904.5" cy="102.9987" fill="#ADD1B2" rx="11" ry="11" style="stroke:#181818;stroke-width:1.0;"/><path d="M907.4688,108.6394 Q906.8906,108.9362 906.25,109.0769 Q905.6094,109.2331 904.9063,109.2331 Q902.4063,109.2331 901.0781,107.5925 Q899.7656,105.9362 899.7656,102.8112 Q899.7656,99.6862 901.0781,98.03 Q902.4063,96.3737 904.9063,96.3737 Q905.6094,96.3737 906.25,96.53 Q906.9063,96.6862 907.4688,96.9831 L907.4688,99.7019 Q906.8438,99.1237 906.25,98.8581 Q905.6563,98.5769 905.0313,98.5769 Q903.6875,98.5769 903,99.655 Q902.3125,100.7175 902.3125,102.8112 Q902.3125,104.905 903,105.9831 Q903.6875,107.0456 905.0313,107.0456 Q905.6563,107.0456 906.25,106.78 Q906.8438,106.4987 907.4688,105.9206 L907.4688,108.6394 Z " fill="#000000"/><a href="https://bo4e.github.io/BO4E-python/latest/api/bo4e.com.html#bo4e.com.zeitraum.Zeitraum" target="_top" title="https://bo4e.github.io/BO4E-python/latest/api/bo4e.com.html#bo4e.com.zeitraum.Zeitraum" xlink:actuate="onRequest" xlink:href="https://bo4e.github.io/BO4E-python/latest/api/bo4e.com.html#bo4e.com.zeitraum.Zeitraum" xlink:show="new" xlink:title="https://bo4e.github.io/BO4E-python/latest/api/bo4e.com.html#bo4e.com.zeitraum.Zeitraum" xlink:type="simple"><text fill="#0000FF" font-family="sans-serif" font-size="14" lengthAdjust="spacing" text-decoration="underline" textLength="62" x="934.5" y="102.0251">Zeitraum</text></a><text fill="#000000" font-family="sans-serif" font-size="10" lengthAdjust="spacing" textLength="94" x="918.5" y="114.6091">bo4e.com.zeitraum</text></g><!--class COM--><g id="elem_COM"><rect codeLine="10" fill="#F1F1F1" height="37.9375" id="COM" rx="2.5" ry="2.5" style="stroke:#181818;stroke-width:0.5;" width="104" x="900.5" y="157.03"/><ellipse cx="915.5" cy="175.9987" fill="#ADD1B2" rx="11" ry="11" style="stroke:#181818;stroke-width:1.0;"/><path d="M918.4688,181.6394 Q917.8906,181.9362 917.25,182.0769 Q916.6094,182.2331 915.9063,182.2331 Q913.4063,182.2331 912.0781,180.5925 Q910.7656,178.9362 910.7656,175.8112 Q910.7656,172.6862 912.0781,171.03 Q913.4063,169.3737 915.9063,169.3737 Q916.6094,169.3737 917.25,169.53 Q917.9063,169.6862 918.4688,169.9831 L918.4688,172.7019 Q917.8438,172.1237 917.25,171.8581 Q916.6563,171.5769 916.0313,171.5769 Q914.6875,171.5769 914,172.655 Q913.3125,173.7175 913.3125,175.8112 Q913.3125,177.905 914,178.9831 Q914.6875,180.0456 916.0313,180.0456 Q916.6563,180.0456 917.25,179.78 Q917.8438,179.4987 918.4688,178.9206 L918.4688,181.6394 Z " fill="#000000"/><a href="https://bo4e.github.io/BO4E-python/latest/api/bo4e.com.html#bo4e.com.com.COM" target="_top" title="https://bo4e.github.io/BO4E-python/latest/api/bo4e.com.html#bo4e.com.com.COM" xlink:actuate="onRequest" xlink:href="https://bo4e.github.io/BO4E-python/latest/api/bo4e.com.html#bo4e.com.com.COM" xlink:show="new" xlink:title="https://bo4e.github.io/BO4E-python/latest/api/bo4e.com.html#bo4e.com.com.COM" xlink:type="simple"><text fill="#0000FF" font-family="sans-serif" font-size="14" lengthAdjust="spacing" text-decoration="underline" textLength="33" x="949" y="175.0251">COM</text></a><text fill="#000000" font-family="sans-serif" font-size="10" lengthAdjust="spacing" textLength="72" x="929.5" y="187.6091">bo4e.com.com</text></g><!--class Messwertstatus--><g id="elem_Messwertstatus"><rect codeLine="13" fill="#F1F1F1" height="37.9375" id="Messwertstatus" rx="2.5" ry="2.5" style="stroke:#181818;stroke-width:0.5;" width="168" x="868.5" y="270.03"/><ellipse cx="883.5" cy="288.9988" fill="#ADD1B2" rx="11" ry="11" style="stroke:#181818;stroke-width:1.0;"/><path d="M886.4688,294.6394 Q885.8906,294.9363 885.25,295.0769 Q884.6094,295.2331 883.9063,295.2331 Q881.4063,295.2331 880.0781,293.5925 Q878.7656,291.9363 878.7656,288.8113 Q878.7656,285.6863 880.0781,284.03 Q881.4063,282.3738 883.9063,282.3738 Q884.6094,282.3738 885.25,282.53 Q885.9063,282.6863 886.4688,282.9831 L886.4688,285.7019 Q885.8438,285.1238 885.25,284.8581 Q884.6563,284.5769 884.0313,284.5769 Q882.6875,284.5769 882,285.655 Q881.3125,286.7175 881.3125,288.8113 Q881.3125,290.905 882,291.9831 Q882.6875,293.0456 884.0313,293.0456 Q884.6563,293.0456 885.25,292.78 Q885.8438,292.4988 886.4688,291.9206 L886.4688,294.6394 Z " fill="#000000"/><a href="https://bo4e.github.io/BO4E-python/latest/api/bo4e.enum.html#bo4e.enum.messwertstatus.Messwertstatus" target="_top" title="https://bo4e.github.io/BO4E-python/latest/api/bo4e.enum.html#bo4e.enum.messwertstatus.Messwertstatus" xlink:actuate="onRequest" xlink:href="https://bo4e.github.io/BO4E-python/latest/api/bo4e.enum.html#bo4e.enum.messwertstatus.Messwertstatus" xlink:show="new" xlink:title="https://bo4e.github.io/BO4E-python/latest/api/bo4e.enum.html#bo4e.enum.messwertstatus.Messwertstatus" xlink:type="simple"><text fill="#0000FF" font-family="sans-serif" font-size="14" lengthAdjust="spacing" text-decoration="underline" textLength="110" x="910.5" y="288.0251">Messwertstatus</text></a><text fill="#000000" font-family="sans-serif" font-size="10" lengthAdjust="spacing" textLength="136" x="897.5" y="300.6091">bo4e.enum.messwertstatus</text></g><!--class Messwertstatuszusatz--><g id="elem_Messwertstatuszusatz"><rect codeLine="14" fill="#F1F1F1" height="37.9375" id="Messwertstatuszusatz" rx="2.5" ry="2.5" style="stroke:#181818;stroke-width:0.5;" width="199" x="853" y="343.03"/><ellipse cx="868" cy="361.9988" fill="#ADD1B2" rx="11" ry="11" style="stroke:#181818;stroke-width:1.0;"/><path d="M870.9688,367.6394 Q870.3906,367.9363 869.75,368.0769 Q869.1094,368.2331 868.4063,368.2331 Q865.9063,368.2331 864.5781,366.5925 Q863.2656,364.9363 863.2656,361.8113 Q863.2656,358.6863 864.5781,357.03 Q865.9063,355.3738 868.4063,355.3738 Q869.1094,355.3738 869.75,355.53 Q870.4063,355.6863 870.9688,355.9831 L870.9688,358.7019 Q870.3438,358.1238 869.75,357.8581 Q869.1563,357.5769 868.5313,357.5769 Q867.1875,357.5769 866.5,358.655 Q865.8125,359.7175 865.8125,361.8113 Q865.8125,363.905 866.5,364.9831 Q867.1875,366.0456 868.5313,366.0456 Q869.1563,366.0456 869.75,365.78 Q870.3438,365.4988 870.9688,364.9206 L870.9688,367.6394 Z " fill="#000000"/><a href="https://bo4e.github.io/BO4E-python/latest/api/bo4e.enum.html#bo4e.enum.messwertstatuszusatz.Messwertstatuszusatz" target="_top" title="https://bo4e.github.io/BO4E-python/latest/api/bo4e.enum.html#bo4e.enum.messwertstatuszusatz.Messwertstatuszusatz" xlink:actuate="onRequest" xlink:href="https://bo4e.github.io/BO4E-python/latest/api/bo4e.enum.html#bo4e.enum.messwertstatuszusatz.Messwertstatuszusatz" xlink:show="new" xlink:title="https://bo4e.github.io/BO4E-python/latest/api/bo4e.enum.html#bo4e.enum.messwertstatuszusatz.Messwertstatuszusatz" xlink:type="simple"><text fill="#0000FF" font-family="sans-serif" font-size="14" lengthAdjust="spacing" text-decoration="underline" textLength="156" x="887.5" y="361.0251">Messwertstatuszusatz</text></a><text fill="#000000" font-family="sans-serif" font-size="10" lengthAdjust="spacing" textLength="167" x="882" y="373.6091">bo4e.enum.messwertstatuszusatz</text></g><!--class Zeitreihenwert--><g id="elem_Zeitreihenwert"><rect codeLine="3" fill="#F1F1F1" height="78.5313" id="Zeitreihenwert" rx="2.5" ry="2.5" style="stroke:#181818;stroke-width:0.5;" width="676" x="7" y="216.73"/><ellipse cx="280.75" cy="235.6988" fill="#ADD1B2" rx="11" ry="11" style="stroke:#181818;stroke-width:1.0;"/><path d="M283.7188,241.3394 Q283.1406,241.6363 282.5,241.7769 Q281.8594,241.9331 281.1563,241.9331 Q278.6563,241.9331 277.3281,240.2925 Q276.0156,238.6363 276.0156,235.5113 Q276.0156,232.3863 277.3281,230.73 Q278.6563,229.0738 281.1563,229.0738 Q281.8594,229.0738 282.5,229.23 Q283.1563,229.3863 283.7188,229.6831 L283.7188,232.4019 Q283.0938,231.8238 282.5,231.5581 Q281.9063,231.2769 281.2813,231.2769 Q279.9375,231.2769 279.25,232.355 Q278.5625,233.4175 278.5625,235.5113 Q278.5625,237.605 279.25,238.6831 Q279.9375,239.7456 281.2813,239.7456 Q281.9063,239.7456 282.5,239.48 Q283.0938,239.1988 283.7188,238.6206 L283.7188,241.3394 Z " fill="#000000"/><a href="https://bo4e.github.io/BO4E-python/latest/api/bo4e.com.html#bo4e.com.zeitreihenwert.Zeitreihenwert" target="_top" title="https://bo4e.github.io/BO4E-python/latest/api/bo4e.com.html#bo4e.com.zeitreihenwert.Zeitreihenwert" xlink:actuate="onRequest" xlink:href="https://bo4e.github.io/BO4E-python/latest/api/bo4e.com.html#bo4e.com.zeitreihenwert.Zeitreihenwert" xlink:show="new" xlink:title="https://bo4e.github.io/BO4E-python/latest/api/bo4e.com.html#bo4e.com.zeitreihenwert.Zeitreihenwert" xlink:type="simple"><text fill="#0000FF" font-family="sans-serif" font-size="14" lengthAdjust="spacing" text-decoration="underline" textLength="101" x="310.75" y="234.7251">Zeitreihenwert</text></a><text fill="#000000" font-family="sans-serif" font-size="10" lengthAdjust="spacing" textLength="120" x="301.25" y="247.3091">bo4e.com.zeitreihenwert</text><line style="stroke:#181818;stroke-width:0.5;" x1="8" x2="682" y1="254.6675" y2="254.6675"/><text fill="#000000" font-family="sans-serif" font-size="14" lengthAdjust="spacing" textLength="664" x="13" y="271.6626">_typ : Literal[&lt;ComTyp.ZEITREIHENWERT: 'ZEITREIHENWERT'&gt;] [1] = ComTyp.ZEITREIHENWERT</text><text fill="#000000" font-family="sans-serif" font-size="14" lengthAdjust="spacing" textLength="195" x="13" y="287.9595">wert : Decimal [0..1] = None</text></g><!--link Zeitreihenwert to COM--><g id="link_Zeitreihenwert_COM"><path codeLine="17" d="M646.98,216.23 C744.62,203.33 824.6752,192.7586 882.1752,185.1586 " fill="none" id="Zeitreihenwert-to-COM" style="stroke:#181818;stroke-width:1.0;"/><polygon fill="none" points="900.02,182.8,881.389,179.2104,882.9614,191.1069,900.02,182.8" style="stroke:#181818;stroke-width:1.0;"/></g><!--link Zeitreihenwert to Zeitraum--><g id="link_Zeitreihenwert_Zeitraum"><path codeLine="18" d="M503.2,216.27 C591.83,193.86 704.59,165.37 805,140 C832.6,133.03 851.4857,128.2599 877.4857,121.6899 " fill="none" id="Zeitreihenwert-to-Zeitraum" style="stroke:#181818;stroke-width:1.0;"/><polygon fill="#181818" points="889.12,118.75,882.3229,116.3418,877.4857,121.6899,884.2828,124.0981,889.12,118.75" style="stroke:#181818;stroke-width:1.0;"/><text fill="#000000" font-family="sans-serif" font-size="13" lengthAdjust="spacing" textLength="57" x="726.5" y="140.0669">zeitraum</text><text fill="#000000" font-family="sans-serif" font-size="13" lengthAdjust="spacing" textLength="24" x="857.3464" y="133.2215">0..1</text></g><!--link Zeitreihenwert to Messwertstatus--><g id="link_Zeitreihenwert_Messwertstatus"><path codeLine="19" d="M683.27,274.38 C752.11,278.13 806.5578,281.0967 856.0778,283.7967 " fill="none" id="Zeitreihenwert-to-Messwertstatus" style="stroke:#181818;stroke-width:1.0;"/><polygon fill="#181818" points="868.06,284.45,862.2867,280.1293,856.0778,283.7967,861.8511,288.1174,868.06,284.45" style="stroke:#181818;stroke-width:1.0;"/><text fill="#000000" font-family="sans-serif" font-size="13" lengthAdjust="spacing" textLength="40" x="735" y="273.0669">status</text><text fill="#000000" font-family="sans-serif" font-size="13" lengthAdjust="spacing" textLength="24" x="836.3749" y="296.7574">0..1</text></g><!--link Zeitreihenwert to Messwertstatuszusatz--><g id="link_Zeitreihenwert_Messwertstatuszusatz"><path codeLine="20" d="M572.76,295.7 C669.28,312.59 765.0097,329.3509 840.7597,342.6109 " fill="none" id="Zeitreihenwert-to-Messwertstatuszusatz" style="stroke:#181818;stroke-width:1.0;"/><polygon fill="#181818" points="852.58,344.68,847.3596,339.7053,840.7597,342.6109,845.9802,347.5855,852.58,344.68" style="stroke:#181818;stroke-width:1.0;"/><text fill="#000000" font-family="sans-serif" font-size="13" lengthAdjust="spacing" textLength="82" x="714" y="318.0669">statuszusatz</text><text fill="#000000" font-family="sans-serif" font-size="13" lengthAdjust="spacing" textLength="24" x="821.0604" y="356.0917">0..1</text></g><!--SRC=[jLJRIiD047rsls9e7mIXIOiNIgW5hG45Bo05eJ78DXtDGf8DsGdIgl_k9cbQ4-C5QnyMzkoUcPmvCvi07mb8GYAUV8APID0Z8IF6l80h1It7yObYPPdcL1wWyIJ8JwU6aERfpO7TYUVaoyWCEA4YayUYO7aoD7mAW_OABL1GWiB7w1aJCYOL25NeklVHG8a5Mhtky8iCBU2g5WOlREU1vZ5OS2a84nuuWv4Cn_FOcDWNurlxujo-lhDlnnRiLWzsXouuFHUEeP7FTlBq5foX9q8UWDCrZ9n-BIDaRun5F4GLSmytz0jAvBfvWIM4jjqzwH-DiXAtq1UUXaL7z0RApJTTqBTh_pNuRr7P6jrSWLxDAlJA1MY2jdzJzp5AFzgVmO_-PnZQivwtVzZVj06hJxNNK8jNsO0fufGguwe2eGe_sz6G8fTUZTkswaMgE2rgsej3Q3hyLHq5jQ6QuY9xUFKVIQVpEbozcco6FZ4qPGzQsGDkhOchuRUW7F2V0tF5jMvPiFJxBz5BlyeSoogPBsO88OPJJ1HJldo6Ul97WS5ClGC0]--></g></svg>