<svg xmlns="http://www.w3.org/2000/svg" xmlns:xlink="http://www.w3.org/1999/xlink" contentStyleType="text/css" data-diagram-type="CLASS" height="181px" preserveAspectRatio="none" style="width:758px;height:181px;background:#FFFFFF;" version="1.1" viewBox="0 0 758 181" width="758px" zoomAndPan="magnify"><defs/><g><!--cluster bo4e--><g class="cluster" data-entity="bo4e" data-source-line="13" data-uid="ent0005" id="cluster_bo4e"><path d="M567.5,6 L607.376,6 A3.75,3.75 0 0 1 609.876,8.5 L616.876,28.2969 L748.56,28.2969 A2.5,2.5 0 0 1 751.06,30.7969 L751.06,159.5 A2.5,2.5 0 0 1 748.56,162 L567.5,162 A2.5,2.5 0 0 1 565,159.5 L565,8.5 A2.5,2.5 0 0 1 567.5,6" fill="none" style="stroke:#000000;stroke-width:1.5;"/><line style="stroke:#000000;stroke-width:1.5;" x1="565" x2="616.876" y1="28.2969" y2="28.2969"/><text fill="#000000" font-family="sans-serif" font-size="14" font-weight="bold" lengthAdjust="spacing" textLength="38.876" x="569" y="20.9951">bo4e</text></g><!--cluster com--><g class="cluster" data-entity="com" data-source-line="12" data-uid="ent0003" id="cluster_com"><path d="M591.5,49 L669.1992,49 A3.75,3.75 0 0 1 671.6992,51.5 L678.6992,71.2969 L724.56,71.2969 A2.5,2.5 0 0 1 727.06,73.7969 L727.06,135.5 A2.5,2.5 0 0 1 724.56,138 L591.5,138 A2.5,2.5 0 0 1 589,135.5 L589,51.5 A2.5,2.5 0 0 1 591.5,49" fill="#E0A86C" style="stroke:#000000;stroke-width:1.5;"/><line style="stroke:#000000;stroke-width:1.5;" x1="589" x2="678.6992" y1="71.2969" y2="71.2969"/><a href="file:////home/runner/work/BO4E-python/BO4E-python/docs/../.tox/docs/tmp/html/api/bo4e.com.html" target="_top" title="file:////home/runner/work/BO4E-python/BO4E-python/docs/../.tox/docs/tmp/html/api/bo4e.com.html" xlink:actuate="onRequest" xlink:href="file:////home/runner/work/BO4E-python/BO4E-python/docs/../.tox/docs/tmp/html/api/bo4e.com.html" xlink:show="new" xlink:title="file:////home/runner/work/BO4E-python/BO4E-python/docs/../.tox/docs/tmp/html/api/bo4e.com.html" xlink:type="simple"><text fill="#0000FF" font-family="sans-serif" font-size="14" font-weight="bold" lengthAdjust="spacing" text-decoration="underline" textLength="76.6992" x="593" y="63.9951">bo4e.com</text></a></g><!--class COM--><g class="entity" data-entity="COM" data-source-line="13" data-uid="ent0004" id="entity_COM"><rect fill="#F1F1F1" height="37.9375" rx="2.5" ry="2.5" style="stroke:#181818;stroke-width:0.5;" width="106.0527" x="605" y="84.03"/><ellipse cx="620" cy="102.9988" fill="#ADD1B2" rx="11" ry="11" style="stroke:#181818;stroke-width:1;"/><path d="M622.9688,108.6394 Q622.3906,108.9363 621.75,109.0769 Q621.1094,109.2331 620.4063,109.2331 Q617.9063,109.2331 616.5781,107.5925 Q615.2656,105.9363 615.2656,102.8113 Q615.2656,99.6863 616.5781,98.03 Q617.9063,96.3738 620.4063,96.3738 Q621.1094,96.3738 621.75,96.53 Q622.4063,96.6863 622.9688,96.9831 L622.9688,99.7019 Q622.3438,99.1238 621.75,98.8581 Q621.1563,98.5769 620.5313,98.5769 Q619.1875,98.5769 618.5,99.655 Q617.8125,100.7175 617.8125,102.8113 Q617.8125,104.905 618.5,105.9831 Q619.1875,107.0456 620.5313,107.0456 Q621.1563,107.0456 621.75,106.78 Q622.3438,106.4988 622.9688,105.9206 L622.9688,108.6394 Z " fill="#000000"/><a href="file:////home/runner/work/BO4E-python/BO4E-python/docs/../.tox/docs/tmp/html/api/bo4e.com.html#bo4e.com.com.COM" target="_top" title="file:////home/runner/work/BO4E-python/BO4E-python/docs/../.tox/docs/tmp/html/api/bo4e.com.html#bo4e.com.com.COM" xlink:actuate="onRequest" xlink:href="file:////home/runner/work/BO4E-python/BO4E-python/docs/../.tox/docs/tmp/html/api/bo4e.com.html#bo4e.com.com.COM" xlink:show="new" xlink:title="file:////home/runner/work/BO4E-python/BO4E-python/docs/../.tox/docs/tmp/html/api/bo4e.com.html#bo4e.com.com.COM" xlink:type="simple"><text fill="#0000FF" font-family="sans-serif" font-size="14" lengthAdjust="spacing" text-decoration="underline" textLength="32.874" x="654.5894" y="102.0251">COM</text></a><text fill="#000000" font-family="sans-serif" font-size="10" lengthAdjust="spacing" textLength="74.0527" x="634" y="114.6091">bo4e.com.com</text></g><!--class Zeitraum--><g class="entity" data-entity="Zeitraum" data-source-line="3" data-uid="ent0002" id="entity_Zeitraum"><rect fill="#F1F1F1" height="143.7188" rx="2.5" ry="2.5" style="stroke:#181818;stroke-width:0.5;" width="538.0049" x="7" y="31.14"/><ellipse cx="223.1953" cy="50.1087" fill="#ADD1B2" rx="11" ry="11" style="stroke:#181818;stroke-width:1;"/><path d="M226.1641,55.7494 Q225.5859,56.0462 224.9453,56.1869 Q224.3047,56.3431 223.6016,56.3431 Q221.1016,56.3431 219.7734,54.7025 Q218.4609,53.0462 218.4609,49.9212 Q218.4609,46.7962 219.7734,45.14 Q221.1016,43.4837 223.6016,43.4837 Q224.3047,43.4837 224.9453,43.64 Q225.6016,43.7962 226.1641,44.0931 L226.1641,46.8119 Q225.5391,46.2337 224.9453,45.9681 Q224.3516,45.6869 223.7266,45.6869 Q222.3828,45.6869 221.6953,46.765 Q221.0078,47.8275 221.0078,49.9212 Q221.0078,52.015 221.6953,53.0931 Q222.3828,54.1556 223.7266,54.1556 Q224.3516,54.1556 224.9453,53.89 Q225.5391,53.6087 226.1641,53.0306 L226.1641,55.7494 Z " fill="#000000"/><a href="file:////home/runner/work/BO4E-python/BO4E-python/docs/../.tox/docs/tmp/html/api/bo4e.com.html#bo4e.com.zeitraum.Zeitraum" target="_top" title="file:////home/runner/work/BO4E-python/BO4E-python/docs/../.tox/docs/tmp/html/api/bo4e.com.html#bo4e.com.zeitraum.Zeitraum" xlink:actuate="onRequest" xlink:href="file:////home/runner/work/BO4E-python/BO4E-python/docs/../.tox/docs/tmp/html/api/bo4e.com.html#bo4e.com.zeitraum.Zeitraum" xlink:show="new" xlink:title="file:////home/runner/work/BO4E-python/BO4E-python/docs/../.tox/docs/tmp/html/api/bo4e.com.html#bo4e.com.zeitraum.Zeitraum" xlink:type="simple"><text fill="#0000FF" font-family="sans-serif" font-size="14" lengthAdjust="spacing" text-decoration="underline" textLength="64.4287" x="260.0381" y="49.1351">Zeitraum</text></a><text fill="#000000" font-family="sans-serif" font-size="10" lengthAdjust="spacing" textLength="97.1143" x="243.6953" y="61.7191">bo4e.com.zeitraum</text><line style="stroke:#181818;stroke-width:0.5;" x1="8" x2="544.0049" y1="69.0775" y2="69.0775"/><text fill="#000000" font-family="sans-serif" font-size="14" lengthAdjust="spacing" textLength="526.0049" x="13" y="86.0726">_typ : Literal[&lt;ComTyp.ZEITRAUM: 'ZEITRAUM'&gt;] [1] = ComTyp.ZEITRAUM</text><text fill="#000000" font-family="sans-serif" font-size="14" lengthAdjust="spacing" textLength="222.5029" x="13" y="102.3695">startdatum : date [0..1] = None</text><text fill="#000000" font-family="sans-serif" font-size="14" lengthAdjust="spacing" textLength="216.2686" x="13" y="118.6664">enddatum : date [0..1] = None</text><text fill="#000000" font-family="sans-serif" font-size="14" lengthAdjust="spacing" textLength="225.9414" x="13" y="134.9632">startuhrzeit : time [0..1] = None</text><text fill="#000000" font-family="sans-serif" font-size="14" lengthAdjust="spacing" textLength="219.707" x="13" y="151.2601">enduhrzeit : time [0..1] = None</text><text fill="#000000" font-family="sans-serif" font-size="14" lengthAdjust="spacing" textLength="172.1084" x="13" y="167.557">dauer : str [0..1] = None</text></g><!--link Zeitraum to COM--><g class="link" data-entity-1="Zeitraum" data-entity-2="COM" data-source-line="16" data-uid="lnk6" id="link_Zeitraum_COM"><path codeLine="16" d="M545.32,103 C567.26,103 569.52,103 586.58,103" fill="none" id="Zeitraum-to-COM" style="stroke:#181818;stroke-width:1;"/><polygon fill="none" points="604.58,103,586.58,97,586.58,109,604.58,103" style="stroke:#181818;stroke-width:1;"/></g><!--SRC=[lP9HQy8m4CUVpQSuzC4d4mKPepZ1YG-3EM6u5xioOdkkOKrIaXEdsxxxscvLviItBN3aVxbVZilbCbmHa0MddbE2H3cCILd3M9n9xw4PXYkLOI2AbLgDmgsDGISsrhs8wrb_qictb5hpGoSsze9pmSc-VZcaSv6IpeJCbLZQFlBOQbwUjFRU3XKvkTPyyIsW5b7qQ0PUxJ3eTOU_-2P8lqVXZJMUQ9j30BUAqCai78ojdczplfZSpEz73zC0shLi3oC8Un5SmH736fwaeqHIaJA0OaS8kvnNx9qro1feadFXwluwTMML1K9Adyfm7aZa6bqHy-IEGX-C6QdHvpB6l_yZgBqegffTkz2QT4UN5-EowVy-BgMDPrCexFHy55PLMm1blmvZrUcy3_TlA7Cmbge4GQDUelFCftO31tobC4ly9m00]--></g></svg>