<?xml version="1.0" encoding="us-ascii" standalone="no"?><svg xmlns="http://www.w3.org/2000/svg" xmlns:xlink="http://www.w3.org/1999/xlink" contentStyleType="text/css" height="760px" preserveAspectRatio="none" style="width:1090px;height:760px;background:#FFFFFF;" version="1.1" viewBox="0 0 1090 760" width="1090px" zoomAndPan="magnify"><defs/><g><!--cluster bo4e--><g id="cluster_bo4e"><path d="M826.5,6 L867.5,6 A3.75,3.75 0 0 1 870,8.5 L877,28.2969 L1080.5,28.2969 A2.5,2.5 0 0 1 1083,30.7969 L1083,750.5 A2.5,2.5 0 0 1 1080.5,753 L826.5,753 A2.5,2.5 0 0 1 824,750.5 L824,8.5 A2.5,2.5 0 0 1 826.5,6 " fill="none" style="stroke:#000000;stroke-width:1.5;"/><line style="stroke:#000000;stroke-width:1.5;" x1="824" x2="877" y1="28.2969" y2="28.2969"/><text fill="#000000" font-family="sans-serif" font-size="14" font-weight="bold" lengthAdjust="spacing" textLength="40" x="828" y="20.9951">bo4e</text></g><!--cluster bo--><g id="cluster_bo"><path d="M858.5,49 L924.5,49 A3.75,3.75 0 0 1 927,51.5 L934,71.2969 L1048.5,71.2969 A2.5,2.5 0 0 1 1051,73.7969 L1051,281.5 A2.5,2.5 0 0 1 1048.5,284 L858.5,284 A2.5,2.5 0 0 1 856,281.5 L856,51.5 A2.5,2.5 0 0 1 858.5,49 " fill="#B6D7A8" style="stroke:#000000;stroke-width:1.5;"/><line style="stroke:#000000;stroke-width:1.5;" x1="856" x2="934" y1="71.2969" y2="71.2969"/><a href="https://bo4e.github.io/BO4E-python/v202401.6.0/api/bo4e.bo.html" target="_top" title="https://bo4e.github.io/BO4E-python/v202401.6.0/api/bo4e.bo.html" xlink:actuate="onRequest" xlink:href="https://bo4e.github.io/BO4E-python/v202401.6.0/api/bo4e.bo.html" xlink:show="new" xlink:title="https://bo4e.github.io/BO4E-python/v202401.6.0/api/bo4e.bo.html" xlink:type="simple"><text fill="#0000FF" font-family="sans-serif" font-size="14" font-weight="bold" lengthAdjust="spacing" text-decoration="underline" textLength="65" x="860" y="63.9951">bo4e.bo</text></a></g><!--cluster com--><g id="cluster_com"><path d="M850.5,308 L929.5,308 A3.75,3.75 0 0 1 932,310.5 L939,330.2969 L1056.5,330.2969 A2.5,2.5 0 0 1 1059,332.7969 L1059,467.5 A2.5,2.5 0 0 1 1056.5,470 L850.5,470 A2.5,2.5 0 0 1 848,467.5 L848,310.5 A2.5,2.5 0 0 1 850.5,308 " fill="#E0A86C" style="stroke:#000000;stroke-width:1.5;"/><line style="stroke:#000000;stroke-width:1.5;" x1="848" x2="939" y1="330.2969" y2="330.2969"/><a href="https://bo4e.github.io/BO4E-python/v202401.6.0/api/bo4e.com.html" target="_top" title="https://bo4e.github.io/BO4E-python/v202401.6.0/api/bo4e.com.html" xlink:actuate="onRequest" xlink:href="https://bo4e.github.io/BO4E-python/v202401.6.0/api/bo4e.com.html" xlink:show="new" xlink:title="https://bo4e.github.io/BO4E-python/v202401.6.0/api/bo4e.com.html" xlink:type="simple"><text fill="#0000FF" font-family="sans-serif" font-size="14" font-weight="bold" lengthAdjust="spacing" text-decoration="underline" textLength="78" x="852" y="322.9951">bo4e.com</text></a></g><!--cluster enum--><g id="cluster_enum"><path d="M859.5,494 L949.5,494 A3.75,3.75 0 0 1 952,496.5 L959,516.2969 L1047.5,516.2969 A2.5,2.5 0 0 1 1050,518.7969 L1050,726.5 A2.5,2.5 0 0 1 1047.5,729 L859.5,729 A2.5,2.5 0 0 1 857,726.5 L857,496.5 A2.5,2.5 0 0 1 859.5,494 " fill="#D1C358" style="stroke:#000000;stroke-width:1.5;"/><line style="stroke:#000000;stroke-width:1.5;" x1="857" x2="959" y1="516.2969" y2="516.2969"/><a href="https://bo4e.github.io/BO4E-python/v202401.6.0/api/bo4e.enum.html" target="_top" title="https://bo4e.github.io/BO4E-python/v202401.6.0/api/bo4e.enum.html" xlink:actuate="onRequest" xlink:href="https://bo4e.github.io/BO4E-python/v202401.6.0/api/bo4e.enum.html" xlink:show="new" xlink:title="https://bo4e.github.io/BO4E-python/v202401.6.0/api/bo4e.enum.html" xlink:type="simple"><text fill="#0000FF" font-family="sans-serif" font-size="14" font-weight="bold" lengthAdjust="spacing" text-decoration="underline" textLength="89" x="861" y="508.9951">bo4e.enum</text></a></g><!--class Vertrag--><g id="elem_Vertrag"><rect codeLine="12" fill="#F1F1F1" height="37.9375" id="Vertrag" rx="2.5" ry="2.5" style="stroke:#181818;stroke-width:0.5;" width="110" x="898.5" y="84.03"/><ellipse cx="913.5" cy="102.9987" fill="#ADD1B2" rx="11" ry="11" style="stroke:#181818;stroke-width:1.0;"/><path d="M916.4688,108.6394 Q915.8906,108.9362 915.25,109.0769 Q914.6094,109.2331 913.9063,109.2331 Q911.4063,109.2331 910.0781,107.5925 Q908.7656,105.9362 908.7656,102.8112 Q908.7656,99.6862 910.0781,98.03 Q911.4063,96.3737 913.9063,96.3737 Q914.6094,96.3737 915.25,96.53 Q915.9063,96.6862 916.4688,96.9831 L916.4688,99.7019 Q915.8438,99.1237 915.25,98.8581 Q914.6563,98.5769 914.0313,98.5769 Q912.6875,98.5769 912,99.655 Q911.3125,100.7175 911.3125,102.8112 Q911.3125,104.905 912,105.9831 Q912.6875,107.0456 914.0313,107.0456 Q914.6563,107.0456 915.25,106.78 Q915.8438,106.4987 916.4688,105.9206 L916.4688,108.6394 Z " fill="#000000"/><a href="https://bo4e.github.io/BO4E-python/v202401.6.0/api/bo4e.bo.html#bo4e.bo.vertrag.Vertrag" target="_top" title="https://bo4e.github.io/BO4E-python/v202401.6.0/api/bo4e.bo.html#bo4e.bo.vertrag.Vertrag" xlink:actuate="onRequest" xlink:href="https://bo4e.github.io/BO4E-python/v202401.6.0/api/bo4e.bo.html#bo4e.bo.vertrag.Vertrag" xlink:show="new" xlink:title="https://bo4e.github.io/BO4E-python/v202401.6.0/api/bo4e.bo.html#bo4e.bo.vertrag.Vertrag" xlink:type="simple"><text fill="#0000FF" font-family="sans-serif" font-size="14" lengthAdjust="spacing" text-decoration="underline" textLength="50" x="941.5" y="102.0251">Vertrag</text></a><text fill="#000000" font-family="sans-serif" font-size="10" lengthAdjust="spacing" textLength="78" x="927.5" y="114.6091">bo4e.bo.vertrag</text></g><!--class Geschaeftspartner--><g id="elem_Geschaeftspartner"><rect codeLine="13" fill="#F1F1F1" height="37.9375" id="Geschaeftspartner" rx="2.5" ry="2.5" style="stroke:#181818;stroke-width:0.5;" width="163" x="872" y="157.03"/><ellipse cx="887" cy="175.9987" fill="#ADD1B2" rx="11" ry="11" style="stroke:#181818;stroke-width:1.0;"/><path d="M889.9688,181.6394 Q889.3906,181.9362 888.75,182.0769 Q888.1094,182.2331 887.4063,182.2331 Q884.9063,182.2331 883.5781,180.5925 Q882.2656,178.9362 882.2656,175.8112 Q882.2656,172.6862 883.5781,171.03 Q884.9063,169.3737 887.4063,169.3737 Q888.1094,169.3737 888.75,169.53 Q889.4063,169.6862 889.9688,169.9831 L889.9688,172.7019 Q889.3438,172.1237 888.75,171.8581 Q888.1563,171.5769 887.5313,171.5769 Q886.1875,171.5769 885.5,172.655 Q884.8125,173.7175 884.8125,175.8112 Q884.8125,177.905 885.5,178.9831 Q886.1875,180.0456 887.5313,180.0456 Q888.1563,180.0456 888.75,179.78 Q889.3438,179.4987 889.9688,178.9206 L889.9688,181.6394 Z " fill="#000000"/><a href="https://bo4e.github.io/BO4E-python/v202401.6.0/api/bo4e.bo.html#bo4e.bo.geschaeftspartner.Geschaeftspartner" target="_top" title="https://bo4e.github.io/BO4E-python/v202401.6.0/api/bo4e.bo.html#bo4e.bo.geschaeftspartner.Geschaeftspartner" xlink:actuate="onRequest" xlink:href="https://bo4e.github.io/BO4E-python/v202401.6.0/api/bo4e.bo.html#bo4e.bo.geschaeftspartner.Geschaeftspartner" xlink:show="new" xlink:title="https://bo4e.github.io/BO4E-python/v202401.6.0/api/bo4e.bo.html#bo4e.bo.geschaeftspartner.Geschaeftspartner" xlink:type="simple"><text fill="#0000FF" font-family="sans-serif" font-size="14" lengthAdjust="spacing" text-decoration="underline" textLength="129" x="902" y="175.0251">Geschaeftspartner</text></a><text fill="#000000" font-family="sans-serif" font-size="10" lengthAdjust="spacing" textLength="131" x="901" y="187.6091">bo4e.bo.geschaeftspartner</text></g><!--class Geschaeftsobjekt--><g id="elem_Geschaeftsobjekt"><rect codeLine="14" fill="#F1F1F1" height="37.9375" id="Geschaeftsobjekt" rx="2.5" ry="2.5" style="stroke:#181818;stroke-width:0.5;" width="156" x="875.5" y="230.03"/><ellipse cx="890.5" cy="248.9987" fill="#ADD1B2" rx="11" ry="11" style="stroke:#181818;stroke-width:1.0;"/><path d="M893.4688,254.6394 Q892.8906,254.9362 892.25,255.0769 Q891.6094,255.2331 890.9063,255.2331 Q888.4063,255.2331 887.0781,253.5925 Q885.7656,251.9362 885.7656,248.8112 Q885.7656,245.6862 887.0781,244.03 Q888.4063,242.3737 890.9063,242.3737 Q891.6094,242.3737 892.25,242.53 Q892.9063,242.6862 893.4688,242.9831 L893.4688,245.7019 Q892.8438,245.1237 892.25,244.8581 Q891.6563,244.5769 891.0313,244.5769 Q889.6875,244.5769 889,245.655 Q888.3125,246.7175 888.3125,248.8112 Q888.3125,250.905 889,251.9831 Q889.6875,253.0456 891.0313,253.0456 Q891.6563,253.0456 892.25,252.78 Q892.8438,252.4987 893.4688,251.9206 L893.4688,254.6394 Z " fill="#000000"/><a href="https://bo4e.github.io/BO4E-python/v202401.6.0/api/bo4e.bo.html#bo4e.bo.geschaeftsobjekt.Geschaeftsobjekt" target="_top" title="https://bo4e.github.io/BO4E-python/v202401.6.0/api/bo4e.bo.html#bo4e.bo.geschaeftsobjekt.Geschaeftsobjekt" xlink:actuate="onRequest" xlink:href="https://bo4e.github.io/BO4E-python/v202401.6.0/api/bo4e.bo.html#bo4e.bo.geschaeftsobjekt.Geschaeftsobjekt" xlink:show="new" xlink:title="https://bo4e.github.io/BO4E-python/v202401.6.0/api/bo4e.bo.html#bo4e.bo.geschaeftsobjekt.Geschaeftsobjekt" xlink:type="simple"><text fill="#0000FF" font-family="sans-serif" font-size="14" lengthAdjust="spacing" text-decoration="underline" textLength="122" x="905.5" y="248.0251">Geschaeftsobjekt</text></a><text fill="#000000" font-family="sans-serif" font-size="10" lengthAdjust="spacing" textLength="124" x="904.5" y="260.6091">bo4e.bo.geschaeftsobjekt</text></g><!--class Unterschrift--><g id="elem_Unterschrift"><rect codeLine="17" fill="#F1F1F1" height="37.9375" id="Unterschrift" rx="2.5" ry="2.5" style="stroke:#181818;stroke-width:0.5;" width="139" x="884" y="343.03"/><ellipse cx="899" cy="361.9988" fill="#ADD1B2" rx="11" ry="11" style="stroke:#181818;stroke-width:1.0;"/><path d="M901.9688,367.6394 Q901.3906,367.9363 900.75,368.0769 Q900.1094,368.2331 899.4063,368.2331 Q896.9063,368.2331 895.5781,366.5925 Q894.2656,364.9363 894.2656,361.8113 Q894.2656,358.6863 895.5781,357.03 Q896.9063,355.3738 899.4063,355.3738 Q900.1094,355.3738 900.75,355.53 Q901.4063,355.6863 901.9688,355.9831 L901.9688,358.7019 Q901.3438,358.1238 900.75,357.8581 Q900.1563,357.5769 899.5313,357.5769 Q898.1875,357.5769 897.5,358.655 Q896.8125,359.7175 896.8125,361.8113 Q896.8125,363.905 897.5,364.9831 Q898.1875,366.0456 899.5313,366.0456 Q900.1563,366.0456 900.75,365.78 Q901.3438,365.4988 901.9688,364.9206 L901.9688,367.6394 Z " fill="#000000"/><a href="https://bo4e.github.io/BO4E-python/v202401.6.0/api/bo4e.com.html#bo4e.com.unterschrift.Unterschrift" target="_top" title="https://bo4e.github.io/BO4E-python/v202401.6.0/api/bo4e.com.html#bo4e.com.unterschrift.Unterschrift" xlink:actuate="onRequest" xlink:href="https://bo4e.github.io/BO4E-python/v202401.6.0/api/bo4e.com.html#bo4e.com.unterschrift.Unterschrift" xlink:show="new" xlink:title="https://bo4e.github.io/BO4E-python/v202401.6.0/api/bo4e.com.html#bo4e.com.unterschrift.Unterschrift" xlink:type="simple"><text fill="#0000FF" font-family="sans-serif" font-size="14" lengthAdjust="spacing" text-decoration="underline" textLength="80" x="926.5" y="361.0251">Unterschrift</text></a><text fill="#000000" font-family="sans-serif" font-size="10" lengthAdjust="spacing" textLength="107" x="913" y="373.6091">bo4e.com.unterschrift</text></g><!--class Vertragskonditionen--><g id="elem_Vertragskonditionen"><rect codeLine="18" fill="#F1F1F1" height="37.9375" id="Vertragskonditionen" rx="2.5" ry="2.5" style="stroke:#181818;stroke-width:0.5;" width="179" x="864" y="416.03"/><ellipse cx="879" cy="434.9988" fill="#ADD1B2" rx="11" ry="11" style="stroke:#181818;stroke-width:1.0;"/><path d="M881.9688,440.6394 Q881.3906,440.9363 880.75,441.0769 Q880.1094,441.2331 879.4063,441.2331 Q876.9063,441.2331 875.5781,439.5925 Q874.2656,437.9363 874.2656,434.8113 Q874.2656,431.6863 875.5781,430.03 Q876.9063,428.3738 879.4063,428.3738 Q880.1094,428.3738 880.75,428.53 Q881.4063,428.6863 881.9688,428.9831 L881.9688,431.7019 Q881.3438,431.1238 880.75,430.8581 Q880.1563,430.5769 879.5313,430.5769 Q878.1875,430.5769 877.5,431.655 Q876.8125,432.7175 876.8125,434.8113 Q876.8125,436.905 877.5,437.9831 Q878.1875,439.0456 879.5313,439.0456 Q880.1563,439.0456 880.75,438.78 Q881.3438,438.4988 881.9688,437.9206 L881.9688,440.6394 Z " fill="#000000"/><a href="https://bo4e.github.io/BO4E-python/v202401.6.0/api/bo4e.com.html#bo4e.com.vertragskonditionen.Vertragskonditionen" target="_top" title="https://bo4e.github.io/BO4E-python/v202401.6.0/api/bo4e.com.html#bo4e.com.vertragskonditionen.Vertragskonditionen" xlink:actuate="onRequest" xlink:href="https://bo4e.github.io/BO4E-python/v202401.6.0/api/bo4e.com.html#bo4e.com.vertragskonditionen.Vertragskonditionen" xlink:show="new" xlink:title="https://bo4e.github.io/BO4E-python/v202401.6.0/api/bo4e.com.html#bo4e.com.vertragskonditionen.Vertragskonditionen" xlink:type="simple"><text fill="#0000FF" font-family="sans-serif" font-size="14" lengthAdjust="spacing" text-decoration="underline" textLength="140" x="896.5" y="434.0251">Vertragskonditionen</text></a><text fill="#000000" font-family="sans-serif" font-size="10" lengthAdjust="spacing" textLength="147" x="893" y="446.6091">bo4e.com.vertragskonditionen</text></g><!--class Vertragsart--><g id="elem_Vertragsart"><rect codeLine="21" fill="#F1F1F1" height="37.9375" id="Vertragsart" rx="2.5" ry="2.5" style="stroke:#181818;stroke-width:0.5;" width="145" x="881" y="529.03"/><ellipse cx="896" cy="547.9988" fill="#ADD1B2" rx="11" ry="11" style="stroke:#181818;stroke-width:1.0;"/><path d="M898.9688,553.6394 Q898.3906,553.9363 897.75,554.0769 Q897.1094,554.2331 896.4063,554.2331 Q893.9063,554.2331 892.5781,552.5925 Q891.2656,550.9363 891.2656,547.8113 Q891.2656,544.6863 892.5781,543.03 Q893.9063,541.3738 896.4063,541.3738 Q897.1094,541.3738 897.75,541.53 Q898.4063,541.6863 898.9688,541.9831 L898.9688,544.7019 Q898.3438,544.1238 897.75,543.8581 Q897.1563,543.5769 896.5313,543.5769 Q895.1875,543.5769 894.5,544.655 Q893.8125,545.7175 893.8125,547.8113 Q893.8125,549.905 894.5,550.9831 Q895.1875,552.0456 896.5313,552.0456 Q897.1563,552.0456 897.75,551.78 Q898.3438,551.4988 898.9688,550.9206 L898.9688,553.6394 Z " fill="#000000"/><a href="https://bo4e.github.io/BO4E-python/v202401.6.0/api/bo4e.enum.html#bo4e.enum.vertragsart.Vertragsart" target="_top" title="https://bo4e.github.io/BO4E-python/v202401.6.0/api/bo4e.enum.html#bo4e.enum.vertragsart.Vertragsart" xlink:actuate="onRequest" xlink:href="https://bo4e.github.io/BO4E-python/v202401.6.0/api/bo4e.enum.html#bo4e.enum.vertragsart.Vertragsart" xlink:show="new" xlink:title="https://bo4e.github.io/BO4E-python/v202401.6.0/api/bo4e.enum.html#bo4e.enum.vertragsart.Vertragsart" xlink:type="simple"><text fill="#0000FF" font-family="sans-serif" font-size="14" lengthAdjust="spacing" text-decoration="underline" textLength="76" x="928.5" y="547.0251">Vertragsart</text></a><text fill="#000000" font-family="sans-serif" font-size="10" lengthAdjust="spacing" textLength="113" x="910" y="559.6091">bo4e.enum.vertragsart</text></g><!--class Vertragsstatus--><g id="elem_Vertragsstatus"><rect codeLine="22" fill="#F1F1F1" height="37.9375" id="Vertragsstatus" rx="2.5" ry="2.5" style="stroke:#181818;stroke-width:0.5;" width="161" x="873" y="602.03"/><ellipse cx="888" cy="620.9988" fill="#ADD1B2" rx="11" ry="11" style="stroke:#181818;stroke-width:1.0;"/><path d="M890.9688,626.6394 Q890.3906,626.9363 889.75,627.0769 Q889.1094,627.2331 888.4063,627.2331 Q885.9063,627.2331 884.5781,625.5925 Q883.2656,623.9363 883.2656,620.8113 Q883.2656,617.6863 884.5781,616.03 Q885.9063,614.3738 888.4063,614.3738 Q889.1094,614.3738 889.75,614.53 Q890.4063,614.6863 890.9688,614.9831 L890.9688,617.7019 Q890.3438,617.1238 889.75,616.8581 Q889.1563,616.5769 888.5313,616.5769 Q887.1875,616.5769 886.5,617.655 Q885.8125,618.7175 885.8125,620.8113 Q885.8125,622.905 886.5,623.9831 Q887.1875,625.0456 888.5313,625.0456 Q889.1563,625.0456 889.75,624.78 Q890.3438,624.4988 890.9688,623.9206 L890.9688,626.6394 Z " fill="#000000"/><a href="https://bo4e.github.io/BO4E-python/v202401.6.0/api/bo4e.enum.html#bo4e.enum.vertragsstatus.Vertragsstatus" target="_top" title="https://bo4e.github.io/BO4E-python/v202401.6.0/api/bo4e.enum.html#bo4e.enum.vertragsstatus.Vertragsstatus" xlink:actuate="onRequest" xlink:href="https://bo4e.github.io/BO4E-python/v202401.6.0/api/bo4e.enum.html#bo4e.enum.vertragsstatus.Vertragsstatus" xlink:show="new" xlink:title="https://bo4e.github.io/BO4E-python/v202401.6.0/api/bo4e.enum.html#bo4e.enum.vertragsstatus.Vertragsstatus" xlink:type="simple"><text fill="#0000FF" font-family="sans-serif" font-size="14" lengthAdjust="spacing" text-decoration="underline" textLength="101" x="916" y="620.0251">Vertragsstatus</text></a><text fill="#000000" font-family="sans-serif" font-size="10" lengthAdjust="spacing" textLength="129" x="902" y="632.6091">bo4e.enum.vertragsstatus</text></g><!--class Sparte--><g id="elem_Sparte"><rect codeLine="23" fill="#F1F1F1" height="37.9375" id="Sparte" rx="2.5" ry="2.5" style="stroke:#181818;stroke-width:0.5;" width="121" x="893" y="675.03"/><ellipse cx="908" cy="693.9988" fill="#ADD1B2" rx="11" ry="11" style="stroke:#181818;stroke-width:1.0;"/><path d="M910.9688,699.6394 Q910.3906,699.9363 909.75,700.0769 Q909.1094,700.2331 908.4063,700.2331 Q905.9063,700.2331 904.5781,698.5925 Q903.2656,696.9363 903.2656,693.8113 Q903.2656,690.6863 904.5781,689.03 Q905.9063,687.3738 908.4063,687.3738 Q909.1094,687.3738 909.75,687.53 Q910.4063,687.6863 910.9688,687.9831 L910.9688,690.7019 Q910.3438,690.1238 909.75,689.8581 Q909.1563,689.5769 908.5313,689.5769 Q907.1875,689.5769 906.5,690.655 Q905.8125,691.7175 905.8125,693.8113 Q905.8125,695.905 906.5,696.9831 Q907.1875,698.0456 908.5313,698.0456 Q909.1563,698.0456 909.75,697.78 Q910.3438,697.4988 910.9688,696.9206 L910.9688,699.6394 Z " fill="#000000"/><a href="https://bo4e.github.io/BO4E-python/v202401.6.0/api/bo4e.enum.html#bo4e.enum.sparte.Sparte" target="_top" title="https://bo4e.github.io/BO4E-python/v202401.6.0/api/bo4e.enum.html#bo4e.enum.sparte.Sparte" xlink:actuate="onRequest" xlink:href="https://bo4e.github.io/BO4E-python/v202401.6.0/api/bo4e.enum.html#bo4e.enum.sparte.Sparte" xlink:show="new" xlink:title="https://bo4e.github.io/BO4E-python/v202401.6.0/api/bo4e.enum.html#bo4e.enum.sparte.Sparte" xlink:type="simple"><text fill="#0000FF" font-family="sans-serif" font-size="14" lengthAdjust="spacing" text-decoration="underline" textLength="45" x="944" y="693.0251">Sparte</text></a><text fill="#000000" font-family="sans-serif" font-size="10" lengthAdjust="spacing" textLength="89" x="922" y="705.6091">bo4e.enum.sparte</text></g><!--class Buendelvertrag--><g id="elem_Buendelvertrag"><rect codeLine="3" fill="#F1F1F1" height="127.4219" id="Buendelvertrag" rx="2.5" ry="2.5" style="stroke:#181818;stroke-width:0.5;" width="642" x="7" y="292.29"/><ellipse cx="265.75" cy="311.2588" fill="#ADD1B2" rx="11" ry="11" style="stroke:#181818;stroke-width:1.0;"/><path d="M268.7188,316.8994 Q268.1406,317.1963 267.5,317.3369 Q266.8594,317.4931 266.1563,317.4931 Q263.6563,317.4931 262.3281,315.8525 Q261.0156,314.1963 261.0156,311.0713 Q261.0156,307.9463 262.3281,306.29 Q263.6563,304.6338 266.1563,304.6338 Q266.8594,304.6338 267.5,304.79 Q268.1563,304.9463 268.7188,305.2431 L268.7188,307.9619 Q268.0938,307.3838 267.5,307.1181 Q266.9063,306.8369 266.2813,306.8369 Q264.9375,306.8369 264.25,307.915 Q263.5625,308.9775 263.5625,311.0713 Q263.5625,313.165 264.25,314.2431 Q264.9375,315.3056 266.2813,315.3056 Q266.9063,315.3056 267.5,315.04 Q268.0938,314.7588 268.7188,314.1806 L268.7188,316.8994 Z " fill="#000000"/><a href="https://bo4e.github.io/BO4E-python/v202401.6.0/api/bo4e.bo.html#bo4e.bo.buendelvertrag.Buendelvertrag" target="_top" title="https://bo4e.github.io/BO4E-python/v202401.6.0/api/bo4e.bo.html#bo4e.bo.buendelvertrag.Buendelvertrag" xlink:actuate="onRequest" xlink:href="https://bo4e.github.io/BO4E-python/v202401.6.0/api/bo4e.bo.html#bo4e.bo.buendelvertrag.Buendelvertrag" xlink:show="new" xlink:title="https://bo4e.github.io/BO4E-python/v202401.6.0/api/bo4e.bo.html#bo4e.bo.buendelvertrag.Buendelvertrag" xlink:type="simple"><text fill="#0000FF" font-family="sans-serif" font-size="14" lengthAdjust="spacing" text-decoration="underline" textLength="106" x="291.25" y="310.2851">Buendelvertrag</text></a><text fill="#000000" font-family="sans-serif" font-size="10" lengthAdjust="spacing" textLength="116" x="286.25" y="322.8691">bo4e.bo.buendelvertrag</text><line style="stroke:#181818;stroke-width:0.5;" x1="8" x2="648" y1="330.2275" y2="330.2275"/><text fill="#000000" font-family="sans-serif" font-size="14" lengthAdjust="spacing" textLength="630" x="13" y="347.2226">_typ : Literal[&lt;Typ.BUENDELVERTRAG: 'BUENDELVERTRAG'&gt;] [1] = Typ.BUENDELVERTRAG</text><text fill="#000000" font-family="sans-serif" font-size="14" lengthAdjust="spacing" textLength="242" x="13" y="363.5195">vertragsnummer : str [0..1] = None</text><text fill="#000000" font-family="sans-serif" font-size="14" lengthAdjust="spacing" textLength="319" x="13" y="379.8164">vertragsbeginn : AwareDatetime [0..1] = None</text><text fill="#000000" font-family="sans-serif" font-size="14" lengthAdjust="spacing" textLength="307" x="13" y="396.1132">vertragsende : AwareDatetime [0..1] = None</text><text fill="#000000" font-family="sans-serif" font-size="14" lengthAdjust="spacing" textLength="224" x="13" y="412.4101">beschreibung : str [0..1] = None</text></g><!--link Buendelvertrag to Geschaeftsobjekt--><g id="link_Buendelvertrag_Geschaeftsobjekt"><path codeLine="26" d="M649.43,301.01 C733.81,286.53 799.5998,275.247 857.5298,265.297 " fill="none" id="Buendelvertrag-to-Geschaeftsobjekt" style="stroke:#181818;stroke-width:1.0;"/><polygon fill="none" points="875.27,262.25,856.5141,259.3836,858.5455,271.2105,875.27,262.25" style="stroke:#181818;stroke-width:1.0;"/></g><!--link Buendelvertrag to Vertragsart--><g id="link_Buendelvertrag_Vertragsart"><path codeLine="27" d="M537.48,420.2 C660.5,458.08 796.2416,499.878 878.1316,525.098 " fill="none" id="Buendelvertrag-to-Vertragsart" style="stroke:#181818;stroke-width:1.0;"/><polygon fill="#181818" points="889.6,528.63,885.0431,523.0412,878.1316,525.098,882.6885,530.6868,889.6,528.63" style="stroke:#181818;stroke-width:1.0;"/><text fill="#000000" font-family="sans-serif" font-size="13" lengthAdjust="spacing" textLength="71" x="708" y="463.0669">vertragsart</text><text fill="#000000" font-family="sans-serif" font-size="13" lengthAdjust="spacing" textLength="24" x="848.9969" y="519.8339">0..1</text></g><!--link Buendelvertrag to Vertragsstatus--><g id="link_Buendelvertrag_Vertragsstatus"><path codeLine="28" d="M447.07,420.14 C543.89,470.54 685.71,539.45 816,584 C834.59,590.36 843.3168,593.1783 862.4368,598.4183 " fill="none" id="Buendelvertrag-to-Vertragsstatus" style="stroke:#181818;stroke-width:1.0;"/><polygon fill="#181818" points="874.01,601.59,869.2806,596.1464,862.4368,598.4183,867.1661,603.8619,874.01,601.59" style="stroke:#181818;stroke-width:1.0;"/><text fill="#000000" font-family="sans-serif" font-size="13" lengthAdjust="spacing" textLength="93" x="697" y="533.0669">vertragsstatus</text><text fill="#000000" font-family="sans-serif" font-size="13" lengthAdjust="spacing" textLength="24" x="841.004" y="596.0146">0..1</text></g><!--link Buendelvertrag to Sparte--><g id="link_Buendelvertrag_Sparte"><path codeLine="29" d="M406.53,419.99 C475.06,474.34 579.35,551.77 679,605 C736.45,635.68 754.05,636.9 816,657 C840.87,665.07 857.0647,669.7775 881.0547,676.0875 " fill="none" id="Buendelvertrag-to-Sparte" style="stroke:#181818;stroke-width:1.0;"/><polygon fill="#181818" points="892.66,679.14,887.8749,673.7453,881.0547,676.0875,885.8399,681.4822,892.66,679.14" style="stroke:#181818;stroke-width:1.0;"/><text fill="#000000" font-family="sans-serif" font-size="13" lengthAdjust="spacing" textLength="41" x="723" y="601.0669">sparte</text><text fill="#000000" font-family="sans-serif" font-size="13" lengthAdjust="spacing" textLength="24" x="861.1484" y="690.4549">0..1</text></g><!--link Buendelvertrag to Geschaeftspartner--><g id="link_Buendelvertrag_Geschaeftspartner"><path codeLine="30" d="M460.32,291.86 C524.8,262.91 604.47,230.83 679,211 C742.49,194.11 804.5612,186.2635 859.5712,181.6935 " fill="none" id="Buendelvertrag-to-Geschaeftspartner" style="stroke:#181818;stroke-width:1.0;"/><polygon fill="#181818" points="871.53,180.7,865.2194,177.2105,859.5712,181.6935,865.8818,185.183,871.53,180.7" style="stroke:#181818;stroke-width:1.0;"/><text fill="#000000" font-family="sans-serif" font-size="13" lengthAdjust="spacing" textLength="108" x="689.5" y="184.0669">vertragspartner1</text><text fill="#000000" font-family="sans-serif" font-size="13" lengthAdjust="spacing" textLength="24" x="840.0418" y="193.7445">0..1</text></g><!--link Buendelvertrag to Geschaeftspartner--><g id="link_Buendelvertrag_Geschaeftspartner"><path codeLine="31" d="M583.7,291.86 C615.78,283.81 648.15,275.7 679,268 C736.31,253.69 764.36,275.81 808,236 C816,228.71 808.08,220.38 816,213 C831.27,198.77 839.862,193.0645 860.012,187.5745 " fill="none" id="Buendelvertrag-to-Geschaeftspartner-1" style="stroke:#181818;stroke-width:1.0;"/><polygon fill="#181818" points="871.59,184.42,864.7495,182.1379,860.012,187.5745,866.8525,189.8566,871.59,184.42" style="stroke:#181818;stroke-width:1.0;"/><text fill="#000000" font-family="sans-serif" font-size="13" lengthAdjust="spacing" textLength="108" x="689.5" y="232.0669">vertragspartner2</text><text fill="#000000" font-family="sans-serif" font-size="13" lengthAdjust="spacing" textLength="24" x="840.1065" y="181.5656">0..1</text></g><!--link Buendelvertrag to Vertrag--><g id="link_Buendelvertrag_Vertrag"><path codeLine="32" d="M427.15,291.83 C495.36,249.79 589.7,196.61 679,163 C752.48,135.35 830.2358,120.5102 886.3858,111.9902 " fill="none" id="Buendelvertrag-to-Vertrag" style="stroke:#181818;stroke-width:1.0;"/><polygon fill="#181818" points="898.25,110.19,891.7178,107.1354,886.3858,111.9902,892.918,115.0448,898.25,110.19" style="stroke:#181818;stroke-width:1.0;"/><text fill="#000000" font-family="sans-serif" font-size="13" lengthAdjust="spacing" textLength="99" x="694" y="124.0669">einzelvertraege</text><text fill="#000000" font-family="sans-serif" font-size="13" lengthAdjust="spacing" textLength="23" x="867.532" y="123.9632">0..*</text></g><!--link Buendelvertrag to Vertragskonditionen--><g id="link_Buendelvertrag_Vertragskonditionen"><path codeLine="33" d="M649.26,411.23 C659.28,412.56 669.21,413.82 679,415 C740.45,422.41 798.0409,426.7414 851.6309,429.9114 " fill="none" id="Buendelvertrag-to-Vertragskonditionen" style="stroke:#181818;stroke-width:1.0;"/><polygon fill="#181818" points="863.61,430.62,857.8567,426.2727,851.6309,429.9114,857.3843,434.2587,863.61,430.62" style="stroke:#181818;stroke-width:1.0;"/><text fill="#000000" font-family="sans-serif" font-size="13" lengthAdjust="spacing" textLength="127" x="680" y="411.0669">vertragskonditionen</text><text fill="#000000" font-family="sans-serif" font-size="13" lengthAdjust="spacing" textLength="23" x="832.8473" y="442.9309">0..*</text></g><!--link Buendelvertrag to Unterschrift--><g id="link_Buendelvertrag_Unterschrift"><path codeLine="34" d="M649.43,359.08 C737.99,359.94 813.6206,360.6643 871.6906,361.2243 " fill="none" id="Buendelvertrag-to-Unterschrift" style="stroke:#181818;stroke-width:1.0;"/><polygon fill="#181818" points="883.69,361.34,877.7289,357.2823,871.6906,361.2243,877.6517,365.282,883.69,361.34" style="stroke:#181818;stroke-width:1.0;"/><text fill="#000000" font-family="sans-serif" font-size="13" lengthAdjust="spacing" textLength="111" x="688" y="356.0669">unterzeichnervp1</text><text fill="#000000" font-family="sans-serif" font-size="13" lengthAdjust="spacing" textLength="23" x="852.9401" y="374.0653">0..*</text></g><!--link Buendelvertrag to Unterschrift--><g id="link_Buendelvertrag_Unterschrift"><path codeLine="35" d="M649.27,388.91 C702.31,390.67 756.72,390.23 808,386 C832.84,383.95 848.0073,382.0055 871.8773,377.8555 " fill="none" id="Buendelvertrag-to-Unterschrift-1" style="stroke:#181818;stroke-width:1.0;"/><polygon fill="#181818" points="883.7,375.8,877.1035,372.8869,871.8773,377.8555,878.4738,380.7686,883.7,375.8" style="stroke:#181818;stroke-width:1.0;"/><text fill="#000000" font-family="sans-serif" font-size="13" lengthAdjust="spacing" textLength="111" x="688" y="382.0669">unterzeichnervp2</text><text fill="#000000" font-family="sans-serif" font-size="13" lengthAdjust="spacing" textLength="23" x="852.9511" y="389.9035">0..*</text></g><!--SRC=[jLRRRjf047sEls843v4YOJ2bDB9I92WeBr4gfGalrAfiCzZRs6lBkn11st_l-eRN5qegcIVxZCwCprnsrXvkEF008kAu7DOaGfkJW2gAxPcCGMUrSZaFcTxlMy48LOTmTskf9EZFleuMlN3FtO3sTyF1S3JGrB4ww9iXIQbMeBhSzxeviBP8r-ZjCEAHwQYp4eGoD8plz8wH0-hQOD8Se0CcgtZ1B-Ng1z-7eCC3uHYPtkhkUH-givV5utpni5myFJzDxtMuBXkk9mQiD0C-GvsiN6Mn6TtwFaOYDECHh0QgcdWy1XGBZeKEeLHmfczcX7EJ8oS-dcB7qiznBMIs6o6njjHf_FOVHQ6cZomqRMoXMv01mqZgco7epiRpJzFRkC2jpqK-4CkiYSj_Z83S-unt0KLEN7HJ70nHrOXJZDJxgWLgbaQzjKY9yfhlHNC8h9_uogKKKWDK3MSII4aL_QbH364hCsW7lZI40ibJA21q5uFfxVXBAsEOVwnxH5igTaPytCY6goyI01dKorJrJJJBBXTHcs-Hru2kIRooaUP7IBP1WwqvXOQ0yZcJxMqr7CLIbJeUGxdbCORkMhC_V6ndzHo_rorWdhOuYSVwYNUGtklrgdgM2YNmXRKoRl8jEyfD8PJX6T4fgQGxDLr8UhBgKFsMF21zd92OKXDfAI- -vAh_2xtUxqb-FTLsMuqjw3VGYI_EJZ5QfNRh8BNpF_sp-XSXiag-BqfM4d6vfycUzIebdDz7nSSpYzPMeE7fG3T5eFpsrW49FUHSTF2yTxnycZPNeKHUFUyALzhUEYJR-O34TaK-kr1h8yXGKLmYVk1yz2r1KvWRl44rxeQWjsP_0G00]--></g></svg>