<?xml version="1.0" encoding="us-ascii" standalone="no"?><svg xmlns="http://www.w3.org/2000/svg" xmlns:xlink="http://www.w3.org/1999/xlink" contentStyleType="text/css" height="428px" preserveAspectRatio="none" style="width:822px;height:428px;background:#FFFFFF;" version="1.1" viewBox="0 0 822 428" width="822px" zoomAndPan="magnify"><defs/><g><!--cluster bo4e--><g id="cluster_bo4e"><path d="M541.5,6 L582.5,6 A3.75,3.75 0 0 1 585,8.5 L592,28.2969 L812.5,28.2969 A2.5,2.5 0 0 1 815,30.7969 L815,418.5 A2.5,2.5 0 0 1 812.5,421 L541.5,421 A2.5,2.5 0 0 1 539,418.5 L539,8.5 A2.5,2.5 0 0 1 541.5,6 " fill="none" style="stroke:#000000;stroke-width:1.5;"/><line style="stroke:#000000;stroke-width:1.5;" x1="539" x2="592" y1="28.2969" y2="28.2969"/><text fill="#000000" font-family="sans-serif" font-size="14" font-weight="bold" lengthAdjust="spacing" textLength="40" x="543" y="20.9951">bo4e</text></g><!--cluster bo--><g id="cluster_bo"><path d="M604,49 L670,49 A3.75,3.75 0 0 1 672.5,51.5 L679.5,71.2969 L750,71.2969 A2.5,2.5 0 0 1 752.5,73.7969 L752.5,208.5 A2.5,2.5 0 0 1 750,211 L604,211 A2.5,2.5 0 0 1 601.5,208.5 L601.5,51.5 A2.5,2.5 0 0 1 604,49 " fill="#B6D7A8" style="stroke:#000000;stroke-width:1.5;"/><line style="stroke:#000000;stroke-width:1.5;" x1="601.5" x2="679.5" y1="71.2969" y2="71.2969"/><a href="https://bo4e.github.io/BO4E-python/v202401.6.0/api/bo4e.bo.html" target="_top" title="https://bo4e.github.io/BO4E-python/v202401.6.0/api/bo4e.bo.html" xlink:actuate="onRequest" xlink:href="https://bo4e.github.io/BO4E-python/v202401.6.0/api/bo4e.bo.html" xlink:show="new" xlink:title="https://bo4e.github.io/BO4E-python/v202401.6.0/api/bo4e.bo.html" xlink:type="simple"><text fill="#0000FF" font-family="sans-serif" font-size="14" font-weight="bold" lengthAdjust="spacing" text-decoration="underline" textLength="65" x="605.5" y="63.9951">bo4e.bo</text></a></g><!--cluster enum--><g id="cluster_enum"><path d="M565.5,235 L655.5,235 A3.75,3.75 0 0 1 658,237.5 L665,257.2969 L788.5,257.2969 A2.5,2.5 0 0 1 791,259.7969 L791,394.5 A2.5,2.5 0 0 1 788.5,397 L565.5,397 A2.5,2.5 0 0 1 563,394.5 L563,237.5 A2.5,2.5 0 0 1 565.5,235 " fill="#D1C358" style="stroke:#000000;stroke-width:1.5;"/><line style="stroke:#000000;stroke-width:1.5;" x1="563" x2="665" y1="257.2969" y2="257.2969"/><a href="https://bo4e.github.io/BO4E-python/v202401.6.0/api/bo4e.enum.html" target="_top" title="https://bo4e.github.io/BO4E-python/v202401.6.0/api/bo4e.enum.html" xlink:actuate="onRequest" xlink:href="https://bo4e.github.io/BO4E-python/v202401.6.0/api/bo4e.enum.html" xlink:show="new" xlink:title="https://bo4e.github.io/BO4E-python/v202401.6.0/api/bo4e.enum.html" xlink:type="simple"><text fill="#0000FF" font-family="sans-serif" font-size="14" font-weight="bold" lengthAdjust="spacing" text-decoration="underline" textLength="89" x="567" y="249.9951">bo4e.enum</text></a></g><!--class Geraet--><g id="elem_Geraet"><rect codeLine="10" fill="#F1F1F1" height="37.9375" id="Geraet" rx="2.5" ry="2.5" style="stroke:#181818;stroke-width:0.5;" width="106" x="624" y="84.03"/><ellipse cx="639" cy="102.9987" fill="#ADD1B2" rx="11" ry="11" style="stroke:#181818;stroke-width:1.0;"/><path d="M641.9688,108.6394 Q641.3906,108.9362 640.75,109.0769 Q640.1094,109.2331 639.4063,109.2331 Q636.9063,109.2331 635.5781,107.5925 Q634.2656,105.9362 634.2656,102.8112 Q634.2656,99.6862 635.5781,98.03 Q636.9063,96.3737 639.4063,96.3737 Q640.1094,96.3737 640.75,96.53 Q641.4063,96.6862 641.9688,96.9831 L641.9688,99.7019 Q641.3438,99.1237 640.75,98.8581 Q640.1563,98.5769 639.5313,98.5769 Q638.1875,98.5769 637.5,99.655 Q636.8125,100.7175 636.8125,102.8112 Q636.8125,104.905 637.5,105.9831 Q638.1875,107.0456 639.5313,107.0456 Q640.1563,107.0456 640.75,106.78 Q641.3438,106.4987 641.9688,105.9206 L641.9688,108.6394 Z " fill="#000000"/><a href="https://bo4e.github.io/BO4E-python/v202401.6.0/api/bo4e.bo.html#bo4e.bo.geraet.Geraet" target="_top" title="https://bo4e.github.io/BO4E-python/v202401.6.0/api/bo4e.bo.html#bo4e.bo.geraet.Geraet" xlink:actuate="onRequest" xlink:href="https://bo4e.github.io/BO4E-python/v202401.6.0/api/bo4e.bo.html#bo4e.bo.geraet.Geraet" xlink:show="new" xlink:title="https://bo4e.github.io/BO4E-python/v202401.6.0/api/bo4e.bo.html#bo4e.bo.geraet.Geraet" xlink:type="simple"><text fill="#0000FF" font-family="sans-serif" font-size="14" lengthAdjust="spacing" text-decoration="underline" textLength="47" x="666.5" y="102.0251">Geraet</text></a><text fill="#000000" font-family="sans-serif" font-size="10" lengthAdjust="spacing" textLength="74" x="653" y="114.6091">bo4e.bo.geraet</text></g><!--class Preisblatt--><g id="elem_Preisblatt"><rect codeLine="11" fill="#F1F1F1" height="37.9375" id="Preisblatt" rx="2.5" ry="2.5" style="stroke:#181818;stroke-width:0.5;" width="119" x="617.5" y="157.03"/><ellipse cx="632.5" cy="175.9987" fill="#ADD1B2" rx="11" ry="11" style="stroke:#181818;stroke-width:1.0;"/><path d="M635.4688,181.6394 Q634.8906,181.9362 634.25,182.0769 Q633.6094,182.2331 632.9063,182.2331 Q630.4063,182.2331 629.0781,180.5925 Q627.7656,178.9362 627.7656,175.8112 Q627.7656,172.6862 629.0781,171.03 Q630.4063,169.3737 632.9063,169.3737 Q633.6094,169.3737 634.25,169.53 Q634.9063,169.6862 635.4688,169.9831 L635.4688,172.7019 Q634.8438,172.1237 634.25,171.8581 Q633.6563,171.5769 633.0313,171.5769 Q631.6875,171.5769 631,172.655 Q630.3125,173.7175 630.3125,175.8112 Q630.3125,177.905 631,178.9831 Q631.6875,180.0456 633.0313,180.0456 Q633.6563,180.0456 634.25,179.78 Q634.8438,179.4987 635.4688,178.9206 L635.4688,181.6394 Z " fill="#000000"/><a href="https://bo4e.github.io/BO4E-python/v202401.6.0/api/bo4e.bo.html#bo4e.bo.preisblatt.Preisblatt" target="_top" title="https://bo4e.github.io/BO4E-python/v202401.6.0/api/bo4e.bo.html#bo4e.bo.preisblatt.Preisblatt" xlink:actuate="onRequest" xlink:href="https://bo4e.github.io/BO4E-python/v202401.6.0/api/bo4e.bo.html#bo4e.bo.preisblatt.Preisblatt" xlink:show="new" xlink:title="https://bo4e.github.io/BO4E-python/v202401.6.0/api/bo4e.bo.html#bo4e.bo.preisblatt.Preisblatt" xlink:type="simple"><text fill="#0000FF" font-family="sans-serif" font-size="14" lengthAdjust="spacing" text-decoration="underline" textLength="64" x="658" y="175.0251">Preisblatt</text></a><text fill="#000000" font-family="sans-serif" font-size="10" lengthAdjust="spacing" textLength="87" x="646.5" y="187.6091">bo4e.bo.preisblatt</text></g><!--class Bilanzierungsmethode--><g id="elem_Bilanzierungsmethode"><rect codeLine="14" fill="#F1F1F1" height="37.9375" id="Bilanzierungsmethode" rx="2.5" ry="2.5" style="stroke:#181818;stroke-width:0.5;" width="196" x="579" y="270.03"/><ellipse cx="594" cy="288.9988" fill="#ADD1B2" rx="11" ry="11" style="stroke:#181818;stroke-width:1.0;"/><path d="M596.9688,294.6394 Q596.3906,294.9363 595.75,295.0769 Q595.1094,295.2331 594.4063,295.2331 Q591.9063,295.2331 590.5781,293.5925 Q589.2656,291.9363 589.2656,288.8113 Q589.2656,285.6863 590.5781,284.03 Q591.9063,282.3738 594.4063,282.3738 Q595.1094,282.3738 595.75,282.53 Q596.4063,282.6863 596.9688,282.9831 L596.9688,285.7019 Q596.3438,285.1238 595.75,284.8581 Q595.1563,284.5769 594.5313,284.5769 Q593.1875,284.5769 592.5,285.655 Q591.8125,286.7175 591.8125,288.8113 Q591.8125,290.905 592.5,291.9831 Q593.1875,293.0456 594.5313,293.0456 Q595.1563,293.0456 595.75,292.78 Q596.3438,292.4988 596.9688,291.9206 L596.9688,294.6394 Z " fill="#000000"/><a href="https://bo4e.github.io/BO4E-python/v202401.6.0/api/bo4e.enum.html#bo4e.enum.bilanzierungsmethode.Bilanzierungsmethode" target="_top" title="https://bo4e.github.io/BO4E-python/v202401.6.0/api/bo4e.enum.html#bo4e.enum.bilanzierungsmethode.Bilanzierungsmethode" xlink:actuate="onRequest" xlink:href="https://bo4e.github.io/BO4E-python/v202401.6.0/api/bo4e.enum.html#bo4e.enum.bilanzierungsmethode.Bilanzierungsmethode" xlink:show="new" xlink:title="https://bo4e.github.io/BO4E-python/v202401.6.0/api/bo4e.enum.html#bo4e.enum.bilanzierungsmethode.Bilanzierungsmethode" xlink:type="simple"><text fill="#0000FF" font-family="sans-serif" font-size="14" lengthAdjust="spacing" text-decoration="underline" textLength="156" x="612" y="288.0251">Bilanzierungsmethode</text></a><text fill="#000000" font-family="sans-serif" font-size="10" lengthAdjust="spacing" textLength="164" x="608" y="300.6091">bo4e.enum.bilanzierungsmethode</text></g><!--class Dienstleistungstyp--><g id="elem_Dienstleistungstyp"><rect codeLine="15" fill="#F1F1F1" height="37.9375" id="Dienstleistungstyp" rx="2.5" ry="2.5" style="stroke:#181818;stroke-width:0.5;" width="177" x="588.5" y="343.03"/><ellipse cx="603.5" cy="361.9988" fill="#ADD1B2" rx="11" ry="11" style="stroke:#181818;stroke-width:1.0;"/><path d="M606.4688,367.6394 Q605.8906,367.9363 605.25,368.0769 Q604.6094,368.2331 603.9063,368.2331 Q601.4063,368.2331 600.0781,366.5925 Q598.7656,364.9363 598.7656,361.8113 Q598.7656,358.6863 600.0781,357.03 Q601.4063,355.3738 603.9063,355.3738 Q604.6094,355.3738 605.25,355.53 Q605.9063,355.6863 606.4688,355.9831 L606.4688,358.7019 Q605.8438,358.1238 605.25,357.8581 Q604.6563,357.5769 604.0313,357.5769 Q602.6875,357.5769 602,358.655 Q601.3125,359.7175 601.3125,361.8113 Q601.3125,363.905 602,364.9831 Q602.6875,366.0456 604.0313,366.0456 Q604.6563,366.0456 605.25,365.78 Q605.8438,365.4988 606.4688,364.9206 L606.4688,367.6394 Z " fill="#000000"/><a href="https://bo4e.github.io/BO4E-python/v202401.6.0/api/bo4e.enum.html#bo4e.enum.dienstleistungstyp.Dienstleistungstyp" target="_top" title="https://bo4e.github.io/BO4E-python/v202401.6.0/api/bo4e.enum.html#bo4e.enum.dienstleistungstyp.Dienstleistungstyp" xlink:actuate="onRequest" xlink:href="https://bo4e.github.io/BO4E-python/v202401.6.0/api/bo4e.enum.html#bo4e.enum.dienstleistungstyp.Dienstleistungstyp" xlink:show="new" xlink:title="https://bo4e.github.io/BO4E-python/v202401.6.0/api/bo4e.enum.html#bo4e.enum.dienstleistungstyp.Dienstleistungstyp" xlink:type="simple"><text fill="#0000FF" font-family="sans-serif" font-size="14" lengthAdjust="spacing" text-decoration="underline" textLength="129" x="625.5" y="361.0251">Dienstleistungstyp</text></a><text fill="#000000" font-family="sans-serif" font-size="10" lengthAdjust="spacing" textLength="145" x="617.5" y="373.6091">bo4e.enum.dienstleistungstyp</text></g><!--class PreisblattDienstleistung--><g id="elem_PreisblattDienstleistung"><rect codeLine="3" fill="#F1F1F1" height="94.8281" id="PreisblattDienstleistung" rx="2.5" ry="2.5" style="stroke:#181818;stroke-width:0.5;" width="323" x="7" y="200.59"/><ellipse cx="82.25" cy="219.5588" fill="#ADD1B2" rx="11" ry="11" style="stroke:#181818;stroke-width:1.0;"/><path d="M85.2188,225.1994 Q84.6406,225.4963 84,225.6369 Q83.3594,225.7931 82.6563,225.7931 Q80.1563,225.7931 78.8281,224.1525 Q77.5156,222.4963 77.5156,219.3713 Q77.5156,216.2463 78.8281,214.59 Q80.1563,212.9338 82.6563,212.9338 Q83.3594,212.9338 84,213.09 Q84.6563,213.2463 85.2188,213.5431 L85.2188,216.2619 Q84.5938,215.6838 84,215.4181 Q83.4063,215.1369 82.7813,215.1369 Q81.4375,215.1369 80.75,216.215 Q80.0625,217.2775 80.0625,219.3713 Q80.0625,221.465 80.75,222.5431 Q81.4375,223.6056 82.7813,223.6056 Q83.4063,223.6056 84,223.34 Q84.5938,223.0588 85.2188,222.4806 L85.2188,225.1994 Z " fill="#000000"/><a href="https://bo4e.github.io/BO4E-python/v202401.6.0/api/bo4e.bo.html#bo4e.bo.preisblattdienstleistung.PreisblattDienstleistung" target="_top" title="https://bo4e.github.io/BO4E-python/v202401.6.0/api/bo4e.bo.html#bo4e.bo.preisblattdienstleistung.PreisblattDienstleistung" xlink:actuate="onRequest" xlink:href="https://bo4e.github.io/BO4E-python/v202401.6.0/api/bo4e.bo.html#bo4e.bo.preisblattdienstleistung.PreisblattDienstleistung" xlink:show="new" xlink:title="https://bo4e.github.io/BO4E-python/v202401.6.0/api/bo4e.bo.html#bo4e.bo.preisblattdienstleistung.PreisblattDienstleistung" xlink:type="simple"><text fill="#0000FF" font-family="sans-serif" font-size="14" lengthAdjust="spacing" text-decoration="underline" textLength="164" x="102.75" y="218.5851">PreisblattDienstleistung</text></a><text fill="#000000" font-family="sans-serif" font-size="10" lengthAdjust="spacing" textLength="153" x="108.25" y="231.1691">bo4e.bo.preisblattdienstleistung</text><line style="stroke:#181818;stroke-width:0.5;" x1="8" x2="329" y1="238.5275" y2="238.5275"/><text fill="#000000" font-family="sans-serif" font-size="14" lengthAdjust="spacing" textLength="228" x="13" y="255.5226">_version : str [0..1] = 202401.6.0</text><text fill="#000000" font-family="sans-serif" font-size="14" lengthAdjust="spacing" textLength="311" x="13" y="271.8195">zusatzAttribute : ZusatzAttribut [0..*] = None</text><text fill="#000000" font-family="sans-serif" font-size="14" lengthAdjust="spacing" textLength="147" x="13" y="288.1164">_id : str [0..1] = None</text></g><!--link PreisblattDienstleistung to Preisblatt--><g id="link_PreisblattDienstleistung_Preisblatt"><path codeLine="18" d="M330.46,225.12 C428.22,211.22 529.4192,196.8338 599.1892,186.9138 " fill="none" id="PreisblattDienstleistung-to-Preisblatt" style="stroke:#181818;stroke-width:1.0;"/><polygon fill="none" points="617.01,184.38,598.3446,180.9735,600.0338,192.854,617.01,184.38" style="stroke:#181818;stroke-width:1.0;"/></g><!--link PreisblattDienstleistung to Bilanzierungsmethode--><g id="link_PreisblattDienstleistung_Bilanzierungsmethode"><path codeLine="19" d="M330.46,261.03 C412,267.63 496.3691,274.4624 566.5791,280.1424 " fill="none" id="PreisblattDienstleistung-to-Bilanzierungsmethode" style="stroke:#181818;stroke-width:1.0;"/><polygon fill="#181818" points="578.54,281.11,572.8821,276.6392,566.5791,280.1424,572.237,284.6132,578.54,281.11" style="stroke:#181818;stroke-width:1.0;"/><text fill="#000000" font-family="sans-serif" font-size="13" lengthAdjust="spacing" textLength="142" x="370.5" y="260.0669">bilanzierungsmethode</text><text fill="#000000" font-family="sans-serif" font-size="13" lengthAdjust="spacing" textLength="24" x="547.1185" y="293.1552">0..1</text></g><!--link PreisblattDienstleistung to Dienstleistungstyp--><g id="link_PreisblattDienstleistung_Dienstleistungstyp"><path codeLine="20" d="M330.36,293.74 C340.37,296.28 350.31,298.72 360,301 C436.55,319.01 512.6361,333.5446 576.2661,344.8846 " fill="none" id="PreisblattDienstleistung-to-Dienstleistungstyp" style="stroke:#181818;stroke-width:1.0;"/><polygon fill="#181818" points="588.08,346.99,582.8749,341.9993,576.2661,344.8846,581.4713,349.8752,588.08,346.99" style="stroke:#181818;stroke-width:1.0;"/><text fill="#000000" font-family="sans-serif" font-size="13" lengthAdjust="spacing" textLength="122" x="380.5" y="297.0669">basisdienstleistung</text><text fill="#000000" font-family="sans-serif" font-size="13" lengthAdjust="spacing" textLength="24" x="556.3533" y="358.4871">0..1</text></g><!--link PreisblattDienstleistung to Dienstleistungstyp--><g id="link_PreisblattDienstleistung_Dienstleistungstyp"><path codeLine="21" d="M232.28,295.77 C267.74,319.76 314.05,346.36 360,359 C434.98,379.63 511.85,379.3195 576.2,374.0495 " fill="none" id="PreisblattDienstleistung-to-Dienstleistungstyp-1" style="stroke:#181818;stroke-width:1.0;"/><polygon fill="#181818" points="588.16,373.07,581.8535,369.5731,576.2,374.0495,582.5065,377.5464,588.16,373.07" style="stroke:#181818;stroke-width:1.0;"/><text fill="#000000" font-family="sans-serif" font-size="13" lengthAdjust="spacing" textLength="161" x="361" y="355.0669">inklusiveDienstleistungen</text><text fill="#000000" font-family="sans-serif" font-size="13" lengthAdjust="spacing" textLength="23" x="557.4777" y="386.5638">0..*</text></g><!--link PreisblattDienstleistung to Geraet--><g id="link_PreisblattDienstleistung_Geraet"><path codeLine="22" d="M308.03,200.16 C325.46,194.52 343.11,189 360,184 C435.24,161.71 454.98,159.48 531,140 C561.7,132.13 584.4421,126.325 612.0121,119.295 " fill="none" id="PreisblattDienstleistung-to-Geraet" style="stroke:#181818;stroke-width:1.0;"/><polygon fill="#181818" points="623.64,116.33,616.8377,113.9365,612.0121,119.295,618.8144,121.6885,623.64,116.33" style="stroke:#181818;stroke-width:1.0;"/><text fill="#000000" font-family="sans-serif" font-size="13" lengthAdjust="spacing" textLength="92" x="395.5" y="139.0669">geraetedetails</text><text fill="#000000" font-family="sans-serif" font-size="13" lengthAdjust="spacing" textLength="24" x="592.0828" y="130.8132">0..1</text></g><!--SRC=[jLHDRvj043s7Np6oRvQyuDHDAzH6YkMgjxRdkgXQpCIC2WjY1bTns__U1PpO18WJoJcjvkljldcpa-2jW6HGq2OMYAZ0jL1c76UTQ6OOhLQnICw-wuRP7DM692v3HPcx-3h_DCtl9CwCkxtqBkVUJ5qfpzKvDQbXfc99a_6zaHT872PQ928qB8arfJGRzUqXi6m5O2WG13_C1wOT-ZFl-XJy23GF8i4Vv-Bd5WksbC47bW9MdbAp03x2WPDpiIjPo-v6fA2m5BIftrkUkcfILNt935fCYXx3rO5_ZcDqYfphDPwXjx0tWg1ckRTWlBXQlhjvNv4xkueRB3IA-bmVq1ozUZI9zRkQh5Tup47peo4w4ll4e3mQ3QlEMSH1KwP7ybJciK2L3UDejdxpzZmIFTmtFfWX9Thi20ixv9oYBOvGBNgSqEVizcqGjERLX_5AnDgVc-KkLykE2xgk0KfTk9fGjxxwkiERQZhzUtt__OwodgYm9HCOLSjXT1YBVeLyw6lyYx5xscIHDHEtc_0SuCb9O3A_af9fY-qecfUyspPplsXyQFO9HYYQ4dQSc6nhKan3kxqTZhFVC0nyIvX4_1y0]--></g></svg>