<?xml version="1.0" encoding="us-ascii" standalone="no"?><svg xmlns="http://www.w3.org/2000/svg" xmlns:xlink="http://www.w3.org/1999/xlink" contentStyleType="text/css" height="574px" preserveAspectRatio="none" style="width:841px;height:574px;background:#FFFFFF;" version="1.1" viewBox="0 0 841 574" width="841px" zoomAndPan="magnify"><defs/><g><!--cluster bo4e--><g id="cluster_bo4e"><path d="M531.5,6 L572.5,6 A3.75,3.75 0 0 1 575,8.5 L582,28.2969 L831.5,28.2969 A2.5,2.5 0 0 1 834,30.7969 L834,564.5 A2.5,2.5 0 0 1 831.5,567 L531.5,567 A2.5,2.5 0 0 1 529,564.5 L529,8.5 A2.5,2.5 0 0 1 531.5,6 " fill="none" style="stroke:#000000;stroke-width:1.5;"/><line style="stroke:#000000;stroke-width:1.5;" x1="529" x2="582" y1="28.2969" y2="28.2969"/><text fill="#000000" font-family="sans-serif" font-size="14" font-weight="bold" lengthAdjust="spacing" textLength="40" x="533" y="20.9951">bo4e</text></g><!--cluster bo--><g id="cluster_bo"><path d="M612,49 L678,49 A3.75,3.75 0 0 1 680.5,51.5 L687.5,71.2969 L751,71.2969 A2.5,2.5 0 0 1 753.5,73.7969 L753.5,135.5 A2.5,2.5 0 0 1 751,138 L612,138 A2.5,2.5 0 0 1 609.5,135.5 L609.5,51.5 A2.5,2.5 0 0 1 612,49 " fill="#B6D7A8" style="stroke:#000000;stroke-width:1.5;"/><line style="stroke:#000000;stroke-width:1.5;" x1="609.5" x2="687.5" y1="71.2969" y2="71.2969"/><a href="https://bo4e.github.io/BO4E-python/v202401.6.0/api/bo4e.bo.html" target="_top" title="https://bo4e.github.io/BO4E-python/v202401.6.0/api/bo4e.bo.html" xlink:actuate="onRequest" xlink:href="https://bo4e.github.io/BO4E-python/v202401.6.0/api/bo4e.bo.html" xlink:show="new" xlink:title="https://bo4e.github.io/BO4E-python/v202401.6.0/api/bo4e.bo.html" xlink:type="simple"><text fill="#0000FF" font-family="sans-serif" font-size="14" font-weight="bold" lengthAdjust="spacing" text-decoration="underline" textLength="65" x="613.5" y="63.9951">bo4e.bo</text></a></g><!--cluster com--><g id="cluster_com"><path d="M555.5,162 L634.5,162 A3.75,3.75 0 0 1 637,164.5 L644,184.2969 L807.5,184.2969 A2.5,2.5 0 0 1 810,186.7969 L810,540.5 A2.5,2.5 0 0 1 807.5,543 L555.5,543 A2.5,2.5 0 0 1 553,540.5 L553,164.5 A2.5,2.5 0 0 1 555.5,162 " fill="#E0A86C" style="stroke:#000000;stroke-width:1.5;"/><line style="stroke:#000000;stroke-width:1.5;" x1="553" x2="644" y1="184.2969" y2="184.2969"/><a href="https://bo4e.github.io/BO4E-python/v202401.6.0/api/bo4e.com.html" target="_top" title="https://bo4e.github.io/BO4E-python/v202401.6.0/api/bo4e.com.html" xlink:actuate="onRequest" xlink:href="https://bo4e.github.io/BO4E-python/v202401.6.0/api/bo4e.com.html" xlink:show="new" xlink:title="https://bo4e.github.io/BO4E-python/v202401.6.0/api/bo4e.com.html" xlink:type="simple"><text fill="#0000FF" font-family="sans-serif" font-size="14" font-weight="bold" lengthAdjust="spacing" text-decoration="underline" textLength="78" x="557" y="176.9951">bo4e.com</text></a></g><!--class Tarifinfo--><g id="elem_Tarifinfo"><rect codeLine="11" fill="#F1F1F1" height="37.9375" id="Tarifinfo" rx="2.5" ry="2.5" style="stroke:#181818;stroke-width:0.5;" width="112" x="625.5" y="84.03"/><ellipse cx="640.5" cy="102.9987" fill="#ADD1B2" rx="11" ry="11" style="stroke:#181818;stroke-width:1.0;"/><path d="M643.4688,108.6394 Q642.8906,108.9362 642.25,109.0769 Q641.6094,109.2331 640.9063,109.2331 Q638.4063,109.2331 637.0781,107.5925 Q635.7656,105.9362 635.7656,102.8112 Q635.7656,99.6862 637.0781,98.03 Q638.4063,96.3737 640.9063,96.3737 Q641.6094,96.3737 642.25,96.53 Q642.9063,96.6862 643.4688,96.9831 L643.4688,99.7019 Q642.8438,99.1237 642.25,98.8581 Q641.6563,98.5769 641.0313,98.5769 Q639.6875,98.5769 639,99.655 Q638.3125,100.7175 638.3125,102.8112 Q638.3125,104.905 639,105.9831 Q639.6875,107.0456 641.0313,107.0456 Q641.6563,107.0456 642.25,106.78 Q642.8438,106.4987 643.4688,105.9206 L643.4688,108.6394 Z " fill="#000000"/><a href="https://bo4e.github.io/BO4E-python/v202401.6.0/api/bo4e.bo.html#bo4e.bo.tarifinfo.Tarifinfo" target="_top" title="https://bo4e.github.io/BO4E-python/v202401.6.0/api/bo4e.bo.html#bo4e.bo.tarifinfo.Tarifinfo" xlink:actuate="onRequest" xlink:href="https://bo4e.github.io/BO4E-python/v202401.6.0/api/bo4e.bo.html#bo4e.bo.tarifinfo.Tarifinfo" xlink:show="new" xlink:title="https://bo4e.github.io/BO4E-python/v202401.6.0/api/bo4e.bo.html#bo4e.bo.tarifinfo.Tarifinfo" xlink:type="simple"><text fill="#0000FF" font-family="sans-serif" font-size="14" lengthAdjust="spacing" text-decoration="underline" textLength="54" x="667.5" y="102.0251">Tarifinfo</text></a><text fill="#000000" font-family="sans-serif" font-size="10" lengthAdjust="spacing" textLength="80" x="654.5" y="114.6091">bo4e.bo.tarifinfo</text></g><!--class Preisgarantie--><g id="elem_Preisgarantie"><rect codeLine="14" fill="#F1F1F1" height="37.9375" id="Preisgarantie" rx="2.5" ry="2.5" style="stroke:#181818;stroke-width:0.5;" width="146" x="608.5" y="197.03"/><ellipse cx="623.5" cy="215.9987" fill="#ADD1B2" rx="11" ry="11" style="stroke:#181818;stroke-width:1.0;"/><path d="M626.4688,221.6394 Q625.8906,221.9362 625.25,222.0769 Q624.6094,222.2331 623.9063,222.2331 Q621.4063,222.2331 620.0781,220.5925 Q618.7656,218.9362 618.7656,215.8112 Q618.7656,212.6862 620.0781,211.03 Q621.4063,209.3737 623.9063,209.3737 Q624.6094,209.3737 625.25,209.53 Q625.9063,209.6862 626.4688,209.9831 L626.4688,212.7019 Q625.8438,212.1237 625.25,211.8581 Q624.6563,211.5769 624.0313,211.5769 Q622.6875,211.5769 622,212.655 Q621.3125,213.7175 621.3125,215.8112 Q621.3125,217.905 622,218.9831 Q622.6875,220.0456 624.0313,220.0456 Q624.6563,220.0456 625.25,219.78 Q625.8438,219.4987 626.4688,218.9206 L626.4688,221.6394 Z " fill="#000000"/><a href="https://bo4e.github.io/BO4E-python/v202401.6.0/api/bo4e.com.html#bo4e.com.preisgarantie.Preisgarantie" target="_top" title="https://bo4e.github.io/BO4E-python/v202401.6.0/api/bo4e.com.html#bo4e.com.preisgarantie.Preisgarantie" xlink:actuate="onRequest" xlink:href="https://bo4e.github.io/BO4E-python/v202401.6.0/api/bo4e.com.html#bo4e.com.preisgarantie.Preisgarantie" xlink:show="new" xlink:title="https://bo4e.github.io/BO4E-python/v202401.6.0/api/bo4e.com.html#bo4e.com.preisgarantie.Preisgarantie" xlink:type="simple"><text fill="#0000FF" font-family="sans-serif" font-size="14" lengthAdjust="spacing" text-decoration="underline" textLength="90" x="649.5" y="215.0251">Preisgarantie</text></a><text fill="#000000" font-family="sans-serif" font-size="10" lengthAdjust="spacing" textLength="114" x="637.5" y="227.6091">bo4e.com.preisgarantie</text></g><!--class AufAbschlagRegional--><g id="elem_AufAbschlagRegional"><rect codeLine="15" fill="#F1F1F1" height="37.9375" id="AufAbschlagRegional" rx="2.5" ry="2.5" style="stroke:#181818;stroke-width:0.5;" width="179" x="592" y="270.03"/><ellipse cx="607" cy="288.9988" fill="#ADD1B2" rx="11" ry="11" style="stroke:#181818;stroke-width:1.0;"/><path d="M609.9688,294.6394 Q609.3906,294.9363 608.75,295.0769 Q608.1094,295.2331 607.4063,295.2331 Q604.9063,295.2331 603.5781,293.5925 Q602.2656,291.9363 602.2656,288.8113 Q602.2656,285.6863 603.5781,284.03 Q604.9063,282.3738 607.4063,282.3738 Q608.1094,282.3738 608.75,282.53 Q609.4063,282.6863 609.9688,282.9831 L609.9688,285.7019 Q609.3438,285.1238 608.75,284.8581 Q608.1563,284.5769 607.5313,284.5769 Q606.1875,284.5769 605.5,285.655 Q604.8125,286.7175 604.8125,288.8113 Q604.8125,290.905 605.5,291.9831 Q606.1875,293.0456 607.5313,293.0456 Q608.1563,293.0456 608.75,292.78 Q609.3438,292.4988 609.9688,291.9206 L609.9688,294.6394 Z " fill="#000000"/><a href="https://bo4e.github.io/BO4E-python/v202401.6.0/api/bo4e.com.html#bo4e.com.aufabschlagregional.AufAbschlagRegional" target="_top" title="https://bo4e.github.io/BO4E-python/v202401.6.0/api/bo4e.com.html#bo4e.com.aufabschlagregional.AufAbschlagRegional" xlink:actuate="onRequest" xlink:href="https://bo4e.github.io/BO4E-python/v202401.6.0/api/bo4e.com.html#bo4e.com.aufabschlagregional.AufAbschlagRegional" xlink:show="new" xlink:title="https://bo4e.github.io/BO4E-python/v202401.6.0/api/bo4e.com.html#bo4e.com.aufabschlagregional.AufAbschlagRegional" xlink:type="simple"><text fill="#0000FF" font-family="sans-serif" font-size="14" lengthAdjust="spacing" text-decoration="underline" textLength="145" x="622" y="288.0251">AufAbschlagRegional</text></a><text fill="#000000" font-family="sans-serif" font-size="10" lengthAdjust="spacing" textLength="147" x="621" y="300.6091">bo4e.com.aufabschlagregional</text></g><!--class Tarifeinschraenkung--><g id="elem_Tarifeinschraenkung"><rect codeLine="16" fill="#F1F1F1" height="37.9375" id="Tarifeinschraenkung" rx="2.5" ry="2.5" style="stroke:#181818;stroke-width:0.5;" width="178" x="592.5" y="343.03"/><ellipse cx="607.5" cy="361.9988" fill="#ADD1B2" rx="11" ry="11" style="stroke:#181818;stroke-width:1.0;"/><path d="M610.4688,367.6394 Q609.8906,367.9363 609.25,368.0769 Q608.6094,368.2331 607.9063,368.2331 Q605.4063,368.2331 604.0781,366.5925 Q602.7656,364.9363 602.7656,361.8113 Q602.7656,358.6863 604.0781,357.03 Q605.4063,355.3738 607.9063,355.3738 Q608.6094,355.3738 609.25,355.53 Q609.9063,355.6863 610.4688,355.9831 L610.4688,358.7019 Q609.8438,358.1238 609.25,357.8581 Q608.6563,357.5769 608.0313,357.5769 Q606.6875,357.5769 606,358.655 Q605.3125,359.7175 605.3125,361.8113 Q605.3125,363.905 606,364.9831 Q606.6875,366.0456 608.0313,366.0456 Q608.6563,366.0456 609.25,365.78 Q609.8438,365.4988 610.4688,364.9206 L610.4688,367.6394 Z " fill="#000000"/><a href="https://bo4e.github.io/BO4E-python/v202401.6.0/api/bo4e.com.html#bo4e.com.tarifeinschraenkung.Tarifeinschraenkung" target="_top" title="https://bo4e.github.io/BO4E-python/v202401.6.0/api/bo4e.com.html#bo4e.com.tarifeinschraenkung.Tarifeinschraenkung" xlink:actuate="onRequest" xlink:href="https://bo4e.github.io/BO4E-python/v202401.6.0/api/bo4e.com.html#bo4e.com.tarifeinschraenkung.Tarifeinschraenkung" xlink:show="new" xlink:title="https://bo4e.github.io/BO4E-python/v202401.6.0/api/bo4e.com.html#bo4e.com.tarifeinschraenkung.Tarifeinschraenkung" xlink:type="simple"><text fill="#0000FF" font-family="sans-serif" font-size="14" lengthAdjust="spacing" text-decoration="underline" textLength="141" x="624" y="361.0251">Tarifeinschraenkung</text></a><text fill="#000000" font-family="sans-serif" font-size="10" lengthAdjust="spacing" textLength="146" x="621.5" y="373.6091">bo4e.com.tarifeinschraenkung</text></g><!--class Tarifberechnungsparameter--><g id="elem_Tarifberechnungsparameter"><rect codeLine="17" fill="#F1F1F1" height="37.9375" id="Tarifberechnungsparameter" rx="2.5" ry="2.5" style="stroke:#181818;stroke-width:0.5;" width="225" x="569" y="416.03"/><ellipse cx="584" cy="434.9988" fill="#ADD1B2" rx="11" ry="11" style="stroke:#181818;stroke-width:1.0;"/><path d="M586.9688,440.6394 Q586.3906,440.9363 585.75,441.0769 Q585.1094,441.2331 584.4063,441.2331 Q581.9063,441.2331 580.5781,439.5925 Q579.2656,437.9363 579.2656,434.8113 Q579.2656,431.6863 580.5781,430.03 Q581.9063,428.3738 584.4063,428.3738 Q585.1094,428.3738 585.75,428.53 Q586.4063,428.6863 586.9688,428.9831 L586.9688,431.7019 Q586.3438,431.1238 585.75,430.8581 Q585.1563,430.5769 584.5313,430.5769 Q583.1875,430.5769 582.5,431.655 Q581.8125,432.7175 581.8125,434.8113 Q581.8125,436.905 582.5,437.9831 Q583.1875,439.0456 584.5313,439.0456 Q585.1563,439.0456 585.75,438.78 Q586.3438,438.4988 586.9688,437.9206 L586.9688,440.6394 Z " fill="#000000"/><a href="https://bo4e.github.io/BO4E-python/v202401.6.0/api/bo4e.com.html#bo4e.com.tarifberechnungsparameter.Tarifberechnungsparameter" target="_top" title="https://bo4e.github.io/BO4E-python/v202401.6.0/api/bo4e.com.html#bo4e.com.tarifberechnungsparameter.Tarifberechnungsparameter" xlink:actuate="onRequest" xlink:href="https://bo4e.github.io/BO4E-python/v202401.6.0/api/bo4e.com.html#bo4e.com.tarifberechnungsparameter.Tarifberechnungsparameter" xlink:show="new" xlink:title="https://bo4e.github.io/BO4E-python/v202401.6.0/api/bo4e.com.html#bo4e.com.tarifberechnungsparameter.Tarifberechnungsparameter" xlink:type="simple"><text fill="#0000FF" font-family="sans-serif" font-size="14" lengthAdjust="spacing" text-decoration="underline" textLength="193" x="598" y="434.0251">Tarifberechnungsparameter</text></a><text fill="#000000" font-family="sans-serif" font-size="10" lengthAdjust="spacing" textLength="185" x="602" y="446.6091">bo4e.com.tarifberechnungsparameter</text></g><!--class TarifpreispositionProOrt--><g id="elem_TarifpreispositionProOrt"><rect codeLine="18" fill="#F1F1F1" height="37.9375" id="TarifpreispositionProOrt" rx="2.5" ry="2.5" style="stroke:#181818;stroke-width:0.5;" width="194" x="584.5" y="489.03"/><ellipse cx="599.5" cy="507.9988" fill="#ADD1B2" rx="11" ry="11" style="stroke:#181818;stroke-width:1.0;"/><path d="M602.4688,513.6394 Q601.8906,513.9363 601.25,514.0769 Q600.6094,514.2331 599.9063,514.2331 Q597.4063,514.2331 596.0781,512.5925 Q594.7656,510.9363 594.7656,507.8113 Q594.7656,504.6863 596.0781,503.03 Q597.4063,501.3738 599.9063,501.3738 Q600.6094,501.3738 601.25,501.53 Q601.9063,501.6863 602.4688,501.9831 L602.4688,504.7019 Q601.8438,504.1238 601.25,503.8581 Q600.6563,503.5769 600.0313,503.5769 Q598.6875,503.5769 598,504.655 Q597.3125,505.7175 597.3125,507.8113 Q597.3125,509.905 598,510.9831 Q598.6875,512.0456 600.0313,512.0456 Q600.6563,512.0456 601.25,511.78 Q601.8438,511.4988 602.4688,510.9206 L602.4688,513.6394 Z " fill="#000000"/><a href="https://bo4e.github.io/BO4E-python/v202401.6.0/api/bo4e.com.html#bo4e.com.tarifpreispositionproort.TarifpreispositionProOrt" target="_top" title="https://bo4e.github.io/BO4E-python/v202401.6.0/api/bo4e.com.html#bo4e.com.tarifpreispositionproort.TarifpreispositionProOrt" xlink:actuate="onRequest" xlink:href="https://bo4e.github.io/BO4E-python/v202401.6.0/api/bo4e.com.html#bo4e.com.tarifpreispositionproort.TarifpreispositionProOrt" xlink:show="new" xlink:title="https://bo4e.github.io/BO4E-python/v202401.6.0/api/bo4e.com.html#bo4e.com.tarifpreispositionproort.TarifpreispositionProOrt" xlink:type="simple"><text fill="#0000FF" font-family="sans-serif" font-size="14" lengthAdjust="spacing" text-decoration="underline" textLength="162" x="613.5" y="507.0251">TarifpreispositionProOrt</text></a><text fill="#000000" font-family="sans-serif" font-size="10" lengthAdjust="spacing" textLength="161" x="614" y="519.6091">bo4e.com.tarifpreispositionproort</text></g><!--class Tarif--><g id="elem_Tarif"><rect codeLine="3" fill="#F1F1F1" height="111.125" id="Tarif" rx="2.5" ry="2.5" style="stroke:#181818;stroke-width:0.5;" width="323" x="7" y="274.44"/><ellipse cx="133.25" cy="293.4088" fill="#ADD1B2" rx="11" ry="11" style="stroke:#181818;stroke-width:1.0;"/><path d="M136.2188,299.0494 Q135.6406,299.3463 135,299.4869 Q134.3594,299.6431 133.6563,299.6431 Q131.1563,299.6431 129.8281,298.0025 Q128.5156,296.3463 128.5156,293.2213 Q128.5156,290.0963 129.8281,288.44 Q131.1563,286.7838 133.6563,286.7838 Q134.3594,286.7838 135,286.94 Q135.6563,287.0963 136.2188,287.3931 L136.2188,290.1119 Q135.5938,289.5338 135,289.2681 Q134.4063,288.9869 133.7813,288.9869 Q132.4375,288.9869 131.75,290.065 Q131.0625,291.1275 131.0625,293.2213 Q131.0625,295.315 131.75,296.3931 Q132.4375,297.4556 133.7813,297.4556 Q134.4063,297.4556 135,297.19 Q135.5938,296.9088 136.2188,296.3306 L136.2188,299.0494 Z " fill="#000000"/><a href="https://bo4e.github.io/BO4E-python/v202401.6.0/api/bo4e.bo.html#bo4e.bo.tarif.Tarif" target="_top" title="https://bo4e.github.io/BO4E-python/v202401.6.0/api/bo4e.bo.html#bo4e.bo.tarif.Tarif" xlink:actuate="onRequest" xlink:href="https://bo4e.github.io/BO4E-python/v202401.6.0/api/bo4e.bo.html#bo4e.bo.tarif.Tarif" xlink:show="new" xlink:title="https://bo4e.github.io/BO4E-python/v202401.6.0/api/bo4e.bo.html#bo4e.bo.tarif.Tarif" xlink:type="simple"><text fill="#0000FF" font-family="sans-serif" font-size="14" lengthAdjust="spacing" text-decoration="underline" textLength="29" x="170.25" y="292.4351">Tarif</text></a><text fill="#000000" font-family="sans-serif" font-size="10" lengthAdjust="spacing" textLength="62" x="153.75" y="305.0191">bo4e.bo.tarif</text><line style="stroke:#181818;stroke-width:0.5;" x1="8" x2="329" y1="312.3775" y2="312.3775"/><text fill="#000000" font-family="sans-serif" font-size="14" lengthAdjust="spacing" textLength="228" x="13" y="329.3726">_version : str [0..1] = 202401.6.0</text><text fill="#000000" font-family="sans-serif" font-size="14" lengthAdjust="spacing" textLength="311" x="13" y="345.6695">zusatzAttribute : ZusatzAttribut [0..*] = None</text><text fill="#000000" font-family="sans-serif" font-size="14" lengthAdjust="spacing" textLength="147" x="13" y="361.9664">_id : str [0..1] = None</text><text fill="#000000" font-family="sans-serif" font-size="14" lengthAdjust="spacing" textLength="288" x="13" y="378.2632">preisstand : AwareDatetime [0..1] = None</text></g><!--link Tarif to Tarifinfo--><g id="link_Tarif_Tarifinfo"><path codeLine="21" d="M262.48,274.01 C293.03,256.64 327.49,238.11 360,223 C450.52,180.94 543.1787,148.0771 607.9287,126.5571 " fill="none" id="Tarif-to-Tarifinfo" style="stroke:#181818;stroke-width:1.0;"/><polygon fill="none" points="625.01,120.88,606.0363,120.8633,609.821,132.2508,625.01,120.88" style="stroke:#181818;stroke-width:1.0;"/></g><!--link Tarif to Tarifberechnungsparameter--><g id="link_Tarif_Tarifberechnungsparameter"><path codeLine="22" d="M330.46,378.95 C340.42,381.47 350.33,383.85 360,386 C428.68,401.27 494.8173,411.7085 556.6773,420.0385 " fill="none" id="Tarif-to-Tarifberechnungsparameter" style="stroke:#181818;stroke-width:1.0;"/><polygon fill="#181818" points="568.57,421.64,563.1575,416.8751,556.6773,420.0385,562.0899,424.8035,568.57,421.64" style="stroke:#181818;stroke-width:1.0;"/><text fill="#000000" font-family="sans-serif" font-size="13" lengthAdjust="spacing" textLength="151" x="361" y="382.0669">berechnungsparameter</text><text fill="#000000" font-family="sans-serif" font-size="13" lengthAdjust="spacing" textLength="24" x="536.9571" y="433.3539">0..1</text></g><!--link Tarif to TarifpreispositionProOrt--><g id="link_Tarif_TarifpreispositionProOrt"><path codeLine="23" d="M253.97,385.78 C286.09,404.97 323.71,425.09 360,439 C432.82,466.9 507.6348,482.7785 572.4848,493.2985 " fill="none" id="Tarif-to-TarifpreispositionProOrt" style="stroke:#181818;stroke-width:1.0;"/><polygon fill="#181818" points="584.33,495.22,579.0479,490.3109,572.4848,493.2985,577.7669,498.2076,584.33,495.22" style="stroke:#181818;stroke-width:1.0;"/><text fill="#000000" font-family="sans-serif" font-size="13" lengthAdjust="spacing" textLength="64" x="404.5" y="435.0669">tarifpreise</text><text fill="#000000" font-family="sans-serif" font-size="13" lengthAdjust="spacing" textLength="23" x="553.3495" y="506.9041">0..*</text></g><!--link Tarif to AufAbschlagRegional--><g id="link_Tarif_AufAbschlagRegional"><path codeLine="24" d="M330.48,317.08 C416.78,310.16 507.8684,302.8489 579.7184,297.0889 " fill="none" id="Tarif-to-AufAbschlagRegional" style="stroke:#181818;stroke-width:1.0;"/><polygon fill="#181818" points="591.68,296.13,585.3795,292.6223,579.7184,297.0889,586.0188,300.5967,591.68,296.13" style="stroke:#181818;stroke-width:1.0;"/><text fill="#000000" font-family="sans-serif" font-size="13" lengthAdjust="spacing" textLength="120" x="376.5" y="300.0669">tarifAufAbschlaege</text><text fill="#000000" font-family="sans-serif" font-size="13" lengthAdjust="spacing" textLength="23" x="560.9227" y="309.3222">0..*</text></g><!--link Tarif to Preisgarantie--><g id="link_Tarif_Preisgarantie"><path codeLine="25" d="M330.4,286.11 C340.4,283.63 350.33,281.24 360,279 C444.8,259.34 531.3236,242.7571 596.4836,230.9071 " fill="none" id="Tarif-to-Preisgarantie" style="stroke:#181818;stroke-width:1.0;"/><polygon fill="#181818" points="608.29,228.76,601.6711,225.8981,596.4836,230.9071,603.1025,233.769,608.29,228.76" style="stroke:#181818;stroke-width:1.0;"/><text fill="#000000" font-family="sans-serif" font-size="13" lengthAdjust="spacing" textLength="84" x="394.5" y="244.0669">preisgarantie</text><text fill="#000000" font-family="sans-serif" font-size="13" lengthAdjust="spacing" textLength="24" x="576.4347" y="242.7009">0..1</text></g><!--link Tarif to Tarifeinschraenkung--><g id="link_Tarif_Tarifeinschraenkung"><path codeLine="26" d="M330.49,350.49 C340.47,351.44 350.37,352.28 360,353 C438.41,358.82 515.8708,360.8203 580.3108,361.5703 " fill="none" id="Tarif-to-Tarifeinschraenkung" style="stroke:#181818;stroke-width:1.0;"/><polygon fill="#181818" points="592.31,361.71,586.357,357.6404,580.3108,361.5703,586.2639,365.6399,592.31,361.71" style="stroke:#181818;stroke-width:1.0;"/><text fill="#000000" font-family="sans-serif" font-size="13" lengthAdjust="spacing" textLength="126" x="373.5" y="349.0669">tarifeinschraenkung</text><text fill="#000000" font-family="sans-serif" font-size="13" lengthAdjust="spacing" textLength="24" x="560.5626" y="374.3341">0..1</text></g><!--SRC=[jLNBRjim43n7Nx6mRmOiou7X1a8JG6boROAYfpf6GTahYQX42kGgGTtstqizR5aAxLoiYw1zSCYPvIvJZ0X8Wk9nGh3b2ZV4fN2SJSgqXj5gbH3bsf_DGhb0D-QK5A7BvUp-QV4upNzJ8iNizTgxNdXpT-bwCvRpEZMKRa9PEjuRn1IFtE_b5whlUlqYFck-Gt_ktNMoHi1qdGD_dAkVhwYqEHFue4d1odFT-HfkeTtKkTeLcj4k858yB0XDwe-EfrerALTzbG8D9j_suUf0hf1hJKoKyU2DANnWXCGpx6N-Snp1CjGvs-05P8B6MAyhyeq5u_lbmwVWffHXc89m4ScwAEKV7FvE5wUCjWKgBQF5HQJOoEn82sCTYs5C63zwmStooqNKs6ysFbXLwMEcc22ExlEn1HthlJRlbbVdxYmQvCYiY5YeDqdAOeMnwH6Mka4H1OtlM-C3YyzEmW9OKR4034Aekc78XTbACHI_2X7NjxFh0ulFJiW2s5xUhdyuGY6QiPe8iuVf4MLQXL3Lj6mHE1avGz6MtXArHOUZMtL2BZKlNv9SIQcePji9F2lvf0XE1SvmjU2tL2rGvQnk7fxfzE_TVhYsOsyVDU49ZCenFpeCdJDryi6gQnziqWUpoU13ImtFGjZwkrdTXZ36iwIwqys7pl3wM8vUDpRRzzh9IVWM8SFCgAGTdSWtQ80ZZkbM_mS0]--></g></svg>