<?xml version="1.0" encoding="us-ascii" standalone="no"?><svg xmlns="http://www.w3.org/2000/svg" xmlns:xlink="http://www.w3.org/1999/xlink" contentStyleType="text/css" height="866px" preserveAspectRatio="none" style="width:818px;height:866px;background:#FFFFFF;" version="1.1" viewBox="0 0 818 866" width="818px" zoomAndPan="magnify"><defs/><g><!--cluster bo4e--><g id="cluster_bo4e"><path d="M554.5,6 L595.5,6 A3.75,3.75 0 0 1 598,8.5 L605,28.2969 L808.5,28.2969 A2.5,2.5 0 0 1 811,30.7969 L811,856.5 A2.5,2.5 0 0 1 808.5,859 L554.5,859 A2.5,2.5 0 0 1 552,856.5 L552,8.5 A2.5,2.5 0 0 1 554.5,6 " fill="none" style="stroke:#000000;stroke-width:1.5;"/><line style="stroke:#000000;stroke-width:1.5;" x1="552" x2="605" y1="28.2969" y2="28.2969"/><text fill="#000000" font-family="sans-serif" font-size="14" font-weight="bold" lengthAdjust="spacing" textLength="40" x="556" y="20.9951">bo4e</text></g><!--cluster com--><g id="cluster_com"><path d="M578.5,49 L657.5,49 A3.75,3.75 0 0 1 660,51.5 L667,71.2969 L784.5,71.2969 A2.5,2.5 0 0 1 787,73.7969 L787,573.5 A2.5,2.5 0 0 1 784.5,576 L578.5,576 A2.5,2.5 0 0 1 576,573.5 L576,51.5 A2.5,2.5 0 0 1 578.5,49 " fill="#E0A86C" style="stroke:#000000;stroke-width:1.5;"/><line style="stroke:#000000;stroke-width:1.5;" x1="576" x2="667" y1="71.2969" y2="71.2969"/><a href="https://bo4e.github.io/BO4E-python/v202401.3.1/api/bo4e.com.html" target="_top" title="https://bo4e.github.io/BO4E-python/v202401.3.1/api/bo4e.com.html" xlink:actuate="onRequest" xlink:href="https://bo4e.github.io/BO4E-python/v202401.3.1/api/bo4e.com.html" xlink:show="new" xlink:title="https://bo4e.github.io/BO4E-python/v202401.3.1/api/bo4e.com.html" xlink:type="simple"><text fill="#0000FF" font-family="sans-serif" font-size="14" font-weight="bold" lengthAdjust="spacing" text-decoration="underline" textLength="78" x="580" y="63.9951">bo4e.com</text></a></g><!--cluster enum--><g id="cluster_enum"><path d="M580.5,600 L670.5,600 A3.75,3.75 0 0 1 673,602.5 L680,622.2969 L782.5,622.2969 A2.5,2.5 0 0 1 785,624.7969 L785,832.5 A2.5,2.5 0 0 1 782.5,835 L580.5,835 A2.5,2.5 0 0 1 578,832.5 L578,602.5 A2.5,2.5 0 0 1 580.5,600 " fill="#D1C358" style="stroke:#000000;stroke-width:1.5;"/><line style="stroke:#000000;stroke-width:1.5;" x1="578" x2="680" y1="622.2969" y2="622.2969"/><a href="https://bo4e.github.io/BO4E-python/v202401.3.1/api/bo4e.enum.html" target="_top" title="https://bo4e.github.io/BO4E-python/v202401.3.1/api/bo4e.enum.html" xlink:actuate="onRequest" xlink:href="https://bo4e.github.io/BO4E-python/v202401.3.1/api/bo4e.enum.html" xlink:show="new" xlink:title="https://bo4e.github.io/BO4E-python/v202401.3.1/api/bo4e.enum.html" xlink:type="simple"><text fill="#0000FF" font-family="sans-serif" font-size="14" font-weight="bold" lengthAdjust="spacing" text-decoration="underline" textLength="89" x="582" y="614.9951">bo4e.enum</text></a></g><!--class Zeitraum--><g id="elem_Zeitraum"><rect codeLine="13" fill="#F1F1F1" height="37.9375" id="Zeitraum" rx="2.5" ry="2.5" style="stroke:#181818;stroke-width:0.5;" width="126" x="618.5" y="84.03"/><ellipse cx="633.5" cy="102.9987" fill="#ADD1B2" rx="11" ry="11" style="stroke:#181818;stroke-width:1.0;"/><path d="M636.4688,108.6394 Q635.8906,108.9362 635.25,109.0769 Q634.6094,109.2331 633.9063,109.2331 Q631.4063,109.2331 630.0781,107.5925 Q628.7656,105.9362 628.7656,102.8112 Q628.7656,99.6862 630.0781,98.03 Q631.4063,96.3737 633.9063,96.3737 Q634.6094,96.3737 635.25,96.53 Q635.9063,96.6862 636.4688,96.9831 L636.4688,99.7019 Q635.8438,99.1237 635.25,98.8581 Q634.6563,98.5769 634.0313,98.5769 Q632.6875,98.5769 632,99.655 Q631.3125,100.7175 631.3125,102.8112 Q631.3125,104.905 632,105.9831 Q632.6875,107.0456 634.0313,107.0456 Q634.6563,107.0456 635.25,106.78 Q635.8438,106.4987 636.4688,105.9206 L636.4688,108.6394 Z " fill="#000000"/><a href="https://bo4e.github.io/BO4E-python/v202401.3.1/api/bo4e.com.html#bo4e.com.zeitraum.Zeitraum" target="_top" title="https://bo4e.github.io/BO4E-python/v202401.3.1/api/bo4e.com.html#bo4e.com.zeitraum.Zeitraum" xlink:actuate="onRequest" xlink:href="https://bo4e.github.io/BO4E-python/v202401.3.1/api/bo4e.com.html#bo4e.com.zeitraum.Zeitraum" xlink:show="new" xlink:title="https://bo4e.github.io/BO4E-python/v202401.3.1/api/bo4e.com.html#bo4e.com.zeitraum.Zeitraum" xlink:type="simple"><text fill="#0000FF" font-family="sans-serif" font-size="14" lengthAdjust="spacing" text-decoration="underline" textLength="62" x="663.5" y="102.0251">Zeitraum</text></a><text fill="#000000" font-family="sans-serif" font-size="10" lengthAdjust="spacing" textLength="94" x="647.5" y="114.6091">bo4e.com.zeitraum</text></g><!--class Energiemix--><g id="elem_Energiemix"><rect codeLine="14" fill="#F1F1F1" height="37.9375" id="Energiemix" rx="2.5" ry="2.5" style="stroke:#181818;stroke-width:0.5;" width="137" x="613" y="157.03"/><ellipse cx="628" cy="175.9987" fill="#ADD1B2" rx="11" ry="11" style="stroke:#181818;stroke-width:1.0;"/><path d="M630.9688,181.6394 Q630.3906,181.9362 629.75,182.0769 Q629.1094,182.2331 628.4063,182.2331 Q625.9063,182.2331 624.5781,180.5925 Q623.2656,178.9362 623.2656,175.8112 Q623.2656,172.6862 624.5781,171.03 Q625.9063,169.3737 628.4063,169.3737 Q629.1094,169.3737 629.75,169.53 Q630.4063,169.6862 630.9688,169.9831 L630.9688,172.7019 Q630.3438,172.1237 629.75,171.8581 Q629.1563,171.5769 628.5313,171.5769 Q627.1875,171.5769 626.5,172.655 Q625.8125,173.7175 625.8125,175.8112 Q625.8125,177.905 626.5,178.9831 Q627.1875,180.0456 628.5313,180.0456 Q629.1563,180.0456 629.75,179.78 Q630.3438,179.4987 630.9688,178.9206 L630.9688,181.6394 Z " fill="#000000"/><a href="https://bo4e.github.io/BO4E-python/v202401.3.1/api/bo4e.com.html#bo4e.com.energiemix.Energiemix" target="_top" title="https://bo4e.github.io/BO4E-python/v202401.3.1/api/bo4e.com.html#bo4e.com.energiemix.Energiemix" xlink:actuate="onRequest" xlink:href="https://bo4e.github.io/BO4E-python/v202401.3.1/api/bo4e.com.html#bo4e.com.energiemix.Energiemix" xlink:show="new" xlink:title="https://bo4e.github.io/BO4E-python/v202401.3.1/api/bo4e.com.html#bo4e.com.energiemix.Energiemix" xlink:type="simple"><text fill="#0000FF" font-family="sans-serif" font-size="14" lengthAdjust="spacing" text-decoration="underline" textLength="76" x="656.5" y="175.0251">Energiemix</text></a><text fill="#000000" font-family="sans-serif" font-size="10" lengthAdjust="spacing" textLength="105" x="642" y="187.6091">bo4e.com.energiemix</text></g><!--class Tarifeinschraenkung--><g id="elem_Tarifeinschraenkung"><rect codeLine="15" fill="#F1F1F1" height="37.9375" id="Tarifeinschraenkung" rx="2.5" ry="2.5" style="stroke:#181818;stroke-width:0.5;" width="178" x="592.5" y="230.03"/><ellipse cx="607.5" cy="248.9987" fill="#ADD1B2" rx="11" ry="11" style="stroke:#181818;stroke-width:1.0;"/><path d="M610.4688,254.6394 Q609.8906,254.9362 609.25,255.0769 Q608.6094,255.2331 607.9063,255.2331 Q605.4063,255.2331 604.0781,253.5925 Q602.7656,251.9362 602.7656,248.8112 Q602.7656,245.6862 604.0781,244.03 Q605.4063,242.3737 607.9063,242.3737 Q608.6094,242.3737 609.25,242.53 Q609.9063,242.6862 610.4688,242.9831 L610.4688,245.7019 Q609.8438,245.1237 609.25,244.8581 Q608.6563,244.5769 608.0313,244.5769 Q606.6875,244.5769 606,245.655 Q605.3125,246.7175 605.3125,248.8112 Q605.3125,250.905 606,251.9831 Q606.6875,253.0456 608.0313,253.0456 Q608.6563,253.0456 609.25,252.78 Q609.8438,252.4987 610.4688,251.9206 L610.4688,254.6394 Z " fill="#000000"/><a href="https://bo4e.github.io/BO4E-python/v202401.3.1/api/bo4e.com.html#bo4e.com.tarifeinschraenkung.Tarifeinschraenkung" target="_top" title="https://bo4e.github.io/BO4E-python/v202401.3.1/api/bo4e.com.html#bo4e.com.tarifeinschraenkung.Tarifeinschraenkung" xlink:actuate="onRequest" xlink:href="https://bo4e.github.io/BO4E-python/v202401.3.1/api/bo4e.com.html#bo4e.com.tarifeinschraenkung.Tarifeinschraenkung" xlink:show="new" xlink:title="https://bo4e.github.io/BO4E-python/v202401.3.1/api/bo4e.com.html#bo4e.com.tarifeinschraenkung.Tarifeinschraenkung" xlink:type="simple"><text fill="#0000FF" font-family="sans-serif" font-size="14" lengthAdjust="spacing" text-decoration="underline" textLength="141" x="624" y="248.0251">Tarifeinschraenkung</text></a><text fill="#000000" font-family="sans-serif" font-size="10" lengthAdjust="spacing" textLength="146" x="621.5" y="260.6091">bo4e.com.tarifeinschraenkung</text></g><!--class Preisgarantie--><g id="elem_Preisgarantie"><rect codeLine="16" fill="#F1F1F1" height="37.9375" id="Preisgarantie" rx="2.5" ry="2.5" style="stroke:#181818;stroke-width:0.5;" width="146" x="608.5" y="303.03"/><ellipse cx="623.5" cy="321.9988" fill="#ADD1B2" rx="11" ry="11" style="stroke:#181818;stroke-width:1.0;"/><path d="M626.4688,327.6394 Q625.8906,327.9363 625.25,328.0769 Q624.6094,328.2331 623.9063,328.2331 Q621.4063,328.2331 620.0781,326.5925 Q618.7656,324.9363 618.7656,321.8113 Q618.7656,318.6863 620.0781,317.03 Q621.4063,315.3738 623.9063,315.3738 Q624.6094,315.3738 625.25,315.53 Q625.9063,315.6863 626.4688,315.9831 L626.4688,318.7019 Q625.8438,318.1238 625.25,317.8581 Q624.6563,317.5769 624.0313,317.5769 Q622.6875,317.5769 622,318.655 Q621.3125,319.7175 621.3125,321.8113 Q621.3125,323.905 622,324.9831 Q622.6875,326.0456 624.0313,326.0456 Q624.6563,326.0456 625.25,325.78 Q625.8438,325.4988 626.4688,324.9206 L626.4688,327.6394 Z " fill="#000000"/><a href="https://bo4e.github.io/BO4E-python/v202401.3.1/api/bo4e.com.html#bo4e.com.preisgarantie.Preisgarantie" target="_top" title="https://bo4e.github.io/BO4E-python/v202401.3.1/api/bo4e.com.html#bo4e.com.preisgarantie.Preisgarantie" xlink:actuate="onRequest" xlink:href="https://bo4e.github.io/BO4E-python/v202401.3.1/api/bo4e.com.html#bo4e.com.preisgarantie.Preisgarantie" xlink:show="new" xlink:title="https://bo4e.github.io/BO4E-python/v202401.3.1/api/bo4e.com.html#bo4e.com.preisgarantie.Preisgarantie" xlink:type="simple"><text fill="#0000FF" font-family="sans-serif" font-size="14" lengthAdjust="spacing" text-decoration="underline" textLength="90" x="649.5" y="321.0251">Preisgarantie</text></a><text fill="#000000" font-family="sans-serif" font-size="10" lengthAdjust="spacing" textLength="114" x="637.5" y="333.6091">bo4e.com.preisgarantie</text></g><!--class AufAbschlagProOrt--><g id="elem_AufAbschlagProOrt"><rect codeLine="17" fill="#F1F1F1" height="37.9375" id="AufAbschlagProOrt" rx="2.5" ry="2.5" style="stroke:#181818;stroke-width:0.5;" width="171" x="596" y="376.03"/><ellipse cx="611" cy="394.9988" fill="#ADD1B2" rx="11" ry="11" style="stroke:#181818;stroke-width:1.0;"/><path d="M613.9688,400.6394 Q613.3906,400.9363 612.75,401.0769 Q612.1094,401.2331 611.4063,401.2331 Q608.9063,401.2331 607.5781,399.5925 Q606.2656,397.9363 606.2656,394.8113 Q606.2656,391.6863 607.5781,390.03 Q608.9063,388.3738 611.4063,388.3738 Q612.1094,388.3738 612.75,388.53 Q613.4063,388.6863 613.9688,388.9831 L613.9688,391.7019 Q613.3438,391.1238 612.75,390.8581 Q612.1563,390.5769 611.5313,390.5769 Q610.1875,390.5769 609.5,391.655 Q608.8125,392.7175 608.8125,394.8113 Q608.8125,396.905 609.5,397.9831 Q610.1875,399.0456 611.5313,399.0456 Q612.1563,399.0456 612.75,398.78 Q613.3438,398.4988 613.9688,397.9206 L613.9688,400.6394 Z " fill="#000000"/><a href="https://bo4e.github.io/BO4E-python/v202401.3.1/api/bo4e.com.html#bo4e.com.aufabschlagproort.AufAbschlagProOrt" target="_top" title="https://bo4e.github.io/BO4E-python/v202401.3.1/api/bo4e.com.html#bo4e.com.aufabschlagproort.AufAbschlagProOrt" xlink:actuate="onRequest" xlink:href="https://bo4e.github.io/BO4E-python/v202401.3.1/api/bo4e.com.html#bo4e.com.aufabschlagproort.AufAbschlagProOrt" xlink:show="new" xlink:title="https://bo4e.github.io/BO4E-python/v202401.3.1/api/bo4e.com.html#bo4e.com.aufabschlagproort.AufAbschlagProOrt" xlink:type="simple"><text fill="#0000FF" font-family="sans-serif" font-size="14" lengthAdjust="spacing" text-decoration="underline" textLength="129" x="630" y="394.0251">AufAbschlagProOrt</text></a><text fill="#000000" font-family="sans-serif" font-size="10" lengthAdjust="spacing" textLength="139" x="625" y="406.6091">bo4e.com.aufabschlagproort</text></g><!--class COM--><g id="elem_COM"><rect codeLine="18" fill="#F1F1F1" height="37.9375" id="COM" rx="2.5" ry="2.5" style="stroke:#181818;stroke-width:0.5;" width="104" x="629.5" y="449.03"/><ellipse cx="644.5" cy="467.9988" fill="#ADD1B2" rx="11" ry="11" style="stroke:#181818;stroke-width:1.0;"/><path d="M647.4688,473.6394 Q646.8906,473.9363 646.25,474.0769 Q645.6094,474.2331 644.9063,474.2331 Q642.4063,474.2331 641.0781,472.5925 Q639.7656,470.9363 639.7656,467.8113 Q639.7656,464.6863 641.0781,463.03 Q642.4063,461.3738 644.9063,461.3738 Q645.6094,461.3738 646.25,461.53 Q646.9063,461.6863 647.4688,461.9831 L647.4688,464.7019 Q646.8438,464.1238 646.25,463.8581 Q645.6563,463.5769 645.0313,463.5769 Q643.6875,463.5769 643,464.655 Q642.3125,465.7175 642.3125,467.8113 Q642.3125,469.905 643,470.9831 Q643.6875,472.0456 645.0313,472.0456 Q645.6563,472.0456 646.25,471.78 Q646.8438,471.4988 647.4688,470.9206 L647.4688,473.6394 Z " fill="#000000"/><a href="https://bo4e.github.io/BO4E-python/v202401.3.1/api/bo4e.com.html#bo4e.com.com.COM" target="_top" title="https://bo4e.github.io/BO4E-python/v202401.3.1/api/bo4e.com.html#bo4e.com.com.COM" xlink:actuate="onRequest" xlink:href="https://bo4e.github.io/BO4E-python/v202401.3.1/api/bo4e.com.html#bo4e.com.com.COM" xlink:show="new" xlink:title="https://bo4e.github.io/BO4E-python/v202401.3.1/api/bo4e.com.html#bo4e.com.com.COM" xlink:type="simple"><text fill="#0000FF" font-family="sans-serif" font-size="14" lengthAdjust="spacing" text-decoration="underline" textLength="33" x="678" y="467.0251">COM</text></a><text fill="#000000" font-family="sans-serif" font-size="10" lengthAdjust="spacing" textLength="72" x="658.5" y="479.6091">bo4e.com.com</text></g><!--class Vertragskonditionen--><g id="elem_Vertragskonditionen"><rect codeLine="19" fill="#F1F1F1" height="37.9375" id="Vertragskonditionen" rx="2.5" ry="2.5" style="stroke:#181818;stroke-width:0.5;" width="179" x="592" y="522.03"/><ellipse cx="607" cy="540.9988" fill="#ADD1B2" rx="11" ry="11" style="stroke:#181818;stroke-width:1.0;"/><path d="M609.9688,546.6394 Q609.3906,546.9363 608.75,547.0769 Q608.1094,547.2331 607.4063,547.2331 Q604.9063,547.2331 603.5781,545.5925 Q602.2656,543.9363 602.2656,540.8113 Q602.2656,537.6863 603.5781,536.03 Q604.9063,534.3738 607.4063,534.3738 Q608.1094,534.3738 608.75,534.53 Q609.4063,534.6863 609.9688,534.9831 L609.9688,537.7019 Q609.3438,537.1238 608.75,536.8581 Q608.1563,536.5769 607.5313,536.5769 Q606.1875,536.5769 605.5,537.655 Q604.8125,538.7175 604.8125,540.8113 Q604.8125,542.905 605.5,543.9831 Q606.1875,545.0456 607.5313,545.0456 Q608.1563,545.0456 608.75,544.78 Q609.3438,544.4988 609.9688,543.9206 L609.9688,546.6394 Z " fill="#000000"/><a href="https://bo4e.github.io/BO4E-python/v202401.3.1/api/bo4e.com.html#bo4e.com.vertragskonditionen.Vertragskonditionen" target="_top" title="https://bo4e.github.io/BO4E-python/v202401.3.1/api/bo4e.com.html#bo4e.com.vertragskonditionen.Vertragskonditionen" xlink:actuate="onRequest" xlink:href="https://bo4e.github.io/BO4E-python/v202401.3.1/api/bo4e.com.html#bo4e.com.vertragskonditionen.Vertragskonditionen" xlink:show="new" xlink:title="https://bo4e.github.io/BO4E-python/v202401.3.1/api/bo4e.com.html#bo4e.com.vertragskonditionen.Vertragskonditionen" xlink:type="simple"><text fill="#0000FF" font-family="sans-serif" font-size="14" lengthAdjust="spacing" text-decoration="underline" textLength="140" x="624.5" y="540.0251">Vertragskonditionen</text></a><text fill="#000000" font-family="sans-serif" font-size="10" lengthAdjust="spacing" textLength="147" x="621" y="552.6091">bo4e.com.vertragskonditionen</text></g><!--class AufAbschlagsziel--><g id="elem_AufAbschlagsziel"><rect codeLine="22" fill="#F1F1F1" height="37.9375" id="AufAbschlagsziel" rx="2.5" ry="2.5" style="stroke:#181818;stroke-width:0.5;" width="168" x="597.5" y="635.03"/><ellipse cx="612.5" cy="653.9988" fill="#ADD1B2" rx="11" ry="11" style="stroke:#181818;stroke-width:1.0;"/><path d="M615.4688,659.6394 Q614.8906,659.9363 614.25,660.0769 Q613.6094,660.2331 612.9063,660.2331 Q610.4063,660.2331 609.0781,658.5925 Q607.7656,656.9363 607.7656,653.8113 Q607.7656,650.6863 609.0781,649.03 Q610.4063,647.3738 612.9063,647.3738 Q613.6094,647.3738 614.25,647.53 Q614.9063,647.6863 615.4688,647.9831 L615.4688,650.7019 Q614.8438,650.1238 614.25,649.8581 Q613.6563,649.5769 613.0313,649.5769 Q611.6875,649.5769 611,650.655 Q610.3125,651.7175 610.3125,653.8113 Q610.3125,655.905 611,656.9831 Q611.6875,658.0456 613.0313,658.0456 Q613.6563,658.0456 614.25,657.78 Q614.8438,657.4988 615.4688,656.9206 L615.4688,659.6394 Z " fill="#000000"/><a href="https://bo4e.github.io/BO4E-python/v202401.3.1/api/bo4e.enum.html#bo4e.enum.aufabschlagsziel.AufAbschlagsziel" target="_top" title="https://bo4e.github.io/BO4E-python/v202401.3.1/api/bo4e.enum.html#bo4e.enum.aufabschlagsziel.AufAbschlagsziel" xlink:actuate="onRequest" xlink:href="https://bo4e.github.io/BO4E-python/v202401.3.1/api/bo4e.enum.html#bo4e.enum.aufabschlagsziel.AufAbschlagsziel" xlink:show="new" xlink:title="https://bo4e.github.io/BO4E-python/v202401.3.1/api/bo4e.enum.html#bo4e.enum.aufabschlagsziel.AufAbschlagsziel" xlink:type="simple"><text fill="#0000FF" font-family="sans-serif" font-size="14" lengthAdjust="spacing" text-decoration="underline" textLength="116" x="636.5" y="653.0251">AufAbschlagsziel</text></a><text fill="#000000" font-family="sans-serif" font-size="10" lengthAdjust="spacing" textLength="136" x="626.5" y="665.6091">bo4e.enum.aufabschlagsziel</text></g><!--class AufAbschlagstyp--><g id="elem_AufAbschlagstyp"><rect codeLine="23" fill="#F1F1F1" height="37.9375" id="AufAbschlagstyp" rx="2.5" ry="2.5" style="stroke:#181818;stroke-width:0.5;" width="169" x="597" y="708.03"/><ellipse cx="612" cy="726.9988" fill="#ADD1B2" rx="11" ry="11" style="stroke:#181818;stroke-width:1.0;"/><path d="M614.9688,732.6394 Q614.3906,732.9363 613.75,733.0769 Q613.1094,733.2331 612.4063,733.2331 Q609.9063,733.2331 608.5781,731.5925 Q607.2656,729.9363 607.2656,726.8113 Q607.2656,723.6863 608.5781,722.03 Q609.9063,720.3738 612.4063,720.3738 Q613.1094,720.3738 613.75,720.53 Q614.4063,720.6863 614.9688,720.9831 L614.9688,723.7019 Q614.3438,723.1238 613.75,722.8581 Q613.1563,722.5769 612.5313,722.5769 Q611.1875,722.5769 610.5,723.655 Q609.8125,724.7175 609.8125,726.8113 Q609.8125,728.905 610.5,729.9831 Q611.1875,731.0456 612.5313,731.0456 Q613.1563,731.0456 613.75,730.78 Q614.3438,730.4988 614.9688,729.9206 L614.9688,732.6394 Z " fill="#000000"/><a href="https://bo4e.github.io/BO4E-python/v202401.3.1/api/bo4e.enum.html#bo4e.enum.aufabschlagstyp.AufAbschlagstyp" target="_top" title="https://bo4e.github.io/BO4E-python/v202401.3.1/api/bo4e.enum.html#bo4e.enum.aufabschlagstyp.AufAbschlagstyp" xlink:actuate="onRequest" xlink:href="https://bo4e.github.io/BO4E-python/v202401.3.1/api/bo4e.enum.html#bo4e.enum.aufabschlagstyp.AufAbschlagstyp" xlink:show="new" xlink:title="https://bo4e.github.io/BO4E-python/v202401.3.1/api/bo4e.enum.html#bo4e.enum.aufabschlagstyp.AufAbschlagstyp" xlink:type="simple"><text fill="#0000FF" font-family="sans-serif" font-size="14" lengthAdjust="spacing" text-decoration="underline" textLength="114" x="637.5" y="726.0251">AufAbschlagstyp</text></a><text fill="#000000" font-family="sans-serif" font-size="10" lengthAdjust="spacing" textLength="137" x="626" y="738.6091">bo4e.enum.aufabschlagstyp</text></g><!--class Waehrungseinheit--><g id="elem_Waehrungseinheit"><rect codeLine="24" fill="#F1F1F1" height="37.9375" id="Waehrungseinheit" rx="2.5" ry="2.5" style="stroke:#181818;stroke-width:0.5;" width="175" x="594" y="781.03"/><ellipse cx="609" cy="799.9988" fill="#ADD1B2" rx="11" ry="11" style="stroke:#181818;stroke-width:1.0;"/><path d="M611.9688,805.6394 Q611.3906,805.9363 610.75,806.0769 Q610.1094,806.2331 609.4063,806.2331 Q606.9063,806.2331 605.5781,804.5925 Q604.2656,802.9363 604.2656,799.8113 Q604.2656,796.6863 605.5781,795.03 Q606.9063,793.3738 609.4063,793.3738 Q610.1094,793.3738 610.75,793.53 Q611.4063,793.6863 611.9688,793.9831 L611.9688,796.7019 Q611.3438,796.1238 610.75,795.8581 Q610.1563,795.5769 609.5313,795.5769 Q608.1875,795.5769 607.5,796.655 Q606.8125,797.7175 606.8125,799.8113 Q606.8125,801.905 607.5,802.9831 Q608.1875,804.0456 609.5313,804.0456 Q610.1563,804.0456 610.75,803.78 Q611.3438,803.4988 611.9688,802.9206 L611.9688,805.6394 Z " fill="#000000"/><a href="https://bo4e.github.io/BO4E-python/v202401.3.1/api/bo4e.enum.html#bo4e.enum.waehrungseinheit.Waehrungseinheit" target="_top" title="https://bo4e.github.io/BO4E-python/v202401.3.1/api/bo4e.enum.html#bo4e.enum.waehrungseinheit.Waehrungseinheit" xlink:actuate="onRequest" xlink:href="https://bo4e.github.io/BO4E-python/v202401.3.1/api/bo4e.enum.html#bo4e.enum.waehrungseinheit.Waehrungseinheit" xlink:show="new" xlink:title="https://bo4e.github.io/BO4E-python/v202401.3.1/api/bo4e.enum.html#bo4e.enum.waehrungseinheit.Waehrungseinheit" xlink:type="simple"><text fill="#0000FF" font-family="sans-serif" font-size="14" lengthAdjust="spacing" text-decoration="underline" textLength="126" x="631.5" y="799.0251">Waehrungseinheit</text></a><text fill="#000000" font-family="sans-serif" font-size="10" lengthAdjust="spacing" textLength="143" x="623" y="811.6091">bo4e.enum.waehrungseinheit</text></g><!--class AufAbschlagRegional--><g id="elem_AufAbschlagRegional"><rect codeLine="3" fill="#F1F1F1" height="143.7188" id="AufAbschlagRegional" rx="2.5" ry="2.5" style="stroke:#181818;stroke-width:0.5;" width="315" x="7" y="363.14"/><ellipse cx="86.75" cy="382.1088" fill="#ADD1B2" rx="11" ry="11" style="stroke:#181818;stroke-width:1.0;"/><path d="M89.7188,387.7494 Q89.1406,388.0463 88.5,388.1869 Q87.8594,388.3431 87.1563,388.3431 Q84.6563,388.3431 83.3281,386.7025 Q82.0156,385.0463 82.0156,381.9213 Q82.0156,378.7963 83.3281,377.14 Q84.6563,375.4838 87.1563,375.4838 Q87.8594,375.4838 88.5,375.64 Q89.1563,375.7963 89.7188,376.0931 L89.7188,378.8119 Q89.0938,378.2338 88.5,377.9681 Q87.9063,377.6869 87.2813,377.6869 Q85.9375,377.6869 85.25,378.765 Q84.5625,379.8275 84.5625,381.9213 Q84.5625,384.015 85.25,385.0931 Q85.9375,386.1556 87.2813,386.1556 Q87.9063,386.1556 88.5,385.89 Q89.0938,385.6088 89.7188,385.0306 L89.7188,387.7494 Z " fill="#000000"/><a href="https://bo4e.github.io/BO4E-python/v202401.3.1/api/bo4e.com.html#bo4e.com.aufabschlagregional.AufAbschlagRegional" target="_top" title="https://bo4e.github.io/BO4E-python/v202401.3.1/api/bo4e.com.html#bo4e.com.aufabschlagregional.AufAbschlagRegional" xlink:actuate="onRequest" xlink:href="https://bo4e.github.io/BO4E-python/v202401.3.1/api/bo4e.com.html#bo4e.com.aufabschlagregional.AufAbschlagRegional" xlink:show="new" xlink:title="https://bo4e.github.io/BO4E-python/v202401.3.1/api/bo4e.com.html#bo4e.com.aufabschlagregional.AufAbschlagRegional" xlink:type="simple"><text fill="#0000FF" font-family="sans-serif" font-size="14" lengthAdjust="spacing" text-decoration="underline" textLength="145" x="108.25" y="381.1351">AufAbschlagRegional</text></a><text fill="#000000" font-family="sans-serif" font-size="10" lengthAdjust="spacing" textLength="147" x="107.25" y="393.7191">bo4e.com.aufabschlagregional</text><line style="stroke:#181818;stroke-width:0.5;" x1="8" x2="321" y1="401.0775" y2="401.0775"/><text fill="#000000" font-family="sans-serif" font-size="14" lengthAdjust="spacing" textLength="219" x="13" y="418.0726">bezeichnung : str [0..1] = None</text><text fill="#000000" font-family="sans-serif" font-size="14" lengthAdjust="spacing" textLength="224" x="13" y="434.3695">beschreibung : str [0..1] = None</text><text fill="#000000" font-family="sans-serif" font-size="14" lengthAdjust="spacing" textLength="182" x="13" y="450.6664">website : str [0..1] = None</text><text fill="#000000" font-family="sans-serif" font-size="14" lengthAdjust="spacing" textLength="235" x="13" y="466.9632">zusatzprodukte : str [0..*] = None</text><text fill="#000000" font-family="sans-serif" font-size="14" lengthAdjust="spacing" textLength="247" x="13" y="483.2601">voraussetzungen : str [0..*] = None</text><text fill="#000000" font-family="sans-serif" font-size="14" lengthAdjust="spacing" textLength="303" x="13" y="499.557">tarifnamensaenderungen : str [0..1] = None</text></g><!--link AufAbschlagRegional to COM--><g id="link_AufAbschlagRegional_COM"><path codeLine="27" d="M322.46,445.06 C427.2,451.77 540.2968,459.0201 611.2168,463.5601 " fill="none" id="AufAbschlagRegional-to-COM" style="stroke:#181818;stroke-width:1.0;"/><polygon fill="none" points="629.18,464.71,611.6001,457.5723,610.8335,469.5478,629.18,464.71" style="stroke:#181818;stroke-width:1.0;"/></g><!--link AufAbschlagRegional to AufAbschlagProOrt--><g id="link_AufAbschlagRegional_AufAbschlagProOrt"><path codeLine="28" d="M322.46,422.81 C412.41,415.82 509.8061,408.2596 583.8061,402.5096 " fill="none" id="AufAbschlagRegional-to-AufAbschlagProOrt" style="stroke:#181818;stroke-width:1.0;"/><polygon fill="#181818" points="595.77,401.58,589.4782,398.0568,583.8061,402.5096,590.0979,406.0328,595.77,401.58" style="stroke:#181818;stroke-width:1.0;"/><text fill="#000000" font-family="sans-serif" font-size="13" lengthAdjust="spacing" textLength="58" x="415" y="403.0669">betraege</text><text fill="#000000" font-family="sans-serif" font-size="13" lengthAdjust="spacing" textLength="23" x="565.022" y="414.7743">0..*</text></g><!--link AufAbschlagRegional to AufAbschlagstyp--><g id="link_AufAbschlagRegional_AufAbschlagstyp"><path codeLine="29" d="M216.77,507.27 C250.65,550.11 298.56,602.26 352,635 C427.63,681.33 515.3435,702.9658 584.9535,714.5758 " fill="none" id="AufAbschlagRegional-to-AufAbschlagstyp" style="stroke:#181818;stroke-width:1.0;"/><polygon fill="#181818" points="596.79,716.55,591.5298,711.6174,584.9535,714.5758,590.2137,719.5084,596.79,716.55" style="stroke:#181818;stroke-width:1.0;"/><text fill="#000000" font-family="sans-serif" font-size="13" lengthAdjust="spacing" textLength="105" x="391.5" y="631.0669">aufAbschlagstyp</text><text fill="#000000" font-family="sans-serif" font-size="13" lengthAdjust="spacing" textLength="24" x="565.0834" y="728.3872">0..1</text></g><!--link AufAbschlagRegional to AufAbschlagsziel--><g id="link_AufAbschlagRegional_AufAbschlagsziel"><path codeLine="30" d="M282.27,507.34 C304.98,520.05 328.91,532.54 352,543 C438.09,582 530.616,611.5636 598.216,631.1936 " fill="none" id="AufAbschlagRegional-to-AufAbschlagsziel" style="stroke:#181818;stroke-width:1.0;"/><polygon fill="#181818" points="609.74,634.54,605.0935,629.0255,598.216,631.1936,602.8626,636.7081,609.74,634.54" style="stroke:#181818;stroke-width:1.0;"/><text fill="#000000" font-family="sans-serif" font-size="13" lengthAdjust="spacing" textLength="106" x="391" y="539.0669">aufAbschlagsziel</text><text fill="#000000" font-family="sans-serif" font-size="13" lengthAdjust="spacing" textLength="24" x="565.3235" y="625.0519">0..1</text></g><!--link AufAbschlagRegional to Waehrungseinheit--><g id="link_AufAbschlagRegional_Waehrungseinheit"><path codeLine="31" d="M192.13,507.24 C220.99,575.17 273.68,674.35 352,729 C423.3,778.75 510.9151,793.8636 581.7051,798.4536 " fill="none" id="AufAbschlagRegional-to-Waehrungseinheit" style="stroke:#181818;stroke-width:1.0;"/><polygon fill="#181818" points="593.68,799.23,587.9514,794.8502,581.7051,798.4536,587.4338,802.8334,593.68,799.23" style="stroke:#181818;stroke-width:1.0;"/><text fill="#000000" font-family="sans-serif" font-size="13" lengthAdjust="spacing" textLength="43" x="422.5" y="725.0669">einheit</text><text fill="#000000" font-family="sans-serif" font-size="13" lengthAdjust="spacing" textLength="24" x="562.0375" y="811.8173">0..1</text></g><!--link AufAbschlagRegional to Zeitraum--><g id="link_AufAbschlagRegional_Zeitraum"><path codeLine="32" d="M195.74,362.72 C225.89,299.95 278.35,211.82 352,164 C433.13,111.33 535.9403,101.4789 606.1403,100.9589 " fill="none" id="AufAbschlagRegional-to-Zeitraum" style="stroke:#181818;stroke-width:1.0;"/><polygon fill="#181818" points="618.14,100.87,612.1105,96.9146,606.1403,100.9589,612.1698,104.9143,618.14,100.87" style="stroke:#181818;stroke-width:1.0;"/><text fill="#000000" font-family="sans-serif" font-size="13" lengthAdjust="spacing" textLength="130" x="379" y="103.0669">gueltigkeitszeitraum</text><text fill="#000000" font-family="sans-serif" font-size="13" lengthAdjust="spacing" textLength="24" x="586.3685" y="113.4977">0..1</text></g><!--link AufAbschlagRegional to Energiemix--><g id="link_AufAbschlagRegional_Energiemix"><path codeLine="33" d="M219.15,362.7 C252.89,322.33 299.84,274.56 352,246 C434.47,200.84 531.4202,185.7817 600.7402,180.0917 " fill="none" id="AufAbschlagRegional-to-Energiemix" style="stroke:#181818;stroke-width:1.0;"/><polygon fill="#181818" points="612.7,179.11,606.3929,175.6143,600.7402,180.0917,607.0473,183.5874,612.7,179.11" style="stroke:#181818;stroke-width:1.0;"/><text fill="#000000" font-family="sans-serif" font-size="13" lengthAdjust="spacing" textLength="140" x="374" y="185.0669">energiemixaenderung</text><text fill="#000000" font-family="sans-serif" font-size="13" lengthAdjust="spacing" textLength="24" x="580.9988" y="192.1946">0..1</text></g><!--link AufAbschlagRegional to Vertragskonditionen--><g id="link_AufAbschlagRegional_Vertragskonditionen"><path codeLine="34" d="M322.48,477.26 C332.45,479.63 342.35,481.9 352,484 C432.6,501.55 513.3963,515.3522 579.7163,525.8022 " fill="none" id="AufAbschlagRegional-to-Vertragskonditionen" style="stroke:#181818;stroke-width:1.0;"/><polygon fill="#181818" points="591.57,527.67,586.2657,522.7849,579.7163,525.8022,585.0205,530.6874,591.57,527.67" style="stroke:#181818;stroke-width:1.0;"/><text fill="#000000" font-family="sans-serif" font-size="13" lengthAdjust="spacing" textLength="182" x="353" y="480.0669">vertagskonditionsaenderung</text><text fill="#000000" font-family="sans-serif" font-size="13" lengthAdjust="spacing" textLength="24" x="560.0845" y="539.3137">0..1</text></g><!--link AufAbschlagRegional to Preisgarantie--><g id="link_AufAbschlagRegional_Preisgarantie"><path codeLine="35" d="M322.43,389.24 C332.41,386.69 342.33,384.25 352,382 C439.52,361.62 529.6334,345.8324 596.4734,335.0424 " fill="none" id="AufAbschlagRegional-to-Preisgarantie" style="stroke:#181818;stroke-width:1.0;"/><polygon fill="#181818" points="608.32,333.13,601.7592,330.1373,596.4734,335.0424,603.0342,338.0351,608.32,333.13" style="stroke:#181818;stroke-width:1.0;"/><text fill="#000000" font-family="sans-serif" font-size="13" lengthAdjust="spacing" textLength="122" x="383" y="343.0669">garantieaenderung</text><text fill="#000000" font-family="sans-serif" font-size="13" lengthAdjust="spacing" textLength="24" x="576.4675" y="346.9206">0..1</text></g><!--link AufAbschlagRegional to Tarifeinschraenkung--><g id="link_AufAbschlagRegional_Tarifeinschraenkung"><path codeLine="36" d="M271.36,362.74 C296.94,347.6 324.77,332.93 352,322 C430.21,290.61 512.7299,273.301 580.2199,262.531 " fill="none" id="AufAbschlagRegional-to-Tarifeinschraenkung" style="stroke:#181818;stroke-width:1.0;"/><polygon fill="#181818" points="592.07,260.64,585.5146,257.6355,580.2199,262.531,586.7753,265.5355,592.07,260.64" style="stroke:#181818;stroke-width:1.0;"/><text fill="#000000" font-family="sans-serif" font-size="13" lengthAdjust="spacing" textLength="177" x="355.5" y="267.0669">einschraenkungsaenderung</text><text fill="#000000" font-family="sans-serif" font-size="13" lengthAdjust="spacing" textLength="24" x="560.6212" y="274.1175">0..1</text></g><!--SRC=[lLPDJzmm43qtlsAqUqF2kmkqGb6BH1775bHLhLIw1oUPJQpTs97jGDcM_rxRRBvD-H3f8PBdPVpynXwFPuCh3Lg0P6cc8M4IOyq43u9uGvM2oTLLfdMXmjai4aT8KgQpCY9Cp3vU79tl5xSw4tnsVJ0_E9elo25Pp6Z1xbrZaPDCvvjfRT5oHICLPnkQIapDAdH3JilLwGxxiiF0WosNF_bxnROOBkOd_oAS05K-0lWTl8bmYopEUCbJ245f2LTpGXPB-02V1KVhO2P9PD637ZSOAQRH_tDRAggtXHH9kUxux3K-rqBIKYdKMxC6Sh-JffAjECsHAueyGTdtRHQz2mBhg0eQuskS5bJMSkcsiZ9XUZu_FNvtPlTnXDGm1wFDnkJansu0rS1_yfM_qrYvZg8CESgKOSv-aVDw2CtGhw-PvHGsxgDeTFc2ZDliDGcpDkb2lWuny61- -Hv25uU7O9I02dC9LKebvPeXkMnRqB7yyZlJdV3Ef54ajsgHgG12wdPfkvJYGceO88-MjNkgVb6xdpnA6FOxk_W4vlEBCv-JOnn64N2DqbpcLAq5JvXzYf2JRqCCF9XVi8VG1U0XCDNqLOefyh9TJQtPBgVMXccoY0_V7hzAFQtNcpPcAudKbc7dfNK0z87Xzdc9-idemFyGXBujEZ4O6ths4o8mNeC033QI_XkAcNsybQcPcNcboFSU07tWWH3wH2w6_bpR37WRgltzFoVrIswljz_D-Et1nBOYayPxMCL2YD3S74pn4Ph5fCdtmT65G7j7y48obyjTDfUHpw0Rd4e8rPO-ZSLkLDsvX92MkD4iNHj4LPtACvXQVOOHKXjrA_WCAb_b3C6Mn3QeNaBTVPLDqBlXIxXypOexWnRG4XbaB478COzGga1buWQyQwrC7YJgBm00]--></g></svg>