<?xml version="1.0" encoding="us-ascii" standalone="no"?><svg xmlns="http://www.w3.org/2000/svg" xmlns:xlink="http://www.w3.org/1999/xlink" contentStyleType="text/css" height="501px" preserveAspectRatio="none" style="width:805px;height:501px;background:#FFFFFF;" version="1.1" viewBox="0 0 805 501" width="805px" zoomAndPan="magnify"><defs/><g><!--cluster bo4e--><g id="cluster_bo4e"><path d="M579.5,6 L620.5,6 A3.75,3.75 0 0 1 623,8.5 L630,28.2969 L795.5,28.2969 A2.5,2.5 0 0 1 798,30.7969 L798,491.5 A2.5,2.5 0 0 1 795.5,494 L579.5,494 A2.5,2.5 0 0 1 577,491.5 L577,8.5 A2.5,2.5 0 0 1 579.5,6 " fill="none" style="stroke:#000000;stroke-width:1.5;"/><line style="stroke:#000000;stroke-width:1.5;" x1="577" x2="630" y1="28.2969" y2="28.2969"/><text fill="#000000" font-family="sans-serif" font-size="14" font-weight="bold" lengthAdjust="spacing" textLength="40" x="581" y="20.9951">bo4e</text></g><!--cluster com--><g id="cluster_com"><path d="M611,49 L690,49 A3.75,3.75 0 0 1 692.5,51.5 L699.5,71.2969 L764,71.2969 A2.5,2.5 0 0 1 766.5,73.7969 L766.5,354.5 A2.5,2.5 0 0 1 764,357 L611,357 A2.5,2.5 0 0 1 608.5,354.5 L608.5,51.5 A2.5,2.5 0 0 1 611,49 " fill="#E0A86C" style="stroke:#000000;stroke-width:1.5;"/><line style="stroke:#000000;stroke-width:1.5;" x1="608.5" x2="699.5" y1="71.2969" y2="71.2969"/><a href="https://bo4e.github.io/BO4E-python/v202401.3.1/api/bo4e.com.html" target="_top" title="https://bo4e.github.io/BO4E-python/v202401.3.1/api/bo4e.com.html" xlink:actuate="onRequest" xlink:href="https://bo4e.github.io/BO4E-python/v202401.3.1/api/bo4e.com.html" xlink:show="new" xlink:title="https://bo4e.github.io/BO4E-python/v202401.3.1/api/bo4e.com.html" xlink:type="simple"><text fill="#0000FF" font-family="sans-serif" font-size="14" font-weight="bold" lengthAdjust="spacing" text-decoration="underline" textLength="78" x="612.5" y="63.9951">bo4e.com</text></a></g><!--cluster enum--><g id="cluster_enum"><path d="M603.5,381 L693.5,381 A3.75,3.75 0 0 1 696,383.5 L703,403.2969 L771.5,403.2969 A2.5,2.5 0 0 1 774,405.7969 L774,467.5 A2.5,2.5 0 0 1 771.5,470 L603.5,470 A2.5,2.5 0 0 1 601,467.5 L601,383.5 A2.5,2.5 0 0 1 603.5,381 " fill="#D1C358" style="stroke:#000000;stroke-width:1.5;"/><line style="stroke:#000000;stroke-width:1.5;" x1="601" x2="703" y1="403.2969" y2="403.2969"/><a href="https://bo4e.github.io/BO4E-python/v202401.3.1/api/bo4e.enum.html" target="_top" title="https://bo4e.github.io/BO4E-python/v202401.3.1/api/bo4e.enum.html" xlink:actuate="onRequest" xlink:href="https://bo4e.github.io/BO4E-python/v202401.3.1/api/bo4e.enum.html" xlink:show="new" xlink:title="https://bo4e.github.io/BO4E-python/v202401.3.1/api/bo4e.enum.html" xlink:type="simple"><text fill="#0000FF" font-family="sans-serif" font-size="14" font-weight="bold" lengthAdjust="spacing" text-decoration="underline" textLength="89" x="605" y="395.9951">bo4e.enum</text></a></g><!--class Zeitraum--><g id="elem_Zeitraum"><rect codeLine="15" fill="#F1F1F1" height="37.9375" id="Zeitraum" rx="2.5" ry="2.5" style="stroke:#181818;stroke-width:0.5;" width="126" x="624.5" y="84.03"/><ellipse cx="639.5" cy="102.9987" fill="#ADD1B2" rx="11" ry="11" style="stroke:#181818;stroke-width:1.0;"/><path d="M642.4688,108.6394 Q641.8906,108.9362 641.25,109.0769 Q640.6094,109.2331 639.9063,109.2331 Q637.4063,109.2331 636.0781,107.5925 Q634.7656,105.9362 634.7656,102.8112 Q634.7656,99.6862 636.0781,98.03 Q637.4063,96.3737 639.9063,96.3737 Q640.6094,96.3737 641.25,96.53 Q641.9063,96.6862 642.4688,96.9831 L642.4688,99.7019 Q641.8438,99.1237 641.25,98.8581 Q640.6563,98.5769 640.0313,98.5769 Q638.6875,98.5769 638,99.655 Q637.3125,100.7175 637.3125,102.8112 Q637.3125,104.905 638,105.9831 Q638.6875,107.0456 640.0313,107.0456 Q640.6563,107.0456 641.25,106.78 Q641.8438,106.4987 642.4688,105.9206 L642.4688,108.6394 Z " fill="#000000"/><a href="https://bo4e.github.io/BO4E-python/v202401.3.1/api/bo4e.com.html#bo4e.com.zeitraum.Zeitraum" target="_top" title="https://bo4e.github.io/BO4E-python/v202401.3.1/api/bo4e.com.html#bo4e.com.zeitraum.Zeitraum" xlink:actuate="onRequest" xlink:href="https://bo4e.github.io/BO4E-python/v202401.3.1/api/bo4e.com.html#bo4e.com.zeitraum.Zeitraum" xlink:show="new" xlink:title="https://bo4e.github.io/BO4E-python/v202401.3.1/api/bo4e.com.html#bo4e.com.zeitraum.Zeitraum" xlink:type="simple"><text fill="#0000FF" font-family="sans-serif" font-size="14" lengthAdjust="spacing" text-decoration="underline" textLength="62" x="669.5" y="102.0251">Zeitraum</text></a><text fill="#000000" font-family="sans-serif" font-size="10" lengthAdjust="spacing" textLength="94" x="653.5" y="114.6091">bo4e.com.zeitraum</text></g><!--class Adresse--><g id="elem_Adresse"><rect codeLine="16" fill="#F1F1F1" height="37.9375" id="Adresse" rx="2.5" ry="2.5" style="stroke:#181818;stroke-width:0.5;" width="121" x="627" y="157.03"/><ellipse cx="642" cy="175.9987" fill="#ADD1B2" rx="11" ry="11" style="stroke:#181818;stroke-width:1.0;"/><path d="M644.9688,181.6394 Q644.3906,181.9362 643.75,182.0769 Q643.1094,182.2331 642.4063,182.2331 Q639.9063,182.2331 638.5781,180.5925 Q637.2656,178.9362 637.2656,175.8112 Q637.2656,172.6862 638.5781,171.03 Q639.9063,169.3737 642.4063,169.3737 Q643.1094,169.3737 643.75,169.53 Q644.4063,169.6862 644.9688,169.9831 L644.9688,172.7019 Q644.3438,172.1237 643.75,171.8581 Q643.1563,171.5769 642.5313,171.5769 Q641.1875,171.5769 640.5,172.655 Q639.8125,173.7175 639.8125,175.8112 Q639.8125,177.905 640.5,178.9831 Q641.1875,180.0456 642.5313,180.0456 Q643.1563,180.0456 643.75,179.78 Q644.3438,179.4987 644.9688,178.9206 L644.9688,181.6394 Z " fill="#000000"/><a href="https://bo4e.github.io/BO4E-python/v202401.3.1/api/bo4e.com.html#bo4e.com.adresse.Adresse" target="_top" title="https://bo4e.github.io/BO4E-python/v202401.3.1/api/bo4e.com.html#bo4e.com.adresse.Adresse" xlink:actuate="onRequest" xlink:href="https://bo4e.github.io/BO4E-python/v202401.3.1/api/bo4e.com.html#bo4e.com.adresse.Adresse" xlink:show="new" xlink:title="https://bo4e.github.io/BO4E-python/v202401.3.1/api/bo4e.com.html#bo4e.com.adresse.Adresse" xlink:type="simple"><text fill="#0000FF" font-family="sans-serif" font-size="14" lengthAdjust="spacing" text-decoration="underline" textLength="57" x="672" y="175.0251">Adresse</text></a><text fill="#000000" font-family="sans-serif" font-size="10" lengthAdjust="spacing" textLength="89" x="656" y="187.6091">bo4e.com.adresse</text></g><!--class Menge--><g id="elem_Menge"><rect codeLine="17" fill="#F1F1F1" height="37.9375" id="Menge" rx="2.5" ry="2.5" style="stroke:#181818;stroke-width:0.5;" width="117" x="629" y="230.03"/><ellipse cx="644" cy="248.9987" fill="#ADD1B2" rx="11" ry="11" style="stroke:#181818;stroke-width:1.0;"/><path d="M646.9688,254.6394 Q646.3906,254.9362 645.75,255.0769 Q645.1094,255.2331 644.4063,255.2331 Q641.9063,255.2331 640.5781,253.5925 Q639.2656,251.9362 639.2656,248.8112 Q639.2656,245.6862 640.5781,244.03 Q641.9063,242.3737 644.4063,242.3737 Q645.1094,242.3737 645.75,242.53 Q646.4063,242.6862 646.9688,242.9831 L646.9688,245.7019 Q646.3438,245.1237 645.75,244.8581 Q645.1563,244.5769 644.5313,244.5769 Q643.1875,244.5769 642.5,245.655 Q641.8125,246.7175 641.8125,248.8112 Q641.8125,250.905 642.5,251.9831 Q643.1875,253.0456 644.5313,253.0456 Q645.1563,253.0456 645.75,252.78 Q646.3438,252.4987 646.9688,251.9206 L646.9688,254.6394 Z " fill="#000000"/><a href="https://bo4e.github.io/BO4E-python/v202401.3.1/api/bo4e.com.html#bo4e.com.menge.Menge" target="_top" title="https://bo4e.github.io/BO4E-python/v202401.3.1/api/bo4e.com.html#bo4e.com.menge.Menge" xlink:actuate="onRequest" xlink:href="https://bo4e.github.io/BO4E-python/v202401.3.1/api/bo4e.com.html#bo4e.com.menge.Menge" xlink:show="new" xlink:title="https://bo4e.github.io/BO4E-python/v202401.3.1/api/bo4e.com.html#bo4e.com.menge.Menge" xlink:type="simple"><text fill="#0000FF" font-family="sans-serif" font-size="14" lengthAdjust="spacing" text-decoration="underline" textLength="48" x="676.5" y="248.0251">Menge</text></a><text fill="#000000" font-family="sans-serif" font-size="10" lengthAdjust="spacing" textLength="85" x="658" y="260.6091">bo4e.com.menge</text></g><!--class COM--><g id="elem_COM"><rect codeLine="18" fill="#F1F1F1" height="37.9375" id="COM" rx="2.5" ry="2.5" style="stroke:#181818;stroke-width:0.5;" width="104" x="635.5" y="303.03"/><ellipse cx="650.5" cy="321.9988" fill="#ADD1B2" rx="11" ry="11" style="stroke:#181818;stroke-width:1.0;"/><path d="M653.4688,327.6394 Q652.8906,327.9363 652.25,328.0769 Q651.6094,328.2331 650.9063,328.2331 Q648.4063,328.2331 647.0781,326.5925 Q645.7656,324.9363 645.7656,321.8113 Q645.7656,318.6863 647.0781,317.03 Q648.4063,315.3738 650.9063,315.3738 Q651.6094,315.3738 652.25,315.53 Q652.9063,315.6863 653.4688,315.9831 L653.4688,318.7019 Q652.8438,318.1238 652.25,317.8581 Q651.6563,317.5769 651.0313,317.5769 Q649.6875,317.5769 649,318.655 Q648.3125,319.7175 648.3125,321.8113 Q648.3125,323.905 649,324.9831 Q649.6875,326.0456 651.0313,326.0456 Q651.6563,326.0456 652.25,325.78 Q652.8438,325.4988 653.4688,324.9206 L653.4688,327.6394 Z " fill="#000000"/><a href="https://bo4e.github.io/BO4E-python/v202401.3.1/api/bo4e.com.html#bo4e.com.com.COM" target="_top" title="https://bo4e.github.io/BO4E-python/v202401.3.1/api/bo4e.com.html#bo4e.com.com.COM" xlink:actuate="onRequest" xlink:href="https://bo4e.github.io/BO4E-python/v202401.3.1/api/bo4e.com.html#bo4e.com.com.COM" xlink:show="new" xlink:title="https://bo4e.github.io/BO4E-python/v202401.3.1/api/bo4e.com.html#bo4e.com.com.COM" xlink:type="simple"><text fill="#0000FF" font-family="sans-serif" font-size="14" lengthAdjust="spacing" text-decoration="underline" textLength="33" x="684" y="321.0251">COM</text></a><text fill="#000000" font-family="sans-serif" font-size="10" lengthAdjust="spacing" textLength="72" x="664.5" y="333.6091">bo4e.com.com</text></g><!--class Zaehlertyp--><g id="elem_Zaehlertyp"><rect codeLine="21" fill="#F1F1F1" height="37.9375" id="Zaehlertyp" rx="2.5" ry="2.5" style="stroke:#181818;stroke-width:0.5;" width="141" x="617" y="416.03"/><ellipse cx="632" cy="434.9988" fill="#ADD1B2" rx="11" ry="11" style="stroke:#181818;stroke-width:1.0;"/><path d="M634.9688,440.6394 Q634.3906,440.9363 633.75,441.0769 Q633.1094,441.2331 632.4063,441.2331 Q629.9063,441.2331 628.5781,439.5925 Q627.2656,437.9363 627.2656,434.8113 Q627.2656,431.6863 628.5781,430.03 Q629.9063,428.3738 632.4063,428.3738 Q633.1094,428.3738 633.75,428.53 Q634.4063,428.6863 634.9688,428.9831 L634.9688,431.7019 Q634.3438,431.1238 633.75,430.8581 Q633.1563,430.5769 632.5313,430.5769 Q631.1875,430.5769 630.5,431.655 Q629.8125,432.7175 629.8125,434.8113 Q629.8125,436.905 630.5,437.9831 Q631.1875,439.0456 632.5313,439.0456 Q633.1563,439.0456 633.75,438.78 Q634.3438,438.4988 634.9688,437.9206 L634.9688,440.6394 Z " fill="#000000"/><a href="https://bo4e.github.io/BO4E-python/v202401.3.1/api/bo4e.enum.html#bo4e.enum.zaehlertyp.Zaehlertyp" target="_top" title="https://bo4e.github.io/BO4E-python/v202401.3.1/api/bo4e.enum.html#bo4e.enum.zaehlertyp.Zaehlertyp" xlink:actuate="onRequest" xlink:href="https://bo4e.github.io/BO4E-python/v202401.3.1/api/bo4e.enum.html#bo4e.enum.zaehlertyp.Zaehlertyp" xlink:show="new" xlink:title="https://bo4e.github.io/BO4E-python/v202401.3.1/api/bo4e.enum.html#bo4e.enum.zaehlertyp.Zaehlertyp" xlink:type="simple"><text fill="#0000FF" font-family="sans-serif" font-size="14" lengthAdjust="spacing" text-decoration="underline" textLength="74" x="663.5" y="434.0251">Zaehlertyp</text></a><text fill="#000000" font-family="sans-serif" font-size="10" lengthAdjust="spacing" textLength="109" x="646" y="446.6091">bo4e.enum.zaehlertyp</text></g><!--class Ausschreibungsdetail--><g id="elem_Ausschreibungsdetail"><rect codeLine="3" fill="#F1F1F1" height="176.3125" id="Ausschreibungsdetail" rx="2.5" ry="2.5" style="stroke:#181818;stroke-width:0.5;" width="332" x="7" y="168.84"/><ellipse cx="93.25" cy="187.8087" fill="#ADD1B2" rx="11" ry="11" style="stroke:#181818;stroke-width:1.0;"/><path d="M96.2188,193.4494 Q95.6406,193.7462 95,193.8869 Q94.3594,194.0431 93.6563,194.0431 Q91.1563,194.0431 89.8281,192.4025 Q88.5156,190.7462 88.5156,187.6212 Q88.5156,184.4962 89.8281,182.84 Q91.1563,181.1837 93.6563,181.1837 Q94.3594,181.1837 95,181.34 Q95.6563,181.4962 96.2188,181.7931 L96.2188,184.5119 Q95.5938,183.9337 95,183.6681 Q94.4063,183.3869 93.7813,183.3869 Q92.4375,183.3869 91.75,184.465 Q91.0625,185.5275 91.0625,187.6212 Q91.0625,189.715 91.75,190.7931 Q92.4375,191.8556 93.7813,191.8556 Q94.4063,191.8556 95,191.59 Q95.5938,191.3087 96.2188,190.7306 L96.2188,193.4494 Z " fill="#000000"/><a href="https://bo4e.github.io/BO4E-python/v202401.3.1/api/bo4e.com.html#bo4e.com.ausschreibungsdetail.Ausschreibungsdetail" target="_top" title="https://bo4e.github.io/BO4E-python/v202401.3.1/api/bo4e.com.html#bo4e.com.ausschreibungsdetail.Ausschreibungsdetail" xlink:actuate="onRequest" xlink:href="https://bo4e.github.io/BO4E-python/v202401.3.1/api/bo4e.com.html#bo4e.com.ausschreibungsdetail.Ausschreibungsdetail" xlink:show="new" xlink:title="https://bo4e.github.io/BO4E-python/v202401.3.1/api/bo4e.com.html#bo4e.com.ausschreibungsdetail.Ausschreibungsdetail" xlink:type="simple"><text fill="#0000FF" font-family="sans-serif" font-size="14" lengthAdjust="spacing" text-decoration="underline" textLength="149" x="114.75" y="186.8351">Ausschreibungsdetail</text></a><text fill="#000000" font-family="sans-serif" font-size="10" lengthAdjust="spacing" textLength="151" x="113.75" y="199.4191">bo4e.com.ausschreibungsdetail</text><line style="stroke:#181818;stroke-width:0.5;" x1="8" x2="338" y1="206.7775" y2="206.7775"/><text fill="#000000" font-family="sans-serif" font-size="14" lengthAdjust="spacing" textLength="241" x="13" y="223.7726">marktlokationsId : str [0..1] = None</text><text fill="#000000" font-family="sans-serif" font-size="14" lengthAdjust="spacing" textLength="268" x="13" y="240.0695">netzebeneLieferung : str [0..1] = None</text><text fill="#000000" font-family="sans-serif" font-size="14" lengthAdjust="spacing" textLength="268" x="13" y="256.3664">netzebeneMessung : str [0..1] = None</text><text fill="#000000" font-family="sans-serif" font-size="14" lengthAdjust="spacing" textLength="222" x="13" y="272.6632">netzbetreiber : str [0..1] = None</text><text fill="#000000" font-family="sans-serif" font-size="14" lengthAdjust="spacing" textLength="172" x="13" y="288.9601">kunde : str [0..1] = None</text><text fill="#000000" font-family="sans-serif" font-size="14" lengthAdjust="spacing" textLength="237" x="13" y="305.257">zaehlernummer : str [0..1] = None</text><text fill="#000000" font-family="sans-serif" font-size="14" lengthAdjust="spacing" textLength="320" x="13" y="321.5539">marktlokationsbezeichnung : str [0..1] = None</text><text fill="#000000" font-family="sans-serif" font-size="14" lengthAdjust="spacing" textLength="295" x="13" y="337.8507">istLastgangVorhanden : bool [0..1] = None</text></g><!--link Ausschreibungsdetail to COM--><g id="link_Ausschreibungsdetail_COM"><path codeLine="24" d="M339.41,344.57 C349.26,347.85 359.17,350.71 369,353 C452.11,372.35 476.29,363.31 561,353 C585.73,349.99 595.2347,348.4608 617.7447,342.3708 " fill="none" id="Ausschreibungsdetail-to-COM" style="stroke:#181818;stroke-width:1.0;"/><polygon fill="none" points="635.12,337.67,616.1777,336.5791,619.3116,348.1626,635.12,337.67" style="stroke:#181818;stroke-width:1.0;"/></g><!--link Ausschreibungsdetail to Adresse--><g id="link_Ausschreibungsdetail_Adresse"><path codeLine="25" d="M322.75,168.45 C337.99,162.2 353.55,156.86 369,153 C456.8,131.05 550.4545,144.0378 615.0045,158.0878 " fill="none" id="Ausschreibungsdetail-to-Adresse" style="stroke:#181818;stroke-width:1.0;"/><polygon fill="#181818" points="626.73,160.64,621.718,155.4554,615.0045,158.0878,620.0165,163.2724,626.73,160.64" style="stroke:#181818;stroke-width:1.0;"/><text fill="#000000" font-family="sans-serif" font-size="13" lengthAdjust="spacing" textLength="146" x="392" y="139.0669">marktlokationsadresse</text><text fill="#000000" font-family="sans-serif" font-size="13" lengthAdjust="spacing" textLength="24" x="595.2256" y="171.9033">0..1</text></g><!--link Ausschreibungsdetail to Adresse--><g id="link_Ausschreibungsdetail_Adresse"><path codeLine="26" d="M339.33,230.87 C437.77,215.31 544.917,198.3722 614.937,187.3122 " fill="none" id="Ausschreibungsdetail-to-Adresse-1" style="stroke:#181818;stroke-width:1.0;"/><polygon fill="#181818" points="626.79,185.44,620.2394,182.4251,614.937,187.3122,621.4876,190.3271,626.79,185.44" style="stroke:#181818;stroke-width:1.0;"/><text fill="#000000" font-family="sans-serif" font-size="13" lengthAdjust="spacing" textLength="118" x="406" y="194.0669">rechnungsadresse</text><text fill="#000000" font-family="sans-serif" font-size="13" lengthAdjust="spacing" textLength="24" x="594.8373" y="199.3671">0..1</text></g><!--link Ausschreibungsdetail to Zeitraum--><g id="link_Ausschreibungsdetail_Zeitraum"><path codeLine="27" d="M275.36,168.37 C303.85,148.2 336.1,129.39 369,118 C453.74,88.67 546.8687,89.567 612.3287,94.837 " fill="none" id="Ausschreibungsdetail-to-Zeitraum" style="stroke:#181818;stroke-width:1.0;"/><polygon fill="#181818" points="624.29,95.8,618.6303,91.3314,612.3287,94.837,617.9884,99.3056,624.29,95.8" style="stroke:#181818;stroke-width:1.0;"/><text fill="#000000" font-family="sans-serif" font-size="13" lengthAdjust="spacing" textLength="88" x="421" y="89.0669">lieferzeitraum</text><text fill="#000000" font-family="sans-serif" font-size="13" lengthAdjust="spacing" textLength="24" x="592.534" y="107.9048">0..1</text></g><!--link Ausschreibungsdetail to Zaehlertyp--><g id="link_Ausschreibungsdetail_Zaehlertyp"><path codeLine="28" d="M285.36,345.62 C311.55,362.77 340.25,378.86 369,390 C450.24,421.48 538.8214,430.7679 604.7214,433.6379 " fill="none" id="Ausschreibungsdetail-to-Zaehlertyp" style="stroke:#181818;stroke-width:1.0;"/><polygon fill="#181818" points="616.71,434.16,610.8897,429.9027,604.7214,433.6379,610.5416,437.8952,616.71,434.16" style="stroke:#181818;stroke-width:1.0;"/><text fill="#000000" font-family="sans-serif" font-size="13" lengthAdjust="spacing" textLength="93" x="418.5" y="386.0669">zaehlertechnik</text><text fill="#000000" font-family="sans-serif" font-size="13" lengthAdjust="spacing" textLength="24" x="585.0778" y="446.8471">0..1</text></g><!--link Ausschreibungsdetail to Menge--><g id="link_Ausschreibungsdetail_Menge"><path codeLine="29" d="M339.33,254.42 C438.65,252.87 546.9015,251.1775 616.6515,250.0875 " fill="none" id="Ausschreibungsdetail-to-Menge" style="stroke:#181818;stroke-width:1.0;"/><polygon fill="#181818" points="628.65,249.9,622.5882,245.9942,616.6515,250.0875,622.7132,253.9933,628.65,249.9" style="stroke:#181818;stroke-width:1.0;"/><text fill="#000000" font-family="sans-serif" font-size="13" lengthAdjust="spacing" textLength="136" x="397" y="248.0669">prognoseJahresarbeit</text><text fill="#000000" font-family="sans-serif" font-size="13" lengthAdjust="spacing" textLength="24" x="596.9008" y="262.893">0..1</text></g><!--link Ausschreibungsdetail to Menge--><g id="link_Ausschreibungsdetail_Menge"><path codeLine="30" d="M339.16,279.01 C407.92,284.9 488.49,287.55 561,279 C583.36,276.36 595.8658,274.1103 616.9558,268.7803 " fill="none" id="Ausschreibungsdetail-to-Menge-1" style="stroke:#181818;stroke-width:1.0;"/><polygon fill="#181818" points="628.59,265.84,621.7928,263.4321,616.9558,268.7803,623.753,271.1882,628.59,265.84" style="stroke:#181818;stroke-width:1.0;"/><text fill="#000000" font-family="sans-serif" font-size="13" lengthAdjust="spacing" textLength="190" x="370" y="275.0669">prognoseArbeitLieferzeitraum</text><text fill="#000000" font-family="sans-serif" font-size="13" lengthAdjust="spacing" textLength="24" x="596.8342" y="280.5765">0..1</text></g><!--link Ausschreibungsdetail to Menge--><g id="link_Ausschreibungsdetail_Menge"><path codeLine="31" d="M339.3,329.02 C413.21,349.54 497.73,355.6 561,310 C570.12,303.43 560.98,293.88 569,286 C585.01,270.25 595.997,264.065 617.147,258.865 " fill="none" id="Ausschreibungsdetail-to-Menge-2" style="stroke:#181818;stroke-width:1.0;"/><polygon fill="#181818" points="628.8,256,622.0185,253.5482,617.147,258.865,623.9285,261.3168,628.8,256" style="stroke:#181818;stroke-width:1.0;"/><text fill="#000000" font-family="sans-serif" font-size="13" lengthAdjust="spacing" textLength="114" x="408" y="306.0669">prognoseLeistung</text><text fill="#000000" font-family="sans-serif" font-size="13" lengthAdjust="spacing" textLength="24" x="597.0672" y="253.0196">0..1</text></g><!--SRC=[jLL1RzCm53ull-AflI7LRRU2fWWcbMa7KCjk75PwS9BNs6fYHxO3Me7_ZkqqQJVS0QKzE7al-Vpbyyltx09N1em4nNDc8ECAKyEbYAAqe5f3Rx5WnbGw7WuJEK6ISyFgX70vV7y_kHjKZuP9CVnwERgSZCRaYeo7jE8DD9KbOQOi-br6QwrJff0djSXrXeRoWam33o7qSBdy8jvgli5uFBfvaRC7L0Sfu7jqKLArDeLSKxTC_I636BHHi1WHCbx2E_Wa1KON0iq64nGuuxX2PId-W9kZrY-Y4ZHE3AemP5sB3CElDXHPWKhKPNbezjD59RX1dZ9nK0_NPaQroQd8Fql5gFsqiCX4ok8Pz6SK2LgYhcYAfp03jDbowVzIcqB_RZIzVdFh_j0Pd6VhOHIjI_Am3Q0DmgvgyLvZ2psBCfefwnmaq-OEs_i1ipSl6tytyLb4bIXo97Dt1NyDo_4mByQ3pYB5ZTlxETWH5c67bs01rgqdCIlQLjjpgqltxUfow6VZzEhrzKdysdsllqktJMyUA_BGXR0BVo_6iscDTRlKTN9uhnqCVjnqVUXgVG1dWQ-WvtQ7tWxUsZQ6frlGrgd7KTapo6zUnx1q3Hv3uRVkjfN_biINSQ_aCRGrTQhu-b_4D1qKGwLaBgJ6ZzHEqrGbLjF_y4mzm-oezONuPcXF13ifYXYtfr29fJsdTAIP_0PXsXN78jE_0000]--></g></svg>