<?xml version="1.0" encoding="us-ascii" standalone="no"?><svg xmlns="http://www.w3.org/2000/svg" xmlns:xlink="http://www.w3.org/1999/xlink" contentStyleType="text/css" height="687px" preserveAspectRatio="none" style="width:892px;height:687px;background:#FFFFFF;" version="1.1" viewBox="0 0 892 687" width="892px" zoomAndPan="magnify"><defs/><g><!--cluster bo4e--><g id="cluster_bo4e"><path d="M645.5,6 L686.5,6 A3.75,3.75 0 0 1 689,8.5 L696,28.2969 L882.5,28.2969 A2.5,2.5 0 0 1 885,30.7969 L885,677.5 A2.5,2.5 0 0 1 882.5,680 L645.5,680 A2.5,2.5 0 0 1 643,677.5 L643,8.5 A2.5,2.5 0 0 1 645.5,6 " fill="none" style="stroke:#000000;stroke-width:1.5;"/><line style="stroke:#000000;stroke-width:1.5;" x1="643" x2="696" y1="28.2969" y2="28.2969"/><text fill="#000000" font-family="sans-serif" font-size="14" font-weight="bold" lengthAdjust="spacing" textLength="40" x="647" y="20.9951">bo4e</text></g><!--cluster bo--><g id="cluster_bo"><path d="M672.5,49 L738.5,49 A3.75,3.75 0 0 1 741,51.5 L748,71.2969 L855.5,71.2969 A2.5,2.5 0 0 1 858,73.7969 L858,281.5 A2.5,2.5 0 0 1 855.5,284 L672.5,284 A2.5,2.5 0 0 1 670,281.5 L670,51.5 A2.5,2.5 0 0 1 672.5,49 " fill="#B6D7A8" style="stroke:#000000;stroke-width:1.5;"/><line style="stroke:#000000;stroke-width:1.5;" x1="670" x2="748" y1="71.2969" y2="71.2969"/><a href="https://bo4e.github.io/BO4E-python/v202401.5.0/api/bo4e.bo.html" target="_top" title="https://bo4e.github.io/BO4E-python/v202401.5.0/api/bo4e.bo.html" xlink:actuate="onRequest" xlink:href="https://bo4e.github.io/BO4E-python/v202401.5.0/api/bo4e.bo.html" xlink:show="new" xlink:title="https://bo4e.github.io/BO4E-python/v202401.5.0/api/bo4e.bo.html" xlink:type="simple"><text fill="#0000FF" font-family="sans-serif" font-size="14" font-weight="bold" lengthAdjust="spacing" text-decoration="underline" textLength="65" x="674" y="63.9951">bo4e.bo</text></a></g><!--cluster com--><g id="cluster_com"><path d="M674.5,308 L753.5,308 A3.75,3.75 0 0 1 756,310.5 L763,330.2969 L853.5,330.2969 A2.5,2.5 0 0 1 856,332.7969 L856,467.5 A2.5,2.5 0 0 1 853.5,470 L674.5,470 A2.5,2.5 0 0 1 672,467.5 L672,310.5 A2.5,2.5 0 0 1 674.5,308 " fill="#E0A86C" style="stroke:#000000;stroke-width:1.5;"/><line style="stroke:#000000;stroke-width:1.5;" x1="672" x2="763" y1="330.2969" y2="330.2969"/><a href="https://bo4e.github.io/BO4E-python/v202401.5.0/api/bo4e.com.html" target="_top" title="https://bo4e.github.io/BO4E-python/v202401.5.0/api/bo4e.com.html" xlink:actuate="onRequest" xlink:href="https://bo4e.github.io/BO4E-python/v202401.5.0/api/bo4e.com.html" xlink:show="new" xlink:title="https://bo4e.github.io/BO4E-python/v202401.5.0/api/bo4e.com.html" xlink:type="simple"><text fill="#0000FF" font-family="sans-serif" font-size="14" font-weight="bold" lengthAdjust="spacing" text-decoration="underline" textLength="78" x="676" y="322.9951">bo4e.com</text></a></g><!--cluster enum--><g id="cluster_enum"><path d="M669.5,494 L759.5,494 A3.75,3.75 0 0 1 762,496.5 L769,516.2969 L858.5,516.2969 A2.5,2.5 0 0 1 861,518.7969 L861,653.5 A2.5,2.5 0 0 1 858.5,656 L669.5,656 A2.5,2.5 0 0 1 667,653.5 L667,496.5 A2.5,2.5 0 0 1 669.5,494 " fill="#D1C358" style="stroke:#000000;stroke-width:1.5;"/><line style="stroke:#000000;stroke-width:1.5;" x1="667" x2="769" y1="516.2969" y2="516.2969"/><a href="https://bo4e.github.io/BO4E-python/v202401.5.0/api/bo4e.enum.html" target="_top" title="https://bo4e.github.io/BO4E-python/v202401.5.0/api/bo4e.enum.html" xlink:actuate="onRequest" xlink:href="https://bo4e.github.io/BO4E-python/v202401.5.0/api/bo4e.enum.html" xlink:show="new" xlink:title="https://bo4e.github.io/BO4E-python/v202401.5.0/api/bo4e.enum.html" xlink:type="simple"><text fill="#0000FF" font-family="sans-serif" font-size="14" font-weight="bold" lengthAdjust="spacing" text-decoration="underline" textLength="89" x="671" y="508.9951">bo4e.enum</text></a></g><!--class Geschaeftsobjekt--><g id="elem_Geschaeftsobjekt"><rect codeLine="9" fill="#F1F1F1" height="37.9375" id="Geschaeftsobjekt" rx="2.5" ry="2.5" style="stroke:#181818;stroke-width:0.5;" width="156" x="686" y="84.03"/><ellipse cx="701" cy="102.9987" fill="#ADD1B2" rx="11" ry="11" style="stroke:#181818;stroke-width:1.0;"/><path d="M703.9688,108.6394 Q703.3906,108.9362 702.75,109.0769 Q702.1094,109.2331 701.4063,109.2331 Q698.9063,109.2331 697.5781,107.5925 Q696.2656,105.9362 696.2656,102.8112 Q696.2656,99.6862 697.5781,98.03 Q698.9063,96.3737 701.4063,96.3737 Q702.1094,96.3737 702.75,96.53 Q703.4063,96.6862 703.9688,96.9831 L703.9688,99.7019 Q703.3438,99.1237 702.75,98.8581 Q702.1563,98.5769 701.5313,98.5769 Q700.1875,98.5769 699.5,99.655 Q698.8125,100.7175 698.8125,102.8112 Q698.8125,104.905 699.5,105.9831 Q700.1875,107.0456 701.5313,107.0456 Q702.1563,107.0456 702.75,106.78 Q703.3438,106.4987 703.9688,105.9206 L703.9688,108.6394 Z " fill="#000000"/><a href="https://bo4e.github.io/BO4E-python/v202401.5.0/api/bo4e.bo.html#bo4e.bo.geschaeftsobjekt.Geschaeftsobjekt" target="_top" title="https://bo4e.github.io/BO4E-python/v202401.5.0/api/bo4e.bo.html#bo4e.bo.geschaeftsobjekt.Geschaeftsobjekt" xlink:actuate="onRequest" xlink:href="https://bo4e.github.io/BO4E-python/v202401.5.0/api/bo4e.bo.html#bo4e.bo.geschaeftsobjekt.Geschaeftsobjekt" xlink:show="new" xlink:title="https://bo4e.github.io/BO4E-python/v202401.5.0/api/bo4e.bo.html#bo4e.bo.geschaeftsobjekt.Geschaeftsobjekt" xlink:type="simple"><text fill="#0000FF" font-family="sans-serif" font-size="14" lengthAdjust="spacing" text-decoration="underline" textLength="122" x="716" y="102.0251">Geschaeftsobjekt</text></a><text fill="#000000" font-family="sans-serif" font-size="10" lengthAdjust="spacing" textLength="124" x="715" y="114.6091">bo4e.bo.geschaeftsobjekt</text></g><!--class Marktlokation--><g id="elem_Marktlokation"><rect codeLine="10" fill="#F1F1F1" height="37.9375" id="Marktlokation" rx="2.5" ry="2.5" style="stroke:#181818;stroke-width:0.5;" width="140" x="694" y="157.03"/><ellipse cx="709" cy="175.9987" fill="#ADD1B2" rx="11" ry="11" style="stroke:#181818;stroke-width:1.0;"/><path d="M711.9688,181.6394 Q711.3906,181.9362 710.75,182.0769 Q710.1094,182.2331 709.4063,182.2331 Q706.9063,182.2331 705.5781,180.5925 Q704.2656,178.9362 704.2656,175.8112 Q704.2656,172.6862 705.5781,171.03 Q706.9063,169.3737 709.4063,169.3737 Q710.1094,169.3737 710.75,169.53 Q711.4063,169.6862 711.9688,169.9831 L711.9688,172.7019 Q711.3438,172.1237 710.75,171.8581 Q710.1563,171.5769 709.5313,171.5769 Q708.1875,171.5769 707.5,172.655 Q706.8125,173.7175 706.8125,175.8112 Q706.8125,177.905 707.5,178.9831 Q708.1875,180.0456 709.5313,180.0456 Q710.1563,180.0456 710.75,179.78 Q711.3438,179.4987 711.9688,178.9206 L711.9688,181.6394 Z " fill="#000000"/><a href="https://bo4e.github.io/BO4E-python/v202401.5.0/api/bo4e.bo.html#bo4e.bo.marktlokation.Marktlokation" target="_top" title="https://bo4e.github.io/BO4E-python/v202401.5.0/api/bo4e.bo.html#bo4e.bo.marktlokation.Marktlokation" xlink:actuate="onRequest" xlink:href="https://bo4e.github.io/BO4E-python/v202401.5.0/api/bo4e.bo.html#bo4e.bo.marktlokation.Marktlokation" xlink:show="new" xlink:title="https://bo4e.github.io/BO4E-python/v202401.5.0/api/bo4e.bo.html#bo4e.bo.marktlokation.Marktlokation" xlink:type="simple"><text fill="#0000FF" font-family="sans-serif" font-size="14" lengthAdjust="spacing" text-decoration="underline" textLength="92" x="731" y="175.0251">Marktlokation</text></a><text fill="#000000" font-family="sans-serif" font-size="10" lengthAdjust="spacing" textLength="108" x="723" y="187.6091">bo4e.bo.marktlokation</text></g><!--class Messlokation--><g id="elem_Messlokation"><rect codeLine="11" fill="#F1F1F1" height="37.9375" id="Messlokation" rx="2.5" ry="2.5" style="stroke:#181818;stroke-width:0.5;" width="137" x="695.5" y="230.03"/><ellipse cx="710.5" cy="248.9987" fill="#ADD1B2" rx="11" ry="11" style="stroke:#181818;stroke-width:1.0;"/><path d="M713.4688,254.6394 Q712.8906,254.9362 712.25,255.0769 Q711.6094,255.2331 710.9063,255.2331 Q708.4063,255.2331 707.0781,253.5925 Q705.7656,251.9362 705.7656,248.8112 Q705.7656,245.6862 707.0781,244.03 Q708.4063,242.3737 710.9063,242.3737 Q711.6094,242.3737 712.25,242.53 Q712.9063,242.6862 713.4688,242.9831 L713.4688,245.7019 Q712.8438,245.1237 712.25,244.8581 Q711.6563,244.5769 711.0313,244.5769 Q709.6875,244.5769 709,245.655 Q708.3125,246.7175 708.3125,248.8112 Q708.3125,250.905 709,251.9831 Q709.6875,253.0456 711.0313,253.0456 Q711.6563,253.0456 712.25,252.78 Q712.8438,252.4987 713.4688,251.9206 L713.4688,254.6394 Z " fill="#000000"/><a href="https://bo4e.github.io/BO4E-python/v202401.5.0/api/bo4e.bo.html#bo4e.bo.messlokation.Messlokation" target="_top" title="https://bo4e.github.io/BO4E-python/v202401.5.0/api/bo4e.bo.html#bo4e.bo.messlokation.Messlokation" xlink:actuate="onRequest" xlink:href="https://bo4e.github.io/BO4E-python/v202401.5.0/api/bo4e.bo.html#bo4e.bo.messlokation.Messlokation" xlink:show="new" xlink:title="https://bo4e.github.io/BO4E-python/v202401.5.0/api/bo4e.bo.html#bo4e.bo.messlokation.Messlokation" xlink:type="simple"><text fill="#0000FF" font-family="sans-serif" font-size="14" lengthAdjust="spacing" text-decoration="underline" textLength="91" x="731.5" y="248.0251">Messlokation</text></a><text fill="#000000" font-family="sans-serif" font-size="10" lengthAdjust="spacing" textLength="105" x="724.5" y="260.6091">bo4e.bo.messlokation</text></g><!--class Zeitreihenwert--><g id="elem_Zeitreihenwert"><rect codeLine="14" fill="#F1F1F1" height="37.9375" id="Zeitreihenwert" rx="2.5" ry="2.5" style="stroke:#181818;stroke-width:0.5;" width="152" x="688" y="343.03"/><ellipse cx="703" cy="361.9988" fill="#ADD1B2" rx="11" ry="11" style="stroke:#181818;stroke-width:1.0;"/><path d="M705.9688,367.6394 Q705.3906,367.9363 704.75,368.0769 Q704.1094,368.2331 703.4063,368.2331 Q700.9063,368.2331 699.5781,366.5925 Q698.2656,364.9363 698.2656,361.8113 Q698.2656,358.6863 699.5781,357.03 Q700.9063,355.3738 703.4063,355.3738 Q704.1094,355.3738 704.75,355.53 Q705.4063,355.6863 705.9688,355.9831 L705.9688,358.7019 Q705.3438,358.1238 704.75,357.8581 Q704.1563,357.5769 703.5313,357.5769 Q702.1875,357.5769 701.5,358.655 Q700.8125,359.7175 700.8125,361.8113 Q700.8125,363.905 701.5,364.9831 Q702.1875,366.0456 703.5313,366.0456 Q704.1563,366.0456 704.75,365.78 Q705.3438,365.4988 705.9688,364.9206 L705.9688,367.6394 Z " fill="#000000"/><a href="https://bo4e.github.io/BO4E-python/v202401.5.0/api/bo4e.com.html#bo4e.com.zeitreihenwert.Zeitreihenwert" target="_top" title="https://bo4e.github.io/BO4E-python/v202401.5.0/api/bo4e.com.html#bo4e.com.zeitreihenwert.Zeitreihenwert" xlink:actuate="onRequest" xlink:href="https://bo4e.github.io/BO4E-python/v202401.5.0/api/bo4e.com.html#bo4e.com.zeitreihenwert.Zeitreihenwert" xlink:show="new" xlink:title="https://bo4e.github.io/BO4E-python/v202401.5.0/api/bo4e.com.html#bo4e.com.zeitreihenwert.Zeitreihenwert" xlink:type="simple"><text fill="#0000FF" font-family="sans-serif" font-size="14" lengthAdjust="spacing" text-decoration="underline" textLength="101" x="726.5" y="361.0251">Zeitreihenwert</text></a><text fill="#000000" font-family="sans-serif" font-size="10" lengthAdjust="spacing" textLength="120" x="717" y="373.6091">bo4e.com.zeitreihenwert</text></g><!--class Menge--><g id="elem_Menge"><rect codeLine="15" fill="#F1F1F1" height="37.9375" id="Menge" rx="2.5" ry="2.5" style="stroke:#181818;stroke-width:0.5;" width="117" x="705.5" y="416.03"/><ellipse cx="720.5" cy="434.9988" fill="#ADD1B2" rx="11" ry="11" style="stroke:#181818;stroke-width:1.0;"/><path d="M723.4688,440.6394 Q722.8906,440.9363 722.25,441.0769 Q721.6094,441.2331 720.9063,441.2331 Q718.4063,441.2331 717.0781,439.5925 Q715.7656,437.9363 715.7656,434.8113 Q715.7656,431.6863 717.0781,430.03 Q718.4063,428.3738 720.9063,428.3738 Q721.6094,428.3738 722.25,428.53 Q722.9063,428.6863 723.4688,428.9831 L723.4688,431.7019 Q722.8438,431.1238 722.25,430.8581 Q721.6563,430.5769 721.0313,430.5769 Q719.6875,430.5769 719,431.655 Q718.3125,432.7175 718.3125,434.8113 Q718.3125,436.905 719,437.9831 Q719.6875,439.0456 721.0313,439.0456 Q721.6563,439.0456 722.25,438.78 Q722.8438,438.4988 723.4688,437.9206 L723.4688,440.6394 Z " fill="#000000"/><a href="https://bo4e.github.io/BO4E-python/v202401.5.0/api/bo4e.com.html#bo4e.com.menge.Menge" target="_top" title="https://bo4e.github.io/BO4E-python/v202401.5.0/api/bo4e.com.html#bo4e.com.menge.Menge" xlink:actuate="onRequest" xlink:href="https://bo4e.github.io/BO4E-python/v202401.5.0/api/bo4e.com.html#bo4e.com.menge.Menge" xlink:show="new" xlink:title="https://bo4e.github.io/BO4E-python/v202401.5.0/api/bo4e.com.html#bo4e.com.menge.Menge" xlink:type="simple"><text fill="#0000FF" font-family="sans-serif" font-size="14" lengthAdjust="spacing" text-decoration="underline" textLength="48" x="753" y="434.0251">Menge</text></a><text fill="#000000" font-family="sans-serif" font-size="10" lengthAdjust="spacing" textLength="85" x="734.5" y="446.6091">bo4e.com.menge</text></g><!--class Sparte--><g id="elem_Sparte"><rect codeLine="18" fill="#F1F1F1" height="37.9375" id="Sparte" rx="2.5" ry="2.5" style="stroke:#181818;stroke-width:0.5;" width="121" x="703.5" y="529.03"/><ellipse cx="718.5" cy="547.9988" fill="#ADD1B2" rx="11" ry="11" style="stroke:#181818;stroke-width:1.0;"/><path d="M721.4688,553.6394 Q720.8906,553.9363 720.25,554.0769 Q719.6094,554.2331 718.9063,554.2331 Q716.4063,554.2331 715.0781,552.5925 Q713.7656,550.9363 713.7656,547.8113 Q713.7656,544.6863 715.0781,543.03 Q716.4063,541.3738 718.9063,541.3738 Q719.6094,541.3738 720.25,541.53 Q720.9063,541.6863 721.4688,541.9831 L721.4688,544.7019 Q720.8438,544.1238 720.25,543.8581 Q719.6563,543.5769 719.0313,543.5769 Q717.6875,543.5769 717,544.655 Q716.3125,545.7175 716.3125,547.8113 Q716.3125,549.905 717,550.9831 Q717.6875,552.0456 719.0313,552.0456 Q719.6563,552.0456 720.25,551.78 Q720.8438,551.4988 721.4688,550.9206 L721.4688,553.6394 Z " fill="#000000"/><a href="https://bo4e.github.io/BO4E-python/v202401.5.0/api/bo4e.enum.html#bo4e.enum.sparte.Sparte" target="_top" title="https://bo4e.github.io/BO4E-python/v202401.5.0/api/bo4e.enum.html#bo4e.enum.sparte.Sparte" xlink:actuate="onRequest" xlink:href="https://bo4e.github.io/BO4E-python/v202401.5.0/api/bo4e.enum.html#bo4e.enum.sparte.Sparte" xlink:show="new" xlink:title="https://bo4e.github.io/BO4E-python/v202401.5.0/api/bo4e.enum.html#bo4e.enum.sparte.Sparte" xlink:type="simple"><text fill="#0000FF" font-family="sans-serif" font-size="14" lengthAdjust="spacing" text-decoration="underline" textLength="45" x="754.5" y="547.0251">Sparte</text></a><text fill="#000000" font-family="sans-serif" font-size="10" lengthAdjust="spacing" textLength="89" x="732.5" y="559.6091">bo4e.enum.sparte</text></g><!--class Mengeneinheit--><g id="elem_Mengeneinheit"><rect codeLine="19" fill="#F1F1F1" height="37.9375" id="Mengeneinheit" rx="2.5" ry="2.5" style="stroke:#181818;stroke-width:0.5;" width="162" x="683" y="602.03"/><ellipse cx="698" cy="620.9988" fill="#ADD1B2" rx="11" ry="11" style="stroke:#181818;stroke-width:1.0;"/><path d="M700.9688,626.6394 Q700.3906,626.9363 699.75,627.0769 Q699.1094,627.2331 698.4063,627.2331 Q695.9063,627.2331 694.5781,625.5925 Q693.2656,623.9363 693.2656,620.8113 Q693.2656,617.6863 694.5781,616.03 Q695.9063,614.3738 698.4063,614.3738 Q699.1094,614.3738 699.75,614.53 Q700.4063,614.6863 700.9688,614.9831 L700.9688,617.7019 Q700.3438,617.1238 699.75,616.8581 Q699.1563,616.5769 698.5313,616.5769 Q697.1875,616.5769 696.5,617.655 Q695.8125,618.7175 695.8125,620.8113 Q695.8125,622.905 696.5,623.9831 Q697.1875,625.0456 698.5313,625.0456 Q699.1563,625.0456 699.75,624.78 Q700.3438,624.4988 700.9688,623.9206 L700.9688,626.6394 Z " fill="#000000"/><a href="https://bo4e.github.io/BO4E-python/v202401.5.0/api/bo4e.enum.html#bo4e.enum.mengeneinheit.Mengeneinheit" target="_top" title="https://bo4e.github.io/BO4E-python/v202401.5.0/api/bo4e.enum.html#bo4e.enum.mengeneinheit.Mengeneinheit" xlink:actuate="onRequest" xlink:href="https://bo4e.github.io/BO4E-python/v202401.5.0/api/bo4e.enum.html#bo4e.enum.mengeneinheit.Mengeneinheit" xlink:show="new" xlink:title="https://bo4e.github.io/BO4E-python/v202401.5.0/api/bo4e.enum.html#bo4e.enum.mengeneinheit.Mengeneinheit" xlink:type="simple"><text fill="#0000FF" font-family="sans-serif" font-size="14" lengthAdjust="spacing" text-decoration="underline" textLength="104" x="725" y="620.0251">Mengeneinheit</text></a><text fill="#000000" font-family="sans-serif" font-size="10" lengthAdjust="spacing" textLength="130" x="712" y="632.6091">bo4e.enum.mengeneinheit</text></g><!--class Lastgang--><g id="elem_Lastgang"><rect codeLine="3" fill="#F1F1F1" height="78.5313" id="Lastgang" rx="2.5" ry="2.5" style="stroke:#181818;stroke-width:0.5;" width="468" x="7" y="322.73"/><ellipse cx="195.25" cy="341.6988" fill="#ADD1B2" rx="11" ry="11" style="stroke:#181818;stroke-width:1.0;"/><path d="M198.2188,347.3394 Q197.6406,347.6363 197,347.7769 Q196.3594,347.9331 195.6563,347.9331 Q193.1563,347.9331 191.8281,346.2925 Q190.5156,344.6363 190.5156,341.5113 Q190.5156,338.3863 191.8281,336.73 Q193.1563,335.0738 195.6563,335.0738 Q196.3594,335.0738 197,335.23 Q197.6563,335.3863 198.2188,335.6831 L198.2188,338.4019 Q197.5938,337.8238 197,337.5581 Q196.4063,337.2769 195.7813,337.2769 Q194.4375,337.2769 193.75,338.355 Q193.0625,339.4175 193.0625,341.5113 Q193.0625,343.605 193.75,344.6831 Q194.4375,345.7456 195.7813,345.7456 Q196.4063,345.7456 197,345.48 Q197.5938,345.1988 198.2188,344.6206 L198.2188,347.3394 Z " fill="#000000"/><a href="https://bo4e.github.io/BO4E-python/v202401.5.0/api/bo4e.bo.html#bo4e.bo.lastgang.Lastgang" target="_top" title="https://bo4e.github.io/BO4E-python/v202401.5.0/api/bo4e.bo.html#bo4e.bo.lastgang.Lastgang" xlink:actuate="onRequest" xlink:href="https://bo4e.github.io/BO4E-python/v202401.5.0/api/bo4e.bo.html#bo4e.bo.lastgang.Lastgang" xlink:show="new" xlink:title="https://bo4e.github.io/BO4E-python/v202401.5.0/api/bo4e.bo.html#bo4e.bo.lastgang.Lastgang" xlink:type="simple"><text fill="#0000FF" font-family="sans-serif" font-size="14" lengthAdjust="spacing" text-decoration="underline" textLength="63" x="225.75" y="340.7251">Lastgang</text></a><text fill="#000000" font-family="sans-serif" font-size="10" lengthAdjust="spacing" textLength="83" x="215.75" y="353.3091">bo4e.bo.lastgang</text><line style="stroke:#181818;stroke-width:0.5;" x1="8" x2="474" y1="360.6675" y2="360.6675"/><text fill="#000000" font-family="sans-serif" font-size="14" lengthAdjust="spacing" textLength="456" x="13" y="377.6626">_typ : Literal[&lt;Typ.LASTGANG: 'LASTGANG'&gt;] [1] = Typ.LASTGANG</text><text fill="#000000" font-family="sans-serif" font-size="14" lengthAdjust="spacing" textLength="221" x="13" y="393.9595">obisKennzahl : str [0..1] = None</text></g><!--link Lastgang to Geschaeftsobjekt--><g id="link_Lastgang_Geschaeftsobjekt"><path codeLine="22" d="M296.55,322.28 C348.48,285.56 429.66,230.95 505,192 C560.28,163.42 576.15,160.22 635,140 C653.05,133.8 655.4743,132.7705 673.8943,127.4205 " fill="none" id="Lastgang-to-Geschaeftsobjekt" style="stroke:#181818;stroke-width:1.0;"/><polygon fill="none" points="691.18,122.4,672.2208,121.6586,675.5678,133.1824,691.18,122.4" style="stroke:#181818;stroke-width:1.0;"/></g><!--link Lastgang to Sparte--><g id="link_Lastgang_Sparte"><path codeLine="23" d="M353.13,401.67 C462.51,440.72 613.6486,494.6852 697.3986,524.5852 " fill="none" id="Lastgang-to-Sparte" style="stroke:#181818;stroke-width:1.0;"/><polygon fill="#181818" points="708.7,528.62,704.3942,522.8355,697.3986,524.5852,701.7044,530.3697,708.7,528.62" style="stroke:#181818;stroke-width:1.0;"/><text fill="#000000" font-family="sans-serif" font-size="13" lengthAdjust="spacing" textLength="41" x="545.5" y="454.0669">sparte</text><text fill="#000000" font-family="sans-serif" font-size="13" lengthAdjust="spacing" textLength="24" x="671.4503" y="520.4082">0..1</text></g><!--link Lastgang to Mengeneinheit--><g id="link_Lastgang_Mengeneinheit"><path codeLine="24" d="M298.77,401.72 C372.77,451.66 507.79,536.57 635,584 C652.12,590.38 659.355,592.9728 677.085,598.1728 " fill="none" id="Lastgang-to-Mengeneinheit" style="stroke:#181818;stroke-width:1.0;"/><polygon fill="#181818" points="688.6,601.55,683.9683,596.0231,677.085,598.1728,681.7168,603.6997,688.6,601.55" style="stroke:#181818;stroke-width:1.0;"/><text fill="#000000" font-family="sans-serif" font-size="13" lengthAdjust="spacing" textLength="86" x="523" y="525.0669">messgroesse</text><text fill="#000000" font-family="sans-serif" font-size="13" lengthAdjust="spacing" textLength="24" x="651.2169" y="594.5005">0..1</text></g><!--link Lastgang to Marktlokation--><g id="link_Lastgang_Marktlokation"><path codeLine="25" d="M334.77,322.3 C384.84,301.37 447.92,275.8 505,255 C562.05,234.21 576.94,230.77 635,213 C654.24,207.11 663.6603,204.2767 682.9303,198.7167 " fill="none" id="Lastgang-to-Marktlokation" style="stroke:#181818;stroke-width:1.0;"/><polygon fill="#181818" points="694.46,195.39,687.5863,193.2101,682.9303,198.7167,689.8041,200.8966,694.46,195.39" style="stroke:#181818;stroke-width:1.0;"/><text fill="#000000" font-family="sans-serif" font-size="13" lengthAdjust="spacing" textLength="88" x="522" y="213.0669">marktlokation</text><text fill="#000000" font-family="sans-serif" font-size="13" lengthAdjust="spacing" textLength="24" x="662.0512" y="210.2369">0..1</text></g><!--link Lastgang to Messlokation--><g id="link_Lastgang_Messlokation"><path codeLine="26" d="M425.32,322.24 C518.81,301.96 615.1627,281.0636 683.3527,266.2736 " fill="none" id="Lastgang-to-Messlokation" style="stroke:#181818;stroke-width:1.0;"/><polygon fill="#181818" points="695.08,263.73,688.3685,261.0927,683.3527,266.2736,690.0642,268.9109,695.08,263.73" style="stroke:#181818;stroke-width:1.0;"/><text fill="#000000" font-family="sans-serif" font-size="13" lengthAdjust="spacing" textLength="85" x="523.5" y="276.0669">messlokation</text><text fill="#000000" font-family="sans-serif" font-size="13" lengthAdjust="spacing" textLength="24" x="663.6202" y="277.8525">0..1</text></g><!--link Lastgang to Zeitreihenwert--><g id="link_Lastgang_Zeitreihenwert"><path codeLine="27" d="M475.45,362 C551.93,362 619.55,362 675.57,362 " fill="none" id="Lastgang-to-Zeitreihenwert" style="stroke:#181818;stroke-width:1.0;"/><polygon fill="#181818" points="687.57,362,681.57,358,675.57,362,681.57,366,687.57,362" style="stroke:#181818;stroke-width:1.0;"/><text fill="#000000" font-family="sans-serif" font-size="13" lengthAdjust="spacing" textLength="35" x="548.5" y="358.0669">werte</text><text fill="#000000" font-family="sans-serif" font-size="13" lengthAdjust="spacing" textLength="23" x="657.0135" y="374.7172">0..*</text></g><!--link Lastgang to Menge--><g id="link_Lastgang_Menge"><path codeLine="28" d="M475.45,394.71 C560.32,406.6 637.186,417.3756 693.236,425.2256 " fill="none" id="Lastgang-to-Menge" style="stroke:#181818;stroke-width:1.0;"/><polygon fill="#181818" points="705.12,426.89,699.7328,422.0965,693.236,425.2256,698.6232,430.0191,705.12,426.89" style="stroke:#181818;stroke-width:1.0;"/><text fill="#000000" font-family="sans-serif" font-size="13" lengthAdjust="spacing" textLength="120" x="506" y="396.0669">zeitIntervallLaenge</text><text fill="#000000" font-family="sans-serif" font-size="13" lengthAdjust="spacing" textLength="24" x="673.3675" y="438.8976">0..1</text></g><!--SRC=[jLLHRvim47ukl-8K7YfLYaEwjAjG5odTgcXQrZwqJylGPCWLl82DiDigsVRVQo04GxBqXRpO_gplpf_lpkSOdnGe0HaB8mKBbc6WcE2M5SHKIkZDvv5IgNG70r-Ca8HCHSy-OM9mSp-wxQSh5Ga-U3btpaVEa5mGPq1JLb9zGIALn7O5j3yLKXwIsMO1rSBpVl9hoTRe3frnczu3AhTC-6ET_5Ah55oOCOKPZUVNZwkKp2OFZzF9tTI5qsfvElPWFlJW4vW4wqJuJ7v3pjSqYhKRgJAOEuGKp3l1qVfdMPmcA5CQO0VtXmtmlE8c6mJspUMNZvEh_4ATHpf46KHK9rOA_pSk5PcsDg2ziJS3RJU5_hRb4UGdD5kgM2nfNeZakucWWVQgRbWNaXisnz2BKjPo3G0cs2_M89HQZGrTYPqKOY0Ien8rCajHGx1ldSdLvUTEQh4wpDwYDJAL8OkGlsAco8y6X2RS3TAkXq9xq-mekXFa8UfywX6ASR-uWhR9dLvrbJJapsRMScYcBSTWBuR1XujkUiZsFBk6-XAPGl9GJ51Ekq4mg8M-adSaIKMqEJ8UwG8earCXQA3_w6pOrrchTlBcN_zF_VxVSTMmTtgemTF4C-ZbdqYlpauLDlt5b05vZz-yZ0jvRmWpeSU3jbfQiqLgoqR3UyVMx5VbeOSipthRjj5-oIxaqq6jkLNve5p87_LNhl_m5nh7Crgy7IjY2zGQ4XypQSb8l4BjxObXl91l]--></g></svg>