<?xml version="1.0" encoding="us-ascii" standalone="no"?><svg xmlns="http://www.w3.org/2000/svg" xmlns:xlink="http://www.w3.org/1999/xlink" contentStyleType="text/css" height="282px" preserveAspectRatio="none" style="width:744px;height:282px;background:#FFFFFF;" version="1.1" viewBox="0 0 744 282" width="744px" zoomAndPan="magnify"><defs/><g><!--cluster bo4e--><g id="cluster_bo4e"><path d="M489.5,6 L530.5,6 A3.75,3.75 0 0 1 533,8.5 L540,28.2969 L734.5,28.2969 A2.5,2.5 0 0 1 737,30.7969 L737,272.5 A2.5,2.5 0 0 1 734.5,275 L489.5,275 A2.5,2.5 0 0 1 487,272.5 L487,8.5 A2.5,2.5 0 0 1 489.5,6 " fill="none" style="stroke:#000000;stroke-width:1.5;"/><line style="stroke:#000000;stroke-width:1.5;" x1="487" x2="540" y1="28.2969" y2="28.2969"/><text fill="#000000" font-family="sans-serif" font-size="14" font-weight="bold" lengthAdjust="spacing" textLength="40" x="491" y="20.9951">bo4e</text></g><!--cluster bo--><g id="cluster_bo"><path d="M539,49 L605,49 A3.75,3.75 0 0 1 607.5,51.5 L614.5,71.2969 L685,71.2969 A2.5,2.5 0 0 1 687.5,73.7969 L687.5,135.5 A2.5,2.5 0 0 1 685,138 L539,138 A2.5,2.5 0 0 1 536.5,135.5 L536.5,51.5 A2.5,2.5 0 0 1 539,49 " fill="#B6D7A8" style="stroke:#000000;stroke-width:1.5;"/><line style="stroke:#000000;stroke-width:1.5;" x1="536.5" x2="614.5" y1="71.2969" y2="71.2969"/><a href="https://bo4e.github.io/BO4E-python/v202401.5.0/api/bo4e.bo.html" target="_top" title="https://bo4e.github.io/BO4E-python/v202401.5.0/api/bo4e.bo.html" xlink:actuate="onRequest" xlink:href="https://bo4e.github.io/BO4E-python/v202401.5.0/api/bo4e.bo.html" xlink:show="new" xlink:title="https://bo4e.github.io/BO4E-python/v202401.5.0/api/bo4e.bo.html" xlink:type="simple"><text fill="#0000FF" font-family="sans-serif" font-size="14" font-weight="bold" lengthAdjust="spacing" text-decoration="underline" textLength="65" x="540.5" y="63.9951">bo4e.bo</text></a></g><!--cluster enum--><g id="cluster_enum"><path d="M513.5,162 L603.5,162 A3.75,3.75 0 0 1 606,164.5 L613,184.2969 L710.5,184.2969 A2.5,2.5 0 0 1 713,186.7969 L713,248.5 A2.5,2.5 0 0 1 710.5,251 L513.5,251 A2.5,2.5 0 0 1 511,248.5 L511,164.5 A2.5,2.5 0 0 1 513.5,162 " fill="#D1C358" style="stroke:#000000;stroke-width:1.5;"/><line style="stroke:#000000;stroke-width:1.5;" x1="511" x2="613" y1="184.2969" y2="184.2969"/><a href="https://bo4e.github.io/BO4E-python/v202401.5.0/api/bo4e.enum.html" target="_top" title="https://bo4e.github.io/BO4E-python/v202401.5.0/api/bo4e.enum.html" xlink:actuate="onRequest" xlink:href="https://bo4e.github.io/BO4E-python/v202401.5.0/api/bo4e.enum.html" xlink:show="new" xlink:title="https://bo4e.github.io/BO4E-python/v202401.5.0/api/bo4e.enum.html" xlink:type="simple"><text fill="#0000FF" font-family="sans-serif" font-size="14" font-weight="bold" lengthAdjust="spacing" text-decoration="underline" textLength="89" x="515" y="176.9951">bo4e.enum</text></a></g><!--class Preisblatt--><g id="elem_Preisblatt"><rect codeLine="10" fill="#F1F1F1" height="37.9375" id="Preisblatt" rx="2.5" ry="2.5" style="stroke:#181818;stroke-width:0.5;" width="119" x="552.5" y="84.03"/><ellipse cx="567.5" cy="102.9988" fill="#ADD1B2" rx="11" ry="11" style="stroke:#181818;stroke-width:1.0;"/><path d="M570.4688,108.6394 Q569.8906,108.9363 569.25,109.0769 Q568.6094,109.2331 567.9063,109.2331 Q565.4063,109.2331 564.0781,107.5925 Q562.7656,105.9363 562.7656,102.8113 Q562.7656,99.6863 564.0781,98.03 Q565.4063,96.3738 567.9063,96.3738 Q568.6094,96.3738 569.25,96.53 Q569.9063,96.6863 570.4688,96.9831 L570.4688,99.7019 Q569.8438,99.1238 569.25,98.8581 Q568.6563,98.5769 568.0313,98.5769 Q566.6875,98.5769 566,99.655 Q565.3125,100.7175 565.3125,102.8113 Q565.3125,104.905 566,105.9831 Q566.6875,107.0456 568.0313,107.0456 Q568.6563,107.0456 569.25,106.78 Q569.8438,106.4988 570.4688,105.9206 L570.4688,108.6394 Z " fill="#000000"/><a href="https://bo4e.github.io/BO4E-python/v202401.5.0/api/bo4e.bo.html#bo4e.bo.preisblatt.Preisblatt" target="_top" title="https://bo4e.github.io/BO4E-python/v202401.5.0/api/bo4e.bo.html#bo4e.bo.preisblatt.Preisblatt" xlink:actuate="onRequest" xlink:href="https://bo4e.github.io/BO4E-python/v202401.5.0/api/bo4e.bo.html#bo4e.bo.preisblatt.Preisblatt" xlink:show="new" xlink:title="https://bo4e.github.io/BO4E-python/v202401.5.0/api/bo4e.bo.html#bo4e.bo.preisblatt.Preisblatt" xlink:type="simple"><text fill="#0000FF" font-family="sans-serif" font-size="14" lengthAdjust="spacing" text-decoration="underline" textLength="64" x="593" y="102.0251">Preisblatt</text></a><text fill="#000000" font-family="sans-serif" font-size="10" lengthAdjust="spacing" textLength="87" x="581.5" y="114.6091">bo4e.bo.preisblatt</text></g><!--class KundengruppeKA--><g id="elem_KundengruppeKA"><rect codeLine="13" fill="#F1F1F1" height="37.9375" id="KundengruppeKA" rx="2.5" ry="2.5" style="stroke:#181818;stroke-width:0.5;" width="170" x="527" y="197.03"/><ellipse cx="542" cy="215.9988" fill="#ADD1B2" rx="11" ry="11" style="stroke:#181818;stroke-width:1.0;"/><path d="M544.9688,221.6394 Q544.3906,221.9363 543.75,222.0769 Q543.1094,222.2331 542.4063,222.2331 Q539.9063,222.2331 538.5781,220.5925 Q537.2656,218.9363 537.2656,215.8113 Q537.2656,212.6863 538.5781,211.03 Q539.9063,209.3738 542.4063,209.3738 Q543.1094,209.3738 543.75,209.53 Q544.4063,209.6863 544.9688,209.9831 L544.9688,212.7019 Q544.3438,212.1238 543.75,211.8581 Q543.1563,211.5769 542.5313,211.5769 Q541.1875,211.5769 540.5,212.655 Q539.8125,213.7175 539.8125,215.8113 Q539.8125,217.905 540.5,218.9831 Q541.1875,220.0456 542.5313,220.0456 Q543.1563,220.0456 543.75,219.78 Q544.3438,219.4988 544.9688,218.9206 L544.9688,221.6394 Z " fill="#000000"/><a href="https://bo4e.github.io/BO4E-python/v202401.5.0/api/bo4e.enum.html#bo4e.enum.kundengruppeka.KundengruppeKA" target="_top" title="https://bo4e.github.io/BO4E-python/v202401.5.0/api/bo4e.enum.html#bo4e.enum.kundengruppeka.KundengruppeKA" xlink:actuate="onRequest" xlink:href="https://bo4e.github.io/BO4E-python/v202401.5.0/api/bo4e.enum.html#bo4e.enum.kundengruppeka.KundengruppeKA" xlink:show="new" xlink:title="https://bo4e.github.io/BO4E-python/v202401.5.0/api/bo4e.enum.html#bo4e.enum.kundengruppeka.KundengruppeKA" xlink:type="simple"><text fill="#0000FF" font-family="sans-serif" font-size="14" lengthAdjust="spacing" text-decoration="underline" textLength="122" x="564" y="215.0251">KundengruppeKA</text></a><text fill="#000000" font-family="sans-serif" font-size="10" lengthAdjust="spacing" textLength="138" x="556" y="227.6091">bo4e.enum.kundengruppeka</text></g><!--class PreisblattKonzessionsabgabe--><g id="elem_PreisblattKonzessionsabgabe"><rect codeLine="3" fill="#F1F1F1" height="94.8281" id="PreisblattKonzessionsabgabe" rx="2.5" ry="2.5" style="stroke:#181818;stroke-width:0.5;" width="323" x="7" y="112.59"/><ellipse cx="61.75" cy="131.5588" fill="#ADD1B2" rx="11" ry="11" style="stroke:#181818;stroke-width:1.0;"/><path d="M64.7188,137.1994 Q64.1406,137.4963 63.5,137.6369 Q62.8594,137.7931 62.1563,137.7931 Q59.6563,137.7931 58.3281,136.1525 Q57.0156,134.4963 57.0156,131.3713 Q57.0156,128.2463 58.3281,126.59 Q59.6563,124.9338 62.1563,124.9338 Q62.8594,124.9338 63.5,125.09 Q64.1563,125.2463 64.7188,125.5431 L64.7188,128.2619 Q64.0938,127.6838 63.5,127.4181 Q62.9063,127.1369 62.2813,127.1369 Q60.9375,127.1369 60.25,128.215 Q59.5625,129.2775 59.5625,131.3713 Q59.5625,133.465 60.25,134.5431 Q60.9375,135.6056 62.2813,135.6056 Q62.9063,135.6056 63.5,135.34 Q64.0938,135.0588 64.7188,134.4806 L64.7188,137.1994 Z " fill="#000000"/><a href="https://bo4e.github.io/BO4E-python/v202401.5.0/api/bo4e.bo.html#bo4e.bo.preisblattkonzessionsabgabe.PreisblattKonzessionsabgabe" target="_top" title="https://bo4e.github.io/BO4E-python/v202401.5.0/api/bo4e.bo.html#bo4e.bo.preisblattkonzessionsabgabe.PreisblattKonzessionsabgabe" xlink:actuate="onRequest" xlink:href="https://bo4e.github.io/BO4E-python/v202401.5.0/api/bo4e.bo.html#bo4e.bo.preisblattkonzessionsabgabe.PreisblattKonzessionsabgabe" xlink:show="new" xlink:title="https://bo4e.github.io/BO4E-python/v202401.5.0/api/bo4e.bo.html#bo4e.bo.preisblattkonzessionsabgabe.PreisblattKonzessionsabgabe" xlink:type="simple"><text fill="#0000FF" font-family="sans-serif" font-size="14" lengthAdjust="spacing" text-decoration="underline" textLength="205" x="82.25" y="130.5851">PreisblattKonzessionsabgabe</text></a><text fill="#000000" font-family="sans-serif" font-size="10" lengthAdjust="spacing" textLength="180" x="94.75" y="143.1691">bo4e.bo.preisblattkonzessionsabgabe</text><line style="stroke:#181818;stroke-width:0.5;" x1="8" x2="329" y1="150.5275" y2="150.5275"/><text fill="#000000" font-family="sans-serif" font-size="14" lengthAdjust="spacing" textLength="228" x="13" y="167.5226">_version : str [0..1] = 202401.5.0</text><text fill="#000000" font-family="sans-serif" font-size="14" lengthAdjust="spacing" textLength="311" x="13" y="183.8195">zusatzAttribute : ZusatzAttribut [0..*] = None</text><text fill="#000000" font-family="sans-serif" font-size="14" lengthAdjust="spacing" textLength="147" x="13" y="200.1164">_id : str [0..1] = None</text></g><!--link PreisblattKonzessionsabgabe to Preisblatt--><g id="link_PreisblattKonzessionsabgabe_Preisblatt"><path codeLine="16" d="M330.45,139.22 C407.71,129.25 477.6884,120.2169 534.1784,112.9169 " fill="none" id="PreisblattKonzessionsabgabe-to-Preisblatt" style="stroke:#181818;stroke-width:1.0;"/><polygon fill="none" points="552.03,110.61,533.4095,106.9664,534.9474,118.8674,552.03,110.61" style="stroke:#181818;stroke-width:1.0;"/></g><!--link PreisblattKonzessionsabgabe to KundengruppeKA--><g id="link_PreisblattKonzessionsabgabe_KundengruppeKA"><path codeLine="17" d="M330.45,180.42 C396.87,188.84 459.1954,196.7396 514.6054,203.7696 " fill="none" id="PreisblattKonzessionsabgabe-to-KundengruppeKA" style="stroke:#181818;stroke-width:1.0;"/><polygon fill="#181818" points="526.51,205.28,521.0612,200.5566,514.6054,203.7696,520.0543,208.493,526.51,205.28" style="stroke:#181818;stroke-width:1.0;"/><text fill="#000000" font-family="sans-serif" font-size="13" lengthAdjust="spacing" textLength="109" x="361" y="181.0669">kundengruppeKA</text><text fill="#000000" font-family="sans-serif" font-size="13" lengthAdjust="spacing" textLength="24" x="495.0459" y="217.1055">0..1</text></g><!--SRC=[jLDDJuD043sNNp61MvCkK5irH9kqqLCJzMmbPe4fR81TmYurelvteVO3qA27Udmpy-RZpKo2QmLAGCx2I470SlGL4rpJ_8HA2Vfg5IcLISSqFJ514Z8L5HvXmbpSJsv7sQkA13StOsiyiMmo9PP9C_OLwWaIgJGnzY3BaKaleKh5WfSePLL6KY-a7fA7Ws_PzK6FptMV-9La9JgsDVj37HsexCi7RzhWUODvRG87fCfXPH5Ykt0Dnn6rGLb8gigvKZdp2eLLw6FBicKDQzQTu5ZbP44ttTRneMcSfYWpwkC9f8OTSDtje3i4nkByvc9-MG_tZqjjxB0XyIyRwYoa4kGaUY0lqeOYDMngKcCm0ji_cvv6bKCzumZZWWV8mxp8CemfMJRWSWvj-5sb7r9i-s_pwWFg_PtHw7ssluD6O3-fOWr1hmzLF-hL7S21kDsA5h408SNKg_v7av5uWTugQuP983y1]--></g></svg>