<svg xmlns="http://www.w3.org/2000/svg" xmlns:xlink="http://www.w3.org/1999/xlink" contentStyleType="text/css" data-diagram-type="CLASS" height="290px" preserveAspectRatio="none" style="width:702px;height:290px;background:#FFFFFF;" version="1.1" viewBox="0 0 702 290" width="702px" zoomAndPan="magnify"><?plantuml 1.2026.6?><defs/><g><!--cluster bo4e--><g class="cluster" data-qualified-name="bo4e" data-source-line="11" id="ent0004"><path d="M479.76,6 L519.636,6 A3.75,3.75 0 0 1 522.136,8.5 L529.136,28.2969 L684.57,28.2969 A2.5,2.5 0 0 1 687.07,30.7969 L687.07,272.5 A2.5,2.5 0 0 1 684.57,275 L479.76,275 A2.5,2.5 0 0 1 477.26,272.5 L477.26,8.5 A2.5,2.5 0 0 1 479.76,6" fill="none" style="stroke:#000000;stroke-width:1.5;"/><line style="stroke:#000000;stroke-width:1.5;" x1="477.26" x2="529.136" y1="28.2969" y2="28.2969"/><text fill="#000000" font-family="sans-serif" font-size="14" font-weight="700" lengthAdjust="spacing" textLength="38.876" x="481.26" y="20.9951">bo4e</text></g><!--cluster com--><g class="cluster" data-qualified-name="bo4e.com" data-source-line="10" id="ent0002"><path d="M528.26,49 L605.9592,49 A3.75,3.75 0 0 1 608.4592,51.5 L615.4592,71.2969 L636.07,71.2969 A2.5,2.5 0 0 1 638.57,73.7969 L638.57,135.5 A2.5,2.5 0 0 1 636.07,138 L528.26,138 A2.5,2.5 0 0 1 525.76,135.5 L525.76,51.5 A2.5,2.5 0 0 1 528.26,49" fill="#E0A86C" style="stroke:#000000;stroke-width:1.5;"/><line style="stroke:#000000;stroke-width:1.5;" x1="525.76" x2="615.4592" y1="71.2969" y2="71.2969"/><text fill="#000000" font-family="sans-serif" font-size="14" font-weight="700" lengthAdjust="spacing" textLength="76.6992" x="529.76" y="63.9951">bo4e.com</text></g><!--cluster enum--><g class="cluster" data-qualified-name="bo4e.enum" data-source-line="18" id="ent0005"><path d="M503.76,162 L592.9709,162 A3.75,3.75 0 0 1 595.4709,164.5 L602.4709,184.2969 L660.57,184.2969 A2.5,2.5 0 0 1 663.07,186.7969 L663.07,248.5 A2.5,2.5 0 0 1 660.57,251 L503.76,251 A2.5,2.5 0 0 1 501.26,248.5 L501.26,164.5 A2.5,2.5 0 0 1 503.76,162" fill="#D1C358" style="stroke:#000000;stroke-width:1.5;"/><line style="stroke:#000000;stroke-width:1.5;" x1="501.26" x2="602.4709" y1="184.2969" y2="184.2969"/><text fill="#000000" font-family="sans-serif" font-size="14" font-weight="700" lengthAdjust="spacing" textLength="88.2109" x="505.26" y="176.9951">bo4e.enum</text></g><!--class Preis--><g class="entity" data-qualified-name="bo4e.com.Preis" data-source-line="11" id="ent0003"><rect fill="#F1F1F1" height="37.9375" rx="2.5" ry="2.5" style="stroke:#181818;stroke-width:0.5;" width="80.8184" x="541.76" y="84.03"/><ellipse cx="556.76" cy="102.9988" fill="#ADD1B2" rx="11" ry="11" style="stroke:#181818;stroke-width:1;"/><path d="M559.7288,108.6394 Q559.1506,108.9363 558.51,109.0769 Q557.8694,109.2331 557.1663,109.2331 Q554.6663,109.2331 553.3381,107.5925 Q552.0256,105.9363 552.0256,102.8113 Q552.0256,99.6863 553.3381,98.03 Q554.6663,96.3738 557.1663,96.3738 Q557.8694,96.3738 558.51,96.53 Q559.1663,96.6863 559.7288,96.9831 L559.7288,99.7019 Q559.1038,99.1238 558.51,98.8581 Q557.9163,98.5769 557.2913,98.5769 Q555.9475,98.5769 555.26,99.655 Q554.5725,100.7175 554.5725,102.8113 Q554.5725,104.905 555.26,105.9831 Q555.9475,107.0456 557.2913,107.0456 Q557.9163,107.0456 558.51,106.78 Q559.1038,106.4988 559.7288,105.9206 L559.7288,108.6394 Z " fill="#000000"/><a href="https://bo4e.github.io/BO4E-python/v202607.0.0/api/bo4e.com.html#module-bo4e.com.preis" target="_top" title="https://bo4e.github.io/BO4E-python/v202607.0.0/api/bo4e.com.html#module-bo4e.com.preis" xlink:actuate="onRequest" xlink:href="https://bo4e.github.io/BO4E-python/v202607.0.0/api/bo4e.com.html#module-bo4e.com.preis" xlink:show="new" xlink:title="https://bo4e.github.io/BO4E-python/v202607.0.0/api/bo4e.com.html#module-bo4e.com.preis" xlink:type="simple"><text fill="#0000FF" font-family="sans-serif" font-size="14" lengthAdjust="spacing" text-decoration="underline" textLength="33.9951" x="578.1716" y="102.0251">Preis</text></a><text fill="#000000" font-family="sans-serif" font-size="10" lengthAdjust="spacing" textLength="48.8184" x="570.76" y="114.6091">com.Preis</text></g><!--class Preisreferenz--><g class="entity" data-qualified-name="bo4e.enum.Preisreferenz" data-source-line="19" id="ent0006"><rect fill="#F1F1F1" height="37.9375" rx="2.5" ry="2.5" style="stroke:#181818;stroke-width:0.5;" width="129.8174" x="517.26" y="197.03"/><ellipse cx="532.26" cy="215.9988" fill="#ADD1B2" rx="11" ry="11" style="stroke:#181818;stroke-width:1;"/><path d="M535.2288,221.6394 Q534.6506,221.9363 534.01,222.0769 Q533.3694,222.2331 532.6663,222.2331 Q530.1663,222.2331 528.8381,220.5925 Q527.5256,218.9363 527.5256,215.8113 Q527.5256,212.6863 528.8381,211.03 Q530.1663,209.3738 532.6663,209.3738 Q533.3694,209.3738 534.01,209.53 Q534.6663,209.6863 535.2288,209.9831 L535.2288,212.7019 Q534.6038,212.1238 534.01,211.8581 Q533.4163,211.5769 532.7913,211.5769 Q531.4475,211.5769 530.76,212.655 Q530.0725,213.7175 530.0725,215.8113 Q530.0725,217.905 530.76,218.9831 Q531.4475,220.0456 532.7913,220.0456 Q533.4163,220.0456 534.01,219.78 Q534.6038,219.4988 535.2288,218.9206 L535.2288,221.6394 Z " fill="#000000"/><a href="https://bo4e.github.io/BO4E-python/v202607.0.0/api/bo4e.enum.html#module-bo4e.enum.preisreferenz" target="_top" title="https://bo4e.github.io/BO4E-python/v202607.0.0/api/bo4e.enum.html#module-bo4e.enum.preisreferenz" xlink:actuate="onRequest" xlink:href="https://bo4e.github.io/BO4E-python/v202607.0.0/api/bo4e.enum.html#module-bo4e.enum.preisreferenz" xlink:show="new" xlink:title="https://bo4e.github.io/BO4E-python/v202607.0.0/api/bo4e.enum.html#module-bo4e.enum.preisreferenz" xlink:type="simple"><text fill="#0000FF" font-family="sans-serif" font-size="14" lengthAdjust="spacing" text-decoration="underline" textLength="92.4971" x="548.9202" y="215.0251">Preisreferenz</text></a><text fill="#000000" font-family="sans-serif" font-size="10" lengthAdjust="spacing" textLength="97.8174" x="546.26" y="227.6091">enum.Preisreferenz</text></g><!--class EinheitsPreisposition--><g class="entity" data-qualified-name="EinheitsPreisposition" data-source-line="3" id="ent0001"><rect fill="#F1F1F1" height="111.125" rx="2.5" ry="2.5" style="stroke:#181818;stroke-width:0.5;" width="336.2559" x="7" y="104.44"/><ellipse cx="98.27" cy="123.4088" fill="#ADD1B2" rx="11" ry="11" style="stroke:#181818;stroke-width:1;"/><path d="M101.2388,129.0494 Q100.6606,129.3463 100.02,129.4869 Q99.3794,129.6431 98.6763,129.6431 Q96.1763,129.6431 94.8481,128.0025 Q93.5356,126.3463 93.5356,123.2213 Q93.5356,120.0963 94.8481,118.44 Q96.1763,116.7838 98.6763,116.7838 Q99.3794,116.7838 100.02,116.94 Q100.6763,117.0963 101.2388,117.3931 L101.2388,120.1119 Q100.6138,119.5338 100.02,119.2681 Q99.4263,118.9869 98.8013,118.9869 Q97.4575,118.9869 96.77,120.065 Q96.0825,121.1275 96.0825,123.2213 Q96.0825,125.315 96.77,126.3931 Q97.4575,127.4556 98.8013,127.4556 Q99.4263,127.4556 100.02,127.19 Q100.6138,126.9088 101.2388,126.3306 L101.2388,129.0494 Z " fill="#000000"/><a href="https://bo4e.github.io/BO4E-python/v202607.0.0/api/bo4e.com.html#module-bo4e.com.einheitspreisposition" target="_top" title="https://bo4e.github.io/BO4E-python/v202607.0.0/api/bo4e.com.html#module-bo4e.com.einheitspreisposition" xlink:actuate="onRequest" xlink:href="https://bo4e.github.io/BO4E-python/v202607.0.0/api/bo4e.com.html#module-bo4e.com.einheitspreisposition" xlink:show="new" xlink:title="https://bo4e.github.io/BO4E-python/v202607.0.0/api/bo4e.com.html#module-bo4e.com.einheitspreisposition" xlink:type="simple"><text fill="#0000FF" font-family="sans-serif" font-size="14" lengthAdjust="spacing" text-decoration="underline" textLength="145.2158" x="118.77" y="122.4351">EinheitsPreisposition</text></a><text fill="#000000" font-family="sans-serif" font-size="10" lengthAdjust="spacing" textLength="128.2617" x="127.2471" y="135.0191">com.EinheitsPreisposition</text><line style="stroke:#181818;stroke-width:0.5;" x1="8" x2="342.2559" y1="142.3775" y2="142.3775"/><text fill="#000000" font-family="sans-serif" font-size="14" lengthAdjust="spacing" textLength="94.0215" x="13" y="159.3726">_id : str [0..1]</text><text fill="#000000" font-family="sans-serif" font-size="14" lengthAdjust="spacing" textLength="324.2559" x="13" y="175.6695">_typ : Literal["EINHEITSPREISPOSITION"] [0..1]</text><text fill="#000000" font-family="sans-serif" font-size="14" lengthAdjust="spacing" textLength="132.5215" x="13" y="191.9664">_version : str [0..1]</text><text fill="#000000" font-family="sans-serif" font-size="14" lengthAdjust="spacing" textLength="163.6729" x="13" y="208.2632">bezeichnung : str [0..1]</text></g><!--link EinheitsPreisposition to Preis--><g class="link" data-entity-1="ent0001" data-entity-2="ent0003" data-link-type="composition" data-source-line="23" id="lnk7"><path codeLine="23" d="M343.5,136.45 C416.24,126.21 483.3274,116.7743 529.4574,110.2743" fill="none" id="EinheitsPreisposition-to-Preis" style="stroke:#181818;stroke-width:1;"/><polygon fill="#181818" points="541.34,108.6,534.8406,105.4763,529.4574,110.2743,535.9568,113.398,541.34,108.6" style="stroke:#181818;stroke-width:1;stroke-linejoin:miter;stroke-miterlimit:10;"/><text fill="#000000" font-family="sans-serif" font-size="13" lengthAdjust="spacing" textLength="31.9795" x="401.76" y="117.5069">preis</text><text fill="#000000" font-family="sans-serif" font-size="13" lengthAdjust="spacing" textLength="24.8066" x="508.9846" y="122.7655">0..1</text></g><!--link EinheitsPreisposition to Preisreferenz--><g class="link" data-entity-1="ent0001" data-entity-2="ent0006" data-link-type="composition" data-source-line="24" id="lnk8"><path codeLine="24" d="M343.5,183.14 C404.7,191.6 458.4233,199.0246 505.1633,205.4946" fill="none" id="EinheitsPreisposition-to-Preisreferenz" style="stroke:#181818;stroke-width:1;"/><polygon fill="#181818" points="517.05,207.14,511.6551,202.3551,505.1633,205.4946,510.5582,210.2795,517.05,207.14" style="stroke:#181818;stroke-width:1;stroke-linejoin:miter;stroke-miterlimit:10;"/><text fill="#000000" font-family="sans-serif" font-size="13" lengthAdjust="spacing" textLength="86.3027" x="374.26" y="184.0669">preisreferenz</text><text fill="#000000" font-family="sans-serif" font-size="13" lengthAdjust="spacing" textLength="24.8066" x="484.6593" y="219.0655">0..1</text></g><?plantuml-src jPFVQy8m4CVVyrSSzMrWMvrp8cEmZS8AGsNwrfLHszC4sgGaKL7nVryRMt-W3mwsFkM-kU_TvPCqnPa6BK2oETMGC8cnPe8J4gUHKc050TKwLtt7cOeEsdEcwM9gC-6y3ZjUCrzhAhYpRBljhljekxRhH3dRfyOYiwdEqaOcaaMApOE8Z5DaMkKIcSg5OcL3y2frTAg6uHT_Kco3_PRxN7glPbaGgUj-s18elc-MG1-KbX2ujjqAzw9UvuNwmJJAA0qipn-yU_vaFFhq_F5eEFOd_d1WXMUM9KfLbhqeDiKDifZo1P-VR-u8uL66AezY1AjcO2Qk0sXuxakl-rOD-t_W3N0mW2x06jMCPLQ_0MU0tGfgXL8NwYmLaJuosbr0GhuueLH6q4XQyVr3xwymbJKlEHdLW98uGubyimTIHsVWJFBPzf7WmRurvoFNtsUpUGTMIS6gkFV1DByn_T2aijKn8PGb21bcq-8YYA9Y1TV_7PWnJ1Fr0m00?></g></svg>