<svg xmlns="http://www.w3.org/2000/svg" xmlns:xlink="http://www.w3.org/1999/xlink" contentStyleType="text/css" data-diagram-type="CLASS" height="177px" preserveAspectRatio="none" style="width:769px;height:177px;background:#FFFFFF;" version="1.1" viewBox="0 0 769 177" width="769px" zoomAndPan="magnify"><?plantuml 1.2026.6?><defs/><g><!--cluster bo4e--><g class="cluster" data-qualified-name="bo4e" data-source-line="11" id="ent0004"><path d="M534.4,6 L574.276,6 A3.75,3.75 0 0 1 576.776,8.5 L583.776,28.2969 L752.28,28.2969 A2.5,2.5 0 0 1 754.78,30.7969 L754.78,159.5 A2.5,2.5 0 0 1 752.28,162 L534.4,162 A2.5,2.5 0 0 1 531.9,159.5 L531.9,8.5 A2.5,2.5 0 0 1 534.4,6" fill="none" style="stroke:#000000;stroke-width:1.5;"/><line style="stroke:#000000;stroke-width:1.5;" x1="531.9" x2="583.776" y1="28.2969" y2="28.2969"/><text fill="#000000" font-family="sans-serif" font-size="14" font-weight="700" lengthAdjust="spacing" textLength="38.876" x="535.9" y="20.9951">bo4e</text></g><!--cluster com--><g class="cluster" data-qualified-name="bo4e.com" data-source-line="10" id="ent0002"><path d="M558.4,49 L636.0992,49 A3.75,3.75 0 0 1 638.5992,51.5 L645.5992,71.2969 L728.28,71.2969 A2.5,2.5 0 0 1 730.78,73.7969 L730.78,135.5 A2.5,2.5 0 0 1 728.28,138 L558.4,138 A2.5,2.5 0 0 1 555.9,135.5 L555.9,51.5 A2.5,2.5 0 0 1 558.4,49" fill="#E0A86C" style="stroke:#000000;stroke-width:1.5;"/><line style="stroke:#000000;stroke-width:1.5;" x1="555.9" x2="645.5992" y1="71.2969" y2="71.2969"/><text fill="#000000" font-family="sans-serif" font-size="14" font-weight="700" lengthAdjust="spacing" textLength="76.6992" x="559.9" y="63.9951">bo4e.com</text></g><!--class MarktgebietInfo--><g class="entity" data-qualified-name="bo4e.com.MarktgebietInfo" data-source-line="11" id="ent0003"><rect fill="#F1F1F1" height="37.9375" rx="2.5" ry="2.5" style="stroke:#181818;stroke-width:0.5;" width="142.8857" x="571.9" y="84.03"/><ellipse cx="586.9" cy="102.9988" fill="#ADD1B2" rx="11" ry="11" style="stroke:#181818;stroke-width:1;"/><path d="M589.8688,108.6394 Q589.2906,108.9363 588.65,109.0769 Q588.0094,109.2331 587.3063,109.2331 Q584.8063,109.2331 583.4781,107.5925 Q582.1656,105.9363 582.1656,102.8113 Q582.1656,99.6863 583.4781,98.03 Q584.8063,96.3738 587.3063,96.3738 Q588.0094,96.3738 588.65,96.53 Q589.3063,96.6863 589.8688,96.9831 L589.8688,99.7019 Q589.2438,99.1238 588.65,98.8581 Q588.0563,98.5769 587.4313,98.5769 Q586.0875,98.5769 585.4,99.655 Q584.7125,100.7175 584.7125,102.8113 Q584.7125,104.905 585.4,105.9831 Q586.0875,107.0456 587.4313,107.0456 Q588.0563,107.0456 588.65,106.78 Q589.2438,106.4988 589.8688,105.9206 L589.8688,108.6394 Z " fill="#000000"/><a href="https://bo4e.github.io/BO4E-python/v202607.0.0/api/bo4e.com.html#module-bo4e.com.marktgebietinfo" target="_top" title="https://bo4e.github.io/BO4E-python/v202607.0.0/api/bo4e.com.html#module-bo4e.com.marktgebietinfo" xlink:actuate="onRequest" xlink:href="https://bo4e.github.io/BO4E-python/v202607.0.0/api/bo4e.com.html#module-bo4e.com.marktgebietinfo" xlink:show="new" xlink:title="https://bo4e.github.io/BO4E-python/v202607.0.0/api/bo4e.com.html#module-bo4e.com.marktgebietinfo" xlink:type="simple"><text fill="#0000FF" font-family="sans-serif" font-size="14" lengthAdjust="spacing" text-decoration="underline" textLength="110.8857" x="600.9" y="102.0251">MarktgebietInfo</text></a><text fill="#000000" font-family="sans-serif" font-size="10" lengthAdjust="spacing" textLength="103.7402" x="604.4728" y="114.6091">com.MarktgebietInfo</text></g><!--class StandorteigenschaftenGas--><g class="entity" data-qualified-name="StandorteigenschaftenGas" data-source-line="3" id="ent0001"><rect fill="#F1F1F1" height="111.125" rx="2.5" ry="2.5" style="stroke:#181818;stroke-width:0.5;" width="389.8975" x="7" y="47.44"/><ellipse cx="104.4634" cy="66.4088" fill="#ADD1B2" rx="11" ry="11" style="stroke:#181818;stroke-width:1;"/><path d="M107.4321,72.0494 Q106.854,72.3463 106.2134,72.4869 Q105.5728,72.6431 104.8696,72.6431 Q102.3696,72.6431 101.0415,71.0025 Q99.729,69.3463 99.729,66.2213 Q99.729,63.0963 101.0415,61.44 Q102.3696,59.7838 104.8696,59.7838 Q105.5728,59.7838 106.2134,59.94 Q106.8696,60.0963 107.4321,60.3931 L107.4321,63.1119 Q106.8071,62.5338 106.2134,62.2681 Q105.6196,61.9869 104.9946,61.9869 Q103.6509,61.9869 102.9634,63.065 Q102.2759,64.1275 102.2759,66.2213 Q102.2759,68.315 102.9634,69.3931 Q103.6509,70.4556 104.9946,70.4556 Q105.6196,70.4556 106.2134,70.19 Q106.8071,69.9088 107.4321,69.3306 L107.4321,72.0494 Z " fill="#000000"/><a href="https://bo4e.github.io/BO4E-python/v202607.0.0/api/bo4e.com.html#module-bo4e.com.standorteigenschaftengas" target="_top" title="https://bo4e.github.io/BO4E-python/v202607.0.0/api/bo4e.com.html#module-bo4e.com.standorteigenschaftengas" xlink:actuate="onRequest" xlink:href="https://bo4e.github.io/BO4E-python/v202607.0.0/api/bo4e.com.html#module-bo4e.com.standorteigenschaftengas" xlink:show="new" xlink:title="https://bo4e.github.io/BO4E-python/v202607.0.0/api/bo4e.com.html#module-bo4e.com.standorteigenschaftengas" xlink:type="simple"><text fill="#0000FF" font-family="sans-serif" font-size="14" lengthAdjust="spacing" text-decoration="underline" textLength="186.4707" x="124.9634" y="65.4351">StandorteigenschaftenGas</text></a><text fill="#000000" font-family="sans-serif" font-size="10" lengthAdjust="spacing" textLength="157.7295" x="139.334" y="78.0191">com.StandorteigenschaftenGas</text><line style="stroke:#181818;stroke-width:0.5;" x1="8" x2="395.8975" y1="85.3775" y2="85.3775"/><text fill="#000000" font-family="sans-serif" font-size="14" lengthAdjust="spacing" textLength="94.0215" x="13" y="102.3726">_id : str [0..1]</text><text fill="#000000" font-family="sans-serif" font-size="14" lengthAdjust="spacing" textLength="377.8975" x="13" y="118.6695">_typ : Literal["STANDORTEIGENSCHAFTENGAS"] [0..1]</text><text fill="#000000" font-family="sans-serif" font-size="14" lengthAdjust="spacing" textLength="132.5215" x="13" y="134.9664">_version : str [0..1]</text><text fill="#000000" font-family="sans-serif" font-size="14" lengthAdjust="spacing" textLength="242.0127" x="13" y="151.2632">netzkontonummern : list[str] [0..*]</text></g><!--link StandorteigenschaftenGas to MarktgebietInfo--><g class="link" data-entity-1="ent0001" data-entity-2="ent0003" data-link-type="composition" data-source-line="20" id="lnk5"><path codeLine="20" d="M397.27,103 C459.3,103 512.06,103 559.42,103" fill="none" id="StandorteigenschaftenGas-to-MarktgebietInfo" style="stroke:#181818;stroke-width:1;"/><polygon fill="#181818" points="571.42,103,565.42,99,559.42,103,565.42,107,571.42,103" style="stroke:#181818;stroke-width:1;stroke-linejoin:miter;stroke-miterlimit:10;"/><text fill="#000000" font-family="sans-serif" font-size="13" lengthAdjust="spacing" textLength="87.8071" x="427.9" y="99.0669">marktgebiete</text><text fill="#000000" font-family="sans-serif" font-size="13" lengthAdjust="spacing" textLength="23.0356" x="540.9917" y="115.7409">0..*</text></g><?plantuml-src jLB1Ji904BtlLqpgZOIs6eA669Eg1OaA2VHM6xEqGxkXkzjq1mmO_jq2eY1YzE3UvitRbpTl9iSn0MaeHPeH9AB4c8HMZCKvDmQiCCo82jDod95ke9qAogOZMsZdkj_mwyMSCgsSsPbxrdJFRTTs7Lw83JNMqiv8vYTI9zCSwn-W8QuINHAA59M9CpucL2atCFokqU4cYfxKfH4BR9swLok5OqGBVb21LmRLUnO9jC1G2Q5hswVH1gHvKQ4FWh3aUMWD0wztsny4VhVZzuOtTruxy7iTRsX5UxzcM9egh4CzXRIOQ4LQJQN4SiN8XQ6mecqKQX5RCgQuH5Fm6C7QfhCUOLl0YUzw5ysRT-l_jnB9omcbE198GeqrF7xMtQe-MC2N_jhq5-mlSJzwW_kWurzt_Q3RQ_T_c_AEwn-RiKvmdx1SfN_qKEhr6bYh9La7GxLsTP6nJ5JI4kMeyiXCfb_Ww772M62Uc3S0?></g></svg>