<svg xmlns="http://www.w3.org/2000/svg" xmlns:xlink="http://www.w3.org/1999/xlink" contentStyleType="text/css" data-diagram-type="CLASS" height="189px" preserveAspectRatio="none" style="width:681px;height:189px;background:#FFFFFF;" version="1.1" viewBox="0 0 681 189" width="681px" zoomAndPan="magnify"><?plantuml 1.2026.6?><defs/><g><!--cluster bo4e--><g class="cluster" data-qualified-name="bo4e" data-source-line="13" id="ent0004"><path d="M498.75,6 L538.626,6 A3.75,3.75 0 0 1 541.126,8.5 L548.126,28.2969 L663.91,28.2969 A2.5,2.5 0 0 1 666.41,30.7969 L666.41,159.5 A2.5,2.5 0 0 1 663.91,162 L498.75,162 A2.5,2.5 0 0 1 496.25,159.5 L496.25,8.5 A2.5,2.5 0 0 1 498.75,6" fill="none" style="stroke:#000000;stroke-width:1.5;"/><line style="stroke:#000000;stroke-width:1.5;" x1="496.25" x2="548.126" y1="28.2969" y2="28.2969"/><text fill="#000000" font-family="sans-serif" font-size="14" font-weight="700" lengthAdjust="spacing" textLength="38.876" x="500.25" y="20.9951">bo4e</text></g><!--cluster com--><g class="cluster" data-qualified-name="bo4e.com" data-source-line="12" id="ent0002"><path d="M522.75,49 L600.4492,49 A3.75,3.75 0 0 1 602.9492,51.5 L609.9492,71.2969 L639.91,71.2969 A2.5,2.5 0 0 1 642.41,73.7969 L642.41,135.5 A2.5,2.5 0 0 1 639.91,138 L522.75,138 A2.5,2.5 0 0 1 520.25,135.5 L520.25,51.5 A2.5,2.5 0 0 1 522.75,49" fill="#E0A86C" style="stroke:#000000;stroke-width:1.5;"/><line style="stroke:#000000;stroke-width:1.5;" x1="520.25" x2="609.9492" y1="71.2969" y2="71.2969"/><text fill="#000000" font-family="sans-serif" font-size="14" font-weight="700" lengthAdjust="spacing" textLength="76.6992" x="524.25" y="63.9951">bo4e.com</text></g><!--class Menge--><g class="entity" data-qualified-name="bo4e.com.Menge" data-source-line="13" id="ent0003"><rect fill="#F1F1F1" height="37.9375" rx="2.5" ry="2.5" style="stroke:#181818;stroke-width:0.5;" width="90.1543" x="536.25" y="84.03"/><ellipse cx="551.25" cy="102.9988" fill="#ADD1B2" rx="11" ry="11" style="stroke:#181818;stroke-width:1;"/><path d="M554.2188,108.6394 Q553.6406,108.9363 553,109.0769 Q552.3594,109.2331 551.6563,109.2331 Q549.1563,109.2331 547.8281,107.5925 Q546.5156,105.9363 546.5156,102.8113 Q546.5156,99.6863 547.8281,98.03 Q549.1563,96.3738 551.6563,96.3738 Q552.3594,96.3738 553,96.53 Q553.6563,96.6863 554.2188,96.9831 L554.2188,99.7019 Q553.5938,99.1238 553,98.8581 Q552.4063,98.5769 551.7813,98.5769 Q550.4375,98.5769 549.75,99.655 Q549.0625,100.7175 549.0625,102.8113 Q549.0625,104.905 549.75,105.9831 Q550.4375,107.0456 551.7813,107.0456 Q552.4063,107.0456 553,106.78 Q553.5938,106.4988 554.2188,105.9206 L554.2188,108.6394 Z " fill="#000000"/><a href="https://bo4e.github.io/BO4E-python/v202607.0.0/api/bo4e.com.html#module-bo4e.com.menge" target="_top" title="https://bo4e.github.io/BO4E-python/v202607.0.0/api/bo4e.com.html#module-bo4e.com.menge" xlink:actuate="onRequest" xlink:href="https://bo4e.github.io/BO4E-python/v202607.0.0/api/bo4e.com.html#module-bo4e.com.menge" xlink:show="new" xlink:title="https://bo4e.github.io/BO4E-python/v202607.0.0/api/bo4e.com.html#module-bo4e.com.menge" xlink:type="simple"><text fill="#0000FF" font-family="sans-serif" font-size="14" lengthAdjust="spacing" text-decoration="underline" textLength="47.0654" x="570.7944" y="102.0251">Menge</text></a><text fill="#000000" font-family="sans-serif" font-size="10" lengthAdjust="spacing" textLength="58.1543" x="565.25" y="114.6091">com.Menge</text></g><!--class Vertragsteil--><g class="entity" data-qualified-name="Vertragsteil" data-source-line="3" id="ent0001"><rect fill="#F1F1F1" height="143.7188" rx="2.5" ry="2.5" style="stroke:#181818;stroke-width:0.5;" width="270.2549" x="7" y="31.14"/><ellipse cx="96.3833" cy="50.1087" fill="#ADD1B2" rx="11" ry="11" style="stroke:#181818;stroke-width:1;"/><path d="M99.3521,55.7494 Q98.7739,56.0462 98.1333,56.1869 Q97.4927,56.3431 96.7896,56.3431 Q94.2896,56.3431 92.9614,54.7025 Q91.6489,53.0462 91.6489,49.9212 Q91.6489,46.7962 92.9614,45.14 Q94.2896,43.4837 96.7896,43.4837 Q97.4927,43.4837 98.1333,43.64 Q98.7896,43.7962 99.3521,44.0931 L99.3521,46.8119 Q98.7271,46.2337 98.1333,45.9681 Q97.5396,45.6869 96.9146,45.6869 Q95.5708,45.6869 94.8833,46.765 Q94.1958,47.8275 94.1958,49.9212 Q94.1958,52.015 94.8833,53.0931 Q95.5708,54.1556 96.9146,54.1556 Q97.5396,54.1556 98.1333,53.89 Q98.7271,53.6087 99.3521,53.0306 L99.3521,55.7494 Z " fill="#000000"/><a href="https://bo4e.github.io/BO4E-python/v202607.0.0/api/bo4e.com.html#module-bo4e.com.vertragsteil" target="_top" title="https://bo4e.github.io/BO4E-python/v202607.0.0/api/bo4e.com.html#module-bo4e.com.vertragsteil" xlink:actuate="onRequest" xlink:href="https://bo4e.github.io/BO4E-python/v202607.0.0/api/bo4e.com.html#module-bo4e.com.vertragsteil" xlink:show="new" xlink:title="https://bo4e.github.io/BO4E-python/v202607.0.0/api/bo4e.com.html#module-bo4e.com.vertragsteil" xlink:type="simple"><text fill="#0000FF" font-family="sans-serif" font-size="14" lengthAdjust="spacing" text-decoration="underline" textLength="81.833" x="117.4609" y="49.1351">Vertragsteil</text></a><text fill="#000000" font-family="sans-serif" font-size="10" lengthAdjust="spacing" textLength="82.9883" x="116.8833" y="61.7191">com.Vertragsteil</text><line style="stroke:#181818;stroke-width:0.5;" x1="8" x2="276.2549" y1="69.0775" y2="69.0775"/><text fill="#000000" font-family="sans-serif" font-size="14" lengthAdjust="spacing" textLength="94.0215" x="13" y="86.0726">_id : str [0..1]</text><text fill="#000000" font-family="sans-serif" font-size="14" lengthAdjust="spacing" textLength="258.2549" x="13" y="102.3695">_typ : Literal["VERTRAGSTEIL"] [0..1]</text><text fill="#000000" font-family="sans-serif" font-size="14" lengthAdjust="spacing" textLength="132.5215" x="13" y="118.6664">_version : str [0..1]</text><text fill="#000000" font-family="sans-serif" font-size="14" lengthAdjust="spacing" textLength="130.2041" x="13" y="134.9632">lokation : str [0..1]</text><text fill="#000000" font-family="sans-serif" font-size="14" lengthAdjust="spacing" textLength="247.4678" x="13" y="151.2601">vertragsteilbeginn : datetime [0..1]</text><text fill="#000000" font-family="sans-serif" font-size="14" lengthAdjust="spacing" textLength="234.4316" x="13" y="167.557">vertragsteilende : datetime [0..1]</text></g><!--link Vertragsteil to Menge--><g class="link" data-entity-1="ent0001" data-entity-2="ent0003" data-link-type="composition" data-source-line="21" id="lnk5"><path codeLine="21" d="M277.4,87.08 C339.24,82 413.56,79.05 480.25,85 C498.72,86.65 507.0876,87.695 524.4376,91.045" fill="none" id="Vertragsteil-to-Menge" style="stroke:#181818;stroke-width:1;"/><polygon fill="#181818" points="536.22,93.32,531.0871,88.255,524.4376,91.045,529.5705,96.11,536.22,93.32" style="stroke:#181818;stroke-width:1;stroke-linejoin:miter;stroke-miterlimit:10;"/><text fill="#000000" font-family="sans-serif" font-size="13" lengthAdjust="spacing" textLength="171.5771" x="308.25" y="77.7669">maximaleAbnahmemenge</text><text fill="#000000" font-family="sans-serif" font-size="13" lengthAdjust="spacing" textLength="24.8066" x="503.5372" y="87.7666">0..1</text></g><!--link Vertragsteil to Menge--><g class="link" data-entity-1="ent0001" data-entity-2="ent0003" data-link-type="composition" data-source-line="22" id="lnk6"><path codeLine="22" d="M277.67,109.22 C339.41,111.2 413.56,112.33 480.25,110 C498.53,109.36 506.6834,108.9651 524.0634,107.6651" fill="none" id="Vertragsteil-to-Menge-1" style="stroke:#181818;stroke-width:1;"/><polygon fill="#181818" points="536.03,106.77,529.7484,103.2287,524.0634,107.6651,530.3451,111.2064,536.03,106.77" style="stroke:#181818;stroke-width:1;stroke-linejoin:miter;stroke-miterlimit:10;"/><text fill="#000000" font-family="sans-serif" font-size="13" lengthAdjust="spacing" textLength="167.7686" x="310.25" y="106.0669">minimaleAbnahmemenge</text><text fill="#000000" font-family="sans-serif" font-size="13" lengthAdjust="spacing" textLength="24.8066" x="503.3181" y="120.573">0..1</text></g><!--link Vertragsteil to Menge--><g class="link" data-entity-1="ent0001" data-entity-2="ent0003" data-link-type="composition" data-source-line="23" id="lnk7"><path codeLine="23" d="M277.6,132.27 C287.6,133.76 297.57,135.04 307.25,136 C383.77,143.62 404.34,148.19 480.25,136 C498.86,133.01 507.3731,131.0811 524.4431,125.0611" fill="none" id="Vertragsteil-to-Menge-2" style="stroke:#181818;stroke-width:1;"/><polygon fill="#181818" points="535.76,121.07,528.7712,119.2932,524.4431,125.0611,531.4319,126.8378,535.76,121.07" style="stroke:#181818;stroke-width:1;stroke-linejoin:miter;stroke-miterlimit:10;"/><text fill="#000000" font-family="sans-serif" font-size="13" lengthAdjust="spacing" textLength="162.8428" x="312.75" y="132.0669">vertraglichFixierteMenge</text><text fill="#000000" font-family="sans-serif" font-size="13" lengthAdjust="spacing" textLength="24.8066" x="503.3641" y="136.9024">0..1</text></g><?plantuml-src jL9DIyD04BtdLmpfJMYIbg9IHAWIHQWAAbvgaKqopGxkHyYEjbNyxsvZrHOhseDxM7RUl5tclRSA9mnieQPICXHKOyvaJH3aIZW7uMWacIlNZ-FCzZ0gYULZ5f6DZovxQRkQixGcVkectTraBqgY91OLlLDpgoF9MhMqBHuLjZ_19wov5gLZ90MtAyLuV6SE73rZlvCSBfYhpH24MsF3Im1-tLC1VN1SmoY9eixu7UHvvT4XCTP2ZSBRzEhcQd1wVPEU3SFn6jDFuxpWxsye-o1uOsTLG8ObcGMd48nC6dyYeYbm0-qr28pGw2gH8uGV7ZLYFmfefSbWV_TuAVZ_Wj5eIeJpnVujYWPjncfEsvX_dbwSfdzrVUejy-X4MS5V7dcNrg9ljtSWN3J3vJXzq696MYWSP4P8ZOsMto-HsVxICbL5kJoX6VaAcrOGIF8P-sSohovmqavXxGl3X50LxWq0?></g></svg>