<svg xmlns="http://www.w3.org/2000/svg" xmlns:xlink="http://www.w3.org/1999/xlink" contentStyleType="text/css" data-diagram-type="CLASS" height="242px" preserveAspectRatio="none" style="width:1206px;height:242px;background:#FFFFFF;" version="1.1" viewBox="0 0 1206 242" width="1206px" zoomAndPan="magnify"><defs/><g><!--cluster bo4e--><g class="cluster" data-entity="bo4e" data-source-line="11" data-uid="ent0005" id="cluster_bo4e"><path d="M914.15,6 L954.026,6 A3.75,3.75 0 0 1 956.526,8.5 L963.526,28.2969 L1196.96,28.2969 A2.5,2.5 0 0 1 1199.46,30.7969 L1199.46,232.5 A2.5,2.5 0 0 1 1196.96,235 L914.15,235 A2.5,2.5 0 0 1 911.65,232.5 L911.65,8.5 A2.5,2.5 0 0 1 914.15,6" fill="none" style="stroke:#000000;stroke-width:1.5;"/><line style="stroke:#000000;stroke-width:1.5;" x1="911.65" x2="963.526" y1="28.2969" y2="28.2969"/><text fill="#000000" font-family="sans-serif" font-size="14" font-weight="bold" lengthAdjust="spacing" textLength="38.876" x="915.65" y="20.9951">bo4e</text></g><!--cluster com--><g class="cluster" data-entity="com" data-source-line="10" data-uid="ent0003" id="cluster_com"><path d="M938.15,49 L1015.8492,49 A3.75,3.75 0 0 1 1018.3492,51.5 L1025.3492,71.2969 L1172.96,71.2969 A2.5,2.5 0 0 1 1175.46,73.7969 L1175.46,208.5 A2.5,2.5 0 0 1 1172.96,211 L938.15,211 A2.5,2.5 0 0 1 935.65,208.5 L935.65,51.5 A2.5,2.5 0 0 1 938.15,49" fill="#E0A86C" style="stroke:#000000;stroke-width:1.5;"/><line style="stroke:#000000;stroke-width:1.5;" x1="935.65" x2="1025.3492" y1="71.2969" y2="71.2969"/><a href="https://bo4e.github.io/BO4E-python/v202501.1.0-rc1/api/bo4e.com.html" target="_top" title="https://bo4e.github.io/BO4E-python/v202501.1.0-rc1/api/bo4e.com.html" xlink:actuate="onRequest" xlink:href="https://bo4e.github.io/BO4E-python/v202501.1.0-rc1/api/bo4e.com.html" xlink:show="new" xlink:title="https://bo4e.github.io/BO4E-python/v202501.1.0-rc1/api/bo4e.com.html" xlink:type="simple"><text fill="#0000FF" font-family="sans-serif" font-size="14" font-weight="bold" lengthAdjust="spacing" text-decoration="underline" textLength="76.6992" x="939.65" y="63.9951">bo4e.com</text></a></g><!--class COM--><g class="entity" data-entity="COM" data-source-line="11" data-uid="ent0004" id="entity_COM"><rect fill="#F1F1F1" height="37.9375" rx="2.5" ry="2.5" style="stroke:#181818;stroke-width:0.5;" width="106.0527" x="1002.53" y="84.03"/><ellipse cx="1017.53" cy="102.9988" fill="#ADD1B2" rx="11" ry="11" style="stroke:#181818;stroke-width:1;"/><path d="M1020.4988,108.6394 Q1019.9206,108.9363 1019.28,109.0769 Q1018.6394,109.2331 1017.9363,109.2331 Q1015.4363,109.2331 1014.1081,107.5925 Q1012.7956,105.9363 1012.7956,102.8113 Q1012.7956,99.6863 1014.1081,98.03 Q1015.4363,96.3738 1017.9363,96.3738 Q1018.6394,96.3738 1019.28,96.53 Q1019.9363,96.6863 1020.4988,96.9831 L1020.4988,99.7019 Q1019.8738,99.1238 1019.28,98.8581 Q1018.6863,98.5769 1018.0613,98.5769 Q1016.7175,98.5769 1016.03,99.655 Q1015.3425,100.7175 1015.3425,102.8113 Q1015.3425,104.905 1016.03,105.9831 Q1016.7175,107.0456 1018.0613,107.0456 Q1018.6863,107.0456 1019.28,106.78 Q1019.8738,106.4988 1020.4988,105.9206 L1020.4988,108.6394 Z " fill="#000000"/><a href="https://bo4e.github.io/BO4E-python/v202501.1.0-rc1/api/bo4e.com.html#bo4e.com.com.COM" target="_top" title="https://bo4e.github.io/BO4E-python/v202501.1.0-rc1/api/bo4e.com.html#bo4e.com.com.COM" xlink:actuate="onRequest" xlink:href="https://bo4e.github.io/BO4E-python/v202501.1.0-rc1/api/bo4e.com.html#bo4e.com.com.COM" xlink:show="new" xlink:title="https://bo4e.github.io/BO4E-python/v202501.1.0-rc1/api/bo4e.com.html#bo4e.com.com.COM" xlink:type="simple"><text fill="#0000FF" font-family="sans-serif" font-size="14" lengthAdjust="spacing" text-decoration="underline" textLength="32.874" x="1052.1194" y="102.0251">COM</text></a><text fill="#000000" font-family="sans-serif" font-size="10" lengthAdjust="spacing" textLength="74.0527" x="1031.53" y="114.6091">bo4e.com.com</text></g><!--class AufAbschlagstaffelProOrt--><g class="entity" data-entity="AufAbschlagstaffelProOrt" data-source-line="12" data-uid="ent0006" id="entity_AufAbschlagstaffelProOrt"><rect fill="#F1F1F1" height="37.9375" rx="2.5" ry="2.5" style="stroke:#181818;stroke-width:0.5;" width="207.8135" x="951.65" y="157.03"/><ellipse cx="966.65" cy="175.9988" fill="#ADD1B2" rx="11" ry="11" style="stroke:#181818;stroke-width:1;"/><path d="M969.6188,181.6394 Q969.0406,181.9363 968.4,182.0769 Q967.7594,182.2331 967.0563,182.2331 Q964.5563,182.2331 963.2281,180.5925 Q961.9156,178.9363 961.9156,175.8113 Q961.9156,172.6863 963.2281,171.03 Q964.5563,169.3738 967.0563,169.3738 Q967.7594,169.3738 968.4,169.53 Q969.0563,169.6863 969.6188,169.9831 L969.6188,172.7019 Q968.9938,172.1238 968.4,171.8581 Q967.8063,171.5769 967.1813,171.5769 Q965.8375,171.5769 965.15,172.655 Q964.4625,173.7175 964.4625,175.8113 Q964.4625,177.905 965.15,178.9831 Q965.8375,180.0456 967.1813,180.0456 Q967.8063,180.0456 968.4,179.78 Q968.9938,179.4988 969.6188,178.9206 L969.6188,181.6394 Z " fill="#000000"/><a href="https://bo4e.github.io/BO4E-python/v202501.1.0-rc1/api/bo4e.com.html#bo4e.com.aufabschlagstaffelproort.AufAbschlagstaffelProOrt" target="_top" title="https://bo4e.github.io/BO4E-python/v202501.1.0-rc1/api/bo4e.com.html#bo4e.com.aufabschlagstaffelproort.AufAbschlagstaffelProOrt" xlink:actuate="onRequest" xlink:href="https://bo4e.github.io/BO4E-python/v202501.1.0-rc1/api/bo4e.com.html#bo4e.com.aufabschlagstaffelproort.AufAbschlagstaffelProOrt" xlink:show="new" xlink:title="https://bo4e.github.io/BO4E-python/v202501.1.0-rc1/api/bo4e.com.html#bo4e.com.aufabschlagstaffelproort.AufAbschlagstaffelProOrt" xlink:type="simple"><text fill="#0000FF" font-family="sans-serif" font-size="14" lengthAdjust="spacing" text-decoration="underline" textLength="175.8135" x="980.65" y="175.0251">AufAbschlagstaffelProOrt</text></a><text fill="#000000" font-family="sans-serif" font-size="10" lengthAdjust="spacing" textLength="175.415" x="980.8492" y="187.6091">bo4e.com.aufabschlagstaffelproort</text></g><!--class AufAbschlagProOrt--><g class="entity" data-entity="AufAbschlagProOrt" data-source-line="3" data-uid="ent0002" id="entity_AufAbschlagProOrt"><rect fill="#F1F1F1" height="111.125" rx="2.5" ry="2.5" style="stroke:#181818;stroke-width:0.5;" width="808.6465" x="7" y="84.44"/><ellipse cx="334.981" cy="103.4088" fill="#ADD1B2" rx="11" ry="11" style="stroke:#181818;stroke-width:1;"/><path d="M337.9497,109.0494 Q337.3716,109.3463 336.731,109.4869 Q336.0903,109.6431 335.3872,109.6431 Q332.8872,109.6431 331.5591,108.0025 Q330.2466,106.3463 330.2466,103.2213 Q330.2466,100.0963 331.5591,98.44 Q332.8872,96.7838 335.3872,96.7838 Q336.0903,96.7838 336.731,96.94 Q337.3872,97.0963 337.9497,97.3931 L337.9497,100.1119 Q337.3247,99.5338 336.731,99.2681 Q336.1372,98.9869 335.5122,98.9869 Q334.1685,98.9869 333.481,100.065 Q332.7935,101.1275 332.7935,103.2213 Q332.7935,105.315 333.481,106.3931 Q334.1685,107.4556 335.5122,107.4556 Q336.1372,107.4556 336.731,107.19 Q337.3247,106.9088 337.9497,106.3306 L337.9497,109.0494 Z " fill="#000000"/><a href="https://bo4e.github.io/BO4E-python/v202501.1.0-rc1/api/bo4e.com.html#bo4e.com.aufabschlagproort.AufAbschlagProOrt" target="_top" title="https://bo4e.github.io/BO4E-python/v202501.1.0-rc1/api/bo4e.com.html#bo4e.com.aufabschlagproort.AufAbschlagProOrt" xlink:actuate="onRequest" xlink:href="https://bo4e.github.io/BO4E-python/v202501.1.0-rc1/api/bo4e.com.html#bo4e.com.aufabschlagproort.AufAbschlagProOrt" xlink:show="new" xlink:title="https://bo4e.github.io/BO4E-python/v202501.1.0-rc1/api/bo4e.com.html#bo4e.com.aufabschlagproort.AufAbschlagProOrt" xlink:type="simple"><text fill="#0000FF" font-family="sans-serif" font-size="14" lengthAdjust="spacing" text-decoration="underline" textLength="132.0908" x="361.5278" y="102.4351">AufAbschlagProOrt</text></a><text fill="#000000" font-family="sans-serif" font-size="10" lengthAdjust="spacing" textLength="144.1846" x="355.481" y="115.0191">bo4e.com.aufabschlagproort</text><line style="stroke:#181818;stroke-width:0.5;" x1="8" x2="814.6465" y1="122.3775" y2="122.3775"/><text fill="#000000" font-family="sans-serif" font-size="14" lengthAdjust="spacing" textLength="796.6465" x="13" y="139.3726">_typ : Literal[&lt;ComTyp.AUFABSCHLAGPROORT: 'AUFABSCHLAGPROORT'&gt;] [1] = ComTyp.AUFABSCHLAGPROORT</text><text fill="#000000" font-family="sans-serif" font-size="14" lengthAdjust="spacing" textLength="212.208" x="13" y="155.6695">postleitzahl : str [0..1] = None</text><text fill="#000000" font-family="sans-serif" font-size="14" lengthAdjust="spacing" textLength="151.2109" x="13" y="171.9664">ort : str [0..1] = None</text><text fill="#000000" font-family="sans-serif" font-size="14" lengthAdjust="spacing" textLength="176.3535" x="13" y="188.2632">netznr : str [0..1] = None</text></g><!--link AufAbschlagProOrt to COM--><g class="link" data-entity-1="AufAbschlagProOrt" data-entity-2="COM" data-source-line="15" data-uid="lnk7" id="link_AufAbschlagProOrt_COM"><path codeLine="15" d="M815.87,116.75 C890.1,112.47 940.0598,109.5958 984.2998,107.0458" fill="none" id="AufAbschlagProOrt-to-COM" style="stroke:#181818;stroke-width:1;"/><polygon fill="none" points="1002.27,106.01,983.9546,101.0557,984.6451,113.0359,1002.27,106.01" style="stroke:#181818;stroke-width:1;"/></g><!--link AufAbschlagProOrt to AufAbschlagstaffelProOrt--><g class="link" data-entity-1="AufAbschlagProOrt" data-entity-2="AufAbschlagstaffelProOrt" data-source-line="16" data-uid="lnk8" id="link_AufAbschlagProOrt_AufAbschlagstaffelProOrt"><path codeLine="16" d="M815.87,162.62 C865.56,165.41 900.4589,167.3574 939.2889,169.5374" fill="none" id="AufAbschlagProOrt-to-AufAbschlagstaffelProOrt" style="stroke:#181818;stroke-width:1;"/><polygon fill="#181818" points="951.27,170.21,945.5036,165.88,939.2889,169.5374,945.0552,173.8674,951.27,170.21" style="stroke:#181818;stroke-width:1;"/><text fill="#000000" font-family="sans-serif" font-size="13" lengthAdjust="spacing" textLength="48.8389" x="846.65" y="161.0669">staffeln</text><text fill="#000000" font-family="sans-serif" font-size="13" lengthAdjust="spacing" textLength="23.0356" x="920.4918" y="182.3963">0..*</text></g><!--SRC=[jLDDJyCm33slly8g1oIafUqq49h6fAxYum1qukDKAfHswH8fRQh40st0VwSTC1Zjn8KTVB3zx3X-pv9b2AX0Ynb7c0hDKXIgiAnKKcF0ZYAEM9g1uoIgpyXC89ydH2Xd7FPFk-K2kIgSfvxREtGzuX6tgrFFeQNuWASg9nnpkRVsw3oZYKcvfBDIAwMH-FFC_unCj0erGYCInm_5q8Wb6tZkQ7ih6wXf5iEBrNd4HGa3k1J8D9NHC53vtQ8a_lsPFxuDBYxzyybD6DxS3M2_4TiVnH1vCPp0jYghKog3aWbSKYwhTmngY5n2LbNNgc1MfnglFL4mN1QwDVTcMGNDcIbfolwB2VZoudYrhYyNzavT__WegBUr8-fh2y8hgAoTqCfMCrM0dGtnGpG6QPOnsPJXPwAfnet4dwBSwFzRcnkjQgPRxg3RVHsj2QfNrmQgK0TWLxeviB-nMpzJospbLnVEnPH1plA4QMCPhfwXfNqcc9oQTm00]--></g></svg>