<svg xmlns="http://www.w3.org/2000/svg" xmlns:xlink="http://www.w3.org/1999/xlink" contentStyleType="text/css" data-diagram-type="CLASS" height="282px" preserveAspectRatio="none" style="width:1290px;height:282px;background:#FFFFFF;" version="1.1" viewBox="0 0 1290 282" width="1290px" zoomAndPan="magnify"><defs/><g><!--cluster bo4e--><g class="cluster" data-entity="bo4e" data-source-line="11" data-uid="ent0005" id="cluster_bo4e"><path d="M1046.05,6 L1085.926,6 A3.75,3.75 0 0 1 1088.426,8.5 L1095.426,28.2969 L1281.01,28.2969 A2.5,2.5 0 0 1 1283.51,30.7969 L1283.51,272.5 A2.5,2.5 0 0 1 1281.01,275 L1046.05,275 A2.5,2.5 0 0 1 1043.55,272.5 L1043.55,8.5 A2.5,2.5 0 0 1 1046.05,6" fill="none" style="stroke:#000000;stroke-width:1.5;"/><line style="stroke:#000000;stroke-width:1.5;" x1="1043.55" x2="1095.426" y1="28.2969" y2="28.2969"/><text fill="#000000" font-family="sans-serif" font-size="14" font-weight="bold" lengthAdjust="spacing" textLength="38.876" x="1047.55" y="20.9951">bo4e</text></g><!--cluster bo--><g class="cluster" data-entity="bo" data-source-line="10" data-uid="ent0003" id="cluster_bo"><path d="M1070.05,49 L1134.884,49 A3.75,3.75 0 0 1 1137.384,51.5 L1144.384,71.2969 L1257.01,71.2969 A2.5,2.5 0 0 1 1259.51,73.7969 L1259.51,135.5 A2.5,2.5 0 0 1 1257.01,138 L1070.05,138 A2.5,2.5 0 0 1 1067.55,135.5 L1067.55,51.5 A2.5,2.5 0 0 1 1070.05,49" fill="#B6D7A8" style="stroke:#000000;stroke-width:1.5;"/><line style="stroke:#000000;stroke-width:1.5;" x1="1067.55" x2="1144.384" y1="71.2969" y2="71.2969"/><a href="https://bo4e.github.io/BO4E-python/v202501.1.0-rc1/api/bo4e.bo.html" target="_top" title="https://bo4e.github.io/BO4E-python/v202501.1.0-rc1/api/bo4e.bo.html" xlink:actuate="onRequest" xlink:href="https://bo4e.github.io/BO4E-python/v202501.1.0-rc1/api/bo4e.bo.html" xlink:show="new" xlink:title="https://bo4e.github.io/BO4E-python/v202501.1.0-rc1/api/bo4e.bo.html" xlink:type="simple"><text fill="#0000FF" font-family="sans-serif" font-size="14" font-weight="bold" lengthAdjust="spacing" text-decoration="underline" textLength="63.834" x="1071.55" y="63.9951">bo4e.bo</text></a></g><!--cluster com--><g class="cluster" data-entity="com" data-source-line="13" data-uid="ent0006" id="cluster_com"><path d="M1097,162 L1174.6992,162 A3.75,3.75 0 0 1 1177.1992,164.5 L1184.1992,184.2969 L1230.06,184.2969 A2.5,2.5 0 0 1 1232.56,186.7969 L1232.56,248.5 A2.5,2.5 0 0 1 1230.06,251 L1097,251 A2.5,2.5 0 0 1 1094.5,248.5 L1094.5,164.5 A2.5,2.5 0 0 1 1097,162" fill="#E0A86C" style="stroke:#000000;stroke-width:1.5;"/><line style="stroke:#000000;stroke-width:1.5;" x1="1094.5" x2="1184.1992" y1="184.2969" y2="184.2969"/><a href="https://bo4e.github.io/BO4E-python/v202501.1.0-rc1/api/bo4e.com.html" target="_top" title="https://bo4e.github.io/BO4E-python/v202501.1.0-rc1/api/bo4e.com.html" xlink:actuate="onRequest" xlink:href="https://bo4e.github.io/BO4E-python/v202501.1.0-rc1/api/bo4e.com.html" xlink:show="new" xlink:title="https://bo4e.github.io/BO4E-python/v202501.1.0-rc1/api/bo4e.com.html" xlink:type="simple"><text fill="#0000FF" font-family="sans-serif" font-size="14" font-weight="bold" lengthAdjust="spacing" text-decoration="underline" textLength="76.6992" x="1098.5" y="176.9951">bo4e.com</text></a></g><!--class Marktteilnehmer--><g class="entity" data-entity="Marktteilnehmer" data-source-line="11" data-uid="ent0004" id="entity_Marktteilnehmer"><rect fill="#F1F1F1" height="37.9375" rx="2.5" ry="2.5" style="stroke:#181818;stroke-width:0.5;" width="159.959" x="1083.55" y="84.03"/><ellipse cx="1098.55" cy="102.9988" fill="#ADD1B2" rx="11" ry="11" style="stroke:#181818;stroke-width:1;"/><path d="M1101.5188,108.6394 Q1100.9406,108.9363 1100.3,109.0769 Q1099.6594,109.2331 1098.9563,109.2331 Q1096.4563,109.2331 1095.1281,107.5925 Q1093.8156,105.9363 1093.8156,102.8113 Q1093.8156,99.6863 1095.1281,98.03 Q1096.4563,96.3738 1098.9563,96.3738 Q1099.6594,96.3738 1100.3,96.53 Q1100.9563,96.6863 1101.5188,96.9831 L1101.5188,99.7019 Q1100.8938,99.1238 1100.3,98.8581 Q1099.7063,98.5769 1099.0813,98.5769 Q1097.7375,98.5769 1097.05,99.655 Q1096.3625,100.7175 1096.3625,102.8113 Q1096.3625,104.905 1097.05,105.9831 Q1097.7375,107.0456 1099.0813,107.0456 Q1099.7063,107.0456 1100.3,106.78 Q1100.8938,106.4988 1101.5188,105.9206 L1101.5188,108.6394 Z " fill="#000000"/><a href="https://bo4e.github.io/BO4E-python/v202501.1.0-rc1/api/bo4e.bo.html#bo4e.bo.marktteilnehmer.Marktteilnehmer" target="_top" title="https://bo4e.github.io/BO4E-python/v202501.1.0-rc1/api/bo4e.bo.html#bo4e.bo.marktteilnehmer.Marktteilnehmer" xlink:actuate="onRequest" xlink:href="https://bo4e.github.io/BO4E-python/v202501.1.0-rc1/api/bo4e.bo.html#bo4e.bo.marktteilnehmer.Marktteilnehmer" xlink:show="new" xlink:title="https://bo4e.github.io/BO4E-python/v202501.1.0-rc1/api/bo4e.bo.html#bo4e.bo.marktteilnehmer.Marktteilnehmer" xlink:type="simple"><text fill="#0000FF" font-family="sans-serif" font-size="14" lengthAdjust="spacing" text-decoration="underline" textLength="116.2588" x="1118.4001" y="102.0251">Marktteilnehmer</text></a><text fill="#000000" font-family="sans-serif" font-size="10" lengthAdjust="spacing" textLength="127.959" x="1112.55" y="114.6091">bo4e.bo.marktteilnehmer</text></g><!--class COM--><g class="entity" data-entity="COM" data-source-line="14" data-uid="ent0007" id="entity_COM"><rect fill="#F1F1F1" height="37.9375" rx="2.5" ry="2.5" style="stroke:#181818;stroke-width:0.5;" width="106.0527" x="1110.5" y="197.03"/><ellipse cx="1125.5" cy="215.9988" fill="#ADD1B2" rx="11" ry="11" style="stroke:#181818;stroke-width:1;"/><path d="M1128.4688,221.6394 Q1127.8906,221.9363 1127.25,222.0769 Q1126.6094,222.2331 1125.9063,222.2331 Q1123.4063,222.2331 1122.0781,220.5925 Q1120.7656,218.9363 1120.7656,215.8113 Q1120.7656,212.6863 1122.0781,211.03 Q1123.4063,209.3738 1125.9063,209.3738 Q1126.6094,209.3738 1127.25,209.53 Q1127.9063,209.6863 1128.4688,209.9831 L1128.4688,212.7019 Q1127.8438,212.1238 1127.25,211.8581 Q1126.6563,211.5769 1126.0313,211.5769 Q1124.6875,211.5769 1124,212.655 Q1123.3125,213.7175 1123.3125,215.8113 Q1123.3125,217.905 1124,218.9831 Q1124.6875,220.0456 1126.0313,220.0456 Q1126.6563,220.0456 1127.25,219.78 Q1127.8438,219.4988 1128.4688,218.9206 L1128.4688,221.6394 Z " fill="#000000"/><a href="https://bo4e.github.io/BO4E-python/v202501.1.0-rc1/api/bo4e.com.html#bo4e.com.com.COM" target="_top" title="https://bo4e.github.io/BO4E-python/v202501.1.0-rc1/api/bo4e.com.html#bo4e.com.com.COM" xlink:actuate="onRequest" xlink:href="https://bo4e.github.io/BO4E-python/v202501.1.0-rc1/api/bo4e.com.html#bo4e.com.com.COM" xlink:show="new" xlink:title="https://bo4e.github.io/BO4E-python/v202501.1.0-rc1/api/bo4e.com.html#bo4e.com.com.COM" xlink:type="simple"><text fill="#0000FF" font-family="sans-serif" font-size="14" lengthAdjust="spacing" text-decoration="underline" textLength="32.874" x="1160.0894" y="215.0251">COM</text></a><text fill="#000000" font-family="sans-serif" font-size="10" lengthAdjust="spacing" textLength="74.0527" x="1139.5" y="227.6091">bo4e.com.com</text></g><!--class Konfigurationsprodukt--><g class="entity" data-entity="Konfigurationsprodukt" data-source-line="3" data-uid="ent0002" id="entity_Konfigurationsprodukt"><rect fill="#F1F1F1" height="111.125" rx="2.5" ry="2.5" style="stroke:#181818;stroke-width:0.5;" width="902.5518" x="7" y="104.44"/><ellipse cx="372.2729" cy="123.4088" fill="#ADD1B2" rx="11" ry="11" style="stroke:#181818;stroke-width:1;"/><path d="M375.2417,129.0494 Q374.6636,129.3463 374.0229,129.4869 Q373.3823,129.6431 372.6792,129.6431 Q370.1792,129.6431 368.8511,128.0025 Q367.5386,126.3463 367.5386,123.2213 Q367.5386,120.0963 368.8511,118.44 Q370.1792,116.7838 372.6792,116.7838 Q373.3823,116.7838 374.0229,116.94 Q374.6792,117.0963 375.2417,117.3931 L375.2417,120.1119 Q374.6167,119.5338 374.0229,119.2681 Q373.4292,118.9869 372.8042,118.9869 Q371.4604,118.9869 370.7729,120.065 Q370.0854,121.1275 370.0854,123.2213 Q370.0854,125.315 370.7729,126.3931 Q371.4604,127.4556 372.8042,127.4556 Q373.4292,127.4556 374.0229,127.19 Q374.6167,126.9088 375.2417,126.3306 L375.2417,129.0494 Z " fill="#000000"/><a href="https://bo4e.github.io/BO4E-python/v202501.1.0-rc1/api/bo4e.com.html#bo4e.com.konfigurationsprodukt.Konfigurationsprodukt" target="_top" title="https://bo4e.github.io/BO4E-python/v202501.1.0-rc1/api/bo4e.com.html#bo4e.com.konfigurationsprodukt.Konfigurationsprodukt" xlink:actuate="onRequest" xlink:href="https://bo4e.github.io/BO4E-python/v202501.1.0-rc1/api/bo4e.com.html#bo4e.com.konfigurationsprodukt.Konfigurationsprodukt" xlink:show="new" xlink:title="https://bo4e.github.io/BO4E-python/v202501.1.0-rc1/api/bo4e.com.html#bo4e.com.konfigurationsprodukt.Konfigurationsprodukt" xlink:type="simple"><text fill="#0000FF" font-family="sans-serif" font-size="14" lengthAdjust="spacing" text-decoration="underline" textLength="156.208" x="396.4219" y="122.4351">Konfigurationsprodukt</text></a><text fill="#000000" font-family="sans-serif" font-size="10" lengthAdjust="spacing" textLength="163.5059" x="392.7729" y="135.0191">bo4e.com.konfigurationsprodukt</text><line style="stroke:#181818;stroke-width:0.5;" x1="8" x2="908.5518" y1="142.3775" y2="142.3775"/><text fill="#000000" font-family="sans-serif" font-size="14" lengthAdjust="spacing" textLength="890.5518" x="13" y="159.3726">_typ : Literal[&lt;ComTyp.KONFIGURATIONSPRODUKT: 'KONFIGURATIONSPRODUKT'&gt;] [1] = ComTyp.KONFIGURATIONSPRODUKT</text><text fill="#000000" font-family="sans-serif" font-size="14" lengthAdjust="spacing" textLength="219.7275" x="13" y="175.6695">produktcode : str [0..1] = None</text><text fill="#000000" font-family="sans-serif" font-size="14" lengthAdjust="spacing" textLength="308.9092" x="13" y="191.9664">leistungskurvendefinition : str [0..1] = None</text><text fill="#000000" font-family="sans-serif" font-size="14" lengthAdjust="spacing" textLength="264.4619" x="13" y="208.2632">schaltzeitdefinition : str [0..1] = None</text></g><!--link Konfigurationsprodukt to COM--><g class="link" data-entity-1="Konfigurationsprodukt" data-entity-2="COM" data-source-line="17" data-uid="lnk8" id="link_Konfigurationsprodukt_COM"><path codeLine="17" d="M909.63,195.86 C990.4,202.29 1045.667,206.6883 1092.287,210.4083" fill="none" id="Konfigurationsprodukt-to-COM" style="stroke:#181818;stroke-width:1;"/><polygon fill="none" points="1110.23,211.84,1092.7643,204.4273,1091.8098,216.3892,1110.23,211.84" style="stroke:#181818;stroke-width:1;"/></g><!--link Konfigurationsprodukt to Marktteilnehmer--><g class="link" data-entity-1="Konfigurationsprodukt" data-entity-2="Marktteilnehmer" data-source-line="18" data-uid="lnk9" id="link_Konfigurationsprodukt_Marktteilnehmer"><path codeLine="18" d="M909.63,123.5 C976.18,118.1 1025.6392,114.0996 1071.2792,110.3996" fill="none" id="Konfigurationsprodukt-to-Marktteilnehmer" style="stroke:#181818;stroke-width:1;"/><polygon fill="#181818" points="1083.24,109.43,1076.9364,105.9279,1071.2792,110.3996,1077.5828,113.9017,1083.24,109.43" style="stroke:#181818;stroke-width:1;"/><text fill="#000000" font-family="sans-serif" font-size="13" lengthAdjust="spacing" textLength="86.8423" x="940.55" y="112.0669">marktpartner</text><text fill="#000000" font-family="sans-serif" font-size="13" lengthAdjust="spacing" textLength="24.8066" x="1050.7692" y="122.7873">0..1</text></g><!--SRC=[hLDDJzj043t7lsAK790gPMqZ2iYYaKAW5Kg94OIJQrKRUnAlOkzQksDGQFlVMPi4KUBGGtEOmnkz-T2RDpdE2KY15ekC81KQ4n9AEawISsEW6qKPKMa2rvsf8sGBGLarOqAvv-7HPRzSKQQa-t3e7NxsVEOphwyJt-MbUA4dgc0P5Ndl5IsLd8j5fNaznPHQfTMIsBWj2wtPEFuXpunumi3t1X-txG8txKtWbzFvIQiI0lWk23NFexEHAgQhaet3oTUhR_Utm-bLEBcxkGqlxiVJ00vQymU3628_XY_mKRNJMOzDL8fsf24DaSTOKpXH4frEZi9G9HTcMUa7b2dEXHJrnkrqasGyfoSKz0_c7yUHl41JyWJ_zvWprTmIrY2E6ttN27hdnnSdmzDQsRrOPpsjjm45rqiY5Bd4h43Dhl_6y0vlssIxHxF_kpghsDu4sxWVDkYjP1P2xz8RdXwFzgRPzhlLCGglmKRxuzXeThA4sYmxFh7V_pruNRjkk8jecP-WMrkmkt76rgK2QEvGSatI2kvamdv5WSKCjN5CfXvXH_Evm3mrpm00]--></g></svg>