<svg xmlns="http://www.w3.org/2000/svg" xmlns:xlink="http://www.w3.org/1999/xlink" contentStyleType="text/css" data-diagram-type="CLASS" height="355px" preserveAspectRatio="none" style="width:1253px;height:355px;background:#FFFFFF;" version="1.1" viewBox="0 0 1253 355" width="1253px" zoomAndPan="magnify"><defs/><g><!--cluster bo4e--><g class="cluster" data-entity="bo4e" data-source-line="8" data-uid="ent0005" id="cluster_bo4e"><path d="M1001.99,6 L1041.866,6 A3.75,3.75 0 0 1 1044.366,8.5 L1051.366,28.2969 L1243.6,28.2969 A2.5,2.5 0 0 1 1246.1,30.7969 L1246.1,345.5 A2.5,2.5 0 0 1 1243.6,348 L1001.99,348 A2.5,2.5 0 0 1 999.49,345.5 L999.49,8.5 A2.5,2.5 0 0 1 1001.99,6" fill="none" style="stroke:#000000;stroke-width:1.5;"/><line style="stroke:#000000;stroke-width:1.5;" x1="999.49" x2="1051.366" y1="28.2969" y2="28.2969"/><text fill="#000000" font-family="sans-serif" font-size="14" font-weight="bold" lengthAdjust="spacing" textLength="38.876" x="1003.49" y="20.9951">bo4e</text></g><!--cluster com--><g class="cluster" data-entity="com" data-source-line="7" data-uid="ent0003" id="cluster_com"><path d="M1032.9,49 L1110.5992,49 A3.75,3.75 0 0 1 1113.0992,51.5 L1120.0992,71.2969 L1212.69,71.2969 A2.5,2.5 0 0 1 1215.19,73.7969 L1215.19,208.5 A2.5,2.5 0 0 1 1212.69,211 L1032.9,211 A2.5,2.5 0 0 1 1030.4,208.5 L1030.4,51.5 A2.5,2.5 0 0 1 1032.9,49" fill="#E0A86C" style="stroke:#000000;stroke-width:1.5;"/><line style="stroke:#000000;stroke-width:1.5;" x1="1030.4" x2="1120.0992" y1="71.2969" y2="71.2969"/><a href="https://bo4e.github.io/BO4E-python/v202501.1.0-rc1/api/bo4e.com.html" target="_top" title="https://bo4e.github.io/BO4E-python/v202501.1.0-rc1/api/bo4e.com.html" xlink:actuate="onRequest" xlink:href="https://bo4e.github.io/BO4E-python/v202501.1.0-rc1/api/bo4e.com.html" xlink:show="new" xlink:title="https://bo4e.github.io/BO4E-python/v202501.1.0-rc1/api/bo4e.com.html" xlink:type="simple"><text fill="#0000FF" font-family="sans-serif" font-size="14" font-weight="bold" lengthAdjust="spacing" text-decoration="underline" textLength="76.6992" x="1034.4" y="63.9951">bo4e.com</text></a></g><!--cluster enum--><g class="cluster" data-entity="enum" data-source-line="11" data-uid="ent0007" id="cluster_enum"><path d="M1025.99,235 L1115.2009,235 A3.75,3.75 0 0 1 1117.7009,237.5 L1124.7009,257.2969 L1219.6,257.2969 A2.5,2.5 0 0 1 1222.1,259.7969 L1222.1,321.5 A2.5,2.5 0 0 1 1219.6,324 L1025.99,324 A2.5,2.5 0 0 1 1023.49,321.5 L1023.49,237.5 A2.5,2.5 0 0 1 1025.99,235" fill="#D1C358" style="stroke:#000000;stroke-width:1.5;"/><line style="stroke:#000000;stroke-width:1.5;" x1="1023.49" x2="1124.7009" y1="257.2969" y2="257.2969"/><a href="https://bo4e.github.io/BO4E-python/v202501.1.0-rc1/api/bo4e.enum.html" target="_top" title="https://bo4e.github.io/BO4E-python/v202501.1.0-rc1/api/bo4e.enum.html" xlink:actuate="onRequest" xlink:href="https://bo4e.github.io/BO4E-python/v202501.1.0-rc1/api/bo4e.enum.html" xlink:show="new" xlink:title="https://bo4e.github.io/BO4E-python/v202501.1.0-rc1/api/bo4e.enum.html" xlink:type="simple"><text fill="#0000FF" font-family="sans-serif" font-size="14" font-weight="bold" lengthAdjust="spacing" text-decoration="underline" textLength="88.2109" x="1027.49" y="249.9951">bo4e.enum</text></a></g><!--class KriteriumWert--><g class="entity" data-entity="KriteriumWert" data-source-line="8" data-uid="ent0004" id="entity_KriteriumWert"><rect fill="#F1F1F1" height="37.9375" rx="2.5" ry="2.5" style="stroke:#181818;stroke-width:0.5;" width="152.7813" x="1046.4" y="84.03"/><ellipse cx="1061.4" cy="102.9987" fill="#ADD1B2" rx="11" ry="11" style="stroke:#181818;stroke-width:1;"/><path d="M1064.3688,108.6394 Q1063.7906,108.9362 1063.15,109.0769 Q1062.5094,109.2331 1061.8063,109.2331 Q1059.3063,109.2331 1057.9781,107.5925 Q1056.6656,105.9362 1056.6656,102.8112 Q1056.6656,99.6862 1057.9781,98.03 Q1059.3063,96.3737 1061.8063,96.3737 Q1062.5094,96.3737 1063.15,96.53 Q1063.8063,96.6862 1064.3688,96.9831 L1064.3688,99.7019 Q1063.7438,99.1237 1063.15,98.8581 Q1062.5563,98.5769 1061.9313,98.5769 Q1060.5875,98.5769 1059.9,99.655 Q1059.2125,100.7175 1059.2125,102.8112 Q1059.2125,104.905 1059.9,105.9831 Q1060.5875,107.0456 1061.9313,107.0456 Q1062.5563,107.0456 1063.15,106.78 Q1063.7438,106.4987 1064.3688,105.9206 L1064.3688,108.6394 Z " fill="#000000"/><a href="https://bo4e.github.io/BO4E-python/v202501.1.0-rc1/api/bo4e.com.html#bo4e.com.kriteriumwert.KriteriumWert" target="_top" title="https://bo4e.github.io/BO4E-python/v202501.1.0-rc1/api/bo4e.com.html#bo4e.com.kriteriumwert.KriteriumWert" xlink:actuate="onRequest" xlink:href="https://bo4e.github.io/BO4E-python/v202501.1.0-rc1/api/bo4e.com.html#bo4e.com.kriteriumwert.KriteriumWert" xlink:show="new" xlink:title="https://bo4e.github.io/BO4E-python/v202501.1.0-rc1/api/bo4e.com.html#bo4e.com.kriteriumwert.KriteriumWert" xlink:type="simple"><text fill="#0000FF" font-family="sans-serif" font-size="14" lengthAdjust="spacing" text-decoration="underline" textLength="98.7861" x="1086.3976" y="102.0251">KriteriumWert</text></a><text fill="#000000" font-family="sans-serif" font-size="10" lengthAdjust="spacing" textLength="120.7813" x="1075.4" y="114.6091">bo4e.com.kriteriumwert</text></g><!--class COM--><g class="entity" data-entity="COM" data-source-line="9" data-uid="ent0006" id="entity_COM"><rect fill="#F1F1F1" height="37.9375" rx="2.5" ry="2.5" style="stroke:#181818;stroke-width:0.5;" width="106.0527" x="1069.77" y="157.03"/><ellipse cx="1084.77" cy="175.9988" fill="#ADD1B2" rx="11" ry="11" style="stroke:#181818;stroke-width:1;"/><path d="M1087.7388,181.6394 Q1087.1606,181.9363 1086.52,182.0769 Q1085.8794,182.2331 1085.1763,182.2331 Q1082.6763,182.2331 1081.3481,180.5925 Q1080.0356,178.9363 1080.0356,175.8113 Q1080.0356,172.6863 1081.3481,171.03 Q1082.6763,169.3738 1085.1763,169.3738 Q1085.8794,169.3738 1086.52,169.53 Q1087.1763,169.6863 1087.7388,169.9831 L1087.7388,172.7019 Q1087.1138,172.1238 1086.52,171.8581 Q1085.9263,171.5769 1085.3013,171.5769 Q1083.9575,171.5769 1083.27,172.655 Q1082.5825,173.7175 1082.5825,175.8113 Q1082.5825,177.905 1083.27,178.9831 Q1083.9575,180.0456 1085.3013,180.0456 Q1085.9263,180.0456 1086.52,179.78 Q1087.1138,179.4988 1087.7388,178.9206 L1087.7388,181.6394 Z " fill="#000000"/><a href="https://bo4e.github.io/BO4E-python/v202501.1.0-rc1/api/bo4e.com.html#bo4e.com.com.COM" target="_top" title="https://bo4e.github.io/BO4E-python/v202501.1.0-rc1/api/bo4e.com.html#bo4e.com.com.COM" xlink:actuate="onRequest" xlink:href="https://bo4e.github.io/BO4E-python/v202501.1.0-rc1/api/bo4e.com.html#bo4e.com.com.COM" xlink:show="new" xlink:title="https://bo4e.github.io/BO4E-python/v202501.1.0-rc1/api/bo4e.com.html#bo4e.com.com.COM" xlink:type="simple"><text fill="#0000FF" font-family="sans-serif" font-size="14" lengthAdjust="spacing" text-decoration="underline" textLength="32.874" x="1119.3594" y="175.0251">COM</text></a><text fill="#000000" font-family="sans-serif" font-size="10" lengthAdjust="spacing" textLength="74.0527" x="1098.77" y="187.6091">bo4e.com.com</text></g><!--class Gueltigkeitstyp--><g class="entity" data-entity="Gueltigkeitstyp" data-source-line="12" data-uid="ent0008" id="entity_Gueltigkeitstyp"><rect fill="#F1F1F1" height="37.9375" rx="2.5" ry="2.5" style="stroke:#181818;stroke-width:0.5;" width="166.6094" x="1039.49" y="270.03"/><ellipse cx="1054.49" cy="288.9988" fill="#ADD1B2" rx="11" ry="11" style="stroke:#181818;stroke-width:1;"/><path d="M1057.4588,294.6394 Q1056.8806,294.9363 1056.24,295.0769 Q1055.5994,295.2331 1054.8963,295.2331 Q1052.3963,295.2331 1051.0681,293.5925 Q1049.7556,291.9363 1049.7556,288.8113 Q1049.7556,285.6863 1051.0681,284.03 Q1052.3963,282.3738 1054.8963,282.3738 Q1055.5994,282.3738 1056.24,282.53 Q1056.8963,282.6863 1057.4588,282.9831 L1057.4588,285.7019 Q1056.8338,285.1238 1056.24,284.8581 Q1055.6463,284.5769 1055.0213,284.5769 Q1053.6775,284.5769 1052.99,285.655 Q1052.3025,286.7175 1052.3025,288.8113 Q1052.3025,290.905 1052.99,291.9831 Q1053.6775,293.0456 1055.0213,293.0456 Q1055.6463,293.0456 1056.24,292.78 Q1056.8338,292.4988 1057.4588,291.9206 L1057.4588,294.6394 Z " fill="#000000"/><a href="https://bo4e.github.io/BO4E-python/v202501.1.0-rc1/api/bo4e.enum.html#bo4e.enum.gueltigkeitstyp.Gueltigkeitstyp" target="_top" title="https://bo4e.github.io/BO4E-python/v202501.1.0-rc1/api/bo4e.enum.html#bo4e.enum.gueltigkeitstyp.Gueltigkeitstyp" xlink:actuate="onRequest" xlink:href="https://bo4e.github.io/BO4E-python/v202501.1.0-rc1/api/bo4e.enum.html#bo4e.enum.gueltigkeitstyp.Gueltigkeitstyp" xlink:show="new" xlink:title="https://bo4e.github.io/BO4E-python/v202501.1.0-rc1/api/bo4e.enum.html#bo4e.enum.gueltigkeitstyp.Gueltigkeitstyp" xlink:type="simple"><text fill="#0000FF" font-family="sans-serif" font-size="14" lengthAdjust="spacing" text-decoration="underline" textLength="106.5449" x="1082.5222" y="288.0251">Gueltigkeitstyp</text></a><text fill="#000000" font-family="sans-serif" font-size="10" lengthAdjust="spacing" textLength="134.6094" x="1068.49" y="300.6091">bo4e.enum.gueltigkeitstyp</text></g><!--class RegionaleGueltigkeit--><g class="entity" data-entity="RegionaleGueltigkeit" data-source-line="3" data-uid="ent0002" id="entity_RegionaleGueltigkeit"><rect fill="#F1F1F1" height="62.2344" rx="2.5" ry="2.5" style="stroke:#181818;stroke-width:0.5;" width="839.4902" x="7" y="144.88"/><ellipse cx="346.0425" cy="163.8488" fill="#ADD1B2" rx="11" ry="11" style="stroke:#181818;stroke-width:1;"/><path d="M349.0112,169.4894 Q348.4331,169.7863 347.7925,169.9269 Q347.1519,170.0831 346.4487,170.0831 Q343.9487,170.0831 342.6206,168.4425 Q341.3081,166.7863 341.3081,163.6613 Q341.3081,160.5363 342.6206,158.88 Q343.9487,157.2238 346.4487,157.2238 Q347.1519,157.2238 347.7925,157.38 Q348.4487,157.5363 349.0112,157.8331 L349.0112,160.5519 Q348.3862,159.9738 347.7925,159.7081 Q347.1987,159.4269 346.5737,159.4269 Q345.23,159.4269 344.5425,160.505 Q343.855,161.5675 343.855,163.6613 Q343.855,165.755 344.5425,166.8331 Q345.23,167.8956 346.5737,167.8956 Q347.1987,167.8956 347.7925,167.63 Q348.3862,167.3488 349.0112,166.7706 L349.0112,169.4894 Z " fill="#000000"/><a href="https://bo4e.github.io/BO4E-python/v202501.1.0-rc1/api/bo4e.com.html#bo4e.com.regionalegueltigkeit.RegionaleGueltigkeit" target="_top" title="https://bo4e.github.io/BO4E-python/v202501.1.0-rc1/api/bo4e.com.html#bo4e.com.regionalegueltigkeit.RegionaleGueltigkeit" xlink:actuate="onRequest" xlink:href="https://bo4e.github.io/BO4E-python/v202501.1.0-rc1/api/bo4e.com.html#bo4e.com.regionalegueltigkeit.RegionaleGueltigkeit" xlink:show="new" xlink:title="https://bo4e.github.io/BO4E-python/v202501.1.0-rc1/api/bo4e.com.html#bo4e.com.regionalegueltigkeit.RegionaleGueltigkeit" xlink:type="simple"><text fill="#0000FF" font-family="sans-serif" font-size="14" lengthAdjust="spacing" text-decoration="underline" textLength="146.2275" x="369.8813" y="162.8751">RegionaleGueltigkeit</text></a><text fill="#000000" font-family="sans-serif" font-size="10" lengthAdjust="spacing" textLength="152.9053" x="366.5425" y="175.4591">bo4e.com.regionalegueltigkeit</text><line style="stroke:#181818;stroke-width:0.5;" x1="8" x2="845.4902" y1="182.8175" y2="182.8175"/><text fill="#000000" font-family="sans-serif" font-size="14" lengthAdjust="spacing" textLength="827.4902" x="13" y="199.8126">_typ : Literal[&lt;ComTyp.REGIONALEGUELTIGKEIT: 'REGIONALEGUELTIGKEIT'&gt;] [1] = ComTyp.REGIONALEGUELTIGKEIT</text></g><!--link RegionaleGueltigkeit to COM--><g class="link" data-entity-1="RegionaleGueltigkeit" data-entity-2="COM" data-source-line="15" data-uid="lnk9" id="link_RegionaleGueltigkeit_COM"><path codeLine="15" d="M846.99,176 C936.18,176 1000.72,176 1051.59,176" fill="none" id="RegionaleGueltigkeit-to-COM" style="stroke:#181818;stroke-width:1;"/><polygon fill="none" points="1069.59,176,1051.59,170,1051.59,182,1069.59,176" style="stroke:#181818;stroke-width:1;"/></g><!--link RegionaleGueltigkeit to Gueltigkeitstyp--><g class="link" data-entity-1="RegionaleGueltigkeit" data-entity-2="Gueltigkeitstyp" data-source-line="16" data-uid="lnk10" id="link_RegionaleGueltigkeit_Gueltigkeitstyp"><path codeLine="16" d="M621.54,207.55 C759.1,229.95 925.026,256.9611 1027.386,273.6311" fill="none" id="RegionaleGueltigkeit-to-Gueltigkeitstyp" style="stroke:#181818;stroke-width:1;"/><polygon fill="#181818" points="1039.23,275.56,1033.951,270.6476,1027.386,273.6311,1032.6651,278.5436,1039.23,275.56" style="stroke:#181818;stroke-width:1;"/><text fill="#000000" font-family="sans-serif" font-size="13" lengthAdjust="spacing" textLength="97.1128" x="881.49" y="246.0669">gueltigkeitstyp</text><text fill="#000000" font-family="sans-serif" font-size="13" lengthAdjust="spacing" textLength="24.8066" x="1006.7547" y="287.1039">0..1</text></g><!--link RegionaleGueltigkeit to KriteriumWert--><g class="link" data-entity-1="RegionaleGueltigkeit" data-entity-2="KriteriumWert" data-source-line="17" data-uid="lnk11" id="link_RegionaleGueltigkeit_KriteriumWert"><path codeLine="17" d="M728.13,144.41 C845,132.11 957.116,120.3267 1034.036,112.2267" fill="none" id="RegionaleGueltigkeit-to-KriteriumWert" style="stroke:#181818;stroke-width:1;"/><polygon fill="#181818" points="1045.97,110.97,1039.5841,107.6203,1034.036,112.2267,1040.4219,115.5764,1045.97,110.97" style="stroke:#181818;stroke-width:1;"/><text fill="#000000" font-family="sans-serif" font-size="13" lengthAdjust="spacing" textLength="105.5044" x="877.49" y="115.0669">kriteriumsWerte</text><text fill="#000000" font-family="sans-serif" font-size="13" lengthAdjust="spacing" textLength="23.0356" x="1015.3815" y="124.3722">0..*</text></g><!--SRC=[jLDDQy9043rtVyKG3uBW9h5Q95Z1IWYYhI2M7cmeCOx9Ohx8hXNxyT-RM1ADflQYXpcyOURjctcp7Yu5Y11YvhW25Yn6Mx0m8CJsBCv1cirS8IAkoV8yR29rc73NSyf2-M7SrElHLhXX8Bytb4PBKQbAbNfigx8LiTzoE_IfAtolagCOdOJUyj1PeoUOiq8cw2HB6liab2LDypNeSFQ1cgfqpt9AOF5I2lWaDszY6u468oOmjhnPfn_wqsr49xen63_rHhhnh8-c0sEe3wOQLClIrQu9CzM4UpZJIxu92ImVUMJPUAbLGePCSpTZ1g6YAxtsNJ-TxqhUhU9qOMpjRp0MT9YXbmH10PNRL6ZVQIyqNKrs6ltn8oHHBYo9dPoa8B7iOevXi3wqB8M7dgKOAWlLlcsrBsPQ_cPb3mz-1KyEdnf534VuT4TbBBivZZhJUo__o_NwLpU_rDICF-gImXf82gMgj5_IYM0DZiJynrQJzeyNprQ3_2fvca12NBP0yD6VOym9TyCDbBCl6NeB_WC0]--></g></svg>