<svg xmlns="http://www.w3.org/2000/svg" xmlns:xlink="http://www.w3.org/1999/xlink" contentStyleType="text/css" data-diagram-type="CLASS" height="173px" preserveAspectRatio="none" style="width:981px;height:173px;background:#FFFFFF;" version="1.1" viewBox="0 0 981 173" width="981px" zoomAndPan="magnify"><defs/><g><!--cluster bo4e--><g class="cluster" data-entity="bo4e" data-source-line="12" data-uid="ent0005" id="cluster_bo4e"><path d="M791,6 L830.876,6 A3.75,3.75 0 0 1 833.376,8.5 L840.376,28.2969 L972.05,28.2969 A2.5,2.5 0 0 1 974.55,30.7969 L974.55,159.5 A2.5,2.5 0 0 1 972.05,162 L791,162 A2.5,2.5 0 0 1 788.5,159.5 L788.5,8.5 A2.5,2.5 0 0 1 791,6" fill="none" style="stroke:#000000;stroke-width:1.5;"/><line style="stroke:#000000;stroke-width:1.5;" x1="788.5" x2="840.376" y1="28.2969" y2="28.2969"/><text fill="#000000" font-family="sans-serif" font-size="14" font-weight="bold" lengthAdjust="spacing" textLength="38.876" x="792.5" y="20.9951">bo4e</text></g><!--cluster com--><g class="cluster" data-entity="com" data-source-line="11" data-uid="ent0003" id="cluster_com"><path d="M815,49 L892.6992,49 A3.75,3.75 0 0 1 895.1992,51.5 L902.1992,71.2969 L948.05,71.2969 A2.5,2.5 0 0 1 950.55,73.7969 L950.55,135.5 A2.5,2.5 0 0 1 948.05,138 L815,138 A2.5,2.5 0 0 1 812.5,135.5 L812.5,51.5 A2.5,2.5 0 0 1 815,49" fill="#E0A86C" style="stroke:#000000;stroke-width:1.5;"/><line style="stroke:#000000;stroke-width:1.5;" x1="812.5" x2="902.1992" y1="71.2969" y2="71.2969"/><a href="https://bo4e.github.io/BO4E-python/v202501.1.0-rc1/api/bo4e.com.html" target="_top" title="https://bo4e.github.io/BO4E-python/v202501.1.0-rc1/api/bo4e.com.html" xlink:actuate="onRequest" xlink:href="https://bo4e.github.io/BO4E-python/v202501.1.0-rc1/api/bo4e.com.html" xlink:show="new" xlink:title="https://bo4e.github.io/BO4E-python/v202501.1.0-rc1/api/bo4e.com.html" xlink:type="simple"><text fill="#0000FF" font-family="sans-serif" font-size="14" font-weight="bold" lengthAdjust="spacing" text-decoration="underline" textLength="76.6992" x="816.5" y="63.9951">bo4e.com</text></a></g><!--class COM--><g class="entity" data-entity="COM" data-source-line="12" data-uid="ent0004" id="entity_COM"><rect fill="#F1F1F1" height="37.9375" rx="2.5" ry="2.5" style="stroke:#181818;stroke-width:0.5;" width="106.0527" x="828.5" y="84.03"/><ellipse cx="843.5" cy="102.9988" fill="#ADD1B2" rx="11" ry="11" style="stroke:#181818;stroke-width:1;"/><path d="M846.4688,108.6394 Q845.8906,108.9363 845.25,109.0769 Q844.6094,109.2331 843.9063,109.2331 Q841.4063,109.2331 840.0781,107.5925 Q838.7656,105.9363 838.7656,102.8113 Q838.7656,99.6863 840.0781,98.03 Q841.4063,96.3738 843.9063,96.3738 Q844.6094,96.3738 845.25,96.53 Q845.9063,96.6863 846.4688,96.9831 L846.4688,99.7019 Q845.8438,99.1238 845.25,98.8581 Q844.6563,98.5769 844.0313,98.5769 Q842.6875,98.5769 842,99.655 Q841.3125,100.7175 841.3125,102.8113 Q841.3125,104.905 842,105.9831 Q842.6875,107.0456 844.0313,107.0456 Q844.6563,107.0456 845.25,106.78 Q845.8438,106.4988 846.4688,105.9206 L846.4688,108.6394 Z " fill="#000000"/><a href="https://bo4e.github.io/BO4E-python/v202501.1.0-rc1/api/bo4e.com.html#bo4e.com.com.COM" target="_top" title="https://bo4e.github.io/BO4E-python/v202501.1.0-rc1/api/bo4e.com.html#bo4e.com.com.COM" xlink:actuate="onRequest" xlink:href="https://bo4e.github.io/BO4E-python/v202501.1.0-rc1/api/bo4e.com.html#bo4e.com.com.COM" xlink:show="new" xlink:title="https://bo4e.github.io/BO4E-python/v202501.1.0-rc1/api/bo4e.com.html#bo4e.com.com.COM" xlink:type="simple"><text fill="#0000FF" font-family="sans-serif" font-size="14" lengthAdjust="spacing" text-decoration="underline" textLength="32.874" x="878.0894" y="102.0251">COM</text></a><text fill="#000000" font-family="sans-serif" font-size="10" lengthAdjust="spacing" textLength="74.0527" x="857.5" y="114.6091">bo4e.com.com</text></g><!--class Sigmoidparameter--><g class="entity" data-entity="Sigmoidparameter" data-source-line="3" data-uid="ent0002" id="entity_Sigmoidparameter"><rect fill="#F1F1F1" height="127.4219" rx="2.5" ry="2.5" style="stroke:#181818;stroke-width:0.5;" width="761.499" x="7" y="39.29"/><ellipse cx="311.0947" cy="58.2587" fill="#ADD1B2" rx="11" ry="11" style="stroke:#181818;stroke-width:1;"/><path d="M314.0635,63.8994 Q313.4854,64.1962 312.8447,64.3369 Q312.2041,64.4931 311.501,64.4931 Q309.001,64.4931 307.6729,62.8525 Q306.3604,61.1962 306.3604,58.0712 Q306.3604,54.9462 307.6729,53.29 Q309.001,51.6337 311.501,51.6337 Q312.2041,51.6337 312.8447,51.79 Q313.501,51.9462 314.0635,52.2431 L314.0635,54.9619 Q313.4385,54.3837 312.8447,54.1181 Q312.251,53.8369 311.626,53.8369 Q310.2822,53.8369 309.5947,54.915 Q308.9072,55.9775 308.9072,58.0712 Q308.9072,60.165 309.5947,61.2431 Q310.2822,62.3056 311.626,62.3056 Q312.251,62.3056 312.8447,62.04 Q313.4385,61.7587 314.0635,61.1806 L314.0635,63.8994 Z " fill="#000000"/><a href="https://bo4e.github.io/BO4E-python/v202501.1.0-rc1/api/bo4e.com.html#bo4e.com.sigmoidparameter.Sigmoidparameter" target="_top" title="https://bo4e.github.io/BO4E-python/v202501.1.0-rc1/api/bo4e.com.html#bo4e.com.sigmoidparameter.Sigmoidparameter" xlink:actuate="onRequest" xlink:href="https://bo4e.github.io/BO4E-python/v202501.1.0-rc1/api/bo4e.com.html#bo4e.com.sigmoidparameter.Sigmoidparameter" xlink:show="new" xlink:title="https://bo4e.github.io/BO4E-python/v202501.1.0-rc1/api/bo4e.com.html#bo4e.com.sigmoidparameter.Sigmoidparameter" xlink:type="simple"><text fill="#0000FF" font-family="sans-serif" font-size="14" lengthAdjust="spacing" text-decoration="underline" textLength="130.5527" x="338.7231" y="57.2851">Sigmoidparameter</text></a><text fill="#000000" font-family="sans-serif" font-size="10" lengthAdjust="spacing" textLength="144.8096" x="331.5947" y="69.8691">bo4e.com.sigmoidparameter</text><line style="stroke:#181818;stroke-width:0.5;" x1="8" x2="767.499" y1="77.2275" y2="77.2275"/><text fill="#000000" font-family="sans-serif" font-size="14" lengthAdjust="spacing" textLength="749.499" x="13" y="94.2226">_typ : Literal[&lt;ComTyp.SIGMOIDPARAMETER: 'SIGMOIDPARAMETER'&gt;] [1] = ComTyp.SIGMOIDPARAMETER</text><text fill="#000000" font-family="sans-serif" font-size="14" lengthAdjust="spacing" textLength="179.5254" x="13" y="110.5195">A : Decimal [0..1] = None</text><text fill="#000000" font-family="sans-serif" font-size="14" lengthAdjust="spacing" textLength="179.5527" x="13" y="126.8164">B : Decimal [0..1] = None</text><text fill="#000000" font-family="sans-serif" font-size="14" lengthAdjust="spacing" textLength="179.7236" x="13" y="143.1132">C : Decimal [0..1] = None</text><text fill="#000000" font-family="sans-serif" font-size="14" lengthAdjust="spacing" textLength="180.7285" x="13" y="159.4101">D : Decimal [0..1] = None</text></g><!--link Sigmoidparameter to COM--><g class="link" data-entity-1="Sigmoidparameter" data-entity-2="COM" data-source-line="15" data-uid="lnk6" id="link_Sigmoidparameter_COM"><path codeLine="15" d="M768.93,103 C791.19,103 793.34,103 810.19,103" fill="none" id="Sigmoidparameter-to-COM" style="stroke:#181818;stroke-width:1;"/><polygon fill="none" points="828.19,103,810.19,97,810.19,109,828.19,103" style="stroke:#181818;stroke-width:1;"/></g><!--SRC=[jL9DQy9043sxlsBGWwTi4h6b12l468fGQr5lQIXhCheBsUoItRROZ__UnA87RMxjOGvltfl7V1MujM0LL6B7BUIYmimALHAI5SmOw2O9jrQRm7KtQeXq9on_sL2XtCbY63jwRxagtTU1DxZoVEfJpwaotsLQ_CWp9IctikYTa14xgKIkMSKaMgpewYm1vuaqVIf7HhnZu7lZLfykC7DH2X-ayspt6WAu5pLcHJAAb5plDLtDxkQBsVGnN8RpU1ql0-YVf_hZ518_XLjegI6Ti7QUOYOaAo3nA3se7rI9f3Dffw9sQjfAVH5IrbCPpJBygxF04QNfONz72BtO2s-kesP___G7JKIBETJn-u7hEFHK2vhPB__4SJx7fuuRBqAuo14aoWrMXXYktk2oR2kmoCqt]--></g></svg>