<svg xmlns="http://www.w3.org/2000/svg" xmlns:xlink="http://www.w3.org/1999/xlink" contentStyleType="text/css" data-diagram-type="CLASS" height="242px" preserveAspectRatio="none" style="width:1349px;height:242px;background:#FFFFFF;" version="1.1" viewBox="0 0 1349 242" width="1349px" zoomAndPan="magnify"><defs/><g><!--cluster bo4e--><g class="cluster" data-entity="bo4e" data-source-line="11" data-uid="ent0005" id="cluster_bo4e"><path d="M1072.88,6 L1112.756,6 A3.75,3.75 0 0 1 1115.256,8.5 L1122.256,28.2969 L1339.6,28.2969 A2.5,2.5 0 0 1 1342.1,30.7969 L1342.1,232.5 A2.5,2.5 0 0 1 1339.6,235 L1072.88,235 A2.5,2.5 0 0 1 1070.38,232.5 L1070.38,8.5 A2.5,2.5 0 0 1 1072.88,6" fill="none" style="stroke:#000000;stroke-width:1.5;"/><line style="stroke:#000000;stroke-width:1.5;" x1="1070.38" x2="1122.256" y1="28.2969" y2="28.2969"/><text fill="#000000" font-family="sans-serif" font-size="14" font-weight="bold" lengthAdjust="spacing" textLength="38.876" x="1074.38" y="20.9951">bo4e</text></g><!--cluster com--><g class="cluster" data-entity="com" data-source-line="10" data-uid="ent0003" id="cluster_com"><path d="M1096.88,49 L1174.5792,49 A3.75,3.75 0 0 1 1177.0792,51.5 L1184.0792,71.2969 L1315.6,71.2969 A2.5,2.5 0 0 1 1318.1,73.7969 L1318.1,208.5 A2.5,2.5 0 0 1 1315.6,211 L1096.88,211 A2.5,2.5 0 0 1 1094.38,208.5 L1094.38,51.5 A2.5,2.5 0 0 1 1096.88,49" fill="#E0A86C" style="stroke:#000000;stroke-width:1.5;"/><line style="stroke:#000000;stroke-width:1.5;" x1="1094.38" x2="1184.0792" y1="71.2969" y2="71.2969"/><a href="https://bo4e.github.io/BO4E-python/v202501.1.0-rc1/api/bo4e.com.html" target="_top" title="https://bo4e.github.io/BO4E-python/v202501.1.0-rc1/api/bo4e.com.html" xlink:actuate="onRequest" xlink:href="https://bo4e.github.io/BO4E-python/v202501.1.0-rc1/api/bo4e.com.html" xlink:show="new" xlink:title="https://bo4e.github.io/BO4E-python/v202501.1.0-rc1/api/bo4e.com.html" xlink:type="simple"><text fill="#0000FF" font-family="sans-serif" font-size="14" font-weight="bold" lengthAdjust="spacing" text-decoration="underline" textLength="76.6992" x="1098.38" y="63.9951">bo4e.com</text></a></g><!--class COM--><g class="entity" data-entity="COM" data-source-line="11" data-uid="ent0004" id="entity_COM"><rect fill="#F1F1F1" height="37.9375" rx="2.5" ry="2.5" style="stroke:#181818;stroke-width:0.5;" width="106.0527" x="1153.21" y="84.03"/><ellipse cx="1168.21" cy="102.9988" fill="#ADD1B2" rx="11" ry="11" style="stroke:#181818;stroke-width:1;"/><path d="M1171.1788,108.6394 Q1170.6006,108.9363 1169.96,109.0769 Q1169.3194,109.2331 1168.6163,109.2331 Q1166.1163,109.2331 1164.7881,107.5925 Q1163.4756,105.9363 1163.4756,102.8113 Q1163.4756,99.6863 1164.7881,98.03 Q1166.1163,96.3738 1168.6163,96.3738 Q1169.3194,96.3738 1169.96,96.53 Q1170.6163,96.6863 1171.1788,96.9831 L1171.1788,99.7019 Q1170.5538,99.1238 1169.96,98.8581 Q1169.3663,98.5769 1168.7413,98.5769 Q1167.3975,98.5769 1166.71,99.655 Q1166.0225,100.7175 1166.0225,102.8113 Q1166.0225,104.905 1166.71,105.9831 Q1167.3975,107.0456 1168.7413,107.0456 Q1169.3663,107.0456 1169.96,106.78 Q1170.5538,106.4988 1171.1788,105.9206 L1171.1788,108.6394 Z " fill="#000000"/><a href="https://bo4e.github.io/BO4E-python/v202501.1.0-rc1/api/bo4e.com.html#bo4e.com.com.COM" target="_top" title="https://bo4e.github.io/BO4E-python/v202501.1.0-rc1/api/bo4e.com.html#bo4e.com.com.COM" xlink:actuate="onRequest" xlink:href="https://bo4e.github.io/BO4E-python/v202501.1.0-rc1/api/bo4e.com.html#bo4e.com.com.COM" xlink:show="new" xlink:title="https://bo4e.github.io/BO4E-python/v202501.1.0-rc1/api/bo4e.com.html#bo4e.com.com.COM" xlink:type="simple"><text fill="#0000FF" font-family="sans-serif" font-size="14" lengthAdjust="spacing" text-decoration="underline" textLength="32.874" x="1202.7994" y="102.0251">COM</text></a><text fill="#000000" font-family="sans-serif" font-size="10" lengthAdjust="spacing" textLength="74.0527" x="1182.21" y="114.6091">bo4e.com.com</text></g><!--class TarifpreisstaffelProOrt--><g class="entity" data-entity="TarifpreisstaffelProOrt" data-source-line="12" data-uid="ent0006" id="entity_TarifpreisstaffelProOrt"><rect fill="#F1F1F1" height="37.9375" rx="2.5" ry="2.5" style="stroke:#181818;stroke-width:0.5;" width="191.7119" x="1110.38" y="157.03"/><ellipse cx="1125.38" cy="175.9988" fill="#ADD1B2" rx="11" ry="11" style="stroke:#181818;stroke-width:1;"/><path d="M1128.3488,181.6394 Q1127.7706,181.9363 1127.13,182.0769 Q1126.4894,182.2331 1125.7863,182.2331 Q1123.2863,182.2331 1121.9581,180.5925 Q1120.6456,178.9363 1120.6456,175.8113 Q1120.6456,172.6863 1121.9581,171.03 Q1123.2863,169.3738 1125.7863,169.3738 Q1126.4894,169.3738 1127.13,169.53 Q1127.7863,169.6863 1128.3488,169.9831 L1128.3488,172.7019 Q1127.7238,172.1238 1127.13,171.8581 Q1126.5363,171.5769 1125.9113,171.5769 Q1124.5675,171.5769 1123.88,172.655 Q1123.1925,173.7175 1123.1925,175.8113 Q1123.1925,177.905 1123.88,178.9831 Q1124.5675,180.0456 1125.9113,180.0456 Q1126.5363,180.0456 1127.13,179.78 Q1127.7238,179.4988 1128.3488,178.9206 L1128.3488,181.6394 Z " fill="#000000"/><a href="https://bo4e.github.io/BO4E-python/v202501.1.0-rc1/api/bo4e.com.html#bo4e.com.tarifpreisstaffelproort.TarifpreisstaffelProOrt" target="_top" title="https://bo4e.github.io/BO4E-python/v202501.1.0-rc1/api/bo4e.com.html#bo4e.com.tarifpreisstaffelproort.TarifpreisstaffelProOrt" xlink:actuate="onRequest" xlink:href="https://bo4e.github.io/BO4E-python/v202501.1.0-rc1/api/bo4e.com.html#bo4e.com.tarifpreisstaffelproort.TarifpreisstaffelProOrt" xlink:show="new" xlink:title="https://bo4e.github.io/BO4E-python/v202501.1.0-rc1/api/bo4e.com.html#bo4e.com.tarifpreisstaffelproort.TarifpreisstaffelProOrt" xlink:type="simple"><text fill="#0000FF" font-family="sans-serif" font-size="14" lengthAdjust="spacing" text-decoration="underline" textLength="154.8955" x="1141.7882" y="175.0251">TarifpreisstaffelProOrt</text></a><text fill="#000000" font-family="sans-serif" font-size="10" lengthAdjust="spacing" textLength="159.7119" x="1139.38" y="187.6091">bo4e.com.tarifpreisstaffelproort</text></g><!--class TarifpreispositionProOrt--><g class="entity" data-entity="TarifpreispositionProOrt" data-source-line="3" data-uid="ent0002" id="entity_TarifpreispositionProOrt"><rect fill="#F1F1F1" height="111.125" rx="2.5" ry="2.5" style="stroke:#181818;stroke-width:0.5;" width="935.3848" x="7" y="84.44"/><ellipse cx="386.397" cy="103.4088" fill="#ADD1B2" rx="11" ry="11" style="stroke:#181818;stroke-width:1;"/><path d="M389.3657,109.0494 Q388.7876,109.3463 388.147,109.4869 Q387.5063,109.6431 386.8032,109.6431 Q384.3032,109.6431 382.9751,108.0025 Q381.6626,106.3463 381.6626,103.2213 Q381.6626,100.0963 382.9751,98.44 Q384.3032,96.7838 386.8032,96.7838 Q387.5063,96.7838 388.147,96.94 Q388.8032,97.0963 389.3657,97.3931 L389.3657,100.1119 Q388.7407,99.5338 388.147,99.2681 Q387.5532,98.9869 386.9282,98.9869 Q385.5845,98.9869 384.897,100.065 Q384.2095,101.1275 384.2095,103.2213 Q384.2095,105.315 384.897,106.3931 Q385.5845,107.4556 386.9282,107.4556 Q387.5532,107.4556 388.147,107.19 Q388.7407,106.9088 389.3657,106.3306 L389.3657,109.0494 Z " fill="#000000"/><a href="https://bo4e.github.io/BO4E-python/v202501.1.0-rc1/api/bo4e.com.html#bo4e.com.tarifpreispositionproort.TarifpreispositionProOrt" target="_top" title="https://bo4e.github.io/BO4E-python/v202501.1.0-rc1/api/bo4e.com.html#bo4e.com.tarifpreispositionproort.TarifpreispositionProOrt" xlink:actuate="onRequest" xlink:href="https://bo4e.github.io/BO4E-python/v202501.1.0-rc1/api/bo4e.com.html#bo4e.com.tarifpreispositionproort.TarifpreispositionProOrt" xlink:show="new" xlink:title="https://bo4e.github.io/BO4E-python/v202501.1.0-rc1/api/bo4e.com.html#bo4e.com.tarifpreispositionproort.TarifpreispositionProOrt" xlink:type="simple"><text fill="#0000FF" font-family="sans-serif" font-size="14" lengthAdjust="spacing" text-decoration="underline" textLength="166.626" x="407.6294" y="102.4351">TarifpreispositionProOrt</text></a><text fill="#000000" font-family="sans-serif" font-size="10" lengthAdjust="spacing" textLength="168.0908" x="406.897" y="115.0191">bo4e.com.tarifpreispositionproort</text><line style="stroke:#181818;stroke-width:0.5;" x1="8" x2="941.3848" y1="122.3775" y2="122.3775"/><text fill="#000000" font-family="sans-serif" font-size="14" lengthAdjust="spacing" textLength="923.3848" x="13" y="139.3726">_typ : Literal[&lt;ComTyp.TARIFPREISPOSITIONPROORT: 'TARIFPREISPOSITIONPROORT'&gt;] [1] = ComTyp.TARIFPREISPOSITIONPROORT</text><text fill="#000000" font-family="sans-serif" font-size="14" lengthAdjust="spacing" textLength="212.208" x="13" y="155.6695">postleitzahl : str [0..1] = None</text><text fill="#000000" font-family="sans-serif" font-size="14" lengthAdjust="spacing" textLength="151.2109" x="13" y="171.9664">ort : str [0..1] = None</text><text fill="#000000" font-family="sans-serif" font-size="14" lengthAdjust="spacing" textLength="176.3535" x="13" y="188.2632">netznr : str [0..1] = None</text></g><!--link TarifpreispositionProOrt to COM--><g class="link" data-entity-1="TarifpreispositionProOrt" data-entity-2="COM" data-source-line="15" data-uid="lnk7" id="link_TarifpreispositionProOrt_COM"><path codeLine="15" d="M942.63,116.32 C1027.6,112.01 1086.5531,109.0217 1134.8631,106.5717" fill="none" id="TarifpreispositionProOrt-to-COM" style="stroke:#181818;stroke-width:1;"/><polygon fill="none" points="1152.84,105.66,1134.5592,100.5794,1135.167,112.564,1152.84,105.66" style="stroke:#181818;stroke-width:1;"/></g><!--link TarifpreispositionProOrt to TarifpreisstaffelProOrt--><g class="link" data-entity-1="TarifpreispositionProOrt" data-entity-2="TarifpreisstaffelProOrt" data-source-line="16" data-uid="lnk8" id="link_TarifpreispositionProOrt_TarifpreisstaffelProOrt"><path codeLine="16" d="M942.63,163.04 C1005.59,166.15 1052.1546,168.4481 1097.9146,170.7081" fill="none" id="TarifpreispositionProOrt-to-TarifpreisstaffelProOrt" style="stroke:#181818;stroke-width:1;"/><polygon fill="#181818" points="1109.9,171.3,1104.1046,167.0089,1097.9146,170.7081,1103.71,174.9992,1109.9,171.3" style="stroke:#181818;stroke-width:1;"/><text fill="#000000" font-family="sans-serif" font-size="13" lengthAdjust="spacing" textLength="80.8184" x="973.38" y="161.0669">preisstaffeln</text><text fill="#000000" font-family="sans-serif" font-size="13" lengthAdjust="spacing" textLength="23.0356" x="1079.319" y="183.5685">0..*</text></g><!--SRC=[jLJVIyCm47vU_ugZFWZ2qbQcI9a37HCAkewkRxL8rgKsq3OXEPLD_TzDvuyvjxeNVRY7k-_otUNkIqgM8w00nUyBX3bNB4CkQilAIgers4bI84hjEyvCz1YvvrWyp0WNpcNO6tNb0WjHEu_7xl69wn6Fk5sLUGwL_3qz4nKfi2eFlZoaYkTICQwbqBmf9PKG2acy1KoK21L26v2cjtLVyoNpFNUmbzy6gbkfuDdgtE52WW_N79cYPT8VYYfUI19VHC7L91e5qqau3U8W74-YC8nY7mxReCD12ecNmZdiuR0wfWqi6SSbBKfJNAE2n2LaTNWiQcPrJEkxWPhXibOxiLVBgcd5jAGP-wiDmgUNfgjHVhfmC78lpaw7pGZ_IJAD3SCRCBPxvyPMFPc4VsjYhIkDDCzPkINRZ_YMQZVY-qIxGVv3inj4pPBRtqot-pBuMb4pl5zoJV8Hs4P0H_RwIDkrVFWUDDz4mUSCAbRDcDAMBiGJj5VAEIld-Wq0]--></g></svg>