<svg xmlns="http://www.w3.org/2000/svg" xmlns:xlink="http://www.w3.org/1999/xlink" contentStyleType="text/css" data-diagram-type="CLASS" height="428px" preserveAspectRatio="none" style="width:1120px;height:428px;background:#FFFFFF;" version="1.1" viewBox="0 0 1120 428" width="1120px" zoomAndPan="magnify"><defs/><g><!--cluster bo4e--><g class="cluster" data-entity="bo4e" data-source-line="9" data-uid="ent0005" id="cluster_bo4e"><path d="M832.16,6 L872.036,6 A3.75,3.75 0 0 1 874.536,8.5 L881.536,28.2969 L1110.57,28.2969 A2.5,2.5 0 0 1 1113.07,30.7969 L1113.07,418.5 A2.5,2.5 0 0 1 1110.57,421 L832.16,421 A2.5,2.5 0 0 1 829.66,418.5 L829.66,8.5 A2.5,2.5 0 0 1 832.16,6" fill="none" style="stroke:#000000;stroke-width:1.5;"/><line style="stroke:#000000;stroke-width:1.5;" x1="829.66" x2="881.536" y1="28.2969" y2="28.2969"/><text fill="#000000" font-family="sans-serif" font-size="14" font-weight="bold" lengthAdjust="spacing" textLength="38.876" x="833.66" y="20.9951">bo4e</text></g><!--cluster com--><g class="cluster" data-entity="com" data-source-line="8" data-uid="ent0003" id="cluster_com"><path d="M893.31,49 L971.0092,49 A3.75,3.75 0 0 1 973.5092,51.5 L980.5092,71.2969 L1049.42,71.2969 A2.5,2.5 0 0 1 1051.92,73.7969 L1051.92,208.5 A2.5,2.5 0 0 1 1049.42,211 L893.31,211 A2.5,2.5 0 0 1 890.81,208.5 L890.81,51.5 A2.5,2.5 0 0 1 893.31,49" fill="#E0A86C" style="stroke:#000000;stroke-width:1.5;"/><line style="stroke:#000000;stroke-width:1.5;" x1="890.81" x2="980.5092" y1="71.2969" y2="71.2969"/><a href="https://bo4e.github.io/BO4E-python/v202501.1.0-rc1/api/bo4e.com.html" target="_top" title="https://bo4e.github.io/BO4E-python/v202501.1.0-rc1/api/bo4e.com.html" xlink:actuate="onRequest" xlink:href="https://bo4e.github.io/BO4E-python/v202501.1.0-rc1/api/bo4e.com.html" xlink:show="new" xlink:title="https://bo4e.github.io/BO4E-python/v202501.1.0-rc1/api/bo4e.com.html" xlink:type="simple"><text fill="#0000FF" font-family="sans-serif" font-size="14" font-weight="bold" lengthAdjust="spacing" text-decoration="underline" textLength="76.6992" x="894.81" y="63.9951">bo4e.com</text></a></g><!--cluster enum--><g class="cluster" data-entity="enum" data-source-line="12" data-uid="ent0007" id="cluster_enum"><path d="M856.16,235 L945.3709,235 A3.75,3.75 0 0 1 947.8709,237.5 L954.8709,257.2969 L1086.57,257.2969 A2.5,2.5 0 0 1 1089.07,259.7969 L1089.07,394.5 A2.5,2.5 0 0 1 1086.57,397 L856.16,397 A2.5,2.5 0 0 1 853.66,394.5 L853.66,237.5 A2.5,2.5 0 0 1 856.16,235" fill="#D1C358" style="stroke:#000000;stroke-width:1.5;"/><line style="stroke:#000000;stroke-width:1.5;" x1="853.66" x2="954.8709" y1="257.2969" y2="257.2969"/><a href="https://bo4e.github.io/BO4E-python/v202501.1.0-rc1/api/bo4e.enum.html" target="_top" title="https://bo4e.github.io/BO4E-python/v202501.1.0-rc1/api/bo4e.enum.html" xlink:actuate="onRequest" xlink:href="https://bo4e.github.io/BO4E-python/v202501.1.0-rc1/api/bo4e.enum.html" xlink:show="new" xlink:title="https://bo4e.github.io/BO4E-python/v202501.1.0-rc1/api/bo4e.enum.html" xlink:type="simple"><text fill="#0000FF" font-family="sans-serif" font-size="14" font-weight="bold" lengthAdjust="spacing" text-decoration="underline" textLength="88.2109" x="857.66" y="249.9951">bo4e.enum</text></a></g><!--class COM--><g class="entity" data-entity="COM" data-source-line="9" data-uid="ent0004" id="entity_COM"><rect fill="#F1F1F1" height="37.9375" rx="2.5" ry="2.5" style="stroke:#181818;stroke-width:0.5;" width="106.0527" x="918.34" y="84.03"/><ellipse cx="933.34" cy="102.9987" fill="#ADD1B2" rx="11" ry="11" style="stroke:#181818;stroke-width:1;"/><path d="M936.3088,108.6394 Q935.7306,108.9362 935.09,109.0769 Q934.4494,109.2331 933.7463,109.2331 Q931.2463,109.2331 929.9181,107.5925 Q928.6056,105.9362 928.6056,102.8112 Q928.6056,99.6862 929.9181,98.03 Q931.2463,96.3737 933.7463,96.3737 Q934.4494,96.3737 935.09,96.53 Q935.7463,96.6862 936.3088,96.9831 L936.3088,99.7019 Q935.6838,99.1237 935.09,98.8581 Q934.4963,98.5769 933.8713,98.5769 Q932.5275,98.5769 931.84,99.655 Q931.1525,100.7175 931.1525,102.8112 Q931.1525,104.905 931.84,105.9831 Q932.5275,107.0456 933.8713,107.0456 Q934.4963,107.0456 935.09,106.78 Q935.6838,106.4987 936.3088,105.9206 L936.3088,108.6394 Z " fill="#000000"/><a href="https://bo4e.github.io/BO4E-python/v202501.1.0-rc1/api/bo4e.com.html#bo4e.com.com.COM" target="_top" title="https://bo4e.github.io/BO4E-python/v202501.1.0-rc1/api/bo4e.com.html#bo4e.com.com.COM" xlink:actuate="onRequest" xlink:href="https://bo4e.github.io/BO4E-python/v202501.1.0-rc1/api/bo4e.com.html#bo4e.com.com.COM" xlink:show="new" xlink:title="https://bo4e.github.io/BO4E-python/v202501.1.0-rc1/api/bo4e.com.html#bo4e.com.com.COM" xlink:type="simple"><text fill="#0000FF" font-family="sans-serif" font-size="14" lengthAdjust="spacing" text-decoration="underline" textLength="32.874" x="967.9294" y="102.0251">COM</text></a><text fill="#000000" font-family="sans-serif" font-size="10" lengthAdjust="spacing" textLength="74.0527" x="947.34" y="114.6091">bo4e.com.com</text></g><!--class Zeitraum--><g class="entity" data-entity="Zeitraum" data-source-line="10" data-uid="ent0006" id="entity_Zeitraum"><rect fill="#F1F1F1" height="37.9375" rx="2.5" ry="2.5" style="stroke:#181818;stroke-width:0.5;" width="129.1143" x="906.81" y="157.03"/><ellipse cx="921.81" cy="175.9987" fill="#ADD1B2" rx="11" ry="11" style="stroke:#181818;stroke-width:1;"/><path d="M924.7788,181.6394 Q924.2006,181.9362 923.56,182.0769 Q922.9194,182.2331 922.2163,182.2331 Q919.7163,182.2331 918.3881,180.5925 Q917.0756,178.9362 917.0756,175.8112 Q917.0756,172.6862 918.3881,171.03 Q919.7163,169.3737 922.2163,169.3737 Q922.9194,169.3737 923.56,169.53 Q924.2163,169.6862 924.7788,169.9831 L924.7788,172.7019 Q924.1538,172.1237 923.56,171.8581 Q922.9663,171.5769 922.3413,171.5769 Q920.9975,171.5769 920.31,172.655 Q919.6225,173.7175 919.6225,175.8112 Q919.6225,177.905 920.31,178.9831 Q920.9975,180.0456 922.3413,180.0456 Q922.9663,180.0456 923.56,179.78 Q924.1538,179.4987 924.7788,178.9206 L924.7788,181.6394 Z " fill="#000000"/><a href="https://bo4e.github.io/BO4E-python/v202501.1.0-rc1/api/bo4e.com.html#bo4e.com.zeitraum.Zeitraum" target="_top" title="https://bo4e.github.io/BO4E-python/v202501.1.0-rc1/api/bo4e.com.html#bo4e.com.zeitraum.Zeitraum" xlink:actuate="onRequest" xlink:href="https://bo4e.github.io/BO4E-python/v202501.1.0-rc1/api/bo4e.com.html#bo4e.com.zeitraum.Zeitraum" xlink:show="new" xlink:title="https://bo4e.github.io/BO4E-python/v202501.1.0-rc1/api/bo4e.com.html#bo4e.com.zeitraum.Zeitraum" xlink:type="simple"><text fill="#0000FF" font-family="sans-serif" font-size="14" lengthAdjust="spacing" text-decoration="underline" textLength="64.4287" x="952.1528" y="175.0251">Zeitraum</text></a><text fill="#000000" font-family="sans-serif" font-size="10" lengthAdjust="spacing" textLength="97.1143" x="935.81" y="187.6091">bo4e.com.zeitraum</text></g><!--class Messwertstatus--><g class="entity" data-entity="Messwertstatus" data-source-line="13" data-uid="ent0008" id="entity_Messwertstatus"><rect fill="#F1F1F1" height="37.9375" rx="2.5" ry="2.5" style="stroke:#181818;stroke-width:0.5;" width="171.3115" x="885.71" y="270.03"/><ellipse cx="900.71" cy="288.9988" fill="#ADD1B2" rx="11" ry="11" style="stroke:#181818;stroke-width:1;"/><path d="M903.6788,294.6394 Q903.1006,294.9363 902.46,295.0769 Q901.8194,295.2331 901.1163,295.2331 Q898.6163,295.2331 897.2881,293.5925 Q895.9756,291.9363 895.9756,288.8113 Q895.9756,285.6863 897.2881,284.03 Q898.6163,282.3738 901.1163,282.3738 Q901.8194,282.3738 902.46,282.53 Q903.1163,282.6863 903.6788,282.9831 L903.6788,285.7019 Q903.0538,285.1238 902.46,284.8581 Q901.8663,284.5769 901.2413,284.5769 Q899.8975,284.5769 899.21,285.655 Q898.5225,286.7175 898.5225,288.8113 Q898.5225,290.905 899.21,291.9831 Q899.8975,293.0456 901.2413,293.0456 Q901.8663,293.0456 902.46,292.78 Q903.0538,292.4988 903.6788,291.9206 L903.6788,294.6394 Z " fill="#000000"/><a href="https://bo4e.github.io/BO4E-python/v202501.1.0-rc1/api/bo4e.enum.html#bo4e.enum.messwertstatus.Messwertstatus" target="_top" title="https://bo4e.github.io/BO4E-python/v202501.1.0-rc1/api/bo4e.enum.html#bo4e.enum.messwertstatus.Messwertstatus" xlink:actuate="onRequest" xlink:href="https://bo4e.github.io/BO4E-python/v202501.1.0-rc1/api/bo4e.enum.html#bo4e.enum.messwertstatus.Messwertstatus" xlink:show="new" xlink:title="https://bo4e.github.io/BO4E-python/v202501.1.0-rc1/api/bo4e.enum.html#bo4e.enum.messwertstatus.Messwertstatus" xlink:type="simple"><text fill="#0000FF" font-family="sans-serif" font-size="14" lengthAdjust="spacing" text-decoration="underline" textLength="109.6074" x="929.5621" y="288.0251">Messwertstatus</text></a><text fill="#000000" font-family="sans-serif" font-size="10" lengthAdjust="spacing" textLength="139.3115" x="914.71" y="300.6091">bo4e.enum.messwertstatus</text></g><!--class Messwertstatuszusatz--><g class="entity" data-entity="Messwertstatuszusatz" data-source-line="14" data-uid="ent0009" id="entity_Messwertstatuszusatz"><rect fill="#F1F1F1" height="37.9375" rx="2.5" ry="2.5" style="stroke:#181818;stroke-width:0.5;" width="203.4063" x="869.66" y="343.03"/><ellipse cx="884.66" cy="361.9988" fill="#ADD1B2" rx="11" ry="11" style="stroke:#181818;stroke-width:1;"/><path d="M887.6288,367.6394 Q887.0506,367.9363 886.41,368.0769 Q885.7694,368.2331 885.0663,368.2331 Q882.5663,368.2331 881.2381,366.5925 Q879.9256,364.9363 879.9256,361.8113 Q879.9256,358.6863 881.2381,357.03 Q882.5663,355.3738 885.0663,355.3738 Q885.7694,355.3738 886.41,355.53 Q887.0663,355.6863 887.6288,355.9831 L887.6288,358.7019 Q887.0038,358.1238 886.41,357.8581 Q885.8163,357.5769 885.1913,357.5769 Q883.8475,357.5769 883.16,358.655 Q882.4725,359.7175 882.4725,361.8113 Q882.4725,363.905 883.16,364.9831 Q883.8475,366.0456 885.1913,366.0456 Q885.8163,366.0456 886.41,365.78 Q887.0038,365.4988 887.6288,364.9206 L887.6288,367.6394 Z " fill="#000000"/><a href="https://bo4e.github.io/BO4E-python/v202501.1.0-rc1/api/bo4e.enum.html#bo4e.enum.messwertstatuszusatz.Messwertstatuszusatz" target="_top" title="https://bo4e.github.io/BO4E-python/v202501.1.0-rc1/api/bo4e.enum.html#bo4e.enum.messwertstatuszusatz.Messwertstatuszusatz" xlink:actuate="onRequest" xlink:href="https://bo4e.github.io/BO4E-python/v202501.1.0-rc1/api/bo4e.enum.html#bo4e.enum.messwertstatuszusatz.Messwertstatuszusatz" xlink:show="new" xlink:title="https://bo4e.github.io/BO4E-python/v202501.1.0-rc1/api/bo4e.enum.html#bo4e.enum.messwertstatuszusatz.Messwertstatuszusatz" xlink:type="simple"><text fill="#0000FF" font-family="sans-serif" font-size="14" lengthAdjust="spacing" text-decoration="underline" textLength="154.54" x="907.0931" y="361.0251">Messwertstatuszusatz</text></a><text fill="#000000" font-family="sans-serif" font-size="10" lengthAdjust="spacing" textLength="171.4063" x="898.66" y="373.6091">bo4e.enum.messwertstatuszusatz</text></g><!--class Zeitreihenwert--><g class="entity" data-entity="Zeitreihenwert" data-source-line="3" data-uid="ent0002" id="entity_Zeitreihenwert"><rect fill="#F1F1F1" height="78.5313" rx="2.5" ry="2.5" style="stroke:#181818;stroke-width:0.5;" width="693.6592" x="7" y="207.73"/><ellipse cx="287.0649" cy="226.6988" fill="#ADD1B2" rx="11" ry="11" style="stroke:#181818;stroke-width:1;"/><path d="M290.0337,232.3394 Q289.4556,232.6363 288.8149,232.7769 Q288.1743,232.9331 287.4712,232.9331 Q284.9712,232.9331 283.6431,231.2925 Q282.3306,229.6363 282.3306,226.5113 Q282.3306,223.3863 283.6431,221.73 Q284.9712,220.0738 287.4712,220.0738 Q288.1743,220.0738 288.8149,220.23 Q289.4712,220.3863 290.0337,220.6831 L290.0337,223.4019 Q289.4087,222.8238 288.8149,222.5581 Q288.2212,222.2769 287.5962,222.2769 Q286.2524,222.2769 285.5649,223.355 Q284.8774,224.4175 284.8774,226.5113 Q284.8774,228.605 285.5649,229.6831 Q286.2524,230.7456 287.5962,230.7456 Q288.2212,230.7456 288.8149,230.48 Q289.4087,230.1988 290.0337,229.6206 L290.0337,232.3394 Z " fill="#000000"/><a href="https://bo4e.github.io/BO4E-python/v202501.1.0-rc1/api/bo4e.com.html#bo4e.com.zeitreihenwert.Zeitreihenwert" target="_top" title="https://bo4e.github.io/BO4E-python/v202501.1.0-rc1/api/bo4e.com.html#bo4e.com.zeitreihenwert.Zeitreihenwert" xlink:actuate="onRequest" xlink:href="https://bo4e.github.io/BO4E-python/v202501.1.0-rc1/api/bo4e.com.html#bo4e.com.zeitreihenwert.Zeitreihenwert" xlink:show="new" xlink:title="https://bo4e.github.io/BO4E-python/v202501.1.0-rc1/api/bo4e.com.html#bo4e.com.zeitreihenwert.Zeitreihenwert" xlink:type="simple"><text fill="#0000FF" font-family="sans-serif" font-size="14" lengthAdjust="spacing" text-decoration="underline" textLength="103.5098" x="318.3247" y="225.7251">Zeitreihenwert</text></a><text fill="#000000" font-family="sans-serif" font-size="10" lengthAdjust="spacing" textLength="125.0293" x="307.5649" y="238.3091">bo4e.com.zeitreihenwert</text><line style="stroke:#181818;stroke-width:0.5;" x1="8" x2="699.6592" y1="245.6675" y2="245.6675"/><text fill="#000000" font-family="sans-serif" font-size="14" lengthAdjust="spacing" textLength="681.6592" x="13" y="262.6626">_typ : Literal[&lt;ComTyp.ZEITREIHENWERT: 'ZEITREIHENWERT'&gt;] [1] = ComTyp.ZEITREIHENWERT</text><text fill="#000000" font-family="sans-serif" font-size="14" lengthAdjust="spacing" textLength="201.2568" x="13" y="278.9595">wert : Decimal [0..1] = None</text></g><!--link Zeitreihenwert to COM--><g class="link" data-entity-1="Zeitreihenwert" data-entity-2="COM" data-source-line="17" data-uid="lnk10" id="link_Zeitreihenwert_COM"><path codeLine="17" d="M524.66,207.27 C656.85,176.34 814.3331,139.4998 900.4331,119.3598" fill="none" id="Zeitreihenwert-to-COM" style="stroke:#181818;stroke-width:1;"/><polygon fill="none" points="917.96,115.26,899.0665,113.5175,901.7997,125.2021,917.96,115.26" style="stroke:#181818;stroke-width:1;"/></g><!--link Zeitreihenwert to Zeitraum--><g class="link" data-entity-1="Zeitreihenwert" data-entity-2="Zeitraum" data-source-line="18" data-uid="lnk11" id="link_Zeitreihenwert_Zeitraum"><path codeLine="18" d="M699.48,207.24 C779.01,198.07 843.2889,190.6537 894.4889,184.7537" fill="none" id="Zeitreihenwert-to-Zeitraum" style="stroke:#181818;stroke-width:1;"/><polygon fill="#181818" points="906.41,183.38,899.9915,180.0932,894.4889,184.7537,900.9074,188.0406,906.41,183.38" style="stroke:#181818;stroke-width:1;"/><text fill="#000000" font-family="sans-serif" font-size="13" lengthAdjust="spacing" textLength="57.7446" x="743.66" y="192.0669">zeitraum</text><text fill="#000000" font-family="sans-serif" font-size="13" lengthAdjust="spacing" textLength="24.8066" x="874.0369" y="197.0818">0..1</text></g><!--link Zeitreihenwert to Messwertstatus--><g class="link" data-entity-1="Zeitreihenwert" data-entity-2="Messwertstatus" data-source-line="19" data-uid="lnk12" id="link_Zeitreihenwert_Messwertstatus"><path codeLine="19" d="M700.83,270.61 C769.67,275.31 823.9378,279.014 873.5278,282.394" fill="none" id="Zeitreihenwert-to-Messwertstatus" style="stroke:#181818;stroke-width:1;"/><polygon fill="#181818" points="885.5,283.21,879.7859,278.8113,873.5278,282.394,879.2419,286.7927,885.5,283.21" style="stroke:#181818;stroke-width:1;"/><text fill="#000000" font-family="sans-serif" font-size="13" lengthAdjust="spacing" textLength="39.9458" x="752.66" y="269.0669">status</text><text fill="#000000" font-family="sans-serif" font-size="13" lengthAdjust="spacing" textLength="24.8066" x="852.8198" y="295.4352">0..1</text></g><!--link Zeitreihenwert to Messwertstatuszusatz--><g class="link" data-entity-1="Zeitreihenwert" data-entity-2="Messwertstatuszusatz" data-source-line="20" data-uid="lnk13" id="link_Zeitreihenwert_Messwertstatuszusatz"><path codeLine="20" d="M567.52,286.74 C669.86,305.86 775.954,325.6765 857.644,340.9365" fill="none" id="Zeitreihenwert-to-Messwertstatuszusatz" style="stroke:#181818;stroke-width:1;"/><polygon fill="#181818" points="869.44,343.14,864.2765,338.1063,857.644,340.9365,862.8075,345.9702,869.44,343.14" style="stroke:#181818;stroke-width:1;"/><text fill="#000000" font-family="sans-serif" font-size="13" lengthAdjust="spacing" textLength="81.6689" x="731.66" y="315.0669">statuszusatz</text><text fill="#000000" font-family="sans-serif" font-size="13" lengthAdjust="spacing" textLength="24.8066" x="836.7486" y="354.3423">0..1</text></g><!--SRC=[lLHTIyCm57qsl-AoFGZ2qjOlfEX0Pq517Oo1O2sITLSRQ9lIfCgc_dVJTjrihH_8z26GavnxUyyzDmtnNe4IaFA7GC6Kf-WhBc92_9192HtN3PHAf6qO4x6Bz86h89jGBeoJuQxJIsOg4B7nk6rkxvaMjQZPIttBO0alwRw8QA2YiBj4S-GgHHvW_8IfeZSr27NeURVneUHpj2sp_qc63Z3P28Ddid6dPWdOSC4LfYnq3mSY6iyIUkESZqVE-PbpTUsCnZPirWys-nwubWT7qCed6qLw6qxHvn4BmJKfBUXN8aRoIaZC8fG9yt5TZOCAULwXj8BGTSpZW_r1hlMFdChNO7W9UhKReLTHaoRyMH65sIoBoa7H6wWsNmo7lbsDXGRQcRKPWt7stfaSlhScnz2TMlxEti7Ql5b-ixk2MexCfr4gfZ99BsiGwl1ZgrfI51hgSVzM_ZoJJCqR8if3Q3lyaQ2IsYAhlCYVQ_Ftq-kzz9TFB1_-3mnDsO9E_kmxA-9oDcsevk_xmABYXcqsB1h_c-X5lweS2vKau5E42AC9ffB8G3n1C_aznt0gtm00]--></g></svg>