<svg xmlns="http://www.w3.org/2000/svg" xmlns:xlink="http://www.w3.org/1999/xlink" contentStyleType="text/css" data-diagram-type="CLASS" height="436px" preserveAspectRatio="none" style="width:735px;height:436px;background:#FFFFFF;" version="1.1" viewBox="0 0 735 436" width="735px" zoomAndPan="magnify"><?plantuml 1.2026.6?><defs/><g><!--cluster bo4e--><g class="cluster" data-qualified-name="bo4e" data-source-line="12" id="ent0004"><path d="M480.63,6 L520.506,6 A3.75,3.75 0 0 1 523.006,8.5 L530.006,28.2969 L717.81,28.2969 A2.5,2.5 0 0 1 720.31,30.7969 L720.31,418.5 A2.5,2.5 0 0 1 717.81,421 L480.63,421 A2.5,2.5 0 0 1 478.13,418.5 L478.13,8.5 A2.5,2.5 0 0 1 480.63,6" fill="none" style="stroke:#000000;stroke-width:1.5;"/><line style="stroke:#000000;stroke-width:1.5;" x1="478.13" x2="530.006" y1="28.2969" y2="28.2969"/><text fill="#000000" font-family="sans-serif" font-size="14" font-weight="700" lengthAdjust="spacing" textLength="38.876" x="482.13" y="20.9951">bo4e</text></g><!--cluster bo--><g class="cluster" data-qualified-name="bo4e.bo" data-source-line="11" id="ent0002"><path d="M504.63,49 L569.464,49 A3.75,3.75 0 0 1 571.964,51.5 L578.964,71.2969 L693.81,71.2969 A2.5,2.5 0 0 1 696.31,73.7969 L696.31,135.5 A2.5,2.5 0 0 1 693.81,138 L504.63,138 A2.5,2.5 0 0 1 502.13,135.5 L502.13,51.5 A2.5,2.5 0 0 1 504.63,49" fill="#B6D7A8" style="stroke:#000000;stroke-width:1.5;"/><line style="stroke:#000000;stroke-width:1.5;" x1="502.13" x2="578.964" y1="71.2969" y2="71.2969"/><text fill="#000000" font-family="sans-serif" font-size="14" font-weight="700" lengthAdjust="spacing" textLength="63.834" x="506.13" y="63.9951">bo4e.bo</text></g><!--cluster enum--><g class="cluster" data-qualified-name="bo4e.enum" data-source-line="27" id="ent0005"><path d="M518.14,162 L607.3509,162 A3.75,3.75 0 0 1 609.8509,164.5 L616.8509,184.2969 L680.3,184.2969 A2.5,2.5 0 0 1 682.8,186.7969 L682.8,394.5 A2.5,2.5 0 0 1 680.3,397 L518.14,397 A2.5,2.5 0 0 1 515.64,394.5 L515.64,164.5 A2.5,2.5 0 0 1 518.14,162" fill="#D1C358" style="stroke:#000000;stroke-width:1.5;"/><line style="stroke:#000000;stroke-width:1.5;" x1="515.64" x2="616.8509" y1="184.2969" y2="184.2969"/><text fill="#000000" font-family="sans-serif" font-size="14" font-weight="700" lengthAdjust="spacing" textLength="88.2109" x="519.64" y="176.9951">bo4e.enum</text></g><!--class Geschaeftspartner--><g class="entity" data-qualified-name="bo4e.bo.Geschaeftspartner" data-source-line="12" id="ent0003"><rect fill="#F1F1F1" height="37.9375" rx="2.5" ry="2.5" style="stroke:#181818;stroke-width:0.5;" width="162.1836" x="518.13" y="84.03"/><ellipse cx="533.13" cy="102.9987" fill="#ADD1B2" rx="11" ry="11" style="stroke:#181818;stroke-width:1;"/><path d="M536.0988,108.6394 Q535.5206,108.9362 534.88,109.0769 Q534.2394,109.2331 533.5363,109.2331 Q531.0363,109.2331 529.7081,107.5925 Q528.3956,105.9362 528.3956,102.8112 Q528.3956,99.6862 529.7081,98.03 Q531.0363,96.3737 533.5363,96.3737 Q534.2394,96.3737 534.88,96.53 Q535.5363,96.6862 536.0988,96.9831 L536.0988,99.7019 Q535.4738,99.1237 534.88,98.8581 Q534.2863,98.5769 533.6613,98.5769 Q532.3175,98.5769 531.63,99.655 Q530.9425,100.7175 530.9425,102.8112 Q530.9425,104.905 531.63,105.9831 Q532.3175,107.0456 533.6613,107.0456 Q534.2863,107.0456 534.88,106.78 Q535.4738,106.4987 536.0988,105.9206 L536.0988,108.6394 Z " fill="#000000"/><a href="https://bo4e.github.io/BO4E-python/v202607.0.0/api/bo4e.bo.html#module-bo4e.bo.geschaeftspartner" target="_top" title="https://bo4e.github.io/BO4E-python/v202607.0.0/api/bo4e.bo.html#module-bo4e.bo.geschaeftspartner" xlink:actuate="onRequest" xlink:href="https://bo4e.github.io/BO4E-python/v202607.0.0/api/bo4e.bo.html#module-bo4e.bo.geschaeftspartner" xlink:show="new" xlink:title="https://bo4e.github.io/BO4E-python/v202607.0.0/api/bo4e.bo.html#module-bo4e.bo.geschaeftspartner" xlink:type="simple"><text fill="#0000FF" font-family="sans-serif" font-size="14" lengthAdjust="spacing" text-decoration="underline" textLength="130.1836" x="547.13" y="102.0251">Geschaeftspartner</text></a><text fill="#000000" font-family="sans-serif" font-size="10" lengthAdjust="spacing" textLength="108.6328" x="557.9054" y="114.6091">bo.Geschaeftspartner</text></g><!--class Marktrolle--><g class="entity" data-qualified-name="bo4e.enum.Marktrolle" data-source-line="28" id="ent0006"><rect fill="#F1F1F1" height="37.9375" rx="2.5" ry="2.5" style="stroke:#181818;stroke-width:0.5;" width="114.2656" x="542.09" y="197.03"/><ellipse cx="557.09" cy="215.9988" fill="#ADD1B2" rx="11" ry="11" style="stroke:#181818;stroke-width:1;"/><path d="M560.0588,221.6394 Q559.4806,221.9363 558.84,222.0769 Q558.1994,222.2331 557.4963,222.2331 Q554.9963,222.2331 553.6681,220.5925 Q552.3556,218.9363 552.3556,215.8113 Q552.3556,212.6863 553.6681,211.03 Q554.9963,209.3738 557.4963,209.3738 Q558.1994,209.3738 558.84,209.53 Q559.4963,209.6863 560.0588,209.9831 L560.0588,212.7019 Q559.4338,212.1238 558.84,211.8581 Q558.2463,211.5769 557.6213,211.5769 Q556.2775,211.5769 555.59,212.655 Q554.9025,213.7175 554.9025,215.8113 Q554.9025,217.905 555.59,218.9831 Q556.2775,220.0456 557.6213,220.0456 Q558.2463,220.0456 558.84,219.78 Q559.4338,219.4988 560.0588,218.9206 L560.0588,221.6394 Z " fill="#000000"/><a href="https://bo4e.github.io/BO4E-python/v202607.0.0/api/bo4e.enum.html#module-bo4e.enum.marktrolle" target="_top" title="https://bo4e.github.io/BO4E-python/v202607.0.0/api/bo4e.enum.html#module-bo4e.enum.marktrolle" xlink:actuate="onRequest" xlink:href="https://bo4e.github.io/BO4E-python/v202607.0.0/api/bo4e.enum.html#module-bo4e.enum.marktrolle" xlink:show="new" xlink:title="https://bo4e.github.io/BO4E-python/v202607.0.0/api/bo4e.enum.html#module-bo4e.enum.marktrolle" xlink:type="simple"><text fill="#0000FF" font-family="sans-serif" font-size="14" lengthAdjust="spacing" text-decoration="underline" textLength="70.7246" x="576.8605" y="215.0251">Marktrolle</text></a><text fill="#000000" font-family="sans-serif" font-size="10" lengthAdjust="spacing" textLength="82.2656" x="571.09" y="227.6091">enum.Marktrolle</text></g><!--class Rollencodetyp--><g class="entity" data-qualified-name="bo4e.enum.Rollencodetyp" data-source-line="30" id="ent0007"><rect fill="#F1F1F1" height="37.9375" rx="2.5" ry="2.5" style="stroke:#181818;stroke-width:0.5;" width="135.1641" x="531.64" y="270.03"/><ellipse cx="546.64" cy="288.9988" fill="#ADD1B2" rx="11" ry="11" style="stroke:#181818;stroke-width:1;"/><path d="M549.6088,294.6394 Q549.0306,294.9363 548.39,295.0769 Q547.7494,295.2331 547.0463,295.2331 Q544.5463,295.2331 543.2181,293.5925 Q541.9056,291.9363 541.9056,288.8113 Q541.9056,285.6863 543.2181,284.03 Q544.5463,282.3738 547.0463,282.3738 Q547.7494,282.3738 548.39,282.53 Q549.0463,282.6863 549.6088,282.9831 L549.6088,285.7019 Q548.9838,285.1238 548.39,284.8581 Q547.7963,284.5769 547.1713,284.5769 Q545.8275,284.5769 545.14,285.655 Q544.4525,286.7175 544.4525,288.8113 Q544.4525,290.905 545.14,291.9831 Q545.8275,293.0456 547.1713,293.0456 Q547.7963,293.0456 548.39,292.78 Q548.9838,292.4988 549.6088,291.9206 L549.6088,294.6394 Z " fill="#000000"/><a href="https://bo4e.github.io/BO4E-python/v202607.0.0/api/bo4e.enum.html#module-bo4e.enum.rollencodetyp" target="_top" title="https://bo4e.github.io/BO4E-python/v202607.0.0/api/bo4e.enum.html#module-bo4e.enum.rollencodetyp" xlink:actuate="onRequest" xlink:href="https://bo4e.github.io/BO4E-python/v202607.0.0/api/bo4e.enum.html#module-bo4e.enum.rollencodetyp" xlink:show="new" xlink:title="https://bo4e.github.io/BO4E-python/v202607.0.0/api/bo4e.enum.html#module-bo4e.enum.rollencodetyp" xlink:type="simple"><text fill="#0000FF" font-family="sans-serif" font-size="14" lengthAdjust="spacing" text-decoration="underline" textLength="99.9824" x="562.2308" y="288.0251">Rollencodetyp</text></a><text fill="#000000" font-family="sans-serif" font-size="10" lengthAdjust="spacing" textLength="103.1641" x="560.64" y="300.6091">enum.Rollencodetyp</text></g><!--class Sparte--><g class="entity" data-qualified-name="bo4e.enum.Sparte" data-source-line="32" id="ent0008"><rect fill="#F1F1F1" height="37.9375" rx="2.5" ry="2.5" style="stroke:#181818;stroke-width:0.5;" width="96.7559" x="550.84" y="343.03"/><ellipse cx="565.84" cy="361.9988" fill="#ADD1B2" rx="11" ry="11" style="stroke:#181818;stroke-width:1;"/><path d="M568.8088,367.6394 Q568.2306,367.9363 567.59,368.0769 Q566.9494,368.2331 566.2463,368.2331 Q563.7463,368.2331 562.4181,366.5925 Q561.1056,364.9363 561.1056,361.8113 Q561.1056,358.6863 562.4181,357.03 Q563.7463,355.3738 566.2463,355.3738 Q566.9494,355.3738 567.59,355.53 Q568.2463,355.6863 568.8088,355.9831 L568.8088,358.7019 Q568.1838,358.1238 567.59,357.8581 Q566.9963,357.5769 566.3713,357.5769 Q565.0275,357.5769 564.34,358.655 Q563.6525,359.7175 563.6525,361.8113 Q563.6525,363.905 564.34,364.9831 Q565.0275,366.0456 566.3713,366.0456 Q566.9963,366.0456 567.59,365.78 Q568.1838,365.4988 568.8088,364.9206 L568.8088,367.6394 Z " fill="#000000"/><a href="https://bo4e.github.io/BO4E-python/v202607.0.0/api/bo4e.enum.html#module-bo4e.enum.sparte" target="_top" title="https://bo4e.github.io/BO4E-python/v202607.0.0/api/bo4e.enum.html#module-bo4e.enum.sparte" xlink:actuate="onRequest" xlink:href="https://bo4e.github.io/BO4E-python/v202607.0.0/api/bo4e.enum.html#module-bo4e.enum.sparte" xlink:show="new" xlink:title="https://bo4e.github.io/BO4E-python/v202607.0.0/api/bo4e.enum.html#module-bo4e.enum.sparte" xlink:type="simple"><text fill="#0000FF" font-family="sans-serif" font-size="14" lengthAdjust="spacing" text-decoration="underline" textLength="46.2109" x="589.1125" y="361.0251">Sparte</text></a><text fill="#000000" font-family="sans-serif" font-size="10" lengthAdjust="spacing" textLength="64.7559" x="579.84" y="373.6091">enum.Sparte</text></g><!--class Marktteilnehmer--><g class="entity" data-qualified-name="Marktteilnehmer" data-source-line="3" id="ent0001"><rect fill="#F1F1F1" height="127.4219" rx="2.5" ry="2.5" style="stroke:#181818;stroke-width:0.5;" width="304.127" x="7" y="193.29"/><ellipse cx="96.6841" cy="212.2588" fill="#ADD1B2" rx="11" ry="11" style="stroke:#181818;stroke-width:1;"/><path d="M99.6528,217.8994 Q99.0747,218.1963 98.4341,218.3369 Q97.7935,218.4931 97.0903,218.4931 Q94.5903,218.4931 93.2622,216.8525 Q91.9497,215.1963 91.9497,212.0713 Q91.9497,208.9463 93.2622,207.29 Q94.5903,205.6338 97.0903,205.6338 Q97.7935,205.6338 98.4341,205.79 Q99.0903,205.9463 99.6528,206.2431 L99.6528,208.9619 Q99.0278,208.3838 98.4341,208.1181 Q97.8403,207.8369 97.2153,207.8369 Q95.8716,207.8369 95.1841,208.915 Q94.4966,209.9775 94.4966,212.0713 Q94.4966,214.165 95.1841,215.2431 Q95.8716,216.3056 97.2153,216.3056 Q97.8403,216.3056 98.4341,216.04 Q99.0278,215.7588 99.6528,215.1806 L99.6528,217.8994 Z " fill="#000000"/><a href="https://bo4e.github.io/BO4E-python/v202607.0.0/api/bo4e.bo.html#module-bo4e.bo.marktteilnehmer" target="_top" title="https://bo4e.github.io/BO4E-python/v202607.0.0/api/bo4e.bo.html#module-bo4e.bo.marktteilnehmer" xlink:actuate="onRequest" xlink:href="https://bo4e.github.io/BO4E-python/v202607.0.0/api/bo4e.bo.html#module-bo4e.bo.marktteilnehmer" xlink:show="new" xlink:title="https://bo4e.github.io/BO4E-python/v202607.0.0/api/bo4e.bo.html#module-bo4e.bo.marktteilnehmer" xlink:type="simple"><text fill="#0000FF" font-family="sans-serif" font-size="14" lengthAdjust="spacing" text-decoration="underline" textLength="116.2588" x="117.1841" y="211.2851">Marktteilnehmer</text></a><text fill="#000000" font-family="sans-serif" font-size="10" lengthAdjust="spacing" textLength="98.6865" x="125.9702" y="223.8691">bo.Marktteilnehmer</text><line style="stroke:#181818;stroke-width:0.5;" x1="8" x2="310.127" y1="231.2275" y2="231.2275"/><text fill="#000000" font-family="sans-serif" font-size="14" lengthAdjust="spacing" textLength="94.0215" x="13" y="248.2226">_id : str [0..1]</text><text fill="#000000" font-family="sans-serif" font-size="14" lengthAdjust="spacing" textLength="292.127" x="13" y="264.5195">_typ : Literal["MARKTTEILNEHMER"] [0..1]</text><text fill="#000000" font-family="sans-serif" font-size="14" lengthAdjust="spacing" textLength="132.5215" x="13" y="280.8164">_version : str [0..1]</text><text fill="#000000" font-family="sans-serif" font-size="14" lengthAdjust="spacing" textLength="197.75" x="13" y="297.1132">makoadresse : list[str] [0..*]</text><text fill="#000000" font-family="sans-serif" font-size="14" lengthAdjust="spacing" textLength="206.9854" x="13" y="313.4101">rollencodenummer : str [0..1]</text></g><!--link Marktteilnehmer to Geschaeftspartner--><g class="link" data-entity-1="ent0001" data-entity-2="ent0003" data-link-type="composition" data-source-line="36" id="lnk9"><path codeLine="36" d="M311.47,203.79 C391.61,175.62 473.8291,146.7196 531.7191,126.3696" fill="none" id="Marktteilnehmer-to-Geschaeftspartner" style="stroke:#181818;stroke-width:1;"/><polygon fill="#181818" points="543.04,122.39,536.053,120.6062,531.7191,126.3696,538.7061,128.1534,543.04,122.39" style="stroke:#181818;stroke-width:1;stroke-linejoin:miter;stroke-miterlimit:10;"/><text fill="#000000" font-family="sans-serif" font-size="13" lengthAdjust="spacing" textLength="119.063" x="342.13" y="148.8769">geschaeftspartner</text><text fill="#000000" font-family="sans-serif" font-size="13" lengthAdjust="spacing" textLength="24.8066" x="499.9773" y="142.0387">0..1</text></g><!--link Marktteilnehmer to Marktrolle--><g class="link" data-entity-1="ent0001" data-entity-2="ent0006" data-link-type="composition" data-source-line="37" id="lnk10"><path codeLine="37" d="M311.47,242.83 C390.99,235.39 471.7623,227.8387 529.7523,222.4087" fill="none" id="Marktteilnehmer-to-Marktrolle" style="stroke:#181818;stroke-width:1;"/><polygon fill="#181818" points="541.7,221.29,535.3532,217.8668,529.7523,222.4087,536.099,225.832,541.7,221.29" style="stroke:#181818;stroke-width:1;stroke-linejoin:miter;stroke-miterlimit:10;"/><text fill="#000000" font-family="sans-serif" font-size="13" lengthAdjust="spacing" textLength="67.1201" x="368.13" y="225.3269">marktrolle</text><text fill="#000000" font-family="sans-serif" font-size="13" lengthAdjust="spacing" textLength="24.8066" x="509.2761" y="234.9239">0..1</text></g><!--link Marktteilnehmer to Rollencodetyp--><g class="link" data-entity-1="ent0001" data-entity-2="ent0007" data-link-type="composition" data-source-line="38" id="lnk11"><path codeLine="38" d="M311.61,277.29 C321.59,278.3 331.49,279.22 341.13,280 C405.56,285.21 467.3319,287.1975 519.2719,288.1175" fill="none" id="Marktteilnehmer-to-Rollencodetyp" style="stroke:#181818;stroke-width:1;"/><polygon fill="#181818" points="531.27,288.33,525.3418,284.2244,519.2719,288.1175,525.2001,292.2231,531.27,288.33" style="stroke:#181818;stroke-width:1;stroke-linejoin:miter;stroke-miterlimit:10;"/><text fill="#000000" font-family="sans-serif" font-size="13" lengthAdjust="spacing" textLength="89.1528" x="357.13" y="276.0669">rollencodetyp</text><text fill="#000000" font-family="sans-serif" font-size="13" lengthAdjust="spacing" textLength="24.8066" x="499.0665" y="301.1082">0..1</text></g><!--link Marktteilnehmer to Sparte--><g class="link" data-entity-1="ent0001" data-entity-2="ent0008" data-link-type="composition" data-source-line="39" id="lnk12"><path codeLine="39" d="M311.39,304.22 C321.42,306.96 331.4,309.58 341.13,312 C413.5,329.98 486.8187,343.4347 538.6787,352.2247" fill="none" id="Marktteilnehmer-to-Sparte" style="stroke:#181818;stroke-width:1;"/><polygon fill="#181818" points="550.51,354.23,545.2628,349.2836,538.6787,352.2247,543.9259,357.1711,550.51,354.23" style="stroke:#181818;stroke-width:1;stroke-linejoin:miter;stroke-miterlimit:10;"/><text fill="#000000" font-family="sans-serif" font-size="13" lengthAdjust="spacing" textLength="41.4312" x="381.13" y="308.0669">sparte</text><text fill="#000000" font-family="sans-serif" font-size="13" lengthAdjust="spacing" textLength="24.8066" x="518.0297" y="366.2684">0..1</text></g><?plantuml-src lLLTQzim57tthn3EMo6sqtNjC6EGRbvRrdGZoLiMXcpVMgBw29ASqfR-zyfoHchBX0tMvINIlUUAStNEbHdS6cGaKhGY1fLKGM6e545GCAmr2bShOin6ft6SonE8Acf8dKTKnkVVJxBnvi4GAUBjSN9ycfn5IPJ4U4DRQ2uZOZWRSLdM3CQ_OnohEsE0CW64WqApxdwz_Ya-Qle8wIJvPE6zT8YmxfUWfm3PtozQeXHfez0gYQB9kWsQXusDNbC32hDLE9lElosNsTNrJNOvo-RXkWFUWjAsUVyOZkyaBXLe3JR9g3OhYsYBZrg8aeo1A6G9ekODgyuXpq4WC0UzmGMWS7SNhfdT6etEJx-SJJ_icdchswz05mHRpIqJPOIbUT6Fz1Nm08ws5_qR5IwonUVBQVPrkVWndIzl_bm7p8skGD72UjLBLWn3dLERlnhWGB0eWMa5bLKFr9183OoAacvfMODLSoeKbE1Z12v8ewQVaQh2WchSZ90UXjJSfXyjXNgOvrQguS9xoBMzmBwldZrZDGRSMwlPeL4vATwz_sVcQixqxUMYRhpTBBHZwfOTIpdOFhUVwBRgoNRqrYJtizeOS_vwvrFjf1tRJkI_47P31cZX_doARTnnQvUEb7rp-Y_bU7o4miOvuS00fyXx7GuTy4gp5ErbFrJIlRWKTNGuLBZhobhVBOA0K3kO77XkNuf04tcF-byAT4k1bVe5?></g></svg>