<svg xmlns="http://www.w3.org/2000/svg" xmlns:xlink="http://www.w3.org/1999/xlink" contentStyleType="text/css" data-diagram-type="CLASS" height="509px" preserveAspectRatio="none" style="width:620px;height:509px;background:#FFFFFF;" version="1.1" viewBox="0 0 620 509" width="620px" zoomAndPan="magnify"><?plantuml 1.2026.6?><defs/><g><!--cluster bo4e--><g class="cluster" data-qualified-name="bo4e" data-source-line="15" id="ent0004"><path d="M391.08,6 L430.956,6 A3.75,3.75 0 0 1 433.456,8.5 L440.456,28.2969 L603.16,28.2969 A2.5,2.5 0 0 1 605.66,30.7969 L605.66,491.5 A2.5,2.5 0 0 1 603.16,494 L391.08,494 A2.5,2.5 0 0 1 388.58,491.5 L388.58,8.5 A2.5,2.5 0 0 1 391.08,6" fill="none" style="stroke:#000000;stroke-width:1.5;"/><line style="stroke:#000000;stroke-width:1.5;" x1="388.58" x2="440.456" y1="28.2969" y2="28.2969"/><text fill="#000000" font-family="sans-serif" font-size="14" font-weight="700" lengthAdjust="spacing" textLength="38.876" x="392.58" y="20.9951">bo4e</text></g><!--cluster com--><g class="cluster" data-qualified-name="bo4e.com" data-source-line="14" id="ent0002"><path d="M415.08,49 L492.7792,49 A3.75,3.75 0 0 1 495.2792,51.5 L502.2792,71.2969 L579.16,71.2969 A2.5,2.5 0 0 1 581.66,73.7969 L581.66,281.5 A2.5,2.5 0 0 1 579.16,284 L415.08,284 A2.5,2.5 0 0 1 412.58,281.5 L412.58,51.5 A2.5,2.5 0 0 1 415.08,49" fill="#E0A86C" style="stroke:#000000;stroke-width:1.5;"/><line style="stroke:#000000;stroke-width:1.5;" x1="412.58" x2="502.2792" y1="71.2969" y2="71.2969"/><text fill="#000000" font-family="sans-serif" font-size="14" font-weight="700" lengthAdjust="spacing" textLength="76.6992" x="416.58" y="63.9951">bo4e.com</text></g><!--cluster enum--><g class="cluster" data-qualified-name="bo4e.enum" data-source-line="44" id="ent0007"><path d="M433.77,308 L522.9809,308 A3.75,3.75 0 0 1 525.4809,310.5 L532.4809,330.2969 L560.46,330.2969 A2.5,2.5 0 0 1 562.96,332.7969 L562.96,467.5 A2.5,2.5 0 0 1 560.46,470 L433.77,470 A2.5,2.5 0 0 1 431.27,467.5 L431.27,310.5 A2.5,2.5 0 0 1 433.77,308" fill="#D1C358" style="stroke:#000000;stroke-width:1.5;"/><line style="stroke:#000000;stroke-width:1.5;" x1="431.27" x2="532.4809" y1="330.2969" y2="330.2969"/><text fill="#000000" font-family="sans-serif" font-size="14" font-weight="700" lengthAdjust="spacing" textLength="88.2109" x="435.27" y="322.9951">bo4e.enum</text></g><!--class Adresse--><g class="entity" data-qualified-name="bo4e.com.Adresse" data-source-line="15" id="ent0003"><rect fill="#F1F1F1" height="37.9375" rx="2.5" ry="2.5" style="stroke:#181818;stroke-width:0.5;" width="96.5605" x="448.84" y="84.03"/><ellipse cx="463.84" cy="102.9987" fill="#ADD1B2" rx="11" ry="11" style="stroke:#181818;stroke-width:1;"/><path d="M466.8088,108.6394 Q466.2306,108.9362 465.59,109.0769 Q464.9494,109.2331 464.2463,109.2331 Q461.7463,109.2331 460.4181,107.5925 Q459.1056,105.9362 459.1056,102.8112 Q459.1056,99.6862 460.4181,98.03 Q461.7463,96.3737 464.2463,96.3737 Q464.9494,96.3737 465.59,96.53 Q466.2463,96.6862 466.8088,96.9831 L466.8088,99.7019 Q466.1838,99.1237 465.59,98.8581 Q464.9963,98.5769 464.3713,98.5769 Q463.0275,98.5769 462.34,99.655 Q461.6525,100.7175 461.6525,102.8112 Q461.6525,104.905 462.34,105.9831 Q463.0275,107.0456 464.3713,107.0456 Q464.9963,107.0456 465.59,106.78 Q466.1838,106.4987 466.8088,105.9206 L466.8088,108.6394 Z " fill="#000000"/><a href="https://bo4e.github.io/BO4E-python/v202607.0.0/api/bo4e.com.html#module-bo4e.com.adresse" target="_top" title="https://bo4e.github.io/BO4E-python/v202607.0.0/api/bo4e.com.html#module-bo4e.com.adresse" xlink:actuate="onRequest" xlink:href="https://bo4e.github.io/BO4E-python/v202607.0.0/api/bo4e.com.html#module-bo4e.com.adresse" xlink:show="new" xlink:title="https://bo4e.github.io/BO4E-python/v202607.0.0/api/bo4e.com.html#module-bo4e.com.adresse" xlink:type="simple"><text fill="#0000FF" font-family="sans-serif" font-size="14" lengthAdjust="spacing" text-decoration="underline" textLength="56.0342" x="482.1032" y="102.0251">Adresse</text></a><text fill="#000000" font-family="sans-serif" font-size="10" lengthAdjust="spacing" textLength="64.5605" x="477.84" y="114.6091">com.Adresse</text></g><!--class Kontaktweg--><g class="entity" data-qualified-name="bo4e.com.Kontaktweg" data-source-line="28" id="ent0005"><rect fill="#F1F1F1" height="37.9375" rx="2.5" ry="2.5" style="stroke:#181818;stroke-width:0.5;" width="115.9893" x="439.12" y="157.03"/><ellipse cx="454.12" cy="175.9987" fill="#ADD1B2" rx="11" ry="11" style="stroke:#181818;stroke-width:1;"/><path d="M457.0888,181.6394 Q456.5106,181.9362 455.87,182.0769 Q455.2294,182.2331 454.5263,182.2331 Q452.0263,182.2331 450.6981,180.5925 Q449.3856,178.9362 449.3856,175.8112 Q449.3856,172.6862 450.6981,171.03 Q452.0263,169.3737 454.5263,169.3737 Q455.2294,169.3737 455.87,169.53 Q456.5263,169.6862 457.0888,169.9831 L457.0888,172.7019 Q456.4638,172.1237 455.87,171.8581 Q455.2763,171.5769 454.6513,171.5769 Q453.3075,171.5769 452.62,172.655 Q451.9325,173.7175 451.9325,175.8112 Q451.9325,177.905 452.62,178.9831 Q453.3075,180.0456 454.6513,180.0456 Q455.2763,180.0456 455.87,179.78 Q456.4638,179.4987 457.0888,178.9206 L457.0888,181.6394 Z " fill="#000000"/><a href="https://bo4e.github.io/BO4E-python/v202607.0.0/api/bo4e.com.html#module-bo4e.com.kontaktweg" target="_top" title="https://bo4e.github.io/BO4E-python/v202607.0.0/api/bo4e.com.html#module-bo4e.com.kontaktweg" xlink:actuate="onRequest" xlink:href="https://bo4e.github.io/BO4E-python/v202607.0.0/api/bo4e.com.html#module-bo4e.com.kontaktweg" xlink:show="new" xlink:title="https://bo4e.github.io/BO4E-python/v202607.0.0/api/bo4e.com.html#module-bo4e.com.kontaktweg" xlink:type="simple"><text fill="#0000FF" font-family="sans-serif" font-size="14" lengthAdjust="spacing" text-decoration="underline" textLength="83.2344" x="468.4974" y="175.0251">Kontaktweg</text></a><text fill="#000000" font-family="sans-serif" font-size="10" lengthAdjust="spacing" textLength="83.9893" x="468.12" y="187.6091">com.Kontaktweg</text></g><!--class Zustaendigkeit--><g class="entity" data-qualified-name="bo4e.com.Zustaendigkeit" data-source-line="36" id="ent0006"><rect fill="#F1F1F1" height="37.9375" rx="2.5" ry="2.5" style="stroke:#181818;stroke-width:0.5;" width="137.0752" x="428.58" y="230.03"/><ellipse cx="443.58" cy="248.9987" fill="#ADD1B2" rx="11" ry="11" style="stroke:#181818;stroke-width:1;"/><path d="M446.5488,254.6394 Q445.9706,254.9362 445.33,255.0769 Q444.6894,255.2331 443.9863,255.2331 Q441.4863,255.2331 440.1581,253.5925 Q438.8456,251.9362 438.8456,248.8112 Q438.8456,245.6862 440.1581,244.03 Q441.4863,242.3737 443.9863,242.3737 Q444.6894,242.3737 445.33,242.53 Q445.9863,242.6862 446.5488,242.9831 L446.5488,245.7019 Q445.9238,245.1237 445.33,244.8581 Q444.7363,244.5769 444.1113,244.5769 Q442.7675,244.5769 442.08,245.655 Q441.3925,246.7175 441.3925,248.8112 Q441.3925,250.905 442.08,251.9831 Q442.7675,253.0456 444.1113,253.0456 Q444.7363,253.0456 445.33,252.78 Q445.9238,252.4987 446.5488,251.9206 L446.5488,254.6394 Z " fill="#000000"/><a href="https://bo4e.github.io/BO4E-python/v202607.0.0/api/bo4e.com.html#module-bo4e.com.zustaendigkeit" target="_top" title="https://bo4e.github.io/BO4E-python/v202607.0.0/api/bo4e.com.html#module-bo4e.com.zustaendigkeit" xlink:actuate="onRequest" xlink:href="https://bo4e.github.io/BO4E-python/v202607.0.0/api/bo4e.com.html#module-bo4e.com.zustaendigkeit" xlink:show="new" xlink:title="https://bo4e.github.io/BO4E-python/v202607.0.0/api/bo4e.com.html#module-bo4e.com.zustaendigkeit" xlink:type="simple"><text fill="#0000FF" font-family="sans-serif" font-size="14" lengthAdjust="spacing" text-decoration="underline" textLength="105.0752" x="457.58" y="248.0251">Zustaendigkeit</text></a><text fill="#000000" font-family="sans-serif" font-size="10" lengthAdjust="spacing" textLength="99.5898" x="460.3227" y="260.6091">com.Zustaendigkeit</text></g><!--class Anrede--><g class="entity" data-qualified-name="bo4e.enum.Anrede" data-source-line="45" id="ent0008"><rect fill="#F1F1F1" height="37.9375" rx="2.5" ry="2.5" style="stroke:#181818;stroke-width:0.5;" width="99.6904" x="447.27" y="343.03"/><ellipse cx="462.27" cy="361.9988" fill="#ADD1B2" rx="11" ry="11" style="stroke:#181818;stroke-width:1;"/><path d="M465.2388,367.6394 Q464.6606,367.9363 464.02,368.0769 Q463.3794,368.2331 462.6763,368.2331 Q460.1763,368.2331 458.8481,366.5925 Q457.5356,364.9363 457.5356,361.8113 Q457.5356,358.6863 458.8481,357.03 Q460.1763,355.3738 462.6763,355.3738 Q463.3794,355.3738 464.02,355.53 Q464.6763,355.6863 465.2388,355.9831 L465.2388,358.7019 Q464.6138,358.1238 464.02,357.8581 Q463.4263,357.5769 462.8013,357.5769 Q461.4575,357.5769 460.77,358.655 Q460.0825,359.7175 460.0825,361.8113 Q460.0825,363.905 460.77,364.9831 Q461.4575,366.0456 462.8013,366.0456 Q463.4263,366.0456 464.02,365.78 Q464.6138,365.4988 465.2388,364.9206 L465.2388,367.6394 Z " fill="#000000"/><a href="https://bo4e.github.io/BO4E-python/v202607.0.0/api/bo4e.enum.html#module-bo4e.enum.anrede" target="_top" title="https://bo4e.github.io/BO4E-python/v202607.0.0/api/bo4e.enum.html#module-bo4e.enum.anrede" xlink:actuate="onRequest" xlink:href="https://bo4e.github.io/BO4E-python/v202607.0.0/api/bo4e.enum.html#module-bo4e.enum.anrede" xlink:show="new" xlink:title="https://bo4e.github.io/BO4E-python/v202607.0.0/api/bo4e.enum.html#module-bo4e.enum.anrede" xlink:type="simple"><text fill="#0000FF" font-family="sans-serif" font-size="14" lengthAdjust="spacing" text-decoration="underline" textLength="50.3193" x="484.9555" y="361.0251">Anrede</text></a><text fill="#000000" font-family="sans-serif" font-size="10" lengthAdjust="spacing" textLength="67.6904" x="476.27" y="373.6091">enum.Anrede</text></g><!--class Titel--><g class="entity" data-qualified-name="bo4e.enum.Titel" data-source-line="47" id="ent0009"><rect fill="#F1F1F1" height="37.9375" rx="2.5" ry="2.5" style="stroke:#181818;stroke-width:0.5;" width="85.4863" x="454.38" y="416.03"/><ellipse cx="469.38" cy="434.9988" fill="#ADD1B2" rx="11" ry="11" style="stroke:#181818;stroke-width:1;"/><path d="M472.3488,440.6394 Q471.7706,440.9363 471.13,441.0769 Q470.4894,441.2331 469.7863,441.2331 Q467.2863,441.2331 465.9581,439.5925 Q464.6456,437.9363 464.6456,434.8113 Q464.6456,431.6863 465.9581,430.03 Q467.2863,428.3738 469.7863,428.3738 Q470.4894,428.3738 471.13,428.53 Q471.7863,428.6863 472.3488,428.9831 L472.3488,431.7019 Q471.7238,431.1238 471.13,430.8581 Q470.5363,430.5769 469.9113,430.5769 Q468.5675,430.5769 467.88,431.655 Q467.1925,432.7175 467.1925,434.8113 Q467.1925,436.905 467.88,437.9831 Q468.5675,439.0456 469.9113,439.0456 Q470.5363,439.0456 471.13,438.78 Q471.7238,438.4988 472.3488,437.9206 L472.3488,440.6394 Z " fill="#000000"/><a href="https://bo4e.github.io/BO4E-python/v202607.0.0/api/bo4e.enum.html#module-bo4e.enum.titel" target="_top" title="https://bo4e.github.io/BO4E-python/v202607.0.0/api/bo4e.enum.html#module-bo4e.enum.titel" xlink:actuate="onRequest" xlink:href="https://bo4e.github.io/BO4E-python/v202607.0.0/api/bo4e.enum.html#module-bo4e.enum.titel" xlink:show="new" xlink:title="https://bo4e.github.io/BO4E-python/v202607.0.0/api/bo4e.enum.html#module-bo4e.enum.titel" xlink:type="simple"><text fill="#0000FF" font-family="sans-serif" font-size="14" lengthAdjust="spacing" text-decoration="underline" textLength="30.4336" x="494.9064" y="434.0251">Titel</text></a><text fill="#000000" font-family="sans-serif" font-size="10" lengthAdjust="spacing" textLength="53.4863" x="483.38" y="446.6091">enum.Titel</text></g><!--class Person--><g class="entity" data-qualified-name="Person" data-source-line="3" id="ent0001"><rect fill="#F1F1F1" height="176.3125" rx="2.5" ry="2.5" style="stroke:#181818;stroke-width:0.5;" width="222.5811" x="7" y="160.84"/><ellipse cx="89.2383" cy="179.8087" fill="#ADD1B2" rx="11" ry="11" style="stroke:#181818;stroke-width:1;"/><path d="M92.207,185.4494 Q91.6289,185.7462 90.9883,185.8869 Q90.3477,186.0431 89.6445,186.0431 Q87.1445,186.0431 85.8164,184.4025 Q84.5039,182.7462 84.5039,179.6212 Q84.5039,176.4962 85.8164,174.84 Q87.1445,173.1837 89.6445,173.1837 Q90.3477,173.1837 90.9883,173.34 Q91.6445,173.4962 92.207,173.7931 L92.207,176.5119 Q91.582,175.9337 90.9883,175.6681 Q90.3945,175.3869 89.7695,175.3869 Q88.4258,175.3869 87.7383,176.465 Q87.0508,177.5275 87.0508,179.6212 Q87.0508,181.715 87.7383,182.7931 Q88.4258,183.8556 89.7695,183.8556 Q90.3945,183.8556 90.9883,183.59 Q91.582,183.3087 92.207,182.7306 L92.207,185.4494 Z " fill="#000000"/><a href="https://bo4e.github.io/BO4E-python/v202607.0.0/api/bo4e.bo.html#module-bo4e.bo.person" target="_top" title="https://bo4e.github.io/BO4E-python/v202607.0.0/api/bo4e.bo.html#module-bo4e.bo.person" xlink:actuate="onRequest" xlink:href="https://bo4e.github.io/BO4E-python/v202607.0.0/api/bo4e.bo.html#module-bo4e.bo.person" xlink:show="new" xlink:title="https://bo4e.github.io/BO4E-python/v202607.0.0/api/bo4e.bo.html#module-bo4e.bo.person" xlink:type="simple"><text fill="#0000FF" font-family="sans-serif" font-size="14" lengthAdjust="spacing" text-decoration="underline" textLength="47.5439" x="110.7686" y="178.8351">Person</text></a><text fill="#000000" font-family="sans-serif" font-size="10" lengthAdjust="spacing" textLength="49.6045" x="109.7383" y="191.4191">bo.Person</text><line style="stroke:#181818;stroke-width:0.5;" x1="8" x2="228.5811" y1="198.7775" y2="198.7775"/><text fill="#000000" font-family="sans-serif" font-size="14" lengthAdjust="spacing" textLength="94.0215" x="13" y="215.7726">_id : str [0..1]</text><text fill="#000000" font-family="sans-serif" font-size="14" lengthAdjust="spacing" textLength="210.5811" x="13" y="232.0695">_typ : Literal["PERSON"] [0..1]</text><text fill="#000000" font-family="sans-serif" font-size="14" lengthAdjust="spacing" textLength="132.5215" x="13" y="248.3664">_version : str [0..1]</text><text fill="#000000" font-family="sans-serif" font-size="14" lengthAdjust="spacing" textLength="186.5391" x="13" y="264.6632">geburtsdatum : date [0..1]</text><text fill="#000000" font-family="sans-serif" font-size="14" lengthAdjust="spacing" textLength="205.0439" x="13" y="280.9601">individuelleAnrede : str [0..1]</text><text fill="#000000" font-family="sans-serif" font-size="14" lengthAdjust="spacing" textLength="155.5039" x="13" y="297.257">kommentar : str [0..1]</text><text fill="#000000" font-family="sans-serif" font-size="14" lengthAdjust="spacing" textLength="147.9707" x="13" y="313.5539">nachname : str [0..1]</text><text fill="#000000" font-family="sans-serif" font-size="14" lengthAdjust="spacing" textLength="136.5547" x="13" y="329.8507">vorname : str [0..1]</text></g><!--link Person to Adresse--><g class="link" data-entity-1="ent0001" data-entity-2="ent0003" data-link-type="composition" data-source-line="51" id="lnk10"><path codeLine="51" d="M229.89,190.05 C239.83,185.42 249.83,180.99 259.58,177 C323.49,150.83 388.6579,131.5292 437.0279,118.4192" fill="none" id="Person-to-Adresse" style="stroke:#181818;stroke-width:1;"/><polygon fill="#181818" points="448.61,115.28,441.7725,112.9889,437.0279,118.4192,443.8653,120.7103,448.61,115.28" style="stroke:#181818;stroke-width:1;stroke-linejoin:miter;stroke-miterlimit:10;"/><text fill="#000000" font-family="sans-serif" font-size="13" lengthAdjust="spacing" textLength="51.105" x="290.58" y="134.6769">adresse</text><text fill="#000000" font-family="sans-serif" font-size="13" lengthAdjust="spacing" textLength="24.8066" x="416.1575" y="130.138">0..1</text></g><!--link Person to Kontaktweg--><g class="link" data-entity-1="ent0001" data-entity-2="ent0005" data-link-type="composition" data-source-line="52" id="lnk11"><path codeLine="52" d="M230.06,227.54 C298.46,214.29 371.6194,200.124 426.8594,189.414" fill="none" id="Person-to-Kontaktweg" style="stroke:#181818;stroke-width:1;"/><polygon fill="#181818" points="438.64,187.13,431.9883,184.3451,426.8594,189.414,433.511,192.1989,438.64,187.13" style="stroke:#181818;stroke-width:1;stroke-linejoin:miter;stroke-miterlimit:10;"/><text fill="#000000" font-family="sans-serif" font-size="13" lengthAdjust="spacing" textLength="84.2905" x="274.08" y="197.7669">kontaktwege</text><text fill="#000000" font-family="sans-serif" font-size="13" lengthAdjust="spacing" textLength="23.0356" x="407.9885" y="201.242">0..*</text></g><!--link Person to Zustaendigkeit--><g class="link" data-entity-1="ent0001" data-entity-2="ent0006" data-link-type="composition" data-source-line="53" id="lnk12"><path codeLine="53" d="M230.06,249 C294.33,249 361.21,249 416.33,249" fill="none" id="Person-to-Zustaendigkeit" style="stroke:#181818;stroke-width:1;"/><polygon fill="#181818" points="428.33,249,422.33,245,416.33,249,422.33,253,428.33,249" style="stroke:#181818;stroke-width:1;stroke-linejoin:miter;stroke-miterlimit:10;"/><text fill="#000000" font-family="sans-serif" font-size="13" lengthAdjust="spacing" textLength="111.7251" x="260.58" y="245.0669">zustaendigkeiten</text><text fill="#000000" font-family="sans-serif" font-size="13" lengthAdjust="spacing" textLength="23.0356" x="397.4284" y="261.8118">0..*</text></g><!--link Person to Anrede--><g class="link" data-entity-1="ent0001" data-entity-2="ent0008" data-link-type="composition" data-source-line="54" id="lnk13"><path codeLine="54" d="M230.06,282.22 C301.93,303.77 380.5758,327.3528 435.3258,343.7728" fill="none" id="Person-to-Anrede" style="stroke:#181818;stroke-width:1;"/><polygon fill="#181818" points="446.82,347.22,442.222,341.665,435.3258,343.7728,439.9238,349.3278,446.82,347.22" style="stroke:#181818;stroke-width:1;stroke-linejoin:miter;stroke-miterlimit:10;"/><text fill="#000000" font-family="sans-serif" font-size="13" lengthAdjust="spacing" textLength="45.7983" x="293.58" y="288.1269">anrede</text><text fill="#000000" font-family="sans-serif" font-size="13" lengthAdjust="spacing" textLength="24.8066" x="414.5033" y="358.3177">0..1</text></g><!--link Person to Titel--><g class="link" data-entity-1="ent0001" data-entity-2="ent0009" data-link-type="composition" data-source-line="55" id="lnk14"><path codeLine="55" d="M229.72,329.3 C239.66,335.55 249.7,341.54 259.58,347 C310.67,375.2 325.85,377.75 380.58,398 C404.68,406.92 420.5814,412.2084 442.6314,418.9984" fill="none" id="Person-to-Titel" style="stroke:#181818;stroke-width:1;"/><polygon fill="#181818" points="454.1,422.53,449.5429,416.9414,442.6314,418.9984,447.1885,424.5871,454.1,422.53" style="stroke:#181818;stroke-width:1;stroke-linejoin:miter;stroke-miterlimit:10;"/><text fill="#000000" font-family="sans-serif" font-size="13" lengthAdjust="spacing" textLength="25.416" x="303.58" y="343.0669">titel</text><text fill="#000000" font-family="sans-serif" font-size="13" lengthAdjust="spacing" textLength="24.8066" x="421.7363" y="433.8462">0..1</text></g><?plantuml-src jLLXQzim4FtkNo6SRuKuRjTrnOn1kffICjhIP0oQXI7RLrl4bemafpIb_trdsMdgo8oKjGb4qhsJSdhlxfJ3lIPQ4CdIJ9E4IOWr4znnufmgHTpvFDEwLC5e58bZy5Aciohoc1YTNH-7m_9HPuAFLaV-qOd_nVCzVqHBrhX6mijqaGyAaLGv33Us4gGIdDoOOR7upRygjeRWqF-6O6Dr2LMj0tbo27x-i8G4H6b9vhxd7IuQetuiqVg3QP0qdxituUtq-ifTT7nMU0pUnzwTGbH9hHAggm9H7E4rp7Z2LYof8CzXp2KaO1-n54K1N5DfGvp66QT5pwQLa3Rmx3YrKPKq1k8Qgc9H61us2p88_V7foVUMaV-M1u-qzQcDD96W591nCtOagl7MRe9hvszHQNn-6qwduRuoDT6iAqNrsaPZ4SgK0bzNFBNHZ5QALwXHZq12wbwZqi1o6oc5qlUeQJ-I0zDhclNimoMj2TfH-sCLN0fCogL-W9HCNgQMZbl8IBbTlaNDoVNLR3oP_GelzXKq0XLd4bZKAnbJ-WomHDPLYl_mAgO02q7atUfhmLqbFvfUJ4QDEPUmT8cwaxlEqgAv2nkgkwQtq7ttSpeRXrVdbnUJy7AsTmr5TLBtyetPoxIrwHc_k_q8i9As3QbUaK5o67_wVFfU7Qa-qsRSM6dJWPj6tA7Om8szwKYDvzDxPS4_WjAeIavczQyTaZ6RYCpC18HTldtLXiC3ujPSkoyjD6XR7Upw7BYaKmVRwkvptScjW7Ip5NXV29lthQ6vnwEvGq3CbHqdO-XUG16XewCoyK3QbvlSCyWJzHS0?></g></svg>