<svg xmlns="http://www.w3.org/2000/svg" xmlns:xlink="http://www.w3.org/1999/xlink" contentStyleType="text/css" data-diagram-type="CLASS" height="549px" preserveAspectRatio="none" style="width:646px;height:549px;background:#FFFFFF;" version="1.1" viewBox="0 0 646 549" width="646px" zoomAndPan="magnify"><?plantuml 1.2026.6?><defs/><g><!--cluster bo4e--><g class="cluster" data-qualified-name="bo4e" data-source-line="11" id="ent0004"><path d="M405.8,6 L445.676,6 A3.75,3.75 0 0 1 448.176,8.5 L455.176,28.2969 L629.06,28.2969 A2.5,2.5 0 0 1 631.56,30.7969 L631.56,531.5 A2.5,2.5 0 0 1 629.06,534 L405.8,534 A2.5,2.5 0 0 1 403.3,531.5 L403.3,8.5 A2.5,2.5 0 0 1 405.8,6" fill="none" style="stroke:#000000;stroke-width:1.5;"/><line style="stroke:#000000;stroke-width:1.5;" x1="403.3" x2="455.176" y1="28.2969" y2="28.2969"/><text fill="#000000" font-family="sans-serif" font-size="14" font-weight="700" lengthAdjust="spacing" textLength="38.876" x="407.3" y="20.9951">bo4e</text></g><!--cluster bo--><g class="cluster" data-qualified-name="bo4e.bo" data-source-line="10" id="ent0002"><path d="M429.8,49 L494.634,49 A3.75,3.75 0 0 1 497.134,51.5 L504.134,71.2969 L605.06,71.2969 A2.5,2.5 0 0 1 607.56,73.7969 L607.56,135.5 A2.5,2.5 0 0 1 605.06,138 L429.8,138 A2.5,2.5 0 0 1 427.3,135.5 L427.3,51.5 A2.5,2.5 0 0 1 429.8,49" fill="#B6D7A8" style="stroke:#000000;stroke-width:1.5;"/><line style="stroke:#000000;stroke-width:1.5;" x1="427.3" x2="504.134" y1="71.2969" y2="71.2969"/><text fill="#000000" font-family="sans-serif" font-size="14" font-weight="700" lengthAdjust="spacing" textLength="63.834" x="431.3" y="63.9951">bo4e.bo</text></g><!--cluster com--><g class="cluster" data-qualified-name="bo4e.com" data-source-line="19" id="ent0005"><path d="M443.21,162 L520.9092,162 A3.75,3.75 0 0 1 523.4092,164.5 L530.4092,184.2969 L591.66,184.2969 A2.5,2.5 0 0 1 594.16,186.7969 L594.16,321.5 A2.5,2.5 0 0 1 591.66,324 L443.21,324 A2.5,2.5 0 0 1 440.71,321.5 L440.71,164.5 A2.5,2.5 0 0 1 443.21,162" fill="#E0A86C" style="stroke:#000000;stroke-width:1.5;"/><line style="stroke:#000000;stroke-width:1.5;" x1="440.71" x2="530.4092" y1="184.2969" y2="184.2969"/><text fill="#000000" font-family="sans-serif" font-size="14" font-weight="700" lengthAdjust="spacing" textLength="76.6992" x="444.71" y="176.9951">bo4e.com</text></g><!--cluster enum--><g class="cluster" data-qualified-name="bo4e.enum" data-source-line="40" id="ent0008"><path d="M444.55,348 L533.7609,348 A3.75,3.75 0 0 1 536.2609,350.5 L543.2609,370.2969 L590.31,370.2969 A2.5,2.5 0 0 1 592.81,372.7969 L592.81,507.5 A2.5,2.5 0 0 1 590.31,510 L444.55,510 A2.5,2.5 0 0 1 442.05,507.5 L442.05,350.5 A2.5,2.5 0 0 1 444.55,348" fill="#D1C358" style="stroke:#000000;stroke-width:1.5;"/><line style="stroke:#000000;stroke-width:1.5;" x1="442.05" x2="543.2609" y1="370.2969" y2="370.2969"/><text fill="#000000" font-family="sans-serif" font-size="14" font-weight="700" lengthAdjust="spacing" textLength="88.2109" x="446.05" y="362.9951">bo4e.enum</text></g><!--class Marktteilnehmer--><g class="entity" data-qualified-name="bo4e.bo.Marktteilnehmer" data-source-line="11" id="ent0003"><rect fill="#F1F1F1" height="37.9375" rx="2.5" ry="2.5" style="stroke:#181818;stroke-width:0.5;" width="148.2588" x="443.3" y="84.03"/><ellipse cx="458.3" cy="102.9987" fill="#ADD1B2" rx="11" ry="11" style="stroke:#181818;stroke-width:1;"/><path d="M461.2688,108.6394 Q460.6906,108.9362 460.05,109.0769 Q459.4094,109.2331 458.7063,109.2331 Q456.2063,109.2331 454.8781,107.5925 Q453.5656,105.9362 453.5656,102.8112 Q453.5656,99.6862 454.8781,98.03 Q456.2063,96.3737 458.7063,96.3737 Q459.4094,96.3737 460.05,96.53 Q460.7063,96.6862 461.2688,96.9831 L461.2688,99.7019 Q460.6438,99.1237 460.05,98.8581 Q459.4563,98.5769 458.8313,98.5769 Q457.4875,98.5769 456.8,99.655 Q456.1125,100.7175 456.1125,102.8112 Q456.1125,104.905 456.8,105.9831 Q457.4875,107.0456 458.8313,107.0456 Q459.4563,107.0456 460.05,106.78 Q460.6438,106.4987 461.2688,105.9206 L461.2688,108.6394 Z " fill="#000000"/><a href="https://bo4e.github.io/BO4E-python/v202607.0.0/api/bo4e.bo.html#module-bo4e.bo.marktteilnehmer" target="_top" title="https://bo4e.github.io/BO4E-python/v202607.0.0/api/bo4e.bo.html#module-bo4e.bo.marktteilnehmer" xlink:actuate="onRequest" xlink:href="https://bo4e.github.io/BO4E-python/v202607.0.0/api/bo4e.bo.html#module-bo4e.bo.marktteilnehmer" xlink:show="new" xlink:title="https://bo4e.github.io/BO4E-python/v202607.0.0/api/bo4e.bo.html#module-bo4e.bo.marktteilnehmer" xlink:type="simple"><text fill="#0000FF" font-family="sans-serif" font-size="14" lengthAdjust="spacing" text-decoration="underline" textLength="116.2588" x="472.3" y="102.0251">Marktteilnehmer</text></a><text fill="#000000" font-family="sans-serif" font-size="10" lengthAdjust="spacing" textLength="98.6865" x="481.0861" y="114.6091">bo.Marktteilnehmer</text></g><!--class Preisposition--><g class="entity" data-qualified-name="bo4e.com.Preisposition" data-source-line="20" id="ent0006"><rect fill="#F1F1F1" height="37.9375" rx="2.5" ry="2.5" style="stroke:#181818;stroke-width:0.5;" width="121.4482" x="456.71" y="197.03"/><ellipse cx="471.71" cy="215.9987" fill="#ADD1B2" rx="11" ry="11" style="stroke:#181818;stroke-width:1;"/><path d="M474.6788,221.6394 Q474.1006,221.9362 473.46,222.0769 Q472.8194,222.2331 472.1163,222.2331 Q469.6163,222.2331 468.2881,220.5925 Q466.9756,218.9362 466.9756,215.8112 Q466.9756,212.6862 468.2881,211.03 Q469.6163,209.3737 472.1163,209.3737 Q472.8194,209.3737 473.46,209.53 Q474.1163,209.6862 474.6788,209.9831 L474.6788,212.7019 Q474.0538,212.1237 473.46,211.8581 Q472.8663,211.5769 472.2413,211.5769 Q470.8975,211.5769 470.21,212.655 Q469.5225,213.7175 469.5225,215.8112 Q469.5225,217.905 470.21,218.9831 Q470.8975,220.0456 472.2413,220.0456 Q472.8663,220.0456 473.46,219.78 Q474.0538,219.4987 474.6788,218.9206 L474.6788,221.6394 Z " fill="#000000"/><a href="https://bo4e.github.io/BO4E-python/v202607.0.0/api/bo4e.com.html#module-bo4e.com.preisposition" target="_top" title="https://bo4e.github.io/BO4E-python/v202607.0.0/api/bo4e.com.html#module-bo4e.com.preisposition" xlink:actuate="onRequest" xlink:href="https://bo4e.github.io/BO4E-python/v202607.0.0/api/bo4e.com.html#module-bo4e.com.preisposition" xlink:show="new" xlink:title="https://bo4e.github.io/BO4E-python/v202607.0.0/api/bo4e.com.html#module-bo4e.com.preisposition" xlink:type="simple"><text fill="#0000FF" font-family="sans-serif" font-size="14" lengthAdjust="spacing" text-decoration="underline" textLength="89.4482" x="485.71" y="215.0251">Preisposition</text></a><text fill="#000000" font-family="sans-serif" font-size="10" lengthAdjust="spacing" textLength="88.4277" x="486.2203" y="227.6091">com.Preisposition</text></g><!--class Zeitraum--><g class="entity" data-qualified-name="bo4e.com.Zeitraum" data-source-line="29" id="ent0007"><rect fill="#F1F1F1" height="37.9375" rx="2.5" ry="2.5" style="stroke:#181818;stroke-width:0.5;" width="102.5566" x="466.15" y="270.03"/><ellipse cx="481.15" cy="288.9988" fill="#ADD1B2" rx="11" ry="11" style="stroke:#181818;stroke-width:1;"/><path d="M484.1188,294.6394 Q483.5406,294.9363 482.9,295.0769 Q482.2594,295.2331 481.5563,295.2331 Q479.0563,295.2331 477.7281,293.5925 Q476.4156,291.9363 476.4156,288.8113 Q476.4156,285.6863 477.7281,284.03 Q479.0563,282.3738 481.5563,282.3738 Q482.2594,282.3738 482.9,282.53 Q483.5563,282.6863 484.1188,282.9831 L484.1188,285.7019 Q483.4938,285.1238 482.9,284.8581 Q482.3063,284.5769 481.6813,284.5769 Q480.3375,284.5769 479.65,285.655 Q478.9625,286.7175 478.9625,288.8113 Q478.9625,290.905 479.65,291.9831 Q480.3375,293.0456 481.6813,293.0456 Q482.3063,293.0456 482.9,292.78 Q483.4938,292.4988 484.1188,291.9206 L484.1188,294.6394 Z " fill="#000000"/><a href="https://bo4e.github.io/BO4E-python/v202607.0.0/api/bo4e.com.html#module-bo4e.com.zeitraum" target="_top" title="https://bo4e.github.io/BO4E-python/v202607.0.0/api/bo4e.com.html#module-bo4e.com.zeitraum" xlink:actuate="onRequest" xlink:href="https://bo4e.github.io/BO4E-python/v202607.0.0/api/bo4e.com.html#module-bo4e.com.zeitraum" xlink:show="new" xlink:title="https://bo4e.github.io/BO4E-python/v202607.0.0/api/bo4e.com.html#module-bo4e.com.zeitraum" xlink:type="simple"><text fill="#0000FF" font-family="sans-serif" font-size="14" lengthAdjust="spacing" text-decoration="underline" textLength="64.4287" x="498.214" y="288.0251">Zeitraum</text></a><text fill="#000000" font-family="sans-serif" font-size="10" lengthAdjust="spacing" textLength="70.5566" x="495.15" y="300.6091">com.Zeitraum</text></g><!--class Preisstatus--><g class="entity" data-qualified-name="bo4e.enum.Preisstatus" data-source-line="41" id="ent0009"><rect fill="#F1F1F1" height="37.9375" rx="2.5" ry="2.5" style="stroke:#181818;stroke-width:0.5;" width="118.7578" x="458.05" y="383.03"/><ellipse cx="473.05" cy="401.9988" fill="#ADD1B2" rx="11" ry="11" style="stroke:#181818;stroke-width:1;"/><path d="M476.0188,407.6394 Q475.4406,407.9363 474.8,408.0769 Q474.1594,408.2331 473.4563,408.2331 Q470.9563,408.2331 469.6281,406.5925 Q468.3156,404.9363 468.3156,401.8113 Q468.3156,398.6863 469.6281,397.03 Q470.9563,395.3738 473.4563,395.3738 Q474.1594,395.3738 474.8,395.53 Q475.4563,395.6863 476.0188,395.9831 L476.0188,398.7019 Q475.3938,398.1238 474.8,397.8581 Q474.2063,397.5769 473.5813,397.5769 Q472.2375,397.5769 471.55,398.655 Q470.8625,399.7175 470.8625,401.8113 Q470.8625,403.905 471.55,404.9831 Q472.2375,406.0456 473.5813,406.0456 Q474.2063,406.0456 474.8,405.78 Q475.3938,405.4988 476.0188,404.9206 L476.0188,407.6394 Z " fill="#000000"/><a href="https://bo4e.github.io/BO4E-python/v202607.0.0/api/bo4e.enum.html#module-bo4e.enum.preisstatus" target="_top" title="https://bo4e.github.io/BO4E-python/v202607.0.0/api/bo4e.enum.html#module-bo4e.enum.preisstatus" xlink:actuate="onRequest" xlink:href="https://bo4e.github.io/BO4E-python/v202607.0.0/api/bo4e.enum.html#module-bo4e.enum.preisstatus" xlink:show="new" xlink:title="https://bo4e.github.io/BO4E-python/v202607.0.0/api/bo4e.enum.html#module-bo4e.enum.preisstatus" xlink:type="simple"><text fill="#0000FF" font-family="sans-serif" font-size="14" lengthAdjust="spacing" text-decoration="underline" textLength="77.0137" x="491.9221" y="401.0251">Preisstatus</text></a><text fill="#000000" font-family="sans-serif" font-size="10" lengthAdjust="spacing" textLength="86.7578" x="487.05" y="413.6091">enum.Preisstatus</text></g><!--class Sparte--><g class="entity" data-qualified-name="bo4e.enum.Sparte" data-source-line="43" id="ent0010"><rect fill="#F1F1F1" height="37.9375" rx="2.5" ry="2.5" style="stroke:#181818;stroke-width:0.5;" width="96.7559" x="469.05" y="456.03"/><ellipse cx="484.05" cy="474.9988" fill="#ADD1B2" rx="11" ry="11" style="stroke:#181818;stroke-width:1;"/><path d="M487.0188,480.6394 Q486.4406,480.9363 485.8,481.0769 Q485.1594,481.2331 484.4563,481.2331 Q481.9563,481.2331 480.6281,479.5925 Q479.3156,477.9363 479.3156,474.8113 Q479.3156,471.6863 480.6281,470.03 Q481.9563,468.3738 484.4563,468.3738 Q485.1594,468.3738 485.8,468.53 Q486.4563,468.6863 487.0188,468.9831 L487.0188,471.7019 Q486.3938,471.1238 485.8,470.8581 Q485.2063,470.5769 484.5813,470.5769 Q483.2375,470.5769 482.55,471.655 Q481.8625,472.7175 481.8625,474.8113 Q481.8625,476.905 482.55,477.9831 Q483.2375,479.0456 484.5813,479.0456 Q485.2063,479.0456 485.8,478.78 Q486.3938,478.4988 487.0188,477.9206 L487.0188,480.6394 Z " fill="#000000"/><a href="https://bo4e.github.io/BO4E-python/v202607.0.0/api/bo4e.enum.html#module-bo4e.enum.sparte" target="_top" title="https://bo4e.github.io/BO4E-python/v202607.0.0/api/bo4e.enum.html#module-bo4e.enum.sparte" xlink:actuate="onRequest" xlink:href="https://bo4e.github.io/BO4E-python/v202607.0.0/api/bo4e.enum.html#module-bo4e.enum.sparte" xlink:show="new" xlink:title="https://bo4e.github.io/BO4E-python/v202607.0.0/api/bo4e.enum.html#module-bo4e.enum.sparte" xlink:type="simple"><text fill="#0000FF" font-family="sans-serif" font-size="14" lengthAdjust="spacing" text-decoration="underline" textLength="46.2109" x="507.3225" y="474.0251">Sparte</text></a><text fill="#000000" font-family="sans-serif" font-size="10" lengthAdjust="spacing" textLength="64.7559" x="498.05" y="486.6091">enum.Sparte</text></g><!--class Preisblatt--><g class="entity" data-qualified-name="Preisblatt" data-source-line="3" id="ent0001"><rect fill="#F1F1F1" height="111.125" rx="2.5" ry="2.5" style="stroke:#181818;stroke-width:0.5;" width="249.3027" x="7" y="233.44"/><ellipse cx="94.2368" cy="252.4088" fill="#ADD1B2" rx="11" ry="11" style="stroke:#181818;stroke-width:1;"/><path d="M97.2056,258.0494 Q96.6274,258.3463 95.9868,258.4869 Q95.3462,258.6431 94.6431,258.6431 Q92.1431,258.6431 90.8149,257.0025 Q89.5024,255.3463 89.5024,252.2213 Q89.5024,249.0963 90.8149,247.44 Q92.1431,245.7838 94.6431,245.7838 Q95.3462,245.7838 95.9868,245.94 Q96.6431,246.0963 97.2056,246.3931 L97.2056,249.1119 Q96.5806,248.5338 95.9868,248.2681 Q95.3931,247.9869 94.7681,247.9869 Q93.4243,247.9869 92.7368,249.065 Q92.0493,250.1275 92.0493,252.2213 Q92.0493,254.315 92.7368,255.3931 Q93.4243,256.4556 94.7681,256.4556 Q95.3931,256.4556 95.9868,256.19 Q96.5806,255.9088 97.2056,255.3306 L97.2056,258.0494 Z " fill="#000000"/><a href="https://bo4e.github.io/BO4E-python/v202607.0.0/api/bo4e.bo.html#module-bo4e.bo.preisblatt" target="_top" title="https://bo4e.github.io/BO4E-python/v202607.0.0/api/bo4e.bo.html#module-bo4e.bo.preisblatt" xlink:actuate="onRequest" xlink:href="https://bo4e.github.io/BO4E-python/v202607.0.0/api/bo4e.bo.html#module-bo4e.bo.preisblatt" xlink:show="new" xlink:title="https://bo4e.github.io/BO4E-python/v202607.0.0/api/bo4e.bo.html#module-bo4e.bo.preisblatt" xlink:type="simple"><text fill="#0000FF" font-family="sans-serif" font-size="14" lengthAdjust="spacing" text-decoration="underline" textLength="66.3291" x="114.7368" y="251.4351">Preisblatt</text></a><text fill="#000000" font-family="sans-serif" font-size="10" lengthAdjust="spacing" textLength="63.0225" x="116.3901" y="264.0191">bo.Preisblatt</text><line style="stroke:#181818;stroke-width:0.5;" x1="8" x2="255.3027" y1="271.3775" y2="271.3775"/><text fill="#000000" font-family="sans-serif" font-size="14" lengthAdjust="spacing" textLength="94.0215" x="13" y="288.3726">_id : str [0..1]</text><text fill="#000000" font-family="sans-serif" font-size="14" lengthAdjust="spacing" textLength="237.3027" x="13" y="304.6695">_typ : Literal["PREISBLATT"] [0..1]</text><text fill="#000000" font-family="sans-serif" font-size="14" lengthAdjust="spacing" textLength="132.5215" x="13" y="320.9664">_version : str [0..1]</text><text fill="#000000" font-family="sans-serif" font-size="14" lengthAdjust="spacing" textLength="163.6729" x="13" y="337.2632">bezeichnung : str [0..1]</text></g><!--link Preisblatt to Marktteilnehmer--><g class="link" data-entity-1="ent0001" data-entity-2="ent0003" data-link-type="composition" data-source-line="47" id="lnk11"><path codeLine="47" d="M248.32,232.94 C325.79,195.4 412.2515,153.4937 465.7515,127.5637" fill="none" id="Preisblatt-to-Marktteilnehmer" style="stroke:#181818;stroke-width:1;"/><polygon fill="#181818" points="476.55,122.33,469.4062,121.3474,465.7515,127.5637,472.8953,128.5464,476.55,122.33" style="stroke:#181818;stroke-width:1;stroke-linejoin:miter;stroke-miterlimit:10;"/><text fill="#000000" font-family="sans-serif" font-size="13" lengthAdjust="spacing" textLength="82.4053" x="295.8" y="164.5369">herausgeber</text><text fill="#000000" font-family="sans-serif" font-size="13" lengthAdjust="spacing" textLength="24.8066" x="437.7911" y="141.9619">0..1</text></g><!--link Preisblatt to Preisposition--><g class="link" data-entity-1="ent0001" data-entity-2="ent0006" data-link-type="composition" data-source-line="48" id="lnk12"><path codeLine="48" d="M256.72,265.4 C323.63,252.67 391.3617,239.7939 444.6317,229.6539" fill="none" id="Preisblatt-to-Preisposition" style="stroke:#181818;stroke-width:1;"/><polygon fill="#181818" points="456.42,227.41,449.7779,224.6025,444.6317,229.6539,451.2738,232.4614,456.42,227.41" style="stroke:#181818;stroke-width:1;stroke-linejoin:miter;stroke-miterlimit:10;"/><text fill="#000000" font-family="sans-serif" font-size="13" lengthAdjust="spacing" textLength="99.709" x="287.3" y="237.7669">preispositionen</text><text fill="#000000" font-family="sans-serif" font-size="13" lengthAdjust="spacing" textLength="23.0356" x="425.4907" y="241.5526">0..*</text></g><!--link Preisblatt to Zeitraum--><g class="link" data-entity-1="ent0001" data-entity-2="ent0007" data-link-type="composition" data-source-line="49" id="lnk13"><path codeLine="49" d="M256.72,289 C327.68,289 400.83,289 453.8,289" fill="none" id="Preisblatt-to-Zeitraum" style="stroke:#181818;stroke-width:1;"/><polygon fill="#181818" points="465.8,289,459.8,285,453.8,289,459.8,293,465.8,289" style="stroke:#181818;stroke-width:1;stroke-linejoin:miter;stroke-miterlimit:10;"/><text fill="#000000" font-family="sans-serif" font-size="13" lengthAdjust="spacing" textLength="69.2974" x="302.3" y="285.0669">gueltigkeit</text><text fill="#000000" font-family="sans-serif" font-size="13" lengthAdjust="spacing" textLength="24.8066" x="433.3041" y="302.0838">0..1</text></g><!--link Preisblatt to Preisstatus--><g class="link" data-entity-1="ent0001" data-entity-2="ent0009" data-link-type="composition" data-source-line="50" id="lnk14"><path codeLine="50" d="M256.72,325.53 C324.18,345.39 392.9485,365.641 446.2085,381.321" fill="none" id="Preisblatt-to-Preisstatus" style="stroke:#181818;stroke-width:1;"/><polygon fill="#181818" points="457.72,384.71,453.0939,379.1783,446.2085,381.321,450.8346,386.8526,457.72,384.71" style="stroke:#181818;stroke-width:1;stroke-linejoin:miter;stroke-miterlimit:10;"/><text fill="#000000" font-family="sans-serif" font-size="13" lengthAdjust="spacing" textLength="71.9253" x="301.3" y="331.4469">preisstatus</text><text fill="#000000" font-family="sans-serif" font-size="13" lengthAdjust="spacing" textLength="24.8066" x="425.0296" y="395.592">0..1</text></g><!--link Preisblatt to Sparte--><g class="link" data-entity-1="ent0001" data-entity-2="ent0010" data-link-type="composition" data-source-line="51" id="lnk15"><path codeLine="51" d="M215.99,344.93 C238.46,359.24 263.01,374.2 286.3,387 C333.17,412.77 345.38,418.81 395.3,438 C419.11,447.15 434.6816,452.2789 457.2116,458.7889" fill="none" id="Preisblatt-to-Sparte" style="stroke:#181818;stroke-width:1;"/><polygon fill="#181818" points="468.74,462.12,464.0862,456.6117,457.2116,458.7889,461.8654,464.2972,468.74,462.12" style="stroke:#181818;stroke-width:1;stroke-linejoin:miter;stroke-miterlimit:10;"/><text fill="#000000" font-family="sans-serif" font-size="13" lengthAdjust="spacing" textLength="41.4312" x="316.3" y="383.0669">sparte</text><text fill="#000000" font-family="sans-serif" font-size="13" lengthAdjust="spacing" textLength="24.8066" x="436.2625" y="473.4398">0..1</text></g><?plantuml-src jLNVJzim47xFNs6bRqXD0sE0ecbIkqLQjHPGwLxegib9hebLnuxi2nCW_dUS7wLDqYAGe2_rtNrddx_lpk6mGeAIA1OdI2Ac84GcXMM5d6fDxCKYGSoqDnW4yXISc66I1mwJWz7LgT_FxZ6HOd1tufwSkUUEwxW3ch4A6aWdmPJtKXdb7FeRNwQ0wO1JH7Bzibmk_uflcZs0T-n-Dw1jn2PKxm39eqNCxn-BY4SqAh9m7UTuMJdnFZFU2KDGb2_iwva_lXbDXlEvlMpWxa1fSyVk3W4y00iJaOku6NooB45Jq1aDWTZrLShIwZNfZSv-dWylwle-YxoKgZKYC2uWIK6HQTDkqzWAbmMtVEyXT3gS_PxF_V7aqlyrzMTlPJMbQqaZ1Lg32NAcSM4GLV9H1L6ISn2XZ43aQL5LY_sd3lsXJBVy6uFqV7TuSVRZemGmMtOLA9nb_sPIis9CgixSM0tw2smZkktab-ptDlFrrSruFhwwV2lpAtDQ2YA64MSYeYe0XWQrufBYNjp4L8Uc-_MAhb6gVTXOvLa6WYfaQ-3ZFQNppIQlZDFdQcIEHKNpbDpMYuuocq0foiPuZnwt_dW-6_wPlbMAYERjjYxS8AA8eZdQCmY4LYXFr4Cb6HfzTeCQZG27CilW_jnzerJCt7QM2elqekFmozSFUysAFRjAbTvod4p1cDV3KQqRWfN0dU1sakh4nu_gg5SADOmfG_DD-TSjh_ANbLNBiYZptTZvTlNxHyGkTB0xhx174jDNkOuX0BKlvyXklHqUQRn480wSzDBS7ebpuCZYjV4S0E-IMXzGMGVmzLLDMvSBoqfO12I5rDn2MpgH_ydEjvoi6F18FmC0?></g></svg>