<?xml version="1.0" encoding="us-ascii" standalone="no"?><svg xmlns="http://www.w3.org/2000/svg" xmlns:xlink="http://www.w3.org/1999/xlink" contentStyleType="text/css" height="190px" preserveAspectRatio="none" style="width:589px;height:190px;background:#FFFFFF;" version="1.1" viewBox="0 0 589 190" width="589px" zoomAndPan="magnify"><defs/><g><!--cluster bo4e--><g id="cluster_bo4e"><path d="M352.5,6 L393.5,6 A3.75,3.75 0 0 1 396,8.5 L403,28.2969 L579.5,28.2969 A2.5,2.5 0 0 1 582,30.7969 L582,159.5 A2.5,2.5 0 0 1 579.5,162 L352.5,162 A2.5,2.5 0 0 1 350,159.5 L350,8.5 A2.5,2.5 0 0 1 352.5,6 " fill="none" style="stroke:#000000;stroke-width:1.5;"/><line style="stroke:#000000;stroke-width:1.5;" x1="350" x2="403" y1="28.2969" y2="28.2969"/><text fill="#000000" font-family="sans-serif" font-size="14" font-weight="bold" lengthAdjust="spacing" textLength="40" x="354" y="20.9951">bo4e</text></g><!--cluster com--><g id="cluster_com"><path d="M376.5,49 L455.5,49 A3.75,3.75 0 0 1 458,51.5 L465,71.2969 L555.5,71.2969 A2.5,2.5 0 0 1 558,73.7969 L558,135.5 A2.5,2.5 0 0 1 555.5,138 L376.5,138 A2.5,2.5 0 0 1 374,135.5 L374,51.5 A2.5,2.5 0 0 1 376.5,49 " fill="#E0A86C" style="stroke:#000000;stroke-width:1.5;"/><line style="stroke:#000000;stroke-width:1.5;" x1="374" x2="465" y1="71.2969" y2="71.2969"/><a href="https://bo4e.github.io/BO4E-python/v202401.1.2-rc14/api/bo4e.com.html" target="_top" title="https://bo4e.github.io/BO4E-python/v202401.1.2-rc14/api/bo4e.com.html" xlink:actuate="onRequest" xlink:href="https://bo4e.github.io/BO4E-python/v202401.1.2-rc14/api/bo4e.com.html" xlink:show="new" xlink:title="https://bo4e.github.io/BO4E-python/v202401.1.2-rc14/api/bo4e.com.html" xlink:type="simple"><text fill="#0000FF" font-family="sans-serif" font-size="14" font-weight="bold" lengthAdjust="spacing" text-decoration="underline" textLength="78" x="378" y="63.9951">bo4e.com</text></a></g><!--class Kostenposition--><g id="elem_Kostenposition"><rect codeLine="14" fill="#F1F1F1" height="37.9375" id="Kostenposition" rx="2.5" ry="2.5" style="stroke:#181818;stroke-width:0.5;" width="152" x="390" y="84.03"/><ellipse cx="405" cy="102.9987" fill="#ADD1B2" rx="11" ry="11" style="stroke:#181818;stroke-width:1.0;"/><path d="M407.9688,108.6394 Q407.3906,108.9362 406.75,109.0769 Q406.1094,109.2331 405.4063,109.2331 Q402.9063,109.2331 401.5781,107.5925 Q400.2656,105.9362 400.2656,102.8112 Q400.2656,99.6862 401.5781,98.03 Q402.9063,96.3737 405.4063,96.3737 Q406.1094,96.3737 406.75,96.53 Q407.4063,96.6862 407.9688,96.9831 L407.9688,99.7019 Q407.3438,99.1237 406.75,98.8581 Q406.1563,98.5769 405.5313,98.5769 Q404.1875,98.5769 403.5,99.655 Q402.8125,100.7175 402.8125,102.8112 Q402.8125,104.905 403.5,105.9831 Q404.1875,107.0456 405.5313,107.0456 Q406.1563,107.0456 406.75,106.78 Q407.3438,106.4987 407.9688,105.9206 L407.9688,108.6394 Z " fill="#000000"/><a href="https://bo4e.github.io/BO4E-python/v202401.1.2-rc14/api/bo4e.com.html#bo4e.com.kostenposition.Kostenposition" target="_top" title="https://bo4e.github.io/BO4E-python/v202401.1.2-rc14/api/bo4e.com.html#bo4e.com.kostenposition.Kostenposition" xlink:actuate="onRequest" xlink:href="https://bo4e.github.io/BO4E-python/v202401.1.2-rc14/api/bo4e.com.html#bo4e.com.kostenposition.Kostenposition" xlink:show="new" xlink:title="https://bo4e.github.io/BO4E-python/v202401.1.2-rc14/api/bo4e.com.html#bo4e.com.kostenposition.Kostenposition" xlink:type="simple"><text fill="#0000FF" font-family="sans-serif" font-size="14" lengthAdjust="spacing" text-decoration="underline" textLength="104" x="427" y="102.0251">Kostenposition</text></a><text fill="#000000" font-family="sans-serif" font-size="10" lengthAdjust="spacing" textLength="120" x="419" y="114.6091">bo4e.com.kostenposition</text></g><!--class Fremdkostenposition--><g id="elem_Fremdkostenposition"><rect codeLine="3" fill="#F1F1F1" height="160.0156" id="Fremdkostenposition" rx="2.5" ry="2.5" style="stroke:#181818;stroke-width:0.5;" width="323" x="7" y="22.99"/><ellipse cx="89.25" cy="41.9587" fill="#ADD1B2" rx="11" ry="11" style="stroke:#181818;stroke-width:1.0;"/><path d="M92.2188,47.5994 Q91.6406,47.8962 91,48.0369 Q90.3594,48.1931 89.6563,48.1931 Q87.1563,48.1931 85.8281,46.5525 Q84.5156,44.8962 84.5156,41.7712 Q84.5156,38.6462 85.8281,36.99 Q87.1563,35.3337 89.6563,35.3337 Q90.3594,35.3337 91,35.49 Q91.6563,35.6462 92.2188,35.9431 L92.2188,38.6619 Q91.5938,38.0837 91,37.8181 Q90.4063,37.5369 89.7813,37.5369 Q88.4375,37.5369 87.75,38.615 Q87.0625,39.6775 87.0625,41.7712 Q87.0625,43.865 87.75,44.9431 Q88.4375,46.0056 89.7813,46.0056 Q90.4063,46.0056 91,45.74 Q91.5938,45.4587 92.2188,44.8806 L92.2188,47.5994 Z " fill="#000000"/><a href="https://bo4e.github.io/BO4E-python/v202401.1.2-rc14/api/bo4e.com.html#bo4e.com.fremdkostenposition.Fremdkostenposition" target="_top" title="https://bo4e.github.io/BO4E-python/v202401.1.2-rc14/api/bo4e.com.html#bo4e.com.fremdkostenposition.Fremdkostenposition" xlink:actuate="onRequest" xlink:href="https://bo4e.github.io/BO4E-python/v202401.1.2-rc14/api/bo4e.com.html#bo4e.com.fremdkostenposition.Fremdkostenposition" xlink:show="new" xlink:title="https://bo4e.github.io/BO4E-python/v202401.1.2-rc14/api/bo4e.com.html#bo4e.com.fremdkostenposition.Fremdkostenposition" xlink:type="simple"><text fill="#0000FF" font-family="sans-serif" font-size="14" lengthAdjust="spacing" text-decoration="underline" textLength="147" x="111.25" y="40.9851">Fremdkostenposition</text></a><text fill="#000000" font-family="sans-serif" font-size="10" lengthAdjust="spacing" textLength="150" x="109.75" y="53.5691">bo4e.com.fremdkostenposition</text><line style="stroke:#181818;stroke-width:0.5;" x1="8" x2="329" y1="60.9275" y2="60.9275"/><text fill="#000000" font-family="sans-serif" font-size="14" lengthAdjust="spacing" textLength="259" x="13" y="77.9226">_version : str [0..1] = 202401.1.2rc14</text><text fill="#000000" font-family="sans-serif" font-size="14" lengthAdjust="spacing" textLength="147" x="13" y="94.2195">_id : str [0..1] = None</text><text fill="#000000" font-family="sans-serif" font-size="14" lengthAdjust="spacing" textLength="311" x="13" y="110.5164">zusatzAttribute : ZusatzAttribut [0..*] = None</text><text fill="#000000" font-family="sans-serif" font-size="14" lengthAdjust="spacing" textLength="256" x="13" y="126.8132">marktpartnername : str [0..1] = None</text><text fill="#000000" font-family="sans-serif" font-size="14" lengthAdjust="spacing" textLength="252" x="13" y="143.1101">marktpartnercode : str [0..1] = None</text><text fill="#000000" font-family="sans-serif" font-size="14" lengthAdjust="spacing" textLength="227" x="13" y="159.407">gebietcodeEic : str [0..1] = None</text><text fill="#000000" font-family="sans-serif" font-size="14" lengthAdjust="spacing" textLength="215" x="13" y="175.7039">linkPreisblatt : str [0..1] = None</text></g><!--link Fremdkostenposition to Kostenposition--><g id="link_Fremdkostenposition_Kostenposition"><path codeLine="17" d="M330.22,103 C350.93,103 353.3,103 371.68,103 " fill="none" id="Fremdkostenposition-to-Kostenposition" style="stroke:#181818;stroke-width:1.0;"/><polygon fill="none" points="389.68,103,371.68,97,371.68,109,389.68,103" style="stroke:#181818;stroke-width:1.0;"/></g><!--SRC=[jP9HJy8m4CUVwQTeuCratKOMOuYIeC4N4lLPN4pN7Up2rYxjWH7rkxjX0C5gVD2ttlNN__Nk_YNCY9FX5kS5yHmjA4AZ6LEbT8vtfzE2g7Q3CCnC0cAEL2mpWIQyl4t6GVrCXT7XgX_raoWMiUW7LiL9A6lyu9MfH45LsTj5CmjLlZ2EGDV6OLjCN7_DSKykJH_qkSCr3E9e-9DWbqld4-0lhFEu0klQyu0xidmQ2H6d_8BlMsWxQ3ZCZv4Reu5rraidQJqYifWj2Hhe_Y2puK_sV2NjWcffIOFLiWA_wcTAcVmRQWuP0hNtOrH-f4IzkBE0BYibaPTvOwpzYAkbWZ_RCDz6QReP_pRalN4qEZkzQcV_NvuwijFaSEcJNvZ8uv_3P-tGl3uDWjVXhjcZqemLsAooWYfhJCTSOPwuLsI6KERk7G00]--></g></svg>