<?xml version="1.0" encoding="us-ascii" standalone="no"?><svg xmlns="http://www.w3.org/2000/svg" xmlns:xlink="http://www.w3.org/1999/xlink" contentStyleType="text/css" height="242px" preserveAspectRatio="none" style="width:768px;height:242px;background:#FFFFFF;" version="1.1" viewBox="0 0 768 242" width="768px" zoomAndPan="magnify"><defs/><g><!--cluster bo4e--><g id="cluster_bo4e"><path d="M507.5,6 L548.5,6 A3.75,3.75 0 0 1 551,8.5 L558,28.2969 L758.5,28.2969 A2.5,2.5 0 0 1 761,30.7969 L761,232.5 A2.5,2.5 0 0 1 758.5,235 L507.5,235 A2.5,2.5 0 0 1 505,232.5 L505,8.5 A2.5,2.5 0 0 1 507.5,6 " fill="none" style="stroke:#000000;stroke-width:1.5;"/><line style="stroke:#000000;stroke-width:1.5;" x1="505" x2="558" y1="28.2969" y2="28.2969"/><text fill="#000000" font-family="sans-serif" font-size="14" font-weight="bold" lengthAdjust="spacing" textLength="40" x="509" y="20.9951">bo4e</text></g><!--cluster com--><g id="cluster_com"><path d="M531.5,49 L610.5,49 A3.75,3.75 0 0 1 613,51.5 L620,71.2969 L734.5,71.2969 A2.5,2.5 0 0 1 737,73.7969 L737,208.5 A2.5,2.5 0 0 1 734.5,211 L531.5,211 A2.5,2.5 0 0 1 529,208.5 L529,51.5 A2.5,2.5 0 0 1 531.5,49 " fill="#E0A86C" style="stroke:#000000;stroke-width:1.5;"/><line style="stroke:#000000;stroke-width:1.5;" x1="529" x2="620" y1="71.2969" y2="71.2969"/><a href="https://bo4e.github.io/BO4E-python/v202401.6.0/api/bo4e.com.html" target="_top" title="https://bo4e.github.io/BO4E-python/v202401.6.0/api/bo4e.com.html" xlink:actuate="onRequest" xlink:href="https://bo4e.github.io/BO4E-python/v202401.6.0/api/bo4e.com.html" xlink:show="new" xlink:title="https://bo4e.github.io/BO4E-python/v202401.6.0/api/bo4e.com.html" xlink:type="simple"><text fill="#0000FF" font-family="sans-serif" font-size="14" font-weight="bold" lengthAdjust="spacing" text-decoration="underline" textLength="78" x="533" y="63.9951">bo4e.com</text></a></g><!--class Preisgarantie--><g id="elem_Preisgarantie"><rect codeLine="10" fill="#F1F1F1" height="37.9375" id="Preisgarantie" rx="2.5" ry="2.5" style="stroke:#181818;stroke-width:0.5;" width="146" x="560" y="84.03"/><ellipse cx="575" cy="102.9988" fill="#ADD1B2" rx="11" ry="11" style="stroke:#181818;stroke-width:1.0;"/><path d="M577.9688,108.6394 Q577.3906,108.9363 576.75,109.0769 Q576.1094,109.2331 575.4063,109.2331 Q572.9063,109.2331 571.5781,107.5925 Q570.2656,105.9363 570.2656,102.8113 Q570.2656,99.6863 571.5781,98.03 Q572.9063,96.3738 575.4063,96.3738 Q576.1094,96.3738 576.75,96.53 Q577.4063,96.6863 577.9688,96.9831 L577.9688,99.7019 Q577.3438,99.1238 576.75,98.8581 Q576.1563,98.5769 575.5313,98.5769 Q574.1875,98.5769 573.5,99.655 Q572.8125,100.7175 572.8125,102.8113 Q572.8125,104.905 573.5,105.9831 Q574.1875,107.0456 575.5313,107.0456 Q576.1563,107.0456 576.75,106.78 Q577.3438,106.4988 577.9688,105.9206 L577.9688,108.6394 Z " fill="#000000"/><a href="https://bo4e.github.io/BO4E-python/v202401.6.0/api/bo4e.com.html#bo4e.com.preisgarantie.Preisgarantie" target="_top" title="https://bo4e.github.io/BO4E-python/v202401.6.0/api/bo4e.com.html#bo4e.com.preisgarantie.Preisgarantie" xlink:actuate="onRequest" xlink:href="https://bo4e.github.io/BO4E-python/v202401.6.0/api/bo4e.com.html#bo4e.com.preisgarantie.Preisgarantie" xlink:show="new" xlink:title="https://bo4e.github.io/BO4E-python/v202401.6.0/api/bo4e.com.html#bo4e.com.preisgarantie.Preisgarantie" xlink:type="simple"><text fill="#0000FF" font-family="sans-serif" font-size="14" lengthAdjust="spacing" text-decoration="underline" textLength="90" x="601" y="102.0251">Preisgarantie</text></a><text fill="#000000" font-family="sans-serif" font-size="10" lengthAdjust="spacing" textLength="114" x="589" y="114.6091">bo4e.com.preisgarantie</text></g><!--class RegionaleGueltigkeit--><g id="elem_RegionaleGueltigkeit"><rect codeLine="11" fill="#F1F1F1" height="37.9375" id="RegionaleGueltigkeit" rx="2.5" ry="2.5" style="stroke:#181818;stroke-width:0.5;" width="176" x="545" y="157.03"/><ellipse cx="560" cy="175.9988" fill="#ADD1B2" rx="11" ry="11" style="stroke:#181818;stroke-width:1.0;"/><path d="M562.9688,181.6394 Q562.3906,181.9363 561.75,182.0769 Q561.1094,182.2331 560.4063,182.2331 Q557.9063,182.2331 556.5781,180.5925 Q555.2656,178.9363 555.2656,175.8113 Q555.2656,172.6863 556.5781,171.03 Q557.9063,169.3738 560.4063,169.3738 Q561.1094,169.3738 561.75,169.53 Q562.4063,169.6863 562.9688,169.9831 L562.9688,172.7019 Q562.3438,172.1238 561.75,171.8581 Q561.1563,171.5769 560.5313,171.5769 Q559.1875,171.5769 558.5,172.655 Q557.8125,173.7175 557.8125,175.8113 Q557.8125,177.905 558.5,178.9831 Q559.1875,180.0456 560.5313,180.0456 Q561.1563,180.0456 561.75,179.78 Q562.3438,179.4988 562.9688,178.9206 L562.9688,181.6394 Z " fill="#000000"/><a href="https://bo4e.github.io/BO4E-python/v202401.6.0/api/bo4e.com.html#bo4e.com.regionalegueltigkeit.RegionaleGueltigkeit" target="_top" title="https://bo4e.github.io/BO4E-python/v202401.6.0/api/bo4e.com.html#bo4e.com.regionalegueltigkeit.RegionaleGueltigkeit" xlink:actuate="onRequest" xlink:href="https://bo4e.github.io/BO4E-python/v202401.6.0/api/bo4e.com.html#bo4e.com.regionalegueltigkeit.RegionaleGueltigkeit" xlink:show="new" xlink:title="https://bo4e.github.io/BO4E-python/v202401.6.0/api/bo4e.com.html#bo4e.com.regionalegueltigkeit.RegionaleGueltigkeit" xlink:type="simple"><text fill="#0000FF" font-family="sans-serif" font-size="14" lengthAdjust="spacing" text-decoration="underline" textLength="143" x="574.5" y="175.0251">RegionaleGueltigkeit</text></a><text fill="#000000" font-family="sans-serif" font-size="10" lengthAdjust="spacing" textLength="144" x="574" y="187.6091">bo4e.com.regionalegueltigkeit</text></g><!--class RegionalePreisgarantie--><g id="elem_RegionalePreisgarantie"><rect codeLine="3" fill="#F1F1F1" height="94.8281" id="RegionalePreisgarantie" rx="2.5" ry="2.5" style="stroke:#181818;stroke-width:0.5;" width="323" x="7" y="92.59"/><ellipse cx="84.75" cy="111.5588" fill="#ADD1B2" rx="11" ry="11" style="stroke:#181818;stroke-width:1.0;"/><path d="M87.7188,117.1994 Q87.1406,117.4963 86.5,117.6369 Q85.8594,117.7931 85.1563,117.7931 Q82.6563,117.7931 81.3281,116.1525 Q80.0156,114.4963 80.0156,111.3713 Q80.0156,108.2463 81.3281,106.59 Q82.6563,104.9338 85.1563,104.9338 Q85.8594,104.9338 86.5,105.09 Q87.1563,105.2463 87.7188,105.5431 L87.7188,108.2619 Q87.0938,107.6838 86.5,107.4181 Q85.9063,107.1369 85.2813,107.1369 Q83.9375,107.1369 83.25,108.215 Q82.5625,109.2775 82.5625,111.3713 Q82.5625,113.465 83.25,114.5431 Q83.9375,115.6056 85.2813,115.6056 Q85.9063,115.6056 86.5,115.34 Q87.0938,115.0588 87.7188,114.4806 L87.7188,117.1994 Z " fill="#000000"/><a href="https://bo4e.github.io/BO4E-python/v202401.6.0/api/bo4e.com.html#bo4e.com.regionalepreisgarantie.RegionalePreisgarantie" target="_top" title="https://bo4e.github.io/BO4E-python/v202401.6.0/api/bo4e.com.html#bo4e.com.regionalepreisgarantie.RegionalePreisgarantie" xlink:actuate="onRequest" xlink:href="https://bo4e.github.io/BO4E-python/v202401.6.0/api/bo4e.com.html#bo4e.com.regionalepreisgarantie.RegionalePreisgarantie" xlink:show="new" xlink:title="https://bo4e.github.io/BO4E-python/v202401.6.0/api/bo4e.com.html#bo4e.com.regionalepreisgarantie.RegionalePreisgarantie" xlink:type="simple"><text fill="#0000FF" font-family="sans-serif" font-size="14" lengthAdjust="spacing" text-decoration="underline" textLength="159" x="105.25" y="110.5851">RegionalePreisgarantie</text></a><text fill="#000000" font-family="sans-serif" font-size="10" lengthAdjust="spacing" textLength="158" x="105.75" y="123.1691">bo4e.com.regionalepreisgarantie</text><line style="stroke:#181818;stroke-width:0.5;" x1="8" x2="329" y1="130.5275" y2="130.5275"/><text fill="#000000" font-family="sans-serif" font-size="14" lengthAdjust="spacing" textLength="228" x="13" y="147.5226">_version : str [0..1] = 202401.6.0</text><text fill="#000000" font-family="sans-serif" font-size="14" lengthAdjust="spacing" textLength="147" x="13" y="163.8195">_id : str [0..1] = None</text><text fill="#000000" font-family="sans-serif" font-size="14" lengthAdjust="spacing" textLength="311" x="13" y="180.1164">zusatzAttribute : ZusatzAttribut [0..*] = None</text></g><!--link RegionalePreisgarantie to Preisgarantie--><g id="link_RegionalePreisgarantie_Preisgarantie"><path codeLine="14" d="M330.29,127.14 C408.4,120.89 480.4174,115.1259 541.6474,110.2259 " fill="none" id="RegionalePreisgarantie-to-Preisgarantie" style="stroke:#181818;stroke-width:1.0;"/><polygon fill="none" points="559.59,108.79,541.1687,104.245,542.126,116.2068,559.59,108.79" style="stroke:#181818;stroke-width:1.0;"/></g><!--link RegionalePreisgarantie to RegionaleGueltigkeit--><g id="link_RegionalePreisgarantie_RegionaleGueltigkeit"><path codeLine="15" d="M330.34,152.68 C340.37,153.47 350.33,154.25 360,155 C421.74,159.81 479.4055,164.2683 532.7555,168.3783 " fill="none" id="RegionalePreisgarantie-to-RegionaleGueltigkeit" style="stroke:#181818;stroke-width:1.0;"/><polygon fill="#181818" points="544.72,169.3,539.045,164.851,532.7555,168.3783,538.4305,172.8273,544.72,169.3" style="stroke:#181818;stroke-width:1.0;"/><text fill="#000000" font-family="sans-serif" font-size="13" lengthAdjust="spacing" textLength="127" x="361" y="151.0669">regionaleGueltigkeit</text><text fill="#000000" font-family="sans-serif" font-size="13" lengthAdjust="spacing" textLength="24" x="513.0423" y="181.4333">0..1</text></g><!--SRC=[jLB1Ji9043spNp4fDnAsXH1Y6YL1GxofyIWsPjiExSQss-nECQB-kmL2IxKD7kGuRz-ydPdt4bmHa08jevWWb1e3aYfZB4Y4CM0jbp5HRbpRzjK4UIGfBdmkbNrzFraCytUALMQlnyvuuepub3ksoEMU6gYKnvGc_QhI69NI8i5SepIHq28ZYVpn03ySmz0EUzvpTcda1jsHCpkXR84m7JBmmNelQzIcV0CN36bOEfoFFBY2UfcI8yEVptSgGzRR54RGPawafLyGbgId1hBZ3oh-5sEPID7a8i3_E2eSAi_RRNaeeRzmvXVJc-r-Pt2mQLpped-mwRSxZQQpZ5n58oem8HczegGwShSr26tWYRWTQJR3TYInzRuhuyFXvwpohddFpfwoQG3MDerMtTgwa0kwRHuMon0XnTGlyyzChDwWww-Ln2Gqtm00]--></g></svg>