<?xml version="1.0" encoding="us-ascii" standalone="no"?><svg xmlns="http://www.w3.org/2000/svg" xmlns:xlink="http://www.w3.org/1999/xlink" contentStyleType="text/css" height="355px" preserveAspectRatio="none" style="width:620px;height:355px;background:#FFFFFF;" version="1.1" viewBox="0 0 620 355" width="620px" zoomAndPan="magnify"><defs/><g><!--cluster bo4e--><g id="cluster_bo4e"><path d="M351.5,6 L392.5,6 A3.75,3.75 0 0 1 395,8.5 L402,28.2969 L610.5,28.2969 A2.5,2.5 0 0 1 613,30.7969 L613,345.5 A2.5,2.5 0 0 1 610.5,348 L351.5,348 A2.5,2.5 0 0 1 349,345.5 L349,8.5 A2.5,2.5 0 0 1 351.5,6 " fill="none" style="stroke:#000000;stroke-width:1.5;"/><line style="stroke:#000000;stroke-width:1.5;" x1="349" x2="402" y1="28.2969" y2="28.2969"/><text fill="#000000" font-family="sans-serif" font-size="14" font-weight="bold" lengthAdjust="spacing" textLength="40" x="353" y="20.9951">bo4e</text></g><!--cluster com--><g id="cluster_com"><path d="M415.5,49 L494.5,49 A3.75,3.75 0 0 1 497,51.5 L504,71.2969 L546.5,71.2969 A2.5,2.5 0 0 1 549,73.7969 L549,135.5 A2.5,2.5 0 0 1 546.5,138 L415.5,138 A2.5,2.5 0 0 1 413,135.5 L413,51.5 A2.5,2.5 0 0 1 415.5,49 " fill="#E0A86C" style="stroke:#000000;stroke-width:1.5;"/><line style="stroke:#000000;stroke-width:1.5;" x1="413" x2="504" y1="71.2969" y2="71.2969"/><a href="https://bo4e.github.io/BO4E-python/v202401.6.0/api/bo4e.com.html" target="_top" title="https://bo4e.github.io/BO4E-python/v202401.6.0/api/bo4e.com.html" xlink:actuate="onRequest" xlink:href="https://bo4e.github.io/BO4E-python/v202401.6.0/api/bo4e.com.html" xlink:show="new" xlink:title="https://bo4e.github.io/BO4E-python/v202401.6.0/api/bo4e.com.html" xlink:type="simple"><text fill="#0000FF" font-family="sans-serif" font-size="14" font-weight="bold" lengthAdjust="spacing" text-decoration="underline" textLength="78" x="417" y="63.9951">bo4e.com</text></a></g><!--cluster enum--><g id="cluster_enum"><path d="M375.5,162 L465.5,162 A3.75,3.75 0 0 1 468,164.5 L475,184.2969 L586.5,184.2969 A2.5,2.5 0 0 1 589,186.7969 L589,321.5 A2.5,2.5 0 0 1 586.5,324 L375.5,324 A2.5,2.5 0 0 1 373,321.5 L373,164.5 A2.5,2.5 0 0 1 375.5,162 " fill="#D1C358" style="stroke:#000000;stroke-width:1.5;"/><line style="stroke:#000000;stroke-width:1.5;" x1="373" x2="475" y1="184.2969" y2="184.2969"/><a href="https://bo4e.github.io/BO4E-python/v202401.6.0/api/bo4e.enum.html" target="_top" title="https://bo4e.github.io/BO4E-python/v202401.6.0/api/bo4e.enum.html" xlink:actuate="onRequest" xlink:href="https://bo4e.github.io/BO4E-python/v202401.6.0/api/bo4e.enum.html" xlink:show="new" xlink:title="https://bo4e.github.io/BO4E-python/v202401.6.0/api/bo4e.enum.html" xlink:type="simple"><text fill="#0000FF" font-family="sans-serif" font-size="14" font-weight="bold" lengthAdjust="spacing" text-decoration="underline" textLength="89" x="377" y="176.9951">bo4e.enum</text></a></g><!--class COM--><g id="elem_COM"><rect codeLine="8" fill="#F1F1F1" height="37.9375" id="COM" rx="2.5" ry="2.5" style="stroke:#181818;stroke-width:0.5;" width="104" x="429" y="84.03"/><ellipse cx="444" cy="102.9987" fill="#ADD1B2" rx="11" ry="11" style="stroke:#181818;stroke-width:1.0;"/><path d="M446.9688,108.6394 Q446.3906,108.9362 445.75,109.0769 Q445.1094,109.2331 444.4063,109.2331 Q441.9063,109.2331 440.5781,107.5925 Q439.2656,105.9362 439.2656,102.8112 Q439.2656,99.6862 440.5781,98.03 Q441.9063,96.3737 444.4063,96.3737 Q445.1094,96.3737 445.75,96.53 Q446.4063,96.6862 446.9688,96.9831 L446.9688,99.7019 Q446.3438,99.1237 445.75,98.8581 Q445.1563,98.5769 444.5313,98.5769 Q443.1875,98.5769 442.5,99.655 Q441.8125,100.7175 441.8125,102.8112 Q441.8125,104.905 442.5,105.9831 Q443.1875,107.0456 444.5313,107.0456 Q445.1563,107.0456 445.75,106.78 Q446.3438,106.4987 446.9688,105.9206 L446.9688,108.6394 Z " fill="#000000"/><a href="https://bo4e.github.io/BO4E-python/v202401.6.0/api/bo4e.com.html#bo4e.com.com.COM" target="_top" title="https://bo4e.github.io/BO4E-python/v202401.6.0/api/bo4e.com.html#bo4e.com.com.COM" xlink:actuate="onRequest" xlink:href="https://bo4e.github.io/BO4E-python/v202401.6.0/api/bo4e.com.html#bo4e.com.com.COM" xlink:show="new" xlink:title="https://bo4e.github.io/BO4E-python/v202401.6.0/api/bo4e.com.html#bo4e.com.com.COM" xlink:type="simple"><text fill="#0000FF" font-family="sans-serif" font-size="14" lengthAdjust="spacing" text-decoration="underline" textLength="33" x="477.5" y="102.0251">COM</text></a><text fill="#000000" font-family="sans-serif" font-size="10" lengthAdjust="spacing" textLength="72" x="458" y="114.6091">bo4e.com.com</text></g><!--class Gueltigkeitstyp--><g id="elem_Gueltigkeitstyp"><rect codeLine="11" fill="#F1F1F1" height="37.9375" id="Gueltigkeitstyp" rx="2.5" ry="2.5" style="stroke:#181818;stroke-width:0.5;" width="160" x="401" y="197.03"/><ellipse cx="416" cy="215.9988" fill="#ADD1B2" rx="11" ry="11" style="stroke:#181818;stroke-width:1.0;"/><path d="M418.9688,221.6394 Q418.3906,221.9363 417.75,222.0769 Q417.1094,222.2331 416.4063,222.2331 Q413.9063,222.2331 412.5781,220.5925 Q411.2656,218.9363 411.2656,215.8113 Q411.2656,212.6863 412.5781,211.03 Q413.9063,209.3738 416.4063,209.3738 Q417.1094,209.3738 417.75,209.53 Q418.4063,209.6863 418.9688,209.9831 L418.9688,212.7019 Q418.3438,212.1238 417.75,211.8581 Q417.1563,211.5769 416.5313,211.5769 Q415.1875,211.5769 414.5,212.655 Q413.8125,213.7175 413.8125,215.8113 Q413.8125,217.905 414.5,218.9831 Q415.1875,220.0456 416.5313,220.0456 Q417.1563,220.0456 417.75,219.78 Q418.3438,219.4988 418.9688,218.9206 L418.9688,221.6394 Z " fill="#000000"/><a href="https://bo4e.github.io/BO4E-python/v202401.6.0/api/bo4e.enum.html#bo4e.enum.gueltigkeitstyp.Gueltigkeitstyp" target="_top" title="https://bo4e.github.io/BO4E-python/v202401.6.0/api/bo4e.enum.html#bo4e.enum.gueltigkeitstyp.Gueltigkeitstyp" xlink:actuate="onRequest" xlink:href="https://bo4e.github.io/BO4E-python/v202401.6.0/api/bo4e.enum.html#bo4e.enum.gueltigkeitstyp.Gueltigkeitstyp" xlink:show="new" xlink:title="https://bo4e.github.io/BO4E-python/v202401.6.0/api/bo4e.enum.html#bo4e.enum.gueltigkeitstyp.Gueltigkeitstyp" xlink:type="simple"><text fill="#0000FF" font-family="sans-serif" font-size="14" lengthAdjust="spacing" text-decoration="underline" textLength="103" x="442.5" y="215.0251">Gueltigkeitstyp</text></a><text fill="#000000" font-family="sans-serif" font-size="10" lengthAdjust="spacing" textLength="128" x="430" y="227.6091">bo4e.enum.gueltigkeitstyp</text></g><!--class Regionskriteriumtyp--><g id="elem_Regionskriteriumtyp"><rect codeLine="12" fill="#F1F1F1" height="37.9375" id="Regionskriteriumtyp" rx="2.5" ry="2.5" style="stroke:#181818;stroke-width:0.5;" width="184" x="389" y="270.03"/><ellipse cx="404" cy="288.9988" fill="#ADD1B2" rx="11" ry="11" style="stroke:#181818;stroke-width:1.0;"/><path d="M406.9688,294.6394 Q406.3906,294.9363 405.75,295.0769 Q405.1094,295.2331 404.4063,295.2331 Q401.9063,295.2331 400.5781,293.5925 Q399.2656,291.9363 399.2656,288.8113 Q399.2656,285.6863 400.5781,284.03 Q401.9063,282.3738 404.4063,282.3738 Q405.1094,282.3738 405.75,282.53 Q406.4063,282.6863 406.9688,282.9831 L406.9688,285.7019 Q406.3438,285.1238 405.75,284.8581 Q405.1563,284.5769 404.5313,284.5769 Q403.1875,284.5769 402.5,285.655 Q401.8125,286.7175 401.8125,288.8113 Q401.8125,290.905 402.5,291.9831 Q403.1875,293.0456 404.5313,293.0456 Q405.1563,293.0456 405.75,292.78 Q406.3438,292.4988 406.9688,291.9206 L406.9688,294.6394 Z " fill="#000000"/><a href="https://bo4e.github.io/BO4E-python/v202401.6.0/api/bo4e.enum.html#bo4e.enum.regionskriteriumtyp.Regionskriteriumtyp" target="_top" title="https://bo4e.github.io/BO4E-python/v202401.6.0/api/bo4e.enum.html#bo4e.enum.regionskriteriumtyp.Regionskriteriumtyp" xlink:actuate="onRequest" xlink:href="https://bo4e.github.io/BO4E-python/v202401.6.0/api/bo4e.enum.html#bo4e.enum.regionskriteriumtyp.Regionskriteriumtyp" xlink:show="new" xlink:title="https://bo4e.github.io/BO4E-python/v202401.6.0/api/bo4e.enum.html#bo4e.enum.regionskriteriumtyp.Regionskriteriumtyp" xlink:type="simple"><text fill="#0000FF" font-family="sans-serif" font-size="14" lengthAdjust="spacing" text-decoration="underline" textLength="138" x="425" y="288.0251">Regionskriteriumtyp</text></a><text fill="#000000" font-family="sans-serif" font-size="10" lengthAdjust="spacing" textLength="152" x="418" y="300.6091">bo4e.enum.regionskriteriumtyp</text></g><!--class Regionskriterium--><g id="elem_Regionskriterium"><rect codeLine="3" fill="#F1F1F1" height="62.2344" id="Regionskriterium" rx="2.5" ry="2.5" style="stroke:#181818;stroke-width:0.5;" width="170" x="7" y="184.88"/><ellipse cx="26.05" cy="203.8488" fill="#ADD1B2" rx="11" ry="11" style="stroke:#181818;stroke-width:1.0;"/><path d="M29.0188,209.4894 Q28.4406,209.7863 27.8,209.9269 Q27.1594,210.0831 26.4563,210.0831 Q23.9563,210.0831 22.6281,208.4425 Q21.3156,206.7863 21.3156,203.6613 Q21.3156,200.5363 22.6281,198.88 Q23.9563,197.2238 26.4563,197.2238 Q27.1594,197.2238 27.8,197.38 Q28.4563,197.5363 29.0188,197.8331 L29.0188,200.5519 Q28.3938,199.9738 27.8,199.7081 Q27.2063,199.4269 26.5813,199.4269 Q25.2375,199.4269 24.55,200.505 Q23.8625,201.5675 23.8625,203.6613 Q23.8625,205.755 24.55,206.8331 Q25.2375,207.8956 26.5813,207.8956 Q27.2063,207.8956 27.8,207.63 Q28.3938,207.3488 29.0188,206.7706 L29.0188,209.4894 Z " fill="#000000"/><a href="https://bo4e.github.io/BO4E-python/v202401.6.0/api/bo4e.com.html#bo4e.com.regionskriterium.Regionskriterium" target="_top" title="https://bo4e.github.io/BO4E-python/v202401.6.0/api/bo4e.com.html#bo4e.com.regionskriterium.Regionskriterium" xlink:actuate="onRequest" xlink:href="https://bo4e.github.io/BO4E-python/v202401.6.0/api/bo4e.com.html#bo4e.com.regionskriterium.Regionskriterium" xlink:show="new" xlink:title="https://bo4e.github.io/BO4E-python/v202401.6.0/api/bo4e.com.html#bo4e.com.regionskriterium.Regionskriterium" xlink:type="simple"><text fill="#0000FF" font-family="sans-serif" font-size="14" lengthAdjust="spacing" text-decoration="underline" textLength="117" x="46.95" y="202.8751">Regionskriterium</text></a><text fill="#000000" font-family="sans-serif" font-size="10" lengthAdjust="spacing" textLength="129" x="40.95" y="215.4591">bo4e.com.regionskriterium</text><line style="stroke:#181818;stroke-width:0.5;" x1="8" x2="176" y1="222.8175" y2="222.8175"/><text fill="#000000" font-family="sans-serif" font-size="14" lengthAdjust="spacing" textLength="158" x="13" y="239.8126">wert : str [0..1] = None</text></g><!--link Regionskriterium to COM--><g id="link_Regionskriterium_COM"><path codeLine="15" d="M177.45,191.34 C254.07,168.97 347.2712,141.7542 411.3612,123.0442 " fill="none" id="Regionskriterium-to-COM" style="stroke:#181818;stroke-width:1.0;"/><polygon fill="none" points="428.64,118,409.6798,117.2847,413.0427,128.8038,428.64,118" style="stroke:#181818;stroke-width:1.0;"/></g><!--link Regionskriterium to Gueltigkeitstyp--><g id="link_Regionskriterium_Gueltigkeitstyp"><path codeLine="16" d="M177.45,216 C243.84,216 323.65,216 388.68,216 " fill="none" id="Regionskriterium-to-Gueltigkeitstyp" style="stroke:#181818;stroke-width:1.0;"/><polygon fill="#181818" points="400.68,216,394.68,212,388.68,216,394.68,220,400.68,216" style="stroke:#181818;stroke-width:1.0;"/><text fill="#000000" font-family="sans-serif" font-size="13" lengthAdjust="spacing" textLength="93" x="223.5" y="212.0669">gueltigkeitstyp</text><text fill="#000000" font-family="sans-serif" font-size="13" lengthAdjust="spacing" textLength="24" x="369.0348" y="228.6936">0..1</text></g><!--link Regionskriterium to Regionskriteriumtyp--><g id="link_Regionskriterium_Regionskriteriumtyp"><path codeLine="17" d="M177.27,234.9 C187.28,237.02 197.36,239.1 207,241 C267.31,252.91 323.5791,262.8825 376.6791,271.8925 " fill="none" id="Regionskriterium-to-Regionskriteriumtyp" style="stroke:#181818;stroke-width:1.0;"/><polygon fill="#181818" points="388.51,273.9,383.2637,268.9526,376.6791,271.8925,381.9254,276.8399,388.51,273.9" style="stroke:#181818;stroke-width:1.0;"/><text fill="#000000" font-family="sans-serif" font-size="13" lengthAdjust="spacing" textLength="124" x="208" y="237.0669">regionskriteriumtyp</text><text fill="#000000" font-family="sans-serif" font-size="13" lengthAdjust="spacing" textLength="24" x="357.163" y="285.4373">0..1</text></g><!--SRC=[jPDDRy8m38RFow-msjiaqfOnXAeDQKDefmrfLzP3QKqRqJPLaWwnZ_- -X8cFjK7Q0Gu-l9RZ-7dZ5BXKe3W8bkKAKYOmKOnNX2H5B2KuytckL2r3prlm0TACgRnPKCQznzbWsgitAkULzzxt-mC_e4FgUt7DVaiJNj9SbOMxLm8ptLgk15CeM5FIrrO2seaeUglk9Fl0CF379_iu4ClEKVWaLsiK2aAGIi3SfpI8u1vUU8Nacv0gBb7MSOBdO8ITYgBjC3i9xjH_60qdPfWB66fYCdi67NQdT6pdqGMQ-Ip8M3N7p4OUGniDRXeaDxUZir3lxtCFCckmK2nR8LDIRMhwz5T3ItUziNNPChHENcZ-zW8RXjTk3Yov4ooMZjPVOPZqydT_Ng_tDTwlhLagIuqkkWR7V2JdyDWTyqDe6VllJZOBGh2W4PAp5A74Se524fdpDNGlMJ8iKla3]--></g></svg>