<svg xmlns="http://www.w3.org/2000/svg" xmlns:xlink="http://www.w3.org/1999/xlink" contentStyleType="text/css" data-diagram-type="CLASS" height="290px" preserveAspectRatio="none" style="width:672px;height:290px;background:#FFFFFF;" version="1.1" viewBox="0 0 672 290" width="672px" zoomAndPan="magnify"><?plantuml 1.2026.6?><defs/><g><!--cluster bo4e--><g class="cluster" data-qualified-name="bo4e" data-source-line="12" id="ent0004"><path d="M431.73,6 L471.606,6 A3.75,3.75 0 0 1 474.106,8.5 L481.106,28.2969 L654.99,28.2969 A2.5,2.5 0 0 1 657.49,30.7969 L657.49,272.5 A2.5,2.5 0 0 1 654.99,275 L431.73,275 A2.5,2.5 0 0 1 429.23,272.5 L429.23,8.5 A2.5,2.5 0 0 1 431.73,6" fill="none" style="stroke:#000000;stroke-width:1.5;"/><line style="stroke:#000000;stroke-width:1.5;" x1="429.23" x2="481.106" y1="28.2969" y2="28.2969"/><text fill="#000000" font-family="sans-serif" font-size="14" font-weight="700" lengthAdjust="spacing" textLength="38.876" x="433.23" y="20.9951">bo4e</text></g><!--cluster bo--><g class="cluster" data-qualified-name="bo4e.bo" data-source-line="11" id="ent0002"><path d="M455.73,49 L520.564,49 A3.75,3.75 0 0 1 523.064,51.5 L530.064,71.2969 L630.99,71.2969 A2.5,2.5 0 0 1 633.49,73.7969 L633.49,135.5 A2.5,2.5 0 0 1 630.99,138 L455.73,138 A2.5,2.5 0 0 1 453.23,135.5 L453.23,51.5 A2.5,2.5 0 0 1 455.73,49" fill="#B6D7A8" style="stroke:#000000;stroke-width:1.5;"/><line style="stroke:#000000;stroke-width:1.5;" x1="453.23" x2="530.064" y1="71.2969" y2="71.2969"/><text fill="#000000" font-family="sans-serif" font-size="14" font-weight="700" lengthAdjust="spacing" textLength="63.834" x="457.23" y="63.9951">bo4e.bo</text></g><!--cluster com--><g class="cluster" data-qualified-name="bo4e.com" data-source-line="20" id="ent0005"><path d="M459.17,162 L536.8692,162 A3.75,3.75 0 0 1 539.3692,164.5 L546.3692,184.2969 L627.55,184.2969 A2.5,2.5 0 0 1 630.05,186.7969 L630.05,248.5 A2.5,2.5 0 0 1 627.55,251 L459.17,251 A2.5,2.5 0 0 1 456.67,248.5 L456.67,164.5 A2.5,2.5 0 0 1 459.17,162" fill="#E0A86C" style="stroke:#000000;stroke-width:1.5;"/><line style="stroke:#000000;stroke-width:1.5;" x1="456.67" x2="546.3692" y1="184.2969" y2="184.2969"/><text fill="#000000" font-family="sans-serif" font-size="14" font-weight="700" lengthAdjust="spacing" textLength="76.6992" x="460.67" y="176.9951">bo4e.com</text></g><!--class Marktteilnehmer--><g class="entity" data-qualified-name="bo4e.bo.Marktteilnehmer" data-source-line="12" id="ent0003"><rect fill="#F1F1F1" height="37.9375" rx="2.5" ry="2.5" style="stroke:#181818;stroke-width:0.5;" width="148.2588" x="469.23" y="84.03"/><ellipse cx="484.23" cy="102.9988" fill="#ADD1B2" rx="11" ry="11" style="stroke:#181818;stroke-width:1;"/><path d="M487.1988,108.6394 Q486.6206,108.9363 485.98,109.0769 Q485.3394,109.2331 484.6363,109.2331 Q482.1363,109.2331 480.8081,107.5925 Q479.4956,105.9363 479.4956,102.8113 Q479.4956,99.6863 480.8081,98.03 Q482.1363,96.3738 484.6363,96.3738 Q485.3394,96.3738 485.98,96.53 Q486.6363,96.6863 487.1988,96.9831 L487.1988,99.7019 Q486.5738,99.1238 485.98,98.8581 Q485.3863,98.5769 484.7613,98.5769 Q483.4175,98.5769 482.73,99.655 Q482.0425,100.7175 482.0425,102.8113 Q482.0425,104.905 482.73,105.9831 Q483.4175,107.0456 484.7613,107.0456 Q485.3863,107.0456 485.98,106.78 Q486.5738,106.4988 487.1988,105.9206 L487.1988,108.6394 Z " fill="#000000"/><a href="https://bo4e.github.io/BO4E-python/v202607.1.0/api/bo4e.bo.html#module-bo4e.bo.marktteilnehmer" target="_top" title="https://bo4e.github.io/BO4E-python/v202607.1.0/api/bo4e.bo.html#module-bo4e.bo.marktteilnehmer" xlink:actuate="onRequest" xlink:href="https://bo4e.github.io/BO4E-python/v202607.1.0/api/bo4e.bo.html#module-bo4e.bo.marktteilnehmer" xlink:show="new" xlink:title="https://bo4e.github.io/BO4E-python/v202607.1.0/api/bo4e.bo.html#module-bo4e.bo.marktteilnehmer" xlink:type="simple"><text fill="#0000FF" font-family="sans-serif" font-size="14" lengthAdjust="spacing" text-decoration="underline" textLength="116.2588" x="498.23" y="102.0251">Marktteilnehmer</text></a><text fill="#000000" font-family="sans-serif" font-size="10" lengthAdjust="spacing" textLength="98.6865" x="507.0161" y="114.6091">bo.Marktteilnehmer</text></g><!--class Zaehlzeitsaison--><g class="entity" data-qualified-name="bo4e.com.Zaehlzeitsaison" data-source-line="21" id="ent0006"><rect fill="#F1F1F1" height="37.9375" rx="2.5" ry="2.5" style="stroke:#181818;stroke-width:0.5;" width="141.3818" x="472.67" y="197.03"/><ellipse cx="487.67" cy="215.9988" fill="#ADD1B2" rx="11" ry="11" style="stroke:#181818;stroke-width:1;"/><path d="M490.6388,221.6394 Q490.0606,221.9363 489.42,222.0769 Q488.7794,222.2331 488.0763,222.2331 Q485.5763,222.2331 484.2481,220.5925 Q482.9356,218.9363 482.9356,215.8113 Q482.9356,212.6863 484.2481,211.03 Q485.5763,209.3738 488.0763,209.3738 Q488.7794,209.3738 489.42,209.53 Q490.0763,209.6863 490.6388,209.9831 L490.6388,212.7019 Q490.0138,212.1238 489.42,211.8581 Q488.8263,211.5769 488.2013,211.5769 Q486.8575,211.5769 486.17,212.655 Q485.4825,213.7175 485.4825,215.8113 Q485.4825,217.905 486.17,218.9831 Q486.8575,220.0456 488.2013,220.0456 Q488.8263,220.0456 489.42,219.78 Q490.0138,219.4988 490.6388,218.9206 L490.6388,221.6394 Z " fill="#000000"/><a href="https://bo4e.github.io/BO4E-python/v202607.1.0/api/bo4e.com.html#module-bo4e.com.zaehlzeitsaison" target="_top" title="https://bo4e.github.io/BO4E-python/v202607.1.0/api/bo4e.com.html#module-bo4e.com.zaehlzeitsaison" xlink:actuate="onRequest" xlink:href="https://bo4e.github.io/BO4E-python/v202607.1.0/api/bo4e.com.html#module-bo4e.com.zaehlzeitsaison" xlink:show="new" xlink:title="https://bo4e.github.io/BO4E-python/v202607.1.0/api/bo4e.com.html#module-bo4e.com.zaehlzeitsaison" xlink:type="simple"><text fill="#0000FF" font-family="sans-serif" font-size="14" lengthAdjust="spacing" text-decoration="underline" textLength="109.3818" x="501.67" y="215.0251">Zaehlzeitsaison</text></a><text fill="#000000" font-family="sans-serif" font-size="10" lengthAdjust="spacing" textLength="102.666" x="505.0279" y="227.6091">com.Zaehlzeitsaison</text></g><!--class Zaehlzeitdefinition--><g class="entity" data-qualified-name="Zaehlzeitdefinition" data-source-line="3" id="ent0001"><rect fill="#F1F1F1" height="127.4219" rx="2.5" ry="2.5" style="stroke:#181818;stroke-width:0.5;" width="323.2266" x="7" y="96.29"/><ellipse cx="98.9707" cy="115.2587" fill="#ADD1B2" rx="11" ry="11" style="stroke:#181818;stroke-width:1;"/><path d="M101.9395,120.8994 Q101.3613,121.1962 100.7207,121.3369 Q100.0801,121.4931 99.377,121.4931 Q96.877,121.4931 95.5488,119.8525 Q94.2363,118.1962 94.2363,115.0712 Q94.2363,111.9462 95.5488,110.29 Q96.877,108.6337 99.377,108.6337 Q100.0801,108.6337 100.7207,108.79 Q101.377,108.9462 101.9395,109.2431 L101.9395,111.9619 Q101.3145,111.3837 100.7207,111.1181 Q100.127,110.8369 99.502,110.8369 Q98.1582,110.8369 97.4707,111.915 Q96.7832,112.9775 96.7832,115.0712 Q96.7832,117.165 97.4707,118.2431 Q98.1582,119.3056 99.502,119.3056 Q100.127,119.3056 100.7207,119.04 Q101.3145,118.7587 101.9395,118.1806 L101.9395,120.8994 Z " fill="#000000"/><a href="https://bo4e.github.io/BO4E-python/v202607.1.0/api/bo4e.bo.html#module-bo4e.bo.zaehlzeitdefinition" target="_top" title="https://bo4e.github.io/BO4E-python/v202607.1.0/api/bo4e.bo.html#module-bo4e.bo.zaehlzeitdefinition" xlink:actuate="onRequest" xlink:href="https://bo4e.github.io/BO4E-python/v202607.1.0/api/bo4e.bo.html#module-bo4e.bo.zaehlzeitdefinition" xlink:show="new" xlink:title="https://bo4e.github.io/BO4E-python/v202607.1.0/api/bo4e.bo.html#module-bo4e.bo.zaehlzeitdefinition" xlink:type="simple"><text fill="#0000FF" font-family="sans-serif" font-size="14" lengthAdjust="spacing" text-decoration="underline" textLength="130.7852" x="119.4707" y="114.2851">Zaehlzeitdefinition</text></a><text fill="#000000" font-family="sans-serif" font-size="10" lengthAdjust="spacing" textLength="109.0625" x="130.332" y="126.8691">bo.Zaehlzeitdefinition</text><line style="stroke:#181818;stroke-width:0.5;" x1="8" x2="329.2266" y1="134.2275" y2="134.2275"/><text fill="#000000" font-family="sans-serif" font-size="14" lengthAdjust="spacing" textLength="94.0215" x="13" y="151.2226">_id : str [0..1]</text><text fill="#000000" font-family="sans-serif" font-size="14" lengthAdjust="spacing" textLength="311.2266" x="13" y="167.5195">_typ : Literal["ZAEHLZEITDEFINITION"] [0..1]</text><text fill="#000000" font-family="sans-serif" font-size="14" lengthAdjust="spacing" textLength="132.5215" x="13" y="183.8164">_version : str [0..1]</text><text fill="#000000" font-family="sans-serif" font-size="14" lengthAdjust="spacing" textLength="197.6133" x="13" y="200.1132">feiertagskalender : str [0..1]</text><text fill="#000000" font-family="sans-serif" font-size="14" lengthAdjust="spacing" textLength="154.6563" x="13" y="216.4101">saisonprofil : str [0..1]</text></g><!--link Zaehlzeitdefinition to Marktteilnehmer--><g class="link" data-entity-1="ent0001" data-entity-2="ent0003" data-link-type="composition" data-source-line="29" id="lnk7"><path codeLine="29" d="M330.66,135.37 C378.9,128 417.5881,122.0852 457.1881,116.0252" fill="none" id="Zaehlzeitdefinition-to-Marktteilnehmer" style="stroke:#181818;stroke-width:1;"/><polygon fill="#181818" points="469.05,114.21,462.514,111.1636,457.1881,116.0252,463.7241,119.0716,469.05,114.21" style="stroke:#181818;stroke-width:1;stroke-linejoin:miter;stroke-miterlimit:10;"/><text fill="#000000" font-family="sans-serif" font-size="13" lengthAdjust="spacing" textLength="51.416" x="361.23" y="119.1269">urheber</text><text fill="#000000" font-family="sans-serif" font-size="13" lengthAdjust="spacing" textLength="24.8066" x="436.1909" y="128.2133">0..1</text></g><!--link Zaehlzeitdefinition to Zaehlzeitsaison--><g class="link" data-entity-1="ent0001" data-entity-2="ent0006" data-link-type="composition" data-source-line="30" id="lnk8"><path codeLine="30" d="M330.66,184.2 C380.28,191.65 420.4731,197.6876 460.5531,203.7076" fill="none" id="Zaehlzeitdefinition-to-Zaehlzeitsaison" style="stroke:#181818;stroke-width:1;"/><polygon fill="#181818" points="472.42,205.49,467.0807,200.6432,460.5531,203.7076,465.8924,208.5544,472.42,205.49" style="stroke:#181818;stroke-width:1;stroke-linejoin:miter;stroke-miterlimit:10;"/><text fill="#000000" font-family="sans-serif" font-size="13" lengthAdjust="spacing" textLength="48.0898" x="362.73" y="184.9069">saisons</text><text fill="#000000" font-family="sans-serif" font-size="13" lengthAdjust="spacing" textLength="23.0356" x="441.564" y="217.2765">0..*</text></g><?plantuml-src jLJVRvim47xdhx38MwG0gQgqGbCbkZ8LBKcbDazXqMJWYAtu1x9DfsRg_rvJs2eWghffWnVkk-_Et7rtPb0QP2HIT4yCAgY2t50f72TdM6lafYanfjAXxsVo7BmzDQJEF2hzwxlpU5Oz6IA5_tWMd2s22s_k1JwkQ4lDf4SCPnCkYvh1x1Tsn43O4QWfeAI2DeUXxHZRxRw9JveU8Pm7LpRi1CL5M9yAHJyTP9_lj40XqaQXDF2y-Qu5pLDbqIKre31BtMqKtowtSRAvYRyawsIJtAtTNI_W4PHkaevIbK116RpN1yn05A3658sfbg9IigIixtrs784vw0hdWDokDwy5TTzeShsukOWkksB-bneSguCnG9a0mcq9gxuzL67WVltX0VOdtLz5zrytcpXPhkFRLNp_qSvpV92uKA0rM2UZsgIMqGPFMugIp8gIom94pVbGcsVx3jkVI_xMVskWIHn4bulF_qe0ctAiG0F-NeXsMjuckhLx4ZJyWR-_1LsElzc0XoXv-FZqPs2FoucenNxSM-VKLivcK-Gs77SqCY6g5O4CrBk1KtTKPzYjc7OSGWj07BZDeXrDv0zqwiv09GLMw1S0?></g></svg>