<svg xmlns="http://www.w3.org/2000/svg" xmlns:xlink="http://www.w3.org/1999/xlink" contentStyleType="text/css" data-diagram-type="CLASS" height="247px" preserveAspectRatio="none" style="width:578px;height:247px;background:#FFFFFF;" version="1.1" viewBox="0 0 578 247" width="578px" zoomAndPan="magnify"><?plantuml 1.2026.6?><defs/><g><!--cluster bo4e--><g class="cluster" data-qualified-name="bo4e" data-source-line="18" id="ent0004"><path d="M362.24,22.6 L402.116,22.6 A3.75,3.75 0 0 1 404.616,25.1 L411.616,44.8969 L560.85,44.8969 A2.5,2.5 0 0 1 563.35,47.3969 L563.35,176.1 A2.5,2.5 0 0 1 560.85,178.6 L362.24,178.6 A2.5,2.5 0 0 1 359.74,176.1 L359.74,25.1 A2.5,2.5 0 0 1 362.24,22.6" fill="none" style="stroke:#000000;stroke-width:1.5;"/><line style="stroke:#000000;stroke-width:1.5;" x1="359.74" x2="411.616" y1="44.8969" y2="44.8969"/><text fill="#000000" font-family="sans-serif" font-size="14" font-weight="700" lengthAdjust="spacing" textLength="38.876" x="363.74" y="37.5951">bo4e</text></g><!--cluster enum--><g class="cluster" data-qualified-name="bo4e.enum" data-source-line="17" id="ent0002"><path d="M386.24,65.6 L475.4509,65.6 A3.75,3.75 0 0 1 477.9509,68.1 L484.9509,87.8969 L536.85,87.8969 A2.5,2.5 0 0 1 539.35,90.3969 L539.35,152.1 A2.5,2.5 0 0 1 536.85,154.6 L386.24,154.6 A2.5,2.5 0 0 1 383.74,152.1 L383.74,68.1 A2.5,2.5 0 0 1 386.24,65.6" fill="#D1C358" style="stroke:#000000;stroke-width:1.5;"/><line style="stroke:#000000;stroke-width:1.5;" x1="383.74" x2="484.9509" y1="87.8969" y2="87.8969"/><text fill="#000000" font-family="sans-serif" font-size="14" font-weight="700" lengthAdjust="spacing" textLength="88.2109" x="387.74" y="80.5951">bo4e.enum</text></g><!--class Landescode--><g class="entity" data-qualified-name="bo4e.enum.Landescode" data-source-line="18" id="ent0003"><rect fill="#F1F1F1" height="37.9375" rx="2.5" ry="2.5" style="stroke:#181818;stroke-width:0.5;" width="123.6113" x="399.74" y="100.63"/><ellipse cx="414.74" cy="119.5988" fill="#ADD1B2" rx="11" ry="11" style="stroke:#181818;stroke-width:1;"/><path d="M417.7088,125.2394 Q417.1306,125.5363 416.49,125.6769 Q415.8494,125.8331 415.1463,125.8331 Q412.6463,125.8331 411.3181,124.1925 Q410.0056,122.5363 410.0056,119.4113 Q410.0056,116.2863 411.3181,114.63 Q412.6463,112.9738 415.1463,112.9738 Q415.8494,112.9738 416.49,113.13 Q417.1463,113.2863 417.7088,113.5831 L417.7088,116.3019 Q417.0838,115.7238 416.49,115.4581 Q415.8963,115.1769 415.2713,115.1769 Q413.9275,115.1769 413.24,116.255 Q412.5525,117.3175 412.5525,119.4113 Q412.5525,121.505 413.24,122.5831 Q413.9275,123.6456 415.2713,123.6456 Q415.8963,123.6456 416.49,123.38 Q417.0838,123.0988 417.7088,122.5206 L417.7088,125.2394 Z " fill="#000000"/><a href="https://bo4e.github.io/BO4E-python/v202607.1.0/api/bo4e.enum.html#module-bo4e.enum.landescode" target="_top" title="https://bo4e.github.io/BO4E-python/v202607.1.0/api/bo4e.enum.html#module-bo4e.enum.landescode" xlink:actuate="onRequest" xlink:href="https://bo4e.github.io/BO4E-python/v202607.1.0/api/bo4e.enum.html#module-bo4e.enum.landescode" xlink:show="new" xlink:title="https://bo4e.github.io/BO4E-python/v202607.1.0/api/bo4e.enum.html#module-bo4e.enum.landescode" xlink:type="simple"><text fill="#0000FF" font-family="sans-serif" font-size="14" lengthAdjust="spacing" text-decoration="underline" textLength="83.8086" x="432.6414" y="118.6251">Landescode</text></a><text fill="#000000" font-family="sans-serif" font-size="10" lengthAdjust="spacing" textLength="91.6113" x="428.74" y="131.2091">enum.Landescode</text></g><!--class Adresse--><g class="entity" data-qualified-name="Adresse" data-source-line="3" id="ent0001"><rect fill="#F1F1F1" height="225.2031" rx="2.5" ry="2.5" style="stroke:#181818;stroke-width:0.5;" width="230.7363" x="7" y="7"/><ellipse cx="85.8379" cy="25.9688" fill="#ADD1B2" rx="11" ry="11" style="stroke:#181818;stroke-width:1;"/><path d="M88.8066,31.6094 Q88.2285,31.9063 87.5879,32.0469 Q86.9473,32.2031 86.2441,32.2031 Q83.7441,32.2031 82.416,30.5625 Q81.1035,28.9063 81.1035,25.7813 Q81.1035,22.6563 82.416,21 Q83.7441,19.3438 86.2441,19.3438 Q86.9473,19.3438 87.5879,19.5 Q88.2441,19.6563 88.8066,19.9531 L88.8066,22.6719 Q88.1816,22.0938 87.5879,21.8281 Q86.9941,21.5469 86.3691,21.5469 Q85.0254,21.5469 84.3379,22.625 Q83.6504,23.6875 83.6504,25.7813 Q83.6504,27.875 84.3379,28.9531 Q85.0254,30.0156 86.3691,30.0156 Q86.9941,30.0156 87.5879,29.75 Q88.1816,29.4688 88.8066,28.8906 L88.8066,31.6094 Z " fill="#000000"/><a href="https://bo4e.github.io/BO4E-python/v202607.1.0/api/bo4e.com.html#module-bo4e.com.adresse" target="_top" title="https://bo4e.github.io/BO4E-python/v202607.1.0/api/bo4e.com.html#module-bo4e.com.adresse" xlink:actuate="onRequest" xlink:href="https://bo4e.github.io/BO4E-python/v202607.1.0/api/bo4e.com.html#module-bo4e.com.adresse" xlink:show="new" xlink:title="https://bo4e.github.io/BO4E-python/v202607.1.0/api/bo4e.com.html#module-bo4e.com.adresse" xlink:type="simple"><text fill="#0000FF" font-family="sans-serif" font-size="14" lengthAdjust="spacing" text-decoration="underline" textLength="56.0342" x="110.6011" y="24.9951">Adresse</text></a><text fill="#000000" font-family="sans-serif" font-size="10" lengthAdjust="spacing" textLength="64.5605" x="106.3379" y="37.5791">com.Adresse</text><line style="stroke:#181818;stroke-width:0.5;" x1="8" x2="236.7363" y1="44.9375" y2="44.9375"/><text fill="#000000" font-family="sans-serif" font-size="14" lengthAdjust="spacing" textLength="94.0215" x="13" y="61.9326">_id : str [0..1]</text><text fill="#000000" font-family="sans-serif" font-size="14" lengthAdjust="spacing" textLength="218.7363" x="13" y="78.2295">_typ : Literal["ADRESSE"] [0..1]</text><text fill="#000000" font-family="sans-serif" font-size="14" lengthAdjust="spacing" textLength="132.5215" x="13" y="94.5264">_version : str [0..1]</text><text fill="#000000" font-family="sans-serif" font-size="14" lengthAdjust="spacing" textLength="165.6006" x="13" y="110.8232">adresszusatz : str [0..1]</text><text fill="#000000" font-family="sans-serif" font-size="14" lengthAdjust="spacing" textLength="174.043" x="13" y="127.1201">coErgaenzung : str [0..1]</text><text fill="#000000" font-family="sans-serif" font-size="14" lengthAdjust="spacing" textLength="167.2549" x="13" y="143.417">hausnummer : str [0..1]</text><text fill="#000000" font-family="sans-serif" font-size="14" lengthAdjust="spacing" textLength="94.0557" x="13" y="159.7139">ort : str [0..1]</text><text fill="#000000" font-family="sans-serif" font-size="14" lengthAdjust="spacing" textLength="123.2314" x="13" y="176.0107">ortsteil : str [0..1]</text><text fill="#000000" font-family="sans-serif" font-size="14" lengthAdjust="spacing" textLength="134.5586" x="13" y="192.3076">postfach : str [0..1]</text><text fill="#000000" font-family="sans-serif" font-size="14" lengthAdjust="spacing" textLength="155.0527" x="13" y="208.6045">postleitzahl : str [0..1]</text><text fill="#000000" font-family="sans-serif" font-size="14" lengthAdjust="spacing" textLength="124.5645" x="13" y="224.9014">strasse : str [0..1]</text></g><!--link Adresse to Landescode--><g class="link" data-entity-1="ent0001" data-entity-2="ent0003" data-link-type="composition" data-source-line="22" id="lnk5"><path codeLine="22" d="M237.99,119.6 C292.21,119.6 342.75,119.6 387.71,119.6" fill="none" id="Adresse-to-Landescode" style="stroke:#181818;stroke-width:1;"/><polygon fill="#181818" points="399.71,119.6,393.71,115.6,387.71,119.6,393.71,123.6,399.71,119.6" style="stroke:#181818;stroke-width:1;stroke-linejoin:miter;stroke-miterlimit:10;"/><text fill="#000000" font-family="sans-serif" font-size="13" lengthAdjust="spacing" textLength="74.1914" x="268.74" y="115.6669">landescode</text><text fill="#000000" font-family="sans-serif" font-size="13" lengthAdjust="spacing" textLength="24.8066" x="366.7604" y="132.5892">0..1</text></g><?plantuml-src fLBBQiCm4BphAnRdLl0ZQVeWb49AVGiKcgCRYc9l8e5i6Uqw9Ixvz_hH90tEhRf8EpChxSxAu8Q1BJYzLGoPTfYojeKGgP54u2M9OYvf5ePhEyLWgrbLwq3RyELj6llbdfKjmjqacjn73y4uY49PwbwQsZnGd9jHRhFAe7y2PUQG267UxwlLH_54kiRPE7fk-L_S0qb73NmBQDQdpc06n0wIA0Z6gnxaVTcW2ytef4cy-Ujxl5p6tkf2j4D7JL_3zBwQkYB9zP1DRUos4ekwAhP3LicAYYhFqGqvw_WgI8pQ39dI4czaggup1ZNNKbt9QqBP6dH178GeP8vKoXJ1wup7fixEqLC4esoStjuz_dhxxtctTmu7tg565XbIQZE4nUbuCVTETkQwIizXK-AXRUhu6tp_1hosLU-lQ0RdTuHGke5opDVDu0Kf-mN7ZmKRZIQZ7m00?></g></svg>