<svg xmlns="http://www.w3.org/2000/svg" xmlns:xlink="http://www.w3.org/1999/xlink" contentStyleType="text/css" data-diagram-type="CLASS" height="701px" preserveAspectRatio="none" style="width:822px;height:701px;background:#FFFFFF;" version="1.1" viewBox="0 0 822 701" width="822px" zoomAndPan="magnify"><?plantuml 1.2026.6?><defs/><g><!--cluster bo4e--><g class="cluster" data-qualified-name="bo4e" data-source-line="15" id="ent0004"><path d="M548.05,52.3959 L587.926,52.3959 A3.75,3.75 0 0 1 590.426,54.8959 L597.426,74.6928 L805.08,74.6928 A2.5,2.5 0 0 1 807.58,77.1928 L807.58,683.8959 A2.5,2.5 0 0 1 805.08,686.3959 L548.05,686.3959 A2.5,2.5 0 0 1 545.55,683.8959 L545.55,54.8959 A2.5,2.5 0 0 1 548.05,52.3959" fill="none" style="stroke:#000000;stroke-width:1.5;"/><line style="stroke:#000000;stroke-width:1.5;" x1="545.55" x2="597.426" y1="74.6928" y2="74.6928"/><text fill="#000000" font-family="sans-serif" font-size="14" font-weight="700" lengthAdjust="spacing" textLength="38.876" x="549.55" y="67.391">bo4e</text></g><!--cluster com--><g class="cluster" data-qualified-name="bo4e.com" data-source-line="14" id="ent0002"><path d="M572.05,95.3959 L649.7492,95.3959 A3.75,3.75 0 0 1 652.2492,97.8959 L659.2492,117.6928 L781.08,117.6928 A2.5,2.5 0 0 1 783.58,120.1928 L783.58,327.8959 A2.5,2.5 0 0 1 781.08,330.3959 L572.05,330.3959 A2.5,2.5 0 0 1 569.55,327.8959 L569.55,97.8959 A2.5,2.5 0 0 1 572.05,95.3959" fill="#E0A86C" style="stroke:#000000;stroke-width:1.5;"/><line style="stroke:#000000;stroke-width:1.5;" x1="569.55" x2="659.2492" y1="117.6928" y2="117.6928"/><text fill="#000000" font-family="sans-serif" font-size="14" font-weight="700" lengthAdjust="spacing" textLength="76.6992" x="573.55" y="110.391">bo4e.com</text></g><!--cluster enum--><g class="cluster" data-qualified-name="bo4e.enum" data-source-line="45" id="ent0007"><path d="M584.2,354.3959 L673.4109,354.3959 A3.75,3.75 0 0 1 675.9109,356.8959 L682.9109,376.6928 L768.94,376.6928 A2.5,2.5 0 0 1 771.44,379.1928 L771.44,659.8959 A2.5,2.5 0 0 1 768.94,662.3959 L584.2,662.3959 A2.5,2.5 0 0 1 581.7,659.8959 L581.7,356.8959 A2.5,2.5 0 0 1 584.2,354.3959" fill="#D1C358" style="stroke:#000000;stroke-width:1.5;"/><line style="stroke:#000000;stroke-width:1.5;" x1="581.7" x2="682.9109" y1="376.6928" y2="376.6928"/><text fill="#000000" font-family="sans-serif" font-size="14" font-weight="700" lengthAdjust="spacing" textLength="88.2109" x="585.7" y="369.391">bo4e.enum</text></g><!--class Ausschreibungsdetail--><g class="entity" data-qualified-name="bo4e.com.Ausschreibungsdetail" data-source-line="15" id="ent0003"><rect fill="#F1F1F1" height="37.9375" rx="2.5" ry="2.5" style="stroke:#181818;stroke-width:0.5;" width="182.0283" x="585.55" y="130.4259"/><ellipse cx="600.55" cy="149.3947" fill="#ADD1B2" rx="11" ry="11" style="stroke:#181818;stroke-width:1;"/><path d="M603.5188,155.0353 Q602.9406,155.3322 602.3,155.4728 Q601.6594,155.629 600.9563,155.629 Q598.4563,155.629 597.1281,153.9884 Q595.8156,152.3322 595.8156,149.2072 Q595.8156,146.0822 597.1281,144.4259 Q598.4563,142.7697 600.9563,142.7697 Q601.6594,142.7697 602.3,142.9259 Q602.9563,143.0822 603.5188,143.379 L603.5188,146.0978 Q602.8938,145.5197 602.3,145.254 Q601.7063,144.9728 601.0813,144.9728 Q599.7375,144.9728 599.05,146.0509 Q598.3625,147.1134 598.3625,149.2072 Q598.3625,151.3009 599.05,152.379 Q599.7375,153.4415 601.0813,153.4415 Q601.7063,153.4415 602.3,153.1759 Q602.8938,152.8947 603.5188,152.3165 L603.5188,155.0353 Z " fill="#000000"/><a href="https://bo4e.github.io/BO4E-python/v202607.1.0/api/bo4e.com.html#module-bo4e.com.ausschreibungsdetail" target="_top" title="https://bo4e.github.io/BO4E-python/v202607.1.0/api/bo4e.com.html#module-bo4e.com.ausschreibungsdetail" xlink:actuate="onRequest" xlink:href="https://bo4e.github.io/BO4E-python/v202607.1.0/api/bo4e.com.html#module-bo4e.com.ausschreibungsdetail" xlink:show="new" xlink:title="https://bo4e.github.io/BO4E-python/v202607.1.0/api/bo4e.com.html#module-bo4e.com.ausschreibungsdetail" xlink:type="simple"><text fill="#0000FF" font-family="sans-serif" font-size="14" lengthAdjust="spacing" text-decoration="underline" textLength="150.0283" x="614.55" y="148.421">Ausschreibungsdetail</text></a><text fill="#000000" font-family="sans-serif" font-size="10" lengthAdjust="spacing" textLength="131.6992" x="623.7146" y="161.005">com.Ausschreibungsdetail</text></g><!--class Menge--><g class="entity" data-qualified-name="bo4e.com.Menge" data-source-line="28" id="ent0005"><rect fill="#F1F1F1" height="37.9375" rx="2.5" ry="2.5" style="stroke:#181818;stroke-width:0.5;" width="90.1543" x="631.49" y="203.4259"/><ellipse cx="646.49" cy="222.3947" fill="#ADD1B2" rx="11" ry="11" style="stroke:#181818;stroke-width:1;"/><path d="M649.4588,228.0353 Q648.8806,228.3322 648.24,228.4728 Q647.5994,228.629 646.8963,228.629 Q644.3963,228.629 643.0681,226.9884 Q641.7556,225.3322 641.7556,222.2072 Q641.7556,219.0822 643.0681,217.4259 Q644.3963,215.7697 646.8963,215.7697 Q647.5994,215.7697 648.24,215.9259 Q648.8963,216.0822 649.4588,216.379 L649.4588,219.0978 Q648.8338,218.5197 648.24,218.254 Q647.6463,217.9728 647.0213,217.9728 Q645.6775,217.9728 644.99,219.0509 Q644.3025,220.1134 644.3025,222.2072 Q644.3025,224.3009 644.99,225.379 Q645.6775,226.4415 647.0213,226.4415 Q647.6463,226.4415 648.24,226.1759 Q648.8338,225.8947 649.4588,225.3165 L649.4588,228.0353 Z " fill="#000000"/><a href="https://bo4e.github.io/BO4E-python/v202607.1.0/api/bo4e.com.html#module-bo4e.com.menge" target="_top" title="https://bo4e.github.io/BO4E-python/v202607.1.0/api/bo4e.com.html#module-bo4e.com.menge" xlink:actuate="onRequest" xlink:href="https://bo4e.github.io/BO4E-python/v202607.1.0/api/bo4e.com.html#module-bo4e.com.menge" xlink:show="new" xlink:title="https://bo4e.github.io/BO4E-python/v202607.1.0/api/bo4e.com.html#module-bo4e.com.menge" xlink:type="simple"><text fill="#0000FF" font-family="sans-serif" font-size="14" lengthAdjust="spacing" text-decoration="underline" textLength="47.0654" x="666.0344" y="221.421">Menge</text></a><text fill="#000000" font-family="sans-serif" font-size="10" lengthAdjust="spacing" textLength="58.1543" x="660.49" y="234.005">com.Menge</text></g><!--class Zeitraum--><g class="entity" data-qualified-name="bo4e.com.Zeitraum" data-source-line="34" id="ent0006"><rect fill="#F1F1F1" height="37.9375" rx="2.5" ry="2.5" style="stroke:#181818;stroke-width:0.5;" width="102.5566" x="625.29" y="276.4259"/><ellipse cx="640.29" cy="295.3947" fill="#ADD1B2" rx="11" ry="11" style="stroke:#181818;stroke-width:1;"/><path d="M643.2588,301.0353 Q642.6806,301.3322 642.04,301.4728 Q641.3994,301.629 640.6963,301.629 Q638.1963,301.629 636.8681,299.9884 Q635.5556,298.3322 635.5556,295.2072 Q635.5556,292.0822 636.8681,290.4259 Q638.1963,288.7697 640.6963,288.7697 Q641.3994,288.7697 642.04,288.9259 Q642.6963,289.0822 643.2588,289.379 L643.2588,292.0978 Q642.6338,291.5197 642.04,291.254 Q641.4463,290.9728 640.8213,290.9728 Q639.4775,290.9728 638.79,292.0509 Q638.1025,293.1134 638.1025,295.2072 Q638.1025,297.3009 638.79,298.379 Q639.4775,299.4415 640.8213,299.4415 Q641.4463,299.4415 642.04,299.1759 Q642.6338,298.8947 643.2588,298.3165 L643.2588,301.0353 Z " fill="#000000"/><a href="https://bo4e.github.io/BO4E-python/v202607.1.0/api/bo4e.com.html#module-bo4e.com.zeitraum" target="_top" title="https://bo4e.github.io/BO4E-python/v202607.1.0/api/bo4e.com.html#module-bo4e.com.zeitraum" xlink:actuate="onRequest" xlink:href="https://bo4e.github.io/BO4E-python/v202607.1.0/api/bo4e.com.html#module-bo4e.com.zeitraum" xlink:show="new" xlink:title="https://bo4e.github.io/BO4E-python/v202607.1.0/api/bo4e.com.html#module-bo4e.com.zeitraum" xlink:type="simple"><text fill="#0000FF" font-family="sans-serif" font-size="14" lengthAdjust="spacing" text-decoration="underline" textLength="64.4287" x="657.354" y="294.421">Zeitraum</text></a><text fill="#000000" font-family="sans-serif" font-size="10" lengthAdjust="spacing" textLength="70.5566" x="654.29" y="307.005">com.Zeitraum</text></g><!--class Preismodell--><g class="entity" data-qualified-name="bo4e.enum.Preismodell" data-source-line="46" id="ent0008"><rect fill="#F1F1F1" height="37.9375" rx="2.5" ry="2.5" style="stroke:#181818;stroke-width:0.5;" width="121.9463" x="615.6" y="389.4259"/><ellipse cx="630.6" cy="408.3947" fill="#ADD1B2" rx="11" ry="11" style="stroke:#181818;stroke-width:1;"/><path d="M633.5688,414.0353 Q632.9906,414.3322 632.35,414.4728 Q631.7094,414.629 631.0063,414.629 Q628.5063,414.629 627.1781,412.9884 Q625.8656,411.3322 625.8656,408.2072 Q625.8656,405.0822 627.1781,403.4259 Q628.5063,401.7697 631.0063,401.7697 Q631.7094,401.7697 632.35,401.9259 Q633.0063,402.0822 633.5688,402.379 L633.5688,405.0978 Q632.9438,404.5197 632.35,404.254 Q631.7563,403.9728 631.1313,403.9728 Q629.7875,403.9728 629.1,405.0509 Q628.4125,406.1134 628.4125,408.2072 Q628.4125,410.3009 629.1,411.379 Q629.7875,412.4415 631.1313,412.4415 Q631.7563,412.4415 632.35,412.1759 Q632.9438,411.8947 633.5688,411.3165 L633.5688,414.0353 Z " fill="#000000"/><a href="https://bo4e.github.io/BO4E-python/v202607.1.0/api/bo4e.enum.html#module-bo4e.enum.preismodell" target="_top" title="https://bo4e.github.io/BO4E-python/v202607.1.0/api/bo4e.enum.html#module-bo4e.enum.preismodell" xlink:actuate="onRequest" xlink:href="https://bo4e.github.io/BO4E-python/v202607.1.0/api/bo4e.enum.html#module-bo4e.enum.preismodell" xlink:show="new" xlink:title="https://bo4e.github.io/BO4E-python/v202607.1.0/api/bo4e.enum.html#module-bo4e.enum.preismodell" xlink:type="simple"><text fill="#0000FF" font-family="sans-serif" font-size="14" lengthAdjust="spacing" text-decoration="underline" textLength="81.4775" x="648.8344" y="407.421">Preismodell</text></a><text fill="#000000" font-family="sans-serif" font-size="10" lengthAdjust="spacing" textLength="89.9463" x="644.6" y="420.005">enum.Preismodell</text></g><!--class Rechnungslegung--><g class="entity" data-qualified-name="bo4e.enum.Rechnungslegung" data-source-line="48" id="ent0009"><rect fill="#F1F1F1" height="37.9375" rx="2.5" ry="2.5" style="stroke:#181818;stroke-width:0.5;" width="157.7334" x="597.7" y="462.4259"/><ellipse cx="612.7" cy="481.3947" fill="#ADD1B2" rx="11" ry="11" style="stroke:#181818;stroke-width:1;"/><path d="M615.6688,487.0353 Q615.0906,487.3322 614.45,487.4728 Q613.8094,487.629 613.1063,487.629 Q610.6063,487.629 609.2781,485.9884 Q607.9656,484.3322 607.9656,481.2072 Q607.9656,478.0822 609.2781,476.4259 Q610.6063,474.7697 613.1063,474.7697 Q613.8094,474.7697 614.45,474.9259 Q615.1063,475.0822 615.6688,475.379 L615.6688,478.0978 Q615.0438,477.5197 614.45,477.254 Q613.8563,476.9728 613.2313,476.9728 Q611.8875,476.9728 611.2,478.0509 Q610.5125,479.1134 610.5125,481.2072 Q610.5125,483.3009 611.2,484.379 Q611.8875,485.4415 613.2313,485.4415 Q613.8563,485.4415 614.45,485.1759 Q615.0438,484.8947 615.6688,484.3165 L615.6688,487.0353 Z " fill="#000000"/><a href="https://bo4e.github.io/BO4E-python/v202607.1.0/api/bo4e.enum.html#module-bo4e.enum.rechnungslegung" target="_top" title="https://bo4e.github.io/BO4E-python/v202607.1.0/api/bo4e.enum.html#module-bo4e.enum.rechnungslegung" xlink:actuate="onRequest" xlink:href="https://bo4e.github.io/BO4E-python/v202607.1.0/api/bo4e.enum.html#module-bo4e.enum.rechnungslegung" xlink:show="new" xlink:title="https://bo4e.github.io/BO4E-python/v202607.1.0/api/bo4e.enum.html#module-bo4e.enum.rechnungslegung" xlink:type="simple"><text fill="#0000FF" font-family="sans-serif" font-size="14" lengthAdjust="spacing" text-decoration="underline" textLength="125.7334" x="626.7" y="480.421">Rechnungslegung</text></a><text fill="#000000" font-family="sans-serif" font-size="10" lengthAdjust="spacing" textLength="121.5576" x="628.7879" y="493.005">enum.Rechnungslegung</text></g><!--class Sparte--><g class="entity" data-qualified-name="bo4e.enum.Sparte" data-source-line="50" id="ent0010"><rect fill="#F1F1F1" height="37.9375" rx="2.5" ry="2.5" style="stroke:#181818;stroke-width:0.5;" width="96.7559" x="628.19" y="535.4259"/><ellipse cx="643.19" cy="554.3947" fill="#ADD1B2" rx="11" ry="11" style="stroke:#181818;stroke-width:1;"/><path d="M646.1588,560.0353 Q645.5806,560.3322 644.94,560.4728 Q644.2994,560.629 643.5963,560.629 Q641.0963,560.629 639.7681,558.9884 Q638.4556,557.3322 638.4556,554.2072 Q638.4556,551.0822 639.7681,549.4259 Q641.0963,547.7697 643.5963,547.7697 Q644.2994,547.7697 644.94,547.9259 Q645.5963,548.0822 646.1588,548.379 L646.1588,551.0978 Q645.5338,550.5197 644.94,550.254 Q644.3463,549.9728 643.7213,549.9728 Q642.3775,549.9728 641.69,551.0509 Q641.0025,552.1134 641.0025,554.2072 Q641.0025,556.3009 641.69,557.379 Q642.3775,558.4415 643.7213,558.4415 Q644.3463,558.4415 644.94,558.1759 Q645.5338,557.8947 646.1588,557.3165 L646.1588,560.0353 Z " fill="#000000"/><a href="https://bo4e.github.io/BO4E-python/v202607.1.0/api/bo4e.enum.html#module-bo4e.enum.sparte" target="_top" title="https://bo4e.github.io/BO4E-python/v202607.1.0/api/bo4e.enum.html#module-bo4e.enum.sparte" xlink:actuate="onRequest" xlink:href="https://bo4e.github.io/BO4E-python/v202607.1.0/api/bo4e.enum.html#module-bo4e.enum.sparte" xlink:show="new" xlink:title="https://bo4e.github.io/BO4E-python/v202607.1.0/api/bo4e.enum.html#module-bo4e.enum.sparte" xlink:type="simple"><text fill="#0000FF" font-family="sans-serif" font-size="14" lengthAdjust="spacing" text-decoration="underline" textLength="46.2109" x="666.4625" y="553.421">Sparte</text></a><text fill="#000000" font-family="sans-serif" font-size="10" lengthAdjust="spacing" textLength="64.7559" x="657.19" y="566.005">enum.Sparte</text></g><!--class Vertragsform--><g class="entity" data-qualified-name="bo4e.enum.Vertragsform" data-source-line="52" id="ent0011"><rect fill="#F1F1F1" height="37.9375" rx="2.5" ry="2.5" style="stroke:#181818;stroke-width:0.5;" width="130.0615" x="611.54" y="608.4259"/><ellipse cx="626.54" cy="627.3947" fill="#ADD1B2" rx="11" ry="11" style="stroke:#181818;stroke-width:1;"/><path d="M629.5088,633.0353 Q628.9306,633.3322 628.29,633.4728 Q627.6494,633.629 626.9463,633.629 Q624.4463,633.629 623.1181,631.9884 Q621.8056,630.3322 621.8056,627.2072 Q621.8056,624.0822 623.1181,622.4259 Q624.4463,620.7697 626.9463,620.7697 Q627.6494,620.7697 628.29,620.9259 Q628.9463,621.0822 629.5088,621.379 L629.5088,624.0978 Q628.8838,623.5197 628.29,623.254 Q627.6963,622.9728 627.0713,622.9728 Q625.7275,622.9728 625.04,624.0509 Q624.3525,625.1134 624.3525,627.2072 Q624.3525,629.3009 625.04,630.379 Q625.7275,631.4415 627.0713,631.4415 Q627.6963,631.4415 628.29,631.1759 Q628.8838,630.8947 629.5088,630.3165 L629.5088,633.0353 Z " fill="#000000"/><a href="https://bo4e.github.io/BO4E-python/v202607.1.0/api/bo4e.enum.html#module-bo4e.enum.vertragsform" target="_top" title="https://bo4e.github.io/BO4E-python/v202607.1.0/api/bo4e.enum.html#module-bo4e.enum.vertragsform" xlink:actuate="onRequest" xlink:href="https://bo4e.github.io/BO4E-python/v202607.1.0/api/bo4e.enum.html#module-bo4e.enum.vertragsform" xlink:show="new" xlink:title="https://bo4e.github.io/BO4E-python/v202607.1.0/api/bo4e.enum.html#module-bo4e.enum.vertragsform" xlink:type="simple"><text fill="#0000FF" font-family="sans-serif" font-size="14" lengthAdjust="spacing" text-decoration="underline" textLength="92.8389" x="643.1513" y="626.421">Vertragsform</text></a><text fill="#000000" font-family="sans-serif" font-size="10" lengthAdjust="spacing" textLength="98.0615" x="640.54" y="639.005">enum.Vertragsform</text></g><!--class Ausschreibungslos--><g class="entity" data-qualified-name="Ausschreibungslos" data-source-line="3" id="ent0001"><rect fill="#F1F1F1" height="176.3125" rx="2.5" ry="2.5" style="stroke:#181818;stroke-width:0.5;" width="323.5547" x="7" y="231.2359"/><ellipse cx="99.3125" cy="250.2047" fill="#ADD1B2" rx="11" ry="11" style="stroke:#181818;stroke-width:1;"/><path d="M102.2813,255.8453 Q101.7031,256.1422 101.0625,256.2828 Q100.4219,256.439 99.7188,256.439 Q97.2188,256.439 95.8906,254.7984 Q94.5781,253.1422 94.5781,250.0172 Q94.5781,246.8922 95.8906,245.2359 Q97.2188,243.5797 99.7188,243.5797 Q100.4219,243.5797 101.0625,243.7359 Q101.7188,243.8922 102.2813,244.189 L102.2813,246.9078 Q101.6563,246.3297 101.0625,246.064 Q100.4688,245.7828 99.8438,245.7828 Q98.5,245.7828 97.8125,246.8609 Q97.125,247.9234 97.125,250.0172 Q97.125,252.1109 97.8125,253.189 Q98.5,254.2515 99.8438,254.2515 Q100.4688,254.2515 101.0625,253.9859 Q101.6563,253.7047 102.2813,253.1265 L102.2813,255.8453 Z " fill="#000000"/><a href="https://bo4e.github.io/BO4E-python/v202607.1.0/api/bo4e.com.html#module-bo4e.com.ausschreibungslos" target="_top" title="https://bo4e.github.io/BO4E-python/v202607.1.0/api/bo4e.com.html#module-bo4e.com.ausschreibungslos" xlink:actuate="onRequest" xlink:href="https://bo4e.github.io/BO4E-python/v202607.1.0/api/bo4e.com.html#module-bo4e.com.ausschreibungslos" xlink:show="new" xlink:title="https://bo4e.github.io/BO4E-python/v202607.1.0/api/bo4e.com.html#module-bo4e.com.ausschreibungslos" xlink:type="simple"><text fill="#0000FF" font-family="sans-serif" font-size="14" lengthAdjust="spacing" text-decoration="underline" textLength="130.4297" x="119.8125" y="249.231">Ausschreibungslos</text></a><text fill="#000000" font-family="sans-serif" font-size="10" lengthAdjust="spacing" textLength="117.7002" x="126.1772" y="261.815">com.Ausschreibungslos</text><line style="stroke:#181818;stroke-width:0.5;" x1="8" x2="329.5547" y1="269.1734" y2="269.1734"/><text fill="#000000" font-family="sans-serif" font-size="14" lengthAdjust="spacing" textLength="94.0215" x="13" y="286.1685">_id : str [0..1]</text><text fill="#000000" font-family="sans-serif" font-size="14" lengthAdjust="spacing" textLength="311.5547" x="13" y="302.4654">_typ : Literal["AUSSCHREIBUNGSLOS"] [0..1]</text><text fill="#000000" font-family="sans-serif" font-size="14" lengthAdjust="spacing" textLength="132.5215" x="13" y="318.7623">_version : str [0..1]</text><text fill="#000000" font-family="sans-serif" font-size="14" lengthAdjust="spacing" textLength="206.3633" x="13" y="335.0592">anzahlLieferstellen : int [0..1]</text><text fill="#000000" font-family="sans-serif" font-size="14" lengthAdjust="spacing" textLength="154.4922" x="13" y="351.356">bemerkung : str [0..1]</text><text fill="#000000" font-family="sans-serif" font-size="14" lengthAdjust="spacing" textLength="167.9453" x="13" y="367.6529">betreutDurch : str [0..1]</text><text fill="#000000" font-family="sans-serif" font-size="14" lengthAdjust="spacing" textLength="163.6729" x="13" y="383.9498">bezeichnung : str [0..1]</text><text fill="#000000" font-family="sans-serif" font-size="14" lengthAdjust="spacing" textLength="153.3848" x="13" y="400.2467">losnummer : str [0..1]</text></g><!--link Ausschreibungslos to Ausschreibungsdetail--><g class="link" data-entity-1="ent0001" data-entity-2="ent0003" data-link-type="composition" data-source-line="56" id="lnk12"><path codeLine="56" d="M204.57,230.8059 C235.1,166.4659 286.31,84.1659 360.55,45.3959 C427.13,10.6259 458.01,22.5259 529.55,45.3959 C581.73,62.0759 622.5922,96.5944 648.4022,121.7844" fill="none" id="Ausschreibungslos-to-Ausschreibungsdetail" style="stroke:#181818;stroke-width:1;"/><polygon fill="#181818" points="656.99,130.1659,655.4899,123.1126,648.4022,121.7844,649.9023,128.8378,656.99,130.1659" style="stroke:#181818;stroke-width:1;stroke-linejoin:miter;stroke-miterlimit:10;"/><text fill="#000000" font-family="sans-serif" font-size="13" lengthAdjust="spacing" textLength="76.4702" x="407.05" y="19.6328">lieferstellen</text><text fill="#000000" font-family="sans-serif" font-size="13" lengthAdjust="spacing" textLength="23.0356" x="624.8672" y="119.4007">0..*</text></g><!--link Ausschreibungslos to Menge--><g class="link" data-entity-1="ent0001" data-entity-2="ent0005" data-link-type="composition" data-source-line="57" id="lnk13"><path codeLine="57" d="M220.81,230.9059 C253.86,182.9259 301.7,128.0959 360.55,101.3959 C428.95,70.3659 473.98,50.8659 529.55,101.3959 C543.43,114.0059 525.45,171.0759 537.55,185.3959 C560.22,212.1959 588.0206,219.8201 619.0706,222.0401" fill="none" id="Ausschreibungslos-to-Menge" style="stroke:#181818;stroke-width:1;"/><polygon fill="#181818" points="631.04,222.8959,625.3405,218.4782,619.0706,222.0401,624.77,226.4578,631.04,222.8959" style="stroke:#181818;stroke-width:1;stroke-linejoin:miter;stroke-miterlimit:10;"/><text fill="#000000" font-family="sans-serif" font-size="13" lengthAdjust="spacing" textLength="92.4536" x="399.05" y="66.4528">gesamtMenge</text><text fill="#000000" font-family="sans-serif" font-size="13" lengthAdjust="spacing" textLength="24.8066" x="598.6499" y="236.1477">0..1</text></g><!--link Ausschreibungslos to Menge--><g class="link" data-entity-1="ent0001" data-entity-2="ent0005" data-link-type="composition" data-source-line="58" id="lnk14"><path codeLine="58" d="M249.22,230.7559 C280.7,201.9359 319.24,173.4959 360.55,158.3959 C431.1,132.6059 469.37,113.4559 529.55,158.3959 C539.58,165.8859 528.59,176.6659 537.55,185.3959 C562.34,209.5459 589.1598,217.1695 619.2998,220.1895" fill="none" id="Ausschreibungslos-to-Menge-1" style="stroke:#181818;stroke-width:1;"/><polygon fill="#181818" points="631.24,221.3859,625.6687,216.8076,619.2998,220.1895,624.8711,224.7678,631.24,221.3859" style="stroke:#181818;stroke-width:1;stroke-linejoin:miter;stroke-miterlimit:10;"/><text fill="#000000" font-family="sans-serif" font-size="13" lengthAdjust="spacing" textLength="149.1509" x="370.55" y="127.4728">wunschMaximalmenge</text><text fill="#000000" font-family="sans-serif" font-size="13" lengthAdjust="spacing" textLength="24.8066" x="598.5235" y="217.1601">0..1</text></g><!--link Ausschreibungslos to Menge--><g class="link" data-entity-1="ent0001" data-entity-2="ent0005" data-link-type="composition" data-source-line="59" id="lnk15"><path codeLine="59" d="M330.96,249.2959 C340.87,246.2959 350.79,243.6259 360.55,241.3959 C455.11,219.8359 557.5037,218.706 619.1037,220.246" fill="none" id="Ausschreibungslos-to-Menge-2" style="stroke:#181818;stroke-width:1;"/><polygon fill="#181818" points="631.1,220.5459,625.2018,216.3972,619.1037,220.246,625.0019,224.3947,631.1,220.5459" style="stroke:#181818;stroke-width:1;stroke-linejoin:miter;stroke-miterlimit:10;"/><text fill="#000000" font-family="sans-serif" font-size="13" lengthAdjust="spacing" textLength="145.6089" x="372.55" y="217.6528">wunschMindestmenge</text><text fill="#000000" font-family="sans-serif" font-size="13" lengthAdjust="spacing" textLength="24.8066" x="598.7188" y="216.2495">0..1</text></g><!--link Ausschreibungslos to Zeitraum--><g class="link" data-entity-1="ent0001" data-entity-2="ent0006" data-link-type="composition" data-source-line="60" id="lnk16"><path codeLine="60" d="M330.86,276.8359 C340.86,275.0859 350.82,273.5759 360.55,272.3959 C435.12,263.3459 454.67,266.5359 529.55,272.3959 C561.53,274.8959 585.2873,278.3338 613.3073,283.3438" fill="none" id="Ausschreibungslos-to-Zeitraum" style="stroke:#181818;stroke-width:1;"/><polygon fill="#181818" points="625.12,285.4559,619.9177,280.4623,613.3073,283.3438,618.5096,288.3374,625.12,285.4559" style="stroke:#181818;stroke-width:1;stroke-linejoin:miter;stroke-miterlimit:10;"/><text fill="#000000" font-family="sans-serif" font-size="13" lengthAdjust="spacing" textLength="90.8857" x="400.05" y="262.8128">lieferzeitraum</text><text fill="#000000" font-family="sans-serif" font-size="13" lengthAdjust="spacing" textLength="24.8066" x="592.6483" y="280.1884">0..1</text></g><!--link Ausschreibungslos to Zeitraum--><g class="link" data-entity-1="ent0001" data-entity-2="ent0006" data-link-type="composition" data-source-line="61" id="lnk17"><path codeLine="61" d="M330.86,311.7559 C432.36,306.9359 544.7135,301.6039 612.8735,298.3739" fill="none" id="Ausschreibungslos-to-Zeitraum-1" style="stroke:#181818;stroke-width:1;"/><polygon fill="#181818" points="624.86,297.8059,618.6774,294.0944,612.8735,298.3739,619.0561,302.0854,624.86,297.8059" style="stroke:#181818;stroke-width:1;stroke-linejoin:miter;stroke-miterlimit:10;"/><text fill="#000000" font-family="sans-serif" font-size="13" lengthAdjust="spacing" textLength="148.3193" x="371.05" y="298.5528">wiederholungsintervall</text><text fill="#000000" font-family="sans-serif" font-size="13" lengthAdjust="spacing" textLength="24.8066" x="592.3534" y="311.2136">0..1</text></g><!--link Ausschreibungslos to Zeitraum--><g class="link" data-entity-1="ent0001" data-entity-2="ent0006" data-link-type="composition" data-source-line="62" id="lnk18"><path codeLine="62" d="M330.61,338.7259 C392.96,343.0359 464.8,344.1059 529.55,335.3959 C561.86,331.0559 585.6649,325.111 613.4449,316.441" fill="none" id="Ausschreibungslos-to-Zeitraum-2" style="stroke:#181818;stroke-width:1;"/><polygon fill="#181818" points="624.9,312.8659,617.9808,310.8351,613.4449,316.441,620.3642,318.4718,624.9,312.8659" style="stroke:#181818;stroke-width:1;stroke-linejoin:miter;stroke-miterlimit:10;"/><text fill="#000000" font-family="sans-serif" font-size="13" lengthAdjust="spacing" textLength="167.5337" x="361.55" y="331.4628">wunschKuendingungsfrist</text><text fill="#000000" font-family="sans-serif" font-size="13" lengthAdjust="spacing" textLength="24.8066" x="592.3988" y="328.2972">0..1</text></g><!--link Ausschreibungslos to Zeitraum--><g class="link" data-entity-1="ent0001" data-entity-2="ent0006" data-link-type="composition" data-source-line="63" id="lnk19"><path codeLine="63" d="M330.82,365.5559 C393.36,377.0659 465.27,382.3859 529.55,367.3959 C572.77,357.3159 607.7087,338.8614 636.1487,321.1814" fill="none" id="Ausschreibungslos-to-Zeitraum-3" style="stroke:#181818;stroke-width:1;"/><polygon fill="#181818" points="646.34,314.8459,639.1325,314.6166,636.1487,321.1814,643.3562,321.4107,646.34,314.8459" style="stroke:#181818;stroke-width:1;stroke-linejoin:miter;stroke-miterlimit:10;"/><text fill="#000000" font-family="sans-serif" font-size="13" lengthAdjust="spacing" textLength="131.5425" x="379.55" y="363.4628">wunschZahlungsziel</text><text fill="#000000" font-family="sans-serif" font-size="13" lengthAdjust="spacing" textLength="24.8066" x="641.3267" y="334.5115">0..1</text></g><!--link Ausschreibungslos to Preismodell--><g class="link" data-entity-1="ent0001" data-entity-2="ent0008" data-link-type="composition" data-source-line="64" id="lnk20"><path codeLine="64" d="M331,393.6459 C340.88,396.6459 350.78,399.2659 360.55,401.3959 C447.55,420.3059 539.2756,418.7897 603.2856,414.5997" fill="none" id="Ausschreibungslos-to-Preismodell" style="stroke:#181818;stroke-width:1;"/><polygon fill="#181818" points="615.26,413.8159,609.0115,410.2164,603.2856,414.5997,609.5341,418.1993,615.26,413.8159" style="stroke:#181818;stroke-width:1;stroke-linejoin:miter;stroke-miterlimit:10;"/><text fill="#000000" font-family="sans-serif" font-size="13" lengthAdjust="spacing" textLength="76.0703" x="407.05" y="397.4628">preismodell</text><text fill="#000000" font-family="sans-serif" font-size="13" lengthAdjust="spacing" textLength="24.8066" x="582.8298" y="427.3845">0..1</text></g><!--link Ausschreibungslos to Rechnungslegung--><g class="link" data-entity-1="ent0001" data-entity-2="ent0009" data-link-type="composition" data-source-line="65" id="lnk21"><path codeLine="65" d="M291.09,408.0259 C313.33,421.0059 336.99,432.8559 360.55,441.3959 C437.91,469.4259 520.1495,477.8892 585.2895,480.4792" fill="none" id="Ausschreibungslos-to-Rechnungslegung" style="stroke:#181818;stroke-width:1;"/><polygon fill="#181818" points="597.28,480.9559,591.4437,476.7207,585.2895,480.4792,591.1258,484.7144,597.28,480.9559" style="stroke:#181818;stroke-width:1;stroke-linejoin:miter;stroke-miterlimit:10;"/><text fill="#000000" font-family="sans-serif" font-size="13" lengthAdjust="spacing" textLength="166.0229" x="362.05" y="437.4628">wunschRechnungslegung</text><text fill="#000000" font-family="sans-serif" font-size="13" lengthAdjust="spacing" textLength="24.8066" x="564.9017" y="493.6799">0..1</text></g><!--link Ausschreibungslos to Sparte--><g class="link" data-entity-1="ent0001" data-entity-2="ent0010" data-link-type="composition" data-source-line="66" id="lnk22"><path codeLine="66" d="M241.67,407.9359 C274.35,442.4059 315.74,478.9559 360.55,501.3959 C447.71,545.0359 551.672,553.517 615.802,554.687" fill="none" id="Ausschreibungslos-to-Sparte" style="stroke:#181818;stroke-width:1;"/><polygon fill="#181818" points="627.8,554.9059,621.874,550.7971,615.802,554.687,621.728,558.7958,627.8,554.9059" style="stroke:#181818;stroke-width:1;stroke-linejoin:miter;stroke-miterlimit:10;"/><text fill="#000000" font-family="sans-serif" font-size="13" lengthAdjust="spacing" textLength="67.8501" x="411.55" y="497.4628">energieart</text><text fill="#000000" font-family="sans-serif" font-size="13" lengthAdjust="spacing" textLength="24.8066" x="595.3112" y="568.1087">0..1</text></g><!--link Ausschreibungslos to Vertragsform--><g class="link" data-entity-1="ent0001" data-entity-2="ent0011" data-link-type="composition" data-source-line="67" id="lnk23"><path codeLine="67" d="M213.98,408.0159 C246.69,464.1459 296.61,533.2959 360.55,572.3959 C437.64,619.5259 532.0305,628.8571 599.3105,629.4671" fill="none" id="Ausschreibungslos-to-Vertragsform" style="stroke:#181818;stroke-width:1;"/><polygon fill="#181818" points="611.31,629.5759,605.3465,625.5217,599.3105,629.4671,605.274,633.5214,611.31,629.5759" style="stroke:#181818;stroke-width:1;stroke-linejoin:miter;stroke-miterlimit:10;"/><text fill="#000000" font-family="sans-serif" font-size="13" lengthAdjust="spacing" textLength="135.478" x="377.55" y="568.4628">wunschVertragsform</text><text fill="#000000" font-family="sans-serif" font-size="13" lengthAdjust="spacing" textLength="24.8066" x="578.9037" y="642.709">0..1</text></g><?plantuml-src lLPjJzim4FwUNs65RqXzOuoXQ9fKe69eBKmK-41NJKvoJInifx8TEZhnttTn6vOceRJJQ2krlhldpkTxipbC3349KIoA3GcPWi2mH3fEmAdMn1sDOcEcsckr_EGGcX4pSUetMT8wkJhiDQPF9avaw_6WVN3K_jJiDDijEcKBQ928Pcm4tnD9c79el31fgdKGAs1-AYFD4qswPSvu_4D-rcmENgVz9TEf85n2Q_J8RuVWvoSBYKUqKMJKRZOxumNJF4sHssS65EKZjtix79v-lUvTdDnUdW_xLqDtl09_1AKn4bL3LCvfpFiC9eWmm3ba82PD4UI30FM0RbNrVJ0AKdEMgY2kayw11R6iLSKZobIWvLNHi-D8Aa1FQG34pGDjGvGJPA_NxXuVdIuZjAliXc0euwL4BPXlv7W1gadpqkG_P_giTzEzw6-QRAPDdseJKHdT9IgcChJPzfE45s6OwH2gseAg1yEJ1vhrbBu8tqAiJRu4CxUrm_no0UHYy472eZ9VDM4n0z2w5Z6d47DGzLNslfKZG4P01jblfJOirnQ3NMsJ_K7lyhotQRfde0no9poXPbVdnfGRHLD1xfUBokbpWGr0JcmJW_lUnSrrztQmQHX2cjQL6CWmf0QtzX1Xe2HAOvKT1OM6YHMXDbIPrpIji5xt6R_bmGOoBKosZ29xOIVuyF7uVussp6OrKvOxnURJoCMXJxx_NQyap08BGkjiWKOtdz_TKRp6xHJH7AAipwzNwQh39O1rkiJRYUEOQeNrCRH_LJSNVElTOhaJfx1FiEKYFKcK87S5ekfWKMhTB3AiitXPLzyjZSO-SR7ezztwsyuZlFZUM6EXuov7f4SYq5GOIsscC4ibWWRq5nEKYwtr6Dw1scoWzpB2ycFb8t1ZjHc345ISy0o6JozGZvJppTMjmzzId5fCPhMj9mfl-Ytrx_4PcE7c3DxOkjZ-7YbCaVLgvGRCDoxnrnjPzec78nfKn02fzGeh5PjlMMGwJipmjID0u4D4EpfEPgJwGYSJ34ke_m00?></g></svg>