<svg xmlns="http://www.w3.org/2000/svg" xmlns:xlink="http://www.w3.org/1999/xlink" contentStyleType="text/css" data-diagram-type="CLASS" height="177px" preserveAspectRatio="none" style="width:683px;height:177px;background:#FFFFFF;" version="1.1" viewBox="0 0 683 177" width="683px" zoomAndPan="magnify"><?plantuml 1.2026.6?><defs/><g><!--cluster bo4e--><g class="cluster" data-qualified-name="bo4e" data-source-line="11" id="ent0004"><path d="M454.01,6 L493.886,6 A3.75,3.75 0 0 1 496.386,8.5 L503.386,28.2969 L665.67,28.2969 A2.5,2.5 0 0 1 668.17,30.7969 L668.17,159.5 A2.5,2.5 0 0 1 665.67,162 L454.01,162 A2.5,2.5 0 0 1 451.51,159.5 L451.51,8.5 A2.5,2.5 0 0 1 454.01,6" fill="none" style="stroke:#000000;stroke-width:1.5;"/><line style="stroke:#000000;stroke-width:1.5;" x1="451.51" x2="503.386" y1="28.2969" y2="28.2969"/><text fill="#000000" font-family="sans-serif" font-size="14" font-weight="700" lengthAdjust="spacing" textLength="38.876" x="455.51" y="20.9951">bo4e</text></g><!--cluster enum--><g class="cluster" data-qualified-name="bo4e.enum" data-source-line="10" id="ent0002"><path d="M478.01,49 L567.2209,49 A3.75,3.75 0 0 1 569.7209,51.5 L576.7209,71.2969 L641.67,71.2969 A2.5,2.5 0 0 1 644.17,73.7969 L644.17,135.5 A2.5,2.5 0 0 1 641.67,138 L478.01,138 A2.5,2.5 0 0 1 475.51,135.5 L475.51,51.5 A2.5,2.5 0 0 1 478.01,49" fill="#D1C358" style="stroke:#000000;stroke-width:1.5;"/><line style="stroke:#000000;stroke-width:1.5;" x1="475.51" x2="576.7209" y1="71.2969" y2="71.2969"/><text fill="#000000" font-family="sans-serif" font-size="14" font-weight="700" lengthAdjust="spacing" textLength="88.2109" x="479.51" y="63.9951">bo4e.enum</text></g><!--class Erzeugungsart--><g class="entity" data-qualified-name="bo4e.enum.Erzeugungsart" data-source-line="11" id="ent0003"><rect fill="#F1F1F1" height="37.9375" rx="2.5" ry="2.5" style="stroke:#181818;stroke-width:0.5;" width="136.6582" x="491.51" y="84.03"/><ellipse cx="506.51" cy="102.9988" fill="#ADD1B2" rx="11" ry="11" style="stroke:#181818;stroke-width:1;"/><path d="M509.4788,108.6394 Q508.9006,108.9363 508.26,109.0769 Q507.6194,109.2331 506.9163,109.2331 Q504.4163,109.2331 503.0881,107.5925 Q501.7756,105.9363 501.7756,102.8113 Q501.7756,99.6863 503.0881,98.03 Q504.4163,96.3738 506.9163,96.3738 Q507.6194,96.3738 508.26,96.53 Q508.9163,96.6863 509.4788,96.9831 L509.4788,99.7019 Q508.8538,99.1238 508.26,98.8581 Q507.6663,98.5769 507.0413,98.5769 Q505.6975,98.5769 505.01,99.655 Q504.3225,100.7175 504.3225,102.8113 Q504.3225,104.905 505.01,105.9831 Q505.6975,107.0456 507.0413,107.0456 Q507.6663,107.0456 508.26,106.78 Q508.8538,106.4988 509.4788,105.9206 L509.4788,108.6394 Z " fill="#000000"/><a href="https://bo4e.github.io/BO4E-python/v202607.1.0/api/bo4e.enum.html#module-bo4e.enum.erzeugungsart" target="_top" title="https://bo4e.github.io/BO4E-python/v202607.1.0/api/bo4e.enum.html#module-bo4e.enum.erzeugungsart" xlink:actuate="onRequest" xlink:href="https://bo4e.github.io/BO4E-python/v202607.1.0/api/bo4e.enum.html#module-bo4e.enum.erzeugungsart" xlink:show="new" xlink:title="https://bo4e.github.io/BO4E-python/v202607.1.0/api/bo4e.enum.html#module-bo4e.enum.erzeugungsart" xlink:type="simple"><text fill="#0000FF" font-family="sans-serif" font-size="14" lengthAdjust="spacing" text-decoration="underline" textLength="102.0742" x="521.802" y="102.0251">Erzeugungsart</text></a><text fill="#000000" font-family="sans-serif" font-size="10" lengthAdjust="spacing" textLength="104.6582" x="520.51" y="114.6091">enum.Erzeugungsart</text></g><!--class Energieherkunft--><g class="entity" data-qualified-name="Energieherkunft" data-source-line="3" id="ent0001"><rect fill="#F1F1F1" height="111.125" rx="2.5" ry="2.5" style="stroke:#181818;stroke-width:0.5;" width="302.5068" x="7" y="47.44"/><ellipse cx="97.5078" cy="66.4088" fill="#ADD1B2" rx="11" ry="11" style="stroke:#181818;stroke-width:1;"/><path d="M100.4766,72.0494 Q99.8984,72.3463 99.2578,72.4869 Q98.6172,72.6431 97.9141,72.6431 Q95.4141,72.6431 94.0859,71.0025 Q92.7734,69.3463 92.7734,66.2213 Q92.7734,63.0963 94.0859,61.44 Q95.4141,59.7838 97.9141,59.7838 Q98.6172,59.7838 99.2578,59.94 Q99.9141,60.0963 100.4766,60.3931 L100.4766,63.1119 Q99.8516,62.5338 99.2578,62.2681 Q98.6641,61.9869 98.0391,61.9869 Q96.6953,61.9869 96.0078,63.065 Q95.3203,64.1275 95.3203,66.2213 Q95.3203,68.315 96.0078,69.3931 Q96.6953,70.4556 98.0391,70.4556 Q98.6641,70.4556 99.2578,70.19 Q99.8516,69.9088 100.4766,69.3306 L100.4766,72.0494 Z " fill="#000000"/><a href="https://bo4e.github.io/BO4E-python/v202607.1.0/api/bo4e.com.html#module-bo4e.com.energieherkunft" target="_top" title="https://bo4e.github.io/BO4E-python/v202607.1.0/api/bo4e.com.html#module-bo4e.com.energieherkunft" xlink:actuate="onRequest" xlink:href="https://bo4e.github.io/BO4E-python/v202607.1.0/api/bo4e.com.html#module-bo4e.com.energieherkunft" xlink:show="new" xlink:title="https://bo4e.github.io/BO4E-python/v202607.1.0/api/bo4e.com.html#module-bo4e.com.energieherkunft" xlink:type="simple"><text fill="#0000FF" font-family="sans-serif" font-size="14" lengthAdjust="spacing" text-decoration="underline" textLength="112.9912" x="118.0078" y="65.4351">Energieherkunft</text></a><text fill="#000000" font-family="sans-serif" font-size="10" lengthAdjust="spacing" textLength="105.2441" x="121.8813" y="78.0191">com.Energieherkunft</text><line style="stroke:#181818;stroke-width:0.5;" x1="8" x2="308.5068" y1="85.3775" y2="85.3775"/><text fill="#000000" font-family="sans-serif" font-size="14" lengthAdjust="spacing" textLength="94.0215" x="13" y="102.3726">_id : str [0..1]</text><text fill="#000000" font-family="sans-serif" font-size="14" lengthAdjust="spacing" textLength="290.5068" x="13" y="118.6695">_typ : Literal["ENERGIEHERKUNFT"] [0..1]</text><text fill="#000000" font-family="sans-serif" font-size="14" lengthAdjust="spacing" textLength="132.5215" x="13" y="134.9664">_version : str [0..1]</text><text fill="#000000" font-family="sans-serif" font-size="14" lengthAdjust="spacing" textLength="179.5801" x="13" y="151.2632">anteilProzent : float [0..1]</text></g><!--link Energieherkunft to Erzeugungsart--><g class="link" data-entity-1="ent0001" data-entity-2="ent0003" data-link-type="composition" data-source-line="15" id="lnk5"><path codeLine="15" d="M309.75,103 C372.25,103 429.61,103 479.23,103" fill="none" id="Energieherkunft-to-Erzeugungsart" style="stroke:#181818;stroke-width:1;"/><polygon fill="#181818" points="491.23,103,485.23,99,479.23,103,485.23,107,491.23,103" style="stroke:#181818;stroke-width:1;stroke-linejoin:miter;stroke-miterlimit:10;"/><text fill="#000000" font-family="sans-serif" font-size="13" lengthAdjust="spacing" textLength="94.5674" x="340.51" y="99.0669">erzeugungsart</text><text fill="#000000" font-family="sans-serif" font-size="13" lengthAdjust="spacing" textLength="24.8066" x="458.4575" y="115.8946">0..1</text></g><?plantuml-src fL79JiCm5BpxAvxI6rAsKXP5Y0DIM0Ggg89JY92RlCOMZXtPJb5RyUzrKwX8UiItcJTlcR70XGMhGFEAMIYvni9o9Gaf13K6l2nZrZOc2SEvcc1GSSlQUS1LUFCyIVrcPPcIuN8SZS-ZYo0Eef0sV2yjL1qmMujHhSfMe7yWKQAkE3BKdwrqszC-plDtUMNu6fCukjxf1tKFg1dsm8Q0Un-yX0ICrP15GH3dUzAk6iS-SOkQYinBf-dixY6zJsUFRzFRLo_lYPUeZVD_F8PAYroyQBL6QLrv8HIrlu9lGYIjqJIqGF0wfoZRkZlrW61KniNfsUNFiVyEU3VpEE6EHRt6jcfbPQXs0Vz5lNWxSQ-yJxVNld7sdC5XvBv_0jxElZVG9z1RJmZZ9KADzTnbImnJNp3yKrXm5ANP0W00?></g></svg>