<svg xmlns="http://www.w3.org/2000/svg" xmlns:xlink="http://www.w3.org/1999/xlink" contentStyleType="text/css" data-diagram-type="CLASS" height="509px" preserveAspectRatio="none" style="width:898px;height:509px;background:#FFFFFF;" version="1.1" viewBox="0 0 898 509" width="898px" zoomAndPan="magnify"><?plantuml 1.2026.6?><defs/><g><!--cluster bo4e--><g class="cluster" data-qualified-name="bo4e" data-source-line="11" id="ent0004"><path d="M595.02,6 L634.896,6 A3.75,3.75 0 0 1 637.396,8.5 L644.396,28.2969 L880.54,28.2969 A2.5,2.5 0 0 1 883.04,30.7969 L883.04,491.5 A2.5,2.5 0 0 1 880.54,494 L595.02,494 A2.5,2.5 0 0 1 592.52,491.5 L592.52,8.5 A2.5,2.5 0 0 1 595.02,6" fill="none" style="stroke:#000000;stroke-width:1.5;"/><line style="stroke:#000000;stroke-width:1.5;" x1="592.52" x2="644.396" y1="28.2969" y2="28.2969"/><text fill="#000000" font-family="sans-serif" font-size="14" font-weight="700" lengthAdjust="spacing" textLength="38.876" x="596.52" y="20.9951">bo4e</text></g><!--cluster com--><g class="cluster" data-qualified-name="bo4e.com" data-source-line="10" id="ent0002"><path d="M668.26,49 L745.9592,49 A3.75,3.75 0 0 1 748.4592,51.5 L755.4592,71.2969 L807.31,71.2969 A2.5,2.5 0 0 1 809.81,73.7969 L809.81,135.5 A2.5,2.5 0 0 1 807.31,138 L668.26,138 A2.5,2.5 0 0 1 665.76,135.5 L665.76,51.5 A2.5,2.5 0 0 1 668.26,49" fill="#E0A86C" style="stroke:#000000;stroke-width:1.5;"/><line style="stroke:#000000;stroke-width:1.5;" x1="665.76" x2="755.4592" y1="71.2969" y2="71.2969"/><text fill="#000000" font-family="sans-serif" font-size="14" font-weight="700" lengthAdjust="spacing" textLength="76.6992" x="669.76" y="63.9951">bo4e.com</text></g><!--cluster enum--><g class="cluster" data-qualified-name="bo4e.enum" data-source-line="22" id="ent0005"><path d="M619.02,162 L708.2309,162 A3.75,3.75 0 0 1 710.7309,164.5 L717.7309,184.2969 L856.54,184.2969 A2.5,2.5 0 0 1 859.04,186.7969 L859.04,467.5 A2.5,2.5 0 0 1 856.54,470 L619.02,470 A2.5,2.5 0 0 1 616.52,467.5 L616.52,164.5 A2.5,2.5 0 0 1 619.02,162" fill="#D1C358" style="stroke:#000000;stroke-width:1.5;"/><line style="stroke:#000000;stroke-width:1.5;" x1="616.52" x2="717.7309" y1="184.2969" y2="184.2969"/><text fill="#000000" font-family="sans-serif" font-size="14" font-weight="700" lengthAdjust="spacing" textLength="88.2109" x="620.52" y="176.9951">bo4e.enum</text></g><!--class Preisstaffel--><g class="entity" data-qualified-name="bo4e.com.Preisstaffel" data-source-line="11" id="ent0003"><rect fill="#F1F1F1" height="37.9375" rx="2.5" ry="2.5" style="stroke:#181818;stroke-width:0.5;" width="112.0488" x="681.76" y="84.03"/><ellipse cx="696.76" cy="102.9987" fill="#ADD1B2" rx="11" ry="11" style="stroke:#181818;stroke-width:1;"/><path d="M699.7288,108.6394 Q699.1506,108.9362 698.51,109.0769 Q697.8694,109.2331 697.1663,109.2331 Q694.6663,109.2331 693.3381,107.5925 Q692.0256,105.9362 692.0256,102.8112 Q692.0256,99.6862 693.3381,98.03 Q694.6663,96.3737 697.1663,96.3737 Q697.8694,96.3737 698.51,96.53 Q699.1663,96.6862 699.7288,96.9831 L699.7288,99.7019 Q699.1038,99.1237 698.51,98.8581 Q697.9163,98.5769 697.2913,98.5769 Q695.9475,98.5769 695.26,99.655 Q694.5725,100.7175 694.5725,102.8112 Q694.5725,104.905 695.26,105.9831 Q695.9475,107.0456 697.2913,107.0456 Q697.9163,107.0456 698.51,106.78 Q699.1038,106.4987 699.7288,105.9206 L699.7288,108.6394 Z " fill="#000000"/><a href="https://bo4e.github.io/BO4E-python/v202607.1.0/api/bo4e.com.html#module-bo4e.com.preisstaffel" target="_top" title="https://bo4e.github.io/BO4E-python/v202607.1.0/api/bo4e.com.html#module-bo4e.com.preisstaffel" xlink:actuate="onRequest" xlink:href="https://bo4e.github.io/BO4E-python/v202607.1.0/api/bo4e.com.html#module-bo4e.com.preisstaffel" xlink:show="new" xlink:title="https://bo4e.github.io/BO4E-python/v202607.1.0/api/bo4e.com.html#module-bo4e.com.preisstaffel" xlink:type="simple"><text fill="#0000FF" font-family="sans-serif" font-size="14" lengthAdjust="spacing" text-decoration="underline" textLength="77.7178" x="711.9255" y="102.0251">Preisstaffel</text></a><text fill="#000000" font-family="sans-serif" font-size="10" lengthAdjust="spacing" textLength="80.0488" x="710.76" y="114.6091">com.Preisstaffel</text></g><!--class Mengeneinheit--><g class="entity" data-qualified-name="bo4e.enum.Mengeneinheit" data-source-line="23" id="ent0006"><rect fill="#F1F1F1" height="37.9375" rx="2.5" ry="2.5" style="stroke:#181818;stroke-width:0.5;" width="138.1621" x="668.7" y="197.03"/><ellipse cx="683.7" cy="215.9987" fill="#ADD1B2" rx="11" ry="11" style="stroke:#181818;stroke-width:1;"/><path d="M686.6688,221.6394 Q686.0906,221.9362 685.45,222.0769 Q684.8094,222.2331 684.1063,222.2331 Q681.6063,222.2331 680.2781,220.5925 Q678.9656,218.9362 678.9656,215.8112 Q678.9656,212.6862 680.2781,211.03 Q681.6063,209.3737 684.1063,209.3737 Q684.8094,209.3737 685.45,209.53 Q686.1063,209.6862 686.6688,209.9831 L686.6688,212.7019 Q686.0438,212.1237 685.45,211.8581 Q684.8563,211.5769 684.2313,211.5769 Q682.8875,211.5769 682.2,212.655 Q681.5125,213.7175 681.5125,215.8112 Q681.5125,217.905 682.2,218.9831 Q682.8875,220.0456 684.2313,220.0456 Q684.8563,220.0456 685.45,219.78 Q686.0438,219.4987 686.6688,218.9206 L686.6688,221.6394 Z " fill="#000000"/><a href="https://bo4e.github.io/BO4E-python/v202607.1.0/api/bo4e.enum.html#module-bo4e.enum.mengeneinheit" target="_top" title="https://bo4e.github.io/BO4E-python/v202607.1.0/api/bo4e.enum.html#module-bo4e.enum.mengeneinheit" xlink:actuate="onRequest" xlink:href="https://bo4e.github.io/BO4E-python/v202607.1.0/api/bo4e.enum.html#module-bo4e.enum.mengeneinheit" xlink:show="new" xlink:title="https://bo4e.github.io/BO4E-python/v202607.1.0/api/bo4e.enum.html#module-bo4e.enum.mengeneinheit" xlink:type="simple"><text fill="#0000FF" font-family="sans-serif" font-size="14" lengthAdjust="spacing" text-decoration="underline" textLength="104.1797" x="698.6912" y="215.0251">Mengeneinheit</text></a><text fill="#000000" font-family="sans-serif" font-size="10" lengthAdjust="spacing" textLength="106.1621" x="697.7" y="227.6091">enum.Mengeneinheit</text></g><!--class Preisreferenz--><g class="entity" data-qualified-name="bo4e.enum.Preisreferenz" data-source-line="25" id="ent0007"><rect fill="#F1F1F1" height="37.9375" rx="2.5" ry="2.5" style="stroke:#181818;stroke-width:0.5;" width="129.8174" x="672.87" y="270.03"/><ellipse cx="687.87" cy="288.9988" fill="#ADD1B2" rx="11" ry="11" style="stroke:#181818;stroke-width:1;"/><path d="M690.8388,294.6394 Q690.2606,294.9363 689.62,295.0769 Q688.9794,295.2331 688.2763,295.2331 Q685.7763,295.2331 684.4481,293.5925 Q683.1356,291.9363 683.1356,288.8113 Q683.1356,285.6863 684.4481,284.03 Q685.7763,282.3738 688.2763,282.3738 Q688.9794,282.3738 689.62,282.53 Q690.2763,282.6863 690.8388,282.9831 L690.8388,285.7019 Q690.2138,285.1238 689.62,284.8581 Q689.0263,284.5769 688.4013,284.5769 Q687.0575,284.5769 686.37,285.655 Q685.6825,286.7175 685.6825,288.8113 Q685.6825,290.905 686.37,291.9831 Q687.0575,293.0456 688.4013,293.0456 Q689.0263,293.0456 689.62,292.78 Q690.2138,292.4988 690.8388,291.9206 L690.8388,294.6394 Z " fill="#000000"/><a href="https://bo4e.github.io/BO4E-python/v202607.1.0/api/bo4e.enum.html#module-bo4e.enum.preisreferenz" target="_top" title="https://bo4e.github.io/BO4E-python/v202607.1.0/api/bo4e.enum.html#module-bo4e.enum.preisreferenz" xlink:actuate="onRequest" xlink:href="https://bo4e.github.io/BO4E-python/v202607.1.0/api/bo4e.enum.html#module-bo4e.enum.preisreferenz" xlink:show="new" xlink:title="https://bo4e.github.io/BO4E-python/v202607.1.0/api/bo4e.enum.html#module-bo4e.enum.preisreferenz" xlink:type="simple"><text fill="#0000FF" font-family="sans-serif" font-size="14" lengthAdjust="spacing" text-decoration="underline" textLength="92.4971" x="704.5302" y="288.0251">Preisreferenz</text></a><text fill="#000000" font-family="sans-serif" font-size="10" lengthAdjust="spacing" textLength="97.8174" x="701.87" y="300.6091">enum.Preisreferenz</text></g><!--class Tarifkalkulationsmethode--><g class="entity" data-qualified-name="bo4e.enum.Tarifkalkulationsmethode" data-source-line="27" id="ent0008"><rect fill="#F1F1F1" height="37.9375" rx="2.5" ry="2.5" style="stroke:#181818;stroke-width:0.5;" width="210.5205" x="632.52" y="343.03"/><ellipse cx="647.52" cy="361.9988" fill="#ADD1B2" rx="11" ry="11" style="stroke:#181818;stroke-width:1;"/><path d="M650.4888,367.6394 Q649.9106,367.9363 649.27,368.0769 Q648.6294,368.2331 647.9263,368.2331 Q645.4263,368.2331 644.0981,366.5925 Q642.7856,364.9363 642.7856,361.8113 Q642.7856,358.6863 644.0981,357.03 Q645.4263,355.3738 647.9263,355.3738 Q648.6294,355.3738 649.27,355.53 Q649.9263,355.6863 650.4888,355.9831 L650.4888,358.7019 Q649.8638,358.1238 649.27,357.8581 Q648.6763,357.5769 648.0513,357.5769 Q646.7075,357.5769 646.02,358.655 Q645.3325,359.7175 645.3325,361.8113 Q645.3325,363.905 646.02,364.9831 Q646.7075,366.0456 648.0513,366.0456 Q648.6763,366.0456 649.27,365.78 Q649.8638,365.4988 650.4888,364.9206 L650.4888,367.6394 Z " fill="#000000"/><a href="https://bo4e.github.io/BO4E-python/v202607.1.0/api/bo4e.enum.html#module-bo4e.enum.tarifkalkulationsmethode" target="_top" title="https://bo4e.github.io/BO4E-python/v202607.1.0/api/bo4e.enum.html#module-bo4e.enum.tarifkalkulationsmethode" xlink:actuate="onRequest" xlink:href="https://bo4e.github.io/BO4E-python/v202607.1.0/api/bo4e.enum.html#module-bo4e.enum.tarifkalkulationsmethode" xlink:show="new" xlink:title="https://bo4e.github.io/BO4E-python/v202607.1.0/api/bo4e.enum.html#module-bo4e.enum.tarifkalkulationsmethode" xlink:type="simple"><text fill="#0000FF" font-family="sans-serif" font-size="14" lengthAdjust="spacing" text-decoration="underline" textLength="178.5205" x="661.52" y="361.0251">Tarifkalkulationsmethode</text></a><text fill="#000000" font-family="sans-serif" font-size="10" lengthAdjust="spacing" textLength="159.2627" x="671.1489" y="373.6091">enum.Tarifkalkulationsmethode</text></g><!--class Waehrungseinheit--><g class="entity" data-qualified-name="bo4e.enum.Waehrungseinheit" data-source-line="29" id="ent0009"><rect fill="#F1F1F1" height="37.9375" rx="2.5" ry="2.5" style="stroke:#181818;stroke-width:0.5;" width="159.832" x="657.87" y="416.03"/><ellipse cx="672.87" cy="434.9988" fill="#ADD1B2" rx="11" ry="11" style="stroke:#181818;stroke-width:1;"/><path d="M675.8388,440.6394 Q675.2606,440.9363 674.62,441.0769 Q673.9794,441.2331 673.2763,441.2331 Q670.7763,441.2331 669.4481,439.5925 Q668.1356,437.9363 668.1356,434.8113 Q668.1356,431.6863 669.4481,430.03 Q670.7763,428.3738 673.2763,428.3738 Q673.9794,428.3738 674.62,428.53 Q675.2763,428.6863 675.8388,428.9831 L675.8388,431.7019 Q675.2138,431.1238 674.62,430.8581 Q674.0263,430.5769 673.4013,430.5769 Q672.0575,430.5769 671.37,431.655 Q670.6825,432.7175 670.6825,434.8113 Q670.6825,436.905 671.37,437.9831 Q672.0575,439.0456 673.4013,439.0456 Q674.0263,439.0456 674.62,438.78 Q675.2138,438.4988 675.8388,437.9206 L675.8388,440.6394 Z " fill="#000000"/><a href="https://bo4e.github.io/BO4E-python/v202607.1.0/api/bo4e.enum.html#module-bo4e.enum.waehrungseinheit" target="_top" title="https://bo4e.github.io/BO4E-python/v202607.1.0/api/bo4e.enum.html#module-bo4e.enum.waehrungseinheit" xlink:actuate="onRequest" xlink:href="https://bo4e.github.io/BO4E-python/v202607.1.0/api/bo4e.enum.html#module-bo4e.enum.waehrungseinheit" xlink:show="new" xlink:title="https://bo4e.github.io/BO4E-python/v202607.1.0/api/bo4e.enum.html#module-bo4e.enum.waehrungseinheit" xlink:type="simple"><text fill="#0000FF" font-family="sans-serif" font-size="14" lengthAdjust="spacing" text-decoration="underline" textLength="127.832" x="686.87" y="434.0251">Waehrungseinheit</text></a><text fill="#000000" font-family="sans-serif" font-size="10" lengthAdjust="spacing" textLength="123.0566" x="689.2577" y="446.6091">enum.Waehrungseinheit</text></g><!--class LastvariablePreisposition--><g class="entity" data-qualified-name="LastvariablePreisposition" data-source-line="3" id="ent0001"><rect fill="#F1F1F1" height="111.125" rx="2.5" ry="2.5" style="stroke:#181818;stroke-width:0.5;" width="375.5215" x="7" y="209.44"/><ellipse cx="102.9663" cy="228.4088" fill="#ADD1B2" rx="11" ry="11" style="stroke:#181818;stroke-width:1;"/><path d="M105.9351,234.0494 Q105.3569,234.3463 104.7163,234.4869 Q104.0757,234.6431 103.3726,234.6431 Q100.8726,234.6431 99.5444,233.0025 Q98.2319,231.3463 98.2319,228.2213 Q98.2319,225.0963 99.5444,223.44 Q100.8726,221.7838 103.3726,221.7838 Q104.0757,221.7838 104.7163,221.94 Q105.3726,222.0963 105.9351,222.3931 L105.9351,225.1119 Q105.3101,224.5338 104.7163,224.2681 Q104.1226,223.9869 103.4976,223.9869 Q102.1538,223.9869 101.4663,225.065 Q100.7788,226.1275 100.7788,228.2213 Q100.7788,230.315 101.4663,231.3931 Q102.1538,232.4556 103.4976,232.4556 Q104.1226,232.4556 104.7163,232.19 Q105.3101,231.9088 105.9351,231.3306 L105.9351,234.0494 Z " fill="#000000"/><a href="https://bo4e.github.io/BO4E-python/v202607.1.0/api/bo4e.com.html#module-bo4e.com.lastvariablepreisposition" target="_top" title="https://bo4e.github.io/BO4E-python/v202607.1.0/api/bo4e.com.html#module-bo4e.com.lastvariablepreisposition" xlink:actuate="onRequest" xlink:href="https://bo4e.github.io/BO4E-python/v202607.1.0/api/bo4e.com.html#module-bo4e.com.lastvariablepreisposition" xlink:show="new" xlink:title="https://bo4e.github.io/BO4E-python/v202607.1.0/api/bo4e.com.html#module-bo4e.com.lastvariablepreisposition" xlink:type="simple"><text fill="#0000FF" font-family="sans-serif" font-size="14" lengthAdjust="spacing" text-decoration="underline" textLength="175.0889" x="123.4663" y="227.4351">LastvariablePreisposition</text></a><text fill="#000000" font-family="sans-serif" font-size="10" lengthAdjust="spacing" textLength="149.5996" x="136.2109" y="240.0191">com.LastvariablePreisposition</text><line style="stroke:#181818;stroke-width:0.5;" x1="8" x2="381.5215" y1="247.3775" y2="247.3775"/><text fill="#000000" font-family="sans-serif" font-size="14" lengthAdjust="spacing" textLength="94.0215" x="13" y="264.3726">_id : str [0..1]</text><text fill="#000000" font-family="sans-serif" font-size="14" lengthAdjust="spacing" textLength="363.5215" x="13" y="280.6695">_typ : Literal["LASTVARIABLEPREISPOSITION"] [0..1]</text><text fill="#000000" font-family="sans-serif" font-size="14" lengthAdjust="spacing" textLength="132.5215" x="13" y="296.9664">_version : str [0..1]</text><text fill="#000000" font-family="sans-serif" font-size="14" lengthAdjust="spacing" textLength="163.6729" x="13" y="313.2632">bezeichnung : str [0..1]</text></g><!--link LastvariablePreisposition to Preisstaffel--><g class="link" data-entity-1="ent0001" data-entity-2="ent0003" data-link-type="composition" data-source-line="33" id="lnk10"><path codeLine="33" d="M341.08,208.97 C364.81,200.51 389.25,192.22 412.52,185 C505.84,156.07 604.8542,132.3908 669.7942,117.7408" fill="none" id="LastvariablePreisposition-to-Preisstaffel" style="stroke:#181818;stroke-width:1;"/><polygon fill="#181818" points="681.5,115.1,674.7668,112.5184,669.7942,117.7408,676.5273,120.3223,681.5,115.1" style="stroke:#181818;stroke-width:1;stroke-linejoin:miter;stroke-miterlimit:10;"/><text fill="#000000" font-family="sans-serif" font-size="13" lengthAdjust="spacing" textLength="80.8184" x="454.52" y="137.3669">preisstaffeln</text><text fill="#000000" font-family="sans-serif" font-size="13" lengthAdjust="spacing" textLength="23.0356" x="650.6645" y="129.441">0..*</text></g><!--link LastvariablePreisposition to Mengeneinheit--><g class="link" data-entity-1="ent0001" data-entity-2="ent0006" data-link-type="composition" data-source-line="34" id="lnk11"><path codeLine="34" d="M382.76,221.92 C392.8,220.4 402.76,219.08 412.52,218 C500.37,208.31 590.4391,209.2816 656.2291,211.8516" fill="none" id="LastvariablePreisposition-to-Mengeneinheit" style="stroke:#181818;stroke-width:1;"/><polygon fill="#181818" points="668.22,212.32,662.3807,208.0888,656.2291,211.8516,662.0684,216.0827,668.22,212.32" style="stroke:#181818;stroke-width:1;stroke-linejoin:miter;stroke-miterlimit:10;"/><text fill="#000000" font-family="sans-serif" font-size="13" lengthAdjust="spacing" textLength="123.7793" x="433.02" y="206.4869">preisBezugseinheit</text><text fill="#000000" font-family="sans-serif" font-size="13" lengthAdjust="spacing" textLength="24.8066" x="635.8506" y="224.7878">0..1</text></g><!--link LastvariablePreisposition to Mengeneinheit--><g class="link" data-entity-1="ent0001" data-entity-2="ent0006" data-link-type="composition" data-source-line="35" id="lnk12"><path codeLine="35" d="M382.99,258.26 C444.74,254.95 513.68,250.09 576.52,243 C606.8,239.58 628.2455,236.3518 656.5755,231.3118" fill="none" id="LastvariablePreisposition-to-Mengeneinheit-1" style="stroke:#181818;stroke-width:1;"/><polygon fill="#181818" points="668.39,229.21,661.7821,226.3228,656.5755,231.3118,663.1834,234.1991,668.39,229.21" style="stroke:#181818;stroke-width:1;stroke-linejoin:miter;stroke-miterlimit:10;"/><text fill="#000000" font-family="sans-serif" font-size="13" lengthAdjust="spacing" textLength="138.29" x="425.52" y="239.0669">staffelgrenzeneinheit</text><text fill="#000000" font-family="sans-serif" font-size="13" lengthAdjust="spacing" textLength="24.8066" x="636.0381" y="243.4196">0..1</text></g><!--link LastvariablePreisposition to Preisreferenz--><g class="link" data-entity-1="ent0001" data-entity-2="ent0007" data-link-type="composition" data-source-line="36" id="lnk13"><path codeLine="36" d="M382.98,293.47 C392.96,294.45 402.85,295.31 412.52,296 C485.23,301.17 503.65,297.59 576.52,296 C608.12,295.31 631.2139,294.4374 660.4839,293.0274" fill="none" id="LastvariablePreisposition-to-Preisreferenz" style="stroke:#181818;stroke-width:1;"/><polygon fill="#181818" points="672.47,292.45,666.2845,288.7433,660.4839,293.0274,666.6694,296.7341,672.47,292.45" style="stroke:#181818;stroke-width:1;stroke-linejoin:miter;stroke-miterlimit:10;"/><text fill="#000000" font-family="sans-serif" font-size="13" lengthAdjust="spacing" textLength="86.3027" x="451.52" y="292.0669">preisreferenz</text><text fill="#000000" font-family="sans-serif" font-size="13" lengthAdjust="spacing" textLength="24.8066" x="640.0585" y="305.722">0..1</text></g><!--link LastvariablePreisposition to Tarifkalkulationsmethode--><g class="link" data-entity-1="ent0001" data-entity-2="ent0008" data-link-type="composition" data-source-line="37" id="lnk14"><path codeLine="37" d="M382.75,317.76 C392.79,320.01 402.76,322.11 412.52,324 C485.28,338.08 556.3534,346.5595 620.1834,352.5995" fill="none" id="LastvariablePreisposition-to-Tarifkalkulationsmethode" style="stroke:#181818;stroke-width:1;"/><polygon fill="#181818" points="632.13,353.73,626.5335,349.1826,620.1834,352.5995,625.7799,357.147,632.13,353.73" style="stroke:#181818;stroke-width:1;stroke-linejoin:miter;stroke-miterlimit:10;"/><text fill="#000000" font-family="sans-serif" font-size="13" lengthAdjust="spacing" textLength="162.9253" x="413.52" y="320.0669">tarifkalkulationsmethode</text><text fill="#000000" font-family="sans-serif" font-size="13" lengthAdjust="spacing" textLength="24.8066" x="599.8861" y="365.7475">0..1</text></g><!--link LastvariablePreisposition to Waehrungseinheit--><g class="link" data-entity-1="ent0001" data-entity-2="ent0009" data-link-type="composition" data-source-line="38" id="lnk15"><path codeLine="38" d="M295.11,320.98 C331.19,339.43 372.85,358.62 412.52,372 C493.9,399.44 579.1453,414.6704 645.7453,423.9704" fill="none" id="LastvariablePreisposition-to-Waehrungseinheit" style="stroke:#181818;stroke-width:1;"/><polygon fill="#181818" points="657.63,425.63,652.2408,420.8387,645.7453,423.9704,651.1345,428.7618,657.63,425.63" style="stroke:#181818;stroke-width:1;stroke-linejoin:miter;stroke-miterlimit:10;"/><text fill="#000000" font-family="sans-serif" font-size="13" lengthAdjust="spacing" textLength="150.6807" x="419.52" y="368.0669">preisWaehrungseinheit</text><text fill="#000000" font-family="sans-serif" font-size="13" lengthAdjust="spacing" textLength="24.8066" x="625.1715" y="437.5307">0..1</text></g><?plantuml-src lLLTYzf057tFhxZ4jmLZijrkbr0AMbmGR9LLjWzMofZScC799CnCNDRYV-za_6W-26ZfhZxTSwudvtxaoZ1Ie58GT1qh2Ad0GD6KMrR0Y9HWBnQnKfdqUxrLUeVEcgeuNpaqxGqcTyDkzghYbFUsj-xjlVl9yHotHp9wI0tIn8bLmZf96kOCksTG2wij4PIi66O2gSnIIOk7mhZ4JClCSlcJVvPqXxxdVYaqMZDj8B9T1tvRe3-_Q0W-I2LWuJgEjpo0wZNJw9Wg58Gjx75_Dd_kFutwW_5m-ZGSpQQJsMW-cdotbvMVRL78GheXkC8TqY3cELzNoRrbSPAWp4Y0O9_wOfoV0kWCtVx3_TUZuRSRXXc0L2IAaC6q53HQNYQDrp9mJMDDCsVp_kFZS7nfBubGT8Di55xHve8qvMauOYbHPUBeUosGxt1mGSwpiLN9sUjlVP38yz8aYmWweHTy-FZmlqPPQ3PdQT04-HevKXuZLV2j75N6QP8hjB5SGRJT_PiRDkCH667HuiD2dQAcuGhzTmFFFtyFmqfVbMX3s2Pdf3WeCa6j4oBCMuXc6MsPfg8sybsAUo4O2_qQoTCA_AW1pMBg6QQ8EcZCwwFNVfQxtHkmzKjrOrUlYW_b-yGlKF3isXeV9GQuoy-6_asdSWxuLLBLHJrQEiMNIRHkXWzjItcPS6DQHtjrtB9YgX-NOBBILzgISVe2xV_3455aeVm3?></g></svg>