<?xml version="1.0" encoding="us-ascii" standalone="no"?><svg xmlns="http://www.w3.org/2000/svg" xmlns:xlink="http://www.w3.org/1999/xlink" contentStyleType="text/css" height="355px" preserveAspectRatio="none" style="width:693px;height:355px;background:#FFFFFF;" version="1.1" viewBox="0 0 693 355" width="693px" zoomAndPan="magnify"><defs/><g><!--cluster bo4e--><g id="cluster_bo4e"><path d="M377.5,6 L418.5,6 A3.75,3.75 0 0 1 421,8.5 L428,28.2969 L683.5,28.2969 A2.5,2.5 0 0 1 686,30.7969 L686,345.5 A2.5,2.5 0 0 1 683.5,348 L377.5,348 A2.5,2.5 0 0 1 375,345.5 L375,8.5 A2.5,2.5 0 0 1 377.5,6 " fill="none" style="stroke:#000000;stroke-width:1.5;"/><line style="stroke:#000000;stroke-width:1.5;" x1="375" x2="428" y1="28.2969" y2="28.2969"/><text fill="#000000" font-family="sans-serif" font-size="14" font-weight="bold" lengthAdjust="spacing" textLength="40" x="379" y="20.9951">bo4e</text></g><!--cluster bo--><g id="cluster_bo"><path d="M439,49 L505,49 A3.75,3.75 0 0 1 507.5,51.5 L514.5,71.2969 L622,71.2969 A2.5,2.5 0 0 1 624.5,73.7969 L624.5,135.5 A2.5,2.5 0 0 1 622,138 L439,138 A2.5,2.5 0 0 1 436.5,135.5 L436.5,51.5 A2.5,2.5 0 0 1 439,49 " fill="#B6D7A8" style="stroke:#000000;stroke-width:1.5;"/><line style="stroke:#000000;stroke-width:1.5;" x1="436.5" x2="514.5" y1="71.2969" y2="71.2969"/><a href="https://bo4e.github.io/BO4E-python/v202401.1.1-rc3/api/bo4e.bo.html" target="_top" title="https://bo4e.github.io/BO4E-python/v202401.1.1-rc3/api/bo4e.bo.html" xlink:actuate="onRequest" xlink:href="https://bo4e.github.io/BO4E-python/v202401.1.1-rc3/api/bo4e.bo.html" xlink:show="new" xlink:title="https://bo4e.github.io/BO4E-python/v202401.1.1-rc3/api/bo4e.bo.html" xlink:type="simple"><text fill="#0000FF" font-family="sans-serif" font-size="14" font-weight="bold" lengthAdjust="spacing" text-decoration="underline" textLength="65" x="440.5" y="63.9951">bo4e.bo</text></a></g><!--cluster com--><g id="cluster_com"><path d="M401.5,162 L480.5,162 A3.75,3.75 0 0 1 483,164.5 L490,184.2969 L659.5,184.2969 A2.5,2.5 0 0 1 662,186.7969 L662,321.5 A2.5,2.5 0 0 1 659.5,324 L401.5,324 A2.5,2.5 0 0 1 399,321.5 L399,164.5 A2.5,2.5 0 0 1 401.5,162 " fill="#E0A86C" style="stroke:#000000;stroke-width:1.5;"/><line style="stroke:#000000;stroke-width:1.5;" x1="399" x2="490" y1="184.2969" y2="184.2969"/><a href="https://bo4e.github.io/BO4E-python/v202401.1.1-rc3/api/bo4e.com.html" target="_top" title="https://bo4e.github.io/BO4E-python/v202401.1.1-rc3/api/bo4e.com.html" xlink:actuate="onRequest" xlink:href="https://bo4e.github.io/BO4E-python/v202401.1.1-rc3/api/bo4e.com.html" xlink:show="new" xlink:title="https://bo4e.github.io/BO4E-python/v202401.1.1-rc3/api/bo4e.com.html" xlink:type="simple"><text fill="#0000FF" font-family="sans-serif" font-size="14" font-weight="bold" lengthAdjust="spacing" text-decoration="underline" textLength="78" x="403" y="176.9951">bo4e.com</text></a></g><!--class Geschaeftsobjekt--><g id="elem_Geschaeftsobjekt"><rect codeLine="7" fill="#F1F1F1" height="37.9375" id="Geschaeftsobjekt" rx="2.5" ry="2.5" style="stroke:#181818;stroke-width:0.5;" width="156" x="452.5" y="84.03"/><ellipse cx="467.5" cy="102.9987" fill="#ADD1B2" rx="11" ry="11" style="stroke:#181818;stroke-width:1.0;"/><path d="M470.4688,108.6394 Q469.8906,108.9362 469.25,109.0769 Q468.6094,109.2331 467.9063,109.2331 Q465.4063,109.2331 464.0781,107.5925 Q462.7656,105.9362 462.7656,102.8112 Q462.7656,99.6862 464.0781,98.03 Q465.4063,96.3737 467.9063,96.3737 Q468.6094,96.3737 469.25,96.53 Q469.9063,96.6862 470.4688,96.9831 L470.4688,99.7019 Q469.8438,99.1237 469.25,98.8581 Q468.6563,98.5769 468.0313,98.5769 Q466.6875,98.5769 466,99.655 Q465.3125,100.7175 465.3125,102.8112 Q465.3125,104.905 466,105.9831 Q466.6875,107.0456 468.0313,107.0456 Q468.6563,107.0456 469.25,106.78 Q469.8438,106.4987 470.4688,105.9206 L470.4688,108.6394 Z " fill="#000000"/><a href="https://bo4e.github.io/BO4E-python/v202401.1.1-rc3/api/bo4e.bo.html#bo4e.bo.geschaeftsobjekt.Geschaeftsobjekt" target="_top" title="https://bo4e.github.io/BO4E-python/v202401.1.1-rc3/api/bo4e.bo.html#bo4e.bo.geschaeftsobjekt.Geschaeftsobjekt" xlink:actuate="onRequest" xlink:href="https://bo4e.github.io/BO4E-python/v202401.1.1-rc3/api/bo4e.bo.html#bo4e.bo.geschaeftsobjekt.Geschaeftsobjekt" xlink:show="new" xlink:title="https://bo4e.github.io/BO4E-python/v202401.1.1-rc3/api/bo4e.bo.html#bo4e.bo.geschaeftsobjekt.Geschaeftsobjekt" xlink:type="simple"><text fill="#0000FF" font-family="sans-serif" font-size="14" lengthAdjust="spacing" text-decoration="underline" textLength="122" x="482.5" y="102.0251">Geschaeftsobjekt</text></a><text fill="#000000" font-family="sans-serif" font-size="10" lengthAdjust="spacing" textLength="124" x="481.5" y="114.6091">bo4e.bo.geschaeftsobjekt</text></g><!--class StandorteigenschaftenStrom--><g id="elem_StandorteigenschaftenStrom"><rect codeLine="10" fill="#F1F1F1" height="37.9375" id="StandorteigenschaftenStrom" rx="2.5" ry="2.5" style="stroke:#181818;stroke-width:0.5;" width="231" x="415" y="197.03"/><ellipse cx="430" cy="215.9988" fill="#ADD1B2" rx="11" ry="11" style="stroke:#181818;stroke-width:1.0;"/><path d="M432.9688,221.6394 Q432.3906,221.9363 431.75,222.0769 Q431.1094,222.2331 430.4063,222.2331 Q427.9063,222.2331 426.5781,220.5925 Q425.2656,218.9363 425.2656,215.8113 Q425.2656,212.6863 426.5781,211.03 Q427.9063,209.3738 430.4063,209.3738 Q431.1094,209.3738 431.75,209.53 Q432.4063,209.6863 432.9688,209.9831 L432.9688,212.7019 Q432.3438,212.1238 431.75,211.8581 Q431.1563,211.5769 430.5313,211.5769 Q429.1875,211.5769 428.5,212.655 Q427.8125,213.7175 427.8125,215.8113 Q427.8125,217.905 428.5,218.9831 Q429.1875,220.0456 430.5313,220.0456 Q431.1563,220.0456 431.75,219.78 Q432.3438,219.4988 432.9688,218.9206 L432.9688,221.6394 Z " fill="#000000"/><a href="https://bo4e.github.io/BO4E-python/v202401.1.1-rc3/api/bo4e.com.html#bo4e.com.standorteigenschaftenstrom.StandorteigenschaftenStrom" target="_top" title="https://bo4e.github.io/BO4E-python/v202401.1.1-rc3/api/bo4e.com.html#bo4e.com.standorteigenschaftenstrom.StandorteigenschaftenStrom" xlink:actuate="onRequest" xlink:href="https://bo4e.github.io/BO4E-python/v202401.1.1-rc3/api/bo4e.com.html#bo4e.com.standorteigenschaftenstrom.StandorteigenschaftenStrom" xlink:show="new" xlink:title="https://bo4e.github.io/BO4E-python/v202401.1.1-rc3/api/bo4e.com.html#bo4e.com.standorteigenschaftenstrom.StandorteigenschaftenStrom" xlink:type="simple"><text fill="#0000FF" font-family="sans-serif" font-size="14" lengthAdjust="spacing" text-decoration="underline" textLength="199" x="444" y="215.0251">StandorteigenschaftenStrom</text></a><text fill="#000000" font-family="sans-serif" font-size="10" lengthAdjust="spacing" textLength="189" x="449" y="227.6091">bo4e.com.standorteigenschaftenstrom</text></g><!--class StandorteigenschaftenGas--><g id="elem_StandorteigenschaftenGas"><rect codeLine="11" fill="#F1F1F1" height="37.9375" id="StandorteigenschaftenGas" rx="2.5" ry="2.5" style="stroke:#181818;stroke-width:0.5;" width="217" x="422" y="270.03"/><ellipse cx="437" cy="288.9988" fill="#ADD1B2" rx="11" ry="11" style="stroke:#181818;stroke-width:1.0;"/><path d="M439.9688,294.6394 Q439.3906,294.9363 438.75,295.0769 Q438.1094,295.2331 437.4063,295.2331 Q434.9063,295.2331 433.5781,293.5925 Q432.2656,291.9363 432.2656,288.8113 Q432.2656,285.6863 433.5781,284.03 Q434.9063,282.3738 437.4063,282.3738 Q438.1094,282.3738 438.75,282.53 Q439.4063,282.6863 439.9688,282.9831 L439.9688,285.7019 Q439.3438,285.1238 438.75,284.8581 Q438.1563,284.5769 437.5313,284.5769 Q436.1875,284.5769 435.5,285.655 Q434.8125,286.7175 434.8125,288.8113 Q434.8125,290.905 435.5,291.9831 Q436.1875,293.0456 437.5313,293.0456 Q438.1563,293.0456 438.75,292.78 Q439.3438,292.4988 439.9688,291.9206 L439.9688,294.6394 Z " fill="#000000"/><a href="https://bo4e.github.io/BO4E-python/v202401.1.1-rc3/api/bo4e.com.html#bo4e.com.standorteigenschaftengas.StandorteigenschaftenGas" target="_top" title="https://bo4e.github.io/BO4E-python/v202401.1.1-rc3/api/bo4e.com.html#bo4e.com.standorteigenschaftengas.StandorteigenschaftenGas" xlink:actuate="onRequest" xlink:href="https://bo4e.github.io/BO4E-python/v202401.1.1-rc3/api/bo4e.com.html#bo4e.com.standorteigenschaftengas.StandorteigenschaftenGas" xlink:show="new" xlink:title="https://bo4e.github.io/BO4E-python/v202401.1.1-rc3/api/bo4e.com.html#bo4e.com.standorteigenschaftengas.StandorteigenschaftenGas" xlink:type="simple"><text fill="#0000FF" font-family="sans-serif" font-size="14" lengthAdjust="spacing" text-decoration="underline" textLength="185" x="451" y="288.0251">StandorteigenschaftenGas</text></a><text fill="#000000" font-family="sans-serif" font-size="10" lengthAdjust="spacing" textLength="177" x="455" y="300.6091">bo4e.com.standorteigenschaftengas</text></g><!--class Standorteigenschaften--><g id="elem_Standorteigenschaften"><rect codeLine="3" fill="#F1F1F1" height="45.9375" id="Standorteigenschaften" rx="2.5" ry="2.5" style="stroke:#181818;stroke-width:0.5;" width="190" x="7" y="193.03"/><ellipse cx="22" cy="211.9988" fill="#ADD1B2" rx="11" ry="11" style="stroke:#181818;stroke-width:1.0;"/><path d="M24.9688,217.6394 Q24.3906,217.9363 23.75,218.0769 Q23.1094,218.2331 22.4063,218.2331 Q19.9063,218.2331 18.5781,216.5925 Q17.2656,214.9363 17.2656,211.8113 Q17.2656,208.6863 18.5781,207.03 Q19.9063,205.3738 22.4063,205.3738 Q23.1094,205.3738 23.75,205.53 Q24.4063,205.6863 24.9688,205.9831 L24.9688,208.7019 Q24.3438,208.1238 23.75,207.8581 Q23.1563,207.5769 22.5313,207.5769 Q21.1875,207.5769 20.5,208.655 Q19.8125,209.7175 19.8125,211.8113 Q19.8125,213.905 20.5,214.9831 Q21.1875,216.0456 22.5313,216.0456 Q23.1563,216.0456 23.75,215.78 Q24.3438,215.4988 24.9688,214.9206 L24.9688,217.6394 Z " fill="#000000"/><a href="https://bo4e.github.io/BO4E-python/v202401.1.1-rc3/api/bo4e.bo.html#bo4e.bo.standorteigenschaften.Standorteigenschaften" target="_top" title="https://bo4e.github.io/BO4E-python/v202401.1.1-rc3/api/bo4e.bo.html#bo4e.bo.standorteigenschaften.Standorteigenschaften" xlink:actuate="onRequest" xlink:href="https://bo4e.github.io/BO4E-python/v202401.1.1-rc3/api/bo4e.bo.html#bo4e.bo.standorteigenschaften.Standorteigenschaften" xlink:show="new" xlink:title="https://bo4e.github.io/BO4E-python/v202401.1.1-rc3/api/bo4e.bo.html#bo4e.bo.standorteigenschaften.Standorteigenschaften" xlink:type="simple"><text fill="#0000FF" font-family="sans-serif" font-size="14" lengthAdjust="spacing" text-decoration="underline" textLength="158" x="36" y="211.0251">Standorteigenschaften</text></a><text fill="#000000" font-family="sans-serif" font-size="10" lengthAdjust="spacing" textLength="151" x="39.5" y="223.6091">bo4e.bo.standorteigenschaften</text><line style="stroke:#181818;stroke-width:0.5;" x1="8" x2="196" y1="230.9675" y2="230.9675"/></g><!--link Standorteigenschaften to Geschaeftsobjekt--><g id="link_Standorteigenschaften_Geschaeftsobjekt"><path codeLine="14" d="M191.37,192.59 C269.69,171.84 365.31,146.4989 438.74,127.0489 " fill="none" id="Standorteigenschaften-to-Geschaeftsobjekt" style="stroke:#181818;stroke-width:1.0;"/><polygon fill="none" points="456.14,122.44,437.2038,121.2489,440.2763,132.8489,456.14,122.44" style="stroke:#181818;stroke-width:1.0;"/></g><!--link Standorteigenschaften to StandorteigenschaftenStrom--><g id="link_Standorteigenschaften_StandorteigenschaftenStrom"><path codeLine="15" d="M197.39,216 C261.55,216 334.81,216 402.87,216 " fill="none" id="Standorteigenschaften-to-StandorteigenschaftenStrom" style="stroke:#181818;stroke-width:1.0;"/><polygon fill="#181818" points="414.87,216,408.87,212,402.87,216,408.87,220,414.87,216" style="stroke:#181818;stroke-width:1.0;"/><text fill="#000000" font-family="sans-serif" font-size="13" lengthAdjust="spacing" textLength="130" x="228" y="212.0669">eigenschaftenStrom</text><text fill="#000000" font-family="sans-serif" font-size="13" lengthAdjust="spacing" textLength="23" x="384.123" y="228.528">0..*</text></g><!--link Standorteigenschaften to StandorteigenschaftenGas--><g id="link_Standorteigenschaften_StandorteigenschaftenGas"><path codeLine="16" d="M197.37,235.45 C207.36,237.38 217.38,239.27 227,241 C291.37,252.59 351.8586,262.3015 409.6486,271.1615 " fill="none" id="Standorteigenschaften-to-StandorteigenschaftenGas" style="stroke:#181818;stroke-width:1.0;"/><polygon fill="#181818" points="421.51,272.98,416.1855,268.1169,409.6486,271.1615,414.9731,276.0245,421.51,272.98" style="stroke:#181818;stroke-width:1.0;"/><text fill="#000000" font-family="sans-serif" font-size="13" lengthAdjust="spacing" textLength="115" x="235.5" y="237.0669">eigenschaftenGas</text><text fill="#000000" font-family="sans-serif" font-size="13" lengthAdjust="spacing" textLength="24" x="390.1372" y="284.5318">0..1</text></g><!--SRC=[lLHDRy8m33qlly9gRqXD2qE0q8G46-Au0qVMGzgQ9blRL4ssQL__VIa3X4eAciIcd9vTF_SzEybmhK5Bg4JADIIYmbWBMH0IPqmfS5OhhdMfnhuVoJxIL6Z-754X_TbzV-wLRvhBmd_f1Rr-qANcU5LyxRDI_7mUISfrdhaxe3Gh4bbf52aMAkPihR6WIriKhD4mV2Xkb7Z7SJUOd6HrW2ax1toGBq8AbgCgMOmNqWXR48QRpbi4xcnmDvoEJC-hFt4qnLgM6QAIqIC-QRfe1A0Pi5hOfDbeQ5OQsoxcMYpp0ziCElJDG73dmNGqkBsOSRk6xXvPrqRfogIiUxEiKz2UEZRsT9Vs3TtG_Q_kb2cxwaNRJvh4BnGR_dQzXgg-aYqFWUTzJdRtwMYzsufCLGUSWDAEiz-fKsCTWsK2vxYxvxXhynhCjLR2HOAGOnvXfOZYyXLQMgq5Pedw1W00]--></g></svg>