<?xml version="1.0" encoding="us-ascii" standalone="no"?><svg xmlns="http://www.w3.org/2000/svg" xmlns:xlink="http://www.w3.org/1999/xlink" contentStyleType="text/css" height="501px" preserveAspectRatio="none" style="width:886px;height:501px;background:#FFFFFF;" version="1.1" viewBox="0 0 886 501" width="886px" zoomAndPan="magnify"><defs/><g><!--cluster bo4e--><g id="cluster_bo4e"><path d="M592.5,6 L633.5,6 A3.75,3.75 0 0 1 636,8.5 L643,28.2969 L876.5,28.2969 A2.5,2.5 0 0 1 879,30.7969 L879,491.5 A2.5,2.5 0 0 1 876.5,494 L592.5,494 A2.5,2.5 0 0 1 590,491.5 L590,8.5 A2.5,2.5 0 0 1 592.5,6 " fill="none" style="stroke:#000000;stroke-width:1.5;"/><line style="stroke:#000000;stroke-width:1.5;" x1="590" x2="643" y1="28.2969" y2="28.2969"/><text fill="#000000" font-family="sans-serif" font-size="14" font-weight="bold" lengthAdjust="spacing" textLength="40" x="594" y="20.9951">bo4e</text></g><!--cluster com--><g id="cluster_com"><path d="M658,49 L737,49 A3.75,3.75 0 0 1 739.5,51.5 L746.5,71.2969 L811,71.2969 A2.5,2.5 0 0 1 813.5,73.7969 L813.5,281.5 A2.5,2.5 0 0 1 811,284 L658,284 A2.5,2.5 0 0 1 655.5,281.5 L655.5,51.5 A2.5,2.5 0 0 1 658,49 " fill="#E0A86C" style="stroke:#000000;stroke-width:1.5;"/><line style="stroke:#000000;stroke-width:1.5;" x1="655.5" x2="746.5" y1="71.2969" y2="71.2969"/><a href="https://bo4e.github.io/BO4E-python/v202401.1.1-rc4/api/bo4e.com.html" target="_top" title="https://bo4e.github.io/BO4E-python/v202401.1.1-rc4/api/bo4e.com.html" xlink:actuate="onRequest" xlink:href="https://bo4e.github.io/BO4E-python/v202401.1.1-rc4/api/bo4e.com.html" xlink:show="new" xlink:title="https://bo4e.github.io/BO4E-python/v202401.1.1-rc4/api/bo4e.com.html" xlink:type="simple"><text fill="#0000FF" font-family="sans-serif" font-size="14" font-weight="bold" lengthAdjust="spacing" text-decoration="underline" textLength="78" x="659.5" y="63.9951">bo4e.com</text></a></g><!--cluster enum--><g id="cluster_enum"><path d="M616.5,308 L706.5,308 A3.75,3.75 0 0 1 709,310.5 L716,330.2969 L852.5,330.2969 A2.5,2.5 0 0 1 855,332.7969 L855,467.5 A2.5,2.5 0 0 1 852.5,470 L616.5,470 A2.5,2.5 0 0 1 614,467.5 L614,310.5 A2.5,2.5 0 0 1 616.5,308 " fill="#D1C358" style="stroke:#000000;stroke-width:1.5;"/><line style="stroke:#000000;stroke-width:1.5;" x1="614" x2="716" y1="330.2969" y2="330.2969"/><a href="https://bo4e.github.io/BO4E-python/v202401.1.1-rc4/api/bo4e.enum.html" target="_top" title="https://bo4e.github.io/BO4E-python/v202401.1.1-rc4/api/bo4e.enum.html" xlink:actuate="onRequest" xlink:href="https://bo4e.github.io/BO4E-python/v202401.1.1-rc4/api/bo4e.enum.html" xlink:show="new" xlink:title="https://bo4e.github.io/BO4E-python/v202401.1.1-rc4/api/bo4e.enum.html" xlink:type="simple"><text fill="#0000FF" font-family="sans-serif" font-size="14" font-weight="bold" lengthAdjust="spacing" text-decoration="underline" textLength="89" x="618" y="322.9951">bo4e.enum</text></a></g><!--class Preis--><g id="elem_Preis"><rect codeLine="11" fill="#F1F1F1" height="37.9375" id="Preis" rx="2.5" ry="2.5" style="stroke:#181818;stroke-width:0.5;" width="106" x="681.5" y="84.03"/><ellipse cx="696.5" cy="102.9987" fill="#ADD1B2" rx="11" ry="11" style="stroke:#181818;stroke-width:1.0;"/><path d="M699.4688,108.6394 Q698.8906,108.9362 698.25,109.0769 Q697.6094,109.2331 696.9063,109.2331 Q694.4063,109.2331 693.0781,107.5925 Q691.7656,105.9362 691.7656,102.8112 Q691.7656,99.6862 693.0781,98.03 Q694.4063,96.3737 696.9063,96.3737 Q697.6094,96.3737 698.25,96.53 Q698.9063,96.6862 699.4688,96.9831 L699.4688,99.7019 Q698.8438,99.1237 698.25,98.8581 Q697.6563,98.5769 697.0313,98.5769 Q695.6875,98.5769 695,99.655 Q694.3125,100.7175 694.3125,102.8112 Q694.3125,104.905 695,105.9831 Q695.6875,107.0456 697.0313,107.0456 Q697.6563,107.0456 698.25,106.78 Q698.8438,106.4987 699.4688,105.9206 L699.4688,108.6394 Z " fill="#000000"/><a href="https://bo4e.github.io/BO4E-python/v202401.1.1-rc4/api/bo4e.com.html#bo4e.com.preis.Preis" target="_top" title="https://bo4e.github.io/BO4E-python/v202401.1.1-rc4/api/bo4e.com.html#bo4e.com.preis.Preis" xlink:actuate="onRequest" xlink:href="https://bo4e.github.io/BO4E-python/v202401.1.1-rc4/api/bo4e.com.html#bo4e.com.preis.Preis" xlink:show="new" xlink:title="https://bo4e.github.io/BO4E-python/v202401.1.1-rc4/api/bo4e.com.html#bo4e.com.preis.Preis" xlink:type="simple"><text fill="#0000FF" font-family="sans-serif" font-size="14" lengthAdjust="spacing" text-decoration="underline" textLength="34" x="730.5" y="102.0251">Preis</text></a><text fill="#000000" font-family="sans-serif" font-size="10" lengthAdjust="spacing" textLength="74" x="710.5" y="114.6091">bo4e.com.preis</text></g><!--class Tarifpreis--><g id="elem_Tarifpreis"><rect codeLine="12" fill="#F1F1F1" height="37.9375" id="Tarifpreis" rx="2.5" ry="2.5" style="stroke:#181818;stroke-width:0.5;" width="126" x="671.5" y="157.03"/><ellipse cx="686.5" cy="175.9987" fill="#ADD1B2" rx="11" ry="11" style="stroke:#181818;stroke-width:1.0;"/><path d="M689.4688,181.6394 Q688.8906,181.9362 688.25,182.0769 Q687.6094,182.2331 686.9063,182.2331 Q684.4063,182.2331 683.0781,180.5925 Q681.7656,178.9362 681.7656,175.8112 Q681.7656,172.6862 683.0781,171.03 Q684.4063,169.3737 686.9063,169.3737 Q687.6094,169.3737 688.25,169.53 Q688.9063,169.6862 689.4688,169.9831 L689.4688,172.7019 Q688.8438,172.1237 688.25,171.8581 Q687.6563,171.5769 687.0313,171.5769 Q685.6875,171.5769 685,172.655 Q684.3125,173.7175 684.3125,175.8112 Q684.3125,177.905 685,178.9831 Q685.6875,180.0456 687.0313,180.0456 Q687.6563,180.0456 688.25,179.78 Q688.8438,179.4987 689.4688,178.9206 L689.4688,181.6394 Z " fill="#000000"/><a href="https://bo4e.github.io/BO4E-python/v202401.1.1-rc4/api/bo4e.com.html#bo4e.com.tarifpreis.Tarifpreis" target="_top" title="https://bo4e.github.io/BO4E-python/v202401.1.1-rc4/api/bo4e.com.html#bo4e.com.tarifpreis.Tarifpreis" xlink:actuate="onRequest" xlink:href="https://bo4e.github.io/BO4E-python/v202401.1.1-rc4/api/bo4e.com.html#bo4e.com.tarifpreis.Tarifpreis" xlink:show="new" xlink:title="https://bo4e.github.io/BO4E-python/v202401.1.1-rc4/api/bo4e.com.html#bo4e.com.tarifpreis.Tarifpreis" xlink:type="simple"><text fill="#0000FF" font-family="sans-serif" font-size="14" lengthAdjust="spacing" text-decoration="underline" textLength="63" x="716" y="175.0251">Tarifpreis</text></a><text fill="#000000" font-family="sans-serif" font-size="10" lengthAdjust="spacing" textLength="94" x="700.5" y="187.6091">bo4e.com.tarifpreis</text></g><!--class COM--><g id="elem_COM"><rect codeLine="13" fill="#F1F1F1" height="37.9375" id="COM" rx="2.5" ry="2.5" style="stroke:#181818;stroke-width:0.5;" width="104" x="682.5" y="230.03"/><ellipse cx="697.5" cy="248.9987" fill="#ADD1B2" rx="11" ry="11" style="stroke:#181818;stroke-width:1.0;"/><path d="M700.4688,254.6394 Q699.8906,254.9362 699.25,255.0769 Q698.6094,255.2331 697.9063,255.2331 Q695.4063,255.2331 694.0781,253.5925 Q692.7656,251.9362 692.7656,248.8112 Q692.7656,245.6862 694.0781,244.03 Q695.4063,242.3737 697.9063,242.3737 Q698.6094,242.3737 699.25,242.53 Q699.9063,242.6862 700.4688,242.9831 L700.4688,245.7019 Q699.8438,245.1237 699.25,244.8581 Q698.6563,244.5769 698.0313,244.5769 Q696.6875,244.5769 696,245.655 Q695.3125,246.7175 695.3125,248.8112 Q695.3125,250.905 696,251.9831 Q696.6875,253.0456 698.0313,253.0456 Q698.6563,253.0456 699.25,252.78 Q699.8438,252.4987 700.4688,251.9206 L700.4688,254.6394 Z " fill="#000000"/><a href="https://bo4e.github.io/BO4E-python/v202401.1.1-rc4/api/bo4e.com.html#bo4e.com.com.COM" target="_top" title="https://bo4e.github.io/BO4E-python/v202401.1.1-rc4/api/bo4e.com.html#bo4e.com.com.COM" xlink:actuate="onRequest" xlink:href="https://bo4e.github.io/BO4E-python/v202401.1.1-rc4/api/bo4e.com.html#bo4e.com.com.COM" xlink:show="new" xlink:title="https://bo4e.github.io/BO4E-python/v202401.1.1-rc4/api/bo4e.com.html#bo4e.com.com.COM" xlink:type="simple"><text fill="#0000FF" font-family="sans-serif" font-size="14" lengthAdjust="spacing" text-decoration="underline" textLength="33" x="731" y="248.0251">COM</text></a><text fill="#000000" font-family="sans-serif" font-size="10" lengthAdjust="spacing" textLength="72" x="711.5" y="260.6091">bo4e.com.com</text></g><!--class Messpreistyp--><g id="elem_Messpreistyp"><rect codeLine="16" fill="#F1F1F1" height="37.9375" id="Messpreistyp" rx="2.5" ry="2.5" style="stroke:#181818;stroke-width:0.5;" width="155" x="657" y="343.03"/><ellipse cx="672" cy="361.9988" fill="#ADD1B2" rx="11" ry="11" style="stroke:#181818;stroke-width:1.0;"/><path d="M674.9688,367.6394 Q674.3906,367.9363 673.75,368.0769 Q673.1094,368.2331 672.4063,368.2331 Q669.9063,368.2331 668.5781,366.5925 Q667.2656,364.9363 667.2656,361.8113 Q667.2656,358.6863 668.5781,357.03 Q669.9063,355.3738 672.4063,355.3738 Q673.1094,355.3738 673.75,355.53 Q674.4063,355.6863 674.9688,355.9831 L674.9688,358.7019 Q674.3438,358.1238 673.75,357.8581 Q673.1563,357.5769 672.5313,357.5769 Q671.1875,357.5769 670.5,358.655 Q669.8125,359.7175 669.8125,361.8113 Q669.8125,363.905 670.5,364.9831 Q671.1875,366.0456 672.5313,366.0456 Q673.1563,366.0456 673.75,365.78 Q674.3438,365.4988 674.9688,364.9206 L674.9688,367.6394 Z " fill="#000000"/><a href="https://bo4e.github.io/BO4E-python/v202401.1.1-rc4/api/bo4e.enum.html#bo4e.enum.messpreistyp.Messpreistyp" target="_top" title="https://bo4e.github.io/BO4E-python/v202401.1.1-rc4/api/bo4e.enum.html#bo4e.enum.messpreistyp.Messpreistyp" xlink:actuate="onRequest" xlink:href="https://bo4e.github.io/BO4E-python/v202401.1.1-rc4/api/bo4e.enum.html#bo4e.enum.messpreistyp.Messpreistyp" xlink:show="new" xlink:title="https://bo4e.github.io/BO4E-python/v202401.1.1-rc4/api/bo4e.enum.html#bo4e.enum.messpreistyp.Messpreistyp" xlink:type="simple"><text fill="#0000FF" font-family="sans-serif" font-size="14" lengthAdjust="spacing" text-decoration="underline" textLength="92" x="701.5" y="361.0251">Messpreistyp</text></a><text fill="#000000" font-family="sans-serif" font-size="10" lengthAdjust="spacing" textLength="123" x="686" y="373.6091">bo4e.enum.messpreistyp</text></g><!--class Tarifkalkulationsmethode--><g id="elem_Tarifkalkulationsmethode"><rect codeLine="17" fill="#F1F1F1" height="37.9375" id="Tarifkalkulationsmethode" rx="2.5" ry="2.5" style="stroke:#181818;stroke-width:0.5;" width="209" x="630" y="416.03"/><ellipse cx="645" cy="434.9988" fill="#ADD1B2" rx="11" ry="11" style="stroke:#181818;stroke-width:1.0;"/><path d="M647.9688,440.6394 Q647.3906,440.9363 646.75,441.0769 Q646.1094,441.2331 645.4063,441.2331 Q642.9063,441.2331 641.5781,439.5925 Q640.2656,437.9363 640.2656,434.8113 Q640.2656,431.6863 641.5781,430.03 Q642.9063,428.3738 645.4063,428.3738 Q646.1094,428.3738 646.75,428.53 Q647.4063,428.6863 647.9688,428.9831 L647.9688,431.7019 Q647.3438,431.1238 646.75,430.8581 Q646.1563,430.5769 645.5313,430.5769 Q644.1875,430.5769 643.5,431.655 Q642.8125,432.7175 642.8125,434.8113 Q642.8125,436.905 643.5,437.9831 Q644.1875,439.0456 645.5313,439.0456 Q646.1563,439.0456 646.75,438.78 Q647.3438,438.4988 647.9688,437.9206 L647.9688,440.6394 Z " fill="#000000"/><a href="https://bo4e.github.io/BO4E-python/v202401.1.1-rc4/api/bo4e.enum.html#bo4e.enum.tarifkalkulationsmethode.Tarifkalkulationsmethode" target="_top" title="https://bo4e.github.io/BO4E-python/v202401.1.1-rc4/api/bo4e.enum.html#bo4e.enum.tarifkalkulationsmethode.Tarifkalkulationsmethode" xlink:actuate="onRequest" xlink:href="https://bo4e.github.io/BO4E-python/v202401.1.1-rc4/api/bo4e.enum.html#bo4e.enum.tarifkalkulationsmethode.Tarifkalkulationsmethode" xlink:show="new" xlink:title="https://bo4e.github.io/BO4E-python/v202401.1.1-rc4/api/bo4e.enum.html#bo4e.enum.tarifkalkulationsmethode.Tarifkalkulationsmethode" xlink:type="simple"><text fill="#0000FF" font-family="sans-serif" font-size="14" lengthAdjust="spacing" text-decoration="underline" textLength="173" x="661" y="434.0251">Tarifkalkulationsmethode</text></a><text fill="#000000" font-family="sans-serif" font-size="10" lengthAdjust="spacing" textLength="177" x="659" y="446.6091">bo4e.enum.tarifkalkulationsmethode</text></g><!--class Tarifberechnungsparameter--><g id="elem_Tarifberechnungsparameter"><rect codeLine="3" fill="#F1F1F1" height="111.125" id="Tarifberechnungsparameter" rx="2.5" ry="2.5" style="stroke:#181818;stroke-width:0.5;" width="394" x="7" y="161.44"/><ellipse cx="103.25" cy="180.4088" fill="#ADD1B2" rx="11" ry="11" style="stroke:#181818;stroke-width:1.0;"/><path d="M106.2188,186.0494 Q105.6406,186.3463 105,186.4869 Q104.3594,186.6431 103.6563,186.6431 Q101.1563,186.6431 99.8281,185.0025 Q98.5156,183.3463 98.5156,180.2213 Q98.5156,177.0963 99.8281,175.44 Q101.1563,173.7838 103.6563,173.7838 Q104.3594,173.7838 105,173.94 Q105.6563,174.0963 106.2188,174.3931 L106.2188,177.1119 Q105.5938,176.5338 105,176.2681 Q104.4063,175.9869 103.7813,175.9869 Q102.4375,175.9869 101.75,177.065 Q101.0625,178.1275 101.0625,180.2213 Q101.0625,182.315 101.75,183.3931 Q102.4375,184.4556 103.7813,184.4556 Q104.4063,184.4556 105,184.19 Q105.5938,183.9088 106.2188,183.3306 L106.2188,186.0494 Z " fill="#000000"/><a href="https://bo4e.github.io/BO4E-python/v202401.1.1-rc4/api/bo4e.com.html#bo4e.com.tarifberechnungsparameter.Tarifberechnungsparameter" target="_top" title="https://bo4e.github.io/BO4E-python/v202401.1.1-rc4/api/bo4e.com.html#bo4e.com.tarifberechnungsparameter.Tarifberechnungsparameter" xlink:actuate="onRequest" xlink:href="https://bo4e.github.io/BO4E-python/v202401.1.1-rc4/api/bo4e.com.html#bo4e.com.tarifberechnungsparameter.Tarifberechnungsparameter" xlink:show="new" xlink:title="https://bo4e.github.io/BO4E-python/v202401.1.1-rc4/api/bo4e.com.html#bo4e.com.tarifberechnungsparameter.Tarifberechnungsparameter" xlink:type="simple"><text fill="#0000FF" font-family="sans-serif" font-size="14" lengthAdjust="spacing" text-decoration="underline" textLength="193" x="123.75" y="179.4351">Tarifberechnungsparameter</text></a><text fill="#000000" font-family="sans-serif" font-size="10" lengthAdjust="spacing" textLength="185" x="127.75" y="192.0191">bo4e.com.tarifberechnungsparameter</text><line style="stroke:#181818;stroke-width:0.5;" x1="8" x2="400" y1="199.3775" y2="199.3775"/><text fill="#000000" font-family="sans-serif" font-size="14" lengthAdjust="spacing" textLength="382" x="13" y="216.3726">istMesspreisInGrundpreisEnthalten : bool [0..1] = None</text><text fill="#000000" font-family="sans-serif" font-size="14" lengthAdjust="spacing" textLength="367" x="13" y="232.6695">istMesspreisZuBeruecksichtigen : bool [0..1] = None</text><text fill="#000000" font-family="sans-serif" font-size="14" lengthAdjust="spacing" textLength="243" x="13" y="248.9664">kwInklusive : Decimal [0..1] = None</text><text fill="#000000" font-family="sans-serif" font-size="14" lengthAdjust="spacing" textLength="294" x="13" y="265.2632">kwWeitereMengen : Decimal [0..1] = None</text></g><!--link Tarifberechnungsparameter to COM--><g id="link_Tarifberechnungsparameter_COM"><path codeLine="20" d="M401.38,250.19 C411.38,251.28 421.3,252.23 431,253 C494.36,258.01 510.45,253.8 574,253 C610.15,252.55 632.8976,252.0438 664.1576,251.1338 " fill="none" id="Tarifberechnungsparameter-to-COM" style="stroke:#181818;stroke-width:1.0;"/><polygon fill="none" points="682.15,250.61,663.983,245.1363,664.3322,257.1312,682.15,250.61" style="stroke:#181818;stroke-width:1.0;"/></g><!--link Tarifberechnungsparameter to Tarifkalkulationsmethode--><g id="link_Tarifberechnungsparameter_Tarifkalkulationsmethode"><path codeLine="21" d="M295.16,272.95 C335.8,296.88 384.92,324.06 431,345 C495.76,374.42 513.82,377.76 582,398 C603.15,404.28 614.5363,407.4479 636.1163,412.7479 " fill="none" id="Tarifberechnungsparameter-to-Tarifkalkulationsmethode" style="stroke:#181818;stroke-width:1.0;"/><polygon fill="#181818" points="647.77,415.61,642.8972,410.2944,636.1163,412.7479,640.9891,418.0635,647.77,415.61" style="stroke:#181818;stroke-width:1.0;"/><text fill="#000000" font-family="sans-serif" font-size="13" lengthAdjust="spacing" textLength="141" x="432" y="341.0669">berechnungsmethode</text><text fill="#000000" font-family="sans-serif" font-size="13" lengthAdjust="spacing" textLength="24" x="598.4704" y="405.8037">0..1</text></g><!--link Tarifberechnungsparameter to Messpreistyp--><g id="link_Tarifberechnungsparameter_Messpreistyp"><path codeLine="22" d="M401.25,272.76 C411.31,275.56 421.27,278.32 431,281 C508.97,302.48 586.8597,323.2687 648.1597,339.4987 " fill="none" id="Tarifberechnungsparameter-to-Messpreistyp" style="stroke:#181818;stroke-width:1.0;"/><polygon fill="#181818" points="659.76,342.57,654.9836,337.1676,648.1597,339.4987,652.9361,344.9011,659.76,342.57" style="stroke:#181818;stroke-width:1.0;"/><text fill="#000000" font-family="sans-serif" font-size="13" lengthAdjust="spacing" textLength="86" x="459.5" y="277.0669">messpreistyp</text><text fill="#000000" font-family="sans-serif" font-size="13" lengthAdjust="spacing" textLength="24" x="625.1886" y="336.363">0..1</text></g><!--link Tarifberechnungsparameter to Preis--><g id="link_Tarifberechnungsparameter_Preis"><path codeLine="23" d="M277.89,161.02 C320.12,132.17 375.74,99.96 431,85 C516.32,61.91 608.1931,74.381 669.3431,87.401 " fill="none" id="Tarifberechnungsparameter-to-Preis" style="stroke:#181818;stroke-width:1.0;"/><polygon fill="#181818" points="681.08,89.9,676.0446,84.7382,669.3431,87.401,674.3785,92.5628,681.08,89.9" style="stroke:#181818;stroke-width:1.0;"/><text fill="#000000" font-family="sans-serif" font-size="13" lengthAdjust="spacing" textLength="99" x="453" y="69.0669">hoechstpreisNT</text><text fill="#000000" font-family="sans-serif" font-size="13" lengthAdjust="spacing" textLength="24" x="649.5158" y="101.3272">0..1</text></g><!--link Tarifberechnungsparameter to Preis--><g id="link_Tarifberechnungsparameter_Preis"><path codeLine="24" d="M360.73,161 C384.08,153.87 408.03,147.24 431,142 C517.47,122.27 608.33,112.6385 669.08,107.6685 " fill="none" id="Tarifberechnungsparameter-to-Preis-1" style="stroke:#181818;stroke-width:1.0;"/><polygon fill="#181818" points="681.04,106.69,674.7338,103.1925,669.08,107.6685,675.3861,111.1659,681.04,106.69" style="stroke:#181818;stroke-width:1.0;"/><text fill="#000000" font-family="sans-serif" font-size="13" lengthAdjust="spacing" textLength="99" x="453" y="115.0669">hoechstpreisHT</text><text fill="#000000" font-family="sans-serif" font-size="13" lengthAdjust="spacing" textLength="24" x="649.4712" y="120.0586">0..1</text></g><!--link Tarifberechnungsparameter to Preis--><g id="link_Tarifberechnungsparameter_Preis"><path codeLine="25" d="M401.3,199.59 C481.84,190.74 559.69,179.27 574,167 C583.5,158.85 572.94,148.63 582,140 C608.37,114.88 636.895,106.978 669.375,104.158 " fill="none" id="Tarifberechnungsparameter-to-Preis-2" style="stroke:#181818;stroke-width:1.0;"/><polygon fill="#181818" points="681.33,103.12,675.0065,99.654,669.375,104.158,675.6985,107.624,681.33,103.12" style="stroke:#181818;stroke-width:1.0;"/><text fill="#000000" font-family="sans-serif" font-size="13" lengthAdjust="spacing" textLength="83" x="461" y="163.0669">mindestpreis</text><text fill="#000000" font-family="sans-serif" font-size="13" lengthAdjust="spacing" textLength="24" x="649.3874" y="116.1238">0..1</text></g><!--link Tarifberechnungsparameter to Tarifpreis--><g id="link_Tarifberechnungsparameter_Tarifpreis"><path codeLine="26" d="M401.16,244.73 C458.4,245.93 520.03,240.28 574,220 C578.42,218.34 577.81,215.18 582,213 C609.51,198.71 630.9388,192.0813 659.2388,186.6013 " fill="none" id="Tarifberechnungsparameter-to-Tarifpreis" style="stroke:#181818;stroke-width:1.0;"/><polygon fill="#181818" points="671.02,184.32,664.369,181.5336,659.2388,186.6013,665.8899,189.3877,671.02,184.32" style="stroke:#181818;stroke-width:1.0;"/><text fill="#000000" font-family="sans-serif" font-size="13" lengthAdjust="spacing" textLength="81" x="462" y="216.0669">zusatzpreise</text><text fill="#000000" font-family="sans-serif" font-size="13" lengthAdjust="spacing" textLength="23" x="640.2877" y="198.0253">0..*</text></g><!--SRC=[jLHTQzim57sUVyKbUIj4Thfi5BCL-X6sFgJjGs2mp0-AVHC9svAnv9Pcst-l92-nI-ri7Gb1HfTxxj6vqidDSAL1IoZvccb8U8cnvb9uNfnHfM2mM32j2nNw_b9EaAovPjMISEbVtasce-99CodyXzFWT1ACYVcDodZYquBNy5ZcXEay6-uYJKk-Mg8vXebAh5L1IvgZnfBC-pBGcucY7-AJuXiCny7vtuyO05NzPF3JUyULdg5IHObStOWlPIKIjvyApMYcKK08IoapM0I4Z2Fu3BTIuCkwxzKbbXN6gU8nqtpTMvG-teWqgnH_G8EunfZdj0Fq3RbHXpCKDLKtyBVd2TE7QIV6GxqQRACeSbUt3M4u3IxEFbxP6pkIJTnDadlx1VVjVce7SzeSw6XodALgJVFT5fhj7YCs4XluqNJQTNKt0xEw9Pdbj1Y0iSp178EYQbl6XctFs1Y6oJX-_-7iOARPdJbimdpx9zHF1Pcr0cW7hw_cLR7JtguvecXdavHcQPLHEtkL6KTC9bXRhIC1VOcUnleEQ5pPaRGJPSzC7er-dUy6WlNSFh11dy30pgj1OuZ-ziouR5YsSjvC_-BvGsY_xfl8R7_r80g1ILEWjEEvdH-4vkl_q-HS9FY7vfz8JbeahJaMmgPIL6zSX9x7k7c477D3fZp5v2Fi8Lznp1Br3000]--></g></svg>