<svg xmlns="http://www.w3.org/2000/svg" xmlns:xlink="http://www.w3.org/1999/xlink" contentStyleType="text/css" data-diagram-type="CLASS" height="476px" preserveAspectRatio="none" style="width:755px;height:476px;background:#FFFFFF;" version="1.1" viewBox="0 0 755 476" width="755px" zoomAndPan="magnify"><?plantuml 1.2026.6?><defs/><g><!--cluster bo4e--><g class="cluster" data-qualified-name="bo4e" data-source-line="14" id="ent0004"><path d="M501.06,6 L540.936,6 A3.75,3.75 0 0 1 543.436,8.5 L550.436,28.2969 L738.24,28.2969 A2.5,2.5 0 0 1 740.74,30.7969 L740.74,458.5 A2.5,2.5 0 0 1 738.24,461 L501.06,461 A2.5,2.5 0 0 1 498.56,458.5 L498.56,8.5 A2.5,2.5 0 0 1 501.06,6" fill="none" style="stroke:#000000;stroke-width:1.5;"/><line style="stroke:#000000;stroke-width:1.5;" x1="498.56" x2="550.436" y1="28.2969" y2="28.2969"/><text fill="#000000" font-family="sans-serif" font-size="14" font-weight="700" lengthAdjust="spacing" textLength="38.876" x="502.56" y="20.9951">bo4e</text></g><!--cluster bo--><g class="cluster" data-qualified-name="bo4e.bo" data-source-line="13" id="ent0002"><path d="M525.06,49 L589.894,49 A3.75,3.75 0 0 1 592.394,51.5 L599.394,71.2969 L714.24,71.2969 A2.5,2.5 0 0 1 716.74,73.7969 L716.74,208.5 A2.5,2.5 0 0 1 714.24,211 L525.06,211 A2.5,2.5 0 0 1 522.56,208.5 L522.56,51.5 A2.5,2.5 0 0 1 525.06,49" fill="#B6D7A8" style="stroke:#000000;stroke-width:1.5;"/><line style="stroke:#000000;stroke-width:1.5;" x1="522.56" x2="599.394" y1="71.2969" y2="71.2969"/><text fill="#000000" font-family="sans-serif" font-size="14" font-weight="700" lengthAdjust="spacing" textLength="63.834" x="526.56" y="63.9951">bo4e.bo</text></g><!--cluster com--><g class="cluster" data-qualified-name="bo4e.com" data-source-line="39" id="ent0006"><path d="M528.02,235 L605.7192,235 A3.75,3.75 0 0 1 608.2192,237.5 L615.2192,257.2969 L711.27,257.2969 A2.5,2.5 0 0 1 713.77,259.7969 L713.77,321.5 A2.5,2.5 0 0 1 711.27,324 L528.02,324 A2.5,2.5 0 0 1 525.52,321.5 L525.52,237.5 A2.5,2.5 0 0 1 528.02,235" fill="#E0A86C" style="stroke:#000000;stroke-width:1.5;"/><line style="stroke:#000000;stroke-width:1.5;" x1="525.52" x2="615.2192" y1="257.2969" y2="257.2969"/><text fill="#000000" font-family="sans-serif" font-size="14" font-weight="700" lengthAdjust="spacing" textLength="76.6992" x="529.52" y="249.9951">bo4e.com</text></g><!--cluster enum--><g class="cluster" data-qualified-name="bo4e.enum" data-source-line="48" id="ent0008"><path d="M557.77,348 L646.9809,348 A3.75,3.75 0 0 1 649.4809,350.5 L656.4809,370.2969 L681.53,370.2969 A2.5,2.5 0 0 1 684.03,372.7969 L684.03,434.5 A2.5,2.5 0 0 1 681.53,437 L557.77,437 A2.5,2.5 0 0 1 555.27,434.5 L555.27,350.5 A2.5,2.5 0 0 1 557.77,348" fill="#D1C358" style="stroke:#000000;stroke-width:1.5;"/><line style="stroke:#000000;stroke-width:1.5;" x1="555.27" x2="656.4809" y1="370.2969" y2="370.2969"/><text fill="#000000" font-family="sans-serif" font-size="14" font-weight="700" lengthAdjust="spacing" textLength="88.2109" x="559.27" y="362.9951">bo4e.enum</text></g><!--class Geschaeftspartner--><g class="entity" data-qualified-name="bo4e.bo.Geschaeftspartner" data-source-line="14" id="ent0003"><rect fill="#F1F1F1" height="37.9375" rx="2.5" ry="2.5" style="stroke:#181818;stroke-width:0.5;" width="162.1836" x="538.56" y="84.03"/><ellipse cx="553.56" cy="102.9987" fill="#ADD1B2" rx="11" ry="11" style="stroke:#181818;stroke-width:1;"/><path d="M556.5288,108.6394 Q555.9506,108.9362 555.31,109.0769 Q554.6694,109.2331 553.9663,109.2331 Q551.4663,109.2331 550.1381,107.5925 Q548.8256,105.9362 548.8256,102.8112 Q548.8256,99.6862 550.1381,98.03 Q551.4663,96.3737 553.9663,96.3737 Q554.6694,96.3737 555.31,96.53 Q555.9663,96.6862 556.5288,96.9831 L556.5288,99.7019 Q555.9038,99.1237 555.31,98.8581 Q554.7163,98.5769 554.0913,98.5769 Q552.7475,98.5769 552.06,99.655 Q551.3725,100.7175 551.3725,102.8112 Q551.3725,104.905 552.06,105.9831 Q552.7475,107.0456 554.0913,107.0456 Q554.7163,107.0456 555.31,106.78 Q555.9038,106.4987 556.5288,105.9206 L556.5288,108.6394 Z " fill="#000000"/><a href="https://bo4e.github.io/BO4E-python/v202607.1.0-rc1/api/bo4e.bo.html#module-bo4e.bo.geschaeftspartner" target="_top" title="https://bo4e.github.io/BO4E-python/v202607.1.0-rc1/api/bo4e.bo.html#module-bo4e.bo.geschaeftspartner" xlink:actuate="onRequest" xlink:href="https://bo4e.github.io/BO4E-python/v202607.1.0-rc1/api/bo4e.bo.html#module-bo4e.bo.geschaeftspartner" xlink:show="new" xlink:title="https://bo4e.github.io/BO4E-python/v202607.1.0-rc1/api/bo4e.bo.html#module-bo4e.bo.geschaeftspartner" xlink:type="simple"><text fill="#0000FF" font-family="sans-serif" font-size="14" lengthAdjust="spacing" text-decoration="underline" textLength="130.1836" x="567.56" y="102.0251">Geschaeftspartner</text></a><text fill="#000000" font-family="sans-serif" font-size="10" lengthAdjust="spacing" textLength="108.6328" x="578.3354" y="114.6091">bo.Geschaeftspartner</text></g><!--class Person--><g class="entity" data-qualified-name="bo4e.bo.Person" data-source-line="28" id="ent0005"><rect fill="#F1F1F1" height="37.9375" rx="2.5" ry="2.5" style="stroke:#181818;stroke-width:0.5;" width="81.6045" x="578.85" y="157.03"/><ellipse cx="593.85" cy="175.9987" fill="#ADD1B2" rx="11" ry="11" style="stroke:#181818;stroke-width:1;"/><path d="M596.8188,181.6394 Q596.2406,181.9362 595.6,182.0769 Q594.9594,182.2331 594.2563,182.2331 Q591.7563,182.2331 590.4281,180.5925 Q589.1156,178.9362 589.1156,175.8112 Q589.1156,172.6862 590.4281,171.03 Q591.7563,169.3737 594.2563,169.3737 Q594.9594,169.3737 595.6,169.53 Q596.2563,169.6862 596.8188,169.9831 L596.8188,172.7019 Q596.1938,172.1237 595.6,171.8581 Q595.0063,171.5769 594.3813,171.5769 Q593.0375,171.5769 592.35,172.655 Q591.6625,173.7175 591.6625,175.8112 Q591.6625,177.905 592.35,178.9831 Q593.0375,180.0456 594.3813,180.0456 Q595.0063,180.0456 595.6,179.78 Q596.1938,179.4987 596.8188,178.9206 L596.8188,181.6394 Z " fill="#000000"/><a href="https://bo4e.github.io/BO4E-python/v202607.1.0-rc1/api/bo4e.bo.html#module-bo4e.bo.person" target="_top" title="https://bo4e.github.io/BO4E-python/v202607.1.0-rc1/api/bo4e.bo.html#module-bo4e.bo.person" xlink:actuate="onRequest" xlink:href="https://bo4e.github.io/BO4E-python/v202607.1.0-rc1/api/bo4e.bo.html#module-bo4e.bo.person" xlink:show="new" xlink:title="https://bo4e.github.io/BO4E-python/v202607.1.0-rc1/api/bo4e.bo.html#module-bo4e.bo.person" xlink:type="simple"><text fill="#0000FF" font-family="sans-serif" font-size="14" lengthAdjust="spacing" text-decoration="underline" textLength="47.5439" x="608.8803" y="175.0251">Person</text></a><text fill="#000000" font-family="sans-serif" font-size="10" lengthAdjust="spacing" textLength="49.6045" x="607.85" y="187.6091">bo.Person</text></g><!--class Angebotsvariante--><g class="entity" data-qualified-name="bo4e.com.Angebotsvariante" data-source-line="40" id="ent0007"><rect fill="#F1F1F1" height="37.9375" rx="2.5" ry="2.5" style="stroke:#181818;stroke-width:0.5;" width="156.25" x="541.52" y="270.03"/><ellipse cx="556.52" cy="288.9988" fill="#ADD1B2" rx="11" ry="11" style="stroke:#181818;stroke-width:1;"/><path d="M559.4888,294.6394 Q558.9106,294.9363 558.27,295.0769 Q557.6294,295.2331 556.9263,295.2331 Q554.4263,295.2331 553.0981,293.5925 Q551.7856,291.9363 551.7856,288.8113 Q551.7856,285.6863 553.0981,284.03 Q554.4263,282.3738 556.9263,282.3738 Q557.6294,282.3738 558.27,282.53 Q558.9263,282.6863 559.4888,282.9831 L559.4888,285.7019 Q558.8638,285.1238 558.27,284.8581 Q557.6763,284.5769 557.0513,284.5769 Q555.7075,284.5769 555.02,285.655 Q554.3325,286.7175 554.3325,288.8113 Q554.3325,290.905 555.02,291.9831 Q555.7075,293.0456 557.0513,293.0456 Q557.6763,293.0456 558.27,292.78 Q558.8638,292.4988 559.4888,291.9206 L559.4888,294.6394 Z " fill="#000000"/><a href="https://bo4e.github.io/BO4E-python/v202607.1.0-rc1/api/bo4e.com.html#module-bo4e.com.angebotsvariante" target="_top" title="https://bo4e.github.io/BO4E-python/v202607.1.0-rc1/api/bo4e.com.html#module-bo4e.com.angebotsvariante" xlink:actuate="onRequest" xlink:href="https://bo4e.github.io/BO4E-python/v202607.1.0-rc1/api/bo4e.com.html#module-bo4e.com.angebotsvariante" xlink:show="new" xlink:title="https://bo4e.github.io/BO4E-python/v202607.1.0-rc1/api/bo4e.com.html#module-bo4e.com.angebotsvariante" xlink:type="simple"><text fill="#0000FF" font-family="sans-serif" font-size="14" lengthAdjust="spacing" text-decoration="underline" textLength="124.25" x="570.52" y="288.0251">Angebotsvariante</text></a><text fill="#000000" font-family="sans-serif" font-size="10" lengthAdjust="spacing" textLength="113.2861" x="576.0019" y="300.6091">com.Angebotsvariante</text></g><!--class Sparte--><g class="entity" data-qualified-name="bo4e.enum.Sparte" data-source-line="49" id="ent0009"><rect fill="#F1F1F1" height="37.9375" rx="2.5" ry="2.5" style="stroke:#181818;stroke-width:0.5;" width="96.7559" x="571.27" y="383.03"/><ellipse cx="586.27" cy="401.9988" fill="#ADD1B2" rx="11" ry="11" style="stroke:#181818;stroke-width:1;"/><path d="M589.2388,407.6394 Q588.6606,407.9363 588.02,408.0769 Q587.3794,408.2331 586.6763,408.2331 Q584.1763,408.2331 582.8481,406.5925 Q581.5356,404.9363 581.5356,401.8113 Q581.5356,398.6863 582.8481,397.03 Q584.1763,395.3738 586.6763,395.3738 Q587.3794,395.3738 588.02,395.53 Q588.6763,395.6863 589.2388,395.9831 L589.2388,398.7019 Q588.6138,398.1238 588.02,397.8581 Q587.4263,397.5769 586.8013,397.5769 Q585.4575,397.5769 584.77,398.655 Q584.0825,399.7175 584.0825,401.8113 Q584.0825,403.905 584.77,404.9831 Q585.4575,406.0456 586.8013,406.0456 Q587.4263,406.0456 588.02,405.78 Q588.6138,405.4988 589.2388,404.9206 L589.2388,407.6394 Z " fill="#000000"/><a href="https://bo4e.github.io/BO4E-python/v202607.1.0-rc1/api/bo4e.enum.html#module-bo4e.enum.sparte" target="_top" title="https://bo4e.github.io/BO4E-python/v202607.1.0-rc1/api/bo4e.enum.html#module-bo4e.enum.sparte" xlink:actuate="onRequest" xlink:href="https://bo4e.github.io/BO4E-python/v202607.1.0-rc1/api/bo4e.enum.html#module-bo4e.enum.sparte" xlink:show="new" xlink:title="https://bo4e.github.io/BO4E-python/v202607.1.0-rc1/api/bo4e.enum.html#module-bo4e.enum.sparte" xlink:type="simple"><text fill="#0000FF" font-family="sans-serif" font-size="14" lengthAdjust="spacing" text-decoration="underline" textLength="46.2109" x="609.5425" y="401.0251">Sparte</text></a><text fill="#000000" font-family="sans-serif" font-size="10" lengthAdjust="spacing" textLength="64.7559" x="600.27" y="413.6091">enum.Sparte</text></g><!--class Angebot--><g class="entity" data-qualified-name="Angebot" data-source-line="3" id="ent0001"><rect fill="#F1F1F1" height="160.0156" rx="2.5" ry="2.5" style="stroke:#181818;stroke-width:0.5;" width="241.5576" x="7" y="124.99"/><ellipse cx="94.083" cy="143.9588" fill="#ADD1B2" rx="11" ry="11" style="stroke:#181818;stroke-width:1;"/><path d="M97.0518,149.5994 Q96.4736,149.8963 95.833,150.0369 Q95.1924,150.1931 94.4893,150.1931 Q91.9893,150.1931 90.6611,148.5525 Q89.3486,146.8963 89.3486,143.7713 Q89.3486,140.6463 90.6611,138.99 Q91.9893,137.3338 94.4893,137.3338 Q95.1924,137.3338 95.833,137.49 Q96.4893,137.6463 97.0518,137.9431 L97.0518,140.6619 Q96.4268,140.0838 95.833,139.8181 Q95.2393,139.5369 94.6143,139.5369 Q93.2705,139.5369 92.583,140.615 Q91.8955,141.6775 91.8955,143.7713 Q91.8955,145.865 92.583,146.9431 Q93.2705,148.0056 94.6143,148.0056 Q95.2393,148.0056 95.833,147.74 Q96.4268,147.4588 97.0518,146.8806 L97.0518,149.5994 Z " fill="#000000"/><a href="https://bo4e.github.io/BO4E-python/v202607.1.0-rc1/api/bo4e.bo.html#module-bo4e.bo.angebot" target="_top" title="https://bo4e.github.io/BO4E-python/v202607.1.0-rc1/api/bo4e.bo.html#module-bo4e.bo.angebot" xlink:actuate="onRequest" xlink:href="https://bo4e.github.io/BO4E-python/v202607.1.0-rc1/api/bo4e.bo.html#module-bo4e.bo.angebot" xlink:show="new" xlink:title="https://bo4e.github.io/BO4E-python/v202607.1.0-rc1/api/bo4e.bo.html#module-bo4e.bo.angebot" xlink:type="simple"><text fill="#0000FF" font-family="sans-serif" font-size="14" lengthAdjust="spacing" text-decoration="underline" textLength="58.8916" x="114.583" y="142.9851">Angebot</text></a><text fill="#000000" font-family="sans-serif" font-size="10" lengthAdjust="spacing" textLength="57.71" x="115.1738" y="155.5691">bo.Angebot</text><line style="stroke:#181818;stroke-width:0.5;" x1="8" x2="247.5576" y1="162.9275" y2="162.9275"/><text fill="#000000" font-family="sans-serif" font-size="14" lengthAdjust="spacing" textLength="94.0215" x="13" y="179.9226">_id : str [0..1]</text><text fill="#000000" font-family="sans-serif" font-size="14" lengthAdjust="spacing" textLength="222.1064" x="13" y="196.2195">_typ : Literal["ANGEBOT"] [0..1]</text><text fill="#000000" font-family="sans-serif" font-size="14" lengthAdjust="spacing" textLength="132.5215" x="13" y="212.5164">_version : str [0..1]</text><text fill="#000000" font-family="sans-serif" font-size="14" lengthAdjust="spacing" textLength="186.9629" x="13" y="228.8132">anfragereferenz : str [0..1]</text><text fill="#000000" font-family="sans-serif" font-size="14" lengthAdjust="spacing" textLength="229.5576" x="13" y="245.1101">angebotsdatum : datetime [0..1]</text><text fill="#000000" font-family="sans-serif" font-size="14" lengthAdjust="spacing" textLength="198.8232" x="13" y="261.407">angebotsnummer : str [0..1]</text><text fill="#000000" font-family="sans-serif" font-size="14" lengthAdjust="spacing" textLength="185.4111" x="13" y="277.7039">bindefrist : datetime [0..1]</text></g><!--link Angebot to Geschaeftspartner--><g class="link" data-entity-1="ent0001" data-entity-2="ent0003" data-link-type="composition" data-source-line="53" id="lnk10"><path codeLine="53" d="M227.11,124.69 C243.47,114.97 260.88,106.53 278.56,101 C364.2,74.18 456.1393,78.3697 526.3693,87.4597" fill="none" id="Angebot-to-Geschaeftspartner" style="stroke:#181818;stroke-width:1;"/><polygon fill="#181818" points="538.27,89,532.8331,84.2629,526.3693,87.4597,531.8062,92.1967,538.27,89" style="stroke:#181818;stroke-width:1;stroke-linejoin:miter;stroke-miterlimit:10;"/><text fill="#000000" font-family="sans-serif" font-size="13" lengthAdjust="spacing" textLength="98.376" x="331.56" y="77.4969">angebotsgeber</text><text fill="#000000" font-family="sans-serif" font-size="13" lengthAdjust="spacing" textLength="24.8066" x="505.6985" y="100.4739">0..1</text></g><!--link Angebot to Geschaeftspartner--><g class="link" data-entity-1="ent0001" data-entity-2="ent0003" data-link-type="composition" data-source-line="54" id="lnk11"><path codeLine="54" d="M249,167.43 C258.96,164.76 268.9,162.24 278.56,160 C368.09,139.18 391.91,141.21 482.56,126 C500.64,122.97 508.2275,121.6879 526.5875,118.5879" fill="none" id="Angebot-to-Geschaeftspartner-1" style="stroke:#181818;stroke-width:1;"/><polygon fill="#181818" points="538.42,116.59,531.8378,113.6448,526.5875,118.5879,533.1697,121.5331,538.42,116.59" style="stroke:#181818;stroke-width:1;stroke-linejoin:miter;stroke-miterlimit:10;"/><text fill="#000000" font-family="sans-serif" font-size="13" lengthAdjust="spacing" textLength="111.0142" x="325.06" y="122.0669">angebotsnehmer</text><text fill="#000000" font-family="sans-serif" font-size="13" lengthAdjust="spacing" textLength="24.8066" x="505.8624" y="130.6074">0..1</text></g><!--link Angebot to Person--><g class="link" data-entity-1="ent0001" data-entity-2="ent0005" data-link-type="composition" data-source-line="55" id="lnk12"><path codeLine="55" d="M248.93,197.89 C356.29,191.53 495.3109,183.2982 566.5209,179.0882" fill="none" id="Angebot-to-Person" style="stroke:#181818;stroke-width:1;"/><polygon fill="#181818" points="578.5,178.38,572.2744,174.7411,566.5209,179.0882,572.7465,182.7271,578.5,178.38" style="stroke:#181818;stroke-width:1;stroke-linejoin:miter;stroke-miterlimit:10;"/><text fill="#000000" font-family="sans-serif" font-size="13" lengthAdjust="spacing" textLength="189.6235" x="286.06" y="180.6369">unterzeichnerAngebotsgeber</text><text fill="#000000" font-family="sans-serif" font-size="13" lengthAdjust="spacing" textLength="24.8066" x="546.0931" y="174.6417">0..1</text></g><!--link Angebot to Person--><g class="link" data-entity-1="ent0001" data-entity-2="ent0005" data-link-type="composition" data-source-line="56" id="lnk13"><path codeLine="56" d="M249.02,222.55 C317.8,229.57 405.47,233.41 482.56,221 C515.73,215.66 540.5754,207.7879 567.2254,197.4279" fill="none" id="Angebot-to-Person-1" style="stroke:#181818;stroke-width:1;"/><polygon fill="#181818" points="578.41,193.08,571.3684,191.5258,567.2254,197.4279,574.267,198.9822,578.41,193.08" style="stroke:#181818;stroke-width:1;stroke-linejoin:miter;stroke-miterlimit:10;"/><text fill="#000000" font-family="sans-serif" font-size="13" lengthAdjust="spacing" textLength="202.2617" x="279.56" y="217.0669">unterzeichnerAngebotsnehmer</text><text fill="#000000" font-family="sans-serif" font-size="13" lengthAdjust="spacing" textLength="24.8066" x="545.9888" y="209.0751">0..1</text></g><!--link Angebot to Angebotsvariante--><g class="link" data-entity-1="ent0001" data-entity-2="ent0007" data-link-type="composition" data-source-line="57" id="lnk14"><path codeLine="57" d="M248.75,246.72 C258.76,249.44 268.79,251.92 278.56,254 C367.53,272.91 459.8802,281.0244 529.2902,285.0544" fill="none" id="Angebot-to-Angebotsvariante" style="stroke:#181818;stroke-width:1;"/><polygon fill="#181818" points="541.27,285.75,535.5119,281.4089,529.2902,285.0544,535.0482,289.3955,541.27,285.75" style="stroke:#181818;stroke-width:1;stroke-linejoin:miter;stroke-miterlimit:10;"/><text fill="#000000" font-family="sans-serif" font-size="13" lengthAdjust="spacing" textLength="62.1563" x="349.56" y="250.0669">varianten</text><text fill="#000000" font-family="sans-serif" font-size="13" lengthAdjust="spacing" textLength="23.0356" x="510.5479" y="298.1879">0..*</text></g><!--link Angebot to Sparte--><g class="link" data-entity-1="ent0001" data-entity-2="ent0009" data-link-type="composition" data-source-line="58" id="lnk15"><path codeLine="58" d="M239.79,285.39 C252.54,292.94 265.61,300 278.56,306 C377.77,352.01 491.9191,378.2073 559.2691,391.2573" fill="none" id="Angebot-to-Sparte" style="stroke:#181818;stroke-width:1;"/><polygon fill="#181818" points="571.05,393.54,565.9205,388.4717,559.2691,391.2573,564.3987,396.3256,571.05,393.54" style="stroke:#181818;stroke-width:1;stroke-linejoin:miter;stroke-miterlimit:10;"/><text fill="#000000" font-family="sans-serif" font-size="13" lengthAdjust="spacing" textLength="41.4312" x="360.06" y="302.0669">sparte</text><text fill="#000000" font-family="sans-serif" font-size="13" lengthAdjust="spacing" textLength="24.8066" x="538.5851" y="405.4814">0..1</text></g><?plantuml-src jPLVRzem4C3Vyociy5Q905tNLcYQ5BgCLPe00TeBGvEJ78crs8viXwfKVFTT4XY3X8v8BGZit1_xxD_T9O6L8KOInQBOa90f20oJmhA2X6fDxCKYDYRL_Kx7bpVWHCp4cUymsHcCRxns-cnYAJhhw-xrRVVEwJdTjWfw7PgoqjoNJcnuqk8op19exsLKHE1BGznoN2v_Ya-QRQ3Vwtv6zKvi4wht9kJ58lZvnKBI9zeeikWwJczP2irpYjBlp82YoS9sHqDlC9xRooEZDIYD1wkwKx5ID085A_o9JPr14O8EgSaugd44mpZKsOYCSr3LDNmcGbWffatD0blB4fI3Jca0nDvTKd7wtPoq1hTVxjpxtIsy9ve8T11JJ0gCHXc1PncUIavnLGoAq2lI9WY7tkpXc-jzdSycxdG-ygONm-H68qiMnAQgZ18AcSzG_rWJGqmHKQ8LH4W9r3cI29AjMPX1ae0h58HGjH4qY7EYLOrK4HLCqxp6TBr9nb6zmH2o-ZZNKjKxFe6lyGAF5TjtpvWKMI2AIJ6SvaOfBHAYd3R9WeatdOr7bwB70ipKSPKsvVPR8dDXg6g2j9R75h-dDHr8VYXgV20jh-lUtpwyPLNZibL8kN3VeDPKCIhmQjmJmH6vtEFKuDzsV5YcUL-U_N2dZ-vexbqAzjNUcHkWeq6icOZEzkWw7e0bVW2IFv5Ms0i-V7pJFfklMqLII8lE26HM34VtNwXBUH5XESMmydDO-tTYktr5xFnyTastxVzz9-4_gAPE0c9UxxMhupx9aB_Q0FPQT7N_jzdhRcUskxAh6TSd-wcessTtLPX5nSIoOeQbpe5ZNDhIiNmY-zGcAmP9gFy0?></g></svg>