<svg xmlns="http://www.w3.org/2000/svg" xmlns:xlink="http://www.w3.org/1999/xlink" contentStyleType="text/css" data-diagram-type="CLASS" height="250px" preserveAspectRatio="none" style="width:587px;height:250px;background:#FFFFFF;" version="1.1" viewBox="0 0 587 250" width="587px" zoomAndPan="magnify"><?plantuml 1.2026.6?><defs/><g><!--cluster bo4e--><g class="cluster" data-qualified-name="bo4e" data-source-line="12" id="ent0004"><path d="M392.49,6 L432.366,6 A3.75,3.75 0 0 1 434.866,8.5 L441.866,28.2969 L570.05,28.2969 A2.5,2.5 0 0 1 572.55,30.7969 L572.55,232.5 A2.5,2.5 0 0 1 570.05,235 L392.49,235 A2.5,2.5 0 0 1 389.99,232.5 L389.99,8.5 A2.5,2.5 0 0 1 392.49,6" fill="none" style="stroke:#000000;stroke-width:1.5;"/><line style="stroke:#000000;stroke-width:1.5;" x1="389.99" x2="441.866" y1="28.2969" y2="28.2969"/><text fill="#000000" font-family="sans-serif" font-size="14" font-weight="700" lengthAdjust="spacing" textLength="38.876" x="393.99" y="20.9951">bo4e</text></g><!--cluster com--><g class="cluster" data-qualified-name="bo4e.com" data-source-line="11" id="ent0002"><path d="M416.49,49 L494.1892,49 A3.75,3.75 0 0 1 496.6892,51.5 L503.6892,71.2969 L546.05,71.2969 A2.5,2.5 0 0 1 548.55,73.7969 L548.55,208.5 A2.5,2.5 0 0 1 546.05,211 L416.49,211 A2.5,2.5 0 0 1 413.99,208.5 L413.99,51.5 A2.5,2.5 0 0 1 416.49,49" fill="#E0A86C" style="stroke:#000000;stroke-width:1.5;"/><line style="stroke:#000000;stroke-width:1.5;" x1="413.99" x2="503.6892" y1="71.2969" y2="71.2969"/><text fill="#000000" font-family="sans-serif" font-size="14" font-weight="700" lengthAdjust="spacing" textLength="76.6992" x="417.99" y="63.9951">bo4e.com</text></g><!--class Menge--><g class="entity" data-qualified-name="bo4e.com.Menge" data-source-line="12" id="ent0003"><rect fill="#F1F1F1" height="37.9375" rx="2.5" ry="2.5" style="stroke:#181818;stroke-width:0.5;" width="90.1543" x="436.19" y="84.03"/><ellipse cx="451.19" cy="102.9988" fill="#ADD1B2" rx="11" ry="11" style="stroke:#181818;stroke-width:1;"/><path d="M454.1588,108.6394 Q453.5806,108.9363 452.94,109.0769 Q452.2994,109.2331 451.5963,109.2331 Q449.0963,109.2331 447.7681,107.5925 Q446.4556,105.9363 446.4556,102.8113 Q446.4556,99.6863 447.7681,98.03 Q449.0963,96.3738 451.5963,96.3738 Q452.2994,96.3738 452.94,96.53 Q453.5963,96.6863 454.1588,96.9831 L454.1588,99.7019 Q453.5338,99.1238 452.94,98.8581 Q452.3463,98.5769 451.7213,98.5769 Q450.3775,98.5769 449.69,99.655 Q449.0025,100.7175 449.0025,102.8113 Q449.0025,104.905 449.69,105.9831 Q450.3775,107.0456 451.7213,107.0456 Q452.3463,107.0456 452.94,106.78 Q453.5338,106.4988 454.1588,105.9206 L454.1588,108.6394 Z " fill="#000000"/><a href="https://bo4e.github.io/BO4E-python/v202607.1.0-rc1/api/bo4e.com.html#module-bo4e.com.menge" target="_top" title="https://bo4e.github.io/BO4E-python/v202607.1.0-rc1/api/bo4e.com.html#module-bo4e.com.menge" xlink:actuate="onRequest" xlink:href="https://bo4e.github.io/BO4E-python/v202607.1.0-rc1/api/bo4e.com.html#module-bo4e.com.menge" xlink:show="new" xlink:title="https://bo4e.github.io/BO4E-python/v202607.1.0-rc1/api/bo4e.com.html#module-bo4e.com.menge" xlink:type="simple"><text fill="#0000FF" font-family="sans-serif" font-size="14" lengthAdjust="spacing" text-decoration="underline" textLength="47.0654" x="470.7344" y="102.0251">Menge</text></a><text fill="#000000" font-family="sans-serif" font-size="10" lengthAdjust="spacing" textLength="58.1543" x="465.19" y="114.6091">com.Menge</text></g><!--class Zeitraum--><g class="entity" data-qualified-name="bo4e.com.Zeitraum" data-source-line="18" id="ent0005"><rect fill="#F1F1F1" height="37.9375" rx="2.5" ry="2.5" style="stroke:#181818;stroke-width:0.5;" width="102.5566" x="429.99" y="157.03"/><ellipse cx="444.99" cy="175.9988" fill="#ADD1B2" rx="11" ry="11" style="stroke:#181818;stroke-width:1;"/><path d="M447.9588,181.6394 Q447.3806,181.9363 446.74,182.0769 Q446.0994,182.2331 445.3963,182.2331 Q442.8963,182.2331 441.5681,180.5925 Q440.2556,178.9363 440.2556,175.8113 Q440.2556,172.6863 441.5681,171.03 Q442.8963,169.3738 445.3963,169.3738 Q446.0994,169.3738 446.74,169.53 Q447.3963,169.6863 447.9588,169.9831 L447.9588,172.7019 Q447.3338,172.1238 446.74,171.8581 Q446.1463,171.5769 445.5213,171.5769 Q444.1775,171.5769 443.49,172.655 Q442.8025,173.7175 442.8025,175.8113 Q442.8025,177.905 443.49,178.9831 Q444.1775,180.0456 445.5213,180.0456 Q446.1463,180.0456 446.74,179.78 Q447.3338,179.4988 447.9588,178.9206 L447.9588,181.6394 Z " fill="#000000"/><a href="https://bo4e.github.io/BO4E-python/v202607.1.0-rc1/api/bo4e.com.html#module-bo4e.com.zeitraum" target="_top" title="https://bo4e.github.io/BO4E-python/v202607.1.0-rc1/api/bo4e.com.html#module-bo4e.com.zeitraum" xlink:actuate="onRequest" xlink:href="https://bo4e.github.io/BO4E-python/v202607.1.0-rc1/api/bo4e.com.html#module-bo4e.com.zeitraum" xlink:show="new" xlink:title="https://bo4e.github.io/BO4E-python/v202607.1.0-rc1/api/bo4e.com.html#module-bo4e.com.zeitraum" xlink:type="simple"><text fill="#0000FF" font-family="sans-serif" font-size="14" lengthAdjust="spacing" text-decoration="underline" textLength="64.4287" x="462.054" y="175.0251">Zeitraum</text></a><text fill="#000000" font-family="sans-serif" font-size="10" lengthAdjust="spacing" textLength="70.5566" x="458.99" y="187.6091">com.Zeitraum</text></g><!--class Energiemenge--><g class="entity" data-qualified-name="Energiemenge" data-source-line="3" id="ent0001"><rect fill="#F1F1F1" height="127.4219" rx="2.5" ry="2.5" style="stroke:#181818;stroke-width:0.5;" width="277.9932" x="7" y="76.29"/><ellipse cx="90.6958" cy="95.2587" fill="#ADD1B2" rx="11" ry="11" style="stroke:#181818;stroke-width:1;"/><path d="M93.6646,100.8994 Q93.0864,101.1962 92.4458,101.3369 Q91.8052,101.4931 91.1021,101.4931 Q88.6021,101.4931 87.2739,99.8525 Q85.9614,98.1962 85.9614,95.0712 Q85.9614,91.9462 87.2739,90.29 Q88.6021,88.6337 91.1021,88.6337 Q91.8052,88.6337 92.4458,88.79 Q93.1021,88.9462 93.6646,89.2431 L93.6646,91.9619 Q93.0396,91.3837 92.4458,91.1181 Q91.8521,90.8369 91.2271,90.8369 Q89.8833,90.8369 89.1958,91.915 Q88.5083,92.9775 88.5083,95.0712 Q88.5083,97.165 89.1958,98.2431 Q89.8833,99.3056 91.2271,99.3056 Q91.8521,99.3056 92.4458,99.04 Q93.0396,98.7587 93.6646,98.1806 L93.6646,100.8994 Z " fill="#000000"/><a href="https://bo4e.github.io/BO4E-python/v202607.1.0-rc1/api/bo4e.bo.html#module-bo4e.bo.energiemenge" target="_top" title="https://bo4e.github.io/BO4E-python/v202607.1.0-rc1/api/bo4e.bo.html#module-bo4e.bo.energiemenge" xlink:actuate="onRequest" xlink:href="https://bo4e.github.io/BO4E-python/v202607.1.0-rc1/api/bo4e.bo.html#module-bo4e.bo.energiemenge" xlink:show="new" xlink:title="https://bo4e.github.io/BO4E-python/v202607.1.0-rc1/api/bo4e.bo.html#module-bo4e.bo.energiemenge" xlink:type="simple"><text fill="#0000FF" font-family="sans-serif" font-size="14" lengthAdjust="spacing" text-decoration="underline" textLength="102.1016" x="111.1958" y="94.2851">Energiemenge</text></a><text fill="#000000" font-family="sans-serif" font-size="10" lengthAdjust="spacing" textLength="88.5742" x="117.9595" y="106.8691">bo.Energiemenge</text><line style="stroke:#181818;stroke-width:0.5;" x1="8" x2="283.9932" y1="114.2275" y2="114.2275"/><text fill="#000000" font-family="sans-serif" font-size="14" lengthAdjust="spacing" textLength="94.0215" x="13" y="131.2226">_id : str [0..1]</text><text fill="#000000" font-family="sans-serif" font-size="14" lengthAdjust="spacing" textLength="265.9932" x="13" y="147.5195">_typ : Literal["ENERGIEMENGE"] [0..1]</text><text fill="#000000" font-family="sans-serif" font-size="14" lengthAdjust="spacing" textLength="132.5215" x="13" y="163.8164">_version : str [0..1]</text><text fill="#000000" font-family="sans-serif" font-size="14" lengthAdjust="spacing" textLength="169.3877" x="13" y="180.1132">beschreibung : str [0..1]</text><text fill="#000000" font-family="sans-serif" font-size="14" lengthAdjust="spacing" textLength="167.1113" x="13" y="196.4101">obisKennzahl : str [0..1]</text></g><!--link Energiemenge to Menge--><g class="link" data-entity-1="ent0001" data-entity-2="ent0003" data-link-type="composition" data-source-line="30" id="lnk6"><path codeLine="30" d="M285.44,124.63 C339.27,118.65 385.2233,113.5542 423.7733,109.2742" fill="none" id="Energiemenge-to-Menge" style="stroke:#181818;stroke-width:1;"/><polygon fill="#181818" points="435.7,107.95,429.2953,104.6365,423.7733,109.2742,430.178,112.5877,435.7,107.95" style="stroke:#181818;stroke-width:1;stroke-linejoin:miter;stroke-miterlimit:10;"/><text fill="#000000" font-family="sans-serif" font-size="13" lengthAdjust="spacing" textLength="45.1509" x="321.99" y="111.0369">menge</text><text fill="#000000" font-family="sans-serif" font-size="13" lengthAdjust="spacing" textLength="24.8066" x="403.3041" y="121.8554">0..1</text></g><!--link Energiemenge to Zeitraum--><g class="link" data-entity-1="ent0001" data-entity-2="ent0005" data-link-type="composition" data-source-line="31" id="lnk7"><path codeLine="31" d="M285.27,163.4 C295.32,164.74 305.3,165.96 314.99,167 C353.28,171.11 384.7784,172.9298 417.5384,174.1598" fill="none" id="Energiemenge-to-Zeitraum" style="stroke:#181818;stroke-width:1;"/><polygon fill="#181818" points="429.53,174.61,423.6843,170.3877,417.5384,174.1598,423.3841,178.3821,429.53,174.61" style="stroke:#181818;stroke-width:1;stroke-linejoin:miter;stroke-miterlimit:10;"/><text fill="#000000" font-family="sans-serif" font-size="13" lengthAdjust="spacing" textLength="57.7446" x="315.99" y="163.0669">zeitraum</text><text fill="#000000" font-family="sans-serif" font-size="13" lengthAdjust="spacing" textLength="24.8066" x="397.0194" y="187.507">0..1</text></g><?plantuml-src jPDVQzim5CNV_Iakxjl0Vr9ADqmPT4EKqhg3iBqa3KEsRoo1BHdfEg4f-UwLdRYhvnKMsFnadNEkxFD3gd1DG1gCB0L18Gtc9BNolBpYreA_N0gYnYPHbEaB34j9eir2gQCltovOq3oHq2hQdCVdb_77S1R6WSbd4M_a8PxfK51TdTMwQ2iC1WqLcb9YZQf4O6yMgzMZkh9oXyai_ko2RpqVk1s5uTa3z_oK1IHWoS0o3iFPwY3IK-FKUqbeUBNqsGERtzoob3tSC7yrIcxGMDTukaU6DXS6PTQgSkhgJDexL6h7HJLszvwdU8ssuJc2ttVETTt__h20CnPVVxhyUgpmJrYxRQUmE_40AvtmxRpqbMnwAjAJM6xHa5FNbURqYzF_xxv3IOQtDIoEBnC2Wz5361QdS5Yms-_pwn_ftw8eU8jcAgCg2axkqubB4FvcjS9qLPn9iXwPbhYXzoPxyy-p--wSZgvJ47m0lpFzus58e3VUJRtIIc3Wx7b25kZcwiprzwpGMnZTObXBh0hx0W00?></g></svg>