<svg xmlns="http://www.w3.org/2000/svg" xmlns:xlink="http://www.w3.org/1999/xlink" contentStyleType="text/css" data-diagram-type="CLASS" height="793px" preserveAspectRatio="none" style="width:1120px;height:793px;background:#FFFFFF;" version="1.1" viewBox="0 0 1120 793" width="1120px" zoomAndPan="magnify"><defs/><g><!--cluster bo4e--><g class="cluster" data-entity="bo4e" data-source-line="12" data-uid="ent0005" id="cluster_bo4e"><path d="M839.31,6 L879.186,6 A3.75,3.75 0 0 1 881.686,8.5 L888.686,28.2969 L1111.08,28.2969 A2.5,2.5 0 0 1 1113.58,30.7969 L1113.58,783.5 A2.5,2.5 0 0 1 1111.08,786 L839.31,786 A2.5,2.5 0 0 1 836.81,783.5 L836.81,8.5 A2.5,2.5 0 0 1 839.31,6" fill="none" style="stroke:#000000;stroke-width:1.5;"/><line style="stroke:#000000;stroke-width:1.5;" x1="836.81" x2="888.686" y1="28.2969" y2="28.2969"/><text fill="#000000" font-family="sans-serif" font-size="14" font-weight="bold" lengthAdjust="spacing" textLength="38.876" x="840.81" y="20.9951">bo4e</text></g><!--cluster com--><g class="cluster" data-entity="com" data-source-line="11" data-uid="ent0003" id="cluster_com"><path d="M891.43,49 L969.1292,49 A3.75,3.75 0 0 1 971.6292,51.5 L978.6292,71.2969 L1058.96,71.2969 A2.5,2.5 0 0 1 1061.46,73.7969 L1061.46,208.5 A2.5,2.5 0 0 1 1058.96,211 L891.43,211 A2.5,2.5 0 0 1 888.93,208.5 L888.93,51.5 A2.5,2.5 0 0 1 891.43,49" fill="#E0A86C" style="stroke:#000000;stroke-width:1.5;"/><line style="stroke:#000000;stroke-width:1.5;" x1="888.93" x2="978.6292" y1="71.2969" y2="71.2969"/><a href="https://bo4e.github.io/BO4E-python/v202501.1.0-rc2/api/bo4e.com.html" target="_top" title="https://bo4e.github.io/BO4E-python/v202501.1.0-rc2/api/bo4e.com.html" xlink:actuate="onRequest" xlink:href="https://bo4e.github.io/BO4E-python/v202501.1.0-rc2/api/bo4e.com.html" xlink:show="new" xlink:title="https://bo4e.github.io/BO4E-python/v202501.1.0-rc2/api/bo4e.com.html" xlink:type="simple"><text fill="#0000FF" font-family="sans-serif" font-size="14" font-weight="bold" lengthAdjust="spacing" text-decoration="underline" textLength="76.6992" x="892.93" y="63.9951">bo4e.com</text></a></g><!--cluster enum--><g class="cluster" data-entity="enum" data-source-line="15" data-uid="ent0007" id="cluster_enum"><path d="M863.31,235 L952.5209,235 A3.75,3.75 0 0 1 955.0209,237.5 L962.0209,257.2969 L1087.08,257.2969 A2.5,2.5 0 0 1 1089.58,259.7969 L1089.58,759.5 A2.5,2.5 0 0 1 1087.08,762 L863.31,762 A2.5,2.5 0 0 1 860.81,759.5 L860.81,237.5 A2.5,2.5 0 0 1 863.31,235" fill="#D1C358" style="stroke:#000000;stroke-width:1.5;"/><line style="stroke:#000000;stroke-width:1.5;" x1="860.81" x2="962.0209" y1="257.2969" y2="257.2969"/><a href="https://bo4e.github.io/BO4E-python/v202501.1.0-rc2/api/bo4e.enum.html" target="_top" title="https://bo4e.github.io/BO4E-python/v202501.1.0-rc2/api/bo4e.enum.html" xlink:actuate="onRequest" xlink:href="https://bo4e.github.io/BO4E-python/v202501.1.0-rc2/api/bo4e.enum.html" xlink:show="new" xlink:title="https://bo4e.github.io/BO4E-python/v202501.1.0-rc2/api/bo4e.enum.html" xlink:type="simple"><text fill="#0000FF" font-family="sans-serif" font-size="14" font-weight="bold" lengthAdjust="spacing" text-decoration="underline" textLength="88.2109" x="864.81" y="249.9951">bo4e.enum</text></a></g><!--class COM--><g class="entity" data-entity="COM" data-source-line="12" data-uid="ent0004" id="entity_COM"><rect fill="#F1F1F1" height="37.9375" rx="2.5" ry="2.5" style="stroke:#181818;stroke-width:0.5;" width="106.0527" x="922.17" y="84.03"/><ellipse cx="937.17" cy="102.9987" fill="#ADD1B2" rx="11" ry="11" style="stroke:#181818;stroke-width:1;"/><path d="M940.1388,108.6394 Q939.5606,108.9362 938.92,109.0769 Q938.2794,109.2331 937.5763,109.2331 Q935.0763,109.2331 933.7481,107.5925 Q932.4356,105.9362 932.4356,102.8112 Q932.4356,99.6862 933.7481,98.03 Q935.0763,96.3737 937.5763,96.3737 Q938.2794,96.3737 938.92,96.53 Q939.5763,96.6862 940.1388,96.9831 L940.1388,99.7019 Q939.5138,99.1237 938.92,98.8581 Q938.3263,98.5769 937.7013,98.5769 Q936.3575,98.5769 935.67,99.655 Q934.9825,100.7175 934.9825,102.8112 Q934.9825,104.905 935.67,105.9831 Q936.3575,107.0456 937.7013,107.0456 Q938.3263,107.0456 938.92,106.78 Q939.5138,106.4987 940.1388,105.9206 L940.1388,108.6394 Z " fill="#000000"/><a href="https://bo4e.github.io/BO4E-python/v202501.1.0-rc2/api/bo4e.com.html#bo4e.com.com.COM" target="_top" title="https://bo4e.github.io/BO4E-python/v202501.1.0-rc2/api/bo4e.com.html#bo4e.com.com.COM" xlink:actuate="onRequest" xlink:href="https://bo4e.github.io/BO4E-python/v202501.1.0-rc2/api/bo4e.com.html#bo4e.com.com.COM" xlink:show="new" xlink:title="https://bo4e.github.io/BO4E-python/v202501.1.0-rc2/api/bo4e.com.html#bo4e.com.com.COM" xlink:type="simple"><text fill="#0000FF" font-family="sans-serif" font-size="14" lengthAdjust="spacing" text-decoration="underline" textLength="32.874" x="971.7594" y="102.0251">COM</text></a><text fill="#000000" font-family="sans-serif" font-size="10" lengthAdjust="spacing" textLength="74.0527" x="951.17" y="114.6091">bo4e.com.com</text></g><!--class Preisstaffel--><g class="entity" data-entity="Preisstaffel" data-source-line="13" data-uid="ent0006" id="entity_Preisstaffel"><rect fill="#F1F1F1" height="37.9375" rx="2.5" ry="2.5" style="stroke:#181818;stroke-width:0.5;" width="140.5254" x="904.93" y="157.03"/><ellipse cx="919.93" cy="175.9987" fill="#ADD1B2" rx="11" ry="11" style="stroke:#181818;stroke-width:1;"/><path d="M922.8988,181.6394 Q922.3206,181.9362 921.68,182.0769 Q921.0394,182.2331 920.3363,182.2331 Q917.8363,182.2331 916.5081,180.5925 Q915.1956,178.9362 915.1956,175.8112 Q915.1956,172.6862 916.5081,171.03 Q917.8363,169.3737 920.3363,169.3737 Q921.0394,169.3737 921.68,169.53 Q922.3363,169.6862 922.8988,169.9831 L922.8988,172.7019 Q922.2738,172.1237 921.68,171.8581 Q921.0863,171.5769 920.4613,171.5769 Q919.1175,171.5769 918.43,172.655 Q917.7425,173.7175 917.7425,175.8112 Q917.7425,177.905 918.43,178.9831 Q919.1175,180.0456 920.4613,180.0456 Q921.0863,180.0456 921.68,179.78 Q922.2738,179.4987 922.8988,178.9206 L922.8988,181.6394 Z " fill="#000000"/><a href="https://bo4e.github.io/BO4E-python/v202501.1.0-rc2/api/bo4e.com.html#bo4e.com.preisstaffel.Preisstaffel" target="_top" title="https://bo4e.github.io/BO4E-python/v202501.1.0-rc2/api/bo4e.com.html#bo4e.com.preisstaffel.Preisstaffel" xlink:actuate="onRequest" xlink:href="https://bo4e.github.io/BO4E-python/v202501.1.0-rc2/api/bo4e.com.html#bo4e.com.preisstaffel.Preisstaffel" xlink:show="new" xlink:title="https://bo4e.github.io/BO4E-python/v202501.1.0-rc2/api/bo4e.com.html#bo4e.com.preisstaffel.Preisstaffel" xlink:type="simple"><text fill="#0000FF" font-family="sans-serif" font-size="14" lengthAdjust="spacing" text-decoration="underline" textLength="77.7178" x="949.3338" y="175.0251">Preisstaffel</text></a><text fill="#000000" font-family="sans-serif" font-size="10" lengthAdjust="spacing" textLength="108.5254" x="933.93" y="187.6091">bo4e.com.preisstaffel</text></g><!--class Leistungstyp--><g class="entity" data-entity="Leistungstyp" data-source-line="16" data-uid="ent0008" id="entity_Leistungstyp"><rect fill="#F1F1F1" height="37.9375" rx="2.5" ry="2.5" style="stroke:#181818;stroke-width:0.5;" width="153.167" x="898.61" y="270.03"/><ellipse cx="913.61" cy="288.9988" fill="#ADD1B2" rx="11" ry="11" style="stroke:#181818;stroke-width:1;"/><path d="M916.5788,294.6394 Q916.0006,294.9363 915.36,295.0769 Q914.7194,295.2331 914.0163,295.2331 Q911.5163,295.2331 910.1881,293.5925 Q908.8756,291.9363 908.8756,288.8113 Q908.8756,285.6863 910.1881,284.03 Q911.5163,282.3738 914.0163,282.3738 Q914.7194,282.3738 915.36,282.53 Q916.0163,282.6863 916.5788,282.9831 L916.5788,285.7019 Q915.9538,285.1238 915.36,284.8581 Q914.7663,284.5769 914.1413,284.5769 Q912.7975,284.5769 912.11,285.655 Q911.4225,286.7175 911.4225,288.8113 Q911.4225,290.905 912.11,291.9831 Q912.7975,293.0456 914.1413,293.0456 Q914.7663,293.0456 915.36,292.78 Q915.9538,292.4988 916.5788,291.9206 L916.5788,294.6394 Z " fill="#000000"/><a href="https://bo4e.github.io/BO4E-python/v202501.1.0-rc2/api/bo4e.enum.html#bo4e.enum.leistungstyp.Leistungstyp" target="_top" title="https://bo4e.github.io/BO4E-python/v202501.1.0-rc2/api/bo4e.enum.html#bo4e.enum.leistungstyp.Leistungstyp" xlink:actuate="onRequest" xlink:href="https://bo4e.github.io/BO4E-python/v202501.1.0-rc2/api/bo4e.enum.html#bo4e.enum.leistungstyp.Leistungstyp" xlink:show="new" xlink:title="https://bo4e.github.io/BO4E-python/v202501.1.0-rc2/api/bo4e.enum.html#bo4e.enum.leistungstyp.Leistungstyp" xlink:type="simple"><text fill="#0000FF" font-family="sans-serif" font-size="14" lengthAdjust="spacing" text-decoration="underline" textLength="89.6738" x="943.3566" y="288.0251">Leistungstyp</text></a><text fill="#000000" font-family="sans-serif" font-size="10" lengthAdjust="spacing" textLength="121.167" x="927.61" y="300.6091">bo4e.enum.leistungstyp</text></g><!--class BDEWArtikelnummer--><g class="entity" data-entity="BDEWArtikelnummer" data-source-line="17" data-uid="ent0009" id="entity_BDEWArtikelnummer"><rect fill="#F1F1F1" height="37.9375" rx="2.5" ry="2.5" style="stroke:#181818;stroke-width:0.5;" width="193.0156" x="878.69" y="343.03"/><ellipse cx="893.69" cy="361.9988" fill="#ADD1B2" rx="11" ry="11" style="stroke:#181818;stroke-width:1;"/><path d="M896.6588,367.6394 Q896.0806,367.9363 895.44,368.0769 Q894.7994,368.2331 894.0963,368.2331 Q891.5963,368.2331 890.2681,366.5925 Q888.9556,364.9363 888.9556,361.8113 Q888.9556,358.6863 890.2681,357.03 Q891.5963,355.3738 894.0963,355.3738 Q894.7994,355.3738 895.44,355.53 Q896.0963,355.6863 896.6588,355.9831 L896.6588,358.7019 Q896.0338,358.1238 895.44,357.8581 Q894.8463,357.5769 894.2213,357.5769 Q892.8775,357.5769 892.19,358.655 Q891.5025,359.7175 891.5025,361.8113 Q891.5025,363.905 892.19,364.9831 Q892.8775,366.0456 894.2213,366.0456 Q894.8463,366.0456 895.44,365.78 Q896.0338,365.4988 896.6588,364.9206 L896.6588,367.6394 Z " fill="#000000"/><a href="https://bo4e.github.io/BO4E-python/v202501.1.0-rc2/api/bo4e.enum.html#bo4e.enum.bdewartikelnummer.BDEWArtikelnummer" target="_top" title="https://bo4e.github.io/BO4E-python/v202501.1.0-rc2/api/bo4e.enum.html#bo4e.enum.bdewartikelnummer.BDEWArtikelnummer" xlink:actuate="onRequest" xlink:href="https://bo4e.github.io/BO4E-python/v202501.1.0-rc2/api/bo4e.enum.html#bo4e.enum.bdewartikelnummer.BDEWArtikelnummer" xlink:show="new" xlink:title="https://bo4e.github.io/BO4E-python/v202501.1.0-rc2/api/bo4e.enum.html#bo4e.enum.bdewartikelnummer.BDEWArtikelnummer" xlink:type="simple"><text fill="#0000FF" font-family="sans-serif" font-size="14" lengthAdjust="spacing" text-decoration="underline" textLength="147.7861" x="914.3047" y="361.0251">BDEWArtikelnummer</text></a><text fill="#000000" font-family="sans-serif" font-size="10" lengthAdjust="spacing" textLength="161.0156" x="907.69" y="373.6091">bo4e.enum.bdewartikelnummer</text></g><!--class Kalkulationsmethode--><g class="entity" data-entity="Kalkulationsmethode" data-source-line="18" data-uid="ent0010" id="entity_Kalkulationsmethode"><rect fill="#F1F1F1" height="37.9375" rx="2.5" ry="2.5" style="stroke:#181818;stroke-width:0.5;" width="196.7754" x="876.81" y="416.03"/><ellipse cx="891.81" cy="434.9988" fill="#ADD1B2" rx="11" ry="11" style="stroke:#181818;stroke-width:1;"/><path d="M894.7788,440.6394 Q894.2006,440.9363 893.56,441.0769 Q892.9194,441.2331 892.2163,441.2331 Q889.7163,441.2331 888.3881,439.5925 Q887.0756,437.9363 887.0756,434.8113 Q887.0756,431.6863 888.3881,430.03 Q889.7163,428.3738 892.2163,428.3738 Q892.9194,428.3738 893.56,428.53 Q894.2163,428.6863 894.7788,428.9831 L894.7788,431.7019 Q894.1538,431.1238 893.56,430.8581 Q892.9663,430.5769 892.3413,430.5769 Q890.9975,430.5769 890.31,431.655 Q889.6225,432.7175 889.6225,434.8113 Q889.6225,436.905 890.31,437.9831 Q890.9975,439.0456 892.3413,439.0456 Q892.9663,439.0456 893.56,438.78 Q894.1538,438.4988 894.7788,437.9206 L894.7788,440.6394 Z " fill="#000000"/><a href="https://bo4e.github.io/BO4E-python/v202501.1.0-rc2/api/bo4e.enum.html#bo4e.enum.kalkulationsmethode.Kalkulationsmethode" target="_top" title="https://bo4e.github.io/BO4E-python/v202501.1.0-rc2/api/bo4e.enum.html#bo4e.enum.kalkulationsmethode.Kalkulationsmethode" xlink:actuate="onRequest" xlink:href="https://bo4e.github.io/BO4E-python/v202501.1.0-rc2/api/bo4e.enum.html#bo4e.enum.kalkulationsmethode.Kalkulationsmethode" xlink:show="new" xlink:title="https://bo4e.github.io/BO4E-python/v202501.1.0-rc2/api/bo4e.enum.html#bo4e.enum.kalkulationsmethode.Kalkulationsmethode" xlink:type="simple"><text fill="#0000FF" font-family="sans-serif" font-size="14" lengthAdjust="spacing" text-decoration="underline" textLength="147.8887" x="914.2534" y="434.0251">Kalkulationsmethode</text></a><text fill="#000000" font-family="sans-serif" font-size="10" lengthAdjust="spacing" textLength="164.7754" x="905.81" y="446.6091">bo4e.enum.kalkulationsmethode</text></g><!--class Tarifzeit--><g class="entity" data-entity="Tarifzeit" data-source-line="19" data-uid="ent0011" id="entity_Tarifzeit"><rect fill="#F1F1F1" height="37.9375" rx="2.5" ry="2.5" style="stroke:#181818;stroke-width:0.5;" width="130.4668" x="909.96" y="489.03"/><ellipse cx="924.96" cy="507.9988" fill="#ADD1B2" rx="11" ry="11" style="stroke:#181818;stroke-width:1;"/><path d="M927.9288,513.6394 Q927.3506,513.9363 926.71,514.0769 Q926.0694,514.2331 925.3663,514.2331 Q922.8663,514.2331 921.5381,512.5925 Q920.2256,510.9363 920.2256,507.8113 Q920.2256,504.6863 921.5381,503.03 Q922.8663,501.3738 925.3663,501.3738 Q926.0694,501.3738 926.71,501.53 Q927.3663,501.6863 927.9288,501.9831 L927.9288,504.7019 Q927.3038,504.1238 926.71,503.8581 Q926.1163,503.5769 925.4913,503.5769 Q924.1475,503.5769 923.46,504.655 Q922.7725,505.7175 922.7725,507.8113 Q922.7725,509.905 923.46,510.9831 Q924.1475,512.0456 925.4913,512.0456 Q926.1163,512.0456 926.71,511.78 Q927.3038,511.4988 927.9288,510.9206 L927.9288,513.6394 Z " fill="#000000"/><a href="https://bo4e.github.io/BO4E-python/v202501.1.0-rc2/api/bo4e.enum.html#bo4e.enum.tarifzeit.Tarifzeit" target="_top" title="https://bo4e.github.io/BO4E-python/v202501.1.0-rc2/api/bo4e.enum.html#bo4e.enum.tarifzeit.Tarifzeit" xlink:actuate="onRequest" xlink:href="https://bo4e.github.io/BO4E-python/v202501.1.0-rc2/api/bo4e.enum.html#bo4e.enum.tarifzeit.Tarifzeit" xlink:show="new" xlink:title="https://bo4e.github.io/BO4E-python/v202501.1.0-rc2/api/bo4e.enum.html#bo4e.enum.tarifzeit.Tarifzeit" xlink:type="simple"><text fill="#0000FF" font-family="sans-serif" font-size="14" lengthAdjust="spacing" text-decoration="underline" textLength="57.0459" x="959.6704" y="507.0251">Tarifzeit</text></a><text fill="#000000" font-family="sans-serif" font-size="10" lengthAdjust="spacing" textLength="98.4668" x="938.96" y="519.6091">bo4e.enum.tarifzeit</text></g><!--class Bemessungsgroesse--><g class="entity" data-entity="Bemessungsgroesse" data-source-line="20" data-uid="ent0012" id="entity_Bemessungsgroesse"><rect fill="#F1F1F1" height="37.9375" rx="2.5" ry="2.5" style="stroke:#181818;stroke-width:0.5;" width="194.2559" x="878.07" y="562.03"/><ellipse cx="893.07" cy="580.9988" fill="#ADD1B2" rx="11" ry="11" style="stroke:#181818;stroke-width:1;"/><path d="M896.0388,586.6394 Q895.4606,586.9363 894.82,587.0769 Q894.1794,587.2331 893.4763,587.2331 Q890.9763,587.2331 889.6481,585.5925 Q888.3356,583.9363 888.3356,580.8113 Q888.3356,577.6863 889.6481,576.03 Q890.9763,574.3738 893.4763,574.3738 Q894.1794,574.3738 894.82,574.53 Q895.4763,574.6863 896.0388,574.9831 L896.0388,577.7019 Q895.4138,577.1238 894.82,576.8581 Q894.2263,576.5769 893.6013,576.5769 Q892.2575,576.5769 891.57,577.655 Q890.8825,578.7175 890.8825,580.8113 Q890.8825,582.905 891.57,583.9831 Q892.2575,585.0456 893.6013,585.0456 Q894.2263,585.0456 894.82,584.78 Q895.4138,584.4988 896.0388,583.9206 L896.0388,586.6394 Z " fill="#000000"/><a href="https://bo4e.github.io/BO4E-python/v202501.1.0-rc2/api/bo4e.enum.html#bo4e.enum.bemessungsgroesse.Bemessungsgroesse" target="_top" title="https://bo4e.github.io/BO4E-python/v202501.1.0-rc2/api/bo4e.enum.html#bo4e.enum.bemessungsgroesse.Bemessungsgroesse" xlink:actuate="onRequest" xlink:href="https://bo4e.github.io/BO4E-python/v202501.1.0-rc2/api/bo4e.enum.html#bo4e.enum.bemessungsgroesse.Bemessungsgroesse" xlink:show="new" xlink:title="https://bo4e.github.io/BO4E-python/v202501.1.0-rc2/api/bo4e.enum.html#bo4e.enum.bemessungsgroesse.Bemessungsgroesse" xlink:type="simple"><text fill="#0000FF" font-family="sans-serif" font-size="14" lengthAdjust="spacing" text-decoration="underline" textLength="144.0059" x="916.195" y="580.0251">Bemessungsgroesse</text></a><text fill="#000000" font-family="sans-serif" font-size="10" lengthAdjust="spacing" textLength="162.2559" x="907.07" y="592.6091">bo4e.enum.bemessungsgroesse</text></g><!--class Waehrungseinheit--><g class="entity" data-entity="Waehrungseinheit" data-source-line="21" data-uid="ent0013" id="entity_Waehrungseinheit"><rect fill="#F1F1F1" height="37.9375" rx="2.5" ry="2.5" style="stroke:#181818;stroke-width:0.5;" width="181.5068" x="884.44" y="635.03"/><ellipse cx="899.44" cy="653.9988" fill="#ADD1B2" rx="11" ry="11" style="stroke:#181818;stroke-width:1;"/><path d="M902.4088,659.6394 Q901.8306,659.9363 901.19,660.0769 Q900.5494,660.2331 899.8463,660.2331 Q897.3463,660.2331 896.0181,658.5925 Q894.7056,656.9363 894.7056,653.8113 Q894.7056,650.6863 896.0181,649.03 Q897.3463,647.3738 899.8463,647.3738 Q900.5494,647.3738 901.19,647.53 Q901.8463,647.6863 902.4088,647.9831 L902.4088,650.7019 Q901.7838,650.1238 901.19,649.8581 Q900.5963,649.5769 899.9713,649.5769 Q898.6275,649.5769 897.94,650.655 Q897.2525,651.7175 897.2525,653.8113 Q897.2525,655.905 897.94,656.9831 Q898.6275,658.0456 899.9713,658.0456 Q900.5963,658.0456 901.19,657.78 Q901.7838,657.4988 902.4088,656.9206 L902.4088,659.6394 Z " fill="#000000"/><a href="https://bo4e.github.io/BO4E-python/v202501.1.0-rc2/api/bo4e.enum.html#bo4e.enum.waehrungseinheit.Waehrungseinheit" target="_top" title="https://bo4e.github.io/BO4E-python/v202501.1.0-rc2/api/bo4e.enum.html#bo4e.enum.waehrungseinheit.Waehrungseinheit" xlink:actuate="onRequest" xlink:href="https://bo4e.github.io/BO4E-python/v202501.1.0-rc2/api/bo4e.enum.html#bo4e.enum.waehrungseinheit.Waehrungseinheit" xlink:show="new" xlink:title="https://bo4e.github.io/BO4E-python/v202501.1.0-rc2/api/bo4e.enum.html#bo4e.enum.waehrungseinheit.Waehrungseinheit" xlink:type="simple"><text fill="#0000FF" font-family="sans-serif" font-size="14" lengthAdjust="spacing" text-decoration="underline" textLength="127.832" x="924.2774" y="653.0251">Waehrungseinheit</text></a><text fill="#000000" font-family="sans-serif" font-size="10" lengthAdjust="spacing" textLength="149.5068" x="913.44" y="665.6091">bo4e.enum.waehrungseinheit</text></g><!--class Mengeneinheit--><g class="entity" data-entity="Mengeneinheit" data-source-line="22" data-uid="ent0014" id="entity_Mengeneinheit"><rect fill="#F1F1F1" height="37.9375" rx="2.5" ry="2.5" style="stroke:#181818;stroke-width:0.5;" width="167.4346" x="891.48" y="708.03"/><ellipse cx="906.48" cy="726.9988" fill="#ADD1B2" rx="11" ry="11" style="stroke:#181818;stroke-width:1;"/><path d="M909.4488,732.6394 Q908.8706,732.9363 908.23,733.0769 Q907.5894,733.2331 906.8863,733.2331 Q904.3863,733.2331 903.0581,731.5925 Q901.7456,729.9363 901.7456,726.8113 Q901.7456,723.6863 903.0581,722.03 Q904.3863,720.3738 906.8863,720.3738 Q907.5894,720.3738 908.23,720.53 Q908.8863,720.6863 909.4488,720.9831 L909.4488,723.7019 Q908.8238,723.1238 908.23,722.8581 Q907.6363,722.5769 907.0113,722.5769 Q905.6675,722.5769 904.98,723.655 Q904.2925,724.7175 904.2925,726.8113 Q904.2925,728.905 904.98,729.9831 Q905.6675,731.0456 907.0113,731.0456 Q907.6363,731.0456 908.23,730.78 Q908.8238,730.4988 909.4488,729.9206 L909.4488,732.6394 Z " fill="#000000"/><a href="https://bo4e.github.io/BO4E-python/v202501.1.0-rc2/api/bo4e.enum.html#bo4e.enum.mengeneinheit.Mengeneinheit" target="_top" title="https://bo4e.github.io/BO4E-python/v202501.1.0-rc2/api/bo4e.enum.html#bo4e.enum.mengeneinheit.Mengeneinheit" xlink:actuate="onRequest" xlink:href="https://bo4e.github.io/BO4E-python/v202501.1.0-rc2/api/bo4e.enum.html#bo4e.enum.mengeneinheit.Mengeneinheit" xlink:show="new" xlink:title="https://bo4e.github.io/BO4E-python/v202501.1.0-rc2/api/bo4e.enum.html#bo4e.enum.mengeneinheit.Mengeneinheit" xlink:type="simple"><text fill="#0000FF" font-family="sans-serif" font-size="14" lengthAdjust="spacing" text-decoration="underline" textLength="104.1797" x="936.1074" y="726.0251">Mengeneinheit</text></a><text fill="#000000" font-family="sans-serif" font-size="10" lengthAdjust="spacing" textLength="135.4346" x="920.48" y="738.6091">bo4e.enum.mengeneinheit</text></g><!--class Preisposition--><g class="entity" data-entity="Preisposition" data-source-line="3" data-uid="ent0002" id="entity_Preisposition"><rect fill="#F1F1F1" height="127.4219" rx="2.5" ry="2.5" style="stroke:#181818;stroke-width:0.5;" width="639.8057" x="7" y="401.29"/><ellipse cx="264.2007" cy="420.2588" fill="#ADD1B2" rx="11" ry="11" style="stroke:#181818;stroke-width:1;"/><path d="M267.1694,425.8994 Q266.5913,426.1963 265.9507,426.3369 Q265.3101,426.4931 264.6069,426.4931 Q262.1069,426.4931 260.7788,424.8525 Q259.4663,423.1963 259.4663,420.0713 Q259.4663,416.9463 260.7788,415.29 Q262.1069,413.6338 264.6069,413.6338 Q265.3101,413.6338 265.9507,413.79 Q266.6069,413.9463 267.1694,414.2431 L267.1694,416.9619 Q266.5444,416.3838 265.9507,416.1181 Q265.3569,415.8369 264.7319,415.8369 Q263.3882,415.8369 262.7007,416.915 Q262.0132,417.9775 262.0132,420.0713 Q262.0132,422.165 262.7007,423.2431 Q263.3882,424.3056 264.7319,424.3056 Q265.3569,424.3056 265.9507,424.04 Q266.5444,423.7588 267.1694,423.1806 L267.1694,425.8994 Z " fill="#000000"/><a href="https://bo4e.github.io/BO4E-python/v202501.1.0-rc2/api/bo4e.com.html#bo4e.com.preisposition.Preisposition" target="_top" title="https://bo4e.github.io/BO4E-python/v202501.1.0-rc2/api/bo4e.com.html#bo4e.com.preisposition.Preisposition" xlink:actuate="onRequest" xlink:href="https://bo4e.github.io/BO4E-python/v202501.1.0-rc2/api/bo4e.com.html#bo4e.com.preisposition.Preisposition" xlink:show="new" xlink:title="https://bo4e.github.io/BO4E-python/v202501.1.0-rc2/api/bo4e.com.html#bo4e.com.preisposition.Preisposition" xlink:type="simple"><text fill="#0000FF" font-family="sans-serif" font-size="14" lengthAdjust="spacing" text-decoration="underline" textLength="89.4482" x="298.4287" y="419.2851">Preisposition</text></a><text fill="#000000" font-family="sans-serif" font-size="10" lengthAdjust="spacing" textLength="116.9043" x="284.7007" y="431.8691">bo4e.com.preisposition</text><line style="stroke:#181818;stroke-width:0.5;" x1="8" x2="645.8057" y1="439.2275" y2="439.2275"/><text fill="#000000" font-family="sans-serif" font-size="14" lengthAdjust="spacing" textLength="627.8057" x="13" y="456.2226">_typ : Literal[&lt;ComTyp.PREISPOSITION: 'PREISPOSITION'&gt;] [1] = ComTyp.PREISPOSITION</text><text fill="#000000" font-family="sans-serif" font-size="14" lengthAdjust="spacing" textLength="283.9307" x="13" y="472.5195">leistungsbezeichnung : str [0..1] = None</text><text fill="#000000" font-family="sans-serif" font-size="14" lengthAdjust="spacing" textLength="318.1172" x="13" y="488.8164">freimengeBlindarbeit : Decimal [0..1] = None</text><text fill="#000000" font-family="sans-serif" font-size="14" lengthAdjust="spacing" textLength="350.1982" x="13" y="505.1132">freimengeLeistungsfaktor : Decimal [0..1] = None</text><text fill="#000000" font-family="sans-serif" font-size="14" lengthAdjust="spacing" textLength="247.5156" x="13" y="521.4101">gruppenartikelId : str [0..1] = None</text></g><!--link Preisposition to COM--><g class="link" data-entity-1="Preisposition" data-entity-2="COM" data-source-line="25" data-uid="lnk15" id="link_Preisposition_COM"><path codeLine="25" d="M403.29,401.05 C496.68,325.57 663.74,202.45 828.81,140 C858.89,128.62 876.2142,123.5399 904.2842,117.2599" fill="none" id="Preisposition-to-COM" style="stroke:#181818;stroke-width:1;"/><polygon fill="none" points="921.85,113.33,902.9743,111.4047,905.5942,123.1152,921.85,113.33" style="stroke:#181818;stroke-width:1;"/></g><!--link Preisposition to Kalkulationsmethode--><g class="link" data-entity-1="Preisposition" data-entity-2="Kalkulationsmethode" data-source-line="26" data-uid="lnk16" id="link_Preisposition_Kalkulationsmethode"><path codeLine="26" d="M647.26,450.18 C730.74,446.3 802.5729,442.9661 864.4329,440.0961" fill="none" id="Preisposition-to-Kalkulationsmethode" style="stroke:#181818;stroke-width:1;"/><polygon fill="#181818" points="876.42,439.54,870.2411,435.8224,864.4329,440.0961,870.6118,443.8138,876.42,439.54" style="stroke:#181818;stroke-width:1;"/><text fill="#000000" font-family="sans-serif" font-size="13" lengthAdjust="spacing" textLength="142.9238" x="677.81" y="439.0669">berechnungsmethode</text><text fill="#000000" font-family="sans-serif" font-size="13" lengthAdjust="spacing" textLength="24.8066" x="843.9695" y="452.5339">0..1</text></g><!--link Preisposition to Leistungstyp--><g class="link" data-entity-1="Preisposition" data-entity-2="Leistungstyp" data-source-line="27" data-uid="lnk17" id="link_Preisposition_Leistungstyp"><path codeLine="27" d="M539.18,400.92 C584.48,387.66 632.14,374.07 676.81,362 C751.74,341.75 826.2511,323.6173 886.4811,309.3973" fill="none" id="Preisposition-to-Leistungstyp" style="stroke:#181818;stroke-width:1;"/><polygon fill="#181818" points="898.16,306.64,891.4014,304.1257,886.4811,309.3973,893.2397,311.9116,898.16,306.64" style="stroke:#181818;stroke-width:1;"/><text fill="#000000" font-family="sans-serif" font-size="13" lengthAdjust="spacing" textLength="79.6377" x="709.31" y="323.0669">leistungstyp</text><text fill="#000000" font-family="sans-serif" font-size="13" lengthAdjust="spacing" textLength="24.8066" x="865.7124" y="321.1095">0..1</text></g><!--link Preisposition to Waehrungseinheit--><g class="link" data-entity-1="Preisposition" data-entity-2="Waehrungseinheit" data-source-line="28" data-uid="lnk18" id="link_Preisposition_Waehrungseinheit"><path codeLine="28" d="M518.74,529.17 C569.89,545.72 625.28,563.06 676.81,578 C743.79,597.42 761.23,599.73 828.81,617 C851.14,622.71 863.781,625.929 885.971,631.579" fill="none" id="Preisposition-to-Waehrungseinheit" style="stroke:#181818;stroke-width:1;"/><polygon fill="#181818" points="897.6,634.54,892.7725,629.1832,885.971,631.579,890.7985,636.9358,897.6,634.54" style="stroke:#181818;stroke-width:1;"/><text fill="#000000" font-family="sans-serif" font-size="13" lengthAdjust="spacing" textLength="76.7749" x="710.81" y="574.0669">preiseinheit</text><text fill="#000000" font-family="sans-serif" font-size="13" lengthAdjust="spacing" textLength="24.8066" x="851.8599" y="625.0519">0..1</text></g><!--link Preisposition to Mengeneinheit--><g class="link" data-entity-1="Preisposition" data-entity-2="Mengeneinheit" data-source-line="29" data-uid="lnk19" id="link_Preisposition_Mengeneinheit"><path codeLine="29" d="M444.98,529.15 C511.78,564.36 597.72,607.37 676.81,640 C742.55,667.13 760.53,670.11 828.81,690 C849.81,696.12 861.0506,699.2507 882.3106,704.6607" fill="none" id="Preisposition-to-Mengeneinheit" style="stroke:#181818;stroke-width:1;"/><polygon fill="#181818" points="893.94,707.62,889.1117,702.2639,882.3106,704.6607,887.1389,710.0168,893.94,707.62" style="stroke:#181818;stroke-width:1;"/><text fill="#000000" font-family="sans-serif" font-size="13" lengthAdjust="spacing" textLength="97.4302" x="700.31" y="636.0669">bezugsgroesse</text><text fill="#000000" font-family="sans-serif" font-size="13" lengthAdjust="spacing" textLength="24.8066" x="858.6234" y="701.4191">0..1</text></g><!--link Preisposition to Mengeneinheit--><g class="link" data-entity-1="Preisposition" data-entity-2="Mengeneinheit" data-source-line="30" data-uid="lnk20" id="link_Preisposition_Mengeneinheit"><path codeLine="30" d="M393.43,529.02 C459.06,588.55 565.99,673.65 676.81,712 C746.18,736.01 818.1044,738.5877 879.0844,735.5977" fill="none" id="Preisposition-to-Mengeneinheit-1" style="stroke:#181818;stroke-width:1;"/><polygon fill="#181818" points="891.07,735.01,884.8813,731.3086,879.0844,735.5977,885.2731,739.299,891.07,735.01" style="stroke:#181818;stroke-width:1;"/><text fill="#000000" font-family="sans-serif" font-size="13" lengthAdjust="spacing" textLength="56.9067" x="720.81" y="708.0669">zeitbasis</text><text fill="#000000" font-family="sans-serif" font-size="13" lengthAdjust="spacing" textLength="24.8066" x="858.5446" y="748.4643">0..1</text></g><!--link Preisposition to Preisstaffel--><g class="link" data-entity-1="Preisposition" data-entity-2="Preisstaffel" data-source-line="31" data-uid="lnk21" id="link_Preisposition_Preisstaffel"><path codeLine="31" d="M462,400.97 C526.66,370.44 605.5,333.75 676.81,302 C764.53,262.94 856.8689,224.3411 915.7489,200.0211" fill="none" id="Preisposition-to-Preisstaffel" style="stroke:#181818;stroke-width:1;"/><polygon fill="#181818" points="926.84,195.44,919.7674,194.0335,915.7489,200.0211,922.8215,201.4276,926.84,195.44" style="stroke:#181818;stroke-width:1;"/><text fill="#000000" font-family="sans-serif" font-size="13" lengthAdjust="spacing" textLength="80.8184" x="708.81" y="239.0669">preisstaffeln</text><text fill="#000000" font-family="sans-serif" font-size="13" lengthAdjust="spacing" textLength="23.0356" x="887.0114" y="215.1028">0..*</text></g><!--link Preisposition to Tarifzeit--><g class="link" data-entity-1="Preisposition" data-entity-2="Tarifzeit" data-source-line="32" data-uid="lnk22" id="link_Preisposition_Tarifzeit"><path codeLine="32" d="M647.26,486.25 C746.8,492.87 834.8464,498.7338 897.5564,502.9038" fill="none" id="Preisposition-to-Tarifzeit" style="stroke:#181818;stroke-width:1;"/><polygon fill="#181818" points="909.53,503.7,903.8086,499.3107,897.5564,502.9038,903.2778,507.2931,909.53,503.7" style="stroke:#181818;stroke-width:1;"/><text fill="#000000" font-family="sans-serif" font-size="13" lengthAdjust="spacing" textLength="50.1274" x="723.81" y="485.0669">tarifzeit</text><text fill="#000000" font-family="sans-serif" font-size="13" lengthAdjust="spacing" textLength="24.8066" x="877.0797" y="516.1243">0..1</text></g><!--link Preisposition to BDEWArtikelnummer--><g class="link" data-entity-1="Preisposition" data-entity-2="BDEWArtikelnummer" data-source-line="33" data-uid="lnk23" id="link_Preisposition_BDEWArtikelnummer"><path codeLine="33" d="M647.26,414.1 C731.69,400.65 804.6195,389.0285 866.6795,379.1385" fill="none" id="Preisposition-to-BDEWArtikelnummer" style="stroke:#181818;stroke-width:1;"/><polygon fill="#181818" points="878.53,377.25,871.9753,374.2441,866.6795,379.1385,873.2343,382.1444,878.53,377.25" style="stroke:#181818;stroke-width:1;"/><text fill="#000000" font-family="sans-serif" font-size="13" lengthAdjust="spacing" textLength="132.3677" x="682.81" y="383.0669">bdewArtikelnummer</text><text fill="#000000" font-family="sans-serif" font-size="13" lengthAdjust="spacing" textLength="24.8066" x="845.9027" y="391.1352">0..1</text></g><!--link Preisposition to Bemessungsgroesse--><g class="link" data-entity-1="Preisposition" data-entity-2="Bemessungsgroesse" data-source-line="34" data-uid="lnk24" id="link_Preisposition_Bemessungsgroesse"><path codeLine="34" d="M647.26,522.32 C731.38,537.42 804.0185,550.4615 866.0185,561.5815" fill="none" id="Preisposition-to-Bemessungsgroesse" style="stroke:#181818;stroke-width:1;"/><polygon fill="#181818" points="877.83,563.7,872.6304,558.7036,866.0185,561.5815,871.2181,566.5779,877.83,563.7" style="stroke:#181818;stroke-width:1;"/><text fill="#000000" font-family="sans-serif" font-size="13" lengthAdjust="spacing" textLength="105.6123" x="696.31" y="525.0669">zonungsgroesse</text><text fill="#000000" font-family="sans-serif" font-size="13" lengthAdjust="spacing" textLength="24.8066" x="845.1469" y="574.9913">0..1</text></g><!--SRC=[jLPRQzim57wkVyKXUIWKeYHTEuhf0asRXx2sAMkX3raOidqSYzYoaPILTDj_d-GcZgyZZFZ1eEzmxbU7w2jGCGYs31HuJA2hMCmjomsfbD2PpmEb4cdt-qvyWMJ9LB1s28lxuzd5f9TiL13p_i_pmVdbO4Y6PD0JxdcV9ko3tOqZ4gWex6Oe4SXa4ajch92dF882MYo-ysl9tj4U3aRruXsWiYW4lwoJ7sgJW0ttJA6WuVpwDevUDWbv-ZQPFZ_DdgSlqzcZ3QS5V3fQm7ouW2zGnssTXDg6MlEbTF0TcHjm_TOsf18m7n2IIZx67AqJNxiJ8L_YE6JSey91fZJd7Reiec4Zz_tEW4zNAXRD4aknJXBaL2Ysmd3grNhnnx8uZL0crCLZbH1sQB58yxw3q9qCRgu-tvhKjzGpvhkTFO3-whj2VwbFcg4r9zBEauhwFeOVVRi5a0V_wDejnxvfjmHThQCL2_awNoq3y-Ko6BhUqFrqUNMqUcKsktkOpOkUHNAV0v07rMHLX5FVyp8jEkru-BQTAmqZ56HyDtczoLEWGcc8eQ8h3QGYtM8qAngkrY4rMr56gEKz95-hDAYXDSHKep6DgaP3Yt4fAfYlbx0YBxiNPAy6ppEPrD-CkyrUGZtHqlJiKiJwXMHSfa25qjHBPRwFNYfJMupcZM8WZ2baF32fVoqHe4ne2AMiA8saBDjY8EcjvRie7l882gZ1_u9ywdn1oXpUqZzDh_TxbDrASyNA39hZ33hcV7VsIxfsKcrmKF-UfJyVsQ0TfAsmWMt8BzZ355JgRKDwqtPn7wIac6uJpVjwtxt_fS9CiKCbautYPvrzzWjNUnl15lB3xEzNZWtPKZbCj7fBT0RqbIZUWyDKLLQ9paJCyxl02fZkc0WZtJBIaa7y1YNLFiFGaty1]--></g></svg>