<svg xmlns="http://www.w3.org/2000/svg" xmlns:xlink="http://www.w3.org/1999/xlink" contentStyleType="text/css" data-diagram-type="CLASS" height="242px" preserveAspectRatio="none" style="width:789px;height:242px;background:#FFFFFF;" version="1.1" viewBox="0 0 789 242" width="789px" zoomAndPan="magnify"><defs/><g><!--cluster bo4e--><g class="cluster" data-entity="bo4e" data-source-line="10" data-uid="ent0005" id="cluster_bo4e"><path d="M520.08,6 L559.956,6 A3.75,3.75 0 0 1 562.456,8.5 L569.456,28.2969 L779.98,28.2969 A2.5,2.5 0 0 1 782.48,30.7969 L782.48,232.5 A2.5,2.5 0 0 1 779.98,235 L520.08,235 A2.5,2.5 0 0 1 517.58,232.5 L517.58,8.5 A2.5,2.5 0 0 1 520.08,6" fill="none" style="stroke:#000000;stroke-width:1.5;"/><line style="stroke:#000000;stroke-width:1.5;" x1="517.58" x2="569.456" y1="28.2969" y2="28.2969"/><text fill="#000000" font-family="sans-serif" font-size="14" font-weight="bold" lengthAdjust="spacing" textLength="38.876" x="521.58" y="20.9951">bo4e</text></g><!--cluster com--><g class="cluster" data-entity="com" data-source-line="9" data-uid="ent0003" id="cluster_com"><path d="M544.08,49 L621.7792,49 A3.75,3.75 0 0 1 624.2792,51.5 L631.2792,71.2969 L755.98,71.2969 A2.5,2.5 0 0 1 758.48,73.7969 L758.48,208.5 A2.5,2.5 0 0 1 755.98,211 L544.08,211 A2.5,2.5 0 0 1 541.58,208.5 L541.58,51.5 A2.5,2.5 0 0 1 544.08,49" fill="#E0A86C" style="stroke:#000000;stroke-width:1.5;"/><line style="stroke:#000000;stroke-width:1.5;" x1="541.58" x2="631.2792" y1="71.2969" y2="71.2969"/><a href="https://bo4e.github.io/BO4E-python/v202501.1.0-rc2/api/bo4e.com.html" target="_top" title="https://bo4e.github.io/BO4E-python/v202501.1.0-rc2/api/bo4e.com.html" xlink:actuate="onRequest" xlink:href="https://bo4e.github.io/BO4E-python/v202501.1.0-rc2/api/bo4e.com.html" xlink:show="new" xlink:title="https://bo4e.github.io/BO4E-python/v202501.1.0-rc2/api/bo4e.com.html" xlink:type="simple"><text fill="#0000FF" font-family="sans-serif" font-size="14" font-weight="bold" lengthAdjust="spacing" text-decoration="underline" textLength="76.6992" x="545.58" y="63.9951">bo4e.com</text></a></g><!--class Preisstaffel--><g class="entity" data-entity="Preisstaffel" data-source-line="10" data-uid="ent0004" id="entity_Preisstaffel"><rect fill="#F1F1F1" height="37.9375" rx="2.5" ry="2.5" style="stroke:#181818;stroke-width:0.5;" width="140.5254" x="579.77" y="84.03"/><ellipse cx="594.77" cy="102.9988" fill="#ADD1B2" rx="11" ry="11" style="stroke:#181818;stroke-width:1;"/><path d="M597.7388,108.6394 Q597.1606,108.9363 596.52,109.0769 Q595.8794,109.2331 595.1763,109.2331 Q592.6763,109.2331 591.3481,107.5925 Q590.0356,105.9363 590.0356,102.8113 Q590.0356,99.6863 591.3481,98.03 Q592.6763,96.3738 595.1763,96.3738 Q595.8794,96.3738 596.52,96.53 Q597.1763,96.6863 597.7388,96.9831 L597.7388,99.7019 Q597.1138,99.1238 596.52,98.8581 Q595.9263,98.5769 595.3013,98.5769 Q593.9575,98.5769 593.27,99.655 Q592.5825,100.7175 592.5825,102.8113 Q592.5825,104.905 593.27,105.9831 Q593.9575,107.0456 595.3013,107.0456 Q595.9263,107.0456 596.52,106.78 Q597.1138,106.4988 597.7388,105.9206 L597.7388,108.6394 Z " fill="#000000"/><a href="https://bo4e.github.io/BO4E-python/v202501.1.0-rc2/api/bo4e.com.html#bo4e.com.preisstaffel.Preisstaffel" target="_top" title="https://bo4e.github.io/BO4E-python/v202501.1.0-rc2/api/bo4e.com.html#bo4e.com.preisstaffel.Preisstaffel" xlink:actuate="onRequest" xlink:href="https://bo4e.github.io/BO4E-python/v202501.1.0-rc2/api/bo4e.com.html#bo4e.com.preisstaffel.Preisstaffel" xlink:show="new" xlink:title="https://bo4e.github.io/BO4E-python/v202501.1.0-rc2/api/bo4e.com.html#bo4e.com.preisstaffel.Preisstaffel" xlink:type="simple"><text fill="#0000FF" font-family="sans-serif" font-size="14" lengthAdjust="spacing" text-decoration="underline" textLength="77.7178" x="624.1738" y="102.0251">Preisstaffel</text></a><text fill="#000000" font-family="sans-serif" font-size="10" lengthAdjust="spacing" textLength="108.5254" x="608.77" y="114.6091">bo4e.com.preisstaffel</text></g><!--class RegionaleGueltigkeit--><g class="entity" data-entity="RegionaleGueltigkeit" data-source-line="11" data-uid="ent0006" id="entity_RegionaleGueltigkeit"><rect fill="#F1F1F1" height="37.9375" rx="2.5" ry="2.5" style="stroke:#181818;stroke-width:0.5;" width="184.9053" x="557.58" y="157.03"/><ellipse cx="572.58" cy="175.9988" fill="#ADD1B2" rx="11" ry="11" style="stroke:#181818;stroke-width:1;"/><path d="M575.5488,181.6394 Q574.9706,181.9363 574.33,182.0769 Q573.6894,182.2331 572.9863,182.2331 Q570.4863,182.2331 569.1581,180.5925 Q567.8456,178.9363 567.8456,175.8113 Q567.8456,172.6863 569.1581,171.03 Q570.4863,169.3738 572.9863,169.3738 Q573.6894,169.3738 574.33,169.53 Q574.9863,169.6863 575.5488,169.9831 L575.5488,172.7019 Q574.9238,172.1238 574.33,171.8581 Q573.7363,171.5769 573.1113,171.5769 Q571.7675,171.5769 571.08,172.655 Q570.3925,173.7175 570.3925,175.8113 Q570.3925,177.905 571.08,178.9831 Q571.7675,180.0456 573.1113,180.0456 Q573.7363,180.0456 574.33,179.78 Q574.9238,179.4988 575.5488,178.9206 L575.5488,181.6394 Z " fill="#000000"/><a href="https://bo4e.github.io/BO4E-python/v202501.1.0-rc2/api/bo4e.com.html#bo4e.com.regionalegueltigkeit.RegionaleGueltigkeit" target="_top" title="https://bo4e.github.io/BO4E-python/v202501.1.0-rc2/api/bo4e.com.html#bo4e.com.regionalegueltigkeit.RegionaleGueltigkeit" xlink:actuate="onRequest" xlink:href="https://bo4e.github.io/BO4E-python/v202501.1.0-rc2/api/bo4e.com.html#bo4e.com.regionalegueltigkeit.RegionaleGueltigkeit" xlink:show="new" xlink:title="https://bo4e.github.io/BO4E-python/v202501.1.0-rc2/api/bo4e.com.html#bo4e.com.regionalegueltigkeit.RegionaleGueltigkeit" xlink:type="simple"><text fill="#0000FF" font-family="sans-serif" font-size="14" lengthAdjust="spacing" text-decoration="underline" textLength="146.2275" x="589.9189" y="175.0251">RegionaleGueltigkeit</text></a><text fill="#000000" font-family="sans-serif" font-size="10" lengthAdjust="spacing" textLength="152.9053" x="586.58" y="187.6091">bo4e.com.regionalegueltigkeit</text></g><!--class RegionalePreisstaffel--><g class="entity" data-entity="RegionalePreisstaffel" data-source-line="3" data-uid="ent0002" id="entity_RegionalePreisstaffel"><rect fill="#F1F1F1" height="94.8281" rx="2.5" ry="2.5" style="stroke:#181818;stroke-width:0.5;" width="330.5752" x="7" y="92.59"/><ellipse cx="90.3228" cy="111.5588" fill="#ADD1B2" rx="11" ry="11" style="stroke:#181818;stroke-width:1;"/><path d="M93.2915,117.1994 Q92.7134,117.4963 92.0728,117.6369 Q91.4321,117.7931 90.729,117.7931 Q88.229,117.7931 86.9009,116.1525 Q85.5884,114.4963 85.5884,111.3713 Q85.5884,108.2463 86.9009,106.59 Q88.229,104.9338 90.729,104.9338 Q91.4321,104.9338 92.0728,105.09 Q92.729,105.2463 93.2915,105.5431 L93.2915,108.2619 Q92.6665,107.6838 92.0728,107.4181 Q91.479,107.1369 90.854,107.1369 Q89.5103,107.1369 88.8228,108.215 Q88.1353,109.2775 88.1353,111.3713 Q88.1353,113.465 88.8228,114.5431 Q89.5103,115.6056 90.854,115.6056 Q91.479,115.6056 92.0728,115.34 Q92.6665,115.0588 93.2915,114.4806 L93.2915,117.1994 Z " fill="#000000"/><a href="https://bo4e.github.io/BO4E-python/v202501.1.0-rc2/api/bo4e.com.html#bo4e.com.regionalepreisstaffel.RegionalePreisstaffel" target="_top" title="https://bo4e.github.io/BO4E-python/v202501.1.0-rc2/api/bo4e.com.html#bo4e.com.regionalepreisstaffel.RegionalePreisstaffel" xlink:actuate="onRequest" xlink:href="https://bo4e.github.io/BO4E-python/v202501.1.0-rc2/api/bo4e.com.html#bo4e.com.regionalepreisstaffel.RegionalePreisstaffel" xlink:show="new" xlink:title="https://bo4e.github.io/BO4E-python/v202501.1.0-rc2/api/bo4e.com.html#bo4e.com.regionalepreisstaffel.RegionalePreisstaffel" xlink:type="simple"><text fill="#0000FF" font-family="sans-serif" font-size="14" lengthAdjust="spacing" text-decoration="underline" textLength="147.3555" x="114.8599" y="110.5851">RegionalePreisstaffel</text></a><text fill="#000000" font-family="sans-serif" font-size="10" lengthAdjust="spacing" textLength="155.4297" x="110.8228" y="123.1691">bo4e.com.regionalepreisstaffel</text><line style="stroke:#181818;stroke-width:0.5;" x1="8" x2="336.5752" y1="130.5275" y2="130.5275"/><text fill="#000000" font-family="sans-serif" font-size="14" lengthAdjust="spacing" textLength="255.6709" x="13" y="147.5226">_version : str [0..1] = 202501.1.0rc2</text><text fill="#000000" font-family="sans-serif" font-size="14" lengthAdjust="spacing" textLength="151.1768" x="13" y="163.8195">_id : str [0..1] = None</text><text fill="#000000" font-family="sans-serif" font-size="14" lengthAdjust="spacing" textLength="318.5752" x="13" y="180.1164">zusatzAttribute : ZusatzAttribut [0..*] = None</text></g><!--link RegionalePreisstaffel to Preisstaffel--><g class="link" data-entity-1="RegionalePreisstaffel" data-entity-2="Preisstaffel" data-source-line="14" data-uid="lnk7" id="link_RegionalePreisstaffel_Preisstaffel"><path codeLine="14" d="M338.01,127.19 C420.57,120.77 498.1941,114.7247 561.3741,109.8147" fill="none" id="RegionalePreisstaffel-to-Preisstaffel" style="stroke:#181818;stroke-width:1;"/><polygon fill="none" points="579.32,108.42,560.9092,103.8327,561.839,115.7966,579.32,108.42" style="stroke:#181818;stroke-width:1;"/></g><!--link RegionalePreisstaffel to RegionaleGueltigkeit--><g class="link" data-entity-1="RegionalePreisstaffel" data-entity-2="RegionaleGueltigkeit" data-source-line="15" data-uid="lnk8" id="link_RegionalePreisstaffel_RegionaleGueltigkeit"><path codeLine="15" d="M337.85,152.73 C347.91,153.5 357.88,154.26 367.58,155 C430.85,159.8 490.1629,164.2321 545.1529,168.3121" fill="none" id="RegionalePreisstaffel-to-RegionaleGueltigkeit" style="stroke:#181818;stroke-width:1;"/><polygon fill="#181818" points="557.12,169.2,551.4324,164.767,545.1529,168.3121,550.8405,172.7451,557.12,169.2" style="stroke:#181818;stroke-width:1;"/><text fill="#000000" font-family="sans-serif" font-size="13" lengthAdjust="spacing" textLength="132.0947" x="368.58" y="151.0669">regionaleGueltigkeit</text><text fill="#000000" font-family="sans-serif" font-size="13" lengthAdjust="spacing" textLength="24.8066" x="524.7919" y="181.3281">0..1</text></g><!--SRC=[jLDDJuD043tBhvZGMnCMQAenH9jKqtXJuz5Ap083R0IMx0urLltlqfhoeTHUx77UldcxR-PjXZ41IL0YIGaYeJ0a8Gl323EkDPZBPKfKQi-s0pb5bWXAgu09QL_TJHTM-KQfBEpLn9cSEYvpcMEfS6BpKdpJGvcpbF9ir5GAargUPrWg55eJZsFCsCCElU-WC8Zw_bDneSKQFTUP_Irh0jV38l1kd3olKEdw23pGf63fCERwS0cjbzfAJHFHJyQjBD0uMLUQqtfEf4HG4TQannwovOyR_gTX53n7NV8G_skiiAjyV-jrLy9euSpFpwutDe-qnzxwUgCzlAnVE-gs7Et5JKII2ZCIoGiAQeDtqu8m11w8NKUpdxgEn2O2Uv9kMH-pPdkzSUxhg5l6O6uIQRQDWsuyK4EFCL8H8UIO1_KtC7GgNs7FLR70BD9V]--></g></svg>