<?xml version="1.0" encoding="us-ascii" standalone="no"?><svg xmlns="http://www.w3.org/2000/svg" xmlns:xlink="http://www.w3.org/1999/xlink" contentStyleType="text/css" height="355px" preserveAspectRatio="none" style="width:763px;height:355px;background:#FFFFFF;" version="1.1" viewBox="0 0 763 355" width="763px" zoomAndPan="magnify"><defs/><g><!--cluster bo4e--><g id="cluster_bo4e"><path d="M503.5,6 L544.5,6 A3.75,3.75 0 0 1 547,8.5 L554,28.2969 L753.5,28.2969 A2.5,2.5 0 0 1 756,30.7969 L756,345.5 A2.5,2.5 0 0 1 753.5,348 L503.5,348 A2.5,2.5 0 0 1 501,345.5 L501,8.5 A2.5,2.5 0 0 1 503.5,6 " fill="none" style="stroke:#000000;stroke-width:1.5;"/><line style="stroke:#000000;stroke-width:1.5;" x1="501" x2="554" y1="28.2969" y2="28.2969"/><text fill="#000000" font-family="sans-serif" font-size="14" font-weight="bold" lengthAdjust="spacing" textLength="40" x="505" y="20.9951">bo4e</text></g><!--cluster com--><g id="cluster_com"><path d="M563,49 L642,49 A3.75,3.75 0 0 1 644.5,51.5 L651.5,71.2969 L694,71.2969 A2.5,2.5 0 0 1 696.5,73.7969 L696.5,135.5 A2.5,2.5 0 0 1 694,138 L563,138 A2.5,2.5 0 0 1 560.5,135.5 L560.5,51.5 A2.5,2.5 0 0 1 563,49 " fill="#E0A86C" style="stroke:#000000;stroke-width:1.5;"/><line style="stroke:#000000;stroke-width:1.5;" x1="560.5" x2="651.5" y1="71.2969" y2="71.2969"/><a href="https://bo4e.github.io/BO4E-python/v202401.1.0/api/bo4e.com.html" target="_top" title="https://bo4e.github.io/BO4E-python/v202401.1.0/api/bo4e.com.html" xlink:actuate="onRequest" xlink:href="https://bo4e.github.io/BO4E-python/v202401.1.0/api/bo4e.com.html" xlink:show="new" xlink:title="https://bo4e.github.io/BO4E-python/v202401.1.0/api/bo4e.com.html" xlink:type="simple"><text fill="#0000FF" font-family="sans-serif" font-size="14" font-weight="bold" lengthAdjust="spacing" text-decoration="underline" textLength="78" x="564.5" y="63.9951">bo4e.com</text></a></g><!--cluster enum--><g id="cluster_enum"><path d="M527.5,162 L617.5,162 A3.75,3.75 0 0 1 620,164.5 L627,184.2969 L729.5,184.2969 A2.5,2.5 0 0 1 732,186.7969 L732,321.5 A2.5,2.5 0 0 1 729.5,324 L527.5,324 A2.5,2.5 0 0 1 525,321.5 L525,164.5 A2.5,2.5 0 0 1 527.5,162 " fill="#D1C358" style="stroke:#000000;stroke-width:1.5;"/><line style="stroke:#000000;stroke-width:1.5;" x1="525" x2="627" y1="184.2969" y2="184.2969"/><a href="https://bo4e.github.io/BO4E-python/v202401.1.0/api/bo4e.enum.html" target="_top" title="https://bo4e.github.io/BO4E-python/v202401.1.0/api/bo4e.enum.html" xlink:actuate="onRequest" xlink:href="https://bo4e.github.io/BO4E-python/v202401.1.0/api/bo4e.enum.html" xlink:show="new" xlink:title="https://bo4e.github.io/BO4E-python/v202401.1.0/api/bo4e.enum.html" xlink:type="simple"><text fill="#0000FF" font-family="sans-serif" font-size="14" font-weight="bold" lengthAdjust="spacing" text-decoration="underline" textLength="89" x="529" y="176.9951">bo4e.enum</text></a></g><!--class COM--><g id="elem_COM"><rect codeLine="10" fill="#F1F1F1" height="37.9375" id="COM" rx="2.5" ry="2.5" style="stroke:#181818;stroke-width:0.5;" width="104" x="576.5" y="84.03"/><ellipse cx="591.5" cy="102.9987" fill="#ADD1B2" rx="11" ry="11" style="stroke:#181818;stroke-width:1.0;"/><path d="M594.4688,108.6394 Q593.8906,108.9362 593.25,109.0769 Q592.6094,109.2331 591.9063,109.2331 Q589.4063,109.2331 588.0781,107.5925 Q586.7656,105.9362 586.7656,102.8112 Q586.7656,99.6862 588.0781,98.03 Q589.4063,96.3737 591.9063,96.3737 Q592.6094,96.3737 593.25,96.53 Q593.9063,96.6862 594.4688,96.9831 L594.4688,99.7019 Q593.8438,99.1237 593.25,98.8581 Q592.6563,98.5769 592.0313,98.5769 Q590.6875,98.5769 590,99.655 Q589.3125,100.7175 589.3125,102.8112 Q589.3125,104.905 590,105.9831 Q590.6875,107.0456 592.0313,107.0456 Q592.6563,107.0456 593.25,106.78 Q593.8438,106.4987 594.4688,105.9206 L594.4688,108.6394 Z " fill="#000000"/><a href="https://bo4e.github.io/BO4E-python/v202401.1.0/api/bo4e.com.html#bo4e.com.com.COM" target="_top" title="https://bo4e.github.io/BO4E-python/v202401.1.0/api/bo4e.com.html#bo4e.com.com.COM" xlink:actuate="onRequest" xlink:href="https://bo4e.github.io/BO4E-python/v202401.1.0/api/bo4e.com.html#bo4e.com.com.COM" xlink:show="new" xlink:title="https://bo4e.github.io/BO4E-python/v202401.1.0/api/bo4e.com.html#bo4e.com.com.COM" xlink:type="simple"><text fill="#0000FF" font-family="sans-serif" font-size="14" lengthAdjust="spacing" text-decoration="underline" textLength="33" x="625" y="102.0251">COM</text></a><text fill="#000000" font-family="sans-serif" font-size="10" lengthAdjust="spacing" textLength="72" x="605.5" y="114.6091">bo4e.com.com</text></g><!--class Waehrungseinheit--><g id="elem_Waehrungseinheit"><rect codeLine="13" fill="#F1F1F1" height="37.9375" id="Waehrungseinheit" rx="2.5" ry="2.5" style="stroke:#181818;stroke-width:0.5;" width="175" x="541" y="197.03"/><ellipse cx="556" cy="215.9988" fill="#ADD1B2" rx="11" ry="11" style="stroke:#181818;stroke-width:1.0;"/><path d="M558.9688,221.6394 Q558.3906,221.9363 557.75,222.0769 Q557.1094,222.2331 556.4063,222.2331 Q553.9063,222.2331 552.5781,220.5925 Q551.2656,218.9363 551.2656,215.8113 Q551.2656,212.6863 552.5781,211.03 Q553.9063,209.3738 556.4063,209.3738 Q557.1094,209.3738 557.75,209.53 Q558.4063,209.6863 558.9688,209.9831 L558.9688,212.7019 Q558.3438,212.1238 557.75,211.8581 Q557.1563,211.5769 556.5313,211.5769 Q555.1875,211.5769 554.5,212.655 Q553.8125,213.7175 553.8125,215.8113 Q553.8125,217.905 554.5,218.9831 Q555.1875,220.0456 556.5313,220.0456 Q557.1563,220.0456 557.75,219.78 Q558.3438,219.4988 558.9688,218.9206 L558.9688,221.6394 Z " fill="#000000"/><a href="https://bo4e.github.io/BO4E-python/v202401.1.0/api/bo4e.enum.html#bo4e.enum.waehrungseinheit.Waehrungseinheit" target="_top" title="https://bo4e.github.io/BO4E-python/v202401.1.0/api/bo4e.enum.html#bo4e.enum.waehrungseinheit.Waehrungseinheit" xlink:actuate="onRequest" xlink:href="https://bo4e.github.io/BO4E-python/v202401.1.0/api/bo4e.enum.html#bo4e.enum.waehrungseinheit.Waehrungseinheit" xlink:show="new" xlink:title="https://bo4e.github.io/BO4E-python/v202401.1.0/api/bo4e.enum.html#bo4e.enum.waehrungseinheit.Waehrungseinheit" xlink:type="simple"><text fill="#0000FF" font-family="sans-serif" font-size="14" lengthAdjust="spacing" text-decoration="underline" textLength="126" x="578.5" y="215.0251">Waehrungseinheit</text></a><text fill="#000000" font-family="sans-serif" font-size="10" lengthAdjust="spacing" textLength="143" x="570" y="227.6091">bo4e.enum.waehrungseinheit</text></g><!--class AufAbschlagstyp--><g id="elem_AufAbschlagstyp"><rect codeLine="14" fill="#F1F1F1" height="37.9375" id="AufAbschlagstyp" rx="2.5" ry="2.5" style="stroke:#181818;stroke-width:0.5;" width="169" x="544" y="270.03"/><ellipse cx="559" cy="288.9988" fill="#ADD1B2" rx="11" ry="11" style="stroke:#181818;stroke-width:1.0;"/><path d="M561.9688,294.6394 Q561.3906,294.9363 560.75,295.0769 Q560.1094,295.2331 559.4063,295.2331 Q556.9063,295.2331 555.5781,293.5925 Q554.2656,291.9363 554.2656,288.8113 Q554.2656,285.6863 555.5781,284.03 Q556.9063,282.3738 559.4063,282.3738 Q560.1094,282.3738 560.75,282.53 Q561.4063,282.6863 561.9688,282.9831 L561.9688,285.7019 Q561.3438,285.1238 560.75,284.8581 Q560.1563,284.5769 559.5313,284.5769 Q558.1875,284.5769 557.5,285.655 Q556.8125,286.7175 556.8125,288.8113 Q556.8125,290.905 557.5,291.9831 Q558.1875,293.0456 559.5313,293.0456 Q560.1563,293.0456 560.75,292.78 Q561.3438,292.4988 561.9688,291.9206 L561.9688,294.6394 Z " fill="#000000"/><a href="https://bo4e.github.io/BO4E-python/v202401.1.0/api/bo4e.enum.html#bo4e.enum.aufabschlagstyp.AufAbschlagstyp" target="_top" title="https://bo4e.github.io/BO4E-python/v202401.1.0/api/bo4e.enum.html#bo4e.enum.aufabschlagstyp.AufAbschlagstyp" xlink:actuate="onRequest" xlink:href="https://bo4e.github.io/BO4E-python/v202401.1.0/api/bo4e.enum.html#bo4e.enum.aufabschlagstyp.AufAbschlagstyp" xlink:show="new" xlink:title="https://bo4e.github.io/BO4E-python/v202401.1.0/api/bo4e.enum.html#bo4e.enum.aufabschlagstyp.AufAbschlagstyp" xlink:type="simple"><text fill="#0000FF" font-family="sans-serif" font-size="14" lengthAdjust="spacing" text-decoration="underline" textLength="114" x="584.5" y="288.0251">AufAbschlagstyp</text></a><text fill="#000000" font-family="sans-serif" font-size="10" lengthAdjust="spacing" textLength="137" x="573" y="300.6091">bo4e.enum.aufabschlagstyp</text></g><!--class PositionsAufAbschlag--><g id="elem_PositionsAufAbschlag"><rect codeLine="3" fill="#F1F1F1" height="94.8281" id="PositionsAufAbschlag" rx="2.5" ry="2.5" style="stroke:#181818;stroke-width:0.5;" width="299" x="7" y="168.59"/><ellipse cx="76.75" cy="187.5588" fill="#ADD1B2" rx="11" ry="11" style="stroke:#181818;stroke-width:1.0;"/><path d="M79.7188,193.1994 Q79.1406,193.4963 78.5,193.6369 Q77.8594,193.7931 77.1563,193.7931 Q74.6563,193.7931 73.3281,192.1525 Q72.0156,190.4963 72.0156,187.3713 Q72.0156,184.2463 73.3281,182.59 Q74.6563,180.9338 77.1563,180.9338 Q77.8594,180.9338 78.5,181.09 Q79.1563,181.2463 79.7188,181.5431 L79.7188,184.2619 Q79.0938,183.6838 78.5,183.4181 Q77.9063,183.1369 77.2813,183.1369 Q75.9375,183.1369 75.25,184.215 Q74.5625,185.2775 74.5625,187.3713 Q74.5625,189.465 75.25,190.5431 Q75.9375,191.6056 77.2813,191.6056 Q77.9063,191.6056 78.5,191.34 Q79.0938,191.0588 79.7188,190.4806 L79.7188,193.1994 Z " fill="#000000"/><a href="https://bo4e.github.io/BO4E-python/v202401.1.0/api/bo4e.com.html#bo4e.com.positionsaufabschlag.PositionsAufAbschlag" target="_top" title="https://bo4e.github.io/BO4E-python/v202401.1.0/api/bo4e.com.html#bo4e.com.positionsaufabschlag.PositionsAufAbschlag" xlink:actuate="onRequest" xlink:href="https://bo4e.github.io/BO4E-python/v202401.1.0/api/bo4e.com.html#bo4e.com.positionsaufabschlag.PositionsAufAbschlag" xlink:show="new" xlink:title="https://bo4e.github.io/BO4E-python/v202401.1.0/api/bo4e.com.html#bo4e.com.positionsaufabschlag.PositionsAufAbschlag" xlink:type="simple"><text fill="#0000FF" font-family="sans-serif" font-size="14" lengthAdjust="spacing" text-decoration="underline" textLength="148" x="98.75" y="186.5851">PositionsAufAbschlag</text></a><text fill="#000000" font-family="sans-serif" font-size="10" lengthAdjust="spacing" textLength="151" x="97.25" y="199.1691">bo4e.com.positionsaufabschlag</text><line style="stroke:#181818;stroke-width:0.5;" x1="8" x2="305" y1="206.5275" y2="206.5275"/><text fill="#000000" font-family="sans-serif" font-size="14" lengthAdjust="spacing" textLength="219" x="13" y="223.5226">bezeichnung : str [0..1] = None</text><text fill="#000000" font-family="sans-serif" font-size="14" lengthAdjust="spacing" textLength="224" x="13" y="239.8195">beschreibung : str [0..1] = None</text><text fill="#000000" font-family="sans-serif" font-size="14" lengthAdjust="spacing" textLength="287" x="13" y="256.1164">aufAbschlagswert : Decimal [0..1] = None</text></g><!--link PositionsAufAbschlag to COM--><g id="link_PositionsAufAbschlag_COM"><path codeLine="17" d="M306.21,180.25 C398.59,158.04 494.1285,135.0669 558.5285,119.5869 " fill="none" id="PositionsAufAbschlag-to-COM" style="stroke:#181818;stroke-width:1.0;"/><polygon fill="none" points="576.03,115.38,557.1262,113.753,559.9308,125.4207,576.03,115.38" style="stroke:#181818;stroke-width:1.0;"/></g><!--link PositionsAufAbschlag to AufAbschlagstyp--><g id="link_PositionsAufAbschlag_AufAbschlagstyp"><path codeLine="18" d="M306.21,239.1 C384.61,251.27 466.0222,263.9183 531.8222,274.1383 " fill="none" id="PositionsAufAbschlag-to-AufAbschlagstyp" style="stroke:#181818;stroke-width:1.0;"/><polygon fill="#181818" points="543.68,275.98,538.365,271.1065,531.8222,274.1383,537.1372,279.0117,543.68,275.98" style="stroke:#181818;stroke-width:1.0;"/><text fill="#000000" font-family="sans-serif" font-size="13" lengthAdjust="spacing" textLength="105" x="358" y="240.0669">aufAbschlagstyp</text><text fill="#000000" font-family="sans-serif" font-size="13" lengthAdjust="spacing" textLength="24" x="511.9647" y="287.6124">0..1</text></g><!--link PositionsAufAbschlag to Waehrungseinheit--><g id="link_PositionsAufAbschlag_Waehrungseinheit"><path codeLine="19" d="M306.21,216 C383.4,216 463,216 528.61,216 " fill="none" id="PositionsAufAbschlag-to-Waehrungseinheit" style="stroke:#181818;stroke-width:1.0;"/><polygon fill="#181818" points="540.61,216,534.61,212,528.61,216,534.61,220,540.61,216" style="stroke:#181818;stroke-width:1.0;"/><text fill="#000000" font-family="sans-serif" font-size="13" lengthAdjust="spacing" textLength="147" x="337" y="212.0669">aufAbschlagswaehrung</text><text fill="#000000" font-family="sans-serif" font-size="13" lengthAdjust="spacing" textLength="24" x="508.9622" y="228.6463">0..1</text></g><!--SRC=[jLF1Ji9043tRhvYKcmdR5j4GeYI871Ll7h27RJljRjBkDjsj1DH_jrijO2ac9d2OmvkyVJDlPoR5M8EMKF24QOXuWQ7cKbXMc5Abm5ukcTQv6ZjE88T84gvP6H0kdVl5SDxFrvf9uRmDtC7GzOX7N8Vc_9iQoemmdQMzBSgbuaPSqJAcWGfPIXFot2IdPJpzIK9NqlTVnQtY6nnxxkHFJHkewfI0T-iYm0toa8bI9306fGjOkeHuFjp1anHe21MvG1uSPT2TebfXeIlM0uOyescB-MbPWcQeSXhYARuI6kJxjSS6Gc_kJaStC-Fl37CpCLiyGXNTGwYYxgSYL9vFOXb5kU_Pm7tJ1aClyiAhwz59N6_hzNPmHP4LrHOev88Xr-IbbO1sul1xEeLg7-stPpAnTnTAhtEoTmu6GmiVST1IgGsqNffjxxxcVlzZijrLiqb7U1Nn4cnpGVPkoWSDZu6s2lz7xM24l-MQILaMun52Xbc0XR8KaoleBXDpJ2Fr1G00]--></g></svg>