<svg xmlns="http://www.w3.org/2000/svg" xmlns:xlink="http://www.w3.org/1999/xlink" contentStyleType="text/css" data-diagram-type="CLASS" height="323px" preserveAspectRatio="none" style="width:716px;height:323px;background:#FFFFFF;" version="1.1" viewBox="0 0 716 323" width="716px" zoomAndPan="magnify"><?plantuml 1.2026.6?><defs/><g><!--cluster bo4e--><g class="cluster" data-qualified-name="bo4e" data-source-line="19" id="ent0004"><path d="M533.78,6 L573.656,6 A3.75,3.75 0 0 1 576.156,8.5 L583.156,28.2969 L698.93,28.2969 A2.5,2.5 0 0 1 701.43,30.7969 L701.43,305.5 A2.5,2.5 0 0 1 698.93,308 L533.78,308 A2.5,2.5 0 0 1 531.28,305.5 L531.28,8.5 A2.5,2.5 0 0 1 533.78,6" fill="none" style="stroke:#000000;stroke-width:1.5;"/><line style="stroke:#000000;stroke-width:1.5;" x1="531.28" x2="583.156" y1="28.2969" y2="28.2969"/><text fill="#000000" font-family="sans-serif" font-size="14" font-weight="700" lengthAdjust="spacing" textLength="38.876" x="535.28" y="20.9951">bo4e</text></g><!--cluster com--><g class="cluster" data-qualified-name="bo4e.com" data-source-line="18" id="ent0002"><path d="M557.78,49 L635.4792,49 A3.75,3.75 0 0 1 637.9792,51.5 L644.9792,71.2969 L674.93,71.2969 A2.5,2.5 0 0 1 677.43,73.7969 L677.43,281.5 A2.5,2.5 0 0 1 674.93,284 L557.78,284 A2.5,2.5 0 0 1 555.28,281.5 L555.28,51.5 A2.5,2.5 0 0 1 557.78,49" fill="#E0A86C" style="stroke:#000000;stroke-width:1.5;"/><line style="stroke:#000000;stroke-width:1.5;" x1="555.28" x2="644.9792" y1="71.2969" y2="71.2969"/><text fill="#000000" font-family="sans-serif" font-size="14" font-weight="700" lengthAdjust="spacing" textLength="76.6992" x="559.28" y="63.9951">bo4e.com</text></g><!--class Betrag--><g class="entity" data-qualified-name="bo4e.com.Betrag" data-source-line="19" id="ent0003"><rect fill="#F1F1F1" height="37.9375" rx="2.5" ry="2.5" style="stroke:#181818;stroke-width:0.5;" width="90.0566" x="571.33" y="84.03"/><ellipse cx="586.33" cy="102.9988" fill="#ADD1B2" rx="11" ry="11" style="stroke:#181818;stroke-width:1;"/><path d="M589.2988,108.6394 Q588.7206,108.9363 588.08,109.0769 Q587.4394,109.2331 586.7363,109.2331 Q584.2363,109.2331 582.9081,107.5925 Q581.5956,105.9363 581.5956,102.8113 Q581.5956,99.6863 582.9081,98.03 Q584.2363,96.3738 586.7363,96.3738 Q587.4394,96.3738 588.08,96.53 Q588.7363,96.6863 589.2988,96.9831 L589.2988,99.7019 Q588.6738,99.1238 588.08,98.8581 Q587.4863,98.5769 586.8613,98.5769 Q585.5175,98.5769 584.83,99.655 Q584.1425,100.7175 584.1425,102.8113 Q584.1425,104.905 584.83,105.9831 Q585.5175,107.0456 586.8613,107.0456 Q587.4863,107.0456 588.08,106.78 Q588.6738,106.4988 589.2988,105.9206 L589.2988,108.6394 Z " fill="#000000"/><a href="https://bo4e.github.io/BO4E-python/v202607.1.0-rc2/api/bo4e.com.html#module-bo4e.com.betrag" target="_top" title="https://bo4e.github.io/BO4E-python/v202607.1.0-rc2/api/bo4e.com.html#module-bo4e.com.betrag" xlink:actuate="onRequest" xlink:href="https://bo4e.github.io/BO4E-python/v202607.1.0-rc2/api/bo4e.com.html#module-bo4e.com.betrag" xlink:show="new" xlink:title="https://bo4e.github.io/BO4E-python/v202607.1.0-rc2/api/bo4e.com.html#module-bo4e.com.betrag" xlink:type="simple"><text fill="#0000FF" font-family="sans-serif" font-size="14" lengthAdjust="spacing" text-decoration="underline" textLength="46.9287" x="605.894" y="102.0251">Betrag</text></a><text fill="#000000" font-family="sans-serif" font-size="10" lengthAdjust="spacing" textLength="58.0566" x="600.33" y="114.6091">com.Betrag</text></g><!--class Menge--><g class="entity" data-qualified-name="bo4e.com.Menge" data-source-line="25" id="ent0005"><rect fill="#F1F1F1" height="37.9375" rx="2.5" ry="2.5" style="stroke:#181818;stroke-width:0.5;" width="90.1543" x="571.28" y="157.03"/><ellipse cx="586.28" cy="175.9988" fill="#ADD1B2" rx="11" ry="11" style="stroke:#181818;stroke-width:1;"/><path d="M589.2488,181.6394 Q588.6706,181.9363 588.03,182.0769 Q587.3894,182.2331 586.6863,182.2331 Q584.1863,182.2331 582.8581,180.5925 Q581.5456,178.9363 581.5456,175.8113 Q581.5456,172.6863 582.8581,171.03 Q584.1863,169.3738 586.6863,169.3738 Q587.3894,169.3738 588.03,169.53 Q588.6863,169.6863 589.2488,169.9831 L589.2488,172.7019 Q588.6238,172.1238 588.03,171.8581 Q587.4363,171.5769 586.8113,171.5769 Q585.4675,171.5769 584.78,172.655 Q584.0925,173.7175 584.0925,175.8113 Q584.0925,177.905 584.78,178.9831 Q585.4675,180.0456 586.8113,180.0456 Q587.4363,180.0456 588.03,179.78 Q588.6238,179.4988 589.2488,178.9206 L589.2488,181.6394 Z " fill="#000000"/><a href="https://bo4e.github.io/BO4E-python/v202607.1.0-rc2/api/bo4e.com.html#module-bo4e.com.menge" target="_top" title="https://bo4e.github.io/BO4E-python/v202607.1.0-rc2/api/bo4e.com.html#module-bo4e.com.menge" xlink:actuate="onRequest" xlink:href="https://bo4e.github.io/BO4E-python/v202607.1.0-rc2/api/bo4e.com.html#module-bo4e.com.menge" xlink:show="new" xlink:title="https://bo4e.github.io/BO4E-python/v202607.1.0-rc2/api/bo4e.com.html#module-bo4e.com.menge" xlink:type="simple"><text fill="#0000FF" font-family="sans-serif" font-size="14" lengthAdjust="spacing" text-decoration="underline" textLength="47.0654" x="605.8244" y="175.0251">Menge</text></a><text fill="#000000" font-family="sans-serif" font-size="10" lengthAdjust="spacing" textLength="58.1543" x="600.28" y="187.6091">com.Menge</text></g><!--class Preis--><g class="entity" data-qualified-name="bo4e.com.Preis" data-source-line="31" id="ent0006"><rect fill="#F1F1F1" height="37.9375" rx="2.5" ry="2.5" style="stroke:#181818;stroke-width:0.5;" width="80.8184" x="575.95" y="230.03"/><ellipse cx="590.95" cy="248.9988" fill="#ADD1B2" rx="11" ry="11" style="stroke:#181818;stroke-width:1;"/><path d="M593.9188,254.6394 Q593.3406,254.9363 592.7,255.0769 Q592.0594,255.2331 591.3563,255.2331 Q588.8563,255.2331 587.5281,253.5925 Q586.2156,251.9363 586.2156,248.8113 Q586.2156,245.6863 587.5281,244.03 Q588.8563,242.3738 591.3563,242.3738 Q592.0594,242.3738 592.7,242.53 Q593.3563,242.6863 593.9188,242.9831 L593.9188,245.7019 Q593.2938,245.1238 592.7,244.8581 Q592.1063,244.5769 591.4813,244.5769 Q590.1375,244.5769 589.45,245.655 Q588.7625,246.7175 588.7625,248.8113 Q588.7625,250.905 589.45,251.9831 Q590.1375,253.0456 591.4813,253.0456 Q592.1063,253.0456 592.7,252.78 Q593.2938,252.4988 593.9188,251.9206 L593.9188,254.6394 Z " fill="#000000"/><a href="https://bo4e.github.io/BO4E-python/v202607.1.0-rc2/api/bo4e.com.html#module-bo4e.com.preis" target="_top" title="https://bo4e.github.io/BO4E-python/v202607.1.0-rc2/api/bo4e.com.html#module-bo4e.com.preis" xlink:actuate="onRequest" xlink:href="https://bo4e.github.io/BO4E-python/v202607.1.0-rc2/api/bo4e.com.html#module-bo4e.com.preis" xlink:show="new" xlink:title="https://bo4e.github.io/BO4E-python/v202607.1.0-rc2/api/bo4e.com.html#module-bo4e.com.preis" xlink:type="simple"><text fill="#0000FF" font-family="sans-serif" font-size="14" lengthAdjust="spacing" text-decoration="underline" textLength="33.9951" x="612.3616" y="248.0251">Preis</text></a><text fill="#000000" font-family="sans-serif" font-size="10" lengthAdjust="spacing" textLength="48.8184" x="604.95" y="260.6091">com.Preis</text></g><!--class Fremdkostenposition--><g class="entity" data-qualified-name="Fremdkostenposition" data-source-line="3" id="ent0001"><rect fill="#F1F1F1" height="241.5" rx="2.5" ry="2.5" style="stroke:#181818;stroke-width:0.5;" width="338.2793" x="7" y="56.25"/><ellipse cx="98.2188" cy="75.2188" fill="#ADD1B2" rx="11" ry="11" style="stroke:#181818;stroke-width:1;"/><path d="M101.1875,80.8594 Q100.6094,81.1563 99.9688,81.2969 Q99.3281,81.4531 98.625,81.4531 Q96.125,81.4531 94.7969,79.8125 Q93.4844,78.1563 93.4844,75.0313 Q93.4844,71.9063 94.7969,70.25 Q96.125,68.5938 98.625,68.5938 Q99.3281,68.5938 99.9688,68.75 Q100.625,68.9063 101.1875,69.2031 L101.1875,71.9219 Q100.5625,71.3438 99.9688,71.0781 Q99.375,70.7969 98.75,70.7969 Q97.4063,70.7969 96.7188,71.875 Q96.0313,72.9375 96.0313,75.0313 Q96.0313,77.125 96.7188,78.2031 Q97.4063,79.2656 98.75,79.2656 Q99.375,79.2656 99.9688,79 Q100.5625,78.7188 101.1875,78.1406 L101.1875,80.8594 Z " fill="#000000"/><a href="https://bo4e.github.io/BO4E-python/v202607.1.0-rc2/api/bo4e.com.html#module-bo4e.com.fremdkostenposition" target="_top" title="https://bo4e.github.io/BO4E-python/v202607.1.0-rc2/api/bo4e.com.html#module-bo4e.com.fremdkostenposition" xlink:actuate="onRequest" xlink:href="https://bo4e.github.io/BO4E-python/v202607.1.0-rc2/api/bo4e.com.html#module-bo4e.com.fremdkostenposition" xlink:show="new" xlink:title="https://bo4e.github.io/BO4E-python/v202607.1.0-rc2/api/bo4e.com.html#module-bo4e.com.fremdkostenposition" xlink:type="simple"><text fill="#0000FF" font-family="sans-serif" font-size="14" lengthAdjust="spacing" text-decoration="underline" textLength="147.3418" x="118.7188" y="74.2451">Fremdkostenposition</text></a><text fill="#000000" font-family="sans-serif" font-size="10" lengthAdjust="spacing" textLength="129.7803" x="127.4995" y="86.8291">com.Fremdkostenposition</text><line style="stroke:#181818;stroke-width:0.5;" x1="8" x2="344.2793" y1="94.1875" y2="94.1875"/><text fill="#000000" font-family="sans-serif" font-size="14" lengthAdjust="spacing" textLength="94.0215" x="13" y="111.1826">_id : str [0..1]</text><text fill="#000000" font-family="sans-serif" font-size="14" lengthAdjust="spacing" textLength="326.2793" x="13" y="127.4795">_typ : Literal["FREMDKOSTENPOSITION"] [0..1]</text><text fill="#000000" font-family="sans-serif" font-size="14" lengthAdjust="spacing" textLength="132.5215" x="13" y="143.7764">_version : str [0..1]</text><text fill="#000000" font-family="sans-serif" font-size="14" lengthAdjust="spacing" textLength="207.9971" x="13" y="160.0732">artikelbezeichnung : str [0..1]</text><text fill="#000000" font-family="sans-serif" font-size="14" lengthAdjust="spacing" textLength="157.917" x="13" y="176.3701">artikeldetail : str [0..1]</text><text fill="#000000" font-family="sans-serif" font-size="14" lengthAdjust="spacing" textLength="138.9746" x="13" y="192.667">bis : datetime [0..1]</text><text fill="#000000" font-family="sans-serif" font-size="14" lengthAdjust="spacing" textLength="172.8193" x="13" y="208.9639">gebietcodeEic : str [0..1]</text><text fill="#000000" font-family="sans-serif" font-size="14" lengthAdjust="spacing" textLength="165.334" x="13" y="225.2607">linkPreisblatt : str [0..1]</text><text fill="#000000" font-family="sans-serif" font-size="14" lengthAdjust="spacing" textLength="201.5303" x="13" y="241.5576">marktpartnercode : str [0..1]</text><text fill="#000000" font-family="sans-serif" font-size="14" lengthAdjust="spacing" textLength="207.4707" x="13" y="257.8545">marktpartnername : str [0..1]</text><text fill="#000000" font-family="sans-serif" font-size="14" lengthAdjust="spacing" textLength="164.3633" x="13" y="274.1514">positionstitel : str [0..1]</text><text fill="#000000" font-family="sans-serif" font-size="14" lengthAdjust="spacing" textLength="144.6279" x="13" y="290.4482">von : datetime [0..1]</text></g><!--link Fremdkostenposition to Betrag--><g class="link" data-entity-1="ent0001" data-entity-2="ent0003" data-link-type="composition" data-source-line="39" id="lnk7"><path codeLine="39" d="M345.63,148.55 C426.92,134.82 506.2277,121.4289 559.0277,112.5089" fill="none" id="Fremdkostenposition-to-Betrag" style="stroke:#181818;stroke-width:1;"/><polygon fill="#181818" points="570.86,110.51,564.2775,107.5654,559.0277,112.5089,565.6101,115.4536,570.86,110.51" style="stroke:#181818;stroke-width:1;stroke-linejoin:miter;stroke-miterlimit:10;"/><text fill="#000000" font-family="sans-serif" font-size="13" lengthAdjust="spacing" textLength="138.9883" x="376.28" y="116.9469">betragKostenposition</text><text fill="#000000" font-family="sans-serif" font-size="13" lengthAdjust="spacing" textLength="24.8066" x="538.4742" y="124.7914">0..1</text></g><!--link Fremdkostenposition to Menge--><g class="link" data-entity-1="ent0001" data-entity-2="ent0005" data-link-type="composition" data-source-line="40" id="lnk8"><path codeLine="40" d="M345.63,176.62 C426.92,176.43 506.06,176.2473 558.86,176.1273" fill="none" id="Fremdkostenposition-to-Menge" style="stroke:#181818;stroke-width:1;"/><polygon fill="#181818" points="570.86,176.1,564.8509,172.1136,558.86,176.1273,564.8691,180.1136,570.86,176.1" style="stroke:#181818;stroke-width:1;stroke-linejoin:miter;stroke-miterlimit:10;"/><text fill="#000000" font-family="sans-serif" font-size="13" lengthAdjust="spacing" textLength="45.1509" x="422.78" y="172.3069">menge</text><text fill="#000000" font-family="sans-serif" font-size="13" lengthAdjust="spacing" textLength="24.8066" x="538.4743" y="189.2931">0..1</text></g><!--link Fremdkostenposition to Menge--><g class="link" data-entity-1="ent0001" data-entity-2="ent0005" data-link-type="composition" data-source-line="41" id="lnk9"><path codeLine="41" d="M345.62,202.75 C399.9,207.5 460.25,209.03 515.28,202 C533.8,199.63 542.2294,198.1176 559.4394,193.3276" fill="none" id="Fremdkostenposition-to-Menge-1" style="stroke:#181818;stroke-width:1;"/><polygon fill="#181818" points="571,190.11,564.1472,187.8653,559.4394,193.3276,566.2922,195.5723,571,190.11" style="stroke:#181818;stroke-width:1;stroke-linejoin:miter;stroke-miterlimit:10;"/><text fill="#000000" font-family="sans-serif" font-size="13" lengthAdjust="spacing" textLength="68.6816" x="411.28" y="198.0669">zeitmenge</text><text fill="#000000" font-family="sans-serif" font-size="13" lengthAdjust="spacing" textLength="24.8066" x="538.6349" y="205.3608">0..1</text></g><!--link Fremdkostenposition to Preis--><g class="link" data-entity-1="ent0001" data-entity-2="ent0006" data-link-type="composition" data-source-line="42" id="lnk10"><path codeLine="42" d="M345.52,226.19 C355.54,228.35 365.52,230.32 375.28,232 C445.07,244.03 515.6928,247.3219 563.5628,248.3519" fill="none" id="Fremdkostenposition-to-Preis" style="stroke:#181818;stroke-width:1;"/><polygon fill="#181818" points="575.56,248.61,569.6474,244.4819,563.5628,248.3519,569.4753,252.48,575.56,248.61" style="stroke:#181818;stroke-width:1;stroke-linejoin:miter;stroke-miterlimit:10;"/><text fill="#000000" font-family="sans-serif" font-size="13" lengthAdjust="spacing" textLength="70.2622" x="410.28" y="228.0669">einzelpreis</text><text fill="#000000" font-family="sans-serif" font-size="13" lengthAdjust="spacing" textLength="24.8066" x="543.2094" y="261.8208">0..1</text></g><?plantuml-src pLJlRvim4FtENt6YtoQ5aAZg9ZHDQZPQHLr-ACctB9eCNE0Ki95zITLE_Ty7PjdMmRP4KwNn0SppEzlltVbot3Am0arfnf2GnfX9ISU9Ss4CkEjrnboQeD-Fr2LwAN6sZpnI_T7iCkoL3vmfsJyC_U6L_zeRU7vFnyE-AAcXnwhmCYxoYq8b-nnxty6jnYBPASCeIsMetX9ksjXcyqc-DVI8mS1_LyTrS5mGfYiMlZXGFPyfWG0CQrZxdZVOD20_b1NwaHYroDVkpIASVBYRBLVXT3vRZbVZsTJTF0iue3RregsbX6RQOHxX8rASoRrCVyj9a0NbxUc8J0KcWf6fm9zdKem8ELO9XXIt0tEIkxb6Cb4kcDlpXT0xBglT9UfwaJypf2Ww64Sx3LTcTHp-O4tvzV1FZbClPqeH8xZ7jDjK7N_W8lIltroz_vQdbwst25cB54Rsqwgg1hQdQuRdrCueN2skRqyjbtlKTQAskHBymwoNDw10cI9CwdTBlaMjUZiwH_madDw6_xlsihuYO2zAIxj5hNOxEaVxV16Eb_-clRecNPshrti5RirnZ_KOG5F1Ty-8VmjkqXc0JVwfvAgFyKa1ZM418Cb7pAt9ZfDHrMOABABA2CTawXwwUZPigMg7vYi0?></g></svg>