<svg xmlns="http://www.w3.org/2000/svg" xmlns:xlink="http://www.w3.org/1999/xlink" contentStyleType="text/css" data-diagram-type="CLASS" height="250px" preserveAspectRatio="none" style="width:840px;height:250px;background:#FFFFFF;" version="1.1" viewBox="0 0 840 250" width="840px" zoomAndPan="magnify"><?plantuml 1.2026.6?><defs/><g><!--cluster bo4e--><g class="cluster" data-qualified-name="bo4e" data-source-line="10" id="ent0004"><path d="M576.97,6 L616.846,6 A3.75,3.75 0 0 1 619.346,8.5 L626.346,28.2969 L822.88,28.2969 A2.5,2.5 0 0 1 825.38,30.7969 L825.38,232.5 A2.5,2.5 0 0 1 822.88,235 L576.97,235 A2.5,2.5 0 0 1 574.47,232.5 L574.47,8.5 A2.5,2.5 0 0 1 576.97,6" fill="none" style="stroke:#000000;stroke-width:1.5;"/><line style="stroke:#000000;stroke-width:1.5;" x1="574.47" x2="626.346" y1="28.2969" y2="28.2969"/><text fill="#000000" font-family="sans-serif" font-size="14" font-weight="700" lengthAdjust="spacing" textLength="38.876" x="578.47" y="20.9951">bo4e</text></g><!--cluster enum--><g class="cluster" data-qualified-name="bo4e.enum" data-source-line="9" id="ent0002"><path d="M600.97,49 L690.1809,49 A3.75,3.75 0 0 1 692.6809,51.5 L699.6809,71.2969 L798.88,71.2969 A2.5,2.5 0 0 1 801.38,73.7969 L801.38,208.5 A2.5,2.5 0 0 1 798.88,211 L600.97,211 A2.5,2.5 0 0 1 598.47,208.5 L598.47,51.5 A2.5,2.5 0 0 1 600.97,49" fill="#D1C358" style="stroke:#000000;stroke-width:1.5;"/><line style="stroke:#000000;stroke-width:1.5;" x1="598.47" x2="699.6809" y1="71.2969" y2="71.2969"/><text fill="#000000" font-family="sans-serif" font-size="14" font-weight="700" lengthAdjust="spacing" textLength="88.2109" x="602.47" y="63.9951">bo4e.enum</text></g><!--class Marktrolle--><g class="entity" data-qualified-name="bo4e.enum.Marktrolle" data-source-line="10" id="ent0003"><rect fill="#F1F1F1" height="37.9375" rx="2.5" ry="2.5" style="stroke:#181818;stroke-width:0.5;" width="114.2656" x="642.79" y="84.03"/><ellipse cx="657.79" cy="102.9988" fill="#ADD1B2" rx="11" ry="11" style="stroke:#181818;stroke-width:1;"/><path d="M660.7588,108.6394 Q660.1806,108.9363 659.54,109.0769 Q658.8994,109.2331 658.1963,109.2331 Q655.6963,109.2331 654.3681,107.5925 Q653.0556,105.9363 653.0556,102.8113 Q653.0556,99.6863 654.3681,98.03 Q655.6963,96.3738 658.1963,96.3738 Q658.8994,96.3738 659.54,96.53 Q660.1963,96.6863 660.7588,96.9831 L660.7588,99.7019 Q660.1338,99.1238 659.54,98.8581 Q658.9463,98.5769 658.3213,98.5769 Q656.9775,98.5769 656.29,99.655 Q655.6025,100.7175 655.6025,102.8113 Q655.6025,104.905 656.29,105.9831 Q656.9775,107.0456 658.3213,107.0456 Q658.9463,107.0456 659.54,106.78 Q660.1338,106.4988 660.7588,105.9206 L660.7588,108.6394 Z " fill="#000000"/><a href="https://bo4e.github.io/BO4E-python/v202607.1.0-rc2/api/bo4e.enum.html#module-bo4e.enum.marktrolle" target="_top" title="https://bo4e.github.io/BO4E-python/v202607.1.0-rc2/api/bo4e.enum.html#module-bo4e.enum.marktrolle" xlink:actuate="onRequest" xlink:href="https://bo4e.github.io/BO4E-python/v202607.1.0-rc2/api/bo4e.enum.html#module-bo4e.enum.marktrolle" xlink:show="new" xlink:title="https://bo4e.github.io/BO4E-python/v202607.1.0-rc2/api/bo4e.enum.html#module-bo4e.enum.marktrolle" xlink:type="simple"><text fill="#0000FF" font-family="sans-serif" font-size="14" lengthAdjust="spacing" text-decoration="underline" textLength="70.7246" x="677.5605" y="102.0251">Marktrolle</text></a><text fill="#000000" font-family="sans-serif" font-size="10" lengthAdjust="spacing" textLength="82.2656" x="671.79" y="114.6091">enum.Marktrolle</text></g><!--class Verwendungszweck--><g class="entity" data-qualified-name="bo4e.enum.Verwendungszweck" data-source-line="12" id="ent0005"><rect fill="#F1F1F1" height="37.9375" rx="2.5" ry="2.5" style="stroke:#181818;stroke-width:0.5;" width="170.9131" x="614.47" y="157.03"/><ellipse cx="629.47" cy="175.9988" fill="#ADD1B2" rx="11" ry="11" style="stroke:#181818;stroke-width:1;"/><path d="M632.4388,181.6394 Q631.8606,181.9363 631.22,182.0769 Q630.5794,182.2331 629.8763,182.2331 Q627.3763,182.2331 626.0481,180.5925 Q624.7356,178.9363 624.7356,175.8113 Q624.7356,172.6863 626.0481,171.03 Q627.3763,169.3738 629.8763,169.3738 Q630.5794,169.3738 631.22,169.53 Q631.8763,169.6863 632.4388,169.9831 L632.4388,172.7019 Q631.8138,172.1238 631.22,171.8581 Q630.6263,171.5769 630.0013,171.5769 Q628.6575,171.5769 627.97,172.655 Q627.2825,173.7175 627.2825,175.8113 Q627.2825,177.905 627.97,178.9831 Q628.6575,180.0456 630.0013,180.0456 Q630.6263,180.0456 631.22,179.78 Q631.8138,179.4988 632.4388,178.9206 L632.4388,181.6394 Z " fill="#000000"/><a href="https://bo4e.github.io/BO4E-python/v202607.1.0-rc2/api/bo4e.enum.html#module-bo4e.enum.verwendungszweck" target="_top" title="https://bo4e.github.io/BO4E-python/v202607.1.0-rc2/api/bo4e.enum.html#module-bo4e.enum.verwendungszweck" xlink:actuate="onRequest" xlink:href="https://bo4e.github.io/BO4E-python/v202607.1.0-rc2/api/bo4e.enum.html#module-bo4e.enum.verwendungszweck" xlink:show="new" xlink:title="https://bo4e.github.io/BO4E-python/v202607.1.0-rc2/api/bo4e.enum.html#module-bo4e.enum.verwendungszweck" xlink:type="simple"><text fill="#0000FF" font-family="sans-serif" font-size="14" lengthAdjust="spacing" text-decoration="underline" textLength="138.9131" x="643.47" y="175.0251">Verwendungszweck</text></a><text fill="#000000" font-family="sans-serif" font-size="10" lengthAdjust="spacing" textLength="130.9717" x="647.4407" y="187.6091">enum.Verwendungszweck</text></g><!--class VerwendungszweckProMarktrolle--><g class="entity" data-qualified-name="VerwendungszweckProMarktrolle" data-source-line="3" id="ent0001"><rect fill="#F1F1F1" height="94.8281" rx="2.5" ry="2.5" style="stroke:#181818;stroke-width:0.5;" width="452.4668" x="7" y="92.59"/><ellipse cx="112.7827" cy="111.5588" fill="#ADD1B2" rx="11" ry="11" style="stroke:#181818;stroke-width:1;"/><path d="M115.7515,117.1994 Q115.1733,117.4963 114.5327,117.6369 Q113.8921,117.7931 113.189,117.7931 Q110.689,117.7931 109.3608,116.1525 Q108.0483,114.4963 108.0483,111.3713 Q108.0483,108.2463 109.3608,106.59 Q110.689,104.9338 113.189,104.9338 Q113.8921,104.9338 114.5327,105.09 Q115.189,105.2463 115.7515,105.5431 L115.7515,108.2619 Q115.1265,107.6838 114.5327,107.4181 Q113.939,107.1369 113.314,107.1369 Q111.9702,107.1369 111.2827,108.215 Q110.5952,109.2775 110.5952,111.3713 Q110.5952,113.465 111.2827,114.5431 Q111.9702,115.6056 113.314,115.6056 Q113.939,115.6056 114.5327,115.34 Q115.1265,115.0588 115.7515,114.4806 L115.7515,117.1994 Z " fill="#000000"/><a href="https://bo4e.github.io/BO4E-python/v202607.1.0-rc2/api/bo4e.com.html#module-bo4e.com.verwendungszweckpromarktrolle" target="_top" title="https://bo4e.github.io/BO4E-python/v202607.1.0-rc2/api/bo4e.com.html#module-bo4e.com.verwendungszweckpromarktrolle" xlink:actuate="onRequest" xlink:href="https://bo4e.github.io/BO4E-python/v202607.1.0-rc2/api/bo4e.com.html#module-bo4e.com.verwendungszweckpromarktrolle" xlink:show="new" xlink:title="https://bo4e.github.io/BO4E-python/v202607.1.0-rc2/api/bo4e.com.html#module-bo4e.com.verwendungszweckpromarktrolle" xlink:type="simple"><text fill="#0000FF" font-family="sans-serif" font-size="14" lengthAdjust="spacing" text-decoration="underline" textLength="232.4014" x="133.2827" y="110.5851">VerwendungszweckProMarktrolle</text></a><text fill="#000000" font-family="sans-serif" font-size="10" lengthAdjust="spacing" textLength="190.5371" x="154.2148" y="123.1691">com.VerwendungszweckProMarktrolle</text><line style="stroke:#181818;stroke-width:0.5;" x1="8" x2="458.4668" y1="130.5275" y2="130.5275"/><text fill="#000000" font-family="sans-serif" font-size="14" lengthAdjust="spacing" textLength="94.0215" x="13" y="147.5226">_id : str [0..1]</text><text fill="#000000" font-family="sans-serif" font-size="14" lengthAdjust="spacing" textLength="440.4668" x="13" y="163.8195">_typ : Literal["VERWENDUNGSZWECKPROMARKTROLLE"] [0..1]</text><text fill="#000000" font-family="sans-serif" font-size="14" lengthAdjust="spacing" textLength="132.5215" x="13" y="180.1164">_version : str [0..1]</text></g><!--link VerwendungszweckProMarktrolle to Marktrolle--><g class="link" data-entity-1="ent0001" data-entity-2="ent0003" data-link-type="composition" data-source-line="16" id="lnk6"><path codeLine="16" d="M459.77,122.04 C527.76,116.63 584.5578,112.1022 630.7878,108.4222" fill="none" id="VerwendungszweckProMarktrolle-to-Marktrolle" style="stroke:#181818;stroke-width:1;"/><polygon fill="#181818" points="642.75,107.47,636.4515,103.9587,630.7878,108.4222,637.0863,111.9335,642.75,107.47" style="stroke:#181818;stroke-width:1;stroke-linejoin:miter;stroke-miterlimit:10;"/><text fill="#000000" font-family="sans-serif" font-size="13" lengthAdjust="spacing" textLength="67.1201" x="490.47" y="111.0369">marktrolle</text><text fill="#000000" font-family="sans-serif" font-size="13" lengthAdjust="spacing" textLength="24.8066" x="609.9389" y="121.0792">0..1</text></g><!--link VerwendungszweckProMarktrolle to Verwendungszweck--><g class="link" data-entity-1="ent0001" data-entity-2="ent0005" data-link-type="composition" data-source-line="17" id="lnk7"><path codeLine="17" d="M459.63,164.62 C469.71,165.47 479.69,166.27 489.47,167 C530.39,170.04 563.9082,171.7063 602.0182,173.1163" fill="none" id="VerwendungszweckProMarktrolle-to-Verwendungszweck" style="stroke:#181818;stroke-width:1;"/><polygon fill="#181818" points="614.01,173.56,608.162,169.3409,602.0182,173.1163,607.8662,177.3354,614.01,173.56" style="stroke:#181818;stroke-width:1;stroke-linejoin:miter;stroke-miterlimit:10;"/><text fill="#000000" font-family="sans-serif" font-size="13" lengthAdjust="spacing" textLength="48.1279" x="499.97" y="163.0669">zwecke</text><text fill="#000000" font-family="sans-serif" font-size="13" lengthAdjust="spacing" textLength="23.0356" x="583.5529" y="186.0195">0..*</text></g><?plantuml-src lLBRIiD047tFLmpfMo6tMYy44Rm47tebQWl686aoRPPcis5tQscb_swQIcqJ3Jw8-xBipEpXp3admQa4oO2JMImX8Xn3ILYgA64I206gvyLIPi8sZ0bhepuZCbvCTCACcq7RqRALZ5bglBNCrfbvhbkwgV6mPGGPsOs7ZEgnf4c3icYHeBOllY5VOXejqfbOBp6SPvpHWCybPqc2C2frXvprzbtVVqal1LcZRPbNMwpQQHK2KOy7xmhavvL4O8EG73nJror_LvIhBAzsYKGU99uwSjonqxzxwjy_F8-TsyxG7VIktSwZE-Xs7TK_-fglA78bZq4tYf8654KMX0Xg8GUc2rgmtB-W4LdXoUd59xC_SMABMxMYg1u8_uFAnLX9qoC1D_z2j1oQYgzLqkM9R-DGB90xKnyJJMk2kdLHFTpTXY_vVWdGLAiCR2XkL9IOH0WKwIIFZo9YjeJwWCEKO1A93m00?></g></svg>