<?xml version="1.0" encoding="us-ascii" standalone="no"?><svg xmlns="http://www.w3.org/2000/svg" xmlns:xlink="http://www.w3.org/1999/xlink" contentStyleType="text/css" height="541px" preserveAspectRatio="none" style="width:959px;height:541px;background:#FFFFFF;" version="1.1" viewBox="0 0 959 541" width="959px" zoomAndPan="magnify"><defs/><g><!--cluster bo4e--><g id="cluster_bo4e"><path d="M706.5,6 L747.5,6 A3.75,3.75 0 0 1 750,8.5 L757,28.2969 L949.5,28.2969 A2.5,2.5 0 0 1 952,30.7969 L952,531.5 A2.5,2.5 0 0 1 949.5,534 L706.5,534 A2.5,2.5 0 0 1 704,531.5 L704,8.5 A2.5,2.5 0 0 1 706.5,6 " fill="none" style="stroke:#000000;stroke-width:1.5;"/><line style="stroke:#000000;stroke-width:1.5;" x1="704" x2="757" y1="28.2969" y2="28.2969"/><text fill="#000000" font-family="sans-serif" font-size="14" font-weight="bold" lengthAdjust="spacing" textLength="40" x="708" y="20.9951">bo4e</text></g><!--cluster bo--><g id="cluster_bo"><path d="M733,49 L799,49 A3.75,3.75 0 0 1 801.5,51.5 L808.5,71.2969 L923,71.2969 A2.5,2.5 0 0 1 925.5,73.7969 L925.5,281.5 A2.5,2.5 0 0 1 923,284 L733,284 A2.5,2.5 0 0 1 730.5,281.5 L730.5,51.5 A2.5,2.5 0 0 1 733,49 " fill="#B6D7A8" style="stroke:#000000;stroke-width:1.5;"/><line style="stroke:#000000;stroke-width:1.5;" x1="730.5" x2="808.5" y1="71.2969" y2="71.2969"/><a href="https://bo4e.github.io/BO4E-python/latest/api/bo4e.bo.html" target="_top" title="https://bo4e.github.io/BO4E-python/latest/api/bo4e.bo.html" xlink:actuate="onRequest" xlink:href="https://bo4e.github.io/BO4E-python/latest/api/bo4e.bo.html" xlink:show="new" xlink:title="https://bo4e.github.io/BO4E-python/latest/api/bo4e.bo.html" xlink:type="simple"><text fill="#0000FF" font-family="sans-serif" font-size="14" font-weight="bold" lengthAdjust="spacing" text-decoration="underline" textLength="65" x="734.5" y="63.9951">bo4e.bo</text></a></g><!--cluster com--><g id="cluster_com"><path d="M730.5,308 L809.5,308 A3.75,3.75 0 0 1 812,310.5 L819,330.2969 L925.5,330.2969 A2.5,2.5 0 0 1 928,332.7969 L928,394.5 A2.5,2.5 0 0 1 925.5,397 L730.5,397 A2.5,2.5 0 0 1 728,394.5 L728,310.5 A2.5,2.5 0 0 1 730.5,308 " fill="#E0A86C" style="stroke:#000000;stroke-width:1.5;"/><line style="stroke:#000000;stroke-width:1.5;" x1="728" x2="819" y1="330.2969" y2="330.2969"/><a href="https://bo4e.github.io/BO4E-python/latest/api/bo4e.com.html" target="_top" title="https://bo4e.github.io/BO4E-python/latest/api/bo4e.com.html" xlink:actuate="onRequest" xlink:href="https://bo4e.github.io/BO4E-python/latest/api/bo4e.com.html" xlink:show="new" xlink:title="https://bo4e.github.io/BO4E-python/latest/api/bo4e.com.html" xlink:type="simple"><text fill="#0000FF" font-family="sans-serif" font-size="14" font-weight="bold" lengthAdjust="spacing" text-decoration="underline" textLength="78" x="732" y="322.9951">bo4e.com</text></a></g><!--cluster enum--><g id="cluster_enum"><path d="M754,421 L844,421 A3.75,3.75 0 0 1 846.5,423.5 L853.5,443.2969 L902,443.2969 A2.5,2.5 0 0 1 904.5,445.7969 L904.5,507.5 A2.5,2.5 0 0 1 902,510 L754,510 A2.5,2.5 0 0 1 751.5,507.5 L751.5,423.5 A2.5,2.5 0 0 1 754,421 " fill="#D1C358" style="stroke:#000000;stroke-width:1.5;"/><line style="stroke:#000000;stroke-width:1.5;" x1="751.5" x2="853.5" y1="443.2969" y2="443.2969"/><a href="https://bo4e.github.io/BO4E-python/latest/api/bo4e.enum.html" target="_top" title="https://bo4e.github.io/BO4E-python/latest/api/bo4e.enum.html" xlink:actuate="onRequest" xlink:href="https://bo4e.github.io/BO4E-python/latest/api/bo4e.enum.html" xlink:show="new" xlink:title="https://bo4e.github.io/BO4E-python/latest/api/bo4e.enum.html" xlink:type="simple"><text fill="#0000FF" font-family="sans-serif" font-size="14" font-weight="bold" lengthAdjust="spacing" text-decoration="underline" textLength="89" x="755.5" y="435.9951">bo4e.enum</text></a></g><!--class Person--><g id="elem_Person"><rect codeLine="12" fill="#F1F1F1" height="37.9375" id="Person" rx="2.5" ry="2.5" style="stroke:#181818;stroke-width:0.5;" width="107" x="774.5" y="84.03"/><ellipse cx="789.5" cy="102.9987" fill="#ADD1B2" rx="11" ry="11" style="stroke:#181818;stroke-width:1.0;"/><path d="M792.4688,108.6394 Q791.8906,108.9362 791.25,109.0769 Q790.6094,109.2331 789.9063,109.2331 Q787.4063,109.2331 786.0781,107.5925 Q784.7656,105.9362 784.7656,102.8112 Q784.7656,99.6862 786.0781,98.03 Q787.4063,96.3737 789.9063,96.3737 Q790.6094,96.3737 791.25,96.53 Q791.9063,96.6862 792.4688,96.9831 L792.4688,99.7019 Q791.8438,99.1237 791.25,98.8581 Q790.6563,98.5769 790.0313,98.5769 Q788.6875,98.5769 788,99.655 Q787.3125,100.7175 787.3125,102.8112 Q787.3125,104.905 788,105.9831 Q788.6875,107.0456 790.0313,107.0456 Q790.6563,107.0456 791.25,106.78 Q791.8438,106.4987 792.4688,105.9206 L792.4688,108.6394 Z " fill="#000000"/><a href="https://bo4e.github.io/BO4E-python/latest/api/bo4e.bo.html#bo4e.bo.person.Person" target="_top" title="https://bo4e.github.io/BO4E-python/latest/api/bo4e.bo.html#bo4e.bo.person.Person" xlink:actuate="onRequest" xlink:href="https://bo4e.github.io/BO4E-python/latest/api/bo4e.bo.html#bo4e.bo.person.Person" xlink:show="new" xlink:title="https://bo4e.github.io/BO4E-python/latest/api/bo4e.bo.html#bo4e.bo.person.Person" xlink:type="simple"><text fill="#0000FF" font-family="sans-serif" font-size="14" lengthAdjust="spacing" text-decoration="underline" textLength="49" x="816.5" y="102.0251">Person</text></a><text fill="#000000" font-family="sans-serif" font-size="10" lengthAdjust="spacing" textLength="75" x="803.5" y="114.6091">bo4e.bo.person</text></g><!--class Geschaeftsobjekt--><g id="elem_Geschaeftsobjekt"><rect codeLine="13" fill="#F1F1F1" height="37.9375" id="Geschaeftsobjekt" rx="2.5" ry="2.5" style="stroke:#181818;stroke-width:0.5;" width="156" x="750" y="157.03"/><ellipse cx="765" cy="175.9987" fill="#ADD1B2" rx="11" ry="11" style="stroke:#181818;stroke-width:1.0;"/><path d="M767.9688,181.6394 Q767.3906,181.9362 766.75,182.0769 Q766.1094,182.2331 765.4063,182.2331 Q762.9063,182.2331 761.5781,180.5925 Q760.2656,178.9362 760.2656,175.8112 Q760.2656,172.6862 761.5781,171.03 Q762.9063,169.3737 765.4063,169.3737 Q766.1094,169.3737 766.75,169.53 Q767.4063,169.6862 767.9688,169.9831 L767.9688,172.7019 Q767.3438,172.1237 766.75,171.8581 Q766.1563,171.5769 765.5313,171.5769 Q764.1875,171.5769 763.5,172.655 Q762.8125,173.7175 762.8125,175.8112 Q762.8125,177.905 763.5,178.9831 Q764.1875,180.0456 765.5313,180.0456 Q766.1563,180.0456 766.75,179.78 Q767.3438,179.4987 767.9688,178.9206 L767.9688,181.6394 Z " fill="#000000"/><a href="https://bo4e.github.io/BO4E-python/latest/api/bo4e.bo.html#bo4e.bo.geschaeftsobjekt.Geschaeftsobjekt" target="_top" title="https://bo4e.github.io/BO4E-python/latest/api/bo4e.bo.html#bo4e.bo.geschaeftsobjekt.Geschaeftsobjekt" xlink:actuate="onRequest" xlink:href="https://bo4e.github.io/BO4E-python/latest/api/bo4e.bo.html#bo4e.bo.geschaeftsobjekt.Geschaeftsobjekt" xlink:show="new" xlink:title="https://bo4e.github.io/BO4E-python/latest/api/bo4e.bo.html#bo4e.bo.geschaeftsobjekt.Geschaeftsobjekt" xlink:type="simple"><text fill="#0000FF" font-family="sans-serif" font-size="14" lengthAdjust="spacing" text-decoration="underline" textLength="122" x="780" y="175.0251">Geschaeftsobjekt</text></a><text fill="#000000" font-family="sans-serif" font-size="10" lengthAdjust="spacing" textLength="124" x="779" y="187.6091">bo4e.bo.geschaeftsobjekt</text></g><!--class Geschaeftspartner--><g id="elem_Geschaeftspartner"><rect codeLine="14" fill="#F1F1F1" height="37.9375" id="Geschaeftspartner" rx="2.5" ry="2.5" style="stroke:#181818;stroke-width:0.5;" width="163" x="746.5" y="230.03"/><ellipse cx="761.5" cy="248.9987" fill="#ADD1B2" rx="11" ry="11" style="stroke:#181818;stroke-width:1.0;"/><path d="M764.4688,254.6394 Q763.8906,254.9362 763.25,255.0769 Q762.6094,255.2331 761.9063,255.2331 Q759.4063,255.2331 758.0781,253.5925 Q756.7656,251.9362 756.7656,248.8112 Q756.7656,245.6862 758.0781,244.03 Q759.4063,242.3737 761.9063,242.3737 Q762.6094,242.3737 763.25,242.53 Q763.9063,242.6862 764.4688,242.9831 L764.4688,245.7019 Q763.8438,245.1237 763.25,244.8581 Q762.6563,244.5769 762.0313,244.5769 Q760.6875,244.5769 760,245.655 Q759.3125,246.7175 759.3125,248.8112 Q759.3125,250.905 760,251.9831 Q760.6875,253.0456 762.0313,253.0456 Q762.6563,253.0456 763.25,252.78 Q763.8438,252.4987 764.4688,251.9206 L764.4688,254.6394 Z " fill="#000000"/><a href="https://bo4e.github.io/BO4E-python/latest/api/bo4e.bo.html#bo4e.bo.geschaeftspartner.Geschaeftspartner" target="_top" title="https://bo4e.github.io/BO4E-python/latest/api/bo4e.bo.html#bo4e.bo.geschaeftspartner.Geschaeftspartner" xlink:actuate="onRequest" xlink:href="https://bo4e.github.io/BO4E-python/latest/api/bo4e.bo.html#bo4e.bo.geschaeftspartner.Geschaeftspartner" xlink:show="new" xlink:title="https://bo4e.github.io/BO4E-python/latest/api/bo4e.bo.html#bo4e.bo.geschaeftspartner.Geschaeftspartner" xlink:type="simple"><text fill="#0000FF" font-family="sans-serif" font-size="14" lengthAdjust="spacing" text-decoration="underline" textLength="129" x="776.5" y="248.0251">Geschaeftspartner</text></a><text fill="#000000" font-family="sans-serif" font-size="10" lengthAdjust="spacing" textLength="131" x="775.5" y="260.6091">bo4e.bo.geschaeftspartner</text></g><!--class Angebotsvariante--><g id="elem_Angebotsvariante"><rect codeLine="17" fill="#F1F1F1" height="37.9375" id="Angebotsvariante" rx="2.5" ry="2.5" style="stroke:#181818;stroke-width:0.5;" width="168" x="744" y="343.03"/><ellipse cx="759" cy="361.9988" fill="#ADD1B2" rx="11" ry="11" style="stroke:#181818;stroke-width:1.0;"/><path d="M761.9688,367.6394 Q761.3906,367.9363 760.75,368.0769 Q760.1094,368.2331 759.4063,368.2331 Q756.9063,368.2331 755.5781,366.5925 Q754.2656,364.9363 754.2656,361.8113 Q754.2656,358.6863 755.5781,357.03 Q756.9063,355.3738 759.4063,355.3738 Q760.1094,355.3738 760.75,355.53 Q761.4063,355.6863 761.9688,355.9831 L761.9688,358.7019 Q761.3438,358.1238 760.75,357.8581 Q760.1563,357.5769 759.5313,357.5769 Q758.1875,357.5769 757.5,358.655 Q756.8125,359.7175 756.8125,361.8113 Q756.8125,363.905 757.5,364.9831 Q758.1875,366.0456 759.5313,366.0456 Q760.1563,366.0456 760.75,365.78 Q761.3438,365.4988 761.9688,364.9206 L761.9688,367.6394 Z " fill="#000000"/><a href="https://bo4e.github.io/BO4E-python/latest/api/bo4e.com.html#bo4e.com.angebotsvariante.Angebotsvariante" target="_top" title="https://bo4e.github.io/BO4E-python/latest/api/bo4e.com.html#bo4e.com.angebotsvariante.Angebotsvariante" xlink:actuate="onRequest" xlink:href="https://bo4e.github.io/BO4E-python/latest/api/bo4e.com.html#bo4e.com.angebotsvariante.Angebotsvariante" xlink:show="new" xlink:title="https://bo4e.github.io/BO4E-python/latest/api/bo4e.com.html#bo4e.com.angebotsvariante.Angebotsvariante" xlink:type="simple"><text fill="#0000FF" font-family="sans-serif" font-size="14" lengthAdjust="spacing" text-decoration="underline" textLength="121" x="780.5" y="361.0251">Angebotsvariante</text></a><text fill="#000000" font-family="sans-serif" font-size="10" lengthAdjust="spacing" textLength="136" x="773" y="373.6091">bo4e.com.angebotsvariante</text></g><!--class Sparte--><g id="elem_Sparte"><rect codeLine="20" fill="#F1F1F1" height="37.9375" id="Sparte" rx="2.5" ry="2.5" style="stroke:#181818;stroke-width:0.5;" width="121" x="767.5" y="456.03"/><ellipse cx="782.5" cy="474.9988" fill="#ADD1B2" rx="11" ry="11" style="stroke:#181818;stroke-width:1.0;"/><path d="M785.4688,480.6394 Q784.8906,480.9363 784.25,481.0769 Q783.6094,481.2331 782.9063,481.2331 Q780.4063,481.2331 779.0781,479.5925 Q777.7656,477.9363 777.7656,474.8113 Q777.7656,471.6863 779.0781,470.03 Q780.4063,468.3738 782.9063,468.3738 Q783.6094,468.3738 784.25,468.53 Q784.9063,468.6863 785.4688,468.9831 L785.4688,471.7019 Q784.8438,471.1238 784.25,470.8581 Q783.6563,470.5769 783.0313,470.5769 Q781.6875,470.5769 781,471.655 Q780.3125,472.7175 780.3125,474.8113 Q780.3125,476.905 781,477.9831 Q781.6875,479.0456 783.0313,479.0456 Q783.6563,479.0456 784.25,478.78 Q784.8438,478.4988 785.4688,477.9206 L785.4688,480.6394 Z " fill="#000000"/><a href="https://bo4e.github.io/BO4E-python/latest/api/bo4e.enum.html#bo4e.enum.sparte.Sparte" target="_top" title="https://bo4e.github.io/BO4E-python/latest/api/bo4e.enum.html#bo4e.enum.sparte.Sparte" xlink:actuate="onRequest" xlink:href="https://bo4e.github.io/BO4E-python/latest/api/bo4e.enum.html#bo4e.enum.sparte.Sparte" xlink:show="new" xlink:title="https://bo4e.github.io/BO4E-python/latest/api/bo4e.enum.html#bo4e.enum.sparte.Sparte" xlink:type="simple"><text fill="#0000FF" font-family="sans-serif" font-size="14" lengthAdjust="spacing" text-decoration="underline" textLength="45" x="818.5" y="474.0251">Sparte</text></a><text fill="#000000" font-family="sans-serif" font-size="10" lengthAdjust="spacing" textLength="89" x="796.5" y="486.6091">bo4e.enum.sparte</text></g><!--class Angebot--><g id="elem_Angebot"><rect codeLine="3" fill="#F1F1F1" height="127.4219" id="Angebot" rx="2.5" ry="2.5" style="stroke:#181818;stroke-width:0.5;" width="450" x="7" y="184.29"/><ellipse cx="186.75" cy="203.2588" fill="#ADD1B2" rx="11" ry="11" style="stroke:#181818;stroke-width:1.0;"/><path d="M189.7188,208.8994 Q189.1406,209.1963 188.5,209.3369 Q187.8594,209.4931 187.1563,209.4931 Q184.6563,209.4931 183.3281,207.8525 Q182.0156,206.1963 182.0156,203.0713 Q182.0156,199.9463 183.3281,198.29 Q184.6563,196.6338 187.1563,196.6338 Q187.8594,196.6338 188.5,196.79 Q189.1563,196.9463 189.7188,197.2431 L189.7188,199.9619 Q189.0938,199.3838 188.5,199.1181 Q187.9063,198.8369 187.2813,198.8369 Q185.9375,198.8369 185.25,199.915 Q184.5625,200.9775 184.5625,203.0713 Q184.5625,205.165 185.25,206.2431 Q185.9375,207.3056 187.2813,207.3056 Q187.9063,207.3056 188.5,207.04 Q189.0938,206.7588 189.7188,206.1806 L189.7188,208.8994 Z " fill="#000000"/><a href="https://bo4e.github.io/BO4E-python/latest/api/bo4e.bo.html#bo4e.bo.angebot.Angebot" target="_top" title="https://bo4e.github.io/BO4E-python/latest/api/bo4e.bo.html#bo4e.bo.angebot.Angebot" xlink:actuate="onRequest" xlink:href="https://bo4e.github.io/BO4E-python/latest/api/bo4e.bo.html#bo4e.bo.angebot.Angebot" xlink:show="new" xlink:title="https://bo4e.github.io/BO4E-python/latest/api/bo4e.bo.html#bo4e.bo.angebot.Angebot" xlink:type="simple"><text fill="#0000FF" font-family="sans-serif" font-size="14" lengthAdjust="spacing" text-decoration="underline" textLength="59" x="218.75" y="202.2851">Angebot</text></a><text fill="#000000" font-family="sans-serif" font-size="10" lengthAdjust="spacing" textLength="82" x="207.25" y="214.8691">bo4e.bo.angebot</text><line style="stroke:#181818;stroke-width:0.5;" x1="8" x2="456" y1="222.2275" y2="222.2275"/><text fill="#000000" font-family="sans-serif" font-size="14" lengthAdjust="spacing" textLength="438" x="13" y="239.2226">_typ : Literal[&lt;Typ.ANGEBOT: 'ANGEBOT'&gt;] [1] = Typ.ANGEBOT</text><text fill="#000000" font-family="sans-serif" font-size="14" lengthAdjust="spacing" textLength="252" x="13" y="255.5195">angebotsnummer : str [0..1] = None</text><text fill="#000000" font-family="sans-serif" font-size="14" lengthAdjust="spacing" textLength="325" x="13" y="271.8164">angebotsdatum : AwareDatetime [0..1] = None</text><text fill="#000000" font-family="sans-serif" font-size="14" lengthAdjust="spacing" textLength="238" x="13" y="288.1132">anfragereferenz : str [0..1] = None</text><text fill="#000000" font-family="sans-serif" font-size="14" lengthAdjust="spacing" textLength="279" x="13" y="304.4101">bindefrist : AwareDatetime [0..1] = None</text></g><!--link Angebot to Geschaeftsobjekt--><g id="link_Angebot_Geschaeftsobjekt"><path codeLine="23" d="M457.14,220.83 C560.19,208.34 657.8408,196.5058 731.9308,187.5258 " fill="none" id="Angebot-to-Geschaeftsobjekt" style="stroke:#181818;stroke-width:1.0;"/><polygon fill="none" points="749.8,185.36,731.2088,181.5694,732.6527,193.4822,749.8,185.36" style="stroke:#181818;stroke-width:1.0;"/></g><!--link Angebot to Sparte--><g id="link_Angebot_Sparte"><path codeLine="24" d="M362.83,312.1 C402.26,330.54 446.01,349.98 487,366 C583.42,403.68 687.1976,435.2727 755.7176,454.9827 " fill="none" id="Angebot-to-Sparte" style="stroke:#181818;stroke-width:1.0;"/><polygon fill="#181818" points="767.25,458.3,762.5896,452.7972,755.7176,454.9827,760.378,460.4855,767.25,458.3" style="stroke:#181818;stroke-width:1.0;"/><text fill="#000000" font-family="sans-serif" font-size="13" lengthAdjust="spacing" textLength="41" x="567" y="362.0669">sparte</text><text fill="#000000" font-family="sans-serif" font-size="13" lengthAdjust="spacing" textLength="24" x="735.293" y="469.368">0..1</text></g><!--link Angebot to Geschaeftspartner--><g id="link_Angebot_Geschaeftspartner"><path codeLine="25" d="M457.38,250.79 C467.39,250.87 477.3,250.94 487,251 C576.33,251.53 598.67,251.64 688,251 C706.82,250.86 715.0812,250.7999 734.1512,250.5299 " fill="none" id="Angebot-to-Geschaeftspartner" style="stroke:#181818;stroke-width:1.0;"/><polygon fill="#181818" points="746.15,250.36,740.094,246.4453,734.1512,250.5299,740.2072,254.4445,746.15,250.36" style="stroke:#181818;stroke-width:1.0;"/><text fill="#000000" font-family="sans-serif" font-size="13" lengthAdjust="spacing" textLength="97" x="539" y="247.0669">angebotsgeber</text><text fill="#000000" font-family="sans-serif" font-size="13" lengthAdjust="spacing" textLength="24" x="714.378" y="263.1662">0..1</text></g><!--link Angebot to Geschaeftspartner--><g id="link_Angebot_Geschaeftspartner"><path codeLine="26" d="M457.45,276.81 C531.01,282.39 613.08,284.47 688,277 C706.98,275.11 715.4317,274.0861 734.4117,270.3861 " fill="none" id="Angebot-to-Geschaeftspartner-1" style="stroke:#181818;stroke-width:1.0;"/><polygon fill="#181818" points="746.19,268.09,739.5355,265.3119,734.4117,270.3861,741.0662,273.1641,746.19,268.09" style="stroke:#181818;stroke-width:1.0;"/><text fill="#000000" font-family="sans-serif" font-size="13" lengthAdjust="spacing" textLength="110" x="532.5" y="273.0669">angebotsnehmer</text><text fill="#000000" font-family="sans-serif" font-size="13" lengthAdjust="spacing" textLength="24" x="714.4214" y="282.3645">0..1</text></g><!--link Angebot to Angebotsvariante--><g id="link_Angebot_Angebotsvariante"><path codeLine="27" d="M457.2,300.95 C467.26,303.05 477.23,305.08 487,307 C574.12,324.15 662.7093,338.1535 731.7093,348.3635 " fill="none" id="Angebot-to-Angebotsvariante" style="stroke:#181818;stroke-width:1.0;"/><polygon fill="#181818" points="743.58,350.12,738.2301,345.2848,731.7093,348.3635,737.0591,353.1987,743.58,350.12" style="stroke:#181818;stroke-width:1.0;"/><text fill="#000000" font-family="sans-serif" font-size="13" lengthAdjust="spacing" textLength="60" x="557.5" y="303.0669">varianten</text><text fill="#000000" font-family="sans-serif" font-size="13" lengthAdjust="spacing" textLength="23" x="712.9364" y="361.8433">0..*</text></g><!--link Angebot to Person--><g id="link_Angebot_Person"><path codeLine="28" d="M351,183.92 C392.81,163.99 440.93,144.09 487,132 C586.13,105.97 694.55,101.8658 762.22,101.9458 " fill="none" id="Angebot-to-Person" style="stroke:#181818;stroke-width:1.0;"/><polygon fill="#181818" points="774.22,101.96,768.2247,97.9529,762.22,101.9458,768.2153,105.9529,774.22,101.96" style="stroke:#181818;stroke-width:1.0;"/><text fill="#000000" font-family="sans-serif" font-size="13" lengthAdjust="spacing" textLength="199" x="488" y="101.0669">unterzeichnerAngebotsnehmer</text><text fill="#000000" font-family="sans-serif" font-size="13" lengthAdjust="spacing" textLength="24" x="742.6142" y="98.0473">0..1</text></g><!--link Angebot to Person--><g id="link_Angebot_Person"><path codeLine="29" d="M457.19,195.02 C467.25,192.93 477.23,190.91 487,189 C575.78,171.64 615.68,211.34 688,157 C694.68,151.98 689.63,145.4 696,140 C717.72,121.59 736.2084,114.4278 762.1984,109.7678 " fill="none" id="Angebot-to-Person-1" style="stroke:#181818;stroke-width:1.0;"/><polygon fill="#181818" points="774.01,107.65,767.3982,104.7717,762.1984,109.7678,768.8101,112.6461,774.01,107.65" style="stroke:#181818;stroke-width:1.0;"/><text fill="#000000" font-family="sans-serif" font-size="13" lengthAdjust="spacing" textLength="186" x="494.5" y="153.0669">unterzeichnerAngebotsgeber</text><text fill="#000000" font-family="sans-serif" font-size="13" lengthAdjust="spacing" textLength="24" x="742.3799" y="121.1296">0..1</text></g><!--SRC=[jLHDRzim33tNluA83mKAn4cmhYkCBe2p1hqCxO3rbXc5R3EnDbio96P5ikw_J_wCQsVBi6G7ctxq4qbHJqnmIK0I55_5115N61ANmhB2X6aDWyKY9igqEne5yXAT5QTu7JXSZcOFb_DXjg5OYb7223MDMCPBLY2TcDB4hW4JAmmaELvfeRA-_qNSQBv5TpAUThW3OBhcmG_hx8as6RZmaHCgbYnk7ZUPuztVpMSFZowSLr_dKnyM4n_UG-ktTLQ5r6ATfgXC54qA5cF7AQZtKk2E4p5QfuRYFJE5jsPVn5FiavUAhL3XqZnYkpzYm4M4IyKr7GZtqx84Ir5dBCJZ6WuLyFsYVHK2UtPr-ywxpjjuobFDK6afd4-5WTBiFTAIM9HKiavRnmfr63EZOos3h_YDdBkE0xgElLLsmnJrTbV-hyepfaYWQfLUUQ3dEL1ynUfKNtcDrewLMYZJbjOCQelDGB3dO-_wwiEnQglps0sgh-XtfZWJXFKuQHpGTVHRjIzEUzGqpXDq2isyQRKgX-rUvHZiQ1A-UNlqrMnIsJjOd3awdmi3fUatf4KjIYjv-KngflLm-3AjPqdlRkreXdS1Wtoo3NORhDER2La6_ZtzLV1Q_IxKfsNUHh__l5nWdEvTVp5efDiNb0lrf_Xpwce8kh0sNBL57iOcltSe-Lz7A7TlnJn2I34rG5iwbi_Gn5noJ2Bz2m00]--></g></svg>