<?xml version="1.0" encoding="us-ascii" standalone="no"?><svg xmlns="http://www.w3.org/2000/svg" xmlns:xlink="http://www.w3.org/1999/xlink" contentStyleType="text/css" height="687px" preserveAspectRatio="none" style="width:1079px;height:687px;background:#FFFFFF;" version="1.1" viewBox="0 0 1079 687" width="1079px" zoomAndPan="magnify"><defs/><g><!--cluster bo4e--><g id="cluster_bo4e"><path d="M800.5,6 L841.5,6 A3.75,3.75 0 0 1 844,8.5 L851,28.2969 L1069.5,28.2969 A2.5,2.5 0 0 1 1072,30.7969 L1072,677.5 A2.5,2.5 0 0 1 1069.5,680 L800.5,680 A2.5,2.5 0 0 1 798,677.5 L798,8.5 A2.5,2.5 0 0 1 800.5,6 " fill="none" style="stroke:#000000;stroke-width:1.5;"/><line style="stroke:#000000;stroke-width:1.5;" x1="798" x2="851" y1="28.2969" y2="28.2969"/><text fill="#000000" font-family="sans-serif" font-size="14" font-weight="bold" lengthAdjust="spacing" textLength="40" x="802" y="20.9951">bo4e</text></g><!--cluster bo--><g id="cluster_bo"><path d="M840,49 L906,49 A3.75,3.75 0 0 1 908.5,51.5 L915.5,71.2969 L1030,71.2969 A2.5,2.5 0 0 1 1032.5,73.7969 L1032.5,208.5 A2.5,2.5 0 0 1 1030,211 L840,211 A2.5,2.5 0 0 1 837.5,208.5 L837.5,51.5 A2.5,2.5 0 0 1 840,49 " fill="#B6D7A8" style="stroke:#000000;stroke-width:1.5;"/><line style="stroke:#000000;stroke-width:1.5;" x1="837.5" x2="915.5" y1="71.2969" y2="71.2969"/><a href="https://bo4e.github.io/BO4E-python/latest/api/bo4e.bo.html" target="_top" title="https://bo4e.github.io/BO4E-python/latest/api/bo4e.bo.html" xlink:actuate="onRequest" xlink:href="https://bo4e.github.io/BO4E-python/latest/api/bo4e.bo.html" xlink:show="new" xlink:title="https://bo4e.github.io/BO4E-python/latest/api/bo4e.bo.html" xlink:type="simple"><text fill="#0000FF" font-family="sans-serif" font-size="14" font-weight="bold" lengthAdjust="spacing" text-decoration="underline" textLength="65" x="841.5" y="63.9951">bo4e.bo</text></a></g><!--cluster com--><g id="cluster_com"><path d="M836.5,235 L915.5,235 A3.75,3.75 0 0 1 918,237.5 L925,257.2969 L1033.5,257.2969 A2.5,2.5 0 0 1 1036,259.7969 L1036,394.5 A2.5,2.5 0 0 1 1033.5,397 L836.5,397 A2.5,2.5 0 0 1 834,394.5 L834,237.5 A2.5,2.5 0 0 1 836.5,235 " fill="#E0A86C" style="stroke:#000000;stroke-width:1.5;"/><line style="stroke:#000000;stroke-width:1.5;" x1="834" x2="925" y1="257.2969" y2="257.2969"/><a href="https://bo4e.github.io/BO4E-python/latest/api/bo4e.com.html" target="_top" title="https://bo4e.github.io/BO4E-python/latest/api/bo4e.com.html" xlink:actuate="onRequest" xlink:href="https://bo4e.github.io/BO4E-python/latest/api/bo4e.com.html" xlink:show="new" xlink:title="https://bo4e.github.io/BO4E-python/latest/api/bo4e.com.html" xlink:type="simple"><text fill="#0000FF" font-family="sans-serif" font-size="14" font-weight="bold" lengthAdjust="spacing" text-decoration="underline" textLength="78" x="838" y="249.9951">bo4e.com</text></a></g><!--cluster enum--><g id="cluster_enum"><path d="M824.5,421 L914.5,421 A3.75,3.75 0 0 1 917,423.5 L924,443.2969 L1045.5,443.2969 A2.5,2.5 0 0 1 1048,445.7969 L1048,653.5 A2.5,2.5 0 0 1 1045.5,656 L824.5,656 A2.5,2.5 0 0 1 822,653.5 L822,423.5 A2.5,2.5 0 0 1 824.5,421 " fill="#D1C358" style="stroke:#000000;stroke-width:1.5;"/><line style="stroke:#000000;stroke-width:1.5;" x1="822" x2="924" y1="443.2969" y2="443.2969"/><a href="https://bo4e.github.io/BO4E-python/latest/api/bo4e.enum.html" target="_top" title="https://bo4e.github.io/BO4E-python/latest/api/bo4e.enum.html" xlink:actuate="onRequest" xlink:href="https://bo4e.github.io/BO4E-python/latest/api/bo4e.enum.html" xlink:show="new" xlink:title="https://bo4e.github.io/BO4E-python/latest/api/bo4e.enum.html" xlink:type="simple"><text fill="#0000FF" font-family="sans-serif" font-size="14" font-weight="bold" lengthAdjust="spacing" text-decoration="underline" textLength="89" x="826" y="435.9951">bo4e.enum</text></a></g><!--class Geschaeftsobjekt--><g id="elem_Geschaeftsobjekt"><rect codeLine="12" fill="#F1F1F1" height="37.9375" id="Geschaeftsobjekt" rx="2.5" ry="2.5" style="stroke:#181818;stroke-width:0.5;" width="156" x="857" y="84.03"/><ellipse cx="872" cy="102.9987" fill="#ADD1B2" rx="11" ry="11" style="stroke:#181818;stroke-width:1.0;"/><path d="M874.9688,108.6394 Q874.3906,108.9362 873.75,109.0769 Q873.1094,109.2331 872.4063,109.2331 Q869.9063,109.2331 868.5781,107.5925 Q867.2656,105.9362 867.2656,102.8112 Q867.2656,99.6862 868.5781,98.03 Q869.9063,96.3737 872.4063,96.3737 Q873.1094,96.3737 873.75,96.53 Q874.4063,96.6862 874.9688,96.9831 L874.9688,99.7019 Q874.3438,99.1237 873.75,98.8581 Q873.1563,98.5769 872.5313,98.5769 Q871.1875,98.5769 870.5,99.655 Q869.8125,100.7175 869.8125,102.8112 Q869.8125,104.905 870.5,105.9831 Q871.1875,107.0456 872.5313,107.0456 Q873.1563,107.0456 873.75,106.78 Q874.3438,106.4987 874.9688,105.9206 L874.9688,108.6394 Z " fill="#000000"/><a href="https://bo4e.github.io/BO4E-python/latest/api/bo4e.bo.html#bo4e.bo.geschaeftsobjekt.Geschaeftsobjekt" target="_top" title="https://bo4e.github.io/BO4E-python/latest/api/bo4e.bo.html#bo4e.bo.geschaeftsobjekt.Geschaeftsobjekt" xlink:actuate="onRequest" xlink:href="https://bo4e.github.io/BO4E-python/latest/api/bo4e.bo.html#bo4e.bo.geschaeftsobjekt.Geschaeftsobjekt" xlink:show="new" xlink:title="https://bo4e.github.io/BO4E-python/latest/api/bo4e.bo.html#bo4e.bo.geschaeftsobjekt.Geschaeftsobjekt" xlink:type="simple"><text fill="#0000FF" font-family="sans-serif" font-size="14" lengthAdjust="spacing" text-decoration="underline" textLength="122" x="887" y="102.0251">Geschaeftsobjekt</text></a><text fill="#000000" font-family="sans-serif" font-size="10" lengthAdjust="spacing" textLength="124" x="886" y="114.6091">bo4e.bo.geschaeftsobjekt</text></g><!--class Geschaeftspartner--><g id="elem_Geschaeftspartner"><rect codeLine="13" fill="#F1F1F1" height="37.9375" id="Geschaeftspartner" rx="2.5" ry="2.5" style="stroke:#181818;stroke-width:0.5;" width="163" x="853.5" y="157.03"/><ellipse cx="868.5" cy="175.9987" fill="#ADD1B2" rx="11" ry="11" style="stroke:#181818;stroke-width:1.0;"/><path d="M871.4688,181.6394 Q870.8906,181.9362 870.25,182.0769 Q869.6094,182.2331 868.9063,182.2331 Q866.4063,182.2331 865.0781,180.5925 Q863.7656,178.9362 863.7656,175.8112 Q863.7656,172.6862 865.0781,171.03 Q866.4063,169.3737 868.9063,169.3737 Q869.6094,169.3737 870.25,169.53 Q870.9063,169.6862 871.4688,169.9831 L871.4688,172.7019 Q870.8438,172.1237 870.25,171.8581 Q869.6563,171.5769 869.0313,171.5769 Q867.6875,171.5769 867,172.655 Q866.3125,173.7175 866.3125,175.8112 Q866.3125,177.905 867,178.9831 Q867.6875,180.0456 869.0313,180.0456 Q869.6563,180.0456 870.25,179.78 Q870.8438,179.4987 871.4688,178.9206 L871.4688,181.6394 Z " fill="#000000"/><a href="https://bo4e.github.io/BO4E-python/latest/api/bo4e.bo.html#bo4e.bo.geschaeftspartner.Geschaeftspartner" target="_top" title="https://bo4e.github.io/BO4E-python/latest/api/bo4e.bo.html#bo4e.bo.geschaeftspartner.Geschaeftspartner" xlink:actuate="onRequest" xlink:href="https://bo4e.github.io/BO4E-python/latest/api/bo4e.bo.html#bo4e.bo.geschaeftspartner.Geschaeftspartner" xlink:show="new" xlink:title="https://bo4e.github.io/BO4E-python/latest/api/bo4e.bo.html#bo4e.bo.geschaeftspartner.Geschaeftspartner" xlink:type="simple"><text fill="#0000FF" font-family="sans-serif" font-size="14" lengthAdjust="spacing" text-decoration="underline" textLength="129" x="883.5" y="175.0251">Geschaeftspartner</text></a><text fill="#000000" font-family="sans-serif" font-size="10" lengthAdjust="spacing" textLength="131" x="882.5" y="187.6091">bo4e.bo.geschaeftspartner</text></g><!--class Ausschreibungslos--><g id="elem_Ausschreibungslos"><rect codeLine="16" fill="#F1F1F1" height="37.9375" id="Ausschreibungslos" rx="2.5" ry="2.5" style="stroke:#181818;stroke-width:0.5;" width="170" x="850" y="270.03"/><ellipse cx="865" cy="288.9988" fill="#ADD1B2" rx="11" ry="11" style="stroke:#181818;stroke-width:1.0;"/><path d="M867.9688,294.6394 Q867.3906,294.9363 866.75,295.0769 Q866.1094,295.2331 865.4063,295.2331 Q862.9063,295.2331 861.5781,293.5925 Q860.2656,291.9363 860.2656,288.8113 Q860.2656,285.6863 861.5781,284.03 Q862.9063,282.3738 865.4063,282.3738 Q866.1094,282.3738 866.75,282.53 Q867.4063,282.6863 867.9688,282.9831 L867.9688,285.7019 Q867.3438,285.1238 866.75,284.8581 Q866.1563,284.5769 865.5313,284.5769 Q864.1875,284.5769 863.5,285.655 Q862.8125,286.7175 862.8125,288.8113 Q862.8125,290.905 863.5,291.9831 Q864.1875,293.0456 865.5313,293.0456 Q866.1563,293.0456 866.75,292.78 Q867.3438,292.4988 867.9688,291.9206 L867.9688,294.6394 Z " fill="#000000"/><a href="https://bo4e.github.io/BO4E-python/latest/api/bo4e.com.html#bo4e.com.ausschreibungslos.Ausschreibungslos" target="_top" title="https://bo4e.github.io/BO4E-python/latest/api/bo4e.com.html#bo4e.com.ausschreibungslos.Ausschreibungslos" xlink:actuate="onRequest" xlink:href="https://bo4e.github.io/BO4E-python/latest/api/bo4e.com.html#bo4e.com.ausschreibungslos.Ausschreibungslos" xlink:show="new" xlink:title="https://bo4e.github.io/BO4E-python/latest/api/bo4e.com.html#bo4e.com.ausschreibungslos.Ausschreibungslos" xlink:type="simple"><text fill="#0000FF" font-family="sans-serif" font-size="14" lengthAdjust="spacing" text-decoration="underline" textLength="132" x="882" y="288.0251">Ausschreibungslos</text></a><text fill="#000000" font-family="sans-serif" font-size="10" lengthAdjust="spacing" textLength="138" x="879" y="300.6091">bo4e.com.ausschreibungslos</text></g><!--class Zeitraum--><g id="elem_Zeitraum"><rect codeLine="17" fill="#F1F1F1" height="37.9375" id="Zeitraum" rx="2.5" ry="2.5" style="stroke:#181818;stroke-width:0.5;" width="126" x="872" y="343.03"/><ellipse cx="887" cy="361.9988" fill="#ADD1B2" rx="11" ry="11" style="stroke:#181818;stroke-width:1.0;"/><path d="M889.9688,367.6394 Q889.3906,367.9363 888.75,368.0769 Q888.1094,368.2331 887.4063,368.2331 Q884.9063,368.2331 883.5781,366.5925 Q882.2656,364.9363 882.2656,361.8113 Q882.2656,358.6863 883.5781,357.03 Q884.9063,355.3738 887.4063,355.3738 Q888.1094,355.3738 888.75,355.53 Q889.4063,355.6863 889.9688,355.9831 L889.9688,358.7019 Q889.3438,358.1238 888.75,357.8581 Q888.1563,357.5769 887.5313,357.5769 Q886.1875,357.5769 885.5,358.655 Q884.8125,359.7175 884.8125,361.8113 Q884.8125,363.905 885.5,364.9831 Q886.1875,366.0456 887.5313,366.0456 Q888.1563,366.0456 888.75,365.78 Q889.3438,365.4988 889.9688,364.9206 L889.9688,367.6394 Z " fill="#000000"/><a href="https://bo4e.github.io/BO4E-python/latest/api/bo4e.com.html#bo4e.com.zeitraum.Zeitraum" target="_top" title="https://bo4e.github.io/BO4E-python/latest/api/bo4e.com.html#bo4e.com.zeitraum.Zeitraum" xlink:actuate="onRequest" xlink:href="https://bo4e.github.io/BO4E-python/latest/api/bo4e.com.html#bo4e.com.zeitraum.Zeitraum" xlink:show="new" xlink:title="https://bo4e.github.io/BO4E-python/latest/api/bo4e.com.html#bo4e.com.zeitraum.Zeitraum" xlink:type="simple"><text fill="#0000FF" font-family="sans-serif" font-size="14" lengthAdjust="spacing" text-decoration="underline" textLength="62" x="917" y="361.0251">Zeitraum</text></a><text fill="#000000" font-family="sans-serif" font-size="10" lengthAdjust="spacing" textLength="94" x="901" y="373.6091">bo4e.com.zeitraum</text></g><!--class Ausschreibungstyp--><g id="elem_Ausschreibungstyp"><rect codeLine="20" fill="#F1F1F1" height="37.9375" id="Ausschreibungstyp" rx="2.5" ry="2.5" style="stroke:#181818;stroke-width:0.5;" width="180" x="845" y="456.03"/><ellipse cx="860" cy="474.9988" fill="#ADD1B2" rx="11" ry="11" style="stroke:#181818;stroke-width:1.0;"/><path d="M862.9688,480.6394 Q862.3906,480.9363 861.75,481.0769 Q861.1094,481.2331 860.4063,481.2331 Q857.9063,481.2331 856.5781,479.5925 Q855.2656,477.9363 855.2656,474.8113 Q855.2656,471.6863 856.5781,470.03 Q857.9063,468.3738 860.4063,468.3738 Q861.1094,468.3738 861.75,468.53 Q862.4063,468.6863 862.9688,468.9831 L862.9688,471.7019 Q862.3438,471.1238 861.75,470.8581 Q861.1563,470.5769 860.5313,470.5769 Q859.1875,470.5769 858.5,471.655 Q857.8125,472.7175 857.8125,474.8113 Q857.8125,476.905 858.5,477.9831 Q859.1875,479.0456 860.5313,479.0456 Q861.1563,479.0456 861.75,478.78 Q862.3438,478.4988 862.9688,477.9206 L862.9688,480.6394 Z " fill="#000000"/><a href="https://bo4e.github.io/BO4E-python/latest/api/bo4e.enum.html#bo4e.enum.ausschreibungstyp.Ausschreibungstyp" target="_top" title="https://bo4e.github.io/BO4E-python/latest/api/bo4e.enum.html#bo4e.enum.ausschreibungstyp.Ausschreibungstyp" xlink:actuate="onRequest" xlink:href="https://bo4e.github.io/BO4E-python/latest/api/bo4e.enum.html#bo4e.enum.ausschreibungstyp.Ausschreibungstyp" xlink:show="new" xlink:title="https://bo4e.github.io/BO4E-python/latest/api/bo4e.enum.html#bo4e.enum.ausschreibungstyp.Ausschreibungstyp" xlink:type="simple"><text fill="#0000FF" font-family="sans-serif" font-size="14" lengthAdjust="spacing" text-decoration="underline" textLength="133" x="881.5" y="474.0251">Ausschreibungstyp</text></a><text fill="#000000" font-family="sans-serif" font-size="10" lengthAdjust="spacing" textLength="148" x="874" y="486.6091">bo4e.enum.ausschreibungstyp</text></g><!--class Ausschreibungsportal--><g id="elem_Ausschreibungsportal"><rect codeLine="21" fill="#F1F1F1" height="37.9375" id="Ausschreibungsportal" rx="2.5" ry="2.5" style="stroke:#181818;stroke-width:0.5;" width="192" x="839" y="529.03"/><ellipse cx="854" cy="547.9988" fill="#ADD1B2" rx="11" ry="11" style="stroke:#181818;stroke-width:1.0;"/><path d="M856.9688,553.6394 Q856.3906,553.9363 855.75,554.0769 Q855.1094,554.2331 854.4063,554.2331 Q851.9063,554.2331 850.5781,552.5925 Q849.2656,550.9363 849.2656,547.8113 Q849.2656,544.6863 850.5781,543.03 Q851.9063,541.3738 854.4063,541.3738 Q855.1094,541.3738 855.75,541.53 Q856.4063,541.6863 856.9688,541.9831 L856.9688,544.7019 Q856.3438,544.1238 855.75,543.8581 Q855.1563,543.5769 854.5313,543.5769 Q853.1875,543.5769 852.5,544.655 Q851.8125,545.7175 851.8125,547.8113 Q851.8125,549.905 852.5,550.9831 Q853.1875,552.0456 854.5313,552.0456 Q855.1563,552.0456 855.75,551.78 Q856.3438,551.4988 856.9688,550.9206 L856.9688,553.6394 Z " fill="#000000"/><a href="https://bo4e.github.io/BO4E-python/latest/api/bo4e.enum.html#bo4e.enum.ausschreibungsportal.Ausschreibungsportal" target="_top" title="https://bo4e.github.io/BO4E-python/latest/api/bo4e.enum.html#bo4e.enum.ausschreibungsportal.Ausschreibungsportal" xlink:actuate="onRequest" xlink:href="https://bo4e.github.io/BO4E-python/latest/api/bo4e.enum.html#bo4e.enum.ausschreibungsportal.Ausschreibungsportal" xlink:show="new" xlink:title="https://bo4e.github.io/BO4E-python/latest/api/bo4e.enum.html#bo4e.enum.ausschreibungsportal.Ausschreibungsportal" xlink:type="simple"><text fill="#0000FF" font-family="sans-serif" font-size="14" lengthAdjust="spacing" text-decoration="underline" textLength="151" x="872.5" y="547.0251">Ausschreibungsportal</text></a><text fill="#000000" font-family="sans-serif" font-size="10" lengthAdjust="spacing" textLength="160" x="868" y="559.6091">bo4e.enum.ausschreibungsportal</text></g><!--class Ausschreibungsstatus--><g id="elem_Ausschreibungsstatus"><rect codeLine="22" fill="#F1F1F1" height="37.9375" id="Ausschreibungsstatus" rx="2.5" ry="2.5" style="stroke:#181818;stroke-width:0.5;" width="194" x="838" y="602.03"/><ellipse cx="853" cy="620.9988" fill="#ADD1B2" rx="11" ry="11" style="stroke:#181818;stroke-width:1.0;"/><path d="M855.9688,626.6394 Q855.3906,626.9363 854.75,627.0769 Q854.1094,627.2331 853.4063,627.2331 Q850.9063,627.2331 849.5781,625.5925 Q848.2656,623.9363 848.2656,620.8113 Q848.2656,617.6863 849.5781,616.03 Q850.9063,614.3738 853.4063,614.3738 Q854.1094,614.3738 854.75,614.53 Q855.4063,614.6863 855.9688,614.9831 L855.9688,617.7019 Q855.3438,617.1238 854.75,616.8581 Q854.1563,616.5769 853.5313,616.5769 Q852.1875,616.5769 851.5,617.655 Q850.8125,618.7175 850.8125,620.8113 Q850.8125,622.905 851.5,623.9831 Q852.1875,625.0456 853.5313,625.0456 Q854.1563,625.0456 854.75,624.78 Q855.3438,624.4988 855.9688,623.9206 L855.9688,626.6394 Z " fill="#000000"/><a href="https://bo4e.github.io/BO4E-python/latest/api/bo4e.enum.html#bo4e.enum.ausschreibungsstatus.Ausschreibungsstatus" target="_top" title="https://bo4e.github.io/BO4E-python/latest/api/bo4e.enum.html#bo4e.enum.ausschreibungsstatus.Ausschreibungsstatus" xlink:actuate="onRequest" xlink:href="https://bo4e.github.io/BO4E-python/latest/api/bo4e.enum.html#bo4e.enum.ausschreibungsstatus.Ausschreibungsstatus" xlink:show="new" xlink:title="https://bo4e.github.io/BO4E-python/latest/api/bo4e.enum.html#bo4e.enum.ausschreibungsstatus.Ausschreibungsstatus" xlink:type="simple"><text fill="#0000FF" font-family="sans-serif" font-size="14" lengthAdjust="spacing" text-decoration="underline" textLength="155" x="870.5" y="620.0251">Ausschreibungsstatus</text></a><text fill="#000000" font-family="sans-serif" font-size="10" lengthAdjust="spacing" textLength="162" x="867" y="632.6091">bo4e.enum.ausschreibungsstatus</text></g><!--class Ausschreibung--><g id="elem_Ausschreibung"><rect codeLine="3" fill="#F1F1F1" height="127.4219" id="Ausschreibung" rx="2.5" ry="2.5" style="stroke:#181818;stroke-width:0.5;" width="603" x="7" y="317.29"/><ellipse cx="248.75" cy="336.2588" fill="#ADD1B2" rx="11" ry="11" style="stroke:#181818;stroke-width:1.0;"/><path d="M251.7188,341.8994 Q251.1406,342.1963 250.5,342.3369 Q249.8594,342.4931 249.1563,342.4931 Q246.6563,342.4931 245.3281,340.8525 Q244.0156,339.1963 244.0156,336.0713 Q244.0156,332.9463 245.3281,331.29 Q246.6563,329.6338 249.1563,329.6338 Q249.8594,329.6338 250.5,329.79 Q251.1563,329.9463 251.7188,330.2431 L251.7188,332.9619 Q251.0938,332.3838 250.5,332.1181 Q249.9063,331.8369 249.2813,331.8369 Q247.9375,331.8369 247.25,332.915 Q246.5625,333.9775 246.5625,336.0713 Q246.5625,338.165 247.25,339.2431 Q247.9375,340.3056 249.2813,340.3056 Q249.9063,340.3056 250.5,340.04 Q251.0938,339.7588 251.7188,339.1806 L251.7188,341.8994 Z " fill="#000000"/><a href="https://bo4e.github.io/BO4E-python/latest/api/bo4e.bo.html#bo4e.bo.ausschreibung.Ausschreibung" target="_top" title="https://bo4e.github.io/BO4E-python/latest/api/bo4e.bo.html#bo4e.bo.ausschreibung.Ausschreibung" xlink:actuate="onRequest" xlink:href="https://bo4e.github.io/BO4E-python/latest/api/bo4e.bo.html#bo4e.bo.ausschreibung.Ausschreibung" xlink:show="new" xlink:title="https://bo4e.github.io/BO4E-python/latest/api/bo4e.bo.html#bo4e.bo.ausschreibung.Ausschreibung" xlink:type="simple"><text fill="#0000FF" font-family="sans-serif" font-size="14" lengthAdjust="spacing" text-decoration="underline" textLength="104" x="272.75" y="335.2851">Ausschreibung</text></a><text fill="#000000" font-family="sans-serif" font-size="10" lengthAdjust="spacing" textLength="111" x="269.25" y="347.8691">bo4e.bo.ausschreibung</text><line style="stroke:#181818;stroke-width:0.5;" x1="8" x2="609" y1="355.2275" y2="355.2275"/><text fill="#000000" font-family="sans-serif" font-size="14" lengthAdjust="spacing" textLength="591" x="13" y="372.2226">_typ : Literal[&lt;Typ.AUSSCHREIBUNG: 'AUSSCHREIBUNG'&gt;] [1] = Typ.AUSSCHREIBUNG</text><text fill="#000000" font-family="sans-serif" font-size="14" lengthAdjust="spacing" textLength="297" x="13" y="388.5195">ausschreibungsnummer : str [0..1] = None</text><text fill="#000000" font-family="sans-serif" font-size="14" lengthAdjust="spacing" textLength="258" x="13" y="404.8164">istKostenpflichtig : bool [0..1] = None</text><text fill="#000000" font-family="sans-serif" font-size="14" lengthAdjust="spacing" textLength="408" x="13" y="421.1132">veroeffentlichungszeitpunkt : AwareDatetime [0..1] = None</text><text fill="#000000" font-family="sans-serif" font-size="14" lengthAdjust="spacing" textLength="191" x="13" y="437.4101">webseite : str [0..1] = None</text></g><!--link Ausschreibung to Geschaeftsobjekt--><g id="link_Ausschreibung_Geschaeftsobjekt"><path codeLine="25" d="M416.6,316.95 C511.68,262.64 655.94,186.37 790,140 C811.34,132.62 817.4807,130.4179 839.2707,124.8479 " fill="none" id="Ausschreibung-to-Geschaeftsobjekt" style="stroke:#181818;stroke-width:1.0;"/><polygon fill="none" points="856.71,120.39,837.7848,119.0348,840.7567,130.6609,856.71,120.39" style="stroke:#181818;stroke-width:1.0;"/></g><!--link Ausschreibung to Ausschreibungstyp--><g id="link_Ausschreibung_Ausschreibungstyp"><path codeLine="26" d="M610.32,426.28 C695.86,439.15 770.6737,450.4137 832.7837,459.7637 " fill="none" id="Ausschreibung-to-Ausschreibungstyp" style="stroke:#181818;stroke-width:1.0;"/><polygon fill="#181818" points="844.65,461.55,839.3123,456.7014,832.7837,459.7637,838.1214,464.6123,844.65,461.55" style="stroke:#181818;stroke-width:1.0;"/><text fill="#000000" font-family="sans-serif" font-size="13" lengthAdjust="spacing" textLength="120" x="651" y="427.0669">ausschreibungstyp</text><text fill="#000000" font-family="sans-serif" font-size="13" lengthAdjust="spacing" textLength="24" x="813.1337" y="473.1849">0..1</text></g><!--link Ausschreibung to Ausschreibungsstatus--><g id="link_Ausschreibung_Ausschreibungsstatus"><path codeLine="27" d="M437.82,445.18 C498.39,474.34 572.14,508.22 640,535 C705.24,560.75 722.67,564.37 790,584 C810.82,590.07 821.8577,593.153 842.9077,598.563 " fill="none" id="Ausschreibung-to-Ausschreibungsstatus" style="stroke:#181818;stroke-width:1.0;"/><polygon fill="#181818" points="854.53,601.55,849.7145,596.1824,842.9077,598.563,847.7232,603.9306,854.53,601.55" style="stroke:#181818;stroke-width:1.0;"/><text fill="#000000" font-family="sans-serif" font-size="13" lengthAdjust="spacing" textLength="140" x="641" y="531.0669">ausschreibungsstatus</text><text fill="#000000" font-family="sans-serif" font-size="13" lengthAdjust="spacing" textLength="24" x="805.6787" y="591.3923">0..1</text></g><!--link Ausschreibung to Geschaeftspartner--><g id="link_Ausschreibung_Geschaeftspartner"><path codeLine="28" d="M504.95,316.84 C632.69,274.91 779.4887,226.723 863.5587,199.123 " fill="none" id="Ausschreibung-to-Geschaeftspartner" style="stroke:#181818;stroke-width:1.0;"/><polygon fill="#181818" points="874.96,195.38,868.0117,193.4511,863.5587,199.123,870.507,201.0519,874.96,195.38" style="stroke:#181818;stroke-width:1.0;"/><text fill="#000000" font-family="sans-serif" font-size="13" lengthAdjust="spacing" textLength="106" x="658" y="227.0669">ausschreibender</text><text fill="#000000" font-family="sans-serif" font-size="13" lengthAdjust="spacing" textLength="24" x="830.6988" y="215.0259">0..1</text></g><!--link Ausschreibung to Zeitraum--><g id="link_Ausschreibung_Zeitraum"><path codeLine="29" d="M610.32,371.85 C709.13,368.84 797.4655,366.1543 859.6855,364.2643 " fill="none" id="Ausschreibung-to-Zeitraum" style="stroke:#181818;stroke-width:1.0;"/><polygon fill="#181818" points="871.68,363.9,865.5613,360.084,859.6855,364.2643,865.8042,368.0803,871.68,363.9" style="stroke:#181818;stroke-width:1.0;"/><text fill="#000000" font-family="sans-serif" font-size="13" lengthAdjust="spacing" textLength="72" x="675" y="364.0669">abgabefrist</text><text fill="#000000" font-family="sans-serif" font-size="13" lengthAdjust="spacing" textLength="24" x="839.9126" y="376.9432">0..1</text></g><!--link Ausschreibung to Zeitraum--><g id="link_Ausschreibung_Zeitraum"><path codeLine="30" d="M610.26,403.31 C667.41,403.94 726.63,402.12 782,396 C811.83,392.7 832.7141,388.7231 860.0041,382.0431 " fill="none" id="Ausschreibung-to-Zeitraum-1" style="stroke:#181818;stroke-width:1.0;"/><polygon fill="#181818" points="871.66,379.19,864.881,376.7313,860.0041,382.0431,866.7831,384.5019,871.66,379.19" style="stroke:#181818;stroke-width:1.0;"/><text fill="#000000" font-family="sans-serif" font-size="13" lengthAdjust="spacing" textLength="59" x="681.5" y="392.0669">bindefrist</text><text fill="#000000" font-family="sans-serif" font-size="13" lengthAdjust="spacing" textLength="24" x="839.8906" y="393.81">0..1</text></g><!--link Ausschreibung to Ausschreibungslos--><g id="link_Ausschreibung_Ausschreibungslos"><path codeLine="31" d="M610.32,336.68 C698.2,323.74 775.4181,312.3584 837.8181,303.1684 " fill="none" id="Ausschreibung-to-Ausschreibungslos" style="stroke:#181818;stroke-width:1.0;"/><polygon fill="#181818" points="849.69,301.42,843.1712,298.3369,837.8181,303.1684,844.3368,306.2515,849.69,301.42" style="stroke:#181818;stroke-width:1.0;"/><text fill="#000000" font-family="sans-serif" font-size="13" lengthAdjust="spacing" textLength="26" x="698" y="310.0669">lose</text><text fill="#000000" font-family="sans-serif" font-size="13" lengthAdjust="spacing" textLength="23" x="818.9755" y="315.0797">0..*</text></g><!--link Ausschreibung to Ausschreibungsportal--><g id="link_Ausschreibung_Ausschreibungsportal"><path codeLine="32" d="M530.99,445.11 C567.36,455.31 604.69,465.6 640,475 C711.66,494.08 781.9062,511.4692 841.0362,525.7692 " fill="none" id="Ausschreibung-to-Ausschreibungsportal" style="stroke:#181818;stroke-width:1.0;"/><polygon fill="#181818" points="852.7,528.59,847.8084,523.2917,841.0362,525.7692,845.9279,531.0675,852.7,528.59" style="stroke:#181818;stroke-width:1.0;"/><text fill="#000000" font-family="sans-serif" font-size="13" lengthAdjust="spacing" textLength="130" x="646" y="471.0669">ausschreibungportal</text><text fill="#000000" font-family="sans-serif" font-size="13" lengthAdjust="spacing" textLength="24" x="806.8931" y="519.4496">0..1</text></g><!--SRC=[jLPDRzf043tZNp62GwH8653JD48f4YGehLgbKjDSIgrgRGQyZUsrTiT5fEr_xnhRn5vR9GrmiJpFRsRdUntWWe04IBxq2UPSeaTSH9Rb1KmfQCzcFb6iXhsUAyxGNdBo4zVceZVvT3RjncloHTGB6A6Y7ejvndA5xLCOT0g19KfvlaJk9j7I7fSbg4YEyoswLFmHXuF-g56x3KnLTU2NrVfEwnY6y94JIXRCBh-iOtjyVtTtzUxpzFta_lPc22SL-MJam6pWm5keKQrMvK0L9M68KbjN967Mj-sDsgs8q6fnHH-48epYHS0zd_XIyrmX0fFu4wN0nG8ZIdcfsKVa52VH0scDyOf9lDP991wYgRf2LsakDdhmnx8Y5gAAcOVx5GjomN4sASubw4pEhz-CBz8a7x8ZbgWpp7JlAU7-m0UoRmm0JA2nDKmp6zTDpMDv7ZD94SgIwpa2DMI7ypdBy3v7TOttBR4dmbADjLGkiXQXC-sFBywlzgroSKvdArL7AH2gElqf0ZMadgr6K_LLaAA7ZY2TKycIqFwQlq3nqkncmTzuLr0FK4FKUwXKn5GiLp6LeJCVUAzUxpsiswCwJs8r-vGkJHE16bBFKBEjXafgzDX1n48I2umuCX2Qm6T5ar4R0ie-73icHOmISyWo49h0PyMKKHjYoZwabv1ngNUxlqV55L9RxIPPiq-XdLvhxQTURcYl8TGQvoMcycoOrl9OTXcin5Fi-x8jZEPwP-yoaswAxKBHwkwIkRYG-d_YVrLThW_yj-PfIRE-VeUWd_YIJEQpOcGoRtJBvtE444CNfRAKBrPW7B7W6CpLNm00]--></g></svg>