<?plantuml 1.2026.1?><svg xmlns="http://www.w3.org/2000/svg" xmlns:xlink="http://www.w3.org/1999/xlink" contentStyleType="text/css" data-diagram-type="CLASS" height="614px" preserveAspectRatio="none" style="width:796px;height:614px;background:#FFFFFF;" version="1.1" viewBox="0 0 796 614" width="796px" zoomAndPan="magnify"><defs/><g><!--cluster bo4e--><g class="cluster" data-qualified-name="bo4e" data-source-line="14" id="ent0005"><path d="M525.92,6 L565.796,6 A3.75,3.75 0 0 1 568.296,8.5 L575.296,28.2969 L786.62,28.2969 A2.5,2.5 0 0 1 789.12,30.7969 L789.12,604.5 A2.5,2.5 0 0 1 786.62,607 L525.92,607 A2.5,2.5 0 0 1 523.42,604.5 L523.42,8.5 A2.5,2.5 0 0 1 525.92,6" fill="none" style="stroke:#000000;stroke-width:1.5;"/><line style="stroke:#000000;stroke-width:1.5;" x1="523.42" x2="575.296" y1="28.2969" y2="28.2969"/><text fill="#000000" font-family="sans-serif" font-size="14" font-weight="bold" lengthAdjust="spacing" textLength="38.876" x="527.42" y="20.9951">bo4e</text></g><!--cluster bo--><g class="cluster" data-qualified-name="bo4e.bo" data-source-line="13" id="ent0003"><path d="M561.67,49 L626.504,49 A3.75,3.75 0 0 1 629.004,51.5 L636.004,71.2969 L750.86,71.2969 A2.5,2.5 0 0 1 753.36,73.7969 L753.36,135.5 A2.5,2.5 0 0 1 750.86,138 L561.67,138 A2.5,2.5 0 0 1 559.17,135.5 L559.17,51.5 A2.5,2.5 0 0 1 561.67,49" fill="#B6D7A8" style="stroke:#000000;stroke-width:1.5;"/><line style="stroke:#000000;stroke-width:1.5;" x1="559.17" x2="636.004" y1="71.2969" y2="71.2969"/><text fill="#000000" font-family="sans-serif" font-size="14" font-weight="bold" lengthAdjust="spacing" textLength="63.834" x="563.17" y="63.9951">bo4e.bo</text></g><!--cluster com--><g class="cluster" data-qualified-name="bo4e.com" data-source-line="29" id="ent0006"><path d="M561.55,162 L639.2492,162 A3.75,3.75 0 0 1 641.7492,164.5 L648.7492,184.2969 L750.98,184.2969 A2.5,2.5 0 0 1 753.48,186.7969 L753.48,321.5 A2.5,2.5 0 0 1 750.98,324 L561.55,324 A2.5,2.5 0 0 1 559.05,321.5 L559.05,164.5 A2.5,2.5 0 0 1 561.55,162" fill="#E0A86C" style="stroke:#000000;stroke-width:1.5;"/><line style="stroke:#000000;stroke-width:1.5;" x1="559.05" x2="648.7492" y1="184.2969" y2="184.2969"/><text fill="#000000" font-family="sans-serif" font-size="14" font-weight="bold" lengthAdjust="spacing" textLength="76.6992" x="563.05" y="176.9951">bo4e.com</text></g><!--cluster enum--><g class="cluster" data-qualified-name="bo4e.enum" data-source-line="51" id="ent0009"><path d="M549.92,348 L639.1309,348 A3.75,3.75 0 0 1 641.6309,350.5 L648.6309,370.2969 L762.62,370.2969 A2.5,2.5 0 0 1 765.12,372.7969 L765.12,580.5 A2.5,2.5 0 0 1 762.62,583 L549.92,583 A2.5,2.5 0 0 1 547.42,580.5 L547.42,350.5 A2.5,2.5 0 0 1 549.92,348" fill="#D1C358" style="stroke:#000000;stroke-width:1.5;"/><line style="stroke:#000000;stroke-width:1.5;" x1="547.42" x2="648.6309" y1="370.2969" y2="370.2969"/><text fill="#000000" font-family="sans-serif" font-size="14" font-weight="bold" lengthAdjust="spacing" textLength="88.2109" x="551.42" y="362.9951">bo4e.enum</text></g><!--class Geschaeftspartner--><g class="entity" data-qualified-name="bo4e.bo.Geschaeftspartner" data-source-line="14" id="ent0004"><rect fill="#F1F1F1" height="37.9375" rx="2.5" ry="2.5" style="stroke:#181818;stroke-width:0.5;" width="162.1836" x="575.17" y="84.03"/><ellipse cx="590.17" cy="102.9987" fill="#ADD1B2" rx="11" ry="11" style="stroke:#181818;stroke-width:1;"/><path d="M593.1388,108.6394 Q592.5606,108.9362 591.92,109.0769 Q591.2794,109.2331 590.5763,109.2331 Q588.0763,109.2331 586.7481,107.5925 Q585.4356,105.9362 585.4356,102.8112 Q585.4356,99.6862 586.7481,98.03 Q588.0763,96.3737 590.5763,96.3737 Q591.2794,96.3737 591.92,96.53 Q592.5763,96.6862 593.1388,96.9831 L593.1388,99.7019 Q592.5138,99.1237 591.92,98.8581 Q591.3263,98.5769 590.7013,98.5769 Q589.3575,98.5769 588.67,99.655 Q587.9825,100.7175 587.9825,102.8112 Q587.9825,104.905 588.67,105.9831 Q589.3575,107.0456 590.7013,107.0456 Q591.3263,107.0456 591.92,106.78 Q592.5138,106.4987 593.1388,105.9206 L593.1388,108.6394 Z " fill="#000000"/><a href="https://bo4e.github.io/BO4E-python/latest/api/bo.Geschaeftspartner.html" target="_top" title="https://bo4e.github.io/BO4E-python/latest/api/bo.Geschaeftspartner.html" xlink:actuate="onRequest" xlink:href="https://bo4e.github.io/BO4E-python/latest/api/bo.Geschaeftspartner.html" xlink:show="new" xlink:title="https://bo4e.github.io/BO4E-python/latest/api/bo.Geschaeftspartner.html" xlink:type="simple"><text fill="#0000FF" font-family="sans-serif" font-size="14" lengthAdjust="spacing" text-decoration="underline" textLength="130.1836" x="604.17" y="102.0251">Geschaeftspartner</text></a><text fill="#000000" font-family="sans-serif" font-size="10" lengthAdjust="spacing" textLength="108.6328" x="614.9454" y="114.6091">bo.Geschaeftspartner</text></g><!--class Ausschreibungslos--><g class="entity" data-qualified-name="bo4e.com.Ausschreibungslos" data-source-line="30" id="ent0007"><rect fill="#F1F1F1" height="37.9375" rx="2.5" ry="2.5" style="stroke:#181818;stroke-width:0.5;" width="162.4297" x="575.05" y="197.03"/><ellipse cx="590.05" cy="215.9987" fill="#ADD1B2" rx="11" ry="11" style="stroke:#181818;stroke-width:1;"/><path d="M593.0188,221.6394 Q592.4406,221.9362 591.8,222.0769 Q591.1594,222.2331 590.4563,222.2331 Q587.9563,222.2331 586.6281,220.5925 Q585.3156,218.9362 585.3156,215.8112 Q585.3156,212.6862 586.6281,211.03 Q587.9563,209.3737 590.4563,209.3737 Q591.1594,209.3737 591.8,209.53 Q592.4563,209.6862 593.0188,209.9831 L593.0188,212.7019 Q592.3938,212.1237 591.8,211.8581 Q591.2063,211.5769 590.5813,211.5769 Q589.2375,211.5769 588.55,212.655 Q587.8625,213.7175 587.8625,215.8112 Q587.8625,217.905 588.55,218.9831 Q589.2375,220.0456 590.5813,220.0456 Q591.2063,220.0456 591.8,219.78 Q592.3938,219.4987 593.0188,218.9206 L593.0188,221.6394 Z " fill="#000000"/><a href="https://bo4e.github.io/BO4E-python/latest/api/com.Ausschreibungslos.html" target="_top" title="https://bo4e.github.io/BO4E-python/latest/api/com.Ausschreibungslos.html" xlink:actuate="onRequest" xlink:href="https://bo4e.github.io/BO4E-python/latest/api/com.Ausschreibungslos.html" xlink:show="new" xlink:title="https://bo4e.github.io/BO4E-python/latest/api/com.Ausschreibungslos.html" xlink:type="simple"><text fill="#0000FF" font-family="sans-serif" font-size="14" lengthAdjust="spacing" text-decoration="underline" textLength="130.4297" x="604.05" y="215.0251">Ausschreibungslos</text></a><text fill="#000000" font-family="sans-serif" font-size="10" lengthAdjust="spacing" textLength="117.7002" x="610.4147" y="227.6091">com.Ausschreibungslos</text></g><!--class Zeitraum--><g class="entity" data-qualified-name="bo4e.com.Zeitraum" data-source-line="40" id="ent0008"><rect fill="#F1F1F1" height="37.9375" rx="2.5" ry="2.5" style="stroke:#181818;stroke-width:0.5;" width="102.5566" x="604.99" y="270.03"/><ellipse cx="619.99" cy="288.9988" fill="#ADD1B2" rx="11" ry="11" style="stroke:#181818;stroke-width:1;"/><path d="M622.9588,294.6394 Q622.3806,294.9363 621.74,295.0769 Q621.0994,295.2331 620.3963,295.2331 Q617.8963,295.2331 616.5681,293.5925 Q615.2556,291.9363 615.2556,288.8113 Q615.2556,285.6863 616.5681,284.03 Q617.8963,282.3738 620.3963,282.3738 Q621.0994,282.3738 621.74,282.53 Q622.3963,282.6863 622.9588,282.9831 L622.9588,285.7019 Q622.3338,285.1238 621.74,284.8581 Q621.1463,284.5769 620.5213,284.5769 Q619.1775,284.5769 618.49,285.655 Q617.8025,286.7175 617.8025,288.8113 Q617.8025,290.905 618.49,291.9831 Q619.1775,293.0456 620.5213,293.0456 Q621.1463,293.0456 621.74,292.78 Q622.3338,292.4988 622.9588,291.9206 L622.9588,294.6394 Z " fill="#000000"/><a href="https://bo4e.github.io/BO4E-python/latest/api/com.Zeitraum.html" target="_top" title="https://bo4e.github.io/BO4E-python/latest/api/com.Zeitraum.html" xlink:actuate="onRequest" xlink:href="https://bo4e.github.io/BO4E-python/latest/api/com.Zeitraum.html" xlink:show="new" xlink:title="https://bo4e.github.io/BO4E-python/latest/api/com.Zeitraum.html" xlink:type="simple"><text fill="#0000FF" font-family="sans-serif" font-size="14" lengthAdjust="spacing" text-decoration="underline" textLength="64.4287" x="637.054" y="288.0251">Zeitraum</text></a><text fill="#000000" font-family="sans-serif" font-size="10" lengthAdjust="spacing" textLength="70.5566" x="633.99" y="300.6091">com.Zeitraum</text></g><!--class Ausschreibungsportal--><g class="entity" data-qualified-name="bo4e.enum.Ausschreibungsportal" data-source-line="52" id="ent0010"><rect fill="#F1F1F1" height="37.9375" rx="2.5" ry="2.5" style="stroke:#181818;stroke-width:0.5;" width="183.8467" x="564.34" y="383.03"/><ellipse cx="579.34" cy="401.9988" fill="#ADD1B2" rx="11" ry="11" style="stroke:#181818;stroke-width:1;"/><path d="M582.3088,407.6394 Q581.7306,407.9363 581.09,408.0769 Q580.4494,408.2331 579.7463,408.2331 Q577.2463,408.2331 575.9181,406.5925 Q574.6056,404.9363 574.6056,401.8113 Q574.6056,398.6863 575.9181,397.03 Q577.2463,395.3738 579.7463,395.3738 Q580.4494,395.3738 581.09,395.53 Q581.7463,395.6863 582.3088,395.9831 L582.3088,398.7019 Q581.6838,398.1238 581.09,397.8581 Q580.4963,397.5769 579.8713,397.5769 Q578.5275,397.5769 577.84,398.655 Q577.1525,399.7175 577.1525,401.8113 Q577.1525,403.905 577.84,404.9831 Q578.5275,406.0456 579.8713,406.0456 Q580.4963,406.0456 581.09,405.78 Q581.6838,405.4988 582.3088,404.9206 L582.3088,407.6394 Z " fill="#000000"/><a href="https://bo4e.github.io/BO4E-python/latest/api/enum.Ausschreibungsportal.html" target="_top" title="https://bo4e.github.io/BO4E-python/latest/api/enum.Ausschreibungsportal.html" xlink:actuate="onRequest" xlink:href="https://bo4e.github.io/BO4E-python/latest/api/enum.Ausschreibungsportal.html" xlink:show="new" xlink:title="https://bo4e.github.io/BO4E-python/latest/api/enum.Ausschreibungsportal.html" xlink:type="simple"><text fill="#0000FF" font-family="sans-serif" font-size="14" lengthAdjust="spacing" text-decoration="underline" textLength="151.8467" x="593.34" y="401.0251">Ausschreibungsportal</text></a><text fill="#000000" font-family="sans-serif" font-size="10" lengthAdjust="spacing" textLength="140.21" x="599.1584" y="413.6091">enum.Ausschreibungsportal</text></g><!--class Ausschreibungsstatus--><g class="entity" data-qualified-name="bo4e.enum.Ausschreibungsstatus" data-source-line="54" id="ent0011"><rect fill="#F1F1F1" height="37.9375" rx="2.5" ry="2.5" style="stroke:#181818;stroke-width:0.5;" width="185.6992" x="563.42" y="456.03"/><ellipse cx="578.42" cy="474.9988" fill="#ADD1B2" rx="11" ry="11" style="stroke:#181818;stroke-width:1;"/><path d="M581.3888,480.6394 Q580.8106,480.9363 580.17,481.0769 Q579.5294,481.2331 578.8263,481.2331 Q576.3263,481.2331 574.9981,479.5925 Q573.6856,477.9363 573.6856,474.8113 Q573.6856,471.6863 574.9981,470.03 Q576.3263,468.3738 578.8263,468.3738 Q579.5294,468.3738 580.17,468.53 Q580.8263,468.6863 581.3888,468.9831 L581.3888,471.7019 Q580.7638,471.1238 580.17,470.8581 Q579.5763,470.5769 578.9513,470.5769 Q577.6075,470.5769 576.92,471.655 Q576.2325,472.7175 576.2325,474.8113 Q576.2325,476.905 576.92,477.9831 Q577.6075,479.0456 578.9513,479.0456 Q579.5763,479.0456 580.17,478.78 Q580.7638,478.4988 581.3888,477.9206 L581.3888,480.6394 Z " fill="#000000"/><a href="https://bo4e.github.io/BO4E-python/latest/api/enum.Ausschreibungsstatus.html" target="_top" title="https://bo4e.github.io/BO4E-python/latest/api/enum.Ausschreibungsstatus.html" xlink:actuate="onRequest" xlink:href="https://bo4e.github.io/BO4E-python/latest/api/enum.Ausschreibungsstatus.html" xlink:show="new" xlink:title="https://bo4e.github.io/BO4E-python/latest/api/enum.Ausschreibungsstatus.html" xlink:type="simple"><text fill="#0000FF" font-family="sans-serif" font-size="14" lengthAdjust="spacing" text-decoration="underline" textLength="153.6992" x="592.42" y="474.0251">Ausschreibungsstatus</text></a><text fill="#000000" font-family="sans-serif" font-size="10" lengthAdjust="spacing" textLength="141.5332" x="598.503" y="486.6091">enum.Ausschreibungsstatus</text></g><!--class Ausschreibungstyp--><g class="entity" data-qualified-name="bo4e.enum.Ausschreibungstyp" data-source-line="56" id="ent0012"><rect fill="#F1F1F1" height="37.9375" rx="2.5" ry="2.5" style="stroke:#181818;stroke-width:0.5;" width="165.3418" x="573.6" y="529.03"/><ellipse cx="588.6" cy="547.9988" fill="#ADD1B2" rx="11" ry="11" style="stroke:#181818;stroke-width:1;"/><path d="M591.5688,553.6394 Q590.9906,553.9363 590.35,554.0769 Q589.7094,554.2331 589.0063,554.2331 Q586.5063,554.2331 585.1781,552.5925 Q583.8656,550.9363 583.8656,547.8113 Q583.8656,544.6863 585.1781,543.03 Q586.5063,541.3738 589.0063,541.3738 Q589.7094,541.3738 590.35,541.53 Q591.0063,541.6863 591.5688,541.9831 L591.5688,544.7019 Q590.9438,544.1238 590.35,543.8581 Q589.7563,543.5769 589.1313,543.5769 Q587.7875,543.5769 587.1,544.655 Q586.4125,545.7175 586.4125,547.8113 Q586.4125,549.905 587.1,550.9831 Q587.7875,552.0456 589.1313,552.0456 Q589.7563,552.0456 590.35,551.78 Q590.9438,551.4988 591.5688,550.9206 L591.5688,553.6394 Z " fill="#000000"/><a href="https://bo4e.github.io/BO4E-python/latest/api/enum.Ausschreibungstyp.html" target="_top" title="https://bo4e.github.io/BO4E-python/latest/api/enum.Ausschreibungstyp.html" xlink:actuate="onRequest" xlink:href="https://bo4e.github.io/BO4E-python/latest/api/enum.Ausschreibungstyp.html" xlink:show="new" xlink:title="https://bo4e.github.io/BO4E-python/latest/api/enum.Ausschreibungstyp.html" xlink:type="simple"><text fill="#0000FF" font-family="sans-serif" font-size="14" lengthAdjust="spacing" text-decoration="underline" textLength="133.3418" x="602.6" y="547.0251">Ausschreibungstyp</text></a><text fill="#000000" font-family="sans-serif" font-size="10" lengthAdjust="spacing" textLength="126.9922" x="605.7748" y="559.6091">enum.Ausschreibungstyp</text></g><!--class Ausschreibung--><g class="entity" data-qualified-name="Ausschreibung" data-source-line="3" id="ent0002"><rect fill="#F1F1F1" height="160.0156" rx="2.5" ry="2.5" style="stroke:#181818;stroke-width:0.5;" width="327.417" x="7" y="264.99"/><ellipse cx="114.7651" cy="283.9588" fill="#ADD1B2" rx="11" ry="11" style="stroke:#181818;stroke-width:1;"/><path d="M117.7339,289.5994 Q117.1558,289.8963 116.5151,290.0369 Q115.8745,290.1931 115.1714,290.1931 Q112.6714,290.1931 111.3433,288.5525 Q110.0308,286.8963 110.0308,283.7713 Q110.0308,280.6463 111.3433,278.99 Q112.6714,277.3338 115.1714,277.3338 Q115.8745,277.3338 116.5151,277.49 Q117.1714,277.6463 117.7339,277.9431 L117.7339,280.6619 Q117.1089,280.0838 116.5151,279.8181 Q115.9214,279.5369 115.2964,279.5369 Q113.9526,279.5369 113.2651,280.615 Q112.5776,281.6775 112.5776,283.7713 Q112.5776,285.865 113.2651,286.9431 Q113.9526,288.0056 115.2964,288.0056 Q115.9214,288.0056 116.5151,287.74 Q117.1089,287.4588 117.7339,286.8806 L117.7339,289.5994 Z " fill="#000000"/><a href="https://bo4e.github.io/BO4E-python/latest/api/bo.Ausschreibung.html" target="_top" title="https://bo4e.github.io/BO4E-python/latest/api/bo.Ausschreibung.html" xlink:actuate="onRequest" xlink:href="https://bo4e.github.io/BO4E-python/latest/api/bo.Ausschreibung.html" xlink:show="new" xlink:title="https://bo4e.github.io/BO4E-python/latest/api/bo.Ausschreibung.html" xlink:type="simple"><text fill="#0000FF" font-family="sans-serif" font-size="14" lengthAdjust="spacing" text-decoration="underline" textLength="103.3867" x="135.2651" y="282.9851">Ausschreibung</text></a><text fill="#000000" font-family="sans-serif" font-size="10" lengthAdjust="spacing" textLength="89.4922" x="142.2124" y="295.5691">bo.Ausschreibung</text><line style="stroke:#181818;stroke-width:0.5;" x1="8" x2="333.417" y1="302.9275" y2="302.9275"/><text fill="#000000" font-family="sans-serif" font-size="14" lengthAdjust="spacing" textLength="94.0215" x="13" y="319.9226">_id : str [0..1]</text><text fill="#000000" font-family="sans-serif" font-size="14" lengthAdjust="spacing" textLength="274.9619" x="13" y="336.2195">_typ : Literal["AUSSCHREIBUNG"] [0..1]</text><text fill="#000000" font-family="sans-serif" font-size="14" lengthAdjust="spacing" textLength="132.5215" x="13" y="352.5164">_version : str [0..1]</text><text fill="#000000" font-family="sans-serif" font-size="14" lengthAdjust="spacing" textLength="243.3184" x="13" y="368.8132">ausschreibungsnummer : str [0..1]</text><text fill="#000000" font-family="sans-serif" font-size="14" lengthAdjust="spacing" textLength="206.7324" x="13" y="385.1101">istKostenpflichtig : bool [0..1]</text><text fill="#000000" font-family="sans-serif" font-size="14" lengthAdjust="spacing" textLength="315.417" x="13" y="401.407">veroeffentlichungszeitpunkt : datetime [0..1]</text><text fill="#000000" font-family="sans-serif" font-size="14" lengthAdjust="spacing" textLength="137.0947" x="13" y="417.7039">webseite : str [0..1]</text></g><!--link Ausschreibung to Geschaeftspartner--><g class="link" data-entity-1="ent0002" data-entity-2="ent0004" data-link-type="composition" data-source-line="60" id="lnk13"><path codeLine="60" d="M291.65,264.6 C315.34,250.01 340.33,235.47 364.42,223 C443.97,181.8 529.6907,148.2636 589.1307,126.5136" fill="none" id="Ausschreibung-to-Geschaeftspartner" style="stroke:#181818;stroke-width:1;"/><polygon fill="#181818" points="600.4,122.39,593.3908,120.6954,589.1307,126.5136,596.1399,128.2082,600.4,122.39" style="stroke:#181818;stroke-width:1;"/><text fill="#000000" font-family="sans-serif" font-size="13" lengthAdjust="spacing" textLength="108.1768" x="381.92" y="156.0669">ausschreibender</text><text fill="#000000" font-family="sans-serif" font-size="13" lengthAdjust="spacing" textLength="24.8066" x="557.4273" y="142.0387">0..1</text></g><!--link Ausschreibung to Ausschreibungslos--><g class="link" data-entity-1="ent0002" data-entity-2="ent0007" data-link-type="composition" data-source-line="61" id="lnk14"><path codeLine="61" d="M334.9,291.44 C344.87,288.5 354.76,285.66 364.42,283 C434.85,263.59 504.1966,247.7556 562.8266,235.1856" fill="none" id="Ausschreibung-to-Ausschreibungslos" style="stroke:#181818;stroke-width:1;"/><polygon fill="#181818" points="574.56,232.67,567.8548,230.0167,562.8266,235.1856,569.5318,237.8389,574.56,232.67" style="stroke:#181818;stroke-width:1;"/><text fill="#000000" font-family="sans-serif" font-size="13" lengthAdjust="spacing" textLength="26.3364" x="422.92" y="244.0669">lose</text><text fill="#000000" font-family="sans-serif" font-size="13" lengthAdjust="spacing" textLength="23.0356" x="544.1342" y="246.6683">0..*</text></g><!--link Ausschreibung to Zeitraum--><g class="link" data-entity-1="ent0002" data-entity-2="ent0008" data-link-type="composition" data-source-line="62" id="lnk15"><path codeLine="62" d="M334.75,326.12 C428.93,315.21 529.0796,303.6101 592.6496,296.2501" fill="none" id="Ausschreibung-to-Zeitraum" style="stroke:#181818;stroke-width:1;"/><polygon fill="#181818" points="604.57,294.87,598.1498,291.5866,592.6496,296.2501,599.0699,299.5335,604.57,294.87" style="stroke:#181818;stroke-width:1;"/><text fill="#000000" font-family="sans-serif" font-size="13" lengthAdjust="spacing" textLength="74.0898" x="398.92" y="304.0669">abgabefrist</text><text fill="#000000" font-family="sans-serif" font-size="13" lengthAdjust="spacing" textLength="24.8066" x="572.0647" y="308.7426">0..1</text></g><!--link Ausschreibung to Zeitraum--><g class="link" data-entity-1="ent0002" data-entity-2="ent0008" data-link-type="composition" data-source-line="63" id="lnk16"><path codeLine="63" d="M334.67,359.37 C389.93,360.83 451.75,358.7 507.42,348 C546.77,340.44 578.1768,327.734 607.3768,313.614" fill="none" id="Ausschreibung-to-Zeitraum-1" style="stroke:#181818;stroke-width:1;"/><polygon fill="#181818" points="618.18,308.39,611.037,307.4009,607.3768,313.614,614.5197,314.6031,618.18,308.39" style="stroke:#181818;stroke-width:1;"/><text fill="#000000" font-family="sans-serif" font-size="13" lengthAdjust="spacing" textLength="61.7563" x="405.42" y="344.0669">bindefrist</text><text fill="#000000" font-family="sans-serif" font-size="13" lengthAdjust="spacing" textLength="24.8066" x="610.9561" y="328.0387">0..1</text></g><!--link Ausschreibung to Ausschreibungsportal--><g class="link" data-entity-1="ent0002" data-entity-2="ent0010" data-link-type="composition" data-source-line="64" id="lnk17"><path codeLine="64" d="M334.91,380.6 C344.87,382.23 354.76,383.72 364.42,385 C430.86,393.79 494.4476,397.6021 551.9076,399.6521" fill="none" id="Ausschreibung-to-Ausschreibungsportal" style="stroke:#181818;stroke-width:1;"/><polygon fill="#181818" points="563.9,400.08,558.0464,395.8686,551.9076,399.6521,557.7612,403.8635,563.9,400.08" style="stroke:#181818;stroke-width:1;"/><text fill="#000000" font-family="sans-serif" font-size="13" lengthAdjust="spacing" textLength="133.3008" x="369.42" y="381.0669">ausschreibungportal</text><text fill="#000000" font-family="sans-serif" font-size="13" lengthAdjust="spacing" textLength="24.8066" x="531.6157" y="412.5969">0..1</text></g><!--link Ausschreibung to Ausschreibungsstatus--><g class="link" data-entity-1="ent0002" data-entity-2="ent0011" data-link-type="composition" data-source-line="65" id="lnk18"><path codeLine="65" d="M334.9,413.74 C344.82,417.08 354.71,420.2 364.42,423 C429.72,441.83 493.4655,453.369 551.2255,461.789" fill="none" id="Ausschreibung-to-Ausschreibungsstatus" style="stroke:#181818;stroke-width:1;"/><polygon fill="#181818" points="563.1,463.52,557.7398,458.6963,551.2255,461.789,556.5857,466.6127,563.1,463.52" style="stroke:#181818;stroke-width:1;"/><text fill="#000000" font-family="sans-serif" font-size="13" lengthAdjust="spacing" textLength="141.7939" x="365.42" y="419.0669">ausschreibungsstatus</text><text fill="#000000" font-family="sans-serif" font-size="13" lengthAdjust="spacing" textLength="24.8066" x="530.7514" y="475.2751">0..1</text></g><!--link Ausschreibung to Ausschreibungstyp--><g class="link" data-entity-1="ent0002" data-entity-2="ent0012" data-link-type="composition" data-source-line="66" id="lnk19"><path codeLine="66" d="M270.86,425.21 C299.7,445.49 332.16,465.58 364.42,480 C431.52,510 501.6468,525.6867 561.4368,535.4467" fill="none" id="Ausschreibung-to-Ausschreibungstyp" style="stroke:#181818;stroke-width:1;"/><polygon fill="#181818" points="573.28,537.38,568.0028,532.4656,561.4368,535.4467,566.714,540.3611,573.28,537.38" style="stroke:#181818;stroke-width:1;"/><text fill="#000000" font-family="sans-serif" font-size="13" lengthAdjust="spacing" textLength="122.8906" x="374.92" y="476.0669">ausschreibungstyp</text><text fill="#000000" font-family="sans-serif" font-size="13" lengthAdjust="spacing" textLength="24.8066" x="540.8558" y="549.175">0..1</text></g><?plantuml-src jLPHJzim47xFhx326n8jQ8oXQfeKe6De3AOMNkYgoKckYKLYH_OPH57_E-UcR4tZYW9Rd-gxx-pBVT-TNS046IgcHPOZIuM618MIGP0Kt1WMZaOvOcLwtMwizg6J2Snjt16gUtIvtz-f7Z1Nibjm18DTNWb2TI9hJ99h4B6LMIV7ic0DqtZyItusOWgzlTqlg_YGSTE4iyU0qU-tI5cF6THijDlfx8rh8pvKP3qN29eNep2w7WwFlmtwPqVN5wVXk06z0steozgRyENJZBHb2RgD4WQ_AuCWgqaXaXn5HfXOgM8PH6Sec4n0eiEuxQOWiBBo5WcTKfbGbB0SSG-n8GWq3vm5WUGbc8edmC9vvMCrBytYFziwEZZv51qkYlDsiaw1lfsJ2EWiZH9qJLZBl4fQ2p3FhcLz3NcdVU8kwd-z6lwC1bSN_S7619PeCj2EbROpApZOM93_p9D3pcKAXT6G4R-Wrv8lKt4dKWj50P7Ka48R8tcIEzBQ7gKpBeNXhh6C7s9BSayf1UlFyqvfVw3JZqS-ivP-4bN-5H0js5P_DpeyE7wVWcYZPl-QGXbFppjpGqBUm7RpE-kR1y3m_7AuiORabEV5kO098T3nx412uZ8e1bB7hPj9hVWOK8F54wkJtEUbEK3oy8RI9_fqDtilBpSqLpItPKt7ywh5mhDZNlpdnMjgVjC_knf4rpysBNNAhQ_7GAOq8EdeUb2kk6oktIWbv-e4DKYZPbtatEcFzJK9IBlK9Mx5jjAzvCF7TmvQjzEAt2kbaHU-Lgaz3PxMndiwfdPGlhD_d37L4gstkMlFIndNA4_6jUC_P4n2zQLBvfTo9OWdKIVynxbmWkOJPMTdcuLELg7d2kmjlJ18oQ3N16-7djdNS-C1rX_tfs7fb3ZZCKmqtMGRuMEwrLw2UwNLQpwPQkkcUop8NjbZOTvqate2yLLR4EI2hkOIofY6Js1oTS-QnBA9W28rJm00?></g></svg>