<?xml version="1.0" encoding="us-ascii" standalone="no"?><svg xmlns="http://www.w3.org/2000/svg" xmlns:xlink="http://www.w3.org/1999/xlink" contentStyleType="text/css" height="979px" preserveAspectRatio="none" style="width:927px;height:979px;background:#FFFFFF;" version="1.1" viewBox="0 0 927 979" width="927px" zoomAndPan="magnify"><defs/><g><!--cluster bo4e--><g id="cluster_bo4e"><path d="M604.5,6 L645.5,6 A3.75,3.75 0 0 1 648,8.5 L655,28.2969 L917.5,28.2969 A2.5,2.5 0 0 1 920,30.7969 L920,969.5 A2.5,2.5 0 0 1 917.5,972 L604.5,972 A2.5,2.5 0 0 1 602,969.5 L602,8.5 A2.5,2.5 0 0 1 604.5,6 " fill="none" style="stroke:#000000;stroke-width:1.5;"/><line style="stroke:#000000;stroke-width:1.5;" x1="602" x2="655" y1="28.2969" y2="28.2969"/><text fill="#000000" font-family="sans-serif" font-size="14" font-weight="bold" lengthAdjust="spacing" textLength="40" x="606" y="20.9951">bo4e</text></g><!--cluster bo--><g id="cluster_bo"><path d="M669.5,49 L735.5,49 A3.75,3.75 0 0 1 738,51.5 L745,71.2969 L852.5,71.2969 A2.5,2.5 0 0 1 855,73.7969 L855,135.5 A2.5,2.5 0 0 1 852.5,138 L669.5,138 A2.5,2.5 0 0 1 667,135.5 L667,51.5 A2.5,2.5 0 0 1 669.5,49 " fill="#B6D7A8" style="stroke:#000000;stroke-width:1.5;"/><line style="stroke:#000000;stroke-width:1.5;" x1="667" x2="745" y1="71.2969" y2="71.2969"/><a href="https://bo4e.github.io/BO4E-python/latest/api/bo4e.bo.html" target="_top" title="https://bo4e.github.io/BO4E-python/latest/api/bo4e.bo.html" xlink:actuate="onRequest" xlink:href="https://bo4e.github.io/BO4E-python/latest/api/bo4e.bo.html" xlink:show="new" xlink:title="https://bo4e.github.io/BO4E-python/latest/api/bo4e.bo.html" xlink:type="simple"><text fill="#0000FF" font-family="sans-serif" font-size="14" font-weight="bold" lengthAdjust="spacing" text-decoration="underline" textLength="65" x="671" y="63.9951">bo4e.bo</text></a></g><!--cluster com--><g id="cluster_com"><path d="M685.5,162 L764.5,162 A3.75,3.75 0 0 1 767,164.5 L774,184.2969 L836.5,184.2969 A2.5,2.5 0 0 1 839,186.7969 L839,321.5 A2.5,2.5 0 0 1 836.5,324 L685.5,324 A2.5,2.5 0 0 1 683,321.5 L683,164.5 A2.5,2.5 0 0 1 685.5,162 " fill="#E0A86C" style="stroke:#000000;stroke-width:1.5;"/><line style="stroke:#000000;stroke-width:1.5;" x1="683" x2="774" y1="184.2969" y2="184.2969"/><a href="https://bo4e.github.io/BO4E-python/latest/api/bo4e.com.html" target="_top" title="https://bo4e.github.io/BO4E-python/latest/api/bo4e.com.html" xlink:actuate="onRequest" xlink:href="https://bo4e.github.io/BO4E-python/latest/api/bo4e.com.html" xlink:show="new" xlink:title="https://bo4e.github.io/BO4E-python/latest/api/bo4e.com.html" xlink:type="simple"><text fill="#0000FF" font-family="sans-serif" font-size="14" font-weight="bold" lengthAdjust="spacing" text-decoration="underline" textLength="78" x="687" y="176.9951">bo4e.com</text></a></g><!--cluster enum--><g id="cluster_enum"><path d="M628.5,348 L718.5,348 A3.75,3.75 0 0 1 721,350.5 L728,370.2969 L893.5,370.2969 A2.5,2.5 0 0 1 896,372.7969 L896,945.5 A2.5,2.5 0 0 1 893.5,948 L628.5,948 A2.5,2.5 0 0 1 626,945.5 L626,350.5 A2.5,2.5 0 0 1 628.5,348 " fill="#D1C358" style="stroke:#000000;stroke-width:1.5;"/><line style="stroke:#000000;stroke-width:1.5;" x1="626" x2="728" y1="370.2969" y2="370.2969"/><a href="https://bo4e.github.io/BO4E-python/latest/api/bo4e.enum.html" target="_top" title="https://bo4e.github.io/BO4E-python/latest/api/bo4e.enum.html" xlink:actuate="onRequest" xlink:href="https://bo4e.github.io/BO4E-python/latest/api/bo4e.enum.html" xlink:show="new" xlink:title="https://bo4e.github.io/BO4E-python/latest/api/bo4e.enum.html" xlink:type="simple"><text fill="#0000FF" font-family="sans-serif" font-size="14" font-weight="bold" lengthAdjust="spacing" text-decoration="underline" textLength="89" x="630" y="362.9951">bo4e.enum</text></a></g><!--class Geschaeftsobjekt--><g id="elem_Geschaeftsobjekt"><rect codeLine="13" fill="#F1F1F1" height="37.9375" id="Geschaeftsobjekt" rx="2.5" ry="2.5" style="stroke:#181818;stroke-width:0.5;" width="156" x="683" y="84.03"/><ellipse cx="698" cy="102.9987" fill="#ADD1B2" rx="11" ry="11" style="stroke:#181818;stroke-width:1.0;"/><path d="M700.9688,108.6394 Q700.3906,108.9362 699.75,109.0769 Q699.1094,109.2331 698.4063,109.2331 Q695.9063,109.2331 694.5781,107.5925 Q693.2656,105.9362 693.2656,102.8112 Q693.2656,99.6862 694.5781,98.03 Q695.9063,96.3737 698.4063,96.3737 Q699.1094,96.3737 699.75,96.53 Q700.4063,96.6862 700.9688,96.9831 L700.9688,99.7019 Q700.3438,99.1237 699.75,98.8581 Q699.1563,98.5769 698.5313,98.5769 Q697.1875,98.5769 696.5,99.655 Q695.8125,100.7175 695.8125,102.8112 Q695.8125,104.905 696.5,105.9831 Q697.1875,107.0456 698.5313,107.0456 Q699.1563,107.0456 699.75,106.78 Q700.3438,106.4987 700.9688,105.9206 L700.9688,108.6394 Z " fill="#000000"/><a href="https://bo4e.github.io/BO4E-python/latest/api/bo4e.bo.html#bo4e.bo.geschaeftsobjekt.Geschaeftsobjekt" target="_top" title="https://bo4e.github.io/BO4E-python/latest/api/bo4e.bo.html#bo4e.bo.geschaeftsobjekt.Geschaeftsobjekt" xlink:actuate="onRequest" xlink:href="https://bo4e.github.io/BO4E-python/latest/api/bo4e.bo.html#bo4e.bo.geschaeftsobjekt.Geschaeftsobjekt" xlink:show="new" xlink:title="https://bo4e.github.io/BO4E-python/latest/api/bo4e.bo.html#bo4e.bo.geschaeftsobjekt.Geschaeftsobjekt" xlink:type="simple"><text fill="#0000FF" font-family="sans-serif" font-size="14" lengthAdjust="spacing" text-decoration="underline" textLength="122" x="713" y="102.0251">Geschaeftsobjekt</text></a><text fill="#000000" font-family="sans-serif" font-size="10" lengthAdjust="spacing" textLength="124" x="712" y="114.6091">bo4e.bo.geschaeftsobjekt</text></g><!--class Menge--><g id="elem_Menge"><rect codeLine="16" fill="#F1F1F1" height="37.9375" id="Menge" rx="2.5" ry="2.5" style="stroke:#181818;stroke-width:0.5;" width="117" x="702.5" y="197.03"/><ellipse cx="717.5" cy="215.9987" fill="#ADD1B2" rx="11" ry="11" style="stroke:#181818;stroke-width:1.0;"/><path d="M720.4688,221.6394 Q719.8906,221.9362 719.25,222.0769 Q718.6094,222.2331 717.9063,222.2331 Q715.4063,222.2331 714.0781,220.5925 Q712.7656,218.9362 712.7656,215.8112 Q712.7656,212.6862 714.0781,211.03 Q715.4063,209.3737 717.9063,209.3737 Q718.6094,209.3737 719.25,209.53 Q719.9063,209.6862 720.4688,209.9831 L720.4688,212.7019 Q719.8438,212.1237 719.25,211.8581 Q718.6563,211.5769 718.0313,211.5769 Q716.6875,211.5769 716,212.655 Q715.3125,213.7175 715.3125,215.8112 Q715.3125,217.905 716,218.9831 Q716.6875,220.0456 718.0313,220.0456 Q718.6563,220.0456 719.25,219.78 Q719.8438,219.4987 720.4688,218.9206 L720.4688,221.6394 Z " fill="#000000"/><a href="https://bo4e.github.io/BO4E-python/latest/api/bo4e.com.html#bo4e.com.menge.Menge" target="_top" title="https://bo4e.github.io/BO4E-python/latest/api/bo4e.com.html#bo4e.com.menge.Menge" xlink:actuate="onRequest" xlink:href="https://bo4e.github.io/BO4E-python/latest/api/bo4e.com.html#bo4e.com.menge.Menge" xlink:show="new" xlink:title="https://bo4e.github.io/BO4E-python/latest/api/bo4e.com.html#bo4e.com.menge.Menge" xlink:type="simple"><text fill="#0000FF" font-family="sans-serif" font-size="14" lengthAdjust="spacing" text-decoration="underline" textLength="48" x="750" y="215.0251">Menge</text></a><text fill="#000000" font-family="sans-serif" font-size="10" lengthAdjust="spacing" textLength="85" x="731.5" y="227.6091">bo4e.com.menge</text></g><!--class Lastprofil--><g id="elem_Lastprofil"><rect codeLine="17" fill="#F1F1F1" height="37.9375" id="Lastprofil" rx="2.5" ry="2.5" style="stroke:#181818;stroke-width:0.5;" width="124" x="699" y="270.03"/><ellipse cx="714" cy="288.9988" fill="#ADD1B2" rx="11" ry="11" style="stroke:#181818;stroke-width:1.0;"/><path d="M716.9688,294.6394 Q716.3906,294.9363 715.75,295.0769 Q715.1094,295.2331 714.4063,295.2331 Q711.9063,295.2331 710.5781,293.5925 Q709.2656,291.9363 709.2656,288.8113 Q709.2656,285.6863 710.5781,284.03 Q711.9063,282.3738 714.4063,282.3738 Q715.1094,282.3738 715.75,282.53 Q716.4063,282.6863 716.9688,282.9831 L716.9688,285.7019 Q716.3438,285.1238 715.75,284.8581 Q715.1563,284.5769 714.5313,284.5769 Q713.1875,284.5769 712.5,285.655 Q711.8125,286.7175 711.8125,288.8113 Q711.8125,290.905 712.5,291.9831 Q713.1875,293.0456 714.5313,293.0456 Q715.1563,293.0456 715.75,292.78 Q716.3438,292.4988 716.9688,291.9206 L716.9688,294.6394 Z " fill="#000000"/><a href="https://bo4e.github.io/BO4E-python/latest/api/bo4e.com.html#bo4e.com.lastprofil.Lastprofil" target="_top" title="https://bo4e.github.io/BO4E-python/latest/api/bo4e.com.html#bo4e.com.lastprofil.Lastprofil" xlink:actuate="onRequest" xlink:href="https://bo4e.github.io/BO4E-python/latest/api/bo4e.com.html#bo4e.com.lastprofil.Lastprofil" xlink:show="new" xlink:title="https://bo4e.github.io/BO4E-python/latest/api/bo4e.com.html#bo4e.com.lastprofil.Lastprofil" xlink:type="simple"><text fill="#0000FF" font-family="sans-serif" font-size="14" lengthAdjust="spacing" text-decoration="underline" textLength="61" x="743.5" y="288.0251">Lastprofil</text></a><text fill="#000000" font-family="sans-serif" font-size="10" lengthAdjust="spacing" textLength="92" x="728" y="300.6091">bo4e.com.lastprofil</text></g><!--class Abwicklungsmodell--><g id="elem_Abwicklungsmodell"><rect codeLine="20" fill="#F1F1F1" height="37.9375" id="Abwicklungsmodell" rx="2.5" ry="2.5" style="stroke:#181818;stroke-width:0.5;" width="179" x="671.5" y="383.03"/><ellipse cx="686.5" cy="401.9988" fill="#ADD1B2" rx="11" ry="11" style="stroke:#181818;stroke-width:1.0;"/><path d="M689.4688,407.6394 Q688.8906,407.9363 688.25,408.0769 Q687.6094,408.2331 686.9063,408.2331 Q684.4063,408.2331 683.0781,406.5925 Q681.7656,404.9363 681.7656,401.8113 Q681.7656,398.6863 683.0781,397.03 Q684.4063,395.3738 686.9063,395.3738 Q687.6094,395.3738 688.25,395.53 Q688.9063,395.6863 689.4688,395.9831 L689.4688,398.7019 Q688.8438,398.1238 688.25,397.8581 Q687.6563,397.5769 687.0313,397.5769 Q685.6875,397.5769 685,398.655 Q684.3125,399.7175 684.3125,401.8113 Q684.3125,403.905 685,404.9831 Q685.6875,406.0456 687.0313,406.0456 Q687.6563,406.0456 688.25,405.78 Q688.8438,405.4988 689.4688,404.9206 L689.4688,407.6394 Z " fill="#000000"/><a href="https://bo4e.github.io/BO4E-python/latest/api/bo4e.enum.html#bo4e.enum.abwicklungsmodell.Abwicklungsmodell" target="_top" title="https://bo4e.github.io/BO4E-python/latest/api/bo4e.enum.html#bo4e.enum.abwicklungsmodell.Abwicklungsmodell" xlink:actuate="onRequest" xlink:href="https://bo4e.github.io/BO4E-python/latest/api/bo4e.enum.html#bo4e.enum.abwicklungsmodell.Abwicklungsmodell" xlink:show="new" xlink:title="https://bo4e.github.io/BO4E-python/latest/api/bo4e.enum.html#bo4e.enum.abwicklungsmodell.Abwicklungsmodell" xlink:type="simple"><text fill="#0000FF" font-family="sans-serif" font-size="14" lengthAdjust="spacing" text-decoration="underline" textLength="132" x="708" y="401.0251">Abwicklungsmodell</text></a><text fill="#000000" font-family="sans-serif" font-size="10" lengthAdjust="spacing" textLength="147" x="700.5" y="413.6091">bo4e.enum.abwicklungsmodell</text></g><!--class Profiltyp--><g id="elem_Profiltyp"><rect codeLine="21" fill="#F1F1F1" height="37.9375" id="Profiltyp" rx="2.5" ry="2.5" style="stroke:#181818;stroke-width:0.5;" width="130" x="696" y="456.03"/><ellipse cx="711" cy="474.9988" fill="#ADD1B2" rx="11" ry="11" style="stroke:#181818;stroke-width:1.0;"/><path d="M713.9688,480.6394 Q713.3906,480.9363 712.75,481.0769 Q712.1094,481.2331 711.4063,481.2331 Q708.9063,481.2331 707.5781,479.5925 Q706.2656,477.9363 706.2656,474.8113 Q706.2656,471.6863 707.5781,470.03 Q708.9063,468.3738 711.4063,468.3738 Q712.1094,468.3738 712.75,468.53 Q713.4063,468.6863 713.9688,468.9831 L713.9688,471.7019 Q713.3438,471.1238 712.75,470.8581 Q712.1563,470.5769 711.5313,470.5769 Q710.1875,470.5769 709.5,471.655 Q708.8125,472.7175 708.8125,474.8113 Q708.8125,476.905 709.5,477.9831 Q710.1875,479.0456 711.5313,479.0456 Q712.1563,479.0456 712.75,478.78 Q713.3438,478.4988 713.9688,477.9206 L713.9688,480.6394 Z " fill="#000000"/><a href="https://bo4e.github.io/BO4E-python/latest/api/bo4e.enum.html#bo4e.enum.profiltyp.Profiltyp" target="_top" title="https://bo4e.github.io/BO4E-python/latest/api/bo4e.enum.html#bo4e.enum.profiltyp.Profiltyp" xlink:actuate="onRequest" xlink:href="https://bo4e.github.io/BO4E-python/latest/api/bo4e.enum.html#bo4e.enum.profiltyp.Profiltyp" xlink:show="new" xlink:title="https://bo4e.github.io/BO4E-python/latest/api/bo4e.enum.html#bo4e.enum.profiltyp.Profiltyp" xlink:type="simple"><text fill="#0000FF" font-family="sans-serif" font-size="14" lengthAdjust="spacing" text-decoration="underline" textLength="54" x="747" y="474.0251">Profiltyp</text></a><text fill="#000000" font-family="sans-serif" font-size="10" lengthAdjust="spacing" textLength="98" x="725" y="486.6091">bo4e.enum.profiltyp</text></g><!--class Zeitreihentyp--><g id="elem_Zeitreihentyp"><rect codeLine="22" fill="#F1F1F1" height="37.9375" id="Zeitreihentyp" rx="2.5" ry="2.5" style="stroke:#181818;stroke-width:0.5;" width="153" x="684.5" y="529.03"/><ellipse cx="699.5" cy="547.9988" fill="#ADD1B2" rx="11" ry="11" style="stroke:#181818;stroke-width:1.0;"/><path d="M702.4688,553.6394 Q701.8906,553.9363 701.25,554.0769 Q700.6094,554.2331 699.9063,554.2331 Q697.4063,554.2331 696.0781,552.5925 Q694.7656,550.9363 694.7656,547.8113 Q694.7656,544.6863 696.0781,543.03 Q697.4063,541.3738 699.9063,541.3738 Q700.6094,541.3738 701.25,541.53 Q701.9063,541.6863 702.4688,541.9831 L702.4688,544.7019 Q701.8438,544.1238 701.25,543.8581 Q700.6563,543.5769 700.0313,543.5769 Q698.6875,543.5769 698,544.655 Q697.3125,545.7175 697.3125,547.8113 Q697.3125,549.905 698,550.9831 Q698.6875,552.0456 700.0313,552.0456 Q700.6563,552.0456 701.25,551.78 Q701.8438,551.4988 702.4688,550.9206 L702.4688,553.6394 Z " fill="#000000"/><a href="https://bo4e.github.io/BO4E-python/latest/api/bo4e.enum.html#bo4e.enum.zeitreihentyp.Zeitreihentyp" target="_top" title="https://bo4e.github.io/BO4E-python/latest/api/bo4e.enum.html#bo4e.enum.zeitreihentyp.Zeitreihentyp" xlink:actuate="onRequest" xlink:href="https://bo4e.github.io/BO4E-python/latest/api/bo4e.enum.html#bo4e.enum.zeitreihentyp.Zeitreihentyp" xlink:show="new" xlink:title="https://bo4e.github.io/BO4E-python/latest/api/bo4e.enum.html#bo4e.enum.zeitreihentyp.Zeitreihentyp" xlink:type="simple"><text fill="#0000FF" font-family="sans-serif" font-size="14" lengthAdjust="spacing" text-decoration="underline" textLength="92" x="728" y="547.0251">Zeitreihentyp</text></a><text fill="#000000" font-family="sans-serif" font-size="10" lengthAdjust="spacing" textLength="121" x="713.5" y="559.6091">bo4e.enum.zeitreihentyp</text></g><!--class Aggregationsverantwortung--><g id="elem_Aggregationsverantwortung"><rect codeLine="23" fill="#F1F1F1" height="37.9375" id="Aggregationsverantwortung" rx="2.5" ry="2.5" style="stroke:#181818;stroke-width:0.5;" width="225" x="648.5" y="602.03"/><ellipse cx="663.5" cy="620.9988" fill="#ADD1B2" rx="11" ry="11" style="stroke:#181818;stroke-width:1.0;"/><path d="M666.4688,626.6394 Q665.8906,626.9363 665.25,627.0769 Q664.6094,627.2331 663.9063,627.2331 Q661.4063,627.2331 660.0781,625.5925 Q658.7656,623.9363 658.7656,620.8113 Q658.7656,617.6863 660.0781,616.03 Q661.4063,614.3738 663.9063,614.3738 Q664.6094,614.3738 665.25,614.53 Q665.9063,614.6863 666.4688,614.9831 L666.4688,617.7019 Q665.8438,617.1238 665.25,616.8581 Q664.6563,616.5769 664.0313,616.5769 Q662.6875,616.5769 662,617.655 Q661.3125,618.7175 661.3125,620.8113 Q661.3125,622.905 662,623.9831 Q662.6875,625.0456 664.0313,625.0456 Q664.6563,625.0456 665.25,624.78 Q665.8438,624.4988 666.4688,623.9206 L666.4688,626.6394 Z " fill="#000000"/><a href="https://bo4e.github.io/BO4E-python/latest/api/bo4e.enum.html#bo4e.enum.aggregationsverantwortung.Aggregationsverantwortung" target="_top" title="https://bo4e.github.io/BO4E-python/latest/api/bo4e.enum.html#bo4e.enum.aggregationsverantwortung.Aggregationsverantwortung" xlink:actuate="onRequest" xlink:href="https://bo4e.github.io/BO4E-python/latest/api/bo4e.enum.html#bo4e.enum.aggregationsverantwortung.Aggregationsverantwortung" xlink:show="new" xlink:title="https://bo4e.github.io/BO4E-python/latest/api/bo4e.enum.html#bo4e.enum.aggregationsverantwortung.Aggregationsverantwortung" xlink:type="simple"><text fill="#0000FF" font-family="sans-serif" font-size="14" lengthAdjust="spacing" text-decoration="underline" textLength="192" x="678" y="620.0251">Aggregationsverantwortung</text></a><text fill="#000000" font-family="sans-serif" font-size="10" lengthAdjust="spacing" textLength="193" x="677.5" y="632.6091">bo4e.enum.aggregationsverantwortung</text></g><!--class WahlrechtPrognosegrundlage--><g id="elem_WahlrechtPrognosegrundlage"><rect codeLine="24" fill="#F1F1F1" height="37.9375" id="WahlrechtPrognosegrundlage" rx="2.5" ry="2.5" style="stroke:#181818;stroke-width:0.5;" width="238" x="642" y="675.03"/><ellipse cx="657" cy="693.9988" fill="#ADD1B2" rx="11" ry="11" style="stroke:#181818;stroke-width:1.0;"/><path d="M659.9688,699.6394 Q659.3906,699.9363 658.75,700.0769 Q658.1094,700.2331 657.4063,700.2331 Q654.9063,700.2331 653.5781,698.5925 Q652.2656,696.9363 652.2656,693.8113 Q652.2656,690.6863 653.5781,689.03 Q654.9063,687.3738 657.4063,687.3738 Q658.1094,687.3738 658.75,687.53 Q659.4063,687.6863 659.9688,687.9831 L659.9688,690.7019 Q659.3438,690.1238 658.75,689.8581 Q658.1563,689.5769 657.5313,689.5769 Q656.1875,689.5769 655.5,690.655 Q654.8125,691.7175 654.8125,693.8113 Q654.8125,695.905 655.5,696.9831 Q656.1875,698.0456 657.5313,698.0456 Q658.1563,698.0456 658.75,697.78 Q659.3438,697.4988 659.9688,696.9206 L659.9688,699.6394 Z " fill="#000000"/><a href="https://bo4e.github.io/BO4E-python/latest/api/bo4e.enum.html#bo4e.enum.wahlrechtprognosegrundlage.WahlrechtPrognosegrundlage" target="_top" title="https://bo4e.github.io/BO4E-python/latest/api/bo4e.enum.html#bo4e.enum.wahlrechtprognosegrundlage.WahlrechtPrognosegrundlage" xlink:actuate="onRequest" xlink:href="https://bo4e.github.io/BO4E-python/latest/api/bo4e.enum.html#bo4e.enum.wahlrechtprognosegrundlage.WahlrechtPrognosegrundlage" xlink:show="new" xlink:title="https://bo4e.github.io/BO4E-python/latest/api/bo4e.enum.html#bo4e.enum.wahlrechtprognosegrundlage.WahlrechtPrognosegrundlage" xlink:type="simple"><text fill="#0000FF" font-family="sans-serif" font-size="14" lengthAdjust="spacing" text-decoration="underline" textLength="206" x="671" y="693.0251">WahlrechtPrognosegrundlage</text></a><text fill="#000000" font-family="sans-serif" font-size="10" lengthAdjust="spacing" textLength="198" x="675" y="705.6091">bo4e.enum.wahlrechtprognosegrundlage</text></g><!--class Fallgruppenzuordnung--><g id="elem_Fallgruppenzuordnung"><rect codeLine="25" fill="#F1F1F1" height="37.9375" id="Fallgruppenzuordnung" rx="2.5" ry="2.5" style="stroke:#181818;stroke-width:0.5;" width="195" x="663.5" y="748.03"/><ellipse cx="678.5" cy="766.9988" fill="#ADD1B2" rx="11" ry="11" style="stroke:#181818;stroke-width:1.0;"/><path d="M681.4688,772.6394 Q680.8906,772.9363 680.25,773.0769 Q679.6094,773.2331 678.9063,773.2331 Q676.4063,773.2331 675.0781,771.5925 Q673.7656,769.9363 673.7656,766.8113 Q673.7656,763.6863 675.0781,762.03 Q676.4063,760.3738 678.9063,760.3738 Q679.6094,760.3738 680.25,760.53 Q680.9063,760.6863 681.4688,760.9831 L681.4688,763.7019 Q680.8438,763.1238 680.25,762.8581 Q679.6563,762.5769 679.0313,762.5769 Q677.6875,762.5769 677,763.655 Q676.3125,764.7175 676.3125,766.8113 Q676.3125,768.905 677,769.9831 Q677.6875,771.0456 679.0313,771.0456 Q679.6563,771.0456 680.25,770.78 Q680.8438,770.4988 681.4688,769.9206 L681.4688,772.6394 Z " fill="#000000"/><a href="https://bo4e.github.io/BO4E-python/latest/api/bo4e.enum.html#bo4e.enum.fallgruppenzuordnung.Fallgruppenzuordnung" target="_top" title="https://bo4e.github.io/BO4E-python/latest/api/bo4e.enum.html#bo4e.enum.fallgruppenzuordnung.Fallgruppenzuordnung" xlink:actuate="onRequest" xlink:href="https://bo4e.github.io/BO4E-python/latest/api/bo4e.enum.html#bo4e.enum.fallgruppenzuordnung.Fallgruppenzuordnung" xlink:show="new" xlink:title="https://bo4e.github.io/BO4E-python/latest/api/bo4e.enum.html#bo4e.enum.fallgruppenzuordnung.Fallgruppenzuordnung" xlink:type="simple"><text fill="#0000FF" font-family="sans-serif" font-size="14" lengthAdjust="spacing" text-decoration="underline" textLength="157" x="695.5" y="766.0251">Fallgruppenzuordnung</text></a><text fill="#000000" font-family="sans-serif" font-size="10" lengthAdjust="spacing" textLength="163" x="692.5" y="778.6091">bo4e.enum.fallgruppenzuordnung</text></g><!--class Typ--><g id="elem_Typ"><rect codeLine="26" fill="#F1F1F1" height="37.9375" id="Typ" rx="2.5" ry="2.5" style="stroke:#181818;stroke-width:0.5;" width="106" x="708" y="821.03"/><ellipse cx="723" cy="839.9988" fill="#ADD1B2" rx="11" ry="11" style="stroke:#181818;stroke-width:1.0;"/><path d="M725.9688,845.6394 Q725.3906,845.9363 724.75,846.0769 Q724.1094,846.2331 723.4063,846.2331 Q720.9063,846.2331 719.5781,844.5925 Q718.2656,842.9363 718.2656,839.8113 Q718.2656,836.6863 719.5781,835.03 Q720.9063,833.3738 723.4063,833.3738 Q724.1094,833.3738 724.75,833.53 Q725.4063,833.6863 725.9688,833.9831 L725.9688,836.7019 Q725.3438,836.1238 724.75,835.8581 Q724.1563,835.5769 723.5313,835.5769 Q722.1875,835.5769 721.5,836.655 Q720.8125,837.7175 720.8125,839.8113 Q720.8125,841.905 721.5,842.9831 Q722.1875,844.0456 723.5313,844.0456 Q724.1563,844.0456 724.75,843.78 Q725.3438,843.4988 725.9688,842.9206 L725.9688,845.6394 Z " fill="#000000"/><a href="https://bo4e.github.io/BO4E-python/latest/api/bo4e.enum.html#bo4e.enum.typ.Typ" target="_top" title="https://bo4e.github.io/BO4E-python/latest/api/bo4e.enum.html#bo4e.enum.typ.Typ" xlink:actuate="onRequest" xlink:href="https://bo4e.github.io/BO4E-python/latest/api/bo4e.enum.html#bo4e.enum.typ.Typ" xlink:show="new" xlink:title="https://bo4e.github.io/BO4E-python/latest/api/bo4e.enum.html#bo4e.enum.typ.Typ" xlink:type="simple"><text fill="#0000FF" font-family="sans-serif" font-size="14" lengthAdjust="spacing" text-decoration="underline" textLength="25" x="761.5" y="839.0251">Typ</text></a><text fill="#000000" font-family="sans-serif" font-size="10" lengthAdjust="spacing" textLength="74" x="737" y="851.6091">bo4e.enum.typ</text></g><!--class Prognosegrundlage--><g id="elem_Prognosegrundlage"><rect codeLine="27" fill="#F1F1F1" height="37.9375" id="Prognosegrundlage" rx="2.5" ry="2.5" style="stroke:#181818;stroke-width:0.5;" width="183" x="669.5" y="894.03"/><ellipse cx="684.5" cy="912.9988" fill="#ADD1B2" rx="11" ry="11" style="stroke:#181818;stroke-width:1.0;"/><path d="M687.4688,918.6394 Q686.8906,918.9363 686.25,919.0769 Q685.6094,919.2331 684.9063,919.2331 Q682.4063,919.2331 681.0781,917.5925 Q679.7656,915.9363 679.7656,912.8113 Q679.7656,909.6863 681.0781,908.03 Q682.4063,906.3738 684.9063,906.3738 Q685.6094,906.3738 686.25,906.53 Q686.9063,906.6863 687.4688,906.9831 L687.4688,909.7019 Q686.8438,909.1238 686.25,908.8581 Q685.6563,908.5769 685.0313,908.5769 Q683.6875,908.5769 683,909.655 Q682.3125,910.7175 682.3125,912.8113 Q682.3125,914.905 683,915.9831 Q683.6875,917.0456 685.0313,917.0456 Q685.6563,917.0456 686.25,916.78 Q686.8438,916.4988 687.4688,915.9206 L687.4688,918.6394 Z " fill="#000000"/><a href="https://bo4e.github.io/BO4E-python/latest/api/bo4e.enum.html#bo4e.enum.prognosegrundlage.Prognosegrundlage" target="_top" title="https://bo4e.github.io/BO4E-python/latest/api/bo4e.enum.html#bo4e.enum.prognosegrundlage.Prognosegrundlage" xlink:actuate="onRequest" xlink:href="https://bo4e.github.io/BO4E-python/latest/api/bo4e.enum.html#bo4e.enum.prognosegrundlage.Prognosegrundlage" xlink:show="new" xlink:title="https://bo4e.github.io/BO4E-python/latest/api/bo4e.enum.html#bo4e.enum.prognosegrundlage.Prognosegrundlage" xlink:type="simple"><text fill="#0000FF" font-family="sans-serif" font-size="14" lengthAdjust="spacing" text-decoration="underline" textLength="137" x="705.5" y="912.0251">Prognosegrundlage</text></a><text fill="#000000" font-family="sans-serif" font-size="10" lengthAdjust="spacing" textLength="151" x="698.5" y="924.6091">bo4e.enum.prognosegrundlage</text></g><!--class Bilanzierung--><g id="elem_Bilanzierung"><rect codeLine="3" fill="#F1F1F1" height="143.7188" id="Bilanzierung" rx="2.5" ry="2.5" style="stroke:#181818;stroke-width:0.5;" width="323" x="7" y="434.14"/><ellipse cx="114.75" cy="453.1088" fill="#ADD1B2" rx="11" ry="11" style="stroke:#181818;stroke-width:1.0;"/><path d="M117.7188,458.7494 Q117.1406,459.0463 116.5,459.1869 Q115.8594,459.3431 115.1563,459.3431 Q112.6563,459.3431 111.3281,457.7025 Q110.0156,456.0463 110.0156,452.9213 Q110.0156,449.7963 111.3281,448.14 Q112.6563,446.4838 115.1563,446.4838 Q115.8594,446.4838 116.5,446.64 Q117.1563,446.7963 117.7188,447.0931 L117.7188,449.8119 Q117.0938,449.2338 116.5,448.9681 Q115.9063,448.6869 115.2813,448.6869 Q113.9375,448.6869 113.25,449.765 Q112.5625,450.8275 112.5625,452.9213 Q112.5625,455.015 113.25,456.0931 Q113.9375,457.1556 115.2813,457.1556 Q115.9063,457.1556 116.5,456.89 Q117.0938,456.6088 117.7188,456.0306 L117.7188,458.7494 Z " fill="#000000"/><a href="https://bo4e.github.io/BO4E-python/latest/api/bo4e.bo.html#bo4e.bo.bilanzierung.Bilanzierung" target="_top" title="https://bo4e.github.io/BO4E-python/latest/api/bo4e.bo.html#bo4e.bo.bilanzierung.Bilanzierung" xlink:actuate="onRequest" xlink:href="https://bo4e.github.io/BO4E-python/latest/api/bo4e.bo.html#bo4e.bo.bilanzierung.Bilanzierung" xlink:show="new" xlink:title="https://bo4e.github.io/BO4E-python/latest/api/bo4e.bo.html#bo4e.bo.bilanzierung.Bilanzierung" xlink:type="simple"><text fill="#0000FF" font-family="sans-serif" font-size="14" lengthAdjust="spacing" text-decoration="underline" textLength="85" x="142.25" y="452.1351">Bilanzierung</text></a><text fill="#000000" font-family="sans-serif" font-size="10" lengthAdjust="spacing" textLength="99" x="135.25" y="464.7191">bo4e.bo.bilanzierung</text><line style="stroke:#181818;stroke-width:0.5;" x1="8" x2="329" y1="472.0775" y2="472.0775"/><text fill="#000000" font-family="sans-serif" font-size="14" lengthAdjust="spacing" textLength="241" x="13" y="489.0726">marktlokationsId : str [0..1] = None</text><text fill="#000000" font-family="sans-serif" font-size="14" lengthAdjust="spacing" textLength="311" x="13" y="505.3695">bilanzierungsbeginn : datetime [0..1] = None</text><text fill="#000000" font-family="sans-serif" font-size="14" lengthAdjust="spacing" textLength="299" x="13" y="521.6664">bilanzierungsende : datetime [0..1] = None</text><text fill="#000000" font-family="sans-serif" font-size="14" lengthAdjust="spacing" textLength="201" x="13" y="537.9632">bilanzkreis : str [0..1] = None</text><text fill="#000000" font-family="sans-serif" font-size="14" lengthAdjust="spacing" textLength="310" x="13" y="554.2601">verbrauchsaufteilung : Decimal [0..1] = None</text><text fill="#000000" font-family="sans-serif" font-size="14" lengthAdjust="spacing" textLength="188" x="13" y="570.557">prioritaet : int [0..1] = None</text></g><!--link Bilanzierung to Geschaeftsobjekt--><g id="link_Bilanzierung_Geschaeftsobjekt"><path codeLine="30" d="M188.87,433.85 C214.27,354.18 266.91,228.64 360,164 C456.07,97.29 578.4006,90.6881 664.7606,94.8281 " fill="none" id="Bilanzierung-to-Geschaeftsobjekt" style="stroke:#181818;stroke-width:1.0;"/><polygon fill="none" points="682.74,95.69,665.048,88.835,664.4733,100.8212,682.74,95.69" style="stroke:#181818;stroke-width:1.0;"/></g><!--link Bilanzierung to Typ--><g id="link_Bilanzierung_Typ"><path codeLine="31" d="M190.64,578.29 C216.92,653.71 269.71,768.29 360,822 C469.33,887.04 614.9775,870.6157 695.8675,854.6357 " fill="none" id="Bilanzierung-to-Typ" style="stroke:#181818;stroke-width:1.0;"/><polygon fill="#181818" points="707.64,852.31,700.9785,849.5487,695.8675,854.6357,702.529,857.397,707.64,852.31" style="stroke:#181818;stroke-width:1.0;"/><text fill="#000000" font-family="sans-serif" font-size="13" lengthAdjust="spacing" textLength="27" x="459.5" y="818.0669">_typ</text><text fill="#000000" font-family="sans-serif" font-size="13" lengthAdjust="spacing" textLength="24" x="676.0828" y="866.6752">0..1</text></g><!--link Bilanzierung to Lastprofil--><g id="link_Bilanzierung_Lastprofil"><path codeLine="32" d="M287.07,433.77 C310.58,421.66 335.57,410.34 360,402 C456.26,369.15 488.46,394.82 586,366 C635.42,351.4 678.5338,331.4593 713.0238,313.8393 " fill="none" id="Bilanzierung-to-Lastprofil" style="stroke:#181818;stroke-width:1.0;"/><polygon fill="#181818" points="723.71,308.38,716.5471,307.5476,713.0238,313.8393,720.1866,314.6717,723.71,308.38" style="stroke:#181818;stroke-width:1.0;"/><text fill="#000000" font-family="sans-serif" font-size="13" lengthAdjust="spacing" textLength="54" x="446" y="362.0669">lastprofil</text><text fill="#000000" font-family="sans-serif" font-size="13" lengthAdjust="spacing" textLength="23" x="686.9878" y="328.0259">0..*</text></g><!--link Bilanzierung to Menge--><g id="link_Bilanzierung_Menge"><path codeLine="33" d="M197.2,433.77 C226.67,368.02 280.16,274.74 360,231 C468.79,171.4 608.5441,185.4163 690.3341,200.6963 " fill="none" id="Bilanzierung-to-Menge" style="stroke:#181818;stroke-width:1.0;"/><polygon fill="#181818" points="702.13,202.9,696.9666,197.8662,690.3341,200.6963,695.4975,205.7301,702.13,202.9" style="stroke:#181818;stroke-width:1.0;"/><text fill="#000000" font-family="sans-serif" font-size="13" lengthAdjust="spacing" textLength="170" x="388" y="185.0669">jahresverbrauchsprognose</text><text fill="#000000" font-family="sans-serif" font-size="13" lengthAdjust="spacing" textLength="24" x="670.3786" y="214.3618">0..1</text></g><!--link Bilanzierung to Menge--><g id="link_Bilanzierung_Menge"><path codeLine="34" d="M212.75,433.73 C246.41,384.25 297.8,321.71 360,288 C449.19,239.66 487.7,281.07 586,256 C589.68,255.06 590.36,254.08 594,253 C629.52,242.44 658.3501,235.7286 690.5001,229.1986 " fill="none" id="Bilanzierung-to-Menge-1" style="stroke:#181818;stroke-width:1.0;"/><polygon fill="#181818" points="702.26,226.81,695.5839,224.0843,690.5001,229.1986,697.1762,231.9242,702.26,226.81" style="stroke:#181818;stroke-width:1.0;"/><text fill="#000000" font-family="sans-serif" font-size="13" lengthAdjust="spacing" textLength="111" x="417.5" y="252.0669">temperaturArbeit</text><text fill="#000000" font-family="sans-serif" font-size="13" lengthAdjust="spacing" textLength="24" x="670.5228" y="240.887">0..1</text></g><!--link Bilanzierung to Menge--><g id="link_Bilanzierung_Menge"><path codeLine="35" d="M235.67,433.88 C269.62,401.42 313.57,365.8 360,345 C452.58,303.53 514.56,385.02 586,313 C604.95,293.9 575.82,272.83 594,253 C621.04,223.51 653.9716,215.3984 690.2716,213.7984 " fill="none" id="Bilanzierung-to-Menge-2" style="stroke:#181818;stroke-width:1.0;"/><polygon fill="#181818" points="702.26,213.27,696.0897,209.5381,690.2716,213.7984,696.442,217.5303,702.26,213.27" style="stroke:#181818;stroke-width:1.0;"/><text fill="#000000" font-family="sans-serif" font-size="13" lengthAdjust="spacing" textLength="74" x="436" y="309.0669">kundenwert</text><text fill="#000000" font-family="sans-serif" font-size="13" lengthAdjust="spacing" textLength="24" x="670.5228" y="225.866">0..1</text></g><!--link Bilanzierung to Zeitreihentyp--><g id="link_Bilanzierung_Zeitreihentyp"><path codeLine="36" d="M330.33,518.79 C340.37,519.55 350.32,520.29 360,521 C472.8,529.25 591.5953,537.1217 672.0653,542.3517 " fill="none" id="Bilanzierung-to-Zeitreihentyp" style="stroke:#181818;stroke-width:1.0;"/><polygon fill="#181818" points="684.04,543.13,678.3121,538.7493,672.0653,542.3517,677.7932,546.7324,684.04,543.13" style="stroke:#181818;stroke-width:1.0;"/><text fill="#000000" font-family="sans-serif" font-size="13" lengthAdjust="spacing" textLength="83" x="431.5" y="517.0669">zeitreihentyp</text><text fill="#000000" font-family="sans-serif" font-size="13" lengthAdjust="spacing" textLength="24" x="652.395" y="555.4287">0..1</text></g><!--link Bilanzierung to Aggregationsverantwortung--><g id="link_Bilanzierung_Aggregationsverantwortung"><path codeLine="37" d="M330.45,555.01 C340.41,557.52 350.32,559.87 360,562 C456.33,583.15 555.4989,597.4018 636.1189,607.2718 " fill="none" id="Bilanzierung-to-Aggregationsverantwortung" style="stroke:#181818;stroke-width:1.0;"/><polygon fill="#181818" points="648.03,608.73,642.5605,604.0305,636.1189,607.2718,641.5884,611.9712,648.03,608.73" style="stroke:#181818;stroke-width:1.0;"/><text fill="#000000" font-family="sans-serif" font-size="13" lengthAdjust="spacing" textLength="176" x="385" y="558.0669">aggregationsverantwortung</text><text fill="#000000" font-family="sans-serif" font-size="13" lengthAdjust="spacing" textLength="24" x="616.4146" y="620.5103">0..1</text></g><!--link Bilanzierung to Prognosegrundlage--><g id="link_Bilanzierung_Prognosegrundlage"><path codeLine="38" d="M182.19,578.04 C202.39,668.79 251.28,821.51 360,893 C452.95,954.12 574.1276,948.5887 660.8076,934.3987 " fill="none" id="Bilanzierung-to-Prognosegrundlage" style="stroke:#181818;stroke-width:1.0;"/><polygon fill="#181818" points="672.65,932.46,666.0826,929.4819,660.8076,934.3987,667.375,937.3768,672.65,932.46" style="stroke:#181818;stroke-width:1.0;"/><text fill="#000000" font-family="sans-serif" font-size="13" lengthAdjust="spacing" textLength="124" x="411" y="889.0669">prognosegrundlage</text><text fill="#000000" font-family="sans-serif" font-size="13" lengthAdjust="spacing" textLength="24" x="637.6742" y="947.483">0..1</text></g><!--link Bilanzierung to Profiltyp--><g id="link_Bilanzierung_Profiltyp"><path codeLine="39" d="M330.47,497.55 C450.67,491.24 596.6365,483.5797 683.6065,479.0097 " fill="none" id="Bilanzierung-to-Profiltyp" style="stroke:#181818;stroke-width:1.0;"/><polygon fill="#181818" points="695.59,478.38,689.3884,474.7004,683.6065,479.0097,689.8082,482.6893,695.59,478.38" style="stroke:#181818;stroke-width:1.0;"/><text fill="#000000" font-family="sans-serif" font-size="13" lengthAdjust="spacing" textLength="166" x="390" y="481.0669">detailsPrognosegrundlage</text><text fill="#000000" font-family="sans-serif" font-size="13" lengthAdjust="spacing" textLength="23" x="665.0192" y="491.5246">0..*</text></g><!--link Bilanzierung to WahlrechtPrognosegrundlage--><g id="link_Bilanzierung_WahlrechtPrognosegrundlage"><path codeLine="40" d="M268.99,578.22 C297.26,595.89 328.85,613.11 360,625 C451.02,659.74 548.4565,675.8184 629.8065,684.4184 " fill="none" id="Bilanzierung-to-WahlrechtPrognosegrundlage" style="stroke:#181818;stroke-width:1.0;"/><polygon fill="#181818" points="641.74,685.68,636.1938,681.0714,629.8065,684.4184,635.3527,689.0271,641.74,685.68" style="stroke:#181818;stroke-width:1.0;"/><text fill="#000000" font-family="sans-serif" font-size="13" lengthAdjust="spacing" textLength="185" x="380.5" y="621.0669">wahlrechtPrognosegrundlage</text><text fill="#000000" font-family="sans-serif" font-size="13" lengthAdjust="spacing" textLength="24" x="610.1515" y="697.7034">0..1</text></g><!--link Bilanzierung to WahlrechtPrognosegrundlage--><g id="link_Bilanzierung_WahlrechtPrognosegrundlage"><path codeLine="41" d="M215.74,577.99 C249.54,623.5 299.87,678.41 360,704 C466.42,749.29 591.8937,733.9883 674.8137,715.9683 " fill="none" id="Bilanzierung-to-WahlrechtPrognosegrundlage-1" style="stroke:#181818;stroke-width:1.0;"/><polygon fill="#181818" points="686.54,713.42,679.8274,710.7854,674.8137,715.9683,681.5263,718.6029,686.54,713.42" style="stroke:#181818;stroke-width:1.0;"/><text fill="#000000" font-family="sans-serif" font-size="13" lengthAdjust="spacing" textLength="224" x="361" y="700.0669">grundWahlrechtPrognosegrundlage</text><text fill="#000000" font-family="sans-serif" font-size="13" lengthAdjust="spacing" textLength="24" x="638.2231" y="733.0772">0..1</text></g><!--link Bilanzierung to Fallgruppenzuordnung--><g id="link_Bilanzierung_Fallgruppenzuordnung"><path codeLine="42" d="M201.53,578.17 C232.55,638.3 285.79,720.02 360,758 C456.77,807.52 572.8578,801.7376 657.6978,788.2976 " fill="none" id="Bilanzierung-to-Fallgruppenzuordnung" style="stroke:#181818;stroke-width:1.0;"/><polygon fill="#181818" points="669.55,786.42,662.998,783.4081,657.6978,788.2976,664.2498,791.3095,669.55,786.42" style="stroke:#181818;stroke-width:1.0;"/><text fill="#000000" font-family="sans-serif" font-size="13" lengthAdjust="spacing" textLength="139" x="403.5" y="754.0669">fallgruppenzuordnung</text><text fill="#000000" font-family="sans-serif" font-size="13" lengthAdjust="spacing" textLength="24" x="631.6489" y="802.1134">0..1</text></g><!--link Bilanzierung to Abwicklungsmodell--><g id="link_Bilanzierung_Abwicklungsmodell"><path codeLine="43" d="M330.37,466.04 C340.37,463.9 350.31,461.87 360,460 C466.28,439.51 577.8026,424.1377 659.1226,413.9777 " fill="none" id="Bilanzierung-to-Abwicklungsmodell" style="stroke:#181818;stroke-width:1.0;"/><polygon fill="#181818" points="671.03,412.49,664.5804,409.2647,659.1226,413.9777,665.5722,417.203,671.03,412.49" style="stroke:#181818;stroke-width:1.0;"/><text fill="#000000" font-family="sans-serif" font-size="13" lengthAdjust="spacing" textLength="119" x="413.5" y="421.0669">abwicklungsmodell</text><text fill="#000000" font-family="sans-serif" font-size="13" lengthAdjust="spacing" textLength="24" x="639.5416" y="425.883">0..1</text></g><!--SRC=[jLVTJzim47zU_efJ-uP42XfZADgGoc3Jf7tmW8GqLarESarC7JkotLMmxN-VdP8qNuQYXfV8Pz-TV_VXkml3kGOjGD8arH1JYP6cWdjUn8XICBgvIRNELJ2PXE88_OJgT1dwL4pElXzTxETtEXLymeX6fISafskkKFYfpjYu94BA2B-dA9SyySzg1DI9sUmdVwVeFGQ71wTzeYCWgY41VxnN6P4BpSI2MDZgSmm1A2tXvi3t3sVm7hu9ZjwhkXeLOa8vDuonmQrfXezo8u_nITw5HAhwh_wDCfHa6QMABESQARF00pZ7Y6Q4jRbpIOMacg0sF9Jhrla_p-CaGvMJ27SB3ZmGirdXrWSAncV7vs-d9zQpGsP0WYfAYSar9S9RN6Z_Ksi3sXkzsT1MKq1lInedxUgZI6Gr9ncgxYL3mlZYO7fo_65NDvNtZ2igGvwW_zL-eVXs_L2n5P0Afg5H66Kwbs9EcV-bMi9csGzg8rKWsx0F417aotf8B5cFYQLX71z6hz_idBlLLUCDIS8LZHRswQfCnCYOFstlG6UdwwL-NOKP7UdXZLW7Gz_b_cMvWchb05l9520hxk71tIFLfeYco2t07tKA6fG3Q4E-0DkGUe6KI1A9oRhjc1fFk5u9gMs7cxfEm7dYIXKN_pfbNAV36xiYAJEZGMeVTCA5miJqnfWHKwkkowFBzX6uZnpskgyf37Rh6zxYEM7CgCzpvFTB8MDk8_knPnFwDXtszIajBElJCRnDzcLTcVTqvNn5vTkvUeaNqysTRificodz2TBD2pCmDIVE_Vs_f-Mqqvb2Mho6UGz6TW0RRTfCuS40VjcYuc3V6rMJGhr_1h3fa4_TP4NNKq00joILg3PpP6dxStHep79J8lHIJcLe2kDpP1V6cSXNABVpJxDs1z2ep5jfS1VG09mbSIlDtOGBe9DAJuMrrFJGGis_0Mf2cRhSLb43qYFrCu2Lk-BjhBjON-zsGMz13A2lpcqN-SvKPIBUcOoyb9f_iWop4ANoL2fMq5G-fyXYzHy0]--></g></svg>