<svg xmlns="http://www.w3.org/2000/svg" xmlns:xlink="http://www.w3.org/1999/xlink" contentStyleType="text/css" data-diagram-type="CLASS" height="874px" preserveAspectRatio="none" style="width:893px;height:874px;background:#FFFFFF;" version="1.1" viewBox="0 0 893 874" width="893px" zoomAndPan="magnify"><?plantuml 1.2026.6?><defs/><g><!--cluster bo4e--><g class="cluster" data-qualified-name="bo4e" data-source-line="15" id="ent0004"><path d="M561.08,6 L600.956,6 A3.75,3.75 0 0 1 603.456,8.5 L610.456,28.2969 L875.93,28.2969 A2.5,2.5 0 0 1 878.43,30.7969 L878.43,856.5 A2.5,2.5 0 0 1 875.93,859 L561.08,859 A2.5,2.5 0 0 1 558.58,856.5 L558.58,8.5 A2.5,2.5 0 0 1 561.08,6" fill="none" style="stroke:#000000;stroke-width:1.5;"/><line style="stroke:#000000;stroke-width:1.5;" x1="558.58" x2="610.456" y1="28.2969" y2="28.2969"/><text fill="#000000" font-family="sans-serif" font-size="14" font-weight="700" lengthAdjust="spacing" textLength="38.876" x="562.58" y="20.9951">bo4e</text></g><!--cluster com--><g class="cluster" data-qualified-name="bo4e.com" data-source-line="14" id="ent0002"><path d="M653.5,49 L731.1992,49 A3.75,3.75 0 0 1 733.6992,51.5 L740.6992,71.2969 L783.52,71.2969 A2.5,2.5 0 0 1 786.02,73.7969 L786.02,208.5 A2.5,2.5 0 0 1 783.52,211 L653.5,211 A2.5,2.5 0 0 1 651,208.5 L651,51.5 A2.5,2.5 0 0 1 653.5,49" fill="#E0A86C" style="stroke:#000000;stroke-width:1.5;"/><line style="stroke:#000000;stroke-width:1.5;" x1="651" x2="740.6992" y1="71.2969" y2="71.2969"/><text fill="#000000" font-family="sans-serif" font-size="14" font-weight="700" lengthAdjust="spacing" textLength="76.6992" x="655" y="63.9951">bo4e.com</text></g><!--cluster enum--><g class="cluster" data-qualified-name="bo4e.enum" data-source-line="31" id="ent0006"><path d="M585.08,235 L674.2909,235 A3.75,3.75 0 0 1 676.7909,237.5 L683.7909,257.2969 L851.93,257.2969 A2.5,2.5 0 0 1 854.43,259.7969 L854.43,832.5 A2.5,2.5 0 0 1 851.93,835 L585.08,835 A2.5,2.5 0 0 1 582.58,832.5 L582.58,237.5 A2.5,2.5 0 0 1 585.08,235" fill="#D1C358" style="stroke:#000000;stroke-width:1.5;"/><line style="stroke:#000000;stroke-width:1.5;" x1="582.58" x2="683.7909" y1="257.2969" y2="257.2969"/><text fill="#000000" font-family="sans-serif" font-size="14" font-weight="700" lengthAdjust="spacing" textLength="88.2109" x="586.58" y="249.9951">bo4e.enum</text></g><!--class Lastprofil--><g class="entity" data-qualified-name="bo4e.com.Lastprofil" data-source-line="15" id="ent0003"><rect fill="#F1F1F1" height="37.9375" rx="2.5" ry="2.5" style="stroke:#181818;stroke-width:0.5;" width="103.0205" x="667" y="84.03"/><ellipse cx="682" cy="102.9987" fill="#ADD1B2" rx="11" ry="11" style="stroke:#181818;stroke-width:1;"/><path d="M684.9688,108.6394 Q684.3906,108.9362 683.75,109.0769 Q683.1094,109.2331 682.4063,109.2331 Q679.9063,109.2331 678.5781,107.5925 Q677.2656,105.9362 677.2656,102.8112 Q677.2656,99.6862 678.5781,98.03 Q679.9063,96.3737 682.4063,96.3737 Q683.1094,96.3737 683.75,96.53 Q684.4063,96.6862 684.9688,96.9831 L684.9688,99.7019 Q684.3438,99.1237 683.75,98.8581 Q683.1563,98.5769 682.5313,98.5769 Q681.1875,98.5769 680.5,99.655 Q679.8125,100.7175 679.8125,102.8112 Q679.8125,104.905 680.5,105.9831 Q681.1875,107.0456 682.5313,107.0456 Q683.1563,107.0456 683.75,106.78 Q684.3438,106.4987 684.9688,105.9206 L684.9688,108.6394 Z " fill="#000000"/><a href="https://bo4e.github.io/BO4E-python/latest/api/bo4e.com.html#module-bo4e.com.lastprofil" target="_top" title="https://bo4e.github.io/BO4E-python/latest/api/bo4e.com.html#module-bo4e.com.lastprofil" xlink:actuate="onRequest" xlink:href="https://bo4e.github.io/BO4E-python/latest/api/bo4e.com.html#module-bo4e.com.lastprofil" xlink:show="new" xlink:title="https://bo4e.github.io/BO4E-python/latest/api/bo4e.com.html#module-bo4e.com.lastprofil" xlink:type="simple"><text fill="#0000FF" font-family="sans-serif" font-size="14" lengthAdjust="spacing" text-decoration="underline" textLength="65.0781" x="698.9712" y="102.0251">Lastprofil</text></a><text fill="#000000" font-family="sans-serif" font-size="10" lengthAdjust="spacing" textLength="71.0205" x="696" y="114.6091">com.Lastprofil</text></g><!--class Menge--><g class="entity" data-qualified-name="bo4e.com.Menge" data-source-line="24" id="ent0005"><rect fill="#F1F1F1" height="37.9375" rx="2.5" ry="2.5" style="stroke:#181818;stroke-width:0.5;" width="90.1543" x="673.43" y="157.03"/><ellipse cx="688.43" cy="175.9987" fill="#ADD1B2" rx="11" ry="11" style="stroke:#181818;stroke-width:1;"/><path d="M691.3988,181.6394 Q690.8206,181.9362 690.18,182.0769 Q689.5394,182.2331 688.8363,182.2331 Q686.3363,182.2331 685.0081,180.5925 Q683.6956,178.9362 683.6956,175.8112 Q683.6956,172.6862 685.0081,171.03 Q686.3363,169.3737 688.8363,169.3737 Q689.5394,169.3737 690.18,169.53 Q690.8363,169.6862 691.3988,169.9831 L691.3988,172.7019 Q690.7738,172.1237 690.18,171.8581 Q689.5863,171.5769 688.9613,171.5769 Q687.6175,171.5769 686.93,172.655 Q686.2425,173.7175 686.2425,175.8112 Q686.2425,177.905 686.93,178.9831 Q687.6175,180.0456 688.9613,180.0456 Q689.5863,180.0456 690.18,179.78 Q690.7738,179.4987 691.3988,178.9206 L691.3988,181.6394 Z " fill="#000000"/><a href="https://bo4e.github.io/BO4E-python/latest/api/bo4e.com.html#module-bo4e.com.menge" target="_top" title="https://bo4e.github.io/BO4E-python/latest/api/bo4e.com.html#module-bo4e.com.menge" xlink:actuate="onRequest" xlink:href="https://bo4e.github.io/BO4E-python/latest/api/bo4e.com.html#module-bo4e.com.menge" xlink:show="new" xlink:title="https://bo4e.github.io/BO4E-python/latest/api/bo4e.com.html#module-bo4e.com.menge" xlink:type="simple"><text fill="#0000FF" font-family="sans-serif" font-size="14" lengthAdjust="spacing" text-decoration="underline" textLength="47.0654" x="707.9744" y="175.0251">Menge</text></a><text fill="#000000" font-family="sans-serif" font-size="10" lengthAdjust="spacing" textLength="58.1543" x="702.43" y="187.6091">com.Menge</text></g><!--class Abwicklungsmodell--><g class="entity" data-qualified-name="bo4e.enum.Abwicklungsmodell" data-source-line="32" id="ent0007"><rect fill="#F1F1F1" height="37.9375" rx="2.5" ry="2.5" style="stroke:#181818;stroke-width:0.5;" width="166.9072" x="635.05" y="270.03"/><ellipse cx="650.05" cy="288.9988" fill="#ADD1B2" rx="11" ry="11" style="stroke:#181818;stroke-width:1;"/><path d="M653.0188,294.6394 Q652.4406,294.9363 651.8,295.0769 Q651.1594,295.2331 650.4563,295.2331 Q647.9563,295.2331 646.6281,293.5925 Q645.3156,291.9363 645.3156,288.8113 Q645.3156,285.6863 646.6281,284.03 Q647.9563,282.3738 650.4563,282.3738 Q651.1594,282.3738 651.8,282.53 Q652.4563,282.6863 653.0188,282.9831 L653.0188,285.7019 Q652.3938,285.1238 651.8,284.8581 Q651.2063,284.5769 650.5813,284.5769 Q649.2375,284.5769 648.55,285.655 Q647.8625,286.7175 647.8625,288.8113 Q647.8625,290.905 648.55,291.9831 Q649.2375,293.0456 650.5813,293.0456 Q651.2063,293.0456 651.8,292.78 Q652.3938,292.4988 653.0188,291.9206 L653.0188,294.6394 Z " fill="#000000"/><a href="https://bo4e.github.io/BO4E-python/latest/api/bo4e.enum.html#module-bo4e.enum.abwicklungsmodell" target="_top" title="https://bo4e.github.io/BO4E-python/latest/api/bo4e.enum.html#module-bo4e.enum.abwicklungsmodell" xlink:actuate="onRequest" xlink:href="https://bo4e.github.io/BO4E-python/latest/api/bo4e.enum.html#module-bo4e.enum.abwicklungsmodell" xlink:show="new" xlink:title="https://bo4e.github.io/BO4E-python/latest/api/bo4e.enum.html#module-bo4e.enum.abwicklungsmodell" xlink:type="simple"><text fill="#0000FF" font-family="sans-serif" font-size="14" lengthAdjust="spacing" text-decoration="underline" textLength="134.9072" x="664.05" y="288.0251">Abwicklungsmodell</text></a><text fill="#000000" font-family="sans-serif" font-size="10" lengthAdjust="spacing" textLength="128.1104" x="667.4484" y="300.6091">enum.Abwicklungsmodell</text></g><!--class Aggregationsverantwortung--><g class="entity" data-qualified-name="bo4e.enum.Aggregationsverantwortung" data-source-line="34" id="ent0008"><rect fill="#F1F1F1" height="37.9375" rx="2.5" ry="2.5" style="stroke:#181818;stroke-width:0.5;" width="228.7861" x="604.11" y="343.03"/><ellipse cx="619.11" cy="361.9988" fill="#ADD1B2" rx="11" ry="11" style="stroke:#181818;stroke-width:1;"/><path d="M622.0788,367.6394 Q621.5006,367.9363 620.86,368.0769 Q620.2194,368.2331 619.5163,368.2331 Q617.0163,368.2331 615.6881,366.5925 Q614.3756,364.9363 614.3756,361.8113 Q614.3756,358.6863 615.6881,357.03 Q617.0163,355.3738 619.5163,355.3738 Q620.2194,355.3738 620.86,355.53 Q621.5163,355.6863 622.0788,355.9831 L622.0788,358.7019 Q621.4538,358.1238 620.86,357.8581 Q620.2663,357.5769 619.6413,357.5769 Q618.2975,357.5769 617.61,358.655 Q616.9225,359.7175 616.9225,361.8113 Q616.9225,363.905 617.61,364.9831 Q618.2975,366.0456 619.6413,366.0456 Q620.2663,366.0456 620.86,365.78 Q621.4538,365.4988 622.0788,364.9206 L622.0788,367.6394 Z " fill="#000000"/><a href="https://bo4e.github.io/BO4E-python/latest/api/bo4e.enum.html#module-bo4e.enum.aggregationsverantwortung" target="_top" title="https://bo4e.github.io/BO4E-python/latest/api/bo4e.enum.html#module-bo4e.enum.aggregationsverantwortung" xlink:actuate="onRequest" xlink:href="https://bo4e.github.io/BO4E-python/latest/api/bo4e.enum.html#module-bo4e.enum.aggregationsverantwortung" xlink:show="new" xlink:title="https://bo4e.github.io/BO4E-python/latest/api/bo4e.enum.html#module-bo4e.enum.aggregationsverantwortung" xlink:type="simple"><text fill="#0000FF" font-family="sans-serif" font-size="14" lengthAdjust="spacing" text-decoration="underline" textLength="196.7861" x="633.11" y="361.0251">Aggregationsverantwortung</text></a><text fill="#000000" font-family="sans-serif" font-size="10" lengthAdjust="spacing" textLength="172.3096" x="645.3483" y="373.6091">enum.Aggregationsverantwortung</text></g><!--class BoTyp--><g class="entity" data-qualified-name="bo4e.enum.BoTyp" data-source-line="36" id="ent0009"><rect fill="#F1F1F1" height="37.9375" rx="2.5" ry="2.5" style="stroke:#181818;stroke-width:0.5;" width="95.1006" x="670.96" y="416.03"/><ellipse cx="685.96" cy="434.9988" fill="#ADD1B2" rx="11" ry="11" style="stroke:#181818;stroke-width:1;"/><path d="M688.9288,440.6394 Q688.3506,440.9363 687.71,441.0769 Q687.0694,441.2331 686.3663,441.2331 Q683.8663,441.2331 682.5381,439.5925 Q681.2256,437.9363 681.2256,434.8113 Q681.2256,431.6863 682.5381,430.03 Q683.8663,428.3738 686.3663,428.3738 Q687.0694,428.3738 687.71,428.53 Q688.3663,428.6863 688.9288,428.9831 L688.9288,431.7019 Q688.3038,431.1238 687.71,430.8581 Q687.1163,430.5769 686.4913,430.5769 Q685.1475,430.5769 684.46,431.655 Q683.7725,432.7175 683.7725,434.8113 Q683.7725,436.905 684.46,437.9831 Q685.1475,439.0456 686.4913,439.0456 Q687.1163,439.0456 687.71,438.78 Q688.3038,438.4988 688.9288,437.9206 L688.9288,440.6394 Z " fill="#000000"/><a href="https://bo4e.github.io/BO4E-python/latest/api/bo4e.enum.html#module-bo4e.enum.botyp" target="_top" title="https://bo4e.github.io/BO4E-python/latest/api/bo4e.enum.html#module-bo4e.enum.botyp" xlink:actuate="onRequest" xlink:href="https://bo4e.github.io/BO4E-python/latest/api/bo4e.enum.html#module-bo4e.enum.botyp" xlink:show="new" xlink:title="https://bo4e.github.io/BO4E-python/latest/api/bo4e.enum.html#module-bo4e.enum.botyp" xlink:type="simple"><text fill="#0000FF" font-family="sans-serif" font-size="14" lengthAdjust="spacing" text-decoration="underline" textLength="43.8936" x="709.5635" y="434.0251">BoTyp</text></a><text fill="#000000" font-family="sans-serif" font-size="10" lengthAdjust="spacing" textLength="63.1006" x="699.96" y="446.6091">enum.BoTyp</text></g><!--class Fallgruppenzuordnung--><g class="entity" data-qualified-name="bo4e.enum.Fallgruppenzuordnung" data-source-line="38" id="ent0010"><rect fill="#F1F1F1" height="37.9375" rx="2.5" ry="2.5" style="stroke:#181818;stroke-width:0.5;" width="190.1221" x="623.44" y="489.03"/><ellipse cx="638.44" cy="507.9988" fill="#ADD1B2" rx="11" ry="11" style="stroke:#181818;stroke-width:1;"/><path d="M641.4088,513.6394 Q640.8306,513.9363 640.19,514.0769 Q639.5494,514.2331 638.8463,514.2331 Q636.3463,514.2331 635.0181,512.5925 Q633.7056,510.9363 633.7056,507.8113 Q633.7056,504.6863 635.0181,503.03 Q636.3463,501.3738 638.8463,501.3738 Q639.5494,501.3738 640.19,501.53 Q640.8463,501.6863 641.4088,501.9831 L641.4088,504.7019 Q640.7838,504.1238 640.19,503.8581 Q639.5963,503.5769 638.9713,503.5769 Q637.6275,503.5769 636.94,504.655 Q636.2525,505.7175 636.2525,507.8113 Q636.2525,509.905 636.94,510.9831 Q637.6275,512.0456 638.9713,512.0456 Q639.5963,512.0456 640.19,511.78 Q640.7838,511.4988 641.4088,510.9206 L641.4088,513.6394 Z " fill="#000000"/><a href="https://bo4e.github.io/BO4E-python/latest/api/bo4e.enum.html#module-bo4e.enum.fallgruppenzuordnung" target="_top" title="https://bo4e.github.io/BO4E-python/latest/api/bo4e.enum.html#module-bo4e.enum.fallgruppenzuordnung" xlink:actuate="onRequest" xlink:href="https://bo4e.github.io/BO4E-python/latest/api/bo4e.enum.html#module-bo4e.enum.fallgruppenzuordnung" xlink:show="new" xlink:title="https://bo4e.github.io/BO4E-python/latest/api/bo4e.enum.html#module-bo4e.enum.fallgruppenzuordnung" xlink:type="simple"><text fill="#0000FF" font-family="sans-serif" font-size="14" lengthAdjust="spacing" text-decoration="underline" textLength="158.1221" x="652.44" y="507.0251">Fallgruppenzuordnung</text></a><text fill="#000000" font-family="sans-serif" font-size="10" lengthAdjust="spacing" textLength="144.6924" x="659.1548" y="519.6091">enum.Fallgruppenzuordnung</text></g><!--class Profiltyp--><g class="entity" data-qualified-name="bo4e.enum.Profiltyp" data-source-line="40" id="ent0011"><rect fill="#F1F1F1" height="37.9375" rx="2.5" ry="2.5" style="stroke:#181818;stroke-width:0.5;" width="105.2715" x="665.87" y="562.03"/><ellipse cx="680.87" cy="580.9988" fill="#ADD1B2" rx="11" ry="11" style="stroke:#181818;stroke-width:1;"/><path d="M683.8388,586.6394 Q683.2606,586.9363 682.62,587.0769 Q681.9794,587.2331 681.2763,587.2331 Q678.7763,587.2331 677.4481,585.5925 Q676.1356,583.9363 676.1356,580.8113 Q676.1356,577.6863 677.4481,576.03 Q678.7763,574.3738 681.2763,574.3738 Q681.9794,574.3738 682.62,574.53 Q683.2763,574.6863 683.8388,574.9831 L683.8388,577.7019 Q683.2138,577.1238 682.62,576.8581 Q682.0263,576.5769 681.4013,576.5769 Q680.0575,576.5769 679.37,577.655 Q678.6825,578.7175 678.6825,580.8113 Q678.6825,582.905 679.37,583.9831 Q680.0575,585.0456 681.4013,585.0456 Q682.0263,585.0456 682.62,584.78 Q683.2138,584.4988 683.8388,583.9206 L683.8388,586.6394 Z " fill="#000000"/><a href="https://bo4e.github.io/BO4E-python/latest/api/bo4e.enum.html#module-bo4e.enum.profiltyp" target="_top" title="https://bo4e.github.io/BO4E-python/latest/api/bo4e.enum.html#module-bo4e.enum.profiltyp" xlink:actuate="onRequest" xlink:href="https://bo4e.github.io/BO4E-python/latest/api/bo4e.enum.html#module-bo4e.enum.profiltyp" xlink:show="new" xlink:title="https://bo4e.github.io/BO4E-python/latest/api/bo4e.enum.html#module-bo4e.enum.profiltyp" xlink:type="simple"><text fill="#0000FF" font-family="sans-serif" font-size="14" lengthAdjust="spacing" text-decoration="underline" textLength="58.1328" x="702.4393" y="580.0251">Profiltyp</text></a><text fill="#000000" font-family="sans-serif" font-size="10" lengthAdjust="spacing" textLength="73.2715" x="694.87" y="592.6091">enum.Profiltyp</text></g><!--class Prognosegrundlage--><g class="entity" data-qualified-name="bo4e.enum.Prognosegrundlage" data-source-line="42" id="ent0012"><rect fill="#F1F1F1" height="37.9375" rx="2.5" ry="2.5" style="stroke:#181818;stroke-width:0.5;" width="168.2402" x="634.39" y="635.03"/><ellipse cx="649.39" cy="653.9988" fill="#ADD1B2" rx="11" ry="11" style="stroke:#181818;stroke-width:1;"/><path d="M652.3588,659.6394 Q651.7806,659.9363 651.14,660.0769 Q650.4994,660.2331 649.7963,660.2331 Q647.2963,660.2331 645.9681,658.5925 Q644.6556,656.9363 644.6556,653.8113 Q644.6556,650.6863 645.9681,649.03 Q647.2963,647.3738 649.7963,647.3738 Q650.4994,647.3738 651.14,647.53 Q651.7963,647.6863 652.3588,647.9831 L652.3588,650.7019 Q651.7338,650.1238 651.14,649.8581 Q650.5463,649.5769 649.9213,649.5769 Q648.5775,649.5769 647.89,650.655 Q647.2025,651.7175 647.2025,653.8113 Q647.2025,655.905 647.89,656.9831 Q648.5775,658.0456 649.9213,658.0456 Q650.5463,658.0456 651.14,657.78 Q651.7338,657.4988 652.3588,656.9206 L652.3588,659.6394 Z " fill="#000000"/><a href="https://bo4e.github.io/BO4E-python/latest/api/bo4e.enum.html#module-bo4e.enum.prognosegrundlage" target="_top" title="https://bo4e.github.io/BO4E-python/latest/api/bo4e.enum.html#module-bo4e.enum.prognosegrundlage" xlink:actuate="onRequest" xlink:href="https://bo4e.github.io/BO4E-python/latest/api/bo4e.enum.html#module-bo4e.enum.prognosegrundlage" xlink:show="new" xlink:title="https://bo4e.github.io/BO4E-python/latest/api/bo4e.enum.html#module-bo4e.enum.prognosegrundlage" xlink:type="simple"><text fill="#0000FF" font-family="sans-serif" font-size="14" lengthAdjust="spacing" text-decoration="underline" textLength="136.2402" x="663.39" y="653.0251">Prognosegrundlage</text></a><text fill="#000000" font-family="sans-serif" font-size="10" lengthAdjust="spacing" textLength="129.0625" x="666.9789" y="665.6091">enum.Prognosegrundlage</text></g><!--class WahlrechtPrognosegrundlage--><g class="entity" data-qualified-name="bo4e.enum.WahlrechtPrognosegrundlage" data-source-line="44" id="ent0013"><rect fill="#F1F1F1" height="37.9375" rx="2.5" ry="2.5" style="stroke:#181818;stroke-width:0.5;" width="239.8535" x="598.58" y="708.03"/><ellipse cx="613.58" cy="726.9988" fill="#ADD1B2" rx="11" ry="11" style="stroke:#181818;stroke-width:1;"/><path d="M616.5488,732.6394 Q615.9706,732.9363 615.33,733.0769 Q614.6894,733.2331 613.9863,733.2331 Q611.4863,733.2331 610.1581,731.5925 Q608.8456,729.9363 608.8456,726.8113 Q608.8456,723.6863 610.1581,722.03 Q611.4863,720.3738 613.9863,720.3738 Q614.6894,720.3738 615.33,720.53 Q615.9863,720.6863 616.5488,720.9831 L616.5488,723.7019 Q615.9238,723.1238 615.33,722.8581 Q614.7363,722.5769 614.1113,722.5769 Q612.7675,722.5769 612.08,723.655 Q611.3925,724.7175 611.3925,726.8113 Q611.3925,728.905 612.08,729.9831 Q612.7675,731.0456 614.1113,731.0456 Q614.7363,731.0456 615.33,730.78 Q615.9238,730.4988 616.5488,729.9206 L616.5488,732.6394 Z " fill="#000000"/><a href="https://bo4e.github.io/BO4E-python/latest/api/bo4e.enum.html#module-bo4e.enum.wahlrechtprognosegrundlage" target="_top" title="https://bo4e.github.io/BO4E-python/latest/api/bo4e.enum.html#module-bo4e.enum.wahlrechtprognosegrundlage" xlink:actuate="onRequest" xlink:href="https://bo4e.github.io/BO4E-python/latest/api/bo4e.enum.html#module-bo4e.enum.wahlrechtprognosegrundlage" xlink:show="new" xlink:title="https://bo4e.github.io/BO4E-python/latest/api/bo4e.enum.html#module-bo4e.enum.wahlrechtprognosegrundlage" xlink:type="simple"><text fill="#0000FF" font-family="sans-serif" font-size="14" lengthAdjust="spacing" text-decoration="underline" textLength="207.8535" x="627.58" y="726.0251">WahlrechtPrognosegrundlage</text></a><text fill="#000000" font-family="sans-serif" font-size="10" lengthAdjust="spacing" textLength="180.2148" x="641.3993" y="738.6091">enum.WahlrechtPrognosegrundlage</text></g><!--class Zeitreihentyp--><g class="entity" data-qualified-name="bo4e.enum.Zeitreihentyp" data-source-line="46" id="ent0014"><rect fill="#F1F1F1" height="37.9375" rx="2.5" ry="2.5" style="stroke:#181818;stroke-width:0.5;" width="131.5068" x="652.75" y="781.03"/><ellipse cx="667.75" cy="799.9988" fill="#ADD1B2" rx="11" ry="11" style="stroke:#181818;stroke-width:1;"/><path d="M670.7188,805.6394 Q670.1406,805.9363 669.5,806.0769 Q668.8594,806.2331 668.1563,806.2331 Q665.6563,806.2331 664.3281,804.5925 Q663.0156,802.9363 663.0156,799.8113 Q663.0156,796.6863 664.3281,795.03 Q665.6563,793.3738 668.1563,793.3738 Q668.8594,793.3738 669.5,793.53 Q670.1563,793.6863 670.7188,793.9831 L670.7188,796.7019 Q670.0938,796.1238 669.5,795.8581 Q668.9063,795.5769 668.2813,795.5769 Q666.9375,795.5769 666.25,796.655 Q665.5625,797.7175 665.5625,799.8113 Q665.5625,801.905 666.25,802.9831 Q666.9375,804.0456 668.2813,804.0456 Q668.9063,804.0456 669.5,803.78 Q670.0938,803.4988 670.7188,802.9206 L670.7188,805.6394 Z " fill="#000000"/><a href="https://bo4e.github.io/BO4E-python/latest/api/bo4e.enum.html#module-bo4e.enum.zeitreihentyp" target="_top" title="https://bo4e.github.io/BO4E-python/latest/api/bo4e.enum.html#module-bo4e.enum.zeitreihentyp" xlink:actuate="onRequest" xlink:href="https://bo4e.github.io/BO4E-python/latest/api/bo4e.enum.html#module-bo4e.enum.zeitreihentyp" xlink:show="new" xlink:title="https://bo4e.github.io/BO4E-python/latest/api/bo4e.enum.html#module-bo4e.enum.zeitreihentyp" xlink:type="simple"><text fill="#0000FF" font-family="sans-serif" font-size="14" lengthAdjust="spacing" text-decoration="underline" textLength="94.8623" x="684.0723" y="799.0251">Zeitreihentyp</text></a><text fill="#000000" font-family="sans-serif" font-size="10" lengthAdjust="spacing" textLength="99.5068" x="681.75" y="811.6091">enum.Zeitreihentyp</text></g><!--class Bilanzierung--><g class="entity" data-qualified-name="Bilanzierung" data-source-line="3" id="ent0001"><rect fill="#F1F1F1" height="176.3125" rx="2.5" ry="2.5" style="stroke:#181818;stroke-width:0.5;" width="272.5791" x="7" y="356.84"/><ellipse cx="95.5015" cy="375.8088" fill="#ADD1B2" rx="11" ry="11" style="stroke:#181818;stroke-width:1;"/><path d="M98.4702,381.4494 Q97.8921,381.7463 97.2515,381.8869 Q96.6108,382.0431 95.9077,382.0431 Q93.4077,382.0431 92.0796,380.4025 Q90.7671,378.7463 90.7671,375.6213 Q90.7671,372.4963 92.0796,370.84 Q93.4077,369.1838 95.9077,369.1838 Q96.6108,369.1838 97.2515,369.34 Q97.9077,369.4963 98.4702,369.7931 L98.4702,372.5119 Q97.8452,371.9338 97.2515,371.6681 Q96.6577,371.3869 96.0327,371.3869 Q94.689,371.3869 94.0015,372.465 Q93.314,373.5275 93.314,375.6213 Q93.314,377.715 94.0015,378.7931 Q94.689,379.8556 96.0327,379.8556 Q96.6577,379.8556 97.2515,379.59 Q97.8452,379.3088 98.4702,378.7306 L98.4702,381.4494 Z " fill="#000000"/><a href="https://bo4e.github.io/BO4E-python/latest/api/bo4e.bo.html#module-bo4e.bo.bilanzierung" target="_top" title="https://bo4e.github.io/BO4E-python/latest/api/bo4e.bo.html#module-bo4e.bo.bilanzierung" xlink:actuate="onRequest" xlink:href="https://bo4e.github.io/BO4E-python/latest/api/bo4e.bo.html#module-bo4e.bo.bilanzierung" xlink:show="new" xlink:title="https://bo4e.github.io/BO4E-python/latest/api/bo4e.bo.html#module-bo4e.bo.bilanzierung" xlink:type="simple"><text fill="#0000FF" font-family="sans-serif" font-size="14" lengthAdjust="spacing" text-decoration="underline" textLength="87.0762" x="116.0015" y="374.8351">Bilanzierung</text></a><text fill="#000000" font-family="sans-serif" font-size="10" lengthAdjust="spacing" textLength="77.8418" x="120.6187" y="387.4191">bo.Bilanzierung</text><line style="stroke:#181818;stroke-width:0.5;" x1="8" x2="278.5791" y1="394.7775" y2="394.7775"/><text fill="#000000" font-family="sans-serif" font-size="14" lengthAdjust="spacing" textLength="94.0215" x="13" y="411.7726">_id : str [0..1]</text><text fill="#000000" font-family="sans-serif" font-size="14" lengthAdjust="spacing" textLength="132.5215" x="13" y="428.0695">_version : str [0..1]</text><text fill="#000000" font-family="sans-serif" font-size="14" lengthAdjust="spacing" textLength="260.5791" x="13" y="444.3664">bilanzierungsbeginn : datetime [0..1]</text><text fill="#000000" font-family="sans-serif" font-size="14" lengthAdjust="spacing" textLength="247.543" x="13" y="460.6632">bilanzierungsende : datetime [0..1]</text><text fill="#000000" font-family="sans-serif" font-size="14" lengthAdjust="spacing" textLength="149.3721" x="13" y="476.9601">bilanzkreis : str [0..1]</text><text fill="#000000" font-family="sans-serif" font-size="14" lengthAdjust="spacing" textLength="192.083" x="13" y="493.257">marktlokationsId : str [0..1]</text><text fill="#000000" font-family="sans-serif" font-size="14" lengthAdjust="spacing" textLength="138.8721" x="13" y="509.5539">prioritaet : int [0..1]</text><text fill="#000000" font-family="sans-serif" font-size="14" lengthAdjust="spacing" textLength="236.667" x="13" y="525.8507">verbrauchsaufteilung : float [0..1]</text></g><!--link Bilanzierung to Lastprofil--><g class="link" data-entity-1="ent0001" data-entity-2="ent0003" data-link-type="composition" data-source-line="50" id="lnk15"><path codeLine="50" d="M168.53,356.5 C192.45,287.17 236.29,194.59 309.58,146 C419.68,73.01 572.5186,81.6089 654.8886,92.7689" fill="none" id="Bilanzierung-to-Lastprofil" style="stroke:#181818;stroke-width:1;"/><polygon fill="#181818" points="666.78,94.38,661.3714,89.6107,654.8886,92.7689,660.2973,97.5382,666.78,94.38" style="stroke:#181818;stroke-width:1;stroke-linejoin:miter;stroke-miterlimit:10;"/><text fill="#000000" font-family="sans-serif" font-size="13" lengthAdjust="spacing" textLength="56.7988" x="398.08" y="82.7169">lastprofil</text><text fill="#000000" font-family="sans-serif" font-size="13" lengthAdjust="spacing" textLength="23.0356" x="636.076" y="106.3186">0..*</text></g><!--link Bilanzierung to Menge--><g class="link" data-entity-1="ent0001" data-entity-2="ent0005" data-link-type="composition" data-source-line="51" id="lnk16"><path codeLine="51" d="M179.11,356.35 C205.92,300.9 248.77,233.63 309.58,199 C370.52,164.29 568.7321,168.9409 661.2321,173.1009" fill="none" id="Bilanzierung-to-Menge" style="stroke:#181818;stroke-width:1;"/><polygon fill="#181818" points="673.22,173.64,667.4058,169.3745,661.2321,173.1009,667.0463,177.3664,673.22,173.64" style="stroke:#181818;stroke-width:1;stroke-linejoin:miter;stroke-miterlimit:10;"/><text fill="#000000" font-family="sans-serif" font-size="13" lengthAdjust="spacing" textLength="173.6973" x="339.58" y="166.7569">jahresverbrauchsprognose</text><text fill="#000000" font-family="sans-serif" font-size="13" lengthAdjust="spacing" textLength="24.8066" x="640.5097" y="169.2074">0..1</text></g><!--link Bilanzierung to Menge--><g class="link" data-entity-1="ent0001" data-entity-2="ent0005" data-link-type="composition" data-source-line="52" id="lnk17"><path codeLine="52" d="M200.06,356.82 C228.27,319.64 265.84,279.58 309.58,256 C401.59,206.41 440.18,244.99 542.58,224 C587.47,214.8 626.3501,204.0114 661.4701,193.4314" fill="none" id="Bilanzierung-to-Menge-1" style="stroke:#181818;stroke-width:1;"/><polygon fill="#181818" points="672.96,189.97,666.0612,187.8707,661.4701,193.4314,668.3688,195.5307,672.96,189.97" style="stroke:#181818;stroke-width:1;stroke-linejoin:miter;stroke-miterlimit:10;"/><text fill="#000000" font-family="sans-serif" font-size="13" lengthAdjust="spacing" textLength="77.5684" x="387.58" y="220.0669">kundenwert</text><text fill="#000000" font-family="sans-serif" font-size="13" lengthAdjust="spacing" textLength="24.8066" x="640.567" y="205.2002">0..1</text></g><!--link Bilanzierung to Menge--><g class="link" data-entity-1="ent0001" data-entity-2="ent0005" data-link-type="composition" data-source-line="53" id="lnk18"><path codeLine="53" d="M237.37,356.63 C259.6,339.68 284.27,323.86 309.58,313 C405.64,271.8 463.28,349.1 542.58,281 C552.07,272.85 542.41,263.48 550.58,254 C582.3,217.15 623.65,199.8154 661.4,189.1754" fill="none" id="Bilanzierung-to-Menge-2" style="stroke:#181818;stroke-width:1;"/><polygon fill="#181818" points="672.95,185.92,666.0899,183.6977,661.4,189.1754,668.2601,191.3977,672.95,185.92" style="stroke:#181818;stroke-width:1;stroke-linejoin:miter;stroke-miterlimit:10;"/><text fill="#000000" font-family="sans-serif" font-size="13" lengthAdjust="spacing" textLength="113.1978" x="369.58" y="277.0669">temperaturArbeit</text><text fill="#000000" font-family="sans-serif" font-size="13" lengthAdjust="spacing" textLength="24.8066" x="640.5555" y="183.3523">0..1</text></g><!--link Bilanzierung to Abwicklungsmodell--><g class="link" data-entity-1="ent0001" data-entity-2="ent0007" data-link-type="composition" data-source-line="54" id="lnk19"><path codeLine="54" d="M279.82,380.01 C289.78,376.32 299.76,372.92 309.58,370 C410,340.07 449.13,381.39 542.58,334 C547.06,331.73 546.17,328.42 550.58,326 C576.21,311.94 595.0482,305.498 623.0282,300.088" fill="none" id="Bilanzierung-to-Abwicklungsmodell" style="stroke:#181818;stroke-width:1;"/><polygon fill="#181818" points="634.81,297.81,628.1598,295.0218,623.0282,300.088,629.6785,302.8763,634.81,297.81" style="stroke:#181818;stroke-width:1;stroke-linejoin:miter;stroke-miterlimit:10;"/><text fill="#000000" font-family="sans-serif" font-size="13" lengthAdjust="spacing" textLength="124.3442" x="364.08" y="330.0669">abwicklungsmodell</text><text fill="#000000" font-family="sans-serif" font-size="13" lengthAdjust="spacing" textLength="24.8066" x="602.3232" y="311.3355">0..1</text></g><!--link Bilanzierung to Aggregationsverantwortung--><g class="link" data-entity-1="ent0001" data-entity-2="ent0008" data-link-type="composition" data-source-line="55" id="lnk20"><path codeLine="55" d="M279.93,427.62 C357.02,417.49 455.29,404.15 542.58,391 C562.37,388.02 571.5366,386.6122 591.8866,383.2922" fill="none" id="Bilanzierung-to-Aggregationsverantwortung" style="stroke:#181818;stroke-width:1;"/><polygon fill="#181818" points="603.73,381.36,597.1642,378.3783,591.8866,383.2922,598.4524,386.2739,603.73,381.36" style="stroke:#181818;stroke-width:1;stroke-linejoin:miter;stroke-miterlimit:10;"/><text fill="#000000" font-family="sans-serif" font-size="13" lengthAdjust="spacing" textLength="181.8032" x="335.58" y="387.0669">aggregationsverantwortung</text><text fill="#000000" font-family="sans-serif" font-size="13" lengthAdjust="spacing" textLength="24.8066" x="571.2395" y="395.2361">0..1</text></g><!--link Bilanzierung to BoTyp--><g class="link" data-entity-1="ent0001" data-entity-2="ent0009" data-link-type="composition" data-source-line="56" id="lnk21"><path codeLine="56" d="M280.04,447.66 C290.04,447.8 299.96,447.91 309.58,448 C413.13,448.94 439.09,451.84 542.58,448 C586.1,446.39 623.6263,443.5727 658.8263,440.4727" fill="none" id="Bilanzierung-to-BoTyp" style="stroke:#181818;stroke-width:1;"/><polygon fill="#181818" points="670.78,439.42,664.4522,435.9618,658.8263,440.4727,665.154,443.9309,670.78,439.42" style="stroke:#181818;stroke-width:1;stroke-linejoin:miter;stroke-miterlimit:10;"/><text fill="#000000" font-family="sans-serif" font-size="13" lengthAdjust="spacing" textLength="27.5425" x="412.58" y="444.0669">_typ</text><text fill="#000000" font-family="sans-serif" font-size="13" lengthAdjust="spacing" textLength="24.8066" x="638.0664" y="453.2476">0..1</text></g><!--link Bilanzierung to Fallgruppenzuordnung--><g class="link" data-entity-1="ent0001" data-entity-2="ent0010" data-link-type="composition" data-source-line="57" id="lnk22"><path codeLine="57" d="M279.87,470.72 C289.91,472.28 299.89,473.73 309.58,475 C416.66,489.01 528.4219,497.2957 611.2719,502.3057" fill="none" id="Bilanzierung-to-Fallgruppenzuordnung" style="stroke:#181818;stroke-width:1;"/><polygon fill="#181818" points="623.25,503.03,617.5024,498.6751,611.2719,502.3057,617.0195,506.6605,623.25,503.03" style="stroke:#181818;stroke-width:1;stroke-linejoin:miter;stroke-miterlimit:10;"/><text fill="#000000" font-family="sans-serif" font-size="13" lengthAdjust="spacing" textLength="143.9268" x="354.58" y="471.0669">fallgruppenzuordnung</text><text fill="#000000" font-family="sans-serif" font-size="13" lengthAdjust="spacing" textLength="24.8066" x="590.7356" y="515.3039">0..1</text></g><!--link Bilanzierung to Profiltyp--><g class="link" data-entity-1="ent0001" data-entity-2="ent0011" data-link-type="composition" data-source-line="58" id="lnk23"><path codeLine="58" d="M279.67,512.78 C289.67,516.58 299.7,520.04 309.58,523 C433.95,560.26 575.0319,573.1158 653.5919,577.8658" fill="none" id="Bilanzierung-to-Profiltyp" style="stroke:#181818;stroke-width:1;"/><polygon fill="#181818" points="665.57,578.59,659.8223,574.2352,653.5919,577.8658,659.3395,582.2206,665.57,578.59" style="stroke:#181818;stroke-width:1;stroke-linejoin:miter;stroke-miterlimit:10;"/><text fill="#000000" font-family="sans-serif" font-size="13" lengthAdjust="spacing" textLength="169.8188" x="341.58" y="519.0669">detailsPrognosegrundlage</text><text fill="#000000" font-family="sans-serif" font-size="13" lengthAdjust="spacing" textLength="23.0356" x="634.7191" y="591.2855">0..*</text></g><!--link Bilanzierung to Prognosegrundlage--><g class="link" data-entity-1="ent0001" data-entity-2="ent0012" data-link-type="composition" data-source-line="59" id="lnk24"><path codeLine="59" d="M224.89,533.28 C249.9,555.78 278.99,577.64 309.58,592 C414.14,641.08 536.8335,652.6419 622.2035,654.6919" fill="none" id="Bilanzierung-to-Prognosegrundlage" style="stroke:#181818;stroke-width:1;"/><polygon fill="#181818" points="634.2,654.98,628.2978,650.8371,622.2035,654.6919,628.1057,658.8348,634.2,654.98" style="stroke:#181818;stroke-width:1;stroke-linejoin:miter;stroke-miterlimit:10;"/><text fill="#000000" font-family="sans-serif" font-size="13" lengthAdjust="spacing" textLength="126.9214" x="363.08" y="588.0669">prognosegrundlage</text><text fill="#000000" font-family="sans-serif" font-size="13" lengthAdjust="spacing" textLength="24.8066" x="601.6583" y="667.8082">0..1</text></g><!--link Bilanzierung to WahlrechtPrognosegrundlage--><g class="link" data-entity-1="ent0001" data-entity-2="ent0013" data-link-type="composition" data-source-line="60" id="lnk25"><path codeLine="60" d="M185.36,533.39 C213.22,583.05 254.93,641.43 309.58,674 C334.08,688.6 474.9053,704.4697 586.3253,715.1997" fill="none" id="Bilanzierung-to-WahlrechtPrognosegrundlage" style="stroke:#181818;stroke-width:1;"/><polygon fill="#181818" points="598.27,716.35,592.6811,711.7933,586.3253,715.1997,591.9142,719.7564,598.27,716.35" style="stroke:#181818;stroke-width:1;stroke-linejoin:miter;stroke-miterlimit:10;"/><text fill="#000000" font-family="sans-serif" font-size="13" lengthAdjust="spacing" textLength="231.334" x="310.58" y="670.0669">grundWahlrechtPrognosegrundlage</text><text fill="#000000" font-family="sans-serif" font-size="13" lengthAdjust="spacing" textLength="24.8066" x="565.8244" y="728.2194">0..1</text></g><!--link Bilanzierung to WahlrechtPrognosegrundlage--><g class="link" data-entity-1="ent0001" data-entity-2="ent0013" data-link-type="composition" data-source-line="61" id="lnk26"><path codeLine="61" d="M168.25,533.63 C191.91,602.02 235.55,691.98 309.58,735 C356.89,762.49 483.7502,755.1863 586.3602,744.0363" fill="none" id="Bilanzierung-to-WahlrechtPrognosegrundlage-1" style="stroke:#181818;stroke-width:1;"/><polygon fill="#181818" points="598.29,742.74,591.893,739.4116,586.3602,744.0363,592.7572,747.3648,598.29,742.74" style="stroke:#181818;stroke-width:1;stroke-linejoin:miter;stroke-miterlimit:10;"/><text fill="#000000" font-family="sans-serif" font-size="13" lengthAdjust="spacing" textLength="190.7852" x="331.08" y="731.0669">wahlrechtPrognosegrundlage</text><text fill="#000000" font-family="sans-serif" font-size="13" lengthAdjust="spacing" textLength="24.8066" x="565.8457" y="756.3">0..1</text></g><!--link Bilanzierung to Zeitreihentyp--><g class="link" data-entity-1="ent0001" data-entity-2="ent0014" data-link-type="composition" data-source-line="62" id="lnk27"><path codeLine="62" d="M162.05,533.54 C182.9,612.18 225.87,722.92 309.58,778 C413.41,846.32 554.457,833.6292 640.547,817.4292" fill="none" id="Bilanzierung-to-Zeitreihentyp" style="stroke:#181818;stroke-width:1;"/><polygon fill="#181818" points="652.34,815.21,645.7038,812.3886,640.547,817.4292,647.1832,820.2506,652.34,815.21" style="stroke:#181818;stroke-width:1;stroke-linejoin:miter;stroke-miterlimit:10;"/><text fill="#000000" font-family="sans-serif" font-size="13" lengthAdjust="spacing" textLength="86.0044" x="383.08" y="774.0669">zeitreihentyp</text><text fill="#000000" font-family="sans-serif" font-size="13" lengthAdjust="spacing" textLength="24.8066" x="619.835" y="829.7682">0..1</text></g><?plantuml-src lLTHQzim47xthn3kMo59mxfHp1Ya8ns5T2rROR0i3Dc-s5faoKZoGZFotoV9JM97Lfjko_8GfBjFv-_kvBipXRb2YYD1iboXb0X85E4i21AAfKJXT9ehLSfeC8ZvEVGpel8gxXC-kBmz7_VA1vLpDg1OWLG3N98Q5VD-hWfwKl2qej3Ro692CLiH41NBq6LZCvjzOsybMK4qF7kdWKrTYB1iWT6l0EdVTvAY24abqFIitn_EQk5F45BJTpNDPyiOCi8CADN45Id0YmIMmfEuXG0YtSSLM2mKvGjiWYclEwYMWd1150QbTOIffavx4GjS9Rd4rLm1eSRj2CqfnrlSEWWOBa2ME04KsX0dlB3HscpGoVXiTF7c_MF4_YQZsfgRKYFKDbKf-9nGDDakM_aqg9tA4jnjdqocUYYrT48K24oduMJq-Vxkq-tLzIIS7PXqM059SbQ7Rq-PQwkLp206uIg9L6F2PAcJMn-EEQVjz1dwCidntkdryM9T0Ci0tPX_9y9MQeDhLo-9wytuuuVneI5TWb3kLLmxTn5OrRYCPeTEqc7owlN5FxYDnfmR8Yl5yP8a2_F2IAq3Ij5eNzAAdJtaG2npHwgPhu_AFSi4P7N9q0d0J2svKER-ZNoQ3bzyqDedxoEEx5lCpQsxvFSFfSlPYkj2RrR7vZB7b6QYAajWgugBrDQ7gmwXoxGBPObtAOxjHrs3J5plDYkNyLPbQMvt_u5RnhW47HEMKgmhqjs-f9Dh6xBXl6VgoDoNEATw3igLwyINZUe0R_nOwvPVVMp_T5DKUcp9WPcByBMvSxregItnbiHorRD8QqBhzKvHg7l3QTXizH7Q3GlT-67usBqYz0Fd0kHk4Dgaujc32nr4OAPDFGjLK9Iw1gfAZ4IidV8US3j1X9n6up_jhRdQYa_djLPNoCXsSI-einhfhjqXzcPkLohq_0iAwsd7kQbU0kwTZb1vyEadNeq8sRKVyMT6bo-trtuD8jHwgu8W9_hBeO12ZvSoa3bVejPd3PeJeAdy3G00?></g></svg>