<svg xmlns="http://www.w3.org/2000/svg" xmlns:xlink="http://www.w3.org/1999/xlink" contentStyleType="text/css" data-diagram-type="CLASS" height="979px" preserveAspectRatio="none" style="width:944px;height:979px;background:#FFFFFF;" version="1.1" viewBox="0 0 944 979" width="944px" zoomAndPan="magnify"><defs/><g><!--cluster bo4e--><g class="cluster" data-entity="bo4e" data-source-line="13" data-uid="ent0005" id="cluster_bo4e"><path d="M619.96,6 L659.836,6 A3.75,3.75 0 0 1 662.336,8.5 L669.336,28.2969 L934.81,28.2969 A2.5,2.5 0 0 1 937.31,30.7969 L937.31,969.5 A2.5,2.5 0 0 1 934.81,972 L619.96,972 A2.5,2.5 0 0 1 617.46,969.5 L617.46,8.5 A2.5,2.5 0 0 1 619.96,6" fill="none" style="stroke:#000000;stroke-width:1.5;"/><line style="stroke:#000000;stroke-width:1.5;" x1="617.46" x2="669.336" y1="28.2969" y2="28.2969"/><text fill="#000000" font-family="sans-serif" font-size="14" font-weight="bold" lengthAdjust="spacing" textLength="38.876" x="621.46" y="20.9951">bo4e</text></g><!--cluster bo--><g class="cluster" data-entity="bo" data-source-line="12" data-uid="ent0003" id="cluster_bo"><path d="M683.19,49 L748.024,49 A3.75,3.75 0 0 1 750.524,51.5 L757.524,71.2969 L871.58,71.2969 A2.5,2.5 0 0 1 874.08,73.7969 L874.08,135.5 A2.5,2.5 0 0 1 871.58,138 L683.19,138 A2.5,2.5 0 0 1 680.69,135.5 L680.69,51.5 A2.5,2.5 0 0 1 683.19,49" fill="#B6D7A8" style="stroke:#000000;stroke-width:1.5;"/><line style="stroke:#000000;stroke-width:1.5;" x1="680.69" x2="757.524" y1="71.2969" y2="71.2969"/><a href="file:////home/runner/work/BO4E-python/BO4E-python/docs/../.tox/docs/tmp/html/api/bo4e.bo.html" target="_top" title="file:////home/runner/work/BO4E-python/BO4E-python/docs/../.tox/docs/tmp/html/api/bo4e.bo.html" xlink:actuate="onRequest" xlink:href="file:////home/runner/work/BO4E-python/BO4E-python/docs/../.tox/docs/tmp/html/api/bo4e.bo.html" xlink:show="new" xlink:title="file:////home/runner/work/BO4E-python/BO4E-python/docs/../.tox/docs/tmp/html/api/bo4e.bo.html" xlink:type="simple"><text fill="#0000FF" font-family="sans-serif" font-size="14" font-weight="bold" lengthAdjust="spacing" text-decoration="underline" textLength="63.834" x="684.69" y="63.9951">bo4e.bo</text></a></g><!--cluster com--><g class="cluster" data-entity="com" data-source-line="15" data-uid="ent0006" id="cluster_com"><path d="M699.69,162 L777.3892,162 A3.75,3.75 0 0 1 779.8892,164.5 L786.8892,184.2969 L855.08,184.2969 A2.5,2.5 0 0 1 857.58,186.7969 L857.58,321.5 A2.5,2.5 0 0 1 855.08,324 L699.69,324 A2.5,2.5 0 0 1 697.19,321.5 L697.19,164.5 A2.5,2.5 0 0 1 699.69,162" fill="#E0A86C" style="stroke:#000000;stroke-width:1.5;"/><line style="stroke:#000000;stroke-width:1.5;" x1="697.19" x2="786.8892" y1="184.2969" y2="184.2969"/><a href="file:////home/runner/work/BO4E-python/BO4E-python/docs/../.tox/docs/tmp/html/api/bo4e.com.html" target="_top" title="file:////home/runner/work/BO4E-python/BO4E-python/docs/../.tox/docs/tmp/html/api/bo4e.com.html" xlink:actuate="onRequest" xlink:href="file:////home/runner/work/BO4E-python/BO4E-python/docs/../.tox/docs/tmp/html/api/bo4e.com.html" xlink:show="new" xlink:title="file:////home/runner/work/BO4E-python/BO4E-python/docs/../.tox/docs/tmp/html/api/bo4e.com.html" xlink:type="simple"><text fill="#0000FF" font-family="sans-serif" font-size="14" font-weight="bold" lengthAdjust="spacing" text-decoration="underline" textLength="76.6992" x="701.19" y="176.9951">bo4e.com</text></a></g><!--cluster enum--><g class="cluster" data-entity="enum" data-source-line="19" data-uid="ent0009" id="cluster_enum"><path d="M643.96,348 L733.1709,348 A3.75,3.75 0 0 1 735.6709,350.5 L742.6709,370.2969 L910.81,370.2969 A2.5,2.5 0 0 1 913.31,372.7969 L913.31,945.5 A2.5,2.5 0 0 1 910.81,948 L643.96,948 A2.5,2.5 0 0 1 641.46,945.5 L641.46,350.5 A2.5,2.5 0 0 1 643.96,348" fill="#D1C358" style="stroke:#000000;stroke-width:1.5;"/><line style="stroke:#000000;stroke-width:1.5;" x1="641.46" x2="742.6709" y1="370.2969" y2="370.2969"/><a href="file:////home/runner/work/BO4E-python/BO4E-python/docs/../.tox/docs/tmp/html/api/bo4e.enum.html" target="_top" title="file:////home/runner/work/BO4E-python/BO4E-python/docs/../.tox/docs/tmp/html/api/bo4e.enum.html" xlink:actuate="onRequest" xlink:href="file:////home/runner/work/BO4E-python/BO4E-python/docs/../.tox/docs/tmp/html/api/bo4e.enum.html" xlink:show="new" xlink:title="file:////home/runner/work/BO4E-python/BO4E-python/docs/../.tox/docs/tmp/html/api/bo4e.enum.html" xlink:type="simple"><text fill="#0000FF" font-family="sans-serif" font-size="14" font-weight="bold" lengthAdjust="spacing" text-decoration="underline" textLength="88.2109" x="645.46" y="362.9951">bo4e.enum</text></a></g><!--class Geschaeftsobjekt--><g class="entity" data-entity="Geschaeftsobjekt" data-source-line="13" data-uid="ent0004" id="entity_Geschaeftsobjekt"><rect fill="#F1F1F1" height="37.9375" rx="2.5" ry="2.5" style="stroke:#181818;stroke-width:0.5;" width="161.3896" x="696.69" y="84.03"/><ellipse cx="711.69" cy="102.9987" fill="#ADD1B2" rx="11" ry="11" style="stroke:#181818;stroke-width:1;"/><path d="M714.6588,108.6394 Q714.0806,108.9362 713.44,109.0769 Q712.7994,109.2331 712.0963,109.2331 Q709.5963,109.2331 708.2681,107.5925 Q706.9556,105.9362 706.9556,102.8112 Q706.9556,99.6862 708.2681,98.03 Q709.5963,96.3737 712.0963,96.3737 Q712.7994,96.3737 713.44,96.53 Q714.0963,96.6862 714.6588,96.9831 L714.6588,99.7019 Q714.0338,99.1237 713.44,98.8581 Q712.8463,98.5769 712.2213,98.5769 Q710.8775,98.5769 710.19,99.655 Q709.5025,100.7175 709.5025,102.8112 Q709.5025,104.905 710.19,105.9831 Q710.8775,107.0456 712.2213,107.0456 Q712.8463,107.0456 713.44,106.78 Q714.0338,106.4987 714.6588,105.9206 L714.6588,108.6394 Z " fill="#000000"/><a href="file:////home/runner/work/BO4E-python/BO4E-python/docs/../.tox/docs/tmp/html/api/bo4e.bo.html#bo4e.bo.geschaeftsobjekt.Geschaeftsobjekt" target="_top" title="file:////home/runner/work/BO4E-python/BO4E-python/docs/../.tox/docs/tmp/html/api/bo4e.bo.html#bo4e.bo.geschaeftsobjekt.Geschaeftsobjekt" xlink:actuate="onRequest" xlink:href="file:////home/runner/work/BO4E-python/BO4E-python/docs/../.tox/docs/tmp/html/api/bo4e.bo.html#bo4e.bo.geschaeftsobjekt.Geschaeftsobjekt" xlink:show="new" xlink:title="file:////home/runner/work/BO4E-python/BO4E-python/docs/../.tox/docs/tmp/html/api/bo4e.bo.html#bo4e.bo.geschaeftsobjekt.Geschaeftsobjekt" xlink:type="simple"><text fill="#0000FF" font-family="sans-serif" font-size="14" lengthAdjust="spacing" text-decoration="underline" textLength="121.7822" x="729.4937" y="102.0251">Geschaeftsobjekt</text></a><text fill="#000000" font-family="sans-serif" font-size="10" lengthAdjust="spacing" textLength="129.3896" x="725.69" y="114.6091">bo4e.bo.geschaeftsobjekt</text></g><!--class Menge--><g class="entity" data-entity="Menge" data-source-line="16" data-uid="ent0007" id="entity_Menge"><rect fill="#F1F1F1" height="37.9375" rx="2.5" ry="2.5" style="stroke:#181818;stroke-width:0.5;" width="119.4268" x="717.67" y="197.03"/><ellipse cx="732.67" cy="215.9987" fill="#ADD1B2" rx="11" ry="11" style="stroke:#181818;stroke-width:1;"/><path d="M735.6388,221.6394 Q735.0606,221.9362 734.42,222.0769 Q733.7794,222.2331 733.0763,222.2331 Q730.5763,222.2331 729.2481,220.5925 Q727.9356,218.9362 727.9356,215.8112 Q727.9356,212.6862 729.2481,211.03 Q730.5763,209.3737 733.0763,209.3737 Q733.7794,209.3737 734.42,209.53 Q735.0763,209.6862 735.6388,209.9831 L735.6388,212.7019 Q735.0138,212.1237 734.42,211.8581 Q733.8263,211.5769 733.2013,211.5769 Q731.8575,211.5769 731.17,212.655 Q730.4825,213.7175 730.4825,215.8112 Q730.4825,217.905 731.17,218.9831 Q731.8575,220.0456 733.2013,220.0456 Q733.8263,220.0456 734.42,219.78 Q735.0138,219.4987 735.6388,218.9206 L735.6388,221.6394 Z " fill="#000000"/><a href="file:////home/runner/work/BO4E-python/BO4E-python/docs/../.tox/docs/tmp/html/api/bo4e.com.html#bo4e.com.menge.Menge" target="_top" title="file:////home/runner/work/BO4E-python/BO4E-python/docs/../.tox/docs/tmp/html/api/bo4e.com.html#bo4e.com.menge.Menge" xlink:actuate="onRequest" xlink:href="file:////home/runner/work/BO4E-python/BO4E-python/docs/../.tox/docs/tmp/html/api/bo4e.com.html#bo4e.com.menge.Menge" xlink:show="new" xlink:title="file:////home/runner/work/BO4E-python/BO4E-python/docs/../.tox/docs/tmp/html/api/bo4e.com.html#bo4e.com.menge.Menge" xlink:type="simple"><text fill="#0000FF" font-family="sans-serif" font-size="14" lengthAdjust="spacing" text-decoration="underline" textLength="47.0654" x="766.8507" y="215.0251">Menge</text></a><text fill="#000000" font-family="sans-serif" font-size="10" lengthAdjust="spacing" textLength="87.4268" x="746.67" y="227.6091">bo4e.com.menge</text></g><!--class Lastprofil--><g class="entity" data-entity="Lastprofil" data-source-line="17" data-uid="ent0008" id="entity_Lastprofil"><rect fill="#F1F1F1" height="37.9375" rx="2.5" ry="2.5" style="stroke:#181818;stroke-width:0.5;" width="128.3867" x="713.19" y="270.03"/><ellipse cx="728.19" cy="288.9988" fill="#ADD1B2" rx="11" ry="11" style="stroke:#181818;stroke-width:1;"/><path d="M731.1588,294.6394 Q730.5806,294.9363 729.94,295.0769 Q729.2994,295.2331 728.5963,295.2331 Q726.0963,295.2331 724.7681,293.5925 Q723.4556,291.9363 723.4556,288.8113 Q723.4556,285.6863 724.7681,284.03 Q726.0963,282.3738 728.5963,282.3738 Q729.2994,282.3738 729.94,282.53 Q730.5963,282.6863 731.1588,282.9831 L731.1588,285.7019 Q730.5338,285.1238 729.94,284.8581 Q729.3463,284.5769 728.7213,284.5769 Q727.3775,284.5769 726.69,285.655 Q726.0025,286.7175 726.0025,288.8113 Q726.0025,290.905 726.69,291.9831 Q727.3775,293.0456 728.7213,293.0456 Q729.3463,293.0456 729.94,292.78 Q730.5338,292.4988 731.1588,291.9206 L731.1588,294.6394 Z " fill="#000000"/><a href="file:////home/runner/work/BO4E-python/BO4E-python/docs/../.tox/docs/tmp/html/api/bo4e.com.html#bo4e.com.lastprofil.Lastprofil" target="_top" title="file:////home/runner/work/BO4E-python/BO4E-python/docs/../.tox/docs/tmp/html/api/bo4e.com.html#bo4e.com.lastprofil.Lastprofil" xlink:actuate="onRequest" xlink:href="file:////home/runner/work/BO4E-python/BO4E-python/docs/../.tox/docs/tmp/html/api/bo4e.com.html#bo4e.com.lastprofil.Lastprofil" xlink:show="new" xlink:title="file:////home/runner/work/BO4E-python/BO4E-python/docs/../.tox/docs/tmp/html/api/bo4e.com.html#bo4e.com.lastprofil.Lastprofil" xlink:type="simple"><text fill="#0000FF" font-family="sans-serif" font-size="14" lengthAdjust="spacing" text-decoration="underline" textLength="65.0781" x="757.8443" y="288.0251">Lastprofil</text></a><text fill="#000000" font-family="sans-serif" font-size="10" lengthAdjust="spacing" textLength="96.3867" x="742.19" y="300.6091">bo4e.com.lastprofil</text></g><!--class Prognosegrundlage--><g class="entity" data-entity="Prognosegrundlage" data-source-line="20" data-uid="ent0010" id="entity_Prognosegrundlage"><rect fill="#F1F1F1" height="37.9375" rx="2.5" ry="2.5" style="stroke:#181818;stroke-width:0.5;" width="189.5391" x="682.61" y="383.03"/><ellipse cx="697.61" cy="401.9988" fill="#ADD1B2" rx="11" ry="11" style="stroke:#181818;stroke-width:1;"/><path d="M700.5788,407.6394 Q700.0006,407.9363 699.36,408.0769 Q698.7194,408.2331 698.0163,408.2331 Q695.5163,408.2331 694.1881,406.5925 Q692.8756,404.9363 692.8756,401.8113 Q692.8756,398.6863 694.1881,397.03 Q695.5163,395.3738 698.0163,395.3738 Q698.7194,395.3738 699.36,395.53 Q700.0163,395.6863 700.5788,395.9831 L700.5788,398.7019 Q699.9538,398.1238 699.36,397.8581 Q698.7663,397.5769 698.1413,397.5769 Q696.7975,397.5769 696.11,398.655 Q695.4225,399.7175 695.4225,401.8113 Q695.4225,403.905 696.11,404.9831 Q696.7975,406.0456 698.1413,406.0456 Q698.7663,406.0456 699.36,405.78 Q699.9538,405.4988 700.5788,404.9206 L700.5788,407.6394 Z " fill="#000000"/><a href="file:////home/runner/work/BO4E-python/BO4E-python/docs/../.tox/docs/tmp/html/api/bo4e.enum.html#bo4e.enum.prognosegrundlage.Prognosegrundlage" target="_top" title="file:////home/runner/work/BO4E-python/BO4E-python/docs/../.tox/docs/tmp/html/api/bo4e.enum.html#bo4e.enum.prognosegrundlage.Prognosegrundlage" xlink:actuate="onRequest" xlink:href="file:////home/runner/work/BO4E-python/BO4E-python/docs/../.tox/docs/tmp/html/api/bo4e.enum.html#bo4e.enum.prognosegrundlage.Prognosegrundlage" xlink:show="new" xlink:title="file:////home/runner/work/BO4E-python/BO4E-python/docs/../.tox/docs/tmp/html/api/bo4e.enum.html#bo4e.enum.prognosegrundlage.Prognosegrundlage" xlink:type="simple"><text fill="#0000FF" font-family="sans-serif" font-size="14" lengthAdjust="spacing" text-decoration="underline" textLength="136.2402" x="722.2594" y="401.0251">Prognosegrundlage</text></a><text fill="#000000" font-family="sans-serif" font-size="10" lengthAdjust="spacing" textLength="157.5391" x="711.61" y="413.6091">bo4e.enum.prognosegrundlage</text></g><!--class Aggregationsverantwortung--><g class="entity" data-entity="Aggregationsverantwortung" data-source-line="21" data-uid="ent0011" id="entity_Aggregationsverantwortung"><rect fill="#F1F1F1" height="37.9375" rx="2.5" ry="2.5" style="stroke:#181818;stroke-width:0.5;" width="231.7559" x="661.51" y="456.03"/><ellipse cx="676.51" cy="474.9988" fill="#ADD1B2" rx="11" ry="11" style="stroke:#181818;stroke-width:1;"/><path d="M679.4788,480.6394 Q678.9006,480.9363 678.26,481.0769 Q677.6194,481.2331 676.9163,481.2331 Q674.4163,481.2331 673.0881,479.5925 Q671.7756,477.9363 671.7756,474.8113 Q671.7756,471.6863 673.0881,470.03 Q674.4163,468.3738 676.9163,468.3738 Q677.6194,468.3738 678.26,468.53 Q678.9163,468.6863 679.4788,468.9831 L679.4788,471.7019 Q678.8538,471.1238 678.26,470.8581 Q677.6663,470.5769 677.0413,470.5769 Q675.6975,470.5769 675.01,471.655 Q674.3225,472.7175 674.3225,474.8113 Q674.3225,476.905 675.01,477.9831 Q675.6975,479.0456 677.0413,479.0456 Q677.6663,479.0456 678.26,478.78 Q678.8538,478.4988 679.4788,477.9206 L679.4788,480.6394 Z " fill="#000000"/><a href="file:////home/runner/work/BO4E-python/BO4E-python/docs/../.tox/docs/tmp/html/api/bo4e.enum.html#bo4e.enum.aggregationsverantwortung.Aggregationsverantwortung" target="_top" title="file:////home/runner/work/BO4E-python/BO4E-python/docs/../.tox/docs/tmp/html/api/bo4e.enum.html#bo4e.enum.aggregationsverantwortung.Aggregationsverantwortung" xlink:actuate="onRequest" xlink:href="file:////home/runner/work/BO4E-python/BO4E-python/docs/../.tox/docs/tmp/html/api/bo4e.enum.html#bo4e.enum.aggregationsverantwortung.Aggregationsverantwortung" xlink:show="new" xlink:title="file:////home/runner/work/BO4E-python/BO4E-python/docs/../.tox/docs/tmp/html/api/bo4e.enum.html#bo4e.enum.aggregationsverantwortung.Aggregationsverantwortung" xlink:type="simple"><text fill="#0000FF" font-family="sans-serif" font-size="14" lengthAdjust="spacing" text-decoration="underline" textLength="196.7861" x="691.9949" y="474.0251">Aggregationsverantwortung</text></a><text fill="#000000" font-family="sans-serif" font-size="10" lengthAdjust="spacing" textLength="199.7559" x="690.51" y="486.6091">bo4e.enum.aggregationsverantwortung</text></g><!--class Zeitreihentyp--><g class="entity" data-entity="Zeitreihentyp" data-source-line="22" data-uid="ent0012" id="entity_Zeitreihentyp"><rect fill="#F1F1F1" height="37.9375" rx="2.5" ry="2.5" style="stroke:#181818;stroke-width:0.5;" width="158.0645" x="698.35" y="529.03"/><ellipse cx="713.35" cy="547.9988" fill="#ADD1B2" rx="11" ry="11" style="stroke:#181818;stroke-width:1;"/><path d="M716.3188,553.6394 Q715.7406,553.9363 715.1,554.0769 Q714.4594,554.2331 713.7563,554.2331 Q711.2563,554.2331 709.9281,552.5925 Q708.6156,550.9363 708.6156,547.8113 Q708.6156,544.6863 709.9281,543.03 Q711.2563,541.3738 713.7563,541.3738 Q714.4594,541.3738 715.1,541.53 Q715.7563,541.6863 716.3188,541.9831 L716.3188,544.7019 Q715.6938,544.1238 715.1,543.8581 Q714.5063,543.5769 713.8813,543.5769 Q712.5375,543.5769 711.85,544.655 Q711.1625,545.7175 711.1625,547.8113 Q711.1625,549.905 711.85,550.9831 Q712.5375,552.0456 713.8813,552.0456 Q714.5063,552.0456 715.1,551.78 Q715.6938,551.4988 716.3188,550.9206 L716.3188,553.6394 Z " fill="#000000"/><a href="file:////home/runner/work/BO4E-python/BO4E-python/docs/../.tox/docs/tmp/html/api/bo4e.enum.html#bo4e.enum.zeitreihentyp.Zeitreihentyp" target="_top" title="file:////home/runner/work/BO4E-python/BO4E-python/docs/../.tox/docs/tmp/html/api/bo4e.enum.html#bo4e.enum.zeitreihentyp.Zeitreihentyp" xlink:actuate="onRequest" xlink:href="file:////home/runner/work/BO4E-python/BO4E-python/docs/../.tox/docs/tmp/html/api/bo4e.enum.html#bo4e.enum.zeitreihentyp.Zeitreihentyp" xlink:show="new" xlink:title="file:////home/runner/work/BO4E-python/BO4E-python/docs/../.tox/docs/tmp/html/api/bo4e.enum.html#bo4e.enum.zeitreihentyp.Zeitreihentyp" xlink:type="simple"><text fill="#0000FF" font-family="sans-serif" font-size="14" lengthAdjust="spacing" text-decoration="underline" textLength="94.8623" x="742.9511" y="547.0251">Zeitreihentyp</text></a><text fill="#000000" font-family="sans-serif" font-size="10" lengthAdjust="spacing" textLength="126.0645" x="727.35" y="559.6091">bo4e.enum.zeitreihentyp</text></g><!--class WahlrechtPrognosegrundlage--><g class="entity" data-entity="WahlrechtPrognosegrundlage" data-source-line="23" data-uid="ent0013" id="entity_WahlrechtPrognosegrundlage"><rect fill="#F1F1F1" height="37.9375" rx="2.5" ry="2.5" style="stroke:#181818;stroke-width:0.5;" width="239.8535" x="657.46" y="602.03"/><ellipse cx="672.46" cy="620.9988" fill="#ADD1B2" rx="11" ry="11" style="stroke:#181818;stroke-width:1;"/><path d="M675.4288,626.6394 Q674.8506,626.9363 674.21,627.0769 Q673.5694,627.2331 672.8663,627.2331 Q670.3663,627.2331 669.0381,625.5925 Q667.7256,623.9363 667.7256,620.8113 Q667.7256,617.6863 669.0381,616.03 Q670.3663,614.3738 672.8663,614.3738 Q673.5694,614.3738 674.21,614.53 Q674.8663,614.6863 675.4288,614.9831 L675.4288,617.7019 Q674.8038,617.1238 674.21,616.8581 Q673.6163,616.5769 672.9913,616.5769 Q671.6475,616.5769 670.96,617.655 Q670.2725,618.7175 670.2725,620.8113 Q670.2725,622.905 670.96,623.9831 Q671.6475,625.0456 672.9913,625.0456 Q673.6163,625.0456 674.21,624.78 Q674.8038,624.4988 675.4288,623.9206 L675.4288,626.6394 Z " fill="#000000"/><a href="file:////home/runner/work/BO4E-python/BO4E-python/docs/../.tox/docs/tmp/html/api/bo4e.enum.html#bo4e.enum.wahlrechtprognosegrundlage.WahlrechtPrognosegrundlage" target="_top" title="file:////home/runner/work/BO4E-python/BO4E-python/docs/../.tox/docs/tmp/html/api/bo4e.enum.html#bo4e.enum.wahlrechtprognosegrundlage.WahlrechtPrognosegrundlage" xlink:actuate="onRequest" xlink:href="file:////home/runner/work/BO4E-python/BO4E-python/docs/../.tox/docs/tmp/html/api/bo4e.enum.html#bo4e.enum.wahlrechtprognosegrundlage.WahlrechtPrognosegrundlage" xlink:show="new" xlink:title="file:////home/runner/work/BO4E-python/BO4E-python/docs/../.tox/docs/tmp/html/api/bo4e.enum.html#bo4e.enum.wahlrechtprognosegrundlage.WahlrechtPrognosegrundlage" xlink:type="simple"><text fill="#0000FF" font-family="sans-serif" font-size="14" lengthAdjust="spacing" text-decoration="underline" textLength="207.8535" x="686.46" y="620.0251">WahlrechtPrognosegrundlage</text></a><text fill="#000000" font-family="sans-serif" font-size="10" lengthAdjust="spacing" textLength="206.9824" x="686.8955" y="632.6091">bo4e.enum.wahlrechtprognosegrundlage</text></g><!--class Abwicklungsmodell--><g class="entity" data-entity="Abwicklungsmodell" data-source-line="24" data-uid="ent0014" id="entity_Abwicklungsmodell"><rect fill="#F1F1F1" height="37.9375" rx="2.5" ry="2.5" style="stroke:#181818;stroke-width:0.5;" width="187.5566" x="683.61" y="675.03"/><ellipse cx="698.61" cy="693.9988" fill="#ADD1B2" rx="11" ry="11" style="stroke:#181818;stroke-width:1;"/><path d="M701.5788,699.6394 Q701.0006,699.9363 700.36,700.0769 Q699.7194,700.2331 699.0163,700.2331 Q696.5163,700.2331 695.1881,698.5925 Q693.8756,696.9363 693.8756,693.8113 Q693.8756,690.6863 695.1881,689.03 Q696.5163,687.3738 699.0163,687.3738 Q699.7194,687.3738 700.36,687.53 Q701.0163,687.6863 701.5788,687.9831 L701.5788,690.7019 Q700.9538,690.1238 700.36,689.8581 Q699.7663,689.5769 699.1413,689.5769 Q697.7975,689.5769 697.11,690.655 Q696.4225,691.7175 696.4225,693.8113 Q696.4225,695.905 697.11,696.9831 Q697.7975,698.0456 699.1413,698.0456 Q699.7663,698.0456 700.36,697.78 Q700.9538,697.4988 701.5788,696.9206 L701.5788,699.6394 Z " fill="#000000"/><a href="file:////home/runner/work/BO4E-python/BO4E-python/docs/../.tox/docs/tmp/html/api/bo4e.enum.html#bo4e.enum.abwicklungsmodell.Abwicklungsmodell" target="_top" title="file:////home/runner/work/BO4E-python/BO4E-python/docs/../.tox/docs/tmp/html/api/bo4e.enum.html#bo4e.enum.abwicklungsmodell.Abwicklungsmodell" xlink:actuate="onRequest" xlink:href="file:////home/runner/work/BO4E-python/BO4E-python/docs/../.tox/docs/tmp/html/api/bo4e.enum.html#bo4e.enum.abwicklungsmodell.Abwicklungsmodell" xlink:show="new" xlink:title="file:////home/runner/work/BO4E-python/BO4E-python/docs/../.tox/docs/tmp/html/api/bo4e.enum.html#bo4e.enum.abwicklungsmodell.Abwicklungsmodell" xlink:type="simple"><text fill="#0000FF" font-family="sans-serif" font-size="14" lengthAdjust="spacing" text-decoration="underline" textLength="134.9072" x="722.9347" y="693.0251">Abwicklungsmodell</text></a><text fill="#000000" font-family="sans-serif" font-size="10" lengthAdjust="spacing" textLength="155.5566" x="712.61" y="705.6091">bo4e.enum.abwicklungsmodell</text></g><!--class Profiltyp--><g class="entity" data-entity="Profiltyp" data-source-line="25" data-uid="ent0015" id="entity_Profiltyp"><rect fill="#F1F1F1" height="37.9375" rx="2.5" ry="2.5" style="stroke:#181818;stroke-width:0.5;" width="133.748" x="710.51" y="748.03"/><ellipse cx="725.51" cy="766.9988" fill="#ADD1B2" rx="11" ry="11" style="stroke:#181818;stroke-width:1;"/><path d="M728.4788,772.6394 Q727.9006,772.9363 727.26,773.0769 Q726.6194,773.2331 725.9163,773.2331 Q723.4163,773.2331 722.0881,771.5925 Q720.7756,769.9363 720.7756,766.8113 Q720.7756,763.6863 722.0881,762.03 Q723.4163,760.3738 725.9163,760.3738 Q726.6194,760.3738 727.26,760.53 Q727.9163,760.6863 728.4788,760.9831 L728.4788,763.7019 Q727.8538,763.1238 727.26,762.8581 Q726.6663,762.5769 726.0413,762.5769 Q724.6975,762.5769 724.01,763.655 Q723.3225,764.7175 723.3225,766.8113 Q723.3225,768.905 724.01,769.9831 Q724.6975,771.0456 726.0413,771.0456 Q726.6663,771.0456 727.26,770.78 Q727.8538,770.4988 728.4788,769.9206 L728.4788,772.6394 Z " fill="#000000"/><a href="file:////home/runner/work/BO4E-python/BO4E-python/docs/../.tox/docs/tmp/html/api/bo4e.enum.html#bo4e.enum.profiltyp.Profiltyp" target="_top" title="file:////home/runner/work/BO4E-python/BO4E-python/docs/../.tox/docs/tmp/html/api/bo4e.enum.html#bo4e.enum.profiltyp.Profiltyp" xlink:actuate="onRequest" xlink:href="file:////home/runner/work/BO4E-python/BO4E-python/docs/../.tox/docs/tmp/html/api/bo4e.enum.html#bo4e.enum.profiltyp.Profiltyp" xlink:show="new" xlink:title="file:////home/runner/work/BO4E-python/BO4E-python/docs/../.tox/docs/tmp/html/api/bo4e.enum.html#bo4e.enum.profiltyp.Profiltyp" xlink:type="simple"><text fill="#0000FF" font-family="sans-serif" font-size="14" lengthAdjust="spacing" text-decoration="underline" textLength="58.1328" x="761.3176" y="766.0251">Profiltyp</text></a><text fill="#000000" font-family="sans-serif" font-size="10" lengthAdjust="spacing" textLength="101.748" x="739.51" y="778.6091">bo4e.enum.profiltyp</text></g><!--class BoTyp--><g class="entity" data-entity="BoTyp" data-source-line="26" data-uid="ent0016" id="entity_BoTyp"><rect fill="#F1F1F1" height="37.9375" rx="2.5" ry="2.5" style="stroke:#181818;stroke-width:0.5;" width="120.5596" x="717.1" y="821.03"/><ellipse cx="732.1" cy="839.9988" fill="#ADD1B2" rx="11" ry="11" style="stroke:#181818;stroke-width:1;"/><path d="M735.0688,845.6394 Q734.4906,845.9363 733.85,846.0769 Q733.2094,846.2331 732.5063,846.2331 Q730.0063,846.2331 728.6781,844.5925 Q727.3656,842.9363 727.3656,839.8113 Q727.3656,836.6863 728.6781,835.03 Q730.0063,833.3738 732.5063,833.3738 Q733.2094,833.3738 733.85,833.53 Q734.5063,833.6863 735.0688,833.9831 L735.0688,836.7019 Q734.4438,836.1238 733.85,835.8581 Q733.2563,835.5769 732.6313,835.5769 Q731.2875,835.5769 730.6,836.655 Q729.9125,837.7175 729.9125,839.8113 Q729.9125,841.905 730.6,842.9831 Q731.2875,844.0456 732.6313,844.0456 Q733.2563,844.0456 733.85,843.78 Q734.4438,843.4988 735.0688,842.9206 L735.0688,845.6394 Z " fill="#000000"/><a href="file:////home/runner/work/BO4E-python/BO4E-python/docs/../.tox/docs/tmp/html/api/bo4e.enum.html#bo4e.enum.botyp.BoTyp" target="_top" title="file:////home/runner/work/BO4E-python/BO4E-python/docs/../.tox/docs/tmp/html/api/bo4e.enum.html#bo4e.enum.botyp.BoTyp" xlink:actuate="onRequest" xlink:href="file:////home/runner/work/BO4E-python/BO4E-python/docs/../.tox/docs/tmp/html/api/bo4e.enum.html#bo4e.enum.botyp.BoTyp" xlink:show="new" xlink:title="file:////home/runner/work/BO4E-python/BO4E-python/docs/../.tox/docs/tmp/html/api/bo4e.enum.html#bo4e.enum.botyp.BoTyp" xlink:type="simple"><text fill="#0000FF" font-family="sans-serif" font-size="14" lengthAdjust="spacing" text-decoration="underline" textLength="43.8936" x="768.433" y="839.0251">BoTyp</text></a><text fill="#000000" font-family="sans-serif" font-size="10" lengthAdjust="spacing" textLength="88.5596" x="746.1" y="851.6091">bo4e.enum.botyp</text></g><!--class Fallgruppenzuordnung--><g class="entity" data-entity="Fallgruppenzuordnung" data-source-line="27" data-uid="ent0017" id="entity_Fallgruppenzuordnung"><rect fill="#F1F1F1" height="37.9375" rx="2.5" ry="2.5" style="stroke:#181818;stroke-width:0.5;" width="202.6201" x="676.07" y="894.03"/><ellipse cx="691.07" cy="912.9988" fill="#ADD1B2" rx="11" ry="11" style="stroke:#181818;stroke-width:1;"/><path d="M694.0388,918.6394 Q693.4606,918.9363 692.82,919.0769 Q692.1794,919.2331 691.4763,919.2331 Q688.9763,919.2331 687.6481,917.5925 Q686.3356,915.9363 686.3356,912.8113 Q686.3356,909.6863 687.6481,908.03 Q688.9763,906.3738 691.4763,906.3738 Q692.1794,906.3738 692.82,906.53 Q693.4763,906.6863 694.0388,906.9831 L694.0388,909.7019 Q693.4138,909.1238 692.82,908.8581 Q692.2263,908.5769 691.6013,908.5769 Q690.2575,908.5769 689.57,909.655 Q688.8825,910.7175 688.8825,912.8113 Q688.8825,914.905 689.57,915.9831 Q690.2575,917.0456 691.6013,917.0456 Q692.2263,917.0456 692.82,916.78 Q693.4138,916.4988 694.0388,915.9206 L694.0388,918.6394 Z " fill="#000000"/><a href="file:////home/runner/work/BO4E-python/BO4E-python/docs/../.tox/docs/tmp/html/api/bo4e.enum.html#bo4e.enum.fallgruppenzuordnung.Fallgruppenzuordnung" target="_top" title="file:////home/runner/work/BO4E-python/BO4E-python/docs/../.tox/docs/tmp/html/api/bo4e.enum.html#bo4e.enum.fallgruppenzuordnung.Fallgruppenzuordnung" xlink:actuate="onRequest" xlink:href="file:////home/runner/work/BO4E-python/BO4E-python/docs/../.tox/docs/tmp/html/api/bo4e.enum.html#bo4e.enum.fallgruppenzuordnung.Fallgruppenzuordnung" xlink:show="new" xlink:title="file:////home/runner/work/BO4E-python/BO4E-python/docs/../.tox/docs/tmp/html/api/bo4e.enum.html#bo4e.enum.fallgruppenzuordnung.Fallgruppenzuordnung" xlink:type="simple"><text fill="#0000FF" font-family="sans-serif" font-size="14" lengthAdjust="spacing" text-decoration="underline" textLength="158.1221" x="711.319" y="912.0251">Fallgruppenzuordnung</text></a><text fill="#000000" font-family="sans-serif" font-size="10" lengthAdjust="spacing" textLength="170.6201" x="705.07" y="924.6091">bo4e.enum.fallgruppenzuordnung</text></g><!--class Bilanzierung--><g class="entity" data-entity="Bilanzierung" data-source-line="3" data-uid="ent0002" id="entity_Bilanzierung"><rect fill="#F1F1F1" height="143.7188" rx="2.5" ry="2.5" style="stroke:#181818;stroke-width:0.5;" width="331.457" x="7" y="428.14"/><ellipse cx="115.7344" cy="447.1088" fill="#ADD1B2" rx="11" ry="11" style="stroke:#181818;stroke-width:1;"/><path d="M118.7031,452.7494 Q118.125,453.0463 117.4844,453.1869 Q116.8438,453.3431 116.1406,453.3431 Q113.6406,453.3431 112.3125,451.7025 Q111,450.0463 111,446.9213 Q111,443.7963 112.3125,442.14 Q113.6406,440.4838 116.1406,440.4838 Q116.8438,440.4838 117.4844,440.64 Q118.1406,440.7963 118.7031,441.0931 L118.7031,443.8119 Q118.0781,443.2338 117.4844,442.9681 Q116.8906,442.6869 116.2656,442.6869 Q114.9219,442.6869 114.2344,443.765 Q113.5469,444.8275 113.5469,446.9213 Q113.5469,449.015 114.2344,450.0931 Q114.9219,451.1556 116.2656,451.1556 Q116.8906,451.1556 117.4844,450.89 Q118.0781,450.6088 118.7031,450.0306 L118.7031,452.7494 Z " fill="#000000"/><a href="file:////home/runner/work/BO4E-python/BO4E-python/docs/../.tox/docs/tmp/html/api/bo4e.bo.html#bo4e.bo.bilanzierung.Bilanzierung" target="_top" title="file:////home/runner/work/BO4E-python/BO4E-python/docs/../.tox/docs/tmp/html/api/bo4e.bo.html#bo4e.bo.bilanzierung.Bilanzierung" xlink:actuate="onRequest" xlink:href="file:////home/runner/work/BO4E-python/BO4E-python/docs/../.tox/docs/tmp/html/api/bo4e.bo.html#bo4e.bo.bilanzierung.Bilanzierung" xlink:show="new" xlink:title="file:////home/runner/work/BO4E-python/BO4E-python/docs/../.tox/docs/tmp/html/api/bo4e.bo.html#bo4e.bo.bilanzierung.Bilanzierung" xlink:type="simple"><text fill="#0000FF" font-family="sans-serif" font-size="14" lengthAdjust="spacing" text-decoration="underline" textLength="87.0762" x="145.4404" y="446.1351">Bilanzierung</text></a><text fill="#000000" font-family="sans-serif" font-size="10" lengthAdjust="spacing" textLength="105.4883" x="136.2344" y="458.7191">bo4e.bo.bilanzierung</text><line style="stroke:#181818;stroke-width:0.5;" x1="8" x2="337.457" y1="466.0775" y2="466.0775"/><text fill="#000000" font-family="sans-serif" font-size="14" lengthAdjust="spacing" textLength="249.2383" x="13" y="483.0726">marktlokationsId : str [0..1] = None</text><text fill="#000000" font-family="sans-serif" font-size="14" lengthAdjust="spacing" textLength="317.7344" x="13" y="499.3695">bilanzierungsbeginn : datetime [0..1] = None</text><text fill="#000000" font-family="sans-serif" font-size="14" lengthAdjust="spacing" textLength="304.6982" x="13" y="515.6664">bilanzierungsende : datetime [0..1] = None</text><text fill="#000000" font-family="sans-serif" font-size="14" lengthAdjust="spacing" textLength="206.5273" x="13" y="531.9632">bilanzkreis : str [0..1] = None</text><text fill="#000000" font-family="sans-serif" font-size="14" lengthAdjust="spacing" textLength="319.457" x="13" y="548.2601">verbrauchsaufteilung : Decimal [0..1] = None</text><text fill="#000000" font-family="sans-serif" font-size="14" lengthAdjust="spacing" textLength="196.0273" x="13" y="564.557">prioritaet : int [0..1] = None</text></g><!--link Bilanzierung to Geschaeftsobjekt--><g class="link" data-entity-1="Bilanzierung" data-entity-2="Geschaeftsobjekt" data-source-line="30" data-uid="lnk18" id="link_Bilanzierung_Geschaeftsobjekt"><path codeLine="30" d="M194.09,427.66 C220.49,348.19 274.65,223.46 368.46,160 C466.48,93.69 590.2811,88.2322 678.2711,93.4122" fill="none" id="Bilanzierung-to-Geschaeftsobjekt" style="stroke:#181818;stroke-width:1;"/><polygon fill="none" points="696.24,94.47,678.6237,87.4225,677.9185,99.4018,696.24,94.47" style="stroke:#181818;stroke-width:1;"/></g><!--link Bilanzierung to BoTyp--><g class="link" data-entity-1="Bilanzierung" data-entity-2="BoTyp" data-source-line="31" data-uid="lnk19" id="link_Bilanzierung_BoTyp"><path codeLine="31" d="M197.36,572.27 C225.52,645.66 280.19,755.83 368.46,809 C477.06,874.42 620.6701,865.4426 704.8501,852.9426" fill="none" id="Bilanzierung-to-BoTyp" style="stroke:#181818;stroke-width:1;"/><polygon fill="#181818" points="716.72,851.18,710.1976,848.1047,704.8501,852.9426,711.3726,856.0179,716.72,851.18" style="stroke:#181818;stroke-width:1;"/><text fill="#000000" font-family="sans-serif" font-size="13" lengthAdjust="spacing" textLength="27.5425" x="471.46" y="805.0669">_typ</text><text fill="#000000" font-family="sans-serif" font-size="13" lengthAdjust="spacing" textLength="24.8066" x="684.3653" y="865.4146">0..1</text></g><!--link Bilanzierung to Lastprofil--><g class="link" data-entity-1="Bilanzierung" data-entity-2="Lastprofil" data-source-line="32" data-uid="lnk20" id="link_Bilanzierung_Lastprofil"><path codeLine="32" d="M299.28,427.68 C321.79,416.81 345.43,406.69 368.46,399 C468.05,365.76 500.43,388.58 601.46,360 C648.92,346.57 690.1323,329.3921 725.0223,313.3921" fill="none" id="Bilanzierung-to-Lastprofil" style="stroke:#181818;stroke-width:1;"/><polygon fill="#181818" points="735.93,308.39,728.8088,307.2551,725.0223,313.3921,732.1435,314.527,735.93,308.39" style="stroke:#181818;stroke-width:1;"/><text fill="#000000" font-family="sans-serif" font-size="13" lengthAdjust="spacing" textLength="56.7988" x="456.96" y="356.0669">lastprofil</text><text fill="#000000" font-family="sans-serif" font-size="13" lengthAdjust="spacing" textLength="23.0356" x="698.0419" y="328.0387">0..*</text></g><!--link Bilanzierung to Menge--><g class="link" data-entity-1="Bilanzierung" data-entity-2="Menge" data-source-line="33" data-uid="lnk21" id="link_Bilanzierung_Menge"><path codeLine="33" d="M202.18,427.76 C232.48,361.76 287.35,268.09 368.46,225 C479.97,165.76 622.201,182.2572 705.451,199.1972" fill="none" id="Bilanzierung-to-Menge" style="stroke:#181818;stroke-width:1;"/><polygon fill="#181818" points="717.21,201.59,712.1281,196.4739,705.451,199.1972,710.5329,204.3133,717.21,201.59" style="stroke:#181818;stroke-width:1;"/><text fill="#000000" font-family="sans-serif" font-size="13" lengthAdjust="spacing" textLength="173.6973" x="398.46" y="181.0669">jahresverbrauchsprognose</text><text fill="#000000" font-family="sans-serif" font-size="13" lengthAdjust="spacing" textLength="24.8066" x="684.9116" y="212.8657">0..1</text></g><!--link Bilanzierung to Menge--><g class="link" data-entity-1="Bilanzierung" data-entity-2="Menge" data-source-line="34" data-uid="lnk22" id="link_Bilanzierung_Menge"><path codeLine="34" d="M218.07,427.9 C252.63,378.34 305.29,315.62 368.46,282 C460.73,232.89 498.34,267.09 601.46,250 C640.22,243.58 671.8084,237.5401 705.6584,230.6901" fill="none" id="Bilanzierung-to-Menge-1" style="stroke:#181818;stroke-width:1;"/><polygon fill="#181818" points="717.42,228.31,710.7458,225.5795,705.6584,230.6901,712.3326,233.4206,717.42,228.31" style="stroke:#181818;stroke-width:1;"/><text fill="#000000" font-family="sans-serif" font-size="13" lengthAdjust="spacing" textLength="113.1978" x="428.46" y="246.0669">temperaturArbeit</text><text fill="#000000" font-family="sans-serif" font-size="13" lengthAdjust="spacing" textLength="24.8066" x="684.6986" y="242.7995">0..1</text></g><!--link Bilanzierung to Menge--><g class="link" data-entity-1="Bilanzierung" data-entity-2="Menge" data-source-line="35" data-uid="lnk23" id="link_Bilanzierung_Menge"><path codeLine="35" d="M241.61,427.81 C276.37,395.34 321.26,359.72 368.46,339 C464.17,296.98 527.15,380.52 601.46,307 C618.7,289.94 592.92,270.75 609.46,253 C636.57,223.89 669.044,215.699 705.274,213.949" fill="none" id="Bilanzierung-to-Menge-2" style="stroke:#181818;stroke-width:1;"/><polygon fill="#181818" points="717.26,213.37,711.074,209.6641,705.274,213.949,711.46,217.6548,717.26,213.37" style="stroke:#181818;stroke-width:1;"/><text fill="#000000" font-family="sans-serif" font-size="13" lengthAdjust="spacing" textLength="77.5684" x="446.46" y="303.0669">kundenwert</text><text fill="#000000" font-family="sans-serif" font-size="13" lengthAdjust="spacing" textLength="24.8066" x="684.9674" y="226.0078">0..1</text></g><!--link Bilanzierung to Zeitreihentyp--><g class="link" data-entity-1="Bilanzierung" data-entity-2="Zeitreihentyp" data-source-line="36" data-uid="lnk24" id="link_Bilanzierung_Zeitreihentyp"><path codeLine="36" d="M338.92,514.55 C348.91,515.39 358.82,516.21 368.46,517 C483.14,526.36 604.0622,535.4113 686.1922,541.4413" fill="none" id="Bilanzierung-to-Zeitreihentyp" style="stroke:#181818;stroke-width:1;"/><polygon fill="#181818" points="698.16,542.32,692.469,537.8914,686.1922,541.4413,691.8832,545.8699,698.16,542.32" style="stroke:#181818;stroke-width:1;"/><text fill="#000000" font-family="sans-serif" font-size="13" lengthAdjust="spacing" textLength="86.0044" x="441.96" y="513.0669">zeitreihentyp</text><text fill="#000000" font-family="sans-serif" font-size="13" lengthAdjust="spacing" textLength="24.8066" x="665.5038" y="554.5668">0..1</text></g><!--link Bilanzierung to Aggregationsverantwortung--><g class="link" data-entity-1="Bilanzierung" data-entity-2="Aggregationsverantwortung" data-source-line="37" data-uid="lnk25" id="link_Bilanzierung_Aggregationsverantwortung"><path codeLine="37" d="M338.81,493.15 C441.08,488.91 557.9003,484.0676 649.2203,480.2776" fill="none" id="Bilanzierung-to-Aggregationsverantwortung" style="stroke:#181818;stroke-width:1;"/><polygon fill="#181818" points="661.21,479.78,655.0493,476.0322,649.2203,480.2776,655.381,484.0254,661.21,479.78" style="stroke:#181818;stroke-width:1;"/><text fill="#000000" font-family="sans-serif" font-size="13" lengthAdjust="spacing" textLength="181.8032" x="394.46" y="479.0669">aggregationsverantwortung</text><text fill="#000000" font-family="sans-serif" font-size="13" lengthAdjust="spacing" textLength="24.8066" x="628.6251" y="492.6765">0..1</text></g><!--link Bilanzierung to Prognosegrundlage--><g class="link" data-entity-1="Bilanzierung" data-entity-2="Prognosegrundlage" data-source-line="38" data-uid="lnk26" id="link_Bilanzierung_Prognosegrundlage"><path codeLine="38" d="M338.76,463.5 C348.79,461.56 358.75,459.71 368.46,458 C475.64,439.11 587.7073,424.3245 670.5873,414.2745" fill="none" id="Bilanzierung-to-Prognosegrundlage" style="stroke:#181818;stroke-width:1;"/><polygon fill="#181818" points="682.5,412.83,676.0621,409.5814,670.5873,414.2745,677.0251,417.5232,682.5,412.83" style="stroke:#181818;stroke-width:1;"/><text fill="#000000" font-family="sans-serif" font-size="13" lengthAdjust="spacing" textLength="126.9214" x="421.96" y="420.0669">prognosegrundlage</text><text fill="#000000" font-family="sans-serif" font-size="13" lengthAdjust="spacing" textLength="24.8066" x="649.6824" y="426.4205">0..1</text></g><!--link Bilanzierung to Profiltyp--><g class="link" data-entity-1="Bilanzierung" data-entity-2="Profiltyp" data-source-line="39" data-uid="lnk27" id="link_Bilanzierung_Profiltyp"><path codeLine="39" d="M211.7,572.09 C245.04,627.33 299.02,699.99 368.46,736 C477.69,792.65 613.9883,788.1887 698.3883,778.4987" fill="none" id="Bilanzierung-to-Profiltyp" style="stroke:#181818;stroke-width:1;"/><polygon fill="#181818" points="710.31,777.13,703.8929,773.8405,698.3883,778.4987,704.8054,781.7883,710.31,777.13" style="stroke:#181818;stroke-width:1;"/><text fill="#000000" font-family="sans-serif" font-size="13" lengthAdjust="spacing" textLength="169.8188" x="400.46" y="732.0669">detailsPrognosegrundlage</text><text fill="#000000" font-family="sans-serif" font-size="13" lengthAdjust="spacing" textLength="23.0356" x="679.5771" y="790.939">0..*</text></g><!--link Bilanzierung to WahlrechtPrognosegrundlage--><g class="link" data-entity-1="Bilanzierung" data-entity-2="WahlrechtPrognosegrundlage" data-source-line="40" data-uid="lnk28" id="link_Bilanzierung_WahlrechtPrognosegrundlage"><path codeLine="40" d="M338.7,553.64 C348.73,556.29 358.7,558.77 368.46,561 C464.58,582.98 563.4553,597.2518 645.2953,607.0618" fill="none" id="Bilanzierung-to-WahlrechtPrognosegrundlage" style="stroke:#181818;stroke-width:1;"/><polygon fill="#181818" points="657.21,608.49,651.7287,603.8043,645.2953,607.0618,650.7766,611.7475,657.21,608.49" style="stroke:#181818;stroke-width:1;"/><text fill="#000000" font-family="sans-serif" font-size="13" lengthAdjust="spacing" textLength="190.7852" x="389.96" y="557.0669">wahlrechtPrognosegrundlage</text><text fill="#000000" font-family="sans-serif" font-size="13" lengthAdjust="spacing" textLength="24.8066" x="624.7683" y="620.2403">0..1</text></g><!--link Bilanzierung to WahlrechtPrognosegrundlage--><g class="link" data-entity-1="Bilanzierung" data-entity-2="WahlrechtPrognosegrundlage" data-source-line="41" data-uid="lnk29" id="link_Bilanzierung_WahlrechtPrognosegrundlage"><path codeLine="41" d="M260.88,572.2 C292.74,594.26 330.35,615.67 368.46,627 C465.2,655.76 568.7287,652.0964 652.0687,641.9064" fill="none" id="Bilanzierung-to-WahlrechtPrognosegrundlage-1" style="stroke:#181818;stroke-width:1;"/><polygon fill="#181818" points="663.98,640.45,657.5389,637.2078,652.0687,641.9064,658.5098,645.1486,663.98,640.45" style="stroke:#181818;stroke-width:1;"/><text fill="#000000" font-family="sans-serif" font-size="13" lengthAdjust="spacing" textLength="231.334" x="369.46" y="623.0669">grundWahlrechtPrognosegrundlage</text><text fill="#000000" font-family="sans-serif" font-size="13" lengthAdjust="spacing" textLength="24.8066" x="624.7452" y="655.8097">0..1</text></g><!--link Bilanzierung to Fallgruppenzuordnung--><g class="link" data-entity-1="Bilanzierung" data-entity-2="Fallgruppenzuordnung" data-source-line="42" data-uid="lnk30" id="link_Bilanzierung_Fallgruppenzuordnung"><path codeLine="42" d="M187.53,572.03 C209.03,662.36 259.87,814.11 368.46,886 C459.15,946.05 575.5389,945.4178 663.9189,933.9978" fill="none" id="Bilanzierung-to-Fallgruppenzuordnung" style="stroke:#181818;stroke-width:1;"/><polygon fill="#181818" points="675.82,932.46,669.3569,929.2619,663.9189,933.9978,670.3821,937.1959,675.82,932.46" style="stroke:#181818;stroke-width:1;"/><text fill="#000000" font-family="sans-serif" font-size="13" lengthAdjust="spacing" textLength="143.9268" x="413.46" y="882.0669">fallgruppenzuordnung</text><text fill="#000000" font-family="sans-serif" font-size="13" lengthAdjust="spacing" textLength="24.8066" x="643.1564" y="946.5962">0..1</text></g><!--link Bilanzierung to Abwicklungsmodell--><g class="link" data-entity-1="Bilanzierung" data-entity-2="Abwicklungsmodell" data-source-line="43" data-uid="lnk31" id="link_Bilanzierung_Abwicklungsmodell"><path codeLine="43" d="M232.49,572.27 C267.6,609.84 315.6,652.33 368.46,674 C470.15,715.69 586.2879,715.3013 671.5279,707.6613" fill="none" id="Bilanzierung-to-Abwicklungsmodell" style="stroke:#181818;stroke-width:1;"/><polygon fill="#181818" points="683.48,706.59,677.1469,703.1416,671.5279,707.6613,677.861,711.1097,683.48,706.59" style="stroke:#181818;stroke-width:1;"/><text fill="#000000" font-family="sans-serif" font-size="13" lengthAdjust="spacing" textLength="124.3442" x="422.96" y="670.0669">abwicklungsmodell</text><text fill="#000000" font-family="sans-serif" font-size="13" lengthAdjust="spacing" textLength="24.8066" x="650.7429" y="720.3262">0..1</text></g><!--SRC=[nHTTRzCmy7dv5QVsRTAIJOmnHJ2fPGCXyR47f4cC2Zd9DV6Qs97jKbRWlsEdJPilRvqccZn4llDz-tntJd6gG74GD4uKH5HWg2XdZXEcH4eOtDvEQOg-fx-4P-Y9EMCel0KNCs_yvVJgABzN2MUrTSH3wRckvoh-QmMeBFSIbQKUoQaNy5Dq0-uQnB040feIjgIevSVkk0905PXClhFNaYxHFpc-w68T094r3lZj76H4p5JAPyHu9Zz4u8DK0cwFNVTa0c_WCsVe75J5o01ZofWcZ8X2HJDya1fPX8_IpWHIsQtw9uf0a7cOI3AVAgIfCTo7ImnfHj8cTIue5rGHL9g6CjNO_-iuZ6GeSnBYVpy_M0EJIH7vDGJ3yTdbgz6v2VwUyoX66IP49xNamHtEbFk-WO0ceZEdcc8AxvgSEjHxY7J8iqgeDLIDjGPXU7KyEZzxkuTWbwOCDr26B4Rta_b3yMz7SqDMM5qGzM2ergTomRKwz-Dc2TjbjzrRhiBuBVb-ZXxPl7hs1gmUle5X69s4Brxkuwfjh1bkGHsDc769iLOIfKJdmdKJ0orCEzRTiWfFMzoz-4dYM62yQY2wMXEcj1fbUjN8jWFM7Ol_LXr57ApIUed74gdI_In1fkvpzriLWXfayRN6N_XNu-h5fmL9KZt-9AgTr3VbLZkxxLiMr-rgYZZOvVMJ-C62XZCpaCYCHvYcxgY9WHR6bk1DkbLYDx5z5JAjp2JpTRc2pSfUi5RxPQ5QGRtO7t1Z-vX_rNONVulD1TrgIZPKlTWw9McgiphFaItdN4JCrD5t7KZeGbeSwn9Q-Dabmmp9zLV6qT6VYt9yRSsC3LfDV0W3CtGFjeru7NiVVfWKi30S3ZPZMtKCyM4xQ3ocox2kvYqVxaWYK6vV3sL5UOeCXLcksucQYv48T0r-2kzCLoPa2nIxHQZU9doeDO6T9DYRhG_MzhcJv7PXzw5Le1yxrbBIkdxe5o4gGbDvlQkWcaaFD1qV5lOsyMpPnVhcUGewhxCFNRTqjvDlTHrzugtEuIHKlyGpp08Kqf49Nq1T-9HY6ib_]--></g></svg>