<?xml version="1.0" encoding="us-ascii" standalone="no"?><svg xmlns="http://www.w3.org/2000/svg" xmlns:xlink="http://www.w3.org/1999/xlink" contentStyleType="text/css" height="760px" preserveAspectRatio="none" style="width:779px;height:760px;background:#FFFFFF;" version="1.1" viewBox="0 0 779 760" width="779px" zoomAndPan="magnify"><defs/><g><!--cluster bo4e--><g id="cluster_bo4e"><path d="M515.5,6 L556.5,6 A3.75,3.75 0 0 1 559,8.5 L566,28.2969 L769.5,28.2969 A2.5,2.5 0 0 1 772,30.7969 L772,750.5 A2.5,2.5 0 0 1 769.5,753 L515.5,753 A2.5,2.5 0 0 1 513,750.5 L513,8.5 A2.5,2.5 0 0 1 515.5,6 " fill="none" style="stroke:#000000;stroke-width:1.5;"/><line style="stroke:#000000;stroke-width:1.5;" x1="513" x2="566" y1="28.2969" y2="28.2969"/><text fill="#000000" font-family="sans-serif" font-size="14" font-weight="bold" lengthAdjust="spacing" textLength="40" x="517" y="20.9951">bo4e</text></g><!--cluster bo--><g id="cluster_bo"><path d="M547.5,49 L613.5,49 A3.75,3.75 0 0 1 616,51.5 L623,71.2969 L737.5,71.2969 A2.5,2.5 0 0 1 740,73.7969 L740,281.5 A2.5,2.5 0 0 1 737.5,284 L547.5,284 A2.5,2.5 0 0 1 545,281.5 L545,51.5 A2.5,2.5 0 0 1 547.5,49 " fill="#B6D7A8" style="stroke:#000000;stroke-width:1.5;"/><line style="stroke:#000000;stroke-width:1.5;" x1="545" x2="623" y1="71.2969" y2="71.2969"/><a href="https://bo4e.github.io/BO4E-python/latest/api/bo4e.bo.html" target="_top" title="https://bo4e.github.io/BO4E-python/latest/api/bo4e.bo.html" xlink:actuate="onRequest" xlink:href="https://bo4e.github.io/BO4E-python/latest/api/bo4e.bo.html" xlink:show="new" xlink:title="https://bo4e.github.io/BO4E-python/latest/api/bo4e.bo.html" xlink:type="simple"><text fill="#0000FF" font-family="sans-serif" font-size="14" font-weight="bold" lengthAdjust="spacing" text-decoration="underline" textLength="65" x="549" y="63.9951">bo4e.bo</text></a></g><!--cluster com--><g id="cluster_com"><path d="M539.5,308 L618.5,308 A3.75,3.75 0 0 1 621,310.5 L628,330.2969 L745.5,330.2969 A2.5,2.5 0 0 1 748,332.7969 L748,467.5 A2.5,2.5 0 0 1 745.5,470 L539.5,470 A2.5,2.5 0 0 1 537,467.5 L537,310.5 A2.5,2.5 0 0 1 539.5,308 " fill="#E0A86C" style="stroke:#000000;stroke-width:1.5;"/><line style="stroke:#000000;stroke-width:1.5;" x1="537" x2="628" y1="330.2969" y2="330.2969"/><a href="https://bo4e.github.io/BO4E-python/latest/api/bo4e.com.html" target="_top" title="https://bo4e.github.io/BO4E-python/latest/api/bo4e.com.html" xlink:actuate="onRequest" xlink:href="https://bo4e.github.io/BO4E-python/latest/api/bo4e.com.html" xlink:show="new" xlink:title="https://bo4e.github.io/BO4E-python/latest/api/bo4e.com.html" xlink:type="simple"><text fill="#0000FF" font-family="sans-serif" font-size="14" font-weight="bold" lengthAdjust="spacing" text-decoration="underline" textLength="78" x="541" y="322.9951">bo4e.com</text></a></g><!--cluster enum--><g id="cluster_enum"><path d="M548.5,494 L638.5,494 A3.75,3.75 0 0 1 641,496.5 L648,516.2969 L736.5,516.2969 A2.5,2.5 0 0 1 739,518.7969 L739,726.5 A2.5,2.5 0 0 1 736.5,729 L548.5,729 A2.5,2.5 0 0 1 546,726.5 L546,496.5 A2.5,2.5 0 0 1 548.5,494 " fill="#D1C358" style="stroke:#000000;stroke-width:1.5;"/><line style="stroke:#000000;stroke-width:1.5;" x1="546" x2="648" y1="516.2969" y2="516.2969"/><a href="https://bo4e.github.io/BO4E-python/latest/api/bo4e.enum.html" target="_top" title="https://bo4e.github.io/BO4E-python/latest/api/bo4e.enum.html" xlink:actuate="onRequest" xlink:href="https://bo4e.github.io/BO4E-python/latest/api/bo4e.enum.html" xlink:show="new" xlink:title="https://bo4e.github.io/BO4E-python/latest/api/bo4e.enum.html" xlink:type="simple"><text fill="#0000FF" font-family="sans-serif" font-size="14" font-weight="bold" lengthAdjust="spacing" text-decoration="underline" textLength="89" x="550" y="508.9951">bo4e.enum</text></a></g><!--class Vertrag--><g id="elem_Vertrag"><rect codeLine="11" fill="#F1F1F1" height="37.9375" id="Vertrag" rx="2.5" ry="2.5" style="stroke:#181818;stroke-width:0.5;" width="110" x="587.5" y="84.03"/><ellipse cx="602.5" cy="102.9987" fill="#ADD1B2" rx="11" ry="11" style="stroke:#181818;stroke-width:1.0;"/><path d="M605.4688,108.6394 Q604.8906,108.9362 604.25,109.0769 Q603.6094,109.2331 602.9063,109.2331 Q600.4063,109.2331 599.0781,107.5925 Q597.7656,105.9362 597.7656,102.8112 Q597.7656,99.6862 599.0781,98.03 Q600.4063,96.3737 602.9063,96.3737 Q603.6094,96.3737 604.25,96.53 Q604.9063,96.6862 605.4688,96.9831 L605.4688,99.7019 Q604.8438,99.1237 604.25,98.8581 Q603.6563,98.5769 603.0313,98.5769 Q601.6875,98.5769 601,99.655 Q600.3125,100.7175 600.3125,102.8112 Q600.3125,104.905 601,105.9831 Q601.6875,107.0456 603.0313,107.0456 Q603.6563,107.0456 604.25,106.78 Q604.8438,106.4987 605.4688,105.9206 L605.4688,108.6394 Z " fill="#000000"/><a href="https://bo4e.github.io/BO4E-python/latest/api/bo4e.bo.html#bo4e.bo.vertrag.Vertrag" target="_top" title="https://bo4e.github.io/BO4E-python/latest/api/bo4e.bo.html#bo4e.bo.vertrag.Vertrag" xlink:actuate="onRequest" xlink:href="https://bo4e.github.io/BO4E-python/latest/api/bo4e.bo.html#bo4e.bo.vertrag.Vertrag" xlink:show="new" xlink:title="https://bo4e.github.io/BO4E-python/latest/api/bo4e.bo.html#bo4e.bo.vertrag.Vertrag" xlink:type="simple"><text fill="#0000FF" font-family="sans-serif" font-size="14" lengthAdjust="spacing" text-decoration="underline" textLength="50" x="630.5" y="102.0251">Vertrag</text></a><text fill="#000000" font-family="sans-serif" font-size="10" lengthAdjust="spacing" textLength="78" x="616.5" y="114.6091">bo4e.bo.vertrag</text></g><!--class Geschaeftspartner--><g id="elem_Geschaeftspartner"><rect codeLine="12" fill="#F1F1F1" height="37.9375" id="Geschaeftspartner" rx="2.5" ry="2.5" style="stroke:#181818;stroke-width:0.5;" width="163" x="561" y="157.03"/><ellipse cx="576" cy="175.9987" fill="#ADD1B2" rx="11" ry="11" style="stroke:#181818;stroke-width:1.0;"/><path d="M578.9688,181.6394 Q578.3906,181.9362 577.75,182.0769 Q577.1094,182.2331 576.4063,182.2331 Q573.9063,182.2331 572.5781,180.5925 Q571.2656,178.9362 571.2656,175.8112 Q571.2656,172.6862 572.5781,171.03 Q573.9063,169.3737 576.4063,169.3737 Q577.1094,169.3737 577.75,169.53 Q578.4063,169.6862 578.9688,169.9831 L578.9688,172.7019 Q578.3438,172.1237 577.75,171.8581 Q577.1563,171.5769 576.5313,171.5769 Q575.1875,171.5769 574.5,172.655 Q573.8125,173.7175 573.8125,175.8112 Q573.8125,177.905 574.5,178.9831 Q575.1875,180.0456 576.5313,180.0456 Q577.1563,180.0456 577.75,179.78 Q578.3438,179.4987 578.9688,178.9206 L578.9688,181.6394 Z " fill="#000000"/><a href="https://bo4e.github.io/BO4E-python/latest/api/bo4e.bo.html#bo4e.bo.geschaeftspartner.Geschaeftspartner" target="_top" title="https://bo4e.github.io/BO4E-python/latest/api/bo4e.bo.html#bo4e.bo.geschaeftspartner.Geschaeftspartner" xlink:actuate="onRequest" xlink:href="https://bo4e.github.io/BO4E-python/latest/api/bo4e.bo.html#bo4e.bo.geschaeftspartner.Geschaeftspartner" xlink:show="new" xlink:title="https://bo4e.github.io/BO4E-python/latest/api/bo4e.bo.html#bo4e.bo.geschaeftspartner.Geschaeftspartner" xlink:type="simple"><text fill="#0000FF" font-family="sans-serif" font-size="14" lengthAdjust="spacing" text-decoration="underline" textLength="129" x="591" y="175.0251">Geschaeftspartner</text></a><text fill="#000000" font-family="sans-serif" font-size="10" lengthAdjust="spacing" textLength="131" x="590" y="187.6091">bo4e.bo.geschaeftspartner</text></g><!--class Geschaeftsobjekt--><g id="elem_Geschaeftsobjekt"><rect codeLine="13" fill="#F1F1F1" height="37.9375" id="Geschaeftsobjekt" rx="2.5" ry="2.5" style="stroke:#181818;stroke-width:0.5;" width="156" x="564.5" y="230.03"/><ellipse cx="579.5" cy="248.9987" fill="#ADD1B2" rx="11" ry="11" style="stroke:#181818;stroke-width:1.0;"/><path d="M582.4688,254.6394 Q581.8906,254.9362 581.25,255.0769 Q580.6094,255.2331 579.9063,255.2331 Q577.4063,255.2331 576.0781,253.5925 Q574.7656,251.9362 574.7656,248.8112 Q574.7656,245.6862 576.0781,244.03 Q577.4063,242.3737 579.9063,242.3737 Q580.6094,242.3737 581.25,242.53 Q581.9063,242.6862 582.4688,242.9831 L582.4688,245.7019 Q581.8438,245.1237 581.25,244.8581 Q580.6563,244.5769 580.0313,244.5769 Q578.6875,244.5769 578,245.655 Q577.3125,246.7175 577.3125,248.8112 Q577.3125,250.905 578,251.9831 Q578.6875,253.0456 580.0313,253.0456 Q580.6563,253.0456 581.25,252.78 Q581.8438,252.4987 582.4688,251.9206 L582.4688,254.6394 Z " fill="#000000"/><a href="https://bo4e.github.io/BO4E-python/latest/api/bo4e.bo.html#bo4e.bo.geschaeftsobjekt.Geschaeftsobjekt" target="_top" title="https://bo4e.github.io/BO4E-python/latest/api/bo4e.bo.html#bo4e.bo.geschaeftsobjekt.Geschaeftsobjekt" xlink:actuate="onRequest" xlink:href="https://bo4e.github.io/BO4E-python/latest/api/bo4e.bo.html#bo4e.bo.geschaeftsobjekt.Geschaeftsobjekt" xlink:show="new" xlink:title="https://bo4e.github.io/BO4E-python/latest/api/bo4e.bo.html#bo4e.bo.geschaeftsobjekt.Geschaeftsobjekt" xlink:type="simple"><text fill="#0000FF" font-family="sans-serif" font-size="14" lengthAdjust="spacing" text-decoration="underline" textLength="122" x="594.5" y="248.0251">Geschaeftsobjekt</text></a><text fill="#000000" font-family="sans-serif" font-size="10" lengthAdjust="spacing" textLength="124" x="593.5" y="260.6091">bo4e.bo.geschaeftsobjekt</text></g><!--class Unterschrift--><g id="elem_Unterschrift"><rect codeLine="16" fill="#F1F1F1" height="37.9375" id="Unterschrift" rx="2.5" ry="2.5" style="stroke:#181818;stroke-width:0.5;" width="139" x="573" y="343.03"/><ellipse cx="588" cy="361.9988" fill="#ADD1B2" rx="11" ry="11" style="stroke:#181818;stroke-width:1.0;"/><path d="M590.9688,367.6394 Q590.3906,367.9363 589.75,368.0769 Q589.1094,368.2331 588.4063,368.2331 Q585.9063,368.2331 584.5781,366.5925 Q583.2656,364.9363 583.2656,361.8113 Q583.2656,358.6863 584.5781,357.03 Q585.9063,355.3738 588.4063,355.3738 Q589.1094,355.3738 589.75,355.53 Q590.4063,355.6863 590.9688,355.9831 L590.9688,358.7019 Q590.3438,358.1238 589.75,357.8581 Q589.1563,357.5769 588.5313,357.5769 Q587.1875,357.5769 586.5,358.655 Q585.8125,359.7175 585.8125,361.8113 Q585.8125,363.905 586.5,364.9831 Q587.1875,366.0456 588.5313,366.0456 Q589.1563,366.0456 589.75,365.78 Q590.3438,365.4988 590.9688,364.9206 L590.9688,367.6394 Z " fill="#000000"/><a href="https://bo4e.github.io/BO4E-python/latest/api/bo4e.com.html#bo4e.com.unterschrift.Unterschrift" target="_top" title="https://bo4e.github.io/BO4E-python/latest/api/bo4e.com.html#bo4e.com.unterschrift.Unterschrift" xlink:actuate="onRequest" xlink:href="https://bo4e.github.io/BO4E-python/latest/api/bo4e.com.html#bo4e.com.unterschrift.Unterschrift" xlink:show="new" xlink:title="https://bo4e.github.io/BO4E-python/latest/api/bo4e.com.html#bo4e.com.unterschrift.Unterschrift" xlink:type="simple"><text fill="#0000FF" font-family="sans-serif" font-size="14" lengthAdjust="spacing" text-decoration="underline" textLength="80" x="615.5" y="361.0251">Unterschrift</text></a><text fill="#000000" font-family="sans-serif" font-size="10" lengthAdjust="spacing" textLength="107" x="602" y="373.6091">bo4e.com.unterschrift</text></g><!--class Vertragskonditionen--><g id="elem_Vertragskonditionen"><rect codeLine="17" fill="#F1F1F1" height="37.9375" id="Vertragskonditionen" rx="2.5" ry="2.5" style="stroke:#181818;stroke-width:0.5;" width="179" x="553" y="416.03"/><ellipse cx="568" cy="434.9988" fill="#ADD1B2" rx="11" ry="11" style="stroke:#181818;stroke-width:1.0;"/><path d="M570.9688,440.6394 Q570.3906,440.9363 569.75,441.0769 Q569.1094,441.2331 568.4063,441.2331 Q565.9063,441.2331 564.5781,439.5925 Q563.2656,437.9363 563.2656,434.8113 Q563.2656,431.6863 564.5781,430.03 Q565.9063,428.3738 568.4063,428.3738 Q569.1094,428.3738 569.75,428.53 Q570.4063,428.6863 570.9688,428.9831 L570.9688,431.7019 Q570.3438,431.1238 569.75,430.8581 Q569.1563,430.5769 568.5313,430.5769 Q567.1875,430.5769 566.5,431.655 Q565.8125,432.7175 565.8125,434.8113 Q565.8125,436.905 566.5,437.9831 Q567.1875,439.0456 568.5313,439.0456 Q569.1563,439.0456 569.75,438.78 Q570.3438,438.4988 570.9688,437.9206 L570.9688,440.6394 Z " fill="#000000"/><a href="https://bo4e.github.io/BO4E-python/latest/api/bo4e.com.html#bo4e.com.vertragskonditionen.Vertragskonditionen" target="_top" title="https://bo4e.github.io/BO4E-python/latest/api/bo4e.com.html#bo4e.com.vertragskonditionen.Vertragskonditionen" xlink:actuate="onRequest" xlink:href="https://bo4e.github.io/BO4E-python/latest/api/bo4e.com.html#bo4e.com.vertragskonditionen.Vertragskonditionen" xlink:show="new" xlink:title="https://bo4e.github.io/BO4E-python/latest/api/bo4e.com.html#bo4e.com.vertragskonditionen.Vertragskonditionen" xlink:type="simple"><text fill="#0000FF" font-family="sans-serif" font-size="14" lengthAdjust="spacing" text-decoration="underline" textLength="140" x="585.5" y="434.0251">Vertragskonditionen</text></a><text fill="#000000" font-family="sans-serif" font-size="10" lengthAdjust="spacing" textLength="147" x="582" y="446.6091">bo4e.com.vertragskonditionen</text></g><!--class Vertragsstatus--><g id="elem_Vertragsstatus"><rect codeLine="20" fill="#F1F1F1" height="37.9375" id="Vertragsstatus" rx="2.5" ry="2.5" style="stroke:#181818;stroke-width:0.5;" width="161" x="562" y="529.03"/><ellipse cx="577" cy="547.9988" fill="#ADD1B2" rx="11" ry="11" style="stroke:#181818;stroke-width:1.0;"/><path d="M579.9688,553.6394 Q579.3906,553.9363 578.75,554.0769 Q578.1094,554.2331 577.4063,554.2331 Q574.9063,554.2331 573.5781,552.5925 Q572.2656,550.9363 572.2656,547.8113 Q572.2656,544.6863 573.5781,543.03 Q574.9063,541.3738 577.4063,541.3738 Q578.1094,541.3738 578.75,541.53 Q579.4063,541.6863 579.9688,541.9831 L579.9688,544.7019 Q579.3438,544.1238 578.75,543.8581 Q578.1563,543.5769 577.5313,543.5769 Q576.1875,543.5769 575.5,544.655 Q574.8125,545.7175 574.8125,547.8113 Q574.8125,549.905 575.5,550.9831 Q576.1875,552.0456 577.5313,552.0456 Q578.1563,552.0456 578.75,551.78 Q579.3438,551.4988 579.9688,550.9206 L579.9688,553.6394 Z " fill="#000000"/><a href="https://bo4e.github.io/BO4E-python/latest/api/bo4e.enum.html#bo4e.enum.vertragsstatus.Vertragsstatus" target="_top" title="https://bo4e.github.io/BO4E-python/latest/api/bo4e.enum.html#bo4e.enum.vertragsstatus.Vertragsstatus" xlink:actuate="onRequest" xlink:href="https://bo4e.github.io/BO4E-python/latest/api/bo4e.enum.html#bo4e.enum.vertragsstatus.Vertragsstatus" xlink:show="new" xlink:title="https://bo4e.github.io/BO4E-python/latest/api/bo4e.enum.html#bo4e.enum.vertragsstatus.Vertragsstatus" xlink:type="simple"><text fill="#0000FF" font-family="sans-serif" font-size="14" lengthAdjust="spacing" text-decoration="underline" textLength="101" x="605" y="547.0251">Vertragsstatus</text></a><text fill="#000000" font-family="sans-serif" font-size="10" lengthAdjust="spacing" textLength="129" x="591" y="559.6091">bo4e.enum.vertragsstatus</text></g><!--class Vertragsart--><g id="elem_Vertragsart"><rect codeLine="21" fill="#F1F1F1" height="37.9375" id="Vertragsart" rx="2.5" ry="2.5" style="stroke:#181818;stroke-width:0.5;" width="145" x="570" y="602.03"/><ellipse cx="585" cy="620.9988" fill="#ADD1B2" rx="11" ry="11" style="stroke:#181818;stroke-width:1.0;"/><path d="M587.9688,626.6394 Q587.3906,626.9363 586.75,627.0769 Q586.1094,627.2331 585.4063,627.2331 Q582.9063,627.2331 581.5781,625.5925 Q580.2656,623.9363 580.2656,620.8113 Q580.2656,617.6863 581.5781,616.03 Q582.9063,614.3738 585.4063,614.3738 Q586.1094,614.3738 586.75,614.53 Q587.4063,614.6863 587.9688,614.9831 L587.9688,617.7019 Q587.3438,617.1238 586.75,616.8581 Q586.1563,616.5769 585.5313,616.5769 Q584.1875,616.5769 583.5,617.655 Q582.8125,618.7175 582.8125,620.8113 Q582.8125,622.905 583.5,623.9831 Q584.1875,625.0456 585.5313,625.0456 Q586.1563,625.0456 586.75,624.78 Q587.3438,624.4988 587.9688,623.9206 L587.9688,626.6394 Z " fill="#000000"/><a href="https://bo4e.github.io/BO4E-python/latest/api/bo4e.enum.html#bo4e.enum.vertragsart.Vertragsart" target="_top" title="https://bo4e.github.io/BO4E-python/latest/api/bo4e.enum.html#bo4e.enum.vertragsart.Vertragsart" xlink:actuate="onRequest" xlink:href="https://bo4e.github.io/BO4E-python/latest/api/bo4e.enum.html#bo4e.enum.vertragsart.Vertragsart" xlink:show="new" xlink:title="https://bo4e.github.io/BO4E-python/latest/api/bo4e.enum.html#bo4e.enum.vertragsart.Vertragsart" xlink:type="simple"><text fill="#0000FF" font-family="sans-serif" font-size="14" lengthAdjust="spacing" text-decoration="underline" textLength="76" x="617.5" y="620.0251">Vertragsart</text></a><text fill="#000000" font-family="sans-serif" font-size="10" lengthAdjust="spacing" textLength="113" x="599" y="632.6091">bo4e.enum.vertragsart</text></g><!--class Sparte--><g id="elem_Sparte"><rect codeLine="22" fill="#F1F1F1" height="37.9375" id="Sparte" rx="2.5" ry="2.5" style="stroke:#181818;stroke-width:0.5;" width="121" x="582" y="675.03"/><ellipse cx="597" cy="693.9988" fill="#ADD1B2" rx="11" ry="11" style="stroke:#181818;stroke-width:1.0;"/><path d="M599.9688,699.6394 Q599.3906,699.9363 598.75,700.0769 Q598.1094,700.2331 597.4063,700.2331 Q594.9063,700.2331 593.5781,698.5925 Q592.2656,696.9363 592.2656,693.8113 Q592.2656,690.6863 593.5781,689.03 Q594.9063,687.3738 597.4063,687.3738 Q598.1094,687.3738 598.75,687.53 Q599.4063,687.6863 599.9688,687.9831 L599.9688,690.7019 Q599.3438,690.1238 598.75,689.8581 Q598.1563,689.5769 597.5313,689.5769 Q596.1875,689.5769 595.5,690.655 Q594.8125,691.7175 594.8125,693.8113 Q594.8125,695.905 595.5,696.9831 Q596.1875,698.0456 597.5313,698.0456 Q598.1563,698.0456 598.75,697.78 Q599.3438,697.4988 599.9688,696.9206 L599.9688,699.6394 Z " fill="#000000"/><a href="https://bo4e.github.io/BO4E-python/latest/api/bo4e.enum.html#bo4e.enum.sparte.Sparte" target="_top" title="https://bo4e.github.io/BO4E-python/latest/api/bo4e.enum.html#bo4e.enum.sparte.Sparte" xlink:actuate="onRequest" xlink:href="https://bo4e.github.io/BO4E-python/latest/api/bo4e.enum.html#bo4e.enum.sparte.Sparte" xlink:show="new" xlink:title="https://bo4e.github.io/BO4E-python/latest/api/bo4e.enum.html#bo4e.enum.sparte.Sparte" xlink:type="simple"><text fill="#0000FF" font-family="sans-serif" font-size="14" lengthAdjust="spacing" text-decoration="underline" textLength="45" x="633" y="693.0251">Sparte</text></a><text fill="#000000" font-family="sans-serif" font-size="10" lengthAdjust="spacing" textLength="89" x="611" y="705.6091">bo4e.enum.sparte</text></g><!--class Buendelvertrag--><g id="elem_Buendelvertrag"><rect codeLine="3" fill="#F1F1F1" height="111.125" id="Buendelvertrag" rx="2.5" ry="2.5" style="stroke:#181818;stroke-width:0.5;" width="331" x="7" y="300.44"/><ellipse cx="110.25" cy="319.4088" fill="#ADD1B2" rx="11" ry="11" style="stroke:#181818;stroke-width:1.0;"/><path d="M113.2188,325.0494 Q112.6406,325.3463 112,325.4869 Q111.3594,325.6431 110.6563,325.6431 Q108.1563,325.6431 106.8281,324.0025 Q105.5156,322.3463 105.5156,319.2213 Q105.5156,316.0963 106.8281,314.44 Q108.1563,312.7838 110.6563,312.7838 Q111.3594,312.7838 112,312.94 Q112.6563,313.0963 113.2188,313.3931 L113.2188,316.1119 Q112.5938,315.5338 112,315.2681 Q111.4063,314.9869 110.7813,314.9869 Q109.4375,314.9869 108.75,316.065 Q108.0625,317.1275 108.0625,319.2213 Q108.0625,321.315 108.75,322.3931 Q109.4375,323.4556 110.7813,323.4556 Q111.4063,323.4556 112,323.19 Q112.5938,322.9088 113.2188,322.3306 L113.2188,325.0494 Z " fill="#000000"/><a href="https://bo4e.github.io/BO4E-python/latest/api/bo4e.bo.html#bo4e.bo.buendelvertrag.Buendelvertrag" target="_top" title="https://bo4e.github.io/BO4E-python/latest/api/bo4e.bo.html#bo4e.bo.buendelvertrag.Buendelvertrag" xlink:actuate="onRequest" xlink:href="https://bo4e.github.io/BO4E-python/latest/api/bo4e.bo.html#bo4e.bo.buendelvertrag.Buendelvertrag" xlink:show="new" xlink:title="https://bo4e.github.io/BO4E-python/latest/api/bo4e.bo.html#bo4e.bo.buendelvertrag.Buendelvertrag" xlink:type="simple"><text fill="#0000FF" font-family="sans-serif" font-size="14" lengthAdjust="spacing" text-decoration="underline" textLength="106" x="135.75" y="318.4351">Buendelvertrag</text></a><text fill="#000000" font-family="sans-serif" font-size="10" lengthAdjust="spacing" textLength="116" x="130.75" y="331.0191">bo4e.bo.buendelvertrag</text><line style="stroke:#181818;stroke-width:0.5;" x1="8" x2="337" y1="338.3775" y2="338.3775"/><text fill="#000000" font-family="sans-serif" font-size="14" lengthAdjust="spacing" textLength="242" x="13" y="355.3726">vertragsnummer : str [0..1] = None</text><text fill="#000000" font-family="sans-serif" font-size="14" lengthAdjust="spacing" textLength="319" x="13" y="371.6695">vertragsbeginn : AwareDatetime [0..1] = None</text><text fill="#000000" font-family="sans-serif" font-size="14" lengthAdjust="spacing" textLength="307" x="13" y="387.9664">vertragsende : AwareDatetime [0..1] = None</text><text fill="#000000" font-family="sans-serif" font-size="14" lengthAdjust="spacing" textLength="224" x="13" y="404.2632">beschreibung : str [0..1] = None</text></g><!--link Buendelvertrag to Geschaeftsobjekt--><g id="link_Buendelvertrag_Geschaeftsobjekt"><path codeLine="25" d="M338.5,318.28 C415.34,300.71 485.543,284.6627 546.763,270.6627 " fill="none" id="Buendelvertrag-to-Geschaeftsobjekt" style="stroke:#181818;stroke-width:1.0;"/><polygon fill="none" points="564.31,266.65,545.4254,264.8137,548.1005,276.5117,564.31,266.65" style="stroke:#181818;stroke-width:1.0;"/></g><!--link Buendelvertrag to Vertragsart--><g id="link_Buendelvertrag_Vertragsart"><path codeLine="26" d="M226.51,411.81 C263.53,448.44 315.55,495.4 368,528 C423.87,562.72 442.69,562.91 505,584 C525.82,591.05 537.172,594.5727 558.212,600.2327 " fill="none" id="Buendelvertrag-to-Vertragsart" style="stroke:#181818;stroke-width:1.0;"/><polygon fill="#181818" points="569.8,603.35,565.0451,597.9287,558.212,600.2327,562.9669,605.654,569.8,603.35" style="stroke:#181818;stroke-width:1.0;"/><text fill="#000000" font-family="sans-serif" font-size="13" lengthAdjust="spacing" textLength="71" x="397" y="524.0669">vertragsart</text><text fill="#000000" font-family="sans-serif" font-size="13" lengthAdjust="spacing" textLength="24" x="537.9917" y="614.4874">0..1</text></g><!--link Buendelvertrag to Vertragsstatus--><g id="link_Buendelvertrag_Vertragsstatus"><path codeLine="27" d="M275.34,412.01 C304.8,427.21 337.31,443.03 368,456 C436.99,485.14 507.1965,508.1372 563.2165,525.1272 " fill="none" id="Buendelvertrag-to-Vertragsstatus" style="stroke:#181818;stroke-width:1.0;"/><polygon fill="#181818" points="574.7,528.61,570.1192,523.0408,563.2165,525.1272,567.7973,530.6964,574.7,528.61" style="stroke:#181818;stroke-width:1.0;"/><text fill="#000000" font-family="sans-serif" font-size="13" lengthAdjust="spacing" textLength="93" x="386" y="452.0669">vertragsstatus</text><text fill="#000000" font-family="sans-serif" font-size="13" lengthAdjust="spacing" textLength="24" x="530.2513" y="518.8037">0..1</text></g><!--link Buendelvertrag to Sparte--><g id="link_Buendelvertrag_Sparte"><path codeLine="28" d="M204.33,411.83 C237.91,467.98 296.51,553.54 368,606 C432.14,653.06 510.71,673.5692 569.73,683.9092 " fill="none" id="Buendelvertrag-to-Sparte" style="stroke:#181818;stroke-width:1.0;"/><polygon fill="#181818" points="581.55,685.98,576.3303,681.0046,569.73,683.9092,574.9497,688.8846,581.55,685.98" style="stroke:#181818;stroke-width:1.0;"/><text fill="#000000" font-family="sans-serif" font-size="13" lengthAdjust="spacing" textLength="41" x="412" y="602.0669">sparte</text><text fill="#000000" font-family="sans-serif" font-size="13" lengthAdjust="spacing" textLength="24" x="550.027" y="698.0002">0..1</text></g><!--link Buendelvertrag to Geschaeftspartner--><g id="link_Buendelvertrag_Geschaeftspartner"><path codeLine="29" d="M231.58,300.1 C267.87,268.58 317.23,231.51 368,211 C429.58,186.12 492.76,178.4208 548.7,176.1308 " fill="none" id="Buendelvertrag-to-Geschaeftspartner" style="stroke:#181818;stroke-width:1.0;"/><polygon fill="#181818" points="560.69,175.64,554.5314,171.8888,548.7,176.1308,554.8586,179.8821,560.69,175.64" style="stroke:#181818;stroke-width:1.0;"/><text fill="#000000" font-family="sans-serif" font-size="13" lengthAdjust="spacing" textLength="108" x="378.5" y="178.0669">vertragspartner1</text><text fill="#000000" font-family="sans-serif" font-size="13" lengthAdjust="spacing" textLength="24" x="528.9214" y="172.0616">0..1</text></g><!--link Buendelvertrag to Geschaeftspartner--><g id="link_Buendelvertrag_Geschaeftspartner"><path codeLine="30" d="M294.05,300.04 C318.28,289.73 343.75,279.53 368,271 C424.04,251.27 453.55,276.52 497,236 C504.92,228.62 497.08,220.38 505,213 C520.27,198.77 528.862,193.0645 549.012,187.5745 " fill="none" id="Buendelvertrag-to-Geschaeftspartner-1" style="stroke:#181818;stroke-width:1.0;"/><polygon fill="#181818" points="560.59,184.42,553.7495,182.1379,549.012,187.5745,555.8525,189.8566,560.59,184.42" style="stroke:#181818;stroke-width:1.0;"/><text fill="#000000" font-family="sans-serif" font-size="13" lengthAdjust="spacing" textLength="108" x="378.5" y="232.0669">vertragspartner2</text><text fill="#000000" font-family="sans-serif" font-size="13" lengthAdjust="spacing" textLength="24" x="529.1065" y="197.7609">0..1</text></g><!--link Buendelvertrag to Vertrag--><g id="link_Buendelvertrag_Vertrag"><path codeLine="31" d="M212.79,300.09 C248.07,254.29 304.05,191.59 368,157 C437.49,119.41 517.6018,108.5237 575.2018,105.0437 " fill="none" id="Buendelvertrag-to-Vertrag" style="stroke:#181818;stroke-width:1.0;"/><polygon fill="#181818" points="587.18,104.32,580.9497,100.6891,575.2018,105.0437,581.4321,108.6746,587.18,104.32" style="stroke:#181818;stroke-width:1.0;"/><text fill="#000000" font-family="sans-serif" font-size="13" lengthAdjust="spacing" textLength="99" x="383" y="113.0669">einzelvertraege</text><text fill="#000000" font-family="sans-serif" font-size="13" lengthAdjust="spacing" textLength="23" x="556.4539" y="117.4145">0..*</text></g><!--link Buendelvertrag to Vertragskonditionen--><g id="link_Buendelvertrag_Vertragskonditionen"><path codeLine="32" d="M338.41,408.74 C348.37,411.08 358.29,413.19 368,415 C429.08,426.35 486.9696,430.8512 540.8096,433.0012 " fill="none" id="Buendelvertrag-to-Vertragskonditionen" style="stroke:#181818;stroke-width:1.0;"/><polygon fill="#181818" points="552.8,433.48,546.9644,429.2438,540.8096,433.0012,546.6452,437.2374,552.8,433.48" style="stroke:#181818;stroke-width:1.0;"/><text fill="#000000" font-family="sans-serif" font-size="13" lengthAdjust="spacing" textLength="127" x="369" y="411.0669">vertragskonditionen</text><text fill="#000000" font-family="sans-serif" font-size="13" lengthAdjust="spacing" textLength="23" x="522.0519" y="446.0099">0..*</text></g><!--link Buendelvertrag to Unterschrift--><g id="link_Buendelvertrag_Unterschrift"><path codeLine="33" d="M338.5,358.12 C418.9,359.15 499.231,360.1756 560.631,360.9656 " fill="none" id="Buendelvertrag-to-Unterschrift" style="stroke:#181818;stroke-width:1.0;"/><polygon fill="#181818" points="572.63,361.12,566.682,357.0431,560.631,360.9656,566.579,365.0425,572.63,361.12" style="stroke:#181818;stroke-width:1.0;"/><text fill="#000000" font-family="sans-serif" font-size="13" lengthAdjust="spacing" textLength="111" x="377" y="355.0669">unterzeichnervp1</text><text fill="#000000" font-family="sans-serif" font-size="13" lengthAdjust="spacing" textLength="23" x="541.8744" y="373.8243">0..*</text></g><!--link Buendelvertrag to Unterschrift--><g id="link_Buendelvertrag_Unterschrift"><path codeLine="34" d="M338.3,383.2 C348.33,384.31 358.29,385.26 368,386 C425.17,390.38 439.86,390.71 497,386 C521.84,383.95 537.0073,382.0055 560.8773,377.8555 " fill="none" id="Buendelvertrag-to-Unterschrift-1" style="stroke:#181818;stroke-width:1.0;"/><polygon fill="#181818" points="572.7,375.8,566.1035,372.8869,560.8773,377.8555,567.4738,380.7686,572.7,375.8" style="stroke:#181818;stroke-width:1.0;"/><text fill="#000000" font-family="sans-serif" font-size="13" lengthAdjust="spacing" textLength="111" x="377" y="382.0669">unterzeichnervp2</text><text fill="#000000" font-family="sans-serif" font-size="13" lengthAdjust="spacing" textLength="23" x="541.9511" y="389.9035">0..*</text></g><!--SRC=[jLPDRvj043sNNp4ojqW6EqtJ2AMHx2RghJrKpSNb07WCsy2kjRiagjl-zomVQvOFrubCJl16RsRVpWmpfBYH81bm4YSIreHZ90cZbXMbWH0mMQqIARV2SzsGNQ0J4vdaeKEOk_nsSJVT_fO9esuQI1JI3RQaOeNCIMIMsXg4ET8rfe_89GzYPzc2q8Q-_vDU2x93Rpwx6GumWK1qlE2FzQv-5JJFCkJWWP0SLZF7cVlm2RuoYWqdn9XGgZYBfu3ZhT8lIOQ7sCL9nxWXYYZXICASneDd_xCi6cGeja64f-KLQk3xPIPg1FRoylRZugf8nPZ5qrMxhpDz_vywcGMgUUEAYOii1wfdLHgvfCYTBrqBz2o3KdkHIj4ztxUIpy9V-20DzPK1keOZsYjIHtfbL0rtQhz5B3CQJY6punG4-swskBhyV6hBwNFiFSgfH5vyK6GZdHy601FqazFrBUMQBcCBrIFYWT4rAIOdKlsbc3OOi0sh7mXeVawcVOGAengMHeaBQDQum62lvz7x3oVFbVrHTWFrPOKCP2xsYQiWj64_NGCXMgcgJ6-dMas8lMJr3iRx4R6AqLAgyFWoon66plVo0TNZWAwAMaggUCMswkxfwVJlZLuslS7LOolw6KoA3JXfUgcLBW-CTBpIl-wG9aHTwvT5gLEYjdHrsQDUhGlhFTCSNblcOmKwFnpeh0ca5x87IEXESp76uzx5e1cQKeqISyoyA5nhI7jG3k4TaYXHztdSpiS8ScvP2L5_OXbceQ9P8c5Fq8sx8PYknJC0]--></g></svg>