<svg xmlns="http://www.w3.org/2000/svg" xmlns:xlink="http://www.w3.org/1999/xlink" contentStyleType="text/css" data-diagram-type="CLASS" height="760px" preserveAspectRatio="none" style="width:1151px;height:760px;background:#FFFFFF;" version="1.1" viewBox="0 0 1151 760" width="1151px" zoomAndPan="magnify"><defs/><g><!--cluster bo4e--><g class="cluster" data-entity="bo4e" data-source-line="12" data-uid="ent0005" id="cluster_bo4e"><path d="M881,6 L920.876,6 A3.75,3.75 0 0 1 923.376,8.5 L930.376,28.2969 L1141.61,28.2969 A2.5,2.5 0 0 1 1144.11,30.7969 L1144.11,750.5 A2.5,2.5 0 0 1 1141.61,753 L881,753 A2.5,2.5 0 0 1 878.5,750.5 L878.5,8.5 A2.5,2.5 0 0 1 881,6" fill="none" style="stroke:#000000;stroke-width:1.5;"/><line style="stroke:#000000;stroke-width:1.5;" x1="878.5" x2="930.376" y1="28.2969" y2="28.2969"/><text fill="#000000" font-family="sans-serif" font-size="14" font-weight="bold" lengthAdjust="spacing" textLength="38.876" x="882.5" y="20.9951">bo4e</text></g><!--cluster bo--><g class="cluster" data-entity="bo" data-source-line="11" data-uid="ent0003" id="cluster_bo"><path d="M914.11,49 L978.944,49 A3.75,3.75 0 0 1 981.444,51.5 L988.444,71.2969 L1108.5,71.2969 A2.5,2.5 0 0 1 1111,73.7969 L1111,281.5 A2.5,2.5 0 0 1 1108.5,284 L914.11,284 A2.5,2.5 0 0 1 911.61,281.5 L911.61,51.5 A2.5,2.5 0 0 1 914.11,49" fill="#B6D7A8" style="stroke:#000000;stroke-width:1.5;"/><line style="stroke:#000000;stroke-width:1.5;" x1="911.61" x2="988.444" y1="71.2969" y2="71.2969"/><a href="file:////home/runner/work/BO4E-python/BO4E-python/docs/../.tox/docs/tmp/html/api/bo4e.bo.html" target="_top" title="file:////home/runner/work/BO4E-python/BO4E-python/docs/../.tox/docs/tmp/html/api/bo4e.bo.html" xlink:actuate="onRequest" xlink:href="file:////home/runner/work/BO4E-python/BO4E-python/docs/../.tox/docs/tmp/html/api/bo4e.bo.html" xlink:show="new" xlink:title="file:////home/runner/work/BO4E-python/BO4E-python/docs/../.tox/docs/tmp/html/api/bo4e.bo.html" xlink:type="simple"><text fill="#0000FF" font-family="sans-serif" font-size="14" font-weight="bold" lengthAdjust="spacing" text-decoration="underline" textLength="63.834" x="915.61" y="63.9951">bo4e.bo</text></a></g><!--cluster com--><g class="cluster" data-entity="com" data-source-line="16" data-uid="ent0008" id="cluster_com"><path d="M905,308 L982.6992,308 A3.75,3.75 0 0 1 985.1992,310.5 L992.1992,330.2969 L1117.61,330.2969 A2.5,2.5 0 0 1 1120.11,332.7969 L1120.11,467.5 A2.5,2.5 0 0 1 1117.61,470 L905,470 A2.5,2.5 0 0 1 902.5,467.5 L902.5,310.5 A2.5,2.5 0 0 1 905,308" fill="#E0A86C" style="stroke:#000000;stroke-width:1.5;"/><line style="stroke:#000000;stroke-width:1.5;" x1="902.5" x2="992.1992" y1="330.2969" y2="330.2969"/><a href="file:////home/runner/work/BO4E-python/BO4E-python/docs/../.tox/docs/tmp/html/api/bo4e.com.html" target="_top" title="file:////home/runner/work/BO4E-python/BO4E-python/docs/../.tox/docs/tmp/html/api/bo4e.com.html" xlink:actuate="onRequest" xlink:href="file:////home/runner/work/BO4E-python/BO4E-python/docs/../.tox/docs/tmp/html/api/bo4e.com.html" xlink:show="new" xlink:title="file:////home/runner/work/BO4E-python/BO4E-python/docs/../.tox/docs/tmp/html/api/bo4e.com.html" xlink:type="simple"><text fill="#0000FF" font-family="sans-serif" font-size="14" font-weight="bold" lengthAdjust="spacing" text-decoration="underline" textLength="76.6992" x="906.5" y="322.9951">bo4e.com</text></a></g><!--cluster enum--><g class="cluster" data-entity="enum" data-source-line="20" data-uid="ent0011" id="cluster_enum"><path d="M915.54,494 L1004.7509,494 A3.75,3.75 0 0 1 1007.2509,496.5 L1014.2509,516.2969 L1107.07,516.2969 A2.5,2.5 0 0 1 1109.57,518.7969 L1109.57,726.5 A2.5,2.5 0 0 1 1107.07,729 L915.54,729 A2.5,2.5 0 0 1 913.04,726.5 L913.04,496.5 A2.5,2.5 0 0 1 915.54,494" fill="#D1C358" style="stroke:#000000;stroke-width:1.5;"/><line style="stroke:#000000;stroke-width:1.5;" x1="913.04" x2="1014.2509" y1="516.2969" y2="516.2969"/><a href="file:////home/runner/work/BO4E-python/BO4E-python/docs/../.tox/docs/tmp/html/api/bo4e.enum.html" target="_top" title="file:////home/runner/work/BO4E-python/BO4E-python/docs/../.tox/docs/tmp/html/api/bo4e.enum.html" xlink:actuate="onRequest" xlink:href="file:////home/runner/work/BO4E-python/BO4E-python/docs/../.tox/docs/tmp/html/api/bo4e.enum.html" xlink:show="new" xlink:title="file:////home/runner/work/BO4E-python/BO4E-python/docs/../.tox/docs/tmp/html/api/bo4e.enum.html" xlink:type="simple"><text fill="#0000FF" font-family="sans-serif" font-size="14" font-weight="bold" lengthAdjust="spacing" text-decoration="underline" textLength="88.2109" x="917.04" y="508.9951">bo4e.enum</text></a></g><!--class Geschaeftsobjekt--><g class="entity" data-entity="Geschaeftsobjekt" data-source-line="12" data-uid="ent0004" id="entity_Geschaeftsobjekt"><rect fill="#F1F1F1" height="37.9375" rx="2.5" ry="2.5" style="stroke:#181818;stroke-width:0.5;" width="161.3896" x="930.61" y="84.03"/><ellipse cx="945.61" cy="102.9987" fill="#ADD1B2" rx="11" ry="11" style="stroke:#181818;stroke-width:1;"/><path d="M948.5788,108.6394 Q948.0006,108.9362 947.36,109.0769 Q946.7194,109.2331 946.0163,109.2331 Q943.5163,109.2331 942.1881,107.5925 Q940.8756,105.9362 940.8756,102.8112 Q940.8756,99.6862 942.1881,98.03 Q943.5163,96.3737 946.0163,96.3737 Q946.7194,96.3737 947.36,96.53 Q948.0163,96.6862 948.5788,96.9831 L948.5788,99.7019 Q947.9538,99.1237 947.36,98.8581 Q946.7663,98.5769 946.1413,98.5769 Q944.7975,98.5769 944.11,99.655 Q943.4225,100.7175 943.4225,102.8112 Q943.4225,104.905 944.11,105.9831 Q944.7975,107.0456 946.1413,107.0456 Q946.7663,107.0456 947.36,106.78 Q947.9538,106.4987 948.5788,105.9206 L948.5788,108.6394 Z " fill="#000000"/><a href="file:////home/runner/work/BO4E-python/BO4E-python/docs/../.tox/docs/tmp/html/api/bo4e.bo.html#bo4e.bo.geschaeftsobjekt.Geschaeftsobjekt" target="_top" title="file:////home/runner/work/BO4E-python/BO4E-python/docs/../.tox/docs/tmp/html/api/bo4e.bo.html#bo4e.bo.geschaeftsobjekt.Geschaeftsobjekt" xlink:actuate="onRequest" xlink:href="file:////home/runner/work/BO4E-python/BO4E-python/docs/../.tox/docs/tmp/html/api/bo4e.bo.html#bo4e.bo.geschaeftsobjekt.Geschaeftsobjekt" xlink:show="new" xlink:title="file:////home/runner/work/BO4E-python/BO4E-python/docs/../.tox/docs/tmp/html/api/bo4e.bo.html#bo4e.bo.geschaeftsobjekt.Geschaeftsobjekt" xlink:type="simple"><text fill="#0000FF" font-family="sans-serif" font-size="14" lengthAdjust="spacing" text-decoration="underline" textLength="121.7822" x="963.4137" y="102.0251">Geschaeftsobjekt</text></a><text fill="#000000" font-family="sans-serif" font-size="10" lengthAdjust="spacing" textLength="129.3896" x="959.61" y="114.6091">bo4e.bo.geschaeftsobjekt</text></g><!--class Geschaeftspartner--><g class="entity" data-entity="Geschaeftspartner" data-source-line="13" data-uid="ent0006" id="entity_Geschaeftspartner"><rect fill="#F1F1F1" height="37.9375" rx="2.5" ry="2.5" style="stroke:#181818;stroke-width:0.5;" width="167.3906" x="927.61" y="157.03"/><ellipse cx="942.61" cy="175.9987" fill="#ADD1B2" rx="11" ry="11" style="stroke:#181818;stroke-width:1;"/><path d="M945.5788,181.6394 Q945.0006,181.9362 944.36,182.0769 Q943.7194,182.2331 943.0163,182.2331 Q940.5163,182.2331 939.1881,180.5925 Q937.8756,178.9362 937.8756,175.8112 Q937.8756,172.6862 939.1881,171.03 Q940.5163,169.3737 943.0163,169.3737 Q943.7194,169.3737 944.36,169.53 Q945.0163,169.6862 945.5788,169.9831 L945.5788,172.7019 Q944.9538,172.1237 944.36,171.8581 Q943.7663,171.5769 943.1413,171.5769 Q941.7975,171.5769 941.11,172.655 Q940.4225,173.7175 940.4225,175.8112 Q940.4225,177.905 941.11,178.9831 Q941.7975,180.0456 943.1413,180.0456 Q943.7663,180.0456 944.36,179.78 Q944.9538,179.4987 945.5788,178.9206 L945.5788,181.6394 Z " fill="#000000"/><a href="file:////home/runner/work/BO4E-python/BO4E-python/docs/../.tox/docs/tmp/html/api/bo4e.bo.html#bo4e.bo.geschaeftspartner.Geschaeftspartner" target="_top" title="file:////home/runner/work/BO4E-python/BO4E-python/docs/../.tox/docs/tmp/html/api/bo4e.bo.html#bo4e.bo.geschaeftspartner.Geschaeftspartner" xlink:actuate="onRequest" xlink:href="file:////home/runner/work/BO4E-python/BO4E-python/docs/../.tox/docs/tmp/html/api/bo4e.bo.html#bo4e.bo.geschaeftspartner.Geschaeftspartner" xlink:show="new" xlink:title="file:////home/runner/work/BO4E-python/BO4E-python/docs/../.tox/docs/tmp/html/api/bo4e.bo.html#bo4e.bo.geschaeftspartner.Geschaeftspartner" xlink:type="simple"><text fill="#0000FF" font-family="sans-serif" font-size="14" lengthAdjust="spacing" text-decoration="underline" textLength="130.1836" x="959.2135" y="175.0251">Geschaeftspartner</text></a><text fill="#000000" font-family="sans-serif" font-size="10" lengthAdjust="spacing" textLength="135.3906" x="956.61" y="187.6091">bo4e.bo.geschaeftspartner</text></g><!--class Vertrag--><g class="entity" data-entity="Vertrag" data-source-line="14" data-uid="ent0007" id="entity_Vertrag"><rect fill="#F1F1F1" height="37.9375" rx="2.5" ry="2.5" style="stroke:#181818;stroke-width:0.5;" width="112.4932" x="955.06" y="230.03"/><ellipse cx="970.06" cy="248.9987" fill="#ADD1B2" rx="11" ry="11" style="stroke:#181818;stroke-width:1;"/><path d="M973.0288,254.6394 Q972.4506,254.9362 971.81,255.0769 Q971.1694,255.2331 970.4663,255.2331 Q967.9663,255.2331 966.6381,253.5925 Q965.3256,251.9362 965.3256,248.8112 Q965.3256,245.6862 966.6381,244.03 Q967.9663,242.3737 970.4663,242.3737 Q971.1694,242.3737 971.81,242.53 Q972.4663,242.6862 973.0288,242.9831 L973.0288,245.7019 Q972.4038,245.1237 971.81,244.8581 Q971.2163,244.5769 970.5913,244.5769 Q969.2475,244.5769 968.56,245.655 Q967.8725,246.7175 967.8725,248.8112 Q967.8725,250.905 968.56,251.9831 Q969.2475,253.0456 970.5913,253.0456 Q971.2163,253.0456 971.81,252.78 Q972.4038,252.4987 973.0288,251.9206 L973.0288,254.6394 Z " fill="#000000"/><a href="file:////home/runner/work/BO4E-python/BO4E-python/docs/../.tox/docs/tmp/html/api/bo4e.bo.html#bo4e.bo.vertrag.Vertrag" target="_top" title="file:////home/runner/work/BO4E-python/BO4E-python/docs/../.tox/docs/tmp/html/api/bo4e.bo.html#bo4e.bo.vertrag.Vertrag" xlink:actuate="onRequest" xlink:href="file:////home/runner/work/BO4E-python/BO4E-python/docs/../.tox/docs/tmp/html/api/bo4e.bo.html#bo4e.bo.vertrag.Vertrag" xlink:show="new" xlink:title="file:////home/runner/work/BO4E-python/BO4E-python/docs/../.tox/docs/tmp/html/api/bo4e.bo.html#bo4e.bo.vertrag.Vertrag" xlink:type="simple"><text fill="#0000FF" font-family="sans-serif" font-size="14" lengthAdjust="spacing" text-decoration="underline" textLength="52.6572" x="997.978" y="248.0251">Vertrag</text></a><text fill="#000000" font-family="sans-serif" font-size="10" lengthAdjust="spacing" textLength="80.4932" x="984.06" y="260.6091">bo4e.bo.vertrag</text></g><!--class Unterschrift--><g class="entity" data-entity="Unterschrift" data-source-line="17" data-uid="ent0009" id="entity_Unterschrift"><rect fill="#F1F1F1" height="37.9375" rx="2.5" ry="2.5" style="stroke:#181818;stroke-width:0.5;" width="142.9326" x="939.84" y="343.03"/><ellipse cx="954.84" cy="361.9988" fill="#ADD1B2" rx="11" ry="11" style="stroke:#181818;stroke-width:1;"/><path d="M957.8088,367.6394 Q957.2306,367.9363 956.59,368.0769 Q955.9494,368.2331 955.2463,368.2331 Q952.7463,368.2331 951.4181,366.5925 Q950.1056,364.9363 950.1056,361.8113 Q950.1056,358.6863 951.4181,357.03 Q952.7463,355.3738 955.2463,355.3738 Q955.9494,355.3738 956.59,355.53 Q957.2463,355.6863 957.8088,355.9831 L957.8088,358.7019 Q957.1838,358.1238 956.59,357.8581 Q955.9963,357.5769 955.3713,357.5769 Q954.0275,357.5769 953.34,358.655 Q952.6525,359.7175 952.6525,361.8113 Q952.6525,363.905 953.34,364.9831 Q954.0275,366.0456 955.3713,366.0456 Q955.9963,366.0456 956.59,365.78 Q957.1838,365.4988 957.8088,364.9206 L957.8088,367.6394 Z " fill="#000000"/><a href="file:////home/runner/work/BO4E-python/BO4E-python/docs/../.tox/docs/tmp/html/api/bo4e.com.html#bo4e.com.unterschrift.Unterschrift" target="_top" title="file:////home/runner/work/BO4E-python/BO4E-python/docs/../.tox/docs/tmp/html/api/bo4e.com.html#bo4e.com.unterschrift.Unterschrift" xlink:actuate="onRequest" xlink:href="file:////home/runner/work/BO4E-python/BO4E-python/docs/../.tox/docs/tmp/html/api/bo4e.com.html#bo4e.com.unterschrift.Unterschrift" xlink:show="new" xlink:title="file:////home/runner/work/BO4E-python/BO4E-python/docs/../.tox/docs/tmp/html/api/bo4e.com.html#bo4e.com.unterschrift.Unterschrift" xlink:type="simple"><text fill="#0000FF" font-family="sans-serif" font-size="14" lengthAdjust="spacing" text-decoration="underline" textLength="82.9063" x="982.8532" y="361.0251">Unterschrift</text></a><text fill="#000000" font-family="sans-serif" font-size="10" lengthAdjust="spacing" textLength="110.9326" x="968.84" y="373.6091">bo4e.com.unterschrift</text></g><!--class Vertragskonditionen--><g class="entity" data-entity="Vertragskonditionen" data-source-line="18" data-uid="ent0010" id="entity_Vertragskonditionen"><rect fill="#F1F1F1" height="37.9375" rx="2.5" ry="2.5" style="stroke:#181818;stroke-width:0.5;" width="185.6133" x="918.5" y="416.03"/><ellipse cx="933.5" cy="434.9988" fill="#ADD1B2" rx="11" ry="11" style="stroke:#181818;stroke-width:1;"/><path d="M936.4688,440.6394 Q935.8906,440.9363 935.25,441.0769 Q934.6094,441.2331 933.9063,441.2331 Q931.4063,441.2331 930.0781,439.5925 Q928.7656,437.9363 928.7656,434.8113 Q928.7656,431.6863 930.0781,430.03 Q931.4063,428.3738 933.9063,428.3738 Q934.6094,428.3738 935.25,428.53 Q935.9063,428.6863 936.4688,428.9831 L936.4688,431.7019 Q935.8438,431.1238 935.25,430.8581 Q934.6563,430.5769 934.0313,430.5769 Q932.6875,430.5769 932,431.655 Q931.3125,432.7175 931.3125,434.8113 Q931.3125,436.905 932,437.9831 Q932.6875,439.0456 934.0313,439.0456 Q934.6563,439.0456 935.25,438.78 Q935.8438,438.4988 936.4688,437.9206 L936.4688,440.6394 Z " fill="#000000"/><a href="file:////home/runner/work/BO4E-python/BO4E-python/docs/../.tox/docs/tmp/html/api/bo4e.com.html#bo4e.com.vertragskonditionen.Vertragskonditionen" target="_top" title="file:////home/runner/work/BO4E-python/BO4E-python/docs/../.tox/docs/tmp/html/api/bo4e.com.html#bo4e.com.vertragskonditionen.Vertragskonditionen" xlink:actuate="onRequest" xlink:href="file:////home/runner/work/BO4E-python/BO4E-python/docs/../.tox/docs/tmp/html/api/bo4e.com.html#bo4e.com.vertragskonditionen.Vertragskonditionen" xlink:show="new" xlink:title="file:////home/runner/work/BO4E-python/BO4E-python/docs/../.tox/docs/tmp/html/api/bo4e.com.html#bo4e.com.vertragskonditionen.Vertragskonditionen" xlink:type="simple"><text fill="#0000FF" font-family="sans-serif" font-size="14" lengthAdjust="spacing" text-decoration="underline" textLength="142.5771" x="953.0181" y="434.0251">Vertragskonditionen</text></a><text fill="#000000" font-family="sans-serif" font-size="10" lengthAdjust="spacing" textLength="153.6133" x="947.5" y="446.6091">bo4e.com.vertragskonditionen</text></g><!--class Vertragsstatus--><g class="entity" data-entity="Vertragsstatus" data-source-line="21" data-uid="ent0012" id="entity_Vertragsstatus"><rect fill="#F1F1F1" height="37.9375" rx="2.5" ry="2.5" style="stroke:#181818;stroke-width:0.5;" width="164.5342" x="929.04" y="529.03"/><ellipse cx="944.04" cy="547.9988" fill="#ADD1B2" rx="11" ry="11" style="stroke:#181818;stroke-width:1;"/><path d="M947.0088,553.6394 Q946.4306,553.9363 945.79,554.0769 Q945.1494,554.2331 944.4463,554.2331 Q941.9463,554.2331 940.6181,552.5925 Q939.3056,550.9363 939.3056,547.8113 Q939.3056,544.6863 940.6181,543.03 Q941.9463,541.3738 944.4463,541.3738 Q945.1494,541.3738 945.79,541.53 Q946.4463,541.6863 947.0088,541.9831 L947.0088,544.7019 Q946.3838,544.1238 945.79,543.8581 Q945.1963,543.5769 944.5713,543.5769 Q943.2275,543.5769 942.54,544.655 Q941.8525,545.7175 941.8525,547.8113 Q941.8525,549.905 942.54,550.9831 Q943.2275,552.0456 944.5713,552.0456 Q945.1963,552.0456 945.79,551.78 Q946.3838,551.4988 947.0088,550.9206 L947.0088,553.6394 Z " fill="#000000"/><a href="file:////home/runner/work/BO4E-python/BO4E-python/docs/../.tox/docs/tmp/html/api/bo4e.enum.html#bo4e.enum.vertragsstatus.Vertragsstatus" target="_top" title="file:////home/runner/work/BO4E-python/BO4E-python/docs/../.tox/docs/tmp/html/api/bo4e.enum.html#bo4e.enum.vertragsstatus.Vertragsstatus" xlink:actuate="onRequest" xlink:href="file:////home/runner/work/BO4E-python/BO4E-python/docs/../.tox/docs/tmp/html/api/bo4e.enum.html#bo4e.enum.vertragsstatus.Vertragsstatus" xlink:show="new" xlink:title="file:////home/runner/work/BO4E-python/BO4E-python/docs/../.tox/docs/tmp/html/api/bo4e.enum.html#bo4e.enum.vertragsstatus.Vertragsstatus" xlink:type="simple"><text fill="#0000FF" font-family="sans-serif" font-size="14" lengthAdjust="spacing" text-decoration="underline" textLength="102.9697" x="972.8222" y="547.0251">Vertragsstatus</text></a><text fill="#000000" font-family="sans-serif" font-size="10" lengthAdjust="spacing" textLength="132.5342" x="958.04" y="559.6091">bo4e.enum.vertragsstatus</text></g><!--class Vertragsart--><g class="entity" data-entity="Vertragsart" data-source-line="22" data-uid="ent0013" id="entity_Vertragsart"><rect fill="#F1F1F1" height="37.9375" rx="2.5" ry="2.5" style="stroke:#181818;stroke-width:0.5;" width="147.9668" x="937.32" y="602.03"/><ellipse cx="952.32" cy="620.9988" fill="#ADD1B2" rx="11" ry="11" style="stroke:#181818;stroke-width:1;"/><path d="M955.2888,626.6394 Q954.7106,626.9363 954.07,627.0769 Q953.4294,627.2331 952.7263,627.2331 Q950.2263,627.2331 948.8981,625.5925 Q947.5856,623.9363 947.5856,620.8113 Q947.5856,617.6863 948.8981,616.03 Q950.2263,614.3738 952.7263,614.3738 Q953.4294,614.3738 954.07,614.53 Q954.7263,614.6863 955.2888,614.9831 L955.2888,617.7019 Q954.6638,617.1238 954.07,616.8581 Q953.4763,616.5769 952.8513,616.5769 Q951.5075,616.5769 950.82,617.655 Q950.1325,618.7175 950.1325,620.8113 Q950.1325,622.905 950.82,623.9831 Q951.5075,625.0456 952.8513,625.0456 Q953.4763,625.0456 954.07,624.78 Q954.6638,624.4988 955.2888,623.9206 L955.2888,626.6394 Z " fill="#000000"/><a href="file:////home/runner/work/BO4E-python/BO4E-python/docs/../.tox/docs/tmp/html/api/bo4e.enum.html#bo4e.enum.vertragsart.Vertragsart" target="_top" title="file:////home/runner/work/BO4E-python/BO4E-python/docs/../.tox/docs/tmp/html/api/bo4e.enum.html#bo4e.enum.vertragsart.Vertragsart" xlink:actuate="onRequest" xlink:href="file:////home/runner/work/BO4E-python/BO4E-python/docs/../.tox/docs/tmp/html/api/bo4e.enum.html#bo4e.enum.vertragsart.Vertragsart" xlink:show="new" xlink:title="file:////home/runner/work/BO4E-python/BO4E-python/docs/../.tox/docs/tmp/html/api/bo4e.enum.html#bo4e.enum.vertragsart.Vertragsart" xlink:type="simple"><text fill="#0000FF" font-family="sans-serif" font-size="14" lengthAdjust="spacing" text-decoration="underline" textLength="79.7754" x="984.4157" y="620.0251">Vertragsart</text></a><text fill="#000000" font-family="sans-serif" font-size="10" lengthAdjust="spacing" textLength="115.9668" x="966.32" y="632.6091">bo4e.enum.vertragsart</text></g><!--class Sparte--><g class="entity" data-entity="Sparte" data-source-line="23" data-uid="ent0014" id="entity_Sparte"><rect fill="#F1F1F1" height="37.9375" rx="2.5" ry="2.5" style="stroke:#181818;stroke-width:0.5;" width="123.7773" x="949.42" y="675.03"/><ellipse cx="964.42" cy="693.9988" fill="#ADD1B2" rx="11" ry="11" style="stroke:#181818;stroke-width:1;"/><path d="M967.3888,699.6394 Q966.8106,699.9363 966.17,700.0769 Q965.5294,700.2331 964.8263,700.2331 Q962.3263,700.2331 960.9981,698.5925 Q959.6856,696.9363 959.6856,693.8113 Q959.6856,690.6863 960.9981,689.03 Q962.3263,687.3738 964.8263,687.3738 Q965.5294,687.3738 966.17,687.53 Q966.8263,687.6863 967.3888,687.9831 L967.3888,690.7019 Q966.7638,690.1238 966.17,689.8581 Q965.5763,689.5769 964.9513,689.5769 Q963.6075,689.5769 962.92,690.655 Q962.2325,691.7175 962.2325,693.8113 Q962.2325,695.905 962.92,696.9831 Q963.6075,698.0456 964.9513,698.0456 Q965.5763,698.0456 966.17,697.78 Q966.7638,697.4988 967.3888,696.9206 L967.3888,699.6394 Z " fill="#000000"/><a href="file:////home/runner/work/BO4E-python/BO4E-python/docs/../.tox/docs/tmp/html/api/bo4e.enum.html#bo4e.enum.sparte.Sparte" target="_top" title="file:////home/runner/work/BO4E-python/BO4E-python/docs/../.tox/docs/tmp/html/api/bo4e.enum.html#bo4e.enum.sparte.Sparte" xlink:actuate="onRequest" xlink:href="file:////home/runner/work/BO4E-python/BO4E-python/docs/../.tox/docs/tmp/html/api/bo4e.enum.html#bo4e.enum.sparte.Sparte" xlink:show="new" xlink:title="file:////home/runner/work/BO4E-python/BO4E-python/docs/../.tox/docs/tmp/html/api/bo4e.enum.html#bo4e.enum.sparte.Sparte" xlink:type="simple"><text fill="#0000FF" font-family="sans-serif" font-size="14" lengthAdjust="spacing" text-decoration="underline" textLength="46.2109" x="1001.2032" y="693.0251">Sparte</text></a><text fill="#000000" font-family="sans-serif" font-size="10" lengthAdjust="spacing" textLength="91.7773" x="978.42" y="705.6091">bo4e.enum.sparte</text></g><!--class Buendelvertrag--><g class="entity" data-entity="Buendelvertrag" data-source-line="3" data-uid="ent0002" id="entity_Buendelvertrag"><rect fill="#F1F1F1" height="127.4219" rx="2.5" ry="2.5" style="stroke:#181818;stroke-width:0.5;" width="692.4971" x="7" y="304.29"/><ellipse cx="288.5249" cy="323.2588" fill="#ADD1B2" rx="11" ry="11" style="stroke:#181818;stroke-width:1;"/><path d="M291.4937,328.8994 Q290.9155,329.1963 290.2749,329.3369 Q289.6343,329.4931 288.9312,329.4931 Q286.4312,329.4931 285.103,327.8525 Q283.7905,326.1963 283.7905,323.0713 Q283.7905,319.9463 285.103,318.29 Q286.4312,316.6338 288.9312,316.6338 Q289.6343,316.6338 290.2749,316.79 Q290.9312,316.9463 291.4937,317.2431 L291.4937,319.9619 Q290.8687,319.3838 290.2749,319.1181 Q289.6812,318.8369 289.0562,318.8369 Q287.7124,318.8369 287.0249,319.915 Q286.3374,320.9775 286.3374,323.0713 Q286.3374,325.165 287.0249,326.2431 Q287.7124,327.3056 289.0562,327.3056 Q289.6812,327.3056 290.2749,327.04 Q290.8687,326.7588 291.4937,326.1806 L291.4937,328.8994 Z " fill="#000000"/><a href="file:////home/runner/work/BO4E-python/BO4E-python/docs/../.tox/docs/tmp/html/api/bo4e.bo.html#bo4e.bo.buendelvertrag.Buendelvertrag" target="_top" title="file:////home/runner/work/BO4E-python/BO4E-python/docs/../.tox/docs/tmp/html/api/bo4e.bo.html#bo4e.bo.buendelvertrag.Buendelvertrag" xlink:actuate="onRequest" xlink:href="file:////home/runner/work/BO4E-python/BO4E-python/docs/../.tox/docs/tmp/html/api/bo4e.bo.html#bo4e.bo.buendelvertrag.Buendelvertrag" xlink:show="new" xlink:title="file:////home/runner/work/BO4E-python/BO4E-python/docs/../.tox/docs/tmp/html/api/bo4e.bo.html#bo4e.bo.buendelvertrag.Buendelvertrag" xlink:type="simple"><text fill="#0000FF" font-family="sans-serif" font-size="14" lengthAdjust="spacing" text-decoration="underline" textLength="108.7188" x="315.1392" y="322.2851">Buendelvertrag</text></a><text fill="#000000" font-family="sans-serif" font-size="10" lengthAdjust="spacing" textLength="120.9473" x="309.0249" y="334.8691">bo4e.bo.buendelvertrag</text><line style="stroke:#181818;stroke-width:0.5;" x1="8" x2="698.4971" y1="342.2275" y2="342.2275"/><text fill="#000000" font-family="sans-serif" font-size="14" lengthAdjust="spacing" textLength="680.4971" x="13" y="359.2226">_typ : Literal[&lt;BoTyp.BUENDELVERTRAG: 'BUENDELVERTRAG'&gt;] [1] = BoTyp.BUENDELVERTRAG</text><text fill="#000000" font-family="sans-serif" font-size="14" lengthAdjust="spacing" textLength="249.4502" x="13" y="375.5195">vertragsnummer : str [0..1] = None</text><text fill="#000000" font-family="sans-serif" font-size="14" lengthAdjust="spacing" textLength="328.6104" x="13" y="391.8164">vertragsbeginn : AwareDatetime [0..1] = None</text><text fill="#000000" font-family="sans-serif" font-size="14" lengthAdjust="spacing" textLength="315.5742" x="13" y="408.1132">vertragsende : AwareDatetime [0..1] = None</text><text fill="#000000" font-family="sans-serif" font-size="14" lengthAdjust="spacing" textLength="226.543" x="13" y="424.4101">beschreibung : str [0..1] = None</text></g><!--link Buendelvertrag to Geschaeftsobjekt--><g class="link" data-entity-1="Buendelvertrag" data-entity-2="Geschaeftsobjekt" data-source-line="26" data-uid="lnk15" id="link_Buendelvertrag_Geschaeftsobjekt"><path codeLine="26" d="M450.24,303.98 C523.81,257.64 629.38,196.91 729.5,160 C794.96,135.87 855.1735,123.7023 912.3335,115.2523" fill="none" id="Buendelvertrag-to-Geschaeftsobjekt" style="stroke:#181818;stroke-width:1;"/><polygon fill="none" points="930.14,112.62,911.4561,109.3169,913.211,121.1878,930.14,112.62" style="stroke:#181818;stroke-width:1;"/></g><!--link Buendelvertrag to Vertragsart--><g class="link" data-entity-1="Buendelvertrag" data-entity-2="Vertragsart" data-source-line="27" data-uid="lnk16" id="link_Buendelvertrag_Vertragsart"><path codeLine="27" d="M489.93,432.16 C592.69,478.93 738.28,541.32 870.5,584 C891.88,590.9 903.7936,594.4516 925.3436,600.1116" fill="none" id="Buendelvertrag-to-Vertragsart" style="stroke:#181818;stroke-width:1;"/><polygon fill="#181818" points="936.95,603.16,932.1629,597.767,925.3436,600.1116,930.1307,605.5046,936.95,603.16" style="stroke:#181818;stroke-width:1;"/><text fill="#000000" font-family="sans-serif" font-size="13" lengthAdjust="spacing" textLength="72.8774" x="760" y="534.0669">vertragsart</text><text fill="#000000" font-family="sans-serif" font-size="13" lengthAdjust="spacing" textLength="24.8066" x="904.4893" y="614.2157">0..1</text></g><!--link Buendelvertrag to Vertragsstatus--><g class="link" data-entity-1="Buendelvertrag" data-entity-2="Vertragsstatus" data-source-line="28" data-uid="lnk17" id="link_Buendelvertrag_Vertragsstatus"><path codeLine="28" d="M587.86,432.09 C711.92,466.13 844.1073,502.4061 927.8973,525.3861" fill="none" id="Buendelvertrag-to-Vertragsstatus" style="stroke:#181818;stroke-width:1;"/><polygon fill="#181818" points="939.47,528.56,934.7416,523.1155,927.8973,525.3861,932.6257,530.8306,939.47,528.56" style="stroke:#181818;stroke-width:1;"/><text fill="#000000" font-family="sans-serif" font-size="13" lengthAdjust="spacing" textLength="94.415" x="749" y="471.0669">vertragsstatus</text><text fill="#000000" font-family="sans-serif" font-size="13" lengthAdjust="spacing" textLength="24.8066" x="896.1759" y="519.4127">0..1</text></g><!--link Buendelvertrag to Sparte--><g class="link" data-entity-1="Buendelvertrag" data-entity-2="Sparte" data-source-line="29" data-uid="lnk18" id="link_Buendelvertrag_Sparte"><path codeLine="29" d="M443.65,432.01 C517.79,483.22 627.23,554.54 729.5,605 C789.4,634.55 806.81,636.88 870.5,657 C895.99,665.06 912.8472,669.8251 937.4172,676.1351" fill="none" id="Buendelvertrag-to-Sparte" style="stroke:#181818;stroke-width:1;"/><polygon fill="#181818" points="949.04,679.12,944.2236,673.7533,937.4172,676.1351,942.2336,681.5018,949.04,679.12" style="stroke:#181818;stroke-width:1;"/><text fill="#000000" font-family="sans-serif" font-size="13" lengthAdjust="spacing" textLength="41.4312" x="775.5" y="601.0669">sparte</text><text fill="#000000" font-family="sans-serif" font-size="13" lengthAdjust="spacing" textLength="24.8066" x="916.4993" y="690.3414">0..1</text></g><!--link Buendelvertrag to Geschaeftspartner--><g class="link" data-entity-1="Buendelvertrag" data-entity-2="Geschaeftspartner" data-source-line="30" data-uid="lnk19" id="link_Buendelvertrag_Geschaeftspartner"><path codeLine="30" d="M478.18,303.83 C549.77,269.58 642.61,229.89 729.5,207 C794.59,189.85 858.622,182.907 915.132,179.477" fill="none" id="Buendelvertrag-to-Geschaeftspartner" style="stroke:#181818;stroke-width:1;"/><polygon fill="#181818" points="927.11,178.75,920.8787,175.1209,915.132,179.477,921.3634,183.1062,927.11,178.75" style="stroke:#181818;stroke-width:1;"/><text fill="#000000" font-family="sans-serif" font-size="13" lengthAdjust="spacing" textLength="110.9824" x="741" y="181.0669">vertragspartner1</text><text fill="#000000" font-family="sans-serif" font-size="13" lengthAdjust="spacing" textLength="24.8066" x="894.8779" y="191.7036">0..1</text></g><!--link Buendelvertrag to Geschaeftspartner--><g class="link" data-entity-1="Buendelvertrag" data-entity-2="Geschaeftspartner" data-source-line="31" data-uid="lnk20" id="link_Buendelvertrag_Geschaeftspartner"><path codeLine="31" d="M580.62,303.91 C629.63,290.42 681.23,276.49 729.5,264 C788.36,248.77 816.16,271.36 862.5,232 C869.48,226.07 863.58,219.01 870.5,213 C886.42,199.16 895.3541,193.5552 915.7441,188.0552" fill="none" id="Buendelvertrag-to-Geschaeftspartner-1" style="stroke:#181818;stroke-width:1;"/><polygon fill="#181818" points="927.33,184.93,920.4953,182.6306,915.7441,188.0552,922.5788,190.3546,927.33,184.93" style="stroke:#181818;stroke-width:1;"/><text fill="#000000" font-family="sans-serif" font-size="13" lengthAdjust="spacing" textLength="110.9824" x="741" y="228.0669">vertragspartner2</text><text fill="#000000" font-family="sans-serif" font-size="13" lengthAdjust="spacing" textLength="24.8066" x="894.8181" y="182.1303">0..1</text></g><!--link Buendelvertrag to Vertrag--><g class="link" data-entity-1="Buendelvertrag" data-entity-2="Vertrag" data-source-line="32" data-uid="lnk21" id="link_Buendelvertrag_Vertrag"><path codeLine="32" d="M699.72,315.26 C754.31,305.87 810.04,295.66 862.5,285 C893.17,278.77 915.4758,273.5302 943.0958,266.5502" fill="none" id="Buendelvertrag-to-Vertrag" style="stroke:#181818;stroke-width:1;"/><polygon fill="#181818" points="954.73,263.61,947.9328,261.202,943.0958,266.5502,949.8929,268.9582,954.73,263.61" style="stroke:#181818;stroke-width:1;"/><text fill="#000000" font-family="sans-serif" font-size="13" lengthAdjust="spacing" textLength="101.9751" x="745.5" y="281.0669">einzelvertraege</text><text fill="#000000" font-family="sans-serif" font-size="13" lengthAdjust="spacing" textLength="23.0356" x="923.8607" y="278.2412">0..*</text></g><!--link Buendelvertrag to Vertragskonditionen--><g class="link" data-entity-1="Buendelvertrag" data-entity-2="Vertragskonditionen" data-source-line="33" data-uid="lnk22" id="link_Buendelvertrag_Vertragskonditionen"><path codeLine="33" d="M699.91,418.01 C709.88,419.07 719.75,420.07 729.5,421 C792.3,426.99 851.278,430.0607 906.148,432.0707" fill="none" id="Buendelvertrag-to-Vertragskonditionen" style="stroke:#181818;stroke-width:1;"/><polygon fill="#181818" points="918.14,432.51,912.2905,428.293,906.148,432.0707,911.9976,436.2877,918.14,432.51" style="stroke:#181818;stroke-width:1;"/><text fill="#000000" font-family="sans-serif" font-size="13" lengthAdjust="spacing" textLength="131.1934" x="730.5" y="417.0669">vertragskonditionen</text><text fill="#000000" font-family="sans-serif" font-size="13" lengthAdjust="spacing" textLength="23.0356" x="887.4549" y="444.9498">0..*</text></g><!--link Buendelvertrag to Unterschrift--><g class="link" data-entity-1="Buendelvertrag" data-entity-2="Unterschrift" data-source-line="34" data-uid="lnk23" id="link_Buendelvertrag_Unterschrift"><path codeLine="34" d="M699.57,364.84 C790.79,364.01 868.2205,363.2992 927.5405,362.7592" fill="none" id="Buendelvertrag-to-Unterschrift" style="stroke:#181818;stroke-width:1;"/><polygon fill="#181818" points="939.54,362.65,933.5038,358.7048,927.5405,362.7592,933.5767,366.7045,939.54,362.65" style="stroke:#181818;stroke-width:1;"/><text fill="#000000" font-family="sans-serif" font-size="13" lengthAdjust="spacing" textLength="114.5371" x="739" y="360.0669">unterzeichnervp1</text><text fill="#000000" font-family="sans-serif" font-size="13" lengthAdjust="spacing" textLength="23.0356" x="908.8655" y="375.4745">0..*</text></g><!--link Buendelvertrag to Unterschrift--><g class="link" data-entity-1="Buendelvertrag" data-entity-2="Unterschrift" data-source-line="35" data-uid="lnk24" id="link_Buendelvertrag_Unterschrift"><path codeLine="35" d="M699.73,395.66 C754.26,396.36 809.96,394.93 862.5,390 C887.85,387.62 903.5591,385.3238 927.8691,380.5038" fill="none" id="Buendelvertrag-to-Unterschrift-1" style="stroke:#181818;stroke-width:1;"/><polygon fill="#181818" points="939.64,378.17,932.9766,375.4133,927.8691,380.5038,934.5325,383.2605,939.64,378.17" style="stroke:#181818;stroke-width:1;"/><text fill="#000000" font-family="sans-serif" font-size="13" lengthAdjust="spacing" textLength="114.5371" x="739" y="386.0669">unterzeichnervp2</text><text fill="#000000" font-family="sans-serif" font-size="13" lengthAdjust="spacing" textLength="23.0356" x="908.7149" y="392.4994">0..*</text></g><!--SRC=[nLRVRzem47vk_eeJF5IgH09TrrLHXmG3zQNgfAxbXQ4f2GVnIEp8DcMmxN-Vyuiu8OnEwY0loNUwE_ixVxbpW3C9aW4dSr_2b73q967KCBp04G8Qu_6C16XRwl5PY1PVKehSMZ6-iFgVhuQjQ2rzHalVK-O9opGjKx8VAP1XPFao32md8fRBhj1qcHaRcZbmbqYd6BmWbzoPc_qIX3ASJBxIMq4sQ7VQtVe43N149Gf-6cVVv3e26-w9HEu4uzi-Urf7Plzv-30Ote-6Zq-FlJiRpik6y-u4nfq9V8GwT-Cioo_eCWoHg_H2SXYtJJE9UM0K2nyNvuHIvTDREHm7ZaH9Gjpd7M__aA-BmlCv4dT9vxLh_pOCweGe8iV3_twUa87993c1346pVptuqBk9Z-38kfh7vN6Ko0Lpl-D2cdSL0rGDjUggfadOLIDFI2vok5HBQEmo2-nO3l3Bl2e4C-lH6URzO9JzmwE_T03zry_ybFYFe7sFXPhu5TBLho0qX-tUpVMd8yW_tqfpYvPKzRguHP2PD9yr03hOBMWrDc6aXvo0IzuN5unEIJocaERAq6rGOwidM9DGbuzkFuwKK0qHJKinrCKKOsXEEzwxzyTefjlTD0kObqn8Hox5jlmfX3BSBNfDYbB1KzD9YQbEjsMbla7xFi17UPJ8A7mI9actHlDByeBqjMVhgMkowzGllYvKRr-jrgzkFiftvkUEjtA_W4Py1MaKeYrLr0QjOlyOd-ciI94fvdLPifAeQr9Azc1KYN0-Kel5CqldhH9TxazqKIJAXw4DIEWczyKv7ewEcrvTnonsehUyLwKhpHGRafcnGUBvYizBr7cB99U6uHDr5GunT9MR8NosWchU6S5WAlu0]--></g></svg>