<svg xmlns="http://www.w3.org/2000/svg" xmlns:xlink="http://www.w3.org/1999/xlink" contentStyleType="text/css" data-diagram-type="CLASS" height="428px" preserveAspectRatio="none" style="width:1022px;height:428px;background:#FFFFFF;" version="1.1" viewBox="0 0 1022 428" width="1022px" zoomAndPan="magnify"><defs/><g><!--cluster bo4e--><g class="cluster" data-entity="bo4e" data-source-line="8" data-uid="ent0005" id="cluster_bo4e"><path d="M762.97,6 L802.846,6 A3.75,3.75 0 0 1 805.346,8.5 L812.346,28.2969 L1012.6,28.2969 A2.5,2.5 0 0 1 1015.1,30.7969 L1015.1,418.5 A2.5,2.5 0 0 1 1012.6,421 L762.97,421 A2.5,2.5 0 0 1 760.47,418.5 L760.47,8.5 A2.5,2.5 0 0 1 762.97,6" fill="none" style="stroke:#000000;stroke-width:1.5;"/><line style="stroke:#000000;stroke-width:1.5;" x1="760.47" x2="812.346" y1="28.2969" y2="28.2969"/><text fill="#000000" font-family="sans-serif" font-size="14" font-weight="bold" lengthAdjust="spacing" textLength="38.876" x="764.47" y="20.9951">bo4e</text></g><!--cluster bo--><g class="cluster" data-entity="bo" data-source-line="7" data-uid="ent0003" id="cluster_bo"><path d="M793.59,49 L858.424,49 A3.75,3.75 0 0 1 860.924,51.5 L867.924,71.2969 L981.98,71.2969 A2.5,2.5 0 0 1 984.48,73.7969 L984.48,135.5 A2.5,2.5 0 0 1 981.98,138 L793.59,138 A2.5,2.5 0 0 1 791.09,135.5 L791.09,51.5 A2.5,2.5 0 0 1 793.59,49" fill="#B6D7A8" style="stroke:#000000;stroke-width:1.5;"/><line style="stroke:#000000;stroke-width:1.5;" x1="791.09" x2="867.924" y1="71.2969" y2="71.2969"/><a href="file:////home/runner/work/BO4E-python/BO4E-python/docs/../.tox/docs/tmp/html/api/bo4e.bo.html" target="_top" title="file:////home/runner/work/BO4E-python/BO4E-python/docs/../.tox/docs/tmp/html/api/bo4e.bo.html" xlink:actuate="onRequest" xlink:href="file:////home/runner/work/BO4E-python/BO4E-python/docs/../.tox/docs/tmp/html/api/bo4e.bo.html" xlink:show="new" xlink:title="file:////home/runner/work/BO4E-python/BO4E-python/docs/../.tox/docs/tmp/html/api/bo4e.bo.html" xlink:type="simple"><text fill="#0000FF" font-family="sans-serif" font-size="14" font-weight="bold" lengthAdjust="spacing" text-decoration="underline" textLength="63.834" x="795.09" y="63.9951">bo4e.bo</text></a></g><!--cluster com--><g class="cluster" data-entity="com" data-source-line="10" data-uid="ent0006" id="cluster_com"><path d="M786.97,162 L864.6692,162 A3.75,3.75 0 0 1 867.1692,164.5 L874.1692,184.2969 L988.6,184.2969 A2.5,2.5 0 0 1 991.1,186.7969 L991.1,394.5 A2.5,2.5 0 0 1 988.6,397 L786.97,397 A2.5,2.5 0 0 1 784.47,394.5 L784.47,164.5 A2.5,2.5 0 0 1 786.97,162" fill="#E0A86C" style="stroke:#000000;stroke-width:1.5;"/><line style="stroke:#000000;stroke-width:1.5;" x1="784.47" x2="874.1692" y1="184.2969" y2="184.2969"/><a href="file:////home/runner/work/BO4E-python/BO4E-python/docs/../.tox/docs/tmp/html/api/bo4e.com.html" target="_top" title="file:////home/runner/work/BO4E-python/BO4E-python/docs/../.tox/docs/tmp/html/api/bo4e.com.html" xlink:actuate="onRequest" xlink:href="file:////home/runner/work/BO4E-python/BO4E-python/docs/../.tox/docs/tmp/html/api/bo4e.com.html" xlink:show="new" xlink:title="file:////home/runner/work/BO4E-python/BO4E-python/docs/../.tox/docs/tmp/html/api/bo4e.com.html" xlink:type="simple"><text fill="#0000FF" font-family="sans-serif" font-size="14" font-weight="bold" lengthAdjust="spacing" text-decoration="underline" textLength="76.6992" x="788.47" y="176.9951">bo4e.com</text></a></g><!--class Geschaeftsobjekt--><g class="entity" data-entity="Geschaeftsobjekt" data-source-line="8" data-uid="ent0004" id="entity_Geschaeftsobjekt"><rect fill="#F1F1F1" height="37.9375" rx="2.5" ry="2.5" style="stroke:#181818;stroke-width:0.5;" width="161.3896" x="807.09" y="84.03"/><ellipse cx="822.09" cy="102.9987" fill="#ADD1B2" rx="11" ry="11" style="stroke:#181818;stroke-width:1;"/><path d="M825.0588,108.6394 Q824.4806,108.9362 823.84,109.0769 Q823.1994,109.2331 822.4963,109.2331 Q819.9963,109.2331 818.6681,107.5925 Q817.3556,105.9362 817.3556,102.8112 Q817.3556,99.6862 818.6681,98.03 Q819.9963,96.3737 822.4963,96.3737 Q823.1994,96.3737 823.84,96.53 Q824.4963,96.6862 825.0588,96.9831 L825.0588,99.7019 Q824.4338,99.1237 823.84,98.8581 Q823.2463,98.5769 822.6213,98.5769 Q821.2775,98.5769 820.59,99.655 Q819.9025,100.7175 819.9025,102.8112 Q819.9025,104.905 820.59,105.9831 Q821.2775,107.0456 822.6213,107.0456 Q823.2463,107.0456 823.84,106.78 Q824.4338,106.4987 825.0588,105.9206 L825.0588,108.6394 Z " fill="#000000"/><a href="file:////home/runner/work/BO4E-python/BO4E-python/docs/../.tox/docs/tmp/html/api/bo4e.bo.html#bo4e.bo.geschaeftsobjekt.Geschaeftsobjekt" target="_top" title="file:////home/runner/work/BO4E-python/BO4E-python/docs/../.tox/docs/tmp/html/api/bo4e.bo.html#bo4e.bo.geschaeftsobjekt.Geschaeftsobjekt" xlink:actuate="onRequest" xlink:href="file:////home/runner/work/BO4E-python/BO4E-python/docs/../.tox/docs/tmp/html/api/bo4e.bo.html#bo4e.bo.geschaeftsobjekt.Geschaeftsobjekt" xlink:show="new" xlink:title="file:////home/runner/work/BO4E-python/BO4E-python/docs/../.tox/docs/tmp/html/api/bo4e.bo.html#bo4e.bo.geschaeftsobjekt.Geschaeftsobjekt" xlink:type="simple"><text fill="#0000FF" font-family="sans-serif" font-size="14" lengthAdjust="spacing" text-decoration="underline" textLength="121.7822" x="839.8937" y="102.0251">Geschaeftsobjekt</text></a><text fill="#000000" font-family="sans-serif" font-size="10" lengthAdjust="spacing" textLength="129.3896" x="836.09" y="114.6091">bo4e.bo.geschaeftsobjekt</text></g><!--class Betrag--><g class="entity" data-entity="Betrag" data-source-line="11" data-uid="ent0007" id="entity_Betrag"><rect fill="#F1F1F1" height="37.9375" rx="2.5" ry="2.5" style="stroke:#181818;stroke-width:0.5;" width="117.7031" x="828.94" y="197.03"/><ellipse cx="843.94" cy="215.9988" fill="#ADD1B2" rx="11" ry="11" style="stroke:#181818;stroke-width:1;"/><path d="M846.9088,221.6394 Q846.3306,221.9363 845.69,222.0769 Q845.0494,222.2331 844.3463,222.2331 Q841.8463,222.2331 840.5181,220.5925 Q839.2056,218.9363 839.2056,215.8113 Q839.2056,212.6863 840.5181,211.03 Q841.8463,209.3738 844.3463,209.3738 Q845.0494,209.3738 845.69,209.53 Q846.3463,209.6863 846.9088,209.9831 L846.9088,212.7019 Q846.2838,212.1238 845.69,211.8581 Q845.0963,211.5769 844.4713,211.5769 Q843.1275,211.5769 842.44,212.655 Q841.7525,213.7175 841.7525,215.8113 Q841.7525,217.905 842.44,218.9831 Q843.1275,220.0456 844.4713,220.0456 Q845.0963,220.0456 845.69,219.78 Q846.2838,219.4988 846.9088,218.9206 L846.9088,221.6394 Z " fill="#000000"/><a href="file:////home/runner/work/BO4E-python/BO4E-python/docs/../.tox/docs/tmp/html/api/bo4e.com.html#bo4e.com.betrag.Betrag" target="_top" title="file:////home/runner/work/BO4E-python/BO4E-python/docs/../.tox/docs/tmp/html/api/bo4e.com.html#bo4e.com.betrag.Betrag" xlink:actuate="onRequest" xlink:href="file:////home/runner/work/BO4E-python/BO4E-python/docs/../.tox/docs/tmp/html/api/bo4e.com.html#bo4e.com.betrag.Betrag" xlink:show="new" xlink:title="file:////home/runner/work/BO4E-python/BO4E-python/docs/../.tox/docs/tmp/html/api/bo4e.com.html#bo4e.com.betrag.Betrag" xlink:type="simple"><text fill="#0000FF" font-family="sans-serif" font-size="14" lengthAdjust="spacing" text-decoration="underline" textLength="46.9287" x="877.3272" y="215.0251">Betrag</text></a><text fill="#000000" font-family="sans-serif" font-size="10" lengthAdjust="spacing" textLength="85.7031" x="857.94" y="227.6091">bo4e.com.betrag</text></g><!--class Fremdkostenblock--><g class="entity" data-entity="Fremdkostenblock" data-source-line="12" data-uid="ent0008" id="entity_Fremdkostenblock"><rect fill="#F1F1F1" height="37.9375" rx="2.5" ry="2.5" style="stroke:#181818;stroke-width:0.5;" width="174.6318" x="800.47" y="270.03"/><ellipse cx="815.47" cy="288.9988" fill="#ADD1B2" rx="11" ry="11" style="stroke:#181818;stroke-width:1;"/><path d="M818.4388,294.6394 Q817.8606,294.9363 817.22,295.0769 Q816.5794,295.2331 815.8763,295.2331 Q813.3763,295.2331 812.0481,293.5925 Q810.7356,291.9363 810.7356,288.8113 Q810.7356,285.6863 812.0481,284.03 Q813.3763,282.3738 815.8763,282.3738 Q816.5794,282.3738 817.22,282.53 Q817.8763,282.6863 818.4388,282.9831 L818.4388,285.7019 Q817.8138,285.1238 817.22,284.8581 Q816.6263,284.5769 816.0013,284.5769 Q814.6575,284.5769 813.97,285.655 Q813.2825,286.7175 813.2825,288.8113 Q813.2825,290.905 813.97,291.9831 Q814.6575,293.0456 816.0013,293.0456 Q816.6263,293.0456 817.22,292.78 Q817.8138,292.4988 818.4388,291.9206 L818.4388,294.6394 Z " fill="#000000"/><a href="file:////home/runner/work/BO4E-python/BO4E-python/docs/../.tox/docs/tmp/html/api/bo4e.com.html#bo4e.com.fremdkostenblock.Fremdkostenblock" target="_top" title="file:////home/runner/work/BO4E-python/BO4E-python/docs/../.tox/docs/tmp/html/api/bo4e.com.html#bo4e.com.fremdkostenblock.Fremdkostenblock" xlink:actuate="onRequest" xlink:href="file:////home/runner/work/BO4E-python/BO4E-python/docs/../.tox/docs/tmp/html/api/bo4e.com.html#bo4e.com.fremdkostenblock.Fremdkostenblock" xlink:show="new" xlink:title="file:////home/runner/work/BO4E-python/BO4E-python/docs/../.tox/docs/tmp/html/api/bo4e.com.html#bo4e.com.fremdkostenblock.Fremdkostenblock" xlink:type="simple"><text fill="#0000FF" font-family="sans-serif" font-size="14" lengthAdjust="spacing" text-decoration="underline" textLength="129.0352" x="836.2683" y="288.0251">Fremdkostenblock</text></a><text fill="#000000" font-family="sans-serif" font-size="10" lengthAdjust="spacing" textLength="142.6318" x="829.47" y="300.6091">bo4e.com.fremdkostenblock</text></g><!--class Zeitraum--><g class="entity" data-entity="Zeitraum" data-source-line="13" data-uid="ent0009" id="entity_Zeitraum"><rect fill="#F1F1F1" height="37.9375" rx="2.5" ry="2.5" style="stroke:#181818;stroke-width:0.5;" width="129.1143" x="823.23" y="343.03"/><ellipse cx="838.23" cy="361.9988" fill="#ADD1B2" rx="11" ry="11" style="stroke:#181818;stroke-width:1;"/><path d="M841.1988,367.6394 Q840.6206,367.9363 839.98,368.0769 Q839.3394,368.2331 838.6363,368.2331 Q836.1363,368.2331 834.8081,366.5925 Q833.4956,364.9363 833.4956,361.8113 Q833.4956,358.6863 834.8081,357.03 Q836.1363,355.3738 838.6363,355.3738 Q839.3394,355.3738 839.98,355.53 Q840.6363,355.6863 841.1988,355.9831 L841.1988,358.7019 Q840.5738,358.1238 839.98,357.8581 Q839.3863,357.5769 838.7613,357.5769 Q837.4175,357.5769 836.73,358.655 Q836.0425,359.7175 836.0425,361.8113 Q836.0425,363.905 836.73,364.9831 Q837.4175,366.0456 838.7613,366.0456 Q839.3863,366.0456 839.98,365.78 Q840.5738,365.4988 841.1988,364.9206 L841.1988,367.6394 Z " fill="#000000"/><a href="file:////home/runner/work/BO4E-python/BO4E-python/docs/../.tox/docs/tmp/html/api/bo4e.com.html#bo4e.com.zeitraum.Zeitraum" target="_top" title="file:////home/runner/work/BO4E-python/BO4E-python/docs/../.tox/docs/tmp/html/api/bo4e.com.html#bo4e.com.zeitraum.Zeitraum" xlink:actuate="onRequest" xlink:href="file:////home/runner/work/BO4E-python/BO4E-python/docs/../.tox/docs/tmp/html/api/bo4e.com.html#bo4e.com.zeitraum.Zeitraum" xlink:show="new" xlink:title="file:////home/runner/work/BO4E-python/BO4E-python/docs/../.tox/docs/tmp/html/api/bo4e.com.html#bo4e.com.zeitraum.Zeitraum" xlink:type="simple"><text fill="#0000FF" font-family="sans-serif" font-size="14" lengthAdjust="spacing" text-decoration="underline" textLength="64.4287" x="868.5728" y="361.0251">Zeitraum</text></a><text fill="#000000" font-family="sans-serif" font-size="10" lengthAdjust="spacing" textLength="97.1143" x="852.23" y="373.6091">bo4e.com.zeitraum</text></g><!--class Fremdkosten--><g class="entity" data-entity="Fremdkosten" data-source-line="3" data-uid="ent0002" id="entity_Fremdkosten"><rect fill="#F1F1F1" height="62.2344" rx="2.5" ry="2.5" style="stroke:#181818;stroke-width:0.5;" width="611.4707" x="7" y="225.88"/><ellipse cx="254.8818" cy="244.8488" fill="#ADD1B2" rx="11" ry="11" style="stroke:#181818;stroke-width:1;"/><path d="M257.8506,250.4894 Q257.2725,250.7863 256.6318,250.9269 Q255.9912,251.0831 255.2881,251.0831 Q252.7881,251.0831 251.46,249.4425 Q250.1475,247.7863 250.1475,244.6613 Q250.1475,241.5363 251.46,239.88 Q252.7881,238.2238 255.2881,238.2238 Q255.9912,238.2238 256.6318,238.38 Q257.2881,238.5363 257.8506,238.8331 L257.8506,241.5519 Q257.2256,240.9738 256.6318,240.7081 Q256.0381,240.4269 255.4131,240.4269 Q254.0693,240.4269 253.3818,241.505 Q252.6943,242.5675 252.6943,244.6613 Q252.6943,246.755 253.3818,247.8331 Q254.0693,248.8956 255.4131,248.8956 Q256.0381,248.8956 256.6318,248.63 Q257.2256,248.3488 257.8506,247.7706 L257.8506,250.4894 Z " fill="#000000"/><a href="file:////home/runner/work/BO4E-python/BO4E-python/docs/../.tox/docs/tmp/html/api/bo4e.bo.html#bo4e.bo.fremdkosten.Fremdkosten" target="_top" title="file:////home/runner/work/BO4E-python/BO4E-python/docs/../.tox/docs/tmp/html/api/bo4e.bo.html#bo4e.bo.fremdkosten.Fremdkosten" xlink:actuate="onRequest" xlink:href="file:////home/runner/work/BO4E-python/BO4E-python/docs/../.tox/docs/tmp/html/api/bo4e.bo.html#bo4e.bo.fremdkosten.Fremdkosten" xlink:show="new" xlink:title="file:////home/runner/work/BO4E-python/BO4E-python/docs/../.tox/docs/tmp/html/api/bo4e.bo.html#bo4e.bo.fremdkosten.Fremdkosten" xlink:type="simple"><text fill="#0000FF" font-family="sans-serif" font-size="14" lengthAdjust="spacing" text-decoration="underline" textLength="91.8887" x="283.041" y="243.8751">Fremdkosten</text></a><text fill="#000000" font-family="sans-serif" font-size="10" lengthAdjust="spacing" textLength="107.207" x="275.3818" y="256.4591">bo4e.bo.fremdkosten</text><line style="stroke:#181818;stroke-width:0.5;" x1="8" x2="617.4707" y1="263.8175" y2="263.8175"/><text fill="#000000" font-family="sans-serif" font-size="14" lengthAdjust="spacing" textLength="599.4707" x="13" y="280.8126">_typ : Literal[&lt;BoTyp.FREMDKOSTEN: 'FREMDKOSTEN'&gt;] [1] = BoTyp.FREMDKOSTEN</text></g><!--link Fremdkosten to Geschaeftsobjekt--><g class="link" data-entity-1="Fremdkosten" data-entity-2="Geschaeftsobjekt" data-source-line="16" data-uid="lnk10" id="link_Fremdkosten_Geschaeftsobjekt"><path codeLine="16" d="M431.08,225.46 C546.18,194.53 700.6366,153.0208 797.0666,127.1108" fill="none" id="Fremdkosten-to-Geschaeftsobjekt" style="stroke:#181818;stroke-width:1;"/><polygon fill="none" points="814.45,122.44,795.5096,121.3163,798.6235,132.9053,814.45,122.44" style="stroke:#181818;stroke-width:1;"/></g><!--link Fremdkosten to Zeitraum--><g class="link" data-entity-1="Fremdkosten" data-entity-2="Zeitraum" data-source-line="17" data-uid="lnk11" id="link_Fremdkosten_Zeitraum"><path codeLine="17" d="M486.06,288.57 C599.78,309.41 730.3864,333.348 811.1864,348.148" fill="none" id="Fremdkosten-to-Zeitraum" style="stroke:#181818;stroke-width:1;"/><polygon fill="#181818" points="822.99,350.31,817.8089,345.2944,811.1864,348.148,816.3675,353.1635,822.99,350.31" style="stroke:#181818;stroke-width:1;"/><text fill="#000000" font-family="sans-serif" font-size="13" lengthAdjust="spacing" textLength="69.2974" x="661.97" y="315.0669">gueltigkeit</text><text fill="#000000" font-family="sans-serif" font-size="13" lengthAdjust="spacing" textLength="24.8066" x="790.6344" y="361.926">0..1</text></g><!--link Fremdkosten to Betrag--><g class="link" data-entity-1="Fremdkosten" data-entity-2="Betrag" data-source-line="18" data-uid="lnk12" id="link_Fremdkosten_Betrag"><path codeLine="18" d="M618.72,235.18 C699.04,229.43 765.4506,224.6758 816.5006,221.0258" fill="none" id="Fremdkosten-to-Betrag" style="stroke:#181818;stroke-width:1;"/><polygon fill="#181818" points="828.47,220.17,822.2,216.6081,816.5006,221.0258,822.7705,224.5877,828.47,220.17" style="stroke:#181818;stroke-width:1;"/><text fill="#000000" font-family="sans-serif" font-size="13" lengthAdjust="spacing" textLength="92.9233" x="650.47" y="223.0669">summeKosten</text><text fill="#000000" font-family="sans-serif" font-size="13" lengthAdjust="spacing" textLength="24.8066" x="796.2701" y="233.5941">0..1</text></g><!--link Fremdkosten to Fremdkostenblock--><g class="link" data-entity-1="Fremdkosten" data-entity-2="Fremdkostenblock" data-source-line="19" data-uid="lnk13" id="link_Fremdkosten_Fremdkostenblock"><path codeLine="19" d="M618.83,278.36 C628.83,278.93 638.73,279.48 648.47,280 C698.71,282.67 742.9469,284.4342 788.1669,285.9642" fill="none" id="Fremdkosten-to-Fremdkostenblock" style="stroke:#181818;stroke-width:1;"/><polygon fill="#181818" points="800.16,286.37,794.2987,282.1694,788.1669,285.9642,794.0282,290.1648,800.16,286.37" style="stroke:#181818;stroke-width:1;"/><text fill="#000000" font-family="sans-serif" font-size="13" lengthAdjust="spacing" textLength="94.0786" x="649.47" y="276.0669">kostenbloecke</text><text fill="#000000" font-family="sans-serif" font-size="13" lengthAdjust="spacing" textLength="23.0356" x="769.572" y="298.8149">0..*</text></g><!--SRC=[nLHTJy8m57ssl-867anCQ24nIXOb4G4V_21HdyJ5xEEorQthqfOegF_TCHYCWOalObzwpycvpRsdlOrnRC18K3m83VXSeMUuJ0ZnOaThg8r6OnwZnR8LIe5CJP845NkJAcBTuN6_aKvDA9EDs9UUPfGoQkJx0XYHij28c3afPwuyHkfAEYVg1HWh57uajS643jOnb6BRVaxED9-XrMfsTkJLmD5bFNoGWnSpJS626svGEV7eh2iVfoaTtFTlUzV3XyV-dGM79NJOiM7Kik4SjeJaYv344QXJnyC_zmMMmBRphfO8wjsJtkb5UzxPdkydGEs5JlPOj7HVCJBqga90bTXvNTLZykwgcPdLUt3Qaw9aTORANcSGwltcHVlaSWzc5wNKLyX5evo0TlCD5jkseMjbNlb2zW_LbeRGZQKNbISu9w1AxEwbUavredFo7_gR8S-SdGZwj0oW27RtKUZp-Wlf_0FP-DeQZSzECTbRuxGfpRH7K6jIsggjtkUw60k22SQ61r76_29n-Qeiq1CXy3fN_f1sL4hRkbGBLWYz20a9kOyWKBYeDD6XV8EDKySSOrz_0m00]--></g></svg>