<svg xmlns="http://www.w3.org/2000/svg" xmlns:xlink="http://www.w3.org/1999/xlink" contentStyleType="text/css" data-diagram-type="CLASS" height="250px" preserveAspectRatio="none" style="width:597px;height:250px;background:#FFFFFF;" version="1.1" viewBox="0 0 597 250" width="597px" zoomAndPan="magnify"><?plantuml 1.2026.6?><defs/><g><!--cluster bo4e--><g class="cluster" data-qualified-name="bo4e" data-source-line="12" id="ent0004"><path d="M370.08,6 L409.956,6 A3.75,3.75 0 0 1 412.456,8.5 L419.456,28.2969 L580.47,28.2969 A2.5,2.5 0 0 1 582.97,30.7969 L582.97,232.5 A2.5,2.5 0 0 1 580.47,235 L370.08,235 A2.5,2.5 0 0 1 367.58,232.5 L367.58,8.5 A2.5,2.5 0 0 1 370.08,6" fill="none" style="stroke:#000000;stroke-width:1.5;"/><line style="stroke:#000000;stroke-width:1.5;" x1="367.58" x2="419.456" y1="28.2969" y2="28.2969"/><text fill="#000000" font-family="sans-serif" font-size="14" font-weight="700" lengthAdjust="spacing" textLength="38.876" x="371.58" y="20.9951">bo4e</text></g><!--cluster enum--><g class="cluster" data-qualified-name="bo4e.enum" data-source-line="11" id="ent0002"><path d="M394.08,49 L483.2909,49 A3.75,3.75 0 0 1 485.7909,51.5 L492.7909,71.2969 L556.47,71.2969 A2.5,2.5 0 0 1 558.97,73.7969 L558.97,208.5 A2.5,2.5 0 0 1 556.47,211 L394.08,211 A2.5,2.5 0 0 1 391.58,208.5 L391.58,51.5 A2.5,2.5 0 0 1 394.08,49" fill="#D1C358" style="stroke:#000000;stroke-width:1.5;"/><line style="stroke:#000000;stroke-width:1.5;" x1="391.58" x2="492.7909" y1="71.2969" y2="71.2969"/><text fill="#000000" font-family="sans-serif" font-size="14" font-weight="700" lengthAdjust="spacing" textLength="88.2109" x="395.58" y="63.9951">bo4e.enum</text></g><!--class Geraeteklasse--><g class="entity" data-qualified-name="bo4e.enum.Geraeteklasse" data-source-line="12" id="ent0003"><rect fill="#F1F1F1" height="37.9375" rx="2.5" ry="2.5" style="stroke:#181818;stroke-width:0.5;" width="135.3838" x="407.58" y="84.03"/><ellipse cx="422.58" cy="102.9988" fill="#ADD1B2" rx="11" ry="11" style="stroke:#181818;stroke-width:1;"/><path d="M425.5488,108.6394 Q424.9706,108.9363 424.33,109.0769 Q423.6894,109.2331 422.9863,109.2331 Q420.4863,109.2331 419.1581,107.5925 Q417.8456,105.9363 417.8456,102.8113 Q417.8456,99.6863 419.1581,98.03 Q420.4863,96.3738 422.9863,96.3738 Q423.6894,96.3738 424.33,96.53 Q424.9863,96.6863 425.5488,96.9831 L425.5488,99.7019 Q424.9238,99.1238 424.33,98.8581 Q423.7363,98.5769 423.1113,98.5769 Q421.7675,98.5769 421.08,99.655 Q420.3925,100.7175 420.3925,102.8113 Q420.3925,104.905 421.08,105.9831 Q421.7675,107.0456 423.1113,107.0456 Q423.7363,107.0456 424.33,106.78 Q424.9238,106.4988 425.5488,105.9206 L425.5488,108.6394 Z " fill="#000000"/><a href="https://bo4e.github.io/BO4E-python/latest/api/bo4e.enum.html#module-bo4e.enum.geraeteklasse" target="_top" title="https://bo4e.github.io/BO4E-python/latest/api/bo4e.enum.html#module-bo4e.enum.geraeteklasse" xlink:actuate="onRequest" xlink:href="https://bo4e.github.io/BO4E-python/latest/api/bo4e.enum.html#module-bo4e.enum.geraeteklasse" xlink:show="new" xlink:title="https://bo4e.github.io/BO4E-python/latest/api/bo4e.enum.html#module-bo4e.enum.geraeteklasse" xlink:type="simple"><text fill="#0000FF" font-family="sans-serif" font-size="14" lengthAdjust="spacing" text-decoration="underline" textLength="100.29" x="438.1269" y="102.0251">Geraeteklasse</text></a><text fill="#000000" font-family="sans-serif" font-size="10" lengthAdjust="spacing" textLength="103.3838" x="436.58" y="114.6091">enum.Geraeteklasse</text></g><!--class Geraetetyp--><g class="entity" data-qualified-name="bo4e.enum.Geraetetyp" data-source-line="14" id="ent0005"><rect fill="#F1F1F1" height="37.9375" rx="2.5" ry="2.5" style="stroke:#181818;stroke-width:0.5;" width="120.3008" x="415.12" y="157.03"/><ellipse cx="430.12" cy="175.9988" fill="#ADD1B2" rx="11" ry="11" style="stroke:#181818;stroke-width:1;"/><path d="M433.0888,181.6394 Q432.5106,181.9363 431.87,182.0769 Q431.2294,182.2331 430.5263,182.2331 Q428.0263,182.2331 426.6981,180.5925 Q425.3856,178.9363 425.3856,175.8113 Q425.3856,172.6863 426.6981,171.03 Q428.0263,169.3738 430.5263,169.3738 Q431.2294,169.3738 431.87,169.53 Q432.5263,169.6863 433.0888,169.9831 L433.0888,172.7019 Q432.4638,172.1238 431.87,171.8581 Q431.2763,171.5769 430.6513,171.5769 Q429.3075,171.5769 428.62,172.655 Q427.9325,173.7175 427.9325,175.8113 Q427.9325,177.905 428.62,178.9831 Q429.3075,180.0456 430.6513,180.0456 Q431.2763,180.0456 431.87,179.78 Q432.4638,179.4988 433.0888,178.9206 L433.0888,181.6394 Z " fill="#000000"/><a href="https://bo4e.github.io/BO4E-python/latest/api/bo4e.enum.html#module-bo4e.enum.geraetetyp" target="_top" title="https://bo4e.github.io/BO4E-python/latest/api/bo4e.enum.html#module-bo4e.enum.geraetetyp" xlink:actuate="onRequest" xlink:href="https://bo4e.github.io/BO4E-python/latest/api/bo4e.enum.html#module-bo4e.enum.geraetetyp" xlink:show="new" xlink:title="https://bo4e.github.io/BO4E-python/latest/api/bo4e.enum.html#module-bo4e.enum.geraetetyp" xlink:type="simple"><text fill="#0000FF" font-family="sans-serif" font-size="14" lengthAdjust="spacing" text-decoration="underline" textLength="79.1738" x="448.6835" y="175.0251">Geraetetyp</text></a><text fill="#000000" font-family="sans-serif" font-size="10" lengthAdjust="spacing" textLength="88.3008" x="444.12" y="187.6091">enum.Geraetetyp</text></g><!--class Geraet--><g class="entity" data-qualified-name="Geraet" data-source-line="3" id="ent0001"><rect fill="#F1F1F1" height="127.4219" rx="2.5" ry="2.5" style="stroke:#181818;stroke-width:0.5;" width="221.583" x="7" y="76.29"/><ellipse cx="88.6123" cy="95.2587" fill="#ADD1B2" rx="11" ry="11" style="stroke:#181818;stroke-width:1;"/><path d="M91.5811,100.8994 Q91.0029,101.1962 90.3623,101.3369 Q89.7217,101.4931 89.0186,101.4931 Q86.5186,101.4931 85.1904,99.8525 Q83.8779,98.1962 83.8779,95.0712 Q83.8779,91.9462 85.1904,90.29 Q86.5186,88.6337 89.0186,88.6337 Q89.7217,88.6337 90.3623,88.79 Q91.0186,88.9462 91.5811,89.2431 L91.5811,91.9619 Q90.9561,91.3837 90.3623,91.1181 Q89.7686,90.8369 89.1436,90.8369 Q87.7998,90.8369 87.1123,91.915 Q86.4248,92.9775 86.4248,95.0712 Q86.4248,97.165 87.1123,98.2431 Q87.7998,99.3056 89.1436,99.3056 Q89.7686,99.3056 90.3623,99.04 Q90.9561,98.7587 91.5811,98.1806 L91.5811,100.8994 Z " fill="#000000"/><a href="https://bo4e.github.io/BO4E-python/latest/api/bo4e.bo.html#module-bo4e.bo.geraet" target="_top" title="https://bo4e.github.io/BO4E-python/latest/api/bo4e.bo.html#module-bo4e.bo.geraet" xlink:actuate="onRequest" xlink:href="https://bo4e.github.io/BO4E-python/latest/api/bo4e.bo.html#module-bo4e.bo.geraet" xlink:show="new" xlink:title="https://bo4e.github.io/BO4E-python/latest/api/bo4e.bo.html#module-bo4e.bo.geraet" xlink:type="simple"><text fill="#0000FF" font-family="sans-serif" font-size="14" lengthAdjust="spacing" text-decoration="underline" textLength="47.8994" x="110.0918" y="94.2851">Geraet</text></a><text fill="#000000" font-family="sans-serif" font-size="10" lengthAdjust="spacing" textLength="49.8584" x="109.1123" y="106.8691">bo.Geraet</text><line style="stroke:#181818;stroke-width:0.5;" x1="8" x2="227.583" y1="114.2275" y2="114.2275"/><text fill="#000000" font-family="sans-serif" font-size="14" lengthAdjust="spacing" textLength="94.0215" x="13" y="131.2226">_id : str [0..1]</text><text fill="#000000" font-family="sans-serif" font-size="14" lengthAdjust="spacing" textLength="209.583" x="13" y="147.5195">_typ : Literal["GERAET"] [0..1]</text><text fill="#000000" font-family="sans-serif" font-size="14" lengthAdjust="spacing" textLength="132.5215" x="13" y="163.8164">_version : str [0..1]</text><text fill="#000000" font-family="sans-serif" font-size="14" lengthAdjust="spacing" textLength="163.6729" x="13" y="180.1132">bezeichnung : str [0..1]</text><text fill="#000000" font-family="sans-serif" font-size="14" lengthAdjust="spacing" textLength="188.1865" x="13" y="196.4101">geraetenummer : str [0..1]</text></g><!--link Geraet to Geraeteklasse--><g class="link" data-entity-1="ent0001" data-entity-2="ent0003" data-link-type="composition" data-source-line="18" id="lnk6"><path codeLine="18" d="M228.83,128.55 C287.15,122.48 344.9645,116.463 395.1845,111.233" fill="none" id="Geraet-to-Geraeteklasse" style="stroke:#181818;stroke-width:1;"/><polygon fill="#181818" points="407.12,109.99,400.7379,106.633,395.1845,111.233,401.5666,114.59,407.12,109.99" style="stroke:#181818;stroke-width:1;stroke-linejoin:miter;stroke-miterlimit:10;"/><text fill="#000000" font-family="sans-serif" font-size="13" lengthAdjust="spacing" textLength="91.3047" x="259.58" y="112.0869">geraeteklasse</text><text fill="#000000" font-family="sans-serif" font-size="13" lengthAdjust="spacing" textLength="24.8066" x="374.8959" y="123.5582">0..1</text></g><!--link Geraet to Geraetetyp--><g class="link" data-entity-1="ent0001" data-entity-2="ent0005" data-link-type="composition" data-source-line="19" id="lnk7"><path codeLine="19" d="M228.82,162.84 C238.85,164.44 248.89,165.87 258.58,167 C311.26,173.15 359.6013,175.0705 403.0413,175.7205" fill="none" id="Geraet-to-Geraetetyp" style="stroke:#181818;stroke-width:1;"/><polygon fill="#181818" points="415.04,175.9,409.1005,171.8107,403.0413,175.7205,408.9808,179.8098,415.04,175.9" style="stroke:#181818;stroke-width:1;stroke-linejoin:miter;stroke-miterlimit:10;"/><text fill="#000000" font-family="sans-serif" font-size="13" lengthAdjust="spacing" textLength="71.6968" x="269.58" y="163.0669">geraetetyp</text><text fill="#000000" font-family="sans-serif" font-size="13" lengthAdjust="spacing" textLength="24.8066" x="382.2861" y="188.877">0..1</text></g><?plantuml-src jLBHIiCm57tFLrowDw7jXXEaYA0mzY88ubijahPtJR19IdEhRCD_DsqpNHrx4lEIv9npmxadjyOD0HbePIK8IjbYGT9enegQMmj1cWgYnYPnd9ibHfKaqUMHDF7zut8LDbiIHiSr9xGKyqQEgjn4WbGzKwRiQWmFM8KjHuBri6NPYxwnSeV9Odxho14DW5ilW3q3jrvb2GbOQY6THz4Y6q7QDWvzaEIaTHgiLqztg-SWcsZUiRMkbTFg77Se2w4xNPsIeqdKdLBOJkbFnZHNQ1jU80H3LxrkyFnzWrcvA2wlhhtzlyJOFtSQv81wbs_zw-W3yxT9i8DuGXybV2ZVkyx-tsl_PUllurcNZZkss5Vr_bpsVYp2y0A2_aE2NsqaC4dbl7uSdXzRZ0bP8YXKkHiPPeNv06y7DXBhqdu1?></g></svg>