<?xml version="1.0" encoding="us-ascii" standalone="no"?><svg xmlns="http://www.w3.org/2000/svg" xmlns:xlink="http://www.w3.org/1999/xlink" contentStyleType="text/css" height="169px" preserveAspectRatio="none" style="width:646px;height:169px;background:#FFFFFF;" version="1.1" viewBox="0 0 646 169" width="646px" zoomAndPan="magnify"><defs/><g><!--cluster bo4e--><g id="cluster_bo4e"><path d="M455.5,6 L496.5,6 A3.75,3.75 0 0 1 499,8.5 L506,28.2969 L636.5,28.2969 A2.5,2.5 0 0 1 639,30.7969 L639,159.5 A2.5,2.5 0 0 1 636.5,162 L455.5,162 A2.5,2.5 0 0 1 453,159.5 L453,8.5 A2.5,2.5 0 0 1 455.5,6 " fill="none" style="stroke:#000000;stroke-width:1.5;"/><line style="stroke:#000000;stroke-width:1.5;" x1="453" x2="506" y1="28.2969" y2="28.2969"/><text fill="#000000" font-family="sans-serif" font-size="14" font-weight="bold" lengthAdjust="spacing" textLength="40" x="457" y="20.9951">bo4e</text></g><!--cluster enum--><g id="cluster_enum"><path d="M479.5,49 L569.5,49 A3.75,3.75 0 0 1 572,51.5 L579,71.2969 L612.5,71.2969 A2.5,2.5 0 0 1 615,73.7969 L615,135.5 A2.5,2.5 0 0 1 612.5,138 L479.5,138 A2.5,2.5 0 0 1 477,135.5 L477,51.5 A2.5,2.5 0 0 1 479.5,49 " fill="#D1C358" style="stroke:#000000;stroke-width:1.5;"/><line style="stroke:#000000;stroke-width:1.5;" x1="477" x2="579" y1="71.2969" y2="71.2969"/><a href="https://bo4e.github.io/BO4E-python/latest/api/bo4e.enum.html" target="_top" title="https://bo4e.github.io/BO4E-python/latest/api/bo4e.enum.html" xlink:actuate="onRequest" xlink:href="https://bo4e.github.io/BO4E-python/latest/api/bo4e.enum.html" xlink:show="new" xlink:title="https://bo4e.github.io/BO4E-python/latest/api/bo4e.enum.html" xlink:type="simple"><text fill="#0000FF" font-family="sans-serif" font-size="14" font-weight="bold" lengthAdjust="spacing" text-decoration="underline" textLength="89" x="481" y="63.9951">bo4e.enum</text></a></g><!--class Typ--><g id="elem_Typ"><rect codeLine="10" fill="#F1F1F1" height="37.9375" id="Typ" rx="2.5" ry="2.5" style="stroke:#181818;stroke-width:0.5;" width="106" x="493" y="84.03"/><ellipse cx="508" cy="102.9988" fill="#ADD1B2" rx="11" ry="11" style="stroke:#181818;stroke-width:1.0;"/><path d="M510.9688,108.6394 Q510.3906,108.9363 509.75,109.0769 Q509.1094,109.2331 508.4063,109.2331 Q505.9063,109.2331 504.5781,107.5925 Q503.2656,105.9363 503.2656,102.8113 Q503.2656,99.6863 504.5781,98.03 Q505.9063,96.3738 508.4063,96.3738 Q509.1094,96.3738 509.75,96.53 Q510.4063,96.6863 510.9688,96.9831 L510.9688,99.7019 Q510.3438,99.1238 509.75,98.8581 Q509.1563,98.5769 508.5313,98.5769 Q507.1875,98.5769 506.5,99.655 Q505.8125,100.7175 505.8125,102.8113 Q505.8125,104.905 506.5,105.9831 Q507.1875,107.0456 508.5313,107.0456 Q509.1563,107.0456 509.75,106.78 Q510.3438,106.4988 510.9688,105.9206 L510.9688,108.6394 Z " fill="#000000"/><a href="https://bo4e.github.io/BO4E-python/latest/api/bo4e.enum.html#bo4e.enum.typ.Typ" target="_top" title="https://bo4e.github.io/BO4E-python/latest/api/bo4e.enum.html#bo4e.enum.typ.Typ" xlink:actuate="onRequest" xlink:href="https://bo4e.github.io/BO4E-python/latest/api/bo4e.enum.html#bo4e.enum.typ.Typ" xlink:show="new" xlink:title="https://bo4e.github.io/BO4E-python/latest/api/bo4e.enum.html#bo4e.enum.typ.Typ" xlink:type="simple"><text fill="#0000FF" font-family="sans-serif" font-size="14" lengthAdjust="spacing" text-decoration="underline" textLength="25" x="546.5" y="102.0251">Typ</text></a><text fill="#000000" font-family="sans-serif" font-size="10" lengthAdjust="spacing" textLength="74" x="522" y="114.6091">bo4e.enum.typ</text></g><!--class Geschaeftsobjekt--><g id="elem_Geschaeftsobjekt"><rect codeLine="3" fill="#F1F1F1" height="94.8281" id="Geschaeftsobjekt" rx="2.5" ry="2.5" style="stroke:#181818;stroke-width:0.5;" width="371" x="7" y="55.59"/><ellipse cx="126.25" cy="74.5588" fill="#ADD1B2" rx="11" ry="11" style="stroke:#181818;stroke-width:1.0;"/><path d="M129.2188,80.1994 Q128.6406,80.4963 128,80.6369 Q127.3594,80.7931 126.6563,80.7931 Q124.1563,80.7931 122.8281,79.1525 Q121.5156,77.4963 121.5156,74.3713 Q121.5156,71.2463 122.8281,69.59 Q124.1563,67.9338 126.6563,67.9338 Q127.3594,67.9338 128,68.09 Q128.6563,68.2463 129.2188,68.5431 L129.2188,71.2619 Q128.5938,70.6838 128,70.4181 Q127.4063,70.1369 126.7813,70.1369 Q125.4375,70.1369 124.75,71.215 Q124.0625,72.2775 124.0625,74.3713 Q124.0625,76.465 124.75,77.5431 Q125.4375,78.6056 126.7813,78.6056 Q127.4063,78.6056 128,78.34 Q128.5938,78.0588 129.2188,77.4806 L129.2188,80.1994 Z " fill="#000000"/><a href="https://bo4e.github.io/BO4E-python/latest/api/bo4e.bo.html#bo4e.bo.geschaeftsobjekt.Geschaeftsobjekt" target="_top" title="https://bo4e.github.io/BO4E-python/latest/api/bo4e.bo.html#bo4e.bo.geschaeftsobjekt.Geschaeftsobjekt" xlink:actuate="onRequest" xlink:href="https://bo4e.github.io/BO4E-python/latest/api/bo4e.bo.html#bo4e.bo.geschaeftsobjekt.Geschaeftsobjekt" xlink:show="new" xlink:title="https://bo4e.github.io/BO4E-python/latest/api/bo4e.bo.html#bo4e.bo.geschaeftsobjekt.Geschaeftsobjekt" xlink:type="simple"><text fill="#0000FF" font-family="sans-serif" font-size="14" lengthAdjust="spacing" text-decoration="underline" textLength="122" x="147.75" y="73.5851">Geschaeftsobjekt</text></a><text fill="#000000" font-family="sans-serif" font-size="10" lengthAdjust="spacing" textLength="124" x="146.75" y="86.1691">bo4e.bo.geschaeftsobjekt</text><line style="stroke:#181818;stroke-width:0.5;" x1="8" x2="377" y1="93.5275" y2="93.5275"/><text fill="#000000" font-family="sans-serif" font-size="14" lengthAdjust="spacing" textLength="359" x="13" y="110.5226">_version : str [0..1] = 202401.4.1.dev6+g362b98d5</text><text fill="#000000" font-family="sans-serif" font-size="14" lengthAdjust="spacing" textLength="311" x="13" y="126.8195">zusatzAttribute : ZusatzAttribut [0..*] = None</text><text fill="#000000" font-family="sans-serif" font-size="14" lengthAdjust="spacing" textLength="147" x="13" y="143.1164">_id : str [0..1] = None</text></g><!--link Geschaeftsobjekt to Typ--><g id="link_Geschaeftsobjekt_Typ"><path codeLine="13" d="M378.26,103 C420.31,103 449.68,103 480.69,103 " fill="none" id="Geschaeftsobjekt-to-Typ" style="stroke:#181818;stroke-width:1.0;"/><polygon fill="#181818" points="492.69,103,486.69,99,480.69,103,486.69,107,492.69,103" style="stroke:#181818;stroke-width:1.0;"/><text fill="#000000" font-family="sans-serif" font-size="13" lengthAdjust="spacing" textLength="27" x="409" y="99.0669">_typ</text><text fill="#000000" font-family="sans-serif" font-size="13" lengthAdjust="spacing" textLength="24" x="461.1385" y="115.9419">0..1</text></g><!--SRC=[fL71JeD043rtls92RpLTeALD9MgYYV6c5qzMqYmmPLU19UnGqnh_tOMcRIpneeSzlDcPz-RDot5DG1fgbKc2LDMOaD8bOqakZ05dkPH4bGbTDzO1yaoHR6Akj7lt5DoFgor9NRgv83JaYahjksBD9HNvy00oD8aKLide-0tVYJ-S5U2y44MlvPLHEmnzx-Ot6WU4wKt29nkiDbWRwm92C5J3qkFSZ-0Q9juay7mUS9-dk9bVPDFv9BvSf3Css3L6qEwMg5PnGsWdNtvKEf9HI_AeIxGIAZrdxpw-62j5WQOI2VxnUbWsHNS_EC8ewhmUCGnJFvdE5gtP_mHrb1gU86qh_hojmBv-2eUERXtRqVhjfmdZyGYSzYxEQUUED8ILdMPCgXIXm2AsGJ4ZzGVqMTOAyzHy0m00]--></g></svg>