<?xml version="1.0" encoding="us-ascii" standalone="no"?><svg xmlns="http://www.w3.org/2000/svg" xmlns:xlink="http://www.w3.org/1999/xlink" contentStyleType="text/css" height="169px" preserveAspectRatio="none" style="width:635px;height:169px;background:#FFFFFF;" version="1.1" viewBox="0 0 635 169" width="635px" zoomAndPan="magnify"><defs/><g><!--cluster bo4e--><g id="cluster_bo4e"><path d="M444.5,6 L485.5,6 A3.75,3.75 0 0 1 488,8.5 L495,28.2969 L625.5,28.2969 A2.5,2.5 0 0 1 628,30.7969 L628,159.5 A2.5,2.5 0 0 1 625.5,162 L444.5,162 A2.5,2.5 0 0 1 442,159.5 L442,8.5 A2.5,2.5 0 0 1 444.5,6 " fill="none" style="stroke:#000000;stroke-width:1.5;"/><line style="stroke:#000000;stroke-width:1.5;" x1="442" x2="495" y1="28.2969" y2="28.2969"/><text fill="#000000" font-family="sans-serif" font-size="14" font-weight="bold" lengthAdjust="spacing" textLength="40" x="446" y="20.9951">bo4e</text></g><!--cluster enum--><g id="cluster_enum"><path d="M468.5,49 L558.5,49 A3.75,3.75 0 0 1 561,51.5 L568,71.2969 L601.5,71.2969 A2.5,2.5 0 0 1 604,73.7969 L604,135.5 A2.5,2.5 0 0 1 601.5,138 L468.5,138 A2.5,2.5 0 0 1 466,135.5 L466,51.5 A2.5,2.5 0 0 1 468.5,49 " fill="#D1C358" style="stroke:#000000;stroke-width:1.5;"/><line style="stroke:#000000;stroke-width:1.5;" x1="466" x2="568" y1="71.2969" y2="71.2969"/><a href="https://bo4e.github.io/BO4E-python/latest/api/bo4e.enum.html" target="_top" title="https://bo4e.github.io/BO4E-python/latest/api/bo4e.enum.html" xlink:actuate="onRequest" xlink:href="https://bo4e.github.io/BO4E-python/latest/api/bo4e.enum.html" xlink:show="new" xlink:title="https://bo4e.github.io/BO4E-python/latest/api/bo4e.enum.html" xlink:type="simple"><text fill="#0000FF" font-family="sans-serif" font-size="14" font-weight="bold" lengthAdjust="spacing" text-decoration="underline" textLength="89" x="470" y="63.9951">bo4e.enum</text></a></g><!--class Typ--><g id="elem_Typ"><rect codeLine="10" fill="#F1F1F1" height="37.9375" id="Typ" rx="2.5" ry="2.5" style="stroke:#181818;stroke-width:0.5;" width="106" x="482" y="84.03"/><ellipse cx="497" cy="102.9988" fill="#ADD1B2" rx="11" ry="11" style="stroke:#181818;stroke-width:1.0;"/><path d="M499.9688,108.6394 Q499.3906,108.9363 498.75,109.0769 Q498.1094,109.2331 497.4063,109.2331 Q494.9063,109.2331 493.5781,107.5925 Q492.2656,105.9363 492.2656,102.8113 Q492.2656,99.6863 493.5781,98.03 Q494.9063,96.3738 497.4063,96.3738 Q498.1094,96.3738 498.75,96.53 Q499.4063,96.6863 499.9688,96.9831 L499.9688,99.7019 Q499.3438,99.1238 498.75,98.8581 Q498.1563,98.5769 497.5313,98.5769 Q496.1875,98.5769 495.5,99.655 Q494.8125,100.7175 494.8125,102.8113 Q494.8125,104.905 495.5,105.9831 Q496.1875,107.0456 497.5313,107.0456 Q498.1563,107.0456 498.75,106.78 Q499.3438,106.4988 499.9688,105.9206 L499.9688,108.6394 Z " fill="#000000"/><a href="https://bo4e.github.io/BO4E-python/latest/api/bo4e.enum.html#bo4e.enum.typ.Typ" target="_top" title="https://bo4e.github.io/BO4E-python/latest/api/bo4e.enum.html#bo4e.enum.typ.Typ" xlink:actuate="onRequest" xlink:href="https://bo4e.github.io/BO4E-python/latest/api/bo4e.enum.html#bo4e.enum.typ.Typ" xlink:show="new" xlink:title="https://bo4e.github.io/BO4E-python/latest/api/bo4e.enum.html#bo4e.enum.typ.Typ" xlink:type="simple"><text fill="#0000FF" font-family="sans-serif" font-size="14" lengthAdjust="spacing" text-decoration="underline" textLength="25" x="535.5" y="102.0251">Typ</text></a><text fill="#000000" font-family="sans-serif" font-size="10" lengthAdjust="spacing" textLength="74" x="511" y="114.6091">bo4e.enum.typ</text></g><!--class Geschaeftsobjekt--><g id="elem_Geschaeftsobjekt"><rect codeLine="3" fill="#F1F1F1" height="94.8281" id="Geschaeftsobjekt" rx="2.5" ry="2.5" style="stroke:#181818;stroke-width:0.5;" width="360" x="7" y="55.59"/><ellipse cx="120.75" cy="74.5588" fill="#ADD1B2" rx="11" ry="11" style="stroke:#181818;stroke-width:1.0;"/><path d="M123.7188,80.1994 Q123.1406,80.4963 122.5,80.6369 Q121.8594,80.7931 121.1563,80.7931 Q118.6563,80.7931 117.3281,79.1525 Q116.0156,77.4963 116.0156,74.3713 Q116.0156,71.2463 117.3281,69.59 Q118.6563,67.9338 121.1563,67.9338 Q121.8594,67.9338 122.5,68.09 Q123.1563,68.2463 123.7188,68.5431 L123.7188,71.2619 Q123.0938,70.6838 122.5,70.4181 Q121.9063,70.1369 121.2813,70.1369 Q119.9375,70.1369 119.25,71.215 Q118.5625,72.2775 118.5625,74.3713 Q118.5625,76.465 119.25,77.5431 Q119.9375,78.6056 121.2813,78.6056 Q121.9063,78.6056 122.5,78.34 Q123.0938,78.0588 123.7188,77.4806 L123.7188,80.1994 Z " fill="#000000"/><a href="https://bo4e.github.io/BO4E-python/latest/api/bo4e.bo.html#bo4e.bo.geschaeftsobjekt.Geschaeftsobjekt" target="_top" title="https://bo4e.github.io/BO4E-python/latest/api/bo4e.bo.html#bo4e.bo.geschaeftsobjekt.Geschaeftsobjekt" xlink:actuate="onRequest" xlink:href="https://bo4e.github.io/BO4E-python/latest/api/bo4e.bo.html#bo4e.bo.geschaeftsobjekt.Geschaeftsobjekt" xlink:show="new" xlink:title="https://bo4e.github.io/BO4E-python/latest/api/bo4e.bo.html#bo4e.bo.geschaeftsobjekt.Geschaeftsobjekt" xlink:type="simple"><text fill="#0000FF" font-family="sans-serif" font-size="14" lengthAdjust="spacing" text-decoration="underline" textLength="122" x="142.25" y="73.5851">Geschaeftsobjekt</text></a><text fill="#000000" font-family="sans-serif" font-size="10" lengthAdjust="spacing" textLength="124" x="141.25" y="86.1691">bo4e.bo.geschaeftsobjekt</text><line style="stroke:#181818;stroke-width:0.5;" x1="8" x2="366" y1="93.5275" y2="93.5275"/><text fill="#000000" font-family="sans-serif" font-size="14" lengthAdjust="spacing" textLength="348" x="13" y="110.5226">_version : str [0..1] = 202401.1.2.dev8+g7bcbec4</text><text fill="#000000" font-family="sans-serif" font-size="14" lengthAdjust="spacing" textLength="311" x="13" y="126.8195">zusatzAttribute : ZusatzAttribut [0..*] = None</text><text fill="#000000" font-family="sans-serif" font-size="14" lengthAdjust="spacing" textLength="147" x="13" y="143.1164">_id : str [0..1] = None</text></g><!--link Geschaeftsobjekt to Typ--><g id="link_Geschaeftsobjekt_Typ"><path codeLine="13" d="M367.33,103 C409.17,103 438.52,103 469.56,103 " fill="none" id="Geschaeftsobjekt-to-Typ" style="stroke:#181818;stroke-width:1.0;"/><polygon fill="#181818" points="481.56,103,475.56,99,469.56,103,475.56,107,481.56,103" style="stroke:#181818;stroke-width:1.0;"/><text fill="#000000" font-family="sans-serif" font-size="13" lengthAdjust="spacing" textLength="27" x="398" y="99.0669">_typ</text><text fill="#000000" font-family="sans-serif" font-size="13" lengthAdjust="spacing" textLength="24" x="449.9935" y="115.9419">0..1</text></g><!--SRC=[fL6nJiCm49thhpYbMr6Tf0HHHO044cA3XOasgkpa6XkIE8elHItYtt62sef6B31uUEUxz-xTAt1DG0OQdIk2J3UOaZOLOsaXh0LliL14jOrzNve8UQv9jP9huzyzHVVJUalAL7uX22tvejRVNT9mHMKnteCSRQg4Kx96lk8RyOUJ0fmMacHPNLczmpWCRdwZyK3OmIHyiD5gWurrBY06Imqi0ix31AvX5ioY8EGXd_4CD_Ep_5Ac4jE8ZNQj5RIx9MgqR0dTuCkFIiynwJWUJOLEGMUdvFt79sELAD7M8iK_7W-hjkpF1mUO9BtL0uPn5gRd5_FEwtzoEaYDZv2sDN_Urk3UC8HzHx-Ew-Zy3iE4wNG2NdSNxxXpJnh3oaqpfdI6K68fNKxCAlCEGvQrnYApNm00]--></g></svg>