<?xml version="1.0" encoding="us-ascii" standalone="no"?><svg xmlns="http://www.w3.org/2000/svg" xmlns:xlink="http://www.w3.org/1999/xlink" contentStyleType="text/css" height="541px" preserveAspectRatio="none" style="width:805px;height:541px;background:#FFFFFF;" version="1.1" viewBox="0 0 805 541" width="805px" zoomAndPan="magnify"><defs/><g><!--cluster bo4e--><g id="cluster_bo4e"><path d="M564.5,6 L605.5,6 A3.75,3.75 0 0 1 608,8.5 L615,28.2969 L795.5,28.2969 A2.5,2.5 0 0 1 798,30.7969 L798,531.5 A2.5,2.5 0 0 1 795.5,534 L564.5,534 A2.5,2.5 0 0 1 562,531.5 L562,8.5 A2.5,2.5 0 0 1 564.5,6 " fill="none" style="stroke:#000000;stroke-width:1.5;"/><line style="stroke:#000000;stroke-width:1.5;" x1="562" x2="615" y1="28.2969" y2="28.2969"/><text fill="#000000" font-family="sans-serif" font-size="14" font-weight="bold" lengthAdjust="spacing" textLength="40" x="566" y="20.9951">bo4e</text></g><!--cluster bo--><g id="cluster_bo"><path d="M588.5,49 L654.5,49 A3.75,3.75 0 0 1 657,51.5 L664,71.2969 L771.5,71.2969 A2.5,2.5 0 0 1 774,73.7969 L774,135.5 A2.5,2.5 0 0 1 771.5,138 L588.5,138 A2.5,2.5 0 0 1 586,135.5 L586,51.5 A2.5,2.5 0 0 1 588.5,49 " fill="#B6D7A8" style="stroke:#000000;stroke-width:1.5;"/><line style="stroke:#000000;stroke-width:1.5;" x1="586" x2="664" y1="71.2969" y2="71.2969"/><a href="https://bo4e.github.io/BO4E-python/latest/api/bo4e.bo.html" target="_top" title="https://bo4e.github.io/BO4E-python/latest/api/bo4e.bo.html" xlink:actuate="onRequest" xlink:href="https://bo4e.github.io/BO4E-python/latest/api/bo4e.bo.html" xlink:show="new" xlink:title="https://bo4e.github.io/BO4E-python/latest/api/bo4e.bo.html" xlink:type="simple"><text fill="#0000FF" font-family="sans-serif" font-size="14" font-weight="bold" lengthAdjust="spacing" text-decoration="underline" textLength="65" x="590" y="63.9951">bo4e.bo</text></a></g><!--cluster com--><g id="cluster_com"><path d="M597,162 L676,162 A3.75,3.75 0 0 1 678.5,164.5 L685.5,184.2969 L763,184.2969 A2.5,2.5 0 0 1 765.5,186.7969 L765.5,394.5 A2.5,2.5 0 0 1 763,397 L597,397 A2.5,2.5 0 0 1 594.5,394.5 L594.5,164.5 A2.5,2.5 0 0 1 597,162 " fill="#E0A86C" style="stroke:#000000;stroke-width:1.5;"/><line style="stroke:#000000;stroke-width:1.5;" x1="594.5" x2="685.5" y1="184.2969" y2="184.2969"/><a href="https://bo4e.github.io/BO4E-python/latest/api/bo4e.com.html" target="_top" title="https://bo4e.github.io/BO4E-python/latest/api/bo4e.com.html" xlink:actuate="onRequest" xlink:href="https://bo4e.github.io/BO4E-python/latest/api/bo4e.com.html" xlink:show="new" xlink:title="https://bo4e.github.io/BO4E-python/latest/api/bo4e.com.html" xlink:type="simple"><text fill="#0000FF" font-family="sans-serif" font-size="14" font-weight="bold" lengthAdjust="spacing" text-decoration="underline" textLength="78" x="598.5" y="176.9951">bo4e.com</text></a></g><!--cluster enum--><g id="cluster_enum"><path d="M591,421 L681,421 A3.75,3.75 0 0 1 683.5,423.5 L690.5,443.2969 L769,443.2969 A2.5,2.5 0 0 1 771.5,445.7969 L771.5,507.5 A2.5,2.5 0 0 1 769,510 L591,510 A2.5,2.5 0 0 1 588.5,507.5 L588.5,423.5 A2.5,2.5 0 0 1 591,421 " fill="#D1C358" style="stroke:#000000;stroke-width:1.5;"/><line style="stroke:#000000;stroke-width:1.5;" x1="588.5" x2="690.5" y1="443.2969" y2="443.2969"/><a href="https://bo4e.github.io/BO4E-python/latest/api/bo4e.enum.html" target="_top" title="https://bo4e.github.io/BO4E-python/latest/api/bo4e.enum.html" xlink:actuate="onRequest" xlink:href="https://bo4e.github.io/BO4E-python/latest/api/bo4e.enum.html" xlink:show="new" xlink:title="https://bo4e.github.io/BO4E-python/latest/api/bo4e.enum.html" xlink:type="simple"><text fill="#0000FF" font-family="sans-serif" font-size="14" font-weight="bold" lengthAdjust="spacing" text-decoration="underline" textLength="89" x="592.5" y="435.9951">bo4e.enum</text></a></g><!--class Geschaeftsobjekt--><g id="elem_Geschaeftsobjekt"><rect codeLine="8" fill="#F1F1F1" height="37.9375" id="Geschaeftsobjekt" rx="2.5" ry="2.5" style="stroke:#181818;stroke-width:0.5;" width="156" x="602" y="84.03"/><ellipse cx="617" cy="102.9987" fill="#ADD1B2" rx="11" ry="11" style="stroke:#181818;stroke-width:1.0;"/><path d="M619.9688,108.6394 Q619.3906,108.9362 618.75,109.0769 Q618.1094,109.2331 617.4063,109.2331 Q614.9063,109.2331 613.5781,107.5925 Q612.2656,105.9362 612.2656,102.8112 Q612.2656,99.6862 613.5781,98.03 Q614.9063,96.3737 617.4063,96.3737 Q618.1094,96.3737 618.75,96.53 Q619.4063,96.6862 619.9688,96.9831 L619.9688,99.7019 Q619.3438,99.1237 618.75,98.8581 Q618.1563,98.5769 617.5313,98.5769 Q616.1875,98.5769 615.5,99.655 Q614.8125,100.7175 614.8125,102.8112 Q614.8125,104.905 615.5,105.9831 Q616.1875,107.0456 617.5313,107.0456 Q618.1563,107.0456 618.75,106.78 Q619.3438,106.4987 619.9688,105.9206 L619.9688,108.6394 Z " fill="#000000"/><a href="https://bo4e.github.io/BO4E-python/latest/api/bo4e.bo.html#bo4e.bo.geschaeftsobjekt.Geschaeftsobjekt" target="_top" title="https://bo4e.github.io/BO4E-python/latest/api/bo4e.bo.html#bo4e.bo.geschaeftsobjekt.Geschaeftsobjekt" xlink:actuate="onRequest" xlink:href="https://bo4e.github.io/BO4E-python/latest/api/bo4e.bo.html#bo4e.bo.geschaeftsobjekt.Geschaeftsobjekt" xlink:show="new" xlink:title="https://bo4e.github.io/BO4E-python/latest/api/bo4e.bo.html#bo4e.bo.geschaeftsobjekt.Geschaeftsobjekt" xlink:type="simple"><text fill="#0000FF" font-family="sans-serif" font-size="14" lengthAdjust="spacing" text-decoration="underline" textLength="122" x="632" y="102.0251">Geschaeftsobjekt</text></a><text fill="#000000" font-family="sans-serif" font-size="10" lengthAdjust="spacing" textLength="124" x="631" y="114.6091">bo4e.bo.geschaeftsobjekt</text></g><!--class Zeitraum--><g id="elem_Zeitraum"><rect codeLine="11" fill="#F1F1F1" height="37.9375" id="Zeitraum" rx="2.5" ry="2.5" style="stroke:#181818;stroke-width:0.5;" width="126" x="617" y="197.03"/><ellipse cx="632" cy="215.9987" fill="#ADD1B2" rx="11" ry="11" style="stroke:#181818;stroke-width:1.0;"/><path d="M634.9688,221.6394 Q634.3906,221.9362 633.75,222.0769 Q633.1094,222.2331 632.4063,222.2331 Q629.9063,222.2331 628.5781,220.5925 Q627.2656,218.9362 627.2656,215.8112 Q627.2656,212.6862 628.5781,211.03 Q629.9063,209.3737 632.4063,209.3737 Q633.1094,209.3737 633.75,209.53 Q634.4063,209.6862 634.9688,209.9831 L634.9688,212.7019 Q634.3438,212.1237 633.75,211.8581 Q633.1563,211.5769 632.5313,211.5769 Q631.1875,211.5769 630.5,212.655 Q629.8125,213.7175 629.8125,215.8112 Q629.8125,217.905 630.5,218.9831 Q631.1875,220.0456 632.5313,220.0456 Q633.1563,220.0456 633.75,219.78 Q634.3438,219.4987 634.9688,218.9206 L634.9688,221.6394 Z " fill="#000000"/><a href="https://bo4e.github.io/BO4E-python/latest/api/bo4e.com.html#bo4e.com.zeitraum.Zeitraum" target="_top" title="https://bo4e.github.io/BO4E-python/latest/api/bo4e.com.html#bo4e.com.zeitraum.Zeitraum" xlink:actuate="onRequest" xlink:href="https://bo4e.github.io/BO4E-python/latest/api/bo4e.com.html#bo4e.com.zeitraum.Zeitraum" xlink:show="new" xlink:title="https://bo4e.github.io/BO4E-python/latest/api/bo4e.com.html#bo4e.com.zeitraum.Zeitraum" xlink:type="simple"><text fill="#0000FF" font-family="sans-serif" font-size="14" lengthAdjust="spacing" text-decoration="underline" textLength="62" x="662" y="215.0251">Zeitraum</text></a><text fill="#000000" font-family="sans-serif" font-size="10" lengthAdjust="spacing" textLength="94" x="646" y="227.6091">bo4e.com.zeitraum</text></g><!--class Betrag--><g id="elem_Betrag"><rect codeLine="12" fill="#F1F1F1" height="37.9375" id="Betrag" rx="2.5" ry="2.5" style="stroke:#181818;stroke-width:0.5;" width="115" x="622.5" y="270.03"/><ellipse cx="637.5" cy="288.9988" fill="#ADD1B2" rx="11" ry="11" style="stroke:#181818;stroke-width:1.0;"/><path d="M640.4688,294.6394 Q639.8906,294.9363 639.25,295.0769 Q638.6094,295.2331 637.9063,295.2331 Q635.4063,295.2331 634.0781,293.5925 Q632.7656,291.9363 632.7656,288.8113 Q632.7656,285.6863 634.0781,284.03 Q635.4063,282.3738 637.9063,282.3738 Q638.6094,282.3738 639.25,282.53 Q639.9063,282.6863 640.4688,282.9831 L640.4688,285.7019 Q639.8438,285.1238 639.25,284.8581 Q638.6563,284.5769 638.0313,284.5769 Q636.6875,284.5769 636,285.655 Q635.3125,286.7175 635.3125,288.8113 Q635.3125,290.905 636,291.9831 Q636.6875,293.0456 638.0313,293.0456 Q638.6563,293.0456 639.25,292.78 Q639.8438,292.4988 640.4688,291.9206 L640.4688,294.6394 Z " fill="#000000"/><a href="https://bo4e.github.io/BO4E-python/latest/api/bo4e.com.html#bo4e.com.betrag.Betrag" target="_top" title="https://bo4e.github.io/BO4E-python/latest/api/bo4e.com.html#bo4e.com.betrag.Betrag" xlink:actuate="onRequest" xlink:href="https://bo4e.github.io/BO4E-python/latest/api/bo4e.com.html#bo4e.com.betrag.Betrag" xlink:show="new" xlink:title="https://bo4e.github.io/BO4E-python/latest/api/bo4e.com.html#bo4e.com.betrag.Betrag" xlink:type="simple"><text fill="#0000FF" font-family="sans-serif" font-size="14" lengthAdjust="spacing" text-decoration="underline" textLength="46" x="670" y="288.0251">Betrag</text></a><text fill="#000000" font-family="sans-serif" font-size="10" lengthAdjust="spacing" textLength="83" x="651.5" y="300.6091">bo4e.com.betrag</text></g><!--class Kostenblock--><g id="elem_Kostenblock"><rect codeLine="13" fill="#F1F1F1" height="37.9375" id="Kostenblock" rx="2.5" ry="2.5" style="stroke:#181818;stroke-width:0.5;" width="139" x="610.5" y="343.03"/><ellipse cx="625.5" cy="361.9988" fill="#ADD1B2" rx="11" ry="11" style="stroke:#181818;stroke-width:1.0;"/><path d="M628.4688,367.6394 Q627.8906,367.9363 627.25,368.0769 Q626.6094,368.2331 625.9063,368.2331 Q623.4063,368.2331 622.0781,366.5925 Q620.7656,364.9363 620.7656,361.8113 Q620.7656,358.6863 622.0781,357.03 Q623.4063,355.3738 625.9063,355.3738 Q626.6094,355.3738 627.25,355.53 Q627.9063,355.6863 628.4688,355.9831 L628.4688,358.7019 Q627.8438,358.1238 627.25,357.8581 Q626.6563,357.5769 626.0313,357.5769 Q624.6875,357.5769 624,358.655 Q623.3125,359.7175 623.3125,361.8113 Q623.3125,363.905 624,364.9831 Q624.6875,366.0456 626.0313,366.0456 Q626.6563,366.0456 627.25,365.78 Q627.8438,365.4988 628.4688,364.9206 L628.4688,367.6394 Z " fill="#000000"/><a href="https://bo4e.github.io/BO4E-python/latest/api/bo4e.com.html#bo4e.com.kostenblock.Kostenblock" target="_top" title="https://bo4e.github.io/BO4E-python/latest/api/bo4e.com.html#bo4e.com.kostenblock.Kostenblock" xlink:actuate="onRequest" xlink:href="https://bo4e.github.io/BO4E-python/latest/api/bo4e.com.html#bo4e.com.kostenblock.Kostenblock" xlink:show="new" xlink:title="https://bo4e.github.io/BO4E-python/latest/api/bo4e.com.html#bo4e.com.kostenblock.Kostenblock" xlink:type="simple"><text fill="#0000FF" font-family="sans-serif" font-size="14" lengthAdjust="spacing" text-decoration="underline" textLength="86" x="650" y="361.0251">Kostenblock</text></a><text fill="#000000" font-family="sans-serif" font-size="10" lengthAdjust="spacing" textLength="107" x="639.5" y="373.6091">bo4e.com.kostenblock</text></g><!--class Kostenklasse--><g id="elem_Kostenklasse"><rect codeLine="16" fill="#F1F1F1" height="37.9375" id="Kostenklasse" rx="2.5" ry="2.5" style="stroke:#181818;stroke-width:0.5;" width="151" x="604.5" y="456.03"/><ellipse cx="619.5" cy="474.9988" fill="#ADD1B2" rx="11" ry="11" style="stroke:#181818;stroke-width:1.0;"/><path d="M622.4688,480.6394 Q621.8906,480.9363 621.25,481.0769 Q620.6094,481.2331 619.9063,481.2331 Q617.4063,481.2331 616.0781,479.5925 Q614.7656,477.9363 614.7656,474.8113 Q614.7656,471.6863 616.0781,470.03 Q617.4063,468.3738 619.9063,468.3738 Q620.6094,468.3738 621.25,468.53 Q621.9063,468.6863 622.4688,468.9831 L622.4688,471.7019 Q621.8438,471.1238 621.25,470.8581 Q620.6563,470.5769 620.0313,470.5769 Q618.6875,470.5769 618,471.655 Q617.3125,472.7175 617.3125,474.8113 Q617.3125,476.905 618,477.9831 Q618.6875,479.0456 620.0313,479.0456 Q620.6563,479.0456 621.25,478.78 Q621.8438,478.4988 622.4688,477.9206 L622.4688,480.6394 Z " fill="#000000"/><a href="https://bo4e.github.io/BO4E-python/latest/api/bo4e.enum.html#bo4e.enum.kostenklasse.Kostenklasse" target="_top" title="https://bo4e.github.io/BO4E-python/latest/api/bo4e.enum.html#bo4e.enum.kostenklasse.Kostenklasse" xlink:actuate="onRequest" xlink:href="https://bo4e.github.io/BO4E-python/latest/api/bo4e.enum.html#bo4e.enum.kostenklasse.Kostenklasse" xlink:show="new" xlink:title="https://bo4e.github.io/BO4E-python/latest/api/bo4e.enum.html#bo4e.enum.kostenklasse.Kostenklasse" xlink:type="simple"><text fill="#0000FF" font-family="sans-serif" font-size="14" lengthAdjust="spacing" text-decoration="underline" textLength="93" x="646.5" y="474.0251">Kostenklasse</text></a><text fill="#000000" font-family="sans-serif" font-size="10" lengthAdjust="spacing" textLength="119" x="633.5" y="486.6091">bo4e.enum.kostenklasse</text></g><!--class Kosten--><g id="elem_Kosten"><rect codeLine="3" fill="#F1F1F1" height="62.2344" id="Kosten" rx="2.5" ry="2.5" style="stroke:#181818;stroke-width:0.5;" width="414" x="7" y="257.88"/><ellipse cx="172.75" cy="276.8488" fill="#ADD1B2" rx="11" ry="11" style="stroke:#181818;stroke-width:1.0;"/><path d="M175.7188,282.4894 Q175.1406,282.7863 174.5,282.9269 Q173.8594,283.0831 173.1563,283.0831 Q170.6563,283.0831 169.3281,281.4425 Q168.0156,279.7863 168.0156,276.6613 Q168.0156,273.5363 169.3281,271.88 Q170.6563,270.2238 173.1563,270.2238 Q173.8594,270.2238 174.5,270.38 Q175.1563,270.5363 175.7188,270.8331 L175.7188,273.5519 Q175.0938,272.9738 174.5,272.7081 Q173.9063,272.4269 173.2813,272.4269 Q171.9375,272.4269 171.25,273.505 Q170.5625,274.5675 170.5625,276.6613 Q170.5625,278.755 171.25,279.8331 Q171.9375,280.8956 173.2813,280.8956 Q173.9063,280.8956 174.5,280.63 Q175.0938,280.3488 175.7188,279.7706 L175.7188,282.4894 Z " fill="#000000"/><a href="https://bo4e.github.io/BO4E-python/latest/api/bo4e.bo.html#bo4e.bo.kosten.Kosten" target="_top" title="https://bo4e.github.io/BO4E-python/latest/api/bo4e.bo.html#bo4e.bo.kosten.Kosten" xlink:actuate="onRequest" xlink:href="https://bo4e.github.io/BO4E-python/latest/api/bo4e.bo.html#bo4e.bo.kosten.Kosten" xlink:show="new" xlink:title="https://bo4e.github.io/BO4E-python/latest/api/bo4e.bo.html#bo4e.bo.kosten.Kosten" xlink:type="simple"><text fill="#0000FF" font-family="sans-serif" font-size="14" lengthAdjust="spacing" text-decoration="underline" textLength="49" x="205.75" y="275.8751">Kosten</text></a><text fill="#000000" font-family="sans-serif" font-size="10" lengthAdjust="spacing" textLength="74" x="193.25" y="288.4591">bo4e.bo.kosten</text><line style="stroke:#181818;stroke-width:0.5;" x1="8" x2="420" y1="295.8175" y2="295.8175"/><text fill="#000000" font-family="sans-serif" font-size="14" lengthAdjust="spacing" textLength="402" x="13" y="312.8126">_typ : Literal[&lt;Typ.KOSTEN: 'KOSTEN'&gt;] [1] = Typ.KOSTEN</text></g><!--link Kosten to Geschaeftsobjekt--><g id="link_Kosten_Geschaeftsobjekt"><path codeLine="19" d="M293.71,257.45 C390.15,218.79 533.8528,161.1884 613.8428,129.1184 " fill="none" id="Kosten-to-Geschaeftsobjekt" style="stroke:#181818;stroke-width:1.0;"/><polygon fill="none" points="630.55,122.42,611.61,123.5493,616.0755,134.6874,630.55,122.42" style="stroke:#181818;stroke-width:1.0;"/></g><!--link Kosten to Kostenklasse--><g id="link_Kosten_Kostenklasse"><path codeLine="20" d="M293.71,320.55 C390.15,359.21 539.4218,419.0444 619.4118,451.1144 " fill="none" id="Kosten-to-Kostenklasse" style="stroke:#181818;stroke-width:1.0;"/><polygon fill="#181818" points="630.55,455.58,626.4694,449.6345,619.4118,451.1144,623.4924,457.0599,630.55,455.58" style="stroke:#181818;stroke-width:1.0;"/><text fill="#000000" font-family="sans-serif" font-size="13" lengthAdjust="spacing" textLength="83" x="457" y="381.0669">kostenklasse</text><text fill="#000000" font-family="sans-serif" font-size="13" lengthAdjust="spacing" textLength="24" x="589.2672" y="445.0947">0..1</text></g><!--link Kosten to Zeitraum--><g id="link_Kosten_Zeitraum"><path codeLine="21" d="M415.82,257.41 C488.32,246 553.0957,235.8043 604.8557,227.6643 " fill="none" id="Kosten-to-Zeitraum" style="stroke:#181818;stroke-width:1.0;"/><polygon fill="#181818" points="616.71,225.8,610.1614,222.7807,604.8557,227.6643,611.4043,230.6836,616.71,225.8" style="stroke:#181818;stroke-width:1.0;"/><text fill="#000000" font-family="sans-serif" font-size="13" lengthAdjust="spacing" textLength="66" x="465.5" y="234.0669">gueltigkeit</text><text fill="#000000" font-family="sans-serif" font-size="13" lengthAdjust="spacing" textLength="24" x="584.9457" y="239.6579">0..1</text></g><!--link Kosten to Kostenblock--><g id="link_Kosten_Kostenblock"><path codeLine="22" d="M415.82,320.59 C485.25,331.52 546.6359,341.1744 598.1659,349.2844 " fill="none" id="Kosten-to-Kostenblock" style="stroke:#181818;stroke-width:1.0;"/><polygon fill="#181818" points="610.02,351.15,604.7148,346.2658,598.1659,349.2844,603.4711,354.1685,610.02,351.15" style="stroke:#181818;stroke-width:1.0;"/><text fill="#000000" font-family="sans-serif" font-size="13" lengthAdjust="spacing" textLength="92" x="452.5" y="323.0669">kostenbloecke</text><text fill="#000000" font-family="sans-serif" font-size="13" lengthAdjust="spacing" textLength="23" x="579.5086" y="362.9143">0..*</text></g><!--link Kosten to Betrag--><g id="link_Kosten_Betrag"><path codeLine="23" d="M421.22,289 C494.68,289 559.63,289 610.12,289 " fill="none" id="Kosten-to-Betrag" style="stroke:#181818;stroke-width:1.0;"/><polygon fill="#181818" points="622.12,289,616.12,285,610.12,289,616.12,293,622.12,289" style="stroke:#181818;stroke-width:1.0;"/><text fill="#000000" font-family="sans-serif" font-size="13" lengthAdjust="spacing" textLength="93" x="452" y="285.0669">summeKosten</text><text fill="#000000" font-family="sans-serif" font-size="13" lengthAdjust="spacing" textLength="23" x="591.5316" y="301.8946">0..*</text></g><!--SRC=[hLJBRjim43o7Nx6m3W42cBBH90s4r43S6ZqaI0xDgQvGKF96OlMW8AuGE8z_hoHADcEvlTWdxgncoU5eboa-4P22KaOnmKgM699KEMDXAhI6qN8P4nNQSzr0dIEF9CLLmALovm_dYt6nfbZbRYe8DRcYa8OLA1vJbZezI9GcpFbjku1PVFzNVgtb2thJoUmZSGH2TonuPIU_QLs01tUIi1JfylfnNV3RXn-FYtiFJarmElDXEVNX2sm_idV6Sf6XBaI8Xrq4Ek3xhRGEWJE__FRvvghHU4ot8jHXBEh_ebNm1nFYttSIi9lOw-NkDgtqtShQf4Cz2bLccLGZswKQWhEOt5nTVZtKfluSPuDUK58fgep_x0BeWw4XDh-LrrEFBIh0Ujk8pzi5pB9VZc6sOWpjs5BCD0Mf2fDkzjeOh7Y_CglGciKM7w5XCA_iZccWtJ8D1cSr3JzT73nQcwESBJINIvfTiRF50B31q9X1iMMDIJGlJl_8ZSTli_wX60pmXbNJpc0quNmwsbx-eoWFx3F_NTdyjyqSU11Lc9ACaZeph3cpQkp6wC-g4OO9_h-mwt0FT9LbQ9YCnNA5a64MOAcPZjKpz9iyIKnN-Yy0]--></g></svg>