<svg xmlns="http://www.w3.org/2000/svg" xmlns:xlink="http://www.w3.org/1999/xlink" contentStyleType="text/css" data-diagram-type="CLASS" height="541px" preserveAspectRatio="none" style="width:860px;height:541px;background:#FFFFFF;" version="1.1" viewBox="0 0 860 541" width="860px" zoomAndPan="magnify"><defs/><g><!--cluster bo4e--><g class="cluster" data-entity="bo4e" data-source-line="8" data-uid="ent0005" id="cluster_bo4e"><path d="M614.51,6 L654.386,6 A3.75,3.75 0 0 1 656.886,8.5 L663.886,28.2969 L850.9,28.2969 A2.5,2.5 0 0 1 853.4,30.7969 L853.4,531.5 A2.5,2.5 0 0 1 850.9,534 L614.51,534 A2.5,2.5 0 0 1 612.01,531.5 L612.01,8.5 A2.5,2.5 0 0 1 614.51,6" fill="none" style="stroke:#000000;stroke-width:1.5;"/><line style="stroke:#000000;stroke-width:1.5;" x1="612.01" x2="663.886" y1="28.2969" y2="28.2969"/><text fill="#000000" font-family="sans-serif" font-size="14" font-weight="bold" lengthAdjust="spacing" textLength="38.876" x="616.01" y="20.9951">bo4e</text></g><!--cluster bo--><g class="cluster" data-entity="bo" data-source-line="7" data-uid="ent0003" id="cluster_bo"><path d="M638.51,49 L703.344,49 A3.75,3.75 0 0 1 705.844,51.5 L712.844,71.2969 L826.9,71.2969 A2.5,2.5 0 0 1 829.4,73.7969 L829.4,135.5 A2.5,2.5 0 0 1 826.9,138 L638.51,138 A2.5,2.5 0 0 1 636.01,135.5 L636.01,51.5 A2.5,2.5 0 0 1 638.51,49" fill="#B6D7A8" style="stroke:#000000;stroke-width:1.5;"/><line style="stroke:#000000;stroke-width:1.5;" x1="636.01" x2="712.844" y1="71.2969" y2="71.2969"/><a href="file:////home/runner/work/BO4E-python/BO4E-python/docs/../.tox/docs/tmp/html/api/bo4e.bo.html" target="_top" title="file:////home/runner/work/BO4E-python/BO4E-python/docs/../.tox/docs/tmp/html/api/bo4e.bo.html" xlink:actuate="onRequest" xlink:href="file:////home/runner/work/BO4E-python/BO4E-python/docs/../.tox/docs/tmp/html/api/bo4e.bo.html" xlink:show="new" xlink:title="file:////home/runner/work/BO4E-python/BO4E-python/docs/../.tox/docs/tmp/html/api/bo4e.bo.html" xlink:type="simple"><text fill="#0000FF" font-family="sans-serif" font-size="14" font-weight="bold" lengthAdjust="spacing" text-decoration="underline" textLength="63.834" x="640.01" y="63.9951">bo4e.bo</text></a></g><!--cluster com--><g class="cluster" data-entity="com" data-source-line="10" data-uid="ent0006" id="cluster_com"><path d="M646.83,162 L724.5292,162 A3.75,3.75 0 0 1 727.0292,164.5 L734.0292,184.2969 L818.59,184.2969 A2.5,2.5 0 0 1 821.09,186.7969 L821.09,394.5 A2.5,2.5 0 0 1 818.59,397 L646.83,397 A2.5,2.5 0 0 1 644.33,394.5 L644.33,164.5 A2.5,2.5 0 0 1 646.83,162" fill="#E0A86C" style="stroke:#000000;stroke-width:1.5;"/><line style="stroke:#000000;stroke-width:1.5;" x1="644.33" x2="734.0292" y1="184.2969" y2="184.2969"/><a href="file:////home/runner/work/BO4E-python/BO4E-python/docs/../.tox/docs/tmp/html/api/bo4e.com.html" target="_top" title="file:////home/runner/work/BO4E-python/BO4E-python/docs/../.tox/docs/tmp/html/api/bo4e.com.html" xlink:actuate="onRequest" xlink:href="file:////home/runner/work/BO4E-python/BO4E-python/docs/../.tox/docs/tmp/html/api/bo4e.com.html" xlink:show="new" xlink:title="file:////home/runner/work/BO4E-python/BO4E-python/docs/../.tox/docs/tmp/html/api/bo4e.com.html" xlink:type="simple"><text fill="#0000FF" font-family="sans-serif" font-size="14" font-weight="bold" lengthAdjust="spacing" text-decoration="underline" textLength="76.6992" x="648.33" y="176.9951">bo4e.com</text></a></g><!--cluster enum--><g class="cluster" data-entity="enum" data-source-line="15" data-uid="ent0010" id="cluster_enum"><path d="M640.86,421 L730.0709,421 A3.75,3.75 0 0 1 732.5709,423.5 L739.5709,443.2969 L824.56,443.2969 A2.5,2.5 0 0 1 827.06,445.7969 L827.06,507.5 A2.5,2.5 0 0 1 824.56,510 L640.86,510 A2.5,2.5 0 0 1 638.36,507.5 L638.36,423.5 A2.5,2.5 0 0 1 640.86,421" fill="#D1C358" style="stroke:#000000;stroke-width:1.5;"/><line style="stroke:#000000;stroke-width:1.5;" x1="638.36" x2="739.5709" y1="443.2969" y2="443.2969"/><a href="file:////home/runner/work/BO4E-python/BO4E-python/docs/../.tox/docs/tmp/html/api/bo4e.enum.html" target="_top" title="file:////home/runner/work/BO4E-python/BO4E-python/docs/../.tox/docs/tmp/html/api/bo4e.enum.html" xlink:actuate="onRequest" xlink:href="file:////home/runner/work/BO4E-python/BO4E-python/docs/../.tox/docs/tmp/html/api/bo4e.enum.html" xlink:show="new" xlink:title="file:////home/runner/work/BO4E-python/BO4E-python/docs/../.tox/docs/tmp/html/api/bo4e.enum.html" xlink:type="simple"><text fill="#0000FF" font-family="sans-serif" font-size="14" font-weight="bold" lengthAdjust="spacing" text-decoration="underline" textLength="88.2109" x="642.36" y="435.9951">bo4e.enum</text></a></g><!--class Geschaeftsobjekt--><g class="entity" data-entity="Geschaeftsobjekt" data-source-line="8" data-uid="ent0004" id="entity_Geschaeftsobjekt"><rect fill="#F1F1F1" height="37.9375" rx="2.5" ry="2.5" style="stroke:#181818;stroke-width:0.5;" width="161.3896" x="652.01" y="84.03"/><ellipse cx="667.01" cy="102.9987" fill="#ADD1B2" rx="11" ry="11" style="stroke:#181818;stroke-width:1;"/><path d="M669.9788,108.6394 Q669.4006,108.9362 668.76,109.0769 Q668.1194,109.2331 667.4163,109.2331 Q664.9163,109.2331 663.5881,107.5925 Q662.2756,105.9362 662.2756,102.8112 Q662.2756,99.6862 663.5881,98.03 Q664.9163,96.3737 667.4163,96.3737 Q668.1194,96.3737 668.76,96.53 Q669.4163,96.6862 669.9788,96.9831 L669.9788,99.7019 Q669.3538,99.1237 668.76,98.8581 Q668.1663,98.5769 667.5413,98.5769 Q666.1975,98.5769 665.51,99.655 Q664.8225,100.7175 664.8225,102.8112 Q664.8225,104.905 665.51,105.9831 Q666.1975,107.0456 667.5413,107.0456 Q668.1663,107.0456 668.76,106.78 Q669.3538,106.4987 669.9788,105.9206 L669.9788,108.6394 Z " fill="#000000"/><a href="file:////home/runner/work/BO4E-python/BO4E-python/docs/../.tox/docs/tmp/html/api/bo4e.bo.html#bo4e.bo.geschaeftsobjekt.Geschaeftsobjekt" target="_top" title="file:////home/runner/work/BO4E-python/BO4E-python/docs/../.tox/docs/tmp/html/api/bo4e.bo.html#bo4e.bo.geschaeftsobjekt.Geschaeftsobjekt" xlink:actuate="onRequest" xlink:href="file:////home/runner/work/BO4E-python/BO4E-python/docs/../.tox/docs/tmp/html/api/bo4e.bo.html#bo4e.bo.geschaeftsobjekt.Geschaeftsobjekt" xlink:show="new" xlink:title="file:////home/runner/work/BO4E-python/BO4E-python/docs/../.tox/docs/tmp/html/api/bo4e.bo.html#bo4e.bo.geschaeftsobjekt.Geschaeftsobjekt" xlink:type="simple"><text fill="#0000FF" font-family="sans-serif" font-size="14" lengthAdjust="spacing" text-decoration="underline" textLength="121.7822" x="684.8137" y="102.0251">Geschaeftsobjekt</text></a><text fill="#000000" font-family="sans-serif" font-size="10" lengthAdjust="spacing" textLength="129.3896" x="681.01" y="114.6091">bo4e.bo.geschaeftsobjekt</text></g><!--class Betrag--><g class="entity" data-entity="Betrag" data-source-line="11" data-uid="ent0007" id="entity_Betrag"><rect fill="#F1F1F1" height="37.9375" rx="2.5" ry="2.5" style="stroke:#181818;stroke-width:0.5;" width="117.7031" x="673.86" y="197.03"/><ellipse cx="688.86" cy="215.9987" fill="#ADD1B2" rx="11" ry="11" style="stroke:#181818;stroke-width:1;"/><path d="M691.8288,221.6394 Q691.2506,221.9362 690.61,222.0769 Q689.9694,222.2331 689.2663,222.2331 Q686.7663,222.2331 685.4381,220.5925 Q684.1256,218.9362 684.1256,215.8112 Q684.1256,212.6862 685.4381,211.03 Q686.7663,209.3737 689.2663,209.3737 Q689.9694,209.3737 690.61,209.53 Q691.2663,209.6862 691.8288,209.9831 L691.8288,212.7019 Q691.2038,212.1237 690.61,211.8581 Q690.0163,211.5769 689.3913,211.5769 Q688.0475,211.5769 687.36,212.655 Q686.6725,213.7175 686.6725,215.8112 Q686.6725,217.905 687.36,218.9831 Q688.0475,220.0456 689.3913,220.0456 Q690.0163,220.0456 690.61,219.78 Q691.2038,219.4987 691.8288,218.9206 L691.8288,221.6394 Z " fill="#000000"/><a href="file:////home/runner/work/BO4E-python/BO4E-python/docs/../.tox/docs/tmp/html/api/bo4e.com.html#bo4e.com.betrag.Betrag" target="_top" title="file:////home/runner/work/BO4E-python/BO4E-python/docs/../.tox/docs/tmp/html/api/bo4e.com.html#bo4e.com.betrag.Betrag" xlink:actuate="onRequest" xlink:href="file:////home/runner/work/BO4E-python/BO4E-python/docs/../.tox/docs/tmp/html/api/bo4e.com.html#bo4e.com.betrag.Betrag" xlink:show="new" xlink:title="file:////home/runner/work/BO4E-python/BO4E-python/docs/../.tox/docs/tmp/html/api/bo4e.com.html#bo4e.com.betrag.Betrag" xlink:type="simple"><text fill="#0000FF" font-family="sans-serif" font-size="14" lengthAdjust="spacing" text-decoration="underline" textLength="46.9287" x="722.2472" y="215.0251">Betrag</text></a><text fill="#000000" font-family="sans-serif" font-size="10" lengthAdjust="spacing" textLength="85.7031" x="702.86" y="227.6091">bo4e.com.betrag</text></g><!--class Kostenblock--><g class="entity" data-entity="Kostenblock" data-source-line="12" data-uid="ent0008" id="entity_Kostenblock"><rect fill="#F1F1F1" height="37.9375" rx="2.5" ry="2.5" style="stroke:#181818;stroke-width:0.5;" width="144.7588" x="660.33" y="270.03"/><ellipse cx="675.33" cy="288.9988" fill="#ADD1B2" rx="11" ry="11" style="stroke:#181818;stroke-width:1;"/><path d="M678.2988,294.6394 Q677.7206,294.9363 677.08,295.0769 Q676.4394,295.2331 675.7363,295.2331 Q673.2363,295.2331 671.9081,293.5925 Q670.5956,291.9363 670.5956,288.8113 Q670.5956,285.6863 671.9081,284.03 Q673.2363,282.3738 675.7363,282.3738 Q676.4394,282.3738 677.08,282.53 Q677.7363,282.6863 678.2988,282.9831 L678.2988,285.7019 Q677.6738,285.1238 677.08,284.8581 Q676.4863,284.5769 675.8613,284.5769 Q674.5175,284.5769 673.83,285.655 Q673.1425,286.7175 673.1425,288.8113 Q673.1425,290.905 673.83,291.9831 Q674.5175,293.0456 675.8613,293.0456 Q676.4863,293.0456 677.08,292.78 Q677.6738,292.4988 678.2988,291.9206 L678.2988,294.6394 Z " fill="#000000"/><a href="file:////home/runner/work/BO4E-python/BO4E-python/docs/../.tox/docs/tmp/html/api/bo4e.com.html#bo4e.com.kostenblock.Kostenblock" target="_top" title="file:////home/runner/work/BO4E-python/BO4E-python/docs/../.tox/docs/tmp/html/api/bo4e.com.html#bo4e.com.kostenblock.Kostenblock" xlink:actuate="onRequest" xlink:href="file:////home/runner/work/BO4E-python/BO4E-python/docs/../.tox/docs/tmp/html/api/bo4e.com.html#bo4e.com.kostenblock.Kostenblock" xlink:show="new" xlink:title="file:////home/runner/work/BO4E-python/BO4E-python/docs/../.tox/docs/tmp/html/api/bo4e.com.html#bo4e.com.kostenblock.Kostenblock" xlink:type="simple"><text fill="#0000FF" font-family="sans-serif" font-size="14" lengthAdjust="spacing" text-decoration="underline" textLength="85.1621" x="703.1283" y="288.0251">Kostenblock</text></a><text fill="#000000" font-family="sans-serif" font-size="10" lengthAdjust="spacing" textLength="112.7588" x="689.33" y="300.6091">bo4e.com.kostenblock</text></g><!--class Zeitraum--><g class="entity" data-entity="Zeitraum" data-source-line="13" data-uid="ent0009" id="entity_Zeitraum"><rect fill="#F1F1F1" height="37.9375" rx="2.5" ry="2.5" style="stroke:#181818;stroke-width:0.5;" width="129.1143" x="668.15" y="343.03"/><ellipse cx="683.15" cy="361.9988" fill="#ADD1B2" rx="11" ry="11" style="stroke:#181818;stroke-width:1;"/><path d="M686.1188,367.6394 Q685.5406,367.9363 684.9,368.0769 Q684.2594,368.2331 683.5563,368.2331 Q681.0563,368.2331 679.7281,366.5925 Q678.4156,364.9363 678.4156,361.8113 Q678.4156,358.6863 679.7281,357.03 Q681.0563,355.3738 683.5563,355.3738 Q684.2594,355.3738 684.9,355.53 Q685.5563,355.6863 686.1188,355.9831 L686.1188,358.7019 Q685.4938,358.1238 684.9,357.8581 Q684.3063,357.5769 683.6813,357.5769 Q682.3375,357.5769 681.65,358.655 Q680.9625,359.7175 680.9625,361.8113 Q680.9625,363.905 681.65,364.9831 Q682.3375,366.0456 683.6813,366.0456 Q684.3063,366.0456 684.9,365.78 Q685.4938,365.4988 686.1188,364.9206 L686.1188,367.6394 Z " fill="#000000"/><a href="file:////home/runner/work/BO4E-python/BO4E-python/docs/../.tox/docs/tmp/html/api/bo4e.com.html#bo4e.com.zeitraum.Zeitraum" target="_top" title="file:////home/runner/work/BO4E-python/BO4E-python/docs/../.tox/docs/tmp/html/api/bo4e.com.html#bo4e.com.zeitraum.Zeitraum" xlink:actuate="onRequest" xlink:href="file:////home/runner/work/BO4E-python/BO4E-python/docs/../.tox/docs/tmp/html/api/bo4e.com.html#bo4e.com.zeitraum.Zeitraum" xlink:show="new" xlink:title="file:////home/runner/work/BO4E-python/BO4E-python/docs/../.tox/docs/tmp/html/api/bo4e.com.html#bo4e.com.zeitraum.Zeitraum" xlink:type="simple"><text fill="#0000FF" font-family="sans-serif" font-size="14" lengthAdjust="spacing" text-decoration="underline" textLength="64.4287" x="713.4928" y="361.0251">Zeitraum</text></a><text fill="#000000" font-family="sans-serif" font-size="10" lengthAdjust="spacing" textLength="97.1143" x="697.15" y="373.6091">bo4e.com.zeitraum</text></g><!--class Kostenklasse--><g class="entity" data-entity="Kostenklasse" data-source-line="16" data-uid="ent0011" id="entity_Kostenklasse"><rect fill="#F1F1F1" height="37.9375" rx="2.5" ry="2.5" style="stroke:#181818;stroke-width:0.5;" width="156.707" x="654.36" y="456.03"/><ellipse cx="669.36" cy="474.9988" fill="#ADD1B2" rx="11" ry="11" style="stroke:#181818;stroke-width:1;"/><path d="M672.3288,480.6394 Q671.7506,480.9363 671.11,481.0769 Q670.4694,481.2331 669.7663,481.2331 Q667.2663,481.2331 665.9381,479.5925 Q664.6256,477.9363 664.6256,474.8113 Q664.6256,471.6863 665.9381,470.03 Q667.2663,468.3738 669.7663,468.3738 Q670.4694,468.3738 671.11,468.53 Q671.7663,468.6863 672.3288,468.9831 L672.3288,471.7019 Q671.7038,471.1238 671.11,470.8581 Q670.5163,470.5769 669.8913,470.5769 Q668.5475,470.5769 667.86,471.655 Q667.1725,472.7175 667.1725,474.8113 Q667.1725,476.905 667.86,477.9831 Q668.5475,479.0456 669.8913,479.0456 Q670.5163,479.0456 671.11,478.78 Q671.7038,478.4988 672.3288,477.9206 L672.3288,480.6394 Z " fill="#000000"/><a href="file:////home/runner/work/BO4E-python/BO4E-python/docs/../.tox/docs/tmp/html/api/bo4e.enum.html#bo4e.enum.kostenklasse.Kostenklasse" target="_top" title="file:////home/runner/work/BO4E-python/BO4E-python/docs/../.tox/docs/tmp/html/api/bo4e.enum.html#bo4e.enum.kostenklasse.Kostenklasse" xlink:actuate="onRequest" xlink:href="file:////home/runner/work/BO4E-python/BO4E-python/docs/../.tox/docs/tmp/html/api/bo4e.enum.html#bo4e.enum.kostenklasse.Kostenklasse" xlink:show="new" xlink:title="file:////home/runner/work/BO4E-python/BO4E-python/docs/../.tox/docs/tmp/html/api/bo4e.enum.html#bo4e.enum.kostenklasse.Kostenklasse" xlink:type="simple"><text fill="#0000FF" font-family="sans-serif" font-size="14" lengthAdjust="spacing" text-decoration="underline" textLength="91.793" x="699.817" y="474.0251">Kostenklasse</text></a><text fill="#000000" font-family="sans-serif" font-size="10" lengthAdjust="spacing" textLength="124.707" x="683.36" y="486.6091">bo4e.enum.kostenklasse</text></g><!--class Kosten--><g class="entity" data-entity="Kosten" data-source-line="3" data-uid="ent0002" id="entity_Kosten"><rect fill="#F1F1F1" height="62.2344" rx="2.5" ry="2.5" style="stroke:#181818;stroke-width:0.5;" width="463.0146" x="7" y="257.88"/><ellipse cx="195.5903" cy="276.8488" fill="#ADD1B2" rx="11" ry="11" style="stroke:#181818;stroke-width:1;"/><path d="M198.5591,282.4894 Q197.981,282.7863 197.3403,282.9269 Q196.6997,283.0831 195.9966,283.0831 Q193.4966,283.0831 192.1685,281.4425 Q190.856,279.7863 190.856,276.6613 Q190.856,273.5363 192.1685,271.88 Q193.4966,270.2238 195.9966,270.2238 Q196.6997,270.2238 197.3403,270.38 Q197.9966,270.5363 198.5591,270.8331 L198.5591,273.5519 Q197.9341,272.9738 197.3403,272.7081 Q196.7466,272.4269 196.1216,272.4269 Q194.7778,272.4269 194.0903,273.505 Q193.4028,274.5675 193.4028,276.6613 Q193.4028,278.755 194.0903,279.8331 Q194.7778,280.8956 196.1216,280.8956 Q196.7466,280.8956 197.3403,280.63 Q197.9341,280.3488 198.5591,279.7706 L198.5591,282.4894 Z " fill="#000000"/><a href="file:////home/runner/work/BO4E-python/BO4E-python/docs/../.tox/docs/tmp/html/api/bo4e.bo.html#bo4e.bo.kosten.Kosten" target="_top" title="file:////home/runner/work/BO4E-python/BO4E-python/docs/../.tox/docs/tmp/html/api/bo4e.bo.html#bo4e.bo.kosten.Kosten" xlink:actuate="onRequest" xlink:href="file:////home/runner/work/BO4E-python/BO4E-python/docs/../.tox/docs/tmp/html/api/bo4e.bo.html#bo4e.bo.kosten.Kosten" xlink:show="new" xlink:title="file:////home/runner/work/BO4E-python/BO4E-python/docs/../.tox/docs/tmp/html/api/bo4e.bo.html#bo4e.bo.kosten.Kosten" xlink:type="simple"><text fill="#0000FF" font-family="sans-serif" font-size="14" lengthAdjust="spacing" text-decoration="underline" textLength="48.0156" x="230.7495" y="275.8751">Kosten</text></a><text fill="#000000" font-family="sans-serif" font-size="10" lengthAdjust="spacing" textLength="77.334" x="216.0903" y="288.4591">bo4e.bo.kosten</text><line style="stroke:#181818;stroke-width:0.5;" x1="8" x2="469.0146" y1="295.8175" y2="295.8175"/><text fill="#000000" font-family="sans-serif" font-size="14" lengthAdjust="spacing" textLength="451.0146" x="13" y="312.8126">_typ : Literal[&lt;BoTyp.KOSTEN: 'KOSTEN'&gt;] [1] = BoTyp.KOSTEN</text></g><!--link Kosten to Geschaeftsobjekt--><g class="link" data-entity-1="Kosten" data-entity-2="Geschaeftsobjekt" data-source-line="19" data-uid="lnk12" id="link_Kosten_Geschaeftsobjekt"><path codeLine="19" d="M323,257.45 C425.31,218.79 578.6325,160.8539 663.4825,128.7839" fill="none" id="Kosten-to-Geschaeftsobjekt" style="stroke:#181818;stroke-width:1;"/><polygon fill="none" points="680.32,122.42,661.3612,123.1714,665.6038,134.3964,680.32,122.42" style="stroke:#181818;stroke-width:1;"/></g><!--link Kosten to Kostenklasse--><g class="link" data-entity-1="Kosten" data-entity-2="Kostenklasse" data-source-line="20" data-uid="lnk13" id="link_Kosten_Kostenklasse"><path codeLine="20" d="M323,320.55 C425.31,359.21 584.245,419.2674 669.095,451.3374" fill="none" id="Kosten-to-Kostenklasse" style="stroke:#181818;stroke-width:1;"/><polygon fill="#181818" points="680.32,455.58,676.1217,449.717,669.095,451.3374,673.2933,457.2004,680.32,455.58" style="stroke:#181818;stroke-width:1;"/><text fill="#000000" font-family="sans-serif" font-size="13" lengthAdjust="spacing" textLength="84.2397" x="506.01" y="384.0669">kostenklasse</text><text fill="#000000" font-family="sans-serif" font-size="13" lengthAdjust="spacing" textLength="24.8066" x="638.3228" y="445.0947">0..1</text></g><!--link Kosten to Zeitraum--><g class="link" data-entity-1="Kosten" data-entity-2="Zeitraum" data-source-line="21" data-uid="lnk14" id="link_Kosten_Zeitraum"><path codeLine="21" d="M452.53,320.59 C530.48,332.15 601.06,342.6182 655.97,350.7682" fill="none" id="Kosten-to-Zeitraum" style="stroke:#181818;stroke-width:1;"/><polygon fill="#181818" points="667.84,352.53,662.4923,347.6924,655.97,350.7682,661.3178,355.6058,667.84,352.53" style="stroke:#181818;stroke-width:1;"/><text fill="#000000" font-family="sans-serif" font-size="13" lengthAdjust="spacing" textLength="69.2974" x="513.51" y="324.0669">gueltigkeit</text><text fill="#000000" font-family="sans-serif" font-size="13" lengthAdjust="spacing" textLength="24.8066" x="635.4768" y="364.3888">0..1</text></g><!--link Kosten to Kostenblock--><g class="link" data-entity-1="Kosten" data-entity-2="Kostenblock" data-source-line="22" data-uid="lnk15" id="link_Kosten_Kostenblock"><path codeLine="22" d="M470.48,289 C539.29,289 597.68,289 648.03,289" fill="none" id="Kosten-to-Kostenblock" style="stroke:#181818;stroke-width:1;"/><polygon fill="#181818" points="660.03,289,654.03,285,648.03,289,654.03,293,660.03,289" style="stroke:#181818;stroke-width:1;"/><text fill="#000000" font-family="sans-serif" font-size="13" lengthAdjust="spacing" textLength="94.0786" x="501.01" y="285.0669">kostenbloecke</text><text fill="#000000" font-family="sans-serif" font-size="13" lengthAdjust="spacing" textLength="23.0356" x="629.2714" y="301.7645">0..*</text></g><!--link Kosten to Betrag--><g class="link" data-entity-1="Kosten" data-entity-2="Betrag" data-source-line="23" data-uid="lnk16" id="link_Kosten_Betrag"><path codeLine="23" d="M452.53,257.41 C533.2,245.44 606.8299,234.5207 661.6399,226.3907" fill="none" id="Kosten-to-Betrag" style="stroke:#181818;stroke-width:1;"/><polygon fill="#181818" points="673.51,224.63,666.988,221.5536,661.6399,226.3907,668.1618,229.4671,673.51,224.63" style="stroke:#181818;stroke-width:1;"/><text fill="#000000" font-family="sans-serif" font-size="13" lengthAdjust="spacing" textLength="92.9233" x="502.01" y="234.0669">summeKosten</text><text fill="#000000" font-family="sans-serif" font-size="13" lengthAdjust="spacing" textLength="23.0356" x="642.779" y="238.4685">0..*</text></g><!--SRC=[nLLHRvim47wUVyKfF5Ig59DeNLkXBbApHNlej3wiJytG1EO27XWZRDIbtVxx04FYX6nlexpulkCxVFVvV6IuqQ0bb3nED4IyHAQvp0bXMQ0KJDRh3S_GS-idaGBTiifpBDqdMQRkylvYDIssEf7vWHr9fbnANQhbJmEqADn4YymD2kw6yW9fA6dZS7gGIgKnftVj0cRn_M_vZUBFwCrdYqFY10BLiU25lFckjmLuy9bhB8DiVREK3zk2tjr_VLXzyU3C66SB7zPp7zw3_Phy9YGF1AeYOFZVwuKE-7vRGOV0MLv-lBgzRaePMVSO5Kk2kWcK37zWgkcd8mSSEqwUol5dskgE8skfHr2QIM59NIDRwng2ivhTNbz-647iFXLdXqBKPH3JPRk0MOQ2xfbjveRs2jcQknPcagNTpMnjiEpJoLk1rarjyIkKyOoy5h0IzB4pe3TEPz_pszHxwZZDYtbbTsy3xVPjC3ZHdBrzDyQms6NZxA4vshJP6BkcC01iC1Hs46mrXd4qaxZ_0KodlnRzT1oCf1shfft3P4RfVBBNvp0f3-mz_nxPdFkkFJo8AymqZzFQCumvjsBiQz7lLIDaAVuxi1i17gXA23HCGX8U8GWK8PQAg4G-GV-H3SSiKdy0]--></g></svg>