<?xml version="1.0" encoding="us-ascii" standalone="no"?><svg xmlns="http://www.w3.org/2000/svg" xmlns:xlink="http://www.w3.org/1999/xlink" contentStyleType="text/css" height="647px" preserveAspectRatio="none" style="width:768px;height:647px;background:#FFFFFF;" version="1.1" viewBox="0 0 768 647" width="768px" zoomAndPan="magnify"><defs/><g><!--cluster bo4e--><g id="cluster_bo4e"><path d="M495.5,6 L536.5,6 A3.75,3.75 0 0 1 539,8.5 L546,28.2969 L758.5,28.2969 A2.5,2.5 0 0 1 761,30.7969 L761,637.5 A2.5,2.5 0 0 1 758.5,640 L495.5,640 A2.5,2.5 0 0 1 493,637.5 L493,8.5 A2.5,2.5 0 0 1 495.5,6 " fill="none" style="stroke:#000000;stroke-width:1.5;"/><line style="stroke:#000000;stroke-width:1.5;" x1="493" x2="546" y1="28.2969" y2="28.2969"/><text fill="#000000" font-family="sans-serif" font-size="14" font-weight="bold" lengthAdjust="spacing" textLength="40" x="497" y="20.9951">bo4e</text></g><!--cluster bo--><g id="cluster_bo"><path d="M519.5,49 L585.5,49 A3.75,3.75 0 0 1 588,51.5 L595,71.2969 L734.5,71.2969 A2.5,2.5 0 0 1 737,73.7969 L737,500.5 A2.5,2.5 0 0 1 734.5,503 L519.5,503 A2.5,2.5 0 0 1 517,500.5 L517,51.5 A2.5,2.5 0 0 1 519.5,49 " fill="#B6D7A8" style="stroke:#000000;stroke-width:1.5;"/><line style="stroke:#000000;stroke-width:1.5;" x1="517" x2="595" y1="71.2969" y2="71.2969"/><a href="https://bo4e.github.io/BO4E-python/latest/api/bo4e.bo.html" target="_top" title="https://bo4e.github.io/BO4E-python/latest/api/bo4e.bo.html" xlink:actuate="onRequest" xlink:href="https://bo4e.github.io/BO4E-python/latest/api/bo4e.bo.html" xlink:show="new" xlink:title="https://bo4e.github.io/BO4E-python/latest/api/bo4e.bo.html" xlink:type="simple"><text fill="#0000FF" font-family="sans-serif" font-size="14" font-weight="bold" lengthAdjust="spacing" text-decoration="underline" textLength="65" x="521" y="63.9951">bo4e.bo</text></a></g><!--cluster com--><g id="cluster_com"><path d="M546,527 L625,527 A3.75,3.75 0 0 1 627.5,529.5 L634.5,549.2969 L708,549.2969 A2.5,2.5 0 0 1 710.5,551.7969 L710.5,613.5 A2.5,2.5 0 0 1 708,616 L546,616 A2.5,2.5 0 0 1 543.5,613.5 L543.5,529.5 A2.5,2.5 0 0 1 546,527 " fill="#E0A86C" style="stroke:#000000;stroke-width:1.5;"/><line style="stroke:#000000;stroke-width:1.5;" x1="543.5" x2="634.5" y1="549.2969" y2="549.2969"/><a href="https://bo4e.github.io/BO4E-python/latest/api/bo4e.com.html" target="_top" title="https://bo4e.github.io/BO4E-python/latest/api/bo4e.com.html" xlink:actuate="onRequest" xlink:href="https://bo4e.github.io/BO4E-python/latest/api/bo4e.com.html" xlink:show="new" xlink:title="https://bo4e.github.io/BO4E-python/latest/api/bo4e.com.html" xlink:type="simple"><text fill="#0000FF" font-family="sans-serif" font-size="14" font-weight="bold" lengthAdjust="spacing" text-decoration="underline" textLength="78" x="547.5" y="541.9951">bo4e.com</text></a></g><!--class Geschaeftsobjekt--><g id="elem_Geschaeftsobjekt"><rect codeLine="9" fill="#F1F1F1" height="37.9375" id="Geschaeftsobjekt" rx="2.5" ry="2.5" style="stroke:#181818;stroke-width:0.5;" width="156" x="549" y="84.03"/><ellipse cx="564" cy="102.9987" fill="#ADD1B2" rx="11" ry="11" style="stroke:#181818;stroke-width:1.0;"/><path d="M566.9688,108.6394 Q566.3906,108.9362 565.75,109.0769 Q565.1094,109.2331 564.4063,109.2331 Q561.9063,109.2331 560.5781,107.5925 Q559.2656,105.9362 559.2656,102.8112 Q559.2656,99.6862 560.5781,98.03 Q561.9063,96.3737 564.4063,96.3737 Q565.1094,96.3737 565.75,96.53 Q566.4063,96.6862 566.9688,96.9831 L566.9688,99.7019 Q566.3438,99.1237 565.75,98.8581 Q565.1563,98.5769 564.5313,98.5769 Q563.1875,98.5769 562.5,99.655 Q561.8125,100.7175 561.8125,102.8112 Q561.8125,104.905 562.5,105.9831 Q563.1875,107.0456 564.5313,107.0456 Q565.1563,107.0456 565.75,106.78 Q566.3438,106.4987 566.9688,105.9206 L566.9688,108.6394 Z " fill="#000000"/><a href="https://bo4e.github.io/BO4E-python/latest/api/bo4e.bo.html#bo4e.bo.geschaeftsobjekt.Geschaeftsobjekt" target="_top" title="https://bo4e.github.io/BO4E-python/latest/api/bo4e.bo.html#bo4e.bo.geschaeftsobjekt.Geschaeftsobjekt" xlink:actuate="onRequest" xlink:href="https://bo4e.github.io/BO4E-python/latest/api/bo4e.bo.html#bo4e.bo.geschaeftsobjekt.Geschaeftsobjekt" xlink:show="new" xlink:title="https://bo4e.github.io/BO4E-python/latest/api/bo4e.bo.html#bo4e.bo.geschaeftsobjekt.Geschaeftsobjekt" xlink:type="simple"><text fill="#0000FF" font-family="sans-serif" font-size="14" lengthAdjust="spacing" text-decoration="underline" textLength="122" x="579" y="102.0251">Geschaeftsobjekt</text></a><text fill="#000000" font-family="sans-serif" font-size="10" lengthAdjust="spacing" textLength="124" x="578" y="114.6091">bo4e.bo.geschaeftsobjekt</text></g><!--class Netzlokation--><g id="elem_Netzlokation"><rect codeLine="10" fill="#F1F1F1" height="37.9375" id="Netzlokation" rx="2.5" ry="2.5" style="stroke:#181818;stroke-width:0.5;" width="132" x="561" y="157.03"/><ellipse cx="576" cy="175.9987" fill="#ADD1B2" rx="11" ry="11" style="stroke:#181818;stroke-width:1.0;"/><path d="M578.9688,181.6394 Q578.3906,181.9362 577.75,182.0769 Q577.1094,182.2331 576.4063,182.2331 Q573.9063,182.2331 572.5781,180.5925 Q571.2656,178.9362 571.2656,175.8112 Q571.2656,172.6862 572.5781,171.03 Q573.9063,169.3737 576.4063,169.3737 Q577.1094,169.3737 577.75,169.53 Q578.4063,169.6862 578.9688,169.9831 L578.9688,172.7019 Q578.3438,172.1237 577.75,171.8581 Q577.1563,171.5769 576.5313,171.5769 Q575.1875,171.5769 574.5,172.655 Q573.8125,173.7175 573.8125,175.8112 Q573.8125,177.905 574.5,178.9831 Q575.1875,180.0456 576.5313,180.0456 Q577.1563,180.0456 577.75,179.78 Q578.3438,179.4987 578.9688,178.9206 L578.9688,181.6394 Z " fill="#000000"/><a href="https://bo4e.github.io/BO4E-python/latest/api/bo4e.bo.html#bo4e.bo.netzlokation.Netzlokation" target="_top" title="https://bo4e.github.io/BO4E-python/latest/api/bo4e.bo.html#bo4e.bo.netzlokation.Netzlokation" xlink:actuate="onRequest" xlink:href="https://bo4e.github.io/BO4E-python/latest/api/bo4e.bo.html#bo4e.bo.netzlokation.Netzlokation" xlink:show="new" xlink:title="https://bo4e.github.io/BO4E-python/latest/api/bo4e.bo.html#bo4e.bo.netzlokation.Netzlokation" xlink:type="simple"><text fill="#0000FF" font-family="sans-serif" font-size="14" lengthAdjust="spacing" text-decoration="underline" textLength="86" x="597" y="175.0251">Netzlokation</text></a><text fill="#000000" font-family="sans-serif" font-size="10" lengthAdjust="spacing" textLength="100" x="590" y="187.6091">bo4e.bo.netzlokation</text></g><!--class TechnischeRessource--><g id="elem_TechnischeRessource"><rect codeLine="11" fill="#F1F1F1" height="37.9375" id="TechnischeRessource" rx="2.5" ry="2.5" style="stroke:#181818;stroke-width:0.5;" width="188" x="533" y="230.03"/><ellipse cx="548" cy="248.9987" fill="#ADD1B2" rx="11" ry="11" style="stroke:#181818;stroke-width:1.0;"/><path d="M550.9688,254.6394 Q550.3906,254.9362 549.75,255.0769 Q549.1094,255.2331 548.4063,255.2331 Q545.9063,255.2331 544.5781,253.5925 Q543.2656,251.9362 543.2656,248.8112 Q543.2656,245.6862 544.5781,244.03 Q545.9063,242.3737 548.4063,242.3737 Q549.1094,242.3737 549.75,242.53 Q550.4063,242.6862 550.9688,242.9831 L550.9688,245.7019 Q550.3438,245.1237 549.75,244.8581 Q549.1563,244.5769 548.5313,244.5769 Q547.1875,244.5769 546.5,245.655 Q545.8125,246.7175 545.8125,248.8112 Q545.8125,250.905 546.5,251.9831 Q547.1875,253.0456 548.5313,253.0456 Q549.1563,253.0456 549.75,252.78 Q550.3438,252.4987 550.9688,251.9206 L550.9688,254.6394 Z " fill="#000000"/><a href="https://bo4e.github.io/BO4E-python/latest/api/bo4e.bo.html#bo4e.bo.technischeressource.TechnischeRessource" target="_top" title="https://bo4e.github.io/BO4E-python/latest/api/bo4e.bo.html#bo4e.bo.technischeressource.TechnischeRessource" xlink:actuate="onRequest" xlink:href="https://bo4e.github.io/BO4E-python/latest/api/bo4e.bo.html#bo4e.bo.technischeressource.TechnischeRessource" xlink:show="new" xlink:title="https://bo4e.github.io/BO4E-python/latest/api/bo4e.bo.html#bo4e.bo.technischeressource.TechnischeRessource" xlink:type="simple"><text fill="#0000FF" font-family="sans-serif" font-size="14" lengthAdjust="spacing" text-decoration="underline" textLength="156" x="562" y="248.0251">TechnischeRessource</text></a><text fill="#000000" font-family="sans-serif" font-size="10" lengthAdjust="spacing" textLength="140" x="570" y="260.6091">bo4e.bo.technischeressource</text></g><!--class Marktlokation--><g id="elem_Marktlokation"><rect codeLine="12" fill="#F1F1F1" height="37.9375" id="Marktlokation" rx="2.5" ry="2.5" style="stroke:#181818;stroke-width:0.5;" width="140" x="557" y="303.03"/><ellipse cx="572" cy="321.9988" fill="#ADD1B2" rx="11" ry="11" style="stroke:#181818;stroke-width:1.0;"/><path d="M574.9688,327.6394 Q574.3906,327.9363 573.75,328.0769 Q573.1094,328.2331 572.4063,328.2331 Q569.9063,328.2331 568.5781,326.5925 Q567.2656,324.9363 567.2656,321.8113 Q567.2656,318.6863 568.5781,317.03 Q569.9063,315.3738 572.4063,315.3738 Q573.1094,315.3738 573.75,315.53 Q574.4063,315.6863 574.9688,315.9831 L574.9688,318.7019 Q574.3438,318.1238 573.75,317.8581 Q573.1563,317.5769 572.5313,317.5769 Q571.1875,317.5769 570.5,318.655 Q569.8125,319.7175 569.8125,321.8113 Q569.8125,323.905 570.5,324.9831 Q571.1875,326.0456 572.5313,326.0456 Q573.1563,326.0456 573.75,325.78 Q574.3438,325.4988 574.9688,324.9206 L574.9688,327.6394 Z " fill="#000000"/><a href="https://bo4e.github.io/BO4E-python/latest/api/bo4e.bo.html#bo4e.bo.marktlokation.Marktlokation" target="_top" title="https://bo4e.github.io/BO4E-python/latest/api/bo4e.bo.html#bo4e.bo.marktlokation.Marktlokation" xlink:actuate="onRequest" xlink:href="https://bo4e.github.io/BO4E-python/latest/api/bo4e.bo.html#bo4e.bo.marktlokation.Marktlokation" xlink:show="new" xlink:title="https://bo4e.github.io/BO4E-python/latest/api/bo4e.bo.html#bo4e.bo.marktlokation.Marktlokation" xlink:type="simple"><text fill="#0000FF" font-family="sans-serif" font-size="14" lengthAdjust="spacing" text-decoration="underline" textLength="92" x="594" y="321.0251">Marktlokation</text></a><text fill="#000000" font-family="sans-serif" font-size="10" lengthAdjust="spacing" textLength="108" x="586" y="333.6091">bo4e.bo.marktlokation</text></g><!--class SteuerbareRessource--><g id="elem_SteuerbareRessource"><rect codeLine="13" fill="#F1F1F1" height="37.9375" id="SteuerbareRessource" rx="2.5" ry="2.5" style="stroke:#181818;stroke-width:0.5;" width="184" x="535" y="376.03"/><ellipse cx="550" cy="394.9988" fill="#ADD1B2" rx="11" ry="11" style="stroke:#181818;stroke-width:1.0;"/><path d="M552.9688,400.6394 Q552.3906,400.9363 551.75,401.0769 Q551.1094,401.2331 550.4063,401.2331 Q547.9063,401.2331 546.5781,399.5925 Q545.2656,397.9363 545.2656,394.8113 Q545.2656,391.6863 546.5781,390.03 Q547.9063,388.3738 550.4063,388.3738 Q551.1094,388.3738 551.75,388.53 Q552.4063,388.6863 552.9688,388.9831 L552.9688,391.7019 Q552.3438,391.1238 551.75,390.8581 Q551.1563,390.5769 550.5313,390.5769 Q549.1875,390.5769 548.5,391.655 Q547.8125,392.7175 547.8125,394.8113 Q547.8125,396.905 548.5,397.9831 Q549.1875,399.0456 550.5313,399.0456 Q551.1563,399.0456 551.75,398.78 Q552.3438,398.4988 552.9688,397.9206 L552.9688,400.6394 Z " fill="#000000"/><a href="https://bo4e.github.io/BO4E-python/latest/api/bo4e.bo.html#bo4e.bo.steuerbareressource.SteuerbareRessource" target="_top" title="https://bo4e.github.io/BO4E-python/latest/api/bo4e.bo.html#bo4e.bo.steuerbareressource.SteuerbareRessource" xlink:actuate="onRequest" xlink:href="https://bo4e.github.io/BO4E-python/latest/api/bo4e.bo.html#bo4e.bo.steuerbareressource.SteuerbareRessource" xlink:show="new" xlink:title="https://bo4e.github.io/BO4E-python/latest/api/bo4e.bo.html#bo4e.bo.steuerbareressource.SteuerbareRessource" xlink:type="simple"><text fill="#0000FF" font-family="sans-serif" font-size="14" lengthAdjust="spacing" text-decoration="underline" textLength="152" x="564" y="394.0251">SteuerbareRessource</text></a><text fill="#000000" font-family="sans-serif" font-size="10" lengthAdjust="spacing" textLength="142" x="569" y="406.6091">bo4e.bo.steuerbareressource</text></g><!--class Messlokation--><g id="elem_Messlokation"><rect codeLine="14" fill="#F1F1F1" height="37.9375" id="Messlokation" rx="2.5" ry="2.5" style="stroke:#181818;stroke-width:0.5;" width="137" x="558.5" y="449.03"/><ellipse cx="573.5" cy="467.9988" fill="#ADD1B2" rx="11" ry="11" style="stroke:#181818;stroke-width:1.0;"/><path d="M576.4688,473.6394 Q575.8906,473.9363 575.25,474.0769 Q574.6094,474.2331 573.9063,474.2331 Q571.4063,474.2331 570.0781,472.5925 Q568.7656,470.9363 568.7656,467.8113 Q568.7656,464.6863 570.0781,463.03 Q571.4063,461.3738 573.9063,461.3738 Q574.6094,461.3738 575.25,461.53 Q575.9063,461.6863 576.4688,461.9831 L576.4688,464.7019 Q575.8438,464.1238 575.25,463.8581 Q574.6563,463.5769 574.0313,463.5769 Q572.6875,463.5769 572,464.655 Q571.3125,465.7175 571.3125,467.8113 Q571.3125,469.905 572,470.9831 Q572.6875,472.0456 574.0313,472.0456 Q574.6563,472.0456 575.25,471.78 Q575.8438,471.4988 576.4688,470.9206 L576.4688,473.6394 Z " fill="#000000"/><a href="https://bo4e.github.io/BO4E-python/latest/api/bo4e.bo.html#bo4e.bo.messlokation.Messlokation" target="_top" title="https://bo4e.github.io/BO4E-python/latest/api/bo4e.bo.html#bo4e.bo.messlokation.Messlokation" xlink:actuate="onRequest" xlink:href="https://bo4e.github.io/BO4E-python/latest/api/bo4e.bo.html#bo4e.bo.messlokation.Messlokation" xlink:show="new" xlink:title="https://bo4e.github.io/BO4E-python/latest/api/bo4e.bo.html#bo4e.bo.messlokation.Messlokation" xlink:type="simple"><text fill="#0000FF" font-family="sans-serif" font-size="14" lengthAdjust="spacing" text-decoration="underline" textLength="91" x="594.5" y="467.0251">Messlokation</text></a><text fill="#000000" font-family="sans-serif" font-size="10" lengthAdjust="spacing" textLength="105" x="587.5" y="479.6091">bo4e.bo.messlokation</text></g><!--class Zeitspanne--><g id="elem_Zeitspanne"><rect codeLine="17" fill="#F1F1F1" height="37.9375" id="Zeitspanne" rx="2.5" ry="2.5" style="stroke:#181818;stroke-width:0.5;" width="135" x="559.5" y="562.03"/><ellipse cx="574.5" cy="580.9988" fill="#ADD1B2" rx="11" ry="11" style="stroke:#181818;stroke-width:1.0;"/><path d="M577.4688,586.6394 Q576.8906,586.9363 576.25,587.0769 Q575.6094,587.2331 574.9063,587.2331 Q572.4063,587.2331 571.0781,585.5925 Q569.7656,583.9363 569.7656,580.8113 Q569.7656,577.6863 571.0781,576.03 Q572.4063,574.3738 574.9063,574.3738 Q575.6094,574.3738 576.25,574.53 Q576.9063,574.6863 577.4688,574.9831 L577.4688,577.7019 Q576.8438,577.1238 576.25,576.8581 Q575.6563,576.5769 575.0313,576.5769 Q573.6875,576.5769 573,577.655 Q572.3125,578.7175 572.3125,580.8113 Q572.3125,582.905 573,583.9831 Q573.6875,585.0456 575.0313,585.0456 Q575.6563,585.0456 576.25,584.78 Q576.8438,584.4988 577.4688,583.9206 L577.4688,586.6394 Z " fill="#000000"/><a href="https://bo4e.github.io/BO4E-python/latest/api/bo4e.com.html#bo4e.com.zeitspanne.Zeitspanne" target="_top" title="https://bo4e.github.io/BO4E-python/latest/api/bo4e.com.html#bo4e.com.zeitspanne.Zeitspanne" xlink:actuate="onRequest" xlink:href="https://bo4e.github.io/BO4E-python/latest/api/bo4e.com.html#bo4e.com.zeitspanne.Zeitspanne" xlink:show="new" xlink:title="https://bo4e.github.io/BO4E-python/latest/api/bo4e.com.html#bo4e.com.zeitspanne.Zeitspanne" xlink:type="simple"><text fill="#0000FF" font-family="sans-serif" font-size="14" lengthAdjust="spacing" text-decoration="underline" textLength="79" x="600.5" y="580.0251">Zeitspanne</text></a><text fill="#000000" font-family="sans-serif" font-size="10" lengthAdjust="spacing" textLength="103" x="588.5" y="592.6091">bo4e.com.zeitspanne</text></g><!--class Lokationszuordnung--><g id="elem_Lokationszuordnung"><rect codeLine="3" fill="#F1F1F1" height="78.5313" id="Lokationszuordnung" rx="2.5" ry="2.5" style="stroke:#181818;stroke-width:0.5;" width="294" x="7" y="283.73"/><ellipse cx="78.75" cy="302.6988" fill="#ADD1B2" rx="11" ry="11" style="stroke:#181818;stroke-width:1.0;"/><path d="M81.7188,308.3394 Q81.1406,308.6363 80.5,308.7769 Q79.8594,308.9331 79.1563,308.9331 Q76.6563,308.9331 75.3281,307.2925 Q74.0156,305.6363 74.0156,302.5113 Q74.0156,299.3863 75.3281,297.73 Q76.6563,296.0738 79.1563,296.0738 Q79.8594,296.0738 80.5,296.23 Q81.1563,296.3863 81.7188,296.6831 L81.7188,299.4019 Q81.0938,298.8238 80.5,298.5581 Q79.9063,298.2769 79.2813,298.2769 Q77.9375,298.2769 77.25,299.355 Q76.5625,300.4175 76.5625,302.5113 Q76.5625,304.605 77.25,305.6831 Q77.9375,306.7456 79.2813,306.7456 Q79.9063,306.7456 80.5,306.48 Q81.0938,306.1988 81.7188,305.6206 L81.7188,308.3394 Z " fill="#000000"/><a href="https://bo4e.github.io/BO4E-python/latest/api/bo4e.bo.html#bo4e.bo.lokationszuordnung.Lokationszuordnung" target="_top" title="https://bo4e.github.io/BO4E-python/latest/api/bo4e.bo.html#bo4e.bo.lokationszuordnung.Lokationszuordnung" xlink:actuate="onRequest" xlink:href="https://bo4e.github.io/BO4E-python/latest/api/bo4e.bo.html#bo4e.bo.lokationszuordnung.Lokationszuordnung" xlink:show="new" xlink:title="https://bo4e.github.io/BO4E-python/latest/api/bo4e.bo.html#bo4e.bo.lokationszuordnung.Lokationszuordnung" xlink:type="simple"><text fill="#0000FF" font-family="sans-serif" font-size="14" lengthAdjust="spacing" text-decoration="underline" textLength="142" x="99.25" y="301.7251">Lokationszuordnung</text></a><text fill="#000000" font-family="sans-serif" font-size="10" lengthAdjust="spacing" textLength="135" x="102.75" y="314.3091">bo4e.bo.lokationszuordnung</text><line style="stroke:#181818;stroke-width:0.5;" x1="8" x2="300" y1="321.6675" y2="321.6675"/><text fill="#000000" font-family="sans-serif" font-size="14" lengthAdjust="spacing" textLength="233" x="13" y="338.6626">zuordnungstyp : str [0..1] = None</text><text fill="#000000" font-family="sans-serif" font-size="14" lengthAdjust="spacing" textLength="282" x="13" y="354.9595">lokationsbuendelcode : str [0..1] = None</text></g><!--reverse link Lokationszuordnung to Netzlokation--><g id="link_Lokationszuordnung_Netzlokation"><path codeLine="20" d="M178.6025,272.54 C204.9525,220.4 253.76,141.91 331,105 C389.55,77.02 426.13,64.71 477,105 C489.17,114.64 474.16,127.88 485,139 C504.7,159.21 533.98,168.83 560.77,173.26 " fill="none" id="Lokationszuordnung-backto-Netzlokation" style="stroke:#181818;stroke-width:1.0;"/><polygon fill="#181818" points="173.19,283.25,179.4663,279.6992,178.6025,272.54,172.3263,276.0908,173.19,283.25" style="stroke:#181818;stroke-width:1.0;"/><text fill="#000000" font-family="sans-serif" font-size="13" lengthAdjust="spacing" textLength="141" x="333.5" y="76.0669">lokationszuordnungen</text><text fill="#000000" font-family="sans-serif" font-size="13" lengthAdjust="spacing" textLength="23" x="151.4156" y="272.7977">0..*</text></g><!--link Lokationszuordnung to Netzlokation--><g id="link_Lokationszuordnung_Netzlokation"><path codeLine="28" d="M190.35,283.46 C223.07,249.99 274.99,204.3 331,184 C406.14,156.76 487.3168,158.486 548.5868,164.976 " fill="none" id="Lokationszuordnung-to-Netzlokation" style="stroke:#181818;stroke-width:1.0;"/><polygon fill="#181818" points="560.52,166.24,554.9747,161.6302,548.5868,164.976,554.132,169.5857,560.52,166.24" style="stroke:#181818;stroke-width:1.0;"/><text fill="#000000" font-family="sans-serif" font-size="13" lengthAdjust="spacing" textLength="94" x="357" y="158.0669">netzlokationen</text><text fill="#000000" font-family="sans-serif" font-size="13" lengthAdjust="spacing" textLength="23" x="530.0875" y="178.0979">0..*</text></g><!--reverse link Lokationszuordnung to TechnischeRessource--><g id="link_Lokationszuordnung_TechnischeRessource"><path codeLine="21" d="M214.9745,276.5128 C248.4945,252.7128 284.95,231.59 331,219 C409.21,197.62 502.85,213.9 563.32,229.6 " fill="none" id="Lokationszuordnung-backto-TechnischeRessource" style="stroke:#181818;stroke-width:1.0;"/><polygon fill="#181818" points="205.19,283.46,212.398,283.2479,214.9745,276.5128,207.7665,276.7249,205.19,283.46" style="stroke:#181818;stroke-width:1.0;"/><text fill="#000000" font-family="sans-serif" font-size="13" lengthAdjust="spacing" textLength="141" x="333.5" y="205.0669">lokationszuordnungen</text><text fill="#000000" font-family="sans-serif" font-size="13" lengthAdjust="spacing" textLength="23" x="188.7637" y="272.7476">0..*</text></g><!--link Lokationszuordnung to TechnischeRessource--><g id="link_Lokationszuordnung_TechnischeRessource"><path codeLine="29" d="M301.45,299.99 C376.92,288.13 454.8555,275.8929 520.8455,265.5229 " fill="none" id="Lokationszuordnung-to-TechnischeRessource" style="stroke:#181818;stroke-width:1.0;"/><polygon fill="#181818" points="532.7,263.66,526.1518,260.6399,520.8455,265.5229,527.3937,268.5429,532.7,263.66" style="stroke:#181818;stroke-width:1.0;"/><text fill="#000000" font-family="sans-serif" font-size="13" lengthAdjust="spacing" textLength="143" x="332.5" y="269.0669">technischeRessourcen</text><text fill="#000000" font-family="sans-serif" font-size="13" lengthAdjust="spacing" textLength="23" x="501.9303" y="277.3592">0..*</text></g><!--reverse link Lokationszuordnung to Marktlokation--><g id="link_Lokationszuordnung_Marktlokation"><path codeLine="22" d="M313.45,322.6646 C398.51,322.4846 489.75,322.29 556.61,322.15 " fill="none" id="Lokationszuordnung-backto-Marktlokation" style="stroke:#181818;stroke-width:1.0;"/><polygon fill="#181818" points="301.45,322.69,307.4585,326.6773,313.45,322.6646,307.4415,318.6773,301.45,322.69" style="stroke:#181818;stroke-width:1.0;"/><text fill="#000000" font-family="sans-serif" font-size="13" lengthAdjust="spacing" textLength="141" x="333.5" y="319.0669">lokationszuordnungen</text><text fill="#000000" font-family="sans-serif" font-size="13" lengthAdjust="spacing" textLength="23" x="309.1491" y="335.1086">0..*</text></g><!--link Lokationszuordnung to Marktlokation--><g id="link_Lokationszuordnung_Marktlokation"><path codeLine="26" d="M301.29,345.38 C311.33,346.42 321.3,347.31 331,348 C395.73,352.57 412.35,353.6 477,348 C503.16,345.73 519.8186,343.4441 544.7886,338.8441 " fill="none" id="Lokationszuordnung-to-Marktlokation" style="stroke:#181818;stroke-width:1.0;"/><polygon fill="#181818" points="556.59,336.67,549.9646,333.8232,544.7886,338.8441,551.414,341.6908,556.59,336.67" style="stroke:#181818;stroke-width:1.0;"/><text fill="#000000" font-family="sans-serif" font-size="13" lengthAdjust="spacing" textLength="104" x="352" y="344.0669">marktlokationen</text><text fill="#000000" font-family="sans-serif" font-size="13" lengthAdjust="spacing" textLength="23" x="526.0389" y="350.7869">0..*</text></g><!--reverse link Lokationszuordnung to SteuerbareRessource--><g id="link_Lokationszuordnung_SteuerbareRessource"><path codeLine="23" d="M282.0387,365.93 C302.0187,371.57 311.19,373.41 331,377 C398.53,389.24 476.02,393.6 534.63,394.98 " fill="none" id="Lokationszuordnung-backto-SteuerbareRessource" style="stroke:#181818;stroke-width:1.0;"/><polygon fill="#181818" points="270.49,362.67,275.1777,368.1496,282.0387,365.93,277.351,360.4504,270.49,362.67" style="stroke:#181818;stroke-width:1.0;"/><text fill="#000000" font-family="sans-serif" font-size="13" lengthAdjust="spacing" textLength="141" x="333.5" y="373.0669">lokationszuordnungen</text><text fill="#000000" font-family="sans-serif" font-size="13" lengthAdjust="spacing" textLength="23" x="264.2228" y="382.2659">0..*</text></g><!--link Lokationszuordnung to SteuerbareRessource--><g id="link_Lokationszuordnung_SteuerbareRessource"><path codeLine="30" d="M211.07,362.58 C244.25,383.55 288.08,407.16 331,418 C403.34,436.28 476.7901,428.7487 536.9801,416.7887 " fill="none" id="Lokationszuordnung-to-SteuerbareRessource" style="stroke:#181818;stroke-width:1.0;"/><polygon fill="#181818" points="548.75,414.45,542.0855,411.6961,536.9801,416.7887,543.6446,419.5427,548.75,414.45" style="stroke:#181818;stroke-width:1.0;"/><text fill="#000000" font-family="sans-serif" font-size="13" lengthAdjust="spacing" textLength="144" x="332" y="414.0669">steuerbareRessourcen</text><text fill="#000000" font-family="sans-serif" font-size="13" lengthAdjust="spacing" textLength="23" x="503.8734" y="433.1024">0..*</text></g><!--reverse link Lokationszuordnung to Messlokation--><g id="link_Lokationszuordnung_Messlokation"><path codeLine="24" d="M202.28,370.712 C235.46,401.852 277.56,434.88 331,454 C405.34,480.6 497,480.27 558.23,475.77 " fill="none" id="Lokationszuordnung-backto-Messlokation" style="stroke:#181818;stroke-width:1.0;"/><polygon fill="#181818" points="193.53,362.5,195.1677,369.5227,202.28,370.712,200.6423,363.6893,193.53,362.5" style="stroke:#181818;stroke-width:1.0;"/><text fill="#000000" font-family="sans-serif" font-size="13" lengthAdjust="spacing" textLength="141" x="333.5" y="450.0669">lokationszuordnungen</text><text fill="#000000" font-family="sans-serif" font-size="13" lengthAdjust="spacing" textLength="23" x="175.1725" y="382.363">0..*</text></g><!--link Lokationszuordnung to Messlokation--><g id="link_Lokationszuordnung_Messlokation"><path codeLine="27" d="M179.37,362.48 C209,406.31 263.52,474.61 331,503 C413.48,537.71 508.3909,513.414 568.2609,491.504 " fill="none" id="Lokationszuordnung-to-Messlokation" style="stroke:#181818;stroke-width:1.0;"/><polygon fill="#181818" points="579.53,487.38,572.5208,485.6857,568.2609,491.504,575.2701,493.1984,579.53,487.38" style="stroke:#181818;stroke-width:1.0;"/><text fill="#000000" font-family="sans-serif" font-size="13" lengthAdjust="spacing" textLength="101" x="353.5" y="499.0669">messlokationen</text><text fill="#000000" font-family="sans-serif" font-size="13" lengthAdjust="spacing" textLength="23" x="539.9447" y="507.0259">0..*</text></g><!--link Lokationszuordnung to Geschaeftsobjekt--><g id="link_Lokationszuordnung_Geschaeftsobjekt"><path codeLine="25" d="M167.37,283.37 C189.1,221.45 240.62,103.77 331,55 C415.71,9.29 516.4154,47.0504 574.3454,75.7004 " fill="none" id="Lokationszuordnung-to-Geschaeftsobjekt" style="stroke:#181818;stroke-width:1.0;"/><polygon fill="none" points="590.48,83.68,577.0052,70.3222,571.6855,81.0786,590.48,83.68" style="stroke:#181818;stroke-width:1.0;"/></g><!--link Lokationszuordnung to Zeitspanne--><g id="link_Lokationszuordnung_Zeitspanne"><path codeLine="31" d="M173.93,362.53 C200.93,414.12 255.71,502.79 331,545 C401.55,584.55 484.3084,589.6101 547.1784,587.2501 " fill="none" id="Lokationszuordnung-to-Zeitspanne" style="stroke:#181818;stroke-width:1.0;"/><polygon fill="#181818" points="559.17,586.8,553.0242,583.0279,547.1784,587.2501,553.3243,591.0223,559.17,586.8" style="stroke:#181818;stroke-width:1.0;"/><text fill="#000000" font-family="sans-serif" font-size="13" lengthAdjust="spacing" textLength="66" x="371" y="541.0669">gueltigkeit</text><text fill="#000000" font-family="sans-serif" font-size="13" lengthAdjust="spacing" textLength="24" x="527.5612" y="600.141">0..1</text></g><!--SRC=[hLR1Rfj053o7htYoRvO0MuhI2BMHaZJgfKsbDgUw702_mDQmQx4FLN7RV- -Q1BoOPoKMt9ZHll7imCuwnqS2Kb2AD2DOYH8J4aewJf97MiDakSo8DZhm_LYTevSAoghO4yg_-Nf-vswUA5FIpoD2JNwq4S-hOkLbLEJJ1kHg7UrKzRPIvKfMClK-zoZeKs7uKxxNOel1OdvrN6m2aMQcuOzprW9DJni8G5C9oxddBKBu0FTAedFMwiKLoXNcYLeXk_AVuyYeGBs94XmM3Bo0CAojlo2OtbnyV7TzkVCzPlefwYIBp7lMAlw5Q_8-7H1mIB2v7yhKrWydntKkaRRDw_7kBG0sODtQexLJUs9SbuH99eN90KlKMbLbWjv3otrhE60urZgZL- -0cHzt8qLKhgdD-ukDe8DOsvtfsd1dPbohch32CevAA_FlBRVFdE5OyunUlGLcVkJCZUm-SWk03VZ0hGNFULk4QQkXPPMemcehW-owCX2cT_FhoulReNtL_CwqHLiKP9nBYTwFzX7sZ_qukbErpVtoNNDp5yx4rFji0ZFNXQQ3koqJGF-oGVbcBQu41afs3-L0CUx03FLdVy4dQBdktwjMf7UfS1DcPDPOE9PEfvAE_3Ahqzs5VT1EK3dubEmRwGGL_YEYFljsIVwzwpxxYkHYqdQ1VKu3I2lCIQHhmpbE9ip_gGAB64ljw4pz1axqKM2-qly1]--></g></svg>