<?xml version="1.0" encoding="us-ascii" standalone="no"?><svg xmlns="http://www.w3.org/2000/svg" xmlns:xlink="http://www.w3.org/1999/xlink" contentStyleType="text/css" height="669px" preserveAspectRatio="none" style="width:1230px;height:669px;background:#FFFFFF;" version="1.1" viewBox="0 0 1230 669" width="1230px" zoomAndPan="magnify"><defs/><g><!--cluster bo4e--><g id="cluster_bo4e"><path d="M957.5,28.5659 L998.5,28.5659 A3.75,3.75 0 0 1 1001,31.0659 L1008,50.8628 L1220.5,50.8628 A2.5,2.5 0 0 1 1223,53.3628 L1223,660.0659 A2.5,2.5 0 0 1 1220.5,662.5659 L957.5,662.5659 A2.5,2.5 0 0 1 955,660.0659 L955,31.0659 A2.5,2.5 0 0 1 957.5,28.5659 " fill="none" style="stroke:#000000;stroke-width:1.5;"/><line style="stroke:#000000;stroke-width:1.5;" x1="955" x2="1008" y1="50.8628" y2="50.8628"/><text fill="#000000" font-family="sans-serif" font-size="14" font-weight="bold" lengthAdjust="spacing" textLength="40" x="959" y="43.561">bo4e</text></g><!--cluster bo--><g id="cluster_bo"><path d="M981.5,71.5659 L1047.5,71.5659 A3.75,3.75 0 0 1 1050,74.0659 L1057,93.8628 L1196.5,93.8628 A2.5,2.5 0 0 1 1199,96.3628 L1199,523.0659 A2.5,2.5 0 0 1 1196.5,525.5659 L981.5,525.5659 A2.5,2.5 0 0 1 979,523.0659 L979,74.0659 A2.5,2.5 0 0 1 981.5,71.5659 " fill="#B6D7A8" style="stroke:#000000;stroke-width:1.5;"/><line style="stroke:#000000;stroke-width:1.5;" x1="979" x2="1057" y1="93.8628" y2="93.8628"/><a href="https://bo4e.github.io/BO4E-python/latest/api/bo4e.bo.html" target="_top" title="https://bo4e.github.io/BO4E-python/latest/api/bo4e.bo.html" xlink:actuate="onRequest" xlink:href="https://bo4e.github.io/BO4E-python/latest/api/bo4e.bo.html" xlink:show="new" xlink:title="https://bo4e.github.io/BO4E-python/latest/api/bo4e.bo.html" xlink:type="simple"><text fill="#0000FF" font-family="sans-serif" font-size="14" font-weight="bold" lengthAdjust="spacing" text-decoration="underline" textLength="65" x="983" y="86.561">bo4e.bo</text></a></g><!--cluster com--><g id="cluster_com"><path d="M1008,549.5659 L1087,549.5659 A3.75,3.75 0 0 1 1089.5,552.0659 L1096.5,571.8628 L1170,571.8628 A2.5,2.5 0 0 1 1172.5,574.3628 L1172.5,636.0659 A2.5,2.5 0 0 1 1170,638.5659 L1008,638.5659 A2.5,2.5 0 0 1 1005.5,636.0659 L1005.5,552.0659 A2.5,2.5 0 0 1 1008,549.5659 " fill="#E0A86C" style="stroke:#000000;stroke-width:1.5;"/><line style="stroke:#000000;stroke-width:1.5;" x1="1005.5" x2="1096.5" y1="571.8628" y2="571.8628"/><a href="https://bo4e.github.io/BO4E-python/latest/api/bo4e.com.html" target="_top" title="https://bo4e.github.io/BO4E-python/latest/api/bo4e.com.html" xlink:actuate="onRequest" xlink:href="https://bo4e.github.io/BO4E-python/latest/api/bo4e.com.html" xlink:show="new" xlink:title="https://bo4e.github.io/BO4E-python/latest/api/bo4e.com.html" xlink:type="simple"><text fill="#0000FF" font-family="sans-serif" font-size="14" font-weight="bold" lengthAdjust="spacing" text-decoration="underline" textLength="78" x="1009.5" y="564.561">bo4e.com</text></a></g><!--class Netzlokation--><g id="elem_Netzlokation"><rect codeLine="10" fill="#F1F1F1" height="37.9375" id="Netzlokation" rx="2.5" ry="2.5" style="stroke:#181818;stroke-width:0.5;" width="132" x="1023" y="106.5959"/><ellipse cx="1038" cy="125.5647" fill="#ADD1B2" rx="11" ry="11" style="stroke:#181818;stroke-width:1.0;"/><path d="M1040.9688,131.2053 Q1040.3906,131.5022 1039.75,131.6428 Q1039.1094,131.799 1038.4063,131.799 Q1035.9063,131.799 1034.5781,130.1584 Q1033.2656,128.5022 1033.2656,125.3772 Q1033.2656,122.2522 1034.5781,120.5959 Q1035.9063,118.9397 1038.4063,118.9397 Q1039.1094,118.9397 1039.75,119.0959 Q1040.4063,119.2522 1040.9688,119.549 L1040.9688,122.2678 Q1040.3438,121.6897 1039.75,121.424 Q1039.1563,121.1428 1038.5313,121.1428 Q1037.1875,121.1428 1036.5,122.2209 Q1035.8125,123.2834 1035.8125,125.3772 Q1035.8125,127.4709 1036.5,128.549 Q1037.1875,129.6115 1038.5313,129.6115 Q1039.1563,129.6115 1039.75,129.3459 Q1040.3438,129.0647 1040.9688,128.4865 L1040.9688,131.2053 Z " fill="#000000"/><a href="https://bo4e.github.io/BO4E-python/latest/api/bo4e.bo.html#bo4e.bo.netzlokation.Netzlokation" target="_top" title="https://bo4e.github.io/BO4E-python/latest/api/bo4e.bo.html#bo4e.bo.netzlokation.Netzlokation" xlink:actuate="onRequest" xlink:href="https://bo4e.github.io/BO4E-python/latest/api/bo4e.bo.html#bo4e.bo.netzlokation.Netzlokation" xlink:show="new" xlink:title="https://bo4e.github.io/BO4E-python/latest/api/bo4e.bo.html#bo4e.bo.netzlokation.Netzlokation" xlink:type="simple"><text fill="#0000FF" font-family="sans-serif" font-size="14" lengthAdjust="spacing" text-decoration="underline" textLength="86" x="1059" y="124.591">Netzlokation</text></a><text fill="#000000" font-family="sans-serif" font-size="10" lengthAdjust="spacing" textLength="100" x="1052" y="137.175">bo4e.bo.netzlokation</text></g><!--class Messlokation--><g id="elem_Messlokation"><rect codeLine="11" fill="#F1F1F1" height="37.9375" id="Messlokation" rx="2.5" ry="2.5" style="stroke:#181818;stroke-width:0.5;" width="137" x="1020.5" y="179.5959"/><ellipse cx="1035.5" cy="198.5647" fill="#ADD1B2" rx="11" ry="11" style="stroke:#181818;stroke-width:1.0;"/><path d="M1038.4688,204.2053 Q1037.8906,204.5022 1037.25,204.6428 Q1036.6094,204.799 1035.9063,204.799 Q1033.4063,204.799 1032.0781,203.1584 Q1030.7656,201.5022 1030.7656,198.3772 Q1030.7656,195.2522 1032.0781,193.5959 Q1033.4063,191.9397 1035.9063,191.9397 Q1036.6094,191.9397 1037.25,192.0959 Q1037.9063,192.2522 1038.4688,192.549 L1038.4688,195.2678 Q1037.8438,194.6897 1037.25,194.424 Q1036.6563,194.1428 1036.0313,194.1428 Q1034.6875,194.1428 1034,195.2209 Q1033.3125,196.2834 1033.3125,198.3772 Q1033.3125,200.4709 1034,201.549 Q1034.6875,202.6115 1036.0313,202.6115 Q1036.6563,202.6115 1037.25,202.3459 Q1037.8438,202.0647 1038.4688,201.4865 L1038.4688,204.2053 Z " fill="#000000"/><a href="https://bo4e.github.io/BO4E-python/latest/api/bo4e.bo.html#bo4e.bo.messlokation.Messlokation" target="_top" title="https://bo4e.github.io/BO4E-python/latest/api/bo4e.bo.html#bo4e.bo.messlokation.Messlokation" xlink:actuate="onRequest" xlink:href="https://bo4e.github.io/BO4E-python/latest/api/bo4e.bo.html#bo4e.bo.messlokation.Messlokation" xlink:show="new" xlink:title="https://bo4e.github.io/BO4E-python/latest/api/bo4e.bo.html#bo4e.bo.messlokation.Messlokation" xlink:type="simple"><text fill="#0000FF" font-family="sans-serif" font-size="14" lengthAdjust="spacing" text-decoration="underline" textLength="91" x="1056.5" y="197.591">Messlokation</text></a><text fill="#000000" font-family="sans-serif" font-size="10" lengthAdjust="spacing" textLength="105" x="1049.5" y="210.175">bo4e.bo.messlokation</text></g><!--class Marktlokation--><g id="elem_Marktlokation"><rect codeLine="12" fill="#F1F1F1" height="37.9375" id="Marktlokation" rx="2.5" ry="2.5" style="stroke:#181818;stroke-width:0.5;" width="140" x="1019" y="252.5959"/><ellipse cx="1034" cy="271.5647" fill="#ADD1B2" rx="11" ry="11" style="stroke:#181818;stroke-width:1.0;"/><path d="M1036.9688,277.2053 Q1036.3906,277.5022 1035.75,277.6428 Q1035.1094,277.799 1034.4063,277.799 Q1031.9063,277.799 1030.5781,276.1584 Q1029.2656,274.5022 1029.2656,271.3772 Q1029.2656,268.2522 1030.5781,266.5959 Q1031.9063,264.9397 1034.4063,264.9397 Q1035.1094,264.9397 1035.75,265.0959 Q1036.4063,265.2522 1036.9688,265.549 L1036.9688,268.2678 Q1036.3438,267.6897 1035.75,267.424 Q1035.1563,267.1428 1034.5313,267.1428 Q1033.1875,267.1428 1032.5,268.2209 Q1031.8125,269.2834 1031.8125,271.3772 Q1031.8125,273.4709 1032.5,274.549 Q1033.1875,275.6115 1034.5313,275.6115 Q1035.1563,275.6115 1035.75,275.3459 Q1036.3438,275.0647 1036.9688,274.4865 L1036.9688,277.2053 Z " fill="#000000"/><a href="https://bo4e.github.io/BO4E-python/latest/api/bo4e.bo.html#bo4e.bo.marktlokation.Marktlokation" target="_top" title="https://bo4e.github.io/BO4E-python/latest/api/bo4e.bo.html#bo4e.bo.marktlokation.Marktlokation" xlink:actuate="onRequest" xlink:href="https://bo4e.github.io/BO4E-python/latest/api/bo4e.bo.html#bo4e.bo.marktlokation.Marktlokation" xlink:show="new" xlink:title="https://bo4e.github.io/BO4E-python/latest/api/bo4e.bo.html#bo4e.bo.marktlokation.Marktlokation" xlink:type="simple"><text fill="#0000FF" font-family="sans-serif" font-size="14" lengthAdjust="spacing" text-decoration="underline" textLength="92" x="1056" y="270.591">Marktlokation</text></a><text fill="#000000" font-family="sans-serif" font-size="10" lengthAdjust="spacing" textLength="108" x="1048" y="283.175">bo4e.bo.marktlokation</text></g><!--class TechnischeRessource--><g id="elem_TechnischeRessource"><rect codeLine="13" fill="#F1F1F1" height="37.9375" id="TechnischeRessource" rx="2.5" ry="2.5" style="stroke:#181818;stroke-width:0.5;" width="188" x="995" y="325.5959"/><ellipse cx="1010" cy="344.5647" fill="#ADD1B2" rx="11" ry="11" style="stroke:#181818;stroke-width:1.0;"/><path d="M1012.9688,350.2053 Q1012.3906,350.5022 1011.75,350.6428 Q1011.1094,350.799 1010.4063,350.799 Q1007.9063,350.799 1006.5781,349.1584 Q1005.2656,347.5022 1005.2656,344.3772 Q1005.2656,341.2522 1006.5781,339.5959 Q1007.9063,337.9397 1010.4063,337.9397 Q1011.1094,337.9397 1011.75,338.0959 Q1012.4063,338.2522 1012.9688,338.549 L1012.9688,341.2678 Q1012.3438,340.6897 1011.75,340.424 Q1011.1563,340.1428 1010.5313,340.1428 Q1009.1875,340.1428 1008.5,341.2209 Q1007.8125,342.2834 1007.8125,344.3772 Q1007.8125,346.4709 1008.5,347.549 Q1009.1875,348.6115 1010.5313,348.6115 Q1011.1563,348.6115 1011.75,348.3459 Q1012.3438,348.0647 1012.9688,347.4865 L1012.9688,350.2053 Z " fill="#000000"/><a href="https://bo4e.github.io/BO4E-python/latest/api/bo4e.bo.html#bo4e.bo.technischeressource.TechnischeRessource" target="_top" title="https://bo4e.github.io/BO4E-python/latest/api/bo4e.bo.html#bo4e.bo.technischeressource.TechnischeRessource" xlink:actuate="onRequest" xlink:href="https://bo4e.github.io/BO4E-python/latest/api/bo4e.bo.html#bo4e.bo.technischeressource.TechnischeRessource" xlink:show="new" xlink:title="https://bo4e.github.io/BO4E-python/latest/api/bo4e.bo.html#bo4e.bo.technischeressource.TechnischeRessource" xlink:type="simple"><text fill="#0000FF" font-family="sans-serif" font-size="14" lengthAdjust="spacing" text-decoration="underline" textLength="156" x="1024" y="343.591">TechnischeRessource</text></a><text fill="#000000" font-family="sans-serif" font-size="10" lengthAdjust="spacing" textLength="140" x="1032" y="356.175">bo4e.bo.technischeressource</text></g><!--class SteuerbareRessource--><g id="elem_SteuerbareRessource"><rect codeLine="14" fill="#F1F1F1" height="37.9375" id="SteuerbareRessource" rx="2.5" ry="2.5" style="stroke:#181818;stroke-width:0.5;" width="184" x="997" y="398.5959"/><ellipse cx="1012" cy="417.5647" fill="#ADD1B2" rx="11" ry="11" style="stroke:#181818;stroke-width:1.0;"/><path d="M1014.9688,423.2053 Q1014.3906,423.5022 1013.75,423.6428 Q1013.1094,423.799 1012.4063,423.799 Q1009.9063,423.799 1008.5781,422.1584 Q1007.2656,420.5022 1007.2656,417.3772 Q1007.2656,414.2522 1008.5781,412.5959 Q1009.9063,410.9397 1012.4063,410.9397 Q1013.1094,410.9397 1013.75,411.0959 Q1014.4063,411.2522 1014.9688,411.549 L1014.9688,414.2678 Q1014.3438,413.6897 1013.75,413.424 Q1013.1563,413.1428 1012.5313,413.1428 Q1011.1875,413.1428 1010.5,414.2209 Q1009.8125,415.2834 1009.8125,417.3772 Q1009.8125,419.4709 1010.5,420.549 Q1011.1875,421.6115 1012.5313,421.6115 Q1013.1563,421.6115 1013.75,421.3459 Q1014.3438,421.0647 1014.9688,420.4865 L1014.9688,423.2053 Z " fill="#000000"/><a href="https://bo4e.github.io/BO4E-python/latest/api/bo4e.bo.html#bo4e.bo.steuerbareressource.SteuerbareRessource" target="_top" title="https://bo4e.github.io/BO4E-python/latest/api/bo4e.bo.html#bo4e.bo.steuerbareressource.SteuerbareRessource" xlink:actuate="onRequest" xlink:href="https://bo4e.github.io/BO4E-python/latest/api/bo4e.bo.html#bo4e.bo.steuerbareressource.SteuerbareRessource" xlink:show="new" xlink:title="https://bo4e.github.io/BO4E-python/latest/api/bo4e.bo.html#bo4e.bo.steuerbareressource.SteuerbareRessource" xlink:type="simple"><text fill="#0000FF" font-family="sans-serif" font-size="14" lengthAdjust="spacing" text-decoration="underline" textLength="152" x="1026" y="416.591">SteuerbareRessource</text></a><text fill="#000000" font-family="sans-serif" font-size="10" lengthAdjust="spacing" textLength="142" x="1031" y="429.175">bo4e.bo.steuerbareressource</text></g><!--class Geschaeftsobjekt--><g id="elem_Geschaeftsobjekt"><rect codeLine="15" fill="#F1F1F1" height="37.9375" id="Geschaeftsobjekt" rx="2.5" ry="2.5" style="stroke:#181818;stroke-width:0.5;" width="156" x="1011" y="471.5959"/><ellipse cx="1026" cy="490.5647" fill="#ADD1B2" rx="11" ry="11" style="stroke:#181818;stroke-width:1.0;"/><path d="M1028.9688,496.2053 Q1028.3906,496.5022 1027.75,496.6428 Q1027.1094,496.799 1026.4063,496.799 Q1023.9063,496.799 1022.5781,495.1584 Q1021.2656,493.5022 1021.2656,490.3772 Q1021.2656,487.2522 1022.5781,485.5959 Q1023.9063,483.9397 1026.4063,483.9397 Q1027.1094,483.9397 1027.75,484.0959 Q1028.4063,484.2522 1028.9688,484.549 L1028.9688,487.2678 Q1028.3438,486.6897 1027.75,486.424 Q1027.1563,486.1428 1026.5313,486.1428 Q1025.1875,486.1428 1024.5,487.2209 Q1023.8125,488.2834 1023.8125,490.3772 Q1023.8125,492.4709 1024.5,493.549 Q1025.1875,494.6115 1026.5313,494.6115 Q1027.1563,494.6115 1027.75,494.3459 Q1028.3438,494.0647 1028.9688,493.4865 L1028.9688,496.2053 Z " fill="#000000"/><a href="https://bo4e.github.io/BO4E-python/latest/api/bo4e.bo.html#bo4e.bo.geschaeftsobjekt.Geschaeftsobjekt" target="_top" title="https://bo4e.github.io/BO4E-python/latest/api/bo4e.bo.html#bo4e.bo.geschaeftsobjekt.Geschaeftsobjekt" xlink:actuate="onRequest" xlink:href="https://bo4e.github.io/BO4E-python/latest/api/bo4e.bo.html#bo4e.bo.geschaeftsobjekt.Geschaeftsobjekt" xlink:show="new" xlink:title="https://bo4e.github.io/BO4E-python/latest/api/bo4e.bo.html#bo4e.bo.geschaeftsobjekt.Geschaeftsobjekt" xlink:type="simple"><text fill="#0000FF" font-family="sans-serif" font-size="14" lengthAdjust="spacing" text-decoration="underline" textLength="122" x="1041" y="489.591">Geschaeftsobjekt</text></a><text fill="#000000" font-family="sans-serif" font-size="10" lengthAdjust="spacing" textLength="124" x="1040" y="502.175">bo4e.bo.geschaeftsobjekt</text></g><!--class Zeitspanne--><g id="elem_Zeitspanne"><rect codeLine="18" fill="#F1F1F1" height="37.9375" id="Zeitspanne" rx="2.5" ry="2.5" style="stroke:#181818;stroke-width:0.5;" width="135" x="1021.5" y="584.5959"/><ellipse cx="1036.5" cy="603.5647" fill="#ADD1B2" rx="11" ry="11" style="stroke:#181818;stroke-width:1.0;"/><path d="M1039.4688,609.2053 Q1038.8906,609.5022 1038.25,609.6428 Q1037.6094,609.799 1036.9063,609.799 Q1034.4063,609.799 1033.0781,608.1584 Q1031.7656,606.5022 1031.7656,603.3772 Q1031.7656,600.2522 1033.0781,598.5959 Q1034.4063,596.9397 1036.9063,596.9397 Q1037.6094,596.9397 1038.25,597.0959 Q1038.9063,597.2522 1039.4688,597.549 L1039.4688,600.2678 Q1038.8438,599.6897 1038.25,599.424 Q1037.6563,599.1428 1037.0313,599.1428 Q1035.6875,599.1428 1035,600.2209 Q1034.3125,601.2834 1034.3125,603.3772 Q1034.3125,605.4709 1035,606.549 Q1035.6875,607.6115 1037.0313,607.6115 Q1037.6563,607.6115 1038.25,607.3459 Q1038.8438,607.0647 1039.4688,606.4865 L1039.4688,609.2053 Z " fill="#000000"/><a href="https://bo4e.github.io/BO4E-python/latest/api/bo4e.com.html#bo4e.com.zeitspanne.Zeitspanne" target="_top" title="https://bo4e.github.io/BO4E-python/latest/api/bo4e.com.html#bo4e.com.zeitspanne.Zeitspanne" xlink:actuate="onRequest" xlink:href="https://bo4e.github.io/BO4E-python/latest/api/bo4e.com.html#bo4e.com.zeitspanne.Zeitspanne" xlink:show="new" xlink:title="https://bo4e.github.io/BO4E-python/latest/api/bo4e.com.html#bo4e.com.zeitspanne.Zeitspanne" xlink:type="simple"><text fill="#0000FF" font-family="sans-serif" font-size="14" lengthAdjust="spacing" text-decoration="underline" textLength="79" x="1062.5" y="602.591">Zeitspanne</text></a><text fill="#000000" font-family="sans-serif" font-size="10" lengthAdjust="spacing" textLength="103" x="1050.5" y="615.175">bo4e.com.zeitspanne</text></g><!--class Lokationszuordnung--><g id="elem_Lokationszuordnung"><rect codeLine="3" fill="#F1F1F1" height="94.8281" id="Lokationszuordnung" rx="2.5" ry="2.5" style="stroke:#181818;stroke-width:0.5;" width="756" x="7" y="264.1559"/><ellipse cx="309.75" cy="283.1247" fill="#ADD1B2" rx="11" ry="11" style="stroke:#181818;stroke-width:1.0;"/><path d="M312.7188,288.7653 Q312.1406,289.0622 311.5,289.2028 Q310.8594,289.359 310.1563,289.359 Q307.6563,289.359 306.3281,287.7184 Q305.0156,286.0622 305.0156,282.9372 Q305.0156,279.8122 306.3281,278.1559 Q307.6563,276.4997 310.1563,276.4997 Q310.8594,276.4997 311.5,276.6559 Q312.1563,276.8122 312.7188,277.109 L312.7188,279.8278 Q312.0938,279.2497 311.5,278.984 Q310.9063,278.7028 310.2813,278.7028 Q308.9375,278.7028 308.25,279.7809 Q307.5625,280.8434 307.5625,282.9372 Q307.5625,285.0309 308.25,286.109 Q308.9375,287.1715 310.2813,287.1715 Q310.9063,287.1715 311.5,286.9059 Q312.0938,286.6247 312.7188,286.0465 L312.7188,288.7653 Z " fill="#000000"/><a href="https://bo4e.github.io/BO4E-python/latest/api/bo4e.bo.html#bo4e.bo.lokationszuordnung.Lokationszuordnung" target="_top" title="https://bo4e.github.io/BO4E-python/latest/api/bo4e.bo.html#bo4e.bo.lokationszuordnung.Lokationszuordnung" xlink:actuate="onRequest" xlink:href="https://bo4e.github.io/BO4E-python/latest/api/bo4e.bo.html#bo4e.bo.lokationszuordnung.Lokationszuordnung" xlink:show="new" xlink:title="https://bo4e.github.io/BO4E-python/latest/api/bo4e.bo.html#bo4e.bo.lokationszuordnung.Lokationszuordnung" xlink:type="simple"><text fill="#0000FF" font-family="sans-serif" font-size="14" lengthAdjust="spacing" text-decoration="underline" textLength="142" x="330.25" y="282.151">Lokationszuordnung</text></a><text fill="#000000" font-family="sans-serif" font-size="10" lengthAdjust="spacing" textLength="135" x="333.75" y="294.735">bo4e.bo.lokationszuordnung</text><line style="stroke:#181818;stroke-width:0.5;" x1="8" x2="762" y1="302.0934" y2="302.0934"/><text fill="#000000" font-family="sans-serif" font-size="14" lengthAdjust="spacing" textLength="744" x="13" y="319.0885">_typ : Literal[&lt;Typ.LOKATIONSZUORDNUNG: 'LOKATIONSZUORDNUNG'&gt;] [1] = Typ.LOKATIONSZUORDNUNG</text><text fill="#000000" font-family="sans-serif" font-size="14" lengthAdjust="spacing" textLength="233" x="13" y="335.3854">zuordnungstyp : str [0..1] = None</text><text fill="#000000" font-family="sans-serif" font-size="14" lengthAdjust="spacing" textLength="282" x="13" y="351.6823">lokationsbuendelcode : str [0..1] = None</text></g><!--link Lokationszuordnung to Geschaeftsobjekt--><g id="link_Lokationszuordnung_Geschaeftsobjekt"><path codeLine="21" d="M503.42,359.4459 C583.72,390.3959 693.27,429.1259 793,452.5659 C865.76,469.6659 932.6323,477.9641 992.5823,483.3541 " fill="none" id="Lokationszuordnung-to-Geschaeftsobjekt" style="stroke:#181818;stroke-width:1.0;"/><polygon fill="none" points="1010.51,484.9659,993.1196,477.3782,992.045,489.33,1010.51,484.9659" style="stroke:#181818;stroke-width:1.0;"/></g><!--link Lokationszuordnung to Marktlokation--><g id="link_Lokationszuordnung_Marktlokation"><path codeLine="22" d="M763.37,266.4659 C773.35,265.7659 783.24,265.1259 793,264.5659 C857.78,260.8359 874.13,263.0459 939,264.5659 C965.02,265.1759 981.5849,265.7888 1006.6749,267.0388 " fill="none" id="Lokationszuordnung-to-Marktlokation" style="stroke:#181818;stroke-width:1.0;"/><polygon fill="#181818" points="1018.66,267.6359,1012.8665,263.3423,1006.6749,267.0388,1012.4684,271.3324,1018.66,267.6359" style="stroke:#181818;stroke-width:1.0;"/><text fill="#000000" font-family="sans-serif" font-size="13" lengthAdjust="spacing" textLength="104" x="814" y="258.6328">marktlokationen</text><text fill="#000000" font-family="sans-serif" font-size="13" lengthAdjust="spacing" textLength="23" x="988.1154" y="280.0382">0..*</text></g><!--reverse link Lokationszuordnung to Marktlokation--><g id="link_Lokationszuordnung_Marktlokation"><path codeLine="30" d="M775.2757,300.0295 C834.1357,297.1495 882.25,294.1159 939,289.5659 C965.1,287.4759 993.67,284.2459 1018.75,281.1059 " fill="none" id="Lokationszuordnung-backto-Marktlokation" style="stroke:#181818;stroke-width:1.0;"/><polygon fill="#181818" points="763.29,300.6159,769.4783,304.3179,775.2757,300.0295,769.0873,296.3275,763.29,300.6159" style="stroke:#181818;stroke-width:1.0;"/><text fill="#000000" font-family="sans-serif" font-size="13" lengthAdjust="spacing" textLength="141" x="795.5" y="285.6328">lokationszuordnungen</text><text fill="#000000" font-family="sans-serif" font-size="13" lengthAdjust="spacing" textLength="23" x="771.2076" y="312.614">0..*</text></g><!--link Lokationszuordnung to Messlokation--><g id="link_Lokationszuordnung_Messlokation"><path codeLine="23" d="M477.56,263.7559 C558.14,224.5459 679.92,172.1159 793,150.5659 C856.74,138.4159 881.18,121.1159 939,150.5659 C944.39,153.3059 942.01,158.1559 947,161.5659 C968.52,176.2659 983.8227,182.5923 1008.4427,187.9323 " fill="none" id="Lokationszuordnung-to-Messlokation" style="stroke:#181818;stroke-width:1.0;"/><polygon fill="#181818" points="1020.17,190.4759,1015.1542,185.295,1008.4427,187.9323,1013.4585,193.1132,1020.17,190.4759" style="stroke:#181818;stroke-width:1.0;"/><text fill="#000000" font-family="sans-serif" font-size="13" lengthAdjust="spacing" textLength="101" x="815.5" y="130.6328">messlokationen</text><text fill="#000000" font-family="sans-serif" font-size="13" lengthAdjust="spacing" textLength="23" x="989.5135" y="202.493">0..*</text></g><!--reverse link Lokationszuordnung to Messlokation--><g id="link_Lokationszuordnung_Messlokation"><path codeLine="29" d="M650.4228,261.5647 C701.4528,252.4447 742.98,245.4159 793,237.5659 C870.7,225.3759 960.32,213.8859 1020.2,206.5859 " fill="none" id="Lokationszuordnung-backto-Messlokation" style="stroke:#181818;stroke-width:1.0;"/><polygon fill="#181818" points="638.61,263.6759,645.2201,266.5579,650.4228,261.5647,643.8127,258.6827,638.61,263.6759" style="stroke:#181818;stroke-width:1.0;"/><text fill="#000000" font-family="sans-serif" font-size="13" lengthAdjust="spacing" textLength="141" x="795.5" y="213.6328">lokationszuordnungen</text><text fill="#000000" font-family="sans-serif" font-size="13" lengthAdjust="spacing" textLength="23" x="649.6567" y="252.9624">0..*</text></g><!--link Lokationszuordnung to Netzlokation--><g id="link_Lokationszuordnung_Netzlokation"><path codeLine="24" d="M435,263.7459 C506.61,197.5759 647.25,81.1959 793,36.5659 C855.05,17.5659 876.45,19.3059 939,36.5659 C988.09,50.1059 1027.868,77.1373 1055.648,98.9873 " fill="none" id="Lokationszuordnung-to-Netzlokation" style="stroke:#181818;stroke-width:1.0;"/><polygon fill="#181818" points="1065.08,106.4059,1062.8369,99.5526,1055.648,98.9873,1057.8911,105.8406,1065.08,106.4059" style="stroke:#181818;stroke-width:1.0;"/><text fill="#000000" font-family="sans-serif" font-size="13" lengthAdjust="spacing" textLength="94" x="819" y="19.6328">netzlokationen</text><text fill="#000000" font-family="sans-serif" font-size="13" lengthAdjust="spacing" textLength="23" x="1031.6754" y="95.6613">0..*</text></g><!--reverse link Lokationszuordnung to Netzlokation--><g id="link_Lokationszuordnung_Netzlokation"><path codeLine="28" d="M466.8752,257.2853 C545.1652,207.4853 666.86,139.1459 793,109.5659 C870.4,91.4159 962.22,101.1059 1022.62,111.5859 " fill="none" id="Lokationszuordnung-backto-Netzlokation" style="stroke:#181818;stroke-width:1.0;"/><polygon fill="#181818" points="456.75,263.7259,463.9594,263.8807,466.8752,257.2853,459.6657,257.1306,456.75,263.7259" style="stroke:#181818;stroke-width:1.0;"/><text fill="#000000" font-family="sans-serif" font-size="13" lengthAdjust="spacing" textLength="141" x="795.5" y="95.6328">lokationszuordnungen</text><text fill="#000000" font-family="sans-serif" font-size="13" lengthAdjust="spacing" textLength="23" x="442.2227" y="253.0194">0..*</text></g><!--link Lokationszuordnung to TechnischeRessource--><g id="link_Lokationszuordnung_TechnischeRessource"><path codeLine="25" d="M763.45,341.2259 C773.4,341.7159 783.26,342.1659 793,342.5659 C860.42,345.3559 924.5801,345.8514 982.6301,345.6314 " fill="none" id="Lokationszuordnung-to-TechnischeRessource" style="stroke:#181818;stroke-width:1.0;"/><polygon fill="#181818" points="994.63,345.5859,988.6149,341.6087,982.6301,345.6314,988.6452,349.6086,994.63,345.5859" style="stroke:#181818;stroke-width:1.0;"/><text fill="#000000" font-family="sans-serif" font-size="13" lengthAdjust="spacing" textLength="143" x="794.5" y="338.6328">technischeRessourcen</text><text fill="#000000" font-family="sans-serif" font-size="13" lengthAdjust="spacing" textLength="23" x="963.8552" y="358.2835">0..*</text></g><!--reverse link Lokationszuordnung to TechnischeRessource--><g id="link_Lokationszuordnung_TechnischeRessource"><path codeLine="31" d="M653.391,361.0044 C746.911,373.0944 841.73,378.9859 939,370.5659 C957.05,369.0059 976.2,366.3959 994.53,363.4159 " fill="none" id="Lokationszuordnung-backto-TechnischeRessource" style="stroke:#181818;stroke-width:1.0;"/><polygon fill="#181818" points="641.49,359.4659,646.9276,364.2022,653.391,361.0044,647.9533,356.2682,641.49,359.4659" style="stroke:#181818;stroke-width:1.0;"/><text fill="#000000" font-family="sans-serif" font-size="13" lengthAdjust="spacing" textLength="141" x="795.5" y="366.6328">lokationszuordnungen</text><text fill="#000000" font-family="sans-serif" font-size="13" lengthAdjust="spacing" textLength="23" x="651.4105" y="378.9856">0..*</text></g><!--link Lokationszuordnung to SteuerbareRessource--><g id="link_Lokationszuordnung_SteuerbareRessource"><path codeLine="26" d="M578.5,359.4659 C645.95,374.5759 722.46,389.8459 793,399.5659 C860.86,408.9159 926.1782,412.9627 984.6182,415.1227 " fill="none" id="Lokationszuordnung-to-SteuerbareRessource" style="stroke:#181818;stroke-width:1.0;"/><polygon fill="#181818" points="996.61,415.5659,990.7618,411.347,984.6182,415.1227,990.4664,419.3416,996.61,415.5659" style="stroke:#181818;stroke-width:1.0;"/><text fill="#000000" font-family="sans-serif" font-size="13" lengthAdjust="spacing" textLength="144" x="794" y="395.6328">steuerbareRessourcen</text><text fill="#000000" font-family="sans-serif" font-size="13" lengthAdjust="spacing" textLength="23" x="965.9806" y="428.0417">0..*</text></g><!--reverse link Lokationszuordnung to SteuerbareRessource--><g id="link_Lokationszuordnung_SteuerbareRessource"><path codeLine="32" d="M516.9955,363.5799 C596.8955,392.8999 693.85,423.4559 793,438.5659 C857.15,448.3459 874.27,443.1059 939,438.5659 C957.76,437.2459 977.76,435.0159 996.81,432.4759 " fill="none" id="Lokationszuordnung-backto-SteuerbareRessource" style="stroke:#181818;stroke-width:1.0;"/><polygon fill="#181818" points="505.73,359.4459,509.9847,365.268,516.9955,363.5799,512.7407,357.7577,505.73,359.4459" style="stroke:#181818;stroke-width:1.0;"/><text fill="#000000" font-family="sans-serif" font-size="13" lengthAdjust="spacing" textLength="141" x="795.5" y="434.6328">lokationszuordnungen</text><text fill="#000000" font-family="sans-serif" font-size="13" lengthAdjust="spacing" textLength="23" x="497.4078" y="378.9629">0..*</text></g><!--link Lokationszuordnung to Zeitspanne--><g id="link_Lokationszuordnung_Zeitspanne"><path codeLine="27" d="M480.1,359.3059 C561.77,399.8659 683.74,458.3759 793,502.5659 C871.66,534.3759 953.1576,561.4906 1013.3876,580.5206 " fill="none" id="Lokationszuordnung-to-Zeitspanne" style="stroke:#181818;stroke-width:1.0;"/><polygon fill="#181818" points="1024.83,584.1359,1020.3139,578.5141,1013.3876,580.5206,1017.9037,586.1424,1024.83,584.1359" style="stroke:#181818;stroke-width:1.0;"/><text fill="#000000" font-family="sans-serif" font-size="13" lengthAdjust="spacing" textLength="66" x="833" y="498.6328">gueltigkeit</text><text fill="#000000" font-family="sans-serif" font-size="13" lengthAdjust="spacing" textLength="24" x="989.6425" y="577.2574">0..1</text></g><!--SRC=[hLRHRjf047p6Nx62XqX8692YDB9I9D94KLKAKa9UGgtADXlxYhb3lhCgIFllFGoOmrxKHFQRPtGpDxjtNZl6LmLAGCB2IC6S9HWe9hXb1R4d9JHdiqYfbNIwNLzSeXqo5QM-pKJtTd9vtrcjLIHuD_OKIjNrLcotoXTsf9Pnwm1YiV2shdAJYcJEKnxQen85PSfrV_0RoJRez7k3ysPDy2IXXZUhyLEjL-30Y2bCl7XsCrslxD7ast3wTJ9-UdcUFDwDdySF3boKoOk12xE-2v-15bcDV2UvsqMg16Ozsyv4Oy7HQkHX_HJv7ED0p95S-TUokBT4kV82hDPrs0FNpVgoHz2wlRhxDBpUDgNEe-MeDeSYxR41m0JaGPhIBAgfg3UbRgpCKtut09Y0J6bAivIcekQKNh9GnvWcWXD41pLNx9AQJBrH5GOHPpA8CD7j46aIe3tDkSS31mH7XYVyiX88VRs5I8Kf9hwN68KyvTon488Z2o7yia88VRs5XAYxvEbfBeN_2nVAVYWGK2J8_4MRB7nHgQTLrM4LYAKnhJGonvM6qBhl3Q-llbITLuTzMZdQ85CwEUTel-IFS7mij-LKbSKyBjzERkfhrkdy6Ho6R-aiI8MMjA6flmhjPYuy7G8EdBpaoD_lOyuyRMF03xYSp7S7p07-0HTgJZYWokpxBQatTlkLBR7_iUmtymjeNWu7mXHZnSA5vaY7VPvsfmFdkbN-RpcJXl8gd5yrhyATgcH67sObI_emIKihOlf_QebB7nDfoKZy1cgNLuRnNFu3]--></g></svg>