<svg xmlns="http://www.w3.org/2000/svg" xmlns:xlink="http://www.w3.org/1999/xlink" contentStyleType="text/css" data-diagram-type="CLASS" height="647px" preserveAspectRatio="none" style="width:1285px;height:647px;background:#FFFFFF;" version="1.1" viewBox="0 0 1285 647" width="1285px" zoomAndPan="magnify"><defs/><g><!--cluster bo4e--><g class="cluster" data-entity="bo4e" data-source-line="10" data-uid="ent0005" id="cluster_bo4e"><path d="M1017.77,6 L1057.646,6 A3.75,3.75 0 0 1 1060.146,8.5 L1067.146,28.2969 L1276.18,28.2969 A2.5,2.5 0 0 1 1278.68,30.7969 L1278.68,637.5 A2.5,2.5 0 0 1 1276.18,640 L1017.77,640 A2.5,2.5 0 0 1 1015.27,637.5 L1015.27,8.5 A2.5,2.5 0 0 1 1017.77,6" fill="none" style="stroke:#000000;stroke-width:1.5;"/><line style="stroke:#000000;stroke-width:1.5;" x1="1015.27" x2="1067.146" y1="28.2969" y2="28.2969"/><text fill="#000000" font-family="sans-serif" font-size="14" font-weight="bold" lengthAdjust="spacing" textLength="38.876" x="1019.27" y="20.9951">bo4e</text></g><!--cluster bo--><g class="cluster" data-entity="bo" data-source-line="9" data-uid="ent0003" id="cluster_bo"><path d="M1041.77,49 L1106.604,49 A3.75,3.75 0 0 1 1109.104,51.5 L1116.104,71.2969 L1252.18,71.2969 A2.5,2.5 0 0 1 1254.68,73.7969 L1254.68,500.5 A2.5,2.5 0 0 1 1252.18,503 L1041.77,503 A2.5,2.5 0 0 1 1039.27,500.5 L1039.27,51.5 A2.5,2.5 0 0 1 1041.77,49" fill="#B6D7A8" style="stroke:#000000;stroke-width:1.5;"/><line style="stroke:#000000;stroke-width:1.5;" x1="1039.27" x2="1116.104" y1="71.2969" y2="71.2969"/><a href="file:////home/runner/work/BO4E-python/BO4E-python/docs/../.tox/docs/tmp/html/api/bo4e.bo.html" target="_top" title="file:////home/runner/work/BO4E-python/BO4E-python/docs/../.tox/docs/tmp/html/api/bo4e.bo.html" xlink:actuate="onRequest" xlink:href="file:////home/runner/work/BO4E-python/BO4E-python/docs/../.tox/docs/tmp/html/api/bo4e.bo.html" xlink:show="new" xlink:title="file:////home/runner/work/BO4E-python/BO4E-python/docs/../.tox/docs/tmp/html/api/bo4e.bo.html" xlink:type="simple"><text fill="#0000FF" font-family="sans-serif" font-size="14" font-weight="bold" lengthAdjust="spacing" text-decoration="underline" textLength="63.834" x="1043.27" y="63.9951">bo4e.bo</text></a></g><!--cluster com--><g class="cluster" data-entity="com" data-source-line="17" data-uid="ent0011" id="cluster_com"><path d="M1068.92,527 L1146.6192,527 A3.75,3.75 0 0 1 1149.1192,529.5 L1156.1192,549.2969 L1225.03,549.2969 A2.5,2.5 0 0 1 1227.53,551.7969 L1227.53,613.5 A2.5,2.5 0 0 1 1225.03,616 L1068.92,616 A2.5,2.5 0 0 1 1066.42,613.5 L1066.42,529.5 A2.5,2.5 0 0 1 1068.92,527" fill="#E0A86C" style="stroke:#000000;stroke-width:1.5;"/><line style="stroke:#000000;stroke-width:1.5;" x1="1066.42" x2="1156.1192" y1="549.2969" y2="549.2969"/><a href="file:////home/runner/work/BO4E-python/BO4E-python/docs/../.tox/docs/tmp/html/api/bo4e.com.html" target="_top" title="file:////home/runner/work/BO4E-python/BO4E-python/docs/../.tox/docs/tmp/html/api/bo4e.com.html" xlink:actuate="onRequest" xlink:href="file:////home/runner/work/BO4E-python/BO4E-python/docs/../.tox/docs/tmp/html/api/bo4e.com.html" xlink:show="new" xlink:title="file:////home/runner/work/BO4E-python/BO4E-python/docs/../.tox/docs/tmp/html/api/bo4e.com.html" xlink:type="simple"><text fill="#0000FF" font-family="sans-serif" font-size="14" font-weight="bold" lengthAdjust="spacing" text-decoration="underline" textLength="76.6992" x="1070.42" y="541.9951">bo4e.com</text></a></g><!--class SteuerbareRessource--><g class="entity" data-entity="SteuerbareRessource" data-source-line="10" data-uid="ent0004" id="entity_SteuerbareRessource"><rect fill="#F1F1F1" height="37.9375" rx="2.5" ry="2.5" style="stroke:#181818;stroke-width:0.5;" width="182.5" x="1055.73" y="84.03"/><ellipse cx="1070.73" cy="102.9987" fill="#ADD1B2" rx="11" ry="11" style="stroke:#181818;stroke-width:1;"/><path d="M1073.6988,108.6394 Q1073.1206,108.9362 1072.48,109.0769 Q1071.8394,109.2331 1071.1363,109.2331 Q1068.6363,109.2331 1067.3081,107.5925 Q1065.9956,105.9362 1065.9956,102.8112 Q1065.9956,99.6862 1067.3081,98.03 Q1068.6363,96.3737 1071.1363,96.3737 Q1071.8394,96.3737 1072.48,96.53 Q1073.1363,96.6862 1073.6988,96.9831 L1073.6988,99.7019 Q1073.0738,99.1237 1072.48,98.8581 Q1071.8863,98.5769 1071.2613,98.5769 Q1069.9175,98.5769 1069.23,99.655 Q1068.5425,100.7175 1068.5425,102.8112 Q1068.5425,104.905 1069.23,105.9831 Q1069.9175,107.0456 1071.2613,107.0456 Q1071.8863,107.0456 1072.48,106.78 Q1073.0738,106.4987 1073.6988,105.9206 L1073.6988,108.6394 Z " fill="#000000"/><a href="file:////home/runner/work/BO4E-python/BO4E-python/docs/../.tox/docs/tmp/html/api/bo4e.bo.html#bo4e.bo.steuerbareressource.SteuerbareRessource" target="_top" title="file:////home/runner/work/BO4E-python/BO4E-python/docs/../.tox/docs/tmp/html/api/bo4e.bo.html#bo4e.bo.steuerbareressource.SteuerbareRessource" xlink:actuate="onRequest" xlink:href="file:////home/runner/work/BO4E-python/BO4E-python/docs/../.tox/docs/tmp/html/api/bo4e.bo.html#bo4e.bo.steuerbareressource.SteuerbareRessource" xlink:show="new" xlink:title="file:////home/runner/work/BO4E-python/BO4E-python/docs/../.tox/docs/tmp/html/api/bo4e.bo.html#bo4e.bo.steuerbareressource.SteuerbareRessource" xlink:type="simple"><text fill="#0000FF" font-family="sans-serif" font-size="14" lengthAdjust="spacing" text-decoration="underline" textLength="150.5" x="1084.73" y="102.0251">SteuerbareRessource</text></a><text fill="#000000" font-family="sans-serif" font-size="10" lengthAdjust="spacing" textLength="147.3291" x="1086.3154" y="114.6091">bo4e.bo.steuerbareressource</text></g><!--class Geschaeftsobjekt--><g class="entity" data-entity="Geschaeftsobjekt" data-source-line="11" data-uid="ent0006" id="entity_Geschaeftsobjekt"><rect fill="#F1F1F1" height="37.9375" rx="2.5" ry="2.5" style="stroke:#181818;stroke-width:0.5;" width="161.3896" x="1066.28" y="157.03"/><ellipse cx="1081.28" cy="175.9987" fill="#ADD1B2" rx="11" ry="11" style="stroke:#181818;stroke-width:1;"/><path d="M1084.2488,181.6394 Q1083.6706,181.9362 1083.03,182.0769 Q1082.3894,182.2331 1081.6863,182.2331 Q1079.1863,182.2331 1077.8581,180.5925 Q1076.5456,178.9362 1076.5456,175.8112 Q1076.5456,172.6862 1077.8581,171.03 Q1079.1863,169.3737 1081.6863,169.3737 Q1082.3894,169.3737 1083.03,169.53 Q1083.6863,169.6862 1084.2488,169.9831 L1084.2488,172.7019 Q1083.6238,172.1237 1083.03,171.8581 Q1082.4363,171.5769 1081.8113,171.5769 Q1080.4675,171.5769 1079.78,172.655 Q1079.0925,173.7175 1079.0925,175.8112 Q1079.0925,177.905 1079.78,178.9831 Q1080.4675,180.0456 1081.8113,180.0456 Q1082.4363,180.0456 1083.03,179.78 Q1083.6238,179.4987 1084.2488,178.9206 L1084.2488,181.6394 Z " fill="#000000"/><a href="file:////home/runner/work/BO4E-python/BO4E-python/docs/../.tox/docs/tmp/html/api/bo4e.bo.html#bo4e.bo.geschaeftsobjekt.Geschaeftsobjekt" target="_top" title="file:////home/runner/work/BO4E-python/BO4E-python/docs/../.tox/docs/tmp/html/api/bo4e.bo.html#bo4e.bo.geschaeftsobjekt.Geschaeftsobjekt" xlink:actuate="onRequest" xlink:href="file:////home/runner/work/BO4E-python/BO4E-python/docs/../.tox/docs/tmp/html/api/bo4e.bo.html#bo4e.bo.geschaeftsobjekt.Geschaeftsobjekt" xlink:show="new" xlink:title="file:////home/runner/work/BO4E-python/BO4E-python/docs/../.tox/docs/tmp/html/api/bo4e.bo.html#bo4e.bo.geschaeftsobjekt.Geschaeftsobjekt" xlink:type="simple"><text fill="#0000FF" font-family="sans-serif" font-size="14" lengthAdjust="spacing" text-decoration="underline" textLength="121.7822" x="1099.0837" y="175.0251">Geschaeftsobjekt</text></a><text fill="#000000" font-family="sans-serif" font-size="10" lengthAdjust="spacing" textLength="129.3896" x="1095.28" y="187.6091">bo4e.bo.geschaeftsobjekt</text></g><!--class Netzlokation--><g class="entity" data-entity="Netzlokation" data-source-line="12" data-uid="ent0007" id="entity_Netzlokation"><rect fill="#F1F1F1" height="37.9375" rx="2.5" ry="2.5" style="stroke:#181818;stroke-width:0.5;" width="137.4346" x="1078.26" y="230.03"/><ellipse cx="1093.26" cy="248.9987" fill="#ADD1B2" rx="11" ry="11" style="stroke:#181818;stroke-width:1;"/><path d="M1096.2288,254.6394 Q1095.6506,254.9362 1095.01,255.0769 Q1094.3694,255.2331 1093.6663,255.2331 Q1091.1663,255.2331 1089.8381,253.5925 Q1088.5256,251.9362 1088.5256,248.8112 Q1088.5256,245.6862 1089.8381,244.03 Q1091.1663,242.3737 1093.6663,242.3737 Q1094.3694,242.3737 1095.01,242.53 Q1095.6663,242.6862 1096.2288,242.9831 L1096.2288,245.7019 Q1095.6038,245.1237 1095.01,244.8581 Q1094.4163,244.5769 1093.7913,244.5769 Q1092.4475,244.5769 1091.76,245.655 Q1091.0725,246.7175 1091.0725,248.8112 Q1091.0725,250.905 1091.76,251.9831 Q1092.4475,253.0456 1093.7913,253.0456 Q1094.4163,253.0456 1095.01,252.78 Q1095.6038,252.4987 1096.2288,251.9206 L1096.2288,254.6394 Z " fill="#000000"/><a href="file:////home/runner/work/BO4E-python/BO4E-python/docs/../.tox/docs/tmp/html/api/bo4e.bo.html#bo4e.bo.netzlokation.Netzlokation" target="_top" title="file:////home/runner/work/BO4E-python/BO4E-python/docs/../.tox/docs/tmp/html/api/bo4e.bo.html#bo4e.bo.netzlokation.Netzlokation" xlink:actuate="onRequest" xlink:href="file:////home/runner/work/BO4E-python/BO4E-python/docs/../.tox/docs/tmp/html/api/bo4e.bo.html#bo4e.bo.netzlokation.Netzlokation" xlink:show="new" xlink:title="file:////home/runner/work/BO4E-python/BO4E-python/docs/../.tox/docs/tmp/html/api/bo4e.bo.html#bo4e.bo.netzlokation.Netzlokation" xlink:type="simple"><text fill="#0000FF" font-family="sans-serif" font-size="14" lengthAdjust="spacing" text-decoration="underline" textLength="87.8828" x="1116.0359" y="248.0251">Netzlokation</text></a><text fill="#000000" font-family="sans-serif" font-size="10" lengthAdjust="spacing" textLength="105.4346" x="1107.26" y="260.6091">bo4e.bo.netzlokation</text></g><!--class Marktlokation--><g class="entity" data-entity="Marktlokation" data-source-line="13" data-uid="ent0008" id="entity_Marktlokation"><rect fill="#F1F1F1" height="37.9375" rx="2.5" ry="2.5" style="stroke:#181818;stroke-width:0.5;" width="145.4668" x="1074.24" y="303.03"/><ellipse cx="1089.24" cy="321.9988" fill="#ADD1B2" rx="11" ry="11" style="stroke:#181818;stroke-width:1;"/><path d="M1092.2088,327.6394 Q1091.6306,327.9363 1090.99,328.0769 Q1090.3494,328.2331 1089.6463,328.2331 Q1087.1463,328.2331 1085.8181,326.5925 Q1084.5056,324.9363 1084.5056,321.8113 Q1084.5056,318.6863 1085.8181,317.03 Q1087.1463,315.3738 1089.6463,315.3738 Q1090.3494,315.3738 1090.99,315.53 Q1091.6463,315.6863 1092.2088,315.9831 L1092.2088,318.7019 Q1091.5838,318.1238 1090.99,317.8581 Q1090.3963,317.5769 1089.7713,317.5769 Q1088.4275,317.5769 1087.74,318.655 Q1087.0525,319.7175 1087.0525,321.8113 Q1087.0525,323.905 1087.74,324.9831 Q1088.4275,326.0456 1089.7713,326.0456 Q1090.3963,326.0456 1090.99,325.78 Q1091.5838,325.4988 1092.2088,324.9206 L1092.2088,327.6394 Z " fill="#000000"/><a href="file:////home/runner/work/BO4E-python/BO4E-python/docs/../.tox/docs/tmp/html/api/bo4e.bo.html#bo4e.bo.marktlokation.Marktlokation" target="_top" title="file:////home/runner/work/BO4E-python/BO4E-python/docs/../.tox/docs/tmp/html/api/bo4e.bo.html#bo4e.bo.marktlokation.Marktlokation" xlink:actuate="onRequest" xlink:href="file:////home/runner/work/BO4E-python/BO4E-python/docs/../.tox/docs/tmp/html/api/bo4e.bo.html#bo4e.bo.marktlokation.Marktlokation" xlink:show="new" xlink:title="file:////home/runner/work/BO4E-python/BO4E-python/docs/../.tox/docs/tmp/html/api/bo4e.bo.html#bo4e.bo.marktlokation.Marktlokation" xlink:type="simple"><text fill="#0000FF" font-family="sans-serif" font-size="14" lengthAdjust="spacing" text-decoration="underline" textLength="95.9697" x="1111.9885" y="321.0251">Marktlokation</text></a><text fill="#000000" font-family="sans-serif" font-size="10" lengthAdjust="spacing" textLength="113.4668" x="1103.24" y="333.6091">bo4e.bo.marktlokation</text></g><!--class Messlokation--><g class="entity" data-entity="Messlokation" data-source-line="14" data-uid="ent0009" id="entity_Messlokation"><rect fill="#F1F1F1" height="37.9375" rx="2.5" ry="2.5" style="stroke:#181818;stroke-width:0.5;" width="142.0879" x="1075.93" y="376.03"/><ellipse cx="1090.93" cy="394.9988" fill="#ADD1B2" rx="11" ry="11" style="stroke:#181818;stroke-width:1;"/><path d="M1093.8988,400.6394 Q1093.3206,400.9363 1092.68,401.0769 Q1092.0394,401.2331 1091.3363,401.2331 Q1088.8363,401.2331 1087.5081,399.5925 Q1086.1956,397.9363 1086.1956,394.8113 Q1086.1956,391.6863 1087.5081,390.03 Q1088.8363,388.3738 1091.3363,388.3738 Q1092.0394,388.3738 1092.68,388.53 Q1093.3363,388.6863 1093.8988,388.9831 L1093.8988,391.7019 Q1093.2738,391.1238 1092.68,390.8581 Q1092.0863,390.5769 1091.4613,390.5769 Q1090.1175,390.5769 1089.43,391.655 Q1088.7425,392.7175 1088.7425,394.8113 Q1088.7425,396.905 1089.43,397.9831 Q1090.1175,399.0456 1091.4613,399.0456 Q1092.0863,399.0456 1092.68,398.78 Q1093.2738,398.4988 1093.8988,397.9206 L1093.8988,400.6394 Z " fill="#000000"/><a href="file:////home/runner/work/BO4E-python/BO4E-python/docs/../.tox/docs/tmp/html/api/bo4e.bo.html#bo4e.bo.messlokation.Messlokation" target="_top" title="file:////home/runner/work/BO4E-python/BO4E-python/docs/../.tox/docs/tmp/html/api/bo4e.bo.html#bo4e.bo.messlokation.Messlokation" xlink:actuate="onRequest" xlink:href="file:////home/runner/work/BO4E-python/BO4E-python/docs/../.tox/docs/tmp/html/api/bo4e.bo.html#bo4e.bo.messlokation.Messlokation" xlink:show="new" xlink:title="file:////home/runner/work/BO4E-python/BO4E-python/docs/../.tox/docs/tmp/html/api/bo4e.bo.html#bo4e.bo.messlokation.Messlokation" xlink:type="simple"><text fill="#0000FF" font-family="sans-serif" font-size="14" lengthAdjust="spacing" text-decoration="underline" textLength="91.2393" x="1114.3543" y="394.0251">Messlokation</text></a><text fill="#000000" font-family="sans-serif" font-size="10" lengthAdjust="spacing" textLength="110.0879" x="1104.93" y="406.6091">bo4e.bo.messlokation</text></g><!--class TechnischeRessource--><g class="entity" data-entity="TechnischeRessource" data-source-line="15" data-uid="ent0010" id="entity_TechnischeRessource"><rect fill="#F1F1F1" height="37.9375" rx="2.5" ry="2.5" style="stroke:#181818;stroke-width:0.5;" width="183.4092" x="1055.27" y="449.03"/><ellipse cx="1070.27" cy="467.9988" fill="#ADD1B2" rx="11" ry="11" style="stroke:#181818;stroke-width:1;"/><path d="M1073.2388,473.6394 Q1072.6606,473.9363 1072.02,474.0769 Q1071.3794,474.2331 1070.6763,474.2331 Q1068.1763,474.2331 1066.8481,472.5925 Q1065.5356,470.9363 1065.5356,467.8113 Q1065.5356,464.6863 1066.8481,463.03 Q1068.1763,461.3738 1070.6763,461.3738 Q1071.3794,461.3738 1072.02,461.53 Q1072.6763,461.6863 1073.2388,461.9831 L1073.2388,464.7019 Q1072.6138,464.1238 1072.02,463.8581 Q1071.4263,463.5769 1070.8013,463.5769 Q1069.4575,463.5769 1068.77,464.655 Q1068.0825,465.7175 1068.0825,467.8113 Q1068.0825,469.905 1068.77,470.9831 Q1069.4575,472.0456 1070.8013,472.0456 Q1071.4263,472.0456 1072.02,471.78 Q1072.6138,471.4988 1073.2388,470.9206 L1073.2388,473.6394 Z " fill="#000000"/><a href="file:////home/runner/work/BO4E-python/BO4E-python/docs/../.tox/docs/tmp/html/api/bo4e.bo.html#bo4e.bo.technischeressource.TechnischeRessource" target="_top" title="file:////home/runner/work/BO4E-python/BO4E-python/docs/../.tox/docs/tmp/html/api/bo4e.bo.html#bo4e.bo.technischeressource.TechnischeRessource" xlink:actuate="onRequest" xlink:href="file:////home/runner/work/BO4E-python/BO4E-python/docs/../.tox/docs/tmp/html/api/bo4e.bo.html#bo4e.bo.technischeressource.TechnischeRessource" xlink:show="new" xlink:title="file:////home/runner/work/BO4E-python/BO4E-python/docs/../.tox/docs/tmp/html/api/bo4e.bo.html#bo4e.bo.technischeressource.TechnischeRessource" xlink:type="simple"><text fill="#0000FF" font-family="sans-serif" font-size="14" lengthAdjust="spacing" text-decoration="underline" textLength="151.4092" x="1084.27" y="467.0251">TechnischeRessource</text></a><text fill="#000000" font-family="sans-serif" font-size="10" lengthAdjust="spacing" textLength="146.9287" x="1086.5102" y="479.6091">bo4e.bo.technischeressource</text></g><!--class Zeitraum--><g class="entity" data-entity="Zeitraum" data-source-line="18" data-uid="ent0012" id="entity_Zeitraum"><rect fill="#F1F1F1" height="37.9375" rx="2.5" ry="2.5" style="stroke:#181818;stroke-width:0.5;" width="129.1143" x="1082.42" y="562.03"/><ellipse cx="1097.42" cy="580.9988" fill="#ADD1B2" rx="11" ry="11" style="stroke:#181818;stroke-width:1;"/><path d="M1100.3888,586.6394 Q1099.8106,586.9363 1099.17,587.0769 Q1098.5294,587.2331 1097.8263,587.2331 Q1095.3263,587.2331 1093.9981,585.5925 Q1092.6856,583.9363 1092.6856,580.8113 Q1092.6856,577.6863 1093.9981,576.03 Q1095.3263,574.3738 1097.8263,574.3738 Q1098.5294,574.3738 1099.17,574.53 Q1099.8263,574.6863 1100.3888,574.9831 L1100.3888,577.7019 Q1099.7638,577.1238 1099.17,576.8581 Q1098.5763,576.5769 1097.9513,576.5769 Q1096.6075,576.5769 1095.92,577.655 Q1095.2325,578.7175 1095.2325,580.8113 Q1095.2325,582.905 1095.92,583.9831 Q1096.6075,585.0456 1097.9513,585.0456 Q1098.5763,585.0456 1099.17,584.78 Q1099.7638,584.4988 1100.3888,583.9206 L1100.3888,586.6394 Z " fill="#000000"/><a href="file:////home/runner/work/BO4E-python/BO4E-python/docs/../.tox/docs/tmp/html/api/bo4e.com.html#bo4e.com.zeitraum.Zeitraum" target="_top" title="file:////home/runner/work/BO4E-python/BO4E-python/docs/../.tox/docs/tmp/html/api/bo4e.com.html#bo4e.com.zeitraum.Zeitraum" xlink:actuate="onRequest" xlink:href="file:////home/runner/work/BO4E-python/BO4E-python/docs/../.tox/docs/tmp/html/api/bo4e.com.html#bo4e.com.zeitraum.Zeitraum" xlink:show="new" xlink:title="file:////home/runner/work/BO4E-python/BO4E-python/docs/../.tox/docs/tmp/html/api/bo4e.com.html#bo4e.com.zeitraum.Zeitraum" xlink:type="simple"><text fill="#0000FF" font-family="sans-serif" font-size="14" lengthAdjust="spacing" text-decoration="underline" textLength="64.4287" x="1127.7628" y="580.0251">Zeitraum</text></a><text fill="#000000" font-family="sans-serif" font-size="10" lengthAdjust="spacing" textLength="97.1143" x="1111.42" y="592.6091">bo4e.com.zeitraum</text></g><!--class Lokationszuordnung--><g class="entity" data-entity="Lokationszuordnung" data-source-line="3" data-uid="ent0002" id="entity_Lokationszuordnung"><rect fill="#F1F1F1" height="94.8281" rx="2.5" ry="2.5" style="stroke:#181818;stroke-width:0.5;" width="814.2725" x="7" y="275.59"/><ellipse cx="338.6313" cy="294.5588" fill="#ADD1B2" rx="11" ry="11" style="stroke:#181818;stroke-width:1;"/><path d="M341.6001,300.1994 Q341.022,300.4963 340.3813,300.6369 Q339.7407,300.7931 339.0376,300.7931 Q336.5376,300.7931 335.2095,299.1525 Q333.897,297.4963 333.897,294.3713 Q333.897,291.2463 335.2095,289.59 Q336.5376,287.9338 339.0376,287.9338 Q339.7407,287.9338 340.3813,288.09 Q341.0376,288.2463 341.6001,288.5431 L341.6001,291.2619 Q340.9751,290.6838 340.3813,290.4181 Q339.7876,290.1369 339.1626,290.1369 Q337.8188,290.1369 337.1313,291.215 Q336.4438,292.2775 336.4438,294.3713 Q336.4438,296.465 337.1313,297.5431 Q337.8188,298.6056 339.1626,298.6056 Q339.7876,298.6056 340.3813,298.34 Q340.9751,298.0588 341.6001,297.4806 L341.6001,300.1994 Z " fill="#000000"/><a href="file:////home/runner/work/BO4E-python/BO4E-python/docs/../.tox/docs/tmp/html/api/bo4e.bo.html#bo4e.bo.lokationszuordnung.Lokationszuordnung" target="_top" title="file:////home/runner/work/BO4E-python/BO4E-python/docs/../.tox/docs/tmp/html/api/bo4e.bo.html#bo4e.bo.lokationszuordnung.Lokationszuordnung" xlink:actuate="onRequest" xlink:href="file:////home/runner/work/BO4E-python/BO4E-python/docs/../.tox/docs/tmp/html/api/bo4e.bo.html#bo4e.bo.lokationszuordnung.Lokationszuordnung" xlink:show="new" xlink:title="file:////home/runner/work/BO4E-python/BO4E-python/docs/../.tox/docs/tmp/html/api/bo4e.bo.html#bo4e.bo.lokationszuordnung.Lokationszuordnung" xlink:type="simple"><text fill="#0000FF" font-family="sans-serif" font-size="14" lengthAdjust="spacing" text-decoration="underline" textLength="142.0986" x="359.3369" y="293.5851">Lokationszuordnung</text></a><text fill="#000000" font-family="sans-serif" font-size="10" lengthAdjust="spacing" textLength="142.5098" x="359.1313" y="306.1691">bo4e.bo.lokationszuordnung</text><line style="stroke:#181818;stroke-width:0.5;" x1="8" x2="820.2725" y1="313.5275" y2="313.5275"/><text fill="#000000" font-family="sans-serif" font-size="14" lengthAdjust="spacing" textLength="802.2725" x="13" y="330.5226">_typ : Literal[&lt;BoTyp.LOKATIONSZUORDNUNG: 'LOKATIONSZUORDNUNG'&gt;] [1] = BoTyp.LOKATIONSZUORDNUNG</text><text fill="#000000" font-family="sans-serif" font-size="14" lengthAdjust="spacing" textLength="236.291" x="13" y="346.8195">zuordnungstyp : str [0..1] = None</text><text fill="#000000" font-family="sans-serif" font-size="14" lengthAdjust="spacing" textLength="285.0518" x="13" y="363.1164">lokationsbuendelcode : str [0..1] = None</text></g><!--reverse link Lokationszuordnung to SteuerbareRessource--><g class="link" data-entity-1="Lokationszuordnung" data-entity-2="SteuerbareRessource" data-source-line="21" data-uid="lnk13" id="link_Lokationszuordnung_SteuerbareRessource"><path codeLine="21" d="M481.5662,267.756 C560.6862,204.906 701.6,105.09 851.27,64 C934.01,41.28 1033.58,64.52 1093.22,83.6" fill="none" id="Lokationszuordnung-backto-SteuerbareRessource" style="stroke:#181818;stroke-width:1;"/><polygon fill="#181818" points="472.17,275.22,479.3561,274.6201,481.5662,267.756,474.3801,268.3559,472.17,275.22" style="stroke:#181818;stroke-width:1;"/><text fill="#000000" font-family="sans-serif" font-size="13" lengthAdjust="spacing" textLength="144.5552" x="853.27" y="51.0669">lokationszuordnungen</text><text fill="#000000" font-family="sans-serif" font-size="13" lengthAdjust="spacing" textLength="23.0356" x="455.7163" y="264.5219">0..*</text></g><!--link Lokationszuordnung to SteuerbareRessource--><g class="link" data-entity-1="Lokationszuordnung" data-entity-2="SteuerbareRessource" data-source-line="30" data-uid="lnk22" id="link_Lokationszuordnung_SteuerbareRessource"><path codeLine="30" d="M524.92,275.26 C612.04,238.89 737.65,189.82 851.27,158 C918.68,139.12 984.7559,126.7654 1043.5359,117.5154" fill="none" id="Lokationszuordnung-to-SteuerbareRessource" style="stroke:#181818;stroke-width:1;"/><polygon fill="#181818" points="1055.39,115.65,1048.8411,112.6313,1043.5359,117.5154,1050.0848,120.5341,1055.39,115.65" style="stroke:#181818;stroke-width:1;"/><text fill="#000000" font-family="sans-serif" font-size="13" lengthAdjust="spacing" textLength="146.5103" x="852.27" y="122.0669">steuerbareRessourcen</text><text fill="#000000" font-family="sans-serif" font-size="13" lengthAdjust="spacing" textLength="23.0356" x="1024.8206" y="129.2016">0..*</text></g><!--reverse link Lokationszuordnung to Netzlokation--><g class="link" data-entity-1="Lokationszuordnung" data-entity-2="Netzlokation" data-source-line="22" data-uid="lnk14" id="link_Lokationszuordnung_Netzlokation"><path codeLine="22" d="M568.9552,271.8077 C686.7152,237.6577 847.21,203.61 999.27,219 C1025.27,221.63 1053.46,226.82 1078.12,232.15" fill="none" id="Lokationszuordnung-backto-Netzlokation" style="stroke:#181818;stroke-width:1;"/><polygon fill="#181818" points="557.43,275.15,564.3067,277.3206,568.9552,271.8077,562.0785,269.6372,557.43,275.15" style="stroke:#181818;stroke-width:1;"/><text fill="#000000" font-family="sans-serif" font-size="13" lengthAdjust="spacing" textLength="144.5552" x="853.27" y="212.0669">lokationszuordnungen</text><text fill="#000000" font-family="sans-serif" font-size="13" lengthAdjust="spacing" textLength="23.0356" x="552.966" y="264.4421">0..*</text></g><!--link Lokationszuordnung to Netzlokation--><g class="link" data-entity-1="Lokationszuordnung" data-entity-2="Netzlokation" data-source-line="28" data-uid="lnk20" id="link_Lokationszuordnung_Netzlokation"><path codeLine="28" d="M821.7,281.83 C921.29,271.75 1004.821,263.2889 1066.051,257.0889" fill="none" id="Lokationszuordnung-to-Netzlokation" style="stroke:#181818;stroke-width:1;"/><polygon fill="#181818" points="1077.99,255.88,1071.6176,252.5048,1066.051,257.0889,1072.4235,260.4641,1077.99,255.88" style="stroke:#181818;stroke-width:1;"/><text fill="#000000" font-family="sans-serif" font-size="13" lengthAdjust="spacing" textLength="96.3574" x="877.27" y="261.0669">netzlokationen</text><text fill="#000000" font-family="sans-serif" font-size="13" lengthAdjust="spacing" textLength="23.0356" x="1047.3203" y="269.3239">0..*</text></g><!--reverse link Lokationszuordnung to Marktlokation--><g class="link" data-entity-1="Lokationszuordnung" data-entity-2="Marktlokation" data-source-line="23" data-uid="lnk15" id="link_Lokationszuordnung_Marktlokation"><path codeLine="23" d="M833.7,322.424 C931.16,322.294 1012.67,322.18 1074.01,322.1" fill="none" id="Lokationszuordnung-backto-Marktlokation" style="stroke:#181818;stroke-width:1;"/><polygon fill="#181818" points="821.7,322.44,827.7053,326.432,833.7,322.424,827.6947,318.432,821.7,322.44" style="stroke:#181818;stroke-width:1;"/><text fill="#000000" font-family="sans-serif" font-size="13" lengthAdjust="spacing" textLength="144.5552" x="853.27" y="319.0669">lokationszuordnungen</text><text fill="#000000" font-family="sans-serif" font-size="13" lengthAdjust="spacing" textLength="23.0356" x="828.903" y="334.6272">0..*</text></g><!--link Lokationszuordnung to Marktlokation--><g class="link" data-entity-1="Lokationszuordnung" data-entity-2="Marktlokation" data-source-line="26" data-uid="lnk18" id="link_Lokationszuordnung_Marktlokation"><path codeLine="26" d="M821.6,354.03 C881.24,354.63 941.89,353.05 999.27,348 C1023.75,345.85 1038.4577,343.879 1062.1277,339.529" fill="none" id="Lokationszuordnung-to-Marktlokation" style="stroke:#181818;stroke-width:1;"/><polygon fill="#181818" points="1073.93,337.36,1067.3058,334.5104,1062.1277,339.529,1068.7518,342.3786,1073.93,337.36" style="stroke:#181818;stroke-width:1;"/><text fill="#000000" font-family="sans-serif" font-size="13" lengthAdjust="spacing" textLength="106.7993" x="872.27" y="344.0669">marktlokationen</text><text fill="#000000" font-family="sans-serif" font-size="13" lengthAdjust="spacing" textLength="23.0356" x="1043.1378" y="351.5405">0..*</text></g><!--reverse link Lokationszuordnung to Messlokation--><g class="link" data-entity-1="Lokationszuordnung" data-entity-2="Messlokation" data-source-line="24" data-uid="lnk16" id="link_Lokationszuordnung_Messlokation"><path codeLine="24" d="M774.355,372.2491 C804.365,375.6191 822.37,377.38 851.27,380 C927.8,386.94 1015.83,390.9 1075.6,392.98" fill="none" id="Lokationszuordnung-backto-Messlokation" style="stroke:#181818;stroke-width:1;"/><polygon fill="#181818" points="762.43,370.91,767.9461,375.5546,774.355,372.2491,768.8389,367.6046,762.43,370.91" style="stroke:#181818;stroke-width:1;"/><text fill="#000000" font-family="sans-serif" font-size="13" lengthAdjust="spacing" textLength="144.5552" x="853.27" y="376.0669">lokationszuordnungen</text><text fill="#000000" font-family="sans-serif" font-size="13" lengthAdjust="spacing" textLength="23.0356" x="784.6891" y="390.431">0..*</text></g><!--link Lokationszuordnung to Messlokation--><g class="link" data-entity-1="Lokationszuordnung" data-entity-2="Messlokation" data-source-line="27" data-uid="lnk19" id="link_Lokationszuordnung_Messlokation"><path codeLine="27" d="M600.02,370.88 C677.12,388.52 767.96,406.31 851.27,415 C916.7,421.83 933.65,419.45 999.27,415 C1024.28,413.3 1039.64,411.6929 1063.78,408.2529" fill="none" id="Lokationszuordnung-to-Messlokation" style="stroke:#181818;stroke-width:1;"/><polygon fill="#181818" points="1075.66,406.56,1069.1557,403.4465,1063.78,408.2529,1070.2843,411.3665,1075.66,406.56" style="stroke:#181818;stroke-width:1;"/><text fill="#000000" font-family="sans-serif" font-size="13" lengthAdjust="spacing" textLength="102.4067" x="874.27" y="411.0669">messlokationen</text><text fill="#000000" font-family="sans-serif" font-size="13" lengthAdjust="spacing" textLength="23.0356" x="1044.7685" y="420.45">0..*</text></g><!--link Lokationszuordnung to Geschaeftsobjekt--><g class="link" data-entity-1="Lokationszuordnung" data-entity-2="Geschaeftsobjekt" data-source-line="25" data-uid="lnk17" id="link_Lokationszuordnung_Geschaeftsobjekt"><path codeLine="25" d="M543.39,275.18 C629.24,245.42 745.47,209.42 851.27,191 C923.19,178.48 988.3604,175.3708 1047.9704,174.9708" fill="none" id="Lokationszuordnung-to-Geschaeftsobjekt" style="stroke:#181818;stroke-width:1;"/><polygon fill="none" points="1065.97,174.85,1047.9301,168.9709,1048.0107,180.9706,1065.97,174.85" style="stroke:#181818;stroke-width:1;"/></g><!--link Lokationszuordnung to TechnischeRessource--><g class="link" data-entity-1="Lokationszuordnung" data-entity-2="TechnischeRessource" data-source-line="29" data-uid="lnk21" id="link_Lokationszuordnung_TechnischeRessource"><path codeLine="29" d="M558.88,370.83 C643.14,396.95 752.18,427.45 851.27,445 C918.86,456.97 984.2833,462.1447 1042.8033,464.9047" fill="none" id="Lokationszuordnung-to-TechnischeRessource" style="stroke:#181818;stroke-width:1;"/><polygon fill="#181818" points="1054.79,465.47,1048.9851,461.1918,1042.8033,464.9047,1048.6082,469.1829,1054.79,465.47" style="stroke:#181818;stroke-width:1;"/><text fill="#000000" font-family="sans-serif" font-size="13" lengthAdjust="spacing" textLength="145.9897" x="852.77" y="441.0669">technischeRessourcen</text><text fill="#000000" font-family="sans-serif" font-size="13" lengthAdjust="spacing" textLength="23.0356" x="1024.177" y="477.9068">0..*</text></g><!--reverse link Lokationszuordnung to TechnischeRessource--><g class="link" data-entity-1="Lokationszuordnung" data-entity-2="TechnischeRessource" data-source-line="32" data-uid="lnk24" id="link_Lokationszuordnung_TechnischeRessource"><path codeLine="32" d="M522.3096,375.7714 C608.8196,415.8214 729.7,464.9 851.27,487 C918.87,499.29 996.44,493.51 1055.03,485.21" fill="none" id="Lokationszuordnung-backto-TechnischeRessource" style="stroke:#181818;stroke-width:1;"/><polygon fill="#181818" points="511.42,370.73,515.1844,376.8806,522.3096,375.7714,518.5453,369.6208,511.42,370.73" style="stroke:#181818;stroke-width:1;"/><text fill="#000000" font-family="sans-serif" font-size="13" lengthAdjust="spacing" textLength="144.5552" x="853.27" y="483.0669">lokationszuordnungen</text><text fill="#000000" font-family="sans-serif" font-size="13" lengthAdjust="spacing" textLength="23.0356" x="500.4858" y="390.5724">0..*</text></g><!--link Lokationszuordnung to Zeitraum--><g class="link" data-entity-1="Lokationszuordnung" data-entity-2="Zeitraum" data-source-line="31" data-uid="lnk23" id="link_Lokationszuordnung_Zeitraum"><path codeLine="31" d="M505.12,370.72 C591.72,414.93 727.41,479.75 851.27,520 C928.91,545.23 1009.7065,560.5204 1070.1265,570.0504" fill="none" id="Lokationszuordnung-to-Zeitraum" style="stroke:#181818;stroke-width:1;"/><polygon fill="#181818" points="1081.98,571.92,1076.6765,567.034,1070.1265,570.0504,1075.4301,574.9363,1081.98,571.92" style="stroke:#181818;stroke-width:1;"/><text fill="#000000" font-family="sans-serif" font-size="13" lengthAdjust="spacing" textLength="69.2974" x="890.77" y="516.0669">gueltigkeit</text><text fill="#000000" font-family="sans-serif" font-size="13" lengthAdjust="spacing" textLength="24.8066" x="1049.6026" y="583.8215">0..1</text></g><!--SRC=[lLRHRjem57qcNt453vMGS42gkYhga62jgcaCf9Q-b4LJI2ua8x4Zsr47s_vz8P3W4AE1gYLFFaU-npxEzRqESI51Ck31qfVW1HnT6J1g66xe207DsMmHX6YPwUUp24sUK8hSV6DyPGudrm-TU2rzHajZZxd29CGaaltS0Hd5fY-Zq7JYm9opQoHpHhP4AmSXMpdRXSKcOToZ2LsIKOM2AcNRt-YT23PezRhzqs9DS8Gc6duPZUzo7OC5eq0YTyBPtP1Drp4PJRuCffydu-VNbydJ_VXb_6Z1LPMywjimwzdm4Kw56OrYDR5RIKWEiouXMTYOKJGQnORd2L8FGvTvg9tvnp2e4w687HV_-y-1FR3jxFZs25h3c_iFWzljsTMS949YWdpkSEGe14kuY-Ivu9vo3ZISDayqUfbJJNpjNfSeNDz9RwTWyn-uakJnY81ZGclnM2RpTnnPkpcASfFdF1ah05IWDQI6PcRKYDgDH0vVoSB9LnL12MczbA8pCwMO-jsasNumem1GWTwACc7dH25gDoBHzMcG9hbIAAO5ToWK6axhJgENcTJ4foMwXWhjiaWfqIbIQtGAeVNG7TpUVAgXIETRQHLeWu7aJXAHr_q0ya7rSDNvcODywhRLwPu0pRGVjflGxdGWxqZQ7c11zHM0z6p9Kb5wfrQvBBnNJBsM5sXrEh_xXKYb0UWYqf1sleLJLaeLxCJAMfso2xLwNA1oz9FKrd21YgumM22hxFcI-eGKLVOVahrcSQCFbyc2POAX39Qhb3axR_GkjUbZ-47w_8mmcYCNXl3P6-XMMGGOUk8l]--></g></svg>