<svg xmlns="http://www.w3.org/2000/svg" xmlns:xlink="http://www.w3.org/1999/xlink" contentStyleType="text/css" data-diagram-type="CLASS" height="669px" preserveAspectRatio="none" style="width:1285px;height:669px;background:#FFFFFF;" version="1.1" viewBox="0 0 1285 669" width="1285px" zoomAndPan="magnify"><defs/><g><!--cluster bo4e--><g class="cluster" data-entity="bo4e" data-source-line="10" data-uid="ent0005" id="cluster_bo4e"><path d="M1017.77,28.5659 L1057.646,28.5659 A3.75,3.75 0 0 1 1060.146,31.0659 L1067.146,50.8628 L1276.18,50.8628 A2.5,2.5 0 0 1 1278.68,53.3628 L1278.68,660.0659 A2.5,2.5 0 0 1 1276.18,662.5659 L1017.77,662.5659 A2.5,2.5 0 0 1 1015.27,660.0659 L1015.27,31.0659 A2.5,2.5 0 0 1 1017.77,28.5659" fill="none" style="stroke:#000000;stroke-width:1.5;"/><line style="stroke:#000000;stroke-width:1.5;" x1="1015.27" x2="1067.146" y1="50.8628" y2="50.8628"/><text fill="#000000" font-family="sans-serif" font-size="14" font-weight="bold" lengthAdjust="spacing" textLength="38.876" x="1019.27" y="43.561">bo4e</text></g><!--cluster bo--><g class="cluster" data-entity="bo" data-source-line="9" data-uid="ent0003" id="cluster_bo"><path d="M1041.77,71.5659 L1106.604,71.5659 A3.75,3.75 0 0 1 1109.104,74.0659 L1116.104,93.8628 L1252.18,93.8628 A2.5,2.5 0 0 1 1254.68,96.3628 L1254.68,523.0659 A2.5,2.5 0 0 1 1252.18,525.5659 L1041.77,525.5659 A2.5,2.5 0 0 1 1039.27,523.0659 L1039.27,74.0659 A2.5,2.5 0 0 1 1041.77,71.5659" fill="#B6D7A8" style="stroke:#000000;stroke-width:1.5;"/><line style="stroke:#000000;stroke-width:1.5;" x1="1039.27" x2="1116.104" y1="93.8628" y2="93.8628"/><a href="file:////home/runner/work/BO4E-python/BO4E-python/docs/../.tox/docs/tmp/html/api/bo4e.bo.html" target="_top" title="file:////home/runner/work/BO4E-python/BO4E-python/docs/../.tox/docs/tmp/html/api/bo4e.bo.html" xlink:actuate="onRequest" xlink:href="file:////home/runner/work/BO4E-python/BO4E-python/docs/../.tox/docs/tmp/html/api/bo4e.bo.html" xlink:show="new" xlink:title="file:////home/runner/work/BO4E-python/BO4E-python/docs/../.tox/docs/tmp/html/api/bo4e.bo.html" xlink:type="simple"><text fill="#0000FF" font-family="sans-serif" font-size="14" font-weight="bold" lengthAdjust="spacing" text-decoration="underline" textLength="63.834" x="1043.27" y="86.561">bo4e.bo</text></a></g><!--cluster com--><g class="cluster" data-entity="com" data-source-line="17" data-uid="ent0011" id="cluster_com"><path d="M1068.92,549.5659 L1146.6192,549.5659 A3.75,3.75 0 0 1 1149.1192,552.0659 L1156.1192,571.8628 L1225.03,571.8628 A2.5,2.5 0 0 1 1227.53,574.3628 L1227.53,636.0659 A2.5,2.5 0 0 1 1225.03,638.5659 L1068.92,638.5659 A2.5,2.5 0 0 1 1066.42,636.0659 L1066.42,552.0659 A2.5,2.5 0 0 1 1068.92,549.5659" fill="#E0A86C" style="stroke:#000000;stroke-width:1.5;"/><line style="stroke:#000000;stroke-width:1.5;" x1="1066.42" x2="1156.1192" y1="571.8628" y2="571.8628"/><a href="file:////home/runner/work/BO4E-python/BO4E-python/docs/../.tox/docs/tmp/html/api/bo4e.com.html" target="_top" title="file:////home/runner/work/BO4E-python/BO4E-python/docs/../.tox/docs/tmp/html/api/bo4e.com.html" xlink:actuate="onRequest" xlink:href="file:////home/runner/work/BO4E-python/BO4E-python/docs/../.tox/docs/tmp/html/api/bo4e.com.html" xlink:show="new" xlink:title="file:////home/runner/work/BO4E-python/BO4E-python/docs/../.tox/docs/tmp/html/api/bo4e.com.html" xlink:type="simple"><text fill="#0000FF" font-family="sans-serif" font-size="14" font-weight="bold" lengthAdjust="spacing" text-decoration="underline" textLength="76.6992" x="1070.42" y="564.561">bo4e.com</text></a></g><!--class Messlokation--><g class="entity" data-entity="Messlokation" data-source-line="10" data-uid="ent0004" id="entity_Messlokation"><rect fill="#F1F1F1" height="37.9375" rx="2.5" ry="2.5" style="stroke:#181818;stroke-width:0.5;" width="142.0879" x="1075.93" y="106.5959"/><ellipse cx="1090.93" cy="125.5647" fill="#ADD1B2" rx="11" ry="11" style="stroke:#181818;stroke-width:1;"/><path d="M1093.8988,131.2053 Q1093.3206,131.5022 1092.68,131.6428 Q1092.0394,131.799 1091.3363,131.799 Q1088.8363,131.799 1087.5081,130.1584 Q1086.1956,128.5022 1086.1956,125.3772 Q1086.1956,122.2522 1087.5081,120.5959 Q1088.8363,118.9397 1091.3363,118.9397 Q1092.0394,118.9397 1092.68,119.0959 Q1093.3363,119.2522 1093.8988,119.549 L1093.8988,122.2678 Q1093.2738,121.6897 1092.68,121.424 Q1092.0863,121.1428 1091.4613,121.1428 Q1090.1175,121.1428 1089.43,122.2209 Q1088.7425,123.2834 1088.7425,125.3772 Q1088.7425,127.4709 1089.43,128.549 Q1090.1175,129.6115 1091.4613,129.6115 Q1092.0863,129.6115 1092.68,129.3459 Q1093.2738,129.0647 1093.8988,128.4865 L1093.8988,131.2053 Z " fill="#000000"/><a href="file:////home/runner/work/BO4E-python/BO4E-python/docs/../.tox/docs/tmp/html/api/bo4e.bo.html#bo4e.bo.messlokation.Messlokation" target="_top" title="file:////home/runner/work/BO4E-python/BO4E-python/docs/../.tox/docs/tmp/html/api/bo4e.bo.html#bo4e.bo.messlokation.Messlokation" xlink:actuate="onRequest" xlink:href="file:////home/runner/work/BO4E-python/BO4E-python/docs/../.tox/docs/tmp/html/api/bo4e.bo.html#bo4e.bo.messlokation.Messlokation" xlink:show="new" xlink:title="file:////home/runner/work/BO4E-python/BO4E-python/docs/../.tox/docs/tmp/html/api/bo4e.bo.html#bo4e.bo.messlokation.Messlokation" xlink:type="simple"><text fill="#0000FF" font-family="sans-serif" font-size="14" lengthAdjust="spacing" text-decoration="underline" textLength="91.2393" x="1114.3543" y="124.591">Messlokation</text></a><text fill="#000000" font-family="sans-serif" font-size="10" lengthAdjust="spacing" textLength="110.0879" x="1104.93" y="137.175">bo4e.bo.messlokation</text></g><!--class Netzlokation--><g class="entity" data-entity="Netzlokation" data-source-line="11" data-uid="ent0006" id="entity_Netzlokation"><rect fill="#F1F1F1" height="37.9375" rx="2.5" ry="2.5" style="stroke:#181818;stroke-width:0.5;" width="137.4346" x="1078.26" y="179.5959"/><ellipse cx="1093.26" cy="198.5647" fill="#ADD1B2" rx="11" ry="11" style="stroke:#181818;stroke-width:1;"/><path d="M1096.2288,204.2053 Q1095.6506,204.5022 1095.01,204.6428 Q1094.3694,204.799 1093.6663,204.799 Q1091.1663,204.799 1089.8381,203.1584 Q1088.5256,201.5022 1088.5256,198.3772 Q1088.5256,195.2522 1089.8381,193.5959 Q1091.1663,191.9397 1093.6663,191.9397 Q1094.3694,191.9397 1095.01,192.0959 Q1095.6663,192.2522 1096.2288,192.549 L1096.2288,195.2678 Q1095.6038,194.6897 1095.01,194.424 Q1094.4163,194.1428 1093.7913,194.1428 Q1092.4475,194.1428 1091.76,195.2209 Q1091.0725,196.2834 1091.0725,198.3772 Q1091.0725,200.4709 1091.76,201.549 Q1092.4475,202.6115 1093.7913,202.6115 Q1094.4163,202.6115 1095.01,202.3459 Q1095.6038,202.0647 1096.2288,201.4865 L1096.2288,204.2053 Z " fill="#000000"/><a href="file:////home/runner/work/BO4E-python/BO4E-python/docs/../.tox/docs/tmp/html/api/bo4e.bo.html#bo4e.bo.netzlokation.Netzlokation" target="_top" title="file:////home/runner/work/BO4E-python/BO4E-python/docs/../.tox/docs/tmp/html/api/bo4e.bo.html#bo4e.bo.netzlokation.Netzlokation" xlink:actuate="onRequest" xlink:href="file:////home/runner/work/BO4E-python/BO4E-python/docs/../.tox/docs/tmp/html/api/bo4e.bo.html#bo4e.bo.netzlokation.Netzlokation" xlink:show="new" xlink:title="file:////home/runner/work/BO4E-python/BO4E-python/docs/../.tox/docs/tmp/html/api/bo4e.bo.html#bo4e.bo.netzlokation.Netzlokation" xlink:type="simple"><text fill="#0000FF" font-family="sans-serif" font-size="14" lengthAdjust="spacing" text-decoration="underline" textLength="87.8828" x="1116.0359" y="197.591">Netzlokation</text></a><text fill="#000000" font-family="sans-serif" font-size="10" lengthAdjust="spacing" textLength="105.4346" x="1107.26" y="210.175">bo4e.bo.netzlokation</text></g><!--class Marktlokation--><g class="entity" data-entity="Marktlokation" data-source-line="12" data-uid="ent0007" id="entity_Marktlokation"><rect fill="#F1F1F1" height="37.9375" rx="2.5" ry="2.5" style="stroke:#181818;stroke-width:0.5;" width="145.4668" x="1074.24" y="252.5959"/><ellipse cx="1089.24" cy="271.5647" fill="#ADD1B2" rx="11" ry="11" style="stroke:#181818;stroke-width:1;"/><path d="M1092.2088,277.2053 Q1091.6306,277.5022 1090.99,277.6428 Q1090.3494,277.799 1089.6463,277.799 Q1087.1463,277.799 1085.8181,276.1584 Q1084.5056,274.5022 1084.5056,271.3772 Q1084.5056,268.2522 1085.8181,266.5959 Q1087.1463,264.9397 1089.6463,264.9397 Q1090.3494,264.9397 1090.99,265.0959 Q1091.6463,265.2522 1092.2088,265.549 L1092.2088,268.2678 Q1091.5838,267.6897 1090.99,267.424 Q1090.3963,267.1428 1089.7713,267.1428 Q1088.4275,267.1428 1087.74,268.2209 Q1087.0525,269.2834 1087.0525,271.3772 Q1087.0525,273.4709 1087.74,274.549 Q1088.4275,275.6115 1089.7713,275.6115 Q1090.3963,275.6115 1090.99,275.3459 Q1091.5838,275.0647 1092.2088,274.4865 L1092.2088,277.2053 Z " fill="#000000"/><a href="file:////home/runner/work/BO4E-python/BO4E-python/docs/../.tox/docs/tmp/html/api/bo4e.bo.html#bo4e.bo.marktlokation.Marktlokation" target="_top" title="file:////home/runner/work/BO4E-python/BO4E-python/docs/../.tox/docs/tmp/html/api/bo4e.bo.html#bo4e.bo.marktlokation.Marktlokation" xlink:actuate="onRequest" xlink:href="file:////home/runner/work/BO4E-python/BO4E-python/docs/../.tox/docs/tmp/html/api/bo4e.bo.html#bo4e.bo.marktlokation.Marktlokation" xlink:show="new" xlink:title="file:////home/runner/work/BO4E-python/BO4E-python/docs/../.tox/docs/tmp/html/api/bo4e.bo.html#bo4e.bo.marktlokation.Marktlokation" xlink:type="simple"><text fill="#0000FF" font-family="sans-serif" font-size="14" lengthAdjust="spacing" text-decoration="underline" textLength="95.9697" x="1111.9885" y="270.591">Marktlokation</text></a><text fill="#000000" font-family="sans-serif" font-size="10" lengthAdjust="spacing" textLength="113.4668" x="1103.24" y="283.175">bo4e.bo.marktlokation</text></g><!--class SteuerbareRessource--><g class="entity" data-entity="SteuerbareRessource" data-source-line="13" data-uid="ent0008" id="entity_SteuerbareRessource"><rect fill="#F1F1F1" height="37.9375" rx="2.5" ry="2.5" style="stroke:#181818;stroke-width:0.5;" width="182.5" x="1055.73" y="325.5959"/><ellipse cx="1070.73" cy="344.5647" fill="#ADD1B2" rx="11" ry="11" style="stroke:#181818;stroke-width:1;"/><path d="M1073.6988,350.2053 Q1073.1206,350.5022 1072.48,350.6428 Q1071.8394,350.799 1071.1363,350.799 Q1068.6363,350.799 1067.3081,349.1584 Q1065.9956,347.5022 1065.9956,344.3772 Q1065.9956,341.2522 1067.3081,339.5959 Q1068.6363,337.9397 1071.1363,337.9397 Q1071.8394,337.9397 1072.48,338.0959 Q1073.1363,338.2522 1073.6988,338.549 L1073.6988,341.2678 Q1073.0738,340.6897 1072.48,340.424 Q1071.8863,340.1428 1071.2613,340.1428 Q1069.9175,340.1428 1069.23,341.2209 Q1068.5425,342.2834 1068.5425,344.3772 Q1068.5425,346.4709 1069.23,347.549 Q1069.9175,348.6115 1071.2613,348.6115 Q1071.8863,348.6115 1072.48,348.3459 Q1073.0738,348.0647 1073.6988,347.4865 L1073.6988,350.2053 Z " fill="#000000"/><a href="file:////home/runner/work/BO4E-python/BO4E-python/docs/../.tox/docs/tmp/html/api/bo4e.bo.html#bo4e.bo.steuerbareressource.SteuerbareRessource" target="_top" title="file:////home/runner/work/BO4E-python/BO4E-python/docs/../.tox/docs/tmp/html/api/bo4e.bo.html#bo4e.bo.steuerbareressource.SteuerbareRessource" xlink:actuate="onRequest" xlink:href="file:////home/runner/work/BO4E-python/BO4E-python/docs/../.tox/docs/tmp/html/api/bo4e.bo.html#bo4e.bo.steuerbareressource.SteuerbareRessource" xlink:show="new" xlink:title="file:////home/runner/work/BO4E-python/BO4E-python/docs/../.tox/docs/tmp/html/api/bo4e.bo.html#bo4e.bo.steuerbareressource.SteuerbareRessource" xlink:type="simple"><text fill="#0000FF" font-family="sans-serif" font-size="14" lengthAdjust="spacing" text-decoration="underline" textLength="150.5" x="1084.73" y="343.591">SteuerbareRessource</text></a><text fill="#000000" font-family="sans-serif" font-size="10" lengthAdjust="spacing" textLength="147.3291" x="1086.3154" y="356.175">bo4e.bo.steuerbareressource</text></g><!--class TechnischeRessource--><g class="entity" data-entity="TechnischeRessource" data-source-line="14" data-uid="ent0009" id="entity_TechnischeRessource"><rect fill="#F1F1F1" height="37.9375" rx="2.5" ry="2.5" style="stroke:#181818;stroke-width:0.5;" width="183.4092" x="1055.27" y="398.5959"/><ellipse cx="1070.27" cy="417.5647" fill="#ADD1B2" rx="11" ry="11" style="stroke:#181818;stroke-width:1;"/><path d="M1073.2388,423.2053 Q1072.6606,423.5022 1072.02,423.6428 Q1071.3794,423.799 1070.6763,423.799 Q1068.1763,423.799 1066.8481,422.1584 Q1065.5356,420.5022 1065.5356,417.3772 Q1065.5356,414.2522 1066.8481,412.5959 Q1068.1763,410.9397 1070.6763,410.9397 Q1071.3794,410.9397 1072.02,411.0959 Q1072.6763,411.2522 1073.2388,411.549 L1073.2388,414.2678 Q1072.6138,413.6897 1072.02,413.424 Q1071.4263,413.1428 1070.8013,413.1428 Q1069.4575,413.1428 1068.77,414.2209 Q1068.0825,415.2834 1068.0825,417.3772 Q1068.0825,419.4709 1068.77,420.549 Q1069.4575,421.6115 1070.8013,421.6115 Q1071.4263,421.6115 1072.02,421.3459 Q1072.6138,421.0647 1073.2388,420.4865 L1073.2388,423.2053 Z " fill="#000000"/><a href="file:////home/runner/work/BO4E-python/BO4E-python/docs/../.tox/docs/tmp/html/api/bo4e.bo.html#bo4e.bo.technischeressource.TechnischeRessource" target="_top" title="file:////home/runner/work/BO4E-python/BO4E-python/docs/../.tox/docs/tmp/html/api/bo4e.bo.html#bo4e.bo.technischeressource.TechnischeRessource" xlink:actuate="onRequest" xlink:href="file:////home/runner/work/BO4E-python/BO4E-python/docs/../.tox/docs/tmp/html/api/bo4e.bo.html#bo4e.bo.technischeressource.TechnischeRessource" xlink:show="new" xlink:title="file:////home/runner/work/BO4E-python/BO4E-python/docs/../.tox/docs/tmp/html/api/bo4e.bo.html#bo4e.bo.technischeressource.TechnischeRessource" xlink:type="simple"><text fill="#0000FF" font-family="sans-serif" font-size="14" lengthAdjust="spacing" text-decoration="underline" textLength="151.4092" x="1084.27" y="416.591">TechnischeRessource</text></a><text fill="#000000" font-family="sans-serif" font-size="10" lengthAdjust="spacing" textLength="146.9287" x="1086.5102" y="429.175">bo4e.bo.technischeressource</text></g><!--class Geschaeftsobjekt--><g class="entity" data-entity="Geschaeftsobjekt" data-source-line="15" data-uid="ent0010" id="entity_Geschaeftsobjekt"><rect fill="#F1F1F1" height="37.9375" rx="2.5" ry="2.5" style="stroke:#181818;stroke-width:0.5;" width="161.3896" x="1066.28" y="471.5959"/><ellipse cx="1081.28" cy="490.5647" fill="#ADD1B2" rx="11" ry="11" style="stroke:#181818;stroke-width:1;"/><path d="M1084.2488,496.2053 Q1083.6706,496.5022 1083.03,496.6428 Q1082.3894,496.799 1081.6863,496.799 Q1079.1863,496.799 1077.8581,495.1584 Q1076.5456,493.5022 1076.5456,490.3772 Q1076.5456,487.2522 1077.8581,485.5959 Q1079.1863,483.9397 1081.6863,483.9397 Q1082.3894,483.9397 1083.03,484.0959 Q1083.6863,484.2522 1084.2488,484.549 L1084.2488,487.2678 Q1083.6238,486.6897 1083.03,486.424 Q1082.4363,486.1428 1081.8113,486.1428 Q1080.4675,486.1428 1079.78,487.2209 Q1079.0925,488.2834 1079.0925,490.3772 Q1079.0925,492.4709 1079.78,493.549 Q1080.4675,494.6115 1081.8113,494.6115 Q1082.4363,494.6115 1083.03,494.3459 Q1083.6238,494.0647 1084.2488,493.4865 L1084.2488,496.2053 Z " fill="#000000"/><a href="file:////home/runner/work/BO4E-python/BO4E-python/docs/../.tox/docs/tmp/html/api/bo4e.bo.html#bo4e.bo.geschaeftsobjekt.Geschaeftsobjekt" target="_top" title="file:////home/runner/work/BO4E-python/BO4E-python/docs/../.tox/docs/tmp/html/api/bo4e.bo.html#bo4e.bo.geschaeftsobjekt.Geschaeftsobjekt" xlink:actuate="onRequest" xlink:href="file:////home/runner/work/BO4E-python/BO4E-python/docs/../.tox/docs/tmp/html/api/bo4e.bo.html#bo4e.bo.geschaeftsobjekt.Geschaeftsobjekt" xlink:show="new" xlink:title="file:////home/runner/work/BO4E-python/BO4E-python/docs/../.tox/docs/tmp/html/api/bo4e.bo.html#bo4e.bo.geschaeftsobjekt.Geschaeftsobjekt" xlink:type="simple"><text fill="#0000FF" font-family="sans-serif" font-size="14" lengthAdjust="spacing" text-decoration="underline" textLength="121.7822" x="1099.0837" y="489.591">Geschaeftsobjekt</text></a><text fill="#000000" font-family="sans-serif" font-size="10" lengthAdjust="spacing" textLength="129.3896" x="1095.28" y="502.175">bo4e.bo.geschaeftsobjekt</text></g><!--class Zeitraum--><g class="entity" data-entity="Zeitraum" data-source-line="18" data-uid="ent0012" id="entity_Zeitraum"><rect fill="#F1F1F1" height="37.9375" rx="2.5" ry="2.5" style="stroke:#181818;stroke-width:0.5;" width="129.1143" x="1082.42" y="584.5959"/><ellipse cx="1097.42" cy="603.5647" fill="#ADD1B2" rx="11" ry="11" style="stroke:#181818;stroke-width:1;"/><path d="M1100.3888,609.2053 Q1099.8106,609.5022 1099.17,609.6428 Q1098.5294,609.799 1097.8263,609.799 Q1095.3263,609.799 1093.9981,608.1584 Q1092.6856,606.5022 1092.6856,603.3772 Q1092.6856,600.2522 1093.9981,598.5959 Q1095.3263,596.9397 1097.8263,596.9397 Q1098.5294,596.9397 1099.17,597.0959 Q1099.8263,597.2522 1100.3888,597.549 L1100.3888,600.2678 Q1099.7638,599.6897 1099.17,599.424 Q1098.5763,599.1428 1097.9513,599.1428 Q1096.6075,599.1428 1095.92,600.2209 Q1095.2325,601.2834 1095.2325,603.3772 Q1095.2325,605.4709 1095.92,606.549 Q1096.6075,607.6115 1097.9513,607.6115 Q1098.5763,607.6115 1099.17,607.3459 Q1099.7638,607.0647 1100.3888,606.4865 L1100.3888,609.2053 Z " fill="#000000"/><a href="file:////home/runner/work/BO4E-python/BO4E-python/docs/../.tox/docs/tmp/html/api/bo4e.com.html#bo4e.com.zeitraum.Zeitraum" target="_top" title="file:////home/runner/work/BO4E-python/BO4E-python/docs/../.tox/docs/tmp/html/api/bo4e.com.html#bo4e.com.zeitraum.Zeitraum" xlink:actuate="onRequest" xlink:href="file:////home/runner/work/BO4E-python/BO4E-python/docs/../.tox/docs/tmp/html/api/bo4e.com.html#bo4e.com.zeitraum.Zeitraum" xlink:show="new" xlink:title="file:////home/runner/work/BO4E-python/BO4E-python/docs/../.tox/docs/tmp/html/api/bo4e.com.html#bo4e.com.zeitraum.Zeitraum" xlink:type="simple"><text fill="#0000FF" font-family="sans-serif" font-size="14" lengthAdjust="spacing" text-decoration="underline" textLength="64.4287" x="1127.7628" y="602.591">Zeitraum</text></a><text fill="#000000" font-family="sans-serif" font-size="10" lengthAdjust="spacing" textLength="97.1143" x="1111.42" y="615.175">bo4e.com.zeitraum</text></g><!--class Lokationszuordnung--><g class="entity" data-entity="Lokationszuordnung" data-source-line="3" data-uid="ent0002" id="entity_Lokationszuordnung"><rect fill="#F1F1F1" height="94.8281" rx="2.5" ry="2.5" style="stroke:#181818;stroke-width:0.5;" width="814.2725" x="7" y="264.1559"/><ellipse cx="338.6313" cy="283.1247" fill="#ADD1B2" rx="11" ry="11" style="stroke:#181818;stroke-width:1;"/><path d="M341.6001,288.7653 Q341.022,289.0622 340.3813,289.2028 Q339.7407,289.359 339.0376,289.359 Q336.5376,289.359 335.2095,287.7184 Q333.897,286.0622 333.897,282.9372 Q333.897,279.8122 335.2095,278.1559 Q336.5376,276.4997 339.0376,276.4997 Q339.7407,276.4997 340.3813,276.6559 Q341.0376,276.8122 341.6001,277.109 L341.6001,279.8278 Q340.9751,279.2497 340.3813,278.984 Q339.7876,278.7028 339.1626,278.7028 Q337.8188,278.7028 337.1313,279.7809 Q336.4438,280.8434 336.4438,282.9372 Q336.4438,285.0309 337.1313,286.109 Q337.8188,287.1715 339.1626,287.1715 Q339.7876,287.1715 340.3813,286.9059 Q340.9751,286.6247 341.6001,286.0465 L341.6001,288.7653 Z " fill="#000000"/><a href="file:////home/runner/work/BO4E-python/BO4E-python/docs/../.tox/docs/tmp/html/api/bo4e.bo.html#bo4e.bo.lokationszuordnung.Lokationszuordnung" target="_top" title="file:////home/runner/work/BO4E-python/BO4E-python/docs/../.tox/docs/tmp/html/api/bo4e.bo.html#bo4e.bo.lokationszuordnung.Lokationszuordnung" xlink:actuate="onRequest" xlink:href="file:////home/runner/work/BO4E-python/BO4E-python/docs/../.tox/docs/tmp/html/api/bo4e.bo.html#bo4e.bo.lokationszuordnung.Lokationszuordnung" xlink:show="new" xlink:title="file:////home/runner/work/BO4E-python/BO4E-python/docs/../.tox/docs/tmp/html/api/bo4e.bo.html#bo4e.bo.lokationszuordnung.Lokationszuordnung" xlink:type="simple"><text fill="#0000FF" font-family="sans-serif" font-size="14" lengthAdjust="spacing" text-decoration="underline" textLength="142.0986" x="359.3369" y="282.151">Lokationszuordnung</text></a><text fill="#000000" font-family="sans-serif" font-size="10" lengthAdjust="spacing" textLength="142.5098" x="359.1313" y="294.735">bo4e.bo.lokationszuordnung</text><line style="stroke:#181818;stroke-width:0.5;" x1="8" x2="820.2725" y1="302.0934" y2="302.0934"/><text fill="#000000" font-family="sans-serif" font-size="14" lengthAdjust="spacing" textLength="802.2725" x="13" y="319.0885">_typ : Literal[&lt;BoTyp.LOKATIONSZUORDNUNG: 'LOKATIONSZUORDNUNG'&gt;] [1] = BoTyp.LOKATIONSZUORDNUNG</text><text fill="#000000" font-family="sans-serif" font-size="14" lengthAdjust="spacing" textLength="236.291" x="13" y="335.3854">zuordnungstyp : str [0..1] = None</text><text fill="#000000" font-family="sans-serif" font-size="14" lengthAdjust="spacing" textLength="285.0518" x="13" y="351.6823">lokationsbuendelcode : str [0..1] = None</text></g><!--reverse link Lokationszuordnung to Messlokation--><g class="link" data-entity-1="Lokationszuordnung" data-entity-2="Messlokation" data-source-line="21" data-uid="lnk13" id="link_Lokationszuordnung_Messlokation"><path codeLine="21" d="M477.4445,255.8921 C554.9945,189.6521 697.56,80.9859 851.27,36.5659 C914.47,18.3059 935.92,18.8559 999.27,36.5659 C1047.76,50.1259 1096.16,84.5659 1123.46,106.4159" fill="none" id="Lokationszuordnung-backto-Messlokation" style="stroke:#181818;stroke-width:1;"/><polygon fill="#181818" points="468.32,263.6859,475.4802,262.8305,477.4445,255.8921,470.2843,256.7475,468.32,263.6859" style="stroke:#181818;stroke-width:1;"/><text fill="#000000" font-family="sans-serif" font-size="13" lengthAdjust="spacing" textLength="144.5552" x="853.27" y="19.6328">lokationszuordnungen</text><text fill="#000000" font-family="sans-serif" font-size="13" lengthAdjust="spacing" textLength="23.0356" x="451.3249" y="252.9738">0..*</text></g><!--link Lokationszuordnung to Messlokation--><g class="link" data-entity-1="Lokationszuordnung" data-entity-2="Messlokation" data-source-line="28" data-uid="lnk20" id="link_Lokationszuordnung_Messlokation"><path codeLine="28" d="M491.47,263.6859 C575.79,213.8559 717.42,139.0559 851.27,109.5659 C926.58,92.9759 1003.355,99.4932 1063.605,109.2732" fill="none" id="Lokationszuordnung-to-Messlokation" style="stroke:#181818;stroke-width:1;"/><polygon fill="#181818" points="1075.45,111.1959,1070.1684,106.2862,1063.605,109.2732,1068.8866,114.1829,1075.45,111.1959" style="stroke:#181818;stroke-width:1;"/><text fill="#000000" font-family="sans-serif" font-size="13" lengthAdjust="spacing" textLength="102.4067" x="874.27" y="96.6328">messlokationen</text><text fill="#000000" font-family="sans-serif" font-size="13" lengthAdjust="spacing" textLength="23.0356" x="1044.7979" y="122.6357">0..*</text></g><!--reverse link Lokationszuordnung to Netzlokation--><g class="link" data-entity-1="Lokationszuordnung" data-entity-2="Netzlokation" data-source-line="22" data-uid="lnk14" id="link_Lokationszuordnung_Netzlokation"><path codeLine="22" d="M524.5812,258.7853 C611.1812,219.5653 730.9,172.0759 851.27,150.5659 C916.02,138.9959 940.66,120.7159 999.27,150.5659 C1004.66,153.3059 1002.29,158.1459 1007.27,161.5659 C1028.03,175.8059 1054,184.5659 1077.83,189.9659" fill="none" id="Lokationszuordnung-backto-Netzlokation" style="stroke:#181818;stroke-width:1;"/><polygon fill="#181818" points="513.65,263.7359,520.7658,264.9044,524.5812,258.7853,517.4654,257.6169,513.65,263.7359" style="stroke:#181818;stroke-width:1;"/><text fill="#000000" font-family="sans-serif" font-size="13" lengthAdjust="spacing" textLength="144.5552" x="853.27" y="130.6328">lokationszuordnungen</text><text fill="#000000" font-family="sans-serif" font-size="13" lengthAdjust="spacing" textLength="23.0356" x="503.0294" y="253.0308">0..*</text></g><!--link Lokationszuordnung to Netzlokation--><g class="link" data-entity-1="Lokationszuordnung" data-entity-2="Netzlokation" data-source-line="29" data-uid="lnk21" id="link_Lokationszuordnung_Netzlokation"><path codeLine="29" d="M693.25,263.6959 C745.7,255.0459 800.13,246.3159 851.27,238.5659 C928.87,226.8059 1006.309,216.4545 1066.099,208.7245" fill="none" id="Lokationszuordnung-to-Netzlokation" style="stroke:#181818;stroke-width:1;"/><polygon fill="#181818" points="1078,207.1859,1071.5366,203.9882,1066.099,208.7245,1072.5624,211.9222,1078,207.1859" style="stroke:#181818;stroke-width:1;"/><text fill="#000000" font-family="sans-serif" font-size="13" lengthAdjust="spacing" textLength="96.3574" x="877.27" y="214.6328">netzlokationen</text><text fill="#000000" font-family="sans-serif" font-size="13" lengthAdjust="spacing" textLength="23.0356" x="1047.3312" y="220.7957">0..*</text></g><!--reverse link Lokationszuordnung to Marktlokation--><g class="link" data-entity-1="Lokationszuordnung" data-entity-2="Marktlokation" data-source-line="23" data-uid="lnk15" id="link_Lokationszuordnung_Marktlokation"><path codeLine="23" d="M833.5547,265.5568 C843.5447,264.9068 841.48,265.0959 851.27,264.5659 C916.96,261.0359 933.51,262.9959 999.27,264.5659 C1023.62,265.1459 1050.21,266.2659 1074,267.4459" fill="none" id="Lokationszuordnung-backto-Marktlokation" style="stroke:#181818;stroke-width:1;"/><polygon fill="#181818" points="821.58,266.3359,827.8271,269.9379,833.5547,265.5568,827.3076,261.9548,821.58,266.3359" style="stroke:#181818;stroke-width:1;"/><text fill="#000000" font-family="sans-serif" font-size="13" lengthAdjust="spacing" textLength="144.5552" x="853.27" y="259.6328">lokationszuordnungen</text><text fill="#000000" font-family="sans-serif" font-size="13" lengthAdjust="spacing" textLength="23.0356" x="828.7809" y="277.7554">0..*</text></g><!--link Lokationszuordnung to Marktlokation--><g class="link" data-entity-1="Lokationszuordnung" data-entity-2="Marktlokation" data-source-line="27" data-uid="lnk19" id="link_Lokationszuordnung_Marktlokation"><path codeLine="27" d="M821.55,300.6759 C881.2,297.7959 941.86,294.1559 999.27,289.5659 C1023.7,287.6059 1038.4138,286.1036 1062.1838,283.1136" fill="none" id="Lokationszuordnung-to-Marktlokation" style="stroke:#181818;stroke-width:1;"/><polygon fill="#181818" points="1074.09,281.6159,1067.6377,278.396,1062.1838,283.1136,1068.6361,286.3335,1074.09,281.6159" style="stroke:#181818;stroke-width:1;"/><text fill="#000000" font-family="sans-serif" font-size="13" lengthAdjust="spacing" textLength="106.7993" x="872.27" y="285.6328">marktlokationen</text><text fill="#000000" font-family="sans-serif" font-size="13" lengthAdjust="spacing" textLength="23.0356" x="1043.3125" y="295.3069">0..*</text></g><!--reverse link Lokationszuordnung to SteuerbareRessource--><g class="link" data-entity-1="Lokationszuordnung" data-entity-2="SteuerbareRessource" data-source-line="24" data-uid="lnk16" id="link_Lokationszuordnung_SteuerbareRessource"><path codeLine="24" d="M833.6372,341.859 C843.6072,342.319 841.51,342.1859 851.27,342.5659 C919.65,345.2259 997.03,345.6559 1055.33,345.4559" fill="none" id="Lokationszuordnung-backto-SteuerbareRessource" style="stroke:#181818;stroke-width:1;"/><polygon fill="#181818" points="821.65,341.3059,827.4593,345.5782,833.6372,341.859,827.828,337.5867,821.65,341.3059" style="stroke:#181818;stroke-width:1;"/><text fill="#000000" font-family="sans-serif" font-size="13" lengthAdjust="spacing" textLength="144.5552" x="853.27" y="338.6328">lokationszuordnungen</text><text fill="#000000" font-family="sans-serif" font-size="13" lengthAdjust="spacing" textLength="23.0356" x="828.8521" y="354.0139">0..*</text></g><!--link Lokationszuordnung to SteuerbareRessource--><g class="link" data-entity-1="Lokationszuordnung" data-entity-2="SteuerbareRessource" data-source-line="31" data-uid="lnk23" id="link_Lokationszuordnung_SteuerbareRessource"><path codeLine="31" d="M679.61,359.4559 C779.7,372.0059 894.69,379.7659 999.27,370.5659 C1017.57,368.9559 1025.1634,368.2197 1043.6934,365.1297" fill="none" id="Lokationszuordnung-to-SteuerbareRessource" style="stroke:#181818;stroke-width:1;"/><polygon fill="#181818" points="1055.53,363.1559,1048.9538,360.1973,1043.6934,365.1297,1050.2697,368.0883,1055.53,363.1559" style="stroke:#181818;stroke-width:1;"/><text fill="#000000" font-family="sans-serif" font-size="13" lengthAdjust="spacing" textLength="146.5103" x="852.27" y="366.6328">steuerbareRessourcen</text><text fill="#000000" font-family="sans-serif" font-size="13" lengthAdjust="spacing" textLength="23.0356" x="1024.6493" y="377.2255">0..*</text></g><!--reverse link Lokationszuordnung to TechnischeRessource--><g class="link" data-entity-1="Lokationszuordnung" data-entity-2="TechnischeRessource" data-source-line="25" data-uid="lnk17" id="link_Lokationszuordnung_TechnischeRessource"><path codeLine="25" d="M630.5389,361.9256 C703.4789,377.3956 774.83,390.6159 851.27,400.5659 C919.24,409.4159 996.64,413.6559 1055.05,415.6959" fill="none" id="Lokationszuordnung-backto-TechnischeRessource" style="stroke:#181818;stroke-width:1;"/><polygon fill="#181818" points="618.8,359.4359,623.8395,364.5937,630.5389,361.9256,625.4993,356.7678,618.8,359.4359" style="stroke:#181818;stroke-width:1;"/><text fill="#000000" font-family="sans-serif" font-size="13" lengthAdjust="spacing" textLength="144.5552" x="853.27" y="396.6328">lokationszuordnungen</text><text fill="#000000" font-family="sans-serif" font-size="13" lengthAdjust="spacing" textLength="23.0356" x="621.7588" y="378.9515">0..*</text></g><!--link Lokationszuordnung to TechnischeRessource--><g class="link" data-entity-1="Lokationszuordnung" data-entity-2="TechnischeRessource" data-source-line="30" data-uid="lnk22" id="link_Lokationszuordnung_TechnischeRessource"><path codeLine="30" d="M543.74,359.4659 C629.5,388.7859 745.48,423.4759 851.27,438.5659 C916.39,447.8559 933.66,443.2359 999.27,438.5659 C1017.37,437.2759 1024.7267,436.7025 1043.1267,434.2325" fill="none" id="Lokationszuordnung-to-TechnischeRessource" style="stroke:#181818;stroke-width:1;"/><polygon fill="#181818" points="1055.02,432.6359,1048.5412,429.4698,1043.1267,434.2325,1049.6055,437.3986,1055.02,432.6359" style="stroke:#181818;stroke-width:1;"/><text fill="#000000" font-family="sans-serif" font-size="13" lengthAdjust="spacing" textLength="145.9897" x="852.77" y="434.6328">technischeRessourcen</text><text fill="#000000" font-family="sans-serif" font-size="13" lengthAdjust="spacing" textLength="23.0356" x="1024.1006" y="446.436">0..*</text></g><!--link Lokationszuordnung to Geschaeftsobjekt--><g class="link" data-entity-1="Lokationszuordnung" data-entity-2="Geschaeftsobjekt" data-source-line="26" data-uid="lnk18" id="link_Lokationszuordnung_Geschaeftsobjekt"><path codeLine="26" d="M541.75,359.3559 C627.89,390.1659 745.09,428.7659 851.27,452.5659 C923.01,468.6459 988.2704,476.8962 1047.9404,482.5562" fill="none" id="Lokationszuordnung-to-Geschaeftsobjekt" style="stroke:#181818;stroke-width:1;"/><polygon fill="none" points="1065.86,484.2559,1048.507,476.583,1047.3738,488.5293,1065.86,484.2559" style="stroke:#181818;stroke-width:1;"/></g><!--link Lokationszuordnung to Zeitraum--><g class="link" data-entity-1="Lokationszuordnung" data-entity-2="Zeitraum" data-source-line="32" data-uid="lnk24" id="link_Lokationszuordnung_Zeitraum"><path codeLine="32" d="M517.67,359.3359 C605.43,399.5259 735.55,457.4859 851.27,502.5659 C930.9,533.5859 1013.0794,561.1022 1073.0694,580.4522" fill="none" id="Lokationszuordnung-to-Zeitraum" style="stroke:#181818;stroke-width:1;"/><polygon fill="#181818" points="1084.49,584.1359,1080.0076,578.4872,1073.0694,580.4522,1077.5518,586.1009,1084.49,584.1359" style="stroke:#181818;stroke-width:1;"/><text fill="#000000" font-family="sans-serif" font-size="13" lengthAdjust="spacing" textLength="69.2974" x="890.77" y="498.6328">gueltigkeit</text><text fill="#000000" font-family="sans-serif" font-size="13" lengthAdjust="spacing" textLength="24.8066" x="1049.6089" y="577.2574">0..1</text></g><!--SRC=[lLRHRjem57qcNt453vMGS42gkYhga62jgcaCf9Q-b4LJI2ua8x4Zsr47s_vz8P3W4ACLeILFFaU-npw-zhq9SI51Ck31qfVW1HnT6J1g66xe207DsMmHX6YPwUUp24sUK8hSV6DyPGudrm-TU2rzHajZZxd29CGaaltS0Hd5fY-Zq7JYm9opQoHpHhP4AmSXMpdRXSKcOToZ2LsIKOM2AcNRt-YT23PezRhzqs9DS8Gc6duPZUzo7OC5eq0YTyBPtP1Drp4PJRuCffydu-VNbydJ_VXb_6Z1LPMywjimwzdm4Kw56OrYDR5RIKWEiouXMTYOKJGQnORd2L8FGvTvg9tvnp2e4w687HV_Ut9W3smxExuzWjRmvlx3u7PxTZLVajIuo8-AV5K0g41x9TJGp8qQKRiHYd9J61ah05IWDQA6PaRKYFepul2LFAH4HL12-gIeCtPPKPdQtGY92VAvmv6djuCbt4NoN71FEGSQJkjFevUvrCJNxbMYwzD0kBxYTLfm1wyQJkjLevTvrSJNxdM9wVfEska4c__0bIIFHmGS4rgBnpAPl-F8j4JNKA5T5YabEaLgZKuXj1wwWzkRJpKKwNmhhG9jC93SIIBokXz0FgWUgpe_Sv1FtROwtIz0C-s7xIQqEnt8ErAv5LXGRVz8twrLgiONQfNhuOLYka9qeQJklPyXsUdyxXTQbNUWYqX3slbEJXrIgIcSM5chKxu4QiC_G-Ke_MgtFKD5Vx2oohvVKfz-KMN_8Tbh5aNYy3ujM2OOoc2vIXd3y8FqzpF2Q8vS6C9dRw2JN0GOUk8l]--></g></svg>