<?xml version="1.0" encoding="us-ascii" standalone="no"?><svg xmlns="http://www.w3.org/2000/svg" xmlns:xlink="http://www.w3.org/1999/xlink" contentStyleType="text/css" height="689px" preserveAspectRatio="none" style="width:768px;height:689px;background:#FFFFFF;" version="1.1" viewBox="0 0 768 689" width="768px" zoomAndPan="magnify"><defs/><g><!--cluster bo4e--><g id="cluster_bo4e"><path d="M495.5,48.85 L536.5,48.85 A3.75,3.75 0 0 1 539,51.35 L546,71.1469 L758.5,71.1469 A2.5,2.5 0 0 1 761,73.6469 L761,680.35 A2.5,2.5 0 0 1 758.5,682.85 L495.5,682.85 A2.5,2.5 0 0 1 493,680.35 L493,51.35 A2.5,2.5 0 0 1 495.5,48.85 " fill="none" style="stroke:#000000;stroke-width:1.5;"/><line style="stroke:#000000;stroke-width:1.5;" x1="493" x2="546" y1="71.1469" y2="71.1469"/><text fill="#000000" font-family="sans-serif" font-size="14" font-weight="bold" lengthAdjust="spacing" textLength="40" x="497" y="63.8451">bo4e</text></g><!--cluster bo--><g id="cluster_bo"><path d="M519.5,91.85 L585.5,91.85 A3.75,3.75 0 0 1 588,94.35 L595,114.1469 L734.5,114.1469 A2.5,2.5 0 0 1 737,116.6469 L737,543.35 A2.5,2.5 0 0 1 734.5,545.85 L519.5,545.85 A2.5,2.5 0 0 1 517,543.35 L517,94.35 A2.5,2.5 0 0 1 519.5,91.85 " fill="#B6D7A8" style="stroke:#000000;stroke-width:1.5;"/><line style="stroke:#000000;stroke-width:1.5;" x1="517" x2="595" y1="114.1469" y2="114.1469"/><a href="https://bo4e.github.io/BO4E-python/latest/api/bo4e.bo.html" target="_top" title="https://bo4e.github.io/BO4E-python/latest/api/bo4e.bo.html" xlink:actuate="onRequest" xlink:href="https://bo4e.github.io/BO4E-python/latest/api/bo4e.bo.html" xlink:show="new" xlink:title="https://bo4e.github.io/BO4E-python/latest/api/bo4e.bo.html" xlink:type="simple"><text fill="#0000FF" font-family="sans-serif" font-size="14" font-weight="bold" lengthAdjust="spacing" text-decoration="underline" textLength="65" x="521" y="106.8451">bo4e.bo</text></a></g><!--cluster com--><g id="cluster_com"><path d="M546,569.85 L625,569.85 A3.75,3.75 0 0 1 627.5,572.35 L634.5,592.1469 L708,592.1469 A2.5,2.5 0 0 1 710.5,594.6469 L710.5,656.35 A2.5,2.5 0 0 1 708,658.85 L546,658.85 A2.5,2.5 0 0 1 543.5,656.35 L543.5,572.35 A2.5,2.5 0 0 1 546,569.85 " fill="#E0A86C" style="stroke:#000000;stroke-width:1.5;"/><line style="stroke:#000000;stroke-width:1.5;" x1="543.5" x2="634.5" y1="592.1469" y2="592.1469"/><a href="https://bo4e.github.io/BO4E-python/latest/api/bo4e.com.html" target="_top" title="https://bo4e.github.io/BO4E-python/latest/api/bo4e.com.html" xlink:actuate="onRequest" xlink:href="https://bo4e.github.io/BO4E-python/latest/api/bo4e.com.html" xlink:show="new" xlink:title="https://bo4e.github.io/BO4E-python/latest/api/bo4e.com.html" xlink:type="simple"><text fill="#0000FF" font-family="sans-serif" font-size="14" font-weight="bold" lengthAdjust="spacing" text-decoration="underline" textLength="78" x="547.5" y="584.8451">bo4e.com</text></a></g><!--class Messlokation--><g id="elem_Messlokation"><rect codeLine="9" fill="#F1F1F1" height="37.9375" id="Messlokation" rx="2.5" ry="2.5" style="stroke:#181818;stroke-width:0.5;" width="137" x="558.5" y="126.88"/><ellipse cx="573.5" cy="145.8488" fill="#ADD1B2" rx="11" ry="11" style="stroke:#181818;stroke-width:1.0;"/><path d="M576.4688,151.4894 Q575.8906,151.7863 575.25,151.9269 Q574.6094,152.0831 573.9063,152.0831 Q571.4063,152.0831 570.0781,150.4425 Q568.7656,148.7863 568.7656,145.6613 Q568.7656,142.5363 570.0781,140.88 Q571.4063,139.2238 573.9063,139.2238 Q574.6094,139.2238 575.25,139.38 Q575.9063,139.5363 576.4688,139.8331 L576.4688,142.5519 Q575.8438,141.9738 575.25,141.7081 Q574.6563,141.4269 574.0313,141.4269 Q572.6875,141.4269 572,142.505 Q571.3125,143.5675 571.3125,145.6613 Q571.3125,147.755 572,148.8331 Q572.6875,149.8956 574.0313,149.8956 Q574.6563,149.8956 575.25,149.63 Q575.8438,149.3488 576.4688,148.7706 L576.4688,151.4894 Z " fill="#000000"/><a href="https://bo4e.github.io/BO4E-python/latest/api/bo4e.bo.html#bo4e.bo.messlokation.Messlokation" target="_top" title="https://bo4e.github.io/BO4E-python/latest/api/bo4e.bo.html#bo4e.bo.messlokation.Messlokation" xlink:actuate="onRequest" xlink:href="https://bo4e.github.io/BO4E-python/latest/api/bo4e.bo.html#bo4e.bo.messlokation.Messlokation" xlink:show="new" xlink:title="https://bo4e.github.io/BO4E-python/latest/api/bo4e.bo.html#bo4e.bo.messlokation.Messlokation" xlink:type="simple"><text fill="#0000FF" font-family="sans-serif" font-size="14" lengthAdjust="spacing" text-decoration="underline" textLength="91" x="594.5" y="144.8751">Messlokation</text></a><text fill="#000000" font-family="sans-serif" font-size="10" lengthAdjust="spacing" textLength="105" x="587.5" y="157.4591">bo4e.bo.messlokation</text></g><!--class SteuerbareRessource--><g id="elem_SteuerbareRessource"><rect codeLine="10" fill="#F1F1F1" height="37.9375" id="SteuerbareRessource" rx="2.5" ry="2.5" style="stroke:#181818;stroke-width:0.5;" width="184" x="535" y="199.88"/><ellipse cx="550" cy="218.8488" fill="#ADD1B2" rx="11" ry="11" style="stroke:#181818;stroke-width:1.0;"/><path d="M552.9688,224.4894 Q552.3906,224.7863 551.75,224.9269 Q551.1094,225.0831 550.4063,225.0831 Q547.9063,225.0831 546.5781,223.4425 Q545.2656,221.7863 545.2656,218.6613 Q545.2656,215.5363 546.5781,213.88 Q547.9063,212.2238 550.4063,212.2238 Q551.1094,212.2238 551.75,212.38 Q552.4063,212.5363 552.9688,212.8331 L552.9688,215.5519 Q552.3438,214.9738 551.75,214.7081 Q551.1563,214.4269 550.5313,214.4269 Q549.1875,214.4269 548.5,215.505 Q547.8125,216.5675 547.8125,218.6613 Q547.8125,220.755 548.5,221.8331 Q549.1875,222.8956 550.5313,222.8956 Q551.1563,222.8956 551.75,222.63 Q552.3438,222.3488 552.9688,221.7706 L552.9688,224.4894 Z " fill="#000000"/><a href="https://bo4e.github.io/BO4E-python/latest/api/bo4e.bo.html#bo4e.bo.steuerbareressource.SteuerbareRessource" target="_top" title="https://bo4e.github.io/BO4E-python/latest/api/bo4e.bo.html#bo4e.bo.steuerbareressource.SteuerbareRessource" xlink:actuate="onRequest" xlink:href="https://bo4e.github.io/BO4E-python/latest/api/bo4e.bo.html#bo4e.bo.steuerbareressource.SteuerbareRessource" xlink:show="new" xlink:title="https://bo4e.github.io/BO4E-python/latest/api/bo4e.bo.html#bo4e.bo.steuerbareressource.SteuerbareRessource" xlink:type="simple"><text fill="#0000FF" font-family="sans-serif" font-size="14" lengthAdjust="spacing" text-decoration="underline" textLength="152" x="564" y="217.8751">SteuerbareRessource</text></a><text fill="#000000" font-family="sans-serif" font-size="10" lengthAdjust="spacing" textLength="142" x="569" y="230.4591">bo4e.bo.steuerbareressource</text></g><!--class TechnischeRessource--><g id="elem_TechnischeRessource"><rect codeLine="11" fill="#F1F1F1" height="37.9375" id="TechnischeRessource" rx="2.5" ry="2.5" style="stroke:#181818;stroke-width:0.5;" width="188" x="533" y="272.88"/><ellipse cx="548" cy="291.8488" fill="#ADD1B2" rx="11" ry="11" style="stroke:#181818;stroke-width:1.0;"/><path d="M550.9688,297.4894 Q550.3906,297.7863 549.75,297.9269 Q549.1094,298.0831 548.4063,298.0831 Q545.9063,298.0831 544.5781,296.4425 Q543.2656,294.7863 543.2656,291.6613 Q543.2656,288.5363 544.5781,286.88 Q545.9063,285.2238 548.4063,285.2238 Q549.1094,285.2238 549.75,285.38 Q550.4063,285.5363 550.9688,285.8331 L550.9688,288.5519 Q550.3438,287.9738 549.75,287.7081 Q549.1563,287.4269 548.5313,287.4269 Q547.1875,287.4269 546.5,288.505 Q545.8125,289.5675 545.8125,291.6613 Q545.8125,293.755 546.5,294.8331 Q547.1875,295.8956 548.5313,295.8956 Q549.1563,295.8956 549.75,295.63 Q550.3438,295.3488 550.9688,294.7706 L550.9688,297.4894 Z " fill="#000000"/><a href="https://bo4e.github.io/BO4E-python/latest/api/bo4e.bo.html#bo4e.bo.technischeressource.TechnischeRessource" target="_top" title="https://bo4e.github.io/BO4E-python/latest/api/bo4e.bo.html#bo4e.bo.technischeressource.TechnischeRessource" xlink:actuate="onRequest" xlink:href="https://bo4e.github.io/BO4E-python/latest/api/bo4e.bo.html#bo4e.bo.technischeressource.TechnischeRessource" xlink:show="new" xlink:title="https://bo4e.github.io/BO4E-python/latest/api/bo4e.bo.html#bo4e.bo.technischeressource.TechnischeRessource" xlink:type="simple"><text fill="#0000FF" font-family="sans-serif" font-size="14" lengthAdjust="spacing" text-decoration="underline" textLength="156" x="562" y="290.8751">TechnischeRessource</text></a><text fill="#000000" font-family="sans-serif" font-size="10" lengthAdjust="spacing" textLength="140" x="570" y="303.4591">bo4e.bo.technischeressource</text></g><!--class Marktlokation--><g id="elem_Marktlokation"><rect codeLine="12" fill="#F1F1F1" height="37.9375" id="Marktlokation" rx="2.5" ry="2.5" style="stroke:#181818;stroke-width:0.5;" width="140" x="557" y="345.88"/><ellipse cx="572" cy="364.8488" fill="#ADD1B2" rx="11" ry="11" style="stroke:#181818;stroke-width:1.0;"/><path d="M574.9688,370.4894 Q574.3906,370.7863 573.75,370.9269 Q573.1094,371.0831 572.4063,371.0831 Q569.9063,371.0831 568.5781,369.4425 Q567.2656,367.7863 567.2656,364.6613 Q567.2656,361.5363 568.5781,359.88 Q569.9063,358.2238 572.4063,358.2238 Q573.1094,358.2238 573.75,358.38 Q574.4063,358.5363 574.9688,358.8331 L574.9688,361.5519 Q574.3438,360.9738 573.75,360.7081 Q573.1563,360.4269 572.5313,360.4269 Q571.1875,360.4269 570.5,361.505 Q569.8125,362.5675 569.8125,364.6613 Q569.8125,366.755 570.5,367.8331 Q571.1875,368.8956 572.5313,368.8956 Q573.1563,368.8956 573.75,368.63 Q574.3438,368.3488 574.9688,367.7706 L574.9688,370.4894 Z " fill="#000000"/><a href="https://bo4e.github.io/BO4E-python/latest/api/bo4e.bo.html#bo4e.bo.marktlokation.Marktlokation" target="_top" title="https://bo4e.github.io/BO4E-python/latest/api/bo4e.bo.html#bo4e.bo.marktlokation.Marktlokation" xlink:actuate="onRequest" xlink:href="https://bo4e.github.io/BO4E-python/latest/api/bo4e.bo.html#bo4e.bo.marktlokation.Marktlokation" xlink:show="new" xlink:title="https://bo4e.github.io/BO4E-python/latest/api/bo4e.bo.html#bo4e.bo.marktlokation.Marktlokation" xlink:type="simple"><text fill="#0000FF" font-family="sans-serif" font-size="14" lengthAdjust="spacing" text-decoration="underline" textLength="92" x="594" y="363.8751">Marktlokation</text></a><text fill="#000000" font-family="sans-serif" font-size="10" lengthAdjust="spacing" textLength="108" x="586" y="376.4591">bo4e.bo.marktlokation</text></g><!--class Netzlokation--><g id="elem_Netzlokation"><rect codeLine="13" fill="#F1F1F1" height="37.9375" id="Netzlokation" rx="2.5" ry="2.5" style="stroke:#181818;stroke-width:0.5;" width="132" x="561" y="418.88"/><ellipse cx="576" cy="437.8488" fill="#ADD1B2" rx="11" ry="11" style="stroke:#181818;stroke-width:1.0;"/><path d="M578.9688,443.4894 Q578.3906,443.7863 577.75,443.9269 Q577.1094,444.0831 576.4063,444.0831 Q573.9063,444.0831 572.5781,442.4425 Q571.2656,440.7863 571.2656,437.6613 Q571.2656,434.5363 572.5781,432.88 Q573.9063,431.2238 576.4063,431.2238 Q577.1094,431.2238 577.75,431.38 Q578.4063,431.5363 578.9688,431.8331 L578.9688,434.5519 Q578.3438,433.9738 577.75,433.7081 Q577.1563,433.4269 576.5313,433.4269 Q575.1875,433.4269 574.5,434.505 Q573.8125,435.5675 573.8125,437.6613 Q573.8125,439.755 574.5,440.8331 Q575.1875,441.8956 576.5313,441.8956 Q577.1563,441.8956 577.75,441.63 Q578.3438,441.3488 578.9688,440.7706 L578.9688,443.4894 Z " fill="#000000"/><a href="https://bo4e.github.io/BO4E-python/latest/api/bo4e.bo.html#bo4e.bo.netzlokation.Netzlokation" target="_top" title="https://bo4e.github.io/BO4E-python/latest/api/bo4e.bo.html#bo4e.bo.netzlokation.Netzlokation" xlink:actuate="onRequest" xlink:href="https://bo4e.github.io/BO4E-python/latest/api/bo4e.bo.html#bo4e.bo.netzlokation.Netzlokation" xlink:show="new" xlink:title="https://bo4e.github.io/BO4E-python/latest/api/bo4e.bo.html#bo4e.bo.netzlokation.Netzlokation" xlink:type="simple"><text fill="#0000FF" font-family="sans-serif" font-size="14" lengthAdjust="spacing" text-decoration="underline" textLength="86" x="597" y="436.8751">Netzlokation</text></a><text fill="#000000" font-family="sans-serif" font-size="10" lengthAdjust="spacing" textLength="100" x="590" y="449.4591">bo4e.bo.netzlokation</text></g><!--class Geschaeftsobjekt--><g id="elem_Geschaeftsobjekt"><rect codeLine="14" fill="#F1F1F1" height="37.9375" id="Geschaeftsobjekt" rx="2.5" ry="2.5" style="stroke:#181818;stroke-width:0.5;" width="156" x="549" y="491.88"/><ellipse cx="564" cy="510.8488" fill="#ADD1B2" rx="11" ry="11" style="stroke:#181818;stroke-width:1.0;"/><path d="M566.9688,516.4894 Q566.3906,516.7863 565.75,516.9269 Q565.1094,517.0831 564.4063,517.0831 Q561.9063,517.0831 560.5781,515.4425 Q559.2656,513.7863 559.2656,510.6613 Q559.2656,507.5363 560.5781,505.88 Q561.9063,504.2238 564.4063,504.2238 Q565.1094,504.2238 565.75,504.38 Q566.4063,504.5363 566.9688,504.8331 L566.9688,507.5519 Q566.3438,506.9738 565.75,506.7081 Q565.1563,506.4269 564.5313,506.4269 Q563.1875,506.4269 562.5,507.505 Q561.8125,508.5675 561.8125,510.6613 Q561.8125,512.755 562.5,513.8331 Q563.1875,514.8956 564.5313,514.8956 Q565.1563,514.8956 565.75,514.63 Q566.3438,514.3488 566.9688,513.7706 L566.9688,516.4894 Z " fill="#000000"/><a href="https://bo4e.github.io/BO4E-python/latest/api/bo4e.bo.html#bo4e.bo.geschaeftsobjekt.Geschaeftsobjekt" target="_top" title="https://bo4e.github.io/BO4E-python/latest/api/bo4e.bo.html#bo4e.bo.geschaeftsobjekt.Geschaeftsobjekt" xlink:actuate="onRequest" xlink:href="https://bo4e.github.io/BO4E-python/latest/api/bo4e.bo.html#bo4e.bo.geschaeftsobjekt.Geschaeftsobjekt" xlink:show="new" xlink:title="https://bo4e.github.io/BO4E-python/latest/api/bo4e.bo.html#bo4e.bo.geschaeftsobjekt.Geschaeftsobjekt" xlink:type="simple"><text fill="#0000FF" font-family="sans-serif" font-size="14" lengthAdjust="spacing" text-decoration="underline" textLength="122" x="579" y="509.8751">Geschaeftsobjekt</text></a><text fill="#000000" font-family="sans-serif" font-size="10" lengthAdjust="spacing" textLength="124" x="578" y="522.4591">bo4e.bo.geschaeftsobjekt</text></g><!--class Zeitspanne--><g id="elem_Zeitspanne"><rect codeLine="17" fill="#F1F1F1" height="37.9375" id="Zeitspanne" rx="2.5" ry="2.5" style="stroke:#181818;stroke-width:0.5;" width="135" x="559.5" y="604.88"/><ellipse cx="574.5" cy="623.8488" fill="#ADD1B2" rx="11" ry="11" style="stroke:#181818;stroke-width:1.0;"/><path d="M577.4688,629.4894 Q576.8906,629.7863 576.25,629.9269 Q575.6094,630.0831 574.9063,630.0831 Q572.4063,630.0831 571.0781,628.4425 Q569.7656,626.7863 569.7656,623.6613 Q569.7656,620.5363 571.0781,618.88 Q572.4063,617.2238 574.9063,617.2238 Q575.6094,617.2238 576.25,617.38 Q576.9063,617.5363 577.4688,617.8331 L577.4688,620.5519 Q576.8438,619.9738 576.25,619.7081 Q575.6563,619.4269 575.0313,619.4269 Q573.6875,619.4269 573,620.505 Q572.3125,621.5675 572.3125,623.6613 Q572.3125,625.755 573,626.8331 Q573.6875,627.8956 575.0313,627.8956 Q575.6563,627.8956 576.25,627.63 Q576.8438,627.3488 577.4688,626.7706 L577.4688,629.4894 Z " fill="#000000"/><a href="https://bo4e.github.io/BO4E-python/latest/api/bo4e.com.html#bo4e.com.zeitspanne.Zeitspanne" target="_top" title="https://bo4e.github.io/BO4E-python/latest/api/bo4e.com.html#bo4e.com.zeitspanne.Zeitspanne" xlink:actuate="onRequest" xlink:href="https://bo4e.github.io/BO4E-python/latest/api/bo4e.com.html#bo4e.com.zeitspanne.Zeitspanne" xlink:show="new" xlink:title="https://bo4e.github.io/BO4E-python/latest/api/bo4e.com.html#bo4e.com.zeitspanne.Zeitspanne" xlink:type="simple"><text fill="#0000FF" font-family="sans-serif" font-size="14" lengthAdjust="spacing" text-decoration="underline" textLength="79" x="600.5" y="622.8751">Zeitspanne</text></a><text fill="#000000" font-family="sans-serif" font-size="10" lengthAdjust="spacing" textLength="103" x="588.5" y="635.4591">bo4e.com.zeitspanne</text></g><!--class Lokationszuordnung--><g id="elem_Lokationszuordnung"><rect codeLine="3" fill="#F1F1F1" height="78.5313" id="Lokationszuordnung" rx="2.5" ry="2.5" style="stroke:#181818;stroke-width:0.5;" width="294" x="7" y="292.58"/><ellipse cx="78.75" cy="311.5488" fill="#ADD1B2" rx="11" ry="11" style="stroke:#181818;stroke-width:1.0;"/><path d="M81.7188,317.1894 Q81.1406,317.4863 80.5,317.6269 Q79.8594,317.7831 79.1563,317.7831 Q76.6563,317.7831 75.3281,316.1425 Q74.0156,314.4863 74.0156,311.3613 Q74.0156,308.2363 75.3281,306.58 Q76.6563,304.9238 79.1563,304.9238 Q79.8594,304.9238 80.5,305.08 Q81.1563,305.2363 81.7188,305.5331 L81.7188,308.2519 Q81.0938,307.6738 80.5,307.4081 Q79.9063,307.1269 79.2813,307.1269 Q77.9375,307.1269 77.25,308.205 Q76.5625,309.2675 76.5625,311.3613 Q76.5625,313.455 77.25,314.5331 Q77.9375,315.5956 79.2813,315.5956 Q79.9063,315.5956 80.5,315.33 Q81.0938,315.0488 81.7188,314.4706 L81.7188,317.1894 Z " fill="#000000"/><a href="https://bo4e.github.io/BO4E-python/latest/api/bo4e.bo.html#bo4e.bo.lokationszuordnung.Lokationszuordnung" target="_top" title="https://bo4e.github.io/BO4E-python/latest/api/bo4e.bo.html#bo4e.bo.lokationszuordnung.Lokationszuordnung" xlink:actuate="onRequest" xlink:href="https://bo4e.github.io/BO4E-python/latest/api/bo4e.bo.html#bo4e.bo.lokationszuordnung.Lokationszuordnung" xlink:show="new" xlink:title="https://bo4e.github.io/BO4E-python/latest/api/bo4e.bo.html#bo4e.bo.lokationszuordnung.Lokationszuordnung" xlink:type="simple"><text fill="#0000FF" font-family="sans-serif" font-size="14" lengthAdjust="spacing" text-decoration="underline" textLength="142" x="99.25" y="310.5751">Lokationszuordnung</text></a><text fill="#000000" font-family="sans-serif" font-size="10" lengthAdjust="spacing" textLength="135" x="102.75" y="323.1591">bo4e.bo.lokationszuordnung</text><line style="stroke:#181818;stroke-width:0.5;" x1="8" x2="300" y1="330.5175" y2="330.5175"/><text fill="#000000" font-family="sans-serif" font-size="14" lengthAdjust="spacing" textLength="233" x="13" y="347.5126">zuordnungstyp : str [0..1] = None</text><text fill="#000000" font-family="sans-serif" font-size="14" lengthAdjust="spacing" textLength="282" x="13" y="363.8095">lokationsbuendelcode : str [0..1] = None</text></g><!--reverse link Lokationszuordnung to Messlokation--><g id="link_Lokationszuordnung_Messlokation"><path codeLine="20" d="M170.5064,280.8663 C191.5864,217.6563 238.76,107.33 331,56.85 C423.92,6 549.57,87.05 601.74,126.38 " fill="none" id="Lokationszuordnung-backto-Messlokation" style="stroke:#181818;stroke-width:1.0;"/><polygon fill="#181818" points="166.71,292.25,172.4027,287.8236,170.5064,280.8663,164.8136,285.2927,166.71,292.25" style="stroke:#181818;stroke-width:1.0;"/><text fill="#000000" font-family="sans-serif" font-size="13" lengthAdjust="spacing" textLength="141" x="333.5" y="36.9169">lokationszuordnungen</text><text fill="#000000" font-family="sans-serif" font-size="13" lengthAdjust="spacing" textLength="23" x="143.9104" y="281.5277">0..*</text></g><!--link Lokationszuordnung to Messlokation--><g id="link_Lokationszuordnung_Messlokation"><path codeLine="27" d="M175.01,292.29 C202.49,242.91 257.05,160.83 331,126.85 C407.13,91.87 494.5688,106.0148 556.3088,123.1848 " fill="none" id="Lokationszuordnung-to-Messlokation" style="stroke:#181818;stroke-width:1.0;"/><polygon fill="#181818" points="567.87,126.4,563.1611,120.9386,556.3088,123.1848,561.0176,128.6461,567.87,126.4" style="stroke:#181818;stroke-width:1.0;"/><text fill="#000000" font-family="sans-serif" font-size="13" lengthAdjust="spacing" textLength="101" x="353.5" y="102.9169">messlokationen</text><text fill="#000000" font-family="sans-serif" font-size="13" lengthAdjust="spacing" textLength="23" x="527.6539" y="116.9143">0..*</text></g><!--reverse link Lokationszuordnung to SteuerbareRessource--><g id="link_Lokationszuordnung_SteuerbareRessource"><path codeLine="21" d="M191.2134,282.7254 C222.3834,243.3954 268.66,195.06 331,170.85 C391.49,147.36 419.18,141.4 477,170.85 C482.39,173.59 480.01,178.44 485,181.85 C499.84,191.99 517.29,199.35 534.77,204.69 " fill="none" id="Lokationszuordnung-backto-SteuerbareRessource" style="stroke:#181818;stroke-width:1.0;"/><polygon fill="#181818" points="183.76,292.13,190.6216,289.9122,191.2134,282.7254,184.3518,284.9432,183.76,292.13" style="stroke:#181818;stroke-width:1.0;"/><text fill="#000000" font-family="sans-serif" font-size="13" lengthAdjust="spacing" textLength="141" x="333.5" y="147.9169">lokationszuordnungen</text><text fill="#000000" font-family="sans-serif" font-size="13" lengthAdjust="spacing" textLength="23" x="190.5937" y="281.3878">0..*</text></g><!--link Lokationszuordnung to SteuerbareRessource--><g id="link_Lokationszuordnung_SteuerbareRessource"><path codeLine="30" d="M233.89,292.13 C263.65,278.66 298.25,264.78 331,255.85 C397.85,237.62 463.7581,229.2959 522.6981,224.5859 " fill="none" id="Lokationszuordnung-to-SteuerbareRessource" style="stroke:#181818;stroke-width:1.0;"/><polygon fill="#181818" points="534.66,223.63,528.3604,220.1207,522.6981,224.5859,528.9977,228.0952,534.66,223.63" style="stroke:#181818;stroke-width:1.0;"/><text fill="#000000" font-family="sans-serif" font-size="13" lengthAdjust="spacing" textLength="144" x="332" y="225.9169">steuerbareRessourcen</text><text fill="#000000" font-family="sans-serif" font-size="13" lengthAdjust="spacing" textLength="23" x="504.0343" y="236.6037">0..*</text></g><!--reverse link Lokationszuordnung to TechnischeRessource--><g id="link_Lokationszuordnung_TechnischeRessource"><path codeLine="22" d="M301.0263,289.6583 C315.0063,286.6783 317.36,286.64 331,284.85 C395.34,276.41 412.13,283.33 477,284.85 C494.99,285.27 514.2,285.98 532.63,286.79 " fill="none" id="Lokationszuordnung-backto-TechnischeRessource" style="stroke:#181818;stroke-width:1.0;"/><polygon fill="#181818" points="289.29,292.16,295.9921,294.8212,301.0263,289.6583,294.3243,286.997,289.29,292.16" style="stroke:#181818;stroke-width:1.0;"/><text fill="#000000" font-family="sans-serif" font-size="13" lengthAdjust="spacing" textLength="141" x="333.5" y="276.9169">lokationszuordnungen</text><text fill="#000000" font-family="sans-serif" font-size="13" lengthAdjust="spacing" textLength="23" x="286.7927" y="281.4228">0..*</text></g><!--link Lokationszuordnung to TechnischeRessource--><g id="link_Lokationszuordnung_TechnischeRessource"><path codeLine="29" d="M301.4,323.46 C356.5,319.88 419.68,315.27 477,309.85 C495.03,308.15 502.3315,307.4361 520.7715,305.2761 " fill="none" id="Lokationszuordnung-to-TechnischeRessource" style="stroke:#181818;stroke-width:1.0;"/><polygon fill="#181818" points="532.69,303.88,526.2654,300.6052,520.7715,305.2761,527.1961,308.5509,532.69,303.88" style="stroke:#181818;stroke-width:1.0;"/><text fill="#000000" font-family="sans-serif" font-size="13" lengthAdjust="spacing" textLength="143" x="332.5" y="305.9169">technischeRessourcen</text><text fill="#000000" font-family="sans-serif" font-size="13" lengthAdjust="spacing" textLength="23" x="501.9196" y="317.3861">0..*</text></g><!--reverse link Lokationszuordnung to Marktlokation--><g id="link_Lokationszuordnung_Marktlokation"><path codeLine="23" d="M313.1093,361.0711 C323.1593,362.3811 321.27,361.97 331,362.85 C408.02,369.84 496.82,369.28 556.7,367.65 " fill="none" id="Lokationszuordnung-backto-Marktlokation" style="stroke:#181818;stroke-width:1.0;"/><polygon fill="#181818" points="301.21,359.52,306.6426,364.262,313.1093,361.0711,307.6767,356.3291,301.21,359.52" style="stroke:#181818;stroke-width:1.0;"/><text fill="#000000" font-family="sans-serif" font-size="13" lengthAdjust="spacing" textLength="141" x="333.5" y="358.9169">lokationszuordnungen</text><text fill="#000000" font-family="sans-serif" font-size="13" lengthAdjust="spacing" textLength="23" x="308.8975" y="373.2939">0..*</text></g><!--link Lokationszuordnung to Marktlokation--><g id="link_Lokationszuordnung_Marktlokation"><path codeLine="26" d="M248.89,371.51 C275,380.72 303.7,389.18 331,393.85 C407.72,406.97 485.0093,396.8935 545.0293,384.4635 " fill="none" id="Lokationszuordnung-to-Marktlokation" style="stroke:#181818;stroke-width:1.0;"/><polygon fill="#181818" points="556.78,382.03,550.0935,379.3299,545.0293,384.4635,551.7158,387.1637,556.78,382.03" style="stroke:#181818;stroke-width:1.0;"/><text fill="#000000" font-family="sans-serif" font-size="13" lengthAdjust="spacing" textLength="104" x="352" y="389.9169">marktlokationen</text><text fill="#000000" font-family="sans-serif" font-size="13" lengthAdjust="spacing" textLength="23" x="525.9911" y="396.4557">0..*</text></g><!--reverse link Lokationszuordnung to Netzlokation--><g id="link_Lokationszuordnung_Netzlokation"><path codeLine="24" d="M224.4123,377.7733 C257.3323,397.6533 289.64,413.62 331,424.85 C407.81,445.7 499.95,446.04 560.58,443.08 " fill="none" id="Lokationszuordnung-backto-Netzlokation" style="stroke:#181818;stroke-width:1.0;"/><polygon fill="#181818" points="214.14,371.57,217.2084,378.0957,224.4123,377.7733,221.3439,371.2476,214.14,371.57" style="stroke:#181818;stroke-width:1.0;"/><text fill="#000000" font-family="sans-serif" font-size="13" lengthAdjust="spacing" textLength="141" x="333.5" y="420.9169">lokationszuordnungen</text><text fill="#000000" font-family="sans-serif" font-size="13" lengthAdjust="spacing" textLength="23" x="198.892" y="391.1739">0..*</text></g><!--link Lokationszuordnung to Netzlokation--><g id="link_Lokationszuordnung_Netzlokation"><path codeLine="28" d="M190.28,371.48 C222.95,404.95 274.85,450.46 331,469.85 C392.34,491.03 412.47,476.7 477,469.85 C504.76,466.9 523.2476,463.6496 549.1476,457.6696 " fill="none" id="Lokationszuordnung-to-Netzlokation" style="stroke:#181818;stroke-width:1.0;"/><polygon fill="#181818" points="560.84,454.97,554.0939,452.4224,549.1476,457.6696,555.8937,460.2173,560.84,454.97" style="stroke:#181818;stroke-width:1.0;"/><text fill="#000000" font-family="sans-serif" font-size="13" lengthAdjust="spacing" textLength="94" x="357" y="465.9169">netzlokationen</text><text fill="#000000" font-family="sans-serif" font-size="13" lengthAdjust="spacing" textLength="23" x="529.8313" y="469.5828">0..*</text></g><!--link Lokationszuordnung to Geschaeftsobjekt--><g id="link_Lokationszuordnung_Geschaeftsobjekt"><path codeLine="25" d="M185.47,371.37 C217.23,409.23 270.71,464.27 331,489.85 C400.36,519.28 469.1636,522.7918 530.5936,519.6418 " fill="none" id="Lokationszuordnung-to-Geschaeftsobjekt" style="stroke:#181818;stroke-width:1.0;"/><polygon fill="none" points="548.57,518.72,530.2864,513.6497,530.9009,525.6339,548.57,518.72" style="stroke:#181818;stroke-width:1.0;"/></g><!--link Lokationszuordnung to Zeitspanne--><g id="link_Lokationszuordnung_Zeitspanne"><path codeLine="31" d="M177.31,371.39 C206.46,419.42 261.99,499.48 331,543.85 C401.08,588.9 484.2709,607.1627 547.3209,615.7927 " fill="none" id="Lokationszuordnung-to-Zeitspanne" style="stroke:#181818;stroke-width:1.0;"/><polygon fill="#181818" points="559.21,617.42,553.8079,612.6433,547.3209,615.7927,552.723,620.5694,559.21,617.42" style="stroke:#181818;stroke-width:1.0;"/><text fill="#000000" font-family="sans-serif" font-size="13" lengthAdjust="spacing" textLength="66" x="371" y="539.9169">gueltigkeit</text><text fill="#000000" font-family="sans-serif" font-size="13" lengthAdjust="spacing" textLength="24" x="527.605" y="629.5953">0..1</text></g><!--SRC=[hLPDRvj043s7Np6oRvO0MuhI2BMHaZJgfKsbDgUwFl0nWQtnBc87LN7R_zur2NWnOoKMt7XFEuyto-nRSdma80MbI3E2H9GOar3ISU8yr1ecosL6LEZ0zoDrZbugAAiYJoZ_vklvdLiyKQQaduU4clom4C-h8kLbjCcd3SZLEjofwcsboaHMClK-zoZeKwlLJ_bUYoq6Y_dLSR49X9gfXZ_EMGiqFHKGWAOIbdFFMwpW0zmhYSvPgnTLA1FCOvKWk_AVuyXmWxe8OnosCV02LglQ-Wk2wSt5ntVNbplVO-w-iQoR9hql5W0Ri7jjbzPMxOfnNMh22iieBB4qxr1L6QFtlUM-DHmm76kTqQixOEh7ROGmpgJGSMOryj1o-qOOZcs4qQiROUf7dfkmNDD-S6m47SIFZhtYUNPiPboh4cdREhst0DY0zMcNrZRjYd5TfcY-LcW2Lwle5wx9-tH0m271EZwKgLqVLfgq6XfMiTfOQMMG7LS6mlHkVdrvSJiqhvhtJ5kqHK76kPJe_MWVOV_OtvPkLMrpltoNtDo5Cp7nFfl0p7MXoU1kFWRGlsnGlbcBYw-1aboG39Ji7ko1OfspTuAMw_wzQaLwiynLc99PO-5OAvqCEl9cLgSx1FOjU8BAmLxOGNE22l_5gS- -NPAVIzrdNv5SJDeiiCzf06c5EObqRJZ7oOJvdzhW9i9IEpfJlu4JVHIO9_e_]--></g></svg>