<?plantuml 1.2026.1?><svg xmlns="http://www.w3.org/2000/svg" xmlns:xlink="http://www.w3.org/1999/xlink" contentStyleType="text/css" data-diagram-type="CLASS" height="595px" preserveAspectRatio="none" style="width:810px;height:595px;background:#FFFFFF;" version="1.1" viewBox="0 0 810 595" width="810px" zoomAndPan="magnify"><defs/><g><!--cluster bo4e--><g class="cluster" data-qualified-name="bo4e" data-source-line="12" id="ent0005"><path d="M542.73,27.5659 L582.606,27.5659 A3.75,3.75 0 0 1 585.106,30.0659 L592.106,49.8628 L801.14,49.8628 A2.5,2.5 0 0 1 803.64,52.3628 L803.64,586.0659 A2.5,2.5 0 0 1 801.14,588.5659 L542.73,588.5659 A2.5,2.5 0 0 1 540.23,586.0659 L540.23,30.0659 A2.5,2.5 0 0 1 542.73,27.5659" fill="none" style="stroke:#000000;stroke-width:1.5;"/><line style="stroke:#000000;stroke-width:1.5;" x1="540.23" x2="592.106" y1="49.8628" y2="49.8628"/><text fill="#000000" font-family="sans-serif" font-size="14" font-weight="bold" lengthAdjust="spacing" textLength="38.876" x="544.23" y="42.561">bo4e</text></g><!--cluster bo--><g class="cluster" data-qualified-name="bo4e.bo" data-source-line="11" id="ent0003"><path d="M566.73,70.5659 L631.564,70.5659 A3.75,3.75 0 0 1 634.064,73.0659 L641.064,92.8628 L777.14,92.8628 A2.5,2.5 0 0 1 779.64,95.3628 L779.64,449.0659 A2.5,2.5 0 0 1 777.14,451.5659 L566.73,451.5659 A2.5,2.5 0 0 1 564.23,449.0659 L564.23,73.0659 A2.5,2.5 0 0 1 566.73,70.5659" fill="#B6D7A8" style="stroke:#000000;stroke-width:1.5;"/><line style="stroke:#000000;stroke-width:1.5;" x1="564.23" x2="641.064" y1="92.8628" y2="92.8628"/><text fill="#000000" font-family="sans-serif" font-size="14" font-weight="bold" lengthAdjust="spacing" textLength="63.834" x="568.23" y="85.561">bo4e.bo</text></g><!--cluster com--><g class="cluster" data-qualified-name="bo4e.com" data-source-line="66" id="ent0010"><path d="M607.16,475.5659 L684.8592,475.5659 A3.75,3.75 0 0 1 687.3592,478.0659 L694.3592,497.8628 L736.71,497.8628 A2.5,2.5 0 0 1 739.21,500.3628 L739.21,562.0659 A2.5,2.5 0 0 1 736.71,564.5659 L607.16,564.5659 A2.5,2.5 0 0 1 604.66,562.0659 L604.66,478.0659 A2.5,2.5 0 0 1 607.16,475.5659" fill="#E0A86C" style="stroke:#000000;stroke-width:1.5;"/><line style="stroke:#000000;stroke-width:1.5;" x1="604.66" x2="694.3592" y1="497.8628" y2="497.8628"/><text fill="#000000" font-family="sans-serif" font-size="14" font-weight="bold" lengthAdjust="spacing" textLength="76.6992" x="608.66" y="490.561">bo4e.com</text></g><!--class Marktlokation--><g class="entity" data-qualified-name="bo4e.bo.Marktlokation" data-source-line="12" id="ent0004"><rect fill="#F1F1F1" height="37.9375" rx="2.5" ry="2.5" style="stroke:#181818;stroke-width:0.5;" width="127.9697" x="607.95" y="105.5959"/><ellipse cx="622.95" cy="124.5647" fill="#ADD1B2" rx="11" ry="11" style="stroke:#181818;stroke-width:1;"/><path d="M625.9188,130.2053 Q625.3406,130.5022 624.7,130.6428 Q624.0594,130.799 623.3563,130.799 Q620.8563,130.799 619.5281,129.1584 Q618.2156,127.5022 618.2156,124.3772 Q618.2156,121.2522 619.5281,119.5959 Q620.8563,117.9397 623.3563,117.9397 Q624.0594,117.9397 624.7,118.0959 Q625.3563,118.2522 625.9188,118.549 L625.9188,121.2678 Q625.2938,120.6897 624.7,120.424 Q624.1063,120.1428 623.4813,120.1428 Q622.1375,120.1428 621.45,121.2209 Q620.7625,122.2834 620.7625,124.3772 Q620.7625,126.4709 621.45,127.549 Q622.1375,128.6115 623.4813,128.6115 Q624.1063,128.6115 624.7,128.3459 Q625.2938,128.0647 625.9188,127.4865 L625.9188,130.2053 Z " fill="#000000"/><a href="https://bo4e.github.io/BO4E-python/latest/api/bo.Marktlokation.html" target="_top" title="https://bo4e.github.io/BO4E-python/latest/api/bo.Marktlokation.html" xlink:actuate="onRequest" xlink:href="https://bo4e.github.io/BO4E-python/latest/api/bo.Marktlokation.html" xlink:show="new" xlink:title="https://bo4e.github.io/BO4E-python/latest/api/bo.Marktlokation.html" xlink:type="simple"><text fill="#0000FF" font-family="sans-serif" font-size="14" lengthAdjust="spacing" text-decoration="underline" textLength="95.9697" x="636.95" y="123.591">Marktlokation</text></a><text fill="#000000" font-family="sans-serif" font-size="10" lengthAdjust="spacing" textLength="84.1943" x="642.8377" y="136.175">bo.Marktlokation</text></g><!--class Messlokation--><g class="entity" data-qualified-name="bo4e.bo.Messlokation" data-source-line="25" id="ent0006"><rect fill="#F1F1F1" height="37.9375" rx="2.5" ry="2.5" style="stroke:#181818;stroke-width:0.5;" width="123.2393" x="610.31" y="178.5959"/><ellipse cx="625.31" cy="197.5647" fill="#ADD1B2" rx="11" ry="11" style="stroke:#181818;stroke-width:1;"/><path d="M628.2788,203.2053 Q627.7006,203.5022 627.06,203.6428 Q626.4194,203.799 625.7163,203.799 Q623.2163,203.799 621.8881,202.1584 Q620.5756,200.5022 620.5756,197.3772 Q620.5756,194.2522 621.8881,192.5959 Q623.2163,190.9397 625.7163,190.9397 Q626.4194,190.9397 627.06,191.0959 Q627.7163,191.2522 628.2788,191.549 L628.2788,194.2678 Q627.6538,193.6897 627.06,193.424 Q626.4663,193.1428 625.8413,193.1428 Q624.4975,193.1428 623.81,194.2209 Q623.1225,195.2834 623.1225,197.3772 Q623.1225,199.4709 623.81,200.549 Q624.4975,201.6115 625.8413,201.6115 Q626.4663,201.6115 627.06,201.3459 Q627.6538,201.0647 628.2788,200.4865 L628.2788,203.2053 Z " fill="#000000"/><a href="https://bo4e.github.io/BO4E-python/latest/api/bo.Messlokation.html" target="_top" title="https://bo4e.github.io/BO4E-python/latest/api/bo.Messlokation.html" xlink:actuate="onRequest" xlink:href="https://bo4e.github.io/BO4E-python/latest/api/bo.Messlokation.html" xlink:show="new" xlink:title="https://bo4e.github.io/BO4E-python/latest/api/bo.Messlokation.html" xlink:type="simple"><text fill="#0000FF" font-family="sans-serif" font-size="14" lengthAdjust="spacing" text-decoration="underline" textLength="91.2393" x="639.31" y="196.591">Messlokation</text></a><text fill="#000000" font-family="sans-serif" font-size="10" lengthAdjust="spacing" textLength="80.8154" x="644.5219" y="209.175">bo.Messlokation</text></g><!--class Netzlokation--><g class="entity" data-qualified-name="bo4e.bo.Netzlokation" data-source-line="35" id="ent0007"><rect fill="#F1F1F1" height="37.9375" rx="2.5" ry="2.5" style="stroke:#181818;stroke-width:0.5;" width="119.8828" x="611.99" y="251.5959"/><ellipse cx="626.99" cy="270.5647" fill="#ADD1B2" rx="11" ry="11" style="stroke:#181818;stroke-width:1;"/><path d="M629.9588,276.2053 Q629.3806,276.5022 628.74,276.6428 Q628.0994,276.799 627.3963,276.799 Q624.8963,276.799 623.5681,275.1584 Q622.2556,273.5022 622.2556,270.3772 Q622.2556,267.2522 623.5681,265.5959 Q624.8963,263.9397 627.3963,263.9397 Q628.0994,263.9397 628.74,264.0959 Q629.3963,264.2522 629.9588,264.549 L629.9588,267.2678 Q629.3338,266.6897 628.74,266.424 Q628.1463,266.1428 627.5213,266.1428 Q626.1775,266.1428 625.49,267.2209 Q624.8025,268.2834 624.8025,270.3772 Q624.8025,272.4709 625.49,273.549 Q626.1775,274.6115 627.5213,274.6115 Q628.1463,274.6115 628.74,274.3459 Q629.3338,274.0647 629.9588,273.4865 L629.9588,276.2053 Z " fill="#000000"/><a href="https://bo4e.github.io/BO4E-python/latest/api/bo.Netzlokation.html" target="_top" title="https://bo4e.github.io/BO4E-python/latest/api/bo.Netzlokation.html" xlink:actuate="onRequest" xlink:href="https://bo4e.github.io/BO4E-python/latest/api/bo.Netzlokation.html" xlink:show="new" xlink:title="https://bo4e.github.io/BO4E-python/latest/api/bo.Netzlokation.html" xlink:type="simple"><text fill="#0000FF" font-family="sans-serif" font-size="14" lengthAdjust="spacing" text-decoration="underline" textLength="87.8828" x="640.99" y="269.591">Netzlokation</text></a><text fill="#000000" font-family="sans-serif" font-size="10" lengthAdjust="spacing" textLength="78.418" x="645.7224" y="282.175">bo.Netzlokation</text></g><!--class SteuerbareRessource--><g class="entity" data-qualified-name="bo4e.bo.SteuerbareRessource" data-source-line="45" id="ent0008"><rect fill="#F1F1F1" height="37.9375" rx="2.5" ry="2.5" style="stroke:#181818;stroke-width:0.5;" width="182.5" x="580.68" y="324.5959"/><ellipse cx="595.68" cy="343.5647" fill="#ADD1B2" rx="11" ry="11" style="stroke:#181818;stroke-width:1;"/><path d="M598.6488,349.2053 Q598.0706,349.5022 597.43,349.6428 Q596.7894,349.799 596.0863,349.799 Q593.5863,349.799 592.2581,348.1584 Q590.9456,346.5022 590.9456,343.3772 Q590.9456,340.2522 592.2581,338.5959 Q593.5863,336.9397 596.0863,336.9397 Q596.7894,336.9397 597.43,337.0959 Q598.0863,337.2522 598.6488,337.549 L598.6488,340.2678 Q598.0238,339.6897 597.43,339.424 Q596.8363,339.1428 596.2113,339.1428 Q594.8675,339.1428 594.18,340.2209 Q593.4925,341.2834 593.4925,343.3772 Q593.4925,345.4709 594.18,346.549 Q594.8675,347.6115 596.2113,347.6115 Q596.8363,347.6115 597.43,347.3459 Q598.0238,347.0647 598.6488,346.4865 L598.6488,349.2053 Z " fill="#000000"/><a href="https://bo4e.github.io/BO4E-python/latest/api/bo.SteuerbareRessource.html" target="_top" title="https://bo4e.github.io/BO4E-python/latest/api/bo.SteuerbareRessource.html" xlink:actuate="onRequest" xlink:href="https://bo4e.github.io/BO4E-python/latest/api/bo.SteuerbareRessource.html" xlink:show="new" xlink:title="https://bo4e.github.io/BO4E-python/latest/api/bo.SteuerbareRessource.html" xlink:type="simple"><text fill="#0000FF" font-family="sans-serif" font-size="14" lengthAdjust="spacing" text-decoration="underline" textLength="150.5" x="609.68" y="342.591">SteuerbareRessource</text></a><text fill="#000000" font-family="sans-serif" font-size="10" lengthAdjust="spacing" textLength="123.1445" x="623.3577" y="355.175">bo.SteuerbareRessource</text></g><!--class TechnischeRessource--><g class="entity" data-qualified-name="bo4e.bo.TechnischeRessource" data-source-line="53" id="ent0009"><rect fill="#F1F1F1" height="37.9375" rx="2.5" ry="2.5" style="stroke:#181818;stroke-width:0.5;" width="183.4092" x="580.23" y="397.5959"/><ellipse cx="595.23" cy="416.5647" fill="#ADD1B2" rx="11" ry="11" style="stroke:#181818;stroke-width:1;"/><path d="M598.1988,422.2053 Q597.6206,422.5022 596.98,422.6428 Q596.3394,422.799 595.6363,422.799 Q593.1363,422.799 591.8081,421.1584 Q590.4956,419.5022 590.4956,416.3772 Q590.4956,413.2522 591.8081,411.5959 Q593.1363,409.9397 595.6363,409.9397 Q596.3394,409.9397 596.98,410.0959 Q597.6363,410.2522 598.1988,410.549 L598.1988,413.2678 Q597.5738,412.6897 596.98,412.424 Q596.3863,412.1428 595.7613,412.1428 Q594.4175,412.1428 593.73,413.2209 Q593.0425,414.2834 593.0425,416.3772 Q593.0425,418.4709 593.73,419.549 Q594.4175,420.6115 595.7613,420.6115 Q596.3863,420.6115 596.98,420.3459 Q597.5738,420.0647 598.1988,419.4865 L598.1988,422.2053 Z " fill="#000000"/><a href="https://bo4e.github.io/BO4E-python/latest/api/bo.TechnischeRessource.html" target="_top" title="https://bo4e.github.io/BO4E-python/latest/api/bo.TechnischeRessource.html" xlink:actuate="onRequest" xlink:href="https://bo4e.github.io/BO4E-python/latest/api/bo.TechnischeRessource.html" xlink:show="new" xlink:title="https://bo4e.github.io/BO4E-python/latest/api/bo.TechnischeRessource.html" xlink:type="simple"><text fill="#0000FF" font-family="sans-serif" font-size="14" lengthAdjust="spacing" text-decoration="underline" textLength="151.4092" x="609.23" y="415.591">TechnischeRessource</text></a><text fill="#000000" font-family="sans-serif" font-size="10" lengthAdjust="spacing" textLength="123.7939" x="623.0376" y="428.175">bo.TechnischeRessource</text></g><!--class Zeitraum--><g class="entity" data-qualified-name="bo4e.com.Zeitraum" data-source-line="67" id="ent0011"><rect fill="#F1F1F1" height="37.9375" rx="2.5" ry="2.5" style="stroke:#181818;stroke-width:0.5;" width="102.5566" x="620.66" y="510.5959"/><ellipse cx="635.66" cy="529.5647" fill="#ADD1B2" rx="11" ry="11" style="stroke:#181818;stroke-width:1;"/><path d="M638.6288,535.2053 Q638.0506,535.5022 637.41,535.6428 Q636.7694,535.799 636.0663,535.799 Q633.5663,535.799 632.2381,534.1584 Q630.9256,532.5022 630.9256,529.3772 Q630.9256,526.2522 632.2381,524.5959 Q633.5663,522.9397 636.0663,522.9397 Q636.7694,522.9397 637.41,523.0959 Q638.0663,523.2522 638.6288,523.549 L638.6288,526.2678 Q638.0038,525.6897 637.41,525.424 Q636.8163,525.1428 636.1913,525.1428 Q634.8475,525.1428 634.16,526.2209 Q633.4725,527.2834 633.4725,529.3772 Q633.4725,531.4709 634.16,532.549 Q634.8475,533.6115 636.1913,533.6115 Q636.8163,533.6115 637.41,533.3459 Q638.0038,533.0647 638.6288,532.4865 L638.6288,535.2053 Z " fill="#000000"/><a href="https://bo4e.github.io/BO4E-python/latest/api/com.Zeitraum.html" target="_top" title="https://bo4e.github.io/BO4E-python/latest/api/com.Zeitraum.html" xlink:actuate="onRequest" xlink:href="https://bo4e.github.io/BO4E-python/latest/api/com.Zeitraum.html" xlink:show="new" xlink:title="https://bo4e.github.io/BO4E-python/latest/api/com.Zeitraum.html" xlink:type="simple"><text fill="#0000FF" font-family="sans-serif" font-size="14" lengthAdjust="spacing" text-decoration="underline" textLength="64.4287" x="652.724" y="528.591">Zeitraum</text></a><text fill="#000000" font-family="sans-serif" font-size="10" lengthAdjust="spacing" textLength="70.5566" x="649.66" y="541.175">com.Zeitraum</text></g><!--class Lokationszuordnung--><g class="entity" data-qualified-name="Lokationszuordnung" data-source-line="3" id="ent0002"><rect fill="#F1F1F1" height="127.4219" rx="2.5" ry="2.5" style="stroke:#181818;stroke-width:0.5;" width="339.2295" x="7" y="222.8559"/><ellipse cx="101.3154" cy="241.8247" fill="#ADD1B2" rx="11" ry="11" style="stroke:#181818;stroke-width:1;"/><path d="M104.2842,247.4653 Q103.7061,247.7622 103.0654,247.9028 Q102.4248,248.059 101.7217,248.059 Q99.2217,248.059 97.8936,246.4184 Q96.5811,244.7622 96.5811,241.6372 Q96.5811,238.5122 97.8936,236.8559 Q99.2217,235.1997 101.7217,235.1997 Q102.4248,235.1997 103.0654,235.3559 Q103.7217,235.5122 104.2842,235.809 L104.2842,238.5278 Q103.6592,237.9497 103.0654,237.684 Q102.4717,237.4028 101.8467,237.4028 Q100.5029,237.4028 99.8154,238.4809 Q99.1279,239.5434 99.1279,241.6372 Q99.1279,243.7309 99.8154,244.809 Q100.5029,245.8715 101.8467,245.8715 Q102.4717,245.8715 103.0654,245.6059 Q103.6592,245.3247 104.2842,244.7465 L104.2842,247.4653 Z " fill="#000000"/><a href="https://bo4e.github.io/BO4E-python/latest/api/bo.Lokationszuordnung.html" target="_top" title="https://bo4e.github.io/BO4E-python/latest/api/bo.Lokationszuordnung.html" xlink:actuate="onRequest" xlink:href="https://bo4e.github.io/BO4E-python/latest/api/bo.Lokationszuordnung.html" xlink:show="new" xlink:title="https://bo4e.github.io/BO4E-python/latest/api/bo.Lokationszuordnung.html" xlink:type="simple"><text fill="#0000FF" font-family="sans-serif" font-size="14" lengthAdjust="spacing" text-decoration="underline" textLength="142.0986" x="121.8154" y="240.851">Lokationszuordnung</text></a><text fill="#000000" font-family="sans-serif" font-size="10" lengthAdjust="spacing" textLength="117.1436" x="134.293" y="253.435">bo.Lokationszuordnung</text><line style="stroke:#181818;stroke-width:0.5;" x1="8" x2="345.2295" y1="260.7934" y2="260.7934"/><text fill="#000000" font-family="sans-serif" font-size="14" lengthAdjust="spacing" textLength="94.0215" x="13" y="277.7885">_id : str [0..1]</text><text fill="#000000" font-family="sans-serif" font-size="14" lengthAdjust="spacing" textLength="327.2295" x="13" y="294.0854">_typ : Literal["LOKATIONSZUORDNUNG"] [0..1]</text><text fill="#000000" font-family="sans-serif" font-size="14" lengthAdjust="spacing" textLength="132.5215" x="13" y="310.3823">_version : str [0..1]</text><text fill="#000000" font-family="sans-serif" font-size="14" lengthAdjust="spacing" textLength="227.8965" x="13" y="326.6792">lokationsbuendelcode : str [0..1]</text><text fill="#000000" font-family="sans-serif" font-size="14" lengthAdjust="spacing" textLength="179.1357" x="13" y="342.976">zuordnungstyp : str [0..1]</text></g><!--link Lokationszuordnung to Marktlokation--><g class="link" data-entity-1="ent0002" data-entity-2="ent0004" data-link-type="composition" data-source-line="79" id="lnk12"><path codeLine="79" d="M208.25,222.4559 C240.66,162.9059 297.98,77.9559 376.23,40.5659 C435.58,12.2059 460.66,23.6559 524.23,40.5659 C571.17,53.0559 609.1051,77.3392 636.8651,98.0092" fill="none" id="Lokationszuordnung-to-Marktlokation" style="stroke:#181818;stroke-width:1;"/><polygon fill="#181818" points="646.49,105.1759,644.0664,98.3843,636.8651,98.0092,639.2887,104.8009,646.49,105.1759" style="stroke:#181818;stroke-width:1;"/><text fill="#000000" font-family="sans-serif" font-size="13" lengthAdjust="spacing" textLength="106.7993" x="397.23" y="19.6328">marktlokationen</text><text fill="#000000" font-family="sans-serif" font-size="13" lengthAdjust="spacing" textLength="23.0356" x="612.6427" y="94.3637">0..*</text></g><!--link Marktlokation to Lokationszuordnung--><g class="link" data-entity-1="ent0004" data-entity-2="ent0002" data-link-type="composition" data-source-line="85" id="lnk18"><path codeLine="85" d="M607.48,109.1859 C546.24,97.4159 451.93,87.4659 376.23,115.5659 C318.64,136.9359 274.7364,174.5426 238.3664,213.6126" fill="none" id="Marktlokation-to-Lokationszuordnung" style="stroke:#181818;stroke-width:1;"/><polygon fill="#181818" points="230.19,222.3959,237.206,220.7297,238.3664,213.6126,231.3504,215.2788,230.19,222.3959" style="stroke:#181818;stroke-width:1;"/><text fill="#000000" font-family="sans-serif" font-size="13" lengthAdjust="spacing" textLength="144.5552" x="378.23" y="93.6328">lokationszuordnungen</text><text fill="#000000" font-family="sans-serif" font-size="13" lengthAdjust="spacing" textLength="23.0356" x="211.7939" y="211.6311">0..*</text></g><!--link Lokationszuordnung to Messlokation--><g class="link" data-entity-1="ent0002" data-entity-2="ent0006" data-link-type="composition" data-source-line="80" id="lnk13"><path codeLine="80" d="M251.44,222.3759 C286.72,195.8759 331.05,168.2159 376.23,154.5659 C439.2,135.5459 461.83,133.7659 524.23,154.5659 C528.45,155.9759 528.23,158.6259 532.23,160.5659 C556.55,172.3759 573.4939,178.0992 598.3939,183.9092" fill="none" id="Lokationszuordnung-to-Messlokation" style="stroke:#181818;stroke-width:1;"/><polygon fill="#181818" points="610.08,186.6359,605.1459,181.3772,598.3939,183.9092,603.328,189.1679,610.08,186.6359" style="stroke:#181818;stroke-width:1;"/><text fill="#000000" font-family="sans-serif" font-size="13" lengthAdjust="spacing" textLength="102.4067" x="399.23" y="136.6328">messlokationen</text><text fill="#000000" font-family="sans-serif" font-size="13" lengthAdjust="spacing" textLength="23.0356" x="579.0593" y="198.3351">0..*</text></g><!--link Messlokation to Lokationszuordnung--><g class="link" data-entity-1="ent0006" data-entity-2="ent0002" data-link-type="composition" data-source-line="86" id="lnk19"><path codeLine="86" d="M610.06,205.6559 C550.33,213.8759 456.74,227.5159 376.23,242.5659 C366.51,244.3859 368.3024,243.95 358.2524,245.98" fill="none" id="Messlokation-to-Lokationszuordnung" style="stroke:#181818;stroke-width:1;"/><polygon fill="#181818" points="346.49,248.3559,353.1632,251.0888,358.2524,245.98,351.5793,243.2472,346.49,248.3559" style="stroke:#181818;stroke-width:1;"/><text fill="#000000" font-family="sans-serif" font-size="13" lengthAdjust="spacing" textLength="144.5552" x="378.23" y="214.6328">lokationszuordnungen</text><text fill="#000000" font-family="sans-serif" font-size="13" lengthAdjust="spacing" textLength="23.0356" x="354.1425" y="259.13">0..*</text></g><!--link Lokationszuordnung to Netzlokation--><g class="link" data-entity-1="ent0002" data-entity-2="ent0007" data-link-type="composition" data-source-line="81" id="lnk14"><path codeLine="81" d="M346.58,270.2059 C356.6,269.5659 366.54,269.0059 376.23,268.5659 C441.94,265.5959 458.45,268.1159 524.23,268.5659 C553.01,268.7659 572.9713,268.9963 599.6913,269.3963" fill="none" id="Lokationszuordnung-to-Netzlokation" style="stroke:#181818;stroke-width:1;"/><polygon fill="#181818" points="611.69,269.5759,605.7505,265.4866,599.6913,269.3963,605.6308,273.4857,611.69,269.5759" style="stroke:#181818;stroke-width:1;"/><text fill="#000000" font-family="sans-serif" font-size="13" lengthAdjust="spacing" textLength="96.3574" x="402.23" y="263.6328">netzlokationen</text><text fill="#000000" font-family="sans-serif" font-size="13" lengthAdjust="spacing" textLength="23.0356" x="580.8452" y="282.3622">0..*</text></g><!--link Netzlokation to Lokationszuordnung--><g class="link" data-entity-1="ent0007" data-entity-2="ent0002" data-link-type="composition" data-source-line="87" id="lnk20"><path codeLine="87" d="M611.58,282.0159 C584.98,286.5959 553.15,291.3159 524.23,293.5659 C466.47,298.0659 415.1452,298.5354 358.6052,296.9354" fill="none" id="Netzlokation-to-Lokationszuordnung" style="stroke:#181818;stroke-width:1;"/><polygon fill="#181818" points="346.61,296.5959,352.4945,300.764,358.6052,296.9354,352.7207,292.7672,346.61,296.5959" style="stroke:#181818;stroke-width:1;"/><text fill="#000000" font-family="sans-serif" font-size="13" lengthAdjust="spacing" textLength="144.5552" x="378.23" y="289.6328">lokationszuordnungen</text><text fill="#000000" font-family="sans-serif" font-size="13" lengthAdjust="spacing" textLength="23.0356" x="354.2676" y="309.4051">0..*</text></g><!--link Lokationszuordnung to SteuerbareRessource--><g class="link" data-entity-1="ent0002" data-entity-2="ent0008" data-link-type="composition" data-source-line="82" id="lnk15"><path codeLine="82" d="M346.72,318.4959 C356.69,319.9759 366.58,321.3559 376.23,322.5659 C444.42,331.1459 509.9874,335.8599 568.4174,339.0099" fill="none" id="Lokationszuordnung-to-SteuerbareRessource" style="stroke:#181818;stroke-width:1;"/><polygon fill="#181818" points="580.4,339.6559,574.624,335.3387,568.4174,339.0099,574.1934,343.3271,580.4,339.6559" style="stroke:#181818;stroke-width:1;"/><text fill="#000000" font-family="sans-serif" font-size="13" lengthAdjust="spacing" textLength="146.5103" x="377.23" y="318.6328">steuerbareRessourcen</text><text fill="#000000" font-family="sans-serif" font-size="13" lengthAdjust="spacing" textLength="23.0356" x="549.5131" y="352.0029">0..*</text></g><!--link SteuerbareRessource to Lokationszuordnung--><g class="link" data-entity-1="ent0008" data-entity-2="ent0002" data-link-type="composition" data-source-line="88" id="lnk21"><path codeLine="88" d="M580.3,360.2959 C521.67,368.3659 443.93,373.9259 376.23,361.5659 C361.45,358.8659 357.8659,358.4998 342.9159,354.1198" fill="none" id="SteuerbareRessource-to-Lokationszuordnung" style="stroke:#181818;stroke-width:1;"/><polygon fill="#181818" points="331.4,350.7459,336.0333,356.2715,342.9159,354.1198,338.2826,348.5942,331.4,350.7459" style="stroke:#181818;stroke-width:1;"/><text fill="#000000" font-family="sans-serif" font-size="13" lengthAdjust="spacing" textLength="144.5552" x="378.23" y="357.6328">lokationszuordnungen</text><text fill="#000000" font-family="sans-serif" font-size="13" lengthAdjust="spacing" textLength="23.0356" x="323.1781" y="370.2116">0..*</text></g><!--link Lokationszuordnung to TechnischeRessource--><g class="link" data-entity-1="ent0002" data-entity-2="ent0009" data-link-type="composition" data-source-line="83" id="lnk16"><path codeLine="83" d="M276.08,350.7559 C306.96,367.9159 341.97,384.4759 376.23,394.5659 C442.55,414.0859 508.7103,419.0707 567.8603,419.4907" fill="none" id="Lokationszuordnung-to-TechnischeRessource" style="stroke:#181818;stroke-width:1;"/><polygon fill="#181818" points="579.86,419.5759,573.8886,415.5334,567.8603,419.4907,573.8317,423.5332,579.86,419.5759" style="stroke:#181818;stroke-width:1;"/><text fill="#000000" font-family="sans-serif" font-size="13" lengthAdjust="spacing" textLength="145.9897" x="377.73" y="390.6328">technischeRessourcen</text><text fill="#000000" font-family="sans-serif" font-size="13" lengthAdjust="spacing" textLength="23.0356" x="549.255" y="432.4196">0..*</text></g><!--link TechnischeRessource to Lokationszuordnung--><g class="link" data-entity-1="ent0009" data-entity-2="ent0002" data-link-type="composition" data-source-line="89" id="lnk22"><path codeLine="89" d="M611.02,435.9659 C550.2,452.4459 454.14,469.5059 376.23,442.5659 C322.98,424.1559 281.8629,393.1673 245.4229,358.6573" fill="none" id="TechnischeRessource-to-Lokationszuordnung" style="stroke:#181818;stroke-width:1;"/><polygon fill="#181818" points="236.71,350.4059,238.316,357.4359,245.4229,358.6573,243.8169,351.6273,236.71,350.4059" style="stroke:#181818;stroke-width:1;"/><text fill="#000000" font-family="sans-serif" font-size="13" lengthAdjust="spacing" textLength="144.5552" x="378.23" y="438.6328">lokationszuordnungen</text><text fill="#000000" font-family="sans-serif" font-size="13" lengthAdjust="spacing" textLength="23.0356" x="219.0271" y="370.2828">0..*</text></g><!--link Lokationszuordnung to Zeitraum--><g class="link" data-entity-1="ent0002" data-entity-2="ent0011" data-link-type="composition" data-source-line="84" id="lnk17"><path codeLine="84" d="M224.56,350.5459 C260.84,394.9959 315.07,451.6159 376.23,482.5659 C454.93,522.3959 547.3007,529.9082 608.3807,530.5582" fill="none" id="Lokationszuordnung-to-Zeitraum" style="stroke:#181818;stroke-width:1;"/><polygon fill="#181818" points="620.38,530.6859,614.4229,526.6223,608.3807,530.5582,614.3378,534.6218,620.38,530.6859" style="stroke:#181818;stroke-width:1;"/><text fill="#000000" font-family="sans-serif" font-size="13" lengthAdjust="spacing" textLength="69.2974" x="415.73" y="478.6328">gueltigkeit</text><text fill="#000000" font-family="sans-serif" font-size="13" lengthAdjust="spacing" textLength="24.8066" x="587.8935" y="543.9202">0..1</text></g><?plantuml-src jPTjJzim4CVVvrDOuHqIBKY8eMYQL4esAcWhfUsRTjNa94VYDR4hss4Y4zzzJa8X3ouXXS4RSdU-i_-_ymCHt4ia6U8a22No2GTF4aODmukm4CXShK8fjyBgzrrs3hs0o31nUuJrhwRdzidsKOQCzYCiGSW-tX8LrRjZ6vpb46d2k4yJ6lH26KUeQL-lVzAlWgHWdPr-quuq4HQQWUYlWTJFB-8Z2md9qUgqrpjR5qRvk5NMEoA1usXbtarl1_FHT39RBgREzMGn-M6kA_4Fm8NAtimKxUgw2L0V8e_vq8nwcPGe2fVSJuP1SGnYYpr0PYwWo_8bFV-DZgukhhyCBf_NSxZcOymtSZVVGkwAgQvqnPdFg6BfekzuuDpEToA_LrgNH9Yc17YcMm0k0TaC2fJNpr8m7W3FrAUydTBK_GqRgMSLPulSLoukAo16cgLJaAaBaWDnzyyd2ofA29sRGm1HoYZKM-M33G12rFYNB0ty9Lz1lsJe1D-UpRgopx6cYP1OyIAAx5YumprYwc99FFoCLb0hBZ3fCiKbFHgjy55M4zKXLLPbIvrLsPUpAXkwi9hOy-N_PDL5VLfQWtQhCPU83L2QuZ1gUeM41FW6KvmvNSQYps8popExc8EZMe0bt8C2aSPH9wK9oO5fx5supURsmdQk1exjgDqsNJX3-z0Rx2qaeZbB7PWq2I2xy432hXUIE0R-kLja3bv8YV32EWQDeuv14v9ZqDYxO9ZRmvl9Q3QywOw12FaTE5MbSIILmhMUVGvPK5N9LG-mK1_I1QPihbK7yo6xMIEizhMYMJhosi2NRygMs5bxMpsft_exoMFnwqD9VQ0Z-tHmUJ7ys4j99UejWKYEaxZefzrNfOdAOVaiTXzT-cLfZ-REO35-RvFuE07DgQfG-rYgqfQAa51p9I5FrToKKv8OgjiPSxblPExKZyrW69eNzyd9CJ9LoB5PUofQrOSJqBRHvQU6LRbfMyTMhZwhSekqZjMTmfRkr6jBf3j7BDsEUpFHcVdQLHOA4eWa2JRAObJbBHNMPBDUJuKNewfRqVYW31Mb3ygWq_kWH3gz3qfaX4ITbJ74wlKk316oFqZpBoUw9n3vuXy0?></g></svg>