<svg xmlns="http://www.w3.org/2000/svg" xmlns:xlink="http://www.w3.org/1999/xlink" contentStyleType="text/css" data-diagram-type="CLASS" height="501px" preserveAspectRatio="none" style="width:1137px;height:501px;background:#FFFFFF;" version="1.1" viewBox="0 0 1137 501" width="1137px" zoomAndPan="magnify"><defs/><g><!--cluster bo4e--><g class="cluster" data-entity="bo4e" data-source-line="10" data-uid="ent0005" id="cluster_bo4e"><path d="M885.46,6 L925.336,6 A3.75,3.75 0 0 1 927.836,8.5 L934.836,28.2969 L1127.86,28.2969 A2.5,2.5 0 0 1 1130.36,30.7969 L1130.36,491.5 A2.5,2.5 0 0 1 1127.86,494 L885.46,494 A2.5,2.5 0 0 1 882.96,491.5 L882.96,8.5 A2.5,2.5 0 0 1 885.46,6" fill="none" style="stroke:#000000;stroke-width:1.5;"/><line style="stroke:#000000;stroke-width:1.5;" x1="882.96" x2="934.836" y1="28.2969" y2="28.2969"/><text fill="#000000" font-family="sans-serif" font-size="14" font-weight="bold" lengthAdjust="spacing" textLength="38.876" x="886.96" y="20.9951">bo4e</text></g><!--cluster bo--><g class="cluster" data-entity="bo" data-source-line="9" data-uid="ent0003" id="cluster_bo"><path d="M909.46,49 L974.294,49 A3.75,3.75 0 0 1 976.794,51.5 L983.794,71.2969 L1103.86,71.2969 A2.5,2.5 0 0 1 1106.36,73.7969 L1106.36,208.5 A2.5,2.5 0 0 1 1103.86,211 L909.46,211 A2.5,2.5 0 0 1 906.96,208.5 L906.96,51.5 A2.5,2.5 0 0 1 909.46,49" fill="#B6D7A8" style="stroke:#000000;stroke-width:1.5;"/><line style="stroke:#000000;stroke-width:1.5;" x1="906.96" x2="983.794" y1="71.2969" y2="71.2969"/><a href="file:////home/runner/work/BO4E-python/BO4E-python/docs/../.tox/docs/tmp/html/api/bo4e.bo.html" target="_top" title="file:////home/runner/work/BO4E-python/BO4E-python/docs/../.tox/docs/tmp/html/api/bo4e.bo.html" xlink:actuate="onRequest" xlink:href="file:////home/runner/work/BO4E-python/BO4E-python/docs/../.tox/docs/tmp/html/api/bo4e.bo.html" xlink:show="new" xlink:title="file:////home/runner/work/BO4E-python/BO4E-python/docs/../.tox/docs/tmp/html/api/bo4e.bo.html" xlink:type="simple"><text fill="#0000FF" font-family="sans-serif" font-size="14" font-weight="bold" lengthAdjust="spacing" text-decoration="underline" textLength="63.834" x="910.96" y="63.9951">bo4e.bo</text></a></g><!--cluster enum--><g class="cluster" data-entity="enum" data-source-line="13" data-uid="ent0007" id="cluster_enum"><path d="M912.92,235 L1002.1309,235 A3.75,3.75 0 0 1 1004.6309,237.5 L1011.6309,257.2969 L1100.4,257.2969 A2.5,2.5 0 0 1 1102.9,259.7969 L1102.9,467.5 A2.5,2.5 0 0 1 1100.4,470 L912.92,470 A2.5,2.5 0 0 1 910.42,467.5 L910.42,237.5 A2.5,2.5 0 0 1 912.92,235" fill="#D1C358" style="stroke:#000000;stroke-width:1.5;"/><line style="stroke:#000000;stroke-width:1.5;" x1="910.42" x2="1011.6309" y1="257.2969" y2="257.2969"/><a href="file:////home/runner/work/BO4E-python/BO4E-python/docs/../.tox/docs/tmp/html/api/bo4e.enum.html" target="_top" title="file:////home/runner/work/BO4E-python/BO4E-python/docs/../.tox/docs/tmp/html/api/bo4e.enum.html" xlink:actuate="onRequest" xlink:href="file:////home/runner/work/BO4E-python/BO4E-python/docs/../.tox/docs/tmp/html/api/bo4e.enum.html" xlink:show="new" xlink:title="file:////home/runner/work/BO4E-python/BO4E-python/docs/../.tox/docs/tmp/html/api/bo4e.enum.html" xlink:type="simple"><text fill="#0000FF" font-family="sans-serif" font-size="14" font-weight="bold" lengthAdjust="spacing" text-decoration="underline" textLength="88.2109" x="914.42" y="249.9951">bo4e.enum</text></a></g><!--class Geschaeftsobjekt--><g class="entity" data-entity="Geschaeftsobjekt" data-source-line="10" data-uid="ent0004" id="entity_Geschaeftsobjekt"><rect fill="#F1F1F1" height="37.9375" rx="2.5" ry="2.5" style="stroke:#181818;stroke-width:0.5;" width="161.3896" x="925.97" y="84.03"/><ellipse cx="940.97" cy="102.9987" fill="#ADD1B2" rx="11" ry="11" style="stroke:#181818;stroke-width:1;"/><path d="M943.9388,108.6394 Q943.3606,108.9362 942.72,109.0769 Q942.0794,109.2331 941.3763,109.2331 Q938.8763,109.2331 937.5481,107.5925 Q936.2356,105.9362 936.2356,102.8112 Q936.2356,99.6862 937.5481,98.03 Q938.8763,96.3737 941.3763,96.3737 Q942.0794,96.3737 942.72,96.53 Q943.3763,96.6862 943.9388,96.9831 L943.9388,99.7019 Q943.3138,99.1237 942.72,98.8581 Q942.1263,98.5769 941.5013,98.5769 Q940.1575,98.5769 939.47,99.655 Q938.7825,100.7175 938.7825,102.8112 Q938.7825,104.905 939.47,105.9831 Q940.1575,107.0456 941.5013,107.0456 Q942.1263,107.0456 942.72,106.78 Q943.3138,106.4987 943.9388,105.9206 L943.9388,108.6394 Z " fill="#000000"/><a href="file:////home/runner/work/BO4E-python/BO4E-python/docs/../.tox/docs/tmp/html/api/bo4e.bo.html#bo4e.bo.geschaeftsobjekt.Geschaeftsobjekt" target="_top" title="file:////home/runner/work/BO4E-python/BO4E-python/docs/../.tox/docs/tmp/html/api/bo4e.bo.html#bo4e.bo.geschaeftsobjekt.Geschaeftsobjekt" xlink:actuate="onRequest" xlink:href="file:////home/runner/work/BO4E-python/BO4E-python/docs/../.tox/docs/tmp/html/api/bo4e.bo.html#bo4e.bo.geschaeftsobjekt.Geschaeftsobjekt" xlink:show="new" xlink:title="file:////home/runner/work/BO4E-python/BO4E-python/docs/../.tox/docs/tmp/html/api/bo4e.bo.html#bo4e.bo.geschaeftsobjekt.Geschaeftsobjekt" xlink:type="simple"><text fill="#0000FF" font-family="sans-serif" font-size="14" lengthAdjust="spacing" text-decoration="underline" textLength="121.7822" x="958.7737" y="102.0251">Geschaeftsobjekt</text></a><text fill="#000000" font-family="sans-serif" font-size="10" lengthAdjust="spacing" textLength="129.3896" x="954.97" y="114.6091">bo4e.bo.geschaeftsobjekt</text></g><!--class Geschaeftspartner--><g class="entity" data-entity="Geschaeftspartner" data-source-line="11" data-uid="ent0006" id="entity_Geschaeftspartner"><rect fill="#F1F1F1" height="37.9375" rx="2.5" ry="2.5" style="stroke:#181818;stroke-width:0.5;" width="167.3906" x="922.96" y="157.03"/><ellipse cx="937.96" cy="175.9987" fill="#ADD1B2" rx="11" ry="11" style="stroke:#181818;stroke-width:1;"/><path d="M940.9288,181.6394 Q940.3506,181.9362 939.71,182.0769 Q939.0694,182.2331 938.3663,182.2331 Q935.8663,182.2331 934.5381,180.5925 Q933.2256,178.9362 933.2256,175.8112 Q933.2256,172.6862 934.5381,171.03 Q935.8663,169.3737 938.3663,169.3737 Q939.0694,169.3737 939.71,169.53 Q940.3663,169.6862 940.9288,169.9831 L940.9288,172.7019 Q940.3038,172.1237 939.71,171.8581 Q939.1163,171.5769 938.4913,171.5769 Q937.1475,171.5769 936.46,172.655 Q935.7725,173.7175 935.7725,175.8112 Q935.7725,177.905 936.46,178.9831 Q937.1475,180.0456 938.4913,180.0456 Q939.1163,180.0456 939.71,179.78 Q940.3038,179.4987 940.9288,178.9206 L940.9288,181.6394 Z " fill="#000000"/><a href="file:////home/runner/work/BO4E-python/BO4E-python/docs/../.tox/docs/tmp/html/api/bo4e.bo.html#bo4e.bo.geschaeftspartner.Geschaeftspartner" target="_top" title="file:////home/runner/work/BO4E-python/BO4E-python/docs/../.tox/docs/tmp/html/api/bo4e.bo.html#bo4e.bo.geschaeftspartner.Geschaeftspartner" xlink:actuate="onRequest" xlink:href="file:////home/runner/work/BO4E-python/BO4E-python/docs/../.tox/docs/tmp/html/api/bo4e.bo.html#bo4e.bo.geschaeftspartner.Geschaeftspartner" xlink:show="new" xlink:title="file:////home/runner/work/BO4E-python/BO4E-python/docs/../.tox/docs/tmp/html/api/bo4e.bo.html#bo4e.bo.geschaeftspartner.Geschaeftspartner" xlink:type="simple"><text fill="#0000FF" font-family="sans-serif" font-size="14" lengthAdjust="spacing" text-decoration="underline" textLength="130.1836" x="954.5635" y="175.0251">Geschaeftspartner</text></a><text fill="#000000" font-family="sans-serif" font-size="10" lengthAdjust="spacing" textLength="135.3906" x="951.96" y="187.6091">bo4e.bo.geschaeftspartner</text></g><!--class Sparte--><g class="entity" data-entity="Sparte" data-source-line="14" data-uid="ent0008" id="entity_Sparte"><rect fill="#F1F1F1" height="37.9375" rx="2.5" ry="2.5" style="stroke:#181818;stroke-width:0.5;" width="123.7773" x="944.77" y="270.03"/><ellipse cx="959.77" cy="288.9988" fill="#ADD1B2" rx="11" ry="11" style="stroke:#181818;stroke-width:1;"/><path d="M962.7388,294.6394 Q962.1606,294.9363 961.52,295.0769 Q960.8794,295.2331 960.1763,295.2331 Q957.6763,295.2331 956.3481,293.5925 Q955.0356,291.9363 955.0356,288.8113 Q955.0356,285.6863 956.3481,284.03 Q957.6763,282.3738 960.1763,282.3738 Q960.8794,282.3738 961.52,282.53 Q962.1763,282.6863 962.7388,282.9831 L962.7388,285.7019 Q962.1138,285.1238 961.52,284.8581 Q960.9263,284.5769 960.3013,284.5769 Q958.9575,284.5769 958.27,285.655 Q957.5825,286.7175 957.5825,288.8113 Q957.5825,290.905 958.27,291.9831 Q958.9575,293.0456 960.3013,293.0456 Q960.9263,293.0456 961.52,292.78 Q962.1138,292.4988 962.7388,291.9206 L962.7388,294.6394 Z " fill="#000000"/><a href="file:////home/runner/work/BO4E-python/BO4E-python/docs/../.tox/docs/tmp/html/api/bo4e.enum.html#bo4e.enum.sparte.Sparte" target="_top" title="file:////home/runner/work/BO4E-python/BO4E-python/docs/../.tox/docs/tmp/html/api/bo4e.enum.html#bo4e.enum.sparte.Sparte" xlink:actuate="onRequest" xlink:href="file:////home/runner/work/BO4E-python/BO4E-python/docs/../.tox/docs/tmp/html/api/bo4e.enum.html#bo4e.enum.sparte.Sparte" xlink:show="new" xlink:title="file:////home/runner/work/BO4E-python/BO4E-python/docs/../.tox/docs/tmp/html/api/bo4e.enum.html#bo4e.enum.sparte.Sparte" xlink:type="simple"><text fill="#0000FF" font-family="sans-serif" font-size="14" lengthAdjust="spacing" text-decoration="underline" textLength="46.2109" x="996.5532" y="288.0251">Sparte</text></a><text fill="#000000" font-family="sans-serif" font-size="10" lengthAdjust="spacing" textLength="91.7773" x="973.77" y="300.6091">bo4e.enum.sparte</text></g><!--class Marktrolle--><g class="entity" data-entity="Marktrolle" data-source-line="15" data-uid="ent0009" id="entity_Marktrolle"><rect fill="#F1F1F1" height="37.9375" rx="2.5" ry="2.5" style="stroke:#181818;stroke-width:0.5;" width="143.5381" x="934.89" y="343.03"/><ellipse cx="949.89" cy="361.9988" fill="#ADD1B2" rx="11" ry="11" style="stroke:#181818;stroke-width:1;"/><path d="M952.8588,367.6394 Q952.2806,367.9363 951.64,368.0769 Q950.9994,368.2331 950.2963,368.2331 Q947.7963,368.2331 946.4681,366.5925 Q945.1556,364.9363 945.1556,361.8113 Q945.1556,358.6863 946.4681,357.03 Q947.7963,355.3738 950.2963,355.3738 Q950.9994,355.3738 951.64,355.53 Q952.2963,355.6863 952.8588,355.9831 L952.8588,358.7019 Q952.2338,358.1238 951.64,357.8581 Q951.0463,357.5769 950.4213,357.5769 Q949.0775,357.5769 948.39,358.655 Q947.7025,359.7175 947.7025,361.8113 Q947.7025,363.905 948.39,364.9831 Q949.0775,366.0456 950.4213,366.0456 Q951.0463,366.0456 951.64,365.78 Q952.2338,365.4988 952.8588,364.9206 L952.8588,367.6394 Z " fill="#000000"/><a href="file:////home/runner/work/BO4E-python/BO4E-python/docs/../.tox/docs/tmp/html/api/bo4e.enum.html#bo4e.enum.marktrolle.Marktrolle" target="_top" title="file:////home/runner/work/BO4E-python/BO4E-python/docs/../.tox/docs/tmp/html/api/bo4e.enum.html#bo4e.enum.marktrolle.Marktrolle" xlink:actuate="onRequest" xlink:href="file:////home/runner/work/BO4E-python/BO4E-python/docs/../.tox/docs/tmp/html/api/bo4e.enum.html#bo4e.enum.marktrolle.Marktrolle" xlink:show="new" xlink:title="file:////home/runner/work/BO4E-python/BO4E-python/docs/../.tox/docs/tmp/html/api/bo4e.enum.html#bo4e.enum.marktrolle.Marktrolle" xlink:type="simple"><text fill="#0000FF" font-family="sans-serif" font-size="14" lengthAdjust="spacing" text-decoration="underline" textLength="70.7246" x="984.2967" y="361.0251">Marktrolle</text></a><text fill="#000000" font-family="sans-serif" font-size="10" lengthAdjust="spacing" textLength="111.5381" x="963.89" y="373.6091">bo4e.enum.marktrolle</text></g><!--class Rollencodetyp--><g class="entity" data-entity="Rollencodetyp" data-source-line="16" data-uid="ent0010" id="entity_Rollencodetyp"><rect fill="#F1F1F1" height="37.9375" rx="2.5" ry="2.5" style="stroke:#181818;stroke-width:0.5;" width="160.4863" x="926.42" y="416.03"/><ellipse cx="941.42" cy="434.9988" fill="#ADD1B2" rx="11" ry="11" style="stroke:#181818;stroke-width:1;"/><path d="M944.3888,440.6394 Q943.8106,440.9363 943.17,441.0769 Q942.5294,441.2331 941.8263,441.2331 Q939.3263,441.2331 937.9981,439.5925 Q936.6856,437.9363 936.6856,434.8113 Q936.6856,431.6863 937.9981,430.03 Q939.3263,428.3738 941.8263,428.3738 Q942.5294,428.3738 943.17,428.53 Q943.8263,428.6863 944.3888,428.9831 L944.3888,431.7019 Q943.7638,431.1238 943.17,430.8581 Q942.5763,430.5769 941.9513,430.5769 Q940.6075,430.5769 939.92,431.655 Q939.2325,432.7175 939.2325,434.8113 Q939.2325,436.905 939.92,437.9831 Q940.6075,439.0456 941.9513,439.0456 Q942.5763,439.0456 943.17,438.78 Q943.7638,438.4988 944.3888,437.9206 L944.3888,440.6394 Z " fill="#000000"/><a href="file:////home/runner/work/BO4E-python/BO4E-python/docs/../.tox/docs/tmp/html/api/bo4e.enum.html#bo4e.enum.rollencodetyp.Rollencodetyp" target="_top" title="file:////home/runner/work/BO4E-python/BO4E-python/docs/../.tox/docs/tmp/html/api/bo4e.enum.html#bo4e.enum.rollencodetyp.Rollencodetyp" xlink:actuate="onRequest" xlink:href="file:////home/runner/work/BO4E-python/BO4E-python/docs/../.tox/docs/tmp/html/api/bo4e.enum.html#bo4e.enum.rollencodetyp.Rollencodetyp" xlink:show="new" xlink:title="file:////home/runner/work/BO4E-python/BO4E-python/docs/../.tox/docs/tmp/html/api/bo4e.enum.html#bo4e.enum.rollencodetyp.Rollencodetyp" xlink:type="simple"><text fill="#0000FF" font-family="sans-serif" font-size="14" lengthAdjust="spacing" text-decoration="underline" textLength="99.9824" x="969.672" y="434.0251">Rollencodetyp</text></a><text fill="#000000" font-family="sans-serif" font-size="10" lengthAdjust="spacing" textLength="128.4863" x="955.42" y="446.6091">bo4e.enum.rollencodetyp</text></g><!--class Marktteilnehmer--><g class="entity" data-entity="Marktteilnehmer" data-source-line="3" data-uid="ent0002" id="entity_Marktteilnehmer"><rect fill="#F1F1F1" height="94.8281" rx="2.5" ry="2.5" style="stroke:#181818;stroke-width:0.5;" width="708.9648" x="7" y="241.59"/><ellipse cx="293.2529" cy="260.5588" fill="#ADD1B2" rx="11" ry="11" style="stroke:#181818;stroke-width:1;"/><path d="M296.2217,266.1994 Q295.6436,266.4963 295.0029,266.6369 Q294.3623,266.7931 293.6592,266.7931 Q291.1592,266.7931 289.8311,265.1525 Q288.5186,263.4963 288.5186,260.3713 Q288.5186,257.2463 289.8311,255.59 Q291.1592,253.9337 293.6592,253.9337 Q294.3623,253.9337 295.0029,254.09 Q295.6592,254.2462 296.2217,254.5431 L296.2217,257.2619 Q295.5967,256.6838 295.0029,256.4181 Q294.4092,256.1369 293.7842,256.1369 Q292.4404,256.1369 291.7529,257.215 Q291.0654,258.2775 291.0654,260.3713 Q291.0654,262.465 291.7529,263.5431 Q292.4404,264.6056 293.7842,264.6056 Q294.4092,264.6056 295.0029,264.34 Q295.5967,264.0588 296.2217,263.4806 L296.2217,266.1994 Z " fill="#000000"/><a href="file:////home/runner/work/BO4E-python/BO4E-python/docs/../.tox/docs/tmp/html/api/bo4e.bo.html#bo4e.bo.marktteilnehmer.Marktteilnehmer" target="_top" title="file:////home/runner/work/BO4E-python/BO4E-python/docs/../.tox/docs/tmp/html/api/bo4e.bo.html#bo4e.bo.marktteilnehmer.Marktteilnehmer" xlink:actuate="onRequest" xlink:href="file:////home/runner/work/BO4E-python/BO4E-python/docs/../.tox/docs/tmp/html/api/bo4e.bo.html#bo4e.bo.marktteilnehmer.Marktteilnehmer" xlink:show="new" xlink:title="file:////home/runner/work/BO4E-python/BO4E-python/docs/../.tox/docs/tmp/html/api/bo4e.bo.html#bo4e.bo.marktteilnehmer.Marktteilnehmer" xlink:type="simple"><text fill="#0000FF" font-family="sans-serif" font-size="14" lengthAdjust="spacing" text-decoration="underline" textLength="116.2588" x="319.603" y="259.5851">Marktteilnehmer</text></a><text fill="#000000" font-family="sans-serif" font-size="10" lengthAdjust="spacing" textLength="127.959" x="313.7529" y="272.1691">bo4e.bo.marktteilnehmer</text><line style="stroke:#181818;stroke-width:0.5;" x1="8" x2="714.9648" y1="279.5275" y2="279.5275"/><text fill="#000000" font-family="sans-serif" font-size="14" lengthAdjust="spacing" textLength="696.9648" x="13" y="296.5226">_typ : Literal[&lt;BoTyp.MARKTTEILNEHMER: 'MARKTTEILNEHMER'&gt;] [1] = BoTyp.MARKTTEILNEHMER</text><text fill="#000000" font-family="sans-serif" font-size="14" lengthAdjust="spacing" textLength="264.1406" x="13" y="312.8195">rollencodenummer : str [0..1] = None</text><text fill="#000000" font-family="sans-serif" font-size="14" lengthAdjust="spacing" textLength="223.4189" x="13" y="329.1164">makoadresse : str [0..*] = None</text></g><!--link Marktteilnehmer to Geschaeftsobjekt--><g class="link" data-entity-1="Marktteilnehmer" data-entity-2="Geschaeftsobjekt" data-source-line="19" data-uid="lnk11" id="link_Marktteilnehmer_Geschaeftsobjekt"><path codeLine="19" d="M523.28,241.13 C591.84,220.85 672.76,197.07 745.96,176 C810.1,157.54 865.9603,141.8406 918.2603,127.2706" fill="none" id="Marktteilnehmer-to-Geschaeftsobjekt" style="stroke:#181818;stroke-width:1;"/><polygon fill="none" points="935.6,122.44,916.6501,121.4907,919.8705,133.0505,935.6,122.44" style="stroke:#181818;stroke-width:1;"/></g><!--link Marktteilnehmer to Marktrolle--><g class="link" data-entity-1="Marktteilnehmer" data-entity-2="Marktrolle" data-source-line="20" data-uid="lnk12" id="link_Marktteilnehmer_Marktrolle"><path codeLine="20" d="M716.06,329.13 C799.25,338.57 867.6364,346.3381 922.4964,352.5581" fill="none" id="Marktteilnehmer-to-Marktrolle" style="stroke:#181818;stroke-width:1;"/><polygon fill="#181818" points="934.42,353.91,928.9088,349.2595,922.4964,352.5581,928.0076,357.2086,934.42,353.91" style="stroke:#181818;stroke-width:1;"/><text fill="#000000" font-family="sans-serif" font-size="13" lengthAdjust="spacing" textLength="67.1201" x="772.96" y="330.0669">marktrolle</text><text fill="#000000" font-family="sans-serif" font-size="13" lengthAdjust="spacing" textLength="24.8066" x="902.1674" y="365.9255">0..1</text></g><!--link Marktteilnehmer to Rollencodetyp--><g class="link" data-entity-1="Marktteilnehmer" data-entity-2="Rollencodetyp" data-source-line="21" data-uid="lnk13" id="link_Marktteilnehmer_Rollencodetyp"><path codeLine="21" d="M573.53,336.91 C694.21,364.3 826.8278,394.4031 914.3878,414.2831" fill="none" id="Marktteilnehmer-to-Rollencodetyp" style="stroke:#181818;stroke-width:1;"/><polygon fill="#181818" points="926.09,416.94,921.1246,411.7108,914.3878,414.2831,919.3533,419.5123,926.09,416.94" style="stroke:#181818;stroke-width:1;"/><text fill="#000000" font-family="sans-serif" font-size="13" lengthAdjust="spacing" textLength="89.1528" x="761.96" y="374.0669">rollencodetyp</text><text fill="#000000" font-family="sans-serif" font-size="13" lengthAdjust="spacing" textLength="24.8066" x="893.5931" y="428.0396">0..1</text></g><!--link Marktteilnehmer to Sparte--><g class="link" data-entity-1="Marktteilnehmer" data-entity-2="Sparte" data-source-line="22" data-uid="lnk14" id="link_Marktteilnehmer_Sparte"><path codeLine="22" d="M716.06,289 C804.5,289 877.69,289 932.5,289" fill="none" id="Marktteilnehmer-to-Sparte" style="stroke:#181818;stroke-width:1;"/><polygon fill="#181818" points="944.5,289,938.5,285,932.5,289,938.5,293,944.5,289" style="stroke:#181818;stroke-width:1;"/><text fill="#000000" font-family="sans-serif" font-size="13" lengthAdjust="spacing" textLength="41.4312" x="785.96" y="285.0669">sparte</text><text fill="#000000" font-family="sans-serif" font-size="13" lengthAdjust="spacing" textLength="24.8066" x="911.972" y="301.9419">0..1</text></g><!--link Marktteilnehmer to Geschaeftspartner--><g class="link" data-entity-1="Marktteilnehmer" data-entity-2="Geschaeftspartner" data-source-line="23" data-uid="lnk15" id="link_Marktteilnehmer_Geschaeftspartner"><path codeLine="23" d="M634.78,241.16 C738.59,222.92 837.6011,205.5267 910.7911,192.6667" fill="none" id="Marktteilnehmer-to-Geschaeftspartner" style="stroke:#181818;stroke-width:1;"/><polygon fill="#181818" points="922.61,190.59,916.0083,187.6887,910.7911,192.6667,917.3928,195.568,922.61,190.59" style="stroke:#181818;stroke-width:1;"/><text fill="#000000" font-family="sans-serif" font-size="13" lengthAdjust="spacing" textLength="119.063" x="746.96" y="197.0669">geschaeftspartner</text><text fill="#000000" font-family="sans-serif" font-size="13" lengthAdjust="spacing" textLength="24.8066" x="890.0919" y="204.6303">0..1</text></g><!--SRC=[nLLTQzim57sEViKbUIWK8ZUi-y1qWOQ5RQnf8SkRPuPYtzHQBCb8AbswxR_NLfpwgw5zMU8NwLpkaNGkX-CKLnQi0irl4minrnXPhYGXKSgCWNuGh7YAlfT_YHBewJifKNltIg-zoStvT9XjRA9aOn-ho7YKUjIgtrjWHUObLgGUoxYtLET8bueMXS4E2ARNrY9F9IO2DPqrCRHm6FwG5uO_e3yw6-yvem_Cj7dmX_H-saq6FbnnYvgbmSL4BJOPdLtEloqMqwzNrzCli-dSXvDMvMGSGZ0AuICyIo0zhT8KPQHYb7UYkCi7OpK4PvGwshMII7g2hHMBDHg3jORJfuP_X4Wcq6Gimly-VYX16BfXbGW6atUVtbz-A8PrO1lSeeaIbdlIgEKlN5lwkLM0Tk5P9xIFSUhQp2EAovYs-HKrTMK5EfKNz9LTBO5bDJVJ0RnKsBtcfWBM_LHW6CIZwCtRGpZgwJM32hfv8Ftk5jWktRdMMjthjtr7UR1BCfSdso1qMwYsUnvVqQhiS_0e8geyp0ENpki86cYFcWRV2MgmYgJi_2Q6mx_ZNOnrigFRdlUVGhy8w7vbrlh8VQXc-bfwKwaF3HslFQJqQlw7sBhmPLf3y2vEVEX41I49Zn44YYLgGqoYxg5p-efZ6fj7]--></g></svg>