<?xml version="1.0" encoding="us-ascii" standalone="no"?><svg xmlns="http://www.w3.org/2000/svg" xmlns:xlink="http://www.w3.org/1999/xlink" contentStyleType="text/css" height="1198px" preserveAspectRatio="none" style="width:807px;height:1198px;background:#FFFFFF;" version="1.1" viewBox="0 0 807 1198" width="807px" zoomAndPan="magnify"><defs/><g><!--cluster bo4e--><g id="cluster_bo4e"><path d="M515.5,6 L556.5,6 A3.75,3.75 0 0 1 559,8.5 L566,28.2969 L797.5,28.2969 A2.5,2.5 0 0 1 800,30.7969 L800,1188.5 A2.5,2.5 0 0 1 797.5,1191 L515.5,1191 A2.5,2.5 0 0 1 513,1188.5 L513,8.5 A2.5,2.5 0 0 1 515.5,6 " fill="none" style="stroke:#000000;stroke-width:1.5;"/><line style="stroke:#000000;stroke-width:1.5;" x1="513" x2="566" y1="28.2969" y2="28.2969"/><text fill="#000000" font-family="sans-serif" font-size="14" font-weight="bold" lengthAdjust="spacing" textLength="40" x="517" y="20.9951">bo4e</text></g><!--cluster bo--><g id="cluster_bo"><path d="M561.5,49 L627.5,49 A3.75,3.75 0 0 1 630,51.5 L637,71.2969 L751.5,71.2969 A2.5,2.5 0 0 1 754,73.7969 L754,208.5 A2.5,2.5 0 0 1 751.5,211 L561.5,211 A2.5,2.5 0 0 1 559,208.5 L559,51.5 A2.5,2.5 0 0 1 561.5,49 " fill="#B6D7A8" style="stroke:#000000;stroke-width:1.5;"/><line style="stroke:#000000;stroke-width:1.5;" x1="559" x2="637" y1="71.2969" y2="71.2969"/><a href="https://bo4e.github.io/BO4E-python/latest/api/bo4e.bo.html" target="_top" title="https://bo4e.github.io/BO4E-python/latest/api/bo4e.bo.html" xlink:actuate="onRequest" xlink:href="https://bo4e.github.io/BO4E-python/latest/api/bo4e.bo.html" xlink:show="new" xlink:title="https://bo4e.github.io/BO4E-python/latest/api/bo4e.bo.html" xlink:type="simple"><text fill="#0000FF" font-family="sans-serif" font-size="14" font-weight="bold" lengthAdjust="spacing" text-decoration="underline" textLength="65" x="563" y="63.9951">bo4e.bo</text></a></g><!--cluster com--><g id="cluster_com"><path d="M539.5,235 L618.5,235 A3.75,3.75 0 0 1 621,237.5 L628,257.2969 L773.5,257.2969 A2.5,2.5 0 0 1 776,259.7969 L776,540.5 A2.5,2.5 0 0 1 773.5,543 L539.5,543 A2.5,2.5 0 0 1 537,540.5 L537,237.5 A2.5,2.5 0 0 1 539.5,235 " fill="#E0A86C" style="stroke:#000000;stroke-width:1.5;"/><line style="stroke:#000000;stroke-width:1.5;" x1="537" x2="628" y1="257.2969" y2="257.2969"/><a href="https://bo4e.github.io/BO4E-python/latest/api/bo4e.com.html" target="_top" title="https://bo4e.github.io/BO4E-python/latest/api/bo4e.com.html" xlink:actuate="onRequest" xlink:href="https://bo4e.github.io/BO4E-python/latest/api/bo4e.com.html" xlink:show="new" xlink:title="https://bo4e.github.io/BO4E-python/latest/api/bo4e.com.html" xlink:type="simple"><text fill="#0000FF" font-family="sans-serif" font-size="14" font-weight="bold" lengthAdjust="spacing" text-decoration="underline" textLength="78" x="541" y="249.9951">bo4e.com</text></a></g><!--cluster enum--><g id="cluster_enum"><path d="M545,567 L635,567 A3.75,3.75 0 0 1 637.5,569.5 L644.5,589.2969 L768,589.2969 A2.5,2.5 0 0 1 770.5,591.7969 L770.5,1164.5 A2.5,2.5 0 0 1 768,1167 L545,1167 A2.5,2.5 0 0 1 542.5,1164.5 L542.5,569.5 A2.5,2.5 0 0 1 545,567 " fill="#D1C358" style="stroke:#000000;stroke-width:1.5;"/><line style="stroke:#000000;stroke-width:1.5;" x1="542.5" x2="644.5" y1="589.2969" y2="589.2969"/><a href="https://bo4e.github.io/BO4E-python/latest/api/bo4e.enum.html" target="_top" title="https://bo4e.github.io/BO4E-python/latest/api/bo4e.enum.html" xlink:actuate="onRequest" xlink:href="https://bo4e.github.io/BO4E-python/latest/api/bo4e.enum.html" xlink:show="new" xlink:title="https://bo4e.github.io/BO4E-python/latest/api/bo4e.enum.html" xlink:type="simple"><text fill="#0000FF" font-family="sans-serif" font-size="14" font-weight="bold" lengthAdjust="spacing" text-decoration="underline" textLength="89" x="546.5" y="581.9951">bo4e.enum</text></a></g><!--class Geschaeftsobjekt--><g id="elem_Geschaeftsobjekt"><rect codeLine="13" fill="#F1F1F1" height="37.9375" id="Geschaeftsobjekt" rx="2.5" ry="2.5" style="stroke:#181818;stroke-width:0.5;" width="156" x="578.5" y="84.03"/><ellipse cx="593.5" cy="102.9987" fill="#ADD1B2" rx="11" ry="11" style="stroke:#181818;stroke-width:1.0;"/><path d="M596.4688,108.6394 Q595.8906,108.9362 595.25,109.0769 Q594.6094,109.2331 593.9063,109.2331 Q591.4063,109.2331 590.0781,107.5925 Q588.7656,105.9362 588.7656,102.8112 Q588.7656,99.6862 590.0781,98.03 Q591.4063,96.3737 593.9063,96.3737 Q594.6094,96.3737 595.25,96.53 Q595.9063,96.6862 596.4688,96.9831 L596.4688,99.7019 Q595.8438,99.1237 595.25,98.8581 Q594.6563,98.5769 594.0313,98.5769 Q592.6875,98.5769 592,99.655 Q591.3125,100.7175 591.3125,102.8112 Q591.3125,104.905 592,105.9831 Q592.6875,107.0456 594.0313,107.0456 Q594.6563,107.0456 595.25,106.78 Q595.8438,106.4987 596.4688,105.9206 L596.4688,108.6394 Z " fill="#000000"/><a href="https://bo4e.github.io/BO4E-python/latest/api/bo4e.bo.html#bo4e.bo.geschaeftsobjekt.Geschaeftsobjekt" target="_top" title="https://bo4e.github.io/BO4E-python/latest/api/bo4e.bo.html#bo4e.bo.geschaeftsobjekt.Geschaeftsobjekt" xlink:actuate="onRequest" xlink:href="https://bo4e.github.io/BO4E-python/latest/api/bo4e.bo.html#bo4e.bo.geschaeftsobjekt.Geschaeftsobjekt" xlink:show="new" xlink:title="https://bo4e.github.io/BO4E-python/latest/api/bo4e.bo.html#bo4e.bo.geschaeftsobjekt.Geschaeftsobjekt" xlink:type="simple"><text fill="#0000FF" font-family="sans-serif" font-size="14" lengthAdjust="spacing" text-decoration="underline" textLength="122" x="608.5" y="102.0251">Geschaeftsobjekt</text></a><text fill="#000000" font-family="sans-serif" font-size="10" lengthAdjust="spacing" textLength="124" x="607.5" y="114.6091">bo4e.bo.geschaeftsobjekt</text></g><!--class Geschaeftspartner--><g id="elem_Geschaeftspartner"><rect codeLine="14" fill="#F1F1F1" height="37.9375" id="Geschaeftspartner" rx="2.5" ry="2.5" style="stroke:#181818;stroke-width:0.5;" width="163" x="575" y="157.03"/><ellipse cx="590" cy="175.9987" fill="#ADD1B2" rx="11" ry="11" style="stroke:#181818;stroke-width:1.0;"/><path d="M592.9688,181.6394 Q592.3906,181.9362 591.75,182.0769 Q591.1094,182.2331 590.4063,182.2331 Q587.9063,182.2331 586.5781,180.5925 Q585.2656,178.9362 585.2656,175.8112 Q585.2656,172.6862 586.5781,171.03 Q587.9063,169.3737 590.4063,169.3737 Q591.1094,169.3737 591.75,169.53 Q592.4063,169.6862 592.9688,169.9831 L592.9688,172.7019 Q592.3438,172.1237 591.75,171.8581 Q591.1563,171.5769 590.5313,171.5769 Q589.1875,171.5769 588.5,172.655 Q587.8125,173.7175 587.8125,175.8112 Q587.8125,177.905 588.5,178.9831 Q589.1875,180.0456 590.5313,180.0456 Q591.1563,180.0456 591.75,179.78 Q592.3438,179.4987 592.9688,178.9206 L592.9688,181.6394 Z " fill="#000000"/><a href="https://bo4e.github.io/BO4E-python/latest/api/bo4e.bo.html#bo4e.bo.geschaeftspartner.Geschaeftspartner" target="_top" title="https://bo4e.github.io/BO4E-python/latest/api/bo4e.bo.html#bo4e.bo.geschaeftspartner.Geschaeftspartner" xlink:actuate="onRequest" xlink:href="https://bo4e.github.io/BO4E-python/latest/api/bo4e.bo.html#bo4e.bo.geschaeftspartner.Geschaeftspartner" xlink:show="new" xlink:title="https://bo4e.github.io/BO4E-python/latest/api/bo4e.bo.html#bo4e.bo.geschaeftspartner.Geschaeftspartner" xlink:type="simple"><text fill="#0000FF" font-family="sans-serif" font-size="14" lengthAdjust="spacing" text-decoration="underline" textLength="129" x="605" y="175.0251">Geschaeftspartner</text></a><text fill="#000000" font-family="sans-serif" font-size="10" lengthAdjust="spacing" textLength="131" x="604" y="187.6091">bo4e.bo.geschaeftspartner</text></g><!--class Katasteradresse--><g id="elem_Katasteradresse"><rect codeLine="17" fill="#F1F1F1" height="37.9375" id="Katasteradresse" rx="2.5" ry="2.5" style="stroke:#181818;stroke-width:0.5;" width="161" x="576" y="270.03"/><ellipse cx="591" cy="288.9988" fill="#ADD1B2" rx="11" ry="11" style="stroke:#181818;stroke-width:1.0;"/><path d="M593.9688,294.6394 Q593.3906,294.9363 592.75,295.0769 Q592.1094,295.2331 591.4063,295.2331 Q588.9063,295.2331 587.5781,293.5925 Q586.2656,291.9363 586.2656,288.8113 Q586.2656,285.6863 587.5781,284.03 Q588.9063,282.3738 591.4063,282.3738 Q592.1094,282.3738 592.75,282.53 Q593.4063,282.6863 593.9688,282.9831 L593.9688,285.7019 Q593.3438,285.1238 592.75,284.8581 Q592.1563,284.5769 591.5313,284.5769 Q590.1875,284.5769 589.5,285.655 Q588.8125,286.7175 588.8125,288.8113 Q588.8125,290.905 589.5,291.9831 Q590.1875,293.0456 591.5313,293.0456 Q592.1563,293.0456 592.75,292.78 Q593.3438,292.4988 593.9688,291.9206 L593.9688,294.6394 Z " fill="#000000"/><a href="https://bo4e.github.io/BO4E-python/latest/api/bo4e.com.html#bo4e.com.katasteradresse.Katasteradresse" target="_top" title="https://bo4e.github.io/BO4E-python/latest/api/bo4e.com.html#bo4e.com.katasteradresse.Katasteradresse" xlink:actuate="onRequest" xlink:href="https://bo4e.github.io/BO4E-python/latest/api/bo4e.com.html#bo4e.com.katasteradresse.Katasteradresse" xlink:show="new" xlink:title="https://bo4e.github.io/BO4E-python/latest/api/bo4e.com.html#bo4e.com.katasteradresse.Katasteradresse" xlink:type="simple"><text fill="#0000FF" font-family="sans-serif" font-size="14" lengthAdjust="spacing" text-decoration="underline" textLength="113" x="613" y="288.0251">Katasteradresse</text></a><text fill="#000000" font-family="sans-serif" font-size="10" lengthAdjust="spacing" textLength="129" x="605" y="300.6091">bo4e.com.katasteradresse</text></g><!--class Messlokationszuordnung--><g id="elem_Messlokationszuordnung"><rect codeLine="18" fill="#F1F1F1" height="37.9375" id="Messlokationszuordnung" rx="2.5" ry="2.5" style="stroke:#181818;stroke-width:0.5;" width="207" x="553" y="343.03"/><ellipse cx="568" cy="361.9988" fill="#ADD1B2" rx="11" ry="11" style="stroke:#181818;stroke-width:1.0;"/><path d="M570.9688,367.6394 Q570.3906,367.9363 569.75,368.0769 Q569.1094,368.2331 568.4063,368.2331 Q565.9063,368.2331 564.5781,366.5925 Q563.2656,364.9363 563.2656,361.8113 Q563.2656,358.6863 564.5781,357.03 Q565.9063,355.3738 568.4063,355.3738 Q569.1094,355.3738 569.75,355.53 Q570.4063,355.6863 570.9688,355.9831 L570.9688,358.7019 Q570.3438,358.1238 569.75,357.8581 Q569.1563,357.5769 568.5313,357.5769 Q567.1875,357.5769 566.5,358.655 Q565.8125,359.7175 565.8125,361.8113 Q565.8125,363.905 566.5,364.9831 Q567.1875,366.0456 568.5313,366.0456 Q569.1563,366.0456 569.75,365.78 Q570.3438,365.4988 570.9688,364.9206 L570.9688,367.6394 Z " fill="#000000"/><a href="https://bo4e.github.io/BO4E-python/latest/api/bo4e.com.html#bo4e.com.messlokationszuordnung.Messlokationszuordnung" target="_top" title="https://bo4e.github.io/BO4E-python/latest/api/bo4e.com.html#bo4e.com.messlokationszuordnung.Messlokationszuordnung" xlink:actuate="onRequest" xlink:href="https://bo4e.github.io/BO4E-python/latest/api/bo4e.com.html#bo4e.com.messlokationszuordnung.Messlokationszuordnung" xlink:show="new" xlink:title="https://bo4e.github.io/BO4E-python/latest/api/bo4e.com.html#bo4e.com.messlokationszuordnung.Messlokationszuordnung" xlink:type="simple"><text fill="#0000FF" font-family="sans-serif" font-size="14" lengthAdjust="spacing" text-decoration="underline" textLength="175" x="582" y="361.0251">Messlokationszuordnung</text></a><text fill="#000000" font-family="sans-serif" font-size="10" lengthAdjust="spacing" textLength="170" x="584.5" y="373.6091">bo4e.com.messlokationszuordnung</text></g><!--class Geokoordinaten--><g id="elem_Geokoordinaten"><rect codeLine="19" fill="#F1F1F1" height="37.9375" id="Geokoordinaten" rx="2.5" ry="2.5" style="stroke:#181818;stroke-width:0.5;" width="158" x="577.5" y="416.03"/><ellipse cx="592.5" cy="434.9988" fill="#ADD1B2" rx="11" ry="11" style="stroke:#181818;stroke-width:1.0;"/><path d="M595.4688,440.6394 Q594.8906,440.9363 594.25,441.0769 Q593.6094,441.2331 592.9063,441.2331 Q590.4063,441.2331 589.0781,439.5925 Q587.7656,437.9363 587.7656,434.8113 Q587.7656,431.6863 589.0781,430.03 Q590.4063,428.3738 592.9063,428.3738 Q593.6094,428.3738 594.25,428.53 Q594.9063,428.6863 595.4688,428.9831 L595.4688,431.7019 Q594.8438,431.1238 594.25,430.8581 Q593.6563,430.5769 593.0313,430.5769 Q591.6875,430.5769 591,431.655 Q590.3125,432.7175 590.3125,434.8113 Q590.3125,436.905 591,437.9831 Q591.6875,439.0456 593.0313,439.0456 Q593.6563,439.0456 594.25,438.78 Q594.8438,438.4988 595.4688,437.9206 L595.4688,440.6394 Z " fill="#000000"/><a href="https://bo4e.github.io/BO4E-python/latest/api/bo4e.com.html#bo4e.com.geokoordinaten.Geokoordinaten" target="_top" title="https://bo4e.github.io/BO4E-python/latest/api/bo4e.com.html#bo4e.com.geokoordinaten.Geokoordinaten" xlink:actuate="onRequest" xlink:href="https://bo4e.github.io/BO4E-python/latest/api/bo4e.com.html#bo4e.com.geokoordinaten.Geokoordinaten" xlink:show="new" xlink:title="https://bo4e.github.io/BO4E-python/latest/api/bo4e.com.html#bo4e.com.geokoordinaten.Geokoordinaten" xlink:type="simple"><text fill="#0000FF" font-family="sans-serif" font-size="14" lengthAdjust="spacing" text-decoration="underline" textLength="112" x="613.5" y="434.0251">Geokoordinaten</text></a><text fill="#000000" font-family="sans-serif" font-size="10" lengthAdjust="spacing" textLength="126" x="606.5" y="446.6091">bo4e.com.geokoordinaten</text></g><!--class Adresse--><g id="elem_Adresse"><rect codeLine="20" fill="#F1F1F1" height="37.9375" id="Adresse" rx="2.5" ry="2.5" style="stroke:#181818;stroke-width:0.5;" width="121" x="596" y="489.03"/><ellipse cx="611" cy="507.9988" fill="#ADD1B2" rx="11" ry="11" style="stroke:#181818;stroke-width:1.0;"/><path d="M613.9688,513.6394 Q613.3906,513.9363 612.75,514.0769 Q612.1094,514.2331 611.4063,514.2331 Q608.9063,514.2331 607.5781,512.5925 Q606.2656,510.9363 606.2656,507.8113 Q606.2656,504.6863 607.5781,503.03 Q608.9063,501.3738 611.4063,501.3738 Q612.1094,501.3738 612.75,501.53 Q613.4063,501.6863 613.9688,501.9831 L613.9688,504.7019 Q613.3438,504.1238 612.75,503.8581 Q612.1563,503.5769 611.5313,503.5769 Q610.1875,503.5769 609.5,504.655 Q608.8125,505.7175 608.8125,507.8113 Q608.8125,509.905 609.5,510.9831 Q610.1875,512.0456 611.5313,512.0456 Q612.1563,512.0456 612.75,511.78 Q613.3438,511.4988 613.9688,510.9206 L613.9688,513.6394 Z " fill="#000000"/><a href="https://bo4e.github.io/BO4E-python/latest/api/bo4e.com.html#bo4e.com.adresse.Adresse" target="_top" title="https://bo4e.github.io/BO4E-python/latest/api/bo4e.com.html#bo4e.com.adresse.Adresse" xlink:actuate="onRequest" xlink:href="https://bo4e.github.io/BO4E-python/latest/api/bo4e.com.html#bo4e.com.adresse.Adresse" xlink:show="new" xlink:title="https://bo4e.github.io/BO4E-python/latest/api/bo4e.com.html#bo4e.com.adresse.Adresse" xlink:type="simple"><text fill="#0000FF" font-family="sans-serif" font-size="14" lengthAdjust="spacing" text-decoration="underline" textLength="57" x="641" y="507.0251">Adresse</text></a><text fill="#000000" font-family="sans-serif" font-size="10" lengthAdjust="spacing" textLength="89" x="625" y="519.6091">bo4e.com.adresse</text></g><!--class Bilanzierungsmethode--><g id="elem_Bilanzierungsmethode"><rect codeLine="23" fill="#F1F1F1" height="37.9375" id="Bilanzierungsmethode" rx="2.5" ry="2.5" style="stroke:#181818;stroke-width:0.5;" width="196" x="558.5" y="602.03"/><ellipse cx="573.5" cy="620.9988" fill="#ADD1B2" rx="11" ry="11" style="stroke:#181818;stroke-width:1.0;"/><path d="M576.4688,626.6394 Q575.8906,626.9363 575.25,627.0769 Q574.6094,627.2331 573.9063,627.2331 Q571.4063,627.2331 570.0781,625.5925 Q568.7656,623.9363 568.7656,620.8113 Q568.7656,617.6863 570.0781,616.03 Q571.4063,614.3738 573.9063,614.3738 Q574.6094,614.3738 575.25,614.53 Q575.9063,614.6863 576.4688,614.9831 L576.4688,617.7019 Q575.8438,617.1238 575.25,616.8581 Q574.6563,616.5769 574.0313,616.5769 Q572.6875,616.5769 572,617.655 Q571.3125,618.7175 571.3125,620.8113 Q571.3125,622.905 572,623.9831 Q572.6875,625.0456 574.0313,625.0456 Q574.6563,625.0456 575.25,624.78 Q575.8438,624.4988 576.4688,623.9206 L576.4688,626.6394 Z " fill="#000000"/><a href="https://bo4e.github.io/BO4E-python/latest/api/bo4e.enum.html#bo4e.enum.bilanzierungsmethode.Bilanzierungsmethode" target="_top" title="https://bo4e.github.io/BO4E-python/latest/api/bo4e.enum.html#bo4e.enum.bilanzierungsmethode.Bilanzierungsmethode" xlink:actuate="onRequest" xlink:href="https://bo4e.github.io/BO4E-python/latest/api/bo4e.enum.html#bo4e.enum.bilanzierungsmethode.Bilanzierungsmethode" xlink:show="new" xlink:title="https://bo4e.github.io/BO4E-python/latest/api/bo4e.enum.html#bo4e.enum.bilanzierungsmethode.Bilanzierungsmethode" xlink:type="simple"><text fill="#0000FF" font-family="sans-serif" font-size="14" lengthAdjust="spacing" text-decoration="underline" textLength="156" x="591.5" y="620.0251">Bilanzierungsmethode</text></a><text fill="#000000" font-family="sans-serif" font-size="10" lengthAdjust="spacing" textLength="164" x="587.5" y="632.6091">bo4e.enum.bilanzierungsmethode</text></g><!--class Verbrauchsart--><g id="elem_Verbrauchsart"><rect codeLine="24" fill="#F1F1F1" height="37.9375" id="Verbrauchsart" rx="2.5" ry="2.5" style="stroke:#181818;stroke-width:0.5;" width="158" x="577.5" y="675.03"/><ellipse cx="592.5" cy="693.9988" fill="#ADD1B2" rx="11" ry="11" style="stroke:#181818;stroke-width:1.0;"/><path d="M595.4688,699.6394 Q594.8906,699.9363 594.25,700.0769 Q593.6094,700.2331 592.9063,700.2331 Q590.4063,700.2331 589.0781,698.5925 Q587.7656,696.9363 587.7656,693.8113 Q587.7656,690.6863 589.0781,689.03 Q590.4063,687.3738 592.9063,687.3738 Q593.6094,687.3738 594.25,687.53 Q594.9063,687.6863 595.4688,687.9831 L595.4688,690.7019 Q594.8438,690.1238 594.25,689.8581 Q593.6563,689.5769 593.0313,689.5769 Q591.6875,689.5769 591,690.655 Q590.3125,691.7175 590.3125,693.8113 Q590.3125,695.905 591,696.9831 Q591.6875,698.0456 593.0313,698.0456 Q593.6563,698.0456 594.25,697.78 Q594.8438,697.4988 595.4688,696.9206 L595.4688,699.6394 Z " fill="#000000"/><a href="https://bo4e.github.io/BO4E-python/latest/api/bo4e.enum.html#bo4e.enum.verbrauchsart.Verbrauchsart" target="_top" title="https://bo4e.github.io/BO4E-python/latest/api/bo4e.enum.html#bo4e.enum.verbrauchsart.Verbrauchsart" xlink:actuate="onRequest" xlink:href="https://bo4e.github.io/BO4E-python/latest/api/bo4e.enum.html#bo4e.enum.verbrauchsart.Verbrauchsart" xlink:show="new" xlink:title="https://bo4e.github.io/BO4E-python/latest/api/bo4e.enum.html#bo4e.enum.verbrauchsart.Verbrauchsart" xlink:type="simple"><text fill="#0000FF" font-family="sans-serif" font-size="14" lengthAdjust="spacing" text-decoration="underline" textLength="97" x="621" y="693.0251">Verbrauchsart</text></a><text fill="#000000" font-family="sans-serif" font-size="10" lengthAdjust="spacing" textLength="126" x="606.5" y="705.6091">bo4e.enum.verbrauchsart</text></g><!--class Energierichtung--><g id="elem_Energierichtung"><rect codeLine="25" fill="#F1F1F1" height="37.9375" id="Energierichtung" rx="2.5" ry="2.5" style="stroke:#181818;stroke-width:0.5;" width="165" x="574" y="748.03"/><ellipse cx="589" cy="766.9988" fill="#ADD1B2" rx="11" ry="11" style="stroke:#181818;stroke-width:1.0;"/><path d="M591.9688,772.6394 Q591.3906,772.9363 590.75,773.0769 Q590.1094,773.2331 589.4063,773.2331 Q586.9063,773.2331 585.5781,771.5925 Q584.2656,769.9363 584.2656,766.8113 Q584.2656,763.6863 585.5781,762.03 Q586.9063,760.3738 589.4063,760.3738 Q590.1094,760.3738 590.75,760.53 Q591.4063,760.6863 591.9688,760.9831 L591.9688,763.7019 Q591.3438,763.1238 590.75,762.8581 Q590.1563,762.5769 589.5313,762.5769 Q588.1875,762.5769 587.5,763.655 Q586.8125,764.7175 586.8125,766.8113 Q586.8125,768.905 587.5,769.9831 Q588.1875,771.0456 589.5313,771.0456 Q590.1563,771.0456 590.75,770.78 Q591.3438,770.4988 591.9688,769.9206 L591.9688,772.6394 Z " fill="#000000"/><a href="https://bo4e.github.io/BO4E-python/latest/api/bo4e.enum.html#bo4e.enum.energierichtung.Energierichtung" target="_top" title="https://bo4e.github.io/BO4E-python/latest/api/bo4e.enum.html#bo4e.enum.energierichtung.Energierichtung" xlink:actuate="onRequest" xlink:href="https://bo4e.github.io/BO4E-python/latest/api/bo4e.enum.html#bo4e.enum.energierichtung.Energierichtung" xlink:show="new" xlink:title="https://bo4e.github.io/BO4E-python/latest/api/bo4e.enum.html#bo4e.enum.energierichtung.Energierichtung" xlink:type="simple"><text fill="#0000FF" font-family="sans-serif" font-size="14" lengthAdjust="spacing" text-decoration="underline" textLength="110" x="614.5" y="766.0251">Energierichtung</text></a><text fill="#000000" font-family="sans-serif" font-size="10" lengthAdjust="spacing" textLength="133" x="603" y="778.6091">bo4e.enum.energierichtung</text></g><!--class Kundentyp--><g id="elem_Kundentyp"><rect codeLine="26" fill="#F1F1F1" height="37.9375" id="Kundentyp" rx="2.5" ry="2.5" style="stroke:#181818;stroke-width:0.5;" width="141" x="586" y="821.03"/><ellipse cx="601" cy="839.9988" fill="#ADD1B2" rx="11" ry="11" style="stroke:#181818;stroke-width:1.0;"/><path d="M603.9688,845.6394 Q603.3906,845.9363 602.75,846.0769 Q602.1094,846.2331 601.4063,846.2331 Q598.9063,846.2331 597.5781,844.5925 Q596.2656,842.9363 596.2656,839.8113 Q596.2656,836.6863 597.5781,835.03 Q598.9063,833.3738 601.4063,833.3738 Q602.1094,833.3738 602.75,833.53 Q603.4063,833.6863 603.9688,833.9831 L603.9688,836.7019 Q603.3438,836.1238 602.75,835.8581 Q602.1563,835.5769 601.5313,835.5769 Q600.1875,835.5769 599.5,836.655 Q598.8125,837.7175 598.8125,839.8113 Q598.8125,841.905 599.5,842.9831 Q600.1875,844.0456 601.5313,844.0456 Q602.1563,844.0456 602.75,843.78 Q603.3438,843.4988 603.9688,842.9206 L603.9688,845.6394 Z " fill="#000000"/><a href="https://bo4e.github.io/BO4E-python/latest/api/bo4e.enum.html#bo4e.enum.kundentyp.Kundentyp" target="_top" title="https://bo4e.github.io/BO4E-python/latest/api/bo4e.enum.html#bo4e.enum.kundentyp.Kundentyp" xlink:actuate="onRequest" xlink:href="https://bo4e.github.io/BO4E-python/latest/api/bo4e.enum.html#bo4e.enum.kundentyp.Kundentyp" xlink:show="new" xlink:title="https://bo4e.github.io/BO4E-python/latest/api/bo4e.enum.html#bo4e.enum.kundentyp.Kundentyp" xlink:type="simple"><text fill="#0000FF" font-family="sans-serif" font-size="14" lengthAdjust="spacing" text-decoration="underline" textLength="75" x="632" y="839.0251">Kundentyp</text></a><text fill="#000000" font-family="sans-serif" font-size="10" lengthAdjust="spacing" textLength="109" x="615" y="851.6091">bo4e.enum.kundentyp</text></g><!--class Netzebene--><g id="elem_Netzebene"><rect codeLine="27" fill="#F1F1F1" height="37.9375" id="Netzebene" rx="2.5" ry="2.5" style="stroke:#181818;stroke-width:0.5;" width="141" x="586" y="894.03"/><ellipse cx="601" cy="912.9988" fill="#ADD1B2" rx="11" ry="11" style="stroke:#181818;stroke-width:1.0;"/><path d="M603.9688,918.6394 Q603.3906,918.9363 602.75,919.0769 Q602.1094,919.2331 601.4063,919.2331 Q598.9063,919.2331 597.5781,917.5925 Q596.2656,915.9363 596.2656,912.8113 Q596.2656,909.6863 597.5781,908.03 Q598.9063,906.3738 601.4063,906.3738 Q602.1094,906.3738 602.75,906.53 Q603.4063,906.6863 603.9688,906.9831 L603.9688,909.7019 Q603.3438,909.1238 602.75,908.8581 Q602.1563,908.5769 601.5313,908.5769 Q600.1875,908.5769 599.5,909.655 Q598.8125,910.7175 598.8125,912.8113 Q598.8125,914.905 599.5,915.9831 Q600.1875,917.0456 601.5313,917.0456 Q602.1563,917.0456 602.75,916.78 Q603.3438,916.4988 603.9688,915.9206 L603.9688,918.6394 Z " fill="#000000"/><a href="https://bo4e.github.io/BO4E-python/latest/api/bo4e.enum.html#bo4e.enum.netzebene.Netzebene" target="_top" title="https://bo4e.github.io/BO4E-python/latest/api/bo4e.enum.html#bo4e.enum.netzebene.Netzebene" xlink:actuate="onRequest" xlink:href="https://bo4e.github.io/BO4E-python/latest/api/bo4e.enum.html#bo4e.enum.netzebene.Netzebene" xlink:show="new" xlink:title="https://bo4e.github.io/BO4E-python/latest/api/bo4e.enum.html#bo4e.enum.netzebene.Netzebene" xlink:type="simple"><text fill="#0000FF" font-family="sans-serif" font-size="14" lengthAdjust="spacing" text-decoration="underline" textLength="77" x="631" y="912.0251">Netzebene</text></a><text fill="#000000" font-family="sans-serif" font-size="10" lengthAdjust="spacing" textLength="109" x="615" y="924.6091">bo4e.enum.netzebene</text></g><!--class Sparte--><g id="elem_Sparte"><rect codeLine="28" fill="#F1F1F1" height="37.9375" id="Sparte" rx="2.5" ry="2.5" style="stroke:#181818;stroke-width:0.5;" width="121" x="596" y="967.03"/><ellipse cx="611" cy="985.9988" fill="#ADD1B2" rx="11" ry="11" style="stroke:#181818;stroke-width:1.0;"/><path d="M613.9688,991.6394 Q613.3906,991.9363 612.75,992.0769 Q612.1094,992.2331 611.4063,992.2331 Q608.9063,992.2331 607.5781,990.5925 Q606.2656,988.9363 606.2656,985.8113 Q606.2656,982.6863 607.5781,981.03 Q608.9063,979.3738 611.4063,979.3738 Q612.1094,979.3738 612.75,979.53 Q613.4063,979.6863 613.9688,979.9831 L613.9688,982.7019 Q613.3438,982.1238 612.75,981.8581 Q612.1563,981.5769 611.5313,981.5769 Q610.1875,981.5769 609.5,982.655 Q608.8125,983.7175 608.8125,985.8113 Q608.8125,987.905 609.5,988.9831 Q610.1875,990.0456 611.5313,990.0456 Q612.1563,990.0456 612.75,989.78 Q613.3438,989.4988 613.9688,988.9206 L613.9688,991.6394 Z " fill="#000000"/><a href="https://bo4e.github.io/BO4E-python/latest/api/bo4e.enum.html#bo4e.enum.sparte.Sparte" target="_top" title="https://bo4e.github.io/BO4E-python/latest/api/bo4e.enum.html#bo4e.enum.sparte.Sparte" xlink:actuate="onRequest" xlink:href="https://bo4e.github.io/BO4E-python/latest/api/bo4e.enum.html#bo4e.enum.sparte.Sparte" xlink:show="new" xlink:title="https://bo4e.github.io/BO4E-python/latest/api/bo4e.enum.html#bo4e.enum.sparte.Sparte" xlink:type="simple"><text fill="#0000FF" font-family="sans-serif" font-size="14" lengthAdjust="spacing" text-decoration="underline" textLength="45" x="647" y="985.0251">Sparte</text></a><text fill="#000000" font-family="sans-serif" font-size="10" lengthAdjust="spacing" textLength="89" x="625" y="997.6091">bo4e.enum.sparte</text></g><!--class Gasqualitaet--><g id="elem_Gasqualitaet"><rect codeLine="29" fill="#F1F1F1" height="37.9375" id="Gasqualitaet" rx="2.5" ry="2.5" style="stroke:#181818;stroke-width:0.5;" width="149" x="582" y="1040.03"/><ellipse cx="597" cy="1058.9988" fill="#ADD1B2" rx="11" ry="11" style="stroke:#181818;stroke-width:1.0;"/><path d="M599.9688,1064.6394 Q599.3906,1064.9363 598.75,1065.0769 Q598.1094,1065.2331 597.4063,1065.2331 Q594.9063,1065.2331 593.5781,1063.5925 Q592.2656,1061.9363 592.2656,1058.8113 Q592.2656,1055.6863 593.5781,1054.03 Q594.9063,1052.3738 597.4063,1052.3738 Q598.1094,1052.3738 598.75,1052.53 Q599.4063,1052.6863 599.9688,1052.9831 L599.9688,1055.7019 Q599.3438,1055.1238 598.75,1054.8581 Q598.1563,1054.5769 597.5313,1054.5769 Q596.1875,1054.5769 595.5,1055.655 Q594.8125,1056.7175 594.8125,1058.8113 Q594.8125,1060.905 595.5,1061.9831 Q596.1875,1063.0456 597.5313,1063.0456 Q598.1563,1063.0456 598.75,1062.78 Q599.3438,1062.4988 599.9688,1061.9206 L599.9688,1064.6394 Z " fill="#000000"/><a href="https://bo4e.github.io/BO4E-python/latest/api/bo4e.enum.html#bo4e.enum.gasqualitaet.Gasqualitaet" target="_top" title="https://bo4e.github.io/BO4E-python/latest/api/bo4e.enum.html#bo4e.enum.gasqualitaet.Gasqualitaet" xlink:actuate="onRequest" xlink:href="https://bo4e.github.io/BO4E-python/latest/api/bo4e.enum.html#bo4e.enum.gasqualitaet.Gasqualitaet" xlink:show="new" xlink:title="https://bo4e.github.io/BO4E-python/latest/api/bo4e.enum.html#bo4e.enum.gasqualitaet.Gasqualitaet" xlink:type="simple"><text fill="#0000FF" font-family="sans-serif" font-size="14" lengthAdjust="spacing" text-decoration="underline" textLength="86" x="626.5" y="1058.0251">Gasqualitaet</text></a><text fill="#000000" font-family="sans-serif" font-size="10" lengthAdjust="spacing" textLength="117" x="611" y="1070.6091">bo4e.enum.gasqualitaet</text></g><!--class Gebiettyp--><g id="elem_Gebiettyp"><rect codeLine="30" fill="#F1F1F1" height="37.9375" id="Gebiettyp" rx="2.5" ry="2.5" style="stroke:#181818;stroke-width:0.5;" width="136" x="588.5" y="1113.03"/><ellipse cx="603.5" cy="1131.9988" fill="#ADD1B2" rx="11" ry="11" style="stroke:#181818;stroke-width:1.0;"/><path d="M606.4688,1137.6394 Q605.8906,1137.9363 605.25,1138.0769 Q604.6094,1138.2331 603.9063,1138.2331 Q601.4063,1138.2331 600.0781,1136.5925 Q598.7656,1134.9363 598.7656,1131.8113 Q598.7656,1128.6863 600.0781,1127.03 Q601.4063,1125.3738 603.9063,1125.3738 Q604.6094,1125.3738 605.25,1125.53 Q605.9063,1125.6863 606.4688,1125.9831 L606.4688,1128.7019 Q605.8438,1128.1238 605.25,1127.8581 Q604.6563,1127.5769 604.0313,1127.5769 Q602.6875,1127.5769 602,1128.655 Q601.3125,1129.7175 601.3125,1131.8113 Q601.3125,1133.905 602,1134.9831 Q602.6875,1136.0456 604.0313,1136.0456 Q604.6563,1136.0456 605.25,1135.78 Q605.8438,1135.4988 606.4688,1134.9206 L606.4688,1137.6394 Z " fill="#000000"/><a href="https://bo4e.github.io/BO4E-python/latest/api/bo4e.enum.html#bo4e.enum.gebiettyp.Gebiettyp" target="_top" title="https://bo4e.github.io/BO4E-python/latest/api/bo4e.enum.html#bo4e.enum.gebiettyp.Gebiettyp" xlink:actuate="onRequest" xlink:href="https://bo4e.github.io/BO4E-python/latest/api/bo4e.enum.html#bo4e.enum.gebiettyp.Gebiettyp" xlink:show="new" xlink:title="https://bo4e.github.io/BO4E-python/latest/api/bo4e.enum.html#bo4e.enum.gebiettyp.Gebiettyp" xlink:type="simple"><text fill="#0000FF" font-family="sans-serif" font-size="14" lengthAdjust="spacing" text-decoration="underline" textLength="67" x="636" y="1131.0251">Gebiettyp</text></a><text fill="#000000" font-family="sans-serif" font-size="10" lengthAdjust="spacing" textLength="104" x="617.5" y="1143.6091">bo4e.enum.gebiettyp</text></g><!--class Marktlokation--><g id="elem_Marktlokation"><rect codeLine="3" fill="#F1F1F1" height="143.7188" id="Marktlokation" rx="2.5" ry="2.5" style="stroke:#181818;stroke-width:0.5;" width="296" x="7" y="590.14"/><ellipse cx="96.75" cy="609.1088" fill="#ADD1B2" rx="11" ry="11" style="stroke:#181818;stroke-width:1.0;"/><path d="M99.7188,614.7494 Q99.1406,615.0463 98.5,615.1869 Q97.8594,615.3431 97.1563,615.3431 Q94.6563,615.3431 93.3281,613.7025 Q92.0156,612.0463 92.0156,608.9213 Q92.0156,605.7963 93.3281,604.14 Q94.6563,602.4838 97.1563,602.4838 Q97.8594,602.4838 98.5,602.64 Q99.1563,602.7963 99.7188,603.0931 L99.7188,605.8119 Q99.0938,605.2338 98.5,604.9681 Q97.9063,604.6869 97.2813,604.6869 Q95.9375,604.6869 95.25,605.765 Q94.5625,606.8275 94.5625,608.9213 Q94.5625,611.015 95.25,612.0931 Q95.9375,613.1556 97.2813,613.1556 Q97.9063,613.1556 98.5,612.89 Q99.0938,612.6088 99.7188,612.0306 L99.7188,614.7494 Z " fill="#000000"/><a href="https://bo4e.github.io/BO4E-python/latest/api/bo4e.bo.html#bo4e.bo.marktlokation.Marktlokation" target="_top" title="https://bo4e.github.io/BO4E-python/latest/api/bo4e.bo.html#bo4e.bo.marktlokation.Marktlokation" xlink:actuate="onRequest" xlink:href="https://bo4e.github.io/BO4E-python/latest/api/bo4e.bo.html#bo4e.bo.marktlokation.Marktlokation" xlink:show="new" xlink:title="https://bo4e.github.io/BO4E-python/latest/api/bo4e.bo.html#bo4e.bo.marktlokation.Marktlokation" xlink:type="simple"><text fill="#0000FF" font-family="sans-serif" font-size="14" lengthAdjust="spacing" text-decoration="underline" textLength="92" x="125.25" y="608.1351">Marktlokation</text></a><text fill="#000000" font-family="sans-serif" font-size="10" lengthAdjust="spacing" textLength="108" x="117.25" y="620.7191">bo4e.bo.marktlokation</text><line style="stroke:#181818;stroke-width:0.5;" x1="8" x2="302" y1="628.0775" y2="628.0775"/><text fill="#000000" font-family="sans-serif" font-size="14" lengthAdjust="spacing" textLength="241" x="13" y="645.0726">marktlokationsId : str [0..1] = None</text><text fill="#000000" font-family="sans-serif" font-size="14" lengthAdjust="spacing" textLength="256" x="13" y="661.3695">istUnterbrechbar : bool [0..1] = None</text><text fill="#000000" font-family="sans-serif" font-size="14" lengthAdjust="spacing" textLength="271" x="13" y="677.6664">netzbetreibercodenr : str [0..1] = None</text><text fill="#000000" font-family="sans-serif" font-size="14" lengthAdjust="spacing" textLength="225" x="13" y="693.9632">netzgebietsnr : str [0..1] = None</text><text fill="#000000" font-family="sans-serif" font-size="14" lengthAdjust="spacing" textLength="264" x="13" y="710.2601">bilanzierungsgebiet : str [0..1] = None</text><text fill="#000000" font-family="sans-serif" font-size="14" lengthAdjust="spacing" textLength="284" x="13" y="726.557">grundversorgercodenr : str [0..1] = None</text></g><!--link Marktlokation to Geschaeftsobjekt--><g id="link_Marktlokation_Geschaeftsobjekt"><path codeLine="33" d="M160.86,589.72 C172.13,482.14 209.48,281.03 333,173 C400.6,113.88 488.3323,101.2007 560.1523,100.0407 " fill="none" id="Marktlokation-to-Geschaeftsobjekt" style="stroke:#181818;stroke-width:1.0;"/><polygon fill="none" points="578.15,99.75,560.0555,94.0415,560.2492,106.0399,578.15,99.75" style="stroke:#181818;stroke-width:1.0;"/></g><!--link Marktlokation to Sparte--><g id="link_Marktlokation_Sparte"><path codeLine="34" d="M185.81,734.11 C214.51,794.26 263.8,877.27 333,923 C412.96,975.84 514.8614,986.277 583.7214,987.327 " fill="none" id="Marktlokation-to-Sparte" style="stroke:#181818;stroke-width:1.0;"/><polygon fill="#181818" points="595.72,987.51,589.7817,983.419,583.7214,987.327,589.6597,991.4181,595.72,987.51" style="stroke:#181818;stroke-width:1.0;"/><text fill="#000000" font-family="sans-serif" font-size="13" lengthAdjust="spacing" textLength="41" x="394.5" y="919.0669">sparte</text><text fill="#000000" font-family="sans-serif" font-size="13" lengthAdjust="spacing" textLength="24" x="564.2146" y="1000.513">0..1</text></g><!--link Marktlokation to Energierichtung--><g id="link_Marktlokation_Energierichtung"><path codeLine="35" d="M303.29,710.49 C313.3,713.2 323.27,715.74 333,718 C413.95,736.83 496.1472,748.7361 561.7372,756.6861 " fill="none" id="Marktlokation-to-Energierichtung" style="stroke:#181818;stroke-width:1.0;"/><polygon fill="#181818" points="573.65,758.13,568.1749,753.4371,561.7372,756.6861,567.2123,761.379,573.65,758.13" style="stroke:#181818;stroke-width:1.0;"/><text fill="#000000" font-family="sans-serif" font-size="13" lengthAdjust="spacing" textLength="100" x="365" y="714.0669">energierichtung</text><text fill="#000000" font-family="sans-serif" font-size="13" lengthAdjust="spacing" textLength="24" x="542.0916" y="770.0931">0..1</text></g><!--link Marktlokation to Bilanzierungsmethode--><g id="link_Marktlokation_Bilanzierungsmethode"><path codeLine="36" d="M303.16,649.92 C385.47,643.16 473.8002,635.9114 546.3102,629.9614 " fill="none" id="Marktlokation-to-Bilanzierungsmethode" style="stroke:#181818;stroke-width:1.0;"/><polygon fill="#181818" points="558.27,628.98,551.963,625.4841,546.3102,629.9614,552.6172,633.4573,558.27,628.98" style="stroke:#181818;stroke-width:1.0;"/><text fill="#000000" font-family="sans-serif" font-size="13" lengthAdjust="spacing" textLength="142" x="344" y="631.0669">bilanzierungsmethode</text><text fill="#000000" font-family="sans-serif" font-size="13" lengthAdjust="spacing" textLength="24" x="526.5195" y="642.1401">0..1</text></g><!--link Marktlokation to Netzebene--><g id="link_Marktlokation_Netzebene"><path codeLine="37" d="M208.97,734.34 C240.76,772.62 284.4,817.13 333,844 C412.55,887.98 505.4928,902.9371 573.7228,908.7171 " fill="none" id="Marktlokation-to-Netzebene" style="stroke:#181818;stroke-width:1.0;"/><polygon fill="#181818" points="585.68,909.73,580.0391,905.2378,573.7228,908.7171,579.3638,913.2093,585.68,909.73" style="stroke:#181818;stroke-width:1.0;"/><text fill="#000000" font-family="sans-serif" font-size="13" lengthAdjust="spacing" textLength="68" x="381" y="840.0669">netzebene</text><text fill="#000000" font-family="sans-serif" font-size="13" lengthAdjust="spacing" textLength="24" x="554.045" y="922.1931">0..1</text></g><!--link Marktlokation to Verbrauchsart--><g id="link_Marktlokation_Verbrauchsart"><path codeLine="38" d="M303.17,682.27 C313.25,683.31 323.27,684.23 333,685 C416.2,691.55 499.8004,693.4264 565.1804,693.9364 " fill="none" id="Marktlokation-to-Verbrauchsart" style="stroke:#181818;stroke-width:1.0;"/><polygon fill="#181818" points="577.18,694.03,571.2114,689.9833,565.1804,693.9364,571.149,697.9831,577.18,694.03" style="stroke:#181818;stroke-width:1.0;"/><text fill="#000000" font-family="sans-serif" font-size="13" lengthAdjust="spacing" textLength="89" x="370.5" y="681.0669">verbrauchsart</text><text fill="#000000" font-family="sans-serif" font-size="13" lengthAdjust="spacing" textLength="24" x="545.6176" y="706.7261">0..1</text></g><!--link Marktlokation to Gebiettyp--><g id="link_Marktlokation_Gebiettyp"><path codeLine="39" d="M164.48,734.13 C179.9,830.45 221.97,998.9 333,1085 C406.1,1141.69 505.4087,1145.9694 576.2787,1141.0594 " fill="none" id="Marktlokation-to-Gebiettyp" style="stroke:#181818;stroke-width:1.0;"/><polygon fill="#181818" points="588.25,1140.23,581.9879,1136.6543,576.2787,1141.0594,582.5408,1144.6351,588.25,1140.23" style="stroke:#181818;stroke-width:1.0;"/><text fill="#000000" font-family="sans-serif" font-size="13" lengthAdjust="spacing" textLength="67" x="381.5" y="1081.0669">gebietstyp</text><text fill="#000000" font-family="sans-serif" font-size="13" lengthAdjust="spacing" textLength="24" x="556.6012" y="1153.8026">0..1</text></g><!--link Marktlokation to Gasqualitaet--><g id="link_Marktlokation_Gasqualitaet"><path codeLine="40" d="M172.82,734.09 C195.29,813.41 243.12,938.32 333,1004 C405.46,1056.95 499.3218,1065.6978 569.7618,1064.4778 " fill="none" id="Marktlokation-to-Gasqualitaet" style="stroke:#181818;stroke-width:1.0;"/><polygon fill="#181818" points="581.76,1064.27,575.6916,1060.3745,569.7618,1064.4778,575.8302,1068.3733,581.76,1064.27" style="stroke:#181818;stroke-width:1.0;"/><text fill="#000000" font-family="sans-serif" font-size="13" lengthAdjust="spacing" textLength="79" x="375.5" y="1000.0669">gasqualitaet</text><text fill="#000000" font-family="sans-serif" font-size="13" lengthAdjust="spacing" textLength="24" x="550.0347" y="1077.4802">0..1</text></g><!--link Marktlokation to Geschaeftspartner--><g id="link_Marktlokation_Geschaeftspartner"><path codeLine="41" d="M170.16,589.88 C190.94,502.98 238.01,358.29 333,275 C400.71,215.63 491.5157,193.4592 562.7657,183.9392 " fill="none" id="Marktlokation-to-Geschaeftspartner" style="stroke:#181818;stroke-width:1.0;"/><polygon fill="#181818" points="574.66,182.35,568.1831,179.1799,562.7657,183.9392,569.2426,187.1094,574.66,182.35" style="stroke:#181818;stroke-width:1.0;"/><text fill="#000000" font-family="sans-serif" font-size="13" lengthAdjust="spacing" textLength="63" x="383.5" y="194.0669">endkunde</text><text fill="#000000" font-family="sans-serif" font-size="13" lengthAdjust="spacing" textLength="24" x="542.8889" y="195.5695">0..1</text></g><!--link Marktlokation to Messlokationszuordnung--><g id="link_Marktlokation_Messlokationszuordnung"><path codeLine="42" d="M200.12,589.8 C231.8,543.63 278.42,485.89 333,450 C398.95,406.63 474.0049,386.4925 540.9849,375.2725 " fill="none" id="Marktlokation-to-Messlokationszuordnung" style="stroke:#181818;stroke-width:1.0;"/><polygon fill="#181818" points="552.82,373.29,546.2416,370.3362,540.9849,375.2725,547.5633,378.2263,552.82,373.29" style="stroke:#181818;stroke-width:1.0;"/><text fill="#000000" font-family="sans-serif" font-size="13" lengthAdjust="spacing" textLength="162" x="334" y="382.0669">zugehoerigeMesslokation</text><text fill="#000000" font-family="sans-serif" font-size="13" lengthAdjust="spacing" textLength="24" x="521.0478" y="386.6239">0..1</text></g><!--link Marktlokation to Adresse--><g id="link_Marktlokation_Adresse"><path codeLine="43" d="M303.16,616.63 C400.86,586.51 512.4424,552.1046 584.2724,529.9646 " fill="none" id="Marktlokation-to-Adresse" style="stroke:#181818;stroke-width:1.0;"/><polygon fill="#181818" points="595.74,526.43,588.828,524.3748,584.2724,529.9646,591.1844,532.0199,595.74,526.43" style="stroke:#181818;stroke-width:1.0;"/><text fill="#000000" font-family="sans-serif" font-size="13" lengthAdjust="spacing" textLength="108" x="361" y="554.0669">lokationsadresse</text><text fill="#000000" font-family="sans-serif" font-size="13" lengthAdjust="spacing" textLength="24" x="563.7819" y="541.3404">0..1</text></g><!--link Marktlokation to Geokoordinaten--><g id="link_Marktlokation_Geokoordinaten"><path codeLine="44" d="M244.57,589.76 C271.87,569.65 302.73,548.96 333,533 C404.74,495.16 427.3,495.27 505,472 C528.33,465.02 542.3106,461.1789 565.7206,455.4789 " fill="none" id="Marktlokation-to-Geokoordinaten" style="stroke:#181818;stroke-width:1.0;"/><polygon fill="#181818" points="577.38,452.64,570.604,450.173,565.7206,455.4789,572.4966,457.9459,577.38,452.64" style="stroke:#181818;stroke-width:1.0;"/><text fill="#000000" font-family="sans-serif" font-size="13" lengthAdjust="spacing" textLength="75" x="377.5" y="471.0669">geoadresse</text><text fill="#000000" font-family="sans-serif" font-size="13" lengthAdjust="spacing" textLength="24" x="545.5494" y="466.8732">0..1</text></g><!--link Marktlokation to Katasteradresse--><g id="link_Marktlokation_Katasteradresse"><path codeLine="45" d="M179.29,589.87 C205.52,520.44 254.96,417.83 333,361 C404.07,309.24 493.6413,294.3646 563.7113,290.1846 " fill="none" id="Marktlokation-to-Katasteradresse" style="stroke:#181818;stroke-width:1.0;"/><polygon fill="#181818" points="575.69,289.47,569.4625,285.8344,563.7113,290.1846,569.9388,293.8202,575.69,289.47" style="stroke:#181818;stroke-width:1.0;"/><text fill="#000000" font-family="sans-serif" font-size="13" lengthAdjust="spacing" textLength="126" x="352" y="296.0669">katasterinformation</text><text fill="#000000" font-family="sans-serif" font-size="13" lengthAdjust="spacing" textLength="24" x="544.0042" y="302.2025">0..1</text></g><!--link Marktlokation to Kundentyp--><g id="link_Marktlokation_Kundentyp"><path codeLine="46" d="M257.53,734.2 C281.44,748.75 307.43,762.71 333,773 C416.43,806.56 507.1481,822.6384 573.8981,831.2284 " fill="none" id="Marktlokation-to-Kundentyp" style="stroke:#181818;stroke-width:1.0;"/><polygon fill="#181818" points="585.8,832.76,580.3596,828.0269,573.8981,831.2284,579.3385,835.9615,585.8,832.76" style="stroke:#181818;stroke-width:1.0;"/><text fill="#000000" font-family="sans-serif" font-size="13" lengthAdjust="spacing" textLength="100" x="365" y="769.0669">kundengruppen</text><text fill="#000000" font-family="sans-serif" font-size="13" lengthAdjust="spacing" textLength="23" x="554.9653" y="844.8581">0..*</text></g><!--SRC=[jLVTRzCm47zU_efJ-pPfwIR6c2AOrC4qeMdmWE1bzC59RebfOXVR7Lg1_ntdiuxhR47DdkhVzUxoi-_3vmpl5IWEWYQfWfWAZ1JbpFEYZ4W9axkxLAcL36Qpa9-Ydr2LhaEVyjdbvzEhezMZIZcRPKIXL3EoefLMoFrKvTcq0JaHIvNn9IbS-xScWWvQBBwpjv9kC3Wvld1QJu38hWtyzWuwAl9Z30589U3ksFTF5l0EFd66tW6LwYjJA4AzoJGaGck5d6Us6aEr2L49f26AYCV8XDjVePXWI579FfMGPeHjA8erIsIbwrPCj4RyW49oaJpvrR-UnqYESaKYt2yyK8F5eZpK6i7qykp3c_bvSQnZva22Cag9pZR9mn-uLFwr9G1Ru4m6sqr9tRPyAUOh8XH3OL2l9R0ZUOPyhMMnhwKwnlk6EEAv4MEDp21h2DEhu_dvsVjzeznyPzeYNOD4wY8ZiK0fqR_fOh3mxZavd9JKBSEnUUlpbcq7sQovY9ckMV_MAGQtsBqPj-UgaJd_6djh2V8brxufqwfCPwy9eGlTM-XwgBFM58rDkScUUPqrywUonSoIMd644aAsDckeW6OH5HYcyKdqwlNUlRBzr7GBEpT7ZjekHl_I8GINSFUWUfsMMtBv67zF3yNTIzPHAdMZyx-P23geXtx7lkJTiHgVCEfkdEXJeL6gYcvmrSLWuHxQbfUIk6KvFlMbdYUGgSULVzEie5tr46rjgeRReF795PCJXlfS_4_D2jfL3xdMfYJNQezFhho6qVzI_a3rqyEfKYq9LNhZiqc8_Bac6LK4zSna03113p_JkEhQXk05k9O3Rf5pryqAsbKVnUR_-bQfKJ7dMY-5ewC_5ysKkZCzsifQ-n0cnUGysVRh9gPwhgwYDSZ8Ble0h88UviRPk_KBnDLv1pdSbau0RN4CC-sstW0wZNMOYss40wWVGKNOXjcQQQpDpQHypa4dzituNOGaBhlNi_R5mD0pr0MmMIUOSXtO14sTGKwRKIM0rdKpgWunjwQoub3v_zZRStO0pH1DsJqN-TCREJJ3ixqmj9DohL-dgvMUyhoKwgJDCTSlO-d9bFy2o-CznIoM_m00]--></g></svg>