<?xml version="1.0" encoding="us-ascii" standalone="no"?><svg xmlns="http://www.w3.org/2000/svg" xmlns:xlink="http://www.w3.org/1999/xlink" contentStyleType="text/css" height="1344px" preserveAspectRatio="none" style="width:870px;height:1344px;background:#FFFFFF;" version="1.1" viewBox="0 0 870 1344" width="870px" zoomAndPan="magnify"><defs/><g><!--cluster bo4e--><g id="cluster_bo4e"><path d="M578.5,6 L619.5,6 A3.75,3.75 0 0 1 622,8.5 L629,28.2969 L860.5,28.2969 A2.5,2.5 0 0 1 863,30.7969 L863,1334.5 A2.5,2.5 0 0 1 860.5,1337 L578.5,1337 A2.5,2.5 0 0 1 576,1334.5 L576,8.5 A2.5,2.5 0 0 1 578.5,6 " fill="none" style="stroke:#000000;stroke-width:1.5;"/><line style="stroke:#000000;stroke-width:1.5;" x1="576" x2="629" y1="28.2969" y2="28.2969"/><text fill="#000000" font-family="sans-serif" font-size="14" font-weight="bold" lengthAdjust="spacing" textLength="40" x="580" y="20.9951">bo4e</text></g><!--cluster bo--><g id="cluster_bo"><path d="M624.5,49 L690.5,49 A3.75,3.75 0 0 1 693,51.5 L700,71.2969 L814.5,71.2969 A2.5,2.5 0 0 1 817,73.7969 L817,208.5 A2.5,2.5 0 0 1 814.5,211 L624.5,211 A2.5,2.5 0 0 1 622,208.5 L622,51.5 A2.5,2.5 0 0 1 624.5,49 " fill="#B6D7A8" style="stroke:#000000;stroke-width:1.5;"/><line style="stroke:#000000;stroke-width:1.5;" x1="622" x2="700" y1="71.2969" y2="71.2969"/><a href="https://bo4e.github.io/BO4E-python/latest/api/bo4e.bo.html" target="_top" title="https://bo4e.github.io/BO4E-python/latest/api/bo4e.bo.html" xlink:actuate="onRequest" xlink:href="https://bo4e.github.io/BO4E-python/latest/api/bo4e.bo.html" xlink:show="new" xlink:title="https://bo4e.github.io/BO4E-python/latest/api/bo4e.bo.html" xlink:type="simple"><text fill="#0000FF" font-family="sans-serif" font-size="14" font-weight="bold" lengthAdjust="spacing" text-decoration="underline" textLength="65" x="626" y="63.9951">bo4e.bo</text></a></g><!--cluster com--><g id="cluster_com"><path d="M602.5,235 L681.5,235 A3.75,3.75 0 0 1 684,237.5 L691,257.2969 L836.5,257.2969 A2.5,2.5 0 0 1 839,259.7969 L839,686.5 A2.5,2.5 0 0 1 836.5,689 L602.5,689 A2.5,2.5 0 0 1 600,686.5 L600,237.5 A2.5,2.5 0 0 1 602.5,235 " fill="#E0A86C" style="stroke:#000000;stroke-width:1.5;"/><line style="stroke:#000000;stroke-width:1.5;" x1="600" x2="691" y1="257.2969" y2="257.2969"/><a href="https://bo4e.github.io/BO4E-python/latest/api/bo4e.com.html" target="_top" title="https://bo4e.github.io/BO4E-python/latest/api/bo4e.com.html" xlink:actuate="onRequest" xlink:href="https://bo4e.github.io/BO4E-python/latest/api/bo4e.com.html" xlink:show="new" xlink:title="https://bo4e.github.io/BO4E-python/latest/api/bo4e.com.html" xlink:type="simple"><text fill="#0000FF" font-family="sans-serif" font-size="14" font-weight="bold" lengthAdjust="spacing" text-decoration="underline" textLength="78" x="604" y="249.9951">bo4e.com</text></a></g><!--cluster enum--><g id="cluster_enum"><path d="M608,713 L698,713 A3.75,3.75 0 0 1 700.5,715.5 L707.5,735.2969 L831,735.2969 A2.5,2.5 0 0 1 833.5,737.7969 L833.5,1310.5 A2.5,2.5 0 0 1 831,1313 L608,1313 A2.5,2.5 0 0 1 605.5,1310.5 L605.5,715.5 A2.5,2.5 0 0 1 608,713 " fill="#D1C358" style="stroke:#000000;stroke-width:1.5;"/><line style="stroke:#000000;stroke-width:1.5;" x1="605.5" x2="707.5" y1="735.2969" y2="735.2969"/><a href="https://bo4e.github.io/BO4E-python/latest/api/bo4e.enum.html" target="_top" title="https://bo4e.github.io/BO4E-python/latest/api/bo4e.enum.html" xlink:actuate="onRequest" xlink:href="https://bo4e.github.io/BO4E-python/latest/api/bo4e.enum.html" xlink:show="new" xlink:title="https://bo4e.github.io/BO4E-python/latest/api/bo4e.enum.html" xlink:type="simple"><text fill="#0000FF" font-family="sans-serif" font-size="14" font-weight="bold" lengthAdjust="spacing" text-decoration="underline" textLength="89" x="609.5" y="727.9951">bo4e.enum</text></a></g><!--class Geschaeftspartner--><g id="elem_Geschaeftspartner"><rect codeLine="15" fill="#F1F1F1" height="37.9375" id="Geschaeftspartner" rx="2.5" ry="2.5" style="stroke:#181818;stroke-width:0.5;" width="163" x="638" y="84.03"/><ellipse cx="653" cy="102.9987" fill="#ADD1B2" rx="11" ry="11" style="stroke:#181818;stroke-width:1.0;"/><path d="M655.9688,108.6394 Q655.3906,108.9362 654.75,109.0769 Q654.1094,109.2331 653.4063,109.2331 Q650.9063,109.2331 649.5781,107.5925 Q648.2656,105.9362 648.2656,102.8112 Q648.2656,99.6862 649.5781,98.03 Q650.9063,96.3737 653.4063,96.3737 Q654.1094,96.3737 654.75,96.53 Q655.4063,96.6862 655.9688,96.9831 L655.9688,99.7019 Q655.3438,99.1237 654.75,98.8581 Q654.1563,98.5769 653.5313,98.5769 Q652.1875,98.5769 651.5,99.655 Q650.8125,100.7175 650.8125,102.8112 Q650.8125,104.905 651.5,105.9831 Q652.1875,107.0456 653.5313,107.0456 Q654.1563,107.0456 654.75,106.78 Q655.3438,106.4987 655.9688,105.9206 L655.9688,108.6394 Z " fill="#000000"/><a href="https://bo4e.github.io/BO4E-python/latest/api/bo4e.bo.html#bo4e.bo.geschaeftspartner.Geschaeftspartner" target="_top" title="https://bo4e.github.io/BO4E-python/latest/api/bo4e.bo.html#bo4e.bo.geschaeftspartner.Geschaeftspartner" xlink:actuate="onRequest" xlink:href="https://bo4e.github.io/BO4E-python/latest/api/bo4e.bo.html#bo4e.bo.geschaeftspartner.Geschaeftspartner" xlink:show="new" xlink:title="https://bo4e.github.io/BO4E-python/latest/api/bo4e.bo.html#bo4e.bo.geschaeftspartner.Geschaeftspartner" xlink:type="simple"><text fill="#0000FF" font-family="sans-serif" font-size="14" lengthAdjust="spacing" text-decoration="underline" textLength="129" x="668" y="102.0251">Geschaeftspartner</text></a><text fill="#000000" font-family="sans-serif" font-size="10" lengthAdjust="spacing" textLength="131" x="667" y="114.6091">bo4e.bo.geschaeftspartner</text></g><!--class Geschaeftsobjekt--><g id="elem_Geschaeftsobjekt"><rect codeLine="16" fill="#F1F1F1" height="37.9375" id="Geschaeftsobjekt" rx="2.5" ry="2.5" style="stroke:#181818;stroke-width:0.5;" width="156" x="641.5" y="157.03"/><ellipse cx="656.5" cy="175.9987" fill="#ADD1B2" rx="11" ry="11" style="stroke:#181818;stroke-width:1.0;"/><path d="M659.4688,181.6394 Q658.8906,181.9362 658.25,182.0769 Q657.6094,182.2331 656.9063,182.2331 Q654.4063,182.2331 653.0781,180.5925 Q651.7656,178.9362 651.7656,175.8112 Q651.7656,172.6862 653.0781,171.03 Q654.4063,169.3737 656.9063,169.3737 Q657.6094,169.3737 658.25,169.53 Q658.9063,169.6862 659.4688,169.9831 L659.4688,172.7019 Q658.8438,172.1237 658.25,171.8581 Q657.6563,171.5769 657.0313,171.5769 Q655.6875,171.5769 655,172.655 Q654.3125,173.7175 654.3125,175.8112 Q654.3125,177.905 655,178.9831 Q655.6875,180.0456 657.0313,180.0456 Q657.6563,180.0456 658.25,179.78 Q658.8438,179.4987 659.4688,178.9206 L659.4688,181.6394 Z " fill="#000000"/><a href="https://bo4e.github.io/BO4E-python/latest/api/bo4e.bo.html#bo4e.bo.geschaeftsobjekt.Geschaeftsobjekt" target="_top" title="https://bo4e.github.io/BO4E-python/latest/api/bo4e.bo.html#bo4e.bo.geschaeftsobjekt.Geschaeftsobjekt" xlink:actuate="onRequest" xlink:href="https://bo4e.github.io/BO4E-python/latest/api/bo4e.bo.html#bo4e.bo.geschaeftsobjekt.Geschaeftsobjekt" xlink:show="new" xlink:title="https://bo4e.github.io/BO4E-python/latest/api/bo4e.bo.html#bo4e.bo.geschaeftsobjekt.Geschaeftsobjekt" xlink:type="simple"><text fill="#0000FF" font-family="sans-serif" font-size="14" lengthAdjust="spacing" text-decoration="underline" textLength="122" x="671.5" y="175.0251">Geschaeftsobjekt</text></a><text fill="#000000" font-family="sans-serif" font-size="10" lengthAdjust="spacing" textLength="124" x="670.5" y="187.6091">bo4e.bo.geschaeftsobjekt</text></g><!--class Zaehlwerk--><g id="elem_Zaehlwerk"><rect codeLine="19" fill="#F1F1F1" height="37.9375" id="Zaehlwerk" rx="2.5" ry="2.5" style="stroke:#181818;stroke-width:0.5;" width="131" x="654" y="270.03"/><ellipse cx="669" cy="288.9988" fill="#ADD1B2" rx="11" ry="11" style="stroke:#181818;stroke-width:1.0;"/><path d="M671.9688,294.6394 Q671.3906,294.9363 670.75,295.0769 Q670.1094,295.2331 669.4063,295.2331 Q666.9063,295.2331 665.5781,293.5925 Q664.2656,291.9363 664.2656,288.8113 Q664.2656,285.6863 665.5781,284.03 Q666.9063,282.3738 669.4063,282.3738 Q670.1094,282.3738 670.75,282.53 Q671.4063,282.6863 671.9688,282.9831 L671.9688,285.7019 Q671.3438,285.1238 670.75,284.8581 Q670.1563,284.5769 669.5313,284.5769 Q668.1875,284.5769 667.5,285.655 Q666.8125,286.7175 666.8125,288.8113 Q666.8125,290.905 667.5,291.9831 Q668.1875,293.0456 669.5313,293.0456 Q670.1563,293.0456 670.75,292.78 Q671.3438,292.4988 671.9688,291.9206 L671.9688,294.6394 Z " fill="#000000"/><a href="https://bo4e.github.io/BO4E-python/latest/api/bo4e.com.html#bo4e.com.zaehlwerk.Zaehlwerk" target="_top" title="https://bo4e.github.io/BO4E-python/latest/api/bo4e.com.html#bo4e.com.zaehlwerk.Zaehlwerk" xlink:actuate="onRequest" xlink:href="https://bo4e.github.io/BO4E-python/latest/api/bo4e.com.html#bo4e.com.zaehlwerk.Zaehlwerk" xlink:show="new" xlink:title="https://bo4e.github.io/BO4E-python/latest/api/bo4e.com.html#bo4e.com.zaehlwerk.Zaehlwerk" xlink:type="simple"><text fill="#0000FF" font-family="sans-serif" font-size="14" lengthAdjust="spacing" text-decoration="underline" textLength="72" x="696.5" y="288.0251">Zaehlwerk</text></a><text fill="#000000" font-family="sans-serif" font-size="10" lengthAdjust="spacing" textLength="99" x="683" y="300.6091">bo4e.com.zaehlwerk</text></g><!--class Verbrauch--><g id="elem_Verbrauch"><rect codeLine="20" fill="#F1F1F1" height="37.9375" id="Verbrauch" rx="2.5" ry="2.5" style="stroke:#181818;stroke-width:0.5;" width="132" x="653.5" y="343.03"/><ellipse cx="668.5" cy="361.9988" fill="#ADD1B2" rx="11" ry="11" style="stroke:#181818;stroke-width:1.0;"/><path d="M671.4688,367.6394 Q670.8906,367.9363 670.25,368.0769 Q669.6094,368.2331 668.9063,368.2331 Q666.4063,368.2331 665.0781,366.5925 Q663.7656,364.9363 663.7656,361.8113 Q663.7656,358.6863 665.0781,357.03 Q666.4063,355.3738 668.9063,355.3738 Q669.6094,355.3738 670.25,355.53 Q670.9063,355.6863 671.4688,355.9831 L671.4688,358.7019 Q670.8438,358.1238 670.25,357.8581 Q669.6563,357.5769 669.0313,357.5769 Q667.6875,357.5769 667,358.655 Q666.3125,359.7175 666.3125,361.8113 Q666.3125,363.905 667,364.9831 Q667.6875,366.0456 669.0313,366.0456 Q669.6563,366.0456 670.25,365.78 Q670.8438,365.4988 671.4688,364.9206 L671.4688,367.6394 Z " fill="#000000"/><a href="https://bo4e.github.io/BO4E-python/latest/api/bo4e.com.html#bo4e.com.verbrauch.Verbrauch" target="_top" title="https://bo4e.github.io/BO4E-python/latest/api/bo4e.com.html#bo4e.com.verbrauch.Verbrauch" xlink:actuate="onRequest" xlink:href="https://bo4e.github.io/BO4E-python/latest/api/bo4e.com.html#bo4e.com.verbrauch.Verbrauch" xlink:show="new" xlink:title="https://bo4e.github.io/BO4E-python/latest/api/bo4e.com.html#bo4e.com.verbrauch.Verbrauch" xlink:type="simple"><text fill="#0000FF" font-family="sans-serif" font-size="14" lengthAdjust="spacing" text-decoration="underline" textLength="71" x="697" y="361.0251">Verbrauch</text></a><text fill="#000000" font-family="sans-serif" font-size="10" lengthAdjust="spacing" textLength="100" x="682.5" y="373.6091">bo4e.com.verbrauch</text></g><!--class Katasteradresse--><g id="elem_Katasteradresse"><rect codeLine="21" fill="#F1F1F1" height="37.9375" id="Katasteradresse" rx="2.5" ry="2.5" style="stroke:#181818;stroke-width:0.5;" width="161" x="639" y="416.03"/><ellipse cx="654" cy="434.9988" fill="#ADD1B2" rx="11" ry="11" style="stroke:#181818;stroke-width:1.0;"/><path d="M656.9688,440.6394 Q656.3906,440.9363 655.75,441.0769 Q655.1094,441.2331 654.4063,441.2331 Q651.9063,441.2331 650.5781,439.5925 Q649.2656,437.9363 649.2656,434.8113 Q649.2656,431.6863 650.5781,430.03 Q651.9063,428.3738 654.4063,428.3738 Q655.1094,428.3738 655.75,428.53 Q656.4063,428.6863 656.9688,428.9831 L656.9688,431.7019 Q656.3438,431.1238 655.75,430.8581 Q655.1563,430.5769 654.5313,430.5769 Q653.1875,430.5769 652.5,431.655 Q651.8125,432.7175 651.8125,434.8113 Q651.8125,436.905 652.5,437.9831 Q653.1875,439.0456 654.5313,439.0456 Q655.1563,439.0456 655.75,438.78 Q656.3438,438.4988 656.9688,437.9206 L656.9688,440.6394 Z " fill="#000000"/><a href="https://bo4e.github.io/BO4E-python/latest/api/bo4e.com.html#bo4e.com.katasteradresse.Katasteradresse" target="_top" title="https://bo4e.github.io/BO4E-python/latest/api/bo4e.com.html#bo4e.com.katasteradresse.Katasteradresse" xlink:actuate="onRequest" xlink:href="https://bo4e.github.io/BO4E-python/latest/api/bo4e.com.html#bo4e.com.katasteradresse.Katasteradresse" xlink:show="new" xlink:title="https://bo4e.github.io/BO4E-python/latest/api/bo4e.com.html#bo4e.com.katasteradresse.Katasteradresse" xlink:type="simple"><text fill="#0000FF" font-family="sans-serif" font-size="14" lengthAdjust="spacing" text-decoration="underline" textLength="113" x="676" y="434.0251">Katasteradresse</text></a><text fill="#000000" font-family="sans-serif" font-size="10" lengthAdjust="spacing" textLength="129" x="668" y="446.6091">bo4e.com.katasteradresse</text></g><!--class Geokoordinaten--><g id="elem_Geokoordinaten"><rect codeLine="22" fill="#F1F1F1" height="37.9375" id="Geokoordinaten" rx="2.5" ry="2.5" style="stroke:#181818;stroke-width:0.5;" width="158" x="640.5" y="489.03"/><ellipse cx="655.5" cy="507.9988" fill="#ADD1B2" rx="11" ry="11" style="stroke:#181818;stroke-width:1.0;"/><path d="M658.4688,513.6394 Q657.8906,513.9363 657.25,514.0769 Q656.6094,514.2331 655.9063,514.2331 Q653.4063,514.2331 652.0781,512.5925 Q650.7656,510.9363 650.7656,507.8113 Q650.7656,504.6863 652.0781,503.03 Q653.4063,501.3738 655.9063,501.3738 Q656.6094,501.3738 657.25,501.53 Q657.9063,501.6863 658.4688,501.9831 L658.4688,504.7019 Q657.8438,504.1238 657.25,503.8581 Q656.6563,503.5769 656.0313,503.5769 Q654.6875,503.5769 654,504.655 Q653.3125,505.7175 653.3125,507.8113 Q653.3125,509.905 654,510.9831 Q654.6875,512.0456 656.0313,512.0456 Q656.6563,512.0456 657.25,511.78 Q657.8438,511.4988 658.4688,510.9206 L658.4688,513.6394 Z " fill="#000000"/><a href="https://bo4e.github.io/BO4E-python/latest/api/bo4e.com.html#bo4e.com.geokoordinaten.Geokoordinaten" target="_top" title="https://bo4e.github.io/BO4E-python/latest/api/bo4e.com.html#bo4e.com.geokoordinaten.Geokoordinaten" xlink:actuate="onRequest" xlink:href="https://bo4e.github.io/BO4E-python/latest/api/bo4e.com.html#bo4e.com.geokoordinaten.Geokoordinaten" xlink:show="new" xlink:title="https://bo4e.github.io/BO4E-python/latest/api/bo4e.com.html#bo4e.com.geokoordinaten.Geokoordinaten" xlink:type="simple"><text fill="#0000FF" font-family="sans-serif" font-size="14" lengthAdjust="spacing" text-decoration="underline" textLength="112" x="676.5" y="507.0251">Geokoordinaten</text></a><text fill="#000000" font-family="sans-serif" font-size="10" lengthAdjust="spacing" textLength="126" x="669.5" y="519.6091">bo4e.com.geokoordinaten</text></g><!--class Adresse--><g id="elem_Adresse"><rect codeLine="23" fill="#F1F1F1" height="37.9375" id="Adresse" rx="2.5" ry="2.5" style="stroke:#181818;stroke-width:0.5;" width="121" x="659" y="562.03"/><ellipse cx="674" cy="580.9988" fill="#ADD1B2" rx="11" ry="11" style="stroke:#181818;stroke-width:1.0;"/><path d="M676.9688,586.6394 Q676.3906,586.9363 675.75,587.0769 Q675.1094,587.2331 674.4063,587.2331 Q671.9063,587.2331 670.5781,585.5925 Q669.2656,583.9363 669.2656,580.8113 Q669.2656,577.6863 670.5781,576.03 Q671.9063,574.3738 674.4063,574.3738 Q675.1094,574.3738 675.75,574.53 Q676.4063,574.6863 676.9688,574.9831 L676.9688,577.7019 Q676.3438,577.1238 675.75,576.8581 Q675.1563,576.5769 674.5313,576.5769 Q673.1875,576.5769 672.5,577.655 Q671.8125,578.7175 671.8125,580.8113 Q671.8125,582.905 672.5,583.9831 Q673.1875,585.0456 674.5313,585.0456 Q675.1563,585.0456 675.75,584.78 Q676.3438,584.4988 676.9688,583.9206 L676.9688,586.6394 Z " fill="#000000"/><a href="https://bo4e.github.io/BO4E-python/latest/api/bo4e.com.html#bo4e.com.adresse.Adresse" target="_top" title="https://bo4e.github.io/BO4E-python/latest/api/bo4e.com.html#bo4e.com.adresse.Adresse" xlink:actuate="onRequest" xlink:href="https://bo4e.github.io/BO4E-python/latest/api/bo4e.com.html#bo4e.com.adresse.Adresse" xlink:show="new" xlink:title="https://bo4e.github.io/BO4E-python/latest/api/bo4e.com.html#bo4e.com.adresse.Adresse" xlink:type="simple"><text fill="#0000FF" font-family="sans-serif" font-size="14" lengthAdjust="spacing" text-decoration="underline" textLength="57" x="704" y="580.0251">Adresse</text></a><text fill="#000000" font-family="sans-serif" font-size="10" lengthAdjust="spacing" textLength="89" x="688" y="592.6091">bo4e.com.adresse</text></g><!--class Messlokationszuordnung--><g id="elem_Messlokationszuordnung"><rect codeLine="24" fill="#F1F1F1" height="37.9375" id="Messlokationszuordnung" rx="2.5" ry="2.5" style="stroke:#181818;stroke-width:0.5;" width="207" x="616" y="635.03"/><ellipse cx="631" cy="653.9988" fill="#ADD1B2" rx="11" ry="11" style="stroke:#181818;stroke-width:1.0;"/><path d="M633.9688,659.6394 Q633.3906,659.9363 632.75,660.0769 Q632.1094,660.2331 631.4063,660.2331 Q628.9063,660.2331 627.5781,658.5925 Q626.2656,656.9363 626.2656,653.8113 Q626.2656,650.6863 627.5781,649.03 Q628.9063,647.3738 631.4063,647.3738 Q632.1094,647.3738 632.75,647.53 Q633.4063,647.6863 633.9688,647.9831 L633.9688,650.7019 Q633.3438,650.1238 632.75,649.8581 Q632.1563,649.5769 631.5313,649.5769 Q630.1875,649.5769 629.5,650.655 Q628.8125,651.7175 628.8125,653.8113 Q628.8125,655.905 629.5,656.9831 Q630.1875,658.0456 631.5313,658.0456 Q632.1563,658.0456 632.75,657.78 Q633.3438,657.4988 633.9688,656.9206 L633.9688,659.6394 Z " fill="#000000"/><a href="https://bo4e.github.io/BO4E-python/latest/api/bo4e.com.html#bo4e.com.messlokationszuordnung.Messlokationszuordnung" target="_top" title="https://bo4e.github.io/BO4E-python/latest/api/bo4e.com.html#bo4e.com.messlokationszuordnung.Messlokationszuordnung" xlink:actuate="onRequest" xlink:href="https://bo4e.github.io/BO4E-python/latest/api/bo4e.com.html#bo4e.com.messlokationszuordnung.Messlokationszuordnung" xlink:show="new" xlink:title="https://bo4e.github.io/BO4E-python/latest/api/bo4e.com.html#bo4e.com.messlokationszuordnung.Messlokationszuordnung" xlink:type="simple"><text fill="#0000FF" font-family="sans-serif" font-size="14" lengthAdjust="spacing" text-decoration="underline" textLength="175" x="645" y="653.0251">Messlokationszuordnung</text></a><text fill="#000000" font-family="sans-serif" font-size="10" lengthAdjust="spacing" textLength="170" x="647.5" y="665.6091">bo4e.com.messlokationszuordnung</text></g><!--class Gasqualitaet--><g id="elem_Gasqualitaet"><rect codeLine="27" fill="#F1F1F1" height="37.9375" id="Gasqualitaet" rx="2.5" ry="2.5" style="stroke:#181818;stroke-width:0.5;" width="149" x="645" y="748.03"/><ellipse cx="660" cy="766.9988" fill="#ADD1B2" rx="11" ry="11" style="stroke:#181818;stroke-width:1.0;"/><path d="M662.9688,772.6394 Q662.3906,772.9363 661.75,773.0769 Q661.1094,773.2331 660.4063,773.2331 Q657.9063,773.2331 656.5781,771.5925 Q655.2656,769.9363 655.2656,766.8113 Q655.2656,763.6863 656.5781,762.03 Q657.9063,760.3738 660.4063,760.3738 Q661.1094,760.3738 661.75,760.53 Q662.4063,760.6863 662.9688,760.9831 L662.9688,763.7019 Q662.3438,763.1238 661.75,762.8581 Q661.1563,762.5769 660.5313,762.5769 Q659.1875,762.5769 658.5,763.655 Q657.8125,764.7175 657.8125,766.8113 Q657.8125,768.905 658.5,769.9831 Q659.1875,771.0456 660.5313,771.0456 Q661.1563,771.0456 661.75,770.78 Q662.3438,770.4988 662.9688,769.9206 L662.9688,772.6394 Z " fill="#000000"/><a href="https://bo4e.github.io/BO4E-python/latest/api/bo4e.enum.html#bo4e.enum.gasqualitaet.Gasqualitaet" target="_top" title="https://bo4e.github.io/BO4E-python/latest/api/bo4e.enum.html#bo4e.enum.gasqualitaet.Gasqualitaet" xlink:actuate="onRequest" xlink:href="https://bo4e.github.io/BO4E-python/latest/api/bo4e.enum.html#bo4e.enum.gasqualitaet.Gasqualitaet" xlink:show="new" xlink:title="https://bo4e.github.io/BO4E-python/latest/api/bo4e.enum.html#bo4e.enum.gasqualitaet.Gasqualitaet" xlink:type="simple"><text fill="#0000FF" font-family="sans-serif" font-size="14" lengthAdjust="spacing" text-decoration="underline" textLength="86" x="689.5" y="766.0251">Gasqualitaet</text></a><text fill="#000000" font-family="sans-serif" font-size="10" lengthAdjust="spacing" textLength="117" x="674" y="778.6091">bo4e.enum.gasqualitaet</text></g><!--class Netzebene--><g id="elem_Netzebene"><rect codeLine="28" fill="#F1F1F1" height="37.9375" id="Netzebene" rx="2.5" ry="2.5" style="stroke:#181818;stroke-width:0.5;" width="141" x="649" y="821.03"/><ellipse cx="664" cy="839.9988" fill="#ADD1B2" rx="11" ry="11" style="stroke:#181818;stroke-width:1.0;"/><path d="M666.9688,845.6394 Q666.3906,845.9363 665.75,846.0769 Q665.1094,846.2331 664.4063,846.2331 Q661.9063,846.2331 660.5781,844.5925 Q659.2656,842.9363 659.2656,839.8113 Q659.2656,836.6863 660.5781,835.03 Q661.9063,833.3738 664.4063,833.3738 Q665.1094,833.3738 665.75,833.53 Q666.4063,833.6863 666.9688,833.9831 L666.9688,836.7019 Q666.3438,836.1238 665.75,835.8581 Q665.1563,835.5769 664.5313,835.5769 Q663.1875,835.5769 662.5,836.655 Q661.8125,837.7175 661.8125,839.8113 Q661.8125,841.905 662.5,842.9831 Q663.1875,844.0456 664.5313,844.0456 Q665.1563,844.0456 665.75,843.78 Q666.3438,843.4988 666.9688,842.9206 L666.9688,845.6394 Z " fill="#000000"/><a href="https://bo4e.github.io/BO4E-python/latest/api/bo4e.enum.html#bo4e.enum.netzebene.Netzebene" target="_top" title="https://bo4e.github.io/BO4E-python/latest/api/bo4e.enum.html#bo4e.enum.netzebene.Netzebene" xlink:actuate="onRequest" xlink:href="https://bo4e.github.io/BO4E-python/latest/api/bo4e.enum.html#bo4e.enum.netzebene.Netzebene" xlink:show="new" xlink:title="https://bo4e.github.io/BO4E-python/latest/api/bo4e.enum.html#bo4e.enum.netzebene.Netzebene" xlink:type="simple"><text fill="#0000FF" font-family="sans-serif" font-size="14" lengthAdjust="spacing" text-decoration="underline" textLength="77" x="694" y="839.0251">Netzebene</text></a><text fill="#000000" font-family="sans-serif" font-size="10" lengthAdjust="spacing" textLength="109" x="678" y="851.6091">bo4e.enum.netzebene</text></g><!--class Bilanzierungsmethode--><g id="elem_Bilanzierungsmethode"><rect codeLine="29" fill="#F1F1F1" height="37.9375" id="Bilanzierungsmethode" rx="2.5" ry="2.5" style="stroke:#181818;stroke-width:0.5;" width="196" x="621.5" y="894.03"/><ellipse cx="636.5" cy="912.9988" fill="#ADD1B2" rx="11" ry="11" style="stroke:#181818;stroke-width:1.0;"/><path d="M639.4688,918.6394 Q638.8906,918.9363 638.25,919.0769 Q637.6094,919.2331 636.9063,919.2331 Q634.4063,919.2331 633.0781,917.5925 Q631.7656,915.9363 631.7656,912.8113 Q631.7656,909.6863 633.0781,908.03 Q634.4063,906.3738 636.9063,906.3738 Q637.6094,906.3738 638.25,906.53 Q638.9063,906.6863 639.4688,906.9831 L639.4688,909.7019 Q638.8438,909.1238 638.25,908.8581 Q637.6563,908.5769 637.0313,908.5769 Q635.6875,908.5769 635,909.655 Q634.3125,910.7175 634.3125,912.8113 Q634.3125,914.905 635,915.9831 Q635.6875,917.0456 637.0313,917.0456 Q637.6563,917.0456 638.25,916.78 Q638.8438,916.4988 639.4688,915.9206 L639.4688,918.6394 Z " fill="#000000"/><a href="https://bo4e.github.io/BO4E-python/latest/api/bo4e.enum.html#bo4e.enum.bilanzierungsmethode.Bilanzierungsmethode" target="_top" title="https://bo4e.github.io/BO4E-python/latest/api/bo4e.enum.html#bo4e.enum.bilanzierungsmethode.Bilanzierungsmethode" xlink:actuate="onRequest" xlink:href="https://bo4e.github.io/BO4E-python/latest/api/bo4e.enum.html#bo4e.enum.bilanzierungsmethode.Bilanzierungsmethode" xlink:show="new" xlink:title="https://bo4e.github.io/BO4E-python/latest/api/bo4e.enum.html#bo4e.enum.bilanzierungsmethode.Bilanzierungsmethode" xlink:type="simple"><text fill="#0000FF" font-family="sans-serif" font-size="14" lengthAdjust="spacing" text-decoration="underline" textLength="156" x="654.5" y="912.0251">Bilanzierungsmethode</text></a><text fill="#000000" font-family="sans-serif" font-size="10" lengthAdjust="spacing" textLength="164" x="650.5" y="924.6091">bo4e.enum.bilanzierungsmethode</text></g><!--class Energierichtung--><g id="elem_Energierichtung"><rect codeLine="30" fill="#F1F1F1" height="37.9375" id="Energierichtung" rx="2.5" ry="2.5" style="stroke:#181818;stroke-width:0.5;" width="165" x="637" y="967.03"/><ellipse cx="652" cy="985.9988" fill="#ADD1B2" rx="11" ry="11" style="stroke:#181818;stroke-width:1.0;"/><path d="M654.9688,991.6394 Q654.3906,991.9363 653.75,992.0769 Q653.1094,992.2331 652.4063,992.2331 Q649.9063,992.2331 648.5781,990.5925 Q647.2656,988.9363 647.2656,985.8113 Q647.2656,982.6863 648.5781,981.03 Q649.9063,979.3738 652.4063,979.3738 Q653.1094,979.3738 653.75,979.53 Q654.4063,979.6863 654.9688,979.9831 L654.9688,982.7019 Q654.3438,982.1238 653.75,981.8581 Q653.1563,981.5769 652.5313,981.5769 Q651.1875,981.5769 650.5,982.655 Q649.8125,983.7175 649.8125,985.8113 Q649.8125,987.905 650.5,988.9831 Q651.1875,990.0456 652.5313,990.0456 Q653.1563,990.0456 653.75,989.78 Q654.3438,989.4988 654.9688,988.9206 L654.9688,991.6394 Z " fill="#000000"/><a href="https://bo4e.github.io/BO4E-python/latest/api/bo4e.enum.html#bo4e.enum.energierichtung.Energierichtung" target="_top" title="https://bo4e.github.io/BO4E-python/latest/api/bo4e.enum.html#bo4e.enum.energierichtung.Energierichtung" xlink:actuate="onRequest" xlink:href="https://bo4e.github.io/BO4E-python/latest/api/bo4e.enum.html#bo4e.enum.energierichtung.Energierichtung" xlink:show="new" xlink:title="https://bo4e.github.io/BO4E-python/latest/api/bo4e.enum.html#bo4e.enum.energierichtung.Energierichtung" xlink:type="simple"><text fill="#0000FF" font-family="sans-serif" font-size="14" lengthAdjust="spacing" text-decoration="underline" textLength="110" x="677.5" y="985.0251">Energierichtung</text></a><text fill="#000000" font-family="sans-serif" font-size="10" lengthAdjust="spacing" textLength="133" x="666" y="997.6091">bo4e.enum.energierichtung</text></g><!--class Gebiettyp--><g id="elem_Gebiettyp"><rect codeLine="31" fill="#F1F1F1" height="37.9375" id="Gebiettyp" rx="2.5" ry="2.5" style="stroke:#181818;stroke-width:0.5;" width="136" x="651.5" y="1040.03"/><ellipse cx="666.5" cy="1058.9988" fill="#ADD1B2" rx="11" ry="11" style="stroke:#181818;stroke-width:1.0;"/><path d="M669.4688,1064.6394 Q668.8906,1064.9363 668.25,1065.0769 Q667.6094,1065.2331 666.9063,1065.2331 Q664.4063,1065.2331 663.0781,1063.5925 Q661.7656,1061.9363 661.7656,1058.8113 Q661.7656,1055.6863 663.0781,1054.03 Q664.4063,1052.3738 666.9063,1052.3738 Q667.6094,1052.3738 668.25,1052.53 Q668.9063,1052.6863 669.4688,1052.9831 L669.4688,1055.7019 Q668.8438,1055.1238 668.25,1054.8581 Q667.6563,1054.5769 667.0313,1054.5769 Q665.6875,1054.5769 665,1055.655 Q664.3125,1056.7175 664.3125,1058.8113 Q664.3125,1060.905 665,1061.9831 Q665.6875,1063.0456 667.0313,1063.0456 Q667.6563,1063.0456 668.25,1062.78 Q668.8438,1062.4988 669.4688,1061.9206 L669.4688,1064.6394 Z " fill="#000000"/><a href="https://bo4e.github.io/BO4E-python/latest/api/bo4e.enum.html#bo4e.enum.gebiettyp.Gebiettyp" target="_top" title="https://bo4e.github.io/BO4E-python/latest/api/bo4e.enum.html#bo4e.enum.gebiettyp.Gebiettyp" xlink:actuate="onRequest" xlink:href="https://bo4e.github.io/BO4E-python/latest/api/bo4e.enum.html#bo4e.enum.gebiettyp.Gebiettyp" xlink:show="new" xlink:title="https://bo4e.github.io/BO4E-python/latest/api/bo4e.enum.html#bo4e.enum.gebiettyp.Gebiettyp" xlink:type="simple"><text fill="#0000FF" font-family="sans-serif" font-size="14" lengthAdjust="spacing" text-decoration="underline" textLength="67" x="699" y="1058.0251">Gebiettyp</text></a><text fill="#000000" font-family="sans-serif" font-size="10" lengthAdjust="spacing" textLength="104" x="680.5" y="1070.6091">bo4e.enum.gebiettyp</text></g><!--class Sparte--><g id="elem_Sparte"><rect codeLine="32" fill="#F1F1F1" height="37.9375" id="Sparte" rx="2.5" ry="2.5" style="stroke:#181818;stroke-width:0.5;" width="121" x="659" y="1113.03"/><ellipse cx="674" cy="1131.9988" fill="#ADD1B2" rx="11" ry="11" style="stroke:#181818;stroke-width:1.0;"/><path d="M676.9688,1137.6394 Q676.3906,1137.9363 675.75,1138.0769 Q675.1094,1138.2331 674.4063,1138.2331 Q671.9063,1138.2331 670.5781,1136.5925 Q669.2656,1134.9363 669.2656,1131.8113 Q669.2656,1128.6863 670.5781,1127.03 Q671.9063,1125.3738 674.4063,1125.3738 Q675.1094,1125.3738 675.75,1125.53 Q676.4063,1125.6863 676.9688,1125.9831 L676.9688,1128.7019 Q676.3438,1128.1238 675.75,1127.8581 Q675.1563,1127.5769 674.5313,1127.5769 Q673.1875,1127.5769 672.5,1128.655 Q671.8125,1129.7175 671.8125,1131.8113 Q671.8125,1133.905 672.5,1134.9831 Q673.1875,1136.0456 674.5313,1136.0456 Q675.1563,1136.0456 675.75,1135.78 Q676.3438,1135.4988 676.9688,1134.9206 L676.9688,1137.6394 Z " fill="#000000"/><a href="https://bo4e.github.io/BO4E-python/latest/api/bo4e.enum.html#bo4e.enum.sparte.Sparte" target="_top" title="https://bo4e.github.io/BO4E-python/latest/api/bo4e.enum.html#bo4e.enum.sparte.Sparte" xlink:actuate="onRequest" xlink:href="https://bo4e.github.io/BO4E-python/latest/api/bo4e.enum.html#bo4e.enum.sparte.Sparte" xlink:show="new" xlink:title="https://bo4e.github.io/BO4E-python/latest/api/bo4e.enum.html#bo4e.enum.sparte.Sparte" xlink:type="simple"><text fill="#0000FF" font-family="sans-serif" font-size="14" lengthAdjust="spacing" text-decoration="underline" textLength="45" x="710" y="1131.0251">Sparte</text></a><text fill="#000000" font-family="sans-serif" font-size="10" lengthAdjust="spacing" textLength="89" x="688" y="1143.6091">bo4e.enum.sparte</text></g><!--class Kundentyp--><g id="elem_Kundentyp"><rect codeLine="33" fill="#F1F1F1" height="37.9375" id="Kundentyp" rx="2.5" ry="2.5" style="stroke:#181818;stroke-width:0.5;" width="141" x="649" y="1186.03"/><ellipse cx="664" cy="1204.9988" fill="#ADD1B2" rx="11" ry="11" style="stroke:#181818;stroke-width:1.0;"/><path d="M666.9688,1210.6394 Q666.3906,1210.9363 665.75,1211.0769 Q665.1094,1211.2331 664.4063,1211.2331 Q661.9063,1211.2331 660.5781,1209.5925 Q659.2656,1207.9363 659.2656,1204.8113 Q659.2656,1201.6863 660.5781,1200.03 Q661.9063,1198.3738 664.4063,1198.3738 Q665.1094,1198.3738 665.75,1198.53 Q666.4063,1198.6863 666.9688,1198.9831 L666.9688,1201.7019 Q666.3438,1201.1238 665.75,1200.8581 Q665.1563,1200.5769 664.5313,1200.5769 Q663.1875,1200.5769 662.5,1201.655 Q661.8125,1202.7175 661.8125,1204.8113 Q661.8125,1206.905 662.5,1207.9831 Q663.1875,1209.0456 664.5313,1209.0456 Q665.1563,1209.0456 665.75,1208.78 Q666.3438,1208.4988 666.9688,1207.9206 L666.9688,1210.6394 Z " fill="#000000"/><a href="https://bo4e.github.io/BO4E-python/latest/api/bo4e.enum.html#bo4e.enum.kundentyp.Kundentyp" target="_top" title="https://bo4e.github.io/BO4E-python/latest/api/bo4e.enum.html#bo4e.enum.kundentyp.Kundentyp" xlink:actuate="onRequest" xlink:href="https://bo4e.github.io/BO4E-python/latest/api/bo4e.enum.html#bo4e.enum.kundentyp.Kundentyp" xlink:show="new" xlink:title="https://bo4e.github.io/BO4E-python/latest/api/bo4e.enum.html#bo4e.enum.kundentyp.Kundentyp" xlink:type="simple"><text fill="#0000FF" font-family="sans-serif" font-size="14" lengthAdjust="spacing" text-decoration="underline" textLength="75" x="695" y="1204.0251">Kundentyp</text></a><text fill="#000000" font-family="sans-serif" font-size="10" lengthAdjust="spacing" textLength="109" x="678" y="1216.6091">bo4e.enum.kundentyp</text></g><!--class Verbrauchsart--><g id="elem_Verbrauchsart"><rect codeLine="34" fill="#F1F1F1" height="37.9375" id="Verbrauchsart" rx="2.5" ry="2.5" style="stroke:#181818;stroke-width:0.5;" width="158" x="640.5" y="1259.03"/><ellipse cx="655.5" cy="1277.9988" fill="#ADD1B2" rx="11" ry="11" style="stroke:#181818;stroke-width:1.0;"/><path d="M658.4688,1283.6394 Q657.8906,1283.9363 657.25,1284.0769 Q656.6094,1284.2331 655.9063,1284.2331 Q653.4063,1284.2331 652.0781,1282.5925 Q650.7656,1280.9363 650.7656,1277.8113 Q650.7656,1274.6863 652.0781,1273.03 Q653.4063,1271.3738 655.9063,1271.3738 Q656.6094,1271.3738 657.25,1271.53 Q657.9063,1271.6863 658.4688,1271.9831 L658.4688,1274.7019 Q657.8438,1274.1238 657.25,1273.8581 Q656.6563,1273.5769 656.0313,1273.5769 Q654.6875,1273.5769 654,1274.655 Q653.3125,1275.7175 653.3125,1277.8113 Q653.3125,1279.905 654,1280.9831 Q654.6875,1282.0456 656.0313,1282.0456 Q656.6563,1282.0456 657.25,1281.78 Q657.8438,1281.4988 658.4688,1280.9206 L658.4688,1283.6394 Z " fill="#000000"/><a href="https://bo4e.github.io/BO4E-python/latest/api/bo4e.enum.html#bo4e.enum.verbrauchsart.Verbrauchsart" target="_top" title="https://bo4e.github.io/BO4E-python/latest/api/bo4e.enum.html#bo4e.enum.verbrauchsart.Verbrauchsart" xlink:actuate="onRequest" xlink:href="https://bo4e.github.io/BO4E-python/latest/api/bo4e.enum.html#bo4e.enum.verbrauchsart.Verbrauchsart" xlink:show="new" xlink:title="https://bo4e.github.io/BO4E-python/latest/api/bo4e.enum.html#bo4e.enum.verbrauchsart.Verbrauchsart" xlink:type="simple"><text fill="#0000FF" font-family="sans-serif" font-size="14" lengthAdjust="spacing" text-decoration="underline" textLength="97" x="684" y="1277.0251">Verbrauchsart</text></a><text fill="#000000" font-family="sans-serif" font-size="10" lengthAdjust="spacing" textLength="126" x="669.5" y="1289.6091">bo4e.enum.verbrauchsart</text></g><!--class Marktlokation--><g id="elem_Marktlokation"><rect codeLine="3" fill="#F1F1F1" height="176.3125" id="Marktlokation" rx="2.5" ry="2.5" style="stroke:#181818;stroke-width:0.5;" width="296" x="7" y="565.84"/><ellipse cx="96.75" cy="584.8088" fill="#ADD1B2" rx="11" ry="11" style="stroke:#181818;stroke-width:1.0;"/><path d="M99.7188,590.4494 Q99.1406,590.7463 98.5,590.8869 Q97.8594,591.0431 97.1563,591.0431 Q94.6563,591.0431 93.3281,589.4025 Q92.0156,587.7463 92.0156,584.6213 Q92.0156,581.4963 93.3281,579.84 Q94.6563,578.1838 97.1563,578.1838 Q97.8594,578.1838 98.5,578.34 Q99.1563,578.4963 99.7188,578.7931 L99.7188,581.5119 Q99.0938,580.9338 98.5,580.6681 Q97.9063,580.3869 97.2813,580.3869 Q95.9375,580.3869 95.25,581.465 Q94.5625,582.5275 94.5625,584.6213 Q94.5625,586.715 95.25,587.7931 Q95.9375,588.8556 97.2813,588.8556 Q97.9063,588.8556 98.5,588.59 Q99.0938,588.3088 99.7188,587.7306 L99.7188,590.4494 Z " fill="#000000"/><a href="https://bo4e.github.io/BO4E-python/latest/api/bo4e.bo.html#bo4e.bo.marktlokation.Marktlokation" target="_top" title="https://bo4e.github.io/BO4E-python/latest/api/bo4e.bo.html#bo4e.bo.marktlokation.Marktlokation" xlink:actuate="onRequest" xlink:href="https://bo4e.github.io/BO4E-python/latest/api/bo4e.bo.html#bo4e.bo.marktlokation.Marktlokation" xlink:show="new" xlink:title="https://bo4e.github.io/BO4E-python/latest/api/bo4e.bo.html#bo4e.bo.marktlokation.Marktlokation" xlink:type="simple"><text fill="#0000FF" font-family="sans-serif" font-size="14" lengthAdjust="spacing" text-decoration="underline" textLength="92" x="125.25" y="583.8351">Marktlokation</text></a><text fill="#000000" font-family="sans-serif" font-size="10" lengthAdjust="spacing" textLength="108" x="117.25" y="596.4191">bo4e.bo.marktlokation</text><line style="stroke:#181818;stroke-width:0.5;" x1="8" x2="302" y1="603.7775" y2="603.7775"/><text fill="#000000" font-family="sans-serif" font-size="14" lengthAdjust="spacing" textLength="241" x="13" y="620.7726">marktlokationsId : str [0..1] = None</text><text fill="#000000" font-family="sans-serif" font-size="14" lengthAdjust="spacing" textLength="256" x="13" y="637.0695">istUnterbrechbar : bool [0..1] = None</text><text fill="#000000" font-family="sans-serif" font-size="14" lengthAdjust="spacing" textLength="271" x="13" y="653.3664">netzbetreibercodenr : str [0..1] = None</text><text fill="#000000" font-family="sans-serif" font-size="14" lengthAdjust="spacing" textLength="225" x="13" y="669.6632">netzgebietsnr : str [0..1] = None</text><text fill="#000000" font-family="sans-serif" font-size="14" lengthAdjust="spacing" textLength="264" x="13" y="685.9601">bilanzierungsgebiet : str [0..1] = None</text><text fill="#000000" font-family="sans-serif" font-size="14" lengthAdjust="spacing" textLength="284" x="13" y="702.257">grundversorgercodenr : str [0..1] = None</text><text fill="#000000" font-family="sans-serif" font-size="14" lengthAdjust="spacing" textLength="198" x="13" y="718.5539">regelzone : str [0..1] = None</text><text fill="#000000" font-family="sans-serif" font-size="14" lengthAdjust="spacing" textLength="211" x="13" y="734.8507">marktgebiet : str [0..1] = None</text></g><!--link Marktlokation to Geschaeftsobjekt--><g id="link_Marktlokation_Geschaeftsobjekt"><path codeLine="37" d="M169.93,565.5 C189.49,472.03 234.44,327.56 333,249 C421.15,178.73 538.4439,168.4358 623.0839,170.1958 " fill="none" id="Marktlokation-to-Geschaeftsobjekt" style="stroke:#181818;stroke-width:1.0;"/><polygon fill="none" points="641.08,170.57,623.2086,164.1971,622.9592,176.1945,641.08,170.57" style="stroke:#181818;stroke-width:1.0;"/></g><!--link Marktlokation to Sparte--><g id="link_Marktlokation_Sparte"><path codeLine="38" d="M163.82,742.41 C178.19,846.68 218.77,1016.48 333,1101 C428.67,1171.79 564.8487,1161.473 646.8487,1147.163 " fill="none" id="Marktlokation-to-Sparte" style="stroke:#181818;stroke-width:1.0;"/><polygon fill="#181818" points="658.67,1145.1,652.0717,1142.191,646.8487,1147.163,653.447,1150.0719,658.67,1145.1" style="stroke:#181818;stroke-width:1.0;"/><text fill="#000000" font-family="sans-serif" font-size="13" lengthAdjust="spacing" textLength="41" x="426" y="1097.0669">sparte</text><text fill="#000000" font-family="sans-serif" font-size="13" lengthAdjust="spacing" textLength="24" x="627.1594" y="1159.2982">0..1</text></g><!--link Marktlokation to Energierichtung--><g id="link_Marktlokation_Energierichtung"><path codeLine="39" d="M188.64,742.48 C216.85,805.9 264.06,887.67 333,932 C424.66,990.94 541.811,997.5726 624.841,994.0226 " fill="none" id="Marktlokation-to-Energierichtung" style="stroke:#181818;stroke-width:1.0;"/><polygon fill="#181818" points="636.83,993.51,630.6646,989.77,624.841,994.0226,631.0063,997.7626,636.83,993.51" style="stroke:#181818;stroke-width:1.0;"/><text fill="#000000" font-family="sans-serif" font-size="13" lengthAdjust="spacing" textLength="100" x="396.5" y="928.0669">energierichtung</text><text fill="#000000" font-family="sans-serif" font-size="13" lengthAdjust="spacing" textLength="24" x="604.9901" y="1006.8255">0..1</text></g><!--link Marktlokation to Bilanzierungsmethode--><g id="link_Marktlokation_Bilanzierungsmethode"><path codeLine="40" d="M217.71,742.31 C248.19,779.39 288.07,819.52 333,844 C422.55,892.8 527.5267,907.4663 609.0267,911.7763 " fill="none" id="Marktlokation-to-Bilanzierungsmethode" style="stroke:#181818;stroke-width:1.0;"/><polygon fill="#181818" points="621.01,912.41,615.2296,908.0987,609.0267,911.7763,614.8071,916.0876,621.01,912.41" style="stroke:#181818;stroke-width:1.0;"/><text fill="#000000" font-family="sans-serif" font-size="13" lengthAdjust="spacing" textLength="142" x="375.5" y="840.0669">bilanzierungsmethode</text><text fill="#000000" font-family="sans-serif" font-size="13" lengthAdjust="spacing" textLength="24" x="589.5865" y="924.9457">0..1</text></g><!--link Marktlokation to Netzebene--><g id="link_Marktlokation_Netzebene"><path codeLine="41" d="M295.93,742.52 C308.23,748.6 320.68,754.2 333,759 C438.95,800.25 557.9701,820.533 636.7401,830.773 " fill="none" id="Marktlokation-to-Netzebene" style="stroke:#181818;stroke-width:1.0;"/><polygon fill="#181818" points="648.64,832.32,643.2057,827.5799,636.7401,830.773,642.1744,835.5131,648.64,832.32" style="stroke:#181818;stroke-width:1.0;"/><text fill="#000000" font-family="sans-serif" font-size="13" lengthAdjust="spacing" textLength="68" x="412.5" y="755.0669">netzebene</text><text fill="#000000" font-family="sans-serif" font-size="13" lengthAdjust="spacing" textLength="24" x="617.0013" y="844.3765">0..1</text></g><!--link Marktlokation to Verbrauchsart--><g id="link_Marktlokation_Verbrauchsart"><path codeLine="42" d="M169.06,742.6 C193.51,895.03 251.19,1196.77 333,1261 C422.45,1331.22 551.0445,1318.3421 635.4445,1299.9721 " fill="none" id="Marktlokation-to-Verbrauchsart" style="stroke:#181818;stroke-width:1.0;"/><polygon fill="#181818" points="647.17,1297.42,640.4566,1294.7876,635.4445,1299.9721,642.158,1302.6045,647.17,1297.42" style="stroke:#181818;stroke-width:1.0;"/><text fill="#000000" font-family="sans-serif" font-size="13" lengthAdjust="spacing" textLength="89" x="402" y="1257.0669">verbrauchsart</text><text fill="#000000" font-family="sans-serif" font-size="13" lengthAdjust="spacing" textLength="24" x="608.6758" y="1314.1254">0..1</text></g><!--link Marktlokation to Gebiettyp--><g id="link_Marktlokation_Gebiettyp"><path codeLine="43" d="M173.28,742.32 C194.99,827.76 241.12,953.5 333,1018 C427.47,1084.32 556.4659,1081.6131 639.1859,1071.6631 " fill="none" id="Marktlokation-to-Gebiettyp" style="stroke:#181818;stroke-width:1.0;"/><polygon fill="#181818" points="651.1,1070.23,644.6652,1066.9752,639.1859,1071.6631,645.6206,1074.9179,651.1,1070.23" style="stroke:#181818;stroke-width:1.0;"/><text fill="#000000" font-family="sans-serif" font-size="13" lengthAdjust="spacing" textLength="67" x="413" y="1014.0669">gebietstyp</text><text fill="#000000" font-family="sans-serif" font-size="13" lengthAdjust="spacing" textLength="24" x="619.4369" y="1084.0885">0..1</text></g><!--link Marktlokation to Gasqualitaet--><g id="link_Marktlokation_Gasqualitaet"><path codeLine="44" d="M303.42,683.62 C413.12,705.65 546.4752,732.4356 632.8552,749.7956 " fill="none" id="Marktlokation-to-Gasqualitaet" style="stroke:#181818;stroke-width:1.0;"/><polygon fill="#181818" points="644.62,752.16,639.5257,747.0562,632.8552,749.7956,637.9495,754.8994,644.62,752.16" style="stroke:#181818;stroke-width:1.0;"/><text fill="#000000" font-family="sans-serif" font-size="13" lengthAdjust="spacing" textLength="79" x="407" y="687.0669">gasqualitaet</text><text fill="#000000" font-family="sans-serif" font-size="13" lengthAdjust="spacing" textLength="24" x="612.8823" y="763.5792">0..1</text></g><!--link Marktlokation to Geschaeftspartner--><g id="link_Marktlokation_Geschaeftspartner"><path codeLine="45" d="M164.35,565.53 C179.26,459.16 220.41,282.9 333,186 C417.97,112.87 539.9601,99.3765 625.5001,99.1165 " fill="none" id="Marktlokation-to-Geschaeftspartner" style="stroke:#181818;stroke-width:1.0;"/><polygon fill="#181818" points="637.5,99.08,631.4879,95.0983,625.5001,99.1165,631.5122,103.0982,637.5,99.08" style="stroke:#181818;stroke-width:1.0;"/><text fill="#000000" font-family="sans-serif" font-size="13" lengthAdjust="spacing" textLength="63" x="415" y="100.0669">endkunde</text><text fill="#000000" font-family="sans-serif" font-size="13" lengthAdjust="spacing" textLength="24" x="606.0094" y="111.4376">0..1</text></g><!--link Marktlokation to Messlokationszuordnung--><g id="link_Marktlokation_Messlokationszuordnung"><path codeLine="46" d="M303.42,654 C401.73,654 516.47,654 603.91,654 " fill="none" id="Marktlokation-to-Messlokationszuordnung" style="stroke:#181818;stroke-width:1.0;"/><polygon fill="#181818" points="615.91,654,609.91,650,603.91,654,609.91,658,615.91,654" style="stroke:#181818;stroke-width:1.0;"/><text fill="#000000" font-family="sans-serif" font-size="13" lengthAdjust="spacing" textLength="162" x="365.5" y="650.0669">zugehoerigeMesslokation</text><text fill="#000000" font-family="sans-serif" font-size="13" lengthAdjust="spacing" textLength="24" x="584.1438" y="666.5753">0..1</text></g><!--link Marktlokation to Adresse--><g id="link_Marktlokation_Adresse"><path codeLine="47" d="M303.26,633.01 C313.32,631.64 323.31,630.29 333,629 C448.16,613.7 570.9659,598.6931 646.7859,589.5731 " fill="none" id="Marktlokation-to-Adresse" style="stroke:#181818;stroke-width:1.0;"/><polygon fill="#181818" points="658.7,588.14,652.2652,584.8852,646.7859,589.5731,653.2206,592.8279,658.7,588.14" style="stroke:#181818;stroke-width:1.0;"/><text fill="#000000" font-family="sans-serif" font-size="13" lengthAdjust="spacing" textLength="108" x="392.5" y="598.0669">lokationsadresse</text><text fill="#000000" font-family="sans-serif" font-size="13" lengthAdjust="spacing" textLength="24" x="627.1925" y="601.7236">0..1</text></g><!--link Marktlokation to Geokoordinaten--><g id="link_Marktlokation_Geokoordinaten"><path codeLine="48" d="M303.29,586.91 C313.25,583.31 323.22,579.96 333,577 C436.96,545.55 549.3836,527.986 628.1736,518.086 " fill="none" id="Marktlokation-to-Geokoordinaten" style="stroke:#181818;stroke-width:1.0;"/><polygon fill="#181818" points="640.08,516.59,633.6281,513.3692,628.1736,518.086,634.6255,521.3068,640.08,516.59" style="stroke:#181818;stroke-width:1.0;"/><text fill="#000000" font-family="sans-serif" font-size="13" lengthAdjust="spacing" textLength="75" x="409" y="526.0669">geoadresse</text><text fill="#000000" font-family="sans-serif" font-size="13" lengthAdjust="spacing" textLength="24" x="608.5093" y="529.995">0..1</text></g><!--link Marktlokation to Katasteradresse--><g id="link_Marktlokation_Katasteradresse"><path codeLine="49" d="M242.8,565.43 C269.7,542.5 300.79,520.05 333,505 C425.81,461.64 459.23,483.42 560,465 C585.62,460.32 601.7505,457.318 626.9305,452.538 " fill="none" id="Marktlokation-to-Katasteradresse" style="stroke:#181818;stroke-width:1.0;"/><polygon fill="#181818" points="638.72,450.3,632.0793,447.4892,626.9305,452.538,633.5713,455.3488,638.72,450.3" style="stroke:#181818;stroke-width:1.0;"/><text fill="#000000" font-family="sans-serif" font-size="13" lengthAdjust="spacing" textLength="126" x="383.5" y="461.0669">katasterinformation</text><text fill="#000000" font-family="sans-serif" font-size="13" lengthAdjust="spacing" textLength="24" x="607.0367" y="464.2606">0..1</text></g><!--link Marktlokation to Kundentyp--><g id="link_Marktlokation_Kundentyp"><path codeLine="50" d="M157.26,742.55 C164.26,863.58 196.56,1077.53 333,1182 C423.76,1251.5 552.8513,1240.9137 636.8113,1224.5637 " fill="none" id="Marktlokation-to-Kundentyp" style="stroke:#181818;stroke-width:1.0;"/><polygon fill="#181818" points="648.59,1222.27,641.936,1219.4906,636.8113,1224.5637,643.4652,1227.3431,648.59,1222.27" style="stroke:#181818;stroke-width:1.0;"/><text fill="#000000" font-family="sans-serif" font-size="13" lengthAdjust="spacing" textLength="100" x="396.5" y="1178.0669">kundengruppen</text><text fill="#000000" font-family="sans-serif" font-size="13" lengthAdjust="spacing" textLength="23" x="617.9928" y="1236.6266">0..*</text></g><!--link Marktlokation to Zaehlwerk--><g id="link_Marktlokation_Zaehlwerk"><path codeLine="51" d="M179.05,565.34 C203.79,489.29 251.06,383.6 333,329 C429.87,264.45 559.9525,267.4756 641.8425,277.1256 " fill="none" id="Marktlokation-to-Zaehlwerk" style="stroke:#181818;stroke-width:1.0;"/><polygon fill="#181818" points="653.76,278.53,648.2694,273.8553,641.8425,277.1256,647.3331,281.8003,653.76,278.53" style="stroke:#181818;stroke-width:1.0;"/><text fill="#000000" font-family="sans-serif" font-size="13" lengthAdjust="spacing" textLength="71" x="411" y="270.0669">zaehlwerke</text><text fill="#000000" font-family="sans-serif" font-size="13" lengthAdjust="spacing" textLength="23" x="622.7946" y="273.7507">0..*</text></g><!--link Marktlokation to Zaehlwerk--><g id="link_Marktlokation_Zaehlwerk"><path codeLine="52" d="M190.98,565.45 C219.76,504.76 266.66,427.93 333,386 C419.13,331.57 483.15,420.9 560,354 C569.76,345.5 558.68,334.98 568,326 C590.67,304.16 612.1678,296.1552 641.7278,292.1652 " fill="none" id="Marktlokation-to-Zaehlwerk-1" style="stroke:#181818;stroke-width:1.0;"/><polygon fill="#181818" points="653.62,290.56,647.1389,287.3985,641.7278,292.1652,648.209,295.3267,653.62,290.56" style="stroke:#181818;stroke-width:1.0;"/><text fill="#000000" font-family="sans-serif" font-size="13" lengthAdjust="spacing" textLength="225" x="334" y="350.0669">zaehlwerkeDerBeteiligtenMarktrolle</text><text fill="#000000" font-family="sans-serif" font-size="13" lengthAdjust="spacing" textLength="23" x="623.0029" y="303.5254">0..*</text></g><!--link Marktlokation to Verbrauch--><g id="link_Marktlokation_Verbrauch"><path codeLine="53" d="M208.94,565.48 C239.66,521.94 282.3,472.76 333,444 C421.91,393.56 469.03,453.61 560,407 C564.48,404.71 563.62,401.47 568,399 C593.9,384.4 613.7036,377.8157 641.2336,372.4257 " fill="none" id="Marktlokation-to-Verbrauch" style="stroke:#181818;stroke-width:1.0;"/><polygon fill="#181818" points="653.01,370.12,646.3532,367.3474,641.2336,372.4257,647.8903,375.1983,653.01,370.12" style="stroke:#181818;stroke-width:1.0;"/><text fill="#000000" font-family="sans-serif" font-size="13" lengthAdjust="spacing" textLength="124" x="384.5" y="403.0669">verbrauchsmengen</text><text fill="#000000" font-family="sans-serif" font-size="13" lengthAdjust="spacing" textLength="23" x="622.5766" y="383.6821">0..*</text></g><!--SRC=[jLTDZziu33qtluAOt0gCCuD-mjWja6a7HL6qFIns3vtc8DiSMnjRIYMbHTFkVozbnuhio3DUn7CA7qFIJwH4KINU6Z0I5CyB0nbNc1eknMoMbanhEBkvAOpPw7YnIEHJZ79kYcqISRcu-lJq-dppmnHIB4fcK9i5s_36Af5HOQfoteAAgRKfvPhPqD477q47hLPVn1-Qxp2-l7WLz3u3fhi-y7Fsg6EYtsKGWpOARYwYw785Vy97AN3sY6lpjp2e4bfaaJ15LecKPTzCeDabQ1Jo15KgCnGg7CyQvfXmD7h89E4b4pkEQYjotTY63NEooBwXqbBbTtzLOOxbZiJmttKgxlZIVxEPO1Ng3KlnjFB27gnMTL7s2EPNpz-yMBwqPPbo3-MequBHRYNcoWXKqTk-1euqmVrq5AccV-JxKFHbyY-kZSU-KK1VSG_tngX7lL5IZKyjSIehhyQ4_28JXFdrnVBbyzUdLhdzpjoX7SEY_8vg7Nrk9N3ISKuwBZL5Ppmris-sSx1jMaJ_j18uASpCkTJCdF7KpAZlCKsDZMKAjSReVHT33uUvzeBKZ7kEK_FEKQwbL1aNP2heIFWGkZ1CkXjXVnfyrTIKsnGlzwbTtfLIFvNBXqaX7NFjBhxTbjOjwAg9FWJL45Q7oOSZD_TlyAy9sWwAhTztBFGRZyKmpoxJ9yzElb_Sf-O7c3FzTSjARXXIW_O0-E0uNKVEpKRq5DDpjSC79YWm-jXAuAG1YiwdvkUifoVN6Nig9ByCewk04aBA0VQXeFL2GZ6cNnCbIkNq4PuMnXwnwow67XvOH2zApR_d-G3xkXu7pOyDjTYz14uQsixj__kckaVJawldBOp-gd-W-HdWr9ZMX1gxwTciQGn7OLFrlfN0IGEqd4zpPxPeUd9kdD2q-CCKOX5qq03HZdzt9B4Q-pRelSxEpt-zQYVxev6rRqpMZ-7ClZRE3lswBIozHPgIZNBg7wuOUWTdN9XWow5NNwXXZ0fuwBKnk6uwphLRhXWwnHWNud1wOzW_FEq-6-VhNsVaxbzEzmNerBvzRDcIPFNMlzVVZXC34qaCkssEXQJ2vkZRZ0hQJc4nkD3jg3h6lJTmsgJA_-FVdxDZQ8TeBcwbgkvUo6E_F8TkGq5gELVRpGRlTxT43aybocShumckRr1TeK5UyfmoKuTHiYp7XJmyZ_nTNj6IQ3cpWjCPhB1AKEcPBkHtwCMyvLXc-ZS0]--></g></svg>