<?xml version="1.0" encoding="us-ascii" standalone="no"?><svg xmlns="http://www.w3.org/2000/svg" xmlns:xlink="http://www.w3.org/1999/xlink" contentStyleType="text/css" height="833px" preserveAspectRatio="none" style="width:810px;height:833px;background:#FFFFFF;" version="1.1" viewBox="0 0 810 833" width="810px" zoomAndPan="magnify"><defs/><g><!--cluster bo4e--><g id="cluster_bo4e"><path d="M564.5,6 L605.5,6 A3.75,3.75 0 0 1 608,8.5 L615,28.2969 L800.5,28.2969 A2.5,2.5 0 0 1 803,30.7969 L803,823.5 A2.5,2.5 0 0 1 800.5,826 L564.5,826 A2.5,2.5 0 0 1 562,823.5 L562,8.5 A2.5,2.5 0 0 1 564.5,6 " fill="none" style="stroke:#000000;stroke-width:1.5;"/><line style="stroke:#000000;stroke-width:1.5;" x1="562" x2="615" y1="28.2969" y2="28.2969"/><text fill="#000000" font-family="sans-serif" font-size="14" font-weight="bold" lengthAdjust="spacing" textLength="40" x="566" y="20.9951">bo4e</text></g><!--cluster bo--><g id="cluster_bo"><path d="M591,49 L657,49 A3.75,3.75 0 0 1 659.5,51.5 L666.5,71.2969 L774,71.2969 A2.5,2.5 0 0 1 776.5,73.7969 L776.5,281.5 A2.5,2.5 0 0 1 774,284 L591,284 A2.5,2.5 0 0 1 588.5,281.5 L588.5,51.5 A2.5,2.5 0 0 1 591,49 " fill="#B6D7A8" style="stroke:#000000;stroke-width:1.5;"/><line style="stroke:#000000;stroke-width:1.5;" x1="588.5" x2="666.5" y1="71.2969" y2="71.2969"/><a href="https://bo4e.github.io/BO4E-python/latest/api/bo4e.bo.html" target="_top" title="https://bo4e.github.io/BO4E-python/latest/api/bo4e.bo.html" xlink:actuate="onRequest" xlink:href="https://bo4e.github.io/BO4E-python/latest/api/bo4e.bo.html" xlink:show="new" xlink:title="https://bo4e.github.io/BO4E-python/latest/api/bo4e.bo.html" xlink:type="simple"><text fill="#0000FF" font-family="sans-serif" font-size="14" font-weight="bold" lengthAdjust="spacing" text-decoration="underline" textLength="65" x="592.5" y="63.9951">bo4e.bo</text></a></g><!--cluster com--><g id="cluster_com"><path d="M588.5,308 L667.5,308 A3.75,3.75 0 0 1 670,310.5 L677,330.2969 L776.5,330.2969 A2.5,2.5 0 0 1 779,332.7969 L779,613.5 A2.5,2.5 0 0 1 776.5,616 L588.5,616 A2.5,2.5 0 0 1 586,613.5 L586,310.5 A2.5,2.5 0 0 1 588.5,308 " fill="#E0A86C" style="stroke:#000000;stroke-width:1.5;"/><line style="stroke:#000000;stroke-width:1.5;" x1="586" x2="677" y1="330.2969" y2="330.2969"/><a href="https://bo4e.github.io/BO4E-python/latest/api/bo4e.com.html" target="_top" title="https://bo4e.github.io/BO4E-python/latest/api/bo4e.com.html" xlink:actuate="onRequest" xlink:href="https://bo4e.github.io/BO4E-python/latest/api/bo4e.com.html" xlink:show="new" xlink:title="https://bo4e.github.io/BO4E-python/latest/api/bo4e.com.html" xlink:type="simple"><text fill="#0000FF" font-family="sans-serif" font-size="14" font-weight="bold" lengthAdjust="spacing" text-decoration="underline" textLength="78" x="590" y="322.9951">bo4e.com</text></a></g><!--cluster enum--><g id="cluster_enum"><path d="M598.5,640 L688.5,640 A3.75,3.75 0 0 1 691,642.5 L698,662.2969 L766.5,662.2969 A2.5,2.5 0 0 1 769,664.7969 L769,799.5 A2.5,2.5 0 0 1 766.5,802 L598.5,802 A2.5,2.5 0 0 1 596,799.5 L596,642.5 A2.5,2.5 0 0 1 598.5,640 " fill="#D1C358" style="stroke:#000000;stroke-width:1.5;"/><line style="stroke:#000000;stroke-width:1.5;" x1="596" x2="698" y1="662.2969" y2="662.2969"/><a href="https://bo4e.github.io/BO4E-python/latest/api/bo4e.enum.html" target="_top" title="https://bo4e.github.io/BO4E-python/latest/api/bo4e.enum.html" xlink:actuate="onRequest" xlink:href="https://bo4e.github.io/BO4E-python/latest/api/bo4e.enum.html" xlink:show="new" xlink:title="https://bo4e.github.io/BO4E-python/latest/api/bo4e.enum.html" xlink:type="simple"><text fill="#0000FF" font-family="sans-serif" font-size="14" font-weight="bold" lengthAdjust="spacing" text-decoration="underline" textLength="89" x="600" y="654.9951">bo4e.enum</text></a></g><!--class Geschaeftsobjekt--><g id="elem_Geschaeftsobjekt"><rect codeLine="11" fill="#F1F1F1" height="37.9375" id="Geschaeftsobjekt" rx="2.5" ry="2.5" style="stroke:#181818;stroke-width:0.5;" width="156" x="604.5" y="84.03"/><ellipse cx="619.5" cy="102.9987" fill="#ADD1B2" rx="11" ry="11" style="stroke:#181818;stroke-width:1.0;"/><path d="M622.4688,108.6394 Q621.8906,108.9362 621.25,109.0769 Q620.6094,109.2331 619.9063,109.2331 Q617.4063,109.2331 616.0781,107.5925 Q614.7656,105.9362 614.7656,102.8112 Q614.7656,99.6862 616.0781,98.03 Q617.4063,96.3737 619.9063,96.3737 Q620.6094,96.3737 621.25,96.53 Q621.9063,96.6862 622.4688,96.9831 L622.4688,99.7019 Q621.8438,99.1237 621.25,98.8581 Q620.6563,98.5769 620.0313,98.5769 Q618.6875,98.5769 618,99.655 Q617.3125,100.7175 617.3125,102.8112 Q617.3125,104.905 618,105.9831 Q618.6875,107.0456 620.0313,107.0456 Q620.6563,107.0456 621.25,106.78 Q621.8438,106.4987 622.4688,105.9206 L622.4688,108.6394 Z " fill="#000000"/><a href="https://bo4e.github.io/BO4E-python/latest/api/bo4e.bo.html#bo4e.bo.geschaeftsobjekt.Geschaeftsobjekt" target="_top" title="https://bo4e.github.io/BO4E-python/latest/api/bo4e.bo.html#bo4e.bo.geschaeftsobjekt.Geschaeftsobjekt" xlink:actuate="onRequest" xlink:href="https://bo4e.github.io/BO4E-python/latest/api/bo4e.bo.html#bo4e.bo.geschaeftsobjekt.Geschaeftsobjekt" xlink:show="new" xlink:title="https://bo4e.github.io/BO4E-python/latest/api/bo4e.bo.html#bo4e.bo.geschaeftsobjekt.Geschaeftsobjekt" xlink:type="simple"><text fill="#0000FF" font-family="sans-serif" font-size="14" lengthAdjust="spacing" text-decoration="underline" textLength="122" x="634.5" y="102.0251">Geschaeftsobjekt</text></a><text fill="#000000" font-family="sans-serif" font-size="10" lengthAdjust="spacing" textLength="124" x="633.5" y="114.6091">bo4e.bo.geschaeftsobjekt</text></g><!--class Geraet--><g id="elem_Geraet"><rect codeLine="12" fill="#F1F1F1" height="37.9375" id="Geraet" rx="2.5" ry="2.5" style="stroke:#181818;stroke-width:0.5;" width="106" x="629.5" y="157.03"/><ellipse cx="644.5" cy="175.9987" fill="#ADD1B2" rx="11" ry="11" style="stroke:#181818;stroke-width:1.0;"/><path d="M647.4688,181.6394 Q646.8906,181.9362 646.25,182.0769 Q645.6094,182.2331 644.9063,182.2331 Q642.4063,182.2331 641.0781,180.5925 Q639.7656,178.9362 639.7656,175.8112 Q639.7656,172.6862 641.0781,171.03 Q642.4063,169.3737 644.9063,169.3737 Q645.6094,169.3737 646.25,169.53 Q646.9063,169.6862 647.4688,169.9831 L647.4688,172.7019 Q646.8438,172.1237 646.25,171.8581 Q645.6563,171.5769 645.0313,171.5769 Q643.6875,171.5769 643,172.655 Q642.3125,173.7175 642.3125,175.8112 Q642.3125,177.905 643,178.9831 Q643.6875,180.0456 645.0313,180.0456 Q645.6563,180.0456 646.25,179.78 Q646.8438,179.4987 647.4688,178.9206 L647.4688,181.6394 Z " fill="#000000"/><a href="https://bo4e.github.io/BO4E-python/latest/api/bo4e.bo.html#bo4e.bo.geraet.Geraet" target="_top" title="https://bo4e.github.io/BO4E-python/latest/api/bo4e.bo.html#bo4e.bo.geraet.Geraet" xlink:actuate="onRequest" xlink:href="https://bo4e.github.io/BO4E-python/latest/api/bo4e.bo.html#bo4e.bo.geraet.Geraet" xlink:show="new" xlink:title="https://bo4e.github.io/BO4E-python/latest/api/bo4e.bo.html#bo4e.bo.geraet.Geraet" xlink:type="simple"><text fill="#0000FF" font-family="sans-serif" font-size="14" lengthAdjust="spacing" text-decoration="underline" textLength="47" x="672" y="175.0251">Geraet</text></a><text fill="#000000" font-family="sans-serif" font-size="10" lengthAdjust="spacing" textLength="74" x="658.5" y="187.6091">bo4e.bo.geraet</text></g><!--class Zaehler--><g id="elem_Zaehler"><rect codeLine="13" fill="#F1F1F1" height="37.9375" id="Zaehler" rx="2.5" ry="2.5" style="stroke:#181818;stroke-width:0.5;" width="109" x="628" y="230.03"/><ellipse cx="643" cy="248.9987" fill="#ADD1B2" rx="11" ry="11" style="stroke:#181818;stroke-width:1.0;"/><path d="M645.9688,254.6394 Q645.3906,254.9362 644.75,255.0769 Q644.1094,255.2331 643.4063,255.2331 Q640.9063,255.2331 639.5781,253.5925 Q638.2656,251.9362 638.2656,248.8112 Q638.2656,245.6862 639.5781,244.03 Q640.9063,242.3737 643.4063,242.3737 Q644.1094,242.3737 644.75,242.53 Q645.4063,242.6862 645.9688,242.9831 L645.9688,245.7019 Q645.3438,245.1237 644.75,244.8581 Q644.1563,244.5769 643.5313,244.5769 Q642.1875,244.5769 641.5,245.655 Q640.8125,246.7175 640.8125,248.8112 Q640.8125,250.905 641.5,251.9831 Q642.1875,253.0456 643.5313,253.0456 Q644.1563,253.0456 644.75,252.78 Q645.3438,252.4987 645.9688,251.9206 L645.9688,254.6394 Z " fill="#000000"/><a href="https://bo4e.github.io/BO4E-python/latest/api/bo4e.bo.html#bo4e.bo.zaehler.Zaehler" target="_top" title="https://bo4e.github.io/BO4E-python/latest/api/bo4e.bo.html#bo4e.bo.zaehler.Zaehler" xlink:actuate="onRequest" xlink:href="https://bo4e.github.io/BO4E-python/latest/api/bo4e.bo.html#bo4e.bo.zaehler.Zaehler" xlink:show="new" xlink:title="https://bo4e.github.io/BO4E-python/latest/api/bo4e.bo.html#bo4e.bo.zaehler.Zaehler" xlink:type="simple"><text fill="#0000FF" font-family="sans-serif" font-size="14" lengthAdjust="spacing" text-decoration="underline" textLength="53" x="669" y="248.0251">Zaehler</text></a><text fill="#000000" font-family="sans-serif" font-size="10" lengthAdjust="spacing" textLength="77" x="657" y="260.6091">bo4e.bo.zaehler</text></g><!--class Adresse--><g id="elem_Adresse"><rect codeLine="16" fill="#F1F1F1" height="37.9375" id="Adresse" rx="2.5" ry="2.5" style="stroke:#181818;stroke-width:0.5;" width="121" x="622" y="343.03"/><ellipse cx="637" cy="361.9988" fill="#ADD1B2" rx="11" ry="11" style="stroke:#181818;stroke-width:1.0;"/><path d="M639.9688,367.6394 Q639.3906,367.9363 638.75,368.0769 Q638.1094,368.2331 637.4063,368.2331 Q634.9063,368.2331 633.5781,366.5925 Q632.2656,364.9363 632.2656,361.8113 Q632.2656,358.6863 633.5781,357.03 Q634.9063,355.3738 637.4063,355.3738 Q638.1094,355.3738 638.75,355.53 Q639.4063,355.6863 639.9688,355.9831 L639.9688,358.7019 Q639.3438,358.1238 638.75,357.8581 Q638.1563,357.5769 637.5313,357.5769 Q636.1875,357.5769 635.5,358.655 Q634.8125,359.7175 634.8125,361.8113 Q634.8125,363.905 635.5,364.9831 Q636.1875,366.0456 637.5313,366.0456 Q638.1563,366.0456 638.75,365.78 Q639.3438,365.4988 639.9688,364.9206 L639.9688,367.6394 Z " fill="#000000"/><a href="https://bo4e.github.io/BO4E-python/latest/api/bo4e.com.html#bo4e.com.adresse.Adresse" target="_top" title="https://bo4e.github.io/BO4E-python/latest/api/bo4e.com.html#bo4e.com.adresse.Adresse" xlink:actuate="onRequest" xlink:href="https://bo4e.github.io/BO4E-python/latest/api/bo4e.com.html#bo4e.com.adresse.Adresse" xlink:show="new" xlink:title="https://bo4e.github.io/BO4E-python/latest/api/bo4e.com.html#bo4e.com.adresse.Adresse" xlink:type="simple"><text fill="#0000FF" font-family="sans-serif" font-size="14" lengthAdjust="spacing" text-decoration="underline" textLength="57" x="667" y="361.0251">Adresse</text></a><text fill="#000000" font-family="sans-serif" font-size="10" lengthAdjust="spacing" textLength="89" x="651" y="373.6091">bo4e.com.adresse</text></g><!--class Dienstleistung--><g id="elem_Dienstleistung"><rect codeLine="17" fill="#F1F1F1" height="37.9375" id="Dienstleistung" rx="2.5" ry="2.5" style="stroke:#181818;stroke-width:0.5;" width="149" x="608" y="416.03"/><ellipse cx="623" cy="434.9988" fill="#ADD1B2" rx="11" ry="11" style="stroke:#181818;stroke-width:1.0;"/><path d="M625.9688,440.6394 Q625.3906,440.9363 624.75,441.0769 Q624.1094,441.2331 623.4063,441.2331 Q620.9063,441.2331 619.5781,439.5925 Q618.2656,437.9363 618.2656,434.8113 Q618.2656,431.6863 619.5781,430.03 Q620.9063,428.3738 623.4063,428.3738 Q624.1094,428.3738 624.75,428.53 Q625.4063,428.6863 625.9688,428.9831 L625.9688,431.7019 Q625.3438,431.1238 624.75,430.8581 Q624.1563,430.5769 623.5313,430.5769 Q622.1875,430.5769 621.5,431.655 Q620.8125,432.7175 620.8125,434.8113 Q620.8125,436.905 621.5,437.9831 Q622.1875,439.0456 623.5313,439.0456 Q624.1563,439.0456 624.75,438.78 Q625.3438,438.4988 625.9688,437.9206 L625.9688,440.6394 Z " fill="#000000"/><a href="https://bo4e.github.io/BO4E-python/latest/api/bo4e.com.html#bo4e.com.dienstleistung.Dienstleistung" target="_top" title="https://bo4e.github.io/BO4E-python/latest/api/bo4e.com.html#bo4e.com.dienstleistung.Dienstleistung" xlink:actuate="onRequest" xlink:href="https://bo4e.github.io/BO4E-python/latest/api/bo4e.com.html#bo4e.com.dienstleistung.Dienstleistung" xlink:show="new" xlink:title="https://bo4e.github.io/BO4E-python/latest/api/bo4e.com.html#bo4e.com.dienstleistung.Dienstleistung" xlink:type="simple"><text fill="#0000FF" font-family="sans-serif" font-size="14" lengthAdjust="spacing" text-decoration="underline" textLength="100" x="645.5" y="434.0251">Dienstleistung</text></a><text fill="#000000" font-family="sans-serif" font-size="10" lengthAdjust="spacing" textLength="117" x="637" y="446.6091">bo4e.com.dienstleistung</text></g><!--class Geokoordinaten--><g id="elem_Geokoordinaten"><rect codeLine="18" fill="#F1F1F1" height="37.9375" id="Geokoordinaten" rx="2.5" ry="2.5" style="stroke:#181818;stroke-width:0.5;" width="158" x="603.5" y="489.03"/><ellipse cx="618.5" cy="507.9988" fill="#ADD1B2" rx="11" ry="11" style="stroke:#181818;stroke-width:1.0;"/><path d="M621.4688,513.6394 Q620.8906,513.9363 620.25,514.0769 Q619.6094,514.2331 618.9063,514.2331 Q616.4063,514.2331 615.0781,512.5925 Q613.7656,510.9363 613.7656,507.8113 Q613.7656,504.6863 615.0781,503.03 Q616.4063,501.3738 618.9063,501.3738 Q619.6094,501.3738 620.25,501.53 Q620.9063,501.6863 621.4688,501.9831 L621.4688,504.7019 Q620.8438,504.1238 620.25,503.8581 Q619.6563,503.5769 619.0313,503.5769 Q617.6875,503.5769 617,504.655 Q616.3125,505.7175 616.3125,507.8113 Q616.3125,509.905 617,510.9831 Q617.6875,512.0456 619.0313,512.0456 Q619.6563,512.0456 620.25,511.78 Q620.8438,511.4988 621.4688,510.9206 L621.4688,513.6394 Z " fill="#000000"/><a href="https://bo4e.github.io/BO4E-python/latest/api/bo4e.com.html#bo4e.com.geokoordinaten.Geokoordinaten" target="_top" title="https://bo4e.github.io/BO4E-python/latest/api/bo4e.com.html#bo4e.com.geokoordinaten.Geokoordinaten" xlink:actuate="onRequest" xlink:href="https://bo4e.github.io/BO4E-python/latest/api/bo4e.com.html#bo4e.com.geokoordinaten.Geokoordinaten" xlink:show="new" xlink:title="https://bo4e.github.io/BO4E-python/latest/api/bo4e.com.html#bo4e.com.geokoordinaten.Geokoordinaten" xlink:type="simple"><text fill="#0000FF" font-family="sans-serif" font-size="14" lengthAdjust="spacing" text-decoration="underline" textLength="112" x="639.5" y="507.0251">Geokoordinaten</text></a><text fill="#000000" font-family="sans-serif" font-size="10" lengthAdjust="spacing" textLength="126" x="632.5" y="519.6091">bo4e.com.geokoordinaten</text></g><!--class Katasteradresse--><g id="elem_Katasteradresse"><rect codeLine="19" fill="#F1F1F1" height="37.9375" id="Katasteradresse" rx="2.5" ry="2.5" style="stroke:#181818;stroke-width:0.5;" width="161" x="602" y="562.03"/><ellipse cx="617" cy="580.9988" fill="#ADD1B2" rx="11" ry="11" style="stroke:#181818;stroke-width:1.0;"/><path d="M619.9688,586.6394 Q619.3906,586.9363 618.75,587.0769 Q618.1094,587.2331 617.4063,587.2331 Q614.9063,587.2331 613.5781,585.5925 Q612.2656,583.9363 612.2656,580.8113 Q612.2656,577.6863 613.5781,576.03 Q614.9063,574.3738 617.4063,574.3738 Q618.1094,574.3738 618.75,574.53 Q619.4063,574.6863 619.9688,574.9831 L619.9688,577.7019 Q619.3438,577.1238 618.75,576.8581 Q618.1563,576.5769 617.5313,576.5769 Q616.1875,576.5769 615.5,577.655 Q614.8125,578.7175 614.8125,580.8113 Q614.8125,582.905 615.5,583.9831 Q616.1875,585.0456 617.5313,585.0456 Q618.1563,585.0456 618.75,584.78 Q619.3438,584.4988 619.9688,583.9206 L619.9688,586.6394 Z " fill="#000000"/><a href="https://bo4e.github.io/BO4E-python/latest/api/bo4e.com.html#bo4e.com.katasteradresse.Katasteradresse" target="_top" title="https://bo4e.github.io/BO4E-python/latest/api/bo4e.com.html#bo4e.com.katasteradresse.Katasteradresse" xlink:actuate="onRequest" xlink:href="https://bo4e.github.io/BO4E-python/latest/api/bo4e.com.html#bo4e.com.katasteradresse.Katasteradresse" xlink:show="new" xlink:title="https://bo4e.github.io/BO4E-python/latest/api/bo4e.com.html#bo4e.com.katasteradresse.Katasteradresse" xlink:type="simple"><text fill="#0000FF" font-family="sans-serif" font-size="14" lengthAdjust="spacing" text-decoration="underline" textLength="113" x="639" y="580.0251">Katasteradresse</text></a><text fill="#000000" font-family="sans-serif" font-size="10" lengthAdjust="spacing" textLength="129" x="631" y="592.6091">bo4e.com.katasteradresse</text></g><!--class Netzebene--><g id="elem_Netzebene"><rect codeLine="22" fill="#F1F1F1" height="37.9375" id="Netzebene" rx="2.5" ry="2.5" style="stroke:#181818;stroke-width:0.5;" width="141" x="612" y="675.03"/><ellipse cx="627" cy="693.9988" fill="#ADD1B2" rx="11" ry="11" style="stroke:#181818;stroke-width:1.0;"/><path d="M629.9688,699.6394 Q629.3906,699.9363 628.75,700.0769 Q628.1094,700.2331 627.4063,700.2331 Q624.9063,700.2331 623.5781,698.5925 Q622.2656,696.9363 622.2656,693.8113 Q622.2656,690.6863 623.5781,689.03 Q624.9063,687.3738 627.4063,687.3738 Q628.1094,687.3738 628.75,687.53 Q629.4063,687.6863 629.9688,687.9831 L629.9688,690.7019 Q629.3438,690.1238 628.75,689.8581 Q628.1563,689.5769 627.5313,689.5769 Q626.1875,689.5769 625.5,690.655 Q624.8125,691.7175 624.8125,693.8113 Q624.8125,695.905 625.5,696.9831 Q626.1875,698.0456 627.5313,698.0456 Q628.1563,698.0456 628.75,697.78 Q629.3438,697.4988 629.9688,696.9206 L629.9688,699.6394 Z " fill="#000000"/><a href="https://bo4e.github.io/BO4E-python/latest/api/bo4e.enum.html#bo4e.enum.netzebene.Netzebene" target="_top" title="https://bo4e.github.io/BO4E-python/latest/api/bo4e.enum.html#bo4e.enum.netzebene.Netzebene" xlink:actuate="onRequest" xlink:href="https://bo4e.github.io/BO4E-python/latest/api/bo4e.enum.html#bo4e.enum.netzebene.Netzebene" xlink:show="new" xlink:title="https://bo4e.github.io/BO4E-python/latest/api/bo4e.enum.html#bo4e.enum.netzebene.Netzebene" xlink:type="simple"><text fill="#0000FF" font-family="sans-serif" font-size="14" lengthAdjust="spacing" text-decoration="underline" textLength="77" x="657" y="693.0251">Netzebene</text></a><text fill="#000000" font-family="sans-serif" font-size="10" lengthAdjust="spacing" textLength="109" x="641" y="705.6091">bo4e.enum.netzebene</text></g><!--class Sparte--><g id="elem_Sparte"><rect codeLine="23" fill="#F1F1F1" height="37.9375" id="Sparte" rx="2.5" ry="2.5" style="stroke:#181818;stroke-width:0.5;" width="121" x="622" y="748.03"/><ellipse cx="637" cy="766.9988" fill="#ADD1B2" rx="11" ry="11" style="stroke:#181818;stroke-width:1.0;"/><path d="M639.9688,772.6394 Q639.3906,772.9363 638.75,773.0769 Q638.1094,773.2331 637.4063,773.2331 Q634.9063,773.2331 633.5781,771.5925 Q632.2656,769.9363 632.2656,766.8113 Q632.2656,763.6863 633.5781,762.03 Q634.9063,760.3738 637.4063,760.3738 Q638.1094,760.3738 638.75,760.53 Q639.4063,760.6863 639.9688,760.9831 L639.9688,763.7019 Q639.3438,763.1238 638.75,762.8581 Q638.1563,762.5769 637.5313,762.5769 Q636.1875,762.5769 635.5,763.655 Q634.8125,764.7175 634.8125,766.8113 Q634.8125,768.905 635.5,769.9831 Q636.1875,771.0456 637.5313,771.0456 Q638.1563,771.0456 638.75,770.78 Q639.3438,770.4988 639.9688,769.9206 L639.9688,772.6394 Z " fill="#000000"/><a href="https://bo4e.github.io/BO4E-python/latest/api/bo4e.enum.html#bo4e.enum.sparte.Sparte" target="_top" title="https://bo4e.github.io/BO4E-python/latest/api/bo4e.enum.html#bo4e.enum.sparte.Sparte" xlink:actuate="onRequest" xlink:href="https://bo4e.github.io/BO4E-python/latest/api/bo4e.enum.html#bo4e.enum.sparte.Sparte" xlink:show="new" xlink:title="https://bo4e.github.io/BO4E-python/latest/api/bo4e.enum.html#bo4e.enum.sparte.Sparte" xlink:type="simple"><text fill="#0000FF" font-family="sans-serif" font-size="14" lengthAdjust="spacing" text-decoration="underline" textLength="45" x="673" y="766.0251">Sparte</text></a><text fill="#000000" font-family="sans-serif" font-size="10" lengthAdjust="spacing" textLength="89" x="651" y="778.6091">bo4e.enum.sparte</text></g><!--class Messlokation--><g id="elem_Messlokation"><rect codeLine="3" fill="#F1F1F1" height="111.125" id="Messlokation" rx="2.5" ry="2.5" style="stroke:#181818;stroke-width:0.5;" width="368" x="7" y="379.44"/><ellipse cx="134.25" cy="398.4088" fill="#ADD1B2" rx="11" ry="11" style="stroke:#181818;stroke-width:1.0;"/><path d="M137.2188,404.0494 Q136.6406,404.3463 136,404.4869 Q135.3594,404.6431 134.6563,404.6431 Q132.1563,404.6431 130.8281,403.0025 Q129.5156,401.3463 129.5156,398.2213 Q129.5156,395.0963 130.8281,393.44 Q132.1563,391.7838 134.6563,391.7838 Q135.3594,391.7838 136,391.94 Q136.6563,392.0963 137.2188,392.3931 L137.2188,395.1119 Q136.5938,394.5338 136,394.2681 Q135.4063,393.9869 134.7813,393.9869 Q133.4375,393.9869 132.75,395.065 Q132.0625,396.1275 132.0625,398.2213 Q132.0625,400.315 132.75,401.3931 Q133.4375,402.4556 134.7813,402.4556 Q135.4063,402.4556 136,402.19 Q136.5938,401.9088 137.2188,401.3306 L137.2188,404.0494 Z " fill="#000000"/><a href="https://bo4e.github.io/BO4E-python/latest/api/bo4e.bo.html#bo4e.bo.messlokation.Messlokation" target="_top" title="https://bo4e.github.io/BO4E-python/latest/api/bo4e.bo.html#bo4e.bo.messlokation.Messlokation" xlink:actuate="onRequest" xlink:href="https://bo4e.github.io/BO4E-python/latest/api/bo4e.bo.html#bo4e.bo.messlokation.Messlokation" xlink:show="new" xlink:title="https://bo4e.github.io/BO4E-python/latest/api/bo4e.bo.html#bo4e.bo.messlokation.Messlokation" xlink:type="simple"><text fill="#0000FF" font-family="sans-serif" font-size="14" lengthAdjust="spacing" text-decoration="underline" textLength="91" x="161.75" y="397.4351">Messlokation</text></a><text fill="#000000" font-family="sans-serif" font-size="10" lengthAdjust="spacing" textLength="105" x="154.75" y="410.0191">bo4e.bo.messlokation</text><line style="stroke:#181818;stroke-width:0.5;" x1="8" x2="374" y1="417.3775" y2="417.3775"/><text fill="#000000" font-family="sans-serif" font-size="14" lengthAdjust="spacing" textLength="240" x="13" y="434.3726">messlokationsId : str [0..1] = None</text><text fill="#000000" font-family="sans-serif" font-size="14" lengthAdjust="spacing" textLength="224" x="13" y="450.6695">messgebietnr : str [0..1] = None</text><text fill="#000000" font-family="sans-serif" font-size="14" lengthAdjust="spacing" textLength="340" x="13" y="466.9664">grundzustaendigerMsbCodenr : str [0..1] = None</text><text fill="#000000" font-family="sans-serif" font-size="14" lengthAdjust="spacing" textLength="356" x="13" y="483.2632">grundzustaendigerMsbimCodenr : str [0..1] = None</text></g><!--link Messlokation to Geschaeftsobjekt--><g id="link_Messlokation_Geschaeftsobjekt"><path codeLine="26" d="M228.47,379.11 C266.59,324.69 331.09,243.07 405,193 C465.39,152.09 528.1054,132.4886 586.6054,119.8586 " fill="none" id="Messlokation-to-Geschaeftsobjekt" style="stroke:#181818;stroke-width:1.0;"/><polygon fill="none" points="604.2,116.06,585.3392,113.9938,587.8716,125.7235,604.2,116.06" style="stroke:#181818;stroke-width:1.0;"/></g><!--link Messlokation to Sparte--><g id="link_Messlokation_Sparte"><path codeLine="27" d="M233.41,490.65 C273.03,540.87 336.71,614.15 405,663 C471.53,710.6 550.8515,736.3266 609.9715,751.1766 " fill="none" id="Messlokation-to-Sparte" style="stroke:#181818;stroke-width:1.0;"/><polygon fill="#181818" points="621.61,754.1,616.7652,748.7588,609.9715,751.1766,614.8163,756.5178,621.61,754.1" style="stroke:#181818;stroke-width:1.0;"/><text fill="#000000" font-family="sans-serif" font-size="13" lengthAdjust="spacing" textLength="41" x="455" y="659.0669">sparte</text><text fill="#000000" font-family="sans-serif" font-size="13" lengthAdjust="spacing" textLength="24" x="590.0932" y="765.617">0..1</text></g><!--link Messlokation to Netzebene--><g id="link_Messlokation_Netzebene"><path codeLine="28" d="M270.46,490.76 C309.87,517.57 358.93,549.2 405,574 C480.8,614.8 562.161,648.3835 618.641,670.2735 " fill="none" id="Messlokation-to-Netzebene" style="stroke:#181818;stroke-width:1.0;"/><polygon fill="#181818" points="629.83,674.61,625.681,668.7121,618.641,670.2735,622.79,676.1714,629.83,674.61" style="stroke:#181818;stroke-width:1.0;"/><text fill="#000000" font-family="sans-serif" font-size="13" lengthAdjust="spacing" textLength="125" x="413" y="570.0669">netzebeneMessung</text><text fill="#000000" font-family="sans-serif" font-size="13" lengthAdjust="spacing" textLength="24" x="586.8332" y="663.7978">0..1</text></g><!--link Messlokation to Geraet--><g id="link_Messlokation_Geraet"><path codeLine="29" d="M260.41,379.04 C300.97,347.38 354.22,308.38 405,279 C467.69,242.73 485.96,237.82 554,213 C578.36,204.12 594.3625,199.0827 617.6225,192.6627 " fill="none" id="Messlokation-to-Geraet" style="stroke:#181818;stroke-width:1.0;"/><polygon fill="#181818" points="629.19,189.47,622.342,187.2105,617.6225,192.6627,624.4705,194.9222,629.19,189.47" style="stroke:#181818;stroke-width:1.0;"/><text fill="#000000" font-family="sans-serif" font-size="13" lengthAdjust="spacing" textLength="50" x="450.5" y="214.0669">geraete</text><text fill="#000000" font-family="sans-serif" font-size="13" lengthAdjust="spacing" textLength="23" x="598.6963" y="203.9694">0..*</text></g><!--link Messlokation to Dienstleistung--><g id="link_Messlokation_Dienstleistung"><path codeLine="30" d="M375.32,435 C455.93,435 534.05,435 595.52,435 " fill="none" id="Messlokation-to-Dienstleistung" style="stroke:#181818;stroke-width:1.0;"/><polygon fill="#181818" points="607.52,435,601.52,431,595.52,435,601.52,439,607.52,435" style="stroke:#181818;stroke-width:1.0;"/><text fill="#000000" font-family="sans-serif" font-size="13" lengthAdjust="spacing" textLength="124" x="413.5" y="431.0669">messdienstleistung</text><text fill="#000000" font-family="sans-serif" font-size="13" lengthAdjust="spacing" textLength="23" x="577.0881" y="447.7172">0..*</text></g><!--link Messlokation to Zaehler--><g id="link_Messlokation_Zaehler"><path codeLine="31" d="M339.53,378.94 C438.2,341.45 550.8122,298.6515 619.1222,272.7015 " fill="none" id="Messlokation-to-Zaehler" style="stroke:#181818;stroke-width:1.0;"/><polygon fill="#181818" points="630.34,268.44,623.3106,266.8315,619.1222,272.7015,626.1516,274.31,630.34,268.44" style="stroke:#181818;stroke-width:1.0;"/><text fill="#000000" font-family="sans-serif" font-size="13" lengthAdjust="spacing" textLength="139" x="406" y="300.0669">messlokationszaehler</text><text fill="#000000" font-family="sans-serif" font-size="13" lengthAdjust="spacing" textLength="23" x="597.1942" y="284.8112">0..*</text></g><!--link Messlokation to Adresse--><g id="link_Messlokation_Adresse"><path codeLine="32" d="M375.32,407.66 C462.31,394.69 548.5011,381.8293 609.6811,372.7093 " fill="none" id="Messlokation-to-Adresse" style="stroke:#181818;stroke-width:1.0;"/><polygon fill="#181818" points="621.55,370.94,615.0258,367.8684,609.6811,372.7093,616.2053,375.7809,621.55,370.94" style="stroke:#181818;stroke-width:1.0;"/><text fill="#000000" font-family="sans-serif" font-size="13" lengthAdjust="spacing" textLength="86" x="432.5" y="380.0669">messadresse</text><text fill="#000000" font-family="sans-serif" font-size="13" lengthAdjust="spacing" textLength="24" x="590.027" y="384.7092">0..1</text></g><!--link Messlokation to Geokoordinaten--><g id="link_Messlokation_Geokoordinaten"><path codeLine="33" d="M375.32,462.34 C454.03,474.08 529.9311,485.4009 591.2511,494.5409 " fill="none" id="Messlokation-to-Geokoordinaten" style="stroke:#181818;stroke-width:1.0;"/><polygon fill="#181818" points="603.12,496.31,597.7753,491.4692,591.2511,494.5409,596.5959,499.3817,603.12,496.31" style="stroke:#181818;stroke-width:1.0;"/><text fill="#000000" font-family="sans-serif" font-size="13" lengthAdjust="spacing" textLength="75" x="438" y="464.0669">geoadresse</text><text fill="#000000" font-family="sans-serif" font-size="13" lengthAdjust="spacing" textLength="24" x="571.5526" y="508.0355">0..1</text></g><!--link Messlokation to Katasteradresse--><g id="link_Messlokation_Katasteradresse"><path codeLine="34" d="M340.89,491.01 C362.29,498.42 384.12,505.64 405,512 C470.55,531.97 534.4078,547.8295 589.9578,560.6595 " fill="none" id="Messlokation-to-Katasteradresse" style="stroke:#181818;stroke-width:1.0;"/><polygon fill="#181818" points="601.65,563.36,596.7041,558.1124,589.9578,560.6595,594.9037,565.9072,601.65,563.36" style="stroke:#181818;stroke-width:1.0;"/><text fill="#000000" font-family="sans-serif" font-size="13" lengthAdjust="spacing" textLength="126" x="412.5" y="508.0669">katasterinformation</text><text fill="#000000" font-family="sans-serif" font-size="13" lengthAdjust="spacing" textLength="24" x="569.9609" y="574.5928">0..1</text></g><!--SRC=[hLPDZvim43sNNp4AjvNY9EfskqBjIjaFLLMrsqDlJNCmC04tO4Usewff-z_Nna20a6vMuJGyU3D-Z6Sypd2bGGkGB4arn4nYf9dWdXTbL2aOBHQfrXiLJ2QXk4IIC9rkGyB4vFRhvSDuyrkdWayogb7f2Tqmnme5INMU-HN8KQbChAcDJ1uR09fWkVp1FoYsms0slUbp7G5LBG_uuxrf4jJd609GMi9YIiXi2H_XIN1qf0H3XfhBVaOYjppURPMco6EMe7nKuPs8yJLybl_7uv_dSMfqR6Y4vwKLIh1S5Waf4VYtL_VlvzSs9qFkNO8gIgcf4YN2dxZMv5Fd1NHVzEvZDqmXlUivj799qUgr1fmveir-AXNPns5rx2Yc6KhotLaeRQ-KabjeANccSiujd4ZaZSeng5aw1eB_C9rVNzsTMplLEdwDQ2nDwo6PEmkbFVpt1hcGLXA7rXCpv4fdo9JUyeJSjo2qOR_8TeH2QzjjQCa9YhKGCcRSKBafvoQ4DkoNt8vGrddprT2IpMbCbJQjLEx-bpQ63kvNtGbIoEuu3j0QoBVDth2msHmMWn_FehVlpZvPwwNyFUIeTnWYH_9KFK7zT9YNjayXisOFByxaLMeatme3pXpHvAY58CUpywuzwiVZlpVLi3eO8Xsk8L_0oCxFqNuVAY5ckhebJl7PfpM0Ed7MptRgaG0NeuREOdW4u6O4lkHY2xTpg0HWRn_jO-E4bQjfuTph6quv85xwTwkZEdDTXAfbJd3i737svyKhtBlT7a3LoeolXCofks2cB4QZB0zHAa-buXUqOwyOPh5w1W00]--></g></svg>