<?xml version="1.0" encoding="us-ascii" standalone="no"?><svg xmlns="http://www.w3.org/2000/svg" xmlns:xlink="http://www.w3.org/1999/xlink" contentStyleType="text/css" height="906px" preserveAspectRatio="none" style="width:825px;height:906px;background:#FFFFFF;" version="1.1" viewBox="0 0 825 906" width="825px" zoomAndPan="magnify"><defs/><g><!--cluster bo4e--><g id="cluster_bo4e"><path d="M566.5,6 L607.5,6 A3.75,3.75 0 0 1 610,8.5 L617,28.2969 L815.5,28.2969 A2.5,2.5 0 0 1 818,30.7969 L818,896.5 A2.5,2.5 0 0 1 815.5,899 L566.5,899 A2.5,2.5 0 0 1 564,896.5 L564,8.5 A2.5,2.5 0 0 1 566.5,6 " fill="none" style="stroke:#000000;stroke-width:1.5;"/><line style="stroke:#000000;stroke-width:1.5;" x1="564" x2="617" y1="28.2969" y2="28.2969"/><text fill="#000000" font-family="sans-serif" font-size="14" font-weight="bold" lengthAdjust="spacing" textLength="40" x="568" y="20.9951">bo4e</text></g><!--cluster bo--><g id="cluster_bo"><path d="M590.5,49 L656.5,49 A3.75,3.75 0 0 1 659,51.5 L666,71.2969 L791.5,71.2969 A2.5,2.5 0 0 1 794,73.7969 L794,354.5 A2.5,2.5 0 0 1 791.5,357 L590.5,357 A2.5,2.5 0 0 1 588,354.5 L588,51.5 A2.5,2.5 0 0 1 590.5,49 " fill="#B6D7A8" style="stroke:#000000;stroke-width:1.5;"/><line style="stroke:#000000;stroke-width:1.5;" x1="588" x2="666" y1="71.2969" y2="71.2969"/><a href="https://bo4e.github.io/BO4E-python/latest/api/bo4e.bo.html" target="_top" title="https://bo4e.github.io/BO4E-python/latest/api/bo4e.bo.html" xlink:actuate="onRequest" xlink:href="https://bo4e.github.io/BO4E-python/latest/api/bo4e.bo.html" xlink:show="new" xlink:title="https://bo4e.github.io/BO4E-python/latest/api/bo4e.bo.html" xlink:type="simple"><text fill="#0000FF" font-family="sans-serif" font-size="14" font-weight="bold" lengthAdjust="spacing" text-decoration="underline" textLength="65" x="592" y="63.9951">bo4e.bo</text></a></g><!--cluster com--><g id="cluster_com"><path d="M597,381 L676,381 A3.75,3.75 0 0 1 678.5,383.5 L685.5,403.2969 L785,403.2969 A2.5,2.5 0 0 1 787.5,405.7969 L787.5,686.5 A2.5,2.5 0 0 1 785,689 L597,689 A2.5,2.5 0 0 1 594.5,686.5 L594.5,383.5 A2.5,2.5 0 0 1 597,381 " fill="#E0A86C" style="stroke:#000000;stroke-width:1.5;"/><line style="stroke:#000000;stroke-width:1.5;" x1="594.5" x2="685.5" y1="403.2969" y2="403.2969"/><a href="https://bo4e.github.io/BO4E-python/latest/api/bo4e.com.html" target="_top" title="https://bo4e.github.io/BO4E-python/latest/api/bo4e.com.html" xlink:actuate="onRequest" xlink:href="https://bo4e.github.io/BO4E-python/latest/api/bo4e.com.html" xlink:show="new" xlink:title="https://bo4e.github.io/BO4E-python/latest/api/bo4e.com.html" xlink:type="simple"><text fill="#0000FF" font-family="sans-serif" font-size="14" font-weight="bold" lengthAdjust="spacing" text-decoration="underline" textLength="78" x="598.5" y="395.9951">bo4e.com</text></a></g><!--cluster enum--><g id="cluster_enum"><path d="M607,713 L697,713 A3.75,3.75 0 0 1 699.5,715.5 L706.5,735.2969 L775,735.2969 A2.5,2.5 0 0 1 777.5,737.7969 L777.5,872.5 A2.5,2.5 0 0 1 775,875 L607,875 A2.5,2.5 0 0 1 604.5,872.5 L604.5,715.5 A2.5,2.5 0 0 1 607,713 " fill="#D1C358" style="stroke:#000000;stroke-width:1.5;"/><line style="stroke:#000000;stroke-width:1.5;" x1="604.5" x2="706.5" y1="735.2969" y2="735.2969"/><a href="https://bo4e.github.io/BO4E-python/latest/api/bo4e.enum.html" target="_top" title="https://bo4e.github.io/BO4E-python/latest/api/bo4e.enum.html" xlink:actuate="onRequest" xlink:href="https://bo4e.github.io/BO4E-python/latest/api/bo4e.enum.html" xlink:show="new" xlink:title="https://bo4e.github.io/BO4E-python/latest/api/bo4e.enum.html" xlink:type="simple"><text fill="#0000FF" font-family="sans-serif" font-size="14" font-weight="bold" lengthAdjust="spacing" text-decoration="underline" textLength="89" x="608.5" y="727.9951">bo4e.enum</text></a></g><!--class Geschaeftsobjekt--><g id="elem_Geschaeftsobjekt"><rect codeLine="12" fill="#F1F1F1" height="37.9375" id="Geschaeftsobjekt" rx="2.5" ry="2.5" style="stroke:#181818;stroke-width:0.5;" width="156" x="613" y="84.03"/><ellipse cx="628" cy="102.9987" fill="#ADD1B2" rx="11" ry="11" style="stroke:#181818;stroke-width:1.0;"/><path d="M630.9688,108.6394 Q630.3906,108.9362 629.75,109.0769 Q629.1094,109.2331 628.4063,109.2331 Q625.9063,109.2331 624.5781,107.5925 Q623.2656,105.9362 623.2656,102.8112 Q623.2656,99.6862 624.5781,98.03 Q625.9063,96.3737 628.4063,96.3737 Q629.1094,96.3737 629.75,96.53 Q630.4063,96.6862 630.9688,96.9831 L630.9688,99.7019 Q630.3438,99.1237 629.75,98.8581 Q629.1563,98.5769 628.5313,98.5769 Q627.1875,98.5769 626.5,99.655 Q625.8125,100.7175 625.8125,102.8112 Q625.8125,104.905 626.5,105.9831 Q627.1875,107.0456 628.5313,107.0456 Q629.1563,107.0456 629.75,106.78 Q630.3438,106.4987 630.9688,105.9206 L630.9688,108.6394 Z " fill="#000000"/><a href="https://bo4e.github.io/BO4E-python/latest/api/bo4e.bo.html#bo4e.bo.geschaeftsobjekt.Geschaeftsobjekt" target="_top" title="https://bo4e.github.io/BO4E-python/latest/api/bo4e.bo.html#bo4e.bo.geschaeftsobjekt.Geschaeftsobjekt" xlink:actuate="onRequest" xlink:href="https://bo4e.github.io/BO4E-python/latest/api/bo4e.bo.html#bo4e.bo.geschaeftsobjekt.Geschaeftsobjekt" xlink:show="new" xlink:title="https://bo4e.github.io/BO4E-python/latest/api/bo4e.bo.html#bo4e.bo.geschaeftsobjekt.Geschaeftsobjekt" xlink:type="simple"><text fill="#0000FF" font-family="sans-serif" font-size="14" lengthAdjust="spacing" text-decoration="underline" textLength="122" x="643" y="102.0251">Geschaeftsobjekt</text></a><text fill="#000000" font-family="sans-serif" font-size="10" lengthAdjust="spacing" textLength="124" x="642" y="114.6091">bo4e.bo.geschaeftsobjekt</text></g><!--class Zaehler--><g id="elem_Zaehler"><rect codeLine="13" fill="#F1F1F1" height="37.9375" id="Zaehler" rx="2.5" ry="2.5" style="stroke:#181818;stroke-width:0.5;" width="109" x="636.5" y="157.03"/><ellipse cx="651.5" cy="175.9987" fill="#ADD1B2" rx="11" ry="11" style="stroke:#181818;stroke-width:1.0;"/><path d="M654.4688,181.6394 Q653.8906,181.9362 653.25,182.0769 Q652.6094,182.2331 651.9063,182.2331 Q649.4063,182.2331 648.0781,180.5925 Q646.7656,178.9362 646.7656,175.8112 Q646.7656,172.6862 648.0781,171.03 Q649.4063,169.3737 651.9063,169.3737 Q652.6094,169.3737 653.25,169.53 Q653.9063,169.6862 654.4688,169.9831 L654.4688,172.7019 Q653.8438,172.1237 653.25,171.8581 Q652.6563,171.5769 652.0313,171.5769 Q650.6875,171.5769 650,172.655 Q649.3125,173.7175 649.3125,175.8112 Q649.3125,177.905 650,178.9831 Q650.6875,180.0456 652.0313,180.0456 Q652.6563,180.0456 653.25,179.78 Q653.8438,179.4987 654.4688,178.9206 L654.4688,181.6394 Z " fill="#000000"/><a href="https://bo4e.github.io/BO4E-python/latest/api/bo4e.bo.html#bo4e.bo.zaehler.Zaehler" target="_top" title="https://bo4e.github.io/BO4E-python/latest/api/bo4e.bo.html#bo4e.bo.zaehler.Zaehler" xlink:actuate="onRequest" xlink:href="https://bo4e.github.io/BO4E-python/latest/api/bo4e.bo.html#bo4e.bo.zaehler.Zaehler" xlink:show="new" xlink:title="https://bo4e.github.io/BO4E-python/latest/api/bo4e.bo.html#bo4e.bo.zaehler.Zaehler" xlink:type="simple"><text fill="#0000FF" font-family="sans-serif" font-size="14" lengthAdjust="spacing" text-decoration="underline" textLength="53" x="677.5" y="175.0251">Zaehler</text></a><text fill="#000000" font-family="sans-serif" font-size="10" lengthAdjust="spacing" textLength="77" x="665.5" y="187.6091">bo4e.bo.zaehler</text></g><!--class Lokationszuordnung--><g id="elem_Lokationszuordnung"><rect codeLine="14" fill="#F1F1F1" height="37.9375" id="Lokationszuordnung" rx="2.5" ry="2.5" style="stroke:#181818;stroke-width:0.5;" width="174" x="604" y="230.03"/><ellipse cx="619" cy="248.9987" fill="#ADD1B2" rx="11" ry="11" style="stroke:#181818;stroke-width:1.0;"/><path d="M621.9688,254.6394 Q621.3906,254.9362 620.75,255.0769 Q620.1094,255.2331 619.4063,255.2331 Q616.9063,255.2331 615.5781,253.5925 Q614.2656,251.9362 614.2656,248.8112 Q614.2656,245.6862 615.5781,244.03 Q616.9063,242.3737 619.4063,242.3737 Q620.1094,242.3737 620.75,242.53 Q621.4063,242.6862 621.9688,242.9831 L621.9688,245.7019 Q621.3438,245.1237 620.75,244.8581 Q620.1563,244.5769 619.5313,244.5769 Q618.1875,244.5769 617.5,245.655 Q616.8125,246.7175 616.8125,248.8112 Q616.8125,250.905 617.5,251.9831 Q618.1875,253.0456 619.5313,253.0456 Q620.1563,253.0456 620.75,252.78 Q621.3438,252.4987 621.9688,251.9206 L621.9688,254.6394 Z " fill="#000000"/><a href="https://bo4e.github.io/BO4E-python/latest/api/bo4e.bo.html#bo4e.bo.lokationszuordnung.Lokationszuordnung" target="_top" title="https://bo4e.github.io/BO4E-python/latest/api/bo4e.bo.html#bo4e.bo.lokationszuordnung.Lokationszuordnung" xlink:actuate="onRequest" xlink:href="https://bo4e.github.io/BO4E-python/latest/api/bo4e.bo.html#bo4e.bo.lokationszuordnung.Lokationszuordnung" xlink:show="new" xlink:title="https://bo4e.github.io/BO4E-python/latest/api/bo4e.bo.html#bo4e.bo.lokationszuordnung.Lokationszuordnung" xlink:type="simple"><text fill="#0000FF" font-family="sans-serif" font-size="14" lengthAdjust="spacing" text-decoration="underline" textLength="142" x="633" y="248.0251">Lokationszuordnung</text></a><text fill="#000000" font-family="sans-serif" font-size="10" lengthAdjust="spacing" textLength="135" x="636.5" y="260.6091">bo4e.bo.lokationszuordnung</text></g><!--class Geraet--><g id="elem_Geraet"><rect codeLine="15" fill="#F1F1F1" height="37.9375" id="Geraet" rx="2.5" ry="2.5" style="stroke:#181818;stroke-width:0.5;" width="106" x="638" y="303.03"/><ellipse cx="653" cy="321.9988" fill="#ADD1B2" rx="11" ry="11" style="stroke:#181818;stroke-width:1.0;"/><path d="M655.9688,327.6394 Q655.3906,327.9363 654.75,328.0769 Q654.1094,328.2331 653.4063,328.2331 Q650.9063,328.2331 649.5781,326.5925 Q648.2656,324.9363 648.2656,321.8113 Q648.2656,318.6863 649.5781,317.03 Q650.9063,315.3738 653.4063,315.3738 Q654.1094,315.3738 654.75,315.53 Q655.4063,315.6863 655.9688,315.9831 L655.9688,318.7019 Q655.3438,318.1238 654.75,317.8581 Q654.1563,317.5769 653.5313,317.5769 Q652.1875,317.5769 651.5,318.655 Q650.8125,319.7175 650.8125,321.8113 Q650.8125,323.905 651.5,324.9831 Q652.1875,326.0456 653.5313,326.0456 Q654.1563,326.0456 654.75,325.78 Q655.3438,325.4988 655.9688,324.9206 L655.9688,327.6394 Z " fill="#000000"/><a href="https://bo4e.github.io/BO4E-python/latest/api/bo4e.bo.html#bo4e.bo.geraet.Geraet" target="_top" title="https://bo4e.github.io/BO4E-python/latest/api/bo4e.bo.html#bo4e.bo.geraet.Geraet" xlink:actuate="onRequest" xlink:href="https://bo4e.github.io/BO4E-python/latest/api/bo4e.bo.html#bo4e.bo.geraet.Geraet" xlink:show="new" xlink:title="https://bo4e.github.io/BO4E-python/latest/api/bo4e.bo.html#bo4e.bo.geraet.Geraet" xlink:type="simple"><text fill="#0000FF" font-family="sans-serif" font-size="14" lengthAdjust="spacing" text-decoration="underline" textLength="47" x="680.5" y="321.0251">Geraet</text></a><text fill="#000000" font-family="sans-serif" font-size="10" lengthAdjust="spacing" textLength="74" x="667" y="333.6091">bo4e.bo.geraet</text></g><!--class Geokoordinaten--><g id="elem_Geokoordinaten"><rect codeLine="18" fill="#F1F1F1" height="37.9375" id="Geokoordinaten" rx="2.5" ry="2.5" style="stroke:#181818;stroke-width:0.5;" width="158" x="612" y="416.03"/><ellipse cx="627" cy="434.9988" fill="#ADD1B2" rx="11" ry="11" style="stroke:#181818;stroke-width:1.0;"/><path d="M629.9688,440.6394 Q629.3906,440.9363 628.75,441.0769 Q628.1094,441.2331 627.4063,441.2331 Q624.9063,441.2331 623.5781,439.5925 Q622.2656,437.9363 622.2656,434.8113 Q622.2656,431.6863 623.5781,430.03 Q624.9063,428.3738 627.4063,428.3738 Q628.1094,428.3738 628.75,428.53 Q629.4063,428.6863 629.9688,428.9831 L629.9688,431.7019 Q629.3438,431.1238 628.75,430.8581 Q628.1563,430.5769 627.5313,430.5769 Q626.1875,430.5769 625.5,431.655 Q624.8125,432.7175 624.8125,434.8113 Q624.8125,436.905 625.5,437.9831 Q626.1875,439.0456 627.5313,439.0456 Q628.1563,439.0456 628.75,438.78 Q629.3438,438.4988 629.9688,437.9206 L629.9688,440.6394 Z " fill="#000000"/><a href="https://bo4e.github.io/BO4E-python/latest/api/bo4e.com.html#bo4e.com.geokoordinaten.Geokoordinaten" target="_top" title="https://bo4e.github.io/BO4E-python/latest/api/bo4e.com.html#bo4e.com.geokoordinaten.Geokoordinaten" xlink:actuate="onRequest" xlink:href="https://bo4e.github.io/BO4E-python/latest/api/bo4e.com.html#bo4e.com.geokoordinaten.Geokoordinaten" xlink:show="new" xlink:title="https://bo4e.github.io/BO4E-python/latest/api/bo4e.com.html#bo4e.com.geokoordinaten.Geokoordinaten" xlink:type="simple"><text fill="#0000FF" font-family="sans-serif" font-size="14" lengthAdjust="spacing" text-decoration="underline" textLength="112" x="648" y="434.0251">Geokoordinaten</text></a><text fill="#000000" font-family="sans-serif" font-size="10" lengthAdjust="spacing" textLength="126" x="641" y="446.6091">bo4e.com.geokoordinaten</text></g><!--class Katasteradresse--><g id="elem_Katasteradresse"><rect codeLine="19" fill="#F1F1F1" height="37.9375" id="Katasteradresse" rx="2.5" ry="2.5" style="stroke:#181818;stroke-width:0.5;" width="161" x="610.5" y="489.03"/><ellipse cx="625.5" cy="507.9988" fill="#ADD1B2" rx="11" ry="11" style="stroke:#181818;stroke-width:1.0;"/><path d="M628.4688,513.6394 Q627.8906,513.9363 627.25,514.0769 Q626.6094,514.2331 625.9063,514.2331 Q623.4063,514.2331 622.0781,512.5925 Q620.7656,510.9363 620.7656,507.8113 Q620.7656,504.6863 622.0781,503.03 Q623.4063,501.3738 625.9063,501.3738 Q626.6094,501.3738 627.25,501.53 Q627.9063,501.6863 628.4688,501.9831 L628.4688,504.7019 Q627.8438,504.1238 627.25,503.8581 Q626.6563,503.5769 626.0313,503.5769 Q624.6875,503.5769 624,504.655 Q623.3125,505.7175 623.3125,507.8113 Q623.3125,509.905 624,510.9831 Q624.6875,512.0456 626.0313,512.0456 Q626.6563,512.0456 627.25,511.78 Q627.8438,511.4988 628.4688,510.9206 L628.4688,513.6394 Z " fill="#000000"/><a href="https://bo4e.github.io/BO4E-python/latest/api/bo4e.com.html#bo4e.com.katasteradresse.Katasteradresse" target="_top" title="https://bo4e.github.io/BO4E-python/latest/api/bo4e.com.html#bo4e.com.katasteradresse.Katasteradresse" xlink:actuate="onRequest" xlink:href="https://bo4e.github.io/BO4E-python/latest/api/bo4e.com.html#bo4e.com.katasteradresse.Katasteradresse" xlink:show="new" xlink:title="https://bo4e.github.io/BO4E-python/latest/api/bo4e.com.html#bo4e.com.katasteradresse.Katasteradresse" xlink:type="simple"><text fill="#0000FF" font-family="sans-serif" font-size="14" lengthAdjust="spacing" text-decoration="underline" textLength="113" x="647.5" y="507.0251">Katasteradresse</text></a><text fill="#000000" font-family="sans-serif" font-size="10" lengthAdjust="spacing" textLength="129" x="639.5" y="519.6091">bo4e.com.katasteradresse</text></g><!--class Adresse--><g id="elem_Adresse"><rect codeLine="20" fill="#F1F1F1" height="37.9375" id="Adresse" rx="2.5" ry="2.5" style="stroke:#181818;stroke-width:0.5;" width="121" x="630.5" y="562.03"/><ellipse cx="645.5" cy="580.9988" fill="#ADD1B2" rx="11" ry="11" style="stroke:#181818;stroke-width:1.0;"/><path d="M648.4688,586.6394 Q647.8906,586.9363 647.25,587.0769 Q646.6094,587.2331 645.9063,587.2331 Q643.4063,587.2331 642.0781,585.5925 Q640.7656,583.9363 640.7656,580.8113 Q640.7656,577.6863 642.0781,576.03 Q643.4063,574.3738 645.9063,574.3738 Q646.6094,574.3738 647.25,574.53 Q647.9063,574.6863 648.4688,574.9831 L648.4688,577.7019 Q647.8438,577.1238 647.25,576.8581 Q646.6563,576.5769 646.0313,576.5769 Q644.6875,576.5769 644,577.655 Q643.3125,578.7175 643.3125,580.8113 Q643.3125,582.905 644,583.9831 Q644.6875,585.0456 646.0313,585.0456 Q646.6563,585.0456 647.25,584.78 Q647.8438,584.4988 648.4688,583.9206 L648.4688,586.6394 Z " fill="#000000"/><a href="https://bo4e.github.io/BO4E-python/latest/api/bo4e.com.html#bo4e.com.adresse.Adresse" target="_top" title="https://bo4e.github.io/BO4E-python/latest/api/bo4e.com.html#bo4e.com.adresse.Adresse" xlink:actuate="onRequest" xlink:href="https://bo4e.github.io/BO4E-python/latest/api/bo4e.com.html#bo4e.com.adresse.Adresse" xlink:show="new" xlink:title="https://bo4e.github.io/BO4E-python/latest/api/bo4e.com.html#bo4e.com.adresse.Adresse" xlink:type="simple"><text fill="#0000FF" font-family="sans-serif" font-size="14" lengthAdjust="spacing" text-decoration="underline" textLength="57" x="675.5" y="580.0251">Adresse</text></a><text fill="#000000" font-family="sans-serif" font-size="10" lengthAdjust="spacing" textLength="89" x="659.5" y="592.6091">bo4e.com.adresse</text></g><!--class Dienstleistung--><g id="elem_Dienstleistung"><rect codeLine="21" fill="#F1F1F1" height="37.9375" id="Dienstleistung" rx="2.5" ry="2.5" style="stroke:#181818;stroke-width:0.5;" width="149" x="616.5" y="635.03"/><ellipse cx="631.5" cy="653.9988" fill="#ADD1B2" rx="11" ry="11" style="stroke:#181818;stroke-width:1.0;"/><path d="M634.4688,659.6394 Q633.8906,659.9363 633.25,660.0769 Q632.6094,660.2331 631.9063,660.2331 Q629.4063,660.2331 628.0781,658.5925 Q626.7656,656.9363 626.7656,653.8113 Q626.7656,650.6863 628.0781,649.03 Q629.4063,647.3738 631.9063,647.3738 Q632.6094,647.3738 633.25,647.53 Q633.9063,647.6863 634.4688,647.9831 L634.4688,650.7019 Q633.8438,650.1238 633.25,649.8581 Q632.6563,649.5769 632.0313,649.5769 Q630.6875,649.5769 630,650.655 Q629.3125,651.7175 629.3125,653.8113 Q629.3125,655.905 630,656.9831 Q630.6875,658.0456 632.0313,658.0456 Q632.6563,658.0456 633.25,657.78 Q633.8438,657.4988 634.4688,656.9206 L634.4688,659.6394 Z " fill="#000000"/><a href="https://bo4e.github.io/BO4E-python/latest/api/bo4e.com.html#bo4e.com.dienstleistung.Dienstleistung" target="_top" title="https://bo4e.github.io/BO4E-python/latest/api/bo4e.com.html#bo4e.com.dienstleistung.Dienstleistung" xlink:actuate="onRequest" xlink:href="https://bo4e.github.io/BO4E-python/latest/api/bo4e.com.html#bo4e.com.dienstleistung.Dienstleistung" xlink:show="new" xlink:title="https://bo4e.github.io/BO4E-python/latest/api/bo4e.com.html#bo4e.com.dienstleistung.Dienstleistung" xlink:type="simple"><text fill="#0000FF" font-family="sans-serif" font-size="14" lengthAdjust="spacing" text-decoration="underline" textLength="100" x="654" y="653.0251">Dienstleistung</text></a><text fill="#000000" font-family="sans-serif" font-size="10" lengthAdjust="spacing" textLength="117" x="645.5" y="665.6091">bo4e.com.dienstleistung</text></g><!--class Netzebene--><g id="elem_Netzebene"><rect codeLine="24" fill="#F1F1F1" height="37.9375" id="Netzebene" rx="2.5" ry="2.5" style="stroke:#181818;stroke-width:0.5;" width="141" x="620.5" y="748.03"/><ellipse cx="635.5" cy="766.9988" fill="#ADD1B2" rx="11" ry="11" style="stroke:#181818;stroke-width:1.0;"/><path d="M638.4688,772.6394 Q637.8906,772.9363 637.25,773.0769 Q636.6094,773.2331 635.9063,773.2331 Q633.4063,773.2331 632.0781,771.5925 Q630.7656,769.9363 630.7656,766.8113 Q630.7656,763.6863 632.0781,762.03 Q633.4063,760.3738 635.9063,760.3738 Q636.6094,760.3738 637.25,760.53 Q637.9063,760.6863 638.4688,760.9831 L638.4688,763.7019 Q637.8438,763.1238 637.25,762.8581 Q636.6563,762.5769 636.0313,762.5769 Q634.6875,762.5769 634,763.655 Q633.3125,764.7175 633.3125,766.8113 Q633.3125,768.905 634,769.9831 Q634.6875,771.0456 636.0313,771.0456 Q636.6563,771.0456 637.25,770.78 Q637.8438,770.4988 638.4688,769.9206 L638.4688,772.6394 Z " fill="#000000"/><a href="https://bo4e.github.io/BO4E-python/latest/api/bo4e.enum.html#bo4e.enum.netzebene.Netzebene" target="_top" title="https://bo4e.github.io/BO4E-python/latest/api/bo4e.enum.html#bo4e.enum.netzebene.Netzebene" xlink:actuate="onRequest" xlink:href="https://bo4e.github.io/BO4E-python/latest/api/bo4e.enum.html#bo4e.enum.netzebene.Netzebene" xlink:show="new" xlink:title="https://bo4e.github.io/BO4E-python/latest/api/bo4e.enum.html#bo4e.enum.netzebene.Netzebene" xlink:type="simple"><text fill="#0000FF" font-family="sans-serif" font-size="14" lengthAdjust="spacing" text-decoration="underline" textLength="77" x="665.5" y="766.0251">Netzebene</text></a><text fill="#000000" font-family="sans-serif" font-size="10" lengthAdjust="spacing" textLength="109" x="649.5" y="778.6091">bo4e.enum.netzebene</text></g><!--class Sparte--><g id="elem_Sparte"><rect codeLine="25" fill="#F1F1F1" height="37.9375" id="Sparte" rx="2.5" ry="2.5" style="stroke:#181818;stroke-width:0.5;" width="121" x="630.5" y="821.03"/><ellipse cx="645.5" cy="839.9988" fill="#ADD1B2" rx="11" ry="11" style="stroke:#181818;stroke-width:1.0;"/><path d="M648.4688,845.6394 Q647.8906,845.9363 647.25,846.0769 Q646.6094,846.2331 645.9063,846.2331 Q643.4063,846.2331 642.0781,844.5925 Q640.7656,842.9363 640.7656,839.8113 Q640.7656,836.6863 642.0781,835.03 Q643.4063,833.3738 645.9063,833.3738 Q646.6094,833.3738 647.25,833.53 Q647.9063,833.6863 648.4688,833.9831 L648.4688,836.7019 Q647.8438,836.1238 647.25,835.8581 Q646.6563,835.5769 646.0313,835.5769 Q644.6875,835.5769 644,836.655 Q643.3125,837.7175 643.3125,839.8113 Q643.3125,841.905 644,842.9831 Q644.6875,844.0456 646.0313,844.0456 Q646.6563,844.0456 647.25,843.78 Q647.8438,843.4988 648.4688,842.9206 L648.4688,845.6394 Z " fill="#000000"/><a href="https://bo4e.github.io/BO4E-python/latest/api/bo4e.enum.html#bo4e.enum.sparte.Sparte" target="_top" title="https://bo4e.github.io/BO4E-python/latest/api/bo4e.enum.html#bo4e.enum.sparte.Sparte" xlink:actuate="onRequest" xlink:href="https://bo4e.github.io/BO4E-python/latest/api/bo4e.enum.html#bo4e.enum.sparte.Sparte" xlink:show="new" xlink:title="https://bo4e.github.io/BO4E-python/latest/api/bo4e.enum.html#bo4e.enum.sparte.Sparte" xlink:type="simple"><text fill="#0000FF" font-family="sans-serif" font-size="14" lengthAdjust="spacing" text-decoration="underline" textLength="45" x="681.5" y="839.0251">Sparte</text></a><text fill="#000000" font-family="sans-serif" font-size="10" lengthAdjust="spacing" textLength="89" x="659.5" y="851.6091">bo4e.enum.sparte</text></g><!--class Messlokation--><g id="elem_Messlokation"><rect codeLine="3" fill="#F1F1F1" height="127.4219" id="Messlokation" rx="2.5" ry="2.5" style="stroke:#181818;stroke-width:0.5;" width="368" x="7" y="371.29"/><ellipse cx="134.25" cy="390.2587" fill="#ADD1B2" rx="11" ry="11" style="stroke:#181818;stroke-width:1.0;"/><path d="M137.2188,395.8994 Q136.6406,396.1962 136,396.3369 Q135.3594,396.4931 134.6563,396.4931 Q132.1563,396.4931 130.8281,394.8525 Q129.5156,393.1962 129.5156,390.0712 Q129.5156,386.9462 130.8281,385.29 Q132.1563,383.6337 134.6563,383.6337 Q135.3594,383.6337 136,383.79 Q136.6563,383.9462 137.2188,384.2431 L137.2188,386.9619 Q136.5938,386.3837 136,386.1181 Q135.4063,385.8369 134.7813,385.8369 Q133.4375,385.8369 132.75,386.915 Q132.0625,387.9775 132.0625,390.0712 Q132.0625,392.165 132.75,393.2431 Q133.4375,394.3056 134.7813,394.3056 Q135.4063,394.3056 136,394.04 Q136.5938,393.7587 137.2188,393.1806 L137.2188,395.8994 Z " fill="#000000"/><a href="https://bo4e.github.io/BO4E-python/latest/api/bo4e.bo.html#bo4e.bo.messlokation.Messlokation" target="_top" title="https://bo4e.github.io/BO4E-python/latest/api/bo4e.bo.html#bo4e.bo.messlokation.Messlokation" xlink:actuate="onRequest" xlink:href="https://bo4e.github.io/BO4E-python/latest/api/bo4e.bo.html#bo4e.bo.messlokation.Messlokation" xlink:show="new" xlink:title="https://bo4e.github.io/BO4E-python/latest/api/bo4e.bo.html#bo4e.bo.messlokation.Messlokation" xlink:type="simple"><text fill="#0000FF" font-family="sans-serif" font-size="14" lengthAdjust="spacing" text-decoration="underline" textLength="91" x="161.75" y="389.2851">Messlokation</text></a><text fill="#000000" font-family="sans-serif" font-size="10" lengthAdjust="spacing" textLength="105" x="154.75" y="401.8691">bo4e.bo.messlokation</text><line style="stroke:#181818;stroke-width:0.5;" x1="8" x2="374" y1="409.2275" y2="409.2275"/><text fill="#000000" font-family="sans-serif" font-size="14" lengthAdjust="spacing" textLength="240" x="13" y="426.2226">messlokationsId : str [0..1] = None</text><text fill="#000000" font-family="sans-serif" font-size="14" lengthAdjust="spacing" textLength="224" x="13" y="442.5195">messgebietnr : str [0..1] = None</text><text fill="#000000" font-family="sans-serif" font-size="14" lengthAdjust="spacing" textLength="340" x="13" y="458.8164">grundzustaendigerMsbCodenr : str [0..1] = None</text><text fill="#000000" font-family="sans-serif" font-size="14" lengthAdjust="spacing" textLength="356" x="13" y="475.1132">grundzustaendigerMsbimCodenr : str [0..1] = None</text><text fill="#000000" font-family="sans-serif" font-size="14" lengthAdjust="spacing" textLength="327" x="13" y="491.4101">lokationsbuendelObjektcode : str [0..1] = None</text></g><!--reverse link Messlokation to Lokationszuordnung--><g id="link_Messlokation_Lokationszuordnung"><path codeLine="28" d="M277.1298,363.7968 C315.8398,334.4268 355.58,309.18 405,290 C468.73,265.26 545.69,255.25 603.57,251.3 " fill="none" id="Messlokation-backto-Lokationszuordnung" style="stroke:#181818;stroke-width:1.0;"/><polygon fill="#181818" points="267.57,371.05,274.7677,370.61,277.1298,363.7968,269.9322,364.2368,267.57,371.05" style="stroke:#181818;stroke-width:1.0;"/><text fill="#000000" font-family="sans-serif" font-size="13" lengthAdjust="spacing" textLength="101" x="426" y="254.0669">messlokationen</text><text fill="#000000" font-family="sans-serif" font-size="13" lengthAdjust="spacing" textLength="23" x="251.687" y="360.3092">0..*</text></g><!--link Messlokation to Lokationszuordnung--><g id="link_Messlokation_Lokationszuordnung"><path codeLine="38" d="M342.82,370.86 C363.54,363.01 384.67,355.48 405,349 C467.24,329.16 500.99,360.36 548,315 C557.62,305.72 546.55,295.46 556,286 C568.97,273.03 574.613,268.1325 592.213,262.5425 " fill="none" id="Messlokation-to-Lokationszuordnung" style="stroke:#181818;stroke-width:1.0;"/><polygon fill="#181818" points="603.65,258.91,596.7207,256.9139,592.213,262.5425,599.1424,264.5386,603.65,258.91" style="stroke:#181818;stroke-width:1.0;"/><text fill="#000000" font-family="sans-serif" font-size="13" lengthAdjust="spacing" textLength="141" x="406" y="311.0669">lokationszuordnungen</text><text fill="#000000" font-family="sans-serif" font-size="13" lengthAdjust="spacing" textLength="23" x="573.0818" y="272.315">0..*</text></g><!--link Messlokation to Geschaeftsobjekt--><g id="link_Messlokation_Geschaeftsobjekt"><path codeLine="29" d="M224.96,370.93 C260.67,308.16 323.64,214.76 405,164 C467.89,124.76 534.2025,111.9587 594.7625,106.8987 " fill="none" id="Messlokation-to-Geschaeftsobjekt" style="stroke:#181818;stroke-width:1.0;"/><polygon fill="none" points="612.7,105.4,594.2629,100.9196,595.2621,112.8779,612.7,105.4" style="stroke:#181818;stroke-width:1.0;"/></g><!--link Messlokation to Sparte--><g id="link_Messlokation_Sparte"><path codeLine="30" d="M222.8,499.11 C258.3,567.06 322.52,673.54 405,740 C471.35,793.46 556.5111,817.099 618.4811,828.879 " fill="none" id="Messlokation-to-Sparte" style="stroke:#181818;stroke-width:1.0;"/><polygon fill="#181818" points="630.27,831.12,625.1225,826.0699,618.4811,828.879,623.6286,833.9291,630.27,831.12" style="stroke:#181818;stroke-width:1.0;"/><text fill="#000000" font-family="sans-serif" font-size="13" lengthAdjust="spacing" textLength="41" x="456" y="736.0669">sparte</text><text fill="#000000" font-family="sans-serif" font-size="13" lengthAdjust="spacing" textLength="24" x="598.3152" y="843.0434">0..1</text></g><!--link Messlokation to Netzebene--><g id="link_Messlokation_Netzebene"><path codeLine="31" d="M247.82,498.96 C288.25,542.5 345.98,599.23 405,639 C477.64,687.95 560.7665,722.0234 620.5665,743.5034 " fill="none" id="Messlokation-to-Netzebene" style="stroke:#181818;stroke-width:1.0;"/><polygon fill="#181818" points="631.86,747.56,627.5654,741.7672,620.5665,743.5034,624.861,749.2962,631.86,747.56" style="stroke:#181818;stroke-width:1.0;"/><text fill="#000000" font-family="sans-serif" font-size="13" lengthAdjust="spacing" textLength="125" x="414" y="635.0669">netzebeneMessung</text><text fill="#000000" font-family="sans-serif" font-size="13" lengthAdjust="spacing" textLength="24" x="588.7411" y="737.405">0..1</text></g><!--link Messlokation to Geraet--><g id="link_Messlokation_Geraet"><path codeLine="32" d="M375.13,406.82 C431,396.82 492.35,384.41 548,370 C578.48,362.11 600.5718,354.9935 627.3118,345.4235 " fill="none" id="Messlokation-to-Geraet" style="stroke:#181818;stroke-width:1.0;"/><polygon fill="#181818" points="638.61,341.38,631.613,339.6357,627.3118,345.4235,634.3087,347.1678,638.61,341.38" style="stroke:#181818;stroke-width:1.0;"/><text fill="#000000" font-family="sans-serif" font-size="13" lengthAdjust="spacing" textLength="50" x="451.5" y="366.0669">geraete</text><text fill="#000000" font-family="sans-serif" font-size="13" lengthAdjust="spacing" textLength="23" x="607.0248" y="357.068">0..*</text></g><!--link Messlokation to Dienstleistung--><g id="link_Messlokation_Dienstleistung"><path codeLine="33" d="M277.18,499.05 C314.85,525.09 360.6,553.76 405,574 C468.49,602.95 488.81,598.16 556,617 C576.57,622.77 587.3633,625.7743 607.8133,631.4243 " fill="none" id="Messlokation-to-Dienstleistung" style="stroke:#181818;stroke-width:1.0;"/><polygon fill="#181818" points="619.38,634.62,614.6619,629.1666,607.8133,631.4243,612.5314,636.8777,619.38,634.62" style="stroke:#181818;stroke-width:1.0;"/><text fill="#000000" font-family="sans-serif" font-size="13" lengthAdjust="spacing" textLength="124" x="414.5" y="570.0669">messdienstleistung</text><text fill="#000000" font-family="sans-serif" font-size="13" lengthAdjust="spacing" textLength="23" x="585.7303" y="628.2516">0..*</text></g><!--link Messlokation to Zaehler--><g id="link_Messlokation_Zaehler"><path codeLine="34" d="M242.46,370.79 C281.83,325.22 340.52,266.42 405,233 C479.14,194.57 564.568,182.8297 624.158,178.7497 " fill="none" id="Messlokation-to-Zaehler" style="stroke:#181818;stroke-width:1.0;"/><polygon fill="#181818" points="636.13,177.93,629.8708,174.3492,624.158,178.7497,630.4172,182.3305,636.13,177.93" style="stroke:#181818;stroke-width:1.0;"/><text fill="#000000" font-family="sans-serif" font-size="13" lengthAdjust="spacing" textLength="139" x="407" y="185.0669">messlokationszaehler</text><text fill="#000000" font-family="sans-serif" font-size="13" lengthAdjust="spacing" textLength="23" x="605.456" y="191.0951">0..*</text></g><!--link Messlokation to Adresse--><g id="link_Messlokation_Adresse"><path codeLine="35" d="M364.39,499.12 C378.07,503.65 391.73,508.01 405,512 C481.9,535.13 560.5221,553.4192 618.5421,565.9892 " fill="none" id="Messlokation-to-Adresse" style="stroke:#181818;stroke-width:1.0;"/><polygon fill="#181818" points="630.27,568.53,625.253,563.3503,618.5421,565.9892,623.5591,571.1689,630.27,568.53" style="stroke:#181818;stroke-width:1.0;"/><text fill="#000000" font-family="sans-serif" font-size="13" lengthAdjust="spacing" textLength="86" x="433.5" y="508.0669">messadresse</text><text fill="#000000" font-family="sans-serif" font-size="13" lengthAdjust="spacing" textLength="24" x="598.3152" y="580.0607">0..1</text></g><!--link Messlokation to Geokoordinaten--><g id="link_Messlokation_Geokoordinaten"><path codeLine="36" d="M375.32,435 C456.85,435 536.51,435 599.78,435 " fill="none" id="Messlokation-to-Geokoordinaten" style="stroke:#181818;stroke-width:1.0;"/><polygon fill="#181818" points="611.78,435,605.78,431,599.78,435,605.78,439,611.78,435" style="stroke:#181818;stroke-width:1.0;"/><text fill="#000000" font-family="sans-serif" font-size="13" lengthAdjust="spacing" textLength="75" x="439" y="431.0669">geoadresse</text><text fill="#000000" font-family="sans-serif" font-size="13" lengthAdjust="spacing" textLength="24" x="579.9408" y="447.7172">0..1</text></g><!--link Messlokation to Katasteradresse--><g id="link_Messlokation_Katasteradresse"><path codeLine="37" d="M375.32,461.87 C456.16,473.72 535.077,485.2888 598.287,494.5588 " fill="none" id="Messlokation-to-Katasteradresse" style="stroke:#181818;stroke-width:1.0;"/><polygon fill="#181818" points="610.16,496.3,604.8039,491.4717,598.287,494.5588,603.6431,499.3871,610.16,496.3" style="stroke:#181818;stroke-width:1.0;"/><text fill="#000000" font-family="sans-serif" font-size="13" lengthAdjust="spacing" textLength="126" x="413.5" y="464.0669">katasterinformation</text><text fill="#000000" font-family="sans-serif" font-size="13" lengthAdjust="spacing" textLength="24" x="578.4717" y="508.0247">0..1</text></g><!--SRC=[jLR9Rjim43rNNp6mRmOissYQ1a8Rm5bG56sIGszrVT0objX8f45IAEes_rwIMYnASkB0webwrBpXut0umnGt4YG3Jk94GaGuXf8mwZXXwWi1ezKgaN8hlDaiO6VenaGcUU0IDhjwEBkTRd_BXD5PwaiKSkPlIM4LC3UHMJgkG8P2fEpHrvxTkmQ09bYlVz0FWkpGMyml-wWZy8N5W3_EcwQ1-1o11q9oMCrTTx66Zt3FA1P6CGO49UNz5Z7FQRJBXVIHHYH6VYU2QnRXQ-n9zXoZ5XdaYeBfG_0J7sMe6BtsJuv3VQLxwuTusZ502TPh4y0ImVZg_ERzyaB7SCYpZb64YQ-oIZ2pGVTJQmBQ4xtdtdPZfBUPmohV-PYaoDtlnGZbs2klj3MgIhjXnTJPiiiPZsXEO_ThPmgwKxrgkywCy2vxw5JWFke4q0CKmu73rh_A8zQVAljFJVwGPOtiLwYP_Wh2-7Q-l3Y_FZN_gtN6DOgHFJ8LK4ALALNRRqAmOJSSNGzbN9fJGqjMUU0BgK8VSLKfqVrYOsZXVjKj9qPsYpYqxahlijIvV4vVKzVo_-Y9258XKoH2wXjxOq6mORz8suFHQjC6k1f8y-RTqB1vEJI6SRG8txuxkJlKIuttaABSOO0KtVlg2-glRbHiZf5PMmylJiMLItI_cG6AuO2cmjG8AknqpxQVDoFLqYSZc4odKFNTlZBkGVCLewwtxMKw_NjPqpizqBPLnXEpx6AqFyrgE-gTKGWzXhC_70_gy6kUJi833YQZXavJzJqeYZk-HD79txelHLZi6t74obN_jgCgofRzqjwrZggS51wgsdK4iLNhzURPA-Zjikj1LLC9tJ2U6UeH4UXDiUuZG2MQan3r_imm2v0BHoJi5zZkDmJJIFm3]--></g></svg>