<svg xmlns="http://www.w3.org/2000/svg" xmlns:xlink="http://www.w3.org/1999/xlink" contentStyleType="text/css" data-diagram-type="CLASS" height="687px" preserveAspectRatio="none" style="width:1183px;height:687px;background:#FFFFFF;" version="1.1" viewBox="0 0 1183 687" width="1183px" zoomAndPan="magnify"><defs/><g><!--cluster bo4e--><g class="cluster" data-entity="bo4e" data-source-line="13" data-uid="ent0005" id="cluster_bo4e"><path d="M834.28,6 L874.156,6 A3.75,3.75 0 0 1 876.656,8.5 L883.656,28.2969 L1173.68,28.2969 A2.5,2.5 0 0 1 1176.18,30.7969 L1176.18,677.5 A2.5,2.5 0 0 1 1173.68,680 L834.28,680 A2.5,2.5 0 0 1 831.78,677.5 L831.78,8.5 A2.5,2.5 0 0 1 834.28,6" fill="none" style="stroke:#000000;stroke-width:1.5;"/><line style="stroke:#000000;stroke-width:1.5;" x1="831.78" x2="883.656" y1="28.2969" y2="28.2969"/><text fill="#000000" font-family="sans-serif" font-size="14" font-weight="bold" lengthAdjust="spacing" textLength="38.876" x="835.78" y="20.9951">bo4e</text></g><!--cluster bo--><g class="cluster" data-entity="bo" data-source-line="12" data-uid="ent0003" id="cluster_bo"><path d="M903.22,49 L968.054,49 A3.75,3.75 0 0 1 970.554,51.5 L977.554,71.2969 L1104.73,71.2969 A2.5,2.5 0 0 1 1107.23,73.7969 L1107.23,208.5 A2.5,2.5 0 0 1 1104.73,211 L903.22,211 A2.5,2.5 0 0 1 900.72,208.5 L900.72,51.5 A2.5,2.5 0 0 1 903.22,49" fill="#B6D7A8" style="stroke:#000000;stroke-width:1.5;"/><line style="stroke:#000000;stroke-width:1.5;" x1="900.72" x2="977.554" y1="71.2969" y2="71.2969"/><a href="file:////home/runner/work/BO4E-python/BO4E-python/docs/../.tox/docs/tmp/html/api/bo4e.bo.html" target="_top" title="file:////home/runner/work/BO4E-python/BO4E-python/docs/../.tox/docs/tmp/html/api/bo4e.bo.html" xlink:actuate="onRequest" xlink:href="file:////home/runner/work/BO4E-python/BO4E-python/docs/../.tox/docs/tmp/html/api/bo4e.bo.html" xlink:show="new" xlink:title="file:////home/runner/work/BO4E-python/BO4E-python/docs/../.tox/docs/tmp/html/api/bo4e.bo.html" xlink:type="simple"><text fill="#0000FF" font-family="sans-serif" font-size="14" font-weight="bold" lengthAdjust="spacing" text-decoration="underline" textLength="63.834" x="904.72" y="63.9951">bo4e.bo</text></a></g><!--cluster com--><g class="cluster" data-entity="com" data-source-line="16" data-uid="ent0007" id="cluster_com"><path d="M858.28,235 L935.9792,235 A3.75,3.75 0 0 1 938.4792,237.5 L945.4792,257.2969 L1149.68,257.2969 A2.5,2.5 0 0 1 1152.18,259.7969 L1152.18,467.5 A2.5,2.5 0 0 1 1149.68,470 L858.28,470 A2.5,2.5 0 0 1 855.78,467.5 L855.78,237.5 A2.5,2.5 0 0 1 858.28,235" fill="#E0A86C" style="stroke:#000000;stroke-width:1.5;"/><line style="stroke:#000000;stroke-width:1.5;" x1="855.78" x2="945.4792" y1="257.2969" y2="257.2969"/><a href="file:////home/runner/work/BO4E-python/BO4E-python/docs/../.tox/docs/tmp/html/api/bo4e.com.html" target="_top" title="file:////home/runner/work/BO4E-python/BO4E-python/docs/../.tox/docs/tmp/html/api/bo4e.com.html" xlink:actuate="onRequest" xlink:href="file:////home/runner/work/BO4E-python/BO4E-python/docs/../.tox/docs/tmp/html/api/bo4e.com.html" xlink:show="new" xlink:title="file:////home/runner/work/BO4E-python/BO4E-python/docs/../.tox/docs/tmp/html/api/bo4e.com.html" xlink:type="simple"><text fill="#0000FF" font-family="sans-serif" font-size="14" font-weight="bold" lengthAdjust="spacing" text-decoration="underline" textLength="76.6992" x="859.78" y="249.9951">bo4e.com</text></a></g><!--cluster enum--><g class="cluster" data-entity="enum" data-source-line="21" data-uid="ent0011" id="cluster_enum"><path d="M918.71,494 L1007.9209,494 A3.75,3.75 0 0 1 1010.4209,496.5 L1017.4209,516.2969 L1089.25,516.2969 A2.5,2.5 0 0 1 1091.75,518.7969 L1091.75,653.5 A2.5,2.5 0 0 1 1089.25,656 L918.71,656 A2.5,2.5 0 0 1 916.21,653.5 L916.21,496.5 A2.5,2.5 0 0 1 918.71,494" fill="#D1C358" style="stroke:#000000;stroke-width:1.5;"/><line style="stroke:#000000;stroke-width:1.5;" x1="916.21" x2="1017.4209" y1="516.2969" y2="516.2969"/><a href="file:////home/runner/work/BO4E-python/BO4E-python/docs/../.tox/docs/tmp/html/api/bo4e.enum.html" target="_top" title="file:////home/runner/work/BO4E-python/BO4E-python/docs/../.tox/docs/tmp/html/api/bo4e.enum.html" xlink:actuate="onRequest" xlink:href="file:////home/runner/work/BO4E-python/BO4E-python/docs/../.tox/docs/tmp/html/api/bo4e.enum.html" xlink:show="new" xlink:title="file:////home/runner/work/BO4E-python/BO4E-python/docs/../.tox/docs/tmp/html/api/bo4e.enum.html" xlink:type="simple"><text fill="#0000FF" font-family="sans-serif" font-size="14" font-weight="bold" lengthAdjust="spacing" text-decoration="underline" textLength="88.2109" x="920.21" y="508.9951">bo4e.enum</text></a></g><!--class Geschaeftsobjekt--><g class="entity" data-entity="Geschaeftsobjekt" data-source-line="13" data-uid="ent0004" id="entity_Geschaeftsobjekt"><rect fill="#F1F1F1" height="37.9375" rx="2.5" ry="2.5" style="stroke:#181818;stroke-width:0.5;" width="161.3896" x="923.28" y="84.03"/><ellipse cx="938.28" cy="102.9987" fill="#ADD1B2" rx="11" ry="11" style="stroke:#181818;stroke-width:1;"/><path d="M941.2488,108.6394 Q940.6706,108.9362 940.03,109.0769 Q939.3894,109.2331 938.6863,109.2331 Q936.1863,109.2331 934.8581,107.5925 Q933.5456,105.9362 933.5456,102.8112 Q933.5456,99.6862 934.8581,98.03 Q936.1863,96.3737 938.6863,96.3737 Q939.3894,96.3737 940.03,96.53 Q940.6863,96.6862 941.2488,96.9831 L941.2488,99.7019 Q940.6238,99.1237 940.03,98.8581 Q939.4363,98.5769 938.8113,98.5769 Q937.4675,98.5769 936.78,99.655 Q936.0925,100.7175 936.0925,102.8112 Q936.0925,104.905 936.78,105.9831 Q937.4675,107.0456 938.8113,107.0456 Q939.4363,107.0456 940.03,106.78 Q940.6238,106.4987 941.2488,105.9206 L941.2488,108.6394 Z " fill="#000000"/><a href="file:////home/runner/work/BO4E-python/BO4E-python/docs/../.tox/docs/tmp/html/api/bo4e.bo.html#bo4e.bo.geschaeftsobjekt.Geschaeftsobjekt" target="_top" title="file:////home/runner/work/BO4E-python/BO4E-python/docs/../.tox/docs/tmp/html/api/bo4e.bo.html#bo4e.bo.geschaeftsobjekt.Geschaeftsobjekt" xlink:actuate="onRequest" xlink:href="file:////home/runner/work/BO4E-python/BO4E-python/docs/../.tox/docs/tmp/html/api/bo4e.bo.html#bo4e.bo.geschaeftsobjekt.Geschaeftsobjekt" xlink:show="new" xlink:title="file:////home/runner/work/BO4E-python/BO4E-python/docs/../.tox/docs/tmp/html/api/bo4e.bo.html#bo4e.bo.geschaeftsobjekt.Geschaeftsobjekt" xlink:type="simple"><text fill="#0000FF" font-family="sans-serif" font-size="14" lengthAdjust="spacing" text-decoration="underline" textLength="121.7822" x="956.0837" y="102.0251">Geschaeftsobjekt</text></a><text fill="#000000" font-family="sans-serif" font-size="10" lengthAdjust="spacing" textLength="129.3896" x="952.28" y="114.6091">bo4e.bo.geschaeftsobjekt</text></g><!--class Lokationszuordnung--><g class="entity" data-entity="Lokationszuordnung" data-source-line="14" data-uid="ent0006" id="entity_Lokationszuordnung"><rect fill="#F1F1F1" height="37.9375" rx="2.5" ry="2.5" style="stroke:#181818;stroke-width:0.5;" width="174.5098" x="916.72" y="157.03"/><ellipse cx="931.72" cy="175.9987" fill="#ADD1B2" rx="11" ry="11" style="stroke:#181818;stroke-width:1;"/><path d="M934.6888,181.6394 Q934.1106,181.9362 933.47,182.0769 Q932.8294,182.2331 932.1263,182.2331 Q929.6263,182.2331 928.2981,180.5925 Q926.9856,178.9362 926.9856,175.8112 Q926.9856,172.6862 928.2981,171.03 Q929.6263,169.3737 932.1263,169.3737 Q932.8294,169.3737 933.47,169.53 Q934.1263,169.6862 934.6888,169.9831 L934.6888,172.7019 Q934.0638,172.1237 933.47,171.8581 Q932.8763,171.5769 932.2513,171.5769 Q930.9075,171.5769 930.22,172.655 Q929.5325,173.7175 929.5325,175.8112 Q929.5325,177.905 930.22,178.9831 Q930.9075,180.0456 932.2513,180.0456 Q932.8763,180.0456 933.47,179.78 Q934.0638,179.4987 934.6888,178.9206 L934.6888,181.6394 Z " fill="#000000"/><a href="file:////home/runner/work/BO4E-python/BO4E-python/docs/../.tox/docs/tmp/html/api/bo4e.bo.html#bo4e.bo.lokationszuordnung.Lokationszuordnung" target="_top" title="file:////home/runner/work/BO4E-python/BO4E-python/docs/../.tox/docs/tmp/html/api/bo4e.bo.html#bo4e.bo.lokationszuordnung.Lokationszuordnung" xlink:actuate="onRequest" xlink:href="file:////home/runner/work/BO4E-python/BO4E-python/docs/../.tox/docs/tmp/html/api/bo4e.bo.html#bo4e.bo.lokationszuordnung.Lokationszuordnung" xlink:show="new" xlink:title="file:////home/runner/work/BO4E-python/BO4E-python/docs/../.tox/docs/tmp/html/api/bo4e.bo.html#bo4e.bo.lokationszuordnung.Lokationszuordnung" xlink:type="simple"><text fill="#0000FF" font-family="sans-serif" font-size="14" lengthAdjust="spacing" text-decoration="underline" textLength="142.0986" x="945.9256" y="175.0251">Lokationszuordnung</text></a><text fill="#000000" font-family="sans-serif" font-size="10" lengthAdjust="spacing" textLength="142.5098" x="945.72" y="187.6091">bo4e.bo.lokationszuordnung</text></g><!--class VerwendungszweckProMarktrolle--><g class="entity" data-entity="VerwendungszweckProMarktrolle" data-source-line="17" data-uid="ent0008" id="entity_VerwendungszweckProMarktrolle"><rect fill="#F1F1F1" height="37.9375" rx="2.5" ry="2.5" style="stroke:#181818;stroke-width:0.5;" width="264.4014" x="871.78" y="270.03"/><ellipse cx="886.78" cy="288.9988" fill="#ADD1B2" rx="11" ry="11" style="stroke:#181818;stroke-width:1;"/><path d="M889.7488,294.6394 Q889.1706,294.9363 888.53,295.0769 Q887.8894,295.2331 887.1863,295.2331 Q884.6863,295.2331 883.3581,293.5925 Q882.0456,291.9363 882.0456,288.8113 Q882.0456,285.6863 883.3581,284.03 Q884.6863,282.3738 887.1863,282.3738 Q887.8894,282.3738 888.53,282.53 Q889.1863,282.6863 889.7488,282.9831 L889.7488,285.7019 Q889.1238,285.1238 888.53,284.8581 Q887.9363,284.5769 887.3113,284.5769 Q885.9675,284.5769 885.28,285.655 Q884.5925,286.7175 884.5925,288.8113 Q884.5925,290.905 885.28,291.9831 Q885.9675,293.0456 887.3113,293.0456 Q887.9363,293.0456 888.53,292.78 Q889.1238,292.4988 889.7488,291.9206 L889.7488,294.6394 Z " fill="#000000"/><a href="file:////home/runner/work/BO4E-python/BO4E-python/docs/../.tox/docs/tmp/html/api/bo4e.com.html#bo4e.com.verwendungszweckpromarktrolle.VerwendungszweckProMarktrolle" target="_top" title="file:////home/runner/work/BO4E-python/BO4E-python/docs/../.tox/docs/tmp/html/api/bo4e.com.html#bo4e.com.verwendungszweckpromarktrolle.VerwendungszweckProMarktrolle" xlink:actuate="onRequest" xlink:href="file:////home/runner/work/BO4E-python/BO4E-python/docs/../.tox/docs/tmp/html/api/bo4e.com.html#bo4e.com.verwendungszweckpromarktrolle.VerwendungszweckProMarktrolle" xlink:show="new" xlink:title="file:////home/runner/work/BO4E-python/BO4E-python/docs/../.tox/docs/tmp/html/api/bo4e.com.html#bo4e.com.verwendungszweckpromarktrolle.VerwendungszweckProMarktrolle" xlink:type="simple"><text fill="#0000FF" font-family="sans-serif" font-size="14" lengthAdjust="spacing" text-decoration="underline" textLength="232.4014" x="900.78" y="288.0251">VerwendungszweckProMarktrolle</text></a><text fill="#000000" font-family="sans-serif" font-size="10" lengthAdjust="spacing" textLength="219.2041" x="907.3786" y="300.6091">bo4e.com.verwendungszweckpromarktrolle</text></g><!--class Menge--><g class="entity" data-entity="Menge" data-source-line="18" data-uid="ent0009" id="entity_Menge"><rect fill="#F1F1F1" height="37.9375" rx="2.5" ry="2.5" style="stroke:#181818;stroke-width:0.5;" width="119.4268" x="944.26" y="343.03"/><ellipse cx="959.26" cy="361.9988" fill="#ADD1B2" rx="11" ry="11" style="stroke:#181818;stroke-width:1;"/><path d="M962.2288,367.6394 Q961.6506,367.9363 961.01,368.0769 Q960.3694,368.2331 959.6663,368.2331 Q957.1663,368.2331 955.8381,366.5925 Q954.5256,364.9363 954.5256,361.8113 Q954.5256,358.6863 955.8381,357.03 Q957.1663,355.3738 959.6663,355.3738 Q960.3694,355.3738 961.01,355.53 Q961.6663,355.6863 962.2288,355.9831 L962.2288,358.7019 Q961.6038,358.1238 961.01,357.8581 Q960.4163,357.5769 959.7913,357.5769 Q958.4475,357.5769 957.76,358.655 Q957.0725,359.7175 957.0725,361.8113 Q957.0725,363.905 957.76,364.9831 Q958.4475,366.0456 959.7913,366.0456 Q960.4163,366.0456 961.01,365.78 Q961.6038,365.4988 962.2288,364.9206 L962.2288,367.6394 Z " fill="#000000"/><a href="file:////home/runner/work/BO4E-python/BO4E-python/docs/../.tox/docs/tmp/html/api/bo4e.com.html#bo4e.com.menge.Menge" target="_top" title="file:////home/runner/work/BO4E-python/BO4E-python/docs/../.tox/docs/tmp/html/api/bo4e.com.html#bo4e.com.menge.Menge" xlink:actuate="onRequest" xlink:href="file:////home/runner/work/BO4E-python/BO4E-python/docs/../.tox/docs/tmp/html/api/bo4e.com.html#bo4e.com.menge.Menge" xlink:show="new" xlink:title="file:////home/runner/work/BO4E-python/BO4E-python/docs/../.tox/docs/tmp/html/api/bo4e.com.html#bo4e.com.menge.Menge" xlink:type="simple"><text fill="#0000FF" font-family="sans-serif" font-size="14" lengthAdjust="spacing" text-decoration="underline" textLength="47.0654" x="993.4407" y="361.0251">Menge</text></a><text fill="#000000" font-family="sans-serif" font-size="10" lengthAdjust="spacing" textLength="87.4268" x="973.26" y="373.6091">bo4e.com.menge</text></g><!--class Konfigurationsprodukt--><g class="entity" data-entity="Konfigurationsprodukt" data-source-line="19" data-uid="ent0010" id="entity_Konfigurationsprodukt"><rect fill="#F1F1F1" height="37.9375" rx="2.5" ry="2.5" style="stroke:#181818;stroke-width:0.5;" width="195.5059" x="906.22" y="416.03"/><ellipse cx="921.22" cy="434.9988" fill="#ADD1B2" rx="11" ry="11" style="stroke:#181818;stroke-width:1;"/><path d="M924.1888,440.6394 Q923.6106,440.9363 922.97,441.0769 Q922.3294,441.2331 921.6263,441.2331 Q919.1263,441.2331 917.7981,439.5925 Q916.4856,437.9363 916.4856,434.8113 Q916.4856,431.6863 917.7981,430.03 Q919.1263,428.3738 921.6263,428.3738 Q922.3294,428.3738 922.97,428.53 Q923.6263,428.6863 924.1888,428.9831 L924.1888,431.7019 Q923.5638,431.1238 922.97,430.8581 Q922.3763,430.5769 921.7513,430.5769 Q920.4075,430.5769 919.72,431.655 Q919.0325,432.7175 919.0325,434.8113 Q919.0325,436.905 919.72,437.9831 Q920.4075,439.0456 921.7513,439.0456 Q922.3763,439.0456 922.97,438.78 Q923.5638,438.4988 924.1888,437.9206 L924.1888,440.6394 Z " fill="#000000"/><a href="file:////home/runner/work/BO4E-python/BO4E-python/docs/../.tox/docs/tmp/html/api/bo4e.com.html#bo4e.com.konfigurationsprodukt.Konfigurationsprodukt" target="_top" title="file:////home/runner/work/BO4E-python/BO4E-python/docs/../.tox/docs/tmp/html/api/bo4e.com.html#bo4e.com.konfigurationsprodukt.Konfigurationsprodukt" xlink:actuate="onRequest" xlink:href="file:////home/runner/work/BO4E-python/BO4E-python/docs/../.tox/docs/tmp/html/api/bo4e.com.html#bo4e.com.konfigurationsprodukt.Konfigurationsprodukt" xlink:show="new" xlink:title="file:////home/runner/work/BO4E-python/BO4E-python/docs/../.tox/docs/tmp/html/api/bo4e.com.html#bo4e.com.konfigurationsprodukt.Konfigurationsprodukt" xlink:type="simple"><text fill="#0000FF" font-family="sans-serif" font-size="14" lengthAdjust="spacing" text-decoration="underline" textLength="156.208" x="938.8689" y="434.0251">Konfigurationsprodukt</text></a><text fill="#000000" font-family="sans-serif" font-size="10" lengthAdjust="spacing" textLength="163.5059" x="935.22" y="446.6091">bo4e.com.konfigurationsprodukt</text></g><!--class Marktrolle--><g class="entity" data-entity="Marktrolle" data-source-line="22" data-uid="ent0012" id="entity_Marktrolle"><rect fill="#F1F1F1" height="37.9375" rx="2.5" ry="2.5" style="stroke:#181818;stroke-width:0.5;" width="143.5381" x="932.21" y="529.03"/><ellipse cx="947.21" cy="547.9988" fill="#ADD1B2" rx="11" ry="11" style="stroke:#181818;stroke-width:1;"/><path d="M950.1788,553.6394 Q949.6006,553.9363 948.96,554.0769 Q948.3194,554.2331 947.6163,554.2331 Q945.1163,554.2331 943.7881,552.5925 Q942.4756,550.9363 942.4756,547.8113 Q942.4756,544.6863 943.7881,543.03 Q945.1163,541.3738 947.6163,541.3738 Q948.3194,541.3738 948.96,541.53 Q949.6163,541.6863 950.1788,541.9831 L950.1788,544.7019 Q949.5538,544.1238 948.96,543.8581 Q948.3663,543.5769 947.7413,543.5769 Q946.3975,543.5769 945.71,544.655 Q945.0225,545.7175 945.0225,547.8113 Q945.0225,549.905 945.71,550.9831 Q946.3975,552.0456 947.7413,552.0456 Q948.3663,552.0456 948.96,551.78 Q949.5538,551.4988 950.1788,550.9206 L950.1788,553.6394 Z " fill="#000000"/><a href="file:////home/runner/work/BO4E-python/BO4E-python/docs/../.tox/docs/tmp/html/api/bo4e.enum.html#bo4e.enum.marktrolle.Marktrolle" target="_top" title="file:////home/runner/work/BO4E-python/BO4E-python/docs/../.tox/docs/tmp/html/api/bo4e.enum.html#bo4e.enum.marktrolle.Marktrolle" xlink:actuate="onRequest" xlink:href="file:////home/runner/work/BO4E-python/BO4E-python/docs/../.tox/docs/tmp/html/api/bo4e.enum.html#bo4e.enum.marktrolle.Marktrolle" xlink:show="new" xlink:title="file:////home/runner/work/BO4E-python/BO4E-python/docs/../.tox/docs/tmp/html/api/bo4e.enum.html#bo4e.enum.marktrolle.Marktrolle" xlink:type="simple"><text fill="#0000FF" font-family="sans-serif" font-size="14" lengthAdjust="spacing" text-decoration="underline" textLength="70.7246" x="981.6167" y="547.0251">Marktrolle</text></a><text fill="#000000" font-family="sans-serif" font-size="10" lengthAdjust="spacing" textLength="111.5381" x="961.21" y="559.6091">bo4e.enum.marktrolle</text></g><!--class Sparte--><g class="entity" data-entity="Sparte" data-source-line="23" data-uid="ent0013" id="entity_Sparte"><rect fill="#F1F1F1" height="37.9375" rx="2.5" ry="2.5" style="stroke:#181818;stroke-width:0.5;" width="123.7773" x="942.09" y="602.03"/><ellipse cx="957.09" cy="620.9988" fill="#ADD1B2" rx="11" ry="11" style="stroke:#181818;stroke-width:1;"/><path d="M960.0588,626.6394 Q959.4806,626.9363 958.84,627.0769 Q958.1994,627.2331 957.4963,627.2331 Q954.9963,627.2331 953.6681,625.5925 Q952.3556,623.9363 952.3556,620.8113 Q952.3556,617.6863 953.6681,616.03 Q954.9963,614.3738 957.4963,614.3738 Q958.1994,614.3738 958.84,614.53 Q959.4963,614.6863 960.0588,614.9831 L960.0588,617.7019 Q959.4338,617.1238 958.84,616.8581 Q958.2463,616.5769 957.6213,616.5769 Q956.2775,616.5769 955.59,617.655 Q954.9025,618.7175 954.9025,620.8113 Q954.9025,622.905 955.59,623.9831 Q956.2775,625.0456 957.6213,625.0456 Q958.2463,625.0456 958.84,624.78 Q959.4338,624.4988 960.0588,623.9206 L960.0588,626.6394 Z " fill="#000000"/><a href="file:////home/runner/work/BO4E-python/BO4E-python/docs/../.tox/docs/tmp/html/api/bo4e.enum.html#bo4e.enum.sparte.Sparte" target="_top" title="file:////home/runner/work/BO4E-python/BO4E-python/docs/../.tox/docs/tmp/html/api/bo4e.enum.html#bo4e.enum.sparte.Sparte" xlink:actuate="onRequest" xlink:href="file:////home/runner/work/BO4E-python/BO4E-python/docs/../.tox/docs/tmp/html/api/bo4e.enum.html#bo4e.enum.sparte.Sparte" xlink:show="new" xlink:title="file:////home/runner/work/BO4E-python/BO4E-python/docs/../.tox/docs/tmp/html/api/bo4e.enum.html#bo4e.enum.sparte.Sparte" xlink:type="simple"><text fill="#0000FF" font-family="sans-serif" font-size="14" lengthAdjust="spacing" text-decoration="underline" textLength="46.2109" x="993.8732" y="620.0251">Sparte</text></a><text fill="#000000" font-family="sans-serif" font-size="10" lengthAdjust="spacing" textLength="91.7773" x="971.09" y="632.6091">bo4e.enum.sparte</text></g><!--class Netzlokation--><g class="entity" data-entity="Netzlokation" data-source-line="3" data-uid="ent0002" id="entity_Netzlokation"><rect fill="#F1F1F1" height="143.7188" rx="2.5" ry="2.5" style="stroke:#181818;stroke-width:0.5;" width="619.7764" x="7" y="261.14"/><ellipse cx="259.9209" cy="280.1088" fill="#ADD1B2" rx="11" ry="11" style="stroke:#181818;stroke-width:1;"/><path d="M262.8896,285.7494 Q262.3115,286.0463 261.6709,286.1869 Q261.0303,286.3431 260.3271,286.3431 Q257.8271,286.3431 256.499,284.7025 Q255.1865,283.0463 255.1865,279.9213 Q255.1865,276.7963 256.499,275.14 Q257.8271,273.4838 260.3271,273.4838 Q261.0303,273.4838 261.6709,273.64 Q262.3271,273.7963 262.8896,274.0931 L262.8896,276.8119 Q262.2646,276.2338 261.6709,275.9681 Q261.0771,275.6869 260.4521,275.6869 Q259.1084,275.6869 258.4209,276.765 Q257.7334,277.8275 257.7334,279.9213 Q257.7334,282.015 258.4209,283.0931 Q259.1084,284.1556 260.4521,284.1556 Q261.0771,284.1556 261.6709,283.89 Q262.2646,283.6088 262.8896,283.0306 L262.8896,285.7494 Z " fill="#000000"/><a href="file:////home/runner/work/BO4E-python/BO4E-python/docs/../.tox/docs/tmp/html/api/bo4e.bo.html#bo4e.bo.netzlokation.Netzlokation" target="_top" title="file:////home/runner/work/BO4E-python/BO4E-python/docs/../.tox/docs/tmp/html/api/bo4e.bo.html#bo4e.bo.netzlokation.Netzlokation" xlink:actuate="onRequest" xlink:href="file:////home/runner/work/BO4E-python/BO4E-python/docs/../.tox/docs/tmp/html/api/bo4e.bo.html#bo4e.bo.netzlokation.Netzlokation" xlink:show="new" xlink:title="file:////home/runner/work/BO4E-python/BO4E-python/docs/../.tox/docs/tmp/html/api/bo4e.bo.html#bo4e.bo.netzlokation.Netzlokation" xlink:type="simple"><text fill="#0000FF" font-family="sans-serif" font-size="14" lengthAdjust="spacing" text-decoration="underline" textLength="87.8828" x="289.1968" y="279.1351">Netzlokation</text></a><text fill="#000000" font-family="sans-serif" font-size="10" lengthAdjust="spacing" textLength="105.4346" x="280.4209" y="291.7191">bo4e.bo.netzlokation</text><line style="stroke:#181818;stroke-width:0.5;" x1="8" x2="625.7764" y1="299.0775" y2="299.0775"/><text fill="#000000" font-family="sans-serif" font-size="14" lengthAdjust="spacing" textLength="607.7764" x="13" y="316.0726">_typ : Literal[&lt;BoTyp.NETZLOKATION: 'NETZLOKATION'&gt;] [1] = BoTyp.NETZLOKATION</text><text fill="#000000" font-family="sans-serif" font-size="14" lengthAdjust="spacing" textLength="237.9932" x="13" y="332.3695">netzlokationsId : str [0..1] = None</text><text fill="#000000" font-family="sans-serif" font-size="14" lengthAdjust="spacing" textLength="342.5078" x="13" y="348.6664">grundzustaendigerMsbCodenr : str [0..1] = None</text><text fill="#000000" font-family="sans-serif" font-size="14" lengthAdjust="spacing" textLength="225.4355" x="13" y="364.9632">steuerkanal : bool [0..1] = None</text><text fill="#000000" font-family="sans-serif" font-size="14" lengthAdjust="spacing" textLength="223.1934" x="13" y="381.2601">obiskennzahl : str [0..1] = None</text><text fill="#000000" font-family="sans-serif" font-size="14" lengthAdjust="spacing" textLength="331.0576" x="13" y="397.557">lokationsbuendelObjektcode : str [0..1] = None</text></g><!--link Netzlokation to Geschaeftsobjekt--><g class="link" data-entity-1="Netzlokation" data-entity-2="Geschaeftsobjekt" data-source-line="26" data-uid="lnk14" id="link_Netzlokation_Geschaeftsobjekt"><path codeLine="26" d="M444.35,260.81 C506.63,227.95 583.84,191.1 656.78,167 C745.57,137.66 834.0334,122.7978 905.2134,113.7578" fill="none" id="Netzlokation-to-Geschaeftsobjekt" style="stroke:#181818;stroke-width:1;"/><polygon fill="none" points="923.07,111.49,904.4575,107.8056,905.9694,119.71,923.07,111.49" style="stroke:#181818;stroke-width:1;"/></g><!--link Netzlokation to Sparte--><g class="link" data-entity-1="Netzlokation" data-entity-2="Sparte" data-source-line="27" data-uid="lnk15" id="link_Netzlokation_Sparte"><path codeLine="27" d="M437.5,405.23 C537.36,462.33 685.25,539.57 823.78,584 C862.19,596.32 894.7812,603.4427 929.7712,609.5927" fill="none" id="Netzlokation-to-Sparte" style="stroke:#181818;stroke-width:1;"/><polygon fill="#181818" points="941.59,611.67,936.373,606.6917,929.7712,609.5927,934.9881,614.5709,941.59,611.67" style="stroke:#181818;stroke-width:1;"/><text fill="#000000" font-family="sans-serif" font-size="13" lengthAdjust="spacing" textLength="41.4312" x="715.78" y="519.0669">sparte</text><text fill="#000000" font-family="sans-serif" font-size="13" lengthAdjust="spacing" textLength="24.8066" x="909.4979" y="623.5441">0..1</text></g><!--link Netzlokation to Menge--><g class="link" data-entity-1="Netzlokation" data-entity-2="Menge" data-source-line="28" data-uid="lnk16" id="link_Netzlokation_Menge"><path codeLine="28" d="M627.2,355.63 C637.18,356.13 647.05,356.59 656.78,357 C757.52,361.29 862.89,362.1013 931.83,362.1513" fill="none" id="Netzlokation-to-Menge" style="stroke:#181818;stroke-width:1;"/><polygon fill="#181818" points="943.83,362.16,937.8329,358.1556,931.83,362.1513,937.8271,366.1556,943.83,362.16" style="stroke:#181818;stroke-width:1;"/><text fill="#000000" font-family="sans-serif" font-size="13" lengthAdjust="spacing" textLength="143.7427" x="664.78" y="353.0669">netzanschlussleistung</text><text fill="#000000" font-family="sans-serif" font-size="13" lengthAdjust="spacing" textLength="24.8066" x="911.5351" y="375.1204">0..1</text></g><!--link Netzlokation to VerwendungszweckProMarktrolle--><g class="link" data-entity-1="Netzlokation" data-entity-2="VerwendungszweckProMarktrolle" data-source-line="29" data-uid="lnk17" id="link_Netzlokation_VerwendungszweckProMarktrolle"><path codeLine="29" d="M626.86,313.16 C712.92,307.63 789.8547,302.6891 859.6147,298.2091" fill="none" id="Netzlokation-to-VerwendungszweckProMarktrolle" style="stroke:#181818;stroke-width:1;"/><polygon fill="#181818" points="871.59,297.44,865.346,293.8328,859.6147,298.2091,865.8587,301.8163,871.59,297.44" style="stroke:#181818;stroke-width:1;"/><text fill="#000000" font-family="sans-serif" font-size="13" lengthAdjust="spacing" textLength="127.791" x="672.78" y="299.0669">verwendungszweck</text><text fill="#000000" font-family="sans-serif" font-size="13" lengthAdjust="spacing" textLength="24.8066" x="838.8158" y="310.4824">0..1</text></g><!--link Netzlokation to Konfigurationsprodukt--><g class="link" data-entity-1="Netzlokation" data-entity-2="Konfigurationsprodukt" data-source-line="30" data-uid="lnk18" id="link_Netzlokation_Konfigurationsprodukt"><path codeLine="30" d="M627.2,382.55 C637.18,384.07 647.05,385.55 656.78,387 C740.8,399.52 824.568,411.0936 894.008,420.4736" fill="none" id="Netzlokation-to-Konfigurationsprodukt" style="stroke:#181818;stroke-width:1;"/><polygon fill="#181818" points="905.9,422.08,900.4895,417.3128,894.008,420.4736,899.4185,425.2408,905.9,422.08" style="stroke:#181818;stroke-width:1;"/><text fill="#000000" font-family="sans-serif" font-size="13" lengthAdjust="spacing" textLength="152.0518" x="660.28" y="383.0669">konfigurationsprodukte</text><text fill="#000000" font-family="sans-serif" font-size="13" lengthAdjust="spacing" textLength="23.0356" x="875.1969" y="433.7706">0..*</text></g><!--link Netzlokation to Marktrolle--><g class="link" data-entity-1="Netzlokation" data-entity-2="Marktrolle" data-source-line="31" data-uid="lnk19" id="link_Netzlokation_Marktrolle"><path codeLine="31" d="M548.4,405.34 C686.93,448.81 841.4807,497.3163 929.5407,524.9563" fill="none" id="Netzlokation-to-Marktrolle" style="stroke:#181818;stroke-width:1;"/><polygon fill="#181818" points="940.99,528.55,936.4633,522.9367,929.5407,524.9563,934.0675,530.5696,940.99,528.55" style="stroke:#181818;stroke-width:1;"/><text fill="#000000" font-family="sans-serif" font-size="13" lengthAdjust="spacing" textLength="157.7329" x="657.78" y="437.0669">eigenschaftMsbLokation</text><text fill="#000000" font-family="sans-serif" font-size="13" lengthAdjust="spacing" textLength="24.8066" x="899.7421" y="519.4004">0..1</text></g><!--link Netzlokation to Lokationszuordnung--><g class="link" data-entity-1="Netzlokation" data-entity-2="Lokationszuordnung" data-source-line="32" data-uid="lnk20" id="link_Netzlokation_Lokationszuordnung"><path codeLine="32" d="M503.55,260.78 C552.75,243.89 606.25,227.5 656.78,216 C743.94,196.17 833.8416,186.77 904.4116,181.64" fill="none" id="Netzlokation-to-Lokationszuordnung" style="stroke:#181818;stroke-width:1;"/><polygon fill="#181818" points="916.38,180.77,910.1058,177.2155,904.4116,181.64,910.6858,185.1945,916.38,180.77" style="stroke:#181818;stroke-width:1;"/><text fill="#000000" font-family="sans-serif" font-size="13" lengthAdjust="spacing" textLength="144.5552" x="664.28" y="188.0669">lokationszuordnungen</text><text fill="#000000" font-family="sans-serif" font-size="13" lengthAdjust="spacing" textLength="23.0356" x="885.7944" y="193.7815">0..*</text></g><!--reverse link Netzlokation to Lokationszuordnung--><g class="link" data-entity-1="Netzlokation" data-entity-2="Lokationszuordnung" data-source-line="33" data-uid="lnk21" id="link_Netzlokation_Lokationszuordnung"><path codeLine="33" d="M639.0503,281.0741 C701.8203,268.8941 755.33,256.98 815.78,241 C863.34,228.43 916.18,209.62 953.56,195.46" fill="none" id="Netzlokation-backto-Lokationszuordnung" style="stroke:#181818;stroke-width:1;"/><polygon fill="#181818" points="627.27,283.36,633.9221,286.1438,639.0503,281.0741,632.3982,278.2903,627.27,283.36" style="stroke:#181818;stroke-width:1;"/><text fill="#000000" font-family="sans-serif" font-size="13" lengthAdjust="spacing" textLength="96.3574" x="688.28" y="237.0669">netzlokationen</text><text fill="#000000" font-family="sans-serif" font-size="13" lengthAdjust="spacing" textLength="23.0356" x="634.8145" y="294.4408">0..*</text></g><!--SRC=[nLPVJzim47ycd-BKFY0XrG6DCHGn961eGa0xQMWFwwh9IQv95iUER6STtVRTvoIqf8afl2pq8UbTxdxtntU-OpZNe0N898erX8d4G2U2Eqx0g58mc4xd2KFFDRzOPEZAWdEKxaB8r3sV75wEydiT2xxnFnI1SWbnYHQ_Qa9dkHlhZBaqJrnV72Bn1IaPmnN1KI-PI6bfd8mR13I9sUmRFr794hs3_LERwW2esj20tyxETtsVWmStYKP9sVJaNDpTvsHyUVVrPd9zTdSr6NkmsoHtJsSmFPZ1U-YAEZjDU-egDCXAIvZk4rAfZ0L7PoSoYGgNXT8KUPX4A6-LVo52vD8khpGMA5FAAJC2lX2iBI7yHAN8-PB6p8wnTielZ55a4_y7fZemLgtoVns7qmnLJWFyxmSD3yHiLXtH0mN3ywCFxywEorFgkU0YL45CJVKhKQM9V6mneCsm5byRfegkhTbxSEjAM1P2XhpW4RdfiA3BieRO1Qk2x6gRYkgXe0AHDIhAKCsICYGCB_VFZeykUgYfbIl3DVKJvSBqdac6MYumI7CfCYfJBGLZIBwqldwIudRz5RP-xPxCi-Qgh6m5VOK4PSWZ9BVb4wgdFR1Ah0gW4de5HrF1vqbKoBh6JMB3mbmIrpOkMBdsmAomLQ1Ma7vQ2ddHxAcIR3PLISCmF0ZUlEtZfbvxCtma6qtKw9XjxT5Igskflygt1M5EKMeadwiNrAyd7Az5AwThkN9QR-v5ez6VqzKSxGolbgmHteD1EVq7ZqUwSiJi1hM9PtJAygqRruDo1wBSs6I5KWmJfSlx_mK0swz03zetsbEOUmrCUrDwOEqrV55gDdn2ix-LiTAvDblSQkuzvvav5SlCzQ0xJh6DzG2pDnh1TgpcAcfGd3Wnkrw6cOzIEIeM2zW4dYV8GlKF]--></g></svg>