<?xml version="1.0" encoding="us-ascii" standalone="no"?><svg xmlns="http://www.w3.org/2000/svg" xmlns:xlink="http://www.w3.org/1999/xlink" contentStyleType="text/css" height="687px" preserveAspectRatio="none" style="width:1160px;height:687px;background:#FFFFFF;" version="1.1" viewBox="0 0 1160 687" width="1160px" zoomAndPan="magnify"><defs/><g><!--cluster bo4e--><g id="cluster_bo4e"><path d="M813.5,6 L854.5,6 A3.75,3.75 0 0 1 857,8.5 L864,28.2969 L1150.5,28.2969 A2.5,2.5 0 0 1 1153,30.7969 L1153,677.5 A2.5,2.5 0 0 1 1150.5,680 L813.5,680 A2.5,2.5 0 0 1 811,677.5 L811,8.5 A2.5,2.5 0 0 1 813.5,6 " fill="none" style="stroke:#000000;stroke-width:1.5;"/><line style="stroke:#000000;stroke-width:1.5;" x1="811" x2="864" y1="28.2969" y2="28.2969"/><text fill="#000000" font-family="sans-serif" font-size="14" font-weight="bold" lengthAdjust="spacing" textLength="40" x="815" y="20.9951">bo4e</text></g><!--cluster bo--><g id="cluster_bo"><path d="M881.5,49 L947.5,49 A3.75,3.75 0 0 1 950,51.5 L957,71.2969 L1082.5,71.2969 A2.5,2.5 0 0 1 1085,73.7969 L1085,208.5 A2.5,2.5 0 0 1 1082.5,211 L881.5,211 A2.5,2.5 0 0 1 879,208.5 L879,51.5 A2.5,2.5 0 0 1 881.5,49 " fill="#B6D7A8" style="stroke:#000000;stroke-width:1.5;"/><line style="stroke:#000000;stroke-width:1.5;" x1="879" x2="957" y1="71.2969" y2="71.2969"/><a href="https://bo4e.github.io/BO4E-python/latest/api/bo4e.bo.html" target="_top" title="https://bo4e.github.io/BO4E-python/latest/api/bo4e.bo.html" xlink:actuate="onRequest" xlink:href="https://bo4e.github.io/BO4E-python/latest/api/bo4e.bo.html" xlink:show="new" xlink:title="https://bo4e.github.io/BO4E-python/latest/api/bo4e.bo.html" xlink:type="simple"><text fill="#0000FF" font-family="sans-serif" font-size="14" font-weight="bold" lengthAdjust="spacing" text-decoration="underline" textLength="65" x="883" y="63.9951">bo4e.bo</text></a></g><!--cluster com--><g id="cluster_com"><path d="M837.5,235 L916.5,235 A3.75,3.75 0 0 1 919,237.5 L926,257.2969 L1126.5,257.2969 A2.5,2.5 0 0 1 1129,259.7969 L1129,467.5 A2.5,2.5 0 0 1 1126.5,470 L837.5,470 A2.5,2.5 0 0 1 835,467.5 L835,237.5 A2.5,2.5 0 0 1 837.5,235 " fill="#E0A86C" style="stroke:#000000;stroke-width:1.5;"/><line style="stroke:#000000;stroke-width:1.5;" x1="835" x2="926" y1="257.2969" y2="257.2969"/><a href="https://bo4e.github.io/BO4E-python/latest/api/bo4e.com.html" target="_top" title="https://bo4e.github.io/BO4E-python/latest/api/bo4e.com.html" xlink:actuate="onRequest" xlink:href="https://bo4e.github.io/BO4E-python/latest/api/bo4e.com.html" xlink:show="new" xlink:title="https://bo4e.github.io/BO4E-python/latest/api/bo4e.com.html" xlink:type="simple"><text fill="#0000FF" font-family="sans-serif" font-size="14" font-weight="bold" lengthAdjust="spacing" text-decoration="underline" textLength="78" x="839" y="249.9951">bo4e.com</text></a></g><!--cluster enum--><g id="cluster_enum"><path d="M899,494 L989,494 A3.75,3.75 0 0 1 991.5,496.5 L998.5,516.2969 L1065,516.2969 A2.5,2.5 0 0 1 1067.5,518.7969 L1067.5,653.5 A2.5,2.5 0 0 1 1065,656 L899,656 A2.5,2.5 0 0 1 896.5,653.5 L896.5,496.5 A2.5,2.5 0 0 1 899,494 " fill="#D1C358" style="stroke:#000000;stroke-width:1.5;"/><line style="stroke:#000000;stroke-width:1.5;" x1="896.5" x2="998.5" y1="516.2969" y2="516.2969"/><a href="https://bo4e.github.io/BO4E-python/latest/api/bo4e.enum.html" target="_top" title="https://bo4e.github.io/BO4E-python/latest/api/bo4e.enum.html" xlink:actuate="onRequest" xlink:href="https://bo4e.github.io/BO4E-python/latest/api/bo4e.enum.html" xlink:show="new" xlink:title="https://bo4e.github.io/BO4E-python/latest/api/bo4e.enum.html" xlink:type="simple"><text fill="#0000FF" font-family="sans-serif" font-size="14" font-weight="bold" lengthAdjust="spacing" text-decoration="underline" textLength="89" x="900.5" y="508.9951">bo4e.enum</text></a></g><!--class Geschaeftsobjekt--><g id="elem_Geschaeftsobjekt"><rect codeLine="13" fill="#F1F1F1" height="37.9375" id="Geschaeftsobjekt" rx="2.5" ry="2.5" style="stroke:#181818;stroke-width:0.5;" width="156" x="904" y="84.03"/><ellipse cx="919" cy="102.9987" fill="#ADD1B2" rx="11" ry="11" style="stroke:#181818;stroke-width:1.0;"/><path d="M921.9688,108.6394 Q921.3906,108.9362 920.75,109.0769 Q920.1094,109.2331 919.4063,109.2331 Q916.9063,109.2331 915.5781,107.5925 Q914.2656,105.9362 914.2656,102.8112 Q914.2656,99.6862 915.5781,98.03 Q916.9063,96.3737 919.4063,96.3737 Q920.1094,96.3737 920.75,96.53 Q921.4063,96.6862 921.9688,96.9831 L921.9688,99.7019 Q921.3438,99.1237 920.75,98.8581 Q920.1563,98.5769 919.5313,98.5769 Q918.1875,98.5769 917.5,99.655 Q916.8125,100.7175 916.8125,102.8112 Q916.8125,104.905 917.5,105.9831 Q918.1875,107.0456 919.5313,107.0456 Q920.1563,107.0456 920.75,106.78 Q921.3438,106.4987 921.9688,105.9206 L921.9688,108.6394 Z " fill="#000000"/><a href="https://bo4e.github.io/BO4E-python/latest/api/bo4e.bo.html#bo4e.bo.geschaeftsobjekt.Geschaeftsobjekt" target="_top" title="https://bo4e.github.io/BO4E-python/latest/api/bo4e.bo.html#bo4e.bo.geschaeftsobjekt.Geschaeftsobjekt" xlink:actuate="onRequest" xlink:href="https://bo4e.github.io/BO4E-python/latest/api/bo4e.bo.html#bo4e.bo.geschaeftsobjekt.Geschaeftsobjekt" xlink:show="new" xlink:title="https://bo4e.github.io/BO4E-python/latest/api/bo4e.bo.html#bo4e.bo.geschaeftsobjekt.Geschaeftsobjekt" xlink:type="simple"><text fill="#0000FF" font-family="sans-serif" font-size="14" lengthAdjust="spacing" text-decoration="underline" textLength="122" x="934" y="102.0251">Geschaeftsobjekt</text></a><text fill="#000000" font-family="sans-serif" font-size="10" lengthAdjust="spacing" textLength="124" x="933" y="114.6091">bo4e.bo.geschaeftsobjekt</text></g><!--class Lokationszuordnung--><g id="elem_Lokationszuordnung"><rect codeLine="14" fill="#F1F1F1" height="37.9375" id="Lokationszuordnung" rx="2.5" ry="2.5" style="stroke:#181818;stroke-width:0.5;" width="174" x="895" y="157.03"/><ellipse cx="910" cy="175.9987" fill="#ADD1B2" rx="11" ry="11" style="stroke:#181818;stroke-width:1.0;"/><path d="M912.9688,181.6394 Q912.3906,181.9362 911.75,182.0769 Q911.1094,182.2331 910.4063,182.2331 Q907.9063,182.2331 906.5781,180.5925 Q905.2656,178.9362 905.2656,175.8112 Q905.2656,172.6862 906.5781,171.03 Q907.9063,169.3737 910.4063,169.3737 Q911.1094,169.3737 911.75,169.53 Q912.4063,169.6862 912.9688,169.9831 L912.9688,172.7019 Q912.3438,172.1237 911.75,171.8581 Q911.1563,171.5769 910.5313,171.5769 Q909.1875,171.5769 908.5,172.655 Q907.8125,173.7175 907.8125,175.8112 Q907.8125,177.905 908.5,178.9831 Q909.1875,180.0456 910.5313,180.0456 Q911.1563,180.0456 911.75,179.78 Q912.3438,179.4987 912.9688,178.9206 L912.9688,181.6394 Z " fill="#000000"/><a href="https://bo4e.github.io/BO4E-python/latest/api/bo4e.bo.html#bo4e.bo.lokationszuordnung.Lokationszuordnung" target="_top" title="https://bo4e.github.io/BO4E-python/latest/api/bo4e.bo.html#bo4e.bo.lokationszuordnung.Lokationszuordnung" xlink:actuate="onRequest" xlink:href="https://bo4e.github.io/BO4E-python/latest/api/bo4e.bo.html#bo4e.bo.lokationszuordnung.Lokationszuordnung" xlink:show="new" xlink:title="https://bo4e.github.io/BO4E-python/latest/api/bo4e.bo.html#bo4e.bo.lokationszuordnung.Lokationszuordnung" xlink:type="simple"><text fill="#0000FF" font-family="sans-serif" font-size="14" lengthAdjust="spacing" text-decoration="underline" textLength="142" x="924" y="175.0251">Lokationszuordnung</text></a><text fill="#000000" font-family="sans-serif" font-size="10" lengthAdjust="spacing" textLength="135" x="927.5" y="187.6091">bo4e.bo.lokationszuordnung</text></g><!--class Konfigurationsprodukt--><g id="elem_Konfigurationsprodukt"><rect codeLine="17" fill="#F1F1F1" height="37.9375" id="Konfigurationsprodukt" rx="2.5" ry="2.5" style="stroke:#181818;stroke-width:0.5;" width="188" x="888" y="270.03"/><ellipse cx="903" cy="288.9988" fill="#ADD1B2" rx="11" ry="11" style="stroke:#181818;stroke-width:1.0;"/><path d="M905.9688,294.6394 Q905.3906,294.9363 904.75,295.0769 Q904.1094,295.2331 903.4063,295.2331 Q900.9063,295.2331 899.5781,293.5925 Q898.2656,291.9363 898.2656,288.8113 Q898.2656,285.6863 899.5781,284.03 Q900.9063,282.3738 903.4063,282.3738 Q904.1094,282.3738 904.75,282.53 Q905.4063,282.6863 905.9688,282.9831 L905.9688,285.7019 Q905.3438,285.1238 904.75,284.8581 Q904.1563,284.5769 903.5313,284.5769 Q902.1875,284.5769 901.5,285.655 Q900.8125,286.7175 900.8125,288.8113 Q900.8125,290.905 901.5,291.9831 Q902.1875,293.0456 903.5313,293.0456 Q904.1563,293.0456 904.75,292.78 Q905.3438,292.4988 905.9688,291.9206 L905.9688,294.6394 Z " fill="#000000"/><a href="https://bo4e.github.io/BO4E-python/latest/api/bo4e.com.html#bo4e.com.konfigurationsprodukt.Konfigurationsprodukt" target="_top" title="https://bo4e.github.io/BO4E-python/latest/api/bo4e.com.html#bo4e.com.konfigurationsprodukt.Konfigurationsprodukt" xlink:actuate="onRequest" xlink:href="https://bo4e.github.io/BO4E-python/latest/api/bo4e.com.html#bo4e.com.konfigurationsprodukt.Konfigurationsprodukt" xlink:show="new" xlink:title="https://bo4e.github.io/BO4E-python/latest/api/bo4e.com.html#bo4e.com.konfigurationsprodukt.Konfigurationsprodukt" xlink:type="simple"><text fill="#0000FF" font-family="sans-serif" font-size="14" lengthAdjust="spacing" text-decoration="underline" textLength="153" x="918.5" y="288.0251">Konfigurationsprodukt</text></a><text fill="#000000" font-family="sans-serif" font-size="10" lengthAdjust="spacing" textLength="156" x="917" y="300.6091">bo4e.com.konfigurationsprodukt</text></g><!--class Menge--><g id="elem_Menge"><rect codeLine="18" fill="#F1F1F1" height="37.9375" id="Menge" rx="2.5" ry="2.5" style="stroke:#181818;stroke-width:0.5;" width="117" x="923.5" y="343.03"/><ellipse cx="938.5" cy="361.9988" fill="#ADD1B2" rx="11" ry="11" style="stroke:#181818;stroke-width:1.0;"/><path d="M941.4688,367.6394 Q940.8906,367.9363 940.25,368.0769 Q939.6094,368.2331 938.9063,368.2331 Q936.4063,368.2331 935.0781,366.5925 Q933.7656,364.9363 933.7656,361.8113 Q933.7656,358.6863 935.0781,357.03 Q936.4063,355.3738 938.9063,355.3738 Q939.6094,355.3738 940.25,355.53 Q940.9063,355.6863 941.4688,355.9831 L941.4688,358.7019 Q940.8438,358.1238 940.25,357.8581 Q939.6563,357.5769 939.0313,357.5769 Q937.6875,357.5769 937,358.655 Q936.3125,359.7175 936.3125,361.8113 Q936.3125,363.905 937,364.9831 Q937.6875,366.0456 939.0313,366.0456 Q939.6563,366.0456 940.25,365.78 Q940.8438,365.4988 941.4688,364.9206 L941.4688,367.6394 Z " fill="#000000"/><a href="https://bo4e.github.io/BO4E-python/latest/api/bo4e.com.html#bo4e.com.menge.Menge" target="_top" title="https://bo4e.github.io/BO4E-python/latest/api/bo4e.com.html#bo4e.com.menge.Menge" xlink:actuate="onRequest" xlink:href="https://bo4e.github.io/BO4E-python/latest/api/bo4e.com.html#bo4e.com.menge.Menge" xlink:show="new" xlink:title="https://bo4e.github.io/BO4E-python/latest/api/bo4e.com.html#bo4e.com.menge.Menge" xlink:type="simple"><text fill="#0000FF" font-family="sans-serif" font-size="14" lengthAdjust="spacing" text-decoration="underline" textLength="48" x="971" y="361.0251">Menge</text></a><text fill="#000000" font-family="sans-serif" font-size="10" lengthAdjust="spacing" textLength="85" x="952.5" y="373.6091">bo4e.com.menge</text></g><!--class VerwendungszweckProMarktrolle--><g id="elem_VerwendungszweckProMarktrolle"><rect codeLine="19" fill="#F1F1F1" height="37.9375" id="VerwendungszweckProMarktrolle" rx="2.5" ry="2.5" style="stroke:#181818;stroke-width:0.5;" width="262" x="851" y="416.03"/><ellipse cx="866" cy="434.9988" fill="#ADD1B2" rx="11" ry="11" style="stroke:#181818;stroke-width:1.0;"/><path d="M868.9688,440.6394 Q868.3906,440.9363 867.75,441.0769 Q867.1094,441.2331 866.4063,441.2331 Q863.9063,441.2331 862.5781,439.5925 Q861.2656,437.9363 861.2656,434.8113 Q861.2656,431.6863 862.5781,430.03 Q863.9063,428.3738 866.4063,428.3738 Q867.1094,428.3738 867.75,428.53 Q868.4063,428.6863 868.9688,428.9831 L868.9688,431.7019 Q868.3438,431.1238 867.75,430.8581 Q867.1563,430.5769 866.5313,430.5769 Q865.1875,430.5769 864.5,431.655 Q863.8125,432.7175 863.8125,434.8113 Q863.8125,436.905 864.5,437.9831 Q865.1875,439.0456 866.5313,439.0456 Q867.1563,439.0456 867.75,438.78 Q868.3438,438.4988 868.9688,437.9206 L868.9688,440.6394 Z " fill="#000000"/><a href="https://bo4e.github.io/BO4E-python/latest/api/bo4e.com.html#bo4e.com.verwendungszweckpromarktrolle.VerwendungszweckProMarktrolle" target="_top" title="https://bo4e.github.io/BO4E-python/latest/api/bo4e.com.html#bo4e.com.verwendungszweckpromarktrolle.VerwendungszweckProMarktrolle" xlink:actuate="onRequest" xlink:href="https://bo4e.github.io/BO4E-python/latest/api/bo4e.com.html#bo4e.com.verwendungszweckpromarktrolle.VerwendungszweckProMarktrolle" xlink:show="new" xlink:title="https://bo4e.github.io/BO4E-python/latest/api/bo4e.com.html#bo4e.com.verwendungszweckpromarktrolle.VerwendungszweckProMarktrolle" xlink:type="simple"><text fill="#0000FF" font-family="sans-serif" font-size="14" lengthAdjust="spacing" text-decoration="underline" textLength="230" x="880" y="434.0251">VerwendungszweckProMarktrolle</text></a><text fill="#000000" font-family="sans-serif" font-size="10" lengthAdjust="spacing" textLength="210" x="890" y="446.6091">bo4e.com.verwendungszweckpromarktrolle</text></g><!--class Marktrolle--><g id="elem_Marktrolle"><rect codeLine="22" fill="#F1F1F1" height="37.9375" id="Marktrolle" rx="2.5" ry="2.5" style="stroke:#181818;stroke-width:0.5;" width="139" x="912.5" y="529.03"/><ellipse cx="927.5" cy="547.9988" fill="#ADD1B2" rx="11" ry="11" style="stroke:#181818;stroke-width:1.0;"/><path d="M930.4688,553.6394 Q929.8906,553.9363 929.25,554.0769 Q928.6094,554.2331 927.9063,554.2331 Q925.4063,554.2331 924.0781,552.5925 Q922.7656,550.9363 922.7656,547.8113 Q922.7656,544.6863 924.0781,543.03 Q925.4063,541.3738 927.9063,541.3738 Q928.6094,541.3738 929.25,541.53 Q929.9063,541.6863 930.4688,541.9831 L930.4688,544.7019 Q929.8438,544.1238 929.25,543.8581 Q928.6563,543.5769 928.0313,543.5769 Q926.6875,543.5769 926,544.655 Q925.3125,545.7175 925.3125,547.8113 Q925.3125,549.905 926,550.9831 Q926.6875,552.0456 928.0313,552.0456 Q928.6563,552.0456 929.25,551.78 Q929.8438,551.4988 930.4688,550.9206 L930.4688,553.6394 Z " fill="#000000"/><a href="https://bo4e.github.io/BO4E-python/latest/api/bo4e.enum.html#bo4e.enum.marktrolle.Marktrolle" target="_top" title="https://bo4e.github.io/BO4E-python/latest/api/bo4e.enum.html#bo4e.enum.marktrolle.Marktrolle" xlink:actuate="onRequest" xlink:href="https://bo4e.github.io/BO4E-python/latest/api/bo4e.enum.html#bo4e.enum.marktrolle.Marktrolle" xlink:show="new" xlink:title="https://bo4e.github.io/BO4E-python/latest/api/bo4e.enum.html#bo4e.enum.marktrolle.Marktrolle" xlink:type="simple"><text fill="#0000FF" font-family="sans-serif" font-size="14" lengthAdjust="spacing" text-decoration="underline" textLength="67" x="961.5" y="547.0251">Marktrolle</text></a><text fill="#000000" font-family="sans-serif" font-size="10" lengthAdjust="spacing" textLength="107" x="941.5" y="559.6091">bo4e.enum.marktrolle</text></g><!--class Sparte--><g id="elem_Sparte"><rect codeLine="23" fill="#F1F1F1" height="37.9375" id="Sparte" rx="2.5" ry="2.5" style="stroke:#181818;stroke-width:0.5;" width="121" x="921.5" y="602.03"/><ellipse cx="936.5" cy="620.9988" fill="#ADD1B2" rx="11" ry="11" style="stroke:#181818;stroke-width:1.0;"/><path d="M939.4688,626.6394 Q938.8906,626.9363 938.25,627.0769 Q937.6094,627.2331 936.9063,627.2331 Q934.4063,627.2331 933.0781,625.5925 Q931.7656,623.9363 931.7656,620.8113 Q931.7656,617.6863 933.0781,616.03 Q934.4063,614.3738 936.9063,614.3738 Q937.6094,614.3738 938.25,614.53 Q938.9063,614.6863 939.4688,614.9831 L939.4688,617.7019 Q938.8438,617.1238 938.25,616.8581 Q937.6563,616.5769 937.0313,616.5769 Q935.6875,616.5769 935,617.655 Q934.3125,618.7175 934.3125,620.8113 Q934.3125,622.905 935,623.9831 Q935.6875,625.0456 937.0313,625.0456 Q937.6563,625.0456 938.25,624.78 Q938.8438,624.4988 939.4688,623.9206 L939.4688,626.6394 Z " fill="#000000"/><a href="https://bo4e.github.io/BO4E-python/latest/api/bo4e.enum.html#bo4e.enum.sparte.Sparte" target="_top" title="https://bo4e.github.io/BO4E-python/latest/api/bo4e.enum.html#bo4e.enum.sparte.Sparte" xlink:actuate="onRequest" xlink:href="https://bo4e.github.io/BO4E-python/latest/api/bo4e.enum.html#bo4e.enum.sparte.Sparte" xlink:show="new" xlink:title="https://bo4e.github.io/BO4E-python/latest/api/bo4e.enum.html#bo4e.enum.sparte.Sparte" xlink:type="simple"><text fill="#0000FF" font-family="sans-serif" font-size="14" lengthAdjust="spacing" text-decoration="underline" textLength="45" x="972.5" y="620.0251">Sparte</text></a><text fill="#000000" font-family="sans-serif" font-size="10" lengthAdjust="spacing" textLength="89" x="950.5" y="632.6091">bo4e.enum.sparte</text></g><!--class Netzlokation--><g id="elem_Netzlokation"><rect codeLine="3" fill="#F1F1F1" height="143.7188" id="Netzlokation" rx="2.5" ry="2.5" style="stroke:#181818;stroke-width:0.5;" width="602" x="7" y="261.14"/><ellipse cx="253.75" cy="280.1088" fill="#ADD1B2" rx="11" ry="11" style="stroke:#181818;stroke-width:1.0;"/><path d="M256.7188,285.7494 Q256.1406,286.0463 255.5,286.1869 Q254.8594,286.3431 254.1563,286.3431 Q251.6563,286.3431 250.3281,284.7025 Q249.0156,283.0463 249.0156,279.9213 Q249.0156,276.7963 250.3281,275.14 Q251.6563,273.4838 254.1563,273.4838 Q254.8594,273.4838 255.5,273.64 Q256.1563,273.7963 256.7188,274.0931 L256.7188,276.8119 Q256.0938,276.2338 255.5,275.9681 Q254.9063,275.6869 254.2813,275.6869 Q252.9375,275.6869 252.25,276.765 Q251.5625,277.8275 251.5625,279.9213 Q251.5625,282.015 252.25,283.0931 Q252.9375,284.1556 254.2813,284.1556 Q254.9063,284.1556 255.5,283.89 Q256.0938,283.6088 256.7188,283.0306 L256.7188,285.7494 Z " fill="#000000"/><a href="https://bo4e.github.io/BO4E-python/latest/api/bo4e.bo.html#bo4e.bo.netzlokation.Netzlokation" target="_top" title="https://bo4e.github.io/BO4E-python/latest/api/bo4e.bo.html#bo4e.bo.netzlokation.Netzlokation" xlink:actuate="onRequest" xlink:href="https://bo4e.github.io/BO4E-python/latest/api/bo4e.bo.html#bo4e.bo.netzlokation.Netzlokation" xlink:show="new" xlink:title="https://bo4e.github.io/BO4E-python/latest/api/bo4e.bo.html#bo4e.bo.netzlokation.Netzlokation" xlink:type="simple"><text fill="#0000FF" font-family="sans-serif" font-size="14" lengthAdjust="spacing" text-decoration="underline" textLength="86" x="281.25" y="279.1351">Netzlokation</text></a><text fill="#000000" font-family="sans-serif" font-size="10" lengthAdjust="spacing" textLength="100" x="274.25" y="291.7191">bo4e.bo.netzlokation</text><line style="stroke:#181818;stroke-width:0.5;" x1="8" x2="608" y1="299.0775" y2="299.0775"/><text fill="#000000" font-family="sans-serif" font-size="14" lengthAdjust="spacing" textLength="590" x="13" y="316.0726">_typ : Literal[&lt;BoTyp.NETZLOKATION: 'NETZLOKATION'&gt;] [1] = BoTyp.NETZLOKATION</text><text fill="#000000" font-family="sans-serif" font-size="14" lengthAdjust="spacing" textLength="233" x="13" y="332.3695">netzlokationsId : str [0..1] = None</text><text fill="#000000" font-family="sans-serif" font-size="14" lengthAdjust="spacing" textLength="340" x="13" y="348.6664">grundzustaendigerMsbCodenr : str [0..1] = None</text><text fill="#000000" font-family="sans-serif" font-size="14" lengthAdjust="spacing" textLength="221" x="13" y="364.9632">steuerkanal : bool [0..1] = None</text><text fill="#000000" font-family="sans-serif" font-size="14" lengthAdjust="spacing" textLength="220" x="13" y="381.2601">obiskennzahl : str [0..1] = None</text><text fill="#000000" font-family="sans-serif" font-size="14" lengthAdjust="spacing" textLength="327" x="13" y="397.557">lokationsbuendelObjektcode : str [0..1] = None</text></g><!--reverse link Netzlokation to Lokationszuordnung--><g id="link_Netzlokation_Lokationszuordnung"><path codeLine="26" d="M500.9873,256.7502 C548.8973,239.8602 589.71,227.47 639,216 C724.74,196.05 824.99,185.82 894.7,180.72 " fill="none" id="Netzlokation-backto-Lokationszuordnung" style="stroke:#181818;stroke-width:1.0;"/><polygon fill="#181818" points="489.67,260.74,496.6586,262.5176,500.9873,256.7502,493.9987,254.9727,489.67,260.74" style="stroke:#181818;stroke-width:1.0;"/><text fill="#000000" font-family="sans-serif" font-size="13" lengthAdjust="spacing" textLength="94" x="670" y="187.0669">netzlokationen</text><text fill="#000000" font-family="sans-serif" font-size="13" lengthAdjust="spacing" textLength="23" x="483.4211" y="249.9621">0..*</text></g><!--link Netzlokation to Lokationszuordnung--><g id="link_Netzlokation_Lokationszuordnung"><path codeLine="33" d="M609.38,283.4 C671.15,271.17 735.48,256.94 795,241 C842.25,228.35 883.5343,213.817 920.6743,199.687 " fill="none" id="Netzlokation-to-Lokationszuordnung" style="stroke:#181818;stroke-width:1.0;"/><polygon fill="#181818" points="931.89,195.42,924.8598,193.815,920.6743,199.687,927.7045,201.2921,931.89,195.42" style="stroke:#181818;stroke-width:1.0;"/><text fill="#000000" font-family="sans-serif" font-size="13" lengthAdjust="spacing" textLength="141" x="646.5" y="237.0669">lokationszuordnungen</text><text fill="#000000" font-family="sans-serif" font-size="13" lengthAdjust="spacing" textLength="23" x="891.5622" y="215.0772">0..*</text></g><!--link Netzlokation to Geschaeftsobjekt--><g id="link_Netzlokation_Geschaeftsobjekt"><path codeLine="27" d="M430.71,260.85 C491.48,227.59 567.21,190.22 639,166 C727.24,136.23 815.4438,121.6608 885.8238,113.0308 " fill="none" id="Netzlokation-to-Geschaeftsobjekt" style="stroke:#181818;stroke-width:1.0;"/><polygon fill="none" points="903.69,110.84,885.0936,107.0754,886.5541,118.9861,903.69,110.84" style="stroke:#181818;stroke-width:1.0;"/></g><!--link Netzlokation to Sparte--><g id="link_Netzlokation_Sparte"><path codeLine="28" d="M425.3,405.24 C522.68,462.44 667.15,539.82 803,584 C841.57,596.54 874.4498,603.7502 909.3998,609.8702 " fill="none" id="Netzlokation-to-Sparte" style="stroke:#181818;stroke-width:1.0;"/><polygon fill="#181818" points="921.22,611.94,915.9999,606.9651,909.3998,609.8702,914.62,614.8452,921.22,611.94" style="stroke:#181818;stroke-width:1.0;"/><text fill="#000000" font-family="sans-serif" font-size="13" lengthAdjust="spacing" textLength="41" x="696.5" y="519.0669">sparte</text><text fill="#000000" font-family="sans-serif" font-size="13" lengthAdjust="spacing" textLength="24" x="889.7146" y="623.853">0..1</text></g><!--link Netzlokation to Menge--><g id="link_Netzlokation_Menge"><path codeLine="29" d="M609.32,355.58 C619.33,356.1 629.24,356.57 639,357 C738.81,361.36 843.15,362.1447 911.18,362.1747 " fill="none" id="Netzlokation-to-Menge" style="stroke:#181818;stroke-width:1.0;"/><polygon fill="#181818" points="923.18,362.18,917.1818,358.1774,911.18,362.1747,917.1782,366.1774,923.18,362.18" style="stroke:#181818;stroke-width:1.0;"/><text fill="#000000" font-family="sans-serif" font-size="13" lengthAdjust="spacing" textLength="141" x="646.5" y="353.0669">netzanschlussleistung</text><text fill="#000000" font-family="sans-serif" font-size="13" lengthAdjust="spacing" textLength="24" x="891.4341" y="375.0943">0..1</text></g><!--link Netzlokation to VerwendungszweckProMarktrolle--><g id="link_Netzlokation_VerwendungszweckProMarktrolle"><path codeLine="30" d="M609.31,382.44 C619.33,383.99 629.24,385.52 639,387 C708.8,397.61 774.8522,406.9729 838.6822,415.7629 " fill="none" id="Netzlokation-to-VerwendungszweckProMarktrolle" style="stroke:#181818;stroke-width:1.0;"/><polygon fill="#181818" points="850.57,417.4,845.1718,412.6189,838.6822,415.7629,844.0804,420.5441,850.57,417.4" style="stroke:#181818;stroke-width:1.0;"/><text fill="#000000" font-family="sans-serif" font-size="13" lengthAdjust="spacing" textLength="122" x="656" y="383.0669">verwendungszweck</text><text fill="#000000" font-family="sans-serif" font-size="13" lengthAdjust="spacing" textLength="24" x="819.1744" y="428.9496">0..1</text></g><!--link Netzlokation to Konfigurationsprodukt--><g id="link_Netzlokation_Konfigurationsprodukt"><path codeLine="31" d="M609.13,313.35 C709.85,306.75 802.9456,300.6528 875.6056,295.9028 " fill="none" id="Netzlokation-to-Konfigurationsprodukt" style="stroke:#181818;stroke-width:1.0;"/><polygon fill="#181818" points="887.58,295.12,881.3318,291.5199,875.6056,295.9028,881.8537,299.5029,887.58,295.12" style="stroke:#181818;stroke-width:1.0;"/><text fill="#000000" font-family="sans-serif" font-size="13" lengthAdjust="spacing" textLength="147" x="643.5" y="299.0669">konfigurationsprodukte</text><text fill="#000000" font-family="sans-serif" font-size="13" lengthAdjust="spacing" textLength="23" x="857.1325" y="308.1493">0..*</text></g><!--link Netzlokation to Marktrolle--><g id="link_Netzlokation_Marktrolle"><path codeLine="32" d="M535.1,405.34 C670.99,448.81 822.3908,497.2529 908.7708,524.8929 " fill="none" id="Netzlokation-to-Marktrolle" style="stroke:#181818;stroke-width:1.0;"/><polygon fill="#181818" points="920.2,528.55,915.7045,522.9117,908.7708,524.8929,913.2664,530.5312,920.2,528.55" style="stroke:#181818;stroke-width:1.0;"/><text fill="#000000" font-family="sans-serif" font-size="13" lengthAdjust="spacing" textLength="154" x="640" y="437.0669">eigenschaftMsbLokation</text><text fill="#000000" font-family="sans-serif" font-size="13" lengthAdjust="spacing" textLength="24" x="880.0563" y="519.7364">0..1</text></g><!--SRC=[hLRVJzim47ucVyMfVK2gr9HgZA688G534mBQIKDxM5TDJd9Dl3XsPJj3TDl_FiUX9KtSWjI-93hdxhllVkJE36SQj019arH3J2L6cWhkUH4ZIa5dCacrdgjWC0Z5CVe9rMaH-bGCBiV7r_tvaqu57p2YKUa1cTDAAnH-gdFMNGeSzOA9Z9J8_gWcG5sOJd_mCqKN60oFpbsc7I1gpGB-U0S_zTCS0hYZ6YLXaxDByV0qzqVN3z_lnhSN3pVZKG27TV7mV0gJuHG-GblLEwZxKpUnGLPQmkJ8zwt9I73q3X9Py7XHA4sGnpH1UQ_2An4ZbsvzfR50cH5Ec548XM1D3H5IbI7d2v8oDyQAL5WOfyZ6uI_CT6IyElN_UHudEQevYN2tAiApC9tQ_3zBqBqy-VJXuhGimJvR9K4LfSGqfH8sGFzpum2Q1ywsQS9OwatB_J9V5MXH21dpWYV-NUi8saTE_cqm6q7RsXHwrpf78gyLsaZrIXiHkjT75wSdLxkMUkcdkv8omMSqAMGLqroAk30LltMTWlEqdRkDi3Oa9yY-eygH9-ZVbq-mJpTBgsPPMQLzi_YDyj4C2jCYQl68KMQ2pOdCj1ICeV-jyVMB5FUhhx3rgpkQhUvib5j1zz36o8jw7vTYlP5B6RhnC7htVkUXjNBLVH5hoQrbSblQ6cPLAxnaPEyCJNAbHl-hVK7rsi2gKhMCAhrodwnlxevPDxqEzFfzMEu4rxmBeBvHaJTG-ls_volprdnUrpNAFUjss7afwJ8SimCheg_ObBrQ_PeLCyADJrOenP0gNGxKDm1i_ti2QFuCcp1xDKptr0l0ESpmJQbPuuJcdbB6IcRQt5QMbNgDsQQYjlUJAQsNKdCRoJ4FKIfFfU8Hrk5d55ci_WC0]--></g></svg>