<?plantuml 1.2026.1?><svg xmlns="http://www.w3.org/2000/svg" xmlns:xlink="http://www.w3.org/1999/xlink" contentStyleType="text/css" data-diagram-type="CLASS" height="614px" preserveAspectRatio="none" style="width:860px;height:614px;background:#FFFFFF;" version="1.1" viewBox="0 0 860 614" width="860px" zoomAndPan="magnify"><defs/><g><!--cluster bo4e--><g class="cluster" data-qualified-name="bo4e" data-source-line="15" id="ent0005"><path d="M511.85,6 L551.726,6 A3.75,3.75 0 0 1 554.226,8.5 L561.226,28.2969 L851.25,28.2969 A2.5,2.5 0 0 1 853.75,30.7969 L853.75,604.5 A2.5,2.5 0 0 1 851.25,607 L511.85,607 A2.5,2.5 0 0 1 509.35,604.5 L509.35,8.5 A2.5,2.5 0 0 1 511.85,6" fill="none" style="stroke:#000000;stroke-width:1.5;"/><line style="stroke:#000000;stroke-width:1.5;" x1="509.35" x2="561.226" y1="28.2969" y2="28.2969"/><text fill="#000000" font-family="sans-serif" font-size="14" font-weight="bold" lengthAdjust="spacing" textLength="38.876" x="513.35" y="20.9951">bo4e</text></g><!--cluster bo--><g class="cluster" data-qualified-name="bo4e.bo" data-source-line="14" id="ent0003"><path d="M581,49 L645.834,49 A3.75,3.75 0 0 1 648.334,51.5 L655.334,71.2969 L782.1,71.2969 A2.5,2.5 0 0 1 784.6,73.7969 L784.6,135.5 A2.5,2.5 0 0 1 782.1,138 L581,138 A2.5,2.5 0 0 1 578.5,135.5 L578.5,51.5 A2.5,2.5 0 0 1 581,49" fill="#B6D7A8" style="stroke:#000000;stroke-width:1.5;"/><line style="stroke:#000000;stroke-width:1.5;" x1="578.5" x2="655.334" y1="71.2969" y2="71.2969"/><text fill="#000000" font-family="sans-serif" font-size="14" font-weight="bold" lengthAdjust="spacing" textLength="63.834" x="582.5" y="63.9951">bo4e.bo</text></g><!--cluster com--><g class="cluster" data-qualified-name="bo4e.com" data-source-line="23" id="ent0006"><path d="M535.85,162 L613.5492,162 A3.75,3.75 0 0 1 616.0492,164.5 L623.0492,184.2969 L827.25,184.2969 A2.5,2.5 0 0 1 829.75,186.7969 L829.75,394.5 A2.5,2.5 0 0 1 827.25,397 L535.85,397 A2.5,2.5 0 0 1 533.35,394.5 L533.35,164.5 A2.5,2.5 0 0 1 535.85,162" fill="#E0A86C" style="stroke:#000000;stroke-width:1.5;"/><line style="stroke:#000000;stroke-width:1.5;" x1="533.35" x2="623.0492" y1="184.2969" y2="184.2969"/><text fill="#000000" font-family="sans-serif" font-size="14" font-weight="bold" lengthAdjust="spacing" textLength="76.6992" x="537.35" y="176.9951">bo4e.com</text></g><!--cluster enum--><g class="cluster" data-qualified-name="bo4e.enum" data-source-line="44" id="ent0010"><path d="M610.92,421 L700.1309,421 A3.75,3.75 0 0 1 702.6309,423.5 L709.6309,443.2969 L752.19,443.2969 A2.5,2.5 0 0 1 754.69,445.7969 L754.69,580.5 A2.5,2.5 0 0 1 752.19,583 L610.92,583 A2.5,2.5 0 0 1 608.42,580.5 L608.42,423.5 A2.5,2.5 0 0 1 610.92,421" fill="#D1C358" style="stroke:#000000;stroke-width:1.5;"/><line style="stroke:#000000;stroke-width:1.5;" x1="608.42" x2="709.6309" y1="443.2969" y2="443.2969"/><text fill="#000000" font-family="sans-serif" font-size="14" font-weight="bold" lengthAdjust="spacing" textLength="88.2109" x="612.42" y="435.9951">bo4e.enum</text></g><!--class Lokationszuordnung--><g class="entity" data-qualified-name="bo4e.bo.Lokationszuordnung" data-source-line="15" id="ent0004"><rect fill="#F1F1F1" height="37.9375" rx="2.5" ry="2.5" style="stroke:#181818;stroke-width:0.5;" width="174.0986" x="594.5" y="84.03"/><ellipse cx="609.5" cy="102.9987" fill="#ADD1B2" rx="11" ry="11" style="stroke:#181818;stroke-width:1;"/><path d="M612.4688,108.6394 Q611.8906,108.9362 611.25,109.0769 Q610.6094,109.2331 609.9063,109.2331 Q607.4063,109.2331 606.0781,107.5925 Q604.7656,105.9362 604.7656,102.8112 Q604.7656,99.6862 606.0781,98.03 Q607.4063,96.3737 609.9063,96.3737 Q610.6094,96.3737 611.25,96.53 Q611.9063,96.6862 612.4688,96.9831 L612.4688,99.7019 Q611.8438,99.1237 611.25,98.8581 Q610.6563,98.5769 610.0313,98.5769 Q608.6875,98.5769 608,99.655 Q607.3125,100.7175 607.3125,102.8112 Q607.3125,104.905 608,105.9831 Q608.6875,107.0456 610.0313,107.0456 Q610.6563,107.0456 611.25,106.78 Q611.8438,106.4987 612.4688,105.9206 L612.4688,108.6394 Z " fill="#000000"/><a href="https://bo4e.github.io/BO4E-python/latest/api/bo.Lokationszuordnung.html" target="_top" title="https://bo4e.github.io/BO4E-python/latest/api/bo.Lokationszuordnung.html" xlink:actuate="onRequest" xlink:href="https://bo4e.github.io/BO4E-python/latest/api/bo.Lokationszuordnung.html" xlink:show="new" xlink:title="https://bo4e.github.io/BO4E-python/latest/api/bo.Lokationszuordnung.html" xlink:type="simple"><text fill="#0000FF" font-family="sans-serif" font-size="14" lengthAdjust="spacing" text-decoration="underline" textLength="142.0986" x="623.5" y="102.0251">Lokationszuordnung</text></a><text fill="#000000" font-family="sans-serif" font-size="10" lengthAdjust="spacing" textLength="117.1436" x="635.9775" y="114.6091">bo.Lokationszuordnung</text></g><!--class Konfigurationsprodukt--><g class="entity" data-qualified-name="bo4e.com.Konfigurationsprodukt" data-source-line="24" id="ent0007"><rect fill="#F1F1F1" height="37.9375" rx="2.5" ry="2.5" style="stroke:#181818;stroke-width:0.5;" width="188.208" x="587.45" y="197.03"/><ellipse cx="602.45" cy="215.9987" fill="#ADD1B2" rx="11" ry="11" style="stroke:#181818;stroke-width:1;"/><path d="M605.4188,221.6394 Q604.8406,221.9362 604.2,222.0769 Q603.5594,222.2331 602.8563,222.2331 Q600.3563,222.2331 599.0281,220.5925 Q597.7156,218.9362 597.7156,215.8112 Q597.7156,212.6862 599.0281,211.03 Q600.3563,209.3737 602.8563,209.3737 Q603.5594,209.3737 604.2,209.53 Q604.8563,209.6862 605.4188,209.9831 L605.4188,212.7019 Q604.7938,212.1237 604.2,211.8581 Q603.6063,211.5769 602.9813,211.5769 Q601.6375,211.5769 600.95,212.655 Q600.2625,213.7175 600.2625,215.8112 Q600.2625,217.905 600.95,218.9831 Q601.6375,220.0456 602.9813,220.0456 Q603.6063,220.0456 604.2,219.78 Q604.7938,219.4987 605.4188,218.9206 L605.4188,221.6394 Z " fill="#000000"/><a href="https://bo4e.github.io/BO4E-python/latest/api/com.Konfigurationsprodukt.html" target="_top" title="https://bo4e.github.io/BO4E-python/latest/api/com.Konfigurationsprodukt.html" xlink:actuate="onRequest" xlink:href="https://bo4e.github.io/BO4E-python/latest/api/com.Konfigurationsprodukt.html" xlink:show="new" xlink:title="https://bo4e.github.io/BO4E-python/latest/api/com.Konfigurationsprodukt.html" xlink:type="simple"><text fill="#0000FF" font-family="sans-serif" font-size="14" lengthAdjust="spacing" text-decoration="underline" textLength="156.208" x="616.45" y="215.0251">Konfigurationsprodukt</text></a><text fill="#000000" font-family="sans-serif" font-size="10" lengthAdjust="spacing" textLength="136.1133" x="626.4974" y="227.6091">com.Konfigurationsprodukt</text></g><!--class Menge--><g class="entity" data-qualified-name="bo4e.com.Menge" data-source-line="32" id="ent0008"><rect fill="#F1F1F1" height="37.9375" rx="2.5" ry="2.5" style="stroke:#181818;stroke-width:0.5;" width="90.1543" x="636.48" y="270.03"/><ellipse cx="651.48" cy="288.9988" fill="#ADD1B2" rx="11" ry="11" style="stroke:#181818;stroke-width:1;"/><path d="M654.4488,294.6394 Q653.8706,294.9363 653.23,295.0769 Q652.5894,295.2331 651.8863,295.2331 Q649.3863,295.2331 648.0581,293.5925 Q646.7456,291.9363 646.7456,288.8113 Q646.7456,285.6863 648.0581,284.03 Q649.3863,282.3738 651.8863,282.3738 Q652.5894,282.3738 653.23,282.53 Q653.8863,282.6863 654.4488,282.9831 L654.4488,285.7019 Q653.8238,285.1238 653.23,284.8581 Q652.6363,284.5769 652.0113,284.5769 Q650.6675,284.5769 649.98,285.655 Q649.2925,286.7175 649.2925,288.8113 Q649.2925,290.905 649.98,291.9831 Q650.6675,293.0456 652.0113,293.0456 Q652.6363,293.0456 653.23,292.78 Q653.8238,292.4988 654.4488,291.9206 L654.4488,294.6394 Z " fill="#000000"/><a href="https://bo4e.github.io/BO4E-python/latest/api/com.Menge.html" target="_top" title="https://bo4e.github.io/BO4E-python/latest/api/com.Menge.html" xlink:actuate="onRequest" xlink:href="https://bo4e.github.io/BO4E-python/latest/api/com.Menge.html" xlink:show="new" xlink:title="https://bo4e.github.io/BO4E-python/latest/api/com.Menge.html" xlink:type="simple"><text fill="#0000FF" font-family="sans-serif" font-size="14" lengthAdjust="spacing" text-decoration="underline" textLength="47.0654" x="671.0244" y="288.0251">Menge</text></a><text fill="#000000" font-family="sans-serif" font-size="10" lengthAdjust="spacing" textLength="58.1543" x="665.48" y="300.6091">com.Menge</text></g><!--class VerwendungszweckProMarktrolle--><g class="entity" data-qualified-name="bo4e.com.VerwendungszweckProMarktrolle" data-source-line="38" id="ent0009"><rect fill="#F1F1F1" height="37.9375" rx="2.5" ry="2.5" style="stroke:#181818;stroke-width:0.5;" width="264.4014" x="549.35" y="343.03"/><ellipse cx="564.35" cy="361.9988" fill="#ADD1B2" rx="11" ry="11" style="stroke:#181818;stroke-width:1;"/><path d="M567.3188,367.6394 Q566.7406,367.9363 566.1,368.0769 Q565.4594,368.2331 564.7563,368.2331 Q562.2563,368.2331 560.9281,366.5925 Q559.6156,364.9363 559.6156,361.8113 Q559.6156,358.6863 560.9281,357.03 Q562.2563,355.3738 564.7563,355.3738 Q565.4594,355.3738 566.1,355.53 Q566.7563,355.6863 567.3188,355.9831 L567.3188,358.7019 Q566.6938,358.1238 566.1,357.8581 Q565.5063,357.5769 564.8813,357.5769 Q563.5375,357.5769 562.85,358.655 Q562.1625,359.7175 562.1625,361.8113 Q562.1625,363.905 562.85,364.9831 Q563.5375,366.0456 564.8813,366.0456 Q565.5063,366.0456 566.1,365.78 Q566.6938,365.4988 567.3188,364.9206 L567.3188,367.6394 Z " fill="#000000"/><a href="https://bo4e.github.io/BO4E-python/latest/api/com.VerwendungszweckProMarktrolle.html" target="_top" title="https://bo4e.github.io/BO4E-python/latest/api/com.VerwendungszweckProMarktrolle.html" xlink:actuate="onRequest" xlink:href="https://bo4e.github.io/BO4E-python/latest/api/com.VerwendungszweckProMarktrolle.html" xlink:show="new" xlink:title="https://bo4e.github.io/BO4E-python/latest/api/com.VerwendungszweckProMarktrolle.html" xlink:type="simple"><text fill="#0000FF" font-family="sans-serif" font-size="14" lengthAdjust="spacing" text-decoration="underline" textLength="232.4014" x="578.35" y="361.0251">VerwendungszweckProMarktrolle</text></a><text fill="#000000" font-family="sans-serif" font-size="10" lengthAdjust="spacing" textLength="190.5371" x="599.2821" y="373.6091">com.VerwendungszweckProMarktrolle</text></g><!--class Marktrolle--><g class="entity" data-qualified-name="bo4e.enum.Marktrolle" data-source-line="45" id="ent0011"><rect fill="#F1F1F1" height="37.9375" rx="2.5" ry="2.5" style="stroke:#181818;stroke-width:0.5;" width="114.2656" x="624.42" y="456.03"/><ellipse cx="639.42" cy="474.9988" fill="#ADD1B2" rx="11" ry="11" style="stroke:#181818;stroke-width:1;"/><path d="M642.3888,480.6394 Q641.8106,480.9363 641.17,481.0769 Q640.5294,481.2331 639.8263,481.2331 Q637.3263,481.2331 635.9981,479.5925 Q634.6856,477.9363 634.6856,474.8113 Q634.6856,471.6863 635.9981,470.03 Q637.3263,468.3738 639.8263,468.3738 Q640.5294,468.3738 641.17,468.53 Q641.8263,468.6863 642.3888,468.9831 L642.3888,471.7019 Q641.7638,471.1238 641.17,470.8581 Q640.5763,470.5769 639.9513,470.5769 Q638.6075,470.5769 637.92,471.655 Q637.2325,472.7175 637.2325,474.8113 Q637.2325,476.905 637.92,477.9831 Q638.6075,479.0456 639.9513,479.0456 Q640.5763,479.0456 641.17,478.78 Q641.7638,478.4988 642.3888,477.9206 L642.3888,480.6394 Z " fill="#000000"/><a href="https://bo4e.github.io/BO4E-python/latest/api/enum.Marktrolle.html" target="_top" title="https://bo4e.github.io/BO4E-python/latest/api/enum.Marktrolle.html" xlink:actuate="onRequest" xlink:href="https://bo4e.github.io/BO4E-python/latest/api/enum.Marktrolle.html" xlink:show="new" xlink:title="https://bo4e.github.io/BO4E-python/latest/api/enum.Marktrolle.html" xlink:type="simple"><text fill="#0000FF" font-family="sans-serif" font-size="14" lengthAdjust="spacing" text-decoration="underline" textLength="70.7246" x="659.1905" y="474.0251">Marktrolle</text></a><text fill="#000000" font-family="sans-serif" font-size="10" lengthAdjust="spacing" textLength="82.2656" x="653.42" y="486.6091">enum.Marktrolle</text></g><!--class Sparte--><g class="entity" data-qualified-name="bo4e.enum.Sparte" data-source-line="47" id="ent0012"><rect fill="#F1F1F1" height="37.9375" rx="2.5" ry="2.5" style="stroke:#181818;stroke-width:0.5;" width="96.7559" x="633.18" y="529.03"/><ellipse cx="648.18" cy="547.9988" fill="#ADD1B2" rx="11" ry="11" style="stroke:#181818;stroke-width:1;"/><path d="M651.1488,553.6394 Q650.5706,553.9363 649.93,554.0769 Q649.2894,554.2331 648.5863,554.2331 Q646.0863,554.2331 644.7581,552.5925 Q643.4456,550.9363 643.4456,547.8113 Q643.4456,544.6863 644.7581,543.03 Q646.0863,541.3738 648.5863,541.3738 Q649.2894,541.3738 649.93,541.53 Q650.5863,541.6863 651.1488,541.9831 L651.1488,544.7019 Q650.5238,544.1238 649.93,543.8581 Q649.3363,543.5769 648.7113,543.5769 Q647.3675,543.5769 646.68,544.655 Q645.9925,545.7175 645.9925,547.8113 Q645.9925,549.905 646.68,550.9831 Q647.3675,552.0456 648.7113,552.0456 Q649.3363,552.0456 649.93,551.78 Q650.5238,551.4988 651.1488,550.9206 L651.1488,553.6394 Z " fill="#000000"/><a href="https://bo4e.github.io/BO4E-python/latest/api/enum.Sparte.html" target="_top" title="https://bo4e.github.io/BO4E-python/latest/api/enum.Sparte.html" xlink:actuate="onRequest" xlink:href="https://bo4e.github.io/BO4E-python/latest/api/enum.Sparte.html" xlink:show="new" xlink:title="https://bo4e.github.io/BO4E-python/latest/api/enum.Sparte.html" xlink:type="simple"><text fill="#0000FF" font-family="sans-serif" font-size="14" lengthAdjust="spacing" text-decoration="underline" textLength="46.2109" x="671.4525" y="547.0251">Sparte</text></a><text fill="#000000" font-family="sans-serif" font-size="10" lengthAdjust="spacing" textLength="64.7559" x="662.18" y="559.6091">enum.Sparte</text></g><!--class Netzlokation--><g class="entity" data-qualified-name="Netzlokation" data-source-line="3" id="ent0002"><rect fill="#F1F1F1" height="176.3125" rx="2.5" ry="2.5" style="stroke:#181818;stroke-width:0.5;" width="297.3525" x="7" y="200.84"/><ellipse cx="107.4849" cy="219.8087" fill="#ADD1B2" rx="11" ry="11" style="stroke:#181818;stroke-width:1;"/><path d="M110.4536,225.4494 Q109.8755,225.7462 109.2349,225.8869 Q108.5942,226.0431 107.8911,226.0431 Q105.3911,226.0431 104.063,224.4025 Q102.7505,222.7462 102.7505,219.6212 Q102.7505,216.4962 104.063,214.84 Q105.3911,213.1837 107.8911,213.1837 Q108.5942,213.1837 109.2349,213.34 Q109.8911,213.4962 110.4536,213.7931 L110.4536,216.5119 Q109.8286,215.9337 109.2349,215.6681 Q108.6411,215.3869 108.0161,215.3869 Q106.6724,215.3869 105.9849,216.465 Q105.2974,217.5275 105.2974,219.6212 Q105.2974,221.715 105.9849,222.7931 Q106.6724,223.8556 108.0161,223.8556 Q108.6411,223.8556 109.2349,223.59 Q109.8286,223.3087 110.4536,222.7306 L110.4536,225.4494 Z " fill="#000000"/><a href="https://bo4e.github.io/BO4E-python/latest/api/bo.Netzlokation.html" target="_top" title="https://bo4e.github.io/BO4E-python/latest/api/bo.Netzlokation.html" xlink:actuate="onRequest" xlink:href="https://bo4e.github.io/BO4E-python/latest/api/bo.Netzlokation.html" xlink:show="new" xlink:title="https://bo4e.github.io/BO4E-python/latest/api/bo.Netzlokation.html" xlink:type="simple"><text fill="#0000FF" font-family="sans-serif" font-size="14" lengthAdjust="spacing" text-decoration="underline" textLength="87.8828" x="127.9849" y="218.8351">Netzlokation</text></a><text fill="#000000" font-family="sans-serif" font-size="10" lengthAdjust="spacing" textLength="78.418" x="132.7173" y="231.4191">bo.Netzlokation</text><line style="stroke:#181818;stroke-width:0.5;" x1="8" x2="303.3525" y1="238.7775" y2="238.7775"/><text fill="#000000" font-family="sans-serif" font-size="14" lengthAdjust="spacing" textLength="94.0215" x="13" y="255.7726">_id : str [0..1]</text><text fill="#000000" font-family="sans-serif" font-size="14" lengthAdjust="spacing" textLength="262.3975" x="13" y="272.0695">_typ : Literal["NETZLOKATION"] [0..1]</text><text fill="#000000" font-family="sans-serif" font-size="14" lengthAdjust="spacing" textLength="132.5215" x="13" y="288.3664">_version : str [0..1]</text><text fill="#000000" font-family="sans-serif" font-size="14" lengthAdjust="spacing" textLength="285.3525" x="13" y="304.6632">grundzustaendigerMsbCodenr : str [0..1]</text><text fill="#000000" font-family="sans-serif" font-size="14" lengthAdjust="spacing" textLength="273.9023" x="13" y="320.9601">lokationsbuendelObjektcode : str [0..1]</text><text fill="#000000" font-family="sans-serif" font-size="14" lengthAdjust="spacing" textLength="180.8379" x="13" y="337.257">netzlokationsId : str [0..1]</text><text fill="#000000" font-family="sans-serif" font-size="14" lengthAdjust="spacing" textLength="166.0381" x="13" y="353.5539">obiskennzahl : str [0..1]</text><text fill="#000000" font-family="sans-serif" font-size="14" lengthAdjust="spacing" textLength="168.2803" x="13" y="369.8507">steuerkanal : bool [0..1]</text></g><!--link Lokationszuordnung to Netzlokation--><g class="link" data-entity-1="ent0004" data-entity-2="ent0002" data-link-type="composition" data-source-line="51" id="lnk13"><path codeLine="51" d="M622.12,122.36 C525.26,154.46 341.35,215.44 334.35,218 C324.68,221.54 325.9674,220.9974 315.9674,224.7974" fill="none" id="Lokationszuordnung-to-Netzlokation" style="stroke:#181818;stroke-width:1;"/><polygon fill="#181818" points="304.75,229.06,311.7796,230.6678,315.9674,224.7974,308.9378,223.1896,304.75,229.06" style="stroke:#181818;stroke-width:1;"/><text fill="#000000" font-family="sans-serif" font-size="13" lengthAdjust="spacing" textLength="96.3574" x="365.85" y="162.0669">netzlokationen</text><text fill="#000000" font-family="sans-serif" font-size="13" lengthAdjust="spacing" textLength="23.0356" x="312.5287" y="238.5902">0..*</text></g><!--link Netzlokation to Lokationszuordnung--><g class="link" data-entity-1="ent0002" data-entity-2="ent0004" data-link-type="composition" data-source-line="52" id="lnk14"><path codeLine="52" d="M245.05,200.54 C271.73,178.61 302.46,157.53 334.35,144 C417.79,108.61 510.0804,100.6831 582.2704,100.1231" fill="none" id="Netzlokation-to-Lokationszuordnung" style="stroke:#181818;stroke-width:1;"/><polygon fill="#181818" points="594.27,100.03,588.2392,96.0767,582.2704,100.1231,588.3012,104.0764,594.27,100.03" style="stroke:#181818;stroke-width:1;"/><text fill="#000000" font-family="sans-serif" font-size="13" lengthAdjust="spacing" textLength="144.5552" x="341.85" y="103.0669">lokationszuordnungen</text><text fill="#000000" font-family="sans-serif" font-size="13" lengthAdjust="spacing" textLength="23.0356" x="563.3999" y="112.4633">0..*</text></g><!--link Netzlokation to Konfigurationsprodukt--><g class="link" data-entity-1="ent0002" data-entity-2="ent0007" data-link-type="composition" data-source-line="53" id="lnk15"><path codeLine="53" d="M304.52,268.17 C314.62,266.76 324.63,265.36 334.35,264 C419.99,252.04 505.673,240.1628 575.353,230.5328" fill="none" id="Netzlokation-to-Konfigurationsprodukt" style="stroke:#181818;stroke-width:1;"/><polygon fill="#181818" points="587.24,228.89,580.7489,225.7491,575.353,230.5328,581.8441,233.6738,587.24,228.89" style="stroke:#181818;stroke-width:1;"/><text fill="#000000" font-family="sans-serif" font-size="13" lengthAdjust="spacing" textLength="152.0518" x="337.85" y="239.0669">konfigurationsprodukte</text><text fill="#000000" font-family="sans-serif" font-size="13" lengthAdjust="spacing" textLength="23.0356" x="556.4706" y="242.4593">0..*</text></g><!--link Netzlokation to Menge--><g class="link" data-entity-1="ent0002" data-entity-2="ent0008" data-link-type="composition" data-source-line="54" id="lnk16"><path codeLine="54" d="M304.7,289 C416.8,289 551.48,289 623.99,289" fill="none" id="Netzlokation-to-Menge" style="stroke:#181818;stroke-width:1;"/><polygon fill="#181818" points="635.99,289,629.99,285,623.99,289,629.99,293,635.99,289" style="stroke:#181818;stroke-width:1;"/><text fill="#000000" font-family="sans-serif" font-size="13" lengthAdjust="spacing" textLength="143.7427" x="342.35" y="285.0669">netzanschlussleistung</text><text fill="#000000" font-family="sans-serif" font-size="13" lengthAdjust="spacing" textLength="24.8066" x="603.5941" y="302.1784">0..1</text></g><!--link Netzlokation to VerwendungszweckProMarktrolle--><g class="link" data-entity-1="ent0002" data-entity-2="ent0009" data-link-type="composition" data-source-line="55" id="lnk17"><path codeLine="55" d="M304.52,309.83 C314.62,311.24 324.63,312.64 334.35,314 C405.27,323.9 472.4733,333.2349 537.1433,342.1849" fill="none" id="Netzlokation-to-VerwendungszweckProMarktrolle" style="stroke:#181818;stroke-width:1;"/><polygon fill="#181818" points="549.03,343.83,543.635,339.0452,537.1433,342.1849,542.5383,346.9697,549.03,343.83" style="stroke:#181818;stroke-width:1;"/><text fill="#000000" font-family="sans-serif" font-size="13" lengthAdjust="spacing" textLength="127.791" x="350.35" y="310.0669">verwendungszweck</text><text fill="#000000" font-family="sans-serif" font-size="13" lengthAdjust="spacing" textLength="24.8066" x="516.6982" y="355.2839">0..1</text></g><!--link Netzlokation to Marktrolle--><g class="link" data-entity-1="ent0002" data-entity-2="ent0011" data-link-type="composition" data-source-line="56" id="lnk18"><path codeLine="56" d="M304.75,348.94 C314.75,352.74 324.68,356.46 334.35,360 C435.62,397.02 543.8674,432.0453 612.6874,453.7853" fill="none" id="Netzlokation-to-Marktrolle" style="stroke:#181818;stroke-width:1;"/><polygon fill="#181818" points="624.13,457.4,619.6136,451.7784,612.6874,453.7853,617.2038,459.4069,624.13,457.4" style="stroke:#181818;stroke-width:1;"/><text fill="#000000" font-family="sans-serif" font-size="13" lengthAdjust="spacing" textLength="157.7329" x="335.35" y="356.0669">eigenschaftMsbLokation</text><text fill="#000000" font-family="sans-serif" font-size="13" lengthAdjust="spacing" textLength="24.8066" x="591.7182" y="468.2442">0..1</text></g><!--link Netzlokation to Sparte--><g class="link" data-entity-1="ent0002" data-entity-2="ent0012" data-link-type="composition" data-source-line="57" id="lnk19"><path codeLine="57" d="M253.05,377.49 C278.45,398.46 306.56,419.74 334.35,437 C403.31,479.84 424.05,486.21 501.35,511 C544.91,524.97 584.3309,532.9714 620.8409,539.0114" fill="none" id="Netzlokation-to-Sparte" style="stroke:#181818;stroke-width:1;"/><polygon fill="#181818" points="632.68,540.97,627.4133,536.0443,620.8409,539.0114,626.1076,543.9371,632.68,540.97" style="stroke:#181818;stroke-width:1;"/><text fill="#000000" font-family="sans-serif" font-size="13" lengthAdjust="spacing" textLength="41.4312" x="393.35" y="433.0669">sparte</text><text fill="#000000" font-family="sans-serif" font-size="13" lengthAdjust="spacing" textLength="24.8066" x="600.5537" y="553.1091">0..1</text></g><?plantuml-src hLRHRjem57tFLrZfMwM6edLR5KsJQCcg2aWg2grKXYOdkH0lnaQsKrGc_drE0cr20e8nU77kFRu-ESU-3eM9GeeZGQQHGY4H42Z2cM4454k9pD4eKcekxKR3vrTWJOcA4jyYl77ZNJaNypSLSTQWM85K3Jmd6cMve9QKnpYjOqLgHb4nCXx_PDyaMOBTlFo-XJOHbYKm-cCW_Vj5GcGZgGGQNLfMSvm7rTjSHxj4WS1qPBhEuANhTLg3UyyrnoNaAmYPLglKc8g4XSj4AWmi95CGFUdVyX2Og68tdAIVQ31Gp_yDiGeqkefbXNUGzpNakKza38mjSKIhMQaW0H5ZXjEappdTP5U6mV0Cv1m7WCpC4fzdigt7wEpcI_jhwtgjtB-xsDtGNoPSX2nXqzpBQdpRqIeY8rWD7-Fknjd7bw7NRxj3z-vGZxTzgtVidPJC5owaL_g_BNh0Pn-gwmTqvboshh_SdYQxBcHrE9kGQI9opdF1moHMkVIrgPBwEmjaP6ipnvZGyTmVztV3Vkx4Gzzh3pk3Wtq08bKgS9o8rzI92M54rKBNrEgTaa64gLe2KRjAh4xre0Ti2hdcsR2YSHRDDCr6nsZOSzmxvr3D5Y2KZauen-g_lTqJY8NMFxLYkO0WVX2yXqMi1ATq_TPx8HKrzg8pbVOYZb7loUa_EsvR7__7bsVdjgFtOA_LxmpwNhTxaAfrXnbOKZZDwHCw2vl1fyydTj6qahKjxGuTjx3vtYfAj3gPoUCS2xLcaO-h3F9ujde-p5RMjqvDzxwuE4UcLlNSBD_PTkdw0sQKieLPDJNjZtRz7jnJeRwZsIYkYqDzcQQvFiGvRynqWw69b9j-jNFM_arjezUj_ExbYxD0VuQa5F14wO-HZKGxvwvTqdiy6nX6H7JJdC7CrxlVa15VeD8d5feGeA7y2m00?></g></svg>