<?xml version="1.0" encoding="us-ascii" standalone="no"?><svg xmlns="http://www.w3.org/2000/svg" xmlns:xlink="http://www.w3.org/1999/xlink" contentStyleType="text/css" height="614px" preserveAspectRatio="none" style="width:824px;height:614px;background:#FFFFFF;" version="1.1" viewBox="0 0 824 614" width="824px" zoomAndPan="magnify"><defs/><g><!--cluster bo4e--><g id="cluster_bo4e"><path d="M583.5,6 L624.5,6 A3.75,3.75 0 0 1 627,8.5 L634,28.2969 L814.5,28.2969 A2.5,2.5 0 0 1 817,30.7969 L817,604.5 A2.5,2.5 0 0 1 814.5,607 L583.5,607 A2.5,2.5 0 0 1 581,604.5 L581,8.5 A2.5,2.5 0 0 1 583.5,6 " fill="none" style="stroke:#000000;stroke-width:1.5;"/><line style="stroke:#000000;stroke-width:1.5;" x1="581" x2="634" y1="28.2969" y2="28.2969"/><text fill="#000000" font-family="sans-serif" font-size="14" font-weight="bold" lengthAdjust="spacing" textLength="40" x="585" y="20.9951">bo4e</text></g><!--cluster bo--><g id="cluster_bo"><path d="M607.5,49 L673.5,49 A3.75,3.75 0 0 1 676,51.5 L683,71.2969 L790.5,71.2969 A2.5,2.5 0 0 1 793,73.7969 L793,135.5 A2.5,2.5 0 0 1 790.5,138 L607.5,138 A2.5,2.5 0 0 1 605,135.5 L605,51.5 A2.5,2.5 0 0 1 607.5,49 " fill="#B6D7A8" style="stroke:#000000;stroke-width:1.5;"/><line style="stroke:#000000;stroke-width:1.5;" x1="605" x2="683" y1="71.2969" y2="71.2969"/><a href="https://bo4e.github.io/BO4E-python/latest/api/bo4e.bo.html" target="_top" title="https://bo4e.github.io/BO4E-python/latest/api/bo4e.bo.html" xlink:actuate="onRequest" xlink:href="https://bo4e.github.io/BO4E-python/latest/api/bo4e.bo.html" xlink:show="new" xlink:title="https://bo4e.github.io/BO4E-python/latest/api/bo4e.bo.html" xlink:type="simple"><text fill="#0000FF" font-family="sans-serif" font-size="14" font-weight="bold" lengthAdjust="spacing" text-decoration="underline" textLength="65" x="609" y="63.9951">bo4e.bo</text></a></g><!--cluster com--><g id="cluster_com"><path d="M609.5,162 L688.5,162 A3.75,3.75 0 0 1 691,164.5 L698,184.2969 L788.5,184.2969 A2.5,2.5 0 0 1 791,186.7969 L791,394.5 A2.5,2.5 0 0 1 788.5,397 L609.5,397 A2.5,2.5 0 0 1 607,394.5 L607,164.5 A2.5,2.5 0 0 1 609.5,162 " fill="#E0A86C" style="stroke:#000000;stroke-width:1.5;"/><line style="stroke:#000000;stroke-width:1.5;" x1="607" x2="698" y1="184.2969" y2="184.2969"/><a href="https://bo4e.github.io/BO4E-python/latest/api/bo4e.com.html" target="_top" title="https://bo4e.github.io/BO4E-python/latest/api/bo4e.com.html" xlink:actuate="onRequest" xlink:href="https://bo4e.github.io/BO4E-python/latest/api/bo4e.com.html" xlink:show="new" xlink:title="https://bo4e.github.io/BO4E-python/latest/api/bo4e.com.html" xlink:type="simple"><text fill="#0000FF" font-family="sans-serif" font-size="14" font-weight="bold" lengthAdjust="spacing" text-decoration="underline" textLength="78" x="611" y="176.9951">bo4e.com</text></a></g><!--cluster enum--><g id="cluster_enum"><path d="M623.5,421 L713.5,421 A3.75,3.75 0 0 1 716,423.5 L723,443.2969 L774.5,443.2969 A2.5,2.5 0 0 1 777,445.7969 L777,580.5 A2.5,2.5 0 0 1 774.5,583 L623.5,583 A2.5,2.5 0 0 1 621,580.5 L621,423.5 A2.5,2.5 0 0 1 623.5,421 " fill="#D1C358" style="stroke:#000000;stroke-width:1.5;"/><line style="stroke:#000000;stroke-width:1.5;" x1="621" x2="723" y1="443.2969" y2="443.2969"/><a href="https://bo4e.github.io/BO4E-python/latest/api/bo4e.enum.html" target="_top" title="https://bo4e.github.io/BO4E-python/latest/api/bo4e.enum.html" xlink:actuate="onRequest" xlink:href="https://bo4e.github.io/BO4E-python/latest/api/bo4e.enum.html" xlink:show="new" xlink:title="https://bo4e.github.io/BO4E-python/latest/api/bo4e.enum.html" xlink:type="simple"><text fill="#0000FF" font-family="sans-serif" font-size="14" font-weight="bold" lengthAdjust="spacing" text-decoration="underline" textLength="89" x="625" y="435.9951">bo4e.enum</text></a></g><!--class Geschaeftsobjekt--><g id="elem_Geschaeftsobjekt"><rect codeLine="13" fill="#F1F1F1" height="37.9375" id="Geschaeftsobjekt" rx="2.5" ry="2.5" style="stroke:#181818;stroke-width:0.5;" width="156" x="621" y="84.03"/><ellipse cx="636" cy="102.9987" fill="#ADD1B2" rx="11" ry="11" style="stroke:#181818;stroke-width:1.0;"/><path d="M638.9688,108.6394 Q638.3906,108.9362 637.75,109.0769 Q637.1094,109.2331 636.4063,109.2331 Q633.9063,109.2331 632.5781,107.5925 Q631.2656,105.9362 631.2656,102.8112 Q631.2656,99.6862 632.5781,98.03 Q633.9063,96.3737 636.4063,96.3737 Q637.1094,96.3737 637.75,96.53 Q638.4063,96.6862 638.9688,96.9831 L638.9688,99.7019 Q638.3438,99.1237 637.75,98.8581 Q637.1563,98.5769 636.5313,98.5769 Q635.1875,98.5769 634.5,99.655 Q633.8125,100.7175 633.8125,102.8112 Q633.8125,104.905 634.5,105.9831 Q635.1875,107.0456 636.5313,107.0456 Q637.1563,107.0456 637.75,106.78 Q638.3438,106.4987 638.9688,105.9206 L638.9688,108.6394 Z " fill="#000000"/><a href="https://bo4e.github.io/BO4E-python/latest/api/bo4e.bo.html#bo4e.bo.geschaeftsobjekt.Geschaeftsobjekt" target="_top" title="https://bo4e.github.io/BO4E-python/latest/api/bo4e.bo.html#bo4e.bo.geschaeftsobjekt.Geschaeftsobjekt" xlink:actuate="onRequest" xlink:href="https://bo4e.github.io/BO4E-python/latest/api/bo4e.bo.html#bo4e.bo.geschaeftsobjekt.Geschaeftsobjekt" xlink:show="new" xlink:title="https://bo4e.github.io/BO4E-python/latest/api/bo4e.bo.html#bo4e.bo.geschaeftsobjekt.Geschaeftsobjekt" xlink:type="simple"><text fill="#0000FF" font-family="sans-serif" font-size="14" lengthAdjust="spacing" text-decoration="underline" textLength="122" x="651" y="102.0251">Geschaeftsobjekt</text></a><text fill="#000000" font-family="sans-serif" font-size="10" lengthAdjust="spacing" textLength="124" x="650" y="114.6091">bo4e.bo.geschaeftsobjekt</text></g><!--class Kontaktweg--><g id="elem_Kontaktweg"><rect codeLine="16" fill="#F1F1F1" height="37.9375" id="Kontaktweg" rx="2.5" ry="2.5" style="stroke:#181818;stroke-width:0.5;" width="139" x="629.5" y="197.03"/><ellipse cx="644.5" cy="215.9987" fill="#ADD1B2" rx="11" ry="11" style="stroke:#181818;stroke-width:1.0;"/><path d="M647.4688,221.6394 Q646.8906,221.9362 646.25,222.0769 Q645.6094,222.2331 644.9063,222.2331 Q642.4063,222.2331 641.0781,220.5925 Q639.7656,218.9362 639.7656,215.8112 Q639.7656,212.6862 641.0781,211.03 Q642.4063,209.3737 644.9063,209.3737 Q645.6094,209.3737 646.25,209.53 Q646.9063,209.6862 647.4688,209.9831 L647.4688,212.7019 Q646.8438,212.1237 646.25,211.8581 Q645.6563,211.5769 645.0313,211.5769 Q643.6875,211.5769 643,212.655 Q642.3125,213.7175 642.3125,215.8112 Q642.3125,217.905 643,218.9831 Q643.6875,220.0456 645.0313,220.0456 Q645.6563,220.0456 646.25,219.78 Q646.8438,219.4987 647.4688,218.9206 L647.4688,221.6394 Z " fill="#000000"/><a href="https://bo4e.github.io/BO4E-python/latest/api/bo4e.com.html#bo4e.com.kontaktweg.Kontaktweg" target="_top" title="https://bo4e.github.io/BO4E-python/latest/api/bo4e.com.html#bo4e.com.kontaktweg.Kontaktweg" xlink:actuate="onRequest" xlink:href="https://bo4e.github.io/BO4E-python/latest/api/bo4e.com.html#bo4e.com.kontaktweg.Kontaktweg" xlink:show="new" xlink:title="https://bo4e.github.io/BO4E-python/latest/api/bo4e.com.html#bo4e.com.kontaktweg.Kontaktweg" xlink:type="simple"><text fill="#0000FF" font-family="sans-serif" font-size="14" lengthAdjust="spacing" text-decoration="underline" textLength="82" x="671" y="215.0251">Kontaktweg</text></a><text fill="#000000" font-family="sans-serif" font-size="10" lengthAdjust="spacing" textLength="107" x="658.5" y="227.6091">bo4e.com.kontaktweg</text></g><!--class Adresse--><g id="elem_Adresse"><rect codeLine="17" fill="#F1F1F1" height="37.9375" id="Adresse" rx="2.5" ry="2.5" style="stroke:#181818;stroke-width:0.5;" width="121" x="638.5" y="270.03"/><ellipse cx="653.5" cy="288.9988" fill="#ADD1B2" rx="11" ry="11" style="stroke:#181818;stroke-width:1.0;"/><path d="M656.4688,294.6394 Q655.8906,294.9363 655.25,295.0769 Q654.6094,295.2331 653.9063,295.2331 Q651.4063,295.2331 650.0781,293.5925 Q648.7656,291.9363 648.7656,288.8113 Q648.7656,285.6863 650.0781,284.03 Q651.4063,282.3738 653.9063,282.3738 Q654.6094,282.3738 655.25,282.53 Q655.9063,282.6863 656.4688,282.9831 L656.4688,285.7019 Q655.8438,285.1238 655.25,284.8581 Q654.6563,284.5769 654.0313,284.5769 Q652.6875,284.5769 652,285.655 Q651.3125,286.7175 651.3125,288.8113 Q651.3125,290.905 652,291.9831 Q652.6875,293.0456 654.0313,293.0456 Q654.6563,293.0456 655.25,292.78 Q655.8438,292.4988 656.4688,291.9206 L656.4688,294.6394 Z " fill="#000000"/><a href="https://bo4e.github.io/BO4E-python/latest/api/bo4e.com.html#bo4e.com.adresse.Adresse" target="_top" title="https://bo4e.github.io/BO4E-python/latest/api/bo4e.com.html#bo4e.com.adresse.Adresse" xlink:actuate="onRequest" xlink:href="https://bo4e.github.io/BO4E-python/latest/api/bo4e.com.html#bo4e.com.adresse.Adresse" xlink:show="new" xlink:title="https://bo4e.github.io/BO4E-python/latest/api/bo4e.com.html#bo4e.com.adresse.Adresse" xlink:type="simple"><text fill="#0000FF" font-family="sans-serif" font-size="14" lengthAdjust="spacing" text-decoration="underline" textLength="57" x="683.5" y="288.0251">Adresse</text></a><text fill="#000000" font-family="sans-serif" font-size="10" lengthAdjust="spacing" textLength="89" x="667.5" y="300.6091">bo4e.com.adresse</text></g><!--class Zustaendigkeit--><g id="elem_Zustaendigkeit"><rect codeLine="18" fill="#F1F1F1" height="37.9375" id="Zustaendigkeit" rx="2.5" ry="2.5" style="stroke:#181818;stroke-width:0.5;" width="152" x="623" y="343.03"/><ellipse cx="638" cy="361.9988" fill="#ADD1B2" rx="11" ry="11" style="stroke:#181818;stroke-width:1.0;"/><path d="M640.9688,367.6394 Q640.3906,367.9363 639.75,368.0769 Q639.1094,368.2331 638.4063,368.2331 Q635.9063,368.2331 634.5781,366.5925 Q633.2656,364.9363 633.2656,361.8113 Q633.2656,358.6863 634.5781,357.03 Q635.9063,355.3738 638.4063,355.3738 Q639.1094,355.3738 639.75,355.53 Q640.4063,355.6863 640.9688,355.9831 L640.9688,358.7019 Q640.3438,358.1238 639.75,357.8581 Q639.1563,357.5769 638.5313,357.5769 Q637.1875,357.5769 636.5,358.655 Q635.8125,359.7175 635.8125,361.8113 Q635.8125,363.905 636.5,364.9831 Q637.1875,366.0456 638.5313,366.0456 Q639.1563,366.0456 639.75,365.78 Q640.3438,365.4988 640.9688,364.9206 L640.9688,367.6394 Z " fill="#000000"/><a href="https://bo4e.github.io/BO4E-python/latest/api/bo4e.com.html#bo4e.com.zustaendigkeit.Zustaendigkeit" target="_top" title="https://bo4e.github.io/BO4E-python/latest/api/bo4e.com.html#bo4e.com.zustaendigkeit.Zustaendigkeit" xlink:actuate="onRequest" xlink:href="https://bo4e.github.io/BO4E-python/latest/api/bo4e.com.html#bo4e.com.zustaendigkeit.Zustaendigkeit" xlink:show="new" xlink:title="https://bo4e.github.io/BO4E-python/latest/api/bo4e.com.html#bo4e.com.zustaendigkeit.Zustaendigkeit" xlink:type="simple"><text fill="#0000FF" font-family="sans-serif" font-size="14" lengthAdjust="spacing" text-decoration="underline" textLength="104" x="660" y="361.0251">Zustaendigkeit</text></a><text fill="#000000" font-family="sans-serif" font-size="10" lengthAdjust="spacing" textLength="120" x="652" y="373.6091">bo4e.com.zustaendigkeit</text></g><!--class Anrede--><g id="elem_Anrede"><rect codeLine="21" fill="#F1F1F1" height="37.9375" id="Anrede" rx="2.5" ry="2.5" style="stroke:#181818;stroke-width:0.5;" width="124" x="637" y="456.03"/><ellipse cx="652" cy="474.9988" fill="#ADD1B2" rx="11" ry="11" style="stroke:#181818;stroke-width:1.0;"/><path d="M654.9688,480.6394 Q654.3906,480.9363 653.75,481.0769 Q653.1094,481.2331 652.4063,481.2331 Q649.9063,481.2331 648.5781,479.5925 Q647.2656,477.9363 647.2656,474.8113 Q647.2656,471.6863 648.5781,470.03 Q649.9063,468.3738 652.4063,468.3738 Q653.1094,468.3738 653.75,468.53 Q654.4063,468.6863 654.9688,468.9831 L654.9688,471.7019 Q654.3438,471.1238 653.75,470.8581 Q653.1563,470.5769 652.5313,470.5769 Q651.1875,470.5769 650.5,471.655 Q649.8125,472.7175 649.8125,474.8113 Q649.8125,476.905 650.5,477.9831 Q651.1875,479.0456 652.5313,479.0456 Q653.1563,479.0456 653.75,478.78 Q654.3438,478.4988 654.9688,477.9206 L654.9688,480.6394 Z " fill="#000000"/><a href="https://bo4e.github.io/BO4E-python/latest/api/bo4e.enum.html#bo4e.enum.anrede.Anrede" target="_top" title="https://bo4e.github.io/BO4E-python/latest/api/bo4e.enum.html#bo4e.enum.anrede.Anrede" xlink:actuate="onRequest" xlink:href="https://bo4e.github.io/BO4E-python/latest/api/bo4e.enum.html#bo4e.enum.anrede.Anrede" xlink:show="new" xlink:title="https://bo4e.github.io/BO4E-python/latest/api/bo4e.enum.html#bo4e.enum.anrede.Anrede" xlink:type="simple"><text fill="#0000FF" font-family="sans-serif" font-size="14" lengthAdjust="spacing" text-decoration="underline" textLength="50" x="687" y="474.0251">Anrede</text></a><text fill="#000000" font-family="sans-serif" font-size="10" lengthAdjust="spacing" textLength="92" x="666" y="486.6091">bo4e.enum.anrede</text></g><!--class Titel--><g id="elem_Titel"><rect codeLine="22" fill="#F1F1F1" height="37.9375" id="Titel" rx="2.5" ry="2.5" style="stroke:#181818;stroke-width:0.5;" width="108" x="645" y="529.03"/><ellipse cx="660" cy="547.9988" fill="#ADD1B2" rx="11" ry="11" style="stroke:#181818;stroke-width:1.0;"/><path d="M662.9688,553.6394 Q662.3906,553.9363 661.75,554.0769 Q661.1094,554.2331 660.4063,554.2331 Q657.9063,554.2331 656.5781,552.5925 Q655.2656,550.9363 655.2656,547.8113 Q655.2656,544.6863 656.5781,543.03 Q657.9063,541.3738 660.4063,541.3738 Q661.1094,541.3738 661.75,541.53 Q662.4063,541.6863 662.9688,541.9831 L662.9688,544.7019 Q662.3438,544.1238 661.75,543.8581 Q661.1563,543.5769 660.5313,543.5769 Q659.1875,543.5769 658.5,544.655 Q657.8125,545.7175 657.8125,547.8113 Q657.8125,549.905 658.5,550.9831 Q659.1875,552.0456 660.5313,552.0456 Q661.1563,552.0456 661.75,551.78 Q662.3438,551.4988 662.9688,550.9206 L662.9688,553.6394 Z " fill="#000000"/><a href="https://bo4e.github.io/BO4E-python/latest/api/bo4e.enum.html#bo4e.enum.titel.Titel" target="_top" title="https://bo4e.github.io/BO4E-python/latest/api/bo4e.enum.html#bo4e.enum.titel.Titel" xlink:actuate="onRequest" xlink:href="https://bo4e.github.io/BO4E-python/latest/api/bo4e.enum.html#bo4e.enum.titel.Titel" xlink:show="new" xlink:title="https://bo4e.github.io/BO4E-python/latest/api/bo4e.enum.html#bo4e.enum.titel.Titel" xlink:type="simple"><text fill="#0000FF" font-family="sans-serif" font-size="14" lengthAdjust="spacing" text-decoration="underline" textLength="29" x="697.5" y="547.0251">Titel</text></a><text fill="#000000" font-family="sans-serif" font-size="10" lengthAdjust="spacing" textLength="76" x="674" y="559.6091">bo4e.enum.titel</text></g><!--class Person--><g id="elem_Person"><rect codeLine="3" fill="#F1F1F1" height="143.7188" id="Person" rx="2.5" ry="2.5" style="stroke:#181818;stroke-width:0.5;" width="417" x="7" y="258.14"/><ellipse cx="173.75" cy="277.1088" fill="#ADD1B2" rx="11" ry="11" style="stroke:#181818;stroke-width:1.0;"/><path d="M176.7188,282.7494 Q176.1406,283.0463 175.5,283.1869 Q174.8594,283.3431 174.1563,283.3431 Q171.6563,283.3431 170.3281,281.7025 Q169.0156,280.0463 169.0156,276.9213 Q169.0156,273.7963 170.3281,272.14 Q171.6563,270.4838 174.1563,270.4838 Q174.8594,270.4838 175.5,270.64 Q176.1563,270.7963 176.7188,271.0931 L176.7188,273.8119 Q176.0938,273.2338 175.5,272.9681 Q174.9063,272.6869 174.2813,272.6869 Q172.9375,272.6869 172.25,273.765 Q171.5625,274.8275 171.5625,276.9213 Q171.5625,279.015 172.25,280.0931 Q172.9375,281.1556 174.2813,281.1556 Q174.9063,281.1556 175.5,280.89 Q176.0938,280.6088 176.7188,280.0306 L176.7188,282.7494 Z " fill="#000000"/><a href="https://bo4e.github.io/BO4E-python/latest/api/bo4e.bo.html#bo4e.bo.person.Person" target="_top" title="https://bo4e.github.io/BO4E-python/latest/api/bo4e.bo.html#bo4e.bo.person.Person" xlink:actuate="onRequest" xlink:href="https://bo4e.github.io/BO4E-python/latest/api/bo4e.bo.html#bo4e.bo.person.Person" xlink:show="new" xlink:title="https://bo4e.github.io/BO4E-python/latest/api/bo4e.bo.html#bo4e.bo.person.Person" xlink:type="simple"><text fill="#0000FF" font-family="sans-serif" font-size="14" lengthAdjust="spacing" text-decoration="underline" textLength="49" x="207.25" y="276.1351">Person</text></a><text fill="#000000" font-family="sans-serif" font-size="10" lengthAdjust="spacing" textLength="75" x="194.25" y="288.7191">bo4e.bo.person</text><line style="stroke:#181818;stroke-width:0.5;" x1="8" x2="423" y1="296.0775" y2="296.0775"/><text fill="#000000" font-family="sans-serif" font-size="14" lengthAdjust="spacing" textLength="405" x="13" y="313.0726">_typ : Literal[&lt;Typ.PERSON: 'PERSON'&gt;] [1] = Typ.PERSON</text><text fill="#000000" font-family="sans-serif" font-size="14" lengthAdjust="spacing" textLength="254" x="13" y="329.3695">individuelleAnrede : str [0..1] = None</text><text fill="#000000" font-family="sans-serif" font-size="14" lengthAdjust="spacing" textLength="188" x="13" y="345.6664">vorname : str [0..1] = None</text><text fill="#000000" font-family="sans-serif" font-size="14" lengthAdjust="spacing" textLength="201" x="13" y="361.9632">nachname : str [0..1] = None</text><text fill="#000000" font-family="sans-serif" font-size="14" lengthAdjust="spacing" textLength="239" x="13" y="378.2601">geburtsdatum : date [0..1] = None</text><text fill="#000000" font-family="sans-serif" font-size="14" lengthAdjust="spacing" textLength="207" x="13" y="394.557">kommentar : str [0..1] = None</text></g><!--link Person to Geschaeftsobjekt--><g id="link_Person_Geschaeftsobjekt"><path codeLine="25" d="M369.84,257.71 C470.05,210.47 577.3582,159.8749 640.4282,130.1449 " fill="none" id="Person-to-Geschaeftsobjekt" style="stroke:#181818;stroke-width:1.0;"/><polygon fill="none" points="656.71,122.47,637.8699,124.7177,642.9865,135.5722,656.71,122.47" style="stroke:#181818;stroke-width:1.0;"/></g><!--link Person to Anrede--><g id="link_Person_Anrede"><path codeLine="26" d="M424.19,392.55 C501.19,415.73 571.29,436.8389 625.17,453.0689 " fill="none" id="Person-to-Anrede" style="stroke:#181818;stroke-width:1.0;"/><polygon fill="#181818" points="636.66,456.53,632.0687,450.9694,625.17,453.0689,629.7613,458.6295,636.66,456.53" style="stroke:#181818;stroke-width:1.0;"/><text fill="#000000" font-family="sans-serif" font-size="13" lengthAdjust="spacing" textLength="45" x="487" y="399.0669">anrede</text><text fill="#000000" font-family="sans-serif" font-size="13" lengthAdjust="spacing" textLength="24" x="604.9937" y="467.4726">0..1</text></g><!--link Person to Titel--><g id="link_Person_Titel"><path codeLine="27" d="M341.15,402.32 C408.17,438.86 493.22,481.57 573,511 C596.14,519.54 610.6972,524.229 633.0372,530.579 " fill="none" id="Person-to-Titel" style="stroke:#181818;stroke-width:1.0;"/><polygon fill="#181818" points="644.58,533.86,639.9023,528.3719,633.0372,530.579,637.715,536.0671,644.58,533.86" style="stroke:#181818;stroke-width:1.0;"/><text fill="#000000" font-family="sans-serif" font-size="13" lengthAdjust="spacing" textLength="24" x="497.5" y="460.0669">titel</text><text fill="#000000" font-family="sans-serif" font-size="13" lengthAdjust="spacing" textLength="24" x="612.9002" y="545.167">0..1</text></g><!--link Person to Kontaktweg--><g id="link_Person_Kontaktweg"><path codeLine="28" d="M424.19,280.83 C497.62,263.44 563.5629,247.8351 617.3229,235.1051 " fill="none" id="Person-to-Kontaktweg" style="stroke:#181818;stroke-width:1.0;"/><polygon fill="#181818" points="629,232.34,622.2398,229.8302,617.3229,235.1051,624.0831,237.6149,629,232.34" style="stroke:#181818;stroke-width:1.0;"/><text fill="#000000" font-family="sans-serif" font-size="13" lengthAdjust="spacing" textLength="81" x="469" y="246.0669">kontaktwege</text><text fill="#000000" font-family="sans-serif" font-size="13" lengthAdjust="spacing" textLength="23" x="598.4867" y="246.6109">0..*</text></g><!--link Person to Zustaendigkeit--><g id="link_Person_Zustaendigkeit"><path codeLine="29" d="M424.33,350.85 C434.36,351.63 444.29,352.35 454,353 C510.46,356.77 562.3945,358.7319 610.6545,360.0519 " fill="none" id="Person-to-Zustaendigkeit" style="stroke:#181818;stroke-width:1.0;"/><polygon fill="#181818" points="622.65,360.38,616.7616,356.2174,610.6545,360.0519,616.5429,364.2145,622.65,360.38" style="stroke:#181818;stroke-width:1.0;"/><text fill="#000000" font-family="sans-serif" font-size="13" lengthAdjust="spacing" textLength="109" x="455" y="349.0669">zustaendigkeiten</text><text fill="#000000" font-family="sans-serif" font-size="13" lengthAdjust="spacing" textLength="23" x="592.1004" y="372.958">0..*</text></g><!--link Person to Adresse--><g id="link_Person_Adresse"><path codeLine="30" d="M424.19,312.31 C501.95,305.69 572.4432,299.6869 626.2932,295.1069 " fill="none" id="Person-to-Adresse" style="stroke:#181818;stroke-width:1.0;"/><polygon fill="#181818" points="638.25,294.09,631.9326,290.6129,626.2932,295.1069,632.6106,298.5841,638.25,294.09" style="stroke:#181818;stroke-width:1.0;"/><text fill="#000000" font-family="sans-serif" font-size="13" lengthAdjust="spacing" textLength="51" x="484" y="298.0669">adresse</text><text fill="#000000" font-family="sans-serif" font-size="13" lengthAdjust="spacing" textLength="24" x="606.293" y="307.5413">0..1</text></g><!--SRC=[hLLDRzim33t7luA83mKAH4cmhYkCBa2w1JjiQ8kjfsN68DkihSMM34jkaNRxxvFbRoVP3id55Ar7-kc9f6DyLA04P2oC50GiGrynmItBZwcKC5wl8wLIwKoddhX04Z8LvHvXOdfpTx6Qf5iL2JwDgKAffZHb9SeJ9599RDTEYfaKdDmR0wLntH_yMh8NTEQpHHyu1Yeh5BnQevzgcu83NvZ2ZCRhwuTjIkvNNx_TtJfmLYxE5YwivowyXtRJ6Z4Ui2SMv1Z7kEGP1gZJI9N1UaQ8GTyAZjReIMIS9WSsEVMZmxiXUdccP41LdcY4jZY4R4II85SqsvlXZsKLsMLAVJnERQWSrpNwLHxODvSVtosl2Y5FUQKXIZ-YkdYay7xXHf5FWnSmVB7tmeTf3FLXf1RfM8ryaNH4qbvN9Us2lPejhou_72jJ_HsxyJP2t_r6FMD8FZTBQ9UxilIZ3CqMVcfwDCXGIYJBqa9bzxEgm8PI1JmrdvTSAegwSSCDCaM-zrpek_j9zZCOhlsm4vGJyhnRJuNRBQZ21pkO-s_U7jrupQVirgLcc95gffLcLumEjBmnipmz6wK7SqmUYYUOvm4g1cUO65Gn-kfVmcJoUr5Fh9r9qg0qx1p6nVWSjpgJPhANH_qFkgJfW26pYpqVDoEXswuEj0s9_uuQLAm3_Nf4VfXW4LxteJvErM1MnFJn4amy7MR9I3n3dU6HOHp8lm00]--></g></svg>