<svg xmlns="http://www.w3.org/2000/svg" xmlns:xlink="http://www.w3.org/1999/xlink" contentStyleType="text/css" data-diagram-type="CLASS" height="428px" preserveAspectRatio="none" style="width:835px;height:428px;background:#FFFFFF;" version="1.1" viewBox="0 0 835 428" width="835px" zoomAndPan="magnify"><defs/><g><!--cluster bo4e--><g class="cluster" data-entity="bo4e" data-source-line="10" data-uid="ent0005" id="cluster_bo4e"><path d="M547.3,6 L587.176,6 A3.75,3.75 0 0 1 589.676,8.5 L596.676,28.2969 L825.87,28.2969 A2.5,2.5 0 0 1 828.37,30.7969 L828.37,418.5 A2.5,2.5 0 0 1 825.87,421 L547.3,421 A2.5,2.5 0 0 1 544.8,418.5 L544.8,8.5 A2.5,2.5 0 0 1 547.3,6" fill="none" style="stroke:#000000;stroke-width:1.5;"/><line style="stroke:#000000;stroke-width:1.5;" x1="544.8" x2="596.676" y1="28.2969" y2="28.2969"/><text fill="#000000" font-family="sans-serif" font-size="14" font-weight="bold" lengthAdjust="spacing" textLength="38.876" x="548.8" y="20.9951">bo4e</text></g><!--cluster bo--><g class="cluster" data-entity="bo" data-source-line="9" data-uid="ent0003" id="cluster_bo"><path d="M611.34,49 L676.174,49 A3.75,3.75 0 0 1 678.674,51.5 L685.674,71.2969 L761.84,71.2969 A2.5,2.5 0 0 1 764.34,73.7969 L764.34,135.5 A2.5,2.5 0 0 1 761.84,138 L611.34,138 A2.5,2.5 0 0 1 608.84,135.5 L608.84,51.5 A2.5,2.5 0 0 1 611.34,49" fill="#B6D7A8" style="stroke:#000000;stroke-width:1.5;"/><line style="stroke:#000000;stroke-width:1.5;" x1="608.84" x2="685.674" y1="71.2969" y2="71.2969"/><a href="file:////home/runner/work/BO4E-python/BO4E-python/docs/../.tox/docs/tmp/html/api/bo4e.bo.html" target="_top" title="file:////home/runner/work/BO4E-python/BO4E-python/docs/../.tox/docs/tmp/html/api/bo4e.bo.html" xlink:actuate="onRequest" xlink:href="file:////home/runner/work/BO4E-python/BO4E-python/docs/../.tox/docs/tmp/html/api/bo4e.bo.html" xlink:show="new" xlink:title="file:////home/runner/work/BO4E-python/BO4E-python/docs/../.tox/docs/tmp/html/api/bo4e.bo.html" xlink:type="simple"><text fill="#0000FF" font-family="sans-serif" font-size="14" font-weight="bold" lengthAdjust="spacing" text-decoration="underline" textLength="63.834" x="612.84" y="63.9951">bo4e.bo</text></a></g><!--cluster enum--><g class="cluster" data-entity="enum" data-source-line="12" data-uid="ent0006" id="cluster_enum"><path d="M571.3,162 L660.5109,162 A3.75,3.75 0 0 1 663.0109,164.5 L670.0109,184.2969 L801.87,184.2969 A2.5,2.5 0 0 1 804.37,186.7969 L804.37,394.5 A2.5,2.5 0 0 1 801.87,397 L571.3,397 A2.5,2.5 0 0 1 568.8,394.5 L568.8,164.5 A2.5,2.5 0 0 1 571.3,162" fill="#D1C358" style="stroke:#000000;stroke-width:1.5;"/><line style="stroke:#000000;stroke-width:1.5;" x1="568.8" x2="670.0109" y1="184.2969" y2="184.2969"/><a href="file:////home/runner/work/BO4E-python/BO4E-python/docs/../.tox/docs/tmp/html/api/bo4e.enum.html" target="_top" title="file:////home/runner/work/BO4E-python/BO4E-python/docs/../.tox/docs/tmp/html/api/bo4e.enum.html" xlink:actuate="onRequest" xlink:href="file:////home/runner/work/BO4E-python/BO4E-python/docs/../.tox/docs/tmp/html/api/bo4e.enum.html" xlink:show="new" xlink:title="file:////home/runner/work/BO4E-python/BO4E-python/docs/../.tox/docs/tmp/html/api/bo4e.enum.html" xlink:type="simple"><text fill="#0000FF" font-family="sans-serif" font-size="14" font-weight="bold" lengthAdjust="spacing" text-decoration="underline" textLength="88.2109" x="572.8" y="176.9951">bo4e.enum</text></a></g><!--class Preisblatt--><g class="entity" data-entity="Preisblatt" data-source-line="10" data-uid="ent0004" id="entity_Preisblatt"><rect fill="#F1F1F1" height="37.9375" rx="2.5" ry="2.5" style="stroke:#181818;stroke-width:0.5;" width="123.499" x="624.84" y="84.03"/><ellipse cx="639.84" cy="102.9987" fill="#ADD1B2" rx="11" ry="11" style="stroke:#181818;stroke-width:1;"/><path d="M642.8088,108.6394 Q642.2306,108.9362 641.59,109.0769 Q640.9494,109.2331 640.2463,109.2331 Q637.7463,109.2331 636.4181,107.5925 Q635.1056,105.9362 635.1056,102.8112 Q635.1056,99.6862 636.4181,98.03 Q637.7463,96.3737 640.2463,96.3737 Q640.9494,96.3737 641.59,96.53 Q642.2463,96.6862 642.8088,96.9831 L642.8088,99.7019 Q642.1838,99.1237 641.59,98.8581 Q640.9963,98.5769 640.3713,98.5769 Q639.0275,98.5769 638.34,99.655 Q637.6525,100.7175 637.6525,102.8112 Q637.6525,104.905 638.34,105.9831 Q639.0275,107.0456 640.3713,107.0456 Q640.9963,107.0456 641.59,106.78 Q642.1838,106.4987 642.8088,105.9206 L642.8088,108.6394 Z " fill="#000000"/><a href="file:////home/runner/work/BO4E-python/BO4E-python/docs/../.tox/docs/tmp/html/api/bo4e.bo.html#bo4e.bo.preisblatt.Preisblatt" target="_top" title="file:////home/runner/work/BO4E-python/BO4E-python/docs/../.tox/docs/tmp/html/api/bo4e.bo.html#bo4e.bo.preisblatt.Preisblatt" xlink:actuate="onRequest" xlink:href="file:////home/runner/work/BO4E-python/BO4E-python/docs/../.tox/docs/tmp/html/api/bo4e.bo.html#bo4e.bo.preisblatt.Preisblatt" xlink:show="new" xlink:title="file:////home/runner/work/BO4E-python/BO4E-python/docs/../.tox/docs/tmp/html/api/bo4e.bo.html#bo4e.bo.preisblatt.Preisblatt" xlink:type="simple"><text fill="#0000FF" font-family="sans-serif" font-size="14" lengthAdjust="spacing" text-decoration="underline" textLength="66.3291" x="666.425" y="102.0251">Preisblatt</text></a><text fill="#000000" font-family="sans-serif" font-size="10" lengthAdjust="spacing" textLength="91.499" x="653.84" y="114.6091">bo4e.bo.preisblatt</text></g><!--class Bilanzierungsmethode--><g class="entity" data-entity="Bilanzierungsmethode" data-source-line="13" data-uid="ent0007" id="entity_Bilanzierungsmethode"><rect fill="#F1F1F1" height="37.9375" rx="2.5" ry="2.5" style="stroke:#181818;stroke-width:0.5;" width="203.5723" x="584.8" y="197.03"/><ellipse cx="599.8" cy="215.9988" fill="#ADD1B2" rx="11" ry="11" style="stroke:#181818;stroke-width:1;"/><path d="M602.7688,221.6394 Q602.1906,221.9363 601.55,222.0769 Q600.9094,222.2331 600.2063,222.2331 Q597.7063,222.2331 596.3781,220.5925 Q595.0656,218.9363 595.0656,215.8113 Q595.0656,212.6863 596.3781,211.03 Q597.7063,209.3738 600.2063,209.3738 Q600.9094,209.3738 601.55,209.53 Q602.2063,209.6863 602.7688,209.9831 L602.7688,212.7019 Q602.1438,212.1238 601.55,211.8581 Q600.9563,211.5769 600.3313,211.5769 Q598.9875,211.5769 598.3,212.655 Q597.6125,213.7175 597.6125,215.8113 Q597.6125,217.905 598.3,218.9831 Q598.9875,220.0456 600.3313,220.0456 Q600.9563,220.0456 601.55,219.78 Q602.1438,219.4988 602.7688,218.9206 L602.7688,221.6394 Z " fill="#000000"/><a href="file:////home/runner/work/BO4E-python/BO4E-python/docs/../.tox/docs/tmp/html/api/bo4e.enum.html#bo4e.enum.bilanzierungsmethode.Bilanzierungsmethode" target="_top" title="file:////home/runner/work/BO4E-python/BO4E-python/docs/../.tox/docs/tmp/html/api/bo4e.enum.html#bo4e.enum.bilanzierungsmethode.Bilanzierungsmethode" xlink:actuate="onRequest" xlink:href="file:////home/runner/work/BO4E-python/BO4E-python/docs/../.tox/docs/tmp/html/api/bo4e.enum.html#bo4e.enum.bilanzierungsmethode.Bilanzierungsmethode" xlink:show="new" xlink:title="file:////home/runner/work/BO4E-python/BO4E-python/docs/../.tox/docs/tmp/html/api/bo4e.enum.html#bo4e.enum.bilanzierungsmethode.Bilanzierungsmethode" xlink:type="simple"><text fill="#0000FF" font-family="sans-serif" font-size="14" lengthAdjust="spacing" text-decoration="underline" textLength="157.0488" x="621.0617" y="215.0251">Bilanzierungsmethode</text></a><text fill="#000000" font-family="sans-serif" font-size="10" lengthAdjust="spacing" textLength="171.5723" x="613.8" y="227.6091">bo4e.enum.bilanzierungsmethode</text></g><!--class Netzebene--><g class="entity" data-entity="Netzebene" data-source-line="14" data-uid="ent0008" id="entity_Netzebene"><rect fill="#F1F1F1" height="37.9375" rx="2.5" ry="2.5" style="stroke:#181818;stroke-width:0.5;" width="144.71" x="614.23" y="270.03"/><ellipse cx="629.23" cy="288.9988" fill="#ADD1B2" rx="11" ry="11" style="stroke:#181818;stroke-width:1;"/><path d="M632.1988,294.6394 Q631.6206,294.9363 630.98,295.0769 Q630.3394,295.2331 629.6363,295.2331 Q627.1363,295.2331 625.8081,293.5925 Q624.4956,291.9363 624.4956,288.8113 Q624.4956,285.6863 625.8081,284.03 Q627.1363,282.3738 629.6363,282.3738 Q630.3394,282.3738 630.98,282.53 Q631.6363,282.6863 632.1988,282.9831 L632.1988,285.7019 Q631.5738,285.1238 630.98,284.8581 Q630.3863,284.5769 629.7613,284.5769 Q628.4175,284.5769 627.73,285.655 Q627.0425,286.7175 627.0425,288.8113 Q627.0425,290.905 627.73,291.9831 Q628.4175,293.0456 629.7613,293.0456 Q630.3863,293.0456 630.98,292.78 Q631.5738,292.4988 632.1988,291.9206 L632.1988,294.6394 Z " fill="#000000"/><a href="file:////home/runner/work/BO4E-python/BO4E-python/docs/../.tox/docs/tmp/html/api/bo4e.enum.html#bo4e.enum.netzebene.Netzebene" target="_top" title="file:////home/runner/work/BO4E-python/BO4E-python/docs/../.tox/docs/tmp/html/api/bo4e.enum.html#bo4e.enum.netzebene.Netzebene" xlink:actuate="onRequest" xlink:href="file:////home/runner/work/BO4E-python/BO4E-python/docs/../.tox/docs/tmp/html/api/bo4e.enum.html#bo4e.enum.netzebene.Netzebene" xlink:show="new" xlink:title="file:////home/runner/work/BO4E-python/BO4E-python/docs/../.tox/docs/tmp/html/api/bo4e.enum.html#bo4e.enum.netzebene.Netzebene" xlink:type="simple"><text fill="#0000FF" font-family="sans-serif" font-size="14" lengthAdjust="spacing" text-decoration="underline" textLength="75.5234" x="661.8233" y="288.0251">Netzebene</text></a><text fill="#000000" font-family="sans-serif" font-size="10" lengthAdjust="spacing" textLength="112.71" x="643.23" y="300.6091">bo4e.enum.netzebene</text></g><!--class Kundengruppe--><g class="entity" data-entity="Kundengruppe" data-source-line="15" data-uid="ent0009" id="entity_Kundengruppe"><rect fill="#F1F1F1" height="37.9375" rx="2.5" ry="2.5" style="stroke:#181818;stroke-width:0.5;" width="164.8564" x="604.16" y="343.03"/><ellipse cx="619.16" cy="361.9988" fill="#ADD1B2" rx="11" ry="11" style="stroke:#181818;stroke-width:1;"/><path d="M622.1288,367.6394 Q621.5506,367.9363 620.91,368.0769 Q620.2694,368.2331 619.5663,368.2331 Q617.0663,368.2331 615.7381,366.5925 Q614.4256,364.9363 614.4256,361.8113 Q614.4256,358.6863 615.7381,357.03 Q617.0663,355.3738 619.5663,355.3738 Q620.2694,355.3738 620.91,355.53 Q621.5663,355.6863 622.1288,355.9831 L622.1288,358.7019 Q621.5038,358.1238 620.91,357.8581 Q620.3163,357.5769 619.6913,357.5769 Q618.3475,357.5769 617.66,358.655 Q616.9725,359.7175 616.9725,361.8113 Q616.9725,363.905 617.66,364.9831 Q618.3475,366.0456 619.6913,366.0456 Q620.3163,366.0456 620.91,365.78 Q621.5038,365.4988 622.1288,364.9206 L622.1288,367.6394 Z " fill="#000000"/><a href="file:////home/runner/work/BO4E-python/BO4E-python/docs/../.tox/docs/tmp/html/api/bo4e.enum.html#bo4e.enum.kundengruppe.Kundengruppe" target="_top" title="file:////home/runner/work/BO4E-python/BO4E-python/docs/../.tox/docs/tmp/html/api/bo4e.enum.html#bo4e.enum.kundengruppe.Kundengruppe" xlink:actuate="onRequest" xlink:href="file:////home/runner/work/BO4E-python/BO4E-python/docs/../.tox/docs/tmp/html/api/bo4e.enum.html#bo4e.enum.kundengruppe.Kundengruppe" xlink:show="new" xlink:title="file:////home/runner/work/BO4E-python/BO4E-python/docs/../.tox/docs/tmp/html/api/bo4e.enum.html#bo4e.enum.kundengruppe.Kundengruppe" xlink:type="simple"><text fill="#0000FF" font-family="sans-serif" font-size="14" lengthAdjust="spacing" text-decoration="underline" textLength="103.2021" x="647.9871" y="361.0251">Kundengruppe</text></a><text fill="#000000" font-family="sans-serif" font-size="10" lengthAdjust="spacing" textLength="132.8564" x="633.16" y="373.6091">bo4e.enum.kundengruppe</text></g><!--class PreisblattNetznutzung--><g class="entity" data-entity="PreisblattNetznutzung" data-source-line="3" data-uid="ent0002" id="entity_PreisblattNetznutzung"><rect fill="#F1F1F1" height="94.8281" rx="2.5" ry="2.5" style="stroke:#181818;stroke-width:0.5;" width="344.8008" x="7" y="209.59"/><ellipse cx="97.4155" cy="228.5588" fill="#ADD1B2" rx="11" ry="11" style="stroke:#181818;stroke-width:1;"/><path d="M100.3843,234.1994 Q99.8062,234.4963 99.1655,234.6369 Q98.5249,234.7931 97.8218,234.7931 Q95.3218,234.7931 93.9937,233.1525 Q92.6812,231.4963 92.6812,228.3713 Q92.6812,225.2463 93.9937,223.59 Q95.3218,221.9338 97.8218,221.9338 Q98.5249,221.9338 99.1655,222.09 Q99.8218,222.2463 100.3843,222.5431 L100.3843,225.2619 Q99.7593,224.6838 99.1655,224.4181 Q98.5718,224.1369 97.9468,224.1369 Q96.603,224.1369 95.9155,225.215 Q95.228,226.2775 95.228,228.3713 Q95.228,230.465 95.9155,231.5431 Q96.603,232.6056 97.9468,232.6056 Q98.5718,232.6056 99.1655,232.34 Q99.7593,232.0588 100.3843,231.4806 L100.3843,234.1994 Z " fill="#000000"/><a href="file:////home/runner/work/BO4E-python/BO4E-python/docs/../.tox/docs/tmp/html/api/bo4e.bo.html#bo4e.bo.preisblattnetznutzung.PreisblattNetznutzung" target="_top" title="file:////home/runner/work/BO4E-python/BO4E-python/docs/../.tox/docs/tmp/html/api/bo4e.bo.html#bo4e.bo.preisblattnetznutzung.PreisblattNetznutzung" xlink:actuate="onRequest" xlink:href="file:////home/runner/work/BO4E-python/BO4E-python/docs/../.tox/docs/tmp/html/api/bo4e.bo.html#bo4e.bo.preisblattnetznutzung.PreisblattNetznutzung" xlink:show="new" xlink:title="file:////home/runner/work/BO4E-python/BO4E-python/docs/../.tox/docs/tmp/html/api/bo4e.bo.html#bo4e.bo.preisblattnetznutzung.PreisblattNetznutzung" xlink:type="simple"><text fill="#0000FF" font-family="sans-serif" font-size="14" lengthAdjust="spacing" text-decoration="underline" textLength="155.4697" x="117.9155" y="227.5851">PreisblattNetznutzung</text></a><text fill="#000000" font-family="sans-serif" font-size="10" lengthAdjust="spacing" textLength="154.0283" x="118.6362" y="240.1691">bo4e.bo.preisblattnetznutzung</text><line style="stroke:#181818;stroke-width:0.5;" x1="8" x2="350.8008" y1="247.5275" y2="247.5275"/><text fill="#000000" font-family="sans-serif" font-size="14" lengthAdjust="spacing" textLength="332.8008" x="13" y="264.5226">_version : str [0..1] = 202501.0.0+gb8cbd220d</text><text fill="#000000" font-family="sans-serif" font-size="14" lengthAdjust="spacing" textLength="318.5752" x="13" y="280.8195">zusatzAttribute : ZusatzAttribut [0..*] = None</text><text fill="#000000" font-family="sans-serif" font-size="14" lengthAdjust="spacing" textLength="151.1768" x="13" y="297.1164">_id : str [0..1] = None</text></g><!--link PreisblattNetznutzung to Preisblatt--><g class="link" data-entity-1="PreisblattNetznutzung" data-entity-2="Preisblatt" data-source-line="18" data-uid="lnk10" id="link_PreisblattNetznutzung_Preisblatt"><path codeLine="18" d="M337.48,209.12 C434.65,179.49 536.7321,148.3782 607.4321,126.8282" fill="none" id="PreisblattNetznutzung-to-Preisblatt" style="stroke:#181818;stroke-width:1;"/><polygon fill="none" points="624.65,121.58,605.6827,121.0889,609.1815,132.5675,624.65,121.58" style="stroke:#181818;stroke-width:1;"/></g><!--link PreisblattNetznutzung to Bilanzierungsmethode--><g class="link" data-entity-1="PreisblattNetznutzung" data-entity-2="Bilanzierungsmethode" data-source-line="19" data-uid="lnk11" id="link_PreisblattNetznutzung_Bilanzierungsmethode"><path codeLine="19" d="M352.14,243.06 C429.51,236.78 506.2393,230.55 572.6993,225.16" fill="none" id="PreisblattNetznutzung-to-Bilanzierungsmethode" style="stroke:#181818;stroke-width:1;"/><polygon fill="#181818" points="584.66,224.19,578.3563,220.6881,572.6993,225.16,579.003,228.6619,584.66,224.19" style="stroke:#181818;stroke-width:1;"/><text fill="#000000" font-family="sans-serif" font-size="13" lengthAdjust="spacing" textLength="145.1646" x="382.8" y="226.0669">bilanzierungsmethode</text><text fill="#000000" font-family="sans-serif" font-size="13" lengthAdjust="spacing" textLength="24.8066" x="551.9684" y="237.4633">0..1</text></g><!--link PreisblattNetznutzung to Netzebene--><g class="link" data-entity-1="PreisblattNetznutzung" data-entity-2="Netzebene" data-source-line="20" data-uid="lnk12" id="link_PreisblattNetznutzung_Netzebene"><path codeLine="20" d="M352.26,277.6 C362.24,278.5 372.15,279.31 381.8,280 C461.14,285.7 540.381,287.6481 601.991,288.4281" fill="none" id="PreisblattNetznutzung-to-Netzebene" style="stroke:#181818;stroke-width:1;"/><polygon fill="#181818" points="613.99,288.58,608.0411,284.5044,601.991,288.4281,607.9398,292.5037,613.99,288.58" style="stroke:#181818;stroke-width:1;"/><text fill="#000000" font-family="sans-serif" font-size="13" lengthAdjust="spacing" textLength="68.6436" x="421.3" y="276.0669">netzebene</text><text fill="#000000" font-family="sans-serif" font-size="13" lengthAdjust="spacing" textLength="24.8066" x="581.3077" y="301.384">0..1</text></g><!--link PreisblattNetznutzung to Kundengruppe--><g class="link" data-entity-1="PreisblattNetznutzung" data-entity-2="Kundengruppe" data-source-line="21" data-uid="lnk13" id="link_PreisblattNetznutzung_Kundengruppe"><path codeLine="21" d="M350.96,304.89 C361.37,307.4 371.71,309.8 381.8,312 C456.48,328.3 530.6444,340.2667 592.0444,349.1767" fill="none" id="PreisblattNetznutzung-to-Kundengruppe" style="stroke:#181818;stroke-width:1;"/><polygon fill="#181818" points="603.92,350.9,598.5566,346.0798,592.0444,349.1767,597.4078,353.9969,603.92,350.9" style="stroke:#181818;stroke-width:1;"/><text fill="#000000" font-family="sans-serif" font-size="13" lengthAdjust="spacing" textLength="94.834" x="408.3" y="308.0669">kundengruppe</text><text fill="#000000" font-family="sans-serif" font-size="13" lengthAdjust="spacing" textLength="24.8066" x="571.23" y="362.6413">0..1</text></g><!--SRC=[nLHHRzCm47wUVyMfVHkgdPODfWWchO8dfC8p9K9nV4si9NPaEmm2_7USiARkI41xOCsJloztN-w-Swx4dGEdmSYyS22amSn9hGZ9ojHQc6stErbYpFnJw0gPQPH2m-wqkMNhznTl5_KtLsXrT1OwiunIHft- -XkugcQ5gqgMrf9nVO6KQzeHypse3KhBozGvXQvLZMiRbTCF0xivi33A9iadzShA5kDbTFrNrHcaTbm3lfEppr_GMEy0n62TWMr4wJA1rx2ALfVHaaOqUfRpguoBrIeIvAnjREhQ6-UCv8r3d_NnYEa5pZk1ZLRevQLugDo_-4c8IYkqTPhXVtSTxa6Iz5xS8vYlNxnvUNFLkN2owGSZ3sRqZ-4-cAWtymcyHDLKWPiT3FtiCCp5Cdj- -HIE3jNC3v3BCbMjHF-Dt5RejGJIzGW9O-IVda-AzbsFQPoaxUvNHuuAwMP_Wk4qqTMGqxSoH9-a_jj62LIvQUeQwRi0G0Wc6WcJ-rx2d6xBJEpKnUB7zNuH125JuJx-76RT1fiThllutOfXxCeyJlWmo1Y6KJrEuiZ864AV22caBxJ2YllTJsoXxs12UoUn5FON]--></g></svg>