<?xml version="1.0" encoding="us-ascii" standalone="no"?><svg xmlns="http://www.w3.org/2000/svg" xmlns:xlink="http://www.w3.org/1999/xlink" contentStyleType="text/css" height="428px" preserveAspectRatio="none" style="width:830px;height:428px;background:#FFFFFF;" version="1.1" viewBox="0 0 830 428" width="830px" zoomAndPan="magnify"><defs/><g><!--cluster bo4e--><g id="cluster_bo4e"><path d="M549.5,6 L590.5,6 A3.75,3.75 0 0 1 593,8.5 L600,28.2969 L820.5,28.2969 A2.5,2.5 0 0 1 823,30.7969 L823,418.5 A2.5,2.5 0 0 1 820.5,421 L549.5,421 A2.5,2.5 0 0 1 547,418.5 L547,8.5 A2.5,2.5 0 0 1 549.5,6 " fill="none" style="stroke:#000000;stroke-width:1.5;"/><line style="stroke:#000000;stroke-width:1.5;" x1="547" x2="600" y1="28.2969" y2="28.2969"/><text fill="#000000" font-family="sans-serif" font-size="14" font-weight="bold" lengthAdjust="spacing" textLength="40" x="551" y="20.9951">bo4e</text></g><!--cluster bo--><g id="cluster_bo"><path d="M612,49 L678,49 A3.75,3.75 0 0 1 680.5,51.5 L687.5,71.2969 L758,71.2969 A2.5,2.5 0 0 1 760.5,73.7969 L760.5,135.5 A2.5,2.5 0 0 1 758,138 L612,138 A2.5,2.5 0 0 1 609.5,135.5 L609.5,51.5 A2.5,2.5 0 0 1 612,49 " fill="#B6D7A8" style="stroke:#000000;stroke-width:1.5;"/><line style="stroke:#000000;stroke-width:1.5;" x1="609.5" x2="687.5" y1="71.2969" y2="71.2969"/><a href="https://bo4e.github.io/BO4E-python/latest/api/bo4e.bo.html" target="_top" title="https://bo4e.github.io/BO4E-python/latest/api/bo4e.bo.html" xlink:actuate="onRequest" xlink:href="https://bo4e.github.io/BO4E-python/latest/api/bo4e.bo.html" xlink:show="new" xlink:title="https://bo4e.github.io/BO4E-python/latest/api/bo4e.bo.html" xlink:type="simple"><text fill="#0000FF" font-family="sans-serif" font-size="14" font-weight="bold" lengthAdjust="spacing" text-decoration="underline" textLength="65" x="613.5" y="63.9951">bo4e.bo</text></a></g><!--cluster enum--><g id="cluster_enum"><path d="M573.5,162 L663.5,162 A3.75,3.75 0 0 1 666,164.5 L673,184.2969 L796.5,184.2969 A2.5,2.5 0 0 1 799,186.7969 L799,394.5 A2.5,2.5 0 0 1 796.5,397 L573.5,397 A2.5,2.5 0 0 1 571,394.5 L571,164.5 A2.5,2.5 0 0 1 573.5,162 " fill="#D1C358" style="stroke:#000000;stroke-width:1.5;"/><line style="stroke:#000000;stroke-width:1.5;" x1="571" x2="673" y1="184.2969" y2="184.2969"/><a href="https://bo4e.github.io/BO4E-python/latest/api/bo4e.enum.html" target="_top" title="https://bo4e.github.io/BO4E-python/latest/api/bo4e.enum.html" xlink:actuate="onRequest" xlink:href="https://bo4e.github.io/BO4E-python/latest/api/bo4e.enum.html" xlink:show="new" xlink:title="https://bo4e.github.io/BO4E-python/latest/api/bo4e.enum.html" xlink:type="simple"><text fill="#0000FF" font-family="sans-serif" font-size="14" font-weight="bold" lengthAdjust="spacing" text-decoration="underline" textLength="89" x="575" y="176.9951">bo4e.enum</text></a></g><!--class Preisblatt--><g id="elem_Preisblatt"><rect codeLine="10" fill="#F1F1F1" height="37.9375" id="Preisblatt" rx="2.5" ry="2.5" style="stroke:#181818;stroke-width:0.5;" width="119" x="625.5" y="84.03"/><ellipse cx="640.5" cy="102.9987" fill="#ADD1B2" rx="11" ry="11" style="stroke:#181818;stroke-width:1.0;"/><path d="M643.4688,108.6394 Q642.8906,108.9362 642.25,109.0769 Q641.6094,109.2331 640.9063,109.2331 Q638.4063,109.2331 637.0781,107.5925 Q635.7656,105.9362 635.7656,102.8112 Q635.7656,99.6862 637.0781,98.03 Q638.4063,96.3737 640.9063,96.3737 Q641.6094,96.3737 642.25,96.53 Q642.9063,96.6862 643.4688,96.9831 L643.4688,99.7019 Q642.8438,99.1237 642.25,98.8581 Q641.6563,98.5769 641.0313,98.5769 Q639.6875,98.5769 639,99.655 Q638.3125,100.7175 638.3125,102.8112 Q638.3125,104.905 639,105.9831 Q639.6875,107.0456 641.0313,107.0456 Q641.6563,107.0456 642.25,106.78 Q642.8438,106.4987 643.4688,105.9206 L643.4688,108.6394 Z " fill="#000000"/><a href="https://bo4e.github.io/BO4E-python/latest/api/bo4e.bo.html#bo4e.bo.preisblatt.Preisblatt" target="_top" title="https://bo4e.github.io/BO4E-python/latest/api/bo4e.bo.html#bo4e.bo.preisblatt.Preisblatt" xlink:actuate="onRequest" xlink:href="https://bo4e.github.io/BO4E-python/latest/api/bo4e.bo.html#bo4e.bo.preisblatt.Preisblatt" xlink:show="new" xlink:title="https://bo4e.github.io/BO4E-python/latest/api/bo4e.bo.html#bo4e.bo.preisblatt.Preisblatt" xlink:type="simple"><text fill="#0000FF" font-family="sans-serif" font-size="14" lengthAdjust="spacing" text-decoration="underline" textLength="64" x="666" y="102.0251">Preisblatt</text></a><text fill="#000000" font-family="sans-serif" font-size="10" lengthAdjust="spacing" textLength="87" x="654.5" y="114.6091">bo4e.bo.preisblatt</text></g><!--class Bilanzierungsmethode--><g id="elem_Bilanzierungsmethode"><rect codeLine="13" fill="#F1F1F1" height="37.9375" id="Bilanzierungsmethode" rx="2.5" ry="2.5" style="stroke:#181818;stroke-width:0.5;" width="196" x="587" y="197.03"/><ellipse cx="602" cy="215.9988" fill="#ADD1B2" rx="11" ry="11" style="stroke:#181818;stroke-width:1.0;"/><path d="M604.9688,221.6394 Q604.3906,221.9363 603.75,222.0769 Q603.1094,222.2331 602.4063,222.2331 Q599.9063,222.2331 598.5781,220.5925 Q597.2656,218.9363 597.2656,215.8113 Q597.2656,212.6863 598.5781,211.03 Q599.9063,209.3738 602.4063,209.3738 Q603.1094,209.3738 603.75,209.53 Q604.4063,209.6863 604.9688,209.9831 L604.9688,212.7019 Q604.3438,212.1238 603.75,211.8581 Q603.1563,211.5769 602.5313,211.5769 Q601.1875,211.5769 600.5,212.655 Q599.8125,213.7175 599.8125,215.8113 Q599.8125,217.905 600.5,218.9831 Q601.1875,220.0456 602.5313,220.0456 Q603.1563,220.0456 603.75,219.78 Q604.3438,219.4988 604.9688,218.9206 L604.9688,221.6394 Z " fill="#000000"/><a href="https://bo4e.github.io/BO4E-python/latest/api/bo4e.enum.html#bo4e.enum.bilanzierungsmethode.Bilanzierungsmethode" target="_top" title="https://bo4e.github.io/BO4E-python/latest/api/bo4e.enum.html#bo4e.enum.bilanzierungsmethode.Bilanzierungsmethode" xlink:actuate="onRequest" xlink:href="https://bo4e.github.io/BO4E-python/latest/api/bo4e.enum.html#bo4e.enum.bilanzierungsmethode.Bilanzierungsmethode" xlink:show="new" xlink:title="https://bo4e.github.io/BO4E-python/latest/api/bo4e.enum.html#bo4e.enum.bilanzierungsmethode.Bilanzierungsmethode" xlink:type="simple"><text fill="#0000FF" font-family="sans-serif" font-size="14" lengthAdjust="spacing" text-decoration="underline" textLength="156" x="620" y="215.0251">Bilanzierungsmethode</text></a><text fill="#000000" font-family="sans-serif" font-size="10" lengthAdjust="spacing" textLength="164" x="616" y="227.6091">bo4e.enum.bilanzierungsmethode</text></g><!--class Netzebene--><g id="elem_Netzebene"><rect codeLine="14" fill="#F1F1F1" height="37.9375" id="Netzebene" rx="2.5" ry="2.5" style="stroke:#181818;stroke-width:0.5;" width="141" x="614.5" y="270.03"/><ellipse cx="629.5" cy="288.9988" fill="#ADD1B2" rx="11" ry="11" style="stroke:#181818;stroke-width:1.0;"/><path d="M632.4688,294.6394 Q631.8906,294.9363 631.25,295.0769 Q630.6094,295.2331 629.9063,295.2331 Q627.4063,295.2331 626.0781,293.5925 Q624.7656,291.9363 624.7656,288.8113 Q624.7656,285.6863 626.0781,284.03 Q627.4063,282.3738 629.9063,282.3738 Q630.6094,282.3738 631.25,282.53 Q631.9063,282.6863 632.4688,282.9831 L632.4688,285.7019 Q631.8438,285.1238 631.25,284.8581 Q630.6563,284.5769 630.0313,284.5769 Q628.6875,284.5769 628,285.655 Q627.3125,286.7175 627.3125,288.8113 Q627.3125,290.905 628,291.9831 Q628.6875,293.0456 630.0313,293.0456 Q630.6563,293.0456 631.25,292.78 Q631.8438,292.4988 632.4688,291.9206 L632.4688,294.6394 Z " fill="#000000"/><a href="https://bo4e.github.io/BO4E-python/latest/api/bo4e.enum.html#bo4e.enum.netzebene.Netzebene" target="_top" title="https://bo4e.github.io/BO4E-python/latest/api/bo4e.enum.html#bo4e.enum.netzebene.Netzebene" xlink:actuate="onRequest" xlink:href="https://bo4e.github.io/BO4E-python/latest/api/bo4e.enum.html#bo4e.enum.netzebene.Netzebene" xlink:show="new" xlink:title="https://bo4e.github.io/BO4E-python/latest/api/bo4e.enum.html#bo4e.enum.netzebene.Netzebene" xlink:type="simple"><text fill="#0000FF" font-family="sans-serif" font-size="14" lengthAdjust="spacing" text-decoration="underline" textLength="77" x="659.5" y="288.0251">Netzebene</text></a><text fill="#000000" font-family="sans-serif" font-size="10" lengthAdjust="spacing" textLength="109" x="643.5" y="300.6091">bo4e.enum.netzebene</text></g><!--class Kundengruppe--><g id="elem_Kundengruppe"><rect codeLine="15" fill="#F1F1F1" height="37.9375" id="Kundengruppe" rx="2.5" ry="2.5" style="stroke:#181818;stroke-width:0.5;" width="159" x="605.5" y="343.03"/><ellipse cx="620.5" cy="361.9988" fill="#ADD1B2" rx="11" ry="11" style="stroke:#181818;stroke-width:1.0;"/><path d="M623.4688,367.6394 Q622.8906,367.9363 622.25,368.0769 Q621.6094,368.2331 620.9063,368.2331 Q618.4063,368.2331 617.0781,366.5925 Q615.7656,364.9363 615.7656,361.8113 Q615.7656,358.6863 617.0781,357.03 Q618.4063,355.3738 620.9063,355.3738 Q621.6094,355.3738 622.25,355.53 Q622.9063,355.6863 623.4688,355.9831 L623.4688,358.7019 Q622.8438,358.1238 622.25,357.8581 Q621.6563,357.5769 621.0313,357.5769 Q619.6875,357.5769 619,358.655 Q618.3125,359.7175 618.3125,361.8113 Q618.3125,363.905 619,364.9831 Q619.6875,366.0456 621.0313,366.0456 Q621.6563,366.0456 622.25,365.78 Q622.8438,365.4988 623.4688,364.9206 L623.4688,367.6394 Z " fill="#000000"/><a href="https://bo4e.github.io/BO4E-python/latest/api/bo4e.enum.html#bo4e.enum.kundengruppe.Kundengruppe" target="_top" title="https://bo4e.github.io/BO4E-python/latest/api/bo4e.enum.html#bo4e.enum.kundengruppe.Kundengruppe" xlink:actuate="onRequest" xlink:href="https://bo4e.github.io/BO4E-python/latest/api/bo4e.enum.html#bo4e.enum.kundengruppe.Kundengruppe" xlink:show="new" xlink:title="https://bo4e.github.io/BO4E-python/latest/api/bo4e.enum.html#bo4e.enum.kundengruppe.Kundengruppe" xlink:type="simple"><text fill="#0000FF" font-family="sans-serif" font-size="14" lengthAdjust="spacing" text-decoration="underline" textLength="104" x="646" y="361.0251">Kundengruppe</text></a><text fill="#000000" font-family="sans-serif" font-size="10" lengthAdjust="spacing" textLength="127" x="634.5" y="373.6091">bo4e.enum.kundengruppe</text></g><!--class PreisblattNetznutzung--><g id="elem_PreisblattNetznutzung"><rect codeLine="3" fill="#F1F1F1" height="94.8281" id="PreisblattNetznutzung" rx="2.5" ry="2.5" style="stroke:#181818;stroke-width:0.5;" width="350" x="7" y="209.59"/><ellipse cx="100.75" cy="228.5588" fill="#ADD1B2" rx="11" ry="11" style="stroke:#181818;stroke-width:1.0;"/><path d="M103.7188,234.1994 Q103.1406,234.4963 102.5,234.6369 Q101.8594,234.7931 101.1563,234.7931 Q98.6563,234.7931 97.3281,233.1525 Q96.0156,231.4963 96.0156,228.3713 Q96.0156,225.2463 97.3281,223.59 Q98.6563,221.9338 101.1563,221.9338 Q101.8594,221.9338 102.5,222.09 Q103.1563,222.2463 103.7188,222.5431 L103.7188,225.2619 Q103.0938,224.6838 102.5,224.4181 Q101.9063,224.1369 101.2813,224.1369 Q99.9375,224.1369 99.25,225.215 Q98.5625,226.2775 98.5625,228.3713 Q98.5625,230.465 99.25,231.5431 Q99.9375,232.6056 101.2813,232.6056 Q101.9063,232.6056 102.5,232.34 Q103.0938,232.0588 103.7188,231.4806 L103.7188,234.1994 Z " fill="#000000"/><a href="https://bo4e.github.io/BO4E-python/latest/api/bo4e.bo.html#bo4e.bo.preisblattnetznutzung.PreisblattNetznutzung" target="_top" title="https://bo4e.github.io/BO4E-python/latest/api/bo4e.bo.html#bo4e.bo.preisblattnetznutzung.PreisblattNetznutzung" xlink:actuate="onRequest" xlink:href="https://bo4e.github.io/BO4E-python/latest/api/bo4e.bo.html#bo4e.bo.preisblattnetznutzung.PreisblattNetznutzung" xlink:show="new" xlink:title="https://bo4e.github.io/BO4E-python/latest/api/bo4e.bo.html#bo4e.bo.preisblattnetznutzung.PreisblattNetznutzung" xlink:type="simple"><text fill="#0000FF" font-family="sans-serif" font-size="14" lengthAdjust="spacing" text-decoration="underline" textLength="154" x="121.25" y="227.5851">PreisblattNetznutzung</text></a><text fill="#000000" font-family="sans-serif" font-size="10" lengthAdjust="spacing" textLength="147" x="124.75" y="240.1691">bo4e.bo.preisblattnetznutzung</text><line style="stroke:#181818;stroke-width:0.5;" x1="8" x2="356" y1="247.5275" y2="247.5275"/><text fill="#000000" font-family="sans-serif" font-size="14" lengthAdjust="spacing" textLength="338" x="13" y="264.5226">_version : str [0..1] = 202401.5.1.dev1+g6faf2fbf</text><text fill="#000000" font-family="sans-serif" font-size="14" lengthAdjust="spacing" textLength="311" x="13" y="280.8195">zusatzAttribute : ZusatzAttribut [0..*] = None</text><text fill="#000000" font-family="sans-serif" font-size="14" lengthAdjust="spacing" textLength="147" x="13" y="297.1164">_id : str [0..1] = None</text></g><!--link PreisblattNetznutzung to Preisblatt--><g id="link_PreisblattNetznutzung_Preisblatt"><path codeLine="18" d="M338.77,209.12 C435.86,179.27 538.0145,147.8789 607.9245,126.3889 " fill="none" id="PreisblattNetznutzung-to-Preisblatt" style="stroke:#181818;stroke-width:1.0;"/><polygon fill="none" points="625.13,121.1,606.1616,120.6537,609.6875,132.124,625.13,121.1" style="stroke:#181818;stroke-width:1.0;"/></g><!--link PreisblattNetznutzung to Bilanzierungsmethode--><g id="link_PreisblattNetznutzung_Bilanzierungsmethode"><path codeLine="19" d="M357.17,242.75 C434.01,236.46 509.4899,230.2775 574.5799,224.9575 " fill="none" id="PreisblattNetznutzung-to-Bilanzierungsmethode" style="stroke:#181818;stroke-width:1.0;"/><polygon fill="#181818" points="586.54,223.98,580.2341,220.4821,574.5799,224.9575,580.8858,228.4555,586.54,223.98" style="stroke:#181818;stroke-width:1.0;"/><text fill="#000000" font-family="sans-serif" font-size="13" lengthAdjust="spacing" textLength="142" x="388" y="226.0669">bilanzierungsmethode</text><text fill="#000000" font-family="sans-serif" font-size="13" lengthAdjust="spacing" textLength="24" x="555.1185" y="237.0915">0..1</text></g><!--link PreisblattNetznutzung to Netzebene--><g id="link_PreisblattNetznutzung_Netzebene"><path codeLine="20" d="M357.35,277.62 C367.38,278.5 377.31,279.31 387,280 C464.57,285.54 541.7711,287.5167 602.0111,288.3367 " fill="none" id="PreisblattNetznutzung-to-Netzebene" style="stroke:#181818;stroke-width:1.0;"/><polygon fill="#181818" points="614.01,288.5,608.065,284.4187,602.0111,288.3367,607.9561,292.418,614.01,288.5" style="stroke:#181818;stroke-width:1.0;"/><text fill="#000000" font-family="sans-serif" font-size="13" lengthAdjust="spacing" textLength="68" x="425" y="276.0669">netzebene</text><text fill="#000000" font-family="sans-serif" font-size="13" lengthAdjust="spacing" textLength="24" x="582.6187" y="301.1964">0..1</text></g><!--link PreisblattNetznutzung to Kundengruppe--><g id="link_PreisblattNetznutzung_Kundengruppe"><path codeLine="21" d="M356.06,304.89 C366.5,307.4 376.88,309.79 387,312 C460.43,328.04 533.1727,340.0506 593.2627,349.0606 " fill="none" id="PreisblattNetznutzung-to-Kundengruppe" style="stroke:#181818;stroke-width:1.0;"/><polygon fill="#181818" points="605.13,350.84,599.7895,345.9945,593.2627,349.0606,598.6032,353.9061,605.13,350.84" style="stroke:#181818;stroke-width:1.0;"/><text fill="#000000" font-family="sans-serif" font-size="13" lengthAdjust="spacing" textLength="92" x="413" y="308.0669">kundengruppe</text><text fill="#000000" font-family="sans-serif" font-size="13" lengthAdjust="spacing" textLength="24" x="573.522" y="362.6094">0..1</text></g><!--SRC=[jLHDRvj043rdVyN8lgNoObpdGwYD5AizLN9xZekgNJF0gh0WTaXLslptB2J6cmGIHKvk-uQPjpFlxP1XJ405L2f92I9LuPPKeHdRPi8Oc6msAL5f0i-JnH9veYYj9LU5j_g-_3eh_r9QQ2yJX8OyKQgxB5dmbF9ikWDbXSf8cqKQgT4rDRLE-8y-kjv7OJ0QXZ_r9wCQ3FpvnREi4n1cc0F-iQDVrrWPEnu4OAY2pPnpFuJFi9WlbdEVdt2VHtZjVqXEOn4lOXcpewOsWffBeah9cj1MNZs8T2J7BScwq6YlKD5Zzkx33MDQv6XAiSN3P8Lx48RTiFS8fglJBsUNv-sOx-ETOvYZy0lMFFB3od2e2gZhtD6XXQuIBOPfv6y_dXoiHN_LT0-boeHk55RsIPaSRLs4V3KGXA7WKxL6IRkHXZZUVgPsVr2YHhxUdQ0_ZRJSrtHzzjbltzplMaUeawekI-JV700k6EdIBUuQTMlQdHpv2yrc_ozsc-MaZANR_6EOjFi-sR_2uLSHm93PhoFUknH0xyFhA1u86O2h4sEfietcc4lxjsGcBVx027UiC8lCBG00]--></g></svg>