<?xml version="1.0" encoding="us-ascii" standalone="no"?><svg xmlns="http://www.w3.org/2000/svg" xmlns:xlink="http://www.w3.org/1999/xlink" contentStyleType="text/css" height="428px" preserveAspectRatio="none" style="width:872px;height:428px;background:#FFFFFF;" version="1.1" viewBox="0 0 872 428" width="872px" zoomAndPan="magnify"><defs/><g><!--cluster bo4e--><g id="cluster_bo4e"><path d="M591.5,6 L632.5,6 A3.75,3.75 0 0 1 635,8.5 L642,28.2969 L862.5,28.2969 A2.5,2.5 0 0 1 865,30.7969 L865,418.5 A2.5,2.5 0 0 1 862.5,421 L591.5,421 A2.5,2.5 0 0 1 589,418.5 L589,8.5 A2.5,2.5 0 0 1 591.5,6 " fill="none" style="stroke:#000000;stroke-width:1.5;"/><line style="stroke:#000000;stroke-width:1.5;" x1="589" x2="642" y1="28.2969" y2="28.2969"/><text fill="#000000" font-family="sans-serif" font-size="14" font-weight="bold" lengthAdjust="spacing" textLength="40" x="593" y="20.9951">bo4e</text></g><!--cluster bo--><g id="cluster_bo"><path d="M654,49 L720,49 A3.75,3.75 0 0 1 722.5,51.5 L729.5,71.2969 L800,71.2969 A2.5,2.5 0 0 1 802.5,73.7969 L802.5,208.5 A2.5,2.5 0 0 1 800,211 L654,211 A2.5,2.5 0 0 1 651.5,208.5 L651.5,51.5 A2.5,2.5 0 0 1 654,49 " fill="#B6D7A8" style="stroke:#000000;stroke-width:1.5;"/><line style="stroke:#000000;stroke-width:1.5;" x1="651.5" x2="729.5" y1="71.2969" y2="71.2969"/><a href="https://bo4e.github.io/BO4E-python/latest/api/bo4e.bo.html" target="_top" title="https://bo4e.github.io/BO4E-python/latest/api/bo4e.bo.html" xlink:actuate="onRequest" xlink:href="https://bo4e.github.io/BO4E-python/latest/api/bo4e.bo.html" xlink:show="new" xlink:title="https://bo4e.github.io/BO4E-python/latest/api/bo4e.bo.html" xlink:type="simple"><text fill="#0000FF" font-family="sans-serif" font-size="14" font-weight="bold" lengthAdjust="spacing" text-decoration="underline" textLength="65" x="655.5" y="63.9951">bo4e.bo</text></a></g><!--cluster enum--><g id="cluster_enum"><path d="M615.5,235 L705.5,235 A3.75,3.75 0 0 1 708,237.5 L715,257.2969 L838.5,257.2969 A2.5,2.5 0 0 1 841,259.7969 L841,394.5 A2.5,2.5 0 0 1 838.5,397 L615.5,397 A2.5,2.5 0 0 1 613,394.5 L613,237.5 A2.5,2.5 0 0 1 615.5,235 " fill="#D1C358" style="stroke:#000000;stroke-width:1.5;"/><line style="stroke:#000000;stroke-width:1.5;" x1="613" x2="715" y1="257.2969" y2="257.2969"/><a href="https://bo4e.github.io/BO4E-python/latest/api/bo4e.enum.html" target="_top" title="https://bo4e.github.io/BO4E-python/latest/api/bo4e.enum.html" xlink:actuate="onRequest" xlink:href="https://bo4e.github.io/BO4E-python/latest/api/bo4e.enum.html" xlink:show="new" xlink:title="https://bo4e.github.io/BO4E-python/latest/api/bo4e.enum.html" xlink:type="simple"><text fill="#0000FF" font-family="sans-serif" font-size="14" font-weight="bold" lengthAdjust="spacing" text-decoration="underline" textLength="89" x="617" y="249.9951">bo4e.enum</text></a></g><!--class Preisblatt--><g id="elem_Preisblatt"><rect codeLine="10" fill="#F1F1F1" height="37.9375" id="Preisblatt" rx="2.5" ry="2.5" style="stroke:#181818;stroke-width:0.5;" width="119" x="667.5" y="84.03"/><ellipse cx="682.5" cy="102.9987" fill="#ADD1B2" rx="11" ry="11" style="stroke:#181818;stroke-width:1.0;"/><path d="M685.4688,108.6394 Q684.8906,108.9362 684.25,109.0769 Q683.6094,109.2331 682.9063,109.2331 Q680.4063,109.2331 679.0781,107.5925 Q677.7656,105.9362 677.7656,102.8112 Q677.7656,99.6862 679.0781,98.03 Q680.4063,96.3737 682.9063,96.3737 Q683.6094,96.3737 684.25,96.53 Q684.9063,96.6862 685.4688,96.9831 L685.4688,99.7019 Q684.8438,99.1237 684.25,98.8581 Q683.6563,98.5769 683.0313,98.5769 Q681.6875,98.5769 681,99.655 Q680.3125,100.7175 680.3125,102.8112 Q680.3125,104.905 681,105.9831 Q681.6875,107.0456 683.0313,107.0456 Q683.6563,107.0456 684.25,106.78 Q684.8438,106.4987 685.4688,105.9206 L685.4688,108.6394 Z " fill="#000000"/><a href="https://bo4e.github.io/BO4E-python/latest/api/bo4e.bo.html#bo4e.bo.preisblatt.Preisblatt" target="_top" title="https://bo4e.github.io/BO4E-python/latest/api/bo4e.bo.html#bo4e.bo.preisblatt.Preisblatt" xlink:actuate="onRequest" xlink:href="https://bo4e.github.io/BO4E-python/latest/api/bo4e.bo.html#bo4e.bo.preisblatt.Preisblatt" xlink:show="new" xlink:title="https://bo4e.github.io/BO4E-python/latest/api/bo4e.bo.html#bo4e.bo.preisblatt.Preisblatt" xlink:type="simple"><text fill="#0000FF" font-family="sans-serif" font-size="14" lengthAdjust="spacing" text-decoration="underline" textLength="64" x="708" y="102.0251">Preisblatt</text></a><text fill="#000000" font-family="sans-serif" font-size="10" lengthAdjust="spacing" textLength="87" x="696.5" y="114.6091">bo4e.bo.preisblatt</text></g><!--class Geraet--><g id="elem_Geraet"><rect codeLine="11" fill="#F1F1F1" height="37.9375" id="Geraet" rx="2.5" ry="2.5" style="stroke:#181818;stroke-width:0.5;" width="106" x="674" y="157.03"/><ellipse cx="689" cy="175.9987" fill="#ADD1B2" rx="11" ry="11" style="stroke:#181818;stroke-width:1.0;"/><path d="M691.9688,181.6394 Q691.3906,181.9362 690.75,182.0769 Q690.1094,182.2331 689.4063,182.2331 Q686.9063,182.2331 685.5781,180.5925 Q684.2656,178.9362 684.2656,175.8112 Q684.2656,172.6862 685.5781,171.03 Q686.9063,169.3737 689.4063,169.3737 Q690.1094,169.3737 690.75,169.53 Q691.4063,169.6862 691.9688,169.9831 L691.9688,172.7019 Q691.3438,172.1237 690.75,171.8581 Q690.1563,171.5769 689.5313,171.5769 Q688.1875,171.5769 687.5,172.655 Q686.8125,173.7175 686.8125,175.8112 Q686.8125,177.905 687.5,178.9831 Q688.1875,180.0456 689.5313,180.0456 Q690.1563,180.0456 690.75,179.78 Q691.3438,179.4987 691.9688,178.9206 L691.9688,181.6394 Z " fill="#000000"/><a href="https://bo4e.github.io/BO4E-python/latest/api/bo4e.bo.html#bo4e.bo.geraet.Geraet" target="_top" title="https://bo4e.github.io/BO4E-python/latest/api/bo4e.bo.html#bo4e.bo.geraet.Geraet" xlink:actuate="onRequest" xlink:href="https://bo4e.github.io/BO4E-python/latest/api/bo4e.bo.html#bo4e.bo.geraet.Geraet" xlink:show="new" xlink:title="https://bo4e.github.io/BO4E-python/latest/api/bo4e.bo.html#bo4e.bo.geraet.Geraet" xlink:type="simple"><text fill="#0000FF" font-family="sans-serif" font-size="14" lengthAdjust="spacing" text-decoration="underline" textLength="47" x="716.5" y="175.0251">Geraet</text></a><text fill="#000000" font-family="sans-serif" font-size="10" lengthAdjust="spacing" textLength="74" x="703" y="187.6091">bo4e.bo.geraet</text></g><!--class Dienstleistungstyp--><g id="elem_Dienstleistungstyp"><rect codeLine="14" fill="#F1F1F1" height="37.9375" id="Dienstleistungstyp" rx="2.5" ry="2.5" style="stroke:#181818;stroke-width:0.5;" width="177" x="638.5" y="270.03"/><ellipse cx="653.5" cy="288.9988" fill="#ADD1B2" rx="11" ry="11" style="stroke:#181818;stroke-width:1.0;"/><path d="M656.4688,294.6394 Q655.8906,294.9363 655.25,295.0769 Q654.6094,295.2331 653.9063,295.2331 Q651.4063,295.2331 650.0781,293.5925 Q648.7656,291.9363 648.7656,288.8113 Q648.7656,285.6863 650.0781,284.03 Q651.4063,282.3738 653.9063,282.3738 Q654.6094,282.3738 655.25,282.53 Q655.9063,282.6863 656.4688,282.9831 L656.4688,285.7019 Q655.8438,285.1238 655.25,284.8581 Q654.6563,284.5769 654.0313,284.5769 Q652.6875,284.5769 652,285.655 Q651.3125,286.7175 651.3125,288.8113 Q651.3125,290.905 652,291.9831 Q652.6875,293.0456 654.0313,293.0456 Q654.6563,293.0456 655.25,292.78 Q655.8438,292.4988 656.4688,291.9206 L656.4688,294.6394 Z " fill="#000000"/><a href="https://bo4e.github.io/BO4E-python/latest/api/bo4e.enum.html#bo4e.enum.dienstleistungstyp.Dienstleistungstyp" target="_top" title="https://bo4e.github.io/BO4E-python/latest/api/bo4e.enum.html#bo4e.enum.dienstleistungstyp.Dienstleistungstyp" xlink:actuate="onRequest" xlink:href="https://bo4e.github.io/BO4E-python/latest/api/bo4e.enum.html#bo4e.enum.dienstleistungstyp.Dienstleistungstyp" xlink:show="new" xlink:title="https://bo4e.github.io/BO4E-python/latest/api/bo4e.enum.html#bo4e.enum.dienstleistungstyp.Dienstleistungstyp" xlink:type="simple"><text fill="#0000FF" font-family="sans-serif" font-size="14" lengthAdjust="spacing" text-decoration="underline" textLength="129" x="675.5" y="288.0251">Dienstleistungstyp</text></a><text fill="#000000" font-family="sans-serif" font-size="10" lengthAdjust="spacing" textLength="145" x="667.5" y="300.6091">bo4e.enum.dienstleistungstyp</text></g><!--class Bilanzierungsmethode--><g id="elem_Bilanzierungsmethode"><rect codeLine="15" fill="#F1F1F1" height="37.9375" id="Bilanzierungsmethode" rx="2.5" ry="2.5" style="stroke:#181818;stroke-width:0.5;" width="196" x="629" y="343.03"/><ellipse cx="644" cy="361.9988" fill="#ADD1B2" rx="11" ry="11" style="stroke:#181818;stroke-width:1.0;"/><path d="M646.9688,367.6394 Q646.3906,367.9363 645.75,368.0769 Q645.1094,368.2331 644.4063,368.2331 Q641.9063,368.2331 640.5781,366.5925 Q639.2656,364.9363 639.2656,361.8113 Q639.2656,358.6863 640.5781,357.03 Q641.9063,355.3738 644.4063,355.3738 Q645.1094,355.3738 645.75,355.53 Q646.4063,355.6863 646.9688,355.9831 L646.9688,358.7019 Q646.3438,358.1238 645.75,357.8581 Q645.1563,357.5769 644.5313,357.5769 Q643.1875,357.5769 642.5,358.655 Q641.8125,359.7175 641.8125,361.8113 Q641.8125,363.905 642.5,364.9831 Q643.1875,366.0456 644.5313,366.0456 Q645.1563,366.0456 645.75,365.78 Q646.3438,365.4988 646.9688,364.9206 L646.9688,367.6394 Z " fill="#000000"/><a href="https://bo4e.github.io/BO4E-python/latest/api/bo4e.enum.html#bo4e.enum.bilanzierungsmethode.Bilanzierungsmethode" target="_top" title="https://bo4e.github.io/BO4E-python/latest/api/bo4e.enum.html#bo4e.enum.bilanzierungsmethode.Bilanzierungsmethode" xlink:actuate="onRequest" xlink:href="https://bo4e.github.io/BO4E-python/latest/api/bo4e.enum.html#bo4e.enum.bilanzierungsmethode.Bilanzierungsmethode" xlink:show="new" xlink:title="https://bo4e.github.io/BO4E-python/latest/api/bo4e.enum.html#bo4e.enum.bilanzierungsmethode.Bilanzierungsmethode" xlink:type="simple"><text fill="#0000FF" font-family="sans-serif" font-size="14" lengthAdjust="spacing" text-decoration="underline" textLength="156" x="662" y="361.0251">Bilanzierungsmethode</text></a><text fill="#000000" font-family="sans-serif" font-size="10" lengthAdjust="spacing" textLength="164" x="658" y="373.6091">bo4e.enum.bilanzierungsmethode</text></g><!--class PreisblattDienstleistung--><g id="elem_PreisblattDienstleistung"><rect codeLine="3" fill="#F1F1F1" height="94.8281" id="PreisblattDienstleistung" rx="2.5" ry="2.5" style="stroke:#181818;stroke-width:0.5;" width="373" x="7" y="185.59"/><ellipse cx="107.25" cy="204.5588" fill="#ADD1B2" rx="11" ry="11" style="stroke:#181818;stroke-width:1.0;"/><path d="M110.2188,210.1994 Q109.6406,210.4963 109,210.6369 Q108.3594,210.7931 107.6563,210.7931 Q105.1563,210.7931 103.8281,209.1525 Q102.5156,207.4963 102.5156,204.3713 Q102.5156,201.2463 103.8281,199.59 Q105.1563,197.9338 107.6563,197.9338 Q108.3594,197.9338 109,198.09 Q109.6563,198.2463 110.2188,198.5431 L110.2188,201.2619 Q109.5938,200.6838 109,200.4181 Q108.4063,200.1369 107.7813,200.1369 Q106.4375,200.1369 105.75,201.215 Q105.0625,202.2775 105.0625,204.3713 Q105.0625,206.465 105.75,207.5431 Q106.4375,208.6056 107.7813,208.6056 Q108.4063,208.6056 109,208.34 Q109.5938,208.0588 110.2188,207.4806 L110.2188,210.1994 Z " fill="#000000"/><a href="https://bo4e.github.io/BO4E-python/latest/api/bo4e.bo.html#bo4e.bo.preisblattdienstleistung.PreisblattDienstleistung" target="_top" title="https://bo4e.github.io/BO4E-python/latest/api/bo4e.bo.html#bo4e.bo.preisblattdienstleistung.PreisblattDienstleistung" xlink:actuate="onRequest" xlink:href="https://bo4e.github.io/BO4E-python/latest/api/bo4e.bo.html#bo4e.bo.preisblattdienstleistung.PreisblattDienstleistung" xlink:show="new" xlink:title="https://bo4e.github.io/BO4E-python/latest/api/bo4e.bo.html#bo4e.bo.preisblattdienstleistung.PreisblattDienstleistung" xlink:type="simple"><text fill="#0000FF" font-family="sans-serif" font-size="14" lengthAdjust="spacing" text-decoration="underline" textLength="164" x="127.75" y="203.5851">PreisblattDienstleistung</text></a><text fill="#000000" font-family="sans-serif" font-size="10" lengthAdjust="spacing" textLength="153" x="133.25" y="216.1691">bo4e.bo.preisblattdienstleistung</text><line style="stroke:#181818;stroke-width:0.5;" x1="8" x2="379" y1="223.5275" y2="223.5275"/><text fill="#000000" font-family="sans-serif" font-size="14" lengthAdjust="spacing" textLength="361" x="13" y="240.5226">_version : str [0..1] = 202401.4.1.dev50+g7314aa9f</text><text fill="#000000" font-family="sans-serif" font-size="14" lengthAdjust="spacing" textLength="311" x="13" y="256.8195">zusatzAttribute : ZusatzAttribut [0..*] = None</text><text fill="#000000" font-family="sans-serif" font-size="14" lengthAdjust="spacing" textLength="147" x="13" y="273.1164">_id : str [0..1] = None</text></g><!--link PreisblattDienstleistung to Preisblatt--><g id="link_PreisblattDienstleistung_Preisblatt"><path codeLine="18" d="M347.07,185.13 C368.13,179.06 389.54,173.18 410,168 C498.91,145.5 585.6668,128.4451 649.4068,116.7251 " fill="none" id="PreisblattDienstleistung-to-Preisblatt" style="stroke:#181818;stroke-width:1.0;"/><polygon fill="none" points="667.11,113.47,648.3217,110.8241,650.4918,122.6262,667.11,113.47" style="stroke:#181818;stroke-width:1.0;"/></g><!--link PreisblattDienstleistung to Bilanzierungsmethode--><g id="link_PreisblattDienstleistung_Bilanzierungsmethode"><path codeLine="19" d="M286.1,280.85 C323.57,298.42 367.93,316.76 410,328 C481.83,347.2 553.6099,354.9186 616.8499,358.5686 " fill="none" id="PreisblattDienstleistung-to-Bilanzierungsmethode" style="stroke:#181818;stroke-width:1.0;"/><polygon fill="#181818" points="628.83,359.26,623.0705,354.9209,616.8499,358.5686,622.6095,362.9076,628.83,359.26" style="stroke:#181818;stroke-width:1.0;"/><text fill="#000000" font-family="sans-serif" font-size="13" lengthAdjust="spacing" textLength="142" x="420.5" y="324.0669">bilanzierungsmethode</text><text fill="#000000" font-family="sans-serif" font-size="13" lengthAdjust="spacing" textLength="24" x="597.0837" y="371.6663">0..1</text></g><!--link PreisblattDienstleistung to Dienstleistungstyp--><g id="link_PreisblattDienstleistung_Dienstleistungstyp"><path codeLine="20" d="M380.31,251.85 C441.67,258.15 510.27,265.28 573,272 C594.13,274.26 604.9633,275.4354 626.3033,277.8054 " fill="none" id="PreisblattDienstleistung-to-Dienstleistungstyp" style="stroke:#181818;stroke-width:1.0;"/><polygon fill="#181818" points="638.23,279.13,632.7082,274.4922,626.3033,277.8054,631.8251,282.4433,638.23,279.13" style="stroke:#181818;stroke-width:1.0;"/><text fill="#000000" font-family="sans-serif" font-size="13" lengthAdjust="spacing" textLength="122" x="430.5" y="252.0669">basisdienstleistung</text><text fill="#000000" font-family="sans-serif" font-size="13" lengthAdjust="spacing" textLength="24" x="606.5148" y="291.0206">0..1</text></g><!--link PreisblattDienstleistung to Dienstleistungstyp--><g id="link_PreisblattDienstleistung_Dienstleistungstyp"><path codeLine="21" d="M334.32,280.86 C359.25,287.57 385.19,293.39 410,297 C481.69,307.42 500.58,298.89 573,297 C594.14,296.45 604.9156,296.0818 626.2656,294.9918 " fill="none" id="PreisblattDienstleistung-to-Dienstleistungstyp-1" style="stroke:#181818;stroke-width:1.0;"/><polygon fill="#181818" points="638.25,294.38,632.0539,290.6911,626.2656,294.9918,632.4618,298.6807,638.25,294.38" style="stroke:#181818;stroke-width:1.0;"/><text fill="#000000" font-family="sans-serif" font-size="13" lengthAdjust="spacing" textLength="161" x="411" y="293.0669">inklusiveDienstleistungen</text><text fill="#000000" font-family="sans-serif" font-size="13" lengthAdjust="spacing" textLength="23" x="607.5746" y="307.4382">0..*</text></g><!--link PreisblattDienstleistung to Geraet--><g id="link_PreisblattDienstleistung_Geraet"><path codeLine="22" d="M380.39,213.06 C484.12,201.94 593.8084,190.1796 661.5984,182.9096 " fill="none" id="PreisblattDienstleistung-to-Geraet" style="stroke:#181818;stroke-width:1.0;"/><polygon fill="#181818" points="673.53,181.63,667.1377,178.2926,661.5984,182.9096,667.9907,186.247,673.53,181.63" style="stroke:#181818;stroke-width:1.0;"/><text fill="#000000" font-family="sans-serif" font-size="13" lengthAdjust="spacing" textLength="92" x="445.5" y="189.0669">geraetedetails</text><text fill="#000000" font-family="sans-serif" font-size="13" lengthAdjust="spacing" textLength="24" x="641.96" y="195.2229">0..1</text></g><!--SRC=[jLHDRvj043s7Np6oRwwyG4AQ5hMHOhdghUsvBgeMCuPHOK7iu2fk-z-pW9D037KZfwVLVBsTDszdKzmmS0ubnGb3H2MkcN9bMUjKQWsJrIfXBhHlss7keOY9aoeKbDkBpzw7UN7BIQxiL39gjcL1RLQOYuIpT7fl52MI3aqMHuHASsfChbGilZm4bhq0Z0M2u9jwfsc7lkjS7uEVWDIZIF3BElk-nL8Rjk23vX9MZX1k0E_Xt3dt75TumXKHRY-TL_7LXUj9-NPZdUqgBNbtmrnIM36QqgyzJuCogr4-vGhD7HGzXMy2VonBoGnr8TTusfXXRmH1GtXlmNJnUdbrywRc-N-qxAZNcV8HXPveyhAznLXAPF6nEQ0z1ljf4vjUsYmZnwbgeAgoZXwrsLMajc4QkUkBovCrURXg-cZsdxxcsq8i3rnmw3gSpmXSG-Mm_kMPX9HAjICiwnioD7KHYiM04uQS8to6G1j6GnZrSex_JVFvx-lxBUja_QN2bCnWKg__vF4n35FoOQZJPsCFI6-GfIRT5_PVW6T7WKdzI2jDM-n7KJsdRpFC_UBwqEudHiYIKcrP2PdHP9Y5vh-sT9B_X77W3M4QwJi0]--></g></svg>