<?xml version="1.0" encoding="us-ascii" standalone="no"?><svg xmlns="http://www.w3.org/2000/svg" xmlns:xlink="http://www.w3.org/1999/xlink" contentStyleType="text/css" height="501px" preserveAspectRatio="none" style="width:856px;height:501px;background:#FFFFFF;" version="1.1" viewBox="0 0 856 501" width="856px" zoomAndPan="magnify"><defs/><g><!--cluster bo4e--><g id="cluster_bo4e"><path d="M575.5,6 L616.5,6 A3.75,3.75 0 0 1 619,8.5 L626,28.2969 L846.5,28.2969 A2.5,2.5 0 0 1 849,30.7969 L849,491.5 A2.5,2.5 0 0 1 846.5,494 L575.5,494 A2.5,2.5 0 0 1 573,491.5 L573,8.5 A2.5,2.5 0 0 1 575.5,6 " fill="none" style="stroke:#000000;stroke-width:1.5;"/><line style="stroke:#000000;stroke-width:1.5;" x1="573" x2="626" y1="28.2969" y2="28.2969"/><text fill="#000000" font-family="sans-serif" font-size="14" font-weight="bold" lengthAdjust="spacing" textLength="40" x="577" y="20.9951">bo4e</text></g><!--cluster bo--><g id="cluster_bo"><path d="M638,49 L704,49 A3.75,3.75 0 0 1 706.5,51.5 L713.5,71.2969 L784,71.2969 A2.5,2.5 0 0 1 786.5,73.7969 L786.5,208.5 A2.5,2.5 0 0 1 784,211 L638,211 A2.5,2.5 0 0 1 635.5,208.5 L635.5,51.5 A2.5,2.5 0 0 1 638,49 " fill="#B6D7A8" style="stroke:#000000;stroke-width:1.5;"/><line style="stroke:#000000;stroke-width:1.5;" x1="635.5" x2="713.5" y1="71.2969" y2="71.2969"/><a href="https://bo4e.github.io/BO4E-python/latest/api/bo4e.bo.html" target="_top" title="https://bo4e.github.io/BO4E-python/latest/api/bo4e.bo.html" xlink:actuate="onRequest" xlink:href="https://bo4e.github.io/BO4E-python/latest/api/bo4e.bo.html" xlink:show="new" xlink:title="https://bo4e.github.io/BO4E-python/latest/api/bo4e.bo.html" xlink:type="simple"><text fill="#0000FF" font-family="sans-serif" font-size="14" font-weight="bold" lengthAdjust="spacing" text-decoration="underline" textLength="65" x="639.5" y="63.9951">bo4e.bo</text></a></g><!--cluster enum--><g id="cluster_enum"><path d="M599.5,235 L689.5,235 A3.75,3.75 0 0 1 692,237.5 L699,257.2969 L822.5,257.2969 A2.5,2.5 0 0 1 825,259.7969 L825,467.5 A2.5,2.5 0 0 1 822.5,470 L599.5,470 A2.5,2.5 0 0 1 597,467.5 L597,237.5 A2.5,2.5 0 0 1 599.5,235 " fill="#D1C358" style="stroke:#000000;stroke-width:1.5;"/><line style="stroke:#000000;stroke-width:1.5;" x1="597" x2="699" y1="257.2969" y2="257.2969"/><a href="https://bo4e.github.io/BO4E-python/latest/api/bo4e.enum.html" target="_top" title="https://bo4e.github.io/BO4E-python/latest/api/bo4e.enum.html" xlink:actuate="onRequest" xlink:href="https://bo4e.github.io/BO4E-python/latest/api/bo4e.enum.html" xlink:show="new" xlink:title="https://bo4e.github.io/BO4E-python/latest/api/bo4e.enum.html" xlink:type="simple"><text fill="#0000FF" font-family="sans-serif" font-size="14" font-weight="bold" lengthAdjust="spacing" text-decoration="underline" textLength="89" x="601" y="249.9951">bo4e.enum</text></a></g><!--class Preisblatt--><g id="elem_Preisblatt"><rect codeLine="10" fill="#F1F1F1" height="37.9375" id="Preisblatt" rx="2.5" ry="2.5" style="stroke:#181818;stroke-width:0.5;" width="119" x="651.5" y="84.03"/><ellipse cx="666.5" cy="102.9987" fill="#ADD1B2" rx="11" ry="11" style="stroke:#181818;stroke-width:1.0;"/><path d="M669.4688,108.6394 Q668.8906,108.9362 668.25,109.0769 Q667.6094,109.2331 666.9063,109.2331 Q664.4063,109.2331 663.0781,107.5925 Q661.7656,105.9362 661.7656,102.8112 Q661.7656,99.6862 663.0781,98.03 Q664.4063,96.3737 666.9063,96.3737 Q667.6094,96.3737 668.25,96.53 Q668.9063,96.6862 669.4688,96.9831 L669.4688,99.7019 Q668.8438,99.1237 668.25,98.8581 Q667.6563,98.5769 667.0313,98.5769 Q665.6875,98.5769 665,99.655 Q664.3125,100.7175 664.3125,102.8112 Q664.3125,104.905 665,105.9831 Q665.6875,107.0456 667.0313,107.0456 Q667.6563,107.0456 668.25,106.78 Q668.8438,106.4987 669.4688,105.9206 L669.4688,108.6394 Z " fill="#000000"/><a href="https://bo4e.github.io/BO4E-python/latest/api/bo4e.bo.html#bo4e.bo.preisblatt.Preisblatt" target="_top" title="https://bo4e.github.io/BO4E-python/latest/api/bo4e.bo.html#bo4e.bo.preisblatt.Preisblatt" xlink:actuate="onRequest" xlink:href="https://bo4e.github.io/BO4E-python/latest/api/bo4e.bo.html#bo4e.bo.preisblatt.Preisblatt" xlink:show="new" xlink:title="https://bo4e.github.io/BO4E-python/latest/api/bo4e.bo.html#bo4e.bo.preisblatt.Preisblatt" xlink:type="simple"><text fill="#0000FF" font-family="sans-serif" font-size="14" lengthAdjust="spacing" text-decoration="underline" textLength="64" x="692" y="102.0251">Preisblatt</text></a><text fill="#000000" font-family="sans-serif" font-size="10" lengthAdjust="spacing" textLength="87" x="680.5" y="114.6091">bo4e.bo.preisblatt</text></g><!--class Geraet--><g id="elem_Geraet"><rect codeLine="11" fill="#F1F1F1" height="37.9375" id="Geraet" rx="2.5" ry="2.5" style="stroke:#181818;stroke-width:0.5;" width="106" x="658" y="157.03"/><ellipse cx="673" cy="175.9987" fill="#ADD1B2" rx="11" ry="11" style="stroke:#181818;stroke-width:1.0;"/><path d="M675.9688,181.6394 Q675.3906,181.9362 674.75,182.0769 Q674.1094,182.2331 673.4063,182.2331 Q670.9063,182.2331 669.5781,180.5925 Q668.2656,178.9362 668.2656,175.8112 Q668.2656,172.6862 669.5781,171.03 Q670.9063,169.3737 673.4063,169.3737 Q674.1094,169.3737 674.75,169.53 Q675.4063,169.6862 675.9688,169.9831 L675.9688,172.7019 Q675.3438,172.1237 674.75,171.8581 Q674.1563,171.5769 673.5313,171.5769 Q672.1875,171.5769 671.5,172.655 Q670.8125,173.7175 670.8125,175.8112 Q670.8125,177.905 671.5,178.9831 Q672.1875,180.0456 673.5313,180.0456 Q674.1563,180.0456 674.75,179.78 Q675.3438,179.4987 675.9688,178.9206 L675.9688,181.6394 Z " fill="#000000"/><a href="https://bo4e.github.io/BO4E-python/latest/api/bo4e.bo.html#bo4e.bo.geraet.Geraet" target="_top" title="https://bo4e.github.io/BO4E-python/latest/api/bo4e.bo.html#bo4e.bo.geraet.Geraet" xlink:actuate="onRequest" xlink:href="https://bo4e.github.io/BO4E-python/latest/api/bo4e.bo.html#bo4e.bo.geraet.Geraet" xlink:show="new" xlink:title="https://bo4e.github.io/BO4E-python/latest/api/bo4e.bo.html#bo4e.bo.geraet.Geraet" xlink:type="simple"><text fill="#0000FF" font-family="sans-serif" font-size="14" lengthAdjust="spacing" text-decoration="underline" textLength="47" x="700.5" y="175.0251">Geraet</text></a><text fill="#000000" font-family="sans-serif" font-size="10" lengthAdjust="spacing" textLength="74" x="687" y="187.6091">bo4e.bo.geraet</text></g><!--class Bilanzierungsmethode--><g id="elem_Bilanzierungsmethode"><rect codeLine="14" fill="#F1F1F1" height="37.9375" id="Bilanzierungsmethode" rx="2.5" ry="2.5" style="stroke:#181818;stroke-width:0.5;" width="196" x="613" y="270.03"/><ellipse cx="628" cy="288.9988" fill="#ADD1B2" rx="11" ry="11" style="stroke:#181818;stroke-width:1.0;"/><path d="M630.9688,294.6394 Q630.3906,294.9363 629.75,295.0769 Q629.1094,295.2331 628.4063,295.2331 Q625.9063,295.2331 624.5781,293.5925 Q623.2656,291.9363 623.2656,288.8113 Q623.2656,285.6863 624.5781,284.03 Q625.9063,282.3738 628.4063,282.3738 Q629.1094,282.3738 629.75,282.53 Q630.4063,282.6863 630.9688,282.9831 L630.9688,285.7019 Q630.3438,285.1238 629.75,284.8581 Q629.1563,284.5769 628.5313,284.5769 Q627.1875,284.5769 626.5,285.655 Q625.8125,286.7175 625.8125,288.8113 Q625.8125,290.905 626.5,291.9831 Q627.1875,293.0456 628.5313,293.0456 Q629.1563,293.0456 629.75,292.78 Q630.3438,292.4988 630.9688,291.9206 L630.9688,294.6394 Z " fill="#000000"/><a href="https://bo4e.github.io/BO4E-python/latest/api/bo4e.enum.html#bo4e.enum.bilanzierungsmethode.Bilanzierungsmethode" target="_top" title="https://bo4e.github.io/BO4E-python/latest/api/bo4e.enum.html#bo4e.enum.bilanzierungsmethode.Bilanzierungsmethode" xlink:actuate="onRequest" xlink:href="https://bo4e.github.io/BO4E-python/latest/api/bo4e.enum.html#bo4e.enum.bilanzierungsmethode.Bilanzierungsmethode" xlink:show="new" xlink:title="https://bo4e.github.io/BO4E-python/latest/api/bo4e.enum.html#bo4e.enum.bilanzierungsmethode.Bilanzierungsmethode" xlink:type="simple"><text fill="#0000FF" font-family="sans-serif" font-size="14" lengthAdjust="spacing" text-decoration="underline" textLength="156" x="646" y="288.0251">Bilanzierungsmethode</text></a><text fill="#000000" font-family="sans-serif" font-size="10" lengthAdjust="spacing" textLength="164" x="642" y="300.6091">bo4e.enum.bilanzierungsmethode</text></g><!--class Typ--><g id="elem_Typ"><rect codeLine="15" fill="#F1F1F1" height="37.9375" id="Typ" rx="2.5" ry="2.5" style="stroke:#181818;stroke-width:0.5;" width="106" x="658" y="343.03"/><ellipse cx="673" cy="361.9988" fill="#ADD1B2" rx="11" ry="11" style="stroke:#181818;stroke-width:1.0;"/><path d="M675.9688,367.6394 Q675.3906,367.9363 674.75,368.0769 Q674.1094,368.2331 673.4063,368.2331 Q670.9063,368.2331 669.5781,366.5925 Q668.2656,364.9363 668.2656,361.8113 Q668.2656,358.6863 669.5781,357.03 Q670.9063,355.3738 673.4063,355.3738 Q674.1094,355.3738 674.75,355.53 Q675.4063,355.6863 675.9688,355.9831 L675.9688,358.7019 Q675.3438,358.1238 674.75,357.8581 Q674.1563,357.5769 673.5313,357.5769 Q672.1875,357.5769 671.5,358.655 Q670.8125,359.7175 670.8125,361.8113 Q670.8125,363.905 671.5,364.9831 Q672.1875,366.0456 673.5313,366.0456 Q674.1563,366.0456 674.75,365.78 Q675.3438,365.4988 675.9688,364.9206 L675.9688,367.6394 Z " fill="#000000"/><a href="https://bo4e.github.io/BO4E-python/latest/api/bo4e.enum.html#bo4e.enum.typ.Typ" target="_top" title="https://bo4e.github.io/BO4E-python/latest/api/bo4e.enum.html#bo4e.enum.typ.Typ" xlink:actuate="onRequest" xlink:href="https://bo4e.github.io/BO4E-python/latest/api/bo4e.enum.html#bo4e.enum.typ.Typ" xlink:show="new" xlink:title="https://bo4e.github.io/BO4E-python/latest/api/bo4e.enum.html#bo4e.enum.typ.Typ" xlink:type="simple"><text fill="#0000FF" font-family="sans-serif" font-size="14" lengthAdjust="spacing" text-decoration="underline" textLength="25" x="711.5" y="361.0251">Typ</text></a><text fill="#000000" font-family="sans-serif" font-size="10" lengthAdjust="spacing" textLength="74" x="687" y="373.6091">bo4e.enum.typ</text></g><!--class Dienstleistungstyp--><g id="elem_Dienstleistungstyp"><rect codeLine="16" fill="#F1F1F1" height="37.9375" id="Dienstleistungstyp" rx="2.5" ry="2.5" style="stroke:#181818;stroke-width:0.5;" width="177" x="622.5" y="416.03"/><ellipse cx="637.5" cy="434.9988" fill="#ADD1B2" rx="11" ry="11" style="stroke:#181818;stroke-width:1.0;"/><path d="M640.4688,440.6394 Q639.8906,440.9363 639.25,441.0769 Q638.6094,441.2331 637.9063,441.2331 Q635.4063,441.2331 634.0781,439.5925 Q632.7656,437.9363 632.7656,434.8113 Q632.7656,431.6863 634.0781,430.03 Q635.4063,428.3738 637.9063,428.3738 Q638.6094,428.3738 639.25,428.53 Q639.9063,428.6863 640.4688,428.9831 L640.4688,431.7019 Q639.8438,431.1238 639.25,430.8581 Q638.6563,430.5769 638.0313,430.5769 Q636.6875,430.5769 636,431.655 Q635.3125,432.7175 635.3125,434.8113 Q635.3125,436.905 636,437.9831 Q636.6875,439.0456 638.0313,439.0456 Q638.6563,439.0456 639.25,438.78 Q639.8438,438.4988 640.4688,437.9206 L640.4688,440.6394 Z " fill="#000000"/><a href="https://bo4e.github.io/BO4E-python/latest/api/bo4e.enum.html#bo4e.enum.dienstleistungstyp.Dienstleistungstyp" target="_top" title="https://bo4e.github.io/BO4E-python/latest/api/bo4e.enum.html#bo4e.enum.dienstleistungstyp.Dienstleistungstyp" xlink:actuate="onRequest" xlink:href="https://bo4e.github.io/BO4E-python/latest/api/bo4e.enum.html#bo4e.enum.dienstleistungstyp.Dienstleistungstyp" xlink:show="new" xlink:title="https://bo4e.github.io/BO4E-python/latest/api/bo4e.enum.html#bo4e.enum.dienstleistungstyp.Dienstleistungstyp" xlink:type="simple"><text fill="#0000FF" font-family="sans-serif" font-size="14" lengthAdjust="spacing" text-decoration="underline" textLength="129" x="659.5" y="434.0251">Dienstleistungstyp</text></a><text fill="#000000" font-family="sans-serif" font-size="10" lengthAdjust="spacing" textLength="145" x="651.5" y="446.6091">bo4e.enum.dienstleistungstyp</text></g><!--class PreisblattDienstleistung--><g id="elem_PreisblattDienstleistung"><rect codeLine="3" fill="#F1F1F1" height="94.8281" id="PreisblattDienstleistung" rx="2.5" ry="2.5" style="stroke:#181818;stroke-width:0.5;" width="357" x="7" y="258.59"/><ellipse cx="99.25" cy="277.5588" fill="#ADD1B2" rx="11" ry="11" style="stroke:#181818;stroke-width:1.0;"/><path d="M102.2188,283.1994 Q101.6406,283.4963 101,283.6369 Q100.3594,283.7931 99.6563,283.7931 Q97.1563,283.7931 95.8281,282.1525 Q94.5156,280.4963 94.5156,277.3713 Q94.5156,274.2463 95.8281,272.59 Q97.1563,270.9338 99.6563,270.9338 Q100.3594,270.9338 101,271.09 Q101.6563,271.2463 102.2188,271.5431 L102.2188,274.2619 Q101.5938,273.6838 101,273.4181 Q100.4063,273.1369 99.7813,273.1369 Q98.4375,273.1369 97.75,274.215 Q97.0625,275.2775 97.0625,277.3713 Q97.0625,279.465 97.75,280.5431 Q98.4375,281.6056 99.7813,281.6056 Q100.4063,281.6056 101,281.34 Q101.5938,281.0588 102.2188,280.4806 L102.2188,283.1994 Z " fill="#000000"/><a href="https://bo4e.github.io/BO4E-python/latest/api/bo4e.bo.html#bo4e.bo.preisblattdienstleistung.PreisblattDienstleistung" target="_top" title="https://bo4e.github.io/BO4E-python/latest/api/bo4e.bo.html#bo4e.bo.preisblattdienstleistung.PreisblattDienstleistung" xlink:actuate="onRequest" xlink:href="https://bo4e.github.io/BO4E-python/latest/api/bo4e.bo.html#bo4e.bo.preisblattdienstleistung.PreisblattDienstleistung" xlink:show="new" xlink:title="https://bo4e.github.io/BO4E-python/latest/api/bo4e.bo.html#bo4e.bo.preisblattdienstleistung.PreisblattDienstleistung" xlink:type="simple"><text fill="#0000FF" font-family="sans-serif" font-size="14" lengthAdjust="spacing" text-decoration="underline" textLength="164" x="119.75" y="276.5851">PreisblattDienstleistung</text></a><text fill="#000000" font-family="sans-serif" font-size="10" lengthAdjust="spacing" textLength="153" x="125.25" y="289.1691">bo4e.bo.preisblattdienstleistung</text><line style="stroke:#181818;stroke-width:0.5;" x1="8" x2="363" y1="296.5275" y2="296.5275"/><text fill="#000000" font-family="sans-serif" font-size="14" lengthAdjust="spacing" textLength="345" x="13" y="313.5226">_version : str [0..1] = 202401.2.2.dev9+g97f0633</text><text fill="#000000" font-family="sans-serif" font-size="14" lengthAdjust="spacing" textLength="311" x="13" y="329.8195">zusatzAttribute : ZusatzAttribut [0..*] = None</text><text fill="#000000" font-family="sans-serif" font-size="14" lengthAdjust="spacing" textLength="147" x="13" y="346.1164">_id : str [0..1] = None</text></g><!--link PreisblattDienstleistung to Preisblatt--><g id="link_PreisblattDienstleistung_Preisblatt"><path codeLine="19" d="M262.26,258.21 C300.69,235.4 348.71,208.99 394,190 C467.02,159.38 488.63,160.9 565,140 C593.32,132.25 607.4341,128.5221 633.8641,121.8721 " fill="none" id="PreisblattDienstleistung-to-Preisblatt" style="stroke:#181818;stroke-width:1.0;"/><polygon fill="none" points="651.32,117.48,632.4,116.0534,635.3281,127.6907,651.32,117.48" style="stroke:#181818;stroke-width:1.0;"/></g><!--link PreisblattDienstleistung to Typ--><g id="link_PreisblattDienstleistung_Typ"><path codeLine="20" d="M364.46,325.04 C467.32,336.04 577.5381,347.8335 645.5881,355.1135 " fill="none" id="PreisblattDienstleistung-to-Typ" style="stroke:#181818;stroke-width:1.0;"/><polygon fill="#181818" points="657.52,356.39,651.9795,351.7745,645.5881,355.1135,651.1285,359.7291,657.52,356.39" style="stroke:#181818;stroke-width:1.0;"/><text fill="#000000" font-family="sans-serif" font-size="13" lengthAdjust="spacing" textLength="27" x="462" y="325.0669">_typ</text><text fill="#000000" font-family="sans-serif" font-size="13" lengthAdjust="spacing" textLength="24" x="625.9489" y="368.6832">0..1</text></g><!--link PreisblattDienstleistung to Bilanzierungsmethode--><g id="link_PreisblattDienstleistung_Bilanzierungsmethode"><path codeLine="21" d="M364.46,300.22 C447.46,297.53 531.0263,294.8097 600.5863,292.5497 " fill="none" id="PreisblattDienstleistung-to-Bilanzierungsmethode" style="stroke:#181818;stroke-width:1.0;"/><polygon fill="#181818" points="612.58,292.16,606.4533,288.3569,600.5863,292.5497,606.7131,296.3527,612.58,292.16" style="stroke:#181818;stroke-width:1.0;"/><text fill="#000000" font-family="sans-serif" font-size="13" lengthAdjust="spacing" textLength="142" x="404.5" y="291.0669">bilanzierungsmethode</text><text fill="#000000" font-family="sans-serif" font-size="13" lengthAdjust="spacing" textLength="24" x="581.1612" y="304.9477">0..1</text></g><!--link PreisblattDienstleistung to Dienstleistungstyp--><g id="link_PreisblattDienstleistung_Dienstleistungstyp"><path codeLine="22" d="M332.76,353.89 C353.23,359.99 374.07,365.88 394,371 C470.44,390.66 546.737,405.9046 610.457,417.5946 " fill="none" id="PreisblattDienstleistung-to-Dienstleistungstyp" style="stroke:#181818;stroke-width:1.0;"/><polygon fill="#181818" points="622.26,419.76,617.0803,414.743,610.457,417.5946,615.6367,422.6117,622.26,419.76" style="stroke:#181818;stroke-width:1.0;"/><text fill="#000000" font-family="sans-serif" font-size="13" lengthAdjust="spacing" textLength="122" x="414.5" y="367.0669">basisdienstleistung</text><text fill="#000000" font-family="sans-serif" font-size="13" lengthAdjust="spacing" textLength="24" x="590.5471" y="431.2395">0..1</text></g><!--link PreisblattDienstleistung to Dienstleistungstyp--><g id="link_PreisblattDienstleistung_Dienstleistungstyp"><path codeLine="23" d="M246.47,353.91 C285.89,382.29 340,415.62 394,431 C468.8,452.3 545.6888,452.204 610.0888,447.014 " fill="none" id="PreisblattDienstleistung-to-Dienstleistungstyp-1" style="stroke:#181818;stroke-width:1.0;"/><polygon fill="#181818" points="622.05,446.05,615.7481,442.5449,610.0888,447.014,616.3907,450.5191,622.05,446.05" style="stroke:#181818;stroke-width:1.0;"/><text fill="#000000" font-family="sans-serif" font-size="13" lengthAdjust="spacing" textLength="161" x="395" y="427.0669">inklusiveDienstleistungen</text><text fill="#000000" font-family="sans-serif" font-size="13" lengthAdjust="spacing" textLength="23" x="591.3593" y="459.5423">0..*</text></g><!--link PreisblattDienstleistung to Geraet--><g id="link_PreisblattDienstleistung_Geraet"><path codeLine="24" d="M364.46,261.81 C467.32,236.26 577.8238,208.8223 645.8738,191.9223 " fill="none" id="PreisblattDienstleistung-to-Geraet" style="stroke:#181818;stroke-width:1.0;"/><polygon fill="#181818" points="657.52,189.03,650.7328,186.5941,645.8738,191.9223,652.661,194.3582,657.52,189.03" style="stroke:#181818;stroke-width:1.0;"/><text fill="#000000" font-family="sans-serif" font-size="13" lengthAdjust="spacing" textLength="92" x="429.5" y="211.0669">geraetedetails</text><text fill="#000000" font-family="sans-serif" font-size="13" lengthAdjust="spacing" textLength="24" x="625.9489" y="203.4785">0..1</text></g><!--SRC=[jLLDRvj043s7Np6oRwuC-AD9Wzf8iLprrlRGKrqKBMOCgyA2cC6LtVQ_Tm4dWG1rBRj22CtNspVprkC8DmoSG2Q3aC6N6QvP9iemrf4WWi5g5JAdv5YMbypH32I7kMVAn5fychyVfpiE4sL5Wf7O4gciihp433cEXez6cg4aJsUnBr4HHzhaN0NcvwV0iX60le3hVbDlIUxHcTXtn-078AWN2NuQLmzRp4Xt2muGPx2oJNFYmZkOsjEvFJ6d-l5nU_igkBtPsDUpcN6rpqdm_fuvarxEg0k_DZmbngZ0-9Wer2T8_oLu6VXj64h4IAbOutb3XeFXkcMx1mk6Y-lbpVsReil_esHDkzgCZ-ZpGf7BSWim4yZcX_83rQUJJvLOSgcoj1pdge4gZsjw56PTaSA6eJzPprwVhSdJKSDdqvEHK7k9cRxP5AEkyz5ST3YXozcUKYzesL8NnkLxubrgVjcbeDyUWZgZvACpBdzySvTGmMRPSa7RrSEr3LTIRzSNkw5_COx7l-uUV-IrhBzKw98H38hjCtY-Y-LW7NWepZkrjFDQET1rMqx6xfYmHXOagJc_Vm4U7GMMwdkKaznYCuhg5DvQXyFASQ3QBEWZ2ncHOOHIZoR6sDF_CmQ5oG_e1zv8Z7pw0m00]--></g></svg>