<svg xmlns="http://www.w3.org/2000/svg" xmlns:xlink="http://www.w3.org/1999/xlink" contentStyleType="text/css" data-diagram-type="CLASS" height="501px" preserveAspectRatio="none" style="width:858px;height:501px;background:#FFFFFF;" version="1.1" viewBox="0 0 858 501" width="858px" zoomAndPan="magnify"><defs/><g><!--cluster bo4e--><g class="cluster" data-entity="bo4e" data-source-line="10" data-uid="ent0005" id="cluster_bo4e"><path d="M570.26,6 L610.136,6 A3.75,3.75 0 0 1 612.636,8.5 L619.636,28.2969 L848.84,28.2969 A2.5,2.5 0 0 1 851.34,30.7969 L851.34,491.5 A2.5,2.5 0 0 1 848.84,494 L570.26,494 A2.5,2.5 0 0 1 567.76,491.5 L567.76,8.5 A2.5,2.5 0 0 1 570.26,6" fill="none" style="stroke:#000000;stroke-width:1.5;"/><line style="stroke:#000000;stroke-width:1.5;" x1="567.76" x2="619.636" y1="28.2969" y2="28.2969"/><text fill="#000000" font-family="sans-serif" font-size="14" font-weight="bold" lengthAdjust="spacing" textLength="38.876" x="571.76" y="20.9951">bo4e</text></g><!--cluster bo--><g class="cluster" data-entity="bo" data-source-line="9" data-uid="ent0003" id="cluster_bo"><path d="M634.3,49 L699.134,49 A3.75,3.75 0 0 1 701.634,51.5 L708.634,71.2969 L784.8,71.2969 A2.5,2.5 0 0 1 787.3,73.7969 L787.3,208.5 A2.5,2.5 0 0 1 784.8,211 L634.3,211 A2.5,2.5 0 0 1 631.8,208.5 L631.8,51.5 A2.5,2.5 0 0 1 634.3,49" fill="#B6D7A8" style="stroke:#000000;stroke-width:1.5;"/><line style="stroke:#000000;stroke-width:1.5;" x1="631.8" x2="708.634" y1="71.2969" y2="71.2969"/><a href="file:////home/runner/work/BO4E-python/BO4E-python/docs/../.tox/docs/tmp/html/api/bo4e.bo.html" target="_top" title="file:////home/runner/work/BO4E-python/BO4E-python/docs/../.tox/docs/tmp/html/api/bo4e.bo.html" xlink:actuate="onRequest" xlink:href="file:////home/runner/work/BO4E-python/BO4E-python/docs/../.tox/docs/tmp/html/api/bo4e.bo.html" xlink:show="new" xlink:title="file:////home/runner/work/BO4E-python/BO4E-python/docs/../.tox/docs/tmp/html/api/bo4e.bo.html" xlink:type="simple"><text fill="#0000FF" font-family="sans-serif" font-size="14" font-weight="bold" lengthAdjust="spacing" text-decoration="underline" textLength="63.834" x="635.8" y="63.9951">bo4e.bo</text></a></g><!--cluster enum--><g class="cluster" data-entity="enum" data-source-line="13" data-uid="ent0007" id="cluster_enum"><path d="M594.26,235 L683.4709,235 A3.75,3.75 0 0 1 685.9709,237.5 L692.9709,257.2969 L824.84,257.2969 A2.5,2.5 0 0 1 827.34,259.7969 L827.34,467.5 A2.5,2.5 0 0 1 824.84,470 L594.26,470 A2.5,2.5 0 0 1 591.76,467.5 L591.76,237.5 A2.5,2.5 0 0 1 594.26,235" fill="#D1C358" style="stroke:#000000;stroke-width:1.5;"/><line style="stroke:#000000;stroke-width:1.5;" x1="591.76" x2="692.9709" y1="257.2969" y2="257.2969"/><a href="file:////home/runner/work/BO4E-python/BO4E-python/docs/../.tox/docs/tmp/html/api/bo4e.enum.html" target="_top" title="file:////home/runner/work/BO4E-python/BO4E-python/docs/../.tox/docs/tmp/html/api/bo4e.enum.html" xlink:actuate="onRequest" xlink:href="file:////home/runner/work/BO4E-python/BO4E-python/docs/../.tox/docs/tmp/html/api/bo4e.enum.html" xlink:show="new" xlink:title="file:////home/runner/work/BO4E-python/BO4E-python/docs/../.tox/docs/tmp/html/api/bo4e.enum.html" xlink:type="simple"><text fill="#0000FF" font-family="sans-serif" font-size="14" font-weight="bold" lengthAdjust="spacing" text-decoration="underline" textLength="88.2109" x="595.76" y="249.9951">bo4e.enum</text></a></g><!--class Preisblatt--><g class="entity" data-entity="Preisblatt" data-source-line="10" data-uid="ent0004" id="entity_Preisblatt"><rect fill="#F1F1F1" height="37.9375" rx="2.5" ry="2.5" style="stroke:#181818;stroke-width:0.5;" width="123.499" x="647.8" y="84.03"/><ellipse cx="662.8" cy="102.9987" fill="#ADD1B2" rx="11" ry="11" style="stroke:#181818;stroke-width:1;"/><path d="M665.7688,108.6394 Q665.1906,108.9362 664.55,109.0769 Q663.9094,109.2331 663.2063,109.2331 Q660.7063,109.2331 659.3781,107.5925 Q658.0656,105.9362 658.0656,102.8112 Q658.0656,99.6862 659.3781,98.03 Q660.7063,96.3737 663.2063,96.3737 Q663.9094,96.3737 664.55,96.53 Q665.2063,96.6862 665.7688,96.9831 L665.7688,99.7019 Q665.1438,99.1237 664.55,98.8581 Q663.9563,98.5769 663.3313,98.5769 Q661.9875,98.5769 661.3,99.655 Q660.6125,100.7175 660.6125,102.8112 Q660.6125,104.905 661.3,105.9831 Q661.9875,107.0456 663.3313,107.0456 Q663.9563,107.0456 664.55,106.78 Q665.1438,106.4987 665.7688,105.9206 L665.7688,108.6394 Z " fill="#000000"/><a href="file:////home/runner/work/BO4E-python/BO4E-python/docs/../.tox/docs/tmp/html/api/bo4e.bo.html#bo4e.bo.preisblatt.Preisblatt" target="_top" title="file:////home/runner/work/BO4E-python/BO4E-python/docs/../.tox/docs/tmp/html/api/bo4e.bo.html#bo4e.bo.preisblatt.Preisblatt" xlink:actuate="onRequest" xlink:href="file:////home/runner/work/BO4E-python/BO4E-python/docs/../.tox/docs/tmp/html/api/bo4e.bo.html#bo4e.bo.preisblatt.Preisblatt" xlink:show="new" xlink:title="file:////home/runner/work/BO4E-python/BO4E-python/docs/../.tox/docs/tmp/html/api/bo4e.bo.html#bo4e.bo.preisblatt.Preisblatt" xlink:type="simple"><text fill="#0000FF" font-family="sans-serif" font-size="14" lengthAdjust="spacing" text-decoration="underline" textLength="66.3291" x="689.385" y="102.0251">Preisblatt</text></a><text fill="#000000" font-family="sans-serif" font-size="10" lengthAdjust="spacing" textLength="91.499" x="676.8" y="114.6091">bo4e.bo.preisblatt</text></g><!--class Geraet--><g class="entity" data-entity="Geraet" data-source-line="11" data-uid="ent0006" id="entity_Geraet"><rect fill="#F1F1F1" height="37.9375" rx="2.5" ry="2.5" style="stroke:#181818;stroke-width:0.5;" width="108.6162" x="655.24" y="157.03"/><ellipse cx="670.24" cy="175.9987" fill="#ADD1B2" rx="11" ry="11" style="stroke:#181818;stroke-width:1;"/><path d="M673.2088,181.6394 Q672.6306,181.9362 671.99,182.0769 Q671.3494,182.2331 670.6463,182.2331 Q668.1463,182.2331 666.8181,180.5925 Q665.5056,178.9362 665.5056,175.8112 Q665.5056,172.6862 666.8181,171.03 Q668.1463,169.3737 670.6463,169.3737 Q671.3494,169.3737 671.99,169.53 Q672.6463,169.6862 673.2088,169.9831 L673.2088,172.7019 Q672.5838,172.1237 671.99,171.8581 Q671.3963,171.5769 670.7713,171.5769 Q669.4275,171.5769 668.74,172.655 Q668.0525,173.7175 668.0525,175.8112 Q668.0525,177.905 668.74,178.9831 Q669.4275,180.0456 670.7713,180.0456 Q671.3963,180.0456 671.99,179.78 Q672.5838,179.4987 673.2088,178.9206 L673.2088,181.6394 Z " fill="#000000"/><a href="file:////home/runner/work/BO4E-python/BO4E-python/docs/../.tox/docs/tmp/html/api/bo4e.bo.html#bo4e.bo.geraet.Geraet" target="_top" title="file:////home/runner/work/BO4E-python/BO4E-python/docs/../.tox/docs/tmp/html/api/bo4e.bo.html#bo4e.bo.geraet.Geraet" xlink:actuate="onRequest" xlink:href="file:////home/runner/work/BO4E-python/BO4E-python/docs/../.tox/docs/tmp/html/api/bo4e.bo.html#bo4e.bo.geraet.Geraet" xlink:show="new" xlink:title="file:////home/runner/work/BO4E-python/BO4E-python/docs/../.tox/docs/tmp/html/api/bo4e.bo.html#bo4e.bo.geraet.Geraet" xlink:type="simple"><text fill="#0000FF" font-family="sans-serif" font-size="14" lengthAdjust="spacing" text-decoration="underline" textLength="47.8994" x="698.5984" y="175.0251">Geraet</text></a><text fill="#000000" font-family="sans-serif" font-size="10" lengthAdjust="spacing" textLength="76.6162" x="684.24" y="187.6091">bo4e.bo.geraet</text></g><!--class Bilanzierungsmethode--><g class="entity" data-entity="Bilanzierungsmethode" data-source-line="14" data-uid="ent0008" id="entity_Bilanzierungsmethode"><rect fill="#F1F1F1" height="37.9375" rx="2.5" ry="2.5" style="stroke:#181818;stroke-width:0.5;" width="203.5723" x="607.76" y="270.03"/><ellipse cx="622.76" cy="288.9988" fill="#ADD1B2" rx="11" ry="11" style="stroke:#181818;stroke-width:1;"/><path d="M625.7288,294.6394 Q625.1506,294.9363 624.51,295.0769 Q623.8694,295.2331 623.1663,295.2331 Q620.6663,295.2331 619.3381,293.5925 Q618.0256,291.9363 618.0256,288.8113 Q618.0256,285.6863 619.3381,284.03 Q620.6663,282.3738 623.1663,282.3738 Q623.8694,282.3738 624.51,282.53 Q625.1663,282.6863 625.7288,282.9831 L625.7288,285.7019 Q625.1038,285.1238 624.51,284.8581 Q623.9163,284.5769 623.2913,284.5769 Q621.9475,284.5769 621.26,285.655 Q620.5725,286.7175 620.5725,288.8113 Q620.5725,290.905 621.26,291.9831 Q621.9475,293.0456 623.2913,293.0456 Q623.9163,293.0456 624.51,292.78 Q625.1038,292.4988 625.7288,291.9206 L625.7288,294.6394 Z " fill="#000000"/><a href="file:////home/runner/work/BO4E-python/BO4E-python/docs/../.tox/docs/tmp/html/api/bo4e.enum.html#bo4e.enum.bilanzierungsmethode.Bilanzierungsmethode" target="_top" title="file:////home/runner/work/BO4E-python/BO4E-python/docs/../.tox/docs/tmp/html/api/bo4e.enum.html#bo4e.enum.bilanzierungsmethode.Bilanzierungsmethode" xlink:actuate="onRequest" xlink:href="file:////home/runner/work/BO4E-python/BO4E-python/docs/../.tox/docs/tmp/html/api/bo4e.enum.html#bo4e.enum.bilanzierungsmethode.Bilanzierungsmethode" xlink:show="new" xlink:title="file:////home/runner/work/BO4E-python/BO4E-python/docs/../.tox/docs/tmp/html/api/bo4e.enum.html#bo4e.enum.bilanzierungsmethode.Bilanzierungsmethode" xlink:type="simple"><text fill="#0000FF" font-family="sans-serif" font-size="14" lengthAdjust="spacing" text-decoration="underline" textLength="157.0488" x="644.0217" y="288.0251">Bilanzierungsmethode</text></a><text fill="#000000" font-family="sans-serif" font-size="10" lengthAdjust="spacing" textLength="171.5723" x="636.76" y="300.6091">bo4e.enum.bilanzierungsmethode</text></g><!--class Netzebene--><g class="entity" data-entity="Netzebene" data-source-line="15" data-uid="ent0009" id="entity_Netzebene"><rect fill="#F1F1F1" height="37.9375" rx="2.5" ry="2.5" style="stroke:#181818;stroke-width:0.5;" width="144.71" x="637.2" y="343.03"/><ellipse cx="652.2" cy="361.9988" fill="#ADD1B2" rx="11" ry="11" style="stroke:#181818;stroke-width:1;"/><path d="M655.1688,367.6394 Q654.5906,367.9363 653.95,368.0769 Q653.3094,368.2331 652.6063,368.2331 Q650.1063,368.2331 648.7781,366.5925 Q647.4656,364.9363 647.4656,361.8113 Q647.4656,358.6863 648.7781,357.03 Q650.1063,355.3738 652.6063,355.3738 Q653.3094,355.3738 653.95,355.53 Q654.6063,355.6863 655.1688,355.9831 L655.1688,358.7019 Q654.5438,358.1238 653.95,357.8581 Q653.3563,357.5769 652.7313,357.5769 Q651.3875,357.5769 650.7,358.655 Q650.0125,359.7175 650.0125,361.8113 Q650.0125,363.905 650.7,364.9831 Q651.3875,366.0456 652.7313,366.0456 Q653.3563,366.0456 653.95,365.78 Q654.5438,365.4988 655.1688,364.9206 L655.1688,367.6394 Z " fill="#000000"/><a href="file:////home/runner/work/BO4E-python/BO4E-python/docs/../.tox/docs/tmp/html/api/bo4e.enum.html#bo4e.enum.netzebene.Netzebene" target="_top" title="file:////home/runner/work/BO4E-python/BO4E-python/docs/../.tox/docs/tmp/html/api/bo4e.enum.html#bo4e.enum.netzebene.Netzebene" xlink:actuate="onRequest" xlink:href="file:////home/runner/work/BO4E-python/BO4E-python/docs/../.tox/docs/tmp/html/api/bo4e.enum.html#bo4e.enum.netzebene.Netzebene" xlink:show="new" xlink:title="file:////home/runner/work/BO4E-python/BO4E-python/docs/../.tox/docs/tmp/html/api/bo4e.enum.html#bo4e.enum.netzebene.Netzebene" xlink:type="simple"><text fill="#0000FF" font-family="sans-serif" font-size="14" lengthAdjust="spacing" text-decoration="underline" textLength="75.5234" x="684.7933" y="361.0251">Netzebene</text></a><text fill="#000000" font-family="sans-serif" font-size="10" lengthAdjust="spacing" textLength="112.71" x="666.2" y="373.6091">bo4e.enum.netzebene</text></g><!--class Dienstleistungstyp--><g class="entity" data-entity="Dienstleistungstyp" data-source-line="16" data-uid="ent0010" id="entity_Dienstleistungstyp"><rect fill="#F1F1F1" height="37.9375" rx="2.5" ry="2.5" style="stroke:#181818;stroke-width:0.5;" width="183.9141" x="617.59" y="416.03"/><ellipse cx="632.59" cy="434.9988" fill="#ADD1B2" rx="11" ry="11" style="stroke:#181818;stroke-width:1;"/><path d="M635.5588,440.6394 Q634.9806,440.9363 634.34,441.0769 Q633.6994,441.2331 632.9963,441.2331 Q630.4963,441.2331 629.1681,439.5925 Q627.8556,437.9363 627.8556,434.8113 Q627.8556,431.6863 629.1681,430.03 Q630.4963,428.3738 632.9963,428.3738 Q633.6994,428.3738 634.34,428.53 Q634.9963,428.6863 635.5588,428.9831 L635.5588,431.7019 Q634.9338,431.1238 634.34,430.8581 Q633.7463,430.5769 633.1213,430.5769 Q631.7775,430.5769 631.09,431.655 Q630.4025,432.7175 630.4025,434.8113 Q630.4025,436.905 631.09,437.9831 Q631.7775,439.0456 633.1213,439.0456 Q633.7463,439.0456 634.34,438.78 Q634.9338,438.4988 635.5588,437.9206 L635.5588,440.6394 Z " fill="#000000"/><a href="file:////home/runner/work/BO4E-python/BO4E-python/docs/../.tox/docs/tmp/html/api/bo4e.enum.html#bo4e.enum.dienstleistungstyp.Dienstleistungstyp" target="_top" title="file:////home/runner/work/BO4E-python/BO4E-python/docs/../.tox/docs/tmp/html/api/bo4e.enum.html#bo4e.enum.dienstleistungstyp.Dienstleistungstyp" xlink:actuate="onRequest" xlink:href="file:////home/runner/work/BO4E-python/BO4E-python/docs/../.tox/docs/tmp/html/api/bo4e.enum.html#bo4e.enum.dienstleistungstyp.Dienstleistungstyp" xlink:show="new" xlink:title="file:////home/runner/work/BO4E-python/BO4E-python/docs/../.tox/docs/tmp/html/api/bo4e.enum.html#bo4e.enum.dienstleistungstyp.Dienstleistungstyp" xlink:type="simple"><text fill="#0000FF" font-family="sans-serif" font-size="14" lengthAdjust="spacing" text-decoration="underline" textLength="130.7031" x="657.1955" y="434.0251">Dienstleistungstyp</text></a><text fill="#000000" font-family="sans-serif" font-size="10" lengthAdjust="spacing" textLength="151.9141" x="646.59" y="446.6091">bo4e.enum.dienstleistungstyp</text></g><!--class PreisblattHardware--><g class="entity" data-entity="PreisblattHardware" data-source-line="3" data-uid="ent0002" id="entity_PreisblattHardware"><rect fill="#F1F1F1" height="94.8281" rx="2.5" ry="2.5" style="stroke:#181818;stroke-width:0.5;" width="345.7646" x="7" y="214.59"/><ellipse cx="106.1353" cy="233.5587" fill="#ADD1B2" rx="11" ry="11" style="stroke:#181818;stroke-width:1;"/><path d="M109.104,239.1994 Q108.5259,239.4962 107.8853,239.6369 Q107.2446,239.7931 106.5415,239.7931 Q104.0415,239.7931 102.7134,238.1525 Q101.4009,236.4962 101.4009,233.3712 Q101.4009,230.2462 102.7134,228.59 Q104.0415,226.9337 106.5415,226.9337 Q107.2446,226.9337 107.8853,227.09 Q108.5415,227.2462 109.104,227.5431 L109.104,230.2619 Q108.479,229.6837 107.8853,229.4181 Q107.2915,229.1369 106.6665,229.1369 Q105.3228,229.1369 104.6353,230.215 Q103.9478,231.2775 103.9478,233.3712 Q103.9478,235.465 104.6353,236.5431 Q105.3228,237.6056 106.6665,237.6056 Q107.2915,237.6056 107.8853,237.34 Q108.479,237.0587 109.104,236.4806 L109.104,239.1994 Z " fill="#000000"/><a href="file:////home/runner/work/BO4E-python/BO4E-python/docs/../.tox/docs/tmp/html/api/bo4e.bo.html#bo4e.bo.preisblatthardware.PreisblattHardware" target="_top" title="file:////home/runner/work/BO4E-python/BO4E-python/docs/../.tox/docs/tmp/html/api/bo4e.bo.html#bo4e.bo.preisblatthardware.PreisblattHardware" xlink:actuate="onRequest" xlink:href="file:////home/runner/work/BO4E-python/BO4E-python/docs/../.tox/docs/tmp/html/api/bo4e.bo.html#bo4e.bo.preisblatthardware.PreisblattHardware" xlink:show="new" xlink:title="file:////home/runner/work/BO4E-python/BO4E-python/docs/../.tox/docs/tmp/html/api/bo4e.bo.html#bo4e.bo.preisblatthardware.PreisblattHardware" xlink:type="simple"><text fill="#0000FF" font-family="sans-serif" font-size="14" lengthAdjust="spacing" text-decoration="underline" textLength="134.4766" x="128.894" y="232.5851">PreisblattHardware</text></a><text fill="#000000" font-family="sans-serif" font-size="10" lengthAdjust="spacing" textLength="138.9941" x="126.6353" y="245.1691">bo4e.bo.preisblatthardware</text><line style="stroke:#181818;stroke-width:0.5;" x1="8" x2="351.7646" y1="252.5275" y2="252.5275"/><text fill="#000000" font-family="sans-serif" font-size="14" lengthAdjust="spacing" textLength="333.7646" x="13" y="269.5226">_version : str [0..1] = 202501.0.0+g5a3185351</text><text fill="#000000" font-family="sans-serif" font-size="14" lengthAdjust="spacing" textLength="318.5752" x="13" y="285.8195">zusatzAttribute : ZusatzAttribut [0..*] = None</text><text fill="#000000" font-family="sans-serif" font-size="14" lengthAdjust="spacing" textLength="151.1768" x="13" y="302.1164">_id : str [0..1] = None</text></g><!--link PreisblattHardware to Preisblatt--><g class="link" data-entity-1="PreisblattHardware" data-entity-2="Preisblatt" data-source-line="19" data-uid="lnk11" id="link_PreisblattHardware_Preisblatt"><path codeLine="19" d="M270.15,214.21 C304.57,197.33 344.76,179.46 382.76,167 C472.59,137.54 563.1977,122.0115 629.5377,112.8915" fill="none" id="PreisblattHardware-to-Preisblatt" style="stroke:#181818;stroke-width:1;"/><polygon fill="none" points="647.37,110.44,628.7206,106.9474,630.3549,118.8356,647.37,110.44" style="stroke:#181818;stroke-width:1;"/></g><!--link PreisblattHardware to Bilanzierungsmethode--><g class="link" data-entity-1="PreisblattHardware" data-entity-2="Bilanzierungsmethode" data-source-line="20" data-uid="lnk12" id="link_PreisblattHardware_Bilanzierungsmethode"><path codeLine="20" d="M353.04,290.23 C363.08,291.32 373.04,292.26 382.76,293 C457.66,298.72 476.66,293.96 551.76,293 C569.73,292.77 576.8632,292.669 595.3532,292.239" fill="none" id="PreisblattHardware-to-Bilanzierungsmethode" style="stroke:#181818;stroke-width:1;"/><polygon fill="#181818" points="607.35,291.96,601.2586,288.1006,595.3532,292.239,601.4446,296.0984,607.35,291.96" style="stroke:#181818;stroke-width:1;"/><text fill="#000000" font-family="sans-serif" font-size="13" lengthAdjust="spacing" textLength="145.1646" x="394.76" y="289.0669">bilanzierungsmethode</text><text fill="#000000" font-family="sans-serif" font-size="13" lengthAdjust="spacing" textLength="24.8066" x="574.9933" y="304.8">0..1</text></g><!--link PreisblattHardware to Netzebene--><g class="link" data-entity-1="PreisblattHardware" data-entity-2="Netzebene" data-source-line="21" data-uid="lnk13" id="link_PreisblattHardware_Netzebene"><path codeLine="21" d="M335.39,309.86 C351.3,313.98 367.3,317.79 382.76,321 C469.28,338.97 558.5099,349.1171 624.8799,355.1871" fill="none" id="PreisblattHardware-to-Netzebene" style="stroke:#181818;stroke-width:1;"/><polygon fill="#181818" points="636.83,356.28,631.2192,351.7502,624.8799,355.1871,630.4906,359.7169,636.83,356.28" style="stroke:#181818;stroke-width:1;"/><text fill="#000000" font-family="sans-serif" font-size="13" lengthAdjust="spacing" textLength="74.6929" x="430.26" y="317.0669">messebene</text><text fill="#000000" font-family="sans-serif" font-size="13" lengthAdjust="spacing" textLength="24.8066" x="604.1343" y="368.5374">0..1</text></g><!--link PreisblattHardware to Geraet--><g class="link" data-entity-1="PreisblattHardware" data-entity-2="Geraet" data-source-line="22" data-uid="lnk14" id="link_PreisblattHardware_Geraet"><path codeLine="22" d="M353.25,220.55 C363.22,218.57 373.11,216.7 382.76,215 C478,198.27 578.2308,187.6831 643.0108,181.7031" fill="none" id="PreisblattHardware-to-Geraet" style="stroke:#181818;stroke-width:1;"/><polygon fill="#181818" points="654.96,180.6,648.6177,177.1685,643.0108,181.7031,649.3531,185.1346,654.96,180.6" style="stroke:#181818;stroke-width:1;"/><text fill="#000000" font-family="sans-serif" font-size="13" lengthAdjust="spacing" textLength="76.0322" x="429.26" y="188.0669">basisgeraet</text><text fill="#000000" font-family="sans-serif" font-size="13" lengthAdjust="spacing" textLength="24.8066" x="622.4801" y="194.2259">0..1</text></g><!--link PreisblattHardware to Geraet--><g class="link" data-entity-1="PreisblattHardware" data-entity-2="Geraet" data-source-line="23" data-uid="lnk15" id="link_PreisblattHardware_Geraet"><path codeLine="23" d="M352.86,263.5 C416.05,261 487.76,254.54 551.76,240 C594.2,230.36 629.173,215.7169 660.243,200.6469" fill="none" id="PreisblattHardware-to-Geraet-1" style="stroke:#181818;stroke-width:1;"/><polygon fill="#181818" points="671.04,195.41,663.8959,194.4295,660.243,200.6469,667.3871,201.6274,671.04,195.41" style="stroke:#181818;stroke-width:1;"/><text fill="#000000" font-family="sans-serif" font-size="13" lengthAdjust="spacing" textLength="109.7827" x="412.76" y="236.0669">inklusiveGeraete</text><text fill="#000000" font-family="sans-serif" font-size="13" lengthAdjust="spacing" textLength="23.0356" x="633.9802" y="215.0644">0..*</text></g><!--link PreisblattHardware to Dienstleistungstyp--><g class="link" data-entity-1="PreisblattHardware" data-entity-2="Dienstleistungstyp" data-source-line="24" data-uid="lnk16" id="link_PreisblattHardware_Dienstleistungstyp"><path codeLine="24" d="M254.44,309.78 C291.6,331.98 338.17,356.95 382.76,373 C459.42,400.58 538.9745,415.0298 605.4445,423.8598" fill="none" id="PreisblattHardware-to-Dienstleistungstyp" style="stroke:#181818;stroke-width:1;"/><polygon fill="#181818" points="617.34,425.44,611.919,420.6847,605.4445,423.8598,610.8655,428.6151,617.34,425.44" style="stroke:#181818;stroke-width:1;"/><text fill="#000000" font-family="sans-serif" font-size="13" lengthAdjust="spacing" textLength="167.0957" x="383.76" y="369.0669">inklusiveDienstleistungen</text><text fill="#000000" font-family="sans-serif" font-size="13" lengthAdjust="spacing" textLength="23.0356" x="586.4013" y="437.3544">0..*</text></g><!--SRC=[nLPHRvim47ukl-AKl6MAWQPi5TegDUgqFNLxNeOc0vTW5MnacsRDjly-0maXnTcwXoMyuFjyzt5t7px8SQb12v1ibMb8cSH4Cy4T9ycfKZ1QB9Oinz0rLoOAT6N5EKftBUI3E_zqzNvQFkbCy8DrAXBb4k8IBRwtXYvADzD5xjAIkR6uGX8BKWFZdL5AP2hEgTOPbUcQIYIVE-ZZ5e8X54LV-Ll5DXZwtirniX5GPOc67yx5jqUKofGC8IWjOU4HuaVm3Ywzoy3pYKUyLwk0plphO1RupiMcKbHlRhMMBAuqcgWl1qX3CAa9xWL7Gy_IvypDnY_7uRH0LT84_tkROMj4KTE8hGNZ-UkxDxVNTHVE9dTFvfv0Vv7rcPmdJt-5ag8c7veRj3ThogrZasxhPNG_WUp8gw8dV6tsfQzj6AT-CWjE8NwNpNXlnYodVCFGF6Eb2ZHSAPAv1GGREEprKTAcQXl7MShcg3SO8qTolrj1jpfILHVJbD9vdoN_b25NEZS7JzUjr4ybkHj0C8IEb3QaQseSnjVZqlP1c4v_tkp6MM_VwckS9p2gX_1eVmpixrm8jbVf7rZtwePWJhjg5NjHl2baErTC5bGnrSwGFmTFBC6CF-ILOe_O8lWoXYPzYwOzliDTD3yB6JDDAx28pQVKKPbOW-rPIuPvgdu3]--></g></svg>