<?xml version="1.0" encoding="us-ascii" standalone="no"?><svg xmlns="http://www.w3.org/2000/svg" xmlns:xlink="http://www.w3.org/1999/xlink" contentStyleType="text/css" height="574px" preserveAspectRatio="none" style="width:872px;height:574px;background:#FFFFFF;" version="1.1" viewBox="0 0 872 574" width="872px" zoomAndPan="magnify"><defs/><g><!--cluster bo4e--><g id="cluster_bo4e"><path d="M591.5,6 L632.5,6 A3.75,3.75 0 0 1 635,8.5 L642,28.2969 L862.5,28.2969 A2.5,2.5 0 0 1 865,30.7969 L865,564.5 A2.5,2.5 0 0 1 862.5,567 L591.5,567 A2.5,2.5 0 0 1 589,564.5 L589,8.5 A2.5,2.5 0 0 1 591.5,6 " fill="none" style="stroke:#000000;stroke-width:1.5;"/><line style="stroke:#000000;stroke-width:1.5;" x1="589" x2="642" y1="28.2969" y2="28.2969"/><text fill="#000000" font-family="sans-serif" font-size="14" font-weight="bold" lengthAdjust="spacing" textLength="40" x="593" y="20.9951">bo4e</text></g><!--cluster bo--><g id="cluster_bo"><path d="M654,49 L720,49 A3.75,3.75 0 0 1 722.5,51.5 L729.5,71.2969 L800,71.2969 A2.5,2.5 0 0 1 802.5,73.7969 L802.5,281.5 A2.5,2.5 0 0 1 800,284 L654,284 A2.5,2.5 0 0 1 651.5,281.5 L651.5,51.5 A2.5,2.5 0 0 1 654,49 " fill="#B6D7A8" style="stroke:#000000;stroke-width:1.5;"/><line style="stroke:#000000;stroke-width:1.5;" x1="651.5" x2="729.5" y1="71.2969" y2="71.2969"/><a href="https://bo4e.github.io/BO4E-python/latest/api/bo4e.bo.html" target="_top" title="https://bo4e.github.io/BO4E-python/latest/api/bo4e.bo.html" xlink:actuate="onRequest" xlink:href="https://bo4e.github.io/BO4E-python/latest/api/bo4e.bo.html" xlink:show="new" xlink:title="https://bo4e.github.io/BO4E-python/latest/api/bo4e.bo.html" xlink:type="simple"><text fill="#0000FF" font-family="sans-serif" font-size="14" font-weight="bold" lengthAdjust="spacing" text-decoration="underline" textLength="65" x="655.5" y="63.9951">bo4e.bo</text></a></g><!--cluster enum--><g id="cluster_enum"><path d="M615.5,308 L705.5,308 A3.75,3.75 0 0 1 708,310.5 L715,330.2969 L838.5,330.2969 A2.5,2.5 0 0 1 841,332.7969 L841,540.5 A2.5,2.5 0 0 1 838.5,543 L615.5,543 A2.5,2.5 0 0 1 613,540.5 L613,310.5 A2.5,2.5 0 0 1 615.5,308 " fill="#D1C358" style="stroke:#000000;stroke-width:1.5;"/><line style="stroke:#000000;stroke-width:1.5;" x1="613" x2="715" y1="330.2969" y2="330.2969"/><a href="https://bo4e.github.io/BO4E-python/latest/api/bo4e.enum.html" target="_top" title="https://bo4e.github.io/BO4E-python/latest/api/bo4e.enum.html" xlink:actuate="onRequest" xlink:href="https://bo4e.github.io/BO4E-python/latest/api/bo4e.enum.html" xlink:show="new" xlink:title="https://bo4e.github.io/BO4E-python/latest/api/bo4e.enum.html" xlink:type="simple"><text fill="#0000FF" font-family="sans-serif" font-size="14" font-weight="bold" lengthAdjust="spacing" text-decoration="underline" textLength="89" x="617" y="322.9951">bo4e.enum</text></a></g><!--class Preisblatt--><g id="elem_Preisblatt"><rect codeLine="10" fill="#F1F1F1" height="37.9375" id="Preisblatt" rx="2.5" ry="2.5" style="stroke:#181818;stroke-width:0.5;" width="119" x="667.5" y="84.03"/><ellipse cx="682.5" cy="102.9987" fill="#ADD1B2" rx="11" ry="11" style="stroke:#181818;stroke-width:1.0;"/><path d="M685.4688,108.6394 Q684.8906,108.9362 684.25,109.0769 Q683.6094,109.2331 682.9063,109.2331 Q680.4063,109.2331 679.0781,107.5925 Q677.7656,105.9362 677.7656,102.8112 Q677.7656,99.6862 679.0781,98.03 Q680.4063,96.3737 682.9063,96.3737 Q683.6094,96.3737 684.25,96.53 Q684.9063,96.6862 685.4688,96.9831 L685.4688,99.7019 Q684.8438,99.1237 684.25,98.8581 Q683.6563,98.5769 683.0313,98.5769 Q681.6875,98.5769 681,99.655 Q680.3125,100.7175 680.3125,102.8112 Q680.3125,104.905 681,105.9831 Q681.6875,107.0456 683.0313,107.0456 Q683.6563,107.0456 684.25,106.78 Q684.8438,106.4987 685.4688,105.9206 L685.4688,108.6394 Z " fill="#000000"/><a href="https://bo4e.github.io/BO4E-python/latest/api/bo4e.bo.html#bo4e.bo.preisblatt.Preisblatt" target="_top" title="https://bo4e.github.io/BO4E-python/latest/api/bo4e.bo.html#bo4e.bo.preisblatt.Preisblatt" xlink:actuate="onRequest" xlink:href="https://bo4e.github.io/BO4E-python/latest/api/bo4e.bo.html#bo4e.bo.preisblatt.Preisblatt" xlink:show="new" xlink:title="https://bo4e.github.io/BO4E-python/latest/api/bo4e.bo.html#bo4e.bo.preisblatt.Preisblatt" xlink:type="simple"><text fill="#0000FF" font-family="sans-serif" font-size="14" lengthAdjust="spacing" text-decoration="underline" textLength="64" x="708" y="102.0251">Preisblatt</text></a><text fill="#000000" font-family="sans-serif" font-size="10" lengthAdjust="spacing" textLength="87" x="696.5" y="114.6091">bo4e.bo.preisblatt</text></g><!--class Geraet--><g id="elem_Geraet"><rect codeLine="11" fill="#F1F1F1" height="37.9375" id="Geraet" rx="2.5" ry="2.5" style="stroke:#181818;stroke-width:0.5;" width="106" x="674" y="157.03"/><ellipse cx="689" cy="175.9987" fill="#ADD1B2" rx="11" ry="11" style="stroke:#181818;stroke-width:1.0;"/><path d="M691.9688,181.6394 Q691.3906,181.9362 690.75,182.0769 Q690.1094,182.2331 689.4063,182.2331 Q686.9063,182.2331 685.5781,180.5925 Q684.2656,178.9362 684.2656,175.8112 Q684.2656,172.6862 685.5781,171.03 Q686.9063,169.3737 689.4063,169.3737 Q690.1094,169.3737 690.75,169.53 Q691.4063,169.6862 691.9688,169.9831 L691.9688,172.7019 Q691.3438,172.1237 690.75,171.8581 Q690.1563,171.5769 689.5313,171.5769 Q688.1875,171.5769 687.5,172.655 Q686.8125,173.7175 686.8125,175.8112 Q686.8125,177.905 687.5,178.9831 Q688.1875,180.0456 689.5313,180.0456 Q690.1563,180.0456 690.75,179.78 Q691.3438,179.4987 691.9688,178.9206 L691.9688,181.6394 Z " fill="#000000"/><a href="https://bo4e.github.io/BO4E-python/latest/api/bo4e.bo.html#bo4e.bo.geraet.Geraet" target="_top" title="https://bo4e.github.io/BO4E-python/latest/api/bo4e.bo.html#bo4e.bo.geraet.Geraet" xlink:actuate="onRequest" xlink:href="https://bo4e.github.io/BO4E-python/latest/api/bo4e.bo.html#bo4e.bo.geraet.Geraet" xlink:show="new" xlink:title="https://bo4e.github.io/BO4E-python/latest/api/bo4e.bo.html#bo4e.bo.geraet.Geraet" xlink:type="simple"><text fill="#0000FF" font-family="sans-serif" font-size="14" lengthAdjust="spacing" text-decoration="underline" textLength="47" x="716.5" y="175.0251">Geraet</text></a><text fill="#000000" font-family="sans-serif" font-size="10" lengthAdjust="spacing" textLength="74" x="703" y="187.6091">bo4e.bo.geraet</text></g><!--class Zaehler--><g id="elem_Zaehler"><rect codeLine="12" fill="#F1F1F1" height="37.9375" id="Zaehler" rx="2.5" ry="2.5" style="stroke:#181818;stroke-width:0.5;" width="109" x="672.5" y="230.03"/><ellipse cx="687.5" cy="248.9987" fill="#ADD1B2" rx="11" ry="11" style="stroke:#181818;stroke-width:1.0;"/><path d="M690.4688,254.6394 Q689.8906,254.9362 689.25,255.0769 Q688.6094,255.2331 687.9063,255.2331 Q685.4063,255.2331 684.0781,253.5925 Q682.7656,251.9362 682.7656,248.8112 Q682.7656,245.6862 684.0781,244.03 Q685.4063,242.3737 687.9063,242.3737 Q688.6094,242.3737 689.25,242.53 Q689.9063,242.6862 690.4688,242.9831 L690.4688,245.7019 Q689.8438,245.1237 689.25,244.8581 Q688.6563,244.5769 688.0313,244.5769 Q686.6875,244.5769 686,245.655 Q685.3125,246.7175 685.3125,248.8112 Q685.3125,250.905 686,251.9831 Q686.6875,253.0456 688.0313,253.0456 Q688.6563,253.0456 689.25,252.78 Q689.8438,252.4987 690.4688,251.9206 L690.4688,254.6394 Z " fill="#000000"/><a href="https://bo4e.github.io/BO4E-python/latest/api/bo4e.bo.html#bo4e.bo.zaehler.Zaehler" target="_top" title="https://bo4e.github.io/BO4E-python/latest/api/bo4e.bo.html#bo4e.bo.zaehler.Zaehler" xlink:actuate="onRequest" xlink:href="https://bo4e.github.io/BO4E-python/latest/api/bo4e.bo.html#bo4e.bo.zaehler.Zaehler" xlink:show="new" xlink:title="https://bo4e.github.io/BO4E-python/latest/api/bo4e.bo.html#bo4e.bo.zaehler.Zaehler" xlink:type="simple"><text fill="#0000FF" font-family="sans-serif" font-size="14" lengthAdjust="spacing" text-decoration="underline" textLength="53" x="713.5" y="248.0251">Zaehler</text></a><text fill="#000000" font-family="sans-serif" font-size="10" lengthAdjust="spacing" textLength="77" x="701.5" y="260.6091">bo4e.bo.zaehler</text></g><!--class Dienstleistungstyp--><g id="elem_Dienstleistungstyp"><rect codeLine="15" fill="#F1F1F1" height="37.9375" id="Dienstleistungstyp" rx="2.5" ry="2.5" style="stroke:#181818;stroke-width:0.5;" width="177" x="638.5" y="343.03"/><ellipse cx="653.5" cy="361.9988" fill="#ADD1B2" rx="11" ry="11" style="stroke:#181818;stroke-width:1.0;"/><path d="M656.4688,367.6394 Q655.8906,367.9363 655.25,368.0769 Q654.6094,368.2331 653.9063,368.2331 Q651.4063,368.2331 650.0781,366.5925 Q648.7656,364.9363 648.7656,361.8113 Q648.7656,358.6863 650.0781,357.03 Q651.4063,355.3738 653.9063,355.3738 Q654.6094,355.3738 655.25,355.53 Q655.9063,355.6863 656.4688,355.9831 L656.4688,358.7019 Q655.8438,358.1238 655.25,357.8581 Q654.6563,357.5769 654.0313,357.5769 Q652.6875,357.5769 652,358.655 Q651.3125,359.7175 651.3125,361.8113 Q651.3125,363.905 652,364.9831 Q652.6875,366.0456 654.0313,366.0456 Q654.6563,366.0456 655.25,365.78 Q655.8438,365.4988 656.4688,364.9206 L656.4688,367.6394 Z " fill="#000000"/><a href="https://bo4e.github.io/BO4E-python/latest/api/bo4e.enum.html#bo4e.enum.dienstleistungstyp.Dienstleistungstyp" target="_top" title="https://bo4e.github.io/BO4E-python/latest/api/bo4e.enum.html#bo4e.enum.dienstleistungstyp.Dienstleistungstyp" xlink:actuate="onRequest" xlink:href="https://bo4e.github.io/BO4E-python/latest/api/bo4e.enum.html#bo4e.enum.dienstleistungstyp.Dienstleistungstyp" xlink:show="new" xlink:title="https://bo4e.github.io/BO4E-python/latest/api/bo4e.enum.html#bo4e.enum.dienstleistungstyp.Dienstleistungstyp" xlink:type="simple"><text fill="#0000FF" font-family="sans-serif" font-size="14" lengthAdjust="spacing" text-decoration="underline" textLength="129" x="675.5" y="361.0251">Dienstleistungstyp</text></a><text fill="#000000" font-family="sans-serif" font-size="10" lengthAdjust="spacing" textLength="145" x="667.5" y="373.6091">bo4e.enum.dienstleistungstyp</text></g><!--class Bilanzierungsmethode--><g id="elem_Bilanzierungsmethode"><rect codeLine="16" fill="#F1F1F1" height="37.9375" id="Bilanzierungsmethode" rx="2.5" ry="2.5" style="stroke:#181818;stroke-width:0.5;" width="196" x="629" y="416.03"/><ellipse cx="644" cy="434.9988" fill="#ADD1B2" rx="11" ry="11" style="stroke:#181818;stroke-width:1.0;"/><path d="M646.9688,440.6394 Q646.3906,440.9363 645.75,441.0769 Q645.1094,441.2331 644.4063,441.2331 Q641.9063,441.2331 640.5781,439.5925 Q639.2656,437.9363 639.2656,434.8113 Q639.2656,431.6863 640.5781,430.03 Q641.9063,428.3738 644.4063,428.3738 Q645.1094,428.3738 645.75,428.53 Q646.4063,428.6863 646.9688,428.9831 L646.9688,431.7019 Q646.3438,431.1238 645.75,430.8581 Q645.1563,430.5769 644.5313,430.5769 Q643.1875,430.5769 642.5,431.655 Q641.8125,432.7175 641.8125,434.8113 Q641.8125,436.905 642.5,437.9831 Q643.1875,439.0456 644.5313,439.0456 Q645.1563,439.0456 645.75,438.78 Q646.3438,438.4988 646.9688,437.9206 L646.9688,440.6394 Z " fill="#000000"/><a href="https://bo4e.github.io/BO4E-python/latest/api/bo4e.enum.html#bo4e.enum.bilanzierungsmethode.Bilanzierungsmethode" target="_top" title="https://bo4e.github.io/BO4E-python/latest/api/bo4e.enum.html#bo4e.enum.bilanzierungsmethode.Bilanzierungsmethode" xlink:actuate="onRequest" xlink:href="https://bo4e.github.io/BO4E-python/latest/api/bo4e.enum.html#bo4e.enum.bilanzierungsmethode.Bilanzierungsmethode" xlink:show="new" xlink:title="https://bo4e.github.io/BO4E-python/latest/api/bo4e.enum.html#bo4e.enum.bilanzierungsmethode.Bilanzierungsmethode" xlink:type="simple"><text fill="#0000FF" font-family="sans-serif" font-size="14" lengthAdjust="spacing" text-decoration="underline" textLength="156" x="662" y="434.0251">Bilanzierungsmethode</text></a><text fill="#000000" font-family="sans-serif" font-size="10" lengthAdjust="spacing" textLength="164" x="658" y="446.6091">bo4e.enum.bilanzierungsmethode</text></g><!--class Netzebene--><g id="elem_Netzebene"><rect codeLine="17" fill="#F1F1F1" height="37.9375" id="Netzebene" rx="2.5" ry="2.5" style="stroke:#181818;stroke-width:0.5;" width="141" x="656.5" y="489.03"/><ellipse cx="671.5" cy="507.9988" fill="#ADD1B2" rx="11" ry="11" style="stroke:#181818;stroke-width:1.0;"/><path d="M674.4688,513.6394 Q673.8906,513.9363 673.25,514.0769 Q672.6094,514.2331 671.9063,514.2331 Q669.4063,514.2331 668.0781,512.5925 Q666.7656,510.9363 666.7656,507.8113 Q666.7656,504.6863 668.0781,503.03 Q669.4063,501.3738 671.9063,501.3738 Q672.6094,501.3738 673.25,501.53 Q673.9063,501.6863 674.4688,501.9831 L674.4688,504.7019 Q673.8438,504.1238 673.25,503.8581 Q672.6563,503.5769 672.0313,503.5769 Q670.6875,503.5769 670,504.655 Q669.3125,505.7175 669.3125,507.8113 Q669.3125,509.905 670,510.9831 Q670.6875,512.0456 672.0313,512.0456 Q672.6563,512.0456 673.25,511.78 Q673.8438,511.4988 674.4688,510.9206 L674.4688,513.6394 Z " fill="#000000"/><a href="https://bo4e.github.io/BO4E-python/latest/api/bo4e.enum.html#bo4e.enum.netzebene.Netzebene" target="_top" title="https://bo4e.github.io/BO4E-python/latest/api/bo4e.enum.html#bo4e.enum.netzebene.Netzebene" xlink:actuate="onRequest" xlink:href="https://bo4e.github.io/BO4E-python/latest/api/bo4e.enum.html#bo4e.enum.netzebene.Netzebene" xlink:show="new" xlink:title="https://bo4e.github.io/BO4E-python/latest/api/bo4e.enum.html#bo4e.enum.netzebene.Netzebene" xlink:type="simple"><text fill="#0000FF" font-family="sans-serif" font-size="14" lengthAdjust="spacing" text-decoration="underline" textLength="77" x="701.5" y="507.0251">Netzebene</text></a><text fill="#000000" font-family="sans-serif" font-size="10" lengthAdjust="spacing" textLength="109" x="685.5" y="519.6091">bo4e.enum.netzebene</text></g><!--class PreisblattMessung--><g id="elem_PreisblattMessung"><rect codeLine="3" fill="#F1F1F1" height="94.8281" id="PreisblattMessung" rx="2.5" ry="2.5" style="stroke:#181818;stroke-width:0.5;" width="373" x="7" y="275.59"/><ellipse cx="123.75" cy="294.5588" fill="#ADD1B2" rx="11" ry="11" style="stroke:#181818;stroke-width:1.0;"/><path d="M126.7188,300.1994 Q126.1406,300.4963 125.5,300.6369 Q124.8594,300.7931 124.1563,300.7931 Q121.6563,300.7931 120.3281,299.1525 Q119.0156,297.4963 119.0156,294.3713 Q119.0156,291.2463 120.3281,289.59 Q121.6563,287.9338 124.1563,287.9338 Q124.8594,287.9338 125.5,288.09 Q126.1563,288.2463 126.7188,288.5431 L126.7188,291.2619 Q126.0938,290.6838 125.5,290.4181 Q124.9063,290.1369 124.2813,290.1369 Q122.9375,290.1369 122.25,291.215 Q121.5625,292.2775 121.5625,294.3713 Q121.5625,296.465 122.25,297.5431 Q122.9375,298.6056 124.2813,298.6056 Q124.9063,298.6056 125.5,298.34 Q126.0938,298.0588 126.7188,297.4806 L126.7188,300.1994 Z " fill="#000000"/><a href="https://bo4e.github.io/BO4E-python/latest/api/bo4e.bo.html#bo4e.bo.preisblattmessung.PreisblattMessung" target="_top" title="https://bo4e.github.io/BO4E-python/latest/api/bo4e.bo.html#bo4e.bo.preisblattmessung.PreisblattMessung" xlink:actuate="onRequest" xlink:href="https://bo4e.github.io/BO4E-python/latest/api/bo4e.bo.html#bo4e.bo.preisblattmessung.PreisblattMessung" xlink:show="new" xlink:title="https://bo4e.github.io/BO4E-python/latest/api/bo4e.bo.html#bo4e.bo.preisblattmessung.PreisblattMessung" xlink:type="simple"><text fill="#0000FF" font-family="sans-serif" font-size="14" lengthAdjust="spacing" text-decoration="underline" textLength="128" x="145.75" y="293.5851">PreisblattMessung</text></a><text fill="#000000" font-family="sans-serif" font-size="10" lengthAdjust="spacing" textLength="131" x="144.25" y="306.1691">bo4e.bo.preisblattmessung</text><line style="stroke:#181818;stroke-width:0.5;" x1="8" x2="379" y1="313.5275" y2="313.5275"/><text fill="#000000" font-family="sans-serif" font-size="14" lengthAdjust="spacing" textLength="361" x="13" y="330.5226">_version : str [0..1] = 202401.4.1.dev50+g7314aa9f</text><text fill="#000000" font-family="sans-serif" font-size="14" lengthAdjust="spacing" textLength="311" x="13" y="346.8195">zusatzAttribute : ZusatzAttribut [0..*] = None</text><text fill="#000000" font-family="sans-serif" font-size="14" lengthAdjust="spacing" textLength="147" x="13" y="363.1164">_id : str [0..1] = None</text></g><!--link PreisblattMessung to Preisblatt--><g id="link_PreisblattMessung_Preisblatt"><path codeLine="20" d="M254.45,275.42 C296,244.54 353.76,205.6 410,181 C495.55,143.58 584.5659,124.8746 649.5159,114.2546 " fill="none" id="PreisblattMessung-to-Preisblatt" style="stroke:#181818;stroke-width:1.0;"/><polygon fill="none" points="667.28,111.35,648.5477,108.3332,650.4841,120.176,667.28,111.35" style="stroke:#181818;stroke-width:1.0;"/></g><!--link PreisblattMessung to Bilanzierungsmethode--><g id="link_PreisblattMessung_Bilanzierungsmethode"><path codeLine="21" d="M380.36,369.41 C390.38,371.69 400.3,373.9 410,376 C482.96,391.77 554.1246,405.0734 616.7346,416.1834 " fill="none" id="PreisblattMessung-to-Bilanzierungsmethode" style="stroke:#181818;stroke-width:1.0;"/><polygon fill="#181818" points="628.55,418.28,623.3412,413.2932,616.7346,416.1834,621.9434,421.1702,628.55,418.28" style="stroke:#181818;stroke-width:1.0;"/><text fill="#000000" font-family="sans-serif" font-size="13" lengthAdjust="spacing" textLength="142" x="420.5" y="372.0669">bilanzierungsmethode</text><text fill="#000000" font-family="sans-serif" font-size="13" lengthAdjust="spacing" textLength="24" x="597.1291" y="429.732">0..1</text></g><!--link PreisblattMessung to Netzebene--><g id="link_PreisblattMessung_Netzebene"><path codeLine="22" d="M277.93,370.91 C317.08,391.89 364.94,415.44 410,432 C492.36,462.26 579.4679,481.5759 644.4179,493.8259 " fill="none" id="PreisblattMessung-to-Netzebene" style="stroke:#181818;stroke-width:1.0;"/><polygon fill="#181818" points="656.21,496.05,651.0553,491.0073,644.4179,493.8259,649.5726,498.8687,656.21,496.05" style="stroke:#181818;stroke-width:1.0;"/><text fill="#000000" font-family="sans-serif" font-size="13" lengthAdjust="spacing" textLength="75" x="454" y="428.0669">messebene</text><text fill="#000000" font-family="sans-serif" font-size="13" lengthAdjust="spacing" textLength="24" x="624.5778" y="507.7129">0..1</text></g><!--link PreisblattMessung to Zaehler--><g id="link_PreisblattMessung_Zaehler"><path codeLine="23" d="M380.39,297.12 C483.37,282.78 592.0947,267.6452 660.1647,258.1652 " fill="none" id="PreisblattMessung-to-Zaehler" style="stroke:#181818;stroke-width:1.0;"/><polygon fill="#181818" points="672.05,256.51,665.5556,253.3759,660.1647,258.1652,666.6591,261.2994,672.05,256.51" style="stroke:#181818;stroke-width:1.0;"/><text fill="#000000" font-family="sans-serif" font-size="13" lengthAdjust="spacing" textLength="47" x="468" y="267.0669">zaehler</text><text fill="#000000" font-family="sans-serif" font-size="13" lengthAdjust="spacing" textLength="24" x="640.3089" y="270.3202">0..1</text></g><!--link PreisblattMessung to Dienstleistungstyp--><g id="link_PreisblattMessung_Dienstleistungstyp"><path codeLine="24" d="M380.39,336.64 C467.95,343.07 556.3022,349.5518 626.2122,354.6818 " fill="none" id="PreisblattMessung-to-Dienstleistungstyp" style="stroke:#181818;stroke-width:1.0;"/><polygon fill="#181818" points="638.18,355.56,632.4888,351.1316,626.2122,354.6818,631.9034,359.1102,638.18,355.56" style="stroke:#181818;stroke-width:1.0;"/><text fill="#000000" font-family="sans-serif" font-size="13" lengthAdjust="spacing" textLength="161" x="411" y="336.0669">inklusiveDienstleistungen</text><text fill="#000000" font-family="sans-serif" font-size="13" lengthAdjust="spacing" textLength="23" x="607.4993" y="367.7132">0..*</text></g><!--link PreisblattMessung to Geraet--><g id="link_PreisblattMessung_Geraet"><path codeLine="25" d="M320.12,275.13 C349.4,264.81 380.6,254.47 410,246 C501.65,219.59 598.9091,199.6503 661.9791,187.7203 " fill="none" id="PreisblattMessung-to-Geraet" style="stroke:#181818;stroke-width:1.0;"/><polygon fill="#181818" points="673.77,185.49,667.1311,182.6748,661.9791,187.7203,668.618,190.5355,673.77,185.49" style="stroke:#181818;stroke-width:1.0;"/><text fill="#000000" font-family="sans-serif" font-size="13" lengthAdjust="spacing" textLength="106" x="438.5" y="202.0669">inklusiveGeraete</text><text fill="#000000" font-family="sans-serif" font-size="13" lengthAdjust="spacing" textLength="23" x="642.881" y="199.6358">0..*</text></g><!--SRC=[jLNVRvim47ukVyKfUSiK0sswRcYhrAZJdjRjkHcQJBY0DJ087vdAjlzzvaS8BSuMATcJkVFTv-yxduy4DmIKGI6Yc20K1Qv9PDAorWbN2YQhLKoKAy-sWso1B18Kbm4JcRtylFWmpvyepgITS495Diz56nLaBAOqcUwCl42X0Xr5AIfLoeXzwJsVMW-CFBx_LRvJeaBFTMuF8as0gt4k_BGklcsnK5eAUA2eW9N3cEl3UxXqBXUEonRCPI5khvrNqSsLk-3yxSQwg4h5gReZAaHG4khKnsUU1cLMepna4lKP8dm9tspyjYp9DSESh_6q6a9d-7wZjBDWkdnzVtFtfjRvVovgS4E3ylxZJbvSndcvHLXm9FQnMQ1TZ7pQm8PB6tLU7XN7EC62FROhTAkHIXVRSEdYT6-SsXeeotJG7BKvR8_QXcdehg-kJswG_gZftWm5IaM9lcNIJqtHKyxkHouOkyOLEW3NI1dddrz9818kAu55VKAAEYz4jZGumUGyeCS4sYWoOPnVaqIgC429x67t1VtN0SfzJiEpZwx7c65Ip-U_RdU3QB1j2jMnCvZKet6oxqrpXJqm5UvuqBrQ3-f_GwlWc7IjOlUMFUXUx5yJPyDp3QtlWP3VarA9BJxVHNaKhYRKJRa1Kkj1oug5hbQAQQ1_RvQAinzWmDm8J4Br1m00]--></g></svg>