<svg xmlns="http://www.w3.org/2000/svg" xmlns:xlink="http://www.w3.org/1999/xlink" contentStyleType="text/css" data-diagram-type="CLASS" height="574px" preserveAspectRatio="none" style="width:858px;height:574px;background:#FFFFFF;" version="1.1" viewBox="0 0 858 574" width="858px" zoomAndPan="magnify"><defs/><g><!--cluster bo4e--><g class="cluster" data-entity="bo4e" data-source-line="10" data-uid="ent0005" id="cluster_bo4e"><path d="M570.2,6 L610.076,6 A3.75,3.75 0 0 1 612.576,8.5 L619.576,28.2969 L848.78,28.2969 A2.5,2.5 0 0 1 851.28,30.7969 L851.28,564.5 A2.5,2.5 0 0 1 848.78,567 L570.2,567 A2.5,2.5 0 0 1 567.7,564.5 L567.7,8.5 A2.5,2.5 0 0 1 570.2,6" fill="none" style="stroke:#000000;stroke-width:1.5;"/><line style="stroke:#000000;stroke-width:1.5;" x1="567.7" x2="619.576" y1="28.2969" y2="28.2969"/><text fill="#000000" font-family="sans-serif" font-size="14" font-weight="bold" lengthAdjust="spacing" textLength="38.876" x="571.7" y="20.9951">bo4e</text></g><!--cluster bo--><g class="cluster" data-entity="bo" data-source-line="9" data-uid="ent0003" id="cluster_bo"><path d="M634.24,49 L699.074,49 A3.75,3.75 0 0 1 701.574,51.5 L708.574,71.2969 L784.74,71.2969 A2.5,2.5 0 0 1 787.24,73.7969 L787.24,281.5 A2.5,2.5 0 0 1 784.74,284 L634.24,284 A2.5,2.5 0 0 1 631.74,281.5 L631.74,51.5 A2.5,2.5 0 0 1 634.24,49" fill="#B6D7A8" style="stroke:#000000;stroke-width:1.5;"/><line style="stroke:#000000;stroke-width:1.5;" x1="631.74" x2="708.574" y1="71.2969" y2="71.2969"/><a href="file:////home/runner/work/BO4E-python/BO4E-python/docs/../.tox/docs/tmp/html/api/bo4e.bo.html" target="_top" title="file:////home/runner/work/BO4E-python/BO4E-python/docs/../.tox/docs/tmp/html/api/bo4e.bo.html" xlink:actuate="onRequest" xlink:href="file:////home/runner/work/BO4E-python/BO4E-python/docs/../.tox/docs/tmp/html/api/bo4e.bo.html" xlink:show="new" xlink:title="file:////home/runner/work/BO4E-python/BO4E-python/docs/../.tox/docs/tmp/html/api/bo4e.bo.html" xlink:type="simple"><text fill="#0000FF" font-family="sans-serif" font-size="14" font-weight="bold" lengthAdjust="spacing" text-decoration="underline" textLength="63.834" x="635.74" y="63.9951">bo4e.bo</text></a></g><!--cluster enum--><g class="cluster" data-entity="enum" data-source-line="14" data-uid="ent0008" id="cluster_enum"><path d="M594.2,308 L683.4109,308 A3.75,3.75 0 0 1 685.9109,310.5 L692.9109,330.2969 L824.78,330.2969 A2.5,2.5 0 0 1 827.28,332.7969 L827.28,540.5 A2.5,2.5 0 0 1 824.78,543 L594.2,543 A2.5,2.5 0 0 1 591.7,540.5 L591.7,310.5 A2.5,2.5 0 0 1 594.2,308" fill="#D1C358" style="stroke:#000000;stroke-width:1.5;"/><line style="stroke:#000000;stroke-width:1.5;" x1="591.7" x2="692.9109" y1="330.2969" y2="330.2969"/><a href="file:////home/runner/work/BO4E-python/BO4E-python/docs/../.tox/docs/tmp/html/api/bo4e.enum.html" target="_top" title="file:////home/runner/work/BO4E-python/BO4E-python/docs/../.tox/docs/tmp/html/api/bo4e.enum.html" xlink:actuate="onRequest" xlink:href="file:////home/runner/work/BO4E-python/BO4E-python/docs/../.tox/docs/tmp/html/api/bo4e.enum.html" xlink:show="new" xlink:title="file:////home/runner/work/BO4E-python/BO4E-python/docs/../.tox/docs/tmp/html/api/bo4e.enum.html" xlink:type="simple"><text fill="#0000FF" font-family="sans-serif" font-size="14" font-weight="bold" lengthAdjust="spacing" text-decoration="underline" textLength="88.2109" x="595.7" y="322.9951">bo4e.enum</text></a></g><!--class Preisblatt--><g class="entity" data-entity="Preisblatt" data-source-line="10" data-uid="ent0004" id="entity_Preisblatt"><rect fill="#F1F1F1" height="37.9375" rx="2.5" ry="2.5" style="stroke:#181818;stroke-width:0.5;" width="123.499" x="647.74" y="84.03"/><ellipse cx="662.74" cy="102.9987" fill="#ADD1B2" rx="11" ry="11" style="stroke:#181818;stroke-width:1;"/><path d="M665.7088,108.6394 Q665.1306,108.9362 664.49,109.0769 Q663.8494,109.2331 663.1463,109.2331 Q660.6463,109.2331 659.3181,107.5925 Q658.0056,105.9362 658.0056,102.8112 Q658.0056,99.6862 659.3181,98.03 Q660.6463,96.3737 663.1463,96.3737 Q663.8494,96.3737 664.49,96.53 Q665.1463,96.6862 665.7088,96.9831 L665.7088,99.7019 Q665.0838,99.1237 664.49,98.8581 Q663.8963,98.5769 663.2713,98.5769 Q661.9275,98.5769 661.24,99.655 Q660.5525,100.7175 660.5525,102.8112 Q660.5525,104.905 661.24,105.9831 Q661.9275,107.0456 663.2713,107.0456 Q663.8963,107.0456 664.49,106.78 Q665.0838,106.4987 665.7088,105.9206 L665.7088,108.6394 Z " fill="#000000"/><a href="file:////home/runner/work/BO4E-python/BO4E-python/docs/../.tox/docs/tmp/html/api/bo4e.bo.html#bo4e.bo.preisblatt.Preisblatt" target="_top" title="file:////home/runner/work/BO4E-python/BO4E-python/docs/../.tox/docs/tmp/html/api/bo4e.bo.html#bo4e.bo.preisblatt.Preisblatt" xlink:actuate="onRequest" xlink:href="file:////home/runner/work/BO4E-python/BO4E-python/docs/../.tox/docs/tmp/html/api/bo4e.bo.html#bo4e.bo.preisblatt.Preisblatt" xlink:show="new" xlink:title="file:////home/runner/work/BO4E-python/BO4E-python/docs/../.tox/docs/tmp/html/api/bo4e.bo.html#bo4e.bo.preisblatt.Preisblatt" xlink:type="simple"><text fill="#0000FF" font-family="sans-serif" font-size="14" lengthAdjust="spacing" text-decoration="underline" textLength="66.3291" x="689.325" y="102.0251">Preisblatt</text></a><text fill="#000000" font-family="sans-serif" font-size="10" lengthAdjust="spacing" textLength="91.499" x="676.74" y="114.6091">bo4e.bo.preisblatt</text></g><!--class Zaehler--><g class="entity" data-entity="Zaehler" data-source-line="11" data-uid="ent0006" id="entity_Zaehler"><rect fill="#F1F1F1" height="37.9375" rx="2.5" ry="2.5" style="stroke:#181818;stroke-width:0.5;" width="112.7129" x="653.13" y="157.03"/><ellipse cx="668.13" cy="175.9987" fill="#ADD1B2" rx="11" ry="11" style="stroke:#181818;stroke-width:1;"/><path d="M671.0988,181.6394 Q670.5206,181.9362 669.88,182.0769 Q669.2394,182.2331 668.5363,182.2331 Q666.0363,182.2331 664.7081,180.5925 Q663.3956,178.9362 663.3956,175.8112 Q663.3956,172.6862 664.7081,171.03 Q666.0363,169.3737 668.5363,169.3737 Q669.2394,169.3737 669.88,169.53 Q670.5363,169.6862 671.0988,169.9831 L671.0988,172.7019 Q670.4738,172.1237 669.88,171.8581 Q669.2863,171.5769 668.6613,171.5769 Q667.3175,171.5769 666.63,172.655 Q665.9425,173.7175 665.9425,175.8112 Q665.9425,177.905 666.63,178.9831 Q667.3175,180.0456 668.6613,180.0456 Q669.2863,180.0456 669.88,179.78 Q670.4738,179.4987 671.0988,178.9206 L671.0988,181.6394 Z " fill="#000000"/><a href="file:////home/runner/work/BO4E-python/BO4E-python/docs/../.tox/docs/tmp/html/api/bo4e.bo.html#bo4e.bo.zaehler.Zaehler" target="_top" title="file:////home/runner/work/BO4E-python/BO4E-python/docs/../.tox/docs/tmp/html/api/bo4e.bo.html#bo4e.bo.zaehler.Zaehler" xlink:actuate="onRequest" xlink:href="file:////home/runner/work/BO4E-python/BO4E-python/docs/../.tox/docs/tmp/html/api/bo4e.bo.html#bo4e.bo.zaehler.Zaehler" xlink:show="new" xlink:title="file:////home/runner/work/BO4E-python/BO4E-python/docs/../.tox/docs/tmp/html/api/bo4e.bo.html#bo4e.bo.zaehler.Zaehler" xlink:type="simple"><text fill="#0000FF" font-family="sans-serif" font-size="14" lengthAdjust="spacing" text-decoration="underline" textLength="53.915" x="695.5289" y="175.0251">Zaehler</text></a><text fill="#000000" font-family="sans-serif" font-size="10" lengthAdjust="spacing" textLength="80.7129" x="682.13" y="187.6091">bo4e.bo.zaehler</text></g><!--class Geraet--><g class="entity" data-entity="Geraet" data-source-line="12" data-uid="ent0007" id="entity_Geraet"><rect fill="#F1F1F1" height="37.9375" rx="2.5" ry="2.5" style="stroke:#181818;stroke-width:0.5;" width="108.6162" x="655.18" y="230.03"/><ellipse cx="670.18" cy="248.9987" fill="#ADD1B2" rx="11" ry="11" style="stroke:#181818;stroke-width:1;"/><path d="M673.1488,254.6394 Q672.5706,254.9362 671.93,255.0769 Q671.2894,255.2331 670.5863,255.2331 Q668.0863,255.2331 666.7581,253.5925 Q665.4456,251.9362 665.4456,248.8112 Q665.4456,245.6862 666.7581,244.03 Q668.0863,242.3737 670.5863,242.3737 Q671.2894,242.3737 671.93,242.53 Q672.5863,242.6862 673.1488,242.9831 L673.1488,245.7019 Q672.5238,245.1237 671.93,244.8581 Q671.3363,244.5769 670.7113,244.5769 Q669.3675,244.5769 668.68,245.655 Q667.9925,246.7175 667.9925,248.8112 Q667.9925,250.905 668.68,251.9831 Q669.3675,253.0456 670.7113,253.0456 Q671.3363,253.0456 671.93,252.78 Q672.5238,252.4987 673.1488,251.9206 L673.1488,254.6394 Z " fill="#000000"/><a href="file:////home/runner/work/BO4E-python/BO4E-python/docs/../.tox/docs/tmp/html/api/bo4e.bo.html#bo4e.bo.geraet.Geraet" target="_top" title="file:////home/runner/work/BO4E-python/BO4E-python/docs/../.tox/docs/tmp/html/api/bo4e.bo.html#bo4e.bo.geraet.Geraet" xlink:actuate="onRequest" xlink:href="file:////home/runner/work/BO4E-python/BO4E-python/docs/../.tox/docs/tmp/html/api/bo4e.bo.html#bo4e.bo.geraet.Geraet" xlink:show="new" xlink:title="file:////home/runner/work/BO4E-python/BO4E-python/docs/../.tox/docs/tmp/html/api/bo4e.bo.html#bo4e.bo.geraet.Geraet" xlink:type="simple"><text fill="#0000FF" font-family="sans-serif" font-size="14" lengthAdjust="spacing" text-decoration="underline" textLength="47.8994" x="698.5384" y="248.0251">Geraet</text></a><text fill="#000000" font-family="sans-serif" font-size="10" lengthAdjust="spacing" textLength="76.6162" x="684.18" y="260.6091">bo4e.bo.geraet</text></g><!--class Netzebene--><g class="entity" data-entity="Netzebene" data-source-line="15" data-uid="ent0009" id="entity_Netzebene"><rect fill="#F1F1F1" height="37.9375" rx="2.5" ry="2.5" style="stroke:#181818;stroke-width:0.5;" width="144.71" x="637.13" y="343.03"/><ellipse cx="652.13" cy="361.9988" fill="#ADD1B2" rx="11" ry="11" style="stroke:#181818;stroke-width:1;"/><path d="M655.0988,367.6394 Q654.5206,367.9363 653.88,368.0769 Q653.2394,368.2331 652.5363,368.2331 Q650.0363,368.2331 648.7081,366.5925 Q647.3956,364.9363 647.3956,361.8113 Q647.3956,358.6863 648.7081,357.03 Q650.0363,355.3738 652.5363,355.3738 Q653.2394,355.3738 653.88,355.53 Q654.5363,355.6863 655.0988,355.9831 L655.0988,358.7019 Q654.4738,358.1238 653.88,357.8581 Q653.2863,357.5769 652.6613,357.5769 Q651.3175,357.5769 650.63,358.655 Q649.9425,359.7175 649.9425,361.8113 Q649.9425,363.905 650.63,364.9831 Q651.3175,366.0456 652.6613,366.0456 Q653.2863,366.0456 653.88,365.78 Q654.4738,365.4988 655.0988,364.9206 L655.0988,367.6394 Z " fill="#000000"/><a href="file:////home/runner/work/BO4E-python/BO4E-python/docs/../.tox/docs/tmp/html/api/bo4e.enum.html#bo4e.enum.netzebene.Netzebene" target="_top" title="file:////home/runner/work/BO4E-python/BO4E-python/docs/../.tox/docs/tmp/html/api/bo4e.enum.html#bo4e.enum.netzebene.Netzebene" xlink:actuate="onRequest" xlink:href="file:////home/runner/work/BO4E-python/BO4E-python/docs/../.tox/docs/tmp/html/api/bo4e.enum.html#bo4e.enum.netzebene.Netzebene" xlink:show="new" xlink:title="file:////home/runner/work/BO4E-python/BO4E-python/docs/../.tox/docs/tmp/html/api/bo4e.enum.html#bo4e.enum.netzebene.Netzebene" xlink:type="simple"><text fill="#0000FF" font-family="sans-serif" font-size="14" lengthAdjust="spacing" text-decoration="underline" textLength="75.5234" x="684.7233" y="361.0251">Netzebene</text></a><text fill="#000000" font-family="sans-serif" font-size="10" lengthAdjust="spacing" textLength="112.71" x="666.13" y="373.6091">bo4e.enum.netzebene</text></g><!--class Bilanzierungsmethode--><g class="entity" data-entity="Bilanzierungsmethode" data-source-line="16" data-uid="ent0010" id="entity_Bilanzierungsmethode"><rect fill="#F1F1F1" height="37.9375" rx="2.5" ry="2.5" style="stroke:#181818;stroke-width:0.5;" width="203.5723" x="607.7" y="416.03"/><ellipse cx="622.7" cy="434.9988" fill="#ADD1B2" rx="11" ry="11" style="stroke:#181818;stroke-width:1;"/><path d="M625.6688,440.6394 Q625.0906,440.9363 624.45,441.0769 Q623.8094,441.2331 623.1063,441.2331 Q620.6063,441.2331 619.2781,439.5925 Q617.9656,437.9363 617.9656,434.8113 Q617.9656,431.6863 619.2781,430.03 Q620.6063,428.3738 623.1063,428.3738 Q623.8094,428.3738 624.45,428.53 Q625.1063,428.6863 625.6688,428.9831 L625.6688,431.7019 Q625.0438,431.1238 624.45,430.8581 Q623.8563,430.5769 623.2313,430.5769 Q621.8875,430.5769 621.2,431.655 Q620.5125,432.7175 620.5125,434.8113 Q620.5125,436.905 621.2,437.9831 Q621.8875,439.0456 623.2313,439.0456 Q623.8563,439.0456 624.45,438.78 Q625.0438,438.4988 625.6688,437.9206 L625.6688,440.6394 Z " fill="#000000"/><a href="file:////home/runner/work/BO4E-python/BO4E-python/docs/../.tox/docs/tmp/html/api/bo4e.enum.html#bo4e.enum.bilanzierungsmethode.Bilanzierungsmethode" target="_top" title="file:////home/runner/work/BO4E-python/BO4E-python/docs/../.tox/docs/tmp/html/api/bo4e.enum.html#bo4e.enum.bilanzierungsmethode.Bilanzierungsmethode" xlink:actuate="onRequest" xlink:href="file:////home/runner/work/BO4E-python/BO4E-python/docs/../.tox/docs/tmp/html/api/bo4e.enum.html#bo4e.enum.bilanzierungsmethode.Bilanzierungsmethode" xlink:show="new" xlink:title="file:////home/runner/work/BO4E-python/BO4E-python/docs/../.tox/docs/tmp/html/api/bo4e.enum.html#bo4e.enum.bilanzierungsmethode.Bilanzierungsmethode" xlink:type="simple"><text fill="#0000FF" font-family="sans-serif" font-size="14" lengthAdjust="spacing" text-decoration="underline" textLength="157.0488" x="643.9617" y="434.0251">Bilanzierungsmethode</text></a><text fill="#000000" font-family="sans-serif" font-size="10" lengthAdjust="spacing" textLength="171.5723" x="636.7" y="446.6091">bo4e.enum.bilanzierungsmethode</text></g><!--class Dienstleistungstyp--><g class="entity" data-entity="Dienstleistungstyp" data-source-line="17" data-uid="ent0011" id="entity_Dienstleistungstyp"><rect fill="#F1F1F1" height="37.9375" rx="2.5" ry="2.5" style="stroke:#181818;stroke-width:0.5;" width="183.9141" x="617.53" y="489.03"/><ellipse cx="632.53" cy="507.9988" fill="#ADD1B2" rx="11" ry="11" style="stroke:#181818;stroke-width:1;"/><path d="M635.4988,513.6394 Q634.9206,513.9363 634.28,514.0769 Q633.6394,514.2331 632.9363,514.2331 Q630.4363,514.2331 629.1081,512.5925 Q627.7956,510.9363 627.7956,507.8113 Q627.7956,504.6863 629.1081,503.03 Q630.4363,501.3738 632.9363,501.3738 Q633.6394,501.3738 634.28,501.53 Q634.9363,501.6863 635.4988,501.9831 L635.4988,504.7019 Q634.8738,504.1238 634.28,503.8581 Q633.6863,503.5769 633.0613,503.5769 Q631.7175,503.5769 631.03,504.655 Q630.3425,505.7175 630.3425,507.8113 Q630.3425,509.905 631.03,510.9831 Q631.7175,512.0456 633.0613,512.0456 Q633.6863,512.0456 634.28,511.78 Q634.8738,511.4988 635.4988,510.9206 L635.4988,513.6394 Z " fill="#000000"/><a href="file:////home/runner/work/BO4E-python/BO4E-python/docs/../.tox/docs/tmp/html/api/bo4e.enum.html#bo4e.enum.dienstleistungstyp.Dienstleistungstyp" target="_top" title="file:////home/runner/work/BO4E-python/BO4E-python/docs/../.tox/docs/tmp/html/api/bo4e.enum.html#bo4e.enum.dienstleistungstyp.Dienstleistungstyp" xlink:actuate="onRequest" xlink:href="file:////home/runner/work/BO4E-python/BO4E-python/docs/../.tox/docs/tmp/html/api/bo4e.enum.html#bo4e.enum.dienstleistungstyp.Dienstleistungstyp" xlink:show="new" xlink:title="file:////home/runner/work/BO4E-python/BO4E-python/docs/../.tox/docs/tmp/html/api/bo4e.enum.html#bo4e.enum.dienstleistungstyp.Dienstleistungstyp" xlink:type="simple"><text fill="#0000FF" font-family="sans-serif" font-size="14" lengthAdjust="spacing" text-decoration="underline" textLength="130.7031" x="657.1355" y="507.0251">Dienstleistungstyp</text></a><text fill="#000000" font-family="sans-serif" font-size="10" lengthAdjust="spacing" textLength="151.9141" x="646.53" y="519.6091">bo4e.enum.dienstleistungstyp</text></g><!--class PreisblattMessung--><g class="entity" data-entity="PreisblattMessung" data-source-line="3" data-uid="ent0002" id="entity_PreisblattMessung"><rect fill="#F1F1F1" height="94.8281" rx="2.5" ry="2.5" style="stroke:#181818;stroke-width:0.5;" width="345.7031" x="7" y="275.59"/><ellipse cx="107.1836" cy="294.5588" fill="#ADD1B2" rx="11" ry="11" style="stroke:#181818;stroke-width:1;"/><path d="M110.1523,300.1994 Q109.5742,300.4963 108.9336,300.6369 Q108.293,300.7931 107.5898,300.7931 Q105.0898,300.7931 103.7617,299.1525 Q102.4492,297.4963 102.4492,294.3713 Q102.4492,291.2463 103.7617,289.59 Q105.0898,287.9338 107.5898,287.9338 Q108.293,287.9338 108.9336,288.09 Q109.5898,288.2463 110.1523,288.5431 L110.1523,291.2619 Q109.5273,290.6838 108.9336,290.4181 Q108.3398,290.1369 107.7148,290.1369 Q106.3711,290.1369 105.6836,291.215 Q104.9961,292.2775 104.9961,294.3713 Q104.9961,296.465 105.6836,297.5431 Q106.3711,298.6056 107.7148,298.6056 Q108.3398,298.6056 108.9336,298.34 Q109.5273,298.0588 110.1523,297.4806 L110.1523,300.1994 Z " fill="#000000"/><a href="file:////home/runner/work/BO4E-python/BO4E-python/docs/../.tox/docs/tmp/html/api/bo4e.bo.html#bo4e.bo.preisblattmessung.PreisblattMessung" target="_top" title="file:////home/runner/work/BO4E-python/BO4E-python/docs/../.tox/docs/tmp/html/api/bo4e.bo.html#bo4e.bo.preisblattmessung.PreisblattMessung" xlink:actuate="onRequest" xlink:href="file:////home/runner/work/BO4E-python/BO4E-python/docs/../.tox/docs/tmp/html/api/bo4e.bo.html#bo4e.bo.preisblattmessung.PreisblattMessung" xlink:show="new" xlink:title="file:////home/runner/work/BO4E-python/BO4E-python/docs/../.tox/docs/tmp/html/api/bo4e.bo.html#bo4e.bo.preisblattmessung.PreisblattMessung" xlink:type="simple"><text fill="#0000FF" font-family="sans-serif" font-size="14" lengthAdjust="spacing" text-decoration="underline" textLength="128.2422" x="131.9805" y="293.5851">PreisblattMessung</text></a><text fill="#000000" font-family="sans-serif" font-size="10" lengthAdjust="spacing" textLength="136.8359" x="127.6836" y="306.1691">bo4e.bo.preisblattmessung</text><line style="stroke:#181818;stroke-width:0.5;" x1="8" x2="351.7031" y1="313.5275" y2="313.5275"/><text fill="#000000" font-family="sans-serif" font-size="14" lengthAdjust="spacing" textLength="333.7031" x="13" y="330.5226">_version : str [0..1] = 202501.0.0+g9b0da057d</text><text fill="#000000" font-family="sans-serif" font-size="14" lengthAdjust="spacing" textLength="318.5752" x="13" y="346.8195">zusatzAttribute : ZusatzAttribut [0..*] = None</text><text fill="#000000" font-family="sans-serif" font-size="14" lengthAdjust="spacing" textLength="151.1768" x="13" y="363.1164">_id : str [0..1] = None</text></g><!--link PreisblattMessung to Preisblatt--><g class="link" data-entity-1="PreisblattMessung" data-entity-2="Preisblatt" data-source-line="20" data-uid="lnk12" id="link_PreisblattMessung_Preisblatt"><path codeLine="20" d="M236.97,275.2 C275.66,244.49 329.52,206 382.7,182 C470.24,142.51 562.4752,123.8202 629.6452,113.5902" fill="none" id="PreisblattMessung-to-Preisblatt" style="stroke:#181818;stroke-width:1;"/><polygon fill="none" points="647.44,110.88,628.7418,107.6585,630.5486,119.5218,647.44,110.88" style="stroke:#181818;stroke-width:1;"/></g><!--link PreisblattMessung to Bilanzierungsmethode--><g class="link" data-entity-1="PreisblattMessung" data-entity-2="Bilanzierungsmethode" data-source-line="21" data-uid="lnk13" id="link_PreisblattMessung_Bilanzierungsmethode"><path codeLine="21" d="M352.99,368.2 C363.03,370.57 372.99,372.86 382.7,375 C457.54,391.51 530.9051,405.0477 595.4051,416.1877" fill="none" id="PreisblattMessung-to-Bilanzierungsmethode" style="stroke:#181818;stroke-width:1;"/><polygon fill="#181818" points="607.23,418.23,601.9983,413.2672,595.4051,416.1877,600.6368,421.1505,607.23,418.23" style="stroke:#181818;stroke-width:1;"/><text fill="#000000" font-family="sans-serif" font-size="13" lengthAdjust="spacing" textLength="145.1646" x="394.7" y="371.0669">bilanzierungsmethode</text><text fill="#000000" font-family="sans-serif" font-size="13" lengthAdjust="spacing" textLength="24.8066" x="574.8689" y="429.6211">0..1</text></g><!--link PreisblattMessung to Netzebene--><g class="link" data-entity-1="PreisblattMessung" data-entity-2="Netzebene" data-source-line="22" data-uid="lnk14" id="link_PreisblattMessung_Netzebene"><path codeLine="22" d="M352.89,335.72 C449.27,342.84 552.3627,350.4546 624.9427,355.8246" fill="none" id="PreisblattMessung-to-Netzebene" style="stroke:#181818;stroke-width:1;"/><polygon fill="#181818" points="636.91,356.71,631.2215,352.2782,624.9427,355.8246,630.6312,360.2564,636.91,356.71" style="stroke:#181818;stroke-width:1;"/><text fill="#000000" font-family="sans-serif" font-size="13" lengthAdjust="spacing" textLength="74.6929" x="430.2" y="336.0669">messebene</text><text fill="#000000" font-family="sans-serif" font-size="13" lengthAdjust="spacing" textLength="24.8066" x="604.2298" y="369.0118">0..1</text></g><!--link PreisblattMessung to Zaehler--><g class="link" data-entity-1="PreisblattMessung" data-entity-2="Zaehler" data-source-line="23" data-uid="lnk15" id="link_PreisblattMessung_Zaehler"><path codeLine="23" d="M301.35,275.13 C327.92,265.45 356.08,255.85 382.7,248 C476.19,220.45 575.7119,200.2021 641.0519,188.0621" fill="none" id="PreisblattMessung-to-Zaehler" style="stroke:#181818;stroke-width:1;"/><polygon fill="#181818" points="652.85,185.87,646.2203,183.0333,641.0519,188.0621,647.6816,190.8987,652.85,185.87" style="stroke:#181818;stroke-width:1;"/><text fill="#000000" font-family="sans-serif" font-size="13" lengthAdjust="spacing" textLength="47.9819" x="443.7" y="203.0669">zaehler</text><text fill="#000000" font-family="sans-serif" font-size="13" lengthAdjust="spacing" textLength="24.8066" x="620.5341" y="200.0621">0..1</text></g><!--link PreisblattMessung to Dienstleistungstyp--><g class="link" data-entity-1="PreisblattMessung" data-entity-2="Dienstleistungstyp" data-source-line="24" data-uid="lnk16" id="link_PreisblattMessung_Dienstleistungstyp"><path codeLine="24" d="M255.59,370.66 C292.65,392.56 338.77,417.31 382.7,434 C459.42,463.15 539.05,480.6092 605.49,492.2492" fill="none" id="PreisblattMessung-to-Dienstleistungstyp" style="stroke:#181818;stroke-width:1;"/><polygon fill="#181818" points="617.31,494.32,612.0903,489.3446,605.49,492.2492,610.7097,497.2246,617.31,494.32" style="stroke:#181818;stroke-width:1;"/><text fill="#000000" font-family="sans-serif" font-size="13" lengthAdjust="spacing" textLength="167.0957" x="383.7" y="430.0669">inklusiveDienstleistungen</text><text fill="#000000" font-family="sans-serif" font-size="13" lengthAdjust="spacing" textLength="23.0356" x="586.3736" y="505.9189">0..*</text></g><!--link PreisblattMessung to Geraet--><g class="link" data-entity-1="PreisblattMessung" data-entity-2="Geraet" data-source-line="25" data-uid="lnk17" id="link_PreisblattMessung_Geraet"><path codeLine="25" d="M352.89,298.87 C457.7,284.17 572.6964,268.0475 643.0364,258.1775" fill="none" id="PreisblattMessung-to-Geraet" style="stroke:#181818;stroke-width:1;"/><polygon fill="#181818" points="654.92,256.51,648.4224,253.3825,643.0364,258.1775,649.534,261.3049,654.92,256.51" style="stroke:#181818;stroke-width:1;"/><text fill="#000000" font-family="sans-serif" font-size="13" lengthAdjust="spacing" textLength="109.7827" x="412.7" y="269.0669">inklusiveGeraete</text><text fill="#000000" font-family="sans-serif" font-size="13" lengthAdjust="spacing" textLength="23.0356" x="624.2829" y="270.3202">0..*</text></g><!--SRC=[nLLDRzim33tNlu98RXaYErspRiPMe467dTRjtDGeP9knXTgI8Sdjwct_VV974gTMjboMv2BnYNn-51agmvK6BK2o9DKGCucHPe8xJfHHfM2qNAvOXhvhVgd8qPKbvoZTPo4VtSMtYy_JuaMdWk_iOn4fbn2NQF6ZDNHUkAdECvSMp0t51P9Ga1eOhur28bDXHhNEKQcI9-Jx1ldQ8Z10Wk2UVrIiGd_cNUrb6W5LmrZuwPmzFA5K9blmGMa9Iu-GMG2VuDmxdtipuX7lJV8Xz6BgpIzZvwmg5TNLjTQIXQL64tMtWpG4avhWLd0qz2n-pTmS_7OSJesuWaRutsyOEYC8cdleB1WltjrSNh-lR-5abUwLk5UVVnJrLJMFBh-Yc6OeoLsxGhTQLNU-ZUJEx-Xw4vGKDVdIBD0kLh6jOwErzJ9zUeGsHLxclKQjpNwhrZQCurdqTdwCPjse6MzDZhh243cIs_KEDhlXLUx6D9bil4-YFsGPvHL3yur4vMYuOYGB2mWsS4-2Dj8cLnl7ITAE6NAbCpCeT2r5lnJaPW314DgJy92kINSONuzto-CrdVwwMa_Vth7DrVXEO5G_6QFjdy1UCHziXJYSTDlHFjJFPTkbXuIRBDOZq8TkqFqrSDB_hgKIFZ3-c9MAFU7kAVA3U8sWRiZrc5e47ITbvhPop4FpuZig5SzWuLmnp6Br1m00]--></g></svg>