<?xml version="1.0" encoding="us-ascii" standalone="no"?><svg xmlns="http://www.w3.org/2000/svg" xmlns:xlink="http://www.w3.org/1999/xlink" contentStyleType="text/css" height="501px" preserveAspectRatio="none" style="width:873px;height:501px;background:#FFFFFF;" version="1.1" viewBox="0 0 873 501" width="873px" zoomAndPan="magnify"><defs/><g><!--cluster bo4e--><g id="cluster_bo4e"><path d="M592.5,6 L633.5,6 A3.75,3.75 0 0 1 636,8.5 L643,28.2969 L863.5,28.2969 A2.5,2.5 0 0 1 866,30.7969 L866,491.5 A2.5,2.5 0 0 1 863.5,494 L592.5,494 A2.5,2.5 0 0 1 590,491.5 L590,8.5 A2.5,2.5 0 0 1 592.5,6 " fill="none" style="stroke:#000000;stroke-width:1.5;"/><line style="stroke:#000000;stroke-width:1.5;" x1="590" x2="643" y1="28.2969" y2="28.2969"/><text fill="#000000" font-family="sans-serif" font-size="14" font-weight="bold" lengthAdjust="spacing" textLength="40" x="594" y="20.9951">bo4e</text></g><!--cluster bo--><g id="cluster_bo"><path d="M655,49 L721,49 A3.75,3.75 0 0 1 723.5,51.5 L730.5,71.2969 L801,71.2969 A2.5,2.5 0 0 1 803.5,73.7969 L803.5,208.5 A2.5,2.5 0 0 1 801,211 L655,211 A2.5,2.5 0 0 1 652.5,208.5 L652.5,51.5 A2.5,2.5 0 0 1 655,49 " fill="#B6D7A8" style="stroke:#000000;stroke-width:1.5;"/><line style="stroke:#000000;stroke-width:1.5;" x1="652.5" x2="730.5" y1="71.2969" y2="71.2969"/><a href="https://bo4e.github.io/BO4E-python/latest/api/bo4e.bo.html" target="_top" title="https://bo4e.github.io/BO4E-python/latest/api/bo4e.bo.html" xlink:actuate="onRequest" xlink:href="https://bo4e.github.io/BO4E-python/latest/api/bo4e.bo.html" xlink:show="new" xlink:title="https://bo4e.github.io/BO4E-python/latest/api/bo4e.bo.html" xlink:type="simple"><text fill="#0000FF" font-family="sans-serif" font-size="14" font-weight="bold" lengthAdjust="spacing" text-decoration="underline" textLength="65" x="656.5" y="63.9951">bo4e.bo</text></a></g><!--cluster enum--><g id="cluster_enum"><path d="M616.5,235 L706.5,235 A3.75,3.75 0 0 1 709,237.5 L716,257.2969 L839.5,257.2969 A2.5,2.5 0 0 1 842,259.7969 L842,467.5 A2.5,2.5 0 0 1 839.5,470 L616.5,470 A2.5,2.5 0 0 1 614,467.5 L614,237.5 A2.5,2.5 0 0 1 616.5,235 " fill="#D1C358" style="stroke:#000000;stroke-width:1.5;"/><line style="stroke:#000000;stroke-width:1.5;" x1="614" x2="716" y1="257.2969" y2="257.2969"/><a href="https://bo4e.github.io/BO4E-python/latest/api/bo4e.enum.html" target="_top" title="https://bo4e.github.io/BO4E-python/latest/api/bo4e.enum.html" xlink:actuate="onRequest" xlink:href="https://bo4e.github.io/BO4E-python/latest/api/bo4e.enum.html" xlink:show="new" xlink:title="https://bo4e.github.io/BO4E-python/latest/api/bo4e.enum.html" xlink:type="simple"><text fill="#0000FF" font-family="sans-serif" font-size="14" font-weight="bold" lengthAdjust="spacing" text-decoration="underline" textLength="89" x="618" y="249.9951">bo4e.enum</text></a></g><!--class Preisblatt--><g id="elem_Preisblatt"><rect codeLine="10" fill="#F1F1F1" height="37.9375" id="Preisblatt" rx="2.5" ry="2.5" style="stroke:#181818;stroke-width:0.5;" width="119" x="668.5" y="84.03"/><ellipse cx="683.5" cy="102.9987" fill="#ADD1B2" rx="11" ry="11" style="stroke:#181818;stroke-width:1.0;"/><path d="M686.4688,108.6394 Q685.8906,108.9362 685.25,109.0769 Q684.6094,109.2331 683.9063,109.2331 Q681.4063,109.2331 680.0781,107.5925 Q678.7656,105.9362 678.7656,102.8112 Q678.7656,99.6862 680.0781,98.03 Q681.4063,96.3737 683.9063,96.3737 Q684.6094,96.3737 685.25,96.53 Q685.9063,96.6862 686.4688,96.9831 L686.4688,99.7019 Q685.8438,99.1237 685.25,98.8581 Q684.6563,98.5769 684.0313,98.5769 Q682.6875,98.5769 682,99.655 Q681.3125,100.7175 681.3125,102.8112 Q681.3125,104.905 682,105.9831 Q682.6875,107.0456 684.0313,107.0456 Q684.6563,107.0456 685.25,106.78 Q685.8438,106.4987 686.4688,105.9206 L686.4688,108.6394 Z " fill="#000000"/><a href="https://bo4e.github.io/BO4E-python/latest/api/bo4e.bo.html#bo4e.bo.preisblatt.Preisblatt" target="_top" title="https://bo4e.github.io/BO4E-python/latest/api/bo4e.bo.html#bo4e.bo.preisblatt.Preisblatt" xlink:actuate="onRequest" xlink:href="https://bo4e.github.io/BO4E-python/latest/api/bo4e.bo.html#bo4e.bo.preisblatt.Preisblatt" xlink:show="new" xlink:title="https://bo4e.github.io/BO4E-python/latest/api/bo4e.bo.html#bo4e.bo.preisblatt.Preisblatt" xlink:type="simple"><text fill="#0000FF" font-family="sans-serif" font-size="14" lengthAdjust="spacing" text-decoration="underline" textLength="64" x="709" y="102.0251">Preisblatt</text></a><text fill="#000000" font-family="sans-serif" font-size="10" lengthAdjust="spacing" textLength="87" x="697.5" y="114.6091">bo4e.bo.preisblatt</text></g><!--class Geraet--><g id="elem_Geraet"><rect codeLine="11" fill="#F1F1F1" height="37.9375" id="Geraet" rx="2.5" ry="2.5" style="stroke:#181818;stroke-width:0.5;" width="106" x="675" y="157.03"/><ellipse cx="690" cy="175.9987" fill="#ADD1B2" rx="11" ry="11" style="stroke:#181818;stroke-width:1.0;"/><path d="M692.9688,181.6394 Q692.3906,181.9362 691.75,182.0769 Q691.1094,182.2331 690.4063,182.2331 Q687.9063,182.2331 686.5781,180.5925 Q685.2656,178.9362 685.2656,175.8112 Q685.2656,172.6862 686.5781,171.03 Q687.9063,169.3737 690.4063,169.3737 Q691.1094,169.3737 691.75,169.53 Q692.4063,169.6862 692.9688,169.9831 L692.9688,172.7019 Q692.3438,172.1237 691.75,171.8581 Q691.1563,171.5769 690.5313,171.5769 Q689.1875,171.5769 688.5,172.655 Q687.8125,173.7175 687.8125,175.8112 Q687.8125,177.905 688.5,178.9831 Q689.1875,180.0456 690.5313,180.0456 Q691.1563,180.0456 691.75,179.78 Q692.3438,179.4987 692.9688,178.9206 L692.9688,181.6394 Z " fill="#000000"/><a href="https://bo4e.github.io/BO4E-python/latest/api/bo4e.bo.html#bo4e.bo.geraet.Geraet" target="_top" title="https://bo4e.github.io/BO4E-python/latest/api/bo4e.bo.html#bo4e.bo.geraet.Geraet" xlink:actuate="onRequest" xlink:href="https://bo4e.github.io/BO4E-python/latest/api/bo4e.bo.html#bo4e.bo.geraet.Geraet" xlink:show="new" xlink:title="https://bo4e.github.io/BO4E-python/latest/api/bo4e.bo.html#bo4e.bo.geraet.Geraet" xlink:type="simple"><text fill="#0000FF" font-family="sans-serif" font-size="14" lengthAdjust="spacing" text-decoration="underline" textLength="47" x="717.5" y="175.0251">Geraet</text></a><text fill="#000000" font-family="sans-serif" font-size="10" lengthAdjust="spacing" textLength="74" x="704" y="187.6091">bo4e.bo.geraet</text></g><!--class Bilanzierungsmethode--><g id="elem_Bilanzierungsmethode"><rect codeLine="14" fill="#F1F1F1" height="37.9375" id="Bilanzierungsmethode" rx="2.5" ry="2.5" style="stroke:#181818;stroke-width:0.5;" width="196" x="630" y="270.03"/><ellipse cx="645" cy="288.9988" fill="#ADD1B2" rx="11" ry="11" style="stroke:#181818;stroke-width:1.0;"/><path d="M647.9688,294.6394 Q647.3906,294.9363 646.75,295.0769 Q646.1094,295.2331 645.4063,295.2331 Q642.9063,295.2331 641.5781,293.5925 Q640.2656,291.9363 640.2656,288.8113 Q640.2656,285.6863 641.5781,284.03 Q642.9063,282.3738 645.4063,282.3738 Q646.1094,282.3738 646.75,282.53 Q647.4063,282.6863 647.9688,282.9831 L647.9688,285.7019 Q647.3438,285.1238 646.75,284.8581 Q646.1563,284.5769 645.5313,284.5769 Q644.1875,284.5769 643.5,285.655 Q642.8125,286.7175 642.8125,288.8113 Q642.8125,290.905 643.5,291.9831 Q644.1875,293.0456 645.5313,293.0456 Q646.1563,293.0456 646.75,292.78 Q647.3438,292.4988 647.9688,291.9206 L647.9688,294.6394 Z " fill="#000000"/><a href="https://bo4e.github.io/BO4E-python/latest/api/bo4e.enum.html#bo4e.enum.bilanzierungsmethode.Bilanzierungsmethode" target="_top" title="https://bo4e.github.io/BO4E-python/latest/api/bo4e.enum.html#bo4e.enum.bilanzierungsmethode.Bilanzierungsmethode" xlink:actuate="onRequest" xlink:href="https://bo4e.github.io/BO4E-python/latest/api/bo4e.enum.html#bo4e.enum.bilanzierungsmethode.Bilanzierungsmethode" xlink:show="new" xlink:title="https://bo4e.github.io/BO4E-python/latest/api/bo4e.enum.html#bo4e.enum.bilanzierungsmethode.Bilanzierungsmethode" xlink:type="simple"><text fill="#0000FF" font-family="sans-serif" font-size="14" lengthAdjust="spacing" text-decoration="underline" textLength="156" x="663" y="288.0251">Bilanzierungsmethode</text></a><text fill="#000000" font-family="sans-serif" font-size="10" lengthAdjust="spacing" textLength="164" x="659" y="300.6091">bo4e.enum.bilanzierungsmethode</text></g><!--class Dienstleistungstyp--><g id="elem_Dienstleistungstyp"><rect codeLine="15" fill="#F1F1F1" height="37.9375" id="Dienstleistungstyp" rx="2.5" ry="2.5" style="stroke:#181818;stroke-width:0.5;" width="177" x="639.5" y="343.03"/><ellipse cx="654.5" cy="361.9988" fill="#ADD1B2" rx="11" ry="11" style="stroke:#181818;stroke-width:1.0;"/><path d="M657.4688,367.6394 Q656.8906,367.9363 656.25,368.0769 Q655.6094,368.2331 654.9063,368.2331 Q652.4063,368.2331 651.0781,366.5925 Q649.7656,364.9363 649.7656,361.8113 Q649.7656,358.6863 651.0781,357.03 Q652.4063,355.3738 654.9063,355.3738 Q655.6094,355.3738 656.25,355.53 Q656.9063,355.6863 657.4688,355.9831 L657.4688,358.7019 Q656.8438,358.1238 656.25,357.8581 Q655.6563,357.5769 655.0313,357.5769 Q653.6875,357.5769 653,358.655 Q652.3125,359.7175 652.3125,361.8113 Q652.3125,363.905 653,364.9831 Q653.6875,366.0456 655.0313,366.0456 Q655.6563,366.0456 656.25,365.78 Q656.8438,365.4988 657.4688,364.9206 L657.4688,367.6394 Z " fill="#000000"/><a href="https://bo4e.github.io/BO4E-python/latest/api/bo4e.enum.html#bo4e.enum.dienstleistungstyp.Dienstleistungstyp" target="_top" title="https://bo4e.github.io/BO4E-python/latest/api/bo4e.enum.html#bo4e.enum.dienstleistungstyp.Dienstleistungstyp" xlink:actuate="onRequest" xlink:href="https://bo4e.github.io/BO4E-python/latest/api/bo4e.enum.html#bo4e.enum.dienstleistungstyp.Dienstleistungstyp" xlink:show="new" xlink:title="https://bo4e.github.io/BO4E-python/latest/api/bo4e.enum.html#bo4e.enum.dienstleistungstyp.Dienstleistungstyp" xlink:type="simple"><text fill="#0000FF" font-family="sans-serif" font-size="14" lengthAdjust="spacing" text-decoration="underline" textLength="129" x="676.5" y="361.0251">Dienstleistungstyp</text></a><text fill="#000000" font-family="sans-serif" font-size="10" lengthAdjust="spacing" textLength="145" x="668.5" y="373.6091">bo4e.enum.dienstleistungstyp</text></g><!--class Netzebene--><g id="elem_Netzebene"><rect codeLine="16" fill="#F1F1F1" height="37.9375" id="Netzebene" rx="2.5" ry="2.5" style="stroke:#181818;stroke-width:0.5;" width="141" x="657.5" y="416.03"/><ellipse cx="672.5" cy="434.9988" fill="#ADD1B2" rx="11" ry="11" style="stroke:#181818;stroke-width:1.0;"/><path d="M675.4688,440.6394 Q674.8906,440.9363 674.25,441.0769 Q673.6094,441.2331 672.9063,441.2331 Q670.4063,441.2331 669.0781,439.5925 Q667.7656,437.9363 667.7656,434.8113 Q667.7656,431.6863 669.0781,430.03 Q670.4063,428.3738 672.9063,428.3738 Q673.6094,428.3738 674.25,428.53 Q674.9063,428.6863 675.4688,428.9831 L675.4688,431.7019 Q674.8438,431.1238 674.25,430.8581 Q673.6563,430.5769 673.0313,430.5769 Q671.6875,430.5769 671,431.655 Q670.3125,432.7175 670.3125,434.8113 Q670.3125,436.905 671,437.9831 Q671.6875,439.0456 673.0313,439.0456 Q673.6563,439.0456 674.25,438.78 Q674.8438,438.4988 675.4688,437.9206 L675.4688,440.6394 Z " fill="#000000"/><a href="https://bo4e.github.io/BO4E-python/latest/api/bo4e.enum.html#bo4e.enum.netzebene.Netzebene" target="_top" title="https://bo4e.github.io/BO4E-python/latest/api/bo4e.enum.html#bo4e.enum.netzebene.Netzebene" xlink:actuate="onRequest" xlink:href="https://bo4e.github.io/BO4E-python/latest/api/bo4e.enum.html#bo4e.enum.netzebene.Netzebene" xlink:show="new" xlink:title="https://bo4e.github.io/BO4E-python/latest/api/bo4e.enum.html#bo4e.enum.netzebene.Netzebene" xlink:type="simple"><text fill="#0000FF" font-family="sans-serif" font-size="14" lengthAdjust="spacing" text-decoration="underline" textLength="77" x="702.5" y="434.0251">Netzebene</text></a><text fill="#000000" font-family="sans-serif" font-size="10" lengthAdjust="spacing" textLength="109" x="686.5" y="446.6091">bo4e.enum.netzebene</text></g><!--class PreisblattHardware--><g id="elem_PreisblattHardware"><rect codeLine="3" fill="#F1F1F1" height="94.8281" id="PreisblattHardware" rx="2.5" ry="2.5" style="stroke:#181818;stroke-width:0.5;" width="374" x="7" y="214.59"/><ellipse cx="123.25" cy="233.5587" fill="#ADD1B2" rx="11" ry="11" style="stroke:#181818;stroke-width:1.0;"/><path d="M126.2188,239.1994 Q125.6406,239.4962 125,239.6369 Q124.3594,239.7931 123.6563,239.7931 Q121.1563,239.7931 119.8281,238.1525 Q118.5156,236.4962 118.5156,233.3712 Q118.5156,230.2462 119.8281,228.59 Q121.1563,226.9337 123.6563,226.9337 Q124.3594,226.9337 125,227.09 Q125.6563,227.2462 126.2188,227.5431 L126.2188,230.2619 Q125.5938,229.6837 125,229.4181 Q124.4063,229.1369 123.7813,229.1369 Q122.4375,229.1369 121.75,230.215 Q121.0625,231.2775 121.0625,233.3712 Q121.0625,235.465 121.75,236.5431 Q122.4375,237.6056 123.7813,237.6056 Q124.4063,237.6056 125,237.34 Q125.5938,237.0587 126.2188,236.4806 L126.2188,239.1994 Z " fill="#000000"/><a href="https://bo4e.github.io/BO4E-python/latest/api/bo4e.bo.html#bo4e.bo.preisblatthardware.PreisblattHardware" target="_top" title="https://bo4e.github.io/BO4E-python/latest/api/bo4e.bo.html#bo4e.bo.preisblatthardware.PreisblattHardware" xlink:actuate="onRequest" xlink:href="https://bo4e.github.io/BO4E-python/latest/api/bo4e.bo.html#bo4e.bo.preisblatthardware.PreisblattHardware" xlink:show="new" xlink:title="https://bo4e.github.io/BO4E-python/latest/api/bo4e.bo.html#bo4e.bo.preisblatthardware.PreisblattHardware" xlink:type="simple"><text fill="#0000FF" font-family="sans-serif" font-size="14" lengthAdjust="spacing" text-decoration="underline" textLength="129" x="145.75" y="232.5851">PreisblattHardware</text></a><text fill="#000000" font-family="sans-serif" font-size="10" lengthAdjust="spacing" textLength="133" x="143.75" y="245.1691">bo4e.bo.preisblatthardware</text><line style="stroke:#181818;stroke-width:0.5;" x1="8" x2="380" y1="252.5275" y2="252.5275"/><text fill="#000000" font-family="sans-serif" font-size="14" lengthAdjust="spacing" textLength="362" x="13" y="269.5226">_version : str [0..1] = 202401.4.1.dev22+gb29fc2eb</text><text fill="#000000" font-family="sans-serif" font-size="14" lengthAdjust="spacing" textLength="311" x="13" y="285.8195">zusatzAttribute : ZusatzAttribut [0..*] = None</text><text fill="#000000" font-family="sans-serif" font-size="14" lengthAdjust="spacing" textLength="147" x="13" y="302.1164">_id : str [0..1] = None</text></g><!--link PreisblattHardware to Preisblatt--><g id="link_PreisblattHardware_Preisblatt"><path codeLine="19" d="M293.09,214.18 C329.49,197.82 371.52,180.5 411,168 C498.7,140.23 586.1638,124.1062 650.3338,114.1262 " fill="none" id="PreisblattHardware-to-Preisblatt" style="stroke:#181818;stroke-width:1.0;"/><polygon fill="none" points="668.12,111.36,649.4118,108.1975,651.2559,120.0549,668.12,111.36" style="stroke:#181818;stroke-width:1.0;"/></g><!--link PreisblattHardware to Bilanzierungsmethode--><g id="link_PreisblattHardware_Bilanzierungsmethode"><path codeLine="20" d="M381.27,290.44 C391.31,291.44 401.27,292.31 411,293 C483.26,298.16 501.56,293.95 574,293 C592.07,292.76 599.3335,292.661 617.8835,292.211 " fill="none" id="PreisblattHardware-to-Bilanzierungsmethode" style="stroke:#181818;stroke-width:1.0;"/><polygon fill="#181818" points="629.88,291.92,623.7848,288.0667,617.8835,292.211,623.9788,296.0643,629.88,291.92" style="stroke:#181818;stroke-width:1.0;"/><text fill="#000000" font-family="sans-serif" font-size="13" lengthAdjust="spacing" textLength="142" x="421.5" y="289.0669">bilanzierungsmethode</text><text fill="#000000" font-family="sans-serif" font-size="13" lengthAdjust="spacing" textLength="24" x="598.1372" y="304.7243">0..1</text></g><!--link PreisblattHardware to Netzebene--><g id="link_PreisblattHardware_Netzebene"><path codeLine="21" d="M276.84,309.83 C316.3,331.17 364.96,355.05 411,371 C493.24,399.5 580.292,415.283 645.282,424.623 " fill="none" id="PreisblattHardware-to-Netzebene" style="stroke:#181818;stroke-width:1.0;"/><polygon fill="#181818" points="657.16,426.33,651.79,421.5172,645.282,424.623,650.652,429.4358,657.16,426.33" style="stroke:#181818;stroke-width:1.0;"/><text fill="#000000" font-family="sans-serif" font-size="13" lengthAdjust="spacing" textLength="75" x="455" y="367.0669">messebene</text><text fill="#000000" font-family="sans-serif" font-size="13" lengthAdjust="spacing" textLength="24" x="625.5232" y="438.2953">0..1</text></g><!--link PreisblattHardware to Geraet--><g id="link_PreisblattHardware_Geraet"><path codeLine="22" d="M381.24,220.35 C391.29,218.46 401.26,216.66 411,215 C503.23,199.31 599.6903,188.5219 662.5703,182.1919 " fill="none" id="PreisblattHardware-to-Geraet" style="stroke:#181818;stroke-width:1.0;"/><polygon fill="#181818" points="674.51,180.99,668.1395,177.6111,662.5703,182.1919,668.9408,185.5709,674.51,180.99" style="stroke:#181818;stroke-width:1.0;"/><text fill="#000000" font-family="sans-serif" font-size="13" lengthAdjust="spacing" textLength="75" x="455" y="189.0669">basisgeraet</text><text fill="#000000" font-family="sans-serif" font-size="13" lengthAdjust="spacing" textLength="24" x="642.9377" y="194.5089">0..1</text></g><!--link PreisblattHardware to Geraet--><g id="link_PreisblattHardware_Geraet"><path codeLine="23" d="M381.35,263.68 C443.28,260.93 512.19,254.28 574,240 C615.52,230.41 649.427,215.8567 679.707,200.7867 " fill="none" id="PreisblattHardware-to-Geraet-1" style="stroke:#181818;stroke-width:1.0;"/><polygon fill="#181818" points="690.45,195.44,683.2963,194.5323,679.707,200.7867,686.8607,201.6944,690.45,195.44" style="stroke:#181818;stroke-width:1.0;"/><text fill="#000000" font-family="sans-serif" font-size="13" lengthAdjust="spacing" textLength="106" x="439.5" y="236.0669">inklusiveGeraete</text><text fill="#000000" font-family="sans-serif" font-size="13" lengthAdjust="spacing" textLength="23" x="653.6547" y="215.1028">0..*</text></g><!--link PreisblattHardware to Dienstleistungstyp--><g id="link_PreisblattHardware_Dienstleistungstyp"><path codeLine="24" d="M361.32,309.89 C378.03,313.96 394.8,317.75 411,321 C487.48,336.33 563.6454,345.9587 627.3554,352.6387 " fill="none" id="PreisblattHardware-to-Dienstleistungstyp" style="stroke:#181818;stroke-width:1.0;"/><polygon fill="#181818" points="639.29,353.89,633.7398,349.2861,627.3554,352.6387,632.9056,357.2425,639.29,353.89" style="stroke:#181818;stroke-width:1.0;"/><text fill="#000000" font-family="sans-serif" font-size="13" lengthAdjust="spacing" textLength="161" x="412" y="317.0669">inklusiveDienstleistungen</text><text fill="#000000" font-family="sans-serif" font-size="13" lengthAdjust="spacing" textLength="23" x="608.6177" y="365.9154">0..*</text></g><!--SRC=[jLLHRzCm47vUViMfVIkgquGo8899guRWQV1C5o4dkIOMYHF5bquByDznaZRD5XU6Mfxi-tpt-JxVsKvnGq0vb29E229HOaWYbvOLfbmfcApN2L6XFDiEyYMoM51I1KpazkhpyiEyUA0abtRA2HNPl12TLv2pXB9qkZUA4eKAj1Sbl8pkUOdiImzzsa4mXdp_JhvJeaRFMLmT9vi0LuPe-65TVDjYgRGUy41H2Ui5OuuFxy5TkCk5mvRCOH5kNVT57BXlDw6BWNLHLufJVKrKYg0YrA5V7o4jownXkSqbwZr4z9I-NVXbMP9dg0eUuca72Jl3zrkfEmkcgykRrzTl6ft_frg3AWtEzozLULADy-OMOycHsCTsW6umvjCvjhbqNheSfrO3PPKDwj6OmueqDamZ9tpvwkIQz5jD3sOWKYvhWMKbOvMXZekGhGmWcC3nAHqbRIMPECwlAH8e5QMwMQZPXnuATZE2O0mTKJEcQxMCuy-lH2BL6A14ThkVGJyxacuVqsRPUpSlX-c1dCz_Nkql_s3TwAkTPp1ftgF9eJlDtUA1gGd-WVKWs0DzmrGdubdnMiZkBkiik1AgkxT_3fuPWeNydbPARB53y7aCRVg6XXlmFLv5_JCcGXzQXbcWlnPB9VazcFRQ24mZzHi0]--></g></svg>