<?xml version="1.0" encoding="us-ascii" standalone="no"?><svg xmlns="http://www.w3.org/2000/svg" xmlns:xlink="http://www.w3.org/1999/xlink" contentStyleType="text/css" height="647px" preserveAspectRatio="none" style="width:870px;height:647px;background:#FFFFFF;" version="1.1" viewBox="0 0 870 647" width="870px" zoomAndPan="magnify"><defs/><g><!--cluster bo4e--><g id="cluster_bo4e"><path d="M589.5,6 L630.5,6 A3.75,3.75 0 0 1 633,8.5 L640,28.2969 L860.5,28.2969 A2.5,2.5 0 0 1 863,30.7969 L863,637.5 A2.5,2.5 0 0 1 860.5,640 L589.5,640 A2.5,2.5 0 0 1 587,637.5 L587,8.5 A2.5,2.5 0 0 1 589.5,6 " fill="none" style="stroke:#000000;stroke-width:1.5;"/><line style="stroke:#000000;stroke-width:1.5;" x1="587" x2="640" y1="28.2969" y2="28.2969"/><text fill="#000000" font-family="sans-serif" font-size="14" font-weight="bold" lengthAdjust="spacing" textLength="40" x="591" y="20.9951">bo4e</text></g><!--cluster bo--><g id="cluster_bo"><path d="M652,49 L718,49 A3.75,3.75 0 0 1 720.5,51.5 L727.5,71.2969 L798,71.2969 A2.5,2.5 0 0 1 800.5,73.7969 L800.5,281.5 A2.5,2.5 0 0 1 798,284 L652,284 A2.5,2.5 0 0 1 649.5,281.5 L649.5,51.5 A2.5,2.5 0 0 1 652,49 " fill="#B6D7A8" style="stroke:#000000;stroke-width:1.5;"/><line style="stroke:#000000;stroke-width:1.5;" x1="649.5" x2="727.5" y1="71.2969" y2="71.2969"/><a href="https://bo4e.github.io/BO4E-python/latest/api/bo4e.bo.html" target="_top" title="https://bo4e.github.io/BO4E-python/latest/api/bo4e.bo.html" xlink:actuate="onRequest" xlink:href="https://bo4e.github.io/BO4E-python/latest/api/bo4e.bo.html" xlink:show="new" xlink:title="https://bo4e.github.io/BO4E-python/latest/api/bo4e.bo.html" xlink:type="simple"><text fill="#0000FF" font-family="sans-serif" font-size="14" font-weight="bold" lengthAdjust="spacing" text-decoration="underline" textLength="65" x="653.5" y="63.9951">bo4e.bo</text></a></g><!--cluster enum--><g id="cluster_enum"><path d="M613.5,308 L703.5,308 A3.75,3.75 0 0 1 706,310.5 L713,330.2969 L836.5,330.2969 A2.5,2.5 0 0 1 839,332.7969 L839,613.5 A2.5,2.5 0 0 1 836.5,616 L613.5,616 A2.5,2.5 0 0 1 611,613.5 L611,310.5 A2.5,2.5 0 0 1 613.5,308 " fill="#D1C358" style="stroke:#000000;stroke-width:1.5;"/><line style="stroke:#000000;stroke-width:1.5;" x1="611" x2="713" y1="330.2969" y2="330.2969"/><a href="https://bo4e.github.io/BO4E-python/latest/api/bo4e.enum.html" target="_top" title="https://bo4e.github.io/BO4E-python/latest/api/bo4e.enum.html" xlink:actuate="onRequest" xlink:href="https://bo4e.github.io/BO4E-python/latest/api/bo4e.enum.html" xlink:show="new" xlink:title="https://bo4e.github.io/BO4E-python/latest/api/bo4e.enum.html" xlink:type="simple"><text fill="#0000FF" font-family="sans-serif" font-size="14" font-weight="bold" lengthAdjust="spacing" text-decoration="underline" textLength="89" x="615" y="322.9951">bo4e.enum</text></a></g><!--class Zaehler--><g id="elem_Zaehler"><rect codeLine="10" fill="#F1F1F1" height="37.9375" id="Zaehler" rx="2.5" ry="2.5" style="stroke:#181818;stroke-width:0.5;" width="109" x="670.5" y="84.03"/><ellipse cx="685.5" cy="102.9987" fill="#ADD1B2" rx="11" ry="11" style="stroke:#181818;stroke-width:1.0;"/><path d="M688.4688,108.6394 Q687.8906,108.9362 687.25,109.0769 Q686.6094,109.2331 685.9063,109.2331 Q683.4063,109.2331 682.0781,107.5925 Q680.7656,105.9362 680.7656,102.8112 Q680.7656,99.6862 682.0781,98.03 Q683.4063,96.3737 685.9063,96.3737 Q686.6094,96.3737 687.25,96.53 Q687.9063,96.6862 688.4688,96.9831 L688.4688,99.7019 Q687.8438,99.1237 687.25,98.8581 Q686.6563,98.5769 686.0313,98.5769 Q684.6875,98.5769 684,99.655 Q683.3125,100.7175 683.3125,102.8112 Q683.3125,104.905 684,105.9831 Q684.6875,107.0456 686.0313,107.0456 Q686.6563,107.0456 687.25,106.78 Q687.8438,106.4987 688.4688,105.9206 L688.4688,108.6394 Z " fill="#000000"/><a href="https://bo4e.github.io/BO4E-python/latest/api/bo4e.bo.html#bo4e.bo.zaehler.Zaehler" target="_top" title="https://bo4e.github.io/BO4E-python/latest/api/bo4e.bo.html#bo4e.bo.zaehler.Zaehler" xlink:actuate="onRequest" xlink:href="https://bo4e.github.io/BO4E-python/latest/api/bo4e.bo.html#bo4e.bo.zaehler.Zaehler" xlink:show="new" xlink:title="https://bo4e.github.io/BO4E-python/latest/api/bo4e.bo.html#bo4e.bo.zaehler.Zaehler" xlink:type="simple"><text fill="#0000FF" font-family="sans-serif" font-size="14" lengthAdjust="spacing" text-decoration="underline" textLength="53" x="711.5" y="102.0251">Zaehler</text></a><text fill="#000000" font-family="sans-serif" font-size="10" lengthAdjust="spacing" textLength="77" x="699.5" y="114.6091">bo4e.bo.zaehler</text></g><!--class Preisblatt--><g id="elem_Preisblatt"><rect codeLine="11" fill="#F1F1F1" height="37.9375" id="Preisblatt" rx="2.5" ry="2.5" style="stroke:#181818;stroke-width:0.5;" width="119" x="665.5" y="157.03"/><ellipse cx="680.5" cy="175.9987" fill="#ADD1B2" rx="11" ry="11" style="stroke:#181818;stroke-width:1.0;"/><path d="M683.4688,181.6394 Q682.8906,181.9362 682.25,182.0769 Q681.6094,182.2331 680.9063,182.2331 Q678.4063,182.2331 677.0781,180.5925 Q675.7656,178.9362 675.7656,175.8112 Q675.7656,172.6862 677.0781,171.03 Q678.4063,169.3737 680.9063,169.3737 Q681.6094,169.3737 682.25,169.53 Q682.9063,169.6862 683.4688,169.9831 L683.4688,172.7019 Q682.8438,172.1237 682.25,171.8581 Q681.6563,171.5769 681.0313,171.5769 Q679.6875,171.5769 679,172.655 Q678.3125,173.7175 678.3125,175.8112 Q678.3125,177.905 679,178.9831 Q679.6875,180.0456 681.0313,180.0456 Q681.6563,180.0456 682.25,179.78 Q682.8438,179.4987 683.4688,178.9206 L683.4688,181.6394 Z " fill="#000000"/><a href="https://bo4e.github.io/BO4E-python/latest/api/bo4e.bo.html#bo4e.bo.preisblatt.Preisblatt" target="_top" title="https://bo4e.github.io/BO4E-python/latest/api/bo4e.bo.html#bo4e.bo.preisblatt.Preisblatt" xlink:actuate="onRequest" xlink:href="https://bo4e.github.io/BO4E-python/latest/api/bo4e.bo.html#bo4e.bo.preisblatt.Preisblatt" xlink:show="new" xlink:title="https://bo4e.github.io/BO4E-python/latest/api/bo4e.bo.html#bo4e.bo.preisblatt.Preisblatt" xlink:type="simple"><text fill="#0000FF" font-family="sans-serif" font-size="14" lengthAdjust="spacing" text-decoration="underline" textLength="64" x="706" y="175.0251">Preisblatt</text></a><text fill="#000000" font-family="sans-serif" font-size="10" lengthAdjust="spacing" textLength="87" x="694.5" y="187.6091">bo4e.bo.preisblatt</text></g><!--class Geraet--><g id="elem_Geraet"><rect codeLine="12" fill="#F1F1F1" height="37.9375" id="Geraet" rx="2.5" ry="2.5" style="stroke:#181818;stroke-width:0.5;" width="106" x="672" y="230.03"/><ellipse cx="687" cy="248.9987" fill="#ADD1B2" rx="11" ry="11" style="stroke:#181818;stroke-width:1.0;"/><path d="M689.9688,254.6394 Q689.3906,254.9362 688.75,255.0769 Q688.1094,255.2331 687.4063,255.2331 Q684.9063,255.2331 683.5781,253.5925 Q682.2656,251.9362 682.2656,248.8112 Q682.2656,245.6862 683.5781,244.03 Q684.9063,242.3737 687.4063,242.3737 Q688.1094,242.3737 688.75,242.53 Q689.4063,242.6862 689.9688,242.9831 L689.9688,245.7019 Q689.3438,245.1237 688.75,244.8581 Q688.1563,244.5769 687.5313,244.5769 Q686.1875,244.5769 685.5,245.655 Q684.8125,246.7175 684.8125,248.8112 Q684.8125,250.905 685.5,251.9831 Q686.1875,253.0456 687.5313,253.0456 Q688.1563,253.0456 688.75,252.78 Q689.3438,252.4987 689.9688,251.9206 L689.9688,254.6394 Z " fill="#000000"/><a href="https://bo4e.github.io/BO4E-python/latest/api/bo4e.bo.html#bo4e.bo.geraet.Geraet" target="_top" title="https://bo4e.github.io/BO4E-python/latest/api/bo4e.bo.html#bo4e.bo.geraet.Geraet" xlink:actuate="onRequest" xlink:href="https://bo4e.github.io/BO4E-python/latest/api/bo4e.bo.html#bo4e.bo.geraet.Geraet" xlink:show="new" xlink:title="https://bo4e.github.io/BO4E-python/latest/api/bo4e.bo.html#bo4e.bo.geraet.Geraet" xlink:type="simple"><text fill="#0000FF" font-family="sans-serif" font-size="14" lengthAdjust="spacing" text-decoration="underline" textLength="47" x="714.5" y="248.0251">Geraet</text></a><text fill="#000000" font-family="sans-serif" font-size="10" lengthAdjust="spacing" textLength="74" x="701" y="260.6091">bo4e.bo.geraet</text></g><!--class Bilanzierungsmethode--><g id="elem_Bilanzierungsmethode"><rect codeLine="15" fill="#F1F1F1" height="37.9375" id="Bilanzierungsmethode" rx="2.5" ry="2.5" style="stroke:#181818;stroke-width:0.5;" width="196" x="627" y="343.03"/><ellipse cx="642" cy="361.9988" fill="#ADD1B2" rx="11" ry="11" style="stroke:#181818;stroke-width:1.0;"/><path d="M644.9688,367.6394 Q644.3906,367.9363 643.75,368.0769 Q643.1094,368.2331 642.4063,368.2331 Q639.9063,368.2331 638.5781,366.5925 Q637.2656,364.9363 637.2656,361.8113 Q637.2656,358.6863 638.5781,357.03 Q639.9063,355.3738 642.4063,355.3738 Q643.1094,355.3738 643.75,355.53 Q644.4063,355.6863 644.9688,355.9831 L644.9688,358.7019 Q644.3438,358.1238 643.75,357.8581 Q643.1563,357.5769 642.5313,357.5769 Q641.1875,357.5769 640.5,358.655 Q639.8125,359.7175 639.8125,361.8113 Q639.8125,363.905 640.5,364.9831 Q641.1875,366.0456 642.5313,366.0456 Q643.1563,366.0456 643.75,365.78 Q644.3438,365.4988 644.9688,364.9206 L644.9688,367.6394 Z " fill="#000000"/><a href="https://bo4e.github.io/BO4E-python/latest/api/bo4e.enum.html#bo4e.enum.bilanzierungsmethode.Bilanzierungsmethode" target="_top" title="https://bo4e.github.io/BO4E-python/latest/api/bo4e.enum.html#bo4e.enum.bilanzierungsmethode.Bilanzierungsmethode" xlink:actuate="onRequest" xlink:href="https://bo4e.github.io/BO4E-python/latest/api/bo4e.enum.html#bo4e.enum.bilanzierungsmethode.Bilanzierungsmethode" xlink:show="new" xlink:title="https://bo4e.github.io/BO4E-python/latest/api/bo4e.enum.html#bo4e.enum.bilanzierungsmethode.Bilanzierungsmethode" xlink:type="simple"><text fill="#0000FF" font-family="sans-serif" font-size="14" lengthAdjust="spacing" text-decoration="underline" textLength="156" x="660" y="361.0251">Bilanzierungsmethode</text></a><text fill="#000000" font-family="sans-serif" font-size="10" lengthAdjust="spacing" textLength="164" x="656" y="373.6091">bo4e.enum.bilanzierungsmethode</text></g><!--class Netzebene--><g id="elem_Netzebene"><rect codeLine="16" fill="#F1F1F1" height="37.9375" id="Netzebene" rx="2.5" ry="2.5" style="stroke:#181818;stroke-width:0.5;" width="141" x="654.5" y="416.03"/><ellipse cx="669.5" cy="434.9988" fill="#ADD1B2" rx="11" ry="11" style="stroke:#181818;stroke-width:1.0;"/><path d="M672.4688,440.6394 Q671.8906,440.9363 671.25,441.0769 Q670.6094,441.2331 669.9063,441.2331 Q667.4063,441.2331 666.0781,439.5925 Q664.7656,437.9363 664.7656,434.8113 Q664.7656,431.6863 666.0781,430.03 Q667.4063,428.3738 669.9063,428.3738 Q670.6094,428.3738 671.25,428.53 Q671.9063,428.6863 672.4688,428.9831 L672.4688,431.7019 Q671.8438,431.1238 671.25,430.8581 Q670.6563,430.5769 670.0313,430.5769 Q668.6875,430.5769 668,431.655 Q667.3125,432.7175 667.3125,434.8113 Q667.3125,436.905 668,437.9831 Q668.6875,439.0456 670.0313,439.0456 Q670.6563,439.0456 671.25,438.78 Q671.8438,438.4988 672.4688,437.9206 L672.4688,440.6394 Z " fill="#000000"/><a href="https://bo4e.github.io/BO4E-python/latest/api/bo4e.enum.html#bo4e.enum.netzebene.Netzebene" target="_top" title="https://bo4e.github.io/BO4E-python/latest/api/bo4e.enum.html#bo4e.enum.netzebene.Netzebene" xlink:actuate="onRequest" xlink:href="https://bo4e.github.io/BO4E-python/latest/api/bo4e.enum.html#bo4e.enum.netzebene.Netzebene" xlink:show="new" xlink:title="https://bo4e.github.io/BO4E-python/latest/api/bo4e.enum.html#bo4e.enum.netzebene.Netzebene" xlink:type="simple"><text fill="#0000FF" font-family="sans-serif" font-size="14" lengthAdjust="spacing" text-decoration="underline" textLength="77" x="699.5" y="434.0251">Netzebene</text></a><text fill="#000000" font-family="sans-serif" font-size="10" lengthAdjust="spacing" textLength="109" x="683.5" y="446.6091">bo4e.enum.netzebene</text></g><!--class Typ--><g id="elem_Typ"><rect codeLine="17" fill="#F1F1F1" height="37.9375" id="Typ" rx="2.5" ry="2.5" style="stroke:#181818;stroke-width:0.5;" width="106" x="672" y="489.03"/><ellipse cx="687" cy="507.9988" fill="#ADD1B2" rx="11" ry="11" style="stroke:#181818;stroke-width:1.0;"/><path d="M689.9688,513.6394 Q689.3906,513.9363 688.75,514.0769 Q688.1094,514.2331 687.4063,514.2331 Q684.9063,514.2331 683.5781,512.5925 Q682.2656,510.9363 682.2656,507.8113 Q682.2656,504.6863 683.5781,503.03 Q684.9063,501.3738 687.4063,501.3738 Q688.1094,501.3738 688.75,501.53 Q689.4063,501.6863 689.9688,501.9831 L689.9688,504.7019 Q689.3438,504.1238 688.75,503.8581 Q688.1563,503.5769 687.5313,503.5769 Q686.1875,503.5769 685.5,504.655 Q684.8125,505.7175 684.8125,507.8113 Q684.8125,509.905 685.5,510.9831 Q686.1875,512.0456 687.5313,512.0456 Q688.1563,512.0456 688.75,511.78 Q689.3438,511.4988 689.9688,510.9206 L689.9688,513.6394 Z " fill="#000000"/><a href="https://bo4e.github.io/BO4E-python/latest/api/bo4e.enum.html#bo4e.enum.typ.Typ" target="_top" title="https://bo4e.github.io/BO4E-python/latest/api/bo4e.enum.html#bo4e.enum.typ.Typ" xlink:actuate="onRequest" xlink:href="https://bo4e.github.io/BO4E-python/latest/api/bo4e.enum.html#bo4e.enum.typ.Typ" xlink:show="new" xlink:title="https://bo4e.github.io/BO4E-python/latest/api/bo4e.enum.html#bo4e.enum.typ.Typ" xlink:type="simple"><text fill="#0000FF" font-family="sans-serif" font-size="14" lengthAdjust="spacing" text-decoration="underline" textLength="25" x="725.5" y="507.0251">Typ</text></a><text fill="#000000" font-family="sans-serif" font-size="10" lengthAdjust="spacing" textLength="74" x="701" y="519.6091">bo4e.enum.typ</text></g><!--class Dienstleistungstyp--><g id="elem_Dienstleistungstyp"><rect codeLine="18" fill="#F1F1F1" height="37.9375" id="Dienstleistungstyp" rx="2.5" ry="2.5" style="stroke:#181818;stroke-width:0.5;" width="177" x="636.5" y="562.03"/><ellipse cx="651.5" cy="580.9988" fill="#ADD1B2" rx="11" ry="11" style="stroke:#181818;stroke-width:1.0;"/><path d="M654.4688,586.6394 Q653.8906,586.9363 653.25,587.0769 Q652.6094,587.2331 651.9063,587.2331 Q649.4063,587.2331 648.0781,585.5925 Q646.7656,583.9363 646.7656,580.8113 Q646.7656,577.6863 648.0781,576.03 Q649.4063,574.3738 651.9063,574.3738 Q652.6094,574.3738 653.25,574.53 Q653.9063,574.6863 654.4688,574.9831 L654.4688,577.7019 Q653.8438,577.1238 653.25,576.8581 Q652.6563,576.5769 652.0313,576.5769 Q650.6875,576.5769 650,577.655 Q649.3125,578.7175 649.3125,580.8113 Q649.3125,582.905 650,583.9831 Q650.6875,585.0456 652.0313,585.0456 Q652.6563,585.0456 653.25,584.78 Q653.8438,584.4988 654.4688,583.9206 L654.4688,586.6394 Z " fill="#000000"/><a href="https://bo4e.github.io/BO4E-python/latest/api/bo4e.enum.html#bo4e.enum.dienstleistungstyp.Dienstleistungstyp" target="_top" title="https://bo4e.github.io/BO4E-python/latest/api/bo4e.enum.html#bo4e.enum.dienstleistungstyp.Dienstleistungstyp" xlink:actuate="onRequest" xlink:href="https://bo4e.github.io/BO4E-python/latest/api/bo4e.enum.html#bo4e.enum.dienstleistungstyp.Dienstleistungstyp" xlink:show="new" xlink:title="https://bo4e.github.io/BO4E-python/latest/api/bo4e.enum.html#bo4e.enum.dienstleistungstyp.Dienstleistungstyp" xlink:type="simple"><text fill="#0000FF" font-family="sans-serif" font-size="14" lengthAdjust="spacing" text-decoration="underline" textLength="129" x="673.5" y="580.0251">Dienstleistungstyp</text></a><text fill="#000000" font-family="sans-serif" font-size="10" lengthAdjust="spacing" textLength="145" x="665.5" y="592.6091">bo4e.enum.dienstleistungstyp</text></g><!--class PreisblattMessung--><g id="elem_PreisblattMessung"><rect codeLine="3" fill="#F1F1F1" height="94.8281" id="PreisblattMessung" rx="2.5" ry="2.5" style="stroke:#181818;stroke-width:0.5;" width="371" x="7" y="314.59"/><ellipse cx="122.75" cy="333.5588" fill="#ADD1B2" rx="11" ry="11" style="stroke:#181818;stroke-width:1.0;"/><path d="M125.7188,339.1994 Q125.1406,339.4963 124.5,339.6369 Q123.8594,339.7931 123.1563,339.7931 Q120.6563,339.7931 119.3281,338.1525 Q118.0156,336.4963 118.0156,333.3713 Q118.0156,330.2463 119.3281,328.59 Q120.6563,326.9338 123.1563,326.9338 Q123.8594,326.9338 124.5,327.09 Q125.1563,327.2463 125.7188,327.5431 L125.7188,330.2619 Q125.0938,329.6838 124.5,329.4181 Q123.9063,329.1369 123.2813,329.1369 Q121.9375,329.1369 121.25,330.215 Q120.5625,331.2775 120.5625,333.3713 Q120.5625,335.465 121.25,336.5431 Q121.9375,337.6056 123.2813,337.6056 Q123.9063,337.6056 124.5,337.34 Q125.0938,337.0588 125.7188,336.4806 L125.7188,339.1994 Z " fill="#000000"/><a href="https://bo4e.github.io/BO4E-python/latest/api/bo4e.bo.html#bo4e.bo.preisblattmessung.PreisblattMessung" target="_top" title="https://bo4e.github.io/BO4E-python/latest/api/bo4e.bo.html#bo4e.bo.preisblattmessung.PreisblattMessung" xlink:actuate="onRequest" xlink:href="https://bo4e.github.io/BO4E-python/latest/api/bo4e.bo.html#bo4e.bo.preisblattmessung.PreisblattMessung" xlink:show="new" xlink:title="https://bo4e.github.io/BO4E-python/latest/api/bo4e.bo.html#bo4e.bo.preisblattmessung.PreisblattMessung" xlink:type="simple"><text fill="#0000FF" font-family="sans-serif" font-size="14" lengthAdjust="spacing" text-decoration="underline" textLength="128" x="144.75" y="332.5851">PreisblattMessung</text></a><text fill="#000000" font-family="sans-serif" font-size="10" lengthAdjust="spacing" textLength="131" x="143.25" y="345.1691">bo4e.bo.preisblattmessung</text><line style="stroke:#181818;stroke-width:0.5;" x1="8" x2="377" y1="352.5275" y2="352.5275"/><text fill="#000000" font-family="sans-serif" font-size="14" lengthAdjust="spacing" textLength="359" x="13" y="369.5226">_version : str [0..1] = 202401.4.1.dev7+g77d64894</text><text fill="#000000" font-family="sans-serif" font-size="14" lengthAdjust="spacing" textLength="311" x="13" y="385.8195">zusatzAttribute : ZusatzAttribut [0..*] = None</text><text fill="#000000" font-family="sans-serif" font-size="14" lengthAdjust="spacing" textLength="147" x="13" y="402.1164">_id : str [0..1] = None</text></g><!--link PreisblattMessung to Preisblatt--><g id="link_PreisblattMessung_Preisblatt"><path codeLine="21" d="M282.34,314.12 C320.32,294.93 365.6,273.69 408,258 C481.7,230.73 502.93,232.72 579,213 C607.29,205.67 621.2751,202.0657 647.6251,195.3657 " fill="none" id="PreisblattMessung-to-Preisblatt" style="stroke:#181818;stroke-width:1.0;"/><polygon fill="none" points="665.07,190.93,646.1465,189.5507,649.1037,201.1807,665.07,190.93" style="stroke:#181818;stroke-width:1.0;"/></g><!--link PreisblattMessung to Typ--><g id="link_PreisblattMessung_Typ"><path codeLine="22" d="M318.23,409.85 C347.44,420.2 378.62,430.56 408,439 C499.61,465.33 596.8702,484.8973 659.9602,496.5673 " fill="none" id="PreisblattMessung-to-Typ" style="stroke:#181818;stroke-width:1.0;"/><polygon fill="#181818" points="671.76,498.75,666.5876,493.7254,659.9602,496.5673,665.1325,501.5919,671.76,498.75" style="stroke:#181818;stroke-width:1.0;"/><text fill="#000000" font-family="sans-serif" font-size="13" lengthAdjust="spacing" textLength="27" x="476" y="435.0669">_typ</text><text fill="#000000" font-family="sans-serif" font-size="13" lengthAdjust="spacing" textLength="24" x="639.8089" y="510.6119">0..1</text></g><!--link PreisblattMessung to Bilanzierungsmethode--><g id="link_PreisblattMessung_Bilanzierungsmethode"><path codeLine="23" d="M378.3,362 C461.88,362 545.23,362 614.59,362 " fill="none" id="PreisblattMessung-to-Bilanzierungsmethode" style="stroke:#181818;stroke-width:1.0;"/><polygon fill="#181818" points="626.59,362,620.59,358,614.59,362,620.59,366,626.59,362" style="stroke:#181818;stroke-width:1.0;"/><text fill="#000000" font-family="sans-serif" font-size="13" lengthAdjust="spacing" textLength="142" x="418.5" y="358.0669">bilanzierungsmethode</text><text fill="#000000" font-family="sans-serif" font-size="13" lengthAdjust="spacing" textLength="24" x="595.1718" y="374.5753">0..1</text></g><!--link PreisblattMessung to Netzebene--><g id="link_PreisblattMessung_Netzebene"><path codeLine="24" d="M378.3,387.43 C473.54,400.53 572.1722,414.1032 642.1122,423.7332 " fill="none" id="PreisblattMessung-to-Netzebene" style="stroke:#181818;stroke-width:1.0;"/><polygon fill="#181818" points="654,425.37,648.6017,420.589,642.1122,423.7332,647.5105,428.5142,654,425.37" style="stroke:#181818;stroke-width:1.0;"/><text fill="#000000" font-family="sans-serif" font-size="13" lengthAdjust="spacing" textLength="75" x="452" y="388.0669">messebene</text><text fill="#000000" font-family="sans-serif" font-size="13" lengthAdjust="spacing" textLength="24" x="622.6078" y="437.2532">0..1</text></g><!--link PreisblattMessung to Zaehler--><g id="link_PreisblattMessung_Zaehler"><path codeLine="25" d="M253.57,314.31 C295.34,282.53 353.15,241.21 408,211 C480.08,171.3 500.93,166.02 579,140 C608.7,130.1 630.8921,124.0815 658.4221,117.5715 " fill="none" id="PreisblattMessung-to-Zaehler" style="stroke:#181818;stroke-width:1.0;"/><polygon fill="#181818" points="670.1,114.81,663.3405,112.2981,658.4221,117.5715,665.1815,120.0834,670.1,114.81" style="stroke:#181818;stroke-width:1.0;"/><text fill="#000000" font-family="sans-serif" font-size="13" lengthAdjust="spacing" textLength="47" x="466" y="140.0669">zaehler</text><text fill="#000000" font-family="sans-serif" font-size="13" lengthAdjust="spacing" textLength="24" x="638.3647" y="129.1174">0..1</text></g><!--link PreisblattMessung to Dienstleistungstyp--><g id="link_PreisblattMessung_Dienstleistungstyp"><path codeLine="26" d="M253.11,409.65 C294.44,440.56 351.93,479.51 408,504 C481.73,536.21 559.4768,554.311 624.3968,565.901 " fill="none" id="PreisblattMessung-to-Dienstleistungstyp" style="stroke:#181818;stroke-width:1.0;"/><polygon fill="#181818" points="636.21,568.01,631.0064,563.0178,624.3968,565.901,629.6004,570.8932,636.21,568.01" style="stroke:#181818;stroke-width:1.0;"/><text fill="#000000" font-family="sans-serif" font-size="13" lengthAdjust="spacing" textLength="161" x="409" y="500.0669">inklusiveDienstleistungen</text><text fill="#000000" font-family="sans-serif" font-size="13" lengthAdjust="spacing" textLength="23" x="605.5315" y="579.6617">0..*</text></g><!--link PreisblattMessung to Geraet--><g id="link_PreisblattMessung_Geraet"><path codeLine="27" d="M378.3,322.64 C482.06,300.53 592.2333,277.07 660.0233,262.63 " fill="none" id="PreisblattMessung-to-Geraet" style="stroke:#181818;stroke-width:1.0;"/><polygon fill="#181818" points="671.76,260.13,665.0583,257.4678,660.0233,262.63,666.725,265.2922,671.76,260.13" style="stroke:#181818;stroke-width:1.0;"/><text fill="#000000" font-family="sans-serif" font-size="13" lengthAdjust="spacing" textLength="106" x="436.5" y="279.0669">inklusiveGeraete</text><text fill="#000000" font-family="sans-serif" font-size="13" lengthAdjust="spacing" textLength="23" x="640.8698" y="274.4757">0..*</text></g><!--SRC=[hLNVRvim47ukVyKfUSiK9-bOqw6jKgDEUrgtXpqrGnM4ArW3W_2HAQpxtsSCIMWnMwJmWCoTxyTtli_d69y8A8MSXn51m7FS44-5PMrYJqeOhTSHKIQTsSnFRMGXfwZm6Kzdgw_sfscseoWLizWZb3JpCbvR-IcBA8d7Uo7BaKjVML62KXOYPDyEcY-r1ZeQr_qXFaXUehEOt_H66e4dkxxmsxfut68kLIdWWAGSrdF65YvyXClvfJrVC9ijM83RvPjmkGokxEltjdLH5jAZyfOevtv1g3mVNcXqa4aLv3uLg5Bmu7LqlV77ieId06RU1iyxGcW4rzM5DXACLrTtozlhgimX-rHw6CMOiuTwXMOrTgAnrR0Qks7175lTOakhrV_XnojY38ijnDn3Of_r0lLYn5CRQYorbUB6kTH0KIGjSbHYcnwL3EDWiNdxxco275ADZwBFOq-K77DrpsI2oYz0jZ8emQJidb9lK5sIASRmDGca4dqKoExtVt3uwu5yyD4u3zR3WwDTnhxlCb1V3nHbeK4eY-7J1no5f5XT9AfwKA6vwwYWg-h1sWsdeNVzgobgU2Ucq-UR_HniRPjCbUq4HjLa7XslXZvA1nwh32Vx6EdjW8crfmSzKis1wZMhwNEAkwfyFw8TQ0RnFnqdxRo6xZd0nS-ua7oBBtTHd1HN0MfcOIjIhK7BYhWwhGGJNpt8bepINs28-SGn3kHV]--></g></svg>