<svg xmlns="http://www.w3.org/2000/svg" xmlns:xlink="http://www.w3.org/1999/xlink" contentStyleType="text/css" data-diagram-type="CLASS" height="428px" preserveAspectRatio="none" style="width:858px;height:428px;background:#FFFFFF;" version="1.1" viewBox="0 0 858 428" width="858px" zoomAndPan="magnify"><defs/><g><!--cluster bo4e--><g class="cluster" data-entity="bo4e" data-source-line="10" data-uid="ent0005" id="cluster_bo4e"><path d="M570.24,6 L610.116,6 A3.75,3.75 0 0 1 612.616,8.5 L619.616,28.2969 L848.81,28.2969 A2.5,2.5 0 0 1 851.31,30.7969 L851.31,418.5 A2.5,2.5 0 0 1 848.81,421 L570.24,421 A2.5,2.5 0 0 1 567.74,418.5 L567.74,8.5 A2.5,2.5 0 0 1 570.24,6" fill="none" style="stroke:#000000;stroke-width:1.5;"/><line style="stroke:#000000;stroke-width:1.5;" x1="567.74" x2="619.616" y1="28.2969" y2="28.2969"/><text fill="#000000" font-family="sans-serif" font-size="14" font-weight="bold" lengthAdjust="spacing" textLength="38.876" x="571.74" y="20.9951">bo4e</text></g><!--cluster bo--><g class="cluster" data-entity="bo" data-source-line="9" data-uid="ent0003" id="cluster_bo"><path d="M634.27,49 L699.104,49 A3.75,3.75 0 0 1 701.604,51.5 L708.604,71.2969 L784.77,71.2969 A2.5,2.5 0 0 1 787.27,73.7969 L787.27,208.5 A2.5,2.5 0 0 1 784.77,211 L634.27,211 A2.5,2.5 0 0 1 631.77,208.5 L631.77,51.5 A2.5,2.5 0 0 1 634.27,49" fill="#B6D7A8" style="stroke:#000000;stroke-width:1.5;"/><line style="stroke:#000000;stroke-width:1.5;" x1="631.77" x2="708.604" y1="71.2969" y2="71.2969"/><a href="file:////home/runner/work/BO4E-python/BO4E-python/docs/../.tox/docs/tmp/html/api/bo4e.bo.html" target="_top" title="file:////home/runner/work/BO4E-python/BO4E-python/docs/../.tox/docs/tmp/html/api/bo4e.bo.html" xlink:actuate="onRequest" xlink:href="file:////home/runner/work/BO4E-python/BO4E-python/docs/../.tox/docs/tmp/html/api/bo4e.bo.html" xlink:show="new" xlink:title="file:////home/runner/work/BO4E-python/BO4E-python/docs/../.tox/docs/tmp/html/api/bo4e.bo.html" xlink:type="simple"><text fill="#0000FF" font-family="sans-serif" font-size="14" font-weight="bold" lengthAdjust="spacing" text-decoration="underline" textLength="63.834" x="635.77" y="63.9951">bo4e.bo</text></a></g><!--cluster enum--><g class="cluster" data-entity="enum" data-source-line="13" data-uid="ent0007" id="cluster_enum"><path d="M594.24,235 L683.4509,235 A3.75,3.75 0 0 1 685.9509,237.5 L692.9509,257.2969 L824.81,257.2969 A2.5,2.5 0 0 1 827.31,259.7969 L827.31,394.5 A2.5,2.5 0 0 1 824.81,397 L594.24,397 A2.5,2.5 0 0 1 591.74,394.5 L591.74,237.5 A2.5,2.5 0 0 1 594.24,235" fill="#D1C358" style="stroke:#000000;stroke-width:1.5;"/><line style="stroke:#000000;stroke-width:1.5;" x1="591.74" x2="692.9509" y1="257.2969" y2="257.2969"/><a href="file:////home/runner/work/BO4E-python/BO4E-python/docs/../.tox/docs/tmp/html/api/bo4e.enum.html" target="_top" title="file:////home/runner/work/BO4E-python/BO4E-python/docs/../.tox/docs/tmp/html/api/bo4e.enum.html" xlink:actuate="onRequest" xlink:href="file:////home/runner/work/BO4E-python/BO4E-python/docs/../.tox/docs/tmp/html/api/bo4e.enum.html" xlink:show="new" xlink:title="file:////home/runner/work/BO4E-python/BO4E-python/docs/../.tox/docs/tmp/html/api/bo4e.enum.html" xlink:type="simple"><text fill="#0000FF" font-family="sans-serif" font-size="14" font-weight="bold" lengthAdjust="spacing" text-decoration="underline" textLength="88.2109" x="595.74" y="249.9951">bo4e.enum</text></a></g><!--class Preisblatt--><g class="entity" data-entity="Preisblatt" data-source-line="10" data-uid="ent0004" id="entity_Preisblatt"><rect fill="#F1F1F1" height="37.9375" rx="2.5" ry="2.5" style="stroke:#181818;stroke-width:0.5;" width="123.499" x="647.77" y="84.03"/><ellipse cx="662.77" cy="102.9987" fill="#ADD1B2" rx="11" ry="11" style="stroke:#181818;stroke-width:1;"/><path d="M665.7388,108.6394 Q665.1606,108.9362 664.52,109.0769 Q663.8794,109.2331 663.1763,109.2331 Q660.6763,109.2331 659.3481,107.5925 Q658.0356,105.9362 658.0356,102.8112 Q658.0356,99.6862 659.3481,98.03 Q660.6763,96.3737 663.1763,96.3737 Q663.8794,96.3737 664.52,96.53 Q665.1763,96.6862 665.7388,96.9831 L665.7388,99.7019 Q665.1138,99.1237 664.52,98.8581 Q663.9263,98.5769 663.3013,98.5769 Q661.9575,98.5769 661.27,99.655 Q660.5825,100.7175 660.5825,102.8112 Q660.5825,104.905 661.27,105.9831 Q661.9575,107.0456 663.3013,107.0456 Q663.9263,107.0456 664.52,106.78 Q665.1138,106.4987 665.7388,105.9206 L665.7388,108.6394 Z " fill="#000000"/><a href="file:////home/runner/work/BO4E-python/BO4E-python/docs/../.tox/docs/tmp/html/api/bo4e.bo.html#bo4e.bo.preisblatt.Preisblatt" target="_top" title="file:////home/runner/work/BO4E-python/BO4E-python/docs/../.tox/docs/tmp/html/api/bo4e.bo.html#bo4e.bo.preisblatt.Preisblatt" xlink:actuate="onRequest" xlink:href="file:////home/runner/work/BO4E-python/BO4E-python/docs/../.tox/docs/tmp/html/api/bo4e.bo.html#bo4e.bo.preisblatt.Preisblatt" xlink:show="new" xlink:title="file:////home/runner/work/BO4E-python/BO4E-python/docs/../.tox/docs/tmp/html/api/bo4e.bo.html#bo4e.bo.preisblatt.Preisblatt" xlink:type="simple"><text fill="#0000FF" font-family="sans-serif" font-size="14" lengthAdjust="spacing" text-decoration="underline" textLength="66.3291" x="689.355" y="102.0251">Preisblatt</text></a><text fill="#000000" font-family="sans-serif" font-size="10" lengthAdjust="spacing" textLength="91.499" x="676.77" y="114.6091">bo4e.bo.preisblatt</text></g><!--class Geraet--><g class="entity" data-entity="Geraet" data-source-line="11" data-uid="ent0006" id="entity_Geraet"><rect fill="#F1F1F1" height="37.9375" rx="2.5" ry="2.5" style="stroke:#181818;stroke-width:0.5;" width="108.6162" x="655.22" y="157.03"/><ellipse cx="670.22" cy="175.9987" fill="#ADD1B2" rx="11" ry="11" style="stroke:#181818;stroke-width:1;"/><path d="M673.1888,181.6394 Q672.6106,181.9362 671.97,182.0769 Q671.3294,182.2331 670.6263,182.2331 Q668.1263,182.2331 666.7981,180.5925 Q665.4856,178.9362 665.4856,175.8112 Q665.4856,172.6862 666.7981,171.03 Q668.1263,169.3737 670.6263,169.3737 Q671.3294,169.3737 671.97,169.53 Q672.6263,169.6862 673.1888,169.9831 L673.1888,172.7019 Q672.5638,172.1237 671.97,171.8581 Q671.3763,171.5769 670.7513,171.5769 Q669.4075,171.5769 668.72,172.655 Q668.0325,173.7175 668.0325,175.8112 Q668.0325,177.905 668.72,178.9831 Q669.4075,180.0456 670.7513,180.0456 Q671.3763,180.0456 671.97,179.78 Q672.5638,179.4987 673.1888,178.9206 L673.1888,181.6394 Z " fill="#000000"/><a href="file:////home/runner/work/BO4E-python/BO4E-python/docs/../.tox/docs/tmp/html/api/bo4e.bo.html#bo4e.bo.geraet.Geraet" target="_top" title="file:////home/runner/work/BO4E-python/BO4E-python/docs/../.tox/docs/tmp/html/api/bo4e.bo.html#bo4e.bo.geraet.Geraet" xlink:actuate="onRequest" xlink:href="file:////home/runner/work/BO4E-python/BO4E-python/docs/../.tox/docs/tmp/html/api/bo4e.bo.html#bo4e.bo.geraet.Geraet" xlink:show="new" xlink:title="file:////home/runner/work/BO4E-python/BO4E-python/docs/../.tox/docs/tmp/html/api/bo4e.bo.html#bo4e.bo.geraet.Geraet" xlink:type="simple"><text fill="#0000FF" font-family="sans-serif" font-size="14" lengthAdjust="spacing" text-decoration="underline" textLength="47.8994" x="698.5784" y="175.0251">Geraet</text></a><text fill="#000000" font-family="sans-serif" font-size="10" lengthAdjust="spacing" textLength="76.6162" x="684.22" y="187.6091">bo4e.bo.geraet</text></g><!--class Dienstleistungstyp--><g class="entity" data-entity="Dienstleistungstyp" data-source-line="14" data-uid="ent0008" id="entity_Dienstleistungstyp"><rect fill="#F1F1F1" height="37.9375" rx="2.5" ry="2.5" style="stroke:#181818;stroke-width:0.5;" width="183.9141" x="617.57" y="270.03"/><ellipse cx="632.57" cy="288.9988" fill="#ADD1B2" rx="11" ry="11" style="stroke:#181818;stroke-width:1;"/><path d="M635.5388,294.6394 Q634.9606,294.9363 634.32,295.0769 Q633.6794,295.2331 632.9763,295.2331 Q630.4763,295.2331 629.1481,293.5925 Q627.8356,291.9363 627.8356,288.8113 Q627.8356,285.6863 629.1481,284.03 Q630.4763,282.3738 632.9763,282.3738 Q633.6794,282.3738 634.32,282.53 Q634.9763,282.6863 635.5388,282.9831 L635.5388,285.7019 Q634.9138,285.1238 634.32,284.8581 Q633.7263,284.5769 633.1013,284.5769 Q631.7575,284.5769 631.07,285.655 Q630.3825,286.7175 630.3825,288.8113 Q630.3825,290.905 631.07,291.9831 Q631.7575,293.0456 633.1013,293.0456 Q633.7263,293.0456 634.32,292.78 Q634.9138,292.4988 635.5388,291.9206 L635.5388,294.6394 Z " fill="#000000"/><a href="file:////home/runner/work/BO4E-python/BO4E-python/docs/../.tox/docs/tmp/html/api/bo4e.enum.html#bo4e.enum.dienstleistungstyp.Dienstleistungstyp" target="_top" title="file:////home/runner/work/BO4E-python/BO4E-python/docs/../.tox/docs/tmp/html/api/bo4e.enum.html#bo4e.enum.dienstleistungstyp.Dienstleistungstyp" xlink:actuate="onRequest" xlink:href="file:////home/runner/work/BO4E-python/BO4E-python/docs/../.tox/docs/tmp/html/api/bo4e.enum.html#bo4e.enum.dienstleistungstyp.Dienstleistungstyp" xlink:show="new" xlink:title="file:////home/runner/work/BO4E-python/BO4E-python/docs/../.tox/docs/tmp/html/api/bo4e.enum.html#bo4e.enum.dienstleistungstyp.Dienstleistungstyp" xlink:type="simple"><text fill="#0000FF" font-family="sans-serif" font-size="14" lengthAdjust="spacing" text-decoration="underline" textLength="130.7031" x="657.1755" y="288.0251">Dienstleistungstyp</text></a><text fill="#000000" font-family="sans-serif" font-size="10" lengthAdjust="spacing" textLength="151.9141" x="646.57" y="300.6091">bo4e.enum.dienstleistungstyp</text></g><!--class Bilanzierungsmethode--><g class="entity" data-entity="Bilanzierungsmethode" data-source-line="15" data-uid="ent0009" id="entity_Bilanzierungsmethode"><rect fill="#F1F1F1" height="37.9375" rx="2.5" ry="2.5" style="stroke:#181818;stroke-width:0.5;" width="203.5723" x="607.74" y="343.03"/><ellipse cx="622.74" cy="361.9988" fill="#ADD1B2" rx="11" ry="11" style="stroke:#181818;stroke-width:1;"/><path d="M625.7088,367.6394 Q625.1306,367.9363 624.49,368.0769 Q623.8494,368.2331 623.1463,368.2331 Q620.6463,368.2331 619.3181,366.5925 Q618.0056,364.9363 618.0056,361.8113 Q618.0056,358.6863 619.3181,357.03 Q620.6463,355.3738 623.1463,355.3738 Q623.8494,355.3738 624.49,355.53 Q625.1463,355.6863 625.7088,355.9831 L625.7088,358.7019 Q625.0838,358.1238 624.49,357.8581 Q623.8963,357.5769 623.2713,357.5769 Q621.9275,357.5769 621.24,358.655 Q620.5525,359.7175 620.5525,361.8113 Q620.5525,363.905 621.24,364.9831 Q621.9275,366.0456 623.2713,366.0456 Q623.8963,366.0456 624.49,365.78 Q625.0838,365.4988 625.7088,364.9206 L625.7088,367.6394 Z " fill="#000000"/><a href="file:////home/runner/work/BO4E-python/BO4E-python/docs/../.tox/docs/tmp/html/api/bo4e.enum.html#bo4e.enum.bilanzierungsmethode.Bilanzierungsmethode" target="_top" title="file:////home/runner/work/BO4E-python/BO4E-python/docs/../.tox/docs/tmp/html/api/bo4e.enum.html#bo4e.enum.bilanzierungsmethode.Bilanzierungsmethode" xlink:actuate="onRequest" xlink:href="file:////home/runner/work/BO4E-python/BO4E-python/docs/../.tox/docs/tmp/html/api/bo4e.enum.html#bo4e.enum.bilanzierungsmethode.Bilanzierungsmethode" xlink:show="new" xlink:title="file:////home/runner/work/BO4E-python/BO4E-python/docs/../.tox/docs/tmp/html/api/bo4e.enum.html#bo4e.enum.bilanzierungsmethode.Bilanzierungsmethode" xlink:type="simple"><text fill="#0000FF" font-family="sans-serif" font-size="14" lengthAdjust="spacing" text-decoration="underline" textLength="157.0488" x="644.0017" y="361.0251">Bilanzierungsmethode</text></a><text fill="#000000" font-family="sans-serif" font-size="10" lengthAdjust="spacing" textLength="171.5723" x="636.74" y="373.6091">bo4e.enum.bilanzierungsmethode</text></g><!--class PreisblattDienstleistung--><g class="entity" data-entity="PreisblattDienstleistung" data-source-line="3" data-uid="ent0002" id="entity_PreisblattDienstleistung"><rect fill="#F1F1F1" height="94.8281" rx="2.5" ry="2.5" style="stroke:#181818;stroke-width:0.5;" width="345.7373" x="7" y="185.59"/><ellipse cx="92.0801" cy="204.5588" fill="#ADD1B2" rx="11" ry="11" style="stroke:#181818;stroke-width:1;"/><path d="M95.0488,210.1994 Q94.4707,210.4963 93.8301,210.6369 Q93.1895,210.7931 92.4863,210.7931 Q89.9863,210.7931 88.6582,209.1525 Q87.3457,207.4963 87.3457,204.3713 Q87.3457,201.2463 88.6582,199.59 Q89.9863,197.9338 92.4863,197.9338 Q93.1895,197.9338 93.8301,198.09 Q94.4863,198.2463 95.0488,198.5431 L95.0488,201.2619 Q94.4238,200.6838 93.8301,200.4181 Q93.2363,200.1369 92.6113,200.1369 Q91.2676,200.1369 90.5801,201.215 Q89.8926,202.2775 89.8926,204.3713 Q89.8926,206.465 90.5801,207.5431 Q91.2676,208.6056 92.6113,208.6056 Q93.2363,208.6056 93.8301,208.34 Q94.4238,208.0588 95.0488,207.4806 L95.0488,210.1994 Z " fill="#000000"/><a href="file:////home/runner/work/BO4E-python/BO4E-python/docs/../.tox/docs/tmp/html/api/bo4e.bo.html#bo4e.bo.preisblattdienstleistung.PreisblattDienstleistung" target="_top" title="file:////home/runner/work/BO4E-python/BO4E-python/docs/../.tox/docs/tmp/html/api/bo4e.bo.html#bo4e.bo.preisblattdienstleistung.PreisblattDienstleistung" xlink:actuate="onRequest" xlink:href="file:////home/runner/work/BO4E-python/BO4E-python/docs/../.tox/docs/tmp/html/api/bo4e.bo.html#bo4e.bo.preisblattdienstleistung.PreisblattDienstleistung" xlink:show="new" xlink:title="file:////home/runner/work/BO4E-python/BO4E-python/docs/../.tox/docs/tmp/html/api/bo4e.bo.html#bo4e.bo.preisblattdienstleistung.PreisblattDienstleistung" xlink:type="simple"><text fill="#0000FF" font-family="sans-serif" font-size="14" lengthAdjust="spacing" text-decoration="underline" textLength="167.0771" x="112.5801" y="203.5851">PreisblattDienstleistung</text></a><text fill="#000000" font-family="sans-serif" font-size="10" lengthAdjust="spacing" textLength="162.1094" x="115.064" y="216.1691">bo4e.bo.preisblattdienstleistung</text><line style="stroke:#181818;stroke-width:0.5;" x1="8" x2="351.7373" y1="223.5275" y2="223.5275"/><text fill="#000000" font-family="sans-serif" font-size="14" lengthAdjust="spacing" textLength="333.7373" x="13" y="240.5226">_version : str [0..1] = 202501.0.0+g7dbb0e457</text><text fill="#000000" font-family="sans-serif" font-size="14" lengthAdjust="spacing" textLength="318.5752" x="13" y="256.8195">zusatzAttribute : ZusatzAttribut [0..*] = None</text><text fill="#000000" font-family="sans-serif" font-size="14" lengthAdjust="spacing" textLength="151.1768" x="13" y="273.1164">_id : str [0..1] = None</text></g><!--link PreisblattDienstleistung to Preisblatt--><g class="link" data-entity-1="PreisblattDienstleistung" data-entity-2="Preisblatt" data-source-line="18" data-uid="lnk10" id="link_PreisblattDienstleistung_Preisblatt"><path codeLine="18" d="M328.39,185.1 C346.62,179.74 365.05,174.57 382.74,170 C474.15,146.4 563.979,128.8226 629.749,116.8926" fill="none" id="PreisblattDienstleistung-to-Preisblatt" style="stroke:#181818;stroke-width:1;"/><polygon fill="none" points="647.46,113.68,628.6781,110.9889,630.8199,122.7963,647.46,113.68" style="stroke:#181818;stroke-width:1;"/></g><!--link PreisblattDienstleistung to Bilanzierungsmethode--><g class="link" data-entity-1="PreisblattDienstleistung" data-entity-2="Bilanzierungsmethode" data-source-line="19" data-uid="lnk11" id="link_PreisblattDienstleistung_Bilanzierungsmethode"><path codeLine="19" d="M265.85,280.77 C301,298.45 342.82,316.87 382.74,328 C456.28,348.5 530.2954,356.2413 595.4654,359.5513" fill="none" id="PreisblattDienstleistung-to-Bilanzierungsmethode" style="stroke:#181818;stroke-width:1;"/><polygon fill="#181818" points="607.45,360.16,601.6606,355.8608,595.4654,359.5513,601.2548,363.8505,607.45,360.16" style="stroke:#181818;stroke-width:1;"/><text fill="#000000" font-family="sans-serif" font-size="13" lengthAdjust="spacing" textLength="145.1646" x="394.74" y="324.0669">bilanzierungsmethode</text><text fill="#000000" font-family="sans-serif" font-size="13" lengthAdjust="spacing" textLength="24.8066" x="575.1022" y="372.6475">0..1</text></g><!--link PreisblattDienstleistung to Dienstleistungstyp--><g class="link" data-entity-1="PreisblattDienstleistung" data-entity-2="Dienstleistungstyp" data-source-line="20" data-uid="lnk12" id="link_PreisblattDienstleistung_Dienstleistungstyp"><path codeLine="20" d="M353.06,250.99 C415.63,257.56 486.88,265.07 551.74,272 C572.97,274.27 583.8898,275.4377 605.3998,277.7677" fill="none" id="PreisblattDienstleistung-to-Dienstleistungstyp" style="stroke:#181818;stroke-width:1;"/><polygon fill="#181818" points="617.33,279.06,611.7957,274.4371,605.3998,277.7677,610.9341,282.3906,617.33,279.06" style="stroke:#181818;stroke-width:1;"/><text fill="#000000" font-family="sans-serif" font-size="13" lengthAdjust="spacing" textLength="125.1694" x="404.74" y="251.0669">basisdienstleistung</text><text fill="#000000" font-family="sans-serif" font-size="13" lengthAdjust="spacing" textLength="24.8066" x="584.7346" y="290.9304">0..1</text></g><!--link PreisblattDienstleistung to Dienstleistungstyp--><g class="link" data-entity-1="PreisblattDienstleistung" data-entity-2="Dienstleistungstyp" data-source-line="21" data-uid="lnk13" id="link_PreisblattDienstleistung_Dienstleistungstyp"><path codeLine="21" d="M311.68,280.85 C335.05,287.56 359.39,293.39 382.74,297 C456.97,308.48 476.65,298.91 551.74,297 C572.99,296.46 583.8645,296.0906 605.3745,295.0306" fill="none" id="PreisblattDienstleistung-to-Dienstleistungstyp-1" style="stroke:#181818;stroke-width:1;"/><polygon fill="#181818" points="617.36,294.44,611.1704,290.7402,605.3745,295.0306,611.5642,298.7305,617.36,294.44" style="stroke:#181818;stroke-width:1;"/><text fill="#000000" font-family="sans-serif" font-size="13" lengthAdjust="spacing" textLength="167.0957" x="383.74" y="293.0669">inklusiveDienstleistungen</text><text fill="#000000" font-family="sans-serif" font-size="13" lengthAdjust="spacing" textLength="23.0356" x="586.4244" y="307.5028">0..*</text></g><!--link PreisblattDienstleistung to Geraet--><g class="link" data-entity-1="PreisblattDienstleistung" data-entity-2="Geraet" data-source-line="22" data-uid="lnk14" id="link_PreisblattDienstleistung_Geraet"><path codeLine="22" d="M352.91,214.41 C457.72,203.09 572.6794,190.6789 643.0294,183.0789" fill="none" id="PreisblattDienstleistung-to-Geraet" style="stroke:#181818;stroke-width:1;"/><polygon fill="#181818" points="654.96,181.79,648.5651,178.4576,643.0294,183.0789,649.4243,186.4113,654.96,181.79" style="stroke:#181818;stroke-width:1;"/><text fill="#000000" font-family="sans-serif" font-size="13" lengthAdjust="spacing" textLength="93.9644" x="420.74" y="191.0669">geraetedetails</text><text fill="#000000" font-family="sans-serif" font-size="13" lengthAdjust="spacing" textLength="24.8066" x="622.4826" y="195.5683">0..1</text></g><!--SRC=[nLN1Rjim33tNNq4ajmoHdIvPXc0hq233RjlEoun2jfbOg2mP4jsksVRla-sqjHkxMGzBVP4VAJwGV3GjSKD06epOfWI9C1YJqChpOicjXS5wlH4I5xvxKfsXRmgbqFYtsbpxow_JJ-FyZbAjMk-9ZgtFcCz8_wm1PRcVKYPzdWi_qbDaaMQbONWFSeF2Hf8J9GAL9UaW5MhBlZquLYq7z3d2y8VwOCKE5vFWuXZz0BZjPO9VtjdL3Hhh6W8Bi6HW7J0s2U4Zd0Vdis320XQysSwJA0fmEfjxPxl2SjfT4XaH5OGkwdlBKX6CIe8lMg6Z5ybJvihnn_CKpz3cFCR_BWBiGHXMxTWZ62xVhUQNxyiklDemDEHlo7H4uYUYdZpzBHgEn3vN1zH7PyhrnIhT-fRJ_GIoeogoXl0bR4fVOXWca_Zjx1JYFsGpV8JjZzJINSvM1oOuD1rskOUkglOm_bMAZOJaQYVGb4bawBWIPCiE8tGPUqhk8gsAxk8erqt_eXsFVr_SBuN6hMSYNCW81kL26poEL7T92-ZAzCNS7TFXcBaLjgtzln2FZX8BTIqBAswmxKNrahnTC_SROW7r8i04YGjfFIyLhZKPPf7x-NWsrRVGJxmHA1Fx5m00]--></g></svg>