<svg xmlns="http://www.w3.org/2000/svg" xmlns:xlink="http://www.w3.org/1999/xlink" contentStyleType="text/css" data-diagram-type="CLASS" height="428px" preserveAspectRatio="none" style="width:827px;height:428px;background:#FFFFFF;" version="1.1" viewBox="0 0 827 428" width="827px" zoomAndPan="magnify"><defs/><g><!--cluster bo4e--><g class="cluster" data-entity="bo4e" data-source-line="10" data-uid="ent0005" id="cluster_bo4e"><path d="M539.64,6 L579.516,6 A3.75,3.75 0 0 1 582.016,8.5 L589.016,28.2969 L818.22,28.2969 A2.5,2.5 0 0 1 820.72,30.7969 L820.72,418.5 A2.5,2.5 0 0 1 818.22,421 L539.64,421 A2.5,2.5 0 0 1 537.14,418.5 L537.14,8.5 A2.5,2.5 0 0 1 539.64,6" fill="none" style="stroke:#000000;stroke-width:1.5;"/><line style="stroke:#000000;stroke-width:1.5;" x1="537.14" x2="589.016" y1="28.2969" y2="28.2969"/><text fill="#000000" font-family="sans-serif" font-size="14" font-weight="bold" lengthAdjust="spacing" textLength="38.876" x="541.14" y="20.9951">bo4e</text></g><!--cluster bo--><g class="cluster" data-entity="bo" data-source-line="9" data-uid="ent0003" id="cluster_bo"><path d="M603.68,49 L668.514,49 A3.75,3.75 0 0 1 671.014,51.5 L678.014,71.2969 L754.18,71.2969 A2.5,2.5 0 0 1 756.68,73.7969 L756.68,135.5 A2.5,2.5 0 0 1 754.18,138 L603.68,138 A2.5,2.5 0 0 1 601.18,135.5 L601.18,51.5 A2.5,2.5 0 0 1 603.68,49" fill="#B6D7A8" style="stroke:#000000;stroke-width:1.5;"/><line style="stroke:#000000;stroke-width:1.5;" x1="601.18" x2="678.014" y1="71.2969" y2="71.2969"/><a href="file:////home/runner/work/BO4E-python/BO4E-python/docs/../.tox/docs/tmp/html/api/bo4e.bo.html" target="_top" title="file:////home/runner/work/BO4E-python/BO4E-python/docs/../.tox/docs/tmp/html/api/bo4e.bo.html" xlink:actuate="onRequest" xlink:href="file:////home/runner/work/BO4E-python/BO4E-python/docs/../.tox/docs/tmp/html/api/bo4e.bo.html" xlink:show="new" xlink:title="file:////home/runner/work/BO4E-python/BO4E-python/docs/../.tox/docs/tmp/html/api/bo4e.bo.html" xlink:type="simple"><text fill="#0000FF" font-family="sans-serif" font-size="14" font-weight="bold" lengthAdjust="spacing" text-decoration="underline" textLength="63.834" x="605.18" y="63.9951">bo4e.bo</text></a></g><!--cluster enum--><g class="cluster" data-entity="enum" data-source-line="12" data-uid="ent0006" id="cluster_enum"><path d="M563.64,162 L652.8509,162 A3.75,3.75 0 0 1 655.3509,164.5 L662.3509,184.2969 L794.22,184.2969 A2.5,2.5 0 0 1 796.72,186.7969 L796.72,394.5 A2.5,2.5 0 0 1 794.22,397 L563.64,397 A2.5,2.5 0 0 1 561.14,394.5 L561.14,164.5 A2.5,2.5 0 0 1 563.64,162" fill="#D1C358" style="stroke:#000000;stroke-width:1.5;"/><line style="stroke:#000000;stroke-width:1.5;" x1="561.14" x2="662.3509" y1="184.2969" y2="184.2969"/><a href="file:////home/runner/work/BO4E-python/BO4E-python/docs/../.tox/docs/tmp/html/api/bo4e.enum.html" target="_top" title="file:////home/runner/work/BO4E-python/BO4E-python/docs/../.tox/docs/tmp/html/api/bo4e.enum.html" xlink:actuate="onRequest" xlink:href="file:////home/runner/work/BO4E-python/BO4E-python/docs/../.tox/docs/tmp/html/api/bo4e.enum.html" xlink:show="new" xlink:title="file:////home/runner/work/BO4E-python/BO4E-python/docs/../.tox/docs/tmp/html/api/bo4e.enum.html" xlink:type="simple"><text fill="#0000FF" font-family="sans-serif" font-size="14" font-weight="bold" lengthAdjust="spacing" text-decoration="underline" textLength="88.2109" x="565.14" y="176.9951">bo4e.enum</text></a></g><!--class Preisblatt--><g class="entity" data-entity="Preisblatt" data-source-line="10" data-uid="ent0004" id="entity_Preisblatt"><rect fill="#F1F1F1" height="37.9375" rx="2.5" ry="2.5" style="stroke:#181818;stroke-width:0.5;" width="123.499" x="617.18" y="84.03"/><ellipse cx="632.18" cy="102.9987" fill="#ADD1B2" rx="11" ry="11" style="stroke:#181818;stroke-width:1;"/><path d="M635.1488,108.6394 Q634.5706,108.9362 633.93,109.0769 Q633.2894,109.2331 632.5863,109.2331 Q630.0863,109.2331 628.7581,107.5925 Q627.4456,105.9362 627.4456,102.8112 Q627.4456,99.6862 628.7581,98.03 Q630.0863,96.3737 632.5863,96.3737 Q633.2894,96.3737 633.93,96.53 Q634.5863,96.6862 635.1488,96.9831 L635.1488,99.7019 Q634.5238,99.1237 633.93,98.8581 Q633.3363,98.5769 632.7113,98.5769 Q631.3675,98.5769 630.68,99.655 Q629.9925,100.7175 629.9925,102.8112 Q629.9925,104.905 630.68,105.9831 Q631.3675,107.0456 632.7113,107.0456 Q633.3363,107.0456 633.93,106.78 Q634.5238,106.4987 635.1488,105.9206 L635.1488,108.6394 Z " fill="#000000"/><a href="file:////home/runner/work/BO4E-python/BO4E-python/docs/../.tox/docs/tmp/html/api/bo4e.bo.html#bo4e.bo.preisblatt.Preisblatt" target="_top" title="file:////home/runner/work/BO4E-python/BO4E-python/docs/../.tox/docs/tmp/html/api/bo4e.bo.html#bo4e.bo.preisblatt.Preisblatt" xlink:actuate="onRequest" xlink:href="file:////home/runner/work/BO4E-python/BO4E-python/docs/../.tox/docs/tmp/html/api/bo4e.bo.html#bo4e.bo.preisblatt.Preisblatt" xlink:show="new" xlink:title="file:////home/runner/work/BO4E-python/BO4E-python/docs/../.tox/docs/tmp/html/api/bo4e.bo.html#bo4e.bo.preisblatt.Preisblatt" xlink:type="simple"><text fill="#0000FF" font-family="sans-serif" font-size="14" lengthAdjust="spacing" text-decoration="underline" textLength="66.3291" x="658.765" y="102.0251">Preisblatt</text></a><text fill="#000000" font-family="sans-serif" font-size="10" lengthAdjust="spacing" textLength="91.499" x="646.18" y="114.6091">bo4e.bo.preisblatt</text></g><!--class Netzebene--><g class="entity" data-entity="Netzebene" data-source-line="13" data-uid="ent0007" id="entity_Netzebene"><rect fill="#F1F1F1" height="37.9375" rx="2.5" ry="2.5" style="stroke:#181818;stroke-width:0.5;" width="144.71" x="606.58" y="197.03"/><ellipse cx="621.58" cy="215.9988" fill="#ADD1B2" rx="11" ry="11" style="stroke:#181818;stroke-width:1;"/><path d="M624.5488,221.6394 Q623.9706,221.9363 623.33,222.0769 Q622.6894,222.2331 621.9863,222.2331 Q619.4863,222.2331 618.1581,220.5925 Q616.8456,218.9363 616.8456,215.8113 Q616.8456,212.6863 618.1581,211.03 Q619.4863,209.3738 621.9863,209.3738 Q622.6894,209.3738 623.33,209.53 Q623.9863,209.6863 624.5488,209.9831 L624.5488,212.7019 Q623.9238,212.1238 623.33,211.8581 Q622.7363,211.5769 622.1113,211.5769 Q620.7675,211.5769 620.08,212.655 Q619.3925,213.7175 619.3925,215.8113 Q619.3925,217.905 620.08,218.9831 Q620.7675,220.0456 622.1113,220.0456 Q622.7363,220.0456 623.33,219.78 Q623.9238,219.4988 624.5488,218.9206 L624.5488,221.6394 Z " fill="#000000"/><a href="file:////home/runner/work/BO4E-python/BO4E-python/docs/../.tox/docs/tmp/html/api/bo4e.enum.html#bo4e.enum.netzebene.Netzebene" target="_top" title="file:////home/runner/work/BO4E-python/BO4E-python/docs/../.tox/docs/tmp/html/api/bo4e.enum.html#bo4e.enum.netzebene.Netzebene" xlink:actuate="onRequest" xlink:href="file:////home/runner/work/BO4E-python/BO4E-python/docs/../.tox/docs/tmp/html/api/bo4e.enum.html#bo4e.enum.netzebene.Netzebene" xlink:show="new" xlink:title="file:////home/runner/work/BO4E-python/BO4E-python/docs/../.tox/docs/tmp/html/api/bo4e.enum.html#bo4e.enum.netzebene.Netzebene" xlink:type="simple"><text fill="#0000FF" font-family="sans-serif" font-size="14" lengthAdjust="spacing" text-decoration="underline" textLength="75.5234" x="654.1733" y="215.0251">Netzebene</text></a><text fill="#000000" font-family="sans-serif" font-size="10" lengthAdjust="spacing" textLength="112.71" x="635.58" y="227.6091">bo4e.enum.netzebene</text></g><!--class Bilanzierungsmethode--><g class="entity" data-entity="Bilanzierungsmethode" data-source-line="14" data-uid="ent0008" id="entity_Bilanzierungsmethode"><rect fill="#F1F1F1" height="37.9375" rx="2.5" ry="2.5" style="stroke:#181818;stroke-width:0.5;" width="203.5723" x="577.14" y="270.03"/><ellipse cx="592.14" cy="288.9988" fill="#ADD1B2" rx="11" ry="11" style="stroke:#181818;stroke-width:1;"/><path d="M595.1088,294.6394 Q594.5306,294.9363 593.89,295.0769 Q593.2494,295.2331 592.5463,295.2331 Q590.0463,295.2331 588.7181,293.5925 Q587.4056,291.9363 587.4056,288.8113 Q587.4056,285.6863 588.7181,284.03 Q590.0463,282.3738 592.5463,282.3738 Q593.2494,282.3738 593.89,282.53 Q594.5463,282.6863 595.1088,282.9831 L595.1088,285.7019 Q594.4838,285.1238 593.89,284.8581 Q593.2963,284.5769 592.6713,284.5769 Q591.3275,284.5769 590.64,285.655 Q589.9525,286.7175 589.9525,288.8113 Q589.9525,290.905 590.64,291.9831 Q591.3275,293.0456 592.6713,293.0456 Q593.2963,293.0456 593.89,292.78 Q594.4838,292.4988 595.1088,291.9206 L595.1088,294.6394 Z " fill="#000000"/><a href="file:////home/runner/work/BO4E-python/BO4E-python/docs/../.tox/docs/tmp/html/api/bo4e.enum.html#bo4e.enum.bilanzierungsmethode.Bilanzierungsmethode" target="_top" title="file:////home/runner/work/BO4E-python/BO4E-python/docs/../.tox/docs/tmp/html/api/bo4e.enum.html#bo4e.enum.bilanzierungsmethode.Bilanzierungsmethode" xlink:actuate="onRequest" xlink:href="file:////home/runner/work/BO4E-python/BO4E-python/docs/../.tox/docs/tmp/html/api/bo4e.enum.html#bo4e.enum.bilanzierungsmethode.Bilanzierungsmethode" xlink:show="new" xlink:title="file:////home/runner/work/BO4E-python/BO4E-python/docs/../.tox/docs/tmp/html/api/bo4e.enum.html#bo4e.enum.bilanzierungsmethode.Bilanzierungsmethode" xlink:type="simple"><text fill="#0000FF" font-family="sans-serif" font-size="14" lengthAdjust="spacing" text-decoration="underline" textLength="157.0488" x="613.4017" y="288.0251">Bilanzierungsmethode</text></a><text fill="#000000" font-family="sans-serif" font-size="10" lengthAdjust="spacing" textLength="171.5723" x="606.14" y="300.6091">bo4e.enum.bilanzierungsmethode</text></g><!--class Kundengruppe--><g class="entity" data-entity="Kundengruppe" data-source-line="15" data-uid="ent0009" id="entity_Kundengruppe"><rect fill="#F1F1F1" height="37.9375" rx="2.5" ry="2.5" style="stroke:#181818;stroke-width:0.5;" width="164.8564" x="596.5" y="343.03"/><ellipse cx="611.5" cy="361.9988" fill="#ADD1B2" rx="11" ry="11" style="stroke:#181818;stroke-width:1;"/><path d="M614.4688,367.6394 Q613.8906,367.9363 613.25,368.0769 Q612.6094,368.2331 611.9063,368.2331 Q609.4063,368.2331 608.0781,366.5925 Q606.7656,364.9363 606.7656,361.8113 Q606.7656,358.6863 608.0781,357.03 Q609.4063,355.3738 611.9063,355.3738 Q612.6094,355.3738 613.25,355.53 Q613.9063,355.6863 614.4688,355.9831 L614.4688,358.7019 Q613.8438,358.1238 613.25,357.8581 Q612.6563,357.5769 612.0313,357.5769 Q610.6875,357.5769 610,358.655 Q609.3125,359.7175 609.3125,361.8113 Q609.3125,363.905 610,364.9831 Q610.6875,366.0456 612.0313,366.0456 Q612.6563,366.0456 613.25,365.78 Q613.8438,365.4988 614.4688,364.9206 L614.4688,367.6394 Z " fill="#000000"/><a href="file:////home/runner/work/BO4E-python/BO4E-python/docs/../.tox/docs/tmp/html/api/bo4e.enum.html#bo4e.enum.kundengruppe.Kundengruppe" target="_top" title="file:////home/runner/work/BO4E-python/BO4E-python/docs/../.tox/docs/tmp/html/api/bo4e.enum.html#bo4e.enum.kundengruppe.Kundengruppe" xlink:actuate="onRequest" xlink:href="file:////home/runner/work/BO4E-python/BO4E-python/docs/../.tox/docs/tmp/html/api/bo4e.enum.html#bo4e.enum.kundengruppe.Kundengruppe" xlink:show="new" xlink:title="file:////home/runner/work/BO4E-python/BO4E-python/docs/../.tox/docs/tmp/html/api/bo4e.enum.html#bo4e.enum.kundengruppe.Kundengruppe" xlink:type="simple"><text fill="#0000FF" font-family="sans-serif" font-size="14" lengthAdjust="spacing" text-decoration="underline" textLength="103.2021" x="640.3271" y="361.0251">Kundengruppe</text></a><text fill="#000000" font-family="sans-serif" font-size="10" lengthAdjust="spacing" textLength="132.8564" x="625.5" y="373.6091">bo4e.enum.kundengruppe</text></g><!--class PreisblattNetznutzung--><g class="entity" data-entity="PreisblattNetznutzung" data-source-line="3" data-uid="ent0002" id="entity_PreisblattNetznutzung"><rect fill="#F1F1F1" height="94.8281" rx="2.5" ry="2.5" style="stroke:#181818;stroke-width:0.5;" width="337.1445" x="7" y="209.59"/><ellipse cx="93.5874" cy="228.5588" fill="#ADD1B2" rx="11" ry="11" style="stroke:#181818;stroke-width:1;"/><path d="M96.5562,234.1994 Q95.978,234.4963 95.3374,234.6369 Q94.6968,234.7931 93.9937,234.7931 Q91.4937,234.7931 90.1655,233.1525 Q88.853,231.4963 88.853,228.3713 Q88.853,225.2463 90.1655,223.59 Q91.4937,221.9338 93.9937,221.9338 Q94.6968,221.9338 95.3374,222.09 Q95.9937,222.2463 96.5562,222.5431 L96.5562,225.2619 Q95.9312,224.6838 95.3374,224.4181 Q94.7437,224.1369 94.1187,224.1369 Q92.7749,224.1369 92.0874,225.215 Q91.3999,226.2775 91.3999,228.3713 Q91.3999,230.465 92.0874,231.5431 Q92.7749,232.6056 94.1187,232.6056 Q94.7437,232.6056 95.3374,232.34 Q95.9312,232.0588 96.5562,231.4806 L96.5562,234.1994 Z " fill="#000000"/><a href="file:////home/runner/work/BO4E-python/BO4E-python/docs/../.tox/docs/tmp/html/api/bo4e.bo.html#bo4e.bo.preisblattnetznutzung.PreisblattNetznutzung" target="_top" title="file:////home/runner/work/BO4E-python/BO4E-python/docs/../.tox/docs/tmp/html/api/bo4e.bo.html#bo4e.bo.preisblattnetznutzung.PreisblattNetznutzung" xlink:actuate="onRequest" xlink:href="file:////home/runner/work/BO4E-python/BO4E-python/docs/../.tox/docs/tmp/html/api/bo4e.bo.html#bo4e.bo.preisblattnetznutzung.PreisblattNetznutzung" xlink:show="new" xlink:title="file:////home/runner/work/BO4E-python/BO4E-python/docs/../.tox/docs/tmp/html/api/bo4e.bo.html#bo4e.bo.preisblattnetznutzung.PreisblattNetznutzung" xlink:type="simple"><text fill="#0000FF" font-family="sans-serif" font-size="14" lengthAdjust="spacing" text-decoration="underline" textLength="155.4697" x="114.0874" y="227.5851">PreisblattNetznutzung</text></a><text fill="#000000" font-family="sans-serif" font-size="10" lengthAdjust="spacing" textLength="154.0283" x="114.8081" y="240.1691">bo4e.bo.preisblattnetznutzung</text><line style="stroke:#181818;stroke-width:0.5;" x1="8" x2="343.1445" y1="247.5275" y2="247.5275"/><text fill="#000000" font-family="sans-serif" font-size="14" lengthAdjust="spacing" textLength="325.1445" x="13" y="264.5226">_version : str [0..1] = 202501.0.0+gfbaef5da5</text><text fill="#000000" font-family="sans-serif" font-size="14" lengthAdjust="spacing" textLength="318.5752" x="13" y="280.8195">zusatzAttribute : ZusatzAttribut [0..*] = None</text><text fill="#000000" font-family="sans-serif" font-size="14" lengthAdjust="spacing" textLength="151.1768" x="13" y="297.1164">_id : str [0..1] = None</text></g><!--link PreisblattNetznutzung to Preisblatt--><g class="link" data-entity-1="PreisblattNetznutzung" data-entity-2="Preisblatt" data-source-line="18" data-uid="lnk10" id="link_PreisblattNetznutzung_Preisblatt"><path codeLine="18" d="M332.46,209.12 C428.61,179.58 529.3738,148.6363 599.6138,127.0563" fill="none" id="PreisblattNetznutzung-to-Preisblatt" style="stroke:#181818;stroke-width:1;"/><polygon fill="none" points="616.82,121.77,597.8516,121.3209,601.3759,132.7917,616.82,121.77" style="stroke:#181818;stroke-width:1;"/></g><!--link PreisblattNetznutzung to Bilanzierungsmethode--><g class="link" data-entity-1="PreisblattNetznutzung" data-entity-2="Bilanzierungsmethode" data-source-line="19" data-uid="lnk11" id="link_PreisblattNetznutzung_Bilanzierungsmethode"><path codeLine="19" d="M344.62,277.56 C354.6,278.47 364.5,279.3 374.14,280 C441.64,284.92 505.7518,286.9631 564.9018,287.9831" fill="none" id="PreisblattNetznutzung-to-Bilanzierungsmethode" style="stroke:#181818;stroke-width:1;"/><polygon fill="#181818" points="576.9,288.19,570.9699,284.0871,564.9018,287.9831,570.8319,292.086,576.9,288.19" style="stroke:#181818;stroke-width:1;"/><text fill="#000000" font-family="sans-serif" font-size="13" lengthAdjust="spacing" textLength="145.1646" x="375.14" y="276.0669">bilanzierungsmethode</text><text fill="#000000" font-family="sans-serif" font-size="13" lengthAdjust="spacing" textLength="24.8066" x="544.2008" y="300.7743">0..1</text></g><!--link PreisblattNetznutzung to Netzebene--><g class="link" data-entity-1="PreisblattNetznutzung" data-entity-2="Netzebene" data-source-line="20" data-uid="lnk12" id="link_PreisblattNetznutzung_Netzebene"><path codeLine="20" d="M344.56,243.26 C433.63,235.98 526.4299,228.3883 594.3999,222.8283" fill="none" id="PreisblattNetznutzung-to-Netzebene" style="stroke:#181818;stroke-width:1;"/><polygon fill="#181818" points="606.36,221.85,600.0539,218.3525,594.3999,222.8283,600.7061,226.3259,606.36,221.85" style="stroke:#181818;stroke-width:1;"/><text fill="#000000" font-family="sans-serif" font-size="13" lengthAdjust="spacing" textLength="68.6436" x="413.64" y="226.0669">netzebene</text><text fill="#000000" font-family="sans-serif" font-size="13" lengthAdjust="spacing" textLength="24.8066" x="573.6798" y="235.3006">0..1</text></g><!--link PreisblattNetznutzung to Kundengruppe--><g class="link" data-entity-1="PreisblattNetznutzung" data-entity-2="Kundengruppe" data-source-line="21" data-uid="lnk13" id="link_PreisblattNetznutzung_Kundengruppe"><path codeLine="21" d="M343.6,304.86 C353.91,307.39 364.15,309.79 374.14,312 C448.78,328.48 522.9429,340.4367 584.3629,349.2967" fill="none" id="PreisblattNetznutzung-to-Kundengruppe" style="stroke:#181818;stroke-width:1;"/><polygon fill="#181818" points="596.24,351.01,590.8726,346.1943,584.3629,349.2967,589.7304,354.1124,596.24,351.01" style="stroke:#181818;stroke-width:1;"/><text fill="#000000" font-family="sans-serif" font-size="13" lengthAdjust="spacing" textLength="94.834" x="400.64" y="308.0669">kundengruppe</text><text fill="#000000" font-family="sans-serif" font-size="13" lengthAdjust="spacing" textLength="24.8066" x="563.5481" y="362.7614">0..1</text></g><!--SRC=[nLJ1RjGm43tNNp7QlHMjdItTKaLGgIiu8IsSsKR8IIQ9rSIER8T2W7-l4xfPRqceUg2Raz_BpBFdpMXAp2nO1LhaXOLKQ4oiK9AGfEJ6m6oxpKI98NDVeIfakf4IDRjJ-fQjFvr_MDG_RA7amJbLYM6KCchLzp_0LZKhR5KoNWiMgtEaiQ8TCT-1MgCmSScjbMXRsTYsaJdzFB2RFGkZR1JToBT6j1WkWwj_giw0ct4D-4bEldv3RPm348An6hO1fSi8ti5PSBOAbZIWmQiyYpbcgvIlo4dR66xRQskrY1kBBklB0TCBd7O26oNHoOlqiNB_upSXabTeQfxWVtST7a0KzLuy89YlBzw_kRxiN3XQzxsMUprwehcFEkhCV04lKJQLvsO7VJyx3FDqcRnUlOIZmslcUzZDFCOeaMvs9nXEVrjwcDDNCaGVvVsnABbi1RexSbEXqqgHhaT862Cd2XmJxMiTqpXAsRUDJ57ckgbhf1yz03wOACzFxiloSxejCx5J5ujVLxj5u8LCXRluKvXr6sos7_VnteGmPldpXFVp6y8meS-JE30o1DydGWhX7bfX5RlTJqoXxc12EnDOfkOU]--></g></svg>