<svg xmlns="http://www.w3.org/2000/svg" xmlns:xlink="http://www.w3.org/1999/xlink" contentStyleType="text/css" data-diagram-type="CLASS" height="428px" preserveAspectRatio="none" style="width:836px;height:428px;background:#FFFFFF;" version="1.1" viewBox="0 0 836 428" width="836px" zoomAndPan="magnify"><defs/><g><!--cluster bo4e--><g class="cluster" data-entity="bo4e" data-source-line="10" data-uid="ent0005" id="cluster_bo4e"><path d="M548.26,6 L588.136,6 A3.75,3.75 0 0 1 590.636,8.5 L597.636,28.2969 L826.84,28.2969 A2.5,2.5 0 0 1 829.34,30.7969 L829.34,418.5 A2.5,2.5 0 0 1 826.84,421 L548.26,421 A2.5,2.5 0 0 1 545.76,418.5 L545.76,8.5 A2.5,2.5 0 0 1 548.26,6" fill="none" style="stroke:#000000;stroke-width:1.5;"/><line style="stroke:#000000;stroke-width:1.5;" x1="545.76" x2="597.636" y1="28.2969" y2="28.2969"/><text fill="#000000" font-family="sans-serif" font-size="14" font-weight="bold" lengthAdjust="spacing" textLength="38.876" x="549.76" y="20.9951">bo4e</text></g><!--cluster bo--><g class="cluster" data-entity="bo" data-source-line="9" data-uid="ent0003" id="cluster_bo"><path d="M612.3,49 L677.134,49 A3.75,3.75 0 0 1 679.634,51.5 L686.634,71.2969 L762.8,71.2969 A2.5,2.5 0 0 1 765.3,73.7969 L765.3,135.5 A2.5,2.5 0 0 1 762.8,138 L612.3,138 A2.5,2.5 0 0 1 609.8,135.5 L609.8,51.5 A2.5,2.5 0 0 1 612.3,49" fill="#B6D7A8" style="stroke:#000000;stroke-width:1.5;"/><line style="stroke:#000000;stroke-width:1.5;" x1="609.8" x2="686.634" y1="71.2969" y2="71.2969"/><a href="file:////home/runner/work/BO4E-python/BO4E-python/docs/../.tox/docs/tmp/html/api/bo4e.bo.html" target="_top" title="file:////home/runner/work/BO4E-python/BO4E-python/docs/../.tox/docs/tmp/html/api/bo4e.bo.html" xlink:actuate="onRequest" xlink:href="file:////home/runner/work/BO4E-python/BO4E-python/docs/../.tox/docs/tmp/html/api/bo4e.bo.html" xlink:show="new" xlink:title="file:////home/runner/work/BO4E-python/BO4E-python/docs/../.tox/docs/tmp/html/api/bo4e.bo.html" xlink:type="simple"><text fill="#0000FF" font-family="sans-serif" font-size="14" font-weight="bold" lengthAdjust="spacing" text-decoration="underline" textLength="63.834" x="613.8" y="63.9951">bo4e.bo</text></a></g><!--cluster enum--><g class="cluster" data-entity="enum" data-source-line="12" data-uid="ent0006" id="cluster_enum"><path d="M572.26,162 L661.4709,162 A3.75,3.75 0 0 1 663.9709,164.5 L670.9709,184.2969 L802.84,184.2969 A2.5,2.5 0 0 1 805.34,186.7969 L805.34,394.5 A2.5,2.5 0 0 1 802.84,397 L572.26,397 A2.5,2.5 0 0 1 569.76,394.5 L569.76,164.5 A2.5,2.5 0 0 1 572.26,162" fill="#D1C358" style="stroke:#000000;stroke-width:1.5;"/><line style="stroke:#000000;stroke-width:1.5;" x1="569.76" x2="670.9709" y1="184.2969" y2="184.2969"/><a href="file:////home/runner/work/BO4E-python/BO4E-python/docs/../.tox/docs/tmp/html/api/bo4e.enum.html" target="_top" title="file:////home/runner/work/BO4E-python/BO4E-python/docs/../.tox/docs/tmp/html/api/bo4e.enum.html" xlink:actuate="onRequest" xlink:href="file:////home/runner/work/BO4E-python/BO4E-python/docs/../.tox/docs/tmp/html/api/bo4e.enum.html" xlink:show="new" xlink:title="file:////home/runner/work/BO4E-python/BO4E-python/docs/../.tox/docs/tmp/html/api/bo4e.enum.html" xlink:type="simple"><text fill="#0000FF" font-family="sans-serif" font-size="14" font-weight="bold" lengthAdjust="spacing" text-decoration="underline" textLength="88.2109" x="573.76" y="176.9951">bo4e.enum</text></a></g><!--class Preisblatt--><g class="entity" data-entity="Preisblatt" data-source-line="10" data-uid="ent0004" id="entity_Preisblatt"><rect fill="#F1F1F1" height="37.9375" rx="2.5" ry="2.5" style="stroke:#181818;stroke-width:0.5;" width="123.499" x="625.8" y="84.03"/><ellipse cx="640.8" cy="102.9987" fill="#ADD1B2" rx="11" ry="11" style="stroke:#181818;stroke-width:1;"/><path d="M643.7688,108.6394 Q643.1906,108.9362 642.55,109.0769 Q641.9094,109.2331 641.2063,109.2331 Q638.7063,109.2331 637.3781,107.5925 Q636.0656,105.9362 636.0656,102.8112 Q636.0656,99.6862 637.3781,98.03 Q638.7063,96.3737 641.2063,96.3737 Q641.9094,96.3737 642.55,96.53 Q643.2063,96.6862 643.7688,96.9831 L643.7688,99.7019 Q643.1438,99.1237 642.55,98.8581 Q641.9563,98.5769 641.3313,98.5769 Q639.9875,98.5769 639.3,99.655 Q638.6125,100.7175 638.6125,102.8112 Q638.6125,104.905 639.3,105.9831 Q639.9875,107.0456 641.3313,107.0456 Q641.9563,107.0456 642.55,106.78 Q643.1438,106.4987 643.7688,105.9206 L643.7688,108.6394 Z " fill="#000000"/><a href="file:////home/runner/work/BO4E-python/BO4E-python/docs/../.tox/docs/tmp/html/api/bo4e.bo.html#bo4e.bo.preisblatt.Preisblatt" target="_top" title="file:////home/runner/work/BO4E-python/BO4E-python/docs/../.tox/docs/tmp/html/api/bo4e.bo.html#bo4e.bo.preisblatt.Preisblatt" xlink:actuate="onRequest" xlink:href="file:////home/runner/work/BO4E-python/BO4E-python/docs/../.tox/docs/tmp/html/api/bo4e.bo.html#bo4e.bo.preisblatt.Preisblatt" xlink:show="new" xlink:title="file:////home/runner/work/BO4E-python/BO4E-python/docs/../.tox/docs/tmp/html/api/bo4e.bo.html#bo4e.bo.preisblatt.Preisblatt" xlink:type="simple"><text fill="#0000FF" font-family="sans-serif" font-size="14" lengthAdjust="spacing" text-decoration="underline" textLength="66.3291" x="667.385" y="102.0251">Preisblatt</text></a><text fill="#000000" font-family="sans-serif" font-size="10" lengthAdjust="spacing" textLength="91.499" x="654.8" y="114.6091">bo4e.bo.preisblatt</text></g><!--class Bilanzierungsmethode--><g class="entity" data-entity="Bilanzierungsmethode" data-source-line="13" data-uid="ent0007" id="entity_Bilanzierungsmethode"><rect fill="#F1F1F1" height="37.9375" rx="2.5" ry="2.5" style="stroke:#181818;stroke-width:0.5;" width="203.5723" x="585.76" y="197.03"/><ellipse cx="600.76" cy="215.9988" fill="#ADD1B2" rx="11" ry="11" style="stroke:#181818;stroke-width:1;"/><path d="M603.7288,221.6394 Q603.1506,221.9363 602.51,222.0769 Q601.8694,222.2331 601.1663,222.2331 Q598.6663,222.2331 597.3381,220.5925 Q596.0256,218.9363 596.0256,215.8113 Q596.0256,212.6863 597.3381,211.03 Q598.6663,209.3738 601.1663,209.3738 Q601.8694,209.3738 602.51,209.53 Q603.1663,209.6863 603.7288,209.9831 L603.7288,212.7019 Q603.1038,212.1238 602.51,211.8581 Q601.9163,211.5769 601.2913,211.5769 Q599.9475,211.5769 599.26,212.655 Q598.5725,213.7175 598.5725,215.8113 Q598.5725,217.905 599.26,218.9831 Q599.9475,220.0456 601.2913,220.0456 Q601.9163,220.0456 602.51,219.78 Q603.1038,219.4988 603.7288,218.9206 L603.7288,221.6394 Z " fill="#000000"/><a href="file:////home/runner/work/BO4E-python/BO4E-python/docs/../.tox/docs/tmp/html/api/bo4e.enum.html#bo4e.enum.bilanzierungsmethode.Bilanzierungsmethode" target="_top" title="file:////home/runner/work/BO4E-python/BO4E-python/docs/../.tox/docs/tmp/html/api/bo4e.enum.html#bo4e.enum.bilanzierungsmethode.Bilanzierungsmethode" xlink:actuate="onRequest" xlink:href="file:////home/runner/work/BO4E-python/BO4E-python/docs/../.tox/docs/tmp/html/api/bo4e.enum.html#bo4e.enum.bilanzierungsmethode.Bilanzierungsmethode" xlink:show="new" xlink:title="file:////home/runner/work/BO4E-python/BO4E-python/docs/../.tox/docs/tmp/html/api/bo4e.enum.html#bo4e.enum.bilanzierungsmethode.Bilanzierungsmethode" xlink:type="simple"><text fill="#0000FF" font-family="sans-serif" font-size="14" lengthAdjust="spacing" text-decoration="underline" textLength="157.0488" x="622.0217" y="215.0251">Bilanzierungsmethode</text></a><text fill="#000000" font-family="sans-serif" font-size="10" lengthAdjust="spacing" textLength="171.5723" x="614.76" y="227.6091">bo4e.enum.bilanzierungsmethode</text></g><!--class Netzebene--><g class="entity" data-entity="Netzebene" data-source-line="14" data-uid="ent0008" id="entity_Netzebene"><rect fill="#F1F1F1" height="37.9375" rx="2.5" ry="2.5" style="stroke:#181818;stroke-width:0.5;" width="144.71" x="615.2" y="270.03"/><ellipse cx="630.2" cy="288.9988" fill="#ADD1B2" rx="11" ry="11" style="stroke:#181818;stroke-width:1;"/><path d="M633.1688,294.6394 Q632.5906,294.9363 631.95,295.0769 Q631.3094,295.2331 630.6063,295.2331 Q628.1063,295.2331 626.7781,293.5925 Q625.4656,291.9363 625.4656,288.8113 Q625.4656,285.6863 626.7781,284.03 Q628.1063,282.3738 630.6063,282.3738 Q631.3094,282.3738 631.95,282.53 Q632.6063,282.6863 633.1688,282.9831 L633.1688,285.7019 Q632.5438,285.1238 631.95,284.8581 Q631.3563,284.5769 630.7313,284.5769 Q629.3875,284.5769 628.7,285.655 Q628.0125,286.7175 628.0125,288.8113 Q628.0125,290.905 628.7,291.9831 Q629.3875,293.0456 630.7313,293.0456 Q631.3563,293.0456 631.95,292.78 Q632.5438,292.4988 633.1688,291.9206 L633.1688,294.6394 Z " fill="#000000"/><a href="file:////home/runner/work/BO4E-python/BO4E-python/docs/../.tox/docs/tmp/html/api/bo4e.enum.html#bo4e.enum.netzebene.Netzebene" target="_top" title="file:////home/runner/work/BO4E-python/BO4E-python/docs/../.tox/docs/tmp/html/api/bo4e.enum.html#bo4e.enum.netzebene.Netzebene" xlink:actuate="onRequest" xlink:href="file:////home/runner/work/BO4E-python/BO4E-python/docs/../.tox/docs/tmp/html/api/bo4e.enum.html#bo4e.enum.netzebene.Netzebene" xlink:show="new" xlink:title="file:////home/runner/work/BO4E-python/BO4E-python/docs/../.tox/docs/tmp/html/api/bo4e.enum.html#bo4e.enum.netzebene.Netzebene" xlink:type="simple"><text fill="#0000FF" font-family="sans-serif" font-size="14" lengthAdjust="spacing" text-decoration="underline" textLength="75.5234" x="662.7933" y="288.0251">Netzebene</text></a><text fill="#000000" font-family="sans-serif" font-size="10" lengthAdjust="spacing" textLength="112.71" x="644.2" y="300.6091">bo4e.enum.netzebene</text></g><!--class Kundengruppe--><g class="entity" data-entity="Kundengruppe" data-source-line="15" data-uid="ent0009" id="entity_Kundengruppe"><rect fill="#F1F1F1" height="37.9375" rx="2.5" ry="2.5" style="stroke:#181818;stroke-width:0.5;" width="164.8564" x="605.12" y="343.03"/><ellipse cx="620.12" cy="361.9988" fill="#ADD1B2" rx="11" ry="11" style="stroke:#181818;stroke-width:1;"/><path d="M623.0888,367.6394 Q622.5106,367.9363 621.87,368.0769 Q621.2294,368.2331 620.5263,368.2331 Q618.0263,368.2331 616.6981,366.5925 Q615.3856,364.9363 615.3856,361.8113 Q615.3856,358.6863 616.6981,357.03 Q618.0263,355.3738 620.5263,355.3738 Q621.2294,355.3738 621.87,355.53 Q622.5263,355.6863 623.0888,355.9831 L623.0888,358.7019 Q622.4638,358.1238 621.87,357.8581 Q621.2763,357.5769 620.6513,357.5769 Q619.3075,357.5769 618.62,358.655 Q617.9325,359.7175 617.9325,361.8113 Q617.9325,363.905 618.62,364.9831 Q619.3075,366.0456 620.6513,366.0456 Q621.2763,366.0456 621.87,365.78 Q622.4638,365.4988 623.0888,364.9206 L623.0888,367.6394 Z " fill="#000000"/><a href="file:////home/runner/work/BO4E-python/BO4E-python/docs/../.tox/docs/tmp/html/api/bo4e.enum.html#bo4e.enum.kundengruppe.Kundengruppe" target="_top" title="file:////home/runner/work/BO4E-python/BO4E-python/docs/../.tox/docs/tmp/html/api/bo4e.enum.html#bo4e.enum.kundengruppe.Kundengruppe" xlink:actuate="onRequest" xlink:href="file:////home/runner/work/BO4E-python/BO4E-python/docs/../.tox/docs/tmp/html/api/bo4e.enum.html#bo4e.enum.kundengruppe.Kundengruppe" xlink:show="new" xlink:title="file:////home/runner/work/BO4E-python/BO4E-python/docs/../.tox/docs/tmp/html/api/bo4e.enum.html#bo4e.enum.kundengruppe.Kundengruppe" xlink:type="simple"><text fill="#0000FF" font-family="sans-serif" font-size="14" lengthAdjust="spacing" text-decoration="underline" textLength="103.2021" x="648.9471" y="361.0251">Kundengruppe</text></a><text fill="#000000" font-family="sans-serif" font-size="10" lengthAdjust="spacing" textLength="132.8564" x="634.12" y="373.6091">bo4e.enum.kundengruppe</text></g><!--class PreisblattNetznutzung--><g class="entity" data-entity="PreisblattNetznutzung" data-source-line="3" data-uid="ent0002" id="entity_PreisblattNetznutzung"><rect fill="#F1F1F1" height="94.8281" rx="2.5" ry="2.5" style="stroke:#181818;stroke-width:0.5;" width="345.7646" x="7" y="209.59"/><ellipse cx="97.8975" cy="228.5588" fill="#ADD1B2" rx="11" ry="11" style="stroke:#181818;stroke-width:1;"/><path d="M100.8662,234.1994 Q100.2881,234.4963 99.6475,234.6369 Q99.0068,234.7931 98.3037,234.7931 Q95.8037,234.7931 94.4756,233.1525 Q93.1631,231.4963 93.1631,228.3713 Q93.1631,225.2463 94.4756,223.59 Q95.8037,221.9338 98.3037,221.9338 Q99.0068,221.9338 99.6475,222.09 Q100.3037,222.2463 100.8662,222.5431 L100.8662,225.2619 Q100.2412,224.6838 99.6475,224.4181 Q99.0537,224.1369 98.4287,224.1369 Q97.085,224.1369 96.3975,225.215 Q95.71,226.2775 95.71,228.3713 Q95.71,230.465 96.3975,231.5431 Q97.085,232.6056 98.4287,232.6056 Q99.0537,232.6056 99.6475,232.34 Q100.2412,232.0588 100.8662,231.4806 L100.8662,234.1994 Z " fill="#000000"/><a href="file:////home/runner/work/BO4E-python/BO4E-python/docs/../.tox/docs/tmp/html/api/bo4e.bo.html#bo4e.bo.preisblattnetznutzung.PreisblattNetznutzung" target="_top" title="file:////home/runner/work/BO4E-python/BO4E-python/docs/../.tox/docs/tmp/html/api/bo4e.bo.html#bo4e.bo.preisblattnetznutzung.PreisblattNetznutzung" xlink:actuate="onRequest" xlink:href="file:////home/runner/work/BO4E-python/BO4E-python/docs/../.tox/docs/tmp/html/api/bo4e.bo.html#bo4e.bo.preisblattnetznutzung.PreisblattNetznutzung" xlink:show="new" xlink:title="file:////home/runner/work/BO4E-python/BO4E-python/docs/../.tox/docs/tmp/html/api/bo4e.bo.html#bo4e.bo.preisblattnetznutzung.PreisblattNetznutzung" xlink:type="simple"><text fill="#0000FF" font-family="sans-serif" font-size="14" lengthAdjust="spacing" text-decoration="underline" textLength="155.4697" x="118.3975" y="227.5851">PreisblattNetznutzung</text></a><text fill="#000000" font-family="sans-serif" font-size="10" lengthAdjust="spacing" textLength="154.0283" x="119.1182" y="240.1691">bo4e.bo.preisblattnetznutzung</text><line style="stroke:#181818;stroke-width:0.5;" x1="8" x2="351.7646" y1="247.5275" y2="247.5275"/><text fill="#000000" font-family="sans-serif" font-size="14" lengthAdjust="spacing" textLength="333.7646" x="13" y="264.5226">_version : str [0..1] = 202501.0.0+g5a3185351</text><text fill="#000000" font-family="sans-serif" font-size="14" lengthAdjust="spacing" textLength="318.5752" x="13" y="280.8195">zusatzAttribute : ZusatzAttribut [0..*] = None</text><text fill="#000000" font-family="sans-serif" font-size="14" lengthAdjust="spacing" textLength="151.1768" x="13" y="297.1164">_id : str [0..1] = None</text></g><!--link PreisblattNetznutzung to Preisblatt--><g class="link" data-entity-1="PreisblattNetznutzung" data-entity-2="Preisblatt" data-source-line="18" data-uid="lnk10" id="link_PreisblattNetznutzung_Preisblatt"><path codeLine="18" d="M338.11,209.12 C435.38,179.49 537.5708,148.3741 608.3308,126.8241" fill="none" id="PreisblattNetznutzung-to-Preisblatt" style="stroke:#181818;stroke-width:1;"/><polygon fill="none" points="625.55,121.58,606.5828,121.0844,610.0789,132.5638,625.55,121.58" style="stroke:#181818;stroke-width:1;"/></g><!--link PreisblattNetznutzung to Bilanzierungsmethode--><g class="link" data-entity-1="PreisblattNetznutzung" data-entity-2="Bilanzierungsmethode" data-source-line="19" data-uid="lnk11" id="link_PreisblattNetznutzung_Bilanzierungsmethode"><path codeLine="19" d="M353.14,243.03 C430.41,236.77 506.9492,230.5593 573.3392,225.1793" fill="none" id="PreisblattNetznutzung-to-Bilanzierungsmethode" style="stroke:#181818;stroke-width:1;"/><polygon fill="#181818" points="585.3,224.21,578.9965,220.7077,573.3392,225.1793,579.6427,228.6816,585.3,224.21" style="stroke:#181818;stroke-width:1;"/><text fill="#000000" font-family="sans-serif" font-size="13" lengthAdjust="spacing" textLength="145.1646" x="383.76" y="226.0669">bilanzierungsmethode</text><text fill="#000000" font-family="sans-serif" font-size="13" lengthAdjust="spacing" textLength="24.8066" x="552.9397" y="237.4356">0..1</text></g><!--link PreisblattNetznutzung to Netzebene--><g class="link" data-entity-1="PreisblattNetznutzung" data-entity-2="Netzebene" data-source-line="20" data-uid="lnk12" id="link_PreisblattNetznutzung_Netzebene"><path codeLine="20" d="M353.15,277.6 C363.16,278.5 373.09,279.31 382.76,280 C462.1,285.68 541.3409,287.6501 602.9609,288.4201" fill="none" id="PreisblattNetznutzung-to-Netzebene" style="stroke:#181818;stroke-width:1;"/><polygon fill="#181818" points="614.96,288.57,609.0104,284.4953,602.9609,288.4201,608.9105,292.4947,614.96,288.57" style="stroke:#181818;stroke-width:1;"/><text fill="#000000" font-family="sans-serif" font-size="13" lengthAdjust="spacing" textLength="68.6436" x="422.26" y="276.0669">netzebene</text><text fill="#000000" font-family="sans-serif" font-size="13" lengthAdjust="spacing" textLength="24.8066" x="582.2777" y="301.373">0..1</text></g><!--link PreisblattNetznutzung to Kundengruppe--><g class="link" data-entity-1="PreisblattNetznutzung" data-entity-2="Kundengruppe" data-source-line="21" data-uid="lnk13" id="link_PreisblattNetznutzung_Kundengruppe"><path codeLine="21" d="M351.85,304.88 C362.28,307.4 372.65,309.8 382.76,312 C457.45,328.27 531.6046,340.2451 593.0146,349.1651" fill="none" id="PreisblattNetznutzung-to-Kundengruppe" style="stroke:#181818;stroke-width:1;"/><polygon fill="#181818" points="604.89,350.89,599.5273,346.0691,593.0146,349.1651,598.3773,353.986,604.89,350.89" style="stroke:#181818;stroke-width:1;"/><text fill="#000000" font-family="sans-serif" font-size="13" lengthAdjust="spacing" textLength="94.834" x="409.26" y="308.0669">kundengruppe</text><text fill="#000000" font-family="sans-serif" font-size="13" lengthAdjust="spacing" textLength="24.8066" x="572.2009" y="362.6303">0..1</text></g><!--SRC=[nLHDRvmm43t7lsAqUqkrDcH36g4sKbRjgTAsvsvGnSSiM04RsQPfQVlVOsYMzQRGA8TaEVazPXupRyoKk3LW92YU5mOohZ0rN0f2qZBM6cQRpPQN63Bx5B92fXeXKB4xgMxPwlFvnqNzqnHI79mpcMf6AQD6_lWBJ5MpmbGbYslE4dcED96q8-OxK2laEYbZOmIQLZIcRKHElmpiUi_2A1j5D-ATvYs6ldVrNzKPn7fS0twHas_VKMdh08IWZOADHwaVmNiuyyu2pwSUzTxaGRpqBuDbu9EJjj6nQQ-DKJnf3DgihmTCBt3Q2QobG2lFiyVA_Oi_X8YuGbt7ARwuw_00egZtuW71V7NnuUtrPUV2qQRlZDoPqHF3VJHHQ-OhU8cYgHmtE-ZwsM6OPtww35x3qQ6Q-Hucl8n5oz5-8zSLMgqCwMg4X37oNyydHVkknpIEqdRtgsE20kbwTuBXDD7LaDEtCaGVfVxRHcGeSjNKDT9F3W0NJ3JY9lUzk3dTbfdOgOl5xwlT8d12fi9j_2dCkWqssr_tyRiLmjYLUPxmVf0X3ADwdiI1aI6uFX5IS5jeXLLYTp_HXRo32UqjnpBJzm00]--></g></svg>