<svg xmlns="http://www.w3.org/2000/svg" xmlns:xlink="http://www.w3.org/1999/xlink" contentStyleType="text/css" data-diagram-type="CLASS" height="428px" preserveAspectRatio="none" style="width:856px;height:428px;background:#FFFFFF;" version="1.1" viewBox="0 0 856 428" width="856px" zoomAndPan="magnify"><defs/><g><!--cluster bo4e--><g class="cluster" data-entity="bo4e" data-source-line="10" data-uid="ent0005" id="cluster_bo4e"><path d="M568.11,6 L607.986,6 A3.75,3.75 0 0 1 610.486,8.5 L617.486,28.2969 L846.68,28.2969 A2.5,2.5 0 0 1 849.18,30.7969 L849.18,418.5 A2.5,2.5 0 0 1 846.68,421 L568.11,421 A2.5,2.5 0 0 1 565.61,418.5 L565.61,8.5 A2.5,2.5 0 0 1 568.11,6" fill="none" style="stroke:#000000;stroke-width:1.5;"/><line style="stroke:#000000;stroke-width:1.5;" x1="565.61" x2="617.486" y1="28.2969" y2="28.2969"/><text fill="#000000" font-family="sans-serif" font-size="14" font-weight="bold" lengthAdjust="spacing" textLength="38.876" x="569.61" y="20.9951">bo4e</text></g><!--cluster bo--><g class="cluster" data-entity="bo" data-source-line="9" data-uid="ent0003" id="cluster_bo"><path d="M632.15,49 L696.984,49 A3.75,3.75 0 0 1 699.484,51.5 L706.484,71.2969 L782.65,71.2969 A2.5,2.5 0 0 1 785.15,73.7969 L785.15,208.5 A2.5,2.5 0 0 1 782.65,211 L632.15,211 A2.5,2.5 0 0 1 629.65,208.5 L629.65,51.5 A2.5,2.5 0 0 1 632.15,49" fill="#B6D7A8" style="stroke:#000000;stroke-width:1.5;"/><line style="stroke:#000000;stroke-width:1.5;" x1="629.65" x2="706.484" y1="71.2969" y2="71.2969"/><a href="file:////home/runner/work/BO4E-python/BO4E-python/docs/../.tox/docs/tmp/html/api/bo4e.bo.html" target="_top" title="file:////home/runner/work/BO4E-python/BO4E-python/docs/../.tox/docs/tmp/html/api/bo4e.bo.html" xlink:actuate="onRequest" xlink:href="file:////home/runner/work/BO4E-python/BO4E-python/docs/../.tox/docs/tmp/html/api/bo4e.bo.html" xlink:show="new" xlink:title="file:////home/runner/work/BO4E-python/BO4E-python/docs/../.tox/docs/tmp/html/api/bo4e.bo.html" xlink:type="simple"><text fill="#0000FF" font-family="sans-serif" font-size="14" font-weight="bold" lengthAdjust="spacing" text-decoration="underline" textLength="63.834" x="633.65" y="63.9951">bo4e.bo</text></a></g><!--cluster enum--><g class="cluster" data-entity="enum" data-source-line="13" data-uid="ent0007" id="cluster_enum"><path d="M592.11,235 L681.3209,235 A3.75,3.75 0 0 1 683.8209,237.5 L690.8209,257.2969 L822.68,257.2969 A2.5,2.5 0 0 1 825.18,259.7969 L825.18,394.5 A2.5,2.5 0 0 1 822.68,397 L592.11,397 A2.5,2.5 0 0 1 589.61,394.5 L589.61,237.5 A2.5,2.5 0 0 1 592.11,235" fill="#D1C358" style="stroke:#000000;stroke-width:1.5;"/><line style="stroke:#000000;stroke-width:1.5;" x1="589.61" x2="690.8209" y1="257.2969" y2="257.2969"/><a href="file:////home/runner/work/BO4E-python/BO4E-python/docs/../.tox/docs/tmp/html/api/bo4e.enum.html" target="_top" title="file:////home/runner/work/BO4E-python/BO4E-python/docs/../.tox/docs/tmp/html/api/bo4e.enum.html" xlink:actuate="onRequest" xlink:href="file:////home/runner/work/BO4E-python/BO4E-python/docs/../.tox/docs/tmp/html/api/bo4e.enum.html" xlink:show="new" xlink:title="file:////home/runner/work/BO4E-python/BO4E-python/docs/../.tox/docs/tmp/html/api/bo4e.enum.html" xlink:type="simple"><text fill="#0000FF" font-family="sans-serif" font-size="14" font-weight="bold" lengthAdjust="spacing" text-decoration="underline" textLength="88.2109" x="593.61" y="249.9951">bo4e.enum</text></a></g><!--class Preisblatt--><g class="entity" data-entity="Preisblatt" data-source-line="10" data-uid="ent0004" id="entity_Preisblatt"><rect fill="#F1F1F1" height="37.9375" rx="2.5" ry="2.5" style="stroke:#181818;stroke-width:0.5;" width="123.499" x="645.65" y="84.03"/><ellipse cx="660.65" cy="102.9987" fill="#ADD1B2" rx="11" ry="11" style="stroke:#181818;stroke-width:1;"/><path d="M663.6188,108.6394 Q663.0406,108.9362 662.4,109.0769 Q661.7594,109.2331 661.0563,109.2331 Q658.5563,109.2331 657.2281,107.5925 Q655.9156,105.9362 655.9156,102.8112 Q655.9156,99.6862 657.2281,98.03 Q658.5563,96.3737 661.0563,96.3737 Q661.7594,96.3737 662.4,96.53 Q663.0563,96.6862 663.6188,96.9831 L663.6188,99.7019 Q662.9938,99.1237 662.4,98.8581 Q661.8063,98.5769 661.1813,98.5769 Q659.8375,98.5769 659.15,99.655 Q658.4625,100.7175 658.4625,102.8112 Q658.4625,104.905 659.15,105.9831 Q659.8375,107.0456 661.1813,107.0456 Q661.8063,107.0456 662.4,106.78 Q662.9938,106.4987 663.6188,105.9206 L663.6188,108.6394 Z " fill="#000000"/><a href="file:////home/runner/work/BO4E-python/BO4E-python/docs/../.tox/docs/tmp/html/api/bo4e.bo.html#bo4e.bo.preisblatt.Preisblatt" target="_top" title="file:////home/runner/work/BO4E-python/BO4E-python/docs/../.tox/docs/tmp/html/api/bo4e.bo.html#bo4e.bo.preisblatt.Preisblatt" xlink:actuate="onRequest" xlink:href="file:////home/runner/work/BO4E-python/BO4E-python/docs/../.tox/docs/tmp/html/api/bo4e.bo.html#bo4e.bo.preisblatt.Preisblatt" xlink:show="new" xlink:title="file:////home/runner/work/BO4E-python/BO4E-python/docs/../.tox/docs/tmp/html/api/bo4e.bo.html#bo4e.bo.preisblatt.Preisblatt" xlink:type="simple"><text fill="#0000FF" font-family="sans-serif" font-size="14" lengthAdjust="spacing" text-decoration="underline" textLength="66.3291" x="687.235" y="102.0251">Preisblatt</text></a><text fill="#000000" font-family="sans-serif" font-size="10" lengthAdjust="spacing" textLength="91.499" x="674.65" y="114.6091">bo4e.bo.preisblatt</text></g><!--class Geraet--><g class="entity" data-entity="Geraet" data-source-line="11" data-uid="ent0006" id="entity_Geraet"><rect fill="#F1F1F1" height="37.9375" rx="2.5" ry="2.5" style="stroke:#181818;stroke-width:0.5;" width="108.6162" x="653.09" y="157.03"/><ellipse cx="668.09" cy="175.9987" fill="#ADD1B2" rx="11" ry="11" style="stroke:#181818;stroke-width:1;"/><path d="M671.0588,181.6394 Q670.4806,181.9362 669.84,182.0769 Q669.1994,182.2331 668.4963,182.2331 Q665.9963,182.2331 664.6681,180.5925 Q663.3556,178.9362 663.3556,175.8112 Q663.3556,172.6862 664.6681,171.03 Q665.9963,169.3737 668.4963,169.3737 Q669.1994,169.3737 669.84,169.53 Q670.4963,169.6862 671.0588,169.9831 L671.0588,172.7019 Q670.4338,172.1237 669.84,171.8581 Q669.2463,171.5769 668.6213,171.5769 Q667.2775,171.5769 666.59,172.655 Q665.9025,173.7175 665.9025,175.8112 Q665.9025,177.905 666.59,178.9831 Q667.2775,180.0456 668.6213,180.0456 Q669.2463,180.0456 669.84,179.78 Q670.4338,179.4987 671.0588,178.9206 L671.0588,181.6394 Z " fill="#000000"/><a href="file:////home/runner/work/BO4E-python/BO4E-python/docs/../.tox/docs/tmp/html/api/bo4e.bo.html#bo4e.bo.geraet.Geraet" target="_top" title="file:////home/runner/work/BO4E-python/BO4E-python/docs/../.tox/docs/tmp/html/api/bo4e.bo.html#bo4e.bo.geraet.Geraet" xlink:actuate="onRequest" xlink:href="file:////home/runner/work/BO4E-python/BO4E-python/docs/../.tox/docs/tmp/html/api/bo4e.bo.html#bo4e.bo.geraet.Geraet" xlink:show="new" xlink:title="file:////home/runner/work/BO4E-python/BO4E-python/docs/../.tox/docs/tmp/html/api/bo4e.bo.html#bo4e.bo.geraet.Geraet" xlink:type="simple"><text fill="#0000FF" font-family="sans-serif" font-size="14" lengthAdjust="spacing" text-decoration="underline" textLength="47.8994" x="696.4484" y="175.0251">Geraet</text></a><text fill="#000000" font-family="sans-serif" font-size="10" lengthAdjust="spacing" textLength="76.6162" x="682.09" y="187.6091">bo4e.bo.geraet</text></g><!--class Dienstleistungstyp--><g class="entity" data-entity="Dienstleistungstyp" data-source-line="14" data-uid="ent0008" id="entity_Dienstleistungstyp"><rect fill="#F1F1F1" height="37.9375" rx="2.5" ry="2.5" style="stroke:#181818;stroke-width:0.5;" width="183.9141" x="615.44" y="270.03"/><ellipse cx="630.44" cy="288.9988" fill="#ADD1B2" rx="11" ry="11" style="stroke:#181818;stroke-width:1;"/><path d="M633.4088,294.6394 Q632.8306,294.9363 632.19,295.0769 Q631.5494,295.2331 630.8463,295.2331 Q628.3463,295.2331 627.0181,293.5925 Q625.7056,291.9363 625.7056,288.8113 Q625.7056,285.6863 627.0181,284.03 Q628.3463,282.3738 630.8463,282.3738 Q631.5494,282.3738 632.19,282.53 Q632.8463,282.6863 633.4088,282.9831 L633.4088,285.7019 Q632.7838,285.1238 632.19,284.8581 Q631.5963,284.5769 630.9713,284.5769 Q629.6275,284.5769 628.94,285.655 Q628.2525,286.7175 628.2525,288.8113 Q628.2525,290.905 628.94,291.9831 Q629.6275,293.0456 630.9713,293.0456 Q631.5963,293.0456 632.19,292.78 Q632.7838,292.4988 633.4088,291.9206 L633.4088,294.6394 Z " fill="#000000"/><a href="file:////home/runner/work/BO4E-python/BO4E-python/docs/../.tox/docs/tmp/html/api/bo4e.enum.html#bo4e.enum.dienstleistungstyp.Dienstleistungstyp" target="_top" title="file:////home/runner/work/BO4E-python/BO4E-python/docs/../.tox/docs/tmp/html/api/bo4e.enum.html#bo4e.enum.dienstleistungstyp.Dienstleistungstyp" xlink:actuate="onRequest" xlink:href="file:////home/runner/work/BO4E-python/BO4E-python/docs/../.tox/docs/tmp/html/api/bo4e.enum.html#bo4e.enum.dienstleistungstyp.Dienstleistungstyp" xlink:show="new" xlink:title="file:////home/runner/work/BO4E-python/BO4E-python/docs/../.tox/docs/tmp/html/api/bo4e.enum.html#bo4e.enum.dienstleistungstyp.Dienstleistungstyp" xlink:type="simple"><text fill="#0000FF" font-family="sans-serif" font-size="14" lengthAdjust="spacing" text-decoration="underline" textLength="130.7031" x="655.0455" y="288.0251">Dienstleistungstyp</text></a><text fill="#000000" font-family="sans-serif" font-size="10" lengthAdjust="spacing" textLength="151.9141" x="644.44" y="300.6091">bo4e.enum.dienstleistungstyp</text></g><!--class Bilanzierungsmethode--><g class="entity" data-entity="Bilanzierungsmethode" data-source-line="15" data-uid="ent0009" id="entity_Bilanzierungsmethode"><rect fill="#F1F1F1" height="37.9375" rx="2.5" ry="2.5" style="stroke:#181818;stroke-width:0.5;" width="203.5723" x="605.61" y="343.03"/><ellipse cx="620.61" cy="361.9988" fill="#ADD1B2" rx="11" ry="11" style="stroke:#181818;stroke-width:1;"/><path d="M623.5788,367.6394 Q623.0006,367.9363 622.36,368.0769 Q621.7194,368.2331 621.0163,368.2331 Q618.5163,368.2331 617.1881,366.5925 Q615.8756,364.9363 615.8756,361.8113 Q615.8756,358.6863 617.1881,357.03 Q618.5163,355.3738 621.0163,355.3738 Q621.7194,355.3738 622.36,355.53 Q623.0163,355.6863 623.5788,355.9831 L623.5788,358.7019 Q622.9538,358.1238 622.36,357.8581 Q621.7663,357.5769 621.1413,357.5769 Q619.7975,357.5769 619.11,358.655 Q618.4225,359.7175 618.4225,361.8113 Q618.4225,363.905 619.11,364.9831 Q619.7975,366.0456 621.1413,366.0456 Q621.7663,366.0456 622.36,365.78 Q622.9538,365.4988 623.5788,364.9206 L623.5788,367.6394 Z " fill="#000000"/><a href="file:////home/runner/work/BO4E-python/BO4E-python/docs/../.tox/docs/tmp/html/api/bo4e.enum.html#bo4e.enum.bilanzierungsmethode.Bilanzierungsmethode" target="_top" title="file:////home/runner/work/BO4E-python/BO4E-python/docs/../.tox/docs/tmp/html/api/bo4e.enum.html#bo4e.enum.bilanzierungsmethode.Bilanzierungsmethode" xlink:actuate="onRequest" xlink:href="file:////home/runner/work/BO4E-python/BO4E-python/docs/../.tox/docs/tmp/html/api/bo4e.enum.html#bo4e.enum.bilanzierungsmethode.Bilanzierungsmethode" xlink:show="new" xlink:title="file:////home/runner/work/BO4E-python/BO4E-python/docs/../.tox/docs/tmp/html/api/bo4e.enum.html#bo4e.enum.bilanzierungsmethode.Bilanzierungsmethode" xlink:type="simple"><text fill="#0000FF" font-family="sans-serif" font-size="14" lengthAdjust="spacing" text-decoration="underline" textLength="157.0488" x="641.8717" y="361.0251">Bilanzierungsmethode</text></a><text fill="#000000" font-family="sans-serif" font-size="10" lengthAdjust="spacing" textLength="171.5723" x="634.61" y="373.6091">bo4e.enum.bilanzierungsmethode</text></g><!--class PreisblattDienstleistung--><g class="entity" data-entity="PreisblattDienstleistung" data-source-line="3" data-uid="ent0002" id="entity_PreisblattDienstleistung"><rect fill="#F1F1F1" height="94.8281" rx="2.5" ry="2.5" style="stroke:#181818;stroke-width:0.5;" width="343.6113" x="7" y="185.59"/><ellipse cx="91.0171" cy="204.5588" fill="#ADD1B2" rx="11" ry="11" style="stroke:#181818;stroke-width:1;"/><path d="M93.9858,210.1994 Q93.4077,210.4963 92.7671,210.6369 Q92.1265,210.7931 91.4233,210.7931 Q88.9233,210.7931 87.5952,209.1525 Q86.2827,207.4963 86.2827,204.3713 Q86.2827,201.2463 87.5952,199.59 Q88.9233,197.9338 91.4233,197.9338 Q92.1265,197.9338 92.7671,198.09 Q93.4233,198.2463 93.9858,198.5431 L93.9858,201.2619 Q93.3608,200.6838 92.7671,200.4181 Q92.1733,200.1369 91.5483,200.1369 Q90.2046,200.1369 89.5171,201.215 Q88.8296,202.2775 88.8296,204.3713 Q88.8296,206.465 89.5171,207.5431 Q90.2046,208.6056 91.5483,208.6056 Q92.1733,208.6056 92.7671,208.34 Q93.3608,208.0588 93.9858,207.4806 L93.9858,210.1994 Z " fill="#000000"/><a href="file:////home/runner/work/BO4E-python/BO4E-python/docs/../.tox/docs/tmp/html/api/bo4e.bo.html#bo4e.bo.preisblattdienstleistung.PreisblattDienstleistung" target="_top" title="file:////home/runner/work/BO4E-python/BO4E-python/docs/../.tox/docs/tmp/html/api/bo4e.bo.html#bo4e.bo.preisblattdienstleistung.PreisblattDienstleistung" xlink:actuate="onRequest" xlink:href="file:////home/runner/work/BO4E-python/BO4E-python/docs/../.tox/docs/tmp/html/api/bo4e.bo.html#bo4e.bo.preisblattdienstleistung.PreisblattDienstleistung" xlink:show="new" xlink:title="file:////home/runner/work/BO4E-python/BO4E-python/docs/../.tox/docs/tmp/html/api/bo4e.bo.html#bo4e.bo.preisblattdienstleistung.PreisblattDienstleistung" xlink:type="simple"><text fill="#0000FF" font-family="sans-serif" font-size="14" lengthAdjust="spacing" text-decoration="underline" textLength="167.0771" x="111.5171" y="203.5851">PreisblattDienstleistung</text></a><text fill="#000000" font-family="sans-serif" font-size="10" lengthAdjust="spacing" textLength="162.1094" x="114.001" y="216.1691">bo4e.bo.preisblattdienstleistung</text><line style="stroke:#181818;stroke-width:0.5;" x1="8" x2="349.6113" y1="223.5275" y2="223.5275"/><text fill="#000000" font-family="sans-serif" font-size="14" lengthAdjust="spacing" textLength="331.6113" x="13" y="240.5226">_version : str [0..1] = 202501.0.0+gcd9cb333d</text><text fill="#000000" font-family="sans-serif" font-size="14" lengthAdjust="spacing" textLength="318.5752" x="13" y="256.8195">zusatzAttribute : ZusatzAttribut [0..*] = None</text><text fill="#000000" font-family="sans-serif" font-size="14" lengthAdjust="spacing" textLength="151.1768" x="13" y="273.1164">_id : str [0..1] = None</text></g><!--link PreisblattDienstleistung to Preisblatt--><g class="link" data-entity-1="PreisblattDienstleistung" data-entity-2="Preisblatt" data-source-line="18" data-uid="lnk10" id="link_PreisblattDienstleistung_Preisblatt"><path codeLine="18" d="M326.54,185.09 C344.67,179.72 363.01,174.56 380.61,170 C472.01,146.33 561.8384,128.7795 627.6184,116.8595" fill="none" id="PreisblattDienstleistung-to-Preisblatt" style="stroke:#181818;stroke-width:1;"/><polygon fill="none" points="645.33,113.65,626.5486,110.9557,628.6883,122.7634,645.33,113.65" style="stroke:#181818;stroke-width:1;"/></g><!--link PreisblattDienstleistung to Bilanzierungsmethode--><g class="link" data-entity-1="PreisblattDienstleistung" data-entity-2="Bilanzierungsmethode" data-source-line="19" data-uid="lnk11" id="link_PreisblattDienstleistung_Bilanzierungsmethode"><path codeLine="19" d="M264.31,280.78 C299.27,298.45 340.87,316.88 380.61,328 C454.13,348.58 528.1452,356.3269 593.3252,359.6069" fill="none" id="PreisblattDienstleistung-to-Bilanzierungsmethode" style="stroke:#181818;stroke-width:1;"/><polygon fill="#181818" points="605.31,360.21,599.5186,355.9135,593.3252,359.6069,599.1165,363.9034,605.31,360.21" style="stroke:#181818;stroke-width:1;"/><text fill="#000000" font-family="sans-serif" font-size="13" lengthAdjust="spacing" textLength="145.1646" x="392.61" y="324.0669">bilanzierungsmethode</text><text fill="#000000" font-family="sans-serif" font-size="13" lengthAdjust="spacing" textLength="24.8066" x="572.9614" y="372.7012">0..1</text></g><!--link PreisblattDienstleistung to Dienstleistungstyp--><g class="link" data-entity-1="PreisblattDienstleistung" data-entity-2="Dienstleistungstyp" data-source-line="20" data-uid="lnk12" id="link_PreisblattDienstleistung_Dienstleistungstyp"><path codeLine="20" d="M351.04,250.95 C413.54,257.53 484.78,265.07 549.61,272 C570.85,274.27 581.7698,275.4477 603.2798,277.7777" fill="none" id="PreisblattDienstleistung-to-Dienstleistungstyp" style="stroke:#181818;stroke-width:1;"/><polygon fill="#181818" points="615.21,279.07,609.6757,274.4471,603.2798,277.7777,608.8141,282.4006,615.21,279.07" style="stroke:#181818;stroke-width:1;"/><text fill="#000000" font-family="sans-serif" font-size="13" lengthAdjust="spacing" textLength="125.1694" x="402.61" y="251.0669">basisdienstleistung</text><text fill="#000000" font-family="sans-serif" font-size="13" lengthAdjust="spacing" textLength="24.8066" x="582.6154" y="290.9413">0..1</text></g><!--link PreisblattDienstleistung to Dienstleistungstyp--><g class="link" data-entity-1="PreisblattDienstleistung" data-entity-2="Dienstleistungstyp" data-source-line="21" data-uid="lnk13" id="link_PreisblattDienstleistung_Dienstleistungstyp"><path codeLine="21" d="M309.92,280.85 C333.16,287.56 357.38,293.39 380.61,297 C454.83,308.54 474.52,298.91 549.61,297 C570.86,296.46 581.7345,296.0906 603.2445,295.0306" fill="none" id="PreisblattDienstleistung-to-Dienstleistungstyp-1" style="stroke:#181818;stroke-width:1;"/><polygon fill="#181818" points="615.23,294.44,609.0404,290.7402,603.2445,295.0306,609.4342,298.7305,615.23,294.44" style="stroke:#181818;stroke-width:1;"/><text fill="#000000" font-family="sans-serif" font-size="13" lengthAdjust="spacing" textLength="167.0957" x="381.61" y="293.0669">inklusiveDienstleistungen</text><text fill="#000000" font-family="sans-serif" font-size="13" lengthAdjust="spacing" textLength="23.0356" x="584.2944" y="307.5028">0..*</text></g><!--link PreisblattDienstleistung to Geraet--><g class="link" data-entity-1="PreisblattDienstleistung" data-entity-2="Geraet" data-source-line="22" data-uid="lnk14" id="link_PreisblattDienstleistung_Geraet"><path codeLine="22" d="M350.77,214.49 C455.43,203.17 570.4497,190.7113 640.8497,183.0913" fill="none" id="PreisblattDienstleistung-to-Geraet" style="stroke:#181818;stroke-width:1;"/><polygon fill="#181818" points="652.78,181.8,646.3844,178.4689,640.8497,183.0913,647.2453,186.4224,652.78,181.8" style="stroke:#181818;stroke-width:1;"/><text fill="#000000" font-family="sans-serif" font-size="13" lengthAdjust="spacing" textLength="93.9644" x="418.61" y="191.0669">geraetedetails</text><text fill="#000000" font-family="sans-serif" font-size="13" lengthAdjust="spacing" textLength="24.8066" x="620.2962" y="195.5796">0..1</text></g><!--SRC=[nLLDRvj043s7Np6oRwwyu3Zf1seZnNBLMzjpNLGjC3QhBBjeTqWQj_dlNS1988QwETJXihoPdQUPUSCWSKr06epOP0IfC9YGqChp4icjXT5gjHOIGzyzcSxHDwLIQFmRRQxynPUpZzFYbZAjEk-fJgpFcCz8_sm0vOMVKIvzNWW_rcV8Oiqgm_WU50Q5ZIKdIWKgIz91AjM6VNrmB3iE6794qNVrteejXhFWuX3z2BWTP89VticFQpJMDGH2i6HW5J0sY-03d0Qdvy6C1InujKdITqaydyzJxsHRMaxRIo8ZufBGHNthM6g2IKNmMIjqz29zobmxxZnFyHnjmHFyxoB03aHHtOuTWl7YzVBDvTkg2oys32tvMp8TaFY9g4TFVuE68x5FzG7DqPjoSx5EjxdbT3-2xAZAl2Ly1TlILnZ6wIoPdnz3_8Tine-m-v5QkYtOSiy4-wRzBW_GrTNknxz8iR6GN6q5cYg971rNYcpHOuG-uq39VQHrqNqSrRePNhJJwU-B-wNGklMN21SoWL6rq4QF8zLVKWXzcJwRksSw73EtmdQr_nVYoK5YeQvaQSKrThsedfEtQ-PkGuJGB09CaRYGrlCouLgJOnwxduzdCtq3myHhWJArVm00]--></g></svg>