<?xml version="1.0" encoding="us-ascii" standalone="no"?><svg xmlns="http://www.w3.org/2000/svg" xmlns:xlink="http://www.w3.org/1999/xlink" contentStyleType="text/css" height="574px" preserveAspectRatio="none" style="width:869px;height:574px;background:#FFFFFF;" version="1.1" viewBox="0 0 869 574" width="869px" zoomAndPan="magnify"><defs/><g><!--cluster bo4e--><g id="cluster_bo4e"><path d="M588.5,6 L629.5,6 A3.75,3.75 0 0 1 632,8.5 L639,28.2969 L859.5,28.2969 A2.5,2.5 0 0 1 862,30.7969 L862,564.5 A2.5,2.5 0 0 1 859.5,567 L588.5,567 A2.5,2.5 0 0 1 586,564.5 L586,8.5 A2.5,2.5 0 0 1 588.5,6 " fill="none" style="stroke:#000000;stroke-width:1.5;"/><line style="stroke:#000000;stroke-width:1.5;" x1="586" x2="639" y1="28.2969" y2="28.2969"/><text fill="#000000" font-family="sans-serif" font-size="14" font-weight="bold" lengthAdjust="spacing" textLength="40" x="590" y="20.9951">bo4e</text></g><!--cluster bo--><g id="cluster_bo"><path d="M651,49 L717,49 A3.75,3.75 0 0 1 719.5,51.5 L726.5,71.2969 L797,71.2969 A2.5,2.5 0 0 1 799.5,73.7969 L799.5,208.5 A2.5,2.5 0 0 1 797,211 L651,211 A2.5,2.5 0 0 1 648.5,208.5 L648.5,51.5 A2.5,2.5 0 0 1 651,49 " fill="#B6D7A8" style="stroke:#000000;stroke-width:1.5;"/><line style="stroke:#000000;stroke-width:1.5;" x1="648.5" x2="726.5" y1="71.2969" y2="71.2969"/><a href="https://bo4e.github.io/BO4E-python/latest/api/bo4e.bo.html" target="_top" title="https://bo4e.github.io/BO4E-python/latest/api/bo4e.bo.html" xlink:actuate="onRequest" xlink:href="https://bo4e.github.io/BO4E-python/latest/api/bo4e.bo.html" xlink:show="new" xlink:title="https://bo4e.github.io/BO4E-python/latest/api/bo4e.bo.html" xlink:type="simple"><text fill="#0000FF" font-family="sans-serif" font-size="14" font-weight="bold" lengthAdjust="spacing" text-decoration="underline" textLength="65" x="652.5" y="63.9951">bo4e.bo</text></a></g><!--cluster enum--><g id="cluster_enum"><path d="M612.5,235 L702.5,235 A3.75,3.75 0 0 1 705,237.5 L712,257.2969 L835.5,257.2969 A2.5,2.5 0 0 1 838,259.7969 L838,540.5 A2.5,2.5 0 0 1 835.5,543 L612.5,543 A2.5,2.5 0 0 1 610,540.5 L610,237.5 A2.5,2.5 0 0 1 612.5,235 " fill="#D1C358" style="stroke:#000000;stroke-width:1.5;"/><line style="stroke:#000000;stroke-width:1.5;" x1="610" x2="712" y1="257.2969" y2="257.2969"/><a href="https://bo4e.github.io/BO4E-python/latest/api/bo4e.enum.html" target="_top" title="https://bo4e.github.io/BO4E-python/latest/api/bo4e.enum.html" xlink:actuate="onRequest" xlink:href="https://bo4e.github.io/BO4E-python/latest/api/bo4e.enum.html" xlink:show="new" xlink:title="https://bo4e.github.io/BO4E-python/latest/api/bo4e.enum.html" xlink:type="simple"><text fill="#0000FF" font-family="sans-serif" font-size="14" font-weight="bold" lengthAdjust="spacing" text-decoration="underline" textLength="89" x="614" y="249.9951">bo4e.enum</text></a></g><!--class Preisblatt--><g id="elem_Preisblatt"><rect codeLine="10" fill="#F1F1F1" height="37.9375" id="Preisblatt" rx="2.5" ry="2.5" style="stroke:#181818;stroke-width:0.5;" width="119" x="664.5" y="84.03"/><ellipse cx="679.5" cy="102.9987" fill="#ADD1B2" rx="11" ry="11" style="stroke:#181818;stroke-width:1.0;"/><path d="M682.4688,108.6394 Q681.8906,108.9362 681.25,109.0769 Q680.6094,109.2331 679.9063,109.2331 Q677.4063,109.2331 676.0781,107.5925 Q674.7656,105.9362 674.7656,102.8112 Q674.7656,99.6862 676.0781,98.03 Q677.4063,96.3737 679.9063,96.3737 Q680.6094,96.3737 681.25,96.53 Q681.9063,96.6862 682.4688,96.9831 L682.4688,99.7019 Q681.8438,99.1237 681.25,98.8581 Q680.6563,98.5769 680.0313,98.5769 Q678.6875,98.5769 678,99.655 Q677.3125,100.7175 677.3125,102.8112 Q677.3125,104.905 678,105.9831 Q678.6875,107.0456 680.0313,107.0456 Q680.6563,107.0456 681.25,106.78 Q681.8438,106.4987 682.4688,105.9206 L682.4688,108.6394 Z " fill="#000000"/><a href="https://bo4e.github.io/BO4E-python/latest/api/bo4e.bo.html#bo4e.bo.preisblatt.Preisblatt" target="_top" title="https://bo4e.github.io/BO4E-python/latest/api/bo4e.bo.html#bo4e.bo.preisblatt.Preisblatt" xlink:actuate="onRequest" xlink:href="https://bo4e.github.io/BO4E-python/latest/api/bo4e.bo.html#bo4e.bo.preisblatt.Preisblatt" xlink:show="new" xlink:title="https://bo4e.github.io/BO4E-python/latest/api/bo4e.bo.html#bo4e.bo.preisblatt.Preisblatt" xlink:type="simple"><text fill="#0000FF" font-family="sans-serif" font-size="14" lengthAdjust="spacing" text-decoration="underline" textLength="64" x="705" y="102.0251">Preisblatt</text></a><text fill="#000000" font-family="sans-serif" font-size="10" lengthAdjust="spacing" textLength="87" x="693.5" y="114.6091">bo4e.bo.preisblatt</text></g><!--class Geraet--><g id="elem_Geraet"><rect codeLine="11" fill="#F1F1F1" height="37.9375" id="Geraet" rx="2.5" ry="2.5" style="stroke:#181818;stroke-width:0.5;" width="106" x="671" y="157.03"/><ellipse cx="686" cy="175.9987" fill="#ADD1B2" rx="11" ry="11" style="stroke:#181818;stroke-width:1.0;"/><path d="M688.9688,181.6394 Q688.3906,181.9362 687.75,182.0769 Q687.1094,182.2331 686.4063,182.2331 Q683.9063,182.2331 682.5781,180.5925 Q681.2656,178.9362 681.2656,175.8112 Q681.2656,172.6862 682.5781,171.03 Q683.9063,169.3737 686.4063,169.3737 Q687.1094,169.3737 687.75,169.53 Q688.4063,169.6862 688.9688,169.9831 L688.9688,172.7019 Q688.3438,172.1237 687.75,171.8581 Q687.1563,171.5769 686.5313,171.5769 Q685.1875,171.5769 684.5,172.655 Q683.8125,173.7175 683.8125,175.8112 Q683.8125,177.905 684.5,178.9831 Q685.1875,180.0456 686.5313,180.0456 Q687.1563,180.0456 687.75,179.78 Q688.3438,179.4987 688.9688,178.9206 L688.9688,181.6394 Z " fill="#000000"/><a href="https://bo4e.github.io/BO4E-python/latest/api/bo4e.bo.html#bo4e.bo.geraet.Geraet" target="_top" title="https://bo4e.github.io/BO4E-python/latest/api/bo4e.bo.html#bo4e.bo.geraet.Geraet" xlink:actuate="onRequest" xlink:href="https://bo4e.github.io/BO4E-python/latest/api/bo4e.bo.html#bo4e.bo.geraet.Geraet" xlink:show="new" xlink:title="https://bo4e.github.io/BO4E-python/latest/api/bo4e.bo.html#bo4e.bo.geraet.Geraet" xlink:type="simple"><text fill="#0000FF" font-family="sans-serif" font-size="14" lengthAdjust="spacing" text-decoration="underline" textLength="47" x="713.5" y="175.0251">Geraet</text></a><text fill="#000000" font-family="sans-serif" font-size="10" lengthAdjust="spacing" textLength="74" x="700" y="187.6091">bo4e.bo.geraet</text></g><!--class Netzebene--><g id="elem_Netzebene"><rect codeLine="14" fill="#F1F1F1" height="37.9375" id="Netzebene" rx="2.5" ry="2.5" style="stroke:#181818;stroke-width:0.5;" width="141" x="653.5" y="270.03"/><ellipse cx="668.5" cy="288.9988" fill="#ADD1B2" rx="11" ry="11" style="stroke:#181818;stroke-width:1.0;"/><path d="M671.4688,294.6394 Q670.8906,294.9363 670.25,295.0769 Q669.6094,295.2331 668.9063,295.2331 Q666.4063,295.2331 665.0781,293.5925 Q663.7656,291.9363 663.7656,288.8113 Q663.7656,285.6863 665.0781,284.03 Q666.4063,282.3738 668.9063,282.3738 Q669.6094,282.3738 670.25,282.53 Q670.9063,282.6863 671.4688,282.9831 L671.4688,285.7019 Q670.8438,285.1238 670.25,284.8581 Q669.6563,284.5769 669.0313,284.5769 Q667.6875,284.5769 667,285.655 Q666.3125,286.7175 666.3125,288.8113 Q666.3125,290.905 667,291.9831 Q667.6875,293.0456 669.0313,293.0456 Q669.6563,293.0456 670.25,292.78 Q670.8438,292.4988 671.4688,291.9206 L671.4688,294.6394 Z " fill="#000000"/><a href="https://bo4e.github.io/BO4E-python/latest/api/bo4e.enum.html#bo4e.enum.netzebene.Netzebene" target="_top" title="https://bo4e.github.io/BO4E-python/latest/api/bo4e.enum.html#bo4e.enum.netzebene.Netzebene" xlink:actuate="onRequest" xlink:href="https://bo4e.github.io/BO4E-python/latest/api/bo4e.enum.html#bo4e.enum.netzebene.Netzebene" xlink:show="new" xlink:title="https://bo4e.github.io/BO4E-python/latest/api/bo4e.enum.html#bo4e.enum.netzebene.Netzebene" xlink:type="simple"><text fill="#0000FF" font-family="sans-serif" font-size="14" lengthAdjust="spacing" text-decoration="underline" textLength="77" x="698.5" y="288.0251">Netzebene</text></a><text fill="#000000" font-family="sans-serif" font-size="10" lengthAdjust="spacing" textLength="109" x="682.5" y="300.6091">bo4e.enum.netzebene</text></g><!--class Dienstleistungstyp--><g id="elem_Dienstleistungstyp"><rect codeLine="15" fill="#F1F1F1" height="37.9375" id="Dienstleistungstyp" rx="2.5" ry="2.5" style="stroke:#181818;stroke-width:0.5;" width="177" x="635.5" y="343.03"/><ellipse cx="650.5" cy="361.9988" fill="#ADD1B2" rx="11" ry="11" style="stroke:#181818;stroke-width:1.0;"/><path d="M653.4688,367.6394 Q652.8906,367.9363 652.25,368.0769 Q651.6094,368.2331 650.9063,368.2331 Q648.4063,368.2331 647.0781,366.5925 Q645.7656,364.9363 645.7656,361.8113 Q645.7656,358.6863 647.0781,357.03 Q648.4063,355.3738 650.9063,355.3738 Q651.6094,355.3738 652.25,355.53 Q652.9063,355.6863 653.4688,355.9831 L653.4688,358.7019 Q652.8438,358.1238 652.25,357.8581 Q651.6563,357.5769 651.0313,357.5769 Q649.6875,357.5769 649,358.655 Q648.3125,359.7175 648.3125,361.8113 Q648.3125,363.905 649,364.9831 Q649.6875,366.0456 651.0313,366.0456 Q651.6563,366.0456 652.25,365.78 Q652.8438,365.4988 653.4688,364.9206 L653.4688,367.6394 Z " fill="#000000"/><a href="https://bo4e.github.io/BO4E-python/latest/api/bo4e.enum.html#bo4e.enum.dienstleistungstyp.Dienstleistungstyp" target="_top" title="https://bo4e.github.io/BO4E-python/latest/api/bo4e.enum.html#bo4e.enum.dienstleistungstyp.Dienstleistungstyp" xlink:actuate="onRequest" xlink:href="https://bo4e.github.io/BO4E-python/latest/api/bo4e.enum.html#bo4e.enum.dienstleistungstyp.Dienstleistungstyp" xlink:show="new" xlink:title="https://bo4e.github.io/BO4E-python/latest/api/bo4e.enum.html#bo4e.enum.dienstleistungstyp.Dienstleistungstyp" xlink:type="simple"><text fill="#0000FF" font-family="sans-serif" font-size="14" lengthAdjust="spacing" text-decoration="underline" textLength="129" x="672.5" y="361.0251">Dienstleistungstyp</text></a><text fill="#000000" font-family="sans-serif" font-size="10" lengthAdjust="spacing" textLength="145" x="664.5" y="373.6091">bo4e.enum.dienstleistungstyp</text></g><!--class Typ--><g id="elem_Typ"><rect codeLine="16" fill="#F1F1F1" height="37.9375" id="Typ" rx="2.5" ry="2.5" style="stroke:#181818;stroke-width:0.5;" width="106" x="671" y="416.03"/><ellipse cx="686" cy="434.9988" fill="#ADD1B2" rx="11" ry="11" style="stroke:#181818;stroke-width:1.0;"/><path d="M688.9688,440.6394 Q688.3906,440.9363 687.75,441.0769 Q687.1094,441.2331 686.4063,441.2331 Q683.9063,441.2331 682.5781,439.5925 Q681.2656,437.9363 681.2656,434.8113 Q681.2656,431.6863 682.5781,430.03 Q683.9063,428.3738 686.4063,428.3738 Q687.1094,428.3738 687.75,428.53 Q688.4063,428.6863 688.9688,428.9831 L688.9688,431.7019 Q688.3438,431.1238 687.75,430.8581 Q687.1563,430.5769 686.5313,430.5769 Q685.1875,430.5769 684.5,431.655 Q683.8125,432.7175 683.8125,434.8113 Q683.8125,436.905 684.5,437.9831 Q685.1875,439.0456 686.5313,439.0456 Q687.1563,439.0456 687.75,438.78 Q688.3438,438.4988 688.9688,437.9206 L688.9688,440.6394 Z " fill="#000000"/><a href="https://bo4e.github.io/BO4E-python/latest/api/bo4e.enum.html#bo4e.enum.typ.Typ" target="_top" title="https://bo4e.github.io/BO4E-python/latest/api/bo4e.enum.html#bo4e.enum.typ.Typ" xlink:actuate="onRequest" xlink:href="https://bo4e.github.io/BO4E-python/latest/api/bo4e.enum.html#bo4e.enum.typ.Typ" xlink:show="new" xlink:title="https://bo4e.github.io/BO4E-python/latest/api/bo4e.enum.html#bo4e.enum.typ.Typ" xlink:type="simple"><text fill="#0000FF" font-family="sans-serif" font-size="14" lengthAdjust="spacing" text-decoration="underline" textLength="25" x="724.5" y="434.0251">Typ</text></a><text fill="#000000" font-family="sans-serif" font-size="10" lengthAdjust="spacing" textLength="74" x="700" y="446.6091">bo4e.enum.typ</text></g><!--class Bilanzierungsmethode--><g id="elem_Bilanzierungsmethode"><rect codeLine="17" fill="#F1F1F1" height="37.9375" id="Bilanzierungsmethode" rx="2.5" ry="2.5" style="stroke:#181818;stroke-width:0.5;" width="196" x="626" y="489.03"/><ellipse cx="641" cy="507.9988" fill="#ADD1B2" rx="11" ry="11" style="stroke:#181818;stroke-width:1.0;"/><path d="M643.9688,513.6394 Q643.3906,513.9363 642.75,514.0769 Q642.1094,514.2331 641.4063,514.2331 Q638.9063,514.2331 637.5781,512.5925 Q636.2656,510.9363 636.2656,507.8113 Q636.2656,504.6863 637.5781,503.03 Q638.9063,501.3738 641.4063,501.3738 Q642.1094,501.3738 642.75,501.53 Q643.4063,501.6863 643.9688,501.9831 L643.9688,504.7019 Q643.3438,504.1238 642.75,503.8581 Q642.1563,503.5769 641.5313,503.5769 Q640.1875,503.5769 639.5,504.655 Q638.8125,505.7175 638.8125,507.8113 Q638.8125,509.905 639.5,510.9831 Q640.1875,512.0456 641.5313,512.0456 Q642.1563,512.0456 642.75,511.78 Q643.3438,511.4988 643.9688,510.9206 L643.9688,513.6394 Z " fill="#000000"/><a href="https://bo4e.github.io/BO4E-python/latest/api/bo4e.enum.html#bo4e.enum.bilanzierungsmethode.Bilanzierungsmethode" target="_top" title="https://bo4e.github.io/BO4E-python/latest/api/bo4e.enum.html#bo4e.enum.bilanzierungsmethode.Bilanzierungsmethode" xlink:actuate="onRequest" xlink:href="https://bo4e.github.io/BO4E-python/latest/api/bo4e.enum.html#bo4e.enum.bilanzierungsmethode.Bilanzierungsmethode" xlink:show="new" xlink:title="https://bo4e.github.io/BO4E-python/latest/api/bo4e.enum.html#bo4e.enum.bilanzierungsmethode.Bilanzierungsmethode" xlink:type="simple"><text fill="#0000FF" font-family="sans-serif" font-size="14" lengthAdjust="spacing" text-decoration="underline" textLength="156" x="659" y="507.0251">Bilanzierungsmethode</text></a><text fill="#000000" font-family="sans-serif" font-size="10" lengthAdjust="spacing" textLength="164" x="655" y="519.6091">bo4e.enum.bilanzierungsmethode</text></g><!--class PreisblattHardware--><g id="elem_PreisblattHardware"><rect codeLine="3" fill="#F1F1F1" height="94.8281" id="PreisblattHardware" rx="2.5" ry="2.5" style="stroke:#181818;stroke-width:0.5;" width="370" x="7" y="242.59"/><ellipse cx="121.25" cy="261.5588" fill="#ADD1B2" rx="11" ry="11" style="stroke:#181818;stroke-width:1.0;"/><path d="M124.2188,267.1994 Q123.6406,267.4963 123,267.6369 Q122.3594,267.7931 121.6563,267.7931 Q119.1563,267.7931 117.8281,266.1525 Q116.5156,264.4963 116.5156,261.3713 Q116.5156,258.2463 117.8281,256.59 Q119.1563,254.9337 121.6563,254.9337 Q122.3594,254.9337 123,255.09 Q123.6563,255.2462 124.2188,255.5431 L124.2188,258.2619 Q123.5938,257.6838 123,257.4181 Q122.4063,257.1369 121.7813,257.1369 Q120.4375,257.1369 119.75,258.215 Q119.0625,259.2775 119.0625,261.3713 Q119.0625,263.465 119.75,264.5431 Q120.4375,265.6056 121.7813,265.6056 Q122.4063,265.6056 123,265.34 Q123.5938,265.0588 124.2188,264.4806 L124.2188,267.1994 Z " fill="#000000"/><a href="https://bo4e.github.io/BO4E-python/latest/api/bo4e.bo.html#bo4e.bo.preisblatthardware.PreisblattHardware" target="_top" title="https://bo4e.github.io/BO4E-python/latest/api/bo4e.bo.html#bo4e.bo.preisblatthardware.PreisblattHardware" xlink:actuate="onRequest" xlink:href="https://bo4e.github.io/BO4E-python/latest/api/bo4e.bo.html#bo4e.bo.preisblatthardware.PreisblattHardware" xlink:show="new" xlink:title="https://bo4e.github.io/BO4E-python/latest/api/bo4e.bo.html#bo4e.bo.preisblatthardware.PreisblattHardware" xlink:type="simple"><text fill="#0000FF" font-family="sans-serif" font-size="14" lengthAdjust="spacing" text-decoration="underline" textLength="129" x="143.75" y="260.5851">PreisblattHardware</text></a><text fill="#000000" font-family="sans-serif" font-size="10" lengthAdjust="spacing" textLength="133" x="141.75" y="273.1691">bo4e.bo.preisblatthardware</text><line style="stroke:#181818;stroke-width:0.5;" x1="8" x2="376" y1="280.5275" y2="280.5275"/><text fill="#000000" font-family="sans-serif" font-size="14" lengthAdjust="spacing" textLength="358" x="13" y="297.5226">_version : str [0..1] = 202401.2.2.dev36+g0841f83f</text><text fill="#000000" font-family="sans-serif" font-size="14" lengthAdjust="spacing" textLength="311" x="13" y="313.8195">zusatzAttribute : ZusatzAttribut [0..*] = None</text><text fill="#000000" font-family="sans-serif" font-size="14" lengthAdjust="spacing" textLength="147" x="13" y="330.1164">_id : str [0..1] = None</text></g><!--link PreisblattHardware to Preisblatt--><g id="link_PreisblattHardware_Preisblatt"><path codeLine="20" d="M260.34,242.26 C301.04,215.51 354.98,183.67 407,164 C493.24,131.4 581.6901,117.4678 646.4001,110.2778 " fill="none" id="PreisblattHardware-to-Preisblatt" style="stroke:#181818;stroke-width:1.0;"/><polygon fill="none" points="664.29,108.29,645.7375,104.3145,647.0627,116.2411,664.29,108.29" style="stroke:#181818;stroke-width:1.0;"/></g><!--link PreisblattHardware to Typ--><g id="link_PreisblattHardware_Typ"><path codeLine="21" d="M319.45,337.88 C348.02,347.87 378.38,357.83 407,366 C498.66,392.17 595.902,411.7776 658.972,423.4976 " fill="none" id="PreisblattHardware-to-Typ" style="stroke:#181818;stroke-width:1.0;"/><polygon fill="#181818" points="670.77,425.69,665.6018,420.6611,658.972,423.4976,664.1402,428.5265,670.77,425.69" style="stroke:#181818;stroke-width:1.0;"/><text fill="#000000" font-family="sans-serif" font-size="13" lengthAdjust="spacing" textLength="27" x="475" y="362.0669">_typ</text><text fill="#000000" font-family="sans-serif" font-size="13" lengthAdjust="spacing" textLength="24" x="638.8201" y="437.5445">0..1</text></g><!--link PreisblattHardware to Bilanzierungsmethode--><g id="link_PreisblattHardware_Bilanzierungsmethode"><path codeLine="22" d="M252.96,337.63 C294.18,368.27 351.32,406.75 407,431 C477.28,461.61 550.0804,479.2261 614.0504,491.0661 " fill="none" id="PreisblattHardware-to-Bilanzierungsmethode" style="stroke:#181818;stroke-width:1.0;"/><polygon fill="#181818" points="625.85,493.25,620.6782,488.2248,614.0504,491.0661,619.2222,496.0912,625.85,493.25" style="stroke:#181818;stroke-width:1.0;"/><text fill="#000000" font-family="sans-serif" font-size="13" lengthAdjust="spacing" textLength="142" x="417.5" y="427.0669">bilanzierungsmethode</text><text fill="#000000" font-family="sans-serif" font-size="13" lengthAdjust="spacing" textLength="24" x="594.1051" y="504.8119">0..1</text></g><!--link PreisblattHardware to Netzebene--><g id="link_PreisblattHardware_Netzebene"><path codeLine="23" d="M377.09,293.01 C438.45,293.6 507.17,293.82 570,293 C597.23,292.64 615.1946,292.2605 641.3246,291.5405 " fill="none" id="PreisblattHardware-to-Netzebene" style="stroke:#181818;stroke-width:1.0;"/><polygon fill="#181818" points="653.32,291.21,647.2121,287.3768,641.3246,291.5405,647.4325,295.3737,653.32,291.21" style="stroke:#181818;stroke-width:1.0;"/><text fill="#000000" font-family="sans-serif" font-size="13" lengthAdjust="spacing" textLength="75" x="451" y="289.0669">messebene</text><text fill="#000000" font-family="sans-serif" font-size="13" lengthAdjust="spacing" textLength="24" x="621.4396" y="304.2088">0..1</text></g><!--link PreisblattHardware to Geraet--><g id="link_PreisblattHardware_Geraet"><path codeLine="24" d="M315.29,242.09 C344.95,231.88 376.81,222.07 407,215 C498.36,193.61 595.5294,184.2795 658.6994,179.8495 " fill="none" id="PreisblattHardware-to-Geraet" style="stroke:#181818;stroke-width:1.0;"/><polygon fill="#181818" points="670.67,179.01,664.4049,175.4395,658.6994,179.8495,664.9645,183.4199,670.67,179.01" style="stroke:#181818;stroke-width:1.0;"/><text fill="#000000" font-family="sans-serif" font-size="13" lengthAdjust="spacing" textLength="75" x="451" y="185.0669">basisgeraet</text><text fill="#000000" font-family="sans-serif" font-size="13" lengthAdjust="spacing" textLength="24" x="639.1162" y="192.2999">0..1</text></g><!--link PreisblattHardware to Geraet--><g id="link_PreisblattHardware_Geraet"><path codeLine="25" d="M377.09,275.44 C439.08,267.94 508.18,256.71 570,240 C610.44,229.07 643.5144,215.0675 673.8744,200.5475 " fill="none" id="PreisblattHardware-to-Geraet-1" style="stroke:#181818;stroke-width:1.0;"/><polygon fill="#181818" points="684.7,195.37,677.5614,194.3502,673.8744,200.5475,681.013,201.5673,684.7,195.37" style="stroke:#181818;stroke-width:1.0;"/><text fill="#000000" font-family="sans-serif" font-size="13" lengthAdjust="spacing" textLength="106" x="435.5" y="236.0669">inklusiveGeraete</text><text fill="#000000" font-family="sans-serif" font-size="13" lengthAdjust="spacing" textLength="23" x="647.4125" y="215.0131">0..*</text></g><!--link PreisblattHardware to Dienstleistungstyp--><g id="link_PreisblattHardware_Dienstleistungstyp"><path codeLine="26" d="M377.25,315.03 C464.67,326.91 553.1592,338.9246 623.1592,348.4346 " fill="none" id="PreisblattHardware-to-Dienstleistungstyp" style="stroke:#181818;stroke-width:1.0;"/><polygon fill="#181818" points="635.05,350.05,629.6431,345.2787,623.1592,348.4346,628.5661,353.2059,635.05,350.05" style="stroke:#181818;stroke-width:1.0;"/><text fill="#000000" font-family="sans-serif" font-size="13" lengthAdjust="spacing" textLength="161" x="408" y="316.0669">inklusiveDienstleistungen</text><text fill="#000000" font-family="sans-serif" font-size="13" lengthAdjust="spacing" textLength="23" x="604.3593" y="361.7814">0..*</text></g><!--SRC=[jLLDRvj043s7Np6oRwwyDhQRMAYD52jLUqfxyAakYXOpXbLXGUpWABJzxrt07pYiKrTsn05cTkRjU_kqGuGh0aeW4q58u8iCboGIQLdBY2i5dSKY94gLCnXuoGHP82ZCFIQImUphv5C_VQOmaOE84oeQy5JKLLx2GegZxZP8CnJAqrKKyin_uXcoRxlKbqqAsYdN_I4_A56WOmzlZuDrW2j3D_oohXxNc2cj1nnGbC5Yo9ZjmaSO3KUJeSr6-l5nFRv-5mod4tir7Q-igo9Nd8exeanuEQ5k_NwGgL1w9Sf38b7l8VoNyDN27ykIF4QLyYMUTv2m2Lotahg9e3kxlh-vcvOwtyQjXakDy_s7Ao_Sk2ot03EEn3vNBwXVHZvrOSMbhj9sdEi6oZnk-566JKVA6Bg-lHo_FzkJtLRTVIYH2lHG8dlOVi7kgtq8XpqLpLtrvSdv0gMYIBjEkGmKFQVilfM2Tke8xpPS9Q3TVtab9VMvvZe_IcxBPluMstiYuh8Gc9K2OzHzFhAP8Gccv1769j1AWWcZ75oc-Tpl_xxTpfx6kh5M5_UWKux3plvoLCVgm6Dfs-bDHkqEc2Jz1-h-2ZcWfuAghyL9_LhzPlve5bm9LS-QrvjxXcOXVqQv4ckiCtWQGaNVSBSQU8UhgF_ceT275cFiwT-XfSBa2KnxhGH6lleB]--></g></svg>