<svg xmlns="http://www.w3.org/2000/svg" xmlns:xlink="http://www.w3.org/1999/xlink" contentStyleType="text/css" data-diagram-type="CLASS" height="574px" preserveAspectRatio="none" style="width:854px;height:574px;background:#FFFFFF;" version="1.1" viewBox="0 0 854 574" width="854px" zoomAndPan="magnify"><defs/><g><!--cluster bo4e--><g class="cluster" data-entity="bo4e" data-source-line="10" data-uid="ent0005" id="cluster_bo4e"><path d="M566.27,6 L606.146,6 A3.75,3.75 0 0 1 608.646,8.5 L615.646,28.2969 L844.84,28.2969 A2.5,2.5 0 0 1 847.34,30.7969 L847.34,564.5 A2.5,2.5 0 0 1 844.84,567 L566.27,567 A2.5,2.5 0 0 1 563.77,564.5 L563.77,8.5 A2.5,2.5 0 0 1 566.27,6" fill="none" style="stroke:#000000;stroke-width:1.5;"/><line style="stroke:#000000;stroke-width:1.5;" x1="563.77" x2="615.646" y1="28.2969" y2="28.2969"/><text fill="#000000" font-family="sans-serif" font-size="14" font-weight="bold" lengthAdjust="spacing" textLength="38.876" x="567.77" y="20.9951">bo4e</text></g><!--cluster bo--><g class="cluster" data-entity="bo" data-source-line="9" data-uid="ent0003" id="cluster_bo"><path d="M630.3,49 L695.134,49 A3.75,3.75 0 0 1 697.634,51.5 L704.634,71.2969 L780.8,71.2969 A2.5,2.5 0 0 1 783.3,73.7969 L783.3,281.5 A2.5,2.5 0 0 1 780.8,284 L630.3,284 A2.5,2.5 0 0 1 627.8,281.5 L627.8,51.5 A2.5,2.5 0 0 1 630.3,49" fill="#B6D7A8" style="stroke:#000000;stroke-width:1.5;"/><line style="stroke:#000000;stroke-width:1.5;" x1="627.8" x2="704.634" y1="71.2969" y2="71.2969"/><a href="file:////home/runner/work/BO4E-python/BO4E-python/docs/../.tox/docs/tmp/html/api/bo4e.bo.html" target="_top" title="file:////home/runner/work/BO4E-python/BO4E-python/docs/../.tox/docs/tmp/html/api/bo4e.bo.html" xlink:actuate="onRequest" xlink:href="file:////home/runner/work/BO4E-python/BO4E-python/docs/../.tox/docs/tmp/html/api/bo4e.bo.html" xlink:show="new" xlink:title="file:////home/runner/work/BO4E-python/BO4E-python/docs/../.tox/docs/tmp/html/api/bo4e.bo.html" xlink:type="simple"><text fill="#0000FF" font-family="sans-serif" font-size="14" font-weight="bold" lengthAdjust="spacing" text-decoration="underline" textLength="63.834" x="631.8" y="63.9951">bo4e.bo</text></a></g><!--cluster enum--><g class="cluster" data-entity="enum" data-source-line="14" data-uid="ent0008" id="cluster_enum"><path d="M590.27,308 L679.4809,308 A3.75,3.75 0 0 1 681.9809,310.5 L688.9809,330.2969 L820.84,330.2969 A2.5,2.5 0 0 1 823.34,332.7969 L823.34,540.5 A2.5,2.5 0 0 1 820.84,543 L590.27,543 A2.5,2.5 0 0 1 587.77,540.5 L587.77,310.5 A2.5,2.5 0 0 1 590.27,308" fill="#D1C358" style="stroke:#000000;stroke-width:1.5;"/><line style="stroke:#000000;stroke-width:1.5;" x1="587.77" x2="688.9809" y1="330.2969" y2="330.2969"/><a href="file:////home/runner/work/BO4E-python/BO4E-python/docs/../.tox/docs/tmp/html/api/bo4e.enum.html" target="_top" title="file:////home/runner/work/BO4E-python/BO4E-python/docs/../.tox/docs/tmp/html/api/bo4e.enum.html" xlink:actuate="onRequest" xlink:href="file:////home/runner/work/BO4E-python/BO4E-python/docs/../.tox/docs/tmp/html/api/bo4e.enum.html" xlink:show="new" xlink:title="file:////home/runner/work/BO4E-python/BO4E-python/docs/../.tox/docs/tmp/html/api/bo4e.enum.html" xlink:type="simple"><text fill="#0000FF" font-family="sans-serif" font-size="14" font-weight="bold" lengthAdjust="spacing" text-decoration="underline" textLength="88.2109" x="591.77" y="322.9951">bo4e.enum</text></a></g><!--class Preisblatt--><g class="entity" data-entity="Preisblatt" data-source-line="10" data-uid="ent0004" id="entity_Preisblatt"><rect fill="#F1F1F1" height="37.9375" rx="2.5" ry="2.5" style="stroke:#181818;stroke-width:0.5;" width="123.499" x="643.8" y="84.03"/><ellipse cx="658.8" cy="102.9987" fill="#ADD1B2" rx="11" ry="11" style="stroke:#181818;stroke-width:1;"/><path d="M661.7688,108.6394 Q661.1906,108.9362 660.55,109.0769 Q659.9094,109.2331 659.2063,109.2331 Q656.7063,109.2331 655.3781,107.5925 Q654.0656,105.9362 654.0656,102.8112 Q654.0656,99.6862 655.3781,98.03 Q656.7063,96.3737 659.2063,96.3737 Q659.9094,96.3737 660.55,96.53 Q661.2063,96.6862 661.7688,96.9831 L661.7688,99.7019 Q661.1438,99.1237 660.55,98.8581 Q659.9563,98.5769 659.3313,98.5769 Q657.9875,98.5769 657.3,99.655 Q656.6125,100.7175 656.6125,102.8112 Q656.6125,104.905 657.3,105.9831 Q657.9875,107.0456 659.3313,107.0456 Q659.9563,107.0456 660.55,106.78 Q661.1438,106.4987 661.7688,105.9206 L661.7688,108.6394 Z " fill="#000000"/><a href="file:////home/runner/work/BO4E-python/BO4E-python/docs/../.tox/docs/tmp/html/api/bo4e.bo.html#bo4e.bo.preisblatt.Preisblatt" target="_top" title="file:////home/runner/work/BO4E-python/BO4E-python/docs/../.tox/docs/tmp/html/api/bo4e.bo.html#bo4e.bo.preisblatt.Preisblatt" xlink:actuate="onRequest" xlink:href="file:////home/runner/work/BO4E-python/BO4E-python/docs/../.tox/docs/tmp/html/api/bo4e.bo.html#bo4e.bo.preisblatt.Preisblatt" xlink:show="new" xlink:title="file:////home/runner/work/BO4E-python/BO4E-python/docs/../.tox/docs/tmp/html/api/bo4e.bo.html#bo4e.bo.preisblatt.Preisblatt" xlink:type="simple"><text fill="#0000FF" font-family="sans-serif" font-size="14" lengthAdjust="spacing" text-decoration="underline" textLength="66.3291" x="685.385" y="102.0251">Preisblatt</text></a><text fill="#000000" font-family="sans-serif" font-size="10" lengthAdjust="spacing" textLength="91.499" x="672.8" y="114.6091">bo4e.bo.preisblatt</text></g><!--class Zaehler--><g class="entity" data-entity="Zaehler" data-source-line="11" data-uid="ent0006" id="entity_Zaehler"><rect fill="#F1F1F1" height="37.9375" rx="2.5" ry="2.5" style="stroke:#181818;stroke-width:0.5;" width="112.7129" x="649.2" y="157.03"/><ellipse cx="664.2" cy="175.9987" fill="#ADD1B2" rx="11" ry="11" style="stroke:#181818;stroke-width:1;"/><path d="M667.1688,181.6394 Q666.5906,181.9362 665.95,182.0769 Q665.3094,182.2331 664.6063,182.2331 Q662.1063,182.2331 660.7781,180.5925 Q659.4656,178.9362 659.4656,175.8112 Q659.4656,172.6862 660.7781,171.03 Q662.1063,169.3737 664.6063,169.3737 Q665.3094,169.3737 665.95,169.53 Q666.6063,169.6862 667.1688,169.9831 L667.1688,172.7019 Q666.5438,172.1237 665.95,171.8581 Q665.3563,171.5769 664.7313,171.5769 Q663.3875,171.5769 662.7,172.655 Q662.0125,173.7175 662.0125,175.8112 Q662.0125,177.905 662.7,178.9831 Q663.3875,180.0456 664.7313,180.0456 Q665.3563,180.0456 665.95,179.78 Q666.5438,179.4987 667.1688,178.9206 L667.1688,181.6394 Z " fill="#000000"/><a href="file:////home/runner/work/BO4E-python/BO4E-python/docs/../.tox/docs/tmp/html/api/bo4e.bo.html#bo4e.bo.zaehler.Zaehler" target="_top" title="file:////home/runner/work/BO4E-python/BO4E-python/docs/../.tox/docs/tmp/html/api/bo4e.bo.html#bo4e.bo.zaehler.Zaehler" xlink:actuate="onRequest" xlink:href="file:////home/runner/work/BO4E-python/BO4E-python/docs/../.tox/docs/tmp/html/api/bo4e.bo.html#bo4e.bo.zaehler.Zaehler" xlink:show="new" xlink:title="file:////home/runner/work/BO4E-python/BO4E-python/docs/../.tox/docs/tmp/html/api/bo4e.bo.html#bo4e.bo.zaehler.Zaehler" xlink:type="simple"><text fill="#0000FF" font-family="sans-serif" font-size="14" lengthAdjust="spacing" text-decoration="underline" textLength="53.915" x="691.5989" y="175.0251">Zaehler</text></a><text fill="#000000" font-family="sans-serif" font-size="10" lengthAdjust="spacing" textLength="80.7129" x="678.2" y="187.6091">bo4e.bo.zaehler</text></g><!--class Geraet--><g class="entity" data-entity="Geraet" data-source-line="12" data-uid="ent0007" id="entity_Geraet"><rect fill="#F1F1F1" height="37.9375" rx="2.5" ry="2.5" style="stroke:#181818;stroke-width:0.5;" width="108.6162" x="651.24" y="230.03"/><ellipse cx="666.24" cy="248.9987" fill="#ADD1B2" rx="11" ry="11" style="stroke:#181818;stroke-width:1;"/><path d="M669.2088,254.6394 Q668.6306,254.9362 667.99,255.0769 Q667.3494,255.2331 666.6463,255.2331 Q664.1463,255.2331 662.8181,253.5925 Q661.5056,251.9362 661.5056,248.8112 Q661.5056,245.6862 662.8181,244.03 Q664.1463,242.3737 666.6463,242.3737 Q667.3494,242.3737 667.99,242.53 Q668.6463,242.6862 669.2088,242.9831 L669.2088,245.7019 Q668.5838,245.1237 667.99,244.8581 Q667.3963,244.5769 666.7713,244.5769 Q665.4275,244.5769 664.74,245.655 Q664.0525,246.7175 664.0525,248.8112 Q664.0525,250.905 664.74,251.9831 Q665.4275,253.0456 666.7713,253.0456 Q667.3963,253.0456 667.99,252.78 Q668.5838,252.4987 669.2088,251.9206 L669.2088,254.6394 Z " fill="#000000"/><a href="file:////home/runner/work/BO4E-python/BO4E-python/docs/../.tox/docs/tmp/html/api/bo4e.bo.html#bo4e.bo.geraet.Geraet" target="_top" title="file:////home/runner/work/BO4E-python/BO4E-python/docs/../.tox/docs/tmp/html/api/bo4e.bo.html#bo4e.bo.geraet.Geraet" xlink:actuate="onRequest" xlink:href="file:////home/runner/work/BO4E-python/BO4E-python/docs/../.tox/docs/tmp/html/api/bo4e.bo.html#bo4e.bo.geraet.Geraet" xlink:show="new" xlink:title="file:////home/runner/work/BO4E-python/BO4E-python/docs/../.tox/docs/tmp/html/api/bo4e.bo.html#bo4e.bo.geraet.Geraet" xlink:type="simple"><text fill="#0000FF" font-family="sans-serif" font-size="14" lengthAdjust="spacing" text-decoration="underline" textLength="47.8994" x="694.5984" y="248.0251">Geraet</text></a><text fill="#000000" font-family="sans-serif" font-size="10" lengthAdjust="spacing" textLength="76.6162" x="680.24" y="260.6091">bo4e.bo.geraet</text></g><!--class Bilanzierungsmethode--><g class="entity" data-entity="Bilanzierungsmethode" data-source-line="15" data-uid="ent0009" id="entity_Bilanzierungsmethode"><rect fill="#F1F1F1" height="37.9375" rx="2.5" ry="2.5" style="stroke:#181818;stroke-width:0.5;" width="203.5723" x="603.77" y="343.03"/><ellipse cx="618.77" cy="361.9988" fill="#ADD1B2" rx="11" ry="11" style="stroke:#181818;stroke-width:1;"/><path d="M621.7388,367.6394 Q621.1606,367.9363 620.52,368.0769 Q619.8794,368.2331 619.1763,368.2331 Q616.6763,368.2331 615.3481,366.5925 Q614.0356,364.9363 614.0356,361.8113 Q614.0356,358.6863 615.3481,357.03 Q616.6763,355.3738 619.1763,355.3738 Q619.8794,355.3738 620.52,355.53 Q621.1763,355.6863 621.7388,355.9831 L621.7388,358.7019 Q621.1138,358.1238 620.52,357.8581 Q619.9263,357.5769 619.3013,357.5769 Q617.9575,357.5769 617.27,358.655 Q616.5825,359.7175 616.5825,361.8113 Q616.5825,363.905 617.27,364.9831 Q617.9575,366.0456 619.3013,366.0456 Q619.9263,366.0456 620.52,365.78 Q621.1138,365.4988 621.7388,364.9206 L621.7388,367.6394 Z " fill="#000000"/><a href="file:////home/runner/work/BO4E-python/BO4E-python/docs/../.tox/docs/tmp/html/api/bo4e.enum.html#bo4e.enum.bilanzierungsmethode.Bilanzierungsmethode" target="_top" title="file:////home/runner/work/BO4E-python/BO4E-python/docs/../.tox/docs/tmp/html/api/bo4e.enum.html#bo4e.enum.bilanzierungsmethode.Bilanzierungsmethode" xlink:actuate="onRequest" xlink:href="file:////home/runner/work/BO4E-python/BO4E-python/docs/../.tox/docs/tmp/html/api/bo4e.enum.html#bo4e.enum.bilanzierungsmethode.Bilanzierungsmethode" xlink:show="new" xlink:title="file:////home/runner/work/BO4E-python/BO4E-python/docs/../.tox/docs/tmp/html/api/bo4e.enum.html#bo4e.enum.bilanzierungsmethode.Bilanzierungsmethode" xlink:type="simple"><text fill="#0000FF" font-family="sans-serif" font-size="14" lengthAdjust="spacing" text-decoration="underline" textLength="157.0488" x="640.0317" y="361.0251">Bilanzierungsmethode</text></a><text fill="#000000" font-family="sans-serif" font-size="10" lengthAdjust="spacing" textLength="171.5723" x="632.77" y="373.6091">bo4e.enum.bilanzierungsmethode</text></g><!--class Netzebene--><g class="entity" data-entity="Netzebene" data-source-line="16" data-uid="ent0010" id="entity_Netzebene"><rect fill="#F1F1F1" height="37.9375" rx="2.5" ry="2.5" style="stroke:#181818;stroke-width:0.5;" width="144.71" x="633.2" y="416.03"/><ellipse cx="648.2" cy="434.9988" fill="#ADD1B2" rx="11" ry="11" style="stroke:#181818;stroke-width:1;"/><path d="M651.1688,440.6394 Q650.5906,440.9363 649.95,441.0769 Q649.3094,441.2331 648.6063,441.2331 Q646.1063,441.2331 644.7781,439.5925 Q643.4656,437.9363 643.4656,434.8113 Q643.4656,431.6863 644.7781,430.03 Q646.1063,428.3738 648.6063,428.3738 Q649.3094,428.3738 649.95,428.53 Q650.6063,428.6863 651.1688,428.9831 L651.1688,431.7019 Q650.5438,431.1238 649.95,430.8581 Q649.3563,430.5769 648.7313,430.5769 Q647.3875,430.5769 646.7,431.655 Q646.0125,432.7175 646.0125,434.8113 Q646.0125,436.905 646.7,437.9831 Q647.3875,439.0456 648.7313,439.0456 Q649.3563,439.0456 649.95,438.78 Q650.5438,438.4988 651.1688,437.9206 L651.1688,440.6394 Z " fill="#000000"/><a href="file:////home/runner/work/BO4E-python/BO4E-python/docs/../.tox/docs/tmp/html/api/bo4e.enum.html#bo4e.enum.netzebene.Netzebene" target="_top" title="file:////home/runner/work/BO4E-python/BO4E-python/docs/../.tox/docs/tmp/html/api/bo4e.enum.html#bo4e.enum.netzebene.Netzebene" xlink:actuate="onRequest" xlink:href="file:////home/runner/work/BO4E-python/BO4E-python/docs/../.tox/docs/tmp/html/api/bo4e.enum.html#bo4e.enum.netzebene.Netzebene" xlink:show="new" xlink:title="file:////home/runner/work/BO4E-python/BO4E-python/docs/../.tox/docs/tmp/html/api/bo4e.enum.html#bo4e.enum.netzebene.Netzebene" xlink:type="simple"><text fill="#0000FF" font-family="sans-serif" font-size="14" lengthAdjust="spacing" text-decoration="underline" textLength="75.5234" x="680.7933" y="434.0251">Netzebene</text></a><text fill="#000000" font-family="sans-serif" font-size="10" lengthAdjust="spacing" textLength="112.71" x="662.2" y="446.6091">bo4e.enum.netzebene</text></g><!--class Dienstleistungstyp--><g class="entity" data-entity="Dienstleistungstyp" data-source-line="17" data-uid="ent0011" id="entity_Dienstleistungstyp"><rect fill="#F1F1F1" height="37.9375" rx="2.5" ry="2.5" style="stroke:#181818;stroke-width:0.5;" width="183.9141" x="613.59" y="489.03"/><ellipse cx="628.59" cy="507.9988" fill="#ADD1B2" rx="11" ry="11" style="stroke:#181818;stroke-width:1;"/><path d="M631.5588,513.6394 Q630.9806,513.9363 630.34,514.0769 Q629.6994,514.2331 628.9963,514.2331 Q626.4963,514.2331 625.1681,512.5925 Q623.8556,510.9363 623.8556,507.8113 Q623.8556,504.6863 625.1681,503.03 Q626.4963,501.3738 628.9963,501.3738 Q629.6994,501.3738 630.34,501.53 Q630.9963,501.6863 631.5588,501.9831 L631.5588,504.7019 Q630.9338,504.1238 630.34,503.8581 Q629.7463,503.5769 629.1213,503.5769 Q627.7775,503.5769 627.09,504.655 Q626.4025,505.7175 626.4025,507.8113 Q626.4025,509.905 627.09,510.9831 Q627.7775,512.0456 629.1213,512.0456 Q629.7463,512.0456 630.34,511.78 Q630.9338,511.4988 631.5588,510.9206 L631.5588,513.6394 Z " fill="#000000"/><a href="file:////home/runner/work/BO4E-python/BO4E-python/docs/../.tox/docs/tmp/html/api/bo4e.enum.html#bo4e.enum.dienstleistungstyp.Dienstleistungstyp" target="_top" title="file:////home/runner/work/BO4E-python/BO4E-python/docs/../.tox/docs/tmp/html/api/bo4e.enum.html#bo4e.enum.dienstleistungstyp.Dienstleistungstyp" xlink:actuate="onRequest" xlink:href="file:////home/runner/work/BO4E-python/BO4E-python/docs/../.tox/docs/tmp/html/api/bo4e.enum.html#bo4e.enum.dienstleistungstyp.Dienstleistungstyp" xlink:show="new" xlink:title="file:////home/runner/work/BO4E-python/BO4E-python/docs/../.tox/docs/tmp/html/api/bo4e.enum.html#bo4e.enum.dienstleistungstyp.Dienstleistungstyp" xlink:type="simple"><text fill="#0000FF" font-family="sans-serif" font-size="14" lengthAdjust="spacing" text-decoration="underline" textLength="130.7031" x="653.1955" y="507.0251">Dienstleistungstyp</text></a><text fill="#000000" font-family="sans-serif" font-size="10" lengthAdjust="spacing" textLength="151.9141" x="642.59" y="519.6091">bo4e.enum.dienstleistungstyp</text></g><!--class PreisblattMessung--><g class="entity" data-entity="PreisblattMessung" data-source-line="3" data-uid="ent0002" id="entity_PreisblattMessung"><rect fill="#F1F1F1" height="94.8281" rx="2.5" ry="2.5" style="stroke:#181818;stroke-width:0.5;" width="341.7656" x="7" y="275.59"/><ellipse cx="105.2148" cy="294.5588" fill="#ADD1B2" rx="11" ry="11" style="stroke:#181818;stroke-width:1;"/><path d="M108.1836,300.1994 Q107.6055,300.4963 106.9648,300.6369 Q106.3242,300.7931 105.6211,300.7931 Q103.1211,300.7931 101.793,299.1525 Q100.4805,297.4963 100.4805,294.3713 Q100.4805,291.2463 101.793,289.59 Q103.1211,287.9338 105.6211,287.9338 Q106.3242,287.9338 106.9648,288.09 Q107.6211,288.2463 108.1836,288.5431 L108.1836,291.2619 Q107.5586,290.6838 106.9648,290.4181 Q106.3711,290.1369 105.7461,290.1369 Q104.4023,290.1369 103.7148,291.215 Q103.0273,292.2775 103.0273,294.3713 Q103.0273,296.465 103.7148,297.5431 Q104.4023,298.6056 105.7461,298.6056 Q106.3711,298.6056 106.9648,298.34 Q107.5586,298.0588 108.1836,297.4806 L108.1836,300.1994 Z " fill="#000000"/><a href="file:////home/runner/work/BO4E-python/BO4E-python/docs/../.tox/docs/tmp/html/api/bo4e.bo.html#bo4e.bo.preisblattmessung.PreisblattMessung" target="_top" title="file:////home/runner/work/BO4E-python/BO4E-python/docs/../.tox/docs/tmp/html/api/bo4e.bo.html#bo4e.bo.preisblattmessung.PreisblattMessung" xlink:actuate="onRequest" xlink:href="file:////home/runner/work/BO4E-python/BO4E-python/docs/../.tox/docs/tmp/html/api/bo4e.bo.html#bo4e.bo.preisblattmessung.PreisblattMessung" xlink:show="new" xlink:title="file:////home/runner/work/BO4E-python/BO4E-python/docs/../.tox/docs/tmp/html/api/bo4e.bo.html#bo4e.bo.preisblattmessung.PreisblattMessung" xlink:type="simple"><text fill="#0000FF" font-family="sans-serif" font-size="14" lengthAdjust="spacing" text-decoration="underline" textLength="128.2422" x="130.0117" y="293.5851">PreisblattMessung</text></a><text fill="#000000" font-family="sans-serif" font-size="10" lengthAdjust="spacing" textLength="136.8359" x="125.7148" y="306.1691">bo4e.bo.preisblattmessung</text><line style="stroke:#181818;stroke-width:0.5;" x1="8" x2="347.7656" y1="313.5275" y2="313.5275"/><text fill="#000000" font-family="sans-serif" font-size="14" lengthAdjust="spacing" textLength="329.7656" x="13" y="330.5226">_version : str [0..1] = 202501.0.0+g64af9038d</text><text fill="#000000" font-family="sans-serif" font-size="14" lengthAdjust="spacing" textLength="318.5752" x="13" y="346.8195">zusatzAttribute : ZusatzAttribut [0..*] = None</text><text fill="#000000" font-family="sans-serif" font-size="14" lengthAdjust="spacing" textLength="151.1768" x="13" y="363.1164">_id : str [0..1] = None</text></g><!--link PreisblattMessung to Preisblatt--><g class="link" data-entity-1="PreisblattMessung" data-entity-2="Preisblatt" data-source-line="20" data-uid="lnk12" id="link_PreisblattMessung_Preisblatt"><path codeLine="20" d="M234.38,275.18 C272.66,244.46 325.98,205.96 378.77,182 C466.21,142.31 558.4723,123.6508 625.6723,113.4908" fill="none" id="PreisblattMessung-to-Preisblatt" style="stroke:#181818;stroke-width:1;"/><polygon fill="none" points="643.47,110.8,624.7753,107.5583,626.5692,119.4234,643.47,110.8" style="stroke:#181818;stroke-width:1;"/></g><!--link PreisblattMessung to Bilanzierungsmethode--><g class="link" data-entity-1="PreisblattMessung" data-entity-2="Bilanzierungsmethode" data-source-line="21" data-uid="lnk13" id="link_PreisblattMessung_Bilanzierungsmethode"><path codeLine="21" d="M349.19,335.64 C433.15,341.86 519.5928,348.2834 591.5328,353.6134" fill="none" id="PreisblattMessung-to-Bilanzierungsmethode" style="stroke:#181818;stroke-width:1;"/><polygon fill="#181818" points="603.5,354.5,597.8119,350.0676,591.5328,353.6134,597.2209,358.0457,603.5,354.5" style="stroke:#181818;stroke-width:1;"/><text fill="#000000" font-family="sans-serif" font-size="13" lengthAdjust="spacing" textLength="145.1646" x="390.77" y="334.0669">bilanzierungsmethode</text><text fill="#000000" font-family="sans-serif" font-size="13" lengthAdjust="spacing" textLength="24.8066" x="570.7985" y="366.5721">0..1</text></g><!--link PreisblattMessung to Netzebene--><g class="link" data-entity-1="PreisblattMessung" data-entity-2="Netzebene" data-source-line="22" data-uid="lnk14" id="link_PreisblattMessung_Netzebene"><path codeLine="22" d="M349.06,368.16 C359.09,370.55 369.05,372.84 378.77,375 C465.65,394.28 554.7063,410.179 620.9163,421.319" fill="none" id="PreisblattMessung-to-Netzebene" style="stroke:#181818;stroke-width:1;"/><polygon fill="#181818" points="632.75,423.31,627.4968,418.3699,620.9163,421.319,626.1695,426.259,632.75,423.31" style="stroke:#181818;stroke-width:1;"/><text fill="#000000" font-family="sans-serif" font-size="13" lengthAdjust="spacing" textLength="74.6929" x="426.27" y="371.0669">messebene</text><text fill="#000000" font-family="sans-serif" font-size="13" lengthAdjust="spacing" textLength="24.8066" x="600.4417" y="434.9711">0..1</text></g><!--link PreisblattMessung to Zaehler--><g class="link" data-entity-1="PreisblattMessung" data-entity-2="Zaehler" data-source-line="23" data-uid="lnk15" id="link_PreisblattMessung_Zaehler"><path codeLine="23" d="M298.18,275.1 C324.49,265.42 352.38,255.82 378.77,248 C472.2,220.3 571.7406,200.0947 637.0906,187.9947" fill="none" id="PreisblattMessung-to-Zaehler" style="stroke:#181818;stroke-width:1;"/><polygon fill="#181818" points="648.89,185.81,642.262,182.9692,637.0906,187.9947,643.7185,190.8355,648.89,185.81" style="stroke:#181818;stroke-width:1;"/><text fill="#000000" font-family="sans-serif" font-size="13" lengthAdjust="spacing" textLength="47.9819" x="439.77" y="203.0669">zaehler</text><text fill="#000000" font-family="sans-serif" font-size="13" lengthAdjust="spacing" textLength="24.8066" x="616.5704" y="199.9948">0..1</text></g><!--link PreisblattMessung to Dienstleistungstyp--><g class="link" data-entity-1="PreisblattMessung" data-entity-2="Dienstleistungstyp" data-source-line="24" data-uid="lnk16" id="link_PreisblattMessung_Dienstleistungstyp"><path codeLine="24" d="M252.84,370.69 C289.52,392.6 335.2,417.35 378.77,434 C455.43,463.31 535.0487,480.757 601.5187,492.357" fill="none" id="PreisblattMessung-to-Dienstleistungstyp" style="stroke:#181818;stroke-width:1;"/><polygon fill="#181818" points="613.34,494.42,608.117,489.4481,601.5187,492.357,606.7417,497.3289,613.34,494.42" style="stroke:#181818;stroke-width:1;"/><text fill="#000000" font-family="sans-serif" font-size="13" lengthAdjust="spacing" textLength="167.0957" x="379.77" y="430.0669">inklusiveDienstleistungen</text><text fill="#000000" font-family="sans-serif" font-size="13" lengthAdjust="spacing" textLength="23.0356" x="582.4013" y="506.0266">0..*</text></g><!--link PreisblattMessung to Geraet--><g class="link" data-entity-1="PreisblattMessung" data-entity-2="Geraet" data-source-line="25" data-uid="lnk17" id="link_PreisblattMessung_Geraet"><path codeLine="25" d="M349.19,299.03 C453.7,284.31 568.697,268.1218 639.067,258.2218" fill="none" id="PreisblattMessung-to-Geraet" style="stroke:#181818;stroke-width:1;"/><polygon fill="#181818" points="650.95,256.55,644.4513,253.4249,639.067,258.2218,645.5658,261.3469,650.95,256.55" style="stroke:#181818;stroke-width:1;"/><text fill="#000000" font-family="sans-serif" font-size="13" lengthAdjust="spacing" textLength="109.7827" x="408.77" y="269.0669">inklusiveGeraete</text><text fill="#000000" font-family="sans-serif" font-size="13" lengthAdjust="spacing" textLength="23.0356" x="620.3095" y="270.3649">0..*</text></g><!--SRC=[nLLBSzCm43xNls8dkOM9xBHfAHxeJ3DbE54uDtWOsTxOcjgIHv9RQk2_8p-IEBK2kP3u8krgzzEt3wyoN6dG0YHBKWqnanXf9hZZH1bL2aRBvOfbwBlcIqMEhYmvH-a-2_deBhxCFqwB5vqAlhEFHQHSGboYnOzMq7dXfZhFN5emDnHp9A4WjMAy5Wg9J8KPrJf7fKgUaAyRpUTM0mDD47pZxnMhq9zvDtkHHa3Lq1T-EcVVdr0g4otueBI4fKV8B80FSEwTNtepuX7lJN8rfwjttiLrx9nLfQAwkjLQih3KQBmUTZGDmAG6k1SS3JoBNoCt1xyTXrD3hg0H_lSCGoS4GPE7JeBnukhkxUrrdOMJLRfNubvz_b7KLzKyElsAOfgX90_j2jrgPTtPDfGxkwFpJL1IrEHJiq2xMCcsXWtNrihqwH7Q57cPzngr5lkjMiimZcVHnUKncdN3PhmLGvPHNZ4qToGgHuCL8rbOb61J3dEz5xI9sePnah0vwWf3v4ZkrplOxFP4jV5fGjbOduH_p90hdPb1eUjKwfU2t0rKC5Jj2Mq8ryGuzA_7k-Nncav_tQodR-_OPcfi9p2gdupHzYUmTvmFjaOw77HRMX_gvx8jro7k9ehr2FIX6tH_TPpqxxLKmWV67xDIiIVSFKL-4AuXr0sv7bAhGST9cSbMZdbeNdn7fU8PB9WhXbci_W00]--></g></svg>