<svg xmlns="http://www.w3.org/2000/svg" xmlns:xlink="http://www.w3.org/1999/xlink" contentStyleType="text/css" data-diagram-type="CLASS" height="428px" preserveAspectRatio="none" style="width:856px;height:428px;background:#FFFFFF;" version="1.1" viewBox="0 0 856 428" width="856px" zoomAndPan="magnify"><defs/><g><!--cluster bo4e--><g class="cluster" data-entity="bo4e" data-source-line="10" data-uid="ent0005" id="cluster_bo4e"><path d="M568.71,6 L608.586,6 A3.75,3.75 0 0 1 611.086,8.5 L618.086,28.2969 L847.28,28.2969 A2.5,2.5 0 0 1 849.78,30.7969 L849.78,418.5 A2.5,2.5 0 0 1 847.28,421 L568.71,421 A2.5,2.5 0 0 1 566.21,418.5 L566.21,8.5 A2.5,2.5 0 0 1 568.71,6" fill="none" style="stroke:#000000;stroke-width:1.5;"/><line style="stroke:#000000;stroke-width:1.5;" x1="566.21" x2="618.086" y1="28.2969" y2="28.2969"/><text fill="#000000" font-family="sans-serif" font-size="14" font-weight="bold" lengthAdjust="spacing" textLength="38.876" x="570.21" y="20.9951">bo4e</text></g><!--cluster bo--><g class="cluster" data-entity="bo" data-source-line="9" data-uid="ent0003" id="cluster_bo"><path d="M632.74,49 L697.574,49 A3.75,3.75 0 0 1 700.074,51.5 L707.074,71.2969 L783.24,71.2969 A2.5,2.5 0 0 1 785.74,73.7969 L785.74,208.5 A2.5,2.5 0 0 1 783.24,211 L632.74,211 A2.5,2.5 0 0 1 630.24,208.5 L630.24,51.5 A2.5,2.5 0 0 1 632.74,49" fill="#B6D7A8" style="stroke:#000000;stroke-width:1.5;"/><line style="stroke:#000000;stroke-width:1.5;" x1="630.24" x2="707.074" y1="71.2969" y2="71.2969"/><a href="file:////home/runner/work/BO4E-python/BO4E-python/docs/../.tox/docs/tmp/html/api/bo4e.bo.html" target="_top" title="file:////home/runner/work/BO4E-python/BO4E-python/docs/../.tox/docs/tmp/html/api/bo4e.bo.html" xlink:actuate="onRequest" xlink:href="file:////home/runner/work/BO4E-python/BO4E-python/docs/../.tox/docs/tmp/html/api/bo4e.bo.html" xlink:show="new" xlink:title="file:////home/runner/work/BO4E-python/BO4E-python/docs/../.tox/docs/tmp/html/api/bo4e.bo.html" xlink:type="simple"><text fill="#0000FF" font-family="sans-serif" font-size="14" font-weight="bold" lengthAdjust="spacing" text-decoration="underline" textLength="63.834" x="634.24" y="63.9951">bo4e.bo</text></a></g><!--cluster enum--><g class="cluster" data-entity="enum" data-source-line="13" data-uid="ent0007" id="cluster_enum"><path d="M592.71,235 L681.9209,235 A3.75,3.75 0 0 1 684.4209,237.5 L691.4209,257.2969 L823.28,257.2969 A2.5,2.5 0 0 1 825.78,259.7969 L825.78,394.5 A2.5,2.5 0 0 1 823.28,397 L592.71,397 A2.5,2.5 0 0 1 590.21,394.5 L590.21,237.5 A2.5,2.5 0 0 1 592.71,235" fill="#D1C358" style="stroke:#000000;stroke-width:1.5;"/><line style="stroke:#000000;stroke-width:1.5;" x1="590.21" x2="691.4209" y1="257.2969" y2="257.2969"/><a href="file:////home/runner/work/BO4E-python/BO4E-python/docs/../.tox/docs/tmp/html/api/bo4e.enum.html" target="_top" title="file:////home/runner/work/BO4E-python/BO4E-python/docs/../.tox/docs/tmp/html/api/bo4e.enum.html" xlink:actuate="onRequest" xlink:href="file:////home/runner/work/BO4E-python/BO4E-python/docs/../.tox/docs/tmp/html/api/bo4e.enum.html" xlink:show="new" xlink:title="file:////home/runner/work/BO4E-python/BO4E-python/docs/../.tox/docs/tmp/html/api/bo4e.enum.html" xlink:type="simple"><text fill="#0000FF" font-family="sans-serif" font-size="14" font-weight="bold" lengthAdjust="spacing" text-decoration="underline" textLength="88.2109" x="594.21" y="249.9951">bo4e.enum</text></a></g><!--class Preisblatt--><g class="entity" data-entity="Preisblatt" data-source-line="10" data-uid="ent0004" id="entity_Preisblatt"><rect fill="#F1F1F1" height="37.9375" rx="2.5" ry="2.5" style="stroke:#181818;stroke-width:0.5;" width="123.499" x="646.24" y="84.03"/><ellipse cx="661.24" cy="102.9987" fill="#ADD1B2" rx="11" ry="11" style="stroke:#181818;stroke-width:1;"/><path d="M664.2088,108.6394 Q663.6306,108.9362 662.99,109.0769 Q662.3494,109.2331 661.6463,109.2331 Q659.1463,109.2331 657.8181,107.5925 Q656.5056,105.9362 656.5056,102.8112 Q656.5056,99.6862 657.8181,98.03 Q659.1463,96.3737 661.6463,96.3737 Q662.3494,96.3737 662.99,96.53 Q663.6463,96.6862 664.2088,96.9831 L664.2088,99.7019 Q663.5838,99.1237 662.99,98.8581 Q662.3963,98.5769 661.7713,98.5769 Q660.4275,98.5769 659.74,99.655 Q659.0525,100.7175 659.0525,102.8112 Q659.0525,104.905 659.74,105.9831 Q660.4275,107.0456 661.7713,107.0456 Q662.3963,107.0456 662.99,106.78 Q663.5838,106.4987 664.2088,105.9206 L664.2088,108.6394 Z " fill="#000000"/><a href="file:////home/runner/work/BO4E-python/BO4E-python/docs/../.tox/docs/tmp/html/api/bo4e.bo.html#bo4e.bo.preisblatt.Preisblatt" target="_top" title="file:////home/runner/work/BO4E-python/BO4E-python/docs/../.tox/docs/tmp/html/api/bo4e.bo.html#bo4e.bo.preisblatt.Preisblatt" xlink:actuate="onRequest" xlink:href="file:////home/runner/work/BO4E-python/BO4E-python/docs/../.tox/docs/tmp/html/api/bo4e.bo.html#bo4e.bo.preisblatt.Preisblatt" xlink:show="new" xlink:title="file:////home/runner/work/BO4E-python/BO4E-python/docs/../.tox/docs/tmp/html/api/bo4e.bo.html#bo4e.bo.preisblatt.Preisblatt" xlink:type="simple"><text fill="#0000FF" font-family="sans-serif" font-size="14" lengthAdjust="spacing" text-decoration="underline" textLength="66.3291" x="687.825" y="102.0251">Preisblatt</text></a><text fill="#000000" font-family="sans-serif" font-size="10" lengthAdjust="spacing" textLength="91.499" x="675.24" y="114.6091">bo4e.bo.preisblatt</text></g><!--class Geraet--><g class="entity" data-entity="Geraet" data-source-line="11" data-uid="ent0006" id="entity_Geraet"><rect fill="#F1F1F1" height="37.9375" rx="2.5" ry="2.5" style="stroke:#181818;stroke-width:0.5;" width="108.6162" x="653.68" y="157.03"/><ellipse cx="668.68" cy="175.9987" fill="#ADD1B2" rx="11" ry="11" style="stroke:#181818;stroke-width:1;"/><path d="M671.6488,181.6394 Q671.0706,181.9362 670.43,182.0769 Q669.7894,182.2331 669.0863,182.2331 Q666.5863,182.2331 665.2581,180.5925 Q663.9456,178.9362 663.9456,175.8112 Q663.9456,172.6862 665.2581,171.03 Q666.5863,169.3737 669.0863,169.3737 Q669.7894,169.3737 670.43,169.53 Q671.0863,169.6862 671.6488,169.9831 L671.6488,172.7019 Q671.0238,172.1237 670.43,171.8581 Q669.8363,171.5769 669.2113,171.5769 Q667.8675,171.5769 667.18,172.655 Q666.4925,173.7175 666.4925,175.8112 Q666.4925,177.905 667.18,178.9831 Q667.8675,180.0456 669.2113,180.0456 Q669.8363,180.0456 670.43,179.78 Q671.0238,179.4987 671.6488,178.9206 L671.6488,181.6394 Z " fill="#000000"/><a href="file:////home/runner/work/BO4E-python/BO4E-python/docs/../.tox/docs/tmp/html/api/bo4e.bo.html#bo4e.bo.geraet.Geraet" target="_top" title="file:////home/runner/work/BO4E-python/BO4E-python/docs/../.tox/docs/tmp/html/api/bo4e.bo.html#bo4e.bo.geraet.Geraet" xlink:actuate="onRequest" xlink:href="file:////home/runner/work/BO4E-python/BO4E-python/docs/../.tox/docs/tmp/html/api/bo4e.bo.html#bo4e.bo.geraet.Geraet" xlink:show="new" xlink:title="file:////home/runner/work/BO4E-python/BO4E-python/docs/../.tox/docs/tmp/html/api/bo4e.bo.html#bo4e.bo.geraet.Geraet" xlink:type="simple"><text fill="#0000FF" font-family="sans-serif" font-size="14" lengthAdjust="spacing" text-decoration="underline" textLength="47.8994" x="697.0384" y="175.0251">Geraet</text></a><text fill="#000000" font-family="sans-serif" font-size="10" lengthAdjust="spacing" textLength="76.6162" x="682.68" y="187.6091">bo4e.bo.geraet</text></g><!--class Dienstleistungstyp--><g class="entity" data-entity="Dienstleistungstyp" data-source-line="14" data-uid="ent0008" id="entity_Dienstleistungstyp"><rect fill="#F1F1F1" height="37.9375" rx="2.5" ry="2.5" style="stroke:#181818;stroke-width:0.5;" width="183.9141" x="616.04" y="270.03"/><ellipse cx="631.04" cy="288.9988" fill="#ADD1B2" rx="11" ry="11" style="stroke:#181818;stroke-width:1;"/><path d="M634.0088,294.6394 Q633.4306,294.9363 632.79,295.0769 Q632.1494,295.2331 631.4463,295.2331 Q628.9463,295.2331 627.6181,293.5925 Q626.3056,291.9363 626.3056,288.8113 Q626.3056,285.6863 627.6181,284.03 Q628.9463,282.3738 631.4463,282.3738 Q632.1494,282.3738 632.79,282.53 Q633.4463,282.6863 634.0088,282.9831 L634.0088,285.7019 Q633.3838,285.1238 632.79,284.8581 Q632.1963,284.5769 631.5713,284.5769 Q630.2275,284.5769 629.54,285.655 Q628.8525,286.7175 628.8525,288.8113 Q628.8525,290.905 629.54,291.9831 Q630.2275,293.0456 631.5713,293.0456 Q632.1963,293.0456 632.79,292.78 Q633.3838,292.4988 634.0088,291.9206 L634.0088,294.6394 Z " fill="#000000"/><a href="file:////home/runner/work/BO4E-python/BO4E-python/docs/../.tox/docs/tmp/html/api/bo4e.enum.html#bo4e.enum.dienstleistungstyp.Dienstleistungstyp" target="_top" title="file:////home/runner/work/BO4E-python/BO4E-python/docs/../.tox/docs/tmp/html/api/bo4e.enum.html#bo4e.enum.dienstleistungstyp.Dienstleistungstyp" xlink:actuate="onRequest" xlink:href="file:////home/runner/work/BO4E-python/BO4E-python/docs/../.tox/docs/tmp/html/api/bo4e.enum.html#bo4e.enum.dienstleistungstyp.Dienstleistungstyp" xlink:show="new" xlink:title="file:////home/runner/work/BO4E-python/BO4E-python/docs/../.tox/docs/tmp/html/api/bo4e.enum.html#bo4e.enum.dienstleistungstyp.Dienstleistungstyp" xlink:type="simple"><text fill="#0000FF" font-family="sans-serif" font-size="14" lengthAdjust="spacing" text-decoration="underline" textLength="130.7031" x="655.6455" y="288.0251">Dienstleistungstyp</text></a><text fill="#000000" font-family="sans-serif" font-size="10" lengthAdjust="spacing" textLength="151.9141" x="645.04" y="300.6091">bo4e.enum.dienstleistungstyp</text></g><!--class Bilanzierungsmethode--><g class="entity" data-entity="Bilanzierungsmethode" data-source-line="15" data-uid="ent0009" id="entity_Bilanzierungsmethode"><rect fill="#F1F1F1" height="37.9375" rx="2.5" ry="2.5" style="stroke:#181818;stroke-width:0.5;" width="203.5723" x="606.21" y="343.03"/><ellipse cx="621.21" cy="361.9988" fill="#ADD1B2" rx="11" ry="11" style="stroke:#181818;stroke-width:1;"/><path d="M624.1788,367.6394 Q623.6006,367.9363 622.96,368.0769 Q622.3194,368.2331 621.6163,368.2331 Q619.1163,368.2331 617.7881,366.5925 Q616.4756,364.9363 616.4756,361.8113 Q616.4756,358.6863 617.7881,357.03 Q619.1163,355.3738 621.6163,355.3738 Q622.3194,355.3738 622.96,355.53 Q623.6163,355.6863 624.1788,355.9831 L624.1788,358.7019 Q623.5538,358.1238 622.96,357.8581 Q622.3663,357.5769 621.7413,357.5769 Q620.3975,357.5769 619.71,358.655 Q619.0225,359.7175 619.0225,361.8113 Q619.0225,363.905 619.71,364.9831 Q620.3975,366.0456 621.7413,366.0456 Q622.3663,366.0456 622.96,365.78 Q623.5538,365.4988 624.1788,364.9206 L624.1788,367.6394 Z " fill="#000000"/><a href="file:////home/runner/work/BO4E-python/BO4E-python/docs/../.tox/docs/tmp/html/api/bo4e.enum.html#bo4e.enum.bilanzierungsmethode.Bilanzierungsmethode" target="_top" title="file:////home/runner/work/BO4E-python/BO4E-python/docs/../.tox/docs/tmp/html/api/bo4e.enum.html#bo4e.enum.bilanzierungsmethode.Bilanzierungsmethode" xlink:actuate="onRequest" xlink:href="file:////home/runner/work/BO4E-python/BO4E-python/docs/../.tox/docs/tmp/html/api/bo4e.enum.html#bo4e.enum.bilanzierungsmethode.Bilanzierungsmethode" xlink:show="new" xlink:title="file:////home/runner/work/BO4E-python/BO4E-python/docs/../.tox/docs/tmp/html/api/bo4e.enum.html#bo4e.enum.bilanzierungsmethode.Bilanzierungsmethode" xlink:type="simple"><text fill="#0000FF" font-family="sans-serif" font-size="14" lengthAdjust="spacing" text-decoration="underline" textLength="157.0488" x="642.4717" y="361.0251">Bilanzierungsmethode</text></a><text fill="#000000" font-family="sans-serif" font-size="10" lengthAdjust="spacing" textLength="171.5723" x="635.21" y="373.6091">bo4e.enum.bilanzierungsmethode</text></g><!--class PreisblattDienstleistung--><g class="entity" data-entity="PreisblattDienstleistung" data-source-line="3" data-uid="ent0002" id="entity_PreisblattDienstleistung"><rect fill="#F1F1F1" height="94.8281" rx="2.5" ry="2.5" style="stroke:#181818;stroke-width:0.5;" width="344.2061" x="7" y="185.59"/><ellipse cx="91.3145" cy="204.5588" fill="#ADD1B2" rx="11" ry="11" style="stroke:#181818;stroke-width:1;"/><path d="M94.2832,210.1994 Q93.7051,210.4963 93.0645,210.6369 Q92.4238,210.7931 91.7207,210.7931 Q89.2207,210.7931 87.8926,209.1525 Q86.5801,207.4963 86.5801,204.3713 Q86.5801,201.2463 87.8926,199.59 Q89.2207,197.9338 91.7207,197.9338 Q92.4238,197.9338 93.0645,198.09 Q93.7207,198.2463 94.2832,198.5431 L94.2832,201.2619 Q93.6582,200.6838 93.0645,200.4181 Q92.4707,200.1369 91.8457,200.1369 Q90.502,200.1369 89.8145,201.215 Q89.127,202.2775 89.127,204.3713 Q89.127,206.465 89.8145,207.5431 Q90.502,208.6056 91.8457,208.6056 Q92.4707,208.6056 93.0645,208.34 Q93.6582,208.0588 94.2832,207.4806 L94.2832,210.1994 Z " fill="#000000"/><a href="file:////home/runner/work/BO4E-python/BO4E-python/docs/../.tox/docs/tmp/html/api/bo4e.bo.html#bo4e.bo.preisblattdienstleistung.PreisblattDienstleistung" target="_top" title="file:////home/runner/work/BO4E-python/BO4E-python/docs/../.tox/docs/tmp/html/api/bo4e.bo.html#bo4e.bo.preisblattdienstleistung.PreisblattDienstleistung" xlink:actuate="onRequest" xlink:href="file:////home/runner/work/BO4E-python/BO4E-python/docs/../.tox/docs/tmp/html/api/bo4e.bo.html#bo4e.bo.preisblattdienstleistung.PreisblattDienstleistung" xlink:show="new" xlink:title="file:////home/runner/work/BO4E-python/BO4E-python/docs/../.tox/docs/tmp/html/api/bo4e.bo.html#bo4e.bo.preisblattdienstleistung.PreisblattDienstleistung" xlink:type="simple"><text fill="#0000FF" font-family="sans-serif" font-size="14" lengthAdjust="spacing" text-decoration="underline" textLength="167.0771" x="111.8145" y="203.5851">PreisblattDienstleistung</text></a><text fill="#000000" font-family="sans-serif" font-size="10" lengthAdjust="spacing" textLength="162.1094" x="114.2983" y="216.1691">bo4e.bo.preisblattdienstleistung</text><line style="stroke:#181818;stroke-width:0.5;" x1="8" x2="350.2061" y1="223.5275" y2="223.5275"/><text fill="#000000" font-family="sans-serif" font-size="14" lengthAdjust="spacing" textLength="332.2061" x="13" y="240.5226">_version : str [0..1] = 202501.0.0+g245ac3b0a</text><text fill="#000000" font-family="sans-serif" font-size="14" lengthAdjust="spacing" textLength="318.5752" x="13" y="256.8195">zusatzAttribute : ZusatzAttribut [0..*] = None</text><text fill="#000000" font-family="sans-serif" font-size="14" lengthAdjust="spacing" textLength="151.1768" x="13" y="273.1164">_id : str [0..1] = None</text></g><!--link PreisblattDienstleistung to Preisblatt--><g class="link" data-entity-1="PreisblattDienstleistung" data-entity-2="Preisblatt" data-source-line="18" data-uid="lnk10" id="link_PreisblattDienstleistung_Preisblatt"><path codeLine="18" d="M327.06,185.09 C345.22,179.73 363.58,174.56 381.21,170 C472.61,146.35 562.4384,128.7895 628.2184,116.8695" fill="none" id="PreisblattDienstleistung-to-Preisblatt" style="stroke:#181818;stroke-width:1;"/><polygon fill="none" points="645.93,113.66,627.1486,110.9657,629.2883,122.7734,645.93,113.66" style="stroke:#181818;stroke-width:1;"/></g><!--link PreisblattDienstleistung to Bilanzierungsmethode--><g class="link" data-entity-1="PreisblattDienstleistung" data-entity-2="Bilanzierungsmethode" data-source-line="19" data-uid="lnk11" id="link_PreisblattDienstleistung_Bilanzierungsmethode"><path codeLine="19" d="M264.74,280.78 C299.76,298.45 341.42,316.87 381.21,328 C454.73,348.56 528.7452,356.3069 593.9252,359.5869" fill="none" id="PreisblattDienstleistung-to-Bilanzierungsmethode" style="stroke:#181818;stroke-width:1;"/><polygon fill="#181818" points="605.91,360.19,600.1186,355.8935,593.9252,359.5869,599.7165,363.8834,605.91,360.19" style="stroke:#181818;stroke-width:1;"/><text fill="#000000" font-family="sans-serif" font-size="13" lengthAdjust="spacing" textLength="145.1646" x="393.21" y="324.0669">bilanzierungsmethode</text><text fill="#000000" font-family="sans-serif" font-size="13" lengthAdjust="spacing" textLength="24.8066" x="573.5614" y="372.6797">0..1</text></g><!--link PreisblattDienstleistung to Dienstleistungstyp--><g class="link" data-entity-1="PreisblattDienstleistung" data-entity-2="Dienstleistungstyp" data-source-line="20" data-uid="lnk12" id="link_PreisblattDienstleistung_Dienstleistungstyp"><path codeLine="20" d="M351.48,250.95 C414.02,257.53 485.32,265.06 550.21,272 C571.44,274.27 582.3604,275.4322 603.8704,277.7722" fill="none" id="PreisblattDienstleistung-to-Dienstleistungstyp" style="stroke:#181818;stroke-width:1;"/><polygon fill="#181818" points="615.8,279.07,610.2678,274.4446,603.8704,277.7722,609.4026,282.3976,615.8,279.07" style="stroke:#181818;stroke-width:1;"/><text fill="#000000" font-family="sans-serif" font-size="13" lengthAdjust="spacing" textLength="125.1694" x="403.21" y="251.0669">basisdienstleistung</text><text fill="#000000" font-family="sans-serif" font-size="13" lengthAdjust="spacing" textLength="24.8066" x="583.2046" y="290.9413">0..1</text></g><!--link PreisblattDienstleistung to Dienstleistungstyp--><g class="link" data-entity-1="PreisblattDienstleistung" data-entity-2="Dienstleistungstyp" data-source-line="21" data-uid="lnk13" id="link_PreisblattDienstleistung_Dienstleistungstyp"><path codeLine="21" d="M310.41,280.85 C333.69,287.56 357.94,293.39 381.21,297 C455.43,308.53 475.12,298.91 550.21,297 C571.46,296.46 582.3345,296.0906 603.8445,295.0306" fill="none" id="PreisblattDienstleistung-to-Dienstleistungstyp-1" style="stroke:#181818;stroke-width:1;"/><polygon fill="#181818" points="615.83,294.44,609.6404,290.7402,603.8445,295.0306,610.0342,298.7305,615.83,294.44" style="stroke:#181818;stroke-width:1;"/><text fill="#000000" font-family="sans-serif" font-size="13" lengthAdjust="spacing" textLength="167.0957" x="382.21" y="293.0669">inklusiveDienstleistungen</text><text fill="#000000" font-family="sans-serif" font-size="13" lengthAdjust="spacing" textLength="23.0356" x="584.8944" y="307.5028">0..*</text></g><!--link PreisblattDienstleistung to Geraet--><g class="link" data-entity-1="PreisblattDienstleistung" data-entity-2="Geraet" data-source-line="22" data-uid="lnk14" id="link_PreisblattDienstleistung_Geraet"><path codeLine="22" d="M351.53,214.45 C456.22,203.13 571.1498,190.7022 641.4998,183.0822" fill="none" id="PreisblattDienstleistung-to-Geraet" style="stroke:#181818;stroke-width:1;"/><polygon fill="#181818" points="653.43,181.79,647.0341,178.4594,641.4998,183.0822,647.8956,186.4129,653.43,181.79" style="stroke:#181818;stroke-width:1;"/><text fill="#000000" font-family="sans-serif" font-size="13" lengthAdjust="spacing" textLength="93.9644" x="419.21" y="191.0669">geraetedetails</text><text fill="#000000" font-family="sans-serif" font-size="13" lengthAdjust="spacing" textLength="24.8066" x="620.9539" y="195.5683">0..1</text></g><!--SRC=[nLN1Rjim33tNNq4ajmoHdJHPXs0hq233RjlEoun2jfbOg2mP4jsksVRla-sqjHjxMGzBVP4VAJwGV3GjSKD06epOfWI9C1YJqChpOicjXS5wlH4I5xvxKfsXRmgbqFXtsjpuoo-pZ-FydbAjMk-9ZgtFcCz8_wW1PRcVKYPzdWi_qZDaaMQbOVW0SeF2Hf8J9GAL9UaW5MhBlZuwLYq7z3d2yBjwRyKE5vFWyXZz0BZjPOAVtjdrBHhh6W8Bi6HW7J0s2U43J8FfF9YmW0LljjFPdCVdKS2zirrXEUskY8o82a8NzQrbgGX69S5dhT3HY-GvS-NuxNcAPsXp7kD_5m7s80ohTkmH39TlLnTNxyeklDemDEHlo7H4ucUYdZpzBHgEn3vL1zH7PyhrnIhT-fRJ_GIoeogoXl0bR4fVOXWca_XyVWhn7xCPFi7sHshfFcUh0nCScWwxt4DNLNiO_oh5Ha9ojHDeoYGoT5m9icM74RgCFILtaLP5Tt6KwwP_qOx7louVbaBZrbyYNCW81kL26poDL7T92-ZAzCNS7TFXcBaLjgtzln2FZX8BTICBAswnxKNrahnTC_SROW7r8i04YGjfFIyLhZKPPf7x-NWsrNVGJxmHA1Fx1m00]--></g></svg>