<?xml version="1.0" encoding="us-ascii" standalone="no"?><svg xmlns="http://www.w3.org/2000/svg" xmlns:xlink="http://www.w3.org/1999/xlink" contentStyleType="text/css" height="574px" preserveAspectRatio="none" style="width:868px;height:574px;background:#FFFFFF;" version="1.1" viewBox="0 0 868 574" width="868px" zoomAndPan="magnify"><defs/><g><!--cluster bo4e--><g id="cluster_bo4e"><path d="M587.5,6 L628.5,6 A3.75,3.75 0 0 1 631,8.5 L638,28.2969 L858.5,28.2969 A2.5,2.5 0 0 1 861,30.7969 L861,564.5 A2.5,2.5 0 0 1 858.5,567 L587.5,567 A2.5,2.5 0 0 1 585,564.5 L585,8.5 A2.5,2.5 0 0 1 587.5,6 " fill="none" style="stroke:#000000;stroke-width:1.5;"/><line style="stroke:#000000;stroke-width:1.5;" x1="585" x2="638" y1="28.2969" y2="28.2969"/><text fill="#000000" font-family="sans-serif" font-size="14" font-weight="bold" lengthAdjust="spacing" textLength="40" x="589" y="20.9951">bo4e</text></g><!--cluster bo--><g id="cluster_bo"><path d="M650,49 L716,49 A3.75,3.75 0 0 1 718.5,51.5 L725.5,71.2969 L796,71.2969 A2.5,2.5 0 0 1 798.5,73.7969 L798.5,281.5 A2.5,2.5 0 0 1 796,284 L650,284 A2.5,2.5 0 0 1 647.5,281.5 L647.5,51.5 A2.5,2.5 0 0 1 650,49 " fill="#B6D7A8" style="stroke:#000000;stroke-width:1.5;"/><line style="stroke:#000000;stroke-width:1.5;" x1="647.5" x2="725.5" y1="71.2969" y2="71.2969"/><a href="https://bo4e.github.io/BO4E-python/latest/api/bo4e.bo.html" target="_top" title="https://bo4e.github.io/BO4E-python/latest/api/bo4e.bo.html" xlink:actuate="onRequest" xlink:href="https://bo4e.github.io/BO4E-python/latest/api/bo4e.bo.html" xlink:show="new" xlink:title="https://bo4e.github.io/BO4E-python/latest/api/bo4e.bo.html" xlink:type="simple"><text fill="#0000FF" font-family="sans-serif" font-size="14" font-weight="bold" lengthAdjust="spacing" text-decoration="underline" textLength="65" x="651.5" y="63.9951">bo4e.bo</text></a></g><!--cluster enum--><g id="cluster_enum"><path d="M611.5,308 L701.5,308 A3.75,3.75 0 0 1 704,310.5 L711,330.2969 L834.5,330.2969 A2.5,2.5 0 0 1 837,332.7969 L837,540.5 A2.5,2.5 0 0 1 834.5,543 L611.5,543 A2.5,2.5 0 0 1 609,540.5 L609,310.5 A2.5,2.5 0 0 1 611.5,308 " fill="#D1C358" style="stroke:#000000;stroke-width:1.5;"/><line style="stroke:#000000;stroke-width:1.5;" x1="609" x2="711" y1="330.2969" y2="330.2969"/><a href="https://bo4e.github.io/BO4E-python/latest/api/bo4e.enum.html" target="_top" title="https://bo4e.github.io/BO4E-python/latest/api/bo4e.enum.html" xlink:actuate="onRequest" xlink:href="https://bo4e.github.io/BO4E-python/latest/api/bo4e.enum.html" xlink:show="new" xlink:title="https://bo4e.github.io/BO4E-python/latest/api/bo4e.enum.html" xlink:type="simple"><text fill="#0000FF" font-family="sans-serif" font-size="14" font-weight="bold" lengthAdjust="spacing" text-decoration="underline" textLength="89" x="613" y="322.9951">bo4e.enum</text></a></g><!--class Zaehler--><g id="elem_Zaehler"><rect codeLine="10" fill="#F1F1F1" height="37.9375" id="Zaehler" rx="2.5" ry="2.5" style="stroke:#181818;stroke-width:0.5;" width="109" x="668.5" y="84.03"/><ellipse cx="683.5" cy="102.9987" fill="#ADD1B2" rx="11" ry="11" style="stroke:#181818;stroke-width:1.0;"/><path d="M686.4688,108.6394 Q685.8906,108.9362 685.25,109.0769 Q684.6094,109.2331 683.9063,109.2331 Q681.4063,109.2331 680.0781,107.5925 Q678.7656,105.9362 678.7656,102.8112 Q678.7656,99.6862 680.0781,98.03 Q681.4063,96.3737 683.9063,96.3737 Q684.6094,96.3737 685.25,96.53 Q685.9063,96.6862 686.4688,96.9831 L686.4688,99.7019 Q685.8438,99.1237 685.25,98.8581 Q684.6563,98.5769 684.0313,98.5769 Q682.6875,98.5769 682,99.655 Q681.3125,100.7175 681.3125,102.8112 Q681.3125,104.905 682,105.9831 Q682.6875,107.0456 684.0313,107.0456 Q684.6563,107.0456 685.25,106.78 Q685.8438,106.4987 686.4688,105.9206 L686.4688,108.6394 Z " fill="#000000"/><a href="https://bo4e.github.io/BO4E-python/latest/api/bo4e.bo.html#bo4e.bo.zaehler.Zaehler" target="_top" title="https://bo4e.github.io/BO4E-python/latest/api/bo4e.bo.html#bo4e.bo.zaehler.Zaehler" xlink:actuate="onRequest" xlink:href="https://bo4e.github.io/BO4E-python/latest/api/bo4e.bo.html#bo4e.bo.zaehler.Zaehler" xlink:show="new" xlink:title="https://bo4e.github.io/BO4E-python/latest/api/bo4e.bo.html#bo4e.bo.zaehler.Zaehler" xlink:type="simple"><text fill="#0000FF" font-family="sans-serif" font-size="14" lengthAdjust="spacing" text-decoration="underline" textLength="53" x="709.5" y="102.0251">Zaehler</text></a><text fill="#000000" font-family="sans-serif" font-size="10" lengthAdjust="spacing" textLength="77" x="697.5" y="114.6091">bo4e.bo.zaehler</text></g><!--class Geraet--><g id="elem_Geraet"><rect codeLine="11" fill="#F1F1F1" height="37.9375" id="Geraet" rx="2.5" ry="2.5" style="stroke:#181818;stroke-width:0.5;" width="106" x="670" y="157.03"/><ellipse cx="685" cy="175.9987" fill="#ADD1B2" rx="11" ry="11" style="stroke:#181818;stroke-width:1.0;"/><path d="M687.9688,181.6394 Q687.3906,181.9362 686.75,182.0769 Q686.1094,182.2331 685.4063,182.2331 Q682.9063,182.2331 681.5781,180.5925 Q680.2656,178.9362 680.2656,175.8112 Q680.2656,172.6862 681.5781,171.03 Q682.9063,169.3737 685.4063,169.3737 Q686.1094,169.3737 686.75,169.53 Q687.4063,169.6862 687.9688,169.9831 L687.9688,172.7019 Q687.3438,172.1237 686.75,171.8581 Q686.1563,171.5769 685.5313,171.5769 Q684.1875,171.5769 683.5,172.655 Q682.8125,173.7175 682.8125,175.8112 Q682.8125,177.905 683.5,178.9831 Q684.1875,180.0456 685.5313,180.0456 Q686.1563,180.0456 686.75,179.78 Q687.3438,179.4987 687.9688,178.9206 L687.9688,181.6394 Z " fill="#000000"/><a href="https://bo4e.github.io/BO4E-python/latest/api/bo4e.bo.html#bo4e.bo.geraet.Geraet" target="_top" title="https://bo4e.github.io/BO4E-python/latest/api/bo4e.bo.html#bo4e.bo.geraet.Geraet" xlink:actuate="onRequest" xlink:href="https://bo4e.github.io/BO4E-python/latest/api/bo4e.bo.html#bo4e.bo.geraet.Geraet" xlink:show="new" xlink:title="https://bo4e.github.io/BO4E-python/latest/api/bo4e.bo.html#bo4e.bo.geraet.Geraet" xlink:type="simple"><text fill="#0000FF" font-family="sans-serif" font-size="14" lengthAdjust="spacing" text-decoration="underline" textLength="47" x="712.5" y="175.0251">Geraet</text></a><text fill="#000000" font-family="sans-serif" font-size="10" lengthAdjust="spacing" textLength="74" x="699" y="187.6091">bo4e.bo.geraet</text></g><!--class Preisblatt--><g id="elem_Preisblatt"><rect codeLine="12" fill="#F1F1F1" height="37.9375" id="Preisblatt" rx="2.5" ry="2.5" style="stroke:#181818;stroke-width:0.5;" width="119" x="663.5" y="230.03"/><ellipse cx="678.5" cy="248.9987" fill="#ADD1B2" rx="11" ry="11" style="stroke:#181818;stroke-width:1.0;"/><path d="M681.4688,254.6394 Q680.8906,254.9362 680.25,255.0769 Q679.6094,255.2331 678.9063,255.2331 Q676.4063,255.2331 675.0781,253.5925 Q673.7656,251.9362 673.7656,248.8112 Q673.7656,245.6862 675.0781,244.03 Q676.4063,242.3737 678.9063,242.3737 Q679.6094,242.3737 680.25,242.53 Q680.9063,242.6862 681.4688,242.9831 L681.4688,245.7019 Q680.8438,245.1237 680.25,244.8581 Q679.6563,244.5769 679.0313,244.5769 Q677.6875,244.5769 677,245.655 Q676.3125,246.7175 676.3125,248.8112 Q676.3125,250.905 677,251.9831 Q677.6875,253.0456 679.0313,253.0456 Q679.6563,253.0456 680.25,252.78 Q680.8438,252.4987 681.4688,251.9206 L681.4688,254.6394 Z " fill="#000000"/><a href="https://bo4e.github.io/BO4E-python/latest/api/bo4e.bo.html#bo4e.bo.preisblatt.Preisblatt" target="_top" title="https://bo4e.github.io/BO4E-python/latest/api/bo4e.bo.html#bo4e.bo.preisblatt.Preisblatt" xlink:actuate="onRequest" xlink:href="https://bo4e.github.io/BO4E-python/latest/api/bo4e.bo.html#bo4e.bo.preisblatt.Preisblatt" xlink:show="new" xlink:title="https://bo4e.github.io/BO4E-python/latest/api/bo4e.bo.html#bo4e.bo.preisblatt.Preisblatt" xlink:type="simple"><text fill="#0000FF" font-family="sans-serif" font-size="14" lengthAdjust="spacing" text-decoration="underline" textLength="64" x="704" y="248.0251">Preisblatt</text></a><text fill="#000000" font-family="sans-serif" font-size="10" lengthAdjust="spacing" textLength="87" x="692.5" y="260.6091">bo4e.bo.preisblatt</text></g><!--class Bilanzierungsmethode--><g id="elem_Bilanzierungsmethode"><rect codeLine="15" fill="#F1F1F1" height="37.9375" id="Bilanzierungsmethode" rx="2.5" ry="2.5" style="stroke:#181818;stroke-width:0.5;" width="196" x="625" y="343.03"/><ellipse cx="640" cy="361.9988" fill="#ADD1B2" rx="11" ry="11" style="stroke:#181818;stroke-width:1.0;"/><path d="M642.9688,367.6394 Q642.3906,367.9363 641.75,368.0769 Q641.1094,368.2331 640.4063,368.2331 Q637.9063,368.2331 636.5781,366.5925 Q635.2656,364.9363 635.2656,361.8113 Q635.2656,358.6863 636.5781,357.03 Q637.9063,355.3738 640.4063,355.3738 Q641.1094,355.3738 641.75,355.53 Q642.4063,355.6863 642.9688,355.9831 L642.9688,358.7019 Q642.3438,358.1238 641.75,357.8581 Q641.1563,357.5769 640.5313,357.5769 Q639.1875,357.5769 638.5,358.655 Q637.8125,359.7175 637.8125,361.8113 Q637.8125,363.905 638.5,364.9831 Q639.1875,366.0456 640.5313,366.0456 Q641.1563,366.0456 641.75,365.78 Q642.3438,365.4988 642.9688,364.9206 L642.9688,367.6394 Z " fill="#000000"/><a href="https://bo4e.github.io/BO4E-python/latest/api/bo4e.enum.html#bo4e.enum.bilanzierungsmethode.Bilanzierungsmethode" target="_top" title="https://bo4e.github.io/BO4E-python/latest/api/bo4e.enum.html#bo4e.enum.bilanzierungsmethode.Bilanzierungsmethode" xlink:actuate="onRequest" xlink:href="https://bo4e.github.io/BO4E-python/latest/api/bo4e.enum.html#bo4e.enum.bilanzierungsmethode.Bilanzierungsmethode" xlink:show="new" xlink:title="https://bo4e.github.io/BO4E-python/latest/api/bo4e.enum.html#bo4e.enum.bilanzierungsmethode.Bilanzierungsmethode" xlink:type="simple"><text fill="#0000FF" font-family="sans-serif" font-size="14" lengthAdjust="spacing" text-decoration="underline" textLength="156" x="658" y="361.0251">Bilanzierungsmethode</text></a><text fill="#000000" font-family="sans-serif" font-size="10" lengthAdjust="spacing" textLength="164" x="654" y="373.6091">bo4e.enum.bilanzierungsmethode</text></g><!--class Netzebene--><g id="elem_Netzebene"><rect codeLine="16" fill="#F1F1F1" height="37.9375" id="Netzebene" rx="2.5" ry="2.5" style="stroke:#181818;stroke-width:0.5;" width="141" x="652.5" y="416.03"/><ellipse cx="667.5" cy="434.9988" fill="#ADD1B2" rx="11" ry="11" style="stroke:#181818;stroke-width:1.0;"/><path d="M670.4688,440.6394 Q669.8906,440.9363 669.25,441.0769 Q668.6094,441.2331 667.9063,441.2331 Q665.4063,441.2331 664.0781,439.5925 Q662.7656,437.9363 662.7656,434.8113 Q662.7656,431.6863 664.0781,430.03 Q665.4063,428.3738 667.9063,428.3738 Q668.6094,428.3738 669.25,428.53 Q669.9063,428.6863 670.4688,428.9831 L670.4688,431.7019 Q669.8438,431.1238 669.25,430.8581 Q668.6563,430.5769 668.0313,430.5769 Q666.6875,430.5769 666,431.655 Q665.3125,432.7175 665.3125,434.8113 Q665.3125,436.905 666,437.9831 Q666.6875,439.0456 668.0313,439.0456 Q668.6563,439.0456 669.25,438.78 Q669.8438,438.4988 670.4688,437.9206 L670.4688,440.6394 Z " fill="#000000"/><a href="https://bo4e.github.io/BO4E-python/latest/api/bo4e.enum.html#bo4e.enum.netzebene.Netzebene" target="_top" title="https://bo4e.github.io/BO4E-python/latest/api/bo4e.enum.html#bo4e.enum.netzebene.Netzebene" xlink:actuate="onRequest" xlink:href="https://bo4e.github.io/BO4E-python/latest/api/bo4e.enum.html#bo4e.enum.netzebene.Netzebene" xlink:show="new" xlink:title="https://bo4e.github.io/BO4E-python/latest/api/bo4e.enum.html#bo4e.enum.netzebene.Netzebene" xlink:type="simple"><text fill="#0000FF" font-family="sans-serif" font-size="14" lengthAdjust="spacing" text-decoration="underline" textLength="77" x="697.5" y="434.0251">Netzebene</text></a><text fill="#000000" font-family="sans-serif" font-size="10" lengthAdjust="spacing" textLength="109" x="681.5" y="446.6091">bo4e.enum.netzebene</text></g><!--class Dienstleistungstyp--><g id="elem_Dienstleistungstyp"><rect codeLine="17" fill="#F1F1F1" height="37.9375" id="Dienstleistungstyp" rx="2.5" ry="2.5" style="stroke:#181818;stroke-width:0.5;" width="177" x="634.5" y="489.03"/><ellipse cx="649.5" cy="507.9988" fill="#ADD1B2" rx="11" ry="11" style="stroke:#181818;stroke-width:1.0;"/><path d="M652.4688,513.6394 Q651.8906,513.9363 651.25,514.0769 Q650.6094,514.2331 649.9063,514.2331 Q647.4063,514.2331 646.0781,512.5925 Q644.7656,510.9363 644.7656,507.8113 Q644.7656,504.6863 646.0781,503.03 Q647.4063,501.3738 649.9063,501.3738 Q650.6094,501.3738 651.25,501.53 Q651.9063,501.6863 652.4688,501.9831 L652.4688,504.7019 Q651.8438,504.1238 651.25,503.8581 Q650.6563,503.5769 650.0313,503.5769 Q648.6875,503.5769 648,504.655 Q647.3125,505.7175 647.3125,507.8113 Q647.3125,509.905 648,510.9831 Q648.6875,512.0456 650.0313,512.0456 Q650.6563,512.0456 651.25,511.78 Q651.8438,511.4988 652.4688,510.9206 L652.4688,513.6394 Z " fill="#000000"/><a href="https://bo4e.github.io/BO4E-python/latest/api/bo4e.enum.html#bo4e.enum.dienstleistungstyp.Dienstleistungstyp" target="_top" title="https://bo4e.github.io/BO4E-python/latest/api/bo4e.enum.html#bo4e.enum.dienstleistungstyp.Dienstleistungstyp" xlink:actuate="onRequest" xlink:href="https://bo4e.github.io/BO4E-python/latest/api/bo4e.enum.html#bo4e.enum.dienstleistungstyp.Dienstleistungstyp" xlink:show="new" xlink:title="https://bo4e.github.io/BO4E-python/latest/api/bo4e.enum.html#bo4e.enum.dienstleistungstyp.Dienstleistungstyp" xlink:type="simple"><text fill="#0000FF" font-family="sans-serif" font-size="14" lengthAdjust="spacing" text-decoration="underline" textLength="129" x="671.5" y="507.0251">Dienstleistungstyp</text></a><text fill="#000000" font-family="sans-serif" font-size="10" lengthAdjust="spacing" textLength="145" x="663.5" y="519.6091">bo4e.enum.dienstleistungstyp</text></g><!--class PreisblattMessung--><g id="elem_PreisblattMessung"><rect codeLine="3" fill="#F1F1F1" height="94.8281" id="PreisblattMessung" rx="2.5" ry="2.5" style="stroke:#181818;stroke-width:0.5;" width="369" x="7" y="284.59"/><ellipse cx="121.75" cy="303.5588" fill="#ADD1B2" rx="11" ry="11" style="stroke:#181818;stroke-width:1.0;"/><path d="M124.7188,309.1994 Q124.1406,309.4963 123.5,309.6369 Q122.8594,309.7931 122.1563,309.7931 Q119.6563,309.7931 118.3281,308.1525 Q117.0156,306.4963 117.0156,303.3713 Q117.0156,300.2463 118.3281,298.59 Q119.6563,296.9338 122.1563,296.9338 Q122.8594,296.9338 123.5,297.09 Q124.1563,297.2463 124.7188,297.5431 L124.7188,300.2619 Q124.0938,299.6838 123.5,299.4181 Q122.9063,299.1369 122.2813,299.1369 Q120.9375,299.1369 120.25,300.215 Q119.5625,301.2775 119.5625,303.3713 Q119.5625,305.465 120.25,306.5431 Q120.9375,307.6056 122.2813,307.6056 Q122.9063,307.6056 123.5,307.34 Q124.0938,307.0588 124.7188,306.4806 L124.7188,309.1994 Z " fill="#000000"/><a href="https://bo4e.github.io/BO4E-python/latest/api/bo4e.bo.html#bo4e.bo.preisblattmessung.PreisblattMessung" target="_top" title="https://bo4e.github.io/BO4E-python/latest/api/bo4e.bo.html#bo4e.bo.preisblattmessung.PreisblattMessung" xlink:actuate="onRequest" xlink:href="https://bo4e.github.io/BO4E-python/latest/api/bo4e.bo.html#bo4e.bo.preisblattmessung.PreisblattMessung" xlink:show="new" xlink:title="https://bo4e.github.io/BO4E-python/latest/api/bo4e.bo.html#bo4e.bo.preisblattmessung.PreisblattMessung" xlink:type="simple"><text fill="#0000FF" font-family="sans-serif" font-size="14" lengthAdjust="spacing" text-decoration="underline" textLength="128" x="143.75" y="302.5851">PreisblattMessung</text></a><text fill="#000000" font-family="sans-serif" font-size="10" lengthAdjust="spacing" textLength="131" x="142.25" y="315.1691">bo4e.bo.preisblattmessung</text><line style="stroke:#181818;stroke-width:0.5;" x1="8" x2="375" y1="322.5275" y2="322.5275"/><text fill="#000000" font-family="sans-serif" font-size="14" lengthAdjust="spacing" textLength="357" x="13" y="339.5226">_version : str [0..1] = 202401.6.1.dev7+gce8ae722</text><text fill="#000000" font-family="sans-serif" font-size="14" lengthAdjust="spacing" textLength="311" x="13" y="355.8195">zusatzAttribute : ZusatzAttribut [0..*] = None</text><text fill="#000000" font-family="sans-serif" font-size="14" lengthAdjust="spacing" textLength="147" x="13" y="372.1164">_id : str [0..1] = None</text></g><!--link PreisblattMessung to Preisblatt--><g id="link_PreisblattMessung_Preisblatt"><path codeLine="20" d="M376.21,303.2 C476.57,287.47 576.3472,271.8276 645.3072,261.0176 " fill="none" id="PreisblattMessung-to-Preisblatt" style="stroke:#181818;stroke-width:1.0;"/><polygon fill="none" points="663.09,258.23,644.378,255.09,646.2364,266.9452,663.09,258.23" style="stroke:#181818;stroke-width:1.0;"/></g><!--link PreisblattMessung to Bilanzierungsmethode--><g id="link_PreisblattMessung_Bilanzierungsmethode"><path codeLine="21" d="M376.21,342.41 C459.84,347.15 543.4393,351.8802 612.8793,355.8202 " fill="none" id="PreisblattMessung-to-Bilanzierungsmethode" style="stroke:#181818;stroke-width:1.0;"/><polygon fill="#181818" points="624.86,356.5,619.0962,352.1665,612.8793,355.8202,618.643,360.1537,624.86,356.5" style="stroke:#181818;stroke-width:1.0;"/><text fill="#000000" font-family="sans-serif" font-size="13" lengthAdjust="spacing" textLength="142" x="416.5" y="341.0669">bilanzierungsmethode</text><text fill="#000000" font-family="sans-serif" font-size="13" lengthAdjust="spacing" textLength="24" x="593.1158" y="368.7123">0..1</text></g><!--link PreisblattMessung to Netzebene--><g id="link_PreisblattMessung_Netzebene"><path codeLine="22" d="M376.4,372.99 C386.41,375.06 396.32,377.08 406,379 C490.43,395.77 576.2163,410.699 640.3463,421.489 " fill="none" id="PreisblattMessung-to-Netzebene" style="stroke:#181818;stroke-width:1.0;"/><polygon fill="#181818" points="652.18,423.48,646.9268,418.5399,640.3463,421.489,645.5995,426.429,652.18,423.48" style="stroke:#181818;stroke-width:1.0;"/><text fill="#000000" font-family="sans-serif" font-size="13" lengthAdjust="spacing" textLength="75" x="450" y="375.0669">messebene</text><text fill="#000000" font-family="sans-serif" font-size="13" lengthAdjust="spacing" textLength="24" x="620.545" y="435.1825">0..1</text></g><!--link PreisblattMessung to Zaehler--><g id="link_PreisblattMessung_Zaehler"><path codeLine="23" d="M254.08,284.28 C295.26,254.19 351.66,216.37 406,191 C477.86,157.45 500.56,161.14 577,140 C607.05,131.69 629.1483,125.9504 656.5083,119.1104 " fill="none" id="PreisblattMessung-to-Zaehler" style="stroke:#181818;stroke-width:1.0;"/><polygon fill="#181818" points="668.15,116.2,661.359,113.7746,656.5083,119.1104,663.2993,121.5358,668.15,116.2" style="stroke:#181818;stroke-width:1.0;"/><text fill="#000000" font-family="sans-serif" font-size="13" lengthAdjust="spacing" textLength="47" x="464" y="139.0669">zaehler</text><text fill="#000000" font-family="sans-serif" font-size="13" lengthAdjust="spacing" textLength="24" x="636.4205" y="130.6682">0..1</text></g><!--link PreisblattMessung to Dienstleistungstyp--><g id="link_PreisblattMessung_Dienstleistungstyp"><path codeLine="24" d="M282.69,379.8 C320.1,398.26 364.41,418.41 406,433 C481.29,459.42 558.1188,477.2078 622.3188,489.9278 " fill="none" id="PreisblattMessung-to-Dienstleistungstyp" style="stroke:#181818;stroke-width:1.0;"/><polygon fill="#181818" points="634.09,492.26,628.9818,487.1702,622.3188,489.9278,627.427,495.0176,634.09,492.26" style="stroke:#181818;stroke-width:1.0;"/><text fill="#000000" font-family="sans-serif" font-size="13" lengthAdjust="spacing" textLength="161" x="407" y="429.0669">inklusiveDienstleistungen</text><text fill="#000000" font-family="sans-serif" font-size="13" lengthAdjust="spacing" textLength="23" x="603.4024" y="503.7012">0..*</text></g><!--link PreisblattMessung to Geraet--><g id="link_PreisblattMessung_Geraet"><path codeLine="25" d="M330.52,284.17 C355.56,275.86 381.5,267.49 406,260 C481.37,236.95 500.81,233.19 577,213 C607.64,204.88 630.3758,199.0402 657.9558,192.0702 " fill="none" id="PreisblattMessung-to-Geraet" style="stroke:#181818;stroke-width:1.0;"/><polygon fill="#181818" points="669.59,189.13,662.7928,186.722,657.9558,192.0702,664.753,194.4782,669.59,189.13" style="stroke:#181818;stroke-width:1.0;"/><text fill="#000000" font-family="sans-serif" font-size="13" lengthAdjust="spacing" textLength="106" x="434.5" y="212.0669">inklusiveGeraete</text><text fill="#000000" font-family="sans-serif" font-size="13" lengthAdjust="spacing" textLength="23" x="639.0848" y="203.5901">0..*</text></g><!--SRC=[hLNVRvim47ukVyKfUSiK4xAigT1MgL6dFQtRSpCqcN05Qs0GFZALRV_xp8yGMfmjKdWoTxxx_9tlunpZ4m6ba8im8WX4ZZiIgRIiNSoLWibs6n5bohLjFrqX2mL5XSz4Qc- -h3xEisUAKcd7d52HpJFHHFafYoY9fmSZor4eNqTHWaeLCcHVEy_dnWC3Z-Tza- -LAD5r5hSdaIR0rJ0NVbbNt_UOArqAkA0eX-s2CSU33x1SB5SBXrqpXmMuNxy9TtZ3SRrSMbTbeJYLTqIvy0j2dVdumbE3p2gGXrIYFa84hz7hZJ-M9RaccF4TNdQ5q1gULnVQMZ3TND-lxswgCiViKyanYZ5dZyqAxMhiH1jRqshZnYKJOiwHsATwWMOnCca2Qo9DrBWyZfBhgROdkV_ez9L0jJOkbGRA8kc9epBxygXic0RExksxYmNI7JKzchw8kIm5vle_Kmdgl03Pnk04atDuMoT1wv9C6EFN995Az54YUpXyGVTrWdANK_FieiSd5mYKYcAj8AekWPupTZzmmT1rWlSGhYvWc5-DCSEWdiz_tnu6KM_R5AfZPp2fHkFag4spLbmmIU1yq6FVNAYUXgONvwJhAWxppeLsglqpSTO_rz095uJy4HTAxF7bBigpS3MXTkZra1eFMbOaz6qbcFZwTRDKbFu40-QJm3XGVm40]--></g></svg>