<svg xmlns="http://www.w3.org/2000/svg" xmlns:xlink="http://www.w3.org/1999/xlink" contentStyleType="text/css" data-diagram-type="CLASS" height="574px" preserveAspectRatio="none" style="width:855px;height:574px;background:#FFFFFF;" version="1.1" viewBox="0 0 855 574" width="855px" zoomAndPan="magnify"><defs/><g><!--cluster bo4e--><g class="cluster" data-entity="bo4e" data-source-line="10" data-uid="ent0005" id="cluster_bo4e"><path d="M566.96,6 L606.836,6 A3.75,3.75 0 0 1 609.336,8.5 L616.336,28.2969 L845.54,28.2969 A2.5,2.5 0 0 1 848.04,30.7969 L848.04,564.5 A2.5,2.5 0 0 1 845.54,567 L566.96,567 A2.5,2.5 0 0 1 564.46,564.5 L564.46,8.5 A2.5,2.5 0 0 1 566.96,6" fill="none" style="stroke:#000000;stroke-width:1.5;"/><line style="stroke:#000000;stroke-width:1.5;" x1="564.46" x2="616.336" y1="28.2969" y2="28.2969"/><text fill="#000000" font-family="sans-serif" font-size="14" font-weight="bold" lengthAdjust="spacing" textLength="38.876" x="568.46" y="20.9951">bo4e</text></g><!--cluster bo--><g class="cluster" data-entity="bo" data-source-line="9" data-uid="ent0003" id="cluster_bo"><path d="M631,49 L695.834,49 A3.75,3.75 0 0 1 698.334,51.5 L705.334,71.2969 L781.5,71.2969 A2.5,2.5 0 0 1 784,73.7969 L784,281.5 A2.5,2.5 0 0 1 781.5,284 L631,284 A2.5,2.5 0 0 1 628.5,281.5 L628.5,51.5 A2.5,2.5 0 0 1 631,49" fill="#B6D7A8" style="stroke:#000000;stroke-width:1.5;"/><line style="stroke:#000000;stroke-width:1.5;" x1="628.5" x2="705.334" y1="71.2969" y2="71.2969"/><a href="file:////home/runner/work/BO4E-python/BO4E-python/docs/../.tox/docs/tmp/html/api/bo4e.bo.html" target="_top" title="file:////home/runner/work/BO4E-python/BO4E-python/docs/../.tox/docs/tmp/html/api/bo4e.bo.html" xlink:actuate="onRequest" xlink:href="file:////home/runner/work/BO4E-python/BO4E-python/docs/../.tox/docs/tmp/html/api/bo4e.bo.html" xlink:show="new" xlink:title="file:////home/runner/work/BO4E-python/BO4E-python/docs/../.tox/docs/tmp/html/api/bo4e.bo.html" xlink:type="simple"><text fill="#0000FF" font-family="sans-serif" font-size="14" font-weight="bold" lengthAdjust="spacing" text-decoration="underline" textLength="63.834" x="632.5" y="63.9951">bo4e.bo</text></a></g><!--cluster enum--><g class="cluster" data-entity="enum" data-source-line="14" data-uid="ent0008" id="cluster_enum"><path d="M590.96,308 L680.1709,308 A3.75,3.75 0 0 1 682.6709,310.5 L689.6709,330.2969 L821.54,330.2969 A2.5,2.5 0 0 1 824.04,332.7969 L824.04,540.5 A2.5,2.5 0 0 1 821.54,543 L590.96,543 A2.5,2.5 0 0 1 588.46,540.5 L588.46,310.5 A2.5,2.5 0 0 1 590.96,308" fill="#D1C358" style="stroke:#000000;stroke-width:1.5;"/><line style="stroke:#000000;stroke-width:1.5;" x1="588.46" x2="689.6709" y1="330.2969" y2="330.2969"/><a href="file:////home/runner/work/BO4E-python/BO4E-python/docs/../.tox/docs/tmp/html/api/bo4e.enum.html" target="_top" title="file:////home/runner/work/BO4E-python/BO4E-python/docs/../.tox/docs/tmp/html/api/bo4e.enum.html" xlink:actuate="onRequest" xlink:href="file:////home/runner/work/BO4E-python/BO4E-python/docs/../.tox/docs/tmp/html/api/bo4e.enum.html" xlink:show="new" xlink:title="file:////home/runner/work/BO4E-python/BO4E-python/docs/../.tox/docs/tmp/html/api/bo4e.enum.html" xlink:type="simple"><text fill="#0000FF" font-family="sans-serif" font-size="14" font-weight="bold" lengthAdjust="spacing" text-decoration="underline" textLength="88.2109" x="592.46" y="322.9951">bo4e.enum</text></a></g><!--class Zaehler--><g class="entity" data-entity="Zaehler" data-source-line="10" data-uid="ent0004" id="entity_Zaehler"><rect fill="#F1F1F1" height="37.9375" rx="2.5" ry="2.5" style="stroke:#181818;stroke-width:0.5;" width="112.7129" x="649.89" y="84.03"/><ellipse cx="664.89" cy="102.9987" fill="#ADD1B2" rx="11" ry="11" style="stroke:#181818;stroke-width:1;"/><path d="M667.8588,108.6394 Q667.2806,108.9362 666.64,109.0769 Q665.9994,109.2331 665.2963,109.2331 Q662.7963,109.2331 661.4681,107.5925 Q660.1556,105.9362 660.1556,102.8112 Q660.1556,99.6862 661.4681,98.03 Q662.7963,96.3737 665.2963,96.3737 Q665.9994,96.3737 666.64,96.53 Q667.2963,96.6862 667.8588,96.9831 L667.8588,99.7019 Q667.2338,99.1237 666.64,98.8581 Q666.0463,98.5769 665.4213,98.5769 Q664.0775,98.5769 663.39,99.655 Q662.7025,100.7175 662.7025,102.8112 Q662.7025,104.905 663.39,105.9831 Q664.0775,107.0456 665.4213,107.0456 Q666.0463,107.0456 666.64,106.78 Q667.2338,106.4987 667.8588,105.9206 L667.8588,108.6394 Z " fill="#000000"/><a href="file:////home/runner/work/BO4E-python/BO4E-python/docs/../.tox/docs/tmp/html/api/bo4e.bo.html#bo4e.bo.zaehler.Zaehler" target="_top" title="file:////home/runner/work/BO4E-python/BO4E-python/docs/../.tox/docs/tmp/html/api/bo4e.bo.html#bo4e.bo.zaehler.Zaehler" xlink:actuate="onRequest" xlink:href="file:////home/runner/work/BO4E-python/BO4E-python/docs/../.tox/docs/tmp/html/api/bo4e.bo.html#bo4e.bo.zaehler.Zaehler" xlink:show="new" xlink:title="file:////home/runner/work/BO4E-python/BO4E-python/docs/../.tox/docs/tmp/html/api/bo4e.bo.html#bo4e.bo.zaehler.Zaehler" xlink:type="simple"><text fill="#0000FF" font-family="sans-serif" font-size="14" lengthAdjust="spacing" text-decoration="underline" textLength="53.915" x="692.2889" y="102.0251">Zaehler</text></a><text fill="#000000" font-family="sans-serif" font-size="10" lengthAdjust="spacing" textLength="80.7129" x="678.89" y="114.6091">bo4e.bo.zaehler</text></g><!--class Preisblatt--><g class="entity" data-entity="Preisblatt" data-source-line="11" data-uid="ent0006" id="entity_Preisblatt"><rect fill="#F1F1F1" height="37.9375" rx="2.5" ry="2.5" style="stroke:#181818;stroke-width:0.5;" width="123.499" x="644.5" y="157.03"/><ellipse cx="659.5" cy="175.9987" fill="#ADD1B2" rx="11" ry="11" style="stroke:#181818;stroke-width:1;"/><path d="M662.4688,181.6394 Q661.8906,181.9362 661.25,182.0769 Q660.6094,182.2331 659.9063,182.2331 Q657.4063,182.2331 656.0781,180.5925 Q654.7656,178.9362 654.7656,175.8112 Q654.7656,172.6862 656.0781,171.03 Q657.4063,169.3737 659.9063,169.3737 Q660.6094,169.3737 661.25,169.53 Q661.9063,169.6862 662.4688,169.9831 L662.4688,172.7019 Q661.8438,172.1237 661.25,171.8581 Q660.6563,171.5769 660.0313,171.5769 Q658.6875,171.5769 658,172.655 Q657.3125,173.7175 657.3125,175.8112 Q657.3125,177.905 658,178.9831 Q658.6875,180.0456 660.0313,180.0456 Q660.6563,180.0456 661.25,179.78 Q661.8438,179.4987 662.4688,178.9206 L662.4688,181.6394 Z " fill="#000000"/><a href="file:////home/runner/work/BO4E-python/BO4E-python/docs/../.tox/docs/tmp/html/api/bo4e.bo.html#bo4e.bo.preisblatt.Preisblatt" target="_top" title="file:////home/runner/work/BO4E-python/BO4E-python/docs/../.tox/docs/tmp/html/api/bo4e.bo.html#bo4e.bo.preisblatt.Preisblatt" xlink:actuate="onRequest" xlink:href="file:////home/runner/work/BO4E-python/BO4E-python/docs/../.tox/docs/tmp/html/api/bo4e.bo.html#bo4e.bo.preisblatt.Preisblatt" xlink:show="new" xlink:title="file:////home/runner/work/BO4E-python/BO4E-python/docs/../.tox/docs/tmp/html/api/bo4e.bo.html#bo4e.bo.preisblatt.Preisblatt" xlink:type="simple"><text fill="#0000FF" font-family="sans-serif" font-size="14" lengthAdjust="spacing" text-decoration="underline" textLength="66.3291" x="686.085" y="175.0251">Preisblatt</text></a><text fill="#000000" font-family="sans-serif" font-size="10" lengthAdjust="spacing" textLength="91.499" x="673.5" y="187.6091">bo4e.bo.preisblatt</text></g><!--class Geraet--><g class="entity" data-entity="Geraet" data-source-line="12" data-uid="ent0007" id="entity_Geraet"><rect fill="#F1F1F1" height="37.9375" rx="2.5" ry="2.5" style="stroke:#181818;stroke-width:0.5;" width="108.6162" x="651.94" y="230.03"/><ellipse cx="666.94" cy="248.9987" fill="#ADD1B2" rx="11" ry="11" style="stroke:#181818;stroke-width:1;"/><path d="M669.9088,254.6394 Q669.3306,254.9362 668.69,255.0769 Q668.0494,255.2331 667.3463,255.2331 Q664.8463,255.2331 663.5181,253.5925 Q662.2056,251.9362 662.2056,248.8112 Q662.2056,245.6862 663.5181,244.03 Q664.8463,242.3737 667.3463,242.3737 Q668.0494,242.3737 668.69,242.53 Q669.3463,242.6862 669.9088,242.9831 L669.9088,245.7019 Q669.2838,245.1237 668.69,244.8581 Q668.0963,244.5769 667.4713,244.5769 Q666.1275,244.5769 665.44,245.655 Q664.7525,246.7175 664.7525,248.8112 Q664.7525,250.905 665.44,251.9831 Q666.1275,253.0456 667.4713,253.0456 Q668.0963,253.0456 668.69,252.78 Q669.2838,252.4987 669.9088,251.9206 L669.9088,254.6394 Z " fill="#000000"/><a href="file:////home/runner/work/BO4E-python/BO4E-python/docs/../.tox/docs/tmp/html/api/bo4e.bo.html#bo4e.bo.geraet.Geraet" target="_top" title="file:////home/runner/work/BO4E-python/BO4E-python/docs/../.tox/docs/tmp/html/api/bo4e.bo.html#bo4e.bo.geraet.Geraet" xlink:actuate="onRequest" xlink:href="file:////home/runner/work/BO4E-python/BO4E-python/docs/../.tox/docs/tmp/html/api/bo4e.bo.html#bo4e.bo.geraet.Geraet" xlink:show="new" xlink:title="file:////home/runner/work/BO4E-python/BO4E-python/docs/../.tox/docs/tmp/html/api/bo4e.bo.html#bo4e.bo.geraet.Geraet" xlink:type="simple"><text fill="#0000FF" font-family="sans-serif" font-size="14" lengthAdjust="spacing" text-decoration="underline" textLength="47.8994" x="695.2984" y="248.0251">Geraet</text></a><text fill="#000000" font-family="sans-serif" font-size="10" lengthAdjust="spacing" textLength="76.6162" x="680.94" y="260.6091">bo4e.bo.geraet</text></g><!--class Netzebene--><g class="entity" data-entity="Netzebene" data-source-line="15" data-uid="ent0009" id="entity_Netzebene"><rect fill="#F1F1F1" height="37.9375" rx="2.5" ry="2.5" style="stroke:#181818;stroke-width:0.5;" width="144.71" x="633.89" y="343.03"/><ellipse cx="648.89" cy="361.9988" fill="#ADD1B2" rx="11" ry="11" style="stroke:#181818;stroke-width:1;"/><path d="M651.8588,367.6394 Q651.2806,367.9363 650.64,368.0769 Q649.9994,368.2331 649.2963,368.2331 Q646.7963,368.2331 645.4681,366.5925 Q644.1556,364.9363 644.1556,361.8113 Q644.1556,358.6863 645.4681,357.03 Q646.7963,355.3738 649.2963,355.3738 Q649.9994,355.3738 650.64,355.53 Q651.2963,355.6863 651.8588,355.9831 L651.8588,358.7019 Q651.2338,358.1238 650.64,357.8581 Q650.0463,357.5769 649.4213,357.5769 Q648.0775,357.5769 647.39,358.655 Q646.7025,359.7175 646.7025,361.8113 Q646.7025,363.905 647.39,364.9831 Q648.0775,366.0456 649.4213,366.0456 Q650.0463,366.0456 650.64,365.78 Q651.2338,365.4988 651.8588,364.9206 L651.8588,367.6394 Z " fill="#000000"/><a href="file:////home/runner/work/BO4E-python/BO4E-python/docs/../.tox/docs/tmp/html/api/bo4e.enum.html#bo4e.enum.netzebene.Netzebene" target="_top" title="file:////home/runner/work/BO4E-python/BO4E-python/docs/../.tox/docs/tmp/html/api/bo4e.enum.html#bo4e.enum.netzebene.Netzebene" xlink:actuate="onRequest" xlink:href="file:////home/runner/work/BO4E-python/BO4E-python/docs/../.tox/docs/tmp/html/api/bo4e.enum.html#bo4e.enum.netzebene.Netzebene" xlink:show="new" xlink:title="file:////home/runner/work/BO4E-python/BO4E-python/docs/../.tox/docs/tmp/html/api/bo4e.enum.html#bo4e.enum.netzebene.Netzebene" xlink:type="simple"><text fill="#0000FF" font-family="sans-serif" font-size="14" lengthAdjust="spacing" text-decoration="underline" textLength="75.5234" x="681.4833" y="361.0251">Netzebene</text></a><text fill="#000000" font-family="sans-serif" font-size="10" lengthAdjust="spacing" textLength="112.71" x="662.89" y="373.6091">bo4e.enum.netzebene</text></g><!--class Bilanzierungsmethode--><g class="entity" data-entity="Bilanzierungsmethode" data-source-line="16" data-uid="ent0010" id="entity_Bilanzierungsmethode"><rect fill="#F1F1F1" height="37.9375" rx="2.5" ry="2.5" style="stroke:#181818;stroke-width:0.5;" width="203.5723" x="604.46" y="416.03"/><ellipse cx="619.46" cy="434.9988" fill="#ADD1B2" rx="11" ry="11" style="stroke:#181818;stroke-width:1;"/><path d="M622.4288,440.6394 Q621.8506,440.9363 621.21,441.0769 Q620.5694,441.2331 619.8663,441.2331 Q617.3663,441.2331 616.0381,439.5925 Q614.7256,437.9363 614.7256,434.8113 Q614.7256,431.6863 616.0381,430.03 Q617.3663,428.3738 619.8663,428.3738 Q620.5694,428.3738 621.21,428.53 Q621.8663,428.6863 622.4288,428.9831 L622.4288,431.7019 Q621.8038,431.1238 621.21,430.8581 Q620.6163,430.5769 619.9913,430.5769 Q618.6475,430.5769 617.96,431.655 Q617.2725,432.7175 617.2725,434.8113 Q617.2725,436.905 617.96,437.9831 Q618.6475,439.0456 619.9913,439.0456 Q620.6163,439.0456 621.21,438.78 Q621.8038,438.4988 622.4288,437.9206 L622.4288,440.6394 Z " fill="#000000"/><a href="file:////home/runner/work/BO4E-python/BO4E-python/docs/../.tox/docs/tmp/html/api/bo4e.enum.html#bo4e.enum.bilanzierungsmethode.Bilanzierungsmethode" target="_top" title="file:////home/runner/work/BO4E-python/BO4E-python/docs/../.tox/docs/tmp/html/api/bo4e.enum.html#bo4e.enum.bilanzierungsmethode.Bilanzierungsmethode" xlink:actuate="onRequest" xlink:href="file:////home/runner/work/BO4E-python/BO4E-python/docs/../.tox/docs/tmp/html/api/bo4e.enum.html#bo4e.enum.bilanzierungsmethode.Bilanzierungsmethode" xlink:show="new" xlink:title="file:////home/runner/work/BO4E-python/BO4E-python/docs/../.tox/docs/tmp/html/api/bo4e.enum.html#bo4e.enum.bilanzierungsmethode.Bilanzierungsmethode" xlink:type="simple"><text fill="#0000FF" font-family="sans-serif" font-size="14" lengthAdjust="spacing" text-decoration="underline" textLength="157.0488" x="640.7217" y="434.0251">Bilanzierungsmethode</text></a><text fill="#000000" font-family="sans-serif" font-size="10" lengthAdjust="spacing" textLength="171.5723" x="633.46" y="446.6091">bo4e.enum.bilanzierungsmethode</text></g><!--class Dienstleistungstyp--><g class="entity" data-entity="Dienstleistungstyp" data-source-line="17" data-uid="ent0011" id="entity_Dienstleistungstyp"><rect fill="#F1F1F1" height="37.9375" rx="2.5" ry="2.5" style="stroke:#181818;stroke-width:0.5;" width="183.9141" x="614.29" y="489.03"/><ellipse cx="629.29" cy="507.9988" fill="#ADD1B2" rx="11" ry="11" style="stroke:#181818;stroke-width:1;"/><path d="M632.2588,513.6394 Q631.6806,513.9363 631.04,514.0769 Q630.3994,514.2331 629.6963,514.2331 Q627.1963,514.2331 625.8681,512.5925 Q624.5556,510.9363 624.5556,507.8113 Q624.5556,504.6863 625.8681,503.03 Q627.1963,501.3738 629.6963,501.3738 Q630.3994,501.3738 631.04,501.53 Q631.6963,501.6863 632.2588,501.9831 L632.2588,504.7019 Q631.6338,504.1238 631.04,503.8581 Q630.4463,503.5769 629.8213,503.5769 Q628.4775,503.5769 627.79,504.655 Q627.1025,505.7175 627.1025,507.8113 Q627.1025,509.905 627.79,510.9831 Q628.4775,512.0456 629.8213,512.0456 Q630.4463,512.0456 631.04,511.78 Q631.6338,511.4988 632.2588,510.9206 L632.2588,513.6394 Z " fill="#000000"/><a href="file:////home/runner/work/BO4E-python/BO4E-python/docs/../.tox/docs/tmp/html/api/bo4e.enum.html#bo4e.enum.dienstleistungstyp.Dienstleistungstyp" target="_top" title="file:////home/runner/work/BO4E-python/BO4E-python/docs/../.tox/docs/tmp/html/api/bo4e.enum.html#bo4e.enum.dienstleistungstyp.Dienstleistungstyp" xlink:actuate="onRequest" xlink:href="file:////home/runner/work/BO4E-python/BO4E-python/docs/../.tox/docs/tmp/html/api/bo4e.enum.html#bo4e.enum.dienstleistungstyp.Dienstleistungstyp" xlink:show="new" xlink:title="file:////home/runner/work/BO4E-python/BO4E-python/docs/../.tox/docs/tmp/html/api/bo4e.enum.html#bo4e.enum.dienstleistungstyp.Dienstleistungstyp" xlink:type="simple"><text fill="#0000FF" font-family="sans-serif" font-size="14" lengthAdjust="spacing" text-decoration="underline" textLength="130.7031" x="653.8955" y="507.0251">Dienstleistungstyp</text></a><text fill="#000000" font-family="sans-serif" font-size="10" lengthAdjust="spacing" textLength="151.9141" x="643.29" y="519.6091">bo4e.enum.dienstleistungstyp</text></g><!--class PreisblattMessung--><g class="entity" data-entity="PreisblattMessung" data-source-line="3" data-uid="ent0002" id="entity_PreisblattMessung"><rect fill="#F1F1F1" height="94.8281" rx="2.5" ry="2.5" style="stroke:#181818;stroke-width:0.5;" width="342.4629" x="7" y="275.59"/><ellipse cx="105.5635" cy="294.5588" fill="#ADD1B2" rx="11" ry="11" style="stroke:#181818;stroke-width:1;"/><path d="M108.5322,300.1994 Q107.9541,300.4963 107.3135,300.6369 Q106.6729,300.7931 105.9697,300.7931 Q103.4697,300.7931 102.1416,299.1525 Q100.8291,297.4963 100.8291,294.3713 Q100.8291,291.2463 102.1416,289.59 Q103.4697,287.9338 105.9697,287.9338 Q106.6729,287.9338 107.3135,288.09 Q107.9697,288.2463 108.5322,288.5431 L108.5322,291.2619 Q107.9072,290.6838 107.3135,290.4181 Q106.7197,290.1369 106.0947,290.1369 Q104.751,290.1369 104.0635,291.215 Q103.376,292.2775 103.376,294.3713 Q103.376,296.465 104.0635,297.5431 Q104.751,298.6056 106.0947,298.6056 Q106.7197,298.6056 107.3135,298.34 Q107.9072,298.0588 108.5322,297.4806 L108.5322,300.1994 Z " fill="#000000"/><a href="file:////home/runner/work/BO4E-python/BO4E-python/docs/../.tox/docs/tmp/html/api/bo4e.bo.html#bo4e.bo.preisblattmessung.PreisblattMessung" target="_top" title="file:////home/runner/work/BO4E-python/BO4E-python/docs/../.tox/docs/tmp/html/api/bo4e.bo.html#bo4e.bo.preisblattmessung.PreisblattMessung" xlink:actuate="onRequest" xlink:href="file:////home/runner/work/BO4E-python/BO4E-python/docs/../.tox/docs/tmp/html/api/bo4e.bo.html#bo4e.bo.preisblattmessung.PreisblattMessung" xlink:show="new" xlink:title="file:////home/runner/work/BO4E-python/BO4E-python/docs/../.tox/docs/tmp/html/api/bo4e.bo.html#bo4e.bo.preisblattmessung.PreisblattMessung" xlink:type="simple"><text fill="#0000FF" font-family="sans-serif" font-size="14" lengthAdjust="spacing" text-decoration="underline" textLength="128.2422" x="130.3604" y="293.5851">PreisblattMessung</text></a><text fill="#000000" font-family="sans-serif" font-size="10" lengthAdjust="spacing" textLength="136.8359" x="126.0635" y="306.1691">bo4e.bo.preisblattmessung</text><line style="stroke:#181818;stroke-width:0.5;" x1="8" x2="348.4629" y1="313.5275" y2="313.5275"/><text fill="#000000" font-family="sans-serif" font-size="14" lengthAdjust="spacing" textLength="330.4629" x="13" y="330.5226">_version : str [0..1] = 202501.0.0+gc3c78750c</text><text fill="#000000" font-family="sans-serif" font-size="14" lengthAdjust="spacing" textLength="318.5752" x="13" y="346.8195">zusatzAttribute : ZusatzAttribut [0..*] = None</text><text fill="#000000" font-family="sans-serif" font-size="14" lengthAdjust="spacing" textLength="151.1768" x="13" y="363.1164">_id : str [0..1] = None</text></g><!--link PreisblattMessung to Preisblatt--><g class="link" data-entity-1="PreisblattMessung" data-entity-2="Preisblatt" data-source-line="20" data-uid="lnk12" id="link_PreisblattMessung_Preisblatt"><path codeLine="20" d="M298.74,275.1 C325.09,265.42 353.04,255.83 379.46,248 C470.41,221.06 560.6056,202.4328 626.5556,190.1228" fill="none" id="PreisblattMessung-to-Preisblatt" style="stroke:#181818;stroke-width:1;"/><polygon fill="none" points="644.25,186.82,625.4547,184.2246,627.6565,196.0209,644.25,186.82" style="stroke:#181818;stroke-width:1;"/></g><!--link PreisblattMessung to Bilanzierungsmethode--><g class="link" data-entity-1="PreisblattMessung" data-entity-2="Bilanzierungsmethode" data-source-line="21" data-uid="lnk13" id="link_PreisblattMessung_Bilanzierungsmethode"><path codeLine="21" d="M349.71,368.16 C359.76,370.54 369.73,372.84 379.46,375 C454.28,391.58 527.6545,405.1212 592.1545,416.2412" fill="none" id="PreisblattMessung-to-Bilanzierungsmethode" style="stroke:#181818;stroke-width:1;"/><polygon fill="#181818" points="603.98,418.28,598.7468,413.3188,592.1545,416.2412,597.3876,421.2025,603.98,418.28" style="stroke:#181818;stroke-width:1;"/><text fill="#000000" font-family="sans-serif" font-size="13" lengthAdjust="spacing" textLength="145.1646" x="391.46" y="371.0669">bilanzierungsmethode</text><text fill="#000000" font-family="sans-serif" font-size="13" lengthAdjust="spacing" textLength="24.8066" x="571.6182" y="429.6748">0..1</text></g><!--link PreisblattMessung to Netzebene--><g class="link" data-entity-1="PreisblattMessung" data-entity-2="Netzebene" data-source-line="22" data-uid="lnk14" id="link_PreisblattMessung_Netzebene"><path codeLine="22" d="M349.65,335.64 C445.83,342.77 548.9629,350.4123 621.6229,355.8023" fill="none" id="PreisblattMessung-to-Netzebene" style="stroke:#181818;stroke-width:1;"/><polygon fill="#181818" points="633.59,356.69,627.9024,352.2571,621.6229,355.8023,627.3105,360.2352,633.59,356.69" style="stroke:#181818;stroke-width:1;"/><text fill="#000000" font-family="sans-serif" font-size="13" lengthAdjust="spacing" textLength="74.6929" x="426.96" y="334.0669">messebene</text><text fill="#000000" font-family="sans-serif" font-size="13" lengthAdjust="spacing" textLength="24.8066" x="600.9015" y="368.9897">0..1</text></g><!--link PreisblattMessung to Zaehler--><g class="link" data-entity-1="PreisblattMessung" data-entity-2="Zaehler" data-source-line="23" data-uid="lnk15" id="link_PreisblattMessung_Zaehler"><path codeLine="23" d="M250,275.31 C287.45,251.35 334.82,223.03 379.46,202 C454.87,166.48 476.6,163.86 556.46,140 C586.94,130.89 609.7041,125.0003 637.7741,118.3403" fill="none" id="PreisblattMessung-to-Zaehler" style="stroke:#181818;stroke-width:1;"/><polygon fill="#181818" points="649.45,115.57,642.6887,113.0632,637.7741,118.3403,644.5355,120.8471,649.45,115.57" style="stroke:#181818;stroke-width:1;"/><text fill="#000000" font-family="sans-serif" font-size="13" lengthAdjust="spacing" textLength="47.9819" x="440.46" y="139.0669">zaehler</text><text fill="#000000" font-family="sans-serif" font-size="13" lengthAdjust="spacing" textLength="24.8066" x="617.1146" y="130.0912">0..1</text></g><!--link PreisblattMessung to Dienstleistungstyp--><g class="link" data-entity-1="PreisblattMessung" data-entity-2="Dienstleistungstyp" data-source-line="24" data-uid="lnk16" id="link_PreisblattMessung_Dienstleistungstyp"><path codeLine="24" d="M253.33,370.68 C290.07,392.59 335.83,417.34 379.46,434 C456.13,463.28 535.7587,480.7367 602.2187,492.3367" fill="none" id="PreisblattMessung-to-Dienstleistungstyp" style="stroke:#181818;stroke-width:1;"/><polygon fill="#181818" points="614.04,494.4,608.8171,489.4279,602.2187,492.3367,607.4416,497.3088,614.04,494.4" style="stroke:#181818;stroke-width:1;"/><text fill="#000000" font-family="sans-serif" font-size="13" lengthAdjust="spacing" textLength="167.0957" x="380.46" y="430.0669">inklusiveDienstleistungen</text><text fill="#000000" font-family="sans-serif" font-size="13" lengthAdjust="spacing" textLength="23.0356" x="583.1013" y="506.005">0..*</text></g><!--link PreisblattMessung to Geraet--><g class="link" data-entity-1="PreisblattMessung" data-entity-2="Geraet" data-source-line="25" data-uid="lnk17" id="link_PreisblattMessung_Geraet"><path codeLine="25" d="M349.65,299.03 C454.23,284.31 569.3069,268.1206 639.7269,258.2206" fill="none" id="PreisblattMessung-to-Geraet" style="stroke:#181818;stroke-width:1;"/><polygon fill="#181818" points="651.61,256.55,645.1116,253.4242,639.7269,258.2206,646.2253,261.3463,651.61,256.55" style="stroke:#181818;stroke-width:1;"/><text fill="#000000" font-family="sans-serif" font-size="13" lengthAdjust="spacing" textLength="109.7827" x="409.46" y="269.0669">inklusiveGeraete</text><text fill="#000000" font-family="sans-serif" font-size="13" lengthAdjust="spacing" textLength="23.0356" x="620.9648" y="270.3649">0..*</text></g><!--SRC=[nLLBRzim33xNlu98RXaYEssp5CPMe467dTRjt2mOP9knXTgI8Sdjwgt_VV8ZYLChMovpVP58aP_v-4IbkD6W1KWM9neY9Z7KJ7372LEg58nMgmrBqNVDbuWCNLbmZj9z4lB1NNwz_3JDdtKY-C4-4g5o2N695ZyRGMUvc-WiTMdEt41S8Wa4gHJZhP1BP2f8gTOPAbNmc7pRQRuq6kXfrkll_8DY9Vepx_eeqWYewll2B-VinoDAPR857vIMiF88cQtX8vnxvtDlHZpYlOl3Yt1njPXxeNDM5ehgyaPhoO92e_6wFz3K09CAu4vmDF0iUerS7xmu3gSck9o6-Dyh3AsmNjTrQ2KOBz_VBcwkgYeCtEcIOfAY9FVD2krgxMLhMqVUsWqUxvvF7Kfs-FGF4hvYt-3XnoWfQlAvNg1Ph24tXdMuZPNXwG0qHLva7Q9MOfUgbGpZQ1PUp8SWwowQyLxag4iCa2Evs-vWj-kNyj2dpcHd_IRn1oobl6He_X6h30rMX6HfKO9DUIH16sYTgmtZJTAE67AbKtFnT1MAVix9RKy5VTMHXFjmTRfz_sgyMnwlwVJtzNRwTevjfiPs0gFgoHZjBu6zOpxO6d4ww9xHFbJFPSFIKznD5ji9xaCxf__gEEd-rz897nX_I0l57l7m5Fb9k2QWTiXra1eDEax2JBKop0BpuZig4KzWmTmmJ2Fr1m00]--></g></svg>