<?xml version="1.0" encoding="us-ascii" standalone="no"?><svg xmlns="http://www.w3.org/2000/svg" xmlns:xlink="http://www.w3.org/1999/xlink" contentStyleType="text/css" height="501px" preserveAspectRatio="none" style="width:865px;height:501px;background:#FFFFFF;" version="1.1" viewBox="0 0 865 501" width="865px" zoomAndPan="magnify"><defs/><g><!--cluster bo4e--><g id="cluster_bo4e"><path d="M584.5,6 L625.5,6 A3.75,3.75 0 0 1 628,8.5 L635,28.2969 L855.5,28.2969 A2.5,2.5 0 0 1 858,30.7969 L858,491.5 A2.5,2.5 0 0 1 855.5,494 L584.5,494 A2.5,2.5 0 0 1 582,491.5 L582,8.5 A2.5,2.5 0 0 1 584.5,6 " fill="none" style="stroke:#000000;stroke-width:1.5;"/><line style="stroke:#000000;stroke-width:1.5;" x1="582" x2="635" y1="28.2969" y2="28.2969"/><text fill="#000000" font-family="sans-serif" font-size="14" font-weight="bold" lengthAdjust="spacing" textLength="40" x="586" y="20.9951">bo4e</text></g><!--cluster bo--><g id="cluster_bo"><path d="M647,49 L713,49 A3.75,3.75 0 0 1 715.5,51.5 L722.5,71.2969 L793,71.2969 A2.5,2.5 0 0 1 795.5,73.7969 L795.5,208.5 A2.5,2.5 0 0 1 793,211 L647,211 A2.5,2.5 0 0 1 644.5,208.5 L644.5,51.5 A2.5,2.5 0 0 1 647,49 " fill="#B6D7A8" style="stroke:#000000;stroke-width:1.5;"/><line style="stroke:#000000;stroke-width:1.5;" x1="644.5" x2="722.5" y1="71.2969" y2="71.2969"/><a href="https://bo4e.github.io/BO4E-python/latest/api/bo4e.bo.html" target="_top" title="https://bo4e.github.io/BO4E-python/latest/api/bo4e.bo.html" xlink:actuate="onRequest" xlink:href="https://bo4e.github.io/BO4E-python/latest/api/bo4e.bo.html" xlink:show="new" xlink:title="https://bo4e.github.io/BO4E-python/latest/api/bo4e.bo.html" xlink:type="simple"><text fill="#0000FF" font-family="sans-serif" font-size="14" font-weight="bold" lengthAdjust="spacing" text-decoration="underline" textLength="65" x="648.5" y="63.9951">bo4e.bo</text></a></g><!--cluster enum--><g id="cluster_enum"><path d="M608.5,235 L698.5,235 A3.75,3.75 0 0 1 701,237.5 L708,257.2969 L831.5,257.2969 A2.5,2.5 0 0 1 834,259.7969 L834,467.5 A2.5,2.5 0 0 1 831.5,470 L608.5,470 A2.5,2.5 0 0 1 606,467.5 L606,237.5 A2.5,2.5 0 0 1 608.5,235 " fill="#D1C358" style="stroke:#000000;stroke-width:1.5;"/><line style="stroke:#000000;stroke-width:1.5;" x1="606" x2="708" y1="257.2969" y2="257.2969"/><a href="https://bo4e.github.io/BO4E-python/latest/api/bo4e.enum.html" target="_top" title="https://bo4e.github.io/BO4E-python/latest/api/bo4e.enum.html" xlink:actuate="onRequest" xlink:href="https://bo4e.github.io/BO4E-python/latest/api/bo4e.enum.html" xlink:show="new" xlink:title="https://bo4e.github.io/BO4E-python/latest/api/bo4e.enum.html" xlink:type="simple"><text fill="#0000FF" font-family="sans-serif" font-size="14" font-weight="bold" lengthAdjust="spacing" text-decoration="underline" textLength="89" x="610" y="249.9951">bo4e.enum</text></a></g><!--class Preisblatt--><g id="elem_Preisblatt"><rect codeLine="10" fill="#F1F1F1" height="37.9375" id="Preisblatt" rx="2.5" ry="2.5" style="stroke:#181818;stroke-width:0.5;" width="119" x="660.5" y="84.03"/><ellipse cx="675.5" cy="102.9987" fill="#ADD1B2" rx="11" ry="11" style="stroke:#181818;stroke-width:1.0;"/><path d="M678.4688,108.6394 Q677.8906,108.9362 677.25,109.0769 Q676.6094,109.2331 675.9063,109.2331 Q673.4063,109.2331 672.0781,107.5925 Q670.7656,105.9362 670.7656,102.8112 Q670.7656,99.6862 672.0781,98.03 Q673.4063,96.3737 675.9063,96.3737 Q676.6094,96.3737 677.25,96.53 Q677.9063,96.6862 678.4688,96.9831 L678.4688,99.7019 Q677.8438,99.1237 677.25,98.8581 Q676.6563,98.5769 676.0313,98.5769 Q674.6875,98.5769 674,99.655 Q673.3125,100.7175 673.3125,102.8112 Q673.3125,104.905 674,105.9831 Q674.6875,107.0456 676.0313,107.0456 Q676.6563,107.0456 677.25,106.78 Q677.8438,106.4987 678.4688,105.9206 L678.4688,108.6394 Z " fill="#000000"/><a href="https://bo4e.github.io/BO4E-python/latest/api/bo4e.bo.html#bo4e.bo.preisblatt.Preisblatt" target="_top" title="https://bo4e.github.io/BO4E-python/latest/api/bo4e.bo.html#bo4e.bo.preisblatt.Preisblatt" xlink:actuate="onRequest" xlink:href="https://bo4e.github.io/BO4E-python/latest/api/bo4e.bo.html#bo4e.bo.preisblatt.Preisblatt" xlink:show="new" xlink:title="https://bo4e.github.io/BO4E-python/latest/api/bo4e.bo.html#bo4e.bo.preisblatt.Preisblatt" xlink:type="simple"><text fill="#0000FF" font-family="sans-serif" font-size="14" lengthAdjust="spacing" text-decoration="underline" textLength="64" x="701" y="102.0251">Preisblatt</text></a><text fill="#000000" font-family="sans-serif" font-size="10" lengthAdjust="spacing" textLength="87" x="689.5" y="114.6091">bo4e.bo.preisblatt</text></g><!--class Geraet--><g id="elem_Geraet"><rect codeLine="11" fill="#F1F1F1" height="37.9375" id="Geraet" rx="2.5" ry="2.5" style="stroke:#181818;stroke-width:0.5;" width="106" x="667" y="157.03"/><ellipse cx="682" cy="175.9987" fill="#ADD1B2" rx="11" ry="11" style="stroke:#181818;stroke-width:1.0;"/><path d="M684.9688,181.6394 Q684.3906,181.9362 683.75,182.0769 Q683.1094,182.2331 682.4063,182.2331 Q679.9063,182.2331 678.5781,180.5925 Q677.2656,178.9362 677.2656,175.8112 Q677.2656,172.6862 678.5781,171.03 Q679.9063,169.3737 682.4063,169.3737 Q683.1094,169.3737 683.75,169.53 Q684.4063,169.6862 684.9688,169.9831 L684.9688,172.7019 Q684.3438,172.1237 683.75,171.8581 Q683.1563,171.5769 682.5313,171.5769 Q681.1875,171.5769 680.5,172.655 Q679.8125,173.7175 679.8125,175.8112 Q679.8125,177.905 680.5,178.9831 Q681.1875,180.0456 682.5313,180.0456 Q683.1563,180.0456 683.75,179.78 Q684.3438,179.4987 684.9688,178.9206 L684.9688,181.6394 Z " fill="#000000"/><a href="https://bo4e.github.io/BO4E-python/latest/api/bo4e.bo.html#bo4e.bo.geraet.Geraet" target="_top" title="https://bo4e.github.io/BO4E-python/latest/api/bo4e.bo.html#bo4e.bo.geraet.Geraet" xlink:actuate="onRequest" xlink:href="https://bo4e.github.io/BO4E-python/latest/api/bo4e.bo.html#bo4e.bo.geraet.Geraet" xlink:show="new" xlink:title="https://bo4e.github.io/BO4E-python/latest/api/bo4e.bo.html#bo4e.bo.geraet.Geraet" xlink:type="simple"><text fill="#0000FF" font-family="sans-serif" font-size="14" lengthAdjust="spacing" text-decoration="underline" textLength="47" x="709.5" y="175.0251">Geraet</text></a><text fill="#000000" font-family="sans-serif" font-size="10" lengthAdjust="spacing" textLength="74" x="696" y="187.6091">bo4e.bo.geraet</text></g><!--class Bilanzierungsmethode--><g id="elem_Bilanzierungsmethode"><rect codeLine="14" fill="#F1F1F1" height="37.9375" id="Bilanzierungsmethode" rx="2.5" ry="2.5" style="stroke:#181818;stroke-width:0.5;" width="196" x="622" y="270.03"/><ellipse cx="637" cy="288.9988" fill="#ADD1B2" rx="11" ry="11" style="stroke:#181818;stroke-width:1.0;"/><path d="M639.9688,294.6394 Q639.3906,294.9363 638.75,295.0769 Q638.1094,295.2331 637.4063,295.2331 Q634.9063,295.2331 633.5781,293.5925 Q632.2656,291.9363 632.2656,288.8113 Q632.2656,285.6863 633.5781,284.03 Q634.9063,282.3738 637.4063,282.3738 Q638.1094,282.3738 638.75,282.53 Q639.4063,282.6863 639.9688,282.9831 L639.9688,285.7019 Q639.3438,285.1238 638.75,284.8581 Q638.1563,284.5769 637.5313,284.5769 Q636.1875,284.5769 635.5,285.655 Q634.8125,286.7175 634.8125,288.8113 Q634.8125,290.905 635.5,291.9831 Q636.1875,293.0456 637.5313,293.0456 Q638.1563,293.0456 638.75,292.78 Q639.3438,292.4988 639.9688,291.9206 L639.9688,294.6394 Z " fill="#000000"/><a href="https://bo4e.github.io/BO4E-python/latest/api/bo4e.enum.html#bo4e.enum.bilanzierungsmethode.Bilanzierungsmethode" target="_top" title="https://bo4e.github.io/BO4E-python/latest/api/bo4e.enum.html#bo4e.enum.bilanzierungsmethode.Bilanzierungsmethode" xlink:actuate="onRequest" xlink:href="https://bo4e.github.io/BO4E-python/latest/api/bo4e.enum.html#bo4e.enum.bilanzierungsmethode.Bilanzierungsmethode" xlink:show="new" xlink:title="https://bo4e.github.io/BO4E-python/latest/api/bo4e.enum.html#bo4e.enum.bilanzierungsmethode.Bilanzierungsmethode" xlink:type="simple"><text fill="#0000FF" font-family="sans-serif" font-size="14" lengthAdjust="spacing" text-decoration="underline" textLength="156" x="655" y="288.0251">Bilanzierungsmethode</text></a><text fill="#000000" font-family="sans-serif" font-size="10" lengthAdjust="spacing" textLength="164" x="651" y="300.6091">bo4e.enum.bilanzierungsmethode</text></g><!--class Typ--><g id="elem_Typ"><rect codeLine="15" fill="#F1F1F1" height="37.9375" id="Typ" rx="2.5" ry="2.5" style="stroke:#181818;stroke-width:0.5;" width="106" x="667" y="343.03"/><ellipse cx="682" cy="361.9988" fill="#ADD1B2" rx="11" ry="11" style="stroke:#181818;stroke-width:1.0;"/><path d="M684.9688,367.6394 Q684.3906,367.9363 683.75,368.0769 Q683.1094,368.2331 682.4063,368.2331 Q679.9063,368.2331 678.5781,366.5925 Q677.2656,364.9363 677.2656,361.8113 Q677.2656,358.6863 678.5781,357.03 Q679.9063,355.3738 682.4063,355.3738 Q683.1094,355.3738 683.75,355.53 Q684.4063,355.6863 684.9688,355.9831 L684.9688,358.7019 Q684.3438,358.1238 683.75,357.8581 Q683.1563,357.5769 682.5313,357.5769 Q681.1875,357.5769 680.5,358.655 Q679.8125,359.7175 679.8125,361.8113 Q679.8125,363.905 680.5,364.9831 Q681.1875,366.0456 682.5313,366.0456 Q683.1563,366.0456 683.75,365.78 Q684.3438,365.4988 684.9688,364.9206 L684.9688,367.6394 Z " fill="#000000"/><a href="https://bo4e.github.io/BO4E-python/latest/api/bo4e.enum.html#bo4e.enum.typ.Typ" target="_top" title="https://bo4e.github.io/BO4E-python/latest/api/bo4e.enum.html#bo4e.enum.typ.Typ" xlink:actuate="onRequest" xlink:href="https://bo4e.github.io/BO4E-python/latest/api/bo4e.enum.html#bo4e.enum.typ.Typ" xlink:show="new" xlink:title="https://bo4e.github.io/BO4E-python/latest/api/bo4e.enum.html#bo4e.enum.typ.Typ" xlink:type="simple"><text fill="#0000FF" font-family="sans-serif" font-size="14" lengthAdjust="spacing" text-decoration="underline" textLength="25" x="720.5" y="361.0251">Typ</text></a><text fill="#000000" font-family="sans-serif" font-size="10" lengthAdjust="spacing" textLength="74" x="696" y="373.6091">bo4e.enum.typ</text></g><!--class Dienstleistungstyp--><g id="elem_Dienstleistungstyp"><rect codeLine="16" fill="#F1F1F1" height="37.9375" id="Dienstleistungstyp" rx="2.5" ry="2.5" style="stroke:#181818;stroke-width:0.5;" width="177" x="631.5" y="416.03"/><ellipse cx="646.5" cy="434.9988" fill="#ADD1B2" rx="11" ry="11" style="stroke:#181818;stroke-width:1.0;"/><path d="M649.4688,440.6394 Q648.8906,440.9363 648.25,441.0769 Q647.6094,441.2331 646.9063,441.2331 Q644.4063,441.2331 643.0781,439.5925 Q641.7656,437.9363 641.7656,434.8113 Q641.7656,431.6863 643.0781,430.03 Q644.4063,428.3738 646.9063,428.3738 Q647.6094,428.3738 648.25,428.53 Q648.9063,428.6863 649.4688,428.9831 L649.4688,431.7019 Q648.8438,431.1238 648.25,430.8581 Q647.6563,430.5769 647.0313,430.5769 Q645.6875,430.5769 645,431.655 Q644.3125,432.7175 644.3125,434.8113 Q644.3125,436.905 645,437.9831 Q645.6875,439.0456 647.0313,439.0456 Q647.6563,439.0456 648.25,438.78 Q648.8438,438.4988 649.4688,437.9206 L649.4688,440.6394 Z " fill="#000000"/><a href="https://bo4e.github.io/BO4E-python/latest/api/bo4e.enum.html#bo4e.enum.dienstleistungstyp.Dienstleistungstyp" target="_top" title="https://bo4e.github.io/BO4E-python/latest/api/bo4e.enum.html#bo4e.enum.dienstleistungstyp.Dienstleistungstyp" xlink:actuate="onRequest" xlink:href="https://bo4e.github.io/BO4E-python/latest/api/bo4e.enum.html#bo4e.enum.dienstleistungstyp.Dienstleistungstyp" xlink:show="new" xlink:title="https://bo4e.github.io/BO4E-python/latest/api/bo4e.enum.html#bo4e.enum.dienstleistungstyp.Dienstleistungstyp" xlink:type="simple"><text fill="#0000FF" font-family="sans-serif" font-size="14" lengthAdjust="spacing" text-decoration="underline" textLength="129" x="668.5" y="434.0251">Dienstleistungstyp</text></a><text fill="#000000" font-family="sans-serif" font-size="10" lengthAdjust="spacing" textLength="145" x="660.5" y="446.6091">bo4e.enum.dienstleistungstyp</text></g><!--class PreisblattDienstleistung--><g id="elem_PreisblattDienstleistung"><rect codeLine="3" fill="#F1F1F1" height="94.8281" id="PreisblattDienstleistung" rx="2.5" ry="2.5" style="stroke:#181818;stroke-width:0.5;" width="366" x="7" y="258.59"/><ellipse cx="103.75" cy="277.5588" fill="#ADD1B2" rx="11" ry="11" style="stroke:#181818;stroke-width:1.0;"/><path d="M106.7188,283.1994 Q106.1406,283.4963 105.5,283.6369 Q104.8594,283.7931 104.1563,283.7931 Q101.6563,283.7931 100.3281,282.1525 Q99.0156,280.4963 99.0156,277.3713 Q99.0156,274.2463 100.3281,272.59 Q101.6563,270.9338 104.1563,270.9338 Q104.8594,270.9338 105.5,271.09 Q106.1563,271.2463 106.7188,271.5431 L106.7188,274.2619 Q106.0938,273.6838 105.5,273.4181 Q104.9063,273.1369 104.2813,273.1369 Q102.9375,273.1369 102.25,274.215 Q101.5625,275.2775 101.5625,277.3713 Q101.5625,279.465 102.25,280.5431 Q102.9375,281.6056 104.2813,281.6056 Q104.9063,281.6056 105.5,281.34 Q106.0938,281.0588 106.7188,280.4806 L106.7188,283.1994 Z " fill="#000000"/><a href="https://bo4e.github.io/BO4E-python/latest/api/bo4e.bo.html#bo4e.bo.preisblattdienstleistung.PreisblattDienstleistung" target="_top" title="https://bo4e.github.io/BO4E-python/latest/api/bo4e.bo.html#bo4e.bo.preisblattdienstleistung.PreisblattDienstleistung" xlink:actuate="onRequest" xlink:href="https://bo4e.github.io/BO4E-python/latest/api/bo4e.bo.html#bo4e.bo.preisblattdienstleistung.PreisblattDienstleistung" xlink:show="new" xlink:title="https://bo4e.github.io/BO4E-python/latest/api/bo4e.bo.html#bo4e.bo.preisblattdienstleistung.PreisblattDienstleistung" xlink:type="simple"><text fill="#0000FF" font-family="sans-serif" font-size="14" lengthAdjust="spacing" text-decoration="underline" textLength="164" x="124.25" y="276.5851">PreisblattDienstleistung</text></a><text fill="#000000" font-family="sans-serif" font-size="10" lengthAdjust="spacing" textLength="153" x="129.75" y="289.1691">bo4e.bo.preisblattdienstleistung</text><line style="stroke:#181818;stroke-width:0.5;" x1="8" x2="372" y1="296.5275" y2="296.5275"/><text fill="#000000" font-family="sans-serif" font-size="14" lengthAdjust="spacing" textLength="354" x="13" y="313.5226">_version : str [0..1] = 202401.2.2.dev12+g7f237e5</text><text fill="#000000" font-family="sans-serif" font-size="14" lengthAdjust="spacing" textLength="311" x="13" y="329.8195">zusatzAttribute : ZusatzAttribut [0..*] = None</text><text fill="#000000" font-family="sans-serif" font-size="14" lengthAdjust="spacing" textLength="147" x="13" y="346.1164">_id : str [0..1] = None</text></g><!--link PreisblattDienstleistung to Preisblatt--><g id="link_PreisblattDienstleistung_Preisblatt"><path codeLine="19" d="M268.53,258.3 C307.82,235.51 356.87,209.1 403,190 C476.16,159.71 497.63,160.9 574,140 C602.32,132.25 616.4341,128.5221 642.8641,121.8721 " fill="none" id="PreisblattDienstleistung-to-Preisblatt" style="stroke:#181818;stroke-width:1.0;"/><polygon fill="none" points="660.32,117.48,641.4,116.0534,644.3281,127.6907,660.32,117.48" style="stroke:#181818;stroke-width:1.0;"/></g><!--link PreisblattDienstleistung to Typ--><g id="link_PreisblattDienstleistung_Typ"><path codeLine="20" d="M373.45,325.35 C476.88,336.32 586.8968,347.9956 654.7568,355.1856 " fill="none" id="PreisblattDienstleistung-to-Typ" style="stroke:#181818;stroke-width:1.0;"/><polygon fill="#181818" points="666.69,356.45,661.1449,351.8401,654.7568,355.1856,660.3019,359.7956,666.69,356.45" style="stroke:#181818;stroke-width:1.0;"/><text fill="#000000" font-family="sans-serif" font-size="13" lengthAdjust="spacing" textLength="27" x="471" y="325.0669">_typ</text><text fill="#000000" font-family="sans-serif" font-size="13" lengthAdjust="spacing" textLength="24" x="635.1385" y="368.7502">0..1</text></g><!--link PreisblattDienstleistung to Bilanzierungsmethode--><g id="link_PreisblattDienstleistung_Bilanzierungsmethode"><path codeLine="21" d="M373.45,300.13 C456.91,297.44 540.4362,294.7452 609.8662,292.5152 " fill="none" id="PreisblattDienstleistung-to-Bilanzierungsmethode" style="stroke:#181818;stroke-width:1.0;"/><polygon fill="#181818" points="621.86,292.13,615.7347,288.3247,609.8662,292.5152,615.9915,296.3206,621.86,292.13" style="stroke:#181818;stroke-width:1.0;"/><text fill="#000000" font-family="sans-serif" font-size="13" lengthAdjust="spacing" textLength="142" x="413.5" y="291.0669">bilanzierungsmethode</text><text fill="#000000" font-family="sans-serif" font-size="13" lengthAdjust="spacing" textLength="24" x="590.1158" y="304.9491">0..1</text></g><!--link PreisblattDienstleistung to Dienstleistungstyp--><g id="link_PreisblattDienstleistung_Dienstleistungstyp"><path codeLine="22" d="M340.76,353.9 C361.57,359.98 382.76,365.86 403,371 C479.5,390.42 555.789,405.6936 619.499,417.4436 " fill="none" id="PreisblattDienstleistung-to-Dienstleistungstyp" style="stroke:#181818;stroke-width:1.0;"/><polygon fill="#181818" points="631.3,419.62,626.125,414.5981,619.499,417.4436,624.674,422.4654,631.3,419.62" style="stroke:#181818;stroke-width:1.0;"/><text fill="#000000" font-family="sans-serif" font-size="13" lengthAdjust="spacing" textLength="122" x="423.5" y="367.0669">basisdienstleistung</text><text fill="#000000" font-family="sans-serif" font-size="13" lengthAdjust="spacing" textLength="24" x="599.5902" y="431.0888">0..1</text></g><!--link PreisblattDienstleistung to Dienstleistungstyp--><g id="link_PreisblattDienstleistung_Dienstleistungstyp"><path codeLine="23" d="M251.98,353.6 C292.36,382.05 347.86,415.58 403,431 C477.9,451.95 554.7772,451.8641 619.1472,446.7841 " fill="none" id="PreisblattDienstleistung-to-Dienstleistungstyp-1" style="stroke:#181818;stroke-width:1.0;"/><polygon fill="#181818" points="631.11,445.84,624.8139,442.3244,619.1472,446.7841,625.4433,450.2996,631.11,445.84" style="stroke:#181818;stroke-width:1.0;"/><text fill="#000000" font-family="sans-serif" font-size="13" lengthAdjust="spacing" textLength="161" x="404" y="427.0669">inklusiveDienstleistungen</text><text fill="#000000" font-family="sans-serif" font-size="13" lengthAdjust="spacing" textLength="23" x="600.4239" y="459.3162">0..*</text></g><!--link PreisblattDienstleistung to Geraet--><g id="link_PreisblattDienstleistung_Geraet"><path codeLine="24" d="M373.45,261.08 C476.88,235.61 587.1781,208.4592 655.0381,191.7492 " fill="none" id="PreisblattDienstleistung-to-Geraet" style="stroke:#181818;stroke-width:1.0;"/><polygon fill="#181818" points="666.69,188.88,659.9076,186.4306,655.0381,191.7492,661.8204,194.1986,666.69,188.88" style="stroke:#181818;stroke-width:1.0;"/><text fill="#000000" font-family="sans-serif" font-size="13" lengthAdjust="spacing" textLength="92" x="438.5" y="211.0669">geraetedetails</text><text fill="#000000" font-family="sans-serif" font-size="13" lengthAdjust="spacing" textLength="24" x="635.1385" y="203.3112">0..1</text></g><!--SRC=[jLLDRvj043s7Np6oRwwC3N7g2BMHOhdghUsXfxeeMimOLeK5COChk-r_xm9E0W7gM7Q549gljs_chSSHRXWuWKm68OClCropJ9HXh2D118FLAcHEoPbCl6I6PY0vp3rJ9fF5vzc7SRhZC56JI30IJqGggomlCKEEe-6ZaMOeoTDPx4jKn94sELU1-UKfi6m4e2_Wkj_LEv9xTApftJ7u0GZgHO9VnjN35ZFItO83n1cifgPfkV0UxAazcrgchHyVjvRz9fXlxEivtXXN-vm4x- -PC-dbZBhoMyDJWemAa4-9Gds4z5-Ybu4_Xg54Z9IADPutPJWOhblsUx1Wk7YxdD_V5ct-7obhujM6V4IW5v9Sbbk0cK0sFvOVg3wTVAh4aakLfUKuLmrKULpJep3hYXGs37rhVNrpjYPFHmsVJKz6GkqbPlfgKuowpaTpqU64BcTxIhsWPKjT69VlYNUf-NMNWdvx2EgCae_EkFpnpML21PjbomLjLm_NDbn9lLrVx8R-pJWU_xvx_97NilvHeKj6C2Ysp-3vBfQ3TU2XEE_KqivhvK3NRJaPksF26bcGfERyNWCyEWeirOye9xd5PXJLARor3eULuq2rMT175Z8YmmYb7asCiQV_Q0mAav_G3xoH6Fdq5m00]--></g></svg>