<svg xmlns="http://www.w3.org/2000/svg" xmlns:xlink="http://www.w3.org/1999/xlink" contentStyleType="text/css" data-diagram-type="CLASS" height="428px" preserveAspectRatio="none" style="width:855px;height:428px;background:#FFFFFF;" version="1.1" viewBox="0 0 855 428" width="855px" zoomAndPan="magnify"><defs/><g><!--cluster bo4e--><g class="cluster" data-entity="bo4e" data-source-line="10" data-uid="ent0005" id="cluster_bo4e"><path d="M566.96,6 L606.836,6 A3.75,3.75 0 0 1 609.336,8.5 L616.336,28.2969 L845.54,28.2969 A2.5,2.5 0 0 1 848.04,30.7969 L848.04,418.5 A2.5,2.5 0 0 1 845.54,421 L566.96,421 A2.5,2.5 0 0 1 564.46,418.5 L564.46,8.5 A2.5,2.5 0 0 1 566.96,6" fill="none" style="stroke:#000000;stroke-width:1.5;"/><line style="stroke:#000000;stroke-width:1.5;" x1="564.46" x2="616.336" y1="28.2969" y2="28.2969"/><text fill="#000000" font-family="sans-serif" font-size="14" font-weight="bold" lengthAdjust="spacing" textLength="38.876" x="568.46" y="20.9951">bo4e</text></g><!--cluster bo--><g class="cluster" data-entity="bo" data-source-line="9" data-uid="ent0003" id="cluster_bo"><path d="M631,49 L695.834,49 A3.75,3.75 0 0 1 698.334,51.5 L705.334,71.2969 L781.5,71.2969 A2.5,2.5 0 0 1 784,73.7969 L784,208.5 A2.5,2.5 0 0 1 781.5,211 L631,211 A2.5,2.5 0 0 1 628.5,208.5 L628.5,51.5 A2.5,2.5 0 0 1 631,49" fill="#B6D7A8" style="stroke:#000000;stroke-width:1.5;"/><line style="stroke:#000000;stroke-width:1.5;" x1="628.5" x2="705.334" y1="71.2969" y2="71.2969"/><a href="file:////home/runner/work/BO4E-python/BO4E-python/docs/../.tox/docs/tmp/html/api/bo4e.bo.html" target="_top" title="file:////home/runner/work/BO4E-python/BO4E-python/docs/../.tox/docs/tmp/html/api/bo4e.bo.html" xlink:actuate="onRequest" xlink:href="file:////home/runner/work/BO4E-python/BO4E-python/docs/../.tox/docs/tmp/html/api/bo4e.bo.html" xlink:show="new" xlink:title="file:////home/runner/work/BO4E-python/BO4E-python/docs/../.tox/docs/tmp/html/api/bo4e.bo.html" xlink:type="simple"><text fill="#0000FF" font-family="sans-serif" font-size="14" font-weight="bold" lengthAdjust="spacing" text-decoration="underline" textLength="63.834" x="632.5" y="63.9951">bo4e.bo</text></a></g><!--cluster enum--><g class="cluster" data-entity="enum" data-source-line="13" data-uid="ent0007" id="cluster_enum"><path d="M590.96,235 L680.1709,235 A3.75,3.75 0 0 1 682.6709,237.5 L689.6709,257.2969 L821.54,257.2969 A2.5,2.5 0 0 1 824.04,259.7969 L824.04,394.5 A2.5,2.5 0 0 1 821.54,397 L590.96,397 A2.5,2.5 0 0 1 588.46,394.5 L588.46,237.5 A2.5,2.5 0 0 1 590.96,235" fill="#D1C358" style="stroke:#000000;stroke-width:1.5;"/><line style="stroke:#000000;stroke-width:1.5;" x1="588.46" x2="689.6709" y1="257.2969" y2="257.2969"/><a href="file:////home/runner/work/BO4E-python/BO4E-python/docs/../.tox/docs/tmp/html/api/bo4e.enum.html" target="_top" title="file:////home/runner/work/BO4E-python/BO4E-python/docs/../.tox/docs/tmp/html/api/bo4e.enum.html" xlink:actuate="onRequest" xlink:href="file:////home/runner/work/BO4E-python/BO4E-python/docs/../.tox/docs/tmp/html/api/bo4e.enum.html" xlink:show="new" xlink:title="file:////home/runner/work/BO4E-python/BO4E-python/docs/../.tox/docs/tmp/html/api/bo4e.enum.html" xlink:type="simple"><text fill="#0000FF" font-family="sans-serif" font-size="14" font-weight="bold" lengthAdjust="spacing" text-decoration="underline" textLength="88.2109" x="592.46" y="249.9951">bo4e.enum</text></a></g><!--class Preisblatt--><g class="entity" data-entity="Preisblatt" data-source-line="10" data-uid="ent0004" id="entity_Preisblatt"><rect fill="#F1F1F1" height="37.9375" rx="2.5" ry="2.5" style="stroke:#181818;stroke-width:0.5;" width="123.499" x="644.5" y="84.03"/><ellipse cx="659.5" cy="102.9987" fill="#ADD1B2" rx="11" ry="11" style="stroke:#181818;stroke-width:1;"/><path d="M662.4688,108.6394 Q661.8906,108.9362 661.25,109.0769 Q660.6094,109.2331 659.9063,109.2331 Q657.4063,109.2331 656.0781,107.5925 Q654.7656,105.9362 654.7656,102.8112 Q654.7656,99.6862 656.0781,98.03 Q657.4063,96.3737 659.9063,96.3737 Q660.6094,96.3737 661.25,96.53 Q661.9063,96.6862 662.4688,96.9831 L662.4688,99.7019 Q661.8438,99.1237 661.25,98.8581 Q660.6563,98.5769 660.0313,98.5769 Q658.6875,98.5769 658,99.655 Q657.3125,100.7175 657.3125,102.8112 Q657.3125,104.905 658,105.9831 Q658.6875,107.0456 660.0313,107.0456 Q660.6563,107.0456 661.25,106.78 Q661.8438,106.4987 662.4688,105.9206 L662.4688,108.6394 Z " fill="#000000"/><a href="file:////home/runner/work/BO4E-python/BO4E-python/docs/../.tox/docs/tmp/html/api/bo4e.bo.html#bo4e.bo.preisblatt.Preisblatt" target="_top" title="file:////home/runner/work/BO4E-python/BO4E-python/docs/../.tox/docs/tmp/html/api/bo4e.bo.html#bo4e.bo.preisblatt.Preisblatt" xlink:actuate="onRequest" xlink:href="file:////home/runner/work/BO4E-python/BO4E-python/docs/../.tox/docs/tmp/html/api/bo4e.bo.html#bo4e.bo.preisblatt.Preisblatt" xlink:show="new" xlink:title="file:////home/runner/work/BO4E-python/BO4E-python/docs/../.tox/docs/tmp/html/api/bo4e.bo.html#bo4e.bo.preisblatt.Preisblatt" xlink:type="simple"><text fill="#0000FF" font-family="sans-serif" font-size="14" lengthAdjust="spacing" text-decoration="underline" textLength="66.3291" x="686.085" y="102.0251">Preisblatt</text></a><text fill="#000000" font-family="sans-serif" font-size="10" lengthAdjust="spacing" textLength="91.499" x="673.5" y="114.6091">bo4e.bo.preisblatt</text></g><!--class Geraet--><g class="entity" data-entity="Geraet" data-source-line="11" data-uid="ent0006" id="entity_Geraet"><rect fill="#F1F1F1" height="37.9375" rx="2.5" ry="2.5" style="stroke:#181818;stroke-width:0.5;" width="108.6162" x="651.94" y="157.03"/><ellipse cx="666.94" cy="175.9987" fill="#ADD1B2" rx="11" ry="11" style="stroke:#181818;stroke-width:1;"/><path d="M669.9088,181.6394 Q669.3306,181.9362 668.69,182.0769 Q668.0494,182.2331 667.3463,182.2331 Q664.8463,182.2331 663.5181,180.5925 Q662.2056,178.9362 662.2056,175.8112 Q662.2056,172.6862 663.5181,171.03 Q664.8463,169.3737 667.3463,169.3737 Q668.0494,169.3737 668.69,169.53 Q669.3463,169.6862 669.9088,169.9831 L669.9088,172.7019 Q669.2838,172.1237 668.69,171.8581 Q668.0963,171.5769 667.4713,171.5769 Q666.1275,171.5769 665.44,172.655 Q664.7525,173.7175 664.7525,175.8112 Q664.7525,177.905 665.44,178.9831 Q666.1275,180.0456 667.4713,180.0456 Q668.0963,180.0456 668.69,179.78 Q669.2838,179.4987 669.9088,178.9206 L669.9088,181.6394 Z " fill="#000000"/><a href="file:////home/runner/work/BO4E-python/BO4E-python/docs/../.tox/docs/tmp/html/api/bo4e.bo.html#bo4e.bo.geraet.Geraet" target="_top" title="file:////home/runner/work/BO4E-python/BO4E-python/docs/../.tox/docs/tmp/html/api/bo4e.bo.html#bo4e.bo.geraet.Geraet" xlink:actuate="onRequest" xlink:href="file:////home/runner/work/BO4E-python/BO4E-python/docs/../.tox/docs/tmp/html/api/bo4e.bo.html#bo4e.bo.geraet.Geraet" xlink:show="new" xlink:title="file:////home/runner/work/BO4E-python/BO4E-python/docs/../.tox/docs/tmp/html/api/bo4e.bo.html#bo4e.bo.geraet.Geraet" xlink:type="simple"><text fill="#0000FF" font-family="sans-serif" font-size="14" lengthAdjust="spacing" text-decoration="underline" textLength="47.8994" x="695.2984" y="175.0251">Geraet</text></a><text fill="#000000" font-family="sans-serif" font-size="10" lengthAdjust="spacing" textLength="76.6162" x="680.94" y="187.6091">bo4e.bo.geraet</text></g><!--class Bilanzierungsmethode--><g class="entity" data-entity="Bilanzierungsmethode" data-source-line="14" data-uid="ent0008" id="entity_Bilanzierungsmethode"><rect fill="#F1F1F1" height="37.9375" rx="2.5" ry="2.5" style="stroke:#181818;stroke-width:0.5;" width="203.5723" x="604.46" y="270.03"/><ellipse cx="619.46" cy="288.9988" fill="#ADD1B2" rx="11" ry="11" style="stroke:#181818;stroke-width:1;"/><path d="M622.4288,294.6394 Q621.8506,294.9363 621.21,295.0769 Q620.5694,295.2331 619.8663,295.2331 Q617.3663,295.2331 616.0381,293.5925 Q614.7256,291.9363 614.7256,288.8113 Q614.7256,285.6863 616.0381,284.03 Q617.3663,282.3738 619.8663,282.3738 Q620.5694,282.3738 621.21,282.53 Q621.8663,282.6863 622.4288,282.9831 L622.4288,285.7019 Q621.8038,285.1238 621.21,284.8581 Q620.6163,284.5769 619.9913,284.5769 Q618.6475,284.5769 617.96,285.655 Q617.2725,286.7175 617.2725,288.8113 Q617.2725,290.905 617.96,291.9831 Q618.6475,293.0456 619.9913,293.0456 Q620.6163,293.0456 621.21,292.78 Q621.8038,292.4988 622.4288,291.9206 L622.4288,294.6394 Z " fill="#000000"/><a href="file:////home/runner/work/BO4E-python/BO4E-python/docs/../.tox/docs/tmp/html/api/bo4e.enum.html#bo4e.enum.bilanzierungsmethode.Bilanzierungsmethode" target="_top" title="file:////home/runner/work/BO4E-python/BO4E-python/docs/../.tox/docs/tmp/html/api/bo4e.enum.html#bo4e.enum.bilanzierungsmethode.Bilanzierungsmethode" xlink:actuate="onRequest" xlink:href="file:////home/runner/work/BO4E-python/BO4E-python/docs/../.tox/docs/tmp/html/api/bo4e.enum.html#bo4e.enum.bilanzierungsmethode.Bilanzierungsmethode" xlink:show="new" xlink:title="file:////home/runner/work/BO4E-python/BO4E-python/docs/../.tox/docs/tmp/html/api/bo4e.enum.html#bo4e.enum.bilanzierungsmethode.Bilanzierungsmethode" xlink:type="simple"><text fill="#0000FF" font-family="sans-serif" font-size="14" lengthAdjust="spacing" text-decoration="underline" textLength="157.0488" x="640.7217" y="288.0251">Bilanzierungsmethode</text></a><text fill="#000000" font-family="sans-serif" font-size="10" lengthAdjust="spacing" textLength="171.5723" x="633.46" y="300.6091">bo4e.enum.bilanzierungsmethode</text></g><!--class Dienstleistungstyp--><g class="entity" data-entity="Dienstleistungstyp" data-source-line="15" data-uid="ent0009" id="entity_Dienstleistungstyp"><rect fill="#F1F1F1" height="37.9375" rx="2.5" ry="2.5" style="stroke:#181818;stroke-width:0.5;" width="183.9141" x="614.29" y="343.03"/><ellipse cx="629.29" cy="361.9988" fill="#ADD1B2" rx="11" ry="11" style="stroke:#181818;stroke-width:1;"/><path d="M632.2588,367.6394 Q631.6806,367.9363 631.04,368.0769 Q630.3994,368.2331 629.6963,368.2331 Q627.1963,368.2331 625.8681,366.5925 Q624.5556,364.9363 624.5556,361.8113 Q624.5556,358.6863 625.8681,357.03 Q627.1963,355.3738 629.6963,355.3738 Q630.3994,355.3738 631.04,355.53 Q631.6963,355.6863 632.2588,355.9831 L632.2588,358.7019 Q631.6338,358.1238 631.04,357.8581 Q630.4463,357.5769 629.8213,357.5769 Q628.4775,357.5769 627.79,358.655 Q627.1025,359.7175 627.1025,361.8113 Q627.1025,363.905 627.79,364.9831 Q628.4775,366.0456 629.8213,366.0456 Q630.4463,366.0456 631.04,365.78 Q631.6338,365.4988 632.2588,364.9206 L632.2588,367.6394 Z " fill="#000000"/><a href="file:////home/runner/work/BO4E-python/BO4E-python/docs/../.tox/docs/tmp/html/api/bo4e.enum.html#bo4e.enum.dienstleistungstyp.Dienstleistungstyp" target="_top" title="file:////home/runner/work/BO4E-python/BO4E-python/docs/../.tox/docs/tmp/html/api/bo4e.enum.html#bo4e.enum.dienstleistungstyp.Dienstleistungstyp" xlink:actuate="onRequest" xlink:href="file:////home/runner/work/BO4E-python/BO4E-python/docs/../.tox/docs/tmp/html/api/bo4e.enum.html#bo4e.enum.dienstleistungstyp.Dienstleistungstyp" xlink:show="new" xlink:title="file:////home/runner/work/BO4E-python/BO4E-python/docs/../.tox/docs/tmp/html/api/bo4e.enum.html#bo4e.enum.dienstleistungstyp.Dienstleistungstyp" xlink:type="simple"><text fill="#0000FF" font-family="sans-serif" font-size="14" lengthAdjust="spacing" text-decoration="underline" textLength="130.7031" x="653.8955" y="361.0251">Dienstleistungstyp</text></a><text fill="#000000" font-family="sans-serif" font-size="10" lengthAdjust="spacing" textLength="151.9141" x="643.29" y="373.6091">bo4e.enum.dienstleistungstyp</text></g><!--class PreisblattDienstleistung--><g class="entity" data-entity="PreisblattDienstleistung" data-source-line="3" data-uid="ent0002" id="entity_PreisblattDienstleistung"><rect fill="#F1F1F1" height="94.8281" rx="2.5" ry="2.5" style="stroke:#181818;stroke-width:0.5;" width="342.4629" x="7" y="200.59"/><ellipse cx="90.4429" cy="219.5588" fill="#ADD1B2" rx="11" ry="11" style="stroke:#181818;stroke-width:1;"/><path d="M93.4116,225.1994 Q92.8335,225.4963 92.1929,225.6369 Q91.5522,225.7931 90.8491,225.7931 Q88.3491,225.7931 87.021,224.1525 Q85.7085,222.4963 85.7085,219.3713 Q85.7085,216.2463 87.021,214.59 Q88.3491,212.9338 90.8491,212.9338 Q91.5522,212.9338 92.1929,213.09 Q92.8491,213.2463 93.4116,213.5431 L93.4116,216.2619 Q92.7866,215.6838 92.1929,215.4181 Q91.5991,215.1369 90.9741,215.1369 Q89.6304,215.1369 88.9429,216.215 Q88.2554,217.2775 88.2554,219.3713 Q88.2554,221.465 88.9429,222.5431 Q89.6304,223.6056 90.9741,223.6056 Q91.5991,223.6056 92.1929,223.34 Q92.7866,223.0588 93.4116,222.4806 L93.4116,225.1994 Z " fill="#000000"/><a href="file:////home/runner/work/BO4E-python/BO4E-python/docs/../.tox/docs/tmp/html/api/bo4e.bo.html#bo4e.bo.preisblattdienstleistung.PreisblattDienstleistung" target="_top" title="file:////home/runner/work/BO4E-python/BO4E-python/docs/../.tox/docs/tmp/html/api/bo4e.bo.html#bo4e.bo.preisblattdienstleistung.PreisblattDienstleistung" xlink:actuate="onRequest" xlink:href="file:////home/runner/work/BO4E-python/BO4E-python/docs/../.tox/docs/tmp/html/api/bo4e.bo.html#bo4e.bo.preisblattdienstleistung.PreisblattDienstleistung" xlink:show="new" xlink:title="file:////home/runner/work/BO4E-python/BO4E-python/docs/../.tox/docs/tmp/html/api/bo4e.bo.html#bo4e.bo.preisblattdienstleistung.PreisblattDienstleistung" xlink:type="simple"><text fill="#0000FF" font-family="sans-serif" font-size="14" lengthAdjust="spacing" text-decoration="underline" textLength="167.0771" x="110.9429" y="218.5851">PreisblattDienstleistung</text></a><text fill="#000000" font-family="sans-serif" font-size="10" lengthAdjust="spacing" textLength="162.1094" x="113.4268" y="231.1691">bo4e.bo.preisblattdienstleistung</text><line style="stroke:#181818;stroke-width:0.5;" x1="8" x2="348.4629" y1="238.5275" y2="238.5275"/><text fill="#000000" font-family="sans-serif" font-size="14" lengthAdjust="spacing" textLength="330.4629" x="13" y="255.5226">_version : str [0..1] = 202501.0.0+gc3c78750c</text><text fill="#000000" font-family="sans-serif" font-size="14" lengthAdjust="spacing" textLength="318.5752" x="13" y="271.8195">zusatzAttribute : ZusatzAttribut [0..*] = None</text><text fill="#000000" font-family="sans-serif" font-size="14" lengthAdjust="spacing" textLength="151.1768" x="13" y="288.1164">_id : str [0..1] = None</text></g><!--link PreisblattDienstleistung to Preisblatt--><g class="link" data-entity-1="PreisblattDienstleistung" data-entity-2="Preisblatt" data-source-line="18" data-uid="lnk10" id="link_PreisblattDienstleistung_Preisblatt"><path codeLine="18" d="M302.55,200.15 C327.8,191.18 354.33,182.32 379.46,175 C470.53,148.46 560.7028,129.761 626.6128,117.311" fill="none" id="PreisblattDienstleistung-to-Preisblatt" style="stroke:#181818;stroke-width:1;"/><polygon fill="none" points="644.3,113.97,625.4991,111.4153,627.7265,123.2067,644.3,113.97" style="stroke:#181818;stroke-width:1;"/></g><!--link PreisblattDienstleistung to Bilanzierungsmethode--><g class="link" data-entity-1="PreisblattDienstleistung" data-entity-2="Bilanzierungsmethode" data-source-line="19" data-uid="lnk11" id="link_PreisblattDienstleistung_Bilanzierungsmethode"><path codeLine="19" d="M349.65,261.28 C433.67,267.83 520.1763,274.5777 592.1663,280.1877" fill="none" id="PreisblattDienstleistung-to-Bilanzierungsmethode" style="stroke:#181818;stroke-width:1;"/><polygon fill="#181818" points="604.13,281.12,598.4589,276.6659,592.1663,280.1877,597.8374,284.6418,604.13,281.12" style="stroke:#181818;stroke-width:1;"/><text fill="#000000" font-family="sans-serif" font-size="13" lengthAdjust="spacing" textLength="145.1646" x="391.46" y="260.0669">bilanzierungsmethode</text><text fill="#000000" font-family="sans-serif" font-size="13" lengthAdjust="spacing" textLength="24.8066" x="571.7792" y="293.164">0..1</text></g><!--link PreisblattDienstleistung to Dienstleistungstyp--><g class="link" data-entity-1="PreisblattDienstleistung" data-entity-2="Dienstleistungstyp" data-source-line="20" data-uid="lnk12" id="link_PreisblattDienstleistung_Dienstleistungstyp"><path codeLine="20" d="M349.7,294.03 C359.75,296.46 369.73,298.8 379.46,301 C458.19,318.76 536.6174,333.3144 602.1274,344.7044" fill="none" id="PreisblattDienstleistung-to-Dienstleistungstyp" style="stroke:#181818;stroke-width:1;"/><polygon fill="#181818" points="613.95,346.76,608.7239,341.7913,602.1274,344.7044,607.3535,349.6731,613.95,346.76" style="stroke:#181818;stroke-width:1;"/><text fill="#000000" font-family="sans-serif" font-size="13" lengthAdjust="spacing" textLength="125.1694" x="401.46" y="297.0669">basisdienstleistung</text><text fill="#000000" font-family="sans-serif" font-size="13" lengthAdjust="spacing" textLength="24.8066" x="581.3463" y="358.1915">0..1</text></g><!--link PreisblattDienstleistung to Dienstleistungstyp--><g class="link" data-entity-1="PreisblattDienstleistung" data-entity-2="Dienstleistungstyp" data-source-line="21" data-uid="lnk13" id="link_PreisblattDienstleistung_Dienstleistungstyp"><path codeLine="21" d="M244.6,295.69 C282.06,320.08 331.13,347.24 379.46,360 C456.71,380.39 535.9304,379.8741 602.1604,374.4241" fill="none" id="PreisblattDienstleistung-to-Dienstleistungstyp-1" style="stroke:#181818;stroke-width:1;"/><polygon fill="#181818" points="614.12,373.44,607.8122,369.9455,602.1604,374.4241,608.4683,377.9186,614.12,373.44" style="stroke:#181818;stroke-width:1;"/><text fill="#000000" font-family="sans-serif" font-size="13" lengthAdjust="spacing" textLength="167.0957" x="380.46" y="356.0669">inklusiveDienstleistungen</text><text fill="#000000" font-family="sans-serif" font-size="13" lengthAdjust="spacing" textLength="23.0356" x="583.1874" y="386.9622">0..*</text></g><!--link PreisblattDienstleistung to Geraet--><g class="link" data-entity-1="PreisblattDienstleistung" data-entity-2="Geraet" data-source-line="22" data-uid="lnk14" id="link_PreisblattDienstleistung_Geraet"><path codeLine="22" d="M349.65,224.67 C454.23,210.36 569.3009,194.6075 639.7209,184.9675" fill="none" id="PreisblattDienstleistung-to-Geraet" style="stroke:#181818;stroke-width:1;"/><polygon fill="#181818" points="651.61,183.34,645.1229,180.1907,639.7209,184.9675,646.208,188.1168,651.61,183.34" style="stroke:#181818;stroke-width:1;"/><text fill="#000000" font-family="sans-serif" font-size="13" lengthAdjust="spacing" textLength="93.9644" x="417.46" y="196.0669">geraetedetails</text><text fill="#000000" font-family="sans-serif" font-size="13" lengthAdjust="spacing" textLength="24.8066" x="619.1237" y="197.3169">0..1</text></g><!--SRC=[nLN1Rfj043s7hnZPDrTUS1BN4MeZnNBLMzjpNHGjC8PLO1Vj3adZjl_U1Pp418YRGnqkovlPUSo-jneot12G0YsIb20M6YCIIZfEb75ZOBHURqI6lckVLENewb9ArEwTqZVkyklvfsbnJwcIhVTOHSPbp6MaVZQ0yi9DASzSNWWtLEV8GiMgmFW151g52JDE50kKXZ8BgPG9-_QOMBKIC9G8WX_oWn5Rz6VUvI7w4N0po0I_d9FhMzJ62W8-6DAmzXYR1V0HJhtJkJTZ7lFU9T5PjBXOpBt8ETcMXjFsYaYBi2IqLTzRaPfWKX5yKH8jlOYVCzU9FuuZUOwcu17-TnDW1uAWbcE7OBnylrfSNLGglDbbsBD_pwO35ZypzUZj9wWv4ljSBz0ilIqt6-jscrtMzoFOZhBCzuoluBxr5OPnF8lEviSm_x6RyHCCHSRbLg3zHc9oj5mnicLF4Fg2NQq7IUjJzt6yoR7RiydGVS5MdH1qGmC7xjBLn-tML-DcUD1Efxyl7uR2tguNAcp914RLG1izNQb-_tpei-NLt3qoMMPkX6cBy2_4auF4GjvafH6tsCwYV4tVLipTXF2X6GGO8t6H6ST9XPKcnpoqFn_7fEeEXeat0hFO_0K0]--></g></svg>