<svg xmlns="http://www.w3.org/2000/svg" xmlns:xlink="http://www.w3.org/1999/xlink" contentStyleType="text/css" data-diagram-type="CLASS" height="428px" preserveAspectRatio="none" style="width:832px;height:428px;background:#FFFFFF;" version="1.1" viewBox="0 0 832 428" width="832px" zoomAndPan="magnify"><defs/><g><!--cluster bo4e--><g class="cluster" data-entity="bo4e" data-source-line="10" data-uid="ent0005" id="cluster_bo4e"><path d="M544.27,6 L584.146,6 A3.75,3.75 0 0 1 586.646,8.5 L593.646,28.2969 L822.84,28.2969 A2.5,2.5 0 0 1 825.34,30.7969 L825.34,418.5 A2.5,2.5 0 0 1 822.84,421 L544.27,421 A2.5,2.5 0 0 1 541.77,418.5 L541.77,8.5 A2.5,2.5 0 0 1 544.27,6" fill="none" style="stroke:#000000;stroke-width:1.5;"/><line style="stroke:#000000;stroke-width:1.5;" x1="541.77" x2="593.646" y1="28.2969" y2="28.2969"/><text fill="#000000" font-family="sans-serif" font-size="14" font-weight="bold" lengthAdjust="spacing" textLength="38.876" x="545.77" y="20.9951">bo4e</text></g><!--cluster bo--><g class="cluster" data-entity="bo" data-source-line="9" data-uid="ent0003" id="cluster_bo"><path d="M608.3,49 L673.134,49 A3.75,3.75 0 0 1 675.634,51.5 L682.634,71.2969 L758.8,71.2969 A2.5,2.5 0 0 1 761.3,73.7969 L761.3,135.5 A2.5,2.5 0 0 1 758.8,138 L608.3,138 A2.5,2.5 0 0 1 605.8,135.5 L605.8,51.5 A2.5,2.5 0 0 1 608.3,49" fill="#B6D7A8" style="stroke:#000000;stroke-width:1.5;"/><line style="stroke:#000000;stroke-width:1.5;" x1="605.8" x2="682.634" y1="71.2969" y2="71.2969"/><a href="file:////home/runner/work/BO4E-python/BO4E-python/docs/../.tox/docs/tmp/html/api/bo4e.bo.html" target="_top" title="file:////home/runner/work/BO4E-python/BO4E-python/docs/../.tox/docs/tmp/html/api/bo4e.bo.html" xlink:actuate="onRequest" xlink:href="file:////home/runner/work/BO4E-python/BO4E-python/docs/../.tox/docs/tmp/html/api/bo4e.bo.html" xlink:show="new" xlink:title="file:////home/runner/work/BO4E-python/BO4E-python/docs/../.tox/docs/tmp/html/api/bo4e.bo.html" xlink:type="simple"><text fill="#0000FF" font-family="sans-serif" font-size="14" font-weight="bold" lengthAdjust="spacing" text-decoration="underline" textLength="63.834" x="609.8" y="63.9951">bo4e.bo</text></a></g><!--cluster enum--><g class="cluster" data-entity="enum" data-source-line="12" data-uid="ent0006" id="cluster_enum"><path d="M568.27,162 L657.4809,162 A3.75,3.75 0 0 1 659.9809,164.5 L666.9809,184.2969 L798.84,184.2969 A2.5,2.5 0 0 1 801.34,186.7969 L801.34,394.5 A2.5,2.5 0 0 1 798.84,397 L568.27,397 A2.5,2.5 0 0 1 565.77,394.5 L565.77,164.5 A2.5,2.5 0 0 1 568.27,162" fill="#D1C358" style="stroke:#000000;stroke-width:1.5;"/><line style="stroke:#000000;stroke-width:1.5;" x1="565.77" x2="666.9809" y1="184.2969" y2="184.2969"/><a href="file:////home/runner/work/BO4E-python/BO4E-python/docs/../.tox/docs/tmp/html/api/bo4e.enum.html" target="_top" title="file:////home/runner/work/BO4E-python/BO4E-python/docs/../.tox/docs/tmp/html/api/bo4e.enum.html" xlink:actuate="onRequest" xlink:href="file:////home/runner/work/BO4E-python/BO4E-python/docs/../.tox/docs/tmp/html/api/bo4e.enum.html" xlink:show="new" xlink:title="file:////home/runner/work/BO4E-python/BO4E-python/docs/../.tox/docs/tmp/html/api/bo4e.enum.html" xlink:type="simple"><text fill="#0000FF" font-family="sans-serif" font-size="14" font-weight="bold" lengthAdjust="spacing" text-decoration="underline" textLength="88.2109" x="569.77" y="176.9951">bo4e.enum</text></a></g><!--class Preisblatt--><g class="entity" data-entity="Preisblatt" data-source-line="10" data-uid="ent0004" id="entity_Preisblatt"><rect fill="#F1F1F1" height="37.9375" rx="2.5" ry="2.5" style="stroke:#181818;stroke-width:0.5;" width="123.499" x="621.8" y="84.03"/><ellipse cx="636.8" cy="102.9987" fill="#ADD1B2" rx="11" ry="11" style="stroke:#181818;stroke-width:1;"/><path d="M639.7688,108.6394 Q639.1906,108.9362 638.55,109.0769 Q637.9094,109.2331 637.2063,109.2331 Q634.7063,109.2331 633.3781,107.5925 Q632.0656,105.9362 632.0656,102.8112 Q632.0656,99.6862 633.3781,98.03 Q634.7063,96.3737 637.2063,96.3737 Q637.9094,96.3737 638.55,96.53 Q639.2063,96.6862 639.7688,96.9831 L639.7688,99.7019 Q639.1438,99.1237 638.55,98.8581 Q637.9563,98.5769 637.3313,98.5769 Q635.9875,98.5769 635.3,99.655 Q634.6125,100.7175 634.6125,102.8112 Q634.6125,104.905 635.3,105.9831 Q635.9875,107.0456 637.3313,107.0456 Q637.9563,107.0456 638.55,106.78 Q639.1438,106.4987 639.7688,105.9206 L639.7688,108.6394 Z " fill="#000000"/><a href="file:////home/runner/work/BO4E-python/BO4E-python/docs/../.tox/docs/tmp/html/api/bo4e.bo.html#bo4e.bo.preisblatt.Preisblatt" target="_top" title="file:////home/runner/work/BO4E-python/BO4E-python/docs/../.tox/docs/tmp/html/api/bo4e.bo.html#bo4e.bo.preisblatt.Preisblatt" xlink:actuate="onRequest" xlink:href="file:////home/runner/work/BO4E-python/BO4E-python/docs/../.tox/docs/tmp/html/api/bo4e.bo.html#bo4e.bo.preisblatt.Preisblatt" xlink:show="new" xlink:title="file:////home/runner/work/BO4E-python/BO4E-python/docs/../.tox/docs/tmp/html/api/bo4e.bo.html#bo4e.bo.preisblatt.Preisblatt" xlink:type="simple"><text fill="#0000FF" font-family="sans-serif" font-size="14" lengthAdjust="spacing" text-decoration="underline" textLength="66.3291" x="663.385" y="102.0251">Preisblatt</text></a><text fill="#000000" font-family="sans-serif" font-size="10" lengthAdjust="spacing" textLength="91.499" x="650.8" y="114.6091">bo4e.bo.preisblatt</text></g><!--class Kundengruppe--><g class="entity" data-entity="Kundengruppe" data-source-line="13" data-uid="ent0007" id="entity_Kundengruppe"><rect fill="#F1F1F1" height="37.9375" rx="2.5" ry="2.5" style="stroke:#181818;stroke-width:0.5;" width="164.8564" x="601.12" y="197.03"/><ellipse cx="616.12" cy="215.9988" fill="#ADD1B2" rx="11" ry="11" style="stroke:#181818;stroke-width:1;"/><path d="M619.0888,221.6394 Q618.5106,221.9363 617.87,222.0769 Q617.2294,222.2331 616.5263,222.2331 Q614.0263,222.2331 612.6981,220.5925 Q611.3856,218.9363 611.3856,215.8113 Q611.3856,212.6863 612.6981,211.03 Q614.0263,209.3738 616.5263,209.3738 Q617.2294,209.3738 617.87,209.53 Q618.5263,209.6863 619.0888,209.9831 L619.0888,212.7019 Q618.4638,212.1238 617.87,211.8581 Q617.2763,211.5769 616.6513,211.5769 Q615.3075,211.5769 614.62,212.655 Q613.9325,213.7175 613.9325,215.8113 Q613.9325,217.905 614.62,218.9831 Q615.3075,220.0456 616.6513,220.0456 Q617.2763,220.0456 617.87,219.78 Q618.4638,219.4988 619.0888,218.9206 L619.0888,221.6394 Z " fill="#000000"/><a href="file:////home/runner/work/BO4E-python/BO4E-python/docs/../.tox/docs/tmp/html/api/bo4e.enum.html#bo4e.enum.kundengruppe.Kundengruppe" target="_top" title="file:////home/runner/work/BO4E-python/BO4E-python/docs/../.tox/docs/tmp/html/api/bo4e.enum.html#bo4e.enum.kundengruppe.Kundengruppe" xlink:actuate="onRequest" xlink:href="file:////home/runner/work/BO4E-python/BO4E-python/docs/../.tox/docs/tmp/html/api/bo4e.enum.html#bo4e.enum.kundengruppe.Kundengruppe" xlink:show="new" xlink:title="file:////home/runner/work/BO4E-python/BO4E-python/docs/../.tox/docs/tmp/html/api/bo4e.enum.html#bo4e.enum.kundengruppe.Kundengruppe" xlink:type="simple"><text fill="#0000FF" font-family="sans-serif" font-size="14" lengthAdjust="spacing" text-decoration="underline" textLength="103.2021" x="644.9471" y="215.0251">Kundengruppe</text></a><text fill="#000000" font-family="sans-serif" font-size="10" lengthAdjust="spacing" textLength="132.8564" x="630.12" y="227.6091">bo4e.enum.kundengruppe</text></g><!--class Bilanzierungsmethode--><g class="entity" data-entity="Bilanzierungsmethode" data-source-line="14" data-uid="ent0008" id="entity_Bilanzierungsmethode"><rect fill="#F1F1F1" height="37.9375" rx="2.5" ry="2.5" style="stroke:#181818;stroke-width:0.5;" width="203.5723" x="581.77" y="270.03"/><ellipse cx="596.77" cy="288.9988" fill="#ADD1B2" rx="11" ry="11" style="stroke:#181818;stroke-width:1;"/><path d="M599.7388,294.6394 Q599.1606,294.9363 598.52,295.0769 Q597.8794,295.2331 597.1763,295.2331 Q594.6763,295.2331 593.3481,293.5925 Q592.0356,291.9363 592.0356,288.8113 Q592.0356,285.6863 593.3481,284.03 Q594.6763,282.3738 597.1763,282.3738 Q597.8794,282.3738 598.52,282.53 Q599.1763,282.6863 599.7388,282.9831 L599.7388,285.7019 Q599.1138,285.1238 598.52,284.8581 Q597.9263,284.5769 597.3013,284.5769 Q595.9575,284.5769 595.27,285.655 Q594.5825,286.7175 594.5825,288.8113 Q594.5825,290.905 595.27,291.9831 Q595.9575,293.0456 597.3013,293.0456 Q597.9263,293.0456 598.52,292.78 Q599.1138,292.4988 599.7388,291.9206 L599.7388,294.6394 Z " fill="#000000"/><a href="file:////home/runner/work/BO4E-python/BO4E-python/docs/../.tox/docs/tmp/html/api/bo4e.enum.html#bo4e.enum.bilanzierungsmethode.Bilanzierungsmethode" target="_top" title="file:////home/runner/work/BO4E-python/BO4E-python/docs/../.tox/docs/tmp/html/api/bo4e.enum.html#bo4e.enum.bilanzierungsmethode.Bilanzierungsmethode" xlink:actuate="onRequest" xlink:href="file:////home/runner/work/BO4E-python/BO4E-python/docs/../.tox/docs/tmp/html/api/bo4e.enum.html#bo4e.enum.bilanzierungsmethode.Bilanzierungsmethode" xlink:show="new" xlink:title="file:////home/runner/work/BO4E-python/BO4E-python/docs/../.tox/docs/tmp/html/api/bo4e.enum.html#bo4e.enum.bilanzierungsmethode.Bilanzierungsmethode" xlink:type="simple"><text fill="#0000FF" font-family="sans-serif" font-size="14" lengthAdjust="spacing" text-decoration="underline" textLength="157.0488" x="618.0317" y="288.0251">Bilanzierungsmethode</text></a><text fill="#000000" font-family="sans-serif" font-size="10" lengthAdjust="spacing" textLength="171.5723" x="610.77" y="300.6091">bo4e.enum.bilanzierungsmethode</text></g><!--class Netzebene--><g class="entity" data-entity="Netzebene" data-source-line="15" data-uid="ent0009" id="entity_Netzebene"><rect fill="#F1F1F1" height="37.9375" rx="2.5" ry="2.5" style="stroke:#181818;stroke-width:0.5;" width="144.71" x="611.2" y="343.03"/><ellipse cx="626.2" cy="361.9988" fill="#ADD1B2" rx="11" ry="11" style="stroke:#181818;stroke-width:1;"/><path d="M629.1688,367.6394 Q628.5906,367.9363 627.95,368.0769 Q627.3094,368.2331 626.6063,368.2331 Q624.1063,368.2331 622.7781,366.5925 Q621.4656,364.9363 621.4656,361.8113 Q621.4656,358.6863 622.7781,357.03 Q624.1063,355.3738 626.6063,355.3738 Q627.3094,355.3738 627.95,355.53 Q628.6063,355.6863 629.1688,355.9831 L629.1688,358.7019 Q628.5438,358.1238 627.95,357.8581 Q627.3563,357.5769 626.7313,357.5769 Q625.3875,357.5769 624.7,358.655 Q624.0125,359.7175 624.0125,361.8113 Q624.0125,363.905 624.7,364.9831 Q625.3875,366.0456 626.7313,366.0456 Q627.3563,366.0456 627.95,365.78 Q628.5438,365.4988 629.1688,364.9206 L629.1688,367.6394 Z " fill="#000000"/><a href="file:////home/runner/work/BO4E-python/BO4E-python/docs/../.tox/docs/tmp/html/api/bo4e.enum.html#bo4e.enum.netzebene.Netzebene" target="_top" title="file:////home/runner/work/BO4E-python/BO4E-python/docs/../.tox/docs/tmp/html/api/bo4e.enum.html#bo4e.enum.netzebene.Netzebene" xlink:actuate="onRequest" xlink:href="file:////home/runner/work/BO4E-python/BO4E-python/docs/../.tox/docs/tmp/html/api/bo4e.enum.html#bo4e.enum.netzebene.Netzebene" xlink:show="new" xlink:title="file:////home/runner/work/BO4E-python/BO4E-python/docs/../.tox/docs/tmp/html/api/bo4e.enum.html#bo4e.enum.netzebene.Netzebene" xlink:type="simple"><text fill="#0000FF" font-family="sans-serif" font-size="14" lengthAdjust="spacing" text-decoration="underline" textLength="75.5234" x="658.7933" y="361.0251">Netzebene</text></a><text fill="#000000" font-family="sans-serif" font-size="10" lengthAdjust="spacing" textLength="112.71" x="640.2" y="373.6091">bo4e.enum.netzebene</text></g><!--class PreisblattNetznutzung--><g class="entity" data-entity="PreisblattNetznutzung" data-source-line="3" data-uid="ent0002" id="entity_PreisblattNetznutzung"><rect fill="#F1F1F1" height="94.8281" rx="2.5" ry="2.5" style="stroke:#181818;stroke-width:0.5;" width="341.7656" x="7" y="209.59"/><ellipse cx="95.8979" cy="228.5588" fill="#ADD1B2" rx="11" ry="11" style="stroke:#181818;stroke-width:1;"/><path d="M98.8667,234.1994 Q98.2886,234.4963 97.6479,234.6369 Q97.0073,234.7931 96.3042,234.7931 Q93.8042,234.7931 92.4761,233.1525 Q91.1636,231.4963 91.1636,228.3713 Q91.1636,225.2463 92.4761,223.59 Q93.8042,221.9338 96.3042,221.9338 Q97.0073,221.9338 97.6479,222.09 Q98.3042,222.2463 98.8667,222.5431 L98.8667,225.2619 Q98.2417,224.6838 97.6479,224.4181 Q97.0542,224.1369 96.4292,224.1369 Q95.0854,224.1369 94.3979,225.215 Q93.7104,226.2775 93.7104,228.3713 Q93.7104,230.465 94.3979,231.5431 Q95.0854,232.6056 96.4292,232.6056 Q97.0542,232.6056 97.6479,232.34 Q98.2417,232.0588 98.8667,231.4806 L98.8667,234.1994 Z " fill="#000000"/><a href="file:////home/runner/work/BO4E-python/BO4E-python/docs/../.tox/docs/tmp/html/api/bo4e.bo.html#bo4e.bo.preisblattnetznutzung.PreisblattNetznutzung" target="_top" title="file:////home/runner/work/BO4E-python/BO4E-python/docs/../.tox/docs/tmp/html/api/bo4e.bo.html#bo4e.bo.preisblattnetznutzung.PreisblattNetznutzung" xlink:actuate="onRequest" xlink:href="file:////home/runner/work/BO4E-python/BO4E-python/docs/../.tox/docs/tmp/html/api/bo4e.bo.html#bo4e.bo.preisblattnetznutzung.PreisblattNetznutzung" xlink:show="new" xlink:title="file:////home/runner/work/BO4E-python/BO4E-python/docs/../.tox/docs/tmp/html/api/bo4e.bo.html#bo4e.bo.preisblattnetznutzung.PreisblattNetznutzung" xlink:type="simple"><text fill="#0000FF" font-family="sans-serif" font-size="14" lengthAdjust="spacing" text-decoration="underline" textLength="155.4697" x="116.3979" y="227.5851">PreisblattNetznutzung</text></a><text fill="#000000" font-family="sans-serif" font-size="10" lengthAdjust="spacing" textLength="154.0283" x="117.1187" y="240.1691">bo4e.bo.preisblattnetznutzung</text><line style="stroke:#181818;stroke-width:0.5;" x1="8" x2="347.7656" y1="247.5275" y2="247.5275"/><text fill="#000000" font-family="sans-serif" font-size="14" lengthAdjust="spacing" textLength="329.7656" x="13" y="264.5226">_version : str [0..1] = 202501.0.0+g64af9038d</text><text fill="#000000" font-family="sans-serif" font-size="14" lengthAdjust="spacing" textLength="318.5752" x="13" y="280.8195">zusatzAttribute : ZusatzAttribut [0..*] = None</text><text fill="#000000" font-family="sans-serif" font-size="14" lengthAdjust="spacing" textLength="151.1768" x="13" y="297.1164">_id : str [0..1] = None</text></g><!--link PreisblattNetznutzung to Preisblatt--><g class="link" data-entity-1="PreisblattNetznutzung" data-entity-2="Preisblatt" data-source-line="18" data-uid="lnk10" id="link_PreisblattNetznutzung_Preisblatt"><path codeLine="18" d="M335.49,209.12 C432.23,179.54 533.737,148.5042 604.267,126.9342" fill="none" id="PreisblattNetznutzung-to-Preisblatt" style="stroke:#181818;stroke-width:1;"/><polygon fill="none" points="621.48,121.67,602.5122,121.1965,606.0217,132.6719,621.48,121.67" style="stroke:#181818;stroke-width:1;"/></g><!--link PreisblattNetznutzung to Bilanzierungsmethode--><g class="link" data-entity-1="PreisblattNetznutzung" data-entity-2="Bilanzierungsmethode" data-source-line="19" data-uid="lnk11" id="link_PreisblattNetznutzung_Bilanzierungsmethode"><path codeLine="19" d="M349.17,277.58 C359.18,278.48 369.1,279.3 378.77,280 C446.26,284.87 510.3718,286.9111 569.5318,287.9411" fill="none" id="PreisblattNetznutzung-to-Bilanzierungsmethode" style="stroke:#181818;stroke-width:1;"/><polygon fill="#181818" points="581.53,288.15,575.6005,284.0462,569.5318,287.9411,575.4613,292.0449,581.53,288.15" style="stroke:#181818;stroke-width:1;"/><text fill="#000000" font-family="sans-serif" font-size="13" lengthAdjust="spacing" textLength="145.1646" x="379.77" y="276.0669">bilanzierungsmethode</text><text fill="#000000" font-family="sans-serif" font-size="13" lengthAdjust="spacing" textLength="24.8066" x="548.8308" y="300.7312">0..1</text></g><!--link PreisblattNetznutzung to Netzebene--><g class="link" data-entity-1="PreisblattNetznutzung" data-entity-2="Netzebene" data-source-line="20" data-uid="lnk12" id="link_PreisblattNetznutzung_Netzebene"><path codeLine="20" d="M348.15,304.9 C358.48,307.41 368.75,309.8 378.77,312 C457.6,329.28 537.2503,341.8751 599.0703,350.6951" fill="none" id="PreisblattNetznutzung-to-Netzebene" style="stroke:#181818;stroke-width:1;"/><polygon fill="#181818" points="610.95,352.39,605.5751,347.5826,599.0703,350.6951,604.4452,355.5024,610.95,352.39" style="stroke:#181818;stroke-width:1;"/><text fill="#000000" font-family="sans-serif" font-size="13" lengthAdjust="spacing" textLength="68.6436" x="418.27" y="308.0669">netzebene</text><text fill="#000000" font-family="sans-serif" font-size="13" lengthAdjust="spacing" textLength="24.8066" x="578.2667" y="364.2463">0..1</text></g><!--link PreisblattNetznutzung to Kundengruppe--><g class="link" data-entity-1="PreisblattNetznutzung" data-entity-2="Kundengruppe" data-source-line="21" data-uid="lnk13" id="link_PreisblattNetznutzung_Kundengruppe"><path codeLine="21" d="M349.05,243.15 C433.98,236.23 520.8496,229.1641 588.7496,223.6341" fill="none" id="PreisblattNetznutzung-to-Kundengruppe" style="stroke:#181818;stroke-width:1;"/><polygon fill="#181818" points="600.71,222.66,594.4051,219.1602,588.7496,223.6341,595.0545,227.1338,600.71,222.66" style="stroke:#181818;stroke-width:1;"/><text fill="#000000" font-family="sans-serif" font-size="13" lengthAdjust="spacing" textLength="94.834" x="405.27" y="226.0669">kundengruppe</text><text fill="#000000" font-family="sans-serif" font-size="13" lengthAdjust="spacing" textLength="24.8066" x="568.2994" y="235.994">0..1</text></g><!--SRC=[nLJHRfim57skl-8gUUiKcxHfrw6sKgFkQLAsvsLeCd03Li56jcatjltx36k8qyAcFgpXoUTmxu5phdKBt5Ym2hJ8SWkfq9XOeIGXIS6DWSbwlH45XimzkIgHwLfArEn1wJks_BXuFwk-srp9lNEg4iCePTIgRt-0BIkMsx9Wl18iLWkaiQ8jCTs2IgCmSS6jbMWRMTkcbXdzrBEh7Gk3R1HzaPT6D1ZEW-k_gaw0cs4D-46EljwZDYu12C5O3Uk0qda4Lt0Id9m5SnhGu4rslk2RTy7fHKgEcjfmsznOgqLSMtHTd_UOJk2u5LWfYKvUf4-LknU_296yH5Fn1Fzxwl08egZBuX71T7b- -_RceatXODFtHkxDw1_3VJ9H5-OhP8coBhqqM-ZdsMAOflFazEmr4kt_Phg3TxLCKMQwhYga7pm0FdYUxRFcpfNVSn0xiIYuR0IwRsIcHAUL8bqEa314ZjWS4kti3caSn7QxkJ16YNIrFK5_6d7LztHM-kfsoupirDdiv_Ls4NWbO-Mk_XWcxGQRxAxxy3126ChuPS8xvo7qtbuciNV_G_2lDo6vS3zQOXcxtKzChXvWH7iZi4ZDRm00]--></g></svg>