<?xml version="1.0" encoding="us-ascii" standalone="no"?><svg xmlns="http://www.w3.org/2000/svg" xmlns:xlink="http://www.w3.org/1999/xlink" contentStyleType="text/css" height="501px" preserveAspectRatio="none" style="width:870px;height:501px;background:#FFFFFF;" version="1.1" viewBox="0 0 870 501" width="870px" zoomAndPan="magnify"><defs/><g><!--cluster bo4e--><g id="cluster_bo4e"><path d="M589.5,6 L630.5,6 A3.75,3.75 0 0 1 633,8.5 L640,28.2969 L860.5,28.2969 A2.5,2.5 0 0 1 863,30.7969 L863,491.5 A2.5,2.5 0 0 1 860.5,494 L589.5,494 A2.5,2.5 0 0 1 587,491.5 L587,8.5 A2.5,2.5 0 0 1 589.5,6 " fill="none" style="stroke:#000000;stroke-width:1.5;"/><line style="stroke:#000000;stroke-width:1.5;" x1="587" x2="640" y1="28.2969" y2="28.2969"/><text fill="#000000" font-family="sans-serif" font-size="14" font-weight="bold" lengthAdjust="spacing" textLength="40" x="591" y="20.9951">bo4e</text></g><!--cluster bo--><g id="cluster_bo"><path d="M652,49 L718,49 A3.75,3.75 0 0 1 720.5,51.5 L727.5,71.2969 L798,71.2969 A2.5,2.5 0 0 1 800.5,73.7969 L800.5,208.5 A2.5,2.5 0 0 1 798,211 L652,211 A2.5,2.5 0 0 1 649.5,208.5 L649.5,51.5 A2.5,2.5 0 0 1 652,49 " fill="#B6D7A8" style="stroke:#000000;stroke-width:1.5;"/><line style="stroke:#000000;stroke-width:1.5;" x1="649.5" x2="727.5" y1="71.2969" y2="71.2969"/><a href="https://bo4e.github.io/BO4E-python/latest/api/bo4e.bo.html" target="_top" title="https://bo4e.github.io/BO4E-python/latest/api/bo4e.bo.html" xlink:actuate="onRequest" xlink:href="https://bo4e.github.io/BO4E-python/latest/api/bo4e.bo.html" xlink:show="new" xlink:title="https://bo4e.github.io/BO4E-python/latest/api/bo4e.bo.html" xlink:type="simple"><text fill="#0000FF" font-family="sans-serif" font-size="14" font-weight="bold" lengthAdjust="spacing" text-decoration="underline" textLength="65" x="653.5" y="63.9951">bo4e.bo</text></a></g><!--cluster enum--><g id="cluster_enum"><path d="M613.5,235 L703.5,235 A3.75,3.75 0 0 1 706,237.5 L713,257.2969 L836.5,257.2969 A2.5,2.5 0 0 1 839,259.7969 L839,467.5 A2.5,2.5 0 0 1 836.5,470 L613.5,470 A2.5,2.5 0 0 1 611,467.5 L611,237.5 A2.5,2.5 0 0 1 613.5,235 " fill="#D1C358" style="stroke:#000000;stroke-width:1.5;"/><line style="stroke:#000000;stroke-width:1.5;" x1="611" x2="713" y1="257.2969" y2="257.2969"/><a href="https://bo4e.github.io/BO4E-python/latest/api/bo4e.enum.html" target="_top" title="https://bo4e.github.io/BO4E-python/latest/api/bo4e.enum.html" xlink:actuate="onRequest" xlink:href="https://bo4e.github.io/BO4E-python/latest/api/bo4e.enum.html" xlink:show="new" xlink:title="https://bo4e.github.io/BO4E-python/latest/api/bo4e.enum.html" xlink:type="simple"><text fill="#0000FF" font-family="sans-serif" font-size="14" font-weight="bold" lengthAdjust="spacing" text-decoration="underline" textLength="89" x="615" y="249.9951">bo4e.enum</text></a></g><!--class Geraet--><g id="elem_Geraet"><rect codeLine="10" fill="#F1F1F1" height="37.9375" id="Geraet" rx="2.5" ry="2.5" style="stroke:#181818;stroke-width:0.5;" width="106" x="672" y="84.03"/><ellipse cx="687" cy="102.9987" fill="#ADD1B2" rx="11" ry="11" style="stroke:#181818;stroke-width:1.0;"/><path d="M689.9688,108.6394 Q689.3906,108.9362 688.75,109.0769 Q688.1094,109.2331 687.4063,109.2331 Q684.9063,109.2331 683.5781,107.5925 Q682.2656,105.9362 682.2656,102.8112 Q682.2656,99.6862 683.5781,98.03 Q684.9063,96.3737 687.4063,96.3737 Q688.1094,96.3737 688.75,96.53 Q689.4063,96.6862 689.9688,96.9831 L689.9688,99.7019 Q689.3438,99.1237 688.75,98.8581 Q688.1563,98.5769 687.5313,98.5769 Q686.1875,98.5769 685.5,99.655 Q684.8125,100.7175 684.8125,102.8112 Q684.8125,104.905 685.5,105.9831 Q686.1875,107.0456 687.5313,107.0456 Q688.1563,107.0456 688.75,106.78 Q689.3438,106.4987 689.9688,105.9206 L689.9688,108.6394 Z " fill="#000000"/><a href="https://bo4e.github.io/BO4E-python/latest/api/bo4e.bo.html#bo4e.bo.geraet.Geraet" target="_top" title="https://bo4e.github.io/BO4E-python/latest/api/bo4e.bo.html#bo4e.bo.geraet.Geraet" xlink:actuate="onRequest" xlink:href="https://bo4e.github.io/BO4E-python/latest/api/bo4e.bo.html#bo4e.bo.geraet.Geraet" xlink:show="new" xlink:title="https://bo4e.github.io/BO4E-python/latest/api/bo4e.bo.html#bo4e.bo.geraet.Geraet" xlink:type="simple"><text fill="#0000FF" font-family="sans-serif" font-size="14" lengthAdjust="spacing" text-decoration="underline" textLength="47" x="714.5" y="102.0251">Geraet</text></a><text fill="#000000" font-family="sans-serif" font-size="10" lengthAdjust="spacing" textLength="74" x="701" y="114.6091">bo4e.bo.geraet</text></g><!--class Preisblatt--><g id="elem_Preisblatt"><rect codeLine="11" fill="#F1F1F1" height="37.9375" id="Preisblatt" rx="2.5" ry="2.5" style="stroke:#181818;stroke-width:0.5;" width="119" x="665.5" y="157.03"/><ellipse cx="680.5" cy="175.9987" fill="#ADD1B2" rx="11" ry="11" style="stroke:#181818;stroke-width:1.0;"/><path d="M683.4688,181.6394 Q682.8906,181.9362 682.25,182.0769 Q681.6094,182.2331 680.9063,182.2331 Q678.4063,182.2331 677.0781,180.5925 Q675.7656,178.9362 675.7656,175.8112 Q675.7656,172.6862 677.0781,171.03 Q678.4063,169.3737 680.9063,169.3737 Q681.6094,169.3737 682.25,169.53 Q682.9063,169.6862 683.4688,169.9831 L683.4688,172.7019 Q682.8438,172.1237 682.25,171.8581 Q681.6563,171.5769 681.0313,171.5769 Q679.6875,171.5769 679,172.655 Q678.3125,173.7175 678.3125,175.8112 Q678.3125,177.905 679,178.9831 Q679.6875,180.0456 681.0313,180.0456 Q681.6563,180.0456 682.25,179.78 Q682.8438,179.4987 683.4688,178.9206 L683.4688,181.6394 Z " fill="#000000"/><a href="https://bo4e.github.io/BO4E-python/latest/api/bo4e.bo.html#bo4e.bo.preisblatt.Preisblatt" target="_top" title="https://bo4e.github.io/BO4E-python/latest/api/bo4e.bo.html#bo4e.bo.preisblatt.Preisblatt" xlink:actuate="onRequest" xlink:href="https://bo4e.github.io/BO4E-python/latest/api/bo4e.bo.html#bo4e.bo.preisblatt.Preisblatt" xlink:show="new" xlink:title="https://bo4e.github.io/BO4E-python/latest/api/bo4e.bo.html#bo4e.bo.preisblatt.Preisblatt" xlink:type="simple"><text fill="#0000FF" font-family="sans-serif" font-size="14" lengthAdjust="spacing" text-decoration="underline" textLength="64" x="706" y="175.0251">Preisblatt</text></a><text fill="#000000" font-family="sans-serif" font-size="10" lengthAdjust="spacing" textLength="87" x="694.5" y="187.6091">bo4e.bo.preisblatt</text></g><!--class Bilanzierungsmethode--><g id="elem_Bilanzierungsmethode"><rect codeLine="14" fill="#F1F1F1" height="37.9375" id="Bilanzierungsmethode" rx="2.5" ry="2.5" style="stroke:#181818;stroke-width:0.5;" width="196" x="627" y="270.03"/><ellipse cx="642" cy="288.9988" fill="#ADD1B2" rx="11" ry="11" style="stroke:#181818;stroke-width:1.0;"/><path d="M644.9688,294.6394 Q644.3906,294.9363 643.75,295.0769 Q643.1094,295.2331 642.4063,295.2331 Q639.9063,295.2331 638.5781,293.5925 Q637.2656,291.9363 637.2656,288.8113 Q637.2656,285.6863 638.5781,284.03 Q639.9063,282.3738 642.4063,282.3738 Q643.1094,282.3738 643.75,282.53 Q644.4063,282.6863 644.9688,282.9831 L644.9688,285.7019 Q644.3438,285.1238 643.75,284.8581 Q643.1563,284.5769 642.5313,284.5769 Q641.1875,284.5769 640.5,285.655 Q639.8125,286.7175 639.8125,288.8113 Q639.8125,290.905 640.5,291.9831 Q641.1875,293.0456 642.5313,293.0456 Q643.1563,293.0456 643.75,292.78 Q644.3438,292.4988 644.9688,291.9206 L644.9688,294.6394 Z " fill="#000000"/><a href="https://bo4e.github.io/BO4E-python/latest/api/bo4e.enum.html#bo4e.enum.bilanzierungsmethode.Bilanzierungsmethode" target="_top" title="https://bo4e.github.io/BO4E-python/latest/api/bo4e.enum.html#bo4e.enum.bilanzierungsmethode.Bilanzierungsmethode" xlink:actuate="onRequest" xlink:href="https://bo4e.github.io/BO4E-python/latest/api/bo4e.enum.html#bo4e.enum.bilanzierungsmethode.Bilanzierungsmethode" xlink:show="new" xlink:title="https://bo4e.github.io/BO4E-python/latest/api/bo4e.enum.html#bo4e.enum.bilanzierungsmethode.Bilanzierungsmethode" xlink:type="simple"><text fill="#0000FF" font-family="sans-serif" font-size="14" lengthAdjust="spacing" text-decoration="underline" textLength="156" x="660" y="288.0251">Bilanzierungsmethode</text></a><text fill="#000000" font-family="sans-serif" font-size="10" lengthAdjust="spacing" textLength="164" x="656" y="300.6091">bo4e.enum.bilanzierungsmethode</text></g><!--class Dienstleistungstyp--><g id="elem_Dienstleistungstyp"><rect codeLine="15" fill="#F1F1F1" height="37.9375" id="Dienstleistungstyp" rx="2.5" ry="2.5" style="stroke:#181818;stroke-width:0.5;" width="177" x="636.5" y="343.03"/><ellipse cx="651.5" cy="361.9988" fill="#ADD1B2" rx="11" ry="11" style="stroke:#181818;stroke-width:1.0;"/><path d="M654.4688,367.6394 Q653.8906,367.9363 653.25,368.0769 Q652.6094,368.2331 651.9063,368.2331 Q649.4063,368.2331 648.0781,366.5925 Q646.7656,364.9363 646.7656,361.8113 Q646.7656,358.6863 648.0781,357.03 Q649.4063,355.3738 651.9063,355.3738 Q652.6094,355.3738 653.25,355.53 Q653.9063,355.6863 654.4688,355.9831 L654.4688,358.7019 Q653.8438,358.1238 653.25,357.8581 Q652.6563,357.5769 652.0313,357.5769 Q650.6875,357.5769 650,358.655 Q649.3125,359.7175 649.3125,361.8113 Q649.3125,363.905 650,364.9831 Q650.6875,366.0456 652.0313,366.0456 Q652.6563,366.0456 653.25,365.78 Q653.8438,365.4988 654.4688,364.9206 L654.4688,367.6394 Z " fill="#000000"/><a href="https://bo4e.github.io/BO4E-python/latest/api/bo4e.enum.html#bo4e.enum.dienstleistungstyp.Dienstleistungstyp" target="_top" title="https://bo4e.github.io/BO4E-python/latest/api/bo4e.enum.html#bo4e.enum.dienstleistungstyp.Dienstleistungstyp" xlink:actuate="onRequest" xlink:href="https://bo4e.github.io/BO4E-python/latest/api/bo4e.enum.html#bo4e.enum.dienstleistungstyp.Dienstleistungstyp" xlink:show="new" xlink:title="https://bo4e.github.io/BO4E-python/latest/api/bo4e.enum.html#bo4e.enum.dienstleistungstyp.Dienstleistungstyp" xlink:type="simple"><text fill="#0000FF" font-family="sans-serif" font-size="14" lengthAdjust="spacing" text-decoration="underline" textLength="129" x="673.5" y="361.0251">Dienstleistungstyp</text></a><text fill="#000000" font-family="sans-serif" font-size="10" lengthAdjust="spacing" textLength="145" x="665.5" y="373.6091">bo4e.enum.dienstleistungstyp</text></g><!--class Typ--><g id="elem_Typ"><rect codeLine="16" fill="#F1F1F1" height="37.9375" id="Typ" rx="2.5" ry="2.5" style="stroke:#181818;stroke-width:0.5;" width="106" x="672" y="416.03"/><ellipse cx="687" cy="434.9988" fill="#ADD1B2" rx="11" ry="11" style="stroke:#181818;stroke-width:1.0;"/><path d="M689.9688,440.6394 Q689.3906,440.9363 688.75,441.0769 Q688.1094,441.2331 687.4063,441.2331 Q684.9063,441.2331 683.5781,439.5925 Q682.2656,437.9363 682.2656,434.8113 Q682.2656,431.6863 683.5781,430.03 Q684.9063,428.3738 687.4063,428.3738 Q688.1094,428.3738 688.75,428.53 Q689.4063,428.6863 689.9688,428.9831 L689.9688,431.7019 Q689.3438,431.1238 688.75,430.8581 Q688.1563,430.5769 687.5313,430.5769 Q686.1875,430.5769 685.5,431.655 Q684.8125,432.7175 684.8125,434.8113 Q684.8125,436.905 685.5,437.9831 Q686.1875,439.0456 687.5313,439.0456 Q688.1563,439.0456 688.75,438.78 Q689.3438,438.4988 689.9688,437.9206 L689.9688,440.6394 Z " fill="#000000"/><a href="https://bo4e.github.io/BO4E-python/latest/api/bo4e.enum.html#bo4e.enum.typ.Typ" target="_top" title="https://bo4e.github.io/BO4E-python/latest/api/bo4e.enum.html#bo4e.enum.typ.Typ" xlink:actuate="onRequest" xlink:href="https://bo4e.github.io/BO4E-python/latest/api/bo4e.enum.html#bo4e.enum.typ.Typ" xlink:show="new" xlink:title="https://bo4e.github.io/BO4E-python/latest/api/bo4e.enum.html#bo4e.enum.typ.Typ" xlink:type="simple"><text fill="#0000FF" font-family="sans-serif" font-size="14" lengthAdjust="spacing" text-decoration="underline" textLength="25" x="725.5" y="434.0251">Typ</text></a><text fill="#000000" font-family="sans-serif" font-size="10" lengthAdjust="spacing" textLength="74" x="701" y="446.6091">bo4e.enum.typ</text></g><!--class PreisblattDienstleistung--><g id="elem_PreisblattDienstleistung"><rect codeLine="3" fill="#F1F1F1" height="94.8281" id="PreisblattDienstleistung" rx="2.5" ry="2.5" style="stroke:#181818;stroke-width:0.5;" width="371" x="7" y="233.59"/><ellipse cx="106.25" cy="252.5587" fill="#ADD1B2" rx="11" ry="11" style="stroke:#181818;stroke-width:1.0;"/><path d="M109.2188,258.1994 Q108.6406,258.4963 108,258.6369 Q107.3594,258.7931 106.6563,258.7931 Q104.1563,258.7931 102.8281,257.1525 Q101.5156,255.4962 101.5156,252.3712 Q101.5156,249.2462 102.8281,247.59 Q104.1563,245.9337 106.6563,245.9337 Q107.3594,245.9337 108,246.09 Q108.6563,246.2462 109.2188,246.5431 L109.2188,249.2619 Q108.5938,248.6837 108,248.4181 Q107.4063,248.1369 106.7813,248.1369 Q105.4375,248.1369 104.75,249.215 Q104.0625,250.2775 104.0625,252.3712 Q104.0625,254.465 104.75,255.5431 Q105.4375,256.6056 106.7813,256.6056 Q107.4063,256.6056 108,256.34 Q108.5938,256.0588 109.2188,255.4806 L109.2188,258.1994 Z " fill="#000000"/><a href="https://bo4e.github.io/BO4E-python/latest/api/bo4e.bo.html#bo4e.bo.preisblattdienstleistung.PreisblattDienstleistung" target="_top" title="https://bo4e.github.io/BO4E-python/latest/api/bo4e.bo.html#bo4e.bo.preisblattdienstleistung.PreisblattDienstleistung" xlink:actuate="onRequest" xlink:href="https://bo4e.github.io/BO4E-python/latest/api/bo4e.bo.html#bo4e.bo.preisblattdienstleistung.PreisblattDienstleistung" xlink:show="new" xlink:title="https://bo4e.github.io/BO4E-python/latest/api/bo4e.bo.html#bo4e.bo.preisblattdienstleistung.PreisblattDienstleistung" xlink:type="simple"><text fill="#0000FF" font-family="sans-serif" font-size="14" lengthAdjust="spacing" text-decoration="underline" textLength="164" x="126.75" y="251.5851">PreisblattDienstleistung</text></a><text fill="#000000" font-family="sans-serif" font-size="10" lengthAdjust="spacing" textLength="153" x="132.25" y="264.1691">bo4e.bo.preisblattdienstleistung</text><line style="stroke:#181818;stroke-width:0.5;" x1="8" x2="377" y1="271.5275" y2="271.5275"/><text fill="#000000" font-family="sans-serif" font-size="14" lengthAdjust="spacing" textLength="359" x="13" y="288.5226">_version : str [0..1] = 202401.1.2.dev15+g62de746</text><text fill="#000000" font-family="sans-serif" font-size="14" lengthAdjust="spacing" textLength="311" x="13" y="304.8195">zusatzAttribute : ZusatzAttribut [0..*] = None</text><text fill="#000000" font-family="sans-serif" font-size="14" lengthAdjust="spacing" textLength="147" x="13" y="321.1164">_id : str [0..1] = None</text></g><!--link PreisblattDienstleistung to Preisblatt--><g id="link_PreisblattDienstleistung_Preisblatt"><path codeLine="19" d="M378.3,244.42 C478.77,224.54 578.5922,204.7731 647.4922,191.1431 " fill="none" id="PreisblattDienstleistung-to-Preisblatt" style="stroke:#181818;stroke-width:1.0;"/><polygon fill="none" points="665.15,187.65,646.3278,185.2572,648.6566,197.0291,665.15,187.65" style="stroke:#181818;stroke-width:1.0;"/></g><!--link PreisblattDienstleistung to Typ--><g id="link_PreisblattDienstleistung_Typ"><path codeLine="20" d="M266.43,328.84 C306.59,352.89 358.26,380.21 408,396 C497.7,424.48 595.8563,431.9423 659.5863,434.0023 " fill="none" id="PreisblattDienstleistung-to-Typ" style="stroke:#181818;stroke-width:1.0;"/><polygon fill="#181818" points="671.58,434.39,665.7124,430.1982,659.5863,434.0023,665.4539,438.1941,671.58,434.39" style="stroke:#181818;stroke-width:1.0;"/><text fill="#000000" font-family="sans-serif" font-size="13" lengthAdjust="spacing" textLength="27" x="476" y="392.0669">_typ</text><text fill="#000000" font-family="sans-serif" font-size="13" lengthAdjust="spacing" textLength="24" x="640.0158" y="447.2614">0..1</text></g><!--link PreisblattDienstleistung to Bilanzierungsmethode--><g id="link_PreisblattDienstleistung_Bilanzierungsmethode"><path codeLine="21" d="M378.3,283.79 C461.88,285.05 545.2313,286.3101 614.5913,287.3501 " fill="none" id="PreisblattDienstleistung-to-Bilanzierungsmethode" style="stroke:#181818;stroke-width:1.0;"/><polygon fill="#181818" points="626.59,287.53,620.6506,283.4405,614.5913,287.3501,620.5307,291.4396,626.59,287.53" style="stroke:#181818;stroke-width:1.0;"/><text fill="#000000" font-family="sans-serif" font-size="13" lengthAdjust="spacing" textLength="142" x="418.5" y="281.0669">bilanzierungsmethode</text><text fill="#000000" font-family="sans-serif" font-size="13" lengthAdjust="spacing" textLength="24" x="595.1718" y="300.0066">0..1</text></g><!--link PreisblattDienstleistung to Dienstleistungstyp--><g id="link_PreisblattDienstleistung_Dienstleistungstyp"><path codeLine="22" d="M378.3,309.22 C465.76,322.57 554.2576,336.0777 624.2276,346.7677 " fill="none" id="PreisblattDienstleistung-to-Dienstleistungstyp" style="stroke:#181818;stroke-width:1.0;"/><polygon fill="#181818" points="636.09,348.58,630.7629,343.7197,624.2276,346.7677,629.5547,351.628,636.09,348.58" style="stroke:#181818;stroke-width:1.0;"/><text fill="#000000" font-family="sans-serif" font-size="13" lengthAdjust="spacing" textLength="122" x="428.5" y="311.0669">basisdienstleistung</text><text fill="#000000" font-family="sans-serif" font-size="13" lengthAdjust="spacing" textLength="24" x="604.3641" y="360.1988">0..1</text></g><!--link PreisblattDienstleistung to Dienstleistungstyp--><g id="link_PreisblattDienstleistung_Dienstleistungstyp"><path codeLine="23" d="M294.35,328.83 C329.5,343.11 369.73,356.85 408,364 C479.21,377.3 498.56,364.47 571,364 C592.12,363.86 602.881,363.7774 624.221,363.4974 " fill="none" id="PreisblattDienstleistung-to-Dienstleistungstyp-1" style="stroke:#181818;stroke-width:1.0;"/><polygon fill="#181818" points="636.22,363.34,630.168,359.4191,624.221,363.4974,630.273,367.4184,636.22,363.34" style="stroke:#181818;stroke-width:1.0;"/><text fill="#000000" font-family="sans-serif" font-size="13" lengthAdjust="spacing" textLength="161" x="409" y="360.0669">inklusiveDienstleistungen</text><text fill="#000000" font-family="sans-serif" font-size="13" lengthAdjust="spacing" textLength="23" x="605.5423" y="376.0889">0..*</text></g><!--link PreisblattDienstleistung to Geraet--><g id="link_PreisblattDienstleistung_Geraet"><path codeLine="24" d="M311.98,233.13 C387.57,203.73 488.06,166.72 579,140 C609.53,131.03 632.3963,125.0319 660.0863,118.2319 " fill="none" id="PreisblattDienstleistung-to-Geraet" style="stroke:#181818;stroke-width:1.0;"/><polygon fill="#181818" points="671.74,115.37,664.9592,112.9164,660.0863,118.2319,666.8671,120.6855,671.74,115.37" style="stroke:#181818;stroke-width:1.0;"/><text fill="#000000" font-family="sans-serif" font-size="13" lengthAdjust="spacing" textLength="92" x="443.5" y="140.0669">geraetedetails</text><text fill="#000000" font-family="sans-serif" font-size="13" lengthAdjust="spacing" textLength="24" x="640.1943" y="129.7422">0..1</text></g><!--SRC=[hLLDRvj043s7Np6oRwwy6DTn8jH6YkMgjxQ7dEgYQ34JM1KMn0okuhR_lGksOnoWZcMVLlFrTjw-OOZnYO5Jo5KOCGGgnoMhL5lMCfP4q5ii8kQCNDlsqmcAK75K-4AbzkphvDCmU-OerNOi6ObjcQbDbf-AY9EulpEo71Nv9ei3XPeuDYONEXJVNWBpWm1q1JplX_v0QeskCxex1jy3IPr8yDkwUbnXJeOjk42Sms8aXEF1HnYFnfEH8nmn5W6kdEjtuNGSuCraQbsj2vAylcVEbLymcihl1vuAP522V4arcYjKy1gz2lorB2qJf4mkyRnNXgtXUHNVhGNzsNH-StzRqhoab27c4bbyhWxO7AsYR1AhbZPPb-rZhtbjY6fY7ncKLwDXv3XN3TH5KjEZDEkAb3Rq0sVv_lfiJLwkwkzDNyLIhnNcPhGfGLCNe9YrEA7DsNojJj2AKXl6vJaTVit4pvcODrpGT7MmQS9LN9hrbsTIjlvWUdteR6xNZSaeTqFtPXmE_zpjFl9QrdygJCa0UkNswUrdiMh7XSUIxgcbhMFbGjkqd8pT8h11bgJeKBwt00-E0YlzCov8hV0mYlgKleqEstNemcRhOO0iLKoM5IdpD0aclldHM1Iblw0R-4bX7D0_]--></g></svg>