<svg xmlns="http://www.w3.org/2000/svg" xmlns:xlink="http://www.w3.org/1999/xlink" contentStyleType="text/css" data-diagram-type="CLASS" height="428px" preserveAspectRatio="none" style="width:884px;height:428px;background:#FFFFFF;" version="1.1" viewBox="0 0 884 428" width="884px" zoomAndPan="magnify"><defs/><g><!--cluster bo4e--><g class="cluster" data-entity="bo4e" data-source-line="10" data-uid="ent0005" id="cluster_bo4e"><path d="M596.5,6 L636.376,6 A3.75,3.75 0 0 1 638.876,8.5 L645.876,28.2969 L875.07,28.2969 A2.5,2.5 0 0 1 877.57,30.7969 L877.57,418.5 A2.5,2.5 0 0 1 875.07,421 L596.5,421 A2.5,2.5 0 0 1 594,418.5 L594,8.5 A2.5,2.5 0 0 1 596.5,6" fill="none" style="stroke:#000000;stroke-width:1.5;"/><line style="stroke:#000000;stroke-width:1.5;" x1="594" x2="645.876" y1="28.2969" y2="28.2969"/><text fill="#000000" font-family="sans-serif" font-size="14" font-weight="bold" lengthAdjust="spacing" textLength="38.876" x="598" y="20.9951">bo4e</text></g><!--cluster bo--><g class="cluster" data-entity="bo" data-source-line="9" data-uid="ent0003" id="cluster_bo"><path d="M660.54,49 L725.374,49 A3.75,3.75 0 0 1 727.874,51.5 L734.874,71.2969 L811.04,71.2969 A2.5,2.5 0 0 1 813.54,73.7969 L813.54,208.5 A2.5,2.5 0 0 1 811.04,211 L660.54,211 A2.5,2.5 0 0 1 658.04,208.5 L658.04,51.5 A2.5,2.5 0 0 1 660.54,49" fill="#B6D7A8" style="stroke:#000000;stroke-width:1.5;"/><line style="stroke:#000000;stroke-width:1.5;" x1="658.04" x2="734.874" y1="71.2969" y2="71.2969"/><a href="https://bo4e.github.io/BO4E-python/latest/api/bo4e.bo.html" target="_top" title="https://bo4e.github.io/BO4E-python/latest/api/bo4e.bo.html" xlink:actuate="onRequest" xlink:href="https://bo4e.github.io/BO4E-python/latest/api/bo4e.bo.html" xlink:show="new" xlink:title="https://bo4e.github.io/BO4E-python/latest/api/bo4e.bo.html" xlink:type="simple"><text fill="#0000FF" font-family="sans-serif" font-size="14" font-weight="bold" lengthAdjust="spacing" text-decoration="underline" textLength="63.834" x="662.04" y="63.9951">bo4e.bo</text></a></g><!--cluster enum--><g class="cluster" data-entity="enum" data-source-line="13" data-uid="ent0007" id="cluster_enum"><path d="M620.5,235 L709.7109,235 A3.75,3.75 0 0 1 712.2109,237.5 L719.2109,257.2969 L851.07,257.2969 A2.5,2.5 0 0 1 853.57,259.7969 L853.57,394.5 A2.5,2.5 0 0 1 851.07,397 L620.5,397 A2.5,2.5 0 0 1 618,394.5 L618,237.5 A2.5,2.5 0 0 1 620.5,235" fill="#D1C358" style="stroke:#000000;stroke-width:1.5;"/><line style="stroke:#000000;stroke-width:1.5;" x1="618" x2="719.2109" y1="257.2969" y2="257.2969"/><a href="https://bo4e.github.io/BO4E-python/latest/api/bo4e.enum.html" target="_top" title="https://bo4e.github.io/BO4E-python/latest/api/bo4e.enum.html" xlink:actuate="onRequest" xlink:href="https://bo4e.github.io/BO4E-python/latest/api/bo4e.enum.html" xlink:show="new" xlink:title="https://bo4e.github.io/BO4E-python/latest/api/bo4e.enum.html" xlink:type="simple"><text fill="#0000FF" font-family="sans-serif" font-size="14" font-weight="bold" lengthAdjust="spacing" text-decoration="underline" textLength="88.2109" x="622" y="249.9951">bo4e.enum</text></a></g><!--class Preisblatt--><g class="entity" data-entity="Preisblatt" data-source-line="10" data-uid="ent0004" id="entity_Preisblatt"><rect fill="#F1F1F1" height="37.9375" rx="2.5" ry="2.5" style="stroke:#181818;stroke-width:0.5;" width="123.499" x="674.04" y="84.03"/><ellipse cx="689.04" cy="102.9987" fill="#ADD1B2" rx="11" ry="11" style="stroke:#181818;stroke-width:1;"/><path d="M692.0088,108.6394 Q691.4306,108.9362 690.79,109.0769 Q690.1494,109.2331 689.4463,109.2331 Q686.9463,109.2331 685.6181,107.5925 Q684.3056,105.9362 684.3056,102.8112 Q684.3056,99.6862 685.6181,98.03 Q686.9463,96.3737 689.4463,96.3737 Q690.1494,96.3737 690.79,96.53 Q691.4463,96.6862 692.0088,96.9831 L692.0088,99.7019 Q691.3838,99.1237 690.79,98.8581 Q690.1963,98.5769 689.5713,98.5769 Q688.2275,98.5769 687.54,99.655 Q686.8525,100.7175 686.8525,102.8112 Q686.8525,104.905 687.54,105.9831 Q688.2275,107.0456 689.5713,107.0456 Q690.1963,107.0456 690.79,106.78 Q691.3838,106.4987 692.0088,105.9206 L692.0088,108.6394 Z " fill="#000000"/><a href="https://bo4e.github.io/BO4E-python/latest/api/bo4e.bo.html#bo4e.bo.preisblatt.Preisblatt" target="_top" title="https://bo4e.github.io/BO4E-python/latest/api/bo4e.bo.html#bo4e.bo.preisblatt.Preisblatt" xlink:actuate="onRequest" xlink:href="https://bo4e.github.io/BO4E-python/latest/api/bo4e.bo.html#bo4e.bo.preisblatt.Preisblatt" xlink:show="new" xlink:title="https://bo4e.github.io/BO4E-python/latest/api/bo4e.bo.html#bo4e.bo.preisblatt.Preisblatt" xlink:type="simple"><text fill="#0000FF" font-family="sans-serif" font-size="14" lengthAdjust="spacing" text-decoration="underline" textLength="66.3291" x="715.625" y="102.0251">Preisblatt</text></a><text fill="#000000" font-family="sans-serif" font-size="10" lengthAdjust="spacing" textLength="91.499" x="703.04" y="114.6091">bo4e.bo.preisblatt</text></g><!--class Geraet--><g class="entity" data-entity="Geraet" data-source-line="11" data-uid="ent0006" id="entity_Geraet"><rect fill="#F1F1F1" height="37.9375" rx="2.5" ry="2.5" style="stroke:#181818;stroke-width:0.5;" width="108.6162" x="681.48" y="157.03"/><ellipse cx="696.48" cy="175.9987" fill="#ADD1B2" rx="11" ry="11" style="stroke:#181818;stroke-width:1;"/><path d="M699.4488,181.6394 Q698.8706,181.9362 698.23,182.0769 Q697.5894,182.2331 696.8863,182.2331 Q694.3863,182.2331 693.0581,180.5925 Q691.7456,178.9362 691.7456,175.8112 Q691.7456,172.6862 693.0581,171.03 Q694.3863,169.3737 696.8863,169.3737 Q697.5894,169.3737 698.23,169.53 Q698.8863,169.6862 699.4488,169.9831 L699.4488,172.7019 Q698.8238,172.1237 698.23,171.8581 Q697.6363,171.5769 697.0113,171.5769 Q695.6675,171.5769 694.98,172.655 Q694.2925,173.7175 694.2925,175.8112 Q694.2925,177.905 694.98,178.9831 Q695.6675,180.0456 697.0113,180.0456 Q697.6363,180.0456 698.23,179.78 Q698.8238,179.4987 699.4488,178.9206 L699.4488,181.6394 Z " fill="#000000"/><a href="https://bo4e.github.io/BO4E-python/latest/api/bo4e.bo.html#bo4e.bo.geraet.Geraet" target="_top" title="https://bo4e.github.io/BO4E-python/latest/api/bo4e.bo.html#bo4e.bo.geraet.Geraet" xlink:actuate="onRequest" xlink:href="https://bo4e.github.io/BO4E-python/latest/api/bo4e.bo.html#bo4e.bo.geraet.Geraet" xlink:show="new" xlink:title="https://bo4e.github.io/BO4E-python/latest/api/bo4e.bo.html#bo4e.bo.geraet.Geraet" xlink:type="simple"><text fill="#0000FF" font-family="sans-serif" font-size="14" lengthAdjust="spacing" text-decoration="underline" textLength="47.8994" x="724.8384" y="175.0251">Geraet</text></a><text fill="#000000" font-family="sans-serif" font-size="10" lengthAdjust="spacing" textLength="76.6162" x="710.48" y="187.6091">bo4e.bo.geraet</text></g><!--class Dienstleistungstyp--><g class="entity" data-entity="Dienstleistungstyp" data-source-line="14" data-uid="ent0008" id="entity_Dienstleistungstyp"><rect fill="#F1F1F1" height="37.9375" rx="2.5" ry="2.5" style="stroke:#181818;stroke-width:0.5;" width="183.9141" x="643.83" y="270.03"/><ellipse cx="658.83" cy="288.9988" fill="#ADD1B2" rx="11" ry="11" style="stroke:#181818;stroke-width:1;"/><path d="M661.7988,294.6394 Q661.2206,294.9363 660.58,295.0769 Q659.9394,295.2331 659.2363,295.2331 Q656.7363,295.2331 655.4081,293.5925 Q654.0956,291.9363 654.0956,288.8113 Q654.0956,285.6863 655.4081,284.03 Q656.7363,282.3738 659.2363,282.3738 Q659.9394,282.3738 660.58,282.53 Q661.2363,282.6863 661.7988,282.9831 L661.7988,285.7019 Q661.1738,285.1238 660.58,284.8581 Q659.9863,284.5769 659.3613,284.5769 Q658.0175,284.5769 657.33,285.655 Q656.6425,286.7175 656.6425,288.8113 Q656.6425,290.905 657.33,291.9831 Q658.0175,293.0456 659.3613,293.0456 Q659.9863,293.0456 660.58,292.78 Q661.1738,292.4988 661.7988,291.9206 L661.7988,294.6394 Z " fill="#000000"/><a href="https://bo4e.github.io/BO4E-python/latest/api/bo4e.enum.html#bo4e.enum.dienstleistungstyp.Dienstleistungstyp" target="_top" title="https://bo4e.github.io/BO4E-python/latest/api/bo4e.enum.html#bo4e.enum.dienstleistungstyp.Dienstleistungstyp" xlink:actuate="onRequest" xlink:href="https://bo4e.github.io/BO4E-python/latest/api/bo4e.enum.html#bo4e.enum.dienstleistungstyp.Dienstleistungstyp" xlink:show="new" xlink:title="https://bo4e.github.io/BO4E-python/latest/api/bo4e.enum.html#bo4e.enum.dienstleistungstyp.Dienstleistungstyp" xlink:type="simple"><text fill="#0000FF" font-family="sans-serif" font-size="14" lengthAdjust="spacing" text-decoration="underline" textLength="130.7031" x="683.4355" y="288.0251">Dienstleistungstyp</text></a><text fill="#000000" font-family="sans-serif" font-size="10" lengthAdjust="spacing" textLength="151.9141" x="672.83" y="300.6091">bo4e.enum.dienstleistungstyp</text></g><!--class Bilanzierungsmethode--><g class="entity" data-entity="Bilanzierungsmethode" data-source-line="15" data-uid="ent0009" id="entity_Bilanzierungsmethode"><rect fill="#F1F1F1" height="37.9375" rx="2.5" ry="2.5" style="stroke:#181818;stroke-width:0.5;" width="203.5723" x="634" y="343.03"/><ellipse cx="649" cy="361.9988" fill="#ADD1B2" rx="11" ry="11" style="stroke:#181818;stroke-width:1;"/><path d="M651.9688,367.6394 Q651.3906,367.9363 650.75,368.0769 Q650.1094,368.2331 649.4063,368.2331 Q646.9063,368.2331 645.5781,366.5925 Q644.2656,364.9363 644.2656,361.8113 Q644.2656,358.6863 645.5781,357.03 Q646.9063,355.3738 649.4063,355.3738 Q650.1094,355.3738 650.75,355.53 Q651.4063,355.6863 651.9688,355.9831 L651.9688,358.7019 Q651.3438,358.1238 650.75,357.8581 Q650.1563,357.5769 649.5313,357.5769 Q648.1875,357.5769 647.5,358.655 Q646.8125,359.7175 646.8125,361.8113 Q646.8125,363.905 647.5,364.9831 Q648.1875,366.0456 649.5313,366.0456 Q650.1563,366.0456 650.75,365.78 Q651.3438,365.4988 651.9688,364.9206 L651.9688,367.6394 Z " fill="#000000"/><a href="https://bo4e.github.io/BO4E-python/latest/api/bo4e.enum.html#bo4e.enum.bilanzierungsmethode.Bilanzierungsmethode" target="_top" title="https://bo4e.github.io/BO4E-python/latest/api/bo4e.enum.html#bo4e.enum.bilanzierungsmethode.Bilanzierungsmethode" xlink:actuate="onRequest" xlink:href="https://bo4e.github.io/BO4E-python/latest/api/bo4e.enum.html#bo4e.enum.bilanzierungsmethode.Bilanzierungsmethode" xlink:show="new" xlink:title="https://bo4e.github.io/BO4E-python/latest/api/bo4e.enum.html#bo4e.enum.bilanzierungsmethode.Bilanzierungsmethode" xlink:type="simple"><text fill="#0000FF" font-family="sans-serif" font-size="14" lengthAdjust="spacing" text-decoration="underline" textLength="157.0488" x="670.2617" y="361.0251">Bilanzierungsmethode</text></a><text fill="#000000" font-family="sans-serif" font-size="10" lengthAdjust="spacing" textLength="171.5723" x="663" y="373.6091">bo4e.enum.bilanzierungsmethode</text></g><!--class PreisblattDienstleistung--><g class="entity" data-entity="PreisblattDienstleistung" data-source-line="3" data-uid="ent0002" id="entity_PreisblattDienstleistung"><rect fill="#F1F1F1" height="94.8281" rx="2.5" ry="2.5" style="stroke:#181818;stroke-width:0.5;" width="372.001" x="7" y="185.59"/><ellipse cx="105.2119" cy="204.5588" fill="#ADD1B2" rx="11" ry="11" style="stroke:#181818;stroke-width:1;"/><path d="M108.1807,210.1994 Q107.6025,210.4963 106.9619,210.6369 Q106.3213,210.7931 105.6182,210.7931 Q103.1182,210.7931 101.79,209.1525 Q100.4775,207.4963 100.4775,204.3713 Q100.4775,201.2463 101.79,199.59 Q103.1182,197.9338 105.6182,197.9338 Q106.3213,197.9338 106.9619,198.09 Q107.6182,198.2463 108.1807,198.5431 L108.1807,201.2619 Q107.5557,200.6838 106.9619,200.4181 Q106.3682,200.1369 105.7432,200.1369 Q104.3994,200.1369 103.7119,201.215 Q103.0244,202.2775 103.0244,204.3713 Q103.0244,206.465 103.7119,207.5431 Q104.3994,208.6056 105.7432,208.6056 Q106.3682,208.6056 106.9619,208.34 Q107.5557,208.0588 108.1807,207.4806 L108.1807,210.1994 Z " fill="#000000"/><a href="https://bo4e.github.io/BO4E-python/latest/api/bo4e.bo.html#bo4e.bo.preisblattdienstleistung.PreisblattDienstleistung" target="_top" title="https://bo4e.github.io/BO4E-python/latest/api/bo4e.bo.html#bo4e.bo.preisblattdienstleistung.PreisblattDienstleistung" xlink:actuate="onRequest" xlink:href="https://bo4e.github.io/BO4E-python/latest/api/bo4e.bo.html#bo4e.bo.preisblattdienstleistung.PreisblattDienstleistung" xlink:show="new" xlink:title="https://bo4e.github.io/BO4E-python/latest/api/bo4e.bo.html#bo4e.bo.preisblattdienstleistung.PreisblattDienstleistung" xlink:type="simple"><text fill="#0000FF" font-family="sans-serif" font-size="14" lengthAdjust="spacing" text-decoration="underline" textLength="167.0771" x="125.7119" y="203.5851">PreisblattDienstleistung</text></a><text fill="#000000" font-family="sans-serif" font-size="10" lengthAdjust="spacing" textLength="162.1094" x="128.1958" y="216.1691">bo4e.bo.preisblattdienstleistung</text><line style="stroke:#181818;stroke-width:0.5;" x1="8" x2="378.001" y1="223.5275" y2="223.5275"/><text fill="#000000" font-family="sans-serif" font-size="14" lengthAdjust="spacing" textLength="360.001" x="13" y="240.5226">_version : str [0..1] = 202501.0.1.dev3+g694da5f6</text><text fill="#000000" font-family="sans-serif" font-size="14" lengthAdjust="spacing" textLength="318.5752" x="13" y="256.8195">zusatzAttribute : ZusatzAttribut [0..*] = None</text><text fill="#000000" font-family="sans-serif" font-size="14" lengthAdjust="spacing" textLength="151.1768" x="13" y="273.1164">_id : str [0..1] = None</text></g><!--link PreisblattDienstleistung to Preisblatt--><g class="link" data-entity-1="PreisblattDienstleistung" data-entity-2="Preisblatt" data-source-line="18" data-uid="lnk10" id="link_PreisblattDienstleistung_Preisblatt"><path codeLine="18" d="M345.89,185.09 C367,179.02 388.48,173.14 409,168 C500.48,145.1 590.2728,128.0621 656.0228,116.4821" fill="none" id="PreisblattDienstleistung-to-Preisblatt" style="stroke:#181818;stroke-width:1;"/><polygon fill="none" points="673.75,113.36,654.9821,110.5731,657.0636,122.3912,673.75,113.36" style="stroke:#181818;stroke-width:1;"/></g><!--link PreisblattDienstleistung to Bilanzierungsmethode--><g class="link" data-entity-1="PreisblattDienstleistung" data-entity-2="Bilanzierungsmethode" data-source-line="19" data-uid="lnk11" id="link_PreisblattDienstleistung_Bilanzierungsmethode"><path codeLine="19" d="M285.1,280.8 C322.53,298.42 366.9,316.8 409,328 C482.64,347.59 556.4678,355.3362 621.5278,358.8862" fill="none" id="PreisblattDienstleistung-to-Bilanzierungsmethode" style="stroke:#181818;stroke-width:1;"/><polygon fill="#181818" points="633.51,359.54,627.7368,355.219,621.5278,358.8862,627.301,363.2072,633.51,359.54" style="stroke:#181818;stroke-width:1;"/><text fill="#000000" font-family="sans-serif" font-size="13" lengthAdjust="spacing" textLength="145.1646" x="421" y="324.0669">bilanzierungsmethode</text><text fill="#000000" font-family="sans-serif" font-size="13" lengthAdjust="spacing" textLength="24.8066" x="601.1475" y="371.982">0..1</text></g><!--link PreisblattDienstleistung to Dienstleistungstyp--><g class="link" data-entity-1="PreisblattDienstleistung" data-entity-2="Dienstleistungstyp" data-source-line="20" data-uid="lnk12" id="link_PreisblattDienstleistung_Dienstleistungstyp"><path codeLine="20" d="M379.09,251.54 C442.21,257.93 513.19,265.2 578,272 C599.24,274.23 610.1598,275.3877 631.6698,277.7177" fill="none" id="PreisblattDienstleistung-to-Dienstleistungstyp" style="stroke:#181818;stroke-width:1;"/><polygon fill="#181818" points="643.6,279.01,638.0657,274.3871,631.6698,277.7177,637.2041,282.3406,643.6,279.01" style="stroke:#181818;stroke-width:1;"/><text fill="#000000" font-family="sans-serif" font-size="13" lengthAdjust="spacing" textLength="125.1694" x="431" y="251.0669">basisdienstleistung</text><text fill="#000000" font-family="sans-serif" font-size="13" lengthAdjust="spacing" textLength="24.8066" x="611.0054" y="290.8763">0..1</text></g><!--link PreisblattDienstleistung to Dienstleistungstyp--><g class="link" data-entity-1="PreisblattDienstleistung" data-entity-2="Dienstleistungstyp" data-source-line="21" data-uid="lnk13" id="link_PreisblattDienstleistung_Dienstleistungstyp"><path codeLine="21" d="M333.5,280.86 C358.37,287.57 384.24,293.39 409,297 C483.33,307.83 502.91,298.91 578,297 C599.25,296.46 610.1245,296.0906 631.6345,295.0306" fill="none" id="PreisblattDienstleistung-to-Dienstleistungstyp-1" style="stroke:#181818;stroke-width:1;"/><polygon fill="#181818" points="643.62,294.44,637.4304,290.7402,631.6345,295.0306,637.8242,298.7305,643.62,294.44" style="stroke:#181818;stroke-width:1;"/><text fill="#000000" font-family="sans-serif" font-size="13" lengthAdjust="spacing" textLength="167.0957" x="410" y="293.0669">inklusiveDienstleistungen</text><text fill="#000000" font-family="sans-serif" font-size="13" lengthAdjust="spacing" textLength="23.0356" x="612.6844" y="307.5028">0..*</text></g><!--link PreisblattDienstleistung to Geraet--><g class="link" data-entity-1="PreisblattDienstleistung" data-entity-2="Geraet" data-source-line="22" data-uid="lnk14" id="link_PreisblattDienstleistung_Geraet"><path codeLine="22" d="M379.35,213.46 C485.6,202.26 599.4261,190.2676 669.2661,182.9076" fill="none" id="PreisblattDienstleistung-to-Geraet" style="stroke:#181818;stroke-width:1;"/><polygon fill="#181818" points="681.2,181.65,674.8138,178.3008,669.2661,182.9076,675.6523,186.2568,681.2,181.65" style="stroke:#181818;stroke-width:1;"/><text fill="#000000" font-family="sans-serif" font-size="13" lengthAdjust="spacing" textLength="93.9644" x="447" y="189.0669">geraetedetails</text><text fill="#000000" font-family="sans-serif" font-size="13" lengthAdjust="spacing" textLength="24.8066" x="648.7201" y="195.4104">0..1</text></g><!--SRC=[jLHDRvj043s7Np6oRwwyG6AxBMeZnNBLMzjpNLGjPWoZmeBOmLNSzhzd0IU16Ef6Ja-h-NexRzxE9hXbu0mAYcA6a0hSC6NAiZQ9r1f6wtNCd6lFjeDiXY8YZij0K6OlFyy-JFDRZZDb9v9HiorpQhA2JCIS9kDx8o-GT62oE2HKcXDZSgaYyUKXiEe4O2ZW-z_KEqrxz5pd-XJy2AGUH89VriNt7HRQi0KFD1UmTeHmVNWFbyxbt7658rmHukxgLRHuEmlbVBkmBlQbbho_OIueA1bDvTUEfmQPL22VCeNc2WgVejU1FvQbP8ewbniyRyfmC7o_vdkmOBnSh5xVlAbe_XyfM-ArXdn2e2UIl6nl4HOIMNoi3sYEtdwQnBgN9il8SQuQgCgqfKTbjXMfR1Y7xkPgVhOc3rUD7ytkozTyculLaGkENSVp6O2hgHpNlpoJW1AfzeH5TKEAfYv4iUnnGfzpW4yVQCse3wDQpk6lQJhzVNs_PQsilrIOaWcCglKVFJw6VaeUz7NwREmUwGsorAIxmluByEGaCAaVIQbfXzqegkVqROPvM5mFclt445bIeYqh9ZEQ5DF0VDUMZhEVC0oy9Kn2VGS0]--></g></svg>