<?xml version="1.0" encoding="us-ascii" standalone="no"?><svg xmlns="http://www.w3.org/2000/svg" xmlns:xlink="http://www.w3.org/1999/xlink" contentStyleType="text/css" height="428px" preserveAspectRatio="none" style="width:868px;height:428px;background:#FFFFFF;" version="1.1" viewBox="0 0 868 428" width="868px" zoomAndPan="magnify"><defs/><g><!--cluster bo4e--><g id="cluster_bo4e"><path d="M587.5,6 L628.5,6 A3.75,3.75 0 0 1 631,8.5 L638,28.2969 L858.5,28.2969 A2.5,2.5 0 0 1 861,30.7969 L861,418.5 A2.5,2.5 0 0 1 858.5,421 L587.5,421 A2.5,2.5 0 0 1 585,418.5 L585,8.5 A2.5,2.5 0 0 1 587.5,6 " fill="none" style="stroke:#000000;stroke-width:1.5;"/><line style="stroke:#000000;stroke-width:1.5;" x1="585" x2="638" y1="28.2969" y2="28.2969"/><text fill="#000000" font-family="sans-serif" font-size="14" font-weight="bold" lengthAdjust="spacing" textLength="40" x="589" y="20.9951">bo4e</text></g><!--cluster bo--><g id="cluster_bo"><path d="M650,49 L716,49 A3.75,3.75 0 0 1 718.5,51.5 L725.5,71.2969 L796,71.2969 A2.5,2.5 0 0 1 798.5,73.7969 L798.5,208.5 A2.5,2.5 0 0 1 796,211 L650,211 A2.5,2.5 0 0 1 647.5,208.5 L647.5,51.5 A2.5,2.5 0 0 1 650,49 " fill="#B6D7A8" style="stroke:#000000;stroke-width:1.5;"/><line style="stroke:#000000;stroke-width:1.5;" x1="647.5" x2="725.5" y1="71.2969" y2="71.2969"/><a href="https://bo4e.github.io/BO4E-python/latest/api/bo4e.bo.html" target="_top" title="https://bo4e.github.io/BO4E-python/latest/api/bo4e.bo.html" xlink:actuate="onRequest" xlink:href="https://bo4e.github.io/BO4E-python/latest/api/bo4e.bo.html" xlink:show="new" xlink:title="https://bo4e.github.io/BO4E-python/latest/api/bo4e.bo.html" xlink:type="simple"><text fill="#0000FF" font-family="sans-serif" font-size="14" font-weight="bold" lengthAdjust="spacing" text-decoration="underline" textLength="65" x="651.5" y="63.9951">bo4e.bo</text></a></g><!--cluster enum--><g id="cluster_enum"><path d="M611.5,235 L701.5,235 A3.75,3.75 0 0 1 704,237.5 L711,257.2969 L834.5,257.2969 A2.5,2.5 0 0 1 837,259.7969 L837,394.5 A2.5,2.5 0 0 1 834.5,397 L611.5,397 A2.5,2.5 0 0 1 609,394.5 L609,237.5 A2.5,2.5 0 0 1 611.5,235 " fill="#D1C358" style="stroke:#000000;stroke-width:1.5;"/><line style="stroke:#000000;stroke-width:1.5;" x1="609" x2="711" y1="257.2969" y2="257.2969"/><a href="https://bo4e.github.io/BO4E-python/latest/api/bo4e.enum.html" target="_top" title="https://bo4e.github.io/BO4E-python/latest/api/bo4e.enum.html" xlink:actuate="onRequest" xlink:href="https://bo4e.github.io/BO4E-python/latest/api/bo4e.enum.html" xlink:show="new" xlink:title="https://bo4e.github.io/BO4E-python/latest/api/bo4e.enum.html" xlink:type="simple"><text fill="#0000FF" font-family="sans-serif" font-size="14" font-weight="bold" lengthAdjust="spacing" text-decoration="underline" textLength="89" x="613" y="249.9951">bo4e.enum</text></a></g><!--class Geraet--><g id="elem_Geraet"><rect codeLine="10" fill="#F1F1F1" height="37.9375" id="Geraet" rx="2.5" ry="2.5" style="stroke:#181818;stroke-width:0.5;" width="106" x="670" y="84.03"/><ellipse cx="685" cy="102.9987" fill="#ADD1B2" rx="11" ry="11" style="stroke:#181818;stroke-width:1.0;"/><path d="M687.9688,108.6394 Q687.3906,108.9362 686.75,109.0769 Q686.1094,109.2331 685.4063,109.2331 Q682.9063,109.2331 681.5781,107.5925 Q680.2656,105.9362 680.2656,102.8112 Q680.2656,99.6862 681.5781,98.03 Q682.9063,96.3737 685.4063,96.3737 Q686.1094,96.3737 686.75,96.53 Q687.4063,96.6862 687.9688,96.9831 L687.9688,99.7019 Q687.3438,99.1237 686.75,98.8581 Q686.1563,98.5769 685.5313,98.5769 Q684.1875,98.5769 683.5,99.655 Q682.8125,100.7175 682.8125,102.8112 Q682.8125,104.905 683.5,105.9831 Q684.1875,107.0456 685.5313,107.0456 Q686.1563,107.0456 686.75,106.78 Q687.3438,106.4987 687.9688,105.9206 L687.9688,108.6394 Z " fill="#000000"/><a href="https://bo4e.github.io/BO4E-python/latest/api/bo4e.bo.html#bo4e.bo.geraet.Geraet" target="_top" title="https://bo4e.github.io/BO4E-python/latest/api/bo4e.bo.html#bo4e.bo.geraet.Geraet" xlink:actuate="onRequest" xlink:href="https://bo4e.github.io/BO4E-python/latest/api/bo4e.bo.html#bo4e.bo.geraet.Geraet" xlink:show="new" xlink:title="https://bo4e.github.io/BO4E-python/latest/api/bo4e.bo.html#bo4e.bo.geraet.Geraet" xlink:type="simple"><text fill="#0000FF" font-family="sans-serif" font-size="14" lengthAdjust="spacing" text-decoration="underline" textLength="47" x="712.5" y="102.0251">Geraet</text></a><text fill="#000000" font-family="sans-serif" font-size="10" lengthAdjust="spacing" textLength="74" x="699" y="114.6091">bo4e.bo.geraet</text></g><!--class Preisblatt--><g id="elem_Preisblatt"><rect codeLine="11" fill="#F1F1F1" height="37.9375" id="Preisblatt" rx="2.5" ry="2.5" style="stroke:#181818;stroke-width:0.5;" width="119" x="663.5" y="157.03"/><ellipse cx="678.5" cy="175.9987" fill="#ADD1B2" rx="11" ry="11" style="stroke:#181818;stroke-width:1.0;"/><path d="M681.4688,181.6394 Q680.8906,181.9362 680.25,182.0769 Q679.6094,182.2331 678.9063,182.2331 Q676.4063,182.2331 675.0781,180.5925 Q673.7656,178.9362 673.7656,175.8112 Q673.7656,172.6862 675.0781,171.03 Q676.4063,169.3737 678.9063,169.3737 Q679.6094,169.3737 680.25,169.53 Q680.9063,169.6862 681.4688,169.9831 L681.4688,172.7019 Q680.8438,172.1237 680.25,171.8581 Q679.6563,171.5769 679.0313,171.5769 Q677.6875,171.5769 677,172.655 Q676.3125,173.7175 676.3125,175.8112 Q676.3125,177.905 677,178.9831 Q677.6875,180.0456 679.0313,180.0456 Q679.6563,180.0456 680.25,179.78 Q680.8438,179.4987 681.4688,178.9206 L681.4688,181.6394 Z " fill="#000000"/><a href="https://bo4e.github.io/BO4E-python/latest/api/bo4e.bo.html#bo4e.bo.preisblatt.Preisblatt" target="_top" title="https://bo4e.github.io/BO4E-python/latest/api/bo4e.bo.html#bo4e.bo.preisblatt.Preisblatt" xlink:actuate="onRequest" xlink:href="https://bo4e.github.io/BO4E-python/latest/api/bo4e.bo.html#bo4e.bo.preisblatt.Preisblatt" xlink:show="new" xlink:title="https://bo4e.github.io/BO4E-python/latest/api/bo4e.bo.html#bo4e.bo.preisblatt.Preisblatt" xlink:type="simple"><text fill="#0000FF" font-family="sans-serif" font-size="14" lengthAdjust="spacing" text-decoration="underline" textLength="64" x="704" y="175.0251">Preisblatt</text></a><text fill="#000000" font-family="sans-serif" font-size="10" lengthAdjust="spacing" textLength="87" x="692.5" y="187.6091">bo4e.bo.preisblatt</text></g><!--class Dienstleistungstyp--><g id="elem_Dienstleistungstyp"><rect codeLine="14" fill="#F1F1F1" height="37.9375" id="Dienstleistungstyp" rx="2.5" ry="2.5" style="stroke:#181818;stroke-width:0.5;" width="177" x="634.5" y="270.03"/><ellipse cx="649.5" cy="288.9988" fill="#ADD1B2" rx="11" ry="11" style="stroke:#181818;stroke-width:1.0;"/><path d="M652.4688,294.6394 Q651.8906,294.9363 651.25,295.0769 Q650.6094,295.2331 649.9063,295.2331 Q647.4063,295.2331 646.0781,293.5925 Q644.7656,291.9363 644.7656,288.8113 Q644.7656,285.6863 646.0781,284.03 Q647.4063,282.3738 649.9063,282.3738 Q650.6094,282.3738 651.25,282.53 Q651.9063,282.6863 652.4688,282.9831 L652.4688,285.7019 Q651.8438,285.1238 651.25,284.8581 Q650.6563,284.5769 650.0313,284.5769 Q648.6875,284.5769 648,285.655 Q647.3125,286.7175 647.3125,288.8113 Q647.3125,290.905 648,291.9831 Q648.6875,293.0456 650.0313,293.0456 Q650.6563,293.0456 651.25,292.78 Q651.8438,292.4988 652.4688,291.9206 L652.4688,294.6394 Z " fill="#000000"/><a href="https://bo4e.github.io/BO4E-python/latest/api/bo4e.enum.html#bo4e.enum.dienstleistungstyp.Dienstleistungstyp" target="_top" title="https://bo4e.github.io/BO4E-python/latest/api/bo4e.enum.html#bo4e.enum.dienstleistungstyp.Dienstleistungstyp" xlink:actuate="onRequest" xlink:href="https://bo4e.github.io/BO4E-python/latest/api/bo4e.enum.html#bo4e.enum.dienstleistungstyp.Dienstleistungstyp" xlink:show="new" xlink:title="https://bo4e.github.io/BO4E-python/latest/api/bo4e.enum.html#bo4e.enum.dienstleistungstyp.Dienstleistungstyp" xlink:type="simple"><text fill="#0000FF" font-family="sans-serif" font-size="14" lengthAdjust="spacing" text-decoration="underline" textLength="129" x="671.5" y="288.0251">Dienstleistungstyp</text></a><text fill="#000000" font-family="sans-serif" font-size="10" lengthAdjust="spacing" textLength="145" x="663.5" y="300.6091">bo4e.enum.dienstleistungstyp</text></g><!--class Bilanzierungsmethode--><g id="elem_Bilanzierungsmethode"><rect codeLine="15" fill="#F1F1F1" height="37.9375" id="Bilanzierungsmethode" rx="2.5" ry="2.5" style="stroke:#181818;stroke-width:0.5;" width="196" x="625" y="343.03"/><ellipse cx="640" cy="361.9988" fill="#ADD1B2" rx="11" ry="11" style="stroke:#181818;stroke-width:1.0;"/><path d="M642.9688,367.6394 Q642.3906,367.9363 641.75,368.0769 Q641.1094,368.2331 640.4063,368.2331 Q637.9063,368.2331 636.5781,366.5925 Q635.2656,364.9363 635.2656,361.8113 Q635.2656,358.6863 636.5781,357.03 Q637.9063,355.3738 640.4063,355.3738 Q641.1094,355.3738 641.75,355.53 Q642.4063,355.6863 642.9688,355.9831 L642.9688,358.7019 Q642.3438,358.1238 641.75,357.8581 Q641.1563,357.5769 640.5313,357.5769 Q639.1875,357.5769 638.5,358.655 Q637.8125,359.7175 637.8125,361.8113 Q637.8125,363.905 638.5,364.9831 Q639.1875,366.0456 640.5313,366.0456 Q641.1563,366.0456 641.75,365.78 Q642.3438,365.4988 642.9688,364.9206 L642.9688,367.6394 Z " fill="#000000"/><a href="https://bo4e.github.io/BO4E-python/latest/api/bo4e.enum.html#bo4e.enum.bilanzierungsmethode.Bilanzierungsmethode" target="_top" title="https://bo4e.github.io/BO4E-python/latest/api/bo4e.enum.html#bo4e.enum.bilanzierungsmethode.Bilanzierungsmethode" xlink:actuate="onRequest" xlink:href="https://bo4e.github.io/BO4E-python/latest/api/bo4e.enum.html#bo4e.enum.bilanzierungsmethode.Bilanzierungsmethode" xlink:show="new" xlink:title="https://bo4e.github.io/BO4E-python/latest/api/bo4e.enum.html#bo4e.enum.bilanzierungsmethode.Bilanzierungsmethode" xlink:type="simple"><text fill="#0000FF" font-family="sans-serif" font-size="14" lengthAdjust="spacing" text-decoration="underline" textLength="156" x="658" y="361.0251">Bilanzierungsmethode</text></a><text fill="#000000" font-family="sans-serif" font-size="10" lengthAdjust="spacing" textLength="164" x="654" y="373.6091">bo4e.enum.bilanzierungsmethode</text></g><!--class PreisblattDienstleistung--><g id="elem_PreisblattDienstleistung"><rect codeLine="3" fill="#F1F1F1" height="94.8281" id="PreisblattDienstleistung" rx="2.5" ry="2.5" style="stroke:#181818;stroke-width:0.5;" width="369" x="7" y="184.59"/><ellipse cx="105.25" cy="203.5588" fill="#ADD1B2" rx="11" ry="11" style="stroke:#181818;stroke-width:1.0;"/><path d="M108.2188,209.1994 Q107.6406,209.4963 107,209.6369 Q106.3594,209.7931 105.6563,209.7931 Q103.1563,209.7931 101.8281,208.1525 Q100.5156,206.4963 100.5156,203.3713 Q100.5156,200.2463 101.8281,198.59 Q103.1563,196.9338 105.6563,196.9338 Q106.3594,196.9338 107,197.09 Q107.6563,197.2463 108.2188,197.5431 L108.2188,200.2619 Q107.5938,199.6838 107,199.4181 Q106.4063,199.1369 105.7813,199.1369 Q104.4375,199.1369 103.75,200.215 Q103.0625,201.2775 103.0625,203.3713 Q103.0625,205.465 103.75,206.5431 Q104.4375,207.6056 105.7813,207.6056 Q106.4063,207.6056 107,207.34 Q107.5938,207.0588 108.2188,206.4806 L108.2188,209.1994 Z " fill="#000000"/><a href="https://bo4e.github.io/BO4E-python/latest/api/bo4e.bo.html#bo4e.bo.preisblattdienstleistung.PreisblattDienstleistung" target="_top" title="https://bo4e.github.io/BO4E-python/latest/api/bo4e.bo.html#bo4e.bo.preisblattdienstleistung.PreisblattDienstleistung" xlink:actuate="onRequest" xlink:href="https://bo4e.github.io/BO4E-python/latest/api/bo4e.bo.html#bo4e.bo.preisblattdienstleistung.PreisblattDienstleistung" xlink:show="new" xlink:title="https://bo4e.github.io/BO4E-python/latest/api/bo4e.bo.html#bo4e.bo.preisblattdienstleistung.PreisblattDienstleistung" xlink:type="simple"><text fill="#0000FF" font-family="sans-serif" font-size="14" lengthAdjust="spacing" text-decoration="underline" textLength="164" x="125.75" y="202.5851">PreisblattDienstleistung</text></a><text fill="#000000" font-family="sans-serif" font-size="10" lengthAdjust="spacing" textLength="153" x="131.25" y="215.1691">bo4e.bo.preisblattdienstleistung</text><line style="stroke:#181818;stroke-width:0.5;" x1="8" x2="375" y1="222.5275" y2="222.5275"/><text fill="#000000" font-family="sans-serif" font-size="14" lengthAdjust="spacing" textLength="357" x="13" y="239.5226">_version : str [0..1] = 202401.7.1.dev1+gcbc02070</text><text fill="#000000" font-family="sans-serif" font-size="14" lengthAdjust="spacing" textLength="311" x="13" y="255.8195">zusatzAttribute : ZusatzAttribut [0..*] = None</text><text fill="#000000" font-family="sans-serif" font-size="14" lengthAdjust="spacing" textLength="147" x="13" y="272.1164">_id : str [0..1] = None</text></g><!--link PreisblattDienstleistung to Preisblatt--><g id="link_PreisblattDienstleistung_Preisblatt"><path codeLine="18" d="M376.48,210.23 C386.46,209.12 396.35,208.04 406,207 C495.61,197.36 581.7386,189.0698 645.2186,183.1198 " fill="none" id="PreisblattDienstleistung-to-Preisblatt" style="stroke:#181818;stroke-width:1.0;"/><polygon fill="none" points="663.14,181.44,644.6586,177.146,645.7785,189.0936,663.14,181.44" style="stroke:#181818;stroke-width:1.0;"/></g><!--link PreisblattDienstleistung to Bilanzierungsmethode--><g id="link_PreisblattDienstleistung_Bilanzierungsmethode"><path codeLine="19" d="M283.22,279.8 C320.34,297.37 364.3,315.71 406,327 C477.79,346.44 549.5823,354.3789 612.8223,358.2389 " fill="none" id="PreisblattDienstleistung-to-Bilanzierungsmethode" style="stroke:#181818;stroke-width:1.0;"/><polygon fill="#181818" points="624.8,358.97,619.0548,354.6119,612.8223,358.2389,618.5674,362.597,624.8,358.97" style="stroke:#181818;stroke-width:1.0;"/><text fill="#000000" font-family="sans-serif" font-size="13" lengthAdjust="spacing" textLength="142" x="416.5" y="323.0669">bilanzierungsmethode</text><text fill="#000000" font-family="sans-serif" font-size="13" lengthAdjust="spacing" textLength="24" x="593.0516" y="371.3559">0..1</text></g><!--link PreisblattDienstleistung to Dienstleistungstyp--><g id="link_PreisblattDienstleistung_Dienstleistungstyp"><path codeLine="20" d="M376.39,250.53 C437.68,256.85 506.3,264.06 569,271 C590.13,273.34 600.9815,274.5637 622.3215,277.0637 " fill="none" id="PreisblattDienstleistung-to-Dienstleistungstyp" style="stroke:#181818;stroke-width:1.0;"/><polygon fill="#181818" points="634.24,278.46,628.7462,273.789,622.3215,277.0637,627.8153,281.7347,634.24,278.46" style="stroke:#181818;stroke-width:1.0;"/><text fill="#000000" font-family="sans-serif" font-size="13" lengthAdjust="spacing" textLength="122" x="426.5" y="251.0669">basisdienstleistung</text><text fill="#000000" font-family="sans-serif" font-size="13" lengthAdjust="spacing" textLength="24" x="602.5256" y="290.2993">0..1</text></g><!--link PreisblattDienstleistung to Dienstleistungstyp--><g id="link_PreisblattDienstleistung_Dienstleistungstyp"><path codeLine="21" d="M331,279.86 C355.7,286.56 381.4,292.39 406,296 C477.68,306.51 496.57,297.66 569,296 C590.13,295.52 600.9121,295.1993 622.2521,294.2393 " fill="none" id="PreisblattDienstleistung-to-Dienstleistungstyp-1" style="stroke:#181818;stroke-width:1.0;"/><polygon fill="#181818" points="634.24,293.7,628.0663,289.9737,622.2521,294.2393,628.4258,297.9656,634.24,293.7" style="stroke:#181818;stroke-width:1.0;"/><text fill="#000000" font-family="sans-serif" font-size="13" lengthAdjust="spacing" textLength="161" x="407" y="292.0669">inklusiveDienstleistungen</text><text fill="#000000" font-family="sans-serif" font-size="13" lengthAdjust="spacing" textLength="23" x="603.5638" y="306.7061">0..*</text></g><!--link PreisblattDienstleistung to Geraet--><g id="link_PreisblattDienstleistung_Geraet"><path codeLine="22" d="M366.24,184.12 C379.67,180.62 393.05,177.21 406,174 C498.37,151.09 594.9839,129.943 657.8139,116.543 " fill="none" id="PreisblattDienstleistung-to-Geraet" style="stroke:#181818;stroke-width:1.0;"/><polygon fill="#181818" points="669.55,114.04,662.8476,111.3795,657.8139,116.543,664.5163,119.2035,669.55,114.04" style="stroke:#181818;stroke-width:1.0;"/><text fill="#000000" font-family="sans-serif" font-size="13" lengthAdjust="spacing" textLength="92" x="441.5" y="134.0669">geraetedetails</text><text fill="#000000" font-family="sans-serif" font-size="13" lengthAdjust="spacing" textLength="24" x="637.9823" y="128.2584">0..1</text></g><!--SRC=[hLHDRvj043s7Np6oRwwyWElMaTL6YkMgjxRdkAXQO0AZmeBOmLNSzhzt0IU66E96zcarNs_dpPlT1EyPE8E2efWXf083fanPLf18hM6qsSJCkLxQjf_DKKJ4SUaBokpLr_cdQVx0SQRiH39gjcLEJPQVYPZJPFnev0MIzaqMXuHASs9CBbKalZq5rfq030Kyxxlwe6c7IzUvEGK_0ga7aU2tTVLZYuKsR649cWlOE4Au7do4cJEREwvO25U4k7NVH84VE3DduLXNkr9Btjqo5-INZARohkEfGIOLo9TCeRc2mkVeTU2lPIcPeivbWETD6VQ6vzLyznQCL-_NYzlhYkObfOomaCZYStr0S_IAqYJMBJLPb-tZe7bhYLfYdrYKPwjXv3XN3LHbsjAZCjkAL3QCGpTu- -viJPwk6X_CxkPhViZ5-iW5nwxZEGt0rLIEwo_FnAT4gXrXKTsGegaBKQnwdD3d7E3J1repwiEe7kVmrpIT_hbvV6Mjh1SgJCa4HjNp7nsMeP_I4lewVJLsZ_G6MMhINM7_1tXo4fZKpwJKjCLk5DLh-ZR3t7ygIsZ-3WoH9INQic8oeqanzSrtRUau-mN3mFU4IQZ_0G00]--></g></svg>