<?xml version="1.0" encoding="us-ascii" standalone="no"?><svg xmlns="http://www.w3.org/2000/svg" xmlns:xlink="http://www.w3.org/1999/xlink" contentStyleType="text/css" height="355px" preserveAspectRatio="none" style="width:794px;height:355px;background:#FFFFFF;" version="1.1" viewBox="0 0 794 355" width="794px" zoomAndPan="magnify"><defs/><g><!--cluster bo4e--><g id="cluster_bo4e"><path d="M539.5,6 L580.5,6 A3.75,3.75 0 0 1 583,8.5 L590,28.2969 L784.5,28.2969 A2.5,2.5 0 0 1 787,30.7969 L787,345.5 A2.5,2.5 0 0 1 784.5,348 L539.5,348 A2.5,2.5 0 0 1 537,345.5 L537,8.5 A2.5,2.5 0 0 1 539.5,6 " fill="none" style="stroke:#000000;stroke-width:1.5;"/><line style="stroke:#000000;stroke-width:1.5;" x1="537" x2="590" y1="28.2969" y2="28.2969"/><text fill="#000000" font-family="sans-serif" font-size="14" font-weight="bold" lengthAdjust="spacing" textLength="40" x="541" y="20.9951">bo4e</text></g><!--cluster bo--><g id="cluster_bo"><path d="M589,49 L655,49 A3.75,3.75 0 0 1 657.5,51.5 L664.5,71.2969 L735,71.2969 A2.5,2.5 0 0 1 737.5,73.7969 L737.5,135.5 A2.5,2.5 0 0 1 735,138 L589,138 A2.5,2.5 0 0 1 586.5,135.5 L586.5,51.5 A2.5,2.5 0 0 1 589,49 " fill="#B6D7A8" style="stroke:#000000;stroke-width:1.5;"/><line style="stroke:#000000;stroke-width:1.5;" x1="586.5" x2="664.5" y1="71.2969" y2="71.2969"/><a href="https://bo4e.github.io/BO4E-python/latest/api/bo4e.bo.html" target="_top" title="https://bo4e.github.io/BO4E-python/latest/api/bo4e.bo.html" xlink:actuate="onRequest" xlink:href="https://bo4e.github.io/BO4E-python/latest/api/bo4e.bo.html" xlink:show="new" xlink:title="https://bo4e.github.io/BO4E-python/latest/api/bo4e.bo.html" xlink:type="simple"><text fill="#0000FF" font-family="sans-serif" font-size="14" font-weight="bold" lengthAdjust="spacing" text-decoration="underline" textLength="65" x="590.5" y="63.9951">bo4e.bo</text></a></g><!--cluster enum--><g id="cluster_enum"><path d="M563.5,162 L653.5,162 A3.75,3.75 0 0 1 656,164.5 L663,184.2969 L760.5,184.2969 A2.5,2.5 0 0 1 763,186.7969 L763,321.5 A2.5,2.5 0 0 1 760.5,324 L563.5,324 A2.5,2.5 0 0 1 561,321.5 L561,164.5 A2.5,2.5 0 0 1 563.5,162 " fill="#D1C358" style="stroke:#000000;stroke-width:1.5;"/><line style="stroke:#000000;stroke-width:1.5;" x1="561" x2="663" y1="184.2969" y2="184.2969"/><a href="https://bo4e.github.io/BO4E-python/latest/api/bo4e.enum.html" target="_top" title="https://bo4e.github.io/BO4E-python/latest/api/bo4e.enum.html" xlink:actuate="onRequest" xlink:href="https://bo4e.github.io/BO4E-python/latest/api/bo4e.enum.html" xlink:show="new" xlink:title="https://bo4e.github.io/BO4E-python/latest/api/bo4e.enum.html" xlink:type="simple"><text fill="#0000FF" font-family="sans-serif" font-size="14" font-weight="bold" lengthAdjust="spacing" text-decoration="underline" textLength="89" x="565" y="176.9951">bo4e.enum</text></a></g><!--class Preisblatt--><g id="elem_Preisblatt"><rect codeLine="10" fill="#F1F1F1" height="37.9375" id="Preisblatt" rx="2.5" ry="2.5" style="stroke:#181818;stroke-width:0.5;" width="119" x="602.5" y="84.03"/><ellipse cx="617.5" cy="102.9987" fill="#ADD1B2" rx="11" ry="11" style="stroke:#181818;stroke-width:1.0;"/><path d="M620.4688,108.6394 Q619.8906,108.9362 619.25,109.0769 Q618.6094,109.2331 617.9063,109.2331 Q615.4063,109.2331 614.0781,107.5925 Q612.7656,105.9362 612.7656,102.8112 Q612.7656,99.6862 614.0781,98.03 Q615.4063,96.3737 617.9063,96.3737 Q618.6094,96.3737 619.25,96.53 Q619.9063,96.6862 620.4688,96.9831 L620.4688,99.7019 Q619.8438,99.1237 619.25,98.8581 Q618.6563,98.5769 618.0313,98.5769 Q616.6875,98.5769 616,99.655 Q615.3125,100.7175 615.3125,102.8112 Q615.3125,104.905 616,105.9831 Q616.6875,107.0456 618.0313,107.0456 Q618.6563,107.0456 619.25,106.78 Q619.8438,106.4987 620.4688,105.9206 L620.4688,108.6394 Z " fill="#000000"/><a href="https://bo4e.github.io/BO4E-python/latest/api/bo4e.bo.html#bo4e.bo.preisblatt.Preisblatt" target="_top" title="https://bo4e.github.io/BO4E-python/latest/api/bo4e.bo.html#bo4e.bo.preisblatt.Preisblatt" xlink:actuate="onRequest" xlink:href="https://bo4e.github.io/BO4E-python/latest/api/bo4e.bo.html#bo4e.bo.preisblatt.Preisblatt" xlink:show="new" xlink:title="https://bo4e.github.io/BO4E-python/latest/api/bo4e.bo.html#bo4e.bo.preisblatt.Preisblatt" xlink:type="simple"><text fill="#0000FF" font-family="sans-serif" font-size="14" lengthAdjust="spacing" text-decoration="underline" textLength="64" x="643" y="102.0251">Preisblatt</text></a><text fill="#000000" font-family="sans-serif" font-size="10" lengthAdjust="spacing" textLength="87" x="631.5" y="114.6091">bo4e.bo.preisblatt</text></g><!--class Typ--><g id="elem_Typ"><rect codeLine="13" fill="#F1F1F1" height="37.9375" id="Typ" rx="2.5" ry="2.5" style="stroke:#181818;stroke-width:0.5;" width="106" x="609" y="197.03"/><ellipse cx="624" cy="215.9988" fill="#ADD1B2" rx="11" ry="11" style="stroke:#181818;stroke-width:1.0;"/><path d="M626.9688,221.6394 Q626.3906,221.9363 625.75,222.0769 Q625.1094,222.2331 624.4063,222.2331 Q621.9063,222.2331 620.5781,220.5925 Q619.2656,218.9363 619.2656,215.8113 Q619.2656,212.6863 620.5781,211.03 Q621.9063,209.3738 624.4063,209.3738 Q625.1094,209.3738 625.75,209.53 Q626.4063,209.6863 626.9688,209.9831 L626.9688,212.7019 Q626.3438,212.1238 625.75,211.8581 Q625.1563,211.5769 624.5313,211.5769 Q623.1875,211.5769 622.5,212.655 Q621.8125,213.7175 621.8125,215.8113 Q621.8125,217.905 622.5,218.9831 Q623.1875,220.0456 624.5313,220.0456 Q625.1563,220.0456 625.75,219.78 Q626.3438,219.4988 626.9688,218.9206 L626.9688,221.6394 Z " fill="#000000"/><a href="https://bo4e.github.io/BO4E-python/latest/api/bo4e.enum.html#bo4e.enum.typ.Typ" target="_top" title="https://bo4e.github.io/BO4E-python/latest/api/bo4e.enum.html#bo4e.enum.typ.Typ" xlink:actuate="onRequest" xlink:href="https://bo4e.github.io/BO4E-python/latest/api/bo4e.enum.html#bo4e.enum.typ.Typ" xlink:show="new" xlink:title="https://bo4e.github.io/BO4E-python/latest/api/bo4e.enum.html#bo4e.enum.typ.Typ" xlink:type="simple"><text fill="#0000FF" font-family="sans-serif" font-size="14" lengthAdjust="spacing" text-decoration="underline" textLength="25" x="662.5" y="215.0251">Typ</text></a><text fill="#000000" font-family="sans-serif" font-size="10" lengthAdjust="spacing" textLength="74" x="638" y="227.6091">bo4e.enum.typ</text></g><!--class KundengruppeKA--><g id="elem_KundengruppeKA"><rect codeLine="14" fill="#F1F1F1" height="37.9375" id="KundengruppeKA" rx="2.5" ry="2.5" style="stroke:#181818;stroke-width:0.5;" width="170" x="577" y="270.03"/><ellipse cx="592" cy="288.9988" fill="#ADD1B2" rx="11" ry="11" style="stroke:#181818;stroke-width:1.0;"/><path d="M594.9688,294.6394 Q594.3906,294.9363 593.75,295.0769 Q593.1094,295.2331 592.4063,295.2331 Q589.9063,295.2331 588.5781,293.5925 Q587.2656,291.9363 587.2656,288.8113 Q587.2656,285.6863 588.5781,284.03 Q589.9063,282.3738 592.4063,282.3738 Q593.1094,282.3738 593.75,282.53 Q594.4063,282.6863 594.9688,282.9831 L594.9688,285.7019 Q594.3438,285.1238 593.75,284.8581 Q593.1563,284.5769 592.5313,284.5769 Q591.1875,284.5769 590.5,285.655 Q589.8125,286.7175 589.8125,288.8113 Q589.8125,290.905 590.5,291.9831 Q591.1875,293.0456 592.5313,293.0456 Q593.1563,293.0456 593.75,292.78 Q594.3438,292.4988 594.9688,291.9206 L594.9688,294.6394 Z " fill="#000000"/><a href="https://bo4e.github.io/BO4E-python/latest/api/bo4e.enum.html#bo4e.enum.kundengruppeka.KundengruppeKA" target="_top" title="https://bo4e.github.io/BO4E-python/latest/api/bo4e.enum.html#bo4e.enum.kundengruppeka.KundengruppeKA" xlink:actuate="onRequest" xlink:href="https://bo4e.github.io/BO4E-python/latest/api/bo4e.enum.html#bo4e.enum.kundengruppeka.KundengruppeKA" xlink:show="new" xlink:title="https://bo4e.github.io/BO4E-python/latest/api/bo4e.enum.html#bo4e.enum.kundengruppeka.KundengruppeKA" xlink:type="simple"><text fill="#0000FF" font-family="sans-serif" font-size="14" lengthAdjust="spacing" text-decoration="underline" textLength="122" x="614" y="288.0251">KundengruppeKA</text></a><text fill="#000000" font-family="sans-serif" font-size="10" lengthAdjust="spacing" textLength="138" x="606" y="300.6091">bo4e.enum.kundengruppeka</text></g><!--class PreisblattKonzessionsabgabe--><g id="elem_PreisblattKonzessionsabgabe"><rect codeLine="3" fill="#F1F1F1" height="94.8281" id="PreisblattKonzessionsabgabe" rx="2.5" ry="2.5" style="stroke:#181818;stroke-width:0.5;" width="373" x="7" y="168.59"/><ellipse cx="86.75" cy="187.5588" fill="#ADD1B2" rx="11" ry="11" style="stroke:#181818;stroke-width:1.0;"/><path d="M89.7188,193.1994 Q89.1406,193.4963 88.5,193.6369 Q87.8594,193.7931 87.1563,193.7931 Q84.6563,193.7931 83.3281,192.1525 Q82.0156,190.4963 82.0156,187.3713 Q82.0156,184.2463 83.3281,182.59 Q84.6563,180.9338 87.1563,180.9338 Q87.8594,180.9338 88.5,181.09 Q89.1563,181.2463 89.7188,181.5431 L89.7188,184.2619 Q89.0938,183.6838 88.5,183.4181 Q87.9063,183.1369 87.2813,183.1369 Q85.9375,183.1369 85.25,184.215 Q84.5625,185.2775 84.5625,187.3713 Q84.5625,189.465 85.25,190.5431 Q85.9375,191.6056 87.2813,191.6056 Q87.9063,191.6056 88.5,191.34 Q89.0938,191.0588 89.7188,190.4806 L89.7188,193.1994 Z " fill="#000000"/><a href="https://bo4e.github.io/BO4E-python/latest/api/bo4e.bo.html#bo4e.bo.preisblattkonzessionsabgabe.PreisblattKonzessionsabgabe" target="_top" title="https://bo4e.github.io/BO4E-python/latest/api/bo4e.bo.html#bo4e.bo.preisblattkonzessionsabgabe.PreisblattKonzessionsabgabe" xlink:actuate="onRequest" xlink:href="https://bo4e.github.io/BO4E-python/latest/api/bo4e.bo.html#bo4e.bo.preisblattkonzessionsabgabe.PreisblattKonzessionsabgabe" xlink:show="new" xlink:title="https://bo4e.github.io/BO4E-python/latest/api/bo4e.bo.html#bo4e.bo.preisblattkonzessionsabgabe.PreisblattKonzessionsabgabe" xlink:type="simple"><text fill="#0000FF" font-family="sans-serif" font-size="14" lengthAdjust="spacing" text-decoration="underline" textLength="205" x="107.25" y="186.5851">PreisblattKonzessionsabgabe</text></a><text fill="#000000" font-family="sans-serif" font-size="10" lengthAdjust="spacing" textLength="180" x="119.75" y="199.1691">bo4e.bo.preisblattkonzessionsabgabe</text><line style="stroke:#181818;stroke-width:0.5;" x1="8" x2="379" y1="206.5275" y2="206.5275"/><text fill="#000000" font-family="sans-serif" font-size="14" lengthAdjust="spacing" textLength="361" x="13" y="223.5226">_version : str [0..1] = 202401.4.1.dev20+gd08cd9fa</text><text fill="#000000" font-family="sans-serif" font-size="14" lengthAdjust="spacing" textLength="311" x="13" y="239.8195">zusatzAttribute : ZusatzAttribut [0..*] = None</text><text fill="#000000" font-family="sans-serif" font-size="14" lengthAdjust="spacing" textLength="147" x="13" y="256.1164">_id : str [0..1] = None</text></g><!--link PreisblattKonzessionsabgabe to Preisblatt--><g id="link_PreisblattKonzessionsabgabe_Preisblatt"><path codeLine="17" d="M380.21,171.01 C459.49,151.81 528.9158,134.9972 584.7358,121.4772 " fill="none" id="PreisblattKonzessionsabgabe-to-Preisblatt" style="stroke:#181818;stroke-width:1.0;"/><polygon fill="none" points="602.23,117.24,583.3234,115.6458,586.1482,127.3086,602.23,117.24" style="stroke:#181818;stroke-width:1.0;"/></g><!--link PreisblattKonzessionsabgabe to Typ--><g id="link_PreisblattKonzessionsabgabe_Typ"><path codeLine="18" d="M380.21,216 C462.54,216 541.11,216 596.53,216 " fill="none" id="PreisblattKonzessionsabgabe-to-Typ" style="stroke:#181818;stroke-width:1.0;"/><polygon fill="#181818" points="608.53,216,602.53,212,596.53,216,602.53,220,608.53,216" style="stroke:#181818;stroke-width:1.0;"/><text fill="#000000" font-family="sans-serif" font-size="13" lengthAdjust="spacing" textLength="27" x="452" y="212.0669">_typ</text><text fill="#000000" font-family="sans-serif" font-size="13" lengthAdjust="spacing" textLength="24" x="576.96" y="228.9419">0..1</text></g><!--link PreisblattKonzessionsabgabe to KundengruppeKA--><g id="link_PreisblattKonzessionsabgabe_KundengruppeKA"><path codeLine="19" d="M380.21,245.06 C448.18,255.7 509.9145,265.3535 564.7045,273.9335 " fill="none" id="PreisblattKonzessionsabgabe-to-KundengruppeKA" style="stroke:#181818;stroke-width:1.0;"/><polygon fill="#181818" points="576.56,275.79,571.2511,270.9099,564.7045,273.9335,570.0134,278.8136,576.56,275.79" style="stroke:#181818;stroke-width:1.0;"/><text fill="#000000" font-family="sans-serif" font-size="13" lengthAdjust="spacing" textLength="109" x="411" y="247.0669">kundengruppeKA</text><text fill="#000000" font-family="sans-serif" font-size="13" lengthAdjust="spacing" textLength="24" x="545.0998" y="287.4249">0..1</text></g><!--SRC=[jLDDJzj043tZNp5ARbHPssbQm6gHWiefKjj3JwGMMdidzYhsxiex1YN0V-_Q4B23wbQaFUpXxNoycJSp1Qu8I4Cbivn0o0fJabfvNbfmQs6qNEP4naQ-d-WPianINYTCQl_Ys-noOZQKQ-KNdD2Ipuryz4eqowainZjWAfGsSLwqrcgBrZe6ovEC9yY-FziM-pOOiCNnJ_N9oYr6ON3-5pmZu7Oe7znvHzStM3LV486b2fO1Os4Cds4QJ6T1o6OiP09lfi6xJ0IdgJXRSUzeMrjEspbH9PEQq8LUzNxQBCTDbgzQeUEGOZzzQtZmFCLBj8QdU9Zgy0JYkEtv2S7uukENa_bfq-V_6MrdaXsX_p2dlR4u6GvL0LLTTdHeO5U91iDOXEdx3mThyKmrVe6qCUp7ne1xhrlVURJbE8z_Jx-kbK2LLRKnkEPiqO6BEVJXR-hhfsXBxSSrkpfujfF9_VbkxpgEmq4kwXX6pKsCNYRLIXd1jTFiBT5xxKUmxZVYvL8Wb5Wcxl0zc-jR66HPIIo4_GK0]--></g></svg>