<?xml version="1.0" encoding="us-ascii" standalone="no"?><svg xmlns="http://www.w3.org/2000/svg" xmlns:xlink="http://www.w3.org/1999/xlink" contentStyleType="text/css" height="428px" preserveAspectRatio="none" style="width:849px;height:428px;background:#FFFFFF;" version="1.1" viewBox="0 0 849 428" width="849px" zoomAndPan="magnify"><defs/><g><!--cluster bo4e--><g id="cluster_bo4e"><path d="M568.5,6 L609.5,6 A3.75,3.75 0 0 1 612,8.5 L619,28.2969 L839.5,28.2969 A2.5,2.5 0 0 1 842,30.7969 L842,418.5 A2.5,2.5 0 0 1 839.5,421 L568.5,421 A2.5,2.5 0 0 1 566,418.5 L566,8.5 A2.5,2.5 0 0 1 568.5,6 " fill="none" style="stroke:#000000;stroke-width:1.5;"/><line style="stroke:#000000;stroke-width:1.5;" x1="566" x2="619" y1="28.2969" y2="28.2969"/><text fill="#000000" font-family="sans-serif" font-size="14" font-weight="bold" lengthAdjust="spacing" textLength="40" x="570" y="20.9951">bo4e</text></g><!--cluster bo--><g id="cluster_bo"><path d="M631,49 L697,49 A3.75,3.75 0 0 1 699.5,51.5 L706.5,71.2969 L777,71.2969 A2.5,2.5 0 0 1 779.5,73.7969 L779.5,135.5 A2.5,2.5 0 0 1 777,138 L631,138 A2.5,2.5 0 0 1 628.5,135.5 L628.5,51.5 A2.5,2.5 0 0 1 631,49 " fill="#B6D7A8" style="stroke:#000000;stroke-width:1.5;"/><line style="stroke:#000000;stroke-width:1.5;" x1="628.5" x2="706.5" y1="71.2969" y2="71.2969"/><a href="https://bo4e.github.io/BO4E-python/latest/api/bo4e.bo.html" target="_top" title="https://bo4e.github.io/BO4E-python/latest/api/bo4e.bo.html" xlink:actuate="onRequest" xlink:href="https://bo4e.github.io/BO4E-python/latest/api/bo4e.bo.html" xlink:show="new" xlink:title="https://bo4e.github.io/BO4E-python/latest/api/bo4e.bo.html" xlink:type="simple"><text fill="#0000FF" font-family="sans-serif" font-size="14" font-weight="bold" lengthAdjust="spacing" text-decoration="underline" textLength="65" x="632.5" y="63.9951">bo4e.bo</text></a></g><!--cluster enum--><g id="cluster_enum"><path d="M592.5,162 L682.5,162 A3.75,3.75 0 0 1 685,164.5 L692,184.2969 L815.5,184.2969 A2.5,2.5 0 0 1 818,186.7969 L818,394.5 A2.5,2.5 0 0 1 815.5,397 L592.5,397 A2.5,2.5 0 0 1 590,394.5 L590,164.5 A2.5,2.5 0 0 1 592.5,162 " fill="#D1C358" style="stroke:#000000;stroke-width:1.5;"/><line style="stroke:#000000;stroke-width:1.5;" x1="590" x2="692" y1="184.2969" y2="184.2969"/><a href="https://bo4e.github.io/BO4E-python/latest/api/bo4e.enum.html" target="_top" title="https://bo4e.github.io/BO4E-python/latest/api/bo4e.enum.html" xlink:actuate="onRequest" xlink:href="https://bo4e.github.io/BO4E-python/latest/api/bo4e.enum.html" xlink:show="new" xlink:title="https://bo4e.github.io/BO4E-python/latest/api/bo4e.enum.html" xlink:type="simple"><text fill="#0000FF" font-family="sans-serif" font-size="14" font-weight="bold" lengthAdjust="spacing" text-decoration="underline" textLength="89" x="594" y="176.9951">bo4e.enum</text></a></g><!--class Preisblatt--><g id="elem_Preisblatt"><rect codeLine="10" fill="#F1F1F1" height="37.9375" id="Preisblatt" rx="2.5" ry="2.5" style="stroke:#181818;stroke-width:0.5;" width="119" x="644.5" y="84.03"/><ellipse cx="659.5" cy="102.9987" fill="#ADD1B2" rx="11" ry="11" style="stroke:#181818;stroke-width:1.0;"/><path d="M662.4688,108.6394 Q661.8906,108.9362 661.25,109.0769 Q660.6094,109.2331 659.9063,109.2331 Q657.4063,109.2331 656.0781,107.5925 Q654.7656,105.9362 654.7656,102.8112 Q654.7656,99.6862 656.0781,98.03 Q657.4063,96.3737 659.9063,96.3737 Q660.6094,96.3737 661.25,96.53 Q661.9063,96.6862 662.4688,96.9831 L662.4688,99.7019 Q661.8438,99.1237 661.25,98.8581 Q660.6563,98.5769 660.0313,98.5769 Q658.6875,98.5769 658,99.655 Q657.3125,100.7175 657.3125,102.8112 Q657.3125,104.905 658,105.9831 Q658.6875,107.0456 660.0313,107.0456 Q660.6563,107.0456 661.25,106.78 Q661.8438,106.4987 662.4688,105.9206 L662.4688,108.6394 Z " fill="#000000"/><a href="https://bo4e.github.io/BO4E-python/latest/api/bo4e.bo.html#bo4e.bo.preisblatt.Preisblatt" target="_top" title="https://bo4e.github.io/BO4E-python/latest/api/bo4e.bo.html#bo4e.bo.preisblatt.Preisblatt" xlink:actuate="onRequest" xlink:href="https://bo4e.github.io/BO4E-python/latest/api/bo4e.bo.html#bo4e.bo.preisblatt.Preisblatt" xlink:show="new" xlink:title="https://bo4e.github.io/BO4E-python/latest/api/bo4e.bo.html#bo4e.bo.preisblatt.Preisblatt" xlink:type="simple"><text fill="#0000FF" font-family="sans-serif" font-size="14" lengthAdjust="spacing" text-decoration="underline" textLength="64" x="685" y="102.0251">Preisblatt</text></a><text fill="#000000" font-family="sans-serif" font-size="10" lengthAdjust="spacing" textLength="87" x="673.5" y="114.6091">bo4e.bo.preisblatt</text></g><!--class Bilanzierungsmethode--><g id="elem_Bilanzierungsmethode"><rect codeLine="13" fill="#F1F1F1" height="37.9375" id="Bilanzierungsmethode" rx="2.5" ry="2.5" style="stroke:#181818;stroke-width:0.5;" width="196" x="606" y="197.03"/><ellipse cx="621" cy="215.9988" fill="#ADD1B2" rx="11" ry="11" style="stroke:#181818;stroke-width:1.0;"/><path d="M623.9688,221.6394 Q623.3906,221.9363 622.75,222.0769 Q622.1094,222.2331 621.4063,222.2331 Q618.9063,222.2331 617.5781,220.5925 Q616.2656,218.9363 616.2656,215.8113 Q616.2656,212.6863 617.5781,211.03 Q618.9063,209.3738 621.4063,209.3738 Q622.1094,209.3738 622.75,209.53 Q623.4063,209.6863 623.9688,209.9831 L623.9688,212.7019 Q623.3438,212.1238 622.75,211.8581 Q622.1563,211.5769 621.5313,211.5769 Q620.1875,211.5769 619.5,212.655 Q618.8125,213.7175 618.8125,215.8113 Q618.8125,217.905 619.5,218.9831 Q620.1875,220.0456 621.5313,220.0456 Q622.1563,220.0456 622.75,219.78 Q623.3438,219.4988 623.9688,218.9206 L623.9688,221.6394 Z " fill="#000000"/><a href="https://bo4e.github.io/BO4E-python/latest/api/bo4e.enum.html#bo4e.enum.bilanzierungsmethode.Bilanzierungsmethode" target="_top" title="https://bo4e.github.io/BO4E-python/latest/api/bo4e.enum.html#bo4e.enum.bilanzierungsmethode.Bilanzierungsmethode" xlink:actuate="onRequest" xlink:href="https://bo4e.github.io/BO4E-python/latest/api/bo4e.enum.html#bo4e.enum.bilanzierungsmethode.Bilanzierungsmethode" xlink:show="new" xlink:title="https://bo4e.github.io/BO4E-python/latest/api/bo4e.enum.html#bo4e.enum.bilanzierungsmethode.Bilanzierungsmethode" xlink:type="simple"><text fill="#0000FF" font-family="sans-serif" font-size="14" lengthAdjust="spacing" text-decoration="underline" textLength="156" x="639" y="215.0251">Bilanzierungsmethode</text></a><text fill="#000000" font-family="sans-serif" font-size="10" lengthAdjust="spacing" textLength="164" x="635" y="227.6091">bo4e.enum.bilanzierungsmethode</text></g><!--class Kundengruppe--><g id="elem_Kundengruppe"><rect codeLine="14" fill="#F1F1F1" height="37.9375" id="Kundengruppe" rx="2.5" ry="2.5" style="stroke:#181818;stroke-width:0.5;" width="159" x="624.5" y="270.03"/><ellipse cx="639.5" cy="288.9988" fill="#ADD1B2" rx="11" ry="11" style="stroke:#181818;stroke-width:1.0;"/><path d="M642.4688,294.6394 Q641.8906,294.9363 641.25,295.0769 Q640.6094,295.2331 639.9063,295.2331 Q637.4063,295.2331 636.0781,293.5925 Q634.7656,291.9363 634.7656,288.8113 Q634.7656,285.6863 636.0781,284.03 Q637.4063,282.3738 639.9063,282.3738 Q640.6094,282.3738 641.25,282.53 Q641.9063,282.6863 642.4688,282.9831 L642.4688,285.7019 Q641.8438,285.1238 641.25,284.8581 Q640.6563,284.5769 640.0313,284.5769 Q638.6875,284.5769 638,285.655 Q637.3125,286.7175 637.3125,288.8113 Q637.3125,290.905 638,291.9831 Q638.6875,293.0456 640.0313,293.0456 Q640.6563,293.0456 641.25,292.78 Q641.8438,292.4988 642.4688,291.9206 L642.4688,294.6394 Z " fill="#000000"/><a href="https://bo4e.github.io/BO4E-python/latest/api/bo4e.enum.html#bo4e.enum.kundengruppe.Kundengruppe" target="_top" title="https://bo4e.github.io/BO4E-python/latest/api/bo4e.enum.html#bo4e.enum.kundengruppe.Kundengruppe" xlink:actuate="onRequest" xlink:href="https://bo4e.github.io/BO4E-python/latest/api/bo4e.enum.html#bo4e.enum.kundengruppe.Kundengruppe" xlink:show="new" xlink:title="https://bo4e.github.io/BO4E-python/latest/api/bo4e.enum.html#bo4e.enum.kundengruppe.Kundengruppe" xlink:type="simple"><text fill="#0000FF" font-family="sans-serif" font-size="14" lengthAdjust="spacing" text-decoration="underline" textLength="104" x="665" y="288.0251">Kundengruppe</text></a><text fill="#000000" font-family="sans-serif" font-size="10" lengthAdjust="spacing" textLength="127" x="653.5" y="300.6091">bo4e.enum.kundengruppe</text></g><!--class Netzebene--><g id="elem_Netzebene"><rect codeLine="15" fill="#F1F1F1" height="37.9375" id="Netzebene" rx="2.5" ry="2.5" style="stroke:#181818;stroke-width:0.5;" width="141" x="633.5" y="343.03"/><ellipse cx="648.5" cy="361.9988" fill="#ADD1B2" rx="11" ry="11" style="stroke:#181818;stroke-width:1.0;"/><path d="M651.4688,367.6394 Q650.8906,367.9363 650.25,368.0769 Q649.6094,368.2331 648.9063,368.2331 Q646.4063,368.2331 645.0781,366.5925 Q643.7656,364.9363 643.7656,361.8113 Q643.7656,358.6863 645.0781,357.03 Q646.4063,355.3738 648.9063,355.3738 Q649.6094,355.3738 650.25,355.53 Q650.9063,355.6863 651.4688,355.9831 L651.4688,358.7019 Q650.8438,358.1238 650.25,357.8581 Q649.6563,357.5769 649.0313,357.5769 Q647.6875,357.5769 647,358.655 Q646.3125,359.7175 646.3125,361.8113 Q646.3125,363.905 647,364.9831 Q647.6875,366.0456 649.0313,366.0456 Q649.6563,366.0456 650.25,365.78 Q650.8438,365.4988 651.4688,364.9206 L651.4688,367.6394 Z " fill="#000000"/><a href="https://bo4e.github.io/BO4E-python/latest/api/bo4e.enum.html#bo4e.enum.netzebene.Netzebene" target="_top" title="https://bo4e.github.io/BO4E-python/latest/api/bo4e.enum.html#bo4e.enum.netzebene.Netzebene" xlink:actuate="onRequest" xlink:href="https://bo4e.github.io/BO4E-python/latest/api/bo4e.enum.html#bo4e.enum.netzebene.Netzebene" xlink:show="new" xlink:title="https://bo4e.github.io/BO4E-python/latest/api/bo4e.enum.html#bo4e.enum.netzebene.Netzebene" xlink:type="simple"><text fill="#0000FF" font-family="sans-serif" font-size="14" lengthAdjust="spacing" text-decoration="underline" textLength="77" x="678.5" y="361.0251">Netzebene</text></a><text fill="#000000" font-family="sans-serif" font-size="10" lengthAdjust="spacing" textLength="109" x="662.5" y="373.6091">bo4e.enum.netzebene</text></g><!--class PreisblattNetznutzung--><g id="elem_PreisblattNetznutzung"><rect codeLine="3" fill="#F1F1F1" height="94.8281" id="PreisblattNetznutzung" rx="2.5" ry="2.5" style="stroke:#181818;stroke-width:0.5;" width="369" x="7" y="209.59"/><ellipse cx="110.25" cy="228.5588" fill="#ADD1B2" rx="11" ry="11" style="stroke:#181818;stroke-width:1.0;"/><path d="M113.2188,234.1994 Q112.6406,234.4963 112,234.6369 Q111.3594,234.7931 110.6563,234.7931 Q108.1563,234.7931 106.8281,233.1525 Q105.5156,231.4963 105.5156,228.3713 Q105.5156,225.2463 106.8281,223.59 Q108.1563,221.9338 110.6563,221.9338 Q111.3594,221.9338 112,222.09 Q112.6563,222.2463 113.2188,222.5431 L113.2188,225.2619 Q112.5938,224.6838 112,224.4181 Q111.4063,224.1369 110.7813,224.1369 Q109.4375,224.1369 108.75,225.215 Q108.0625,226.2775 108.0625,228.3713 Q108.0625,230.465 108.75,231.5431 Q109.4375,232.6056 110.7813,232.6056 Q111.4063,232.6056 112,232.34 Q112.5938,232.0588 113.2188,231.4806 L113.2188,234.1994 Z " fill="#000000"/><a href="https://bo4e.github.io/BO4E-python/latest/api/bo4e.bo.html#bo4e.bo.preisblattnetznutzung.PreisblattNetznutzung" target="_top" title="https://bo4e.github.io/BO4E-python/latest/api/bo4e.bo.html#bo4e.bo.preisblattnetznutzung.PreisblattNetznutzung" xlink:actuate="onRequest" xlink:href="https://bo4e.github.io/BO4E-python/latest/api/bo4e.bo.html#bo4e.bo.preisblattnetznutzung.PreisblattNetznutzung" xlink:show="new" xlink:title="https://bo4e.github.io/BO4E-python/latest/api/bo4e.bo.html#bo4e.bo.preisblattnetznutzung.PreisblattNetznutzung" xlink:type="simple"><text fill="#0000FF" font-family="sans-serif" font-size="14" lengthAdjust="spacing" text-decoration="underline" textLength="154" x="130.75" y="227.5851">PreisblattNetznutzung</text></a><text fill="#000000" font-family="sans-serif" font-size="10" lengthAdjust="spacing" textLength="147" x="134.25" y="240.1691">bo4e.bo.preisblattnetznutzung</text><line style="stroke:#181818;stroke-width:0.5;" x1="8" x2="375" y1="247.5275" y2="247.5275"/><text fill="#000000" font-family="sans-serif" font-size="14" lengthAdjust="spacing" textLength="357" x="13" y="264.5226">_version : str [0..1] = 202401.6.1.dev7+gce8ae722</text><text fill="#000000" font-family="sans-serif" font-size="14" lengthAdjust="spacing" textLength="311" x="13" y="280.8195">zusatzAttribute : ZusatzAttribut [0..*] = None</text><text fill="#000000" font-family="sans-serif" font-size="14" lengthAdjust="spacing" textLength="147" x="13" y="297.1164">_id : str [0..1] = None</text></g><!--link PreisblattNetznutzung to Preisblatt--><g id="link_PreisblattNetznutzung_Preisblatt"><path codeLine="18" d="M351.23,209.12 C450.74,179.1 555.9766,147.3472 627.0366,125.9172 " fill="none" id="PreisblattNetznutzung-to-Preisblatt" style="stroke:#181818;stroke-width:1.0;"/><polygon fill="none" points="644.27,120.72,625.3042,120.1727,628.769,131.6616,644.27,120.72" style="stroke:#181818;stroke-width:1.0;"/></g><!--link PreisblattNetznutzung to Bilanzierungsmethode--><g id="link_PreisblattNetznutzung_Bilanzierungsmethode"><path codeLine="19" d="M376.44,242.23 C453.87,236.01 528.8584,229.9795 593.5584,224.7895 " fill="none" id="PreisblattNetznutzung-to-Bilanzierungsmethode" style="stroke:#181818;stroke-width:1.0;"/><polygon fill="#181818" points="605.52,223.83,599.2194,220.3226,593.5584,224.7895,599.859,228.2969,605.52,223.83" style="stroke:#181818;stroke-width:1.0;"/><text fill="#000000" font-family="sans-serif" font-size="13" lengthAdjust="spacing" textLength="142" x="407" y="226.0669">bilanzierungsmethode</text><text fill="#000000" font-family="sans-serif" font-size="13" lengthAdjust="spacing" textLength="24" x="574.0971" y="236.9314">0..1</text></g><!--link PreisblattNetznutzung to Netzebene--><g id="link_PreisblattNetznutzung_Netzebene"><path codeLine="20" d="M373.95,304.87 C384.77,307.37 395.52,309.77 406,312 C483.23,328.42 560.8137,341.0739 621.2037,350.1639 " fill="none" id="PreisblattNetznutzung-to-Netzebene" style="stroke:#181818;stroke-width:1.0;"/><polygon fill="#181818" points="633.07,351.95,627.7322,347.1015,621.2037,350.1639,626.5415,355.0124,633.07,351.95" style="stroke:#181818;stroke-width:1.0;"/><text fill="#000000" font-family="sans-serif" font-size="13" lengthAdjust="spacing" textLength="68" x="444" y="308.0669">netzebene</text><text fill="#000000" font-family="sans-serif" font-size="13" lengthAdjust="spacing" textLength="24" x="601.4249" y="363.7881">0..1</text></g><!--link PreisblattNetznutzung to Kundengruppe--><g id="link_PreisblattNetznutzung_Kundengruppe"><path codeLine="21" d="M376.42,277.72 C386.42,278.57 396.33,279.33 406,280 C479.85,285.09 552.2315,287.1077 612.1315,288.0677 " fill="none" id="PreisblattNetznutzung-to-Kundengruppe" style="stroke:#181818;stroke-width:1.0;"/><polygon fill="#181818" points="624.13,288.26,618.1949,284.1644,612.1315,288.0677,618.0667,292.1633,624.13,288.26" style="stroke:#181818;stroke-width:1.0;"/><text fill="#000000" font-family="sans-serif" font-size="13" lengthAdjust="spacing" textLength="92" x="432" y="276.0669">kundengruppe</text><text fill="#000000" font-family="sans-serif" font-size="13" lengthAdjust="spacing" textLength="24" x="592.522" y="300.8923">0..1</text></g><!--SRC=[jLHHJwD047vsVyMaVVFIfTHg3RapiT4dathFLc8M664ZB8GTDABttsz1IrSFpfZgstx3pBVpVRD3YhS4b4CfuuGWaYM697F5M9WAhM6qNYT4XVOS9yZdo6D9IHLmcJlBo_dvf7Ya95TEAWWrEQAGBrb1pXFAql4652LA7PWiKaYrggYkLCn_Tz7LDWgzKT-_LZ-rhD5pfoV_PHs1qFqSyCJsRkwnr4OUUA2fXFMKSzU7Np2RpkPJbnznbqTul_WHXtWiS36RiRswqeBgKw9I1XMXgRnw4sb9zXkILQxGN26Zz-pjXp-CAP6XBaI8kzaAhy3tMx6l2CRBexF5wN4ZytjcPmtCSlY3qRoRXx5XLnTGLPdbGmDj9neCuyWD3mvtzgAxQho5WKo5gYMMvadf34rTX7pP4uI-uBzk3PAsaleulbxJNQKYL75P5GNo2mk03GPwjulRdksQh- -rsNKCK25VRKxGdGPQx6hQ_hhiPYS7_aAJoVF9PhEibA5qaxyFesRVHzjNsFygFEWRzkU8jyezwBHzZkBDb3smXyXO8asZ6MQ1-LiodUGFCC1zAp6Dz5y0]--></g></svg>