<?xml version="1.0" encoding="us-ascii" standalone="no"?><svg xmlns="http://www.w3.org/2000/svg" xmlns:xlink="http://www.w3.org/1999/xlink" contentStyleType="text/css" height="647px" preserveAspectRatio="none" style="width:822px;height:647px;background:#FFFFFF;" version="1.1" viewBox="0 0 822 647" width="822px" zoomAndPan="magnify"><defs/><g><!--cluster bo4e--><g id="cluster_bo4e"><path d="M541.5,6 L582.5,6 A3.75,3.75 0 0 1 585,8.5 L592,28.2969 L812.5,28.2969 A2.5,2.5 0 0 1 815,30.7969 L815,637.5 A2.5,2.5 0 0 1 812.5,640 L541.5,640 A2.5,2.5 0 0 1 539,637.5 L539,8.5 A2.5,2.5 0 0 1 541.5,6 " fill="none" style="stroke:#000000;stroke-width:1.5;"/><line style="stroke:#000000;stroke-width:1.5;" x1="539" x2="592" y1="28.2969" y2="28.2969"/><text fill="#000000" font-family="sans-serif" font-size="14" font-weight="bold" lengthAdjust="spacing" textLength="40" x="543" y="20.9951">bo4e</text></g><!--cluster bo--><g id="cluster_bo"><path d="M604,49 L670,49 A3.75,3.75 0 0 1 672.5,51.5 L679.5,71.2969 L750,71.2969 A2.5,2.5 0 0 1 752.5,73.7969 L752.5,281.5 A2.5,2.5 0 0 1 750,284 L604,284 A2.5,2.5 0 0 1 601.5,281.5 L601.5,51.5 A2.5,2.5 0 0 1 604,49 " fill="#B6D7A8" style="stroke:#000000;stroke-width:1.5;"/><line style="stroke:#000000;stroke-width:1.5;" x1="601.5" x2="679.5" y1="71.2969" y2="71.2969"/><a href="https://bo4e.github.io/BO4E-python/latest/api/bo4e.bo.html" target="_top" title="https://bo4e.github.io/BO4E-python/latest/api/bo4e.bo.html" xlink:actuate="onRequest" xlink:href="https://bo4e.github.io/BO4E-python/latest/api/bo4e.bo.html" xlink:show="new" xlink:title="https://bo4e.github.io/BO4E-python/latest/api/bo4e.bo.html" xlink:type="simple"><text fill="#0000FF" font-family="sans-serif" font-size="14" font-weight="bold" lengthAdjust="spacing" text-decoration="underline" textLength="65" x="605.5" y="63.9951">bo4e.bo</text></a></g><!--cluster enum--><g id="cluster_enum"><path d="M565.5,308 L655.5,308 A3.75,3.75 0 0 1 658,310.5 L665,330.2969 L788.5,330.2969 A2.5,2.5 0 0 1 791,332.7969 L791,613.5 A2.5,2.5 0 0 1 788.5,616 L565.5,616 A2.5,2.5 0 0 1 563,613.5 L563,310.5 A2.5,2.5 0 0 1 565.5,308 " fill="#D1C358" style="stroke:#000000;stroke-width:1.5;"/><line style="stroke:#000000;stroke-width:1.5;" x1="563" x2="665" y1="330.2969" y2="330.2969"/><a href="https://bo4e.github.io/BO4E-python/latest/api/bo4e.enum.html" target="_top" title="https://bo4e.github.io/BO4E-python/latest/api/bo4e.enum.html" xlink:actuate="onRequest" xlink:href="https://bo4e.github.io/BO4E-python/latest/api/bo4e.enum.html" xlink:show="new" xlink:title="https://bo4e.github.io/BO4E-python/latest/api/bo4e.enum.html" xlink:type="simple"><text fill="#0000FF" font-family="sans-serif" font-size="14" font-weight="bold" lengthAdjust="spacing" text-decoration="underline" textLength="89" x="567" y="322.9951">bo4e.enum</text></a></g><!--class Zaehler--><g id="elem_Zaehler"><rect codeLine="10" fill="#F1F1F1" height="37.9375" id="Zaehler" rx="2.5" ry="2.5" style="stroke:#181818;stroke-width:0.5;" width="109" x="622.5" y="84.03"/><ellipse cx="637.5" cy="102.9987" fill="#ADD1B2" rx="11" ry="11" style="stroke:#181818;stroke-width:1.0;"/><path d="M640.4688,108.6394 Q639.8906,108.9362 639.25,109.0769 Q638.6094,109.2331 637.9063,109.2331 Q635.4063,109.2331 634.0781,107.5925 Q632.7656,105.9362 632.7656,102.8112 Q632.7656,99.6862 634.0781,98.03 Q635.4063,96.3737 637.9063,96.3737 Q638.6094,96.3737 639.25,96.53 Q639.9063,96.6862 640.4688,96.9831 L640.4688,99.7019 Q639.8438,99.1237 639.25,98.8581 Q638.6563,98.5769 638.0313,98.5769 Q636.6875,98.5769 636,99.655 Q635.3125,100.7175 635.3125,102.8112 Q635.3125,104.905 636,105.9831 Q636.6875,107.0456 638.0313,107.0456 Q638.6563,107.0456 639.25,106.78 Q639.8438,106.4987 640.4688,105.9206 L640.4688,108.6394 Z " fill="#000000"/><a href="https://bo4e.github.io/BO4E-python/latest/api/bo4e.bo.html#bo4e.bo.zaehler.Zaehler" target="_top" title="https://bo4e.github.io/BO4E-python/latest/api/bo4e.bo.html#bo4e.bo.zaehler.Zaehler" xlink:actuate="onRequest" xlink:href="https://bo4e.github.io/BO4E-python/latest/api/bo4e.bo.html#bo4e.bo.zaehler.Zaehler" xlink:show="new" xlink:title="https://bo4e.github.io/BO4E-python/latest/api/bo4e.bo.html#bo4e.bo.zaehler.Zaehler" xlink:type="simple"><text fill="#0000FF" font-family="sans-serif" font-size="14" lengthAdjust="spacing" text-decoration="underline" textLength="53" x="663.5" y="102.0251">Zaehler</text></a><text fill="#000000" font-family="sans-serif" font-size="10" lengthAdjust="spacing" textLength="77" x="651.5" y="114.6091">bo4e.bo.zaehler</text></g><!--class Preisblatt--><g id="elem_Preisblatt"><rect codeLine="11" fill="#F1F1F1" height="37.9375" id="Preisblatt" rx="2.5" ry="2.5" style="stroke:#181818;stroke-width:0.5;" width="119" x="617.5" y="157.03"/><ellipse cx="632.5" cy="175.9987" fill="#ADD1B2" rx="11" ry="11" style="stroke:#181818;stroke-width:1.0;"/><path d="M635.4688,181.6394 Q634.8906,181.9362 634.25,182.0769 Q633.6094,182.2331 632.9063,182.2331 Q630.4063,182.2331 629.0781,180.5925 Q627.7656,178.9362 627.7656,175.8112 Q627.7656,172.6862 629.0781,171.03 Q630.4063,169.3737 632.9063,169.3737 Q633.6094,169.3737 634.25,169.53 Q634.9063,169.6862 635.4688,169.9831 L635.4688,172.7019 Q634.8438,172.1237 634.25,171.8581 Q633.6563,171.5769 633.0313,171.5769 Q631.6875,171.5769 631,172.655 Q630.3125,173.7175 630.3125,175.8112 Q630.3125,177.905 631,178.9831 Q631.6875,180.0456 633.0313,180.0456 Q633.6563,180.0456 634.25,179.78 Q634.8438,179.4987 635.4688,178.9206 L635.4688,181.6394 Z " fill="#000000"/><a href="https://bo4e.github.io/BO4E-python/latest/api/bo4e.bo.html#bo4e.bo.preisblatt.Preisblatt" target="_top" title="https://bo4e.github.io/BO4E-python/latest/api/bo4e.bo.html#bo4e.bo.preisblatt.Preisblatt" xlink:actuate="onRequest" xlink:href="https://bo4e.github.io/BO4E-python/latest/api/bo4e.bo.html#bo4e.bo.preisblatt.Preisblatt" xlink:show="new" xlink:title="https://bo4e.github.io/BO4E-python/latest/api/bo4e.bo.html#bo4e.bo.preisblatt.Preisblatt" xlink:type="simple"><text fill="#0000FF" font-family="sans-serif" font-size="14" lengthAdjust="spacing" text-decoration="underline" textLength="64" x="658" y="175.0251">Preisblatt</text></a><text fill="#000000" font-family="sans-serif" font-size="10" lengthAdjust="spacing" textLength="87" x="646.5" y="187.6091">bo4e.bo.preisblatt</text></g><!--class Geraet--><g id="elem_Geraet"><rect codeLine="12" fill="#F1F1F1" height="37.9375" id="Geraet" rx="2.5" ry="2.5" style="stroke:#181818;stroke-width:0.5;" width="106" x="624" y="230.03"/><ellipse cx="639" cy="248.9987" fill="#ADD1B2" rx="11" ry="11" style="stroke:#181818;stroke-width:1.0;"/><path d="M641.9688,254.6394 Q641.3906,254.9362 640.75,255.0769 Q640.1094,255.2331 639.4063,255.2331 Q636.9063,255.2331 635.5781,253.5925 Q634.2656,251.9362 634.2656,248.8112 Q634.2656,245.6862 635.5781,244.03 Q636.9063,242.3737 639.4063,242.3737 Q640.1094,242.3737 640.75,242.53 Q641.4063,242.6862 641.9688,242.9831 L641.9688,245.7019 Q641.3438,245.1237 640.75,244.8581 Q640.1563,244.5769 639.5313,244.5769 Q638.1875,244.5769 637.5,245.655 Q636.8125,246.7175 636.8125,248.8112 Q636.8125,250.905 637.5,251.9831 Q638.1875,253.0456 639.5313,253.0456 Q640.1563,253.0456 640.75,252.78 Q641.3438,252.4987 641.9688,251.9206 L641.9688,254.6394 Z " fill="#000000"/><a href="https://bo4e.github.io/BO4E-python/latest/api/bo4e.bo.html#bo4e.bo.geraet.Geraet" target="_top" title="https://bo4e.github.io/BO4E-python/latest/api/bo4e.bo.html#bo4e.bo.geraet.Geraet" xlink:actuate="onRequest" xlink:href="https://bo4e.github.io/BO4E-python/latest/api/bo4e.bo.html#bo4e.bo.geraet.Geraet" xlink:show="new" xlink:title="https://bo4e.github.io/BO4E-python/latest/api/bo4e.bo.html#bo4e.bo.geraet.Geraet" xlink:type="simple"><text fill="#0000FF" font-family="sans-serif" font-size="14" lengthAdjust="spacing" text-decoration="underline" textLength="47" x="666.5" y="248.0251">Geraet</text></a><text fill="#000000" font-family="sans-serif" font-size="10" lengthAdjust="spacing" textLength="74" x="653" y="260.6091">bo4e.bo.geraet</text></g><!--class Dienstleistungstyp--><g id="elem_Dienstleistungstyp"><rect codeLine="15" fill="#F1F1F1" height="37.9375" id="Dienstleistungstyp" rx="2.5" ry="2.5" style="stroke:#181818;stroke-width:0.5;" width="177" x="588.5" y="343.03"/><ellipse cx="603.5" cy="361.9988" fill="#ADD1B2" rx="11" ry="11" style="stroke:#181818;stroke-width:1.0;"/><path d="M606.4688,367.6394 Q605.8906,367.9363 605.25,368.0769 Q604.6094,368.2331 603.9063,368.2331 Q601.4063,368.2331 600.0781,366.5925 Q598.7656,364.9363 598.7656,361.8113 Q598.7656,358.6863 600.0781,357.03 Q601.4063,355.3738 603.9063,355.3738 Q604.6094,355.3738 605.25,355.53 Q605.9063,355.6863 606.4688,355.9831 L606.4688,358.7019 Q605.8438,358.1238 605.25,357.8581 Q604.6563,357.5769 604.0313,357.5769 Q602.6875,357.5769 602,358.655 Q601.3125,359.7175 601.3125,361.8113 Q601.3125,363.905 602,364.9831 Q602.6875,366.0456 604.0313,366.0456 Q604.6563,366.0456 605.25,365.78 Q605.8438,365.4988 606.4688,364.9206 L606.4688,367.6394 Z " fill="#000000"/><a href="https://bo4e.github.io/BO4E-python/latest/api/bo4e.enum.html#bo4e.enum.dienstleistungstyp.Dienstleistungstyp" target="_top" title="https://bo4e.github.io/BO4E-python/latest/api/bo4e.enum.html#bo4e.enum.dienstleistungstyp.Dienstleistungstyp" xlink:actuate="onRequest" xlink:href="https://bo4e.github.io/BO4E-python/latest/api/bo4e.enum.html#bo4e.enum.dienstleistungstyp.Dienstleistungstyp" xlink:show="new" xlink:title="https://bo4e.github.io/BO4E-python/latest/api/bo4e.enum.html#bo4e.enum.dienstleistungstyp.Dienstleistungstyp" xlink:type="simple"><text fill="#0000FF" font-family="sans-serif" font-size="14" lengthAdjust="spacing" text-decoration="underline" textLength="129" x="625.5" y="361.0251">Dienstleistungstyp</text></a><text fill="#000000" font-family="sans-serif" font-size="10" lengthAdjust="spacing" textLength="145" x="617.5" y="373.6091">bo4e.enum.dienstleistungstyp</text></g><!--class Bilanzierungsmethode--><g id="elem_Bilanzierungsmethode"><rect codeLine="16" fill="#F1F1F1" height="37.9375" id="Bilanzierungsmethode" rx="2.5" ry="2.5" style="stroke:#181818;stroke-width:0.5;" width="196" x="579" y="416.03"/><ellipse cx="594" cy="434.9988" fill="#ADD1B2" rx="11" ry="11" style="stroke:#181818;stroke-width:1.0;"/><path d="M596.9688,440.6394 Q596.3906,440.9363 595.75,441.0769 Q595.1094,441.2331 594.4063,441.2331 Q591.9063,441.2331 590.5781,439.5925 Q589.2656,437.9363 589.2656,434.8113 Q589.2656,431.6863 590.5781,430.03 Q591.9063,428.3738 594.4063,428.3738 Q595.1094,428.3738 595.75,428.53 Q596.4063,428.6863 596.9688,428.9831 L596.9688,431.7019 Q596.3438,431.1238 595.75,430.8581 Q595.1563,430.5769 594.5313,430.5769 Q593.1875,430.5769 592.5,431.655 Q591.8125,432.7175 591.8125,434.8113 Q591.8125,436.905 592.5,437.9831 Q593.1875,439.0456 594.5313,439.0456 Q595.1563,439.0456 595.75,438.78 Q596.3438,438.4988 596.9688,437.9206 L596.9688,440.6394 Z " fill="#000000"/><a href="https://bo4e.github.io/BO4E-python/latest/api/bo4e.enum.html#bo4e.enum.bilanzierungsmethode.Bilanzierungsmethode" target="_top" title="https://bo4e.github.io/BO4E-python/latest/api/bo4e.enum.html#bo4e.enum.bilanzierungsmethode.Bilanzierungsmethode" xlink:actuate="onRequest" xlink:href="https://bo4e.github.io/BO4E-python/latest/api/bo4e.enum.html#bo4e.enum.bilanzierungsmethode.Bilanzierungsmethode" xlink:show="new" xlink:title="https://bo4e.github.io/BO4E-python/latest/api/bo4e.enum.html#bo4e.enum.bilanzierungsmethode.Bilanzierungsmethode" xlink:type="simple"><text fill="#0000FF" font-family="sans-serif" font-size="14" lengthAdjust="spacing" text-decoration="underline" textLength="156" x="612" y="434.0251">Bilanzierungsmethode</text></a><text fill="#000000" font-family="sans-serif" font-size="10" lengthAdjust="spacing" textLength="164" x="608" y="446.6091">bo4e.enum.bilanzierungsmethode</text></g><!--class Typ--><g id="elem_Typ"><rect codeLine="17" fill="#F1F1F1" height="37.9375" id="Typ" rx="2.5" ry="2.5" style="stroke:#181818;stroke-width:0.5;" width="106" x="624" y="489.03"/><ellipse cx="639" cy="507.9988" fill="#ADD1B2" rx="11" ry="11" style="stroke:#181818;stroke-width:1.0;"/><path d="M641.9688,513.6394 Q641.3906,513.9363 640.75,514.0769 Q640.1094,514.2331 639.4063,514.2331 Q636.9063,514.2331 635.5781,512.5925 Q634.2656,510.9363 634.2656,507.8113 Q634.2656,504.6863 635.5781,503.03 Q636.9063,501.3738 639.4063,501.3738 Q640.1094,501.3738 640.75,501.53 Q641.4063,501.6863 641.9688,501.9831 L641.9688,504.7019 Q641.3438,504.1238 640.75,503.8581 Q640.1563,503.5769 639.5313,503.5769 Q638.1875,503.5769 637.5,504.655 Q636.8125,505.7175 636.8125,507.8113 Q636.8125,509.905 637.5,510.9831 Q638.1875,512.0456 639.5313,512.0456 Q640.1563,512.0456 640.75,511.78 Q641.3438,511.4988 641.9688,510.9206 L641.9688,513.6394 Z " fill="#000000"/><a href="https://bo4e.github.io/BO4E-python/latest/api/bo4e.enum.html#bo4e.enum.typ.Typ" target="_top" title="https://bo4e.github.io/BO4E-python/latest/api/bo4e.enum.html#bo4e.enum.typ.Typ" xlink:actuate="onRequest" xlink:href="https://bo4e.github.io/BO4E-python/latest/api/bo4e.enum.html#bo4e.enum.typ.Typ" xlink:show="new" xlink:title="https://bo4e.github.io/BO4E-python/latest/api/bo4e.enum.html#bo4e.enum.typ.Typ" xlink:type="simple"><text fill="#0000FF" font-family="sans-serif" font-size="14" lengthAdjust="spacing" text-decoration="underline" textLength="25" x="677.5" y="507.0251">Typ</text></a><text fill="#000000" font-family="sans-serif" font-size="10" lengthAdjust="spacing" textLength="74" x="653" y="519.6091">bo4e.enum.typ</text></g><!--class Netzebene--><g id="elem_Netzebene"><rect codeLine="18" fill="#F1F1F1" height="37.9375" id="Netzebene" rx="2.5" ry="2.5" style="stroke:#181818;stroke-width:0.5;" width="141" x="606.5" y="562.03"/><ellipse cx="621.5" cy="580.9988" fill="#ADD1B2" rx="11" ry="11" style="stroke:#181818;stroke-width:1.0;"/><path d="M624.4688,586.6394 Q623.8906,586.9363 623.25,587.0769 Q622.6094,587.2331 621.9063,587.2331 Q619.4063,587.2331 618.0781,585.5925 Q616.7656,583.9363 616.7656,580.8113 Q616.7656,577.6863 618.0781,576.03 Q619.4063,574.3738 621.9063,574.3738 Q622.6094,574.3738 623.25,574.53 Q623.9063,574.6863 624.4688,574.9831 L624.4688,577.7019 Q623.8438,577.1238 623.25,576.8581 Q622.6563,576.5769 622.0313,576.5769 Q620.6875,576.5769 620,577.655 Q619.3125,578.7175 619.3125,580.8113 Q619.3125,582.905 620,583.9831 Q620.6875,585.0456 622.0313,585.0456 Q622.6563,585.0456 623.25,584.78 Q623.8438,584.4988 624.4688,583.9206 L624.4688,586.6394 Z " fill="#000000"/><a href="https://bo4e.github.io/BO4E-python/latest/api/bo4e.enum.html#bo4e.enum.netzebene.Netzebene" target="_top" title="https://bo4e.github.io/BO4E-python/latest/api/bo4e.enum.html#bo4e.enum.netzebene.Netzebene" xlink:actuate="onRequest" xlink:href="https://bo4e.github.io/BO4E-python/latest/api/bo4e.enum.html#bo4e.enum.netzebene.Netzebene" xlink:show="new" xlink:title="https://bo4e.github.io/BO4E-python/latest/api/bo4e.enum.html#bo4e.enum.netzebene.Netzebene" xlink:type="simple"><text fill="#0000FF" font-family="sans-serif" font-size="14" lengthAdjust="spacing" text-decoration="underline" textLength="77" x="651.5" y="580.0251">Netzebene</text></a><text fill="#000000" font-family="sans-serif" font-size="10" lengthAdjust="spacing" textLength="109" x="635.5" y="592.6091">bo4e.enum.netzebene</text></g><!--class PreisblattMessung--><g id="elem_PreisblattMessung"><rect codeLine="3" fill="#F1F1F1" height="94.8281" id="PreisblattMessung" rx="2.5" ry="2.5" style="stroke:#181818;stroke-width:0.5;" width="323" x="7" y="314.59"/><ellipse cx="98.75" cy="333.5588" fill="#ADD1B2" rx="11" ry="11" style="stroke:#181818;stroke-width:1.0;"/><path d="M101.7188,339.1994 Q101.1406,339.4963 100.5,339.6369 Q99.8594,339.7931 99.1563,339.7931 Q96.6563,339.7931 95.3281,338.1525 Q94.0156,336.4963 94.0156,333.3713 Q94.0156,330.2463 95.3281,328.59 Q96.6563,326.9338 99.1563,326.9338 Q99.8594,326.9338 100.5,327.09 Q101.1563,327.2463 101.7188,327.5431 L101.7188,330.2619 Q101.0938,329.6838 100.5,329.4181 Q99.9063,329.1369 99.2813,329.1369 Q97.9375,329.1369 97.25,330.215 Q96.5625,331.2775 96.5625,333.3713 Q96.5625,335.465 97.25,336.5431 Q97.9375,337.6056 99.2813,337.6056 Q99.9063,337.6056 100.5,337.34 Q101.0938,337.0588 101.7188,336.4806 L101.7188,339.1994 Z " fill="#000000"/><a href="https://bo4e.github.io/BO4E-python/latest/api/bo4e.bo.html#bo4e.bo.preisblattmessung.PreisblattMessung" target="_top" title="https://bo4e.github.io/BO4E-python/latest/api/bo4e.bo.html#bo4e.bo.preisblattmessung.PreisblattMessung" xlink:actuate="onRequest" xlink:href="https://bo4e.github.io/BO4E-python/latest/api/bo4e.bo.html#bo4e.bo.preisblattmessung.PreisblattMessung" xlink:show="new" xlink:title="https://bo4e.github.io/BO4E-python/latest/api/bo4e.bo.html#bo4e.bo.preisblattmessung.PreisblattMessung" xlink:type="simple"><text fill="#0000FF" font-family="sans-serif" font-size="14" lengthAdjust="spacing" text-decoration="underline" textLength="128" x="120.75" y="332.5851">PreisblattMessung</text></a><text fill="#000000" font-family="sans-serif" font-size="10" lengthAdjust="spacing" textLength="131" x="119.25" y="345.1691">bo4e.bo.preisblattmessung</text><line style="stroke:#181818;stroke-width:0.5;" x1="8" x2="329" y1="352.5275" y2="352.5275"/><text fill="#000000" font-family="sans-serif" font-size="14" lengthAdjust="spacing" textLength="183" x="13" y="369.5226">_version : str [0..1] = 0.0.0</text><text fill="#000000" font-family="sans-serif" font-size="14" lengthAdjust="spacing" textLength="311" x="13" y="385.8195">zusatzAttribute : ZusatzAttribut [0..*] = None</text><text fill="#000000" font-family="sans-serif" font-size="14" lengthAdjust="spacing" textLength="147" x="13" y="402.1164">_id : str [0..1] = None</text></g><!--link PreisblattMessung to Preisblatt--><g id="link_PreisblattMessung_Preisblatt"><path codeLine="21" d="M250.19,314.3 C283.43,295.96 322.81,275.88 360,261 C433.29,231.68 454.75,233.43 531,213 C559.23,205.44 573.2,201.7955 599.56,195.1255 " fill="none" id="PreisblattMessung-to-Preisblatt" style="stroke:#181818;stroke-width:1.0;"/><polygon fill="none" points="617.01,190.71,598.0881,189.3088,601.0318,200.9421,617.01,190.71" style="stroke:#181818;stroke-width:1.0;"/></g><!--link PreisblattMessung to Typ--><g id="link_PreisblattMessung_Typ"><path codeLine="22" d="M282.57,409.82 C307.79,419.56 334.6,429.2 360,437 C451.24,465.03 548.6204,484.9159 611.8304,496.6159 " fill="none" id="PreisblattMessung-to-Typ" style="stroke:#181818;stroke-width:1.0;"/><polygon fill="#181818" points="623.63,498.8,618.4582,493.7748,611.8304,496.6159,617.0022,501.6412,623.63,498.8" style="stroke:#181818;stroke-width:1.0;"/><text fill="#000000" font-family="sans-serif" font-size="13" lengthAdjust="spacing" textLength="27" x="428" y="433.0669">_typ</text><text fill="#000000" font-family="sans-serif" font-size="13" lengthAdjust="spacing" textLength="24" x="592.0716" y="510.6782">0..1</text></g><!--link PreisblattMessung to Bilanzierungsmethode--><g id="link_PreisblattMessung_Bilanzierungsmethode"><path codeLine="23" d="M330.46,385.2 C412,396.95 496.4527,409.118 566.6627,419.238 " fill="none" id="PreisblattMessung-to-Bilanzierungsmethode" style="stroke:#181818;stroke-width:1.0;"/><polygon fill="#181818" points="578.54,420.95,573.172,416.1349,566.6627,419.238,572.0307,424.0531,578.54,420.95" style="stroke:#181818;stroke-width:1.0;"/><text fill="#000000" font-family="sans-serif" font-size="13" lengthAdjust="spacing" textLength="142" x="370.5" y="386.0669">bilanzierungsmethode</text><text fill="#000000" font-family="sans-serif" font-size="13" lengthAdjust="spacing" textLength="24" x="547.1185" y="432.5814">0..1</text></g><!--link PreisblattMessung to Netzebene--><g id="link_PreisblattMessung_Netzebene"><path codeLine="24" d="M221.18,409.59 C257.53,440.68 308.68,479.85 360,504 C439.96,541.62 528.3907,560.1877 594.2807,570.3677 " fill="none" id="PreisblattMessung-to-Netzebene" style="stroke:#181818;stroke-width:1.0;"/><polygon fill="#181818" points="606.14,572.2,600.8211,567.3308,594.2807,570.3677,599.5996,575.237,606.14,572.2" style="stroke:#181818;stroke-width:1.0;"/><text fill="#000000" font-family="sans-serif" font-size="13" lengthAdjust="spacing" textLength="75" x="404" y="500.0669">messebene</text><text fill="#000000" font-family="sans-serif" font-size="13" lengthAdjust="spacing" textLength="24" x="574.5013" y="584.1533">0..1</text></g><!--link PreisblattMessung to Zaehler--><g id="link_PreisblattMessung_Zaehler"><path codeLine="25" d="M222.62,314.31 C259.4,282.87 310.47,242.26 360,213 C431.15,170.97 452.73,166.52 531,140 C560.65,129.95 582.8297,123.9215 610.3797,117.4315 " fill="none" id="PreisblattMessung-to-Zaehler" style="stroke:#181818;stroke-width:1.0;"/><polygon fill="#181818" points="622.06,114.68,615.3027,112.1623,610.3797,117.4315,617.137,119.9492,622.06,114.68" style="stroke:#181818;stroke-width:1.0;"/><text fill="#000000" font-family="sans-serif" font-size="13" lengthAdjust="spacing" textLength="47" x="418" y="140.0669">zaehler</text><text fill="#000000" font-family="sans-serif" font-size="13" lengthAdjust="spacing" textLength="24" x="590.3201" y="128.9724">0..1</text></g><!--link PreisblattMessung to Dienstleistungstyp--><g id="link_PreisblattMessung_Dienstleistungstyp"><path codeLine="26" d="M330.46,362 C415.76,362 505.26,362 576.09,362 " fill="none" id="PreisblattMessung-to-Dienstleistungstyp" style="stroke:#181818;stroke-width:1.0;"/><polygon fill="#181818" points="588.09,362,582.09,358,576.09,362,582.09,366,588.09,362" style="stroke:#181818;stroke-width:1.0;"/><text fill="#000000" font-family="sans-serif" font-size="13" lengthAdjust="spacing" textLength="161" x="361" y="358.0669">inklusiveDienstleistungen</text><text fill="#000000" font-family="sans-serif" font-size="13" lengthAdjust="spacing" textLength="23" x="557.4024" y="374.6463">0..*</text></g><!--link PreisblattMessung to Geraet--><g id="link_PreisblattMessung_Geraet"><path codeLine="27" d="M330.46,326.09 C431.41,303.57 543.308,278.6033 611.968,263.2833 " fill="none" id="PreisblattMessung-to-Geraet" style="stroke:#181818;stroke-width:1.0;"/><polygon fill="#181818" points="623.68,260.67,616.9529,258.0726,611.968,263.2833,618.6951,265.8806,623.68,260.67" style="stroke:#181818;stroke-width:1.0;"/><text fill="#000000" font-family="sans-serif" font-size="13" lengthAdjust="spacing" textLength="106" x="388.5" y="282.0669">inklusiveGeraete</text><text fill="#000000" font-family="sans-serif" font-size="13" lengthAdjust="spacing" textLength="23" x="593.1852" y="274.9612">0..*</text></g><!--SRC=[jLLBRzim33xNlu98RW4Y9rZtWB4LQD1XftKxvDJCAEIOZONPic7H7Ufj_tsINt5hUGiG3px8f4YA_FY9Yl61W5B8nI4Y24MEUnAfT9nzp9M2sMuN4MNASzqWlKHs41GL0HEfk_bo-N6PFL6KIZVcX8fSdedQAaXPH4ayRuKiHw42RKK9AbN80_lQQJxN6XXeVF-RVAz4YTvwTJKQQGPS3NtXftDn_uYvqgM01ufosAqOM_lm0LPCVyv5MIXEvJLHBeA2K5lTFTDK3WlZS9jArE54-39IjV7RSIJNoMHyZ-V11OtW-rLHZGJppPkRjzVlJ4bJzgJa6CMOixjwXMQrejxOLcarTjCcSsnhZnczjlw32oz8C6rk1ymv4ljKBL0lrdngmogNsafpurnge2oI7ZcCsAU7aM4UhlUlNfzDaEwe-L4C1Kf5iGQMzArIz9Incu4AXgeXFYFXgbA6_jDN4eYOor9WRav8KFk5o3OM9TYK8_NOWbOLsM9CNvDfnrRZlnq5l4Lu-pyWbKWb1YYHtRP_qFsD9DJvL6brrcQAMjw4vVBNLJi7UzisKssxW9cPpBFZrQZGyU3UCEfa7oifFB3r-lIWHuGyC2zNNVKfxhhoTaHxq0pYlpek-kTQRgi7GdwF2oKUyVakofFYweIQMTYBL6lGSIAXqKem2VJZwwWe_G6Mc0y2ur3z0G00]--></g></svg>