<?xml version="1.0" encoding="us-ascii" standalone="no"?><svg xmlns="http://www.w3.org/2000/svg" xmlns:xlink="http://www.w3.org/1999/xlink" contentStyleType="text/css" height="355px" preserveAspectRatio="none" style="width:800px;height:355px;background:#FFFFFF;" version="1.1" viewBox="0 0 800 355" width="800px" zoomAndPan="magnify"><defs/><g><!--cluster bo4e--><g id="cluster_bo4e"><path d="M545.5,6 L586.5,6 A3.75,3.75 0 0 1 589,8.5 L596,28.2969 L790.5,28.2969 A2.5,2.5 0 0 1 793,30.7969 L793,345.5 A2.5,2.5 0 0 1 790.5,348 L545.5,348 A2.5,2.5 0 0 1 543,345.5 L543,8.5 A2.5,2.5 0 0 1 545.5,6 " fill="none" style="stroke:#000000;stroke-width:1.5;"/><line style="stroke:#000000;stroke-width:1.5;" x1="543" x2="596" y1="28.2969" y2="28.2969"/><text fill="#000000" font-family="sans-serif" font-size="14" font-weight="bold" lengthAdjust="spacing" textLength="40" x="547" y="20.9951">bo4e</text></g><!--cluster bo--><g id="cluster_bo"><path d="M595,49 L661,49 A3.75,3.75 0 0 1 663.5,51.5 L670.5,71.2969 L741,71.2969 A2.5,2.5 0 0 1 743.5,73.7969 L743.5,135.5 A2.5,2.5 0 0 1 741,138 L595,138 A2.5,2.5 0 0 1 592.5,135.5 L592.5,51.5 A2.5,2.5 0 0 1 595,49 " fill="#B6D7A8" style="stroke:#000000;stroke-width:1.5;"/><line style="stroke:#000000;stroke-width:1.5;" x1="592.5" x2="670.5" y1="71.2969" y2="71.2969"/><a href="https://bo4e.github.io/BO4E-python/latest/api/bo4e.bo.html" target="_top" title="https://bo4e.github.io/BO4E-python/latest/api/bo4e.bo.html" xlink:actuate="onRequest" xlink:href="https://bo4e.github.io/BO4E-python/latest/api/bo4e.bo.html" xlink:show="new" xlink:title="https://bo4e.github.io/BO4E-python/latest/api/bo4e.bo.html" xlink:type="simple"><text fill="#0000FF" font-family="sans-serif" font-size="14" font-weight="bold" lengthAdjust="spacing" text-decoration="underline" textLength="65" x="596.5" y="63.9951">bo4e.bo</text></a></g><!--cluster enum--><g id="cluster_enum"><path d="M569.5,162 L659.5,162 A3.75,3.75 0 0 1 662,164.5 L669,184.2969 L766.5,184.2969 A2.5,2.5 0 0 1 769,186.7969 L769,321.5 A2.5,2.5 0 0 1 766.5,324 L569.5,324 A2.5,2.5 0 0 1 567,321.5 L567,164.5 A2.5,2.5 0 0 1 569.5,162 " fill="#D1C358" style="stroke:#000000;stroke-width:1.5;"/><line style="stroke:#000000;stroke-width:1.5;" x1="567" x2="669" y1="184.2969" y2="184.2969"/><a href="https://bo4e.github.io/BO4E-python/latest/api/bo4e.enum.html" target="_top" title="https://bo4e.github.io/BO4E-python/latest/api/bo4e.enum.html" xlink:actuate="onRequest" xlink:href="https://bo4e.github.io/BO4E-python/latest/api/bo4e.enum.html" xlink:show="new" xlink:title="https://bo4e.github.io/BO4E-python/latest/api/bo4e.enum.html" xlink:type="simple"><text fill="#0000FF" font-family="sans-serif" font-size="14" font-weight="bold" lengthAdjust="spacing" text-decoration="underline" textLength="89" x="571" y="176.9951">bo4e.enum</text></a></g><!--class Preisblatt--><g id="elem_Preisblatt"><rect codeLine="10" fill="#F1F1F1" height="37.9375" id="Preisblatt" rx="2.5" ry="2.5" style="stroke:#181818;stroke-width:0.5;" width="119" x="608.5" y="84.03"/><ellipse cx="623.5" cy="102.9987" fill="#ADD1B2" rx="11" ry="11" style="stroke:#181818;stroke-width:1.0;"/><path d="M626.4688,108.6394 Q625.8906,108.9362 625.25,109.0769 Q624.6094,109.2331 623.9063,109.2331 Q621.4063,109.2331 620.0781,107.5925 Q618.7656,105.9362 618.7656,102.8112 Q618.7656,99.6862 620.0781,98.03 Q621.4063,96.3737 623.9063,96.3737 Q624.6094,96.3737 625.25,96.53 Q625.9063,96.6862 626.4688,96.9831 L626.4688,99.7019 Q625.8438,99.1237 625.25,98.8581 Q624.6563,98.5769 624.0313,98.5769 Q622.6875,98.5769 622,99.655 Q621.3125,100.7175 621.3125,102.8112 Q621.3125,104.905 622,105.9831 Q622.6875,107.0456 624.0313,107.0456 Q624.6563,107.0456 625.25,106.78 Q625.8438,106.4987 626.4688,105.9206 L626.4688,108.6394 Z " fill="#000000"/><a href="https://bo4e.github.io/BO4E-python/latest/api/bo4e.bo.html#bo4e.bo.preisblatt.Preisblatt" target="_top" title="https://bo4e.github.io/BO4E-python/latest/api/bo4e.bo.html#bo4e.bo.preisblatt.Preisblatt" xlink:actuate="onRequest" xlink:href="https://bo4e.github.io/BO4E-python/latest/api/bo4e.bo.html#bo4e.bo.preisblatt.Preisblatt" xlink:show="new" xlink:title="https://bo4e.github.io/BO4E-python/latest/api/bo4e.bo.html#bo4e.bo.preisblatt.Preisblatt" xlink:type="simple"><text fill="#0000FF" font-family="sans-serif" font-size="14" lengthAdjust="spacing" text-decoration="underline" textLength="64" x="649" y="102.0251">Preisblatt</text></a><text fill="#000000" font-family="sans-serif" font-size="10" lengthAdjust="spacing" textLength="87" x="637.5" y="114.6091">bo4e.bo.preisblatt</text></g><!--class Typ--><g id="elem_Typ"><rect codeLine="13" fill="#F1F1F1" height="37.9375" id="Typ" rx="2.5" ry="2.5" style="stroke:#181818;stroke-width:0.5;" width="106" x="615" y="197.03"/><ellipse cx="630" cy="215.9988" fill="#ADD1B2" rx="11" ry="11" style="stroke:#181818;stroke-width:1.0;"/><path d="M632.9688,221.6394 Q632.3906,221.9363 631.75,222.0769 Q631.1094,222.2331 630.4063,222.2331 Q627.9063,222.2331 626.5781,220.5925 Q625.2656,218.9363 625.2656,215.8113 Q625.2656,212.6863 626.5781,211.03 Q627.9063,209.3738 630.4063,209.3738 Q631.1094,209.3738 631.75,209.53 Q632.4063,209.6863 632.9688,209.9831 L632.9688,212.7019 Q632.3438,212.1238 631.75,211.8581 Q631.1563,211.5769 630.5313,211.5769 Q629.1875,211.5769 628.5,212.655 Q627.8125,213.7175 627.8125,215.8113 Q627.8125,217.905 628.5,218.9831 Q629.1875,220.0456 630.5313,220.0456 Q631.1563,220.0456 631.75,219.78 Q632.3438,219.4988 632.9688,218.9206 L632.9688,221.6394 Z " fill="#000000"/><a href="https://bo4e.github.io/BO4E-python/latest/api/bo4e.enum.html#bo4e.enum.typ.Typ" target="_top" title="https://bo4e.github.io/BO4E-python/latest/api/bo4e.enum.html#bo4e.enum.typ.Typ" xlink:actuate="onRequest" xlink:href="https://bo4e.github.io/BO4E-python/latest/api/bo4e.enum.html#bo4e.enum.typ.Typ" xlink:show="new" xlink:title="https://bo4e.github.io/BO4E-python/latest/api/bo4e.enum.html#bo4e.enum.typ.Typ" xlink:type="simple"><text fill="#0000FF" font-family="sans-serif" font-size="14" lengthAdjust="spacing" text-decoration="underline" textLength="25" x="668.5" y="215.0251">Typ</text></a><text fill="#000000" font-family="sans-serif" font-size="10" lengthAdjust="spacing" textLength="74" x="644" y="227.6091">bo4e.enum.typ</text></g><!--class KundengruppeKA--><g id="elem_KundengruppeKA"><rect codeLine="14" fill="#F1F1F1" height="37.9375" id="KundengruppeKA" rx="2.5" ry="2.5" style="stroke:#181818;stroke-width:0.5;" width="170" x="583" y="270.03"/><ellipse cx="598" cy="288.9988" fill="#ADD1B2" rx="11" ry="11" style="stroke:#181818;stroke-width:1.0;"/><path d="M600.9688,294.6394 Q600.3906,294.9363 599.75,295.0769 Q599.1094,295.2331 598.4063,295.2331 Q595.9063,295.2331 594.5781,293.5925 Q593.2656,291.9363 593.2656,288.8113 Q593.2656,285.6863 594.5781,284.03 Q595.9063,282.3738 598.4063,282.3738 Q599.1094,282.3738 599.75,282.53 Q600.4063,282.6863 600.9688,282.9831 L600.9688,285.7019 Q600.3438,285.1238 599.75,284.8581 Q599.1563,284.5769 598.5313,284.5769 Q597.1875,284.5769 596.5,285.655 Q595.8125,286.7175 595.8125,288.8113 Q595.8125,290.905 596.5,291.9831 Q597.1875,293.0456 598.5313,293.0456 Q599.1563,293.0456 599.75,292.78 Q600.3438,292.4988 600.9688,291.9206 L600.9688,294.6394 Z " fill="#000000"/><a href="https://bo4e.github.io/BO4E-python/latest/api/bo4e.enum.html#bo4e.enum.kundengruppeka.KundengruppeKA" target="_top" title="https://bo4e.github.io/BO4E-python/latest/api/bo4e.enum.html#bo4e.enum.kundengruppeka.KundengruppeKA" xlink:actuate="onRequest" xlink:href="https://bo4e.github.io/BO4E-python/latest/api/bo4e.enum.html#bo4e.enum.kundengruppeka.KundengruppeKA" xlink:show="new" xlink:title="https://bo4e.github.io/BO4E-python/latest/api/bo4e.enum.html#bo4e.enum.kundengruppeka.KundengruppeKA" xlink:type="simple"><text fill="#0000FF" font-family="sans-serif" font-size="14" lengthAdjust="spacing" text-decoration="underline" textLength="122" x="620" y="288.0251">KundengruppeKA</text></a><text fill="#000000" font-family="sans-serif" font-size="10" lengthAdjust="spacing" textLength="138" x="612" y="300.6091">bo4e.enum.kundengruppeka</text></g><!--class PreisblattKonzessionsabgabe--><g id="elem_PreisblattKonzessionsabgabe"><rect codeLine="3" fill="#F1F1F1" height="94.8281" id="PreisblattKonzessionsabgabe" rx="2.5" ry="2.5" style="stroke:#181818;stroke-width:0.5;" width="379" x="7" y="168.59"/><ellipse cx="89.75" cy="187.5588" fill="#ADD1B2" rx="11" ry="11" style="stroke:#181818;stroke-width:1.0;"/><path d="M92.7188,193.1994 Q92.1406,193.4963 91.5,193.6369 Q90.8594,193.7931 90.1563,193.7931 Q87.6563,193.7931 86.3281,192.1525 Q85.0156,190.4963 85.0156,187.3713 Q85.0156,184.2463 86.3281,182.59 Q87.6563,180.9338 90.1563,180.9338 Q90.8594,180.9338 91.5,181.09 Q92.1563,181.2463 92.7188,181.5431 L92.7188,184.2619 Q92.0938,183.6838 91.5,183.4181 Q90.9063,183.1369 90.2813,183.1369 Q88.9375,183.1369 88.25,184.215 Q87.5625,185.2775 87.5625,187.3713 Q87.5625,189.465 88.25,190.5431 Q88.9375,191.6056 90.2813,191.6056 Q90.9063,191.6056 91.5,191.34 Q92.0938,191.0588 92.7188,190.4806 L92.7188,193.1994 Z " fill="#000000"/><a href="https://bo4e.github.io/BO4E-python/latest/api/bo4e.bo.html#bo4e.bo.preisblattkonzessionsabgabe.PreisblattKonzessionsabgabe" target="_top" title="https://bo4e.github.io/BO4E-python/latest/api/bo4e.bo.html#bo4e.bo.preisblattkonzessionsabgabe.PreisblattKonzessionsabgabe" xlink:actuate="onRequest" xlink:href="https://bo4e.github.io/BO4E-python/latest/api/bo4e.bo.html#bo4e.bo.preisblattkonzessionsabgabe.PreisblattKonzessionsabgabe" xlink:show="new" xlink:title="https://bo4e.github.io/BO4E-python/latest/api/bo4e.bo.html#bo4e.bo.preisblattkonzessionsabgabe.PreisblattKonzessionsabgabe" xlink:type="simple"><text fill="#0000FF" font-family="sans-serif" font-size="14" lengthAdjust="spacing" text-decoration="underline" textLength="205" x="110.25" y="186.5851">PreisblattKonzessionsabgabe</text></a><text fill="#000000" font-family="sans-serif" font-size="10" lengthAdjust="spacing" textLength="180" x="122.75" y="199.1691">bo4e.bo.preisblattkonzessionsabgabe</text><line style="stroke:#181818;stroke-width:0.5;" x1="8" x2="385" y1="206.5275" y2="206.5275"/><text fill="#000000" font-family="sans-serif" font-size="14" lengthAdjust="spacing" textLength="367" x="13" y="223.5226">_version : str [0..1] = 202401.2.2.dev29+gd7bab545</text><text fill="#000000" font-family="sans-serif" font-size="14" lengthAdjust="spacing" textLength="311" x="13" y="239.8195">zusatzAttribute : ZusatzAttribut [0..*] = None</text><text fill="#000000" font-family="sans-serif" font-size="14" lengthAdjust="spacing" textLength="147" x="13" y="256.1164">_id : str [0..1] = None</text></g><!--link PreisblattKonzessionsabgabe to Preisblatt--><g id="link_PreisblattKonzessionsabgabe_Preisblatt"><path codeLine="17" d="M386.43,170.53 C465.81,151.42 534.9495,134.7809 590.6395,121.3809 " fill="none" id="PreisblattKonzessionsabgabe-to-Preisblatt" style="stroke:#181818;stroke-width:1.0;"/><polygon fill="none" points="608.14,117.17,589.2358,115.5474,592.0431,127.2144,608.14,117.17" style="stroke:#181818;stroke-width:1.0;"/></g><!--link PreisblattKonzessionsabgabe to Typ--><g id="link_PreisblattKonzessionsabgabe_Typ"><path codeLine="18" d="M386.43,216 C468.99,216 547.42,216 602.69,216 " fill="none" id="PreisblattKonzessionsabgabe-to-Typ" style="stroke:#181818;stroke-width:1.0;"/><polygon fill="#181818" points="614.69,216,608.69,212,602.69,216,608.69,220,614.69,216" style="stroke:#181818;stroke-width:1.0;"/><text fill="#000000" font-family="sans-serif" font-size="13" lengthAdjust="spacing" textLength="27" x="458" y="212.0669">_typ</text><text fill="#000000" font-family="sans-serif" font-size="13" lengthAdjust="spacing" textLength="24" x="583.1385" y="228.9419">0..1</text></g><!--link PreisblattKonzessionsabgabe to KundengruppeKA--><g id="link_PreisblattKonzessionsabgabe_KundengruppeKA"><path codeLine="19" d="M386.43,245.38 C454.6,255.97 516.2625,265.5664 570.9325,274.0664 " fill="none" id="PreisblattKonzessionsabgabe-to-KundengruppeKA" style="stroke:#181818;stroke-width:1.0;"/><polygon fill="#181818" points="582.79,275.91,577.4758,271.0357,570.9325,274.0664,576.2467,278.9407,582.79,275.91" style="stroke:#181818;stroke-width:1.0;"/><text fill="#000000" font-family="sans-serif" font-size="13" lengthAdjust="spacing" textLength="109" x="417" y="247.0669">kundengruppeKA</text><text fill="#000000" font-family="sans-serif" font-size="13" lengthAdjust="spacing" textLength="24" x="551.0436" y="287.5368">0..1</text></g><!--SRC=[jLDDRzim33t7lu98RXqY9rdIRaPR84Lt2h3rqDDIev1YrXPYIu95PqYs_lVANZxi37E7fOMWmnC_7laeflX4G1fo6IS4aSnnGL8hprkat5hepkS9aR61xmizHXPBIWh1fFPlles_zCsQ4gtyb1DQyhcHlxs4PWbbQMy7J8xI2kT5IwqsQArZi5p4N22xszjcnpPeiONXWxgqSeF1S73z3pnTuBOj7_pqEeyhpCid2C1I3lC1OyCGhc0q68q7GpPo9yBLwFE7EBeGN4p64w-pAIodpPGebw8WTA7V6ozLbhCoorUjq778w3XzPNZsFCKpj8Oly3JLOGl2iEfvYw1tStvxCVrKzla-ewrDiYRqAtCw6ekJuLGLK1LPJOSIrfKeCVIYuUBZv6GjzbIz0wIrOVTh0-x-sVhEeoh7URmz_R9G4QeuBup19MUp6fnDeGd_KbypHLLgCwxygwrhs-__kjxzkvfZUv2BEeDkkHFTmwGgAGDuT9hzJ_HH-m4icuruYOmGCio4MtpF9le7jB8yIKmZ-m80]--></g></svg>