<?xml version="1.0" encoding="us-ascii" standalone="no"?><svg xmlns="http://www.w3.org/2000/svg" xmlns:xlink="http://www.w3.org/1999/xlink" contentStyleType="text/css" height="428px" preserveAspectRatio="none" style="width:879px;height:428px;background:#FFFFFF;" version="1.1" viewBox="0 0 879 428" width="879px" zoomAndPan="magnify"><defs/><g><!--cluster bo4e--><g id="cluster_bo4e"><path d="M598.5,6 L639.5,6 A3.75,3.75 0 0 1 642,8.5 L649,28.2969 L869.5,28.2969 A2.5,2.5 0 0 1 872,30.7969 L872,418.5 A2.5,2.5 0 0 1 869.5,421 L598.5,421 A2.5,2.5 0 0 1 596,418.5 L596,8.5 A2.5,2.5 0 0 1 598.5,6 " fill="none" style="stroke:#000000;stroke-width:1.5;"/><line style="stroke:#000000;stroke-width:1.5;" x1="596" x2="649" y1="28.2969" y2="28.2969"/><text fill="#000000" font-family="sans-serif" font-size="14" font-weight="bold" lengthAdjust="spacing" textLength="40" x="600" y="20.9951">bo4e</text></g><!--cluster bo--><g id="cluster_bo"><path d="M661,49 L727,49 A3.75,3.75 0 0 1 729.5,51.5 L736.5,71.2969 L807,71.2969 A2.5,2.5 0 0 1 809.5,73.7969 L809.5,208.5 A2.5,2.5 0 0 1 807,211 L661,211 A2.5,2.5 0 0 1 658.5,208.5 L658.5,51.5 A2.5,2.5 0 0 1 661,49 " fill="#B6D7A8" style="stroke:#000000;stroke-width:1.5;"/><line style="stroke:#000000;stroke-width:1.5;" x1="658.5" x2="736.5" y1="71.2969" y2="71.2969"/><a href="https://bo4e.github.io/BO4E-python/latest/api/bo4e.bo.html" target="_top" title="https://bo4e.github.io/BO4E-python/latest/api/bo4e.bo.html" xlink:actuate="onRequest" xlink:href="https://bo4e.github.io/BO4E-python/latest/api/bo4e.bo.html" xlink:show="new" xlink:title="https://bo4e.github.io/BO4E-python/latest/api/bo4e.bo.html" xlink:type="simple"><text fill="#0000FF" font-family="sans-serif" font-size="14" font-weight="bold" lengthAdjust="spacing" text-decoration="underline" textLength="65" x="662.5" y="63.9951">bo4e.bo</text></a></g><!--cluster enum--><g id="cluster_enum"><path d="M622.5,235 L712.5,235 A3.75,3.75 0 0 1 715,237.5 L722,257.2969 L845.5,257.2969 A2.5,2.5 0 0 1 848,259.7969 L848,394.5 A2.5,2.5 0 0 1 845.5,397 L622.5,397 A2.5,2.5 0 0 1 620,394.5 L620,237.5 A2.5,2.5 0 0 1 622.5,235 " fill="#D1C358" style="stroke:#000000;stroke-width:1.5;"/><line style="stroke:#000000;stroke-width:1.5;" x1="620" x2="722" y1="257.2969" y2="257.2969"/><a href="https://bo4e.github.io/BO4E-python/latest/api/bo4e.enum.html" target="_top" title="https://bo4e.github.io/BO4E-python/latest/api/bo4e.enum.html" xlink:actuate="onRequest" xlink:href="https://bo4e.github.io/BO4E-python/latest/api/bo4e.enum.html" xlink:show="new" xlink:title="https://bo4e.github.io/BO4E-python/latest/api/bo4e.enum.html" xlink:type="simple"><text fill="#0000FF" font-family="sans-serif" font-size="14" font-weight="bold" lengthAdjust="spacing" text-decoration="underline" textLength="89" x="624" y="249.9951">bo4e.enum</text></a></g><!--class Geraet--><g id="elem_Geraet"><rect codeLine="10" fill="#F1F1F1" height="37.9375" id="Geraet" rx="2.5" ry="2.5" style="stroke:#181818;stroke-width:0.5;" width="106" x="681" y="84.03"/><ellipse cx="696" cy="102.9987" fill="#ADD1B2" rx="11" ry="11" style="stroke:#181818;stroke-width:1.0;"/><path d="M698.9688,108.6394 Q698.3906,108.9362 697.75,109.0769 Q697.1094,109.2331 696.4063,109.2331 Q693.9063,109.2331 692.5781,107.5925 Q691.2656,105.9362 691.2656,102.8112 Q691.2656,99.6862 692.5781,98.03 Q693.9063,96.3737 696.4063,96.3737 Q697.1094,96.3737 697.75,96.53 Q698.4063,96.6862 698.9688,96.9831 L698.9688,99.7019 Q698.3438,99.1237 697.75,98.8581 Q697.1563,98.5769 696.5313,98.5769 Q695.1875,98.5769 694.5,99.655 Q693.8125,100.7175 693.8125,102.8112 Q693.8125,104.905 694.5,105.9831 Q695.1875,107.0456 696.5313,107.0456 Q697.1563,107.0456 697.75,106.78 Q698.3438,106.4987 698.9688,105.9206 L698.9688,108.6394 Z " fill="#000000"/><a href="https://bo4e.github.io/BO4E-python/latest/api/bo4e.bo.html#bo4e.bo.geraet.Geraet" target="_top" title="https://bo4e.github.io/BO4E-python/latest/api/bo4e.bo.html#bo4e.bo.geraet.Geraet" xlink:actuate="onRequest" xlink:href="https://bo4e.github.io/BO4E-python/latest/api/bo4e.bo.html#bo4e.bo.geraet.Geraet" xlink:show="new" xlink:title="https://bo4e.github.io/BO4E-python/latest/api/bo4e.bo.html#bo4e.bo.geraet.Geraet" xlink:type="simple"><text fill="#0000FF" font-family="sans-serif" font-size="14" lengthAdjust="spacing" text-decoration="underline" textLength="47" x="723.5" y="102.0251">Geraet</text></a><text fill="#000000" font-family="sans-serif" font-size="10" lengthAdjust="spacing" textLength="74" x="710" y="114.6091">bo4e.bo.geraet</text></g><!--class Preisblatt--><g id="elem_Preisblatt"><rect codeLine="11" fill="#F1F1F1" height="37.9375" id="Preisblatt" rx="2.5" ry="2.5" style="stroke:#181818;stroke-width:0.5;" width="119" x="674.5" y="157.03"/><ellipse cx="689.5" cy="175.9987" fill="#ADD1B2" rx="11" ry="11" style="stroke:#181818;stroke-width:1.0;"/><path d="M692.4688,181.6394 Q691.8906,181.9362 691.25,182.0769 Q690.6094,182.2331 689.9063,182.2331 Q687.4063,182.2331 686.0781,180.5925 Q684.7656,178.9362 684.7656,175.8112 Q684.7656,172.6862 686.0781,171.03 Q687.4063,169.3737 689.9063,169.3737 Q690.6094,169.3737 691.25,169.53 Q691.9063,169.6862 692.4688,169.9831 L692.4688,172.7019 Q691.8438,172.1237 691.25,171.8581 Q690.6563,171.5769 690.0313,171.5769 Q688.6875,171.5769 688,172.655 Q687.3125,173.7175 687.3125,175.8112 Q687.3125,177.905 688,178.9831 Q688.6875,180.0456 690.0313,180.0456 Q690.6563,180.0456 691.25,179.78 Q691.8438,179.4987 692.4688,178.9206 L692.4688,181.6394 Z " fill="#000000"/><a href="https://bo4e.github.io/BO4E-python/latest/api/bo4e.bo.html#bo4e.bo.preisblatt.Preisblatt" target="_top" title="https://bo4e.github.io/BO4E-python/latest/api/bo4e.bo.html#bo4e.bo.preisblatt.Preisblatt" xlink:actuate="onRequest" xlink:href="https://bo4e.github.io/BO4E-python/latest/api/bo4e.bo.html#bo4e.bo.preisblatt.Preisblatt" xlink:show="new" xlink:title="https://bo4e.github.io/BO4E-python/latest/api/bo4e.bo.html#bo4e.bo.preisblatt.Preisblatt" xlink:type="simple"><text fill="#0000FF" font-family="sans-serif" font-size="14" lengthAdjust="spacing" text-decoration="underline" textLength="64" x="715" y="175.0251">Preisblatt</text></a><text fill="#000000" font-family="sans-serif" font-size="10" lengthAdjust="spacing" textLength="87" x="703.5" y="187.6091">bo4e.bo.preisblatt</text></g><!--class Dienstleistungstyp--><g id="elem_Dienstleistungstyp"><rect codeLine="14" fill="#F1F1F1" height="37.9375" id="Dienstleistungstyp" rx="2.5" ry="2.5" style="stroke:#181818;stroke-width:0.5;" width="177" x="645.5" y="270.03"/><ellipse cx="660.5" cy="288.9988" fill="#ADD1B2" rx="11" ry="11" style="stroke:#181818;stroke-width:1.0;"/><path d="M663.4688,294.6394 Q662.8906,294.9363 662.25,295.0769 Q661.6094,295.2331 660.9063,295.2331 Q658.4063,295.2331 657.0781,293.5925 Q655.7656,291.9363 655.7656,288.8113 Q655.7656,285.6863 657.0781,284.03 Q658.4063,282.3738 660.9063,282.3738 Q661.6094,282.3738 662.25,282.53 Q662.9063,282.6863 663.4688,282.9831 L663.4688,285.7019 Q662.8438,285.1238 662.25,284.8581 Q661.6563,284.5769 661.0313,284.5769 Q659.6875,284.5769 659,285.655 Q658.3125,286.7175 658.3125,288.8113 Q658.3125,290.905 659,291.9831 Q659.6875,293.0456 661.0313,293.0456 Q661.6563,293.0456 662.25,292.78 Q662.8438,292.4988 663.4688,291.9206 L663.4688,294.6394 Z " fill="#000000"/><a href="https://bo4e.github.io/BO4E-python/latest/api/bo4e.enum.html#bo4e.enum.dienstleistungstyp.Dienstleistungstyp" target="_top" title="https://bo4e.github.io/BO4E-python/latest/api/bo4e.enum.html#bo4e.enum.dienstleistungstyp.Dienstleistungstyp" xlink:actuate="onRequest" xlink:href="https://bo4e.github.io/BO4E-python/latest/api/bo4e.enum.html#bo4e.enum.dienstleistungstyp.Dienstleistungstyp" xlink:show="new" xlink:title="https://bo4e.github.io/BO4E-python/latest/api/bo4e.enum.html#bo4e.enum.dienstleistungstyp.Dienstleistungstyp" xlink:type="simple"><text fill="#0000FF" font-family="sans-serif" font-size="14" lengthAdjust="spacing" text-decoration="underline" textLength="129" x="682.5" y="288.0251">Dienstleistungstyp</text></a><text fill="#000000" font-family="sans-serif" font-size="10" lengthAdjust="spacing" textLength="145" x="674.5" y="300.6091">bo4e.enum.dienstleistungstyp</text></g><!--class Bilanzierungsmethode--><g id="elem_Bilanzierungsmethode"><rect codeLine="15" fill="#F1F1F1" height="37.9375" id="Bilanzierungsmethode" rx="2.5" ry="2.5" style="stroke:#181818;stroke-width:0.5;" width="196" x="636" y="343.03"/><ellipse cx="651" cy="361.9988" fill="#ADD1B2" rx="11" ry="11" style="stroke:#181818;stroke-width:1.0;"/><path d="M653.9688,367.6394 Q653.3906,367.9363 652.75,368.0769 Q652.1094,368.2331 651.4063,368.2331 Q648.9063,368.2331 647.5781,366.5925 Q646.2656,364.9363 646.2656,361.8113 Q646.2656,358.6863 647.5781,357.03 Q648.9063,355.3738 651.4063,355.3738 Q652.1094,355.3738 652.75,355.53 Q653.4063,355.6863 653.9688,355.9831 L653.9688,358.7019 Q653.3438,358.1238 652.75,357.8581 Q652.1563,357.5769 651.5313,357.5769 Q650.1875,357.5769 649.5,358.655 Q648.8125,359.7175 648.8125,361.8113 Q648.8125,363.905 649.5,364.9831 Q650.1875,366.0456 651.5313,366.0456 Q652.1563,366.0456 652.75,365.78 Q653.3438,365.4988 653.9688,364.9206 L653.9688,367.6394 Z " fill="#000000"/><a href="https://bo4e.github.io/BO4E-python/latest/api/bo4e.enum.html#bo4e.enum.bilanzierungsmethode.Bilanzierungsmethode" target="_top" title="https://bo4e.github.io/BO4E-python/latest/api/bo4e.enum.html#bo4e.enum.bilanzierungsmethode.Bilanzierungsmethode" xlink:actuate="onRequest" xlink:href="https://bo4e.github.io/BO4E-python/latest/api/bo4e.enum.html#bo4e.enum.bilanzierungsmethode.Bilanzierungsmethode" xlink:show="new" xlink:title="https://bo4e.github.io/BO4E-python/latest/api/bo4e.enum.html#bo4e.enum.bilanzierungsmethode.Bilanzierungsmethode" xlink:type="simple"><text fill="#0000FF" font-family="sans-serif" font-size="14" lengthAdjust="spacing" text-decoration="underline" textLength="156" x="669" y="361.0251">Bilanzierungsmethode</text></a><text fill="#000000" font-family="sans-serif" font-size="10" lengthAdjust="spacing" textLength="164" x="665" y="373.6091">bo4e.enum.bilanzierungsmethode</text></g><!--class PreisblattDienstleistung--><g id="elem_PreisblattDienstleistung"><rect codeLine="3" fill="#F1F1F1" height="94.8281" id="PreisblattDienstleistung" rx="2.5" ry="2.5" style="stroke:#181818;stroke-width:0.5;" width="380" x="7" y="184.59"/><ellipse cx="110.75" cy="203.5588" fill="#ADD1B2" rx="11" ry="11" style="stroke:#181818;stroke-width:1.0;"/><path d="M113.7188,209.1994 Q113.1406,209.4963 112.5,209.6369 Q111.8594,209.7931 111.1563,209.7931 Q108.6563,209.7931 107.3281,208.1525 Q106.0156,206.4963 106.0156,203.3713 Q106.0156,200.2463 107.3281,198.59 Q108.6563,196.9338 111.1563,196.9338 Q111.8594,196.9338 112.5,197.09 Q113.1563,197.2463 113.7188,197.5431 L113.7188,200.2619 Q113.0938,199.6838 112.5,199.4181 Q111.9063,199.1369 111.2813,199.1369 Q109.9375,199.1369 109.25,200.215 Q108.5625,201.2775 108.5625,203.3713 Q108.5625,205.465 109.25,206.5431 Q109.9375,207.6056 111.2813,207.6056 Q111.9063,207.6056 112.5,207.34 Q113.0938,207.0588 113.7188,206.4806 L113.7188,209.1994 Z " fill="#000000"/><a href="https://bo4e.github.io/BO4E-python/latest/api/bo4e.bo.html#bo4e.bo.preisblattdienstleistung.PreisblattDienstleistung" target="_top" title="https://bo4e.github.io/BO4E-python/latest/api/bo4e.bo.html#bo4e.bo.preisblattdienstleistung.PreisblattDienstleistung" xlink:actuate="onRequest" xlink:href="https://bo4e.github.io/BO4E-python/latest/api/bo4e.bo.html#bo4e.bo.preisblattdienstleistung.PreisblattDienstleistung" xlink:show="new" xlink:title="https://bo4e.github.io/BO4E-python/latest/api/bo4e.bo.html#bo4e.bo.preisblattdienstleistung.PreisblattDienstleistung" xlink:type="simple"><text fill="#0000FF" font-family="sans-serif" font-size="14" lengthAdjust="spacing" text-decoration="underline" textLength="164" x="131.25" y="202.5851">PreisblattDienstleistung</text></a><text fill="#000000" font-family="sans-serif" font-size="10" lengthAdjust="spacing" textLength="153" x="136.75" y="215.1691">bo4e.bo.preisblattdienstleistung</text><line style="stroke:#181818;stroke-width:0.5;" x1="8" x2="386" y1="222.5275" y2="222.5275"/><text fill="#000000" font-family="sans-serif" font-size="14" lengthAdjust="spacing" textLength="368" x="13" y="239.5226">_version : str [0..1] = 202401.6.1.dev11+g694646d2</text><text fill="#000000" font-family="sans-serif" font-size="14" lengthAdjust="spacing" textLength="311" x="13" y="255.8195">zusatzAttribute : ZusatzAttribut [0..*] = None</text><text fill="#000000" font-family="sans-serif" font-size="14" lengthAdjust="spacing" textLength="147" x="13" y="272.1164">_id : str [0..1] = None</text></g><!--link PreisblattDienstleistung to Preisblatt--><g id="link_PreisblattDienstleistung_Preisblatt"><path codeLine="18" d="M387.31,210.2 C397.35,209.1 407.3,208.03 417,207 C506.63,197.49 592.7496,189.171 656.2296,183.181 " fill="none" id="PreisblattDienstleistung-to-Preisblatt" style="stroke:#181818;stroke-width:1.0;"/><polygon fill="none" points="674.15,181.49,655.6659,177.2075,656.7933,189.1544,674.15,181.49" style="stroke:#181818;stroke-width:1.0;"/></g><!--link PreisblattDienstleistung to Bilanzierungsmethode--><g id="link_PreisblattDienstleistung_Bilanzierungsmethode"><path codeLine="19" d="M292.87,279.9 C330.62,297.04 375.01,314.85 417,326 C488.78,345.05 560.3867,353.2201 623.5567,357.4401 " fill="none" id="PreisblattDienstleistung-to-Bilanzierungsmethode" style="stroke:#181818;stroke-width:1.0;"/><polygon fill="#181818" points="635.53,358.24,629.81,353.849,623.5567,357.4401,629.2767,361.8312,635.53,358.24" style="stroke:#181818;stroke-width:1.0;"/><text fill="#000000" font-family="sans-serif" font-size="13" lengthAdjust="spacing" textLength="142" x="427.5" y="322.0669">bilanzierungsmethode</text><text fill="#000000" font-family="sans-serif" font-size="13" lengthAdjust="spacing" textLength="24" x="604.1078" y="370.5627">0..1</text></g><!--link PreisblattDienstleistung to Dienstleistungstyp--><g id="link_PreisblattDienstleistung_Dienstleistungstyp"><path codeLine="20" d="M387.02,250.72 C448.57,256.97 517.21,264.1 580,271 C601.14,273.32 611.9815,274.5437 633.3215,277.0437 " fill="none" id="PreisblattDienstleistung-to-Dienstleistungstyp" style="stroke:#181818;stroke-width:1.0;"/><polygon fill="#181818" points="645.24,278.44,639.7462,273.769,633.3215,277.0437,638.8153,281.7147,645.24,278.44" style="stroke:#181818;stroke-width:1.0;"/><text fill="#000000" font-family="sans-serif" font-size="13" lengthAdjust="spacing" textLength="122" x="437.5" y="251.0669">basisdienstleistung</text><text fill="#000000" font-family="sans-serif" font-size="13" lengthAdjust="spacing" textLength="24" x="613.5256" y="290.2778">0..1</text></g><!--link PreisblattDienstleistung to Dienstleistungstyp--><g id="link_PreisblattDienstleistung_Dienstleistungstyp"><path codeLine="21" d="M340.14,279.86 C365.46,286.57 391.81,292.39 417,296 C488.71,306.26 507.57,297.66 580,296 C601.13,295.52 611.9121,295.1993 633.2521,294.2393 " fill="none" id="PreisblattDienstleistung-to-Dienstleistungstyp-1" style="stroke:#181818;stroke-width:1.0;"/><polygon fill="#181818" points="645.24,293.7,639.0663,289.9737,633.2521,294.2393,639.4258,297.9656,645.24,293.7" style="stroke:#181818;stroke-width:1.0;"/><text fill="#000000" font-family="sans-serif" font-size="13" lengthAdjust="spacing" textLength="161" x="418" y="292.0669">inklusiveDienstleistungen</text><text fill="#000000" font-family="sans-serif" font-size="13" lengthAdjust="spacing" textLength="23" x="614.5638" y="306.7061">0..*</text></g><!--link PreisblattDienstleistung to Geraet--><g id="link_PreisblattDienstleistung_Geraet"><path codeLine="22" d="M376.54,184.12 C390.21,180.63 403.82,177.22 417,174 C509.44,151.38 606.0379,130.1616 668.8479,116.6616 " fill="none" id="PreisblattDienstleistung-to-Geraet" style="stroke:#181818;stroke-width:1.0;"/><polygon fill="#181818" points="680.58,114.14,673.8734,111.4901,668.8479,116.6616,675.5545,119.3115,680.58,114.14" style="stroke:#181818;stroke-width:1.0;"/><text fill="#000000" font-family="sans-serif" font-size="13" lengthAdjust="spacing" textLength="92" x="452.5" y="134.0669">geraetedetails</text><text fill="#000000" font-family="sans-serif" font-size="13" lengthAdjust="spacing" textLength="24" x="649.0158" y="128.37">0..1</text></g><!--SRC=[hLHDRvj043s7Np6oRwwy69UI5hMHOhdghUsvBgeMCu5HOK7iu2fk-z-xO2U66E96zcarNs_dpPlT5EyOE8UIueGXeXBNJBcoh7KgjORHQfKm5zgtxJ1tKSJ4IHKAokt55_VZjBZd95TsAXarsxAWNLQOYuIpTFnW52MI3aqMHuHASsfChbGilZu6bfq030M2uBjwhscBlZExEGK_0ga7aU2tTVLZWwKsRC47pIMiPa8u0No0-MpkpXpX2KT4k76SLx7tplLSBvfRLzjAIzxUCfSKLeocz5l7qw1CQfJFkK9p1qLFuPl0NyjICaDTo3MUDsRO6q7G4DvRC5vuo-lRjpNFIsePOocHnQVcWDtHgyekiMbfbtNPFWwYjxQefVQ9JNco6qQESzL0LMKjFMgphKXjmpXorg_VdAt9urNZWzbTVSttXLWUkU3OTJod0RY6od7zvPc4b4gr9Iph6p8qTH6AHOyJ-fm3VFf06qPz6FNZ7FwRfjC_Dm-lh9NrJ8KfcS2eVlwZmpBqK_AXhzCNO_T8Rv2b9jqLzd-09oU1IVrCAqqRx4PHlQHlCypzf-B3xk_025bIgYqh8JEQ3BFG_DUMJl9VC0nyHvX6-Xy0]--></g></svg>