<?xml version="1.0" encoding="us-ascii" standalone="no"?><svg xmlns="http://www.w3.org/2000/svg" xmlns:xlink="http://www.w3.org/1999/xlink" contentStyleType="text/css" height="501px" preserveAspectRatio="none" style="width:864px;height:501px;background:#FFFFFF;" version="1.1" viewBox="0 0 864 501" width="864px" zoomAndPan="magnify"><defs/><g><!--cluster bo4e--><g id="cluster_bo4e"><path d="M583.5,6 L624.5,6 A3.75,3.75 0 0 1 627,8.5 L634,28.2969 L854.5,28.2969 A2.5,2.5 0 0 1 857,30.7969 L857,491.5 A2.5,2.5 0 0 1 854.5,494 L583.5,494 A2.5,2.5 0 0 1 581,491.5 L581,8.5 A2.5,2.5 0 0 1 583.5,6 " fill="none" style="stroke:#000000;stroke-width:1.5;"/><line style="stroke:#000000;stroke-width:1.5;" x1="581" x2="634" y1="28.2969" y2="28.2969"/><text fill="#000000" font-family="sans-serif" font-size="14" font-weight="bold" lengthAdjust="spacing" textLength="40" x="585" y="20.9951">bo4e</text></g><!--cluster bo--><g id="cluster_bo"><path d="M646,49 L712,49 A3.75,3.75 0 0 1 714.5,51.5 L721.5,71.2969 L792,71.2969 A2.5,2.5 0 0 1 794.5,73.7969 L794.5,208.5 A2.5,2.5 0 0 1 792,211 L646,211 A2.5,2.5 0 0 1 643.5,208.5 L643.5,51.5 A2.5,2.5 0 0 1 646,49 " fill="#B6D7A8" style="stroke:#000000;stroke-width:1.5;"/><line style="stroke:#000000;stroke-width:1.5;" x1="643.5" x2="721.5" y1="71.2969" y2="71.2969"/><a href="https://bo4e.github.io/BO4E-python/latest/api/bo4e.bo.html" target="_top" title="https://bo4e.github.io/BO4E-python/latest/api/bo4e.bo.html" xlink:actuate="onRequest" xlink:href="https://bo4e.github.io/BO4E-python/latest/api/bo4e.bo.html" xlink:show="new" xlink:title="https://bo4e.github.io/BO4E-python/latest/api/bo4e.bo.html" xlink:type="simple"><text fill="#0000FF" font-family="sans-serif" font-size="14" font-weight="bold" lengthAdjust="spacing" text-decoration="underline" textLength="65" x="647.5" y="63.9951">bo4e.bo</text></a></g><!--cluster enum--><g id="cluster_enum"><path d="M607.5,235 L697.5,235 A3.75,3.75 0 0 1 700,237.5 L707,257.2969 L830.5,257.2969 A2.5,2.5 0 0 1 833,259.7969 L833,467.5 A2.5,2.5 0 0 1 830.5,470 L607.5,470 A2.5,2.5 0 0 1 605,467.5 L605,237.5 A2.5,2.5 0 0 1 607.5,235 " fill="#D1C358" style="stroke:#000000;stroke-width:1.5;"/><line style="stroke:#000000;stroke-width:1.5;" x1="605" x2="707" y1="257.2969" y2="257.2969"/><a href="https://bo4e.github.io/BO4E-python/latest/api/bo4e.enum.html" target="_top" title="https://bo4e.github.io/BO4E-python/latest/api/bo4e.enum.html" xlink:actuate="onRequest" xlink:href="https://bo4e.github.io/BO4E-python/latest/api/bo4e.enum.html" xlink:show="new" xlink:title="https://bo4e.github.io/BO4E-python/latest/api/bo4e.enum.html" xlink:type="simple"><text fill="#0000FF" font-family="sans-serif" font-size="14" font-weight="bold" lengthAdjust="spacing" text-decoration="underline" textLength="89" x="609" y="249.9951">bo4e.enum</text></a></g><!--class Preisblatt--><g id="elem_Preisblatt"><rect codeLine="10" fill="#F1F1F1" height="37.9375" id="Preisblatt" rx="2.5" ry="2.5" style="stroke:#181818;stroke-width:0.5;" width="119" x="659.5" y="84.03"/><ellipse cx="674.5" cy="102.9987" fill="#ADD1B2" rx="11" ry="11" style="stroke:#181818;stroke-width:1.0;"/><path d="M677.4688,108.6394 Q676.8906,108.9362 676.25,109.0769 Q675.6094,109.2331 674.9063,109.2331 Q672.4063,109.2331 671.0781,107.5925 Q669.7656,105.9362 669.7656,102.8112 Q669.7656,99.6862 671.0781,98.03 Q672.4063,96.3737 674.9063,96.3737 Q675.6094,96.3737 676.25,96.53 Q676.9063,96.6862 677.4688,96.9831 L677.4688,99.7019 Q676.8438,99.1237 676.25,98.8581 Q675.6563,98.5769 675.0313,98.5769 Q673.6875,98.5769 673,99.655 Q672.3125,100.7175 672.3125,102.8112 Q672.3125,104.905 673,105.9831 Q673.6875,107.0456 675.0313,107.0456 Q675.6563,107.0456 676.25,106.78 Q676.8438,106.4987 677.4688,105.9206 L677.4688,108.6394 Z " fill="#000000"/><a href="https://bo4e.github.io/BO4E-python/latest/api/bo4e.bo.html#bo4e.bo.preisblatt.Preisblatt" target="_top" title="https://bo4e.github.io/BO4E-python/latest/api/bo4e.bo.html#bo4e.bo.preisblatt.Preisblatt" xlink:actuate="onRequest" xlink:href="https://bo4e.github.io/BO4E-python/latest/api/bo4e.bo.html#bo4e.bo.preisblatt.Preisblatt" xlink:show="new" xlink:title="https://bo4e.github.io/BO4E-python/latest/api/bo4e.bo.html#bo4e.bo.preisblatt.Preisblatt" xlink:type="simple"><text fill="#0000FF" font-family="sans-serif" font-size="14" lengthAdjust="spacing" text-decoration="underline" textLength="64" x="700" y="102.0251">Preisblatt</text></a><text fill="#000000" font-family="sans-serif" font-size="10" lengthAdjust="spacing" textLength="87" x="688.5" y="114.6091">bo4e.bo.preisblatt</text></g><!--class Geraet--><g id="elem_Geraet"><rect codeLine="11" fill="#F1F1F1" height="37.9375" id="Geraet" rx="2.5" ry="2.5" style="stroke:#181818;stroke-width:0.5;" width="106" x="666" y="157.03"/><ellipse cx="681" cy="175.9987" fill="#ADD1B2" rx="11" ry="11" style="stroke:#181818;stroke-width:1.0;"/><path d="M683.9688,181.6394 Q683.3906,181.9362 682.75,182.0769 Q682.1094,182.2331 681.4063,182.2331 Q678.9063,182.2331 677.5781,180.5925 Q676.2656,178.9362 676.2656,175.8112 Q676.2656,172.6862 677.5781,171.03 Q678.9063,169.3737 681.4063,169.3737 Q682.1094,169.3737 682.75,169.53 Q683.4063,169.6862 683.9688,169.9831 L683.9688,172.7019 Q683.3438,172.1237 682.75,171.8581 Q682.1563,171.5769 681.5313,171.5769 Q680.1875,171.5769 679.5,172.655 Q678.8125,173.7175 678.8125,175.8112 Q678.8125,177.905 679.5,178.9831 Q680.1875,180.0456 681.5313,180.0456 Q682.1563,180.0456 682.75,179.78 Q683.3438,179.4987 683.9688,178.9206 L683.9688,181.6394 Z " fill="#000000"/><a href="https://bo4e.github.io/BO4E-python/latest/api/bo4e.bo.html#bo4e.bo.geraet.Geraet" target="_top" title="https://bo4e.github.io/BO4E-python/latest/api/bo4e.bo.html#bo4e.bo.geraet.Geraet" xlink:actuate="onRequest" xlink:href="https://bo4e.github.io/BO4E-python/latest/api/bo4e.bo.html#bo4e.bo.geraet.Geraet" xlink:show="new" xlink:title="https://bo4e.github.io/BO4E-python/latest/api/bo4e.bo.html#bo4e.bo.geraet.Geraet" xlink:type="simple"><text fill="#0000FF" font-family="sans-serif" font-size="14" lengthAdjust="spacing" text-decoration="underline" textLength="47" x="708.5" y="175.0251">Geraet</text></a><text fill="#000000" font-family="sans-serif" font-size="10" lengthAdjust="spacing" textLength="74" x="695" y="187.6091">bo4e.bo.geraet</text></g><!--class Typ--><g id="elem_Typ"><rect codeLine="14" fill="#F1F1F1" height="37.9375" id="Typ" rx="2.5" ry="2.5" style="stroke:#181818;stroke-width:0.5;" width="106" x="666" y="270.03"/><ellipse cx="681" cy="288.9988" fill="#ADD1B2" rx="11" ry="11" style="stroke:#181818;stroke-width:1.0;"/><path d="M683.9688,294.6394 Q683.3906,294.9363 682.75,295.0769 Q682.1094,295.2331 681.4063,295.2331 Q678.9063,295.2331 677.5781,293.5925 Q676.2656,291.9363 676.2656,288.8113 Q676.2656,285.6863 677.5781,284.03 Q678.9063,282.3738 681.4063,282.3738 Q682.1094,282.3738 682.75,282.53 Q683.4063,282.6863 683.9688,282.9831 L683.9688,285.7019 Q683.3438,285.1238 682.75,284.8581 Q682.1563,284.5769 681.5313,284.5769 Q680.1875,284.5769 679.5,285.655 Q678.8125,286.7175 678.8125,288.8113 Q678.8125,290.905 679.5,291.9831 Q680.1875,293.0456 681.5313,293.0456 Q682.1563,293.0456 682.75,292.78 Q683.3438,292.4988 683.9688,291.9206 L683.9688,294.6394 Z " fill="#000000"/><a href="https://bo4e.github.io/BO4E-python/latest/api/bo4e.enum.html#bo4e.enum.typ.Typ" target="_top" title="https://bo4e.github.io/BO4E-python/latest/api/bo4e.enum.html#bo4e.enum.typ.Typ" xlink:actuate="onRequest" xlink:href="https://bo4e.github.io/BO4E-python/latest/api/bo4e.enum.html#bo4e.enum.typ.Typ" xlink:show="new" xlink:title="https://bo4e.github.io/BO4E-python/latest/api/bo4e.enum.html#bo4e.enum.typ.Typ" xlink:type="simple"><text fill="#0000FF" font-family="sans-serif" font-size="14" lengthAdjust="spacing" text-decoration="underline" textLength="25" x="719.5" y="288.0251">Typ</text></a><text fill="#000000" font-family="sans-serif" font-size="10" lengthAdjust="spacing" textLength="74" x="695" y="300.6091">bo4e.enum.typ</text></g><!--class Bilanzierungsmethode--><g id="elem_Bilanzierungsmethode"><rect codeLine="15" fill="#F1F1F1" height="37.9375" id="Bilanzierungsmethode" rx="2.5" ry="2.5" style="stroke:#181818;stroke-width:0.5;" width="196" x="621" y="343.03"/><ellipse cx="636" cy="361.9988" fill="#ADD1B2" rx="11" ry="11" style="stroke:#181818;stroke-width:1.0;"/><path d="M638.9688,367.6394 Q638.3906,367.9363 637.75,368.0769 Q637.1094,368.2331 636.4063,368.2331 Q633.9063,368.2331 632.5781,366.5925 Q631.2656,364.9363 631.2656,361.8113 Q631.2656,358.6863 632.5781,357.03 Q633.9063,355.3738 636.4063,355.3738 Q637.1094,355.3738 637.75,355.53 Q638.4063,355.6863 638.9688,355.9831 L638.9688,358.7019 Q638.3438,358.1238 637.75,357.8581 Q637.1563,357.5769 636.5313,357.5769 Q635.1875,357.5769 634.5,358.655 Q633.8125,359.7175 633.8125,361.8113 Q633.8125,363.905 634.5,364.9831 Q635.1875,366.0456 636.5313,366.0456 Q637.1563,366.0456 637.75,365.78 Q638.3438,365.4988 638.9688,364.9206 L638.9688,367.6394 Z " fill="#000000"/><a href="https://bo4e.github.io/BO4E-python/latest/api/bo4e.enum.html#bo4e.enum.bilanzierungsmethode.Bilanzierungsmethode" target="_top" title="https://bo4e.github.io/BO4E-python/latest/api/bo4e.enum.html#bo4e.enum.bilanzierungsmethode.Bilanzierungsmethode" xlink:actuate="onRequest" xlink:href="https://bo4e.github.io/BO4E-python/latest/api/bo4e.enum.html#bo4e.enum.bilanzierungsmethode.Bilanzierungsmethode" xlink:show="new" xlink:title="https://bo4e.github.io/BO4E-python/latest/api/bo4e.enum.html#bo4e.enum.bilanzierungsmethode.Bilanzierungsmethode" xlink:type="simple"><text fill="#0000FF" font-family="sans-serif" font-size="14" lengthAdjust="spacing" text-decoration="underline" textLength="156" x="654" y="361.0251">Bilanzierungsmethode</text></a><text fill="#000000" font-family="sans-serif" font-size="10" lengthAdjust="spacing" textLength="164" x="650" y="373.6091">bo4e.enum.bilanzierungsmethode</text></g><!--class Dienstleistungstyp--><g id="elem_Dienstleistungstyp"><rect codeLine="16" fill="#F1F1F1" height="37.9375" id="Dienstleistungstyp" rx="2.5" ry="2.5" style="stroke:#181818;stroke-width:0.5;" width="177" x="630.5" y="416.03"/><ellipse cx="645.5" cy="434.9988" fill="#ADD1B2" rx="11" ry="11" style="stroke:#181818;stroke-width:1.0;"/><path d="M648.4688,440.6394 Q647.8906,440.9363 647.25,441.0769 Q646.6094,441.2331 645.9063,441.2331 Q643.4063,441.2331 642.0781,439.5925 Q640.7656,437.9363 640.7656,434.8113 Q640.7656,431.6863 642.0781,430.03 Q643.4063,428.3738 645.9063,428.3738 Q646.6094,428.3738 647.25,428.53 Q647.9063,428.6863 648.4688,428.9831 L648.4688,431.7019 Q647.8438,431.1238 647.25,430.8581 Q646.6563,430.5769 646.0313,430.5769 Q644.6875,430.5769 644,431.655 Q643.3125,432.7175 643.3125,434.8113 Q643.3125,436.905 644,437.9831 Q644.6875,439.0456 646.0313,439.0456 Q646.6563,439.0456 647.25,438.78 Q647.8438,438.4988 648.4688,437.9206 L648.4688,440.6394 Z " fill="#000000"/><a href="https://bo4e.github.io/BO4E-python/latest/api/bo4e.enum.html#bo4e.enum.dienstleistungstyp.Dienstleistungstyp" target="_top" title="https://bo4e.github.io/BO4E-python/latest/api/bo4e.enum.html#bo4e.enum.dienstleistungstyp.Dienstleistungstyp" xlink:actuate="onRequest" xlink:href="https://bo4e.github.io/BO4E-python/latest/api/bo4e.enum.html#bo4e.enum.dienstleistungstyp.Dienstleistungstyp" xlink:show="new" xlink:title="https://bo4e.github.io/BO4E-python/latest/api/bo4e.enum.html#bo4e.enum.dienstleistungstyp.Dienstleistungstyp" xlink:type="simple"><text fill="#0000FF" font-family="sans-serif" font-size="14" lengthAdjust="spacing" text-decoration="underline" textLength="129" x="667.5" y="434.0251">Dienstleistungstyp</text></a><text fill="#000000" font-family="sans-serif" font-size="10" lengthAdjust="spacing" textLength="145" x="659.5" y="446.6091">bo4e.enum.dienstleistungstyp</text></g><!--class PreisblattDienstleistung--><g id="elem_PreisblattDienstleistung"><rect codeLine="3" fill="#F1F1F1" height="94.8281" id="PreisblattDienstleistung" rx="2.5" ry="2.5" style="stroke:#181818;stroke-width:0.5;" width="365" x="7" y="258.59"/><ellipse cx="103.25" cy="277.5588" fill="#ADD1B2" rx="11" ry="11" style="stroke:#181818;stroke-width:1.0;"/><path d="M106.2188,283.1994 Q105.6406,283.4963 105,283.6369 Q104.3594,283.7931 103.6563,283.7931 Q101.1563,283.7931 99.8281,282.1525 Q98.5156,280.4963 98.5156,277.3713 Q98.5156,274.2463 99.8281,272.59 Q101.1563,270.9338 103.6563,270.9338 Q104.3594,270.9338 105,271.09 Q105.6563,271.2463 106.2188,271.5431 L106.2188,274.2619 Q105.5938,273.6838 105,273.4181 Q104.4063,273.1369 103.7813,273.1369 Q102.4375,273.1369 101.75,274.215 Q101.0625,275.2775 101.0625,277.3713 Q101.0625,279.465 101.75,280.5431 Q102.4375,281.6056 103.7813,281.6056 Q104.4063,281.6056 105,281.34 Q105.5938,281.0588 106.2188,280.4806 L106.2188,283.1994 Z " fill="#000000"/><a href="https://bo4e.github.io/BO4E-python/latest/api/bo4e.bo.html#bo4e.bo.preisblattdienstleistung.PreisblattDienstleistung" target="_top" title="https://bo4e.github.io/BO4E-python/latest/api/bo4e.bo.html#bo4e.bo.preisblattdienstleistung.PreisblattDienstleistung" xlink:actuate="onRequest" xlink:href="https://bo4e.github.io/BO4E-python/latest/api/bo4e.bo.html#bo4e.bo.preisblattdienstleistung.PreisblattDienstleistung" xlink:show="new" xlink:title="https://bo4e.github.io/BO4E-python/latest/api/bo4e.bo.html#bo4e.bo.preisblattdienstleistung.PreisblattDienstleistung" xlink:type="simple"><text fill="#0000FF" font-family="sans-serif" font-size="14" lengthAdjust="spacing" text-decoration="underline" textLength="164" x="123.75" y="276.5851">PreisblattDienstleistung</text></a><text fill="#000000" font-family="sans-serif" font-size="10" lengthAdjust="spacing" textLength="153" x="129.25" y="289.1691">bo4e.bo.preisblattdienstleistung</text><line style="stroke:#181818;stroke-width:0.5;" x1="8" x2="371" y1="296.5275" y2="296.5275"/><text fill="#000000" font-family="sans-serif" font-size="14" lengthAdjust="spacing" textLength="353" x="13" y="313.5226">_version : str [0..1] = 202401.1.2.dev14+g394efc5</text><text fill="#000000" font-family="sans-serif" font-size="14" lengthAdjust="spacing" textLength="311" x="13" y="329.8195">zusatzAttribute : ZusatzAttribut [0..*] = None</text><text fill="#000000" font-family="sans-serif" font-size="14" lengthAdjust="spacing" textLength="147" x="13" y="346.1164">_id : str [0..1] = None</text></g><!--link PreisblattDienstleistung to Preisblatt--><g id="link_PreisblattDienstleistung_Preisblatt"><path codeLine="19" d="M267.83,258.29 C307.03,235.5 355.96,209.09 402,190 C475.14,159.67 496.63,160.9 573,140 C601.32,132.25 615.4341,128.5221 641.8641,121.8721 " fill="none" id="PreisblattDienstleistung-to-Preisblatt" style="stroke:#181818;stroke-width:1.0;"/><polygon fill="none" points="659.32,117.48,640.4,116.0534,643.3281,127.6907,659.32,117.48" style="stroke:#181818;stroke-width:1.0;"/></g><!--link PreisblattDienstleistung to Typ--><g id="link_PreisblattDienstleistung_Typ"><path codeLine="20" d="M372.4,300.14 C475.78,296.81 585.7762,293.2551 653.6762,291.0751 " fill="none" id="PreisblattDienstleistung-to-Typ" style="stroke:#181818;stroke-width:1.0;"/><polygon fill="#181818" points="665.67,290.69,659.5447,286.8846,653.6762,291.0751,659.8014,294.8805,665.67,290.69" style="stroke:#181818;stroke-width:1.0;"/><text fill="#000000" font-family="sans-serif" font-size="13" lengthAdjust="spacing" textLength="27" x="470" y="291.0669">_typ</text><text fill="#000000" font-family="sans-serif" font-size="13" lengthAdjust="spacing" textLength="24" x="634.1162" y="303.8273">0..1</text></g><!--link PreisblattDienstleistung to Bilanzierungsmethode--><g id="link_PreisblattDienstleistung_Bilanzierungsmethode"><path codeLine="21" d="M372.4,325.31 C455.82,334.17 539.427,343.0437 608.877,350.4137 " fill="none" id="PreisblattDienstleistung-to-Bilanzierungsmethode" style="stroke:#181818;stroke-width:1.0;"/><polygon fill="#181818" points="620.81,351.68,615.2656,347.0692,608.877,350.4137,614.4214,355.0245,620.81,351.68" style="stroke:#181818;stroke-width:1.0;"/><text fill="#000000" font-family="sans-serif" font-size="13" lengthAdjust="spacing" textLength="142" x="412.5" y="325.0669">bilanzierungsmethode</text><text fill="#000000" font-family="sans-serif" font-size="13" lengthAdjust="spacing" textLength="24" x="589.0623" y="363.5534">0..1</text></g><!--link PreisblattDienstleistung to Dienstleistungstyp--><g id="link_PreisblattDienstleistung_Dienstleistungstyp"><path codeLine="22" d="M339.9,353.91 C360.67,359.99 381.8,365.86 402,371 C478.49,390.45 554.7787,405.7153 618.4887,417.4553 " fill="none" id="PreisblattDienstleistung-to-Dienstleistungstyp" style="stroke:#181818;stroke-width:1.0;"/><polygon fill="#181818" points="630.29,419.63,625.1142,414.6089,618.4887,417.4553,623.6645,422.4764,630.29,419.63" style="stroke:#181818;stroke-width:1.0;"/><text fill="#000000" font-family="sans-serif" font-size="13" lengthAdjust="spacing" textLength="122" x="422.5" y="367.0669">basisdienstleistung</text><text fill="#000000" font-family="sans-serif" font-size="13" lengthAdjust="spacing" textLength="24" x="598.5794" y="431.0995">0..1</text></g><!--link PreisblattDienstleistung to Dienstleistungstyp--><g id="link_PreisblattDienstleistung_Dienstleistungstyp"><path codeLine="23" d="M251.32,353.6 C291.6,382.05 346.97,415.58 402,431 C476.89,451.99 553.7675,451.9076 618.1475,446.8076 " fill="none" id="PreisblattDienstleistung-to-Dienstleistungstyp-1" style="stroke:#181818;stroke-width:1.0;"/><polygon fill="#181818" points="630.11,445.86,623.8129,442.3463,618.1475,446.8076,624.4446,450.3213,630.11,445.86" style="stroke:#181818;stroke-width:1.0;"/><text fill="#000000" font-family="sans-serif" font-size="13" lengthAdjust="spacing" textLength="161" x="403" y="427.0669">inklusiveDienstleistungen</text><text fill="#000000" font-family="sans-serif" font-size="13" lengthAdjust="spacing" textLength="23" x="599.4239" y="459.3378">0..*</text></g><!--link PreisblattDienstleistung to Geraet--><g id="link_PreisblattDienstleistung_Geraet"><path codeLine="24" d="M372.4,261.17 C475.78,235.69 586.1185,208.5008 654.0185,191.7708 " fill="none" id="PreisblattDienstleistung-to-Geraet" style="stroke:#181818;stroke-width:1.0;"/><polygon fill="#181818" points="665.67,188.9,658.8873,186.4516,654.0185,191.7708,660.8012,194.2193,665.67,188.9" style="stroke:#181818;stroke-width:1.0;"/><text fill="#000000" font-family="sans-serif" font-size="13" lengthAdjust="spacing" textLength="92" x="437.5" y="211.0669">geraetedetails</text><text fill="#000000" font-family="sans-serif" font-size="13" lengthAdjust="spacing" textLength="24" x="634.1162" y="203.3335">0..1</text></g><!--SRC=[jLLBRvj043w7Np6oRwwy68SqBMeZnNBLMzj3JtLGjC0OLeK5iOChk-r_xm9s0W7gMdOFQ3MlRnxVxX3Zce1Io4KO4GGYHvz4AWt3ZxbIC5gj8g9CEQRffJQoK51KU4oavkAp_M6QRIbAfHbpGaKcpqJjvQKieYGU7uGiHw4yxKM1GAaerY8LCcHVdWpBbW663Axx8DyfiKF7cjqTWny1LuD8yDEuUjnWhdItu82Y75OpnYmNtiDyDhTd5hFOd0MuiUnNuVLR6zV-ZN6rAnIdtJrHBho2K4T-Qsaga4a9yYcLg5E8u2LwPVXj698dg3BkutbJXhtWkbM_Umd6YzVBs_itPPl_Xye6UOqX7o7e1IMNhIt4d2EnZzK1zT5RJ-rOrL9xQJhEPGDbaJJuACKc8wKCuy3ohs_EvkGfrVXPf6t6lcupq5-tvOD7LOxsk7nwJyHSxWJc-cMf17LSW6pHeuG-vK35VQ1L2tqOb- -flKnKEU5bHmLTrK0tNRYgbsvykHk6D-Dq-klkyCWRNd-9q24J69NRP_Hy5wlBui1ZcU_Kq5vU7UYZwsJidWbhPAw4Qi_lNu0dHu65_1uNIcomRKLvIjsQX_tASQ3UB1WWSH4hmuY47as2YQT_D8QAqXym3BmM60Vg3m00]--></g></svg>