<?xml version="1.0" encoding="us-ascii" standalone="no"?><svg xmlns="http://www.w3.org/2000/svg" xmlns:xlink="http://www.w3.org/1999/xlink" contentStyleType="text/css" height="355px" preserveAspectRatio="none" style="width:778px;height:355px;background:#FFFFFF;" version="1.1" viewBox="0 0 778 355" width="778px" zoomAndPan="magnify"><defs/><g><!--cluster bo4e--><g id="cluster_bo4e"><path d="M523.5,6 L564.5,6 A3.75,3.75 0 0 1 567,8.5 L574,28.2969 L768.5,28.2969 A2.5,2.5 0 0 1 771,30.7969 L771,345.5 A2.5,2.5 0 0 1 768.5,348 L523.5,348 A2.5,2.5 0 0 1 521,345.5 L521,8.5 A2.5,2.5 0 0 1 523.5,6 " fill="none" style="stroke:#000000;stroke-width:1.5;"/><line style="stroke:#000000;stroke-width:1.5;" x1="521" x2="574" y1="28.2969" y2="28.2969"/><text fill="#000000" font-family="sans-serif" font-size="14" font-weight="bold" lengthAdjust="spacing" textLength="40" x="525" y="20.9951">bo4e</text></g><!--cluster bo--><g id="cluster_bo"><path d="M573,49 L639,49 A3.75,3.75 0 0 1 641.5,51.5 L648.5,71.2969 L719,71.2969 A2.5,2.5 0 0 1 721.5,73.7969 L721.5,135.5 A2.5,2.5 0 0 1 719,138 L573,138 A2.5,2.5 0 0 1 570.5,135.5 L570.5,51.5 A2.5,2.5 0 0 1 573,49 " fill="#B6D7A8" style="stroke:#000000;stroke-width:1.5;"/><line style="stroke:#000000;stroke-width:1.5;" x1="570.5" x2="648.5" y1="71.2969" y2="71.2969"/><a href="https://bo4e.github.io/BO4E-python/latest/api/bo4e.bo.html" target="_top" title="https://bo4e.github.io/BO4E-python/latest/api/bo4e.bo.html" xlink:actuate="onRequest" xlink:href="https://bo4e.github.io/BO4E-python/latest/api/bo4e.bo.html" xlink:show="new" xlink:title="https://bo4e.github.io/BO4E-python/latest/api/bo4e.bo.html" xlink:type="simple"><text fill="#0000FF" font-family="sans-serif" font-size="14" font-weight="bold" lengthAdjust="spacing" text-decoration="underline" textLength="65" x="574.5" y="63.9951">bo4e.bo</text></a></g><!--cluster enum--><g id="cluster_enum"><path d="M547.5,162 L637.5,162 A3.75,3.75 0 0 1 640,164.5 L647,184.2969 L744.5,184.2969 A2.5,2.5 0 0 1 747,186.7969 L747,321.5 A2.5,2.5 0 0 1 744.5,324 L547.5,324 A2.5,2.5 0 0 1 545,321.5 L545,164.5 A2.5,2.5 0 0 1 547.5,162 " fill="#D1C358" style="stroke:#000000;stroke-width:1.5;"/><line style="stroke:#000000;stroke-width:1.5;" x1="545" x2="647" y1="184.2969" y2="184.2969"/><a href="https://bo4e.github.io/BO4E-python/latest/api/bo4e.enum.html" target="_top" title="https://bo4e.github.io/BO4E-python/latest/api/bo4e.enum.html" xlink:actuate="onRequest" xlink:href="https://bo4e.github.io/BO4E-python/latest/api/bo4e.enum.html" xlink:show="new" xlink:title="https://bo4e.github.io/BO4E-python/latest/api/bo4e.enum.html" xlink:type="simple"><text fill="#0000FF" font-family="sans-serif" font-size="14" font-weight="bold" lengthAdjust="spacing" text-decoration="underline" textLength="89" x="549" y="176.9951">bo4e.enum</text></a></g><!--class Preisblatt--><g id="elem_Preisblatt"><rect codeLine="10" fill="#F1F1F1" height="37.9375" id="Preisblatt" rx="2.5" ry="2.5" style="stroke:#181818;stroke-width:0.5;" width="119" x="586.5" y="84.03"/><ellipse cx="601.5" cy="102.9987" fill="#ADD1B2" rx="11" ry="11" style="stroke:#181818;stroke-width:1.0;"/><path d="M604.4688,108.6394 Q603.8906,108.9362 603.25,109.0769 Q602.6094,109.2331 601.9063,109.2331 Q599.4063,109.2331 598.0781,107.5925 Q596.7656,105.9362 596.7656,102.8112 Q596.7656,99.6862 598.0781,98.03 Q599.4063,96.3737 601.9063,96.3737 Q602.6094,96.3737 603.25,96.53 Q603.9063,96.6862 604.4688,96.9831 L604.4688,99.7019 Q603.8438,99.1237 603.25,98.8581 Q602.6563,98.5769 602.0313,98.5769 Q600.6875,98.5769 600,99.655 Q599.3125,100.7175 599.3125,102.8112 Q599.3125,104.905 600,105.9831 Q600.6875,107.0456 602.0313,107.0456 Q602.6563,107.0456 603.25,106.78 Q603.8438,106.4987 604.4688,105.9206 L604.4688,108.6394 Z " fill="#000000"/><a href="https://bo4e.github.io/BO4E-python/latest/api/bo4e.bo.html#bo4e.bo.preisblatt.Preisblatt" target="_top" title="https://bo4e.github.io/BO4E-python/latest/api/bo4e.bo.html#bo4e.bo.preisblatt.Preisblatt" xlink:actuate="onRequest" xlink:href="https://bo4e.github.io/BO4E-python/latest/api/bo4e.bo.html#bo4e.bo.preisblatt.Preisblatt" xlink:show="new" xlink:title="https://bo4e.github.io/BO4E-python/latest/api/bo4e.bo.html#bo4e.bo.preisblatt.Preisblatt" xlink:type="simple"><text fill="#0000FF" font-family="sans-serif" font-size="14" lengthAdjust="spacing" text-decoration="underline" textLength="64" x="627" y="102.0251">Preisblatt</text></a><text fill="#000000" font-family="sans-serif" font-size="10" lengthAdjust="spacing" textLength="87" x="615.5" y="114.6091">bo4e.bo.preisblatt</text></g><!--class Typ--><g id="elem_Typ"><rect codeLine="13" fill="#F1F1F1" height="37.9375" id="Typ" rx="2.5" ry="2.5" style="stroke:#181818;stroke-width:0.5;" width="106" x="593" y="197.03"/><ellipse cx="608" cy="215.9988" fill="#ADD1B2" rx="11" ry="11" style="stroke:#181818;stroke-width:1.0;"/><path d="M610.9688,221.6394 Q610.3906,221.9363 609.75,222.0769 Q609.1094,222.2331 608.4063,222.2331 Q605.9063,222.2331 604.5781,220.5925 Q603.2656,218.9363 603.2656,215.8113 Q603.2656,212.6863 604.5781,211.03 Q605.9063,209.3738 608.4063,209.3738 Q609.1094,209.3738 609.75,209.53 Q610.4063,209.6863 610.9688,209.9831 L610.9688,212.7019 Q610.3438,212.1238 609.75,211.8581 Q609.1563,211.5769 608.5313,211.5769 Q607.1875,211.5769 606.5,212.655 Q605.8125,213.7175 605.8125,215.8113 Q605.8125,217.905 606.5,218.9831 Q607.1875,220.0456 608.5313,220.0456 Q609.1563,220.0456 609.75,219.78 Q610.3438,219.4988 610.9688,218.9206 L610.9688,221.6394 Z " fill="#000000"/><a href="https://bo4e.github.io/BO4E-python/latest/api/bo4e.enum.html#bo4e.enum.typ.Typ" target="_top" title="https://bo4e.github.io/BO4E-python/latest/api/bo4e.enum.html#bo4e.enum.typ.Typ" xlink:actuate="onRequest" xlink:href="https://bo4e.github.io/BO4E-python/latest/api/bo4e.enum.html#bo4e.enum.typ.Typ" xlink:show="new" xlink:title="https://bo4e.github.io/BO4E-python/latest/api/bo4e.enum.html#bo4e.enum.typ.Typ" xlink:type="simple"><text fill="#0000FF" font-family="sans-serif" font-size="14" lengthAdjust="spacing" text-decoration="underline" textLength="25" x="646.5" y="215.0251">Typ</text></a><text fill="#000000" font-family="sans-serif" font-size="10" lengthAdjust="spacing" textLength="74" x="622" y="227.6091">bo4e.enum.typ</text></g><!--class KundengruppeKA--><g id="elem_KundengruppeKA"><rect codeLine="14" fill="#F1F1F1" height="37.9375" id="KundengruppeKA" rx="2.5" ry="2.5" style="stroke:#181818;stroke-width:0.5;" width="170" x="561" y="270.03"/><ellipse cx="576" cy="288.9988" fill="#ADD1B2" rx="11" ry="11" style="stroke:#181818;stroke-width:1.0;"/><path d="M578.9688,294.6394 Q578.3906,294.9363 577.75,295.0769 Q577.1094,295.2331 576.4063,295.2331 Q573.9063,295.2331 572.5781,293.5925 Q571.2656,291.9363 571.2656,288.8113 Q571.2656,285.6863 572.5781,284.03 Q573.9063,282.3738 576.4063,282.3738 Q577.1094,282.3738 577.75,282.53 Q578.4063,282.6863 578.9688,282.9831 L578.9688,285.7019 Q578.3438,285.1238 577.75,284.8581 Q577.1563,284.5769 576.5313,284.5769 Q575.1875,284.5769 574.5,285.655 Q573.8125,286.7175 573.8125,288.8113 Q573.8125,290.905 574.5,291.9831 Q575.1875,293.0456 576.5313,293.0456 Q577.1563,293.0456 577.75,292.78 Q578.3438,292.4988 578.9688,291.9206 L578.9688,294.6394 Z " fill="#000000"/><a href="https://bo4e.github.io/BO4E-python/latest/api/bo4e.enum.html#bo4e.enum.kundengruppeka.KundengruppeKA" target="_top" title="https://bo4e.github.io/BO4E-python/latest/api/bo4e.enum.html#bo4e.enum.kundengruppeka.KundengruppeKA" xlink:actuate="onRequest" xlink:href="https://bo4e.github.io/BO4E-python/latest/api/bo4e.enum.html#bo4e.enum.kundengruppeka.KundengruppeKA" xlink:show="new" xlink:title="https://bo4e.github.io/BO4E-python/latest/api/bo4e.enum.html#bo4e.enum.kundengruppeka.KundengruppeKA" xlink:type="simple"><text fill="#0000FF" font-family="sans-serif" font-size="14" lengthAdjust="spacing" text-decoration="underline" textLength="122" x="598" y="288.0251">KundengruppeKA</text></a><text fill="#000000" font-family="sans-serif" font-size="10" lengthAdjust="spacing" textLength="138" x="590" y="300.6091">bo4e.enum.kundengruppeka</text></g><!--class PreisblattKonzessionsabgabe--><g id="elem_PreisblattKonzessionsabgabe"><rect codeLine="3" fill="#F1F1F1" height="94.8281" id="PreisblattKonzessionsabgabe" rx="2.5" ry="2.5" style="stroke:#181818;stroke-width:0.5;" width="357" x="7" y="168.59"/><ellipse cx="78.75" cy="187.5588" fill="#ADD1B2" rx="11" ry="11" style="stroke:#181818;stroke-width:1.0;"/><path d="M81.7188,193.1994 Q81.1406,193.4963 80.5,193.6369 Q79.8594,193.7931 79.1563,193.7931 Q76.6563,193.7931 75.3281,192.1525 Q74.0156,190.4963 74.0156,187.3713 Q74.0156,184.2463 75.3281,182.59 Q76.6563,180.9338 79.1563,180.9338 Q79.8594,180.9338 80.5,181.09 Q81.1563,181.2463 81.7188,181.5431 L81.7188,184.2619 Q81.0938,183.6838 80.5,183.4181 Q79.9063,183.1369 79.2813,183.1369 Q77.9375,183.1369 77.25,184.215 Q76.5625,185.2775 76.5625,187.3713 Q76.5625,189.465 77.25,190.5431 Q77.9375,191.6056 79.2813,191.6056 Q79.9063,191.6056 80.5,191.34 Q81.0938,191.0588 81.7188,190.4806 L81.7188,193.1994 Z " fill="#000000"/><a href="https://bo4e.github.io/BO4E-python/latest/api/bo4e.bo.html#bo4e.bo.preisblattkonzessionsabgabe.PreisblattKonzessionsabgabe" target="_top" title="https://bo4e.github.io/BO4E-python/latest/api/bo4e.bo.html#bo4e.bo.preisblattkonzessionsabgabe.PreisblattKonzessionsabgabe" xlink:actuate="onRequest" xlink:href="https://bo4e.github.io/BO4E-python/latest/api/bo4e.bo.html#bo4e.bo.preisblattkonzessionsabgabe.PreisblattKonzessionsabgabe" xlink:show="new" xlink:title="https://bo4e.github.io/BO4E-python/latest/api/bo4e.bo.html#bo4e.bo.preisblattkonzessionsabgabe.PreisblattKonzessionsabgabe" xlink:type="simple"><text fill="#0000FF" font-family="sans-serif" font-size="14" lengthAdjust="spacing" text-decoration="underline" textLength="205" x="99.25" y="186.5851">PreisblattKonzessionsabgabe</text></a><text fill="#000000" font-family="sans-serif" font-size="10" lengthAdjust="spacing" textLength="180" x="111.75" y="199.1691">bo4e.bo.preisblattkonzessionsabgabe</text><line style="stroke:#181818;stroke-width:0.5;" x1="8" x2="363" y1="206.5275" y2="206.5275"/><text fill="#000000" font-family="sans-serif" font-size="14" lengthAdjust="spacing" textLength="345" x="13" y="223.5226">_version : str [0..1] = 202401.2.1.dev2+gf9e75b7</text><text fill="#000000" font-family="sans-serif" font-size="14" lengthAdjust="spacing" textLength="311" x="13" y="239.8195">zusatzAttribute : ZusatzAttribut [0..*] = None</text><text fill="#000000" font-family="sans-serif" font-size="14" lengthAdjust="spacing" textLength="147" x="13" y="256.1164">_id : str [0..1] = None</text></g><!--link PreisblattKonzessionsabgabe to Preisblatt--><g id="link_PreisblattKonzessionsabgabe_Preisblatt"><path codeLine="17" d="M364.42,172.15 C443.09,152.76 512.7732,135.5883 568.7532,121.7883 " fill="none" id="PreisblattKonzessionsabgabe-to-Preisblatt" style="stroke:#181818;stroke-width:1.0;"/><polygon fill="none" points="586.23,117.48,567.3171,115.9627,570.1893,127.6139,586.23,117.48" style="stroke:#181818;stroke-width:1.0;"/></g><!--link PreisblattKonzessionsabgabe to Typ--><g id="link_PreisblattKonzessionsabgabe_Typ"><path codeLine="18" d="M364.42,216 C446.11,216 524.96,216 580.54,216 " fill="none" id="PreisblattKonzessionsabgabe-to-Typ" style="stroke:#181818;stroke-width:1.0;"/><polygon fill="#181818" points="592.54,216,586.54,212,580.54,216,586.54,220,592.54,216" style="stroke:#181818;stroke-width:1.0;"/><text fill="#000000" font-family="sans-serif" font-size="13" lengthAdjust="spacing" textLength="27" x="436" y="212.0669">_typ</text><text fill="#000000" font-family="sans-serif" font-size="13" lengthAdjust="spacing" textLength="24" x="560.9712" y="228.9419">0..1</text></g><!--link PreisblattKonzessionsabgabe to KundengruppeKA--><g id="link_PreisblattKonzessionsabgabe_KundengruppeKA"><path codeLine="19" d="M364.42,244.33 C431.89,255.07 493.7491,264.9244 548.6791,273.6644 " fill="none" id="PreisblattKonzessionsabgabe-to-KundengruppeKA" style="stroke:#181818;stroke-width:1.0;"/><polygon fill="#181818" points="560.53,275.55,555.2331,270.6569,548.6791,273.6644,553.976,278.5575,560.53,275.55" style="stroke:#181818;stroke-width:1.0;"/><text fill="#000000" font-family="sans-serif" font-size="13" lengthAdjust="spacing" textLength="109" x="395" y="247.0669">kundengruppeKA</text><text fill="#000000" font-family="sans-serif" font-size="13" lengthAdjust="spacing" textLength="24" x="529.0675" y="287.1665">0..1</text></g><!--SRC=[jLDDRzim33tNlu98RYqYnrcwjCOM8CLw2h3sqDCo8v1YnXPYIu95jqYs_VV9NjFQAUeLpNRGuOaVZtmaCrmJa8P29Yb1B0jSaTJAyrOPjnPwYqLAP6pe-qAFaIMIqb8mgVshc_7rm6mfrShFEA4bdnlvnqjebbAUzVV052YjS5wqqMg7rZe6oqN21RBR9zlyq0OTjYZwhZvPkSCm64xVmDC3RhlomG_lP7cFHVK58LWgO35aB8ZWCuo6e_4mO2CMi1ZlHsV9-X8dvsBYdUnAosat8ogaA0bTuBVMJvtZjChnLIjq338-J5uRVdcUuZbQmrTudERm2AAexlWHGV_guvV9xABgylyCjZ77Xin_cTB1K9mCnwg0gimREbImgKI5eHy7gm_dHslnHDL_XhGrx6vhmBsNhUyzwdASnx-dtvGgHfKKfJ6uuMpUWFCPjE4hzRLJrAMsuwfTxJpQmU3dTBzt3SVk81Tr2htg9dhFawgb367fD7jFz47x8MpQZNYfZ15op8KxUy-c-W4wMTOIizZ-1W00]--></g></svg>