<svg xmlns="http://www.w3.org/2000/svg" xmlns:xlink="http://www.w3.org/1999/xlink" contentStyleType="text/css" data-diagram-type="CLASS" height="428px" preserveAspectRatio="none" style="width:834px;height:428px;background:#FFFFFF;" version="1.1" viewBox="0 0 834 428" width="834px" zoomAndPan="magnify"><defs/><g><!--cluster bo4e--><g class="cluster" data-entity="bo4e" data-source-line="10" data-uid="ent0005" id="cluster_bo4e"><path d="M546.71,6 L586.586,6 A3.75,3.75 0 0 1 589.086,8.5 L596.086,28.2969 L825.28,28.2969 A2.5,2.5 0 0 1 827.78,30.7969 L827.78,418.5 A2.5,2.5 0 0 1 825.28,421 L546.71,421 A2.5,2.5 0 0 1 544.21,418.5 L544.21,8.5 A2.5,2.5 0 0 1 546.71,6" fill="none" style="stroke:#000000;stroke-width:1.5;"/><line style="stroke:#000000;stroke-width:1.5;" x1="544.21" x2="596.086" y1="28.2969" y2="28.2969"/><text fill="#000000" font-family="sans-serif" font-size="14" font-weight="bold" lengthAdjust="spacing" textLength="38.876" x="548.21" y="20.9951">bo4e</text></g><!--cluster bo--><g class="cluster" data-entity="bo" data-source-line="9" data-uid="ent0003" id="cluster_bo"><path d="M610.74,49 L675.574,49 A3.75,3.75 0 0 1 678.074,51.5 L685.074,71.2969 L761.24,71.2969 A2.5,2.5 0 0 1 763.74,73.7969 L763.74,135.5 A2.5,2.5 0 0 1 761.24,138 L610.74,138 A2.5,2.5 0 0 1 608.24,135.5 L608.24,51.5 A2.5,2.5 0 0 1 610.74,49" fill="#B6D7A8" style="stroke:#000000;stroke-width:1.5;"/><line style="stroke:#000000;stroke-width:1.5;" x1="608.24" x2="685.074" y1="71.2969" y2="71.2969"/><a href="file:////home/runner/work/BO4E-python/BO4E-python/docs/../.tox/docs/tmp/html/api/bo4e.bo.html" target="_top" title="file:////home/runner/work/BO4E-python/BO4E-python/docs/../.tox/docs/tmp/html/api/bo4e.bo.html" xlink:actuate="onRequest" xlink:href="file:////home/runner/work/BO4E-python/BO4E-python/docs/../.tox/docs/tmp/html/api/bo4e.bo.html" xlink:show="new" xlink:title="file:////home/runner/work/BO4E-python/BO4E-python/docs/../.tox/docs/tmp/html/api/bo4e.bo.html" xlink:type="simple"><text fill="#0000FF" font-family="sans-serif" font-size="14" font-weight="bold" lengthAdjust="spacing" text-decoration="underline" textLength="63.834" x="612.24" y="63.9951">bo4e.bo</text></a></g><!--cluster enum--><g class="cluster" data-entity="enum" data-source-line="12" data-uid="ent0006" id="cluster_enum"><path d="M570.71,162 L659.9209,162 A3.75,3.75 0 0 1 662.4209,164.5 L669.4209,184.2969 L801.28,184.2969 A2.5,2.5 0 0 1 803.78,186.7969 L803.78,394.5 A2.5,2.5 0 0 1 801.28,397 L570.71,397 A2.5,2.5 0 0 1 568.21,394.5 L568.21,164.5 A2.5,2.5 0 0 1 570.71,162" fill="#D1C358" style="stroke:#000000;stroke-width:1.5;"/><line style="stroke:#000000;stroke-width:1.5;" x1="568.21" x2="669.4209" y1="184.2969" y2="184.2969"/><a href="file:////home/runner/work/BO4E-python/BO4E-python/docs/../.tox/docs/tmp/html/api/bo4e.enum.html" target="_top" title="file:////home/runner/work/BO4E-python/BO4E-python/docs/../.tox/docs/tmp/html/api/bo4e.enum.html" xlink:actuate="onRequest" xlink:href="file:////home/runner/work/BO4E-python/BO4E-python/docs/../.tox/docs/tmp/html/api/bo4e.enum.html" xlink:show="new" xlink:title="file:////home/runner/work/BO4E-python/BO4E-python/docs/../.tox/docs/tmp/html/api/bo4e.enum.html" xlink:type="simple"><text fill="#0000FF" font-family="sans-serif" font-size="14" font-weight="bold" lengthAdjust="spacing" text-decoration="underline" textLength="88.2109" x="572.21" y="176.9951">bo4e.enum</text></a></g><!--class Preisblatt--><g class="entity" data-entity="Preisblatt" data-source-line="10" data-uid="ent0004" id="entity_Preisblatt"><rect fill="#F1F1F1" height="37.9375" rx="2.5" ry="2.5" style="stroke:#181818;stroke-width:0.5;" width="123.499" x="624.24" y="84.03"/><ellipse cx="639.24" cy="102.9987" fill="#ADD1B2" rx="11" ry="11" style="stroke:#181818;stroke-width:1;"/><path d="M642.2088,108.6394 Q641.6306,108.9362 640.99,109.0769 Q640.3494,109.2331 639.6463,109.2331 Q637.1463,109.2331 635.8181,107.5925 Q634.5056,105.9362 634.5056,102.8112 Q634.5056,99.6862 635.8181,98.03 Q637.1463,96.3737 639.6463,96.3737 Q640.3494,96.3737 640.99,96.53 Q641.6463,96.6862 642.2088,96.9831 L642.2088,99.7019 Q641.5838,99.1237 640.99,98.8581 Q640.3963,98.5769 639.7713,98.5769 Q638.4275,98.5769 637.74,99.655 Q637.0525,100.7175 637.0525,102.8112 Q637.0525,104.905 637.74,105.9831 Q638.4275,107.0456 639.7713,107.0456 Q640.3963,107.0456 640.99,106.78 Q641.5838,106.4987 642.2088,105.9206 L642.2088,108.6394 Z " fill="#000000"/><a href="file:////home/runner/work/BO4E-python/BO4E-python/docs/../.tox/docs/tmp/html/api/bo4e.bo.html#bo4e.bo.preisblatt.Preisblatt" target="_top" title="file:////home/runner/work/BO4E-python/BO4E-python/docs/../.tox/docs/tmp/html/api/bo4e.bo.html#bo4e.bo.preisblatt.Preisblatt" xlink:actuate="onRequest" xlink:href="file:////home/runner/work/BO4E-python/BO4E-python/docs/../.tox/docs/tmp/html/api/bo4e.bo.html#bo4e.bo.preisblatt.Preisblatt" xlink:show="new" xlink:title="file:////home/runner/work/BO4E-python/BO4E-python/docs/../.tox/docs/tmp/html/api/bo4e.bo.html#bo4e.bo.preisblatt.Preisblatt" xlink:type="simple"><text fill="#0000FF" font-family="sans-serif" font-size="14" lengthAdjust="spacing" text-decoration="underline" textLength="66.3291" x="665.825" y="102.0251">Preisblatt</text></a><text fill="#000000" font-family="sans-serif" font-size="10" lengthAdjust="spacing" textLength="91.499" x="653.24" y="114.6091">bo4e.bo.preisblatt</text></g><!--class Kundengruppe--><g class="entity" data-entity="Kundengruppe" data-source-line="13" data-uid="ent0007" id="entity_Kundengruppe"><rect fill="#F1F1F1" height="37.9375" rx="2.5" ry="2.5" style="stroke:#181818;stroke-width:0.5;" width="164.8564" x="603.56" y="197.03"/><ellipse cx="618.56" cy="215.9988" fill="#ADD1B2" rx="11" ry="11" style="stroke:#181818;stroke-width:1;"/><path d="M621.5288,221.6394 Q620.9506,221.9363 620.31,222.0769 Q619.6694,222.2331 618.9663,222.2331 Q616.4663,222.2331 615.1381,220.5925 Q613.8256,218.9363 613.8256,215.8113 Q613.8256,212.6863 615.1381,211.03 Q616.4663,209.3738 618.9663,209.3738 Q619.6694,209.3738 620.31,209.53 Q620.9663,209.6863 621.5288,209.9831 L621.5288,212.7019 Q620.9038,212.1238 620.31,211.8581 Q619.7163,211.5769 619.0913,211.5769 Q617.7475,211.5769 617.06,212.655 Q616.3725,213.7175 616.3725,215.8113 Q616.3725,217.905 617.06,218.9831 Q617.7475,220.0456 619.0913,220.0456 Q619.7163,220.0456 620.31,219.78 Q620.9038,219.4988 621.5288,218.9206 L621.5288,221.6394 Z " fill="#000000"/><a href="file:////home/runner/work/BO4E-python/BO4E-python/docs/../.tox/docs/tmp/html/api/bo4e.enum.html#bo4e.enum.kundengruppe.Kundengruppe" target="_top" title="file:////home/runner/work/BO4E-python/BO4E-python/docs/../.tox/docs/tmp/html/api/bo4e.enum.html#bo4e.enum.kundengruppe.Kundengruppe" xlink:actuate="onRequest" xlink:href="file:////home/runner/work/BO4E-python/BO4E-python/docs/../.tox/docs/tmp/html/api/bo4e.enum.html#bo4e.enum.kundengruppe.Kundengruppe" xlink:show="new" xlink:title="file:////home/runner/work/BO4E-python/BO4E-python/docs/../.tox/docs/tmp/html/api/bo4e.enum.html#bo4e.enum.kundengruppe.Kundengruppe" xlink:type="simple"><text fill="#0000FF" font-family="sans-serif" font-size="14" lengthAdjust="spacing" text-decoration="underline" textLength="103.2021" x="647.3871" y="215.0251">Kundengruppe</text></a><text fill="#000000" font-family="sans-serif" font-size="10" lengthAdjust="spacing" textLength="132.8564" x="632.56" y="227.6091">bo4e.enum.kundengruppe</text></g><!--class Netzebene--><g class="entity" data-entity="Netzebene" data-source-line="14" data-uid="ent0008" id="entity_Netzebene"><rect fill="#F1F1F1" height="37.9375" rx="2.5" ry="2.5" style="stroke:#181818;stroke-width:0.5;" width="144.71" x="613.64" y="270.03"/><ellipse cx="628.64" cy="288.9988" fill="#ADD1B2" rx="11" ry="11" style="stroke:#181818;stroke-width:1;"/><path d="M631.6088,294.6394 Q631.0306,294.9363 630.39,295.0769 Q629.7494,295.2331 629.0463,295.2331 Q626.5463,295.2331 625.2181,293.5925 Q623.9056,291.9363 623.9056,288.8113 Q623.9056,285.6863 625.2181,284.03 Q626.5463,282.3738 629.0463,282.3738 Q629.7494,282.3738 630.39,282.53 Q631.0463,282.6863 631.6088,282.9831 L631.6088,285.7019 Q630.9838,285.1238 630.39,284.8581 Q629.7963,284.5769 629.1713,284.5769 Q627.8275,284.5769 627.14,285.655 Q626.4525,286.7175 626.4525,288.8113 Q626.4525,290.905 627.14,291.9831 Q627.8275,293.0456 629.1713,293.0456 Q629.7963,293.0456 630.39,292.78 Q630.9838,292.4988 631.6088,291.9206 L631.6088,294.6394 Z " fill="#000000"/><a href="file:////home/runner/work/BO4E-python/BO4E-python/docs/../.tox/docs/tmp/html/api/bo4e.enum.html#bo4e.enum.netzebene.Netzebene" target="_top" title="file:////home/runner/work/BO4E-python/BO4E-python/docs/../.tox/docs/tmp/html/api/bo4e.enum.html#bo4e.enum.netzebene.Netzebene" xlink:actuate="onRequest" xlink:href="file:////home/runner/work/BO4E-python/BO4E-python/docs/../.tox/docs/tmp/html/api/bo4e.enum.html#bo4e.enum.netzebene.Netzebene" xlink:show="new" xlink:title="file:////home/runner/work/BO4E-python/BO4E-python/docs/../.tox/docs/tmp/html/api/bo4e.enum.html#bo4e.enum.netzebene.Netzebene" xlink:type="simple"><text fill="#0000FF" font-family="sans-serif" font-size="14" lengthAdjust="spacing" text-decoration="underline" textLength="75.5234" x="661.2333" y="288.0251">Netzebene</text></a><text fill="#000000" font-family="sans-serif" font-size="10" lengthAdjust="spacing" textLength="112.71" x="642.64" y="300.6091">bo4e.enum.netzebene</text></g><!--class Bilanzierungsmethode--><g class="entity" data-entity="Bilanzierungsmethode" data-source-line="15" data-uid="ent0009" id="entity_Bilanzierungsmethode"><rect fill="#F1F1F1" height="37.9375" rx="2.5" ry="2.5" style="stroke:#181818;stroke-width:0.5;" width="203.5723" x="584.21" y="343.03"/><ellipse cx="599.21" cy="361.9988" fill="#ADD1B2" rx="11" ry="11" style="stroke:#181818;stroke-width:1;"/><path d="M602.1788,367.6394 Q601.6006,367.9363 600.96,368.0769 Q600.3194,368.2331 599.6163,368.2331 Q597.1163,368.2331 595.7881,366.5925 Q594.4756,364.9363 594.4756,361.8113 Q594.4756,358.6863 595.7881,357.03 Q597.1163,355.3738 599.6163,355.3738 Q600.3194,355.3738 600.96,355.53 Q601.6163,355.6863 602.1788,355.9831 L602.1788,358.7019 Q601.5538,358.1238 600.96,357.8581 Q600.3663,357.5769 599.7413,357.5769 Q598.3975,357.5769 597.71,358.655 Q597.0225,359.7175 597.0225,361.8113 Q597.0225,363.905 597.71,364.9831 Q598.3975,366.0456 599.7413,366.0456 Q600.3663,366.0456 600.96,365.78 Q601.5538,365.4988 602.1788,364.9206 L602.1788,367.6394 Z " fill="#000000"/><a href="file:////home/runner/work/BO4E-python/BO4E-python/docs/../.tox/docs/tmp/html/api/bo4e.enum.html#bo4e.enum.bilanzierungsmethode.Bilanzierungsmethode" target="_top" title="file:////home/runner/work/BO4E-python/BO4E-python/docs/../.tox/docs/tmp/html/api/bo4e.enum.html#bo4e.enum.bilanzierungsmethode.Bilanzierungsmethode" xlink:actuate="onRequest" xlink:href="file:////home/runner/work/BO4E-python/BO4E-python/docs/../.tox/docs/tmp/html/api/bo4e.enum.html#bo4e.enum.bilanzierungsmethode.Bilanzierungsmethode" xlink:show="new" xlink:title="file:////home/runner/work/BO4E-python/BO4E-python/docs/../.tox/docs/tmp/html/api/bo4e.enum.html#bo4e.enum.bilanzierungsmethode.Bilanzierungsmethode" xlink:type="simple"><text fill="#0000FF" font-family="sans-serif" font-size="14" lengthAdjust="spacing" text-decoration="underline" textLength="157.0488" x="620.4717" y="361.0251">Bilanzierungsmethode</text></a><text fill="#000000" font-family="sans-serif" font-size="10" lengthAdjust="spacing" textLength="171.5723" x="613.21" y="373.6091">bo4e.enum.bilanzierungsmethode</text></g><!--class PreisblattNetznutzung--><g class="entity" data-entity="PreisblattNetznutzung" data-source-line="3" data-uid="ent0002" id="entity_PreisblattNetznutzung"><rect fill="#F1F1F1" height="94.8281" rx="2.5" ry="2.5" style="stroke:#181818;stroke-width:0.5;" width="344.2061" x="7" y="209.59"/><ellipse cx="97.1182" cy="228.5588" fill="#ADD1B2" rx="11" ry="11" style="stroke:#181818;stroke-width:1;"/><path d="M100.0869,234.1994 Q99.5088,234.4963 98.8682,234.6369 Q98.2275,234.7931 97.5244,234.7931 Q95.0244,234.7931 93.6963,233.1525 Q92.3838,231.4963 92.3838,228.3713 Q92.3838,225.2463 93.6963,223.59 Q95.0244,221.9338 97.5244,221.9338 Q98.2275,221.9338 98.8682,222.09 Q99.5244,222.2463 100.0869,222.5431 L100.0869,225.2619 Q99.4619,224.6838 98.8682,224.4181 Q98.2744,224.1369 97.6494,224.1369 Q96.3057,224.1369 95.6182,225.215 Q94.9307,226.2775 94.9307,228.3713 Q94.9307,230.465 95.6182,231.5431 Q96.3057,232.6056 97.6494,232.6056 Q98.2744,232.6056 98.8682,232.34 Q99.4619,232.0588 100.0869,231.4806 L100.0869,234.1994 Z " fill="#000000"/><a href="file:////home/runner/work/BO4E-python/BO4E-python/docs/../.tox/docs/tmp/html/api/bo4e.bo.html#bo4e.bo.preisblattnetznutzung.PreisblattNetznutzung" target="_top" title="file:////home/runner/work/BO4E-python/BO4E-python/docs/../.tox/docs/tmp/html/api/bo4e.bo.html#bo4e.bo.preisblattnetznutzung.PreisblattNetznutzung" xlink:actuate="onRequest" xlink:href="file:////home/runner/work/BO4E-python/BO4E-python/docs/../.tox/docs/tmp/html/api/bo4e.bo.html#bo4e.bo.preisblattnetznutzung.PreisblattNetznutzung" xlink:show="new" xlink:title="file:////home/runner/work/BO4E-python/BO4E-python/docs/../.tox/docs/tmp/html/api/bo4e.bo.html#bo4e.bo.preisblattnetznutzung.PreisblattNetznutzung" xlink:type="simple"><text fill="#0000FF" font-family="sans-serif" font-size="14" lengthAdjust="spacing" text-decoration="underline" textLength="155.4697" x="117.6182" y="227.5851">PreisblattNetznutzung</text></a><text fill="#000000" font-family="sans-serif" font-size="10" lengthAdjust="spacing" textLength="154.0283" x="118.3389" y="240.1691">bo4e.bo.preisblattnetznutzung</text><line style="stroke:#181818;stroke-width:0.5;" x1="8" x2="350.2061" y1="247.5275" y2="247.5275"/><text fill="#000000" font-family="sans-serif" font-size="14" lengthAdjust="spacing" textLength="332.2061" x="13" y="264.5226">_version : str [0..1] = 202501.0.0+g245ac3b0a</text><text fill="#000000" font-family="sans-serif" font-size="14" lengthAdjust="spacing" textLength="318.5752" x="13" y="280.8195">zusatzAttribute : ZusatzAttribut [0..*] = None</text><text fill="#000000" font-family="sans-serif" font-size="14" lengthAdjust="spacing" textLength="151.1768" x="13" y="297.1164">_id : str [0..1] = None</text></g><!--link PreisblattNetznutzung to Preisblatt--><g class="link" data-entity-1="PreisblattNetznutzung" data-entity-2="Preisblatt" data-source-line="18" data-uid="lnk10" id="link_PreisblattNetznutzung_Preisblatt"><path codeLine="18" d="M337.09,209.12 C434.06,179.54 535.8534,148.4926 606.5534,126.9226" fill="none" id="PreisblattNetznutzung-to-Preisblatt" style="stroke:#181818;stroke-width:1;"/><polygon fill="none" points="623.77,121.67,604.8026,121.1838,608.3043,132.6615,623.77,121.67" style="stroke:#181818;stroke-width:1;"/></g><!--link PreisblattNetznutzung to Bilanzierungsmethode--><g class="link" data-entity-1="PreisblattNetznutzung" data-entity-2="Bilanzierungsmethode" data-source-line="19" data-uid="lnk11" id="link_PreisblattNetznutzung_Bilanzierungsmethode"><path codeLine="19" d="M350.41,304.89 C360.8,307.41 371.13,309.8 381.21,312 C448.31,326.66 512.7213,337.4296 572.0513,346.2796" fill="none" id="PreisblattNetznutzung-to-Bilanzierungsmethode" style="stroke:#181818;stroke-width:1;"/><polygon fill="#181818" points="583.92,348.05,578.5758,343.2086,572.0513,346.2796,577.3955,351.121,583.92,348.05" style="stroke:#181818;stroke-width:1;"/><text fill="#000000" font-family="sans-serif" font-size="13" lengthAdjust="spacing" textLength="145.1646" x="382.21" y="308.0669">bilanzierungsmethode</text><text fill="#000000" font-family="sans-serif" font-size="13" lengthAdjust="spacing" textLength="24.8066" x="551.5722" y="359.6482">0..1</text></g><!--link PreisblattNetznutzung to Netzebene--><g class="link" data-entity-1="PreisblattNetznutzung" data-entity-2="Netzebene" data-source-line="20" data-uid="lnk12" id="link_PreisblattNetznutzung_Netzebene"><path codeLine="20" d="M351.7,277.61 C361.68,278.5 371.57,279.31 381.21,280 C460.54,285.7 539.7809,287.6601 601.4009,288.4301" fill="none" id="PreisblattNetznutzung-to-Netzebene" style="stroke:#181818;stroke-width:1;"/><polygon fill="#181818" points="613.4,288.58,607.4504,284.5053,601.4009,288.4301,607.3505,292.5047,613.4,288.58" style="stroke:#181818;stroke-width:1;"/><text fill="#000000" font-family="sans-serif" font-size="13" lengthAdjust="spacing" textLength="68.6436" x="420.71" y="276.0669">netzebene</text><text fill="#000000" font-family="sans-serif" font-size="13" lengthAdjust="spacing" textLength="24.8066" x="580.7177" y="301.384">0..1</text></g><!--link PreisblattNetznutzung to Kundengruppe--><g class="link" data-entity-1="PreisblattNetznutzung" data-entity-2="Kundengruppe" data-source-line="21" data-uid="lnk13" id="link_PreisblattNetznutzung_Kundengruppe"><path codeLine="21" d="M351.39,243.09 C436.47,236.18 523.3495,229.1326 591.2295,223.6126" fill="none" id="PreisblattNetznutzung-to-Kundengruppe" style="stroke:#181818;stroke-width:1;"/><polygon fill="#181818" points="603.19,222.64,596.8855,219.1395,591.2295,223.6126,597.534,227.1132,603.19,222.64" style="stroke:#181818;stroke-width:1;"/><text fill="#000000" font-family="sans-serif" font-size="13" lengthAdjust="spacing" textLength="94.834" x="407.71" y="226.0669">kundengruppe</text><text fill="#000000" font-family="sans-serif" font-size="13" lengthAdjust="spacing" textLength="24.8066" x="570.783" y="235.9723">0..1</text></g><!--SRC=[nLHHRzCm47wUVyMfVHkgdNOjGn5CMWLFI8LdIZGvoJMnbjYHxJ08yD_dX3LrjmIq1zOy-Vjoz-NkE-SAt5cm2hJ8SWkfq9XOeIGXIS6DWSbsknC5XimzkIgHwLfArEnEwLks_hJyCAj-s5p9etEg4iCePTIgxt-0BIkMsx9Wl18iLakaiQ8jCTs3IgCmSS6jbMWRMTkcbXdztBER0mk3R1HzbM-DQ32S1rT_LPq0DyCQy9EStNn3RPm348An6hO1fVC8ti4YMAo2EGrey2fRB5SykOW3JiwQsd3RN5khHLnRT5bVZfXEuBmLs2Y9JbwaZvMx5xy9aRn4K_44_xlhy02YgFFY0S5q_VhzvVMRreMJJTyRkJUZVmptqKITcI_W9SgwzDnieUzdYs6QpfEBrKiusbSpFS3RMgOeCrrN5TAF7W0VFFNsINBNbPzpadRQNnXZb4Wt-nFqfv4k-fokXJxw9FN7ek2o4UY-aPaIdLQAT3r0mX0vqk2GQDVha4QxPKPswcpswsg_2BoGiN0NVmwJTeDD3jTzk9aGXcfydl1Xu27q8tsUnD7z3y6_teJamXLQOXcxtKzChkvWH7idi4ZDFG00]--></g></svg>