<?xml version="1.0" encoding="us-ascii" standalone="no"?><svg xmlns="http://www.w3.org/2000/svg" xmlns:xlink="http://www.w3.org/1999/xlink" contentStyleType="text/css" height="355px" preserveAspectRatio="none" style="width:792px;height:355px;background:#FFFFFF;" version="1.1" viewBox="0 0 792 355" width="792px" zoomAndPan="magnify"><defs/><g><!--cluster bo4e--><g id="cluster_bo4e"><path d="M537.5,6 L578.5,6 A3.75,3.75 0 0 1 581,8.5 L588,28.2969 L782.5,28.2969 A2.5,2.5 0 0 1 785,30.7969 L785,345.5 A2.5,2.5 0 0 1 782.5,348 L537.5,348 A2.5,2.5 0 0 1 535,345.5 L535,8.5 A2.5,2.5 0 0 1 537.5,6 " fill="none" style="stroke:#000000;stroke-width:1.5;"/><line style="stroke:#000000;stroke-width:1.5;" x1="535" x2="588" y1="28.2969" y2="28.2969"/><text fill="#000000" font-family="sans-serif" font-size="14" font-weight="bold" lengthAdjust="spacing" textLength="40" x="539" y="20.9951">bo4e</text></g><!--cluster bo--><g id="cluster_bo"><path d="M587,49 L653,49 A3.75,3.75 0 0 1 655.5,51.5 L662.5,71.2969 L733,71.2969 A2.5,2.5 0 0 1 735.5,73.7969 L735.5,135.5 A2.5,2.5 0 0 1 733,138 L587,138 A2.5,2.5 0 0 1 584.5,135.5 L584.5,51.5 A2.5,2.5 0 0 1 587,49 " fill="#B6D7A8" style="stroke:#000000;stroke-width:1.5;"/><line style="stroke:#000000;stroke-width:1.5;" x1="584.5" x2="662.5" y1="71.2969" y2="71.2969"/><a href="https://bo4e.github.io/BO4E-python/latest/api/bo4e.bo.html" target="_top" title="https://bo4e.github.io/BO4E-python/latest/api/bo4e.bo.html" xlink:actuate="onRequest" xlink:href="https://bo4e.github.io/BO4E-python/latest/api/bo4e.bo.html" xlink:show="new" xlink:title="https://bo4e.github.io/BO4E-python/latest/api/bo4e.bo.html" xlink:type="simple"><text fill="#0000FF" font-family="sans-serif" font-size="14" font-weight="bold" lengthAdjust="spacing" text-decoration="underline" textLength="65" x="588.5" y="63.9951">bo4e.bo</text></a></g><!--cluster enum--><g id="cluster_enum"><path d="M561.5,162 L651.5,162 A3.75,3.75 0 0 1 654,164.5 L661,184.2969 L758.5,184.2969 A2.5,2.5 0 0 1 761,186.7969 L761,321.5 A2.5,2.5 0 0 1 758.5,324 L561.5,324 A2.5,2.5 0 0 1 559,321.5 L559,164.5 A2.5,2.5 0 0 1 561.5,162 " fill="#D1C358" style="stroke:#000000;stroke-width:1.5;"/><line style="stroke:#000000;stroke-width:1.5;" x1="559" x2="661" y1="184.2969" y2="184.2969"/><a href="https://bo4e.github.io/BO4E-python/latest/api/bo4e.enum.html" target="_top" title="https://bo4e.github.io/BO4E-python/latest/api/bo4e.enum.html" xlink:actuate="onRequest" xlink:href="https://bo4e.github.io/BO4E-python/latest/api/bo4e.enum.html" xlink:show="new" xlink:title="https://bo4e.github.io/BO4E-python/latest/api/bo4e.enum.html" xlink:type="simple"><text fill="#0000FF" font-family="sans-serif" font-size="14" font-weight="bold" lengthAdjust="spacing" text-decoration="underline" textLength="89" x="563" y="176.9951">bo4e.enum</text></a></g><!--class Preisblatt--><g id="elem_Preisblatt"><rect codeLine="10" fill="#F1F1F1" height="37.9375" id="Preisblatt" rx="2.5" ry="2.5" style="stroke:#181818;stroke-width:0.5;" width="119" x="600.5" y="84.03"/><ellipse cx="615.5" cy="102.9987" fill="#ADD1B2" rx="11" ry="11" style="stroke:#181818;stroke-width:1.0;"/><path d="M618.4688,108.6394 Q617.8906,108.9362 617.25,109.0769 Q616.6094,109.2331 615.9063,109.2331 Q613.4063,109.2331 612.0781,107.5925 Q610.7656,105.9362 610.7656,102.8112 Q610.7656,99.6862 612.0781,98.03 Q613.4063,96.3737 615.9063,96.3737 Q616.6094,96.3737 617.25,96.53 Q617.9063,96.6862 618.4688,96.9831 L618.4688,99.7019 Q617.8438,99.1237 617.25,98.8581 Q616.6563,98.5769 616.0313,98.5769 Q614.6875,98.5769 614,99.655 Q613.3125,100.7175 613.3125,102.8112 Q613.3125,104.905 614,105.9831 Q614.6875,107.0456 616.0313,107.0456 Q616.6563,107.0456 617.25,106.78 Q617.8438,106.4987 618.4688,105.9206 L618.4688,108.6394 Z " fill="#000000"/><a href="https://bo4e.github.io/BO4E-python/latest/api/bo4e.bo.html#bo4e.bo.preisblatt.Preisblatt" target="_top" title="https://bo4e.github.io/BO4E-python/latest/api/bo4e.bo.html#bo4e.bo.preisblatt.Preisblatt" xlink:actuate="onRequest" xlink:href="https://bo4e.github.io/BO4E-python/latest/api/bo4e.bo.html#bo4e.bo.preisblatt.Preisblatt" xlink:show="new" xlink:title="https://bo4e.github.io/BO4E-python/latest/api/bo4e.bo.html#bo4e.bo.preisblatt.Preisblatt" xlink:type="simple"><text fill="#0000FF" font-family="sans-serif" font-size="14" lengthAdjust="spacing" text-decoration="underline" textLength="64" x="641" y="102.0251">Preisblatt</text></a><text fill="#000000" font-family="sans-serif" font-size="10" lengthAdjust="spacing" textLength="87" x="629.5" y="114.6091">bo4e.bo.preisblatt</text></g><!--class KundengruppeKA--><g id="elem_KundengruppeKA"><rect codeLine="13" fill="#F1F1F1" height="37.9375" id="KundengruppeKA" rx="2.5" ry="2.5" style="stroke:#181818;stroke-width:0.5;" width="170" x="575" y="197.03"/><ellipse cx="590" cy="215.9988" fill="#ADD1B2" rx="11" ry="11" style="stroke:#181818;stroke-width:1.0;"/><path d="M592.9688,221.6394 Q592.3906,221.9363 591.75,222.0769 Q591.1094,222.2331 590.4063,222.2331 Q587.9063,222.2331 586.5781,220.5925 Q585.2656,218.9363 585.2656,215.8113 Q585.2656,212.6863 586.5781,211.03 Q587.9063,209.3738 590.4063,209.3738 Q591.1094,209.3738 591.75,209.53 Q592.4063,209.6863 592.9688,209.9831 L592.9688,212.7019 Q592.3438,212.1238 591.75,211.8581 Q591.1563,211.5769 590.5313,211.5769 Q589.1875,211.5769 588.5,212.655 Q587.8125,213.7175 587.8125,215.8113 Q587.8125,217.905 588.5,218.9831 Q589.1875,220.0456 590.5313,220.0456 Q591.1563,220.0456 591.75,219.78 Q592.3438,219.4988 592.9688,218.9206 L592.9688,221.6394 Z " fill="#000000"/><a href="https://bo4e.github.io/BO4E-python/latest/api/bo4e.enum.html#bo4e.enum.kundengruppeka.KundengruppeKA" target="_top" title="https://bo4e.github.io/BO4E-python/latest/api/bo4e.enum.html#bo4e.enum.kundengruppeka.KundengruppeKA" xlink:actuate="onRequest" xlink:href="https://bo4e.github.io/BO4E-python/latest/api/bo4e.enum.html#bo4e.enum.kundengruppeka.KundengruppeKA" xlink:show="new" xlink:title="https://bo4e.github.io/BO4E-python/latest/api/bo4e.enum.html#bo4e.enum.kundengruppeka.KundengruppeKA" xlink:type="simple"><text fill="#0000FF" font-family="sans-serif" font-size="14" lengthAdjust="spacing" text-decoration="underline" textLength="122" x="612" y="215.0251">KundengruppeKA</text></a><text fill="#000000" font-family="sans-serif" font-size="10" lengthAdjust="spacing" textLength="138" x="604" y="227.6091">bo4e.enum.kundengruppeka</text></g><!--class Typ--><g id="elem_Typ"><rect codeLine="14" fill="#F1F1F1" height="37.9375" id="Typ" rx="2.5" ry="2.5" style="stroke:#181818;stroke-width:0.5;" width="106" x="607" y="270.03"/><ellipse cx="622" cy="288.9988" fill="#ADD1B2" rx="11" ry="11" style="stroke:#181818;stroke-width:1.0;"/><path d="M624.9688,294.6394 Q624.3906,294.9363 623.75,295.0769 Q623.1094,295.2331 622.4063,295.2331 Q619.9063,295.2331 618.5781,293.5925 Q617.2656,291.9363 617.2656,288.8113 Q617.2656,285.6863 618.5781,284.03 Q619.9063,282.3738 622.4063,282.3738 Q623.1094,282.3738 623.75,282.53 Q624.4063,282.6863 624.9688,282.9831 L624.9688,285.7019 Q624.3438,285.1238 623.75,284.8581 Q623.1563,284.5769 622.5313,284.5769 Q621.1875,284.5769 620.5,285.655 Q619.8125,286.7175 619.8125,288.8113 Q619.8125,290.905 620.5,291.9831 Q621.1875,293.0456 622.5313,293.0456 Q623.1563,293.0456 623.75,292.78 Q624.3438,292.4988 624.9688,291.9206 L624.9688,294.6394 Z " fill="#000000"/><a href="https://bo4e.github.io/BO4E-python/latest/api/bo4e.enum.html#bo4e.enum.typ.Typ" target="_top" title="https://bo4e.github.io/BO4E-python/latest/api/bo4e.enum.html#bo4e.enum.typ.Typ" xlink:actuate="onRequest" xlink:href="https://bo4e.github.io/BO4E-python/latest/api/bo4e.enum.html#bo4e.enum.typ.Typ" xlink:show="new" xlink:title="https://bo4e.github.io/BO4E-python/latest/api/bo4e.enum.html#bo4e.enum.typ.Typ" xlink:type="simple"><text fill="#0000FF" font-family="sans-serif" font-size="14" lengthAdjust="spacing" text-decoration="underline" textLength="25" x="660.5" y="288.0251">Typ</text></a><text fill="#000000" font-family="sans-serif" font-size="10" lengthAdjust="spacing" textLength="74" x="636" y="300.6091">bo4e.enum.typ</text></g><!--class PreisblattKonzessionsabgabe--><g id="elem_PreisblattKonzessionsabgabe"><rect codeLine="3" fill="#F1F1F1" height="94.8281" id="PreisblattKonzessionsabgabe" rx="2.5" ry="2.5" style="stroke:#181818;stroke-width:0.5;" width="371" x="7" y="168.59"/><ellipse cx="85.75" cy="187.5588" fill="#ADD1B2" rx="11" ry="11" style="stroke:#181818;stroke-width:1.0;"/><path d="M88.7188,193.1994 Q88.1406,193.4963 87.5,193.6369 Q86.8594,193.7931 86.1563,193.7931 Q83.6563,193.7931 82.3281,192.1525 Q81.0156,190.4963 81.0156,187.3713 Q81.0156,184.2463 82.3281,182.59 Q83.6563,180.9338 86.1563,180.9338 Q86.8594,180.9338 87.5,181.09 Q88.1563,181.2463 88.7188,181.5431 L88.7188,184.2619 Q88.0938,183.6838 87.5,183.4181 Q86.9063,183.1369 86.2813,183.1369 Q84.9375,183.1369 84.25,184.215 Q83.5625,185.2775 83.5625,187.3713 Q83.5625,189.465 84.25,190.5431 Q84.9375,191.6056 86.2813,191.6056 Q86.9063,191.6056 87.5,191.34 Q88.0938,191.0588 88.7188,190.4806 L88.7188,193.1994 Z " fill="#000000"/><a href="https://bo4e.github.io/BO4E-python/latest/api/bo4e.bo.html#bo4e.bo.preisblattkonzessionsabgabe.PreisblattKonzessionsabgabe" target="_top" title="https://bo4e.github.io/BO4E-python/latest/api/bo4e.bo.html#bo4e.bo.preisblattkonzessionsabgabe.PreisblattKonzessionsabgabe" xlink:actuate="onRequest" xlink:href="https://bo4e.github.io/BO4E-python/latest/api/bo4e.bo.html#bo4e.bo.preisblattkonzessionsabgabe.PreisblattKonzessionsabgabe" xlink:show="new" xlink:title="https://bo4e.github.io/BO4E-python/latest/api/bo4e.bo.html#bo4e.bo.preisblattkonzessionsabgabe.PreisblattKonzessionsabgabe" xlink:type="simple"><text fill="#0000FF" font-family="sans-serif" font-size="14" lengthAdjust="spacing" text-decoration="underline" textLength="205" x="106.25" y="186.5851">PreisblattKonzessionsabgabe</text></a><text fill="#000000" font-family="sans-serif" font-size="10" lengthAdjust="spacing" textLength="180" x="118.75" y="199.1691">bo4e.bo.preisblattkonzessionsabgabe</text><line style="stroke:#181818;stroke-width:0.5;" x1="8" x2="377" y1="206.5275" y2="206.5275"/><text fill="#000000" font-family="sans-serif" font-size="14" lengthAdjust="spacing" textLength="359" x="13" y="223.5226">_version : str [0..1] = 202401.2.2.dev11+gbe436e4</text><text fill="#000000" font-family="sans-serif" font-size="14" lengthAdjust="spacing" textLength="311" x="13" y="239.8195">zusatzAttribute : ZusatzAttribut [0..*] = None</text><text fill="#000000" font-family="sans-serif" font-size="14" lengthAdjust="spacing" textLength="147" x="13" y="256.1164">_id : str [0..1] = None</text></g><!--link PreisblattKonzessionsabgabe to Preisblatt--><g id="link_PreisblattKonzessionsabgabe_Preisblatt"><path codeLine="17" d="M378.48,171.1 C457.63,151.88 526.9981,135.0467 582.7681,121.5067 " fill="none" id="PreisblattKonzessionsabgabe-to-Preisblatt" style="stroke:#181818;stroke-width:1.0;"/><polygon fill="none" points="600.26,117.26,581.3526,115.6761,584.1837,127.3373,600.26,117.26" style="stroke:#181818;stroke-width:1.0;"/></g><!--link PreisblattKonzessionsabgabe to Typ--><g id="link_PreisblattKonzessionsabgabe_Typ"><path codeLine="18" d="M378.48,245.01 C460.68,257.9 539.3251,270.2298 594.7051,278.9198 " fill="none" id="PreisblattKonzessionsabgabe-to-Typ" style="stroke:#181818;stroke-width:1.0;"/><polygon fill="#181818" points="606.56,280.78,601.2526,275.8982,594.7051,278.9198,600.0125,283.8015,606.56,280.78" style="stroke:#181818;stroke-width:1.0;"/><text fill="#000000" font-family="sans-serif" font-size="13" lengthAdjust="spacing" textLength="27" x="450" y="247.0669">_typ</text><text fill="#000000" font-family="sans-serif" font-size="13" lengthAdjust="spacing" textLength="24" x="574.9935" y="292.7715">0..1</text></g><!--link PreisblattKonzessionsabgabe to KundengruppeKA--><g id="link_PreisblattKonzessionsabgabe_KundengruppeKA"><path codeLine="19" d="M378.48,216 C446.34,216 507.87,216 562.61,216 " fill="none" id="PreisblattKonzessionsabgabe-to-KundengruppeKA" style="stroke:#181818;stroke-width:1.0;"/><polygon fill="#181818" points="574.61,216,568.61,212,562.61,216,568.61,220,574.61,216" style="stroke:#181818;stroke-width:1.0;"/><text fill="#000000" font-family="sans-serif" font-size="13" lengthAdjust="spacing" textLength="109" x="409" y="212.0669">kundengruppeKA</text><text fill="#000000" font-family="sans-serif" font-size="13" lengthAdjust="spacing" textLength="24" x="542.8492" y="228.6699">0..1</text></g><!--SRC=[jLDDJ-Cm43sJNp5gRwpgD2LyA0Aa8ZXLOlUm9qg4x6P8h2Qs5Kz0xUx-ztL2WRH0G1GKvV0yC- -DttXol2KW3QLCCu94bZWZgPNdpN9kBVIcqup8sCZtXGwHfPAoIZ2f_REVuSN0B2ZJoiyveIMV6_cG9JJBgCZxZy2KAArmMJJNQedMEWNBHSe5ibzFiSbc33fYSNojZgrSOXGCJp-WqmDkk_ZWZxTpSuTbVGGHM2fXEcGiYE44HiDHE0pOo7q9tWN1ZrHWk7U0eRUph2odvPYebA8YT9LNQoSDoMvDSgaLEWcPRB8tWN-UftY1rl0PRcSwh40SDrTU8UYV7PmVZe_gQtxFP5k3RFdypfWsfk9isDO5L5NHyg66RITg3FqacEtjR-t5arJ_6SuhbQ1AoyeOd7CsQS796DRXIszUeMXQNw_x-gvfOTZlXG7tlz6KosWwSHdrM-tSsi7Wx-dZksibTXUvgbterJlHUvvKqrG4DqxzCzKRxaSmN_VHosI2K60XtDvxDjFtqAboAp5Fx7y0]--></g></svg>