<svg xmlns="http://www.w3.org/2000/svg" xmlns:xlink="http://www.w3.org/1999/xlink" contentStyleType="text/css" data-diagram-type="CLASS" height="282px" preserveAspectRatio="none" style="width:776px;height:282px;background:#FFFFFF;" version="1.1" viewBox="0 0 776 282" width="776px" zoomAndPan="magnify"><defs/><g><!--cluster bo4e--><g class="cluster" data-entity="bo4e" data-source-line="10" data-uid="ent0005" id="cluster_bo4e"><path d="M515.2,6 L555.076,6 A3.75,3.75 0 0 1 557.576,8.5 L564.576,28.2969 L766.98,28.2969 A2.5,2.5 0 0 1 769.48,30.7969 L769.48,272.5 A2.5,2.5 0 0 1 766.98,275 L515.2,275 A2.5,2.5 0 0 1 512.7,272.5 L512.7,8.5 A2.5,2.5 0 0 1 515.2,6" fill="none" style="stroke:#000000;stroke-width:1.5;"/><line style="stroke:#000000;stroke-width:1.5;" x1="512.7" x2="564.576" y1="28.2969" y2="28.2969"/><text fill="#000000" font-family="sans-serif" font-size="14" font-weight="bold" lengthAdjust="spacing" textLength="38.876" x="516.7" y="20.9951">bo4e</text></g><!--cluster bo--><g class="cluster" data-entity="bo" data-source-line="9" data-uid="ent0003" id="cluster_bo"><path d="M565.84,49 L630.674,49 A3.75,3.75 0 0 1 633.174,51.5 L640.174,71.2969 L716.34,71.2969 A2.5,2.5 0 0 1 718.84,73.7969 L718.84,135.5 A2.5,2.5 0 0 1 716.34,138 L565.84,138 A2.5,2.5 0 0 1 563.34,135.5 L563.34,51.5 A2.5,2.5 0 0 1 565.84,49" fill="#B6D7A8" style="stroke:#000000;stroke-width:1.5;"/><line style="stroke:#000000;stroke-width:1.5;" x1="563.34" x2="640.174" y1="71.2969" y2="71.2969"/><a href="file:////home/runner/work/BO4E-python/BO4E-python/docs/../.tox/docs/tmp/html/api/bo4e.bo.html" target="_top" title="file:////home/runner/work/BO4E-python/BO4E-python/docs/../.tox/docs/tmp/html/api/bo4e.bo.html" xlink:actuate="onRequest" xlink:href="file:////home/runner/work/BO4E-python/BO4E-python/docs/../.tox/docs/tmp/html/api/bo4e.bo.html" xlink:show="new" xlink:title="file:////home/runner/work/BO4E-python/BO4E-python/docs/../.tox/docs/tmp/html/api/bo4e.bo.html" xlink:type="simple"><text fill="#0000FF" font-family="sans-serif" font-size="14" font-weight="bold" lengthAdjust="spacing" text-decoration="underline" textLength="63.834" x="567.34" y="63.9951">bo4e.bo</text></a></g><!--cluster enum--><g class="cluster" data-entity="enum" data-source-line="12" data-uid="ent0006" id="cluster_enum"><path d="M539.2,162 L628.4109,162 A3.75,3.75 0 0 1 630.9109,164.5 L637.9109,184.2969 L742.98,184.2969 A2.5,2.5 0 0 1 745.48,186.7969 L745.48,248.5 A2.5,2.5 0 0 1 742.98,251 L539.2,251 A2.5,2.5 0 0 1 536.7,248.5 L536.7,164.5 A2.5,2.5 0 0 1 539.2,162" fill="#D1C358" style="stroke:#000000;stroke-width:1.5;"/><line style="stroke:#000000;stroke-width:1.5;" x1="536.7" x2="637.9109" y1="184.2969" y2="184.2969"/><a href="file:////home/runner/work/BO4E-python/BO4E-python/docs/../.tox/docs/tmp/html/api/bo4e.enum.html" target="_top" title="file:////home/runner/work/BO4E-python/BO4E-python/docs/../.tox/docs/tmp/html/api/bo4e.enum.html" xlink:actuate="onRequest" xlink:href="file:////home/runner/work/BO4E-python/BO4E-python/docs/../.tox/docs/tmp/html/api/bo4e.enum.html" xlink:show="new" xlink:title="file:////home/runner/work/BO4E-python/BO4E-python/docs/../.tox/docs/tmp/html/api/bo4e.enum.html" xlink:type="simple"><text fill="#0000FF" font-family="sans-serif" font-size="14" font-weight="bold" lengthAdjust="spacing" text-decoration="underline" textLength="88.2109" x="540.7" y="176.9951">bo4e.enum</text></a></g><!--class Preisblatt--><g class="entity" data-entity="Preisblatt" data-source-line="10" data-uid="ent0004" id="entity_Preisblatt"><rect fill="#F1F1F1" height="37.9375" rx="2.5" ry="2.5" style="stroke:#181818;stroke-width:0.5;" width="123.499" x="579.34" y="84.03"/><ellipse cx="594.34" cy="102.9988" fill="#ADD1B2" rx="11" ry="11" style="stroke:#181818;stroke-width:1;"/><path d="M597.3088,108.6394 Q596.7306,108.9363 596.09,109.0769 Q595.4494,109.2331 594.7463,109.2331 Q592.2463,109.2331 590.9181,107.5925 Q589.6056,105.9363 589.6056,102.8113 Q589.6056,99.6863 590.9181,98.03 Q592.2463,96.3738 594.7463,96.3738 Q595.4494,96.3738 596.09,96.53 Q596.7463,96.6863 597.3088,96.9831 L597.3088,99.7019 Q596.6838,99.1238 596.09,98.8581 Q595.4963,98.5769 594.8713,98.5769 Q593.5275,98.5769 592.84,99.655 Q592.1525,100.7175 592.1525,102.8113 Q592.1525,104.905 592.84,105.9831 Q593.5275,107.0456 594.8713,107.0456 Q595.4963,107.0456 596.09,106.78 Q596.6838,106.4988 597.3088,105.9206 L597.3088,108.6394 Z " fill="#000000"/><a href="file:////home/runner/work/BO4E-python/BO4E-python/docs/../.tox/docs/tmp/html/api/bo4e.bo.html#bo4e.bo.preisblatt.Preisblatt" target="_top" title="file:////home/runner/work/BO4E-python/BO4E-python/docs/../.tox/docs/tmp/html/api/bo4e.bo.html#bo4e.bo.preisblatt.Preisblatt" xlink:actuate="onRequest" xlink:href="file:////home/runner/work/BO4E-python/BO4E-python/docs/../.tox/docs/tmp/html/api/bo4e.bo.html#bo4e.bo.preisblatt.Preisblatt" xlink:show="new" xlink:title="file:////home/runner/work/BO4E-python/BO4E-python/docs/../.tox/docs/tmp/html/api/bo4e.bo.html#bo4e.bo.preisblatt.Preisblatt" xlink:type="simple"><text fill="#0000FF" font-family="sans-serif" font-size="14" lengthAdjust="spacing" text-decoration="underline" textLength="66.3291" x="620.925" y="102.0251">Preisblatt</text></a><text fill="#000000" font-family="sans-serif" font-size="10" lengthAdjust="spacing" textLength="91.499" x="608.34" y="114.6091">bo4e.bo.preisblatt</text></g><!--class KundengruppeKA--><g class="entity" data-entity="KundengruppeKA" data-source-line="13" data-uid="ent0007" id="entity_KundengruppeKA"><rect fill="#F1F1F1" height="37.9375" rx="2.5" ry="2.5" style="stroke:#181818;stroke-width:0.5;" width="176.7754" x="552.7" y="197.03"/><ellipse cx="567.7" cy="215.9988" fill="#ADD1B2" rx="11" ry="11" style="stroke:#181818;stroke-width:1;"/><path d="M570.6688,221.6394 Q570.0906,221.9363 569.45,222.0769 Q568.8094,222.2331 568.1063,222.2331 Q565.6063,222.2331 564.2781,220.5925 Q562.9656,218.9363 562.9656,215.8113 Q562.9656,212.6863 564.2781,211.03 Q565.6063,209.3738 568.1063,209.3738 Q568.8094,209.3738 569.45,209.53 Q570.1063,209.6863 570.6688,209.9831 L570.6688,212.7019 Q570.0438,212.1238 569.45,211.8581 Q568.8563,211.5769 568.2313,211.5769 Q566.8875,211.5769 566.2,212.655 Q565.5125,213.7175 565.5125,215.8113 Q565.5125,217.905 566.2,218.9831 Q566.8875,220.0456 568.2313,220.0456 Q568.8563,220.0456 569.45,219.78 Q570.0438,219.4988 570.6688,218.9206 L570.6688,221.6394 Z " fill="#000000"/><a href="file:////home/runner/work/BO4E-python/BO4E-python/docs/../.tox/docs/tmp/html/api/bo4e.enum.html#bo4e.enum.kundengruppeka.KundengruppeKA" target="_top" title="file:////home/runner/work/BO4E-python/BO4E-python/docs/../.tox/docs/tmp/html/api/bo4e.enum.html#bo4e.enum.kundengruppeka.KundengruppeKA" xlink:actuate="onRequest" xlink:href="file:////home/runner/work/BO4E-python/BO4E-python/docs/../.tox/docs/tmp/html/api/bo4e.enum.html#bo4e.enum.kundengruppeka.KundengruppeKA" xlink:show="new" xlink:title="file:////home/runner/work/BO4E-python/BO4E-python/docs/../.tox/docs/tmp/html/api/bo4e.enum.html#bo4e.enum.kundengruppeka.KundengruppeKA" xlink:type="simple"><text fill="#0000FF" font-family="sans-serif" font-size="14" lengthAdjust="spacing" text-decoration="underline" textLength="121.96" x="593.1077" y="215.0251">KundengruppeKA</text></a><text fill="#000000" font-family="sans-serif" font-size="10" lengthAdjust="spacing" textLength="144.7754" x="581.7" y="227.6091">bo4e.enum.kundengruppeka</text></g><!--class PreisblattKonzessionsabgabe--><g class="entity" data-entity="PreisblattKonzessionsabgabe" data-source-line="3" data-uid="ent0002" id="entity_PreisblattKonzessionsabgabe"><rect fill="#F1F1F1" height="94.8281" rx="2.5" ry="2.5" style="stroke:#181818;stroke-width:0.5;" width="345.7031" x="7" y="112.59"/><ellipse cx="73.3257" cy="131.5588" fill="#ADD1B2" rx="11" ry="11" style="stroke:#181818;stroke-width:1;"/><path d="M76.2944,137.1994 Q75.7163,137.4963 75.0757,137.6369 Q74.4351,137.7931 73.7319,137.7931 Q71.2319,137.7931 69.9038,136.1525 Q68.5913,134.4963 68.5913,131.3713 Q68.5913,128.2463 69.9038,126.59 Q71.2319,124.9338 73.7319,124.9338 Q74.4351,124.9338 75.0757,125.09 Q75.7319,125.2463 76.2944,125.5431 L76.2944,128.2619 Q75.6694,127.6838 75.0757,127.4181 Q74.4819,127.1369 73.8569,127.1369 Q72.5132,127.1369 71.8257,128.215 Q71.1382,129.2775 71.1382,131.3713 Q71.1382,133.465 71.8257,134.5431 Q72.5132,135.6056 73.8569,135.6056 Q74.4819,135.6056 75.0757,135.34 Q75.6694,135.0588 76.2944,134.4806 L76.2944,137.1994 Z " fill="#000000"/><a href="file:////home/runner/work/BO4E-python/BO4E-python/docs/../.tox/docs/tmp/html/api/bo4e.bo.html#bo4e.bo.preisblattkonzessionsabgabe.PreisblattKonzessionsabgabe" target="_top" title="file:////home/runner/work/BO4E-python/BO4E-python/docs/../.tox/docs/tmp/html/api/bo4e.bo.html#bo4e.bo.preisblattkonzessionsabgabe.PreisblattKonzessionsabgabe" xlink:actuate="onRequest" xlink:href="file:////home/runner/work/BO4E-python/BO4E-python/docs/../.tox/docs/tmp/html/api/bo4e.bo.html#bo4e.bo.preisblattkonzessionsabgabe.PreisblattKonzessionsabgabe" xlink:show="new" xlink:title="file:////home/runner/work/BO4E-python/BO4E-python/docs/../.tox/docs/tmp/html/api/bo4e.bo.html#bo4e.bo.preisblattkonzessionsabgabe.PreisblattKonzessionsabgabe" xlink:type="simple"><text fill="#0000FF" font-family="sans-serif" font-size="14" lengthAdjust="spacing" text-decoration="underline" textLength="204.5518" x="93.8257" y="130.5851">PreisblattKonzessionsabgabe</text></a><text fill="#000000" font-family="sans-serif" font-size="10" lengthAdjust="spacing" textLength="189.4629" x="101.3701" y="143.1691">bo4e.bo.preisblattkonzessionsabgabe</text><line style="stroke:#181818;stroke-width:0.5;" x1="8" x2="351.7031" y1="150.5275" y2="150.5275"/><text fill="#000000" font-family="sans-serif" font-size="14" lengthAdjust="spacing" textLength="333.7031" x="13" y="167.5226">_version : str [0..1] = 202501.0.0+g9b0da057d</text><text fill="#000000" font-family="sans-serif" font-size="14" lengthAdjust="spacing" textLength="318.5752" x="13" y="183.8195">zusatzAttribute : ZusatzAttribut [0..*] = None</text><text fill="#000000" font-family="sans-serif" font-size="14" lengthAdjust="spacing" textLength="151.1768" x="13" y="200.1164">_id : str [0..1] = None</text></g><!--link PreisblattKonzessionsabgabe to Preisblatt--><g class="link" data-entity-1="PreisblattKonzessionsabgabe" data-entity-2="Preisblatt" data-source-line="16" data-uid="lnk8" id="link_PreisblattKonzessionsabgabe_Preisblatt"><path codeLine="16" d="M353.16,138.61 C432.44,128.77 503.5969,119.9358 561.1569,112.7958" fill="none" id="PreisblattKonzessionsabgabe-to-Preisblatt" style="stroke:#181818;stroke-width:1;"/><polygon fill="none" points="579.02,110.58,560.4183,106.8415,561.8955,118.7502,579.02,110.58" style="stroke:#181818;stroke-width:1;"/></g><!--link PreisblattKonzessionsabgabe to KundengruppeKA--><g class="link" data-entity-1="PreisblattKonzessionsabgabe" data-entity-2="KundengruppeKA" data-source-line="17" data-uid="lnk9" id="link_PreisblattKonzessionsabgabe_KundengruppeKA"><path codeLine="17" d="M353.16,181.01 C420.99,189.28 484.0284,196.9662 540.3184,203.8362" fill="none" id="PreisblattKonzessionsabgabe-to-KundengruppeKA" style="stroke:#181818;stroke-width:1;"/><polygon fill="#181818" points="552.23,205.29,546.7588,200.5926,540.3184,203.8362,545.7896,208.5337,552.23,205.29" style="stroke:#181818;stroke-width:1;"/><text fill="#000000" font-family="sans-serif" font-size="13" lengthAdjust="spacing" textLength="112.252" x="383.7" y="181.0669">kundengruppeKA</text><text fill="#000000" font-family="sans-serif" font-size="13" lengthAdjust="spacing" textLength="24.8066" x="519.9111" y="217.0967">0..1</text></g><!--SRC=[nLF1JiCm33tJhx2wsz2IRZ064qpQ1AT9m9bHeRJnrgXjKYKfWm7_JZjWQmSgN82SykpusNcs4vnRi0gqM4GMkD0OMg6auuG9CmRSsMmk4XpIuaGgHQfpAL7JfT8ndLmTNdIoHnifMRjp5HfA22LMFRm1csOqicb2MIPee0wH18gKXjO7o3GA4oJCsbZ95HfJ565Oi601akkDRxhhWmQVxz_AKoDMEEnwen_aSO6P9ZvuSlRkxb6N9XY2iHfc7Y5T7ywWv_NwNfTunDjVd0GUPrv_m9szLMwONOsjrIB8BHPHDpNBcg1T4bmgYGMzuBlCQyUBuqYMeibOYB_U4tW7lhzMv1r1Qt9qFXWVbohyssnKHg7IgMyQlTFNGim_q19bdbRKB65Lpn93YtV3W_vVABgffhM5SIuvoeNEimnZHgOLE1r37NvM-0kAzU_gSUNWDgvlf_Cy-fYmoiFce2Ag3Mwv8EvMpTqF326kb-94WYEac0R52ZicKajep38Nc73p2W00]--></g></svg>