<svg xmlns="http://www.w3.org/2000/svg" xmlns:xlink="http://www.w3.org/1999/xlink" contentStyleType="text/css" data-diagram-type="CLASS" height="501px" preserveAspectRatio="none" style="width:856px;height:501px;background:#FFFFFF;" version="1.1" viewBox="0 0 856 501" width="856px" zoomAndPan="magnify"><defs/><g><!--cluster bo4e--><g class="cluster" data-entity="bo4e" data-source-line="10" data-uid="ent0005" id="cluster_bo4e"><path d="M568.71,6 L608.586,6 A3.75,3.75 0 0 1 611.086,8.5 L618.086,28.2969 L847.28,28.2969 A2.5,2.5 0 0 1 849.78,30.7969 L849.78,491.5 A2.5,2.5 0 0 1 847.28,494 L568.71,494 A2.5,2.5 0 0 1 566.21,491.5 L566.21,8.5 A2.5,2.5 0 0 1 568.71,6" fill="none" style="stroke:#000000;stroke-width:1.5;"/><line style="stroke:#000000;stroke-width:1.5;" x1="566.21" x2="618.086" y1="28.2969" y2="28.2969"/><text fill="#000000" font-family="sans-serif" font-size="14" font-weight="bold" lengthAdjust="spacing" textLength="38.876" x="570.21" y="20.9951">bo4e</text></g><!--cluster bo--><g class="cluster" data-entity="bo" data-source-line="9" data-uid="ent0003" id="cluster_bo"><path d="M632.74,49 L697.574,49 A3.75,3.75 0 0 1 700.074,51.5 L707.074,71.2969 L783.24,71.2969 A2.5,2.5 0 0 1 785.74,73.7969 L785.74,208.5 A2.5,2.5 0 0 1 783.24,211 L632.74,211 A2.5,2.5 0 0 1 630.24,208.5 L630.24,51.5 A2.5,2.5 0 0 1 632.74,49" fill="#B6D7A8" style="stroke:#000000;stroke-width:1.5;"/><line style="stroke:#000000;stroke-width:1.5;" x1="630.24" x2="707.074" y1="71.2969" y2="71.2969"/><a href="file:////home/runner/work/BO4E-python/BO4E-python/docs/../.tox/docs/tmp/html/api/bo4e.bo.html" target="_top" title="file:////home/runner/work/BO4E-python/BO4E-python/docs/../.tox/docs/tmp/html/api/bo4e.bo.html" xlink:actuate="onRequest" xlink:href="file:////home/runner/work/BO4E-python/BO4E-python/docs/../.tox/docs/tmp/html/api/bo4e.bo.html" xlink:show="new" xlink:title="file:////home/runner/work/BO4E-python/BO4E-python/docs/../.tox/docs/tmp/html/api/bo4e.bo.html" xlink:type="simple"><text fill="#0000FF" font-family="sans-serif" font-size="14" font-weight="bold" lengthAdjust="spacing" text-decoration="underline" textLength="63.834" x="634.24" y="63.9951">bo4e.bo</text></a></g><!--cluster enum--><g class="cluster" data-entity="enum" data-source-line="13" data-uid="ent0007" id="cluster_enum"><path d="M592.71,235 L681.9209,235 A3.75,3.75 0 0 1 684.4209,237.5 L691.4209,257.2969 L823.28,257.2969 A2.5,2.5 0 0 1 825.78,259.7969 L825.78,467.5 A2.5,2.5 0 0 1 823.28,470 L592.71,470 A2.5,2.5 0 0 1 590.21,467.5 L590.21,237.5 A2.5,2.5 0 0 1 592.71,235" fill="#D1C358" style="stroke:#000000;stroke-width:1.5;"/><line style="stroke:#000000;stroke-width:1.5;" x1="590.21" x2="691.4209" y1="257.2969" y2="257.2969"/><a href="file:////home/runner/work/BO4E-python/BO4E-python/docs/../.tox/docs/tmp/html/api/bo4e.enum.html" target="_top" title="file:////home/runner/work/BO4E-python/BO4E-python/docs/../.tox/docs/tmp/html/api/bo4e.enum.html" xlink:actuate="onRequest" xlink:href="file:////home/runner/work/BO4E-python/BO4E-python/docs/../.tox/docs/tmp/html/api/bo4e.enum.html" xlink:show="new" xlink:title="file:////home/runner/work/BO4E-python/BO4E-python/docs/../.tox/docs/tmp/html/api/bo4e.enum.html" xlink:type="simple"><text fill="#0000FF" font-family="sans-serif" font-size="14" font-weight="bold" lengthAdjust="spacing" text-decoration="underline" textLength="88.2109" x="594.21" y="249.9951">bo4e.enum</text></a></g><!--class Preisblatt--><g class="entity" data-entity="Preisblatt" data-source-line="10" data-uid="ent0004" id="entity_Preisblatt"><rect fill="#F1F1F1" height="37.9375" rx="2.5" ry="2.5" style="stroke:#181818;stroke-width:0.5;" width="123.499" x="646.24" y="84.03"/><ellipse cx="661.24" cy="102.9987" fill="#ADD1B2" rx="11" ry="11" style="stroke:#181818;stroke-width:1;"/><path d="M664.2088,108.6394 Q663.6306,108.9362 662.99,109.0769 Q662.3494,109.2331 661.6463,109.2331 Q659.1463,109.2331 657.8181,107.5925 Q656.5056,105.9362 656.5056,102.8112 Q656.5056,99.6862 657.8181,98.03 Q659.1463,96.3737 661.6463,96.3737 Q662.3494,96.3737 662.99,96.53 Q663.6463,96.6862 664.2088,96.9831 L664.2088,99.7019 Q663.5838,99.1237 662.99,98.8581 Q662.3963,98.5769 661.7713,98.5769 Q660.4275,98.5769 659.74,99.655 Q659.0525,100.7175 659.0525,102.8112 Q659.0525,104.905 659.74,105.9831 Q660.4275,107.0456 661.7713,107.0456 Q662.3963,107.0456 662.99,106.78 Q663.5838,106.4987 664.2088,105.9206 L664.2088,108.6394 Z " fill="#000000"/><a href="file:////home/runner/work/BO4E-python/BO4E-python/docs/../.tox/docs/tmp/html/api/bo4e.bo.html#bo4e.bo.preisblatt.Preisblatt" target="_top" title="file:////home/runner/work/BO4E-python/BO4E-python/docs/../.tox/docs/tmp/html/api/bo4e.bo.html#bo4e.bo.preisblatt.Preisblatt" xlink:actuate="onRequest" xlink:href="file:////home/runner/work/BO4E-python/BO4E-python/docs/../.tox/docs/tmp/html/api/bo4e.bo.html#bo4e.bo.preisblatt.Preisblatt" xlink:show="new" xlink:title="file:////home/runner/work/BO4E-python/BO4E-python/docs/../.tox/docs/tmp/html/api/bo4e.bo.html#bo4e.bo.preisblatt.Preisblatt" xlink:type="simple"><text fill="#0000FF" font-family="sans-serif" font-size="14" lengthAdjust="spacing" text-decoration="underline" textLength="66.3291" x="687.825" y="102.0251">Preisblatt</text></a><text fill="#000000" font-family="sans-serif" font-size="10" lengthAdjust="spacing" textLength="91.499" x="675.24" y="114.6091">bo4e.bo.preisblatt</text></g><!--class Geraet--><g class="entity" data-entity="Geraet" data-source-line="11" data-uid="ent0006" id="entity_Geraet"><rect fill="#F1F1F1" height="37.9375" rx="2.5" ry="2.5" style="stroke:#181818;stroke-width:0.5;" width="108.6162" x="653.68" y="157.03"/><ellipse cx="668.68" cy="175.9987" fill="#ADD1B2" rx="11" ry="11" style="stroke:#181818;stroke-width:1;"/><path d="M671.6488,181.6394 Q671.0706,181.9362 670.43,182.0769 Q669.7894,182.2331 669.0863,182.2331 Q666.5863,182.2331 665.2581,180.5925 Q663.9456,178.9362 663.9456,175.8112 Q663.9456,172.6862 665.2581,171.03 Q666.5863,169.3737 669.0863,169.3737 Q669.7894,169.3737 670.43,169.53 Q671.0863,169.6862 671.6488,169.9831 L671.6488,172.7019 Q671.0238,172.1237 670.43,171.8581 Q669.8363,171.5769 669.2113,171.5769 Q667.8675,171.5769 667.18,172.655 Q666.4925,173.7175 666.4925,175.8112 Q666.4925,177.905 667.18,178.9831 Q667.8675,180.0456 669.2113,180.0456 Q669.8363,180.0456 670.43,179.78 Q671.0238,179.4987 671.6488,178.9206 L671.6488,181.6394 Z " fill="#000000"/><a href="file:////home/runner/work/BO4E-python/BO4E-python/docs/../.tox/docs/tmp/html/api/bo4e.bo.html#bo4e.bo.geraet.Geraet" target="_top" title="file:////home/runner/work/BO4E-python/BO4E-python/docs/../.tox/docs/tmp/html/api/bo4e.bo.html#bo4e.bo.geraet.Geraet" xlink:actuate="onRequest" xlink:href="file:////home/runner/work/BO4E-python/BO4E-python/docs/../.tox/docs/tmp/html/api/bo4e.bo.html#bo4e.bo.geraet.Geraet" xlink:show="new" xlink:title="file:////home/runner/work/BO4E-python/BO4E-python/docs/../.tox/docs/tmp/html/api/bo4e.bo.html#bo4e.bo.geraet.Geraet" xlink:type="simple"><text fill="#0000FF" font-family="sans-serif" font-size="14" lengthAdjust="spacing" text-decoration="underline" textLength="47.8994" x="697.0384" y="175.0251">Geraet</text></a><text fill="#000000" font-family="sans-serif" font-size="10" lengthAdjust="spacing" textLength="76.6162" x="682.68" y="187.6091">bo4e.bo.geraet</text></g><!--class Dienstleistungstyp--><g class="entity" data-entity="Dienstleistungstyp" data-source-line="14" data-uid="ent0008" id="entity_Dienstleistungstyp"><rect fill="#F1F1F1" height="37.9375" rx="2.5" ry="2.5" style="stroke:#181818;stroke-width:0.5;" width="183.9141" x="616.04" y="270.03"/><ellipse cx="631.04" cy="288.9988" fill="#ADD1B2" rx="11" ry="11" style="stroke:#181818;stroke-width:1;"/><path d="M634.0088,294.6394 Q633.4306,294.9363 632.79,295.0769 Q632.1494,295.2331 631.4463,295.2331 Q628.9463,295.2331 627.6181,293.5925 Q626.3056,291.9363 626.3056,288.8113 Q626.3056,285.6863 627.6181,284.03 Q628.9463,282.3738 631.4463,282.3738 Q632.1494,282.3738 632.79,282.53 Q633.4463,282.6863 634.0088,282.9831 L634.0088,285.7019 Q633.3838,285.1238 632.79,284.8581 Q632.1963,284.5769 631.5713,284.5769 Q630.2275,284.5769 629.54,285.655 Q628.8525,286.7175 628.8525,288.8113 Q628.8525,290.905 629.54,291.9831 Q630.2275,293.0456 631.5713,293.0456 Q632.1963,293.0456 632.79,292.78 Q633.3838,292.4988 634.0088,291.9206 L634.0088,294.6394 Z " fill="#000000"/><a href="file:////home/runner/work/BO4E-python/BO4E-python/docs/../.tox/docs/tmp/html/api/bo4e.enum.html#bo4e.enum.dienstleistungstyp.Dienstleistungstyp" target="_top" title="file:////home/runner/work/BO4E-python/BO4E-python/docs/../.tox/docs/tmp/html/api/bo4e.enum.html#bo4e.enum.dienstleistungstyp.Dienstleistungstyp" xlink:actuate="onRequest" xlink:href="file:////home/runner/work/BO4E-python/BO4E-python/docs/../.tox/docs/tmp/html/api/bo4e.enum.html#bo4e.enum.dienstleistungstyp.Dienstleistungstyp" xlink:show="new" xlink:title="file:////home/runner/work/BO4E-python/BO4E-python/docs/../.tox/docs/tmp/html/api/bo4e.enum.html#bo4e.enum.dienstleistungstyp.Dienstleistungstyp" xlink:type="simple"><text fill="#0000FF" font-family="sans-serif" font-size="14" lengthAdjust="spacing" text-decoration="underline" textLength="130.7031" x="655.6455" y="288.0251">Dienstleistungstyp</text></a><text fill="#000000" font-family="sans-serif" font-size="10" lengthAdjust="spacing" textLength="151.9141" x="645.04" y="300.6091">bo4e.enum.dienstleistungstyp</text></g><!--class Netzebene--><g class="entity" data-entity="Netzebene" data-source-line="15" data-uid="ent0009" id="entity_Netzebene"><rect fill="#F1F1F1" height="37.9375" rx="2.5" ry="2.5" style="stroke:#181818;stroke-width:0.5;" width="144.71" x="635.64" y="343.03"/><ellipse cx="650.64" cy="361.9988" fill="#ADD1B2" rx="11" ry="11" style="stroke:#181818;stroke-width:1;"/><path d="M653.6088,367.6394 Q653.0306,367.9363 652.39,368.0769 Q651.7494,368.2331 651.0463,368.2331 Q648.5463,368.2331 647.2181,366.5925 Q645.9056,364.9363 645.9056,361.8113 Q645.9056,358.6863 647.2181,357.03 Q648.5463,355.3738 651.0463,355.3738 Q651.7494,355.3738 652.39,355.53 Q653.0463,355.6863 653.6088,355.9831 L653.6088,358.7019 Q652.9838,358.1238 652.39,357.8581 Q651.7963,357.5769 651.1713,357.5769 Q649.8275,357.5769 649.14,358.655 Q648.4525,359.7175 648.4525,361.8113 Q648.4525,363.905 649.14,364.9831 Q649.8275,366.0456 651.1713,366.0456 Q651.7963,366.0456 652.39,365.78 Q652.9838,365.4988 653.6088,364.9206 L653.6088,367.6394 Z " fill="#000000"/><a href="file:////home/runner/work/BO4E-python/BO4E-python/docs/../.tox/docs/tmp/html/api/bo4e.enum.html#bo4e.enum.netzebene.Netzebene" target="_top" title="file:////home/runner/work/BO4E-python/BO4E-python/docs/../.tox/docs/tmp/html/api/bo4e.enum.html#bo4e.enum.netzebene.Netzebene" xlink:actuate="onRequest" xlink:href="file:////home/runner/work/BO4E-python/BO4E-python/docs/../.tox/docs/tmp/html/api/bo4e.enum.html#bo4e.enum.netzebene.Netzebene" xlink:show="new" xlink:title="file:////home/runner/work/BO4E-python/BO4E-python/docs/../.tox/docs/tmp/html/api/bo4e.enum.html#bo4e.enum.netzebene.Netzebene" xlink:type="simple"><text fill="#0000FF" font-family="sans-serif" font-size="14" lengthAdjust="spacing" text-decoration="underline" textLength="75.5234" x="683.2333" y="361.0251">Netzebene</text></a><text fill="#000000" font-family="sans-serif" font-size="10" lengthAdjust="spacing" textLength="112.71" x="664.64" y="373.6091">bo4e.enum.netzebene</text></g><!--class Bilanzierungsmethode--><g class="entity" data-entity="Bilanzierungsmethode" data-source-line="16" data-uid="ent0010" id="entity_Bilanzierungsmethode"><rect fill="#F1F1F1" height="37.9375" rx="2.5" ry="2.5" style="stroke:#181818;stroke-width:0.5;" width="203.5723" x="606.21" y="416.03"/><ellipse cx="621.21" cy="434.9988" fill="#ADD1B2" rx="11" ry="11" style="stroke:#181818;stroke-width:1;"/><path d="M624.1788,440.6394 Q623.6006,440.9363 622.96,441.0769 Q622.3194,441.2331 621.6163,441.2331 Q619.1163,441.2331 617.7881,439.5925 Q616.4756,437.9363 616.4756,434.8113 Q616.4756,431.6863 617.7881,430.03 Q619.1163,428.3738 621.6163,428.3738 Q622.3194,428.3738 622.96,428.53 Q623.6163,428.6863 624.1788,428.9831 L624.1788,431.7019 Q623.5538,431.1238 622.96,430.8581 Q622.3663,430.5769 621.7413,430.5769 Q620.3975,430.5769 619.71,431.655 Q619.0225,432.7175 619.0225,434.8113 Q619.0225,436.905 619.71,437.9831 Q620.3975,439.0456 621.7413,439.0456 Q622.3663,439.0456 622.96,438.78 Q623.5538,438.4988 624.1788,437.9206 L624.1788,440.6394 Z " fill="#000000"/><a href="file:////home/runner/work/BO4E-python/BO4E-python/docs/../.tox/docs/tmp/html/api/bo4e.enum.html#bo4e.enum.bilanzierungsmethode.Bilanzierungsmethode" target="_top" title="file:////home/runner/work/BO4E-python/BO4E-python/docs/../.tox/docs/tmp/html/api/bo4e.enum.html#bo4e.enum.bilanzierungsmethode.Bilanzierungsmethode" xlink:actuate="onRequest" xlink:href="file:////home/runner/work/BO4E-python/BO4E-python/docs/../.tox/docs/tmp/html/api/bo4e.enum.html#bo4e.enum.bilanzierungsmethode.Bilanzierungsmethode" xlink:show="new" xlink:title="file:////home/runner/work/BO4E-python/BO4E-python/docs/../.tox/docs/tmp/html/api/bo4e.enum.html#bo4e.enum.bilanzierungsmethode.Bilanzierungsmethode" xlink:type="simple"><text fill="#0000FF" font-family="sans-serif" font-size="14" lengthAdjust="spacing" text-decoration="underline" textLength="157.0488" x="642.4717" y="434.0251">Bilanzierungsmethode</text></a><text fill="#000000" font-family="sans-serif" font-size="10" lengthAdjust="spacing" textLength="171.5723" x="635.21" y="446.6091">bo4e.enum.bilanzierungsmethode</text></g><!--class PreisblattHardware--><g class="entity" data-entity="PreisblattHardware" data-source-line="3" data-uid="ent0002" id="entity_PreisblattHardware"><rect fill="#F1F1F1" height="94.8281" rx="2.5" ry="2.5" style="stroke:#181818;stroke-width:0.5;" width="344.2061" x="7" y="214.59"/><ellipse cx="105.356" cy="233.5587" fill="#ADD1B2" rx="11" ry="11" style="stroke:#181818;stroke-width:1;"/><path d="M108.3247,239.1994 Q107.7466,239.4962 107.106,239.6369 Q106.4653,239.7931 105.7622,239.7931 Q103.2622,239.7931 101.9341,238.1525 Q100.6216,236.4962 100.6216,233.3712 Q100.6216,230.2462 101.9341,228.59 Q103.2622,226.9337 105.7622,226.9337 Q106.4653,226.9337 107.106,227.09 Q107.7622,227.2462 108.3247,227.5431 L108.3247,230.2619 Q107.6997,229.6837 107.106,229.4181 Q106.5122,229.1369 105.8872,229.1369 Q104.5435,229.1369 103.856,230.215 Q103.1685,231.2775 103.1685,233.3712 Q103.1685,235.465 103.856,236.5431 Q104.5435,237.6056 105.8872,237.6056 Q106.5122,237.6056 107.106,237.34 Q107.6997,237.0587 108.3247,236.4806 L108.3247,239.1994 Z " fill="#000000"/><a href="file:////home/runner/work/BO4E-python/BO4E-python/docs/../.tox/docs/tmp/html/api/bo4e.bo.html#bo4e.bo.preisblatthardware.PreisblattHardware" target="_top" title="file:////home/runner/work/BO4E-python/BO4E-python/docs/../.tox/docs/tmp/html/api/bo4e.bo.html#bo4e.bo.preisblatthardware.PreisblattHardware" xlink:actuate="onRequest" xlink:href="file:////home/runner/work/BO4E-python/BO4E-python/docs/../.tox/docs/tmp/html/api/bo4e.bo.html#bo4e.bo.preisblatthardware.PreisblattHardware" xlink:show="new" xlink:title="file:////home/runner/work/BO4E-python/BO4E-python/docs/../.tox/docs/tmp/html/api/bo4e.bo.html#bo4e.bo.preisblatthardware.PreisblattHardware" xlink:type="simple"><text fill="#0000FF" font-family="sans-serif" font-size="14" lengthAdjust="spacing" text-decoration="underline" textLength="134.4766" x="128.1147" y="232.5851">PreisblattHardware</text></a><text fill="#000000" font-family="sans-serif" font-size="10" lengthAdjust="spacing" textLength="138.9941" x="125.856" y="245.1691">bo4e.bo.preisblatthardware</text><line style="stroke:#181818;stroke-width:0.5;" x1="8" x2="350.2061" y1="252.5275" y2="252.5275"/><text fill="#000000" font-family="sans-serif" font-size="14" lengthAdjust="spacing" textLength="332.2061" x="13" y="269.5226">_version : str [0..1] = 202501.0.0+g245ac3b0a</text><text fill="#000000" font-family="sans-serif" font-size="14" lengthAdjust="spacing" textLength="318.5752" x="13" y="285.8195">zusatzAttribute : ZusatzAttribut [0..*] = None</text><text fill="#000000" font-family="sans-serif" font-size="14" lengthAdjust="spacing" textLength="151.1768" x="13" y="302.1164">_id : str [0..1] = None</text></g><!--link PreisblattHardware to Preisblatt--><g class="link" data-entity-1="PreisblattHardware" data-entity-2="Preisblatt" data-source-line="19" data-uid="lnk11" id="link_PreisblattHardware_Preisblatt"><path codeLine="19" d="M268.75,214.32 C303.1,197.4 343.24,179.48 381.21,167 C471.01,137.47 561.6166,121.9532 627.9666,112.8632" fill="none" id="PreisblattHardware-to-Preisblatt" style="stroke:#181818;stroke-width:1;"/><polygon fill="none" points="645.8,110.42,627.1522,106.9187,628.781,118.8077,645.8,110.42" style="stroke:#181818;stroke-width:1;"/></g><!--link PreisblattHardware to Bilanzierungsmethode--><g class="link" data-entity-1="PreisblattHardware" data-entity-2="Bilanzierungsmethode" data-source-line="20" data-uid="lnk12" id="link_PreisblattHardware_Bilanzierungsmethode"><path codeLine="20" d="M253.36,309.79 C290.36,331.99 336.75,356.96 381.21,373 C454.05,399.28 528.3934,413.4143 593.8334,422.4743" fill="none" id="PreisblattHardware-to-Bilanzierungsmethode" style="stroke:#181818;stroke-width:1;"/><polygon fill="#181818" points="605.72,424.12,600.3252,419.335,593.8334,422.4743,599.2281,427.2594,605.72,424.12" style="stroke:#181818;stroke-width:1;"/><text fill="#000000" font-family="sans-serif" font-size="13" lengthAdjust="spacing" textLength="145.1646" x="393.21" y="369.0669">bilanzierungsmethode</text><text fill="#000000" font-family="sans-serif" font-size="13" lengthAdjust="spacing" textLength="24.8066" x="573.3575" y="435.9436">0..1</text></g><!--link PreisblattHardware to Netzebene--><g class="link" data-entity-1="PreisblattHardware" data-entity-2="Netzebene" data-source-line="21" data-uid="lnk13" id="link_PreisblattHardware_Netzebene"><path codeLine="21" d="M334,309.87 C349.86,313.98 365.8,317.79 381.21,321 C467.71,339.01 556.9397,349.149 623.3197,355.209" fill="none" id="PreisblattHardware-to-Netzebene" style="stroke:#181818;stroke-width:1;"/><polygon fill="#181818" points="635.27,356.3,629.6585,351.7711,623.3197,355.209,628.9312,359.7379,635.27,356.3" style="stroke:#181818;stroke-width:1;"/><text fill="#000000" font-family="sans-serif" font-size="13" lengthAdjust="spacing" textLength="74.6929" x="428.71" y="317.0669">messebene</text><text fill="#000000" font-family="sans-serif" font-size="13" lengthAdjust="spacing" textLength="24.8066" x="602.5743" y="368.5595">0..1</text></g><!--link PreisblattHardware to Geraet--><g class="link" data-entity-1="PreisblattHardware" data-entity-2="Geraet" data-source-line="22" data-uid="lnk14" id="link_PreisblattHardware_Geraet"><path codeLine="22" d="M351.53,220.6 C361.55,218.6 371.5,216.71 381.21,215 C476.44,198.22 576.6705,187.6494 641.4505,181.6894" fill="none" id="PreisblattHardware-to-Geraet" style="stroke:#181818;stroke-width:1;"/><polygon fill="#181818" points="653.4,180.59,647.0588,177.1565,641.4505,181.6894,647.7917,185.1229,653.4,180.59" style="stroke:#181818;stroke-width:1;"/><text fill="#000000" font-family="sans-serif" font-size="13" lengthAdjust="spacing" textLength="76.0322" x="427.71" y="188.0669">basisgeraet</text><text fill="#000000" font-family="sans-serif" font-size="13" lengthAdjust="spacing" textLength="24.8066" x="620.9201" y="194.2146">0..1</text></g><!--link PreisblattHardware to Geraet--><g class="link" data-entity-1="PreisblattHardware" data-entity-2="Geraet" data-source-line="23" data-uid="lnk15" id="link_PreisblattHardware_Geraet"><path codeLine="23" d="M351.26,263.49 C414.42,261 486.18,254.55 550.21,240 C592.64,230.36 627.6117,215.7041 658.6817,200.6441" fill="none" id="PreisblattHardware-to-Geraet-1" style="stroke:#181818;stroke-width:1;"/><polygon fill="#181818" points="669.48,195.41,662.3361,194.4276,658.6817,200.6441,665.8255,201.6265,669.48,195.41" style="stroke:#181818;stroke-width:1;"/><text fill="#000000" font-family="sans-serif" font-size="13" lengthAdjust="spacing" textLength="109.7827" x="411.21" y="236.0669">inklusiveGeraete</text><text fill="#000000" font-family="sans-serif" font-size="13" lengthAdjust="spacing" textLength="23.0356" x="632.4202" y="215.0644">0..*</text></g><!--link PreisblattHardware to Dienstleistungstyp--><g class="link" data-entity-1="PreisblattHardware" data-entity-2="Dienstleistungstyp" data-source-line="24" data-uid="lnk16" id="link_PreisblattHardware_Dienstleistungstyp"><path codeLine="24" d="M351.59,290.23 C361.59,291.32 371.52,292.26 381.21,293 C456.1,298.74 475.1,293.96 550.21,293 C571.44,292.73 582.2936,292.5456 603.8036,292.0156" fill="none" id="PreisblattHardware-to-Dienstleistungstyp" style="stroke:#181818;stroke-width:1;"/><polygon fill="#181818" points="615.8,291.72,609.7033,287.869,603.8036,292.0156,609.9003,295.8666,615.8,291.72" style="stroke:#181818;stroke-width:1;"/><text fill="#000000" font-family="sans-serif" font-size="13" lengthAdjust="spacing" textLength="167.0957" x="382.21" y="289.0669">inklusiveDienstleistungen</text><text fill="#000000" font-family="sans-serif" font-size="13" lengthAdjust="spacing" textLength="23.0356" x="584.8621" y="304.5745">0..*</text></g><!--SRC=[nLPHRvim47ukl-AKl6MA8McoLcYhrAZJzjJjUHcQ35o2LR2HRPgLhVzz1X92YhDr3qjumVVvxkFkFlbCYYiDMe1awqH3p2H6cWdkE55AbOB1ShbYAVgkUHAHeIiBpb6w6o4VtCNdsOTn_gGJmG_MiOYKIuXBjFZH63hBtKHdgKjpvePYXYGKf0A6EoENo5IOKgqJAkCDbKY-jD2dBGHzA0Y-yNUAbUXFl9lZP0EWoX8DFvsBxuyebIaPV51Qmj8ZP1B0UvXwqxat8HxntgodipcDBaEFEXTbeQWkRxMMB2mqcgYl1qXDCAe8xWL7Gy_YbyprnhFZS9gXocc4_xtDi3M2e6x4reBXuktTrUrrrOMpoTsHkIFGNsHz8UV9qr-ZfAZ9n_e5pSkQSkDOfzju6TrF83lo8ki8NvbTwIiRXl4akfoVGlmsc-7UZ1bofLEZe2xuMkcddDpr8EX3_IuVeQkhxSUVfLYEkiGGEPBxtGhQrP6AsfYwaDRxBFc7BAMyP2Yh9cPek68a2mi8Dl18WJRIkbORHpKkRHV2UFphPZVEEljMN-CyWa4rX0VxOs0lmmTRTl_0kjVP1tFQLQFTg-9D8TkvOhAWYgbcXlmvU6G9PlmXBHHxn0R1rp7KwLkEOeVlS1VDpqB2JDCop49pbJeg4HkmVMl5C8tLRm00]--></g></svg>