<?xml version="1.0" encoding="us-ascii" standalone="no"?><svg xmlns="http://www.w3.org/2000/svg" xmlns:xlink="http://www.w3.org/1999/xlink" contentStyleType="text/css" height="501px" preserveAspectRatio="none" style="width:878px;height:501px;background:#FFFFFF;" version="1.1" viewBox="0 0 878 501" width="878px" zoomAndPan="magnify"><defs/><g><!--cluster bo4e--><g id="cluster_bo4e"><path d="M597.5,6 L638.5,6 A3.75,3.75 0 0 1 641,8.5 L648,28.2969 L868.5,28.2969 A2.5,2.5 0 0 1 871,30.7969 L871,491.5 A2.5,2.5 0 0 1 868.5,494 L597.5,494 A2.5,2.5 0 0 1 595,491.5 L595,8.5 A2.5,2.5 0 0 1 597.5,6 " fill="none" style="stroke:#000000;stroke-width:1.5;"/><line style="stroke:#000000;stroke-width:1.5;" x1="595" x2="648" y1="28.2969" y2="28.2969"/><text fill="#000000" font-family="sans-serif" font-size="14" font-weight="bold" lengthAdjust="spacing" textLength="40" x="599" y="20.9951">bo4e</text></g><!--cluster bo--><g id="cluster_bo"><path d="M660,49 L726,49 A3.75,3.75 0 0 1 728.5,51.5 L735.5,71.2969 L806,71.2969 A2.5,2.5 0 0 1 808.5,73.7969 L808.5,208.5 A2.5,2.5 0 0 1 806,211 L660,211 A2.5,2.5 0 0 1 657.5,208.5 L657.5,51.5 A2.5,2.5 0 0 1 660,49 " fill="#B6D7A8" style="stroke:#000000;stroke-width:1.5;"/><line style="stroke:#000000;stroke-width:1.5;" x1="657.5" x2="735.5" y1="71.2969" y2="71.2969"/><a href="https://bo4e.github.io/BO4E-python/latest/api/bo4e.bo.html" target="_top" title="https://bo4e.github.io/BO4E-python/latest/api/bo4e.bo.html" xlink:actuate="onRequest" xlink:href="https://bo4e.github.io/BO4E-python/latest/api/bo4e.bo.html" xlink:show="new" xlink:title="https://bo4e.github.io/BO4E-python/latest/api/bo4e.bo.html" xlink:type="simple"><text fill="#0000FF" font-family="sans-serif" font-size="14" font-weight="bold" lengthAdjust="spacing" text-decoration="underline" textLength="65" x="661.5" y="63.9951">bo4e.bo</text></a></g><!--cluster enum--><g id="cluster_enum"><path d="M621.5,235 L711.5,235 A3.75,3.75 0 0 1 714,237.5 L721,257.2969 L844.5,257.2969 A2.5,2.5 0 0 1 847,259.7969 L847,467.5 A2.5,2.5 0 0 1 844.5,470 L621.5,470 A2.5,2.5 0 0 1 619,467.5 L619,237.5 A2.5,2.5 0 0 1 621.5,235 " fill="#D1C358" style="stroke:#000000;stroke-width:1.5;"/><line style="stroke:#000000;stroke-width:1.5;" x1="619" x2="721" y1="257.2969" y2="257.2969"/><a href="https://bo4e.github.io/BO4E-python/latest/api/bo4e.enum.html" target="_top" title="https://bo4e.github.io/BO4E-python/latest/api/bo4e.enum.html" xlink:actuate="onRequest" xlink:href="https://bo4e.github.io/BO4E-python/latest/api/bo4e.enum.html" xlink:show="new" xlink:title="https://bo4e.github.io/BO4E-python/latest/api/bo4e.enum.html" xlink:type="simple"><text fill="#0000FF" font-family="sans-serif" font-size="14" font-weight="bold" lengthAdjust="spacing" text-decoration="underline" textLength="89" x="623" y="249.9951">bo4e.enum</text></a></g><!--class Preisblatt--><g id="elem_Preisblatt"><rect codeLine="10" fill="#F1F1F1" height="37.9375" id="Preisblatt" rx="2.5" ry="2.5" style="stroke:#181818;stroke-width:0.5;" width="119" x="673.5" y="84.03"/><ellipse cx="688.5" cy="102.9987" fill="#ADD1B2" rx="11" ry="11" style="stroke:#181818;stroke-width:1.0;"/><path d="M691.4688,108.6394 Q690.8906,108.9362 690.25,109.0769 Q689.6094,109.2331 688.9063,109.2331 Q686.4063,109.2331 685.0781,107.5925 Q683.7656,105.9362 683.7656,102.8112 Q683.7656,99.6862 685.0781,98.03 Q686.4063,96.3737 688.9063,96.3737 Q689.6094,96.3737 690.25,96.53 Q690.9063,96.6862 691.4688,96.9831 L691.4688,99.7019 Q690.8438,99.1237 690.25,98.8581 Q689.6563,98.5769 689.0313,98.5769 Q687.6875,98.5769 687,99.655 Q686.3125,100.7175 686.3125,102.8112 Q686.3125,104.905 687,105.9831 Q687.6875,107.0456 689.0313,107.0456 Q689.6563,107.0456 690.25,106.78 Q690.8438,106.4987 691.4688,105.9206 L691.4688,108.6394 Z " fill="#000000"/><a href="https://bo4e.github.io/BO4E-python/latest/api/bo4e.bo.html#bo4e.bo.preisblatt.Preisblatt" target="_top" title="https://bo4e.github.io/BO4E-python/latest/api/bo4e.bo.html#bo4e.bo.preisblatt.Preisblatt" xlink:actuate="onRequest" xlink:href="https://bo4e.github.io/BO4E-python/latest/api/bo4e.bo.html#bo4e.bo.preisblatt.Preisblatt" xlink:show="new" xlink:title="https://bo4e.github.io/BO4E-python/latest/api/bo4e.bo.html#bo4e.bo.preisblatt.Preisblatt" xlink:type="simple"><text fill="#0000FF" font-family="sans-serif" font-size="14" lengthAdjust="spacing" text-decoration="underline" textLength="64" x="714" y="102.0251">Preisblatt</text></a><text fill="#000000" font-family="sans-serif" font-size="10" lengthAdjust="spacing" textLength="87" x="702.5" y="114.6091">bo4e.bo.preisblatt</text></g><!--class Geraet--><g id="elem_Geraet"><rect codeLine="11" fill="#F1F1F1" height="37.9375" id="Geraet" rx="2.5" ry="2.5" style="stroke:#181818;stroke-width:0.5;" width="106" x="680" y="157.03"/><ellipse cx="695" cy="175.9987" fill="#ADD1B2" rx="11" ry="11" style="stroke:#181818;stroke-width:1.0;"/><path d="M697.9688,181.6394 Q697.3906,181.9362 696.75,182.0769 Q696.1094,182.2331 695.4063,182.2331 Q692.9063,182.2331 691.5781,180.5925 Q690.2656,178.9362 690.2656,175.8112 Q690.2656,172.6862 691.5781,171.03 Q692.9063,169.3737 695.4063,169.3737 Q696.1094,169.3737 696.75,169.53 Q697.4063,169.6862 697.9688,169.9831 L697.9688,172.7019 Q697.3438,172.1237 696.75,171.8581 Q696.1563,171.5769 695.5313,171.5769 Q694.1875,171.5769 693.5,172.655 Q692.8125,173.7175 692.8125,175.8112 Q692.8125,177.905 693.5,178.9831 Q694.1875,180.0456 695.5313,180.0456 Q696.1563,180.0456 696.75,179.78 Q697.3438,179.4987 697.9688,178.9206 L697.9688,181.6394 Z " fill="#000000"/><a href="https://bo4e.github.io/BO4E-python/latest/api/bo4e.bo.html#bo4e.bo.geraet.Geraet" target="_top" title="https://bo4e.github.io/BO4E-python/latest/api/bo4e.bo.html#bo4e.bo.geraet.Geraet" xlink:actuate="onRequest" xlink:href="https://bo4e.github.io/BO4E-python/latest/api/bo4e.bo.html#bo4e.bo.geraet.Geraet" xlink:show="new" xlink:title="https://bo4e.github.io/BO4E-python/latest/api/bo4e.bo.html#bo4e.bo.geraet.Geraet" xlink:type="simple"><text fill="#0000FF" font-family="sans-serif" font-size="14" lengthAdjust="spacing" text-decoration="underline" textLength="47" x="722.5" y="175.0251">Geraet</text></a><text fill="#000000" font-family="sans-serif" font-size="10" lengthAdjust="spacing" textLength="74" x="709" y="187.6091">bo4e.bo.geraet</text></g><!--class Netzebene--><g id="elem_Netzebene"><rect codeLine="14" fill="#F1F1F1" height="37.9375" id="Netzebene" rx="2.5" ry="2.5" style="stroke:#181818;stroke-width:0.5;" width="141" x="662.5" y="270.03"/><ellipse cx="677.5" cy="288.9988" fill="#ADD1B2" rx="11" ry="11" style="stroke:#181818;stroke-width:1.0;"/><path d="M680.4688,294.6394 Q679.8906,294.9363 679.25,295.0769 Q678.6094,295.2331 677.9063,295.2331 Q675.4063,295.2331 674.0781,293.5925 Q672.7656,291.9363 672.7656,288.8113 Q672.7656,285.6863 674.0781,284.03 Q675.4063,282.3738 677.9063,282.3738 Q678.6094,282.3738 679.25,282.53 Q679.9063,282.6863 680.4688,282.9831 L680.4688,285.7019 Q679.8438,285.1238 679.25,284.8581 Q678.6563,284.5769 678.0313,284.5769 Q676.6875,284.5769 676,285.655 Q675.3125,286.7175 675.3125,288.8113 Q675.3125,290.905 676,291.9831 Q676.6875,293.0456 678.0313,293.0456 Q678.6563,293.0456 679.25,292.78 Q679.8438,292.4988 680.4688,291.9206 L680.4688,294.6394 Z " fill="#000000"/><a href="https://bo4e.github.io/BO4E-python/latest/api/bo4e.enum.html#bo4e.enum.netzebene.Netzebene" target="_top" title="https://bo4e.github.io/BO4E-python/latest/api/bo4e.enum.html#bo4e.enum.netzebene.Netzebene" xlink:actuate="onRequest" xlink:href="https://bo4e.github.io/BO4E-python/latest/api/bo4e.enum.html#bo4e.enum.netzebene.Netzebene" xlink:show="new" xlink:title="https://bo4e.github.io/BO4E-python/latest/api/bo4e.enum.html#bo4e.enum.netzebene.Netzebene" xlink:type="simple"><text fill="#0000FF" font-family="sans-serif" font-size="14" lengthAdjust="spacing" text-decoration="underline" textLength="77" x="707.5" y="288.0251">Netzebene</text></a><text fill="#000000" font-family="sans-serif" font-size="10" lengthAdjust="spacing" textLength="109" x="691.5" y="300.6091">bo4e.enum.netzebene</text></g><!--class Bilanzierungsmethode--><g id="elem_Bilanzierungsmethode"><rect codeLine="15" fill="#F1F1F1" height="37.9375" id="Bilanzierungsmethode" rx="2.5" ry="2.5" style="stroke:#181818;stroke-width:0.5;" width="196" x="635" y="343.03"/><ellipse cx="650" cy="361.9988" fill="#ADD1B2" rx="11" ry="11" style="stroke:#181818;stroke-width:1.0;"/><path d="M652.9688,367.6394 Q652.3906,367.9363 651.75,368.0769 Q651.1094,368.2331 650.4063,368.2331 Q647.9063,368.2331 646.5781,366.5925 Q645.2656,364.9363 645.2656,361.8113 Q645.2656,358.6863 646.5781,357.03 Q647.9063,355.3738 650.4063,355.3738 Q651.1094,355.3738 651.75,355.53 Q652.4063,355.6863 652.9688,355.9831 L652.9688,358.7019 Q652.3438,358.1238 651.75,357.8581 Q651.1563,357.5769 650.5313,357.5769 Q649.1875,357.5769 648.5,358.655 Q647.8125,359.7175 647.8125,361.8113 Q647.8125,363.905 648.5,364.9831 Q649.1875,366.0456 650.5313,366.0456 Q651.1563,366.0456 651.75,365.78 Q652.3438,365.4988 652.9688,364.9206 L652.9688,367.6394 Z " fill="#000000"/><a href="https://bo4e.github.io/BO4E-python/latest/api/bo4e.enum.html#bo4e.enum.bilanzierungsmethode.Bilanzierungsmethode" target="_top" title="https://bo4e.github.io/BO4E-python/latest/api/bo4e.enum.html#bo4e.enum.bilanzierungsmethode.Bilanzierungsmethode" xlink:actuate="onRequest" xlink:href="https://bo4e.github.io/BO4E-python/latest/api/bo4e.enum.html#bo4e.enum.bilanzierungsmethode.Bilanzierungsmethode" xlink:show="new" xlink:title="https://bo4e.github.io/BO4E-python/latest/api/bo4e.enum.html#bo4e.enum.bilanzierungsmethode.Bilanzierungsmethode" xlink:type="simple"><text fill="#0000FF" font-family="sans-serif" font-size="14" lengthAdjust="spacing" text-decoration="underline" textLength="156" x="668" y="361.0251">Bilanzierungsmethode</text></a><text fill="#000000" font-family="sans-serif" font-size="10" lengthAdjust="spacing" textLength="164" x="664" y="373.6091">bo4e.enum.bilanzierungsmethode</text></g><!--class Dienstleistungstyp--><g id="elem_Dienstleistungstyp"><rect codeLine="16" fill="#F1F1F1" height="37.9375" id="Dienstleistungstyp" rx="2.5" ry="2.5" style="stroke:#181818;stroke-width:0.5;" width="177" x="644.5" y="416.03"/><ellipse cx="659.5" cy="434.9988" fill="#ADD1B2" rx="11" ry="11" style="stroke:#181818;stroke-width:1.0;"/><path d="M662.4688,440.6394 Q661.8906,440.9363 661.25,441.0769 Q660.6094,441.2331 659.9063,441.2331 Q657.4063,441.2331 656.0781,439.5925 Q654.7656,437.9363 654.7656,434.8113 Q654.7656,431.6863 656.0781,430.03 Q657.4063,428.3738 659.9063,428.3738 Q660.6094,428.3738 661.25,428.53 Q661.9063,428.6863 662.4688,428.9831 L662.4688,431.7019 Q661.8438,431.1238 661.25,430.8581 Q660.6563,430.5769 660.0313,430.5769 Q658.6875,430.5769 658,431.655 Q657.3125,432.7175 657.3125,434.8113 Q657.3125,436.905 658,437.9831 Q658.6875,439.0456 660.0313,439.0456 Q660.6563,439.0456 661.25,438.78 Q661.8438,438.4988 662.4688,437.9206 L662.4688,440.6394 Z " fill="#000000"/><a href="https://bo4e.github.io/BO4E-python/latest/api/bo4e.enum.html#bo4e.enum.dienstleistungstyp.Dienstleistungstyp" target="_top" title="https://bo4e.github.io/BO4E-python/latest/api/bo4e.enum.html#bo4e.enum.dienstleistungstyp.Dienstleistungstyp" xlink:actuate="onRequest" xlink:href="https://bo4e.github.io/BO4E-python/latest/api/bo4e.enum.html#bo4e.enum.dienstleistungstyp.Dienstleistungstyp" xlink:show="new" xlink:title="https://bo4e.github.io/BO4E-python/latest/api/bo4e.enum.html#bo4e.enum.dienstleistungstyp.Dienstleistungstyp" xlink:type="simple"><text fill="#0000FF" font-family="sans-serif" font-size="14" lengthAdjust="spacing" text-decoration="underline" textLength="129" x="681.5" y="434.0251">Dienstleistungstyp</text></a><text fill="#000000" font-family="sans-serif" font-size="10" lengthAdjust="spacing" textLength="145" x="673.5" y="446.6091">bo4e.enum.dienstleistungstyp</text></g><!--class PreisblattHardware--><g id="elem_PreisblattHardware"><rect codeLine="3" fill="#F1F1F1" height="94.8281" id="PreisblattHardware" rx="2.5" ry="2.5" style="stroke:#181818;stroke-width:0.5;" width="379" x="7" y="214.59"/><ellipse cx="125.75" cy="233.5587" fill="#ADD1B2" rx="11" ry="11" style="stroke:#181818;stroke-width:1.0;"/><path d="M128.7188,239.1994 Q128.1406,239.4962 127.5,239.6369 Q126.8594,239.7931 126.1563,239.7931 Q123.6563,239.7931 122.3281,238.1525 Q121.0156,236.4962 121.0156,233.3712 Q121.0156,230.2462 122.3281,228.59 Q123.6563,226.9337 126.1563,226.9337 Q126.8594,226.9337 127.5,227.09 Q128.1563,227.2462 128.7188,227.5431 L128.7188,230.2619 Q128.0938,229.6837 127.5,229.4181 Q126.9063,229.1369 126.2813,229.1369 Q124.9375,229.1369 124.25,230.215 Q123.5625,231.2775 123.5625,233.3712 Q123.5625,235.465 124.25,236.5431 Q124.9375,237.6056 126.2813,237.6056 Q126.9063,237.6056 127.5,237.34 Q128.0938,237.0587 128.7188,236.4806 L128.7188,239.1994 Z " fill="#000000"/><a href="https://bo4e.github.io/BO4E-python/latest/api/bo4e.bo.html#bo4e.bo.preisblatthardware.PreisblattHardware" target="_top" title="https://bo4e.github.io/BO4E-python/latest/api/bo4e.bo.html#bo4e.bo.preisblatthardware.PreisblattHardware" xlink:actuate="onRequest" xlink:href="https://bo4e.github.io/BO4E-python/latest/api/bo4e.bo.html#bo4e.bo.preisblatthardware.PreisblattHardware" xlink:show="new" xlink:title="https://bo4e.github.io/BO4E-python/latest/api/bo4e.bo.html#bo4e.bo.preisblatthardware.PreisblattHardware" xlink:type="simple"><text fill="#0000FF" font-family="sans-serif" font-size="14" lengthAdjust="spacing" text-decoration="underline" textLength="129" x="148.25" y="232.5851">PreisblattHardware</text></a><text fill="#000000" font-family="sans-serif" font-size="10" lengthAdjust="spacing" textLength="133" x="146.25" y="245.1691">bo4e.bo.preisblatthardware</text><line style="stroke:#181818;stroke-width:0.5;" x1="8" x2="385" y1="252.5275" y2="252.5275"/><text fill="#000000" font-family="sans-serif" font-size="14" lengthAdjust="spacing" textLength="367" x="13" y="269.5226">_version : str [0..1] = 202401.6.1.dev10+gd9a39942</text><text fill="#000000" font-family="sans-serif" font-size="14" lengthAdjust="spacing" textLength="311" x="13" y="285.8195">zusatzAttribute : ZusatzAttribut [0..*] = None</text><text fill="#000000" font-family="sans-serif" font-size="14" lengthAdjust="spacing" textLength="147" x="13" y="302.1164">_id : str [0..1] = None</text></g><!--link PreisblattHardware to Preisblatt--><g id="link_PreisblattHardware_Preisblatt"><path codeLine="19" d="M298.48,214.12 C334.93,198.15 376.76,181.32 416,169 C503.83,141.43 591.2695,124.9352 655.3995,114.5952 " fill="none" id="PreisblattHardware-to-Preisblatt" style="stroke:#181818;stroke-width:1.0;"/><polygon fill="none" points="673.17,111.73,654.4444,108.6717,656.3546,120.5187,673.17,111.73" style="stroke:#181818;stroke-width:1.0;"/></g><!--link PreisblattHardware to Bilanzierungsmethode--><g id="link_PreisblattHardware_Bilanzierungsmethode"><path codeLine="20" d="M365.76,309.86 C382.66,313.94 399.62,317.74 416,321 C488.71,335.46 559.9494,344.7311 622.7094,351.5111 " fill="none" id="PreisblattHardware-to-Bilanzierungsmethode" style="stroke:#181818;stroke-width:1.0;"/><polygon fill="#181818" points="634.64,352.8,629.1043,348.1787,622.7094,351.5111,628.2451,356.1324,634.64,352.8" style="stroke:#181818;stroke-width:1.0;"/><text fill="#000000" font-family="sans-serif" font-size="13" lengthAdjust="spacing" textLength="142" x="426.5" y="317.0669">bilanzierungsmethode</text><text fill="#000000" font-family="sans-serif" font-size="13" lengthAdjust="spacing" textLength="24" x="602.8803" y="364.7521">0..1</text></g><!--link PreisblattHardware to Netzebene--><g id="link_PreisblattHardware_Netzebene"><path codeLine="21" d="M386.23,290.47 C396.28,291.45 406.25,292.31 416,293 C488.26,298.1 506.56,293.95 579,293 C606.23,292.64 624.1946,292.2605 650.3246,291.5405 " fill="none" id="PreisblattHardware-to-Netzebene" style="stroke:#181818;stroke-width:1.0;"/><polygon fill="#181818" points="662.32,291.21,656.2121,287.3768,650.3246,291.5405,656.4325,295.3737,662.32,291.21" style="stroke:#181818;stroke-width:1.0;"/><text fill="#000000" font-family="sans-serif" font-size="13" lengthAdjust="spacing" textLength="75" x="460" y="289.0669">messebene</text><text fill="#000000" font-family="sans-serif" font-size="13" lengthAdjust="spacing" textLength="24" x="630.4396" y="304.2088">0..1</text></g><!--link PreisblattHardware to Geraet--><g id="link_PreisblattHardware_Geraet"><path codeLine="22" d="M386.5,220.26 C396.46,218.4 406.34,216.63 416,215 C508.25,199.42 604.7009,188.5978 667.5709,182.2378 " fill="none" id="PreisblattHardware-to-Geraet" style="stroke:#181818;stroke-width:1.0;"/><polygon fill="#181818" points="679.51,181.03,673.1379,177.6542,667.5709,182.2378,673.9431,185.6136,679.51,181.03" style="stroke:#181818;stroke-width:1.0;"/><text fill="#000000" font-family="sans-serif" font-size="13" lengthAdjust="spacing" textLength="75" x="460" y="190.0669">basisgeraet</text><text fill="#000000" font-family="sans-serif" font-size="13" lengthAdjust="spacing" textLength="24" x="647.9377" y="194.5535">0..1</text></g><!--link PreisblattHardware to Geraet--><g id="link_PreisblattHardware_Geraet"><path codeLine="23" d="M386.05,263.73 C448.14,260.97 517.1,254.29 579,240 C620.52,230.41 654.4284,215.8695 684.7084,200.7895 " fill="none" id="PreisblattHardware-to-Geraet-1" style="stroke:#181818;stroke-width:1.0;"/><polygon fill="#181818" points="695.45,195.44,688.296,194.5342,684.7084,200.7895,691.8624,201.6953,695.45,195.44" style="stroke:#181818;stroke-width:1.0;"/><text fill="#000000" font-family="sans-serif" font-size="13" lengthAdjust="spacing" textLength="106" x="444.5" y="236.0669">inklusiveGeraete</text><text fill="#000000" font-family="sans-serif" font-size="13" lengthAdjust="spacing" textLength="23" x="688.1234" y="215.1028">0..*</text></g><!--link PreisblattHardware to Dienstleistungstyp--><g id="link_PreisblattHardware_Dienstleistungstyp"><path codeLine="24" d="M280.35,309.79 C320.28,331.13 369.5,355.01 416,371 C491.03,396.81 567.9896,411.835 632.3296,421.735 " fill="none" id="PreisblattHardware-to-Dienstleistungstyp" style="stroke:#181818;stroke-width:1.0;"/><polygon fill="#181818" points="644.19,423.56,638.8681,418.694,632.3296,421.735,637.6515,426.601,644.19,423.56" style="stroke:#181818;stroke-width:1.0;"/><text fill="#000000" font-family="sans-serif" font-size="13" lengthAdjust="spacing" textLength="161" x="417" y="367.0669">inklusiveDienstleistungen</text><text fill="#000000" font-family="sans-serif" font-size="13" lengthAdjust="spacing" textLength="23" x="613.51" y="435.3304">0..*</text></g><!--SRC=[jLNVRzCm47vU_efJ-rPKD-dAe15CMZK4JuDdIeISvfPO94vaNpejiFyT9-cFT75XgEN9liztd-_kyuyKxmae1oNYX20I2bSaSkaugvHh3OFbCY4gj3-PXFaCMImeAKCcyidYy-p3k7Ya99UJb1Dgcl12j5vXpXBAqk7MA1GA7HelIhYA7hX2zcK7VTf0q8U2u9jyfqM5lkTU7oSR0DUMQFZfN7nVezAc7l11auAbovWNm7kOkjEPwx4hvh48rvxxAexc_78-dqsTYwhKdAeR8YN2aj24VZr06fPHpNANIpHxYEWvVRFmv3YIPwWBliBJ6WaR8mYQKZSM31TNjszktjPr_X-rEYfr-liNLPwfSTxSObGSYNri1cW7QpwjOvDBwsNaE5KDb6NMqQCskuhKDWmZRtNv-cHDTbiDzwP4gZ14YUnkEuFThD-4mvWcpPtt-PCBHSfb9L2LCjOPchW8sS82WWqyahsDj2d4nd7-cYA1KbDgJZBL-z1ZmMvx4FIX8zNqwPfQ-l7ros5x8CVZNzVRozzPj_eQvn4CwlTei3-TTa5yiFNv7rZtnz47SyDqUyHU56yAsTnbamNNGhVtzi_18qkma3_IKeirjWY-ZA59tw9fX-zm5StFc0ZJj0opq7mjZaxo1x3jTIymZVHl]--></g></svg>