<?xml version="1.0" encoding="us-ascii" standalone="no"?><svg xmlns="http://www.w3.org/2000/svg" xmlns:xlink="http://www.w3.org/1999/xlink" contentStyleType="text/css" height="282px" preserveAspectRatio="none" style="width:795px;height:282px;background:#FFFFFF;" version="1.1" viewBox="0 0 795 282" width="795px" zoomAndPan="magnify"><defs/><g><!--cluster bo4e--><g id="cluster_bo4e"><path d="M540.5,6 L581.5,6 A3.75,3.75 0 0 1 584,8.5 L591,28.2969 L785.5,28.2969 A2.5,2.5 0 0 1 788,30.7969 L788,272.5 A2.5,2.5 0 0 1 785.5,275 L540.5,275 A2.5,2.5 0 0 1 538,272.5 L538,8.5 A2.5,2.5 0 0 1 540.5,6 " fill="none" style="stroke:#000000;stroke-width:1.5;"/><line style="stroke:#000000;stroke-width:1.5;" x1="538" x2="591" y1="28.2969" y2="28.2969"/><text fill="#000000" font-family="sans-serif" font-size="14" font-weight="bold" lengthAdjust="spacing" textLength="40" x="542" y="20.9951">bo4e</text></g><!--cluster bo--><g id="cluster_bo"><path d="M590,49 L656,49 A3.75,3.75 0 0 1 658.5,51.5 L665.5,71.2969 L736,71.2969 A2.5,2.5 0 0 1 738.5,73.7969 L738.5,135.5 A2.5,2.5 0 0 1 736,138 L590,138 A2.5,2.5 0 0 1 587.5,135.5 L587.5,51.5 A2.5,2.5 0 0 1 590,49 " fill="#B6D7A8" style="stroke:#000000;stroke-width:1.5;"/><line style="stroke:#000000;stroke-width:1.5;" x1="587.5" x2="665.5" y1="71.2969" y2="71.2969"/><a href="https://bo4e.github.io/BO4E-python/latest/api/bo4e.bo.html" target="_top" title="https://bo4e.github.io/BO4E-python/latest/api/bo4e.bo.html" xlink:actuate="onRequest" xlink:href="https://bo4e.github.io/BO4E-python/latest/api/bo4e.bo.html" xlink:show="new" xlink:title="https://bo4e.github.io/BO4E-python/latest/api/bo4e.bo.html" xlink:type="simple"><text fill="#0000FF" font-family="sans-serif" font-size="14" font-weight="bold" lengthAdjust="spacing" text-decoration="underline" textLength="65" x="591.5" y="63.9951">bo4e.bo</text></a></g><!--cluster enum--><g id="cluster_enum"><path d="M564.5,162 L654.5,162 A3.75,3.75 0 0 1 657,164.5 L664,184.2969 L761.5,184.2969 A2.5,2.5 0 0 1 764,186.7969 L764,248.5 A2.5,2.5 0 0 1 761.5,251 L564.5,251 A2.5,2.5 0 0 1 562,248.5 L562,164.5 A2.5,2.5 0 0 1 564.5,162 " fill="#D1C358" style="stroke:#000000;stroke-width:1.5;"/><line style="stroke:#000000;stroke-width:1.5;" x1="562" x2="664" y1="184.2969" y2="184.2969"/><a href="https://bo4e.github.io/BO4E-python/latest/api/bo4e.enum.html" target="_top" title="https://bo4e.github.io/BO4E-python/latest/api/bo4e.enum.html" xlink:actuate="onRequest" xlink:href="https://bo4e.github.io/BO4E-python/latest/api/bo4e.enum.html" xlink:show="new" xlink:title="https://bo4e.github.io/BO4E-python/latest/api/bo4e.enum.html" xlink:type="simple"><text fill="#0000FF" font-family="sans-serif" font-size="14" font-weight="bold" lengthAdjust="spacing" text-decoration="underline" textLength="89" x="566" y="176.9951">bo4e.enum</text></a></g><!--class Preisblatt--><g id="elem_Preisblatt"><rect codeLine="10" fill="#F1F1F1" height="37.9375" id="Preisblatt" rx="2.5" ry="2.5" style="stroke:#181818;stroke-width:0.5;" width="119" x="603.5" y="84.03"/><ellipse cx="618.5" cy="102.9988" fill="#ADD1B2" rx="11" ry="11" style="stroke:#181818;stroke-width:1.0;"/><path d="M621.4688,108.6394 Q620.8906,108.9363 620.25,109.0769 Q619.6094,109.2331 618.9063,109.2331 Q616.4063,109.2331 615.0781,107.5925 Q613.7656,105.9363 613.7656,102.8113 Q613.7656,99.6863 615.0781,98.03 Q616.4063,96.3738 618.9063,96.3738 Q619.6094,96.3738 620.25,96.53 Q620.9063,96.6863 621.4688,96.9831 L621.4688,99.7019 Q620.8438,99.1238 620.25,98.8581 Q619.6563,98.5769 619.0313,98.5769 Q617.6875,98.5769 617,99.655 Q616.3125,100.7175 616.3125,102.8113 Q616.3125,104.905 617,105.9831 Q617.6875,107.0456 619.0313,107.0456 Q619.6563,107.0456 620.25,106.78 Q620.8438,106.4988 621.4688,105.9206 L621.4688,108.6394 Z " fill="#000000"/><a href="https://bo4e.github.io/BO4E-python/latest/api/bo4e.bo.html#bo4e.bo.preisblatt.Preisblatt" target="_top" title="https://bo4e.github.io/BO4E-python/latest/api/bo4e.bo.html#bo4e.bo.preisblatt.Preisblatt" xlink:actuate="onRequest" xlink:href="https://bo4e.github.io/BO4E-python/latest/api/bo4e.bo.html#bo4e.bo.preisblatt.Preisblatt" xlink:show="new" xlink:title="https://bo4e.github.io/BO4E-python/latest/api/bo4e.bo.html#bo4e.bo.preisblatt.Preisblatt" xlink:type="simple"><text fill="#0000FF" font-family="sans-serif" font-size="14" lengthAdjust="spacing" text-decoration="underline" textLength="64" x="644" y="102.0251">Preisblatt</text></a><text fill="#000000" font-family="sans-serif" font-size="10" lengthAdjust="spacing" textLength="87" x="632.5" y="114.6091">bo4e.bo.preisblatt</text></g><!--class KundengruppeKA--><g id="elem_KundengruppeKA"><rect codeLine="13" fill="#F1F1F1" height="37.9375" id="KundengruppeKA" rx="2.5" ry="2.5" style="stroke:#181818;stroke-width:0.5;" width="170" x="578" y="197.03"/><ellipse cx="593" cy="215.9988" fill="#ADD1B2" rx="11" ry="11" style="stroke:#181818;stroke-width:1.0;"/><path d="M595.9688,221.6394 Q595.3906,221.9363 594.75,222.0769 Q594.1094,222.2331 593.4063,222.2331 Q590.9063,222.2331 589.5781,220.5925 Q588.2656,218.9363 588.2656,215.8113 Q588.2656,212.6863 589.5781,211.03 Q590.9063,209.3738 593.4063,209.3738 Q594.1094,209.3738 594.75,209.53 Q595.4063,209.6863 595.9688,209.9831 L595.9688,212.7019 Q595.3438,212.1238 594.75,211.8581 Q594.1563,211.5769 593.5313,211.5769 Q592.1875,211.5769 591.5,212.655 Q590.8125,213.7175 590.8125,215.8113 Q590.8125,217.905 591.5,218.9831 Q592.1875,220.0456 593.5313,220.0456 Q594.1563,220.0456 594.75,219.78 Q595.3438,219.4988 595.9688,218.9206 L595.9688,221.6394 Z " fill="#000000"/><a href="https://bo4e.github.io/BO4E-python/latest/api/bo4e.enum.html#bo4e.enum.kundengruppeka.KundengruppeKA" target="_top" title="https://bo4e.github.io/BO4E-python/latest/api/bo4e.enum.html#bo4e.enum.kundengruppeka.KundengruppeKA" xlink:actuate="onRequest" xlink:href="https://bo4e.github.io/BO4E-python/latest/api/bo4e.enum.html#bo4e.enum.kundengruppeka.KundengruppeKA" xlink:show="new" xlink:title="https://bo4e.github.io/BO4E-python/latest/api/bo4e.enum.html#bo4e.enum.kundengruppeka.KundengruppeKA" xlink:type="simple"><text fill="#0000FF" font-family="sans-serif" font-size="14" lengthAdjust="spacing" text-decoration="underline" textLength="122" x="615" y="215.0251">KundengruppeKA</text></a><text fill="#000000" font-family="sans-serif" font-size="10" lengthAdjust="spacing" textLength="138" x="607" y="227.6091">bo4e.enum.kundengruppeka</text></g><!--class PreisblattKonzessionsabgabe--><g id="elem_PreisblattKonzessionsabgabe"><rect codeLine="3" fill="#F1F1F1" height="94.8281" id="PreisblattKonzessionsabgabe" rx="2.5" ry="2.5" style="stroke:#181818;stroke-width:0.5;" width="374" x="7" y="112.59"/><ellipse cx="87.25" cy="131.5588" fill="#ADD1B2" rx="11" ry="11" style="stroke:#181818;stroke-width:1.0;"/><path d="M90.2188,137.1994 Q89.6406,137.4963 89,137.6369 Q88.3594,137.7931 87.6563,137.7931 Q85.1563,137.7931 83.8281,136.1525 Q82.5156,134.4963 82.5156,131.3713 Q82.5156,128.2463 83.8281,126.59 Q85.1563,124.9338 87.6563,124.9338 Q88.3594,124.9338 89,125.09 Q89.6563,125.2463 90.2188,125.5431 L90.2188,128.2619 Q89.5938,127.6838 89,127.4181 Q88.4063,127.1369 87.7813,127.1369 Q86.4375,127.1369 85.75,128.215 Q85.0625,129.2775 85.0625,131.3713 Q85.0625,133.465 85.75,134.5431 Q86.4375,135.6056 87.7813,135.6056 Q88.4063,135.6056 89,135.34 Q89.5938,135.0588 90.2188,134.4806 L90.2188,137.1994 Z " fill="#000000"/><a href="https://bo4e.github.io/BO4E-python/latest/api/bo4e.bo.html#bo4e.bo.preisblattkonzessionsabgabe.PreisblattKonzessionsabgabe" target="_top" title="https://bo4e.github.io/BO4E-python/latest/api/bo4e.bo.html#bo4e.bo.preisblattkonzessionsabgabe.PreisblattKonzessionsabgabe" xlink:actuate="onRequest" xlink:href="https://bo4e.github.io/BO4E-python/latest/api/bo4e.bo.html#bo4e.bo.preisblattkonzessionsabgabe.PreisblattKonzessionsabgabe" xlink:show="new" xlink:title="https://bo4e.github.io/BO4E-python/latest/api/bo4e.bo.html#bo4e.bo.preisblattkonzessionsabgabe.PreisblattKonzessionsabgabe" xlink:type="simple"><text fill="#0000FF" font-family="sans-serif" font-size="14" lengthAdjust="spacing" text-decoration="underline" textLength="205" x="107.75" y="130.5851">PreisblattKonzessionsabgabe</text></a><text fill="#000000" font-family="sans-serif" font-size="10" lengthAdjust="spacing" textLength="180" x="120.25" y="143.1691">bo4e.bo.preisblattkonzessionsabgabe</text><line style="stroke:#181818;stroke-width:0.5;" x1="8" x2="380" y1="150.5275" y2="150.5275"/><text fill="#000000" font-family="sans-serif" font-size="14" lengthAdjust="spacing" textLength="362" x="13" y="167.5226">_version : str [0..1] = 202401.4.1.dev22+gb29fc2eb</text><text fill="#000000" font-family="sans-serif" font-size="14" lengthAdjust="spacing" textLength="311" x="13" y="183.8195">zusatzAttribute : ZusatzAttribut [0..*] = None</text><text fill="#000000" font-family="sans-serif" font-size="14" lengthAdjust="spacing" textLength="147" x="13" y="200.1164">_id : str [0..1] = None</text></g><!--link PreisblattKonzessionsabgabe to Preisblatt--><g id="link_PreisblattKonzessionsabgabe_Preisblatt"><path codeLine="16" d="M381.25,137.27 C460.56,127.59 529.6026,119.161 585.3926,112.351 " fill="none" id="PreisblattKonzessionsabgabe-to-Preisblatt" style="stroke:#181818;stroke-width:1.0;"/><polygon fill="none" points="603.26,110.17,584.6656,106.3952,586.1196,118.3068,603.26,110.17" style="stroke:#181818;stroke-width:1.0;"/></g><!--link PreisblattKonzessionsabgabe to KundengruppeKA--><g id="link_PreisblattKonzessionsabgabe_KundengruppeKA"><path codeLine="17" d="M381.25,182.33 C449.25,190.49 510.9154,197.8808 565.6854,204.4508 " fill="none" id="PreisblattKonzessionsabgabe-to-KundengruppeKA" style="stroke:#181818;stroke-width:1.0;"/><polygon fill="#181818" points="577.6,205.88,572.1191,201.1939,565.6854,204.4508,571.1663,209.1369,577.6,205.88" style="stroke:#181818;stroke-width:1.0;"/><text fill="#000000" font-family="sans-serif" font-size="13" lengthAdjust="spacing" textLength="109" x="412" y="183.0669">kundengruppeKA</text><text fill="#000000" font-family="sans-serif" font-size="13" lengthAdjust="spacing" textLength="24" x="546.1428" y="217.7515">0..1</text></g><!--SRC=[jLFBJiCm43oJhrYrjw8wJIYl2YgrWbCbu4o9a9ri4wk97SMR8WhyEqde8oqe85KSnxixuvsnOvmHa8PCXX5183FqIMfbMNxCZO7MT1eHfMPWsqBtaOMIebmmgUtnVV-scxvIf9KTSq93Da_bLvVGBA8aRgz1cg4qekYYkLPBDAPGC5o4N21xsDGc-pLeg7dUaxeoSea3fpVyWquBk6dYWpVhw7c1MNa40p2KmRJ7cEF1DRWzjzzpM9yvBC25wnw7mhsS-IuAwsYP6qxB4L4cHKvOZ3xkd5GidPBbJYiiD6ImJryLFYnByGHDodqyp7LO0S-hTbuXQ8_FRiv75-MU_nDjBScQqR_aj1TBOSEXBg3AaveF9QmxKM9e1uv_Sdgm5nkfzXRESnMW2hCyJN7EsQG69oFOXT-z-O6YklhkNFbO6lzDj_i-N0TVQsmUAgOwq2eVPMjhrVu20vZlNiMAP82GO2AAlsEPIBz0eyfCOXoOJm00]--></g></svg>