<?xml version="1.0" encoding="us-ascii" standalone="no"?><svg xmlns="http://www.w3.org/2000/svg" xmlns:xlink="http://www.w3.org/1999/xlink" contentStyleType="text/css" height="647px" preserveAspectRatio="none" style="width:878px;height:647px;background:#FFFFFF;" version="1.1" viewBox="0 0 878 647" width="878px" zoomAndPan="magnify"><defs/><g><!--cluster bo4e--><g id="cluster_bo4e"><path d="M597.5,6 L638.5,6 A3.75,3.75 0 0 1 641,8.5 L648,28.2969 L868.5,28.2969 A2.5,2.5 0 0 1 871,30.7969 L871,637.5 A2.5,2.5 0 0 1 868.5,640 L597.5,640 A2.5,2.5 0 0 1 595,637.5 L595,8.5 A2.5,2.5 0 0 1 597.5,6 " fill="none" style="stroke:#000000;stroke-width:1.5;"/><line style="stroke:#000000;stroke-width:1.5;" x1="595" x2="648" y1="28.2969" y2="28.2969"/><text fill="#000000" font-family="sans-serif" font-size="14" font-weight="bold" lengthAdjust="spacing" textLength="40" x="599" y="20.9951">bo4e</text></g><!--cluster bo--><g id="cluster_bo"><path d="M660,49 L726,49 A3.75,3.75 0 0 1 728.5,51.5 L735.5,71.2969 L806,71.2969 A2.5,2.5 0 0 1 808.5,73.7969 L808.5,281.5 A2.5,2.5 0 0 1 806,284 L660,284 A2.5,2.5 0 0 1 657.5,281.5 L657.5,51.5 A2.5,2.5 0 0 1 660,49 " fill="#B6D7A8" style="stroke:#000000;stroke-width:1.5;"/><line style="stroke:#000000;stroke-width:1.5;" x1="657.5" x2="735.5" y1="71.2969" y2="71.2969"/><a href="https://bo4e.github.io/BO4E-python/latest/api/bo4e.bo.html" target="_top" title="https://bo4e.github.io/BO4E-python/latest/api/bo4e.bo.html" xlink:actuate="onRequest" xlink:href="https://bo4e.github.io/BO4E-python/latest/api/bo4e.bo.html" xlink:show="new" xlink:title="https://bo4e.github.io/BO4E-python/latest/api/bo4e.bo.html" xlink:type="simple"><text fill="#0000FF" font-family="sans-serif" font-size="14" font-weight="bold" lengthAdjust="spacing" text-decoration="underline" textLength="65" x="661.5" y="63.9951">bo4e.bo</text></a></g><!--cluster enum--><g id="cluster_enum"><path d="M621.5,308 L711.5,308 A3.75,3.75 0 0 1 714,310.5 L721,330.2969 L844.5,330.2969 A2.5,2.5 0 0 1 847,332.7969 L847,613.5 A2.5,2.5 0 0 1 844.5,616 L621.5,616 A2.5,2.5 0 0 1 619,613.5 L619,310.5 A2.5,2.5 0 0 1 621.5,308 " fill="#D1C358" style="stroke:#000000;stroke-width:1.5;"/><line style="stroke:#000000;stroke-width:1.5;" x1="619" x2="721" y1="330.2969" y2="330.2969"/><a href="https://bo4e.github.io/BO4E-python/latest/api/bo4e.enum.html" target="_top" title="https://bo4e.github.io/BO4E-python/latest/api/bo4e.enum.html" xlink:actuate="onRequest" xlink:href="https://bo4e.github.io/BO4E-python/latest/api/bo4e.enum.html" xlink:show="new" xlink:title="https://bo4e.github.io/BO4E-python/latest/api/bo4e.enum.html" xlink:type="simple"><text fill="#0000FF" font-family="sans-serif" font-size="14" font-weight="bold" lengthAdjust="spacing" text-decoration="underline" textLength="89" x="623" y="322.9951">bo4e.enum</text></a></g><!--class Geraet--><g id="elem_Geraet"><rect codeLine="10" fill="#F1F1F1" height="37.9375" id="Geraet" rx="2.5" ry="2.5" style="stroke:#181818;stroke-width:0.5;" width="106" x="680" y="84.03"/><ellipse cx="695" cy="102.9987" fill="#ADD1B2" rx="11" ry="11" style="stroke:#181818;stroke-width:1.0;"/><path d="M697.9688,108.6394 Q697.3906,108.9362 696.75,109.0769 Q696.1094,109.2331 695.4063,109.2331 Q692.9063,109.2331 691.5781,107.5925 Q690.2656,105.9362 690.2656,102.8112 Q690.2656,99.6862 691.5781,98.03 Q692.9063,96.3737 695.4063,96.3737 Q696.1094,96.3737 696.75,96.53 Q697.4063,96.6862 697.9688,96.9831 L697.9688,99.7019 Q697.3438,99.1237 696.75,98.8581 Q696.1563,98.5769 695.5313,98.5769 Q694.1875,98.5769 693.5,99.655 Q692.8125,100.7175 692.8125,102.8112 Q692.8125,104.905 693.5,105.9831 Q694.1875,107.0456 695.5313,107.0456 Q696.1563,107.0456 696.75,106.78 Q697.3438,106.4987 697.9688,105.9206 L697.9688,108.6394 Z " fill="#000000"/><a href="https://bo4e.github.io/BO4E-python/latest/api/bo4e.bo.html#bo4e.bo.geraet.Geraet" target="_top" title="https://bo4e.github.io/BO4E-python/latest/api/bo4e.bo.html#bo4e.bo.geraet.Geraet" xlink:actuate="onRequest" xlink:href="https://bo4e.github.io/BO4E-python/latest/api/bo4e.bo.html#bo4e.bo.geraet.Geraet" xlink:show="new" xlink:title="https://bo4e.github.io/BO4E-python/latest/api/bo4e.bo.html#bo4e.bo.geraet.Geraet" xlink:type="simple"><text fill="#0000FF" font-family="sans-serif" font-size="14" lengthAdjust="spacing" text-decoration="underline" textLength="47" x="722.5" y="102.0251">Geraet</text></a><text fill="#000000" font-family="sans-serif" font-size="10" lengthAdjust="spacing" textLength="74" x="709" y="114.6091">bo4e.bo.geraet</text></g><!--class Preisblatt--><g id="elem_Preisblatt"><rect codeLine="11" fill="#F1F1F1" height="37.9375" id="Preisblatt" rx="2.5" ry="2.5" style="stroke:#181818;stroke-width:0.5;" width="119" x="673.5" y="157.03"/><ellipse cx="688.5" cy="175.9987" fill="#ADD1B2" rx="11" ry="11" style="stroke:#181818;stroke-width:1.0;"/><path d="M691.4688,181.6394 Q690.8906,181.9362 690.25,182.0769 Q689.6094,182.2331 688.9063,182.2331 Q686.4063,182.2331 685.0781,180.5925 Q683.7656,178.9362 683.7656,175.8112 Q683.7656,172.6862 685.0781,171.03 Q686.4063,169.3737 688.9063,169.3737 Q689.6094,169.3737 690.25,169.53 Q690.9063,169.6862 691.4688,169.9831 L691.4688,172.7019 Q690.8438,172.1237 690.25,171.8581 Q689.6563,171.5769 689.0313,171.5769 Q687.6875,171.5769 687,172.655 Q686.3125,173.7175 686.3125,175.8112 Q686.3125,177.905 687,178.9831 Q687.6875,180.0456 689.0313,180.0456 Q689.6563,180.0456 690.25,179.78 Q690.8438,179.4987 691.4688,178.9206 L691.4688,181.6394 Z " fill="#000000"/><a href="https://bo4e.github.io/BO4E-python/latest/api/bo4e.bo.html#bo4e.bo.preisblatt.Preisblatt" target="_top" title="https://bo4e.github.io/BO4E-python/latest/api/bo4e.bo.html#bo4e.bo.preisblatt.Preisblatt" xlink:actuate="onRequest" xlink:href="https://bo4e.github.io/BO4E-python/latest/api/bo4e.bo.html#bo4e.bo.preisblatt.Preisblatt" xlink:show="new" xlink:title="https://bo4e.github.io/BO4E-python/latest/api/bo4e.bo.html#bo4e.bo.preisblatt.Preisblatt" xlink:type="simple"><text fill="#0000FF" font-family="sans-serif" font-size="14" lengthAdjust="spacing" text-decoration="underline" textLength="64" x="714" y="175.0251">Preisblatt</text></a><text fill="#000000" font-family="sans-serif" font-size="10" lengthAdjust="spacing" textLength="87" x="702.5" y="187.6091">bo4e.bo.preisblatt</text></g><!--class Zaehler--><g id="elem_Zaehler"><rect codeLine="12" fill="#F1F1F1" height="37.9375" id="Zaehler" rx="2.5" ry="2.5" style="stroke:#181818;stroke-width:0.5;" width="109" x="678.5" y="230.03"/><ellipse cx="693.5" cy="248.9987" fill="#ADD1B2" rx="11" ry="11" style="stroke:#181818;stroke-width:1.0;"/><path d="M696.4688,254.6394 Q695.8906,254.9362 695.25,255.0769 Q694.6094,255.2331 693.9063,255.2331 Q691.4063,255.2331 690.0781,253.5925 Q688.7656,251.9362 688.7656,248.8112 Q688.7656,245.6862 690.0781,244.03 Q691.4063,242.3737 693.9063,242.3737 Q694.6094,242.3737 695.25,242.53 Q695.9063,242.6862 696.4688,242.9831 L696.4688,245.7019 Q695.8438,245.1237 695.25,244.8581 Q694.6563,244.5769 694.0313,244.5769 Q692.6875,244.5769 692,245.655 Q691.3125,246.7175 691.3125,248.8112 Q691.3125,250.905 692,251.9831 Q692.6875,253.0456 694.0313,253.0456 Q694.6563,253.0456 695.25,252.78 Q695.8438,252.4987 696.4688,251.9206 L696.4688,254.6394 Z " fill="#000000"/><a href="https://bo4e.github.io/BO4E-python/latest/api/bo4e.bo.html#bo4e.bo.zaehler.Zaehler" target="_top" title="https://bo4e.github.io/BO4E-python/latest/api/bo4e.bo.html#bo4e.bo.zaehler.Zaehler" xlink:actuate="onRequest" xlink:href="https://bo4e.github.io/BO4E-python/latest/api/bo4e.bo.html#bo4e.bo.zaehler.Zaehler" xlink:show="new" xlink:title="https://bo4e.github.io/BO4E-python/latest/api/bo4e.bo.html#bo4e.bo.zaehler.Zaehler" xlink:type="simple"><text fill="#0000FF" font-family="sans-serif" font-size="14" lengthAdjust="spacing" text-decoration="underline" textLength="53" x="719.5" y="248.0251">Zaehler</text></a><text fill="#000000" font-family="sans-serif" font-size="10" lengthAdjust="spacing" textLength="77" x="707.5" y="260.6091">bo4e.bo.zaehler</text></g><!--class Netzebene--><g id="elem_Netzebene"><rect codeLine="15" fill="#F1F1F1" height="37.9375" id="Netzebene" rx="2.5" ry="2.5" style="stroke:#181818;stroke-width:0.5;" width="141" x="662.5" y="343.03"/><ellipse cx="677.5" cy="361.9988" fill="#ADD1B2" rx="11" ry="11" style="stroke:#181818;stroke-width:1.0;"/><path d="M680.4688,367.6394 Q679.8906,367.9363 679.25,368.0769 Q678.6094,368.2331 677.9063,368.2331 Q675.4063,368.2331 674.0781,366.5925 Q672.7656,364.9363 672.7656,361.8113 Q672.7656,358.6863 674.0781,357.03 Q675.4063,355.3738 677.9063,355.3738 Q678.6094,355.3738 679.25,355.53 Q679.9063,355.6863 680.4688,355.9831 L680.4688,358.7019 Q679.8438,358.1238 679.25,357.8581 Q678.6563,357.5769 678.0313,357.5769 Q676.6875,357.5769 676,358.655 Q675.3125,359.7175 675.3125,361.8113 Q675.3125,363.905 676,364.9831 Q676.6875,366.0456 678.0313,366.0456 Q678.6563,366.0456 679.25,365.78 Q679.8438,365.4988 680.4688,364.9206 L680.4688,367.6394 Z " fill="#000000"/><a href="https://bo4e.github.io/BO4E-python/latest/api/bo4e.enum.html#bo4e.enum.netzebene.Netzebene" target="_top" title="https://bo4e.github.io/BO4E-python/latest/api/bo4e.enum.html#bo4e.enum.netzebene.Netzebene" xlink:actuate="onRequest" xlink:href="https://bo4e.github.io/BO4E-python/latest/api/bo4e.enum.html#bo4e.enum.netzebene.Netzebene" xlink:show="new" xlink:title="https://bo4e.github.io/BO4E-python/latest/api/bo4e.enum.html#bo4e.enum.netzebene.Netzebene" xlink:type="simple"><text fill="#0000FF" font-family="sans-serif" font-size="14" lengthAdjust="spacing" text-decoration="underline" textLength="77" x="707.5" y="361.0251">Netzebene</text></a><text fill="#000000" font-family="sans-serif" font-size="10" lengthAdjust="spacing" textLength="109" x="691.5" y="373.6091">bo4e.enum.netzebene</text></g><!--class Bilanzierungsmethode--><g id="elem_Bilanzierungsmethode"><rect codeLine="16" fill="#F1F1F1" height="37.9375" id="Bilanzierungsmethode" rx="2.5" ry="2.5" style="stroke:#181818;stroke-width:0.5;" width="196" x="635" y="416.03"/><ellipse cx="650" cy="434.9988" fill="#ADD1B2" rx="11" ry="11" style="stroke:#181818;stroke-width:1.0;"/><path d="M652.9688,440.6394 Q652.3906,440.9363 651.75,441.0769 Q651.1094,441.2331 650.4063,441.2331 Q647.9063,441.2331 646.5781,439.5925 Q645.2656,437.9363 645.2656,434.8113 Q645.2656,431.6863 646.5781,430.03 Q647.9063,428.3738 650.4063,428.3738 Q651.1094,428.3738 651.75,428.53 Q652.4063,428.6863 652.9688,428.9831 L652.9688,431.7019 Q652.3438,431.1238 651.75,430.8581 Q651.1563,430.5769 650.5313,430.5769 Q649.1875,430.5769 648.5,431.655 Q647.8125,432.7175 647.8125,434.8113 Q647.8125,436.905 648.5,437.9831 Q649.1875,439.0456 650.5313,439.0456 Q651.1563,439.0456 651.75,438.78 Q652.3438,438.4988 652.9688,437.9206 L652.9688,440.6394 Z " fill="#000000"/><a href="https://bo4e.github.io/BO4E-python/latest/api/bo4e.enum.html#bo4e.enum.bilanzierungsmethode.Bilanzierungsmethode" target="_top" title="https://bo4e.github.io/BO4E-python/latest/api/bo4e.enum.html#bo4e.enum.bilanzierungsmethode.Bilanzierungsmethode" xlink:actuate="onRequest" xlink:href="https://bo4e.github.io/BO4E-python/latest/api/bo4e.enum.html#bo4e.enum.bilanzierungsmethode.Bilanzierungsmethode" xlink:show="new" xlink:title="https://bo4e.github.io/BO4E-python/latest/api/bo4e.enum.html#bo4e.enum.bilanzierungsmethode.Bilanzierungsmethode" xlink:type="simple"><text fill="#0000FF" font-family="sans-serif" font-size="14" lengthAdjust="spacing" text-decoration="underline" textLength="156" x="668" y="434.0251">Bilanzierungsmethode</text></a><text fill="#000000" font-family="sans-serif" font-size="10" lengthAdjust="spacing" textLength="164" x="664" y="446.6091">bo4e.enum.bilanzierungsmethode</text></g><!--class Dienstleistungstyp--><g id="elem_Dienstleistungstyp"><rect codeLine="17" fill="#F1F1F1" height="37.9375" id="Dienstleistungstyp" rx="2.5" ry="2.5" style="stroke:#181818;stroke-width:0.5;" width="177" x="644.5" y="489.03"/><ellipse cx="659.5" cy="507.9988" fill="#ADD1B2" rx="11" ry="11" style="stroke:#181818;stroke-width:1.0;"/><path d="M662.4688,513.6394 Q661.8906,513.9363 661.25,514.0769 Q660.6094,514.2331 659.9063,514.2331 Q657.4063,514.2331 656.0781,512.5925 Q654.7656,510.9363 654.7656,507.8113 Q654.7656,504.6863 656.0781,503.03 Q657.4063,501.3738 659.9063,501.3738 Q660.6094,501.3738 661.25,501.53 Q661.9063,501.6863 662.4688,501.9831 L662.4688,504.7019 Q661.8438,504.1238 661.25,503.8581 Q660.6563,503.5769 660.0313,503.5769 Q658.6875,503.5769 658,504.655 Q657.3125,505.7175 657.3125,507.8113 Q657.3125,509.905 658,510.9831 Q658.6875,512.0456 660.0313,512.0456 Q660.6563,512.0456 661.25,511.78 Q661.8438,511.4988 662.4688,510.9206 L662.4688,513.6394 Z " fill="#000000"/><a href="https://bo4e.github.io/BO4E-python/latest/api/bo4e.enum.html#bo4e.enum.dienstleistungstyp.Dienstleistungstyp" target="_top" title="https://bo4e.github.io/BO4E-python/latest/api/bo4e.enum.html#bo4e.enum.dienstleistungstyp.Dienstleistungstyp" xlink:actuate="onRequest" xlink:href="https://bo4e.github.io/BO4E-python/latest/api/bo4e.enum.html#bo4e.enum.dienstleistungstyp.Dienstleistungstyp" xlink:show="new" xlink:title="https://bo4e.github.io/BO4E-python/latest/api/bo4e.enum.html#bo4e.enum.dienstleistungstyp.Dienstleistungstyp" xlink:type="simple"><text fill="#0000FF" font-family="sans-serif" font-size="14" lengthAdjust="spacing" text-decoration="underline" textLength="129" x="681.5" y="507.0251">Dienstleistungstyp</text></a><text fill="#000000" font-family="sans-serif" font-size="10" lengthAdjust="spacing" textLength="145" x="673.5" y="519.6091">bo4e.enum.dienstleistungstyp</text></g><!--class Typ--><g id="elem_Typ"><rect codeLine="18" fill="#F1F1F1" height="37.9375" id="Typ" rx="2.5" ry="2.5" style="stroke:#181818;stroke-width:0.5;" width="106" x="680" y="562.03"/><ellipse cx="695" cy="580.9988" fill="#ADD1B2" rx="11" ry="11" style="stroke:#181818;stroke-width:1.0;"/><path d="M697.9688,586.6394 Q697.3906,586.9363 696.75,587.0769 Q696.1094,587.2331 695.4063,587.2331 Q692.9063,587.2331 691.5781,585.5925 Q690.2656,583.9363 690.2656,580.8113 Q690.2656,577.6863 691.5781,576.03 Q692.9063,574.3738 695.4063,574.3738 Q696.1094,574.3738 696.75,574.53 Q697.4063,574.6863 697.9688,574.9831 L697.9688,577.7019 Q697.3438,577.1238 696.75,576.8581 Q696.1563,576.5769 695.5313,576.5769 Q694.1875,576.5769 693.5,577.655 Q692.8125,578.7175 692.8125,580.8113 Q692.8125,582.905 693.5,583.9831 Q694.1875,585.0456 695.5313,585.0456 Q696.1563,585.0456 696.75,584.78 Q697.3438,584.4988 697.9688,583.9206 L697.9688,586.6394 Z " fill="#000000"/><a href="https://bo4e.github.io/BO4E-python/latest/api/bo4e.enum.html#bo4e.enum.typ.Typ" target="_top" title="https://bo4e.github.io/BO4E-python/latest/api/bo4e.enum.html#bo4e.enum.typ.Typ" xlink:actuate="onRequest" xlink:href="https://bo4e.github.io/BO4E-python/latest/api/bo4e.enum.html#bo4e.enum.typ.Typ" xlink:show="new" xlink:title="https://bo4e.github.io/BO4E-python/latest/api/bo4e.enum.html#bo4e.enum.typ.Typ" xlink:type="simple"><text fill="#0000FF" font-family="sans-serif" font-size="14" lengthAdjust="spacing" text-decoration="underline" textLength="25" x="733.5" y="580.0251">Typ</text></a><text fill="#000000" font-family="sans-serif" font-size="10" lengthAdjust="spacing" textLength="74" x="709" y="592.6091">bo4e.enum.typ</text></g><!--class PreisblattMessung--><g id="elem_PreisblattMessung"><rect codeLine="3" fill="#F1F1F1" height="94.8281" id="PreisblattMessung" rx="2.5" ry="2.5" style="stroke:#181818;stroke-width:0.5;" width="379" x="7" y="314.59"/><ellipse cx="126.75" cy="333.5588" fill="#ADD1B2" rx="11" ry="11" style="stroke:#181818;stroke-width:1.0;"/><path d="M129.7188,339.1994 Q129.1406,339.4963 128.5,339.6369 Q127.8594,339.7931 127.1563,339.7931 Q124.6563,339.7931 123.3281,338.1525 Q122.0156,336.4963 122.0156,333.3713 Q122.0156,330.2463 123.3281,328.59 Q124.6563,326.9338 127.1563,326.9338 Q127.8594,326.9338 128.5,327.09 Q129.1563,327.2463 129.7188,327.5431 L129.7188,330.2619 Q129.0938,329.6838 128.5,329.4181 Q127.9063,329.1369 127.2813,329.1369 Q125.9375,329.1369 125.25,330.215 Q124.5625,331.2775 124.5625,333.3713 Q124.5625,335.465 125.25,336.5431 Q125.9375,337.6056 127.2813,337.6056 Q127.9063,337.6056 128.5,337.34 Q129.0938,337.0588 129.7188,336.4806 L129.7188,339.1994 Z " fill="#000000"/><a href="https://bo4e.github.io/BO4E-python/latest/api/bo4e.bo.html#bo4e.bo.preisblattmessung.PreisblattMessung" target="_top" title="https://bo4e.github.io/BO4E-python/latest/api/bo4e.bo.html#bo4e.bo.preisblattmessung.PreisblattMessung" xlink:actuate="onRequest" xlink:href="https://bo4e.github.io/BO4E-python/latest/api/bo4e.bo.html#bo4e.bo.preisblattmessung.PreisblattMessung" xlink:show="new" xlink:title="https://bo4e.github.io/BO4E-python/latest/api/bo4e.bo.html#bo4e.bo.preisblattmessung.PreisblattMessung" xlink:type="simple"><text fill="#0000FF" font-family="sans-serif" font-size="14" lengthAdjust="spacing" text-decoration="underline" textLength="128" x="148.75" y="332.5851">PreisblattMessung</text></a><text fill="#000000" font-family="sans-serif" font-size="10" lengthAdjust="spacing" textLength="131" x="147.25" y="345.1691">bo4e.bo.preisblattmessung</text><line style="stroke:#181818;stroke-width:0.5;" x1="8" x2="385" y1="352.5275" y2="352.5275"/><text fill="#000000" font-family="sans-serif" font-size="14" lengthAdjust="spacing" textLength="367" x="13" y="369.5226">_version : str [0..1] = 202401.2.2.dev29+gd7bab545</text><text fill="#000000" font-family="sans-serif" font-size="14" lengthAdjust="spacing" textLength="311" x="13" y="385.8195">zusatzAttribute : ZusatzAttribut [0..*] = None</text><text fill="#000000" font-family="sans-serif" font-size="14" lengthAdjust="spacing" textLength="147" x="13" y="402.1164">_id : str [0..1] = None</text></g><!--link PreisblattMessung to Preisblatt--><g id="link_PreisblattMessung_Preisblatt"><path codeLine="21" d="M288.09,314.2 C326.79,295.02 372.9,273.77 416,258 C489.8,230.99 510.93,232.72 587,213 C615.29,205.67 629.2751,202.0657 655.6251,195.3657 " fill="none" id="PreisblattMessung-to-Preisblatt" style="stroke:#181818;stroke-width:1.0;"/><polygon fill="none" points="673.07,190.93,654.1465,189.5507,657.1037,201.1807,673.07,190.93" style="stroke:#181818;stroke-width:1.0;"/></g><!--link PreisblattMessung to Typ--><g id="link_PreisblattMessung_Typ"><path codeLine="22" d="M258.36,409.6 C300.52,440.49 359.1,479.43 416,504 C504.52,542.22 603.6755,561.8467 667.8055,571.9267 " fill="none" id="PreisblattMessung-to-Typ" style="stroke:#181818;stroke-width:1.0;"/><polygon fill="#181818" points="679.66,573.79,674.3539,568.9069,667.8055,571.9267,673.1117,576.8098,679.66,573.79" style="stroke:#181818;stroke-width:1.0;"/><text fill="#000000" font-family="sans-serif" font-size="13" lengthAdjust="spacing" textLength="27" x="484" y="500.0669">_typ</text><text fill="#000000" font-family="sans-serif" font-size="13" lengthAdjust="spacing" textLength="24" x="648.1051" y="585.8982">0..1</text></g><!--link PreisblattMessung to Bilanzierungsmethode--><g id="link_PreisblattMessung_Bilanzierungsmethode"><path codeLine="23" d="M386.32,387.79 C470.29,399.26 553.7105,410.6456 622.9505,420.1056 " fill="none" id="PreisblattMessung-to-Bilanzierungsmethode" style="stroke:#181818;stroke-width:1.0;"/><polygon fill="#181818" points="634.84,421.73,629.4367,416.9546,622.9505,420.1056,628.3538,424.881,634.84,421.73" style="stroke:#181818;stroke-width:1.0;"/><text fill="#000000" font-family="sans-serif" font-size="13" lengthAdjust="spacing" textLength="142" x="426.5" y="388.0669">bilanzierungsmethode</text><text fill="#000000" font-family="sans-serif" font-size="13" lengthAdjust="spacing" textLength="24" x="603.0944" y="433.3959">0..1</text></g><!--link PreisblattMessung to Netzebene--><g id="link_PreisblattMessung_Netzebene"><path codeLine="24" d="M386.32,362 C482.01,362 580.42,362 650.2,362 " fill="none" id="PreisblattMessung-to-Netzebene" style="stroke:#181818;stroke-width:1.0;"/><polygon fill="#181818" points="662.2,362,656.2,358,650.2,362,656.2,366,662.2,362" style="stroke:#181818;stroke-width:1.0;"/><text fill="#000000" font-family="sans-serif" font-size="13" lengthAdjust="spacing" textLength="75" x="460" y="358.0669">messebene</text><text fill="#000000" font-family="sans-serif" font-size="13" lengthAdjust="spacing" textLength="24" x="630.5669" y="374.7645">0..1</text></g><!--link PreisblattMessung to Zaehler--><g id="link_PreisblattMessung_Zaehler"><path codeLine="25" d="M386.32,322.08 C489.67,300.23 598.4496,277.2325 666.4096,262.8625 " fill="none" id="PreisblattMessung-to-Zaehler" style="stroke:#181818;stroke-width:1.0;"/><polygon fill="#181818" points="678.15,260.38,671.4523,257.7078,666.4096,262.8625,673.1073,265.5347,678.15,260.38" style="stroke:#181818;stroke-width:1.0;"/><text fill="#000000" font-family="sans-serif" font-size="13" lengthAdjust="spacing" textLength="47" x="474" y="279.0669">zaehler</text><text fill="#000000" font-family="sans-serif" font-size="13" lengthAdjust="spacing" textLength="24" x="646.4205" y="274.6377">0..1</text></g><!--link PreisblattMessung to Dienstleistungstyp--><g id="link_PreisblattMessung_Dienstleistungstyp"><path codeLine="26" d="M324.89,409.87 C354.57,420.19 386.21,430.53 416,439 C492.16,460.64 568.5125,477.0799 632.3125,489.5399 " fill="none" id="PreisblattMessung-to-Dienstleistungstyp" style="stroke:#181818;stroke-width:1.0;"/><polygon fill="#181818" points="644.09,491.84,638.968,486.7641,632.3125,489.5399,637.4345,494.6158,644.09,491.84" style="stroke:#181818;stroke-width:1.0;"/><text fill="#000000" font-family="sans-serif" font-size="13" lengthAdjust="spacing" textLength="161" x="417" y="435.0669">inklusiveDienstleistungen</text><text fill="#000000" font-family="sans-serif" font-size="13" lengthAdjust="spacing" textLength="23" x="613.4024" y="503.249">0..*</text></g><!--link PreisblattMessung to Geraet--><g id="link_PreisblattMessung_Geraet"><path codeLine="27" d="M258.83,314.4 C301.43,282.66 360.33,241.35 416,211 C488.25,171.61 508.93,166.02 587,140 C617.32,129.9 640.2901,123.7132 668.1201,117.1532 " fill="none" id="PreisblattMessung-to-Geraet" style="stroke:#181818;stroke-width:1.0;"/><polygon fill="#181818" points="679.8,114.4,673.0423,111.8833,668.1201,117.1532,674.8778,119.6699,679.8,114.4" style="stroke:#181818;stroke-width:1.0;"/><text fill="#000000" font-family="sans-serif" font-size="13" lengthAdjust="spacing" textLength="106" x="444.5" y="140.0669">inklusiveGeraete</text><text fill="#000000" font-family="sans-serif" font-size="13" lengthAdjust="spacing" textLength="23" x="648.9147" y="128.7786">0..*</text></g><!--SRC=[hLLDRzim33tNlu98RXcYV2nPEsChqA33JkjswAcPKSWnQmkpPSEYCzJh_llahyIfbIv031zaKkJJe_H4XVX4G36amWy8F97YXaGiBMiJSgLWi5u7H8co9nCtNY3p1GMPoqGyMNrVV1adpnJ4SX9oGaKJdeWgoerPG54uR8maHQ5S7KKHAfL9d_tOURvL7kXu7EUd_AH4ZlPiUdqKQG1STNFXZtNnkCLKwLB01aKfhAUCpHpu3FFfV36TiRd-FDpEFxxplKkNkyl5qhh8CyKflo5AXPiHwjI70q-9CYfGxcA9UWtXlOOl9_vQbkIQOS8tUDuUGcquJbbfRS5mzU7sykQggBFFW_8nvKZiQpb0DHZFeGeiALLH_VBO7tDBAQrZ_eysNecYNsuvno34b3rK8zIZaL8TM_AfuxGspfK6oYngYQCms_8eR1XwiytxvTa2sIqrt9iIAKSN9RAxvWzsVzrjECmfQUwY-oVdYf3BN62gku2AKETvo5O69vYSHzYRGCj2J1Zzr-G9b8f2BMSgrg7dXDrsND1r7Qcc2rVMqitllvA2-htcUd-KNCD6HnHTrF1GZCSlrqqVR4sRGdNi20P5PnxihqP9m8R7ei2JSumAii4aZDD1zzV7Xk8vgwx4AUcwygRzs50tcJSJH-rr3UAnGSXVOQR45WzdKPw4gmdLZqOBgVAWPGL2xrQ4aQjVP4i5yMymO3u933tr3m00]--></g></svg>