<svg xmlns="http://www.w3.org/2000/svg" xmlns:xlink="http://www.w3.org/1999/xlink" contentStyleType="text/css" data-diagram-type="CLASS" height="428px" preserveAspectRatio="none" style="width:832px;height:428px;background:#FFFFFF;" version="1.1" viewBox="0 0 832 428" width="832px" zoomAndPan="magnify"><defs/><g><!--cluster bo4e--><g class="cluster" data-entity="bo4e" data-source-line="10" data-uid="ent0005" id="cluster_bo4e"><path d="M543.96,6 L583.836,6 A3.75,3.75 0 0 1 586.336,8.5 L593.336,28.2969 L822.53,28.2969 A2.5,2.5 0 0 1 825.03,30.7969 L825.03,418.5 A2.5,2.5 0 0 1 822.53,421 L543.96,421 A2.5,2.5 0 0 1 541.46,418.5 L541.46,8.5 A2.5,2.5 0 0 1 543.96,6" fill="none" style="stroke:#000000;stroke-width:1.5;"/><line style="stroke:#000000;stroke-width:1.5;" x1="541.46" x2="593.336" y1="28.2969" y2="28.2969"/><text fill="#000000" font-family="sans-serif" font-size="14" font-weight="bold" lengthAdjust="spacing" textLength="38.876" x="545.46" y="20.9951">bo4e</text></g><!--cluster bo--><g class="cluster" data-entity="bo" data-source-line="9" data-uid="ent0003" id="cluster_bo"><path d="M607.99,49 L672.824,49 A3.75,3.75 0 0 1 675.324,51.5 L682.324,71.2969 L758.49,71.2969 A2.5,2.5 0 0 1 760.99,73.7969 L760.99,135.5 A2.5,2.5 0 0 1 758.49,138 L607.99,138 A2.5,2.5 0 0 1 605.49,135.5 L605.49,51.5 A2.5,2.5 0 0 1 607.99,49" fill="#B6D7A8" style="stroke:#000000;stroke-width:1.5;"/><line style="stroke:#000000;stroke-width:1.5;" x1="605.49" x2="682.324" y1="71.2969" y2="71.2969"/><a href="file:////home/runner/work/BO4E-python/BO4E-python/docs/../.tox/docs/tmp/html/api/bo4e.bo.html" target="_top" title="file:////home/runner/work/BO4E-python/BO4E-python/docs/../.tox/docs/tmp/html/api/bo4e.bo.html" xlink:actuate="onRequest" xlink:href="file:////home/runner/work/BO4E-python/BO4E-python/docs/../.tox/docs/tmp/html/api/bo4e.bo.html" xlink:show="new" xlink:title="file:////home/runner/work/BO4E-python/BO4E-python/docs/../.tox/docs/tmp/html/api/bo4e.bo.html" xlink:type="simple"><text fill="#0000FF" font-family="sans-serif" font-size="14" font-weight="bold" lengthAdjust="spacing" text-decoration="underline" textLength="63.834" x="609.49" y="63.9951">bo4e.bo</text></a></g><!--cluster enum--><g class="cluster" data-entity="enum" data-source-line="12" data-uid="ent0006" id="cluster_enum"><path d="M567.96,162 L657.1709,162 A3.75,3.75 0 0 1 659.6709,164.5 L666.6709,184.2969 L798.53,184.2969 A2.5,2.5 0 0 1 801.03,186.7969 L801.03,394.5 A2.5,2.5 0 0 1 798.53,397 L567.96,397 A2.5,2.5 0 0 1 565.46,394.5 L565.46,164.5 A2.5,2.5 0 0 1 567.96,162" fill="#D1C358" style="stroke:#000000;stroke-width:1.5;"/><line style="stroke:#000000;stroke-width:1.5;" x1="565.46" x2="666.6709" y1="184.2969" y2="184.2969"/><a href="file:////home/runner/work/BO4E-python/BO4E-python/docs/../.tox/docs/tmp/html/api/bo4e.enum.html" target="_top" title="file:////home/runner/work/BO4E-python/BO4E-python/docs/../.tox/docs/tmp/html/api/bo4e.enum.html" xlink:actuate="onRequest" xlink:href="file:////home/runner/work/BO4E-python/BO4E-python/docs/../.tox/docs/tmp/html/api/bo4e.enum.html" xlink:show="new" xlink:title="file:////home/runner/work/BO4E-python/BO4E-python/docs/../.tox/docs/tmp/html/api/bo4e.enum.html" xlink:type="simple"><text fill="#0000FF" font-family="sans-serif" font-size="14" font-weight="bold" lengthAdjust="spacing" text-decoration="underline" textLength="88.2109" x="569.46" y="176.9951">bo4e.enum</text></a></g><!--class Preisblatt--><g class="entity" data-entity="Preisblatt" data-source-line="10" data-uid="ent0004" id="entity_Preisblatt"><rect fill="#F1F1F1" height="37.9375" rx="2.5" ry="2.5" style="stroke:#181818;stroke-width:0.5;" width="123.499" x="621.49" y="84.03"/><ellipse cx="636.49" cy="102.9987" fill="#ADD1B2" rx="11" ry="11" style="stroke:#181818;stroke-width:1;"/><path d="M639.4588,108.6394 Q638.8806,108.9362 638.24,109.0769 Q637.5994,109.2331 636.8963,109.2331 Q634.3963,109.2331 633.0681,107.5925 Q631.7556,105.9362 631.7556,102.8112 Q631.7556,99.6862 633.0681,98.03 Q634.3963,96.3737 636.8963,96.3737 Q637.5994,96.3737 638.24,96.53 Q638.8963,96.6862 639.4588,96.9831 L639.4588,99.7019 Q638.8338,99.1237 638.24,98.8581 Q637.6463,98.5769 637.0213,98.5769 Q635.6775,98.5769 634.99,99.655 Q634.3025,100.7175 634.3025,102.8112 Q634.3025,104.905 634.99,105.9831 Q635.6775,107.0456 637.0213,107.0456 Q637.6463,107.0456 638.24,106.78 Q638.8338,106.4987 639.4588,105.9206 L639.4588,108.6394 Z " fill="#000000"/><a href="file:////home/runner/work/BO4E-python/BO4E-python/docs/../.tox/docs/tmp/html/api/bo4e.bo.html#bo4e.bo.preisblatt.Preisblatt" target="_top" title="file:////home/runner/work/BO4E-python/BO4E-python/docs/../.tox/docs/tmp/html/api/bo4e.bo.html#bo4e.bo.preisblatt.Preisblatt" xlink:actuate="onRequest" xlink:href="file:////home/runner/work/BO4E-python/BO4E-python/docs/../.tox/docs/tmp/html/api/bo4e.bo.html#bo4e.bo.preisblatt.Preisblatt" xlink:show="new" xlink:title="file:////home/runner/work/BO4E-python/BO4E-python/docs/../.tox/docs/tmp/html/api/bo4e.bo.html#bo4e.bo.preisblatt.Preisblatt" xlink:type="simple"><text fill="#0000FF" font-family="sans-serif" font-size="14" lengthAdjust="spacing" text-decoration="underline" textLength="66.3291" x="663.075" y="102.0251">Preisblatt</text></a><text fill="#000000" font-family="sans-serif" font-size="10" lengthAdjust="spacing" textLength="91.499" x="650.49" y="114.6091">bo4e.bo.preisblatt</text></g><!--class Netzebene--><g class="entity" data-entity="Netzebene" data-source-line="13" data-uid="ent0007" id="entity_Netzebene"><rect fill="#F1F1F1" height="37.9375" rx="2.5" ry="2.5" style="stroke:#181818;stroke-width:0.5;" width="144.71" x="610.89" y="197.03"/><ellipse cx="625.89" cy="215.9988" fill="#ADD1B2" rx="11" ry="11" style="stroke:#181818;stroke-width:1;"/><path d="M628.8588,221.6394 Q628.2806,221.9363 627.64,222.0769 Q626.9994,222.2331 626.2963,222.2331 Q623.7963,222.2331 622.4681,220.5925 Q621.1556,218.9363 621.1556,215.8113 Q621.1556,212.6863 622.4681,211.03 Q623.7963,209.3738 626.2963,209.3738 Q626.9994,209.3738 627.64,209.53 Q628.2963,209.6863 628.8588,209.9831 L628.8588,212.7019 Q628.2338,212.1238 627.64,211.8581 Q627.0463,211.5769 626.4213,211.5769 Q625.0775,211.5769 624.39,212.655 Q623.7025,213.7175 623.7025,215.8113 Q623.7025,217.905 624.39,218.9831 Q625.0775,220.0456 626.4213,220.0456 Q627.0463,220.0456 627.64,219.78 Q628.2338,219.4988 628.8588,218.9206 L628.8588,221.6394 Z " fill="#000000"/><a href="file:////home/runner/work/BO4E-python/BO4E-python/docs/../.tox/docs/tmp/html/api/bo4e.enum.html#bo4e.enum.netzebene.Netzebene" target="_top" title="file:////home/runner/work/BO4E-python/BO4E-python/docs/../.tox/docs/tmp/html/api/bo4e.enum.html#bo4e.enum.netzebene.Netzebene" xlink:actuate="onRequest" xlink:href="file:////home/runner/work/BO4E-python/BO4E-python/docs/../.tox/docs/tmp/html/api/bo4e.enum.html#bo4e.enum.netzebene.Netzebene" xlink:show="new" xlink:title="file:////home/runner/work/BO4E-python/BO4E-python/docs/../.tox/docs/tmp/html/api/bo4e.enum.html#bo4e.enum.netzebene.Netzebene" xlink:type="simple"><text fill="#0000FF" font-family="sans-serif" font-size="14" lengthAdjust="spacing" text-decoration="underline" textLength="75.5234" x="658.4833" y="215.0251">Netzebene</text></a><text fill="#000000" font-family="sans-serif" font-size="10" lengthAdjust="spacing" textLength="112.71" x="639.89" y="227.6091">bo4e.enum.netzebene</text></g><!--class Kundengruppe--><g class="entity" data-entity="Kundengruppe" data-source-line="14" data-uid="ent0008" id="entity_Kundengruppe"><rect fill="#F1F1F1" height="37.9375" rx="2.5" ry="2.5" style="stroke:#181818;stroke-width:0.5;" width="164.8564" x="600.82" y="270.03"/><ellipse cx="615.82" cy="288.9988" fill="#ADD1B2" rx="11" ry="11" style="stroke:#181818;stroke-width:1;"/><path d="M618.7888,294.6394 Q618.2106,294.9363 617.57,295.0769 Q616.9294,295.2331 616.2263,295.2331 Q613.7263,295.2331 612.3981,293.5925 Q611.0856,291.9363 611.0856,288.8113 Q611.0856,285.6863 612.3981,284.03 Q613.7263,282.3738 616.2263,282.3738 Q616.9294,282.3738 617.57,282.53 Q618.2263,282.6863 618.7888,282.9831 L618.7888,285.7019 Q618.1638,285.1238 617.57,284.8581 Q616.9763,284.5769 616.3513,284.5769 Q615.0075,284.5769 614.32,285.655 Q613.6325,286.7175 613.6325,288.8113 Q613.6325,290.905 614.32,291.9831 Q615.0075,293.0456 616.3513,293.0456 Q616.9763,293.0456 617.57,292.78 Q618.1638,292.4988 618.7888,291.9206 L618.7888,294.6394 Z " fill="#000000"/><a href="file:////home/runner/work/BO4E-python/BO4E-python/docs/../.tox/docs/tmp/html/api/bo4e.enum.html#bo4e.enum.kundengruppe.Kundengruppe" target="_top" title="file:////home/runner/work/BO4E-python/BO4E-python/docs/../.tox/docs/tmp/html/api/bo4e.enum.html#bo4e.enum.kundengruppe.Kundengruppe" xlink:actuate="onRequest" xlink:href="file:////home/runner/work/BO4E-python/BO4E-python/docs/../.tox/docs/tmp/html/api/bo4e.enum.html#bo4e.enum.kundengruppe.Kundengruppe" xlink:show="new" xlink:title="file:////home/runner/work/BO4E-python/BO4E-python/docs/../.tox/docs/tmp/html/api/bo4e.enum.html#bo4e.enum.kundengruppe.Kundengruppe" xlink:type="simple"><text fill="#0000FF" font-family="sans-serif" font-size="14" lengthAdjust="spacing" text-decoration="underline" textLength="103.2021" x="644.6471" y="288.0251">Kundengruppe</text></a><text fill="#000000" font-family="sans-serif" font-size="10" lengthAdjust="spacing" textLength="132.8564" x="629.82" y="300.6091">bo4e.enum.kundengruppe</text></g><!--class Bilanzierungsmethode--><g class="entity" data-entity="Bilanzierungsmethode" data-source-line="15" data-uid="ent0009" id="entity_Bilanzierungsmethode"><rect fill="#F1F1F1" height="37.9375" rx="2.5" ry="2.5" style="stroke:#181818;stroke-width:0.5;" width="203.5723" x="581.46" y="343.03"/><ellipse cx="596.46" cy="361.9988" fill="#ADD1B2" rx="11" ry="11" style="stroke:#181818;stroke-width:1;"/><path d="M599.4288,367.6394 Q598.8506,367.9363 598.21,368.0769 Q597.5694,368.2331 596.8663,368.2331 Q594.3663,368.2331 593.0381,366.5925 Q591.7256,364.9363 591.7256,361.8113 Q591.7256,358.6863 593.0381,357.03 Q594.3663,355.3738 596.8663,355.3738 Q597.5694,355.3738 598.21,355.53 Q598.8663,355.6863 599.4288,355.9831 L599.4288,358.7019 Q598.8038,358.1238 598.21,357.8581 Q597.6163,357.5769 596.9913,357.5769 Q595.6475,357.5769 594.96,358.655 Q594.2725,359.7175 594.2725,361.8113 Q594.2725,363.905 594.96,364.9831 Q595.6475,366.0456 596.9913,366.0456 Q597.6163,366.0456 598.21,365.78 Q598.8038,365.4988 599.4288,364.9206 L599.4288,367.6394 Z " fill="#000000"/><a href="file:////home/runner/work/BO4E-python/BO4E-python/docs/../.tox/docs/tmp/html/api/bo4e.enum.html#bo4e.enum.bilanzierungsmethode.Bilanzierungsmethode" target="_top" title="file:////home/runner/work/BO4E-python/BO4E-python/docs/../.tox/docs/tmp/html/api/bo4e.enum.html#bo4e.enum.bilanzierungsmethode.Bilanzierungsmethode" xlink:actuate="onRequest" xlink:href="file:////home/runner/work/BO4E-python/BO4E-python/docs/../.tox/docs/tmp/html/api/bo4e.enum.html#bo4e.enum.bilanzierungsmethode.Bilanzierungsmethode" xlink:show="new" xlink:title="file:////home/runner/work/BO4E-python/BO4E-python/docs/../.tox/docs/tmp/html/api/bo4e.enum.html#bo4e.enum.bilanzierungsmethode.Bilanzierungsmethode" xlink:type="simple"><text fill="#0000FF" font-family="sans-serif" font-size="14" lengthAdjust="spacing" text-decoration="underline" textLength="157.0488" x="617.7217" y="361.0251">Bilanzierungsmethode</text></a><text fill="#000000" font-family="sans-serif" font-size="10" lengthAdjust="spacing" textLength="171.5723" x="610.46" y="373.6091">bo4e.enum.bilanzierungsmethode</text></g><!--class PreisblattNetznutzung--><g class="entity" data-entity="PreisblattNetznutzung" data-source-line="3" data-uid="ent0002" id="entity_PreisblattNetznutzung"><rect fill="#F1F1F1" height="94.8281" rx="2.5" ry="2.5" style="stroke:#181818;stroke-width:0.5;" width="341.458" x="7" y="209.59"/><ellipse cx="95.7441" cy="228.5588" fill="#ADD1B2" rx="11" ry="11" style="stroke:#181818;stroke-width:1;"/><path d="M98.7129,234.1994 Q98.1348,234.4963 97.4941,234.6369 Q96.8535,234.7931 96.1504,234.7931 Q93.6504,234.7931 92.3223,233.1525 Q91.0098,231.4963 91.0098,228.3713 Q91.0098,225.2463 92.3223,223.59 Q93.6504,221.9338 96.1504,221.9338 Q96.8535,221.9338 97.4941,222.09 Q98.1504,222.2463 98.7129,222.5431 L98.7129,225.2619 Q98.0879,224.6838 97.4941,224.4181 Q96.9004,224.1369 96.2754,224.1369 Q94.9316,224.1369 94.2441,225.215 Q93.5566,226.2775 93.5566,228.3713 Q93.5566,230.465 94.2441,231.5431 Q94.9316,232.6056 96.2754,232.6056 Q96.9004,232.6056 97.4941,232.34 Q98.0879,232.0588 98.7129,231.4806 L98.7129,234.1994 Z " fill="#000000"/><a href="file:////home/runner/work/BO4E-python/BO4E-python/docs/../.tox/docs/tmp/html/api/bo4e.bo.html#bo4e.bo.preisblattnetznutzung.PreisblattNetznutzung" target="_top" title="file:////home/runner/work/BO4E-python/BO4E-python/docs/../.tox/docs/tmp/html/api/bo4e.bo.html#bo4e.bo.preisblattnetznutzung.PreisblattNetznutzung" xlink:actuate="onRequest" xlink:href="file:////home/runner/work/BO4E-python/BO4E-python/docs/../.tox/docs/tmp/html/api/bo4e.bo.html#bo4e.bo.preisblattnetznutzung.PreisblattNetznutzung" xlink:show="new" xlink:title="file:////home/runner/work/BO4E-python/BO4E-python/docs/../.tox/docs/tmp/html/api/bo4e.bo.html#bo4e.bo.preisblattnetznutzung.PreisblattNetznutzung" xlink:type="simple"><text fill="#0000FF" font-family="sans-serif" font-size="14" lengthAdjust="spacing" text-decoration="underline" textLength="155.4697" x="116.2441" y="227.5851">PreisblattNetznutzung</text></a><text fill="#000000" font-family="sans-serif" font-size="10" lengthAdjust="spacing" textLength="154.0283" x="116.9648" y="240.1691">bo4e.bo.preisblattnetznutzung</text><line style="stroke:#181818;stroke-width:0.5;" x1="8" x2="347.458" y1="247.5275" y2="247.5275"/><text fill="#000000" font-family="sans-serif" font-size="14" lengthAdjust="spacing" textLength="329.458" x="13" y="264.5226">_version : str [0..1] = 202501.0.0+g5aa0922f3</text><text fill="#000000" font-family="sans-serif" font-size="14" lengthAdjust="spacing" textLength="318.5752" x="13" y="280.8195">zusatzAttribute : ZusatzAttribut [0..*] = None</text><text fill="#000000" font-family="sans-serif" font-size="14" lengthAdjust="spacing" textLength="151.1768" x="13" y="297.1164">_id : str [0..1] = None</text></g><!--link PreisblattNetznutzung to Preisblatt--><g class="link" data-entity-1="PreisblattNetznutzung" data-entity-2="Preisblatt" data-source-line="18" data-uid="lnk10" id="link_PreisblattNetznutzung_Preisblatt"><path codeLine="18" d="M335.28,209.12 C431.99,179.54 533.4776,148.5063 603.9776,126.9363" fill="none" id="PreisblattNetznutzung-to-Preisblatt" style="stroke:#181818;stroke-width:1;"/><polygon fill="none" points="621.19,121.67,602.2222,121.1988,605.733,132.6737,621.19,121.67" style="stroke:#181818;stroke-width:1;"/></g><!--link PreisblattNetznutzung to Bilanzierungsmethode--><g class="link" data-entity-1="PreisblattNetznutzung" data-entity-2="Bilanzierungsmethode" data-source-line="19" data-uid="lnk11" id="link_PreisblattNetznutzung_Bilanzierungsmethode"><path codeLine="19" d="M347.86,304.9 C358.19,307.42 368.45,309.8 378.46,312 C445.55,326.72 509.961,337.4918 569.301,346.3318" fill="none" id="PreisblattNetznutzung-to-Bilanzierungsmethode" style="stroke:#181818;stroke-width:1;"/><polygon fill="#181818" points="581.17,348.1,575.8249,343.2596,569.301,346.3318,574.6461,351.1723,581.17,348.1" style="stroke:#181818;stroke-width:1;"/><text fill="#000000" font-family="sans-serif" font-size="13" lengthAdjust="spacing" textLength="145.1646" x="379.46" y="308.0669">bilanzierungsmethode</text><text fill="#000000" font-family="sans-serif" font-size="13" lengthAdjust="spacing" textLength="24.8066" x="548.8222" y="359.7019">0..1</text></g><!--link PreisblattNetznutzung to Netzebene--><g class="link" data-entity-1="PreisblattNetznutzung" data-entity-2="Netzebene" data-source-line="20" data-uid="lnk12" id="link_PreisblattNetznutzung_Netzebene"><path codeLine="20" d="M348.85,243.15 C438.03,235.89 530.5894,228.3422 598.4994,222.8222" fill="none" id="PreisblattNetznutzung-to-Netzebene" style="stroke:#181818;stroke-width:1;"/><polygon fill="#181818" points="610.46,221.85,604.1557,218.3493,598.4994,222.8222,604.8038,226.323,610.46,221.85" style="stroke:#181818;stroke-width:1;"/><text fill="#000000" font-family="sans-serif" font-size="13" lengthAdjust="spacing" textLength="68.6436" x="417.96" y="226.0669">netzebene</text><text fill="#000000" font-family="sans-serif" font-size="13" lengthAdjust="spacing" textLength="24.8066" x="578.1537" y="235.2377">0..1</text></g><!--link PreisblattNetznutzung to Kundengruppe--><g class="link" data-entity-1="PreisblattNetznutzung" data-entity-2="Kundengruppe" data-source-line="21" data-uid="lnk13" id="link_PreisblattNetznutzung_Kundengruppe"><path codeLine="21" d="M348.89,277.58 C358.88,278.48 368.8,279.3 378.46,280 C453.58,285.43 527.3812,287.4314 588.6012,288.2914" fill="none" id="PreisblattNetznutzung-to-Kundengruppe" style="stroke:#181818;stroke-width:1;"/><polygon fill="#181818" points="600.6,288.46,594.6568,284.3761,588.6012,288.2914,594.5444,292.3753,600.6,288.46" style="stroke:#181818;stroke-width:1;"/><text fill="#000000" font-family="sans-serif" font-size="13" lengthAdjust="spacing" textLength="94.834" x="404.96" y="276.0669">kundengruppe</text><text fill="#000000" font-family="sans-serif" font-size="13" lengthAdjust="spacing" textLength="24.8066" x="567.9118" y="301.1748">0..1</text></g><!--SRC=[nLHDRzim33rNlu98RXqYEMcp3sChqA0x3SXsNcOCiitOGct9aEHsyzR_Fjbh7AMpM_Im9YUz5_APV2HOuDQ2LQ15bbj8XSR42YK9IGfk34mscwqeC6JkbwiIcQwbHCrkbRvcgy_d7sVLJvihUV1ELM8OfOnQzUCli6N5SbiMZ5U2nUeSQQneIqnteD8eJ5nmQoNQHjQsgML6l_JiUi_281j5t-Hx8neCvy75eweJu6PO0twHa-ytg8rp048mLiCce7GUmGTO18jbCAS13LvbIyw3Tul5zeoSDBNXjhcqLekujkYolXumdS1fAx1M4fsyI1ygTt_S4I9vYQRY2Vvtr-4UH57dnJs2wUhrrPlBjwqBHvk-Dt9lHayCzy54dPalu2NAklJSRA7lPujXciwJi-LBEDfNCzt3TkSnHebqlNj1__hNqiEShfC- -YZrNzSoHPdfkggGVl80-62a4J-vwyNFEKexiIYuR0IwRsIcHAUL8bqDa314ZhGv9DgrEwJHNfcHcpgR_RxO7G8lP2pSnP_2fBrWa_sw3pSJmb2DpnFUxsy8_OO-J-9WVqBmruEGNBX2IonZT_k9oTKjZ6Xl1HQf-GC0]--></g></svg>