<?xml version="1.0" encoding="us-ascii" standalone="no"?><svg xmlns="http://www.w3.org/2000/svg" xmlns:xlink="http://www.w3.org/1999/xlink" contentStyleType="text/css" height="428px" preserveAspectRatio="none" style="width:853px;height:428px;background:#FFFFFF;" version="1.1" viewBox="0 0 853 428" width="853px" zoomAndPan="magnify"><defs/><g><!--cluster bo4e--><g id="cluster_bo4e"><path d="M572.5,6 L613.5,6 A3.75,3.75 0 0 1 616,8.5 L623,28.2969 L843.5,28.2969 A2.5,2.5 0 0 1 846,30.7969 L846,418.5 A2.5,2.5 0 0 1 843.5,421 L572.5,421 A2.5,2.5 0 0 1 570,418.5 L570,8.5 A2.5,2.5 0 0 1 572.5,6 " fill="none" style="stroke:#000000;stroke-width:1.5;"/><line style="stroke:#000000;stroke-width:1.5;" x1="570" x2="623" y1="28.2969" y2="28.2969"/><text fill="#000000" font-family="sans-serif" font-size="14" font-weight="bold" lengthAdjust="spacing" textLength="40" x="574" y="20.9951">bo4e</text></g><!--cluster bo--><g id="cluster_bo"><path d="M635,49 L701,49 A3.75,3.75 0 0 1 703.5,51.5 L710.5,71.2969 L781,71.2969 A2.5,2.5 0 0 1 783.5,73.7969 L783.5,135.5 A2.5,2.5 0 0 1 781,138 L635,138 A2.5,2.5 0 0 1 632.5,135.5 L632.5,51.5 A2.5,2.5 0 0 1 635,49 " fill="#B6D7A8" style="stroke:#000000;stroke-width:1.5;"/><line style="stroke:#000000;stroke-width:1.5;" x1="632.5" x2="710.5" y1="71.2969" y2="71.2969"/><a href="https://bo4e.github.io/BO4E-python/latest/api/bo4e.bo.html" target="_top" title="https://bo4e.github.io/BO4E-python/latest/api/bo4e.bo.html" xlink:actuate="onRequest" xlink:href="https://bo4e.github.io/BO4E-python/latest/api/bo4e.bo.html" xlink:show="new" xlink:title="https://bo4e.github.io/BO4E-python/latest/api/bo4e.bo.html" xlink:type="simple"><text fill="#0000FF" font-family="sans-serif" font-size="14" font-weight="bold" lengthAdjust="spacing" text-decoration="underline" textLength="65" x="636.5" y="63.9951">bo4e.bo</text></a></g><!--cluster enum--><g id="cluster_enum"><path d="M596.5,162 L686.5,162 A3.75,3.75 0 0 1 689,164.5 L696,184.2969 L819.5,184.2969 A2.5,2.5 0 0 1 822,186.7969 L822,394.5 A2.5,2.5 0 0 1 819.5,397 L596.5,397 A2.5,2.5 0 0 1 594,394.5 L594,164.5 A2.5,2.5 0 0 1 596.5,162 " fill="#D1C358" style="stroke:#000000;stroke-width:1.5;"/><line style="stroke:#000000;stroke-width:1.5;" x1="594" x2="696" y1="184.2969" y2="184.2969"/><a href="https://bo4e.github.io/BO4E-python/latest/api/bo4e.enum.html" target="_top" title="https://bo4e.github.io/BO4E-python/latest/api/bo4e.enum.html" xlink:actuate="onRequest" xlink:href="https://bo4e.github.io/BO4E-python/latest/api/bo4e.enum.html" xlink:show="new" xlink:title="https://bo4e.github.io/BO4E-python/latest/api/bo4e.enum.html" xlink:type="simple"><text fill="#0000FF" font-family="sans-serif" font-size="14" font-weight="bold" lengthAdjust="spacing" text-decoration="underline" textLength="89" x="598" y="176.9951">bo4e.enum</text></a></g><!--class Preisblatt--><g id="elem_Preisblatt"><rect codeLine="10" fill="#F1F1F1" height="37.9375" id="Preisblatt" rx="2.5" ry="2.5" style="stroke:#181818;stroke-width:0.5;" width="119" x="648.5" y="84.03"/><ellipse cx="663.5" cy="102.9987" fill="#ADD1B2" rx="11" ry="11" style="stroke:#181818;stroke-width:1.0;"/><path d="M666.4688,108.6394 Q665.8906,108.9362 665.25,109.0769 Q664.6094,109.2331 663.9063,109.2331 Q661.4063,109.2331 660.0781,107.5925 Q658.7656,105.9362 658.7656,102.8112 Q658.7656,99.6862 660.0781,98.03 Q661.4063,96.3737 663.9063,96.3737 Q664.6094,96.3737 665.25,96.53 Q665.9063,96.6862 666.4688,96.9831 L666.4688,99.7019 Q665.8438,99.1237 665.25,98.8581 Q664.6563,98.5769 664.0313,98.5769 Q662.6875,98.5769 662,99.655 Q661.3125,100.7175 661.3125,102.8112 Q661.3125,104.905 662,105.9831 Q662.6875,107.0456 664.0313,107.0456 Q664.6563,107.0456 665.25,106.78 Q665.8438,106.4987 666.4688,105.9206 L666.4688,108.6394 Z " fill="#000000"/><a href="https://bo4e.github.io/BO4E-python/latest/api/bo4e.bo.html#bo4e.bo.preisblatt.Preisblatt" target="_top" title="https://bo4e.github.io/BO4E-python/latest/api/bo4e.bo.html#bo4e.bo.preisblatt.Preisblatt" xlink:actuate="onRequest" xlink:href="https://bo4e.github.io/BO4E-python/latest/api/bo4e.bo.html#bo4e.bo.preisblatt.Preisblatt" xlink:show="new" xlink:title="https://bo4e.github.io/BO4E-python/latest/api/bo4e.bo.html#bo4e.bo.preisblatt.Preisblatt" xlink:type="simple"><text fill="#0000FF" font-family="sans-serif" font-size="14" lengthAdjust="spacing" text-decoration="underline" textLength="64" x="689" y="102.0251">Preisblatt</text></a><text fill="#000000" font-family="sans-serif" font-size="10" lengthAdjust="spacing" textLength="87" x="677.5" y="114.6091">bo4e.bo.preisblatt</text></g><!--class Bilanzierungsmethode--><g id="elem_Bilanzierungsmethode"><rect codeLine="13" fill="#F1F1F1" height="37.9375" id="Bilanzierungsmethode" rx="2.5" ry="2.5" style="stroke:#181818;stroke-width:0.5;" width="196" x="610" y="197.03"/><ellipse cx="625" cy="215.9988" fill="#ADD1B2" rx="11" ry="11" style="stroke:#181818;stroke-width:1.0;"/><path d="M627.9688,221.6394 Q627.3906,221.9363 626.75,222.0769 Q626.1094,222.2331 625.4063,222.2331 Q622.9063,222.2331 621.5781,220.5925 Q620.2656,218.9363 620.2656,215.8113 Q620.2656,212.6863 621.5781,211.03 Q622.9063,209.3738 625.4063,209.3738 Q626.1094,209.3738 626.75,209.53 Q627.4063,209.6863 627.9688,209.9831 L627.9688,212.7019 Q627.3438,212.1238 626.75,211.8581 Q626.1563,211.5769 625.5313,211.5769 Q624.1875,211.5769 623.5,212.655 Q622.8125,213.7175 622.8125,215.8113 Q622.8125,217.905 623.5,218.9831 Q624.1875,220.0456 625.5313,220.0456 Q626.1563,220.0456 626.75,219.78 Q627.3438,219.4988 627.9688,218.9206 L627.9688,221.6394 Z " fill="#000000"/><a href="https://bo4e.github.io/BO4E-python/latest/api/bo4e.enum.html#bo4e.enum.bilanzierungsmethode.Bilanzierungsmethode" target="_top" title="https://bo4e.github.io/BO4E-python/latest/api/bo4e.enum.html#bo4e.enum.bilanzierungsmethode.Bilanzierungsmethode" xlink:actuate="onRequest" xlink:href="https://bo4e.github.io/BO4E-python/latest/api/bo4e.enum.html#bo4e.enum.bilanzierungsmethode.Bilanzierungsmethode" xlink:show="new" xlink:title="https://bo4e.github.io/BO4E-python/latest/api/bo4e.enum.html#bo4e.enum.bilanzierungsmethode.Bilanzierungsmethode" xlink:type="simple"><text fill="#0000FF" font-family="sans-serif" font-size="14" lengthAdjust="spacing" text-decoration="underline" textLength="156" x="643" y="215.0251">Bilanzierungsmethode</text></a><text fill="#000000" font-family="sans-serif" font-size="10" lengthAdjust="spacing" textLength="164" x="639" y="227.6091">bo4e.enum.bilanzierungsmethode</text></g><!--class Netzebene--><g id="elem_Netzebene"><rect codeLine="14" fill="#F1F1F1" height="37.9375" id="Netzebene" rx="2.5" ry="2.5" style="stroke:#181818;stroke-width:0.5;" width="141" x="637.5" y="270.03"/><ellipse cx="652.5" cy="288.9988" fill="#ADD1B2" rx="11" ry="11" style="stroke:#181818;stroke-width:1.0;"/><path d="M655.4688,294.6394 Q654.8906,294.9363 654.25,295.0769 Q653.6094,295.2331 652.9063,295.2331 Q650.4063,295.2331 649.0781,293.5925 Q647.7656,291.9363 647.7656,288.8113 Q647.7656,285.6863 649.0781,284.03 Q650.4063,282.3738 652.9063,282.3738 Q653.6094,282.3738 654.25,282.53 Q654.9063,282.6863 655.4688,282.9831 L655.4688,285.7019 Q654.8438,285.1238 654.25,284.8581 Q653.6563,284.5769 653.0313,284.5769 Q651.6875,284.5769 651,285.655 Q650.3125,286.7175 650.3125,288.8113 Q650.3125,290.905 651,291.9831 Q651.6875,293.0456 653.0313,293.0456 Q653.6563,293.0456 654.25,292.78 Q654.8438,292.4988 655.4688,291.9206 L655.4688,294.6394 Z " fill="#000000"/><a href="https://bo4e.github.io/BO4E-python/latest/api/bo4e.enum.html#bo4e.enum.netzebene.Netzebene" target="_top" title="https://bo4e.github.io/BO4E-python/latest/api/bo4e.enum.html#bo4e.enum.netzebene.Netzebene" xlink:actuate="onRequest" xlink:href="https://bo4e.github.io/BO4E-python/latest/api/bo4e.enum.html#bo4e.enum.netzebene.Netzebene" xlink:show="new" xlink:title="https://bo4e.github.io/BO4E-python/latest/api/bo4e.enum.html#bo4e.enum.netzebene.Netzebene" xlink:type="simple"><text fill="#0000FF" font-family="sans-serif" font-size="14" lengthAdjust="spacing" text-decoration="underline" textLength="77" x="682.5" y="288.0251">Netzebene</text></a><text fill="#000000" font-family="sans-serif" font-size="10" lengthAdjust="spacing" textLength="109" x="666.5" y="300.6091">bo4e.enum.netzebene</text></g><!--class Kundengruppe--><g id="elem_Kundengruppe"><rect codeLine="15" fill="#F1F1F1" height="37.9375" id="Kundengruppe" rx="2.5" ry="2.5" style="stroke:#181818;stroke-width:0.5;" width="159" x="628.5" y="343.03"/><ellipse cx="643.5" cy="361.9988" fill="#ADD1B2" rx="11" ry="11" style="stroke:#181818;stroke-width:1.0;"/><path d="M646.4688,367.6394 Q645.8906,367.9363 645.25,368.0769 Q644.6094,368.2331 643.9063,368.2331 Q641.4063,368.2331 640.0781,366.5925 Q638.7656,364.9363 638.7656,361.8113 Q638.7656,358.6863 640.0781,357.03 Q641.4063,355.3738 643.9063,355.3738 Q644.6094,355.3738 645.25,355.53 Q645.9063,355.6863 646.4688,355.9831 L646.4688,358.7019 Q645.8438,358.1238 645.25,357.8581 Q644.6563,357.5769 644.0313,357.5769 Q642.6875,357.5769 642,358.655 Q641.3125,359.7175 641.3125,361.8113 Q641.3125,363.905 642,364.9831 Q642.6875,366.0456 644.0313,366.0456 Q644.6563,366.0456 645.25,365.78 Q645.8438,365.4988 646.4688,364.9206 L646.4688,367.6394 Z " fill="#000000"/><a href="https://bo4e.github.io/BO4E-python/latest/api/bo4e.enum.html#bo4e.enum.kundengruppe.Kundengruppe" target="_top" title="https://bo4e.github.io/BO4E-python/latest/api/bo4e.enum.html#bo4e.enum.kundengruppe.Kundengruppe" xlink:actuate="onRequest" xlink:href="https://bo4e.github.io/BO4E-python/latest/api/bo4e.enum.html#bo4e.enum.kundengruppe.Kundengruppe" xlink:show="new" xlink:title="https://bo4e.github.io/BO4E-python/latest/api/bo4e.enum.html#bo4e.enum.kundengruppe.Kundengruppe" xlink:type="simple"><text fill="#0000FF" font-family="sans-serif" font-size="14" lengthAdjust="spacing" text-decoration="underline" textLength="104" x="669" y="361.0251">Kundengruppe</text></a><text fill="#000000" font-family="sans-serif" font-size="10" lengthAdjust="spacing" textLength="127" x="657.5" y="373.6091">bo4e.enum.kundengruppe</text></g><!--class PreisblattNetznutzung--><g id="elem_PreisblattNetznutzung"><rect codeLine="3" fill="#F1F1F1" height="94.8281" id="PreisblattNetznutzung" rx="2.5" ry="2.5" style="stroke:#181818;stroke-width:0.5;" width="373" x="7" y="209.59"/><ellipse cx="112.25" cy="228.5588" fill="#ADD1B2" rx="11" ry="11" style="stroke:#181818;stroke-width:1.0;"/><path d="M115.2188,234.1994 Q114.6406,234.4963 114,234.6369 Q113.3594,234.7931 112.6563,234.7931 Q110.1563,234.7931 108.8281,233.1525 Q107.5156,231.4963 107.5156,228.3713 Q107.5156,225.2463 108.8281,223.59 Q110.1563,221.9338 112.6563,221.9338 Q113.3594,221.9338 114,222.09 Q114.6563,222.2463 115.2188,222.5431 L115.2188,225.2619 Q114.5938,224.6838 114,224.4181 Q113.4063,224.1369 112.7813,224.1369 Q111.4375,224.1369 110.75,225.215 Q110.0625,226.2775 110.0625,228.3713 Q110.0625,230.465 110.75,231.5431 Q111.4375,232.6056 112.7813,232.6056 Q113.4063,232.6056 114,232.34 Q114.5938,232.0588 115.2188,231.4806 L115.2188,234.1994 Z " fill="#000000"/><a href="https://bo4e.github.io/BO4E-python/latest/api/bo4e.bo.html#bo4e.bo.preisblattnetznutzung.PreisblattNetznutzung" target="_top" title="https://bo4e.github.io/BO4E-python/latest/api/bo4e.bo.html#bo4e.bo.preisblattnetznutzung.PreisblattNetznutzung" xlink:actuate="onRequest" xlink:href="https://bo4e.github.io/BO4E-python/latest/api/bo4e.bo.html#bo4e.bo.preisblattnetznutzung.PreisblattNetznutzung" xlink:show="new" xlink:title="https://bo4e.github.io/BO4E-python/latest/api/bo4e.bo.html#bo4e.bo.preisblattnetznutzung.PreisblattNetznutzung" xlink:type="simple"><text fill="#0000FF" font-family="sans-serif" font-size="14" lengthAdjust="spacing" text-decoration="underline" textLength="154" x="132.75" y="227.5851">PreisblattNetznutzung</text></a><text fill="#000000" font-family="sans-serif" font-size="10" lengthAdjust="spacing" textLength="147" x="136.25" y="240.1691">bo4e.bo.preisblattnetznutzung</text><line style="stroke:#181818;stroke-width:0.5;" x1="8" x2="379" y1="247.5275" y2="247.5275"/><text fill="#000000" font-family="sans-serif" font-size="14" lengthAdjust="spacing" textLength="361" x="13" y="264.5226">_version : str [0..1] = 202401.4.1.dev50+g7314aa9f</text><text fill="#000000" font-family="sans-serif" font-size="14" lengthAdjust="spacing" textLength="311" x="13" y="280.8195">zusatzAttribute : ZusatzAttribut [0..*] = None</text><text fill="#000000" font-family="sans-serif" font-size="14" lengthAdjust="spacing" textLength="147" x="13" y="297.1164">_id : str [0..1] = None</text></g><!--link PreisblattNetznutzung to Preisblatt--><g id="link_PreisblattNetznutzung_Preisblatt"><path codeLine="18" d="M353.85,209.12 C453.75,179.1 559.461,147.3285 630.801,125.8985 " fill="none" id="PreisblattNetznutzung-to-Preisblatt" style="stroke:#181818;stroke-width:1.0;"/><polygon fill="none" points="648.04,120.72,629.0748,120.1521,632.5271,131.6448,648.04,120.72" style="stroke:#181818;stroke-width:1.0;"/></g><!--link PreisblattNetznutzung to Bilanzierungsmethode--><g id="link_PreisblattNetznutzung_Bilanzierungsmethode"><path codeLine="19" d="M380.25,242.14 C457.88,235.93 532.9083,229.9277 597.6083,224.7477 " fill="none" id="PreisblattNetznutzung-to-Bilanzierungsmethode" style="stroke:#181818;stroke-width:1.0;"/><polygon fill="#181818" points="609.57,223.79,603.2699,220.2816,597.6083,224.7477,603.9084,228.2561,609.57,223.79" style="stroke:#181818;stroke-width:1.0;"/><text fill="#000000" font-family="sans-serif" font-size="13" lengthAdjust="spacing" textLength="142" x="411" y="226.0669">bilanzierungsmethode</text><text fill="#000000" font-family="sans-serif" font-size="13" lengthAdjust="spacing" textLength="24" x="578.1505" y="236.8887">0..1</text></g><!--link PreisblattNetznutzung to Netzebene--><g id="link_PreisblattNetznutzung_Netzebene"><path codeLine="20" d="M380.44,277.74 C390.43,278.58 400.33,279.34 410,280 C487.58,285.31 564.7813,287.3127 625.0213,288.2027 " fill="none" id="PreisblattNetznutzung-to-Netzebene" style="stroke:#181818;stroke-width:1.0;"/><polygon fill="#181818" points="637.02,288.38,631.0797,284.2918,625.0213,288.2027,630.9616,292.2909,637.02,288.38" style="stroke:#181818;stroke-width:1.0;"/><text fill="#000000" font-family="sans-serif" font-size="13" lengthAdjust="spacing" textLength="68" x="448" y="276.0669">netzebene</text><text fill="#000000" font-family="sans-serif" font-size="13" lengthAdjust="spacing" textLength="24" x="605.6296" y="301.0657">0..1</text></g><!--link PreisblattNetznutzung to Kundengruppe--><g id="link_PreisblattNetznutzung_Kundengruppe"><path codeLine="21" d="M377.66,304.85 C388.58,307.36 399.42,309.76 410,312 C483.54,327.55 556.2772,339.5905 616.3272,348.7505 " fill="none" id="PreisblattNetznutzung-to-Kundengruppe" style="stroke:#181818;stroke-width:1.0;"/><polygon fill="#181818" points="628.19,350.56,622.8618,345.701,616.3272,348.7505,621.6554,353.6095,628.19,350.56" style="stroke:#181818;stroke-width:1.0;"/><text fill="#000000" font-family="sans-serif" font-size="13" lengthAdjust="spacing" textLength="92" x="436" y="308.0669">kundengruppe</text><text fill="#000000" font-family="sans-serif" font-size="13" lengthAdjust="spacing" textLength="24" x="596.587" y="362.3062">0..1</text></g><!--SRC=[jLHDJwH043tRlw8oStCp3IX-B54J9xkdJMOzxqXCCzH0HsW8NRXPLl-x3UimhO8RCthhLrIzhdglYmpN15H09PEK89OLhaWMYh5L9hI6oNAP4fKwS9oey94daj8wuh9mvZ_zxxFo3wM5SZ91gCaHfVoN5HKyfJoRRa1PeTIHoIA5rAYQcbeb_AgFBhPH68o6uRKwqxB1m7CltcITWD337F2NxTtSOQNDU120fWgMBkTU2ETmu1xuhiTzxl4OxuxSByd9eUSByNNDzffQ2sekYIePrOIczDUpICUotx8i2eNc3Xc_fEy-F32cH8ww52lSJLTu0c7OJVk4O3e__dPoUThE-JdcMOvP4l_7cnU661bsLG5LdLiwjD1MeiKmZRtLuT7EMlHNJRSmafbGZSJAl2cTewcBaSy7WZ0KVAtMA6atqX37ny_KBX16g90lDYVeJoCjzpLTdttsnpTtMwiOLLBLPOdyXmN01YDTsiLTetPDkvCZlw7PxFvYirbMobYwoT-7IRlla-qh77uL0GoP_JxYhKi1z3wyZ-APa07OEZ6MIjDeZdbaVfTCfyLl6E5UIynY_GW0]--></g></svg>