<?xml version="1.0" encoding="us-ascii" standalone="no"?><svg xmlns="http://www.w3.org/2000/svg" xmlns:xlink="http://www.w3.org/1999/xlink" contentStyleType="text/css" height="501px" preserveAspectRatio="none" style="width:846px;height:501px;background:#FFFFFF;" version="1.1" viewBox="0 0 846 501" width="846px" zoomAndPan="magnify"><defs/><g><!--cluster bo4e--><g id="cluster_bo4e"><path d="M565.5,6 L606.5,6 A3.75,3.75 0 0 1 609,8.5 L616,28.2969 L836.5,28.2969 A2.5,2.5 0 0 1 839,30.7969 L839,491.5 A2.5,2.5 0 0 1 836.5,494 L565.5,494 A2.5,2.5 0 0 1 563,491.5 L563,8.5 A2.5,2.5 0 0 1 565.5,6 " fill="none" style="stroke:#000000;stroke-width:1.5;"/><line style="stroke:#000000;stroke-width:1.5;" x1="563" x2="616" y1="28.2969" y2="28.2969"/><text fill="#000000" font-family="sans-serif" font-size="14" font-weight="bold" lengthAdjust="spacing" textLength="40" x="567" y="20.9951">bo4e</text></g><!--cluster bo--><g id="cluster_bo"><path d="M628,49 L694,49 A3.75,3.75 0 0 1 696.5,51.5 L703.5,71.2969 L774,71.2969 A2.5,2.5 0 0 1 776.5,73.7969 L776.5,135.5 A2.5,2.5 0 0 1 774,138 L628,138 A2.5,2.5 0 0 1 625.5,135.5 L625.5,51.5 A2.5,2.5 0 0 1 628,49 " fill="#B6D7A8" style="stroke:#000000;stroke-width:1.5;"/><line style="stroke:#000000;stroke-width:1.5;" x1="625.5" x2="703.5" y1="71.2969" y2="71.2969"/><a href="https://bo4e.github.io/BO4E-python/latest/api/bo4e.bo.html" target="_top" title="https://bo4e.github.io/BO4E-python/latest/api/bo4e.bo.html" xlink:actuate="onRequest" xlink:href="https://bo4e.github.io/BO4E-python/latest/api/bo4e.bo.html" xlink:show="new" xlink:title="https://bo4e.github.io/BO4E-python/latest/api/bo4e.bo.html" xlink:type="simple"><text fill="#0000FF" font-family="sans-serif" font-size="14" font-weight="bold" lengthAdjust="spacing" text-decoration="underline" textLength="65" x="629.5" y="63.9951">bo4e.bo</text></a></g><!--cluster enum--><g id="cluster_enum"><path d="M589.5,162 L679.5,162 A3.75,3.75 0 0 1 682,164.5 L689,184.2969 L812.5,184.2969 A2.5,2.5 0 0 1 815,186.7969 L815,467.5 A2.5,2.5 0 0 1 812.5,470 L589.5,470 A2.5,2.5 0 0 1 587,467.5 L587,164.5 A2.5,2.5 0 0 1 589.5,162 " fill="#D1C358" style="stroke:#000000;stroke-width:1.5;"/><line style="stroke:#000000;stroke-width:1.5;" x1="587" x2="689" y1="184.2969" y2="184.2969"/><a href="https://bo4e.github.io/BO4E-python/latest/api/bo4e.enum.html" target="_top" title="https://bo4e.github.io/BO4E-python/latest/api/bo4e.enum.html" xlink:actuate="onRequest" xlink:href="https://bo4e.github.io/BO4E-python/latest/api/bo4e.enum.html" xlink:show="new" xlink:title="https://bo4e.github.io/BO4E-python/latest/api/bo4e.enum.html" xlink:type="simple"><text fill="#0000FF" font-family="sans-serif" font-size="14" font-weight="bold" lengthAdjust="spacing" text-decoration="underline" textLength="89" x="591" y="176.9951">bo4e.enum</text></a></g><!--class Preisblatt--><g id="elem_Preisblatt"><rect codeLine="10" fill="#F1F1F1" height="37.9375" id="Preisblatt" rx="2.5" ry="2.5" style="stroke:#181818;stroke-width:0.5;" width="119" x="641.5" y="84.03"/><ellipse cx="656.5" cy="102.9987" fill="#ADD1B2" rx="11" ry="11" style="stroke:#181818;stroke-width:1.0;"/><path d="M659.4688,108.6394 Q658.8906,108.9362 658.25,109.0769 Q657.6094,109.2331 656.9063,109.2331 Q654.4063,109.2331 653.0781,107.5925 Q651.7656,105.9362 651.7656,102.8112 Q651.7656,99.6862 653.0781,98.03 Q654.4063,96.3737 656.9063,96.3737 Q657.6094,96.3737 658.25,96.53 Q658.9063,96.6862 659.4688,96.9831 L659.4688,99.7019 Q658.8438,99.1237 658.25,98.8581 Q657.6563,98.5769 657.0313,98.5769 Q655.6875,98.5769 655,99.655 Q654.3125,100.7175 654.3125,102.8112 Q654.3125,104.905 655,105.9831 Q655.6875,107.0456 657.0313,107.0456 Q657.6563,107.0456 658.25,106.78 Q658.8438,106.4987 659.4688,105.9206 L659.4688,108.6394 Z " fill="#000000"/><a href="https://bo4e.github.io/BO4E-python/latest/api/bo4e.bo.html#bo4e.bo.preisblatt.Preisblatt" target="_top" title="https://bo4e.github.io/BO4E-python/latest/api/bo4e.bo.html#bo4e.bo.preisblatt.Preisblatt" xlink:actuate="onRequest" xlink:href="https://bo4e.github.io/BO4E-python/latest/api/bo4e.bo.html#bo4e.bo.preisblatt.Preisblatt" xlink:show="new" xlink:title="https://bo4e.github.io/BO4E-python/latest/api/bo4e.bo.html#bo4e.bo.preisblatt.Preisblatt" xlink:type="simple"><text fill="#0000FF" font-family="sans-serif" font-size="14" lengthAdjust="spacing" text-decoration="underline" textLength="64" x="682" y="102.0251">Preisblatt</text></a><text fill="#000000" font-family="sans-serif" font-size="10" lengthAdjust="spacing" textLength="87" x="670.5" y="114.6091">bo4e.bo.preisblatt</text></g><!--class Netzebene--><g id="elem_Netzebene"><rect codeLine="13" fill="#F1F1F1" height="37.9375" id="Netzebene" rx="2.5" ry="2.5" style="stroke:#181818;stroke-width:0.5;" width="141" x="630.5" y="197.03"/><ellipse cx="645.5" cy="215.9987" fill="#ADD1B2" rx="11" ry="11" style="stroke:#181818;stroke-width:1.0;"/><path d="M648.4688,221.6394 Q647.8906,221.9362 647.25,222.0769 Q646.6094,222.2331 645.9063,222.2331 Q643.4063,222.2331 642.0781,220.5925 Q640.7656,218.9362 640.7656,215.8112 Q640.7656,212.6862 642.0781,211.03 Q643.4063,209.3737 645.9063,209.3737 Q646.6094,209.3737 647.25,209.53 Q647.9063,209.6862 648.4688,209.9831 L648.4688,212.7019 Q647.8438,212.1237 647.25,211.8581 Q646.6563,211.5769 646.0313,211.5769 Q644.6875,211.5769 644,212.655 Q643.3125,213.7175 643.3125,215.8112 Q643.3125,217.905 644,218.9831 Q644.6875,220.0456 646.0313,220.0456 Q646.6563,220.0456 647.25,219.78 Q647.8438,219.4987 648.4688,218.9206 L648.4688,221.6394 Z " fill="#000000"/><a href="https://bo4e.github.io/BO4E-python/latest/api/bo4e.enum.html#bo4e.enum.netzebene.Netzebene" target="_top" title="https://bo4e.github.io/BO4E-python/latest/api/bo4e.enum.html#bo4e.enum.netzebene.Netzebene" xlink:actuate="onRequest" xlink:href="https://bo4e.github.io/BO4E-python/latest/api/bo4e.enum.html#bo4e.enum.netzebene.Netzebene" xlink:show="new" xlink:title="https://bo4e.github.io/BO4E-python/latest/api/bo4e.enum.html#bo4e.enum.netzebene.Netzebene" xlink:type="simple"><text fill="#0000FF" font-family="sans-serif" font-size="14" lengthAdjust="spacing" text-decoration="underline" textLength="77" x="675.5" y="215.0251">Netzebene</text></a><text fill="#000000" font-family="sans-serif" font-size="10" lengthAdjust="spacing" textLength="109" x="659.5" y="227.6091">bo4e.enum.netzebene</text></g><!--class Typ--><g id="elem_Typ"><rect codeLine="14" fill="#F1F1F1" height="37.9375" id="Typ" rx="2.5" ry="2.5" style="stroke:#181818;stroke-width:0.5;" width="106" x="648" y="270.03"/><ellipse cx="663" cy="288.9988" fill="#ADD1B2" rx="11" ry="11" style="stroke:#181818;stroke-width:1.0;"/><path d="M665.9688,294.6394 Q665.3906,294.9363 664.75,295.0769 Q664.1094,295.2331 663.4063,295.2331 Q660.9063,295.2331 659.5781,293.5925 Q658.2656,291.9363 658.2656,288.8113 Q658.2656,285.6863 659.5781,284.03 Q660.9063,282.3738 663.4063,282.3738 Q664.1094,282.3738 664.75,282.53 Q665.4063,282.6863 665.9688,282.9831 L665.9688,285.7019 Q665.3438,285.1238 664.75,284.8581 Q664.1563,284.5769 663.5313,284.5769 Q662.1875,284.5769 661.5,285.655 Q660.8125,286.7175 660.8125,288.8113 Q660.8125,290.905 661.5,291.9831 Q662.1875,293.0456 663.5313,293.0456 Q664.1563,293.0456 664.75,292.78 Q665.3438,292.4988 665.9688,291.9206 L665.9688,294.6394 Z " fill="#000000"/><a href="https://bo4e.github.io/BO4E-python/latest/api/bo4e.enum.html#bo4e.enum.typ.Typ" target="_top" title="https://bo4e.github.io/BO4E-python/latest/api/bo4e.enum.html#bo4e.enum.typ.Typ" xlink:actuate="onRequest" xlink:href="https://bo4e.github.io/BO4E-python/latest/api/bo4e.enum.html#bo4e.enum.typ.Typ" xlink:show="new" xlink:title="https://bo4e.github.io/BO4E-python/latest/api/bo4e.enum.html#bo4e.enum.typ.Typ" xlink:type="simple"><text fill="#0000FF" font-family="sans-serif" font-size="14" lengthAdjust="spacing" text-decoration="underline" textLength="25" x="701.5" y="288.0251">Typ</text></a><text fill="#000000" font-family="sans-serif" font-size="10" lengthAdjust="spacing" textLength="74" x="677" y="300.6091">bo4e.enum.typ</text></g><!--class Kundengruppe--><g id="elem_Kundengruppe"><rect codeLine="15" fill="#F1F1F1" height="37.9375" id="Kundengruppe" rx="2.5" ry="2.5" style="stroke:#181818;stroke-width:0.5;" width="159" x="621.5" y="343.03"/><ellipse cx="636.5" cy="361.9988" fill="#ADD1B2" rx="11" ry="11" style="stroke:#181818;stroke-width:1.0;"/><path d="M639.4688,367.6394 Q638.8906,367.9363 638.25,368.0769 Q637.6094,368.2331 636.9063,368.2331 Q634.4063,368.2331 633.0781,366.5925 Q631.7656,364.9363 631.7656,361.8113 Q631.7656,358.6863 633.0781,357.03 Q634.4063,355.3738 636.9063,355.3738 Q637.6094,355.3738 638.25,355.53 Q638.9063,355.6863 639.4688,355.9831 L639.4688,358.7019 Q638.8438,358.1238 638.25,357.8581 Q637.6563,357.5769 637.0313,357.5769 Q635.6875,357.5769 635,358.655 Q634.3125,359.7175 634.3125,361.8113 Q634.3125,363.905 635,364.9831 Q635.6875,366.0456 637.0313,366.0456 Q637.6563,366.0456 638.25,365.78 Q638.8438,365.4988 639.4688,364.9206 L639.4688,367.6394 Z " fill="#000000"/><a href="https://bo4e.github.io/BO4E-python/latest/api/bo4e.enum.html#bo4e.enum.kundengruppe.Kundengruppe" target="_top" title="https://bo4e.github.io/BO4E-python/latest/api/bo4e.enum.html#bo4e.enum.kundengruppe.Kundengruppe" xlink:actuate="onRequest" xlink:href="https://bo4e.github.io/BO4E-python/latest/api/bo4e.enum.html#bo4e.enum.kundengruppe.Kundengruppe" xlink:show="new" xlink:title="https://bo4e.github.io/BO4E-python/latest/api/bo4e.enum.html#bo4e.enum.kundengruppe.Kundengruppe" xlink:type="simple"><text fill="#0000FF" font-family="sans-serif" font-size="14" lengthAdjust="spacing" text-decoration="underline" textLength="104" x="662" y="361.0251">Kundengruppe</text></a><text fill="#000000" font-family="sans-serif" font-size="10" lengthAdjust="spacing" textLength="127" x="650.5" y="373.6091">bo4e.enum.kundengruppe</text></g><!--class Bilanzierungsmethode--><g id="elem_Bilanzierungsmethode"><rect codeLine="16" fill="#F1F1F1" height="37.9375" id="Bilanzierungsmethode" rx="2.5" ry="2.5" style="stroke:#181818;stroke-width:0.5;" width="196" x="603" y="416.03"/><ellipse cx="618" cy="434.9988" fill="#ADD1B2" rx="11" ry="11" style="stroke:#181818;stroke-width:1.0;"/><path d="M620.9688,440.6394 Q620.3906,440.9363 619.75,441.0769 Q619.1094,441.2331 618.4063,441.2331 Q615.9063,441.2331 614.5781,439.5925 Q613.2656,437.9363 613.2656,434.8113 Q613.2656,431.6863 614.5781,430.03 Q615.9063,428.3738 618.4063,428.3738 Q619.1094,428.3738 619.75,428.53 Q620.4063,428.6863 620.9688,428.9831 L620.9688,431.7019 Q620.3438,431.1238 619.75,430.8581 Q619.1563,430.5769 618.5313,430.5769 Q617.1875,430.5769 616.5,431.655 Q615.8125,432.7175 615.8125,434.8113 Q615.8125,436.905 616.5,437.9831 Q617.1875,439.0456 618.5313,439.0456 Q619.1563,439.0456 619.75,438.78 Q620.3438,438.4988 620.9688,437.9206 L620.9688,440.6394 Z " fill="#000000"/><a href="https://bo4e.github.io/BO4E-python/latest/api/bo4e.enum.html#bo4e.enum.bilanzierungsmethode.Bilanzierungsmethode" target="_top" title="https://bo4e.github.io/BO4E-python/latest/api/bo4e.enum.html#bo4e.enum.bilanzierungsmethode.Bilanzierungsmethode" xlink:actuate="onRequest" xlink:href="https://bo4e.github.io/BO4E-python/latest/api/bo4e.enum.html#bo4e.enum.bilanzierungsmethode.Bilanzierungsmethode" xlink:show="new" xlink:title="https://bo4e.github.io/BO4E-python/latest/api/bo4e.enum.html#bo4e.enum.bilanzierungsmethode.Bilanzierungsmethode" xlink:type="simple"><text fill="#0000FF" font-family="sans-serif" font-size="14" lengthAdjust="spacing" text-decoration="underline" textLength="156" x="636" y="434.0251">Bilanzierungsmethode</text></a><text fill="#000000" font-family="sans-serif" font-size="10" lengthAdjust="spacing" textLength="164" x="632" y="446.6091">bo4e.enum.bilanzierungsmethode</text></g><!--class PreisblattNetznutzung--><g id="elem_PreisblattNetznutzung"><rect codeLine="3" fill="#F1F1F1" height="94.8281" id="PreisblattNetznutzung" rx="2.5" ry="2.5" style="stroke:#181818;stroke-width:0.5;" width="366" x="7" y="241.59"/><ellipse cx="108.75" cy="260.5588" fill="#ADD1B2" rx="11" ry="11" style="stroke:#181818;stroke-width:1.0;"/><path d="M111.7188,266.1994 Q111.1406,266.4963 110.5,266.6369 Q109.8594,266.7931 109.1563,266.7931 Q106.6563,266.7931 105.3281,265.1525 Q104.0156,263.4963 104.0156,260.3713 Q104.0156,257.2463 105.3281,255.59 Q106.6563,253.9337 109.1563,253.9337 Q109.8594,253.9337 110.5,254.09 Q111.1563,254.2462 111.7188,254.5431 L111.7188,257.2619 Q111.0938,256.6838 110.5,256.4181 Q109.9063,256.1369 109.2813,256.1369 Q107.9375,256.1369 107.25,257.215 Q106.5625,258.2775 106.5625,260.3713 Q106.5625,262.465 107.25,263.5431 Q107.9375,264.6056 109.2813,264.6056 Q109.9063,264.6056 110.5,264.34 Q111.0938,264.0588 111.7188,263.4806 L111.7188,266.1994 Z " fill="#000000"/><a href="https://bo4e.github.io/BO4E-python/latest/api/bo4e.bo.html#bo4e.bo.preisblattnetznutzung.PreisblattNetznutzung" target="_top" title="https://bo4e.github.io/BO4E-python/latest/api/bo4e.bo.html#bo4e.bo.preisblattnetznutzung.PreisblattNetznutzung" xlink:actuate="onRequest" xlink:href="https://bo4e.github.io/BO4E-python/latest/api/bo4e.bo.html#bo4e.bo.preisblattnetznutzung.PreisblattNetznutzung" xlink:show="new" xlink:title="https://bo4e.github.io/BO4E-python/latest/api/bo4e.bo.html#bo4e.bo.preisblattnetznutzung.PreisblattNetznutzung" xlink:type="simple"><text fill="#0000FF" font-family="sans-serif" font-size="14" lengthAdjust="spacing" text-decoration="underline" textLength="154" x="129.25" y="259.5851">PreisblattNetznutzung</text></a><text fill="#000000" font-family="sans-serif" font-size="10" lengthAdjust="spacing" textLength="147" x="132.75" y="272.1691">bo4e.bo.preisblattnetznutzung</text><line style="stroke:#181818;stroke-width:0.5;" x1="8" x2="372" y1="279.5275" y2="279.5275"/><text fill="#000000" font-family="sans-serif" font-size="14" lengthAdjust="spacing" textLength="354" x="13" y="296.5226">_version : str [0..1] = 202401.1.2.dev11+g691eef6</text><text fill="#000000" font-family="sans-serif" font-size="14" lengthAdjust="spacing" textLength="311" x="13" y="312.8195">zusatzAttribute : ZusatzAttribut [0..*] = None</text><text fill="#000000" font-family="sans-serif" font-size="14" lengthAdjust="spacing" textLength="147" x="13" y="329.1164">_id : str [0..1] = None</text></g><!--link PreisblattNetznutzung to Preisblatt--><g id="link_PreisblattNetznutzung_Preisblatt"><path codeLine="19" d="M322.08,241.1 C427.68,202.51 553.7736,156.4386 630.0336,128.5686 " fill="none" id="PreisblattNetznutzung-to-Preisblatt" style="stroke:#181818;stroke-width:1.0;"/><polygon fill="none" points="646.94,122.39,627.9741,122.9331,632.0932,134.2041,646.94,122.39" style="stroke:#181818;stroke-width:1.0;"/></g><!--link PreisblattNetznutzung to Typ--><g id="link_PreisblattNetznutzung_Typ"><path codeLine="20" d="M373.32,289 C470.6,289 571.2,289 635.57,289 " fill="none" id="PreisblattNetznutzung-to-Typ" style="stroke:#181818;stroke-width:1.0;"/><polygon fill="#181818" points="647.57,289,641.57,285,635.57,289,641.57,293,647.57,289" style="stroke:#181818;stroke-width:1.0;"/><text fill="#000000" font-family="sans-serif" font-size="13" lengthAdjust="spacing" textLength="27" x="461.5" y="285.0669">_typ</text><text fill="#000000" font-family="sans-serif" font-size="13" lengthAdjust="spacing" textLength="24" x="616.0047" y="301.9419">0..1</text></g><!--link PreisblattNetznutzung to Bilanzierungsmethode--><g id="link_PreisblattNetznutzung_Bilanzierungsmethode"><path codeLine="21" d="M319.5,336.9 C346.88,346.42 375.76,355.95 403,364 C470.87,384.06 537.0144,399.9029 595.9744,412.9729 " fill="none" id="PreisblattNetznutzung-to-Bilanzierungsmethode" style="stroke:#181818;stroke-width:1.0;"/><polygon fill="#181818" points="607.69,415.57,602.6979,410.3663,595.9744,412.9729,600.9665,418.1767,607.69,415.57" style="stroke:#181818;stroke-width:1.0;"/><text fill="#000000" font-family="sans-serif" font-size="13" lengthAdjust="spacing" textLength="142" x="404" y="360.0669">bilanzierungsmethode</text><text fill="#000000" font-family="sans-serif" font-size="13" lengthAdjust="spacing" textLength="24" x="570.8553" y="409.363">0..1</text></g><!--link PreisblattNetznutzung to Netzebene--><g id="link_PreisblattNetznutzung_Netzebene"><path codeLine="22" d="M373.32,262.85 C462.32,250.09 552.2815,237.1831 618.2615,227.7231 " fill="none" id="PreisblattNetznutzung-to-Netzebene" style="stroke:#181818;stroke-width:1.0;"/><polygon fill="#181818" points="630.14,226.02,623.633,222.912,618.2615,227.7231,624.7684,230.8311,630.14,226.02" style="stroke:#181818;stroke-width:1.0;"/><text fill="#000000" font-family="sans-serif" font-size="13" lengthAdjust="spacing" textLength="68" x="441" y="236.0669">netzebene</text><text fill="#000000" font-family="sans-serif" font-size="13" lengthAdjust="spacing" textLength="24" x="598.5013" y="239.7083">0..1</text></g><!--link PreisblattNetznutzung to Kundengruppe--><g id="link_PreisblattNetznutzung_Kundengruppe"><path codeLine="23" d="M373.32,315.15 C458.33,327.34 543.1717,339.5056 609.1717,348.9756 " fill="none" id="PreisblattNetznutzung-to-Kundengruppe" style="stroke:#181818;stroke-width:1.0;"/><polygon fill="#181818" points="621.05,350.68,615.6789,345.8684,609.1717,348.9756,614.5427,353.7873,621.05,350.68" style="stroke:#181818;stroke-width:1.0;"/><text fill="#000000" font-family="sans-serif" font-size="13" lengthAdjust="spacing" textLength="92" x="429" y="318.0669">kundengruppe</text><text fill="#000000" font-family="sans-serif" font-size="13" lengthAdjust="spacing" textLength="24" x="589.4354" y="362.4362">0..1</text></g><!--SRC=[jLJ1Rjim33rNNq4ajnQHupJBDcChq60x5KXts6cPKTWnOmkpPS6YEyHj_tsobpXAPsy8aXqCYFJZ4_b8CSKr0ULGY3WXY4I1AnAvP6oL1bh3OBbCY9Js72VCfyXZGKaPSf4xy_lfvv7QK99B9mq8DJc14hzHOSuJojBXpb052XqQ54caIfPKbJBcNrhlOk-5Jg_lVvSVjAZGSyStVsKTGA2xEU29NJmyOg5DUU21fWAMOyvT7px2P3oPZbtkyWcFyD5rh-BPUnTnFMCNLQa3gcw92X6MX2Rosu6d8RciIHQvH7E5Y5wpDpzU69D1Xbe5ApnDLjWQljyKkxLWE9zzUdlxhYxp__JEQfYby3zQyweVHePJLK1PPfOEjMahKTimZDpLzPkJjMYl6kxDUjOmH8byiJj1U_fJZCEO9iqMVVxaQAFuruq2y_MaOX1D4WPn_kj_b3926HUbKiZlB0DieoSpExX9qOuvVwwXI0DP2IpCQj0PchW8-Rp32LtEdXgwI9jQkZZgbT2p14UZvvlTmxOWVN23luH1lMu6-qVG38873wRZnyLrYk11Lst74UyVZ0VjapYEuc2eFB1dXh54c4Gpp4Apv9bEyf_GmxqMc4Rw5m00]--></g></svg>