<svg xmlns="http://www.w3.org/2000/svg" xmlns:xlink="http://www.w3.org/1999/xlink" contentStyleType="text/css" data-diagram-type="CLASS" height="574px" preserveAspectRatio="none" style="width:857px;height:574px;background:#FFFFFF;" version="1.1" viewBox="0 0 857 574" width="857px" zoomAndPan="magnify"><defs/><g><!--cluster bo4e--><g class="cluster" data-entity="bo4e" data-source-line="10" data-uid="ent0005" id="cluster_bo4e"><path d="M569.3,6 L609.176,6 A3.75,3.75 0 0 1 611.676,8.5 L618.676,28.2969 L847.87,28.2969 A2.5,2.5 0 0 1 850.37,30.7969 L850.37,564.5 A2.5,2.5 0 0 1 847.87,567 L569.3,567 A2.5,2.5 0 0 1 566.8,564.5 L566.8,8.5 A2.5,2.5 0 0 1 569.3,6" fill="none" style="stroke:#000000;stroke-width:1.5;"/><line style="stroke:#000000;stroke-width:1.5;" x1="566.8" x2="618.676" y1="28.2969" y2="28.2969"/><text fill="#000000" font-family="sans-serif" font-size="14" font-weight="bold" lengthAdjust="spacing" textLength="38.876" x="570.8" y="20.9951">bo4e</text></g><!--cluster bo--><g class="cluster" data-entity="bo" data-source-line="9" data-uid="ent0003" id="cluster_bo"><path d="M633.34,49 L698.174,49 A3.75,3.75 0 0 1 700.674,51.5 L707.674,71.2969 L783.84,71.2969 A2.5,2.5 0 0 1 786.34,73.7969 L786.34,281.5 A2.5,2.5 0 0 1 783.84,284 L633.34,284 A2.5,2.5 0 0 1 630.84,281.5 L630.84,51.5 A2.5,2.5 0 0 1 633.34,49" fill="#B6D7A8" style="stroke:#000000;stroke-width:1.5;"/><line style="stroke:#000000;stroke-width:1.5;" x1="630.84" x2="707.674" y1="71.2969" y2="71.2969"/><a href="file:////home/runner/work/BO4E-python/BO4E-python/docs/../.tox/docs/tmp/html/api/bo4e.bo.html" target="_top" title="file:////home/runner/work/BO4E-python/BO4E-python/docs/../.tox/docs/tmp/html/api/bo4e.bo.html" xlink:actuate="onRequest" xlink:href="file:////home/runner/work/BO4E-python/BO4E-python/docs/../.tox/docs/tmp/html/api/bo4e.bo.html" xlink:show="new" xlink:title="file:////home/runner/work/BO4E-python/BO4E-python/docs/../.tox/docs/tmp/html/api/bo4e.bo.html" xlink:type="simple"><text fill="#0000FF" font-family="sans-serif" font-size="14" font-weight="bold" lengthAdjust="spacing" text-decoration="underline" textLength="63.834" x="634.84" y="63.9951">bo4e.bo</text></a></g><!--cluster enum--><g class="cluster" data-entity="enum" data-source-line="14" data-uid="ent0008" id="cluster_enum"><path d="M593.3,308 L682.5109,308 A3.75,3.75 0 0 1 685.0109,310.5 L692.0109,330.2969 L823.87,330.2969 A2.5,2.5 0 0 1 826.37,332.7969 L826.37,540.5 A2.5,2.5 0 0 1 823.87,543 L593.3,543 A2.5,2.5 0 0 1 590.8,540.5 L590.8,310.5 A2.5,2.5 0 0 1 593.3,308" fill="#D1C358" style="stroke:#000000;stroke-width:1.5;"/><line style="stroke:#000000;stroke-width:1.5;" x1="590.8" x2="692.0109" y1="330.2969" y2="330.2969"/><a href="file:////home/runner/work/BO4E-python/BO4E-python/docs/../.tox/docs/tmp/html/api/bo4e.enum.html" target="_top" title="file:////home/runner/work/BO4E-python/BO4E-python/docs/../.tox/docs/tmp/html/api/bo4e.enum.html" xlink:actuate="onRequest" xlink:href="file:////home/runner/work/BO4E-python/BO4E-python/docs/../.tox/docs/tmp/html/api/bo4e.enum.html" xlink:show="new" xlink:title="file:////home/runner/work/BO4E-python/BO4E-python/docs/../.tox/docs/tmp/html/api/bo4e.enum.html" xlink:type="simple"><text fill="#0000FF" font-family="sans-serif" font-size="14" font-weight="bold" lengthAdjust="spacing" text-decoration="underline" textLength="88.2109" x="594.8" y="322.9951">bo4e.enum</text></a></g><!--class Zaehler--><g class="entity" data-entity="Zaehler" data-source-line="10" data-uid="ent0004" id="entity_Zaehler"><rect fill="#F1F1F1" height="37.9375" rx="2.5" ry="2.5" style="stroke:#181818;stroke-width:0.5;" width="112.7129" x="652.23" y="84.03"/><ellipse cx="667.23" cy="102.9987" fill="#ADD1B2" rx="11" ry="11" style="stroke:#181818;stroke-width:1;"/><path d="M670.1988,108.6394 Q669.6206,108.9362 668.98,109.0769 Q668.3394,109.2331 667.6363,109.2331 Q665.1363,109.2331 663.8081,107.5925 Q662.4956,105.9362 662.4956,102.8112 Q662.4956,99.6862 663.8081,98.03 Q665.1363,96.3737 667.6363,96.3737 Q668.3394,96.3737 668.98,96.53 Q669.6363,96.6862 670.1988,96.9831 L670.1988,99.7019 Q669.5738,99.1237 668.98,98.8581 Q668.3863,98.5769 667.7613,98.5769 Q666.4175,98.5769 665.73,99.655 Q665.0425,100.7175 665.0425,102.8112 Q665.0425,104.905 665.73,105.9831 Q666.4175,107.0456 667.7613,107.0456 Q668.3863,107.0456 668.98,106.78 Q669.5738,106.4987 670.1988,105.9206 L670.1988,108.6394 Z " fill="#000000"/><a href="file:////home/runner/work/BO4E-python/BO4E-python/docs/../.tox/docs/tmp/html/api/bo4e.bo.html#bo4e.bo.zaehler.Zaehler" target="_top" title="file:////home/runner/work/BO4E-python/BO4E-python/docs/../.tox/docs/tmp/html/api/bo4e.bo.html#bo4e.bo.zaehler.Zaehler" xlink:actuate="onRequest" xlink:href="file:////home/runner/work/BO4E-python/BO4E-python/docs/../.tox/docs/tmp/html/api/bo4e.bo.html#bo4e.bo.zaehler.Zaehler" xlink:show="new" xlink:title="file:////home/runner/work/BO4E-python/BO4E-python/docs/../.tox/docs/tmp/html/api/bo4e.bo.html#bo4e.bo.zaehler.Zaehler" xlink:type="simple"><text fill="#0000FF" font-family="sans-serif" font-size="14" lengthAdjust="spacing" text-decoration="underline" textLength="53.915" x="694.6289" y="102.0251">Zaehler</text></a><text fill="#000000" font-family="sans-serif" font-size="10" lengthAdjust="spacing" textLength="80.7129" x="681.23" y="114.6091">bo4e.bo.zaehler</text></g><!--class Geraet--><g class="entity" data-entity="Geraet" data-source-line="11" data-uid="ent0006" id="entity_Geraet"><rect fill="#F1F1F1" height="37.9375" rx="2.5" ry="2.5" style="stroke:#181818;stroke-width:0.5;" width="108.6162" x="654.28" y="157.03"/><ellipse cx="669.28" cy="175.9987" fill="#ADD1B2" rx="11" ry="11" style="stroke:#181818;stroke-width:1;"/><path d="M672.2488,181.6394 Q671.6706,181.9362 671.03,182.0769 Q670.3894,182.2331 669.6863,182.2331 Q667.1863,182.2331 665.8581,180.5925 Q664.5456,178.9362 664.5456,175.8112 Q664.5456,172.6862 665.8581,171.03 Q667.1863,169.3737 669.6863,169.3737 Q670.3894,169.3737 671.03,169.53 Q671.6863,169.6862 672.2488,169.9831 L672.2488,172.7019 Q671.6238,172.1237 671.03,171.8581 Q670.4363,171.5769 669.8113,171.5769 Q668.4675,171.5769 667.78,172.655 Q667.0925,173.7175 667.0925,175.8112 Q667.0925,177.905 667.78,178.9831 Q668.4675,180.0456 669.8113,180.0456 Q670.4363,180.0456 671.03,179.78 Q671.6238,179.4987 672.2488,178.9206 L672.2488,181.6394 Z " fill="#000000"/><a href="file:////home/runner/work/BO4E-python/BO4E-python/docs/../.tox/docs/tmp/html/api/bo4e.bo.html#bo4e.bo.geraet.Geraet" target="_top" title="file:////home/runner/work/BO4E-python/BO4E-python/docs/../.tox/docs/tmp/html/api/bo4e.bo.html#bo4e.bo.geraet.Geraet" xlink:actuate="onRequest" xlink:href="file:////home/runner/work/BO4E-python/BO4E-python/docs/../.tox/docs/tmp/html/api/bo4e.bo.html#bo4e.bo.geraet.Geraet" xlink:show="new" xlink:title="file:////home/runner/work/BO4E-python/BO4E-python/docs/../.tox/docs/tmp/html/api/bo4e.bo.html#bo4e.bo.geraet.Geraet" xlink:type="simple"><text fill="#0000FF" font-family="sans-serif" font-size="14" lengthAdjust="spacing" text-decoration="underline" textLength="47.8994" x="697.6384" y="175.0251">Geraet</text></a><text fill="#000000" font-family="sans-serif" font-size="10" lengthAdjust="spacing" textLength="76.6162" x="683.28" y="187.6091">bo4e.bo.geraet</text></g><!--class Preisblatt--><g class="entity" data-entity="Preisblatt" data-source-line="12" data-uid="ent0007" id="entity_Preisblatt"><rect fill="#F1F1F1" height="37.9375" rx="2.5" ry="2.5" style="stroke:#181818;stroke-width:0.5;" width="123.499" x="646.84" y="230.03"/><ellipse cx="661.84" cy="248.9987" fill="#ADD1B2" rx="11" ry="11" style="stroke:#181818;stroke-width:1;"/><path d="M664.8088,254.6394 Q664.2306,254.9362 663.59,255.0769 Q662.9494,255.2331 662.2463,255.2331 Q659.7463,255.2331 658.4181,253.5925 Q657.1056,251.9362 657.1056,248.8112 Q657.1056,245.6862 658.4181,244.03 Q659.7463,242.3737 662.2463,242.3737 Q662.9494,242.3737 663.59,242.53 Q664.2463,242.6862 664.8088,242.9831 L664.8088,245.7019 Q664.1838,245.1237 663.59,244.8581 Q662.9963,244.5769 662.3713,244.5769 Q661.0275,244.5769 660.34,245.655 Q659.6525,246.7175 659.6525,248.8112 Q659.6525,250.905 660.34,251.9831 Q661.0275,253.0456 662.3713,253.0456 Q662.9963,253.0456 663.59,252.78 Q664.1838,252.4987 664.8088,251.9206 L664.8088,254.6394 Z " fill="#000000"/><a href="file:////home/runner/work/BO4E-python/BO4E-python/docs/../.tox/docs/tmp/html/api/bo4e.bo.html#bo4e.bo.preisblatt.Preisblatt" target="_top" title="file:////home/runner/work/BO4E-python/BO4E-python/docs/../.tox/docs/tmp/html/api/bo4e.bo.html#bo4e.bo.preisblatt.Preisblatt" xlink:actuate="onRequest" xlink:href="file:////home/runner/work/BO4E-python/BO4E-python/docs/../.tox/docs/tmp/html/api/bo4e.bo.html#bo4e.bo.preisblatt.Preisblatt" xlink:show="new" xlink:title="file:////home/runner/work/BO4E-python/BO4E-python/docs/../.tox/docs/tmp/html/api/bo4e.bo.html#bo4e.bo.preisblatt.Preisblatt" xlink:type="simple"><text fill="#0000FF" font-family="sans-serif" font-size="14" lengthAdjust="spacing" text-decoration="underline" textLength="66.3291" x="688.425" y="248.0251">Preisblatt</text></a><text fill="#000000" font-family="sans-serif" font-size="10" lengthAdjust="spacing" textLength="91.499" x="675.84" y="260.6091">bo4e.bo.preisblatt</text></g><!--class Bilanzierungsmethode--><g class="entity" data-entity="Bilanzierungsmethode" data-source-line="15" data-uid="ent0009" id="entity_Bilanzierungsmethode"><rect fill="#F1F1F1" height="37.9375" rx="2.5" ry="2.5" style="stroke:#181818;stroke-width:0.5;" width="203.5723" x="606.8" y="343.03"/><ellipse cx="621.8" cy="361.9988" fill="#ADD1B2" rx="11" ry="11" style="stroke:#181818;stroke-width:1;"/><path d="M624.7688,367.6394 Q624.1906,367.9363 623.55,368.0769 Q622.9094,368.2331 622.2063,368.2331 Q619.7063,368.2331 618.3781,366.5925 Q617.0656,364.9363 617.0656,361.8113 Q617.0656,358.6863 618.3781,357.03 Q619.7063,355.3738 622.2063,355.3738 Q622.9094,355.3738 623.55,355.53 Q624.2063,355.6863 624.7688,355.9831 L624.7688,358.7019 Q624.1438,358.1238 623.55,357.8581 Q622.9563,357.5769 622.3313,357.5769 Q620.9875,357.5769 620.3,358.655 Q619.6125,359.7175 619.6125,361.8113 Q619.6125,363.905 620.3,364.9831 Q620.9875,366.0456 622.3313,366.0456 Q622.9563,366.0456 623.55,365.78 Q624.1438,365.4988 624.7688,364.9206 L624.7688,367.6394 Z " fill="#000000"/><a href="file:////home/runner/work/BO4E-python/BO4E-python/docs/../.tox/docs/tmp/html/api/bo4e.enum.html#bo4e.enum.bilanzierungsmethode.Bilanzierungsmethode" target="_top" title="file:////home/runner/work/BO4E-python/BO4E-python/docs/../.tox/docs/tmp/html/api/bo4e.enum.html#bo4e.enum.bilanzierungsmethode.Bilanzierungsmethode" xlink:actuate="onRequest" xlink:href="file:////home/runner/work/BO4E-python/BO4E-python/docs/../.tox/docs/tmp/html/api/bo4e.enum.html#bo4e.enum.bilanzierungsmethode.Bilanzierungsmethode" xlink:show="new" xlink:title="file:////home/runner/work/BO4E-python/BO4E-python/docs/../.tox/docs/tmp/html/api/bo4e.enum.html#bo4e.enum.bilanzierungsmethode.Bilanzierungsmethode" xlink:type="simple"><text fill="#0000FF" font-family="sans-serif" font-size="14" lengthAdjust="spacing" text-decoration="underline" textLength="157.0488" x="643.0617" y="361.0251">Bilanzierungsmethode</text></a><text fill="#000000" font-family="sans-serif" font-size="10" lengthAdjust="spacing" textLength="171.5723" x="635.8" y="373.6091">bo4e.enum.bilanzierungsmethode</text></g><!--class Dienstleistungstyp--><g class="entity" data-entity="Dienstleistungstyp" data-source-line="16" data-uid="ent0010" id="entity_Dienstleistungstyp"><rect fill="#F1F1F1" height="37.9375" rx="2.5" ry="2.5" style="stroke:#181818;stroke-width:0.5;" width="183.9141" x="616.63" y="416.03"/><ellipse cx="631.63" cy="434.9988" fill="#ADD1B2" rx="11" ry="11" style="stroke:#181818;stroke-width:1;"/><path d="M634.5988,440.6394 Q634.0206,440.9363 633.38,441.0769 Q632.7394,441.2331 632.0363,441.2331 Q629.5363,441.2331 628.2081,439.5925 Q626.8956,437.9363 626.8956,434.8113 Q626.8956,431.6863 628.2081,430.03 Q629.5363,428.3738 632.0363,428.3738 Q632.7394,428.3738 633.38,428.53 Q634.0363,428.6863 634.5988,428.9831 L634.5988,431.7019 Q633.9738,431.1238 633.38,430.8581 Q632.7863,430.5769 632.1613,430.5769 Q630.8175,430.5769 630.13,431.655 Q629.4425,432.7175 629.4425,434.8113 Q629.4425,436.905 630.13,437.9831 Q630.8175,439.0456 632.1613,439.0456 Q632.7863,439.0456 633.38,438.78 Q633.9738,438.4988 634.5988,437.9206 L634.5988,440.6394 Z " fill="#000000"/><a href="file:////home/runner/work/BO4E-python/BO4E-python/docs/../.tox/docs/tmp/html/api/bo4e.enum.html#bo4e.enum.dienstleistungstyp.Dienstleistungstyp" target="_top" title="file:////home/runner/work/BO4E-python/BO4E-python/docs/../.tox/docs/tmp/html/api/bo4e.enum.html#bo4e.enum.dienstleistungstyp.Dienstleistungstyp" xlink:actuate="onRequest" xlink:href="file:////home/runner/work/BO4E-python/BO4E-python/docs/../.tox/docs/tmp/html/api/bo4e.enum.html#bo4e.enum.dienstleistungstyp.Dienstleistungstyp" xlink:show="new" xlink:title="file:////home/runner/work/BO4E-python/BO4E-python/docs/../.tox/docs/tmp/html/api/bo4e.enum.html#bo4e.enum.dienstleistungstyp.Dienstleistungstyp" xlink:type="simple"><text fill="#0000FF" font-family="sans-serif" font-size="14" lengthAdjust="spacing" text-decoration="underline" textLength="130.7031" x="656.2355" y="434.0251">Dienstleistungstyp</text></a><text fill="#000000" font-family="sans-serif" font-size="10" lengthAdjust="spacing" textLength="151.9141" x="645.63" y="446.6091">bo4e.enum.dienstleistungstyp</text></g><!--class Netzebene--><g class="entity" data-entity="Netzebene" data-source-line="17" data-uid="ent0011" id="entity_Netzebene"><rect fill="#F1F1F1" height="37.9375" rx="2.5" ry="2.5" style="stroke:#181818;stroke-width:0.5;" width="144.71" x="636.23" y="489.03"/><ellipse cx="651.23" cy="507.9988" fill="#ADD1B2" rx="11" ry="11" style="stroke:#181818;stroke-width:1;"/><path d="M654.1988,513.6394 Q653.6206,513.9363 652.98,514.0769 Q652.3394,514.2331 651.6363,514.2331 Q649.1363,514.2331 647.8081,512.5925 Q646.4956,510.9363 646.4956,507.8113 Q646.4956,504.6863 647.8081,503.03 Q649.1363,501.3738 651.6363,501.3738 Q652.3394,501.3738 652.98,501.53 Q653.6363,501.6863 654.1988,501.9831 L654.1988,504.7019 Q653.5738,504.1238 652.98,503.8581 Q652.3863,503.5769 651.7613,503.5769 Q650.4175,503.5769 649.73,504.655 Q649.0425,505.7175 649.0425,507.8113 Q649.0425,509.905 649.73,510.9831 Q650.4175,512.0456 651.7613,512.0456 Q652.3863,512.0456 652.98,511.78 Q653.5738,511.4988 654.1988,510.9206 L654.1988,513.6394 Z " fill="#000000"/><a href="file:////home/runner/work/BO4E-python/BO4E-python/docs/../.tox/docs/tmp/html/api/bo4e.enum.html#bo4e.enum.netzebene.Netzebene" target="_top" title="file:////home/runner/work/BO4E-python/BO4E-python/docs/../.tox/docs/tmp/html/api/bo4e.enum.html#bo4e.enum.netzebene.Netzebene" xlink:actuate="onRequest" xlink:href="file:////home/runner/work/BO4E-python/BO4E-python/docs/../.tox/docs/tmp/html/api/bo4e.enum.html#bo4e.enum.netzebene.Netzebene" xlink:show="new" xlink:title="file:////home/runner/work/BO4E-python/BO4E-python/docs/../.tox/docs/tmp/html/api/bo4e.enum.html#bo4e.enum.netzebene.Netzebene" xlink:type="simple"><text fill="#0000FF" font-family="sans-serif" font-size="14" lengthAdjust="spacing" text-decoration="underline" textLength="75.5234" x="683.8233" y="507.0251">Netzebene</text></a><text fill="#000000" font-family="sans-serif" font-size="10" lengthAdjust="spacing" textLength="112.71" x="665.23" y="519.6091">bo4e.enum.netzebene</text></g><!--class PreisblattMessung--><g class="entity" data-entity="PreisblattMessung" data-source-line="3" data-uid="ent0002" id="entity_PreisblattMessung"><rect fill="#F1F1F1" height="94.8281" rx="2.5" ry="2.5" style="stroke:#181818;stroke-width:0.5;" width="344.8008" x="7" y="284.59"/><ellipse cx="106.7324" cy="303.5588" fill="#ADD1B2" rx="11" ry="11" style="stroke:#181818;stroke-width:1;"/><path d="M109.7012,309.1994 Q109.123,309.4963 108.4824,309.6369 Q107.8418,309.7931 107.1387,309.7931 Q104.6387,309.7931 103.3105,308.1525 Q101.998,306.4963 101.998,303.3713 Q101.998,300.2463 103.3105,298.59 Q104.6387,296.9338 107.1387,296.9338 Q107.8418,296.9338 108.4824,297.09 Q109.1387,297.2463 109.7012,297.5431 L109.7012,300.2619 Q109.0762,299.6838 108.4824,299.4181 Q107.8887,299.1369 107.2637,299.1369 Q105.9199,299.1369 105.2324,300.215 Q104.5449,301.2775 104.5449,303.3713 Q104.5449,305.465 105.2324,306.5431 Q105.9199,307.6056 107.2637,307.6056 Q107.8887,307.6056 108.4824,307.34 Q109.0762,307.0588 109.7012,306.4806 L109.7012,309.1994 Z " fill="#000000"/><a href="file:////home/runner/work/BO4E-python/BO4E-python/docs/../.tox/docs/tmp/html/api/bo4e.bo.html#bo4e.bo.preisblattmessung.PreisblattMessung" target="_top" title="file:////home/runner/work/BO4E-python/BO4E-python/docs/../.tox/docs/tmp/html/api/bo4e.bo.html#bo4e.bo.preisblattmessung.PreisblattMessung" xlink:actuate="onRequest" xlink:href="file:////home/runner/work/BO4E-python/BO4E-python/docs/../.tox/docs/tmp/html/api/bo4e.bo.html#bo4e.bo.preisblattmessung.PreisblattMessung" xlink:show="new" xlink:title="file:////home/runner/work/BO4E-python/BO4E-python/docs/../.tox/docs/tmp/html/api/bo4e.bo.html#bo4e.bo.preisblattmessung.PreisblattMessung" xlink:type="simple"><text fill="#0000FF" font-family="sans-serif" font-size="14" lengthAdjust="spacing" text-decoration="underline" textLength="128.2422" x="131.5293" y="302.5851">PreisblattMessung</text></a><text fill="#000000" font-family="sans-serif" font-size="10" lengthAdjust="spacing" textLength="136.8359" x="127.2324" y="315.1691">bo4e.bo.preisblattmessung</text><line style="stroke:#181818;stroke-width:0.5;" x1="8" x2="350.8008" y1="322.5275" y2="322.5275"/><text fill="#000000" font-family="sans-serif" font-size="14" lengthAdjust="spacing" textLength="332.8008" x="13" y="339.5226">_version : str [0..1] = 202501.0.0+gb8cbd220d</text><text fill="#000000" font-family="sans-serif" font-size="14" lengthAdjust="spacing" textLength="318.5752" x="13" y="355.8195">zusatzAttribute : ZusatzAttribut [0..*] = None</text><text fill="#000000" font-family="sans-serif" font-size="14" lengthAdjust="spacing" textLength="151.1768" x="13" y="372.1164">_id : str [0..1] = None</text></g><!--link PreisblattMessung to Preisblatt--><g class="link" data-entity-1="PreisblattMessung" data-entity-2="Preisblatt" data-source-line="20" data-uid="lnk12" id="link_PreisblattMessung_Preisblatt"><path codeLine="20" d="M352.29,304.94 C453.4,289.02 557.299,272.659 628.829,261.399" fill="none" id="PreisblattMessung-to-Preisblatt" style="stroke:#181818;stroke-width:1;"/><polygon fill="none" points="646.61,258.6,627.8959,255.472,629.762,267.326,646.61,258.6" style="stroke:#181818;stroke-width:1;"/></g><!--link PreisblattMessung to Bilanzierungsmethode--><g class="link" data-entity-1="PreisblattMessung" data-entity-2="Bilanzierungsmethode" data-source-line="21" data-uid="lnk13" id="link_PreisblattMessung_Bilanzierungsmethode"><path codeLine="21" d="M352.29,341.78 C436.42,346.57 522.8194,351.4882 594.6894,355.5782" fill="none" id="PreisblattMessung-to-Bilanzierungsmethode" style="stroke:#181818;stroke-width:1;"/><polygon fill="#181818" points="606.67,356.26,600.907,351.9256,594.6894,355.5782,600.4524,359.9126,606.67,356.26" style="stroke:#181818;stroke-width:1;"/><text fill="#000000" font-family="sans-serif" font-size="13" lengthAdjust="spacing" textLength="145.1646" x="393.8" y="341.0669">bilanzierungsmethode</text><text fill="#000000" font-family="sans-serif" font-size="13" lengthAdjust="spacing" textLength="24.8066" x="573.9792" y="368.4668">0..1</text></g><!--link PreisblattMessung to Netzebene--><g class="link" data-entity-1="PreisblattMessung" data-entity-2="Netzebene" data-source-line="22" data-uid="lnk14" id="link_PreisblattMessung_Netzebene"><path codeLine="22" d="M262.07,379.71 C297.88,399.05 340.98,420.26 381.8,435 C466.71,465.67 557.0556,484.0532 624.0656,495.3032" fill="none" id="PreisblattMessung-to-Netzebene" style="stroke:#181818;stroke-width:1;"/><polygon fill="#181818" points="635.9,497.29,630.6451,492.3518,624.0656,495.3032,629.3205,500.2414,635.9,497.29" style="stroke:#181818;stroke-width:1;"/><text fill="#000000" font-family="sans-serif" font-size="13" lengthAdjust="spacing" textLength="74.6929" x="429.3" y="431.0669">messebene</text><text fill="#000000" font-family="sans-serif" font-size="13" lengthAdjust="spacing" textLength="24.8066" x="603.2085" y="509.0328">0..1</text></g><!--link PreisblattMessung to Zaehler--><g class="link" data-entity-1="PreisblattMessung" data-entity-2="Zaehler" data-source-line="23" data-uid="lnk15" id="link_PreisblattMessung_Zaehler"><path codeLine="23" d="M237.57,284.26 C276.25,253.97 329.61,215.93 381.8,191 C455.67,155.71 479.73,161.22 558.8,140 C589.52,131.76 612.3223,125.9958 640.3423,119.1558" fill="none" id="PreisblattMessung-to-Zaehler" style="stroke:#181818;stroke-width:1;"/><polygon fill="#181818" points="652,116.31,645.2226,113.847,640.3423,119.1558,647.1197,121.6188,652,116.31" style="stroke:#181818;stroke-width:1;"/><text fill="#000000" font-family="sans-serif" font-size="13" lengthAdjust="spacing" textLength="47.9819" x="442.8" y="139.0669">zaehler</text><text fill="#000000" font-family="sans-serif" font-size="13" lengthAdjust="spacing" textLength="24.8066" x="619.264" y="131.0518">0..1</text></g><!--link PreisblattMessung to Dienstleistungstyp--><g class="link" data-entity-1="PreisblattMessung" data-entity-2="Dienstleistungstyp" data-source-line="24" data-uid="lnk16" id="link_PreisblattMessung_Dienstleistungstyp"><path codeLine="24" d="M352.22,371.86 C362.22,373.99 372.13,376.05 381.8,378 C460.74,393.91 539.1313,407.5392 604.5813,418.3792" fill="none" id="PreisblattMessung-to-Dienstleistungstyp" style="stroke:#181818;stroke-width:1;"/><polygon fill="#181818" points="616.42,420.34,611.1542,415.4134,604.5813,418.3792,609.8471,423.3059,616.42,420.34" style="stroke:#181818;stroke-width:1;"/><text fill="#000000" font-family="sans-serif" font-size="13" lengthAdjust="spacing" textLength="167.0957" x="382.8" y="374.0669">inklusiveDienstleistungen</text><text fill="#000000" font-family="sans-serif" font-size="13" lengthAdjust="spacing" textLength="23.0356" x="585.4844" y="431.8639">0..*</text></g><!--link PreisblattMessung to Geraet--><g class="link" data-entity-1="PreisblattMessung" data-entity-2="Geraet" data-source-line="25" data-uid="lnk17" id="link_PreisblattMessung_Geraet"><path codeLine="25" d="M311.83,284.09 C335.04,276.08 359.06,268.08 381.8,261 C459.62,236.77 479.91,233.5 558.8,213 C590.23,204.83 613.837,198.9149 642.147,191.9549" fill="none" id="PreisblattMessung-to-Geraet" style="stroke:#181818;stroke-width:1;"/><polygon fill="#181818" points="653.8,189.09,647.0185,186.6381,642.147,191.9549,648.9285,194.4068,653.8,189.09" style="stroke:#181818;stroke-width:1;"/><text fill="#000000" font-family="sans-serif" font-size="13" lengthAdjust="spacing" textLength="109.7827" x="411.8" y="212.0669">inklusiveGeraete</text><text fill="#000000" font-family="sans-serif" font-size="13" lengthAdjust="spacing" textLength="23.0356" x="623.1375" y="203.5454">0..*</text></g><!--SRC=[nLLDSvim43s7Nx5Ztzonm6xIPfWsC_6aqrFJdkDwEWBMe0b8Z2IIXZR_lUB360UvzQM4YxIhtQTzovEKubQ35Y1Pd6Y8cCHGCy4T9qofKZ1PhxSiHTyrNo8oT6N1EKhtKSXxT_Nr_DCyVzA9u0VpI8JA9SGbMlni39tbRgAprAKvSmDnZYGGf79CTqOkaQaWfLfdg5J1O_AjytnfF33mR3RV-GV5IlGNtjLHf0bGDSo5NyxPZmUKoh057vIMiFO8MMpW8oozvOMt81xntiJ1PHX4owKNEMTbeQWkhxMMB2Wqcgox0qyDCAi0RWL70y-YbyZrmhFZS6gAosc8_xt3q1gRJTs7reBfwjtD- -lBgWiZ_-cIOfAY97VD2Ere_PTjR5rv6pTwlJ5AYffyhWTe1cknJM1TQnCrUgbxwVTEJq_w_pWlBmwAqUa8CaLUP3sXLcPVgfKDqsWHlhqOGwnTDTEz6R2KyfAXsIDM6Hgi2CdAuWIRSzZpew0rQnl6gz2E67AbKwC6NPMYdt9oCt31q7M4y12kfZlCVnMo77M90N8ajxiPTBCZZBgScaWNNLtlbiThFlzzjRjzUyksK1CxWqdrP4psXy2kE1ziGZeTTC_MX-gvR1YSacvOx6vm7zfx-g-9i_w-5YNvmFXzMYZsW8Uho4_2DGMrTtGFgV6WuoJCT2l3B30llgCIyGWMp2t3D59_0000]--></g></svg>