<svg xmlns="http://www.w3.org/2000/svg" xmlns:xlink="http://www.w3.org/1999/xlink" contentStyleType="text/css" data-diagram-type="CLASS" height="501px" preserveAspectRatio="none" style="width:857px;height:501px;background:#FFFFFF;" version="1.1" viewBox="0 0 857 501" width="857px" zoomAndPan="magnify"><defs/><g><!--cluster bo4e--><g class="cluster" data-entity="bo4e" data-source-line="10" data-uid="ent0005" id="cluster_bo4e"><path d="M569.36,6 L609.236,6 A3.75,3.75 0 0 1 611.736,8.5 L618.736,28.2969 L847.93,28.2969 A2.5,2.5 0 0 1 850.43,30.7969 L850.43,491.5 A2.5,2.5 0 0 1 847.93,494 L569.36,494 A2.5,2.5 0 0 1 566.86,491.5 L566.86,8.5 A2.5,2.5 0 0 1 569.36,6" fill="none" style="stroke:#000000;stroke-width:1.5;"/><line style="stroke:#000000;stroke-width:1.5;" x1="566.86" x2="618.736" y1="28.2969" y2="28.2969"/><text fill="#000000" font-family="sans-serif" font-size="14" font-weight="bold" lengthAdjust="spacing" textLength="38.876" x="570.86" y="20.9951">bo4e</text></g><!--cluster bo--><g class="cluster" data-entity="bo" data-source-line="9" data-uid="ent0003" id="cluster_bo"><path d="M633.4,49 L698.234,49 A3.75,3.75 0 0 1 700.734,51.5 L707.734,71.2969 L783.9,71.2969 A2.5,2.5 0 0 1 786.4,73.7969 L786.4,208.5 A2.5,2.5 0 0 1 783.9,211 L633.4,211 A2.5,2.5 0 0 1 630.9,208.5 L630.9,51.5 A2.5,2.5 0 0 1 633.4,49" fill="#B6D7A8" style="stroke:#000000;stroke-width:1.5;"/><line style="stroke:#000000;stroke-width:1.5;" x1="630.9" x2="707.734" y1="71.2969" y2="71.2969"/><a href="file:////home/runner/work/BO4E-python/BO4E-python/docs/../.tox/docs/tmp/html/api/bo4e.bo.html" target="_top" title="file:////home/runner/work/BO4E-python/BO4E-python/docs/../.tox/docs/tmp/html/api/bo4e.bo.html" xlink:actuate="onRequest" xlink:href="file:////home/runner/work/BO4E-python/BO4E-python/docs/../.tox/docs/tmp/html/api/bo4e.bo.html" xlink:show="new" xlink:title="file:////home/runner/work/BO4E-python/BO4E-python/docs/../.tox/docs/tmp/html/api/bo4e.bo.html" xlink:type="simple"><text fill="#0000FF" font-family="sans-serif" font-size="14" font-weight="bold" lengthAdjust="spacing" text-decoration="underline" textLength="63.834" x="634.9" y="63.9951">bo4e.bo</text></a></g><!--cluster enum--><g class="cluster" data-entity="enum" data-source-line="13" data-uid="ent0007" id="cluster_enum"><path d="M593.36,235 L682.5709,235 A3.75,3.75 0 0 1 685.0709,237.5 L692.0709,257.2969 L823.93,257.2969 A2.5,2.5 0 0 1 826.43,259.7969 L826.43,467.5 A2.5,2.5 0 0 1 823.93,470 L593.36,470 A2.5,2.5 0 0 1 590.86,467.5 L590.86,237.5 A2.5,2.5 0 0 1 593.36,235" fill="#D1C358" style="stroke:#000000;stroke-width:1.5;"/><line style="stroke:#000000;stroke-width:1.5;" x1="590.86" x2="692.0709" y1="257.2969" y2="257.2969"/><a href="file:////home/runner/work/BO4E-python/BO4E-python/docs/../.tox/docs/tmp/html/api/bo4e.enum.html" target="_top" title="file:////home/runner/work/BO4E-python/BO4E-python/docs/../.tox/docs/tmp/html/api/bo4e.enum.html" xlink:actuate="onRequest" xlink:href="file:////home/runner/work/BO4E-python/BO4E-python/docs/../.tox/docs/tmp/html/api/bo4e.enum.html" xlink:show="new" xlink:title="file:////home/runner/work/BO4E-python/BO4E-python/docs/../.tox/docs/tmp/html/api/bo4e.enum.html" xlink:type="simple"><text fill="#0000FF" font-family="sans-serif" font-size="14" font-weight="bold" lengthAdjust="spacing" text-decoration="underline" textLength="88.2109" x="594.86" y="249.9951">bo4e.enum</text></a></g><!--class Geraet--><g class="entity" data-entity="Geraet" data-source-line="10" data-uid="ent0004" id="entity_Geraet"><rect fill="#F1F1F1" height="37.9375" rx="2.5" ry="2.5" style="stroke:#181818;stroke-width:0.5;" width="108.6162" x="654.34" y="84.03"/><ellipse cx="669.34" cy="102.9987" fill="#ADD1B2" rx="11" ry="11" style="stroke:#181818;stroke-width:1;"/><path d="M672.3088,108.6394 Q671.7306,108.9362 671.09,109.0769 Q670.4494,109.2331 669.7463,109.2331 Q667.2463,109.2331 665.9181,107.5925 Q664.6056,105.9362 664.6056,102.8112 Q664.6056,99.6862 665.9181,98.03 Q667.2463,96.3737 669.7463,96.3737 Q670.4494,96.3737 671.09,96.53 Q671.7463,96.6862 672.3088,96.9831 L672.3088,99.7019 Q671.6838,99.1237 671.09,98.8581 Q670.4963,98.5769 669.8713,98.5769 Q668.5275,98.5769 667.84,99.655 Q667.1525,100.7175 667.1525,102.8112 Q667.1525,104.905 667.84,105.9831 Q668.5275,107.0456 669.8713,107.0456 Q670.4963,107.0456 671.09,106.78 Q671.6838,106.4987 672.3088,105.9206 L672.3088,108.6394 Z " fill="#000000"/><a href="file:////home/runner/work/BO4E-python/BO4E-python/docs/../.tox/docs/tmp/html/api/bo4e.bo.html#bo4e.bo.geraet.Geraet" target="_top" title="file:////home/runner/work/BO4E-python/BO4E-python/docs/../.tox/docs/tmp/html/api/bo4e.bo.html#bo4e.bo.geraet.Geraet" xlink:actuate="onRequest" xlink:href="file:////home/runner/work/BO4E-python/BO4E-python/docs/../.tox/docs/tmp/html/api/bo4e.bo.html#bo4e.bo.geraet.Geraet" xlink:show="new" xlink:title="file:////home/runner/work/BO4E-python/BO4E-python/docs/../.tox/docs/tmp/html/api/bo4e.bo.html#bo4e.bo.geraet.Geraet" xlink:type="simple"><text fill="#0000FF" font-family="sans-serif" font-size="14" lengthAdjust="spacing" text-decoration="underline" textLength="47.8994" x="697.6984" y="102.0251">Geraet</text></a><text fill="#000000" font-family="sans-serif" font-size="10" lengthAdjust="spacing" textLength="76.6162" x="683.34" y="114.6091">bo4e.bo.geraet</text></g><!--class Preisblatt--><g class="entity" data-entity="Preisblatt" data-source-line="11" data-uid="ent0006" id="entity_Preisblatt"><rect fill="#F1F1F1" height="37.9375" rx="2.5" ry="2.5" style="stroke:#181818;stroke-width:0.5;" width="123.499" x="646.9" y="157.03"/><ellipse cx="661.9" cy="175.9987" fill="#ADD1B2" rx="11" ry="11" style="stroke:#181818;stroke-width:1;"/><path d="M664.8688,181.6394 Q664.2906,181.9362 663.65,182.0769 Q663.0094,182.2331 662.3063,182.2331 Q659.8063,182.2331 658.4781,180.5925 Q657.1656,178.9362 657.1656,175.8112 Q657.1656,172.6862 658.4781,171.03 Q659.8063,169.3737 662.3063,169.3737 Q663.0094,169.3737 663.65,169.53 Q664.3063,169.6862 664.8688,169.9831 L664.8688,172.7019 Q664.2438,172.1237 663.65,171.8581 Q663.0563,171.5769 662.4313,171.5769 Q661.0875,171.5769 660.4,172.655 Q659.7125,173.7175 659.7125,175.8112 Q659.7125,177.905 660.4,178.9831 Q661.0875,180.0456 662.4313,180.0456 Q663.0563,180.0456 663.65,179.78 Q664.2438,179.4987 664.8688,178.9206 L664.8688,181.6394 Z " fill="#000000"/><a href="file:////home/runner/work/BO4E-python/BO4E-python/docs/../.tox/docs/tmp/html/api/bo4e.bo.html#bo4e.bo.preisblatt.Preisblatt" target="_top" title="file:////home/runner/work/BO4E-python/BO4E-python/docs/../.tox/docs/tmp/html/api/bo4e.bo.html#bo4e.bo.preisblatt.Preisblatt" xlink:actuate="onRequest" xlink:href="file:////home/runner/work/BO4E-python/BO4E-python/docs/../.tox/docs/tmp/html/api/bo4e.bo.html#bo4e.bo.preisblatt.Preisblatt" xlink:show="new" xlink:title="file:////home/runner/work/BO4E-python/BO4E-python/docs/../.tox/docs/tmp/html/api/bo4e.bo.html#bo4e.bo.preisblatt.Preisblatt" xlink:type="simple"><text fill="#0000FF" font-family="sans-serif" font-size="14" lengthAdjust="spacing" text-decoration="underline" textLength="66.3291" x="688.485" y="175.0251">Preisblatt</text></a><text fill="#000000" font-family="sans-serif" font-size="10" lengthAdjust="spacing" textLength="91.499" x="675.9" y="187.6091">bo4e.bo.preisblatt</text></g><!--class Netzebene--><g class="entity" data-entity="Netzebene" data-source-line="14" data-uid="ent0008" id="entity_Netzebene"><rect fill="#F1F1F1" height="37.9375" rx="2.5" ry="2.5" style="stroke:#181818;stroke-width:0.5;" width="144.71" x="636.29" y="270.03"/><ellipse cx="651.29" cy="288.9988" fill="#ADD1B2" rx="11" ry="11" style="stroke:#181818;stroke-width:1;"/><path d="M654.2588,294.6394 Q653.6806,294.9363 653.04,295.0769 Q652.3994,295.2331 651.6963,295.2331 Q649.1963,295.2331 647.8681,293.5925 Q646.5556,291.9363 646.5556,288.8113 Q646.5556,285.6863 647.8681,284.03 Q649.1963,282.3738 651.6963,282.3738 Q652.3994,282.3738 653.04,282.53 Q653.6963,282.6863 654.2588,282.9831 L654.2588,285.7019 Q653.6338,285.1238 653.04,284.8581 Q652.4463,284.5769 651.8213,284.5769 Q650.4775,284.5769 649.79,285.655 Q649.1025,286.7175 649.1025,288.8113 Q649.1025,290.905 649.79,291.9831 Q650.4775,293.0456 651.8213,293.0456 Q652.4463,293.0456 653.04,292.78 Q653.6338,292.4988 654.2588,291.9206 L654.2588,294.6394 Z " fill="#000000"/><a href="file:////home/runner/work/BO4E-python/BO4E-python/docs/../.tox/docs/tmp/html/api/bo4e.enum.html#bo4e.enum.netzebene.Netzebene" target="_top" title="file:////home/runner/work/BO4E-python/BO4E-python/docs/../.tox/docs/tmp/html/api/bo4e.enum.html#bo4e.enum.netzebene.Netzebene" xlink:actuate="onRequest" xlink:href="file:////home/runner/work/BO4E-python/BO4E-python/docs/../.tox/docs/tmp/html/api/bo4e.enum.html#bo4e.enum.netzebene.Netzebene" xlink:show="new" xlink:title="file:////home/runner/work/BO4E-python/BO4E-python/docs/../.tox/docs/tmp/html/api/bo4e.enum.html#bo4e.enum.netzebene.Netzebene" xlink:type="simple"><text fill="#0000FF" font-family="sans-serif" font-size="14" lengthAdjust="spacing" text-decoration="underline" textLength="75.5234" x="683.8833" y="288.0251">Netzebene</text></a><text fill="#000000" font-family="sans-serif" font-size="10" lengthAdjust="spacing" textLength="112.71" x="665.29" y="300.6091">bo4e.enum.netzebene</text></g><!--class Dienstleistungstyp--><g class="entity" data-entity="Dienstleistungstyp" data-source-line="15" data-uid="ent0009" id="entity_Dienstleistungstyp"><rect fill="#F1F1F1" height="37.9375" rx="2.5" ry="2.5" style="stroke:#181818;stroke-width:0.5;" width="183.9141" x="616.69" y="343.03"/><ellipse cx="631.69" cy="361.9988" fill="#ADD1B2" rx="11" ry="11" style="stroke:#181818;stroke-width:1;"/><path d="M634.6588,367.6394 Q634.0806,367.9363 633.44,368.0769 Q632.7994,368.2331 632.0963,368.2331 Q629.5963,368.2331 628.2681,366.5925 Q626.9556,364.9363 626.9556,361.8113 Q626.9556,358.6863 628.2681,357.03 Q629.5963,355.3738 632.0963,355.3738 Q632.7994,355.3738 633.44,355.53 Q634.0963,355.6863 634.6588,355.9831 L634.6588,358.7019 Q634.0338,358.1238 633.44,357.8581 Q632.8463,357.5769 632.2213,357.5769 Q630.8775,357.5769 630.19,358.655 Q629.5025,359.7175 629.5025,361.8113 Q629.5025,363.905 630.19,364.9831 Q630.8775,366.0456 632.2213,366.0456 Q632.8463,366.0456 633.44,365.78 Q634.0338,365.4988 634.6588,364.9206 L634.6588,367.6394 Z " fill="#000000"/><a href="file:////home/runner/work/BO4E-python/BO4E-python/docs/../.tox/docs/tmp/html/api/bo4e.enum.html#bo4e.enum.dienstleistungstyp.Dienstleistungstyp" target="_top" title="file:////home/runner/work/BO4E-python/BO4E-python/docs/../.tox/docs/tmp/html/api/bo4e.enum.html#bo4e.enum.dienstleistungstyp.Dienstleistungstyp" xlink:actuate="onRequest" xlink:href="file:////home/runner/work/BO4E-python/BO4E-python/docs/../.tox/docs/tmp/html/api/bo4e.enum.html#bo4e.enum.dienstleistungstyp.Dienstleistungstyp" xlink:show="new" xlink:title="file:////home/runner/work/BO4E-python/BO4E-python/docs/../.tox/docs/tmp/html/api/bo4e.enum.html#bo4e.enum.dienstleistungstyp.Dienstleistungstyp" xlink:type="simple"><text fill="#0000FF" font-family="sans-serif" font-size="14" lengthAdjust="spacing" text-decoration="underline" textLength="130.7031" x="656.2955" y="361.0251">Dienstleistungstyp</text></a><text fill="#000000" font-family="sans-serif" font-size="10" lengthAdjust="spacing" textLength="151.9141" x="645.69" y="373.6091">bo4e.enum.dienstleistungstyp</text></g><!--class Bilanzierungsmethode--><g class="entity" data-entity="Bilanzierungsmethode" data-source-line="16" data-uid="ent0010" id="entity_Bilanzierungsmethode"><rect fill="#F1F1F1" height="37.9375" rx="2.5" ry="2.5" style="stroke:#181818;stroke-width:0.5;" width="203.5723" x="606.86" y="416.03"/><ellipse cx="621.86" cy="434.9988" fill="#ADD1B2" rx="11" ry="11" style="stroke:#181818;stroke-width:1;"/><path d="M624.8288,440.6394 Q624.2506,440.9363 623.61,441.0769 Q622.9694,441.2331 622.2663,441.2331 Q619.7663,441.2331 618.4381,439.5925 Q617.1256,437.9363 617.1256,434.8113 Q617.1256,431.6863 618.4381,430.03 Q619.7663,428.3738 622.2663,428.3738 Q622.9694,428.3738 623.61,428.53 Q624.2663,428.6863 624.8288,428.9831 L624.8288,431.7019 Q624.2038,431.1238 623.61,430.8581 Q623.0163,430.5769 622.3913,430.5769 Q621.0475,430.5769 620.36,431.655 Q619.6725,432.7175 619.6725,434.8113 Q619.6725,436.905 620.36,437.9831 Q621.0475,439.0456 622.3913,439.0456 Q623.0163,439.0456 623.61,438.78 Q624.2038,438.4988 624.8288,437.9206 L624.8288,440.6394 Z " fill="#000000"/><a href="file:////home/runner/work/BO4E-python/BO4E-python/docs/../.tox/docs/tmp/html/api/bo4e.enum.html#bo4e.enum.bilanzierungsmethode.Bilanzierungsmethode" target="_top" title="file:////home/runner/work/BO4E-python/BO4E-python/docs/../.tox/docs/tmp/html/api/bo4e.enum.html#bo4e.enum.bilanzierungsmethode.Bilanzierungsmethode" xlink:actuate="onRequest" xlink:href="file:////home/runner/work/BO4E-python/BO4E-python/docs/../.tox/docs/tmp/html/api/bo4e.enum.html#bo4e.enum.bilanzierungsmethode.Bilanzierungsmethode" xlink:show="new" xlink:title="file:////home/runner/work/BO4E-python/BO4E-python/docs/../.tox/docs/tmp/html/api/bo4e.enum.html#bo4e.enum.bilanzierungsmethode.Bilanzierungsmethode" xlink:type="simple"><text fill="#0000FF" font-family="sans-serif" font-size="14" lengthAdjust="spacing" text-decoration="underline" textLength="157.0488" x="643.1217" y="434.0251">Bilanzierungsmethode</text></a><text fill="#000000" font-family="sans-serif" font-size="10" lengthAdjust="spacing" textLength="171.5723" x="635.86" y="446.6091">bo4e.enum.bilanzierungsmethode</text></g><!--class PreisblattHardware--><g class="entity" data-entity="PreisblattHardware" data-source-line="3" data-uid="ent0002" id="entity_PreisblattHardware"><rect fill="#F1F1F1" height="94.8281" rx="2.5" ry="2.5" style="stroke:#181818;stroke-width:0.5;" width="344.8623" x="7" y="219.59"/><ellipse cx="105.6841" cy="238.5587" fill="#ADD1B2" rx="11" ry="11" style="stroke:#181818;stroke-width:1;"/><path d="M108.6528,244.1994 Q108.0747,244.4962 107.4341,244.6369 Q106.7935,244.7931 106.0903,244.7931 Q103.5903,244.7931 102.2622,243.1525 Q100.9497,241.4962 100.9497,238.3712 Q100.9497,235.2462 102.2622,233.59 Q103.5903,231.9337 106.0903,231.9337 Q106.7935,231.9337 107.4341,232.09 Q108.0903,232.2462 108.6528,232.5431 L108.6528,235.2619 Q108.0278,234.6837 107.4341,234.4181 Q106.8403,234.1369 106.2153,234.1369 Q104.8716,234.1369 104.1841,235.215 Q103.4966,236.2775 103.4966,238.3712 Q103.4966,240.465 104.1841,241.5431 Q104.8716,242.6056 106.2153,242.6056 Q106.8403,242.6056 107.4341,242.34 Q108.0278,242.0587 108.6528,241.4806 L108.6528,244.1994 Z " fill="#000000"/><a href="file:////home/runner/work/BO4E-python/BO4E-python/docs/../.tox/docs/tmp/html/api/bo4e.bo.html#bo4e.bo.preisblatthardware.PreisblattHardware" target="_top" title="file:////home/runner/work/BO4E-python/BO4E-python/docs/../.tox/docs/tmp/html/api/bo4e.bo.html#bo4e.bo.preisblatthardware.PreisblattHardware" xlink:actuate="onRequest" xlink:href="file:////home/runner/work/BO4E-python/BO4E-python/docs/../.tox/docs/tmp/html/api/bo4e.bo.html#bo4e.bo.preisblatthardware.PreisblattHardware" xlink:show="new" xlink:title="file:////home/runner/work/BO4E-python/BO4E-python/docs/../.tox/docs/tmp/html/api/bo4e.bo.html#bo4e.bo.preisblatthardware.PreisblattHardware" xlink:type="simple"><text fill="#0000FF" font-family="sans-serif" font-size="14" lengthAdjust="spacing" text-decoration="underline" textLength="134.4766" x="128.4429" y="237.5851">PreisblattHardware</text></a><text fill="#000000" font-family="sans-serif" font-size="10" lengthAdjust="spacing" textLength="138.9941" x="126.1841" y="250.1691">bo4e.bo.preisblatthardware</text><line style="stroke:#181818;stroke-width:0.5;" x1="8" x2="350.8623" y1="257.5275" y2="257.5275"/><text fill="#000000" font-family="sans-serif" font-size="14" lengthAdjust="spacing" textLength="332.8623" x="13" y="274.5226">_version : str [0..1] = 202501.0.0+g7b47c8326</text><text fill="#000000" font-family="sans-serif" font-size="14" lengthAdjust="spacing" textLength="318.5752" x="13" y="290.8195">zusatzAttribute : ZusatzAttribut [0..*] = None</text><text fill="#000000" font-family="sans-serif" font-size="14" lengthAdjust="spacing" textLength="151.1768" x="13" y="307.1164">_id : str [0..1] = None</text></g><!--link PreisblattHardware to Preisblatt--><g class="link" data-entity-1="PreisblattHardware" data-entity-2="Preisblatt" data-source-line="19" data-uid="lnk11" id="link_PreisblattHardware_Preisblatt"><path codeLine="19" d="M352.26,242 C414.9,232.39 486.2,220.86 550.86,209 C582.6,203.18 600.1773,199.6676 629.1473,193.3976" fill="none" id="PreisblattHardware-to-Preisblatt" style="stroke:#181818;stroke-width:1;"/><polygon fill="none" points="646.74,189.59,627.8781,187.5334,630.4165,199.2618,646.74,189.59" style="stroke:#181818;stroke-width:1;"/></g><!--link PreisblattHardware to Bilanzierungsmethode--><g class="link" data-entity-1="PreisblattHardware" data-entity-2="Bilanzierungsmethode" data-source-line="20" data-uid="lnk12" id="link_PreisblattHardware_Bilanzierungsmethode"><path codeLine="20" d="M270.91,314.88 C305,331.52 344.56,349.2 381.86,362 C455.46,387.26 529.6653,403.8898 594.8253,416.0998" fill="none" id="PreisblattHardware-to-Bilanzierungsmethode" style="stroke:#181818;stroke-width:1;"/><polygon fill="#181818" points="606.62,418.31,601.4594,413.2734,594.8253,416.0998,599.9859,421.1365,606.62,418.31" style="stroke:#181818;stroke-width:1;"/><text fill="#000000" font-family="sans-serif" font-size="13" lengthAdjust="spacing" textLength="145.1646" x="393.86" y="358.0669">bilanzierungsmethode</text><text fill="#000000" font-family="sans-serif" font-size="13" lengthAdjust="spacing" textLength="24.8066" x="573.9208" y="429.6785">0..1</text></g><!--link PreisblattHardware to Netzebene--><g class="link" data-entity-1="PreisblattHardware" data-entity-2="Netzebene" data-source-line="21" data-uid="lnk13" id="link_PreisblattHardware_Netzebene"><path codeLine="21" d="M352.33,274.17 C448.64,278.19 551.6105,282.4891 624.1405,285.5191" fill="none" id="PreisblattHardware-to-Netzebene" style="stroke:#181818;stroke-width:1;"/><polygon fill="#181818" points="636.13,286.02,630.3022,281.773,624.1405,285.5191,629.9683,289.7661,636.13,286.02" style="stroke:#181818;stroke-width:1;"/><text fill="#000000" font-family="sans-serif" font-size="13" lengthAdjust="spacing" textLength="74.6929" x="429.36" y="273.0669">messebene</text><text fill="#000000" font-family="sans-serif" font-size="13" lengthAdjust="spacing" textLength="24.8066" x="603.456" y="298.56">0..1</text></g><!--link PreisblattHardware to Geraet--><g class="link" data-entity-1="PreisblattHardware" data-entity-2="Geraet" data-source-line="22" data-uid="lnk14" id="link_PreisblattHardware_Geraet"><path codeLine="22" d="M243.13,219.11 C281.21,192.56 331.97,161.46 381.86,144 C473.74,111.84 575.9928,104.6003 641.8928,103.1703" fill="none" id="PreisblattHardware-to-Geraet" style="stroke:#181818;stroke-width:1;"/><polygon fill="#181818" points="653.89,102.91,647.8046,99.0411,641.8928,103.1703,647.9782,107.0392,653.89,102.91" style="stroke:#181818;stroke-width:1;"/><text fill="#000000" font-family="sans-serif" font-size="13" lengthAdjust="spacing" textLength="76.0322" x="428.36" y="106.0669">basisgeraet</text><text fill="#000000" font-family="sans-serif" font-size="13" lengthAdjust="spacing" textLength="24.8066" x="621.3883" y="115.935">0..1</text></g><!--link PreisblattHardware to Geraet--><g class="link" data-entity-1="PreisblattHardware" data-entity-2="Geraet" data-source-line="23" data-uid="lnk15" id="link_PreisblattHardware_Geraet"><path codeLine="23" d="M330.71,219.15 C347.9,214.15 365.22,209.33 381.86,205 C456.19,185.69 494.97,221.67 550.86,169 C560.59,159.83 549.29,149.33 558.86,140 C583.93,115.57 610.5563,107.6307 642.1463,104.5607" fill="none" id="PreisblattHardware-to-Geraet-1" style="stroke:#181818;stroke-width:1;"/><polygon fill="#181818" points="654.09,103.4,647.7312,99.9991,642.1463,104.5607,648.505,107.9616,654.09,103.4" style="stroke:#181818;stroke-width:1;"/><text fill="#000000" font-family="sans-serif" font-size="13" lengthAdjust="spacing" textLength="109.7827" x="411.86" y="165.0669">inklusiveGeraete</text><text fill="#000000" font-family="sans-serif" font-size="13" lengthAdjust="spacing" textLength="23.0356" x="623.4541" y="99.6538">0..*</text></g><!--link PreisblattHardware to Dienstleistungstyp--><g class="link" data-entity-1="PreisblattHardware" data-entity-2="Dienstleistungstyp" data-source-line="24" data-uid="lnk16" id="link_PreisblattHardware_Dienstleistungstyp"><path codeLine="24" d="M352.34,301.48 C362.32,303.38 372.22,305.23 381.86,307 C460.85,321.51 539.0273,334.6636 604.4073,345.3536" fill="none" id="PreisblattHardware-to-Dienstleistungstyp" style="stroke:#181818;stroke-width:1;"/><polygon fill="#181818" points="616.25,347.29,610.9741,342.3742,604.4073,345.3536,609.6832,350.2694,616.25,347.29" style="stroke:#181818;stroke-width:1;"/><text fill="#000000" font-family="sans-serif" font-size="13" lengthAdjust="spacing" textLength="167.0957" x="382.86" y="303.0669">inklusiveDienstleistungen</text><text fill="#000000" font-family="sans-serif" font-size="13" lengthAdjust="spacing" textLength="23.0356" x="585.6214" y="358.8324">0..*</text></g><!--SRC=[nLPBRzim33xNlu98RXaYEsdQ5C5Me467xTJjl2mOP9k9XTgI8T7Dcct_VRATXrChRNTOwel5J-HdlaGvnGK1AT1YcH34GcD4GadFYr9k37HciuL8SUBR9r4P-hgG4hM_KlhUdtuPVUpdZvGeUR2ELMHyndn6wcSjK9Rx2MMfptFXXsg4B5Ii1BfR8TSeJ9XoeeJhUCKrigyxwFC6WZOqdt-NxurOusGGN1ydwm0t3cluvPtzU41jRCWm0KCQPW5ZWpbyW64ml0W6B631k-Ku78sZg_FXfNUsBWodzGsH5c51QAs-7I0LGQyak5CIBRs8dp9N6tyyJ_8CJSuZ_EzfXeqmdrU9s4ZGdLxUZc-koYoSkDnBr1o9VQfUKB-SfQmLAwzhhPExkc-cHaSsUkc53dpIURRk9oWxoY9h5BuKcwKlPUZ6W-ZyuXJ5ttdJtOiIQOqXIcHtsnNiLksK7jfKaUoqtyJ_MA0qbDgoKY6NXXvpTjk2e0qT2QrDLyNOjd-JO4EHShaMg4idChHSCRAf0mGNU2Ha5saLj8kZ79Uk2w7V_tsz7MUDVQUkLUv1fnp2dVqnS8Sn0PTt_y2wR-e9sDDkwaPzbRqDP3CMhHVS25EFmEUDUmvZ8U_JmeW7h15y7KFblgEL6to7ksX_5X9XavPX5jghr3E9Me7hMmk1QMp-0W00]--></g></svg>