<?xml version="1.0" encoding="us-ascii" standalone="no"?><svg xmlns="http://www.w3.org/2000/svg" xmlns:xlink="http://www.w3.org/1999/xlink" contentStyleType="text/css" height="647px" preserveAspectRatio="none" style="width:869px;height:647px;background:#FFFFFF;" version="1.1" viewBox="0 0 869 647" width="869px" zoomAndPan="magnify"><defs/><g><!--cluster bo4e--><g id="cluster_bo4e"><path d="M588.5,6 L629.5,6 A3.75,3.75 0 0 1 632,8.5 L639,28.2969 L859.5,28.2969 A2.5,2.5 0 0 1 862,30.7969 L862,637.5 A2.5,2.5 0 0 1 859.5,640 L588.5,640 A2.5,2.5 0 0 1 586,637.5 L586,8.5 A2.5,2.5 0 0 1 588.5,6 " fill="none" style="stroke:#000000;stroke-width:1.5;"/><line style="stroke:#000000;stroke-width:1.5;" x1="586" x2="639" y1="28.2969" y2="28.2969"/><text fill="#000000" font-family="sans-serif" font-size="14" font-weight="bold" lengthAdjust="spacing" textLength="40" x="590" y="20.9951">bo4e</text></g><!--cluster bo--><g id="cluster_bo"><path d="M651,49 L717,49 A3.75,3.75 0 0 1 719.5,51.5 L726.5,71.2969 L797,71.2969 A2.5,2.5 0 0 1 799.5,73.7969 L799.5,281.5 A2.5,2.5 0 0 1 797,284 L651,284 A2.5,2.5 0 0 1 648.5,281.5 L648.5,51.5 A2.5,2.5 0 0 1 651,49 " fill="#B6D7A8" style="stroke:#000000;stroke-width:1.5;"/><line style="stroke:#000000;stroke-width:1.5;" x1="648.5" x2="726.5" y1="71.2969" y2="71.2969"/><a href="https://bo4e.github.io/BO4E-python/latest/api/bo4e.bo.html" target="_top" title="https://bo4e.github.io/BO4E-python/latest/api/bo4e.bo.html" xlink:actuate="onRequest" xlink:href="https://bo4e.github.io/BO4E-python/latest/api/bo4e.bo.html" xlink:show="new" xlink:title="https://bo4e.github.io/BO4E-python/latest/api/bo4e.bo.html" xlink:type="simple"><text fill="#0000FF" font-family="sans-serif" font-size="14" font-weight="bold" lengthAdjust="spacing" text-decoration="underline" textLength="65" x="652.5" y="63.9951">bo4e.bo</text></a></g><!--cluster enum--><g id="cluster_enum"><path d="M612.5,308 L702.5,308 A3.75,3.75 0 0 1 705,310.5 L712,330.2969 L835.5,330.2969 A2.5,2.5 0 0 1 838,332.7969 L838,613.5 A2.5,2.5 0 0 1 835.5,616 L612.5,616 A2.5,2.5 0 0 1 610,613.5 L610,310.5 A2.5,2.5 0 0 1 612.5,308 " fill="#D1C358" style="stroke:#000000;stroke-width:1.5;"/><line style="stroke:#000000;stroke-width:1.5;" x1="610" x2="712" y1="330.2969" y2="330.2969"/><a href="https://bo4e.github.io/BO4E-python/latest/api/bo4e.enum.html" target="_top" title="https://bo4e.github.io/BO4E-python/latest/api/bo4e.enum.html" xlink:actuate="onRequest" xlink:href="https://bo4e.github.io/BO4E-python/latest/api/bo4e.enum.html" xlink:show="new" xlink:title="https://bo4e.github.io/BO4E-python/latest/api/bo4e.enum.html" xlink:type="simple"><text fill="#0000FF" font-family="sans-serif" font-size="14" font-weight="bold" lengthAdjust="spacing" text-decoration="underline" textLength="89" x="614" y="322.9951">bo4e.enum</text></a></g><!--class Preisblatt--><g id="elem_Preisblatt"><rect codeLine="10" fill="#F1F1F1" height="37.9375" id="Preisblatt" rx="2.5" ry="2.5" style="stroke:#181818;stroke-width:0.5;" width="119" x="664.5" y="84.03"/><ellipse cx="679.5" cy="102.9987" fill="#ADD1B2" rx="11" ry="11" style="stroke:#181818;stroke-width:1.0;"/><path d="M682.4688,108.6394 Q681.8906,108.9362 681.25,109.0769 Q680.6094,109.2331 679.9063,109.2331 Q677.4063,109.2331 676.0781,107.5925 Q674.7656,105.9362 674.7656,102.8112 Q674.7656,99.6862 676.0781,98.03 Q677.4063,96.3737 679.9063,96.3737 Q680.6094,96.3737 681.25,96.53 Q681.9063,96.6862 682.4688,96.9831 L682.4688,99.7019 Q681.8438,99.1237 681.25,98.8581 Q680.6563,98.5769 680.0313,98.5769 Q678.6875,98.5769 678,99.655 Q677.3125,100.7175 677.3125,102.8112 Q677.3125,104.905 678,105.9831 Q678.6875,107.0456 680.0313,107.0456 Q680.6563,107.0456 681.25,106.78 Q681.8438,106.4987 682.4688,105.9206 L682.4688,108.6394 Z " fill="#000000"/><a href="https://bo4e.github.io/BO4E-python/latest/api/bo4e.bo.html#bo4e.bo.preisblatt.Preisblatt" target="_top" title="https://bo4e.github.io/BO4E-python/latest/api/bo4e.bo.html#bo4e.bo.preisblatt.Preisblatt" xlink:actuate="onRequest" xlink:href="https://bo4e.github.io/BO4E-python/latest/api/bo4e.bo.html#bo4e.bo.preisblatt.Preisblatt" xlink:show="new" xlink:title="https://bo4e.github.io/BO4E-python/latest/api/bo4e.bo.html#bo4e.bo.preisblatt.Preisblatt" xlink:type="simple"><text fill="#0000FF" font-family="sans-serif" font-size="14" lengthAdjust="spacing" text-decoration="underline" textLength="64" x="705" y="102.0251">Preisblatt</text></a><text fill="#000000" font-family="sans-serif" font-size="10" lengthAdjust="spacing" textLength="87" x="693.5" y="114.6091">bo4e.bo.preisblatt</text></g><!--class Zaehler--><g id="elem_Zaehler"><rect codeLine="11" fill="#F1F1F1" height="37.9375" id="Zaehler" rx="2.5" ry="2.5" style="stroke:#181818;stroke-width:0.5;" width="109" x="669.5" y="157.03"/><ellipse cx="684.5" cy="175.9987" fill="#ADD1B2" rx="11" ry="11" style="stroke:#181818;stroke-width:1.0;"/><path d="M687.4688,181.6394 Q686.8906,181.9362 686.25,182.0769 Q685.6094,182.2331 684.9063,182.2331 Q682.4063,182.2331 681.0781,180.5925 Q679.7656,178.9362 679.7656,175.8112 Q679.7656,172.6862 681.0781,171.03 Q682.4063,169.3737 684.9063,169.3737 Q685.6094,169.3737 686.25,169.53 Q686.9063,169.6862 687.4688,169.9831 L687.4688,172.7019 Q686.8438,172.1237 686.25,171.8581 Q685.6563,171.5769 685.0313,171.5769 Q683.6875,171.5769 683,172.655 Q682.3125,173.7175 682.3125,175.8112 Q682.3125,177.905 683,178.9831 Q683.6875,180.0456 685.0313,180.0456 Q685.6563,180.0456 686.25,179.78 Q686.8438,179.4987 687.4688,178.9206 L687.4688,181.6394 Z " fill="#000000"/><a href="https://bo4e.github.io/BO4E-python/latest/api/bo4e.bo.html#bo4e.bo.zaehler.Zaehler" target="_top" title="https://bo4e.github.io/BO4E-python/latest/api/bo4e.bo.html#bo4e.bo.zaehler.Zaehler" xlink:actuate="onRequest" xlink:href="https://bo4e.github.io/BO4E-python/latest/api/bo4e.bo.html#bo4e.bo.zaehler.Zaehler" xlink:show="new" xlink:title="https://bo4e.github.io/BO4E-python/latest/api/bo4e.bo.html#bo4e.bo.zaehler.Zaehler" xlink:type="simple"><text fill="#0000FF" font-family="sans-serif" font-size="14" lengthAdjust="spacing" text-decoration="underline" textLength="53" x="710.5" y="175.0251">Zaehler</text></a><text fill="#000000" font-family="sans-serif" font-size="10" lengthAdjust="spacing" textLength="77" x="698.5" y="187.6091">bo4e.bo.zaehler</text></g><!--class Geraet--><g id="elem_Geraet"><rect codeLine="12" fill="#F1F1F1" height="37.9375" id="Geraet" rx="2.5" ry="2.5" style="stroke:#181818;stroke-width:0.5;" width="106" x="671" y="230.03"/><ellipse cx="686" cy="248.9987" fill="#ADD1B2" rx="11" ry="11" style="stroke:#181818;stroke-width:1.0;"/><path d="M688.9688,254.6394 Q688.3906,254.9362 687.75,255.0769 Q687.1094,255.2331 686.4063,255.2331 Q683.9063,255.2331 682.5781,253.5925 Q681.2656,251.9362 681.2656,248.8112 Q681.2656,245.6862 682.5781,244.03 Q683.9063,242.3737 686.4063,242.3737 Q687.1094,242.3737 687.75,242.53 Q688.4063,242.6862 688.9688,242.9831 L688.9688,245.7019 Q688.3438,245.1237 687.75,244.8581 Q687.1563,244.5769 686.5313,244.5769 Q685.1875,244.5769 684.5,245.655 Q683.8125,246.7175 683.8125,248.8112 Q683.8125,250.905 684.5,251.9831 Q685.1875,253.0456 686.5313,253.0456 Q687.1563,253.0456 687.75,252.78 Q688.3438,252.4987 688.9688,251.9206 L688.9688,254.6394 Z " fill="#000000"/><a href="https://bo4e.github.io/BO4E-python/latest/api/bo4e.bo.html#bo4e.bo.geraet.Geraet" target="_top" title="https://bo4e.github.io/BO4E-python/latest/api/bo4e.bo.html#bo4e.bo.geraet.Geraet" xlink:actuate="onRequest" xlink:href="https://bo4e.github.io/BO4E-python/latest/api/bo4e.bo.html#bo4e.bo.geraet.Geraet" xlink:show="new" xlink:title="https://bo4e.github.io/BO4E-python/latest/api/bo4e.bo.html#bo4e.bo.geraet.Geraet" xlink:type="simple"><text fill="#0000FF" font-family="sans-serif" font-size="14" lengthAdjust="spacing" text-decoration="underline" textLength="47" x="713.5" y="248.0251">Geraet</text></a><text fill="#000000" font-family="sans-serif" font-size="10" lengthAdjust="spacing" textLength="74" x="700" y="260.6091">bo4e.bo.geraet</text></g><!--class Netzebene--><g id="elem_Netzebene"><rect codeLine="15" fill="#F1F1F1" height="37.9375" id="Netzebene" rx="2.5" ry="2.5" style="stroke:#181818;stroke-width:0.5;" width="141" x="653.5" y="343.03"/><ellipse cx="668.5" cy="361.9988" fill="#ADD1B2" rx="11" ry="11" style="stroke:#181818;stroke-width:1.0;"/><path d="M671.4688,367.6394 Q670.8906,367.9363 670.25,368.0769 Q669.6094,368.2331 668.9063,368.2331 Q666.4063,368.2331 665.0781,366.5925 Q663.7656,364.9363 663.7656,361.8113 Q663.7656,358.6863 665.0781,357.03 Q666.4063,355.3738 668.9063,355.3738 Q669.6094,355.3738 670.25,355.53 Q670.9063,355.6863 671.4688,355.9831 L671.4688,358.7019 Q670.8438,358.1238 670.25,357.8581 Q669.6563,357.5769 669.0313,357.5769 Q667.6875,357.5769 667,358.655 Q666.3125,359.7175 666.3125,361.8113 Q666.3125,363.905 667,364.9831 Q667.6875,366.0456 669.0313,366.0456 Q669.6563,366.0456 670.25,365.78 Q670.8438,365.4988 671.4688,364.9206 L671.4688,367.6394 Z " fill="#000000"/><a href="https://bo4e.github.io/BO4E-python/latest/api/bo4e.enum.html#bo4e.enum.netzebene.Netzebene" target="_top" title="https://bo4e.github.io/BO4E-python/latest/api/bo4e.enum.html#bo4e.enum.netzebene.Netzebene" xlink:actuate="onRequest" xlink:href="https://bo4e.github.io/BO4E-python/latest/api/bo4e.enum.html#bo4e.enum.netzebene.Netzebene" xlink:show="new" xlink:title="https://bo4e.github.io/BO4E-python/latest/api/bo4e.enum.html#bo4e.enum.netzebene.Netzebene" xlink:type="simple"><text fill="#0000FF" font-family="sans-serif" font-size="14" lengthAdjust="spacing" text-decoration="underline" textLength="77" x="698.5" y="361.0251">Netzebene</text></a><text fill="#000000" font-family="sans-serif" font-size="10" lengthAdjust="spacing" textLength="109" x="682.5" y="373.6091">bo4e.enum.netzebene</text></g><!--class Dienstleistungstyp--><g id="elem_Dienstleistungstyp"><rect codeLine="16" fill="#F1F1F1" height="37.9375" id="Dienstleistungstyp" rx="2.5" ry="2.5" style="stroke:#181818;stroke-width:0.5;" width="177" x="635.5" y="416.03"/><ellipse cx="650.5" cy="434.9988" fill="#ADD1B2" rx="11" ry="11" style="stroke:#181818;stroke-width:1.0;"/><path d="M653.4688,440.6394 Q652.8906,440.9363 652.25,441.0769 Q651.6094,441.2331 650.9063,441.2331 Q648.4063,441.2331 647.0781,439.5925 Q645.7656,437.9363 645.7656,434.8113 Q645.7656,431.6863 647.0781,430.03 Q648.4063,428.3738 650.9063,428.3738 Q651.6094,428.3738 652.25,428.53 Q652.9063,428.6863 653.4688,428.9831 L653.4688,431.7019 Q652.8438,431.1238 652.25,430.8581 Q651.6563,430.5769 651.0313,430.5769 Q649.6875,430.5769 649,431.655 Q648.3125,432.7175 648.3125,434.8113 Q648.3125,436.905 649,437.9831 Q649.6875,439.0456 651.0313,439.0456 Q651.6563,439.0456 652.25,438.78 Q652.8438,438.4988 653.4688,437.9206 L653.4688,440.6394 Z " fill="#000000"/><a href="https://bo4e.github.io/BO4E-python/latest/api/bo4e.enum.html#bo4e.enum.dienstleistungstyp.Dienstleistungstyp" target="_top" title="https://bo4e.github.io/BO4E-python/latest/api/bo4e.enum.html#bo4e.enum.dienstleistungstyp.Dienstleistungstyp" xlink:actuate="onRequest" xlink:href="https://bo4e.github.io/BO4E-python/latest/api/bo4e.enum.html#bo4e.enum.dienstleistungstyp.Dienstleistungstyp" xlink:show="new" xlink:title="https://bo4e.github.io/BO4E-python/latest/api/bo4e.enum.html#bo4e.enum.dienstleistungstyp.Dienstleistungstyp" xlink:type="simple"><text fill="#0000FF" font-family="sans-serif" font-size="14" lengthAdjust="spacing" text-decoration="underline" textLength="129" x="672.5" y="434.0251">Dienstleistungstyp</text></a><text fill="#000000" font-family="sans-serif" font-size="10" lengthAdjust="spacing" textLength="145" x="664.5" y="446.6091">bo4e.enum.dienstleistungstyp</text></g><!--class Typ--><g id="elem_Typ"><rect codeLine="17" fill="#F1F1F1" height="37.9375" id="Typ" rx="2.5" ry="2.5" style="stroke:#181818;stroke-width:0.5;" width="106" x="671" y="489.03"/><ellipse cx="686" cy="507.9988" fill="#ADD1B2" rx="11" ry="11" style="stroke:#181818;stroke-width:1.0;"/><path d="M688.9688,513.6394 Q688.3906,513.9363 687.75,514.0769 Q687.1094,514.2331 686.4063,514.2331 Q683.9063,514.2331 682.5781,512.5925 Q681.2656,510.9363 681.2656,507.8113 Q681.2656,504.6863 682.5781,503.03 Q683.9063,501.3738 686.4063,501.3738 Q687.1094,501.3738 687.75,501.53 Q688.4063,501.6863 688.9688,501.9831 L688.9688,504.7019 Q688.3438,504.1238 687.75,503.8581 Q687.1563,503.5769 686.5313,503.5769 Q685.1875,503.5769 684.5,504.655 Q683.8125,505.7175 683.8125,507.8113 Q683.8125,509.905 684.5,510.9831 Q685.1875,512.0456 686.5313,512.0456 Q687.1563,512.0456 687.75,511.78 Q688.3438,511.4988 688.9688,510.9206 L688.9688,513.6394 Z " fill="#000000"/><a href="https://bo4e.github.io/BO4E-python/latest/api/bo4e.enum.html#bo4e.enum.typ.Typ" target="_top" title="https://bo4e.github.io/BO4E-python/latest/api/bo4e.enum.html#bo4e.enum.typ.Typ" xlink:actuate="onRequest" xlink:href="https://bo4e.github.io/BO4E-python/latest/api/bo4e.enum.html#bo4e.enum.typ.Typ" xlink:show="new" xlink:title="https://bo4e.github.io/BO4E-python/latest/api/bo4e.enum.html#bo4e.enum.typ.Typ" xlink:type="simple"><text fill="#0000FF" font-family="sans-serif" font-size="14" lengthAdjust="spacing" text-decoration="underline" textLength="25" x="724.5" y="507.0251">Typ</text></a><text fill="#000000" font-family="sans-serif" font-size="10" lengthAdjust="spacing" textLength="74" x="700" y="519.6091">bo4e.enum.typ</text></g><!--class Bilanzierungsmethode--><g id="elem_Bilanzierungsmethode"><rect codeLine="18" fill="#F1F1F1" height="37.9375" id="Bilanzierungsmethode" rx="2.5" ry="2.5" style="stroke:#181818;stroke-width:0.5;" width="196" x="626" y="562.03"/><ellipse cx="641" cy="580.9988" fill="#ADD1B2" rx="11" ry="11" style="stroke:#181818;stroke-width:1.0;"/><path d="M643.9688,586.6394 Q643.3906,586.9363 642.75,587.0769 Q642.1094,587.2331 641.4063,587.2331 Q638.9063,587.2331 637.5781,585.5925 Q636.2656,583.9363 636.2656,580.8113 Q636.2656,577.6863 637.5781,576.03 Q638.9063,574.3738 641.4063,574.3738 Q642.1094,574.3738 642.75,574.53 Q643.4063,574.6863 643.9688,574.9831 L643.9688,577.7019 Q643.3438,577.1238 642.75,576.8581 Q642.1563,576.5769 641.5313,576.5769 Q640.1875,576.5769 639.5,577.655 Q638.8125,578.7175 638.8125,580.8113 Q638.8125,582.905 639.5,583.9831 Q640.1875,585.0456 641.5313,585.0456 Q642.1563,585.0456 642.75,584.78 Q643.3438,584.4988 643.9688,583.9206 L643.9688,586.6394 Z " fill="#000000"/><a href="https://bo4e.github.io/BO4E-python/latest/api/bo4e.enum.html#bo4e.enum.bilanzierungsmethode.Bilanzierungsmethode" target="_top" title="https://bo4e.github.io/BO4E-python/latest/api/bo4e.enum.html#bo4e.enum.bilanzierungsmethode.Bilanzierungsmethode" xlink:actuate="onRequest" xlink:href="https://bo4e.github.io/BO4E-python/latest/api/bo4e.enum.html#bo4e.enum.bilanzierungsmethode.Bilanzierungsmethode" xlink:show="new" xlink:title="https://bo4e.github.io/BO4E-python/latest/api/bo4e.enum.html#bo4e.enum.bilanzierungsmethode.Bilanzierungsmethode" xlink:type="simple"><text fill="#0000FF" font-family="sans-serif" font-size="14" lengthAdjust="spacing" text-decoration="underline" textLength="156" x="659" y="580.0251">Bilanzierungsmethode</text></a><text fill="#000000" font-family="sans-serif" font-size="10" lengthAdjust="spacing" textLength="164" x="655" y="592.6091">bo4e.enum.bilanzierungsmethode</text></g><!--class PreisblattMessung--><g id="elem_PreisblattMessung"><rect codeLine="3" fill="#F1F1F1" height="94.8281" id="PreisblattMessung" rx="2.5" ry="2.5" style="stroke:#181818;stroke-width:0.5;" width="370" x="7" y="314.59"/><ellipse cx="122.25" cy="333.5588" fill="#ADD1B2" rx="11" ry="11" style="stroke:#181818;stroke-width:1.0;"/><path d="M125.2188,339.1994 Q124.6406,339.4963 124,339.6369 Q123.3594,339.7931 122.6563,339.7931 Q120.1563,339.7931 118.8281,338.1525 Q117.5156,336.4963 117.5156,333.3713 Q117.5156,330.2463 118.8281,328.59 Q120.1563,326.9338 122.6563,326.9338 Q123.3594,326.9338 124,327.09 Q124.6563,327.2463 125.2188,327.5431 L125.2188,330.2619 Q124.5938,329.6838 124,329.4181 Q123.4063,329.1369 122.7813,329.1369 Q121.4375,329.1369 120.75,330.215 Q120.0625,331.2775 120.0625,333.3713 Q120.0625,335.465 120.75,336.5431 Q121.4375,337.6056 122.7813,337.6056 Q123.4063,337.6056 124,337.34 Q124.5938,337.0588 125.2188,336.4806 L125.2188,339.1994 Z " fill="#000000"/><a href="https://bo4e.github.io/BO4E-python/latest/api/bo4e.bo.html#bo4e.bo.preisblattmessung.PreisblattMessung" target="_top" title="https://bo4e.github.io/BO4E-python/latest/api/bo4e.bo.html#bo4e.bo.preisblattmessung.PreisblattMessung" xlink:actuate="onRequest" xlink:href="https://bo4e.github.io/BO4E-python/latest/api/bo4e.bo.html#bo4e.bo.preisblattmessung.PreisblattMessung" xlink:show="new" xlink:title="https://bo4e.github.io/BO4E-python/latest/api/bo4e.bo.html#bo4e.bo.preisblattmessung.PreisblattMessung" xlink:type="simple"><text fill="#0000FF" font-family="sans-serif" font-size="14" lengthAdjust="spacing" text-decoration="underline" textLength="128" x="144.25" y="332.5851">PreisblattMessung</text></a><text fill="#000000" font-family="sans-serif" font-size="10" lengthAdjust="spacing" textLength="131" x="142.75" y="345.1691">bo4e.bo.preisblattmessung</text><line style="stroke:#181818;stroke-width:0.5;" x1="8" x2="376" y1="352.5275" y2="352.5275"/><text fill="#000000" font-family="sans-serif" font-size="14" lengthAdjust="spacing" textLength="358" x="13" y="369.5226">_version : str [0..1] = 202401.2.2.dev36+g0841f83f</text><text fill="#000000" font-family="sans-serif" font-size="14" lengthAdjust="spacing" textLength="311" x="13" y="385.8195">zusatzAttribute : ZusatzAttribut [0..*] = None</text><text fill="#000000" font-family="sans-serif" font-size="14" lengthAdjust="spacing" textLength="147" x="13" y="402.1164">_id : str [0..1] = None</text></g><!--link PreisblattMessung to Preisblatt--><g id="link_PreisblattMessung_Preisblatt"><path codeLine="21" d="M241.41,314.18 C282.44,276.03 344.42,223.74 407,191 C477.27,154.24 501.56,161.14 578,140 C606.3,132.17 620.4021,128.4343 646.8421,121.7943 " fill="none" id="PreisblattMessung-to-Preisblatt" style="stroke:#181818;stroke-width:1.0;"/><polygon fill="none" points="664.3,117.41,645.3807,115.975,648.3035,127.6136,664.3,117.41" style="stroke:#181818;stroke-width:1.0;"/></g><!--link PreisblattMessung to Typ--><g id="link_PreisblattMessung_Typ"><path codeLine="22" d="M317.43,409.86 C346.58,420.21 377.69,430.57 407,439 C498.6,465.36 595.8698,484.9191 658.9598,496.5791 " fill="none" id="PreisblattMessung-to-Typ" style="stroke:#181818;stroke-width:1.0;"/><polygon fill="#181818" points="670.76,498.76,665.5869,493.7362,658.9598,496.5791,664.133,501.603,670.76,498.76" style="stroke:#181818;stroke-width:1.0;"/><text fill="#000000" font-family="sans-serif" font-size="13" lengthAdjust="spacing" textLength="27" x="475" y="435.0669">_typ</text><text fill="#000000" font-family="sans-serif" font-size="13" lengthAdjust="spacing" textLength="24" x="638.8089" y="510.6231">0..1</text></g><!--link PreisblattMessung to Bilanzierungsmethode--><g id="link_PreisblattMessung_Bilanzierungsmethode"><path codeLine="23" d="M252.46,409.65 C293.68,440.57 351.04,479.51 407,504 C477.23,534.73 550.0293,552.3421 614.0193,564.1521 " fill="none" id="PreisblattMessung-to-Bilanzierungsmethode" style="stroke:#181818;stroke-width:1.0;"/><polygon fill="#181818" points="625.82,566.33,620.6456,561.3075,614.0193,564.1521,619.1937,569.1746,625.82,566.33" style="stroke:#181818;stroke-width:1.0;"/><text fill="#000000" font-family="sans-serif" font-size="13" lengthAdjust="spacing" textLength="142" x="417.5" y="500.0669">bilanzierungsmethode</text><text fill="#000000" font-family="sans-serif" font-size="13" lengthAdjust="spacing" textLength="24" x="594.073" y="577.8975">0..1</text></g><!--link PreisblattMessung to Netzebene--><g id="link_PreisblattMessung_Netzebene"><path codeLine="24" d="M377.25,362 C472.59,362 571.34,362 641.29,362 " fill="none" id="PreisblattMessung-to-Netzebene" style="stroke:#181818;stroke-width:1.0;"/><polygon fill="#181818" points="653.29,362,647.29,358,641.29,362,647.29,366,653.29,362" style="stroke:#181818;stroke-width:1.0;"/><text fill="#000000" font-family="sans-serif" font-size="13" lengthAdjust="spacing" textLength="75" x="451" y="358.0669">messebene</text><text fill="#000000" font-family="sans-serif" font-size="13" lengthAdjust="spacing" textLength="24" x="621.4067" y="374.7882">0..1</text></g><!--link PreisblattMessung to Zaehler--><g id="link_PreisblattMessung_Zaehler"><path codeLine="25" d="M281.63,314.11 C319.51,294.92 364.68,273.68 407,258 C480.69,230.7 501.93,232.72 578,213 C608.18,205.18 630.3001,199.5175 657.6301,192.5675 " fill="none" id="PreisblattMessung-to-Zaehler" style="stroke:#181818;stroke-width:1.0;"/><polygon fill="#181818" points="669.26,189.61,662.4593,187.2121,657.6301,192.5675,664.4309,194.9653,669.26,189.61" style="stroke:#181818;stroke-width:1.0;"/><text fill="#000000" font-family="sans-serif" font-size="13" lengthAdjust="spacing" textLength="47" x="465" y="212.0669">zaehler</text><text fill="#000000" font-family="sans-serif" font-size="13" lengthAdjust="spacing" textLength="24" x="637.5432" y="204.1256">0..1</text></g><!--link PreisblattMessung to Dienstleistungstyp--><g id="link_PreisblattMessung_Dienstleistungstyp"><path codeLine="26" d="M377.25,387.38 C464.67,399.42 553.1624,411.6012 623.1624,421.2512 " fill="none" id="PreisblattMessung-to-Dienstleistungstyp" style="stroke:#181818;stroke-width:1.0;"/><polygon fill="#181818" points="635.05,422.89,629.6525,418.1081,623.1624,421.2512,628.56,426.0331,635.05,422.89" style="stroke:#181818;stroke-width:1.0;"/><text fill="#000000" font-family="sans-serif" font-size="13" lengthAdjust="spacing" textLength="161" x="408" y="388.0669">inklusiveDienstleistungen</text><text fill="#000000" font-family="sans-serif" font-size="13" lengthAdjust="spacing" textLength="23" x="604.3593" y="434.6091">0..*</text></g><!--link PreisblattMessung to Geraet--><g id="link_PreisblattMessung_Geraet"><path codeLine="27" d="M377.25,322.72 C480.96,300.61 591.1641,277.1136 658.9941,262.6436 " fill="none" id="PreisblattMessung-to-Geraet" style="stroke:#181818;stroke-width:1.0;"/><polygon fill="#181818" points="670.73,260.14,664.0275,257.4798,658.9941,262.6436,665.6966,265.3038,670.73,260.14" style="stroke:#181818;stroke-width:1.0;"/><text fill="#000000" font-family="sans-serif" font-size="13" lengthAdjust="spacing" textLength="106" x="435.5" y="279.0669">inklusiveGeraete</text><text fill="#000000" font-family="sans-serif" font-size="13" lengthAdjust="spacing" textLength="23" x="639.8362" y="274.4869">0..*</text></g><!--SRC=[jLLBRzf043x7ls84DohM66Y2h3PIKAgUclR0ATIAR3pOgzfhopkcYjlyzwuVW8cN50aY7zOpE_FjDu-TZN1DG0baF0W9V9xXYdWY36CLkL92RxaCYL9fcwQNJ945dCBSOpmnvz-dNuRfCuM9C2ENK9BffhosyX8MKXprjqAQ8PUUig8OfSn5m7xiDDzg3NGqZlDJV9AyGDiQtHv5we4hkxxmnxXwsc0cLIXWWwGCbYF6B0S-mtWqdeuiDbQVZvl9zOTWD9jQwzbaRLmLkNIfk2FAk9SJAjV70qs5CYXH7XA1wWpkluQlDbuCGxYAOUgkyBmSGYCuJXLf8q5_Vdr_SpShutoVGhKgr4hlVshogXYNvLQu64QOiSTwXMRLKcfiApwDtMN919YvIEnhjK2zQ9dKXXMHsahrnhcjWIAFMyrHYktsA6Ne-zPgyl7i1jaTrT-B0gb03mMoX-qVxFwwIJZqgMZkh2zFpkSe94Mg1KdD0KdFARllgA2hEiAx2rS5qFM_V2GbzONYkZXARijcyHx7UpnoHS4nAmECKVdvoEOQ9UYKHnZhGAiGT1Zb5DKy5CFXtzlj76njwqoLxG1wvMJkxQz6bLGRdigYdUoZ3Tm6NJodW-wlZmtbSrPVYLFSLUJRCMX3C-pUT1oqpzLS21ku-1Nbac_mS1V5IRYAK3CBMqYr1WqZv2fRCSQUUf4D6IQ_GOEvvXZvyXy0]--></g></svg>