<svg xmlns="http://www.w3.org/2000/svg" xmlns:xlink="http://www.w3.org/1999/xlink" contentStyleType="text/css" data-diagram-type="CLASS" height="428px" preserveAspectRatio="none" style="width:833px;height:428px;background:#FFFFFF;" version="1.1" viewBox="0 0 833 428" width="833px" zoomAndPan="magnify"><defs/><g><!--cluster bo4e--><g class="cluster" data-entity="bo4e" data-source-line="10" data-uid="ent0005" id="cluster_bo4e"><path d="M544.96,6 L584.836,6 A3.75,3.75 0 0 1 587.336,8.5 L594.336,28.2969 L823.54,28.2969 A2.5,2.5 0 0 1 826.04,30.7969 L826.04,418.5 A2.5,2.5 0 0 1 823.54,421 L544.96,421 A2.5,2.5 0 0 1 542.46,418.5 L542.46,8.5 A2.5,2.5 0 0 1 544.96,6" fill="none" style="stroke:#000000;stroke-width:1.5;"/><line style="stroke:#000000;stroke-width:1.5;" x1="542.46" x2="594.336" y1="28.2969" y2="28.2969"/><text fill="#000000" font-family="sans-serif" font-size="14" font-weight="bold" lengthAdjust="spacing" textLength="38.876" x="546.46" y="20.9951">bo4e</text></g><!--cluster bo--><g class="cluster" data-entity="bo" data-source-line="9" data-uid="ent0003" id="cluster_bo"><path d="M609,49 L673.834,49 A3.75,3.75 0 0 1 676.334,51.5 L683.334,71.2969 L759.5,71.2969 A2.5,2.5 0 0 1 762,73.7969 L762,135.5 A2.5,2.5 0 0 1 759.5,138 L609,138 A2.5,2.5 0 0 1 606.5,135.5 L606.5,51.5 A2.5,2.5 0 0 1 609,49" fill="#B6D7A8" style="stroke:#000000;stroke-width:1.5;"/><line style="stroke:#000000;stroke-width:1.5;" x1="606.5" x2="683.334" y1="71.2969" y2="71.2969"/><a href="file:////home/runner/work/BO4E-python/BO4E-python/docs/../.tox/docs/tmp/html/api/bo4e.bo.html" target="_top" title="file:////home/runner/work/BO4E-python/BO4E-python/docs/../.tox/docs/tmp/html/api/bo4e.bo.html" xlink:actuate="onRequest" xlink:href="file:////home/runner/work/BO4E-python/BO4E-python/docs/../.tox/docs/tmp/html/api/bo4e.bo.html" xlink:show="new" xlink:title="file:////home/runner/work/BO4E-python/BO4E-python/docs/../.tox/docs/tmp/html/api/bo4e.bo.html" xlink:type="simple"><text fill="#0000FF" font-family="sans-serif" font-size="14" font-weight="bold" lengthAdjust="spacing" text-decoration="underline" textLength="63.834" x="610.5" y="63.9951">bo4e.bo</text></a></g><!--cluster enum--><g class="cluster" data-entity="enum" data-source-line="12" data-uid="ent0006" id="cluster_enum"><path d="M568.96,162 L658.1709,162 A3.75,3.75 0 0 1 660.6709,164.5 L667.6709,184.2969 L799.54,184.2969 A2.5,2.5 0 0 1 802.04,186.7969 L802.04,394.5 A2.5,2.5 0 0 1 799.54,397 L568.96,397 A2.5,2.5 0 0 1 566.46,394.5 L566.46,164.5 A2.5,2.5 0 0 1 568.96,162" fill="#D1C358" style="stroke:#000000;stroke-width:1.5;"/><line style="stroke:#000000;stroke-width:1.5;" x1="566.46" x2="667.6709" y1="184.2969" y2="184.2969"/><a href="file:////home/runner/work/BO4E-python/BO4E-python/docs/../.tox/docs/tmp/html/api/bo4e.enum.html" target="_top" title="file:////home/runner/work/BO4E-python/BO4E-python/docs/../.tox/docs/tmp/html/api/bo4e.enum.html" xlink:actuate="onRequest" xlink:href="file:////home/runner/work/BO4E-python/BO4E-python/docs/../.tox/docs/tmp/html/api/bo4e.enum.html" xlink:show="new" xlink:title="file:////home/runner/work/BO4E-python/BO4E-python/docs/../.tox/docs/tmp/html/api/bo4e.enum.html" xlink:type="simple"><text fill="#0000FF" font-family="sans-serif" font-size="14" font-weight="bold" lengthAdjust="spacing" text-decoration="underline" textLength="88.2109" x="570.46" y="176.9951">bo4e.enum</text></a></g><!--class Preisblatt--><g class="entity" data-entity="Preisblatt" data-source-line="10" data-uid="ent0004" id="entity_Preisblatt"><rect fill="#F1F1F1" height="37.9375" rx="2.5" ry="2.5" style="stroke:#181818;stroke-width:0.5;" width="123.499" x="622.5" y="84.03"/><ellipse cx="637.5" cy="102.9987" fill="#ADD1B2" rx="11" ry="11" style="stroke:#181818;stroke-width:1;"/><path d="M640.4688,108.6394 Q639.8906,108.9362 639.25,109.0769 Q638.6094,109.2331 637.9063,109.2331 Q635.4063,109.2331 634.0781,107.5925 Q632.7656,105.9362 632.7656,102.8112 Q632.7656,99.6862 634.0781,98.03 Q635.4063,96.3737 637.9063,96.3737 Q638.6094,96.3737 639.25,96.53 Q639.9063,96.6862 640.4688,96.9831 L640.4688,99.7019 Q639.8438,99.1237 639.25,98.8581 Q638.6563,98.5769 638.0313,98.5769 Q636.6875,98.5769 636,99.655 Q635.3125,100.7175 635.3125,102.8112 Q635.3125,104.905 636,105.9831 Q636.6875,107.0456 638.0313,107.0456 Q638.6563,107.0456 639.25,106.78 Q639.8438,106.4987 640.4688,105.9206 L640.4688,108.6394 Z " fill="#000000"/><a href="file:////home/runner/work/BO4E-python/BO4E-python/docs/../.tox/docs/tmp/html/api/bo4e.bo.html#bo4e.bo.preisblatt.Preisblatt" target="_top" title="file:////home/runner/work/BO4E-python/BO4E-python/docs/../.tox/docs/tmp/html/api/bo4e.bo.html#bo4e.bo.preisblatt.Preisblatt" xlink:actuate="onRequest" xlink:href="file:////home/runner/work/BO4E-python/BO4E-python/docs/../.tox/docs/tmp/html/api/bo4e.bo.html#bo4e.bo.preisblatt.Preisblatt" xlink:show="new" xlink:title="file:////home/runner/work/BO4E-python/BO4E-python/docs/../.tox/docs/tmp/html/api/bo4e.bo.html#bo4e.bo.preisblatt.Preisblatt" xlink:type="simple"><text fill="#0000FF" font-family="sans-serif" font-size="14" lengthAdjust="spacing" text-decoration="underline" textLength="66.3291" x="664.085" y="102.0251">Preisblatt</text></a><text fill="#000000" font-family="sans-serif" font-size="10" lengthAdjust="spacing" textLength="91.499" x="651.5" y="114.6091">bo4e.bo.preisblatt</text></g><!--class Netzebene--><g class="entity" data-entity="Netzebene" data-source-line="13" data-uid="ent0007" id="entity_Netzebene"><rect fill="#F1F1F1" height="37.9375" rx="2.5" ry="2.5" style="stroke:#181818;stroke-width:0.5;" width="144.71" x="611.89" y="197.03"/><ellipse cx="626.89" cy="215.9988" fill="#ADD1B2" rx="11" ry="11" style="stroke:#181818;stroke-width:1;"/><path d="M629.8588,221.6394 Q629.2806,221.9363 628.64,222.0769 Q627.9994,222.2331 627.2963,222.2331 Q624.7963,222.2331 623.4681,220.5925 Q622.1556,218.9363 622.1556,215.8113 Q622.1556,212.6863 623.4681,211.03 Q624.7963,209.3738 627.2963,209.3738 Q627.9994,209.3738 628.64,209.53 Q629.2963,209.6863 629.8588,209.9831 L629.8588,212.7019 Q629.2338,212.1238 628.64,211.8581 Q628.0463,211.5769 627.4213,211.5769 Q626.0775,211.5769 625.39,212.655 Q624.7025,213.7175 624.7025,215.8113 Q624.7025,217.905 625.39,218.9831 Q626.0775,220.0456 627.4213,220.0456 Q628.0463,220.0456 628.64,219.78 Q629.2338,219.4988 629.8588,218.9206 L629.8588,221.6394 Z " fill="#000000"/><a href="file:////home/runner/work/BO4E-python/BO4E-python/docs/../.tox/docs/tmp/html/api/bo4e.enum.html#bo4e.enum.netzebene.Netzebene" target="_top" title="file:////home/runner/work/BO4E-python/BO4E-python/docs/../.tox/docs/tmp/html/api/bo4e.enum.html#bo4e.enum.netzebene.Netzebene" xlink:actuate="onRequest" xlink:href="file:////home/runner/work/BO4E-python/BO4E-python/docs/../.tox/docs/tmp/html/api/bo4e.enum.html#bo4e.enum.netzebene.Netzebene" xlink:show="new" xlink:title="file:////home/runner/work/BO4E-python/BO4E-python/docs/../.tox/docs/tmp/html/api/bo4e.enum.html#bo4e.enum.netzebene.Netzebene" xlink:type="simple"><text fill="#0000FF" font-family="sans-serif" font-size="14" lengthAdjust="spacing" text-decoration="underline" textLength="75.5234" x="659.4833" y="215.0251">Netzebene</text></a><text fill="#000000" font-family="sans-serif" font-size="10" lengthAdjust="spacing" textLength="112.71" x="640.89" y="227.6091">bo4e.enum.netzebene</text></g><!--class Bilanzierungsmethode--><g class="entity" data-entity="Bilanzierungsmethode" data-source-line="14" data-uid="ent0008" id="entity_Bilanzierungsmethode"><rect fill="#F1F1F1" height="37.9375" rx="2.5" ry="2.5" style="stroke:#181818;stroke-width:0.5;" width="203.5723" x="582.46" y="270.03"/><ellipse cx="597.46" cy="288.9988" fill="#ADD1B2" rx="11" ry="11" style="stroke:#181818;stroke-width:1;"/><path d="M600.4288,294.6394 Q599.8506,294.9363 599.21,295.0769 Q598.5694,295.2331 597.8663,295.2331 Q595.3663,295.2331 594.0381,293.5925 Q592.7256,291.9363 592.7256,288.8113 Q592.7256,285.6863 594.0381,284.03 Q595.3663,282.3738 597.8663,282.3738 Q598.5694,282.3738 599.21,282.53 Q599.8663,282.6863 600.4288,282.9831 L600.4288,285.7019 Q599.8038,285.1238 599.21,284.8581 Q598.6163,284.5769 597.9913,284.5769 Q596.6475,284.5769 595.96,285.655 Q595.2725,286.7175 595.2725,288.8113 Q595.2725,290.905 595.96,291.9831 Q596.6475,293.0456 597.9913,293.0456 Q598.6163,293.0456 599.21,292.78 Q599.8038,292.4988 600.4288,291.9206 L600.4288,294.6394 Z " fill="#000000"/><a href="file:////home/runner/work/BO4E-python/BO4E-python/docs/../.tox/docs/tmp/html/api/bo4e.enum.html#bo4e.enum.bilanzierungsmethode.Bilanzierungsmethode" target="_top" title="file:////home/runner/work/BO4E-python/BO4E-python/docs/../.tox/docs/tmp/html/api/bo4e.enum.html#bo4e.enum.bilanzierungsmethode.Bilanzierungsmethode" xlink:actuate="onRequest" xlink:href="file:////home/runner/work/BO4E-python/BO4E-python/docs/../.tox/docs/tmp/html/api/bo4e.enum.html#bo4e.enum.bilanzierungsmethode.Bilanzierungsmethode" xlink:show="new" xlink:title="file:////home/runner/work/BO4E-python/BO4E-python/docs/../.tox/docs/tmp/html/api/bo4e.enum.html#bo4e.enum.bilanzierungsmethode.Bilanzierungsmethode" xlink:type="simple"><text fill="#0000FF" font-family="sans-serif" font-size="14" lengthAdjust="spacing" text-decoration="underline" textLength="157.0488" x="618.7217" y="288.0251">Bilanzierungsmethode</text></a><text fill="#000000" font-family="sans-serif" font-size="10" lengthAdjust="spacing" textLength="171.5723" x="611.46" y="300.6091">bo4e.enum.bilanzierungsmethode</text></g><!--class Kundengruppe--><g class="entity" data-entity="Kundengruppe" data-source-line="15" data-uid="ent0009" id="entity_Kundengruppe"><rect fill="#F1F1F1" height="37.9375" rx="2.5" ry="2.5" style="stroke:#181818;stroke-width:0.5;" width="164.8564" x="601.82" y="343.03"/><ellipse cx="616.82" cy="361.9988" fill="#ADD1B2" rx="11" ry="11" style="stroke:#181818;stroke-width:1;"/><path d="M619.7888,367.6394 Q619.2106,367.9363 618.57,368.0769 Q617.9294,368.2331 617.2263,368.2331 Q614.7263,368.2331 613.3981,366.5925 Q612.0856,364.9363 612.0856,361.8113 Q612.0856,358.6863 613.3981,357.03 Q614.7263,355.3738 617.2263,355.3738 Q617.9294,355.3738 618.57,355.53 Q619.2263,355.6863 619.7888,355.9831 L619.7888,358.7019 Q619.1638,358.1238 618.57,357.8581 Q617.9763,357.5769 617.3513,357.5769 Q616.0075,357.5769 615.32,358.655 Q614.6325,359.7175 614.6325,361.8113 Q614.6325,363.905 615.32,364.9831 Q616.0075,366.0456 617.3513,366.0456 Q617.9763,366.0456 618.57,365.78 Q619.1638,365.4988 619.7888,364.9206 L619.7888,367.6394 Z " fill="#000000"/><a href="file:////home/runner/work/BO4E-python/BO4E-python/docs/../.tox/docs/tmp/html/api/bo4e.enum.html#bo4e.enum.kundengruppe.Kundengruppe" target="_top" title="file:////home/runner/work/BO4E-python/BO4E-python/docs/../.tox/docs/tmp/html/api/bo4e.enum.html#bo4e.enum.kundengruppe.Kundengruppe" xlink:actuate="onRequest" xlink:href="file:////home/runner/work/BO4E-python/BO4E-python/docs/../.tox/docs/tmp/html/api/bo4e.enum.html#bo4e.enum.kundengruppe.Kundengruppe" xlink:show="new" xlink:title="file:////home/runner/work/BO4E-python/BO4E-python/docs/../.tox/docs/tmp/html/api/bo4e.enum.html#bo4e.enum.kundengruppe.Kundengruppe" xlink:type="simple"><text fill="#0000FF" font-family="sans-serif" font-size="14" lengthAdjust="spacing" text-decoration="underline" textLength="103.2021" x="645.6471" y="361.0251">Kundengruppe</text></a><text fill="#000000" font-family="sans-serif" font-size="10" lengthAdjust="spacing" textLength="132.8564" x="630.82" y="373.6091">bo4e.enum.kundengruppe</text></g><!--class PreisblattNetznutzung--><g class="entity" data-entity="PreisblattNetznutzung" data-source-line="3" data-uid="ent0002" id="entity_PreisblattNetznutzung"><rect fill="#F1F1F1" height="94.8281" rx="2.5" ry="2.5" style="stroke:#181818;stroke-width:0.5;" width="342.4629" x="7" y="209.59"/><ellipse cx="96.2466" cy="228.5588" fill="#ADD1B2" rx="11" ry="11" style="stroke:#181818;stroke-width:1;"/><path d="M99.2153,234.1994 Q98.6372,234.4963 97.9966,234.6369 Q97.356,234.7931 96.6528,234.7931 Q94.1528,234.7931 92.8247,233.1525 Q91.5122,231.4963 91.5122,228.3713 Q91.5122,225.2463 92.8247,223.59 Q94.1528,221.9338 96.6528,221.9338 Q97.356,221.9338 97.9966,222.09 Q98.6528,222.2463 99.2153,222.5431 L99.2153,225.2619 Q98.5903,224.6838 97.9966,224.4181 Q97.4028,224.1369 96.7778,224.1369 Q95.4341,224.1369 94.7466,225.215 Q94.0591,226.2775 94.0591,228.3713 Q94.0591,230.465 94.7466,231.5431 Q95.4341,232.6056 96.7778,232.6056 Q97.4028,232.6056 97.9966,232.34 Q98.5903,232.0588 99.2153,231.4806 L99.2153,234.1994 Z " fill="#000000"/><a href="file:////home/runner/work/BO4E-python/BO4E-python/docs/../.tox/docs/tmp/html/api/bo4e.bo.html#bo4e.bo.preisblattnetznutzung.PreisblattNetznutzung" target="_top" title="file:////home/runner/work/BO4E-python/BO4E-python/docs/../.tox/docs/tmp/html/api/bo4e.bo.html#bo4e.bo.preisblattnetznutzung.PreisblattNetznutzung" xlink:actuate="onRequest" xlink:href="file:////home/runner/work/BO4E-python/BO4E-python/docs/../.tox/docs/tmp/html/api/bo4e.bo.html#bo4e.bo.preisblattnetznutzung.PreisblattNetznutzung" xlink:show="new" xlink:title="file:////home/runner/work/BO4E-python/BO4E-python/docs/../.tox/docs/tmp/html/api/bo4e.bo.html#bo4e.bo.preisblattnetznutzung.PreisblattNetznutzung" xlink:type="simple"><text fill="#0000FF" font-family="sans-serif" font-size="14" lengthAdjust="spacing" text-decoration="underline" textLength="155.4697" x="116.7466" y="227.5851">PreisblattNetznutzung</text></a><text fill="#000000" font-family="sans-serif" font-size="10" lengthAdjust="spacing" textLength="154.0283" x="117.4673" y="240.1691">bo4e.bo.preisblattnetznutzung</text><line style="stroke:#181818;stroke-width:0.5;" x1="8" x2="348.4629" y1="247.5275" y2="247.5275"/><text fill="#000000" font-family="sans-serif" font-size="14" lengthAdjust="spacing" textLength="330.4629" x="13" y="264.5226">_version : str [0..1] = 202501.0.0+gc3c78750c</text><text fill="#000000" font-family="sans-serif" font-size="14" lengthAdjust="spacing" textLength="318.5752" x="13" y="280.8195">zusatzAttribute : ZusatzAttribut [0..*] = None</text><text fill="#000000" font-family="sans-serif" font-size="14" lengthAdjust="spacing" textLength="151.1768" x="13" y="297.1164">_id : str [0..1] = None</text></g><!--link PreisblattNetznutzung to Preisblatt--><g class="link" data-entity-1="PreisblattNetznutzung" data-entity-2="Preisblatt" data-source-line="18" data-uid="lnk10" id="link_PreisblattNetznutzung_Preisblatt"><path codeLine="18" d="M335.94,209.12 C432.75,179.54 534.3459,148.5008 604.9259,126.9308" fill="none" id="PreisblattNetznutzung-to-Preisblatt" style="stroke:#181818;stroke-width:1;"/><polygon fill="none" points="622.14,121.67,603.1723,121.1928,606.6795,132.6688,622.14,121.67" style="stroke:#181818;stroke-width:1;"/></g><!--link PreisblattNetznutzung to Bilanzierungsmethode--><g class="link" data-entity-1="PreisblattNetznutzung" data-entity-2="Bilanzierungsmethode" data-source-line="19" data-uid="lnk11" id="link_PreisblattNetznutzung_Bilanzierungsmethode"><path codeLine="19" d="M349.82,277.58 C359.84,278.48 369.78,279.3 379.46,280 C446.96,284.87 511.0718,286.9111 570.2218,287.9411" fill="none" id="PreisblattNetznutzung-to-Bilanzierungsmethode" style="stroke:#181818;stroke-width:1;"/><polygon fill="#181818" points="582.22,288.15,576.2906,284.0461,570.2218,287.9411,576.1513,292.0449,582.22,288.15" style="stroke:#181818;stroke-width:1;"/><text fill="#000000" font-family="sans-serif" font-size="13" lengthAdjust="spacing" textLength="145.1646" x="380.46" y="276.0669">bilanzierungsmethode</text><text fill="#000000" font-family="sans-serif" font-size="13" lengthAdjust="spacing" textLength="24.8066" x="549.5208" y="300.7312">0..1</text></g><!--link PreisblattNetznutzung to Netzebene--><g class="link" data-entity-1="PreisblattNetznutzung" data-entity-2="Netzebene" data-source-line="20" data-uid="lnk12" id="link_PreisblattNetznutzung_Netzebene"><path codeLine="20" d="M349.87,243.12 C439.11,235.86 531.6495,228.3325 599.5395,222.8125" fill="none" id="PreisblattNetznutzung-to-Netzebene" style="stroke:#181818;stroke-width:1;"/><polygon fill="#181818" points="611.5,221.84,605.1956,218.3394,599.5395,222.8125,605.8439,226.3131,611.5,221.84" style="stroke:#181818;stroke-width:1;"/><text fill="#000000" font-family="sans-serif" font-size="13" lengthAdjust="spacing" textLength="68.6436" x="418.96" y="226.0669">netzebene</text><text fill="#000000" font-family="sans-serif" font-size="13" lengthAdjust="spacing" textLength="24.8066" x="579.1976" y="235.2267">0..1</text></g><!--link PreisblattNetznutzung to Kundengruppe--><g class="link" data-entity-1="PreisblattNetznutzung" data-entity-2="Kundengruppe" data-source-line="21" data-uid="lnk13" id="link_PreisblattNetznutzung_Kundengruppe"><path codeLine="21" d="M348.79,304.9 C359.14,307.41 369.43,309.8 379.46,312 C454.13,328.35 528.2938,340.3207 589.7038,349.2107" fill="none" id="PreisblattNetznutzung-to-Kundengruppe" style="stroke:#181818;stroke-width:1;"/><polygon fill="#181818" points="601.58,350.93,596.215,346.1116,589.7038,349.2107,595.0688,354.0291,601.58,350.93" style="stroke:#181818;stroke-width:1;"/><text fill="#000000" font-family="sans-serif" font-size="13" lengthAdjust="spacing" textLength="94.834" x="405.96" y="308.0669">kundengruppe</text><text fill="#000000" font-family="sans-serif" font-size="13" lengthAdjust="spacing" textLength="24.8066" x="568.89" y="362.674">0..1</text></g><!--SRC=[nLHDJ-Cm43tZNp5gRwngfq0fYW292auhTVTCDqBvc2OMYHtPphARXV-EawMf2mah3ajpydkPUVQy6KsEQmD6Wk9fPY3X2cF3fI0apaEjORHQhNcEFhDV9WjagX825NkGwfujlftSJChV9fDYvvp8M3DA6JNorrzWYf9bfiXPM78MoHEaaQGDCTw0KY7NKHuQ8z3KeZ9r9LBwlMENMnPwsI3u8Surhz6VUfVlgeuWrFqQy8SStFr4fQq3u8Cs2bOUfTC0Bk38EvfvK-fHxqiQ7yVpi_dCYyb1NUdGr5V6A1vL1ctMxGxJ2Xms0aifqChpvBLo- -E9414MgCimnl_kEho086YzU44mNfnUpw_E6XVsrdsdvKwF_j7SLnsrPdw2boYgmd6pWQwV3OPnCesFPv_XQFUQyHOsCuyH2gJBpGcwqrjBTtFQIhhelRm_udaeQexsZbGNQBKIf8iU4lh8WGBxHDjQ-pJsKlPz9H8KgQhA4kbN1u0B1ifpazkot9ncompirCdayNAp29oGeN0RVmYZPeEDjkFUtniV-Yp_cF1sVdte9lHZ4Zj6-k3wH4Z6xKCBB2Ax-udEv0CCQAyvveb-1W00]--></g></svg>