<?xml version="1.0" encoding="us-ascii" standalone="no"?><svg xmlns="http://www.w3.org/2000/svg" xmlns:xlink="http://www.w3.org/1999/xlink" contentStyleType="text/css" height="1125px" preserveAspectRatio="none" style="width:1015px;height:1125px;background:#FFFFFF;" version="1.1" viewBox="0 0 1015 1125" width="1015px" zoomAndPan="magnify"><defs/><g><!--cluster bo4e--><g id="cluster_bo4e"><path d="M707.5,6 L748.5,6 A3.75,3.75 0 0 1 751,8.5 L758,28.2969 L1005.5,28.2969 A2.5,2.5 0 0 1 1008,30.7969 L1008,1115.5 A2.5,2.5 0 0 1 1005.5,1118 L707.5,1118 A2.5,2.5 0 0 1 705,1115.5 L705,8.5 A2.5,2.5 0 0 1 707.5,6 " fill="none" style="stroke:#000000;stroke-width:1.5;"/><line style="stroke:#000000;stroke-width:1.5;" x1="705" x2="758" y1="28.2969" y2="28.2969"/><text fill="#000000" font-family="sans-serif" font-size="14" font-weight="bold" lengthAdjust="spacing" textLength="40" x="709" y="20.9951">bo4e</text></g><!--cluster bo--><g id="cluster_bo"><path d="M761.5,49 L827.5,49 A3.75,3.75 0 0 1 830,51.5 L837,71.2969 L951.5,71.2969 A2.5,2.5 0 0 1 954,73.7969 L954,354.5 A2.5,2.5 0 0 1 951.5,357 L761.5,357 A2.5,2.5 0 0 1 759,354.5 L759,51.5 A2.5,2.5 0 0 1 761.5,49 " fill="#B6D7A8" style="stroke:#000000;stroke-width:1.5;"/><line style="stroke:#000000;stroke-width:1.5;" x1="759" x2="837" y1="71.2969" y2="71.2969"/><a href="https://bo4e.github.io/BO4E-python/latest/api/bo4e.bo.html" target="_top" title="https://bo4e.github.io/BO4E-python/latest/api/bo4e.bo.html" xlink:actuate="onRequest" xlink:href="https://bo4e.github.io/BO4E-python/latest/api/bo4e.bo.html" xlink:show="new" xlink:title="https://bo4e.github.io/BO4E-python/latest/api/bo4e.bo.html" xlink:type="simple"><text fill="#0000FF" font-family="sans-serif" font-size="14" font-weight="bold" lengthAdjust="spacing" text-decoration="underline" textLength="65" x="763" y="63.9951">bo4e.bo</text></a></g><!--cluster com--><g id="cluster_com"><path d="M758,381 L837,381 A3.75,3.75 0 0 1 839.5,383.5 L846.5,403.2969 L955,403.2969 A2.5,2.5 0 0 1 957.5,405.7969 L957.5,686.5 A2.5,2.5 0 0 1 955,689 L758,689 A2.5,2.5 0 0 1 755.5,686.5 L755.5,383.5 A2.5,2.5 0 0 1 758,381 " fill="#E0A86C" style="stroke:#000000;stroke-width:1.5;"/><line style="stroke:#000000;stroke-width:1.5;" x1="755.5" x2="846.5" y1="403.2969" y2="403.2969"/><a href="https://bo4e.github.io/BO4E-python/latest/api/bo4e.com.html" target="_top" title="https://bo4e.github.io/BO4E-python/latest/api/bo4e.com.html" xlink:actuate="onRequest" xlink:href="https://bo4e.github.io/BO4E-python/latest/api/bo4e.com.html" xlink:show="new" xlink:title="https://bo4e.github.io/BO4E-python/latest/api/bo4e.com.html" xlink:type="simple"><text fill="#0000FF" font-family="sans-serif" font-size="14" font-weight="bold" lengthAdjust="spacing" text-decoration="underline" textLength="78" x="759.5" y="395.9951">bo4e.com</text></a></g><!--cluster enum--><g id="cluster_enum"><path d="M731.5,713 L821.5,713 A3.75,3.75 0 0 1 824,715.5 L831,735.2969 L981.5,735.2969 A2.5,2.5 0 0 1 984,737.7969 L984,1091.5 A2.5,2.5 0 0 1 981.5,1094 L731.5,1094 A2.5,2.5 0 0 1 729,1091.5 L729,715.5 A2.5,2.5 0 0 1 731.5,713 " fill="#D1C358" style="stroke:#000000;stroke-width:1.5;"/><line style="stroke:#000000;stroke-width:1.5;" x1="729" x2="831" y1="735.2969" y2="735.2969"/><a href="https://bo4e.github.io/BO4E-python/latest/api/bo4e.enum.html" target="_top" title="https://bo4e.github.io/BO4E-python/latest/api/bo4e.enum.html" xlink:actuate="onRequest" xlink:href="https://bo4e.github.io/BO4E-python/latest/api/bo4e.enum.html" xlink:show="new" xlink:title="https://bo4e.github.io/BO4E-python/latest/api/bo4e.enum.html" xlink:type="simple"><text fill="#0000FF" font-family="sans-serif" font-size="14" font-weight="bold" lengthAdjust="spacing" text-decoration="underline" textLength="89" x="733" y="727.9951">bo4e.enum</text></a></g><!--class Messlokation--><g id="elem_Messlokation"><rect codeLine="16" fill="#F1F1F1" height="37.9375" id="Messlokation" rx="2.5" ry="2.5" style="stroke:#181818;stroke-width:0.5;" width="137" x="788" y="84.03"/><ellipse cx="803" cy="102.9987" fill="#ADD1B2" rx="11" ry="11" style="stroke:#181818;stroke-width:1.0;"/><path d="M805.9688,108.6394 Q805.3906,108.9362 804.75,109.0769 Q804.1094,109.2331 803.4063,109.2331 Q800.9063,109.2331 799.5781,107.5925 Q798.2656,105.9362 798.2656,102.8112 Q798.2656,99.6862 799.5781,98.03 Q800.9063,96.3737 803.4063,96.3737 Q804.1094,96.3737 804.75,96.53 Q805.4063,96.6862 805.9688,96.9831 L805.9688,99.7019 Q805.3438,99.1237 804.75,98.8581 Q804.1563,98.5769 803.5313,98.5769 Q802.1875,98.5769 801.5,99.655 Q800.8125,100.7175 800.8125,102.8112 Q800.8125,104.905 801.5,105.9831 Q802.1875,107.0456 803.5313,107.0456 Q804.1563,107.0456 804.75,106.78 Q805.3438,106.4987 805.9688,105.9206 L805.9688,108.6394 Z " fill="#000000"/><a href="https://bo4e.github.io/BO4E-python/latest/api/bo4e.bo.html#bo4e.bo.messlokation.Messlokation" target="_top" title="https://bo4e.github.io/BO4E-python/latest/api/bo4e.bo.html#bo4e.bo.messlokation.Messlokation" xlink:actuate="onRequest" xlink:href="https://bo4e.github.io/BO4E-python/latest/api/bo4e.bo.html#bo4e.bo.messlokation.Messlokation" xlink:show="new" xlink:title="https://bo4e.github.io/BO4E-python/latest/api/bo4e.bo.html#bo4e.bo.messlokation.Messlokation" xlink:type="simple"><text fill="#0000FF" font-family="sans-serif" font-size="14" lengthAdjust="spacing" text-decoration="underline" textLength="91" x="824" y="102.0251">Messlokation</text></a><text fill="#000000" font-family="sans-serif" font-size="10" lengthAdjust="spacing" textLength="105" x="817" y="114.6091">bo4e.bo.messlokation</text></g><!--class Marktlokation--><g id="elem_Marktlokation"><rect codeLine="17" fill="#F1F1F1" height="37.9375" id="Marktlokation" rx="2.5" ry="2.5" style="stroke:#181818;stroke-width:0.5;" width="140" x="786.5" y="157.03"/><ellipse cx="801.5" cy="175.9987" fill="#ADD1B2" rx="11" ry="11" style="stroke:#181818;stroke-width:1.0;"/><path d="M804.4688,181.6394 Q803.8906,181.9362 803.25,182.0769 Q802.6094,182.2331 801.9063,182.2331 Q799.4063,182.2331 798.0781,180.5925 Q796.7656,178.9362 796.7656,175.8112 Q796.7656,172.6862 798.0781,171.03 Q799.4063,169.3737 801.9063,169.3737 Q802.6094,169.3737 803.25,169.53 Q803.9063,169.6862 804.4688,169.9831 L804.4688,172.7019 Q803.8438,172.1237 803.25,171.8581 Q802.6563,171.5769 802.0313,171.5769 Q800.6875,171.5769 800,172.655 Q799.3125,173.7175 799.3125,175.8112 Q799.3125,177.905 800,178.9831 Q800.6875,180.0456 802.0313,180.0456 Q802.6563,180.0456 803.25,179.78 Q803.8438,179.4987 804.4688,178.9206 L804.4688,181.6394 Z " fill="#000000"/><a href="https://bo4e.github.io/BO4E-python/latest/api/bo4e.bo.html#bo4e.bo.marktlokation.Marktlokation" target="_top" title="https://bo4e.github.io/BO4E-python/latest/api/bo4e.bo.html#bo4e.bo.marktlokation.Marktlokation" xlink:actuate="onRequest" xlink:href="https://bo4e.github.io/BO4E-python/latest/api/bo4e.bo.html#bo4e.bo.marktlokation.Marktlokation" xlink:show="new" xlink:title="https://bo4e.github.io/BO4E-python/latest/api/bo4e.bo.html#bo4e.bo.marktlokation.Marktlokation" xlink:type="simple"><text fill="#0000FF" font-family="sans-serif" font-size="14" lengthAdjust="spacing" text-decoration="underline" textLength="92" x="823.5" y="175.0251">Marktlokation</text></a><text fill="#000000" font-family="sans-serif" font-size="10" lengthAdjust="spacing" textLength="108" x="815.5" y="187.6091">bo4e.bo.marktlokation</text></g><!--class Geschaeftsobjekt--><g id="elem_Geschaeftsobjekt"><rect codeLine="18" fill="#F1F1F1" height="37.9375" id="Geschaeftsobjekt" rx="2.5" ry="2.5" style="stroke:#181818;stroke-width:0.5;" width="156" x="778.5" y="230.03"/><ellipse cx="793.5" cy="248.9987" fill="#ADD1B2" rx="11" ry="11" style="stroke:#181818;stroke-width:1.0;"/><path d="M796.4688,254.6394 Q795.8906,254.9362 795.25,255.0769 Q794.6094,255.2331 793.9063,255.2331 Q791.4063,255.2331 790.0781,253.5925 Q788.7656,251.9362 788.7656,248.8112 Q788.7656,245.6862 790.0781,244.03 Q791.4063,242.3737 793.9063,242.3737 Q794.6094,242.3737 795.25,242.53 Q795.9063,242.6862 796.4688,242.9831 L796.4688,245.7019 Q795.8438,245.1237 795.25,244.8581 Q794.6563,244.5769 794.0313,244.5769 Q792.6875,244.5769 792,245.655 Q791.3125,246.7175 791.3125,248.8112 Q791.3125,250.905 792,251.9831 Q792.6875,253.0456 794.0313,253.0456 Q794.6563,253.0456 795.25,252.78 Q795.8438,252.4987 796.4688,251.9206 L796.4688,254.6394 Z " fill="#000000"/><a href="https://bo4e.github.io/BO4E-python/latest/api/bo4e.bo.html#bo4e.bo.geschaeftsobjekt.Geschaeftsobjekt" target="_top" title="https://bo4e.github.io/BO4E-python/latest/api/bo4e.bo.html#bo4e.bo.geschaeftsobjekt.Geschaeftsobjekt" xlink:actuate="onRequest" xlink:href="https://bo4e.github.io/BO4E-python/latest/api/bo4e.bo.html#bo4e.bo.geschaeftsobjekt.Geschaeftsobjekt" xlink:show="new" xlink:title="https://bo4e.github.io/BO4E-python/latest/api/bo4e.bo.html#bo4e.bo.geschaeftsobjekt.Geschaeftsobjekt" xlink:type="simple"><text fill="#0000FF" font-family="sans-serif" font-size="14" lengthAdjust="spacing" text-decoration="underline" textLength="122" x="808.5" y="248.0251">Geschaeftsobjekt</text></a><text fill="#000000" font-family="sans-serif" font-size="10" lengthAdjust="spacing" textLength="124" x="807.5" y="260.6091">bo4e.bo.geschaeftsobjekt</text></g><!--class Geschaeftspartner--><g id="elem_Geschaeftspartner"><rect codeLine="19" fill="#F1F1F1" height="37.9375" id="Geschaeftspartner" rx="2.5" ry="2.5" style="stroke:#181818;stroke-width:0.5;" width="163" x="775" y="303.03"/><ellipse cx="790" cy="321.9988" fill="#ADD1B2" rx="11" ry="11" style="stroke:#181818;stroke-width:1.0;"/><path d="M792.9688,327.6394 Q792.3906,327.9363 791.75,328.0769 Q791.1094,328.2331 790.4063,328.2331 Q787.9063,328.2331 786.5781,326.5925 Q785.2656,324.9363 785.2656,321.8113 Q785.2656,318.6863 786.5781,317.03 Q787.9063,315.3738 790.4063,315.3738 Q791.1094,315.3738 791.75,315.53 Q792.4063,315.6863 792.9688,315.9831 L792.9688,318.7019 Q792.3438,318.1238 791.75,317.8581 Q791.1563,317.5769 790.5313,317.5769 Q789.1875,317.5769 788.5,318.655 Q787.8125,319.7175 787.8125,321.8113 Q787.8125,323.905 788.5,324.9831 Q789.1875,326.0456 790.5313,326.0456 Q791.1563,326.0456 791.75,325.78 Q792.3438,325.4988 792.9688,324.9206 L792.9688,327.6394 Z " fill="#000000"/><a href="https://bo4e.github.io/BO4E-python/latest/api/bo4e.bo.html#bo4e.bo.geschaeftspartner.Geschaeftspartner" target="_top" title="https://bo4e.github.io/BO4E-python/latest/api/bo4e.bo.html#bo4e.bo.geschaeftspartner.Geschaeftspartner" xlink:actuate="onRequest" xlink:href="https://bo4e.github.io/BO4E-python/latest/api/bo4e.bo.html#bo4e.bo.geschaeftspartner.Geschaeftspartner" xlink:show="new" xlink:title="https://bo4e.github.io/BO4E-python/latest/api/bo4e.bo.html#bo4e.bo.geschaeftspartner.Geschaeftspartner" xlink:type="simple"><text fill="#0000FF" font-family="sans-serif" font-size="14" lengthAdjust="spacing" text-decoration="underline" textLength="129" x="805" y="321.0251">Geschaeftspartner</text></a><text fill="#000000" font-family="sans-serif" font-size="10" lengthAdjust="spacing" textLength="131" x="804" y="333.6091">bo4e.bo.geschaeftspartner</text></g><!--class Steuerbetrag--><g id="elem_Steuerbetrag"><rect codeLine="22" fill="#F1F1F1" height="37.9375" id="Steuerbetrag" rx="2.5" ry="2.5" style="stroke:#181818;stroke-width:0.5;" width="146" x="783.5" y="416.03"/><ellipse cx="798.5" cy="434.9988" fill="#ADD1B2" rx="11" ry="11" style="stroke:#181818;stroke-width:1.0;"/><path d="M801.4688,440.6394 Q800.8906,440.9363 800.25,441.0769 Q799.6094,441.2331 798.9063,441.2331 Q796.4063,441.2331 795.0781,439.5925 Q793.7656,437.9363 793.7656,434.8113 Q793.7656,431.6863 795.0781,430.03 Q796.4063,428.3738 798.9063,428.3738 Q799.6094,428.3738 800.25,428.53 Q800.9063,428.6863 801.4688,428.9831 L801.4688,431.7019 Q800.8438,431.1238 800.25,430.8581 Q799.6563,430.5769 799.0313,430.5769 Q797.6875,430.5769 797,431.655 Q796.3125,432.7175 796.3125,434.8113 Q796.3125,436.905 797,437.9831 Q797.6875,439.0456 799.0313,439.0456 Q799.6563,439.0456 800.25,438.78 Q800.8438,438.4988 801.4688,437.9206 L801.4688,440.6394 Z " fill="#000000"/><a href="https://bo4e.github.io/BO4E-python/latest/api/bo4e.com.html#bo4e.com.steuerbetrag.Steuerbetrag" target="_top" title="https://bo4e.github.io/BO4E-python/latest/api/bo4e.com.html#bo4e.com.steuerbetrag.Steuerbetrag" xlink:actuate="onRequest" xlink:href="https://bo4e.github.io/BO4E-python/latest/api/bo4e.com.html#bo4e.com.steuerbetrag.Steuerbetrag" xlink:show="new" xlink:title="https://bo4e.github.io/BO4E-python/latest/api/bo4e.com.html#bo4e.com.steuerbetrag.Steuerbetrag" xlink:type="simple"><text fill="#0000FF" font-family="sans-serif" font-size="14" lengthAdjust="spacing" text-decoration="underline" textLength="91" x="824" y="434.0251">Steuerbetrag</text></a><text fill="#000000" font-family="sans-serif" font-size="10" lengthAdjust="spacing" textLength="114" x="812.5" y="446.6091">bo4e.com.steuerbetrag</text></g><!--class Betrag--><g id="elem_Betrag"><rect codeLine="23" fill="#F1F1F1" height="37.9375" id="Betrag" rx="2.5" ry="2.5" style="stroke:#181818;stroke-width:0.5;" width="115" x="799" y="489.03"/><ellipse cx="814" cy="507.9988" fill="#ADD1B2" rx="11" ry="11" style="stroke:#181818;stroke-width:1.0;"/><path d="M816.9688,513.6394 Q816.3906,513.9363 815.75,514.0769 Q815.1094,514.2331 814.4063,514.2331 Q811.9063,514.2331 810.5781,512.5925 Q809.2656,510.9363 809.2656,507.8113 Q809.2656,504.6863 810.5781,503.03 Q811.9063,501.3738 814.4063,501.3738 Q815.1094,501.3738 815.75,501.53 Q816.4063,501.6863 816.9688,501.9831 L816.9688,504.7019 Q816.3438,504.1238 815.75,503.8581 Q815.1563,503.5769 814.5313,503.5769 Q813.1875,503.5769 812.5,504.655 Q811.8125,505.7175 811.8125,507.8113 Q811.8125,509.905 812.5,510.9831 Q813.1875,512.0456 814.5313,512.0456 Q815.1563,512.0456 815.75,511.78 Q816.3438,511.4988 816.9688,510.9206 L816.9688,513.6394 Z " fill="#000000"/><a href="https://bo4e.github.io/BO4E-python/latest/api/bo4e.com.html#bo4e.com.betrag.Betrag" target="_top" title="https://bo4e.github.io/BO4E-python/latest/api/bo4e.com.html#bo4e.com.betrag.Betrag" xlink:actuate="onRequest" xlink:href="https://bo4e.github.io/BO4E-python/latest/api/bo4e.com.html#bo4e.com.betrag.Betrag" xlink:show="new" xlink:title="https://bo4e.github.io/BO4E-python/latest/api/bo4e.com.html#bo4e.com.betrag.Betrag" xlink:type="simple"><text fill="#0000FF" font-family="sans-serif" font-size="14" lengthAdjust="spacing" text-decoration="underline" textLength="46" x="846.5" y="507.0251">Betrag</text></a><text fill="#000000" font-family="sans-serif" font-size="10" lengthAdjust="spacing" textLength="83" x="828" y="519.6091">bo4e.com.betrag</text></g><!--class Zeitraum--><g id="elem_Zeitraum"><rect codeLine="24" fill="#F1F1F1" height="37.9375" id="Zeitraum" rx="2.5" ry="2.5" style="stroke:#181818;stroke-width:0.5;" width="126" x="793.5" y="562.03"/><ellipse cx="808.5" cy="580.9988" fill="#ADD1B2" rx="11" ry="11" style="stroke:#181818;stroke-width:1.0;"/><path d="M811.4688,586.6394 Q810.8906,586.9363 810.25,587.0769 Q809.6094,587.2331 808.9063,587.2331 Q806.4063,587.2331 805.0781,585.5925 Q803.7656,583.9363 803.7656,580.8113 Q803.7656,577.6863 805.0781,576.03 Q806.4063,574.3738 808.9063,574.3738 Q809.6094,574.3738 810.25,574.53 Q810.9063,574.6863 811.4688,574.9831 L811.4688,577.7019 Q810.8438,577.1238 810.25,576.8581 Q809.6563,576.5769 809.0313,576.5769 Q807.6875,576.5769 807,577.655 Q806.3125,578.7175 806.3125,580.8113 Q806.3125,582.905 807,583.9831 Q807.6875,585.0456 809.0313,585.0456 Q809.6563,585.0456 810.25,584.78 Q810.8438,584.4988 811.4688,583.9206 L811.4688,586.6394 Z " fill="#000000"/><a href="https://bo4e.github.io/BO4E-python/latest/api/bo4e.com.html#bo4e.com.zeitraum.Zeitraum" target="_top" title="https://bo4e.github.io/BO4E-python/latest/api/bo4e.com.html#bo4e.com.zeitraum.Zeitraum" xlink:actuate="onRequest" xlink:href="https://bo4e.github.io/BO4E-python/latest/api/bo4e.com.html#bo4e.com.zeitraum.Zeitraum" xlink:show="new" xlink:title="https://bo4e.github.io/BO4E-python/latest/api/bo4e.com.html#bo4e.com.zeitraum.Zeitraum" xlink:type="simple"><text fill="#0000FF" font-family="sans-serif" font-size="14" lengthAdjust="spacing" text-decoration="underline" textLength="62" x="838.5" y="580.0251">Zeitraum</text></a><text fill="#000000" font-family="sans-serif" font-size="10" lengthAdjust="spacing" textLength="94" x="822.5" y="592.6091">bo4e.com.zeitraum</text></g><!--class Rechnungsposition--><g id="elem_Rechnungsposition"><rect codeLine="25" fill="#F1F1F1" height="37.9375" id="Rechnungsposition" rx="2.5" ry="2.5" style="stroke:#181818;stroke-width:0.5;" width="170" x="771.5" y="635.03"/><ellipse cx="786.5" cy="653.9988" fill="#ADD1B2" rx="11" ry="11" style="stroke:#181818;stroke-width:1.0;"/><path d="M789.4688,659.6394 Q788.8906,659.9363 788.25,660.0769 Q787.6094,660.2331 786.9063,660.2331 Q784.4063,660.2331 783.0781,658.5925 Q781.7656,656.9363 781.7656,653.8113 Q781.7656,650.6863 783.0781,649.03 Q784.4063,647.3738 786.9063,647.3738 Q787.6094,647.3738 788.25,647.53 Q788.9063,647.6863 789.4688,647.9831 L789.4688,650.7019 Q788.8438,650.1238 788.25,649.8581 Q787.6563,649.5769 787.0313,649.5769 Q785.6875,649.5769 785,650.655 Q784.3125,651.7175 784.3125,653.8113 Q784.3125,655.905 785,656.9831 Q785.6875,658.0456 787.0313,658.0456 Q787.6563,658.0456 788.25,657.78 Q788.8438,657.4988 789.4688,656.9206 L789.4688,659.6394 Z " fill="#000000"/><a href="https://bo4e.github.io/BO4E-python/latest/api/bo4e.com.html#bo4e.com.rechnungsposition.Rechnungsposition" target="_top" title="https://bo4e.github.io/BO4E-python/latest/api/bo4e.com.html#bo4e.com.rechnungsposition.Rechnungsposition" xlink:actuate="onRequest" xlink:href="https://bo4e.github.io/BO4E-python/latest/api/bo4e.com.html#bo4e.com.rechnungsposition.Rechnungsposition" xlink:show="new" xlink:title="https://bo4e.github.io/BO4E-python/latest/api/bo4e.com.html#bo4e.com.rechnungsposition.Rechnungsposition" xlink:type="simple"><text fill="#0000FF" font-family="sans-serif" font-size="14" lengthAdjust="spacing" text-decoration="underline" textLength="135" x="802" y="653.0251">Rechnungsposition</text></a><text fill="#000000" font-family="sans-serif" font-size="10" lengthAdjust="spacing" textLength="138" x="800.5" y="665.6091">bo4e.com.rechnungsposition</text></g><!--class Rechnungstyp--><g id="elem_Rechnungstyp"><rect codeLine="28" fill="#F1F1F1" height="37.9375" id="Rechnungstyp" rx="2.5" ry="2.5" style="stroke:#181818;stroke-width:0.5;" width="156" x="778.5" y="748.03"/><ellipse cx="793.5" cy="766.9988" fill="#ADD1B2" rx="11" ry="11" style="stroke:#181818;stroke-width:1.0;"/><path d="M796.4688,772.6394 Q795.8906,772.9363 795.25,773.0769 Q794.6094,773.2331 793.9063,773.2331 Q791.4063,773.2331 790.0781,771.5925 Q788.7656,769.9363 788.7656,766.8113 Q788.7656,763.6863 790.0781,762.03 Q791.4063,760.3738 793.9063,760.3738 Q794.6094,760.3738 795.25,760.53 Q795.9063,760.6863 796.4688,760.9831 L796.4688,763.7019 Q795.8438,763.1238 795.25,762.8581 Q794.6563,762.5769 794.0313,762.5769 Q792.6875,762.5769 792,763.655 Q791.3125,764.7175 791.3125,766.8113 Q791.3125,768.905 792,769.9831 Q792.6875,771.0456 794.0313,771.0456 Q794.6563,771.0456 795.25,770.78 Q795.8438,770.4988 796.4688,769.9206 L796.4688,772.6394 Z " fill="#000000"/><a href="https://bo4e.github.io/BO4E-python/latest/api/bo4e.enum.html#bo4e.enum.rechnungstyp.Rechnungstyp" target="_top" title="https://bo4e.github.io/BO4E-python/latest/api/bo4e.enum.html#bo4e.enum.rechnungstyp.Rechnungstyp" xlink:actuate="onRequest" xlink:href="https://bo4e.github.io/BO4E-python/latest/api/bo4e.enum.html#bo4e.enum.rechnungstyp.Rechnungstyp" xlink:show="new" xlink:title="https://bo4e.github.io/BO4E-python/latest/api/bo4e.enum.html#bo4e.enum.rechnungstyp.Rechnungstyp" xlink:type="simple"><text fill="#0000FF" font-family="sans-serif" font-size="14" lengthAdjust="spacing" text-decoration="underline" textLength="101" x="819" y="766.0251">Rechnungstyp</text></a><text fill="#000000" font-family="sans-serif" font-size="10" lengthAdjust="spacing" textLength="124" x="807.5" y="778.6091">bo4e.enum.rechnungstyp</text></g><!--class Sparte--><g id="elem_Sparte"><rect codeLine="29" fill="#F1F1F1" height="37.9375" id="Sparte" rx="2.5" ry="2.5" style="stroke:#181818;stroke-width:0.5;" width="121" x="796" y="821.03"/><ellipse cx="811" cy="839.9988" fill="#ADD1B2" rx="11" ry="11" style="stroke:#181818;stroke-width:1.0;"/><path d="M813.9688,845.6394 Q813.3906,845.9363 812.75,846.0769 Q812.1094,846.2331 811.4063,846.2331 Q808.9063,846.2331 807.5781,844.5925 Q806.2656,842.9363 806.2656,839.8113 Q806.2656,836.6863 807.5781,835.03 Q808.9063,833.3738 811.4063,833.3738 Q812.1094,833.3738 812.75,833.53 Q813.4063,833.6863 813.9688,833.9831 L813.9688,836.7019 Q813.3438,836.1238 812.75,835.8581 Q812.1563,835.5769 811.5313,835.5769 Q810.1875,835.5769 809.5,836.655 Q808.8125,837.7175 808.8125,839.8113 Q808.8125,841.905 809.5,842.9831 Q810.1875,844.0456 811.5313,844.0456 Q812.1563,844.0456 812.75,843.78 Q813.3438,843.4988 813.9688,842.9206 L813.9688,845.6394 Z " fill="#000000"/><a href="https://bo4e.github.io/BO4E-python/latest/api/bo4e.enum.html#bo4e.enum.sparte.Sparte" target="_top" title="https://bo4e.github.io/BO4E-python/latest/api/bo4e.enum.html#bo4e.enum.sparte.Sparte" xlink:actuate="onRequest" xlink:href="https://bo4e.github.io/BO4E-python/latest/api/bo4e.enum.html#bo4e.enum.sparte.Sparte" xlink:show="new" xlink:title="https://bo4e.github.io/BO4E-python/latest/api/bo4e.enum.html#bo4e.enum.sparte.Sparte" xlink:type="simple"><text fill="#0000FF" font-family="sans-serif" font-size="14" lengthAdjust="spacing" text-decoration="underline" textLength="45" x="847" y="839.0251">Sparte</text></a><text fill="#000000" font-family="sans-serif" font-size="10" lengthAdjust="spacing" textLength="89" x="825" y="851.6091">bo4e.enum.sparte</text></g><!--class Rechnungsstatus--><g id="elem_Rechnungsstatus"><rect codeLine="30" fill="#F1F1F1" height="37.9375" id="Rechnungsstatus" rx="2.5" ry="2.5" style="stroke:#181818;stroke-width:0.5;" width="170" x="771.5" y="894.03"/><ellipse cx="786.5" cy="912.9988" fill="#ADD1B2" rx="11" ry="11" style="stroke:#181818;stroke-width:1.0;"/><path d="M789.4688,918.6394 Q788.8906,918.9363 788.25,919.0769 Q787.6094,919.2331 786.9063,919.2331 Q784.4063,919.2331 783.0781,917.5925 Q781.7656,915.9363 781.7656,912.8113 Q781.7656,909.6863 783.0781,908.03 Q784.4063,906.3738 786.9063,906.3738 Q787.6094,906.3738 788.25,906.53 Q788.9063,906.6863 789.4688,906.9831 L789.4688,909.7019 Q788.8438,909.1238 788.25,908.8581 Q787.6563,908.5769 787.0313,908.5769 Q785.6875,908.5769 785,909.655 Q784.3125,910.7175 784.3125,912.8113 Q784.3125,914.905 785,915.9831 Q785.6875,917.0456 787.0313,917.0456 Q787.6563,917.0456 788.25,916.78 Q788.8438,916.4988 789.4688,915.9206 L789.4688,918.6394 Z " fill="#000000"/><a href="https://bo4e.github.io/BO4E-python/latest/api/bo4e.enum.html#bo4e.enum.rechnungsstatus.Rechnungsstatus" target="_top" title="https://bo4e.github.io/BO4E-python/latest/api/bo4e.enum.html#bo4e.enum.rechnungsstatus.Rechnungsstatus" xlink:actuate="onRequest" xlink:href="https://bo4e.github.io/BO4E-python/latest/api/bo4e.enum.html#bo4e.enum.rechnungsstatus.Rechnungsstatus" xlink:show="new" xlink:title="https://bo4e.github.io/BO4E-python/latest/api/bo4e.enum.html#bo4e.enum.rechnungsstatus.Rechnungsstatus" xlink:type="simple"><text fill="#0000FF" font-family="sans-serif" font-size="14" lengthAdjust="spacing" text-decoration="underline" textLength="123" x="808" y="912.0251">Rechnungsstatus</text></a><text fill="#000000" font-family="sans-serif" font-size="10" lengthAdjust="spacing" textLength="138" x="800.5" y="924.6091">bo4e.enum.rechnungsstatus</text></g><!--class NetznutzungRechnungstyp--><g id="elem_NetznutzungRechnungstyp"><rect codeLine="31" fill="#F1F1F1" height="37.9375" id="NetznutzungRechnungstyp" rx="2.5" ry="2.5" style="stroke:#181818;stroke-width:0.5;" width="223" x="745" y="967.03"/><ellipse cx="760" cy="985.9988" fill="#ADD1B2" rx="11" ry="11" style="stroke:#181818;stroke-width:1.0;"/><path d="M762.9688,991.6394 Q762.3906,991.9363 761.75,992.0769 Q761.1094,992.2331 760.4063,992.2331 Q757.9063,992.2331 756.5781,990.5925 Q755.2656,988.9363 755.2656,985.8113 Q755.2656,982.6863 756.5781,981.03 Q757.9063,979.3738 760.4063,979.3738 Q761.1094,979.3738 761.75,979.53 Q762.4063,979.6863 762.9688,979.9831 L762.9688,982.7019 Q762.3438,982.1238 761.75,981.8581 Q761.1563,981.5769 760.5313,981.5769 Q759.1875,981.5769 758.5,982.655 Q757.8125,983.7175 757.8125,985.8113 Q757.8125,987.905 758.5,988.9831 Q759.1875,990.0456 760.5313,990.0456 Q761.1563,990.0456 761.75,989.78 Q762.3438,989.4988 762.9688,988.9206 L762.9688,991.6394 Z " fill="#000000"/><a href="https://bo4e.github.io/BO4E-python/latest/api/bo4e.enum.html#bo4e.enum.netznutzungrechnungstyp.NetznutzungRechnungstyp" target="_top" title="https://bo4e.github.io/BO4E-python/latest/api/bo4e.enum.html#bo4e.enum.netznutzungrechnungstyp.NetznutzungRechnungstyp" xlink:actuate="onRequest" xlink:href="https://bo4e.github.io/BO4E-python/latest/api/bo4e.enum.html#bo4e.enum.netznutzungrechnungstyp.NetznutzungRechnungstyp" xlink:show="new" xlink:title="https://bo4e.github.io/BO4E-python/latest/api/bo4e.enum.html#bo4e.enum.netznutzungrechnungstyp.NetznutzungRechnungstyp" xlink:type="simple"><text fill="#0000FF" font-family="sans-serif" font-size="14" lengthAdjust="spacing" text-decoration="underline" textLength="191" x="774" y="985.0251">NetznutzungRechnungstyp</text></a><text fill="#000000" font-family="sans-serif" font-size="10" lengthAdjust="spacing" textLength="184" x="777.5" y="997.6091">bo4e.enum.netznutzungrechnungstyp</text></g><!--class NetznutzungRechnungsart--><g id="elem_NetznutzungRechnungsart"><rect codeLine="32" fill="#F1F1F1" height="37.9375" id="NetznutzungRechnungsart" rx="2.5" ry="2.5" style="stroke:#181818;stroke-width:0.5;" width="220" x="746.5" y="1040.03"/><ellipse cx="761.5" cy="1058.9988" fill="#ADD1B2" rx="11" ry="11" style="stroke:#181818;stroke-width:1.0;"/><path d="M764.4688,1064.6394 Q763.8906,1064.9363 763.25,1065.0769 Q762.6094,1065.2331 761.9063,1065.2331 Q759.4063,1065.2331 758.0781,1063.5925 Q756.7656,1061.9363 756.7656,1058.8113 Q756.7656,1055.6863 758.0781,1054.03 Q759.4063,1052.3738 761.9063,1052.3738 Q762.6094,1052.3738 763.25,1052.53 Q763.9063,1052.6863 764.4688,1052.9831 L764.4688,1055.7019 Q763.8438,1055.1238 763.25,1054.8581 Q762.6563,1054.5769 762.0313,1054.5769 Q760.6875,1054.5769 760,1055.655 Q759.3125,1056.7175 759.3125,1058.8113 Q759.3125,1060.905 760,1061.9831 Q760.6875,1063.0456 762.0313,1063.0456 Q762.6563,1063.0456 763.25,1062.78 Q763.8438,1062.4988 764.4688,1061.9206 L764.4688,1064.6394 Z " fill="#000000"/><a href="https://bo4e.github.io/BO4E-python/latest/api/bo4e.enum.html#bo4e.enum.netznutzungrechnungsart.NetznutzungRechnungsart" target="_top" title="https://bo4e.github.io/BO4E-python/latest/api/bo4e.enum.html#bo4e.enum.netznutzungrechnungsart.NetznutzungRechnungsart" xlink:actuate="onRequest" xlink:href="https://bo4e.github.io/BO4E-python/latest/api/bo4e.enum.html#bo4e.enum.netznutzungrechnungsart.NetznutzungRechnungsart" xlink:show="new" xlink:title="https://bo4e.github.io/BO4E-python/latest/api/bo4e.enum.html#bo4e.enum.netznutzungrechnungsart.NetznutzungRechnungsart" xlink:type="simple"><text fill="#0000FF" font-family="sans-serif" font-size="14" lengthAdjust="spacing" text-decoration="underline" textLength="188" x="775.5" y="1058.0251">NetznutzungRechnungsart</text></a><text fill="#000000" font-family="sans-serif" font-size="10" lengthAdjust="spacing" textLength="182" x="778.5" y="1070.6091">bo4e.enum.netznutzungrechnungsart</text></g><!--class Rechnung--><g id="elem_Rechnung"><rect codeLine="3" fill="#F1F1F1" height="192.6094" id="Rechnung" rx="2.5" ry="2.5" style="stroke:#181818;stroke-width:0.5;" width="483" x="7" y="449.7"/><ellipse cx="200.75" cy="468.6688" fill="#ADD1B2" rx="11" ry="11" style="stroke:#181818;stroke-width:1.0;"/><path d="M203.7188,474.3094 Q203.1406,474.6063 202.5,474.7469 Q201.8594,474.9031 201.1563,474.9031 Q198.6563,474.9031 197.3281,473.2625 Q196.0156,471.6063 196.0156,468.4813 Q196.0156,465.3563 197.3281,463.7 Q198.6563,462.0438 201.1563,462.0438 Q201.8594,462.0438 202.5,462.2 Q203.1563,462.3563 203.7188,462.6531 L203.7188,465.3719 Q203.0938,464.7938 202.5,464.5281 Q201.9063,464.2469 201.2813,464.2469 Q199.9375,464.2469 199.25,465.325 Q198.5625,466.3875 198.5625,468.4813 Q198.5625,470.575 199.25,471.6531 Q199.9375,472.7156 201.2813,472.7156 Q201.9063,472.7156 202.5,472.45 Q203.0938,472.1688 203.7188,471.5906 L203.7188,474.3094 Z " fill="#000000"/><a href="https://bo4e.github.io/BO4E-python/latest/api/bo4e.bo.html#bo4e.bo.rechnung.Rechnung" target="_top" title="https://bo4e.github.io/BO4E-python/latest/api/bo4e.bo.html#bo4e.bo.rechnung.Rechnung" xlink:actuate="onRequest" xlink:href="https://bo4e.github.io/BO4E-python/latest/api/bo4e.bo.html#bo4e.bo.rechnung.Rechnung" xlink:show="new" xlink:title="https://bo4e.github.io/BO4E-python/latest/api/bo4e.bo.html#bo4e.bo.rechnung.Rechnung" xlink:type="simple"><text fill="#0000FF" font-family="sans-serif" font-size="14" lengthAdjust="spacing" text-decoration="underline" textLength="72" x="228.75" y="467.6951">Rechnung</text></a><text fill="#000000" font-family="sans-serif" font-size="10" lengthAdjust="spacing" textLength="87" x="221.25" y="480.2791">bo4e.bo.rechnung</text><line style="stroke:#181818;stroke-width:0.5;" x1="8" x2="489" y1="487.6375" y2="487.6375"/><text fill="#000000" font-family="sans-serif" font-size="14" lengthAdjust="spacing" textLength="471" x="13" y="504.6326">_typ : Literal[&lt;Typ.RECHNUNG: 'RECHNUNG'&gt;] [1] = Typ.RECHNUNG</text><text fill="#000000" font-family="sans-serif" font-size="14" lengthAdjust="spacing" textLength="202" x="13" y="520.9295">istStorno : bool [0..1] = None</text><text fill="#000000" font-family="sans-serif" font-size="14" lengthAdjust="spacing" textLength="261" x="13" y="537.2264">rechnungsnummer : str [0..1] = None</text><text fill="#000000" font-family="sans-serif" font-size="14" lengthAdjust="spacing" textLength="334" x="13" y="553.5232">rechnungsdatum : AwareDatetime [0..1] = None</text><text fill="#000000" font-family="sans-serif" font-size="14" lengthAdjust="spacing" textLength="331" x="13" y="569.8201">faelligkeitsdatum : AwareDatetime [0..1] = None</text><text fill="#000000" font-family="sans-serif" font-size="14" lengthAdjust="spacing" textLength="228" x="13" y="586.117">rechnungstitel : str [0..1] = None</text><text fill="#000000" font-family="sans-serif" font-size="14" lengthAdjust="spacing" textLength="315" x="13" y="602.4139">originalRechnungsnummer : str [0..1] = None</text><text fill="#000000" font-family="sans-serif" font-size="14" lengthAdjust="spacing" textLength="207" x="13" y="618.7107">istOriginal : bool [0..1] = None</text><text fill="#000000" font-family="sans-serif" font-size="14" lengthAdjust="spacing" textLength="215" x="13" y="635.0076">istSimuliert : bool [0..1] = None</text></g><!--link Rechnung to Geschaeftsobjekt--><g id="link_Rechnung_Geschaeftsobjekt"><path codeLine="35" d="M291.56,449.43 C334.93,363.36 411.54,242.9 520,189 C587.26,155.57 627.78,145.48 689,189 C697.82,195.27 688.95,204.76 697,212 C719.06,231.85 731.9146,238.7436 760.3746,243.3836 " fill="none" id="Rechnung-to-Geschaeftsobjekt" style="stroke:#181818;stroke-width:1.0;"/><polygon fill="none" points="778.14,246.28,761.34,237.4618,759.4091,249.3054,778.14,246.28" style="stroke:#181818;stroke-width:1.0;"/></g><!--link Rechnung to Rechnungstyp--><g id="link_Rechnung_Rechnungstyp"><path codeLine="36" d="M310.69,642.53 C358.63,708.45 431.86,790.41 520,828 C589.09,857.46 628.07,871.92 689,828 C698.12,821.43 688.69,811.57 697,804 C718.93,784.01 737.6855,776.1256 766.1655,771.4956 " fill="none" id="Rechnung-to-Rechnungstyp" style="stroke:#181818;stroke-width:1.0;"/><polygon fill="#181818" points="778.01,769.57,771.4459,766.5846,766.1655,771.4956,772.7296,774.4809,778.01,769.57" style="stroke:#181818;stroke-width:1.0;"/><text fill="#000000" font-family="sans-serif" font-size="13" lengthAdjust="spacing" textLength="87" x="561" y="824.0669">rechnungstyp</text><text fill="#000000" font-family="sans-serif" font-size="13" lengthAdjust="spacing" textLength="24" x="746.5163" y="782.4764">0..1</text></g><!--link Rechnung to Zeitraum--><g id="link_Rechnung_Zeitraum"><path codeLine="37" d="M367.4,642.63 C412.37,673.66 465.89,704.1 520,720 C592.06,741.18 633.85,770.99 689,720 C705.69,704.56 682.18,635.24 697,618 C720.39,590.78 747.6126,582.3444 781.1726,579.8644 " fill="none" id="Rechnung-to-Zeitraum" style="stroke:#181818;stroke-width:1.0;"/><polygon fill="#181818" points="793.14,578.98,786.8615,575.4331,781.1726,579.8644,787.4511,583.4113,793.14,578.98" style="stroke:#181818;stroke-width:1.0;"/><text fill="#000000" font-family="sans-serif" font-size="13" lengthAdjust="spacing" textLength="115" x="547" y="716.0669">rechnungsperiode</text><text fill="#000000" font-family="sans-serif" font-size="13" lengthAdjust="spacing" textLength="24" x="761.3685" y="591.619">0..1</text></g><!--link Rechnung to Geschaeftspartner--><g id="link_Rechnung_Geschaeftspartner"><path codeLine="38" d="M304.36,449.55 C351.27,377.71 426.04,285.08 520,243 C588.55,212.3 631.13,195.11 689,243 C703.64,255.11 683.84,271.29 697,285 C717.06,305.9 734.6175,314.0521 762.6675,318.6421 " fill="none" id="Rechnung-to-Geschaeftspartner" style="stroke:#181818;stroke-width:1.0;"/><polygon fill="#181818" points="774.51,320.58,769.2347,315.6636,762.6675,318.6421,767.9428,323.5586,774.51,320.58" style="stroke:#181818;stroke-width:1.0;"/><text fill="#000000" font-family="sans-serif" font-size="13" lengthAdjust="spacing" textLength="119" x="545" y="210.0669">rechnungsersteller</text><text fill="#000000" font-family="sans-serif" font-size="13" lengthAdjust="spacing" textLength="24" x="743.0202" y="333.1368">0..1</text></g><!--link Rechnung to Geschaeftspartner--><g id="link_Rechnung_Geschaeftspartner"><path codeLine="39" d="M335.46,449.34 C384.26,401.84 449.58,349.44 520,324 C602.86,294.07 693.0166,297.2907 762.6666,306.1807 " fill="none" id="Rechnung-to-Geschaeftspartner-1" style="stroke:#181818;stroke-width:1.0;"/><polygon fill="#181818" points="774.57,307.7,769.1247,302.9725,762.6666,306.1807,768.1118,310.9081,774.57,307.7" style="stroke:#181818;stroke-width:1.0;"/><text fill="#000000" font-family="sans-serif" font-size="13" lengthAdjust="spacing" textLength="145" x="532" y="297.0669">rechnungsempfaenger</text><text fill="#000000" font-family="sans-serif" font-size="13" lengthAdjust="spacing" textLength="24" x="743.085" y="303.0351">0..1</text></g><!--link Rechnung to Betrag--><g id="link_Rechnung_Betrag"><path codeLine="40" d="M418.33,449.28 C451.1,434.68 485.89,421.88 520,414 C593.18,397.1 632.32,364.72 689,414 C708.31,430.78 679.74,452.12 697,471 C722.45,498.85 752.4825,506.9749 786.8625,509.0849 " fill="none" id="Rechnung-to-Betrag" style="stroke:#181818;stroke-width:1.0;"/><polygon fill="#181818" points="798.84,509.82,793.0963,505.46,786.8625,509.0849,792.6062,513.4449,798.84,509.82" style="stroke:#181818;stroke-width:1.0;"/><text fill="#000000" font-family="sans-serif" font-size="13" lengthAdjust="spacing" textLength="83" x="563" y="384.0669">gesamtnetto</text><text fill="#000000" font-family="sans-serif" font-size="13" lengthAdjust="spacing" textLength="24" x="766.7856" y="522.9723">0..1</text></g><!--link Rechnung to Betrag--><g id="link_Rechnung_Betrag"><path codeLine="41" d="M490.31,475.72 C500.3,473.92 510.22,472.33 520,471 C594.43,460.87 614.34,462.8 689,471 C725.94,475.06 755.0476,481.0827 786.9776,489.1727 " fill="none" id="Rechnung-to-Betrag-1" style="stroke:#181818;stroke-width:1.0;"/><polygon fill="#181818" points="798.61,492.12,793.7762,486.7689,786.9776,489.1727,791.8114,494.5238,798.61,492.12" style="stroke:#181818;stroke-width:1.0;"/><text fill="#000000" font-family="sans-serif" font-size="13" lengthAdjust="spacing" textLength="90" x="559.5" y="461.0669">gesamtsteuer</text><text fill="#000000" font-family="sans-serif" font-size="13" lengthAdjust="spacing" textLength="24" x="766.9658" y="486.6371">0..1</text></g><!--link Rechnung to Betrag--><g id="link_Rechnung_Betrag"><path codeLine="42" d="M490.26,529.89 C500.31,529.25 510.25,528.61 520,528 C617.83,521.83 719.77,515.8328 786.52,511.9728 " fill="none" id="Rechnung-to-Betrag-2" style="stroke:#181818;stroke-width:1.0;"/><polygon fill="#181818" points="798.5,511.28,792.2791,507.6331,786.52,511.9728,792.7409,515.6197,798.5,511.28" style="stroke:#181818;stroke-width:1.0;"/><text fill="#000000" font-family="sans-serif" font-size="13" lengthAdjust="spacing" textLength="88" x="560.5" y="514.0669">gesamtbrutto</text><text fill="#000000" font-family="sans-serif" font-size="13" lengthAdjust="spacing" textLength="24" x="766.8438" y="507.8927">0..1</text></g><!--link Rechnung to Betrag--><g id="link_Rechnung_Betrag"><path codeLine="43" d="M490.46,584.33 C556.85,585.78 627.49,578.48 689,553 C693.65,551.08 692.61,547.44 697,545 C728.24,527.63 755.4523,520.2328 786.9823,515.3328 " fill="none" id="Rechnung-to-Betrag-3" style="stroke:#181818;stroke-width:1.0;"/><polygon fill="#181818" points="798.84,513.49,792.2969,510.4588,786.9823,515.3328,793.5254,518.3639,798.84,513.49" style="stroke:#181818;stroke-width:1.0;"/><text fill="#000000" font-family="sans-serif" font-size="13" lengthAdjust="spacing" textLength="60" x="574.5" y="549.0669">zuZahlen</text><text fill="#000000" font-family="sans-serif" font-size="13" lengthAdjust="spacing" textLength="24" x="766.7856" y="527.0667">0..1</text></g><!--link Rechnung to Betrag--><g id="link_Rechnung_Betrag"><path codeLine="44" d="M490.25,613.34 C575.48,630.57 657.96,637.46 689,610 C710.8,590.72 677.55,566.65 697,545 C722.21,516.94 752.2512,508.793 786.6912,506.743 " fill="none" id="Rechnung-to-Betrag-4" style="stroke:#181818;stroke-width:1.0;"/><polygon fill="#181818" points="798.67,506.03,792.4429,502.3936,786.6912,506.743,792.9183,510.3794,798.67,506.03" style="stroke:#181818;stroke-width:1.0;"/><text fill="#000000" font-family="sans-serif" font-size="13" lengthAdjust="spacing" textLength="90" x="559.5" y="606.0669">vorausgezahlt</text><text fill="#000000" font-family="sans-serif" font-size="13" lengthAdjust="spacing" textLength="24" x="767.0323" y="502.0685">0..1</text></g><!--link Rechnung to Betrag--><g id="link_Rechnung_Betrag"><path codeLine="45" d="M396.82,642.76 C491.36,691.65 610.65,726.81 689,654 C706.79,637.47 681.22,563.46 697,545 C721.61,516.22 751.8968,508.0654 786.5968,506.2254 " fill="none" id="Rechnung-to-Betrag-5" style="stroke:#181818;stroke-width:1.0;"/><polygon fill="#181818" points="798.58,505.59,792.3766,501.9133,786.5968,506.2254,792.8002,509.9021,798.58,505.59" style="stroke:#181818;stroke-width:1.0;"/><text fill="#000000" font-family="sans-serif" font-size="13" lengthAdjust="spacing" textLength="79" x="565" y="650.0669">rabattBrutto</text><text fill="#000000" font-family="sans-serif" font-size="13" lengthAdjust="spacing" textLength="24" x="767.01" y="521.2028">0..1</text></g><!--link Rechnung to Rechnungsposition--><g id="link_Rechnung_Rechnungsposition"><path codeLine="46" d="M332.27,642.72 C381.17,692.25 447.6,747.56 520,774 C590.55,799.77 631.13,821.89 689,774 C703.64,761.89 685.49,747.12 697,732 C718.37,703.94 741.3186,689.6544 772.4686,677.6844 " fill="none" id="Rechnung-to-Rechnungsposition" style="stroke:#181818;stroke-width:1.0;"/><polygon fill="#181818" points="783.67,673.38,776.6345,671.7984,772.4686,677.6844,779.5041,679.266,783.67,673.38" style="stroke:#181818;stroke-width:1.0;"/><text fill="#000000" font-family="sans-serif" font-size="13" lengthAdjust="spacing" textLength="133" x="538" y="770.0669">rechnungspositionen</text><text fill="#000000" font-family="sans-serif" font-size="13" lengthAdjust="spacing" textLength="23" x="740.1146" y="692.0154">0..*</text></g><!--link Rechnung to Rechnungsstatus--><g id="link_Rechnung_Rechnungsstatus"><path codeLine="47" d="M287.09,642.48 C328.69,734.28 405.38,866.9 520,926 C562.16,947.74 674.4097,938.124 759.2697,927.114 " fill="none" id="Rechnung-to-Rechnungsstatus" style="stroke:#181818;stroke-width:1.0;"/><polygon fill="#181818" points="771.17,925.57,764.7052,922.3752,759.2697,927.114,765.7345,930.3087,771.17,925.57" style="stroke:#181818;stroke-width:1.0;"/><text fill="#000000" font-family="sans-serif" font-size="13" lengthAdjust="spacing" textLength="107" x="551" y="922.0669">rechnungsstatus</text><text fill="#000000" font-family="sans-serif" font-size="13" lengthAdjust="spacing" textLength="24" x="739.414" y="939.2416">0..1</text></g><!--link Rechnung to Steuerbetrag--><g id="link_Rechnung_Steuerbetrag"><path codeLine="48" d="M360.09,449.28 C406.28,415.01 462.54,380.61 520,363 C591.81,340.99 615.45,347.78 689,363 C737.57,373.05 778.8475,392.2764 811.5375,409.9764 " fill="none" id="Rechnung-to-Steuerbetrag" style="stroke:#181818;stroke-width:1.0;"/><polygon fill="#181818" points="822.09,415.69,818.7183,409.3157,811.5375,409.9764,814.9092,416.3507,822.09,415.69" style="stroke:#181818;stroke-width:1.0;"/><text fill="#000000" font-family="sans-serif" font-size="13" lengthAdjust="spacing" textLength="99" x="555" y="345.0669">steuerbetraege</text><text fill="#000000" font-family="sans-serif" font-size="13" lengthAdjust="spacing" textLength="23" x="785.6039" y="404.9013">0..*</text></g><!--link Rechnung to Sparte--><g id="link_Rechnung_Sparte"><path codeLine="49" d="M296.4,642.69 C341.34,723.1 417.48,832.01 520,881 C587.77,913.38 615.9,898.26 689,881 C692.87,880.09 693.26,878.35 697,877 C728.89,865.48 753.9534,859.0444 784.0734,852.8844 " fill="none" id="Rechnung-to-Sparte" style="stroke:#181818;stroke-width:1.0;"/><polygon fill="#181818" points="795.83,850.48,789.1502,847.7633,784.0734,852.8844,790.7531,855.6011,795.83,850.48" style="stroke:#181818;stroke-width:1.0;"/><text fill="#000000" font-family="sans-serif" font-size="13" lengthAdjust="spacing" textLength="41" x="584" y="877.0669">sparte</text><text fill="#000000" font-family="sans-serif" font-size="13" lengthAdjust="spacing" textLength="24" x="763.8817" y="864.5209">0..1</text></g><!--link Rechnung to NetznutzungRechnungsart--><g id="link_Rechnung_NetznutzungRechnungsart"><path codeLine="50" d="M273.89,642.59 C308.15,756.35 382.35,941.05 520,1030 C586.41,1072.92 664.3216,1079.3003 734.3316,1075.0903 " fill="none" id="Rechnung-to-NetznutzungRechnungsart" style="stroke:#181818;stroke-width:1.0;"/><polygon fill="#181818" points="746.31,1074.37,740.0807,1070.7374,734.3316,1075.0903,740.5609,1078.7229,746.31,1074.37" style="stroke:#181818;stroke-width:1.0;"/><text fill="#000000" font-family="sans-serif" font-size="13" lengthAdjust="spacing" textLength="165" x="522" y="1026.0669">netznutzungrechnungsart</text><text fill="#000000" font-family="sans-serif" font-size="13" lengthAdjust="spacing" textLength="24" x="714.4822" y="1087.9063">0..1</text></g><!--link Rechnung to NetznutzungRechnungstyp--><g id="link_Rechnung_NetznutzungRechnungstyp"><path codeLine="51" d="M282.37,642.71 C321.83,742.24 398.32,892.55 520,964 C587.2,1003.46 663.5805,1008.6048 732.7505,1003.6648 " fill="none" id="Rechnung-to-NetznutzungRechnungstyp" style="stroke:#181818;stroke-width:1.0;"/><polygon fill="#181818" points="744.72,1002.81,738.4503,999.2476,732.7505,1003.6648,739.0202,1007.2273,744.72,1002.81" style="stroke:#181818;stroke-width:1.0;"/><text fill="#000000" font-family="sans-serif" font-size="13" lengthAdjust="spacing" textLength="167" x="521" y="960.0669">netznutzungrechnungstyp</text><text fill="#000000" font-family="sans-serif" font-size="13" lengthAdjust="spacing" textLength="24" x="713.1772" y="1016.3624">0..1</text></g><!--link Rechnung to Marktlokation--><g id="link_Rechnung_Marktlokation"><path codeLine="52" d="M284.19,449.38 C324.43,353.48 400.92,211.96 520,149 C564.62,125.41 689.9959,143.7363 774.4959,159.5963 " fill="none" id="Rechnung-to-Marktlokation" style="stroke:#181818;stroke-width:1.0;"/><polygon fill="#181818" points="786.29,161.81,781.1309,156.7718,774.4959,159.5963,779.6551,164.6345,786.29,161.81" style="stroke:#181818;stroke-width:1.0;"/><text fill="#000000" font-family="sans-serif" font-size="13" lengthAdjust="spacing" textLength="88" x="560.5" y="135.0669">marktlokation</text><text fill="#000000" font-family="sans-serif" font-size="13" lengthAdjust="spacing" textLength="24" x="754.4544" y="173.2457">0..1</text></g><!--link Rechnung to Messlokation--><g id="link_Rechnung_Messlokation"><path codeLine="53" d="M279.42,449.59 C317.2,346.19 393.06,187.03 520,114 C602.46,66.56 704.3675,73.0937 775.9475,85.5437 " fill="none" id="Rechnung-to-Messlokation" style="stroke:#181818;stroke-width:1.0;"/><polygon fill="#181818" points="787.77,87.6,782.5442,82.631,775.9475,85.5437,781.1733,90.5127,787.77,87.6" style="stroke:#181818;stroke-width:1.0;"/><text fill="#000000" font-family="sans-serif" font-size="13" lengthAdjust="spacing" textLength="85" x="562" y="74.0669">messlokation</text><text fill="#000000" font-family="sans-serif" font-size="13" lengthAdjust="spacing" textLength="24" x="756.0754" y="98.9204">0..1</text></g><!--SRC=[lLVVJzj037ucVuL57v0caOB66AeO4WN47ZQGO7kXgwPBQv8RIIwwSuRejlzzpg_saZOjh6LFFRkVVTyvjiyNuZq1AT3I3mZ6KkE8f8eTPnGAOs1xC0Y84jFhTZrrWAulAKWzLwfk__hWOZTvea35tL0G6kgAH1OeJxa1HM6d4jXf4AUnxzwK2wWMm-6t-DZ82VRszqwQy6qGPeg4NyxMTtfAe0UV9A4MuU3uorFYtboSVRpwUdNPWvrgkNCoXC7-43w03N2sfA5RKZfMxCDJAeJ1dklck2iLexDLxMlYD8fGCygGRWMD1QKHOquVXSPpZW3929leUu5XAFq7bFGyWwbxuaE6Yoae_bWo5k7DS_ZoeQzBVCknix38A0qbQbeC-UCuiOZG96A4wwK4bC9mc7_SKe9E__3y_UbHzeqtcNTCsOJgGMGPxNws1B25XJbec-PKROiDinJwWMOqRGbgqcAYDg9WQcisIzL7Cme4jmoZl1_uGEvbGm5DnKBEJJSvxQRbQp5FXAOOjKMzrC2SPWNv4jLWNsgvQDQjcP6AhA9XoQuQ5g5piNTwT7YsRjbK-tIcaY5CKNj8MlZkhIM0BSo7fscRqxLDDasqfDWloFMNqB88zL-5oeHxl1PfvDwL2wWMYmbL-9nI1TqqgUbraYWZy_voqzJ0d6OntpbNjUjvgjr0tYFVPrRYPwAT-PaCdV7-wEsxjM-CwLQTcJYxWhFfmHB05kQ3D6TS3n0hDiyrxpRetkO_KFoqC2kWHKNcorUCd26UTSmiU8KC3NbL20jKFOg5RlFKOwH9dDA4zwXz_wkPlfOABVgM8xLupu_Mukd_797pOE4HMGyj-XSSaT6jH-J_ihbozYJOtVrzKWs4StE5XMFW6zZEvjFjMJ-ersaFx2WliyqQsxHVMsO9Qgd6kCoqnh8Q8ImNgFac34EU1DPn4YNyX8ZzvLwoKvHNO0zuFX4H-o5IBxGfRkuN6dawVSbEa_HE1276ppRugVZR61ydR4RFjjB24qJzLcvlBAFv6z5EX5Atd74z1SjkPtafkzOA8hL1AtlCJKNqSUNsvHt0TaLtNuLlA_iUj9JoFtaioh6b_wseZFfJg0UrfyugM_krnwRswyq9v1XP5NbSeuu9r2FCdDrB3CVcBm00]--></g></svg>