<?xml version="1.0" encoding="us-ascii" standalone="no"?><svg xmlns="http://www.w3.org/2000/svg" xmlns:xlink="http://www.w3.org/1999/xlink" contentStyleType="text/css" height="1125px" preserveAspectRatio="none" style="width:1015px;height:1125px;background:#FFFFFF;" version="1.1" viewBox="0 0 1015 1125" width="1015px" zoomAndPan="magnify"><defs/><g><!--cluster bo4e--><g id="cluster_bo4e"><path d="M707.5,6 L748.5,6 A3.75,3.75 0 0 1 751,8.5 L758,28.2969 L1005.5,28.2969 A2.5,2.5 0 0 1 1008,30.7969 L1008,1115.5 A2.5,2.5 0 0 1 1005.5,1118 L707.5,1118 A2.5,2.5 0 0 1 705,1115.5 L705,8.5 A2.5,2.5 0 0 1 707.5,6 " fill="none" style="stroke:#000000;stroke-width:1.5;"/><line style="stroke:#000000;stroke-width:1.5;" x1="705" x2="758" y1="28.2969" y2="28.2969"/><text fill="#000000" font-family="sans-serif" font-size="14" font-weight="bold" lengthAdjust="spacing" textLength="40" x="709" y="20.9951">bo4e</text></g><!--cluster bo--><g id="cluster_bo"><path d="M761.5,49 L827.5,49 A3.75,3.75 0 0 1 830,51.5 L837,71.2969 L951.5,71.2969 A2.5,2.5 0 0 1 954,73.7969 L954,354.5 A2.5,2.5 0 0 1 951.5,357 L761.5,357 A2.5,2.5 0 0 1 759,354.5 L759,51.5 A2.5,2.5 0 0 1 761.5,49 " fill="#B6D7A8" style="stroke:#000000;stroke-width:1.5;"/><line style="stroke:#000000;stroke-width:1.5;" x1="759" x2="837" y1="71.2969" y2="71.2969"/><a href="https://bo4e.github.io/BO4E-python/latest/api/bo4e.bo.html" target="_top" title="https://bo4e.github.io/BO4E-python/latest/api/bo4e.bo.html" xlink:actuate="onRequest" xlink:href="https://bo4e.github.io/BO4E-python/latest/api/bo4e.bo.html" xlink:show="new" xlink:title="https://bo4e.github.io/BO4E-python/latest/api/bo4e.bo.html" xlink:type="simple"><text fill="#0000FF" font-family="sans-serif" font-size="14" font-weight="bold" lengthAdjust="spacing" text-decoration="underline" textLength="65" x="763" y="63.9951">bo4e.bo</text></a></g><!--cluster com--><g id="cluster_com"><path d="M758,381 L837,381 A3.75,3.75 0 0 1 839.5,383.5 L846.5,403.2969 L955,403.2969 A2.5,2.5 0 0 1 957.5,405.7969 L957.5,686.5 A2.5,2.5 0 0 1 955,689 L758,689 A2.5,2.5 0 0 1 755.5,686.5 L755.5,383.5 A2.5,2.5 0 0 1 758,381 " fill="#E0A86C" style="stroke:#000000;stroke-width:1.5;"/><line style="stroke:#000000;stroke-width:1.5;" x1="755.5" x2="846.5" y1="403.2969" y2="403.2969"/><a href="https://bo4e.github.io/BO4E-python/latest/api/bo4e.com.html" target="_top" title="https://bo4e.github.io/BO4E-python/latest/api/bo4e.com.html" xlink:actuate="onRequest" xlink:href="https://bo4e.github.io/BO4E-python/latest/api/bo4e.com.html" xlink:show="new" xlink:title="https://bo4e.github.io/BO4E-python/latest/api/bo4e.com.html" xlink:type="simple"><text fill="#0000FF" font-family="sans-serif" font-size="14" font-weight="bold" lengthAdjust="spacing" text-decoration="underline" textLength="78" x="759.5" y="395.9951">bo4e.com</text></a></g><!--cluster enum--><g id="cluster_enum"><path d="M731.5,713 L821.5,713 A3.75,3.75 0 0 1 824,715.5 L831,735.2969 L981.5,735.2969 A2.5,2.5 0 0 1 984,737.7969 L984,1091.5 A2.5,2.5 0 0 1 981.5,1094 L731.5,1094 A2.5,2.5 0 0 1 729,1091.5 L729,715.5 A2.5,2.5 0 0 1 731.5,713 " fill="#D1C358" style="stroke:#000000;stroke-width:1.5;"/><line style="stroke:#000000;stroke-width:1.5;" x1="729" x2="831" y1="735.2969" y2="735.2969"/><a href="https://bo4e.github.io/BO4E-python/latest/api/bo4e.enum.html" target="_top" title="https://bo4e.github.io/BO4E-python/latest/api/bo4e.enum.html" xlink:actuate="onRequest" xlink:href="https://bo4e.github.io/BO4E-python/latest/api/bo4e.enum.html" xlink:show="new" xlink:title="https://bo4e.github.io/BO4E-python/latest/api/bo4e.enum.html" xlink:type="simple"><text fill="#0000FF" font-family="sans-serif" font-size="14" font-weight="bold" lengthAdjust="spacing" text-decoration="underline" textLength="89" x="733" y="727.9951">bo4e.enum</text></a></g><!--class Geschaeftsobjekt--><g id="elem_Geschaeftsobjekt"><rect codeLine="16" fill="#F1F1F1" height="37.9375" id="Geschaeftsobjekt" rx="2.5" ry="2.5" style="stroke:#181818;stroke-width:0.5;" width="156" x="778.5" y="84.03"/><ellipse cx="793.5" cy="102.9987" fill="#ADD1B2" rx="11" ry="11" style="stroke:#181818;stroke-width:1.0;"/><path d="M796.4688,108.6394 Q795.8906,108.9362 795.25,109.0769 Q794.6094,109.2331 793.9063,109.2331 Q791.4063,109.2331 790.0781,107.5925 Q788.7656,105.9362 788.7656,102.8112 Q788.7656,99.6862 790.0781,98.03 Q791.4063,96.3737 793.9063,96.3737 Q794.6094,96.3737 795.25,96.53 Q795.9063,96.6862 796.4688,96.9831 L796.4688,99.7019 Q795.8438,99.1237 795.25,98.8581 Q794.6563,98.5769 794.0313,98.5769 Q792.6875,98.5769 792,99.655 Q791.3125,100.7175 791.3125,102.8112 Q791.3125,104.905 792,105.9831 Q792.6875,107.0456 794.0313,107.0456 Q794.6563,107.0456 795.25,106.78 Q795.8438,106.4987 796.4688,105.9206 L796.4688,108.6394 Z " fill="#000000"/><a href="https://bo4e.github.io/BO4E-python/latest/api/bo4e.bo.html#bo4e.bo.geschaeftsobjekt.Geschaeftsobjekt" target="_top" title="https://bo4e.github.io/BO4E-python/latest/api/bo4e.bo.html#bo4e.bo.geschaeftsobjekt.Geschaeftsobjekt" xlink:actuate="onRequest" xlink:href="https://bo4e.github.io/BO4E-python/latest/api/bo4e.bo.html#bo4e.bo.geschaeftsobjekt.Geschaeftsobjekt" xlink:show="new" xlink:title="https://bo4e.github.io/BO4E-python/latest/api/bo4e.bo.html#bo4e.bo.geschaeftsobjekt.Geschaeftsobjekt" xlink:type="simple"><text fill="#0000FF" font-family="sans-serif" font-size="14" lengthAdjust="spacing" text-decoration="underline" textLength="122" x="808.5" y="102.0251">Geschaeftsobjekt</text></a><text fill="#000000" font-family="sans-serif" font-size="10" lengthAdjust="spacing" textLength="124" x="807.5" y="114.6091">bo4e.bo.geschaeftsobjekt</text></g><!--class Marktlokation--><g id="elem_Marktlokation"><rect codeLine="17" fill="#F1F1F1" height="37.9375" id="Marktlokation" rx="2.5" ry="2.5" style="stroke:#181818;stroke-width:0.5;" width="140" x="786.5" y="157.03"/><ellipse cx="801.5" cy="175.9987" fill="#ADD1B2" rx="11" ry="11" style="stroke:#181818;stroke-width:1.0;"/><path d="M804.4688,181.6394 Q803.8906,181.9362 803.25,182.0769 Q802.6094,182.2331 801.9063,182.2331 Q799.4063,182.2331 798.0781,180.5925 Q796.7656,178.9362 796.7656,175.8112 Q796.7656,172.6862 798.0781,171.03 Q799.4063,169.3737 801.9063,169.3737 Q802.6094,169.3737 803.25,169.53 Q803.9063,169.6862 804.4688,169.9831 L804.4688,172.7019 Q803.8438,172.1237 803.25,171.8581 Q802.6563,171.5769 802.0313,171.5769 Q800.6875,171.5769 800,172.655 Q799.3125,173.7175 799.3125,175.8112 Q799.3125,177.905 800,178.9831 Q800.6875,180.0456 802.0313,180.0456 Q802.6563,180.0456 803.25,179.78 Q803.8438,179.4987 804.4688,178.9206 L804.4688,181.6394 Z " fill="#000000"/><a href="https://bo4e.github.io/BO4E-python/latest/api/bo4e.bo.html#bo4e.bo.marktlokation.Marktlokation" target="_top" title="https://bo4e.github.io/BO4E-python/latest/api/bo4e.bo.html#bo4e.bo.marktlokation.Marktlokation" xlink:actuate="onRequest" xlink:href="https://bo4e.github.io/BO4E-python/latest/api/bo4e.bo.html#bo4e.bo.marktlokation.Marktlokation" xlink:show="new" xlink:title="https://bo4e.github.io/BO4E-python/latest/api/bo4e.bo.html#bo4e.bo.marktlokation.Marktlokation" xlink:type="simple"><text fill="#0000FF" font-family="sans-serif" font-size="14" lengthAdjust="spacing" text-decoration="underline" textLength="92" x="823.5" y="175.0251">Marktlokation</text></a><text fill="#000000" font-family="sans-serif" font-size="10" lengthAdjust="spacing" textLength="108" x="815.5" y="187.6091">bo4e.bo.marktlokation</text></g><!--class Geschaeftspartner--><g id="elem_Geschaeftspartner"><rect codeLine="18" fill="#F1F1F1" height="37.9375" id="Geschaeftspartner" rx="2.5" ry="2.5" style="stroke:#181818;stroke-width:0.5;" width="163" x="775" y="230.03"/><ellipse cx="790" cy="248.9987" fill="#ADD1B2" rx="11" ry="11" style="stroke:#181818;stroke-width:1.0;"/><path d="M792.9688,254.6394 Q792.3906,254.9362 791.75,255.0769 Q791.1094,255.2331 790.4063,255.2331 Q787.9063,255.2331 786.5781,253.5925 Q785.2656,251.9362 785.2656,248.8112 Q785.2656,245.6862 786.5781,244.03 Q787.9063,242.3737 790.4063,242.3737 Q791.1094,242.3737 791.75,242.53 Q792.4063,242.6862 792.9688,242.9831 L792.9688,245.7019 Q792.3438,245.1237 791.75,244.8581 Q791.1563,244.5769 790.5313,244.5769 Q789.1875,244.5769 788.5,245.655 Q787.8125,246.7175 787.8125,248.8112 Q787.8125,250.905 788.5,251.9831 Q789.1875,253.0456 790.5313,253.0456 Q791.1563,253.0456 791.75,252.78 Q792.3438,252.4987 792.9688,251.9206 L792.9688,254.6394 Z " fill="#000000"/><a href="https://bo4e.github.io/BO4E-python/latest/api/bo4e.bo.html#bo4e.bo.geschaeftspartner.Geschaeftspartner" target="_top" title="https://bo4e.github.io/BO4E-python/latest/api/bo4e.bo.html#bo4e.bo.geschaeftspartner.Geschaeftspartner" xlink:actuate="onRequest" xlink:href="https://bo4e.github.io/BO4E-python/latest/api/bo4e.bo.html#bo4e.bo.geschaeftspartner.Geschaeftspartner" xlink:show="new" xlink:title="https://bo4e.github.io/BO4E-python/latest/api/bo4e.bo.html#bo4e.bo.geschaeftspartner.Geschaeftspartner" xlink:type="simple"><text fill="#0000FF" font-family="sans-serif" font-size="14" lengthAdjust="spacing" text-decoration="underline" textLength="129" x="805" y="248.0251">Geschaeftspartner</text></a><text fill="#000000" font-family="sans-serif" font-size="10" lengthAdjust="spacing" textLength="131" x="804" y="260.6091">bo4e.bo.geschaeftspartner</text></g><!--class Messlokation--><g id="elem_Messlokation"><rect codeLine="19" fill="#F1F1F1" height="37.9375" id="Messlokation" rx="2.5" ry="2.5" style="stroke:#181818;stroke-width:0.5;" width="137" x="788" y="303.03"/><ellipse cx="803" cy="321.9988" fill="#ADD1B2" rx="11" ry="11" style="stroke:#181818;stroke-width:1.0;"/><path d="M805.9688,327.6394 Q805.3906,327.9363 804.75,328.0769 Q804.1094,328.2331 803.4063,328.2331 Q800.9063,328.2331 799.5781,326.5925 Q798.2656,324.9363 798.2656,321.8113 Q798.2656,318.6863 799.5781,317.03 Q800.9063,315.3738 803.4063,315.3738 Q804.1094,315.3738 804.75,315.53 Q805.4063,315.6863 805.9688,315.9831 L805.9688,318.7019 Q805.3438,318.1238 804.75,317.8581 Q804.1563,317.5769 803.5313,317.5769 Q802.1875,317.5769 801.5,318.655 Q800.8125,319.7175 800.8125,321.8113 Q800.8125,323.905 801.5,324.9831 Q802.1875,326.0456 803.5313,326.0456 Q804.1563,326.0456 804.75,325.78 Q805.3438,325.4988 805.9688,324.9206 L805.9688,327.6394 Z " fill="#000000"/><a href="https://bo4e.github.io/BO4E-python/latest/api/bo4e.bo.html#bo4e.bo.messlokation.Messlokation" target="_top" title="https://bo4e.github.io/BO4E-python/latest/api/bo4e.bo.html#bo4e.bo.messlokation.Messlokation" xlink:actuate="onRequest" xlink:href="https://bo4e.github.io/BO4E-python/latest/api/bo4e.bo.html#bo4e.bo.messlokation.Messlokation" xlink:show="new" xlink:title="https://bo4e.github.io/BO4E-python/latest/api/bo4e.bo.html#bo4e.bo.messlokation.Messlokation" xlink:type="simple"><text fill="#0000FF" font-family="sans-serif" font-size="14" lengthAdjust="spacing" text-decoration="underline" textLength="91" x="824" y="321.0251">Messlokation</text></a><text fill="#000000" font-family="sans-serif" font-size="10" lengthAdjust="spacing" textLength="105" x="817" y="333.6091">bo4e.bo.messlokation</text></g><!--class Betrag--><g id="elem_Betrag"><rect codeLine="22" fill="#F1F1F1" height="37.9375" id="Betrag" rx="2.5" ry="2.5" style="stroke:#181818;stroke-width:0.5;" width="115" x="799" y="416.03"/><ellipse cx="814" cy="434.9988" fill="#ADD1B2" rx="11" ry="11" style="stroke:#181818;stroke-width:1.0;"/><path d="M816.9688,440.6394 Q816.3906,440.9363 815.75,441.0769 Q815.1094,441.2331 814.4063,441.2331 Q811.9063,441.2331 810.5781,439.5925 Q809.2656,437.9363 809.2656,434.8113 Q809.2656,431.6863 810.5781,430.03 Q811.9063,428.3738 814.4063,428.3738 Q815.1094,428.3738 815.75,428.53 Q816.4063,428.6863 816.9688,428.9831 L816.9688,431.7019 Q816.3438,431.1238 815.75,430.8581 Q815.1563,430.5769 814.5313,430.5769 Q813.1875,430.5769 812.5,431.655 Q811.8125,432.7175 811.8125,434.8113 Q811.8125,436.905 812.5,437.9831 Q813.1875,439.0456 814.5313,439.0456 Q815.1563,439.0456 815.75,438.78 Q816.3438,438.4988 816.9688,437.9206 L816.9688,440.6394 Z " fill="#000000"/><a href="https://bo4e.github.io/BO4E-python/latest/api/bo4e.com.html#bo4e.com.betrag.Betrag" target="_top" title="https://bo4e.github.io/BO4E-python/latest/api/bo4e.com.html#bo4e.com.betrag.Betrag" xlink:actuate="onRequest" xlink:href="https://bo4e.github.io/BO4E-python/latest/api/bo4e.com.html#bo4e.com.betrag.Betrag" xlink:show="new" xlink:title="https://bo4e.github.io/BO4E-python/latest/api/bo4e.com.html#bo4e.com.betrag.Betrag" xlink:type="simple"><text fill="#0000FF" font-family="sans-serif" font-size="14" lengthAdjust="spacing" text-decoration="underline" textLength="46" x="846.5" y="434.0251">Betrag</text></a><text fill="#000000" font-family="sans-serif" font-size="10" lengthAdjust="spacing" textLength="83" x="828" y="446.6091">bo4e.com.betrag</text></g><!--class Zeitraum--><g id="elem_Zeitraum"><rect codeLine="23" fill="#F1F1F1" height="37.9375" id="Zeitraum" rx="2.5" ry="2.5" style="stroke:#181818;stroke-width:0.5;" width="126" x="793.5" y="489.03"/><ellipse cx="808.5" cy="507.9988" fill="#ADD1B2" rx="11" ry="11" style="stroke:#181818;stroke-width:1.0;"/><path d="M811.4688,513.6394 Q810.8906,513.9363 810.25,514.0769 Q809.6094,514.2331 808.9063,514.2331 Q806.4063,514.2331 805.0781,512.5925 Q803.7656,510.9363 803.7656,507.8113 Q803.7656,504.6863 805.0781,503.03 Q806.4063,501.3738 808.9063,501.3738 Q809.6094,501.3738 810.25,501.53 Q810.9063,501.6863 811.4688,501.9831 L811.4688,504.7019 Q810.8438,504.1238 810.25,503.8581 Q809.6563,503.5769 809.0313,503.5769 Q807.6875,503.5769 807,504.655 Q806.3125,505.7175 806.3125,507.8113 Q806.3125,509.905 807,510.9831 Q807.6875,512.0456 809.0313,512.0456 Q809.6563,512.0456 810.25,511.78 Q810.8438,511.4988 811.4688,510.9206 L811.4688,513.6394 Z " fill="#000000"/><a href="https://bo4e.github.io/BO4E-python/latest/api/bo4e.com.html#bo4e.com.zeitraum.Zeitraum" target="_top" title="https://bo4e.github.io/BO4E-python/latest/api/bo4e.com.html#bo4e.com.zeitraum.Zeitraum" xlink:actuate="onRequest" xlink:href="https://bo4e.github.io/BO4E-python/latest/api/bo4e.com.html#bo4e.com.zeitraum.Zeitraum" xlink:show="new" xlink:title="https://bo4e.github.io/BO4E-python/latest/api/bo4e.com.html#bo4e.com.zeitraum.Zeitraum" xlink:type="simple"><text fill="#0000FF" font-family="sans-serif" font-size="14" lengthAdjust="spacing" text-decoration="underline" textLength="62" x="838.5" y="507.0251">Zeitraum</text></a><text fill="#000000" font-family="sans-serif" font-size="10" lengthAdjust="spacing" textLength="94" x="822.5" y="519.6091">bo4e.com.zeitraum</text></g><!--class Rechnungsposition--><g id="elem_Rechnungsposition"><rect codeLine="24" fill="#F1F1F1" height="37.9375" id="Rechnungsposition" rx="2.5" ry="2.5" style="stroke:#181818;stroke-width:0.5;" width="170" x="771.5" y="562.03"/><ellipse cx="786.5" cy="580.9988" fill="#ADD1B2" rx="11" ry="11" style="stroke:#181818;stroke-width:1.0;"/><path d="M789.4688,586.6394 Q788.8906,586.9363 788.25,587.0769 Q787.6094,587.2331 786.9063,587.2331 Q784.4063,587.2331 783.0781,585.5925 Q781.7656,583.9363 781.7656,580.8113 Q781.7656,577.6863 783.0781,576.03 Q784.4063,574.3738 786.9063,574.3738 Q787.6094,574.3738 788.25,574.53 Q788.9063,574.6863 789.4688,574.9831 L789.4688,577.7019 Q788.8438,577.1238 788.25,576.8581 Q787.6563,576.5769 787.0313,576.5769 Q785.6875,576.5769 785,577.655 Q784.3125,578.7175 784.3125,580.8113 Q784.3125,582.905 785,583.9831 Q785.6875,585.0456 787.0313,585.0456 Q787.6563,585.0456 788.25,584.78 Q788.8438,584.4988 789.4688,583.9206 L789.4688,586.6394 Z " fill="#000000"/><a href="https://bo4e.github.io/BO4E-python/latest/api/bo4e.com.html#bo4e.com.rechnungsposition.Rechnungsposition" target="_top" title="https://bo4e.github.io/BO4E-python/latest/api/bo4e.com.html#bo4e.com.rechnungsposition.Rechnungsposition" xlink:actuate="onRequest" xlink:href="https://bo4e.github.io/BO4E-python/latest/api/bo4e.com.html#bo4e.com.rechnungsposition.Rechnungsposition" xlink:show="new" xlink:title="https://bo4e.github.io/BO4E-python/latest/api/bo4e.com.html#bo4e.com.rechnungsposition.Rechnungsposition" xlink:type="simple"><text fill="#0000FF" font-family="sans-serif" font-size="14" lengthAdjust="spacing" text-decoration="underline" textLength="135" x="802" y="580.0251">Rechnungsposition</text></a><text fill="#000000" font-family="sans-serif" font-size="10" lengthAdjust="spacing" textLength="138" x="800.5" y="592.6091">bo4e.com.rechnungsposition</text></g><!--class Steuerbetrag--><g id="elem_Steuerbetrag"><rect codeLine="25" fill="#F1F1F1" height="37.9375" id="Steuerbetrag" rx="2.5" ry="2.5" style="stroke:#181818;stroke-width:0.5;" width="146" x="783.5" y="635.03"/><ellipse cx="798.5" cy="653.9988" fill="#ADD1B2" rx="11" ry="11" style="stroke:#181818;stroke-width:1.0;"/><path d="M801.4688,659.6394 Q800.8906,659.9363 800.25,660.0769 Q799.6094,660.2331 798.9063,660.2331 Q796.4063,660.2331 795.0781,658.5925 Q793.7656,656.9363 793.7656,653.8113 Q793.7656,650.6863 795.0781,649.03 Q796.4063,647.3738 798.9063,647.3738 Q799.6094,647.3738 800.25,647.53 Q800.9063,647.6863 801.4688,647.9831 L801.4688,650.7019 Q800.8438,650.1238 800.25,649.8581 Q799.6563,649.5769 799.0313,649.5769 Q797.6875,649.5769 797,650.655 Q796.3125,651.7175 796.3125,653.8113 Q796.3125,655.905 797,656.9831 Q797.6875,658.0456 799.0313,658.0456 Q799.6563,658.0456 800.25,657.78 Q800.8438,657.4988 801.4688,656.9206 L801.4688,659.6394 Z " fill="#000000"/><a href="https://bo4e.github.io/BO4E-python/latest/api/bo4e.com.html#bo4e.com.steuerbetrag.Steuerbetrag" target="_top" title="https://bo4e.github.io/BO4E-python/latest/api/bo4e.com.html#bo4e.com.steuerbetrag.Steuerbetrag" xlink:actuate="onRequest" xlink:href="https://bo4e.github.io/BO4E-python/latest/api/bo4e.com.html#bo4e.com.steuerbetrag.Steuerbetrag" xlink:show="new" xlink:title="https://bo4e.github.io/BO4E-python/latest/api/bo4e.com.html#bo4e.com.steuerbetrag.Steuerbetrag" xlink:type="simple"><text fill="#0000FF" font-family="sans-serif" font-size="14" lengthAdjust="spacing" text-decoration="underline" textLength="91" x="824" y="653.0251">Steuerbetrag</text></a><text fill="#000000" font-family="sans-serif" font-size="10" lengthAdjust="spacing" textLength="114" x="812.5" y="665.6091">bo4e.com.steuerbetrag</text></g><!--class NetznutzungRechnungsart--><g id="elem_NetznutzungRechnungsart"><rect codeLine="28" fill="#F1F1F1" height="37.9375" id="NetznutzungRechnungsart" rx="2.5" ry="2.5" style="stroke:#181818;stroke-width:0.5;" width="220" x="746.5" y="748.03"/><ellipse cx="761.5" cy="766.9988" fill="#ADD1B2" rx="11" ry="11" style="stroke:#181818;stroke-width:1.0;"/><path d="M764.4688,772.6394 Q763.8906,772.9363 763.25,773.0769 Q762.6094,773.2331 761.9063,773.2331 Q759.4063,773.2331 758.0781,771.5925 Q756.7656,769.9363 756.7656,766.8113 Q756.7656,763.6863 758.0781,762.03 Q759.4063,760.3738 761.9063,760.3738 Q762.6094,760.3738 763.25,760.53 Q763.9063,760.6863 764.4688,760.9831 L764.4688,763.7019 Q763.8438,763.1238 763.25,762.8581 Q762.6563,762.5769 762.0313,762.5769 Q760.6875,762.5769 760,763.655 Q759.3125,764.7175 759.3125,766.8113 Q759.3125,768.905 760,769.9831 Q760.6875,771.0456 762.0313,771.0456 Q762.6563,771.0456 763.25,770.78 Q763.8438,770.4988 764.4688,769.9206 L764.4688,772.6394 Z " fill="#000000"/><a href="https://bo4e.github.io/BO4E-python/latest/api/bo4e.enum.html#bo4e.enum.netznutzungrechnungsart.NetznutzungRechnungsart" target="_top" title="https://bo4e.github.io/BO4E-python/latest/api/bo4e.enum.html#bo4e.enum.netznutzungrechnungsart.NetznutzungRechnungsart" xlink:actuate="onRequest" xlink:href="https://bo4e.github.io/BO4E-python/latest/api/bo4e.enum.html#bo4e.enum.netznutzungrechnungsart.NetznutzungRechnungsart" xlink:show="new" xlink:title="https://bo4e.github.io/BO4E-python/latest/api/bo4e.enum.html#bo4e.enum.netznutzungrechnungsart.NetznutzungRechnungsart" xlink:type="simple"><text fill="#0000FF" font-family="sans-serif" font-size="14" lengthAdjust="spacing" text-decoration="underline" textLength="188" x="775.5" y="766.0251">NetznutzungRechnungsart</text></a><text fill="#000000" font-family="sans-serif" font-size="10" lengthAdjust="spacing" textLength="182" x="778.5" y="778.6091">bo4e.enum.netznutzungrechnungsart</text></g><!--class Rechnungsstatus--><g id="elem_Rechnungsstatus"><rect codeLine="29" fill="#F1F1F1" height="37.9375" id="Rechnungsstatus" rx="2.5" ry="2.5" style="stroke:#181818;stroke-width:0.5;" width="170" x="771.5" y="821.03"/><ellipse cx="786.5" cy="839.9988" fill="#ADD1B2" rx="11" ry="11" style="stroke:#181818;stroke-width:1.0;"/><path d="M789.4688,845.6394 Q788.8906,845.9363 788.25,846.0769 Q787.6094,846.2331 786.9063,846.2331 Q784.4063,846.2331 783.0781,844.5925 Q781.7656,842.9363 781.7656,839.8113 Q781.7656,836.6863 783.0781,835.03 Q784.4063,833.3738 786.9063,833.3738 Q787.6094,833.3738 788.25,833.53 Q788.9063,833.6863 789.4688,833.9831 L789.4688,836.7019 Q788.8438,836.1238 788.25,835.8581 Q787.6563,835.5769 787.0313,835.5769 Q785.6875,835.5769 785,836.655 Q784.3125,837.7175 784.3125,839.8113 Q784.3125,841.905 785,842.9831 Q785.6875,844.0456 787.0313,844.0456 Q787.6563,844.0456 788.25,843.78 Q788.8438,843.4988 789.4688,842.9206 L789.4688,845.6394 Z " fill="#000000"/><a href="https://bo4e.github.io/BO4E-python/latest/api/bo4e.enum.html#bo4e.enum.rechnungsstatus.Rechnungsstatus" target="_top" title="https://bo4e.github.io/BO4E-python/latest/api/bo4e.enum.html#bo4e.enum.rechnungsstatus.Rechnungsstatus" xlink:actuate="onRequest" xlink:href="https://bo4e.github.io/BO4E-python/latest/api/bo4e.enum.html#bo4e.enum.rechnungsstatus.Rechnungsstatus" xlink:show="new" xlink:title="https://bo4e.github.io/BO4E-python/latest/api/bo4e.enum.html#bo4e.enum.rechnungsstatus.Rechnungsstatus" xlink:type="simple"><text fill="#0000FF" font-family="sans-serif" font-size="14" lengthAdjust="spacing" text-decoration="underline" textLength="123" x="808" y="839.0251">Rechnungsstatus</text></a><text fill="#000000" font-family="sans-serif" font-size="10" lengthAdjust="spacing" textLength="138" x="800.5" y="851.6091">bo4e.enum.rechnungsstatus</text></g><!--class NetznutzungRechnungstyp--><g id="elem_NetznutzungRechnungstyp"><rect codeLine="30" fill="#F1F1F1" height="37.9375" id="NetznutzungRechnungstyp" rx="2.5" ry="2.5" style="stroke:#181818;stroke-width:0.5;" width="223" x="745" y="894.03"/><ellipse cx="760" cy="912.9988" fill="#ADD1B2" rx="11" ry="11" style="stroke:#181818;stroke-width:1.0;"/><path d="M762.9688,918.6394 Q762.3906,918.9363 761.75,919.0769 Q761.1094,919.2331 760.4063,919.2331 Q757.9063,919.2331 756.5781,917.5925 Q755.2656,915.9363 755.2656,912.8113 Q755.2656,909.6863 756.5781,908.03 Q757.9063,906.3738 760.4063,906.3738 Q761.1094,906.3738 761.75,906.53 Q762.4063,906.6863 762.9688,906.9831 L762.9688,909.7019 Q762.3438,909.1238 761.75,908.8581 Q761.1563,908.5769 760.5313,908.5769 Q759.1875,908.5769 758.5,909.655 Q757.8125,910.7175 757.8125,912.8113 Q757.8125,914.905 758.5,915.9831 Q759.1875,917.0456 760.5313,917.0456 Q761.1563,917.0456 761.75,916.78 Q762.3438,916.4988 762.9688,915.9206 L762.9688,918.6394 Z " fill="#000000"/><a href="https://bo4e.github.io/BO4E-python/latest/api/bo4e.enum.html#bo4e.enum.netznutzungrechnungstyp.NetznutzungRechnungstyp" target="_top" title="https://bo4e.github.io/BO4E-python/latest/api/bo4e.enum.html#bo4e.enum.netznutzungrechnungstyp.NetznutzungRechnungstyp" xlink:actuate="onRequest" xlink:href="https://bo4e.github.io/BO4E-python/latest/api/bo4e.enum.html#bo4e.enum.netznutzungrechnungstyp.NetznutzungRechnungstyp" xlink:show="new" xlink:title="https://bo4e.github.io/BO4E-python/latest/api/bo4e.enum.html#bo4e.enum.netznutzungrechnungstyp.NetznutzungRechnungstyp" xlink:type="simple"><text fill="#0000FF" font-family="sans-serif" font-size="14" lengthAdjust="spacing" text-decoration="underline" textLength="191" x="774" y="912.0251">NetznutzungRechnungstyp</text></a><text fill="#000000" font-family="sans-serif" font-size="10" lengthAdjust="spacing" textLength="184" x="777.5" y="924.6091">bo4e.enum.netznutzungrechnungstyp</text></g><!--class Sparte--><g id="elem_Sparte"><rect codeLine="31" fill="#F1F1F1" height="37.9375" id="Sparte" rx="2.5" ry="2.5" style="stroke:#181818;stroke-width:0.5;" width="121" x="796" y="967.03"/><ellipse cx="811" cy="985.9988" fill="#ADD1B2" rx="11" ry="11" style="stroke:#181818;stroke-width:1.0;"/><path d="M813.9688,991.6394 Q813.3906,991.9363 812.75,992.0769 Q812.1094,992.2331 811.4063,992.2331 Q808.9063,992.2331 807.5781,990.5925 Q806.2656,988.9363 806.2656,985.8113 Q806.2656,982.6863 807.5781,981.03 Q808.9063,979.3738 811.4063,979.3738 Q812.1094,979.3738 812.75,979.53 Q813.4063,979.6863 813.9688,979.9831 L813.9688,982.7019 Q813.3438,982.1238 812.75,981.8581 Q812.1563,981.5769 811.5313,981.5769 Q810.1875,981.5769 809.5,982.655 Q808.8125,983.7175 808.8125,985.8113 Q808.8125,987.905 809.5,988.9831 Q810.1875,990.0456 811.5313,990.0456 Q812.1563,990.0456 812.75,989.78 Q813.3438,989.4988 813.9688,988.9206 L813.9688,991.6394 Z " fill="#000000"/><a href="https://bo4e.github.io/BO4E-python/latest/api/bo4e.enum.html#bo4e.enum.sparte.Sparte" target="_top" title="https://bo4e.github.io/BO4E-python/latest/api/bo4e.enum.html#bo4e.enum.sparte.Sparte" xlink:actuate="onRequest" xlink:href="https://bo4e.github.io/BO4E-python/latest/api/bo4e.enum.html#bo4e.enum.sparte.Sparte" xlink:show="new" xlink:title="https://bo4e.github.io/BO4E-python/latest/api/bo4e.enum.html#bo4e.enum.sparte.Sparte" xlink:type="simple"><text fill="#0000FF" font-family="sans-serif" font-size="14" lengthAdjust="spacing" text-decoration="underline" textLength="45" x="847" y="985.0251">Sparte</text></a><text fill="#000000" font-family="sans-serif" font-size="10" lengthAdjust="spacing" textLength="89" x="825" y="997.6091">bo4e.enum.sparte</text></g><!--class Rechnungstyp--><g id="elem_Rechnungstyp"><rect codeLine="32" fill="#F1F1F1" height="37.9375" id="Rechnungstyp" rx="2.5" ry="2.5" style="stroke:#181818;stroke-width:0.5;" width="156" x="778.5" y="1040.03"/><ellipse cx="793.5" cy="1058.9988" fill="#ADD1B2" rx="11" ry="11" style="stroke:#181818;stroke-width:1.0;"/><path d="M796.4688,1064.6394 Q795.8906,1064.9363 795.25,1065.0769 Q794.6094,1065.2331 793.9063,1065.2331 Q791.4063,1065.2331 790.0781,1063.5925 Q788.7656,1061.9363 788.7656,1058.8113 Q788.7656,1055.6863 790.0781,1054.03 Q791.4063,1052.3738 793.9063,1052.3738 Q794.6094,1052.3738 795.25,1052.53 Q795.9063,1052.6863 796.4688,1052.9831 L796.4688,1055.7019 Q795.8438,1055.1238 795.25,1054.8581 Q794.6563,1054.5769 794.0313,1054.5769 Q792.6875,1054.5769 792,1055.655 Q791.3125,1056.7175 791.3125,1058.8113 Q791.3125,1060.905 792,1061.9831 Q792.6875,1063.0456 794.0313,1063.0456 Q794.6563,1063.0456 795.25,1062.78 Q795.8438,1062.4988 796.4688,1061.9206 L796.4688,1064.6394 Z " fill="#000000"/><a href="https://bo4e.github.io/BO4E-python/latest/api/bo4e.enum.html#bo4e.enum.rechnungstyp.Rechnungstyp" target="_top" title="https://bo4e.github.io/BO4E-python/latest/api/bo4e.enum.html#bo4e.enum.rechnungstyp.Rechnungstyp" xlink:actuate="onRequest" xlink:href="https://bo4e.github.io/BO4E-python/latest/api/bo4e.enum.html#bo4e.enum.rechnungstyp.Rechnungstyp" xlink:show="new" xlink:title="https://bo4e.github.io/BO4E-python/latest/api/bo4e.enum.html#bo4e.enum.rechnungstyp.Rechnungstyp" xlink:type="simple"><text fill="#0000FF" font-family="sans-serif" font-size="14" lengthAdjust="spacing" text-decoration="underline" textLength="101" x="819" y="1058.0251">Rechnungstyp</text></a><text fill="#000000" font-family="sans-serif" font-size="10" lengthAdjust="spacing" textLength="124" x="807.5" y="1070.6091">bo4e.enum.rechnungstyp</text></g><!--class Rechnung--><g id="elem_Rechnung"><rect codeLine="3" fill="#F1F1F1" height="192.6094" id="Rechnung" rx="2.5" ry="2.5" style="stroke:#181818;stroke-width:0.5;" width="483" x="7" y="433.7"/><ellipse cx="200.75" cy="452.6688" fill="#ADD1B2" rx="11" ry="11" style="stroke:#181818;stroke-width:1.0;"/><path d="M203.7188,458.3094 Q203.1406,458.6063 202.5,458.7469 Q201.8594,458.9031 201.1563,458.9031 Q198.6563,458.9031 197.3281,457.2625 Q196.0156,455.6063 196.0156,452.4813 Q196.0156,449.3563 197.3281,447.7 Q198.6563,446.0438 201.1563,446.0438 Q201.8594,446.0438 202.5,446.2 Q203.1563,446.3563 203.7188,446.6531 L203.7188,449.3719 Q203.0938,448.7938 202.5,448.5281 Q201.9063,448.2469 201.2813,448.2469 Q199.9375,448.2469 199.25,449.325 Q198.5625,450.3875 198.5625,452.4813 Q198.5625,454.575 199.25,455.6531 Q199.9375,456.7156 201.2813,456.7156 Q201.9063,456.7156 202.5,456.45 Q203.0938,456.1688 203.7188,455.5906 L203.7188,458.3094 Z " fill="#000000"/><a href="https://bo4e.github.io/BO4E-python/latest/api/bo4e.bo.html#bo4e.bo.rechnung.Rechnung" target="_top" title="https://bo4e.github.io/BO4E-python/latest/api/bo4e.bo.html#bo4e.bo.rechnung.Rechnung" xlink:actuate="onRequest" xlink:href="https://bo4e.github.io/BO4E-python/latest/api/bo4e.bo.html#bo4e.bo.rechnung.Rechnung" xlink:show="new" xlink:title="https://bo4e.github.io/BO4E-python/latest/api/bo4e.bo.html#bo4e.bo.rechnung.Rechnung" xlink:type="simple"><text fill="#0000FF" font-family="sans-serif" font-size="14" lengthAdjust="spacing" text-decoration="underline" textLength="72" x="228.75" y="451.6951">Rechnung</text></a><text fill="#000000" font-family="sans-serif" font-size="10" lengthAdjust="spacing" textLength="87" x="221.25" y="464.2791">bo4e.bo.rechnung</text><line style="stroke:#181818;stroke-width:0.5;" x1="8" x2="489" y1="471.6375" y2="471.6375"/><text fill="#000000" font-family="sans-serif" font-size="14" lengthAdjust="spacing" textLength="471" x="13" y="488.6326">_typ : Literal[&lt;Typ.RECHNUNG: 'RECHNUNG'&gt;] [1] = Typ.RECHNUNG</text><text fill="#000000" font-family="sans-serif" font-size="14" lengthAdjust="spacing" textLength="202" x="13" y="504.9295">istStorno : bool [0..1] = None</text><text fill="#000000" font-family="sans-serif" font-size="14" lengthAdjust="spacing" textLength="261" x="13" y="521.2264">rechnungsnummer : str [0..1] = None</text><text fill="#000000" font-family="sans-serif" font-size="14" lengthAdjust="spacing" textLength="334" x="13" y="537.5232">rechnungsdatum : AwareDatetime [0..1] = None</text><text fill="#000000" font-family="sans-serif" font-size="14" lengthAdjust="spacing" textLength="331" x="13" y="553.8201">faelligkeitsdatum : AwareDatetime [0..1] = None</text><text fill="#000000" font-family="sans-serif" font-size="14" lengthAdjust="spacing" textLength="228" x="13" y="570.117">rechnungstitel : str [0..1] = None</text><text fill="#000000" font-family="sans-serif" font-size="14" lengthAdjust="spacing" textLength="315" x="13" y="586.4139">originalRechnungsnummer : str [0..1] = None</text><text fill="#000000" font-family="sans-serif" font-size="14" lengthAdjust="spacing" textLength="207" x="13" y="602.7107">istOriginal : bool [0..1] = None</text><text fill="#000000" font-family="sans-serif" font-size="14" lengthAdjust="spacing" textLength="215" x="13" y="619.0076">istSimuliert : bool [0..1] = None</text></g><!--link Rechnung to Geschaeftsobjekt--><g id="link_Rechnung_Geschaeftsobjekt"><path codeLine="35" d="M273.88,433.34 C307.97,320.99 381.84,140.81 520,61 C615.18,6.02 734.2105,46.5423 800.0905,76.2423 " fill="none" id="Rechnung-to-Geschaeftsobjekt" style="stroke:#181818;stroke-width:1.0;"/><polygon fill="none" points="816.5,83.64,802.5564,70.7724,797.6245,81.7121,816.5,83.64" style="stroke:#181818;stroke-width:1.0;"/></g><!--link Rechnung to Rechnungstyp--><g id="link_Rechnung_Rechnungstyp"><path codeLine="36" d="M272.76,626.6 C306.22,742.65 379.94,933.28 520,1026 C596.62,1076.72 693.5032,1078.7688 766.2132,1071.8988 " fill="none" id="Rechnung-to-Rechnungstyp" style="stroke:#181818;stroke-width:1.0;"/><polygon fill="#181818" points="778.16,1070.77,771.8103,1067.3521,766.2132,1071.8988,772.5629,1075.3167,778.16,1070.77" style="stroke:#181818;stroke-width:1.0;"/><text fill="#000000" font-family="sans-serif" font-size="13" lengthAdjust="spacing" textLength="87" x="561" y="1022.0669">rechnungstyp</text><text fill="#000000" font-family="sans-serif" font-size="13" lengthAdjust="spacing" textLength="24" x="746.3964" y="1084.4987">0..1</text></g><!--link Rechnung to Zeitraum--><g id="link_Rechnung_Zeitraum"><path codeLine="37" d="M448.53,626.74 C472.18,635.02 496.33,642.1 520,647 C593.55,662.23 633.85,697.99 689,647 C705.69,631.56 682.18,562.24 697,545 C720.39,517.78 747.6126,509.3444 781.1726,506.8644 " fill="none" id="Rechnung-to-Zeitraum" style="stroke:#181818;stroke-width:1.0;"/><polygon fill="#181818" points="793.14,505.98,786.8615,502.4331,781.1726,506.8644,787.4511,510.4113,793.14,505.98" style="stroke:#181818;stroke-width:1.0;"/><text fill="#000000" font-family="sans-serif" font-size="13" lengthAdjust="spacing" textLength="115" x="547" y="643.0669">rechnungsperiode</text><text fill="#000000" font-family="sans-serif" font-size="13" lengthAdjust="spacing" textLength="24" x="761.3685" y="518.619">0..1</text></g><!--link Rechnung to Geschaeftspartner--><g id="link_Rechnung_Geschaeftspartner"><path codeLine="38" d="M290.93,433.48 C334.07,346.64 410.72,224.58 520,170 C587.2,136.44 631.13,122.11 689,170 C703.64,182.11 683.84,198.29 697,212 C717.06,232.9 734.6175,241.0521 762.6675,245.6421 " fill="none" id="Rechnung-to-Geschaeftspartner" style="stroke:#181818;stroke-width:1.0;"/><polygon fill="#181818" points="774.51,247.58,769.2347,242.6636,762.6675,245.6421,767.9428,250.5586,774.51,247.58" style="stroke:#181818;stroke-width:1.0;"/><text fill="#000000" font-family="sans-serif" font-size="13" lengthAdjust="spacing" textLength="119" x="545" y="136.0669">rechnungsersteller</text><text fill="#000000" font-family="sans-serif" font-size="13" lengthAdjust="spacing" textLength="24" x="743.0202" y="260.1368">0..1</text></g><!--link Rechnung to Geschaeftspartner--><g id="link_Rechnung_Geschaeftspartner"><path codeLine="39" d="M313.76,433.21 C362.07,369.66 434.47,291.74 520,255 C601.36,220.05 692.4853,222.9041 762.7653,232.2741 " fill="none" id="Rechnung-to-Geschaeftspartner-1" style="stroke:#181818;stroke-width:1.0;"/><polygon fill="#181818" points="774.66,233.86,769.2412,229.1022,762.7653,232.2741,768.184,237.032,774.66,233.86" style="stroke:#181818;stroke-width:1.0;"/><text fill="#000000" font-family="sans-serif" font-size="13" lengthAdjust="spacing" textLength="145" x="532" y="224.0669">rechnungsempfaenger</text><text fill="#000000" font-family="sans-serif" font-size="13" lengthAdjust="spacing" textLength="24" x="742.8889" y="229.0576">0..1</text></g><!--link Rechnung to Betrag--><g id="link_Rechnung_Betrag"><path codeLine="40" d="M355.4,433.41 C402.29,396.96 460.3,359.79 520,341 C591.65,318.45 625.11,301.51 689,341 C695.76,345.18 691.36,351.4 697,357 C725.28,385.1 754.497,400.5058 787.447,413.0658 " fill="none" id="Rechnung-to-Betrag" style="stroke:#181818;stroke-width:1.0;"/><polygon fill="#181818" points="798.66,417.34,794.4782,411.4652,787.447,413.0658,791.6288,418.9406,798.66,417.34" style="stroke:#181818;stroke-width:1.0;"/><text fill="#000000" font-family="sans-serif" font-size="13" lengthAdjust="spacing" textLength="83" x="563" y="314.0669">gesamtnetto</text><text fill="#000000" font-family="sans-serif" font-size="13" lengthAdjust="spacing" textLength="24" x="767.0213" y="428.303">0..1</text></g><!--link Rechnung to Betrag--><g id="link_Rechnung_Betrag"><path codeLine="41" d="M418.33,433.28 C451.1,418.68 485.89,405.88 520,398 C616.35,375.75 719.8839,395.7488 787.1539,414.1188 " fill="none" id="Rechnung-to-Betrag-1" style="stroke:#181818;stroke-width:1.0;"/><polygon fill="#181818" points="798.73,417.28,793.9957,411.8407,787.1539,414.1188,791.8882,419.5581,798.73,417.28" style="stroke:#181818;stroke-width:1.0;"/><text fill="#000000" font-family="sans-serif" font-size="13" lengthAdjust="spacing" textLength="90" x="559.5" y="385.0669">gesamtsteuer</text><text fill="#000000" font-family="sans-serif" font-size="13" lengthAdjust="spacing" textLength="24" x="767.0989" y="411.5959">0..1</text></g><!--link Rechnung to Betrag--><g id="link_Rechnung_Betrag"><path codeLine="42" d="M490.42,460.46 C500.38,458.45 510.27,456.62 520,455 C616.98,438.85 719.6504,435.3984 786.7004,434.8484 " fill="none" id="Rechnung-to-Betrag-2" style="stroke:#181818;stroke-width:1.0;"/><polygon fill="#181818" points="798.7,434.75,792.6674,430.7993,786.7004,434.8484,792.733,438.7991,798.7,434.75" style="stroke:#181818;stroke-width:1.0;"/><text fill="#000000" font-family="sans-serif" font-size="13" lengthAdjust="spacing" textLength="88" x="560.5" y="435.0669">gesamtbrutto</text><text fill="#000000" font-family="sans-serif" font-size="13" lengthAdjust="spacing" textLength="24" x="767.0656" y="447.6173">0..1</text></g><!--link Rechnung to Betrag--><g id="link_Rechnung_Betrag"><path codeLine="43" d="M490.33,509.36 C582.12,500.2 669.52,489.39 689,480 C693.53,477.82 692.61,474.44 697,472 C728.24,454.63 755.4523,447.2328 786.9823,442.3328 " fill="none" id="Rechnung-to-Betrag-3" style="stroke:#181818;stroke-width:1.0;"/><polygon fill="#181818" points="798.84,440.49,792.2969,437.4588,786.9823,442.3328,793.5254,445.3639,798.84,440.49" style="stroke:#181818;stroke-width:1.0;"/><text fill="#000000" font-family="sans-serif" font-size="13" lengthAdjust="spacing" textLength="60" x="574.5" y="476.0669">zuZahlen</text><text fill="#000000" font-family="sans-serif" font-size="13" lengthAdjust="spacing" textLength="24" x="766.7856" y="454.0667">0..1</text></g><!--link Rechnung to Betrag--><g id="link_Rechnung_Betrag"><path codeLine="44" d="M490.41,557.86 C575.67,562.13 658.11,557.98 689,531 C708.93,513.59 679.19,491.58 697,472 C722.38,444.09 752.4221,435.9579 786.8121,433.8679 " fill="none" id="Rechnung-to-Betrag-4" style="stroke:#181818;stroke-width:1.0;"/><polygon fill="#181818" points="798.79,433.14,792.5584,429.5113,786.8121,433.8679,793.0437,437.4966,798.79,433.14" style="stroke:#181818;stroke-width:1.0;"/><text fill="#000000" font-family="sans-serif" font-size="13" lengthAdjust="spacing" textLength="90" x="559.5" y="527.0669">vorausgezahlt</text><text fill="#000000" font-family="sans-serif" font-size="13" lengthAdjust="spacing" textLength="24" x="767.1655" y="429.1905">0..1</text></g><!--link Rechnung to Betrag--><g id="link_Rechnung_Betrag"><path codeLine="45" d="M490.47,592.38 C576.03,607.97 658.69,613.24 689,585 C707.42,567.84 680.67,491.16 697,472 C721.57,443.19 751.8566,435.0316 786.5766,433.2016 " fill="none" id="Rechnung-to-Betrag-5" style="stroke:#181818;stroke-width:1.0;"/><polygon fill="#181818" points="798.56,432.57,792.3578,428.8914,786.5766,433.2016,792.7789,436.8803,798.56,432.57" style="stroke:#181818;stroke-width:1.0;"/><text fill="#000000" font-family="sans-serif" font-size="13" lengthAdjust="spacing" textLength="79" x="565" y="581.0669">rabattBrutto</text><text fill="#000000" font-family="sans-serif" font-size="13" lengthAdjust="spacing" textLength="24" x="766.9762" y="448.169">0..1</text></g><!--link Rechnung to Rechnungsposition--><g id="link_Rechnung_Rechnungsposition"><path codeLine="46" d="M372.15,626.8 C416.23,655.92 467.97,684.08 520,699 C592.2,719.7 633.34,749.43 689,699 C702.4,686.85 685.07,631.6 697,618 C715.54,596.86 731.7821,588.5953 759.1721,583.9053 " fill="none" id="Rechnung-to-Rechnungsposition" style="stroke:#181818;stroke-width:1.0;"/><polygon fill="#181818" points="771,581.88,764.411,578.95,759.1721,583.9053,765.7612,586.8353,771,581.88" style="stroke:#181818;stroke-width:1.0;"/><text fill="#000000" font-family="sans-serif" font-size="13" lengthAdjust="spacing" textLength="133" x="538" y="695.0669">rechnungspositionen</text><text fill="#000000" font-family="sans-serif" font-size="13" lengthAdjust="spacing" textLength="23" x="740.5734" y="594.5937">0..*</text></g><!--link Rechnung to Rechnungsstatus--><g id="link_Rechnung_Rechnungsstatus"><path codeLine="47" d="M301.7,626.51 C348.03,701.08 423.34,798.78 520,843 C600.25,879.71 691.2036,874.0112 761.7236,861.5312 " fill="none" id="Rechnung-to-Rechnungsstatus" style="stroke:#181818;stroke-width:1.0;"/><polygon fill="#181818" points="773.54,859.44,766.9348,856.5468,761.7236,861.5312,768.3289,864.4244,773.54,859.44" style="stroke:#181818;stroke-width:1.0;"/><text fill="#000000" font-family="sans-serif" font-size="13" lengthAdjust="spacing" textLength="107" x="551" y="839.0669">rechnungsstatus</text><text fill="#000000" font-family="sans-serif" font-size="13" lengthAdjust="spacing" textLength="24" x="739.7473" y="874.2921">0..1</text></g><!--link Rechnung to Steuerbetrag--><g id="link_Rechnung_Steuerbetrag"><path codeLine="48" d="M335.11,626.54 C383.92,674.17 449.36,726.72 520,752 C590.72,777.3 626.8,794.11 689,752 C696.93,746.63 690.5,739.02 697,732 C722.32,704.66 748.1231,690.0421 779.9931,677.6721 " fill="none" id="Rechnung-to-Steuerbetrag" style="stroke:#181818;stroke-width:1.0;"/><polygon fill="#181818" points="791.18,673.33,784.1392,671.7721,779.9931,677.6721,787.0339,679.23,791.18,673.33" style="stroke:#181818;stroke-width:1.0;"/><text fill="#000000" font-family="sans-serif" font-size="13" lengthAdjust="spacing" textLength="99" x="555" y="748.0669">steuerbetraege</text><text fill="#000000" font-family="sans-serif" font-size="13" lengthAdjust="spacing" textLength="23" x="752.3359" y="690.9445">0..*</text></g><!--link Rechnung to Sparte--><g id="link_Rechnung_Sparte"><path codeLine="49" d="M281.37,626.38 C320.36,727.56 396.83,882.13 520,957 C604.8,1008.55 712.7466,1005.9287 783.8766,997.3387 " fill="none" id="Rechnung-to-Sparte" style="stroke:#181818;stroke-width:1.0;"/><polygon fill="#181818" points="795.79,995.9,789.3537,992.6482,783.8766,997.3387,790.3129,1000.5905,795.79,995.9" style="stroke:#181818;stroke-width:1.0;"/><text fill="#000000" font-family="sans-serif" font-size="13" lengthAdjust="spacing" textLength="41" x="584" y="953.0669">sparte</text><text fill="#000000" font-family="sans-serif" font-size="13" lengthAdjust="spacing" textLength="24" x="763.8373" y="1009.8774">0..1</text></g><!--link Rechnung to NetznutzungRechnungsart--><g id="link_Rechnung_NetznutzungRechnungsart"><path codeLine="50" d="M313.72,626.58 C362.01,689.89 434.4,767.31 520,803 C589.33,831.9 614.31,810.98 689,803 C719.73,799.72 741.4296,795.8181 770.1796,789.1581 " fill="none" id="Rechnung-to-NetznutzungRechnungsart" style="stroke:#181818;stroke-width:1.0;"/><polygon fill="#181818" points="781.87,786.45,775.1221,783.9072,770.1796,789.1581,776.9275,791.7009,781.87,786.45" style="stroke:#181818;stroke-width:1.0;"/><text fill="#000000" font-family="sans-serif" font-size="13" lengthAdjust="spacing" textLength="165" x="522" y="799.0669">netznutzungrechnungsart</text><text fill="#000000" font-family="sans-serif" font-size="13" lengthAdjust="spacing" textLength="24" x="733.5053" y="806.1156">0..1</text></g><!--link Rechnung to NetznutzungRechnungstyp--><g id="link_Rechnung_NetznutzungRechnungstyp"><path codeLine="51" d="M291.26,626.48 C334.64,713.55 411.45,836.64 520,895 C588.2,931.67 663.9237,936.0481 732.5437,930.8981 " fill="none" id="Rechnung-to-NetznutzungRechnungstyp" style="stroke:#181818;stroke-width:1.0;"/><polygon fill="#181818" points="744.51,930,738.2275,926.4603,732.5437,930.8981,738.8262,934.4378,744.51,930" style="stroke:#181818;stroke-width:1.0;"/><text fill="#000000" font-family="sans-serif" font-size="13" lengthAdjust="spacing" textLength="167" x="521" y="891.0669">netznutzungrechnungstyp</text><text fill="#000000" font-family="sans-serif" font-size="13" lengthAdjust="spacing" textLength="24" x="712.9544" y="943.564">0..1</text></g><!--link Rechnung to Marktlokation--><g id="link_Rechnung_Marktlokation"><path codeLine="52" d="M281.33,433.31 C320.09,333.15 396.18,182.09 520,115 C586.04,79.22 628.07,71.08 689,115 C698.12,121.57 688.69,131.43 697,139 C721.01,160.89 743.5425,169.0146 774.1725,173.0446 " fill="none" id="Rechnung-to-Marktlokation" style="stroke:#181818;stroke-width:1.0;"/><polygon fill="#181818" points="786.07,174.61,780.6431,169.8615,774.1725,173.0446,779.5995,177.7931,786.07,174.61" style="stroke:#181818;stroke-width:1.0;"/><text fill="#000000" font-family="sans-serif" font-size="13" lengthAdjust="spacing" textLength="88" x="560.5" y="82.0669">marktlokation</text><text fill="#000000" font-family="sans-serif" font-size="13" lengthAdjust="spacing" textLength="24" x="754.471" y="187.2464">0..1</text></g><!--link Rechnung to Messlokation--><g id="link_Rechnung_Messlokation"><path codeLine="53" d="M328.07,433.21 C377.04,380.85 444.9,321.24 520,293 C590.3,266.56 614.17,286.53 689,293 C721.74,295.83 745.9131,299.4784 776.0131,305.2284 " fill="none" id="Rechnung-to-Messlokation" style="stroke:#181818;stroke-width:1.0;"/><polygon fill="#181818" points="787.8,307.48,782.6571,302.4252,776.0131,305.2284,781.156,310.2831,787.8,307.48" style="stroke:#181818;stroke-width:1.0;"/><text fill="#000000" font-family="sans-serif" font-size="13" lengthAdjust="spacing" textLength="85" x="562" y="276.0669">messlokation</text><text fill="#000000" font-family="sans-serif" font-size="13" lengthAdjust="spacing" textLength="24" x="756.1083" y="318.8842">0..1</text></g><!--SRC=[lLVVRzDE37zU_WfhVK12MhhfonTG1PCscFW-y1rI1o-K2brQBpcMvA8x1xG2_plEprxIfEreu2bdvsEVp_RPlX1l2KY1bdv0i9GQ5oHLx3YBK1W3nxDPG9IOoNZigIVe-fA2r7Eb6b- -Ut9rajnJeE9nA0WDZKKY2vIdt82YS5GHh3I8qzXtf-K2giLy_Yb-OUGA9sUdvstuCGXJ8-6xS_IPxXEOm5j9g4KuU_7-Fd6dLw_-k_vm_MO2Zwhbe_CvpCxcy19iW7Ca3TsGqh5Y7PvI8SnENJV7NQiOdQDgNnEdKOIQKOPqBsWfA8qOS_5DQ7pD7Y0POHjzAp0CfN-7alOJgDKJ7pBiDa5ni6Gimka-zlAXtvNudcDdRf5H6ahKr0tvwJYnYD0aOe67fGIKn7oU1xUaO7JvzFMpY-TPZ8VCEn_D8X2SuKPvN_2Et3Sj1hGPdVdOLfERtfOSrl98w3iArPt8BgFxlqr1W-eqk26TMzkG-LDEJeIc6BNbvP836vmTVYvHBKUNt84zZSQi7MqHO1FTRhO0XPSj1b-QG-_CGaNMfM7AlZLCmkZgzEBvqrU7Nfjgdr5DUKXQ-Evb_e7Yi-c2DJ8tgu0DRSgAIwSMQUH-B1TGBReDgl2vIHLqQAFgAfqe8_FCcROviC7fjdT3LQFhrToXJs08KzHbd6yi0coYssHRDhVM5XaWxv7xcPNu6MbdVaR3Q7cs-EVVWpj6lTLeJSP8gpYb5Rk_3WvN7lTwpPzQVEZXR_fkc_RyU3sQXZzYlRCX7ahCEdiB6bfqpr5QMfg9M_3-JdHuBEoCJZOkzl0V41r6zqQ7_mr_nBpHeNkJVw3uzDXRG8jBc2__OAvaNcwuTWz_RZYnuJcUAzTFWfEJ7-VLGBWng5au1Zw6usm-FLxNWwPX4x3ttIQRbREwiLXY2MgfbhXDj65bDUXOAb1pdGn3dbSEKH8b_8I8_UrQibEKlNe2F4M9YFKGgGVA57NzWKAUJX-oqohzA88Guxq5lYgEZV5nnMAqjvGMdY2wxBNjiIMqsRhjH2Xvsorkfc1PH2qjPJ7SOKYZ3MUFkPf47tTkNvOBbYiAmIvyNpkRG4-B-YsDnNNiAQixRaRpsJE1nhDcbwmzoREeFPaxWLmYioAFxwXZ0lKDrifk9OPBymi0]--></g></svg>