<?xml version="1.0" encoding="us-ascii" standalone="no"?><svg xmlns="http://www.w3.org/2000/svg" xmlns:xlink="http://www.w3.org/1999/xlink" contentStyleType="text/css" height="1125px" preserveAspectRatio="none" style="width:1053px;height:1125px;background:#FFFFFF;" version="1.1" viewBox="0 0 1053 1125" width="1053px" zoomAndPan="magnify"><defs/><g><!--cluster bo4e--><g id="cluster_bo4e"><path d="M745.5,6 L786.5,6 A3.75,3.75 0 0 1 789,8.5 L796,28.2969 L1043.5,28.2969 A2.5,2.5 0 0 1 1046,30.7969 L1046,1115.5 A2.5,2.5 0 0 1 1043.5,1118 L745.5,1118 A2.5,2.5 0 0 1 743,1115.5 L743,8.5 A2.5,2.5 0 0 1 745.5,6 " fill="none" style="stroke:#000000;stroke-width:1.5;"/><line style="stroke:#000000;stroke-width:1.5;" x1="743" x2="796" y1="28.2969" y2="28.2969"/><text fill="#000000" font-family="sans-serif" font-size="14" font-weight="bold" lengthAdjust="spacing" textLength="40" x="747" y="20.9951">bo4e</text></g><!--cluster bo--><g id="cluster_bo"><path d="M799.5,49 L865.5,49 A3.75,3.75 0 0 1 868,51.5 L875,71.2969 L989.5,71.2969 A2.5,2.5 0 0 1 992,73.7969 L992,354.5 A2.5,2.5 0 0 1 989.5,357 L799.5,357 A2.5,2.5 0 0 1 797,354.5 L797,51.5 A2.5,2.5 0 0 1 799.5,49 " fill="#B6D7A8" style="stroke:#000000;stroke-width:1.5;"/><line style="stroke:#000000;stroke-width:1.5;" x1="797" x2="875" y1="71.2969" y2="71.2969"/><a href="https://bo4e.github.io/BO4E-python/latest/api/bo4e.bo.html" target="_top" title="https://bo4e.github.io/BO4E-python/latest/api/bo4e.bo.html" xlink:actuate="onRequest" xlink:href="https://bo4e.github.io/BO4E-python/latest/api/bo4e.bo.html" xlink:show="new" xlink:title="https://bo4e.github.io/BO4E-python/latest/api/bo4e.bo.html" xlink:type="simple"><text fill="#0000FF" font-family="sans-serif" font-size="14" font-weight="bold" lengthAdjust="spacing" text-decoration="underline" textLength="65" x="801" y="63.9951">bo4e.bo</text></a></g><!--cluster com--><g id="cluster_com"><path d="M796,381 L875,381 A3.75,3.75 0 0 1 877.5,383.5 L884.5,403.2969 L993,403.2969 A2.5,2.5 0 0 1 995.5,405.7969 L995.5,686.5 A2.5,2.5 0 0 1 993,689 L796,689 A2.5,2.5 0 0 1 793.5,686.5 L793.5,383.5 A2.5,2.5 0 0 1 796,381 " fill="#E0A86C" style="stroke:#000000;stroke-width:1.5;"/><line style="stroke:#000000;stroke-width:1.5;" x1="793.5" x2="884.5" y1="403.2969" y2="403.2969"/><a href="https://bo4e.github.io/BO4E-python/latest/api/bo4e.com.html" target="_top" title="https://bo4e.github.io/BO4E-python/latest/api/bo4e.com.html" xlink:actuate="onRequest" xlink:href="https://bo4e.github.io/BO4E-python/latest/api/bo4e.com.html" xlink:show="new" xlink:title="https://bo4e.github.io/BO4E-python/latest/api/bo4e.com.html" xlink:type="simple"><text fill="#0000FF" font-family="sans-serif" font-size="14" font-weight="bold" lengthAdjust="spacing" text-decoration="underline" textLength="78" x="797.5" y="395.9951">bo4e.com</text></a></g><!--cluster enum--><g id="cluster_enum"><path d="M769.5,713 L859.5,713 A3.75,3.75 0 0 1 862,715.5 L869,735.2969 L1019.5,735.2969 A2.5,2.5 0 0 1 1022,737.7969 L1022,1091.5 A2.5,2.5 0 0 1 1019.5,1094 L769.5,1094 A2.5,2.5 0 0 1 767,1091.5 L767,715.5 A2.5,2.5 0 0 1 769.5,713 " fill="#D1C358" style="stroke:#000000;stroke-width:1.5;"/><line style="stroke:#000000;stroke-width:1.5;" x1="767" x2="869" y1="735.2969" y2="735.2969"/><a href="https://bo4e.github.io/BO4E-python/latest/api/bo4e.enum.html" target="_top" title="https://bo4e.github.io/BO4E-python/latest/api/bo4e.enum.html" xlink:actuate="onRequest" xlink:href="https://bo4e.github.io/BO4E-python/latest/api/bo4e.enum.html" xlink:show="new" xlink:title="https://bo4e.github.io/BO4E-python/latest/api/bo4e.enum.html" xlink:type="simple"><text fill="#0000FF" font-family="sans-serif" font-size="14" font-weight="bold" lengthAdjust="spacing" text-decoration="underline" textLength="89" x="771" y="727.9951">bo4e.enum</text></a></g><!--class Geschaeftspartner--><g id="elem_Geschaeftspartner"><rect codeLine="16" fill="#F1F1F1" height="37.9375" id="Geschaeftspartner" rx="2.5" ry="2.5" style="stroke:#181818;stroke-width:0.5;" width="163" x="813" y="84.03"/><ellipse cx="828" cy="102.9987" fill="#ADD1B2" rx="11" ry="11" style="stroke:#181818;stroke-width:1.0;"/><path d="M830.9688,108.6394 Q830.3906,108.9362 829.75,109.0769 Q829.1094,109.2331 828.4063,109.2331 Q825.9063,109.2331 824.5781,107.5925 Q823.2656,105.9362 823.2656,102.8112 Q823.2656,99.6862 824.5781,98.03 Q825.9063,96.3737 828.4063,96.3737 Q829.1094,96.3737 829.75,96.53 Q830.4063,96.6862 830.9688,96.9831 L830.9688,99.7019 Q830.3438,99.1237 829.75,98.8581 Q829.1563,98.5769 828.5313,98.5769 Q827.1875,98.5769 826.5,99.655 Q825.8125,100.7175 825.8125,102.8112 Q825.8125,104.905 826.5,105.9831 Q827.1875,107.0456 828.5313,107.0456 Q829.1563,107.0456 829.75,106.78 Q830.3438,106.4987 830.9688,105.9206 L830.9688,108.6394 Z " fill="#000000"/><a href="https://bo4e.github.io/BO4E-python/latest/api/bo4e.bo.html#bo4e.bo.geschaeftspartner.Geschaeftspartner" target="_top" title="https://bo4e.github.io/BO4E-python/latest/api/bo4e.bo.html#bo4e.bo.geschaeftspartner.Geschaeftspartner" xlink:actuate="onRequest" xlink:href="https://bo4e.github.io/BO4E-python/latest/api/bo4e.bo.html#bo4e.bo.geschaeftspartner.Geschaeftspartner" xlink:show="new" xlink:title="https://bo4e.github.io/BO4E-python/latest/api/bo4e.bo.html#bo4e.bo.geschaeftspartner.Geschaeftspartner" xlink:type="simple"><text fill="#0000FF" font-family="sans-serif" font-size="14" lengthAdjust="spacing" text-decoration="underline" textLength="129" x="843" y="102.0251">Geschaeftspartner</text></a><text fill="#000000" font-family="sans-serif" font-size="10" lengthAdjust="spacing" textLength="131" x="842" y="114.6091">bo4e.bo.geschaeftspartner</text></g><!--class Geschaeftsobjekt--><g id="elem_Geschaeftsobjekt"><rect codeLine="17" fill="#F1F1F1" height="37.9375" id="Geschaeftsobjekt" rx="2.5" ry="2.5" style="stroke:#181818;stroke-width:0.5;" width="156" x="816.5" y="157.03"/><ellipse cx="831.5" cy="175.9987" fill="#ADD1B2" rx="11" ry="11" style="stroke:#181818;stroke-width:1.0;"/><path d="M834.4688,181.6394 Q833.8906,181.9362 833.25,182.0769 Q832.6094,182.2331 831.9063,182.2331 Q829.4063,182.2331 828.0781,180.5925 Q826.7656,178.9362 826.7656,175.8112 Q826.7656,172.6862 828.0781,171.03 Q829.4063,169.3737 831.9063,169.3737 Q832.6094,169.3737 833.25,169.53 Q833.9063,169.6862 834.4688,169.9831 L834.4688,172.7019 Q833.8438,172.1237 833.25,171.8581 Q832.6563,171.5769 832.0313,171.5769 Q830.6875,171.5769 830,172.655 Q829.3125,173.7175 829.3125,175.8112 Q829.3125,177.905 830,178.9831 Q830.6875,180.0456 832.0313,180.0456 Q832.6563,180.0456 833.25,179.78 Q833.8438,179.4987 834.4688,178.9206 L834.4688,181.6394 Z " fill="#000000"/><a href="https://bo4e.github.io/BO4E-python/latest/api/bo4e.bo.html#bo4e.bo.geschaeftsobjekt.Geschaeftsobjekt" target="_top" title="https://bo4e.github.io/BO4E-python/latest/api/bo4e.bo.html#bo4e.bo.geschaeftsobjekt.Geschaeftsobjekt" xlink:actuate="onRequest" xlink:href="https://bo4e.github.io/BO4E-python/latest/api/bo4e.bo.html#bo4e.bo.geschaeftsobjekt.Geschaeftsobjekt" xlink:show="new" xlink:title="https://bo4e.github.io/BO4E-python/latest/api/bo4e.bo.html#bo4e.bo.geschaeftsobjekt.Geschaeftsobjekt" xlink:type="simple"><text fill="#0000FF" font-family="sans-serif" font-size="14" lengthAdjust="spacing" text-decoration="underline" textLength="122" x="846.5" y="175.0251">Geschaeftsobjekt</text></a><text fill="#000000" font-family="sans-serif" font-size="10" lengthAdjust="spacing" textLength="124" x="845.5" y="187.6091">bo4e.bo.geschaeftsobjekt</text></g><!--class Marktlokation--><g id="elem_Marktlokation"><rect codeLine="18" fill="#F1F1F1" height="37.9375" id="Marktlokation" rx="2.5" ry="2.5" style="stroke:#181818;stroke-width:0.5;" width="140" x="824.5" y="230.03"/><ellipse cx="839.5" cy="248.9987" fill="#ADD1B2" rx="11" ry="11" style="stroke:#181818;stroke-width:1.0;"/><path d="M842.4688,254.6394 Q841.8906,254.9362 841.25,255.0769 Q840.6094,255.2331 839.9063,255.2331 Q837.4063,255.2331 836.0781,253.5925 Q834.7656,251.9362 834.7656,248.8112 Q834.7656,245.6862 836.0781,244.03 Q837.4063,242.3737 839.9063,242.3737 Q840.6094,242.3737 841.25,242.53 Q841.9063,242.6862 842.4688,242.9831 L842.4688,245.7019 Q841.8438,245.1237 841.25,244.8581 Q840.6563,244.5769 840.0313,244.5769 Q838.6875,244.5769 838,245.655 Q837.3125,246.7175 837.3125,248.8112 Q837.3125,250.905 838,251.9831 Q838.6875,253.0456 840.0313,253.0456 Q840.6563,253.0456 841.25,252.78 Q841.8438,252.4987 842.4688,251.9206 L842.4688,254.6394 Z " fill="#000000"/><a href="https://bo4e.github.io/BO4E-python/latest/api/bo4e.bo.html#bo4e.bo.marktlokation.Marktlokation" target="_top" title="https://bo4e.github.io/BO4E-python/latest/api/bo4e.bo.html#bo4e.bo.marktlokation.Marktlokation" xlink:actuate="onRequest" xlink:href="https://bo4e.github.io/BO4E-python/latest/api/bo4e.bo.html#bo4e.bo.marktlokation.Marktlokation" xlink:show="new" xlink:title="https://bo4e.github.io/BO4E-python/latest/api/bo4e.bo.html#bo4e.bo.marktlokation.Marktlokation" xlink:type="simple"><text fill="#0000FF" font-family="sans-serif" font-size="14" lengthAdjust="spacing" text-decoration="underline" textLength="92" x="861.5" y="248.0251">Marktlokation</text></a><text fill="#000000" font-family="sans-serif" font-size="10" lengthAdjust="spacing" textLength="108" x="853.5" y="260.6091">bo4e.bo.marktlokation</text></g><!--class Messlokation--><g id="elem_Messlokation"><rect codeLine="19" fill="#F1F1F1" height="37.9375" id="Messlokation" rx="2.5" ry="2.5" style="stroke:#181818;stroke-width:0.5;" width="137" x="826" y="303.03"/><ellipse cx="841" cy="321.9988" fill="#ADD1B2" rx="11" ry="11" style="stroke:#181818;stroke-width:1.0;"/><path d="M843.9688,327.6394 Q843.3906,327.9363 842.75,328.0769 Q842.1094,328.2331 841.4063,328.2331 Q838.9063,328.2331 837.5781,326.5925 Q836.2656,324.9363 836.2656,321.8113 Q836.2656,318.6863 837.5781,317.03 Q838.9063,315.3738 841.4063,315.3738 Q842.1094,315.3738 842.75,315.53 Q843.4063,315.6863 843.9688,315.9831 L843.9688,318.7019 Q843.3438,318.1238 842.75,317.8581 Q842.1563,317.5769 841.5313,317.5769 Q840.1875,317.5769 839.5,318.655 Q838.8125,319.7175 838.8125,321.8113 Q838.8125,323.905 839.5,324.9831 Q840.1875,326.0456 841.5313,326.0456 Q842.1563,326.0456 842.75,325.78 Q843.3438,325.4988 843.9688,324.9206 L843.9688,327.6394 Z " fill="#000000"/><a href="https://bo4e.github.io/BO4E-python/latest/api/bo4e.bo.html#bo4e.bo.messlokation.Messlokation" target="_top" title="https://bo4e.github.io/BO4E-python/latest/api/bo4e.bo.html#bo4e.bo.messlokation.Messlokation" xlink:actuate="onRequest" xlink:href="https://bo4e.github.io/BO4E-python/latest/api/bo4e.bo.html#bo4e.bo.messlokation.Messlokation" xlink:show="new" xlink:title="https://bo4e.github.io/BO4E-python/latest/api/bo4e.bo.html#bo4e.bo.messlokation.Messlokation" xlink:type="simple"><text fill="#0000FF" font-family="sans-serif" font-size="14" lengthAdjust="spacing" text-decoration="underline" textLength="91" x="862" y="321.0251">Messlokation</text></a><text fill="#000000" font-family="sans-serif" font-size="10" lengthAdjust="spacing" textLength="105" x="855" y="333.6091">bo4e.bo.messlokation</text></g><!--class Zeitraum--><g id="elem_Zeitraum"><rect codeLine="22" fill="#F1F1F1" height="37.9375" id="Zeitraum" rx="2.5" ry="2.5" style="stroke:#181818;stroke-width:0.5;" width="126" x="831.5" y="416.03"/><ellipse cx="846.5" cy="434.9988" fill="#ADD1B2" rx="11" ry="11" style="stroke:#181818;stroke-width:1.0;"/><path d="M849.4688,440.6394 Q848.8906,440.9363 848.25,441.0769 Q847.6094,441.2331 846.9063,441.2331 Q844.4063,441.2331 843.0781,439.5925 Q841.7656,437.9363 841.7656,434.8113 Q841.7656,431.6863 843.0781,430.03 Q844.4063,428.3738 846.9063,428.3738 Q847.6094,428.3738 848.25,428.53 Q848.9063,428.6863 849.4688,428.9831 L849.4688,431.7019 Q848.8438,431.1238 848.25,430.8581 Q847.6563,430.5769 847.0313,430.5769 Q845.6875,430.5769 845,431.655 Q844.3125,432.7175 844.3125,434.8113 Q844.3125,436.905 845,437.9831 Q845.6875,439.0456 847.0313,439.0456 Q847.6563,439.0456 848.25,438.78 Q848.8438,438.4988 849.4688,437.9206 L849.4688,440.6394 Z " fill="#000000"/><a href="https://bo4e.github.io/BO4E-python/latest/api/bo4e.com.html#bo4e.com.zeitraum.Zeitraum" target="_top" title="https://bo4e.github.io/BO4E-python/latest/api/bo4e.com.html#bo4e.com.zeitraum.Zeitraum" xlink:actuate="onRequest" xlink:href="https://bo4e.github.io/BO4E-python/latest/api/bo4e.com.html#bo4e.com.zeitraum.Zeitraum" xlink:show="new" xlink:title="https://bo4e.github.io/BO4E-python/latest/api/bo4e.com.html#bo4e.com.zeitraum.Zeitraum" xlink:type="simple"><text fill="#0000FF" font-family="sans-serif" font-size="14" lengthAdjust="spacing" text-decoration="underline" textLength="62" x="876.5" y="434.0251">Zeitraum</text></a><text fill="#000000" font-family="sans-serif" font-size="10" lengthAdjust="spacing" textLength="94" x="860.5" y="446.6091">bo4e.com.zeitraum</text></g><!--class Rechnungsposition--><g id="elem_Rechnungsposition"><rect codeLine="23" fill="#F1F1F1" height="37.9375" id="Rechnungsposition" rx="2.5" ry="2.5" style="stroke:#181818;stroke-width:0.5;" width="170" x="809.5" y="489.03"/><ellipse cx="824.5" cy="507.9988" fill="#ADD1B2" rx="11" ry="11" style="stroke:#181818;stroke-width:1.0;"/><path d="M827.4688,513.6394 Q826.8906,513.9363 826.25,514.0769 Q825.6094,514.2331 824.9063,514.2331 Q822.4063,514.2331 821.0781,512.5925 Q819.7656,510.9363 819.7656,507.8113 Q819.7656,504.6863 821.0781,503.03 Q822.4063,501.3738 824.9063,501.3738 Q825.6094,501.3738 826.25,501.53 Q826.9063,501.6863 827.4688,501.9831 L827.4688,504.7019 Q826.8438,504.1238 826.25,503.8581 Q825.6563,503.5769 825.0313,503.5769 Q823.6875,503.5769 823,504.655 Q822.3125,505.7175 822.3125,507.8113 Q822.3125,509.905 823,510.9831 Q823.6875,512.0456 825.0313,512.0456 Q825.6563,512.0456 826.25,511.78 Q826.8438,511.4988 827.4688,510.9206 L827.4688,513.6394 Z " fill="#000000"/><a href="https://bo4e.github.io/BO4E-python/latest/api/bo4e.com.html#bo4e.com.rechnungsposition.Rechnungsposition" target="_top" title="https://bo4e.github.io/BO4E-python/latest/api/bo4e.com.html#bo4e.com.rechnungsposition.Rechnungsposition" xlink:actuate="onRequest" xlink:href="https://bo4e.github.io/BO4E-python/latest/api/bo4e.com.html#bo4e.com.rechnungsposition.Rechnungsposition" xlink:show="new" xlink:title="https://bo4e.github.io/BO4E-python/latest/api/bo4e.com.html#bo4e.com.rechnungsposition.Rechnungsposition" xlink:type="simple"><text fill="#0000FF" font-family="sans-serif" font-size="14" lengthAdjust="spacing" text-decoration="underline" textLength="135" x="840" y="507.0251">Rechnungsposition</text></a><text fill="#000000" font-family="sans-serif" font-size="10" lengthAdjust="spacing" textLength="138" x="838.5" y="519.6091">bo4e.com.rechnungsposition</text></g><!--class Betrag--><g id="elem_Betrag"><rect codeLine="24" fill="#F1F1F1" height="37.9375" id="Betrag" rx="2.5" ry="2.5" style="stroke:#181818;stroke-width:0.5;" width="115" x="837" y="562.03"/><ellipse cx="852" cy="580.9988" fill="#ADD1B2" rx="11" ry="11" style="stroke:#181818;stroke-width:1.0;"/><path d="M854.9688,586.6394 Q854.3906,586.9363 853.75,587.0769 Q853.1094,587.2331 852.4063,587.2331 Q849.9063,587.2331 848.5781,585.5925 Q847.2656,583.9363 847.2656,580.8113 Q847.2656,577.6863 848.5781,576.03 Q849.9063,574.3738 852.4063,574.3738 Q853.1094,574.3738 853.75,574.53 Q854.4063,574.6863 854.9688,574.9831 L854.9688,577.7019 Q854.3438,577.1238 853.75,576.8581 Q853.1563,576.5769 852.5313,576.5769 Q851.1875,576.5769 850.5,577.655 Q849.8125,578.7175 849.8125,580.8113 Q849.8125,582.905 850.5,583.9831 Q851.1875,585.0456 852.5313,585.0456 Q853.1563,585.0456 853.75,584.78 Q854.3438,584.4988 854.9688,583.9206 L854.9688,586.6394 Z " fill="#000000"/><a href="https://bo4e.github.io/BO4E-python/latest/api/bo4e.com.html#bo4e.com.betrag.Betrag" target="_top" title="https://bo4e.github.io/BO4E-python/latest/api/bo4e.com.html#bo4e.com.betrag.Betrag" xlink:actuate="onRequest" xlink:href="https://bo4e.github.io/BO4E-python/latest/api/bo4e.com.html#bo4e.com.betrag.Betrag" xlink:show="new" xlink:title="https://bo4e.github.io/BO4E-python/latest/api/bo4e.com.html#bo4e.com.betrag.Betrag" xlink:type="simple"><text fill="#0000FF" font-family="sans-serif" font-size="14" lengthAdjust="spacing" text-decoration="underline" textLength="46" x="884.5" y="580.0251">Betrag</text></a><text fill="#000000" font-family="sans-serif" font-size="10" lengthAdjust="spacing" textLength="83" x="866" y="592.6091">bo4e.com.betrag</text></g><!--class Steuerbetrag--><g id="elem_Steuerbetrag"><rect codeLine="25" fill="#F1F1F1" height="37.9375" id="Steuerbetrag" rx="2.5" ry="2.5" style="stroke:#181818;stroke-width:0.5;" width="146" x="821.5" y="635.03"/><ellipse cx="836.5" cy="653.9988" fill="#ADD1B2" rx="11" ry="11" style="stroke:#181818;stroke-width:1.0;"/><path d="M839.4688,659.6394 Q838.8906,659.9363 838.25,660.0769 Q837.6094,660.2331 836.9063,660.2331 Q834.4063,660.2331 833.0781,658.5925 Q831.7656,656.9363 831.7656,653.8113 Q831.7656,650.6863 833.0781,649.03 Q834.4063,647.3738 836.9063,647.3738 Q837.6094,647.3738 838.25,647.53 Q838.9063,647.6863 839.4688,647.9831 L839.4688,650.7019 Q838.8438,650.1238 838.25,649.8581 Q837.6563,649.5769 837.0313,649.5769 Q835.6875,649.5769 835,650.655 Q834.3125,651.7175 834.3125,653.8113 Q834.3125,655.905 835,656.9831 Q835.6875,658.0456 837.0313,658.0456 Q837.6563,658.0456 838.25,657.78 Q838.8438,657.4988 839.4688,656.9206 L839.4688,659.6394 Z " fill="#000000"/><a href="https://bo4e.github.io/BO4E-python/latest/api/bo4e.com.html#bo4e.com.steuerbetrag.Steuerbetrag" target="_top" title="https://bo4e.github.io/BO4E-python/latest/api/bo4e.com.html#bo4e.com.steuerbetrag.Steuerbetrag" xlink:actuate="onRequest" xlink:href="https://bo4e.github.io/BO4E-python/latest/api/bo4e.com.html#bo4e.com.steuerbetrag.Steuerbetrag" xlink:show="new" xlink:title="https://bo4e.github.io/BO4E-python/latest/api/bo4e.com.html#bo4e.com.steuerbetrag.Steuerbetrag" xlink:type="simple"><text fill="#0000FF" font-family="sans-serif" font-size="14" lengthAdjust="spacing" text-decoration="underline" textLength="91" x="862" y="653.0251">Steuerbetrag</text></a><text fill="#000000" font-family="sans-serif" font-size="10" lengthAdjust="spacing" textLength="114" x="850.5" y="665.6091">bo4e.com.steuerbetrag</text></g><!--class NetznutzungRechnungsart--><g id="elem_NetznutzungRechnungsart"><rect codeLine="28" fill="#F1F1F1" height="37.9375" id="NetznutzungRechnungsart" rx="2.5" ry="2.5" style="stroke:#181818;stroke-width:0.5;" width="220" x="784.5" y="748.03"/><ellipse cx="799.5" cy="766.9988" fill="#ADD1B2" rx="11" ry="11" style="stroke:#181818;stroke-width:1.0;"/><path d="M802.4688,772.6394 Q801.8906,772.9363 801.25,773.0769 Q800.6094,773.2331 799.9063,773.2331 Q797.4063,773.2331 796.0781,771.5925 Q794.7656,769.9363 794.7656,766.8113 Q794.7656,763.6863 796.0781,762.03 Q797.4063,760.3738 799.9063,760.3738 Q800.6094,760.3738 801.25,760.53 Q801.9063,760.6863 802.4688,760.9831 L802.4688,763.7019 Q801.8438,763.1238 801.25,762.8581 Q800.6563,762.5769 800.0313,762.5769 Q798.6875,762.5769 798,763.655 Q797.3125,764.7175 797.3125,766.8113 Q797.3125,768.905 798,769.9831 Q798.6875,771.0456 800.0313,771.0456 Q800.6563,771.0456 801.25,770.78 Q801.8438,770.4988 802.4688,769.9206 L802.4688,772.6394 Z " fill="#000000"/><a href="https://bo4e.github.io/BO4E-python/latest/api/bo4e.enum.html#bo4e.enum.netznutzungrechnungsart.NetznutzungRechnungsart" target="_top" title="https://bo4e.github.io/BO4E-python/latest/api/bo4e.enum.html#bo4e.enum.netznutzungrechnungsart.NetznutzungRechnungsart" xlink:actuate="onRequest" xlink:href="https://bo4e.github.io/BO4E-python/latest/api/bo4e.enum.html#bo4e.enum.netznutzungrechnungsart.NetznutzungRechnungsart" xlink:show="new" xlink:title="https://bo4e.github.io/BO4E-python/latest/api/bo4e.enum.html#bo4e.enum.netznutzungrechnungsart.NetznutzungRechnungsart" xlink:type="simple"><text fill="#0000FF" font-family="sans-serif" font-size="14" lengthAdjust="spacing" text-decoration="underline" textLength="188" x="813.5" y="766.0251">NetznutzungRechnungsart</text></a><text fill="#000000" font-family="sans-serif" font-size="10" lengthAdjust="spacing" textLength="182" x="816.5" y="778.6091">bo4e.enum.netznutzungrechnungsart</text></g><!--class Sparte--><g id="elem_Sparte"><rect codeLine="29" fill="#F1F1F1" height="37.9375" id="Sparte" rx="2.5" ry="2.5" style="stroke:#181818;stroke-width:0.5;" width="121" x="834" y="821.03"/><ellipse cx="849" cy="839.9988" fill="#ADD1B2" rx="11" ry="11" style="stroke:#181818;stroke-width:1.0;"/><path d="M851.9688,845.6394 Q851.3906,845.9363 850.75,846.0769 Q850.1094,846.2331 849.4063,846.2331 Q846.9063,846.2331 845.5781,844.5925 Q844.2656,842.9363 844.2656,839.8113 Q844.2656,836.6863 845.5781,835.03 Q846.9063,833.3738 849.4063,833.3738 Q850.1094,833.3738 850.75,833.53 Q851.4063,833.6863 851.9688,833.9831 L851.9688,836.7019 Q851.3438,836.1238 850.75,835.8581 Q850.1563,835.5769 849.5313,835.5769 Q848.1875,835.5769 847.5,836.655 Q846.8125,837.7175 846.8125,839.8113 Q846.8125,841.905 847.5,842.9831 Q848.1875,844.0456 849.5313,844.0456 Q850.1563,844.0456 850.75,843.78 Q851.3438,843.4988 851.9688,842.9206 L851.9688,845.6394 Z " fill="#000000"/><a href="https://bo4e.github.io/BO4E-python/latest/api/bo4e.enum.html#bo4e.enum.sparte.Sparte" target="_top" title="https://bo4e.github.io/BO4E-python/latest/api/bo4e.enum.html#bo4e.enum.sparte.Sparte" xlink:actuate="onRequest" xlink:href="https://bo4e.github.io/BO4E-python/latest/api/bo4e.enum.html#bo4e.enum.sparte.Sparte" xlink:show="new" xlink:title="https://bo4e.github.io/BO4E-python/latest/api/bo4e.enum.html#bo4e.enum.sparte.Sparte" xlink:type="simple"><text fill="#0000FF" font-family="sans-serif" font-size="14" lengthAdjust="spacing" text-decoration="underline" textLength="45" x="885" y="839.0251">Sparte</text></a><text fill="#000000" font-family="sans-serif" font-size="10" lengthAdjust="spacing" textLength="89" x="863" y="851.6091">bo4e.enum.sparte</text></g><!--class Rechnungsstatus--><g id="elem_Rechnungsstatus"><rect codeLine="30" fill="#F1F1F1" height="37.9375" id="Rechnungsstatus" rx="2.5" ry="2.5" style="stroke:#181818;stroke-width:0.5;" width="170" x="809.5" y="894.03"/><ellipse cx="824.5" cy="912.9988" fill="#ADD1B2" rx="11" ry="11" style="stroke:#181818;stroke-width:1.0;"/><path d="M827.4688,918.6394 Q826.8906,918.9363 826.25,919.0769 Q825.6094,919.2331 824.9063,919.2331 Q822.4063,919.2331 821.0781,917.5925 Q819.7656,915.9363 819.7656,912.8113 Q819.7656,909.6863 821.0781,908.03 Q822.4063,906.3738 824.9063,906.3738 Q825.6094,906.3738 826.25,906.53 Q826.9063,906.6863 827.4688,906.9831 L827.4688,909.7019 Q826.8438,909.1238 826.25,908.8581 Q825.6563,908.5769 825.0313,908.5769 Q823.6875,908.5769 823,909.655 Q822.3125,910.7175 822.3125,912.8113 Q822.3125,914.905 823,915.9831 Q823.6875,917.0456 825.0313,917.0456 Q825.6563,917.0456 826.25,916.78 Q826.8438,916.4988 827.4688,915.9206 L827.4688,918.6394 Z " fill="#000000"/><a href="https://bo4e.github.io/BO4E-python/latest/api/bo4e.enum.html#bo4e.enum.rechnungsstatus.Rechnungsstatus" target="_top" title="https://bo4e.github.io/BO4E-python/latest/api/bo4e.enum.html#bo4e.enum.rechnungsstatus.Rechnungsstatus" xlink:actuate="onRequest" xlink:href="https://bo4e.github.io/BO4E-python/latest/api/bo4e.enum.html#bo4e.enum.rechnungsstatus.Rechnungsstatus" xlink:show="new" xlink:title="https://bo4e.github.io/BO4E-python/latest/api/bo4e.enum.html#bo4e.enum.rechnungsstatus.Rechnungsstatus" xlink:type="simple"><text fill="#0000FF" font-family="sans-serif" font-size="14" lengthAdjust="spacing" text-decoration="underline" textLength="123" x="846" y="912.0251">Rechnungsstatus</text></a><text fill="#000000" font-family="sans-serif" font-size="10" lengthAdjust="spacing" textLength="138" x="838.5" y="924.6091">bo4e.enum.rechnungsstatus</text></g><!--class Rechnungstyp--><g id="elem_Rechnungstyp"><rect codeLine="31" fill="#F1F1F1" height="37.9375" id="Rechnungstyp" rx="2.5" ry="2.5" style="stroke:#181818;stroke-width:0.5;" width="156" x="816.5" y="967.03"/><ellipse cx="831.5" cy="985.9988" fill="#ADD1B2" rx="11" ry="11" style="stroke:#181818;stroke-width:1.0;"/><path d="M834.4688,991.6394 Q833.8906,991.9363 833.25,992.0769 Q832.6094,992.2331 831.9063,992.2331 Q829.4063,992.2331 828.0781,990.5925 Q826.7656,988.9363 826.7656,985.8113 Q826.7656,982.6863 828.0781,981.03 Q829.4063,979.3738 831.9063,979.3738 Q832.6094,979.3738 833.25,979.53 Q833.9063,979.6863 834.4688,979.9831 L834.4688,982.7019 Q833.8438,982.1238 833.25,981.8581 Q832.6563,981.5769 832.0313,981.5769 Q830.6875,981.5769 830,982.655 Q829.3125,983.7175 829.3125,985.8113 Q829.3125,987.905 830,988.9831 Q830.6875,990.0456 832.0313,990.0456 Q832.6563,990.0456 833.25,989.78 Q833.8438,989.4988 834.4688,988.9206 L834.4688,991.6394 Z " fill="#000000"/><a href="https://bo4e.github.io/BO4E-python/latest/api/bo4e.enum.html#bo4e.enum.rechnungstyp.Rechnungstyp" target="_top" title="https://bo4e.github.io/BO4E-python/latest/api/bo4e.enum.html#bo4e.enum.rechnungstyp.Rechnungstyp" xlink:actuate="onRequest" xlink:href="https://bo4e.github.io/BO4E-python/latest/api/bo4e.enum.html#bo4e.enum.rechnungstyp.Rechnungstyp" xlink:show="new" xlink:title="https://bo4e.github.io/BO4E-python/latest/api/bo4e.enum.html#bo4e.enum.rechnungstyp.Rechnungstyp" xlink:type="simple"><text fill="#0000FF" font-family="sans-serif" font-size="14" lengthAdjust="spacing" text-decoration="underline" textLength="101" x="857" y="985.0251">Rechnungstyp</text></a><text fill="#000000" font-family="sans-serif" font-size="10" lengthAdjust="spacing" textLength="124" x="845.5" y="997.6091">bo4e.enum.rechnungstyp</text></g><!--class NetznutzungRechnungstyp--><g id="elem_NetznutzungRechnungstyp"><rect codeLine="32" fill="#F1F1F1" height="37.9375" id="NetznutzungRechnungstyp" rx="2.5" ry="2.5" style="stroke:#181818;stroke-width:0.5;" width="223" x="783" y="1040.03"/><ellipse cx="798" cy="1058.9988" fill="#ADD1B2" rx="11" ry="11" style="stroke:#181818;stroke-width:1.0;"/><path d="M800.9688,1064.6394 Q800.3906,1064.9363 799.75,1065.0769 Q799.1094,1065.2331 798.4063,1065.2331 Q795.9063,1065.2331 794.5781,1063.5925 Q793.2656,1061.9363 793.2656,1058.8113 Q793.2656,1055.6863 794.5781,1054.03 Q795.9063,1052.3738 798.4063,1052.3738 Q799.1094,1052.3738 799.75,1052.53 Q800.4063,1052.6863 800.9688,1052.9831 L800.9688,1055.7019 Q800.3438,1055.1238 799.75,1054.8581 Q799.1563,1054.5769 798.5313,1054.5769 Q797.1875,1054.5769 796.5,1055.655 Q795.8125,1056.7175 795.8125,1058.8113 Q795.8125,1060.905 796.5,1061.9831 Q797.1875,1063.0456 798.5313,1063.0456 Q799.1563,1063.0456 799.75,1062.78 Q800.3438,1062.4988 800.9688,1061.9206 L800.9688,1064.6394 Z " fill="#000000"/><a href="https://bo4e.github.io/BO4E-python/latest/api/bo4e.enum.html#bo4e.enum.netznutzungrechnungstyp.NetznutzungRechnungstyp" target="_top" title="https://bo4e.github.io/BO4E-python/latest/api/bo4e.enum.html#bo4e.enum.netznutzungrechnungstyp.NetznutzungRechnungstyp" xlink:actuate="onRequest" xlink:href="https://bo4e.github.io/BO4E-python/latest/api/bo4e.enum.html#bo4e.enum.netznutzungrechnungstyp.NetznutzungRechnungstyp" xlink:show="new" xlink:title="https://bo4e.github.io/BO4E-python/latest/api/bo4e.enum.html#bo4e.enum.netznutzungrechnungstyp.NetznutzungRechnungstyp" xlink:type="simple"><text fill="#0000FF" font-family="sans-serif" font-size="14" lengthAdjust="spacing" text-decoration="underline" textLength="191" x="812" y="1058.0251">NetznutzungRechnungstyp</text></a><text fill="#000000" font-family="sans-serif" font-size="10" lengthAdjust="spacing" textLength="184" x="815.5" y="1070.6091">bo4e.enum.netznutzungrechnungstyp</text></g><!--class Rechnung--><g id="elem_Rechnung"><rect codeLine="3" fill="#F1F1F1" height="192.6094" id="Rechnung" rx="2.5" ry="2.5" style="stroke:#181818;stroke-width:0.5;" width="521" x="7" y="449.7"/><ellipse cx="219.75" cy="468.6688" fill="#ADD1B2" rx="11" ry="11" style="stroke:#181818;stroke-width:1.0;"/><path d="M222.7188,474.3094 Q222.1406,474.6063 221.5,474.7469 Q220.8594,474.9031 220.1563,474.9031 Q217.6563,474.9031 216.3281,473.2625 Q215.0156,471.6063 215.0156,468.4813 Q215.0156,465.3563 216.3281,463.7 Q217.6563,462.0438 220.1563,462.0438 Q220.8594,462.0438 221.5,462.2 Q222.1563,462.3563 222.7188,462.6531 L222.7188,465.3719 Q222.0938,464.7938 221.5,464.5281 Q220.9063,464.2469 220.2813,464.2469 Q218.9375,464.2469 218.25,465.325 Q217.5625,466.3875 217.5625,468.4813 Q217.5625,470.575 218.25,471.6531 Q218.9375,472.7156 220.2813,472.7156 Q220.9063,472.7156 221.5,472.45 Q222.0938,472.1688 222.7188,471.5906 L222.7188,474.3094 Z " fill="#000000"/><a href="https://bo4e.github.io/BO4E-python/latest/api/bo4e.bo.html#bo4e.bo.rechnung.Rechnung" target="_top" title="https://bo4e.github.io/BO4E-python/latest/api/bo4e.bo.html#bo4e.bo.rechnung.Rechnung" xlink:actuate="onRequest" xlink:href="https://bo4e.github.io/BO4E-python/latest/api/bo4e.bo.html#bo4e.bo.rechnung.Rechnung" xlink:show="new" xlink:title="https://bo4e.github.io/BO4E-python/latest/api/bo4e.bo.html#bo4e.bo.rechnung.Rechnung" xlink:type="simple"><text fill="#0000FF" font-family="sans-serif" font-size="14" lengthAdjust="spacing" text-decoration="underline" textLength="72" x="247.75" y="467.6951">Rechnung</text></a><text fill="#000000" font-family="sans-serif" font-size="10" lengthAdjust="spacing" textLength="87" x="240.25" y="480.2791">bo4e.bo.rechnung</text><line style="stroke:#181818;stroke-width:0.5;" x1="8" x2="527" y1="487.6375" y2="487.6375"/><text fill="#000000" font-family="sans-serif" font-size="14" lengthAdjust="spacing" textLength="509" x="13" y="504.6326">_typ : Literal[&lt;BoTyp.RECHNUNG: 'RECHNUNG'&gt;] [1] = BoTyp.RECHNUNG</text><text fill="#000000" font-family="sans-serif" font-size="14" lengthAdjust="spacing" textLength="202" x="13" y="520.9295">istStorno : bool [0..1] = None</text><text fill="#000000" font-family="sans-serif" font-size="14" lengthAdjust="spacing" textLength="261" x="13" y="537.2264">rechnungsnummer : str [0..1] = None</text><text fill="#000000" font-family="sans-serif" font-size="14" lengthAdjust="spacing" textLength="334" x="13" y="553.5232">rechnungsdatum : AwareDatetime [0..1] = None</text><text fill="#000000" font-family="sans-serif" font-size="14" lengthAdjust="spacing" textLength="331" x="13" y="569.8201">faelligkeitsdatum : AwareDatetime [0..1] = None</text><text fill="#000000" font-family="sans-serif" font-size="14" lengthAdjust="spacing" textLength="228" x="13" y="586.117">rechnungstitel : str [0..1] = None</text><text fill="#000000" font-family="sans-serif" font-size="14" lengthAdjust="spacing" textLength="315" x="13" y="602.4139">originalRechnungsnummer : str [0..1] = None</text><text fill="#000000" font-family="sans-serif" font-size="14" lengthAdjust="spacing" textLength="207" x="13" y="618.7107">istOriginal : bool [0..1] = None</text><text fill="#000000" font-family="sans-serif" font-size="14" lengthAdjust="spacing" textLength="215" x="13" y="635.0076">istSimuliert : bool [0..1] = None</text></g><!--link Rechnung to Geschaeftsobjekt--><g id="link_Rechnung_Geschaeftsobjekt"><path codeLine="35" d="M328.35,449.26 C379.7,375.14 460.71,277.01 558,225 C638.72,181.84 727.1701,173.1083 798.3001,172.8383 " fill="none" id="Rechnung-to-Geschaeftsobjekt" style="stroke:#181818;stroke-width:1.0;"/><polygon fill="none" points="816.3,172.77,798.2774,166.8384,798.3229,178.8383,816.3,172.77" style="stroke:#181818;stroke-width:1.0;"/></g><!--link Rechnung to Rechnungstyp--><g id="link_Rechnung_Rechnungstyp"><path codeLine="36" d="M310.86,642.43 C357.26,735.64 440.96,872.64 558,942 C636.84,988.72 732.1864,995.2324 804.0064,992.8824 " fill="none" id="Rechnung-to-Rechnungstyp" style="stroke:#181818;stroke-width:1.0;"/><polygon fill="#181818" points="816,992.49,809.8724,988.6884,804.0064,992.8824,810.134,996.6841,816,992.49" style="stroke:#181818;stroke-width:1.0;"/><text fill="#000000" font-family="sans-serif" font-size="13" lengthAdjust="spacing" textLength="87" x="599" y="938.0669">rechnungstyp</text><text fill="#000000" font-family="sans-serif" font-size="13" lengthAdjust="spacing" textLength="24" x="784.5055" y="1005.721">0..1</text></g><!--link Rechnung to Zeitraum--><g id="link_Rechnung_Zeitraum"><path codeLine="37" d="M402.25,449.38 C449.18,420.92 503.77,393.52 558,379 C630.56,359.57 652.88,366.87 727,379 C769.59,385.97 804.8267,397.8624 837.7967,411.1224 " fill="none" id="Rechnung-to-Zeitraum" style="stroke:#181818;stroke-width:1.0;"/><polygon fill="#181818" points="848.93,415.6,844.8559,409.6501,837.7967,411.1224,841.8708,417.0723,848.93,415.6" style="stroke:#181818;stroke-width:1.0;"/><text fill="#000000" font-family="sans-serif" font-size="13" lengthAdjust="spacing" textLength="115" x="585" y="364.0669">rechnungsperiode</text><text fill="#000000" font-family="sans-serif" font-size="13" lengthAdjust="spacing" textLength="24" x="808.7384" y="405.1203">0..1</text></g><!--link Rechnung to Geschaeftspartner--><g id="link_Rechnung_Geschaeftspartner"><path codeLine="38" d="M298.01,449.35 C337.44,339.22 418.97,164.6 558,88 C645.84,39.61 755.5752,59.6321 825.6952,80.2021 " fill="none" id="Rechnung-to-Geschaeftspartner" style="stroke:#181818;stroke-width:1.0;"/><polygon fill="#181818" points="837.21,83.58,832.5786,78.0528,825.6952,80.2021,830.3267,85.7293,837.21,83.58" style="stroke:#181818;stroke-width:1.0;"/><text fill="#000000" font-family="sans-serif" font-size="13" lengthAdjust="spacing" textLength="119" x="583" y="56.0669">rechnungsersteller</text><text fill="#000000" font-family="sans-serif" font-size="13" lengthAdjust="spacing" textLength="24" x="793.7222" y="73.0947">0..1</text></g><!--link Rechnung to Geschaeftspartner--><g id="link_Rechnung_Geschaeftspartner"><path codeLine="39" d="M318.61,449.23 C367.92,363.89 451.27,243 558,176 C635.62,127.27 729.0543,111.6563 800.8743,106.2163 " fill="none" id="Rechnung-to-Geschaeftspartner-1" style="stroke:#181818;stroke-width:1.0;"/><polygon fill="#181818" points="812.84,105.31,806.555,101.7746,800.8743,106.2163,807.1593,109.7517,812.84,105.31" style="stroke:#181818;stroke-width:1.0;"/><text fill="#000000" font-family="sans-serif" font-size="13" lengthAdjust="spacing" textLength="145" x="570" y="113.0669">rechnungsempfaenger</text><text fill="#000000" font-family="sans-serif" font-size="13" lengthAdjust="spacing" textLength="24" x="781.0838" y="118.1949">0..1</text></g><!--link Rechnung to Betrag--><g id="link_Rechnung_Betrag"><path codeLine="40" d="M528.44,468.47 C614.24,450.13 695.77,443 727,471 C739.15,481.89 724.17,531.79 735,544 C760.02,572.23 790.0701,580.3853 824.5601,582.3853 " fill="none" id="Rechnung-to-Betrag" style="stroke:#181818;stroke-width:1.0;"/><polygon fill="#181818" points="836.54,583.08,830.7816,578.7394,824.5601,582.3853,830.3185,586.7259,836.54,583.08" style="stroke:#181818;stroke-width:1.0;"/><text fill="#000000" font-family="sans-serif" font-size="13" lengthAdjust="spacing" textLength="83" x="601" y="449.0669">gesamtnetto</text><text fill="#000000" font-family="sans-serif" font-size="13" lengthAdjust="spacing" textLength="24" x="804.8881" y="596.2021">0..1</text></g><!--link Rechnung to Betrag--><g id="link_Rechnung_Betrag"><path codeLine="41" d="M528.2,511.17 C612.04,505.15 692.31,506.56 727,528 C733.76,532.18 728.76,539.07 735,544 C763.72,566.67 792.0099,574.5864 824.7499,578.1364 " fill="none" id="Rechnung-to-Betrag-1" style="stroke:#181818;stroke-width:1.0;"/><polygon fill="#181818" points="836.68,579.43,831.1462,574.8065,824.7499,578.1364,830.2838,582.7599,836.68,579.43" style="stroke:#181818;stroke-width:1.0;"/><text fill="#000000" font-family="sans-serif" font-size="13" lengthAdjust="spacing" textLength="90" x="597.5" y="505.0669">gesamtsteuer</text><text fill="#000000" font-family="sans-serif" font-size="13" lengthAdjust="spacing" textLength="24" x="805.0434" y="575.5123">0..1</text></g><!--link Rechnung to Betrag--><g id="link_Rechnung_Betrag"><path codeLine="42" d="M528.13,560.54 C642.49,566.94 754.6088,573.2187 824.7488,577.1487 " fill="none" id="Rechnung-to-Betrag-2" style="stroke:#181818;stroke-width:1.0;"/><polygon fill="#181818" points="836.73,577.82,830.9632,573.4906,824.7488,577.1487,830.5156,581.4781,836.73,577.82" style="stroke:#181818;stroke-width:1.0;"/><text fill="#000000" font-family="sans-serif" font-size="13" lengthAdjust="spacing" textLength="88" x="598.5" y="559.0669">gesamtbrutto</text><text fill="#000000" font-family="sans-serif" font-size="13" lengthAdjust="spacing" textLength="24" x="805.0989" y="590.3668">0..1</text></g><!--link Rechnung to Betrag--><g id="link_Rechnung_Betrag"><path codeLine="43" d="M528.22,593.98 C538.26,595.13 548.21,596.14 558,597 C632.83,603.54 651.98,600.6 727,597 C763.55,595.25 792.521,592.6436 824.641,589.1336 " fill="none" id="Rechnung-to-Betrag-3" style="stroke:#181818;stroke-width:1.0;"/><polygon fill="#181818" points="836.57,587.83,830.171,584.5055,824.641,589.1336,831.04,592.4581,836.57,587.83" style="stroke:#181818;stroke-width:1.0;"/><text fill="#000000" font-family="sans-serif" font-size="13" lengthAdjust="spacing" textLength="60" x="612.5" y="593.0669">zuZahlen</text><text fill="#000000" font-family="sans-serif" font-size="13" lengthAdjust="spacing" textLength="24" x="804.9931" y="609.7953">0..1</text></g><!--link Rechnung to Betrag--><g id="link_Rechnung_Betrag"><path codeLine="44" d="M528.47,641.34 C594.85,652.28 664.95,651.7 727,626 C731.65,624.08 730.61,620.44 735,618 C766.24,600.63 793.4523,593.2328 824.9823,588.3328 " fill="none" id="Rechnung-to-Betrag-4" style="stroke:#181818;stroke-width:1.0;"/><polygon fill="#181818" points="836.84,586.49,830.2969,583.4588,824.9823,588.3328,831.5254,591.3639,836.84,586.49" style="stroke:#181818;stroke-width:1.0;"/><text fill="#000000" font-family="sans-serif" font-size="13" lengthAdjust="spacing" textLength="90" x="597.5" y="622.0669">vorausgezahlt</text><text fill="#000000" font-family="sans-serif" font-size="13" lengthAdjust="spacing" textLength="24" x="805.4488" y="582.2215">0..1</text></g><!--link Rechnung to Betrag--><g id="link_Rechnung_Betrag"><path codeLine="45" d="M457.06,642.67 C489.94,655.64 524.4,666.9 558,674 C631.49,689.52 670.26,723.21 727,674 C745.99,657.53 718.02,636.54 735,618 C760.48,590.19 790.5128,582.0588 824.8828,579.9388 " fill="none" id="Rechnung-to-Betrag-5" style="stroke:#181818;stroke-width:1.0;"/><polygon fill="#181818" points="836.86,579.2,830.6251,575.577,824.8828,579.9388,831.1176,583.5618,836.86,579.2" style="stroke:#181818;stroke-width:1.0;"/><text fill="#000000" font-family="sans-serif" font-size="13" lengthAdjust="spacing" textLength="79" x="603" y="670.0669">rabattBrutto</text><text fill="#000000" font-family="sans-serif" font-size="13" lengthAdjust="spacing" textLength="24" x="804.8079" y="575.1994">0..1</text></g><!--link Rechnung to Rechnungsposition--><g id="link_Rechnung_Rechnungsposition"><path codeLine="46" d="M479.45,449.21 C505.46,440.52 532.03,433.09 558,428 C631.71,413.56 669.24,379.99 727,428 C741.95,440.42 721.57,456.95 735,471 C754.23,491.12 770.317,499.1299 797.357,503.9599 " fill="none" id="Rechnung-to-Rechnungsposition" style="stroke:#181818;stroke-width:1.0;"/><polygon fill="#181818" points="809.17,506.07,803.9669,501.0773,797.357,503.9599,802.5601,508.9526,809.17,506.07" style="stroke:#181818;stroke-width:1.0;"/><text fill="#000000" font-family="sans-serif" font-size="13" lengthAdjust="spacing" textLength="133" x="576" y="400.0669">rechnungspositionen</text><text fill="#000000" font-family="sans-serif" font-size="13" lengthAdjust="spacing" textLength="23" x="778.4539" y="518.5861">0..*</text></g><!--link Rechnung to Rechnungsstatus--><g id="link_Rechnung_Rechnungsstatus"><path codeLine="47" d="M325.75,642.54 C376.54,718.76 458.09,820.68 558,873 C636.08,913.89 726.0726,920.8086 797.0226,919.3386 " fill="none" id="Rechnung-to-Rechnungsstatus" style="stroke:#181818;stroke-width:1.0;"/><polygon fill="#181818" points="809.02,919.09,802.9384,915.2151,797.0226,919.3386,803.1041,923.2134,809.02,919.09" style="stroke:#181818;stroke-width:1.0;"/><text fill="#000000" font-family="sans-serif" font-size="13" lengthAdjust="spacing" textLength="107" x="589" y="869.0669">rechnungsstatus</text><text fill="#000000" font-family="sans-serif" font-size="13" lengthAdjust="spacing" textLength="24" x="777.5567" y="932.2026">0..1</text></g><!--link Rechnung to Steuerbetrag--><g id="link_Rechnung_Steuerbetrag"><path codeLine="48" d="M390.96,642.61 C440.02,675.51 498.89,708.2 558,725 C630.25,745.53 653.41,740.04 727,725 C775.18,715.16 816.0868,696.4478 848.8368,679.0178 " fill="none" id="Rechnung-to-Steuerbetrag" style="stroke:#181818;stroke-width:1.0;"/><polygon fill="#181818" points="859.43,673.38,852.2541,672.6679,848.8368,679.0178,856.0127,679.73,859.43,673.38" style="stroke:#181818;stroke-width:1.0;"/><text fill="#000000" font-family="sans-serif" font-size="13" lengthAdjust="spacing" textLength="99" x="593" y="721.0669">steuerbetraege</text><text fill="#000000" font-family="sans-serif" font-size="13" lengthAdjust="spacing" textLength="23" x="823.3322" y="693.0259">0..*</text></g><!--link Rechnung to Sparte--><g id="link_Rechnung_Sparte"><path codeLine="49" d="M344.24,642.64 C397.16,702.52 473.3,774.86 558,812 C647.93,851.43 752.3491,852.0051 821.7291,847.1651 " fill="none" id="Rechnung-to-Sparte" style="stroke:#181818;stroke-width:1.0;"/><polygon fill="#181818" points="833.7,846.33,827.4362,842.7572,821.7291,847.1651,827.9929,850.7379,833.7,846.33" style="stroke:#181818;stroke-width:1.0;"/><text fill="#000000" font-family="sans-serif" font-size="13" lengthAdjust="spacing" textLength="41" x="622" y="808.0669">sparte</text><text fill="#000000" font-family="sans-serif" font-size="13" lengthAdjust="spacing" textLength="24" x="802.1925" y="859.8301">0..1</text></g><!--link Rechnung to NetznutzungRechnungsart--><g id="link_Rechnung_NetznutzungRechnungsart"><path codeLine="50" d="M364,642.67 C416.44,688.87 485.46,739.38 558,764 C630.53,788.62 705.1233,789.7588 772.1333,784.0488 " fill="none" id="Rechnung-to-NetznutzungRechnungsart" style="stroke:#181818;stroke-width:1.0;"/><polygon fill="#181818" points="784.09,783.03,777.7721,779.5539,772.1333,784.0488,778.4513,787.525,784.09,783.03" style="stroke:#181818;stroke-width:1.0;"/><text fill="#000000" font-family="sans-serif" font-size="13" lengthAdjust="spacing" textLength="165" x="560" y="760.0669">netznutzungrechnungsart</text><text fill="#000000" font-family="sans-serif" font-size="13" lengthAdjust="spacing" textLength="24" x="752.6306" y="796.5349">0..1</text></g><!--link Rechnung to NetznutzungRechnungstyp--><g id="link_Rechnung_NetznutzungRechnungstyp"><path codeLine="51" d="M299.58,642.72 C340.28,752.48 422.82,927.57 558,1015 C624.1,1057.75 700.92,1067.8224 770.57,1067.6924 " fill="none" id="Rechnung-to-NetznutzungRechnungstyp" style="stroke:#181818;stroke-width:1.0;"/><polygon fill="#181818" points="782.57,1067.67,776.5625,1063.6812,770.57,1067.6924,776.5775,1071.6812,782.57,1067.67" style="stroke:#181818;stroke-width:1.0;"/><text fill="#000000" font-family="sans-serif" font-size="13" lengthAdjust="spacing" textLength="167" x="559" y="1011.0669">netznutzungrechnungstyp</text><text fill="#000000" font-family="sans-serif" font-size="13" lengthAdjust="spacing" textLength="24" x="751.018" y="1080.7264">0..1</text></g><!--link Rechnung to Marktlokation--><g id="link_Rechnung_Marktlokation"><path codeLine="52" d="M349.92,449.26 C403.07,393.01 477.39,326.27 558,290 C643.89,251.35 741.9506,244.9337 812.1206,245.6137 " fill="none" id="Rechnung-to-Marktlokation" style="stroke:#181818;stroke-width:1.0;"/><polygon fill="#181818" points="824.12,245.73,818.159,241.672,812.1206,245.6137,818.0815,249.6717,824.12,245.73" style="stroke:#181818;stroke-width:1.0;"/><text fill="#000000" font-family="sans-serif" font-size="13" lengthAdjust="spacing" textLength="88" x="598.5" y="246.0669">marktlokation</text><text fill="#000000" font-family="sans-serif" font-size="13" lengthAdjust="spacing" textLength="24" x="792.5256" y="258.1931">0..1</text></g><!--link Rechnung to Messlokation--><g id="link_Rechnung_Messlokation"><path codeLine="53" d="M375.94,449.27 C427.33,408.93 491.96,366.14 558,343 C646.67,311.93 744.5305,310.9283 813.8405,314.9883 " fill="none" id="Rechnung-to-Messlokation" style="stroke:#181818;stroke-width:1.0;"/><polygon fill="#181818" points="825.82,315.69,820.0642,311.346,813.8405,314.9883,819.5964,319.3323,825.82,315.69" style="stroke:#181818;stroke-width:1.0;"/><text fill="#000000" font-family="sans-serif" font-size="13" lengthAdjust="spacing" textLength="85" x="600" y="311.0669">messlokation</text><text fill="#000000" font-family="sans-serif" font-size="13" lengthAdjust="spacing" textLength="24" x="793.8781" y="327.8807">0..1</text></g><!--SRC=[lLTTRzDA47skVyMeUK12gjFgSW55KAc1Yll0BL8ABuG8hPEflTJsMhjZK0FyTyQVMSTsqXB3a_UCpioUtPsT7OTuGq0AjFG3WfNKk2IfOiTPXi8OE9xF0wB4JCPZJpr1rvSKf9uhrNZwxidbIN97WOh7eI0qD1Q9B5YUSWEAmb45E6WGfx7lpie1L8F5ubFymiWrJivEpxVfno1CpOJlpj5dkajW0cybeHRX_CLKlRzBtDdbg_-kFbozcS2ZQlZeV07pimMyX2R5EPA6hadfM74SJwaGvgUkcpElL8pEKJMtYTCeGiqiGxgNj1AKHiov-2OqlkPT81dXDlj6O1XA_nObtS-X3a-yqB1RWk83ax48P_VHouj-L_9xbfrjYupIKAAcRifFnub5X2OHIpmiBQ04YqL-m2M2qVJfwsSNpxDp7ZBtV3JBG72Mit9DCMhtpRO5MfREj6n5okMtVF-KVELzmLkor1S6s3RiqLwGjgGNnc6LHqBVKgXkHLPFtFzj10tKARZXdQjj-0mi5OtPABK0sA1RfqKeP5e6lZI7tfcbYgnBmyY-DGnXT7bwyVpfgqElJJNFg4PhhbTQf97xiHn0DMXlXCtFvLNKeKNLfJ5HHkR7DTksGClIhRSLgl7SrDQXL-0XRuplJlCF59zkWGKpLrNGXfPY25FKfQ1h2u0DkiNPlhb4ssM0l4T-pwp4pw2T-Hc6qUfi-S-_1xyOzLIZ3OoHrd5AQyw4Ea-ulBjN6_lCiaEFlRrtkwBdo-k9DFmIy_SAtUly0yMdHsz1BOuv7mwlfju7GzmYcSsrBZ1iuHwXMr6QDxgm_K7fb7MQ5W0Rx5FCbAPSDloTlCvaTsLTje8U-mFokbfNJwIihzpy5foS_3Yl6i9MfsFncFWOZhF-z7XJ3vfxFm5RmYxVh9pLRvpbbg2MQeMxN1iggsxI2e6QwsGOSbDuI90euL-8sDyT9Lj5-QXCWDiz4N4S8lL0dwAkFz39q-b3Pbgd7qKGOdnlXw-ApyRuk6OtkhUN5fuWclPgUsmvjRi8En5Assx5pHGiovOLfIm_UuGqdk7iPww6wEFUwSjYpdv5cTx7xtlE9j3pHFrMnE8wzXI7FJUZ-TymWSP_mJvVkvDdLxipTmAvGZP57jzHnmJg6so2tKWCL-ON]--></g></svg>