<?xml version="1.0" encoding="us-ascii" standalone="no"?><svg xmlns="http://www.w3.org/2000/svg" xmlns:xlink="http://www.w3.org/1999/xlink" contentStyleType="text/css" height="1125px" preserveAspectRatio="none" style="width:878px;height:1125px;background:#FFFFFF;" version="1.1" viewBox="0 0 878 1125" width="878px" zoomAndPan="magnify"><defs/><g><!--cluster bo4e--><g id="cluster_bo4e"><path d="M570.5,6 L611.5,6 A3.75,3.75 0 0 1 614,8.5 L621,28.2969 L868.5,28.2969 A2.5,2.5 0 0 1 871,30.7969 L871,1115.5 A2.5,2.5 0 0 1 868.5,1118 L570.5,1118 A2.5,2.5 0 0 1 568,1115.5 L568,8.5 A2.5,2.5 0 0 1 570.5,6 " fill="none" style="stroke:#000000;stroke-width:1.5;"/><line style="stroke:#000000;stroke-width:1.5;" x1="568" x2="621" y1="28.2969" y2="28.2969"/><text fill="#000000" font-family="sans-serif" font-size="14" font-weight="bold" lengthAdjust="spacing" textLength="40" x="572" y="20.9951">bo4e</text></g><!--cluster bo--><g id="cluster_bo"><path d="M624.5,49 L690.5,49 A3.75,3.75 0 0 1 693,51.5 L700,71.2969 L814.5,71.2969 A2.5,2.5 0 0 1 817,73.7969 L817,354.5 A2.5,2.5 0 0 1 814.5,357 L624.5,357 A2.5,2.5 0 0 1 622,354.5 L622,51.5 A2.5,2.5 0 0 1 624.5,49 " fill="#B6D7A8" style="stroke:#000000;stroke-width:1.5;"/><line style="stroke:#000000;stroke-width:1.5;" x1="622" x2="700" y1="71.2969" y2="71.2969"/><a href="https://bo4e.github.io/BO4E-python/latest/api/bo4e.bo.html" target="_top" title="https://bo4e.github.io/BO4E-python/latest/api/bo4e.bo.html" xlink:actuate="onRequest" xlink:href="https://bo4e.github.io/BO4E-python/latest/api/bo4e.bo.html" xlink:show="new" xlink:title="https://bo4e.github.io/BO4E-python/latest/api/bo4e.bo.html" xlink:type="simple"><text fill="#0000FF" font-family="sans-serif" font-size="14" font-weight="bold" lengthAdjust="spacing" text-decoration="underline" textLength="65" x="626" y="63.9951">bo4e.bo</text></a></g><!--cluster com--><g id="cluster_com"><path d="M621,381 L700,381 A3.75,3.75 0 0 1 702.5,383.5 L709.5,403.2969 L818,403.2969 A2.5,2.5 0 0 1 820.5,405.7969 L820.5,686.5 A2.5,2.5 0 0 1 818,689 L621,689 A2.5,2.5 0 0 1 618.5,686.5 L618.5,383.5 A2.5,2.5 0 0 1 621,381 " fill="#E0A86C" style="stroke:#000000;stroke-width:1.5;"/><line style="stroke:#000000;stroke-width:1.5;" x1="618.5" x2="709.5" y1="403.2969" y2="403.2969"/><a href="https://bo4e.github.io/BO4E-python/latest/api/bo4e.com.html" target="_top" title="https://bo4e.github.io/BO4E-python/latest/api/bo4e.com.html" xlink:actuate="onRequest" xlink:href="https://bo4e.github.io/BO4E-python/latest/api/bo4e.com.html" xlink:show="new" xlink:title="https://bo4e.github.io/BO4E-python/latest/api/bo4e.com.html" xlink:type="simple"><text fill="#0000FF" font-family="sans-serif" font-size="14" font-weight="bold" lengthAdjust="spacing" text-decoration="underline" textLength="78" x="622.5" y="395.9951">bo4e.com</text></a></g><!--cluster enum--><g id="cluster_enum"><path d="M594.5,713 L684.5,713 A3.75,3.75 0 0 1 687,715.5 L694,735.2969 L844.5,735.2969 A2.5,2.5 0 0 1 847,737.7969 L847,1091.5 A2.5,2.5 0 0 1 844.5,1094 L594.5,1094 A2.5,2.5 0 0 1 592,1091.5 L592,715.5 A2.5,2.5 0 0 1 594.5,713 " fill="#D1C358" style="stroke:#000000;stroke-width:1.5;"/><line style="stroke:#000000;stroke-width:1.5;" x1="592" x2="694" y1="735.2969" y2="735.2969"/><a href="https://bo4e.github.io/BO4E-python/latest/api/bo4e.enum.html" target="_top" title="https://bo4e.github.io/BO4E-python/latest/api/bo4e.enum.html" xlink:actuate="onRequest" xlink:href="https://bo4e.github.io/BO4E-python/latest/api/bo4e.enum.html" xlink:show="new" xlink:title="https://bo4e.github.io/BO4E-python/latest/api/bo4e.enum.html" xlink:type="simple"><text fill="#0000FF" font-family="sans-serif" font-size="14" font-weight="bold" lengthAdjust="spacing" text-decoration="underline" textLength="89" x="596" y="727.9951">bo4e.enum</text></a></g><!--class Geschaeftsobjekt--><g id="elem_Geschaeftsobjekt"><rect codeLine="15" fill="#F1F1F1" height="37.9375" id="Geschaeftsobjekt" rx="2.5" ry="2.5" style="stroke:#181818;stroke-width:0.5;" width="156" x="641.5" y="84.03"/><ellipse cx="656.5" cy="102.9987" fill="#ADD1B2" rx="11" ry="11" style="stroke:#181818;stroke-width:1.0;"/><path d="M659.4688,108.6394 Q658.8906,108.9362 658.25,109.0769 Q657.6094,109.2331 656.9063,109.2331 Q654.4063,109.2331 653.0781,107.5925 Q651.7656,105.9362 651.7656,102.8112 Q651.7656,99.6862 653.0781,98.03 Q654.4063,96.3737 656.9063,96.3737 Q657.6094,96.3737 658.25,96.53 Q658.9063,96.6862 659.4688,96.9831 L659.4688,99.7019 Q658.8438,99.1237 658.25,98.8581 Q657.6563,98.5769 657.0313,98.5769 Q655.6875,98.5769 655,99.655 Q654.3125,100.7175 654.3125,102.8112 Q654.3125,104.905 655,105.9831 Q655.6875,107.0456 657.0313,107.0456 Q657.6563,107.0456 658.25,106.78 Q658.8438,106.4987 659.4688,105.9206 L659.4688,108.6394 Z " fill="#000000"/><a href="https://bo4e.github.io/BO4E-python/latest/api/bo4e.bo.html#bo4e.bo.geschaeftsobjekt.Geschaeftsobjekt" target="_top" title="https://bo4e.github.io/BO4E-python/latest/api/bo4e.bo.html#bo4e.bo.geschaeftsobjekt.Geschaeftsobjekt" xlink:actuate="onRequest" xlink:href="https://bo4e.github.io/BO4E-python/latest/api/bo4e.bo.html#bo4e.bo.geschaeftsobjekt.Geschaeftsobjekt" xlink:show="new" xlink:title="https://bo4e.github.io/BO4E-python/latest/api/bo4e.bo.html#bo4e.bo.geschaeftsobjekt.Geschaeftsobjekt" xlink:type="simple"><text fill="#0000FF" font-family="sans-serif" font-size="14" lengthAdjust="spacing" text-decoration="underline" textLength="122" x="671.5" y="102.0251">Geschaeftsobjekt</text></a><text fill="#000000" font-family="sans-serif" font-size="10" lengthAdjust="spacing" textLength="124" x="670.5" y="114.6091">bo4e.bo.geschaeftsobjekt</text></g><!--class Marktlokation--><g id="elem_Marktlokation"><rect codeLine="16" fill="#F1F1F1" height="37.9375" id="Marktlokation" rx="2.5" ry="2.5" style="stroke:#181818;stroke-width:0.5;" width="140" x="649.5" y="157.03"/><ellipse cx="664.5" cy="175.9987" fill="#ADD1B2" rx="11" ry="11" style="stroke:#181818;stroke-width:1.0;"/><path d="M667.4688,181.6394 Q666.8906,181.9362 666.25,182.0769 Q665.6094,182.2331 664.9063,182.2331 Q662.4063,182.2331 661.0781,180.5925 Q659.7656,178.9362 659.7656,175.8112 Q659.7656,172.6862 661.0781,171.03 Q662.4063,169.3737 664.9063,169.3737 Q665.6094,169.3737 666.25,169.53 Q666.9063,169.6862 667.4688,169.9831 L667.4688,172.7019 Q666.8438,172.1237 666.25,171.8581 Q665.6563,171.5769 665.0313,171.5769 Q663.6875,171.5769 663,172.655 Q662.3125,173.7175 662.3125,175.8112 Q662.3125,177.905 663,178.9831 Q663.6875,180.0456 665.0313,180.0456 Q665.6563,180.0456 666.25,179.78 Q666.8438,179.4987 667.4688,178.9206 L667.4688,181.6394 Z " fill="#000000"/><a href="https://bo4e.github.io/BO4E-python/latest/api/bo4e.bo.html#bo4e.bo.marktlokation.Marktlokation" target="_top" title="https://bo4e.github.io/BO4E-python/latest/api/bo4e.bo.html#bo4e.bo.marktlokation.Marktlokation" xlink:actuate="onRequest" xlink:href="https://bo4e.github.io/BO4E-python/latest/api/bo4e.bo.html#bo4e.bo.marktlokation.Marktlokation" xlink:show="new" xlink:title="https://bo4e.github.io/BO4E-python/latest/api/bo4e.bo.html#bo4e.bo.marktlokation.Marktlokation" xlink:type="simple"><text fill="#0000FF" font-family="sans-serif" font-size="14" lengthAdjust="spacing" text-decoration="underline" textLength="92" x="686.5" y="175.0251">Marktlokation</text></a><text fill="#000000" font-family="sans-serif" font-size="10" lengthAdjust="spacing" textLength="108" x="678.5" y="187.6091">bo4e.bo.marktlokation</text></g><!--class Messlokation--><g id="elem_Messlokation"><rect codeLine="17" fill="#F1F1F1" height="37.9375" id="Messlokation" rx="2.5" ry="2.5" style="stroke:#181818;stroke-width:0.5;" width="137" x="651" y="230.03"/><ellipse cx="666" cy="248.9987" fill="#ADD1B2" rx="11" ry="11" style="stroke:#181818;stroke-width:1.0;"/><path d="M668.9688,254.6394 Q668.3906,254.9362 667.75,255.0769 Q667.1094,255.2331 666.4063,255.2331 Q663.9063,255.2331 662.5781,253.5925 Q661.2656,251.9362 661.2656,248.8112 Q661.2656,245.6862 662.5781,244.03 Q663.9063,242.3737 666.4063,242.3737 Q667.1094,242.3737 667.75,242.53 Q668.4063,242.6862 668.9688,242.9831 L668.9688,245.7019 Q668.3438,245.1237 667.75,244.8581 Q667.1563,244.5769 666.5313,244.5769 Q665.1875,244.5769 664.5,245.655 Q663.8125,246.7175 663.8125,248.8112 Q663.8125,250.905 664.5,251.9831 Q665.1875,253.0456 666.5313,253.0456 Q667.1563,253.0456 667.75,252.78 Q668.3438,252.4987 668.9688,251.9206 L668.9688,254.6394 Z " fill="#000000"/><a href="https://bo4e.github.io/BO4E-python/latest/api/bo4e.bo.html#bo4e.bo.messlokation.Messlokation" target="_top" title="https://bo4e.github.io/BO4E-python/latest/api/bo4e.bo.html#bo4e.bo.messlokation.Messlokation" xlink:actuate="onRequest" xlink:href="https://bo4e.github.io/BO4E-python/latest/api/bo4e.bo.html#bo4e.bo.messlokation.Messlokation" xlink:show="new" xlink:title="https://bo4e.github.io/BO4E-python/latest/api/bo4e.bo.html#bo4e.bo.messlokation.Messlokation" xlink:type="simple"><text fill="#0000FF" font-family="sans-serif" font-size="14" lengthAdjust="spacing" text-decoration="underline" textLength="91" x="687" y="248.0251">Messlokation</text></a><text fill="#000000" font-family="sans-serif" font-size="10" lengthAdjust="spacing" textLength="105" x="680" y="260.6091">bo4e.bo.messlokation</text></g><!--class Geschaeftspartner--><g id="elem_Geschaeftspartner"><rect codeLine="18" fill="#F1F1F1" height="37.9375" id="Geschaeftspartner" rx="2.5" ry="2.5" style="stroke:#181818;stroke-width:0.5;" width="163" x="638" y="303.03"/><ellipse cx="653" cy="321.9988" fill="#ADD1B2" rx="11" ry="11" style="stroke:#181818;stroke-width:1.0;"/><path d="M655.9688,327.6394 Q655.3906,327.9363 654.75,328.0769 Q654.1094,328.2331 653.4063,328.2331 Q650.9063,328.2331 649.5781,326.5925 Q648.2656,324.9363 648.2656,321.8113 Q648.2656,318.6863 649.5781,317.03 Q650.9063,315.3738 653.4063,315.3738 Q654.1094,315.3738 654.75,315.53 Q655.4063,315.6863 655.9688,315.9831 L655.9688,318.7019 Q655.3438,318.1238 654.75,317.8581 Q654.1563,317.5769 653.5313,317.5769 Q652.1875,317.5769 651.5,318.655 Q650.8125,319.7175 650.8125,321.8113 Q650.8125,323.905 651.5,324.9831 Q652.1875,326.0456 653.5313,326.0456 Q654.1563,326.0456 654.75,325.78 Q655.3438,325.4988 655.9688,324.9206 L655.9688,327.6394 Z " fill="#000000"/><a href="https://bo4e.github.io/BO4E-python/latest/api/bo4e.bo.html#bo4e.bo.geschaeftspartner.Geschaeftspartner" target="_top" title="https://bo4e.github.io/BO4E-python/latest/api/bo4e.bo.html#bo4e.bo.geschaeftspartner.Geschaeftspartner" xlink:actuate="onRequest" xlink:href="https://bo4e.github.io/BO4E-python/latest/api/bo4e.bo.html#bo4e.bo.geschaeftspartner.Geschaeftspartner" xlink:show="new" xlink:title="https://bo4e.github.io/BO4E-python/latest/api/bo4e.bo.html#bo4e.bo.geschaeftspartner.Geschaeftspartner" xlink:type="simple"><text fill="#0000FF" font-family="sans-serif" font-size="14" lengthAdjust="spacing" text-decoration="underline" textLength="129" x="668" y="321.0251">Geschaeftspartner</text></a><text fill="#000000" font-family="sans-serif" font-size="10" lengthAdjust="spacing" textLength="131" x="667" y="333.6091">bo4e.bo.geschaeftspartner</text></g><!--class Zeitraum--><g id="elem_Zeitraum"><rect codeLine="21" fill="#F1F1F1" height="37.9375" id="Zeitraum" rx="2.5" ry="2.5" style="stroke:#181818;stroke-width:0.5;" width="126" x="656.5" y="416.03"/><ellipse cx="671.5" cy="434.9988" fill="#ADD1B2" rx="11" ry="11" style="stroke:#181818;stroke-width:1.0;"/><path d="M674.4688,440.6394 Q673.8906,440.9363 673.25,441.0769 Q672.6094,441.2331 671.9063,441.2331 Q669.4063,441.2331 668.0781,439.5925 Q666.7656,437.9363 666.7656,434.8113 Q666.7656,431.6863 668.0781,430.03 Q669.4063,428.3738 671.9063,428.3738 Q672.6094,428.3738 673.25,428.53 Q673.9063,428.6863 674.4688,428.9831 L674.4688,431.7019 Q673.8438,431.1238 673.25,430.8581 Q672.6563,430.5769 672.0313,430.5769 Q670.6875,430.5769 670,431.655 Q669.3125,432.7175 669.3125,434.8113 Q669.3125,436.905 670,437.9831 Q670.6875,439.0456 672.0313,439.0456 Q672.6563,439.0456 673.25,438.78 Q673.8438,438.4988 674.4688,437.9206 L674.4688,440.6394 Z " fill="#000000"/><a href="https://bo4e.github.io/BO4E-python/latest/api/bo4e.com.html#bo4e.com.zeitraum.Zeitraum" target="_top" title="https://bo4e.github.io/BO4E-python/latest/api/bo4e.com.html#bo4e.com.zeitraum.Zeitraum" xlink:actuate="onRequest" xlink:href="https://bo4e.github.io/BO4E-python/latest/api/bo4e.com.html#bo4e.com.zeitraum.Zeitraum" xlink:show="new" xlink:title="https://bo4e.github.io/BO4E-python/latest/api/bo4e.com.html#bo4e.com.zeitraum.Zeitraum" xlink:type="simple"><text fill="#0000FF" font-family="sans-serif" font-size="14" lengthAdjust="spacing" text-decoration="underline" textLength="62" x="701.5" y="434.0251">Zeitraum</text></a><text fill="#000000" font-family="sans-serif" font-size="10" lengthAdjust="spacing" textLength="94" x="685.5" y="446.6091">bo4e.com.zeitraum</text></g><!--class Rechnungsposition--><g id="elem_Rechnungsposition"><rect codeLine="22" fill="#F1F1F1" height="37.9375" id="Rechnungsposition" rx="2.5" ry="2.5" style="stroke:#181818;stroke-width:0.5;" width="170" x="634.5" y="489.03"/><ellipse cx="649.5" cy="507.9988" fill="#ADD1B2" rx="11" ry="11" style="stroke:#181818;stroke-width:1.0;"/><path d="M652.4688,513.6394 Q651.8906,513.9363 651.25,514.0769 Q650.6094,514.2331 649.9063,514.2331 Q647.4063,514.2331 646.0781,512.5925 Q644.7656,510.9363 644.7656,507.8113 Q644.7656,504.6863 646.0781,503.03 Q647.4063,501.3738 649.9063,501.3738 Q650.6094,501.3738 651.25,501.53 Q651.9063,501.6863 652.4688,501.9831 L652.4688,504.7019 Q651.8438,504.1238 651.25,503.8581 Q650.6563,503.5769 650.0313,503.5769 Q648.6875,503.5769 648,504.655 Q647.3125,505.7175 647.3125,507.8113 Q647.3125,509.905 648,510.9831 Q648.6875,512.0456 650.0313,512.0456 Q650.6563,512.0456 651.25,511.78 Q651.8438,511.4988 652.4688,510.9206 L652.4688,513.6394 Z " fill="#000000"/><a href="https://bo4e.github.io/BO4E-python/latest/api/bo4e.com.html#bo4e.com.rechnungsposition.Rechnungsposition" target="_top" title="https://bo4e.github.io/BO4E-python/latest/api/bo4e.com.html#bo4e.com.rechnungsposition.Rechnungsposition" xlink:actuate="onRequest" xlink:href="https://bo4e.github.io/BO4E-python/latest/api/bo4e.com.html#bo4e.com.rechnungsposition.Rechnungsposition" xlink:show="new" xlink:title="https://bo4e.github.io/BO4E-python/latest/api/bo4e.com.html#bo4e.com.rechnungsposition.Rechnungsposition" xlink:type="simple"><text fill="#0000FF" font-family="sans-serif" font-size="14" lengthAdjust="spacing" text-decoration="underline" textLength="135" x="665" y="507.0251">Rechnungsposition</text></a><text fill="#000000" font-family="sans-serif" font-size="10" lengthAdjust="spacing" textLength="138" x="663.5" y="519.6091">bo4e.com.rechnungsposition</text></g><!--class Steuerbetrag--><g id="elem_Steuerbetrag"><rect codeLine="23" fill="#F1F1F1" height="37.9375" id="Steuerbetrag" rx="2.5" ry="2.5" style="stroke:#181818;stroke-width:0.5;" width="146" x="646.5" y="562.03"/><ellipse cx="661.5" cy="580.9988" fill="#ADD1B2" rx="11" ry="11" style="stroke:#181818;stroke-width:1.0;"/><path d="M664.4688,586.6394 Q663.8906,586.9363 663.25,587.0769 Q662.6094,587.2331 661.9063,587.2331 Q659.4063,587.2331 658.0781,585.5925 Q656.7656,583.9363 656.7656,580.8113 Q656.7656,577.6863 658.0781,576.03 Q659.4063,574.3738 661.9063,574.3738 Q662.6094,574.3738 663.25,574.53 Q663.9063,574.6863 664.4688,574.9831 L664.4688,577.7019 Q663.8438,577.1238 663.25,576.8581 Q662.6563,576.5769 662.0313,576.5769 Q660.6875,576.5769 660,577.655 Q659.3125,578.7175 659.3125,580.8113 Q659.3125,582.905 660,583.9831 Q660.6875,585.0456 662.0313,585.0456 Q662.6563,585.0456 663.25,584.78 Q663.8438,584.4988 664.4688,583.9206 L664.4688,586.6394 Z " fill="#000000"/><a href="https://bo4e.github.io/BO4E-python/latest/api/bo4e.com.html#bo4e.com.steuerbetrag.Steuerbetrag" target="_top" title="https://bo4e.github.io/BO4E-python/latest/api/bo4e.com.html#bo4e.com.steuerbetrag.Steuerbetrag" xlink:actuate="onRequest" xlink:href="https://bo4e.github.io/BO4E-python/latest/api/bo4e.com.html#bo4e.com.steuerbetrag.Steuerbetrag" xlink:show="new" xlink:title="https://bo4e.github.io/BO4E-python/latest/api/bo4e.com.html#bo4e.com.steuerbetrag.Steuerbetrag" xlink:type="simple"><text fill="#0000FF" font-family="sans-serif" font-size="14" lengthAdjust="spacing" text-decoration="underline" textLength="91" x="687" y="580.0251">Steuerbetrag</text></a><text fill="#000000" font-family="sans-serif" font-size="10" lengthAdjust="spacing" textLength="114" x="675.5" y="592.6091">bo4e.com.steuerbetrag</text></g><!--class Betrag--><g id="elem_Betrag"><rect codeLine="24" fill="#F1F1F1" height="37.9375" id="Betrag" rx="2.5" ry="2.5" style="stroke:#181818;stroke-width:0.5;" width="115" x="662" y="635.03"/><ellipse cx="677" cy="653.9988" fill="#ADD1B2" rx="11" ry="11" style="stroke:#181818;stroke-width:1.0;"/><path d="M679.9688,659.6394 Q679.3906,659.9363 678.75,660.0769 Q678.1094,660.2331 677.4063,660.2331 Q674.9063,660.2331 673.5781,658.5925 Q672.2656,656.9363 672.2656,653.8113 Q672.2656,650.6863 673.5781,649.03 Q674.9063,647.3738 677.4063,647.3738 Q678.1094,647.3738 678.75,647.53 Q679.4063,647.6863 679.9688,647.9831 L679.9688,650.7019 Q679.3438,650.1238 678.75,649.8581 Q678.1563,649.5769 677.5313,649.5769 Q676.1875,649.5769 675.5,650.655 Q674.8125,651.7175 674.8125,653.8113 Q674.8125,655.905 675.5,656.9831 Q676.1875,658.0456 677.5313,658.0456 Q678.1563,658.0456 678.75,657.78 Q679.3438,657.4988 679.9688,656.9206 L679.9688,659.6394 Z " fill="#000000"/><a href="https://bo4e.github.io/BO4E-python/latest/api/bo4e.com.html#bo4e.com.betrag.Betrag" target="_top" title="https://bo4e.github.io/BO4E-python/latest/api/bo4e.com.html#bo4e.com.betrag.Betrag" xlink:actuate="onRequest" xlink:href="https://bo4e.github.io/BO4E-python/latest/api/bo4e.com.html#bo4e.com.betrag.Betrag" xlink:show="new" xlink:title="https://bo4e.github.io/BO4E-python/latest/api/bo4e.com.html#bo4e.com.betrag.Betrag" xlink:type="simple"><text fill="#0000FF" font-family="sans-serif" font-size="14" lengthAdjust="spacing" text-decoration="underline" textLength="46" x="709.5" y="653.0251">Betrag</text></a><text fill="#000000" font-family="sans-serif" font-size="10" lengthAdjust="spacing" textLength="83" x="691" y="665.6091">bo4e.com.betrag</text></g><!--class NetznutzungRechnungstyp--><g id="elem_NetznutzungRechnungstyp"><rect codeLine="27" fill="#F1F1F1" height="37.9375" id="NetznutzungRechnungstyp" rx="2.5" ry="2.5" style="stroke:#181818;stroke-width:0.5;" width="223" x="608" y="748.03"/><ellipse cx="623" cy="766.9988" fill="#ADD1B2" rx="11" ry="11" style="stroke:#181818;stroke-width:1.0;"/><path d="M625.9688,772.6394 Q625.3906,772.9363 624.75,773.0769 Q624.1094,773.2331 623.4063,773.2331 Q620.9063,773.2331 619.5781,771.5925 Q618.2656,769.9363 618.2656,766.8113 Q618.2656,763.6863 619.5781,762.03 Q620.9063,760.3738 623.4063,760.3738 Q624.1094,760.3738 624.75,760.53 Q625.4063,760.6863 625.9688,760.9831 L625.9688,763.7019 Q625.3438,763.1238 624.75,762.8581 Q624.1563,762.5769 623.5313,762.5769 Q622.1875,762.5769 621.5,763.655 Q620.8125,764.7175 620.8125,766.8113 Q620.8125,768.905 621.5,769.9831 Q622.1875,771.0456 623.5313,771.0456 Q624.1563,771.0456 624.75,770.78 Q625.3438,770.4988 625.9688,769.9206 L625.9688,772.6394 Z " fill="#000000"/><a href="https://bo4e.github.io/BO4E-python/latest/api/bo4e.enum.html#bo4e.enum.netznutzungrechnungstyp.NetznutzungRechnungstyp" target="_top" title="https://bo4e.github.io/BO4E-python/latest/api/bo4e.enum.html#bo4e.enum.netznutzungrechnungstyp.NetznutzungRechnungstyp" xlink:actuate="onRequest" xlink:href="https://bo4e.github.io/BO4E-python/latest/api/bo4e.enum.html#bo4e.enum.netznutzungrechnungstyp.NetznutzungRechnungstyp" xlink:show="new" xlink:title="https://bo4e.github.io/BO4E-python/latest/api/bo4e.enum.html#bo4e.enum.netznutzungrechnungstyp.NetznutzungRechnungstyp" xlink:type="simple"><text fill="#0000FF" font-family="sans-serif" font-size="14" lengthAdjust="spacing" text-decoration="underline" textLength="191" x="637" y="766.0251">NetznutzungRechnungstyp</text></a><text fill="#000000" font-family="sans-serif" font-size="10" lengthAdjust="spacing" textLength="184" x="640.5" y="778.6091">bo4e.enum.netznutzungrechnungstyp</text></g><!--class Rechnungsstatus--><g id="elem_Rechnungsstatus"><rect codeLine="28" fill="#F1F1F1" height="37.9375" id="Rechnungsstatus" rx="2.5" ry="2.5" style="stroke:#181818;stroke-width:0.5;" width="170" x="634.5" y="821.03"/><ellipse cx="649.5" cy="839.9988" fill="#ADD1B2" rx="11" ry="11" style="stroke:#181818;stroke-width:1.0;"/><path d="M652.4688,845.6394 Q651.8906,845.9363 651.25,846.0769 Q650.6094,846.2331 649.9063,846.2331 Q647.4063,846.2331 646.0781,844.5925 Q644.7656,842.9363 644.7656,839.8113 Q644.7656,836.6863 646.0781,835.03 Q647.4063,833.3738 649.9063,833.3738 Q650.6094,833.3738 651.25,833.53 Q651.9063,833.6863 652.4688,833.9831 L652.4688,836.7019 Q651.8438,836.1238 651.25,835.8581 Q650.6563,835.5769 650.0313,835.5769 Q648.6875,835.5769 648,836.655 Q647.3125,837.7175 647.3125,839.8113 Q647.3125,841.905 648,842.9831 Q648.6875,844.0456 650.0313,844.0456 Q650.6563,844.0456 651.25,843.78 Q651.8438,843.4988 652.4688,842.9206 L652.4688,845.6394 Z " fill="#000000"/><a href="https://bo4e.github.io/BO4E-python/latest/api/bo4e.enum.html#bo4e.enum.rechnungsstatus.Rechnungsstatus" target="_top" title="https://bo4e.github.io/BO4E-python/latest/api/bo4e.enum.html#bo4e.enum.rechnungsstatus.Rechnungsstatus" xlink:actuate="onRequest" xlink:href="https://bo4e.github.io/BO4E-python/latest/api/bo4e.enum.html#bo4e.enum.rechnungsstatus.Rechnungsstatus" xlink:show="new" xlink:title="https://bo4e.github.io/BO4E-python/latest/api/bo4e.enum.html#bo4e.enum.rechnungsstatus.Rechnungsstatus" xlink:type="simple"><text fill="#0000FF" font-family="sans-serif" font-size="14" lengthAdjust="spacing" text-decoration="underline" textLength="123" x="671" y="839.0251">Rechnungsstatus</text></a><text fill="#000000" font-family="sans-serif" font-size="10" lengthAdjust="spacing" textLength="138" x="663.5" y="851.6091">bo4e.enum.rechnungsstatus</text></g><!--class Rechnungstyp--><g id="elem_Rechnungstyp"><rect codeLine="29" fill="#F1F1F1" height="37.9375" id="Rechnungstyp" rx="2.5" ry="2.5" style="stroke:#181818;stroke-width:0.5;" width="156" x="641.5" y="894.03"/><ellipse cx="656.5" cy="912.9988" fill="#ADD1B2" rx="11" ry="11" style="stroke:#181818;stroke-width:1.0;"/><path d="M659.4688,918.6394 Q658.8906,918.9363 658.25,919.0769 Q657.6094,919.2331 656.9063,919.2331 Q654.4063,919.2331 653.0781,917.5925 Q651.7656,915.9363 651.7656,912.8113 Q651.7656,909.6863 653.0781,908.03 Q654.4063,906.3738 656.9063,906.3738 Q657.6094,906.3738 658.25,906.53 Q658.9063,906.6863 659.4688,906.9831 L659.4688,909.7019 Q658.8438,909.1238 658.25,908.8581 Q657.6563,908.5769 657.0313,908.5769 Q655.6875,908.5769 655,909.655 Q654.3125,910.7175 654.3125,912.8113 Q654.3125,914.905 655,915.9831 Q655.6875,917.0456 657.0313,917.0456 Q657.6563,917.0456 658.25,916.78 Q658.8438,916.4988 659.4688,915.9206 L659.4688,918.6394 Z " fill="#000000"/><a href="https://bo4e.github.io/BO4E-python/latest/api/bo4e.enum.html#bo4e.enum.rechnungstyp.Rechnungstyp" target="_top" title="https://bo4e.github.io/BO4E-python/latest/api/bo4e.enum.html#bo4e.enum.rechnungstyp.Rechnungstyp" xlink:actuate="onRequest" xlink:href="https://bo4e.github.io/BO4E-python/latest/api/bo4e.enum.html#bo4e.enum.rechnungstyp.Rechnungstyp" xlink:show="new" xlink:title="https://bo4e.github.io/BO4E-python/latest/api/bo4e.enum.html#bo4e.enum.rechnungstyp.Rechnungstyp" xlink:type="simple"><text fill="#0000FF" font-family="sans-serif" font-size="14" lengthAdjust="spacing" text-decoration="underline" textLength="101" x="682" y="912.0251">Rechnungstyp</text></a><text fill="#000000" font-family="sans-serif" font-size="10" lengthAdjust="spacing" textLength="124" x="670.5" y="924.6091">bo4e.enum.rechnungstyp</text></g><!--class NetznutzungRechnungsart--><g id="elem_NetznutzungRechnungsart"><rect codeLine="30" fill="#F1F1F1" height="37.9375" id="NetznutzungRechnungsart" rx="2.5" ry="2.5" style="stroke:#181818;stroke-width:0.5;" width="220" x="609.5" y="967.03"/><ellipse cx="624.5" cy="985.9988" fill="#ADD1B2" rx="11" ry="11" style="stroke:#181818;stroke-width:1.0;"/><path d="M627.4688,991.6394 Q626.8906,991.9363 626.25,992.0769 Q625.6094,992.2331 624.9063,992.2331 Q622.4063,992.2331 621.0781,990.5925 Q619.7656,988.9363 619.7656,985.8113 Q619.7656,982.6863 621.0781,981.03 Q622.4063,979.3738 624.9063,979.3738 Q625.6094,979.3738 626.25,979.53 Q626.9063,979.6863 627.4688,979.9831 L627.4688,982.7019 Q626.8438,982.1238 626.25,981.8581 Q625.6563,981.5769 625.0313,981.5769 Q623.6875,981.5769 623,982.655 Q622.3125,983.7175 622.3125,985.8113 Q622.3125,987.905 623,988.9831 Q623.6875,990.0456 625.0313,990.0456 Q625.6563,990.0456 626.25,989.78 Q626.8438,989.4988 627.4688,988.9206 L627.4688,991.6394 Z " fill="#000000"/><a href="https://bo4e.github.io/BO4E-python/latest/api/bo4e.enum.html#bo4e.enum.netznutzungrechnungsart.NetznutzungRechnungsart" target="_top" title="https://bo4e.github.io/BO4E-python/latest/api/bo4e.enum.html#bo4e.enum.netznutzungrechnungsart.NetznutzungRechnungsart" xlink:actuate="onRequest" xlink:href="https://bo4e.github.io/BO4E-python/latest/api/bo4e.enum.html#bo4e.enum.netznutzungrechnungsart.NetznutzungRechnungsart" xlink:show="new" xlink:title="https://bo4e.github.io/BO4E-python/latest/api/bo4e.enum.html#bo4e.enum.netznutzungrechnungsart.NetznutzungRechnungsart" xlink:type="simple"><text fill="#0000FF" font-family="sans-serif" font-size="14" lengthAdjust="spacing" text-decoration="underline" textLength="188" x="638.5" y="985.0251">NetznutzungRechnungsart</text></a><text fill="#000000" font-family="sans-serif" font-size="10" lengthAdjust="spacing" textLength="182" x="641.5" y="997.6091">bo4e.enum.netznutzungrechnungsart</text></g><!--class Sparte--><g id="elem_Sparte"><rect codeLine="31" fill="#F1F1F1" height="37.9375" id="Sparte" rx="2.5" ry="2.5" style="stroke:#181818;stroke-width:0.5;" width="121" x="659" y="1040.03"/><ellipse cx="674" cy="1058.9988" fill="#ADD1B2" rx="11" ry="11" style="stroke:#181818;stroke-width:1.0;"/><path d="M676.9688,1064.6394 Q676.3906,1064.9363 675.75,1065.0769 Q675.1094,1065.2331 674.4063,1065.2331 Q671.9063,1065.2331 670.5781,1063.5925 Q669.2656,1061.9363 669.2656,1058.8113 Q669.2656,1055.6863 670.5781,1054.03 Q671.9063,1052.3738 674.4063,1052.3738 Q675.1094,1052.3738 675.75,1052.53 Q676.4063,1052.6863 676.9688,1052.9831 L676.9688,1055.7019 Q676.3438,1055.1238 675.75,1054.8581 Q675.1563,1054.5769 674.5313,1054.5769 Q673.1875,1054.5769 672.5,1055.655 Q671.8125,1056.7175 671.8125,1058.8113 Q671.8125,1060.905 672.5,1061.9831 Q673.1875,1063.0456 674.5313,1063.0456 Q675.1563,1063.0456 675.75,1062.78 Q676.3438,1062.4988 676.9688,1061.9206 L676.9688,1064.6394 Z " fill="#000000"/><a href="https://bo4e.github.io/BO4E-python/latest/api/bo4e.enum.html#bo4e.enum.sparte.Sparte" target="_top" title="https://bo4e.github.io/BO4E-python/latest/api/bo4e.enum.html#bo4e.enum.sparte.Sparte" xlink:actuate="onRequest" xlink:href="https://bo4e.github.io/BO4E-python/latest/api/bo4e.enum.html#bo4e.enum.sparte.Sparte" xlink:show="new" xlink:title="https://bo4e.github.io/BO4E-python/latest/api/bo4e.enum.html#bo4e.enum.sparte.Sparte" xlink:type="simple"><text fill="#0000FF" font-family="sans-serif" font-size="14" lengthAdjust="spacing" text-decoration="underline" textLength="45" x="710" y="1058.0251">Sparte</text></a><text fill="#000000" font-family="sans-serif" font-size="10" lengthAdjust="spacing" textLength="89" x="688" y="1070.6091">bo4e.enum.sparte</text></g><!--class Rechnung--><g id="elem_Rechnung"><rect codeLine="3" fill="#F1F1F1" height="176.3125" id="Rechnung" rx="2.5" ry="2.5" style="stroke:#181818;stroke-width:0.5;" width="346" x="7" y="510.84"/><ellipse cx="132.25" cy="529.8088" fill="#ADD1B2" rx="11" ry="11" style="stroke:#181818;stroke-width:1.0;"/><path d="M135.2188,535.4494 Q134.6406,535.7463 134,535.8869 Q133.3594,536.0431 132.6563,536.0431 Q130.1563,536.0431 128.8281,534.4025 Q127.5156,532.7463 127.5156,529.6213 Q127.5156,526.4963 128.8281,524.84 Q130.1563,523.1838 132.6563,523.1838 Q133.3594,523.1838 134,523.34 Q134.6563,523.4963 135.2188,523.7931 L135.2188,526.5119 Q134.5938,525.9338 134,525.6681 Q133.4063,525.3869 132.7813,525.3869 Q131.4375,525.3869 130.75,526.465 Q130.0625,527.5275 130.0625,529.6213 Q130.0625,531.715 130.75,532.7931 Q131.4375,533.8556 132.7813,533.8556 Q133.4063,533.8556 134,533.59 Q134.5938,533.3088 135.2188,532.7306 L135.2188,535.4494 Z " fill="#000000"/><a href="https://bo4e.github.io/BO4E-python/latest/api/bo4e.bo.html#bo4e.bo.rechnung.Rechnung" target="_top" title="https://bo4e.github.io/BO4E-python/latest/api/bo4e.bo.html#bo4e.bo.rechnung.Rechnung" xlink:actuate="onRequest" xlink:href="https://bo4e.github.io/BO4E-python/latest/api/bo4e.bo.html#bo4e.bo.rechnung.Rechnung" xlink:show="new" xlink:title="https://bo4e.github.io/BO4E-python/latest/api/bo4e.bo.html#bo4e.bo.rechnung.Rechnung" xlink:type="simple"><text fill="#0000FF" font-family="sans-serif" font-size="14" lengthAdjust="spacing" text-decoration="underline" textLength="72" x="160.25" y="528.8351">Rechnung</text></a><text fill="#000000" font-family="sans-serif" font-size="10" lengthAdjust="spacing" textLength="87" x="152.75" y="541.4191">bo4e.bo.rechnung</text><line style="stroke:#181818;stroke-width:0.5;" x1="8" x2="352" y1="548.7775" y2="548.7775"/><text fill="#000000" font-family="sans-serif" font-size="14" lengthAdjust="spacing" textLength="202" x="13" y="565.7726">istStorno : bool [0..1] = None</text><text fill="#000000" font-family="sans-serif" font-size="14" lengthAdjust="spacing" textLength="261" x="13" y="582.0695">rechnungsnummer : str [0..1] = None</text><text fill="#000000" font-family="sans-serif" font-size="14" lengthAdjust="spacing" textLength="334" x="13" y="598.3664">rechnungsdatum : AwareDatetime [0..1] = None</text><text fill="#000000" font-family="sans-serif" font-size="14" lengthAdjust="spacing" textLength="331" x="13" y="614.6632">faelligkeitsdatum : AwareDatetime [0..1] = None</text><text fill="#000000" font-family="sans-serif" font-size="14" lengthAdjust="spacing" textLength="228" x="13" y="630.9601">rechnungstitel : str [0..1] = None</text><text fill="#000000" font-family="sans-serif" font-size="14" lengthAdjust="spacing" textLength="315" x="13" y="647.257">originalRechnungsnummer : str [0..1] = None</text><text fill="#000000" font-family="sans-serif" font-size="14" lengthAdjust="spacing" textLength="207" x="13" y="663.5539">istOriginal : bool [0..1] = None</text><text fill="#000000" font-family="sans-serif" font-size="14" lengthAdjust="spacing" textLength="215" x="13" y="679.8507">istSimuliert : bool [0..1] = None</text></g><!--link Rechnung to Geschaeftsobjekt--><g id="link_Rechnung_Geschaeftsobjekt"><path codeLine="34" d="M191.89,510.55 C210.43,401.62 259.05,220.11 383,131 C457.87,77.18 550.0046,76.7831 623.4046,86.1431 " fill="none" id="Rechnung-to-Geschaeftsobjekt" style="stroke:#181818;stroke-width:1.0;"/><polygon fill="none" points="641.26,88.42,624.1636,80.1913,622.6456,92.0949,641.26,88.42" style="stroke:#181818;stroke-width:1.0;"/></g><!--link Rechnung to Rechnungstyp--><g id="link_Rechnung_Rechnungstyp"><path codeLine="35" d="M212.47,687.35 C243.55,760.02 298.77,858.37 383,905 C462.52,949.02 557.8729,944.3304 629.4829,932.4104 " fill="none" id="Rechnung-to-Rechnungstyp" style="stroke:#181818;stroke-width:1.0;"/><polygon fill="#181818" points="641.32,930.44,634.7446,927.4795,629.4829,932.4104,636.0582,935.3709,641.32,930.44" style="stroke:#181818;stroke-width:1.0;"/><text fill="#000000" font-family="sans-serif" font-size="13" lengthAdjust="spacing" textLength="87" x="424" y="901.0669">rechnungstyp</text><text fill="#000000" font-family="sans-serif" font-size="13" lengthAdjust="spacing" textLength="24" x="609.5702" y="944.656">0..1</text></g><!--link Rechnung to Zeitraum--><g id="link_Rechnung_Zeitraum"><path codeLine="36" d="M269.47,510.45 C302.36,483.24 341.77,456.62 383,442 C473.74,409.82 575.2224,414.7839 644.2124,423.3939 " fill="none" id="Rechnung-to-Zeitraum" style="stroke:#181818;stroke-width:1.0;"/><polygon fill="#181818" points="656.12,424.88,650.6615,420.1678,644.2124,423.3939,649.6708,428.1062,656.12,424.88" style="stroke:#181818;stroke-width:1.0;"/><text fill="#000000" font-family="sans-serif" font-size="13" lengthAdjust="spacing" textLength="115" x="410" y="414.0669">rechnungsperiode</text><text fill="#000000" font-family="sans-serif" font-size="13" lengthAdjust="spacing" textLength="24" x="624.3464" y="436.6837">0..1</text></g><!--link Rechnung to Geschaeftspartner--><g id="link_Rechnung_Geschaeftspartner"><path codeLine="37" d="M212.59,510.63 C243.68,438.37 298.83,341.05 383,296 C425.49,273.26 540.7682,288.5133 625.7582,303.7433 " fill="none" id="Rechnung-to-Geschaeftspartner" style="stroke:#181818;stroke-width:1.0;"/><polygon fill="#181818" points="637.57,305.86,632.3696,300.8644,625.7582,303.7433,630.9585,308.739,637.57,305.86" style="stroke:#181818;stroke-width:1.0;"/><text fill="#000000" font-family="sans-serif" font-size="13" lengthAdjust="spacing" textLength="119" x="408" y="282.0669">rechnungsersteller</text><text fill="#000000" font-family="sans-serif" font-size="13" lengthAdjust="spacing" textLength="24" x="606.085" y="317.2438">0..1</text></g><!--link Rechnung to Geschaeftspartner--><g id="link_Rechnung_Geschaeftspartner"><path codeLine="38" d="M247.06,510.58 C282.83,468.79 330.42,421.86 383,393 C462.73,349.25 554.8093,333.5166 625.7493,327.0666 " fill="none" id="Rechnung-to-Geschaeftspartner-1" style="stroke:#181818;stroke-width:1.0;"/><polygon fill="#181818" points="637.7,325.98,631.3625,322.5397,625.7493,327.0666,632.0868,330.5069,637.7,325.98" style="stroke:#181818;stroke-width:1.0;"/><text fill="#000000" font-family="sans-serif" font-size="13" lengthAdjust="spacing" textLength="145" x="395" y="334.0669">rechnungsempfaenger</text><text fill="#000000" font-family="sans-serif" font-size="13" lengthAdjust="spacing" textLength="24" x="605.9322" y="339.0032">0..1</text></g><!--link Rechnung to Betrag--><g id="link_Rechnung_Betrag"><path codeLine="39" d="M353.31,569.26 C434.92,559.35 521.19,556.29 552,581 C564.79,591.26 548.47,605.35 560,617 C586.33,643.62 615.9017,651.719 649.8417,654.189 " fill="none" id="Rechnung-to-Betrag" style="stroke:#181818;stroke-width:1.0;"/><polygon fill="#181818" points="661.81,655.06,656.1162,650.635,649.8417,654.189,655.5355,658.6139,661.81,655.06" style="stroke:#181818;stroke-width:1.0;"/><text fill="#000000" font-family="sans-serif" font-size="13" lengthAdjust="spacing" textLength="83" x="426" y="558.0669">gesamtnetto</text><text fill="#000000" font-family="sans-serif" font-size="13" lengthAdjust="spacing" textLength="24" x="630.1877" y="668.0705">0..1</text></g><!--link Rechnung to Betrag--><g id="link_Rechnung_Betrag"><path codeLine="40" d="M353.29,616.63 C459.53,627.5 577.0222,639.5295 649.7922,646.9695 " fill="none" id="Rechnung-to-Betrag-1" style="stroke:#181818;stroke-width:1.0;"/><polygon fill="#181818" points="661.73,648.19,656.168,643.6005,649.7922,646.9695,655.3543,651.559,661.73,648.19" style="stroke:#181818;stroke-width:1.0;"/><text fill="#000000" font-family="sans-serif" font-size="13" lengthAdjust="spacing" textLength="90" x="422.5" y="616.0669">gesamtsteuer</text><text fill="#000000" font-family="sans-serif" font-size="13" lengthAdjust="spacing" textLength="24" x="630.0989" y="643.8085">0..1</text></g><!--link Rechnung to Betrag--><g id="link_Rechnung_Betrag"><path codeLine="41" d="M353.47,656.52 C363.4,658.66 373.29,660.52 383,662 C457.25,673.31 476.91,663.8 552,662 C588.45,661.12 617.3777,659.8224 649.5177,658.0724 " fill="none" id="Rechnung-to-Betrag-2" style="stroke:#181818;stroke-width:1.0;"/><polygon fill="#181818" points="661.5,657.42,655.2914,653.7521,649.5177,658.0724,655.7263,661.7403,661.5,657.42" style="stroke:#181818;stroke-width:1.0;"/><text fill="#000000" font-family="sans-serif" font-size="13" lengthAdjust="spacing" textLength="88" x="423.5" y="658.0669">gesamtbrutto</text><text fill="#000000" font-family="sans-serif" font-size="13" lengthAdjust="spacing" textLength="24" x="629.8438" y="654.048">0..1</text></g><!--link Rechnung to Betrag--><g id="link_Rechnung_Betrag"><path codeLine="42" d="M353.39,685.03 C363.27,688.13 373.18,690.83 383,693 C479.47,714.35 582.7372,693.9098 649.9572,675.2498 " fill="none" id="Rechnung-to-Betrag-3" style="stroke:#181818;stroke-width:1.0;"/><polygon fill="#181818" points="661.52,672.04,654.6687,669.7906,649.9572,675.2498,656.8085,677.4991,661.52,672.04" style="stroke:#181818;stroke-width:1.0;"/><text fill="#000000" font-family="sans-serif" font-size="13" lengthAdjust="spacing" textLength="60" x="437.5" y="689.0669">zuZahlen</text><text fill="#000000" font-family="sans-serif" font-size="13" lengthAdjust="spacing" textLength="24" x="629.8659" y="686.9077">0..1</text></g><!--link Rechnung to Betrag--><g id="link_Rechnung_Betrag"><path codeLine="43" d="M296.57,687.63 C323.57,703.84 353.2,718.35 383,727 C455.14,747.93 478.49,742.41 552,727 C600.81,716.77 642.2744,697.1412 674.9244,679.1912 " fill="none" id="Rechnung-to-Betrag-4" style="stroke:#181818;stroke-width:1.0;"/><polygon fill="#181818" points="685.44,673.41,678.2551,672.7954,674.9244,679.1912,682.1093,679.8058,685.44,673.41" style="stroke:#181818;stroke-width:1.0;"/><text fill="#000000" font-family="sans-serif" font-size="13" lengthAdjust="spacing" textLength="90" x="422.5" y="723.0669">vorausgezahlt</text><text fill="#000000" font-family="sans-serif" font-size="13" lengthAdjust="spacing" textLength="24" x="648.4856" y="693.0644">0..1</text></g><!--link Rechnung to Betrag--><g id="link_Rechnung_Betrag"><path codeLine="44" d="M261.52,687.44 C295.58,718.53 337.83,749.75 383,766 C453.67,791.43 493.12,812.63 552,766 C564.17,756.36 550.33,744.15 560,732 C585.5,699.97 616.1455,683.9832 650.5055,672.3332 " fill="none" id="Rechnung-to-Betrag-5" style="stroke:#181818;stroke-width:1.0;"/><polygon fill="#181818" points="661.87,668.48,654.9033,666.6184,650.5055,672.3332,657.4721,674.1948,661.87,668.48" style="stroke:#181818;stroke-width:1.0;"/><text fill="#000000" font-family="sans-serif" font-size="13" lengthAdjust="spacing" textLength="79" x="428" y="762.0669">rabattBrutto</text><text fill="#000000" font-family="sans-serif" font-size="13" lengthAdjust="spacing" textLength="24" x="629.819" y="683.0962">0..1</text></g><!--link Rechnung to Rechnungsposition--><g id="link_Rechnung_Rechnungsposition"><path codeLine="45" d="M304.39,510.35 C329.33,496.59 356.16,484.48 383,477 C455.36,456.85 477.21,470.1 552,477 C578.94,479.49 596.2327,481.9405 622.4327,486.9405 " fill="none" id="Rechnung-to-Rechnungsposition" style="stroke:#181818;stroke-width:1.0;"/><polygon fill="#181818" points="634.22,489.19,629.0762,484.1362,622.4327,486.9405,627.5765,491.9944,634.22,489.19" style="stroke:#181818;stroke-width:1.0;"/><text fill="#000000" font-family="sans-serif" font-size="13" lengthAdjust="spacing" textLength="133" x="401" y="463.0669">rechnungspositionen</text><text fill="#000000" font-family="sans-serif" font-size="13" lengthAdjust="spacing" textLength="23" x="603.5078" y="500.361">0..*</text></g><!--link Rechnung to Rechnungsstatus--><g id="link_Rechnung_Rechnungsstatus"><path codeLine="46" d="M219.79,687.46 C253,751.09 307.48,832.1 383,870 C425.53,891.34 537.7854,875.6305 622.5154,859.7505 " fill="none" id="Rechnung-to-Rechnungsstatus" style="stroke:#181818;stroke-width:1.0;"/><polygon fill="#181818" points="634.31,857.54,627.6758,854.7137,622.5154,859.7505,629.1495,862.5768,634.31,857.54" style="stroke:#181818;stroke-width:1.0;"/><text fill="#000000" font-family="sans-serif" font-size="13" lengthAdjust="spacing" textLength="107" x="414" y="866.0669">rechnungsstatus</text><text fill="#000000" font-family="sans-serif" font-size="13" lengthAdjust="spacing" textLength="24" x="602.5652" y="871.6077">0..1</text></g><!--link Rechnung to Steuerbetrag--><g id="link_Rechnung_Steuerbetrag"><path codeLine="47" d="M353.43,530.47 C363.34,527.95 373.24,525.75 383,524 C456.93,510.72 489.8,481.89 552,524 C559.93,529.37 552.74,537.76 560,544 C583.68,564.35 604.5822,572.2438 634.1822,576.6738 " fill="none" id="Rechnung-to-Steuerbetrag" style="stroke:#181818;stroke-width:1.0;"/><polygon fill="#181818" points="646.05,578.45,640.7081,573.606,634.1822,576.6738,639.524,581.5179,646.05,578.45" style="stroke:#181818;stroke-width:1.0;"/><text fill="#000000" font-family="sans-serif" font-size="13" lengthAdjust="spacing" textLength="99" x="418" y="498.0669">steuerbetraege</text><text fill="#000000" font-family="sans-serif" font-size="13" lengthAdjust="spacing" textLength="23" x="615.4841" y="590.9638">0..*</text></g><!--link Rechnung to Sparte--><g id="link_Rechnung_Sparte"><path codeLine="48" d="M195.24,687.32 C216.72,788.92 267.88,952 383,1032 C464.82,1088.85 574.6059,1083.7508 646.7459,1072.8008 " fill="none" id="Rechnung-to-Sparte" style="stroke:#181818;stroke-width:1.0;"/><polygon fill="#181818" points="658.61,1071,652.0777,1067.9457,646.7459,1072.8008,653.2782,1075.8551,658.61,1071" style="stroke:#181818;stroke-width:1.0;"/><text fill="#000000" font-family="sans-serif" font-size="13" lengthAdjust="spacing" textLength="41" x="447" y="1028.0669">sparte</text><text fill="#000000" font-family="sans-serif" font-size="13" lengthAdjust="spacing" textLength="24" x="627.0932" y="1085.0848">0..1</text></g><!--link Rechnung to NetznutzungRechnungsart--><g id="link_Rechnung_NetznutzungRechnungsart"><path codeLine="49" d="M203.15,687.38 C230,774.24 284.43,902.58 383,965 C449.56,1007.15 527.2652,1011.73 597.1552,1005.65 " fill="none" id="Rechnung-to-NetznutzungRechnungsart" style="stroke:#181818;stroke-width:1.0;"/><polygon fill="#181818" points="609.11,1004.61,602.7859,1001.145,597.1552,1005.65,603.4792,1009.1149,609.11,1004.61" style="stroke:#181818;stroke-width:1.0;"/><text fill="#000000" font-family="sans-serif" font-size="13" lengthAdjust="spacing" textLength="165" x="385" y="961.0669">netznutzungrechnungsart</text><text fill="#000000" font-family="sans-serif" font-size="13" lengthAdjust="spacing" textLength="24" x="577.6519" y="1018.2721">0..1</text></g><!--link Rechnung to NetznutzungRechnungstyp--><g id="link_Rechnung_NetznutzungRechnungstyp"><path codeLine="50" d="M235.4,687.56 C270.75,736.22 321.64,792.04 383,819 C451.77,849.22 487.59,857.64 552,819 C558.48,815.11 554.01,808.6 560,804 C574,793.24 579.1977,789.2084 596.3077,783.6984 " fill="none" id="Rechnung-to-NetznutzungRechnungstyp" style="stroke:#181818;stroke-width:1.0;"/><polygon fill="#181818" points="607.73,780.02,600.7927,778.0517,596.3077,783.6984,603.245,785.6666,607.73,780.02" style="stroke:#181818;stroke-width:1.0;"/><text fill="#000000" font-family="sans-serif" font-size="13" lengthAdjust="spacing" textLength="167" x="384" y="815.0669">netznutzungrechnungstyp</text><text fill="#000000" font-family="sans-serif" font-size="13" lengthAdjust="spacing" textLength="24" x="576.1878" y="793.3415">0..1</text></g><!--link Rechnung to Marktlokation--><g id="link_Rechnung_Marktlokation"><path codeLine="51" d="M198.77,510.64 C222.88,416.06 275.88,270.08 383,199 C462.3,146.39 564.7564,149.7131 637.3564,160.3331 " fill="none" id="Rechnung-to-Marktlokation" style="stroke:#181818;stroke-width:1.0;"/><polygon fill="#181818" points="649.23,162.07,643.8721,157.2437,637.3564,160.3331,642.7142,165.1594,649.23,162.07" style="stroke:#181818;stroke-width:1.0;"/><text fill="#000000" font-family="sans-serif" font-size="13" lengthAdjust="spacing" textLength="88" x="423.5" y="152.0669">marktlokation</text><text fill="#000000" font-family="sans-serif" font-size="13" lengthAdjust="spacing" textLength="24" x="617.3886" y="173.5305">0..1</text></g><!--link Rechnung to Messlokation--><g id="link_Rechnung_Messlokation"><path codeLine="52" d="M206.95,510.57 C235.74,430.01 290.76,315.53 383,261 C464.9,212.58 566.9577,218.9726 638.7277,231.4626 " fill="none" id="Rechnung-to-Messlokation" style="stroke:#181818;stroke-width:1.0;"/><polygon fill="#181818" points="650.55,233.52,645.3246,228.5505,638.7277,231.4626,643.953,236.4321,650.55,233.52" style="stroke:#181818;stroke-width:1.0;"/><text fill="#000000" font-family="sans-serif" font-size="13" lengthAdjust="spacing" textLength="85" x="425" y="220.0669">messlokation</text><text fill="#000000" font-family="sans-serif" font-size="13" lengthAdjust="spacing" textLength="24" x="619.0874" y="244.8575">0..1</text></g><!--SRC=[jLTBJzj043xZNp5ARaWue5AAeXQ95DHJGO8RD8TrCjZRs5vhTrn4slxthj_hLnwDESKpcM_sszrvhOyl12H0SjSZM7A92-8YjAo5pvI2qVEpHnIfwMJYY7EqNKvUxDXSJ6RtvxSdqHjv8fpuZ53HX4KyitA4xL7WZmj1E_N2E7JjX_m3Ye_v_4VuMV4rJizEhvhc8s2gj8JVrX5Nz4X2XWAcu0ZXm_EfRP_DuGlSYH2jemAemZW8K6ehHRBNQCae3hJDzIkJUAEtG3p0flKBGz_dxWevxGOetHCdzBif27tQF6J-movyzQRlS_kURIV7meFOvoYfs-IlPOKiG1Mn1Hvsfv0BytbwExa4uzd5pQVho-IIXWmS5zN2Opf4bN1-uehiRmq5D1MT0TLqar9l8eTb7Z2v8b-iM99DzdTJWfhKIRY6JjdMC0DJHQKgfeO0fj3Dqp38Q1gAzmg5Y4aAKHgna6kWfTaI3RbL8nnohKwQGtDc8G8ZQRHaPeqMONnxUdrvyVNGj2dM6PVIMjShoUB0Vie_eFXe7ubfdz8hJ8ScLPR6I2YUHjj3KmCjJJVVbgjQhoYrG-z04SOe7TJ7uzgFXW2cq4tPnAPiJSZGH7EAiupSR0CjWr1cDa3Se-vdHk0deXdvYGpZvTdYmyU3EqQvrBWIGwHr6DDQHqBLZTyY-wxIFnXwwD6tpskJztHxFPw6tsAviY8zbAWgaJ8P6dBFLXfUwZcKwTwHUd8bjNlOuV1R9_w-nznrrxexT4QIraEFVez8qjQzaQJ_6twBQRj3-p7zWUodXszccjMkz3EPAwkP_kJaprKn4BO6DSDE6nx3A9bFHrKzg4V25CoBteHDIbZPumnOX9AB9Mw2rbWM8uJX0gKksRwl9u53d0IHVaA4xcOloIxoMZq5FP-mGFiX4djYiXQp9yYHyJuhhUCdvlaOxWpu9VJTA1VN6aOxeoHp6D6ibzkn0MfF4MOWvBhDZEiXc1THmqjU3BSGgKq4oMEk5D75hSldAQXnMN9ji-yhGbFeAIp_vJ5BnvwcjoKpwi-UATIUDTkmvaD4Gys7XUNn9MfLuEWSjPGdNg5oziBHNwf_]--></g></svg>