<svg xmlns="http://www.w3.org/2000/svg" xmlns:xlink="http://www.w3.org/1999/xlink" contentStyleType="text/css" data-diagram-type="CLASS" height="574px" preserveAspectRatio="none" style="width:869px;height:574px;background:#FFFFFF;" version="1.1" viewBox="0 0 869 574" width="869px" zoomAndPan="magnify"><defs/><g><!--cluster bo4e--><g class="cluster" data-entity="bo4e" data-source-line="11" data-uid="ent0005" id="cluster_bo4e"><path d="M556.24,6 L596.116,6 A3.75,3.75 0 0 1 598.616,8.5 L605.616,28.2969 L860.09,28.2969 A2.5,2.5 0 0 1 862.59,30.7969 L862.59,564.5 A2.5,2.5 0 0 1 860.09,567 L556.24,567 A2.5,2.5 0 0 1 553.74,564.5 L553.74,8.5 A2.5,2.5 0 0 1 556.24,6" fill="none" style="stroke:#000000;stroke-width:1.5;"/><line style="stroke:#000000;stroke-width:1.5;" x1="553.74" x2="605.616" y1="28.2969" y2="28.2969"/><text fill="#000000" font-family="sans-serif" font-size="14" font-weight="bold" lengthAdjust="spacing" textLength="38.876" x="557.74" y="20.9951">bo4e</text></g><!--cluster bo--><g class="cluster" data-entity="bo" data-source-line="10" data-uid="ent0003" id="cluster_bo"><path d="M637.16,49 L701.994,49 A3.75,3.75 0 0 1 704.494,51.5 L711.494,71.2969 L779.17,71.2969 A2.5,2.5 0 0 1 781.67,73.7969 L781.67,135.5 A2.5,2.5 0 0 1 779.17,138 L637.16,138 A2.5,2.5 0 0 1 634.66,135.5 L634.66,51.5 A2.5,2.5 0 0 1 637.16,49" fill="#B6D7A8" style="stroke:#000000;stroke-width:1.5;"/><line style="stroke:#000000;stroke-width:1.5;" x1="634.66" x2="711.494" y1="71.2969" y2="71.2969"/><a href="file:////home/runner/work/BO4E-python/BO4E-python/docs/../.tox/docs/tmp/html/api/bo4e.bo.html" target="_top" title="file:////home/runner/work/BO4E-python/BO4E-python/docs/../.tox/docs/tmp/html/api/bo4e.bo.html" xlink:actuate="onRequest" xlink:href="file:////home/runner/work/BO4E-python/BO4E-python/docs/../.tox/docs/tmp/html/api/bo4e.bo.html" xlink:show="new" xlink:title="file:////home/runner/work/BO4E-python/BO4E-python/docs/../.tox/docs/tmp/html/api/bo4e.bo.html" xlink:type="simple"><text fill="#0000FF" font-family="sans-serif" font-size="14" font-weight="bold" lengthAdjust="spacing" text-decoration="underline" textLength="63.834" x="638.66" y="63.9951">bo4e.bo</text></a></g><!--cluster com--><g class="cluster" data-entity="com" data-source-line="13" data-uid="ent0006" id="cluster_com"><path d="M580.24,162 L657.9392,162 A3.75,3.75 0 0 1 660.4392,164.5 L667.4392,184.2969 L836.09,184.2969 A2.5,2.5 0 0 1 838.59,186.7969 L838.59,540.5 A2.5,2.5 0 0 1 836.09,543 L580.24,543 A2.5,2.5 0 0 1 577.74,540.5 L577.74,164.5 A2.5,2.5 0 0 1 580.24,162" fill="#E0A86C" style="stroke:#000000;stroke-width:1.5;"/><line style="stroke:#000000;stroke-width:1.5;" x1="577.74" x2="667.4392" y1="184.2969" y2="184.2969"/><a href="file:////home/runner/work/BO4E-python/BO4E-python/docs/../.tox/docs/tmp/html/api/bo4e.com.html" target="_top" title="file:////home/runner/work/BO4E-python/BO4E-python/docs/../.tox/docs/tmp/html/api/bo4e.com.html" xlink:actuate="onRequest" xlink:href="file:////home/runner/work/BO4E-python/BO4E-python/docs/../.tox/docs/tmp/html/api/bo4e.com.html" xlink:show="new" xlink:title="file:////home/runner/work/BO4E-python/BO4E-python/docs/../.tox/docs/tmp/html/api/bo4e.com.html" xlink:type="simple"><text fill="#0000FF" font-family="sans-serif" font-size="14" font-weight="bold" lengthAdjust="spacing" text-decoration="underline" textLength="76.6992" x="581.74" y="176.9951">bo4e.com</text></a></g><!--class Tarifinfo--><g class="entity" data-entity="Tarifinfo" data-source-line="11" data-uid="ent0004" id="entity_Tarifinfo"><rect fill="#F1F1F1" height="37.9375" rx="2.5" ry="2.5" style="stroke:#181818;stroke-width:0.5;" width="115.0176" x="650.66" y="84.03"/><ellipse cx="665.66" cy="102.9987" fill="#ADD1B2" rx="11" ry="11" style="stroke:#181818;stroke-width:1;"/><path d="M668.6288,108.6394 Q668.0506,108.9362 667.41,109.0769 Q666.7694,109.2331 666.0663,109.2331 Q663.5663,109.2331 662.2381,107.5925 Q660.9256,105.9362 660.9256,102.8112 Q660.9256,99.6862 662.2381,98.03 Q663.5663,96.3737 666.0663,96.3737 Q666.7694,96.3737 667.41,96.53 Q668.0663,96.6862 668.6288,96.9831 L668.6288,99.7019 Q668.0038,99.1237 667.41,98.8581 Q666.8163,98.5769 666.1913,98.5769 Q664.8475,98.5769 664.16,99.655 Q663.4725,100.7175 663.4725,102.8112 Q663.4725,104.905 664.16,105.9831 Q664.8475,107.0456 666.1913,107.0456 Q666.8163,107.0456 667.41,106.78 Q668.0038,106.4987 668.6288,105.9206 L668.6288,108.6394 Z " fill="#000000"/><a href="file:////home/runner/work/BO4E-python/BO4E-python/docs/../.tox/docs/tmp/html/api/bo4e.bo.html#bo4e.bo.tarifinfo.Tarifinfo" target="_top" title="file:////home/runner/work/BO4E-python/BO4E-python/docs/../.tox/docs/tmp/html/api/bo4e.bo.html#bo4e.bo.tarifinfo.Tarifinfo" xlink:actuate="onRequest" xlink:href="file:////home/runner/work/BO4E-python/BO4E-python/docs/../.tox/docs/tmp/html/api/bo4e.bo.html#bo4e.bo.tarifinfo.Tarifinfo" xlink:show="new" xlink:title="file:////home/runner/work/BO4E-python/BO4E-python/docs/../.tox/docs/tmp/html/api/bo4e.bo.html#bo4e.bo.tarifinfo.Tarifinfo" xlink:type="simple"><text fill="#0000FF" font-family="sans-serif" font-size="14" lengthAdjust="spacing" text-decoration="underline" textLength="57.9619" x="692.1878" y="102.0251">Tarifinfo</text></a><text fill="#000000" font-family="sans-serif" font-size="10" lengthAdjust="spacing" textLength="83.0176" x="679.66" y="114.6091">bo4e.bo.tarifinfo</text></g><!--class RegionalePreisgarantie--><g class="entity" data-entity="RegionalePreisgarantie" data-source-line="14" data-uid="ent0007" id="entity_RegionalePreisgarantie"><rect fill="#F1F1F1" height="37.9375" rx="2.5" ry="2.5" style="stroke:#181818;stroke-width:0.5;" width="198.1035" x="609.11" y="197.03"/><ellipse cx="624.11" cy="215.9987" fill="#ADD1B2" rx="11" ry="11" style="stroke:#181818;stroke-width:1;"/><path d="M627.0788,221.6394 Q626.5006,221.9362 625.86,222.0769 Q625.2194,222.2331 624.5163,222.2331 Q622.0163,222.2331 620.6881,220.5925 Q619.3756,218.9362 619.3756,215.8112 Q619.3756,212.6862 620.6881,211.03 Q622.0163,209.3737 624.5163,209.3737 Q625.2194,209.3737 625.86,209.53 Q626.5163,209.6862 627.0788,209.9831 L627.0788,212.7019 Q626.4538,212.1237 625.86,211.8581 Q625.2663,211.5769 624.6413,211.5769 Q623.2975,211.5769 622.61,212.655 Q621.9225,213.7175 621.9225,215.8112 Q621.9225,217.905 622.61,218.9831 Q623.2975,220.0456 624.6413,220.0456 Q625.2663,220.0456 625.86,219.78 Q626.4538,219.4987 627.0788,218.9206 L627.0788,221.6394 Z " fill="#000000"/><a href="file:////home/runner/work/BO4E-python/BO4E-python/docs/../.tox/docs/tmp/html/api/bo4e.com.html#bo4e.com.regionalepreisgarantie.RegionalePreisgarantie" target="_top" title="file:////home/runner/work/BO4E-python/BO4E-python/docs/../.tox/docs/tmp/html/api/bo4e.com.html#bo4e.com.regionalepreisgarantie.RegionalePreisgarantie" xlink:actuate="onRequest" xlink:href="file:////home/runner/work/BO4E-python/BO4E-python/docs/../.tox/docs/tmp/html/api/bo4e.com.html#bo4e.com.regionalepreisgarantie.RegionalePreisgarantie" xlink:show="new" xlink:title="file:////home/runner/work/BO4E-python/BO4E-python/docs/../.tox/docs/tmp/html/api/bo4e.com.html#bo4e.com.regionalepreisgarantie.RegionalePreisgarantie" xlink:type="simple"><text fill="#0000FF" font-family="sans-serif" font-size="14" lengthAdjust="spacing" text-decoration="underline" textLength="162.2988" x="640.0123" y="215.0251">RegionalePreisgarantie</text></a><text fill="#000000" font-family="sans-serif" font-size="10" lengthAdjust="spacing" textLength="166.1035" x="638.11" y="227.6091">bo4e.com.regionalepreisgarantie</text></g><!--class Tarifberechnungsparameter--><g class="entity" data-entity="Tarifberechnungsparameter" data-source-line="15" data-uid="ent0008" id="entity_Tarifberechnungsparameter"><rect fill="#F1F1F1" height="37.9375" rx="2.5" ry="2.5" style="stroke:#181818;stroke-width:0.5;" width="228.8545" x="593.74" y="270.03"/><ellipse cx="608.74" cy="288.9988" fill="#ADD1B2" rx="11" ry="11" style="stroke:#181818;stroke-width:1;"/><path d="M611.7088,294.6394 Q611.1306,294.9363 610.49,295.0769 Q609.8494,295.2331 609.1463,295.2331 Q606.6463,295.2331 605.3181,293.5925 Q604.0056,291.9363 604.0056,288.8113 Q604.0056,285.6863 605.3181,284.03 Q606.6463,282.3738 609.1463,282.3738 Q609.8494,282.3738 610.49,282.53 Q611.1463,282.6863 611.7088,282.9831 L611.7088,285.7019 Q611.0838,285.1238 610.49,284.8581 Q609.8963,284.5769 609.2713,284.5769 Q607.9275,284.5769 607.24,285.655 Q606.5525,286.7175 606.5525,288.8113 Q606.5525,290.905 607.24,291.9831 Q607.9275,293.0456 609.2713,293.0456 Q609.8963,293.0456 610.49,292.78 Q611.0838,292.4988 611.7088,291.9206 L611.7088,294.6394 Z " fill="#000000"/><a href="file:////home/runner/work/BO4E-python/BO4E-python/docs/../.tox/docs/tmp/html/api/bo4e.com.html#bo4e.com.tarifberechnungsparameter.Tarifberechnungsparameter" target="_top" title="file:////home/runner/work/BO4E-python/BO4E-python/docs/../.tox/docs/tmp/html/api/bo4e.com.html#bo4e.com.tarifberechnungsparameter.Tarifberechnungsparameter" xlink:actuate="onRequest" xlink:href="file:////home/runner/work/BO4E-python/BO4E-python/docs/../.tox/docs/tmp/html/api/bo4e.com.html#bo4e.com.tarifberechnungsparameter.Tarifberechnungsparameter" xlink:show="new" xlink:title="file:////home/runner/work/BO4E-python/BO4E-python/docs/../.tox/docs/tmp/html/api/bo4e.com.html#bo4e.com.tarifberechnungsparameter.Tarifberechnungsparameter" xlink:type="simple"><text fill="#0000FF" font-family="sans-serif" font-size="14" lengthAdjust="spacing" text-decoration="underline" textLength="196.8545" x="622.74" y="288.0251">Tarifberechnungsparameter</text></a><text fill="#000000" font-family="sans-serif" font-size="10" lengthAdjust="spacing" textLength="191.1182" x="625.6082" y="300.6091">bo4e.com.tarifberechnungsparameter</text></g><!--class Tarifeinschraenkung--><g class="entity" data-entity="Tarifeinschraenkung" data-source-line="16" data-uid="ent0009" id="entity_Tarifeinschraenkung"><rect fill="#F1F1F1" height="37.9375" rx="2.5" ry="2.5" style="stroke:#181818;stroke-width:0.5;" width="185.0127" x="615.66" y="343.03"/><ellipse cx="630.66" cy="361.9988" fill="#ADD1B2" rx="11" ry="11" style="stroke:#181818;stroke-width:1;"/><path d="M633.6288,367.6394 Q633.0506,367.9363 632.41,368.0769 Q631.7694,368.2331 631.0663,368.2331 Q628.5663,368.2331 627.2381,366.5925 Q625.9256,364.9363 625.9256,361.8113 Q625.9256,358.6863 627.2381,357.03 Q628.5663,355.3738 631.0663,355.3738 Q631.7694,355.3738 632.41,355.53 Q633.0663,355.6863 633.6288,355.9831 L633.6288,358.7019 Q633.0038,358.1238 632.41,357.8581 Q631.8163,357.5769 631.1913,357.5769 Q629.8475,357.5769 629.16,358.655 Q628.4725,359.7175 628.4725,361.8113 Q628.4725,363.905 629.16,364.9831 Q629.8475,366.0456 631.1913,366.0456 Q631.8163,366.0456 632.41,365.78 Q633.0038,365.4988 633.6288,364.9206 L633.6288,367.6394 Z " fill="#000000"/><a href="file:////home/runner/work/BO4E-python/BO4E-python/docs/../.tox/docs/tmp/html/api/bo4e.com.html#bo4e.com.tarifeinschraenkung.Tarifeinschraenkung" target="_top" title="file:////home/runner/work/BO4E-python/BO4E-python/docs/../.tox/docs/tmp/html/api/bo4e.com.html#bo4e.com.tarifeinschraenkung.Tarifeinschraenkung" xlink:actuate="onRequest" xlink:href="file:////home/runner/work/BO4E-python/BO4E-python/docs/../.tox/docs/tmp/html/api/bo4e.com.html#bo4e.com.tarifeinschraenkung.Tarifeinschraenkung" xlink:show="new" xlink:title="file:////home/runner/work/BO4E-python/BO4E-python/docs/../.tox/docs/tmp/html/api/bo4e.com.html#bo4e.com.tarifeinschraenkung.Tarifeinschraenkung" xlink:type="simple"><text fill="#0000FF" font-family="sans-serif" font-size="14" lengthAdjust="spacing" text-decoration="underline" textLength="143.5068" x="649.4129" y="361.0251">Tarifeinschraenkung</text></a><text fill="#000000" font-family="sans-serif" font-size="10" lengthAdjust="spacing" textLength="153.0127" x="644.66" y="373.6091">bo4e.com.tarifeinschraenkung</text></g><!--class RegionalerAufAbschlag--><g class="entity" data-entity="RegionalerAufAbschlag" data-source-line="17" data-uid="ent0010" id="entity_RegionalerAufAbschlag"><rect fill="#F1F1F1" height="37.9375" rx="2.5" ry="2.5" style="stroke:#181818;stroke-width:0.5;" width="196.4727" x="609.93" y="416.03"/><ellipse cx="624.93" cy="434.9988" fill="#ADD1B2" rx="11" ry="11" style="stroke:#181818;stroke-width:1;"/><path d="M627.8988,440.6394 Q627.3206,440.9363 626.68,441.0769 Q626.0394,441.2331 625.3363,441.2331 Q622.8363,441.2331 621.5081,439.5925 Q620.1956,437.9363 620.1956,434.8113 Q620.1956,431.6863 621.5081,430.03 Q622.8363,428.3738 625.3363,428.3738 Q626.0394,428.3738 626.68,428.53 Q627.3363,428.6863 627.8988,428.9831 L627.8988,431.7019 Q627.2738,431.1238 626.68,430.8581 Q626.0863,430.5769 625.4613,430.5769 Q624.1175,430.5769 623.43,431.655 Q622.7425,432.7175 622.7425,434.8113 Q622.7425,436.905 623.43,437.9831 Q624.1175,439.0456 625.4613,439.0456 Q626.0863,439.0456 626.68,438.78 Q627.2738,438.4988 627.8988,437.9206 L627.8988,440.6394 Z " fill="#000000"/><a href="file:////home/runner/work/BO4E-python/BO4E-python/docs/../.tox/docs/tmp/html/api/bo4e.com.html#bo4e.com.regionaleraufabschlag.RegionalerAufAbschlag" target="_top" title="file:////home/runner/work/BO4E-python/BO4E-python/docs/../.tox/docs/tmp/html/api/bo4e.com.html#bo4e.com.regionaleraufabschlag.RegionalerAufAbschlag" xlink:actuate="onRequest" xlink:href="file:////home/runner/work/BO4E-python/BO4E-python/docs/../.tox/docs/tmp/html/api/bo4e.com.html#bo4e.com.regionaleraufabschlag.RegionalerAufAbschlag" xlink:show="new" xlink:title="file:////home/runner/work/BO4E-python/BO4E-python/docs/../.tox/docs/tmp/html/api/bo4e.com.html#bo4e.com.regionaleraufabschlag.RegionalerAufAbschlag" xlink:type="simple"><text fill="#0000FF" font-family="sans-serif" font-size="14" lengthAdjust="spacing" text-decoration="underline" textLength="162.4561" x="639.9383" y="434.0251">RegionalerAufAbschlag</text></a><text fill="#000000" font-family="sans-serif" font-size="10" lengthAdjust="spacing" textLength="164.4727" x="638.93" y="446.6091">bo4e.com.regionaleraufabschlag</text></g><!--class RegionaleTarifpreisposition--><g class="entity" data-entity="RegionaleTarifpreisposition" data-source-line="18" data-uid="ent0011" id="entity_RegionaleTarifpreisposition"><rect fill="#F1F1F1" height="37.9375" rx="2.5" ry="2.5" style="stroke:#181818;stroke-width:0.5;" width="223.2354" x="596.55" y="489.03"/><ellipse cx="611.55" cy="507.9988" fill="#ADD1B2" rx="11" ry="11" style="stroke:#181818;stroke-width:1;"/><path d="M614.5188,513.6394 Q613.9406,513.9363 613.3,514.0769 Q612.6594,514.2331 611.9563,514.2331 Q609.4563,514.2331 608.1281,512.5925 Q606.8156,510.9363 606.8156,507.8113 Q606.8156,504.6863 608.1281,503.03 Q609.4563,501.3738 611.9563,501.3738 Q612.6594,501.3738 613.3,501.53 Q613.9563,501.6863 614.5188,501.9831 L614.5188,504.7019 Q613.8938,504.1238 613.3,503.8581 Q612.7063,503.5769 612.0813,503.5769 Q610.7375,503.5769 610.05,504.655 Q609.3625,505.7175 609.3625,507.8113 Q609.3625,509.905 610.05,510.9831 Q610.7375,512.0456 612.0813,512.0456 Q612.7063,512.0456 613.3,511.78 Q613.8938,511.4988 614.5188,510.9206 L614.5188,513.6394 Z " fill="#000000"/><a href="file:////home/runner/work/BO4E-python/BO4E-python/docs/../.tox/docs/tmp/html/api/bo4e.com.html#bo4e.com.regionaletarifpreisposition.RegionaleTarifpreisposition" target="_top" title="file:////home/runner/work/BO4E-python/BO4E-python/docs/../.tox/docs/tmp/html/api/bo4e.com.html#bo4e.com.regionaletarifpreisposition.RegionaleTarifpreisposition" xlink:actuate="onRequest" xlink:href="file:////home/runner/work/BO4E-python/BO4E-python/docs/../.tox/docs/tmp/html/api/bo4e.com.html#bo4e.com.regionaletarifpreisposition.RegionaleTarifpreisposition" xlink:show="new" xlink:title="file:////home/runner/work/BO4E-python/BO4E-python/docs/../.tox/docs/tmp/html/api/bo4e.com.html#bo4e.com.regionaletarifpreisposition.RegionaleTarifpreisposition" xlink:type="simple"><text fill="#0000FF" font-family="sans-serif" font-size="14" lengthAdjust="spacing" text-decoration="underline" textLength="191.2354" x="625.55" y="507.0251">RegionaleTarifpreisposition</text></a><text fill="#000000" font-family="sans-serif" font-size="10" lengthAdjust="spacing" textLength="184.2676" x="629.0339" y="519.6091">bo4e.com.regionaletarifpreisposition</text></g><!--class Regionaltarif--><g class="entity" data-entity="Regionaltarif" data-source-line="3" data-uid="ent0002" id="entity_Regionaltarif"><rect fill="#F1F1F1" height="111.125" rx="2.5" ry="2.5" style="stroke:#181818;stroke-width:0.5;" width="345.7373" x="7" y="274.44"/><ellipse cx="123.1113" cy="293.4088" fill="#ADD1B2" rx="11" ry="11" style="stroke:#181818;stroke-width:1;"/><path d="M126.0801,299.0494 Q125.502,299.3463 124.8613,299.4869 Q124.2207,299.6431 123.5176,299.6431 Q121.0176,299.6431 119.6895,298.0025 Q118.377,296.3463 118.377,293.2213 Q118.377,290.0963 119.6895,288.44 Q121.0176,286.7838 123.5176,286.7838 Q124.2207,286.7838 124.8613,286.94 Q125.5176,287.0963 126.0801,287.3931 L126.0801,290.1119 Q125.4551,289.5338 124.8613,289.2681 Q124.2676,288.9869 123.6426,288.9869 Q122.2988,288.9869 121.6113,290.065 Q120.9238,291.1275 120.9238,293.2213 Q120.9238,295.315 121.6113,296.3931 Q122.2988,297.4556 123.6426,297.4556 Q124.2676,297.4556 124.8613,297.19 Q125.4551,296.9088 126.0801,296.3306 L126.0801,299.0494 Z " fill="#000000"/><a href="file:////home/runner/work/BO4E-python/BO4E-python/docs/../.tox/docs/tmp/html/api/bo4e.bo.html#bo4e.bo.regionaltarif.Regionaltarif" target="_top" title="file:////home/runner/work/BO4E-python/BO4E-python/docs/../.tox/docs/tmp/html/api/bo4e.bo.html#bo4e.bo.regionaltarif.Regionaltarif" xlink:actuate="onRequest" xlink:href="file:////home/runner/work/BO4E-python/BO4E-python/docs/../.tox/docs/tmp/html/api/bo4e.bo.html#bo4e.bo.regionaltarif.Regionaltarif" xlink:show="new" xlink:title="file:////home/runner/work/BO4E-python/BO4E-python/docs/../.tox/docs/tmp/html/api/bo4e.bo.html#bo4e.bo.regionaltarif.Regionaltarif" xlink:type="simple"><text fill="#0000FF" font-family="sans-serif" font-size="14" lengthAdjust="spacing" text-decoration="underline" textLength="89.667" x="151.2852" y="292.4351">Regionaltarif</text></a><text fill="#000000" font-family="sans-serif" font-size="10" lengthAdjust="spacing" textLength="105.0146" x="143.6113" y="305.0191">bo4e.bo.regionaltarif</text><line style="stroke:#181818;stroke-width:0.5;" x1="8" x2="351.7373" y1="312.3775" y2="312.3775"/><text fill="#000000" font-family="sans-serif" font-size="14" lengthAdjust="spacing" textLength="333.7373" x="13" y="329.3726">_version : str [0..1] = 202501.0.0+g7dbb0e457</text><text fill="#000000" font-family="sans-serif" font-size="14" lengthAdjust="spacing" textLength="318.5752" x="13" y="345.6695">zusatzAttribute : ZusatzAttribut [0..*] = None</text><text fill="#000000" font-family="sans-serif" font-size="14" lengthAdjust="spacing" textLength="151.1768" x="13" y="361.9664">_id : str [0..1] = None</text><text fill="#000000" font-family="sans-serif" font-size="14" lengthAdjust="spacing" textLength="295.4902" x="13" y="378.2632">preisstand : AwareDatetime [0..1] = None</text></g><!--link Regionaltarif to Tarifinfo--><g class="link" data-entity-1="Regionaltarif" data-entity-2="Tarifinfo" data-source-line="21" data-uid="lnk12" id="link_Regionaltarif_Tarifinfo"><path codeLine="21" d="M280.19,273.98 C312.45,256.7 348.71,238.23 382.74,223 C474.41,181.97 567.7058,149.0284 633.2058,127.1684" fill="none" id="Regionaltarif-to-Tarifinfo" style="stroke:#181818;stroke-width:1;"/><polygon fill="none" points="650.28,121.47,631.3063,121.477,635.1052,132.8598,650.28,121.47" style="stroke:#181818;stroke-width:1;"/></g><!--link Regionaltarif to Tarifberechnungsparameter--><g class="link" data-entity-1="Regionaltarif" data-entity-2="Tarifberechnungsparameter" data-source-line="22" data-uid="lnk13" id="link_Regionaltarif_Tarifberechnungsparameter"><path codeLine="22" d="M353.2,316.58 C432.04,310.43 511.3162,304.2518 581.4162,298.7918" fill="none" id="Regionaltarif-to-Tarifberechnungsparameter" style="stroke:#181818;stroke-width:1;"/><polygon fill="#181818" points="593.38,297.86,587.0875,294.338,581.4162,298.7918,587.7087,302.3138,593.38,297.86" style="stroke:#181818;stroke-width:1;"/><text fill="#000000" font-family="sans-serif" font-size="13" lengthAdjust="spacing" textLength="153.353" x="383.74" y="299.0669">berechnungsparameter</text><text fill="#000000" font-family="sans-serif" font-size="13" lengthAdjust="spacing" textLength="24.8066" x="560.8886" y="311.0306">0..1</text></g><!--link Regionaltarif to RegionaleTarifpreisposition--><g class="link" data-entity-1="Regionaltarif" data-entity-2="RegionaleTarifpreisposition" data-source-line="23" data-uid="lnk14" id="link_Regionaltarif_RegionaleTarifpreisposition"><path codeLine="23" d="M273.66,385.98 C307.13,404.32 345.78,423.45 382.74,437 C451.76,462.31 520.6878,477.9051 584.3578,489.3051" fill="none" id="Regionaltarif-to-RegionaleTarifpreisposition" style="stroke:#181818;stroke-width:1;"/><polygon fill="#181818" points="596.17,491.42,590.9689,486.4251,584.3578,489.3051,589.5589,494.2999,596.17,491.42" style="stroke:#181818;stroke-width:1;"/><text fill="#000000" font-family="sans-serif" font-size="13" lengthAdjust="spacing" textLength="66.5742" x="427.24" y="433.0669">tarifpreise</text><text fill="#000000" font-family="sans-serif" font-size="13" lengthAdjust="spacing" textLength="23.0356" x="565.6454" y="502.9377">0..*</text></g><!--link Regionaltarif to RegionalerAufAbschlag--><g class="link" data-entity-1="Regionaltarif" data-entity-2="RegionalerAufAbschlag" data-source-line="24" data-uid="lnk15" id="link_Regionaltarif_RegionalerAufAbschlag"><path codeLine="24" d="M353.17,378.33 C363.15,380.7 373.06,382.94 382.74,385 C458.41,401.09 533.1583,412.5618 597.8583,421.3118" fill="none" id="Regionaltarif-to-RegionalerAufAbschlag" style="stroke:#181818;stroke-width:1;"/><polygon fill="#181818" points="609.75,422.92,604.3402,418.152,597.8583,421.3118,603.268,426.0798,609.75,422.92" style="stroke:#181818;stroke-width:1;"/><text fill="#000000" font-family="sans-serif" font-size="13" lengthAdjust="spacing" textLength="123.4365" x="398.74" y="381.0669">tarifAufAbschlaege</text><text fill="#000000" font-family="sans-serif" font-size="13" lengthAdjust="spacing" textLength="23.0356" x="579.0228" y="434.6696">0..*</text></g><!--link Regionaltarif to RegionalePreisgarantie--><g class="link" data-entity-1="Regionaltarif" data-entity-2="RegionalePreisgarantie" data-source-line="25" data-uid="lnk16" id="link_Regionaltarif_RegionalePreisgarantie"><path codeLine="25" d="M353.04,284.87 C363.07,282.49 373.03,280.18 382.74,278 C458.28,261.07 532.5608,246.8812 597.0608,235.2412" fill="none" id="Regionaltarif-to-RegionalePreisgarantie" style="stroke:#181818;stroke-width:1;"/><polygon fill="#181818" points="608.87,233.11,602.255,230.2392,597.0608,235.2412,603.6758,238.112,608.87,233.11" style="stroke:#181818;stroke-width:1;"/><text fill="#000000" font-family="sans-serif" font-size="13" lengthAdjust="spacing" textLength="94.6943" x="413.24" y="244.0669">preisgarantien</text><text fill="#000000" font-family="sans-serif" font-size="13" lengthAdjust="spacing" textLength="23.0356" x="578.0812" y="246.912">0..*</text></g><!--link Regionaltarif to Tarifeinschraenkung--><g class="link" data-entity-1="Regionaltarif" data-entity-2="Tarifeinschraenkung" data-source-line="26" data-uid="lnk17" id="link_Regionaltarif_Tarifeinschraenkung"><path codeLine="26" d="M353.12,350.63 C363.13,351.51 373.06,352.32 382.74,353 C461.14,358.54 538.441,360.5669 603.471,361.3969" fill="none" id="Regionaltarif-to-Tarifeinschraenkung" style="stroke:#181818;stroke-width:1;"/><polygon fill="#181818" points="615.47,361.55,609.5215,357.4738,603.471,361.3969,609.4194,365.4731,615.47,361.55" style="stroke:#181818;stroke-width:1;"/><text fill="#000000" font-family="sans-serif" font-size="13" lengthAdjust="spacing" textLength="130.4126" x="395.24" y="349.0669">tarifeinschraenkung</text><text fill="#000000" font-family="sans-serif" font-size="13" lengthAdjust="spacing" textLength="24.8066" x="582.8332" y="374.2063">0..1</text></g><!--SRC=[nLLTRvim57qkl-8gUSiK85NQL6YhHDU-RjFKfsNHPE02Li56jbcsRlllCoG1J4YwFYpXYNkkVUnxV3yoZ1Ke3e8cgOA82WmLvSoomen82QFbCgOPUex-KfwZ8qh6K3XhBfwSku_pXsdnKwMS6VyH3wLZsuwj-8-DeVB2ILMUEQIWJi3dQ0VShe3npX2Ow6D9feYWiVsvQu5XhLPVsLj9dz6RkRU3kqT0fBa7VbaNtxwZa1e23wGIi7HjUxQ2Tt3fNbwvCzkrtJV98We25-TN2-lYkPH4FVjA2HgK2lMkBmPI4qmgWW-SeQQdKPzvuoW4KYaLOPNVNnE1zqIXeZdsLlwnB4Pob0K9yR_h3bjZjQhLsbemlhk-N_WtbLudVl_wdIYBkVsu-uFcR_3Dcnrr1CrQhUC9P0nvtj5HMrqXjGdZ1zU_kNv_0YLtLnatrguQiCwzX0Z25CMcgF1J5uPXU5_omyn6mPaqPuY-pei0TIDBMSaIdGX2vuD2iSci8GySz0pBSF28DXM7lESI0ocJOIe8iYTzduqC9WO3s97GpOLjq2P-pimNf8n9e2-JaQHDVE6NiRz5OH1z8Usxj6RMTqdE6NZzFdLr5bpIQfItuJ_k-U28xmKfzWyo1Tadh2PSRx9FfxzlTyEdRVpzLNhP14RLi1mr3VP8CNimM7o7I2STqcDIUT26ZAzZC_9kozD2cBoIpkpV7XZDcFsxUhqUiBrOhuYjb4O8EUPQL6d9bA-XTq1CCOlaNm00]--></g></svg>