<?xml version="1.0" encoding="us-ascii" standalone="no"?><svg xmlns="http://www.w3.org/2000/svg" xmlns:xlink="http://www.w3.org/1999/xlink" contentStyleType="text/css" height="687px" preserveAspectRatio="none" style="width:887px;height:687px;background:#FFFFFF;" version="1.1" viewBox="0 0 887 687" width="887px" zoomAndPan="magnify"><defs/><g><!--cluster bo4e--><g id="cluster_bo4e"><path d="M577.5,6 L618.5,6 A3.75,3.75 0 0 1 621,8.5 L628,28.2969 L877.5,28.2969 A2.5,2.5 0 0 1 880,30.7969 L880,677.5 A2.5,2.5 0 0 1 877.5,680 L577.5,680 A2.5,2.5 0 0 1 575,677.5 L575,8.5 A2.5,2.5 0 0 1 577.5,6 " fill="none" style="stroke:#000000;stroke-width:1.5;"/><line style="stroke:#000000;stroke-width:1.5;" x1="575" x2="628" y1="28.2969" y2="28.2969"/><text fill="#000000" font-family="sans-serif" font-size="14" font-weight="bold" lengthAdjust="spacing" textLength="40" x="579" y="20.9951">bo4e</text></g><!--cluster bo--><g id="cluster_bo"><path d="M658,49 L724,49 A3.75,3.75 0 0 1 726.5,51.5 L733.5,71.2969 L797,71.2969 A2.5,2.5 0 0 1 799.5,73.7969 L799.5,135.5 A2.5,2.5 0 0 1 797,138 L658,138 A2.5,2.5 0 0 1 655.5,135.5 L655.5,51.5 A2.5,2.5 0 0 1 658,49 " fill="#B6D7A8" style="stroke:#000000;stroke-width:1.5;"/><line style="stroke:#000000;stroke-width:1.5;" x1="655.5" x2="733.5" y1="71.2969" y2="71.2969"/><a href="https://bo4e.github.io/BO4E-python/latest/api/bo4e.bo.html" target="_top" title="https://bo4e.github.io/BO4E-python/latest/api/bo4e.bo.html" xlink:actuate="onRequest" xlink:href="https://bo4e.github.io/BO4E-python/latest/api/bo4e.bo.html" xlink:show="new" xlink:title="https://bo4e.github.io/BO4E-python/latest/api/bo4e.bo.html" xlink:type="simple"><text fill="#0000FF" font-family="sans-serif" font-size="14" font-weight="bold" lengthAdjust="spacing" text-decoration="underline" textLength="65" x="659.5" y="63.9951">bo4e.bo</text></a></g><!--cluster com--><g id="cluster_com"><path d="M601.5,162 L680.5,162 A3.75,3.75 0 0 1 683,164.5 L690,184.2969 L853.5,184.2969 A2.5,2.5 0 0 1 856,186.7969 L856,540.5 A2.5,2.5 0 0 1 853.5,543 L601.5,543 A2.5,2.5 0 0 1 599,540.5 L599,164.5 A2.5,2.5 0 0 1 601.5,162 " fill="#E0A86C" style="stroke:#000000;stroke-width:1.5;"/><line style="stroke:#000000;stroke-width:1.5;" x1="599" x2="690" y1="184.2969" y2="184.2969"/><a href="https://bo4e.github.io/BO4E-python/latest/api/bo4e.com.html" target="_top" title="https://bo4e.github.io/BO4E-python/latest/api/bo4e.com.html" xlink:actuate="onRequest" xlink:href="https://bo4e.github.io/BO4E-python/latest/api/bo4e.com.html" xlink:show="new" xlink:title="https://bo4e.github.io/BO4E-python/latest/api/bo4e.com.html" xlink:type="simple"><text fill="#0000FF" font-family="sans-serif" font-size="14" font-weight="bold" lengthAdjust="spacing" text-decoration="underline" textLength="78" x="603" y="176.9951">bo4e.com</text></a></g><!--cluster enum--><g id="cluster_enum"><path d="M661,567 L751,567 A3.75,3.75 0 0 1 753.5,569.5 L760.5,589.2969 L794,589.2969 A2.5,2.5 0 0 1 796.5,591.7969 L796.5,653.5 A2.5,2.5 0 0 1 794,656 L661,656 A2.5,2.5 0 0 1 658.5,653.5 L658.5,569.5 A2.5,2.5 0 0 1 661,567 " fill="#D1C358" style="stroke:#000000;stroke-width:1.5;"/><line style="stroke:#000000;stroke-width:1.5;" x1="658.5" x2="760.5" y1="589.2969" y2="589.2969"/><a href="https://bo4e.github.io/BO4E-python/latest/api/bo4e.enum.html" target="_top" title="https://bo4e.github.io/BO4E-python/latest/api/bo4e.enum.html" xlink:actuate="onRequest" xlink:href="https://bo4e.github.io/BO4E-python/latest/api/bo4e.enum.html" xlink:show="new" xlink:title="https://bo4e.github.io/BO4E-python/latest/api/bo4e.enum.html" xlink:type="simple"><text fill="#0000FF" font-family="sans-serif" font-size="14" font-weight="bold" lengthAdjust="spacing" text-decoration="underline" textLength="89" x="662.5" y="581.9951">bo4e.enum</text></a></g><!--class Tarifinfo--><g id="elem_Tarifinfo"><rect codeLine="11" fill="#F1F1F1" height="37.9375" id="Tarifinfo" rx="2.5" ry="2.5" style="stroke:#181818;stroke-width:0.5;" width="112" x="671.5" y="84.03"/><ellipse cx="686.5" cy="102.9987" fill="#ADD1B2" rx="11" ry="11" style="stroke:#181818;stroke-width:1.0;"/><path d="M689.4688,108.6394 Q688.8906,108.9362 688.25,109.0769 Q687.6094,109.2331 686.9063,109.2331 Q684.4063,109.2331 683.0781,107.5925 Q681.7656,105.9362 681.7656,102.8112 Q681.7656,99.6862 683.0781,98.03 Q684.4063,96.3737 686.9063,96.3737 Q687.6094,96.3737 688.25,96.53 Q688.9063,96.6862 689.4688,96.9831 L689.4688,99.7019 Q688.8438,99.1237 688.25,98.8581 Q687.6563,98.5769 687.0313,98.5769 Q685.6875,98.5769 685,99.655 Q684.3125,100.7175 684.3125,102.8112 Q684.3125,104.905 685,105.9831 Q685.6875,107.0456 687.0313,107.0456 Q687.6563,107.0456 688.25,106.78 Q688.8438,106.4987 689.4688,105.9206 L689.4688,108.6394 Z " fill="#000000"/><a href="https://bo4e.github.io/BO4E-python/latest/api/bo4e.bo.html#bo4e.bo.tarifinfo.Tarifinfo" target="_top" title="https://bo4e.github.io/BO4E-python/latest/api/bo4e.bo.html#bo4e.bo.tarifinfo.Tarifinfo" xlink:actuate="onRequest" xlink:href="https://bo4e.github.io/BO4E-python/latest/api/bo4e.bo.html#bo4e.bo.tarifinfo.Tarifinfo" xlink:show="new" xlink:title="https://bo4e.github.io/BO4E-python/latest/api/bo4e.bo.html#bo4e.bo.tarifinfo.Tarifinfo" xlink:type="simple"><text fill="#0000FF" font-family="sans-serif" font-size="14" lengthAdjust="spacing" text-decoration="underline" textLength="54" x="713.5" y="102.0251">Tarifinfo</text></a><text fill="#000000" font-family="sans-serif" font-size="10" lengthAdjust="spacing" textLength="80" x="700.5" y="114.6091">bo4e.bo.tarifinfo</text></g><!--class Tarifeinschraenkung--><g id="elem_Tarifeinschraenkung"><rect codeLine="14" fill="#F1F1F1" height="37.9375" id="Tarifeinschraenkung" rx="2.5" ry="2.5" style="stroke:#181818;stroke-width:0.5;" width="178" x="638.5" y="197.03"/><ellipse cx="653.5" cy="215.9987" fill="#ADD1B2" rx="11" ry="11" style="stroke:#181818;stroke-width:1.0;"/><path d="M656.4688,221.6394 Q655.8906,221.9362 655.25,222.0769 Q654.6094,222.2331 653.9063,222.2331 Q651.4063,222.2331 650.0781,220.5925 Q648.7656,218.9362 648.7656,215.8112 Q648.7656,212.6862 650.0781,211.03 Q651.4063,209.3737 653.9063,209.3737 Q654.6094,209.3737 655.25,209.53 Q655.9063,209.6862 656.4688,209.9831 L656.4688,212.7019 Q655.8438,212.1237 655.25,211.8581 Q654.6563,211.5769 654.0313,211.5769 Q652.6875,211.5769 652,212.655 Q651.3125,213.7175 651.3125,215.8112 Q651.3125,217.905 652,218.9831 Q652.6875,220.0456 654.0313,220.0456 Q654.6563,220.0456 655.25,219.78 Q655.8438,219.4987 656.4688,218.9206 L656.4688,221.6394 Z " fill="#000000"/><a href="https://bo4e.github.io/BO4E-python/latest/api/bo4e.com.html#bo4e.com.tarifeinschraenkung.Tarifeinschraenkung" target="_top" title="https://bo4e.github.io/BO4E-python/latest/api/bo4e.com.html#bo4e.com.tarifeinschraenkung.Tarifeinschraenkung" xlink:actuate="onRequest" xlink:href="https://bo4e.github.io/BO4E-python/latest/api/bo4e.com.html#bo4e.com.tarifeinschraenkung.Tarifeinschraenkung" xlink:show="new" xlink:title="https://bo4e.github.io/BO4E-python/latest/api/bo4e.com.html#bo4e.com.tarifeinschraenkung.Tarifeinschraenkung" xlink:type="simple"><text fill="#0000FF" font-family="sans-serif" font-size="14" lengthAdjust="spacing" text-decoration="underline" textLength="141" x="670" y="215.0251">Tarifeinschraenkung</text></a><text fill="#000000" font-family="sans-serif" font-size="10" lengthAdjust="spacing" textLength="146" x="667.5" y="227.6091">bo4e.com.tarifeinschraenkung</text></g><!--class RegionalerAufAbschlag--><g id="elem_RegionalerAufAbschlag"><rect codeLine="15" fill="#F1F1F1" height="37.9375" id="RegionalerAufAbschlag" rx="2.5" ry="2.5" style="stroke:#181818;stroke-width:0.5;" width="191" x="632" y="270.03"/><ellipse cx="647" cy="288.9988" fill="#ADD1B2" rx="11" ry="11" style="stroke:#181818;stroke-width:1.0;"/><path d="M649.9688,294.6394 Q649.3906,294.9363 648.75,295.0769 Q648.1094,295.2331 647.4063,295.2331 Q644.9063,295.2331 643.5781,293.5925 Q642.2656,291.9363 642.2656,288.8113 Q642.2656,285.6863 643.5781,284.03 Q644.9063,282.3738 647.4063,282.3738 Q648.1094,282.3738 648.75,282.53 Q649.4063,282.6863 649.9688,282.9831 L649.9688,285.7019 Q649.3438,285.1238 648.75,284.8581 Q648.1563,284.5769 647.5313,284.5769 Q646.1875,284.5769 645.5,285.655 Q644.8125,286.7175 644.8125,288.8113 Q644.8125,290.905 645.5,291.9831 Q646.1875,293.0456 647.5313,293.0456 Q648.1563,293.0456 648.75,292.78 Q649.3438,292.4988 649.9688,291.9206 L649.9688,294.6394 Z " fill="#000000"/><a href="https://bo4e.github.io/BO4E-python/latest/api/bo4e.com.html#bo4e.com.regionaleraufabschlag.RegionalerAufAbschlag" target="_top" title="https://bo4e.github.io/BO4E-python/latest/api/bo4e.com.html#bo4e.com.regionaleraufabschlag.RegionalerAufAbschlag" xlink:actuate="onRequest" xlink:href="https://bo4e.github.io/BO4E-python/latest/api/bo4e.com.html#bo4e.com.regionaleraufabschlag.RegionalerAufAbschlag" xlink:show="new" xlink:title="https://bo4e.github.io/BO4E-python/latest/api/bo4e.com.html#bo4e.com.regionaleraufabschlag.RegionalerAufAbschlag" xlink:type="simple"><text fill="#0000FF" font-family="sans-serif" font-size="14" lengthAdjust="spacing" text-decoration="underline" textLength="159" x="661" y="288.0251">RegionalerAufAbschlag</text></a><text fill="#000000" font-family="sans-serif" font-size="10" lengthAdjust="spacing" textLength="157" x="662" y="300.6091">bo4e.com.regionaleraufabschlag</text></g><!--class RegionaleTarifpreisposition--><g id="elem_RegionaleTarifpreisposition"><rect codeLine="16" fill="#F1F1F1" height="37.9375" id="RegionaleTarifpreisposition" rx="2.5" ry="2.5" style="stroke:#181818;stroke-width:0.5;" width="219" x="618" y="343.03"/><ellipse cx="633" cy="361.9988" fill="#ADD1B2" rx="11" ry="11" style="stroke:#181818;stroke-width:1.0;"/><path d="M635.9688,367.6394 Q635.3906,367.9363 634.75,368.0769 Q634.1094,368.2331 633.4063,368.2331 Q630.9063,368.2331 629.5781,366.5925 Q628.2656,364.9363 628.2656,361.8113 Q628.2656,358.6863 629.5781,357.03 Q630.9063,355.3738 633.4063,355.3738 Q634.1094,355.3738 634.75,355.53 Q635.4063,355.6863 635.9688,355.9831 L635.9688,358.7019 Q635.3438,358.1238 634.75,357.8581 Q634.1563,357.5769 633.5313,357.5769 Q632.1875,357.5769 631.5,358.655 Q630.8125,359.7175 630.8125,361.8113 Q630.8125,363.905 631.5,364.9831 Q632.1875,366.0456 633.5313,366.0456 Q634.1563,366.0456 634.75,365.78 Q635.3438,365.4988 635.9688,364.9206 L635.9688,367.6394 Z " fill="#000000"/><a href="https://bo4e.github.io/BO4E-python/latest/api/bo4e.com.html#bo4e.com.regionaletarifpreisposition.RegionaleTarifpreisposition" target="_top" title="https://bo4e.github.io/BO4E-python/latest/api/bo4e.com.html#bo4e.com.regionaletarifpreisposition.RegionaleTarifpreisposition" xlink:actuate="onRequest" xlink:href="https://bo4e.github.io/BO4E-python/latest/api/bo4e.com.html#bo4e.com.regionaletarifpreisposition.RegionaleTarifpreisposition" xlink:show="new" xlink:title="https://bo4e.github.io/BO4E-python/latest/api/bo4e.com.html#bo4e.com.regionaletarifpreisposition.RegionaleTarifpreisposition" xlink:type="simple"><text fill="#0000FF" font-family="sans-serif" font-size="14" lengthAdjust="spacing" text-decoration="underline" textLength="187" x="647" y="361.0251">RegionaleTarifpreisposition</text></a><text fill="#000000" font-family="sans-serif" font-size="10" lengthAdjust="spacing" textLength="175" x="653" y="373.6091">bo4e.com.regionaletarifpreisposition</text></g><!--class Tarifberechnungsparameter--><g id="elem_Tarifberechnungsparameter"><rect codeLine="17" fill="#F1F1F1" height="37.9375" id="Tarifberechnungsparameter" rx="2.5" ry="2.5" style="stroke:#181818;stroke-width:0.5;" width="225" x="615" y="416.03"/><ellipse cx="630" cy="434.9988" fill="#ADD1B2" rx="11" ry="11" style="stroke:#181818;stroke-width:1.0;"/><path d="M632.9688,440.6394 Q632.3906,440.9363 631.75,441.0769 Q631.1094,441.2331 630.4063,441.2331 Q627.9063,441.2331 626.5781,439.5925 Q625.2656,437.9363 625.2656,434.8113 Q625.2656,431.6863 626.5781,430.03 Q627.9063,428.3738 630.4063,428.3738 Q631.1094,428.3738 631.75,428.53 Q632.4063,428.6863 632.9688,428.9831 L632.9688,431.7019 Q632.3438,431.1238 631.75,430.8581 Q631.1563,430.5769 630.5313,430.5769 Q629.1875,430.5769 628.5,431.655 Q627.8125,432.7175 627.8125,434.8113 Q627.8125,436.905 628.5,437.9831 Q629.1875,439.0456 630.5313,439.0456 Q631.1563,439.0456 631.75,438.78 Q632.3438,438.4988 632.9688,437.9206 L632.9688,440.6394 Z " fill="#000000"/><a href="https://bo4e.github.io/BO4E-python/latest/api/bo4e.com.html#bo4e.com.tarifberechnungsparameter.Tarifberechnungsparameter" target="_top" title="https://bo4e.github.io/BO4E-python/latest/api/bo4e.com.html#bo4e.com.tarifberechnungsparameter.Tarifberechnungsparameter" xlink:actuate="onRequest" xlink:href="https://bo4e.github.io/BO4E-python/latest/api/bo4e.com.html#bo4e.com.tarifberechnungsparameter.Tarifberechnungsparameter" xlink:show="new" xlink:title="https://bo4e.github.io/BO4E-python/latest/api/bo4e.com.html#bo4e.com.tarifberechnungsparameter.Tarifberechnungsparameter" xlink:type="simple"><text fill="#0000FF" font-family="sans-serif" font-size="14" lengthAdjust="spacing" text-decoration="underline" textLength="193" x="644" y="434.0251">Tarifberechnungsparameter</text></a><text fill="#000000" font-family="sans-serif" font-size="10" lengthAdjust="spacing" textLength="185" x="648" y="446.6091">bo4e.com.tarifberechnungsparameter</text></g><!--class RegionalePreisgarantie--><g id="elem_RegionalePreisgarantie"><rect codeLine="18" fill="#F1F1F1" height="37.9375" id="RegionalePreisgarantie" rx="2.5" ry="2.5" style="stroke:#181818;stroke-width:0.5;" width="191" x="632" y="489.03"/><ellipse cx="647" cy="507.9988" fill="#ADD1B2" rx="11" ry="11" style="stroke:#181818;stroke-width:1.0;"/><path d="M649.9688,513.6394 Q649.3906,513.9363 648.75,514.0769 Q648.1094,514.2331 647.4063,514.2331 Q644.9063,514.2331 643.5781,512.5925 Q642.2656,510.9363 642.2656,507.8113 Q642.2656,504.6863 643.5781,503.03 Q644.9063,501.3738 647.4063,501.3738 Q648.1094,501.3738 648.75,501.53 Q649.4063,501.6863 649.9688,501.9831 L649.9688,504.7019 Q649.3438,504.1238 648.75,503.8581 Q648.1563,503.5769 647.5313,503.5769 Q646.1875,503.5769 645.5,504.655 Q644.8125,505.7175 644.8125,507.8113 Q644.8125,509.905 645.5,510.9831 Q646.1875,512.0456 647.5313,512.0456 Q648.1563,512.0456 648.75,511.78 Q649.3438,511.4988 649.9688,510.9206 L649.9688,513.6394 Z " fill="#000000"/><a href="https://bo4e.github.io/BO4E-python/latest/api/bo4e.com.html#bo4e.com.regionalepreisgarantie.RegionalePreisgarantie" target="_top" title="https://bo4e.github.io/BO4E-python/latest/api/bo4e.com.html#bo4e.com.regionalepreisgarantie.RegionalePreisgarantie" xlink:actuate="onRequest" xlink:href="https://bo4e.github.io/BO4E-python/latest/api/bo4e.com.html#bo4e.com.regionalepreisgarantie.RegionalePreisgarantie" xlink:show="new" xlink:title="https://bo4e.github.io/BO4E-python/latest/api/bo4e.com.html#bo4e.com.regionalepreisgarantie.RegionalePreisgarantie" xlink:type="simple"><text fill="#0000FF" font-family="sans-serif" font-size="14" lengthAdjust="spacing" text-decoration="underline" textLength="159" x="661" y="507.0251">RegionalePreisgarantie</text></a><text fill="#000000" font-family="sans-serif" font-size="10" lengthAdjust="spacing" textLength="158" x="661.5" y="519.6091">bo4e.com.regionalepreisgarantie</text></g><!--class Typ--><g id="elem_Typ"><rect codeLine="21" fill="#F1F1F1" height="37.9375" id="Typ" rx="2.5" ry="2.5" style="stroke:#181818;stroke-width:0.5;" width="106" x="674.5" y="602.03"/><ellipse cx="689.5" cy="620.9988" fill="#ADD1B2" rx="11" ry="11" style="stroke:#181818;stroke-width:1.0;"/><path d="M692.4688,626.6394 Q691.8906,626.9363 691.25,627.0769 Q690.6094,627.2331 689.9063,627.2331 Q687.4063,627.2331 686.0781,625.5925 Q684.7656,623.9363 684.7656,620.8113 Q684.7656,617.6863 686.0781,616.03 Q687.4063,614.3738 689.9063,614.3738 Q690.6094,614.3738 691.25,614.53 Q691.9063,614.6863 692.4688,614.9831 L692.4688,617.7019 Q691.8438,617.1238 691.25,616.8581 Q690.6563,616.5769 690.0313,616.5769 Q688.6875,616.5769 688,617.655 Q687.3125,618.7175 687.3125,620.8113 Q687.3125,622.905 688,623.9831 Q688.6875,625.0456 690.0313,625.0456 Q690.6563,625.0456 691.25,624.78 Q691.8438,624.4988 692.4688,623.9206 L692.4688,626.6394 Z " fill="#000000"/><a href="https://bo4e.github.io/BO4E-python/latest/api/bo4e.enum.html#bo4e.enum.typ.Typ" target="_top" title="https://bo4e.github.io/BO4E-python/latest/api/bo4e.enum.html#bo4e.enum.typ.Typ" xlink:actuate="onRequest" xlink:href="https://bo4e.github.io/BO4E-python/latest/api/bo4e.enum.html#bo4e.enum.typ.Typ" xlink:show="new" xlink:title="https://bo4e.github.io/BO4E-python/latest/api/bo4e.enum.html#bo4e.enum.typ.Typ" xlink:type="simple"><text fill="#0000FF" font-family="sans-serif" font-size="14" lengthAdjust="spacing" text-decoration="underline" textLength="25" x="728" y="620.0251">Typ</text></a><text fill="#000000" font-family="sans-serif" font-size="10" lengthAdjust="spacing" textLength="74" x="703.5" y="632.6091">bo4e.enum.typ</text></g><!--class Regionaltarif--><g id="elem_Regionaltarif"><rect codeLine="3" fill="#F1F1F1" height="111.125" id="Regionaltarif" rx="2.5" ry="2.5" style="stroke:#181818;stroke-width:0.5;" width="369" x="7" y="306.44"/><ellipse cx="137.25" cy="325.4088" fill="#ADD1B2" rx="11" ry="11" style="stroke:#181818;stroke-width:1.0;"/><path d="M140.2188,331.0494 Q139.6406,331.3463 139,331.4869 Q138.3594,331.6431 137.6563,331.6431 Q135.1563,331.6431 133.8281,330.0025 Q132.5156,328.3463 132.5156,325.2213 Q132.5156,322.0963 133.8281,320.44 Q135.1563,318.7838 137.6563,318.7838 Q138.3594,318.7838 139,318.94 Q139.6563,319.0963 140.2188,319.3931 L140.2188,322.1119 Q139.5938,321.5338 139,321.2681 Q138.4063,320.9869 137.7813,320.9869 Q136.4375,320.9869 135.75,322.065 Q135.0625,323.1275 135.0625,325.2213 Q135.0625,327.315 135.75,328.3931 Q136.4375,329.4556 137.7813,329.4556 Q138.4063,329.4556 139,329.19 Q139.5938,328.9088 140.2188,328.3306 L140.2188,331.0494 Z " fill="#000000"/><a href="https://bo4e.github.io/BO4E-python/latest/api/bo4e.bo.html#bo4e.bo.regionaltarif.Regionaltarif" target="_top" title="https://bo4e.github.io/BO4E-python/latest/api/bo4e.bo.html#bo4e.bo.regionaltarif.Regionaltarif" xlink:actuate="onRequest" xlink:href="https://bo4e.github.io/BO4E-python/latest/api/bo4e.bo.html#bo4e.bo.regionaltarif.Regionaltarif" xlink:show="new" xlink:title="https://bo4e.github.io/BO4E-python/latest/api/bo4e.bo.html#bo4e.bo.regionaltarif.Regionaltarif" xlink:type="simple"><text fill="#0000FF" font-family="sans-serif" font-size="14" lengthAdjust="spacing" text-decoration="underline" textLength="85" x="165.25" y="324.4351">Regionaltarif</text></a><text fill="#000000" font-family="sans-serif" font-size="10" lengthAdjust="spacing" textLength="100" x="157.75" y="337.0191">bo4e.bo.regionaltarif</text><line style="stroke:#181818;stroke-width:0.5;" x1="8" x2="375" y1="344.3775" y2="344.3775"/><text fill="#000000" font-family="sans-serif" font-size="14" lengthAdjust="spacing" textLength="357" x="13" y="361.3726">_version : str [0..1] = 202401.1.2.dev13+g9a6529a</text><text fill="#000000" font-family="sans-serif" font-size="14" lengthAdjust="spacing" textLength="311" x="13" y="377.6695">zusatzAttribute : ZusatzAttribut [0..*] = None</text><text fill="#000000" font-family="sans-serif" font-size="14" lengthAdjust="spacing" textLength="147" x="13" y="393.9664">_id : str [0..1] = None</text><text fill="#000000" font-family="sans-serif" font-size="14" lengthAdjust="spacing" textLength="288" x="13" y="410.2632">preisstand : AwareDatetime [0..1] = None</text></g><!--link Regionaltarif to Tarifinfo--><g id="link_Regionaltarif_Tarifinfo"><path codeLine="24" d="M271.86,306.06 C311.13,279.8 359.89,249.24 406,226 C495.68,180.8 589.0594,147.4387 654.0994,126.0687 " fill="none" id="Regionaltarif-to-Tarifinfo" style="stroke:#181818;stroke-width:1.0;"/><polygon fill="none" points="671.2,120.45,652.2265,120.3685,655.9723,131.7689,671.2,120.45" style="stroke:#181818;stroke-width:1.0;"/></g><!--link Regionaltarif to Typ--><g id="link_Regionaltarif_Typ"><path codeLine="25" d="M270.78,417.77 C310.2,444.4 359.4,475.5 406,499 C496.9,544.85 597.9496,580.1957 662.6096,601.0557 " fill="none" id="Regionaltarif-to-Typ" style="stroke:#181818;stroke-width:1.0;"/><polygon fill="#181818" points="674.03,604.74,669.5479,599.091,662.6096,601.0557,667.0917,606.7046,674.03,604.74" style="stroke:#181818;stroke-width:1.0;"/><text fill="#000000" font-family="sans-serif" font-size="13" lengthAdjust="spacing" textLength="27" x="469" y="495.0669">_typ</text><text fill="#000000" font-family="sans-serif" font-size="13" lengthAdjust="spacing" textLength="24" x="642.46" y="615.8018">0..1</text></g><!--link Regionaltarif to Tarifberechnungsparameter--><g id="link_Regionaltarif_Tarifberechnungsparameter"><path codeLine="26" d="M376.27,387.12 C455.62,397.97 533.9705,408.6853 602.9805,418.1153 " fill="none" id="Regionaltarif-to-Tarifberechnungsparameter" style="stroke:#181818;stroke-width:1.0;"/><polygon fill="#181818" points="614.87,419.74,609.4668,414.9645,602.9805,418.1153,608.3837,422.8908,614.87,419.74" style="stroke:#181818;stroke-width:1.0;"/><text fill="#000000" font-family="sans-serif" font-size="13" lengthAdjust="spacing" textLength="151" x="407" y="388.0669">berechnungsparameter</text><text fill="#000000" font-family="sans-serif" font-size="13" lengthAdjust="spacing" textLength="24" x="582.8859" y="431.3141">0..1</text></g><!--link Regionaltarif to RegionaleTarifpreisposition--><g id="link_Regionaltarif_RegionaleTarifpreisposition"><path codeLine="27" d="M376.27,362 C456.67,362 536.26,362 605.61,362 " fill="none" id="Regionaltarif-to-RegionaleTarifpreisposition" style="stroke:#181818;stroke-width:1.0;"/><polygon fill="#181818" points="617.61,362,611.61,358,605.61,362,611.61,366,617.61,362" style="stroke:#181818;stroke-width:1.0;"/><text fill="#000000" font-family="sans-serif" font-size="13" lengthAdjust="spacing" textLength="64" x="450.5" y="358.0669">tarifpreise</text><text fill="#000000" font-family="sans-serif" font-size="13" lengthAdjust="spacing" textLength="23" x="586.8335" y="374.5517">0..*</text></g><!--link Regionaltarif to RegionalerAufAbschlag--><g id="link_Regionaltarif_RegionalerAufAbschlag"><path codeLine="28" d="M376.27,336.88 C462.26,325.12 549.1405,313.2447 619.8305,303.5847 " fill="none" id="Regionaltarif-to-RegionalerAufAbschlag" style="stroke:#181818;stroke-width:1.0;"/><polygon fill="#181818" points="631.72,301.96,625.2337,298.8092,619.8305,303.5847,626.3168,306.7355,631.72,301.96" style="stroke:#181818;stroke-width:1.0;"/><text fill="#000000" font-family="sans-serif" font-size="13" lengthAdjust="spacing" textLength="120" x="422.5" y="309.0669">tarifAufAbschlaege</text><text fill="#000000" font-family="sans-serif" font-size="13" lengthAdjust="spacing" textLength="23" x="600.8416" y="315.5344">0..*</text></g><!--link Regionaltarif to RegionalePreisgarantie--><g id="link_Regionaltarif_RegionalePreisgarantie"><path codeLine="29" d="M344.86,418.01 C365.29,424.79 386.07,431.31 406,437 C481.08,458.42 555.8241,474.8913 620.0241,487.7613 " fill="none" id="Regionaltarif-to-RegionalePreisgarantie" style="stroke:#181818;stroke-width:1.0;"/><polygon fill="#181818" points="631.79,490.12,626.6933,485.0187,620.0241,487.7613,625.1208,492.8626,631.79,490.12" style="stroke:#181818;stroke-width:1.0;"/><text fill="#000000" font-family="sans-serif" font-size="13" lengthAdjust="spacing" textLength="92" x="436.5" y="433.0669">preisgarantien</text><text fill="#000000" font-family="sans-serif" font-size="13" lengthAdjust="spacing" textLength="23" x="600.9168" y="501.4296">0..*</text></g><!--link Regionaltarif to Tarifeinschraenkung--><g id="link_Regionaltarif_Tarifeinschraenkung"><path codeLine="30" d="M347.52,305.99 C367.1,299.59 386.95,293.42 406,288 C483.61,265.91 561.5909,248.6322 626.3309,235.4622 " fill="none" id="Regionaltarif-to-Tarifeinschraenkung" style="stroke:#181818;stroke-width:1.0;"/><polygon fill="#181818" points="638.09,233.07,631.413,230.3464,626.3309,235.4622,633.0078,238.1858,638.09,233.07" style="stroke:#181818;stroke-width:1.0;"/><text fill="#000000" font-family="sans-serif" font-size="13" lengthAdjust="spacing" textLength="126" x="419.5" y="247.0669">tarifeinschraenkung</text><text fill="#000000" font-family="sans-serif" font-size="13" lengthAdjust="spacing" textLength="24" x="606.6427" y="246.9462">0..1</text></g><!--SRC=[jLLBRzf043x7lsA4RrGOJ0XDh3QIq-JQLXMdKXGjzjXUrLvRk-j4qFI_TsqUzXe3ZO034lFORppVl68C9CWKE0qZ2Jxbw4cQCiFmOY84TARJICfCEFt-F1sX5L8PvNEBfls7RwEdNhQGKShwCP4eP9zaTEKrJwr89h6v4JY62fF4ad0QM3_g4cZIRFQBVH9qYOuzk6zztG4Yz3VmnxXwVa4kb0eS49B3T61PzWm-mt0m70rioxQ6beylzlM7y8wCRuPtnBXQveB8fIibf_DSedhvKzEK8Dq2v6lAK8MWVXDzPSWuKY4aOONTVIKS7nKTaYROyFnh68maA3BYuMd4mbgOpKewrXAO3-F7Z-vjGSWvgrUoJ5cGMfFDFzZ-QwtOzaNvULjVnS2f17XfKcD0INKAb0Zcqy2z7NyvbODD77ChbJaXPSABE47sEsVXYWzT1oswNOxs05PqwVfpvxAPAEGa3yXSHOf9k9rBv6uUk6ijj6hRCsg5rGPM0xbOLYMpvLXcgQ35Egjoc-pOu83jI9wxWVHiTm4lqfLpL5ixOgfHr6XnDM4I-QetsoomrtAWJzlSgsvjirwikYMVeGh39CMgiD_hQcXN7ocdXgnNKeCvmnv3bjSNMI7MDraXW-dRtlNDoUjy6ygiHBd8hCaY0_NRvMJZiQhl8YiEL-DeztflzvkpKrs5ffTowqAdk86TAgqohWFFAi1H_w8w-_lOWTQ-smVQhO4UMWSEL6EDxqFJ5kSQfr9X-4uulQKTqFgJ_JzxZGkr_h36YJ4YwYCac2XIXI6Yz1KQ0GAAiI_-0G00]--></g></svg>