<?xml version="1.0" encoding="us-ascii" standalone="no"?><svg xmlns="http://www.w3.org/2000/svg" xmlns:xlink="http://www.w3.org/1999/xlink" contentStyleType="text/css" height="687px" preserveAspectRatio="none" style="width:889px;height:687px;background:#FFFFFF;" version="1.1" viewBox="0 0 889 687" width="889px" zoomAndPan="magnify"><defs/><g><!--cluster bo4e--><g id="cluster_bo4e"><path d="M579.5,6 L620.5,6 A3.75,3.75 0 0 1 623,8.5 L630,28.2969 L879.5,28.2969 A2.5,2.5 0 0 1 882,30.7969 L882,677.5 A2.5,2.5 0 0 1 879.5,680 L579.5,680 A2.5,2.5 0 0 1 577,677.5 L577,8.5 A2.5,2.5 0 0 1 579.5,6 " fill="none" style="stroke:#000000;stroke-width:1.5;"/><line style="stroke:#000000;stroke-width:1.5;" x1="577" x2="630" y1="28.2969" y2="28.2969"/><text fill="#000000" font-family="sans-serif" font-size="14" font-weight="bold" lengthAdjust="spacing" textLength="40" x="581" y="20.9951">bo4e</text></g><!--cluster bo--><g id="cluster_bo"><path d="M660,49 L726,49 A3.75,3.75 0 0 1 728.5,51.5 L735.5,71.2969 L799,71.2969 A2.5,2.5 0 0 1 801.5,73.7969 L801.5,135.5 A2.5,2.5 0 0 1 799,138 L660,138 A2.5,2.5 0 0 1 657.5,135.5 L657.5,51.5 A2.5,2.5 0 0 1 660,49 " fill="#B6D7A8" style="stroke:#000000;stroke-width:1.5;"/><line style="stroke:#000000;stroke-width:1.5;" x1="657.5" x2="735.5" y1="71.2969" y2="71.2969"/><a href="https://bo4e.github.io/BO4E-python/latest/api/bo4e.bo.html" target="_top" title="https://bo4e.github.io/BO4E-python/latest/api/bo4e.bo.html" xlink:actuate="onRequest" xlink:href="https://bo4e.github.io/BO4E-python/latest/api/bo4e.bo.html" xlink:show="new" xlink:title="https://bo4e.github.io/BO4E-python/latest/api/bo4e.bo.html" xlink:type="simple"><text fill="#0000FF" font-family="sans-serif" font-size="14" font-weight="bold" lengthAdjust="spacing" text-decoration="underline" textLength="65" x="661.5" y="63.9951">bo4e.bo</text></a></g><!--cluster com--><g id="cluster_com"><path d="M603.5,162 L682.5,162 A3.75,3.75 0 0 1 685,164.5 L692,184.2969 L855.5,184.2969 A2.5,2.5 0 0 1 858,186.7969 L858,540.5 A2.5,2.5 0 0 1 855.5,543 L603.5,543 A2.5,2.5 0 0 1 601,540.5 L601,164.5 A2.5,2.5 0 0 1 603.5,162 " fill="#E0A86C" style="stroke:#000000;stroke-width:1.5;"/><line style="stroke:#000000;stroke-width:1.5;" x1="601" x2="692" y1="184.2969" y2="184.2969"/><a href="https://bo4e.github.io/BO4E-python/latest/api/bo4e.com.html" target="_top" title="https://bo4e.github.io/BO4E-python/latest/api/bo4e.com.html" xlink:actuate="onRequest" xlink:href="https://bo4e.github.io/BO4E-python/latest/api/bo4e.com.html" xlink:show="new" xlink:title="https://bo4e.github.io/BO4E-python/latest/api/bo4e.com.html" xlink:type="simple"><text fill="#0000FF" font-family="sans-serif" font-size="14" font-weight="bold" lengthAdjust="spacing" text-decoration="underline" textLength="78" x="605" y="176.9951">bo4e.com</text></a></g><!--cluster enum--><g id="cluster_enum"><path d="M663,567 L753,567 A3.75,3.75 0 0 1 755.5,569.5 L762.5,589.2969 L796,589.2969 A2.5,2.5 0 0 1 798.5,591.7969 L798.5,653.5 A2.5,2.5 0 0 1 796,656 L663,656 A2.5,2.5 0 0 1 660.5,653.5 L660.5,569.5 A2.5,2.5 0 0 1 663,567 " fill="#D1C358" style="stroke:#000000;stroke-width:1.5;"/><line style="stroke:#000000;stroke-width:1.5;" x1="660.5" x2="762.5" y1="589.2969" y2="589.2969"/><a href="https://bo4e.github.io/BO4E-python/latest/api/bo4e.enum.html" target="_top" title="https://bo4e.github.io/BO4E-python/latest/api/bo4e.enum.html" xlink:actuate="onRequest" xlink:href="https://bo4e.github.io/BO4E-python/latest/api/bo4e.enum.html" xlink:show="new" xlink:title="https://bo4e.github.io/BO4E-python/latest/api/bo4e.enum.html" xlink:type="simple"><text fill="#0000FF" font-family="sans-serif" font-size="14" font-weight="bold" lengthAdjust="spacing" text-decoration="underline" textLength="89" x="664.5" y="581.9951">bo4e.enum</text></a></g><!--class Tarifinfo--><g id="elem_Tarifinfo"><rect codeLine="11" fill="#F1F1F1" height="37.9375" id="Tarifinfo" rx="2.5" ry="2.5" style="stroke:#181818;stroke-width:0.5;" width="112" x="673.5" y="84.03"/><ellipse cx="688.5" cy="102.9987" fill="#ADD1B2" rx="11" ry="11" style="stroke:#181818;stroke-width:1.0;"/><path d="M691.4688,108.6394 Q690.8906,108.9362 690.25,109.0769 Q689.6094,109.2331 688.9063,109.2331 Q686.4063,109.2331 685.0781,107.5925 Q683.7656,105.9362 683.7656,102.8112 Q683.7656,99.6862 685.0781,98.03 Q686.4063,96.3737 688.9063,96.3737 Q689.6094,96.3737 690.25,96.53 Q690.9063,96.6862 691.4688,96.9831 L691.4688,99.7019 Q690.8438,99.1237 690.25,98.8581 Q689.6563,98.5769 689.0313,98.5769 Q687.6875,98.5769 687,99.655 Q686.3125,100.7175 686.3125,102.8112 Q686.3125,104.905 687,105.9831 Q687.6875,107.0456 689.0313,107.0456 Q689.6563,107.0456 690.25,106.78 Q690.8438,106.4987 691.4688,105.9206 L691.4688,108.6394 Z " fill="#000000"/><a href="https://bo4e.github.io/BO4E-python/latest/api/bo4e.bo.html#bo4e.bo.tarifinfo.Tarifinfo" target="_top" title="https://bo4e.github.io/BO4E-python/latest/api/bo4e.bo.html#bo4e.bo.tarifinfo.Tarifinfo" xlink:actuate="onRequest" xlink:href="https://bo4e.github.io/BO4E-python/latest/api/bo4e.bo.html#bo4e.bo.tarifinfo.Tarifinfo" xlink:show="new" xlink:title="https://bo4e.github.io/BO4E-python/latest/api/bo4e.bo.html#bo4e.bo.tarifinfo.Tarifinfo" xlink:type="simple"><text fill="#0000FF" font-family="sans-serif" font-size="14" lengthAdjust="spacing" text-decoration="underline" textLength="54" x="715.5" y="102.0251">Tarifinfo</text></a><text fill="#000000" font-family="sans-serif" font-size="10" lengthAdjust="spacing" textLength="80" x="702.5" y="114.6091">bo4e.bo.tarifinfo</text></g><!--class RegionalePreisgarantie--><g id="elem_RegionalePreisgarantie"><rect codeLine="14" fill="#F1F1F1" height="37.9375" id="RegionalePreisgarantie" rx="2.5" ry="2.5" style="stroke:#181818;stroke-width:0.5;" width="191" x="634" y="197.03"/><ellipse cx="649" cy="215.9987" fill="#ADD1B2" rx="11" ry="11" style="stroke:#181818;stroke-width:1.0;"/><path d="M651.9688,221.6394 Q651.3906,221.9362 650.75,222.0769 Q650.1094,222.2331 649.4063,222.2331 Q646.9063,222.2331 645.5781,220.5925 Q644.2656,218.9362 644.2656,215.8112 Q644.2656,212.6862 645.5781,211.03 Q646.9063,209.3737 649.4063,209.3737 Q650.1094,209.3737 650.75,209.53 Q651.4063,209.6862 651.9688,209.9831 L651.9688,212.7019 Q651.3438,212.1237 650.75,211.8581 Q650.1563,211.5769 649.5313,211.5769 Q648.1875,211.5769 647.5,212.655 Q646.8125,213.7175 646.8125,215.8112 Q646.8125,217.905 647.5,218.9831 Q648.1875,220.0456 649.5313,220.0456 Q650.1563,220.0456 650.75,219.78 Q651.3438,219.4987 651.9688,218.9206 L651.9688,221.6394 Z " fill="#000000"/><a href="https://bo4e.github.io/BO4E-python/latest/api/bo4e.com.html#bo4e.com.regionalepreisgarantie.RegionalePreisgarantie" target="_top" title="https://bo4e.github.io/BO4E-python/latest/api/bo4e.com.html#bo4e.com.regionalepreisgarantie.RegionalePreisgarantie" xlink:actuate="onRequest" xlink:href="https://bo4e.github.io/BO4E-python/latest/api/bo4e.com.html#bo4e.com.regionalepreisgarantie.RegionalePreisgarantie" xlink:show="new" xlink:title="https://bo4e.github.io/BO4E-python/latest/api/bo4e.com.html#bo4e.com.regionalepreisgarantie.RegionalePreisgarantie" xlink:type="simple"><text fill="#0000FF" font-family="sans-serif" font-size="14" lengthAdjust="spacing" text-decoration="underline" textLength="159" x="663" y="215.0251">RegionalePreisgarantie</text></a><text fill="#000000" font-family="sans-serif" font-size="10" lengthAdjust="spacing" textLength="158" x="663.5" y="227.6091">bo4e.com.regionalepreisgarantie</text></g><!--class Tarifberechnungsparameter--><g id="elem_Tarifberechnungsparameter"><rect codeLine="15" fill="#F1F1F1" height="37.9375" id="Tarifberechnungsparameter" rx="2.5" ry="2.5" style="stroke:#181818;stroke-width:0.5;" width="225" x="617" y="270.03"/><ellipse cx="632" cy="288.9988" fill="#ADD1B2" rx="11" ry="11" style="stroke:#181818;stroke-width:1.0;"/><path d="M634.9688,294.6394 Q634.3906,294.9363 633.75,295.0769 Q633.1094,295.2331 632.4063,295.2331 Q629.9063,295.2331 628.5781,293.5925 Q627.2656,291.9363 627.2656,288.8113 Q627.2656,285.6863 628.5781,284.03 Q629.9063,282.3738 632.4063,282.3738 Q633.1094,282.3738 633.75,282.53 Q634.4063,282.6863 634.9688,282.9831 L634.9688,285.7019 Q634.3438,285.1238 633.75,284.8581 Q633.1563,284.5769 632.5313,284.5769 Q631.1875,284.5769 630.5,285.655 Q629.8125,286.7175 629.8125,288.8113 Q629.8125,290.905 630.5,291.9831 Q631.1875,293.0456 632.5313,293.0456 Q633.1563,293.0456 633.75,292.78 Q634.3438,292.4988 634.9688,291.9206 L634.9688,294.6394 Z " fill="#000000"/><a href="https://bo4e.github.io/BO4E-python/latest/api/bo4e.com.html#bo4e.com.tarifberechnungsparameter.Tarifberechnungsparameter" target="_top" title="https://bo4e.github.io/BO4E-python/latest/api/bo4e.com.html#bo4e.com.tarifberechnungsparameter.Tarifberechnungsparameter" xlink:actuate="onRequest" xlink:href="https://bo4e.github.io/BO4E-python/latest/api/bo4e.com.html#bo4e.com.tarifberechnungsparameter.Tarifberechnungsparameter" xlink:show="new" xlink:title="https://bo4e.github.io/BO4E-python/latest/api/bo4e.com.html#bo4e.com.tarifberechnungsparameter.Tarifberechnungsparameter" xlink:type="simple"><text fill="#0000FF" font-family="sans-serif" font-size="14" lengthAdjust="spacing" text-decoration="underline" textLength="193" x="646" y="288.0251">Tarifberechnungsparameter</text></a><text fill="#000000" font-family="sans-serif" font-size="10" lengthAdjust="spacing" textLength="185" x="650" y="300.6091">bo4e.com.tarifberechnungsparameter</text></g><!--class RegionaleTarifpreisposition--><g id="elem_RegionaleTarifpreisposition"><rect codeLine="16" fill="#F1F1F1" height="37.9375" id="RegionaleTarifpreisposition" rx="2.5" ry="2.5" style="stroke:#181818;stroke-width:0.5;" width="219" x="620" y="343.03"/><ellipse cx="635" cy="361.9988" fill="#ADD1B2" rx="11" ry="11" style="stroke:#181818;stroke-width:1.0;"/><path d="M637.9688,367.6394 Q637.3906,367.9363 636.75,368.0769 Q636.1094,368.2331 635.4063,368.2331 Q632.9063,368.2331 631.5781,366.5925 Q630.2656,364.9363 630.2656,361.8113 Q630.2656,358.6863 631.5781,357.03 Q632.9063,355.3738 635.4063,355.3738 Q636.1094,355.3738 636.75,355.53 Q637.4063,355.6863 637.9688,355.9831 L637.9688,358.7019 Q637.3438,358.1238 636.75,357.8581 Q636.1563,357.5769 635.5313,357.5769 Q634.1875,357.5769 633.5,358.655 Q632.8125,359.7175 632.8125,361.8113 Q632.8125,363.905 633.5,364.9831 Q634.1875,366.0456 635.5313,366.0456 Q636.1563,366.0456 636.75,365.78 Q637.3438,365.4988 637.9688,364.9206 L637.9688,367.6394 Z " fill="#000000"/><a href="https://bo4e.github.io/BO4E-python/latest/api/bo4e.com.html#bo4e.com.regionaletarifpreisposition.RegionaleTarifpreisposition" target="_top" title="https://bo4e.github.io/BO4E-python/latest/api/bo4e.com.html#bo4e.com.regionaletarifpreisposition.RegionaleTarifpreisposition" xlink:actuate="onRequest" xlink:href="https://bo4e.github.io/BO4E-python/latest/api/bo4e.com.html#bo4e.com.regionaletarifpreisposition.RegionaleTarifpreisposition" xlink:show="new" xlink:title="https://bo4e.github.io/BO4E-python/latest/api/bo4e.com.html#bo4e.com.regionaletarifpreisposition.RegionaleTarifpreisposition" xlink:type="simple"><text fill="#0000FF" font-family="sans-serif" font-size="14" lengthAdjust="spacing" text-decoration="underline" textLength="187" x="649" y="361.0251">RegionaleTarifpreisposition</text></a><text fill="#000000" font-family="sans-serif" font-size="10" lengthAdjust="spacing" textLength="175" x="655" y="373.6091">bo4e.com.regionaletarifpreisposition</text></g><!--class RegionalerAufAbschlag--><g id="elem_RegionalerAufAbschlag"><rect codeLine="17" fill="#F1F1F1" height="37.9375" id="RegionalerAufAbschlag" rx="2.5" ry="2.5" style="stroke:#181818;stroke-width:0.5;" width="191" x="634" y="416.03"/><ellipse cx="649" cy="434.9988" fill="#ADD1B2" rx="11" ry="11" style="stroke:#181818;stroke-width:1.0;"/><path d="M651.9688,440.6394 Q651.3906,440.9363 650.75,441.0769 Q650.1094,441.2331 649.4063,441.2331 Q646.9063,441.2331 645.5781,439.5925 Q644.2656,437.9363 644.2656,434.8113 Q644.2656,431.6863 645.5781,430.03 Q646.9063,428.3738 649.4063,428.3738 Q650.1094,428.3738 650.75,428.53 Q651.4063,428.6863 651.9688,428.9831 L651.9688,431.7019 Q651.3438,431.1238 650.75,430.8581 Q650.1563,430.5769 649.5313,430.5769 Q648.1875,430.5769 647.5,431.655 Q646.8125,432.7175 646.8125,434.8113 Q646.8125,436.905 647.5,437.9831 Q648.1875,439.0456 649.5313,439.0456 Q650.1563,439.0456 650.75,438.78 Q651.3438,438.4988 651.9688,437.9206 L651.9688,440.6394 Z " fill="#000000"/><a href="https://bo4e.github.io/BO4E-python/latest/api/bo4e.com.html#bo4e.com.regionaleraufabschlag.RegionalerAufAbschlag" target="_top" title="https://bo4e.github.io/BO4E-python/latest/api/bo4e.com.html#bo4e.com.regionaleraufabschlag.RegionalerAufAbschlag" xlink:actuate="onRequest" xlink:href="https://bo4e.github.io/BO4E-python/latest/api/bo4e.com.html#bo4e.com.regionaleraufabschlag.RegionalerAufAbschlag" xlink:show="new" xlink:title="https://bo4e.github.io/BO4E-python/latest/api/bo4e.com.html#bo4e.com.regionaleraufabschlag.RegionalerAufAbschlag" xlink:type="simple"><text fill="#0000FF" font-family="sans-serif" font-size="14" lengthAdjust="spacing" text-decoration="underline" textLength="159" x="663" y="434.0251">RegionalerAufAbschlag</text></a><text fill="#000000" font-family="sans-serif" font-size="10" lengthAdjust="spacing" textLength="157" x="664" y="446.6091">bo4e.com.regionaleraufabschlag</text></g><!--class Tarifeinschraenkung--><g id="elem_Tarifeinschraenkung"><rect codeLine="18" fill="#F1F1F1" height="37.9375" id="Tarifeinschraenkung" rx="2.5" ry="2.5" style="stroke:#181818;stroke-width:0.5;" width="178" x="640.5" y="489.03"/><ellipse cx="655.5" cy="507.9988" fill="#ADD1B2" rx="11" ry="11" style="stroke:#181818;stroke-width:1.0;"/><path d="M658.4688,513.6394 Q657.8906,513.9363 657.25,514.0769 Q656.6094,514.2331 655.9063,514.2331 Q653.4063,514.2331 652.0781,512.5925 Q650.7656,510.9363 650.7656,507.8113 Q650.7656,504.6863 652.0781,503.03 Q653.4063,501.3738 655.9063,501.3738 Q656.6094,501.3738 657.25,501.53 Q657.9063,501.6863 658.4688,501.9831 L658.4688,504.7019 Q657.8438,504.1238 657.25,503.8581 Q656.6563,503.5769 656.0313,503.5769 Q654.6875,503.5769 654,504.655 Q653.3125,505.7175 653.3125,507.8113 Q653.3125,509.905 654,510.9831 Q654.6875,512.0456 656.0313,512.0456 Q656.6563,512.0456 657.25,511.78 Q657.8438,511.4988 658.4688,510.9206 L658.4688,513.6394 Z " fill="#000000"/><a href="https://bo4e.github.io/BO4E-python/latest/api/bo4e.com.html#bo4e.com.tarifeinschraenkung.Tarifeinschraenkung" target="_top" title="https://bo4e.github.io/BO4E-python/latest/api/bo4e.com.html#bo4e.com.tarifeinschraenkung.Tarifeinschraenkung" xlink:actuate="onRequest" xlink:href="https://bo4e.github.io/BO4E-python/latest/api/bo4e.com.html#bo4e.com.tarifeinschraenkung.Tarifeinschraenkung" xlink:show="new" xlink:title="https://bo4e.github.io/BO4E-python/latest/api/bo4e.com.html#bo4e.com.tarifeinschraenkung.Tarifeinschraenkung" xlink:type="simple"><text fill="#0000FF" font-family="sans-serif" font-size="14" lengthAdjust="spacing" text-decoration="underline" textLength="141" x="672" y="507.0251">Tarifeinschraenkung</text></a><text fill="#000000" font-family="sans-serif" font-size="10" lengthAdjust="spacing" textLength="146" x="669.5" y="519.6091">bo4e.com.tarifeinschraenkung</text></g><!--class Typ--><g id="elem_Typ"><rect codeLine="21" fill="#F1F1F1" height="37.9375" id="Typ" rx="2.5" ry="2.5" style="stroke:#181818;stroke-width:0.5;" width="106" x="676.5" y="602.03"/><ellipse cx="691.5" cy="620.9988" fill="#ADD1B2" rx="11" ry="11" style="stroke:#181818;stroke-width:1.0;"/><path d="M694.4688,626.6394 Q693.8906,626.9363 693.25,627.0769 Q692.6094,627.2331 691.9063,627.2331 Q689.4063,627.2331 688.0781,625.5925 Q686.7656,623.9363 686.7656,620.8113 Q686.7656,617.6863 688.0781,616.03 Q689.4063,614.3738 691.9063,614.3738 Q692.6094,614.3738 693.25,614.53 Q693.9063,614.6863 694.4688,614.9831 L694.4688,617.7019 Q693.8438,617.1238 693.25,616.8581 Q692.6563,616.5769 692.0313,616.5769 Q690.6875,616.5769 690,617.655 Q689.3125,618.7175 689.3125,620.8113 Q689.3125,622.905 690,623.9831 Q690.6875,625.0456 692.0313,625.0456 Q692.6563,625.0456 693.25,624.78 Q693.8438,624.4988 694.4688,623.9206 L694.4688,626.6394 Z " fill="#000000"/><a href="https://bo4e.github.io/BO4E-python/latest/api/bo4e.enum.html#bo4e.enum.typ.Typ" target="_top" title="https://bo4e.github.io/BO4E-python/latest/api/bo4e.enum.html#bo4e.enum.typ.Typ" xlink:actuate="onRequest" xlink:href="https://bo4e.github.io/BO4E-python/latest/api/bo4e.enum.html#bo4e.enum.typ.Typ" xlink:show="new" xlink:title="https://bo4e.github.io/BO4E-python/latest/api/bo4e.enum.html#bo4e.enum.typ.Typ" xlink:type="simple"><text fill="#0000FF" font-family="sans-serif" font-size="14" lengthAdjust="spacing" text-decoration="underline" textLength="25" x="730" y="620.0251">Typ</text></a><text fill="#000000" font-family="sans-serif" font-size="10" lengthAdjust="spacing" textLength="74" x="705.5" y="632.6091">bo4e.enum.typ</text></g><!--class Regionaltarif--><g id="elem_Regionaltarif"><rect codeLine="3" fill="#F1F1F1" height="111.125" id="Regionaltarif" rx="2.5" ry="2.5" style="stroke:#181818;stroke-width:0.5;" width="371" x="7" y="306.44"/><ellipse cx="138.25" cy="325.4088" fill="#ADD1B2" rx="11" ry="11" style="stroke:#181818;stroke-width:1.0;"/><path d="M141.2188,331.0494 Q140.6406,331.3463 140,331.4869 Q139.3594,331.6431 138.6563,331.6431 Q136.1563,331.6431 134.8281,330.0025 Q133.5156,328.3463 133.5156,325.2213 Q133.5156,322.0963 134.8281,320.44 Q136.1563,318.7838 138.6563,318.7838 Q139.3594,318.7838 140,318.94 Q140.6563,319.0963 141.2188,319.3931 L141.2188,322.1119 Q140.5938,321.5338 140,321.2681 Q139.4063,320.9869 138.7813,320.9869 Q137.4375,320.9869 136.75,322.065 Q136.0625,323.1275 136.0625,325.2213 Q136.0625,327.315 136.75,328.3931 Q137.4375,329.4556 138.7813,329.4556 Q139.4063,329.4556 140,329.19 Q140.5938,328.9088 141.2188,328.3306 L141.2188,331.0494 Z " fill="#000000"/><a href="https://bo4e.github.io/BO4E-python/latest/api/bo4e.bo.html#bo4e.bo.regionaltarif.Regionaltarif" target="_top" title="https://bo4e.github.io/BO4E-python/latest/api/bo4e.bo.html#bo4e.bo.regionaltarif.Regionaltarif" xlink:actuate="onRequest" xlink:href="https://bo4e.github.io/BO4E-python/latest/api/bo4e.bo.html#bo4e.bo.regionaltarif.Regionaltarif" xlink:show="new" xlink:title="https://bo4e.github.io/BO4E-python/latest/api/bo4e.bo.html#bo4e.bo.regionaltarif.Regionaltarif" xlink:type="simple"><text fill="#0000FF" font-family="sans-serif" font-size="14" lengthAdjust="spacing" text-decoration="underline" textLength="85" x="166.25" y="324.4351">Regionaltarif</text></a><text fill="#000000" font-family="sans-serif" font-size="10" lengthAdjust="spacing" textLength="100" x="158.75" y="337.0191">bo4e.bo.regionaltarif</text><line style="stroke:#181818;stroke-width:0.5;" x1="8" x2="377" y1="344.3775" y2="344.3775"/><text fill="#000000" font-family="sans-serif" font-size="14" lengthAdjust="spacing" textLength="359" x="13" y="361.3726">_version : str [0..1] = 202401.4.1.dev6+g362b98d5</text><text fill="#000000" font-family="sans-serif" font-size="14" lengthAdjust="spacing" textLength="311" x="13" y="377.6695">zusatzAttribute : ZusatzAttribut [0..*] = None</text><text fill="#000000" font-family="sans-serif" font-size="14" lengthAdjust="spacing" textLength="147" x="13" y="393.9664">_id : str [0..1] = None</text><text fill="#000000" font-family="sans-serif" font-size="14" lengthAdjust="spacing" textLength="288" x="13" y="410.2632">preisstand : AwareDatetime [0..1] = None</text></g><!--link Regionaltarif to Tarifinfo--><g id="link_Regionaltarif_Tarifinfo"><path codeLine="24" d="M273.27,306.08 C312.72,279.83 361.71,249.27 408,226 C497.73,180.9 591.092,147.5066 656.122,126.1066 " fill="none" id="Regionaltarif-to-Tarifinfo" style="stroke:#181818;stroke-width:1.0;"/><polygon fill="none" points="673.22,120.48,654.2465,120.4073,657.9975,131.8059,673.22,120.48" style="stroke:#181818;stroke-width:1.0;"/></g><!--link Regionaltarif to Typ--><g id="link_Regionaltarif_Typ"><path codeLine="25" d="M272.43,417.92 C312,444.5 361.32,475.52 408,499 C498.95,544.75 599.982,580.1182 664.622,601.0182 " fill="none" id="Regionaltarif-to-Typ" style="stroke:#181818;stroke-width:1.0;"/><polygon fill="#181818" points="676.04,604.71,671.5616,599.0581,664.622,601.0182,669.1004,606.6701,676.04,604.71" style="stroke:#181818;stroke-width:1.0;"/><text fill="#000000" font-family="sans-serif" font-size="13" lengthAdjust="spacing" textLength="27" x="471" y="495.0669">_typ</text><text fill="#000000" font-family="sans-serif" font-size="13" lengthAdjust="spacing" textLength="24" x="644.4712" y="615.7684">0..1</text></g><!--link Regionaltarif to Tarifberechnungsparameter--><g id="link_Regionaltarif_Tarifberechnungsparameter"><path codeLine="26" d="M378.37,336.78 C457.65,325.96 535.7801,315.2919 604.6901,305.8919 " fill="none" id="Regionaltarif-to-Tarifberechnungsparameter" style="stroke:#181818;stroke-width:1.0;"/><polygon fill="#181818" points="616.58,304.27,610.0944,301.1177,604.6901,305.8919,611.1757,309.0442,616.58,304.27" style="stroke:#181818;stroke-width:1.0;"/><text fill="#000000" font-family="sans-serif" font-size="13" lengthAdjust="spacing" textLength="151" x="409" y="309.0669">berechnungsparameter</text><text fill="#000000" font-family="sans-serif" font-size="13" lengthAdjust="spacing" textLength="24" x="584.9677" y="317.7286">0..1</text></g><!--link Regionaltarif to RegionaleTarifpreisposition--><g id="link_Regionaltarif_RegionaleTarifpreisposition"><path codeLine="27" d="M378.37,362 C458.86,362 538.42,362 607.72,362 " fill="none" id="Regionaltarif-to-RegionaleTarifpreisposition" style="stroke:#181818;stroke-width:1.0;"/><polygon fill="#181818" points="619.72,362,613.72,358,607.72,362,613.72,366,619.72,362" style="stroke:#181818;stroke-width:1.0;"/><text fill="#000000" font-family="sans-serif" font-size="13" lengthAdjust="spacing" textLength="64" x="452.5" y="358.0669">tarifpreise</text><text fill="#000000" font-family="sans-serif" font-size="13" lengthAdjust="spacing" textLength="23" x="588.9505" y="374.5517">0..*</text></g><!--link Regionaltarif to RegionalerAufAbschlag--><g id="link_Regionaltarif_RegionalerAufAbschlag"><path codeLine="28" d="M378.37,387.22 C464.44,398.97 551.2902,410.8172 621.9202,420.4572 " fill="none" id="Regionaltarif-to-RegionalerAufAbschlag" style="stroke:#181818;stroke-width:1.0;"/><polygon fill="#181818" points="633.81,422.08,628.406,417.3054,621.9202,420.4572,627.3242,425.2319,633.81,422.08" style="stroke:#181818;stroke-width:1.0;"/><text fill="#000000" font-family="sans-serif" font-size="13" lengthAdjust="spacing" textLength="120" x="424.5" y="388.0669">tarifAufAbschlaege</text><text fill="#000000" font-family="sans-serif" font-size="13" lengthAdjust="spacing" textLength="23" x="602.9382" y="433.7538">0..*</text></g><!--link Regionaltarif to RegionalePreisgarantie--><g id="link_Regionaltarif_RegionalePreisgarantie"><path codeLine="29" d="M349.26,306 C368.93,299.6 388.86,293.43 408,288 C483.16,266.66 557.9045,249.9501 622.0945,236.7901 " fill="none" id="Regionaltarif-to-RegionalePreisgarantie" style="stroke:#181818;stroke-width:1.0;"/><polygon fill="#181818" points="633.85,234.38,627.1689,231.6665,622.0945,236.7901,628.7756,239.5035,633.85,234.38" style="stroke:#181818;stroke-width:1.0;"/><text fill="#000000" font-family="sans-serif" font-size="13" lengthAdjust="spacing" textLength="92" x="438.5" y="247.0669">preisgarantien</text><text fill="#000000" font-family="sans-serif" font-size="13" lengthAdjust="spacing" textLength="23" x="602.9812" y="248.3524">0..*</text></g><!--link Regionaltarif to Tarifeinschraenkung--><g id="link_Regionaltarif_Tarifeinschraenkung"><path codeLine="30" d="M346.58,417.99 C367.11,424.77 387.98,431.31 408,437 C485.56,459.07 563.5316,476.0839 628.2916,488.9939 " fill="none" id="Regionaltarif-to-Tarifeinschraenkung" style="stroke:#181818;stroke-width:1.0;"/><polygon fill="#181818" points="640.06,491.34,634.9578,486.2442,628.2916,488.9939,633.3938,494.0898,640.06,491.34" style="stroke:#181818;stroke-width:1.0;"/><text fill="#000000" font-family="sans-serif" font-size="13" lengthAdjust="spacing" textLength="126" x="421.5" y="433.0669">tarifeinschraenkung</text><text fill="#000000" font-family="sans-serif" font-size="13" lengthAdjust="spacing" textLength="24" x="608.6105" y="502.7392">0..1</text></g><!--SRC=[jLLBZvim43ulls8KRgb27fjDKzIkn7RtsbPLJasZbO41h891jjbLqlQ_rv07c92agoG79ERXRppVZ6TY32J853WD8ma-vUX9cZB3y68Y17JcyqZAJDZzlfkEqGgfZ7BNecd_uUlugPSjPPIoVama2jad6LrxkQaLoIGsjmB7K66IM19E0-jxNG9DMYn-ie-2hj0U3kvRJtU02FqC_3Pkdb-G2wK26uJaC1zOrd01ds0q68q7Gsji3IqVNoRlmjl9oFqmzU-CcrKkY5mvKdBgvXBLoH-QfWJf5Y1VKeOg1FMRw6j3nf4A8GahxCuhuVYew90qmORdNyDW946H4G_F8nOsmc9Hqh6Hm7oOFBvtfWKXbwnUoJ9bGMhDjd-m-skjsEv4URsThsBWN0AyDAaneAGw1Ke4ysdWJ2UVp-LW6yVSITiknBBU8U64IOgxPiPlTJMqg_V9EeoiDReES-dKodAvg9v-n78MglfmLIQ9V5tmDWiSjBJdU314rI5jrgiLiRnFoNUM2bfClAgIipqR7B6TgEb-8Bsm-u1NovcJF22kyAAOX5MstCa3PwE5Lks93EkmUcvraAlqB5Acq3b1zakrpRfRTHsqw8vqgEvOzQQkly0SGvRN1raXrYTP8OFf3xtRkxF7-IwKMObocLcpPGRgssTZwx5EVvaLYwknj7kzF_VRjLDjXQQNSkj2fzY1dIgjCguDpoh0IV-YBeT7a0sj8-CGQBS6Ukojsr2zMNmRclQMDZYL2iCtmkahnGPjFx3_Pw_n93ONQ_Iq4L4V8S54aIeC4QMlq0WGK8nzyGy0]--></g></svg>