<?xml version="1.0" encoding="us-ascii" standalone="no"?><svg xmlns="http://www.w3.org/2000/svg" xmlns:xlink="http://www.w3.org/1999/xlink" contentStyleType="text/css" height="574px" preserveAspectRatio="none" style="width:897px;height:574px;background:#FFFFFF;" version="1.1" viewBox="0 0 897 574" width="897px" zoomAndPan="magnify"><defs/><g><!--cluster bo4e--><g id="cluster_bo4e"><path d="M587.5,6 L628.5,6 A3.75,3.75 0 0 1 631,8.5 L638,28.2969 L887.5,28.2969 A2.5,2.5 0 0 1 890,30.7969 L890,564.5 A2.5,2.5 0 0 1 887.5,567 L587.5,567 A2.5,2.5 0 0 1 585,564.5 L585,8.5 A2.5,2.5 0 0 1 587.5,6 " fill="none" style="stroke:#000000;stroke-width:1.5;"/><line style="stroke:#000000;stroke-width:1.5;" x1="585" x2="638" y1="28.2969" y2="28.2969"/><text fill="#000000" font-family="sans-serif" font-size="14" font-weight="bold" lengthAdjust="spacing" textLength="40" x="589" y="20.9951">bo4e</text></g><!--cluster bo--><g id="cluster_bo"><path d="M668,49 L734,49 A3.75,3.75 0 0 1 736.5,51.5 L743.5,71.2969 L807,71.2969 A2.5,2.5 0 0 1 809.5,73.7969 L809.5,135.5 A2.5,2.5 0 0 1 807,138 L668,138 A2.5,2.5 0 0 1 665.5,135.5 L665.5,51.5 A2.5,2.5 0 0 1 668,49 " fill="#B6D7A8" style="stroke:#000000;stroke-width:1.5;"/><line style="stroke:#000000;stroke-width:1.5;" x1="665.5" x2="743.5" y1="71.2969" y2="71.2969"/><a href="https://bo4e.github.io/BO4E-python/latest/api/bo4e.bo.html" target="_top" title="https://bo4e.github.io/BO4E-python/latest/api/bo4e.bo.html" xlink:actuate="onRequest" xlink:href="https://bo4e.github.io/BO4E-python/latest/api/bo4e.bo.html" xlink:show="new" xlink:title="https://bo4e.github.io/BO4E-python/latest/api/bo4e.bo.html" xlink:type="simple"><text fill="#0000FF" font-family="sans-serif" font-size="14" font-weight="bold" lengthAdjust="spacing" text-decoration="underline" textLength="65" x="669.5" y="63.9951">bo4e.bo</text></a></g><!--cluster com--><g id="cluster_com"><path d="M611.5,162 L690.5,162 A3.75,3.75 0 0 1 693,164.5 L700,184.2969 L863.5,184.2969 A2.5,2.5 0 0 1 866,186.7969 L866,540.5 A2.5,2.5 0 0 1 863.5,543 L611.5,543 A2.5,2.5 0 0 1 609,540.5 L609,164.5 A2.5,2.5 0 0 1 611.5,162 " fill="#E0A86C" style="stroke:#000000;stroke-width:1.5;"/><line style="stroke:#000000;stroke-width:1.5;" x1="609" x2="700" y1="184.2969" y2="184.2969"/><a href="https://bo4e.github.io/BO4E-python/latest/api/bo4e.com.html" target="_top" title="https://bo4e.github.io/BO4E-python/latest/api/bo4e.com.html" xlink:actuate="onRequest" xlink:href="https://bo4e.github.io/BO4E-python/latest/api/bo4e.com.html" xlink:show="new" xlink:title="https://bo4e.github.io/BO4E-python/latest/api/bo4e.com.html" xlink:type="simple"><text fill="#0000FF" font-family="sans-serif" font-size="14" font-weight="bold" lengthAdjust="spacing" text-decoration="underline" textLength="78" x="613" y="176.9951">bo4e.com</text></a></g><!--class Tarifinfo--><g id="elem_Tarifinfo"><rect codeLine="11" fill="#F1F1F1" height="37.9375" id="Tarifinfo" rx="2.5" ry="2.5" style="stroke:#181818;stroke-width:0.5;" width="112" x="681.5" y="84.03"/><ellipse cx="696.5" cy="102.9987" fill="#ADD1B2" rx="11" ry="11" style="stroke:#181818;stroke-width:1.0;"/><path d="M699.4688,108.6394 Q698.8906,108.9362 698.25,109.0769 Q697.6094,109.2331 696.9063,109.2331 Q694.4063,109.2331 693.0781,107.5925 Q691.7656,105.9362 691.7656,102.8112 Q691.7656,99.6862 693.0781,98.03 Q694.4063,96.3737 696.9063,96.3737 Q697.6094,96.3737 698.25,96.53 Q698.9063,96.6862 699.4688,96.9831 L699.4688,99.7019 Q698.8438,99.1237 698.25,98.8581 Q697.6563,98.5769 697.0313,98.5769 Q695.6875,98.5769 695,99.655 Q694.3125,100.7175 694.3125,102.8112 Q694.3125,104.905 695,105.9831 Q695.6875,107.0456 697.0313,107.0456 Q697.6563,107.0456 698.25,106.78 Q698.8438,106.4987 699.4688,105.9206 L699.4688,108.6394 Z " fill="#000000"/><a href="https://bo4e.github.io/BO4E-python/latest/api/bo4e.bo.html#bo4e.bo.tarifinfo.Tarifinfo" target="_top" title="https://bo4e.github.io/BO4E-python/latest/api/bo4e.bo.html#bo4e.bo.tarifinfo.Tarifinfo" xlink:actuate="onRequest" xlink:href="https://bo4e.github.io/BO4E-python/latest/api/bo4e.bo.html#bo4e.bo.tarifinfo.Tarifinfo" xlink:show="new" xlink:title="https://bo4e.github.io/BO4E-python/latest/api/bo4e.bo.html#bo4e.bo.tarifinfo.Tarifinfo" xlink:type="simple"><text fill="#0000FF" font-family="sans-serif" font-size="14" lengthAdjust="spacing" text-decoration="underline" textLength="54" x="723.5" y="102.0251">Tarifinfo</text></a><text fill="#000000" font-family="sans-serif" font-size="10" lengthAdjust="spacing" textLength="80" x="710.5" y="114.6091">bo4e.bo.tarifinfo</text></g><!--class Tarifberechnungsparameter--><g id="elem_Tarifberechnungsparameter"><rect codeLine="14" fill="#F1F1F1" height="37.9375" id="Tarifberechnungsparameter" rx="2.5" ry="2.5" style="stroke:#181818;stroke-width:0.5;" width="225" x="625" y="197.03"/><ellipse cx="640" cy="215.9987" fill="#ADD1B2" rx="11" ry="11" style="stroke:#181818;stroke-width:1.0;"/><path d="M642.9688,221.6394 Q642.3906,221.9362 641.75,222.0769 Q641.1094,222.2331 640.4063,222.2331 Q637.9063,222.2331 636.5781,220.5925 Q635.2656,218.9362 635.2656,215.8112 Q635.2656,212.6862 636.5781,211.03 Q637.9063,209.3737 640.4063,209.3737 Q641.1094,209.3737 641.75,209.53 Q642.4063,209.6862 642.9688,209.9831 L642.9688,212.7019 Q642.3438,212.1237 641.75,211.8581 Q641.1563,211.5769 640.5313,211.5769 Q639.1875,211.5769 638.5,212.655 Q637.8125,213.7175 637.8125,215.8112 Q637.8125,217.905 638.5,218.9831 Q639.1875,220.0456 640.5313,220.0456 Q641.1563,220.0456 641.75,219.78 Q642.3438,219.4987 642.9688,218.9206 L642.9688,221.6394 Z " fill="#000000"/><a href="https://bo4e.github.io/BO4E-python/latest/api/bo4e.com.html#bo4e.com.tarifberechnungsparameter.Tarifberechnungsparameter" target="_top" title="https://bo4e.github.io/BO4E-python/latest/api/bo4e.com.html#bo4e.com.tarifberechnungsparameter.Tarifberechnungsparameter" xlink:actuate="onRequest" xlink:href="https://bo4e.github.io/BO4E-python/latest/api/bo4e.com.html#bo4e.com.tarifberechnungsparameter.Tarifberechnungsparameter" xlink:show="new" xlink:title="https://bo4e.github.io/BO4E-python/latest/api/bo4e.com.html#bo4e.com.tarifberechnungsparameter.Tarifberechnungsparameter" xlink:type="simple"><text fill="#0000FF" font-family="sans-serif" font-size="14" lengthAdjust="spacing" text-decoration="underline" textLength="193" x="654" y="215.0251">Tarifberechnungsparameter</text></a><text fill="#000000" font-family="sans-serif" font-size="10" lengthAdjust="spacing" textLength="185" x="658" y="227.6091">bo4e.com.tarifberechnungsparameter</text></g><!--class RegionaleTarifpreisposition--><g id="elem_RegionaleTarifpreisposition"><rect codeLine="15" fill="#F1F1F1" height="37.9375" id="RegionaleTarifpreisposition" rx="2.5" ry="2.5" style="stroke:#181818;stroke-width:0.5;" width="219" x="628" y="270.03"/><ellipse cx="643" cy="288.9988" fill="#ADD1B2" rx="11" ry="11" style="stroke:#181818;stroke-width:1.0;"/><path d="M645.9688,294.6394 Q645.3906,294.9363 644.75,295.0769 Q644.1094,295.2331 643.4063,295.2331 Q640.9063,295.2331 639.5781,293.5925 Q638.2656,291.9363 638.2656,288.8113 Q638.2656,285.6863 639.5781,284.03 Q640.9063,282.3738 643.4063,282.3738 Q644.1094,282.3738 644.75,282.53 Q645.4063,282.6863 645.9688,282.9831 L645.9688,285.7019 Q645.3438,285.1238 644.75,284.8581 Q644.1563,284.5769 643.5313,284.5769 Q642.1875,284.5769 641.5,285.655 Q640.8125,286.7175 640.8125,288.8113 Q640.8125,290.905 641.5,291.9831 Q642.1875,293.0456 643.5313,293.0456 Q644.1563,293.0456 644.75,292.78 Q645.3438,292.4988 645.9688,291.9206 L645.9688,294.6394 Z " fill="#000000"/><a href="https://bo4e.github.io/BO4E-python/latest/api/bo4e.com.html#bo4e.com.regionaletarifpreisposition.RegionaleTarifpreisposition" target="_top" title="https://bo4e.github.io/BO4E-python/latest/api/bo4e.com.html#bo4e.com.regionaletarifpreisposition.RegionaleTarifpreisposition" xlink:actuate="onRequest" xlink:href="https://bo4e.github.io/BO4E-python/latest/api/bo4e.com.html#bo4e.com.regionaletarifpreisposition.RegionaleTarifpreisposition" xlink:show="new" xlink:title="https://bo4e.github.io/BO4E-python/latest/api/bo4e.com.html#bo4e.com.regionaletarifpreisposition.RegionaleTarifpreisposition" xlink:type="simple"><text fill="#0000FF" font-family="sans-serif" font-size="14" lengthAdjust="spacing" text-decoration="underline" textLength="187" x="657" y="288.0251">RegionaleTarifpreisposition</text></a><text fill="#000000" font-family="sans-serif" font-size="10" lengthAdjust="spacing" textLength="175" x="663" y="300.6091">bo4e.com.regionaletarifpreisposition</text></g><!--class RegionalerAufAbschlag--><g id="elem_RegionalerAufAbschlag"><rect codeLine="16" fill="#F1F1F1" height="37.9375" id="RegionalerAufAbschlag" rx="2.5" ry="2.5" style="stroke:#181818;stroke-width:0.5;" width="191" x="642" y="343.03"/><ellipse cx="657" cy="361.9988" fill="#ADD1B2" rx="11" ry="11" style="stroke:#181818;stroke-width:1.0;"/><path d="M659.9688,367.6394 Q659.3906,367.9363 658.75,368.0769 Q658.1094,368.2331 657.4063,368.2331 Q654.9063,368.2331 653.5781,366.5925 Q652.2656,364.9363 652.2656,361.8113 Q652.2656,358.6863 653.5781,357.03 Q654.9063,355.3738 657.4063,355.3738 Q658.1094,355.3738 658.75,355.53 Q659.4063,355.6863 659.9688,355.9831 L659.9688,358.7019 Q659.3438,358.1238 658.75,357.8581 Q658.1563,357.5769 657.5313,357.5769 Q656.1875,357.5769 655.5,358.655 Q654.8125,359.7175 654.8125,361.8113 Q654.8125,363.905 655.5,364.9831 Q656.1875,366.0456 657.5313,366.0456 Q658.1563,366.0456 658.75,365.78 Q659.3438,365.4988 659.9688,364.9206 L659.9688,367.6394 Z " fill="#000000"/><a href="https://bo4e.github.io/BO4E-python/latest/api/bo4e.com.html#bo4e.com.regionaleraufabschlag.RegionalerAufAbschlag" target="_top" title="https://bo4e.github.io/BO4E-python/latest/api/bo4e.com.html#bo4e.com.regionaleraufabschlag.RegionalerAufAbschlag" xlink:actuate="onRequest" xlink:href="https://bo4e.github.io/BO4E-python/latest/api/bo4e.com.html#bo4e.com.regionaleraufabschlag.RegionalerAufAbschlag" xlink:show="new" xlink:title="https://bo4e.github.io/BO4E-python/latest/api/bo4e.com.html#bo4e.com.regionaleraufabschlag.RegionalerAufAbschlag" xlink:type="simple"><text fill="#0000FF" font-family="sans-serif" font-size="14" lengthAdjust="spacing" text-decoration="underline" textLength="159" x="671" y="361.0251">RegionalerAufAbschlag</text></a><text fill="#000000" font-family="sans-serif" font-size="10" lengthAdjust="spacing" textLength="157" x="672" y="373.6091">bo4e.com.regionaleraufabschlag</text></g><!--class Tarifeinschraenkung--><g id="elem_Tarifeinschraenkung"><rect codeLine="17" fill="#F1F1F1" height="37.9375" id="Tarifeinschraenkung" rx="2.5" ry="2.5" style="stroke:#181818;stroke-width:0.5;" width="178" x="648.5" y="416.03"/><ellipse cx="663.5" cy="434.9988" fill="#ADD1B2" rx="11" ry="11" style="stroke:#181818;stroke-width:1.0;"/><path d="M666.4688,440.6394 Q665.8906,440.9363 665.25,441.0769 Q664.6094,441.2331 663.9063,441.2331 Q661.4063,441.2331 660.0781,439.5925 Q658.7656,437.9363 658.7656,434.8113 Q658.7656,431.6863 660.0781,430.03 Q661.4063,428.3738 663.9063,428.3738 Q664.6094,428.3738 665.25,428.53 Q665.9063,428.6863 666.4688,428.9831 L666.4688,431.7019 Q665.8438,431.1238 665.25,430.8581 Q664.6563,430.5769 664.0313,430.5769 Q662.6875,430.5769 662,431.655 Q661.3125,432.7175 661.3125,434.8113 Q661.3125,436.905 662,437.9831 Q662.6875,439.0456 664.0313,439.0456 Q664.6563,439.0456 665.25,438.78 Q665.8438,438.4988 666.4688,437.9206 L666.4688,440.6394 Z " fill="#000000"/><a href="https://bo4e.github.io/BO4E-python/latest/api/bo4e.com.html#bo4e.com.tarifeinschraenkung.Tarifeinschraenkung" target="_top" title="https://bo4e.github.io/BO4E-python/latest/api/bo4e.com.html#bo4e.com.tarifeinschraenkung.Tarifeinschraenkung" xlink:actuate="onRequest" xlink:href="https://bo4e.github.io/BO4E-python/latest/api/bo4e.com.html#bo4e.com.tarifeinschraenkung.Tarifeinschraenkung" xlink:show="new" xlink:title="https://bo4e.github.io/BO4E-python/latest/api/bo4e.com.html#bo4e.com.tarifeinschraenkung.Tarifeinschraenkung" xlink:type="simple"><text fill="#0000FF" font-family="sans-serif" font-size="14" lengthAdjust="spacing" text-decoration="underline" textLength="141" x="680" y="434.0251">Tarifeinschraenkung</text></a><text fill="#000000" font-family="sans-serif" font-size="10" lengthAdjust="spacing" textLength="146" x="677.5" y="446.6091">bo4e.com.tarifeinschraenkung</text></g><!--class RegionalePreisgarantie--><g id="elem_RegionalePreisgarantie"><rect codeLine="18" fill="#F1F1F1" height="37.9375" id="RegionalePreisgarantie" rx="2.5" ry="2.5" style="stroke:#181818;stroke-width:0.5;" width="191" x="642" y="489.03"/><ellipse cx="657" cy="507.9988" fill="#ADD1B2" rx="11" ry="11" style="stroke:#181818;stroke-width:1.0;"/><path d="M659.9688,513.6394 Q659.3906,513.9363 658.75,514.0769 Q658.1094,514.2331 657.4063,514.2331 Q654.9063,514.2331 653.5781,512.5925 Q652.2656,510.9363 652.2656,507.8113 Q652.2656,504.6863 653.5781,503.03 Q654.9063,501.3738 657.4063,501.3738 Q658.1094,501.3738 658.75,501.53 Q659.4063,501.6863 659.9688,501.9831 L659.9688,504.7019 Q659.3438,504.1238 658.75,503.8581 Q658.1563,503.5769 657.5313,503.5769 Q656.1875,503.5769 655.5,504.655 Q654.8125,505.7175 654.8125,507.8113 Q654.8125,509.905 655.5,510.9831 Q656.1875,512.0456 657.5313,512.0456 Q658.1563,512.0456 658.75,511.78 Q659.3438,511.4988 659.9688,510.9206 L659.9688,513.6394 Z " fill="#000000"/><a href="https://bo4e.github.io/BO4E-python/latest/api/bo4e.com.html#bo4e.com.regionalepreisgarantie.RegionalePreisgarantie" target="_top" title="https://bo4e.github.io/BO4E-python/latest/api/bo4e.com.html#bo4e.com.regionalepreisgarantie.RegionalePreisgarantie" xlink:actuate="onRequest" xlink:href="https://bo4e.github.io/BO4E-python/latest/api/bo4e.com.html#bo4e.com.regionalepreisgarantie.RegionalePreisgarantie" xlink:show="new" xlink:title="https://bo4e.github.io/BO4E-python/latest/api/bo4e.com.html#bo4e.com.regionalepreisgarantie.RegionalePreisgarantie" xlink:type="simple"><text fill="#0000FF" font-family="sans-serif" font-size="14" lengthAdjust="spacing" text-decoration="underline" textLength="159" x="671" y="507.0251">RegionalePreisgarantie</text></a><text fill="#000000" font-family="sans-serif" font-size="10" lengthAdjust="spacing" textLength="158" x="671.5" y="519.6091">bo4e.com.regionalepreisgarantie</text></g><!--class Regionaltarif--><g id="elem_Regionaltarif"><rect codeLine="3" fill="#F1F1F1" height="111.125" id="Regionaltarif" rx="2.5" ry="2.5" style="stroke:#181818;stroke-width:0.5;" width="379" x="7" y="274.44"/><ellipse cx="142.25" cy="293.4088" fill="#ADD1B2" rx="11" ry="11" style="stroke:#181818;stroke-width:1.0;"/><path d="M145.2188,299.0494 Q144.6406,299.3463 144,299.4869 Q143.3594,299.6431 142.6563,299.6431 Q140.1563,299.6431 138.8281,298.0025 Q137.5156,296.3463 137.5156,293.2213 Q137.5156,290.0963 138.8281,288.44 Q140.1563,286.7838 142.6563,286.7838 Q143.3594,286.7838 144,286.94 Q144.6563,287.0963 145.2188,287.3931 L145.2188,290.1119 Q144.5938,289.5338 144,289.2681 Q143.4063,288.9869 142.7813,288.9869 Q141.4375,288.9869 140.75,290.065 Q140.0625,291.1275 140.0625,293.2213 Q140.0625,295.315 140.75,296.3931 Q141.4375,297.4556 142.7813,297.4556 Q143.4063,297.4556 144,297.19 Q144.5938,296.9088 145.2188,296.3306 L145.2188,299.0494 Z " fill="#000000"/><a href="https://bo4e.github.io/BO4E-python/latest/api/bo4e.bo.html#bo4e.bo.regionaltarif.Regionaltarif" target="_top" title="https://bo4e.github.io/BO4E-python/latest/api/bo4e.bo.html#bo4e.bo.regionaltarif.Regionaltarif" xlink:actuate="onRequest" xlink:href="https://bo4e.github.io/BO4E-python/latest/api/bo4e.bo.html#bo4e.bo.regionaltarif.Regionaltarif" xlink:show="new" xlink:title="https://bo4e.github.io/BO4E-python/latest/api/bo4e.bo.html#bo4e.bo.regionaltarif.Regionaltarif" xlink:type="simple"><text fill="#0000FF" font-family="sans-serif" font-size="14" lengthAdjust="spacing" text-decoration="underline" textLength="85" x="170.25" y="292.4351">Regionaltarif</text></a><text fill="#000000" font-family="sans-serif" font-size="10" lengthAdjust="spacing" textLength="100" x="162.75" y="305.0191">bo4e.bo.regionaltarif</text><line style="stroke:#181818;stroke-width:0.5;" x1="8" x2="385" y1="312.3775" y2="312.3775"/><text fill="#000000" font-family="sans-serif" font-size="14" lengthAdjust="spacing" textLength="367" x="13" y="329.3726">_version : str [0..1] = 202401.6.1.dev10+gd9a39942</text><text fill="#000000" font-family="sans-serif" font-size="14" lengthAdjust="spacing" textLength="311" x="13" y="345.6695">zusatzAttribute : ZusatzAttribut [0..*] = None</text><text fill="#000000" font-family="sans-serif" font-size="14" lengthAdjust="spacing" textLength="147" x="13" y="361.9664">_id : str [0..1] = None</text><text fill="#000000" font-family="sans-serif" font-size="14" lengthAdjust="spacing" textLength="288" x="13" y="378.2632">preisstand : AwareDatetime [0..1] = None</text></g><!--link Regionaltarif to Tarifinfo--><g id="link_Regionaltarif_Tarifinfo"><path codeLine="21" d="M306.57,274.01 C341.22,256.91 379.92,238.54 416,223 C507.53,183.56 599.7282,150.191 664.1282,127.801 " fill="none" id="Regionaltarif-to-Tarifinfo" style="stroke:#181818;stroke-width:1.0;"/><polygon fill="none" points="681.13,121.89,662.1579,122.1338,666.0986,133.4683,681.13,121.89" style="stroke:#181818;stroke-width:1.0;"/></g><!--link Regionaltarif to Tarifberechnungsparameter--><g id="link_Regionaltarif_Tarifberechnungsparameter"><path codeLine="22" d="M386.29,284.54 C396.33,282.29 406.28,280.1 416,278 C487.05,262.68 555.5549,249.3579 618.0049,237.6679 " fill="none" id="Regionaltarif-to-Tarifberechnungsparameter" style="stroke:#181818;stroke-width:1.0;"/><polygon fill="#181818" points="629.8,235.46,623.1665,232.6323,618.0049,237.6679,624.6384,240.4957,629.8,235.46" style="stroke:#181818;stroke-width:1.0;"/><text fill="#000000" font-family="sans-serif" font-size="13" lengthAdjust="spacing" textLength="151" x="417" y="244.0669">berechnungsparameter</text><text fill="#000000" font-family="sans-serif" font-size="13" lengthAdjust="spacing" textLength="24" x="592.7078" y="250.483">0..1</text></g><!--link Regionaltarif to RegionaleTarifpreisposition--><g id="link_Regionaltarif_RegionaleTarifpreisposition"><path codeLine="23" d="M386.39,315.63 C467.11,309.49 546.4946,303.4503 615.6346,298.1903 " fill="none" id="Regionaltarif-to-RegionaleTarifpreisposition" style="stroke:#181818;stroke-width:1.0;"/><polygon fill="#181818" points="627.6,297.28,621.3139,293.7467,615.6346,298.1903,621.9207,301.7236,627.6,297.28" style="stroke:#181818;stroke-width:1.0;"/><text fill="#000000" font-family="sans-serif" font-size="13" lengthAdjust="spacing" textLength="64" x="460.5" y="299.0669">tarifpreise</text><text fill="#000000" font-family="sans-serif" font-size="13" lengthAdjust="spacing" textLength="23" x="596.8228" y="310.3621">0..*</text></g><!--link Regionaltarif to RegionalerAufAbschlag--><g id="link_Regionaltarif_RegionalerAufAbschlag"><path codeLine="24" d="M386.32,350.79 C396.36,351.61 406.29,352.35 416,353 C491.81,358.05 565.9014,360.0858 629.7514,361.0658 " fill="none" id="Regionaltarif-to-RegionalerAufAbschlag" style="stroke:#181818;stroke-width:1.0;"/><polygon fill="#181818" points="641.75,361.25,635.8121,357.1584,629.7514,361.0658,635.6893,365.1574,641.75,361.25" style="stroke:#181818;stroke-width:1.0;"/><text fill="#000000" font-family="sans-serif" font-size="13" lengthAdjust="spacing" textLength="120" x="432.5" y="349.0669">tarifAufAbschlaege</text><text fill="#000000" font-family="sans-serif" font-size="13" lengthAdjust="spacing" textLength="23" x="610.8738" y="373.8176">0..*</text></g><!--link Regionaltarif to RegionalePreisgarantie--><g id="link_Regionaltarif_RegionalePreisgarantie"><path codeLine="25" d="M299.26,386.06 C335.33,404.25 376.73,423.26 416,437 C489.96,462.89 565.1198,479.3243 629.7898,490.9643 " fill="none" id="Regionaltarif-to-RegionalePreisgarantie" style="stroke:#181818;stroke-width:1.0;"/><polygon fill="#181818" points="641.6,493.09,636.4035,488.0904,629.7898,490.9643,634.9863,495.9639,641.6,493.09" style="stroke:#181818;stroke-width:1.0;"/><text fill="#000000" font-family="sans-serif" font-size="13" lengthAdjust="spacing" textLength="92" x="446.5" y="433.0669">preisgarantien</text><text fill="#000000" font-family="sans-serif" font-size="13" lengthAdjust="spacing" textLength="23" x="611.0484" y="504.6406">0..*</text></g><!--link Regionaltarif to Tarifeinschraenkung--><g id="link_Regionaltarif_Tarifeinschraenkung"><path codeLine="26" d="M386.45,378.7 C396.43,380.92 406.32,383.03 416,385 C493.95,400.86 571.5646,412.7855 636.1446,421.7755 " fill="none" id="Regionaltarif-to-Tarifeinschraenkung" style="stroke:#181818;stroke-width:1.0;"/><polygon fill="#181818" points="648.03,423.43,642.6388,418.6409,636.1446,421.7755,641.5358,426.5645,648.03,423.43" style="stroke:#181818;stroke-width:1.0;"/><text fill="#000000" font-family="sans-serif" font-size="13" lengthAdjust="spacing" textLength="126" x="429.5" y="381.0669">tarifeinschraenkung</text><text fill="#000000" font-family="sans-serif" font-size="13" lengthAdjust="spacing" textLength="24" x="616.5783" y="435.203">0..1</text></g><!--SRC=[jLLDRvj043s7Np6oRwwCiMkvCMeZaIRNjgfogcjLYnbWLTX5kqkYkkr_xuBDnn926Zc-CH_xTkVDco71K87Y86WKAmYem9sYd5dMBY5ImcYpYPNAf3kR-No9TaHLdFisvRFhpylRQVPBnPpD4g9GgXd9w27BvtQiqcHS6G8ZZKaIHGGDxQzj2mnhk_tEtakwHtVkNFMU7W6HvXduRLtyk4SXjGjSa4h0nh7j-HO-mC9PB9svlRBdTe3tS-TD5Ap9s_LwkR0kzhaaQkyf9QYVAzH7lncU4cLIe7pY3FKTDEZ27mAPG2gb8go8Umz4u8tcGz4KEvb_BOkH56L6TdWQit0qjjkIZwC5u-lLpJllic3aDTjNqanPoEsxwWlghzwMrIVAvzMvce5J2TZnjCM0jjeKQ1F6juvtkVfuAWVLFUFQAcloKGz8p78MwIA4haMXEB3I5u4d8uzP6xoYeR4l-jgLLWE7vNjAUMTSqc8lrCEBTuzYC13hhtVW8cFEUm3FLhCWUKXykOiJ4ZNL2YyFlQCNUhtFLDY6DMjhWvn5iqYPHXS4sKyjcuDQJH_q-0OKQYOssZJzP-jGgOD8YvyfYasBlhJTqEz-faa6ijab0wROv9tVs7JwvwhQmysQx6Rfj0cCYf_2gDvO0-l3XTvnVmfqqW8TcbCNcdd3bw4PSt34QLmOlH3Ex9aBHWFO_xFNaVFnOHqzMZ4D459CDQdIaZ5_WCu58SKaaFy0]--></g></svg>