<svg xmlns="http://www.w3.org/2000/svg" xmlns:xlink="http://www.w3.org/1999/xlink" contentStyleType="text/css" data-diagram-type="CLASS" height="574px" preserveAspectRatio="none" style="width:868px;height:574px;background:#FFFFFF;" version="1.1" viewBox="0 0 868 574" width="868px" zoomAndPan="magnify"><defs/><g><!--cluster bo4e--><g class="cluster" data-entity="bo4e" data-source-line="11" data-uid="ent0005" id="cluster_bo4e"><path d="M554.71,6 L594.586,6 A3.75,3.75 0 0 1 597.086,8.5 L604.086,28.2969 L858.56,28.2969 A2.5,2.5 0 0 1 861.06,30.7969 L861.06,564.5 A2.5,2.5 0 0 1 858.56,567 L554.71,567 A2.5,2.5 0 0 1 552.21,564.5 L552.21,8.5 A2.5,2.5 0 0 1 554.71,6" fill="none" style="stroke:#000000;stroke-width:1.5;"/><line style="stroke:#000000;stroke-width:1.5;" x1="552.21" x2="604.086" y1="28.2969" y2="28.2969"/><text fill="#000000" font-family="sans-serif" font-size="14" font-weight="bold" lengthAdjust="spacing" textLength="38.876" x="556.21" y="20.9951">bo4e</text></g><!--cluster bo--><g class="cluster" data-entity="bo" data-source-line="10" data-uid="ent0003" id="cluster_bo"><path d="M635.62,49 L700.454,49 A3.75,3.75 0 0 1 702.954,51.5 L709.954,71.2969 L777.64,71.2969 A2.5,2.5 0 0 1 780.14,73.7969 L780.14,135.5 A2.5,2.5 0 0 1 777.64,138 L635.62,138 A2.5,2.5 0 0 1 633.12,135.5 L633.12,51.5 A2.5,2.5 0 0 1 635.62,49" fill="#B6D7A8" style="stroke:#000000;stroke-width:1.5;"/><line style="stroke:#000000;stroke-width:1.5;" x1="633.12" x2="709.954" y1="71.2969" y2="71.2969"/><a href="file:////home/runner/work/BO4E-python/BO4E-python/docs/../.tox/docs/tmp/html/api/bo4e.bo.html" target="_top" title="file:////home/runner/work/BO4E-python/BO4E-python/docs/../.tox/docs/tmp/html/api/bo4e.bo.html" xlink:actuate="onRequest" xlink:href="file:////home/runner/work/BO4E-python/BO4E-python/docs/../.tox/docs/tmp/html/api/bo4e.bo.html" xlink:show="new" xlink:title="file:////home/runner/work/BO4E-python/BO4E-python/docs/../.tox/docs/tmp/html/api/bo4e.bo.html" xlink:type="simple"><text fill="#0000FF" font-family="sans-serif" font-size="14" font-weight="bold" lengthAdjust="spacing" text-decoration="underline" textLength="63.834" x="637.12" y="63.9951">bo4e.bo</text></a></g><!--cluster com--><g class="cluster" data-entity="com" data-source-line="13" data-uid="ent0006" id="cluster_com"><path d="M578.71,162 L656.4092,162 A3.75,3.75 0 0 1 658.9092,164.5 L665.9092,184.2969 L834.56,184.2969 A2.5,2.5 0 0 1 837.06,186.7969 L837.06,540.5 A2.5,2.5 0 0 1 834.56,543 L578.71,543 A2.5,2.5 0 0 1 576.21,540.5 L576.21,164.5 A2.5,2.5 0 0 1 578.71,162" fill="#E0A86C" style="stroke:#000000;stroke-width:1.5;"/><line style="stroke:#000000;stroke-width:1.5;" x1="576.21" x2="665.9092" y1="184.2969" y2="184.2969"/><a href="file:////home/runner/work/BO4E-python/BO4E-python/docs/../.tox/docs/tmp/html/api/bo4e.com.html" target="_top" title="file:////home/runner/work/BO4E-python/BO4E-python/docs/../.tox/docs/tmp/html/api/bo4e.com.html" xlink:actuate="onRequest" xlink:href="file:////home/runner/work/BO4E-python/BO4E-python/docs/../.tox/docs/tmp/html/api/bo4e.com.html" xlink:show="new" xlink:title="file:////home/runner/work/BO4E-python/BO4E-python/docs/../.tox/docs/tmp/html/api/bo4e.com.html" xlink:type="simple"><text fill="#0000FF" font-family="sans-serif" font-size="14" font-weight="bold" lengthAdjust="spacing" text-decoration="underline" textLength="76.6992" x="580.21" y="176.9951">bo4e.com</text></a></g><!--class Tarifinfo--><g class="entity" data-entity="Tarifinfo" data-source-line="11" data-uid="ent0004" id="entity_Tarifinfo"><rect fill="#F1F1F1" height="37.9375" rx="2.5" ry="2.5" style="stroke:#181818;stroke-width:0.5;" width="115.0176" x="649.12" y="84.03"/><ellipse cx="664.12" cy="102.9987" fill="#ADD1B2" rx="11" ry="11" style="stroke:#181818;stroke-width:1;"/><path d="M667.0888,108.6394 Q666.5106,108.9362 665.87,109.0769 Q665.2294,109.2331 664.5263,109.2331 Q662.0263,109.2331 660.6981,107.5925 Q659.3856,105.9362 659.3856,102.8112 Q659.3856,99.6862 660.6981,98.03 Q662.0263,96.3737 664.5263,96.3737 Q665.2294,96.3737 665.87,96.53 Q666.5263,96.6862 667.0888,96.9831 L667.0888,99.7019 Q666.4638,99.1237 665.87,98.8581 Q665.2763,98.5769 664.6513,98.5769 Q663.3075,98.5769 662.62,99.655 Q661.9325,100.7175 661.9325,102.8112 Q661.9325,104.905 662.62,105.9831 Q663.3075,107.0456 664.6513,107.0456 Q665.2763,107.0456 665.87,106.78 Q666.4638,106.4987 667.0888,105.9206 L667.0888,108.6394 Z " fill="#000000"/><a href="file:////home/runner/work/BO4E-python/BO4E-python/docs/../.tox/docs/tmp/html/api/bo4e.bo.html#bo4e.bo.tarifinfo.Tarifinfo" target="_top" title="file:////home/runner/work/BO4E-python/BO4E-python/docs/../.tox/docs/tmp/html/api/bo4e.bo.html#bo4e.bo.tarifinfo.Tarifinfo" xlink:actuate="onRequest" xlink:href="file:////home/runner/work/BO4E-python/BO4E-python/docs/../.tox/docs/tmp/html/api/bo4e.bo.html#bo4e.bo.tarifinfo.Tarifinfo" xlink:show="new" xlink:title="file:////home/runner/work/BO4E-python/BO4E-python/docs/../.tox/docs/tmp/html/api/bo4e.bo.html#bo4e.bo.tarifinfo.Tarifinfo" xlink:type="simple"><text fill="#0000FF" font-family="sans-serif" font-size="14" lengthAdjust="spacing" text-decoration="underline" textLength="57.9619" x="690.6478" y="102.0251">Tarifinfo</text></a><text fill="#000000" font-family="sans-serif" font-size="10" lengthAdjust="spacing" textLength="83.0176" x="678.12" y="114.6091">bo4e.bo.tarifinfo</text></g><!--class Tarifeinschraenkung--><g class="entity" data-entity="Tarifeinschraenkung" data-source-line="14" data-uid="ent0007" id="entity_Tarifeinschraenkung"><rect fill="#F1F1F1" height="37.9375" rx="2.5" ry="2.5" style="stroke:#181818;stroke-width:0.5;" width="185.0127" x="614.13" y="197.03"/><ellipse cx="629.13" cy="215.9987" fill="#ADD1B2" rx="11" ry="11" style="stroke:#181818;stroke-width:1;"/><path d="M632.0988,221.6394 Q631.5206,221.9362 630.88,222.0769 Q630.2394,222.2331 629.5363,222.2331 Q627.0363,222.2331 625.7081,220.5925 Q624.3956,218.9362 624.3956,215.8112 Q624.3956,212.6862 625.7081,211.03 Q627.0363,209.3737 629.5363,209.3737 Q630.2394,209.3737 630.88,209.53 Q631.5363,209.6862 632.0988,209.9831 L632.0988,212.7019 Q631.4738,212.1237 630.88,211.8581 Q630.2863,211.5769 629.6613,211.5769 Q628.3175,211.5769 627.63,212.655 Q626.9425,213.7175 626.9425,215.8112 Q626.9425,217.905 627.63,218.9831 Q628.3175,220.0456 629.6613,220.0456 Q630.2863,220.0456 630.88,219.78 Q631.4738,219.4987 632.0988,218.9206 L632.0988,221.6394 Z " fill="#000000"/><a href="file:////home/runner/work/BO4E-python/BO4E-python/docs/../.tox/docs/tmp/html/api/bo4e.com.html#bo4e.com.tarifeinschraenkung.Tarifeinschraenkung" target="_top" title="file:////home/runner/work/BO4E-python/BO4E-python/docs/../.tox/docs/tmp/html/api/bo4e.com.html#bo4e.com.tarifeinschraenkung.Tarifeinschraenkung" xlink:actuate="onRequest" xlink:href="file:////home/runner/work/BO4E-python/BO4E-python/docs/../.tox/docs/tmp/html/api/bo4e.com.html#bo4e.com.tarifeinschraenkung.Tarifeinschraenkung" xlink:show="new" xlink:title="file:////home/runner/work/BO4E-python/BO4E-python/docs/../.tox/docs/tmp/html/api/bo4e.com.html#bo4e.com.tarifeinschraenkung.Tarifeinschraenkung" xlink:type="simple"><text fill="#0000FF" font-family="sans-serif" font-size="14" lengthAdjust="spacing" text-decoration="underline" textLength="143.5068" x="647.8829" y="215.0251">Tarifeinschraenkung</text></a><text fill="#000000" font-family="sans-serif" font-size="10" lengthAdjust="spacing" textLength="153.0127" x="643.13" y="227.6091">bo4e.com.tarifeinschraenkung</text></g><!--class RegionalerAufAbschlag--><g class="entity" data-entity="RegionalerAufAbschlag" data-source-line="15" data-uid="ent0008" id="entity_RegionalerAufAbschlag"><rect fill="#F1F1F1" height="37.9375" rx="2.5" ry="2.5" style="stroke:#181818;stroke-width:0.5;" width="196.4727" x="608.4" y="270.03"/><ellipse cx="623.4" cy="288.9988" fill="#ADD1B2" rx="11" ry="11" style="stroke:#181818;stroke-width:1;"/><path d="M626.3688,294.6394 Q625.7906,294.9363 625.15,295.0769 Q624.5094,295.2331 623.8063,295.2331 Q621.3063,295.2331 619.9781,293.5925 Q618.6656,291.9363 618.6656,288.8113 Q618.6656,285.6863 619.9781,284.03 Q621.3063,282.3738 623.8063,282.3738 Q624.5094,282.3738 625.15,282.53 Q625.8063,282.6863 626.3688,282.9831 L626.3688,285.7019 Q625.7438,285.1238 625.15,284.8581 Q624.5563,284.5769 623.9313,284.5769 Q622.5875,284.5769 621.9,285.655 Q621.2125,286.7175 621.2125,288.8113 Q621.2125,290.905 621.9,291.9831 Q622.5875,293.0456 623.9313,293.0456 Q624.5563,293.0456 625.15,292.78 Q625.7438,292.4988 626.3688,291.9206 L626.3688,294.6394 Z " fill="#000000"/><a href="file:////home/runner/work/BO4E-python/BO4E-python/docs/../.tox/docs/tmp/html/api/bo4e.com.html#bo4e.com.regionaleraufabschlag.RegionalerAufAbschlag" target="_top" title="file:////home/runner/work/BO4E-python/BO4E-python/docs/../.tox/docs/tmp/html/api/bo4e.com.html#bo4e.com.regionaleraufabschlag.RegionalerAufAbschlag" xlink:actuate="onRequest" xlink:href="file:////home/runner/work/BO4E-python/BO4E-python/docs/../.tox/docs/tmp/html/api/bo4e.com.html#bo4e.com.regionaleraufabschlag.RegionalerAufAbschlag" xlink:show="new" xlink:title="file:////home/runner/work/BO4E-python/BO4E-python/docs/../.tox/docs/tmp/html/api/bo4e.com.html#bo4e.com.regionaleraufabschlag.RegionalerAufAbschlag" xlink:type="simple"><text fill="#0000FF" font-family="sans-serif" font-size="14" lengthAdjust="spacing" text-decoration="underline" textLength="162.4561" x="638.4083" y="288.0251">RegionalerAufAbschlag</text></a><text fill="#000000" font-family="sans-serif" font-size="10" lengthAdjust="spacing" textLength="164.4727" x="637.4" y="300.6091">bo4e.com.regionaleraufabschlag</text></g><!--class RegionaleTarifpreisposition--><g class="entity" data-entity="RegionaleTarifpreisposition" data-source-line="16" data-uid="ent0009" id="entity_RegionaleTarifpreisposition"><rect fill="#F1F1F1" height="37.9375" rx="2.5" ry="2.5" style="stroke:#181818;stroke-width:0.5;" width="223.2354" x="595.02" y="343.03"/><ellipse cx="610.02" cy="361.9988" fill="#ADD1B2" rx="11" ry="11" style="stroke:#181818;stroke-width:1;"/><path d="M612.9888,367.6394 Q612.4106,367.9363 611.77,368.0769 Q611.1294,368.2331 610.4263,368.2331 Q607.9263,368.2331 606.5981,366.5925 Q605.2856,364.9363 605.2856,361.8113 Q605.2856,358.6863 606.5981,357.03 Q607.9263,355.3738 610.4263,355.3738 Q611.1294,355.3738 611.77,355.53 Q612.4263,355.6863 612.9888,355.9831 L612.9888,358.7019 Q612.3638,358.1238 611.77,357.8581 Q611.1763,357.5769 610.5513,357.5769 Q609.2075,357.5769 608.52,358.655 Q607.8325,359.7175 607.8325,361.8113 Q607.8325,363.905 608.52,364.9831 Q609.2075,366.0456 610.5513,366.0456 Q611.1763,366.0456 611.77,365.78 Q612.3638,365.4988 612.9888,364.9206 L612.9888,367.6394 Z " fill="#000000"/><a href="file:////home/runner/work/BO4E-python/BO4E-python/docs/../.tox/docs/tmp/html/api/bo4e.com.html#bo4e.com.regionaletarifpreisposition.RegionaleTarifpreisposition" target="_top" title="file:////home/runner/work/BO4E-python/BO4E-python/docs/../.tox/docs/tmp/html/api/bo4e.com.html#bo4e.com.regionaletarifpreisposition.RegionaleTarifpreisposition" xlink:actuate="onRequest" xlink:href="file:////home/runner/work/BO4E-python/BO4E-python/docs/../.tox/docs/tmp/html/api/bo4e.com.html#bo4e.com.regionaletarifpreisposition.RegionaleTarifpreisposition" xlink:show="new" xlink:title="file:////home/runner/work/BO4E-python/BO4E-python/docs/../.tox/docs/tmp/html/api/bo4e.com.html#bo4e.com.regionaletarifpreisposition.RegionaleTarifpreisposition" xlink:type="simple"><text fill="#0000FF" font-family="sans-serif" font-size="14" lengthAdjust="spacing" text-decoration="underline" textLength="191.2354" x="624.02" y="361.0251">RegionaleTarifpreisposition</text></a><text fill="#000000" font-family="sans-serif" font-size="10" lengthAdjust="spacing" textLength="184.2676" x="627.5039" y="373.6091">bo4e.com.regionaletarifpreisposition</text></g><!--class RegionalePreisgarantie--><g class="entity" data-entity="RegionalePreisgarantie" data-source-line="17" data-uid="ent0010" id="entity_RegionalePreisgarantie"><rect fill="#F1F1F1" height="37.9375" rx="2.5" ry="2.5" style="stroke:#181818;stroke-width:0.5;" width="198.1035" x="607.58" y="416.03"/><ellipse cx="622.58" cy="434.9988" fill="#ADD1B2" rx="11" ry="11" style="stroke:#181818;stroke-width:1;"/><path d="M625.5488,440.6394 Q624.9706,440.9363 624.33,441.0769 Q623.6894,441.2331 622.9863,441.2331 Q620.4863,441.2331 619.1581,439.5925 Q617.8456,437.9363 617.8456,434.8113 Q617.8456,431.6863 619.1581,430.03 Q620.4863,428.3738 622.9863,428.3738 Q623.6894,428.3738 624.33,428.53 Q624.9863,428.6863 625.5488,428.9831 L625.5488,431.7019 Q624.9238,431.1238 624.33,430.8581 Q623.7363,430.5769 623.1113,430.5769 Q621.7675,430.5769 621.08,431.655 Q620.3925,432.7175 620.3925,434.8113 Q620.3925,436.905 621.08,437.9831 Q621.7675,439.0456 623.1113,439.0456 Q623.7363,439.0456 624.33,438.78 Q624.9238,438.4988 625.5488,437.9206 L625.5488,440.6394 Z " fill="#000000"/><a href="file:////home/runner/work/BO4E-python/BO4E-python/docs/../.tox/docs/tmp/html/api/bo4e.com.html#bo4e.com.regionalepreisgarantie.RegionalePreisgarantie" target="_top" title="file:////home/runner/work/BO4E-python/BO4E-python/docs/../.tox/docs/tmp/html/api/bo4e.com.html#bo4e.com.regionalepreisgarantie.RegionalePreisgarantie" xlink:actuate="onRequest" xlink:href="file:////home/runner/work/BO4E-python/BO4E-python/docs/../.tox/docs/tmp/html/api/bo4e.com.html#bo4e.com.regionalepreisgarantie.RegionalePreisgarantie" xlink:show="new" xlink:title="file:////home/runner/work/BO4E-python/BO4E-python/docs/../.tox/docs/tmp/html/api/bo4e.com.html#bo4e.com.regionalepreisgarantie.RegionalePreisgarantie" xlink:type="simple"><text fill="#0000FF" font-family="sans-serif" font-size="14" lengthAdjust="spacing" text-decoration="underline" textLength="162.2988" x="638.4823" y="434.0251">RegionalePreisgarantie</text></a><text fill="#000000" font-family="sans-serif" font-size="10" lengthAdjust="spacing" textLength="166.1035" x="636.58" y="446.6091">bo4e.com.regionalepreisgarantie</text></g><!--class Tarifberechnungsparameter--><g class="entity" data-entity="Tarifberechnungsparameter" data-source-line="18" data-uid="ent0011" id="entity_Tarifberechnungsparameter"><rect fill="#F1F1F1" height="37.9375" rx="2.5" ry="2.5" style="stroke:#181818;stroke-width:0.5;" width="228.8545" x="592.21" y="489.03"/><ellipse cx="607.21" cy="507.9988" fill="#ADD1B2" rx="11" ry="11" style="stroke:#181818;stroke-width:1;"/><path d="M610.1788,513.6394 Q609.6006,513.9363 608.96,514.0769 Q608.3194,514.2331 607.6163,514.2331 Q605.1163,514.2331 603.7881,512.5925 Q602.4756,510.9363 602.4756,507.8113 Q602.4756,504.6863 603.7881,503.03 Q605.1163,501.3738 607.6163,501.3738 Q608.3194,501.3738 608.96,501.53 Q609.6163,501.6863 610.1788,501.9831 L610.1788,504.7019 Q609.5538,504.1238 608.96,503.8581 Q608.3663,503.5769 607.7413,503.5769 Q606.3975,503.5769 605.71,504.655 Q605.0225,505.7175 605.0225,507.8113 Q605.0225,509.905 605.71,510.9831 Q606.3975,512.0456 607.7413,512.0456 Q608.3663,512.0456 608.96,511.78 Q609.5538,511.4988 610.1788,510.9206 L610.1788,513.6394 Z " fill="#000000"/><a href="file:////home/runner/work/BO4E-python/BO4E-python/docs/../.tox/docs/tmp/html/api/bo4e.com.html#bo4e.com.tarifberechnungsparameter.Tarifberechnungsparameter" target="_top" title="file:////home/runner/work/BO4E-python/BO4E-python/docs/../.tox/docs/tmp/html/api/bo4e.com.html#bo4e.com.tarifberechnungsparameter.Tarifberechnungsparameter" xlink:actuate="onRequest" xlink:href="file:////home/runner/work/BO4E-python/BO4E-python/docs/../.tox/docs/tmp/html/api/bo4e.com.html#bo4e.com.tarifberechnungsparameter.Tarifberechnungsparameter" xlink:show="new" xlink:title="file:////home/runner/work/BO4E-python/BO4E-python/docs/../.tox/docs/tmp/html/api/bo4e.com.html#bo4e.com.tarifberechnungsparameter.Tarifberechnungsparameter" xlink:type="simple"><text fill="#0000FF" font-family="sans-serif" font-size="14" lengthAdjust="spacing" text-decoration="underline" textLength="196.8545" x="621.21" y="507.0251">Tarifberechnungsparameter</text></a><text fill="#000000" font-family="sans-serif" font-size="10" lengthAdjust="spacing" textLength="191.1182" x="624.0782" y="519.6091">bo4e.com.tarifberechnungsparameter</text></g><!--class Regionaltarif--><g class="entity" data-entity="Regionaltarif" data-source-line="3" data-uid="ent0002" id="entity_Regionaltarif"><rect fill="#F1F1F1" height="111.125" rx="2.5" ry="2.5" style="stroke:#181818;stroke-width:0.5;" width="344.2061" x="7" y="274.44"/><ellipse cx="122.3457" cy="293.4088" fill="#ADD1B2" rx="11" ry="11" style="stroke:#181818;stroke-width:1;"/><path d="M125.3145,299.0494 Q124.7363,299.3463 124.0957,299.4869 Q123.4551,299.6431 122.752,299.6431 Q120.252,299.6431 118.9238,298.0025 Q117.6113,296.3463 117.6113,293.2213 Q117.6113,290.0963 118.9238,288.44 Q120.252,286.7838 122.752,286.7838 Q123.4551,286.7838 124.0957,286.94 Q124.752,287.0963 125.3145,287.3931 L125.3145,290.1119 Q124.6895,289.5338 124.0957,289.2681 Q123.502,288.9869 122.877,288.9869 Q121.5332,288.9869 120.8457,290.065 Q120.1582,291.1275 120.1582,293.2213 Q120.1582,295.315 120.8457,296.3931 Q121.5332,297.4556 122.877,297.4556 Q123.502,297.4556 124.0957,297.19 Q124.6895,296.9088 125.3145,296.3306 L125.3145,299.0494 Z " fill="#000000"/><a href="file:////home/runner/work/BO4E-python/BO4E-python/docs/../.tox/docs/tmp/html/api/bo4e.bo.html#bo4e.bo.regionaltarif.Regionaltarif" target="_top" title="file:////home/runner/work/BO4E-python/BO4E-python/docs/../.tox/docs/tmp/html/api/bo4e.bo.html#bo4e.bo.regionaltarif.Regionaltarif" xlink:actuate="onRequest" xlink:href="file:////home/runner/work/BO4E-python/BO4E-python/docs/../.tox/docs/tmp/html/api/bo4e.bo.html#bo4e.bo.regionaltarif.Regionaltarif" xlink:show="new" xlink:title="file:////home/runner/work/BO4E-python/BO4E-python/docs/../.tox/docs/tmp/html/api/bo4e.bo.html#bo4e.bo.regionaltarif.Regionaltarif" xlink:type="simple"><text fill="#0000FF" font-family="sans-serif" font-size="14" lengthAdjust="spacing" text-decoration="underline" textLength="89.667" x="150.5195" y="292.4351">Regionaltarif</text></a><text fill="#000000" font-family="sans-serif" font-size="10" lengthAdjust="spacing" textLength="105.0146" x="142.8457" y="305.0191">bo4e.bo.regionaltarif</text><line style="stroke:#181818;stroke-width:0.5;" x1="8" x2="350.2061" y1="312.3775" y2="312.3775"/><text fill="#000000" font-family="sans-serif" font-size="14" lengthAdjust="spacing" textLength="332.2061" x="13" y="329.3726">_version : str [0..1] = 202501.0.0+g245ac3b0a</text><text fill="#000000" font-family="sans-serif" font-size="14" lengthAdjust="spacing" textLength="318.5752" x="13" y="345.6695">zusatzAttribute : ZusatzAttribut [0..*] = None</text><text fill="#000000" font-family="sans-serif" font-size="14" lengthAdjust="spacing" textLength="151.1768" x="13" y="361.9664">_id : str [0..1] = None</text><text fill="#000000" font-family="sans-serif" font-size="14" lengthAdjust="spacing" textLength="295.4902" x="13" y="378.2632">preisstand : AwareDatetime [0..1] = None</text></g><!--link Regionaltarif to Tarifinfo--><g class="link" data-entity-1="Regionaltarif" data-entity-2="Tarifinfo" data-source-line="21" data-uid="lnk12" id="link_Regionaltarif_Tarifinfo"><path codeLine="21" d="M279.03,273.96 C311.16,256.68 347.29,238.21 381.21,223 C472.85,181.9 566.1429,148.9698 631.6629,127.1398" fill="none" id="Regionaltarif-to-Tarifinfo" style="stroke:#181818;stroke-width:1;"/><polygon fill="none" points="648.74,121.45,629.7663,121.4474,633.5595,132.8321,648.74,121.45" style="stroke:#181818;stroke-width:1;"/></g><!--link Regionaltarif to Tarifberechnungsparameter--><g class="link" data-entity-1="Regionaltarif" data-entity-2="Tarifberechnungsparameter" data-source-line="22" data-uid="lnk13" id="link_Regionaltarif_Tarifberechnungsparameter"><path codeLine="22" d="M272.52,385.99 C305.86,404.34 344.36,423.46 381.21,437 C449.26,462.01 516.9306,477.4496 580.1806,488.8596" fill="none" id="Regionaltarif-to-Tarifberechnungsparameter" style="stroke:#181818;stroke-width:1;"/><polygon fill="#181818" points="591.99,490.99,586.7954,485.9884,580.1806,488.8596,585.3752,493.8613,591.99,490.99" style="stroke:#181818;stroke-width:1;"/><text fill="#000000" font-family="sans-serif" font-size="13" lengthAdjust="spacing" textLength="153.353" x="382.21" y="433.0669">berechnungsparameter</text><text fill="#000000" font-family="sans-serif" font-size="13" lengthAdjust="spacing" textLength="24.8066" x="559.508" y="502.4225">0..1</text></g><!--link Regionaltarif to RegionaleTarifpreisposition--><g class="link" data-entity-1="Regionaltarif" data-entity-2="RegionaleTarifpreisposition" data-source-line="23" data-uid="lnk14" id="link_Regionaltarif_RegionaleTarifpreisposition"><path codeLine="23" d="M351.7,350.63 C361.68,351.51 371.57,352.32 381.21,353 C452.16,358.03 520.0415,360.0988 582.7815,361.0988" fill="none" id="Regionaltarif-to-RegionaleTarifpreisposition" style="stroke:#181818;stroke-width:1;"/><polygon fill="#181818" points="594.78,361.29,588.8445,357.1949,582.7815,361.0988,588.717,365.1939,594.78,361.29" style="stroke:#181818;stroke-width:1;"/><text fill="#000000" font-family="sans-serif" font-size="13" lengthAdjust="spacing" textLength="66.5742" x="425.71" y="349.0669">tarifpreise</text><text fill="#000000" font-family="sans-serif" font-size="13" lengthAdjust="spacing" textLength="23.0356" x="563.8785" y="373.7962">0..*</text></g><!--link Regionaltarif to RegionalerAufAbschlag--><g class="link" data-entity-1="Regionaltarif" data-entity-2="RegionalerAufAbschlag" data-source-line="24" data-uid="lnk15" id="link_Regionaltarif_RegionalerAufAbschlag"><path codeLine="24" d="M351.45,316.63 C436.52,310 524.2264,303.1535 596.1264,297.5435" fill="none" id="Regionaltarif-to-RegionalerAufAbschlag" style="stroke:#181818;stroke-width:1;"/><polygon fill="#181818" points="608.09,296.61,601.797,293.0889,596.1264,297.5435,602.4193,301.0646,608.09,296.61" style="stroke:#181818;stroke-width:1;"/><text fill="#000000" font-family="sans-serif" font-size="13" lengthAdjust="spacing" textLength="123.4365" x="397.21" y="299.0669">tarifAufAbschlaege</text><text fill="#000000" font-family="sans-serif" font-size="13" lengthAdjust="spacing" textLength="23.0356" x="577.3536" y="309.7441">0..*</text></g><!--link Regionaltarif to RegionalePreisgarantie--><g class="link" data-entity-1="Regionaltarif" data-entity-2="RegionalePreisgarantie" data-source-line="25" data-uid="lnk16" id="link_Regionaltarif_RegionalePreisgarantie"><path codeLine="25" d="M351.47,378.27 C361.51,380.66 371.47,382.93 381.21,385 C456.45,401.03 530.6682,412.4524 595.2482,421.1824" fill="none" id="Regionaltarif-to-RegionalePreisgarantie" style="stroke:#181818;stroke-width:1;"/><polygon fill="#181818" points="607.14,422.79,601.7299,418.0223,595.2482,421.1824,600.6582,425.9502,607.14,422.79" style="stroke:#181818;stroke-width:1;"/><text fill="#000000" font-family="sans-serif" font-size="13" lengthAdjust="spacing" textLength="94.6943" x="411.71" y="381.0669">preisgarantien</text><text fill="#000000" font-family="sans-serif" font-size="13" lengthAdjust="spacing" textLength="23.0356" x="576.6839" y="434.545">0..*</text></g><!--link Regionaltarif to Tarifeinschraenkung--><g class="link" data-entity-1="Regionaltarif" data-entity-2="Tarifeinschraenkung" data-source-line="26" data-uid="lnk17" id="link_Regionaltarif_Tarifeinschraenkung"><path codeLine="26" d="M351.62,284.87 C361.61,282.48 371.53,280.17 381.21,278 C459.26,260.47 536.7687,245.75 601.8987,234.06" fill="none" id="Regionaltarif-to-Tarifeinschraenkung" style="stroke:#181818;stroke-width:1;"/><polygon fill="#181818" points="613.71,231.94,607.0977,229.0629,601.8987,234.06,608.511,236.9371,613.71,231.94" style="stroke:#181818;stroke-width:1;"/><text fill="#000000" font-family="sans-serif" font-size="13" lengthAdjust="spacing" textLength="130.4126" x="393.71" y="244.0669">tarifeinschraenkung</text><text fill="#000000" font-family="sans-serif" font-size="13" lengthAdjust="spacing" textLength="24.8066" x="581.3808" y="245.8802">0..1</text></g><!--SRC=[nLN1SjCm43tNNx6JtC94Ta9REXxeZ4jx1ORfYP1XP6TjQsfB7aac4E3VaPt4ZXmdfGSIdxHlfIVja_KsmrY35Y1PacfOC8cHPe8xJfHHfM0mcyKiGzyrNofoT6N9EKftAUIJU_Vnyc5S_DIfuDPu8IBb4k8IBNwi0vqNRghppAK5SqDnYIGKf0A6sq1YOhQbcQQInUJpRWHMD9z_vMyLMw4_yMvxLm-0AdiD_78kldr7gGm4FYWjOUOHCfd3EvXwqojlGZpYlKgcbrSqUXrwrBbObOhgLQ2rP66fqQpwOY4rmQWY-20u6dgsw3Al4uL4ffIclCe7IohndchKBCVEp3-EmscEgg0H_dVTOHFCvxLQcmY6TzVtRuARIgyJttzzJup7WZnkHz2CUk-yML5NqCmrEfv0naZaEpgQQ5T84yBmmGjkhj-VGCdjKOPDL2k3ZAiebHJvKycJjQes1ZtOlj8725lHRVmCvMuVFqfQnZGqXybeqbW8og2CWmqAlMX_qRsqbhTO9ESilBwVscWAeLZbtstvZtivE99xHehzZMn1zWdFAKjza8HAoZN3Lf5Fkp3qmy_eO37R4bWqvthy8Pe-ddBp7eqFIcE76kNQ0leoS31pn0xwfhUcq9UjEbodiu_7ls-tpQSr_kuiCsq4WwfP3Xg3FLAD3xsx7o8TxP0UUpK-j7y_lepDig0DJmjXya8w-mVsmVeR-R-hrsa7cuDr_Dn9sG8Xnzo8gXoLYYLqDeWPPWlr5m00]--></g></svg>