<?xml version="1.0" encoding="us-ascii" standalone="no"?><svg xmlns="http://www.w3.org/2000/svg" xmlns:xlink="http://www.w3.org/1999/xlink" contentStyleType="text/css" height="687px" preserveAspectRatio="none" style="width:897px;height:687px;background:#FFFFFF;" version="1.1" viewBox="0 0 897 687" width="897px" zoomAndPan="magnify"><defs/><g><!--cluster bo4e--><g id="cluster_bo4e"><path d="M587.5,6 L628.5,6 A3.75,3.75 0 0 1 631,8.5 L638,28.2969 L887.5,28.2969 A2.5,2.5 0 0 1 890,30.7969 L890,677.5 A2.5,2.5 0 0 1 887.5,680 L587.5,680 A2.5,2.5 0 0 1 585,677.5 L585,8.5 A2.5,2.5 0 0 1 587.5,6 " fill="none" style="stroke:#000000;stroke-width:1.5;"/><line style="stroke:#000000;stroke-width:1.5;" x1="585" x2="638" y1="28.2969" y2="28.2969"/><text fill="#000000" font-family="sans-serif" font-size="14" font-weight="bold" lengthAdjust="spacing" textLength="40" x="589" y="20.9951">bo4e</text></g><!--cluster bo--><g id="cluster_bo"><path d="M668,49 L734,49 A3.75,3.75 0 0 1 736.5,51.5 L743.5,71.2969 L807,71.2969 A2.5,2.5 0 0 1 809.5,73.7969 L809.5,135.5 A2.5,2.5 0 0 1 807,138 L668,138 A2.5,2.5 0 0 1 665.5,135.5 L665.5,51.5 A2.5,2.5 0 0 1 668,49 " fill="#B6D7A8" style="stroke:#000000;stroke-width:1.5;"/><line style="stroke:#000000;stroke-width:1.5;" x1="665.5" x2="743.5" y1="71.2969" y2="71.2969"/><a href="https://bo4e.github.io/BO4E-python/latest/api/bo4e.bo.html" target="_top" title="https://bo4e.github.io/BO4E-python/latest/api/bo4e.bo.html" xlink:actuate="onRequest" xlink:href="https://bo4e.github.io/BO4E-python/latest/api/bo4e.bo.html" xlink:show="new" xlink:title="https://bo4e.github.io/BO4E-python/latest/api/bo4e.bo.html" xlink:type="simple"><text fill="#0000FF" font-family="sans-serif" font-size="14" font-weight="bold" lengthAdjust="spacing" text-decoration="underline" textLength="65" x="669.5" y="63.9951">bo4e.bo</text></a></g><!--cluster com--><g id="cluster_com"><path d="M611.5,162 L690.5,162 A3.75,3.75 0 0 1 693,164.5 L700,184.2969 L863.5,184.2969 A2.5,2.5 0 0 1 866,186.7969 L866,540.5 A2.5,2.5 0 0 1 863.5,543 L611.5,543 A2.5,2.5 0 0 1 609,540.5 L609,164.5 A2.5,2.5 0 0 1 611.5,162 " fill="#E0A86C" style="stroke:#000000;stroke-width:1.5;"/><line style="stroke:#000000;stroke-width:1.5;" x1="609" x2="700" y1="184.2969" y2="184.2969"/><a href="https://bo4e.github.io/BO4E-python/latest/api/bo4e.com.html" target="_top" title="https://bo4e.github.io/BO4E-python/latest/api/bo4e.com.html" xlink:actuate="onRequest" xlink:href="https://bo4e.github.io/BO4E-python/latest/api/bo4e.com.html" xlink:show="new" xlink:title="https://bo4e.github.io/BO4E-python/latest/api/bo4e.com.html" xlink:type="simple"><text fill="#0000FF" font-family="sans-serif" font-size="14" font-weight="bold" lengthAdjust="spacing" text-decoration="underline" textLength="78" x="613" y="176.9951">bo4e.com</text></a></g><!--cluster enum--><g id="cluster_enum"><path d="M671,567 L761,567 A3.75,3.75 0 0 1 763.5,569.5 L770.5,589.2969 L804,589.2969 A2.5,2.5 0 0 1 806.5,591.7969 L806.5,653.5 A2.5,2.5 0 0 1 804,656 L671,656 A2.5,2.5 0 0 1 668.5,653.5 L668.5,569.5 A2.5,2.5 0 0 1 671,567 " fill="#D1C358" style="stroke:#000000;stroke-width:1.5;"/><line style="stroke:#000000;stroke-width:1.5;" x1="668.5" x2="770.5" y1="589.2969" y2="589.2969"/><a href="https://bo4e.github.io/BO4E-python/latest/api/bo4e.enum.html" target="_top" title="https://bo4e.github.io/BO4E-python/latest/api/bo4e.enum.html" xlink:actuate="onRequest" xlink:href="https://bo4e.github.io/BO4E-python/latest/api/bo4e.enum.html" xlink:show="new" xlink:title="https://bo4e.github.io/BO4E-python/latest/api/bo4e.enum.html" xlink:type="simple"><text fill="#0000FF" font-family="sans-serif" font-size="14" font-weight="bold" lengthAdjust="spacing" text-decoration="underline" textLength="89" x="672.5" y="581.9951">bo4e.enum</text></a></g><!--class Tarifinfo--><g id="elem_Tarifinfo"><rect codeLine="11" fill="#F1F1F1" height="37.9375" id="Tarifinfo" rx="2.5" ry="2.5" style="stroke:#181818;stroke-width:0.5;" width="112" x="681.5" y="84.03"/><ellipse cx="696.5" cy="102.9987" fill="#ADD1B2" rx="11" ry="11" style="stroke:#181818;stroke-width:1.0;"/><path d="M699.4688,108.6394 Q698.8906,108.9362 698.25,109.0769 Q697.6094,109.2331 696.9063,109.2331 Q694.4063,109.2331 693.0781,107.5925 Q691.7656,105.9362 691.7656,102.8112 Q691.7656,99.6862 693.0781,98.03 Q694.4063,96.3737 696.9063,96.3737 Q697.6094,96.3737 698.25,96.53 Q698.9063,96.6862 699.4688,96.9831 L699.4688,99.7019 Q698.8438,99.1237 698.25,98.8581 Q697.6563,98.5769 697.0313,98.5769 Q695.6875,98.5769 695,99.655 Q694.3125,100.7175 694.3125,102.8112 Q694.3125,104.905 695,105.9831 Q695.6875,107.0456 697.0313,107.0456 Q697.6563,107.0456 698.25,106.78 Q698.8438,106.4987 699.4688,105.9206 L699.4688,108.6394 Z " fill="#000000"/><a href="https://bo4e.github.io/BO4E-python/latest/api/bo4e.bo.html#bo4e.bo.tarifinfo.Tarifinfo" target="_top" title="https://bo4e.github.io/BO4E-python/latest/api/bo4e.bo.html#bo4e.bo.tarifinfo.Tarifinfo" xlink:actuate="onRequest" xlink:href="https://bo4e.github.io/BO4E-python/latest/api/bo4e.bo.html#bo4e.bo.tarifinfo.Tarifinfo" xlink:show="new" xlink:title="https://bo4e.github.io/BO4E-python/latest/api/bo4e.bo.html#bo4e.bo.tarifinfo.Tarifinfo" xlink:type="simple"><text fill="#0000FF" font-family="sans-serif" font-size="14" lengthAdjust="spacing" text-decoration="underline" textLength="54" x="723.5" y="102.0251">Tarifinfo</text></a><text fill="#000000" font-family="sans-serif" font-size="10" lengthAdjust="spacing" textLength="80" x="710.5" y="114.6091">bo4e.bo.tarifinfo</text></g><!--class RegionalePreisgarantie--><g id="elem_RegionalePreisgarantie"><rect codeLine="14" fill="#F1F1F1" height="37.9375" id="RegionalePreisgarantie" rx="2.5" ry="2.5" style="stroke:#181818;stroke-width:0.5;" width="191" x="642" y="197.03"/><ellipse cx="657" cy="215.9987" fill="#ADD1B2" rx="11" ry="11" style="stroke:#181818;stroke-width:1.0;"/><path d="M659.9688,221.6394 Q659.3906,221.9362 658.75,222.0769 Q658.1094,222.2331 657.4063,222.2331 Q654.9063,222.2331 653.5781,220.5925 Q652.2656,218.9362 652.2656,215.8112 Q652.2656,212.6862 653.5781,211.03 Q654.9063,209.3737 657.4063,209.3737 Q658.1094,209.3737 658.75,209.53 Q659.4063,209.6862 659.9688,209.9831 L659.9688,212.7019 Q659.3438,212.1237 658.75,211.8581 Q658.1563,211.5769 657.5313,211.5769 Q656.1875,211.5769 655.5,212.655 Q654.8125,213.7175 654.8125,215.8112 Q654.8125,217.905 655.5,218.9831 Q656.1875,220.0456 657.5313,220.0456 Q658.1563,220.0456 658.75,219.78 Q659.3438,219.4987 659.9688,218.9206 L659.9688,221.6394 Z " fill="#000000"/><a href="https://bo4e.github.io/BO4E-python/latest/api/bo4e.com.html#bo4e.com.regionalepreisgarantie.RegionalePreisgarantie" target="_top" title="https://bo4e.github.io/BO4E-python/latest/api/bo4e.com.html#bo4e.com.regionalepreisgarantie.RegionalePreisgarantie" xlink:actuate="onRequest" xlink:href="https://bo4e.github.io/BO4E-python/latest/api/bo4e.com.html#bo4e.com.regionalepreisgarantie.RegionalePreisgarantie" xlink:show="new" xlink:title="https://bo4e.github.io/BO4E-python/latest/api/bo4e.com.html#bo4e.com.regionalepreisgarantie.RegionalePreisgarantie" xlink:type="simple"><text fill="#0000FF" font-family="sans-serif" font-size="14" lengthAdjust="spacing" text-decoration="underline" textLength="159" x="671" y="215.0251">RegionalePreisgarantie</text></a><text fill="#000000" font-family="sans-serif" font-size="10" lengthAdjust="spacing" textLength="158" x="671.5" y="227.6091">bo4e.com.regionalepreisgarantie</text></g><!--class Tarifberechnungsparameter--><g id="elem_Tarifberechnungsparameter"><rect codeLine="15" fill="#F1F1F1" height="37.9375" id="Tarifberechnungsparameter" rx="2.5" ry="2.5" style="stroke:#181818;stroke-width:0.5;" width="225" x="625" y="270.03"/><ellipse cx="640" cy="288.9988" fill="#ADD1B2" rx="11" ry="11" style="stroke:#181818;stroke-width:1.0;"/><path d="M642.9688,294.6394 Q642.3906,294.9363 641.75,295.0769 Q641.1094,295.2331 640.4063,295.2331 Q637.9063,295.2331 636.5781,293.5925 Q635.2656,291.9363 635.2656,288.8113 Q635.2656,285.6863 636.5781,284.03 Q637.9063,282.3738 640.4063,282.3738 Q641.1094,282.3738 641.75,282.53 Q642.4063,282.6863 642.9688,282.9831 L642.9688,285.7019 Q642.3438,285.1238 641.75,284.8581 Q641.1563,284.5769 640.5313,284.5769 Q639.1875,284.5769 638.5,285.655 Q637.8125,286.7175 637.8125,288.8113 Q637.8125,290.905 638.5,291.9831 Q639.1875,293.0456 640.5313,293.0456 Q641.1563,293.0456 641.75,292.78 Q642.3438,292.4988 642.9688,291.9206 L642.9688,294.6394 Z " fill="#000000"/><a href="https://bo4e.github.io/BO4E-python/latest/api/bo4e.com.html#bo4e.com.tarifberechnungsparameter.Tarifberechnungsparameter" target="_top" title="https://bo4e.github.io/BO4E-python/latest/api/bo4e.com.html#bo4e.com.tarifberechnungsparameter.Tarifberechnungsparameter" xlink:actuate="onRequest" xlink:href="https://bo4e.github.io/BO4E-python/latest/api/bo4e.com.html#bo4e.com.tarifberechnungsparameter.Tarifberechnungsparameter" xlink:show="new" xlink:title="https://bo4e.github.io/BO4E-python/latest/api/bo4e.com.html#bo4e.com.tarifberechnungsparameter.Tarifberechnungsparameter" xlink:type="simple"><text fill="#0000FF" font-family="sans-serif" font-size="14" lengthAdjust="spacing" text-decoration="underline" textLength="193" x="654" y="288.0251">Tarifberechnungsparameter</text></a><text fill="#000000" font-family="sans-serif" font-size="10" lengthAdjust="spacing" textLength="185" x="658" y="300.6091">bo4e.com.tarifberechnungsparameter</text></g><!--class Tarifeinschraenkung--><g id="elem_Tarifeinschraenkung"><rect codeLine="16" fill="#F1F1F1" height="37.9375" id="Tarifeinschraenkung" rx="2.5" ry="2.5" style="stroke:#181818;stroke-width:0.5;" width="178" x="648.5" y="343.03"/><ellipse cx="663.5" cy="361.9988" fill="#ADD1B2" rx="11" ry="11" style="stroke:#181818;stroke-width:1.0;"/><path d="M666.4688,367.6394 Q665.8906,367.9363 665.25,368.0769 Q664.6094,368.2331 663.9063,368.2331 Q661.4063,368.2331 660.0781,366.5925 Q658.7656,364.9363 658.7656,361.8113 Q658.7656,358.6863 660.0781,357.03 Q661.4063,355.3738 663.9063,355.3738 Q664.6094,355.3738 665.25,355.53 Q665.9063,355.6863 666.4688,355.9831 L666.4688,358.7019 Q665.8438,358.1238 665.25,357.8581 Q664.6563,357.5769 664.0313,357.5769 Q662.6875,357.5769 662,358.655 Q661.3125,359.7175 661.3125,361.8113 Q661.3125,363.905 662,364.9831 Q662.6875,366.0456 664.0313,366.0456 Q664.6563,366.0456 665.25,365.78 Q665.8438,365.4988 666.4688,364.9206 L666.4688,367.6394 Z " fill="#000000"/><a href="https://bo4e.github.io/BO4E-python/latest/api/bo4e.com.html#bo4e.com.tarifeinschraenkung.Tarifeinschraenkung" target="_top" title="https://bo4e.github.io/BO4E-python/latest/api/bo4e.com.html#bo4e.com.tarifeinschraenkung.Tarifeinschraenkung" xlink:actuate="onRequest" xlink:href="https://bo4e.github.io/BO4E-python/latest/api/bo4e.com.html#bo4e.com.tarifeinschraenkung.Tarifeinschraenkung" xlink:show="new" xlink:title="https://bo4e.github.io/BO4E-python/latest/api/bo4e.com.html#bo4e.com.tarifeinschraenkung.Tarifeinschraenkung" xlink:type="simple"><text fill="#0000FF" font-family="sans-serif" font-size="14" lengthAdjust="spacing" text-decoration="underline" textLength="141" x="680" y="361.0251">Tarifeinschraenkung</text></a><text fill="#000000" font-family="sans-serif" font-size="10" lengthAdjust="spacing" textLength="146" x="677.5" y="373.6091">bo4e.com.tarifeinschraenkung</text></g><!--class RegionaleTarifpreisposition--><g id="elem_RegionaleTarifpreisposition"><rect codeLine="17" fill="#F1F1F1" height="37.9375" id="RegionaleTarifpreisposition" rx="2.5" ry="2.5" style="stroke:#181818;stroke-width:0.5;" width="219" x="628" y="416.03"/><ellipse cx="643" cy="434.9988" fill="#ADD1B2" rx="11" ry="11" style="stroke:#181818;stroke-width:1.0;"/><path d="M645.9688,440.6394 Q645.3906,440.9363 644.75,441.0769 Q644.1094,441.2331 643.4063,441.2331 Q640.9063,441.2331 639.5781,439.5925 Q638.2656,437.9363 638.2656,434.8113 Q638.2656,431.6863 639.5781,430.03 Q640.9063,428.3738 643.4063,428.3738 Q644.1094,428.3738 644.75,428.53 Q645.4063,428.6863 645.9688,428.9831 L645.9688,431.7019 Q645.3438,431.1238 644.75,430.8581 Q644.1563,430.5769 643.5313,430.5769 Q642.1875,430.5769 641.5,431.655 Q640.8125,432.7175 640.8125,434.8113 Q640.8125,436.905 641.5,437.9831 Q642.1875,439.0456 643.5313,439.0456 Q644.1563,439.0456 644.75,438.78 Q645.3438,438.4988 645.9688,437.9206 L645.9688,440.6394 Z " fill="#000000"/><a href="https://bo4e.github.io/BO4E-python/latest/api/bo4e.com.html#bo4e.com.regionaletarifpreisposition.RegionaleTarifpreisposition" target="_top" title="https://bo4e.github.io/BO4E-python/latest/api/bo4e.com.html#bo4e.com.regionaletarifpreisposition.RegionaleTarifpreisposition" xlink:actuate="onRequest" xlink:href="https://bo4e.github.io/BO4E-python/latest/api/bo4e.com.html#bo4e.com.regionaletarifpreisposition.RegionaleTarifpreisposition" xlink:show="new" xlink:title="https://bo4e.github.io/BO4E-python/latest/api/bo4e.com.html#bo4e.com.regionaletarifpreisposition.RegionaleTarifpreisposition" xlink:type="simple"><text fill="#0000FF" font-family="sans-serif" font-size="14" lengthAdjust="spacing" text-decoration="underline" textLength="187" x="657" y="434.0251">RegionaleTarifpreisposition</text></a><text fill="#000000" font-family="sans-serif" font-size="10" lengthAdjust="spacing" textLength="175" x="663" y="446.6091">bo4e.com.regionaletarifpreisposition</text></g><!--class RegionalerAufAbschlag--><g id="elem_RegionalerAufAbschlag"><rect codeLine="18" fill="#F1F1F1" height="37.9375" id="RegionalerAufAbschlag" rx="2.5" ry="2.5" style="stroke:#181818;stroke-width:0.5;" width="191" x="642" y="489.03"/><ellipse cx="657" cy="507.9988" fill="#ADD1B2" rx="11" ry="11" style="stroke:#181818;stroke-width:1.0;"/><path d="M659.9688,513.6394 Q659.3906,513.9363 658.75,514.0769 Q658.1094,514.2331 657.4063,514.2331 Q654.9063,514.2331 653.5781,512.5925 Q652.2656,510.9363 652.2656,507.8113 Q652.2656,504.6863 653.5781,503.03 Q654.9063,501.3738 657.4063,501.3738 Q658.1094,501.3738 658.75,501.53 Q659.4063,501.6863 659.9688,501.9831 L659.9688,504.7019 Q659.3438,504.1238 658.75,503.8581 Q658.1563,503.5769 657.5313,503.5769 Q656.1875,503.5769 655.5,504.655 Q654.8125,505.7175 654.8125,507.8113 Q654.8125,509.905 655.5,510.9831 Q656.1875,512.0456 657.5313,512.0456 Q658.1563,512.0456 658.75,511.78 Q659.3438,511.4988 659.9688,510.9206 L659.9688,513.6394 Z " fill="#000000"/><a href="https://bo4e.github.io/BO4E-python/latest/api/bo4e.com.html#bo4e.com.regionaleraufabschlag.RegionalerAufAbschlag" target="_top" title="https://bo4e.github.io/BO4E-python/latest/api/bo4e.com.html#bo4e.com.regionaleraufabschlag.RegionalerAufAbschlag" xlink:actuate="onRequest" xlink:href="https://bo4e.github.io/BO4E-python/latest/api/bo4e.com.html#bo4e.com.regionaleraufabschlag.RegionalerAufAbschlag" xlink:show="new" xlink:title="https://bo4e.github.io/BO4E-python/latest/api/bo4e.com.html#bo4e.com.regionaleraufabschlag.RegionalerAufAbschlag" xlink:type="simple"><text fill="#0000FF" font-family="sans-serif" font-size="14" lengthAdjust="spacing" text-decoration="underline" textLength="159" x="671" y="507.0251">RegionalerAufAbschlag</text></a><text fill="#000000" font-family="sans-serif" font-size="10" lengthAdjust="spacing" textLength="157" x="672" y="519.6091">bo4e.com.regionaleraufabschlag</text></g><!--class Typ--><g id="elem_Typ"><rect codeLine="21" fill="#F1F1F1" height="37.9375" id="Typ" rx="2.5" ry="2.5" style="stroke:#181818;stroke-width:0.5;" width="106" x="684.5" y="602.03"/><ellipse cx="699.5" cy="620.9988" fill="#ADD1B2" rx="11" ry="11" style="stroke:#181818;stroke-width:1.0;"/><path d="M702.4688,626.6394 Q701.8906,626.9363 701.25,627.0769 Q700.6094,627.2331 699.9063,627.2331 Q697.4063,627.2331 696.0781,625.5925 Q694.7656,623.9363 694.7656,620.8113 Q694.7656,617.6863 696.0781,616.03 Q697.4063,614.3738 699.9063,614.3738 Q700.6094,614.3738 701.25,614.53 Q701.9063,614.6863 702.4688,614.9831 L702.4688,617.7019 Q701.8438,617.1238 701.25,616.8581 Q700.6563,616.5769 700.0313,616.5769 Q698.6875,616.5769 698,617.655 Q697.3125,618.7175 697.3125,620.8113 Q697.3125,622.905 698,623.9831 Q698.6875,625.0456 700.0313,625.0456 Q700.6563,625.0456 701.25,624.78 Q701.8438,624.4988 702.4688,623.9206 L702.4688,626.6394 Z " fill="#000000"/><a href="https://bo4e.github.io/BO4E-python/latest/api/bo4e.enum.html#bo4e.enum.typ.Typ" target="_top" title="https://bo4e.github.io/BO4E-python/latest/api/bo4e.enum.html#bo4e.enum.typ.Typ" xlink:actuate="onRequest" xlink:href="https://bo4e.github.io/BO4E-python/latest/api/bo4e.enum.html#bo4e.enum.typ.Typ" xlink:show="new" xlink:title="https://bo4e.github.io/BO4E-python/latest/api/bo4e.enum.html#bo4e.enum.typ.Typ" xlink:type="simple"><text fill="#0000FF" font-family="sans-serif" font-size="14" lengthAdjust="spacing" text-decoration="underline" textLength="25" x="738" y="620.0251">Typ</text></a><text fill="#000000" font-family="sans-serif" font-size="10" lengthAdjust="spacing" textLength="74" x="713.5" y="632.6091">bo4e.enum.typ</text></g><!--class Regionaltarif--><g id="elem_Regionaltarif"><rect codeLine="3" fill="#F1F1F1" height="111.125" id="Regionaltarif" rx="2.5" ry="2.5" style="stroke:#181818;stroke-width:0.5;" width="379" x="7" y="306.44"/><ellipse cx="142.25" cy="325.4088" fill="#ADD1B2" rx="11" ry="11" style="stroke:#181818;stroke-width:1.0;"/><path d="M145.2188,331.0494 Q144.6406,331.3463 144,331.4869 Q143.3594,331.6431 142.6563,331.6431 Q140.1563,331.6431 138.8281,330.0025 Q137.5156,328.3463 137.5156,325.2213 Q137.5156,322.0963 138.8281,320.44 Q140.1563,318.7838 142.6563,318.7838 Q143.3594,318.7838 144,318.94 Q144.6563,319.0963 145.2188,319.3931 L145.2188,322.1119 Q144.5938,321.5338 144,321.2681 Q143.4063,320.9869 142.7813,320.9869 Q141.4375,320.9869 140.75,322.065 Q140.0625,323.1275 140.0625,325.2213 Q140.0625,327.315 140.75,328.3931 Q141.4375,329.4556 142.7813,329.4556 Q143.4063,329.4556 144,329.19 Q144.5938,328.9088 145.2188,328.3306 L145.2188,331.0494 Z " fill="#000000"/><a href="https://bo4e.github.io/BO4E-python/latest/api/bo4e.bo.html#bo4e.bo.regionaltarif.Regionaltarif" target="_top" title="https://bo4e.github.io/BO4E-python/latest/api/bo4e.bo.html#bo4e.bo.regionaltarif.Regionaltarif" xlink:actuate="onRequest" xlink:href="https://bo4e.github.io/BO4E-python/latest/api/bo4e.bo.html#bo4e.bo.regionaltarif.Regionaltarif" xlink:show="new" xlink:title="https://bo4e.github.io/BO4E-python/latest/api/bo4e.bo.html#bo4e.bo.regionaltarif.Regionaltarif" xlink:type="simple"><text fill="#0000FF" font-family="sans-serif" font-size="14" lengthAdjust="spacing" text-decoration="underline" textLength="85" x="170.25" y="324.4351">Regionaltarif</text></a><text fill="#000000" font-family="sans-serif" font-size="10" lengthAdjust="spacing" textLength="100" x="162.75" y="337.0191">bo4e.bo.regionaltarif</text><line style="stroke:#181818;stroke-width:0.5;" x1="8" x2="385" y1="344.3775" y2="344.3775"/><text fill="#000000" font-family="sans-serif" font-size="14" lengthAdjust="spacing" textLength="367" x="13" y="361.3726">_version : str [0..1] = 202401.2.2.dev29+gd7bab545</text><text fill="#000000" font-family="sans-serif" font-size="14" lengthAdjust="spacing" textLength="311" x="13" y="377.6695">zusatzAttribute : ZusatzAttribut [0..*] = None</text><text fill="#000000" font-family="sans-serif" font-size="14" lengthAdjust="spacing" textLength="147" x="13" y="393.9664">_id : str [0..1] = None</text><text fill="#000000" font-family="sans-serif" font-size="14" lengthAdjust="spacing" textLength="288" x="13" y="410.2632">preisstand : AwareDatetime [0..1] = None</text></g><!--link Regionaltarif to Tarifinfo--><g id="link_Regionaltarif_Tarifinfo"><path codeLine="24" d="M279.99,306.03 C320.05,280.16 369.48,250.12 416,227 C505.89,182.32 598.9982,148.5454 663.9682,126.7054 " fill="none" id="Regionaltarif-to-Tarifinfo" style="stroke:#181818;stroke-width:1.0;"/><polygon fill="none" points="681.03,120.97,662.0564,121.0181,665.88,132.3927,681.03,120.97" style="stroke:#181818;stroke-width:1.0;"/></g><!--link Regionaltarif to Typ--><g id="link_Regionaltarif_Typ"><path codeLine="25" d="M278.29,417.99 C318.58,444.51 368.7,475.46 416,499 C507.14,544.37 608.1096,579.8449 672.6996,600.8749 " fill="none" id="Regionaltarif-to-Typ" style="stroke:#181818;stroke-width:1.0;"/><polygon fill="#181818" points="684.11,604.59,679.6432,598.929,672.6996,600.8749,677.1664,606.5359,684.11,604.59" style="stroke:#181818;stroke-width:1.0;"/><text fill="#000000" font-family="sans-serif" font-size="13" lengthAdjust="spacing" textLength="27" x="479" y="495.0669">_typ</text><text fill="#000000" font-family="sans-serif" font-size="13" lengthAdjust="spacing" textLength="24" x="652.5493" y="615.6345">0..1</text></g><!--link Regionaltarif to Tarifberechnungsparameter--><g id="link_Regionaltarif_Tarifberechnungsparameter"><path codeLine="26" d="M386.39,336.42 C466.05,325.63 544.1686,315.0509 612.9686,305.7309 " fill="none" id="Regionaltarif-to-Tarifberechnungsparameter" style="stroke:#181818;stroke-width:1.0;"/><polygon fill="#181818" points="624.86,304.12,618.3774,300.9616,612.9686,305.7309,619.4513,308.8892,624.86,304.12" style="stroke:#181818;stroke-width:1.0;"/><text fill="#000000" font-family="sans-serif" font-size="13" lengthAdjust="spacing" textLength="151" x="417" y="309.0669">berechnungsparameter</text><text fill="#000000" font-family="sans-serif" font-size="13" lengthAdjust="spacing" textLength="24" x="592.8753" y="317.6403">0..1</text></g><!--link Regionaltarif to RegionaleTarifpreisposition--><g id="link_Regionaltarif_RegionaleTarifpreisposition"><path codeLine="27" d="M386.39,387.58 C467.11,398.52 546.5685,409.2802 615.7085,418.6402 " fill="none" id="Regionaltarif-to-RegionaleTarifpreisposition" style="stroke:#181818;stroke-width:1.0;"/><polygon fill="#181818" points="627.6,420.25,622.1909,415.4812,615.7085,418.6402,621.1176,423.4089,627.6,420.25" style="stroke:#181818;stroke-width:1.0;"/><text fill="#000000" font-family="sans-serif" font-size="13" lengthAdjust="spacing" textLength="64" x="460.5" y="388.0669">tarifpreise</text><text fill="#000000" font-family="sans-serif" font-size="13" lengthAdjust="spacing" textLength="23" x="596.8228" y="431.8568">0..*</text></g><!--link Regionaltarif to RegionalerAufAbschlag--><g id="link_Regionaltarif_RegionalerAufAbschlag"><path codeLine="28" d="M353.78,418.02 C374.59,424.78 395.73,431.3 416,437 C491.16,458.15 565.8971,474.6265 630.0771,487.5765 " fill="none" id="Regionaltarif-to-RegionalerAufAbschlag" style="stroke:#181818;stroke-width:1.0;"/><polygon fill="#181818" points="641.84,489.95,636.7497,484.8423,630.0771,487.5765,635.1674,492.6842,641.84,489.95" style="stroke:#181818;stroke-width:1.0;"/><text fill="#000000" font-family="sans-serif" font-size="13" lengthAdjust="spacing" textLength="120" x="432.5" y="433.0669">tarifAufAbschlaege</text><text fill="#000000" font-family="sans-serif" font-size="13" lengthAdjust="spacing" textLength="23" x="610.9704" y="501.2471">0..*</text></g><!--link Regionaltarif to RegionalePreisgarantie--><g id="link_Regionaltarif_RegionalePreisgarantie"><path codeLine="29" d="M356.5,305.98 C376.44,299.6 396.62,293.44 416,288 C491.08,266.92 565.6471,250.2328 629.7771,237.0128 " fill="none" id="Regionaltarif-to-RegionalePreisgarantie" style="stroke:#181818;stroke-width:1.0;"/><polygon fill="#181818" points="641.53,234.59,634.846,231.8838,629.7771,237.0128,636.4612,239.719,641.53,234.59" style="stroke:#181818;stroke-width:1.0;"/><text fill="#000000" font-family="sans-serif" font-size="13" lengthAdjust="spacing" textLength="92" x="446.5" y="248.0669">preisgarantien</text><text fill="#000000" font-family="sans-serif" font-size="13" lengthAdjust="spacing" textLength="23" x="610.9735" y="248.4961">0..*</text></g><!--link Regionaltarif to Tarifeinschraenkung--><g id="link_Regionaltarif_Tarifeinschraenkung"><path codeLine="30" d="M386.39,362 C475.46,362 565.46,362 636.3,362 " fill="none" id="Regionaltarif-to-Tarifeinschraenkung" style="stroke:#181818;stroke-width:1.0;"/><polygon fill="#181818" points="648.3,362,642.3,358,636.3,362,642.3,366,648.3,362" style="stroke:#181818;stroke-width:1.0;"/><text fill="#000000" font-family="sans-serif" font-size="13" lengthAdjust="spacing" textLength="126" x="429.5" y="358.0669">tarifeinschraenkung</text><text fill="#000000" font-family="sans-serif" font-size="13" lengthAdjust="spacing" textLength="24" x="616.5519" y="374.6463">0..1</text></g><!--SRC=[jLNRRfj047qENp4oRwwCBxMJ5BMHI9FNjghyLDUA5XXWLLZGxfB8QVllNR0DBCPs8zj2ICnbp-oS6MPY32J853WD8ma-vUX9cZB3y68Y1FGMYqZAJDZ3ePjEqGgfZ7BNekdm_klqSP2jP9IoOKma2Zaa6LrxkQaLoIGsjmB7K66IM19E0-jxKm9DMYv_ie-2lg8z7jrrdku14VeP-6rSFJqZ5qe5DWZ9OJ6ohF4IFi5aD9cEnjP4FJu-Jpwy2_qRbxYpwSouUiq5aQ-Eb9owkKHrz8UcAL7w1SgNbA6AGVqs_DgGSQH2IC8Ak_D2E3ueFYHDiENvrp0OIL1anCFJc8MDi5oMV6maCE-l7swSsuAHSvQlf9co8BNcso-elZfBLfqehrVvAWPE9S1BamO3IcfIe4Gm7qVExVNdKpdOnZ4hQTk6MDOx99mmIR7gPlpML4EtUfUi_SXQf-imvqwjB9UBwj-FMCv2LH-koYIHhmlUPO6zbkuSzuQeEwJBUf5CaJBXHPmW-wM2hNFKTT2XEv2NxbXdfEilrf3b7ShUoL91Y_5TT-LynmO7R4VwSpUGtgIxW1VBcPCy8AvYDoPXdIrtyi3PQA5JUoJ39goUMnFa37CCMTuSP8NOd6I53AO_zjxFJXxdLIYp5kKgi-Qh3DIxoyZMOzt8gwnONAsjFHZykTkkdNehjBsKMnzwnGxirMcLSMruKW6E-XUrsJ-2REWS6Vj0-mtGG_-73NMVuzlGjFxRuDGg3Dy8fwyK6xJzmFwVlTPmsroiDPsCYFe82IQAL668A7s1Le20OkoBVm00]--></g></svg>