<?plantuml 1.2026.1?><svg xmlns="http://www.w3.org/2000/svg" xmlns:xlink="http://www.w3.org/1999/xlink" contentStyleType="text/css" data-diagram-type="CLASS" height="1198px" preserveAspectRatio="none" style="width:801px;height:1198px;background:#FFFFFF;" version="1.1" viewBox="0 0 801 1198" width="801px" zoomAndPan="magnify"><defs/><g><!--cluster bo4e--><g class="cluster" data-qualified-name="bo4e" data-source-line="16" id="ent0005"><path d="M488.14,6 L528.016,6 A3.75,3.75 0 0 1 530.516,8.5 L537.516,28.2969 L792,28.2969 A2.5,2.5 0 0 1 794.5,30.7969 L794.5,1188.5 A2.5,2.5 0 0 1 792,1191 L488.14,1191 A2.5,2.5 0 0 1 485.64,1188.5 L485.64,8.5 A2.5,2.5 0 0 1 488.14,6" fill="none" style="stroke:#000000;stroke-width:1.5;"/><line style="stroke:#000000;stroke-width:1.5;" x1="485.64" x2="537.516" y1="28.2969" y2="28.2969"/><text fill="#000000" font-family="sans-serif" font-size="14" font-weight="bold" lengthAdjust="spacing" textLength="38.876" x="489.64" y="20.9951">bo4e</text></g><!--cluster bo--><g class="cluster" data-qualified-name="bo4e.bo" data-source-line="15" id="ent0003"><path d="M552.44,49 L617.274,49 A3.75,3.75 0 0 1 619.774,51.5 L626.774,71.2969 L727.7,71.2969 A2.5,2.5 0 0 1 730.2,73.7969 L730.2,135.5 A2.5,2.5 0 0 1 727.7,138 L552.44,138 A2.5,2.5 0 0 1 549.94,135.5 L549.94,51.5 A2.5,2.5 0 0 1 552.44,49" fill="#B6D7A8" style="stroke:#000000;stroke-width:1.5;"/><line style="stroke:#000000;stroke-width:1.5;" x1="549.94" x2="626.774" y1="71.2969" y2="71.2969"/><text fill="#000000" font-family="sans-serif" font-size="14" font-weight="bold" lengthAdjust="spacing" textLength="63.834" x="553.94" y="63.9951">bo4e.bo</text></g><!--cluster com--><g class="cluster" data-qualified-name="bo4e.com" data-source-line="24" id="ent0006"><path d="M512.14,162 L589.8392,162 A3.75,3.75 0 0 1 592.3392,164.5 L599.3392,184.2969 L768,184.2969 A2.5,2.5 0 0 1 770.5,186.7969 L770.5,759.5 A2.5,2.5 0 0 1 768,762 L512.14,762 A2.5,2.5 0 0 1 509.64,759.5 L509.64,164.5 A2.5,2.5 0 0 1 512.14,162" fill="#E0A86C" style="stroke:#000000;stroke-width:1.5;"/><line style="stroke:#000000;stroke-width:1.5;" x1="509.64" x2="599.3392" y1="184.2969" y2="184.2969"/><text fill="#000000" font-family="sans-serif" font-size="14" font-weight="bold" lengthAdjust="spacing" textLength="76.6992" x="513.64" y="176.9951">bo4e.com</text></g><!--cluster enum--><g class="cluster" data-qualified-name="bo4e.enum" data-source-line="93" id="ent0015"><path d="M557.41,786 L646.6209,786 A3.75,3.75 0 0 1 649.1209,788.5 L656.1209,808.2969 L722.74,808.2969 A2.5,2.5 0 0 1 725.24,810.7969 L725.24,1164.5 A2.5,2.5 0 0 1 722.74,1167 L557.41,1167 A2.5,2.5 0 0 1 554.91,1164.5 L554.91,788.5 A2.5,2.5 0 0 1 557.41,786" fill="#D1C358" style="stroke:#000000;stroke-width:1.5;"/><line style="stroke:#000000;stroke-width:1.5;" x1="554.91" x2="656.1209" y1="808.2969" y2="808.2969"/><text fill="#000000" font-family="sans-serif" font-size="14" font-weight="bold" lengthAdjust="spacing" textLength="88.2109" x="558.91" y="800.9951">bo4e.enum</text></g><!--class Marktteilnehmer--><g class="entity" data-qualified-name="bo4e.bo.Marktteilnehmer" data-source-line="16" id="ent0004"><rect fill="#F1F1F1" height="37.9375" rx="2.5" ry="2.5" style="stroke:#181818;stroke-width:0.5;" width="148.2588" x="565.94" y="84.03"/><ellipse cx="580.94" cy="102.9987" fill="#ADD1B2" rx="11" ry="11" style="stroke:#181818;stroke-width:1;"/><path d="M583.9088,108.6394 Q583.3306,108.9362 582.69,109.0769 Q582.0494,109.2331 581.3463,109.2331 Q578.8463,109.2331 577.5181,107.5925 Q576.2056,105.9362 576.2056,102.8112 Q576.2056,99.6862 577.5181,98.03 Q578.8463,96.3737 581.3463,96.3737 Q582.0494,96.3737 582.69,96.53 Q583.3463,96.6862 583.9088,96.9831 L583.9088,99.7019 Q583.2838,99.1237 582.69,98.8581 Q582.0963,98.5769 581.4713,98.5769 Q580.1275,98.5769 579.44,99.655 Q578.7525,100.7175 578.7525,102.8112 Q578.7525,104.905 579.44,105.9831 Q580.1275,107.0456 581.4713,107.0456 Q582.0963,107.0456 582.69,106.78 Q583.2838,106.4987 583.9088,105.9206 L583.9088,108.6394 Z " fill="#000000"/><a href="https://bo4e.github.io/BO4E-python/latest/api/bo.Marktteilnehmer.html" target="_top" title="https://bo4e.github.io/BO4E-python/latest/api/bo.Marktteilnehmer.html" xlink:actuate="onRequest" xlink:href="https://bo4e.github.io/BO4E-python/latest/api/bo.Marktteilnehmer.html" xlink:show="new" xlink:title="https://bo4e.github.io/BO4E-python/latest/api/bo.Marktteilnehmer.html" xlink:type="simple"><text fill="#0000FF" font-family="sans-serif" font-size="14" lengthAdjust="spacing" text-decoration="underline" textLength="116.2588" x="594.94" y="102.0251">Marktteilnehmer</text></a><text fill="#000000" font-family="sans-serif" font-size="10" lengthAdjust="spacing" textLength="98.6865" x="603.7261" y="114.6091">bo.Marktteilnehmer</text></g><!--class Energiemix--><g class="entity" data-qualified-name="bo4e.com.Energiemix" data-source-line="25" id="ent0007"><rect fill="#F1F1F1" height="37.9375" rx="2.5" ry="2.5" style="stroke:#181818;stroke-width:0.5;" width="113.1719" x="583.49" y="197.03"/><ellipse cx="598.49" cy="215.9987" fill="#ADD1B2" rx="11" ry="11" style="stroke:#181818;stroke-width:1;"/><path d="M601.4588,221.6394 Q600.8806,221.9362 600.24,222.0769 Q599.5994,222.2331 598.8963,222.2331 Q596.3963,222.2331 595.0681,220.5925 Q593.7556,218.9362 593.7556,215.8112 Q593.7556,212.6862 595.0681,211.03 Q596.3963,209.3737 598.8963,209.3737 Q599.5994,209.3737 600.24,209.53 Q600.8963,209.6862 601.4588,209.9831 L601.4588,212.7019 Q600.8338,212.1237 600.24,211.8581 Q599.6463,211.5769 599.0213,211.5769 Q597.6775,211.5769 596.99,212.655 Q596.3025,213.7175 596.3025,215.8112 Q596.3025,217.905 596.99,218.9831 Q597.6775,220.0456 599.0213,220.0456 Q599.6463,220.0456 600.24,219.78 Q600.8338,219.4987 601.4588,218.9206 L601.4588,221.6394 Z " fill="#000000"/><a href="https://bo4e.github.io/BO4E-python/latest/api/com.Energiemix.html" target="_top" title="https://bo4e.github.io/BO4E-python/latest/api/com.Energiemix.html" xlink:actuate="onRequest" xlink:href="https://bo4e.github.io/BO4E-python/latest/api/com.Energiemix.html" xlink:show="new" xlink:title="https://bo4e.github.io/BO4E-python/latest/api/com.Energiemix.html" xlink:type="simple"><text fill="#0000FF" font-family="sans-serif" font-size="14" lengthAdjust="spacing" text-decoration="underline" textLength="79.29" x="613.4309" y="215.0251">Energiemix</text></a><text fill="#000000" font-family="sans-serif" font-size="10" lengthAdjust="spacing" textLength="81.1719" x="612.49" y="227.6091">com.Energiemix</text></g><!--class RegionalePreisgarantie--><g class="entity" data-qualified-name="bo4e.com.RegionalePreisgarantie" data-source-line="38" id="ent0008"><rect fill="#F1F1F1" height="37.9375" rx="2.5" ry="2.5" style="stroke:#181818;stroke-width:0.5;" width="194.2988" x="542.92" y="270.03"/><ellipse cx="557.92" cy="288.9988" fill="#ADD1B2" rx="11" ry="11" style="stroke:#181818;stroke-width:1;"/><path d="M560.8888,294.6394 Q560.3106,294.9363 559.67,295.0769 Q559.0294,295.2331 558.3263,295.2331 Q555.8263,295.2331 554.4981,293.5925 Q553.1856,291.9363 553.1856,288.8113 Q553.1856,285.6863 554.4981,284.03 Q555.8263,282.3738 558.3263,282.3738 Q559.0294,282.3738 559.67,282.53 Q560.3263,282.6863 560.8888,282.9831 L560.8888,285.7019 Q560.2638,285.1238 559.67,284.8581 Q559.0763,284.5769 558.4513,284.5769 Q557.1075,284.5769 556.42,285.655 Q555.7325,286.7175 555.7325,288.8113 Q555.7325,290.905 556.42,291.9831 Q557.1075,293.0456 558.4513,293.0456 Q559.0763,293.0456 559.67,292.78 Q560.2638,292.4988 560.8888,291.9206 L560.8888,294.6394 Z " fill="#000000"/><a href="https://bo4e.github.io/BO4E-python/latest/api/com.RegionalePreisgarantie.html" target="_top" title="https://bo4e.github.io/BO4E-python/latest/api/com.RegionalePreisgarantie.html" xlink:actuate="onRequest" xlink:href="https://bo4e.github.io/BO4E-python/latest/api/com.RegionalePreisgarantie.html" xlink:show="new" xlink:title="https://bo4e.github.io/BO4E-python/latest/api/com.RegionalePreisgarantie.html" xlink:type="simple"><text fill="#0000FF" font-family="sans-serif" font-size="14" lengthAdjust="spacing" text-decoration="underline" textLength="162.2988" x="571.92" y="288.0251">RegionalePreisgarantie</text></a><text fill="#000000" font-family="sans-serif" font-size="10" lengthAdjust="spacing" textLength="140.4639" x="582.8375" y="300.6091">com.RegionalePreisgarantie</text></g><!--class RegionaleTarifpreisposition--><g class="entity" data-qualified-name="bo4e.com.RegionaleTarifpreisposition" data-source-line="44" id="ent0009"><rect fill="#F1F1F1" height="37.9375" rx="2.5" ry="2.5" style="stroke:#181818;stroke-width:0.5;" width="223.2354" x="528.45" y="343.03"/><ellipse cx="543.45" cy="361.9988" fill="#ADD1B2" rx="11" ry="11" style="stroke:#181818;stroke-width:1;"/><path d="M546.4188,367.6394 Q545.8406,367.9363 545.2,368.0769 Q544.5594,368.2331 543.8563,368.2331 Q541.3563,368.2331 540.0281,366.5925 Q538.7156,364.9363 538.7156,361.8113 Q538.7156,358.6863 540.0281,357.03 Q541.3563,355.3738 543.8563,355.3738 Q544.5594,355.3738 545.2,355.53 Q545.8563,355.6863 546.4188,355.9831 L546.4188,358.7019 Q545.7938,358.1238 545.2,357.8581 Q544.6063,357.5769 543.9813,357.5769 Q542.6375,357.5769 541.95,358.655 Q541.2625,359.7175 541.2625,361.8113 Q541.2625,363.905 541.95,364.9831 Q542.6375,366.0456 543.9813,366.0456 Q544.6063,366.0456 545.2,365.78 Q545.7938,365.4988 546.4188,364.9206 L546.4188,367.6394 Z " fill="#000000"/><a href="https://bo4e.github.io/BO4E-python/latest/api/com.RegionaleTarifpreisposition.html" target="_top" title="https://bo4e.github.io/BO4E-python/latest/api/com.RegionaleTarifpreisposition.html" xlink:actuate="onRequest" xlink:href="https://bo4e.github.io/BO4E-python/latest/api/com.RegionaleTarifpreisposition.html" xlink:show="new" xlink:title="https://bo4e.github.io/BO4E-python/latest/api/com.RegionaleTarifpreisposition.html" xlink:type="simple"><text fill="#0000FF" font-family="sans-serif" font-size="14" lengthAdjust="spacing" text-decoration="underline" textLength="191.2354" x="557.45" y="361.0251">RegionaleTarifpreisposition</text></a><text fill="#000000" font-family="sans-serif" font-size="10" lengthAdjust="spacing" textLength="161.1328" x="572.5013" y="373.6091">com.RegionaleTarifpreisposition</text></g><!--class RegionalerAufAbschlag--><g class="entity" data-qualified-name="bo4e.com.RegionalerAufAbschlag" data-source-line="49" id="ent0010"><rect fill="#F1F1F1" height="37.9375" rx="2.5" ry="2.5" style="stroke:#181818;stroke-width:0.5;" width="194.4561" x="542.84" y="416.03"/><ellipse cx="557.84" cy="434.9988" fill="#ADD1B2" rx="11" ry="11" style="stroke:#181818;stroke-width:1;"/><path d="M560.8088,440.6394 Q560.2306,440.9363 559.59,441.0769 Q558.9494,441.2331 558.2463,441.2331 Q555.7463,441.2331 554.4181,439.5925 Q553.1056,437.9363 553.1056,434.8113 Q553.1056,431.6863 554.4181,430.03 Q555.7463,428.3738 558.2463,428.3738 Q558.9494,428.3738 559.59,428.53 Q560.2463,428.6863 560.8088,428.9831 L560.8088,431.7019 Q560.1838,431.1238 559.59,430.8581 Q558.9963,430.5769 558.3713,430.5769 Q557.0275,430.5769 556.34,431.655 Q555.6525,432.7175 555.6525,434.8113 Q555.6525,436.905 556.34,437.9831 Q557.0275,439.0456 558.3713,439.0456 Q558.9963,439.0456 559.59,438.78 Q560.1838,438.4988 560.8088,437.9206 L560.8088,440.6394 Z " fill="#000000"/><a href="https://bo4e.github.io/BO4E-python/latest/api/com.RegionalerAufAbschlag.html" target="_top" title="https://bo4e.github.io/BO4E-python/latest/api/com.RegionalerAufAbschlag.html" xlink:actuate="onRequest" xlink:href="https://bo4e.github.io/BO4E-python/latest/api/com.RegionalerAufAbschlag.html" xlink:show="new" xlink:title="https://bo4e.github.io/BO4E-python/latest/api/com.RegionalerAufAbschlag.html" xlink:type="simple"><text fill="#0000FF" font-family="sans-serif" font-size="14" lengthAdjust="spacing" text-decoration="underline" textLength="162.4561" x="571.84" y="434.0251">RegionalerAufAbschlag</text></a><text fill="#000000" font-family="sans-serif" font-size="10" lengthAdjust="spacing" textLength="140.5762" x="582.7799" y="446.6091">com.RegionalerAufAbschlag</text></g><!--class Tarifberechnungsparameter--><g class="entity" data-qualified-name="bo4e.com.Tarifberechnungsparameter" data-source-line="60" id="ent0011"><rect fill="#F1F1F1" height="37.9375" rx="2.5" ry="2.5" style="stroke:#181818;stroke-width:0.5;" width="228.8545" x="525.64" y="489.03"/><ellipse cx="540.64" cy="507.9988" fill="#ADD1B2" rx="11" ry="11" style="stroke:#181818;stroke-width:1;"/><path d="M543.6088,513.6394 Q543.0306,513.9363 542.39,514.0769 Q541.7494,514.2331 541.0463,514.2331 Q538.5463,514.2331 537.2181,512.5925 Q535.9056,510.9363 535.9056,507.8113 Q535.9056,504.6863 537.2181,503.03 Q538.5463,501.3738 541.0463,501.3738 Q541.7494,501.3738 542.39,501.53 Q543.0463,501.6863 543.6088,501.9831 L543.6088,504.7019 Q542.9838,504.1238 542.39,503.8581 Q541.7963,503.5769 541.1713,503.5769 Q539.8275,503.5769 539.14,504.655 Q538.4525,505.7175 538.4525,507.8113 Q538.4525,509.905 539.14,510.9831 Q539.8275,512.0456 541.1713,512.0456 Q541.7963,512.0456 542.39,511.78 Q542.9838,511.4988 543.6088,510.9206 L543.6088,513.6394 Z " fill="#000000"/><a href="https://bo4e.github.io/BO4E-python/latest/api/com.Tarifberechnungsparameter.html" target="_top" title="https://bo4e.github.io/BO4E-python/latest/api/com.Tarifberechnungsparameter.html" xlink:actuate="onRequest" xlink:href="https://bo4e.github.io/BO4E-python/latest/api/com.Tarifberechnungsparameter.html" xlink:show="new" xlink:title="https://bo4e.github.io/BO4E-python/latest/api/com.Tarifberechnungsparameter.html" xlink:type="simple"><text fill="#0000FF" font-family="sans-serif" font-size="14" lengthAdjust="spacing" text-decoration="underline" textLength="196.8545" x="554.64" y="507.0251">Tarifberechnungsparameter</text></a><text fill="#000000" font-family="sans-serif" font-size="10" lengthAdjust="spacing" textLength="165.1465" x="570.494" y="519.6091">com.Tarifberechnungsparameter</text></g><!--class Tarifeinschraenkung--><g class="entity" data-qualified-name="bo4e.com.Tarifeinschraenkung" data-source-line="69" id="ent0012"><rect fill="#F1F1F1" height="37.9375" rx="2.5" ry="2.5" style="stroke:#181818;stroke-width:0.5;" width="175.5068" x="552.32" y="562.03"/><ellipse cx="567.32" cy="580.9988" fill="#ADD1B2" rx="11" ry="11" style="stroke:#181818;stroke-width:1;"/><path d="M570.2888,586.6394 Q569.7106,586.9363 569.07,587.0769 Q568.4294,587.2331 567.7263,587.2331 Q565.2263,587.2331 563.8981,585.5925 Q562.5856,583.9363 562.5856,580.8113 Q562.5856,577.6863 563.8981,576.03 Q565.2263,574.3738 567.7263,574.3738 Q568.4294,574.3738 569.07,574.53 Q569.7263,574.6863 570.2888,574.9831 L570.2888,577.7019 Q569.6638,577.1238 569.07,576.8581 Q568.4763,576.5769 567.8513,576.5769 Q566.5075,576.5769 565.82,577.655 Q565.1325,578.7175 565.1325,580.8113 Q565.1325,582.905 565.82,583.9831 Q566.5075,585.0456 567.8513,585.0456 Q568.4763,585.0456 569.07,584.78 Q569.6638,584.4988 570.2888,583.9206 L570.2888,586.6394 Z " fill="#000000"/><a href="https://bo4e.github.io/BO4E-python/latest/api/com.Tarifeinschraenkung.html" target="_top" title="https://bo4e.github.io/BO4E-python/latest/api/com.Tarifeinschraenkung.html" xlink:actuate="onRequest" xlink:href="https://bo4e.github.io/BO4E-python/latest/api/com.Tarifeinschraenkung.html" xlink:show="new" xlink:title="https://bo4e.github.io/BO4E-python/latest/api/com.Tarifeinschraenkung.html" xlink:type="simple"><text fill="#0000FF" font-family="sans-serif" font-size="14" lengthAdjust="spacing" text-decoration="underline" textLength="143.5068" x="581.32" y="580.0251">Tarifeinschraenkung</text></a><text fill="#000000" font-family="sans-serif" font-size="10" lengthAdjust="spacing" textLength="127.041" x="589.5529" y="592.6091">com.Tarifeinschraenkung</text></g><!--class Vertragskonditionen--><g class="entity" data-qualified-name="bo4e.com.Vertragskonditionen" data-source-line="75" id="ent0013"><rect fill="#F1F1F1" height="37.9375" rx="2.5" ry="2.5" style="stroke:#181818;stroke-width:0.5;" width="174.5771" x="552.78" y="635.03"/><ellipse cx="567.78" cy="653.9988" fill="#ADD1B2" rx="11" ry="11" style="stroke:#181818;stroke-width:1;"/><path d="M570.7488,659.6394 Q570.1706,659.9363 569.53,660.0769 Q568.8894,660.2331 568.1863,660.2331 Q565.6863,660.2331 564.3581,658.5925 Q563.0456,656.9363 563.0456,653.8113 Q563.0456,650.6863 564.3581,649.03 Q565.6863,647.3738 568.1863,647.3738 Q568.8894,647.3738 569.53,647.53 Q570.1863,647.6863 570.7488,647.9831 L570.7488,650.7019 Q570.1238,650.1238 569.53,649.8581 Q568.9363,649.5769 568.3113,649.5769 Q566.9675,649.5769 566.28,650.655 Q565.5925,651.7175 565.5925,653.8113 Q565.5925,655.905 566.28,656.9831 Q566.9675,658.0456 568.3113,658.0456 Q568.9363,658.0456 569.53,657.78 Q570.1238,657.4988 570.7488,656.9206 L570.7488,659.6394 Z " fill="#000000"/><a href="https://bo4e.github.io/BO4E-python/latest/api/com.Vertragskonditionen.html" target="_top" title="https://bo4e.github.io/BO4E-python/latest/api/com.Vertragskonditionen.html" xlink:actuate="onRequest" xlink:href="https://bo4e.github.io/BO4E-python/latest/api/com.Vertragskonditionen.html" xlink:show="new" xlink:title="https://bo4e.github.io/BO4E-python/latest/api/com.Vertragskonditionen.html" xlink:type="simple"><text fill="#0000FF" font-family="sans-serif" font-size="14" lengthAdjust="spacing" text-decoration="underline" textLength="142.5771" x="581.78" y="653.0251">Vertragskonditionen</text></a><text fill="#000000" font-family="sans-serif" font-size="10" lengthAdjust="spacing" textLength="126.377" x="589.8801" y="665.6091">com.Vertragskonditionen</text></g><!--class Zeitraum--><g class="entity" data-qualified-name="bo4e.com.Zeitraum" data-source-line="82" id="ent0014"><rect fill="#F1F1F1" height="37.9375" rx="2.5" ry="2.5" style="stroke:#181818;stroke-width:0.5;" width="102.5566" x="588.79" y="708.03"/><ellipse cx="603.79" cy="726.9988" fill="#ADD1B2" rx="11" ry="11" style="stroke:#181818;stroke-width:1;"/><path d="M606.7588,732.6394 Q606.1806,732.9363 605.54,733.0769 Q604.8994,733.2331 604.1963,733.2331 Q601.6963,733.2331 600.3681,731.5925 Q599.0556,729.9363 599.0556,726.8113 Q599.0556,723.6863 600.3681,722.03 Q601.6963,720.3738 604.1963,720.3738 Q604.8994,720.3738 605.54,720.53 Q606.1963,720.6863 606.7588,720.9831 L606.7588,723.7019 Q606.1338,723.1238 605.54,722.8581 Q604.9463,722.5769 604.3213,722.5769 Q602.9775,722.5769 602.29,723.655 Q601.6025,724.7175 601.6025,726.8113 Q601.6025,728.905 602.29,729.9831 Q602.9775,731.0456 604.3213,731.0456 Q604.9463,731.0456 605.54,730.78 Q606.1338,730.4988 606.7588,729.9206 L606.7588,732.6394 Z " fill="#000000"/><a href="https://bo4e.github.io/BO4E-python/latest/api/com.Zeitraum.html" target="_top" title="https://bo4e.github.io/BO4E-python/latest/api/com.Zeitraum.html" xlink:actuate="onRequest" xlink:href="https://bo4e.github.io/BO4E-python/latest/api/com.Zeitraum.html" xlink:show="new" xlink:title="https://bo4e.github.io/BO4E-python/latest/api/com.Zeitraum.html" xlink:type="simple"><text fill="#0000FF" font-family="sans-serif" font-size="14" lengthAdjust="spacing" text-decoration="underline" textLength="64.4287" x="620.854" y="726.0251">Zeitraum</text></a><text fill="#000000" font-family="sans-serif" font-size="10" lengthAdjust="spacing" textLength="70.5566" x="617.79" y="738.6091">com.Zeitraum</text></g><!--class Kundentyp--><g class="entity" data-qualified-name="bo4e.enum.Kundentyp" data-source-line="94" id="ent0016"><rect fill="#F1F1F1" height="37.9375" rx="2.5" ry="2.5" style="stroke:#181818;stroke-width:0.5;" width="118.0059" x="581.07" y="821.03"/><ellipse cx="596.07" cy="839.9988" fill="#ADD1B2" rx="11" ry="11" style="stroke:#181818;stroke-width:1;"/><path d="M599.0388,845.6394 Q598.4606,845.9363 597.82,846.0769 Q597.1794,846.2331 596.4763,846.2331 Q593.9763,846.2331 592.6481,844.5925 Q591.3356,842.9363 591.3356,839.8113 Q591.3356,836.6863 592.6481,835.03 Q593.9763,833.3738 596.4763,833.3738 Q597.1794,833.3738 597.82,833.53 Q598.4763,833.6863 599.0388,833.9831 L599.0388,836.7019 Q598.4138,836.1238 597.82,835.8581 Q597.2263,835.5769 596.6013,835.5769 Q595.2575,835.5769 594.57,836.655 Q593.8825,837.7175 593.8825,839.8113 Q593.8825,841.905 594.57,842.9831 Q595.2575,844.0456 596.6013,844.0456 Q597.2263,844.0456 597.82,843.78 Q598.4138,843.4988 599.0388,842.9206 L599.0388,845.6394 Z " fill="#000000"/><a href="https://bo4e.github.io/BO4E-python/latest/api/enum.Kundentyp.html" target="_top" title="https://bo4e.github.io/BO4E-python/latest/api/enum.Kundentyp.html" xlink:actuate="onRequest" xlink:href="https://bo4e.github.io/BO4E-python/latest/api/enum.Kundentyp.html" xlink:show="new" xlink:title="https://bo4e.github.io/BO4E-python/latest/api/enum.Kundentyp.html" xlink:type="simple"><text fill="#0000FF" font-family="sans-serif" font-size="14" lengthAdjust="spacing" text-decoration="underline" textLength="75.9609" x="615.0925" y="839.0251">Kundentyp</text></a><text fill="#000000" font-family="sans-serif" font-size="10" lengthAdjust="spacing" textLength="86.0059" x="610.07" y="851.6091">enum.Kundentyp</text></g><!--class Registeranzahl--><g class="entity" data-qualified-name="bo4e.enum.Registeranzahl" data-source-line="96" id="ent0017"><rect fill="#F1F1F1" height="37.9375" rx="2.5" ry="2.5" style="stroke:#181818;stroke-width:0.5;" width="138.3281" x="570.91" y="894.03"/><ellipse cx="585.91" cy="912.9988" fill="#ADD1B2" rx="11" ry="11" style="stroke:#181818;stroke-width:1;"/><path d="M588.8788,918.6394 Q588.3006,918.9363 587.66,919.0769 Q587.0194,919.2331 586.3163,919.2331 Q583.8163,919.2331 582.4881,917.5925 Q581.1756,915.9363 581.1756,912.8113 Q581.1756,909.6863 582.4881,908.03 Q583.8163,906.3738 586.3163,906.3738 Q587.0194,906.3738 587.66,906.53 Q588.3163,906.6863 588.8788,906.9831 L588.8788,909.7019 Q588.2538,909.1238 587.66,908.8581 Q587.0663,908.5769 586.4413,908.5769 Q585.0975,908.5769 584.41,909.655 Q583.7225,910.7175 583.7225,912.8113 Q583.7225,914.905 584.41,915.9831 Q585.0975,917.0456 586.4413,917.0456 Q587.0663,917.0456 587.66,916.78 Q588.2538,916.4988 588.8788,915.9206 L588.8788,918.6394 Z " fill="#000000"/><a href="https://bo4e.github.io/BO4E-python/latest/api/enum.Registeranzahl.html" target="_top" title="https://bo4e.github.io/BO4E-python/latest/api/enum.Registeranzahl.html" xlink:actuate="onRequest" xlink:href="https://bo4e.github.io/BO4E-python/latest/api/enum.Registeranzahl.html" xlink:show="new" xlink:title="https://bo4e.github.io/BO4E-python/latest/api/enum.Registeranzahl.html" xlink:type="simple"><text fill="#0000FF" font-family="sans-serif" font-size="14" lengthAdjust="spacing" text-decoration="underline" textLength="104.4121" x="600.868" y="912.0251">Registeranzahl</text></a><text fill="#000000" font-family="sans-serif" font-size="10" lengthAdjust="spacing" textLength="106.3281" x="599.91" y="924.6091">enum.Registeranzahl</text></g><!--class Sparte--><g class="entity" data-qualified-name="bo4e.enum.Sparte" data-source-line="98" id="ent0018"><rect fill="#F1F1F1" height="37.9375" rx="2.5" ry="2.5" style="stroke:#181818;stroke-width:0.5;" width="96.7559" x="591.69" y="967.03"/><ellipse cx="606.69" cy="985.9988" fill="#ADD1B2" rx="11" ry="11" style="stroke:#181818;stroke-width:1;"/><path d="M609.6588,991.6394 Q609.0806,991.9363 608.44,992.0769 Q607.7994,992.2331 607.0963,992.2331 Q604.5963,992.2331 603.2681,990.5925 Q601.9556,988.9363 601.9556,985.8113 Q601.9556,982.6863 603.2681,981.03 Q604.5963,979.3738 607.0963,979.3738 Q607.7994,979.3738 608.44,979.53 Q609.0963,979.6863 609.6588,979.9831 L609.6588,982.7019 Q609.0338,982.1238 608.44,981.8581 Q607.8463,981.5769 607.2213,981.5769 Q605.8775,981.5769 605.19,982.655 Q604.5025,983.7175 604.5025,985.8113 Q604.5025,987.905 605.19,988.9831 Q605.8775,990.0456 607.2213,990.0456 Q607.8463,990.0456 608.44,989.78 Q609.0338,989.4988 609.6588,988.9206 L609.6588,991.6394 Z " fill="#000000"/><a href="https://bo4e.github.io/BO4E-python/latest/api/enum.Sparte.html" target="_top" title="https://bo4e.github.io/BO4E-python/latest/api/enum.Sparte.html" xlink:actuate="onRequest" xlink:href="https://bo4e.github.io/BO4E-python/latest/api/enum.Sparte.html" xlink:show="new" xlink:title="https://bo4e.github.io/BO4E-python/latest/api/enum.Sparte.html" xlink:type="simple"><text fill="#0000FF" font-family="sans-serif" font-size="14" lengthAdjust="spacing" text-decoration="underline" textLength="46.2109" x="629.9625" y="985.0251">Sparte</text></a><text fill="#000000" font-family="sans-serif" font-size="10" lengthAdjust="spacing" textLength="64.7559" x="620.69" y="997.6091">enum.Sparte</text></g><!--class Tarifmerkmal--><g class="entity" data-qualified-name="bo4e.enum.Tarifmerkmal" data-source-line="100" id="ent0019"><rect fill="#F1F1F1" height="37.9375" rx="2.5" ry="2.5" style="stroke:#181818;stroke-width:0.5;" width="130.8379" x="574.65" y="1040.03"/><ellipse cx="589.65" cy="1058.9988" fill="#ADD1B2" rx="11" ry="11" style="stroke:#181818;stroke-width:1;"/><path d="M592.6188,1064.6394 Q592.0406,1064.9363 591.4,1065.0769 Q590.7594,1065.2331 590.0563,1065.2331 Q587.5563,1065.2331 586.2281,1063.5925 Q584.9156,1061.9363 584.9156,1058.8113 Q584.9156,1055.6863 586.2281,1054.03 Q587.5563,1052.3738 590.0563,1052.3738 Q590.7594,1052.3738 591.4,1052.53 Q592.0563,1052.6863 592.6188,1052.9831 L592.6188,1055.7019 Q591.9938,1055.1238 591.4,1054.8581 Q590.8063,1054.5769 590.1813,1054.5769 Q588.8375,1054.5769 588.15,1055.655 Q587.4625,1056.7175 587.4625,1058.8113 Q587.4625,1060.905 588.15,1061.9831 Q588.8375,1063.0456 590.1813,1063.0456 Q590.8063,1063.0456 591.4,1062.78 Q591.9938,1062.4988 592.6188,1061.9206 L592.6188,1064.6394 Z " fill="#000000"/><a href="https://bo4e.github.io/BO4E-python/latest/api/enum.Tarifmerkmal.html" target="_top" title="https://bo4e.github.io/BO4E-python/latest/api/enum.Tarifmerkmal.html" xlink:actuate="onRequest" xlink:href="https://bo4e.github.io/BO4E-python/latest/api/enum.Tarifmerkmal.html" xlink:show="new" xlink:title="https://bo4e.github.io/BO4E-python/latest/api/enum.Tarifmerkmal.html" xlink:type="simple"><text fill="#0000FF" font-family="sans-serif" font-size="14" lengthAdjust="spacing" text-decoration="underline" textLength="93.9258" x="606.1061" y="1058.0251">Tarifmerkmal</text></a><text fill="#000000" font-family="sans-serif" font-size="10" lengthAdjust="spacing" textLength="98.8379" x="603.65" y="1070.6091">enum.Tarifmerkmal</text></g><!--class Tariftyp--><g class="entity" data-qualified-name="bo4e.enum.Tariftyp" data-source-line="102" id="ent0020"><rect fill="#F1F1F1" height="37.9375" rx="2.5" ry="2.5" style="stroke:#181818;stroke-width:0.5;" width="102.5811" x="588.78" y="1113.03"/><ellipse cx="603.78" cy="1131.9988" fill="#ADD1B2" rx="11" ry="11" style="stroke:#181818;stroke-width:1;"/><path d="M606.7488,1137.6394 Q606.1706,1137.9363 605.53,1138.0769 Q604.8894,1138.2331 604.1863,1138.2331 Q601.6863,1138.2331 600.3581,1136.5925 Q599.0456,1134.9363 599.0456,1131.8113 Q599.0456,1128.6863 600.3581,1127.03 Q601.6863,1125.3738 604.1863,1125.3738 Q604.8894,1125.3738 605.53,1125.53 Q606.1863,1125.6863 606.7488,1125.9831 L606.7488,1128.7019 Q606.1238,1128.1238 605.53,1127.8581 Q604.9363,1127.5769 604.3113,1127.5769 Q602.9675,1127.5769 602.28,1128.655 Q601.5925,1129.7175 601.5925,1131.8113 Q601.5925,1133.905 602.28,1134.9831 Q602.9675,1136.0456 604.3113,1136.0456 Q604.9363,1136.0456 605.53,1135.78 Q606.1238,1135.4988 606.7488,1134.9206 L606.7488,1137.6394 Z " fill="#000000"/><a href="https://bo4e.github.io/BO4E-python/latest/api/enum.Tariftyp.html" target="_top" title="https://bo4e.github.io/BO4E-python/latest/api/enum.Tariftyp.html" xlink:actuate="onRequest" xlink:href="https://bo4e.github.io/BO4E-python/latest/api/enum.Tariftyp.html" xlink:show="new" xlink:title="https://bo4e.github.io/BO4E-python/latest/api/enum.Tariftyp.html" xlink:type="simple"><text fill="#0000FF" font-family="sans-serif" font-size="14" lengthAdjust="spacing" text-decoration="underline" textLength="54.3662" x="625.8874" y="1131.0251">Tariftyp</text></a><text fill="#000000" font-family="sans-serif" font-size="10" lengthAdjust="spacing" textLength="70.5811" x="617.78" y="1143.6091">enum.Tariftyp</text></g><!--class Regionaltarif--><g class="entity" data-qualified-name="Regionaltarif" data-source-line="3" id="ent0002"><rect fill="#F1F1F1" height="192.6094" rx="2.5" ry="2.5" style="stroke:#181818;stroke-width:0.5;" width="277.6445" x="7" y="525.7"/><ellipse cx="96.7388" cy="544.6688" fill="#ADD1B2" rx="11" ry="11" style="stroke:#181818;stroke-width:1;"/><path d="M99.7075,550.3094 Q99.1294,550.6063 98.4888,550.7469 Q97.8481,550.9031 97.145,550.9031 Q94.645,550.9031 93.3169,549.2625 Q92.0044,547.6063 92.0044,544.4813 Q92.0044,541.3563 93.3169,539.7 Q94.645,538.0438 97.145,538.0438 Q97.8481,538.0438 98.4888,538.2 Q99.145,538.3563 99.7075,538.6531 L99.7075,541.3719 Q99.0825,540.7938 98.4888,540.5281 Q97.895,540.2469 97.27,540.2469 Q95.9263,540.2469 95.2388,541.325 Q94.5513,542.3875 94.5513,544.4813 Q94.5513,546.575 95.2388,547.6531 Q95.9263,548.7156 97.27,548.7156 Q97.895,548.7156 98.4888,548.45 Q99.0825,548.1688 99.7075,547.5906 L99.7075,550.3094 Z " fill="#000000"/><a href="https://bo4e.github.io/BO4E-python/latest/api/bo.Regionaltarif.html" target="_top" title="https://bo4e.github.io/BO4E-python/latest/api/bo.Regionaltarif.html" xlink:actuate="onRequest" xlink:href="https://bo4e.github.io/BO4E-python/latest/api/bo.Regionaltarif.html" xlink:show="new" xlink:title="https://bo4e.github.io/BO4E-python/latest/api/bo.Regionaltarif.html" xlink:type="simple"><text fill="#0000FF" font-family="sans-serif" font-size="14" lengthAdjust="spacing" text-decoration="underline" textLength="89.667" x="117.2388" y="543.6951">Regionaltarif</text></a><text fill="#000000" font-family="sans-serif" font-size="10" lengthAdjust="spacing" textLength="79.6924" x="122.2261" y="556.2791">bo.Regionaltarif</text><line style="stroke:#181818;stroke-width:0.5;" x1="8" x2="283.6445" y1="563.6375" y2="563.6375"/><text fill="#000000" font-family="sans-serif" font-size="14" lengthAdjust="spacing" textLength="94.0215" x="13" y="580.6326">_id : str [0..1]</text><text fill="#000000" font-family="sans-serif" font-size="14" lengthAdjust="spacing" textLength="265.6445" x="13" y="596.9295">_typ : Literal["REGIONALTARIF"] [0..1]</text><text fill="#000000" font-family="sans-serif" font-size="14" lengthAdjust="spacing" textLength="132.5215" x="13" y="613.2264">_version : str [0..1]</text><text fill="#000000" font-family="sans-serif" font-size="14" lengthAdjust="spacing" textLength="172.6484" x="13" y="629.5232">anbietername : str [0..1]</text><text fill="#000000" font-family="sans-serif" font-size="14" lengthAdjust="spacing" textLength="227.8281" x="13" y="645.8201">anwendungVon : datetime [0..1]</text><text fill="#000000" font-family="sans-serif" font-size="14" lengthAdjust="spacing" textLength="154.4922" x="13" y="662.117">bemerkung : str [0..1]</text><text fill="#000000" font-family="sans-serif" font-size="14" lengthAdjust="spacing" textLength="163.6729" x="13" y="678.4139">bezeichnung : str [0..1]</text><text fill="#000000" font-family="sans-serif" font-size="14" lengthAdjust="spacing" textLength="192.4658" x="13" y="694.7107">preisstand : datetime [0..1]</text><text fill="#000000" font-family="sans-serif" font-size="14" lengthAdjust="spacing" textLength="128.4814" x="13" y="711.0076">website : str [0..1]</text></g><!--link Regionaltarif to Marktteilnehmer--><g class="link" data-entity-1="ent0002" data-entity-2="ent0004" data-link-type="composition" data-source-line="106" id="lnk21"><path codeLine="106" d="M159.66,525.27 C177.62,428.26 219.48,281.26 314.64,195 C384.05,132.09 481.4755,112.9238 553.7455,106.6138" fill="none" id="Regionaltarif-to-Marktteilnehmer" style="stroke:#181818;stroke-width:1;"/><polygon fill="#181818" points="565.7,105.57,559.3748,102.107,553.7455,106.6138,560.0707,110.0767,565.7,105.57" style="stroke:#181818;stroke-width:1;"/><text fill="#000000" font-family="sans-serif" font-size="13" lengthAdjust="spacing" textLength="54.5073" x="365.14" y="118.0669">anbieter</text><text fill="#000000" font-family="sans-serif" font-size="13" lengthAdjust="spacing" textLength="24.8066" x="533.2377" y="118.6348">0..1</text></g><!--link Regionaltarif to Energiemix--><g class="link" data-entity-1="ent0002" data-entity-2="ent0007" data-link-type="composition" data-source-line="107" id="lnk22"><path codeLine="107" d="M168.24,525.5 C190.97,446.37 234.96,337.82 314.64,277 C393.23,217.02 501.2145,209.8406 571.1245,211.7606" fill="none" id="Regionaltarif-to-Energiemix" style="stroke:#181818;stroke-width:1;"/><polygon fill="#181818" points="583.12,212.09,577.2321,207.9268,571.1245,211.7606,577.0124,215.9238,583.12,212.09" style="stroke:#181818;stroke-width:1;"/><text fill="#000000" font-family="sans-serif" font-size="13" lengthAdjust="spacing" textLength="73.4106" x="355.64" y="216.0669">energiemix</text><text fill="#000000" font-family="sans-serif" font-size="13" lengthAdjust="spacing" textLength="24.8066" x="550.7651" y="224.6027">0..1</text></g><!--link Regionaltarif to RegionalePreisgarantie--><g class="link" data-entity-1="ent0002" data-entity-2="ent0008" data-link-type="composition" data-source-line="108" id="lnk23"><path codeLine="108" d="M185.77,525.5 C213.5,468.87 256.24,400.67 314.64,360 C381.6,313.38 461.6905,297.5851 530.6505,291.9051" fill="none" id="Regionaltarif-to-RegionalePreisgarantie" style="stroke:#181818;stroke-width:1;"/><polygon fill="#181818" points="542.61,290.92,536.3019,287.426,530.6505,291.9051,536.9586,295.399,542.61,290.92" style="stroke:#181818;stroke-width:1;"/><text fill="#000000" font-family="sans-serif" font-size="13" lengthAdjust="spacing" textLength="94.6943" x="345.14" y="298.0669">preisgarantien</text><text fill="#000000" font-family="sans-serif" font-size="13" lengthAdjust="spacing" textLength="23.0356" x="511.95" y="303.654">0..*</text></g><!--link Regionaltarif to RegionaleTarifpreisposition--><g class="link" data-entity-1="ent0002" data-entity-2="ent0009" data-link-type="composition" data-source-line="109" id="lnk24"><path codeLine="109" d="M218.63,525.5 C245.7,494.91 278.71,463.5 314.64,442 C379.49,403.21 450.4752,385.041 516.2152,374.721" fill="none" id="Regionaltarif-to-RegionaleTarifpreisposition" style="stroke:#181818;stroke-width:1;"/><polygon fill="#181818" points="528.07,372.86,521.5223,369.8389,516.2152,374.721,522.7629,377.7421,528.07,372.86" style="stroke:#181818;stroke-width:1;"/><text fill="#000000" font-family="sans-serif" font-size="13" lengthAdjust="spacing" textLength="66.5742" x="359.14" y="381.0669">tarifpreise</text><text fill="#000000" font-family="sans-serif" font-size="13" lengthAdjust="spacing" textLength="23.0356" x="497.5454" y="386.0498">0..*</text></g><!--link Regionaltarif to RegionalerAufAbschlag--><g class="link" data-entity-1="ent0002" data-entity-2="ent0010" data-link-type="composition" data-source-line="110" id="lnk25"><path codeLine="110" d="M285.05,528.33 C294.88,523.14 304.8,518.3 314.64,514 C387.95,481.97 464.6949,463.6637 530.7449,451.6137" fill="none" id="Regionaltarif-to-RegionalerAufAbschlag" style="stroke:#181818;stroke-width:1;"/><polygon fill="#181818" points="542.55,449.46,535.9295,446.6018,530.7449,451.6137,537.3653,454.4719,542.55,449.46" style="stroke:#181818;stroke-width:1;"/><text fill="#000000" font-family="sans-serif" font-size="13" lengthAdjust="spacing" textLength="123.4365" x="330.64" y="463.0669">tarifAufAbschlaege</text><text fill="#000000" font-family="sans-serif" font-size="13" lengthAdjust="spacing" textLength="23.0356" x="511.8859" y="463.0757">0..*</text></g><!--link Regionaltarif to Tarifberechnungsparameter--><g class="link" data-entity-1="ent0002" data-entity-2="ent0011" data-link-type="composition" data-source-line="111" id="lnk26"><path codeLine="111" d="M284.8,578.84 C294.86,576.07 304.89,573.42 314.64,571 C384.11,553.75 451.1096,540.4745 513.6496,529.2245" fill="none" id="Regionaltarif-to-Tarifberechnungsparameter" style="stroke:#181818;stroke-width:1;"/><polygon fill="#181818" points="525.46,527.1,518.8466,524.2254,513.6496,529.2245,520.263,532.0991,525.46,527.1" style="stroke:#181818;stroke-width:1;"/><text fill="#000000" font-family="sans-serif" font-size="13" lengthAdjust="spacing" textLength="153.353" x="315.64" y="535.0669">berechnungsparameter</text><text fill="#000000" font-family="sans-serif" font-size="13" lengthAdjust="spacing" textLength="24.8066" x="492.9807" y="540.9586">0..1</text></g><!--link Regionaltarif to Tarifeinschraenkung--><g class="link" data-entity-1="ent0002" data-entity-2="ent0012" data-link-type="composition" data-source-line="112" id="lnk27"><path codeLine="112" d="M284.92,610.5 C370.53,603.37 465.9214,595.4263 539.8614,589.2663" fill="none" id="Regionaltarif-to-Tarifeinschraenkung" style="stroke:#181818;stroke-width:1;"/><polygon fill="#181818" points="551.82,588.27,545.5086,584.7819,539.8614,589.2663,546.1728,592.7543,551.82,588.27" style="stroke:#181818;stroke-width:1;"/><text fill="#000000" font-family="sans-serif" font-size="13" lengthAdjust="spacing" textLength="130.4126" x="327.14" y="592.0669">tarifeinschraenkung</text><text fill="#000000" font-family="sans-serif" font-size="13" lengthAdjust="spacing" textLength="24.8066" x="519.5512" y="601.5656">0..1</text></g><!--link Regionaltarif to Vertragskonditionen--><g class="link" data-entity-1="ent0002" data-entity-2="ent0013" data-link-type="composition" data-source-line="113" id="lnk28"><path codeLine="113" d="M284.98,642.14 C295.01,643.23 304.97,644.21 314.64,645 C395.09,651.61 475.0904,653.5465 540.5204,654.0565" fill="none" id="Regionaltarif-to-Vertragskonditionen" style="stroke:#181818;stroke-width:1;"/><polygon fill="#181818" points="552.52,654.15,546.5514,650.1034,540.5204,654.0565,546.489,658.1031,552.52,654.15" style="stroke:#181818;stroke-width:1;"/><text fill="#000000" font-family="sans-serif" font-size="13" lengthAdjust="spacing" textLength="131.1934" x="326.64" y="641.0669">vertragskonditionen</text><text fill="#000000" font-family="sans-serif" font-size="13" lengthAdjust="spacing" textLength="24.8066" x="519.9997" y="666.8801">0..1</text></g><!--link Regionaltarif to Zeitraum--><g class="link" data-entity-1="ent0002" data-entity-2="ent0014" data-link-type="composition" data-source-line="114" id="lnk29"><path codeLine="114" d="M285.02,670.18 C294.99,673.02 304.94,675.67 314.64,678 C410.18,700.97 512.3378,713.9562 576.5978,720.8162" fill="none" id="Regionaltarif-to-Zeitraum" style="stroke:#181818;stroke-width:1;"/><polygon fill="#181818" points="588.53,722.09,582.9885,717.4757,576.5978,720.8162,582.1393,725.4305,588.53,722.09" style="stroke:#181818;stroke-width:1;"/><text fill="#000000" font-family="sans-serif" font-size="13" lengthAdjust="spacing" textLength="125.2583" x="329.64" y="674.0669">zeitlicheGueltigkeit</text><text fill="#000000" font-family="sans-serif" font-size="13" lengthAdjust="spacing" textLength="24.8066" x="556.0462" y="734.514">0..1</text></g><!--link Regionaltarif to Kundentyp--><g class="link" data-entity-1="ent0002" data-entity-2="ent0016" data-link-type="composition" data-source-line="115" id="lnk30"><path codeLine="115" d="M284.86,716.38 C294.78,721.95 304.77,727.22 314.64,732 C403.74,775.13 502.8217,804.8112 569.1617,822.4212" fill="none" id="Regionaltarif-to-Kundentyp" style="stroke:#181818;stroke-width:1;"/><polygon fill="#181818" points="580.76,825.5,575.9871,820.0945,569.1617,822.4212,573.9346,827.8267,580.76,825.5" style="stroke:#181818;stroke-width:1;"/><text fill="#000000" font-family="sans-serif" font-size="13" lengthAdjust="spacing" textLength="85.7759" x="349.64" y="728.0669">kundentypen</text><text fill="#000000" font-family="sans-serif" font-size="13" lengthAdjust="spacing" textLength="23.0356" x="550.0168" y="836.8087">0..*</text></g><!--link Regionaltarif to Registeranzahl--><g class="link" data-entity-1="ent0002" data-entity-2="ent0017" data-link-type="composition" data-source-line="116" id="lnk31"><path codeLine="116" d="M214.18,718.59 C242.05,753.05 276.74,789.78 314.64,816 C392.61,869.93 489.2103,892.5702 558.8203,903.3102" fill="none" id="Regionaltarif-to-Registeranzahl" style="stroke:#181818;stroke-width:1;"/><polygon fill="#181818" points="570.68,905.14,565.3601,900.2719,558.8203,903.3102,564.1402,908.1783,570.68,905.14" style="stroke:#181818;stroke-width:1;"/><text fill="#000000" font-family="sans-serif" font-size="13" lengthAdjust="spacing" textLength="93.2661" x="345.64" y="812.0669">registeranzahl</text><text fill="#000000" font-family="sans-serif" font-size="13" lengthAdjust="spacing" textLength="24.8066" x="538.3278" y="917.1767">0..1</text></g><!--link Regionaltarif to Sparte--><g class="link" data-entity-1="ent0002" data-entity-2="ent0018" data-link-type="composition" data-source-line="117" id="lnk32"><path codeLine="117" d="M180.7,718.59 C207.59,781.54 251.31,860.52 314.64,908 C397.61,970.2 511.1775,983.1251 579.1975,985.5351" fill="none" id="Regionaltarif-to-Sparte" style="stroke:#181818;stroke-width:1;"/><polygon fill="#181818" points="591.19,985.96,585.3354,981.7501,579.1975,985.5351,585.0521,989.745,591.19,985.96" style="stroke:#181818;stroke-width:1;"/><text fill="#000000" font-family="sans-serif" font-size="13" lengthAdjust="spacing" textLength="41.4312" x="371.64" y="904.0669">sparte</text><text fill="#000000" font-family="sans-serif" font-size="13" lengthAdjust="spacing" textLength="24.8066" x="559.0637" y="999.0384">0..1</text></g><!--link Regionaltarif to Tarifmerkmal--><g class="link" data-entity-1="ent0002" data-entity-2="ent0019" data-link-type="composition" data-source-line="118" id="lnk33"><path codeLine="118" d="M164.21,718.71 C184.92,804.82 228.21,927.46 314.64,996 C389.16,1055.09 491.1912,1064.2404 562.3212,1063.2304" fill="none" id="Regionaltarif-to-Tarifmerkmal" style="stroke:#181818;stroke-width:1;"/><polygon fill="#181818" points="574.32,1063.06,568.2638,1059.1456,562.3212,1063.2304,568.3774,1067.1448,574.32,1063.06" style="stroke:#181818;stroke-width:1;"/><text fill="#000000" font-family="sans-serif" font-size="13" lengthAdjust="spacing" textLength="92.3711" x="346.14" y="992.0669">tarifmerkmale</text><text fill="#000000" font-family="sans-serif" font-size="13" lengthAdjust="spacing" textLength="23.0356" x="543.7176" y="1076.2715">0..*</text></g><!--link Regionaltarif to Tariftyp--><g class="link" data-entity-1="ent0002" data-entity-2="ent0020" data-link-type="composition" data-source-line="119" id="lnk34"><path codeLine="119" d="M154.18,718.39 C167.69,824.06 206,990.47 314.64,1080 C392.78,1144.39 506.5741,1145.518 576.3541,1139.518" fill="none" id="Regionaltarif-to-Tariftyp" style="stroke:#181818;stroke-width:1;"/><polygon fill="#181818" points="588.31,1138.49,581.9894,1135.0187,576.3541,1139.518,582.6747,1142.9893,588.31,1138.49" style="stroke:#181818;stroke-width:1;"/><text fill="#000000" font-family="sans-serif" font-size="13" lengthAdjust="spacing" textLength="47.6392" x="368.64" y="1076.0669">tariftyp</text><text fill="#000000" font-family="sans-serif" font-size="13" lengthAdjust="spacing" textLength="24.8066" x="555.7964" y="1152.4459">0..1</text></g><?plantuml-src lLXjR-Cs3FwUNo6atmeqRRVRtI4u371xkjHeanPEsWtjYa6EsLYpBGUMtEuozByVBJjnv9SrQRBbaqLI5FKy4aabX2T5L4mIFlCLyNW2KyLZqUbCGoObwJuy-4hDPV_us8q_G6_6bP-wFHuVdrr_e4VpxygFnN7854XrpEOShNeEpD032nLB-5FFLr583D7Zun_YY-GBw9-U_5grxn8cJNFoJuVWxq_kaJwHAY4F9xtUwMCkLD_dABtY2X8MFdGTEh2lHzRLn7BiRzr7m_GP4ebUwqwOS3cW0y4YQDA-WF1ICRlJSptSgk9ek6RYGWH9W2RrsIuiW4zzqQYS9y2bL4nuBOvVm9MuDNFcQwUJHIhdR0gagrbnOmrRyKqEpZv-_MHzBe1xFv53bWHA0Gy5-BZ3dCgAi4fcHQtZgiYs8NHeEPUJ2RMlHlHYI9rDAOrO43Cl0Iapy48krGDQv9CFSvCa3aCGqzW3aKPPL1MGNsieJ-EeX1a7v82UM9y_dk-6CphgKG79Z4F4_yunBiS6lAQfZgKSReCg7L5dODEX_Vl6TqJ5KPH26ABgAOoPsiVvdyO_qGXlGBvYpIsizhPYY0l3OeOHAJuBW2lv5_CRB91vMrn344_Y-GIoPTmu3ZUuOpiokinWS9FTyHbBc50Sp6HewcfCDviP-T5KlITHqXk7skE1vLYZYKqtFGqkoAcFIxirMlS7t2JB_Jf3pcCa28KLzEe6xH3MRKqSw_ftWQdBZaRqvdfiJr2u2QBxmoonqYVBHMv2DgkWjQvgnsdToaHeNVCkR1phzfjrDZw_kB86kv-pDtEBRXso32uam_eD2Lf1mnBFSS9IB1DgiJHeh1QDMI9JB5B9r6AUn5uQgCPYipEz-d2wW9sPtYkMf0JtfPO5kLLTexdLKbFTgjs6Rdq3pgX3poz6jwF1-0Opov1EDg_SYDuGoxQ-YxOO86sU_gP2-TWGDgRmzJdtwHbo3TD0uj70sj0u8NYnHH2caZz3K-49Ndw3R4CmXE9C62Rx8HIuo0ut7iwiSgvHQIgQIJHjIlfC-TR4KNk45zInwEWIoTkKil_X2jn1eX8saq4iF9sUeQW63OeQOWqs6h46-JQ8tL5dubY3yUNrwAlEzNIq-OjZmVomIASmW-QcwZ-hiVTukZ7hHJc4or4DjwL2WxKSR8FGFRKHeTlXfh1uBAtsuNaVwE7Z29VE7qaLLUedM0OKAgkl9tnP9QfjfbOspstg_RD7GjdyPoDou9rEV_vbnrTMvgbtYKaE18AN4x8Q6eoObZgMrGXZUDqvYgpKoumvVJZBzg6KrUCnzQkEeHJj9R8nbY9LDC_vTpsINAuZo3_tih9EgjdZ9cBXMeek9FKerhLbLYu4-ujeTLIMevP8bWTbET0Hl7OwvlyhHqU7f9iT_MxjfTvV_JdIFcVj2TfVUxErJ3ZijhrU-ld_8SknsC11GzlUppi_BOGDN1XzRJ6v565kRjzuUyE47KU3-0rFbTfTn69Asrqq5RC-UQvBsrsiKdoVP5ann0OA1kKBkntCCW_rIR3y_hULAZcYJn93q3wnkDfO8lH7UqZ6lIkWB8PlCPhlGnMVdOxFFI0HH4Yfx4W_VY7cFvRaYKFeoHy0?></g></svg>