<?xml version="1.0" encoding="us-ascii" standalone="no"?><svg xmlns="http://www.w3.org/2000/svg" xmlns:xlink="http://www.w3.org/1999/xlink" contentStyleType="text/css" height="687px" preserveAspectRatio="none" style="width:875px;height:687px;background:#FFFFFF;" version="1.1" viewBox="0 0 875 687" width="875px" zoomAndPan="magnify"><defs/><g><!--cluster bo4e--><g id="cluster_bo4e"><path d="M565.5,6 L606.5,6 A3.75,3.75 0 0 1 609,8.5 L616,28.2969 L865.5,28.2969 A2.5,2.5 0 0 1 868,30.7969 L868,677.5 A2.5,2.5 0 0 1 865.5,680 L565.5,680 A2.5,2.5 0 0 1 563,677.5 L563,8.5 A2.5,2.5 0 0 1 565.5,6 " fill="none" style="stroke:#000000;stroke-width:1.5;"/><line style="stroke:#000000;stroke-width:1.5;" x1="563" x2="616" y1="28.2969" y2="28.2969"/><text fill="#000000" font-family="sans-serif" font-size="14" font-weight="bold" lengthAdjust="spacing" textLength="40" x="567" y="20.9951">bo4e</text></g><!--cluster bo--><g id="cluster_bo"><path d="M646,49 L712,49 A3.75,3.75 0 0 1 714.5,51.5 L721.5,71.2969 L785,71.2969 A2.5,2.5 0 0 1 787.5,73.7969 L787.5,135.5 A2.5,2.5 0 0 1 785,138 L646,138 A2.5,2.5 0 0 1 643.5,135.5 L643.5,51.5 A2.5,2.5 0 0 1 646,49 " fill="#B6D7A8" style="stroke:#000000;stroke-width:1.5;"/><line style="stroke:#000000;stroke-width:1.5;" x1="643.5" x2="721.5" y1="71.2969" y2="71.2969"/><a href="https://bo4e.github.io/BO4E-python/latest/api/bo4e.bo.html" target="_top" title="https://bo4e.github.io/BO4E-python/latest/api/bo4e.bo.html" xlink:actuate="onRequest" xlink:href="https://bo4e.github.io/BO4E-python/latest/api/bo4e.bo.html" xlink:show="new" xlink:title="https://bo4e.github.io/BO4E-python/latest/api/bo4e.bo.html" xlink:type="simple"><text fill="#0000FF" font-family="sans-serif" font-size="14" font-weight="bold" lengthAdjust="spacing" text-decoration="underline" textLength="65" x="647.5" y="63.9951">bo4e.bo</text></a></g><!--cluster com--><g id="cluster_com"><path d="M589.5,162 L668.5,162 A3.75,3.75 0 0 1 671,164.5 L678,184.2969 L841.5,184.2969 A2.5,2.5 0 0 1 844,186.7969 L844,540.5 A2.5,2.5 0 0 1 841.5,543 L589.5,543 A2.5,2.5 0 0 1 587,540.5 L587,164.5 A2.5,2.5 0 0 1 589.5,162 " fill="#E0A86C" style="stroke:#000000;stroke-width:1.5;"/><line style="stroke:#000000;stroke-width:1.5;" x1="587" x2="678" y1="184.2969" y2="184.2969"/><a href="https://bo4e.github.io/BO4E-python/latest/api/bo4e.com.html" target="_top" title="https://bo4e.github.io/BO4E-python/latest/api/bo4e.com.html" xlink:actuate="onRequest" xlink:href="https://bo4e.github.io/BO4E-python/latest/api/bo4e.com.html" xlink:show="new" xlink:title="https://bo4e.github.io/BO4E-python/latest/api/bo4e.com.html" xlink:type="simple"><text fill="#0000FF" font-family="sans-serif" font-size="14" font-weight="bold" lengthAdjust="spacing" text-decoration="underline" textLength="78" x="591" y="176.9951">bo4e.com</text></a></g><!--cluster enum--><g id="cluster_enum"><path d="M649,567 L739,567 A3.75,3.75 0 0 1 741.5,569.5 L748.5,589.2969 L782,589.2969 A2.5,2.5 0 0 1 784.5,591.7969 L784.5,653.5 A2.5,2.5 0 0 1 782,656 L649,656 A2.5,2.5 0 0 1 646.5,653.5 L646.5,569.5 A2.5,2.5 0 0 1 649,567 " fill="#D1C358" style="stroke:#000000;stroke-width:1.5;"/><line style="stroke:#000000;stroke-width:1.5;" x1="646.5" x2="748.5" y1="589.2969" y2="589.2969"/><a href="https://bo4e.github.io/BO4E-python/latest/api/bo4e.enum.html" target="_top" title="https://bo4e.github.io/BO4E-python/latest/api/bo4e.enum.html" xlink:actuate="onRequest" xlink:href="https://bo4e.github.io/BO4E-python/latest/api/bo4e.enum.html" xlink:show="new" xlink:title="https://bo4e.github.io/BO4E-python/latest/api/bo4e.enum.html" xlink:type="simple"><text fill="#0000FF" font-family="sans-serif" font-size="14" font-weight="bold" lengthAdjust="spacing" text-decoration="underline" textLength="89" x="650.5" y="581.9951">bo4e.enum</text></a></g><!--class Tarifinfo--><g id="elem_Tarifinfo"><rect codeLine="11" fill="#F1F1F1" height="37.9375" id="Tarifinfo" rx="2.5" ry="2.5" style="stroke:#181818;stroke-width:0.5;" width="112" x="659.5" y="84.03"/><ellipse cx="674.5" cy="102.9987" fill="#ADD1B2" rx="11" ry="11" style="stroke:#181818;stroke-width:1.0;"/><path d="M677.4688,108.6394 Q676.8906,108.9362 676.25,109.0769 Q675.6094,109.2331 674.9063,109.2331 Q672.4063,109.2331 671.0781,107.5925 Q669.7656,105.9362 669.7656,102.8112 Q669.7656,99.6862 671.0781,98.03 Q672.4063,96.3737 674.9063,96.3737 Q675.6094,96.3737 676.25,96.53 Q676.9063,96.6862 677.4688,96.9831 L677.4688,99.7019 Q676.8438,99.1237 676.25,98.8581 Q675.6563,98.5769 675.0313,98.5769 Q673.6875,98.5769 673,99.655 Q672.3125,100.7175 672.3125,102.8112 Q672.3125,104.905 673,105.9831 Q673.6875,107.0456 675.0313,107.0456 Q675.6563,107.0456 676.25,106.78 Q676.8438,106.4987 677.4688,105.9206 L677.4688,108.6394 Z " fill="#000000"/><a href="https://bo4e.github.io/BO4E-python/latest/api/bo4e.bo.html#bo4e.bo.tarifinfo.Tarifinfo" target="_top" title="https://bo4e.github.io/BO4E-python/latest/api/bo4e.bo.html#bo4e.bo.tarifinfo.Tarifinfo" xlink:actuate="onRequest" xlink:href="https://bo4e.github.io/BO4E-python/latest/api/bo4e.bo.html#bo4e.bo.tarifinfo.Tarifinfo" xlink:show="new" xlink:title="https://bo4e.github.io/BO4E-python/latest/api/bo4e.bo.html#bo4e.bo.tarifinfo.Tarifinfo" xlink:type="simple"><text fill="#0000FF" font-family="sans-serif" font-size="14" lengthAdjust="spacing" text-decoration="underline" textLength="54" x="701.5" y="102.0251">Tarifinfo</text></a><text fill="#000000" font-family="sans-serif" font-size="10" lengthAdjust="spacing" textLength="80" x="688.5" y="114.6091">bo4e.bo.tarifinfo</text></g><!--class RegionaleTarifpreisposition--><g id="elem_RegionaleTarifpreisposition"><rect codeLine="14" fill="#F1F1F1" height="37.9375" id="RegionaleTarifpreisposition" rx="2.5" ry="2.5" style="stroke:#181818;stroke-width:0.5;" width="219" x="606" y="197.03"/><ellipse cx="621" cy="215.9987" fill="#ADD1B2" rx="11" ry="11" style="stroke:#181818;stroke-width:1.0;"/><path d="M623.9688,221.6394 Q623.3906,221.9362 622.75,222.0769 Q622.1094,222.2331 621.4063,222.2331 Q618.9063,222.2331 617.5781,220.5925 Q616.2656,218.9362 616.2656,215.8112 Q616.2656,212.6862 617.5781,211.03 Q618.9063,209.3737 621.4063,209.3737 Q622.1094,209.3737 622.75,209.53 Q623.4063,209.6862 623.9688,209.9831 L623.9688,212.7019 Q623.3438,212.1237 622.75,211.8581 Q622.1563,211.5769 621.5313,211.5769 Q620.1875,211.5769 619.5,212.655 Q618.8125,213.7175 618.8125,215.8112 Q618.8125,217.905 619.5,218.9831 Q620.1875,220.0456 621.5313,220.0456 Q622.1563,220.0456 622.75,219.78 Q623.3438,219.4987 623.9688,218.9206 L623.9688,221.6394 Z " fill="#000000"/><a href="https://bo4e.github.io/BO4E-python/latest/api/bo4e.com.html#bo4e.com.regionaletarifpreisposition.RegionaleTarifpreisposition" target="_top" title="https://bo4e.github.io/BO4E-python/latest/api/bo4e.com.html#bo4e.com.regionaletarifpreisposition.RegionaleTarifpreisposition" xlink:actuate="onRequest" xlink:href="https://bo4e.github.io/BO4E-python/latest/api/bo4e.com.html#bo4e.com.regionaletarifpreisposition.RegionaleTarifpreisposition" xlink:show="new" xlink:title="https://bo4e.github.io/BO4E-python/latest/api/bo4e.com.html#bo4e.com.regionaletarifpreisposition.RegionaleTarifpreisposition" xlink:type="simple"><text fill="#0000FF" font-family="sans-serif" font-size="14" lengthAdjust="spacing" text-decoration="underline" textLength="187" x="635" y="215.0251">RegionaleTarifpreisposition</text></a><text fill="#000000" font-family="sans-serif" font-size="10" lengthAdjust="spacing" textLength="175" x="641" y="227.6091">bo4e.com.regionaletarifpreisposition</text></g><!--class RegionalePreisgarantie--><g id="elem_RegionalePreisgarantie"><rect codeLine="15" fill="#F1F1F1" height="37.9375" id="RegionalePreisgarantie" rx="2.5" ry="2.5" style="stroke:#181818;stroke-width:0.5;" width="191" x="620" y="270.03"/><ellipse cx="635" cy="288.9988" fill="#ADD1B2" rx="11" ry="11" style="stroke:#181818;stroke-width:1.0;"/><path d="M637.9688,294.6394 Q637.3906,294.9363 636.75,295.0769 Q636.1094,295.2331 635.4063,295.2331 Q632.9063,295.2331 631.5781,293.5925 Q630.2656,291.9363 630.2656,288.8113 Q630.2656,285.6863 631.5781,284.03 Q632.9063,282.3738 635.4063,282.3738 Q636.1094,282.3738 636.75,282.53 Q637.4063,282.6863 637.9688,282.9831 L637.9688,285.7019 Q637.3438,285.1238 636.75,284.8581 Q636.1563,284.5769 635.5313,284.5769 Q634.1875,284.5769 633.5,285.655 Q632.8125,286.7175 632.8125,288.8113 Q632.8125,290.905 633.5,291.9831 Q634.1875,293.0456 635.5313,293.0456 Q636.1563,293.0456 636.75,292.78 Q637.3438,292.4988 637.9688,291.9206 L637.9688,294.6394 Z " fill="#000000"/><a href="https://bo4e.github.io/BO4E-python/latest/api/bo4e.com.html#bo4e.com.regionalepreisgarantie.RegionalePreisgarantie" target="_top" title="https://bo4e.github.io/BO4E-python/latest/api/bo4e.com.html#bo4e.com.regionalepreisgarantie.RegionalePreisgarantie" xlink:actuate="onRequest" xlink:href="https://bo4e.github.io/BO4E-python/latest/api/bo4e.com.html#bo4e.com.regionalepreisgarantie.RegionalePreisgarantie" xlink:show="new" xlink:title="https://bo4e.github.io/BO4E-python/latest/api/bo4e.com.html#bo4e.com.regionalepreisgarantie.RegionalePreisgarantie" xlink:type="simple"><text fill="#0000FF" font-family="sans-serif" font-size="14" lengthAdjust="spacing" text-decoration="underline" textLength="159" x="649" y="288.0251">RegionalePreisgarantie</text></a><text fill="#000000" font-family="sans-serif" font-size="10" lengthAdjust="spacing" textLength="158" x="649.5" y="300.6091">bo4e.com.regionalepreisgarantie</text></g><!--class Tarifeinschraenkung--><g id="elem_Tarifeinschraenkung"><rect codeLine="16" fill="#F1F1F1" height="37.9375" id="Tarifeinschraenkung" rx="2.5" ry="2.5" style="stroke:#181818;stroke-width:0.5;" width="178" x="626.5" y="343.03"/><ellipse cx="641.5" cy="361.9988" fill="#ADD1B2" rx="11" ry="11" style="stroke:#181818;stroke-width:1.0;"/><path d="M644.4688,367.6394 Q643.8906,367.9363 643.25,368.0769 Q642.6094,368.2331 641.9063,368.2331 Q639.4063,368.2331 638.0781,366.5925 Q636.7656,364.9363 636.7656,361.8113 Q636.7656,358.6863 638.0781,357.03 Q639.4063,355.3738 641.9063,355.3738 Q642.6094,355.3738 643.25,355.53 Q643.9063,355.6863 644.4688,355.9831 L644.4688,358.7019 Q643.8438,358.1238 643.25,357.8581 Q642.6563,357.5769 642.0313,357.5769 Q640.6875,357.5769 640,358.655 Q639.3125,359.7175 639.3125,361.8113 Q639.3125,363.905 640,364.9831 Q640.6875,366.0456 642.0313,366.0456 Q642.6563,366.0456 643.25,365.78 Q643.8438,365.4988 644.4688,364.9206 L644.4688,367.6394 Z " fill="#000000"/><a href="https://bo4e.github.io/BO4E-python/latest/api/bo4e.com.html#bo4e.com.tarifeinschraenkung.Tarifeinschraenkung" target="_top" title="https://bo4e.github.io/BO4E-python/latest/api/bo4e.com.html#bo4e.com.tarifeinschraenkung.Tarifeinschraenkung" xlink:actuate="onRequest" xlink:href="https://bo4e.github.io/BO4E-python/latest/api/bo4e.com.html#bo4e.com.tarifeinschraenkung.Tarifeinschraenkung" xlink:show="new" xlink:title="https://bo4e.github.io/BO4E-python/latest/api/bo4e.com.html#bo4e.com.tarifeinschraenkung.Tarifeinschraenkung" xlink:type="simple"><text fill="#0000FF" font-family="sans-serif" font-size="14" lengthAdjust="spacing" text-decoration="underline" textLength="141" x="658" y="361.0251">Tarifeinschraenkung</text></a><text fill="#000000" font-family="sans-serif" font-size="10" lengthAdjust="spacing" textLength="146" x="655.5" y="373.6091">bo4e.com.tarifeinschraenkung</text></g><!--class RegionalerAufAbschlag--><g id="elem_RegionalerAufAbschlag"><rect codeLine="17" fill="#F1F1F1" height="37.9375" id="RegionalerAufAbschlag" rx="2.5" ry="2.5" style="stroke:#181818;stroke-width:0.5;" width="191" x="620" y="416.03"/><ellipse cx="635" cy="434.9988" fill="#ADD1B2" rx="11" ry="11" style="stroke:#181818;stroke-width:1.0;"/><path d="M637.9688,440.6394 Q637.3906,440.9363 636.75,441.0769 Q636.1094,441.2331 635.4063,441.2331 Q632.9063,441.2331 631.5781,439.5925 Q630.2656,437.9363 630.2656,434.8113 Q630.2656,431.6863 631.5781,430.03 Q632.9063,428.3738 635.4063,428.3738 Q636.1094,428.3738 636.75,428.53 Q637.4063,428.6863 637.9688,428.9831 L637.9688,431.7019 Q637.3438,431.1238 636.75,430.8581 Q636.1563,430.5769 635.5313,430.5769 Q634.1875,430.5769 633.5,431.655 Q632.8125,432.7175 632.8125,434.8113 Q632.8125,436.905 633.5,437.9831 Q634.1875,439.0456 635.5313,439.0456 Q636.1563,439.0456 636.75,438.78 Q637.3438,438.4988 637.9688,437.9206 L637.9688,440.6394 Z " fill="#000000"/><a href="https://bo4e.github.io/BO4E-python/latest/api/bo4e.com.html#bo4e.com.regionaleraufabschlag.RegionalerAufAbschlag" target="_top" title="https://bo4e.github.io/BO4E-python/latest/api/bo4e.com.html#bo4e.com.regionaleraufabschlag.RegionalerAufAbschlag" xlink:actuate="onRequest" xlink:href="https://bo4e.github.io/BO4E-python/latest/api/bo4e.com.html#bo4e.com.regionaleraufabschlag.RegionalerAufAbschlag" xlink:show="new" xlink:title="https://bo4e.github.io/BO4E-python/latest/api/bo4e.com.html#bo4e.com.regionaleraufabschlag.RegionalerAufAbschlag" xlink:type="simple"><text fill="#0000FF" font-family="sans-serif" font-size="14" lengthAdjust="spacing" text-decoration="underline" textLength="159" x="649" y="434.0251">RegionalerAufAbschlag</text></a><text fill="#000000" font-family="sans-serif" font-size="10" lengthAdjust="spacing" textLength="157" x="650" y="446.6091">bo4e.com.regionaleraufabschlag</text></g><!--class Tarifberechnungsparameter--><g id="elem_Tarifberechnungsparameter"><rect codeLine="18" fill="#F1F1F1" height="37.9375" id="Tarifberechnungsparameter" rx="2.5" ry="2.5" style="stroke:#181818;stroke-width:0.5;" width="225" x="603" y="489.03"/><ellipse cx="618" cy="507.9988" fill="#ADD1B2" rx="11" ry="11" style="stroke:#181818;stroke-width:1.0;"/><path d="M620.9688,513.6394 Q620.3906,513.9363 619.75,514.0769 Q619.1094,514.2331 618.4063,514.2331 Q615.9063,514.2331 614.5781,512.5925 Q613.2656,510.9363 613.2656,507.8113 Q613.2656,504.6863 614.5781,503.03 Q615.9063,501.3738 618.4063,501.3738 Q619.1094,501.3738 619.75,501.53 Q620.4063,501.6863 620.9688,501.9831 L620.9688,504.7019 Q620.3438,504.1238 619.75,503.8581 Q619.1563,503.5769 618.5313,503.5769 Q617.1875,503.5769 616.5,504.655 Q615.8125,505.7175 615.8125,507.8113 Q615.8125,509.905 616.5,510.9831 Q617.1875,512.0456 618.5313,512.0456 Q619.1563,512.0456 619.75,511.78 Q620.3438,511.4988 620.9688,510.9206 L620.9688,513.6394 Z " fill="#000000"/><a href="https://bo4e.github.io/BO4E-python/latest/api/bo4e.com.html#bo4e.com.tarifberechnungsparameter.Tarifberechnungsparameter" target="_top" title="https://bo4e.github.io/BO4E-python/latest/api/bo4e.com.html#bo4e.com.tarifberechnungsparameter.Tarifberechnungsparameter" xlink:actuate="onRequest" xlink:href="https://bo4e.github.io/BO4E-python/latest/api/bo4e.com.html#bo4e.com.tarifberechnungsparameter.Tarifberechnungsparameter" xlink:show="new" xlink:title="https://bo4e.github.io/BO4E-python/latest/api/bo4e.com.html#bo4e.com.tarifberechnungsparameter.Tarifberechnungsparameter" xlink:type="simple"><text fill="#0000FF" font-family="sans-serif" font-size="14" lengthAdjust="spacing" text-decoration="underline" textLength="193" x="632" y="507.0251">Tarifberechnungsparameter</text></a><text fill="#000000" font-family="sans-serif" font-size="10" lengthAdjust="spacing" textLength="185" x="636" y="519.6091">bo4e.com.tarifberechnungsparameter</text></g><!--class Typ--><g id="elem_Typ"><rect codeLine="21" fill="#F1F1F1" height="37.9375" id="Typ" rx="2.5" ry="2.5" style="stroke:#181818;stroke-width:0.5;" width="106" x="662.5" y="602.03"/><ellipse cx="677.5" cy="620.9988" fill="#ADD1B2" rx="11" ry="11" style="stroke:#181818;stroke-width:1.0;"/><path d="M680.4688,626.6394 Q679.8906,626.9363 679.25,627.0769 Q678.6094,627.2331 677.9063,627.2331 Q675.4063,627.2331 674.0781,625.5925 Q672.7656,623.9363 672.7656,620.8113 Q672.7656,617.6863 674.0781,616.03 Q675.4063,614.3738 677.9063,614.3738 Q678.6094,614.3738 679.25,614.53 Q679.9063,614.6863 680.4688,614.9831 L680.4688,617.7019 Q679.8438,617.1238 679.25,616.8581 Q678.6563,616.5769 678.0313,616.5769 Q676.6875,616.5769 676,617.655 Q675.3125,618.7175 675.3125,620.8113 Q675.3125,622.905 676,623.9831 Q676.6875,625.0456 678.0313,625.0456 Q678.6563,625.0456 679.25,624.78 Q679.8438,624.4988 680.4688,623.9206 L680.4688,626.6394 Z " fill="#000000"/><a href="https://bo4e.github.io/BO4E-python/latest/api/bo4e.enum.html#bo4e.enum.typ.Typ" target="_top" title="https://bo4e.github.io/BO4E-python/latest/api/bo4e.enum.html#bo4e.enum.typ.Typ" xlink:actuate="onRequest" xlink:href="https://bo4e.github.io/BO4E-python/latest/api/bo4e.enum.html#bo4e.enum.typ.Typ" xlink:show="new" xlink:title="https://bo4e.github.io/BO4E-python/latest/api/bo4e.enum.html#bo4e.enum.typ.Typ" xlink:type="simple"><text fill="#0000FF" font-family="sans-serif" font-size="14" lengthAdjust="spacing" text-decoration="underline" textLength="25" x="716" y="620.0251">Typ</text></a><text fill="#000000" font-family="sans-serif" font-size="10" lengthAdjust="spacing" textLength="74" x="691.5" y="632.6091">bo4e.enum.typ</text></g><!--class Regionaltarif--><g id="elem_Regionaltarif"><rect codeLine="3" fill="#F1F1F1" height="111.125" id="Regionaltarif" rx="2.5" ry="2.5" style="stroke:#181818;stroke-width:0.5;" width="357" x="7" y="306.44"/><ellipse cx="131.25" cy="325.4088" fill="#ADD1B2" rx="11" ry="11" style="stroke:#181818;stroke-width:1.0;"/><path d="M134.2188,331.0494 Q133.6406,331.3463 133,331.4869 Q132.3594,331.6431 131.6563,331.6431 Q129.1563,331.6431 127.8281,330.0025 Q126.5156,328.3463 126.5156,325.2213 Q126.5156,322.0963 127.8281,320.44 Q129.1563,318.7838 131.6563,318.7838 Q132.3594,318.7838 133,318.94 Q133.6563,319.0963 134.2188,319.3931 L134.2188,322.1119 Q133.5938,321.5338 133,321.2681 Q132.4063,320.9869 131.7813,320.9869 Q130.4375,320.9869 129.75,322.065 Q129.0625,323.1275 129.0625,325.2213 Q129.0625,327.315 129.75,328.3931 Q130.4375,329.4556 131.7813,329.4556 Q132.4063,329.4556 133,329.19 Q133.5938,328.9088 134.2188,328.3306 L134.2188,331.0494 Z " fill="#000000"/><a href="https://bo4e.github.io/BO4E-python/latest/api/bo4e.bo.html#bo4e.bo.regionaltarif.Regionaltarif" target="_top" title="https://bo4e.github.io/BO4E-python/latest/api/bo4e.bo.html#bo4e.bo.regionaltarif.Regionaltarif" xlink:actuate="onRequest" xlink:href="https://bo4e.github.io/BO4E-python/latest/api/bo4e.bo.html#bo4e.bo.regionaltarif.Regionaltarif" xlink:show="new" xlink:title="https://bo4e.github.io/BO4E-python/latest/api/bo4e.bo.html#bo4e.bo.regionaltarif.Regionaltarif" xlink:type="simple"><text fill="#0000FF" font-family="sans-serif" font-size="14" lengthAdjust="spacing" text-decoration="underline" textLength="85" x="159.25" y="324.4351">Regionaltarif</text></a><text fill="#000000" font-family="sans-serif" font-size="10" lengthAdjust="spacing" textLength="100" x="151.75" y="337.0191">bo4e.bo.regionaltarif</text><line style="stroke:#181818;stroke-width:0.5;" x1="8" x2="363" y1="344.3775" y2="344.3775"/><text fill="#000000" font-family="sans-serif" font-size="14" lengthAdjust="spacing" textLength="345" x="13" y="361.3726">_version : str [0..1] = 202401.2.1.dev2+gf9e75b7</text><text fill="#000000" font-family="sans-serif" font-size="14" lengthAdjust="spacing" textLength="311" x="13" y="377.6695">zusatzAttribute : ZusatzAttribut [0..*] = None</text><text fill="#000000" font-family="sans-serif" font-size="14" lengthAdjust="spacing" textLength="147" x="13" y="393.9664">_id : str [0..1] = None</text><text fill="#000000" font-family="sans-serif" font-size="14" lengthAdjust="spacing" textLength="288" x="13" y="410.2632">preisstand : AwareDatetime [0..1] = None</text></g><!--link Regionaltarif to Tarifinfo--><g id="link_Regionaltarif_Tarifinfo"><path codeLine="24" d="M262.95,306.24 C301.14,279.87 348.76,249.17 394,226 C483.38,180.22 576.8319,146.985 641.9819,125.805 " fill="none" id="Regionaltarif-to-Tarifinfo" style="stroke:#181818;stroke-width:1.0;"/><polygon fill="none" points="659.1,120.24,640.1269,120.099,643.8369,131.5111,659.1,120.24" style="stroke:#181818;stroke-width:1.0;"/></g><!--link Regionaltarif to Typ--><g id="link_Regionaltarif_Typ"><path codeLine="25" d="M261.33,417.74 C299.73,444.77 348,476.4 394,500 C484.63,546.48 585.9724,581.321 650.7324,601.681 " fill="none" id="Regionaltarif-to-Typ" style="stroke:#181818;stroke-width:1.0;"/><polygon fill="#181818" points="662.18,605.28,657.6559,599.6646,650.7324,601.681,655.2565,607.2963,662.18,605.28" style="stroke:#181818;stroke-width:1.0;"/><text fill="#000000" font-family="sans-serif" font-size="13" lengthAdjust="spacing" textLength="27" x="457" y="496.0669">_typ</text><text fill="#000000" font-family="sans-serif" font-size="13" lengthAdjust="spacing" textLength="24" x="630.6274" y="616.4043">0..1</text></g><!--link Regionaltarif to Tarifberechnungsparameter--><g id="link_Regionaltarif_Tarifberechnungsparameter"><path codeLine="26" d="M334.22,418.01 C354.18,424.81 374.5,431.34 394,437 C465.56,457.77 535.866,473.4716 599.046,486.1916 " fill="none" id="Regionaltarif-to-Tarifberechnungsparameter" style="stroke:#181818;stroke-width:1.0;"/><polygon fill="#181818" points="610.81,488.56,605.7175,483.4545,599.046,486.1916,604.1385,491.2971,610.81,488.56" style="stroke:#181818;stroke-width:1.0;"/><text fill="#000000" font-family="sans-serif" font-size="13" lengthAdjust="spacing" textLength="151" x="395" y="433.0669">berechnungsparameter</text><text fill="#000000" font-family="sans-serif" font-size="13" lengthAdjust="spacing" textLength="24" x="571.1298" y="482.0159">0..1</text></g><!--link Regionaltarif to RegionaleTarifpreisposition--><g id="link_Regionaltarif_RegionaleTarifpreisposition"><path codeLine="27" d="M336.81,305.98 C355.95,299.56 375.36,293.4 394,288 C466.58,266.99 538.1343,250.8493 601.6143,237.8393 " fill="none" id="Regionaltarif-to-RegionaleTarifpreisposition" style="stroke:#181818;stroke-width:1.0;"/><polygon fill="#181818" points="613.37,235.43,606.6891,232.7161,601.6143,237.8393,608.2953,240.5532,613.37,235.43" style="stroke:#181818;stroke-width:1.0;"/><text fill="#000000" font-family="sans-serif" font-size="13" lengthAdjust="spacing" textLength="64" x="438.5" y="247.0669">tarifpreise</text><text fill="#000000" font-family="sans-serif" font-size="13" lengthAdjust="spacing" textLength="23" x="575.101" y="251.1247">0..*</text></g><!--link Regionaltarif to RegionalerAufAbschlag--><g id="link_Regionaltarif_RegionalerAufAbschlag"><path codeLine="28" d="M364.15,386.56 C449.66,398.38 536.8531,410.436 607.7831,420.246 " fill="none" id="Regionaltarif-to-RegionalerAufAbschlag" style="stroke:#181818;stroke-width:1.0;"/><polygon fill="#181818" points="619.67,421.89,614.2746,417.1057,607.7831,420.246,613.1786,425.0303,619.67,421.89" style="stroke:#181818;stroke-width:1.0;"/><text fill="#000000" font-family="sans-serif" font-size="13" lengthAdjust="spacing" textLength="120" x="410.5" y="387.0669">tarifAufAbschlaege</text><text fill="#000000" font-family="sans-serif" font-size="13" lengthAdjust="spacing" textLength="23" x="589.1234" y="433.5672">0..*</text></g><!--link Regionaltarif to RegionalePreisgarantie--><g id="link_Regionaltarif_RegionalePreisgarantie"><path codeLine="29" d="M364.15,337.44 C449.66,325.62 536.8531,313.564 607.7831,303.754 " fill="none" id="Regionaltarif-to-RegionalePreisgarantie" style="stroke:#181818;stroke-width:1.0;"/><polygon fill="#181818" points="619.67,302.11,613.1786,298.9697,607.7831,303.754,614.2746,306.8943,619.67,302.11" style="stroke:#181818;stroke-width:1.0;"/><text fill="#000000" font-family="sans-serif" font-size="13" lengthAdjust="spacing" textLength="92" x="424.5" y="309.0669">preisgarantien</text><text fill="#000000" font-family="sans-serif" font-size="13" lengthAdjust="spacing" textLength="23" x="589.1234" y="315.6308">0..*</text></g><!--link Regionaltarif to Tarifeinschraenkung--><g id="link_Regionaltarif_Tarifeinschraenkung"><path codeLine="30" d="M364.15,362 C452.35,362 543,362 614.29,362 " fill="none" id="Regionaltarif-to-Tarifeinschraenkung" style="stroke:#181818;stroke-width:1.0;"/><polygon fill="#181818" points="626.29,362,620.29,358,614.29,362,620.29,366,626.29,362" style="stroke:#181818;stroke-width:1.0;"/><text fill="#000000" font-family="sans-serif" font-size="13" lengthAdjust="spacing" textLength="126" x="407.5" y="358.0669">tarifeinschraenkung</text><text fill="#000000" font-family="sans-serif" font-size="13" lengthAdjust="spacing" textLength="24" x="594.5411" y="374.6463">0..1</text></g><!--SRC=[jLLDRvj043s7Np4oDrV67qtY5BMHI9DhMrK-rRMY1GPO5HQqkoIos_xtBjW65cExaUq34lEnRvZtbfaO0mao1Kx3I89FENgIfimml9W80RtvF98o4_PmwARNQ8LKHhbhqNJuyFNwQP0jPPIoOKma2Zaa6LrdkQaLoIGsjmR7K66IM19E0-jxqmBDMYn-ie-2hj0UZ-uxJ_U02FqC_3Qkdb-G2-K26uJaC1zPrdW1ds0ocboFnjR46bi-lapUXS47dDwuK-DgbGiYLuwKdBgvH7NmX-OfCVe5nfUKeQf0_JRuEf1nf498meguyqeuFYes94smbVdNC1X9K6J4mzDuXOsnM9HiR2mm7suVfyvTmSSvnIj9fYn8hTds3QgtJi6g4-NdLRcAWLC9yDAamO2ocXGe4yodaNDt-_bK3hPrpChQNa8icoj5pr91Yt-bkj0usud1WTWkTqSAQNU_0_1YFPTLGi89anJhThyrtT3jFjAaXgptfy6SkxMINAHCU14do7xbB5nVRzq77RxkZZe0wzkl-oyc4oTvG5nLAIPXhH9tyi3PUA7JUqIZ9gmkKHFa8WgvgFPHn1HfQcfmDJmayhLENH7O6pcWMLTwhLnNz0np35dU76I5sPnaXGscF_RUtvmypgjIPctAPMRDbXcePvUPRSQQX6LMBAxMpXuC_jnlrqwz5TfPAgqFlM87zkgsohesFAi2H_CBZVQBRKEdEFj0-mtGGmFRXdhmujlGj3zjWrExC7mZd3vURT1c9Vj_zbeZRVDXhPbaHDH7I31Hf0f3HEahj0e456DV_0C0]--></g></svg>