<svg xmlns="http://www.w3.org/2000/svg" xmlns:xlink="http://www.w3.org/1999/xlink" contentStyleType="text/css" data-diagram-type="CLASS" height="574px" preserveAspectRatio="none" style="width:869px;height:574px;background:#FFFFFF;" version="1.1" viewBox="0 0 869 574" width="869px" zoomAndPan="magnify"><defs/><g><!--cluster bo4e--><g class="cluster" data-entity="bo4e" data-source-line="11" data-uid="ent0005" id="cluster_bo4e"><path d="M556.55,6 L596.426,6 A3.75,3.75 0 0 1 598.926,8.5 L605.926,28.2969 L860.41,28.2969 A2.5,2.5 0 0 1 862.91,30.7969 L862.91,564.5 A2.5,2.5 0 0 1 860.41,567 L556.55,567 A2.5,2.5 0 0 1 554.05,564.5 L554.05,8.5 A2.5,2.5 0 0 1 556.55,6" fill="none" style="stroke:#000000;stroke-width:1.5;"/><line style="stroke:#000000;stroke-width:1.5;" x1="554.05" x2="605.926" y1="28.2969" y2="28.2969"/><text fill="#000000" font-family="sans-serif" font-size="14" font-weight="bold" lengthAdjust="spacing" textLength="38.876" x="558.05" y="20.9951">bo4e</text></g><!--cluster bo--><g class="cluster" data-entity="bo" data-source-line="10" data-uid="ent0003" id="cluster_bo"><path d="M637.47,49 L702.304,49 A3.75,3.75 0 0 1 704.804,51.5 L711.804,71.2969 L779.49,71.2969 A2.5,2.5 0 0 1 781.99,73.7969 L781.99,135.5 A2.5,2.5 0 0 1 779.49,138 L637.47,138 A2.5,2.5 0 0 1 634.97,135.5 L634.97,51.5 A2.5,2.5 0 0 1 637.47,49" fill="#B6D7A8" style="stroke:#000000;stroke-width:1.5;"/><line style="stroke:#000000;stroke-width:1.5;" x1="634.97" x2="711.804" y1="71.2969" y2="71.2969"/><a href="file:////home/runner/work/BO4E-python/BO4E-python/docs/../.tox/docs/tmp/html/api/bo4e.bo.html" target="_top" title="file:////home/runner/work/BO4E-python/BO4E-python/docs/../.tox/docs/tmp/html/api/bo4e.bo.html" xlink:actuate="onRequest" xlink:href="file:////home/runner/work/BO4E-python/BO4E-python/docs/../.tox/docs/tmp/html/api/bo4e.bo.html" xlink:show="new" xlink:title="file:////home/runner/work/BO4E-python/BO4E-python/docs/../.tox/docs/tmp/html/api/bo4e.bo.html" xlink:type="simple"><text fill="#0000FF" font-family="sans-serif" font-size="14" font-weight="bold" lengthAdjust="spacing" text-decoration="underline" textLength="63.834" x="638.97" y="63.9951">bo4e.bo</text></a></g><!--cluster com--><g class="cluster" data-entity="com" data-source-line="13" data-uid="ent0006" id="cluster_com"><path d="M580.55,162 L658.2492,162 A3.75,3.75 0 0 1 660.7492,164.5 L667.7492,184.2969 L836.41,184.2969 A2.5,2.5 0 0 1 838.91,186.7969 L838.91,540.5 A2.5,2.5 0 0 1 836.41,543 L580.55,543 A2.5,2.5 0 0 1 578.05,540.5 L578.05,164.5 A2.5,2.5 0 0 1 580.55,162" fill="#E0A86C" style="stroke:#000000;stroke-width:1.5;"/><line style="stroke:#000000;stroke-width:1.5;" x1="578.05" x2="667.7492" y1="184.2969" y2="184.2969"/><a href="file:////home/runner/work/BO4E-python/BO4E-python/docs/../.tox/docs/tmp/html/api/bo4e.com.html" target="_top" title="file:////home/runner/work/BO4E-python/BO4E-python/docs/../.tox/docs/tmp/html/api/bo4e.com.html" xlink:actuate="onRequest" xlink:href="file:////home/runner/work/BO4E-python/BO4E-python/docs/../.tox/docs/tmp/html/api/bo4e.com.html" xlink:show="new" xlink:title="file:////home/runner/work/BO4E-python/BO4E-python/docs/../.tox/docs/tmp/html/api/bo4e.com.html" xlink:type="simple"><text fill="#0000FF" font-family="sans-serif" font-size="14" font-weight="bold" lengthAdjust="spacing" text-decoration="underline" textLength="76.6992" x="582.05" y="176.9951">bo4e.com</text></a></g><!--class Tarifinfo--><g class="entity" data-entity="Tarifinfo" data-source-line="11" data-uid="ent0004" id="entity_Tarifinfo"><rect fill="#F1F1F1" height="37.9375" rx="2.5" ry="2.5" style="stroke:#181818;stroke-width:0.5;" width="115.0176" x="650.97" y="84.03"/><ellipse cx="665.97" cy="102.9987" fill="#ADD1B2" rx="11" ry="11" style="stroke:#181818;stroke-width:1;"/><path d="M668.9388,108.6394 Q668.3606,108.9362 667.72,109.0769 Q667.0794,109.2331 666.3763,109.2331 Q663.8763,109.2331 662.5481,107.5925 Q661.2356,105.9362 661.2356,102.8112 Q661.2356,99.6862 662.5481,98.03 Q663.8763,96.3737 666.3763,96.3737 Q667.0794,96.3737 667.72,96.53 Q668.3763,96.6862 668.9388,96.9831 L668.9388,99.7019 Q668.3138,99.1237 667.72,98.8581 Q667.1263,98.5769 666.5013,98.5769 Q665.1575,98.5769 664.47,99.655 Q663.7825,100.7175 663.7825,102.8112 Q663.7825,104.905 664.47,105.9831 Q665.1575,107.0456 666.5013,107.0456 Q667.1263,107.0456 667.72,106.78 Q668.3138,106.4987 668.9388,105.9206 L668.9388,108.6394 Z " fill="#000000"/><a href="file:////home/runner/work/BO4E-python/BO4E-python/docs/../.tox/docs/tmp/html/api/bo4e.bo.html#bo4e.bo.tarifinfo.Tarifinfo" target="_top" title="file:////home/runner/work/BO4E-python/BO4E-python/docs/../.tox/docs/tmp/html/api/bo4e.bo.html#bo4e.bo.tarifinfo.Tarifinfo" xlink:actuate="onRequest" xlink:href="file:////home/runner/work/BO4E-python/BO4E-python/docs/../.tox/docs/tmp/html/api/bo4e.bo.html#bo4e.bo.tarifinfo.Tarifinfo" xlink:show="new" xlink:title="file:////home/runner/work/BO4E-python/BO4E-python/docs/../.tox/docs/tmp/html/api/bo4e.bo.html#bo4e.bo.tarifinfo.Tarifinfo" xlink:type="simple"><text fill="#0000FF" font-family="sans-serif" font-size="14" lengthAdjust="spacing" text-decoration="underline" textLength="57.9619" x="692.4978" y="102.0251">Tarifinfo</text></a><text fill="#000000" font-family="sans-serif" font-size="10" lengthAdjust="spacing" textLength="83.0176" x="679.97" y="114.6091">bo4e.bo.tarifinfo</text></g><!--class RegionalerAufAbschlag--><g class="entity" data-entity="RegionalerAufAbschlag" data-source-line="14" data-uid="ent0007" id="entity_RegionalerAufAbschlag"><rect fill="#F1F1F1" height="37.9375" rx="2.5" ry="2.5" style="stroke:#181818;stroke-width:0.5;" width="196.4727" x="610.24" y="197.03"/><ellipse cx="625.24" cy="215.9987" fill="#ADD1B2" rx="11" ry="11" style="stroke:#181818;stroke-width:1;"/><path d="M628.2088,221.6394 Q627.6306,221.9362 626.99,222.0769 Q626.3494,222.2331 625.6463,222.2331 Q623.1463,222.2331 621.8181,220.5925 Q620.5056,218.9362 620.5056,215.8112 Q620.5056,212.6862 621.8181,211.03 Q623.1463,209.3737 625.6463,209.3737 Q626.3494,209.3737 626.99,209.53 Q627.6463,209.6862 628.2088,209.9831 L628.2088,212.7019 Q627.5838,212.1237 626.99,211.8581 Q626.3963,211.5769 625.7713,211.5769 Q624.4275,211.5769 623.74,212.655 Q623.0525,213.7175 623.0525,215.8112 Q623.0525,217.905 623.74,218.9831 Q624.4275,220.0456 625.7713,220.0456 Q626.3963,220.0456 626.99,219.78 Q627.5838,219.4987 628.2088,218.9206 L628.2088,221.6394 Z " fill="#000000"/><a href="file:////home/runner/work/BO4E-python/BO4E-python/docs/../.tox/docs/tmp/html/api/bo4e.com.html#bo4e.com.regionaleraufabschlag.RegionalerAufAbschlag" target="_top" title="file:////home/runner/work/BO4E-python/BO4E-python/docs/../.tox/docs/tmp/html/api/bo4e.com.html#bo4e.com.regionaleraufabschlag.RegionalerAufAbschlag" xlink:actuate="onRequest" xlink:href="file:////home/runner/work/BO4E-python/BO4E-python/docs/../.tox/docs/tmp/html/api/bo4e.com.html#bo4e.com.regionaleraufabschlag.RegionalerAufAbschlag" xlink:show="new" xlink:title="file:////home/runner/work/BO4E-python/BO4E-python/docs/../.tox/docs/tmp/html/api/bo4e.com.html#bo4e.com.regionaleraufabschlag.RegionalerAufAbschlag" xlink:type="simple"><text fill="#0000FF" font-family="sans-serif" font-size="14" lengthAdjust="spacing" text-decoration="underline" textLength="162.4561" x="640.2483" y="215.0251">RegionalerAufAbschlag</text></a><text fill="#000000" font-family="sans-serif" font-size="10" lengthAdjust="spacing" textLength="164.4727" x="639.24" y="227.6091">bo4e.com.regionaleraufabschlag</text></g><!--class Tarifeinschraenkung--><g class="entity" data-entity="Tarifeinschraenkung" data-source-line="15" data-uid="ent0008" id="entity_Tarifeinschraenkung"><rect fill="#F1F1F1" height="37.9375" rx="2.5" ry="2.5" style="stroke:#181818;stroke-width:0.5;" width="185.0127" x="615.97" y="270.03"/><ellipse cx="630.97" cy="288.9988" fill="#ADD1B2" rx="11" ry="11" style="stroke:#181818;stroke-width:1;"/><path d="M633.9388,294.6394 Q633.3606,294.9363 632.72,295.0769 Q632.0794,295.2331 631.3763,295.2331 Q628.8763,295.2331 627.5481,293.5925 Q626.2356,291.9363 626.2356,288.8113 Q626.2356,285.6863 627.5481,284.03 Q628.8763,282.3738 631.3763,282.3738 Q632.0794,282.3738 632.72,282.53 Q633.3763,282.6863 633.9388,282.9831 L633.9388,285.7019 Q633.3138,285.1238 632.72,284.8581 Q632.1263,284.5769 631.5013,284.5769 Q630.1575,284.5769 629.47,285.655 Q628.7825,286.7175 628.7825,288.8113 Q628.7825,290.905 629.47,291.9831 Q630.1575,293.0456 631.5013,293.0456 Q632.1263,293.0456 632.72,292.78 Q633.3138,292.4988 633.9388,291.9206 L633.9388,294.6394 Z " fill="#000000"/><a href="file:////home/runner/work/BO4E-python/BO4E-python/docs/../.tox/docs/tmp/html/api/bo4e.com.html#bo4e.com.tarifeinschraenkung.Tarifeinschraenkung" target="_top" title="file:////home/runner/work/BO4E-python/BO4E-python/docs/../.tox/docs/tmp/html/api/bo4e.com.html#bo4e.com.tarifeinschraenkung.Tarifeinschraenkung" xlink:actuate="onRequest" xlink:href="file:////home/runner/work/BO4E-python/BO4E-python/docs/../.tox/docs/tmp/html/api/bo4e.com.html#bo4e.com.tarifeinschraenkung.Tarifeinschraenkung" xlink:show="new" xlink:title="file:////home/runner/work/BO4E-python/BO4E-python/docs/../.tox/docs/tmp/html/api/bo4e.com.html#bo4e.com.tarifeinschraenkung.Tarifeinschraenkung" xlink:type="simple"><text fill="#0000FF" font-family="sans-serif" font-size="14" lengthAdjust="spacing" text-decoration="underline" textLength="143.5068" x="649.7229" y="288.0251">Tarifeinschraenkung</text></a><text fill="#000000" font-family="sans-serif" font-size="10" lengthAdjust="spacing" textLength="153.0127" x="644.97" y="300.6091">bo4e.com.tarifeinschraenkung</text></g><!--class Tarifberechnungsparameter--><g class="entity" data-entity="Tarifberechnungsparameter" data-source-line="16" data-uid="ent0009" id="entity_Tarifberechnungsparameter"><rect fill="#F1F1F1" height="37.9375" rx="2.5" ry="2.5" style="stroke:#181818;stroke-width:0.5;" width="228.8545" x="594.05" y="343.03"/><ellipse cx="609.05" cy="361.9988" fill="#ADD1B2" rx="11" ry="11" style="stroke:#181818;stroke-width:1;"/><path d="M612.0188,367.6394 Q611.4406,367.9363 610.8,368.0769 Q610.1594,368.2331 609.4563,368.2331 Q606.9563,368.2331 605.6281,366.5925 Q604.3156,364.9363 604.3156,361.8113 Q604.3156,358.6863 605.6281,357.03 Q606.9563,355.3738 609.4563,355.3738 Q610.1594,355.3738 610.8,355.53 Q611.4563,355.6863 612.0188,355.9831 L612.0188,358.7019 Q611.3938,358.1238 610.8,357.8581 Q610.2063,357.5769 609.5813,357.5769 Q608.2375,357.5769 607.55,358.655 Q606.8625,359.7175 606.8625,361.8113 Q606.8625,363.905 607.55,364.9831 Q608.2375,366.0456 609.5813,366.0456 Q610.2063,366.0456 610.8,365.78 Q611.3938,365.4988 612.0188,364.9206 L612.0188,367.6394 Z " fill="#000000"/><a href="file:////home/runner/work/BO4E-python/BO4E-python/docs/../.tox/docs/tmp/html/api/bo4e.com.html#bo4e.com.tarifberechnungsparameter.Tarifberechnungsparameter" target="_top" title="file:////home/runner/work/BO4E-python/BO4E-python/docs/../.tox/docs/tmp/html/api/bo4e.com.html#bo4e.com.tarifberechnungsparameter.Tarifberechnungsparameter" xlink:actuate="onRequest" xlink:href="file:////home/runner/work/BO4E-python/BO4E-python/docs/../.tox/docs/tmp/html/api/bo4e.com.html#bo4e.com.tarifberechnungsparameter.Tarifberechnungsparameter" xlink:show="new" xlink:title="file:////home/runner/work/BO4E-python/BO4E-python/docs/../.tox/docs/tmp/html/api/bo4e.com.html#bo4e.com.tarifberechnungsparameter.Tarifberechnungsparameter" xlink:type="simple"><text fill="#0000FF" font-family="sans-serif" font-size="14" lengthAdjust="spacing" text-decoration="underline" textLength="196.8545" x="623.05" y="361.0251">Tarifberechnungsparameter</text></a><text fill="#000000" font-family="sans-serif" font-size="10" lengthAdjust="spacing" textLength="191.1182" x="625.9182" y="373.6091">bo4e.com.tarifberechnungsparameter</text></g><!--class RegionaleTarifpreisposition--><g class="entity" data-entity="RegionaleTarifpreisposition" data-source-line="17" data-uid="ent0010" id="entity_RegionaleTarifpreisposition"><rect fill="#F1F1F1" height="37.9375" rx="2.5" ry="2.5" style="stroke:#181818;stroke-width:0.5;" width="223.2354" x="596.86" y="416.03"/><ellipse cx="611.86" cy="434.9988" fill="#ADD1B2" rx="11" ry="11" style="stroke:#181818;stroke-width:1;"/><path d="M614.8288,440.6394 Q614.2506,440.9363 613.61,441.0769 Q612.9694,441.2331 612.2663,441.2331 Q609.7663,441.2331 608.4381,439.5925 Q607.1256,437.9363 607.1256,434.8113 Q607.1256,431.6863 608.4381,430.03 Q609.7663,428.3738 612.2663,428.3738 Q612.9694,428.3738 613.61,428.53 Q614.2663,428.6863 614.8288,428.9831 L614.8288,431.7019 Q614.2038,431.1238 613.61,430.8581 Q613.0163,430.5769 612.3913,430.5769 Q611.0475,430.5769 610.36,431.655 Q609.6725,432.7175 609.6725,434.8113 Q609.6725,436.905 610.36,437.9831 Q611.0475,439.0456 612.3913,439.0456 Q613.0163,439.0456 613.61,438.78 Q614.2038,438.4988 614.8288,437.9206 L614.8288,440.6394 Z " fill="#000000"/><a href="file:////home/runner/work/BO4E-python/BO4E-python/docs/../.tox/docs/tmp/html/api/bo4e.com.html#bo4e.com.regionaletarifpreisposition.RegionaleTarifpreisposition" target="_top" title="file:////home/runner/work/BO4E-python/BO4E-python/docs/../.tox/docs/tmp/html/api/bo4e.com.html#bo4e.com.regionaletarifpreisposition.RegionaleTarifpreisposition" xlink:actuate="onRequest" xlink:href="file:////home/runner/work/BO4E-python/BO4E-python/docs/../.tox/docs/tmp/html/api/bo4e.com.html#bo4e.com.regionaletarifpreisposition.RegionaleTarifpreisposition" xlink:show="new" xlink:title="file:////home/runner/work/BO4E-python/BO4E-python/docs/../.tox/docs/tmp/html/api/bo4e.com.html#bo4e.com.regionaletarifpreisposition.RegionaleTarifpreisposition" xlink:type="simple"><text fill="#0000FF" font-family="sans-serif" font-size="14" lengthAdjust="spacing" text-decoration="underline" textLength="191.2354" x="625.86" y="434.0251">RegionaleTarifpreisposition</text></a><text fill="#000000" font-family="sans-serif" font-size="10" lengthAdjust="spacing" textLength="184.2676" x="629.3439" y="446.6091">bo4e.com.regionaletarifpreisposition</text></g><!--class RegionalePreisgarantie--><g class="entity" data-entity="RegionalePreisgarantie" data-source-line="18" data-uid="ent0011" id="entity_RegionalePreisgarantie"><rect fill="#F1F1F1" height="37.9375" rx="2.5" ry="2.5" style="stroke:#181818;stroke-width:0.5;" width="198.1035" x="609.43" y="489.03"/><ellipse cx="624.43" cy="507.9988" fill="#ADD1B2" rx="11" ry="11" style="stroke:#181818;stroke-width:1;"/><path d="M627.3988,513.6394 Q626.8206,513.9363 626.18,514.0769 Q625.5394,514.2331 624.8363,514.2331 Q622.3363,514.2331 621.0081,512.5925 Q619.6956,510.9363 619.6956,507.8113 Q619.6956,504.6863 621.0081,503.03 Q622.3363,501.3738 624.8363,501.3738 Q625.5394,501.3738 626.18,501.53 Q626.8363,501.6863 627.3988,501.9831 L627.3988,504.7019 Q626.7738,504.1238 626.18,503.8581 Q625.5863,503.5769 624.9613,503.5769 Q623.6175,503.5769 622.93,504.655 Q622.2425,505.7175 622.2425,507.8113 Q622.2425,509.905 622.93,510.9831 Q623.6175,512.0456 624.9613,512.0456 Q625.5863,512.0456 626.18,511.78 Q626.7738,511.4988 627.3988,510.9206 L627.3988,513.6394 Z " fill="#000000"/><a href="file:////home/runner/work/BO4E-python/BO4E-python/docs/../.tox/docs/tmp/html/api/bo4e.com.html#bo4e.com.regionalepreisgarantie.RegionalePreisgarantie" target="_top" title="file:////home/runner/work/BO4E-python/BO4E-python/docs/../.tox/docs/tmp/html/api/bo4e.com.html#bo4e.com.regionalepreisgarantie.RegionalePreisgarantie" xlink:actuate="onRequest" xlink:href="file:////home/runner/work/BO4E-python/BO4E-python/docs/../.tox/docs/tmp/html/api/bo4e.com.html#bo4e.com.regionalepreisgarantie.RegionalePreisgarantie" xlink:show="new" xlink:title="file:////home/runner/work/BO4E-python/BO4E-python/docs/../.tox/docs/tmp/html/api/bo4e.com.html#bo4e.com.regionalepreisgarantie.RegionalePreisgarantie" xlink:type="simple"><text fill="#0000FF" font-family="sans-serif" font-size="14" lengthAdjust="spacing" text-decoration="underline" textLength="162.2988" x="640.3323" y="507.0251">RegionalePreisgarantie</text></a><text fill="#000000" font-family="sans-serif" font-size="10" lengthAdjust="spacing" textLength="166.1035" x="638.43" y="519.6091">bo4e.com.regionalepreisgarantie</text></g><!--class Regionaltarif--><g class="entity" data-entity="Regionaltarif" data-source-line="3" data-uid="ent0002" id="entity_Regionaltarif"><rect fill="#F1F1F1" height="111.125" rx="2.5" ry="2.5" style="stroke:#181818;stroke-width:0.5;" width="346.0518" x="7" y="274.44"/><ellipse cx="123.2686" cy="293.4088" fill="#ADD1B2" rx="11" ry="11" style="stroke:#181818;stroke-width:1;"/><path d="M126.2373,299.0494 Q125.6592,299.3463 125.0186,299.4869 Q124.3779,299.6431 123.6748,299.6431 Q121.1748,299.6431 119.8467,298.0025 Q118.5342,296.3463 118.5342,293.2213 Q118.5342,290.0963 119.8467,288.44 Q121.1748,286.7838 123.6748,286.7838 Q124.3779,286.7838 125.0186,286.94 Q125.6748,287.0963 126.2373,287.3931 L126.2373,290.1119 Q125.6123,289.5338 125.0186,289.2681 Q124.4248,288.9869 123.7998,288.9869 Q122.4561,288.9869 121.7686,290.065 Q121.0811,291.1275 121.0811,293.2213 Q121.0811,295.315 121.7686,296.3931 Q122.4561,297.4556 123.7998,297.4556 Q124.4248,297.4556 125.0186,297.19 Q125.6123,296.9088 126.2373,296.3306 L126.2373,299.0494 Z " fill="#000000"/><a href="file:////home/runner/work/BO4E-python/BO4E-python/docs/../.tox/docs/tmp/html/api/bo4e.bo.html#bo4e.bo.regionaltarif.Regionaltarif" target="_top" title="file:////home/runner/work/BO4E-python/BO4E-python/docs/../.tox/docs/tmp/html/api/bo4e.bo.html#bo4e.bo.regionaltarif.Regionaltarif" xlink:actuate="onRequest" xlink:href="file:////home/runner/work/BO4E-python/BO4E-python/docs/../.tox/docs/tmp/html/api/bo4e.bo.html#bo4e.bo.regionaltarif.Regionaltarif" xlink:show="new" xlink:title="file:////home/runner/work/BO4E-python/BO4E-python/docs/../.tox/docs/tmp/html/api/bo4e.bo.html#bo4e.bo.regionaltarif.Regionaltarif" xlink:type="simple"><text fill="#0000FF" font-family="sans-serif" font-size="14" lengthAdjust="spacing" text-decoration="underline" textLength="89.667" x="151.4424" y="292.4351">Regionaltarif</text></a><text fill="#000000" font-family="sans-serif" font-size="10" lengthAdjust="spacing" textLength="105.0146" x="143.7686" y="305.0191">bo4e.bo.regionaltarif</text><line style="stroke:#181818;stroke-width:0.5;" x1="8" x2="352.0518" y1="312.3775" y2="312.3775"/><text fill="#000000" font-family="sans-serif" font-size="14" lengthAdjust="spacing" textLength="334.0518" x="13" y="329.3726">_version : str [0..1] = 202501.0.0+g7436b49d8</text><text fill="#000000" font-family="sans-serif" font-size="14" lengthAdjust="spacing" textLength="318.5752" x="13" y="345.6695">zusatzAttribute : ZusatzAttribut [0..*] = None</text><text fill="#000000" font-family="sans-serif" font-size="14" lengthAdjust="spacing" textLength="151.1768" x="13" y="361.9664">_id : str [0..1] = None</text><text fill="#000000" font-family="sans-serif" font-size="14" lengthAdjust="spacing" textLength="295.4902" x="13" y="378.2632">preisstand : AwareDatetime [0..1] = None</text></g><!--link Regionaltarif to Tarifinfo--><g class="link" data-entity-1="Regionaltarif" data-entity-2="Tarifinfo" data-source-line="21" data-uid="lnk12" id="link_Regionaltarif_Tarifinfo"><path codeLine="21" d="M280.43,273.99 C312.71,256.71 349,238.24 383.05,223 C474.73,181.98 568.0258,149.0384 633.5258,127.1784" fill="none" id="Regionaltarif-to-Tarifinfo" style="stroke:#181818;stroke-width:1;"/><polygon fill="none" points="650.6,121.48,631.6263,121.487,635.4252,132.8698,650.6,121.48" style="stroke:#181818;stroke-width:1;"/></g><!--link Regionaltarif to Tarifberechnungsparameter--><g class="link" data-entity-1="Regionaltarif" data-entity-2="Tarifberechnungsparameter" data-source-line="22" data-uid="lnk13" id="link_Regionaltarif_Tarifberechnungsparameter"><path codeLine="22" d="M353.41,350.63 C363.43,351.51 373.37,352.32 383.05,353 C452.89,357.93 519.3616,360.0035 581.6316,361.0235" fill="none" id="Regionaltarif-to-Tarifberechnungsparameter" style="stroke:#181818;stroke-width:1;"/><polygon fill="#181818" points="593.63,361.22,587.6963,357.1223,581.6316,361.0235,587.5653,365.1212,593.63,361.22" style="stroke:#181818;stroke-width:1;"/><text fill="#000000" font-family="sans-serif" font-size="13" lengthAdjust="spacing" textLength="153.353" x="384.05" y="349.0669">berechnungsparameter</text><text fill="#000000" font-family="sans-serif" font-size="13" lengthAdjust="spacing" textLength="24.8066" x="561.1345" y="373.7429">0..1</text></g><!--link Regionaltarif to RegionaleTarifpreisposition--><g class="link" data-entity-1="Regionaltarif" data-entity-2="RegionaleTarifpreisposition" data-source-line="23" data-uid="lnk14" id="link_Regionaltarif_RegionaleTarifpreisposition"><path codeLine="23" d="M353.46,378.33 C363.45,380.7 373.36,382.94 383.05,385 C453.57,399.98 521.7228,410.7288 584.6628,419.4188" fill="none" id="Regionaltarif-to-RegionaleTarifpreisposition" style="stroke:#181818;stroke-width:1;"/><polygon fill="#181818" points="596.55,421.06,591.1535,416.277,584.6628,419.4188,590.0593,424.2018,596.55,421.06" style="stroke:#181818;stroke-width:1;"/><text fill="#000000" font-family="sans-serif" font-size="13" lengthAdjust="spacing" textLength="66.5742" x="427.55" y="381.0669">tarifpreise</text><text fill="#000000" font-family="sans-serif" font-size="13" lengthAdjust="spacing" textLength="23.0356" x="565.6441" y="432.7187">0..*</text></g><!--link Regionaltarif to RegionalerAufAbschlag--><g class="link" data-entity-1="Regionaltarif" data-entity-2="RegionalerAufAbschlag" data-source-line="24" data-uid="lnk15" id="link_Regionaltarif_RegionalerAufAbschlag"><path codeLine="24" d="M353.33,284.87 C363.37,282.49 373.33,280.18 383.05,278 C458.87,261.01 533.5106,246.7704 598.0906,235.1204" fill="none" id="Regionaltarif-to-RegionalerAufAbschlag" style="stroke:#181818;stroke-width:1;"/><polygon fill="#181818" points="609.9,232.99,603.2852,230.1187,598.0906,235.1204,604.7054,237.9916,609.9,232.99" style="stroke:#181818;stroke-width:1;"/><text fill="#000000" font-family="sans-serif" font-size="13" lengthAdjust="spacing" textLength="123.4365" x="399.05" y="244.0669">tarifAufAbschlaege</text><text fill="#000000" font-family="sans-serif" font-size="13" lengthAdjust="spacing" textLength="23.0356" x="579.1615" y="246.7836">0..*</text></g><!--link Regionaltarif to RegionalePreisgarantie--><g class="link" data-entity-1="Regionaltarif" data-entity-2="RegionalePreisgarantie" data-source-line="25" data-uid="lnk16" id="link_Regionaltarif_RegionalePreisgarantie"><path codeLine="25" d="M273.9,385.98 C307.39,404.32 346.07,423.45 383.05,437 C456.68,463.98 531.8149,480.2889 597.1649,491.5689" fill="none" id="Regionaltarif-to-RegionalePreisgarantie" style="stroke:#181818;stroke-width:1;"/><polygon fill="#181818" points="608.99,493.61,603.7578,488.6477,597.1649,491.5689,602.3971,496.5311,608.99,493.61" style="stroke:#181818;stroke-width:1;"/><text fill="#000000" font-family="sans-serif" font-size="13" lengthAdjust="spacing" textLength="94.6943" x="413.55" y="433.0669">preisgarantien</text><text fill="#000000" font-family="sans-serif" font-size="13" lengthAdjust="spacing" textLength="23.0356" x="578.5339" y="505.2185">0..*</text></g><!--link Regionaltarif to Tarifeinschraenkung--><g class="link" data-entity-1="Regionaltarif" data-entity-2="Tarifeinschraenkung" data-source-line="26" data-uid="lnk17" id="link_Regionaltarif_Tarifeinschraenkung"><path codeLine="26" d="M353.41,316.58 C440.82,309.77 531.5062,302.7013 603.7062,297.0813" fill="none" id="Regionaltarif-to-Tarifeinschraenkung" style="stroke:#181818;stroke-width:1;"/><polygon fill="#181818" points="615.67,296.15,609.3777,292.6277,603.7062,297.0813,609.9985,300.6036,615.67,296.15" style="stroke:#181818;stroke-width:1;"/><text fill="#000000" font-family="sans-serif" font-size="13" lengthAdjust="spacing" textLength="130.4126" x="395.55" y="299.0669">tarifeinschraenkung</text><text fill="#000000" font-family="sans-serif" font-size="13" lengthAdjust="spacing" textLength="24.8066" x="583.0241" y="309.4357">0..1</text></g><!--SRC=[nLN1Sfim43s7hzYnR-uOSEewBjDcXZIvjfrEJdKz7G4BQ08I8ucwJTf_hy0sM1WxpQ4s9_QjzBHwkzhDC5QWE0YQf0eYAZ1Kb3FB2ZCY9GmMYvXcw3dwItcEZYWPG-6ik7XmRZvDxyR5BvLoPln7F9IERJksuZ_NXieB9rLvvf22EW6VeXrmkmA6MqDWeeybcIA2nlQNNGiCQxdynjv9-eZUnBtktJq08iqzy6HTVF-1Gce8F91AmCArxSaItiEbU_d6dTYkxRvAhgQlPy7qRJItBXvBITIZhvIWGQbGx_fg83N1g2Buo1bgUXfrcTUEGY2LKX5M-VqL4NXB52gQOsVb7yjY94TPa13_k-wmCPRBMgsD1SERsUsLFw_qEd7-wpnH5dFxVli7pLzlpfiTzGsQjLh74yWOydn7Hstj2gbD6Dwv_dpsuGHARaCPDjRsDQ0WPKm26QOPIPetXS8lOt-3GY-wh_T1MkEn6IHdk7XT4aYP3a0GP0ybIzRbP6BGW_LVkOUmhJOJFzTr0zGjEsKw0btoGbU-Gh6-T9y73dgE2D2tl9MXptlEegz3hhjkmIMjXbbR-lTxFZZYU-OPx1zaFePzmdFAKWUIw0GnHR5LvFCk3FtmCpeOpAO41aqruJgJVJp-VRqTFctZxwxIoqOmg8Rbe6cmHqhSWzwIF4GwsY4zLYWUj0d7bx4P7NV3qqAOl93Ep9a7HWBOlwlNwOgRm3fjpKffX91ZhaMLbapv2Ze7n1IpIFu5]--></g></svg>