<?xml version="1.0" encoding="us-ascii" standalone="no"?><svg xmlns="http://www.w3.org/2000/svg" xmlns:xlink="http://www.w3.org/1999/xlink" contentStyleType="text/css" height="687px" preserveAspectRatio="none" style="width:878px;height:687px;background:#FFFFFF;" version="1.1" viewBox="0 0 878 687" width="878px" zoomAndPan="magnify"><defs/><g><!--cluster bo4e--><g id="cluster_bo4e"><path d="M568.5,6 L609.5,6 A3.75,3.75 0 0 1 612,8.5 L619,28.2969 L868.5,28.2969 A2.5,2.5 0 0 1 871,30.7969 L871,677.5 A2.5,2.5 0 0 1 868.5,680 L568.5,680 A2.5,2.5 0 0 1 566,677.5 L566,8.5 A2.5,2.5 0 0 1 568.5,6 " fill="none" style="stroke:#000000;stroke-width:1.5;"/><line style="stroke:#000000;stroke-width:1.5;" x1="566" x2="619" y1="28.2969" y2="28.2969"/><text fill="#000000" font-family="sans-serif" font-size="14" font-weight="bold" lengthAdjust="spacing" textLength="40" x="570" y="20.9951">bo4e</text></g><!--cluster bo--><g id="cluster_bo"><path d="M649,49 L715,49 A3.75,3.75 0 0 1 717.5,51.5 L724.5,71.2969 L788,71.2969 A2.5,2.5 0 0 1 790.5,73.7969 L790.5,135.5 A2.5,2.5 0 0 1 788,138 L649,138 A2.5,2.5 0 0 1 646.5,135.5 L646.5,51.5 A2.5,2.5 0 0 1 649,49 " fill="#B6D7A8" style="stroke:#000000;stroke-width:1.5;"/><line style="stroke:#000000;stroke-width:1.5;" x1="646.5" x2="724.5" y1="71.2969" y2="71.2969"/><a href="https://bo4e.github.io/BO4E-python/latest/api/bo4e.bo.html" target="_top" title="https://bo4e.github.io/BO4E-python/latest/api/bo4e.bo.html" xlink:actuate="onRequest" xlink:href="https://bo4e.github.io/BO4E-python/latest/api/bo4e.bo.html" xlink:show="new" xlink:title="https://bo4e.github.io/BO4E-python/latest/api/bo4e.bo.html" xlink:type="simple"><text fill="#0000FF" font-family="sans-serif" font-size="14" font-weight="bold" lengthAdjust="spacing" text-decoration="underline" textLength="65" x="650.5" y="63.9951">bo4e.bo</text></a></g><!--cluster com--><g id="cluster_com"><path d="M592.5,162 L671.5,162 A3.75,3.75 0 0 1 674,164.5 L681,184.2969 L844.5,184.2969 A2.5,2.5 0 0 1 847,186.7969 L847,540.5 A2.5,2.5 0 0 1 844.5,543 L592.5,543 A2.5,2.5 0 0 1 590,540.5 L590,164.5 A2.5,2.5 0 0 1 592.5,162 " fill="#E0A86C" style="stroke:#000000;stroke-width:1.5;"/><line style="stroke:#000000;stroke-width:1.5;" x1="590" x2="681" y1="184.2969" y2="184.2969"/><a href="https://bo4e.github.io/BO4E-python/latest/api/bo4e.com.html" target="_top" title="https://bo4e.github.io/BO4E-python/latest/api/bo4e.com.html" xlink:actuate="onRequest" xlink:href="https://bo4e.github.io/BO4E-python/latest/api/bo4e.com.html" xlink:show="new" xlink:title="https://bo4e.github.io/BO4E-python/latest/api/bo4e.com.html" xlink:type="simple"><text fill="#0000FF" font-family="sans-serif" font-size="14" font-weight="bold" lengthAdjust="spacing" text-decoration="underline" textLength="78" x="594" y="176.9951">bo4e.com</text></a></g><!--cluster enum--><g id="cluster_enum"><path d="M652,567 L742,567 A3.75,3.75 0 0 1 744.5,569.5 L751.5,589.2969 L785,589.2969 A2.5,2.5 0 0 1 787.5,591.7969 L787.5,653.5 A2.5,2.5 0 0 1 785,656 L652,656 A2.5,2.5 0 0 1 649.5,653.5 L649.5,569.5 A2.5,2.5 0 0 1 652,567 " fill="#D1C358" style="stroke:#000000;stroke-width:1.5;"/><line style="stroke:#000000;stroke-width:1.5;" x1="649.5" x2="751.5" y1="589.2969" y2="589.2969"/><a href="https://bo4e.github.io/BO4E-python/latest/api/bo4e.enum.html" target="_top" title="https://bo4e.github.io/BO4E-python/latest/api/bo4e.enum.html" xlink:actuate="onRequest" xlink:href="https://bo4e.github.io/BO4E-python/latest/api/bo4e.enum.html" xlink:show="new" xlink:title="https://bo4e.github.io/BO4E-python/latest/api/bo4e.enum.html" xlink:type="simple"><text fill="#0000FF" font-family="sans-serif" font-size="14" font-weight="bold" lengthAdjust="spacing" text-decoration="underline" textLength="89" x="653.5" y="581.9951">bo4e.enum</text></a></g><!--class Tarifinfo--><g id="elem_Tarifinfo"><rect codeLine="11" fill="#F1F1F1" height="37.9375" id="Tarifinfo" rx="2.5" ry="2.5" style="stroke:#181818;stroke-width:0.5;" width="112" x="662.5" y="84.03"/><ellipse cx="677.5" cy="102.9987" fill="#ADD1B2" rx="11" ry="11" style="stroke:#181818;stroke-width:1.0;"/><path d="M680.4688,108.6394 Q679.8906,108.9362 679.25,109.0769 Q678.6094,109.2331 677.9063,109.2331 Q675.4063,109.2331 674.0781,107.5925 Q672.7656,105.9362 672.7656,102.8112 Q672.7656,99.6862 674.0781,98.03 Q675.4063,96.3737 677.9063,96.3737 Q678.6094,96.3737 679.25,96.53 Q679.9063,96.6862 680.4688,96.9831 L680.4688,99.7019 Q679.8438,99.1237 679.25,98.8581 Q678.6563,98.5769 678.0313,98.5769 Q676.6875,98.5769 676,99.655 Q675.3125,100.7175 675.3125,102.8112 Q675.3125,104.905 676,105.9831 Q676.6875,107.0456 678.0313,107.0456 Q678.6563,107.0456 679.25,106.78 Q679.8438,106.4987 680.4688,105.9206 L680.4688,108.6394 Z " fill="#000000"/><a href="https://bo4e.github.io/BO4E-python/latest/api/bo4e.bo.html#bo4e.bo.tarifinfo.Tarifinfo" target="_top" title="https://bo4e.github.io/BO4E-python/latest/api/bo4e.bo.html#bo4e.bo.tarifinfo.Tarifinfo" xlink:actuate="onRequest" xlink:href="https://bo4e.github.io/BO4E-python/latest/api/bo4e.bo.html#bo4e.bo.tarifinfo.Tarifinfo" xlink:show="new" xlink:title="https://bo4e.github.io/BO4E-python/latest/api/bo4e.bo.html#bo4e.bo.tarifinfo.Tarifinfo" xlink:type="simple"><text fill="#0000FF" font-family="sans-serif" font-size="14" lengthAdjust="spacing" text-decoration="underline" textLength="54" x="704.5" y="102.0251">Tarifinfo</text></a><text fill="#000000" font-family="sans-serif" font-size="10" lengthAdjust="spacing" textLength="80" x="691.5" y="114.6091">bo4e.bo.tarifinfo</text></g><!--class RegionaleTarifpreisposition--><g id="elem_RegionaleTarifpreisposition"><rect codeLine="14" fill="#F1F1F1" height="37.9375" id="RegionaleTarifpreisposition" rx="2.5" ry="2.5" style="stroke:#181818;stroke-width:0.5;" width="219" x="609" y="197.03"/><ellipse cx="624" cy="215.9987" fill="#ADD1B2" rx="11" ry="11" style="stroke:#181818;stroke-width:1.0;"/><path d="M626.9688,221.6394 Q626.3906,221.9362 625.75,222.0769 Q625.1094,222.2331 624.4063,222.2331 Q621.9063,222.2331 620.5781,220.5925 Q619.2656,218.9362 619.2656,215.8112 Q619.2656,212.6862 620.5781,211.03 Q621.9063,209.3737 624.4063,209.3737 Q625.1094,209.3737 625.75,209.53 Q626.4063,209.6862 626.9688,209.9831 L626.9688,212.7019 Q626.3438,212.1237 625.75,211.8581 Q625.1563,211.5769 624.5313,211.5769 Q623.1875,211.5769 622.5,212.655 Q621.8125,213.7175 621.8125,215.8112 Q621.8125,217.905 622.5,218.9831 Q623.1875,220.0456 624.5313,220.0456 Q625.1563,220.0456 625.75,219.78 Q626.3438,219.4987 626.9688,218.9206 L626.9688,221.6394 Z " fill="#000000"/><a href="https://bo4e.github.io/BO4E-python/latest/api/bo4e.com.html#bo4e.com.regionaletarifpreisposition.RegionaleTarifpreisposition" target="_top" title="https://bo4e.github.io/BO4E-python/latest/api/bo4e.com.html#bo4e.com.regionaletarifpreisposition.RegionaleTarifpreisposition" xlink:actuate="onRequest" xlink:href="https://bo4e.github.io/BO4E-python/latest/api/bo4e.com.html#bo4e.com.regionaletarifpreisposition.RegionaleTarifpreisposition" xlink:show="new" xlink:title="https://bo4e.github.io/BO4E-python/latest/api/bo4e.com.html#bo4e.com.regionaletarifpreisposition.RegionaleTarifpreisposition" xlink:type="simple"><text fill="#0000FF" font-family="sans-serif" font-size="14" lengthAdjust="spacing" text-decoration="underline" textLength="187" x="638" y="215.0251">RegionaleTarifpreisposition</text></a><text fill="#000000" font-family="sans-serif" font-size="10" lengthAdjust="spacing" textLength="175" x="644" y="227.6091">bo4e.com.regionaletarifpreisposition</text></g><!--class RegionalerAufAbschlag--><g id="elem_RegionalerAufAbschlag"><rect codeLine="15" fill="#F1F1F1" height="37.9375" id="RegionalerAufAbschlag" rx="2.5" ry="2.5" style="stroke:#181818;stroke-width:0.5;" width="191" x="623" y="270.03"/><ellipse cx="638" cy="288.9988" fill="#ADD1B2" rx="11" ry="11" style="stroke:#181818;stroke-width:1.0;"/><path d="M640.9688,294.6394 Q640.3906,294.9363 639.75,295.0769 Q639.1094,295.2331 638.4063,295.2331 Q635.9063,295.2331 634.5781,293.5925 Q633.2656,291.9363 633.2656,288.8113 Q633.2656,285.6863 634.5781,284.03 Q635.9063,282.3738 638.4063,282.3738 Q639.1094,282.3738 639.75,282.53 Q640.4063,282.6863 640.9688,282.9831 L640.9688,285.7019 Q640.3438,285.1238 639.75,284.8581 Q639.1563,284.5769 638.5313,284.5769 Q637.1875,284.5769 636.5,285.655 Q635.8125,286.7175 635.8125,288.8113 Q635.8125,290.905 636.5,291.9831 Q637.1875,293.0456 638.5313,293.0456 Q639.1563,293.0456 639.75,292.78 Q640.3438,292.4988 640.9688,291.9206 L640.9688,294.6394 Z " fill="#000000"/><a href="https://bo4e.github.io/BO4E-python/latest/api/bo4e.com.html#bo4e.com.regionaleraufabschlag.RegionalerAufAbschlag" target="_top" title="https://bo4e.github.io/BO4E-python/latest/api/bo4e.com.html#bo4e.com.regionaleraufabschlag.RegionalerAufAbschlag" xlink:actuate="onRequest" xlink:href="https://bo4e.github.io/BO4E-python/latest/api/bo4e.com.html#bo4e.com.regionaleraufabschlag.RegionalerAufAbschlag" xlink:show="new" xlink:title="https://bo4e.github.io/BO4E-python/latest/api/bo4e.com.html#bo4e.com.regionaleraufabschlag.RegionalerAufAbschlag" xlink:type="simple"><text fill="#0000FF" font-family="sans-serif" font-size="14" lengthAdjust="spacing" text-decoration="underline" textLength="159" x="652" y="288.0251">RegionalerAufAbschlag</text></a><text fill="#000000" font-family="sans-serif" font-size="10" lengthAdjust="spacing" textLength="157" x="653" y="300.6091">bo4e.com.regionaleraufabschlag</text></g><!--class Tarifeinschraenkung--><g id="elem_Tarifeinschraenkung"><rect codeLine="16" fill="#F1F1F1" height="37.9375" id="Tarifeinschraenkung" rx="2.5" ry="2.5" style="stroke:#181818;stroke-width:0.5;" width="178" x="629.5" y="343.03"/><ellipse cx="644.5" cy="361.9988" fill="#ADD1B2" rx="11" ry="11" style="stroke:#181818;stroke-width:1.0;"/><path d="M647.4688,367.6394 Q646.8906,367.9363 646.25,368.0769 Q645.6094,368.2331 644.9063,368.2331 Q642.4063,368.2331 641.0781,366.5925 Q639.7656,364.9363 639.7656,361.8113 Q639.7656,358.6863 641.0781,357.03 Q642.4063,355.3738 644.9063,355.3738 Q645.6094,355.3738 646.25,355.53 Q646.9063,355.6863 647.4688,355.9831 L647.4688,358.7019 Q646.8438,358.1238 646.25,357.8581 Q645.6563,357.5769 645.0313,357.5769 Q643.6875,357.5769 643,358.655 Q642.3125,359.7175 642.3125,361.8113 Q642.3125,363.905 643,364.9831 Q643.6875,366.0456 645.0313,366.0456 Q645.6563,366.0456 646.25,365.78 Q646.8438,365.4988 647.4688,364.9206 L647.4688,367.6394 Z " fill="#000000"/><a href="https://bo4e.github.io/BO4E-python/latest/api/bo4e.com.html#bo4e.com.tarifeinschraenkung.Tarifeinschraenkung" target="_top" title="https://bo4e.github.io/BO4E-python/latest/api/bo4e.com.html#bo4e.com.tarifeinschraenkung.Tarifeinschraenkung" xlink:actuate="onRequest" xlink:href="https://bo4e.github.io/BO4E-python/latest/api/bo4e.com.html#bo4e.com.tarifeinschraenkung.Tarifeinschraenkung" xlink:show="new" xlink:title="https://bo4e.github.io/BO4E-python/latest/api/bo4e.com.html#bo4e.com.tarifeinschraenkung.Tarifeinschraenkung" xlink:type="simple"><text fill="#0000FF" font-family="sans-serif" font-size="14" lengthAdjust="spacing" text-decoration="underline" textLength="141" x="661" y="361.0251">Tarifeinschraenkung</text></a><text fill="#000000" font-family="sans-serif" font-size="10" lengthAdjust="spacing" textLength="146" x="658.5" y="373.6091">bo4e.com.tarifeinschraenkung</text></g><!--class Tarifberechnungsparameter--><g id="elem_Tarifberechnungsparameter"><rect codeLine="17" fill="#F1F1F1" height="37.9375" id="Tarifberechnungsparameter" rx="2.5" ry="2.5" style="stroke:#181818;stroke-width:0.5;" width="225" x="606" y="416.03"/><ellipse cx="621" cy="434.9988" fill="#ADD1B2" rx="11" ry="11" style="stroke:#181818;stroke-width:1.0;"/><path d="M623.9688,440.6394 Q623.3906,440.9363 622.75,441.0769 Q622.1094,441.2331 621.4063,441.2331 Q618.9063,441.2331 617.5781,439.5925 Q616.2656,437.9363 616.2656,434.8113 Q616.2656,431.6863 617.5781,430.03 Q618.9063,428.3738 621.4063,428.3738 Q622.1094,428.3738 622.75,428.53 Q623.4063,428.6863 623.9688,428.9831 L623.9688,431.7019 Q623.3438,431.1238 622.75,430.8581 Q622.1563,430.5769 621.5313,430.5769 Q620.1875,430.5769 619.5,431.655 Q618.8125,432.7175 618.8125,434.8113 Q618.8125,436.905 619.5,437.9831 Q620.1875,439.0456 621.5313,439.0456 Q622.1563,439.0456 622.75,438.78 Q623.3438,438.4988 623.9688,437.9206 L623.9688,440.6394 Z " fill="#000000"/><a href="https://bo4e.github.io/BO4E-python/latest/api/bo4e.com.html#bo4e.com.tarifberechnungsparameter.Tarifberechnungsparameter" target="_top" title="https://bo4e.github.io/BO4E-python/latest/api/bo4e.com.html#bo4e.com.tarifberechnungsparameter.Tarifberechnungsparameter" xlink:actuate="onRequest" xlink:href="https://bo4e.github.io/BO4E-python/latest/api/bo4e.com.html#bo4e.com.tarifberechnungsparameter.Tarifberechnungsparameter" xlink:show="new" xlink:title="https://bo4e.github.io/BO4E-python/latest/api/bo4e.com.html#bo4e.com.tarifberechnungsparameter.Tarifberechnungsparameter" xlink:type="simple"><text fill="#0000FF" font-family="sans-serif" font-size="14" lengthAdjust="spacing" text-decoration="underline" textLength="193" x="635" y="434.0251">Tarifberechnungsparameter</text></a><text fill="#000000" font-family="sans-serif" font-size="10" lengthAdjust="spacing" textLength="185" x="639" y="446.6091">bo4e.com.tarifberechnungsparameter</text></g><!--class RegionalePreisgarantie--><g id="elem_RegionalePreisgarantie"><rect codeLine="18" fill="#F1F1F1" height="37.9375" id="RegionalePreisgarantie" rx="2.5" ry="2.5" style="stroke:#181818;stroke-width:0.5;" width="191" x="623" y="489.03"/><ellipse cx="638" cy="507.9988" fill="#ADD1B2" rx="11" ry="11" style="stroke:#181818;stroke-width:1.0;"/><path d="M640.9688,513.6394 Q640.3906,513.9363 639.75,514.0769 Q639.1094,514.2331 638.4063,514.2331 Q635.9063,514.2331 634.5781,512.5925 Q633.2656,510.9363 633.2656,507.8113 Q633.2656,504.6863 634.5781,503.03 Q635.9063,501.3738 638.4063,501.3738 Q639.1094,501.3738 639.75,501.53 Q640.4063,501.6863 640.9688,501.9831 L640.9688,504.7019 Q640.3438,504.1238 639.75,503.8581 Q639.1563,503.5769 638.5313,503.5769 Q637.1875,503.5769 636.5,504.655 Q635.8125,505.7175 635.8125,507.8113 Q635.8125,509.905 636.5,510.9831 Q637.1875,512.0456 638.5313,512.0456 Q639.1563,512.0456 639.75,511.78 Q640.3438,511.4988 640.9688,510.9206 L640.9688,513.6394 Z " fill="#000000"/><a href="https://bo4e.github.io/BO4E-python/latest/api/bo4e.com.html#bo4e.com.regionalepreisgarantie.RegionalePreisgarantie" target="_top" title="https://bo4e.github.io/BO4E-python/latest/api/bo4e.com.html#bo4e.com.regionalepreisgarantie.RegionalePreisgarantie" xlink:actuate="onRequest" xlink:href="https://bo4e.github.io/BO4E-python/latest/api/bo4e.com.html#bo4e.com.regionalepreisgarantie.RegionalePreisgarantie" xlink:show="new" xlink:title="https://bo4e.github.io/BO4E-python/latest/api/bo4e.com.html#bo4e.com.regionalepreisgarantie.RegionalePreisgarantie" xlink:type="simple"><text fill="#0000FF" font-family="sans-serif" font-size="14" lengthAdjust="spacing" text-decoration="underline" textLength="159" x="652" y="507.0251">RegionalePreisgarantie</text></a><text fill="#000000" font-family="sans-serif" font-size="10" lengthAdjust="spacing" textLength="158" x="652.5" y="519.6091">bo4e.com.regionalepreisgarantie</text></g><!--class Typ--><g id="elem_Typ"><rect codeLine="21" fill="#F1F1F1" height="37.9375" id="Typ" rx="2.5" ry="2.5" style="stroke:#181818;stroke-width:0.5;" width="106" x="665.5" y="602.03"/><ellipse cx="680.5" cy="620.9988" fill="#ADD1B2" rx="11" ry="11" style="stroke:#181818;stroke-width:1.0;"/><path d="M683.4688,626.6394 Q682.8906,626.9363 682.25,627.0769 Q681.6094,627.2331 680.9063,627.2331 Q678.4063,627.2331 677.0781,625.5925 Q675.7656,623.9363 675.7656,620.8113 Q675.7656,617.6863 677.0781,616.03 Q678.4063,614.3738 680.9063,614.3738 Q681.6094,614.3738 682.25,614.53 Q682.9063,614.6863 683.4688,614.9831 L683.4688,617.7019 Q682.8438,617.1238 682.25,616.8581 Q681.6563,616.5769 681.0313,616.5769 Q679.6875,616.5769 679,617.655 Q678.3125,618.7175 678.3125,620.8113 Q678.3125,622.905 679,623.9831 Q679.6875,625.0456 681.0313,625.0456 Q681.6563,625.0456 682.25,624.78 Q682.8438,624.4988 683.4688,623.9206 L683.4688,626.6394 Z " fill="#000000"/><a href="https://bo4e.github.io/BO4E-python/latest/api/bo4e.enum.html#bo4e.enum.typ.Typ" target="_top" title="https://bo4e.github.io/BO4E-python/latest/api/bo4e.enum.html#bo4e.enum.typ.Typ" xlink:actuate="onRequest" xlink:href="https://bo4e.github.io/BO4E-python/latest/api/bo4e.enum.html#bo4e.enum.typ.Typ" xlink:show="new" xlink:title="https://bo4e.github.io/BO4E-python/latest/api/bo4e.enum.html#bo4e.enum.typ.Typ" xlink:type="simple"><text fill="#0000FF" font-family="sans-serif" font-size="14" lengthAdjust="spacing" text-decoration="underline" textLength="25" x="719" y="620.0251">Typ</text></a><text fill="#000000" font-family="sans-serif" font-size="10" lengthAdjust="spacing" textLength="74" x="694.5" y="632.6091">bo4e.enum.typ</text></g><!--class Regionaltarif--><g id="elem_Regionaltarif"><rect codeLine="3" fill="#F1F1F1" height="111.125" id="Regionaltarif" rx="2.5" ry="2.5" style="stroke:#181818;stroke-width:0.5;" width="360" x="7" y="306.44"/><ellipse cx="132.75" cy="325.4088" fill="#ADD1B2" rx="11" ry="11" style="stroke:#181818;stroke-width:1.0;"/><path d="M135.7188,331.0494 Q135.1406,331.3463 134.5,331.4869 Q133.8594,331.6431 133.1563,331.6431 Q130.6563,331.6431 129.3281,330.0025 Q128.0156,328.3463 128.0156,325.2213 Q128.0156,322.0963 129.3281,320.44 Q130.6563,318.7838 133.1563,318.7838 Q133.8594,318.7838 134.5,318.94 Q135.1563,319.0963 135.7188,319.3931 L135.7188,322.1119 Q135.0938,321.5338 134.5,321.2681 Q133.9063,320.9869 133.2813,320.9869 Q131.9375,320.9869 131.25,322.065 Q130.5625,323.1275 130.5625,325.2213 Q130.5625,327.315 131.25,328.3931 Q131.9375,329.4556 133.2813,329.4556 Q133.9063,329.4556 134.5,329.19 Q135.0938,328.9088 135.7188,328.3306 L135.7188,331.0494 Z " fill="#000000"/><a href="https://bo4e.github.io/BO4E-python/latest/api/bo4e.bo.html#bo4e.bo.regionaltarif.Regionaltarif" target="_top" title="https://bo4e.github.io/BO4E-python/latest/api/bo4e.bo.html#bo4e.bo.regionaltarif.Regionaltarif" xlink:actuate="onRequest" xlink:href="https://bo4e.github.io/BO4E-python/latest/api/bo4e.bo.html#bo4e.bo.regionaltarif.Regionaltarif" xlink:show="new" xlink:title="https://bo4e.github.io/BO4E-python/latest/api/bo4e.bo.html#bo4e.bo.regionaltarif.Regionaltarif" xlink:type="simple"><text fill="#0000FF" font-family="sans-serif" font-size="14" lengthAdjust="spacing" text-decoration="underline" textLength="85" x="160.75" y="324.4351">Regionaltarif</text></a><text fill="#000000" font-family="sans-serif" font-size="10" lengthAdjust="spacing" textLength="100" x="153.25" y="337.0191">bo4e.bo.regionaltarif</text><line style="stroke:#181818;stroke-width:0.5;" x1="8" x2="366" y1="344.3775" y2="344.3775"/><text fill="#000000" font-family="sans-serif" font-size="14" lengthAdjust="spacing" textLength="348" x="13" y="361.3726">_version : str [0..1] = 202401.1.2.dev8+g7bcbec4</text><text fill="#000000" font-family="sans-serif" font-size="14" lengthAdjust="spacing" textLength="311" x="13" y="377.6695">zusatzAttribute : ZusatzAttribut [0..*] = None</text><text fill="#000000" font-family="sans-serif" font-size="14" lengthAdjust="spacing" textLength="147" x="13" y="393.9664">_id : str [0..1] = None</text><text fill="#000000" font-family="sans-serif" font-size="14" lengthAdjust="spacing" textLength="288" x="13" y="410.2632">preisstand : AwareDatetime [0..1] = None</text></g><!--link Regionaltarif to Tarifinfo--><g id="link_Regionaltarif_Tarifinfo"><path codeLine="24" d="M265.54,305.95 C303.94,279.66 351.69,249.11 397,226 C486.46,180.37 579.8865,147.0992 645.0065,125.8692 " fill="none" id="Regionaltarif-to-Tarifinfo" style="stroke:#181818;stroke-width:1.0;"/><polygon fill="none" points="662.12,120.29,643.1467,120.1647,646.8662,131.5737,662.12,120.29" style="stroke:#181818;stroke-width:1.0;"/></g><!--link Regionaltarif to Typ--><g id="link_Regionaltarif_Typ"><path codeLine="25" d="M263.91,418.04 C302.52,444.99 350.92,476.46 397,500 C487.7,546.33 589.0254,581.2114 653.7554,601.6214 " fill="none" id="Regionaltarif-to-Typ" style="stroke:#181818;stroke-width:1.0;"/><polygon fill="#181818" points="665.2,605.23,660.6806,599.6109,653.7554,601.6214,658.2749,607.2406,665.2,605.23" style="stroke:#181818;stroke-width:1.0;"/><text fill="#000000" font-family="sans-serif" font-size="13" lengthAdjust="spacing" textLength="27" x="460" y="496.0669">_typ</text><text fill="#000000" font-family="sans-serif" font-size="13" lengthAdjust="spacing" textLength="24" x="633.6497" y="616.3485">0..1</text></g><!--link Regionaltarif to Tarifberechnungsparameter--><g id="link_Regionaltarif_Tarifberechnungsparameter"><path codeLine="26" d="M367.26,386.71 C446.17,397.59 524.5425,408.401 593.6625,417.931 " fill="none" id="Regionaltarif-to-Tarifberechnungsparameter" style="stroke:#181818;stroke-width:1.0;"/><polygon fill="#181818" points="605.55,419.57,600.1526,414.788,593.6625,417.931,599.0599,422.713,605.55,419.57" style="stroke:#181818;stroke-width:1.0;"/><text fill="#000000" font-family="sans-serif" font-size="13" lengthAdjust="spacing" textLength="151" x="398" y="387.0669">berechnungsparameter</text><text fill="#000000" font-family="sans-serif" font-size="13" lengthAdjust="spacing" textLength="24" x="573.9359" y="431.1578">0..1</text></g><!--link Regionaltarif to RegionaleTarifpreisposition--><g id="link_Regionaltarif_RegionaleTarifpreisposition"><path codeLine="27" d="M339.42,306.01 C358.69,299.58 378.23,293.41 397,288 C469.74,267.03 541.4748,250.8614 604.9948,237.8314 " fill="none" id="Regionaltarif-to-RegionaleTarifpreisposition" style="stroke:#181818;stroke-width:1.0;"/><polygon fill="#181818" points="616.75,235.42,610.0686,232.7073,604.9948,237.8314,611.6762,240.5441,616.75,235.42" style="stroke:#181818;stroke-width:1.0;"/><text fill="#000000" font-family="sans-serif" font-size="13" lengthAdjust="spacing" textLength="64" x="441.5" y="247.0669">tarifpreise</text><text fill="#000000" font-family="sans-serif" font-size="13" lengthAdjust="spacing" textLength="23" x="577.8242" y="251.282">0..*</text></g><!--link Regionaltarif to RegionalerAufAbschlag--><g id="link_Regionaltarif_RegionalerAufAbschlag"><path codeLine="28" d="M367.26,337.29 C452.92,325.48 540.0625,313.459 610.9225,303.689 " fill="none" id="Regionaltarif-to-RegionalerAufAbschlag" style="stroke:#181818;stroke-width:1.0;"/><polygon fill="#181818" points="622.81,302.05,616.3199,298.907,610.9225,303.689,617.4126,306.832,622.81,302.05" style="stroke:#181818;stroke-width:1.0;"/><text fill="#000000" font-family="sans-serif" font-size="13" lengthAdjust="spacing" textLength="120" x="413.5" y="309.0669">tarifAufAbschlaege</text><text fill="#000000" font-family="sans-serif" font-size="13" lengthAdjust="spacing" textLength="23" x="591.9382" y="315.631">0..*</text></g><!--link Regionaltarif to RegionalePreisgarantie--><g id="link_Regionaltarif_RegionalePreisgarantie"><path codeLine="29" d="M336.81,417.99 C356.91,424.79 377.37,431.33 397,437 C472.01,458.67 546.7518,475.1329 610.9818,487.9429 " fill="none" id="Regionaltarif-to-RegionalePreisgarantie" style="stroke:#181818;stroke-width:1.0;"/><polygon fill="#181818" points="622.75,490.29,617.6482,485.1937,610.9818,487.9429,616.0835,493.0392,622.75,490.29" style="stroke:#181818;stroke-width:1.0;"/><text fill="#000000" font-family="sans-serif" font-size="13" lengthAdjust="spacing" textLength="92" x="427.5" y="433.0669">preisgarantien</text><text fill="#000000" font-family="sans-serif" font-size="13" lengthAdjust="spacing" textLength="23" x="591.8738" y="501.6121">0..*</text></g><!--link Regionaltarif to Tarifeinschraenkung--><g id="link_Regionaltarif_Tarifeinschraenkung"><path codeLine="30" d="M367.26,362 C455.47,362 545.86,362 617.06,362 " fill="none" id="Regionaltarif-to-Tarifeinschraenkung" style="stroke:#181818;stroke-width:1.0;"/><polygon fill="#181818" points="629.06,362,623.06,358,617.06,362,623.06,366,629.06,362" style="stroke:#181818;stroke-width:1.0;"/><text fill="#000000" font-family="sans-serif" font-size="13" lengthAdjust="spacing" textLength="126" x="410.5" y="358.0669">tarifeinschraenkung</text><text fill="#000000" font-family="sans-serif" font-size="13" lengthAdjust="spacing" textLength="24" x="597.6105" y="374.6226">0..1</text></g><!--SRC=[jLNRZfim47rUlc8KtbA5N9hkHgXTYUtkQrjLUMeQhGmPm2eOP9jT9Mt_lOQ4Ymb9kahoWCHSVCPpV3oEq9SW4-0q22MiA4TFqeGPXXSH8Q2tM8HIfi8U3jraYbP0PPYv5as63r-dJuDqBSE43ICYKSWXIUasoqsiKCQHMHeS0uL98aauzQtlJGiqQxdyoJuAka5xFBhlNDq38lGryDkuUNv1BfGBR12Ims9aMUCbV8B9Q38TZQsnDR5M-39x5zovdelUrBZPP8B8ZICbfsucKItyeNaAZ7wEyILXg2hGLHjy6qWvKY4aONdSUIKS7nKRaiROolnh68p4A5BYuNcymivOBWisTXQO3xUFTyuiv-EIXrUGJ9cVMFFo3wg_pWEhLXJRgt8L0-SIu2LnWm5bDIbG9fXF8sTs-_bS3iewPcML8iIYkUBGqqJG_AvKWiRvNWoEnFQvEr58qtu7uDLwvYJpYIkyC291tIrtCj_PUQ7JUwB39gpUMnFaqbqLl29b2fqJPByo5coLhVkWmzVTJmTWBNpTVvLUN5H3EsGANbqjhcwOHBxjg2i21oD7kkjAhtliYbvDYuNY0rM6IOgr6ByrtT3jFY573LdNemPpWJc6B6iEijniJhBS1dCrzjv_E7kSLwNCsfJhr9glKr3VFYTbnlPyrsd-SBNUxC7WpttvxDIlGZjBfVMXbx-1lRgjeguDpwh0oVpyT0xhs8PEtHq2xJT0Zmri6-h1Ysz3qmRY3gTsOV16E5tIDcZwPF_FNckkxJRM6an6I5S8CSQAL668C7c5LW6VOhGI_m00]--></g></svg>