<svg xmlns="http://www.w3.org/2000/svg" xmlns:xlink="http://www.w3.org/1999/xlink" contentStyleType="text/css" data-diagram-type="CLASS" height="541px" preserveAspectRatio="none" style="width:1476px;height:541px;background:#FFFFFF;" version="1.1" viewBox="0 0 1476 541" width="1476px" zoomAndPan="magnify"><defs/><g><!--cluster bo4e--><g class="cluster" data-entity="bo4e" data-source-line="11" data-uid="ent0005" id="cluster_bo4e"><path d="M1113.11,6 L1152.986,6 A3.75,3.75 0 0 1 1155.486,8.5 L1162.486,28.2969 L1466.52,28.2969 A2.5,2.5 0 0 1 1469.02,30.7969 L1469.02,531.5 A2.5,2.5 0 0 1 1466.52,534 L1113.11,534 A2.5,2.5 0 0 1 1110.61,531.5 L1110.61,8.5 A2.5,2.5 0 0 1 1113.11,6" fill="none" style="stroke:#000000;stroke-width:1.5;"/><line style="stroke:#000000;stroke-width:1.5;" x1="1110.61" x2="1162.486" y1="28.2969" y2="28.2969"/><text fill="#000000" font-family="sans-serif" font-size="14" font-weight="bold" lengthAdjust="spacing" textLength="38.876" x="1114.61" y="20.9951">bo4e</text></g><!--cluster bo--><g class="cluster" data-entity="bo" data-source-line="10" data-uid="ent0003" id="cluster_bo"><path d="M1189.06,49 L1253.894,49 A3.75,3.75 0 0 1 1256.394,51.5 L1263.394,71.2969 L1390.57,71.2969 A2.5,2.5 0 0 1 1393.07,73.7969 L1393.07,208.5 A2.5,2.5 0 0 1 1390.57,211 L1189.06,211 A2.5,2.5 0 0 1 1186.56,208.5 L1186.56,51.5 A2.5,2.5 0 0 1 1189.06,49" fill="#B6D7A8" style="stroke:#000000;stroke-width:1.5;"/><line style="stroke:#000000;stroke-width:1.5;" x1="1186.56" x2="1263.394" y1="71.2969" y2="71.2969"/><a href="https://bo4e.github.io/BO4E-python/latest/api/bo4e.bo.html" target="_top" title="https://bo4e.github.io/BO4E-python/latest/api/bo4e.bo.html" xlink:actuate="onRequest" xlink:href="https://bo4e.github.io/BO4E-python/latest/api/bo4e.bo.html" xlink:show="new" xlink:title="https://bo4e.github.io/BO4E-python/latest/api/bo4e.bo.html" xlink:type="simple"><text fill="#0000FF" font-family="sans-serif" font-size="14" font-weight="bold" lengthAdjust="spacing" text-decoration="underline" textLength="63.834" x="1190.56" y="63.9951">bo4e.bo</text></a></g><!--cluster com--><g class="cluster" data-entity="com" data-source-line="14" data-uid="ent0007" id="cluster_com"><path d="M1178.56,235 L1256.2592,235 A3.75,3.75 0 0 1 1258.7592,237.5 L1265.7592,257.2969 L1401.07,257.2969 A2.5,2.5 0 0 1 1403.57,259.7969 L1403.57,321.5 A2.5,2.5 0 0 1 1401.07,324 L1178.56,324 A2.5,2.5 0 0 1 1176.06,321.5 L1176.06,237.5 A2.5,2.5 0 0 1 1178.56,235" fill="#E0A86C" style="stroke:#000000;stroke-width:1.5;"/><line style="stroke:#000000;stroke-width:1.5;" x1="1176.06" x2="1265.7592" y1="257.2969" y2="257.2969"/><a href="https://bo4e.github.io/BO4E-python/latest/api/bo4e.com.html" target="_top" title="https://bo4e.github.io/BO4E-python/latest/api/bo4e.com.html" xlink:actuate="onRequest" xlink:href="https://bo4e.github.io/BO4E-python/latest/api/bo4e.com.html" xlink:show="new" xlink:title="https://bo4e.github.io/BO4E-python/latest/api/bo4e.com.html" xlink:type="simple"><text fill="#0000FF" font-family="sans-serif" font-size="14" font-weight="bold" lengthAdjust="spacing" text-decoration="underline" textLength="76.6992" x="1180.06" y="249.9951">bo4e.com</text></a></g><!--cluster enum--><g class="cluster" data-entity="enum" data-source-line="17" data-uid="ent0009" id="cluster_enum"><path d="M1137.11,348 L1226.3209,348 A3.75,3.75 0 0 1 1228.8209,350.5 L1235.8209,370.2969 L1442.52,370.2969 A2.5,2.5 0 0 1 1445.02,372.7969 L1445.02,507.5 A2.5,2.5 0 0 1 1442.52,510 L1137.11,510 A2.5,2.5 0 0 1 1134.61,507.5 L1134.61,350.5 A2.5,2.5 0 0 1 1137.11,348" fill="#D1C358" style="stroke:#000000;stroke-width:1.5;"/><line style="stroke:#000000;stroke-width:1.5;" x1="1134.61" x2="1235.8209" y1="370.2969" y2="370.2969"/><a href="https://bo4e.github.io/BO4E-python/latest/api/bo4e.enum.html" target="_top" title="https://bo4e.github.io/BO4E-python/latest/api/bo4e.enum.html" xlink:actuate="onRequest" xlink:href="https://bo4e.github.io/BO4E-python/latest/api/bo4e.enum.html" xlink:show="new" xlink:title="https://bo4e.github.io/BO4E-python/latest/api/bo4e.enum.html" xlink:type="simple"><text fill="#0000FF" font-family="sans-serif" font-size="14" font-weight="bold" lengthAdjust="spacing" text-decoration="underline" textLength="88.2109" x="1138.61" y="362.9951">bo4e.enum</text></a></g><!--class Lokationszuordnung--><g class="entity" data-entity="Lokationszuordnung" data-source-line="11" data-uid="ent0004" id="entity_Lokationszuordnung"><rect fill="#F1F1F1" height="37.9375" rx="2.5" ry="2.5" style="stroke:#181818;stroke-width:0.5;" width="174.5098" x="1202.56" y="84.03"/><ellipse cx="1217.56" cy="102.9987" fill="#ADD1B2" rx="11" ry="11" style="stroke:#181818;stroke-width:1;"/><path d="M1220.5288,108.6394 Q1219.9506,108.9362 1219.31,109.0769 Q1218.6694,109.2331 1217.9663,109.2331 Q1215.4663,109.2331 1214.1381,107.5925 Q1212.8256,105.9362 1212.8256,102.8112 Q1212.8256,99.6862 1214.1381,98.03 Q1215.4663,96.3737 1217.9663,96.3737 Q1218.6694,96.3737 1219.31,96.53 Q1219.9663,96.6862 1220.5288,96.9831 L1220.5288,99.7019 Q1219.9038,99.1237 1219.31,98.8581 Q1218.7163,98.5769 1218.0913,98.5769 Q1216.7475,98.5769 1216.06,99.655 Q1215.3725,100.7175 1215.3725,102.8112 Q1215.3725,104.905 1216.06,105.9831 Q1216.7475,107.0456 1218.0913,107.0456 Q1218.7163,107.0456 1219.31,106.78 Q1219.9038,106.4987 1220.5288,105.9206 L1220.5288,108.6394 Z " fill="#000000"/><a href="https://bo4e.github.io/BO4E-python/latest/api/bo4e.bo.html#bo4e.bo.lokationszuordnung.Lokationszuordnung" target="_top" title="https://bo4e.github.io/BO4E-python/latest/api/bo4e.bo.html#bo4e.bo.lokationszuordnung.Lokationszuordnung" xlink:actuate="onRequest" xlink:href="https://bo4e.github.io/BO4E-python/latest/api/bo4e.bo.html#bo4e.bo.lokationszuordnung.Lokationszuordnung" xlink:show="new" xlink:title="https://bo4e.github.io/BO4E-python/latest/api/bo4e.bo.html#bo4e.bo.lokationszuordnung.Lokationszuordnung" xlink:type="simple"><text fill="#0000FF" font-family="sans-serif" font-size="14" lengthAdjust="spacing" text-decoration="underline" textLength="142.0986" x="1231.7656" y="102.0251">Lokationszuordnung</text></a><text fill="#000000" font-family="sans-serif" font-size="10" lengthAdjust="spacing" textLength="142.5098" x="1231.56" y="114.6091">bo4e.bo.lokationszuordnung</text></g><!--class Geschaeftsobjekt--><g class="entity" data-entity="Geschaeftsobjekt" data-source-line="12" data-uid="ent0006" id="entity_Geschaeftsobjekt"><rect fill="#F1F1F1" height="37.9375" rx="2.5" ry="2.5" style="stroke:#181818;stroke-width:0.5;" width="161.3896" x="1209.12" y="157.03"/><ellipse cx="1224.12" cy="175.9987" fill="#ADD1B2" rx="11" ry="11" style="stroke:#181818;stroke-width:1;"/><path d="M1227.0888,181.6394 Q1226.5106,181.9362 1225.87,182.0769 Q1225.2294,182.2331 1224.5263,182.2331 Q1222.0263,182.2331 1220.6981,180.5925 Q1219.3856,178.9362 1219.3856,175.8112 Q1219.3856,172.6862 1220.6981,171.03 Q1222.0263,169.3737 1224.5263,169.3737 Q1225.2294,169.3737 1225.87,169.53 Q1226.5263,169.6862 1227.0888,169.9831 L1227.0888,172.7019 Q1226.4638,172.1237 1225.87,171.8581 Q1225.2763,171.5769 1224.6513,171.5769 Q1223.3075,171.5769 1222.62,172.655 Q1221.9325,173.7175 1221.9325,175.8112 Q1221.9325,177.905 1222.62,178.9831 Q1223.3075,180.0456 1224.6513,180.0456 Q1225.2763,180.0456 1225.87,179.78 Q1226.4638,179.4987 1227.0888,178.9206 L1227.0888,181.6394 Z " fill="#000000"/><a href="https://bo4e.github.io/BO4E-python/latest/api/bo4e.bo.html#bo4e.bo.geschaeftsobjekt.Geschaeftsobjekt" target="_top" title="https://bo4e.github.io/BO4E-python/latest/api/bo4e.bo.html#bo4e.bo.geschaeftsobjekt.Geschaeftsobjekt" xlink:actuate="onRequest" xlink:href="https://bo4e.github.io/BO4E-python/latest/api/bo4e.bo.html#bo4e.bo.geschaeftsobjekt.Geschaeftsobjekt" xlink:show="new" xlink:title="https://bo4e.github.io/BO4E-python/latest/api/bo4e.bo.html#bo4e.bo.geschaeftsobjekt.Geschaeftsobjekt" xlink:type="simple"><text fill="#0000FF" font-family="sans-serif" font-size="14" lengthAdjust="spacing" text-decoration="underline" textLength="121.7822" x="1241.9237" y="175.0251">Geschaeftsobjekt</text></a><text fill="#000000" font-family="sans-serif" font-size="10" lengthAdjust="spacing" textLength="129.3896" x="1238.12" y="187.6091">bo4e.bo.geschaeftsobjekt</text></g><!--class Konfigurationsprodukt--><g class="entity" data-entity="Konfigurationsprodukt" data-source-line="15" data-uid="ent0008" id="entity_Konfigurationsprodukt"><rect fill="#F1F1F1" height="37.9375" rx="2.5" ry="2.5" style="stroke:#181818;stroke-width:0.5;" width="195.5059" x="1192.06" y="270.03"/><ellipse cx="1207.06" cy="288.9988" fill="#ADD1B2" rx="11" ry="11" style="stroke:#181818;stroke-width:1;"/><path d="M1210.0288,294.6394 Q1209.4506,294.9363 1208.81,295.0769 Q1208.1694,295.2331 1207.4663,295.2331 Q1204.9663,295.2331 1203.6381,293.5925 Q1202.3256,291.9363 1202.3256,288.8113 Q1202.3256,285.6863 1203.6381,284.03 Q1204.9663,282.3738 1207.4663,282.3738 Q1208.1694,282.3738 1208.81,282.53 Q1209.4663,282.6863 1210.0288,282.9831 L1210.0288,285.7019 Q1209.4038,285.1238 1208.81,284.8581 Q1208.2163,284.5769 1207.5913,284.5769 Q1206.2475,284.5769 1205.56,285.655 Q1204.8725,286.7175 1204.8725,288.8113 Q1204.8725,290.905 1205.56,291.9831 Q1206.2475,293.0456 1207.5913,293.0456 Q1208.2163,293.0456 1208.81,292.78 Q1209.4038,292.4988 1210.0288,291.9206 L1210.0288,294.6394 Z " fill="#000000"/><a href="https://bo4e.github.io/BO4E-python/latest/api/bo4e.com.html#bo4e.com.konfigurationsprodukt.Konfigurationsprodukt" target="_top" title="https://bo4e.github.io/BO4E-python/latest/api/bo4e.com.html#bo4e.com.konfigurationsprodukt.Konfigurationsprodukt" xlink:actuate="onRequest" xlink:href="https://bo4e.github.io/BO4E-python/latest/api/bo4e.com.html#bo4e.com.konfigurationsprodukt.Konfigurationsprodukt" xlink:show="new" xlink:title="https://bo4e.github.io/BO4E-python/latest/api/bo4e.com.html#bo4e.com.konfigurationsprodukt.Konfigurationsprodukt" xlink:type="simple"><text fill="#0000FF" font-family="sans-serif" font-size="14" lengthAdjust="spacing" text-decoration="underline" textLength="156.208" x="1224.7089" y="288.0251">Konfigurationsprodukt</text></a><text fill="#000000" font-family="sans-serif" font-size="10" lengthAdjust="spacing" textLength="163.5059" x="1221.06" y="300.6091">bo4e.com.konfigurationsprodukt</text></g><!--class SteuerkanalLeistungsbeschreibung--><g class="entity" data-entity="SteuerkanalLeistungsbeschreibung" data-source-line="18" data-uid="ent0010" id="entity_SteuerkanalLeistungsbeschreibung"><rect fill="#F1F1F1" height="37.9375" rx="2.5" ry="2.5" style="stroke:#181818;stroke-width:0.5;" width="278.415" x="1150.61" y="383.03"/><ellipse cx="1165.61" cy="401.9988" fill="#ADD1B2" rx="11" ry="11" style="stroke:#181818;stroke-width:1;"/><path d="M1168.5788,407.6394 Q1168.0006,407.9363 1167.36,408.0769 Q1166.7194,408.2331 1166.0163,408.2331 Q1163.5163,408.2331 1162.1881,406.5925 Q1160.8756,404.9363 1160.8756,401.8113 Q1160.8756,398.6863 1162.1881,397.03 Q1163.5163,395.3738 1166.0163,395.3738 Q1166.7194,395.3738 1167.36,395.53 Q1168.0163,395.6863 1168.5788,395.9831 L1168.5788,398.7019 Q1167.9538,398.1238 1167.36,397.8581 Q1166.7663,397.5769 1166.1413,397.5769 Q1164.7975,397.5769 1164.11,398.655 Q1163.4225,399.7175 1163.4225,401.8113 Q1163.4225,403.905 1164.11,404.9831 Q1164.7975,406.0456 1166.1413,406.0456 Q1166.7663,406.0456 1167.36,405.78 Q1167.9538,405.4988 1168.5788,404.9206 L1168.5788,407.6394 Z " fill="#000000"/><a href="https://bo4e.github.io/BO4E-python/latest/api/bo4e.enum.html#bo4e.enum.steuerkanalleistungsbeschreibung.SteuerkanalLeistungsbeschreibung" target="_top" title="https://bo4e.github.io/BO4E-python/latest/api/bo4e.enum.html#bo4e.enum.steuerkanalleistungsbeschreibung.SteuerkanalLeistungsbeschreibung" xlink:actuate="onRequest" xlink:href="https://bo4e.github.io/BO4E-python/latest/api/bo4e.enum.html#bo4e.enum.steuerkanalleistungsbeschreibung.SteuerkanalLeistungsbeschreibung" xlink:show="new" xlink:title="https://bo4e.github.io/BO4E-python/latest/api/bo4e.enum.html#bo4e.enum.steuerkanalleistungsbeschreibung.SteuerkanalLeistungsbeschreibung" xlink:type="simple"><text fill="#0000FF" font-family="sans-serif" font-size="14" lengthAdjust="spacing" text-decoration="underline" textLength="246.415" x="1179.61" y="401.0251">SteuerkanalLeistungsbeschreibung</text></a><text fill="#000000" font-family="sans-serif" font-size="10" lengthAdjust="spacing" textLength="231.9873" x="1186.8239" y="413.6091">bo4e.enum.steuerkanalleistungsbeschreibung</text></g><!--class Marktrolle--><g class="entity" data-entity="Marktrolle" data-source-line="19" data-uid="ent0011" id="entity_Marktrolle"><rect fill="#F1F1F1" height="37.9375" rx="2.5" ry="2.5" style="stroke:#181818;stroke-width:0.5;" width="143.5381" x="1218.05" y="456.03"/><ellipse cx="1233.05" cy="474.9988" fill="#ADD1B2" rx="11" ry="11" style="stroke:#181818;stroke-width:1;"/><path d="M1236.0188,480.6394 Q1235.4406,480.9363 1234.8,481.0769 Q1234.1594,481.2331 1233.4563,481.2331 Q1230.9563,481.2331 1229.6281,479.5925 Q1228.3156,477.9363 1228.3156,474.8113 Q1228.3156,471.6863 1229.6281,470.03 Q1230.9563,468.3738 1233.4563,468.3738 Q1234.1594,468.3738 1234.8,468.53 Q1235.4563,468.6863 1236.0188,468.9831 L1236.0188,471.7019 Q1235.3938,471.1238 1234.8,470.8581 Q1234.2063,470.5769 1233.5813,470.5769 Q1232.2375,470.5769 1231.55,471.655 Q1230.8625,472.7175 1230.8625,474.8113 Q1230.8625,476.905 1231.55,477.9831 Q1232.2375,479.0456 1233.5813,479.0456 Q1234.2063,479.0456 1234.8,478.78 Q1235.3938,478.4988 1236.0188,477.9206 L1236.0188,480.6394 Z " fill="#000000"/><a href="https://bo4e.github.io/BO4E-python/latest/api/bo4e.enum.html#bo4e.enum.marktrolle.Marktrolle" target="_top" title="https://bo4e.github.io/BO4E-python/latest/api/bo4e.enum.html#bo4e.enum.marktrolle.Marktrolle" xlink:actuate="onRequest" xlink:href="https://bo4e.github.io/BO4E-python/latest/api/bo4e.enum.html#bo4e.enum.marktrolle.Marktrolle" xlink:show="new" xlink:title="https://bo4e.github.io/BO4E-python/latest/api/bo4e.enum.html#bo4e.enum.marktrolle.Marktrolle" xlink:type="simple"><text fill="#0000FF" font-family="sans-serif" font-size="14" lengthAdjust="spacing" text-decoration="underline" textLength="70.7246" x="1267.4567" y="474.0251">Marktrolle</text></a><text fill="#000000" font-family="sans-serif" font-size="10" lengthAdjust="spacing" textLength="111.5381" x="1247.05" y="486.6091">bo4e.enum.marktrolle</text></g><!--class SteuerbareRessource--><g class="entity" data-entity="SteuerbareRessource" data-source-line="3" data-uid="ent0002" id="entity_SteuerbareRessource"><rect fill="#F1F1F1" height="111.125" rx="2.5" ry="2.5" style="stroke:#181818;stroke-width:0.5;" width="828.6074" x="7" y="211.44"/><ellipse cx="341.8037" cy="230.4088" fill="#ADD1B2" rx="11" ry="11" style="stroke:#181818;stroke-width:1;"/><path d="M344.7725,236.0494 Q344.1943,236.3463 343.5537,236.4869 Q342.9131,236.6431 342.21,236.6431 Q339.71,236.6431 338.3818,235.0025 Q337.0693,233.3463 337.0693,230.2213 Q337.0693,227.0963 338.3818,225.44 Q339.71,223.7838 342.21,223.7838 Q342.9131,223.7838 343.5537,223.94 Q344.21,224.0963 344.7725,224.3931 L344.7725,227.1119 Q344.1475,226.5338 343.5537,226.2681 Q342.96,225.9869 342.335,225.9869 Q340.9912,225.9869 340.3037,227.065 Q339.6162,228.1275 339.6162,230.2213 Q339.6162,232.315 340.3037,233.3931 Q340.9912,234.4556 342.335,234.4556 Q342.96,234.4556 343.5537,234.19 Q344.1475,233.9088 344.7725,233.3306 L344.7725,236.0494 Z " fill="#000000"/><a href="https://bo4e.github.io/BO4E-python/latest/api/bo4e.bo.html#bo4e.bo.steuerbareressource.SteuerbareRessource" target="_top" title="https://bo4e.github.io/BO4E-python/latest/api/bo4e.bo.html#bo4e.bo.steuerbareressource.SteuerbareRessource" xlink:actuate="onRequest" xlink:href="https://bo4e.github.io/BO4E-python/latest/api/bo4e.bo.html#bo4e.bo.steuerbareressource.SteuerbareRessource" xlink:show="new" xlink:title="https://bo4e.github.io/BO4E-python/latest/api/bo4e.bo.html#bo4e.bo.steuerbareressource.SteuerbareRessource" xlink:type="simple"><text fill="#0000FF" font-family="sans-serif" font-size="14" lengthAdjust="spacing" text-decoration="underline" textLength="150.5" x="362.3037" y="229.4351">SteuerbareRessource</text></a><text fill="#000000" font-family="sans-serif" font-size="10" lengthAdjust="spacing" textLength="147.3291" x="363.8892" y="242.0191">bo4e.bo.steuerbareressource</text><line style="stroke:#181818;stroke-width:0.5;" x1="8" x2="834.6074" y1="249.3775" y2="249.3775"/><text fill="#000000" font-family="sans-serif" font-size="14" lengthAdjust="spacing" textLength="816.6074" x="13" y="266.3726">_typ : Literal[&lt;BoTyp.STEUERBARERESSOURCE: 'STEUERBARERESSOURCE'&gt;] [1] = BoTyp.STEUERBARERESSOURCE</text><text fill="#000000" font-family="sans-serif" font-size="14" lengthAdjust="spacing" textLength="293.3232" x="13" y="282.6695">steuerbareRessourceId : str [0..1] = None</text><text fill="#000000" font-family="sans-serif" font-size="14" lengthAdjust="spacing" textLength="343.4102" x="13" y="298.9664">zugeordneteMsbCodenummer : str [0..1] = None</text><text fill="#000000" font-family="sans-serif" font-size="14" lengthAdjust="spacing" textLength="331.0576" x="13" y="315.2632">lokationsbuendelObjektcode : str [0..1] = None</text></g><!--link SteuerbareRessource to Geschaeftsobjekt--><g class="link" data-entity-1="SteuerbareRessource" data-entity-2="Geschaeftsobjekt" data-source-line="22" data-uid="lnk12" id="link_SteuerbareRessource_Geschaeftsobjekt"><path codeLine="22" d="M835.76,236.72 C921.46,228.94 1011.08,219.68 1094.61,209 C1132.26,204.18 1156.0577,200.4898 1190.9977,194.2798" fill="none" id="SteuerbareRessource-to-Geschaeftsobjekt" style="stroke:#181818;stroke-width:1;"/><polygon fill="none" points="1208.72,191.13,1189.9478,188.3724,1192.0477,200.1873,1208.72,191.13" style="stroke:#181818;stroke-width:1;"/></g><!--link SteuerbareRessource to SteuerkanalLeistungsbeschreibung--><g class="link" data-entity-1="SteuerbareRessource" data-entity-2="SteuerkanalLeistungsbeschreibung" data-source-line="23" data-uid="lnk13" id="link_SteuerbareRessource_SteuerkanalLeistungsbeschreibung"><path codeLine="23" d="M781.94,323.03 C917.88,344.21 1051.9231,365.0926 1152.1131,380.7026" fill="none" id="SteuerbareRessource-to-SteuerkanalLeistungsbeschreibung" style="stroke:#181818;stroke-width:1;"/><polygon fill="#181818" points="1163.97,382.55,1158.6573,377.674,1152.1131,380.7026,1157.4257,385.5786,1163.97,382.55" style="stroke:#181818;stroke-width:1;"/><text fill="#000000" font-family="sans-serif" font-size="13" lengthAdjust="spacing" textLength="227.335" x="866.61" y="335.0669">steuerkanalLeistungsbeschreibung</text><text fill="#000000" font-family="sans-serif" font-size="13" lengthAdjust="spacing" textLength="24.8066" x="1118.0648" y="375.3325">0..1</text></g><!--link SteuerbareRessource to Konfigurationsprodukt--><g class="link" data-entity-1="SteuerbareRessource" data-entity-2="Konfigurationsprodukt" data-source-line="24" data-uid="lnk14" id="link_SteuerbareRessource_Konfigurationsprodukt"><path codeLine="24" d="M835.89,277.5 C968.72,280.87 1092.0238,284.0063 1179.7138,286.2263" fill="none" id="SteuerbareRessource-to-Konfigurationsprodukt" style="stroke:#181818;stroke-width:1;"/><polygon fill="#181818" points="1191.71,286.53,1185.8132,282.3794,1179.7138,286.2263,1185.6107,290.3769,1191.71,286.53" style="stroke:#181818;stroke-width:1;"/><text fill="#000000" font-family="sans-serif" font-size="13" lengthAdjust="spacing" textLength="152.0518" x="904.11" y="275.0669">konfigurationsprodukte</text><text fill="#000000" font-family="sans-serif" font-size="13" lengthAdjust="spacing" textLength="23.0356" x="1161.0048" y="298.9553">0..*</text></g><!--link SteuerbareRessource to Marktrolle--><g class="link" data-entity-1="SteuerbareRessource" data-entity-2="Marktrolle" data-source-line="25" data-uid="lnk15" id="link_SteuerbareRessource_Marktrolle"><path codeLine="25" d="M601.92,323.03 C682.14,346.98 778.14,374.15 865.61,395 C988.35,424.25 1121.3304,447.7443 1205.7804,461.6943" fill="none" id="SteuerbareRessource-to-Marktrolle" style="stroke:#181818;stroke-width:1;"/><polygon fill="#181818" points="1217.62,463.65,1212.3521,458.7256,1205.7804,461.6943,1211.0483,466.6187,1217.62,463.65" style="stroke:#181818;stroke-width:1;"/><text fill="#000000" font-family="sans-serif" font-size="13" lengthAdjust="spacing" textLength="157.7329" x="901.61" y="391.0669">eigenschaftMsbLokation</text><text fill="#000000" font-family="sans-serif" font-size="13" lengthAdjust="spacing" textLength="24.8066" x="1185.3714" y="475.3446">0..1</text></g><!--link SteuerbareRessource to Lokationszuordnung--><g class="link" data-entity-1="SteuerbareRessource" data-entity-2="Lokationszuordnung" data-source-line="26" data-uid="lnk16" id="link_SteuerbareRessource_Lokationszuordnung"><path codeLine="26" d="M597.01,210.95 C677.96,186.95 775.89,160.66 865.61,144 C981,122.57 1104.33,112.6326 1190.3,107.6626" fill="none" id="SteuerbareRessource-to-Lokationszuordnung" style="stroke:#181818;stroke-width:1;"/><polygon fill="#181818" points="1202.28,106.97,1196.0591,103.323,1190.3,107.6626,1196.5209,111.3096,1202.28,106.97" style="stroke:#181818;stroke-width:1;"/><text fill="#000000" font-family="sans-serif" font-size="13" lengthAdjust="spacing" textLength="144.5552" x="908.11" y="112.0669">lokationszuordnungen</text><text fill="#000000" font-family="sans-serif" font-size="13" lengthAdjust="spacing" textLength="23.0356" x="1171.3896" y="119.9563">0..*</text></g><!--reverse link SteuerbareRessource to Lokationszuordnung--><g class="link" data-entity-1="SteuerbareRessource" data-entity-2="Lokationszuordnung" data-source-line="27" data-uid="lnk17" id="link_SteuerbareRessource_Lokationszuordnung"><path codeLine="27" d="M833.479,209.2703 C976.329,188.8303 1091.54,171.71 1094.61,169 C1104.63,160.15 1092.81,149.1 1102.61,140 C1129.16,115.32 1167.28,105.01 1202.11,101.29" fill="none" id="SteuerbareRessource-backto-Lokationszuordnung" style="stroke:#181818;stroke-width:1;"/><polygon fill="#181818" points="821.6,210.97,828.1061,214.0798,833.479,209.2703,826.9729,206.1605,821.6,210.97" style="stroke:#181818;stroke-width:1;"/><text fill="#000000" font-family="sans-serif" font-size="13" lengthAdjust="spacing" textLength="146.5103" x="907.11" y="165.0669">steuerbareRessourcen</text><text fill="#000000" font-family="sans-serif" font-size="13" lengthAdjust="spacing" textLength="23.0356" x="843.5566" y="200.6986">0..*</text></g><!--SRC=[hLPRYzf057usl-AW3mk2KUbskuIje3QKKhU2xZvPAPFac4nDCc5cGj6s_xsJg8cOYMxHjvoFS_tEPHBYIe9amAaVIF0eHrTI5Xk66n8XeBbO158cmkfs7NQFfazba3ecPTtHzDxk91iPiBWR4eb2Tab2TreECmCPXQs382Ico1t2aQCGBEKkclC2cnqmq63BvVVuIT0jMltUu8o_9X2XiuVVHkE7t2HWmOHAv2HSF8tOooOnvo_sgpqR3MVsp9xFfw-piMt1dGQz6onXqL_2HwWrD1gY6lgBfu8AoM7HCytS_XkBqMXiKnyPzsAK-2oSCVCmJgC8kLuxP6kITKGuASOUXbFd9wwbgwoq-dyD8oOHYeIesg_g7ko5vJBdTYz1Q_JmwSFmCUFrbYDIbBbDCsxIs3Sd5GYga7O-gixo4ghMjwt1H-46H2sKO7cJpCyd09m2sknFtUIvdrggHb_RPvT5HurMqd6dbGWjkpTyV1XVs-f3d5OXhLcyedxATzr8EFDInTPN7GfQjCfRhTky9AsJ6r2ORUuHXvbuJ68cGylhk-_UNxqmHQXMAUwEpfh490oH2gacMZZPe72aJhP2yr9XebE0ImfLejyK-EWQr_k-FHyHuMl9cSh9V2u-eVoigQOqo_CkzRDhgdseEfq_WyD5h6ovtaJPjA6PtUfcEHoN6vJT-0iqdW_NRXOBNRDX5cWN1_-dZYEwBK3gOvnnifBgWJjStJVcgGZL77uBgZSTQrpklRKx7JZlKlDcgn-VWAgdDSB8GIuC4R1Ve8soeXXwuXy0]--></g></svg>