<?xml version="1.0" encoding="us-ascii" standalone="no"?><svg xmlns="http://www.w3.org/2000/svg" xmlns:xlink="http://www.w3.org/1999/xlink" contentStyleType="text/css" height="541px" preserveAspectRatio="none" style="width:995px;height:541px;background:#FFFFFF;" version="1.1" viewBox="0 0 995 541" width="995px" zoomAndPan="magnify"><defs/><g><!--cluster bo4e--><g id="cluster_bo4e"><path d="M633.5,6 L674.5,6 A3.75,3.75 0 0 1 677,8.5 L684,28.2969 L985.5,28.2969 A2.5,2.5 0 0 1 988,30.7969 L988,531.5 A2.5,2.5 0 0 1 985.5,534 L633.5,534 A2.5,2.5 0 0 1 631,531.5 L631,8.5 A2.5,2.5 0 0 1 633.5,6 " fill="none" style="stroke:#000000;stroke-width:1.5;"/><line style="stroke:#000000;stroke-width:1.5;" x1="631" x2="684" y1="28.2969" y2="28.2969"/><text fill="#000000" font-family="sans-serif" font-size="14" font-weight="bold" lengthAdjust="spacing" textLength="40" x="635" y="20.9951">bo4e</text></g><!--cluster bo--><g id="cluster_bo"><path d="M709,49 L775,49 A3.75,3.75 0 0 1 777.5,51.5 L784.5,71.2969 L910,71.2969 A2.5,2.5 0 0 1 912.5,73.7969 L912.5,208.5 A2.5,2.5 0 0 1 910,211 L709,211 A2.5,2.5 0 0 1 706.5,208.5 L706.5,51.5 A2.5,2.5 0 0 1 709,49 " fill="#B6D7A8" style="stroke:#000000;stroke-width:1.5;"/><line style="stroke:#000000;stroke-width:1.5;" x1="706.5" x2="784.5" y1="71.2969" y2="71.2969"/><a href="https://bo4e.github.io/BO4E-python/latest/api/bo4e.bo.html" target="_top" title="https://bo4e.github.io/BO4E-python/latest/api/bo4e.bo.html" xlink:actuate="onRequest" xlink:href="https://bo4e.github.io/BO4E-python/latest/api/bo4e.bo.html" xlink:show="new" xlink:title="https://bo4e.github.io/BO4E-python/latest/api/bo4e.bo.html" xlink:type="simple"><text fill="#0000FF" font-family="sans-serif" font-size="14" font-weight="bold" lengthAdjust="spacing" text-decoration="underline" textLength="65" x="710.5" y="63.9951">bo4e.bo</text></a></g><!--cluster com--><g id="cluster_com"><path d="M702,235 L781,235 A3.75,3.75 0 0 1 783.5,237.5 L790.5,257.2969 L917,257.2969 A2.5,2.5 0 0 1 919.5,259.7969 L919.5,321.5 A2.5,2.5 0 0 1 917,324 L702,324 A2.5,2.5 0 0 1 699.5,321.5 L699.5,237.5 A2.5,2.5 0 0 1 702,235 " fill="#E0A86C" style="stroke:#000000;stroke-width:1.5;"/><line style="stroke:#000000;stroke-width:1.5;" x1="699.5" x2="790.5" y1="257.2969" y2="257.2969"/><a href="https://bo4e.github.io/BO4E-python/latest/api/bo4e.com.html" target="_top" title="https://bo4e.github.io/BO4E-python/latest/api/bo4e.com.html" xlink:actuate="onRequest" xlink:href="https://bo4e.github.io/BO4E-python/latest/api/bo4e.com.html" xlink:show="new" xlink:title="https://bo4e.github.io/BO4E-python/latest/api/bo4e.com.html" xlink:type="simple"><text fill="#0000FF" font-family="sans-serif" font-size="14" font-weight="bold" lengthAdjust="spacing" text-decoration="underline" textLength="78" x="703.5" y="249.9951">bo4e.com</text></a></g><!--cluster enum--><g id="cluster_enum"><path d="M657.5,348 L747.5,348 A3.75,3.75 0 0 1 750,350.5 L757,370.2969 L961.5,370.2969 A2.5,2.5 0 0 1 964,372.7969 L964,507.5 A2.5,2.5 0 0 1 961.5,510 L657.5,510 A2.5,2.5 0 0 1 655,507.5 L655,350.5 A2.5,2.5 0 0 1 657.5,348 " fill="#D1C358" style="stroke:#000000;stroke-width:1.5;"/><line style="stroke:#000000;stroke-width:1.5;" x1="655" x2="757" y1="370.2969" y2="370.2969"/><a href="https://bo4e.github.io/BO4E-python/latest/api/bo4e.enum.html" target="_top" title="https://bo4e.github.io/BO4E-python/latest/api/bo4e.enum.html" xlink:actuate="onRequest" xlink:href="https://bo4e.github.io/BO4E-python/latest/api/bo4e.enum.html" xlink:show="new" xlink:title="https://bo4e.github.io/BO4E-python/latest/api/bo4e.enum.html" xlink:type="simple"><text fill="#0000FF" font-family="sans-serif" font-size="14" font-weight="bold" lengthAdjust="spacing" text-decoration="underline" textLength="89" x="659" y="362.9951">bo4e.enum</text></a></g><!--class Geschaeftsobjekt--><g id="elem_Geschaeftsobjekt"><rect codeLine="10" fill="#F1F1F1" height="37.9375" id="Geschaeftsobjekt" rx="2.5" ry="2.5" style="stroke:#181818;stroke-width:0.5;" width="156" x="731.5" y="84.03"/><ellipse cx="746.5" cy="102.9987" fill="#ADD1B2" rx="11" ry="11" style="stroke:#181818;stroke-width:1.0;"/><path d="M749.4688,108.6394 Q748.8906,108.9362 748.25,109.0769 Q747.6094,109.2331 746.9063,109.2331 Q744.4063,109.2331 743.0781,107.5925 Q741.7656,105.9362 741.7656,102.8112 Q741.7656,99.6862 743.0781,98.03 Q744.4063,96.3737 746.9063,96.3737 Q747.6094,96.3737 748.25,96.53 Q748.9063,96.6862 749.4688,96.9831 L749.4688,99.7019 Q748.8438,99.1237 748.25,98.8581 Q747.6563,98.5769 747.0313,98.5769 Q745.6875,98.5769 745,99.655 Q744.3125,100.7175 744.3125,102.8112 Q744.3125,104.905 745,105.9831 Q745.6875,107.0456 747.0313,107.0456 Q747.6563,107.0456 748.25,106.78 Q748.8438,106.4987 749.4688,105.9206 L749.4688,108.6394 Z " fill="#000000"/><a href="https://bo4e.github.io/BO4E-python/latest/api/bo4e.bo.html#bo4e.bo.geschaeftsobjekt.Geschaeftsobjekt" target="_top" title="https://bo4e.github.io/BO4E-python/latest/api/bo4e.bo.html#bo4e.bo.geschaeftsobjekt.Geschaeftsobjekt" xlink:actuate="onRequest" xlink:href="https://bo4e.github.io/BO4E-python/latest/api/bo4e.bo.html#bo4e.bo.geschaeftsobjekt.Geschaeftsobjekt" xlink:show="new" xlink:title="https://bo4e.github.io/BO4E-python/latest/api/bo4e.bo.html#bo4e.bo.geschaeftsobjekt.Geschaeftsobjekt" xlink:type="simple"><text fill="#0000FF" font-family="sans-serif" font-size="14" lengthAdjust="spacing" text-decoration="underline" textLength="122" x="761.5" y="102.0251">Geschaeftsobjekt</text></a><text fill="#000000" font-family="sans-serif" font-size="10" lengthAdjust="spacing" textLength="124" x="760.5" y="114.6091">bo4e.bo.geschaeftsobjekt</text></g><!--class Lokationszuordnung--><g id="elem_Lokationszuordnung"><rect codeLine="11" fill="#F1F1F1" height="37.9375" id="Lokationszuordnung" rx="2.5" ry="2.5" style="stroke:#181818;stroke-width:0.5;" width="174" x="722.5" y="157.03"/><ellipse cx="737.5" cy="175.9987" fill="#ADD1B2" rx="11" ry="11" style="stroke:#181818;stroke-width:1.0;"/><path d="M740.4688,181.6394 Q739.8906,181.9362 739.25,182.0769 Q738.6094,182.2331 737.9063,182.2331 Q735.4063,182.2331 734.0781,180.5925 Q732.7656,178.9362 732.7656,175.8112 Q732.7656,172.6862 734.0781,171.03 Q735.4063,169.3737 737.9063,169.3737 Q738.6094,169.3737 739.25,169.53 Q739.9063,169.6862 740.4688,169.9831 L740.4688,172.7019 Q739.8438,172.1237 739.25,171.8581 Q738.6563,171.5769 738.0313,171.5769 Q736.6875,171.5769 736,172.655 Q735.3125,173.7175 735.3125,175.8112 Q735.3125,177.905 736,178.9831 Q736.6875,180.0456 738.0313,180.0456 Q738.6563,180.0456 739.25,179.78 Q739.8438,179.4987 740.4688,178.9206 L740.4688,181.6394 Z " fill="#000000"/><a href="https://bo4e.github.io/BO4E-python/latest/api/bo4e.bo.html#bo4e.bo.lokationszuordnung.Lokationszuordnung" target="_top" title="https://bo4e.github.io/BO4E-python/latest/api/bo4e.bo.html#bo4e.bo.lokationszuordnung.Lokationszuordnung" xlink:actuate="onRequest" xlink:href="https://bo4e.github.io/BO4E-python/latest/api/bo4e.bo.html#bo4e.bo.lokationszuordnung.Lokationszuordnung" xlink:show="new" xlink:title="https://bo4e.github.io/BO4E-python/latest/api/bo4e.bo.html#bo4e.bo.lokationszuordnung.Lokationszuordnung" xlink:type="simple"><text fill="#0000FF" font-family="sans-serif" font-size="14" lengthAdjust="spacing" text-decoration="underline" textLength="142" x="751.5" y="175.0251">Lokationszuordnung</text></a><text fill="#000000" font-family="sans-serif" font-size="10" lengthAdjust="spacing" textLength="135" x="755" y="187.6091">bo4e.bo.lokationszuordnung</text></g><!--class Konfigurationsprodukt--><g id="elem_Konfigurationsprodukt"><rect codeLine="14" fill="#F1F1F1" height="37.9375" id="Konfigurationsprodukt" rx="2.5" ry="2.5" style="stroke:#181818;stroke-width:0.5;" width="188" x="715.5" y="270.03"/><ellipse cx="730.5" cy="288.9988" fill="#ADD1B2" rx="11" ry="11" style="stroke:#181818;stroke-width:1.0;"/><path d="M733.4688,294.6394 Q732.8906,294.9363 732.25,295.0769 Q731.6094,295.2331 730.9063,295.2331 Q728.4063,295.2331 727.0781,293.5925 Q725.7656,291.9363 725.7656,288.8113 Q725.7656,285.6863 727.0781,284.03 Q728.4063,282.3738 730.9063,282.3738 Q731.6094,282.3738 732.25,282.53 Q732.9063,282.6863 733.4688,282.9831 L733.4688,285.7019 Q732.8438,285.1238 732.25,284.8581 Q731.6563,284.5769 731.0313,284.5769 Q729.6875,284.5769 729,285.655 Q728.3125,286.7175 728.3125,288.8113 Q728.3125,290.905 729,291.9831 Q729.6875,293.0456 731.0313,293.0456 Q731.6563,293.0456 732.25,292.78 Q732.8438,292.4988 733.4688,291.9206 L733.4688,294.6394 Z " fill="#000000"/><a href="https://bo4e.github.io/BO4E-python/latest/api/bo4e.com.html#bo4e.com.konfigurationsprodukt.Konfigurationsprodukt" target="_top" title="https://bo4e.github.io/BO4E-python/latest/api/bo4e.com.html#bo4e.com.konfigurationsprodukt.Konfigurationsprodukt" xlink:actuate="onRequest" xlink:href="https://bo4e.github.io/BO4E-python/latest/api/bo4e.com.html#bo4e.com.konfigurationsprodukt.Konfigurationsprodukt" xlink:show="new" xlink:title="https://bo4e.github.io/BO4E-python/latest/api/bo4e.com.html#bo4e.com.konfigurationsprodukt.Konfigurationsprodukt" xlink:type="simple"><text fill="#0000FF" font-family="sans-serif" font-size="14" lengthAdjust="spacing" text-decoration="underline" textLength="153" x="746" y="288.0251">Konfigurationsprodukt</text></a><text fill="#000000" font-family="sans-serif" font-size="10" lengthAdjust="spacing" textLength="156" x="744.5" y="300.6091">bo4e.com.konfigurationsprodukt</text></g><!--class Marktrolle--><g id="elem_Marktrolle"><rect codeLine="17" fill="#F1F1F1" height="37.9375" id="Marktrolle" rx="2.5" ry="2.5" style="stroke:#181818;stroke-width:0.5;" width="139" x="740" y="383.03"/><ellipse cx="755" cy="401.9988" fill="#ADD1B2" rx="11" ry="11" style="stroke:#181818;stroke-width:1.0;"/><path d="M757.9688,407.6394 Q757.3906,407.9363 756.75,408.0769 Q756.1094,408.2331 755.4063,408.2331 Q752.9063,408.2331 751.5781,406.5925 Q750.2656,404.9363 750.2656,401.8113 Q750.2656,398.6863 751.5781,397.03 Q752.9063,395.3738 755.4063,395.3738 Q756.1094,395.3738 756.75,395.53 Q757.4063,395.6863 757.9688,395.9831 L757.9688,398.7019 Q757.3438,398.1238 756.75,397.8581 Q756.1563,397.5769 755.5313,397.5769 Q754.1875,397.5769 753.5,398.655 Q752.8125,399.7175 752.8125,401.8113 Q752.8125,403.905 753.5,404.9831 Q754.1875,406.0456 755.5313,406.0456 Q756.1563,406.0456 756.75,405.78 Q757.3438,405.4988 757.9688,404.9206 L757.9688,407.6394 Z " fill="#000000"/><a href="https://bo4e.github.io/BO4E-python/latest/api/bo4e.enum.html#bo4e.enum.marktrolle.Marktrolle" target="_top" title="https://bo4e.github.io/BO4E-python/latest/api/bo4e.enum.html#bo4e.enum.marktrolle.Marktrolle" xlink:actuate="onRequest" xlink:href="https://bo4e.github.io/BO4E-python/latest/api/bo4e.enum.html#bo4e.enum.marktrolle.Marktrolle" xlink:show="new" xlink:title="https://bo4e.github.io/BO4E-python/latest/api/bo4e.enum.html#bo4e.enum.marktrolle.Marktrolle" xlink:type="simple"><text fill="#0000FF" font-family="sans-serif" font-size="14" lengthAdjust="spacing" text-decoration="underline" textLength="67" x="789" y="401.0251">Marktrolle</text></a><text fill="#000000" font-family="sans-serif" font-size="10" lengthAdjust="spacing" textLength="107" x="769" y="413.6091">bo4e.enum.marktrolle</text></g><!--class SteuerkanalLeistungsbeschreibung--><g id="elem_SteuerkanalLeistungsbeschreibung"><rect codeLine="18" fill="#F1F1F1" height="37.9375" id="SteuerkanalLeistungsbeschreibung" rx="2.5" ry="2.5" style="stroke:#181818;stroke-width:0.5;" width="277" x="671" y="456.03"/><ellipse cx="686" cy="474.9988" fill="#ADD1B2" rx="11" ry="11" style="stroke:#181818;stroke-width:1.0;"/><path d="M688.9688,480.6394 Q688.3906,480.9363 687.75,481.0769 Q687.1094,481.2331 686.4063,481.2331 Q683.9063,481.2331 682.5781,479.5925 Q681.2656,477.9363 681.2656,474.8113 Q681.2656,471.6863 682.5781,470.03 Q683.9063,468.3738 686.4063,468.3738 Q687.1094,468.3738 687.75,468.53 Q688.4063,468.6863 688.9688,468.9831 L688.9688,471.7019 Q688.3438,471.1238 687.75,470.8581 Q687.1563,470.5769 686.5313,470.5769 Q685.1875,470.5769 684.5,471.655 Q683.8125,472.7175 683.8125,474.8113 Q683.8125,476.905 684.5,477.9831 Q685.1875,479.0456 686.5313,479.0456 Q687.1563,479.0456 687.75,478.78 Q688.3438,478.4988 688.9688,477.9206 L688.9688,480.6394 Z " fill="#000000"/><a href="https://bo4e.github.io/BO4E-python/latest/api/bo4e.enum.html#bo4e.enum.steuerkanalleistungsbeschreibung.SteuerkanalLeistungsbeschreibung" target="_top" title="https://bo4e.github.io/BO4E-python/latest/api/bo4e.enum.html#bo4e.enum.steuerkanalleistungsbeschreibung.SteuerkanalLeistungsbeschreibung" xlink:actuate="onRequest" xlink:href="https://bo4e.github.io/BO4E-python/latest/api/bo4e.enum.html#bo4e.enum.steuerkanalleistungsbeschreibung.SteuerkanalLeistungsbeschreibung" xlink:show="new" xlink:title="https://bo4e.github.io/BO4E-python/latest/api/bo4e.enum.html#bo4e.enum.steuerkanalleistungsbeschreibung.SteuerkanalLeistungsbeschreibung" xlink:type="simple"><text fill="#0000FF" font-family="sans-serif" font-size="14" lengthAdjust="spacing" text-decoration="underline" textLength="245" x="700" y="474.0251">SteuerkanalLeistungsbeschreibung</text></a><text fill="#000000" font-family="sans-serif" font-size="10" lengthAdjust="spacing" textLength="220" x="712.5" y="486.6091">bo4e.enum.steuerkanalleistungsbeschreibung</text></g><!--class SteuerbareRessource--><g id="elem_SteuerbareRessource"><rect codeLine="3" fill="#F1F1F1" height="94.8281" id="SteuerbareRessource" rx="2.5" ry="2.5" style="stroke:#181818;stroke-width:0.5;" width="354" x="7" y="214.59"/><ellipse cx="103.75" cy="233.5587" fill="#ADD1B2" rx="11" ry="11" style="stroke:#181818;stroke-width:1.0;"/><path d="M106.7188,239.1994 Q106.1406,239.4962 105.5,239.6369 Q104.8594,239.7931 104.1563,239.7931 Q101.6563,239.7931 100.3281,238.1525 Q99.0156,236.4962 99.0156,233.3712 Q99.0156,230.2462 100.3281,228.59 Q101.6563,226.9337 104.1563,226.9337 Q104.8594,226.9337 105.5,227.09 Q106.1563,227.2462 106.7188,227.5431 L106.7188,230.2619 Q106.0938,229.6837 105.5,229.4181 Q104.9063,229.1369 104.2813,229.1369 Q102.9375,229.1369 102.25,230.215 Q101.5625,231.2775 101.5625,233.3712 Q101.5625,235.465 102.25,236.5431 Q102.9375,237.6056 104.2813,237.6056 Q104.9063,237.6056 105.5,237.34 Q106.0938,237.0587 106.7188,236.4806 L106.7188,239.1994 Z " fill="#000000"/><a href="https://bo4e.github.io/BO4E-python/latest/api/bo4e.bo.html#bo4e.bo.steuerbareressource.SteuerbareRessource" target="_top" title="https://bo4e.github.io/BO4E-python/latest/api/bo4e.bo.html#bo4e.bo.steuerbareressource.SteuerbareRessource" xlink:actuate="onRequest" xlink:href="https://bo4e.github.io/BO4E-python/latest/api/bo4e.bo.html#bo4e.bo.steuerbareressource.SteuerbareRessource" xlink:show="new" xlink:title="https://bo4e.github.io/BO4E-python/latest/api/bo4e.bo.html#bo4e.bo.steuerbareressource.SteuerbareRessource" xlink:type="simple"><text fill="#0000FF" font-family="sans-serif" font-size="14" lengthAdjust="spacing" text-decoration="underline" textLength="152" x="124.25" y="232.5851">SteuerbareRessource</text></a><text fill="#000000" font-family="sans-serif" font-size="10" lengthAdjust="spacing" textLength="142" x="129.25" y="245.1691">bo4e.bo.steuerbareressource</text><line style="stroke:#181818;stroke-width:0.5;" x1="8" x2="360" y1="252.5275" y2="252.5275"/><text fill="#000000" font-family="sans-serif" font-size="14" lengthAdjust="spacing" textLength="291" x="13" y="269.5226">steuerbareRessourceId : str [0..1] = None</text><text fill="#000000" font-family="sans-serif" font-size="14" lengthAdjust="spacing" textLength="342" x="13" y="285.8195">zugeordneteMsbCodenummer : str [0..1] = None</text><text fill="#000000" font-family="sans-serif" font-size="14" lengthAdjust="spacing" textLength="327" x="13" y="302.1164">lokationsbuendelObjektcode : str [0..1] = None</text></g><!--reverse link SteuerbareRessource to Lokationszuordnung--><g id="link_SteuerbareRessource_Lokationszuordnung"><path codeLine="21" d="M373.2051,217.9521 C383.1951,216.0821 381.31,216.55 391,215 C504.75,196.79 637.41,186.19 722.13,180.75 " fill="none" id="SteuerbareRessource-backto-Lokationszuordnung" style="stroke:#181818;stroke-width:1.0;"/><polygon fill="#181818" points="361.41,220.16,368.0435,222.9878,373.2051,217.9521,366.5716,215.1243,361.41,220.16" style="stroke:#181818;stroke-width:1.0;"/><text fill="#000000" font-family="sans-serif" font-size="13" lengthAdjust="spacing" textLength="144" x="431" y="186.0669">steuerbareRessourcen</text><text fill="#000000" font-family="sans-serif" font-size="13" lengthAdjust="spacing" textLength="23" x="368.7893" y="230.8879">0..*</text></g><!--link SteuerbareRessource to Lokationszuordnung--><g id="link_SteuerbareRessource_Lokationszuordnung"><path codeLine="26" d="M361.47,263.6 C439.71,261.59 532.53,255.46 615,240 C666.47,230.35 711.92,214.8297 750.54,199.7697 " fill="none" id="SteuerbareRessource-to-Lokationszuordnung" style="stroke:#181818;stroke-width:1.0;"/><polygon fill="#181818" points="761.72,195.41,754.6768,193.8632,750.54,199.7697,757.5832,201.3165,761.72,195.41" style="stroke:#181818;stroke-width:1.0;"/><text fill="#000000" font-family="sans-serif" font-size="13" lengthAdjust="spacing" textLength="141" x="432.5" y="236.0669">lokationszuordnungen</text><text fill="#000000" font-family="sans-serif" font-size="13" lengthAdjust="spacing" textLength="23" x="722.0475" y="215.0644">0..*</text></g><!--link SteuerbareRessource to Geschaeftsobjekt--><g id="link_SteuerbareRessource_Geschaeftsobjekt"><path codeLine="22" d="M271.98,214.12 C307.88,196.2 350.51,177.25 391,165 C506.55,130.04 628.3459,115.8175 713.2859,109.1075 " fill="none" id="SteuerbareRessource-to-Geschaeftsobjekt" style="stroke:#181818;stroke-width:1.0;"/><polygon fill="none" points="731.23,107.69,712.8134,103.1262,713.7584,115.0889,731.23,107.69" style="stroke:#181818;stroke-width:1.0;"/></g><!--link SteuerbareRessource to SteuerkanalLeistungsbeschreibung--><g id="link_SteuerbareRessource_SteuerkanalLeistungsbeschreibung"><path codeLine="23" d="M246.61,309.82 C285.9,338.06 339.05,372.24 391,393 C480.69,428.84 575.7849,447.8031 658.9949,459.4031 " fill="none" id="SteuerbareRessource-to-SteuerkanalLeistungsbeschreibung" style="stroke:#181818;stroke-width:1.0;"/><polygon fill="#181818" points="670.88,461.06,665.4898,456.2699,658.9949,459.4031,664.3852,464.1933,670.88,461.06" style="stroke:#181818;stroke-width:1.0;"/><text fill="#000000" font-family="sans-serif" font-size="13" lengthAdjust="spacing" textLength="222" x="392" y="389.0669">steuerkanalLeistungsbeschreibung</text><text fill="#000000" font-family="sans-serif" font-size="13" lengthAdjust="spacing" textLength="24" x="639.1137" y="472.7983">0..1</text></g><!--link SteuerbareRessource to Konfigurationsprodukt--><g id="link_SteuerbareRessource_Konfigurationsprodukt"><path codeLine="24" d="M361.23,290.29 C371.29,291.35 381.26,292.27 391,293 C490.28,300.43 515.45,294.03 615,293 C647.59,292.66 671.2728,292.2708 703.0128,291.5808 " fill="none" id="SteuerbareRessource-to-Konfigurationsprodukt" style="stroke:#181818;stroke-width:1.0;"/><polygon fill="#181818" points="715.01,291.32,708.9245,287.4513,703.0128,291.5808,709.0984,295.4495,715.01,291.32" style="stroke:#181818;stroke-width:1.0;"/><text fill="#000000" font-family="sans-serif" font-size="13" lengthAdjust="spacing" textLength="147" x="429.5" y="289.0669">konfigurationsprodukte</text><text fill="#000000" font-family="sans-serif" font-size="13" lengthAdjust="spacing" textLength="23" x="684.5576" y="304.0821">0..*</text></g><!--link SteuerbareRessource to Marktrolle--><g id="link_SteuerbareRessource_Marktrolle"><path codeLine="25" d="M343.74,309.85 C359.65,314.16 375.61,318.29 391,322 C512.79,351.34 644.8051,374.9561 727.9051,388.8861 " fill="none" id="SteuerbareRessource-to-Marktrolle" style="stroke:#181818;stroke-width:1.0;"/><polygon fill="#181818" points="739.74,390.87,734.4839,385.9331,727.9051,388.8861,733.1613,393.823,739.74,390.87" style="stroke:#181818;stroke-width:1.0;"/><text fill="#000000" font-family="sans-serif" font-size="13" lengthAdjust="spacing" textLength="154" x="426" y="318.0669">eigenschaftMsbLokation</text><text fill="#000000" font-family="sans-serif" font-size="13" lengthAdjust="spacing" textLength="24" x="707.9473" y="402.5974">0..1</text></g><!--SRC=[hLN1Rjim33tNNq7Ojm1n4gphYc0hq7R5CAnTWVMOvI3RZAt5bW9Hnh1i_VT9JkqOjfAqI6xY0qcHxubKZWiDMeBYQQOXuGfZpQNml3XdHE3FPfdMAvgEHf4ynp3bEYkZaClHpUFvtN3rHsTIZ7AcaVI8hVZ6Av9Xfeiyg0tIMAAAc4A5HB9KCOPF3VQZni21pUS_nKVYQvnEnbTxyld0o1KFVxqpwiDV4vW2QGMpSHXEvl09lak1tjcwJ56gHA361ufkPOAYB0fKRkzSBfbbYw8IHOBvO_GBbpesKKx_PyyJh41QCLFNKSp2Yp6VLts_M13SN7p-S7rfUpwbV2bId37pK4XM3OPVEW1q0QTgtJHLwTt8qrRU2BGkhQgbICFx7WHzo5b_FrdLGJ_Q27siph4iMa8RgwsqCI6u6rzVNjmUAtLzJz1OIoaMF2tLfgULaabf5F_cGi69zhdRcRPgoPda11JQoMrnQCqsYTQ689d4xzuVFJ3DLS7MB9XQQYNp7CE7vWZROv-cJbXLwjR_z1LkrkAI2MRISzBcvL9anr4XZ-oeF6qTxbqESCXXHu-7BcxjyjsvxJPrVYA-sRa37mR38TIBqJNqTa7tWeKxvN3uxwh9rTjOpX0JCwXAcVZRztQOqRggFNtllsxWDpjYnz1EmJcB-9O-MYzw2iXJ59QJXJP_PatrA-lS9Kv_sHfnl8oRhxN08a957cNoDpXlMN3C4_eF]--></g></svg>