<?xml version="1.0" encoding="us-ascii" standalone="no"?><svg xmlns="http://www.w3.org/2000/svg" xmlns:xlink="http://www.w3.org/1999/xlink" contentStyleType="text/css" height="687px" preserveAspectRatio="none" style="width:884px;height:687px;background:#FFFFFF;" version="1.1" viewBox="0 0 884 687" width="884px" zoomAndPan="magnify"><defs/><g><!--cluster bo4e--><g id="cluster_bo4e"><path d="M574.5,6 L615.5,6 A3.75,3.75 0 0 1 618,8.5 L625,28.2969 L874.5,28.2969 A2.5,2.5 0 0 1 877,30.7969 L877,677.5 A2.5,2.5 0 0 1 874.5,680 L574.5,680 A2.5,2.5 0 0 1 572,677.5 L572,8.5 A2.5,2.5 0 0 1 574.5,6 " fill="none" style="stroke:#000000;stroke-width:1.5;"/><line style="stroke:#000000;stroke-width:1.5;" x1="572" x2="625" y1="28.2969" y2="28.2969"/><text fill="#000000" font-family="sans-serif" font-size="14" font-weight="bold" lengthAdjust="spacing" textLength="40" x="576" y="20.9951">bo4e</text></g><!--cluster bo--><g id="cluster_bo"><path d="M655,49 L721,49 A3.75,3.75 0 0 1 723.5,51.5 L730.5,71.2969 L794,71.2969 A2.5,2.5 0 0 1 796.5,73.7969 L796.5,135.5 A2.5,2.5 0 0 1 794,138 L655,138 A2.5,2.5 0 0 1 652.5,135.5 L652.5,51.5 A2.5,2.5 0 0 1 655,49 " fill="#B6D7A8" style="stroke:#000000;stroke-width:1.5;"/><line style="stroke:#000000;stroke-width:1.5;" x1="652.5" x2="730.5" y1="71.2969" y2="71.2969"/><a href="https://bo4e.github.io/BO4E-python/latest/api/bo4e.bo.html" target="_top" title="https://bo4e.github.io/BO4E-python/latest/api/bo4e.bo.html" xlink:actuate="onRequest" xlink:href="https://bo4e.github.io/BO4E-python/latest/api/bo4e.bo.html" xlink:show="new" xlink:title="https://bo4e.github.io/BO4E-python/latest/api/bo4e.bo.html" xlink:type="simple"><text fill="#0000FF" font-family="sans-serif" font-size="14" font-weight="bold" lengthAdjust="spacing" text-decoration="underline" textLength="65" x="656.5" y="63.9951">bo4e.bo</text></a></g><!--cluster com--><g id="cluster_com"><path d="M598.5,162 L677.5,162 A3.75,3.75 0 0 1 680,164.5 L687,184.2969 L850.5,184.2969 A2.5,2.5 0 0 1 853,186.7969 L853,540.5 A2.5,2.5 0 0 1 850.5,543 L598.5,543 A2.5,2.5 0 0 1 596,540.5 L596,164.5 A2.5,2.5 0 0 1 598.5,162 " fill="#E0A86C" style="stroke:#000000;stroke-width:1.5;"/><line style="stroke:#000000;stroke-width:1.5;" x1="596" x2="687" y1="184.2969" y2="184.2969"/><a href="https://bo4e.github.io/BO4E-python/latest/api/bo4e.com.html" target="_top" title="https://bo4e.github.io/BO4E-python/latest/api/bo4e.com.html" xlink:actuate="onRequest" xlink:href="https://bo4e.github.io/BO4E-python/latest/api/bo4e.com.html" xlink:show="new" xlink:title="https://bo4e.github.io/BO4E-python/latest/api/bo4e.com.html" xlink:type="simple"><text fill="#0000FF" font-family="sans-serif" font-size="14" font-weight="bold" lengthAdjust="spacing" text-decoration="underline" textLength="78" x="600" y="176.9951">bo4e.com</text></a></g><!--cluster enum--><g id="cluster_enum"><path d="M658,567 L748,567 A3.75,3.75 0 0 1 750.5,569.5 L757.5,589.2969 L791,589.2969 A2.5,2.5 0 0 1 793.5,591.7969 L793.5,653.5 A2.5,2.5 0 0 1 791,656 L658,656 A2.5,2.5 0 0 1 655.5,653.5 L655.5,569.5 A2.5,2.5 0 0 1 658,567 " fill="#D1C358" style="stroke:#000000;stroke-width:1.5;"/><line style="stroke:#000000;stroke-width:1.5;" x1="655.5" x2="757.5" y1="589.2969" y2="589.2969"/><a href="https://bo4e.github.io/BO4E-python/latest/api/bo4e.enum.html" target="_top" title="https://bo4e.github.io/BO4E-python/latest/api/bo4e.enum.html" xlink:actuate="onRequest" xlink:href="https://bo4e.github.io/BO4E-python/latest/api/bo4e.enum.html" xlink:show="new" xlink:title="https://bo4e.github.io/BO4E-python/latest/api/bo4e.enum.html" xlink:type="simple"><text fill="#0000FF" font-family="sans-serif" font-size="14" font-weight="bold" lengthAdjust="spacing" text-decoration="underline" textLength="89" x="659.5" y="581.9951">bo4e.enum</text></a></g><!--class Tarifinfo--><g id="elem_Tarifinfo"><rect codeLine="11" fill="#F1F1F1" height="37.9375" id="Tarifinfo" rx="2.5" ry="2.5" style="stroke:#181818;stroke-width:0.5;" width="112" x="668.5" y="84.03"/><ellipse cx="683.5" cy="102.9987" fill="#ADD1B2" rx="11" ry="11" style="stroke:#181818;stroke-width:1.0;"/><path d="M686.4688,108.6394 Q685.8906,108.9362 685.25,109.0769 Q684.6094,109.2331 683.9063,109.2331 Q681.4063,109.2331 680.0781,107.5925 Q678.7656,105.9362 678.7656,102.8112 Q678.7656,99.6862 680.0781,98.03 Q681.4063,96.3737 683.9063,96.3737 Q684.6094,96.3737 685.25,96.53 Q685.9063,96.6862 686.4688,96.9831 L686.4688,99.7019 Q685.8438,99.1237 685.25,98.8581 Q684.6563,98.5769 684.0313,98.5769 Q682.6875,98.5769 682,99.655 Q681.3125,100.7175 681.3125,102.8112 Q681.3125,104.905 682,105.9831 Q682.6875,107.0456 684.0313,107.0456 Q684.6563,107.0456 685.25,106.78 Q685.8438,106.4987 686.4688,105.9206 L686.4688,108.6394 Z " fill="#000000"/><a href="https://bo4e.github.io/BO4E-python/latest/api/bo4e.bo.html#bo4e.bo.tarifinfo.Tarifinfo" target="_top" title="https://bo4e.github.io/BO4E-python/latest/api/bo4e.bo.html#bo4e.bo.tarifinfo.Tarifinfo" xlink:actuate="onRequest" xlink:href="https://bo4e.github.io/BO4E-python/latest/api/bo4e.bo.html#bo4e.bo.tarifinfo.Tarifinfo" xlink:show="new" xlink:title="https://bo4e.github.io/BO4E-python/latest/api/bo4e.bo.html#bo4e.bo.tarifinfo.Tarifinfo" xlink:type="simple"><text fill="#0000FF" font-family="sans-serif" font-size="14" lengthAdjust="spacing" text-decoration="underline" textLength="54" x="710.5" y="102.0251">Tarifinfo</text></a><text fill="#000000" font-family="sans-serif" font-size="10" lengthAdjust="spacing" textLength="80" x="697.5" y="114.6091">bo4e.bo.tarifinfo</text></g><!--class AufAbschlagRegional--><g id="elem_AufAbschlagRegional"><rect codeLine="14" fill="#F1F1F1" height="37.9375" id="AufAbschlagRegional" rx="2.5" ry="2.5" style="stroke:#181818;stroke-width:0.5;" width="179" x="635" y="197.03"/><ellipse cx="650" cy="215.9987" fill="#ADD1B2" rx="11" ry="11" style="stroke:#181818;stroke-width:1.0;"/><path d="M652.9688,221.6394 Q652.3906,221.9362 651.75,222.0769 Q651.1094,222.2331 650.4063,222.2331 Q647.9063,222.2331 646.5781,220.5925 Q645.2656,218.9362 645.2656,215.8112 Q645.2656,212.6862 646.5781,211.03 Q647.9063,209.3737 650.4063,209.3737 Q651.1094,209.3737 651.75,209.53 Q652.4063,209.6862 652.9688,209.9831 L652.9688,212.7019 Q652.3438,212.1237 651.75,211.8581 Q651.1563,211.5769 650.5313,211.5769 Q649.1875,211.5769 648.5,212.655 Q647.8125,213.7175 647.8125,215.8112 Q647.8125,217.905 648.5,218.9831 Q649.1875,220.0456 650.5313,220.0456 Q651.1563,220.0456 651.75,219.78 Q652.3438,219.4987 652.9688,218.9206 L652.9688,221.6394 Z " fill="#000000"/><a href="https://bo4e.github.io/BO4E-python/latest/api/bo4e.com.html#bo4e.com.aufabschlagregional.AufAbschlagRegional" target="_top" title="https://bo4e.github.io/BO4E-python/latest/api/bo4e.com.html#bo4e.com.aufabschlagregional.AufAbschlagRegional" xlink:actuate="onRequest" xlink:href="https://bo4e.github.io/BO4E-python/latest/api/bo4e.com.html#bo4e.com.aufabschlagregional.AufAbschlagRegional" xlink:show="new" xlink:title="https://bo4e.github.io/BO4E-python/latest/api/bo4e.com.html#bo4e.com.aufabschlagregional.AufAbschlagRegional" xlink:type="simple"><text fill="#0000FF" font-family="sans-serif" font-size="14" lengthAdjust="spacing" text-decoration="underline" textLength="145" x="665" y="215.0251">AufAbschlagRegional</text></a><text fill="#000000" font-family="sans-serif" font-size="10" lengthAdjust="spacing" textLength="147" x="664" y="227.6091">bo4e.com.aufabschlagregional</text></g><!--class TarifpreispositionProOrt--><g id="elem_TarifpreispositionProOrt"><rect codeLine="15" fill="#F1F1F1" height="37.9375" id="TarifpreispositionProOrt" rx="2.5" ry="2.5" style="stroke:#181818;stroke-width:0.5;" width="194" x="627.5" y="270.03"/><ellipse cx="642.5" cy="288.9988" fill="#ADD1B2" rx="11" ry="11" style="stroke:#181818;stroke-width:1.0;"/><path d="M645.4688,294.6394 Q644.8906,294.9363 644.25,295.0769 Q643.6094,295.2331 642.9063,295.2331 Q640.4063,295.2331 639.0781,293.5925 Q637.7656,291.9363 637.7656,288.8113 Q637.7656,285.6863 639.0781,284.03 Q640.4063,282.3738 642.9063,282.3738 Q643.6094,282.3738 644.25,282.53 Q644.9063,282.6863 645.4688,282.9831 L645.4688,285.7019 Q644.8438,285.1238 644.25,284.8581 Q643.6563,284.5769 643.0313,284.5769 Q641.6875,284.5769 641,285.655 Q640.3125,286.7175 640.3125,288.8113 Q640.3125,290.905 641,291.9831 Q641.6875,293.0456 643.0313,293.0456 Q643.6563,293.0456 644.25,292.78 Q644.8438,292.4988 645.4688,291.9206 L645.4688,294.6394 Z " fill="#000000"/><a href="https://bo4e.github.io/BO4E-python/latest/api/bo4e.com.html#bo4e.com.tarifpreispositionproort.TarifpreispositionProOrt" target="_top" title="https://bo4e.github.io/BO4E-python/latest/api/bo4e.com.html#bo4e.com.tarifpreispositionproort.TarifpreispositionProOrt" xlink:actuate="onRequest" xlink:href="https://bo4e.github.io/BO4E-python/latest/api/bo4e.com.html#bo4e.com.tarifpreispositionproort.TarifpreispositionProOrt" xlink:show="new" xlink:title="https://bo4e.github.io/BO4E-python/latest/api/bo4e.com.html#bo4e.com.tarifpreispositionproort.TarifpreispositionProOrt" xlink:type="simple"><text fill="#0000FF" font-family="sans-serif" font-size="14" lengthAdjust="spacing" text-decoration="underline" textLength="162" x="656.5" y="288.0251">TarifpreispositionProOrt</text></a><text fill="#000000" font-family="sans-serif" font-size="10" lengthAdjust="spacing" textLength="161" x="657" y="300.6091">bo4e.com.tarifpreispositionproort</text></g><!--class Tarifberechnungsparameter--><g id="elem_Tarifberechnungsparameter"><rect codeLine="16" fill="#F1F1F1" height="37.9375" id="Tarifberechnungsparameter" rx="2.5" ry="2.5" style="stroke:#181818;stroke-width:0.5;" width="225" x="612" y="343.03"/><ellipse cx="627" cy="361.9988" fill="#ADD1B2" rx="11" ry="11" style="stroke:#181818;stroke-width:1.0;"/><path d="M629.9688,367.6394 Q629.3906,367.9363 628.75,368.0769 Q628.1094,368.2331 627.4063,368.2331 Q624.9063,368.2331 623.5781,366.5925 Q622.2656,364.9363 622.2656,361.8113 Q622.2656,358.6863 623.5781,357.03 Q624.9063,355.3738 627.4063,355.3738 Q628.1094,355.3738 628.75,355.53 Q629.4063,355.6863 629.9688,355.9831 L629.9688,358.7019 Q629.3438,358.1238 628.75,357.8581 Q628.1563,357.5769 627.5313,357.5769 Q626.1875,357.5769 625.5,358.655 Q624.8125,359.7175 624.8125,361.8113 Q624.8125,363.905 625.5,364.9831 Q626.1875,366.0456 627.5313,366.0456 Q628.1563,366.0456 628.75,365.78 Q629.3438,365.4988 629.9688,364.9206 L629.9688,367.6394 Z " fill="#000000"/><a href="https://bo4e.github.io/BO4E-python/latest/api/bo4e.com.html#bo4e.com.tarifberechnungsparameter.Tarifberechnungsparameter" target="_top" title="https://bo4e.github.io/BO4E-python/latest/api/bo4e.com.html#bo4e.com.tarifberechnungsparameter.Tarifberechnungsparameter" xlink:actuate="onRequest" xlink:href="https://bo4e.github.io/BO4E-python/latest/api/bo4e.com.html#bo4e.com.tarifberechnungsparameter.Tarifberechnungsparameter" xlink:show="new" xlink:title="https://bo4e.github.io/BO4E-python/latest/api/bo4e.com.html#bo4e.com.tarifberechnungsparameter.Tarifberechnungsparameter" xlink:type="simple"><text fill="#0000FF" font-family="sans-serif" font-size="14" lengthAdjust="spacing" text-decoration="underline" textLength="193" x="641" y="361.0251">Tarifberechnungsparameter</text></a><text fill="#000000" font-family="sans-serif" font-size="10" lengthAdjust="spacing" textLength="185" x="645" y="373.6091">bo4e.com.tarifberechnungsparameter</text></g><!--class Tarifeinschraenkung--><g id="elem_Tarifeinschraenkung"><rect codeLine="17" fill="#F1F1F1" height="37.9375" id="Tarifeinschraenkung" rx="2.5" ry="2.5" style="stroke:#181818;stroke-width:0.5;" width="178" x="635.5" y="416.03"/><ellipse cx="650.5" cy="434.9988" fill="#ADD1B2" rx="11" ry="11" style="stroke:#181818;stroke-width:1.0;"/><path d="M653.4688,440.6394 Q652.8906,440.9363 652.25,441.0769 Q651.6094,441.2331 650.9063,441.2331 Q648.4063,441.2331 647.0781,439.5925 Q645.7656,437.9363 645.7656,434.8113 Q645.7656,431.6863 647.0781,430.03 Q648.4063,428.3738 650.9063,428.3738 Q651.6094,428.3738 652.25,428.53 Q652.9063,428.6863 653.4688,428.9831 L653.4688,431.7019 Q652.8438,431.1238 652.25,430.8581 Q651.6563,430.5769 651.0313,430.5769 Q649.6875,430.5769 649,431.655 Q648.3125,432.7175 648.3125,434.8113 Q648.3125,436.905 649,437.9831 Q649.6875,439.0456 651.0313,439.0456 Q651.6563,439.0456 652.25,438.78 Q652.8438,438.4988 653.4688,437.9206 L653.4688,440.6394 Z " fill="#000000"/><a href="https://bo4e.github.io/BO4E-python/latest/api/bo4e.com.html#bo4e.com.tarifeinschraenkung.Tarifeinschraenkung" target="_top" title="https://bo4e.github.io/BO4E-python/latest/api/bo4e.com.html#bo4e.com.tarifeinschraenkung.Tarifeinschraenkung" xlink:actuate="onRequest" xlink:href="https://bo4e.github.io/BO4E-python/latest/api/bo4e.com.html#bo4e.com.tarifeinschraenkung.Tarifeinschraenkung" xlink:show="new" xlink:title="https://bo4e.github.io/BO4E-python/latest/api/bo4e.com.html#bo4e.com.tarifeinschraenkung.Tarifeinschraenkung" xlink:type="simple"><text fill="#0000FF" font-family="sans-serif" font-size="14" lengthAdjust="spacing" text-decoration="underline" textLength="141" x="667" y="434.0251">Tarifeinschraenkung</text></a><text fill="#000000" font-family="sans-serif" font-size="10" lengthAdjust="spacing" textLength="146" x="664.5" y="446.6091">bo4e.com.tarifeinschraenkung</text></g><!--class Preisgarantie--><g id="elem_Preisgarantie"><rect codeLine="18" fill="#F1F1F1" height="37.9375" id="Preisgarantie" rx="2.5" ry="2.5" style="stroke:#181818;stroke-width:0.5;" width="146" x="651.5" y="489.03"/><ellipse cx="666.5" cy="507.9988" fill="#ADD1B2" rx="11" ry="11" style="stroke:#181818;stroke-width:1.0;"/><path d="M669.4688,513.6394 Q668.8906,513.9363 668.25,514.0769 Q667.6094,514.2331 666.9063,514.2331 Q664.4063,514.2331 663.0781,512.5925 Q661.7656,510.9363 661.7656,507.8113 Q661.7656,504.6863 663.0781,503.03 Q664.4063,501.3738 666.9063,501.3738 Q667.6094,501.3738 668.25,501.53 Q668.9063,501.6863 669.4688,501.9831 L669.4688,504.7019 Q668.8438,504.1238 668.25,503.8581 Q667.6563,503.5769 667.0313,503.5769 Q665.6875,503.5769 665,504.655 Q664.3125,505.7175 664.3125,507.8113 Q664.3125,509.905 665,510.9831 Q665.6875,512.0456 667.0313,512.0456 Q667.6563,512.0456 668.25,511.78 Q668.8438,511.4988 669.4688,510.9206 L669.4688,513.6394 Z " fill="#000000"/><a href="https://bo4e.github.io/BO4E-python/latest/api/bo4e.com.html#bo4e.com.preisgarantie.Preisgarantie" target="_top" title="https://bo4e.github.io/BO4E-python/latest/api/bo4e.com.html#bo4e.com.preisgarantie.Preisgarantie" xlink:actuate="onRequest" xlink:href="https://bo4e.github.io/BO4E-python/latest/api/bo4e.com.html#bo4e.com.preisgarantie.Preisgarantie" xlink:show="new" xlink:title="https://bo4e.github.io/BO4E-python/latest/api/bo4e.com.html#bo4e.com.preisgarantie.Preisgarantie" xlink:type="simple"><text fill="#0000FF" font-family="sans-serif" font-size="14" lengthAdjust="spacing" text-decoration="underline" textLength="90" x="692.5" y="507.0251">Preisgarantie</text></a><text fill="#000000" font-family="sans-serif" font-size="10" lengthAdjust="spacing" textLength="114" x="680.5" y="519.6091">bo4e.com.preisgarantie</text></g><!--class Typ--><g id="elem_Typ"><rect codeLine="21" fill="#F1F1F1" height="37.9375" id="Typ" rx="2.5" ry="2.5" style="stroke:#181818;stroke-width:0.5;" width="106" x="671.5" y="602.03"/><ellipse cx="686.5" cy="620.9988" fill="#ADD1B2" rx="11" ry="11" style="stroke:#181818;stroke-width:1.0;"/><path d="M689.4688,626.6394 Q688.8906,626.9363 688.25,627.0769 Q687.6094,627.2331 686.9063,627.2331 Q684.4063,627.2331 683.0781,625.5925 Q681.7656,623.9363 681.7656,620.8113 Q681.7656,617.6863 683.0781,616.03 Q684.4063,614.3738 686.9063,614.3738 Q687.6094,614.3738 688.25,614.53 Q688.9063,614.6863 689.4688,614.9831 L689.4688,617.7019 Q688.8438,617.1238 688.25,616.8581 Q687.6563,616.5769 687.0313,616.5769 Q685.6875,616.5769 685,617.655 Q684.3125,618.7175 684.3125,620.8113 Q684.3125,622.905 685,623.9831 Q685.6875,625.0456 687.0313,625.0456 Q687.6563,625.0456 688.25,624.78 Q688.8438,624.4988 689.4688,623.9206 L689.4688,626.6394 Z " fill="#000000"/><a href="https://bo4e.github.io/BO4E-python/latest/api/bo4e.enum.html#bo4e.enum.typ.Typ" target="_top" title="https://bo4e.github.io/BO4E-python/latest/api/bo4e.enum.html#bo4e.enum.typ.Typ" xlink:actuate="onRequest" xlink:href="https://bo4e.github.io/BO4E-python/latest/api/bo4e.enum.html#bo4e.enum.typ.Typ" xlink:show="new" xlink:title="https://bo4e.github.io/BO4E-python/latest/api/bo4e.enum.html#bo4e.enum.typ.Typ" xlink:type="simple"><text fill="#0000FF" font-family="sans-serif" font-size="14" lengthAdjust="spacing" text-decoration="underline" textLength="25" x="725" y="620.0251">Typ</text></a><text fill="#000000" font-family="sans-serif" font-size="10" lengthAdjust="spacing" textLength="74" x="700.5" y="632.6091">bo4e.enum.typ</text></g><!--class Tarif--><g id="elem_Tarif"><rect codeLine="3" fill="#F1F1F1" height="111.125" id="Tarif" rx="2.5" ry="2.5" style="stroke:#181818;stroke-width:0.5;" width="366" x="7" y="306.44"/><ellipse cx="154.75" cy="325.4088" fill="#ADD1B2" rx="11" ry="11" style="stroke:#181818;stroke-width:1.0;"/><path d="M157.7188,331.0494 Q157.1406,331.3463 156.5,331.4869 Q155.8594,331.6431 155.1563,331.6431 Q152.6563,331.6431 151.3281,330.0025 Q150.0156,328.3463 150.0156,325.2213 Q150.0156,322.0963 151.3281,320.44 Q152.6563,318.7838 155.1563,318.7838 Q155.8594,318.7838 156.5,318.94 Q157.1563,319.0963 157.7188,319.3931 L157.7188,322.1119 Q157.0938,321.5338 156.5,321.2681 Q155.9063,320.9869 155.2813,320.9869 Q153.9375,320.9869 153.25,322.065 Q152.5625,323.1275 152.5625,325.2213 Q152.5625,327.315 153.25,328.3931 Q153.9375,329.4556 155.2813,329.4556 Q155.9063,329.4556 156.5,329.19 Q157.0938,328.9088 157.7188,328.3306 L157.7188,331.0494 Z " fill="#000000"/><a href="https://bo4e.github.io/BO4E-python/latest/api/bo4e.bo.html#bo4e.bo.tarif.Tarif" target="_top" title="https://bo4e.github.io/BO4E-python/latest/api/bo4e.bo.html#bo4e.bo.tarif.Tarif" xlink:actuate="onRequest" xlink:href="https://bo4e.github.io/BO4E-python/latest/api/bo4e.bo.html#bo4e.bo.tarif.Tarif" xlink:show="new" xlink:title="https://bo4e.github.io/BO4E-python/latest/api/bo4e.bo.html#bo4e.bo.tarif.Tarif" xlink:type="simple"><text fill="#0000FF" font-family="sans-serif" font-size="14" lengthAdjust="spacing" text-decoration="underline" textLength="29" x="191.75" y="324.4351">Tarif</text></a><text fill="#000000" font-family="sans-serif" font-size="10" lengthAdjust="spacing" textLength="62" x="175.25" y="337.0191">bo4e.bo.tarif</text><line style="stroke:#181818;stroke-width:0.5;" x1="8" x2="372" y1="344.3775" y2="344.3775"/><text fill="#000000" font-family="sans-serif" font-size="14" lengthAdjust="spacing" textLength="354" x="13" y="361.3726">_version : str [0..1] = 202401.2.2.dev12+g7f237e5</text><text fill="#000000" font-family="sans-serif" font-size="14" lengthAdjust="spacing" textLength="311" x="13" y="377.6695">zusatzAttribute : ZusatzAttribut [0..*] = None</text><text fill="#000000" font-family="sans-serif" font-size="14" lengthAdjust="spacing" textLength="147" x="13" y="393.9664">_id : str [0..1] = None</text><text fill="#000000" font-family="sans-serif" font-size="14" lengthAdjust="spacing" textLength="288" x="13" y="410.2632">preisstand : AwareDatetime [0..1] = None</text></g><!--link Tarif to Tarifinfo--><g id="link_Tarif_Tarifinfo"><path codeLine="24" d="M269.76,306.02 C308.73,279.75 357.15,249.2 403,226 C492.61,180.66 586.005,147.3253 651.065,126.0053 " fill="none" id="Tarif-to-Tarifinfo" style="stroke:#181818;stroke-width:1.0;"/><polygon fill="none" points="668.17,120.4,649.1966,120.3036,652.9334,131.7069,668.17,120.4" style="stroke:#181818;stroke-width:1.0;"/></g><!--link Tarif to Typ--><g id="link_Tarif_Typ"><path codeLine="25" d="M268.68,417.81 C307.81,444.45 356.67,475.54 403,499 C493.83,544.99 594.8967,580.3047 659.5767,601.1147 " fill="none" id="Tarif-to-Typ" style="stroke:#181818;stroke-width:1.0;"/><polygon fill="#181818" points="671,604.79,666.5134,599.1446,659.5767,601.1147,664.0632,606.7601,671,604.79" style="stroke:#181818;stroke-width:1.0;"/><text fill="#000000" font-family="sans-serif" font-size="13" lengthAdjust="spacing" textLength="27" x="466" y="495.0669">_typ</text><text fill="#000000" font-family="sans-serif" font-size="13" lengthAdjust="spacing" textLength="24" x="639.4266" y="615.8576">0..1</text></g><!--link Tarif to Tarifberechnungsparameter--><g id="link_Tarif_Tarifberechnungsparameter"><path codeLine="26" d="M373.14,362 C452.35,362 530.63,362 599.71,362 " fill="none" id="Tarif-to-Tarifberechnungsparameter" style="stroke:#181818;stroke-width:1.0;"/><polygon fill="#181818" points="611.71,362,605.71,358,599.71,362,605.71,366,611.71,362" style="stroke:#181818;stroke-width:1.0;"/><text fill="#000000" font-family="sans-serif" font-size="13" lengthAdjust="spacing" textLength="151" x="404" y="358.0669">berechnungsparameter</text><text fill="#000000" font-family="sans-serif" font-size="13" lengthAdjust="spacing" textLength="24" x="580.1056" y="374.528">0..1</text></g><!--link Tarif to TarifpreispositionProOrt--><g id="link_Tarif_TarifpreispositionProOrt"><path codeLine="27" d="M373.14,337.03 C458.37,325.35 544.531,313.5287 615.191,303.8487 " fill="none" id="Tarif-to-TarifpreispositionProOrt" style="stroke:#181818;stroke-width:1.0;"/><polygon fill="#181818" points="627.08,302.22,620.5926,299.0714,615.191,303.8487,621.6784,306.9973,627.08,302.22" style="stroke:#181818;stroke-width:1.0;"/><text fill="#000000" font-family="sans-serif" font-size="13" lengthAdjust="spacing" textLength="64" x="447.5" y="309.0669">tarifpreise</text><text fill="#000000" font-family="sans-serif" font-size="13" lengthAdjust="spacing" textLength="23" x="596.4216" y="315.7485">0..*</text></g><!--link Tarif to AufAbschlagRegional--><g id="link_Tarif_AufAbschlagRegional"><path codeLine="28" d="M344.91,305.96 C364.36,299.57 384.07,293.41 403,288 C480.45,265.86 558.2499,248.6176 622.9699,235.4776 " fill="none" id="Tarif-to-AufAbschlagRegional" style="stroke:#181818;stroke-width:1.0;"/><polygon fill="#181818" points="634.73,233.09,628.0541,230.3638,622.9699,235.4776,629.6458,238.2038,634.73,233.09" style="stroke:#181818;stroke-width:1.0;"/><text fill="#000000" font-family="sans-serif" font-size="13" lengthAdjust="spacing" textLength="120" x="419.5" y="247.0669">tarifAufAbschlaege</text><text fill="#000000" font-family="sans-serif" font-size="13" lengthAdjust="spacing" textLength="23" x="603.9765" y="247.0447">0..*</text></g><!--link Tarif to Preisgarantie--><g id="link_Tarif_Preisgarantie"><path codeLine="29" d="M342.27,418.03 C362.56,424.81 383.2,431.33 403,437 C487.24,461.13 574.1213,479.5962 639.4913,492.3262 " fill="none" id="Tarif-to-Preisgarantie" style="stroke:#181818;stroke-width:1.0;"/><polygon fill="#181818" points="651.27,494.62,646.1452,489.5469,639.4913,492.3262,644.616,497.3994,651.27,494.62" style="stroke:#181818;stroke-width:1.0;"/><text fill="#000000" font-family="sans-serif" font-size="13" lengthAdjust="spacing" textLength="84" x="437.5" y="433.0669">preisgarantie</text><text fill="#000000" font-family="sans-serif" font-size="13" lengthAdjust="spacing" textLength="24" x="619.4129" y="506.1511">0..1</text></g><!--link Tarif to Tarifeinschraenkung--><g id="link_Tarif_Tarifeinschraenkung"><path codeLine="30" d="M373.14,386.97 C461.69,399.11 552.1812,411.5104 623.3112,421.2604 " fill="none" id="Tarif-to-Tarifeinschraenkung" style="stroke:#181818;stroke-width:1.0;"/><polygon fill="#181818" points="635.2,422.89,629.7988,418.1122,623.3112,421.2604,628.7124,426.0381,635.2,422.89" style="stroke:#181818;stroke-width:1.0;"/><text fill="#000000" font-family="sans-serif" font-size="13" lengthAdjust="spacing" textLength="126" x="416.5" y="388.0669">tarifeinschraenkung</text><text fill="#000000" font-family="sans-serif" font-size="13" lengthAdjust="spacing" textLength="24" x="603.4442" y="434.6091">0..1</text></g><!--SRC=[jLLTRvim57qkl-8gl6KA-MZQL6YhHDU-hjNKfsLHPSW5h86DRDCgsVRVPmC9WKBsa5HH4FV3nvnphwyJ31Ke3e96iO8r5HWeofbb1GcH4WRBPQnK9jtnsETpT2AgujntA1_VFSuVHjb6nPoD4w9GgZ79Q9dbSoTMQMBl34K43PrdyuJYkLhzP9ybtQ8xdTmsiWP0P9a3lwsBbrSKKdyEk22LWEN4SQOh-0ApoMm-cJep_LlZwtJsALg4iyi5NbaNsrmIjVMK4jJF5UgLFngU0cHeGBvnXdeBkcwZbu5C89LI4MRYtXiHUAzfAffYA_ElPJ6Iein8WAS91fMnMXKoL1ROTzVt2-_627Bsgb0Myh8ovWtsR_qLCj6wIiRI2fmgGC3J0mMqTIY1Di5-c7WtrrzFrM2tZxstI1uINmPnGYA1aUuraZXU7dgLxtlbWmxVUurw00ig7G3dvbBKf-ZRZ4jgpd4cE1UgB70Zy2Juer3G5-YcreTVjqC7r8UGz54FgfZbBD9T9tJpAHGbowu8z4QEyEnAhubsHJ-4ALAccqOGPB_qPYN7fWywV4TuDHDhHat_kRaKZH5ffPYYw3mTMj2mkh-yiRpuviQYCqmWPFdX23BcuGmoDjZhQN1vTV8WtczbrwRQPCxp9WFzVw_0BgCirYOpLqvrdOv6Vsvt5qKzntTH7Hx2mDnMWvf6iOyBBngmDyzetd-SNEXi_pROi0tMDO5SgASA7eNecihLwZg44HubrUmy5ngDzNyvMYUlshvrTAoOhX5IJBLAqf8nVuCAEAIOhEK_]--></g></svg>