<?xml version="1.0" encoding="us-ascii" standalone="no"?><svg xmlns="http://www.w3.org/2000/svg" xmlns:xlink="http://www.w3.org/1999/xlink" contentStyleType="text/css" height="906px" preserveAspectRatio="none" style="width:904px;height:906px;background:#FFFFFF;" version="1.1" viewBox="0 0 904 906" width="904px" zoomAndPan="magnify"><defs/><g><!--cluster bo4e--><g id="cluster_bo4e"><path d="M640.5,6 L681.5,6 A3.75,3.75 0 0 1 684,8.5 L691,28.2969 L894.5,28.2969 A2.5,2.5 0 0 1 897,30.7969 L897,896.5 A2.5,2.5 0 0 1 894.5,899 L640.5,899 A2.5,2.5 0 0 1 638,896.5 L638,8.5 A2.5,2.5 0 0 1 640.5,6 " fill="none" style="stroke:#000000;stroke-width:1.5;"/><line style="stroke:#000000;stroke-width:1.5;" x1="638" x2="691" y1="28.2969" y2="28.2969"/><text fill="#000000" font-family="sans-serif" font-size="14" font-weight="bold" lengthAdjust="spacing" textLength="40" x="642" y="20.9951">bo4e</text></g><!--cluster bo--><g id="cluster_bo"><path d="M676,49 L742,49 A3.75,3.75 0 0 1 744.5,51.5 L751.5,71.2969 L859,71.2969 A2.5,2.5 0 0 1 861.5,73.7969 L861.5,208.5 A2.5,2.5 0 0 1 859,211 L676,211 A2.5,2.5 0 0 1 673.5,208.5 L673.5,51.5 A2.5,2.5 0 0 1 676,49 " fill="#B6D7A8" style="stroke:#000000;stroke-width:1.5;"/><line style="stroke:#000000;stroke-width:1.5;" x1="673.5" x2="751.5" y1="71.2969" y2="71.2969"/><a href="https://bo4e.github.io/BO4E-python/latest/api/bo4e.bo.html" target="_top" title="https://bo4e.github.io/BO4E-python/latest/api/bo4e.bo.html" xlink:actuate="onRequest" xlink:href="https://bo4e.github.io/BO4E-python/latest/api/bo4e.bo.html" xlink:show="new" xlink:title="https://bo4e.github.io/BO4E-python/latest/api/bo4e.bo.html" xlink:type="simple"><text fill="#0000FF" font-family="sans-serif" font-size="14" font-weight="bold" lengthAdjust="spacing" text-decoration="underline" textLength="65" x="677.5" y="63.9951">bo4e.bo</text></a></g><!--cluster com--><g id="cluster_com"><path d="M664.5,235 L743.5,235 A3.75,3.75 0 0 1 746,237.5 L753,257.2969 L870.5,257.2969 A2.5,2.5 0 0 1 873,259.7969 L873,467.5 A2.5,2.5 0 0 1 870.5,470 L664.5,470 A2.5,2.5 0 0 1 662,467.5 L662,237.5 A2.5,2.5 0 0 1 664.5,235 " fill="#E0A86C" style="stroke:#000000;stroke-width:1.5;"/><line style="stroke:#000000;stroke-width:1.5;" x1="662" x2="753" y1="257.2969" y2="257.2969"/><a href="https://bo4e.github.io/BO4E-python/latest/api/bo4e.com.html" target="_top" title="https://bo4e.github.io/BO4E-python/latest/api/bo4e.com.html" xlink:actuate="onRequest" xlink:href="https://bo4e.github.io/BO4E-python/latest/api/bo4e.com.html" xlink:show="new" xlink:title="https://bo4e.github.io/BO4E-python/latest/api/bo4e.com.html" xlink:type="simple"><text fill="#0000FF" font-family="sans-serif" font-size="14" font-weight="bold" lengthAdjust="spacing" text-decoration="underline" textLength="78" x="666" y="249.9951">bo4e.com</text></a></g><!--cluster enum--><g id="cluster_enum"><path d="M675,494 L765,494 A3.75,3.75 0 0 1 767.5,496.5 L774.5,516.2969 L860,516.2969 A2.5,2.5 0 0 1 862.5,518.7969 L862.5,872.5 A2.5,2.5 0 0 1 860,875 L675,875 A2.5,2.5 0 0 1 672.5,872.5 L672.5,496.5 A2.5,2.5 0 0 1 675,494 " fill="#D1C358" style="stroke:#000000;stroke-width:1.5;"/><line style="stroke:#000000;stroke-width:1.5;" x1="672.5" x2="774.5" y1="516.2969" y2="516.2969"/><a href="https://bo4e.github.io/BO4E-python/latest/api/bo4e.enum.html" target="_top" title="https://bo4e.github.io/BO4E-python/latest/api/bo4e.enum.html" xlink:actuate="onRequest" xlink:href="https://bo4e.github.io/BO4E-python/latest/api/bo4e.enum.html" xlink:show="new" xlink:title="https://bo4e.github.io/BO4E-python/latest/api/bo4e.enum.html" xlink:type="simple"><text fill="#0000FF" font-family="sans-serif" font-size="14" font-weight="bold" lengthAdjust="spacing" text-decoration="underline" textLength="89" x="676.5" y="508.9951">bo4e.enum</text></a></g><!--class Marktteilnehmer--><g id="elem_Marktteilnehmer"><rect codeLine="13" fill="#F1F1F1" height="37.9375" id="Marktteilnehmer" rx="2.5" ry="2.5" style="stroke:#181818;stroke-width:0.5;" width="155" x="690" y="84.03"/><ellipse cx="705" cy="102.9987" fill="#ADD1B2" rx="11" ry="11" style="stroke:#181818;stroke-width:1.0;"/><path d="M707.9688,108.6394 Q707.3906,108.9362 706.75,109.0769 Q706.1094,109.2331 705.4063,109.2331 Q702.9063,109.2331 701.5781,107.5925 Q700.2656,105.9362 700.2656,102.8112 Q700.2656,99.6862 701.5781,98.03 Q702.9063,96.3737 705.4063,96.3737 Q706.1094,96.3737 706.75,96.53 Q707.4063,96.6862 707.9688,96.9831 L707.9688,99.7019 Q707.3438,99.1237 706.75,98.8581 Q706.1563,98.5769 705.5313,98.5769 Q704.1875,98.5769 703.5,99.655 Q702.8125,100.7175 702.8125,102.8112 Q702.8125,104.905 703.5,105.9831 Q704.1875,107.0456 705.5313,107.0456 Q706.1563,107.0456 706.75,106.78 Q707.3438,106.4987 707.9688,105.9206 L707.9688,108.6394 Z " fill="#000000"/><a href="https://bo4e.github.io/BO4E-python/latest/api/bo4e.bo.html#bo4e.bo.marktteilnehmer.Marktteilnehmer" target="_top" title="https://bo4e.github.io/BO4E-python/latest/api/bo4e.bo.html#bo4e.bo.marktteilnehmer.Marktteilnehmer" xlink:actuate="onRequest" xlink:href="https://bo4e.github.io/BO4E-python/latest/api/bo4e.bo.html#bo4e.bo.marktteilnehmer.Marktteilnehmer" xlink:show="new" xlink:title="https://bo4e.github.io/BO4E-python/latest/api/bo4e.bo.html#bo4e.bo.marktteilnehmer.Marktteilnehmer" xlink:type="simple"><text fill="#0000FF" font-family="sans-serif" font-size="14" lengthAdjust="spacing" text-decoration="underline" textLength="112" x="724.5" y="102.0251">Marktteilnehmer</text></a><text fill="#000000" font-family="sans-serif" font-size="10" lengthAdjust="spacing" textLength="123" x="719" y="114.6091">bo4e.bo.marktteilnehmer</text></g><!--class Geschaeftsobjekt--><g id="elem_Geschaeftsobjekt"><rect codeLine="14" fill="#F1F1F1" height="37.9375" id="Geschaeftsobjekt" rx="2.5" ry="2.5" style="stroke:#181818;stroke-width:0.5;" width="156" x="689.5" y="157.03"/><ellipse cx="704.5" cy="175.9987" fill="#ADD1B2" rx="11" ry="11" style="stroke:#181818;stroke-width:1.0;"/><path d="M707.4688,181.6394 Q706.8906,181.9362 706.25,182.0769 Q705.6094,182.2331 704.9063,182.2331 Q702.4063,182.2331 701.0781,180.5925 Q699.7656,178.9362 699.7656,175.8112 Q699.7656,172.6862 701.0781,171.03 Q702.4063,169.3737 704.9063,169.3737 Q705.6094,169.3737 706.25,169.53 Q706.9063,169.6862 707.4688,169.9831 L707.4688,172.7019 Q706.8438,172.1237 706.25,171.8581 Q705.6563,171.5769 705.0313,171.5769 Q703.6875,171.5769 703,172.655 Q702.3125,173.7175 702.3125,175.8112 Q702.3125,177.905 703,178.9831 Q703.6875,180.0456 705.0313,180.0456 Q705.6563,180.0456 706.25,179.78 Q706.8438,179.4987 707.4688,178.9206 L707.4688,181.6394 Z " fill="#000000"/><a href="https://bo4e.github.io/BO4E-python/latest/api/bo4e.bo.html#bo4e.bo.geschaeftsobjekt.Geschaeftsobjekt" target="_top" title="https://bo4e.github.io/BO4E-python/latest/api/bo4e.bo.html#bo4e.bo.geschaeftsobjekt.Geschaeftsobjekt" xlink:actuate="onRequest" xlink:href="https://bo4e.github.io/BO4E-python/latest/api/bo4e.bo.html#bo4e.bo.geschaeftsobjekt.Geschaeftsobjekt" xlink:show="new" xlink:title="https://bo4e.github.io/BO4E-python/latest/api/bo4e.bo.html#bo4e.bo.geschaeftsobjekt.Geschaeftsobjekt" xlink:type="simple"><text fill="#0000FF" font-family="sans-serif" font-size="14" lengthAdjust="spacing" text-decoration="underline" textLength="122" x="719.5" y="175.0251">Geschaeftsobjekt</text></a><text fill="#000000" font-family="sans-serif" font-size="10" lengthAdjust="spacing" textLength="124" x="718.5" y="187.6091">bo4e.bo.geschaeftsobjekt</text></g><!--class Zeitraum--><g id="elem_Zeitraum"><rect codeLine="17" fill="#F1F1F1" height="37.9375" id="Zeitraum" rx="2.5" ry="2.5" style="stroke:#181818;stroke-width:0.5;" width="126" x="704.5" y="270.03"/><ellipse cx="719.5" cy="288.9988" fill="#ADD1B2" rx="11" ry="11" style="stroke:#181818;stroke-width:1.0;"/><path d="M722.4688,294.6394 Q721.8906,294.9363 721.25,295.0769 Q720.6094,295.2331 719.9063,295.2331 Q717.4063,295.2331 716.0781,293.5925 Q714.7656,291.9363 714.7656,288.8113 Q714.7656,285.6863 716.0781,284.03 Q717.4063,282.3738 719.9063,282.3738 Q720.6094,282.3738 721.25,282.53 Q721.9063,282.6863 722.4688,282.9831 L722.4688,285.7019 Q721.8438,285.1238 721.25,284.8581 Q720.6563,284.5769 720.0313,284.5769 Q718.6875,284.5769 718,285.655 Q717.3125,286.7175 717.3125,288.8113 Q717.3125,290.905 718,291.9831 Q718.6875,293.0456 720.0313,293.0456 Q720.6563,293.0456 721.25,292.78 Q721.8438,292.4988 722.4688,291.9206 L722.4688,294.6394 Z " fill="#000000"/><a href="https://bo4e.github.io/BO4E-python/latest/api/bo4e.com.html#bo4e.com.zeitraum.Zeitraum" target="_top" title="https://bo4e.github.io/BO4E-python/latest/api/bo4e.com.html#bo4e.com.zeitraum.Zeitraum" xlink:actuate="onRequest" xlink:href="https://bo4e.github.io/BO4E-python/latest/api/bo4e.com.html#bo4e.com.zeitraum.Zeitraum" xlink:show="new" xlink:title="https://bo4e.github.io/BO4E-python/latest/api/bo4e.com.html#bo4e.com.zeitraum.Zeitraum" xlink:type="simple"><text fill="#0000FF" font-family="sans-serif" font-size="14" lengthAdjust="spacing" text-decoration="underline" textLength="62" x="749.5" y="288.0251">Zeitraum</text></a><text fill="#000000" font-family="sans-serif" font-size="10" lengthAdjust="spacing" textLength="94" x="733.5" y="300.6091">bo4e.com.zeitraum</text></g><!--class Vertragskonditionen--><g id="elem_Vertragskonditionen"><rect codeLine="18" fill="#F1F1F1" height="37.9375" id="Vertragskonditionen" rx="2.5" ry="2.5" style="stroke:#181818;stroke-width:0.5;" width="179" x="678" y="343.03"/><ellipse cx="693" cy="361.9988" fill="#ADD1B2" rx="11" ry="11" style="stroke:#181818;stroke-width:1.0;"/><path d="M695.9688,367.6394 Q695.3906,367.9363 694.75,368.0769 Q694.1094,368.2331 693.4063,368.2331 Q690.9063,368.2331 689.5781,366.5925 Q688.2656,364.9363 688.2656,361.8113 Q688.2656,358.6863 689.5781,357.03 Q690.9063,355.3738 693.4063,355.3738 Q694.1094,355.3738 694.75,355.53 Q695.4063,355.6863 695.9688,355.9831 L695.9688,358.7019 Q695.3438,358.1238 694.75,357.8581 Q694.1563,357.5769 693.5313,357.5769 Q692.1875,357.5769 691.5,358.655 Q690.8125,359.7175 690.8125,361.8113 Q690.8125,363.905 691.5,364.9831 Q692.1875,366.0456 693.5313,366.0456 Q694.1563,366.0456 694.75,365.78 Q695.3438,365.4988 695.9688,364.9206 L695.9688,367.6394 Z " fill="#000000"/><a href="https://bo4e.github.io/BO4E-python/latest/api/bo4e.com.html#bo4e.com.vertragskonditionen.Vertragskonditionen" target="_top" title="https://bo4e.github.io/BO4E-python/latest/api/bo4e.com.html#bo4e.com.vertragskonditionen.Vertragskonditionen" xlink:actuate="onRequest" xlink:href="https://bo4e.github.io/BO4E-python/latest/api/bo4e.com.html#bo4e.com.vertragskonditionen.Vertragskonditionen" xlink:show="new" xlink:title="https://bo4e.github.io/BO4E-python/latest/api/bo4e.com.html#bo4e.com.vertragskonditionen.Vertragskonditionen" xlink:type="simple"><text fill="#0000FF" font-family="sans-serif" font-size="14" lengthAdjust="spacing" text-decoration="underline" textLength="140" x="710.5" y="361.0251">Vertragskonditionen</text></a><text fill="#000000" font-family="sans-serif" font-size="10" lengthAdjust="spacing" textLength="147" x="707" y="373.6091">bo4e.com.vertragskonditionen</text></g><!--class Energiemix--><g id="elem_Energiemix"><rect codeLine="19" fill="#F1F1F1" height="37.9375" id="Energiemix" rx="2.5" ry="2.5" style="stroke:#181818;stroke-width:0.5;" width="137" x="699" y="416.03"/><ellipse cx="714" cy="434.9988" fill="#ADD1B2" rx="11" ry="11" style="stroke:#181818;stroke-width:1.0;"/><path d="M716.9688,440.6394 Q716.3906,440.9363 715.75,441.0769 Q715.1094,441.2331 714.4063,441.2331 Q711.9063,441.2331 710.5781,439.5925 Q709.2656,437.9363 709.2656,434.8113 Q709.2656,431.6863 710.5781,430.03 Q711.9063,428.3738 714.4063,428.3738 Q715.1094,428.3738 715.75,428.53 Q716.4063,428.6863 716.9688,428.9831 L716.9688,431.7019 Q716.3438,431.1238 715.75,430.8581 Q715.1563,430.5769 714.5313,430.5769 Q713.1875,430.5769 712.5,431.655 Q711.8125,432.7175 711.8125,434.8113 Q711.8125,436.905 712.5,437.9831 Q713.1875,439.0456 714.5313,439.0456 Q715.1563,439.0456 715.75,438.78 Q716.3438,438.4988 716.9688,437.9206 L716.9688,440.6394 Z " fill="#000000"/><a href="https://bo4e.github.io/BO4E-python/latest/api/bo4e.com.html#bo4e.com.energiemix.Energiemix" target="_top" title="https://bo4e.github.io/BO4E-python/latest/api/bo4e.com.html#bo4e.com.energiemix.Energiemix" xlink:actuate="onRequest" xlink:href="https://bo4e.github.io/BO4E-python/latest/api/bo4e.com.html#bo4e.com.energiemix.Energiemix" xlink:show="new" xlink:title="https://bo4e.github.io/BO4E-python/latest/api/bo4e.com.html#bo4e.com.energiemix.Energiemix" xlink:type="simple"><text fill="#0000FF" font-family="sans-serif" font-size="14" lengthAdjust="spacing" text-decoration="underline" textLength="76" x="742.5" y="434.0251">Energiemix</text></a><text fill="#000000" font-family="sans-serif" font-size="10" lengthAdjust="spacing" textLength="105" x="728" y="446.6091">bo4e.com.energiemix</text></g><!--class Tariftyp--><g id="elem_Tariftyp"><rect codeLine="22" fill="#F1F1F1" height="37.9375" id="Tariftyp" rx="2.5" ry="2.5" style="stroke:#181818;stroke-width:0.5;" width="126" x="704.5" y="529.03"/><ellipse cx="719.5" cy="547.9988" fill="#ADD1B2" rx="11" ry="11" style="stroke:#181818;stroke-width:1.0;"/><path d="M722.4688,553.6394 Q721.8906,553.9363 721.25,554.0769 Q720.6094,554.2331 719.9063,554.2331 Q717.4063,554.2331 716.0781,552.5925 Q714.7656,550.9363 714.7656,547.8113 Q714.7656,544.6863 716.0781,543.03 Q717.4063,541.3738 719.9063,541.3738 Q720.6094,541.3738 721.25,541.53 Q721.9063,541.6863 722.4688,541.9831 L722.4688,544.7019 Q721.8438,544.1238 721.25,543.8581 Q720.6563,543.5769 720.0313,543.5769 Q718.6875,543.5769 718,544.655 Q717.3125,545.7175 717.3125,547.8113 Q717.3125,549.905 718,550.9831 Q718.6875,552.0456 720.0313,552.0456 Q720.6563,552.0456 721.25,551.78 Q721.8438,551.4988 722.4688,550.9206 L722.4688,553.6394 Z " fill="#000000"/><a href="https://bo4e.github.io/BO4E-python/latest/api/bo4e.enum.html#bo4e.enum.tariftyp.Tariftyp" target="_top" title="https://bo4e.github.io/BO4E-python/latest/api/bo4e.enum.html#bo4e.enum.tariftyp.Tariftyp" xlink:actuate="onRequest" xlink:href="https://bo4e.github.io/BO4E-python/latest/api/bo4e.enum.html#bo4e.enum.tariftyp.Tariftyp" xlink:show="new" xlink:title="https://bo4e.github.io/BO4E-python/latest/api/bo4e.enum.html#bo4e.enum.tariftyp.Tariftyp" xlink:type="simple"><text fill="#0000FF" font-family="sans-serif" font-size="14" lengthAdjust="spacing" text-decoration="underline" textLength="50" x="755.5" y="547.0251">Tariftyp</text></a><text fill="#000000" font-family="sans-serif" font-size="10" lengthAdjust="spacing" textLength="94" x="733.5" y="559.6091">bo4e.enum.tariftyp</text></g><!--class Tarifmerkmal--><g id="elem_Tarifmerkmal"><rect codeLine="23" fill="#F1F1F1" height="37.9375" id="Tarifmerkmal" rx="2.5" ry="2.5" style="stroke:#181818;stroke-width:0.5;" width="153" x="691" y="602.03"/><ellipse cx="706" cy="620.9988" fill="#ADD1B2" rx="11" ry="11" style="stroke:#181818;stroke-width:1.0;"/><path d="M708.9688,626.6394 Q708.3906,626.9363 707.75,627.0769 Q707.1094,627.2331 706.4063,627.2331 Q703.9063,627.2331 702.5781,625.5925 Q701.2656,623.9363 701.2656,620.8113 Q701.2656,617.6863 702.5781,616.03 Q703.9063,614.3738 706.4063,614.3738 Q707.1094,614.3738 707.75,614.53 Q708.4063,614.6863 708.9688,614.9831 L708.9688,617.7019 Q708.3438,617.1238 707.75,616.8581 Q707.1563,616.5769 706.5313,616.5769 Q705.1875,616.5769 704.5,617.655 Q703.8125,618.7175 703.8125,620.8113 Q703.8125,622.905 704.5,623.9831 Q705.1875,625.0456 706.5313,625.0456 Q707.1563,625.0456 707.75,624.78 Q708.3438,624.4988 708.9688,623.9206 L708.9688,626.6394 Z " fill="#000000"/><a href="https://bo4e.github.io/BO4E-python/latest/api/bo4e.enum.html#bo4e.enum.tarifmerkmal.Tarifmerkmal" target="_top" title="https://bo4e.github.io/BO4E-python/latest/api/bo4e.enum.html#bo4e.enum.tarifmerkmal.Tarifmerkmal" xlink:actuate="onRequest" xlink:href="https://bo4e.github.io/BO4E-python/latest/api/bo4e.enum.html#bo4e.enum.tarifmerkmal.Tarifmerkmal" xlink:show="new" xlink:title="https://bo4e.github.io/BO4E-python/latest/api/bo4e.enum.html#bo4e.enum.tarifmerkmal.Tarifmerkmal" xlink:type="simple"><text fill="#0000FF" font-family="sans-serif" font-size="14" lengthAdjust="spacing" text-decoration="underline" textLength="88" x="736.5" y="620.0251">Tarifmerkmal</text></a><text fill="#000000" font-family="sans-serif" font-size="10" lengthAdjust="spacing" textLength="121" x="720" y="632.6091">bo4e.enum.tarifmerkmal</text></g><!--class Kundentyp--><g id="elem_Kundentyp"><rect codeLine="24" fill="#F1F1F1" height="37.9375" id="Kundentyp" rx="2.5" ry="2.5" style="stroke:#181818;stroke-width:0.5;" width="141" x="697" y="675.03"/><ellipse cx="712" cy="693.9988" fill="#ADD1B2" rx="11" ry="11" style="stroke:#181818;stroke-width:1.0;"/><path d="M714.9688,699.6394 Q714.3906,699.9363 713.75,700.0769 Q713.1094,700.2331 712.4063,700.2331 Q709.9063,700.2331 708.5781,698.5925 Q707.2656,696.9363 707.2656,693.8113 Q707.2656,690.6863 708.5781,689.03 Q709.9063,687.3738 712.4063,687.3738 Q713.1094,687.3738 713.75,687.53 Q714.4063,687.6863 714.9688,687.9831 L714.9688,690.7019 Q714.3438,690.1238 713.75,689.8581 Q713.1563,689.5769 712.5313,689.5769 Q711.1875,689.5769 710.5,690.655 Q709.8125,691.7175 709.8125,693.8113 Q709.8125,695.905 710.5,696.9831 Q711.1875,698.0456 712.5313,698.0456 Q713.1563,698.0456 713.75,697.78 Q714.3438,697.4988 714.9688,696.9206 L714.9688,699.6394 Z " fill="#000000"/><a href="https://bo4e.github.io/BO4E-python/latest/api/bo4e.enum.html#bo4e.enum.kundentyp.Kundentyp" target="_top" title="https://bo4e.github.io/BO4E-python/latest/api/bo4e.enum.html#bo4e.enum.kundentyp.Kundentyp" xlink:actuate="onRequest" xlink:href="https://bo4e.github.io/BO4E-python/latest/api/bo4e.enum.html#bo4e.enum.kundentyp.Kundentyp" xlink:show="new" xlink:title="https://bo4e.github.io/BO4E-python/latest/api/bo4e.enum.html#bo4e.enum.kundentyp.Kundentyp" xlink:type="simple"><text fill="#0000FF" font-family="sans-serif" font-size="14" lengthAdjust="spacing" text-decoration="underline" textLength="75" x="743" y="693.0251">Kundentyp</text></a><text fill="#000000" font-family="sans-serif" font-size="10" lengthAdjust="spacing" textLength="109" x="726" y="705.6091">bo4e.enum.kundentyp</text></g><!--class Registeranzahl--><g id="elem_Registeranzahl"><rect codeLine="25" fill="#F1F1F1" height="37.9375" id="Registeranzahl" rx="2.5" ry="2.5" style="stroke:#181818;stroke-width:0.5;" width="158" x="688.5" y="748.03"/><ellipse cx="703.5" cy="766.9988" fill="#ADD1B2" rx="11" ry="11" style="stroke:#181818;stroke-width:1.0;"/><path d="M706.4688,772.6394 Q705.8906,772.9363 705.25,773.0769 Q704.6094,773.2331 703.9063,773.2331 Q701.4063,773.2331 700.0781,771.5925 Q698.7656,769.9363 698.7656,766.8113 Q698.7656,763.6863 700.0781,762.03 Q701.4063,760.3738 703.9063,760.3738 Q704.6094,760.3738 705.25,760.53 Q705.9063,760.6863 706.4688,760.9831 L706.4688,763.7019 Q705.8438,763.1238 705.25,762.8581 Q704.6563,762.5769 704.0313,762.5769 Q702.6875,762.5769 702,763.655 Q701.3125,764.7175 701.3125,766.8113 Q701.3125,768.905 702,769.9831 Q702.6875,771.0456 704.0313,771.0456 Q704.6563,771.0456 705.25,770.78 Q705.8438,770.4988 706.4688,769.9206 L706.4688,772.6394 Z " fill="#000000"/><a href="https://bo4e.github.io/BO4E-python/latest/api/bo4e.enum.html#bo4e.enum.registeranzahl.Registeranzahl" target="_top" title="https://bo4e.github.io/BO4E-python/latest/api/bo4e.enum.html#bo4e.enum.registeranzahl.Registeranzahl" xlink:actuate="onRequest" xlink:href="https://bo4e.github.io/BO4E-python/latest/api/bo4e.enum.html#bo4e.enum.registeranzahl.Registeranzahl" xlink:show="new" xlink:title="https://bo4e.github.io/BO4E-python/latest/api/bo4e.enum.html#bo4e.enum.registeranzahl.Registeranzahl" xlink:type="simple"><text fill="#0000FF" font-family="sans-serif" font-size="14" lengthAdjust="spacing" text-decoration="underline" textLength="103" x="729" y="766.0251">Registeranzahl</text></a><text fill="#000000" font-family="sans-serif" font-size="10" lengthAdjust="spacing" textLength="126" x="717.5" y="778.6091">bo4e.enum.registeranzahl</text></g><!--class Sparte--><g id="elem_Sparte"><rect codeLine="26" fill="#F1F1F1" height="37.9375" id="Sparte" rx="2.5" ry="2.5" style="stroke:#181818;stroke-width:0.5;" width="121" x="707" y="821.03"/><ellipse cx="722" cy="839.9988" fill="#ADD1B2" rx="11" ry="11" style="stroke:#181818;stroke-width:1.0;"/><path d="M724.9688,845.6394 Q724.3906,845.9363 723.75,846.0769 Q723.1094,846.2331 722.4063,846.2331 Q719.9063,846.2331 718.5781,844.5925 Q717.2656,842.9363 717.2656,839.8113 Q717.2656,836.6863 718.5781,835.03 Q719.9063,833.3738 722.4063,833.3738 Q723.1094,833.3738 723.75,833.53 Q724.4063,833.6863 724.9688,833.9831 L724.9688,836.7019 Q724.3438,836.1238 723.75,835.8581 Q723.1563,835.5769 722.5313,835.5769 Q721.1875,835.5769 720.5,836.655 Q719.8125,837.7175 719.8125,839.8113 Q719.8125,841.905 720.5,842.9831 Q721.1875,844.0456 722.5313,844.0456 Q723.1563,844.0456 723.75,843.78 Q724.3438,843.4988 724.9688,842.9206 L724.9688,845.6394 Z " fill="#000000"/><a href="https://bo4e.github.io/BO4E-python/latest/api/bo4e.enum.html#bo4e.enum.sparte.Sparte" target="_top" title="https://bo4e.github.io/BO4E-python/latest/api/bo4e.enum.html#bo4e.enum.sparte.Sparte" xlink:actuate="onRequest" xlink:href="https://bo4e.github.io/BO4E-python/latest/api/bo4e.enum.html#bo4e.enum.sparte.Sparte" xlink:show="new" xlink:title="https://bo4e.github.io/BO4E-python/latest/api/bo4e.enum.html#bo4e.enum.sparte.Sparte" xlink:type="simple"><text fill="#0000FF" font-family="sans-serif" font-size="14" lengthAdjust="spacing" text-decoration="underline" textLength="45" x="758" y="839.0251">Sparte</text></a><text fill="#000000" font-family="sans-serif" font-size="10" lengthAdjust="spacing" textLength="89" x="736" y="851.6091">bo4e.enum.sparte</text></g><!--class Tarifinfo--><g id="elem_Tarifinfo"><rect codeLine="3" fill="#F1F1F1" height="143.7188" id="Tarifinfo" rx="2.5" ry="2.5" style="stroke:#181818;stroke-width:0.5;" width="456" x="7" y="439.14"/><ellipse cx="190.75" cy="458.1088" fill="#ADD1B2" rx="11" ry="11" style="stroke:#181818;stroke-width:1.0;"/><path d="M193.7188,463.7494 Q193.1406,464.0463 192.5,464.1869 Q191.8594,464.3431 191.1563,464.3431 Q188.6563,464.3431 187.3281,462.7025 Q186.0156,461.0463 186.0156,457.9213 Q186.0156,454.7963 187.3281,453.14 Q188.6563,451.4838 191.1563,451.4838 Q191.8594,451.4838 192.5,451.64 Q193.1563,451.7963 193.7188,452.0931 L193.7188,454.8119 Q193.0938,454.2338 192.5,453.9681 Q191.9063,453.6869 191.2813,453.6869 Q189.9375,453.6869 189.25,454.765 Q188.5625,455.8275 188.5625,457.9213 Q188.5625,460.015 189.25,461.0931 Q189.9375,462.1556 191.2813,462.1556 Q191.9063,462.1556 192.5,461.89 Q193.0938,461.6088 193.7188,461.0306 L193.7188,463.7494 Z " fill="#000000"/><a href="https://bo4e.github.io/BO4E-python/latest/api/bo4e.bo.html#bo4e.bo.tarifinfo.Tarifinfo" target="_top" title="https://bo4e.github.io/BO4E-python/latest/api/bo4e.bo.html#bo4e.bo.tarifinfo.Tarifinfo" xlink:actuate="onRequest" xlink:href="https://bo4e.github.io/BO4E-python/latest/api/bo4e.bo.html#bo4e.bo.tarifinfo.Tarifinfo" xlink:show="new" xlink:title="https://bo4e.github.io/BO4E-python/latest/api/bo4e.bo.html#bo4e.bo.tarifinfo.Tarifinfo" xlink:type="simple"><text fill="#0000FF" font-family="sans-serif" font-size="14" lengthAdjust="spacing" text-decoration="underline" textLength="54" x="224.25" y="457.1351">Tarifinfo</text></a><text fill="#000000" font-family="sans-serif" font-size="10" lengthAdjust="spacing" textLength="80" x="211.25" y="469.7191">bo4e.bo.tarifinfo</text><line style="stroke:#181818;stroke-width:0.5;" x1="8" x2="462" y1="477.0775" y2="477.0775"/><text fill="#000000" font-family="sans-serif" font-size="14" lengthAdjust="spacing" textLength="444" x="13" y="494.0726">_typ : Literal[&lt;Typ.TARIFINFO: 'TARIFINFO'&gt;] [1] = Typ.TARIFINFO</text><text fill="#000000" font-family="sans-serif" font-size="14" lengthAdjust="spacing" textLength="219" x="13" y="510.3695">bezeichnung : str [0..1] = None</text><text fill="#000000" font-family="sans-serif" font-size="14" lengthAdjust="spacing" textLength="224" x="13" y="526.6664">anbietername : str [0..1] = None</text><text fill="#000000" font-family="sans-serif" font-size="14" lengthAdjust="spacing" textLength="182" x="13" y="542.9632">website : str [0..1] = None</text><text fill="#000000" font-family="sans-serif" font-size="14" lengthAdjust="spacing" textLength="208" x="13" y="559.2601">bemerkung : str [0..1] = None</text><text fill="#000000" font-family="sans-serif" font-size="14" lengthAdjust="spacing" textLength="324" x="13" y="575.557">anwendungVon : AwareDatetime [0..1] = None</text></g><!--link Tarifinfo to Geschaeftsobjekt--><g id="link_Tarifinfo_Geschaeftsobjekt"><path codeLine="29" d="M315.95,438.79 C364.91,396.68 430.07,344.3 493,305 C567.03,258.77 643.5654,224.9345 699.8354,202.1545 " fill="none" id="Tarifinfo-to-Geschaeftsobjekt" style="stroke:#181818;stroke-width:1.0;"/><polygon fill="none" points="716.52,195.4,697.5839,196.593,702.0869,207.716,716.52,195.4" style="stroke:#181818;stroke-width:1.0;"/></g><!--link Tarifinfo to Sparte--><g id="link_Tarifinfo_Sparte"><path codeLine="30" d="M298.3,583.21 C346.92,635.88 418.52,705.84 493,752 C560.09,793.58 637.0044,814.9222 694.9244,827.0422 " fill="none" id="Tarifinfo-to-Sparte" style="stroke:#181818;stroke-width:1.0;"/><polygon fill="#181818" points="706.67,829.5,701.6165,824.3559,694.9244,827.0422,699.9779,832.1863,706.67,829.5" style="stroke:#181818;stroke-width:1.0;"/><text fill="#000000" font-family="sans-serif" font-size="13" lengthAdjust="spacing" textLength="41" x="537" y="748.0669">sparte</text><text fill="#000000" font-family="sans-serif" font-size="13" lengthAdjust="spacing" textLength="24" x="675.1594" y="841.2645">0..1</text></g><!--link Tarifinfo to Kundentyp--><g id="link_Tarifinfo_Kundentyp"><path codeLine="31" d="M411.23,583.32 C438.48,593.95 466.4,604.51 493,614 C553.11,635.44 568.75,639.09 630,657 C651.56,663.3 663.5648,666.7024 684.9748,672.4824 " fill="none" id="Tarifinfo-to-Kundentyp" style="stroke:#181818;stroke-width:1.0;"/><polygon fill="#181818" points="696.56,675.61,691.8099,670.1844,684.9748,672.4824,689.7248,677.9079,696.56,675.61" style="stroke:#181818;stroke-width:1.0;"/><text fill="#000000" font-family="sans-serif" font-size="13" lengthAdjust="spacing" textLength="83" x="516" y="610.0669">kundentypen</text><text fill="#000000" font-family="sans-serif" font-size="13" lengthAdjust="spacing" textLength="23" x="665.9601" y="686.6792">0..*</text></g><!--link Tarifinfo to Registeranzahl--><g id="link_Tarifinfo_Registeranzahl"><path codeLine="32" d="M335.12,583.23 C381.61,615.13 438.64,651.55 493,679 C550.99,708.29 568.14,710.15 630,730 C649.29,736.19 658.7415,739.0776 678.3915,744.4276 " fill="none" id="Tarifinfo-to-Registeranzahl" style="stroke:#181818;stroke-width:1.0;"/><polygon fill="#181818" points="689.97,747.58,685.2315,742.1443,678.3915,744.4276,683.1299,749.8633,689.97,747.58" style="stroke:#181818;stroke-width:1.0;"/><text fill="#000000" font-family="sans-serif" font-size="13" lengthAdjust="spacing" textLength="91" x="512" y="675.0669">registeranzahl</text><text fill="#000000" font-family="sans-serif" font-size="13" lengthAdjust="spacing" textLength="24" x="656.7372" y="741.8777">0..1</text></g><!--link Tarifinfo to Tariftyp--><g id="link_Tarifinfo_Tariftyp"><path codeLine="33" d="M463.29,526.85 C551.03,532.97 632.459,538.6562 692.039,542.8062 " fill="none" id="Tarifinfo-to-Tariftyp" style="stroke:#181818;stroke-width:1.0;"/><polygon fill="#181818" points="704.01,543.64,698.3024,539.2328,692.039,542.8062,697.7466,547.2134,704.01,543.64" style="stroke:#181818;stroke-width:1.0;"/><text fill="#000000" font-family="sans-serif" font-size="13" lengthAdjust="spacing" textLength="45" x="535" y="526.0669">tariftyp</text><text fill="#000000" font-family="sans-serif" font-size="13" lengthAdjust="spacing" textLength="24" x="672.579" y="556.0226">0..1</text></g><!--link Tarifinfo to Tarifmerkmal--><g id="link_Tarifinfo_Tarifmerkmal"><path codeLine="34" d="M463.29,558.13 C544.7,575.01 619.2398,590.464 678.8598,602.824 " fill="none" id="Tarifinfo-to-Tarifmerkmal" style="stroke:#181818;stroke-width:1.0;"/><polygon fill="#181818" points="690.61,605.26,685.5469,600.1253,678.8598,602.824,683.9229,607.9587,690.61,605.26" style="stroke:#181818;stroke-width:1.0;"/><text fill="#000000" font-family="sans-serif" font-size="13" lengthAdjust="spacing" textLength="90" x="512.5" y="562.0669">tarifmerkmale</text><text fill="#000000" font-family="sans-serif" font-size="13" lengthAdjust="spacing" textLength="23" x="660.014" y="616.6246">0..*</text></g><!--link Tarifinfo to Marktteilnehmer--><g id="link_Tarifinfo_Marktteilnehmer"><path codeLine="35" d="M290.19,438.75 C359.05,352.64 486.36,211.45 630,140 C648.58,130.76 658.1816,126.743 678.2316,121.283 " fill="none" id="Tarifinfo-to-Marktteilnehmer" style="stroke:#181818;stroke-width:1.0;"/><polygon fill="#181818" points="689.81,118.13,682.9698,115.8471,678.2316,121.283,685.0718,123.566,689.81,118.13" style="stroke:#181818;stroke-width:1.0;"/><text fill="#000000" font-family="sans-serif" font-size="13" lengthAdjust="spacing" textLength="53" x="531" y="143.0669">anbieter</text><text fill="#000000" font-family="sans-serif" font-size="13" lengthAdjust="spacing" textLength="24" x="658.1023" y="132.1475">0..1</text></g><!--link Tarifinfo to Zeitraum--><g id="link_Tarifinfo_Zeitraum"><path codeLine="36" d="M362.21,438.79 C403.26,416.63 449.48,393.09 493,374 C552.08,348.08 568.38,345.12 630,326 C654.04,318.54 669.1135,314.2055 692.4535,307.9955 " fill="none" id="Tarifinfo-to-Zeitraum" style="stroke:#181818;stroke-width:1.0;"/><polygon fill="#181818" points="704.05,304.91,697.2232,302.5872,692.4535,307.9955,699.2802,310.3182,704.05,304.91" style="stroke:#181818;stroke-width:1.0;"/><text fill="#000000" font-family="sans-serif" font-size="13" lengthAdjust="spacing" textLength="120" x="497.5" y="326.0669">zeitlicheGueltigkeit</text><text fill="#000000" font-family="sans-serif" font-size="13" lengthAdjust="spacing" textLength="24" x="672.2692" y="319.398">0..1</text></g><!--link Tarifinfo to Energiemix--><g id="link_Tarifinfo_Energiemix"><path codeLine="37" d="M463.29,478.44 C548.5,466.23 627.1714,454.9626 686.8914,446.4026 " fill="none" id="Tarifinfo-to-Energiemix" style="stroke:#181818;stroke-width:1.0;"/><polygon fill="#181818" points="698.77,444.7,692.2632,441.5918,686.8914,446.4026,693.3982,449.5108,698.77,444.7" style="stroke:#181818;stroke-width:1.0;"/><text fill="#000000" font-family="sans-serif" font-size="13" lengthAdjust="spacing" textLength="71" x="522" y="454.0669">energiemix</text><text fill="#000000" font-family="sans-serif" font-size="13" lengthAdjust="spacing" textLength="24" x="667.0754" y="458.4127">0..1</text></g><!--link Tarifinfo to Vertragskonditionen--><g id="link_Tarifinfo_Vertragskonditionen"><path codeLine="38" d="M463.23,441.49 C473.28,438.59 483.24,435.75 493,433 C558.52,414.56 621.7242,398.1839 676.5342,384.3639 " fill="none" id="Tarifinfo-to-Vertragskonditionen" style="stroke:#181818;stroke-width:1.0;"/><polygon fill="#181818" points="688.17,381.43,681.3741,379.0183,676.5342,384.3639,683.3301,386.7756,688.17,381.43" style="stroke:#181818;stroke-width:1.0;"/><text fill="#000000" font-family="sans-serif" font-size="13" lengthAdjust="spacing" textLength="127" x="494" y="395.0669">vertragskonditionen</text><text fill="#000000" font-family="sans-serif" font-size="13" lengthAdjust="spacing" textLength="24" x="646.1894" y="398.8121">0..1</text></g><!--SRC=[jLPDRzim33tNlu983WKAL6cnhYkCha2wVg3OrW9TqSEoO91jnjPYIu6aB4kt_VT9Zh_Z9eTuf_0fZzGpAP6ASQ912v0iZ3G4JAAlcU2EuyTKAUYDHf7MC-KE1fuuGH8o7SqzmiJWyk7a-d2sr97WWvXgL7f0Psp5yWI9T1BtSw2fP1F69u8yvHOKrdZyZPyhzeBkyT75caSFg2gvyDlP-wwNCt3X4zCeQJmwVrhEoDFmyUxcxlxcmONzmjw_6CFeU0pleKPnzZnyGUP7VCv34qXf2QCZGbBclU3ex57kCJJXEKsmdR50Jna1xNzwcA2SReY-G1wOlvy5DupXWagyCXdKpEnMv_vr7Aj1pQYFkzK2CZ0UfndD4FGlJw_U3SziNhiiU4BbL6jaCSV8v89yhcDeuDOZq8YHocxuTIiwHEL7rDm79RmVEDNajh40pOLMtSqmgV2cfwdiheNrHLAfh47LqXe8_UkZuTdfXrrhc-_JBv2vFLhIUKA-PWRandf2glnKNaxjMjHFb2PkgAQ21yosCEJaUNqDMjRQLRS4J3-W9K3Ntu8SPSWmOR_8TM52QROBBhrIdIMzWyE6V5uzRHPMZvl5q0-E_JTlT-ubnLRz4gRZGDikdXcG6-kfg3cKuyE0_wJBDlk4nYjj6O0gsAGnevGwiuNkjPg1522tIVoOMr1OhqWiV59z1RjxSH93fkn0voyqYibZ3K8TlgAr7Y8LNFVhNhMvKL8Z-PB-mEhd5NKhQgfgnREplV8SEZpySv5FvRN1KoKQvW7qx2kXLzwzN89vRwo2jpaSL1tAC-12KMNJoRRkr2YD2_MyRmzGN64NybkwNMxjRcME6SIDMvfiDXyVBkJlkusUjgKM0yu5EyHYysh4spd6ceLJWxVwLxgt2sL_tkhNDhXSQ9b8ZXEn0271n4Ef71M91LI2JnZ6WVe7]--></g></svg>