<?xml version="1.0" encoding="us-ascii" standalone="no"?><svg xmlns="http://www.w3.org/2000/svg" xmlns:xlink="http://www.w3.org/1999/xlink" contentStyleType="text/css" height="355px" preserveAspectRatio="none" style="width:668px;height:355px;background:#FFFFFF;" version="1.1" viewBox="0 0 668 355" width="668px" zoomAndPan="magnify"><defs/><g><!--cluster bo4e--><g id="cluster_bo4e"><path d="M471.5,6 L512.5,6 A3.75,3.75 0 0 1 515,8.5 L522,28.2969 L658.5,28.2969 A2.5,2.5 0 0 1 661,30.7969 L661,345.5 A2.5,2.5 0 0 1 658.5,348 L471.5,348 A2.5,2.5 0 0 1 469,345.5 L469,8.5 A2.5,2.5 0 0 1 471.5,6 " fill="none" style="stroke:#000000;stroke-width:1.5;"/><line style="stroke:#000000;stroke-width:1.5;" x1="469" x2="522" y1="28.2969" y2="28.2969"/><text fill="#000000" font-family="sans-serif" font-size="14" font-weight="bold" lengthAdjust="spacing" textLength="40" x="473" y="20.9951">bo4e</text></g><!--cluster bo--><g id="cluster_bo"><path d="M495.5,49 L561.5,49 A3.75,3.75 0 0 1 564,51.5 L571,71.2969 L634.5,71.2969 A2.5,2.5 0 0 1 637,73.7969 L637,208.5 A2.5,2.5 0 0 1 634.5,211 L495.5,211 A2.5,2.5 0 0 1 493,208.5 L493,51.5 A2.5,2.5 0 0 1 495.5,49 " fill="#B6D7A8" style="stroke:#000000;stroke-width:1.5;"/><line style="stroke:#000000;stroke-width:1.5;" x1="493" x2="571" y1="71.2969" y2="71.2969"/><a href="https://bo4e.github.io/BO4E-python/latest/api/bo4e.bo.html" target="_top" title="https://bo4e.github.io/BO4E-python/latest/api/bo4e.bo.html" xlink:actuate="onRequest" xlink:href="https://bo4e.github.io/BO4E-python/latest/api/bo4e.bo.html" xlink:show="new" xlink:title="https://bo4e.github.io/BO4E-python/latest/api/bo4e.bo.html" xlink:type="simple"><text fill="#0000FF" font-family="sans-serif" font-size="14" font-weight="bold" lengthAdjust="spacing" text-decoration="underline" textLength="65" x="497" y="63.9951">bo4e.bo</text></a></g><!--cluster enum--><g id="cluster_enum"><path d="M498.5,235 L588.5,235 A3.75,3.75 0 0 1 591,237.5 L598,257.2969 L631.5,257.2969 A2.5,2.5 0 0 1 634,259.7969 L634,321.5 A2.5,2.5 0 0 1 631.5,324 L498.5,324 A2.5,2.5 0 0 1 496,321.5 L496,237.5 A2.5,2.5 0 0 1 498.5,235 " fill="#D1C358" style="stroke:#000000;stroke-width:1.5;"/><line style="stroke:#000000;stroke-width:1.5;" x1="496" x2="598" y1="257.2969" y2="257.2969"/><a href="https://bo4e.github.io/BO4E-python/latest/api/bo4e.enum.html" target="_top" title="https://bo4e.github.io/BO4E-python/latest/api/bo4e.enum.html" xlink:actuate="onRequest" xlink:href="https://bo4e.github.io/BO4E-python/latest/api/bo4e.enum.html" xlink:show="new" xlink:title="https://bo4e.github.io/BO4E-python/latest/api/bo4e.enum.html" xlink:type="simple"><text fill="#0000FF" font-family="sans-serif" font-size="14" font-weight="bold" lengthAdjust="spacing" text-decoration="underline" textLength="89" x="500" y="249.9951">bo4e.enum</text></a></g><!--class Kosten--><g id="elem_Kosten"><rect codeLine="10" fill="#F1F1F1" height="37.9375" id="Kosten" rx="2.5" ry="2.5" style="stroke:#181818;stroke-width:0.5;" width="106" x="512" y="84.03"/><ellipse cx="527" cy="102.9987" fill="#ADD1B2" rx="11" ry="11" style="stroke:#181818;stroke-width:1.0;"/><path d="M529.9688,108.6394 Q529.3906,108.9362 528.75,109.0769 Q528.1094,109.2331 527.4063,109.2331 Q524.9063,109.2331 523.5781,107.5925 Q522.2656,105.9362 522.2656,102.8112 Q522.2656,99.6862 523.5781,98.03 Q524.9063,96.3737 527.4063,96.3737 Q528.1094,96.3737 528.75,96.53 Q529.4063,96.6862 529.9688,96.9831 L529.9688,99.7019 Q529.3438,99.1237 528.75,98.8581 Q528.1563,98.5769 527.5313,98.5769 Q526.1875,98.5769 525.5,99.655 Q524.8125,100.7175 524.8125,102.8112 Q524.8125,104.905 525.5,105.9831 Q526.1875,107.0456 527.5313,107.0456 Q528.1563,107.0456 528.75,106.78 Q529.3438,106.4987 529.9688,105.9206 L529.9688,108.6394 Z " fill="#000000"/><a href="https://bo4e.github.io/BO4E-python/latest/api/bo4e.bo.html#bo4e.bo.kosten.Kosten" target="_top" title="https://bo4e.github.io/BO4E-python/latest/api/bo4e.bo.html#bo4e.bo.kosten.Kosten" xlink:actuate="onRequest" xlink:href="https://bo4e.github.io/BO4E-python/latest/api/bo4e.bo.html#bo4e.bo.kosten.Kosten" xlink:show="new" xlink:title="https://bo4e.github.io/BO4E-python/latest/api/bo4e.bo.html#bo4e.bo.kosten.Kosten" xlink:type="simple"><text fill="#0000FF" font-family="sans-serif" font-size="14" lengthAdjust="spacing" text-decoration="underline" textLength="49" x="553.5" y="102.0251">Kosten</text></a><text fill="#000000" font-family="sans-serif" font-size="10" lengthAdjust="spacing" textLength="74" x="541" y="114.6091">bo4e.bo.kosten</text></g><!--class Tarifinfo--><g id="elem_Tarifinfo"><rect codeLine="11" fill="#F1F1F1" height="37.9375" id="Tarifinfo" rx="2.5" ry="2.5" style="stroke:#181818;stroke-width:0.5;" width="112" x="509" y="157.03"/><ellipse cx="524" cy="175.9988" fill="#ADD1B2" rx="11" ry="11" style="stroke:#181818;stroke-width:1.0;"/><path d="M526.9688,181.6394 Q526.3906,181.9363 525.75,182.0769 Q525.1094,182.2331 524.4063,182.2331 Q521.9063,182.2331 520.5781,180.5925 Q519.2656,178.9363 519.2656,175.8113 Q519.2656,172.6863 520.5781,171.03 Q521.9063,169.3738 524.4063,169.3738 Q525.1094,169.3738 525.75,169.53 Q526.4063,169.6863 526.9688,169.9831 L526.9688,172.7019 Q526.3438,172.1238 525.75,171.8581 Q525.1563,171.5769 524.5313,171.5769 Q523.1875,171.5769 522.5,172.655 Q521.8125,173.7175 521.8125,175.8113 Q521.8125,177.905 522.5,178.9831 Q523.1875,180.0456 524.5313,180.0456 Q525.1563,180.0456 525.75,179.78 Q526.3438,179.4988 526.9688,178.9206 L526.9688,181.6394 Z " fill="#000000"/><a href="https://bo4e.github.io/BO4E-python/latest/api/bo4e.bo.html#bo4e.bo.tarifinfo.Tarifinfo" target="_top" title="https://bo4e.github.io/BO4E-python/latest/api/bo4e.bo.html#bo4e.bo.tarifinfo.Tarifinfo" xlink:actuate="onRequest" xlink:href="https://bo4e.github.io/BO4E-python/latest/api/bo4e.bo.html#bo4e.bo.tarifinfo.Tarifinfo" xlink:show="new" xlink:title="https://bo4e.github.io/BO4E-python/latest/api/bo4e.bo.html#bo4e.bo.tarifinfo.Tarifinfo" xlink:type="simple"><text fill="#0000FF" font-family="sans-serif" font-size="14" lengthAdjust="spacing" text-decoration="underline" textLength="54" x="551" y="175.0251">Tarifinfo</text></a><text fill="#000000" font-family="sans-serif" font-size="10" lengthAdjust="spacing" textLength="80" x="538" y="187.6091">bo4e.bo.tarifinfo</text></g><!--class Typ--><g id="elem_Typ"><rect codeLine="14" fill="#F1F1F1" height="37.9375" id="Typ" rx="2.5" ry="2.5" style="stroke:#181818;stroke-width:0.5;" width="106" x="512" y="270.03"/><ellipse cx="527" cy="288.9988" fill="#ADD1B2" rx="11" ry="11" style="stroke:#181818;stroke-width:1.0;"/><path d="M529.9688,294.6394 Q529.3906,294.9363 528.75,295.0769 Q528.1094,295.2331 527.4063,295.2331 Q524.9063,295.2331 523.5781,293.5925 Q522.2656,291.9363 522.2656,288.8113 Q522.2656,285.6863 523.5781,284.03 Q524.9063,282.3738 527.4063,282.3738 Q528.1094,282.3738 528.75,282.53 Q529.4063,282.6863 529.9688,282.9831 L529.9688,285.7019 Q529.3438,285.1238 528.75,284.8581 Q528.1563,284.5769 527.5313,284.5769 Q526.1875,284.5769 525.5,285.655 Q524.8125,286.7175 524.8125,288.8113 Q524.8125,290.905 525.5,291.9831 Q526.1875,293.0456 527.5313,293.0456 Q528.1563,293.0456 528.75,292.78 Q529.3438,292.4988 529.9688,291.9206 L529.9688,294.6394 Z " fill="#000000"/><a href="https://bo4e.github.io/BO4E-python/latest/api/bo4e.enum.html#bo4e.enum.typ.Typ" target="_top" title="https://bo4e.github.io/BO4E-python/latest/api/bo4e.enum.html#bo4e.enum.typ.Typ" xlink:actuate="onRequest" xlink:href="https://bo4e.github.io/BO4E-python/latest/api/bo4e.enum.html#bo4e.enum.typ.Typ" xlink:show="new" xlink:title="https://bo4e.github.io/BO4E-python/latest/api/bo4e.enum.html#bo4e.enum.typ.Typ" xlink:type="simple"><text fill="#0000FF" font-family="sans-serif" font-size="14" lengthAdjust="spacing" text-decoration="underline" textLength="25" x="565.5" y="288.0251">Typ</text></a><text fill="#000000" font-family="sans-serif" font-size="10" lengthAdjust="spacing" textLength="74" x="541" y="300.6091">bo4e.enum.typ</text></g><!--class Tarifkosten--><g id="elem_Tarifkosten"><rect codeLine="3" fill="#F1F1F1" height="94.8281" id="Tarifkosten" rx="2.5" ry="2.5" style="stroke:#181818;stroke-width:0.5;" width="371" x="7" y="128.59"/><ellipse cx="141.25" cy="147.5588" fill="#ADD1B2" rx="11" ry="11" style="stroke:#181818;stroke-width:1.0;"/><path d="M144.2188,153.1994 Q143.6406,153.4963 143,153.6369 Q142.3594,153.7931 141.6563,153.7931 Q139.1563,153.7931 137.8281,152.1525 Q136.5156,150.4963 136.5156,147.3713 Q136.5156,144.2463 137.8281,142.59 Q139.1563,140.9338 141.6563,140.9338 Q142.3594,140.9338 143,141.09 Q143.6563,141.2463 144.2188,141.5431 L144.2188,144.2619 Q143.5938,143.6838 143,143.4181 Q142.4063,143.1369 141.7813,143.1369 Q140.4375,143.1369 139.75,144.215 Q139.0625,145.2775 139.0625,147.3713 Q139.0625,149.465 139.75,150.5431 Q140.4375,151.6056 141.7813,151.6056 Q142.4063,151.6056 143,151.34 Q143.5938,151.0588 144.2188,150.4806 L144.2188,153.1994 Z " fill="#000000"/><a href="https://bo4e.github.io/BO4E-python/latest/api/bo4e.bo.html#bo4e.bo.tarifkosten.Tarifkosten" target="_top" title="https://bo4e.github.io/BO4E-python/latest/api/bo4e.bo.html#bo4e.bo.tarifkosten.Tarifkosten" xlink:actuate="onRequest" xlink:href="https://bo4e.github.io/BO4E-python/latest/api/bo4e.bo.html#bo4e.bo.tarifkosten.Tarifkosten" xlink:show="new" xlink:title="https://bo4e.github.io/BO4E-python/latest/api/bo4e.bo.html#bo4e.bo.tarifkosten.Tarifkosten" xlink:type="simple"><text fill="#0000FF" font-family="sans-serif" font-size="14" lengthAdjust="spacing" text-decoration="underline" textLength="77" x="170.25" y="146.5851">Tarifkosten</text></a><text fill="#000000" font-family="sans-serif" font-size="10" lengthAdjust="spacing" textLength="94" x="161.75" y="159.1691">bo4e.bo.tarifkosten</text><line style="stroke:#181818;stroke-width:0.5;" x1="8" x2="377" y1="166.5275" y2="166.5275"/><text fill="#000000" font-family="sans-serif" font-size="14" lengthAdjust="spacing" textLength="359" x="13" y="183.5226">_version : str [0..1] = 202401.2.2.dev11+gbe436e4</text><text fill="#000000" font-family="sans-serif" font-size="14" lengthAdjust="spacing" textLength="311" x="13" y="199.8195">zusatzAttribute : ZusatzAttribut [0..*] = None</text><text fill="#000000" font-family="sans-serif" font-size="14" lengthAdjust="spacing" textLength="147" x="13" y="216.1164">_id : str [0..1] = None</text></g><!--link Tarifkosten to Tarifinfo--><g id="link_Tarifkosten_Tarifinfo"><path codeLine="17" d="M378.48,176 C426.1,176 455.75,176 490.84,176 " fill="none" id="Tarifkosten-to-Tarifinfo" style="stroke:#181818;stroke-width:1.0;"/><polygon fill="none" points="508.84,176,490.84,170,490.84,182,508.84,176" style="stroke:#181818;stroke-width:1.0;"/></g><!--link Tarifkosten to Typ--><g id="link_Tarifkosten_Typ"><path codeLine="18" d="M350.36,223.84 C408.18,241.48 458.3113,256.7716 500.4413,269.6116 " fill="none" id="Tarifkosten-to-Typ" style="stroke:#181818;stroke-width:1.0;"/><polygon fill="#181818" points="511.92,273.11,507.3468,267.5346,500.4413,269.6116,505.0145,275.1871,511.92,273.11" style="stroke:#181818;stroke-width:1.0;"/><text fill="#000000" font-family="sans-serif" font-size="13" lengthAdjust="spacing" textLength="27" x="417" y="239.0669">_typ</text><text fill="#000000" font-family="sans-serif" font-size="13" lengthAdjust="spacing" textLength="24" x="479.9884" y="284.1626">0..1</text></g><!--link Tarifkosten to Kosten--><g id="link_Tarifkosten_Kosten"><path codeLine="19" d="M378.48,139.55 C427.37,129.92 464.5164,122.6001 499.8364,115.6401 " fill="none" id="Tarifkosten-to-Kosten" style="stroke:#181818;stroke-width:1.0;"/><polygon fill="#181818" points="511.61,113.32,504.9499,110.5555,499.8364,115.6401,506.4966,118.4046,511.61,113.32" style="stroke:#181818;stroke-width:1.0;"/><text fill="#000000" font-family="sans-serif" font-size="13" lengthAdjust="spacing" textLength="43" x="409" y="123.0669">kosten</text><text fill="#000000" font-family="sans-serif" font-size="13" lengthAdjust="spacing" textLength="24" x="480.0493" y="127.4552">0..1</text></g><!--SRC=[hLF1Ji9043spNp616uQMGaNJA0b4JoHwuIGsfAK3tTXsc-w00VNVtMs1jYhn06cQpDjzExCpxss4Im8IaF5LI13m31V4HSBO8lAaXEPi5XAbqZ5DNzXeh3Y5Qz_WmXm_su-TT4kXICp88vHaUYalMBumGegZrW6Gb_7bcv24YJ4jOwZ4hlkQt4c-GyVg3lyurmHFLldmmHhp3MPINHOSa9J1h6iObWltqElsxAvbzDGNuCQohbO-slq1sgonMqkFTYEYZFjhGdNofRQI9sdh94yYGLM21p-pvnjVZ2LUZ3Br5dZUa60FN3TlSO-WDHuyt8nkTPkNL68lmgIOuUJqw2jJBrYNlKUkB4-Mel23Zk0OdVQ2tYsTe95IubmXC5d75Iaqh8gXCRG2Qz6_FbkEOwbM2McR6jDj2kh_tVY1KJIzJRNnQa-eq_aS7anJphBEKQGsDBL_csLBUKq7vYhvFsoLUEyN1meEOo4F46ACVVK2cGp5EzHoB3b6WVm6]--></g></svg>