<?plantuml 1.2026.1?><svg xmlns="http://www.w3.org/2000/svg" xmlns:xlink="http://www.w3.org/1999/xlink" contentStyleType="text/css" data-diagram-type="CLASS" height="1198px" preserveAspectRatio="none" style="width:763px;height:1198px;background:#FFFFFF;" version="1.1" viewBox="0 0 763 1198" width="763px" zoomAndPan="magnify"><defs/><g><!--cluster bo4e--><g class="cluster" data-qualified-name="bo4e" data-source-line="16" id="ent0005"><path d="M450.33,6 L490.206,6 A3.75,3.75 0 0 1 492.706,8.5 L499.706,28.2969 L754.18,28.2969 A2.5,2.5 0 0 1 756.68,30.7969 L756.68,1188.5 A2.5,2.5 0 0 1 754.18,1191 L450.33,1191 A2.5,2.5 0 0 1 447.83,1188.5 L447.83,8.5 A2.5,2.5 0 0 1 450.33,6" fill="none" style="stroke:#000000;stroke-width:1.5;"/><line style="stroke:#000000;stroke-width:1.5;" x1="447.83" x2="499.706" y1="28.2969" y2="28.2969"/><text fill="#000000" font-family="sans-serif" font-size="14" font-weight="bold" lengthAdjust="spacing" textLength="38.876" x="451.83" y="20.9951">bo4e</text></g><!--cluster bo--><g class="cluster" data-qualified-name="bo4e.bo" data-source-line="15" id="ent0003"><path d="M514.63,49 L579.464,49 A3.75,3.75 0 0 1 581.964,51.5 L588.964,71.2969 L689.88,71.2969 A2.5,2.5 0 0 1 692.38,73.7969 L692.38,135.5 A2.5,2.5 0 0 1 689.88,138 L514.63,138 A2.5,2.5 0 0 1 512.13,135.5 L512.13,51.5 A2.5,2.5 0 0 1 514.63,49" fill="#B6D7A8" style="stroke:#000000;stroke-width:1.5;"/><line style="stroke:#000000;stroke-width:1.5;" x1="512.13" x2="588.964" y1="71.2969" y2="71.2969"/><text fill="#000000" font-family="sans-serif" font-size="14" font-weight="bold" lengthAdjust="spacing" textLength="63.834" x="516.13" y="63.9951">bo4e.bo</text></g><!--cluster com--><g class="cluster" data-qualified-name="bo4e.com" data-source-line="24" id="ent0006"><path d="M474.33,162 L552.0292,162 A3.75,3.75 0 0 1 554.5292,164.5 L561.5292,184.2969 L730.18,184.2969 A2.5,2.5 0 0 1 732.68,186.7969 L732.68,759.5 A2.5,2.5 0 0 1 730.18,762 L474.33,762 A2.5,2.5 0 0 1 471.83,759.5 L471.83,164.5 A2.5,2.5 0 0 1 474.33,162" fill="#E0A86C" style="stroke:#000000;stroke-width:1.5;"/><line style="stroke:#000000;stroke-width:1.5;" x1="471.83" x2="561.5292" y1="184.2969" y2="184.2969"/><text fill="#000000" font-family="sans-serif" font-size="14" font-weight="bold" lengthAdjust="spacing" textLength="76.6992" x="475.83" y="176.9951">bo4e.com</text></g><!--cluster enum--><g class="cluster" data-qualified-name="bo4e.enum" data-source-line="96" id="ent0015"><path d="M519.59,786 L608.8009,786 A3.75,3.75 0 0 1 611.3009,788.5 L618.3009,808.2969 L684.92,808.2969 A2.5,2.5 0 0 1 687.42,810.7969 L687.42,1164.5 A2.5,2.5 0 0 1 684.92,1167 L519.59,1167 A2.5,2.5 0 0 1 517.09,1164.5 L517.09,788.5 A2.5,2.5 0 0 1 519.59,786" fill="#D1C358" style="stroke:#000000;stroke-width:1.5;"/><line style="stroke:#000000;stroke-width:1.5;" x1="517.09" x2="618.3009" y1="808.2969" y2="808.2969"/><text fill="#000000" font-family="sans-serif" font-size="14" font-weight="bold" lengthAdjust="spacing" textLength="88.2109" x="521.09" y="800.9951">bo4e.enum</text></g><!--class Marktteilnehmer--><g class="entity" data-qualified-name="bo4e.bo.Marktteilnehmer" data-source-line="16" id="ent0004"><rect fill="#F1F1F1" height="37.9375" rx="2.5" ry="2.5" style="stroke:#181818;stroke-width:0.5;" width="148.2588" x="528.13" y="84.03"/><ellipse cx="543.13" cy="102.9987" fill="#ADD1B2" rx="11" ry="11" style="stroke:#181818;stroke-width:1;"/><path d="M546.0988,108.6394 Q545.5206,108.9362 544.88,109.0769 Q544.2394,109.2331 543.5363,109.2331 Q541.0363,109.2331 539.7081,107.5925 Q538.3956,105.9362 538.3956,102.8112 Q538.3956,99.6862 539.7081,98.03 Q541.0363,96.3737 543.5363,96.3737 Q544.2394,96.3737 544.88,96.53 Q545.5363,96.6862 546.0988,96.9831 L546.0988,99.7019 Q545.4738,99.1237 544.88,98.8581 Q544.2863,98.5769 543.6613,98.5769 Q542.3175,98.5769 541.63,99.655 Q540.9425,100.7175 540.9425,102.8112 Q540.9425,104.905 541.63,105.9831 Q542.3175,107.0456 543.6613,107.0456 Q544.2863,107.0456 544.88,106.78 Q545.4738,106.4987 546.0988,105.9206 L546.0988,108.6394 Z " fill="#000000"/><a href="https://bo4e.github.io/BO4E-python/latest/api/bo.Marktteilnehmer.html" target="_top" title="https://bo4e.github.io/BO4E-python/latest/api/bo.Marktteilnehmer.html" xlink:actuate="onRequest" xlink:href="https://bo4e.github.io/BO4E-python/latest/api/bo.Marktteilnehmer.html" xlink:show="new" xlink:title="https://bo4e.github.io/BO4E-python/latest/api/bo.Marktteilnehmer.html" xlink:type="simple"><text fill="#0000FF" font-family="sans-serif" font-size="14" lengthAdjust="spacing" text-decoration="underline" textLength="116.2588" x="557.13" y="102.0251">Marktteilnehmer</text></a><text fill="#000000" font-family="sans-serif" font-size="10" lengthAdjust="spacing" textLength="98.6865" x="565.9161" y="114.6091">bo.Marktteilnehmer</text></g><!--class AufAbschlagRegional--><g class="entity" data-qualified-name="bo4e.com.AufAbschlagRegional" data-source-line="25" id="ent0007"><rect fill="#F1F1F1" height="37.9375" rx="2.5" ry="2.5" style="stroke:#181818;stroke-width:0.5;" width="180.0869" x="512.21" y="197.03"/><ellipse cx="527.21" cy="215.9987" fill="#ADD1B2" rx="11" ry="11" style="stroke:#181818;stroke-width:1;"/><path d="M530.1788,221.6394 Q529.6006,221.9362 528.96,222.0769 Q528.3194,222.2331 527.6163,222.2331 Q525.1163,222.2331 523.7881,220.5925 Q522.4756,218.9362 522.4756,215.8112 Q522.4756,212.6862 523.7881,211.03 Q525.1163,209.3737 527.6163,209.3737 Q528.3194,209.3737 528.96,209.53 Q529.6163,209.6862 530.1788,209.9831 L530.1788,212.7019 Q529.5538,212.1237 528.96,211.8581 Q528.3663,211.5769 527.7413,211.5769 Q526.3975,211.5769 525.71,212.655 Q525.0225,213.7175 525.0225,215.8112 Q525.0225,217.905 525.71,218.9831 Q526.3975,220.0456 527.7413,220.0456 Q528.3663,220.0456 528.96,219.78 Q529.5538,219.4987 530.1788,218.9206 L530.1788,221.6394 Z " fill="#000000"/><a href="https://bo4e.github.io/BO4E-python/latest/api/com.AufAbschlagRegional.html" target="_top" title="https://bo4e.github.io/BO4E-python/latest/api/com.AufAbschlagRegional.html" xlink:actuate="onRequest" xlink:href="https://bo4e.github.io/BO4E-python/latest/api/com.AufAbschlagRegional.html" xlink:show="new" xlink:title="https://bo4e.github.io/BO4E-python/latest/api/com.AufAbschlagRegional.html" xlink:type="simple"><text fill="#0000FF" font-family="sans-serif" font-size="14" lengthAdjust="spacing" text-decoration="underline" textLength="148.0869" x="541.21" y="215.0251">AufAbschlagRegional</text></a><text fill="#000000" font-family="sans-serif" font-size="10" lengthAdjust="spacing" textLength="130.3125" x="550.0972" y="227.6091">com.AufAbschlagRegional</text></g><!--class Energiemix--><g class="entity" data-qualified-name="bo4e.com.Energiemix" data-source-line="36" id="ent0008"><rect fill="#F1F1F1" height="37.9375" rx="2.5" ry="2.5" style="stroke:#181818;stroke-width:0.5;" width="113.1719" x="545.67" y="270.03"/><ellipse cx="560.67" cy="288.9988" fill="#ADD1B2" rx="11" ry="11" style="stroke:#181818;stroke-width:1;"/><path d="M563.6388,294.6394 Q563.0606,294.9363 562.42,295.0769 Q561.7794,295.2331 561.0763,295.2331 Q558.5763,295.2331 557.2481,293.5925 Q555.9356,291.9363 555.9356,288.8113 Q555.9356,285.6863 557.2481,284.03 Q558.5763,282.3738 561.0763,282.3738 Q561.7794,282.3738 562.42,282.53 Q563.0763,282.6863 563.6388,282.9831 L563.6388,285.7019 Q563.0138,285.1238 562.42,284.8581 Q561.8263,284.5769 561.2013,284.5769 Q559.8575,284.5769 559.17,285.655 Q558.4825,286.7175 558.4825,288.8113 Q558.4825,290.905 559.17,291.9831 Q559.8575,293.0456 561.2013,293.0456 Q561.8263,293.0456 562.42,292.78 Q563.0138,292.4988 563.6388,291.9206 L563.6388,294.6394 Z " fill="#000000"/><a href="https://bo4e.github.io/BO4E-python/latest/api/com.Energiemix.html" target="_top" title="https://bo4e.github.io/BO4E-python/latest/api/com.Energiemix.html" xlink:actuate="onRequest" xlink:href="https://bo4e.github.io/BO4E-python/latest/api/com.Energiemix.html" xlink:show="new" xlink:title="https://bo4e.github.io/BO4E-python/latest/api/com.Energiemix.html" xlink:type="simple"><text fill="#0000FF" font-family="sans-serif" font-size="14" lengthAdjust="spacing" text-decoration="underline" textLength="79.29" x="575.6109" y="288.0251">Energiemix</text></a><text fill="#000000" font-family="sans-serif" font-size="10" lengthAdjust="spacing" textLength="81.1719" x="574.67" y="300.6091">com.Energiemix</text></g><!--class Preisgarantie--><g class="entity" data-qualified-name="bo4e.com.Preisgarantie" data-source-line="49" id="ent0009"><rect fill="#F1F1F1" height="37.9375" rx="2.5" ry="2.5" style="stroke:#181818;stroke-width:0.5;" width="124.6611" x="539.92" y="343.03"/><ellipse cx="554.92" cy="361.9988" fill="#ADD1B2" rx="11" ry="11" style="stroke:#181818;stroke-width:1;"/><path d="M557.8888,367.6394 Q557.3106,367.9363 556.67,368.0769 Q556.0294,368.2331 555.3263,368.2331 Q552.8263,368.2331 551.4981,366.5925 Q550.1856,364.9363 550.1856,361.8113 Q550.1856,358.6863 551.4981,357.03 Q552.8263,355.3738 555.3263,355.3738 Q556.0294,355.3738 556.67,355.53 Q557.3263,355.6863 557.8888,355.9831 L557.8888,358.7019 Q557.2638,358.1238 556.67,357.8581 Q556.0763,357.5769 555.4513,357.5769 Q554.1075,357.5769 553.42,358.655 Q552.7325,359.7175 552.7325,361.8113 Q552.7325,363.905 553.42,364.9831 Q554.1075,366.0456 555.4513,366.0456 Q556.0763,366.0456 556.67,365.78 Q557.2638,365.4988 557.8888,364.9206 L557.8888,367.6394 Z " fill="#000000"/><a href="https://bo4e.github.io/BO4E-python/latest/api/com.Preisgarantie.html" target="_top" title="https://bo4e.github.io/BO4E-python/latest/api/com.Preisgarantie.html" xlink:actuate="onRequest" xlink:href="https://bo4e.github.io/BO4E-python/latest/api/com.Preisgarantie.html" xlink:show="new" xlink:title="https://bo4e.github.io/BO4E-python/latest/api/com.Preisgarantie.html" xlink:type="simple"><text fill="#0000FF" font-family="sans-serif" font-size="14" lengthAdjust="spacing" text-decoration="underline" textLength="92.6611" x="568.92" y="361.0251">Preisgarantie</text></a><text fill="#000000" font-family="sans-serif" font-size="10" lengthAdjust="spacing" textLength="90.7227" x="569.8892" y="373.6091">com.Preisgarantie</text></g><!--class Tarifberechnungsparameter--><g class="entity" data-qualified-name="bo4e.com.Tarifberechnungsparameter" data-source-line="55" id="ent0010"><rect fill="#F1F1F1" height="37.9375" rx="2.5" ry="2.5" style="stroke:#181818;stroke-width:0.5;" width="228.8545" x="487.83" y="416.03"/><ellipse cx="502.83" cy="434.9988" fill="#ADD1B2" rx="11" ry="11" style="stroke:#181818;stroke-width:1;"/><path d="M505.7988,440.6394 Q505.2206,440.9363 504.58,441.0769 Q503.9394,441.2331 503.2363,441.2331 Q500.7363,441.2331 499.4081,439.5925 Q498.0956,437.9363 498.0956,434.8113 Q498.0956,431.6863 499.4081,430.03 Q500.7363,428.3738 503.2363,428.3738 Q503.9394,428.3738 504.58,428.53 Q505.2363,428.6863 505.7988,428.9831 L505.7988,431.7019 Q505.1738,431.1238 504.58,430.8581 Q503.9863,430.5769 503.3613,430.5769 Q502.0175,430.5769 501.33,431.655 Q500.6425,432.7175 500.6425,434.8113 Q500.6425,436.905 501.33,437.9831 Q502.0175,439.0456 503.3613,439.0456 Q503.9863,439.0456 504.58,438.78 Q505.1738,438.4988 505.7988,437.9206 L505.7988,440.6394 Z " fill="#000000"/><a href="https://bo4e.github.io/BO4E-python/latest/api/com.Tarifberechnungsparameter.html" target="_top" title="https://bo4e.github.io/BO4E-python/latest/api/com.Tarifberechnungsparameter.html" xlink:actuate="onRequest" xlink:href="https://bo4e.github.io/BO4E-python/latest/api/com.Tarifberechnungsparameter.html" xlink:show="new" xlink:title="https://bo4e.github.io/BO4E-python/latest/api/com.Tarifberechnungsparameter.html" xlink:type="simple"><text fill="#0000FF" font-family="sans-serif" font-size="14" lengthAdjust="spacing" text-decoration="underline" textLength="196.8545" x="516.83" y="434.0251">Tarifberechnungsparameter</text></a><text fill="#000000" font-family="sans-serif" font-size="10" lengthAdjust="spacing" textLength="165.1465" x="532.684" y="446.6091">com.Tarifberechnungsparameter</text></g><!--class Tarifeinschraenkung--><g class="entity" data-qualified-name="bo4e.com.Tarifeinschraenkung" data-source-line="64" id="ent0011"><rect fill="#F1F1F1" height="37.9375" rx="2.5" ry="2.5" style="stroke:#181818;stroke-width:0.5;" width="175.5068" x="514.5" y="489.03"/><ellipse cx="529.5" cy="507.9988" fill="#ADD1B2" rx="11" ry="11" style="stroke:#181818;stroke-width:1;"/><path d="M532.4688,513.6394 Q531.8906,513.9363 531.25,514.0769 Q530.6094,514.2331 529.9063,514.2331 Q527.4063,514.2331 526.0781,512.5925 Q524.7656,510.9363 524.7656,507.8113 Q524.7656,504.6863 526.0781,503.03 Q527.4063,501.3738 529.9063,501.3738 Q530.6094,501.3738 531.25,501.53 Q531.9063,501.6863 532.4688,501.9831 L532.4688,504.7019 Q531.8438,504.1238 531.25,503.8581 Q530.6563,503.5769 530.0313,503.5769 Q528.6875,503.5769 528,504.655 Q527.3125,505.7175 527.3125,507.8113 Q527.3125,509.905 528,510.9831 Q528.6875,512.0456 530.0313,512.0456 Q530.6563,512.0456 531.25,511.78 Q531.8438,511.4988 532.4688,510.9206 L532.4688,513.6394 Z " fill="#000000"/><a href="https://bo4e.github.io/BO4E-python/latest/api/com.Tarifeinschraenkung.html" target="_top" title="https://bo4e.github.io/BO4E-python/latest/api/com.Tarifeinschraenkung.html" xlink:actuate="onRequest" xlink:href="https://bo4e.github.io/BO4E-python/latest/api/com.Tarifeinschraenkung.html" xlink:show="new" xlink:title="https://bo4e.github.io/BO4E-python/latest/api/com.Tarifeinschraenkung.html" xlink:type="simple"><text fill="#0000FF" font-family="sans-serif" font-size="14" lengthAdjust="spacing" text-decoration="underline" textLength="143.5068" x="543.5" y="507.0251">Tarifeinschraenkung</text></a><text fill="#000000" font-family="sans-serif" font-size="10" lengthAdjust="spacing" textLength="127.041" x="551.7329" y="519.6091">com.Tarifeinschraenkung</text></g><!--class TarifpreispositionProOrt--><g class="entity" data-qualified-name="bo4e.com.TarifpreispositionProOrt" data-source-line="70" id="ent0012"><rect fill="#F1F1F1" height="37.9375" rx="2.5" ry="2.5" style="stroke:#181818;stroke-width:0.5;" width="198.626" x="502.94" y="562.03"/><ellipse cx="517.94" cy="580.9988" fill="#ADD1B2" rx="11" ry="11" style="stroke:#181818;stroke-width:1;"/><path d="M520.9088,586.6394 Q520.3306,586.9363 519.69,587.0769 Q519.0494,587.2331 518.3463,587.2331 Q515.8463,587.2331 514.5181,585.5925 Q513.2056,583.9363 513.2056,580.8113 Q513.2056,577.6863 514.5181,576.03 Q515.8463,574.3738 518.3463,574.3738 Q519.0494,574.3738 519.69,574.53 Q520.3463,574.6863 520.9088,574.9831 L520.9088,577.7019 Q520.2838,577.1238 519.69,576.8581 Q519.0963,576.5769 518.4713,576.5769 Q517.1275,576.5769 516.44,577.655 Q515.7525,578.7175 515.7525,580.8113 Q515.7525,582.905 516.44,583.9831 Q517.1275,585.0456 518.4713,585.0456 Q519.0963,585.0456 519.69,584.78 Q520.2838,584.4988 520.9088,583.9206 L520.9088,586.6394 Z " fill="#000000"/><a href="https://bo4e.github.io/BO4E-python/latest/api/com.TarifpreispositionProOrt.html" target="_top" title="https://bo4e.github.io/BO4E-python/latest/api/com.TarifpreispositionProOrt.html" xlink:actuate="onRequest" xlink:href="https://bo4e.github.io/BO4E-python/latest/api/com.TarifpreispositionProOrt.html" xlink:show="new" xlink:title="https://bo4e.github.io/BO4E-python/latest/api/com.TarifpreispositionProOrt.html" xlink:type="simple"><text fill="#0000FF" font-family="sans-serif" font-size="14" lengthAdjust="spacing" text-decoration="underline" textLength="166.626" x="531.94" y="580.0251">TarifpreispositionProOrt</text></a><text fill="#000000" font-family="sans-serif" font-size="10" lengthAdjust="spacing" textLength="143.5547" x="543.4756" y="592.6091">com.TarifpreispositionProOrt</text></g><!--class Vertragskonditionen--><g class="entity" data-qualified-name="bo4e.com.Vertragskonditionen" data-source-line="78" id="ent0013"><rect fill="#F1F1F1" height="37.9375" rx="2.5" ry="2.5" style="stroke:#181818;stroke-width:0.5;" width="174.5771" x="514.97" y="635.03"/><ellipse cx="529.97" cy="653.9988" fill="#ADD1B2" rx="11" ry="11" style="stroke:#181818;stroke-width:1;"/><path d="M532.9388,659.6394 Q532.3606,659.9363 531.72,660.0769 Q531.0794,660.2331 530.3763,660.2331 Q527.8763,660.2331 526.5481,658.5925 Q525.2356,656.9363 525.2356,653.8113 Q525.2356,650.6863 526.5481,649.03 Q527.8763,647.3738 530.3763,647.3738 Q531.0794,647.3738 531.72,647.53 Q532.3763,647.6863 532.9388,647.9831 L532.9388,650.7019 Q532.3138,650.1238 531.72,649.8581 Q531.1263,649.5769 530.5013,649.5769 Q529.1575,649.5769 528.47,650.655 Q527.7825,651.7175 527.7825,653.8113 Q527.7825,655.905 528.47,656.9831 Q529.1575,658.0456 530.5013,658.0456 Q531.1263,658.0456 531.72,657.78 Q532.3138,657.4988 532.9388,656.9206 L532.9388,659.6394 Z " fill="#000000"/><a href="https://bo4e.github.io/BO4E-python/latest/api/com.Vertragskonditionen.html" target="_top" title="https://bo4e.github.io/BO4E-python/latest/api/com.Vertragskonditionen.html" xlink:actuate="onRequest" xlink:href="https://bo4e.github.io/BO4E-python/latest/api/com.Vertragskonditionen.html" xlink:show="new" xlink:title="https://bo4e.github.io/BO4E-python/latest/api/com.Vertragskonditionen.html" xlink:type="simple"><text fill="#0000FF" font-family="sans-serif" font-size="14" lengthAdjust="spacing" text-decoration="underline" textLength="142.5771" x="543.97" y="653.0251">Vertragskonditionen</text></a><text fill="#000000" font-family="sans-serif" font-size="10" lengthAdjust="spacing" textLength="126.377" x="552.0701" y="665.6091">com.Vertragskonditionen</text></g><!--class Zeitraum--><g class="entity" data-qualified-name="bo4e.com.Zeitraum" data-source-line="85" id="ent0014"><rect fill="#F1F1F1" height="37.9375" rx="2.5" ry="2.5" style="stroke:#181818;stroke-width:0.5;" width="102.5566" x="550.98" y="708.03"/><ellipse cx="565.98" cy="726.9988" fill="#ADD1B2" rx="11" ry="11" style="stroke:#181818;stroke-width:1;"/><path d="M568.9488,732.6394 Q568.3706,732.9363 567.73,733.0769 Q567.0894,733.2331 566.3863,733.2331 Q563.8863,733.2331 562.5581,731.5925 Q561.2456,729.9363 561.2456,726.8113 Q561.2456,723.6863 562.5581,722.03 Q563.8863,720.3738 566.3863,720.3738 Q567.0894,720.3738 567.73,720.53 Q568.3863,720.6863 568.9488,720.9831 L568.9488,723.7019 Q568.3238,723.1238 567.73,722.8581 Q567.1363,722.5769 566.5113,722.5769 Q565.1675,722.5769 564.48,723.655 Q563.7925,724.7175 563.7925,726.8113 Q563.7925,728.905 564.48,729.9831 Q565.1675,731.0456 566.5113,731.0456 Q567.1363,731.0456 567.73,730.78 Q568.3238,730.4988 568.9488,729.9206 L568.9488,732.6394 Z " fill="#000000"/><a href="https://bo4e.github.io/BO4E-python/latest/api/com.Zeitraum.html" target="_top" title="https://bo4e.github.io/BO4E-python/latest/api/com.Zeitraum.html" xlink:actuate="onRequest" xlink:href="https://bo4e.github.io/BO4E-python/latest/api/com.Zeitraum.html" xlink:show="new" xlink:title="https://bo4e.github.io/BO4E-python/latest/api/com.Zeitraum.html" xlink:type="simple"><text fill="#0000FF" font-family="sans-serif" font-size="14" lengthAdjust="spacing" text-decoration="underline" textLength="64.4287" x="583.044" y="726.0251">Zeitraum</text></a><text fill="#000000" font-family="sans-serif" font-size="10" lengthAdjust="spacing" textLength="70.5566" x="579.98" y="738.6091">com.Zeitraum</text></g><!--class Kundentyp--><g class="entity" data-qualified-name="bo4e.enum.Kundentyp" data-source-line="97" id="ent0016"><rect fill="#F1F1F1" height="37.9375" rx="2.5" ry="2.5" style="stroke:#181818;stroke-width:0.5;" width="118.0059" x="543.25" y="821.03"/><ellipse cx="558.25" cy="839.9988" fill="#ADD1B2" rx="11" ry="11" style="stroke:#181818;stroke-width:1;"/><path d="M561.2188,845.6394 Q560.6406,845.9363 560,846.0769 Q559.3594,846.2331 558.6563,846.2331 Q556.1563,846.2331 554.8281,844.5925 Q553.5156,842.9363 553.5156,839.8113 Q553.5156,836.6863 554.8281,835.03 Q556.1563,833.3738 558.6563,833.3738 Q559.3594,833.3738 560,833.53 Q560.6563,833.6863 561.2188,833.9831 L561.2188,836.7019 Q560.5938,836.1238 560,835.8581 Q559.4063,835.5769 558.7813,835.5769 Q557.4375,835.5769 556.75,836.655 Q556.0625,837.7175 556.0625,839.8113 Q556.0625,841.905 556.75,842.9831 Q557.4375,844.0456 558.7813,844.0456 Q559.4063,844.0456 560,843.78 Q560.5938,843.4988 561.2188,842.9206 L561.2188,845.6394 Z " fill="#000000"/><a href="https://bo4e.github.io/BO4E-python/latest/api/enum.Kundentyp.html" target="_top" title="https://bo4e.github.io/BO4E-python/latest/api/enum.Kundentyp.html" xlink:actuate="onRequest" xlink:href="https://bo4e.github.io/BO4E-python/latest/api/enum.Kundentyp.html" xlink:show="new" xlink:title="https://bo4e.github.io/BO4E-python/latest/api/enum.Kundentyp.html" xlink:type="simple"><text fill="#0000FF" font-family="sans-serif" font-size="14" lengthAdjust="spacing" text-decoration="underline" textLength="75.9609" x="577.2725" y="839.0251">Kundentyp</text></a><text fill="#000000" font-family="sans-serif" font-size="10" lengthAdjust="spacing" textLength="86.0059" x="572.25" y="851.6091">enum.Kundentyp</text></g><!--class Registeranzahl--><g class="entity" data-qualified-name="bo4e.enum.Registeranzahl" data-source-line="99" id="ent0017"><rect fill="#F1F1F1" height="37.9375" rx="2.5" ry="2.5" style="stroke:#181818;stroke-width:0.5;" width="138.3281" x="533.09" y="894.03"/><ellipse cx="548.09" cy="912.9988" fill="#ADD1B2" rx="11" ry="11" style="stroke:#181818;stroke-width:1;"/><path d="M551.0588,918.6394 Q550.4806,918.9363 549.84,919.0769 Q549.1994,919.2331 548.4963,919.2331 Q545.9963,919.2331 544.6681,917.5925 Q543.3556,915.9363 543.3556,912.8113 Q543.3556,909.6863 544.6681,908.03 Q545.9963,906.3738 548.4963,906.3738 Q549.1994,906.3738 549.84,906.53 Q550.4963,906.6863 551.0588,906.9831 L551.0588,909.7019 Q550.4338,909.1238 549.84,908.8581 Q549.2463,908.5769 548.6213,908.5769 Q547.2775,908.5769 546.59,909.655 Q545.9025,910.7175 545.9025,912.8113 Q545.9025,914.905 546.59,915.9831 Q547.2775,917.0456 548.6213,917.0456 Q549.2463,917.0456 549.84,916.78 Q550.4338,916.4988 551.0588,915.9206 L551.0588,918.6394 Z " fill="#000000"/><a href="https://bo4e.github.io/BO4E-python/latest/api/enum.Registeranzahl.html" target="_top" title="https://bo4e.github.io/BO4E-python/latest/api/enum.Registeranzahl.html" xlink:actuate="onRequest" xlink:href="https://bo4e.github.io/BO4E-python/latest/api/enum.Registeranzahl.html" xlink:show="new" xlink:title="https://bo4e.github.io/BO4E-python/latest/api/enum.Registeranzahl.html" xlink:type="simple"><text fill="#0000FF" font-family="sans-serif" font-size="14" lengthAdjust="spacing" text-decoration="underline" textLength="104.4121" x="563.048" y="912.0251">Registeranzahl</text></a><text fill="#000000" font-family="sans-serif" font-size="10" lengthAdjust="spacing" textLength="106.3281" x="562.09" y="924.6091">enum.Registeranzahl</text></g><!--class Sparte--><g class="entity" data-qualified-name="bo4e.enum.Sparte" data-source-line="101" id="ent0018"><rect fill="#F1F1F1" height="37.9375" rx="2.5" ry="2.5" style="stroke:#181818;stroke-width:0.5;" width="96.7559" x="553.88" y="967.03"/><ellipse cx="568.88" cy="985.9988" fill="#ADD1B2" rx="11" ry="11" style="stroke:#181818;stroke-width:1;"/><path d="M571.8488,991.6394 Q571.2706,991.9363 570.63,992.0769 Q569.9894,992.2331 569.2863,992.2331 Q566.7863,992.2331 565.4581,990.5925 Q564.1456,988.9363 564.1456,985.8113 Q564.1456,982.6863 565.4581,981.03 Q566.7863,979.3738 569.2863,979.3738 Q569.9894,979.3738 570.63,979.53 Q571.2863,979.6863 571.8488,979.9831 L571.8488,982.7019 Q571.2238,982.1238 570.63,981.8581 Q570.0363,981.5769 569.4113,981.5769 Q568.0675,981.5769 567.38,982.655 Q566.6925,983.7175 566.6925,985.8113 Q566.6925,987.905 567.38,988.9831 Q568.0675,990.0456 569.4113,990.0456 Q570.0363,990.0456 570.63,989.78 Q571.2238,989.4988 571.8488,988.9206 L571.8488,991.6394 Z " fill="#000000"/><a href="https://bo4e.github.io/BO4E-python/latest/api/enum.Sparte.html" target="_top" title="https://bo4e.github.io/BO4E-python/latest/api/enum.Sparte.html" xlink:actuate="onRequest" xlink:href="https://bo4e.github.io/BO4E-python/latest/api/enum.Sparte.html" xlink:show="new" xlink:title="https://bo4e.github.io/BO4E-python/latest/api/enum.Sparte.html" xlink:type="simple"><text fill="#0000FF" font-family="sans-serif" font-size="14" lengthAdjust="spacing" text-decoration="underline" textLength="46.2109" x="592.1525" y="985.0251">Sparte</text></a><text fill="#000000" font-family="sans-serif" font-size="10" lengthAdjust="spacing" textLength="64.7559" x="582.88" y="997.6091">enum.Sparte</text></g><!--class Tarifmerkmal--><g class="entity" data-qualified-name="bo4e.enum.Tarifmerkmal" data-source-line="103" id="ent0019"><rect fill="#F1F1F1" height="37.9375" rx="2.5" ry="2.5" style="stroke:#181818;stroke-width:0.5;" width="130.8379" x="536.84" y="1040.03"/><ellipse cx="551.84" cy="1058.9988" fill="#ADD1B2" rx="11" ry="11" style="stroke:#181818;stroke-width:1;"/><path d="M554.8088,1064.6394 Q554.2306,1064.9363 553.59,1065.0769 Q552.9494,1065.2331 552.2463,1065.2331 Q549.7463,1065.2331 548.4181,1063.5925 Q547.1056,1061.9363 547.1056,1058.8113 Q547.1056,1055.6863 548.4181,1054.03 Q549.7463,1052.3738 552.2463,1052.3738 Q552.9494,1052.3738 553.59,1052.53 Q554.2463,1052.6863 554.8088,1052.9831 L554.8088,1055.7019 Q554.1838,1055.1238 553.59,1054.8581 Q552.9963,1054.5769 552.3713,1054.5769 Q551.0275,1054.5769 550.34,1055.655 Q549.6525,1056.7175 549.6525,1058.8113 Q549.6525,1060.905 550.34,1061.9831 Q551.0275,1063.0456 552.3713,1063.0456 Q552.9963,1063.0456 553.59,1062.78 Q554.1838,1062.4988 554.8088,1061.9206 L554.8088,1064.6394 Z " fill="#000000"/><a href="https://bo4e.github.io/BO4E-python/latest/api/enum.Tarifmerkmal.html" target="_top" title="https://bo4e.github.io/BO4E-python/latest/api/enum.Tarifmerkmal.html" xlink:actuate="onRequest" xlink:href="https://bo4e.github.io/BO4E-python/latest/api/enum.Tarifmerkmal.html" xlink:show="new" xlink:title="https://bo4e.github.io/BO4E-python/latest/api/enum.Tarifmerkmal.html" xlink:type="simple"><text fill="#0000FF" font-family="sans-serif" font-size="14" lengthAdjust="spacing" text-decoration="underline" textLength="93.9258" x="568.2961" y="1058.0251">Tarifmerkmal</text></a><text fill="#000000" font-family="sans-serif" font-size="10" lengthAdjust="spacing" textLength="98.8379" x="565.84" y="1070.6091">enum.Tarifmerkmal</text></g><!--class Tariftyp--><g class="entity" data-qualified-name="bo4e.enum.Tariftyp" data-source-line="105" id="ent0020"><rect fill="#F1F1F1" height="37.9375" rx="2.5" ry="2.5" style="stroke:#181818;stroke-width:0.5;" width="102.5811" x="550.96" y="1113.03"/><ellipse cx="565.96" cy="1131.9988" fill="#ADD1B2" rx="11" ry="11" style="stroke:#181818;stroke-width:1;"/><path d="M568.9288,1137.6394 Q568.3506,1137.9363 567.71,1138.0769 Q567.0694,1138.2331 566.3663,1138.2331 Q563.8663,1138.2331 562.5381,1136.5925 Q561.2256,1134.9363 561.2256,1131.8113 Q561.2256,1128.6863 562.5381,1127.03 Q563.8663,1125.3738 566.3663,1125.3738 Q567.0694,1125.3738 567.71,1125.53 Q568.3663,1125.6863 568.9288,1125.9831 L568.9288,1128.7019 Q568.3038,1128.1238 567.71,1127.8581 Q567.1163,1127.5769 566.4913,1127.5769 Q565.1475,1127.5769 564.46,1128.655 Q563.7725,1129.7175 563.7725,1131.8113 Q563.7725,1133.905 564.46,1134.9831 Q565.1475,1136.0456 566.4913,1136.0456 Q567.1163,1136.0456 567.71,1135.78 Q568.3038,1135.4988 568.9288,1134.9206 L568.9288,1137.6394 Z " fill="#000000"/><a href="https://bo4e.github.io/BO4E-python/latest/api/enum.Tariftyp.html" target="_top" title="https://bo4e.github.io/BO4E-python/latest/api/enum.Tariftyp.html" xlink:actuate="onRequest" xlink:href="https://bo4e.github.io/BO4E-python/latest/api/enum.Tariftyp.html" xlink:show="new" xlink:title="https://bo4e.github.io/BO4E-python/latest/api/enum.Tariftyp.html" xlink:type="simple"><text fill="#0000FF" font-family="sans-serif" font-size="14" lengthAdjust="spacing" text-decoration="underline" textLength="54.3662" x="588.0674" y="1131.0251">Tariftyp</text></a><text fill="#000000" font-family="sans-serif" font-size="10" lengthAdjust="spacing" textLength="70.5811" x="579.96" y="1143.6091">enum.Tariftyp</text></g><!--class Tarif--><g class="entity" data-qualified-name="Tarif" data-source-line="3" id="ent0002"><rect fill="#F1F1F1" height="192.6094" rx="2.5" ry="2.5" style="stroke:#181818;stroke-width:0.5;" width="239.8281" x="7" y="525.7"/><ellipse cx="103.5186" cy="544.6688" fill="#ADD1B2" rx="11" ry="11" style="stroke:#181818;stroke-width:1;"/><path d="M106.4873,550.3094 Q105.9092,550.6063 105.2686,550.7469 Q104.6279,550.9031 103.9248,550.9031 Q101.4248,550.9031 100.0967,549.2625 Q98.7842,547.6063 98.7842,544.4813 Q98.7842,541.3563 100.0967,539.7 Q101.4248,538.0438 103.9248,538.0438 Q104.6279,538.0438 105.2686,538.2 Q105.9248,538.3563 106.4873,538.6531 L106.4873,541.3719 Q105.8623,540.7938 105.2686,540.5281 Q104.6748,540.2469 104.0498,540.2469 Q102.7061,540.2469 102.0186,541.325 Q101.3311,542.3875 101.3311,544.4813 Q101.3311,546.575 102.0186,547.6531 Q102.7061,548.7156 104.0498,548.7156 Q104.6748,548.7156 105.2686,548.45 Q105.8623,548.1688 106.4873,547.5906 L106.4873,550.3094 Z " fill="#000000"/><a href="https://bo4e.github.io/BO4E-python/latest/api/bo.Tarif.html" target="_top" title="https://bo4e.github.io/BO4E-python/latest/api/bo.Tarif.html" xlink:actuate="onRequest" xlink:href="https://bo4e.github.io/BO4E-python/latest/api/bo.Tarif.html" xlink:show="new" xlink:title="https://bo4e.github.io/BO4E-python/latest/api/bo.Tarif.html" xlink:type="simple"><text fill="#0000FF" font-family="sans-serif" font-size="14" lengthAdjust="spacing" text-decoration="underline" textLength="31.7051" x="127.3115" y="543.6951">Tarif</text></a><text fill="#000000" font-family="sans-serif" font-size="10" lengthAdjust="spacing" textLength="38.291" x="124.0186" y="556.2791">bo.Tarif</text><line style="stroke:#181818;stroke-width:0.5;" x1="8" x2="245.8281" y1="563.6375" y2="563.6375"/><text fill="#000000" font-family="sans-serif" font-size="14" lengthAdjust="spacing" textLength="94.0215" x="13" y="580.6326">_id : str [0..1]</text><text fill="#000000" font-family="sans-serif" font-size="14" lengthAdjust="spacing" textLength="193.2246" x="13" y="596.9295">_typ : Literal["TARIF"] [0..1]</text><text fill="#000000" font-family="sans-serif" font-size="14" lengthAdjust="spacing" textLength="132.5215" x="13" y="613.2264">_version : str [0..1]</text><text fill="#000000" font-family="sans-serif" font-size="14" lengthAdjust="spacing" textLength="172.6484" x="13" y="629.5232">anbietername : str [0..1]</text><text fill="#000000" font-family="sans-serif" font-size="14" lengthAdjust="spacing" textLength="227.8281" x="13" y="645.8201">anwendungVon : datetime [0..1]</text><text fill="#000000" font-family="sans-serif" font-size="14" lengthAdjust="spacing" textLength="154.4922" x="13" y="662.117">bemerkung : str [0..1]</text><text fill="#000000" font-family="sans-serif" font-size="14" lengthAdjust="spacing" textLength="163.6729" x="13" y="678.4139">bezeichnung : str [0..1]</text><text fill="#000000" font-family="sans-serif" font-size="14" lengthAdjust="spacing" textLength="192.4658" x="13" y="694.7107">preisstand : datetime [0..1]</text><text fill="#000000" font-family="sans-serif" font-size="14" lengthAdjust="spacing" textLength="128.4814" x="13" y="711.0076">website : str [0..1]</text></g><!--link Tarif to Marktteilnehmer--><g class="link" data-entity-1="ent0002" data-entity-2="ent0004" data-link-type="composition" data-source-line="109" id="lnk21"><path codeLine="109" d="M135.68,525.58 C148.7,427.98 183.55,279.35 276.83,192 C345.15,128.03 443.0892,110.1069 515.7492,105.0269" fill="none" id="Tarif-to-Marktteilnehmer" style="stroke:#181818;stroke-width:1;"/><polygon fill="#181818" points="527.72,104.19,521.4556,100.6182,515.7492,105.0269,522.0136,108.5987,527.72,104.19" style="stroke:#181818;stroke-width:1;"/><text fill="#000000" font-family="sans-serif" font-size="13" lengthAdjust="spacing" textLength="54.5073" x="327.33" y="115.0669">anbieter</text><text fill="#000000" font-family="sans-serif" font-size="13" lengthAdjust="spacing" textLength="24.8066" x="495.241" y="117.119">0..1</text></g><!--link Tarif to AufAbschlagRegional--><g class="link" data-entity-1="ent0002" data-entity-2="ent0007" data-link-type="composition" data-source-line="110" id="lnk22"><path codeLine="110" d="M143.32,525.56 C161.3,445.73 199.15,335.75 276.83,274 C343,221.39 428.86,210.2018 499.78,210.1318" fill="none" id="Tarif-to-AufAbschlagRegional" style="stroke:#181818;stroke-width:1;"/><polygon fill="#181818" points="511.78,210.12,505.7761,206.1259,499.78,210.1318,505.784,214.1259,511.78,210.12" style="stroke:#181818;stroke-width:1;"/><text fill="#000000" font-family="sans-serif" font-size="13" lengthAdjust="spacing" textLength="123.4365" x="292.83" y="213.0669">tarifAufAbschlaege</text><text fill="#000000" font-family="sans-serif" font-size="13" lengthAdjust="spacing" textLength="23.0356" x="481.2926" y="222.3108">0..*</text></g><!--link Tarif to Energiemix--><g class="link" data-entity-1="ent0002" data-entity-2="ent0008" data-link-type="composition" data-source-line="111" id="lnk23"><path codeLine="111" d="M159.08,525.35 C182.53,467.89 220.44,398.35 276.83,357 C356.65,298.47 463.6605,288.0005 533.1705,287.3605" fill="none" id="Tarif-to-Energiemix" style="stroke:#181818;stroke-width:1;"/><polygon fill="#181818" points="545.17,287.25,539.1334,283.3054,533.1705,287.3605,539.2071,291.3051,545.17,287.25" style="stroke:#181818;stroke-width:1;"/><text fill="#000000" font-family="sans-serif" font-size="13" lengthAdjust="spacing" textLength="73.4106" x="317.83" y="295.0669">energiemix</text><text fill="#000000" font-family="sans-serif" font-size="13" lengthAdjust="spacing" textLength="24.8066" x="512.7993" y="300.0259">0..1</text></g><!--link Tarif to Preisgarantie--><g class="link" data-entity-1="ent0002" data-entity-2="ent0009" data-link-type="composition" data-source-line="112" id="lnk24"><path codeLine="112" d="M188.38,525.52 C212.4,494.12 242.54,461.77 276.83,440 C358.13,388.38 458.7039,371.9354 527.6139,366.0254" fill="none" id="Tarif-to-Preisgarantie" style="stroke:#181818;stroke-width:1;"/><polygon fill="#181818" points="539.57,365,533.2501,361.5273,527.6139,366.0254,533.9337,369.4981,539.57,365" style="stroke:#181818;stroke-width:1;"/><text fill="#000000" font-family="sans-serif" font-size="13" lengthAdjust="spacing" textLength="86.4551" x="311.33" y="378.0669">preisgarantie</text><text fill="#000000" font-family="sans-serif" font-size="13" lengthAdjust="spacing" textLength="24.8066" x="506.9817" y="378.2888">0..1</text></g><!--link Tarif to Tarifberechnungsparameter--><g class="link" data-entity-1="ent0002" data-entity-2="ent0010" data-link-type="composition" data-source-line="113" id="lnk25"><path codeLine="113" d="M247.05,529.89 C256.87,524.08 266.86,518.69 276.83,514 C343.31,482.71 411.6918,465.2312 475.7118,453.3412" fill="none" id="Tarif-to-Tarifberechnungsparameter" style="stroke:#181818;stroke-width:1;"/><polygon fill="#181818" points="487.51,451.15,480.8805,448.3129,475.7118,453.3412,482.3413,456.1784,487.51,451.15" style="stroke:#181818;stroke-width:1;"/><text fill="#000000" font-family="sans-serif" font-size="13" lengthAdjust="spacing" textLength="153.353" x="277.83" y="461.0669">berechnungsparameter</text><text fill="#000000" font-family="sans-serif" font-size="13" lengthAdjust="spacing" textLength="24.8066" x="455.0213" y="464.8104">0..1</text></g><!--link Tarif to Tarifeinschraenkung--><g class="link" data-entity-1="ent0002" data-entity-2="ent0011" data-link-type="composition" data-source-line="114" id="lnk26"><path codeLine="114" d="M246.98,580.51 C257.03,577.47 267.08,574.59 276.83,572 C356.32,550.91 436.6051,535.4222 502.3251,524.0722" fill="none" id="Tarif-to-Tarifeinschraenkung" style="stroke:#181818;stroke-width:1;"/><polygon fill="#181818" points="514.15,522.03,507.5568,519.1094,502.3251,524.0722,508.9183,526.9927,514.15,522.03" style="stroke:#181818;stroke-width:1;"/><text fill="#000000" font-family="sans-serif" font-size="13" lengthAdjust="spacing" textLength="130.4126" x="289.33" y="535.0669">tarifeinschraenkung</text><text fill="#000000" font-family="sans-serif" font-size="13" lengthAdjust="spacing" textLength="24.8066" x="481.582" y="535.9529">0..1</text></g><!--link Tarif to TarifpreispositionProOrt--><g class="link" data-entity-1="ent0002" data-entity-2="ent0012" data-link-type="composition" data-source-line="115" id="lnk27"><path codeLine="115" d="M247.05,611.68 C325.93,604.85 416.1848,597.0357 490.5248,590.5957" fill="none" id="Tarif-to-TarifpreispositionProOrt" style="stroke:#181818;stroke-width:1;"/><polygon fill="#181818" points="502.48,589.56,496.1572,586.0928,490.5248,590.5957,496.8476,594.0629,502.48,589.56" style="stroke:#181818;stroke-width:1;"/><text fill="#000000" font-family="sans-serif" font-size="13" lengthAdjust="spacing" textLength="66.5742" x="321.33" y="593.0669">tarifpreise</text><text fill="#000000" font-family="sans-serif" font-size="13" lengthAdjust="spacing" textLength="23.0356" x="472.005" y="602.7105">0..*</text></g><!--link Tarif to Vertragskonditionen--><g class="link" data-entity-1="ent0002" data-entity-2="ent0013" data-link-type="composition" data-source-line="116" id="lnk28"><path codeLine="116" d="M247.23,641.78 C257.22,643.02 267.19,644.13 276.83,645 C357.21,652.29 437.2201,654.185 502.6701,654.485" fill="none" id="Tarif-to-Vertragskonditionen" style="stroke:#181818;stroke-width:1;"/><polygon fill="#181818" points="514.67,654.54,508.6884,650.5125,502.6701,654.485,508.6517,658.5125,514.67,654.54" style="stroke:#181818;stroke-width:1;"/><text fill="#000000" font-family="sans-serif" font-size="13" lengthAdjust="spacing" textLength="131.1934" x="288.83" y="641.0669">vertragskonditionen</text><text fill="#000000" font-family="sans-serif" font-size="13" lengthAdjust="spacing" textLength="24.8066" x="482.1463" y="667.3036">0..1</text></g><!--link Tarif to Zeitraum--><g class="link" data-entity-1="ent0002" data-entity-2="ent0014" data-link-type="composition" data-source-line="117" id="lnk29"><path codeLine="117" d="M247.05,670.21 C257.04,673.45 267.05,676.44 276.83,679 C371.84,703.89 474.1605,715.9304 538.6005,721.8604" fill="none" id="Tarif-to-Zeitraum" style="stroke:#181818;stroke-width:1;"/><polygon fill="#181818" points="550.55,722.96,544.9418,718.427,538.6005,721.8604,544.2087,726.3934,550.55,722.96" style="stroke:#181818;stroke-width:1;"/><text fill="#000000" font-family="sans-serif" font-size="13" lengthAdjust="spacing" textLength="125.2583" x="291.83" y="675.0669">zeitlicheGueltigkeit</text><text fill="#000000" font-family="sans-serif" font-size="13" lengthAdjust="spacing" textLength="24.8066" x="518.0434" y="735.5009">0..1</text></g><!--link Tarif to Kundentyp--><g class="link" data-entity-1="ent0002" data-entity-2="ent0016" data-link-type="composition" data-source-line="118" id="lnk30"><path codeLine="118" d="M247.21,716.86 C257,723.04 266.93,728.84 276.83,734 C364.72,779.79 464.5756,808.1718 531.3356,824.3018" fill="none" id="Tarif-to-Kundentyp" style="stroke:#181818;stroke-width:1;"/><polygon fill="#181818" points="543,827.12,538.1072,821.8228,531.3356,824.3018,536.2284,829.599,543,827.12" style="stroke:#181818;stroke-width:1;"/><text fill="#000000" font-family="sans-serif" font-size="13" lengthAdjust="spacing" textLength="85.7759" x="311.83" y="730.0669">kundentypen</text><text fill="#000000" font-family="sans-serif" font-size="13" lengthAdjust="spacing" textLength="23.0356" x="512.2633" y="838.6059">0..*</text></g><!--link Tarif to Registeranzahl--><g class="link" data-entity-1="ent0002" data-entity-2="ent0017" data-link-type="composition" data-source-line="119" id="lnk31"><path codeLine="119" d="M183.91,718.58 C208.56,754.21 240.28,792.35 276.83,819 C353.47,874.88 450.8822,896.1068 520.9822,905.3168" fill="none" id="Tarif-to-Registeranzahl" style="stroke:#181818;stroke-width:1;"/><polygon fill="#181818" points="532.88,906.88,527.4522,902.1325,520.9822,905.3168,526.4101,910.0643,532.88,906.88" style="stroke:#181818;stroke-width:1;"/><text fill="#000000" font-family="sans-serif" font-size="13" lengthAdjust="spacing" textLength="93.2661" x="307.83" y="815.0669">registeranzahl</text><text fill="#000000" font-family="sans-serif" font-size="13" lengthAdjust="spacing" textLength="24.8066" x="500.5299" y="919.0962">0..1</text></g><!--link Tarif to Sparte--><g class="link" data-entity-1="ent0002" data-entity-2="ent0018" data-link-type="composition" data-source-line="120" id="lnk32"><path codeLine="120" d="M154.38,718.74 C176.78,782.59 215.28,863.03 276.83,911 C358.68,974.79 473.2513,985.8244 541.5813,986.8244" fill="none" id="Tarif-to-Sparte" style="stroke:#181818;stroke-width:1;"/><polygon fill="#181818" points="553.58,987,547.6392,982.9126,541.5813,986.8244,547.5221,990.9118,553.58,987" style="stroke:#181818;stroke-width:1;"/><text fill="#000000" font-family="sans-serif" font-size="13" lengthAdjust="spacing" textLength="41.4312" x="333.83" y="907.0669">sparte</text><text fill="#000000" font-family="sans-serif" font-size="13" lengthAdjust="spacing" textLength="24.8066" x="521.1039" y="1000.2717">0..1</text></g><!--link Tarif to Tarifmerkmal--><g class="link" data-entity-1="ent0002" data-entity-2="ent0019" data-link-type="composition" data-source-line="121" id="lnk33"><path codeLine="121" d="M139.68,718.53 C155.55,805.29 192.34,929.45 276.83,999 C350.24,1059.43 452.8665,1067.1141 524.3765,1064.7641" fill="none" id="Tarif-to-Tarifmerkmal" style="stroke:#181818;stroke-width:1;"/><polygon fill="#181818" points="536.37,1064.37,530.2419,1060.5692,524.3765,1064.7641,530.5046,1068.5649,536.37,1064.37" style="stroke:#181818;stroke-width:1;"/><text fill="#000000" font-family="sans-serif" font-size="13" lengthAdjust="spacing" textLength="92.3711" x="308.33" y="995.0669">tarifmerkmale</text><text fill="#000000" font-family="sans-serif" font-size="13" lengthAdjust="spacing" textLength="23.0356" x="505.7538" y="1077.7104">0..*</text></g><!--link Tarif to Tariftyp--><g class="link" data-entity-1="ent0002" data-entity-2="ent0020" data-link-type="composition" data-source-line="122" id="lnk34"><path codeLine="122" d="M130.38,718.44 C138.67,825.18 169.3,994.11 276.83,1085 C354.09,1150.3 468.543,1148.9014 538.583,1141.1414" fill="none" id="Tarif-to-Tariftyp" style="stroke:#181818;stroke-width:1;"/><polygon fill="#181818" points="550.51,1139.82,544.106,1136.505,538.583,1141.1414,544.987,1144.4564,550.51,1139.82" style="stroke:#181818;stroke-width:1;"/><text fill="#000000" font-family="sans-serif" font-size="13" lengthAdjust="spacing" textLength="47.6392" x="330.83" y="1081.0669">tariftyp</text><text fill="#000000" font-family="sans-serif" font-size="13" lengthAdjust="spacing" textLength="24.8066" x="517.9991" y="1153.9546">0..1</text></g><?plantuml-src lLXjR-Cs3FwUNo6atmeqRRVRtI4O1hXtljHeym8dxOPsnI37RApPbW99RdSP-jz7otOSnmgGBDtoII8fcNeUYXIJmBCcMX395f4c8PCmrqpmJcUUKAL8z_4nqdgf-kVdWVW0lGNJKHRqc3Y_6dzmpvRVTIJuUK8rA7rEbmojUZCgsNClqcb2pF3fwNV-is8hw5zU_5BfkuIgGat-xX3y_S52qYTAI_9uqUjTFXL2_Ns9qbkcGTBaiJjpVEzRzwbXyW9IeSVjnPG7370XfodOjA_0mumlxitQ48-W6Hfkc0IGWepHfBqwW1MmUSIjogK4ffIcFDonyIi42e_KNFdMwUIUgYMT0-aQj0DXO2h7vEJguzTFpkSIi7zFq93AM6jW2OS8JrXGjINS9crBRVpQaXr2vD3nRsOprxiTkTT3rz-NqfJ6WeOIbCh1IvZIZsXHB3ujJAH84k1p4GBFqjohBP3VMYZFHLh3Z1Doubuudpz-EGvdtAZdPCzEeEPHGXS-BF14D2d0jYWQWEzORDoqo0z1thdxvbnDlrpVEWFV7NZZaNExB_e1u6SnjeF3huJERteEF5SKhnr8j0BB9rw4f1cogrULWPLawmNA5QjCKRrQIX5ciRR6oDknfBeSv891olugkApdBGfhbM6kdXv2c3jo_O7d3htVzavyMgHf1ac2gkT4KFqUIMqkVd1JJ6l55rlRmlfiwsl7UCDYWHvfjeY1QVKdZImMI9N7nn2BcLZE3Fc14CaUYVD8HYTvlbvGIRbcK93Q4BLuRMWDjGt98UnEVDUR3XpV6Sqyz_YBU3GMfYG7WCy04mUO9oNUMbrLYPtg5aOxBUlARzCU_1guSdtto_NeRZIOJX36eJlRlvnWm0snbfXwxV419gNGZ5sk8vfeQmXkhdd8hZ2JmJnMU6qmjgqBubUFnqccs0lOBaxy-Yla1u8Xb1clOV8-X0BZUSHWwirl_WQLJOMTnAPDJLzJVZ1nhZV2CkGxxkW6oTkNilyXmPl36NwN0hCDkZ6HOYpr1cmMhHqxYs4De4LvC8ecVqp6Ks-6fNpYZyV-R5yeELPPBjjoWMwqtxH2wGG3TKMZv9rJpZr8BUb2nOA71WhW1TGMHGjbYuq1s28_1Djxrv_vpc1wCnvzDT2we_tRZXoZyea62x0NuVyiWJyWIVY6IWi8graBjqfXmAecXo3qu7g8qDrmNrX2ce4bsF0nY1qIVhhebBPKMIJnIPA7utOBXUsLrBjM6gLzhQq1o3k5kWF8P-Gal9p_-DEHhLQ-K-y6Ymfm1AyWP3rjCDAqDBwiP-Z3sz5Uv9s2ofapmLcuqfIr_MdgZLDDqRjuDiNIhyjNLp5kUrB8ZGV5y5s-R79m_XXEgxPiKzBsObDR9_5Iy7uUhKEbcktmf0gKQc8yUEjqYZzLpivEIJSF-MwhJU-l_ndPiZtjMflBVj6zrIfCQkslR3Gt_Orke6tOV2htYtzBgddRVFTB4PzQ5l6E7ROUA-MPcj8s73lBTBdUg2nEswfFdxoqfUsbwrpS9tdwIl1b2OEwTMhxM2UAFechiMtdhSlR9x8XQ2yexnhcR3FO0Kzr0Kf8okak9Wi_TJdiT28M0aaXHIfLHqNYbHJHJPuP9A7w1m00?></g></svg>