<?xml version="1.0" encoding="us-ascii" standalone="no"?><svg xmlns="http://www.w3.org/2000/svg" xmlns:xlink="http://www.w3.org/1999/xlink" contentStyleType="text/css" height="574px" preserveAspectRatio="none" style="width:888px;height:574px;background:#FFFFFF;" version="1.1" viewBox="0 0 888 574" width="888px" zoomAndPan="magnify"><defs/><g><!--cluster bo4e--><g id="cluster_bo4e"><path d="M578.5,6 L619.5,6 A3.75,3.75 0 0 1 622,8.5 L629,28.2969 L878.5,28.2969 A2.5,2.5 0 0 1 881,30.7969 L881,564.5 A2.5,2.5 0 0 1 878.5,567 L578.5,567 A2.5,2.5 0 0 1 576,564.5 L576,8.5 A2.5,2.5 0 0 1 578.5,6 " fill="none" style="stroke:#000000;stroke-width:1.5;"/><line style="stroke:#000000;stroke-width:1.5;" x1="576" x2="629" y1="28.2969" y2="28.2969"/><text fill="#000000" font-family="sans-serif" font-size="14" font-weight="bold" lengthAdjust="spacing" textLength="40" x="580" y="20.9951">bo4e</text></g><!--cluster bo--><g id="cluster_bo"><path d="M659,49 L725,49 A3.75,3.75 0 0 1 727.5,51.5 L734.5,71.2969 L798,71.2969 A2.5,2.5 0 0 1 800.5,73.7969 L800.5,135.5 A2.5,2.5 0 0 1 798,138 L659,138 A2.5,2.5 0 0 1 656.5,135.5 L656.5,51.5 A2.5,2.5 0 0 1 659,49 " fill="#B6D7A8" style="stroke:#000000;stroke-width:1.5;"/><line style="stroke:#000000;stroke-width:1.5;" x1="656.5" x2="734.5" y1="71.2969" y2="71.2969"/><a href="https://bo4e.github.io/BO4E-python/latest/api/bo4e.bo.html" target="_top" title="https://bo4e.github.io/BO4E-python/latest/api/bo4e.bo.html" xlink:actuate="onRequest" xlink:href="https://bo4e.github.io/BO4E-python/latest/api/bo4e.bo.html" xlink:show="new" xlink:title="https://bo4e.github.io/BO4E-python/latest/api/bo4e.bo.html" xlink:type="simple"><text fill="#0000FF" font-family="sans-serif" font-size="14" font-weight="bold" lengthAdjust="spacing" text-decoration="underline" textLength="65" x="660.5" y="63.9951">bo4e.bo</text></a></g><!--cluster com--><g id="cluster_com"><path d="M602.5,162 L681.5,162 A3.75,3.75 0 0 1 684,164.5 L691,184.2969 L854.5,184.2969 A2.5,2.5 0 0 1 857,186.7969 L857,540.5 A2.5,2.5 0 0 1 854.5,543 L602.5,543 A2.5,2.5 0 0 1 600,540.5 L600,164.5 A2.5,2.5 0 0 1 602.5,162 " fill="#E0A86C" style="stroke:#000000;stroke-width:1.5;"/><line style="stroke:#000000;stroke-width:1.5;" x1="600" x2="691" y1="184.2969" y2="184.2969"/><a href="https://bo4e.github.io/BO4E-python/latest/api/bo4e.com.html" target="_top" title="https://bo4e.github.io/BO4E-python/latest/api/bo4e.com.html" xlink:actuate="onRequest" xlink:href="https://bo4e.github.io/BO4E-python/latest/api/bo4e.com.html" xlink:show="new" xlink:title="https://bo4e.github.io/BO4E-python/latest/api/bo4e.com.html" xlink:type="simple"><text fill="#0000FF" font-family="sans-serif" font-size="14" font-weight="bold" lengthAdjust="spacing" text-decoration="underline" textLength="78" x="604" y="176.9951">bo4e.com</text></a></g><!--class Tarifinfo--><g id="elem_Tarifinfo"><rect codeLine="11" fill="#F1F1F1" height="37.9375" id="Tarifinfo" rx="2.5" ry="2.5" style="stroke:#181818;stroke-width:0.5;" width="112" x="672.5" y="84.03"/><ellipse cx="687.5" cy="102.9987" fill="#ADD1B2" rx="11" ry="11" style="stroke:#181818;stroke-width:1.0;"/><path d="M690.4688,108.6394 Q689.8906,108.9362 689.25,109.0769 Q688.6094,109.2331 687.9063,109.2331 Q685.4063,109.2331 684.0781,107.5925 Q682.7656,105.9362 682.7656,102.8112 Q682.7656,99.6862 684.0781,98.03 Q685.4063,96.3737 687.9063,96.3737 Q688.6094,96.3737 689.25,96.53 Q689.9063,96.6862 690.4688,96.9831 L690.4688,99.7019 Q689.8438,99.1237 689.25,98.8581 Q688.6563,98.5769 688.0313,98.5769 Q686.6875,98.5769 686,99.655 Q685.3125,100.7175 685.3125,102.8112 Q685.3125,104.905 686,105.9831 Q686.6875,107.0456 688.0313,107.0456 Q688.6563,107.0456 689.25,106.78 Q689.8438,106.4987 690.4688,105.9206 L690.4688,108.6394 Z " fill="#000000"/><a href="https://bo4e.github.io/BO4E-python/latest/api/bo4e.bo.html#bo4e.bo.tarifinfo.Tarifinfo" target="_top" title="https://bo4e.github.io/BO4E-python/latest/api/bo4e.bo.html#bo4e.bo.tarifinfo.Tarifinfo" xlink:actuate="onRequest" xlink:href="https://bo4e.github.io/BO4E-python/latest/api/bo4e.bo.html#bo4e.bo.tarifinfo.Tarifinfo" xlink:show="new" xlink:title="https://bo4e.github.io/BO4E-python/latest/api/bo4e.bo.html#bo4e.bo.tarifinfo.Tarifinfo" xlink:type="simple"><text fill="#0000FF" font-family="sans-serif" font-size="14" lengthAdjust="spacing" text-decoration="underline" textLength="54" x="714.5" y="102.0251">Tarifinfo</text></a><text fill="#000000" font-family="sans-serif" font-size="10" lengthAdjust="spacing" textLength="80" x="701.5" y="114.6091">bo4e.bo.tarifinfo</text></g><!--class Preisgarantie--><g id="elem_Preisgarantie"><rect codeLine="14" fill="#F1F1F1" height="37.9375" id="Preisgarantie" rx="2.5" ry="2.5" style="stroke:#181818;stroke-width:0.5;" width="146" x="655.5" y="197.03"/><ellipse cx="670.5" cy="215.9987" fill="#ADD1B2" rx="11" ry="11" style="stroke:#181818;stroke-width:1.0;"/><path d="M673.4688,221.6394 Q672.8906,221.9362 672.25,222.0769 Q671.6094,222.2331 670.9063,222.2331 Q668.4063,222.2331 667.0781,220.5925 Q665.7656,218.9362 665.7656,215.8112 Q665.7656,212.6862 667.0781,211.03 Q668.4063,209.3737 670.9063,209.3737 Q671.6094,209.3737 672.25,209.53 Q672.9063,209.6862 673.4688,209.9831 L673.4688,212.7019 Q672.8438,212.1237 672.25,211.8581 Q671.6563,211.5769 671.0313,211.5769 Q669.6875,211.5769 669,212.655 Q668.3125,213.7175 668.3125,215.8112 Q668.3125,217.905 669,218.9831 Q669.6875,220.0456 671.0313,220.0456 Q671.6563,220.0456 672.25,219.78 Q672.8438,219.4987 673.4688,218.9206 L673.4688,221.6394 Z " fill="#000000"/><a href="https://bo4e.github.io/BO4E-python/latest/api/bo4e.com.html#bo4e.com.preisgarantie.Preisgarantie" target="_top" title="https://bo4e.github.io/BO4E-python/latest/api/bo4e.com.html#bo4e.com.preisgarantie.Preisgarantie" xlink:actuate="onRequest" xlink:href="https://bo4e.github.io/BO4E-python/latest/api/bo4e.com.html#bo4e.com.preisgarantie.Preisgarantie" xlink:show="new" xlink:title="https://bo4e.github.io/BO4E-python/latest/api/bo4e.com.html#bo4e.com.preisgarantie.Preisgarantie" xlink:type="simple"><text fill="#0000FF" font-family="sans-serif" font-size="14" lengthAdjust="spacing" text-decoration="underline" textLength="90" x="696.5" y="215.0251">Preisgarantie</text></a><text fill="#000000" font-family="sans-serif" font-size="10" lengthAdjust="spacing" textLength="114" x="684.5" y="227.6091">bo4e.com.preisgarantie</text></g><!--class Tarifberechnungsparameter--><g id="elem_Tarifberechnungsparameter"><rect codeLine="15" fill="#F1F1F1" height="37.9375" id="Tarifberechnungsparameter" rx="2.5" ry="2.5" style="stroke:#181818;stroke-width:0.5;" width="225" x="616" y="270.03"/><ellipse cx="631" cy="288.9988" fill="#ADD1B2" rx="11" ry="11" style="stroke:#181818;stroke-width:1.0;"/><path d="M633.9688,294.6394 Q633.3906,294.9363 632.75,295.0769 Q632.1094,295.2331 631.4063,295.2331 Q628.9063,295.2331 627.5781,293.5925 Q626.2656,291.9363 626.2656,288.8113 Q626.2656,285.6863 627.5781,284.03 Q628.9063,282.3738 631.4063,282.3738 Q632.1094,282.3738 632.75,282.53 Q633.4063,282.6863 633.9688,282.9831 L633.9688,285.7019 Q633.3438,285.1238 632.75,284.8581 Q632.1563,284.5769 631.5313,284.5769 Q630.1875,284.5769 629.5,285.655 Q628.8125,286.7175 628.8125,288.8113 Q628.8125,290.905 629.5,291.9831 Q630.1875,293.0456 631.5313,293.0456 Q632.1563,293.0456 632.75,292.78 Q633.3438,292.4988 633.9688,291.9206 L633.9688,294.6394 Z " fill="#000000"/><a href="https://bo4e.github.io/BO4E-python/latest/api/bo4e.com.html#bo4e.com.tarifberechnungsparameter.Tarifberechnungsparameter" target="_top" title="https://bo4e.github.io/BO4E-python/latest/api/bo4e.com.html#bo4e.com.tarifberechnungsparameter.Tarifberechnungsparameter" xlink:actuate="onRequest" xlink:href="https://bo4e.github.io/BO4E-python/latest/api/bo4e.com.html#bo4e.com.tarifberechnungsparameter.Tarifberechnungsparameter" xlink:show="new" xlink:title="https://bo4e.github.io/BO4E-python/latest/api/bo4e.com.html#bo4e.com.tarifberechnungsparameter.Tarifberechnungsparameter" xlink:type="simple"><text fill="#0000FF" font-family="sans-serif" font-size="14" lengthAdjust="spacing" text-decoration="underline" textLength="193" x="645" y="288.0251">Tarifberechnungsparameter</text></a><text fill="#000000" font-family="sans-serif" font-size="10" lengthAdjust="spacing" textLength="185" x="649" y="300.6091">bo4e.com.tarifberechnungsparameter</text></g><!--class AufAbschlagRegional--><g id="elem_AufAbschlagRegional"><rect codeLine="16" fill="#F1F1F1" height="37.9375" id="AufAbschlagRegional" rx="2.5" ry="2.5" style="stroke:#181818;stroke-width:0.5;" width="179" x="639" y="343.03"/><ellipse cx="654" cy="361.9988" fill="#ADD1B2" rx="11" ry="11" style="stroke:#181818;stroke-width:1.0;"/><path d="M656.9688,367.6394 Q656.3906,367.9363 655.75,368.0769 Q655.1094,368.2331 654.4063,368.2331 Q651.9063,368.2331 650.5781,366.5925 Q649.2656,364.9363 649.2656,361.8113 Q649.2656,358.6863 650.5781,357.03 Q651.9063,355.3738 654.4063,355.3738 Q655.1094,355.3738 655.75,355.53 Q656.4063,355.6863 656.9688,355.9831 L656.9688,358.7019 Q656.3438,358.1238 655.75,357.8581 Q655.1563,357.5769 654.5313,357.5769 Q653.1875,357.5769 652.5,358.655 Q651.8125,359.7175 651.8125,361.8113 Q651.8125,363.905 652.5,364.9831 Q653.1875,366.0456 654.5313,366.0456 Q655.1563,366.0456 655.75,365.78 Q656.3438,365.4988 656.9688,364.9206 L656.9688,367.6394 Z " fill="#000000"/><a href="https://bo4e.github.io/BO4E-python/latest/api/bo4e.com.html#bo4e.com.aufabschlagregional.AufAbschlagRegional" target="_top" title="https://bo4e.github.io/BO4E-python/latest/api/bo4e.com.html#bo4e.com.aufabschlagregional.AufAbschlagRegional" xlink:actuate="onRequest" xlink:href="https://bo4e.github.io/BO4E-python/latest/api/bo4e.com.html#bo4e.com.aufabschlagregional.AufAbschlagRegional" xlink:show="new" xlink:title="https://bo4e.github.io/BO4E-python/latest/api/bo4e.com.html#bo4e.com.aufabschlagregional.AufAbschlagRegional" xlink:type="simple"><text fill="#0000FF" font-family="sans-serif" font-size="14" lengthAdjust="spacing" text-decoration="underline" textLength="145" x="669" y="361.0251">AufAbschlagRegional</text></a><text fill="#000000" font-family="sans-serif" font-size="10" lengthAdjust="spacing" textLength="147" x="668" y="373.6091">bo4e.com.aufabschlagregional</text></g><!--class TarifpreispositionProOrt--><g id="elem_TarifpreispositionProOrt"><rect codeLine="17" fill="#F1F1F1" height="37.9375" id="TarifpreispositionProOrt" rx="2.5" ry="2.5" style="stroke:#181818;stroke-width:0.5;" width="194" x="631.5" y="416.03"/><ellipse cx="646.5" cy="434.9988" fill="#ADD1B2" rx="11" ry="11" style="stroke:#181818;stroke-width:1.0;"/><path d="M649.4688,440.6394 Q648.8906,440.9363 648.25,441.0769 Q647.6094,441.2331 646.9063,441.2331 Q644.4063,441.2331 643.0781,439.5925 Q641.7656,437.9363 641.7656,434.8113 Q641.7656,431.6863 643.0781,430.03 Q644.4063,428.3738 646.9063,428.3738 Q647.6094,428.3738 648.25,428.53 Q648.9063,428.6863 649.4688,428.9831 L649.4688,431.7019 Q648.8438,431.1238 648.25,430.8581 Q647.6563,430.5769 647.0313,430.5769 Q645.6875,430.5769 645,431.655 Q644.3125,432.7175 644.3125,434.8113 Q644.3125,436.905 645,437.9831 Q645.6875,439.0456 647.0313,439.0456 Q647.6563,439.0456 648.25,438.78 Q648.8438,438.4988 649.4688,437.9206 L649.4688,440.6394 Z " fill="#000000"/><a href="https://bo4e.github.io/BO4E-python/latest/api/bo4e.com.html#bo4e.com.tarifpreispositionproort.TarifpreispositionProOrt" target="_top" title="https://bo4e.github.io/BO4E-python/latest/api/bo4e.com.html#bo4e.com.tarifpreispositionproort.TarifpreispositionProOrt" xlink:actuate="onRequest" xlink:href="https://bo4e.github.io/BO4E-python/latest/api/bo4e.com.html#bo4e.com.tarifpreispositionproort.TarifpreispositionProOrt" xlink:show="new" xlink:title="https://bo4e.github.io/BO4E-python/latest/api/bo4e.com.html#bo4e.com.tarifpreispositionproort.TarifpreispositionProOrt" xlink:type="simple"><text fill="#0000FF" font-family="sans-serif" font-size="14" lengthAdjust="spacing" text-decoration="underline" textLength="162" x="660.5" y="434.0251">TarifpreispositionProOrt</text></a><text fill="#000000" font-family="sans-serif" font-size="10" lengthAdjust="spacing" textLength="161" x="661" y="446.6091">bo4e.com.tarifpreispositionproort</text></g><!--class Tarifeinschraenkung--><g id="elem_Tarifeinschraenkung"><rect codeLine="18" fill="#F1F1F1" height="37.9375" id="Tarifeinschraenkung" rx="2.5" ry="2.5" style="stroke:#181818;stroke-width:0.5;" width="178" x="639.5" y="489.03"/><ellipse cx="654.5" cy="507.9988" fill="#ADD1B2" rx="11" ry="11" style="stroke:#181818;stroke-width:1.0;"/><path d="M657.4688,513.6394 Q656.8906,513.9363 656.25,514.0769 Q655.6094,514.2331 654.9063,514.2331 Q652.4063,514.2331 651.0781,512.5925 Q649.7656,510.9363 649.7656,507.8113 Q649.7656,504.6863 651.0781,503.03 Q652.4063,501.3738 654.9063,501.3738 Q655.6094,501.3738 656.25,501.53 Q656.9063,501.6863 657.4688,501.9831 L657.4688,504.7019 Q656.8438,504.1238 656.25,503.8581 Q655.6563,503.5769 655.0313,503.5769 Q653.6875,503.5769 653,504.655 Q652.3125,505.7175 652.3125,507.8113 Q652.3125,509.905 653,510.9831 Q653.6875,512.0456 655.0313,512.0456 Q655.6563,512.0456 656.25,511.78 Q656.8438,511.4988 657.4688,510.9206 L657.4688,513.6394 Z " fill="#000000"/><a href="https://bo4e.github.io/BO4E-python/latest/api/bo4e.com.html#bo4e.com.tarifeinschraenkung.Tarifeinschraenkung" target="_top" title="https://bo4e.github.io/BO4E-python/latest/api/bo4e.com.html#bo4e.com.tarifeinschraenkung.Tarifeinschraenkung" xlink:actuate="onRequest" xlink:href="https://bo4e.github.io/BO4E-python/latest/api/bo4e.com.html#bo4e.com.tarifeinschraenkung.Tarifeinschraenkung" xlink:show="new" xlink:title="https://bo4e.github.io/BO4E-python/latest/api/bo4e.com.html#bo4e.com.tarifeinschraenkung.Tarifeinschraenkung" xlink:type="simple"><text fill="#0000FF" font-family="sans-serif" font-size="14" lengthAdjust="spacing" text-decoration="underline" textLength="141" x="671" y="507.0251">Tarifeinschraenkung</text></a><text fill="#000000" font-family="sans-serif" font-size="10" lengthAdjust="spacing" textLength="146" x="668.5" y="519.6091">bo4e.com.tarifeinschraenkung</text></g><!--class Tarif--><g id="elem_Tarif"><rect codeLine="3" fill="#F1F1F1" height="111.125" id="Tarif" rx="2.5" ry="2.5" style="stroke:#181818;stroke-width:0.5;" width="370" x="7" y="274.44"/><ellipse cx="156.75" cy="293.4088" fill="#ADD1B2" rx="11" ry="11" style="stroke:#181818;stroke-width:1.0;"/><path d="M159.7188,299.0494 Q159.1406,299.3463 158.5,299.4869 Q157.8594,299.6431 157.1563,299.6431 Q154.6563,299.6431 153.3281,298.0025 Q152.0156,296.3463 152.0156,293.2213 Q152.0156,290.0963 153.3281,288.44 Q154.6563,286.7838 157.1563,286.7838 Q157.8594,286.7838 158.5,286.94 Q159.1563,287.0963 159.7188,287.3931 L159.7188,290.1119 Q159.0938,289.5338 158.5,289.2681 Q157.9063,288.9869 157.2813,288.9869 Q155.9375,288.9869 155.25,290.065 Q154.5625,291.1275 154.5625,293.2213 Q154.5625,295.315 155.25,296.3931 Q155.9375,297.4556 157.2813,297.4556 Q157.9063,297.4556 158.5,297.19 Q159.0938,296.9088 159.7188,296.3306 L159.7188,299.0494 Z " fill="#000000"/><a href="https://bo4e.github.io/BO4E-python/latest/api/bo4e.bo.html#bo4e.bo.tarif.Tarif" target="_top" title="https://bo4e.github.io/BO4E-python/latest/api/bo4e.bo.html#bo4e.bo.tarif.Tarif" xlink:actuate="onRequest" xlink:href="https://bo4e.github.io/BO4E-python/latest/api/bo4e.bo.html#bo4e.bo.tarif.Tarif" xlink:show="new" xlink:title="https://bo4e.github.io/BO4E-python/latest/api/bo4e.bo.html#bo4e.bo.tarif.Tarif" xlink:type="simple"><text fill="#0000FF" font-family="sans-serif" font-size="14" lengthAdjust="spacing" text-decoration="underline" textLength="29" x="193.75" y="292.4351">Tarif</text></a><text fill="#000000" font-family="sans-serif" font-size="10" lengthAdjust="spacing" textLength="62" x="177.25" y="305.0191">bo4e.bo.tarif</text><line style="stroke:#181818;stroke-width:0.5;" x1="8" x2="376" y1="312.3775" y2="312.3775"/><text fill="#000000" font-family="sans-serif" font-size="14" lengthAdjust="spacing" textLength="358" x="13" y="329.3726">_version : str [0..1] = 202401.6.1.dev8+gb2857c11</text><text fill="#000000" font-family="sans-serif" font-size="14" lengthAdjust="spacing" textLength="311" x="13" y="345.6695">zusatzAttribute : ZusatzAttribut [0..*] = None</text><text fill="#000000" font-family="sans-serif" font-size="14" lengthAdjust="spacing" textLength="147" x="13" y="361.9664">_id : str [0..1] = None</text><text fill="#000000" font-family="sans-serif" font-size="14" lengthAdjust="spacing" textLength="288" x="13" y="378.2632">preisstand : AwareDatetime [0..1] = None</text></g><!--link Tarif to Tarifinfo--><g id="link_Tarif_Tarifinfo"><path codeLine="21" d="M299.45,274.01 C333.46,256.87 371.49,238.47 407,223 C498.37,183.18 590.5967,149.8978 655.0567,127.6278 " fill="none" id="Tarif-to-Tarifinfo" style="stroke:#181818;stroke-width:1.0;"/><polygon fill="none" points="672.07,121.75,653.0975,121.9567,657.016,133.2989,672.07,121.75" style="stroke:#181818;stroke-width:1.0;"/></g><!--link Tarif to Tarifberechnungsparameter--><g id="link_Tarif_Tarifberechnungsparameter"><path codeLine="22" d="M377.32,315.86 C456.56,309.78 534.6252,303.7981 603.5652,298.5081 " fill="none" id="Tarif-to-Tarifberechnungsparameter" style="stroke:#181818;stroke-width:1.0;"/><polygon fill="#181818" points="615.53,297.59,609.2416,294.0608,603.5652,298.5081,609.8536,302.0373,615.53,297.59" style="stroke:#181818;stroke-width:1.0;"/><text fill="#000000" font-family="sans-serif" font-size="13" lengthAdjust="spacing" textLength="151" x="408" y="299.0669">berechnungsparameter</text><text fill="#000000" font-family="sans-serif" font-size="13" lengthAdjust="spacing" textLength="24" x="583.9146" y="310.6415">0..1</text></g><!--link Tarif to TarifpreispositionProOrt--><g id="link_Tarif_TarifpreispositionProOrt"><path codeLine="23" d="M377.46,378.61 C387.43,380.86 397.33,383.01 407,385 C481.88,400.42 555.5755,411.8889 619.4655,420.8189 " fill="none" id="Tarif-to-TarifpreispositionProOrt" style="stroke:#181818;stroke-width:1.0;"/><polygon fill="#181818" points="631.35,422.48,625.9615,417.688,619.4655,420.8189,624.8541,425.6109,631.35,422.48" style="stroke:#181818;stroke-width:1.0;"/><text fill="#000000" font-family="sans-serif" font-size="13" lengthAdjust="spacing" textLength="64" x="451.5" y="381.0669">tarifpreise</text><text fill="#000000" font-family="sans-serif" font-size="13" lengthAdjust="spacing" textLength="23" x="600.371" y="434.1832">0..*</text></g><!--link Tarif to AufAbschlagRegional--><g id="link_Tarif_AufAbschlagRegional"><path codeLine="24" d="M377.35,350.75 C387.38,351.58 397.31,352.34 407,353 C485.17,358.29 562.2612,360.3104 626.6412,361.2204 " fill="none" id="Tarif-to-AufAbschlagRegional" style="stroke:#181818;stroke-width:1.0;"/><polygon fill="#181818" points="638.64,361.39,632.6971,357.3056,626.6412,361.2204,632.5841,365.3048,638.64,361.39" style="stroke:#181818;stroke-width:1.0;"/><text fill="#000000" font-family="sans-serif" font-size="13" lengthAdjust="spacing" textLength="120" x="423.5" y="349.0669">tarifAufAbschlaege</text><text fill="#000000" font-family="sans-serif" font-size="13" lengthAdjust="spacing" textLength="23" x="607.8796" y="373.9896">0..*</text></g><!--link Tarif to Preisgarantie--><g id="link_Tarif_Preisgarantie"><path codeLine="25" d="M377.31,284.63 C387.34,282.34 397.29,280.12 407,278 C491.86,259.49 578.1666,243.0934 643.2566,231.1634 " fill="none" id="Tarif-to-Preisgarantie" style="stroke:#181818;stroke-width:1.0;"/><polygon fill="#181818" points="655.06,229,648.4372,226.1472,643.2566,231.1634,649.8794,234.0161,655.06,229" style="stroke:#181818;stroke-width:1.0;"/><text fill="#000000" font-family="sans-serif" font-size="13" lengthAdjust="spacing" textLength="84" x="441.5" y="244.0669">preisgarantie</text><text fill="#000000" font-family="sans-serif" font-size="13" lengthAdjust="spacing" textLength="24" x="623.4505" y="242.8987">0..1</text></g><!--link Tarif to Tarifeinschraenkung--><g id="link_Tarif_Tarifeinschraenkung"><path codeLine="26" d="M292.28,386 C327.66,404.23 368.34,423.29 407,437 C483.41,464.1 562.0403,480.9275 627.3403,492.3775 " fill="none" id="Tarif-to-Tarifeinschraenkung" style="stroke:#181818;stroke-width:1.0;"/><polygon fill="#181818" points="639.16,494.45,633.941,489.4739,627.3403,492.3775,632.5593,497.3536,639.16,494.45" style="stroke:#181818;stroke-width:1.0;"/><text fill="#000000" font-family="sans-serif" font-size="13" lengthAdjust="spacing" textLength="126" x="420.5" y="433.0669">tarifeinschraenkung</text><text fill="#000000" font-family="sans-serif" font-size="13" lengthAdjust="spacing" textLength="24" x="607.4012" y="506.0589">0..1</text></g><!--SRC=[jLLDRzf043t7ls84DoeCHfGWgutaDBasKTLJAQhMPcolQkzQkqEYqlQ_T_q1niv23oGNopDlzktEU-jnXZ41IL0yIGasN654N0h7YJAcDGnMgvIeqFva4ievkWcdT1kwN4vk7-Rtu-8NfL9CCaQeQS8ANbU5qaqfpuRxW9ZYiVkrV4BrNA-_Ym-Qxz3tfZUTgW4mNTV0R-VgnnCgROu3FcXIi9gwhhU6Zp2RpkPJprsudhl1f-Mx99mjtrz7dkTSxRQQqIuWKZpS4fgLtpgPYcHKadoM0iqMVDDdhu528TUQc2Znu9afl3Dj4i-nL_dNSGJBKHSimii4WoPOhoiPcWY6jukxws1P2lBghd0HozgPyWqERwSTAj7MfJ8o2bmgG2Jp8mLCT2o12M5uFmsMYq-NQh3VPtY8AfiJffWWZkxZSGITwAKYBvPNH-uiUktJLWw4QBxIL6n5OYHNHdb2LNjeG-0aOk_ev1QjwJRqjJjbsvY5EaepbYXCp0nWcHjiuw39VMboOCdP-x8GLXrP2Dx4jUgc55BpShuMIaf5jMaTu5791qLm2ZXZcOM_TSn2zIPD8XT6IiLG_3Ite-wlcmDBxanNtSAseMw-dC7D_sKy_dEpdvpjODkZ1Xx1e1pVWyDiEVFf-62zwdsoKP_CPgaFhKrubi9spPlLBOG9dcsgEybyw0og_ylHCwtPlgUwa_8DGewvKKaxEfNFq1377BED_WS0]--></g></svg>