<?xml version="1.0" encoding="us-ascii" standalone="no"?><svg xmlns="http://www.w3.org/2000/svg" xmlns:xlink="http://www.w3.org/1999/xlink" contentStyleType="text/css" height="687px" preserveAspectRatio="none" style="width:878px;height:687px;background:#FFFFFF;" version="1.1" viewBox="0 0 878 687" width="878px" zoomAndPan="magnify"><defs/><g><!--cluster bo4e--><g id="cluster_bo4e"><path d="M568.5,6 L609.5,6 A3.75,3.75 0 0 1 612,8.5 L619,28.2969 L868.5,28.2969 A2.5,2.5 0 0 1 871,30.7969 L871,677.5 A2.5,2.5 0 0 1 868.5,680 L568.5,680 A2.5,2.5 0 0 1 566,677.5 L566,8.5 A2.5,2.5 0 0 1 568.5,6 " fill="none" style="stroke:#000000;stroke-width:1.5;"/><line style="stroke:#000000;stroke-width:1.5;" x1="566" x2="619" y1="28.2969" y2="28.2969"/><text fill="#000000" font-family="sans-serif" font-size="14" font-weight="bold" lengthAdjust="spacing" textLength="40" x="570" y="20.9951">bo4e</text></g><!--cluster bo--><g id="cluster_bo"><path d="M649,49 L715,49 A3.75,3.75 0 0 1 717.5,51.5 L724.5,71.2969 L788,71.2969 A2.5,2.5 0 0 1 790.5,73.7969 L790.5,135.5 A2.5,2.5 0 0 1 788,138 L649,138 A2.5,2.5 0 0 1 646.5,135.5 L646.5,51.5 A2.5,2.5 0 0 1 649,49 " fill="#B6D7A8" style="stroke:#000000;stroke-width:1.5;"/><line style="stroke:#000000;stroke-width:1.5;" x1="646.5" x2="724.5" y1="71.2969" y2="71.2969"/><a href="https://bo4e.github.io/BO4E-python/latest/api/bo4e.bo.html" target="_top" title="https://bo4e.github.io/BO4E-python/latest/api/bo4e.bo.html" xlink:actuate="onRequest" xlink:href="https://bo4e.github.io/BO4E-python/latest/api/bo4e.bo.html" xlink:show="new" xlink:title="https://bo4e.github.io/BO4E-python/latest/api/bo4e.bo.html" xlink:type="simple"><text fill="#0000FF" font-family="sans-serif" font-size="14" font-weight="bold" lengthAdjust="spacing" text-decoration="underline" textLength="65" x="650.5" y="63.9951">bo4e.bo</text></a></g><!--cluster com--><g id="cluster_com"><path d="M592.5,162 L671.5,162 A3.75,3.75 0 0 1 674,164.5 L681,184.2969 L844.5,184.2969 A2.5,2.5 0 0 1 847,186.7969 L847,540.5 A2.5,2.5 0 0 1 844.5,543 L592.5,543 A2.5,2.5 0 0 1 590,540.5 L590,164.5 A2.5,2.5 0 0 1 592.5,162 " fill="#E0A86C" style="stroke:#000000;stroke-width:1.5;"/><line style="stroke:#000000;stroke-width:1.5;" x1="590" x2="681" y1="184.2969" y2="184.2969"/><a href="https://bo4e.github.io/BO4E-python/latest/api/bo4e.com.html" target="_top" title="https://bo4e.github.io/BO4E-python/latest/api/bo4e.com.html" xlink:actuate="onRequest" xlink:href="https://bo4e.github.io/BO4E-python/latest/api/bo4e.com.html" xlink:show="new" xlink:title="https://bo4e.github.io/BO4E-python/latest/api/bo4e.com.html" xlink:type="simple"><text fill="#0000FF" font-family="sans-serif" font-size="14" font-weight="bold" lengthAdjust="spacing" text-decoration="underline" textLength="78" x="594" y="176.9951">bo4e.com</text></a></g><!--cluster enum--><g id="cluster_enum"><path d="M652,567 L742,567 A3.75,3.75 0 0 1 744.5,569.5 L751.5,589.2969 L785,589.2969 A2.5,2.5 0 0 1 787.5,591.7969 L787.5,653.5 A2.5,2.5 0 0 1 785,656 L652,656 A2.5,2.5 0 0 1 649.5,653.5 L649.5,569.5 A2.5,2.5 0 0 1 652,567 " fill="#D1C358" style="stroke:#000000;stroke-width:1.5;"/><line style="stroke:#000000;stroke-width:1.5;" x1="649.5" x2="751.5" y1="589.2969" y2="589.2969"/><a href="https://bo4e.github.io/BO4E-python/latest/api/bo4e.enum.html" target="_top" title="https://bo4e.github.io/BO4E-python/latest/api/bo4e.enum.html" xlink:actuate="onRequest" xlink:href="https://bo4e.github.io/BO4E-python/latest/api/bo4e.enum.html" xlink:show="new" xlink:title="https://bo4e.github.io/BO4E-python/latest/api/bo4e.enum.html" xlink:type="simple"><text fill="#0000FF" font-family="sans-serif" font-size="14" font-weight="bold" lengthAdjust="spacing" text-decoration="underline" textLength="89" x="653.5" y="581.9951">bo4e.enum</text></a></g><!--class Tarifinfo--><g id="elem_Tarifinfo"><rect codeLine="11" fill="#F1F1F1" height="37.9375" id="Tarifinfo" rx="2.5" ry="2.5" style="stroke:#181818;stroke-width:0.5;" width="112" x="662.5" y="84.03"/><ellipse cx="677.5" cy="102.9987" fill="#ADD1B2" rx="11" ry="11" style="stroke:#181818;stroke-width:1.0;"/><path d="M680.4688,108.6394 Q679.8906,108.9362 679.25,109.0769 Q678.6094,109.2331 677.9063,109.2331 Q675.4063,109.2331 674.0781,107.5925 Q672.7656,105.9362 672.7656,102.8112 Q672.7656,99.6862 674.0781,98.03 Q675.4063,96.3737 677.9063,96.3737 Q678.6094,96.3737 679.25,96.53 Q679.9063,96.6862 680.4688,96.9831 L680.4688,99.7019 Q679.8438,99.1237 679.25,98.8581 Q678.6563,98.5769 678.0313,98.5769 Q676.6875,98.5769 676,99.655 Q675.3125,100.7175 675.3125,102.8112 Q675.3125,104.905 676,105.9831 Q676.6875,107.0456 678.0313,107.0456 Q678.6563,107.0456 679.25,106.78 Q679.8438,106.4987 680.4688,105.9206 L680.4688,108.6394 Z " fill="#000000"/><a href="https://bo4e.github.io/BO4E-python/latest/api/bo4e.bo.html#bo4e.bo.tarifinfo.Tarifinfo" target="_top" title="https://bo4e.github.io/BO4E-python/latest/api/bo4e.bo.html#bo4e.bo.tarifinfo.Tarifinfo" xlink:actuate="onRequest" xlink:href="https://bo4e.github.io/BO4E-python/latest/api/bo4e.bo.html#bo4e.bo.tarifinfo.Tarifinfo" xlink:show="new" xlink:title="https://bo4e.github.io/BO4E-python/latest/api/bo4e.bo.html#bo4e.bo.tarifinfo.Tarifinfo" xlink:type="simple"><text fill="#0000FF" font-family="sans-serif" font-size="14" lengthAdjust="spacing" text-decoration="underline" textLength="54" x="704.5" y="102.0251">Tarifinfo</text></a><text fill="#000000" font-family="sans-serif" font-size="10" lengthAdjust="spacing" textLength="80" x="691.5" y="114.6091">bo4e.bo.tarifinfo</text></g><!--class Tarifeinschraenkung--><g id="elem_Tarifeinschraenkung"><rect codeLine="14" fill="#F1F1F1" height="37.9375" id="Tarifeinschraenkung" rx="2.5" ry="2.5" style="stroke:#181818;stroke-width:0.5;" width="178" x="629.5" y="197.03"/><ellipse cx="644.5" cy="215.9987" fill="#ADD1B2" rx="11" ry="11" style="stroke:#181818;stroke-width:1.0;"/><path d="M647.4688,221.6394 Q646.8906,221.9362 646.25,222.0769 Q645.6094,222.2331 644.9063,222.2331 Q642.4063,222.2331 641.0781,220.5925 Q639.7656,218.9362 639.7656,215.8112 Q639.7656,212.6862 641.0781,211.03 Q642.4063,209.3737 644.9063,209.3737 Q645.6094,209.3737 646.25,209.53 Q646.9063,209.6862 647.4688,209.9831 L647.4688,212.7019 Q646.8438,212.1237 646.25,211.8581 Q645.6563,211.5769 645.0313,211.5769 Q643.6875,211.5769 643,212.655 Q642.3125,213.7175 642.3125,215.8112 Q642.3125,217.905 643,218.9831 Q643.6875,220.0456 645.0313,220.0456 Q645.6563,220.0456 646.25,219.78 Q646.8438,219.4987 647.4688,218.9206 L647.4688,221.6394 Z " fill="#000000"/><a href="https://bo4e.github.io/BO4E-python/latest/api/bo4e.com.html#bo4e.com.tarifeinschraenkung.Tarifeinschraenkung" target="_top" title="https://bo4e.github.io/BO4E-python/latest/api/bo4e.com.html#bo4e.com.tarifeinschraenkung.Tarifeinschraenkung" xlink:actuate="onRequest" xlink:href="https://bo4e.github.io/BO4E-python/latest/api/bo4e.com.html#bo4e.com.tarifeinschraenkung.Tarifeinschraenkung" xlink:show="new" xlink:title="https://bo4e.github.io/BO4E-python/latest/api/bo4e.com.html#bo4e.com.tarifeinschraenkung.Tarifeinschraenkung" xlink:type="simple"><text fill="#0000FF" font-family="sans-serif" font-size="14" lengthAdjust="spacing" text-decoration="underline" textLength="141" x="661" y="215.0251">Tarifeinschraenkung</text></a><text fill="#000000" font-family="sans-serif" font-size="10" lengthAdjust="spacing" textLength="146" x="658.5" y="227.6091">bo4e.com.tarifeinschraenkung</text></g><!--class Tarifberechnungsparameter--><g id="elem_Tarifberechnungsparameter"><rect codeLine="15" fill="#F1F1F1" height="37.9375" id="Tarifberechnungsparameter" rx="2.5" ry="2.5" style="stroke:#181818;stroke-width:0.5;" width="225" x="606" y="270.03"/><ellipse cx="621" cy="288.9988" fill="#ADD1B2" rx="11" ry="11" style="stroke:#181818;stroke-width:1.0;"/><path d="M623.9688,294.6394 Q623.3906,294.9363 622.75,295.0769 Q622.1094,295.2331 621.4063,295.2331 Q618.9063,295.2331 617.5781,293.5925 Q616.2656,291.9363 616.2656,288.8113 Q616.2656,285.6863 617.5781,284.03 Q618.9063,282.3738 621.4063,282.3738 Q622.1094,282.3738 622.75,282.53 Q623.4063,282.6863 623.9688,282.9831 L623.9688,285.7019 Q623.3438,285.1238 622.75,284.8581 Q622.1563,284.5769 621.5313,284.5769 Q620.1875,284.5769 619.5,285.655 Q618.8125,286.7175 618.8125,288.8113 Q618.8125,290.905 619.5,291.9831 Q620.1875,293.0456 621.5313,293.0456 Q622.1563,293.0456 622.75,292.78 Q623.3438,292.4988 623.9688,291.9206 L623.9688,294.6394 Z " fill="#000000"/><a href="https://bo4e.github.io/BO4E-python/latest/api/bo4e.com.html#bo4e.com.tarifberechnungsparameter.Tarifberechnungsparameter" target="_top" title="https://bo4e.github.io/BO4E-python/latest/api/bo4e.com.html#bo4e.com.tarifberechnungsparameter.Tarifberechnungsparameter" xlink:actuate="onRequest" xlink:href="https://bo4e.github.io/BO4E-python/latest/api/bo4e.com.html#bo4e.com.tarifberechnungsparameter.Tarifberechnungsparameter" xlink:show="new" xlink:title="https://bo4e.github.io/BO4E-python/latest/api/bo4e.com.html#bo4e.com.tarifberechnungsparameter.Tarifberechnungsparameter" xlink:type="simple"><text fill="#0000FF" font-family="sans-serif" font-size="14" lengthAdjust="spacing" text-decoration="underline" textLength="193" x="635" y="288.0251">Tarifberechnungsparameter</text></a><text fill="#000000" font-family="sans-serif" font-size="10" lengthAdjust="spacing" textLength="185" x="639" y="300.6091">bo4e.com.tarifberechnungsparameter</text></g><!--class TarifpreispositionProOrt--><g id="elem_TarifpreispositionProOrt"><rect codeLine="16" fill="#F1F1F1" height="37.9375" id="TarifpreispositionProOrt" rx="2.5" ry="2.5" style="stroke:#181818;stroke-width:0.5;" width="194" x="621.5" y="343.03"/><ellipse cx="636.5" cy="361.9988" fill="#ADD1B2" rx="11" ry="11" style="stroke:#181818;stroke-width:1.0;"/><path d="M639.4688,367.6394 Q638.8906,367.9363 638.25,368.0769 Q637.6094,368.2331 636.9063,368.2331 Q634.4063,368.2331 633.0781,366.5925 Q631.7656,364.9363 631.7656,361.8113 Q631.7656,358.6863 633.0781,357.03 Q634.4063,355.3738 636.9063,355.3738 Q637.6094,355.3738 638.25,355.53 Q638.9063,355.6863 639.4688,355.9831 L639.4688,358.7019 Q638.8438,358.1238 638.25,357.8581 Q637.6563,357.5769 637.0313,357.5769 Q635.6875,357.5769 635,358.655 Q634.3125,359.7175 634.3125,361.8113 Q634.3125,363.905 635,364.9831 Q635.6875,366.0456 637.0313,366.0456 Q637.6563,366.0456 638.25,365.78 Q638.8438,365.4988 639.4688,364.9206 L639.4688,367.6394 Z " fill="#000000"/><a href="https://bo4e.github.io/BO4E-python/latest/api/bo4e.com.html#bo4e.com.tarifpreispositionproort.TarifpreispositionProOrt" target="_top" title="https://bo4e.github.io/BO4E-python/latest/api/bo4e.com.html#bo4e.com.tarifpreispositionproort.TarifpreispositionProOrt" xlink:actuate="onRequest" xlink:href="https://bo4e.github.io/BO4E-python/latest/api/bo4e.com.html#bo4e.com.tarifpreispositionproort.TarifpreispositionProOrt" xlink:show="new" xlink:title="https://bo4e.github.io/BO4E-python/latest/api/bo4e.com.html#bo4e.com.tarifpreispositionproort.TarifpreispositionProOrt" xlink:type="simple"><text fill="#0000FF" font-family="sans-serif" font-size="14" lengthAdjust="spacing" text-decoration="underline" textLength="162" x="650.5" y="361.0251">TarifpreispositionProOrt</text></a><text fill="#000000" font-family="sans-serif" font-size="10" lengthAdjust="spacing" textLength="161" x="651" y="373.6091">bo4e.com.tarifpreispositionproort</text></g><!--class Preisgarantie--><g id="elem_Preisgarantie"><rect codeLine="17" fill="#F1F1F1" height="37.9375" id="Preisgarantie" rx="2.5" ry="2.5" style="stroke:#181818;stroke-width:0.5;" width="146" x="645.5" y="416.03"/><ellipse cx="660.5" cy="434.9988" fill="#ADD1B2" rx="11" ry="11" style="stroke:#181818;stroke-width:1.0;"/><path d="M663.4688,440.6394 Q662.8906,440.9363 662.25,441.0769 Q661.6094,441.2331 660.9063,441.2331 Q658.4063,441.2331 657.0781,439.5925 Q655.7656,437.9363 655.7656,434.8113 Q655.7656,431.6863 657.0781,430.03 Q658.4063,428.3738 660.9063,428.3738 Q661.6094,428.3738 662.25,428.53 Q662.9063,428.6863 663.4688,428.9831 L663.4688,431.7019 Q662.8438,431.1238 662.25,430.8581 Q661.6563,430.5769 661.0313,430.5769 Q659.6875,430.5769 659,431.655 Q658.3125,432.7175 658.3125,434.8113 Q658.3125,436.905 659,437.9831 Q659.6875,439.0456 661.0313,439.0456 Q661.6563,439.0456 662.25,438.78 Q662.8438,438.4988 663.4688,437.9206 L663.4688,440.6394 Z " fill="#000000"/><a href="https://bo4e.github.io/BO4E-python/latest/api/bo4e.com.html#bo4e.com.preisgarantie.Preisgarantie" target="_top" title="https://bo4e.github.io/BO4E-python/latest/api/bo4e.com.html#bo4e.com.preisgarantie.Preisgarantie" xlink:actuate="onRequest" xlink:href="https://bo4e.github.io/BO4E-python/latest/api/bo4e.com.html#bo4e.com.preisgarantie.Preisgarantie" xlink:show="new" xlink:title="https://bo4e.github.io/BO4E-python/latest/api/bo4e.com.html#bo4e.com.preisgarantie.Preisgarantie" xlink:type="simple"><text fill="#0000FF" font-family="sans-serif" font-size="14" lengthAdjust="spacing" text-decoration="underline" textLength="90" x="686.5" y="434.0251">Preisgarantie</text></a><text fill="#000000" font-family="sans-serif" font-size="10" lengthAdjust="spacing" textLength="114" x="674.5" y="446.6091">bo4e.com.preisgarantie</text></g><!--class AufAbschlagRegional--><g id="elem_AufAbschlagRegional"><rect codeLine="18" fill="#F1F1F1" height="37.9375" id="AufAbschlagRegional" rx="2.5" ry="2.5" style="stroke:#181818;stroke-width:0.5;" width="179" x="629" y="489.03"/><ellipse cx="644" cy="507.9988" fill="#ADD1B2" rx="11" ry="11" style="stroke:#181818;stroke-width:1.0;"/><path d="M646.9688,513.6394 Q646.3906,513.9363 645.75,514.0769 Q645.1094,514.2331 644.4063,514.2331 Q641.9063,514.2331 640.5781,512.5925 Q639.2656,510.9363 639.2656,507.8113 Q639.2656,504.6863 640.5781,503.03 Q641.9063,501.3738 644.4063,501.3738 Q645.1094,501.3738 645.75,501.53 Q646.4063,501.6863 646.9688,501.9831 L646.9688,504.7019 Q646.3438,504.1238 645.75,503.8581 Q645.1563,503.5769 644.5313,503.5769 Q643.1875,503.5769 642.5,504.655 Q641.8125,505.7175 641.8125,507.8113 Q641.8125,509.905 642.5,510.9831 Q643.1875,512.0456 644.5313,512.0456 Q645.1563,512.0456 645.75,511.78 Q646.3438,511.4988 646.9688,510.9206 L646.9688,513.6394 Z " fill="#000000"/><a href="https://bo4e.github.io/BO4E-python/latest/api/bo4e.com.html#bo4e.com.aufabschlagregional.AufAbschlagRegional" target="_top" title="https://bo4e.github.io/BO4E-python/latest/api/bo4e.com.html#bo4e.com.aufabschlagregional.AufAbschlagRegional" xlink:actuate="onRequest" xlink:href="https://bo4e.github.io/BO4E-python/latest/api/bo4e.com.html#bo4e.com.aufabschlagregional.AufAbschlagRegional" xlink:show="new" xlink:title="https://bo4e.github.io/BO4E-python/latest/api/bo4e.com.html#bo4e.com.aufabschlagregional.AufAbschlagRegional" xlink:type="simple"><text fill="#0000FF" font-family="sans-serif" font-size="14" lengthAdjust="spacing" text-decoration="underline" textLength="145" x="659" y="507.0251">AufAbschlagRegional</text></a><text fill="#000000" font-family="sans-serif" font-size="10" lengthAdjust="spacing" textLength="147" x="658" y="519.6091">bo4e.com.aufabschlagregional</text></g><!--class Typ--><g id="elem_Typ"><rect codeLine="21" fill="#F1F1F1" height="37.9375" id="Typ" rx="2.5" ry="2.5" style="stroke:#181818;stroke-width:0.5;" width="106" x="665.5" y="602.03"/><ellipse cx="680.5" cy="620.9988" fill="#ADD1B2" rx="11" ry="11" style="stroke:#181818;stroke-width:1.0;"/><path d="M683.4688,626.6394 Q682.8906,626.9363 682.25,627.0769 Q681.6094,627.2331 680.9063,627.2331 Q678.4063,627.2331 677.0781,625.5925 Q675.7656,623.9363 675.7656,620.8113 Q675.7656,617.6863 677.0781,616.03 Q678.4063,614.3738 680.9063,614.3738 Q681.6094,614.3738 682.25,614.53 Q682.9063,614.6863 683.4688,614.9831 L683.4688,617.7019 Q682.8438,617.1238 682.25,616.8581 Q681.6563,616.5769 681.0313,616.5769 Q679.6875,616.5769 679,617.655 Q678.3125,618.7175 678.3125,620.8113 Q678.3125,622.905 679,623.9831 Q679.6875,625.0456 681.0313,625.0456 Q681.6563,625.0456 682.25,624.78 Q682.8438,624.4988 683.4688,623.9206 L683.4688,626.6394 Z " fill="#000000"/><a href="https://bo4e.github.io/BO4E-python/latest/api/bo4e.enum.html#bo4e.enum.typ.Typ" target="_top" title="https://bo4e.github.io/BO4E-python/latest/api/bo4e.enum.html#bo4e.enum.typ.Typ" xlink:actuate="onRequest" xlink:href="https://bo4e.github.io/BO4E-python/latest/api/bo4e.enum.html#bo4e.enum.typ.Typ" xlink:show="new" xlink:title="https://bo4e.github.io/BO4E-python/latest/api/bo4e.enum.html#bo4e.enum.typ.Typ" xlink:type="simple"><text fill="#0000FF" font-family="sans-serif" font-size="14" lengthAdjust="spacing" text-decoration="underline" textLength="25" x="719" y="620.0251">Typ</text></a><text fill="#000000" font-family="sans-serif" font-size="10" lengthAdjust="spacing" textLength="74" x="694.5" y="632.6091">bo4e.enum.typ</text></g><!--class Tarif--><g id="elem_Tarif"><rect codeLine="3" fill="#F1F1F1" height="111.125" id="Tarif" rx="2.5" ry="2.5" style="stroke:#181818;stroke-width:0.5;" width="360" x="7" y="306.44"/><ellipse cx="151.75" cy="325.4088" fill="#ADD1B2" rx="11" ry="11" style="stroke:#181818;stroke-width:1.0;"/><path d="M154.7188,331.0494 Q154.1406,331.3463 153.5,331.4869 Q152.8594,331.6431 152.1563,331.6431 Q149.6563,331.6431 148.3281,330.0025 Q147.0156,328.3463 147.0156,325.2213 Q147.0156,322.0963 148.3281,320.44 Q149.6563,318.7838 152.1563,318.7838 Q152.8594,318.7838 153.5,318.94 Q154.1563,319.0963 154.7188,319.3931 L154.7188,322.1119 Q154.0938,321.5338 153.5,321.2681 Q152.9063,320.9869 152.2813,320.9869 Q150.9375,320.9869 150.25,322.065 Q149.5625,323.1275 149.5625,325.2213 Q149.5625,327.315 150.25,328.3931 Q150.9375,329.4556 152.2813,329.4556 Q152.9063,329.4556 153.5,329.19 Q154.0938,328.9088 154.7188,328.3306 L154.7188,331.0494 Z " fill="#000000"/><a href="https://bo4e.github.io/BO4E-python/latest/api/bo4e.bo.html#bo4e.bo.tarif.Tarif" target="_top" title="https://bo4e.github.io/BO4E-python/latest/api/bo4e.bo.html#bo4e.bo.tarif.Tarif" xlink:actuate="onRequest" xlink:href="https://bo4e.github.io/BO4E-python/latest/api/bo4e.bo.html#bo4e.bo.tarif.Tarif" xlink:show="new" xlink:title="https://bo4e.github.io/BO4E-python/latest/api/bo4e.bo.html#bo4e.bo.tarif.Tarif" xlink:type="simple"><text fill="#0000FF" font-family="sans-serif" font-size="14" lengthAdjust="spacing" text-decoration="underline" textLength="29" x="188.75" y="324.4351">Tarif</text></a><text fill="#000000" font-family="sans-serif" font-size="10" lengthAdjust="spacing" textLength="62" x="172.25" y="337.0191">bo4e.bo.tarif</text><line style="stroke:#181818;stroke-width:0.5;" x1="8" x2="366" y1="344.3775" y2="344.3775"/><text fill="#000000" font-family="sans-serif" font-size="14" lengthAdjust="spacing" textLength="348" x="13" y="361.3726">_version : str [0..1] = 202401.2.2.dev8+gd579cba</text><text fill="#000000" font-family="sans-serif" font-size="14" lengthAdjust="spacing" textLength="311" x="13" y="377.6695">zusatzAttribute : ZusatzAttribut [0..*] = None</text><text fill="#000000" font-family="sans-serif" font-size="14" lengthAdjust="spacing" textLength="147" x="13" y="393.9664">_id : str [0..1] = None</text><text fill="#000000" font-family="sans-serif" font-size="14" lengthAdjust="spacing" textLength="288" x="13" y="410.2632">preisstand : AwareDatetime [0..1] = None</text></g><!--link Tarif to Tarifinfo--><g id="link_Tarif_Tarifinfo"><path codeLine="24" d="M265.54,305.95 C303.94,279.66 351.69,249.11 397,226 C486.46,180.37 579.8865,147.0992 645.0065,125.8692 " fill="none" id="Tarif-to-Tarifinfo" style="stroke:#181818;stroke-width:1.0;"/><polygon fill="none" points="662.12,120.29,643.1467,120.1647,646.8662,131.5737,662.12,120.29" style="stroke:#181818;stroke-width:1.0;"/></g><!--link Tarif to Typ--><g id="link_Tarif_Typ"><path codeLine="25" d="M263.91,418.04 C302.52,444.99 350.92,476.46 397,500 C487.7,546.33 589.0254,581.2114 653.7554,601.6214 " fill="none" id="Tarif-to-Typ" style="stroke:#181818;stroke-width:1.0;"/><polygon fill="#181818" points="665.2,605.23,660.6806,599.6109,653.7554,601.6214,658.2749,607.2406,665.2,605.23" style="stroke:#181818;stroke-width:1.0;"/><text fill="#000000" font-family="sans-serif" font-size="13" lengthAdjust="spacing" textLength="27" x="460" y="496.0669">_typ</text><text fill="#000000" font-family="sans-serif" font-size="13" lengthAdjust="spacing" textLength="24" x="633.6497" y="616.3485">0..1</text></g><!--link Tarif to Tarifberechnungsparameter--><g id="link_Tarif_Tarifberechnungsparameter"><path codeLine="26" d="M367.26,337.29 C446.17,326.41 524.5425,315.599 593.6625,306.069 " fill="none" id="Tarif-to-Tarifberechnungsparameter" style="stroke:#181818;stroke-width:1.0;"/><polygon fill="#181818" points="605.55,304.43,599.0599,301.287,593.6625,306.069,600.1526,309.212,605.55,304.43" style="stroke:#181818;stroke-width:1.0;"/><text fill="#000000" font-family="sans-serif" font-size="13" lengthAdjust="spacing" textLength="151" x="398" y="309.0669">berechnungsparameter</text><text fill="#000000" font-family="sans-serif" font-size="13" lengthAdjust="spacing" textLength="24" x="573.9359" y="317.8983">0..1</text></g><!--link Tarif to TarifpreispositionProOrt--><g id="link_Tarif_TarifpreispositionProOrt"><path codeLine="27" d="M367.26,362 C452.32,362 538.56,362 609.31,362 " fill="none" id="Tarif-to-TarifpreispositionProOrt" style="stroke:#181818;stroke-width:1.0;"/><polygon fill="#181818" points="621.31,362,615.31,358,609.31,362,615.31,366,621.31,362" style="stroke:#181818;stroke-width:1.0;"/><text fill="#000000" font-family="sans-serif" font-size="13" lengthAdjust="spacing" textLength="64" x="441.5" y="358.0669">tarifpreise</text><text fill="#000000" font-family="sans-serif" font-size="13" lengthAdjust="spacing" textLength="23" x="590.6677" y="374.599">0..*</text></g><!--link Tarif to AufAbschlagRegional--><g id="link_Tarif_AufAbschlagRegional"><path codeLine="28" d="M336.81,417.99 C356.91,424.79 377.37,431.33 397,437 C474.34,459.35 552.1281,476.3214 616.8881,489.1314 " fill="none" id="Tarif-to-AufAbschlagRegional" style="stroke:#181818;stroke-width:1.0;"/><polygon fill="#181818" points="628.66,491.46,623.5502,486.3717,616.8881,489.1314,621.9979,494.2197,628.66,491.46" style="stroke:#181818;stroke-width:1.0;"/><text fill="#000000" font-family="sans-serif" font-size="13" lengthAdjust="spacing" textLength="120" x="413.5" y="433.0669">tarifAufAbschlaege</text><text fill="#000000" font-family="sans-serif" font-size="13" lengthAdjust="spacing" textLength="23" x="597.9012" y="502.8399">0..*</text></g><!--link Tarif to Preisgarantie--><g id="link_Tarif_Preisgarantie"><path codeLine="29" d="M367.26,386.71 C462.37,399.83 562.0825,413.5707 633.2925,423.3907 " fill="none" id="Tarif-to-Preisgarantie" style="stroke:#181818;stroke-width:1.0;"/><polygon fill="#181818" points="645.18,425.03,639.7827,420.2478,633.2925,423.3907,638.6898,428.1728,645.18,425.03" style="stroke:#181818;stroke-width:1.0;"/><text fill="#000000" font-family="sans-serif" font-size="13" lengthAdjust="spacing" textLength="84" x="431.5" y="387.0669">preisgarantie</text><text fill="#000000" font-family="sans-serif" font-size="13" lengthAdjust="spacing" textLength="24" x="613.5812" y="436.8829">0..1</text></g><!--link Tarif to Tarifeinschraenkung--><g id="link_Tarif_Tarifeinschraenkung"><path codeLine="30" d="M339.42,306.01 C358.69,299.58 378.23,293.41 397,288 C474.54,265.65 552.5182,248.3892 617.2782,235.2892 " fill="none" id="Tarif-to-Tarifeinschraenkung" style="stroke:#181818;stroke-width:1.0;"/><polygon fill="#181818" points="629.04,232.91,622.366,230.179,617.2782,235.2892,623.9522,238.0202,629.04,232.91" style="stroke:#181818;stroke-width:1.0;"/><text fill="#000000" font-family="sans-serif" font-size="13" lengthAdjust="spacing" textLength="126" x="410.5" y="247.0669">tarifeinschraenkung</text><text fill="#000000" font-family="sans-serif" font-size="13" lengthAdjust="spacing" textLength="24" x="597.589" y="246.7745">0..1</text></g><!--SRC=[jLLTRvim57qkl-8gl6KA-LZQPcYhbAvzNQkfJykYoi05h86DRDCgsVRVPmC98NMoXwIAWhWVFjVdc7kTOQn0SH0qIHL4L62eA6UE4sP4IkWj5gbIXVI7mu1FqKkeIil0etnu-p2z7nGhbN8sp8X2gOQae7LMmBrKvPcxCHGHDFQUp1EgvtBvatsMT8t-U7JJoUe1aNKE_7OkdbzGIBqTy44g0OkHvusNy0KceybqDFOc-XVXo-n34brUVme3uboiIqdKUgwKe46fK2_yqV5K67s3yOqpr1Lej0zU1mg1L4f5c8dFNud0EyrIqHptClyw3YCvoeA4U9fUq1ZBPQL2Ou5xUtLtFPyPFSv-A9J5l3uOymRRjyC7PABj8HbBAt2g027FTnJGrgu4sWJtVZIVNNqzLODD7NThLPoGCXccWY3xLRAargFh0ullhKO705kvklvtuHAWRk6KQNXz84AVYq9HCx95u63a23jRUilH5dqNfbM75bnICx0AmRbGDT5Eu57m1w7WKE08JGj-oz82TMwILOb4IyWKHUznruAEPUVGMLvjlBFetBibPKm2_N5d916OQ558vitBUDxulZS-iFZi-xS0LYmi06UOGCZAtH5apDqPP6nmet7uyVBaGRmjvRQcMXNUqwe0_N-hnYQZ_lfMXRbocjjqCFXpixaesZc-YUfm7thcjkgrDAewFZnhm8DvHl_3CyC7Qu_lW_NtmMnzwKFRQtWKmlOnDQlR42Pub5ItYtpeDCd_vTYx59hoUrFTIMc4a6EkLPAEJFahDC0nnIoI_m00]--></g></svg>