<?xml version="1.0" encoding="us-ascii" standalone="no"?><svg xmlns="http://www.w3.org/2000/svg" xmlns:xlink="http://www.w3.org/1999/xlink" contentStyleType="text/css" height="906px" preserveAspectRatio="none" style="width:784px;height:906px;background:#FFFFFF;" version="1.1" viewBox="0 0 784 906" width="784px" zoomAndPan="magnify"><defs/><g><!--cluster bo4e--><g id="cluster_bo4e"><path d="M520.5,6 L561.5,6 A3.75,3.75 0 0 1 564,8.5 L571,28.2969 L774.5,28.2969 A2.5,2.5 0 0 1 777,30.7969 L777,896.5 A2.5,2.5 0 0 1 774.5,899 L520.5,899 A2.5,2.5 0 0 1 518,896.5 L518,8.5 A2.5,2.5 0 0 1 520.5,6 " fill="none" style="stroke:#000000;stroke-width:1.5;"/><line style="stroke:#000000;stroke-width:1.5;" x1="518" x2="571" y1="28.2969" y2="28.2969"/><text fill="#000000" font-family="sans-serif" font-size="14" font-weight="bold" lengthAdjust="spacing" textLength="40" x="522" y="20.9951">bo4e</text></g><!--cluster bo--><g id="cluster_bo"><path d="M556,49 L622,49 A3.75,3.75 0 0 1 624.5,51.5 L631.5,71.2969 L739,71.2969 A2.5,2.5 0 0 1 741.5,73.7969 L741.5,208.5 A2.5,2.5 0 0 1 739,211 L556,211 A2.5,2.5 0 0 1 553.5,208.5 L553.5,51.5 A2.5,2.5 0 0 1 556,49 " fill="#B6D7A8" style="stroke:#000000;stroke-width:1.5;"/><line style="stroke:#000000;stroke-width:1.5;" x1="553.5" x2="631.5" y1="71.2969" y2="71.2969"/><a href="https://bo4e.github.io/BO4E-python/latest/api/bo4e.bo.html" target="_top" title="https://bo4e.github.io/BO4E-python/latest/api/bo4e.bo.html" xlink:actuate="onRequest" xlink:href="https://bo4e.github.io/BO4E-python/latest/api/bo4e.bo.html" xlink:show="new" xlink:title="https://bo4e.github.io/BO4E-python/latest/api/bo4e.bo.html" xlink:type="simple"><text fill="#0000FF" font-family="sans-serif" font-size="14" font-weight="bold" lengthAdjust="spacing" text-decoration="underline" textLength="65" x="557.5" y="63.9951">bo4e.bo</text></a></g><!--cluster com--><g id="cluster_com"><path d="M544.5,235 L623.5,235 A3.75,3.75 0 0 1 626,237.5 L633,257.2969 L750.5,257.2969 A2.5,2.5 0 0 1 753,259.7969 L753,467.5 A2.5,2.5 0 0 1 750.5,470 L544.5,470 A2.5,2.5 0 0 1 542,467.5 L542,237.5 A2.5,2.5 0 0 1 544.5,235 " fill="#E0A86C" style="stroke:#000000;stroke-width:1.5;"/><line style="stroke:#000000;stroke-width:1.5;" x1="542" x2="633" y1="257.2969" y2="257.2969"/><a href="https://bo4e.github.io/BO4E-python/latest/api/bo4e.com.html" target="_top" title="https://bo4e.github.io/BO4E-python/latest/api/bo4e.com.html" xlink:actuate="onRequest" xlink:href="https://bo4e.github.io/BO4E-python/latest/api/bo4e.com.html" xlink:show="new" xlink:title="https://bo4e.github.io/BO4E-python/latest/api/bo4e.com.html" xlink:type="simple"><text fill="#0000FF" font-family="sans-serif" font-size="14" font-weight="bold" lengthAdjust="spacing" text-decoration="underline" textLength="78" x="546" y="249.9951">bo4e.com</text></a></g><!--cluster enum--><g id="cluster_enum"><path d="M555,494 L645,494 A3.75,3.75 0 0 1 647.5,496.5 L654.5,516.2969 L740,516.2969 A2.5,2.5 0 0 1 742.5,518.7969 L742.5,872.5 A2.5,2.5 0 0 1 740,875 L555,875 A2.5,2.5 0 0 1 552.5,872.5 L552.5,496.5 A2.5,2.5 0 0 1 555,494 " fill="#D1C358" style="stroke:#000000;stroke-width:1.5;"/><line style="stroke:#000000;stroke-width:1.5;" x1="552.5" x2="654.5" y1="516.2969" y2="516.2969"/><a href="https://bo4e.github.io/BO4E-python/latest/api/bo4e.enum.html" target="_top" title="https://bo4e.github.io/BO4E-python/latest/api/bo4e.enum.html" xlink:actuate="onRequest" xlink:href="https://bo4e.github.io/BO4E-python/latest/api/bo4e.enum.html" xlink:show="new" xlink:title="https://bo4e.github.io/BO4E-python/latest/api/bo4e.enum.html" xlink:type="simple"><text fill="#0000FF" font-family="sans-serif" font-size="14" font-weight="bold" lengthAdjust="spacing" text-decoration="underline" textLength="89" x="556.5" y="508.9951">bo4e.enum</text></a></g><!--class Geschaeftsobjekt--><g id="elem_Geschaeftsobjekt"><rect codeLine="12" fill="#F1F1F1" height="37.9375" id="Geschaeftsobjekt" rx="2.5" ry="2.5" style="stroke:#181818;stroke-width:0.5;" width="156" x="569.5" y="84.03"/><ellipse cx="584.5" cy="102.9987" fill="#ADD1B2" rx="11" ry="11" style="stroke:#181818;stroke-width:1.0;"/><path d="M587.4688,108.6394 Q586.8906,108.9362 586.25,109.0769 Q585.6094,109.2331 584.9063,109.2331 Q582.4063,109.2331 581.0781,107.5925 Q579.7656,105.9362 579.7656,102.8112 Q579.7656,99.6862 581.0781,98.03 Q582.4063,96.3737 584.9063,96.3737 Q585.6094,96.3737 586.25,96.53 Q586.9063,96.6862 587.4688,96.9831 L587.4688,99.7019 Q586.8438,99.1237 586.25,98.8581 Q585.6563,98.5769 585.0313,98.5769 Q583.6875,98.5769 583,99.655 Q582.3125,100.7175 582.3125,102.8112 Q582.3125,104.905 583,105.9831 Q583.6875,107.0456 585.0313,107.0456 Q585.6563,107.0456 586.25,106.78 Q586.8438,106.4987 587.4688,105.9206 L587.4688,108.6394 Z " fill="#000000"/><a href="https://bo4e.github.io/BO4E-python/latest/api/bo4e.bo.html#bo4e.bo.geschaeftsobjekt.Geschaeftsobjekt" target="_top" title="https://bo4e.github.io/BO4E-python/latest/api/bo4e.bo.html#bo4e.bo.geschaeftsobjekt.Geschaeftsobjekt" xlink:actuate="onRequest" xlink:href="https://bo4e.github.io/BO4E-python/latest/api/bo4e.bo.html#bo4e.bo.geschaeftsobjekt.Geschaeftsobjekt" xlink:show="new" xlink:title="https://bo4e.github.io/BO4E-python/latest/api/bo4e.bo.html#bo4e.bo.geschaeftsobjekt.Geschaeftsobjekt" xlink:type="simple"><text fill="#0000FF" font-family="sans-serif" font-size="14" lengthAdjust="spacing" text-decoration="underline" textLength="122" x="599.5" y="102.0251">Geschaeftsobjekt</text></a><text fill="#000000" font-family="sans-serif" font-size="10" lengthAdjust="spacing" textLength="124" x="598.5" y="114.6091">bo4e.bo.geschaeftsobjekt</text></g><!--class Marktteilnehmer--><g id="elem_Marktteilnehmer"><rect codeLine="13" fill="#F1F1F1" height="37.9375" id="Marktteilnehmer" rx="2.5" ry="2.5" style="stroke:#181818;stroke-width:0.5;" width="155" x="570" y="157.03"/><ellipse cx="585" cy="175.9987" fill="#ADD1B2" rx="11" ry="11" style="stroke:#181818;stroke-width:1.0;"/><path d="M587.9688,181.6394 Q587.3906,181.9362 586.75,182.0769 Q586.1094,182.2331 585.4063,182.2331 Q582.9063,182.2331 581.5781,180.5925 Q580.2656,178.9362 580.2656,175.8112 Q580.2656,172.6862 581.5781,171.03 Q582.9063,169.3737 585.4063,169.3737 Q586.1094,169.3737 586.75,169.53 Q587.4063,169.6862 587.9688,169.9831 L587.9688,172.7019 Q587.3438,172.1237 586.75,171.8581 Q586.1563,171.5769 585.5313,171.5769 Q584.1875,171.5769 583.5,172.655 Q582.8125,173.7175 582.8125,175.8112 Q582.8125,177.905 583.5,178.9831 Q584.1875,180.0456 585.5313,180.0456 Q586.1563,180.0456 586.75,179.78 Q587.3438,179.4987 587.9688,178.9206 L587.9688,181.6394 Z " fill="#000000"/><a href="https://bo4e.github.io/BO4E-python/latest/api/bo4e.bo.html#bo4e.bo.marktteilnehmer.Marktteilnehmer" target="_top" title="https://bo4e.github.io/BO4E-python/latest/api/bo4e.bo.html#bo4e.bo.marktteilnehmer.Marktteilnehmer" xlink:actuate="onRequest" xlink:href="https://bo4e.github.io/BO4E-python/latest/api/bo4e.bo.html#bo4e.bo.marktteilnehmer.Marktteilnehmer" xlink:show="new" xlink:title="https://bo4e.github.io/BO4E-python/latest/api/bo4e.bo.html#bo4e.bo.marktteilnehmer.Marktteilnehmer" xlink:type="simple"><text fill="#0000FF" font-family="sans-serif" font-size="14" lengthAdjust="spacing" text-decoration="underline" textLength="112" x="604.5" y="175.0251">Marktteilnehmer</text></a><text fill="#000000" font-family="sans-serif" font-size="10" lengthAdjust="spacing" textLength="123" x="599" y="187.6091">bo4e.bo.marktteilnehmer</text></g><!--class Energiemix--><g id="elem_Energiemix"><rect codeLine="16" fill="#F1F1F1" height="37.9375" id="Energiemix" rx="2.5" ry="2.5" style="stroke:#181818;stroke-width:0.5;" width="137" x="579" y="270.03"/><ellipse cx="594" cy="288.9988" fill="#ADD1B2" rx="11" ry="11" style="stroke:#181818;stroke-width:1.0;"/><path d="M596.9688,294.6394 Q596.3906,294.9363 595.75,295.0769 Q595.1094,295.2331 594.4063,295.2331 Q591.9063,295.2331 590.5781,293.5925 Q589.2656,291.9363 589.2656,288.8113 Q589.2656,285.6863 590.5781,284.03 Q591.9063,282.3738 594.4063,282.3738 Q595.1094,282.3738 595.75,282.53 Q596.4063,282.6863 596.9688,282.9831 L596.9688,285.7019 Q596.3438,285.1238 595.75,284.8581 Q595.1563,284.5769 594.5313,284.5769 Q593.1875,284.5769 592.5,285.655 Q591.8125,286.7175 591.8125,288.8113 Q591.8125,290.905 592.5,291.9831 Q593.1875,293.0456 594.5313,293.0456 Q595.1563,293.0456 595.75,292.78 Q596.3438,292.4988 596.9688,291.9206 L596.9688,294.6394 Z " fill="#000000"/><a href="https://bo4e.github.io/BO4E-python/latest/api/bo4e.com.html#bo4e.com.energiemix.Energiemix" target="_top" title="https://bo4e.github.io/BO4E-python/latest/api/bo4e.com.html#bo4e.com.energiemix.Energiemix" xlink:actuate="onRequest" xlink:href="https://bo4e.github.io/BO4E-python/latest/api/bo4e.com.html#bo4e.com.energiemix.Energiemix" xlink:show="new" xlink:title="https://bo4e.github.io/BO4E-python/latest/api/bo4e.com.html#bo4e.com.energiemix.Energiemix" xlink:type="simple"><text fill="#0000FF" font-family="sans-serif" font-size="14" lengthAdjust="spacing" text-decoration="underline" textLength="76" x="622.5" y="288.0251">Energiemix</text></a><text fill="#000000" font-family="sans-serif" font-size="10" lengthAdjust="spacing" textLength="105" x="608" y="300.6091">bo4e.com.energiemix</text></g><!--class Vertragskonditionen--><g id="elem_Vertragskonditionen"><rect codeLine="17" fill="#F1F1F1" height="37.9375" id="Vertragskonditionen" rx="2.5" ry="2.5" style="stroke:#181818;stroke-width:0.5;" width="179" x="558" y="343.03"/><ellipse cx="573" cy="361.9988" fill="#ADD1B2" rx="11" ry="11" style="stroke:#181818;stroke-width:1.0;"/><path d="M575.9688,367.6394 Q575.3906,367.9363 574.75,368.0769 Q574.1094,368.2331 573.4063,368.2331 Q570.9063,368.2331 569.5781,366.5925 Q568.2656,364.9363 568.2656,361.8113 Q568.2656,358.6863 569.5781,357.03 Q570.9063,355.3738 573.4063,355.3738 Q574.1094,355.3738 574.75,355.53 Q575.4063,355.6863 575.9688,355.9831 L575.9688,358.7019 Q575.3438,358.1238 574.75,357.8581 Q574.1563,357.5769 573.5313,357.5769 Q572.1875,357.5769 571.5,358.655 Q570.8125,359.7175 570.8125,361.8113 Q570.8125,363.905 571.5,364.9831 Q572.1875,366.0456 573.5313,366.0456 Q574.1563,366.0456 574.75,365.78 Q575.3438,365.4988 575.9688,364.9206 L575.9688,367.6394 Z " fill="#000000"/><a href="https://bo4e.github.io/BO4E-python/latest/api/bo4e.com.html#bo4e.com.vertragskonditionen.Vertragskonditionen" target="_top" title="https://bo4e.github.io/BO4E-python/latest/api/bo4e.com.html#bo4e.com.vertragskonditionen.Vertragskonditionen" xlink:actuate="onRequest" xlink:href="https://bo4e.github.io/BO4E-python/latest/api/bo4e.com.html#bo4e.com.vertragskonditionen.Vertragskonditionen" xlink:show="new" xlink:title="https://bo4e.github.io/BO4E-python/latest/api/bo4e.com.html#bo4e.com.vertragskonditionen.Vertragskonditionen" xlink:type="simple"><text fill="#0000FF" font-family="sans-serif" font-size="14" lengthAdjust="spacing" text-decoration="underline" textLength="140" x="590.5" y="361.0251">Vertragskonditionen</text></a><text fill="#000000" font-family="sans-serif" font-size="10" lengthAdjust="spacing" textLength="147" x="587" y="373.6091">bo4e.com.vertragskonditionen</text></g><!--class Zeitraum--><g id="elem_Zeitraum"><rect codeLine="18" fill="#F1F1F1" height="37.9375" id="Zeitraum" rx="2.5" ry="2.5" style="stroke:#181818;stroke-width:0.5;" width="126" x="584.5" y="416.03"/><ellipse cx="599.5" cy="434.9988" fill="#ADD1B2" rx="11" ry="11" style="stroke:#181818;stroke-width:1.0;"/><path d="M602.4688,440.6394 Q601.8906,440.9363 601.25,441.0769 Q600.6094,441.2331 599.9063,441.2331 Q597.4063,441.2331 596.0781,439.5925 Q594.7656,437.9363 594.7656,434.8113 Q594.7656,431.6863 596.0781,430.03 Q597.4063,428.3738 599.9063,428.3738 Q600.6094,428.3738 601.25,428.53 Q601.9063,428.6863 602.4688,428.9831 L602.4688,431.7019 Q601.8438,431.1238 601.25,430.8581 Q600.6563,430.5769 600.0313,430.5769 Q598.6875,430.5769 598,431.655 Q597.3125,432.7175 597.3125,434.8113 Q597.3125,436.905 598,437.9831 Q598.6875,439.0456 600.0313,439.0456 Q600.6563,439.0456 601.25,438.78 Q601.8438,438.4988 602.4688,437.9206 L602.4688,440.6394 Z " fill="#000000"/><a href="https://bo4e.github.io/BO4E-python/latest/api/bo4e.com.html#bo4e.com.zeitraum.Zeitraum" target="_top" title="https://bo4e.github.io/BO4E-python/latest/api/bo4e.com.html#bo4e.com.zeitraum.Zeitraum" xlink:actuate="onRequest" xlink:href="https://bo4e.github.io/BO4E-python/latest/api/bo4e.com.html#bo4e.com.zeitraum.Zeitraum" xlink:show="new" xlink:title="https://bo4e.github.io/BO4E-python/latest/api/bo4e.com.html#bo4e.com.zeitraum.Zeitraum" xlink:type="simple"><text fill="#0000FF" font-family="sans-serif" font-size="14" lengthAdjust="spacing" text-decoration="underline" textLength="62" x="629.5" y="434.0251">Zeitraum</text></a><text fill="#000000" font-family="sans-serif" font-size="10" lengthAdjust="spacing" textLength="94" x="613.5" y="446.6091">bo4e.com.zeitraum</text></g><!--class Registeranzahl--><g id="elem_Registeranzahl"><rect codeLine="21" fill="#F1F1F1" height="37.9375" id="Registeranzahl" rx="2.5" ry="2.5" style="stroke:#181818;stroke-width:0.5;" width="158" x="568.5" y="529.03"/><ellipse cx="583.5" cy="547.9988" fill="#ADD1B2" rx="11" ry="11" style="stroke:#181818;stroke-width:1.0;"/><path d="M586.4688,553.6394 Q585.8906,553.9363 585.25,554.0769 Q584.6094,554.2331 583.9063,554.2331 Q581.4063,554.2331 580.0781,552.5925 Q578.7656,550.9363 578.7656,547.8113 Q578.7656,544.6863 580.0781,543.03 Q581.4063,541.3738 583.9063,541.3738 Q584.6094,541.3738 585.25,541.53 Q585.9063,541.6863 586.4688,541.9831 L586.4688,544.7019 Q585.8438,544.1238 585.25,543.8581 Q584.6563,543.5769 584.0313,543.5769 Q582.6875,543.5769 582,544.655 Q581.3125,545.7175 581.3125,547.8113 Q581.3125,549.905 582,550.9831 Q582.6875,552.0456 584.0313,552.0456 Q584.6563,552.0456 585.25,551.78 Q585.8438,551.4988 586.4688,550.9206 L586.4688,553.6394 Z " fill="#000000"/><a href="https://bo4e.github.io/BO4E-python/latest/api/bo4e.enum.html#bo4e.enum.registeranzahl.Registeranzahl" target="_top" title="https://bo4e.github.io/BO4E-python/latest/api/bo4e.enum.html#bo4e.enum.registeranzahl.Registeranzahl" xlink:actuate="onRequest" xlink:href="https://bo4e.github.io/BO4E-python/latest/api/bo4e.enum.html#bo4e.enum.registeranzahl.Registeranzahl" xlink:show="new" xlink:title="https://bo4e.github.io/BO4E-python/latest/api/bo4e.enum.html#bo4e.enum.registeranzahl.Registeranzahl" xlink:type="simple"><text fill="#0000FF" font-family="sans-serif" font-size="14" lengthAdjust="spacing" text-decoration="underline" textLength="103" x="609" y="547.0251">Registeranzahl</text></a><text fill="#000000" font-family="sans-serif" font-size="10" lengthAdjust="spacing" textLength="126" x="597.5" y="559.6091">bo4e.enum.registeranzahl</text></g><!--class Sparte--><g id="elem_Sparte"><rect codeLine="22" fill="#F1F1F1" height="37.9375" id="Sparte" rx="2.5" ry="2.5" style="stroke:#181818;stroke-width:0.5;" width="121" x="587" y="602.03"/><ellipse cx="602" cy="620.9988" fill="#ADD1B2" rx="11" ry="11" style="stroke:#181818;stroke-width:1.0;"/><path d="M604.9688,626.6394 Q604.3906,626.9363 603.75,627.0769 Q603.1094,627.2331 602.4063,627.2331 Q599.9063,627.2331 598.5781,625.5925 Q597.2656,623.9363 597.2656,620.8113 Q597.2656,617.6863 598.5781,616.03 Q599.9063,614.3738 602.4063,614.3738 Q603.1094,614.3738 603.75,614.53 Q604.4063,614.6863 604.9688,614.9831 L604.9688,617.7019 Q604.3438,617.1238 603.75,616.8581 Q603.1563,616.5769 602.5313,616.5769 Q601.1875,616.5769 600.5,617.655 Q599.8125,618.7175 599.8125,620.8113 Q599.8125,622.905 600.5,623.9831 Q601.1875,625.0456 602.5313,625.0456 Q603.1563,625.0456 603.75,624.78 Q604.3438,624.4988 604.9688,623.9206 L604.9688,626.6394 Z " fill="#000000"/><a href="https://bo4e.github.io/BO4E-python/latest/api/bo4e.enum.html#bo4e.enum.sparte.Sparte" target="_top" title="https://bo4e.github.io/BO4E-python/latest/api/bo4e.enum.html#bo4e.enum.sparte.Sparte" xlink:actuate="onRequest" xlink:href="https://bo4e.github.io/BO4E-python/latest/api/bo4e.enum.html#bo4e.enum.sparte.Sparte" xlink:show="new" xlink:title="https://bo4e.github.io/BO4E-python/latest/api/bo4e.enum.html#bo4e.enum.sparte.Sparte" xlink:type="simple"><text fill="#0000FF" font-family="sans-serif" font-size="14" lengthAdjust="spacing" text-decoration="underline" textLength="45" x="638" y="620.0251">Sparte</text></a><text fill="#000000" font-family="sans-serif" font-size="10" lengthAdjust="spacing" textLength="89" x="616" y="632.6091">bo4e.enum.sparte</text></g><!--class Tariftyp--><g id="elem_Tariftyp"><rect codeLine="23" fill="#F1F1F1" height="37.9375" id="Tariftyp" rx="2.5" ry="2.5" style="stroke:#181818;stroke-width:0.5;" width="126" x="584.5" y="675.03"/><ellipse cx="599.5" cy="693.9988" fill="#ADD1B2" rx="11" ry="11" style="stroke:#181818;stroke-width:1.0;"/><path d="M602.4688,699.6394 Q601.8906,699.9363 601.25,700.0769 Q600.6094,700.2331 599.9063,700.2331 Q597.4063,700.2331 596.0781,698.5925 Q594.7656,696.9363 594.7656,693.8113 Q594.7656,690.6863 596.0781,689.03 Q597.4063,687.3738 599.9063,687.3738 Q600.6094,687.3738 601.25,687.53 Q601.9063,687.6863 602.4688,687.9831 L602.4688,690.7019 Q601.8438,690.1238 601.25,689.8581 Q600.6563,689.5769 600.0313,689.5769 Q598.6875,689.5769 598,690.655 Q597.3125,691.7175 597.3125,693.8113 Q597.3125,695.905 598,696.9831 Q598.6875,698.0456 600.0313,698.0456 Q600.6563,698.0456 601.25,697.78 Q601.8438,697.4988 602.4688,696.9206 L602.4688,699.6394 Z " fill="#000000"/><a href="https://bo4e.github.io/BO4E-python/latest/api/bo4e.enum.html#bo4e.enum.tariftyp.Tariftyp" target="_top" title="https://bo4e.github.io/BO4E-python/latest/api/bo4e.enum.html#bo4e.enum.tariftyp.Tariftyp" xlink:actuate="onRequest" xlink:href="https://bo4e.github.io/BO4E-python/latest/api/bo4e.enum.html#bo4e.enum.tariftyp.Tariftyp" xlink:show="new" xlink:title="https://bo4e.github.io/BO4E-python/latest/api/bo4e.enum.html#bo4e.enum.tariftyp.Tariftyp" xlink:type="simple"><text fill="#0000FF" font-family="sans-serif" font-size="14" lengthAdjust="spacing" text-decoration="underline" textLength="50" x="635.5" y="693.0251">Tariftyp</text></a><text fill="#000000" font-family="sans-serif" font-size="10" lengthAdjust="spacing" textLength="94" x="613.5" y="705.6091">bo4e.enum.tariftyp</text></g><!--class Kundentyp--><g id="elem_Kundentyp"><rect codeLine="24" fill="#F1F1F1" height="37.9375" id="Kundentyp" rx="2.5" ry="2.5" style="stroke:#181818;stroke-width:0.5;" width="141" x="577" y="748.03"/><ellipse cx="592" cy="766.9988" fill="#ADD1B2" rx="11" ry="11" style="stroke:#181818;stroke-width:1.0;"/><path d="M594.9688,772.6394 Q594.3906,772.9363 593.75,773.0769 Q593.1094,773.2331 592.4063,773.2331 Q589.9063,773.2331 588.5781,771.5925 Q587.2656,769.9363 587.2656,766.8113 Q587.2656,763.6863 588.5781,762.03 Q589.9063,760.3738 592.4063,760.3738 Q593.1094,760.3738 593.75,760.53 Q594.4063,760.6863 594.9688,760.9831 L594.9688,763.7019 Q594.3438,763.1238 593.75,762.8581 Q593.1563,762.5769 592.5313,762.5769 Q591.1875,762.5769 590.5,763.655 Q589.8125,764.7175 589.8125,766.8113 Q589.8125,768.905 590.5,769.9831 Q591.1875,771.0456 592.5313,771.0456 Q593.1563,771.0456 593.75,770.78 Q594.3438,770.4988 594.9688,769.9206 L594.9688,772.6394 Z " fill="#000000"/><a href="https://bo4e.github.io/BO4E-python/latest/api/bo4e.enum.html#bo4e.enum.kundentyp.Kundentyp" target="_top" title="https://bo4e.github.io/BO4E-python/latest/api/bo4e.enum.html#bo4e.enum.kundentyp.Kundentyp" xlink:actuate="onRequest" xlink:href="https://bo4e.github.io/BO4E-python/latest/api/bo4e.enum.html#bo4e.enum.kundentyp.Kundentyp" xlink:show="new" xlink:title="https://bo4e.github.io/BO4E-python/latest/api/bo4e.enum.html#bo4e.enum.kundentyp.Kundentyp" xlink:type="simple"><text fill="#0000FF" font-family="sans-serif" font-size="14" lengthAdjust="spacing" text-decoration="underline" textLength="75" x="623" y="766.0251">Kundentyp</text></a><text fill="#000000" font-family="sans-serif" font-size="10" lengthAdjust="spacing" textLength="109" x="606" y="778.6091">bo4e.enum.kundentyp</text></g><!--class Tarifmerkmal--><g id="elem_Tarifmerkmal"><rect codeLine="25" fill="#F1F1F1" height="37.9375" id="Tarifmerkmal" rx="2.5" ry="2.5" style="stroke:#181818;stroke-width:0.5;" width="153" x="571" y="821.03"/><ellipse cx="586" cy="839.9988" fill="#ADD1B2" rx="11" ry="11" style="stroke:#181818;stroke-width:1.0;"/><path d="M588.9688,845.6394 Q588.3906,845.9363 587.75,846.0769 Q587.1094,846.2331 586.4063,846.2331 Q583.9063,846.2331 582.5781,844.5925 Q581.2656,842.9363 581.2656,839.8113 Q581.2656,836.6863 582.5781,835.03 Q583.9063,833.3738 586.4063,833.3738 Q587.1094,833.3738 587.75,833.53 Q588.4063,833.6863 588.9688,833.9831 L588.9688,836.7019 Q588.3438,836.1238 587.75,835.8581 Q587.1563,835.5769 586.5313,835.5769 Q585.1875,835.5769 584.5,836.655 Q583.8125,837.7175 583.8125,839.8113 Q583.8125,841.905 584.5,842.9831 Q585.1875,844.0456 586.5313,844.0456 Q587.1563,844.0456 587.75,843.78 Q588.3438,843.4988 588.9688,842.9206 L588.9688,845.6394 Z " fill="#000000"/><a href="https://bo4e.github.io/BO4E-python/latest/api/bo4e.enum.html#bo4e.enum.tarifmerkmal.Tarifmerkmal" target="_top" title="https://bo4e.github.io/BO4E-python/latest/api/bo4e.enum.html#bo4e.enum.tarifmerkmal.Tarifmerkmal" xlink:actuate="onRequest" xlink:href="https://bo4e.github.io/BO4E-python/latest/api/bo4e.enum.html#bo4e.enum.tarifmerkmal.Tarifmerkmal" xlink:show="new" xlink:title="https://bo4e.github.io/BO4E-python/latest/api/bo4e.enum.html#bo4e.enum.tarifmerkmal.Tarifmerkmal" xlink:type="simple"><text fill="#0000FF" font-family="sans-serif" font-size="14" lengthAdjust="spacing" text-decoration="underline" textLength="88" x="616.5" y="839.0251">Tarifmerkmal</text></a><text fill="#000000" font-family="sans-serif" font-size="10" lengthAdjust="spacing" textLength="121" x="600" y="851.6091">bo4e.enum.tarifmerkmal</text></g><!--class Tarifinfo--><g id="elem_Tarifinfo"><rect codeLine="3" fill="#F1F1F1" height="127.4219" id="Tarifinfo" rx="2.5" ry="2.5" style="stroke:#181818;stroke-width:0.5;" width="336" x="7" y="447.29"/><ellipse cx="130.75" cy="466.2588" fill="#ADD1B2" rx="11" ry="11" style="stroke:#181818;stroke-width:1.0;"/><path d="M133.7188,471.8994 Q133.1406,472.1963 132.5,472.3369 Q131.8594,472.4931 131.1563,472.4931 Q128.6563,472.4931 127.3281,470.8525 Q126.0156,469.1963 126.0156,466.0713 Q126.0156,462.9463 127.3281,461.29 Q128.6563,459.6338 131.1563,459.6338 Q131.8594,459.6338 132.5,459.79 Q133.1563,459.9463 133.7188,460.2431 L133.7188,462.9619 Q133.0938,462.3838 132.5,462.1181 Q131.9063,461.8369 131.2813,461.8369 Q129.9375,461.8369 129.25,462.915 Q128.5625,463.9775 128.5625,466.0713 Q128.5625,468.165 129.25,469.2431 Q129.9375,470.3056 131.2813,470.3056 Q131.9063,470.3056 132.5,470.04 Q133.0938,469.7588 133.7188,469.1806 L133.7188,471.8994 Z " fill="#000000"/><a href="https://bo4e.github.io/BO4E-python/latest/api/bo4e.bo.html#bo4e.bo.tarifinfo.Tarifinfo" target="_top" title="https://bo4e.github.io/BO4E-python/latest/api/bo4e.bo.html#bo4e.bo.tarifinfo.Tarifinfo" xlink:actuate="onRequest" xlink:href="https://bo4e.github.io/BO4E-python/latest/api/bo4e.bo.html#bo4e.bo.tarifinfo.Tarifinfo" xlink:show="new" xlink:title="https://bo4e.github.io/BO4E-python/latest/api/bo4e.bo.html#bo4e.bo.tarifinfo.Tarifinfo" xlink:type="simple"><text fill="#0000FF" font-family="sans-serif" font-size="14" lengthAdjust="spacing" text-decoration="underline" textLength="54" x="164.25" y="465.2851">Tarifinfo</text></a><text fill="#000000" font-family="sans-serif" font-size="10" lengthAdjust="spacing" textLength="80" x="151.25" y="477.8691">bo4e.bo.tarifinfo</text><line style="stroke:#181818;stroke-width:0.5;" x1="8" x2="342" y1="485.2275" y2="485.2275"/><text fill="#000000" font-family="sans-serif" font-size="14" lengthAdjust="spacing" textLength="219" x="13" y="502.2226">bezeichnung : str [0..1] = None</text><text fill="#000000" font-family="sans-serif" font-size="14" lengthAdjust="spacing" textLength="224" x="13" y="518.5195">anbietername : str [0..1] = None</text><text fill="#000000" font-family="sans-serif" font-size="14" lengthAdjust="spacing" textLength="182" x="13" y="534.8164">website : str [0..1] = None</text><text fill="#000000" font-family="sans-serif" font-size="14" lengthAdjust="spacing" textLength="208" x="13" y="551.1132">bemerkung : str [0..1] = None</text><text fill="#000000" font-family="sans-serif" font-size="14" lengthAdjust="spacing" textLength="324" x="13" y="567.4101">anwendungVon : AwareDatetime [0..1] = None</text></g><!--link Tarifinfo to Geschaeftsobjekt--><g id="link_Tarifinfo_Geschaeftsobjekt"><path codeLine="28" d="M205.71,447.01 C238.89,381.1 297.93,278.71 373,211 C428.34,161.08 492.0612,137.3508 551.6012,122.4108 " fill="none" id="Tarifinfo-to-Geschaeftsobjekt" style="stroke:#181818;stroke-width:1.0;"/><polygon fill="none" points="569.06,118.03,550.141,116.5912,553.0615,128.2304,569.06,118.03" style="stroke:#181818;stroke-width:1.0;"/></g><!--link Tarifinfo to Sparte--><g id="link_Tarifinfo_Sparte"><path codeLine="29" d="M343.27,554.8 C353.32,557.28 363.29,559.7 373,562 C446.26,579.38 519.3182,594.9122 574.8382,606.3822 " fill="none" id="Tarifinfo-to-Sparte" style="stroke:#181818;stroke-width:1.0;"/><polygon fill="#181818" points="586.59,608.81,581.5234,603.6788,574.8382,606.3822,579.9048,611.5134,586.59,608.81" style="stroke:#181818;stroke-width:1.0;"/><text fill="#000000" font-family="sans-serif" font-size="13" lengthAdjust="spacing" textLength="41" x="417" y="558.0669">sparte</text><text fill="#000000" font-family="sans-serif" font-size="13" lengthAdjust="spacing" textLength="24" x="555.0712" y="620.4002">0..1</text></g><!--link Tarifinfo to Kundentyp--><g id="link_Tarifinfo_Kundentyp"><path codeLine="30" d="M238.46,574.88 C275.12,609.6 323.8,651.21 373,680 C428.94,712.74 448.22,710.39 510,730 C531.53,736.83 543.6211,740.4159 565.1311,746.1959 " fill="none" id="Tarifinfo-to-Kundentyp" style="stroke:#181818;stroke-width:1.0;"/><polygon fill="#181818" points="576.72,749.31,571.9636,743.89,565.1311,746.1959,569.8875,751.6159,576.72,749.31" style="stroke:#181818;stroke-width:1.0;"/><text fill="#000000" font-family="sans-serif" font-size="13" lengthAdjust="spacing" textLength="83" x="396" y="676.0669">kundentypen</text><text fill="#000000" font-family="sans-serif" font-size="13" lengthAdjust="spacing" textLength="23" x="545.8777" y="760.4121">0..*</text></g><!--link Tarifinfo to Registeranzahl--><g id="link_Tarifinfo_Registeranzahl"><path codeLine="31" d="M343.21,524.15 C419.8,530.17 494.9669,536.0792 556.1269,540.8892 " fill="none" id="Tarifinfo-to-Registeranzahl" style="stroke:#181818;stroke-width:1.0;"/><polygon fill="#181818" points="568.09,541.83,562.4221,537.3719,556.1269,540.8892,561.7949,545.3473,568.09,541.83" style="stroke:#181818;stroke-width:1.0;"/><text fill="#000000" font-family="sans-serif" font-size="13" lengthAdjust="spacing" textLength="91" x="392" y="524.0669">registeranzahl</text><text fill="#000000" font-family="sans-serif" font-size="13" lengthAdjust="spacing" textLength="24" x="536.5201" y="554.0126">0..1</text></g><!--link Tarifinfo to Tariftyp--><g id="link_Tarifinfo_Tariftyp"><path codeLine="32" d="M287.17,575.2 C314.71,589.71 344.51,604.28 373,616 C431.78,640.18 448.88,639.57 510,657 C534.2,663.9 549.3228,668.0896 572.6428,674.3696 " fill="none" id="Tarifinfo-to-Tariftyp" style="stroke:#181818;stroke-width:1.0;"/><polygon fill="#181818" points="584.23,677.49,579.4765,672.0674,572.6428,674.3696,577.3963,679.7922,584.23,677.49" style="stroke:#181818;stroke-width:1.0;"/><text fill="#000000" font-family="sans-serif" font-size="13" lengthAdjust="spacing" textLength="45" x="415" y="612.0669">tariftyp</text><text fill="#000000" font-family="sans-serif" font-size="13" lengthAdjust="spacing" textLength="24" x="552.4678" y="688.6347">0..1</text></g><!--link Tarifinfo to Tarifmerkmal--><g id="link_Tarifinfo_Tarifmerkmal"><path codeLine="33" d="M214.57,575.14 C249.83,628.96 306.52,704.45 373,752 C432.03,794.22 500.5442,814.5208 558.8442,826.2108 " fill="none" id="Tarifinfo-to-Tarifmerkmal" style="stroke:#181818;stroke-width:1.0;"/><polygon fill="#181818" points="570.61,828.57,565.5135,823.4685,558.8442,826.2108,563.9407,831.3123,570.61,828.57" style="stroke:#181818;stroke-width:1.0;"/><text fill="#000000" font-family="sans-serif" font-size="13" lengthAdjust="spacing" textLength="90" x="392.5" y="748.0669">tarifmerkmale</text><text fill="#000000" font-family="sans-serif" font-size="13" lengthAdjust="spacing" textLength="23" x="540.014" y="840.305">0..*</text></g><!--link Tarifinfo to Marktteilnehmer--><g id="link_Tarifinfo_Marktteilnehmer"><path codeLine="34" d="M226.46,446.91 C263.52,402.89 316.99,345.35 373,305 C441.9,255.37 521.6796,221.1615 579.3596,199.6015 " fill="none" id="Tarifinfo-to-Marktteilnehmer" style="stroke:#181818;stroke-width:1.0;"/><polygon fill="#181818" points="590.6,195.4,583.5793,193.754,579.3596,199.6015,586.3803,201.2476,590.6,195.4" style="stroke:#181818;stroke-width:1.0;"/><text fill="#000000" font-family="sans-serif" font-size="13" lengthAdjust="spacing" textLength="53" x="411" y="232.0669">anbieter</text><text fill="#000000" font-family="sans-serif" font-size="13" lengthAdjust="spacing" textLength="24" x="547.2219" y="215.0515">0..1</text></g><!--link Tarifinfo to Zeitraum--><g id="link_Tarifinfo_Zeitraum"><path codeLine="35" d="M343.21,483.99 C426.8,470.49 511.0935,456.8735 572.3235,446.9835 " fill="none" id="Tarifinfo-to-Zeitraum" style="stroke:#181818;stroke-width:1.0;"/><polygon fill="#181818" points="584.17,445.07,577.6089,442.0779,572.3235,446.9835,578.8846,449.9756,584.17,445.07" style="stroke:#181818;stroke-width:1.0;"/><text fill="#000000" font-family="sans-serif" font-size="13" lengthAdjust="spacing" textLength="120" x="377.5" y="456.0669">zeitlicheGueltigkeit</text><text fill="#000000" font-family="sans-serif" font-size="13" lengthAdjust="spacing" textLength="24" x="552.4016" y="458.9558">0..1</text></g><!--link Tarifinfo to Energiemix--><g id="link_Tarifinfo_Energiemix"><path codeLine="36" d="M257.23,447.1 C291.61,422.05 332.93,394.47 373,374 C430.45,344.65 448.38,345.12 510,326 C532.16,319.12 544.9693,315.3874 566.9393,309.4974 " fill="none" id="Tarifinfo-to-Energiemix" style="stroke:#181818;stroke-width:1.0;"/><polygon fill="#181818" points="578.53,306.39,571.6989,304.0801,566.9393,309.4974,573.7704,311.8073,578.53,306.39" style="stroke:#181818;stroke-width:1.0;"/><text fill="#000000" font-family="sans-serif" font-size="13" lengthAdjust="spacing" textLength="71" x="402" y="326.0669">energiemix</text><text fill="#000000" font-family="sans-serif" font-size="13" lengthAdjust="spacing" textLength="24" x="547.0656" y="320.7577">0..1</text></g><!--link Tarifinfo to Vertragskonditionen--><g id="link_Tarifinfo_Vertragskonditionen"><path codeLine="37" d="M338.37,446.79 C350.04,442.66 361.67,438.69 373,435 C436.56,414.32 498.1329,397.8989 552.8029,384.3389 " fill="none" id="Tarifinfo-to-Vertragskonditionen" style="stroke:#181818;stroke-width:1.0;"/><polygon fill="#181818" points="564.45,381.45,557.6635,379.0121,552.8029,384.3389,559.5894,386.7768,564.45,381.45" style="stroke:#181818;stroke-width:1.0;"/><text fill="#000000" font-family="sans-serif" font-size="13" lengthAdjust="spacing" textLength="127" x="374" y="395.0669">vertragskonditionen</text><text fill="#000000" font-family="sans-serif" font-size="13" lengthAdjust="spacing" textLength="24" x="525.8955" y="397.654">0..1</text></g><!--SRC=[jLPBRzim33xNlu98RWMg95ZN5SPM85s37ePjm3Rqi2m7sMPiBROKICgofjj_d_oGNt6IGxoJ-SaazOcaICMurA05I1P66W8cqTTCSCVnOweK3ERpIEkrSaSZJrmZ2PcEDXvXOdJ_-NfsjNxMaU2Zc6fKUaJNBDVo18bq4Wyjq5Io9UDBGRvP2KffiVZ1togsGtSoljkp601LbIwyE1SUxf3v4T_m45nGMi9yJCXa0U_Wa-3eN53kCTGeEKsmMsEBdcBwm4yF4vIh8zwto0Fp-qbmep7TKeaFvloQcTsQkdyT9-MWrjJ7yo891LWiidWK28RtDmzlfhTfLFfCLuZAZwWf32MydxZIvB6r0Es5pXostMJKsvRzCa-eN6cDBEOOcIoIZqqCBTn9k-KZOzsoCvazDx6-I6gPDQYUMWDXE1jFRs_UdvjRky-mHCXHXWmJzflCIX4gSJyeJQkCPgNUDxrVABMaeLe97h2q5I4dJ_jhqB7MpRp3ONQ43WTzdyKqAhF59Y7V2m6iq4tLwcVyh6eFnOPyKw-s5DRBBSKm32R-gzTdzv9ogs459OPCcOPC-Ov6CVdIWD24-u7fS95HRzhrpze4N6eaNxCFv9y3x7BLZ5Mkrp-RR23gvtK-GOq0LZZ0oHfK0zI0_dcPGHaWJubzi1AKqW5gfKt6hTJ-Jq5Bftb2upnm1O0wE1R0GgKAOh6GplRQO-Rgwi-TdSfxqxAkQ3GlOP2-4WRLtRCrPjuRUVLq6LpM3QfOkr16q_IlapkrxfuBpOjrsa5PVYxO2ZjDjn7wmh20U7HB4yts27V1lk-EMgRjjEowBgITDJQlHdpSOAnPk3Buf7rjFBfG3S2JTbtZoeMEEUGu4GiG4amybCfHaTX2pVcIOHoeVm00]--></g></svg>