<?xml version="1.0" encoding="us-ascii" standalone="no"?><svg xmlns="http://www.w3.org/2000/svg" xmlns:xlink="http://www.w3.org/1999/xlink" contentStyleType="text/css" height="687px" preserveAspectRatio="none" style="width:887px;height:687px;background:#FFFFFF;" version="1.1" viewBox="0 0 887 687" width="887px" zoomAndPan="magnify"><defs/><g><!--cluster bo4e--><g id="cluster_bo4e"><path d="M577.5,6 L618.5,6 A3.75,3.75 0 0 1 621,8.5 L628,28.2969 L877.5,28.2969 A2.5,2.5 0 0 1 880,30.7969 L880,677.5 A2.5,2.5 0 0 1 877.5,680 L577.5,680 A2.5,2.5 0 0 1 575,677.5 L575,8.5 A2.5,2.5 0 0 1 577.5,6 " fill="none" style="stroke:#000000;stroke-width:1.5;"/><line style="stroke:#000000;stroke-width:1.5;" x1="575" x2="628" y1="28.2969" y2="28.2969"/><text fill="#000000" font-family="sans-serif" font-size="14" font-weight="bold" lengthAdjust="spacing" textLength="40" x="579" y="20.9951">bo4e</text></g><!--cluster bo--><g id="cluster_bo"><path d="M658,49 L724,49 A3.75,3.75 0 0 1 726.5,51.5 L733.5,71.2969 L797,71.2969 A2.5,2.5 0 0 1 799.5,73.7969 L799.5,135.5 A2.5,2.5 0 0 1 797,138 L658,138 A2.5,2.5 0 0 1 655.5,135.5 L655.5,51.5 A2.5,2.5 0 0 1 658,49 " fill="#B6D7A8" style="stroke:#000000;stroke-width:1.5;"/><line style="stroke:#000000;stroke-width:1.5;" x1="655.5" x2="733.5" y1="71.2969" y2="71.2969"/><a href="https://bo4e.github.io/BO4E-python/latest/api/bo4e.bo.html" target="_top" title="https://bo4e.github.io/BO4E-python/latest/api/bo4e.bo.html" xlink:actuate="onRequest" xlink:href="https://bo4e.github.io/BO4E-python/latest/api/bo4e.bo.html" xlink:show="new" xlink:title="https://bo4e.github.io/BO4E-python/latest/api/bo4e.bo.html" xlink:type="simple"><text fill="#0000FF" font-family="sans-serif" font-size="14" font-weight="bold" lengthAdjust="spacing" text-decoration="underline" textLength="65" x="659.5" y="63.9951">bo4e.bo</text></a></g><!--cluster com--><g id="cluster_com"><path d="M601.5,162 L680.5,162 A3.75,3.75 0 0 1 683,164.5 L690,184.2969 L853.5,184.2969 A2.5,2.5 0 0 1 856,186.7969 L856,540.5 A2.5,2.5 0 0 1 853.5,543 L601.5,543 A2.5,2.5 0 0 1 599,540.5 L599,164.5 A2.5,2.5 0 0 1 601.5,162 " fill="#E0A86C" style="stroke:#000000;stroke-width:1.5;"/><line style="stroke:#000000;stroke-width:1.5;" x1="599" x2="690" y1="184.2969" y2="184.2969"/><a href="https://bo4e.github.io/BO4E-python/latest/api/bo4e.com.html" target="_top" title="https://bo4e.github.io/BO4E-python/latest/api/bo4e.com.html" xlink:actuate="onRequest" xlink:href="https://bo4e.github.io/BO4E-python/latest/api/bo4e.com.html" xlink:show="new" xlink:title="https://bo4e.github.io/BO4E-python/latest/api/bo4e.com.html" xlink:type="simple"><text fill="#0000FF" font-family="sans-serif" font-size="14" font-weight="bold" lengthAdjust="spacing" text-decoration="underline" textLength="78" x="603" y="176.9951">bo4e.com</text></a></g><!--cluster enum--><g id="cluster_enum"><path d="M661,567 L751,567 A3.75,3.75 0 0 1 753.5,569.5 L760.5,589.2969 L794,589.2969 A2.5,2.5 0 0 1 796.5,591.7969 L796.5,653.5 A2.5,2.5 0 0 1 794,656 L661,656 A2.5,2.5 0 0 1 658.5,653.5 L658.5,569.5 A2.5,2.5 0 0 1 661,567 " fill="#D1C358" style="stroke:#000000;stroke-width:1.5;"/><line style="stroke:#000000;stroke-width:1.5;" x1="658.5" x2="760.5" y1="589.2969" y2="589.2969"/><a href="https://bo4e.github.io/BO4E-python/latest/api/bo4e.enum.html" target="_top" title="https://bo4e.github.io/BO4E-python/latest/api/bo4e.enum.html" xlink:actuate="onRequest" xlink:href="https://bo4e.github.io/BO4E-python/latest/api/bo4e.enum.html" xlink:show="new" xlink:title="https://bo4e.github.io/BO4E-python/latest/api/bo4e.enum.html" xlink:type="simple"><text fill="#0000FF" font-family="sans-serif" font-size="14" font-weight="bold" lengthAdjust="spacing" text-decoration="underline" textLength="89" x="662.5" y="581.9951">bo4e.enum</text></a></g><!--class Tarifinfo--><g id="elem_Tarifinfo"><rect codeLine="11" fill="#F1F1F1" height="37.9375" id="Tarifinfo" rx="2.5" ry="2.5" style="stroke:#181818;stroke-width:0.5;" width="112" x="671.5" y="84.03"/><ellipse cx="686.5" cy="102.9987" fill="#ADD1B2" rx="11" ry="11" style="stroke:#181818;stroke-width:1.0;"/><path d="M689.4688,108.6394 Q688.8906,108.9362 688.25,109.0769 Q687.6094,109.2331 686.9063,109.2331 Q684.4063,109.2331 683.0781,107.5925 Q681.7656,105.9362 681.7656,102.8112 Q681.7656,99.6862 683.0781,98.03 Q684.4063,96.3737 686.9063,96.3737 Q687.6094,96.3737 688.25,96.53 Q688.9063,96.6862 689.4688,96.9831 L689.4688,99.7019 Q688.8438,99.1237 688.25,98.8581 Q687.6563,98.5769 687.0313,98.5769 Q685.6875,98.5769 685,99.655 Q684.3125,100.7175 684.3125,102.8112 Q684.3125,104.905 685,105.9831 Q685.6875,107.0456 687.0313,107.0456 Q687.6563,107.0456 688.25,106.78 Q688.8438,106.4987 689.4688,105.9206 L689.4688,108.6394 Z " fill="#000000"/><a href="https://bo4e.github.io/BO4E-python/latest/api/bo4e.bo.html#bo4e.bo.tarifinfo.Tarifinfo" target="_top" title="https://bo4e.github.io/BO4E-python/latest/api/bo4e.bo.html#bo4e.bo.tarifinfo.Tarifinfo" xlink:actuate="onRequest" xlink:href="https://bo4e.github.io/BO4E-python/latest/api/bo4e.bo.html#bo4e.bo.tarifinfo.Tarifinfo" xlink:show="new" xlink:title="https://bo4e.github.io/BO4E-python/latest/api/bo4e.bo.html#bo4e.bo.tarifinfo.Tarifinfo" xlink:type="simple"><text fill="#0000FF" font-family="sans-serif" font-size="14" lengthAdjust="spacing" text-decoration="underline" textLength="54" x="713.5" y="102.0251">Tarifinfo</text></a><text fill="#000000" font-family="sans-serif" font-size="10" lengthAdjust="spacing" textLength="80" x="700.5" y="114.6091">bo4e.bo.tarifinfo</text></g><!--class Tarifeinschraenkung--><g id="elem_Tarifeinschraenkung"><rect codeLine="14" fill="#F1F1F1" height="37.9375" id="Tarifeinschraenkung" rx="2.5" ry="2.5" style="stroke:#181818;stroke-width:0.5;" width="178" x="638.5" y="197.03"/><ellipse cx="653.5" cy="215.9987" fill="#ADD1B2" rx="11" ry="11" style="stroke:#181818;stroke-width:1.0;"/><path d="M656.4688,221.6394 Q655.8906,221.9362 655.25,222.0769 Q654.6094,222.2331 653.9063,222.2331 Q651.4063,222.2331 650.0781,220.5925 Q648.7656,218.9362 648.7656,215.8112 Q648.7656,212.6862 650.0781,211.03 Q651.4063,209.3737 653.9063,209.3737 Q654.6094,209.3737 655.25,209.53 Q655.9063,209.6862 656.4688,209.9831 L656.4688,212.7019 Q655.8438,212.1237 655.25,211.8581 Q654.6563,211.5769 654.0313,211.5769 Q652.6875,211.5769 652,212.655 Q651.3125,213.7175 651.3125,215.8112 Q651.3125,217.905 652,218.9831 Q652.6875,220.0456 654.0313,220.0456 Q654.6563,220.0456 655.25,219.78 Q655.8438,219.4987 656.4688,218.9206 L656.4688,221.6394 Z " fill="#000000"/><a href="https://bo4e.github.io/BO4E-python/latest/api/bo4e.com.html#bo4e.com.tarifeinschraenkung.Tarifeinschraenkung" target="_top" title="https://bo4e.github.io/BO4E-python/latest/api/bo4e.com.html#bo4e.com.tarifeinschraenkung.Tarifeinschraenkung" xlink:actuate="onRequest" xlink:href="https://bo4e.github.io/BO4E-python/latest/api/bo4e.com.html#bo4e.com.tarifeinschraenkung.Tarifeinschraenkung" xlink:show="new" xlink:title="https://bo4e.github.io/BO4E-python/latest/api/bo4e.com.html#bo4e.com.tarifeinschraenkung.Tarifeinschraenkung" xlink:type="simple"><text fill="#0000FF" font-family="sans-serif" font-size="14" lengthAdjust="spacing" text-decoration="underline" textLength="141" x="670" y="215.0251">Tarifeinschraenkung</text></a><text fill="#000000" font-family="sans-serif" font-size="10" lengthAdjust="spacing" textLength="146" x="667.5" y="227.6091">bo4e.com.tarifeinschraenkung</text></g><!--class AufAbschlag--><g id="elem_AufAbschlag"><rect codeLine="15" fill="#F1F1F1" height="37.9375" id="AufAbschlag" rx="2.5" ry="2.5" style="stroke:#181818;stroke-width:0.5;" width="141" x="657" y="270.03"/><ellipse cx="672" cy="288.9988" fill="#ADD1B2" rx="11" ry="11" style="stroke:#181818;stroke-width:1.0;"/><path d="M674.9688,294.6394 Q674.3906,294.9363 673.75,295.0769 Q673.1094,295.2331 672.4063,295.2331 Q669.9063,295.2331 668.5781,293.5925 Q667.2656,291.9363 667.2656,288.8113 Q667.2656,285.6863 668.5781,284.03 Q669.9063,282.3738 672.4063,282.3738 Q673.1094,282.3738 673.75,282.53 Q674.4063,282.6863 674.9688,282.9831 L674.9688,285.7019 Q674.3438,285.1238 673.75,284.8581 Q673.1563,284.5769 672.5313,284.5769 Q671.1875,284.5769 670.5,285.655 Q669.8125,286.7175 669.8125,288.8113 Q669.8125,290.905 670.5,291.9831 Q671.1875,293.0456 672.5313,293.0456 Q673.1563,293.0456 673.75,292.78 Q674.3438,292.4988 674.9688,291.9206 L674.9688,294.6394 Z " fill="#000000"/><a href="https://bo4e.github.io/BO4E-python/latest/api/bo4e.com.html#bo4e.com.aufabschlag.AufAbschlag" target="_top" title="https://bo4e.github.io/BO4E-python/latest/api/bo4e.com.html#bo4e.com.aufabschlag.AufAbschlag" xlink:actuate="onRequest" xlink:href="https://bo4e.github.io/BO4E-python/latest/api/bo4e.com.html#bo4e.com.aufabschlag.AufAbschlag" xlink:show="new" xlink:title="https://bo4e.github.io/BO4E-python/latest/api/bo4e.com.html#bo4e.com.aufabschlag.AufAbschlag" xlink:type="simple"><text fill="#0000FF" font-family="sans-serif" font-size="14" lengthAdjust="spacing" text-decoration="underline" textLength="85" x="698" y="288.0251">AufAbschlag</text></a><text fill="#000000" font-family="sans-serif" font-size="10" lengthAdjust="spacing" textLength="109" x="686" y="300.6091">bo4e.com.aufabschlag</text></g><!--class Tarifpreisposition--><g id="elem_Tarifpreisposition"><rect codeLine="16" fill="#F1F1F1" height="37.9375" id="Tarifpreisposition" rx="2.5" ry="2.5" style="stroke:#181818;stroke-width:0.5;" width="163" x="646" y="343.03"/><ellipse cx="661" cy="361.9988" fill="#ADD1B2" rx="11" ry="11" style="stroke:#181818;stroke-width:1.0;"/><path d="M663.9688,367.6394 Q663.3906,367.9363 662.75,368.0769 Q662.1094,368.2331 661.4063,368.2331 Q658.9063,368.2331 657.5781,366.5925 Q656.2656,364.9363 656.2656,361.8113 Q656.2656,358.6863 657.5781,357.03 Q658.9063,355.3738 661.4063,355.3738 Q662.1094,355.3738 662.75,355.53 Q663.4063,355.6863 663.9688,355.9831 L663.9688,358.7019 Q663.3438,358.1238 662.75,357.8581 Q662.1563,357.5769 661.5313,357.5769 Q660.1875,357.5769 659.5,358.655 Q658.8125,359.7175 658.8125,361.8113 Q658.8125,363.905 659.5,364.9831 Q660.1875,366.0456 661.5313,366.0456 Q662.1563,366.0456 662.75,365.78 Q663.3438,365.4988 663.9688,364.9206 L663.9688,367.6394 Z " fill="#000000"/><a href="https://bo4e.github.io/BO4E-python/latest/api/bo4e.com.html#bo4e.com.tarifpreisposition.Tarifpreisposition" target="_top" title="https://bo4e.github.io/BO4E-python/latest/api/bo4e.com.html#bo4e.com.tarifpreisposition.Tarifpreisposition" xlink:actuate="onRequest" xlink:href="https://bo4e.github.io/BO4E-python/latest/api/bo4e.com.html#bo4e.com.tarifpreisposition.Tarifpreisposition" xlink:show="new" xlink:title="https://bo4e.github.io/BO4E-python/latest/api/bo4e.com.html#bo4e.com.tarifpreisposition.Tarifpreisposition" xlink:type="simple"><text fill="#0000FF" font-family="sans-serif" font-size="14" lengthAdjust="spacing" text-decoration="underline" textLength="118" x="681.5" y="361.0251">Tarifpreisposition</text></a><text fill="#000000" font-family="sans-serif" font-size="10" lengthAdjust="spacing" textLength="131" x="675" y="373.6091">bo4e.com.tarifpreisposition</text></g><!--class Preisgarantie--><g id="elem_Preisgarantie"><rect codeLine="17" fill="#F1F1F1" height="37.9375" id="Preisgarantie" rx="2.5" ry="2.5" style="stroke:#181818;stroke-width:0.5;" width="146" x="654.5" y="416.03"/><ellipse cx="669.5" cy="434.9988" fill="#ADD1B2" rx="11" ry="11" style="stroke:#181818;stroke-width:1.0;"/><path d="M672.4688,440.6394 Q671.8906,440.9363 671.25,441.0769 Q670.6094,441.2331 669.9063,441.2331 Q667.4063,441.2331 666.0781,439.5925 Q664.7656,437.9363 664.7656,434.8113 Q664.7656,431.6863 666.0781,430.03 Q667.4063,428.3738 669.9063,428.3738 Q670.6094,428.3738 671.25,428.53 Q671.9063,428.6863 672.4688,428.9831 L672.4688,431.7019 Q671.8438,431.1238 671.25,430.8581 Q670.6563,430.5769 670.0313,430.5769 Q668.6875,430.5769 668,431.655 Q667.3125,432.7175 667.3125,434.8113 Q667.3125,436.905 668,437.9831 Q668.6875,439.0456 670.0313,439.0456 Q670.6563,439.0456 671.25,438.78 Q671.8438,438.4988 672.4688,437.9206 L672.4688,440.6394 Z " fill="#000000"/><a href="https://bo4e.github.io/BO4E-python/latest/api/bo4e.com.html#bo4e.com.preisgarantie.Preisgarantie" target="_top" title="https://bo4e.github.io/BO4E-python/latest/api/bo4e.com.html#bo4e.com.preisgarantie.Preisgarantie" xlink:actuate="onRequest" xlink:href="https://bo4e.github.io/BO4E-python/latest/api/bo4e.com.html#bo4e.com.preisgarantie.Preisgarantie" xlink:show="new" xlink:title="https://bo4e.github.io/BO4E-python/latest/api/bo4e.com.html#bo4e.com.preisgarantie.Preisgarantie" xlink:type="simple"><text fill="#0000FF" font-family="sans-serif" font-size="14" lengthAdjust="spacing" text-decoration="underline" textLength="90" x="695.5" y="434.0251">Preisgarantie</text></a><text fill="#000000" font-family="sans-serif" font-size="10" lengthAdjust="spacing" textLength="114" x="683.5" y="446.6091">bo4e.com.preisgarantie</text></g><!--class Tarifberechnungsparameter--><g id="elem_Tarifberechnungsparameter"><rect codeLine="18" fill="#F1F1F1" height="37.9375" id="Tarifberechnungsparameter" rx="2.5" ry="2.5" style="stroke:#181818;stroke-width:0.5;" width="225" x="615" y="489.03"/><ellipse cx="630" cy="507.9988" fill="#ADD1B2" rx="11" ry="11" style="stroke:#181818;stroke-width:1.0;"/><path d="M632.9688,513.6394 Q632.3906,513.9363 631.75,514.0769 Q631.1094,514.2331 630.4063,514.2331 Q627.9063,514.2331 626.5781,512.5925 Q625.2656,510.9363 625.2656,507.8113 Q625.2656,504.6863 626.5781,503.03 Q627.9063,501.3738 630.4063,501.3738 Q631.1094,501.3738 631.75,501.53 Q632.4063,501.6863 632.9688,501.9831 L632.9688,504.7019 Q632.3438,504.1238 631.75,503.8581 Q631.1563,503.5769 630.5313,503.5769 Q629.1875,503.5769 628.5,504.655 Q627.8125,505.7175 627.8125,507.8113 Q627.8125,509.905 628.5,510.9831 Q629.1875,512.0456 630.5313,512.0456 Q631.1563,512.0456 631.75,511.78 Q632.3438,511.4988 632.9688,510.9206 L632.9688,513.6394 Z " fill="#000000"/><a href="https://bo4e.github.io/BO4E-python/latest/api/bo4e.com.html#bo4e.com.tarifberechnungsparameter.Tarifberechnungsparameter" target="_top" title="https://bo4e.github.io/BO4E-python/latest/api/bo4e.com.html#bo4e.com.tarifberechnungsparameter.Tarifberechnungsparameter" xlink:actuate="onRequest" xlink:href="https://bo4e.github.io/BO4E-python/latest/api/bo4e.com.html#bo4e.com.tarifberechnungsparameter.Tarifberechnungsparameter" xlink:show="new" xlink:title="https://bo4e.github.io/BO4E-python/latest/api/bo4e.com.html#bo4e.com.tarifberechnungsparameter.Tarifberechnungsparameter" xlink:type="simple"><text fill="#0000FF" font-family="sans-serif" font-size="14" lengthAdjust="spacing" text-decoration="underline" textLength="193" x="644" y="507.0251">Tarifberechnungsparameter</text></a><text fill="#000000" font-family="sans-serif" font-size="10" lengthAdjust="spacing" textLength="185" x="648" y="519.6091">bo4e.com.tarifberechnungsparameter</text></g><!--class Typ--><g id="elem_Typ"><rect codeLine="21" fill="#F1F1F1" height="37.9375" id="Typ" rx="2.5" ry="2.5" style="stroke:#181818;stroke-width:0.5;" width="106" x="674.5" y="602.03"/><ellipse cx="689.5" cy="620.9988" fill="#ADD1B2" rx="11" ry="11" style="stroke:#181818;stroke-width:1.0;"/><path d="M692.4688,626.6394 Q691.8906,626.9363 691.25,627.0769 Q690.6094,627.2331 689.9063,627.2331 Q687.4063,627.2331 686.0781,625.5925 Q684.7656,623.9363 684.7656,620.8113 Q684.7656,617.6863 686.0781,616.03 Q687.4063,614.3738 689.9063,614.3738 Q690.6094,614.3738 691.25,614.53 Q691.9063,614.6863 692.4688,614.9831 L692.4688,617.7019 Q691.8438,617.1238 691.25,616.8581 Q690.6563,616.5769 690.0313,616.5769 Q688.6875,616.5769 688,617.655 Q687.3125,618.7175 687.3125,620.8113 Q687.3125,622.905 688,623.9831 Q688.6875,625.0456 690.0313,625.0456 Q690.6563,625.0456 691.25,624.78 Q691.8438,624.4988 692.4688,623.9206 L692.4688,626.6394 Z " fill="#000000"/><a href="https://bo4e.github.io/BO4E-python/latest/api/bo4e.enum.html#bo4e.enum.typ.Typ" target="_top" title="https://bo4e.github.io/BO4E-python/latest/api/bo4e.enum.html#bo4e.enum.typ.Typ" xlink:actuate="onRequest" xlink:href="https://bo4e.github.io/BO4E-python/latest/api/bo4e.enum.html#bo4e.enum.typ.Typ" xlink:show="new" xlink:title="https://bo4e.github.io/BO4E-python/latest/api/bo4e.enum.html#bo4e.enum.typ.Typ" xlink:type="simple"><text fill="#0000FF" font-family="sans-serif" font-size="14" lengthAdjust="spacing" text-decoration="underline" textLength="25" x="728" y="620.0251">Typ</text></a><text fill="#000000" font-family="sans-serif" font-size="10" lengthAdjust="spacing" textLength="74" x="703.5" y="632.6091">bo4e.enum.typ</text></g><!--class Tarifpreisblatt--><g id="elem_Tarifpreisblatt"><rect codeLine="3" fill="#F1F1F1" height="111.125" id="Tarifpreisblatt" rx="2.5" ry="2.5" style="stroke:#181818;stroke-width:0.5;" width="369" x="7" y="306.44"/><ellipse cx="133.75" cy="325.4088" fill="#ADD1B2" rx="11" ry="11" style="stroke:#181818;stroke-width:1.0;"/><path d="M136.7188,331.0494 Q136.1406,331.3463 135.5,331.4869 Q134.8594,331.6431 134.1563,331.6431 Q131.6563,331.6431 130.3281,330.0025 Q129.0156,328.3463 129.0156,325.2213 Q129.0156,322.0963 130.3281,320.44 Q131.6563,318.7838 134.1563,318.7838 Q134.8594,318.7838 135.5,318.94 Q136.1563,319.0963 136.7188,319.3931 L136.7188,322.1119 Q136.0938,321.5338 135.5,321.2681 Q134.9063,320.9869 134.2813,320.9869 Q132.9375,320.9869 132.25,322.065 Q131.5625,323.1275 131.5625,325.2213 Q131.5625,327.315 132.25,328.3931 Q132.9375,329.4556 134.2813,329.4556 Q134.9063,329.4556 135.5,329.19 Q136.0938,328.9088 136.7188,328.3306 L136.7188,331.0494 Z " fill="#000000"/><a href="https://bo4e.github.io/BO4E-python/latest/api/bo4e.bo.html#bo4e.bo.tarifpreisblatt.Tarifpreisblatt" target="_top" title="https://bo4e.github.io/BO4E-python/latest/api/bo4e.bo.html#bo4e.bo.tarifpreisblatt.Tarifpreisblatt" xlink:actuate="onRequest" xlink:href="https://bo4e.github.io/BO4E-python/latest/api/bo4e.bo.html#bo4e.bo.tarifpreisblatt.Tarifpreisblatt" xlink:show="new" xlink:title="https://bo4e.github.io/BO4E-python/latest/api/bo4e.bo.html#bo4e.bo.tarifpreisblatt.Tarifpreisblatt" xlink:type="simple"><text fill="#0000FF" font-family="sans-serif" font-size="14" lengthAdjust="spacing" text-decoration="underline" textLength="93" x="161.25" y="324.4351">Tarifpreisblatt</text></a><text fill="#000000" font-family="sans-serif" font-size="10" lengthAdjust="spacing" textLength="107" x="154.25" y="337.0191">bo4e.bo.tarifpreisblatt</text><line style="stroke:#181818;stroke-width:0.5;" x1="8" x2="375" y1="344.3775" y2="344.3775"/><text fill="#000000" font-family="sans-serif" font-size="14" lengthAdjust="spacing" textLength="357" x="13" y="361.3726">_version : str [0..1] = 202401.1.2.dev13+g9a6529a</text><text fill="#000000" font-family="sans-serif" font-size="14" lengthAdjust="spacing" textLength="311" x="13" y="377.6695">zusatzAttribute : ZusatzAttribut [0..*] = None</text><text fill="#000000" font-family="sans-serif" font-size="14" lengthAdjust="spacing" textLength="147" x="13" y="393.9664">_id : str [0..1] = None</text><text fill="#000000" font-family="sans-serif" font-size="14" lengthAdjust="spacing" textLength="288" x="13" y="410.2632">preisstand : AwareDatetime [0..1] = None</text></g><!--link Tarifpreisblatt to Tarifinfo--><g id="link_Tarifpreisblatt_Tarifinfo"><path codeLine="24" d="M271.86,306.06 C311.13,279.8 359.89,249.24 406,226 C495.68,180.8 589.0594,147.4387 654.0994,126.0687 " fill="none" id="Tarifpreisblatt-to-Tarifinfo" style="stroke:#181818;stroke-width:1.0;"/><polygon fill="none" points="671.2,120.45,652.2265,120.3685,655.9723,131.7689,671.2,120.45" style="stroke:#181818;stroke-width:1.0;"/></g><!--link Tarifpreisblatt to Typ--><g id="link_Tarifpreisblatt_Typ"><path codeLine="25" d="M270.78,417.77 C310.2,444.4 359.4,475.5 406,499 C496.9,544.85 597.9496,580.1957 662.6096,601.0557 " fill="none" id="Tarifpreisblatt-to-Typ" style="stroke:#181818;stroke-width:1.0;"/><polygon fill="#181818" points="674.03,604.74,669.5479,599.091,662.6096,601.0557,667.0917,606.7046,674.03,604.74" style="stroke:#181818;stroke-width:1.0;"/><text fill="#000000" font-family="sans-serif" font-size="13" lengthAdjust="spacing" textLength="27" x="469" y="495.0669">_typ</text><text fill="#000000" font-family="sans-serif" font-size="13" lengthAdjust="spacing" textLength="24" x="642.46" y="615.8018">0..1</text></g><!--link Tarifpreisblatt to Tarifpreisposition--><g id="link_Tarifpreisblatt_Tarifpreisposition"><path codeLine="26" d="M376.27,362 C468.14,362 562.61,362 633.82,362 " fill="none" id="Tarifpreisblatt-to-Tarifpreisposition" style="stroke:#181818;stroke-width:1.0;"/><polygon fill="#181818" points="645.82,362,639.82,358,633.82,362,639.82,366,645.82,362" style="stroke:#181818;stroke-width:1.0;"/><text fill="#000000" font-family="sans-serif" font-size="13" lengthAdjust="spacing" textLength="64" x="450.5" y="358.0669">tarifpreise</text><text fill="#000000" font-family="sans-serif" font-size="13" lengthAdjust="spacing" textLength="23" x="615.1035" y="374.6936">0..*</text></g><!--link Tarifpreisblatt to Tarifberechnungsparameter--><g id="link_Tarifpreisblatt_Tarifberechnungsparameter"><path codeLine="27" d="M344.86,418.01 C365.29,424.79 386.07,431.31 406,437 C478.07,457.56 548.8984,473.3498 612.1984,486.1598 " fill="none" id="Tarifpreisblatt-to-Tarifberechnungsparameter" style="stroke:#181818;stroke-width:1.0;"/><polygon fill="#181818" points="623.96,488.54,618.8726,483.4294,612.1984,486.1598,617.2858,491.2704,623.96,488.54" style="stroke:#181818;stroke-width:1.0;"/><text fill="#000000" font-family="sans-serif" font-size="13" lengthAdjust="spacing" textLength="151" x="407" y="433.0669">berechnungsparameter</text><text fill="#000000" font-family="sans-serif" font-size="13" lengthAdjust="spacing" textLength="24" x="582.9901" y="481.6571">0..1</text></g><!--link Tarifpreisblatt to Tarifeinschraenkung--><g id="link_Tarifpreisblatt_Tarifeinschraenkung"><path codeLine="28" d="M347.52,305.99 C367.1,299.59 386.95,293.42 406,288 C483.61,265.91 561.5909,248.6322 626.3309,235.4622 " fill="none" id="Tarifpreisblatt-to-Tarifeinschraenkung" style="stroke:#181818;stroke-width:1.0;"/><polygon fill="#181818" points="638.09,233.07,631.413,230.3464,626.3309,235.4622,633.0078,238.1858,638.09,233.07" style="stroke:#181818;stroke-width:1.0;"/><text fill="#000000" font-family="sans-serif" font-size="13" lengthAdjust="spacing" textLength="126" x="419.5" y="247.0669">tarifeinschraenkung</text><text fill="#000000" font-family="sans-serif" font-size="13" lengthAdjust="spacing" textLength="24" x="606.6427" y="246.9462">0..1</text></g><!--link Tarifpreisblatt to Preisgarantie--><g id="link_Tarifpreisblatt_Preisgarantie"><path codeLine="29" d="M376.27,387.12 C471.76,400.18 571.1305,413.7651 642.1805,423.4751 " fill="none" id="Tarifpreisblatt-to-Preisgarantie" style="stroke:#181818;stroke-width:1.0;"/><polygon fill="#181818" points="654.07,425.1,648.6669,420.3244,642.1805,423.4751,647.5836,428.2507,654.07,425.1" style="stroke:#181818;stroke-width:1.0;"/><text fill="#000000" font-family="sans-serif" font-size="13" lengthAdjust="spacing" textLength="84" x="440.5" y="388.0669">preisgarantie</text><text fill="#000000" font-family="sans-serif" font-size="13" lengthAdjust="spacing" textLength="24" x="622.4614" y="436.9592">0..1</text></g><!--link Tarifpreisblatt to AufAbschlag--><g id="link_Tarifpreisblatt_AufAbschlag"><path codeLine="30" d="M376.27,336.88 C472.97,323.66 573.9505,309.8547 644.8605,300.1647 " fill="none" id="Tarifpreisblatt-to-AufAbschlag" style="stroke:#181818;stroke-width:1.0;"/><polygon fill="#181818" points="656.75,298.54,650.2637,295.3892,644.8605,300.1647,651.3468,303.3155,656.75,298.54" style="stroke:#181818;stroke-width:1.0;"/><text fill="#000000" font-family="sans-serif" font-size="13" lengthAdjust="spacing" textLength="120" x="422.5" y="309.0669">tarifAufAbschlaege</text><text fill="#000000" font-family="sans-serif" font-size="13" lengthAdjust="spacing" textLength="23" x="625.9105" y="312.2375">0..*</text></g><!--SRC=[jLLDRvj043s7Np4oDrTU6yTn4zH68askRGyvrRMY1GPO5HR4Bedijl-z2nZpQSkLdGFIljcPsTatpDiGFGaoXfJvWGINfUX85dDDSq8g18nMgq3AH9ZJgHqlaFXC1fbDM3nz-BPucYGR6SHy6bA9GavfmaelEoQ1Z4Az0fAcp4jIPC9Mhf8yjp5qy7hzatyIR8kcCRi_a6C4L7JZuBTszVAAgL0N01E4J64r8yHOmsUOp-QBcK4CCYSklXhN7_mxkhoPtr7jQfi9AhUMb2cpCuagyaVBKYGPvqc-nXpL4SpjPYytYag4f3pVjzveYe-A6CaYx7Z-rJHE8nG9TV0yYc47rkk2a1q2_M7v-D6wpGcvU1yPz-AoW_aAzgl3NSjtwtxbI35mBW5E73KOKAX9WOAWFysis-MNSpcepj7tgBWJCYwS8AN8VsNSB_bess30rkVeGCAQhhRzqdUXcKTjbJ-aFh4opzgjeR4UhhaHMDJQ27WNlelPIcB1SdLg24XbWhxf2DajluwKLEPBNwD8xjEKSicGV6yYQA7XkblXHScje7SXtKRr70HS_NTgKbCri1BJalkX7JYuSwGJG-vrGuPsBw0ToBEcUEImgHuv1jqrdEkRioLqVvHUGxb9oFCc0VNrcQayIX8sIVvOz1xCoUJFVINsjHRt_PJZ64RvspEghrQSRSABEkH8n7YqbzAXSJEX7YGyuU1zci4_nuJ1Jlz7sexsxihhYETf-TgZQK9hyavahAcbkrfg4_geQG5p4IACrCM59eBu3NgPFOQXA_u1]--></g></svg>