<?xml version="1.0" encoding="us-ascii" standalone="no"?><svg xmlns="http://www.w3.org/2000/svg" xmlns:xlink="http://www.w3.org/1999/xlink" contentStyleType="text/css" height="687px" preserveAspectRatio="none" style="width:841px;height:687px;background:#FFFFFF;" version="1.1" viewBox="0 0 841 687" width="841px" zoomAndPan="magnify"><defs/><g><!--cluster bo4e--><g id="cluster_bo4e"><path d="M531.5,6 L572.5,6 A3.75,3.75 0 0 1 575,8.5 L582,28.2969 L831.5,28.2969 A2.5,2.5 0 0 1 834,30.7969 L834,677.5 A2.5,2.5 0 0 1 831.5,680 L531.5,680 A2.5,2.5 0 0 1 529,677.5 L529,8.5 A2.5,2.5 0 0 1 531.5,6 " fill="none" style="stroke:#000000;stroke-width:1.5;"/><line style="stroke:#000000;stroke-width:1.5;" x1="529" x2="582" y1="28.2969" y2="28.2969"/><text fill="#000000" font-family="sans-serif" font-size="14" font-weight="bold" lengthAdjust="spacing" textLength="40" x="533" y="20.9951">bo4e</text></g><!--cluster bo--><g id="cluster_bo"><path d="M612,49 L678,49 A3.75,3.75 0 0 1 680.5,51.5 L687.5,71.2969 L751,71.2969 A2.5,2.5 0 0 1 753.5,73.7969 L753.5,135.5 A2.5,2.5 0 0 1 751,138 L612,138 A2.5,2.5 0 0 1 609.5,135.5 L609.5,51.5 A2.5,2.5 0 0 1 612,49 " fill="#B6D7A8" style="stroke:#000000;stroke-width:1.5;"/><line style="stroke:#000000;stroke-width:1.5;" x1="609.5" x2="687.5" y1="71.2969" y2="71.2969"/><a href="https://bo4e.github.io/BO4E-python/latest/api/bo4e.bo.html" target="_top" title="https://bo4e.github.io/BO4E-python/latest/api/bo4e.bo.html" xlink:actuate="onRequest" xlink:href="https://bo4e.github.io/BO4E-python/latest/api/bo4e.bo.html" xlink:show="new" xlink:title="https://bo4e.github.io/BO4E-python/latest/api/bo4e.bo.html" xlink:type="simple"><text fill="#0000FF" font-family="sans-serif" font-size="14" font-weight="bold" lengthAdjust="spacing" text-decoration="underline" textLength="65" x="613.5" y="63.9951">bo4e.bo</text></a></g><!--cluster com--><g id="cluster_com"><path d="M555.5,162 L634.5,162 A3.75,3.75 0 0 1 637,164.5 L644,184.2969 L807.5,184.2969 A2.5,2.5 0 0 1 810,186.7969 L810,540.5 A2.5,2.5 0 0 1 807.5,543 L555.5,543 A2.5,2.5 0 0 1 553,540.5 L553,164.5 A2.5,2.5 0 0 1 555.5,162 " fill="#E0A86C" style="stroke:#000000;stroke-width:1.5;"/><line style="stroke:#000000;stroke-width:1.5;" x1="553" x2="644" y1="184.2969" y2="184.2969"/><a href="https://bo4e.github.io/BO4E-python/latest/api/bo4e.com.html" target="_top" title="https://bo4e.github.io/BO4E-python/latest/api/bo4e.com.html" xlink:actuate="onRequest" xlink:href="https://bo4e.github.io/BO4E-python/latest/api/bo4e.com.html" xlink:show="new" xlink:title="https://bo4e.github.io/BO4E-python/latest/api/bo4e.com.html" xlink:type="simple"><text fill="#0000FF" font-family="sans-serif" font-size="14" font-weight="bold" lengthAdjust="spacing" text-decoration="underline" textLength="78" x="557" y="176.9951">bo4e.com</text></a></g><!--cluster enum--><g id="cluster_enum"><path d="M615,567 L705,567 A3.75,3.75 0 0 1 707.5,569.5 L714.5,589.2969 L748,589.2969 A2.5,2.5 0 0 1 750.5,591.7969 L750.5,653.5 A2.5,2.5 0 0 1 748,656 L615,656 A2.5,2.5 0 0 1 612.5,653.5 L612.5,569.5 A2.5,2.5 0 0 1 615,567 " fill="#D1C358" style="stroke:#000000;stroke-width:1.5;"/><line style="stroke:#000000;stroke-width:1.5;" x1="612.5" x2="714.5" y1="589.2969" y2="589.2969"/><a href="https://bo4e.github.io/BO4E-python/latest/api/bo4e.enum.html" target="_top" title="https://bo4e.github.io/BO4E-python/latest/api/bo4e.enum.html" xlink:actuate="onRequest" xlink:href="https://bo4e.github.io/BO4E-python/latest/api/bo4e.enum.html" xlink:show="new" xlink:title="https://bo4e.github.io/BO4E-python/latest/api/bo4e.enum.html" xlink:type="simple"><text fill="#0000FF" font-family="sans-serif" font-size="14" font-weight="bold" lengthAdjust="spacing" text-decoration="underline" textLength="89" x="616.5" y="581.9951">bo4e.enum</text></a></g><!--class Tarifinfo--><g id="elem_Tarifinfo"><rect codeLine="11" fill="#F1F1F1" height="37.9375" id="Tarifinfo" rx="2.5" ry="2.5" style="stroke:#181818;stroke-width:0.5;" width="112" x="625.5" y="84.03"/><ellipse cx="640.5" cy="102.9987" fill="#ADD1B2" rx="11" ry="11" style="stroke:#181818;stroke-width:1.0;"/><path d="M643.4688,108.6394 Q642.8906,108.9362 642.25,109.0769 Q641.6094,109.2331 640.9063,109.2331 Q638.4063,109.2331 637.0781,107.5925 Q635.7656,105.9362 635.7656,102.8112 Q635.7656,99.6862 637.0781,98.03 Q638.4063,96.3737 640.9063,96.3737 Q641.6094,96.3737 642.25,96.53 Q642.9063,96.6862 643.4688,96.9831 L643.4688,99.7019 Q642.8438,99.1237 642.25,98.8581 Q641.6563,98.5769 641.0313,98.5769 Q639.6875,98.5769 639,99.655 Q638.3125,100.7175 638.3125,102.8112 Q638.3125,104.905 639,105.9831 Q639.6875,107.0456 641.0313,107.0456 Q641.6563,107.0456 642.25,106.78 Q642.8438,106.4987 643.4688,105.9206 L643.4688,108.6394 Z " fill="#000000"/><a href="https://bo4e.github.io/BO4E-python/latest/api/bo4e.bo.html#bo4e.bo.tarifinfo.Tarifinfo" target="_top" title="https://bo4e.github.io/BO4E-python/latest/api/bo4e.bo.html#bo4e.bo.tarifinfo.Tarifinfo" xlink:actuate="onRequest" xlink:href="https://bo4e.github.io/BO4E-python/latest/api/bo4e.bo.html#bo4e.bo.tarifinfo.Tarifinfo" xlink:show="new" xlink:title="https://bo4e.github.io/BO4E-python/latest/api/bo4e.bo.html#bo4e.bo.tarifinfo.Tarifinfo" xlink:type="simple"><text fill="#0000FF" font-family="sans-serif" font-size="14" lengthAdjust="spacing" text-decoration="underline" textLength="54" x="667.5" y="102.0251">Tarifinfo</text></a><text fill="#000000" font-family="sans-serif" font-size="10" lengthAdjust="spacing" textLength="80" x="654.5" y="114.6091">bo4e.bo.tarifinfo</text></g><!--class AufAbschlagRegional--><g id="elem_AufAbschlagRegional"><rect codeLine="14" fill="#F1F1F1" height="37.9375" id="AufAbschlagRegional" rx="2.5" ry="2.5" style="stroke:#181818;stroke-width:0.5;" width="179" x="592" y="197.03"/><ellipse cx="607" cy="215.9987" fill="#ADD1B2" rx="11" ry="11" style="stroke:#181818;stroke-width:1.0;"/><path d="M609.9688,221.6394 Q609.3906,221.9362 608.75,222.0769 Q608.1094,222.2331 607.4063,222.2331 Q604.9063,222.2331 603.5781,220.5925 Q602.2656,218.9362 602.2656,215.8112 Q602.2656,212.6862 603.5781,211.03 Q604.9063,209.3737 607.4063,209.3737 Q608.1094,209.3737 608.75,209.53 Q609.4063,209.6862 609.9688,209.9831 L609.9688,212.7019 Q609.3438,212.1237 608.75,211.8581 Q608.1563,211.5769 607.5313,211.5769 Q606.1875,211.5769 605.5,212.655 Q604.8125,213.7175 604.8125,215.8112 Q604.8125,217.905 605.5,218.9831 Q606.1875,220.0456 607.5313,220.0456 Q608.1563,220.0456 608.75,219.78 Q609.3438,219.4987 609.9688,218.9206 L609.9688,221.6394 Z " fill="#000000"/><a href="https://bo4e.github.io/BO4E-python/latest/api/bo4e.com.html#bo4e.com.aufabschlagregional.AufAbschlagRegional" target="_top" title="https://bo4e.github.io/BO4E-python/latest/api/bo4e.com.html#bo4e.com.aufabschlagregional.AufAbschlagRegional" xlink:actuate="onRequest" xlink:href="https://bo4e.github.io/BO4E-python/latest/api/bo4e.com.html#bo4e.com.aufabschlagregional.AufAbschlagRegional" xlink:show="new" xlink:title="https://bo4e.github.io/BO4E-python/latest/api/bo4e.com.html#bo4e.com.aufabschlagregional.AufAbschlagRegional" xlink:type="simple"><text fill="#0000FF" font-family="sans-serif" font-size="14" lengthAdjust="spacing" text-decoration="underline" textLength="145" x="622" y="215.0251">AufAbschlagRegional</text></a><text fill="#000000" font-family="sans-serif" font-size="10" lengthAdjust="spacing" textLength="147" x="621" y="227.6091">bo4e.com.aufabschlagregional</text></g><!--class Preisgarantie--><g id="elem_Preisgarantie"><rect codeLine="15" fill="#F1F1F1" height="37.9375" id="Preisgarantie" rx="2.5" ry="2.5" style="stroke:#181818;stroke-width:0.5;" width="146" x="608.5" y="270.03"/><ellipse cx="623.5" cy="288.9988" fill="#ADD1B2" rx="11" ry="11" style="stroke:#181818;stroke-width:1.0;"/><path d="M626.4688,294.6394 Q625.8906,294.9363 625.25,295.0769 Q624.6094,295.2331 623.9063,295.2331 Q621.4063,295.2331 620.0781,293.5925 Q618.7656,291.9363 618.7656,288.8113 Q618.7656,285.6863 620.0781,284.03 Q621.4063,282.3738 623.9063,282.3738 Q624.6094,282.3738 625.25,282.53 Q625.9063,282.6863 626.4688,282.9831 L626.4688,285.7019 Q625.8438,285.1238 625.25,284.8581 Q624.6563,284.5769 624.0313,284.5769 Q622.6875,284.5769 622,285.655 Q621.3125,286.7175 621.3125,288.8113 Q621.3125,290.905 622,291.9831 Q622.6875,293.0456 624.0313,293.0456 Q624.6563,293.0456 625.25,292.78 Q625.8438,292.4988 626.4688,291.9206 L626.4688,294.6394 Z " fill="#000000"/><a href="https://bo4e.github.io/BO4E-python/latest/api/bo4e.com.html#bo4e.com.preisgarantie.Preisgarantie" target="_top" title="https://bo4e.github.io/BO4E-python/latest/api/bo4e.com.html#bo4e.com.preisgarantie.Preisgarantie" xlink:actuate="onRequest" xlink:href="https://bo4e.github.io/BO4E-python/latest/api/bo4e.com.html#bo4e.com.preisgarantie.Preisgarantie" xlink:show="new" xlink:title="https://bo4e.github.io/BO4E-python/latest/api/bo4e.com.html#bo4e.com.preisgarantie.Preisgarantie" xlink:type="simple"><text fill="#0000FF" font-family="sans-serif" font-size="14" lengthAdjust="spacing" text-decoration="underline" textLength="90" x="649.5" y="288.0251">Preisgarantie</text></a><text fill="#000000" font-family="sans-serif" font-size="10" lengthAdjust="spacing" textLength="114" x="637.5" y="300.6091">bo4e.com.preisgarantie</text></g><!--class Tarifeinschraenkung--><g id="elem_Tarifeinschraenkung"><rect codeLine="16" fill="#F1F1F1" height="37.9375" id="Tarifeinschraenkung" rx="2.5" ry="2.5" style="stroke:#181818;stroke-width:0.5;" width="178" x="592.5" y="343.03"/><ellipse cx="607.5" cy="361.9988" fill="#ADD1B2" rx="11" ry="11" style="stroke:#181818;stroke-width:1.0;"/><path d="M610.4688,367.6394 Q609.8906,367.9363 609.25,368.0769 Q608.6094,368.2331 607.9063,368.2331 Q605.4063,368.2331 604.0781,366.5925 Q602.7656,364.9363 602.7656,361.8113 Q602.7656,358.6863 604.0781,357.03 Q605.4063,355.3738 607.9063,355.3738 Q608.6094,355.3738 609.25,355.53 Q609.9063,355.6863 610.4688,355.9831 L610.4688,358.7019 Q609.8438,358.1238 609.25,357.8581 Q608.6563,357.5769 608.0313,357.5769 Q606.6875,357.5769 606,358.655 Q605.3125,359.7175 605.3125,361.8113 Q605.3125,363.905 606,364.9831 Q606.6875,366.0456 608.0313,366.0456 Q608.6563,366.0456 609.25,365.78 Q609.8438,365.4988 610.4688,364.9206 L610.4688,367.6394 Z " fill="#000000"/><a href="https://bo4e.github.io/BO4E-python/latest/api/bo4e.com.html#bo4e.com.tarifeinschraenkung.Tarifeinschraenkung" target="_top" title="https://bo4e.github.io/BO4E-python/latest/api/bo4e.com.html#bo4e.com.tarifeinschraenkung.Tarifeinschraenkung" xlink:actuate="onRequest" xlink:href="https://bo4e.github.io/BO4E-python/latest/api/bo4e.com.html#bo4e.com.tarifeinschraenkung.Tarifeinschraenkung" xlink:show="new" xlink:title="https://bo4e.github.io/BO4E-python/latest/api/bo4e.com.html#bo4e.com.tarifeinschraenkung.Tarifeinschraenkung" xlink:type="simple"><text fill="#0000FF" font-family="sans-serif" font-size="14" lengthAdjust="spacing" text-decoration="underline" textLength="141" x="624" y="361.0251">Tarifeinschraenkung</text></a><text fill="#000000" font-family="sans-serif" font-size="10" lengthAdjust="spacing" textLength="146" x="621.5" y="373.6091">bo4e.com.tarifeinschraenkung</text></g><!--class Tarifberechnungsparameter--><g id="elem_Tarifberechnungsparameter"><rect codeLine="17" fill="#F1F1F1" height="37.9375" id="Tarifberechnungsparameter" rx="2.5" ry="2.5" style="stroke:#181818;stroke-width:0.5;" width="225" x="569" y="416.03"/><ellipse cx="584" cy="434.9988" fill="#ADD1B2" rx="11" ry="11" style="stroke:#181818;stroke-width:1.0;"/><path d="M586.9688,440.6394 Q586.3906,440.9363 585.75,441.0769 Q585.1094,441.2331 584.4063,441.2331 Q581.9063,441.2331 580.5781,439.5925 Q579.2656,437.9363 579.2656,434.8113 Q579.2656,431.6863 580.5781,430.03 Q581.9063,428.3738 584.4063,428.3738 Q585.1094,428.3738 585.75,428.53 Q586.4063,428.6863 586.9688,428.9831 L586.9688,431.7019 Q586.3438,431.1238 585.75,430.8581 Q585.1563,430.5769 584.5313,430.5769 Q583.1875,430.5769 582.5,431.655 Q581.8125,432.7175 581.8125,434.8113 Q581.8125,436.905 582.5,437.9831 Q583.1875,439.0456 584.5313,439.0456 Q585.1563,439.0456 585.75,438.78 Q586.3438,438.4988 586.9688,437.9206 L586.9688,440.6394 Z " fill="#000000"/><a href="https://bo4e.github.io/BO4E-python/latest/api/bo4e.com.html#bo4e.com.tarifberechnungsparameter.Tarifberechnungsparameter" target="_top" title="https://bo4e.github.io/BO4E-python/latest/api/bo4e.com.html#bo4e.com.tarifberechnungsparameter.Tarifberechnungsparameter" xlink:actuate="onRequest" xlink:href="https://bo4e.github.io/BO4E-python/latest/api/bo4e.com.html#bo4e.com.tarifberechnungsparameter.Tarifberechnungsparameter" xlink:show="new" xlink:title="https://bo4e.github.io/BO4E-python/latest/api/bo4e.com.html#bo4e.com.tarifberechnungsparameter.Tarifberechnungsparameter" xlink:type="simple"><text fill="#0000FF" font-family="sans-serif" font-size="14" lengthAdjust="spacing" text-decoration="underline" textLength="193" x="598" y="434.0251">Tarifberechnungsparameter</text></a><text fill="#000000" font-family="sans-serif" font-size="10" lengthAdjust="spacing" textLength="185" x="602" y="446.6091">bo4e.com.tarifberechnungsparameter</text></g><!--class TarifpreispositionProOrt--><g id="elem_TarifpreispositionProOrt"><rect codeLine="18" fill="#F1F1F1" height="37.9375" id="TarifpreispositionProOrt" rx="2.5" ry="2.5" style="stroke:#181818;stroke-width:0.5;" width="194" x="584.5" y="489.03"/><ellipse cx="599.5" cy="507.9988" fill="#ADD1B2" rx="11" ry="11" style="stroke:#181818;stroke-width:1.0;"/><path d="M602.4688,513.6394 Q601.8906,513.9363 601.25,514.0769 Q600.6094,514.2331 599.9063,514.2331 Q597.4063,514.2331 596.0781,512.5925 Q594.7656,510.9363 594.7656,507.8113 Q594.7656,504.6863 596.0781,503.03 Q597.4063,501.3738 599.9063,501.3738 Q600.6094,501.3738 601.25,501.53 Q601.9063,501.6863 602.4688,501.9831 L602.4688,504.7019 Q601.8438,504.1238 601.25,503.8581 Q600.6563,503.5769 600.0313,503.5769 Q598.6875,503.5769 598,504.655 Q597.3125,505.7175 597.3125,507.8113 Q597.3125,509.905 598,510.9831 Q598.6875,512.0456 600.0313,512.0456 Q600.6563,512.0456 601.25,511.78 Q601.8438,511.4988 602.4688,510.9206 L602.4688,513.6394 Z " fill="#000000"/><a href="https://bo4e.github.io/BO4E-python/latest/api/bo4e.com.html#bo4e.com.tarifpreispositionproort.TarifpreispositionProOrt" target="_top" title="https://bo4e.github.io/BO4E-python/latest/api/bo4e.com.html#bo4e.com.tarifpreispositionproort.TarifpreispositionProOrt" xlink:actuate="onRequest" xlink:href="https://bo4e.github.io/BO4E-python/latest/api/bo4e.com.html#bo4e.com.tarifpreispositionproort.TarifpreispositionProOrt" xlink:show="new" xlink:title="https://bo4e.github.io/BO4E-python/latest/api/bo4e.com.html#bo4e.com.tarifpreispositionproort.TarifpreispositionProOrt" xlink:type="simple"><text fill="#0000FF" font-family="sans-serif" font-size="14" lengthAdjust="spacing" text-decoration="underline" textLength="162" x="613.5" y="507.0251">TarifpreispositionProOrt</text></a><text fill="#000000" font-family="sans-serif" font-size="10" lengthAdjust="spacing" textLength="161" x="614" y="519.6091">bo4e.com.tarifpreispositionproort</text></g><!--class Typ--><g id="elem_Typ"><rect codeLine="21" fill="#F1F1F1" height="37.9375" id="Typ" rx="2.5" ry="2.5" style="stroke:#181818;stroke-width:0.5;" width="106" x="628.5" y="602.03"/><ellipse cx="643.5" cy="620.9988" fill="#ADD1B2" rx="11" ry="11" style="stroke:#181818;stroke-width:1.0;"/><path d="M646.4688,626.6394 Q645.8906,626.9363 645.25,627.0769 Q644.6094,627.2331 643.9063,627.2331 Q641.4063,627.2331 640.0781,625.5925 Q638.7656,623.9363 638.7656,620.8113 Q638.7656,617.6863 640.0781,616.03 Q641.4063,614.3738 643.9063,614.3738 Q644.6094,614.3738 645.25,614.53 Q645.9063,614.6863 646.4688,614.9831 L646.4688,617.7019 Q645.8438,617.1238 645.25,616.8581 Q644.6563,616.5769 644.0313,616.5769 Q642.6875,616.5769 642,617.655 Q641.3125,618.7175 641.3125,620.8113 Q641.3125,622.905 642,623.9831 Q642.6875,625.0456 644.0313,625.0456 Q644.6563,625.0456 645.25,624.78 Q645.8438,624.4988 646.4688,623.9206 L646.4688,626.6394 Z " fill="#000000"/><a href="https://bo4e.github.io/BO4E-python/latest/api/bo4e.enum.html#bo4e.enum.typ.Typ" target="_top" title="https://bo4e.github.io/BO4E-python/latest/api/bo4e.enum.html#bo4e.enum.typ.Typ" xlink:actuate="onRequest" xlink:href="https://bo4e.github.io/BO4E-python/latest/api/bo4e.enum.html#bo4e.enum.typ.Typ" xlink:show="new" xlink:title="https://bo4e.github.io/BO4E-python/latest/api/bo4e.enum.html#bo4e.enum.typ.Typ" xlink:type="simple"><text fill="#0000FF" font-family="sans-serif" font-size="14" lengthAdjust="spacing" text-decoration="underline" textLength="25" x="682" y="620.0251">Typ</text></a><text fill="#000000" font-family="sans-serif" font-size="10" lengthAdjust="spacing" textLength="74" x="657.5" y="632.6091">bo4e.enum.typ</text></g><!--class Tarif--><g id="elem_Tarif"><rect codeLine="3" fill="#F1F1F1" height="111.125" id="Tarif" rx="2.5" ry="2.5" style="stroke:#181818;stroke-width:0.5;" width="323" x="7" y="306.44"/><ellipse cx="133.25" cy="325.4088" fill="#ADD1B2" rx="11" ry="11" style="stroke:#181818;stroke-width:1.0;"/><path d="M136.2188,331.0494 Q135.6406,331.3463 135,331.4869 Q134.3594,331.6431 133.6563,331.6431 Q131.1563,331.6431 129.8281,330.0025 Q128.5156,328.3463 128.5156,325.2213 Q128.5156,322.0963 129.8281,320.44 Q131.1563,318.7838 133.6563,318.7838 Q134.3594,318.7838 135,318.94 Q135.6563,319.0963 136.2188,319.3931 L136.2188,322.1119 Q135.5938,321.5338 135,321.2681 Q134.4063,320.9869 133.7813,320.9869 Q132.4375,320.9869 131.75,322.065 Q131.0625,323.1275 131.0625,325.2213 Q131.0625,327.315 131.75,328.3931 Q132.4375,329.4556 133.7813,329.4556 Q134.4063,329.4556 135,329.19 Q135.5938,328.9088 136.2188,328.3306 L136.2188,331.0494 Z " fill="#000000"/><a href="https://bo4e.github.io/BO4E-python/latest/api/bo4e.bo.html#bo4e.bo.tarif.Tarif" target="_top" title="https://bo4e.github.io/BO4E-python/latest/api/bo4e.bo.html#bo4e.bo.tarif.Tarif" xlink:actuate="onRequest" xlink:href="https://bo4e.github.io/BO4E-python/latest/api/bo4e.bo.html#bo4e.bo.tarif.Tarif" xlink:show="new" xlink:title="https://bo4e.github.io/BO4E-python/latest/api/bo4e.bo.html#bo4e.bo.tarif.Tarif" xlink:type="simple"><text fill="#0000FF" font-family="sans-serif" font-size="14" lengthAdjust="spacing" text-decoration="underline" textLength="29" x="170.25" y="324.4351">Tarif</text></a><text fill="#000000" font-family="sans-serif" font-size="10" lengthAdjust="spacing" textLength="62" x="153.75" y="337.0191">bo4e.bo.tarif</text><line style="stroke:#181818;stroke-width:0.5;" x1="8" x2="329" y1="344.3775" y2="344.3775"/><text fill="#000000" font-family="sans-serif" font-size="14" lengthAdjust="spacing" textLength="183" x="13" y="361.3726">_version : str [0..1] = 0.0.0</text><text fill="#000000" font-family="sans-serif" font-size="14" lengthAdjust="spacing" textLength="311" x="13" y="377.6695">zusatzAttribute : ZusatzAttribut [0..*] = None</text><text fill="#000000" font-family="sans-serif" font-size="14" lengthAdjust="spacing" textLength="147" x="13" y="393.9664">_id : str [0..1] = None</text><text fill="#000000" font-family="sans-serif" font-size="14" lengthAdjust="spacing" textLength="288" x="13" y="410.2632">preisstand : AwareDatetime [0..1] = None</text></g><!--link Tarif to Tarifinfo--><g id="link_Tarif_Tarifinfo"><path codeLine="24" d="M239.6,306 C274.46,279.82 318.04,249.53 360,227 C448.7,179.37 542.5717,146.1213 607.9517,125.2613 " fill="none" id="Tarif-to-Tarifinfo" style="stroke:#181818;stroke-width:1.0;"/><polygon fill="none" points="625.1,119.79,606.1279,119.5452,609.7754,130.9774,625.1,119.79" style="stroke:#181818;stroke-width:1.0;"/></g><!--link Tarif to Typ--><g id="link_Tarif_Typ"><path codeLine="25" d="M238.1,417.98 C273.14,444.81 317.31,476.03 360,499 C449.92,547.38 551.7318,582.1573 616.7218,602.1773 " fill="none" id="Tarif-to-Typ" style="stroke:#181818;stroke-width:1.0;"/><polygon fill="#181818" points="628.19,605.71,623.6335,600.1209,616.7218,602.1773,621.2783,607.7664,628.19,605.71" style="stroke:#181818;stroke-width:1.0;"/><text fill="#000000" font-family="sans-serif" font-size="13" lengthAdjust="spacing" textLength="27" x="423" y="495.0669">_typ</text><text fill="#000000" font-family="sans-serif" font-size="13" lengthAdjust="spacing" textLength="24" x="596.6385" y="616.884">0..1</text></g><!--link Tarif to Tarifberechnungsparameter--><g id="link_Tarif_Tarifberechnungsparameter"><path codeLine="26" d="M330.48,385 C408.01,396.07 487.1706,407.3829 556.9606,417.3529 " fill="none" id="Tarif-to-Tarifberechnungsparameter" style="stroke:#181818;stroke-width:1.0;"/><polygon fill="#181818" points="568.84,419.05,563.466,414.2417,556.9606,417.3529,562.3346,422.1613,568.84,419.05" style="stroke:#181818;stroke-width:1.0;"/><text fill="#000000" font-family="sans-serif" font-size="13" lengthAdjust="spacing" textLength="151" x="361" y="386.0669">berechnungsparameter</text><text fill="#000000" font-family="sans-serif" font-size="13" lengthAdjust="spacing" textLength="24" x="536.854" y="430.5799">0..1</text></g><!--link Tarif to TarifpreispositionProOrt--><g id="link_Tarif_TarifpreispositionProOrt"><path codeLine="27" d="M308.9,418.01 C325.99,424.11 343.31,429.93 360,435 C434.26,457.56 508.3106,474.3589 572.4406,487.3989 " fill="none" id="Tarif-to-TarifpreispositionProOrt" style="stroke:#181818;stroke-width:1.0;"/><polygon fill="#181818" points="584.2,489.79,579.1174,484.6747,572.4406,487.3989,577.5233,492.5142,584.2,489.79" style="stroke:#181818;stroke-width:1.0;"/><text fill="#000000" font-family="sans-serif" font-size="13" lengthAdjust="spacing" textLength="64" x="404.5" y="431.0669">tarifpreise</text><text fill="#000000" font-family="sans-serif" font-size="13" lengthAdjust="spacing" textLength="23" x="553.55" y="501.1086">0..*</text></g><!--link Tarif to AufAbschlagRegional--><g id="link_Tarif_AufAbschlagRegional"><path codeLine="28" d="M311.29,306.02 C327.61,300.29 344.1,294.82 360,290 C437.2,266.61 515.0261,248.9279 579.8261,235.5979 " fill="none" id="Tarif-to-AufAbschlagRegional" style="stroke:#181818;stroke-width:1.0;"/><polygon fill="#181818" points="591.58,233.18,584.8971,230.471,579.8261,235.5979,586.509,238.3069,591.58,233.18" style="stroke:#181818;stroke-width:1.0;"/><text fill="#000000" font-family="sans-serif" font-size="13" lengthAdjust="spacing" textLength="120" x="376.5" y="248.0669">tarifAufAbschlaege</text><text fill="#000000" font-family="sans-serif" font-size="13" lengthAdjust="spacing" textLength="23" x="561.132" y="247.0643">0..*</text></g><!--link Tarif to Preisgarantie--><g id="link_Tarif_Preisgarantie"><path codeLine="29" d="M330.48,339 C423.66,325.69 524.4807,311.2875 596.3507,301.0175 " fill="none" id="Tarif-to-Preisgarantie" style="stroke:#181818;stroke-width:1.0;"/><polygon fill="#181818" points="608.23,299.32,601.7245,296.209,596.3507,301.0175,602.8562,304.1285,608.23,299.32" style="stroke:#181818;stroke-width:1.0;"/><text fill="#000000" font-family="sans-serif" font-size="13" lengthAdjust="spacing" textLength="84" x="394.5" y="311.0669">preisgarantie</text><text fill="#000000" font-family="sans-serif" font-size="13" lengthAdjust="spacing" textLength="24" x="576.3692" y="313.0359">0..1</text></g><!--link Tarif to Tarifeinschraenkung--><g id="link_Tarif_Tarifeinschraenkung"><path codeLine="30" d="M330.48,362 C416.93,362 508.18,362 580.05,362 " fill="none" id="Tarif-to-Tarifeinschraenkung" style="stroke:#181818;stroke-width:1.0;"/><polygon fill="#181818" points="592.05,362,586.05,358,580.05,362,586.05,366,592.05,362" style="stroke:#181818;stroke-width:1.0;"/><text fill="#000000" font-family="sans-serif" font-size="13" lengthAdjust="spacing" textLength="126" x="373.5" y="358.0669">tarifeinschraenkung</text><text fill="#000000" font-family="sans-serif" font-size="13" lengthAdjust="spacing" textLength="24" x="560.5998" y="374.6226">0..1</text></g><!--SRC=[jLNVRzem47vk_eeJUKCYWDPrLRHLecjVrshgKncg73WIQuaTsPTLiEr_dvq4GbA7FK25Y78__DdVTvTpYci2ag1ud12ikC8bSIayRvaohM4mdoT4kGx7uqXUOX1pIeeeu79y-t1vFyetb4WnJXcXfZ7BUPKLoI2XBFLt1Z75ry6JVKBvN2n-YC-QRp6SJcvQMGDWkig1tzx5oozKsXm7Gj2aO3u9Wka2li0aC3_lObjeHjiPaU9HGMYodbkUSi7GBlWc1HeulkeYLO5S8TUQcB3nsIjJU6Se4S-ma_dNymJBKETiYQU90xMnM9IKQmlyswkxJxDhI_xi5U1YBQigs3VOl_LNmqQRYbZBA72g04kP7IXWh4C9Z0d-_MHsVVNrL0rs-_XxYnLh5kbbah9OOMpwYgN1h5ZFQj_tsWSEtrkDUW1BAWw0StCfMpPcYWdY63mUMj2ot2TlBI_Ft5fqxjEMtOHS64qKG_6p477LYMqVE7pkypi0cqPj-z-5IuHcKYR2m9jFGPalWb1LZ5mHw8qSOUTARpYwek_2jEoKN6fkxuLSIQce8jeAF2hve0Zw0aTeEl0RbWweCqmW5CNX2BBcuGooDlYhwVB3nvC7yNuhlp5famTFcnpC_wqkkunAWqrkhvpwwXoD_jpiBefcZk-Y9Zo4WRsj1WsDSfyGNWnWRvwjH7_dXk3ij2xOi0lcweuGcehZKGZNLAvNDo6CyIYfzb0CeJNp_Yz7PpJLstTcYvVm5KA6cL59UpgHhr03hpccA_qF]--></g></svg>