<svg xmlns="http://www.w3.org/2000/svg" xmlns:xlink="http://www.w3.org/1999/xlink" contentStyleType="text/css" data-diagram-type="CLASS" height="242px" preserveAspectRatio="none" style="width:637px;height:242px;background:#FFFFFF;" version="1.1" viewBox="0 0 637 242" width="637px" zoomAndPan="magnify"><defs/><g><!--cluster bo4e--><g class="cluster" data-entity="bo4e" data-source-line="10" data-uid="ent0005" id="cluster_bo4e"><path d="M437.64,6 L477.516,6 A3.75,3.75 0 0 1 480.016,8.5 L487.016,28.2969 L627.66,28.2969 A2.5,2.5 0 0 1 630.16,30.7969 L630.16,232.5 A2.5,2.5 0 0 1 627.66,235 L437.64,235 A2.5,2.5 0 0 1 435.14,232.5 L435.14,8.5 A2.5,2.5 0 0 1 437.64,6" fill="none" style="stroke:#000000;stroke-width:1.5;"/><line style="stroke:#000000;stroke-width:1.5;" x1="435.14" x2="487.016" y1="28.2969" y2="28.2969"/><text fill="#000000" font-family="sans-serif" font-size="14" font-weight="bold" lengthAdjust="spacing" textLength="38.876" x="439.14" y="20.9951">bo4e</text></g><!--cluster bo--><g class="cluster" data-entity="bo" data-source-line="9" data-uid="ent0003" id="cluster_bo"><path d="M461.64,49 L526.474,49 A3.75,3.75 0 0 1 528.974,51.5 L535.974,71.2969 L603.66,71.2969 A2.5,2.5 0 0 1 606.16,73.7969 L606.16,208.5 A2.5,2.5 0 0 1 603.66,211 L461.64,211 A2.5,2.5 0 0 1 459.14,208.5 L459.14,51.5 A2.5,2.5 0 0 1 461.64,49" fill="#B6D7A8" style="stroke:#000000;stroke-width:1.5;"/><line style="stroke:#000000;stroke-width:1.5;" x1="459.14" x2="535.974" y1="71.2969" y2="71.2969"/><a href="file:////home/runner/work/BO4E-python/BO4E-python/docs/../.tox/docs/tmp/html/api/bo4e.bo.html" target="_top" title="file:////home/runner/work/BO4E-python/BO4E-python/docs/../.tox/docs/tmp/html/api/bo4e.bo.html" xlink:actuate="onRequest" xlink:href="file:////home/runner/work/BO4E-python/BO4E-python/docs/../.tox/docs/tmp/html/api/bo4e.bo.html" xlink:show="new" xlink:title="file:////home/runner/work/BO4E-python/BO4E-python/docs/../.tox/docs/tmp/html/api/bo4e.bo.html" xlink:type="simple"><text fill="#0000FF" font-family="sans-serif" font-size="14" font-weight="bold" lengthAdjust="spacing" text-decoration="underline" textLength="63.834" x="463.14" y="63.9951">bo4e.bo</text></a></g><!--class Kosten--><g class="entity" data-entity="Kosten" data-source-line="10" data-uid="ent0004" id="entity_Kosten"><rect fill="#F1F1F1" height="37.9375" rx="2.5" ry="2.5" style="stroke:#181818;stroke-width:0.5;" width="109.334" x="477.99" y="84.03"/><ellipse cx="492.99" cy="102.9988" fill="#ADD1B2" rx="11" ry="11" style="stroke:#181818;stroke-width:1;"/><path d="M495.9588,108.6394 Q495.3806,108.9363 494.74,109.0769 Q494.0994,109.2331 493.3963,109.2331 Q490.8963,109.2331 489.5681,107.5925 Q488.2556,105.9363 488.2556,102.8113 Q488.2556,99.6863 489.5681,98.03 Q490.8963,96.3738 493.3963,96.3738 Q494.0994,96.3738 494.74,96.53 Q495.3963,96.6863 495.9588,96.9831 L495.9588,99.7019 Q495.3338,99.1238 494.74,98.8581 Q494.1463,98.5769 493.5213,98.5769 Q492.1775,98.5769 491.49,99.655 Q490.8025,100.7175 490.8025,102.8113 Q490.8025,104.905 491.49,105.9831 Q492.1775,107.0456 493.5213,107.0456 Q494.1463,107.0456 494.74,106.78 Q495.3338,106.4988 495.9588,105.9206 L495.9588,108.6394 Z " fill="#000000"/><a href="file:////home/runner/work/BO4E-python/BO4E-python/docs/../.tox/docs/tmp/html/api/bo4e.bo.html#bo4e.bo.kosten.Kosten" target="_top" title="file:////home/runner/work/BO4E-python/BO4E-python/docs/../.tox/docs/tmp/html/api/bo4e.bo.html#bo4e.bo.kosten.Kosten" xlink:actuate="onRequest" xlink:href="file:////home/runner/work/BO4E-python/BO4E-python/docs/../.tox/docs/tmp/html/api/bo4e.bo.html#bo4e.bo.kosten.Kosten" xlink:show="new" xlink:title="file:////home/runner/work/BO4E-python/BO4E-python/docs/../.tox/docs/tmp/html/api/bo4e.bo.html#bo4e.bo.kosten.Kosten" xlink:type="simple"><text fill="#0000FF" font-family="sans-serif" font-size="14" lengthAdjust="spacing" text-decoration="underline" textLength="48.0156" x="521.6492" y="102.0251">Kosten</text></a><text fill="#000000" font-family="sans-serif" font-size="10" lengthAdjust="spacing" textLength="77.334" x="506.99" y="114.6091">bo4e.bo.kosten</text></g><!--class Tarifinfo--><g class="entity" data-entity="Tarifinfo" data-source-line="11" data-uid="ent0006" id="entity_Tarifinfo"><rect fill="#F1F1F1" height="37.9375" rx="2.5" ry="2.5" style="stroke:#181818;stroke-width:0.5;" width="115.0176" x="475.14" y="157.03"/><ellipse cx="490.14" cy="175.9988" fill="#ADD1B2" rx="11" ry="11" style="stroke:#181818;stroke-width:1;"/><path d="M493.1088,181.6394 Q492.5306,181.9363 491.89,182.0769 Q491.2494,182.2331 490.5463,182.2331 Q488.0463,182.2331 486.7181,180.5925 Q485.4056,178.9363 485.4056,175.8113 Q485.4056,172.6863 486.7181,171.03 Q488.0463,169.3738 490.5463,169.3738 Q491.2494,169.3738 491.89,169.53 Q492.5463,169.6863 493.1088,169.9831 L493.1088,172.7019 Q492.4838,172.1238 491.89,171.8581 Q491.2963,171.5769 490.6713,171.5769 Q489.3275,171.5769 488.64,172.655 Q487.9525,173.7175 487.9525,175.8113 Q487.9525,177.905 488.64,178.9831 Q489.3275,180.0456 490.6713,180.0456 Q491.2963,180.0456 491.89,179.78 Q492.4838,179.4988 493.1088,178.9206 L493.1088,181.6394 Z " fill="#000000"/><a href="file:////home/runner/work/BO4E-python/BO4E-python/docs/../.tox/docs/tmp/html/api/bo4e.bo.html#bo4e.bo.tarifinfo.Tarifinfo" target="_top" title="file:////home/runner/work/BO4E-python/BO4E-python/docs/../.tox/docs/tmp/html/api/bo4e.bo.html#bo4e.bo.tarifinfo.Tarifinfo" xlink:actuate="onRequest" xlink:href="file:////home/runner/work/BO4E-python/BO4E-python/docs/../.tox/docs/tmp/html/api/bo4e.bo.html#bo4e.bo.tarifinfo.Tarifinfo" xlink:show="new" xlink:title="file:////home/runner/work/BO4E-python/BO4E-python/docs/../.tox/docs/tmp/html/api/bo4e.bo.html#bo4e.bo.tarifinfo.Tarifinfo" xlink:type="simple"><text fill="#0000FF" font-family="sans-serif" font-size="14" lengthAdjust="spacing" text-decoration="underline" textLength="57.9619" x="516.6678" y="175.0251">Tarifinfo</text></a><text fill="#000000" font-family="sans-serif" font-size="10" lengthAdjust="spacing" textLength="83.0176" x="504.14" y="187.6091">bo4e.bo.tarifinfo</text></g><!--class Tarifkosten--><g class="entity" data-entity="Tarifkosten" data-source-line="3" data-uid="ent0002" id="entity_Tarifkosten"><rect fill="#F1F1F1" height="94.8281" rx="2.5" ry="2.5" style="stroke:#181818;stroke-width:0.5;" width="337.1445" x="7" y="92.59"/><ellipse cx="122.4258" cy="111.5588" fill="#ADD1B2" rx="11" ry="11" style="stroke:#181818;stroke-width:1;"/><path d="M125.3945,117.1994 Q124.8164,117.4963 124.1758,117.6369 Q123.5352,117.7931 122.832,117.7931 Q120.332,117.7931 119.0039,116.1525 Q117.6914,114.4963 117.6914,111.3713 Q117.6914,108.2463 119.0039,106.59 Q120.332,104.9338 122.832,104.9338 Q123.5352,104.9338 124.1758,105.09 Q124.832,105.2463 125.3945,105.5431 L125.3945,108.2619 Q124.7695,107.6838 124.1758,107.4181 Q123.582,107.1369 122.957,107.1369 Q121.6133,107.1369 120.9258,108.215 Q120.2383,109.2775 120.2383,111.3713 Q120.2383,113.465 120.9258,114.5431 Q121.6133,115.6056 122.957,115.6056 Q123.582,115.6056 124.1758,115.34 Q124.7695,115.0588 125.3945,114.4806 L125.3945,117.1994 Z " fill="#000000"/><a href="file:////home/runner/work/BO4E-python/BO4E-python/docs/../.tox/docs/tmp/html/api/bo4e.bo.html#bo4e.bo.tarifkosten.Tarifkosten" target="_top" title="file:////home/runner/work/BO4E-python/BO4E-python/docs/../.tox/docs/tmp/html/api/bo4e.bo.html#bo4e.bo.tarifkosten.Tarifkosten" xlink:actuate="onRequest" xlink:href="file:////home/runner/work/BO4E-python/BO4E-python/docs/../.tox/docs/tmp/html/api/bo4e.bo.html#bo4e.bo.tarifkosten.Tarifkosten" xlink:show="new" xlink:title="file:////home/runner/work/BO4E-python/BO4E-python/docs/../.tox/docs/tmp/html/api/bo4e.bo.html#bo4e.bo.tarifkosten.Tarifkosten" xlink:type="simple"><text fill="#0000FF" font-family="sans-serif" font-size="14" lengthAdjust="spacing" text-decoration="underline" textLength="78.6475" x="152.4985" y="110.5851">Tarifkosten</text></a><text fill="#000000" font-family="sans-serif" font-size="10" lengthAdjust="spacing" textLength="97.793" x="142.9258" y="123.1691">bo4e.bo.tarifkosten</text><line style="stroke:#181818;stroke-width:0.5;" x1="8" x2="343.1445" y1="130.5275" y2="130.5275"/><text fill="#000000" font-family="sans-serif" font-size="14" lengthAdjust="spacing" textLength="325.1445" x="13" y="147.5226">_version : str [0..1] = 202501.0.0+gfbaef5da5</text><text fill="#000000" font-family="sans-serif" font-size="14" lengthAdjust="spacing" textLength="318.5752" x="13" y="163.8195">zusatzAttribute : ZusatzAttribut [0..*] = None</text><text fill="#000000" font-family="sans-serif" font-size="14" lengthAdjust="spacing" textLength="151.1768" x="13" y="180.1164">_id : str [0..1] = None</text></g><!--link Tarifkosten to Tarifinfo--><g class="link" data-entity-1="Tarifkosten" data-entity-2="Tarifinfo" data-source-line="14" data-uid="lnk7" id="link_Tarifkosten_Tarifinfo"><path codeLine="14" d="M344.49,157.02 C391.5,161.79 421.5015,164.8375 457.0715,168.4375" fill="none" id="Tarifkosten-to-Tarifinfo" style="stroke:#181818;stroke-width:1;"/><polygon fill="none" points="474.98,170.25,457.6757,162.468,456.4673,174.407,474.98,170.25" style="stroke:#181818;stroke-width:1;"/></g><!--link Tarifkosten to Kosten--><g class="link" data-entity-1="Tarifkosten" data-entity-2="Kosten" data-source-line="15" data-uid="lnk8" id="link_Tarifkosten_Kosten"><path codeLine="15" d="M344.49,122.5 C392.76,117.47 430.0348,113.5955 465.8748,109.8555" fill="none" id="Tarifkosten-to-Kosten" style="stroke:#181818;stroke-width:1;"/><polygon fill="#181818" points="477.81,108.61,471.4272,105.2543,465.8748,109.8555,472.2576,113.2111,477.81,108.61" style="stroke:#181818;stroke-width:1;"/><text fill="#000000" font-family="sans-serif" font-size="13" lengthAdjust="spacing" textLength="43.5894" x="375.14" y="111.0669">kosten</text><text fill="#000000" font-family="sans-serif" font-size="13" lengthAdjust="spacing" textLength="24.8066" x="445.2969" y="122.3653">0..1</text></g><!--SRC=[lL9TJy8m57scl-9cl65e1m4rYv90z8b4NtmI5zDjTwnXQvUsYAB-T_V5numyIf_EQKzFsdjEYh45gq2BPM8X4Xf3AvGa94ovCU0i5h58qMF5IbI6JA-bHCqsIg_Ox75qtyy_RA9a2qSgD8nIHgrwhudDSfROB6Ky5onG8wI1ekL6TqSiro9UAMDHqgS3XYFi-o_oneWjUWDtyiSz1xWvriCdwRo-eJR5Vy03OpKiN4e7Fjp2q1sEtG5rgNknZ0EEyJZYOzBPhWstswcrMWHhYyMjvzPEPT0h3HwKnC9UHB-TguDlGYJFqEGyn7-V8JJ4zwi9D0owiykxg-brEOKpPzd4EAzJc9yExoYtMdNsfrRr4J9MTUbA17jqkd3bwQ5k9IiZRnMtt_-QxB8ucBSrXQW7JjaSPozjfkP1hI4a4H52XbbGD9cOH6sWvH4BJ2Fp0m00]--></g></svg>