<?xml version="1.0" encoding="us-ascii" standalone="no"?><svg xmlns="http://www.w3.org/2000/svg" xmlns:xlink="http://www.w3.org/1999/xlink" contentStyleType="text/css" height="242px" preserveAspectRatio="none" style="width:670px;height:242px;background:#FFFFFF;" version="1.1" viewBox="0 0 670 242" width="670px" zoomAndPan="magnify"><defs/><g><!--cluster bo4e--><g id="cluster_bo4e"><path d="M473.5,6 L514.5,6 A3.75,3.75 0 0 1 517,8.5 L524,28.2969 L660.5,28.2969 A2.5,2.5 0 0 1 663,30.7969 L663,232.5 A2.5,2.5 0 0 1 660.5,235 L473.5,235 A2.5,2.5 0 0 1 471,232.5 L471,8.5 A2.5,2.5 0 0 1 473.5,6 " fill="none" style="stroke:#000000;stroke-width:1.5;"/><line style="stroke:#000000;stroke-width:1.5;" x1="471" x2="524" y1="28.2969" y2="28.2969"/><text fill="#000000" font-family="sans-serif" font-size="14" font-weight="bold" lengthAdjust="spacing" textLength="40" x="475" y="20.9951">bo4e</text></g><!--cluster bo--><g id="cluster_bo"><path d="M497.5,49 L563.5,49 A3.75,3.75 0 0 1 566,51.5 L573,71.2969 L636.5,71.2969 A2.5,2.5 0 0 1 639,73.7969 L639,208.5 A2.5,2.5 0 0 1 636.5,211 L497.5,211 A2.5,2.5 0 0 1 495,208.5 L495,51.5 A2.5,2.5 0 0 1 497.5,49 " fill="#B6D7A8" style="stroke:#000000;stroke-width:1.5;"/><line style="stroke:#000000;stroke-width:1.5;" x1="495" x2="573" y1="71.2969" y2="71.2969"/><a href="https://bo4e.github.io/BO4E-python/latest/api/bo4e.bo.html" target="_top" title="https://bo4e.github.io/BO4E-python/latest/api/bo4e.bo.html" xlink:actuate="onRequest" xlink:href="https://bo4e.github.io/BO4E-python/latest/api/bo4e.bo.html" xlink:show="new" xlink:title="https://bo4e.github.io/BO4E-python/latest/api/bo4e.bo.html" xlink:type="simple"><text fill="#0000FF" font-family="sans-serif" font-size="14" font-weight="bold" lengthAdjust="spacing" text-decoration="underline" textLength="65" x="499" y="63.9951">bo4e.bo</text></a></g><!--class Tarifinfo--><g id="elem_Tarifinfo"><rect codeLine="10" fill="#F1F1F1" height="37.9375" id="Tarifinfo" rx="2.5" ry="2.5" style="stroke:#181818;stroke-width:0.5;" width="112" x="511" y="84.03"/><ellipse cx="526" cy="102.9988" fill="#ADD1B2" rx="11" ry="11" style="stroke:#181818;stroke-width:1.0;"/><path d="M528.9688,108.6394 Q528.3906,108.9363 527.75,109.0769 Q527.1094,109.2331 526.4063,109.2331 Q523.9063,109.2331 522.5781,107.5925 Q521.2656,105.9363 521.2656,102.8113 Q521.2656,99.6863 522.5781,98.03 Q523.9063,96.3738 526.4063,96.3738 Q527.1094,96.3738 527.75,96.53 Q528.4063,96.6863 528.9688,96.9831 L528.9688,99.7019 Q528.3438,99.1238 527.75,98.8581 Q527.1563,98.5769 526.5313,98.5769 Q525.1875,98.5769 524.5,99.655 Q523.8125,100.7175 523.8125,102.8113 Q523.8125,104.905 524.5,105.9831 Q525.1875,107.0456 526.5313,107.0456 Q527.1563,107.0456 527.75,106.78 Q528.3438,106.4988 528.9688,105.9206 L528.9688,108.6394 Z " fill="#000000"/><a href="https://bo4e.github.io/BO4E-python/latest/api/bo4e.bo.html#bo4e.bo.tarifinfo.Tarifinfo" target="_top" title="https://bo4e.github.io/BO4E-python/latest/api/bo4e.bo.html#bo4e.bo.tarifinfo.Tarifinfo" xlink:actuate="onRequest" xlink:href="https://bo4e.github.io/BO4E-python/latest/api/bo4e.bo.html#bo4e.bo.tarifinfo.Tarifinfo" xlink:show="new" xlink:title="https://bo4e.github.io/BO4E-python/latest/api/bo4e.bo.html#bo4e.bo.tarifinfo.Tarifinfo" xlink:type="simple"><text fill="#0000FF" font-family="sans-serif" font-size="14" lengthAdjust="spacing" text-decoration="underline" textLength="54" x="553" y="102.0251">Tarifinfo</text></a><text fill="#000000" font-family="sans-serif" font-size="10" lengthAdjust="spacing" textLength="80" x="540" y="114.6091">bo4e.bo.tarifinfo</text></g><!--class Kosten--><g id="elem_Kosten"><rect codeLine="11" fill="#F1F1F1" height="37.9375" id="Kosten" rx="2.5" ry="2.5" style="stroke:#181818;stroke-width:0.5;" width="106" x="514" y="157.03"/><ellipse cx="529" cy="175.9988" fill="#ADD1B2" rx="11" ry="11" style="stroke:#181818;stroke-width:1.0;"/><path d="M531.9688,181.6394 Q531.3906,181.9363 530.75,182.0769 Q530.1094,182.2331 529.4063,182.2331 Q526.9063,182.2331 525.5781,180.5925 Q524.2656,178.9363 524.2656,175.8113 Q524.2656,172.6863 525.5781,171.03 Q526.9063,169.3738 529.4063,169.3738 Q530.1094,169.3738 530.75,169.53 Q531.4063,169.6863 531.9688,169.9831 L531.9688,172.7019 Q531.3438,172.1238 530.75,171.8581 Q530.1563,171.5769 529.5313,171.5769 Q528.1875,171.5769 527.5,172.655 Q526.8125,173.7175 526.8125,175.8113 Q526.8125,177.905 527.5,178.9831 Q528.1875,180.0456 529.5313,180.0456 Q530.1563,180.0456 530.75,179.78 Q531.3438,179.4988 531.9688,178.9206 L531.9688,181.6394 Z " fill="#000000"/><a href="https://bo4e.github.io/BO4E-python/latest/api/bo4e.bo.html#bo4e.bo.kosten.Kosten" target="_top" title="https://bo4e.github.io/BO4E-python/latest/api/bo4e.bo.html#bo4e.bo.kosten.Kosten" xlink:actuate="onRequest" xlink:href="https://bo4e.github.io/BO4E-python/latest/api/bo4e.bo.html#bo4e.bo.kosten.Kosten" xlink:show="new" xlink:title="https://bo4e.github.io/BO4E-python/latest/api/bo4e.bo.html#bo4e.bo.kosten.Kosten" xlink:type="simple"><text fill="#0000FF" font-family="sans-serif" font-size="14" lengthAdjust="spacing" text-decoration="underline" textLength="49" x="555.5" y="175.0251">Kosten</text></a><text fill="#000000" font-family="sans-serif" font-size="10" lengthAdjust="spacing" textLength="74" x="543" y="187.6091">bo4e.bo.kosten</text></g><!--class Tarifkosten--><g id="elem_Tarifkosten"><rect codeLine="3" fill="#F1F1F1" height="94.8281" id="Tarifkosten" rx="2.5" ry="2.5" style="stroke:#181818;stroke-width:0.5;" width="373" x="7" y="92.59"/><ellipse cx="142.25" cy="111.5588" fill="#ADD1B2" rx="11" ry="11" style="stroke:#181818;stroke-width:1.0;"/><path d="M145.2188,117.1994 Q144.6406,117.4963 144,117.6369 Q143.3594,117.7931 142.6563,117.7931 Q140.1563,117.7931 138.8281,116.1525 Q137.5156,114.4963 137.5156,111.3713 Q137.5156,108.2463 138.8281,106.59 Q140.1563,104.9338 142.6563,104.9338 Q143.3594,104.9338 144,105.09 Q144.6563,105.2463 145.2188,105.5431 L145.2188,108.2619 Q144.5938,107.6838 144,107.4181 Q143.4063,107.1369 142.7813,107.1369 Q141.4375,107.1369 140.75,108.215 Q140.0625,109.2775 140.0625,111.3713 Q140.0625,113.465 140.75,114.5431 Q141.4375,115.6056 142.7813,115.6056 Q143.4063,115.6056 144,115.34 Q144.5938,115.0588 145.2188,114.4806 L145.2188,117.1994 Z " fill="#000000"/><a href="https://bo4e.github.io/BO4E-python/latest/api/bo4e.bo.html#bo4e.bo.tarifkosten.Tarifkosten" target="_top" title="https://bo4e.github.io/BO4E-python/latest/api/bo4e.bo.html#bo4e.bo.tarifkosten.Tarifkosten" xlink:actuate="onRequest" xlink:href="https://bo4e.github.io/BO4E-python/latest/api/bo4e.bo.html#bo4e.bo.tarifkosten.Tarifkosten" xlink:show="new" xlink:title="https://bo4e.github.io/BO4E-python/latest/api/bo4e.bo.html#bo4e.bo.tarifkosten.Tarifkosten" xlink:type="simple"><text fill="#0000FF" font-family="sans-serif" font-size="14" lengthAdjust="spacing" text-decoration="underline" textLength="77" x="171.25" y="110.5851">Tarifkosten</text></a><text fill="#000000" font-family="sans-serif" font-size="10" lengthAdjust="spacing" textLength="94" x="162.75" y="123.1691">bo4e.bo.tarifkosten</text><line style="stroke:#181818;stroke-width:0.5;" x1="8" x2="379" y1="130.5275" y2="130.5275"/><text fill="#000000" font-family="sans-serif" font-size="14" lengthAdjust="spacing" textLength="361" x="13" y="147.5226">_version : str [0..1] = 202401.4.1.dev50+g7314aa9f</text><text fill="#000000" font-family="sans-serif" font-size="14" lengthAdjust="spacing" textLength="311" x="13" y="163.8195">zusatzAttribute : ZusatzAttribut [0..*] = None</text><text fill="#000000" font-family="sans-serif" font-size="14" lengthAdjust="spacing" textLength="147" x="13" y="180.1164">_id : str [0..1] = None</text></g><!--link Tarifkosten to Tarifinfo--><g id="link_Tarifkosten_Tarifinfo"><path codeLine="14" d="M380.25,121.5 C427.96,116.75 457.7487,113.785 492.8687,110.285 " fill="none" id="Tarifkosten-to-Tarifinfo" style="stroke:#181818;stroke-width:1.0;"/><polygon fill="none" points="510.78,108.5,492.2737,104.3146,493.4637,116.2554,510.78,108.5" style="stroke:#181818;stroke-width:1.0;"/></g><!--link Tarifkosten to Kosten--><g id="link_Tarifkosten_Kosten"><path codeLine="15" d="M380.25,158 C429.23,162.75 466.2561,166.3314 501.6161,169.7614 " fill="none" id="Tarifkosten-to-Kosten" style="stroke:#181818;stroke-width:1.0;"/><polygon fill="#181818" points="513.56,170.92,507.9742,166.3594,501.6161,169.7614,507.2018,174.322,513.56,170.92" style="stroke:#181818;stroke-width:1.0;"/><text fill="#000000" font-family="sans-serif" font-size="13" lengthAdjust="spacing" textLength="43" x="411" y="158.0669">kosten</text><text fill="#000000" font-family="sans-serif" font-size="13" lengthAdjust="spacing" textLength="24" x="481.9935" y="183.2745">0..1</text></g><!--SRC=[hL9DJy9043spls9IRXYsBLRHHaaWUYBHYoUnCLiwfHlRtQOxO4JzxxQqVDJ8IMxpTjxErtifnWIaeP2BX22I1Sv9QiNOF1N6W3MR9KIvyMqxr1xoXQHa6NAfxScZTz_FFoZHoau5eI5RvB9cXPedbANTBI1HoFXD6qB5d_On7CH1yA9kZ5oZxpgZF_vP8CmX7pvPvtM5XIc71HyC5J1pE7S3k8M1C_0SbtlSvH6kBfopnV3SzOIuZbbdlJI2rcEYGePBmlBhS-jbKwLNLNdG2iiUClfTVfFuPao934qkvlY_Aq43Wc2pOuEWExcy6uwlgZrFBeLKiQw5g2BOHST5gB9x2Ifqsh4QSqnhRQV7BN7WXffLAT4oLR__DTfUSRzacrEIUc1LWbexQjFRXvh3M28ZX0opi7GPCub-XrQDM68QcHy0]--></g></svg>