<?xml version="1.0" encoding="us-ascii" standalone="no"?><svg xmlns="http://www.w3.org/2000/svg" xmlns:xlink="http://www.w3.org/1999/xlink" contentStyleType="text/css" height="574px" preserveAspectRatio="none" style="width:891px;height:574px;background:#FFFFFF;" version="1.1" viewBox="0 0 891 574" width="891px" zoomAndPan="magnify"><defs/><g><!--cluster bo4e--><g id="cluster_bo4e"><path d="M581.5,6 L622.5,6 A3.75,3.75 0 0 1 625,8.5 L632,28.2969 L881.5,28.2969 A2.5,2.5 0 0 1 884,30.7969 L884,564.5 A2.5,2.5 0 0 1 881.5,567 L581.5,567 A2.5,2.5 0 0 1 579,564.5 L579,8.5 A2.5,2.5 0 0 1 581.5,6 " fill="none" style="stroke:#000000;stroke-width:1.5;"/><line style="stroke:#000000;stroke-width:1.5;" x1="579" x2="632" y1="28.2969" y2="28.2969"/><text fill="#000000" font-family="sans-serif" font-size="14" font-weight="bold" lengthAdjust="spacing" textLength="40" x="583" y="20.9951">bo4e</text></g><!--cluster bo--><g id="cluster_bo"><path d="M662,49 L728,49 A3.75,3.75 0 0 1 730.5,51.5 L737.5,71.2969 L801,71.2969 A2.5,2.5 0 0 1 803.5,73.7969 L803.5,135.5 A2.5,2.5 0 0 1 801,138 L662,138 A2.5,2.5 0 0 1 659.5,135.5 L659.5,51.5 A2.5,2.5 0 0 1 662,49 " fill="#B6D7A8" style="stroke:#000000;stroke-width:1.5;"/><line style="stroke:#000000;stroke-width:1.5;" x1="659.5" x2="737.5" y1="71.2969" y2="71.2969"/><a href="https://bo4e.github.io/BO4E-python/latest/api/bo4e.bo.html" target="_top" title="https://bo4e.github.io/BO4E-python/latest/api/bo4e.bo.html" xlink:actuate="onRequest" xlink:href="https://bo4e.github.io/BO4E-python/latest/api/bo4e.bo.html" xlink:show="new" xlink:title="https://bo4e.github.io/BO4E-python/latest/api/bo4e.bo.html" xlink:type="simple"><text fill="#0000FF" font-family="sans-serif" font-size="14" font-weight="bold" lengthAdjust="spacing" text-decoration="underline" textLength="65" x="663.5" y="63.9951">bo4e.bo</text></a></g><!--cluster com--><g id="cluster_com"><path d="M605.5,162 L684.5,162 A3.75,3.75 0 0 1 687,164.5 L694,184.2969 L857.5,184.2969 A2.5,2.5 0 0 1 860,186.7969 L860,540.5 A2.5,2.5 0 0 1 857.5,543 L605.5,543 A2.5,2.5 0 0 1 603,540.5 L603,164.5 A2.5,2.5 0 0 1 605.5,162 " fill="#E0A86C" style="stroke:#000000;stroke-width:1.5;"/><line style="stroke:#000000;stroke-width:1.5;" x1="603" x2="694" y1="184.2969" y2="184.2969"/><a href="https://bo4e.github.io/BO4E-python/latest/api/bo4e.com.html" target="_top" title="https://bo4e.github.io/BO4E-python/latest/api/bo4e.com.html" xlink:actuate="onRequest" xlink:href="https://bo4e.github.io/BO4E-python/latest/api/bo4e.com.html" xlink:show="new" xlink:title="https://bo4e.github.io/BO4E-python/latest/api/bo4e.com.html" xlink:type="simple"><text fill="#0000FF" font-family="sans-serif" font-size="14" font-weight="bold" lengthAdjust="spacing" text-decoration="underline" textLength="78" x="607" y="176.9951">bo4e.com</text></a></g><!--class Tarifinfo--><g id="elem_Tarifinfo"><rect codeLine="11" fill="#F1F1F1" height="37.9375" id="Tarifinfo" rx="2.5" ry="2.5" style="stroke:#181818;stroke-width:0.5;" width="112" x="675.5" y="84.03"/><ellipse cx="690.5" cy="102.9987" fill="#ADD1B2" rx="11" ry="11" style="stroke:#181818;stroke-width:1.0;"/><path d="M693.4688,108.6394 Q692.8906,108.9362 692.25,109.0769 Q691.6094,109.2331 690.9063,109.2331 Q688.4063,109.2331 687.0781,107.5925 Q685.7656,105.9362 685.7656,102.8112 Q685.7656,99.6862 687.0781,98.03 Q688.4063,96.3737 690.9063,96.3737 Q691.6094,96.3737 692.25,96.53 Q692.9063,96.6862 693.4688,96.9831 L693.4688,99.7019 Q692.8438,99.1237 692.25,98.8581 Q691.6563,98.5769 691.0313,98.5769 Q689.6875,98.5769 689,99.655 Q688.3125,100.7175 688.3125,102.8112 Q688.3125,104.905 689,105.9831 Q689.6875,107.0456 691.0313,107.0456 Q691.6563,107.0456 692.25,106.78 Q692.8438,106.4987 693.4688,105.9206 L693.4688,108.6394 Z " fill="#000000"/><a href="https://bo4e.github.io/BO4E-python/latest/api/bo4e.bo.html#bo4e.bo.tarifinfo.Tarifinfo" target="_top" title="https://bo4e.github.io/BO4E-python/latest/api/bo4e.bo.html#bo4e.bo.tarifinfo.Tarifinfo" xlink:actuate="onRequest" xlink:href="https://bo4e.github.io/BO4E-python/latest/api/bo4e.bo.html#bo4e.bo.tarifinfo.Tarifinfo" xlink:show="new" xlink:title="https://bo4e.github.io/BO4E-python/latest/api/bo4e.bo.html#bo4e.bo.tarifinfo.Tarifinfo" xlink:type="simple"><text fill="#0000FF" font-family="sans-serif" font-size="14" lengthAdjust="spacing" text-decoration="underline" textLength="54" x="717.5" y="102.0251">Tarifinfo</text></a><text fill="#000000" font-family="sans-serif" font-size="10" lengthAdjust="spacing" textLength="80" x="704.5" y="114.6091">bo4e.bo.tarifinfo</text></g><!--class Tarifberechnungsparameter--><g id="elem_Tarifberechnungsparameter"><rect codeLine="14" fill="#F1F1F1" height="37.9375" id="Tarifberechnungsparameter" rx="2.5" ry="2.5" style="stroke:#181818;stroke-width:0.5;" width="225" x="619" y="197.03"/><ellipse cx="634" cy="215.9987" fill="#ADD1B2" rx="11" ry="11" style="stroke:#181818;stroke-width:1.0;"/><path d="M636.9688,221.6394 Q636.3906,221.9362 635.75,222.0769 Q635.1094,222.2331 634.4063,222.2331 Q631.9063,222.2331 630.5781,220.5925 Q629.2656,218.9362 629.2656,215.8112 Q629.2656,212.6862 630.5781,211.03 Q631.9063,209.3737 634.4063,209.3737 Q635.1094,209.3737 635.75,209.53 Q636.4063,209.6862 636.9688,209.9831 L636.9688,212.7019 Q636.3438,212.1237 635.75,211.8581 Q635.1563,211.5769 634.5313,211.5769 Q633.1875,211.5769 632.5,212.655 Q631.8125,213.7175 631.8125,215.8112 Q631.8125,217.905 632.5,218.9831 Q633.1875,220.0456 634.5313,220.0456 Q635.1563,220.0456 635.75,219.78 Q636.3438,219.4987 636.9688,218.9206 L636.9688,221.6394 Z " fill="#000000"/><a href="https://bo4e.github.io/BO4E-python/latest/api/bo4e.com.html#bo4e.com.tarifberechnungsparameter.Tarifberechnungsparameter" target="_top" title="https://bo4e.github.io/BO4E-python/latest/api/bo4e.com.html#bo4e.com.tarifberechnungsparameter.Tarifberechnungsparameter" xlink:actuate="onRequest" xlink:href="https://bo4e.github.io/BO4E-python/latest/api/bo4e.com.html#bo4e.com.tarifberechnungsparameter.Tarifberechnungsparameter" xlink:show="new" xlink:title="https://bo4e.github.io/BO4E-python/latest/api/bo4e.com.html#bo4e.com.tarifberechnungsparameter.Tarifberechnungsparameter" xlink:type="simple"><text fill="#0000FF" font-family="sans-serif" font-size="14" lengthAdjust="spacing" text-decoration="underline" textLength="193" x="648" y="215.0251">Tarifberechnungsparameter</text></a><text fill="#000000" font-family="sans-serif" font-size="10" lengthAdjust="spacing" textLength="185" x="652" y="227.6091">bo4e.com.tarifberechnungsparameter</text></g><!--class AufAbschlag--><g id="elem_AufAbschlag"><rect codeLine="15" fill="#F1F1F1" height="37.9375" id="AufAbschlag" rx="2.5" ry="2.5" style="stroke:#181818;stroke-width:0.5;" width="141" x="661" y="270.03"/><ellipse cx="676" cy="288.9988" fill="#ADD1B2" rx="11" ry="11" style="stroke:#181818;stroke-width:1.0;"/><path d="M678.9688,294.6394 Q678.3906,294.9363 677.75,295.0769 Q677.1094,295.2331 676.4063,295.2331 Q673.9063,295.2331 672.5781,293.5925 Q671.2656,291.9363 671.2656,288.8113 Q671.2656,285.6863 672.5781,284.03 Q673.9063,282.3738 676.4063,282.3738 Q677.1094,282.3738 677.75,282.53 Q678.4063,282.6863 678.9688,282.9831 L678.9688,285.7019 Q678.3438,285.1238 677.75,284.8581 Q677.1563,284.5769 676.5313,284.5769 Q675.1875,284.5769 674.5,285.655 Q673.8125,286.7175 673.8125,288.8113 Q673.8125,290.905 674.5,291.9831 Q675.1875,293.0456 676.5313,293.0456 Q677.1563,293.0456 677.75,292.78 Q678.3438,292.4988 678.9688,291.9206 L678.9688,294.6394 Z " fill="#000000"/><a href="https://bo4e.github.io/BO4E-python/latest/api/bo4e.com.html#bo4e.com.aufabschlag.AufAbschlag" target="_top" title="https://bo4e.github.io/BO4E-python/latest/api/bo4e.com.html#bo4e.com.aufabschlag.AufAbschlag" xlink:actuate="onRequest" xlink:href="https://bo4e.github.io/BO4E-python/latest/api/bo4e.com.html#bo4e.com.aufabschlag.AufAbschlag" xlink:show="new" xlink:title="https://bo4e.github.io/BO4E-python/latest/api/bo4e.com.html#bo4e.com.aufabschlag.AufAbschlag" xlink:type="simple"><text fill="#0000FF" font-family="sans-serif" font-size="14" lengthAdjust="spacing" text-decoration="underline" textLength="85" x="702" y="288.0251">AufAbschlag</text></a><text fill="#000000" font-family="sans-serif" font-size="10" lengthAdjust="spacing" textLength="109" x="690" y="300.6091">bo4e.com.aufabschlag</text></g><!--class Tarifpreisposition--><g id="elem_Tarifpreisposition"><rect codeLine="16" fill="#F1F1F1" height="37.9375" id="Tarifpreisposition" rx="2.5" ry="2.5" style="stroke:#181818;stroke-width:0.5;" width="163" x="650" y="343.03"/><ellipse cx="665" cy="361.9988" fill="#ADD1B2" rx="11" ry="11" style="stroke:#181818;stroke-width:1.0;"/><path d="M667.9688,367.6394 Q667.3906,367.9363 666.75,368.0769 Q666.1094,368.2331 665.4063,368.2331 Q662.9063,368.2331 661.5781,366.5925 Q660.2656,364.9363 660.2656,361.8113 Q660.2656,358.6863 661.5781,357.03 Q662.9063,355.3738 665.4063,355.3738 Q666.1094,355.3738 666.75,355.53 Q667.4063,355.6863 667.9688,355.9831 L667.9688,358.7019 Q667.3438,358.1238 666.75,357.8581 Q666.1563,357.5769 665.5313,357.5769 Q664.1875,357.5769 663.5,358.655 Q662.8125,359.7175 662.8125,361.8113 Q662.8125,363.905 663.5,364.9831 Q664.1875,366.0456 665.5313,366.0456 Q666.1563,366.0456 666.75,365.78 Q667.3438,365.4988 667.9688,364.9206 L667.9688,367.6394 Z " fill="#000000"/><a href="https://bo4e.github.io/BO4E-python/latest/api/bo4e.com.html#bo4e.com.tarifpreisposition.Tarifpreisposition" target="_top" title="https://bo4e.github.io/BO4E-python/latest/api/bo4e.com.html#bo4e.com.tarifpreisposition.Tarifpreisposition" xlink:actuate="onRequest" xlink:href="https://bo4e.github.io/BO4E-python/latest/api/bo4e.com.html#bo4e.com.tarifpreisposition.Tarifpreisposition" xlink:show="new" xlink:title="https://bo4e.github.io/BO4E-python/latest/api/bo4e.com.html#bo4e.com.tarifpreisposition.Tarifpreisposition" xlink:type="simple"><text fill="#0000FF" font-family="sans-serif" font-size="14" lengthAdjust="spacing" text-decoration="underline" textLength="118" x="685.5" y="361.0251">Tarifpreisposition</text></a><text fill="#000000" font-family="sans-serif" font-size="10" lengthAdjust="spacing" textLength="131" x="679" y="373.6091">bo4e.com.tarifpreisposition</text></g><!--class Preisgarantie--><g id="elem_Preisgarantie"><rect codeLine="17" fill="#F1F1F1" height="37.9375" id="Preisgarantie" rx="2.5" ry="2.5" style="stroke:#181818;stroke-width:0.5;" width="146" x="658.5" y="416.03"/><ellipse cx="673.5" cy="434.9988" fill="#ADD1B2" rx="11" ry="11" style="stroke:#181818;stroke-width:1.0;"/><path d="M676.4688,440.6394 Q675.8906,440.9363 675.25,441.0769 Q674.6094,441.2331 673.9063,441.2331 Q671.4063,441.2331 670.0781,439.5925 Q668.7656,437.9363 668.7656,434.8113 Q668.7656,431.6863 670.0781,430.03 Q671.4063,428.3738 673.9063,428.3738 Q674.6094,428.3738 675.25,428.53 Q675.9063,428.6863 676.4688,428.9831 L676.4688,431.7019 Q675.8438,431.1238 675.25,430.8581 Q674.6563,430.5769 674.0313,430.5769 Q672.6875,430.5769 672,431.655 Q671.3125,432.7175 671.3125,434.8113 Q671.3125,436.905 672,437.9831 Q672.6875,439.0456 674.0313,439.0456 Q674.6563,439.0456 675.25,438.78 Q675.8438,438.4988 676.4688,437.9206 L676.4688,440.6394 Z " fill="#000000"/><a href="https://bo4e.github.io/BO4E-python/latest/api/bo4e.com.html#bo4e.com.preisgarantie.Preisgarantie" target="_top" title="https://bo4e.github.io/BO4E-python/latest/api/bo4e.com.html#bo4e.com.preisgarantie.Preisgarantie" xlink:actuate="onRequest" xlink:href="https://bo4e.github.io/BO4E-python/latest/api/bo4e.com.html#bo4e.com.preisgarantie.Preisgarantie" xlink:show="new" xlink:title="https://bo4e.github.io/BO4E-python/latest/api/bo4e.com.html#bo4e.com.preisgarantie.Preisgarantie" xlink:type="simple"><text fill="#0000FF" font-family="sans-serif" font-size="14" lengthAdjust="spacing" text-decoration="underline" textLength="90" x="699.5" y="434.0251">Preisgarantie</text></a><text fill="#000000" font-family="sans-serif" font-size="10" lengthAdjust="spacing" textLength="114" x="687.5" y="446.6091">bo4e.com.preisgarantie</text></g><!--class Tarifeinschraenkung--><g id="elem_Tarifeinschraenkung"><rect codeLine="18" fill="#F1F1F1" height="37.9375" id="Tarifeinschraenkung" rx="2.5" ry="2.5" style="stroke:#181818;stroke-width:0.5;" width="178" x="642.5" y="489.03"/><ellipse cx="657.5" cy="507.9988" fill="#ADD1B2" rx="11" ry="11" style="stroke:#181818;stroke-width:1.0;"/><path d="M660.4688,513.6394 Q659.8906,513.9363 659.25,514.0769 Q658.6094,514.2331 657.9063,514.2331 Q655.4063,514.2331 654.0781,512.5925 Q652.7656,510.9363 652.7656,507.8113 Q652.7656,504.6863 654.0781,503.03 Q655.4063,501.3738 657.9063,501.3738 Q658.6094,501.3738 659.25,501.53 Q659.9063,501.6863 660.4688,501.9831 L660.4688,504.7019 Q659.8438,504.1238 659.25,503.8581 Q658.6563,503.5769 658.0313,503.5769 Q656.6875,503.5769 656,504.655 Q655.3125,505.7175 655.3125,507.8113 Q655.3125,509.905 656,510.9831 Q656.6875,512.0456 658.0313,512.0456 Q658.6563,512.0456 659.25,511.78 Q659.8438,511.4988 660.4688,510.9206 L660.4688,513.6394 Z " fill="#000000"/><a href="https://bo4e.github.io/BO4E-python/latest/api/bo4e.com.html#bo4e.com.tarifeinschraenkung.Tarifeinschraenkung" target="_top" title="https://bo4e.github.io/BO4E-python/latest/api/bo4e.com.html#bo4e.com.tarifeinschraenkung.Tarifeinschraenkung" xlink:actuate="onRequest" xlink:href="https://bo4e.github.io/BO4E-python/latest/api/bo4e.com.html#bo4e.com.tarifeinschraenkung.Tarifeinschraenkung" xlink:show="new" xlink:title="https://bo4e.github.io/BO4E-python/latest/api/bo4e.com.html#bo4e.com.tarifeinschraenkung.Tarifeinschraenkung" xlink:type="simple"><text fill="#0000FF" font-family="sans-serif" font-size="14" lengthAdjust="spacing" text-decoration="underline" textLength="141" x="674" y="507.0251">Tarifeinschraenkung</text></a><text fill="#000000" font-family="sans-serif" font-size="10" lengthAdjust="spacing" textLength="146" x="671.5" y="519.6091">bo4e.com.tarifeinschraenkung</text></g><!--class Tarifpreisblatt--><g id="elem_Tarifpreisblatt"><rect codeLine="3" fill="#F1F1F1" height="111.125" id="Tarifpreisblatt" rx="2.5" ry="2.5" style="stroke:#181818;stroke-width:0.5;" width="373" x="7" y="274.44"/><ellipse cx="135.75" cy="293.4088" fill="#ADD1B2" rx="11" ry="11" style="stroke:#181818;stroke-width:1.0;"/><path d="M138.7188,299.0494 Q138.1406,299.3463 137.5,299.4869 Q136.8594,299.6431 136.1563,299.6431 Q133.6563,299.6431 132.3281,298.0025 Q131.0156,296.3463 131.0156,293.2213 Q131.0156,290.0963 132.3281,288.44 Q133.6563,286.7838 136.1563,286.7838 Q136.8594,286.7838 137.5,286.94 Q138.1563,287.0963 138.7188,287.3931 L138.7188,290.1119 Q138.0938,289.5338 137.5,289.2681 Q136.9063,288.9869 136.2813,288.9869 Q134.9375,288.9869 134.25,290.065 Q133.5625,291.1275 133.5625,293.2213 Q133.5625,295.315 134.25,296.3931 Q134.9375,297.4556 136.2813,297.4556 Q136.9063,297.4556 137.5,297.19 Q138.0938,296.9088 138.7188,296.3306 L138.7188,299.0494 Z " fill="#000000"/><a href="https://bo4e.github.io/BO4E-python/latest/api/bo4e.bo.html#bo4e.bo.tarifpreisblatt.Tarifpreisblatt" target="_top" title="https://bo4e.github.io/BO4E-python/latest/api/bo4e.bo.html#bo4e.bo.tarifpreisblatt.Tarifpreisblatt" xlink:actuate="onRequest" xlink:href="https://bo4e.github.io/BO4E-python/latest/api/bo4e.bo.html#bo4e.bo.tarifpreisblatt.Tarifpreisblatt" xlink:show="new" xlink:title="https://bo4e.github.io/BO4E-python/latest/api/bo4e.bo.html#bo4e.bo.tarifpreisblatt.Tarifpreisblatt" xlink:type="simple"><text fill="#0000FF" font-family="sans-serif" font-size="14" lengthAdjust="spacing" text-decoration="underline" textLength="93" x="163.25" y="292.4351">Tarifpreisblatt</text></a><text fill="#000000" font-family="sans-serif" font-size="10" lengthAdjust="spacing" textLength="107" x="156.25" y="305.0191">bo4e.bo.tarifpreisblatt</text><line style="stroke:#181818;stroke-width:0.5;" x1="8" x2="379" y1="312.3775" y2="312.3775"/><text fill="#000000" font-family="sans-serif" font-size="14" lengthAdjust="spacing" textLength="361" x="13" y="329.3726">_version : str [0..1] = 202401.4.1.dev50+g7314aa9f</text><text fill="#000000" font-family="sans-serif" font-size="14" lengthAdjust="spacing" textLength="311" x="13" y="345.6695">zusatzAttribute : ZusatzAttribut [0..*] = None</text><text fill="#000000" font-family="sans-serif" font-size="14" lengthAdjust="spacing" textLength="147" x="13" y="361.9664">_id : str [0..1] = None</text><text fill="#000000" font-family="sans-serif" font-size="14" lengthAdjust="spacing" textLength="288" x="13" y="378.2632">preisstand : AwareDatetime [0..1] = None</text></g><!--link Tarifpreisblatt to Tarifinfo--><g id="link_Tarifpreisblatt_Tarifinfo"><path codeLine="21" d="M301.73,274.06 C335.98,256.92 374.27,238.51 410,223 C501.43,183.31 593.6406,149.9989 658.0806,127.6889 " fill="none" id="Tarifpreisblatt-to-Tarifinfo" style="stroke:#181818;stroke-width:1.0;"/><polygon fill="none" points="675.09,121.8,656.1176,122.0191,660.0435,133.3587,675.09,121.8" style="stroke:#181818;stroke-width:1.0;"/></g><!--link Tarifpreisblatt to Tarifpreisposition--><g id="link_Tarifpreisblatt_Tarifpreisposition"><path codeLine="22" d="M380.44,350.77 C390.43,351.6 400.33,352.35 410,353 C491.5,358.49 572.881,360.4846 637.741,361.3246 " fill="none" id="Tarifpreisblatt-to-Tarifpreisposition" style="stroke:#181818;stroke-width:1.0;"/><polygon fill="#181818" points="649.74,361.48,643.7923,357.4026,637.741,361.3246,643.6887,365.402,649.74,361.48" style="stroke:#181818;stroke-width:1.0;"/><text fill="#000000" font-family="sans-serif" font-size="13" lengthAdjust="spacing" textLength="64" x="454.5" y="349.0669">tarifpreise</text><text fill="#000000" font-family="sans-serif" font-size="13" lengthAdjust="spacing" textLength="23" x="619.0169" y="374.1305">0..*</text></g><!--link Tarifpreisblatt to Tarifberechnungsparameter--><g id="link_Tarifpreisblatt_Tarifberechnungsparameter"><path codeLine="23" d="M380.4,284.58 C390.4,282.31 400.32,280.1 410,278 C480.89,262.6 549.2138,249.302 611.6238,237.652 " fill="none" id="Tarifpreisblatt-to-Tarifberechnungsparameter" style="stroke:#181818;stroke-width:1.0;"/><polygon fill="#181818" points="623.42,235.45,616.7879,232.6189,611.6238,237.652,618.2559,240.4831,623.42,235.45" style="stroke:#181818;stroke-width:1.0;"/><text fill="#000000" font-family="sans-serif" font-size="13" lengthAdjust="spacing" textLength="151" x="411" y="244.0669">berechnungsparameter</text><text fill="#000000" font-family="sans-serif" font-size="13" lengthAdjust="spacing" textLength="24" x="587.0368" y="250.3031">0..1</text></g><!--link Tarifpreisblatt to Tarifeinschraenkung--><g id="link_Tarifpreisblatt_Tarifeinschraenkung"><path codeLine="24" d="M294.51,385.97 C330.15,404.21 371.1,423.27 410,437 C486.44,463.99 565.0713,480.8319 630.3613,492.3119 " fill="none" id="Tarifpreisblatt-to-Tarifeinschraenkung" style="stroke:#181818;stroke-width:1.0;"/><polygon fill="#181818" points="642.18,494.39,636.9634,489.4114,630.3613,492.3119,635.578,497.2905,642.18,494.39" style="stroke:#181818;stroke-width:1.0;"/><text fill="#000000" font-family="sans-serif" font-size="13" lengthAdjust="spacing" textLength="126" x="423.5" y="433.0669">tarifeinschraenkung</text><text fill="#000000" font-family="sans-serif" font-size="13" lengthAdjust="spacing" textLength="24" x="610.4227" y="505.9943">0..1</text></g><!--link Tarifpreisblatt to Preisgarantie--><g id="link_Tarifpreisblatt_Preisgarantie"><path codeLine="25" d="M380.26,378.59 C390.3,380.85 400.26,383 410,385 C494.68,402.37 581.1488,415.2775 646.3388,424.1175 " fill="none" id="Tarifpreisblatt-to-Preisgarantie" style="stroke:#181818;stroke-width:1.0;"/><polygon fill="#181818" points="658.23,425.73,652.8219,420.96,646.3388,424.1175,651.7469,428.8875,658.23,425.73" style="stroke:#181818;stroke-width:1.0;"/><text fill="#000000" font-family="sans-serif" font-size="13" lengthAdjust="spacing" textLength="84" x="444.5" y="381.0669">preisgarantie</text><text fill="#000000" font-family="sans-serif" font-size="13" lengthAdjust="spacing" textLength="24" x="626.3692" y="437.64">0..1</text></g><!--link Tarifpreisblatt to AufAbschlag--><g id="link_Tarifpreisblatt_AufAbschlag"><path codeLine="26" d="M380.46,315.78 C477.22,308.37 577.795,300.686 648.595,295.266 " fill="none" id="Tarifpreisblatt-to-AufAbschlag" style="stroke:#181818;stroke-width:1.0;"/><polygon fill="#181818" points="660.56,294.35,654.2722,290.8197,648.595,295.266,654.8828,298.7963,660.56,294.35" style="stroke:#181818;stroke-width:1.0;"/><text fill="#000000" font-family="sans-serif" font-size="13" lengthAdjust="spacing" textLength="120" x="426.5" y="299.0669">tarifAufAbschlaege</text><text fill="#000000" font-family="sans-serif" font-size="13" lengthAdjust="spacing" textLength="23" x="629.9601" y="307.6077">0..*</text></g><!--SRC=[jLLDRvj043s7Np6oRwcyXjHDKjH68askRGyzrRMYnHvWLLZGxf2eRlFVk-0FM8ojH7Pk- -RZCVDcTqWn8g0Sb8WJWeLGE2UHIyUPfrnh64od2L6X_V4up2V8Oa596JAHZs-_JUv7nHzASZbEEQ6cCI_4AYhCMK9PEjm0uaf4XKAXGnDAx8UDeODdir_oanPBz3ttPW_70BZkvi5Vv-pX4PKs3O0FcXHCNSQy6No62_TYudfimZosmCSFxhluwhqtuVnZv9mjIyrf6H0f4PQ49lMdPQbPpYkMhxb4ymsnwDAl77KfchYi_C4JLtXdb26HOIVosN4apr0NV8x7QGnhC9lLYgmH36ylxww2wqgHamzIo2XVZR0wmVQqVsoLjnbOXOm2nmempxEM0WQr9J0GXlTkS7tvvLWDDjyPRb7TKuZcgIIobB5fGfbU2DLAbJuFxFNigdRm4usCVTvJTyhBY8TwdgGyPa4P1UipjCxzzRSIwufR2MyoZVhb5RaMrV9gxPUD2NPD1uItuZgRPcC-THirUMm6AKaW-zv6OA7-kgtqkcGhwKr4Ho7DI1L7-TlSmfNgjWrwR0TqjmCRuMrxjJrtVY6ZqR-RpVPhbjDkd0ayXq6rpmVRJT5tNtneRW8UeF6wDBsltuVUr_eAsewkw_8wmhoCpxvRFbXNvuMAjPV1kfR6X34wJY8M21bcfd7jw2H_WXtcI62wqFy1]--></g></svg>