<svg xmlns="http://www.w3.org/2000/svg" xmlns:xlink="http://www.w3.org/1999/xlink" contentStyleType="text/css" data-diagram-type="CLASS" height="574px" preserveAspectRatio="none" style="width:865px;height:574px;background:#FFFFFF;" version="1.1" viewBox="0 0 865 574" width="865px" zoomAndPan="magnify"><defs/><g><!--cluster bo4e--><g class="cluster" data-entity="bo4e" data-source-line="11" data-uid="ent0005" id="cluster_bo4e"><path d="M552.27,6 L592.146,6 A3.75,3.75 0 0 1 594.646,8.5 L601.646,28.2969 L856.12,28.2969 A2.5,2.5 0 0 1 858.62,30.7969 L858.62,564.5 A2.5,2.5 0 0 1 856.12,567 L552.27,567 A2.5,2.5 0 0 1 549.77,564.5 L549.77,8.5 A2.5,2.5 0 0 1 552.27,6" fill="none" style="stroke:#000000;stroke-width:1.5;"/><line style="stroke:#000000;stroke-width:1.5;" x1="549.77" x2="601.646" y1="28.2969" y2="28.2969"/><text fill="#000000" font-family="sans-serif" font-size="14" font-weight="bold" lengthAdjust="spacing" textLength="38.876" x="553.77" y="20.9951">bo4e</text></g><!--cluster bo--><g class="cluster" data-entity="bo" data-source-line="10" data-uid="ent0003" id="cluster_bo"><path d="M633.18,49 L698.014,49 A3.75,3.75 0 0 1 700.514,51.5 L707.514,71.2969 L775.2,71.2969 A2.5,2.5 0 0 1 777.7,73.7969 L777.7,135.5 A2.5,2.5 0 0 1 775.2,138 L633.18,138 A2.5,2.5 0 0 1 630.68,135.5 L630.68,51.5 A2.5,2.5 0 0 1 633.18,49" fill="#B6D7A8" style="stroke:#000000;stroke-width:1.5;"/><line style="stroke:#000000;stroke-width:1.5;" x1="630.68" x2="707.514" y1="71.2969" y2="71.2969"/><a href="file:////home/runner/work/BO4E-python/BO4E-python/docs/../.tox/docs/tmp/html/api/bo4e.bo.html" target="_top" title="file:////home/runner/work/BO4E-python/BO4E-python/docs/../.tox/docs/tmp/html/api/bo4e.bo.html" xlink:actuate="onRequest" xlink:href="file:////home/runner/work/BO4E-python/BO4E-python/docs/../.tox/docs/tmp/html/api/bo4e.bo.html" xlink:show="new" xlink:title="file:////home/runner/work/BO4E-python/BO4E-python/docs/../.tox/docs/tmp/html/api/bo4e.bo.html" xlink:type="simple"><text fill="#0000FF" font-family="sans-serif" font-size="14" font-weight="bold" lengthAdjust="spacing" text-decoration="underline" textLength="63.834" x="634.68" y="63.9951">bo4e.bo</text></a></g><!--cluster com--><g class="cluster" data-entity="com" data-source-line="13" data-uid="ent0006" id="cluster_com"><path d="M576.27,162 L653.9692,162 A3.75,3.75 0 0 1 656.4692,164.5 L663.4692,184.2969 L832.12,184.2969 A2.5,2.5 0 0 1 834.62,186.7969 L834.62,540.5 A2.5,2.5 0 0 1 832.12,543 L576.27,543 A2.5,2.5 0 0 1 573.77,540.5 L573.77,164.5 A2.5,2.5 0 0 1 576.27,162" fill="#E0A86C" style="stroke:#000000;stroke-width:1.5;"/><line style="stroke:#000000;stroke-width:1.5;" x1="573.77" x2="663.4692" y1="184.2969" y2="184.2969"/><a href="file:////home/runner/work/BO4E-python/BO4E-python/docs/../.tox/docs/tmp/html/api/bo4e.com.html" target="_top" title="file:////home/runner/work/BO4E-python/BO4E-python/docs/../.tox/docs/tmp/html/api/bo4e.com.html" xlink:actuate="onRequest" xlink:href="file:////home/runner/work/BO4E-python/BO4E-python/docs/../.tox/docs/tmp/html/api/bo4e.com.html" xlink:show="new" xlink:title="file:////home/runner/work/BO4E-python/BO4E-python/docs/../.tox/docs/tmp/html/api/bo4e.com.html" xlink:type="simple"><text fill="#0000FF" font-family="sans-serif" font-size="14" font-weight="bold" lengthAdjust="spacing" text-decoration="underline" textLength="76.6992" x="577.77" y="176.9951">bo4e.com</text></a></g><!--class Tarifinfo--><g class="entity" data-entity="Tarifinfo" data-source-line="11" data-uid="ent0004" id="entity_Tarifinfo"><rect fill="#F1F1F1" height="37.9375" rx="2.5" ry="2.5" style="stroke:#181818;stroke-width:0.5;" width="115.0176" x="646.68" y="84.03"/><ellipse cx="661.68" cy="102.9987" fill="#ADD1B2" rx="11" ry="11" style="stroke:#181818;stroke-width:1;"/><path d="M664.6488,108.6394 Q664.0706,108.9362 663.43,109.0769 Q662.7894,109.2331 662.0863,109.2331 Q659.5863,109.2331 658.2581,107.5925 Q656.9456,105.9362 656.9456,102.8112 Q656.9456,99.6862 658.2581,98.03 Q659.5863,96.3737 662.0863,96.3737 Q662.7894,96.3737 663.43,96.53 Q664.0863,96.6862 664.6488,96.9831 L664.6488,99.7019 Q664.0238,99.1237 663.43,98.8581 Q662.8363,98.5769 662.2113,98.5769 Q660.8675,98.5769 660.18,99.655 Q659.4925,100.7175 659.4925,102.8112 Q659.4925,104.905 660.18,105.9831 Q660.8675,107.0456 662.2113,107.0456 Q662.8363,107.0456 663.43,106.78 Q664.0238,106.4987 664.6488,105.9206 L664.6488,108.6394 Z " fill="#000000"/><a href="file:////home/runner/work/BO4E-python/BO4E-python/docs/../.tox/docs/tmp/html/api/bo4e.bo.html#bo4e.bo.tarifinfo.Tarifinfo" target="_top" title="file:////home/runner/work/BO4E-python/BO4E-python/docs/../.tox/docs/tmp/html/api/bo4e.bo.html#bo4e.bo.tarifinfo.Tarifinfo" xlink:actuate="onRequest" xlink:href="file:////home/runner/work/BO4E-python/BO4E-python/docs/../.tox/docs/tmp/html/api/bo4e.bo.html#bo4e.bo.tarifinfo.Tarifinfo" xlink:show="new" xlink:title="file:////home/runner/work/BO4E-python/BO4E-python/docs/../.tox/docs/tmp/html/api/bo4e.bo.html#bo4e.bo.tarifinfo.Tarifinfo" xlink:type="simple"><text fill="#0000FF" font-family="sans-serif" font-size="14" lengthAdjust="spacing" text-decoration="underline" textLength="57.9619" x="688.2078" y="102.0251">Tarifinfo</text></a><text fill="#000000" font-family="sans-serif" font-size="10" lengthAdjust="spacing" textLength="83.0176" x="675.68" y="114.6091">bo4e.bo.tarifinfo</text></g><!--class AufAbschlagRegional--><g class="entity" data-entity="AufAbschlagRegional" data-source-line="14" data-uid="ent0007" id="entity_AufAbschlagRegional"><rect fill="#F1F1F1" height="37.9375" rx="2.5" ry="2.5" style="stroke:#181818;stroke-width:0.5;" width="186.209" x="611.09" y="197.03"/><ellipse cx="626.09" cy="215.9987" fill="#ADD1B2" rx="11" ry="11" style="stroke:#181818;stroke-width:1;"/><path d="M629.0588,221.6394 Q628.4806,221.9362 627.84,222.0769 Q627.1994,222.2331 626.4963,222.2331 Q623.9963,222.2331 622.6681,220.5925 Q621.3556,218.9362 621.3556,215.8112 Q621.3556,212.6862 622.6681,211.03 Q623.9963,209.3737 626.4963,209.3737 Q627.1994,209.3737 627.84,209.53 Q628.4963,209.6862 629.0588,209.9831 L629.0588,212.7019 Q628.4338,212.1237 627.84,211.8581 Q627.2463,211.5769 626.6213,211.5769 Q625.2775,211.5769 624.59,212.655 Q623.9025,213.7175 623.9025,215.8112 Q623.9025,217.905 624.59,218.9831 Q625.2775,220.0456 626.6213,220.0456 Q627.2463,220.0456 627.84,219.78 Q628.4338,219.4987 629.0588,218.9206 L629.0588,221.6394 Z " fill="#000000"/><a href="file:////home/runner/work/BO4E-python/BO4E-python/docs/../.tox/docs/tmp/html/api/bo4e.com.html#bo4e.com.aufabschlagregional.AufAbschlagRegional" target="_top" title="file:////home/runner/work/BO4E-python/BO4E-python/docs/../.tox/docs/tmp/html/api/bo4e.com.html#bo4e.com.aufabschlagregional.AufAbschlagRegional" xlink:actuate="onRequest" xlink:href="file:////home/runner/work/BO4E-python/BO4E-python/docs/../.tox/docs/tmp/html/api/bo4e.com.html#bo4e.com.aufabschlagregional.AufAbschlagRegional" xlink:show="new" xlink:title="file:////home/runner/work/BO4E-python/BO4E-python/docs/../.tox/docs/tmp/html/api/bo4e.com.html#bo4e.com.aufabschlagregional.AufAbschlagRegional" xlink:type="simple"><text fill="#0000FF" font-family="sans-serif" font-size="14" lengthAdjust="spacing" text-decoration="underline" textLength="148.0869" x="643.151" y="215.0251">AufAbschlagRegional</text></a><text fill="#000000" font-family="sans-serif" font-size="10" lengthAdjust="spacing" textLength="154.209" x="640.09" y="227.6091">bo4e.com.aufabschlagregional</text></g><!--class Preisgarantie--><g class="entity" data-entity="Preisgarantie" data-source-line="15" data-uid="ent0008" id="entity_Preisgarantie"><rect fill="#F1F1F1" height="37.9375" rx="2.5" ry="2.5" style="stroke:#181818;stroke-width:0.5;" width="151.1992" x="628.59" y="270.03"/><ellipse cx="643.59" cy="288.9988" fill="#ADD1B2" rx="11" ry="11" style="stroke:#181818;stroke-width:1;"/><path d="M646.5588,294.6394 Q645.9806,294.9363 645.34,295.0769 Q644.6994,295.2331 643.9963,295.2331 Q641.4963,295.2331 640.1681,293.5925 Q638.8556,291.9363 638.8556,288.8113 Q638.8556,285.6863 640.1681,284.03 Q641.4963,282.3738 643.9963,282.3738 Q644.6994,282.3738 645.34,282.53 Q645.9963,282.6863 646.5588,282.9831 L646.5588,285.7019 Q645.9338,285.1238 645.34,284.8581 Q644.7463,284.5769 644.1213,284.5769 Q642.7775,284.5769 642.09,285.655 Q641.4025,286.7175 641.4025,288.8113 Q641.4025,290.905 642.09,291.9831 Q642.7775,293.0456 644.1213,293.0456 Q644.7463,293.0456 645.34,292.78 Q645.9338,292.4988 646.5588,291.9206 L646.5588,294.6394 Z " fill="#000000"/><a href="file:////home/runner/work/BO4E-python/BO4E-python/docs/../.tox/docs/tmp/html/api/bo4e.com.html#bo4e.com.preisgarantie.Preisgarantie" target="_top" title="file:////home/runner/work/BO4E-python/BO4E-python/docs/../.tox/docs/tmp/html/api/bo4e.com.html#bo4e.com.preisgarantie.Preisgarantie" xlink:actuate="onRequest" xlink:href="file:////home/runner/work/BO4E-python/BO4E-python/docs/../.tox/docs/tmp/html/api/bo4e.com.html#bo4e.com.preisgarantie.Preisgarantie" xlink:show="new" xlink:title="file:////home/runner/work/BO4E-python/BO4E-python/docs/../.tox/docs/tmp/html/api/bo4e.com.html#bo4e.com.preisgarantie.Preisgarantie" xlink:type="simple"><text fill="#0000FF" font-family="sans-serif" font-size="14" lengthAdjust="spacing" text-decoration="underline" textLength="92.6611" x="670.859" y="288.0251">Preisgarantie</text></a><text fill="#000000" font-family="sans-serif" font-size="10" lengthAdjust="spacing" textLength="119.1992" x="657.59" y="300.6091">bo4e.com.preisgarantie</text></g><!--class TarifpreispositionProOrt--><g class="entity" data-entity="TarifpreispositionProOrt" data-source-line="16" data-uid="ent0009" id="entity_TarifpreispositionProOrt"><rect fill="#F1F1F1" height="37.9375" rx="2.5" ry="2.5" style="stroke:#181818;stroke-width:0.5;" width="200.0908" x="604.15" y="343.03"/><ellipse cx="619.15" cy="361.9988" fill="#ADD1B2" rx="11" ry="11" style="stroke:#181818;stroke-width:1;"/><path d="M622.1188,367.6394 Q621.5406,367.9363 620.9,368.0769 Q620.2594,368.2331 619.5563,368.2331 Q617.0563,368.2331 615.7281,366.5925 Q614.4156,364.9363 614.4156,361.8113 Q614.4156,358.6863 615.7281,357.03 Q617.0563,355.3738 619.5563,355.3738 Q620.2594,355.3738 620.9,355.53 Q621.5563,355.6863 622.1188,355.9831 L622.1188,358.7019 Q621.4938,358.1238 620.9,357.8581 Q620.3063,357.5769 619.6813,357.5769 Q618.3375,357.5769 617.65,358.655 Q616.9625,359.7175 616.9625,361.8113 Q616.9625,363.905 617.65,364.9831 Q618.3375,366.0456 619.6813,366.0456 Q620.3063,366.0456 620.9,365.78 Q621.4938,365.4988 622.1188,364.9206 L622.1188,367.6394 Z " fill="#000000"/><a href="file:////home/runner/work/BO4E-python/BO4E-python/docs/../.tox/docs/tmp/html/api/bo4e.com.html#bo4e.com.tarifpreispositionproort.TarifpreispositionProOrt" target="_top" title="file:////home/runner/work/BO4E-python/BO4E-python/docs/../.tox/docs/tmp/html/api/bo4e.com.html#bo4e.com.tarifpreispositionproort.TarifpreispositionProOrt" xlink:actuate="onRequest" xlink:href="file:////home/runner/work/BO4E-python/BO4E-python/docs/../.tox/docs/tmp/html/api/bo4e.com.html#bo4e.com.tarifpreispositionproort.TarifpreispositionProOrt" xlink:show="new" xlink:title="file:////home/runner/work/BO4E-python/BO4E-python/docs/../.tox/docs/tmp/html/api/bo4e.com.html#bo4e.com.tarifpreispositionproort.TarifpreispositionProOrt" xlink:type="simple"><text fill="#0000FF" font-family="sans-serif" font-size="14" lengthAdjust="spacing" text-decoration="underline" textLength="166.626" x="633.8824" y="361.0251">TarifpreispositionProOrt</text></a><text fill="#000000" font-family="sans-serif" font-size="10" lengthAdjust="spacing" textLength="168.0908" x="633.15" y="373.6091">bo4e.com.tarifpreispositionproort</text></g><!--class Tarifeinschraenkung--><g class="entity" data-entity="Tarifeinschraenkung" data-source-line="17" data-uid="ent0010" id="entity_Tarifeinschraenkung"><rect fill="#F1F1F1" height="37.9375" rx="2.5" ry="2.5" style="stroke:#181818;stroke-width:0.5;" width="185.0127" x="611.69" y="416.03"/><ellipse cx="626.69" cy="434.9988" fill="#ADD1B2" rx="11" ry="11" style="stroke:#181818;stroke-width:1;"/><path d="M629.6588,440.6394 Q629.0806,440.9363 628.44,441.0769 Q627.7994,441.2331 627.0963,441.2331 Q624.5963,441.2331 623.2681,439.5925 Q621.9556,437.9363 621.9556,434.8113 Q621.9556,431.6863 623.2681,430.03 Q624.5963,428.3738 627.0963,428.3738 Q627.7994,428.3738 628.44,428.53 Q629.0963,428.6863 629.6588,428.9831 L629.6588,431.7019 Q629.0338,431.1238 628.44,430.8581 Q627.8463,430.5769 627.2213,430.5769 Q625.8775,430.5769 625.19,431.655 Q624.5025,432.7175 624.5025,434.8113 Q624.5025,436.905 625.19,437.9831 Q625.8775,439.0456 627.2213,439.0456 Q627.8463,439.0456 628.44,438.78 Q629.0338,438.4988 629.6588,437.9206 L629.6588,440.6394 Z " fill="#000000"/><a href="file:////home/runner/work/BO4E-python/BO4E-python/docs/../.tox/docs/tmp/html/api/bo4e.com.html#bo4e.com.tarifeinschraenkung.Tarifeinschraenkung" target="_top" title="file:////home/runner/work/BO4E-python/BO4E-python/docs/../.tox/docs/tmp/html/api/bo4e.com.html#bo4e.com.tarifeinschraenkung.Tarifeinschraenkung" xlink:actuate="onRequest" xlink:href="file:////home/runner/work/BO4E-python/BO4E-python/docs/../.tox/docs/tmp/html/api/bo4e.com.html#bo4e.com.tarifeinschraenkung.Tarifeinschraenkung" xlink:show="new" xlink:title="file:////home/runner/work/BO4E-python/BO4E-python/docs/../.tox/docs/tmp/html/api/bo4e.com.html#bo4e.com.tarifeinschraenkung.Tarifeinschraenkung" xlink:type="simple"><text fill="#0000FF" font-family="sans-serif" font-size="14" lengthAdjust="spacing" text-decoration="underline" textLength="143.5068" x="645.4429" y="434.0251">Tarifeinschraenkung</text></a><text fill="#000000" font-family="sans-serif" font-size="10" lengthAdjust="spacing" textLength="153.0127" x="640.69" y="446.6091">bo4e.com.tarifeinschraenkung</text></g><!--class Tarifberechnungsparameter--><g class="entity" data-entity="Tarifberechnungsparameter" data-source-line="18" data-uid="ent0011" id="entity_Tarifberechnungsparameter"><rect fill="#F1F1F1" height="37.9375" rx="2.5" ry="2.5" style="stroke:#181818;stroke-width:0.5;" width="228.8545" x="589.77" y="489.03"/><ellipse cx="604.77" cy="507.9988" fill="#ADD1B2" rx="11" ry="11" style="stroke:#181818;stroke-width:1;"/><path d="M607.7388,513.6394 Q607.1606,513.9363 606.52,514.0769 Q605.8794,514.2331 605.1763,514.2331 Q602.6763,514.2331 601.3481,512.5925 Q600.0356,510.9363 600.0356,507.8113 Q600.0356,504.6863 601.3481,503.03 Q602.6763,501.3738 605.1763,501.3738 Q605.8794,501.3738 606.52,501.53 Q607.1763,501.6863 607.7388,501.9831 L607.7388,504.7019 Q607.1138,504.1238 606.52,503.8581 Q605.9263,503.5769 605.3013,503.5769 Q603.9575,503.5769 603.27,504.655 Q602.5825,505.7175 602.5825,507.8113 Q602.5825,509.905 603.27,510.9831 Q603.9575,512.0456 605.3013,512.0456 Q605.9263,512.0456 606.52,511.78 Q607.1138,511.4988 607.7388,510.9206 L607.7388,513.6394 Z " fill="#000000"/><a href="file:////home/runner/work/BO4E-python/BO4E-python/docs/../.tox/docs/tmp/html/api/bo4e.com.html#bo4e.com.tarifberechnungsparameter.Tarifberechnungsparameter" target="_top" title="file:////home/runner/work/BO4E-python/BO4E-python/docs/../.tox/docs/tmp/html/api/bo4e.com.html#bo4e.com.tarifberechnungsparameter.Tarifberechnungsparameter" xlink:actuate="onRequest" xlink:href="file:////home/runner/work/BO4E-python/BO4E-python/docs/../.tox/docs/tmp/html/api/bo4e.com.html#bo4e.com.tarifberechnungsparameter.Tarifberechnungsparameter" xlink:show="new" xlink:title="file:////home/runner/work/BO4E-python/BO4E-python/docs/../.tox/docs/tmp/html/api/bo4e.com.html#bo4e.com.tarifberechnungsparameter.Tarifberechnungsparameter" xlink:type="simple"><text fill="#0000FF" font-family="sans-serif" font-size="14" lengthAdjust="spacing" text-decoration="underline" textLength="196.8545" x="618.77" y="507.0251">Tarifberechnungsparameter</text></a><text fill="#000000" font-family="sans-serif" font-size="10" lengthAdjust="spacing" textLength="191.1182" x="621.6382" y="519.6091">bo4e.com.tarifberechnungsparameter</text></g><!--class Tarif--><g class="entity" data-entity="Tarif" data-source-line="3" data-uid="ent0002" id="entity_Tarif"><rect fill="#F1F1F1" height="111.125" rx="2.5" ry="2.5" style="stroke:#181818;stroke-width:0.5;" width="341.7656" x="7" y="274.44"/><ellipse cx="141.5015" cy="293.4088" fill="#ADD1B2" rx="11" ry="11" style="stroke:#181818;stroke-width:1;"/><path d="M144.4702,299.0494 Q143.8921,299.3463 143.2515,299.4869 Q142.6108,299.6431 141.9077,299.6431 Q139.4077,299.6431 138.0796,298.0025 Q136.7671,296.3463 136.7671,293.2213 Q136.7671,290.0963 138.0796,288.44 Q139.4077,286.7838 141.9077,286.7838 Q142.6108,286.7838 143.2515,286.94 Q143.9077,287.0963 144.4702,287.3931 L144.4702,290.1119 Q143.8452,289.5338 143.2515,289.2681 Q142.6577,288.9869 142.0327,288.9869 Q140.689,288.9869 140.0015,290.065 Q139.314,291.1275 139.314,293.2213 Q139.314,295.315 140.0015,296.3931 Q140.689,297.4556 142.0327,297.4556 Q142.6577,297.4556 143.2515,297.19 Q143.8452,296.9088 144.4702,296.3306 L144.4702,299.0494 Z " fill="#000000"/><a href="file:////home/runner/work/BO4E-python/BO4E-python/docs/../.tox/docs/tmp/html/api/bo4e.bo.html#bo4e.bo.tarif.Tarif" target="_top" title="file:////home/runner/work/BO4E-python/BO4E-python/docs/../.tox/docs/tmp/html/api/bo4e.bo.html#bo4e.bo.tarif.Tarif" xlink:actuate="onRequest" xlink:href="file:////home/runner/work/BO4E-python/BO4E-python/docs/../.tox/docs/tmp/html/api/bo4e.bo.html#bo4e.bo.tarif.Tarif" xlink:show="new" xlink:title="file:////home/runner/work/BO4E-python/BO4E-python/docs/../.tox/docs/tmp/html/api/bo4e.bo.html#bo4e.bo.tarif.Tarif" xlink:type="simple"><text fill="#0000FF" font-family="sans-serif" font-size="14" lengthAdjust="spacing" text-decoration="underline" textLength="31.7051" x="178.2803" y="292.4351">Tarif</text></a><text fill="#000000" font-family="sans-serif" font-size="10" lengthAdjust="spacing" textLength="64.2627" x="162.0015" y="305.0191">bo4e.bo.tarif</text><line style="stroke:#181818;stroke-width:0.5;" x1="8" x2="347.7656" y1="312.3775" y2="312.3775"/><text fill="#000000" font-family="sans-serif" font-size="14" lengthAdjust="spacing" textLength="329.7656" x="13" y="329.3726">_version : str [0..1] = 202501.0.0+g64af9038d</text><text fill="#000000" font-family="sans-serif" font-size="14" lengthAdjust="spacing" textLength="318.5752" x="13" y="345.6695">zusatzAttribute : ZusatzAttribut [0..*] = None</text><text fill="#000000" font-family="sans-serif" font-size="14" lengthAdjust="spacing" textLength="151.1768" x="13" y="361.9664">_id : str [0..1] = None</text><text fill="#000000" font-family="sans-serif" font-size="14" lengthAdjust="spacing" textLength="295.4902" x="13" y="378.2632">preisstand : AwareDatetime [0..1] = None</text></g><!--link Tarif to Tarifinfo--><g class="link" data-entity-1="Tarif" data-entity-2="Tarifinfo" data-source-line="21" data-uid="lnk12" id="link_Tarif_Tarifinfo"><path codeLine="21" d="M276.92,274.06 C308.92,256.74 344.94,238.22 378.77,223 C470.36,181.78 563.6695,148.8796 629.1995,127.0896" fill="none" id="Tarif-to-Tarifinfo" style="stroke:#181818;stroke-width:1;"/><polygon fill="none" points="646.28,121.41,627.3063,121.3961,631.0927,132.7831,646.28,121.41" style="stroke:#181818;stroke-width:1;"/></g><!--link Tarif to Tarifberechnungsparameter--><g class="link" data-entity-1="Tarif" data-entity-2="Tarifberechnungsparameter" data-source-line="22" data-uid="lnk13" id="link_Tarif_Tarifberechnungsparameter"><path codeLine="22" d="M270.71,386.01 C303.84,404.36 342.11,423.48 378.77,437 C446.79,462.1 514.4498,477.5439 577.7198,488.9339" fill="none" id="Tarif-to-Tarifberechnungsparameter" style="stroke:#181818;stroke-width:1;"/><polygon fill="#181818" points="589.53,491.06,584.3336,486.0602,577.7198,488.9339,582.9162,493.9337,589.53,491.06" style="stroke:#181818;stroke-width:1;"/><text fill="#000000" font-family="sans-serif" font-size="13" lengthAdjust="spacing" textLength="153.353" x="379.77" y="433.0669">berechnungsparameter</text><text fill="#000000" font-family="sans-serif" font-size="13" lengthAdjust="spacing" textLength="24.8066" x="557.0466" y="502.4972">0..1</text></g><!--link Tarif to TarifpreispositionProOrt--><g class="link" data-entity-1="Tarif" data-entity-2="TarifpreispositionProOrt" data-source-line="23" data-uid="lnk14" id="link_Tarif_TarifpreispositionProOrt"><path codeLine="23" d="M349.17,350.6 C359.18,351.5 369.1,352.31 378.77,353 C454.08,358.37 527.4412,360.4138 591.6912,361.3038" fill="none" id="Tarif-to-TarifpreispositionProOrt" style="stroke:#181818;stroke-width:1;"/><polygon fill="#181818" points="603.69,361.47,597.746,357.3873,591.6912,361.3038,597.6352,365.3865,603.69,361.47" style="stroke:#181818;stroke-width:1;"/><text fill="#000000" font-family="sans-serif" font-size="13" lengthAdjust="spacing" textLength="66.5742" x="423.27" y="349.0669">tarifpreise</text><text fill="#000000" font-family="sans-serif" font-size="13" lengthAdjust="spacing" textLength="23.0356" x="573.1658" y="374.0097">0..*</text></g><!--link Tarif to AufAbschlagRegional--><g class="link" data-entity-1="Tarif" data-entity-2="AufAbschlagRegional" data-source-line="24" data-uid="lnk15" id="link_Tarif_AufAbschlagRegional"><path codeLine="24" d="M349.08,284.92 C359.11,282.51 369.06,280.19 378.77,278 C456.66,260.44 533.9983,245.7574 599.0983,234.0874" fill="none" id="Tarif-to-AufAbschlagRegional" style="stroke:#181818;stroke-width:1;"/><polygon fill="#181818" points="610.91,231.97,604.2983,229.0915,599.0983,234.0874,605.7099,236.9659,610.91,231.97" style="stroke:#181818;stroke-width:1;"/><text fill="#000000" font-family="sans-serif" font-size="13" lengthAdjust="spacing" textLength="123.4365" x="394.77" y="244.0669">tarifAufAbschlaege</text><text fill="#000000" font-family="sans-serif" font-size="13" lengthAdjust="spacing" textLength="23.0356" x="580.2162" y="245.7654">0..*</text></g><!--link Tarif to Preisgarantie--><g class="link" data-entity-1="Tarif" data-entity-2="Preisgarantie" data-source-line="25" data-uid="lnk16" id="link_Tarif_Preisgarantie"><path codeLine="25" d="M349.11,316.69 C443.3,309.32 543.6566,301.4759 616.1366,295.8059" fill="none" id="Tarif-to-Preisgarantie" style="stroke:#181818;stroke-width:1;"/><polygon fill="#181818" points="628.1,294.87,621.8063,291.3501,616.1366,295.8059,622.4302,299.3258,628.1,294.87" style="stroke:#181818;stroke-width:1;"/><text fill="#000000" font-family="sans-serif" font-size="13" lengthAdjust="spacing" textLength="86.4551" x="413.27" y="299.0669">preisgarantie</text><text fill="#000000" font-family="sans-serif" font-size="13" lengthAdjust="spacing" textLength="24.8066" x="595.7424" y="308.2177">0..1</text></g><!--link Tarif to Tarifeinschraenkung--><g class="link" data-entity-1="Tarif" data-entity-2="Tarifeinschraenkung" data-source-line="26" data-uid="lnk17" id="link_Tarif_Tarifeinschraenkung"><path codeLine="26" d="M349.21,378.28 C359.18,380.67 369.09,382.93 378.77,385 C456.65,401.66 534.2855,413.4422 599.5355,422.1522" fill="none" id="Tarif-to-Tarifeinschraenkung" style="stroke:#181818;stroke-width:1;"/><polygon fill="#181818" points="611.43,423.74,606.012,418.9813,599.5355,422.1522,604.9535,426.911,611.43,423.74" style="stroke:#181818;stroke-width:1;"/><text fill="#000000" font-family="sans-serif" font-size="13" lengthAdjust="spacing" textLength="130.4126" x="391.27" y="381.0669">tarifeinschraenkung</text><text fill="#000000" font-family="sans-serif" font-size="13" lengthAdjust="spacing" textLength="24.8066" x="578.7874" y="435.5011">0..1</text></g><!--SRC=[nLLDZzCm43rlViMelHNLIPTIIWGhPTcziYl4YL8XDvaarYPsP3iK2lntd8ysJN3BYMqEKMQU_UBtF1vd66lG0YHBKWqHanXg9hZZX1bL2aQhLSmoz5tpf297LvQSetItGZwvjm_p-sdnGwU2zxuZ4IgN49TeyRq9T5wugSupbnRCtOWvaeqWLMAy3pILB2QVgZVKx_Nw2t-hs0xzcNVJ6pK2gfenyDEv-leDfJ8h1X-Kbh3o29cjuHrSUzUll1dnYFSYMSnf_CPxkOoSgrsfgDu5MaksAJMQMPzxcPfWKX5y41mDFOk6p0rGI6HAQSehFDXIYNTKesOv3aR-TXnESrG53V6_-mbji5xNBhKHZ6yNTw-3PUNN9VQLyLWqUrjzmU7hz1vNQBVFLMHyV0ORGv4V-MYYOoDD2EDxBrWktZ-3a_kbZ0yHBMEwKM6QqKHYOcgUPYGeuw3DVMnpOCdzxVG9mbgjXU02SkiJbb19kMP87eyZw4LsSRtfjQpUf0i8gYkxNbOX5AlQR265aBev6ZtWKOe7gU4KO5TyYhyxI1QgI_c0Z9iAanJvKycJne9-3YovCyBx0plD_Vobv6xGtAmfDoim7KoQHgPHDg9j29n4pXXW6zxPO4EhkwczSwVJNpVxww9hrNlKm1COLTVQwD0ApwpU1-lVXcIJ8Pdj2FZGbJMUfR2rmdPs1s62PqNrsumFlIxoRpi65Tp-Vb22JieYX1npuv9oL2gsq1B73BD8_G40]--></g></svg>