<?xml version="1.0" encoding="us-ascii" standalone="no"?><svg xmlns="http://www.w3.org/2000/svg" xmlns:xlink="http://www.w3.org/1999/xlink" contentStyleType="text/css" height="242px" preserveAspectRatio="none" style="width:666px;height:242px;background:#FFFFFF;" version="1.1" viewBox="0 0 666 242" width="666px" zoomAndPan="magnify"><defs/><g><!--cluster bo4e--><g id="cluster_bo4e"><path d="M469.5,6 L510.5,6 A3.75,3.75 0 0 1 513,8.5 L520,28.2969 L656.5,28.2969 A2.5,2.5 0 0 1 659,30.7969 L659,232.5 A2.5,2.5 0 0 1 656.5,235 L469.5,235 A2.5,2.5 0 0 1 467,232.5 L467,8.5 A2.5,2.5 0 0 1 469.5,6 " fill="none" style="stroke:#000000;stroke-width:1.5;"/><line style="stroke:#000000;stroke-width:1.5;" x1="467" x2="520" y1="28.2969" y2="28.2969"/><text fill="#000000" font-family="sans-serif" font-size="14" font-weight="bold" lengthAdjust="spacing" textLength="40" x="471" y="20.9951">bo4e</text></g><!--cluster bo--><g id="cluster_bo"><path d="M493.5,49 L559.5,49 A3.75,3.75 0 0 1 562,51.5 L569,71.2969 L632.5,71.2969 A2.5,2.5 0 0 1 635,73.7969 L635,208.5 A2.5,2.5 0 0 1 632.5,211 L493.5,211 A2.5,2.5 0 0 1 491,208.5 L491,51.5 A2.5,2.5 0 0 1 493.5,49 " fill="#B6D7A8" style="stroke:#000000;stroke-width:1.5;"/><line style="stroke:#000000;stroke-width:1.5;" x1="491" x2="569" y1="71.2969" y2="71.2969"/><a href="https://bo4e.github.io/BO4E-python/latest/api/bo4e.bo.html" target="_top" title="https://bo4e.github.io/BO4E-python/latest/api/bo4e.bo.html" xlink:actuate="onRequest" xlink:href="https://bo4e.github.io/BO4E-python/latest/api/bo4e.bo.html" xlink:show="new" xlink:title="https://bo4e.github.io/BO4E-python/latest/api/bo4e.bo.html" xlink:type="simple"><text fill="#0000FF" font-family="sans-serif" font-size="14" font-weight="bold" lengthAdjust="spacing" text-decoration="underline" textLength="65" x="495" y="63.9951">bo4e.bo</text></a></g><!--class Kosten--><g id="elem_Kosten"><rect codeLine="10" fill="#F1F1F1" height="37.9375" id="Kosten" rx="2.5" ry="2.5" style="stroke:#181818;stroke-width:0.5;" width="106" x="510" y="84.03"/><ellipse cx="525" cy="102.9988" fill="#ADD1B2" rx="11" ry="11" style="stroke:#181818;stroke-width:1.0;"/><path d="M527.9688,108.6394 Q527.3906,108.9363 526.75,109.0769 Q526.1094,109.2331 525.4063,109.2331 Q522.9063,109.2331 521.5781,107.5925 Q520.2656,105.9363 520.2656,102.8113 Q520.2656,99.6863 521.5781,98.03 Q522.9063,96.3738 525.4063,96.3738 Q526.1094,96.3738 526.75,96.53 Q527.4063,96.6863 527.9688,96.9831 L527.9688,99.7019 Q527.3438,99.1238 526.75,98.8581 Q526.1563,98.5769 525.5313,98.5769 Q524.1875,98.5769 523.5,99.655 Q522.8125,100.7175 522.8125,102.8113 Q522.8125,104.905 523.5,105.9831 Q524.1875,107.0456 525.5313,107.0456 Q526.1563,107.0456 526.75,106.78 Q527.3438,106.4988 527.9688,105.9206 L527.9688,108.6394 Z " fill="#000000"/><a href="https://bo4e.github.io/BO4E-python/latest/api/bo4e.bo.html#bo4e.bo.kosten.Kosten" target="_top" title="https://bo4e.github.io/BO4E-python/latest/api/bo4e.bo.html#bo4e.bo.kosten.Kosten" xlink:actuate="onRequest" xlink:href="https://bo4e.github.io/BO4E-python/latest/api/bo4e.bo.html#bo4e.bo.kosten.Kosten" xlink:show="new" xlink:title="https://bo4e.github.io/BO4E-python/latest/api/bo4e.bo.html#bo4e.bo.kosten.Kosten" xlink:type="simple"><text fill="#0000FF" font-family="sans-serif" font-size="14" lengthAdjust="spacing" text-decoration="underline" textLength="49" x="551.5" y="102.0251">Kosten</text></a><text fill="#000000" font-family="sans-serif" font-size="10" lengthAdjust="spacing" textLength="74" x="539" y="114.6091">bo4e.bo.kosten</text></g><!--class Tarifinfo--><g id="elem_Tarifinfo"><rect codeLine="11" fill="#F1F1F1" height="37.9375" id="Tarifinfo" rx="2.5" ry="2.5" style="stroke:#181818;stroke-width:0.5;" width="112" x="507" y="157.03"/><ellipse cx="522" cy="175.9988" fill="#ADD1B2" rx="11" ry="11" style="stroke:#181818;stroke-width:1.0;"/><path d="M524.9688,181.6394 Q524.3906,181.9363 523.75,182.0769 Q523.1094,182.2331 522.4063,182.2331 Q519.9063,182.2331 518.5781,180.5925 Q517.2656,178.9363 517.2656,175.8113 Q517.2656,172.6863 518.5781,171.03 Q519.9063,169.3738 522.4063,169.3738 Q523.1094,169.3738 523.75,169.53 Q524.4063,169.6863 524.9688,169.9831 L524.9688,172.7019 Q524.3438,172.1238 523.75,171.8581 Q523.1563,171.5769 522.5313,171.5769 Q521.1875,171.5769 520.5,172.655 Q519.8125,173.7175 519.8125,175.8113 Q519.8125,177.905 520.5,178.9831 Q521.1875,180.0456 522.5313,180.0456 Q523.1563,180.0456 523.75,179.78 Q524.3438,179.4988 524.9688,178.9206 L524.9688,181.6394 Z " fill="#000000"/><a href="https://bo4e.github.io/BO4E-python/latest/api/bo4e.bo.html#bo4e.bo.tarifinfo.Tarifinfo" target="_top" title="https://bo4e.github.io/BO4E-python/latest/api/bo4e.bo.html#bo4e.bo.tarifinfo.Tarifinfo" xlink:actuate="onRequest" xlink:href="https://bo4e.github.io/BO4E-python/latest/api/bo4e.bo.html#bo4e.bo.tarifinfo.Tarifinfo" xlink:show="new" xlink:title="https://bo4e.github.io/BO4E-python/latest/api/bo4e.bo.html#bo4e.bo.tarifinfo.Tarifinfo" xlink:type="simple"><text fill="#0000FF" font-family="sans-serif" font-size="14" lengthAdjust="spacing" text-decoration="underline" textLength="54" x="549" y="175.0251">Tarifinfo</text></a><text fill="#000000" font-family="sans-serif" font-size="10" lengthAdjust="spacing" textLength="80" x="536" y="187.6091">bo4e.bo.tarifinfo</text></g><!--class Tarifkosten--><g id="elem_Tarifkosten"><rect codeLine="3" fill="#F1F1F1" height="94.8281" id="Tarifkosten" rx="2.5" ry="2.5" style="stroke:#181818;stroke-width:0.5;" width="369" x="7" y="92.59"/><ellipse cx="140.25" cy="111.5588" fill="#ADD1B2" rx="11" ry="11" style="stroke:#181818;stroke-width:1.0;"/><path d="M143.2188,117.1994 Q142.6406,117.4963 142,117.6369 Q141.3594,117.7931 140.6563,117.7931 Q138.1563,117.7931 136.8281,116.1525 Q135.5156,114.4963 135.5156,111.3713 Q135.5156,108.2463 136.8281,106.59 Q138.1563,104.9338 140.6563,104.9338 Q141.3594,104.9338 142,105.09 Q142.6563,105.2463 143.2188,105.5431 L143.2188,108.2619 Q142.5938,107.6838 142,107.4181 Q141.4063,107.1369 140.7813,107.1369 Q139.4375,107.1369 138.75,108.215 Q138.0625,109.2775 138.0625,111.3713 Q138.0625,113.465 138.75,114.5431 Q139.4375,115.6056 140.7813,115.6056 Q141.4063,115.6056 142,115.34 Q142.5938,115.0588 143.2188,114.4806 L143.2188,117.1994 Z " fill="#000000"/><a href="https://bo4e.github.io/BO4E-python/latest/api/bo4e.bo.html#bo4e.bo.tarifkosten.Tarifkosten" target="_top" title="https://bo4e.github.io/BO4E-python/latest/api/bo4e.bo.html#bo4e.bo.tarifkosten.Tarifkosten" xlink:actuate="onRequest" xlink:href="https://bo4e.github.io/BO4E-python/latest/api/bo4e.bo.html#bo4e.bo.tarifkosten.Tarifkosten" xlink:show="new" xlink:title="https://bo4e.github.io/BO4E-python/latest/api/bo4e.bo.html#bo4e.bo.tarifkosten.Tarifkosten" xlink:type="simple"><text fill="#0000FF" font-family="sans-serif" font-size="14" lengthAdjust="spacing" text-decoration="underline" textLength="77" x="169.25" y="110.5851">Tarifkosten</text></a><text fill="#000000" font-family="sans-serif" font-size="10" lengthAdjust="spacing" textLength="94" x="160.75" y="123.1691">bo4e.bo.tarifkosten</text><line style="stroke:#181818;stroke-width:0.5;" x1="8" x2="375" y1="130.5275" y2="130.5275"/><text fill="#000000" font-family="sans-serif" font-size="14" lengthAdjust="spacing" textLength="357" x="13" y="147.5226">_version : str [0..1] = 202401.7.1.dev1+gcbc02070</text><text fill="#000000" font-family="sans-serif" font-size="14" lengthAdjust="spacing" textLength="311" x="13" y="163.8195">zusatzAttribute : ZusatzAttribut [0..*] = None</text><text fill="#000000" font-family="sans-serif" font-size="14" lengthAdjust="spacing" textLength="147" x="13" y="180.1164">_id : str [0..1] = None</text></g><!--link Tarifkosten to Tarifinfo--><g id="link_Tarifkosten_Tarifinfo"><path codeLine="14" d="M376.44,157.92 C424.03,162.56 453.7748,165.4544 488.8748,168.8744 " fill="none" id="Tarifkosten-to-Tarifinfo" style="stroke:#181818;stroke-width:1.0;"/><polygon fill="none" points="506.79,170.62,489.4567,162.9027,488.293,174.8461,506.79,170.62" style="stroke:#181818;stroke-width:1.0;"/></g><!--link Tarifkosten to Kosten--><g id="link_Tarifkosten_Kosten"><path codeLine="15" d="M376.44,121.58 C425.29,116.69 462.2898,112.9861 497.6298,109.4461 " fill="none" id="Tarifkosten-to-Kosten" style="stroke:#181818;stroke-width:1.0;"/><polygon fill="#181818" points="509.57,108.25,503.2012,104.8679,497.6298,109.4461,503.9986,112.8281,509.57,108.25" style="stroke:#181818;stroke-width:1.0;"/><text fill="#000000" font-family="sans-serif" font-size="13" lengthAdjust="spacing" textLength="43" x="407" y="111.0669">kosten</text><text fill="#000000" font-family="sans-serif" font-size="13" lengthAdjust="spacing" textLength="24" x="478.0047" y="121.7989">0..1</text></g><!--SRC=[hL9DJuD043rtVyM4tcgwGDDOGxH96pqrqOidMs8M6Cf6O0axhR7gVvS5-e6n9tkRsNtpTkUzbs9CG0fAkKu88bbYI5BbZ8Mfq1givJ8XAhHdsu4Q8rzBIZO1bygUFuqVXiK79IgtKq6eoHQ5R521uWbbQN_Va2Xb_AOqOSwVZpMSrBw_oc-rtA7dEjC_vYmG-XGFdwptkiLILvy53pILi7GuTtsuWv4p6Zikdt2NHxXrhzPX43eZP-AmtcwZ1UrcHAKCDeJLv4ldf2OP6997bMFrX8n-izSNtupb8aDTY13_9nAqZU_NAxOTzEVNzvFPZLdpaawq9YmQ3HVdfJzHlK5TzX-ripAFLPC7Ky6XEfy5StjCWkcC4vrC3OTVqxsAH_8kfW8Dm3A6MWTeAua73OQnH4O86MP15JAc4_KE7OvOOXhf7m00]--></g></svg>