<svg xmlns="http://www.w3.org/2000/svg" xmlns:xlink="http://www.w3.org/1999/xlink" contentStyleType="text/css" data-diagram-type="CLASS" height="574px" preserveAspectRatio="none" style="width:866px;height:574px;background:#FFFFFF;" version="1.1" viewBox="0 0 866 574" width="866px" zoomAndPan="magnify"><defs/><g><!--cluster bo4e--><g class="cluster" data-entity="bo4e" data-source-line="11" data-uid="ent0005" id="cluster_bo4e"><path d="M552.96,6 L592.836,6 A3.75,3.75 0 0 1 595.336,8.5 L602.336,28.2969 L856.82,28.2969 A2.5,2.5 0 0 1 859.32,30.7969 L859.32,564.5 A2.5,2.5 0 0 1 856.82,567 L552.96,567 A2.5,2.5 0 0 1 550.46,564.5 L550.46,8.5 A2.5,2.5 0 0 1 552.96,6" fill="none" style="stroke:#000000;stroke-width:1.5;"/><line style="stroke:#000000;stroke-width:1.5;" x1="550.46" x2="602.336" y1="28.2969" y2="28.2969"/><text fill="#000000" font-family="sans-serif" font-size="14" font-weight="bold" lengthAdjust="spacing" textLength="38.876" x="554.46" y="20.9951">bo4e</text></g><!--cluster bo--><g class="cluster" data-entity="bo" data-source-line="10" data-uid="ent0003" id="cluster_bo"><path d="M633.88,49 L698.714,49 A3.75,3.75 0 0 1 701.214,51.5 L708.214,71.2969 L775.9,71.2969 A2.5,2.5 0 0 1 778.4,73.7969 L778.4,135.5 A2.5,2.5 0 0 1 775.9,138 L633.88,138 A2.5,2.5 0 0 1 631.38,135.5 L631.38,51.5 A2.5,2.5 0 0 1 633.88,49" fill="#B6D7A8" style="stroke:#000000;stroke-width:1.5;"/><line style="stroke:#000000;stroke-width:1.5;" x1="631.38" x2="708.214" y1="71.2969" y2="71.2969"/><a href="file:////home/runner/work/BO4E-python/BO4E-python/docs/../.tox/docs/tmp/html/api/bo4e.bo.html" target="_top" title="file:////home/runner/work/BO4E-python/BO4E-python/docs/../.tox/docs/tmp/html/api/bo4e.bo.html" xlink:actuate="onRequest" xlink:href="file:////home/runner/work/BO4E-python/BO4E-python/docs/../.tox/docs/tmp/html/api/bo4e.bo.html" xlink:show="new" xlink:title="file:////home/runner/work/BO4E-python/BO4E-python/docs/../.tox/docs/tmp/html/api/bo4e.bo.html" xlink:type="simple"><text fill="#0000FF" font-family="sans-serif" font-size="14" font-weight="bold" lengthAdjust="spacing" text-decoration="underline" textLength="63.834" x="635.38" y="63.9951">bo4e.bo</text></a></g><!--cluster com--><g class="cluster" data-entity="com" data-source-line="13" data-uid="ent0006" id="cluster_com"><path d="M576.96,162 L654.6592,162 A3.75,3.75 0 0 1 657.1592,164.5 L664.1592,184.2969 L832.82,184.2969 A2.5,2.5 0 0 1 835.32,186.7969 L835.32,540.5 A2.5,2.5 0 0 1 832.82,543 L576.96,543 A2.5,2.5 0 0 1 574.46,540.5 L574.46,164.5 A2.5,2.5 0 0 1 576.96,162" fill="#E0A86C" style="stroke:#000000;stroke-width:1.5;"/><line style="stroke:#000000;stroke-width:1.5;" x1="574.46" x2="664.1592" y1="184.2969" y2="184.2969"/><a href="file:////home/runner/work/BO4E-python/BO4E-python/docs/../.tox/docs/tmp/html/api/bo4e.com.html" target="_top" title="file:////home/runner/work/BO4E-python/BO4E-python/docs/../.tox/docs/tmp/html/api/bo4e.com.html" xlink:actuate="onRequest" xlink:href="file:////home/runner/work/BO4E-python/BO4E-python/docs/../.tox/docs/tmp/html/api/bo4e.com.html" xlink:show="new" xlink:title="file:////home/runner/work/BO4E-python/BO4E-python/docs/../.tox/docs/tmp/html/api/bo4e.com.html" xlink:type="simple"><text fill="#0000FF" font-family="sans-serif" font-size="14" font-weight="bold" lengthAdjust="spacing" text-decoration="underline" textLength="76.6992" x="578.46" y="176.9951">bo4e.com</text></a></g><!--class Tarifinfo--><g class="entity" data-entity="Tarifinfo" data-source-line="11" data-uid="ent0004" id="entity_Tarifinfo"><rect fill="#F1F1F1" height="37.9375" rx="2.5" ry="2.5" style="stroke:#181818;stroke-width:0.5;" width="115.0176" x="647.38" y="84.03"/><ellipse cx="662.38" cy="102.9987" fill="#ADD1B2" rx="11" ry="11" style="stroke:#181818;stroke-width:1;"/><path d="M665.3488,108.6394 Q664.7706,108.9362 664.13,109.0769 Q663.4894,109.2331 662.7863,109.2331 Q660.2863,109.2331 658.9581,107.5925 Q657.6456,105.9362 657.6456,102.8112 Q657.6456,99.6862 658.9581,98.03 Q660.2863,96.3737 662.7863,96.3737 Q663.4894,96.3737 664.13,96.53 Q664.7863,96.6862 665.3488,96.9831 L665.3488,99.7019 Q664.7238,99.1237 664.13,98.8581 Q663.5363,98.5769 662.9113,98.5769 Q661.5675,98.5769 660.88,99.655 Q660.1925,100.7175 660.1925,102.8112 Q660.1925,104.905 660.88,105.9831 Q661.5675,107.0456 662.9113,107.0456 Q663.5363,107.0456 664.13,106.78 Q664.7238,106.4987 665.3488,105.9206 L665.3488,108.6394 Z " fill="#000000"/><a href="file:////home/runner/work/BO4E-python/BO4E-python/docs/../.tox/docs/tmp/html/api/bo4e.bo.html#bo4e.bo.tarifinfo.Tarifinfo" target="_top" title="file:////home/runner/work/BO4E-python/BO4E-python/docs/../.tox/docs/tmp/html/api/bo4e.bo.html#bo4e.bo.tarifinfo.Tarifinfo" xlink:actuate="onRequest" xlink:href="file:////home/runner/work/BO4E-python/BO4E-python/docs/../.tox/docs/tmp/html/api/bo4e.bo.html#bo4e.bo.tarifinfo.Tarifinfo" xlink:show="new" xlink:title="file:////home/runner/work/BO4E-python/BO4E-python/docs/../.tox/docs/tmp/html/api/bo4e.bo.html#bo4e.bo.tarifinfo.Tarifinfo" xlink:type="simple"><text fill="#0000FF" font-family="sans-serif" font-size="14" lengthAdjust="spacing" text-decoration="underline" textLength="57.9619" x="688.9078" y="102.0251">Tarifinfo</text></a><text fill="#000000" font-family="sans-serif" font-size="10" lengthAdjust="spacing" textLength="83.0176" x="676.38" y="114.6091">bo4e.bo.tarifinfo</text></g><!--class Tarifberechnungsparameter--><g class="entity" data-entity="Tarifberechnungsparameter" data-source-line="14" data-uid="ent0007" id="entity_Tarifberechnungsparameter"><rect fill="#F1F1F1" height="37.9375" rx="2.5" ry="2.5" style="stroke:#181818;stroke-width:0.5;" width="228.8545" x="590.46" y="197.03"/><ellipse cx="605.46" cy="215.9987" fill="#ADD1B2" rx="11" ry="11" style="stroke:#181818;stroke-width:1;"/><path d="M608.4288,221.6394 Q607.8506,221.9362 607.21,222.0769 Q606.5694,222.2331 605.8663,222.2331 Q603.3663,222.2331 602.0381,220.5925 Q600.7256,218.9362 600.7256,215.8112 Q600.7256,212.6862 602.0381,211.03 Q603.3663,209.3737 605.8663,209.3737 Q606.5694,209.3737 607.21,209.53 Q607.8663,209.6862 608.4288,209.9831 L608.4288,212.7019 Q607.8038,212.1237 607.21,211.8581 Q606.6163,211.5769 605.9913,211.5769 Q604.6475,211.5769 603.96,212.655 Q603.2725,213.7175 603.2725,215.8112 Q603.2725,217.905 603.96,218.9831 Q604.6475,220.0456 605.9913,220.0456 Q606.6163,220.0456 607.21,219.78 Q607.8038,219.4987 608.4288,218.9206 L608.4288,221.6394 Z " fill="#000000"/><a href="file:////home/runner/work/BO4E-python/BO4E-python/docs/../.tox/docs/tmp/html/api/bo4e.com.html#bo4e.com.tarifberechnungsparameter.Tarifberechnungsparameter" target="_top" title="file:////home/runner/work/BO4E-python/BO4E-python/docs/../.tox/docs/tmp/html/api/bo4e.com.html#bo4e.com.tarifberechnungsparameter.Tarifberechnungsparameter" xlink:actuate="onRequest" xlink:href="file:////home/runner/work/BO4E-python/BO4E-python/docs/../.tox/docs/tmp/html/api/bo4e.com.html#bo4e.com.tarifberechnungsparameter.Tarifberechnungsparameter" xlink:show="new" xlink:title="file:////home/runner/work/BO4E-python/BO4E-python/docs/../.tox/docs/tmp/html/api/bo4e.com.html#bo4e.com.tarifberechnungsparameter.Tarifberechnungsparameter" xlink:type="simple"><text fill="#0000FF" font-family="sans-serif" font-size="14" lengthAdjust="spacing" text-decoration="underline" textLength="196.8545" x="619.46" y="215.0251">Tarifberechnungsparameter</text></a><text fill="#000000" font-family="sans-serif" font-size="10" lengthAdjust="spacing" textLength="191.1182" x="622.3282" y="227.6091">bo4e.com.tarifberechnungsparameter</text></g><!--class TarifpreispositionProOrt--><g class="entity" data-entity="TarifpreispositionProOrt" data-source-line="15" data-uid="ent0008" id="entity_TarifpreispositionProOrt"><rect fill="#F1F1F1" height="37.9375" rx="2.5" ry="2.5" style="stroke:#181818;stroke-width:0.5;" width="200.0908" x="604.84" y="270.03"/><ellipse cx="619.84" cy="288.9988" fill="#ADD1B2" rx="11" ry="11" style="stroke:#181818;stroke-width:1;"/><path d="M622.8088,294.6394 Q622.2306,294.9363 621.59,295.0769 Q620.9494,295.2331 620.2463,295.2331 Q617.7463,295.2331 616.4181,293.5925 Q615.1056,291.9363 615.1056,288.8113 Q615.1056,285.6863 616.4181,284.03 Q617.7463,282.3738 620.2463,282.3738 Q620.9494,282.3738 621.59,282.53 Q622.2463,282.6863 622.8088,282.9831 L622.8088,285.7019 Q622.1838,285.1238 621.59,284.8581 Q620.9963,284.5769 620.3713,284.5769 Q619.0275,284.5769 618.34,285.655 Q617.6525,286.7175 617.6525,288.8113 Q617.6525,290.905 618.34,291.9831 Q619.0275,293.0456 620.3713,293.0456 Q620.9963,293.0456 621.59,292.78 Q622.1838,292.4988 622.8088,291.9206 L622.8088,294.6394 Z " fill="#000000"/><a href="file:////home/runner/work/BO4E-python/BO4E-python/docs/../.tox/docs/tmp/html/api/bo4e.com.html#bo4e.com.tarifpreispositionproort.TarifpreispositionProOrt" target="_top" title="file:////home/runner/work/BO4E-python/BO4E-python/docs/../.tox/docs/tmp/html/api/bo4e.com.html#bo4e.com.tarifpreispositionproort.TarifpreispositionProOrt" xlink:actuate="onRequest" xlink:href="file:////home/runner/work/BO4E-python/BO4E-python/docs/../.tox/docs/tmp/html/api/bo4e.com.html#bo4e.com.tarifpreispositionproort.TarifpreispositionProOrt" xlink:show="new" xlink:title="file:////home/runner/work/BO4E-python/BO4E-python/docs/../.tox/docs/tmp/html/api/bo4e.com.html#bo4e.com.tarifpreispositionproort.TarifpreispositionProOrt" xlink:type="simple"><text fill="#0000FF" font-family="sans-serif" font-size="14" lengthAdjust="spacing" text-decoration="underline" textLength="166.626" x="634.5724" y="288.0251">TarifpreispositionProOrt</text></a><text fill="#000000" font-family="sans-serif" font-size="10" lengthAdjust="spacing" textLength="168.0908" x="633.84" y="300.6091">bo4e.com.tarifpreispositionproort</text></g><!--class AufAbschlagRegional--><g class="entity" data-entity="AufAbschlagRegional" data-source-line="16" data-uid="ent0009" id="entity_AufAbschlagRegional"><rect fill="#F1F1F1" height="37.9375" rx="2.5" ry="2.5" style="stroke:#181818;stroke-width:0.5;" width="186.209" x="611.79" y="343.03"/><ellipse cx="626.79" cy="361.9988" fill="#ADD1B2" rx="11" ry="11" style="stroke:#181818;stroke-width:1;"/><path d="M629.7588,367.6394 Q629.1806,367.9363 628.54,368.0769 Q627.8994,368.2331 627.1963,368.2331 Q624.6963,368.2331 623.3681,366.5925 Q622.0556,364.9363 622.0556,361.8113 Q622.0556,358.6863 623.3681,357.03 Q624.6963,355.3738 627.1963,355.3738 Q627.8994,355.3738 628.54,355.53 Q629.1963,355.6863 629.7588,355.9831 L629.7588,358.7019 Q629.1338,358.1238 628.54,357.8581 Q627.9463,357.5769 627.3213,357.5769 Q625.9775,357.5769 625.29,358.655 Q624.6025,359.7175 624.6025,361.8113 Q624.6025,363.905 625.29,364.9831 Q625.9775,366.0456 627.3213,366.0456 Q627.9463,366.0456 628.54,365.78 Q629.1338,365.4988 629.7588,364.9206 L629.7588,367.6394 Z " fill="#000000"/><a href="file:////home/runner/work/BO4E-python/BO4E-python/docs/../.tox/docs/tmp/html/api/bo4e.com.html#bo4e.com.aufabschlagregional.AufAbschlagRegional" target="_top" title="file:////home/runner/work/BO4E-python/BO4E-python/docs/../.tox/docs/tmp/html/api/bo4e.com.html#bo4e.com.aufabschlagregional.AufAbschlagRegional" xlink:actuate="onRequest" xlink:href="file:////home/runner/work/BO4E-python/BO4E-python/docs/../.tox/docs/tmp/html/api/bo4e.com.html#bo4e.com.aufabschlagregional.AufAbschlagRegional" xlink:show="new" xlink:title="file:////home/runner/work/BO4E-python/BO4E-python/docs/../.tox/docs/tmp/html/api/bo4e.com.html#bo4e.com.aufabschlagregional.AufAbschlagRegional" xlink:type="simple"><text fill="#0000FF" font-family="sans-serif" font-size="14" lengthAdjust="spacing" text-decoration="underline" textLength="148.0869" x="643.851" y="361.0251">AufAbschlagRegional</text></a><text fill="#000000" font-family="sans-serif" font-size="10" lengthAdjust="spacing" textLength="154.209" x="640.79" y="373.6091">bo4e.com.aufabschlagregional</text></g><!--class Preisgarantie--><g class="entity" data-entity="Preisgarantie" data-source-line="17" data-uid="ent0010" id="entity_Preisgarantie"><rect fill="#F1F1F1" height="37.9375" rx="2.5" ry="2.5" style="stroke:#181818;stroke-width:0.5;" width="151.1992" x="629.29" y="416.03"/><ellipse cx="644.29" cy="434.9988" fill="#ADD1B2" rx="11" ry="11" style="stroke:#181818;stroke-width:1;"/><path d="M647.2588,440.6394 Q646.6806,440.9363 646.04,441.0769 Q645.3994,441.2331 644.6963,441.2331 Q642.1963,441.2331 640.8681,439.5925 Q639.5556,437.9363 639.5556,434.8113 Q639.5556,431.6863 640.8681,430.03 Q642.1963,428.3738 644.6963,428.3738 Q645.3994,428.3738 646.04,428.53 Q646.6963,428.6863 647.2588,428.9831 L647.2588,431.7019 Q646.6338,431.1238 646.04,430.8581 Q645.4463,430.5769 644.8213,430.5769 Q643.4775,430.5769 642.79,431.655 Q642.1025,432.7175 642.1025,434.8113 Q642.1025,436.905 642.79,437.9831 Q643.4775,439.0456 644.8213,439.0456 Q645.4463,439.0456 646.04,438.78 Q646.6338,438.4988 647.2588,437.9206 L647.2588,440.6394 Z " fill="#000000"/><a href="file:////home/runner/work/BO4E-python/BO4E-python/docs/../.tox/docs/tmp/html/api/bo4e.com.html#bo4e.com.preisgarantie.Preisgarantie" target="_top" title="file:////home/runner/work/BO4E-python/BO4E-python/docs/../.tox/docs/tmp/html/api/bo4e.com.html#bo4e.com.preisgarantie.Preisgarantie" xlink:actuate="onRequest" xlink:href="file:////home/runner/work/BO4E-python/BO4E-python/docs/../.tox/docs/tmp/html/api/bo4e.com.html#bo4e.com.preisgarantie.Preisgarantie" xlink:show="new" xlink:title="file:////home/runner/work/BO4E-python/BO4E-python/docs/../.tox/docs/tmp/html/api/bo4e.com.html#bo4e.com.preisgarantie.Preisgarantie" xlink:type="simple"><text fill="#0000FF" font-family="sans-serif" font-size="14" lengthAdjust="spacing" text-decoration="underline" textLength="92.6611" x="671.559" y="434.0251">Preisgarantie</text></a><text fill="#000000" font-family="sans-serif" font-size="10" lengthAdjust="spacing" textLength="119.1992" x="658.29" y="446.6091">bo4e.com.preisgarantie</text></g><!--class Tarifeinschraenkung--><g class="entity" data-entity="Tarifeinschraenkung" data-source-line="18" data-uid="ent0011" id="entity_Tarifeinschraenkung"><rect fill="#F1F1F1" height="37.9375" rx="2.5" ry="2.5" style="stroke:#181818;stroke-width:0.5;" width="185.0127" x="612.38" y="489.03"/><ellipse cx="627.38" cy="507.9988" fill="#ADD1B2" rx="11" ry="11" style="stroke:#181818;stroke-width:1;"/><path d="M630.3488,513.6394 Q629.7706,513.9363 629.13,514.0769 Q628.4894,514.2331 627.7863,514.2331 Q625.2863,514.2331 623.9581,512.5925 Q622.6456,510.9363 622.6456,507.8113 Q622.6456,504.6863 623.9581,503.03 Q625.2863,501.3738 627.7863,501.3738 Q628.4894,501.3738 629.13,501.53 Q629.7863,501.6863 630.3488,501.9831 L630.3488,504.7019 Q629.7238,504.1238 629.13,503.8581 Q628.5363,503.5769 627.9113,503.5769 Q626.5675,503.5769 625.88,504.655 Q625.1925,505.7175 625.1925,507.8113 Q625.1925,509.905 625.88,510.9831 Q626.5675,512.0456 627.9113,512.0456 Q628.5363,512.0456 629.13,511.78 Q629.7238,511.4988 630.3488,510.9206 L630.3488,513.6394 Z " fill="#000000"/><a href="file:////home/runner/work/BO4E-python/BO4E-python/docs/../.tox/docs/tmp/html/api/bo4e.com.html#bo4e.com.tarifeinschraenkung.Tarifeinschraenkung" target="_top" title="file:////home/runner/work/BO4E-python/BO4E-python/docs/../.tox/docs/tmp/html/api/bo4e.com.html#bo4e.com.tarifeinschraenkung.Tarifeinschraenkung" xlink:actuate="onRequest" xlink:href="file:////home/runner/work/BO4E-python/BO4E-python/docs/../.tox/docs/tmp/html/api/bo4e.com.html#bo4e.com.tarifeinschraenkung.Tarifeinschraenkung" xlink:show="new" xlink:title="file:////home/runner/work/BO4E-python/BO4E-python/docs/../.tox/docs/tmp/html/api/bo4e.com.html#bo4e.com.tarifeinschraenkung.Tarifeinschraenkung" xlink:type="simple"><text fill="#0000FF" font-family="sans-serif" font-size="14" lengthAdjust="spacing" text-decoration="underline" textLength="143.5068" x="646.1329" y="507.0251">Tarifeinschraenkung</text></a><text fill="#000000" font-family="sans-serif" font-size="10" lengthAdjust="spacing" textLength="153.0127" x="641.38" y="519.6091">bo4e.com.tarifeinschraenkung</text></g><!--class Tarif--><g class="entity" data-entity="Tarif" data-source-line="3" data-uid="ent0002" id="entity_Tarif"><rect fill="#F1F1F1" height="111.125" rx="2.5" ry="2.5" style="stroke:#181818;stroke-width:0.5;" width="342.4629" x="7" y="274.44"/><ellipse cx="141.8501" cy="293.4088" fill="#ADD1B2" rx="11" ry="11" style="stroke:#181818;stroke-width:1;"/><path d="M144.8188,299.0494 Q144.2407,299.3463 143.6001,299.4869 Q142.9595,299.6431 142.2563,299.6431 Q139.7563,299.6431 138.4282,298.0025 Q137.1157,296.3463 137.1157,293.2213 Q137.1157,290.0963 138.4282,288.44 Q139.7563,286.7838 142.2563,286.7838 Q142.9595,286.7838 143.6001,286.94 Q144.2563,287.0963 144.8188,287.3931 L144.8188,290.1119 Q144.1938,289.5338 143.6001,289.2681 Q143.0063,288.9869 142.3813,288.9869 Q141.0376,288.9869 140.3501,290.065 Q139.6626,291.1275 139.6626,293.2213 Q139.6626,295.315 140.3501,296.3931 Q141.0376,297.4556 142.3813,297.4556 Q143.0063,297.4556 143.6001,297.19 Q144.1938,296.9088 144.8188,296.3306 L144.8188,299.0494 Z " fill="#000000"/><a href="file:////home/runner/work/BO4E-python/BO4E-python/docs/../.tox/docs/tmp/html/api/bo4e.bo.html#bo4e.bo.tarif.Tarif" target="_top" title="file:////home/runner/work/BO4E-python/BO4E-python/docs/../.tox/docs/tmp/html/api/bo4e.bo.html#bo4e.bo.tarif.Tarif" xlink:actuate="onRequest" xlink:href="file:////home/runner/work/BO4E-python/BO4E-python/docs/../.tox/docs/tmp/html/api/bo4e.bo.html#bo4e.bo.tarif.Tarif" xlink:show="new" xlink:title="file:////home/runner/work/BO4E-python/BO4E-python/docs/../.tox/docs/tmp/html/api/bo4e.bo.html#bo4e.bo.tarif.Tarif" xlink:type="simple"><text fill="#0000FF" font-family="sans-serif" font-size="14" lengthAdjust="spacing" text-decoration="underline" textLength="31.7051" x="178.6289" y="292.4351">Tarif</text></a><text fill="#000000" font-family="sans-serif" font-size="10" lengthAdjust="spacing" textLength="64.2627" x="162.3501" y="305.0191">bo4e.bo.tarif</text><line style="stroke:#181818;stroke-width:0.5;" x1="8" x2="348.4629" y1="312.3775" y2="312.3775"/><text fill="#000000" font-family="sans-serif" font-size="14" lengthAdjust="spacing" textLength="330.4629" x="13" y="329.3726">_version : str [0..1] = 202501.0.0+gc3c78750c</text><text fill="#000000" font-family="sans-serif" font-size="14" lengthAdjust="spacing" textLength="318.5752" x="13" y="345.6695">zusatzAttribute : ZusatzAttribut [0..*] = None</text><text fill="#000000" font-family="sans-serif" font-size="14" lengthAdjust="spacing" textLength="151.1768" x="13" y="361.9664">_id : str [0..1] = None</text><text fill="#000000" font-family="sans-serif" font-size="14" lengthAdjust="spacing" textLength="295.4902" x="13" y="378.2632">preisstand : AwareDatetime [0..1] = None</text></g><!--link Tarif to Tarifinfo--><g class="link" data-entity-1="Tarif" data-entity-2="Tarifinfo" data-source-line="21" data-uid="lnk12" id="link_Tarif_Tarifinfo"><path codeLine="21" d="M277.45,274.07 C309.51,256.75 345.58,238.23 379.46,223 C471.07,181.81 564.3703,148.9019 629.9003,127.1019" fill="none" id="Tarif-to-Tarifinfo" style="stroke:#181818;stroke-width:1;"/><polygon fill="none" points="646.98,121.42,628.0063,121.4087,631.7943,132.7952,646.98,121.42" style="stroke:#181818;stroke-width:1;"/></g><!--link Tarif to Tarifberechnungsparameter--><g class="link" data-entity-1="Tarif" data-entity-2="Tarifberechnungsparameter" data-source-line="22" data-uid="lnk13" id="link_Tarif_Tarifberechnungsparameter"><path codeLine="22" d="M349.73,284.92 C359.77,282.51 369.74,280.19 379.46,278 C449.95,262.13 517.8335,249.0061 580.6035,237.5961" fill="none" id="Tarif-to-Tarifberechnungsparameter" style="stroke:#181818;stroke-width:1;"/><polygon fill="#181818" points="592.41,235.45,585.7914,232.5876,580.6035,237.5961,587.2221,240.4586,592.41,235.45" style="stroke:#181818;stroke-width:1;"/><text fill="#000000" font-family="sans-serif" font-size="13" lengthAdjust="spacing" textLength="153.353" x="380.46" y="244.0669">berechnungsparameter</text><text fill="#000000" font-family="sans-serif" font-size="13" lengthAdjust="spacing" textLength="24.8066" x="557.7474" y="249.8387">0..1</text></g><!--link Tarif to TarifpreispositionProOrt--><g class="link" data-entity-1="Tarif" data-entity-2="TarifpreispositionProOrt" data-source-line="23" data-uid="lnk14" id="link_Tarif_TarifpreispositionProOrt"><path codeLine="23" d="M349.94,316.66 C434.14,310.08 520.7864,303.3041 592.5064,297.7041" fill="none" id="Tarif-to-TarifpreispositionProOrt" style="stroke:#181818;stroke-width:1;"/><polygon fill="#181818" points="604.47,296.77,598.1768,293.2492,592.5064,297.7041,598.7996,301.2249,604.47,296.77" style="stroke:#181818;stroke-width:1;"/><text fill="#000000" font-family="sans-serif" font-size="13" lengthAdjust="spacing" textLength="66.5742" x="423.96" y="299.0669">tarifpreise</text><text fill="#000000" font-family="sans-serif" font-size="13" lengthAdjust="spacing" textLength="23.0356" x="573.9519" y="309.8674">0..*</text></g><!--link Tarif to AufAbschlagRegional--><g class="link" data-entity-1="Tarif" data-entity-2="AufAbschlagRegional" data-source-line="24" data-uid="lnk15" id="link_Tarif_AufAbschlagRegional"><path codeLine="24" d="M349.82,350.6 C359.84,351.5 369.78,352.31 379.46,353 C457.59,358.56 534.521,360.5886 599.491,361.4086" fill="none" id="Tarif-to-AufAbschlagRegional" style="stroke:#181818;stroke-width:1;"/><polygon fill="#181818" points="611.49,361.56,605.541,357.4846,599.491,361.4086,605.44,365.484,611.49,361.56" style="stroke:#181818;stroke-width:1;"/><text fill="#000000" font-family="sans-serif" font-size="13" lengthAdjust="spacing" textLength="123.4365" x="395.46" y="349.0669">tarifAufAbschlaege</text><text fill="#000000" font-family="sans-serif" font-size="13" lengthAdjust="spacing" textLength="23.0356" x="580.7874" y="374.1503">0..*</text></g><!--link Tarif to Preisgarantie--><g class="link" data-entity-1="Tarif" data-entity-2="Preisgarantie" data-source-line="25" data-uid="lnk16" id="link_Tarif_Preisgarantie"><path codeLine="25" d="M349.86,378.28 C359.85,380.67 369.77,382.93 379.46,385 C464.31,403.13 551.0898,415.8357 617.1298,424.4057" fill="none" id="Tarif-to-Preisgarantie" style="stroke:#181818;stroke-width:1;"/><polygon fill="#181818" points="629.03,425.95,623.5947,421.2111,617.1298,424.4057,622.5651,429.1446,629.03,425.95" style="stroke:#181818;stroke-width:1;"/><text fill="#000000" font-family="sans-serif" font-size="13" lengthAdjust="spacing" textLength="86.4551" x="413.96" y="381.0669">preisgarantie</text><text fill="#000000" font-family="sans-serif" font-size="13" lengthAdjust="spacing" textLength="24.8066" x="596.421" y="437.871">0..1</text></g><!--link Tarif to Tarifeinschraenkung--><g class="link" data-entity-1="Tarif" data-entity-2="Tarifeinschraenkung" data-source-line="26" data-uid="lnk17" id="link_Tarif_Tarifeinschraenkung"><path codeLine="26" d="M271.23,386.01 C304.42,404.35 342.76,423.47 379.46,437 C455.61,465.06 534.2566,481.7375 600.2966,492.8575" fill="none" id="Tarif-to-Tarifeinschraenkung" style="stroke:#181818;stroke-width:1;"/><polygon fill="#181818" points="612.13,494.85,606.8775,489.9093,600.2966,492.8575,605.5491,497.7982,612.13,494.85" style="stroke:#181818;stroke-width:1;"/><text fill="#000000" font-family="sans-serif" font-size="13" lengthAdjust="spacing" textLength="130.4126" x="391.96" y="433.0669">tarifeinschraenkung</text><text fill="#000000" font-family="sans-serif" font-size="13" lengthAdjust="spacing" textLength="24.8066" x="579.4883" y="506.4546">0..1</text></g><!--SRC=[nPNVRvim4CUVorznIjuo1KZNDX7QAj6rhsirxMbPD3da0AjW8ziiMzRzxpC_4cBciASrF23kplxY-zpPpZ1Me3W8cgGADbHWf2XdZXDbH4eOBPSnpJ3mz9Fo73rHCeR2stBnxDqzNZrCYvygvSputl18UgxhkOh_Q0oL5rwgyimZ1VNM_0hTDNShntXlA29ex7wktb2_Lwklx9saEmnc_gqnQWH4DcFWbtFnxJiAgLSC0KWbOEcxxcm5x-7IlxpsPwxl-c-Iw6qqNyol_SYvs9MIg5sebA3hKg6UzSNmr0AJIk0ZPwZbwQQlt0GAWLHAHLWL3xT4u3rHg6YElP6_7OUH76L18lplFA4rLgkQKcl1-ExcVXukAbxdg2jbCMzgMtt1uUjqZQjeL-VAqXnV0MF4yoEEsZe6gKqOF_ZXukR3Av3SBsLyi6eoQzHRD6KbIpGAeOae50rRMmHEHlvcF_YBhXYswBbWr9kmu99MPrOXE1UgOM44dWH_50fE1GP8MFGx41QfCt0WPKpMCaepaWXCz4f8vePb7BQ-JwqFB3vxuXR1EcUBm1dIhQ4dkk-OekW-7LjWMFRaZEbrMiQaS_KnKgR92eBiMU-hfeLD7rXy0urh3knwrlHNTrDxvqwdBxVxww8xglTH7Px0gBhMHeUZSE3G2S1wIFJ59dqnswuDeDk9E2XXw_fsTXV210UJCZig0ADX_esZLxJszptgJaet23dccf9qPCgtq0h75BED_0C0]--></g></svg>