<?xml version="1.0" encoding="us-ascii" standalone="no"?><svg xmlns="http://www.w3.org/2000/svg" xmlns:xlink="http://www.w3.org/1999/xlink" contentStyleType="text/css" height="574px" preserveAspectRatio="none" style="width:887px;height:574px;background:#FFFFFF;" version="1.1" viewBox="0 0 887 574" width="887px" zoomAndPan="magnify"><defs/><g><!--cluster bo4e--><g id="cluster_bo4e"><path d="M577.5,6 L618.5,6 A3.75,3.75 0 0 1 621,8.5 L628,28.2969 L877.5,28.2969 A2.5,2.5 0 0 1 880,30.7969 L880,564.5 A2.5,2.5 0 0 1 877.5,567 L577.5,567 A2.5,2.5 0 0 1 575,564.5 L575,8.5 A2.5,2.5 0 0 1 577.5,6 " fill="none" style="stroke:#000000;stroke-width:1.5;"/><line style="stroke:#000000;stroke-width:1.5;" x1="575" x2="628" y1="28.2969" y2="28.2969"/><text fill="#000000" font-family="sans-serif" font-size="14" font-weight="bold" lengthAdjust="spacing" textLength="40" x="579" y="20.9951">bo4e</text></g><!--cluster bo--><g id="cluster_bo"><path d="M658,49 L724,49 A3.75,3.75 0 0 1 726.5,51.5 L733.5,71.2969 L797,71.2969 A2.5,2.5 0 0 1 799.5,73.7969 L799.5,135.5 A2.5,2.5 0 0 1 797,138 L658,138 A2.5,2.5 0 0 1 655.5,135.5 L655.5,51.5 A2.5,2.5 0 0 1 658,49 " fill="#B6D7A8" style="stroke:#000000;stroke-width:1.5;"/><line style="stroke:#000000;stroke-width:1.5;" x1="655.5" x2="733.5" y1="71.2969" y2="71.2969"/><a href="https://bo4e.github.io/BO4E-python/latest/api/bo4e.bo.html" target="_top" title="https://bo4e.github.io/BO4E-python/latest/api/bo4e.bo.html" xlink:actuate="onRequest" xlink:href="https://bo4e.github.io/BO4E-python/latest/api/bo4e.bo.html" xlink:show="new" xlink:title="https://bo4e.github.io/BO4E-python/latest/api/bo4e.bo.html" xlink:type="simple"><text fill="#0000FF" font-family="sans-serif" font-size="14" font-weight="bold" lengthAdjust="spacing" text-decoration="underline" textLength="65" x="659.5" y="63.9951">bo4e.bo</text></a></g><!--cluster com--><g id="cluster_com"><path d="M601.5,162 L680.5,162 A3.75,3.75 0 0 1 683,164.5 L690,184.2969 L853.5,184.2969 A2.5,2.5 0 0 1 856,186.7969 L856,540.5 A2.5,2.5 0 0 1 853.5,543 L601.5,543 A2.5,2.5 0 0 1 599,540.5 L599,164.5 A2.5,2.5 0 0 1 601.5,162 " fill="#E0A86C" style="stroke:#000000;stroke-width:1.5;"/><line style="stroke:#000000;stroke-width:1.5;" x1="599" x2="690" y1="184.2969" y2="184.2969"/><a href="https://bo4e.github.io/BO4E-python/latest/api/bo4e.com.html" target="_top" title="https://bo4e.github.io/BO4E-python/latest/api/bo4e.com.html" xlink:actuate="onRequest" xlink:href="https://bo4e.github.io/BO4E-python/latest/api/bo4e.com.html" xlink:show="new" xlink:title="https://bo4e.github.io/BO4E-python/latest/api/bo4e.com.html" xlink:type="simple"><text fill="#0000FF" font-family="sans-serif" font-size="14" font-weight="bold" lengthAdjust="spacing" text-decoration="underline" textLength="78" x="603" y="176.9951">bo4e.com</text></a></g><!--class Tarifinfo--><g id="elem_Tarifinfo"><rect codeLine="11" fill="#F1F1F1" height="37.9375" id="Tarifinfo" rx="2.5" ry="2.5" style="stroke:#181818;stroke-width:0.5;" width="112" x="671.5" y="84.03"/><ellipse cx="686.5" cy="102.9987" fill="#ADD1B2" rx="11" ry="11" style="stroke:#181818;stroke-width:1.0;"/><path d="M689.4688,108.6394 Q688.8906,108.9362 688.25,109.0769 Q687.6094,109.2331 686.9063,109.2331 Q684.4063,109.2331 683.0781,107.5925 Q681.7656,105.9362 681.7656,102.8112 Q681.7656,99.6862 683.0781,98.03 Q684.4063,96.3737 686.9063,96.3737 Q687.6094,96.3737 688.25,96.53 Q688.9063,96.6862 689.4688,96.9831 L689.4688,99.7019 Q688.8438,99.1237 688.25,98.8581 Q687.6563,98.5769 687.0313,98.5769 Q685.6875,98.5769 685,99.655 Q684.3125,100.7175 684.3125,102.8112 Q684.3125,104.905 685,105.9831 Q685.6875,107.0456 687.0313,107.0456 Q687.6563,107.0456 688.25,106.78 Q688.8438,106.4987 689.4688,105.9206 L689.4688,108.6394 Z " fill="#000000"/><a href="https://bo4e.github.io/BO4E-python/latest/api/bo4e.bo.html#bo4e.bo.tarifinfo.Tarifinfo" target="_top" title="https://bo4e.github.io/BO4E-python/latest/api/bo4e.bo.html#bo4e.bo.tarifinfo.Tarifinfo" xlink:actuate="onRequest" xlink:href="https://bo4e.github.io/BO4E-python/latest/api/bo4e.bo.html#bo4e.bo.tarifinfo.Tarifinfo" xlink:show="new" xlink:title="https://bo4e.github.io/BO4E-python/latest/api/bo4e.bo.html#bo4e.bo.tarifinfo.Tarifinfo" xlink:type="simple"><text fill="#0000FF" font-family="sans-serif" font-size="14" lengthAdjust="spacing" text-decoration="underline" textLength="54" x="713.5" y="102.0251">Tarifinfo</text></a><text fill="#000000" font-family="sans-serif" font-size="10" lengthAdjust="spacing" textLength="80" x="700.5" y="114.6091">bo4e.bo.tarifinfo</text></g><!--class TarifpreispositionProOrt--><g id="elem_TarifpreispositionProOrt"><rect codeLine="14" fill="#F1F1F1" height="37.9375" id="TarifpreispositionProOrt" rx="2.5" ry="2.5" style="stroke:#181818;stroke-width:0.5;" width="194" x="630.5" y="197.03"/><ellipse cx="645.5" cy="215.9987" fill="#ADD1B2" rx="11" ry="11" style="stroke:#181818;stroke-width:1.0;"/><path d="M648.4688,221.6394 Q647.8906,221.9362 647.25,222.0769 Q646.6094,222.2331 645.9063,222.2331 Q643.4063,222.2331 642.0781,220.5925 Q640.7656,218.9362 640.7656,215.8112 Q640.7656,212.6862 642.0781,211.03 Q643.4063,209.3737 645.9063,209.3737 Q646.6094,209.3737 647.25,209.53 Q647.9063,209.6862 648.4688,209.9831 L648.4688,212.7019 Q647.8438,212.1237 647.25,211.8581 Q646.6563,211.5769 646.0313,211.5769 Q644.6875,211.5769 644,212.655 Q643.3125,213.7175 643.3125,215.8112 Q643.3125,217.905 644,218.9831 Q644.6875,220.0456 646.0313,220.0456 Q646.6563,220.0456 647.25,219.78 Q647.8438,219.4987 648.4688,218.9206 L648.4688,221.6394 Z " fill="#000000"/><a href="https://bo4e.github.io/BO4E-python/latest/api/bo4e.com.html#bo4e.com.tarifpreispositionproort.TarifpreispositionProOrt" target="_top" title="https://bo4e.github.io/BO4E-python/latest/api/bo4e.com.html#bo4e.com.tarifpreispositionproort.TarifpreispositionProOrt" xlink:actuate="onRequest" xlink:href="https://bo4e.github.io/BO4E-python/latest/api/bo4e.com.html#bo4e.com.tarifpreispositionproort.TarifpreispositionProOrt" xlink:show="new" xlink:title="https://bo4e.github.io/BO4E-python/latest/api/bo4e.com.html#bo4e.com.tarifpreispositionproort.TarifpreispositionProOrt" xlink:type="simple"><text fill="#0000FF" font-family="sans-serif" font-size="14" lengthAdjust="spacing" text-decoration="underline" textLength="162" x="659.5" y="215.0251">TarifpreispositionProOrt</text></a><text fill="#000000" font-family="sans-serif" font-size="10" lengthAdjust="spacing" textLength="161" x="660" y="227.6091">bo4e.com.tarifpreispositionproort</text></g><!--class Preisgarantie--><g id="elem_Preisgarantie"><rect codeLine="15" fill="#F1F1F1" height="37.9375" id="Preisgarantie" rx="2.5" ry="2.5" style="stroke:#181818;stroke-width:0.5;" width="146" x="654.5" y="270.03"/><ellipse cx="669.5" cy="288.9988" fill="#ADD1B2" rx="11" ry="11" style="stroke:#181818;stroke-width:1.0;"/><path d="M672.4688,294.6394 Q671.8906,294.9363 671.25,295.0769 Q670.6094,295.2331 669.9063,295.2331 Q667.4063,295.2331 666.0781,293.5925 Q664.7656,291.9363 664.7656,288.8113 Q664.7656,285.6863 666.0781,284.03 Q667.4063,282.3738 669.9063,282.3738 Q670.6094,282.3738 671.25,282.53 Q671.9063,282.6863 672.4688,282.9831 L672.4688,285.7019 Q671.8438,285.1238 671.25,284.8581 Q670.6563,284.5769 670.0313,284.5769 Q668.6875,284.5769 668,285.655 Q667.3125,286.7175 667.3125,288.8113 Q667.3125,290.905 668,291.9831 Q668.6875,293.0456 670.0313,293.0456 Q670.6563,293.0456 671.25,292.78 Q671.8438,292.4988 672.4688,291.9206 L672.4688,294.6394 Z " fill="#000000"/><a href="https://bo4e.github.io/BO4E-python/latest/api/bo4e.com.html#bo4e.com.preisgarantie.Preisgarantie" target="_top" title="https://bo4e.github.io/BO4E-python/latest/api/bo4e.com.html#bo4e.com.preisgarantie.Preisgarantie" xlink:actuate="onRequest" xlink:href="https://bo4e.github.io/BO4E-python/latest/api/bo4e.com.html#bo4e.com.preisgarantie.Preisgarantie" xlink:show="new" xlink:title="https://bo4e.github.io/BO4E-python/latest/api/bo4e.com.html#bo4e.com.preisgarantie.Preisgarantie" xlink:type="simple"><text fill="#0000FF" font-family="sans-serif" font-size="14" lengthAdjust="spacing" text-decoration="underline" textLength="90" x="695.5" y="288.0251">Preisgarantie</text></a><text fill="#000000" font-family="sans-serif" font-size="10" lengthAdjust="spacing" textLength="114" x="683.5" y="300.6091">bo4e.com.preisgarantie</text></g><!--class Tarifberechnungsparameter--><g id="elem_Tarifberechnungsparameter"><rect codeLine="16" fill="#F1F1F1" height="37.9375" id="Tarifberechnungsparameter" rx="2.5" ry="2.5" style="stroke:#181818;stroke-width:0.5;" width="225" x="615" y="343.03"/><ellipse cx="630" cy="361.9988" fill="#ADD1B2" rx="11" ry="11" style="stroke:#181818;stroke-width:1.0;"/><path d="M632.9688,367.6394 Q632.3906,367.9363 631.75,368.0769 Q631.1094,368.2331 630.4063,368.2331 Q627.9063,368.2331 626.5781,366.5925 Q625.2656,364.9363 625.2656,361.8113 Q625.2656,358.6863 626.5781,357.03 Q627.9063,355.3738 630.4063,355.3738 Q631.1094,355.3738 631.75,355.53 Q632.4063,355.6863 632.9688,355.9831 L632.9688,358.7019 Q632.3438,358.1238 631.75,357.8581 Q631.1563,357.5769 630.5313,357.5769 Q629.1875,357.5769 628.5,358.655 Q627.8125,359.7175 627.8125,361.8113 Q627.8125,363.905 628.5,364.9831 Q629.1875,366.0456 630.5313,366.0456 Q631.1563,366.0456 631.75,365.78 Q632.3438,365.4988 632.9688,364.9206 L632.9688,367.6394 Z " fill="#000000"/><a href="https://bo4e.github.io/BO4E-python/latest/api/bo4e.com.html#bo4e.com.tarifberechnungsparameter.Tarifberechnungsparameter" target="_top" title="https://bo4e.github.io/BO4E-python/latest/api/bo4e.com.html#bo4e.com.tarifberechnungsparameter.Tarifberechnungsparameter" xlink:actuate="onRequest" xlink:href="https://bo4e.github.io/BO4E-python/latest/api/bo4e.com.html#bo4e.com.tarifberechnungsparameter.Tarifberechnungsparameter" xlink:show="new" xlink:title="https://bo4e.github.io/BO4E-python/latest/api/bo4e.com.html#bo4e.com.tarifberechnungsparameter.Tarifberechnungsparameter" xlink:type="simple"><text fill="#0000FF" font-family="sans-serif" font-size="14" lengthAdjust="spacing" text-decoration="underline" textLength="193" x="644" y="361.0251">Tarifberechnungsparameter</text></a><text fill="#000000" font-family="sans-serif" font-size="10" lengthAdjust="spacing" textLength="185" x="648" y="373.6091">bo4e.com.tarifberechnungsparameter</text></g><!--class AufAbschlagRegional--><g id="elem_AufAbschlagRegional"><rect codeLine="17" fill="#F1F1F1" height="37.9375" id="AufAbschlagRegional" rx="2.5" ry="2.5" style="stroke:#181818;stroke-width:0.5;" width="179" x="638" y="416.03"/><ellipse cx="653" cy="434.9988" fill="#ADD1B2" rx="11" ry="11" style="stroke:#181818;stroke-width:1.0;"/><path d="M655.9688,440.6394 Q655.3906,440.9363 654.75,441.0769 Q654.1094,441.2331 653.4063,441.2331 Q650.9063,441.2331 649.5781,439.5925 Q648.2656,437.9363 648.2656,434.8113 Q648.2656,431.6863 649.5781,430.03 Q650.9063,428.3738 653.4063,428.3738 Q654.1094,428.3738 654.75,428.53 Q655.4063,428.6863 655.9688,428.9831 L655.9688,431.7019 Q655.3438,431.1238 654.75,430.8581 Q654.1563,430.5769 653.5313,430.5769 Q652.1875,430.5769 651.5,431.655 Q650.8125,432.7175 650.8125,434.8113 Q650.8125,436.905 651.5,437.9831 Q652.1875,439.0456 653.5313,439.0456 Q654.1563,439.0456 654.75,438.78 Q655.3438,438.4988 655.9688,437.9206 L655.9688,440.6394 Z " fill="#000000"/><a href="https://bo4e.github.io/BO4E-python/latest/api/bo4e.com.html#bo4e.com.aufabschlagregional.AufAbschlagRegional" target="_top" title="https://bo4e.github.io/BO4E-python/latest/api/bo4e.com.html#bo4e.com.aufabschlagregional.AufAbschlagRegional" xlink:actuate="onRequest" xlink:href="https://bo4e.github.io/BO4E-python/latest/api/bo4e.com.html#bo4e.com.aufabschlagregional.AufAbschlagRegional" xlink:show="new" xlink:title="https://bo4e.github.io/BO4E-python/latest/api/bo4e.com.html#bo4e.com.aufabschlagregional.AufAbschlagRegional" xlink:type="simple"><text fill="#0000FF" font-family="sans-serif" font-size="14" lengthAdjust="spacing" text-decoration="underline" textLength="145" x="668" y="434.0251">AufAbschlagRegional</text></a><text fill="#000000" font-family="sans-serif" font-size="10" lengthAdjust="spacing" textLength="147" x="667" y="446.6091">bo4e.com.aufabschlagregional</text></g><!--class Tarifeinschraenkung--><g id="elem_Tarifeinschraenkung"><rect codeLine="18" fill="#F1F1F1" height="37.9375" id="Tarifeinschraenkung" rx="2.5" ry="2.5" style="stroke:#181818;stroke-width:0.5;" width="178" x="638.5" y="489.03"/><ellipse cx="653.5" cy="507.9988" fill="#ADD1B2" rx="11" ry="11" style="stroke:#181818;stroke-width:1.0;"/><path d="M656.4688,513.6394 Q655.8906,513.9363 655.25,514.0769 Q654.6094,514.2331 653.9063,514.2331 Q651.4063,514.2331 650.0781,512.5925 Q648.7656,510.9363 648.7656,507.8113 Q648.7656,504.6863 650.0781,503.03 Q651.4063,501.3738 653.9063,501.3738 Q654.6094,501.3738 655.25,501.53 Q655.9063,501.6863 656.4688,501.9831 L656.4688,504.7019 Q655.8438,504.1238 655.25,503.8581 Q654.6563,503.5769 654.0313,503.5769 Q652.6875,503.5769 652,504.655 Q651.3125,505.7175 651.3125,507.8113 Q651.3125,509.905 652,510.9831 Q652.6875,512.0456 654.0313,512.0456 Q654.6563,512.0456 655.25,511.78 Q655.8438,511.4988 656.4688,510.9206 L656.4688,513.6394 Z " fill="#000000"/><a href="https://bo4e.github.io/BO4E-python/latest/api/bo4e.com.html#bo4e.com.tarifeinschraenkung.Tarifeinschraenkung" target="_top" title="https://bo4e.github.io/BO4E-python/latest/api/bo4e.com.html#bo4e.com.tarifeinschraenkung.Tarifeinschraenkung" xlink:actuate="onRequest" xlink:href="https://bo4e.github.io/BO4E-python/latest/api/bo4e.com.html#bo4e.com.tarifeinschraenkung.Tarifeinschraenkung" xlink:show="new" xlink:title="https://bo4e.github.io/BO4E-python/latest/api/bo4e.com.html#bo4e.com.tarifeinschraenkung.Tarifeinschraenkung" xlink:type="simple"><text fill="#0000FF" font-family="sans-serif" font-size="14" lengthAdjust="spacing" text-decoration="underline" textLength="141" x="670" y="507.0251">Tarifeinschraenkung</text></a><text fill="#000000" font-family="sans-serif" font-size="10" lengthAdjust="spacing" textLength="146" x="667.5" y="519.6091">bo4e.com.tarifeinschraenkung</text></g><!--class Tarif--><g id="elem_Tarif"><rect codeLine="3" fill="#F1F1F1" height="111.125" id="Tarif" rx="2.5" ry="2.5" style="stroke:#181818;stroke-width:0.5;" width="369" x="7" y="274.44"/><ellipse cx="156.25" cy="293.4088" fill="#ADD1B2" rx="11" ry="11" style="stroke:#181818;stroke-width:1.0;"/><path d="M159.2188,299.0494 Q158.6406,299.3463 158,299.4869 Q157.3594,299.6431 156.6563,299.6431 Q154.1563,299.6431 152.8281,298.0025 Q151.5156,296.3463 151.5156,293.2213 Q151.5156,290.0963 152.8281,288.44 Q154.1563,286.7838 156.6563,286.7838 Q157.3594,286.7838 158,286.94 Q158.6563,287.0963 159.2188,287.3931 L159.2188,290.1119 Q158.5938,289.5338 158,289.2681 Q157.4063,288.9869 156.7813,288.9869 Q155.4375,288.9869 154.75,290.065 Q154.0625,291.1275 154.0625,293.2213 Q154.0625,295.315 154.75,296.3931 Q155.4375,297.4556 156.7813,297.4556 Q157.4063,297.4556 158,297.19 Q158.5938,296.9088 159.2188,296.3306 L159.2188,299.0494 Z " fill="#000000"/><a href="https://bo4e.github.io/BO4E-python/latest/api/bo4e.bo.html#bo4e.bo.tarif.Tarif" target="_top" title="https://bo4e.github.io/BO4E-python/latest/api/bo4e.bo.html#bo4e.bo.tarif.Tarif" xlink:actuate="onRequest" xlink:href="https://bo4e.github.io/BO4E-python/latest/api/bo4e.bo.html#bo4e.bo.tarif.Tarif" xlink:show="new" xlink:title="https://bo4e.github.io/BO4E-python/latest/api/bo4e.bo.html#bo4e.bo.tarif.Tarif" xlink:type="simple"><text fill="#0000FF" font-family="sans-serif" font-size="14" lengthAdjust="spacing" text-decoration="underline" textLength="29" x="193.25" y="292.4351">Tarif</text></a><text fill="#000000" font-family="sans-serif" font-size="10" lengthAdjust="spacing" textLength="62" x="176.75" y="305.0191">bo4e.bo.tarif</text><line style="stroke:#181818;stroke-width:0.5;" x1="8" x2="375" y1="312.3775" y2="312.3775"/><text fill="#000000" font-family="sans-serif" font-size="14" lengthAdjust="spacing" textLength="357" x="13" y="329.3726">_version : str [0..1] = 202401.6.1.dev7+gce8ae722</text><text fill="#000000" font-family="sans-serif" font-size="14" lengthAdjust="spacing" textLength="311" x="13" y="345.6695">zusatzAttribute : ZusatzAttribut [0..*] = None</text><text fill="#000000" font-family="sans-serif" font-size="14" lengthAdjust="spacing" textLength="147" x="13" y="361.9664">_id : str [0..1] = None</text><text fill="#000000" font-family="sans-serif" font-size="14" lengthAdjust="spacing" textLength="288" x="13" y="378.2632">preisstand : AwareDatetime [0..1] = None</text></g><!--link Tarif to Tarifinfo--><g id="link_Tarif_Tarifinfo"><path codeLine="21" d="M298.69,274 C332.62,256.86 370.56,238.46 406,223 C497.35,183.14 589.5848,149.8623 654.0548,127.6123 " fill="none" id="Tarif-to-Tarifinfo" style="stroke:#181818;stroke-width:1.0;"/><polygon fill="none" points="671.07,121.74,652.0974,121.9406,656.0123,133.284,671.07,121.74" style="stroke:#181818;stroke-width:1.0;"/></g><!--link Tarif to Tarifberechnungsparameter--><g id="link_Tarif_Tarifberechnungsparameter"><path codeLine="22" d="M376.42,350.75 C386.42,351.58 396.33,352.34 406,353 C475.28,357.7 541.1518,359.7397 602.7818,360.8197 " fill="none" id="Tarif-to-Tarifberechnungsparameter" style="stroke:#181818;stroke-width:1.0;"/><polygon fill="#181818" points="614.78,361.03,608.851,356.9255,602.7818,360.8197,608.7108,364.9243,614.78,361.03" style="stroke:#181818;stroke-width:1.0;"/><text fill="#000000" font-family="sans-serif" font-size="13" lengthAdjust="spacing" textLength="151" x="407" y="349.0669">berechnungsparameter</text><text fill="#000000" font-family="sans-serif" font-size="13" lengthAdjust="spacing" textLength="24" x="583.1799" y="373.4989">0..1</text></g><!--link Tarif to TarifpreispositionProOrt--><g id="link_Tarif_TarifpreispositionProOrt"><path codeLine="23" d="M376.37,284.62 C386.39,282.34 396.31,280.12 406,278 C481.03,261.62 554.621,247.397 618.391,235.577 " fill="none" id="Tarif-to-TarifpreispositionProOrt" style="stroke:#181818;stroke-width:1.0;"/><polygon fill="#181818" points="630.19,233.39,623.5615,230.5505,618.391,235.577,625.0195,238.4165,630.19,233.39" style="stroke:#181818;stroke-width:1.0;"/><text fill="#000000" font-family="sans-serif" font-size="13" lengthAdjust="spacing" textLength="64" x="450.5" y="244.0669">tarifpreise</text><text fill="#000000" font-family="sans-serif" font-size="13" lengthAdjust="spacing" textLength="23" x="599.5393" y="247.2117">0..*</text></g><!--link Tarif to AufAbschlagRegional--><g id="link_Tarif_AufAbschlagRegional"><path codeLine="24" d="M376.24,378.54 C386.28,380.82 396.25,382.99 406,385 C483.77,401.04 561.2132,412.9358 625.7732,421.8658 " fill="none" id="Tarif-to-AufAbschlagRegional" style="stroke:#181818;stroke-width:1.0;"/><polygon fill="#181818" points="637.66,423.51,632.2647,418.7256,625.7732,421.8658,631.1685,426.6502,637.66,423.51" style="stroke:#181818;stroke-width:1.0;"/><text fill="#000000" font-family="sans-serif" font-size="13" lengthAdjust="spacing" textLength="120" x="422.5" y="381.0669">tarifAufAbschlaege</text><text fill="#000000" font-family="sans-serif" font-size="13" lengthAdjust="spacing" textLength="23" x="606.9012" y="435.2766">0..*</text></g><!--link Tarif to Preisgarantie--><g id="link_Tarif_Preisgarantie"><path codeLine="25" d="M376.27,315.89 C471.76,308.56 571.0553,300.9395 642.1053,295.4795 " fill="none" id="Tarif-to-Preisgarantie" style="stroke:#181818;stroke-width:1.0;"/><polygon fill="#181818" points="654.07,294.56,647.7812,291.0315,642.1053,295.4795,648.3941,299.008,654.07,294.56" style="stroke:#181818;stroke-width:1.0;"/><text fill="#000000" font-family="sans-serif" font-size="13" lengthAdjust="spacing" textLength="84" x="440.5" y="299.0669">preisgarantie</text><text fill="#000000" font-family="sans-serif" font-size="13" lengthAdjust="spacing" textLength="24" x="622.4614" y="307.7961">0..1</text></g><!--link Tarif to Tarifeinschraenkung--><g id="link_Tarif_Tarifeinschraenkung"><path codeLine="26" d="M291.53,386.01 C326.83,404.24 367.42,423.3 406,437 C482.39,464.13 561.03,480.9692 626.33,492.4092 " fill="none" id="Tarif-to-Tarifeinschraenkung" style="stroke:#181818;stroke-width:1.0;"/><polygon fill="#181818" points="638.15,494.48,632.9303,489.5046,626.33,492.4092,631.5498,497.3846,638.15,494.48" style="stroke:#181818;stroke-width:1.0;"/><text fill="#000000" font-family="sans-serif" font-size="13" lengthAdjust="spacing" textLength="126" x="419.5" y="433.0669">tarifeinschraenkung</text><text fill="#000000" font-family="sans-serif" font-size="13" lengthAdjust="spacing" textLength="24" x="606.3904" y="506.0912">0..1</text></g><!--SRC=[jLLDRzf043t7ls84DohCXr10LXl9QN9jeggdKbIjpTXUrTwrTiU9Ijl_tlK76BiBFK0kbcVUx5lFUyEGOaH04XIF4u8jLnWIby9nmfHf3OFrEY7AjJUP17A1RimfAGANoydzq-9ndF-aH8f9oWWrJLZEwwf0kWbbwN0V45CySh-KJwYUcyqtyLxp7NgpwLsdQW1CrpNmoxdv_e9Acyy13pGfM4zTTxQ13p2VpXVJcNlhpjmjlYpVnI6k62xdS-TcLsX6Evz8yQ0WD2U_TZ8LoQWa-IG5cYlujizU0xb2hZKnKUB-ArFuODeadc6lye_Z29QXpbc8bma6JR3PL38q4GplRn-M_geKvEgkS179sfdo3GvlfnqgqTQbCZ8AN2f0ABCZ1KnqB849OVWuzLUt7o_LO7_Fy11LFLLUvrBpSlPp9QMYMfGEyApaao8u1VmhsJd-La8BrRMRhAw8cMA2EBhFnn5q8diFdUFLXtSElOab0PfLb8X2n6Qkb1alGbLxOaFW97B65LjvQuiDlNQdh8XOeCCaPR72sDZFKjSl8h_9VMvoOCdP-x8GLXrP2Dx4DUJ2tA8OYXz6kDglRWuikJCUTGjRTxhvSWSt_o_ZyU-x_UPi5ziUDV081kNw7Xnsovcfyi0w1NsoKP_CjZOyQ5S1dgMmJK1pkeKmnhDDTN_a7dH-m_-NesTQStrFTIVXMuGCCwEITdGYNw4XZZYcM_qN]--></g></svg>