<svg xmlns="http://www.w3.org/2000/svg" xmlns:xlink="http://www.w3.org/1999/xlink" contentStyleType="text/css" data-diagram-type="CLASS" height="906px" preserveAspectRatio="none" style="width:971px;height:906px;background:#FFFFFF;" version="1.1" viewBox="0 0 971 906" width="971px" zoomAndPan="magnify"><defs/><g><!--cluster bo4e--><g class="cluster" data-entity="bo4e" data-source-line="13" data-uid="ent0005" id="cluster_bo4e"><path d="M701.78,6 L741.656,6 A3.75,3.75 0 0 1 744.156,8.5 L751.156,28.2969 L962.39,28.2969 A2.5,2.5 0 0 1 964.89,30.7969 L964.89,896.5 A2.5,2.5 0 0 1 962.39,899 L701.78,899 A2.5,2.5 0 0 1 699.28,896.5 L699.28,8.5 A2.5,2.5 0 0 1 701.78,6" fill="none" style="stroke:#000000;stroke-width:1.5;"/><line style="stroke:#000000;stroke-width:1.5;" x1="699.28" x2="751.156" y1="28.2969" y2="28.2969"/><text fill="#000000" font-family="sans-serif" font-size="14" font-weight="bold" lengthAdjust="spacing" textLength="38.876" x="703.28" y="20.9951">bo4e</text></g><!--cluster bo--><g class="cluster" data-entity="bo" data-source-line="12" data-uid="ent0003" id="cluster_bo"><path d="M737.89,49 L802.724,49 A3.75,3.75 0 0 1 805.224,51.5 L812.224,71.2969 L926.28,71.2969 A2.5,2.5 0 0 1 928.78,73.7969 L928.78,208.5 A2.5,2.5 0 0 1 926.28,211 L737.89,211 A2.5,2.5 0 0 1 735.39,208.5 L735.39,51.5 A2.5,2.5 0 0 1 737.89,49" fill="#B6D7A8" style="stroke:#000000;stroke-width:1.5;"/><line style="stroke:#000000;stroke-width:1.5;" x1="735.39" x2="812.224" y1="71.2969" y2="71.2969"/><a href="file:////home/runner/work/BO4E-python/BO4E-python/docs/../.tox/docs/tmp/html/api/bo4e.bo.html" target="_top" title="file:////home/runner/work/BO4E-python/BO4E-python/docs/../.tox/docs/tmp/html/api/bo4e.bo.html" xlink:actuate="onRequest" xlink:href="file:////home/runner/work/BO4E-python/BO4E-python/docs/../.tox/docs/tmp/html/api/bo4e.bo.html" xlink:show="new" xlink:title="file:////home/runner/work/BO4E-python/BO4E-python/docs/../.tox/docs/tmp/html/api/bo4e.bo.html" xlink:type="simple"><text fill="#0000FF" font-family="sans-serif" font-size="14" font-weight="bold" lengthAdjust="spacing" text-decoration="underline" textLength="63.834" x="739.39" y="63.9951">bo4e.bo</text></a></g><!--cluster com--><g class="cluster" data-entity="com" data-source-line="16" data-uid="ent0007" id="cluster_com"><path d="M725.78,235 L803.4792,235 A3.75,3.75 0 0 1 805.9792,237.5 L812.9792,257.2969 L938.39,257.2969 A2.5,2.5 0 0 1 940.89,259.7969 L940.89,467.5 A2.5,2.5 0 0 1 938.39,470 L725.78,470 A2.5,2.5 0 0 1 723.28,467.5 L723.28,237.5 A2.5,2.5 0 0 1 725.78,235" fill="#E0A86C" style="stroke:#000000;stroke-width:1.5;"/><line style="stroke:#000000;stroke-width:1.5;" x1="723.28" x2="812.9792" y1="257.2969" y2="257.2969"/><a href="file:////home/runner/work/BO4E-python/BO4E-python/docs/../.tox/docs/tmp/html/api/bo4e.com.html" target="_top" title="file:////home/runner/work/BO4E-python/BO4E-python/docs/../.tox/docs/tmp/html/api/bo4e.com.html" xlink:actuate="onRequest" xlink:href="file:////home/runner/work/BO4E-python/BO4E-python/docs/../.tox/docs/tmp/html/api/bo4e.com.html" xlink:show="new" xlink:title="file:////home/runner/work/BO4E-python/BO4E-python/docs/../.tox/docs/tmp/html/api/bo4e.com.html" xlink:type="simple"><text fill="#0000FF" font-family="sans-serif" font-size="14" font-weight="bold" lengthAdjust="spacing" text-decoration="underline" textLength="76.6992" x="727.28" y="249.9951">bo4e.com</text></a></g><!--cluster enum--><g class="cluster" data-entity="enum" data-source-line="21" data-uid="ent0011" id="cluster_enum"><path d="M736.76,494 L825.9709,494 A3.75,3.75 0 0 1 828.4709,496.5 L835.4709,516.2969 L927.41,516.2969 A2.5,2.5 0 0 1 929.91,518.7969 L929.91,872.5 A2.5,2.5 0 0 1 927.41,875 L736.76,875 A2.5,2.5 0 0 1 734.26,872.5 L734.26,496.5 A2.5,2.5 0 0 1 736.76,494" fill="#D1C358" style="stroke:#000000;stroke-width:1.5;"/><line style="stroke:#000000;stroke-width:1.5;" x1="734.26" x2="835.4709" y1="516.2969" y2="516.2969"/><a href="file:////home/runner/work/BO4E-python/BO4E-python/docs/../.tox/docs/tmp/html/api/bo4e.enum.html" target="_top" title="file:////home/runner/work/BO4E-python/BO4E-python/docs/../.tox/docs/tmp/html/api/bo4e.enum.html" xlink:actuate="onRequest" xlink:href="file:////home/runner/work/BO4E-python/BO4E-python/docs/../.tox/docs/tmp/html/api/bo4e.enum.html" xlink:show="new" xlink:title="file:////home/runner/work/BO4E-python/BO4E-python/docs/../.tox/docs/tmp/html/api/bo4e.enum.html" xlink:type="simple"><text fill="#0000FF" font-family="sans-serif" font-size="14" font-weight="bold" lengthAdjust="spacing" text-decoration="underline" textLength="88.2109" x="738.26" y="508.9951">bo4e.enum</text></a></g><!--class Marktteilnehmer--><g class="entity" data-entity="Marktteilnehmer" data-source-line="13" data-uid="ent0004" id="entity_Marktteilnehmer"><rect fill="#F1F1F1" height="37.9375" rx="2.5" ry="2.5" style="stroke:#181818;stroke-width:0.5;" width="159.959" x="752.11" y="84.03"/><ellipse cx="767.11" cy="102.9987" fill="#ADD1B2" rx="11" ry="11" style="stroke:#181818;stroke-width:1;"/><path d="M770.0788,108.6394 Q769.5006,108.9362 768.86,109.0769 Q768.2194,109.2331 767.5163,109.2331 Q765.0163,109.2331 763.6881,107.5925 Q762.3756,105.9362 762.3756,102.8112 Q762.3756,99.6862 763.6881,98.03 Q765.0163,96.3737 767.5163,96.3737 Q768.2194,96.3737 768.86,96.53 Q769.5163,96.6862 770.0788,96.9831 L770.0788,99.7019 Q769.4538,99.1237 768.86,98.8581 Q768.2663,98.5769 767.6413,98.5769 Q766.2975,98.5769 765.61,99.655 Q764.9225,100.7175 764.9225,102.8112 Q764.9225,104.905 765.61,105.9831 Q766.2975,107.0456 767.6413,107.0456 Q768.2663,107.0456 768.86,106.78 Q769.4538,106.4987 770.0788,105.9206 L770.0788,108.6394 Z " fill="#000000"/><a href="file:////home/runner/work/BO4E-python/BO4E-python/docs/../.tox/docs/tmp/html/api/bo4e.bo.html#bo4e.bo.marktteilnehmer.Marktteilnehmer" target="_top" title="file:////home/runner/work/BO4E-python/BO4E-python/docs/../.tox/docs/tmp/html/api/bo4e.bo.html#bo4e.bo.marktteilnehmer.Marktteilnehmer" xlink:actuate="onRequest" xlink:href="file:////home/runner/work/BO4E-python/BO4E-python/docs/../.tox/docs/tmp/html/api/bo4e.bo.html#bo4e.bo.marktteilnehmer.Marktteilnehmer" xlink:show="new" xlink:title="file:////home/runner/work/BO4E-python/BO4E-python/docs/../.tox/docs/tmp/html/api/bo4e.bo.html#bo4e.bo.marktteilnehmer.Marktteilnehmer" xlink:type="simple"><text fill="#0000FF" font-family="sans-serif" font-size="14" lengthAdjust="spacing" text-decoration="underline" textLength="116.2588" x="786.9601" y="102.0251">Marktteilnehmer</text></a><text fill="#000000" font-family="sans-serif" font-size="10" lengthAdjust="spacing" textLength="127.959" x="781.11" y="114.6091">bo4e.bo.marktteilnehmer</text></g><!--class Geschaeftsobjekt--><g class="entity" data-entity="Geschaeftsobjekt" data-source-line="14" data-uid="ent0006" id="entity_Geschaeftsobjekt"><rect fill="#F1F1F1" height="37.9375" rx="2.5" ry="2.5" style="stroke:#181818;stroke-width:0.5;" width="161.3896" x="751.39" y="157.03"/><ellipse cx="766.39" cy="175.9987" fill="#ADD1B2" rx="11" ry="11" style="stroke:#181818;stroke-width:1;"/><path d="M769.3588,181.6394 Q768.7806,181.9362 768.14,182.0769 Q767.4994,182.2331 766.7963,182.2331 Q764.2963,182.2331 762.9681,180.5925 Q761.6556,178.9362 761.6556,175.8112 Q761.6556,172.6862 762.9681,171.03 Q764.2963,169.3737 766.7963,169.3737 Q767.4994,169.3737 768.14,169.53 Q768.7963,169.6862 769.3588,169.9831 L769.3588,172.7019 Q768.7338,172.1237 768.14,171.8581 Q767.5463,171.5769 766.9213,171.5769 Q765.5775,171.5769 764.89,172.655 Q764.2025,173.7175 764.2025,175.8112 Q764.2025,177.905 764.89,178.9831 Q765.5775,180.0456 766.9213,180.0456 Q767.5463,180.0456 768.14,179.78 Q768.7338,179.4987 769.3588,178.9206 L769.3588,181.6394 Z " fill="#000000"/><a href="file:////home/runner/work/BO4E-python/BO4E-python/docs/../.tox/docs/tmp/html/api/bo4e.bo.html#bo4e.bo.geschaeftsobjekt.Geschaeftsobjekt" target="_top" title="file:////home/runner/work/BO4E-python/BO4E-python/docs/../.tox/docs/tmp/html/api/bo4e.bo.html#bo4e.bo.geschaeftsobjekt.Geschaeftsobjekt" xlink:actuate="onRequest" xlink:href="file:////home/runner/work/BO4E-python/BO4E-python/docs/../.tox/docs/tmp/html/api/bo4e.bo.html#bo4e.bo.geschaeftsobjekt.Geschaeftsobjekt" xlink:show="new" xlink:title="file:////home/runner/work/BO4E-python/BO4E-python/docs/../.tox/docs/tmp/html/api/bo4e.bo.html#bo4e.bo.geschaeftsobjekt.Geschaeftsobjekt" xlink:type="simple"><text fill="#0000FF" font-family="sans-serif" font-size="14" lengthAdjust="spacing" text-decoration="underline" textLength="121.7822" x="784.1937" y="175.0251">Geschaeftsobjekt</text></a><text fill="#000000" font-family="sans-serif" font-size="10" lengthAdjust="spacing" textLength="129.3896" x="780.39" y="187.6091">bo4e.bo.geschaeftsobjekt</text></g><!--class Energiemix--><g class="entity" data-entity="Energiemix" data-source-line="17" data-uid="ent0008" id="entity_Energiemix"><rect fill="#F1F1F1" height="37.9375" rx="2.5" ry="2.5" style="stroke:#181818;stroke-width:0.5;" width="141.165" x="761.5" y="270.03"/><ellipse cx="776.5" cy="288.9988" fill="#ADD1B2" rx="11" ry="11" style="stroke:#181818;stroke-width:1;"/><path d="M779.4688,294.6394 Q778.8906,294.9363 778.25,295.0769 Q777.6094,295.2331 776.9063,295.2331 Q774.4063,295.2331 773.0781,293.5925 Q771.7656,291.9363 771.7656,288.8113 Q771.7656,285.6863 773.0781,284.03 Q774.4063,282.3738 776.9063,282.3738 Q777.6094,282.3738 778.25,282.53 Q778.9063,282.6863 779.4688,282.9831 L779.4688,285.7019 Q778.8438,285.1238 778.25,284.8581 Q777.6563,284.5769 777.0313,284.5769 Q775.6875,284.5769 775,285.655 Q774.3125,286.7175 774.3125,288.8113 Q774.3125,290.905 775,291.9831 Q775.6875,293.0456 777.0313,293.0456 Q777.6563,293.0456 778.25,292.78 Q778.8438,292.4988 779.4688,291.9206 L779.4688,294.6394 Z " fill="#000000"/><a href="file:////home/runner/work/BO4E-python/BO4E-python/docs/../.tox/docs/tmp/html/api/bo4e.com.html#bo4e.com.energiemix.Energiemix" target="_top" title="file:////home/runner/work/BO4E-python/BO4E-python/docs/../.tox/docs/tmp/html/api/bo4e.com.html#bo4e.com.energiemix.Energiemix" xlink:actuate="onRequest" xlink:href="file:////home/runner/work/BO4E-python/BO4E-python/docs/../.tox/docs/tmp/html/api/bo4e.com.html#bo4e.com.energiemix.Energiemix" xlink:show="new" xlink:title="file:////home/runner/work/BO4E-python/BO4E-python/docs/../.tox/docs/tmp/html/api/bo4e.com.html#bo4e.com.energiemix.Energiemix" xlink:type="simple"><text fill="#0000FF" font-family="sans-serif" font-size="14" lengthAdjust="spacing" text-decoration="underline" textLength="79.29" x="805.4375" y="288.0251">Energiemix</text></a><text fill="#000000" font-family="sans-serif" font-size="10" lengthAdjust="spacing" textLength="109.165" x="790.5" y="300.6091">bo4e.com.energiemix</text></g><!--class Vertragskonditionen--><g class="entity" data-entity="Vertragskonditionen" data-source-line="18" data-uid="ent0009" id="entity_Vertragskonditionen"><rect fill="#F1F1F1" height="37.9375" rx="2.5" ry="2.5" style="stroke:#181818;stroke-width:0.5;" width="185.6133" x="739.28" y="343.03"/><ellipse cx="754.28" cy="361.9988" fill="#ADD1B2" rx="11" ry="11" style="stroke:#181818;stroke-width:1;"/><path d="M757.2488,367.6394 Q756.6706,367.9363 756.03,368.0769 Q755.3894,368.2331 754.6863,368.2331 Q752.1863,368.2331 750.8581,366.5925 Q749.5456,364.9363 749.5456,361.8113 Q749.5456,358.6863 750.8581,357.03 Q752.1863,355.3738 754.6863,355.3738 Q755.3894,355.3738 756.03,355.53 Q756.6863,355.6863 757.2488,355.9831 L757.2488,358.7019 Q756.6238,358.1238 756.03,357.8581 Q755.4363,357.5769 754.8113,357.5769 Q753.4675,357.5769 752.78,358.655 Q752.0925,359.7175 752.0925,361.8113 Q752.0925,363.905 752.78,364.9831 Q753.4675,366.0456 754.8113,366.0456 Q755.4363,366.0456 756.03,365.78 Q756.6238,365.4988 757.2488,364.9206 L757.2488,367.6394 Z " fill="#000000"/><a href="file:////home/runner/work/BO4E-python/BO4E-python/docs/../.tox/docs/tmp/html/api/bo4e.com.html#bo4e.com.vertragskonditionen.Vertragskonditionen" target="_top" title="file:////home/runner/work/BO4E-python/BO4E-python/docs/../.tox/docs/tmp/html/api/bo4e.com.html#bo4e.com.vertragskonditionen.Vertragskonditionen" xlink:actuate="onRequest" xlink:href="file:////home/runner/work/BO4E-python/BO4E-python/docs/../.tox/docs/tmp/html/api/bo4e.com.html#bo4e.com.vertragskonditionen.Vertragskonditionen" xlink:show="new" xlink:title="file:////home/runner/work/BO4E-python/BO4E-python/docs/../.tox/docs/tmp/html/api/bo4e.com.html#bo4e.com.vertragskonditionen.Vertragskonditionen" xlink:type="simple"><text fill="#0000FF" font-family="sans-serif" font-size="14" lengthAdjust="spacing" text-decoration="underline" textLength="142.5771" x="773.7981" y="361.0251">Vertragskonditionen</text></a><text fill="#000000" font-family="sans-serif" font-size="10" lengthAdjust="spacing" textLength="153.6133" x="768.28" y="373.6091">bo4e.com.vertragskonditionen</text></g><!--class Zeitraum--><g class="entity" data-entity="Zeitraum" data-source-line="19" data-uid="ent0010" id="entity_Zeitraum"><rect fill="#F1F1F1" height="37.9375" rx="2.5" ry="2.5" style="stroke:#181818;stroke-width:0.5;" width="129.1143" x="767.53" y="416.03"/><ellipse cx="782.53" cy="434.9988" fill="#ADD1B2" rx="11" ry="11" style="stroke:#181818;stroke-width:1;"/><path d="M785.4988,440.6394 Q784.9206,440.9363 784.28,441.0769 Q783.6394,441.2331 782.9363,441.2331 Q780.4363,441.2331 779.1081,439.5925 Q777.7956,437.9363 777.7956,434.8113 Q777.7956,431.6863 779.1081,430.03 Q780.4363,428.3738 782.9363,428.3738 Q783.6394,428.3738 784.28,428.53 Q784.9363,428.6863 785.4988,428.9831 L785.4988,431.7019 Q784.8738,431.1238 784.28,430.8581 Q783.6863,430.5769 783.0613,430.5769 Q781.7175,430.5769 781.03,431.655 Q780.3425,432.7175 780.3425,434.8113 Q780.3425,436.905 781.03,437.9831 Q781.7175,439.0456 783.0613,439.0456 Q783.6863,439.0456 784.28,438.78 Q784.8738,438.4988 785.4988,437.9206 L785.4988,440.6394 Z " fill="#000000"/><a href="file:////home/runner/work/BO4E-python/BO4E-python/docs/../.tox/docs/tmp/html/api/bo4e.com.html#bo4e.com.zeitraum.Zeitraum" target="_top" title="file:////home/runner/work/BO4E-python/BO4E-python/docs/../.tox/docs/tmp/html/api/bo4e.com.html#bo4e.com.zeitraum.Zeitraum" xlink:actuate="onRequest" xlink:href="file:////home/runner/work/BO4E-python/BO4E-python/docs/../.tox/docs/tmp/html/api/bo4e.com.html#bo4e.com.zeitraum.Zeitraum" xlink:show="new" xlink:title="file:////home/runner/work/BO4E-python/BO4E-python/docs/../.tox/docs/tmp/html/api/bo4e.com.html#bo4e.com.zeitraum.Zeitraum" xlink:type="simple"><text fill="#0000FF" font-family="sans-serif" font-size="14" lengthAdjust="spacing" text-decoration="underline" textLength="64.4287" x="812.8728" y="434.0251">Zeitraum</text></a><text fill="#000000" font-family="sans-serif" font-size="10" lengthAdjust="spacing" textLength="97.1143" x="796.53" y="446.6091">bo4e.com.zeitraum</text></g><!--class Registeranzahl--><g class="entity" data-entity="Registeranzahl" data-source-line="22" data-uid="ent0012" id="entity_Registeranzahl"><rect fill="#F1F1F1" height="37.9375" rx="2.5" ry="2.5" style="stroke:#181818;stroke-width:0.5;" width="163.6504" x="750.26" y="529.03"/><ellipse cx="765.26" cy="547.9988" fill="#ADD1B2" rx="11" ry="11" style="stroke:#181818;stroke-width:1;"/><path d="M768.2288,553.6394 Q767.6506,553.9363 767.01,554.0769 Q766.3694,554.2331 765.6663,554.2331 Q763.1663,554.2331 761.8381,552.5925 Q760.5256,550.9363 760.5256,547.8113 Q760.5256,544.6863 761.8381,543.03 Q763.1663,541.3738 765.6663,541.3738 Q766.3694,541.3738 767.01,541.53 Q767.6663,541.6863 768.2288,541.9831 L768.2288,544.7019 Q767.6038,544.1238 767.01,543.8581 Q766.4163,543.5769 765.7913,543.5769 Q764.4475,543.5769 763.76,544.655 Q763.0725,545.7175 763.0725,547.8113 Q763.0725,549.905 763.76,550.9831 Q764.4475,552.0456 765.7913,552.0456 Q766.4163,552.0456 767.01,551.78 Q767.6038,551.4988 768.2288,550.9206 L768.2288,553.6394 Z " fill="#000000"/><a href="file:////home/runner/work/BO4E-python/BO4E-python/docs/../.tox/docs/tmp/html/api/bo4e.enum.html#bo4e.enum.registeranzahl.Registeranzahl" target="_top" title="file:////home/runner/work/BO4E-python/BO4E-python/docs/../.tox/docs/tmp/html/api/bo4e.enum.html#bo4e.enum.registeranzahl.Registeranzahl" xlink:actuate="onRequest" xlink:href="file:////home/runner/work/BO4E-python/BO4E-python/docs/../.tox/docs/tmp/html/api/bo4e.enum.html#bo4e.enum.registeranzahl.Registeranzahl" xlink:show="new" xlink:title="file:////home/runner/work/BO4E-python/BO4E-python/docs/../.tox/docs/tmp/html/api/bo4e.enum.html#bo4e.enum.registeranzahl.Registeranzahl" xlink:type="simple"><text fill="#0000FF" font-family="sans-serif" font-size="14" lengthAdjust="spacing" text-decoration="underline" textLength="104.4121" x="792.8791" y="547.0251">Registeranzahl</text></a><text fill="#000000" font-family="sans-serif" font-size="10" lengthAdjust="spacing" textLength="131.6504" x="779.26" y="559.6091">bo4e.enum.registeranzahl</text></g><!--class Tarifmerkmal--><g class="entity" data-entity="Tarifmerkmal" data-source-line="23" data-uid="ent0013" id="entity_Tarifmerkmal"><rect fill="#F1F1F1" height="37.9375" rx="2.5" ry="2.5" style="stroke:#181818;stroke-width:0.5;" width="156.8096" x="753.68" y="602.03"/><ellipse cx="768.68" cy="620.9988" fill="#ADD1B2" rx="11" ry="11" style="stroke:#181818;stroke-width:1;"/><path d="M771.6488,626.6394 Q771.0706,626.9363 770.43,627.0769 Q769.7894,627.2331 769.0863,627.2331 Q766.5863,627.2331 765.2581,625.5925 Q763.9456,623.9363 763.9456,620.8113 Q763.9456,617.6863 765.2581,616.03 Q766.5863,614.3738 769.0863,614.3738 Q769.7894,614.3738 770.43,614.53 Q771.0863,614.6863 771.6488,614.9831 L771.6488,617.7019 Q771.0238,617.1238 770.43,616.8581 Q769.8363,616.5769 769.2113,616.5769 Q767.8675,616.5769 767.18,617.655 Q766.4925,618.7175 766.4925,620.8113 Q766.4925,622.905 767.18,623.9831 Q767.8675,625.0456 769.2113,625.0456 Q769.8363,625.0456 770.43,624.78 Q771.0238,624.4988 771.6488,623.9206 L771.6488,626.6394 Z " fill="#000000"/><a href="file:////home/runner/work/BO4E-python/BO4E-python/docs/../.tox/docs/tmp/html/api/bo4e.enum.html#bo4e.enum.tarifmerkmal.Tarifmerkmal" target="_top" title="file:////home/runner/work/BO4E-python/BO4E-python/docs/../.tox/docs/tmp/html/api/bo4e.enum.html#bo4e.enum.tarifmerkmal.Tarifmerkmal" xlink:actuate="onRequest" xlink:href="file:////home/runner/work/BO4E-python/BO4E-python/docs/../.tox/docs/tmp/html/api/bo4e.enum.html#bo4e.enum.tarifmerkmal.Tarifmerkmal" xlink:show="new" xlink:title="file:////home/runner/work/BO4E-python/BO4E-python/docs/../.tox/docs/tmp/html/api/bo4e.enum.html#bo4e.enum.tarifmerkmal.Tarifmerkmal" xlink:type="simple"><text fill="#0000FF" font-family="sans-serif" font-size="14" lengthAdjust="spacing" text-decoration="underline" textLength="93.9258" x="798.1219" y="620.0251">Tarifmerkmal</text></a><text fill="#000000" font-family="sans-serif" font-size="10" lengthAdjust="spacing" textLength="124.8096" x="782.68" y="632.6091">bo4e.enum.tarifmerkmal</text></g><!--class Kundentyp--><g class="entity" data-entity="Kundentyp" data-source-line="24" data-uid="ent0014" id="entity_Kundentyp"><rect fill="#F1F1F1" height="37.9375" rx="2.5" ry="2.5" style="stroke:#181818;stroke-width:0.5;" width="145.3984" x="759.39" y="675.03"/><ellipse cx="774.39" cy="693.9988" fill="#ADD1B2" rx="11" ry="11" style="stroke:#181818;stroke-width:1;"/><path d="M777.3588,699.6394 Q776.7806,699.9363 776.14,700.0769 Q775.4994,700.2331 774.7963,700.2331 Q772.2963,700.2331 770.9681,698.5925 Q769.6556,696.9363 769.6556,693.8113 Q769.6556,690.6863 770.9681,689.03 Q772.2963,687.3738 774.7963,687.3738 Q775.4994,687.3738 776.14,687.53 Q776.7963,687.6863 777.3588,687.9831 L777.3588,690.7019 Q776.7338,690.1238 776.14,689.8581 Q775.5463,689.5769 774.9213,689.5769 Q773.5775,689.5769 772.89,690.655 Q772.2025,691.7175 772.2025,693.8113 Q772.2025,695.905 772.89,696.9831 Q773.5775,698.0456 774.9213,698.0456 Q775.5463,698.0456 776.14,697.78 Q776.7338,697.4988 777.3588,696.9206 L777.3588,699.6394 Z " fill="#000000"/><a href="file:////home/runner/work/BO4E-python/BO4E-python/docs/../.tox/docs/tmp/html/api/bo4e.enum.html#bo4e.enum.kundentyp.Kundentyp" target="_top" title="file:////home/runner/work/BO4E-python/BO4E-python/docs/../.tox/docs/tmp/html/api/bo4e.enum.html#bo4e.enum.kundentyp.Kundentyp" xlink:actuate="onRequest" xlink:href="file:////home/runner/work/BO4E-python/BO4E-python/docs/../.tox/docs/tmp/html/api/bo4e.enum.html#bo4e.enum.kundentyp.Kundentyp" xlink:show="new" xlink:title="file:////home/runner/work/BO4E-python/BO4E-python/docs/../.tox/docs/tmp/html/api/bo4e.enum.html#bo4e.enum.kundentyp.Kundentyp" xlink:type="simple"><text fill="#0000FF" font-family="sans-serif" font-size="14" lengthAdjust="spacing" text-decoration="underline" textLength="75.9609" x="807.1088" y="693.0251">Kundentyp</text></a><text fill="#000000" font-family="sans-serif" font-size="10" lengthAdjust="spacing" textLength="113.3984" x="788.39" y="705.6091">bo4e.enum.kundentyp</text></g><!--class Sparte--><g class="entity" data-entity="Sparte" data-source-line="25" data-uid="ent0015" id="entity_Sparte"><rect fill="#F1F1F1" height="37.9375" rx="2.5" ry="2.5" style="stroke:#181818;stroke-width:0.5;" width="123.7773" x="770.2" y="748.03"/><ellipse cx="785.2" cy="766.9988" fill="#ADD1B2" rx="11" ry="11" style="stroke:#181818;stroke-width:1;"/><path d="M788.1688,772.6394 Q787.5906,772.9363 786.95,773.0769 Q786.3094,773.2331 785.6063,773.2331 Q783.1063,773.2331 781.7781,771.5925 Q780.4656,769.9363 780.4656,766.8113 Q780.4656,763.6863 781.7781,762.03 Q783.1063,760.3738 785.6063,760.3738 Q786.3094,760.3738 786.95,760.53 Q787.6063,760.6863 788.1688,760.9831 L788.1688,763.7019 Q787.5438,763.1238 786.95,762.8581 Q786.3563,762.5769 785.7313,762.5769 Q784.3875,762.5769 783.7,763.655 Q783.0125,764.7175 783.0125,766.8113 Q783.0125,768.905 783.7,769.9831 Q784.3875,771.0456 785.7313,771.0456 Q786.3563,771.0456 786.95,770.78 Q787.5438,770.4988 788.1688,769.9206 L788.1688,772.6394 Z " fill="#000000"/><a href="file:////home/runner/work/BO4E-python/BO4E-python/docs/../.tox/docs/tmp/html/api/bo4e.enum.html#bo4e.enum.sparte.Sparte" target="_top" title="file:////home/runner/work/BO4E-python/BO4E-python/docs/../.tox/docs/tmp/html/api/bo4e.enum.html#bo4e.enum.sparte.Sparte" xlink:actuate="onRequest" xlink:href="file:////home/runner/work/BO4E-python/BO4E-python/docs/../.tox/docs/tmp/html/api/bo4e.enum.html#bo4e.enum.sparte.Sparte" xlink:show="new" xlink:title="file:////home/runner/work/BO4E-python/BO4E-python/docs/../.tox/docs/tmp/html/api/bo4e.enum.html#bo4e.enum.sparte.Sparte" xlink:type="simple"><text fill="#0000FF" font-family="sans-serif" font-size="14" lengthAdjust="spacing" text-decoration="underline" textLength="46.2109" x="821.9832" y="766.0251">Sparte</text></a><text fill="#000000" font-family="sans-serif" font-size="10" lengthAdjust="spacing" textLength="91.7773" x="799.2" y="778.6091">bo4e.enum.sparte</text></g><!--class Tariftyp--><g class="entity" data-entity="Tariftyp" data-source-line="26" data-uid="ent0016" id="entity_Tariftyp"><rect fill="#F1F1F1" height="37.9375" rx="2.5" ry="2.5" style="stroke:#181818;stroke-width:0.5;" width="128.5527" x="767.81" y="821.03"/><ellipse cx="782.81" cy="839.9988" fill="#ADD1B2" rx="11" ry="11" style="stroke:#181818;stroke-width:1;"/><path d="M785.7788,845.6394 Q785.2006,845.9363 784.56,846.0769 Q783.9194,846.2331 783.2163,846.2331 Q780.7163,846.2331 779.3881,844.5925 Q778.0756,842.9363 778.0756,839.8113 Q778.0756,836.6863 779.3881,835.03 Q780.7163,833.3738 783.2163,833.3738 Q783.9194,833.3738 784.56,833.53 Q785.2163,833.6863 785.7788,833.9831 L785.7788,836.7019 Q785.1538,836.1238 784.56,835.8581 Q783.9663,835.5769 783.3413,835.5769 Q781.9975,835.5769 781.31,836.655 Q780.6225,837.7175 780.6225,839.8113 Q780.6225,841.905 781.31,842.9831 Q781.9975,844.0456 783.3413,844.0456 Q783.9663,844.0456 784.56,843.78 Q785.1538,843.4988 785.7788,842.9206 L785.7788,845.6394 Z " fill="#000000"/><a href="file:////home/runner/work/BO4E-python/BO4E-python/docs/../.tox/docs/tmp/html/api/bo4e.enum.html#bo4e.enum.tariftyp.Tariftyp" target="_top" title="file:////home/runner/work/BO4E-python/BO4E-python/docs/../.tox/docs/tmp/html/api/bo4e.enum.html#bo4e.enum.tariftyp.Tariftyp" xlink:actuate="onRequest" xlink:href="file:////home/runner/work/BO4E-python/BO4E-python/docs/../.tox/docs/tmp/html/api/bo4e.enum.html#bo4e.enum.tariftyp.Tariftyp" xlink:show="new" xlink:title="file:////home/runner/work/BO4E-python/BO4E-python/docs/../.tox/docs/tmp/html/api/bo4e.enum.html#bo4e.enum.tariftyp.Tariftyp" xlink:type="simple"><text fill="#0000FF" font-family="sans-serif" font-size="14" lengthAdjust="spacing" text-decoration="underline" textLength="54.3662" x="817.9033" y="839.0251">Tariftyp</text></a><text fill="#000000" font-family="sans-serif" font-size="10" lengthAdjust="spacing" textLength="96.5527" x="796.81" y="851.6091">bo4e.enum.tariftyp</text></g><!--class Tarifinfo--><g class="entity" data-entity="Tarifinfo" data-source-line="3" data-uid="ent0002" id="entity_Tarifinfo"><rect fill="#F1F1F1" height="143.7188" rx="2.5" ry="2.5" style="stroke:#181818;stroke-width:0.5;" width="513.2793" x="7" y="439.14"/><ellipse cx="217.8809" cy="458.1088" fill="#ADD1B2" rx="11" ry="11" style="stroke:#181818;stroke-width:1;"/><path d="M220.8496,463.7494 Q220.2715,464.0463 219.6309,464.1869 Q218.9902,464.3431 218.2871,464.3431 Q215.7871,464.3431 214.459,462.7025 Q213.1465,461.0463 213.1465,457.9213 Q213.1465,454.7963 214.459,453.14 Q215.7871,451.4838 218.2871,451.4838 Q218.9902,451.4838 219.6309,451.64 Q220.2871,451.7963 220.8496,452.0931 L220.8496,454.8119 Q220.2246,454.2338 219.6309,453.9681 Q219.0371,453.6869 218.4121,453.6869 Q217.0684,453.6869 216.3809,454.765 Q215.6934,455.8275 215.6934,457.9213 Q215.6934,460.015 216.3809,461.0931 Q217.0684,462.1556 218.4121,462.1556 Q219.0371,462.1556 219.6309,461.89 Q220.2246,461.6088 220.8496,461.0306 L220.8496,463.7494 Z " fill="#000000"/><a href="file:////home/runner/work/BO4E-python/BO4E-python/docs/../.tox/docs/tmp/html/api/bo4e.bo.html#bo4e.bo.tarifinfo.Tarifinfo" target="_top" title="file:////home/runner/work/BO4E-python/BO4E-python/docs/../.tox/docs/tmp/html/api/bo4e.bo.html#bo4e.bo.tarifinfo.Tarifinfo" xlink:actuate="onRequest" xlink:href="file:////home/runner/work/BO4E-python/BO4E-python/docs/../.tox/docs/tmp/html/api/bo4e.bo.html#bo4e.bo.tarifinfo.Tarifinfo" xlink:show="new" xlink:title="file:////home/runner/work/BO4E-python/BO4E-python/docs/../.tox/docs/tmp/html/api/bo4e.bo.html#bo4e.bo.tarifinfo.Tarifinfo" xlink:type="simple"><text fill="#0000FF" font-family="sans-serif" font-size="14" lengthAdjust="spacing" text-decoration="underline" textLength="57.9619" x="250.9087" y="457.1351">Tarifinfo</text></a><text fill="#000000" font-family="sans-serif" font-size="10" lengthAdjust="spacing" textLength="83.0176" x="238.3809" y="469.7191">bo4e.bo.tarifinfo</text><line style="stroke:#181818;stroke-width:0.5;" x1="8" x2="519.2793" y1="477.0775" y2="477.0775"/><text fill="#000000" font-family="sans-serif" font-size="14" lengthAdjust="spacing" textLength="501.2793" x="13" y="494.0726">_typ : Literal[&lt;BoTyp.TARIFINFO: 'TARIFINFO'&gt;] [1] = BoTyp.TARIFINFO</text><text fill="#000000" font-family="sans-serif" font-size="14" lengthAdjust="spacing" textLength="220.8281" x="13" y="510.3695">bezeichnung : str [0..1] = None</text><text fill="#000000" font-family="sans-serif" font-size="14" lengthAdjust="spacing" textLength="229.8037" x="13" y="526.6664">anbietername : str [0..1] = None</text><text fill="#000000" font-family="sans-serif" font-size="14" lengthAdjust="spacing" textLength="185.6367" x="13" y="542.9632">website : str [0..1] = None</text><text fill="#000000" font-family="sans-serif" font-size="14" lengthAdjust="spacing" textLength="211.6475" x="13" y="559.2601">bemerkung : str [0..1] = None</text><text fill="#000000" font-family="sans-serif" font-size="14" lengthAdjust="spacing" textLength="330.8525" x="13" y="575.557">anwendungVon : AwareDatetime [0..1] = None</text></g><!--link Tarifinfo to Geschaeftsobjekt--><g class="link" data-entity-1="Tarifinfo" data-entity-2="Geschaeftsobjekt" data-source-line="29" data-uid="lnk17" id="link_Tarifinfo_Geschaeftsobjekt"><path codeLine="29" d="M355.16,438.77 C409.86,396.92 482.01,344.79 550.28,305 C627.92,259.75 707.4784,225.2273 764.7584,202.1073" fill="none" id="Tarifinfo-to-Geschaeftsobjekt" style="stroke:#181818;stroke-width:1;"/><polygon fill="none" points="781.45,195.37,762.5127,196.5434,767.0042,207.6711,781.45,195.37" style="stroke:#181818;stroke-width:1;"/></g><!--link Tarifinfo to Sparte--><g class="link" data-entity-1="Tarifinfo" data-entity-2="Sparte" data-source-line="30" data-uid="lnk18" id="link_Tarifinfo_Sparte"><path codeLine="30" d="M375.2,583.2 C427.07,615.29 490.52,652.05 550.28,680 C610.51,708.17 627.75,710.37 691.28,730 C716.83,737.9 733.6897,742.635 758.2497,748.965" fill="none" id="Tarifinfo-to-Sparte" style="stroke:#181818;stroke-width:1;"/><polygon fill="#181818" points="769.87,751.96,765.0582,746.5891,758.2497,748.965,763.0616,754.3359,769.87,751.96" style="stroke:#181818;stroke-width:1;"/><text fill="#000000" font-family="sans-serif" font-size="13" lengthAdjust="spacing" textLength="41.4312" x="596.28" y="676.0669">sparte</text><text fill="#000000" font-family="sans-serif" font-size="13" lengthAdjust="spacing" textLength="24.8066" x="737.3351" y="763.1629">0..1</text></g><!--link Tarifinfo to Kundentyp--><g class="link" data-entity-1="Tarifinfo" data-entity-2="Kundentyp" data-source-line="31" data-uid="lnk19" id="link_Tarifinfo_Kundentyp"><path codeLine="31" d="M452.89,583.25 C485.22,594.97 518.6,606.65 550.28,617 C612.2,637.24 628.46,639.78 691.28,657 C713.31,663.04 725.7484,666.3935 747.5784,672.1635" fill="none" id="Tarifinfo-to-Kundentyp" style="stroke:#181818;stroke-width:1;"/><polygon fill="#181818" points="759.18,675.23,754.4014,669.8296,747.5784,672.1635,752.3571,677.564,759.18,675.23" style="stroke:#181818;stroke-width:1;"/><text fill="#000000" font-family="sans-serif" font-size="13" lengthAdjust="spacing" textLength="85.7759" x="574.28" y="613.0669">kundentypen</text><text fill="#000000" font-family="sans-serif" font-size="13" lengthAdjust="spacing" textLength="23.0356" x="728.4002" y="686.2642">0..*</text></g><!--link Tarifinfo to Registeranzahl--><g class="link" data-entity-1="Tarifinfo" data-entity-2="Registeranzahl" data-source-line="32" data-uid="lnk20" id="link_Tarifinfo_Registeranzahl"><path codeLine="32" d="M520.52,527.71 C603.49,533.13 677.6455,537.9775 738.0955,541.9275" fill="none" id="Tarifinfo-to-Registeranzahl" style="stroke:#181818;stroke-width:1;"/><polygon fill="#181818" points="750.07,542.71,744.3436,538.3273,738.0955,541.9275,743.822,546.3103,750.07,542.71" style="stroke:#181818;stroke-width:1;"/><text fill="#000000" font-family="sans-serif" font-size="13" lengthAdjust="spacing" textLength="93.2661" x="570.28" y="527.0669">registeranzahl</text><text fill="#000000" font-family="sans-serif" font-size="13" lengthAdjust="spacing" textLength="24.8066" x="717.4402" y="554.9869">0..1</text></g><!--link Tarifinfo to Tariftyp--><g class="link" data-entity-1="Tarifinfo" data-entity-2="Tariftyp" data-source-line="33" data-uid="lnk21" id="link_Tarifinfo_Tariftyp"><path codeLine="33" d="M335.51,583.28 C390.23,635.82 469.94,705.58 550.28,752 C607.98,785.34 627.67,783.12 691.28,803 C715.96,810.71 731.8017,815.2074 755.7917,821.4074" fill="none" id="Tarifinfo-to-Tariftyp" style="stroke:#181818;stroke-width:1;"/><polygon fill="#181818" points="767.41,824.41,762.6017,819.0359,755.7917,821.4074,760.6,826.7814,767.41,824.41" style="stroke:#181818;stroke-width:1;"/><text fill="#000000" font-family="sans-serif" font-size="13" lengthAdjust="spacing" textLength="47.6392" x="593.28" y="748.0669">tariftyp</text><text fill="#000000" font-family="sans-serif" font-size="13" lengthAdjust="spacing" textLength="24.8066" x="735.0676" y="835.5995">0..1</text></g><!--link Tarifinfo to Tarifmerkmal--><g class="link" data-entity-1="Tarifinfo" data-entity-2="Tarifmerkmal" data-source-line="34" data-uid="lnk22" id="link_Tarifinfo_Tarifmerkmal"><path codeLine="34" d="M520.52,560.69 C604.96,577.09 680.8903,591.8313 741.4703,603.6013" fill="none" id="Tarifinfo-to-Tarifmerkmal" style="stroke:#181818;stroke-width:1;"/><polygon fill="#181818" points="753.25,605.89,748.123,600.8191,741.4703,603.6013,746.5972,608.6722,753.25,605.89" style="stroke:#181818;stroke-width:1;"/><text fill="#000000" font-family="sans-serif" font-size="13" lengthAdjust="spacing" textLength="92.3711" x="570.78" y="564.0669">tarifmerkmale</text><text fill="#000000" font-family="sans-serif" font-size="13" lengthAdjust="spacing" textLength="23.0356" x="722.7706" y="617.3323">0..*</text></g><!--link Tarifinfo to Marktteilnehmer--><g class="link" data-entity-1="Tarifinfo" data-entity-2="Marktteilnehmer" data-source-line="35" data-uid="lnk23" id="link_Tarifinfo_Marktteilnehmer"><path codeLine="35" d="M325.62,438.67 C401.97,353.18 541.09,213.28 691.28,140 C710.12,130.81 719.9572,126.7694 740.2672,121.3394" fill="none" id="Tarifinfo-to-Marktteilnehmer" style="stroke:#181818;stroke-width:1;"/><polygon fill="#181818" points="751.86,118.24,745.0304,115.9254,740.2672,121.3394,747.0967,123.654,751.86,118.24" style="stroke:#181818;stroke-width:1;"/><text fill="#000000" font-family="sans-serif" font-size="13" lengthAdjust="spacing" textLength="54.5073" x="589.78" y="143.0669">anbieter</text><text fill="#000000" font-family="sans-serif" font-size="13" lengthAdjust="spacing" textLength="24.8066" x="719.3948" y="132.4095">0..1</text></g><!--link Tarifinfo to Zeitraum--><g class="link" data-entity-1="Tarifinfo" data-entity-2="Zeitraum" data-source-line="36" data-uid="lnk24" id="link_Tarifinfo_Zeitraum"><path codeLine="36" d="M520.52,476.67 C611.7,464.43 694.8065,453.2855 755.3365,445.1655" fill="none" id="Tarifinfo-to-Zeitraum" style="stroke:#181818;stroke-width:1;"/><polygon fill="#181818" points="767.23,443.57,760.7514,440.4033,755.3365,445.1655,761.8151,448.3322,767.23,443.57" style="stroke:#181818;stroke-width:1;"/><text fill="#000000" font-family="sans-serif" font-size="13" lengthAdjust="spacing" textLength="125.2583" x="554.28" y="452.0669">zeitlicheGueltigkeit</text><text fill="#000000" font-family="sans-serif" font-size="13" lengthAdjust="spacing" textLength="24.8066" x="734.8679" y="457.402">0..1</text></g><!--link Tarifinfo to Energiemix--><g class="link" data-entity-1="Tarifinfo" data-entity-2="Energiemix" data-source-line="37" data-uid="lnk25" id="link_Tarifinfo_Energiemix"><path codeLine="37" d="M405.04,438.74 C450.79,416.39 502.19,392.54 550.28,373 C611.48,348.14 627.99,344.9 691.28,326 C713.89,319.25 727.1432,315.5068 749.5432,309.6268" fill="none" id="Tarifinfo-to-Energiemix" style="stroke:#181818;stroke-width:1;"/><polygon fill="#181818" points="761.15,306.58,754.331,304.2345,749.5432,309.6268,756.3622,311.9723,761.15,306.58" style="stroke:#181818;stroke-width:1;"/><text fill="#000000" font-family="sans-serif" font-size="13" lengthAdjust="spacing" textLength="73.4106" x="580.28" y="326.0669">energiemix</text><text fill="#000000" font-family="sans-serif" font-size="13" lengthAdjust="spacing" textLength="24.8066" x="728.6392" y="321.2402">0..1</text></g><!--link Tarifinfo to Vertragskonditionen--><g class="link" data-entity-1="Tarifinfo" data-entity-2="Vertragskonditionen" data-source-line="38" data-uid="lnk26" id="link_Tarifinfo_Vertragskonditionen"><path codeLine="38" d="M520.69,438.86 C530.68,436.18 540.57,433.55 550.28,431 C616.92,413.49 681.1515,397.7211 737.2215,384.2611" fill="none" id="Tarifinfo-to-Vertragskonditionen" style="stroke:#181818;stroke-width:1;"/><polygon fill="#181818" points="748.89,381.46,742.1221,378.9711,737.2215,384.2611,743.9895,386.7501,748.89,381.46" style="stroke:#181818;stroke-width:1;"/><text fill="#000000" font-family="sans-serif" font-size="13" lengthAdjust="spacing" textLength="131.1934" x="551.28" y="394.0669">vertragskonditionen</text><text fill="#000000" font-family="sans-serif" font-size="13" lengthAdjust="spacing" textLength="24.8066" x="706.2276" y="398.848">0..1</text></g><!--SRC=[nLPDRzim33tNlu983WK6L6wnhYkCha2wVg3OrW9TqCEoO91jnjPYIu6aB6st_VV9ZkMlkCbfIIxcanzfFeQIcE14WnOWMHHh29d4G3F17IT8g5BG6uqcB47FDRzOfEZAEUSetOMGK_VY_lZgOFQiOy4RTYW2vHBY4YsUba2dCpVMQUBI6NDzSOp45oHRw5kWgMGJnYU23Aq5fJKUV-TdYhsWTtHulkBH0wegBlnszdxevnbuy9bfb3GPdLs8uVEC30SFjzUtTzVt7koNzlxv64P7O_W0BPApv-CBiY3cSnwPO4fB61qIadFl14TdZtAVeVa4fobsCnReAvD4zqiVKvJJDT4No4Fp-b5mmnWigCHBgb4pyxKczw_ZP3ce6Gtml_zbK83nE2zyWQ1_SNBvVd2QbN_BhPDIETKQMS8nDXKbNveOMhYpcLenScKjlwthYb05CJNxKmd_9qurkMajG7kXKrexJAwjxMbQQ0iT58Yqra86rNl8GEXV7GvEJpvkeObiAlqIeOaRCKpP4xagJQZCrU8slN8b5Nq72dwXr996QYfuoB9J73bvN5s3ZhLkSHq1SvKT0NOWrvpE9ejvIhuL1bYZMutbvn8iTJkDZtnUx_mCrbi_mz0FZuAtxxPnW9RPz2ieCM8gkoxv2uqJyj20q8IhvUq8aQjh-kr4M3ucP1TjIfFbR540g8DN9DMTgp6ZMDY973ClXCZDV4C-MGjAwnKLfKykeMJl97-pqQH6yZL_mFBnIjfBQfxpahUx_idgFImCiCQwdh75jjniHAjDjWS7VyxjvBHohTU9Xla6UjcmrwkE2bizCpOkwzBbyARkKFMA1sKtc4DxuvTQvu07pKs-EK1PDGziOJQdszYcXMC1SUqdJJNRqvy7TanVwvbT4EKzua5sLoHc-CUREIQQHLE3D_hNnWOFgi5Wer_N7Ur1n-NhE34B4L9CVPJAKR5OG2tuX64Igdy0]--></g></svg>