<svg xmlns="http://www.w3.org/2000/svg" xmlns:xlink="http://www.w3.org/1999/xlink" contentStyleType="text/css" data-diagram-type="CLASS" height="574px" preserveAspectRatio="none" style="width:869px;height:574px;background:#FFFFFF;" version="1.1" viewBox="0 0 869 574" width="869px" zoomAndPan="magnify"><defs/><g><!--cluster bo4e--><g class="cluster" data-entity="bo4e" data-source-line="11" data-uid="ent0005" id="cluster_bo4e"><path d="M556.26,6 L596.136,6 A3.75,3.75 0 0 1 598.636,8.5 L605.636,28.2969 L860.12,28.2969 A2.5,2.5 0 0 1 862.62,30.7969 L862.62,564.5 A2.5,2.5 0 0 1 860.12,567 L556.26,567 A2.5,2.5 0 0 1 553.76,564.5 L553.76,8.5 A2.5,2.5 0 0 1 556.26,6" fill="none" style="stroke:#000000;stroke-width:1.5;"/><line style="stroke:#000000;stroke-width:1.5;" x1="553.76" x2="605.636" y1="28.2969" y2="28.2969"/><text fill="#000000" font-family="sans-serif" font-size="14" font-weight="bold" lengthAdjust="spacing" textLength="38.876" x="557.76" y="20.9951">bo4e</text></g><!--cluster bo--><g class="cluster" data-entity="bo" data-source-line="10" data-uid="ent0003" id="cluster_bo"><path d="M637.18,49 L702.014,49 A3.75,3.75 0 0 1 704.514,51.5 L711.514,71.2969 L779.2,71.2969 A2.5,2.5 0 0 1 781.7,73.7969 L781.7,135.5 A2.5,2.5 0 0 1 779.2,138 L637.18,138 A2.5,2.5 0 0 1 634.68,135.5 L634.68,51.5 A2.5,2.5 0 0 1 637.18,49" fill="#B6D7A8" style="stroke:#000000;stroke-width:1.5;"/><line style="stroke:#000000;stroke-width:1.5;" x1="634.68" x2="711.514" y1="71.2969" y2="71.2969"/><a href="file:////home/runner/work/BO4E-python/BO4E-python/docs/../.tox/docs/tmp/html/api/bo4e.bo.html" target="_top" title="file:////home/runner/work/BO4E-python/BO4E-python/docs/../.tox/docs/tmp/html/api/bo4e.bo.html" xlink:actuate="onRequest" xlink:href="file:////home/runner/work/BO4E-python/BO4E-python/docs/../.tox/docs/tmp/html/api/bo4e.bo.html" xlink:show="new" xlink:title="file:////home/runner/work/BO4E-python/BO4E-python/docs/../.tox/docs/tmp/html/api/bo4e.bo.html" xlink:type="simple"><text fill="#0000FF" font-family="sans-serif" font-size="14" font-weight="bold" lengthAdjust="spacing" text-decoration="underline" textLength="63.834" x="638.68" y="63.9951">bo4e.bo</text></a></g><!--cluster com--><g class="cluster" data-entity="com" data-source-line="13" data-uid="ent0006" id="cluster_com"><path d="M580.26,162 L657.9592,162 A3.75,3.75 0 0 1 660.4592,164.5 L667.4592,184.2969 L836.12,184.2969 A2.5,2.5 0 0 1 838.62,186.7969 L838.62,540.5 A2.5,2.5 0 0 1 836.12,543 L580.26,543 A2.5,2.5 0 0 1 577.76,540.5 L577.76,164.5 A2.5,2.5 0 0 1 580.26,162" fill="#E0A86C" style="stroke:#000000;stroke-width:1.5;"/><line style="stroke:#000000;stroke-width:1.5;" x1="577.76" x2="667.4592" y1="184.2969" y2="184.2969"/><a href="file:////home/runner/work/BO4E-python/BO4E-python/docs/../.tox/docs/tmp/html/api/bo4e.com.html" target="_top" title="file:////home/runner/work/BO4E-python/BO4E-python/docs/../.tox/docs/tmp/html/api/bo4e.com.html" xlink:actuate="onRequest" xlink:href="file:////home/runner/work/BO4E-python/BO4E-python/docs/../.tox/docs/tmp/html/api/bo4e.com.html" xlink:show="new" xlink:title="file:////home/runner/work/BO4E-python/BO4E-python/docs/../.tox/docs/tmp/html/api/bo4e.com.html" xlink:type="simple"><text fill="#0000FF" font-family="sans-serif" font-size="14" font-weight="bold" lengthAdjust="spacing" text-decoration="underline" textLength="76.6992" x="581.76" y="176.9951">bo4e.com</text></a></g><!--class Tarifinfo--><g class="entity" data-entity="Tarifinfo" data-source-line="11" data-uid="ent0004" id="entity_Tarifinfo"><rect fill="#F1F1F1" height="37.9375" rx="2.5" ry="2.5" style="stroke:#181818;stroke-width:0.5;" width="115.0176" x="650.68" y="84.03"/><ellipse cx="665.68" cy="102.9987" fill="#ADD1B2" rx="11" ry="11" style="stroke:#181818;stroke-width:1;"/><path d="M668.6488,108.6394 Q668.0706,108.9362 667.43,109.0769 Q666.7894,109.2331 666.0863,109.2331 Q663.5863,109.2331 662.2581,107.5925 Q660.9456,105.9362 660.9456,102.8112 Q660.9456,99.6862 662.2581,98.03 Q663.5863,96.3737 666.0863,96.3737 Q666.7894,96.3737 667.43,96.53 Q668.0863,96.6862 668.6488,96.9831 L668.6488,99.7019 Q668.0238,99.1237 667.43,98.8581 Q666.8363,98.5769 666.2113,98.5769 Q664.8675,98.5769 664.18,99.655 Q663.4925,100.7175 663.4925,102.8112 Q663.4925,104.905 664.18,105.9831 Q664.8675,107.0456 666.2113,107.0456 Q666.8363,107.0456 667.43,106.78 Q668.0238,106.4987 668.6488,105.9206 L668.6488,108.6394 Z " fill="#000000"/><a href="file:////home/runner/work/BO4E-python/BO4E-python/docs/../.tox/docs/tmp/html/api/bo4e.bo.html#bo4e.bo.tarifinfo.Tarifinfo" target="_top" title="file:////home/runner/work/BO4E-python/BO4E-python/docs/../.tox/docs/tmp/html/api/bo4e.bo.html#bo4e.bo.tarifinfo.Tarifinfo" xlink:actuate="onRequest" xlink:href="file:////home/runner/work/BO4E-python/BO4E-python/docs/../.tox/docs/tmp/html/api/bo4e.bo.html#bo4e.bo.tarifinfo.Tarifinfo" xlink:show="new" xlink:title="file:////home/runner/work/BO4E-python/BO4E-python/docs/../.tox/docs/tmp/html/api/bo4e.bo.html#bo4e.bo.tarifinfo.Tarifinfo" xlink:type="simple"><text fill="#0000FF" font-family="sans-serif" font-size="14" lengthAdjust="spacing" text-decoration="underline" textLength="57.9619" x="692.2078" y="102.0251">Tarifinfo</text></a><text fill="#000000" font-family="sans-serif" font-size="10" lengthAdjust="spacing" textLength="83.0176" x="679.68" y="114.6091">bo4e.bo.tarifinfo</text></g><!--class Tarifpreisposition--><g class="entity" data-entity="Tarifpreisposition" data-source-line="14" data-uid="ent0007" id="entity_Tarifpreisposition"><rect fill="#F1F1F1" height="37.9375" rx="2.5" ry="2.5" style="stroke:#181818;stroke-width:0.5;" width="169.3633" x="623.51" y="197.03"/><ellipse cx="638.51" cy="215.9987" fill="#ADD1B2" rx="11" ry="11" style="stroke:#181818;stroke-width:1;"/><path d="M641.4788,221.6394 Q640.9006,221.9362 640.26,222.0769 Q639.6194,222.2331 638.9163,222.2331 Q636.4163,222.2331 635.0881,220.5925 Q633.7756,218.9362 633.7756,215.8112 Q633.7756,212.6862 635.0881,211.03 Q636.4163,209.3737 638.9163,209.3737 Q639.6194,209.3737 640.26,209.53 Q640.9163,209.6862 641.4788,209.9831 L641.4788,212.7019 Q640.8538,212.1237 640.26,211.8581 Q639.6663,211.5769 639.0413,211.5769 Q637.6975,211.5769 637.01,212.655 Q636.3225,213.7175 636.3225,215.8112 Q636.3225,217.905 637.01,218.9831 Q637.6975,220.0456 639.0413,220.0456 Q639.6663,220.0456 640.26,219.78 Q640.8538,219.4987 641.4788,218.9206 L641.4788,221.6394 Z " fill="#000000"/><a href="file:////home/runner/work/BO4E-python/BO4E-python/docs/../.tox/docs/tmp/html/api/bo4e.com.html#bo4e.com.tarifpreisposition.Tarifpreisposition" target="_top" title="file:////home/runner/work/BO4E-python/BO4E-python/docs/../.tox/docs/tmp/html/api/bo4e.com.html#bo4e.com.tarifpreisposition.Tarifpreisposition" xlink:actuate="onRequest" xlink:href="file:////home/runner/work/BO4E-python/BO4E-python/docs/../.tox/docs/tmp/html/api/bo4e.com.html#bo4e.com.tarifpreisposition.Tarifpreisposition" xlink:show="new" xlink:title="file:////home/runner/work/BO4E-python/BO4E-python/docs/../.tox/docs/tmp/html/api/bo4e.com.html#bo4e.com.tarifpreisposition.Tarifpreisposition" xlink:type="simple"><text fill="#0000FF" font-family="sans-serif" font-size="14" lengthAdjust="spacing" text-decoration="underline" textLength="121.5977" x="660.3928" y="215.0251">Tarifpreisposition</text></a><text fill="#000000" font-family="sans-serif" font-size="10" lengthAdjust="spacing" textLength="137.3633" x="652.51" y="227.6091">bo4e.com.tarifpreisposition</text></g><!--class Tarifeinschraenkung--><g class="entity" data-entity="Tarifeinschraenkung" data-source-line="15" data-uid="ent0008" id="entity_Tarifeinschraenkung"><rect fill="#F1F1F1" height="37.9375" rx="2.5" ry="2.5" style="stroke:#181818;stroke-width:0.5;" width="185.0127" x="615.69" y="270.03"/><ellipse cx="630.69" cy="288.9988" fill="#ADD1B2" rx="11" ry="11" style="stroke:#181818;stroke-width:1;"/><path d="M633.6588,294.6394 Q633.0806,294.9363 632.44,295.0769 Q631.7994,295.2331 631.0963,295.2331 Q628.5963,295.2331 627.2681,293.5925 Q625.9556,291.9363 625.9556,288.8113 Q625.9556,285.6863 627.2681,284.03 Q628.5963,282.3738 631.0963,282.3738 Q631.7994,282.3738 632.44,282.53 Q633.0963,282.6863 633.6588,282.9831 L633.6588,285.7019 Q633.0338,285.1238 632.44,284.8581 Q631.8463,284.5769 631.2213,284.5769 Q629.8775,284.5769 629.19,285.655 Q628.5025,286.7175 628.5025,288.8113 Q628.5025,290.905 629.19,291.9831 Q629.8775,293.0456 631.2213,293.0456 Q631.8463,293.0456 632.44,292.78 Q633.0338,292.4988 633.6588,291.9206 L633.6588,294.6394 Z " fill="#000000"/><a href="file:////home/runner/work/BO4E-python/BO4E-python/docs/../.tox/docs/tmp/html/api/bo4e.com.html#bo4e.com.tarifeinschraenkung.Tarifeinschraenkung" target="_top" title="file:////home/runner/work/BO4E-python/BO4E-python/docs/../.tox/docs/tmp/html/api/bo4e.com.html#bo4e.com.tarifeinschraenkung.Tarifeinschraenkung" xlink:actuate="onRequest" xlink:href="file:////home/runner/work/BO4E-python/BO4E-python/docs/../.tox/docs/tmp/html/api/bo4e.com.html#bo4e.com.tarifeinschraenkung.Tarifeinschraenkung" xlink:show="new" xlink:title="file:////home/runner/work/BO4E-python/BO4E-python/docs/../.tox/docs/tmp/html/api/bo4e.com.html#bo4e.com.tarifeinschraenkung.Tarifeinschraenkung" xlink:type="simple"><text fill="#0000FF" font-family="sans-serif" font-size="14" lengthAdjust="spacing" text-decoration="underline" textLength="143.5068" x="649.4429" y="288.0251">Tarifeinschraenkung</text></a><text fill="#000000" font-family="sans-serif" font-size="10" lengthAdjust="spacing" textLength="153.0127" x="644.69" y="300.6091">bo4e.com.tarifeinschraenkung</text></g><!--class Preisgarantie--><g class="entity" data-entity="Preisgarantie" data-source-line="16" data-uid="ent0009" id="entity_Preisgarantie"><rect fill="#F1F1F1" height="37.9375" rx="2.5" ry="2.5" style="stroke:#181818;stroke-width:0.5;" width="151.1992" x="632.59" y="343.03"/><ellipse cx="647.59" cy="361.9988" fill="#ADD1B2" rx="11" ry="11" style="stroke:#181818;stroke-width:1;"/><path d="M650.5588,367.6394 Q649.9806,367.9363 649.34,368.0769 Q648.6994,368.2331 647.9963,368.2331 Q645.4963,368.2331 644.1681,366.5925 Q642.8556,364.9363 642.8556,361.8113 Q642.8556,358.6863 644.1681,357.03 Q645.4963,355.3738 647.9963,355.3738 Q648.6994,355.3738 649.34,355.53 Q649.9963,355.6863 650.5588,355.9831 L650.5588,358.7019 Q649.9338,358.1238 649.34,357.8581 Q648.7463,357.5769 648.1213,357.5769 Q646.7775,357.5769 646.09,358.655 Q645.4025,359.7175 645.4025,361.8113 Q645.4025,363.905 646.09,364.9831 Q646.7775,366.0456 648.1213,366.0456 Q648.7463,366.0456 649.34,365.78 Q649.9338,365.4988 650.5588,364.9206 L650.5588,367.6394 Z " fill="#000000"/><a href="file:////home/runner/work/BO4E-python/BO4E-python/docs/../.tox/docs/tmp/html/api/bo4e.com.html#bo4e.com.preisgarantie.Preisgarantie" target="_top" title="file:////home/runner/work/BO4E-python/BO4E-python/docs/../.tox/docs/tmp/html/api/bo4e.com.html#bo4e.com.preisgarantie.Preisgarantie" xlink:actuate="onRequest" xlink:href="file:////home/runner/work/BO4E-python/BO4E-python/docs/../.tox/docs/tmp/html/api/bo4e.com.html#bo4e.com.preisgarantie.Preisgarantie" xlink:show="new" xlink:title="file:////home/runner/work/BO4E-python/BO4E-python/docs/../.tox/docs/tmp/html/api/bo4e.com.html#bo4e.com.preisgarantie.Preisgarantie" xlink:type="simple"><text fill="#0000FF" font-family="sans-serif" font-size="14" lengthAdjust="spacing" text-decoration="underline" textLength="92.6611" x="674.859" y="361.0251">Preisgarantie</text></a><text fill="#000000" font-family="sans-serif" font-size="10" lengthAdjust="spacing" textLength="119.1992" x="661.59" y="373.6091">bo4e.com.preisgarantie</text></g><!--class AufAbschlag--><g class="entity" data-entity="AufAbschlag" data-source-line="17" data-uid="ent0010" id="entity_AufAbschlag"><rect fill="#F1F1F1" height="37.9375" rx="2.5" ry="2.5" style="stroke:#181818;stroke-width:0.5;" width="145.457" x="635.46" y="416.03"/><ellipse cx="650.46" cy="434.9988" fill="#ADD1B2" rx="11" ry="11" style="stroke:#181818;stroke-width:1;"/><path d="M653.4288,440.6394 Q652.8506,440.9363 652.21,441.0769 Q651.5694,441.2331 650.8663,441.2331 Q648.3663,441.2331 647.0381,439.5925 Q645.7256,437.9363 645.7256,434.8113 Q645.7256,431.6863 647.0381,430.03 Q648.3663,428.3738 650.8663,428.3738 Q651.5694,428.3738 652.21,428.53 Q652.8663,428.6863 653.4288,428.9831 L653.4288,431.7019 Q652.8038,431.1238 652.21,430.8581 Q651.6163,430.5769 650.9913,430.5769 Q649.6475,430.5769 648.96,431.655 Q648.2725,432.7175 648.2725,434.8113 Q648.2725,436.905 648.96,437.9831 Q649.6475,439.0456 650.9913,439.0456 Q651.6163,439.0456 652.21,438.78 Q652.8038,438.4988 653.4288,437.9206 L653.4288,440.6394 Z " fill="#000000"/><a href="file:////home/runner/work/BO4E-python/BO4E-python/docs/../.tox/docs/tmp/html/api/bo4e.com.html#bo4e.com.aufabschlag.AufAbschlag" target="_top" title="file:////home/runner/work/BO4E-python/BO4E-python/docs/../.tox/docs/tmp/html/api/bo4e.com.html#bo4e.com.aufabschlag.AufAbschlag" xlink:actuate="onRequest" xlink:href="file:////home/runner/work/BO4E-python/BO4E-python/docs/../.tox/docs/tmp/html/api/bo4e.com.html#bo4e.com.aufabschlag.AufAbschlag" xlink:show="new" xlink:title="file:////home/runner/work/BO4E-python/BO4E-python/docs/../.tox/docs/tmp/html/api/bo4e.com.html#bo4e.com.aufabschlag.AufAbschlag" xlink:type="simple"><text fill="#0000FF" font-family="sans-serif" font-size="14" lengthAdjust="spacing" text-decoration="underline" textLength="87.0625" x="677.6573" y="434.0251">AufAbschlag</text></a><text fill="#000000" font-family="sans-serif" font-size="10" lengthAdjust="spacing" textLength="113.457" x="664.46" y="446.6091">bo4e.com.aufabschlag</text></g><!--class Tarifberechnungsparameter--><g class="entity" data-entity="Tarifberechnungsparameter" data-source-line="18" data-uid="ent0011" id="entity_Tarifberechnungsparameter"><rect fill="#F1F1F1" height="37.9375" rx="2.5" ry="2.5" style="stroke:#181818;stroke-width:0.5;" width="228.8545" x="593.76" y="489.03"/><ellipse cx="608.76" cy="507.9988" fill="#ADD1B2" rx="11" ry="11" style="stroke:#181818;stroke-width:1;"/><path d="M611.7288,513.6394 Q611.1506,513.9363 610.51,514.0769 Q609.8694,514.2331 609.1663,514.2331 Q606.6663,514.2331 605.3381,512.5925 Q604.0256,510.9363 604.0256,507.8113 Q604.0256,504.6863 605.3381,503.03 Q606.6663,501.3738 609.1663,501.3738 Q609.8694,501.3738 610.51,501.53 Q611.1663,501.6863 611.7288,501.9831 L611.7288,504.7019 Q611.1038,504.1238 610.51,503.8581 Q609.9163,503.5769 609.2913,503.5769 Q607.9475,503.5769 607.26,504.655 Q606.5725,505.7175 606.5725,507.8113 Q606.5725,509.905 607.26,510.9831 Q607.9475,512.0456 609.2913,512.0456 Q609.9163,512.0456 610.51,511.78 Q611.1038,511.4988 611.7288,510.9206 L611.7288,513.6394 Z " fill="#000000"/><a href="file:////home/runner/work/BO4E-python/BO4E-python/docs/../.tox/docs/tmp/html/api/bo4e.com.html#bo4e.com.tarifberechnungsparameter.Tarifberechnungsparameter" target="_top" title="file:////home/runner/work/BO4E-python/BO4E-python/docs/../.tox/docs/tmp/html/api/bo4e.com.html#bo4e.com.tarifberechnungsparameter.Tarifberechnungsparameter" xlink:actuate="onRequest" xlink:href="file:////home/runner/work/BO4E-python/BO4E-python/docs/../.tox/docs/tmp/html/api/bo4e.com.html#bo4e.com.tarifberechnungsparameter.Tarifberechnungsparameter" xlink:show="new" xlink:title="file:////home/runner/work/BO4E-python/BO4E-python/docs/../.tox/docs/tmp/html/api/bo4e.com.html#bo4e.com.tarifberechnungsparameter.Tarifberechnungsparameter" xlink:type="simple"><text fill="#0000FF" font-family="sans-serif" font-size="14" lengthAdjust="spacing" text-decoration="underline" textLength="196.8545" x="622.76" y="507.0251">Tarifberechnungsparameter</text></a><text fill="#000000" font-family="sans-serif" font-size="10" lengthAdjust="spacing" textLength="191.1182" x="625.6282" y="519.6091">bo4e.com.tarifberechnungsparameter</text></g><!--class Tarifpreisblatt--><g class="entity" data-entity="Tarifpreisblatt" data-source-line="3" data-uid="ent0002" id="entity_Tarifpreisblatt"><rect fill="#F1F1F1" height="111.125" rx="2.5" ry="2.5" style="stroke:#181818;stroke-width:0.5;" width="345.7646" x="7" y="274.44"/><ellipse cx="119.6533" cy="293.4088" fill="#ADD1B2" rx="11" ry="11" style="stroke:#181818;stroke-width:1;"/><path d="M122.6221,299.0494 Q122.0439,299.3463 121.4033,299.4869 Q120.7627,299.6431 120.0596,299.6431 Q117.5596,299.6431 116.2314,298.0025 Q114.9189,296.3463 114.9189,293.2213 Q114.9189,290.0963 116.2314,288.44 Q117.5596,286.7838 120.0596,286.7838 Q120.7627,286.7838 121.4033,286.94 Q122.0596,287.0963 122.6221,287.3931 L122.6221,290.1119 Q121.9971,289.5338 121.4033,289.2681 Q120.8096,288.9869 120.1846,288.9869 Q118.8408,288.9869 118.1533,290.065 Q117.4658,291.1275 117.4658,293.2213 Q117.4658,295.315 118.1533,296.3931 Q118.8408,297.4556 120.1846,297.4556 Q120.8096,297.4556 121.4033,297.19 Q121.9971,296.9088 122.6221,296.3306 L122.6221,299.0494 Z " fill="#000000"/><a href="file:////home/runner/work/BO4E-python/BO4E-python/docs/../.tox/docs/tmp/html/api/bo4e.bo.html#bo4e.bo.tarifpreisblatt.Tarifpreisblatt" target="_top" title="file:////home/runner/work/BO4E-python/BO4E-python/docs/../.tox/docs/tmp/html/api/bo4e.bo.html#bo4e.bo.tarifpreisblatt.Tarifpreisblatt" xlink:actuate="onRequest" xlink:href="file:////home/runner/work/BO4E-python/BO4E-python/docs/../.tox/docs/tmp/html/api/bo4e.bo.html#bo4e.bo.tarifpreisblatt.Tarifpreisblatt" xlink:show="new" xlink:title="file:////home/runner/work/BO4E-python/BO4E-python/docs/../.tox/docs/tmp/html/api/bo4e.bo.html#bo4e.bo.tarifpreisblatt.Tarifpreisblatt" xlink:type="simple"><text fill="#0000FF" font-family="sans-serif" font-size="14" lengthAdjust="spacing" text-decoration="underline" textLength="98.4785" x="146.8931" y="292.4351">Tarifpreisblatt</text></a><text fill="#000000" font-family="sans-serif" font-size="10" lengthAdjust="spacing" textLength="111.958" x="140.1533" y="305.0191">bo4e.bo.tarifpreisblatt</text><line style="stroke:#181818;stroke-width:0.5;" x1="8" x2="351.7646" y1="312.3775" y2="312.3775"/><text fill="#000000" font-family="sans-serif" font-size="14" lengthAdjust="spacing" textLength="333.7646" x="13" y="329.3726">_version : str [0..1] = 202501.0.0+g5a3185351</text><text fill="#000000" font-family="sans-serif" font-size="14" lengthAdjust="spacing" textLength="318.5752" x="13" y="345.6695">zusatzAttribute : ZusatzAttribut [0..*] = None</text><text fill="#000000" font-family="sans-serif" font-size="14" lengthAdjust="spacing" textLength="151.1768" x="13" y="361.9664">_id : str [0..1] = None</text><text fill="#000000" font-family="sans-serif" font-size="14" lengthAdjust="spacing" textLength="295.4902" x="13" y="378.2632">preisstand : AwareDatetime [0..1] = None</text></g><!--link Tarifpreisblatt to Tarifinfo--><g class="link" data-entity-1="Tarifpreisblatt" data-entity-2="Tarifinfo" data-source-line="21" data-uid="lnk12" id="link_Tarifpreisblatt_Tarifinfo"><path codeLine="21" d="M280.21,273.98 C312.47,256.7 348.73,238.23 382.76,223 C474.44,181.97 567.7255,149.0276 633.2355,127.1676" fill="none" id="Tarifpreisblatt-to-Tarifinfo" style="stroke:#181818;stroke-width:1;"/><polygon fill="none" points="650.31,121.47,631.3363,121.4761,635.1347,132.8591,650.31,121.47" style="stroke:#181818;stroke-width:1;"/></g><!--link Tarifpreisblatt to Tarifpreisposition--><g class="link" data-entity-1="Tarifpreisblatt" data-entity-2="Tarifpreisposition" data-source-line="22" data-uid="lnk13" id="link_Tarifpreisblatt_Tarifpreisposition"><path codeLine="22" d="M353.06,284.87 C363.1,282.49 373.05,280.18 382.76,278 C464.04,259.79 545.7173,244.3918 611.3873,232.6518" fill="none" id="Tarifpreisblatt-to-Tarifpreisposition" style="stroke:#181818;stroke-width:1;"/><polygon fill="#181818" points="623.2,230.54,616.5897,227.6583,611.3873,232.6518,617.9976,235.5335,623.2,230.54" style="stroke:#181818;stroke-width:1;"/><text fill="#000000" font-family="sans-serif" font-size="13" lengthAdjust="spacing" textLength="66.5742" x="427.26" y="244.0669">tarifpreise</text><text fill="#000000" font-family="sans-serif" font-size="13" lengthAdjust="spacing" textLength="23.0356" x="592.5122" y="244.3686">0..*</text></g><!--link Tarifpreisblatt to Tarifberechnungsparameter--><g class="link" data-entity-1="Tarifpreisblatt" data-entity-2="Tarifberechnungsparameter" data-source-line="23" data-uid="lnk14" id="link_Tarifpreisblatt_Tarifberechnungsparameter"><path codeLine="23" d="M273.68,385.98 C307.15,404.32 345.8,423.45 382.76,437 C450.84,461.96 518.5009,477.3982 581.7609,488.8182" fill="none" id="Tarifpreisblatt-to-Tarifberechnungsparameter" style="stroke:#181818;stroke-width:1;"/><polygon fill="#181818" points="593.57,490.95,588.3761,485.9477,581.7609,488.8182,586.9548,493.8205,593.57,490.95" style="stroke:#181818;stroke-width:1;"/><text fill="#000000" font-family="sans-serif" font-size="13" lengthAdjust="spacing" textLength="153.353" x="383.76" y="433.0669">berechnungsparameter</text><text fill="#000000" font-family="sans-serif" font-size="13" lengthAdjust="spacing" textLength="24.8066" x="561.09" y="502.3798">0..1</text></g><!--link Tarifpreisblatt to Tarifeinschraenkung--><g class="link" data-entity-1="Tarifpreisblatt" data-entity-2="Tarifeinschraenkung" data-source-line="24" data-uid="lnk15" id="link_Tarifpreisblatt_Tarifeinschraenkung"><path codeLine="24" d="M353.22,316.58 C440.61,309.77 531.2662,302.7015 603.4462,297.0815" fill="none" id="Tarifpreisblatt-to-Tarifeinschraenkung" style="stroke:#181818;stroke-width:1;"/><polygon fill="#181818" points="615.41,296.15,609.1176,292.6278,603.4462,297.0815,609.7386,300.6037,615.41,296.15" style="stroke:#181818;stroke-width:1;"/><text fill="#000000" font-family="sans-serif" font-size="13" lengthAdjust="spacing" textLength="130.4126" x="395.26" y="299.0669">tarifeinschraenkung</text><text fill="#000000" font-family="sans-serif" font-size="13" lengthAdjust="spacing" textLength="24.8066" x="582.7658" y="309.4357">0..1</text></g><!--link Tarifpreisblatt to Preisgarantie--><g class="link" data-entity-1="Tarifpreisblatt" data-entity-2="Preisgarantie" data-source-line="25" data-uid="lnk16" id="link_Tarifpreisblatt_Preisgarantie"><path codeLine="25" d="M353.15,350.63 C363.16,351.51 373.09,352.32 382.76,353 C468.2,359.04 554.5506,360.9597 620.3706,361.6197" fill="none" id="Tarifpreisblatt-to-Preisgarantie" style="stroke:#181818;stroke-width:1;"/><polygon fill="#181818" points="632.37,361.74,626.4104,357.68,620.3706,361.6197,626.3302,365.6796,632.37,361.74" style="stroke:#181818;stroke-width:1;"/><text fill="#000000" font-family="sans-serif" font-size="13" lengthAdjust="spacing" textLength="86.4551" x="417.26" y="349.0669">preisgarantie</text><text fill="#000000" font-family="sans-serif" font-size="13" lengthAdjust="spacing" textLength="24.8066" x="599.765" y="374.5262">0..1</text></g><!--link Tarifpreisblatt to AufAbschlag--><g class="link" data-entity-1="Tarifpreisblatt" data-entity-2="AufAbschlag" data-source-line="26" data-uid="lnk17" id="link_Tarifpreisblatt_AufAbschlag"><path codeLine="26" d="M353.2,378.33 C363.17,380.7 373.08,382.94 382.76,385 C468.89,403.31 557.3196,416.1873 623.3496,424.7473" fill="none" id="Tarifpreisblatt-to-AufAbschlag" style="stroke:#181818;stroke-width:1;"/><polygon fill="#181818" points="635.25,426.29,629.814,421.5518,623.3496,424.7473,628.7855,429.4854,635.25,426.29" style="stroke:#181818;stroke-width:1;"/><text fill="#000000" font-family="sans-serif" font-size="13" lengthAdjust="spacing" textLength="123.4365" x="398.76" y="381.0669">tarifAufAbschlaege</text><text fill="#000000" font-family="sans-serif" font-size="13" lengthAdjust="spacing" textLength="23.0356" x="604.4675" y="438.2516">0..*</text></g><!--SRC=[nLLDSvim43s7Nx5ZtzAnW2HEFKoR6TBaslRGKrrFH-05D069aKJTkir_hy0V88mzwQ4nftsxsXszn-ugnqI35Y1PccbOCecnPe8xJfnJfM0qdoSiny0rNoOAT6N5EKft9UIJU__fvd5I_jAPu9Qz5B5o2N695ZytG1Ubc-aYTsd9t4ZS88a4gHtZ7T1KigIKo5IKKwt95nj33oyMt_WxnTOO-DxTaHeZeAgV1x-TY-y_K2h34G9GMiBS8yHVm7kuygwcdayyuhr9f_JQdqslfxvpiQuKrUjGQycYIgF9-cfvcWANTO6FWgCfpvRzofj0SmkbAQ_ZuOfAVA0QDIkmT_BPSJWjK9Kqnl_-1s0B5ej6hos2yVtjmzjmLkjrZavWF16R7gWjs5l7_tiTRVzuZOoEho1ZB8gEZWPrXJGGnezUEBlzy0fAxguotgDs8agXM3tOdS7QkU3GTIZpSBNUYEtSvsAAZAiuanJvKyNJ3LNR1mE-4sJjWorRsty6ketSAPMKQuRaSnU1XOR9MUaDBIlf38HebT38Q9hJb8HL4cvjwDZ3L3g93P5EmhdQC4BpYcRST8RPFTAi88roqun34JWQET6OGyVRzXoArg_AmQiwcVovswtyTjqUdZC7Bs5KltEZ_M8RsYG1j3i2JvJn-sK6XGbWaCW_bEqD__PwlUbzMJrxnWAmHkY5YdKRUtkNreKfEax6bWW55eQuSbGcLd1GEM6OBzLV]--></g></svg>