<?xml version="1.0" encoding="us-ascii" standalone="no"?><svg xmlns="http://www.w3.org/2000/svg" xmlns:xlink="http://www.w3.org/1999/xlink" contentStyleType="text/css" height="687px" preserveAspectRatio="none" style="width:889px;height:687px;background:#FFFFFF;" version="1.1" viewBox="0 0 889 687" width="889px" zoomAndPan="magnify"><defs/><g><!--cluster bo4e--><g id="cluster_bo4e"><path d="M579.5,6 L620.5,6 A3.75,3.75 0 0 1 623,8.5 L630,28.2969 L879.5,28.2969 A2.5,2.5 0 0 1 882,30.7969 L882,677.5 A2.5,2.5 0 0 1 879.5,680 L579.5,680 A2.5,2.5 0 0 1 577,677.5 L577,8.5 A2.5,2.5 0 0 1 579.5,6 " fill="none" style="stroke:#000000;stroke-width:1.5;"/><line style="stroke:#000000;stroke-width:1.5;" x1="577" x2="630" y1="28.2969" y2="28.2969"/><text fill="#000000" font-family="sans-serif" font-size="14" font-weight="bold" lengthAdjust="spacing" textLength="40" x="581" y="20.9951">bo4e</text></g><!--cluster bo--><g id="cluster_bo"><path d="M660,49 L726,49 A3.75,3.75 0 0 1 728.5,51.5 L735.5,71.2969 L799,71.2969 A2.5,2.5 0 0 1 801.5,73.7969 L801.5,135.5 A2.5,2.5 0 0 1 799,138 L660,138 A2.5,2.5 0 0 1 657.5,135.5 L657.5,51.5 A2.5,2.5 0 0 1 660,49 " fill="#B6D7A8" style="stroke:#000000;stroke-width:1.5;"/><line style="stroke:#000000;stroke-width:1.5;" x1="657.5" x2="735.5" y1="71.2969" y2="71.2969"/><a href="https://bo4e.github.io/BO4E-python/latest/api/bo4e.bo.html" target="_top" title="https://bo4e.github.io/BO4E-python/latest/api/bo4e.bo.html" xlink:actuate="onRequest" xlink:href="https://bo4e.github.io/BO4E-python/latest/api/bo4e.bo.html" xlink:show="new" xlink:title="https://bo4e.github.io/BO4E-python/latest/api/bo4e.bo.html" xlink:type="simple"><text fill="#0000FF" font-family="sans-serif" font-size="14" font-weight="bold" lengthAdjust="spacing" text-decoration="underline" textLength="65" x="661.5" y="63.9951">bo4e.bo</text></a></g><!--cluster com--><g id="cluster_com"><path d="M603.5,162 L682.5,162 A3.75,3.75 0 0 1 685,164.5 L692,184.2969 L855.5,184.2969 A2.5,2.5 0 0 1 858,186.7969 L858,540.5 A2.5,2.5 0 0 1 855.5,543 L603.5,543 A2.5,2.5 0 0 1 601,540.5 L601,164.5 A2.5,2.5 0 0 1 603.5,162 " fill="#E0A86C" style="stroke:#000000;stroke-width:1.5;"/><line style="stroke:#000000;stroke-width:1.5;" x1="601" x2="692" y1="184.2969" y2="184.2969"/><a href="https://bo4e.github.io/BO4E-python/latest/api/bo4e.com.html" target="_top" title="https://bo4e.github.io/BO4E-python/latest/api/bo4e.com.html" xlink:actuate="onRequest" xlink:href="https://bo4e.github.io/BO4E-python/latest/api/bo4e.com.html" xlink:show="new" xlink:title="https://bo4e.github.io/BO4E-python/latest/api/bo4e.com.html" xlink:type="simple"><text fill="#0000FF" font-family="sans-serif" font-size="14" font-weight="bold" lengthAdjust="spacing" text-decoration="underline" textLength="78" x="605" y="176.9951">bo4e.com</text></a></g><!--cluster enum--><g id="cluster_enum"><path d="M663,567 L753,567 A3.75,3.75 0 0 1 755.5,569.5 L762.5,589.2969 L796,589.2969 A2.5,2.5 0 0 1 798.5,591.7969 L798.5,653.5 A2.5,2.5 0 0 1 796,656 L663,656 A2.5,2.5 0 0 1 660.5,653.5 L660.5,569.5 A2.5,2.5 0 0 1 663,567 " fill="#D1C358" style="stroke:#000000;stroke-width:1.5;"/><line style="stroke:#000000;stroke-width:1.5;" x1="660.5" x2="762.5" y1="589.2969" y2="589.2969"/><a href="https://bo4e.github.io/BO4E-python/latest/api/bo4e.enum.html" target="_top" title="https://bo4e.github.io/BO4E-python/latest/api/bo4e.enum.html" xlink:actuate="onRequest" xlink:href="https://bo4e.github.io/BO4E-python/latest/api/bo4e.enum.html" xlink:show="new" xlink:title="https://bo4e.github.io/BO4E-python/latest/api/bo4e.enum.html" xlink:type="simple"><text fill="#0000FF" font-family="sans-serif" font-size="14" font-weight="bold" lengthAdjust="spacing" text-decoration="underline" textLength="89" x="664.5" y="581.9951">bo4e.enum</text></a></g><!--class Tarifinfo--><g id="elem_Tarifinfo"><rect codeLine="11" fill="#F1F1F1" height="37.9375" id="Tarifinfo" rx="2.5" ry="2.5" style="stroke:#181818;stroke-width:0.5;" width="112" x="673.5" y="84.03"/><ellipse cx="688.5" cy="102.9987" fill="#ADD1B2" rx="11" ry="11" style="stroke:#181818;stroke-width:1.0;"/><path d="M691.4688,108.6394 Q690.8906,108.9362 690.25,109.0769 Q689.6094,109.2331 688.9063,109.2331 Q686.4063,109.2331 685.0781,107.5925 Q683.7656,105.9362 683.7656,102.8112 Q683.7656,99.6862 685.0781,98.03 Q686.4063,96.3737 688.9063,96.3737 Q689.6094,96.3737 690.25,96.53 Q690.9063,96.6862 691.4688,96.9831 L691.4688,99.7019 Q690.8438,99.1237 690.25,98.8581 Q689.6563,98.5769 689.0313,98.5769 Q687.6875,98.5769 687,99.655 Q686.3125,100.7175 686.3125,102.8112 Q686.3125,104.905 687,105.9831 Q687.6875,107.0456 689.0313,107.0456 Q689.6563,107.0456 690.25,106.78 Q690.8438,106.4987 691.4688,105.9206 L691.4688,108.6394 Z " fill="#000000"/><a href="https://bo4e.github.io/BO4E-python/latest/api/bo4e.bo.html#bo4e.bo.tarifinfo.Tarifinfo" target="_top" title="https://bo4e.github.io/BO4E-python/latest/api/bo4e.bo.html#bo4e.bo.tarifinfo.Tarifinfo" xlink:actuate="onRequest" xlink:href="https://bo4e.github.io/BO4E-python/latest/api/bo4e.bo.html#bo4e.bo.tarifinfo.Tarifinfo" xlink:show="new" xlink:title="https://bo4e.github.io/BO4E-python/latest/api/bo4e.bo.html#bo4e.bo.tarifinfo.Tarifinfo" xlink:type="simple"><text fill="#0000FF" font-family="sans-serif" font-size="14" lengthAdjust="spacing" text-decoration="underline" textLength="54" x="715.5" y="102.0251">Tarifinfo</text></a><text fill="#000000" font-family="sans-serif" font-size="10" lengthAdjust="spacing" textLength="80" x="702.5" y="114.6091">bo4e.bo.tarifinfo</text></g><!--class Tarifberechnungsparameter--><g id="elem_Tarifberechnungsparameter"><rect codeLine="14" fill="#F1F1F1" height="37.9375" id="Tarifberechnungsparameter" rx="2.5" ry="2.5" style="stroke:#181818;stroke-width:0.5;" width="225" x="617" y="197.03"/><ellipse cx="632" cy="215.9987" fill="#ADD1B2" rx="11" ry="11" style="stroke:#181818;stroke-width:1.0;"/><path d="M634.9688,221.6394 Q634.3906,221.9362 633.75,222.0769 Q633.1094,222.2331 632.4063,222.2331 Q629.9063,222.2331 628.5781,220.5925 Q627.2656,218.9362 627.2656,215.8112 Q627.2656,212.6862 628.5781,211.03 Q629.9063,209.3737 632.4063,209.3737 Q633.1094,209.3737 633.75,209.53 Q634.4063,209.6862 634.9688,209.9831 L634.9688,212.7019 Q634.3438,212.1237 633.75,211.8581 Q633.1563,211.5769 632.5313,211.5769 Q631.1875,211.5769 630.5,212.655 Q629.8125,213.7175 629.8125,215.8112 Q629.8125,217.905 630.5,218.9831 Q631.1875,220.0456 632.5313,220.0456 Q633.1563,220.0456 633.75,219.78 Q634.3438,219.4987 634.9688,218.9206 L634.9688,221.6394 Z " fill="#000000"/><a href="https://bo4e.github.io/BO4E-python/latest/api/bo4e.com.html#bo4e.com.tarifberechnungsparameter.Tarifberechnungsparameter" target="_top" title="https://bo4e.github.io/BO4E-python/latest/api/bo4e.com.html#bo4e.com.tarifberechnungsparameter.Tarifberechnungsparameter" xlink:actuate="onRequest" xlink:href="https://bo4e.github.io/BO4E-python/latest/api/bo4e.com.html#bo4e.com.tarifberechnungsparameter.Tarifberechnungsparameter" xlink:show="new" xlink:title="https://bo4e.github.io/BO4E-python/latest/api/bo4e.com.html#bo4e.com.tarifberechnungsparameter.Tarifberechnungsparameter" xlink:type="simple"><text fill="#0000FF" font-family="sans-serif" font-size="14" lengthAdjust="spacing" text-decoration="underline" textLength="193" x="646" y="215.0251">Tarifberechnungsparameter</text></a><text fill="#000000" font-family="sans-serif" font-size="10" lengthAdjust="spacing" textLength="185" x="650" y="227.6091">bo4e.com.tarifberechnungsparameter</text></g><!--class AufAbschlag--><g id="elem_AufAbschlag"><rect codeLine="15" fill="#F1F1F1" height="37.9375" id="AufAbschlag" rx="2.5" ry="2.5" style="stroke:#181818;stroke-width:0.5;" width="141" x="659" y="270.03"/><ellipse cx="674" cy="288.9988" fill="#ADD1B2" rx="11" ry="11" style="stroke:#181818;stroke-width:1.0;"/><path d="M676.9688,294.6394 Q676.3906,294.9363 675.75,295.0769 Q675.1094,295.2331 674.4063,295.2331 Q671.9063,295.2331 670.5781,293.5925 Q669.2656,291.9363 669.2656,288.8113 Q669.2656,285.6863 670.5781,284.03 Q671.9063,282.3738 674.4063,282.3738 Q675.1094,282.3738 675.75,282.53 Q676.4063,282.6863 676.9688,282.9831 L676.9688,285.7019 Q676.3438,285.1238 675.75,284.8581 Q675.1563,284.5769 674.5313,284.5769 Q673.1875,284.5769 672.5,285.655 Q671.8125,286.7175 671.8125,288.8113 Q671.8125,290.905 672.5,291.9831 Q673.1875,293.0456 674.5313,293.0456 Q675.1563,293.0456 675.75,292.78 Q676.3438,292.4988 676.9688,291.9206 L676.9688,294.6394 Z " fill="#000000"/><a href="https://bo4e.github.io/BO4E-python/latest/api/bo4e.com.html#bo4e.com.aufabschlag.AufAbschlag" target="_top" title="https://bo4e.github.io/BO4E-python/latest/api/bo4e.com.html#bo4e.com.aufabschlag.AufAbschlag" xlink:actuate="onRequest" xlink:href="https://bo4e.github.io/BO4E-python/latest/api/bo4e.com.html#bo4e.com.aufabschlag.AufAbschlag" xlink:show="new" xlink:title="https://bo4e.github.io/BO4E-python/latest/api/bo4e.com.html#bo4e.com.aufabschlag.AufAbschlag" xlink:type="simple"><text fill="#0000FF" font-family="sans-serif" font-size="14" lengthAdjust="spacing" text-decoration="underline" textLength="85" x="700" y="288.0251">AufAbschlag</text></a><text fill="#000000" font-family="sans-serif" font-size="10" lengthAdjust="spacing" textLength="109" x="688" y="300.6091">bo4e.com.aufabschlag</text></g><!--class Preisgarantie--><g id="elem_Preisgarantie"><rect codeLine="16" fill="#F1F1F1" height="37.9375" id="Preisgarantie" rx="2.5" ry="2.5" style="stroke:#181818;stroke-width:0.5;" width="146" x="656.5" y="343.03"/><ellipse cx="671.5" cy="361.9988" fill="#ADD1B2" rx="11" ry="11" style="stroke:#181818;stroke-width:1.0;"/><path d="M674.4688,367.6394 Q673.8906,367.9363 673.25,368.0769 Q672.6094,368.2331 671.9063,368.2331 Q669.4063,368.2331 668.0781,366.5925 Q666.7656,364.9363 666.7656,361.8113 Q666.7656,358.6863 668.0781,357.03 Q669.4063,355.3738 671.9063,355.3738 Q672.6094,355.3738 673.25,355.53 Q673.9063,355.6863 674.4688,355.9831 L674.4688,358.7019 Q673.8438,358.1238 673.25,357.8581 Q672.6563,357.5769 672.0313,357.5769 Q670.6875,357.5769 670,358.655 Q669.3125,359.7175 669.3125,361.8113 Q669.3125,363.905 670,364.9831 Q670.6875,366.0456 672.0313,366.0456 Q672.6563,366.0456 673.25,365.78 Q673.8438,365.4988 674.4688,364.9206 L674.4688,367.6394 Z " fill="#000000"/><a href="https://bo4e.github.io/BO4E-python/latest/api/bo4e.com.html#bo4e.com.preisgarantie.Preisgarantie" target="_top" title="https://bo4e.github.io/BO4E-python/latest/api/bo4e.com.html#bo4e.com.preisgarantie.Preisgarantie" xlink:actuate="onRequest" xlink:href="https://bo4e.github.io/BO4E-python/latest/api/bo4e.com.html#bo4e.com.preisgarantie.Preisgarantie" xlink:show="new" xlink:title="https://bo4e.github.io/BO4E-python/latest/api/bo4e.com.html#bo4e.com.preisgarantie.Preisgarantie" xlink:type="simple"><text fill="#0000FF" font-family="sans-serif" font-size="14" lengthAdjust="spacing" text-decoration="underline" textLength="90" x="697.5" y="361.0251">Preisgarantie</text></a><text fill="#000000" font-family="sans-serif" font-size="10" lengthAdjust="spacing" textLength="114" x="685.5" y="373.6091">bo4e.com.preisgarantie</text></g><!--class Tarifpreisposition--><g id="elem_Tarifpreisposition"><rect codeLine="17" fill="#F1F1F1" height="37.9375" id="Tarifpreisposition" rx="2.5" ry="2.5" style="stroke:#181818;stroke-width:0.5;" width="163" x="648" y="416.03"/><ellipse cx="663" cy="434.9988" fill="#ADD1B2" rx="11" ry="11" style="stroke:#181818;stroke-width:1.0;"/><path d="M665.9688,440.6394 Q665.3906,440.9363 664.75,441.0769 Q664.1094,441.2331 663.4063,441.2331 Q660.9063,441.2331 659.5781,439.5925 Q658.2656,437.9363 658.2656,434.8113 Q658.2656,431.6863 659.5781,430.03 Q660.9063,428.3738 663.4063,428.3738 Q664.1094,428.3738 664.75,428.53 Q665.4063,428.6863 665.9688,428.9831 L665.9688,431.7019 Q665.3438,431.1238 664.75,430.8581 Q664.1563,430.5769 663.5313,430.5769 Q662.1875,430.5769 661.5,431.655 Q660.8125,432.7175 660.8125,434.8113 Q660.8125,436.905 661.5,437.9831 Q662.1875,439.0456 663.5313,439.0456 Q664.1563,439.0456 664.75,438.78 Q665.3438,438.4988 665.9688,437.9206 L665.9688,440.6394 Z " fill="#000000"/><a href="https://bo4e.github.io/BO4E-python/latest/api/bo4e.com.html#bo4e.com.tarifpreisposition.Tarifpreisposition" target="_top" title="https://bo4e.github.io/BO4E-python/latest/api/bo4e.com.html#bo4e.com.tarifpreisposition.Tarifpreisposition" xlink:actuate="onRequest" xlink:href="https://bo4e.github.io/BO4E-python/latest/api/bo4e.com.html#bo4e.com.tarifpreisposition.Tarifpreisposition" xlink:show="new" xlink:title="https://bo4e.github.io/BO4E-python/latest/api/bo4e.com.html#bo4e.com.tarifpreisposition.Tarifpreisposition" xlink:type="simple"><text fill="#0000FF" font-family="sans-serif" font-size="14" lengthAdjust="spacing" text-decoration="underline" textLength="118" x="683.5" y="434.0251">Tarifpreisposition</text></a><text fill="#000000" font-family="sans-serif" font-size="10" lengthAdjust="spacing" textLength="131" x="677" y="446.6091">bo4e.com.tarifpreisposition</text></g><!--class Tarifeinschraenkung--><g id="elem_Tarifeinschraenkung"><rect codeLine="18" fill="#F1F1F1" height="37.9375" id="Tarifeinschraenkung" rx="2.5" ry="2.5" style="stroke:#181818;stroke-width:0.5;" width="178" x="640.5" y="489.03"/><ellipse cx="655.5" cy="507.9988" fill="#ADD1B2" rx="11" ry="11" style="stroke:#181818;stroke-width:1.0;"/><path d="M658.4688,513.6394 Q657.8906,513.9363 657.25,514.0769 Q656.6094,514.2331 655.9063,514.2331 Q653.4063,514.2331 652.0781,512.5925 Q650.7656,510.9363 650.7656,507.8113 Q650.7656,504.6863 652.0781,503.03 Q653.4063,501.3738 655.9063,501.3738 Q656.6094,501.3738 657.25,501.53 Q657.9063,501.6863 658.4688,501.9831 L658.4688,504.7019 Q657.8438,504.1238 657.25,503.8581 Q656.6563,503.5769 656.0313,503.5769 Q654.6875,503.5769 654,504.655 Q653.3125,505.7175 653.3125,507.8113 Q653.3125,509.905 654,510.9831 Q654.6875,512.0456 656.0313,512.0456 Q656.6563,512.0456 657.25,511.78 Q657.8438,511.4988 658.4688,510.9206 L658.4688,513.6394 Z " fill="#000000"/><a href="https://bo4e.github.io/BO4E-python/latest/api/bo4e.com.html#bo4e.com.tarifeinschraenkung.Tarifeinschraenkung" target="_top" title="https://bo4e.github.io/BO4E-python/latest/api/bo4e.com.html#bo4e.com.tarifeinschraenkung.Tarifeinschraenkung" xlink:actuate="onRequest" xlink:href="https://bo4e.github.io/BO4E-python/latest/api/bo4e.com.html#bo4e.com.tarifeinschraenkung.Tarifeinschraenkung" xlink:show="new" xlink:title="https://bo4e.github.io/BO4E-python/latest/api/bo4e.com.html#bo4e.com.tarifeinschraenkung.Tarifeinschraenkung" xlink:type="simple"><text fill="#0000FF" font-family="sans-serif" font-size="14" lengthAdjust="spacing" text-decoration="underline" textLength="141" x="672" y="507.0251">Tarifeinschraenkung</text></a><text fill="#000000" font-family="sans-serif" font-size="10" lengthAdjust="spacing" textLength="146" x="669.5" y="519.6091">bo4e.com.tarifeinschraenkung</text></g><!--class Typ--><g id="elem_Typ"><rect codeLine="21" fill="#F1F1F1" height="37.9375" id="Typ" rx="2.5" ry="2.5" style="stroke:#181818;stroke-width:0.5;" width="106" x="676.5" y="602.03"/><ellipse cx="691.5" cy="620.9988" fill="#ADD1B2" rx="11" ry="11" style="stroke:#181818;stroke-width:1.0;"/><path d="M694.4688,626.6394 Q693.8906,626.9363 693.25,627.0769 Q692.6094,627.2331 691.9063,627.2331 Q689.4063,627.2331 688.0781,625.5925 Q686.7656,623.9363 686.7656,620.8113 Q686.7656,617.6863 688.0781,616.03 Q689.4063,614.3738 691.9063,614.3738 Q692.6094,614.3738 693.25,614.53 Q693.9063,614.6863 694.4688,614.9831 L694.4688,617.7019 Q693.8438,617.1238 693.25,616.8581 Q692.6563,616.5769 692.0313,616.5769 Q690.6875,616.5769 690,617.655 Q689.3125,618.7175 689.3125,620.8113 Q689.3125,622.905 690,623.9831 Q690.6875,625.0456 692.0313,625.0456 Q692.6563,625.0456 693.25,624.78 Q693.8438,624.4988 694.4688,623.9206 L694.4688,626.6394 Z " fill="#000000"/><a href="https://bo4e.github.io/BO4E-python/latest/api/bo4e.enum.html#bo4e.enum.typ.Typ" target="_top" title="https://bo4e.github.io/BO4E-python/latest/api/bo4e.enum.html#bo4e.enum.typ.Typ" xlink:actuate="onRequest" xlink:href="https://bo4e.github.io/BO4E-python/latest/api/bo4e.enum.html#bo4e.enum.typ.Typ" xlink:show="new" xlink:title="https://bo4e.github.io/BO4E-python/latest/api/bo4e.enum.html#bo4e.enum.typ.Typ" xlink:type="simple"><text fill="#0000FF" font-family="sans-serif" font-size="14" lengthAdjust="spacing" text-decoration="underline" textLength="25" x="730" y="620.0251">Typ</text></a><text fill="#000000" font-family="sans-serif" font-size="10" lengthAdjust="spacing" textLength="74" x="705.5" y="632.6091">bo4e.enum.typ</text></g><!--class Tarifpreisblatt--><g id="elem_Tarifpreisblatt"><rect codeLine="3" fill="#F1F1F1" height="111.125" id="Tarifpreisblatt" rx="2.5" ry="2.5" style="stroke:#181818;stroke-width:0.5;" width="371" x="7" y="306.44"/><ellipse cx="134.75" cy="325.4088" fill="#ADD1B2" rx="11" ry="11" style="stroke:#181818;stroke-width:1.0;"/><path d="M137.7188,331.0494 Q137.1406,331.3463 136.5,331.4869 Q135.8594,331.6431 135.1563,331.6431 Q132.6563,331.6431 131.3281,330.0025 Q130.0156,328.3463 130.0156,325.2213 Q130.0156,322.0963 131.3281,320.44 Q132.6563,318.7838 135.1563,318.7838 Q135.8594,318.7838 136.5,318.94 Q137.1563,319.0963 137.7188,319.3931 L137.7188,322.1119 Q137.0938,321.5338 136.5,321.2681 Q135.9063,320.9869 135.2813,320.9869 Q133.9375,320.9869 133.25,322.065 Q132.5625,323.1275 132.5625,325.2213 Q132.5625,327.315 133.25,328.3931 Q133.9375,329.4556 135.2813,329.4556 Q135.9063,329.4556 136.5,329.19 Q137.0938,328.9088 137.7188,328.3306 L137.7188,331.0494 Z " fill="#000000"/><a href="https://bo4e.github.io/BO4E-python/latest/api/bo4e.bo.html#bo4e.bo.tarifpreisblatt.Tarifpreisblatt" target="_top" title="https://bo4e.github.io/BO4E-python/latest/api/bo4e.bo.html#bo4e.bo.tarifpreisblatt.Tarifpreisblatt" xlink:actuate="onRequest" xlink:href="https://bo4e.github.io/BO4E-python/latest/api/bo4e.bo.html#bo4e.bo.tarifpreisblatt.Tarifpreisblatt" xlink:show="new" xlink:title="https://bo4e.github.io/BO4E-python/latest/api/bo4e.bo.html#bo4e.bo.tarifpreisblatt.Tarifpreisblatt" xlink:type="simple"><text fill="#0000FF" font-family="sans-serif" font-size="14" lengthAdjust="spacing" text-decoration="underline" textLength="93" x="162.25" y="324.4351">Tarifpreisblatt</text></a><text fill="#000000" font-family="sans-serif" font-size="10" lengthAdjust="spacing" textLength="107" x="155.25" y="337.0191">bo4e.bo.tarifpreisblatt</text><line style="stroke:#181818;stroke-width:0.5;" x1="8" x2="377" y1="344.3775" y2="344.3775"/><text fill="#000000" font-family="sans-serif" font-size="14" lengthAdjust="spacing" textLength="359" x="13" y="361.3726">_version : str [0..1] = 202401.4.1.dev6+g362b98d5</text><text fill="#000000" font-family="sans-serif" font-size="14" lengthAdjust="spacing" textLength="311" x="13" y="377.6695">zusatzAttribute : ZusatzAttribut [0..*] = None</text><text fill="#000000" font-family="sans-serif" font-size="14" lengthAdjust="spacing" textLength="147" x="13" y="393.9664">_id : str [0..1] = None</text><text fill="#000000" font-family="sans-serif" font-size="14" lengthAdjust="spacing" textLength="288" x="13" y="410.2632">preisstand : AwareDatetime [0..1] = None</text></g><!--link Tarifpreisblatt to Tarifinfo--><g id="link_Tarifpreisblatt_Tarifinfo"><path codeLine="24" d="M273.27,306.08 C312.72,279.83 361.71,249.27 408,226 C497.73,180.9 591.092,147.5066 656.122,126.1066 " fill="none" id="Tarifpreisblatt-to-Tarifinfo" style="stroke:#181818;stroke-width:1.0;"/><polygon fill="none" points="673.22,120.48,654.2465,120.4073,657.9975,131.8059,673.22,120.48" style="stroke:#181818;stroke-width:1.0;"/></g><!--link Tarifpreisblatt to Typ--><g id="link_Tarifpreisblatt_Typ"><path codeLine="25" d="M272.43,417.92 C312,444.5 361.32,475.52 408,499 C498.95,544.75 599.982,580.1182 664.622,601.0182 " fill="none" id="Tarifpreisblatt-to-Typ" style="stroke:#181818;stroke-width:1.0;"/><polygon fill="#181818" points="676.04,604.71,671.5616,599.0581,664.622,601.0182,669.1004,606.6701,676.04,604.71" style="stroke:#181818;stroke-width:1.0;"/><text fill="#000000" font-family="sans-serif" font-size="13" lengthAdjust="spacing" textLength="27" x="471" y="495.0669">_typ</text><text fill="#000000" font-family="sans-serif" font-size="13" lengthAdjust="spacing" textLength="24" x="644.4712" y="615.7684">0..1</text></g><!--link Tarifpreisblatt to Tarifpreisposition--><g id="link_Tarifpreisblatt_Tarifpreisposition"><path codeLine="26" d="M378.37,387.22 C470.18,399.75 564.5102,412.6274 635.6602,422.3374 " fill="none" id="Tarifpreisblatt-to-Tarifpreisposition" style="stroke:#181818;stroke-width:1.0;"/><polygon fill="#181818" points="647.55,423.96,642.146,419.1854,635.6602,422.3374,641.0642,427.1119,647.55,423.96" style="stroke:#181818;stroke-width:1.0;"/><text fill="#000000" font-family="sans-serif" font-size="13" lengthAdjust="spacing" textLength="64" x="452.5" y="388.0669">tarifpreise</text><text fill="#000000" font-family="sans-serif" font-size="13" lengthAdjust="spacing" textLength="23" x="617.1032" y="435.7502">0..*</text></g><!--link Tarifpreisblatt to Tarifberechnungsparameter--><g id="link_Tarifpreisblatt_Tarifberechnungsparameter"><path codeLine="27" d="M349.26,306 C368.93,299.6 388.86,293.43 408,288 C481.24,267.21 553.4972,250.9433 617.1272,237.8233 " fill="none" id="Tarifpreisblatt-to-Tarifberechnungsparameter" style="stroke:#181818;stroke-width:1.0;"/><polygon fill="#181818" points="628.88,235.4,622.1958,232.6941,617.1272,237.8233,623.8114,240.5293,628.88,235.4" style="stroke:#181818;stroke-width:1.0;"/><text fill="#000000" font-family="sans-serif" font-size="13" lengthAdjust="spacing" textLength="151" x="409" y="247.0669">berechnungsparameter</text><text fill="#000000" font-family="sans-serif" font-size="13" lengthAdjust="spacing" textLength="24" x="584.8196" y="252.2705">0..1</text></g><!--link Tarifpreisblatt to Tarifeinschraenkung--><g id="link_Tarifpreisblatt_Tarifeinschraenkung"><path codeLine="28" d="M346.58,417.99 C367.11,424.77 387.98,431.31 408,437 C485.56,459.07 563.5316,476.0839 628.2916,488.9939 " fill="none" id="Tarifpreisblatt-to-Tarifeinschraenkung" style="stroke:#181818;stroke-width:1.0;"/><polygon fill="#181818" points="640.06,491.34,634.9578,486.2442,628.2916,488.9939,633.3938,494.0898,640.06,491.34" style="stroke:#181818;stroke-width:1.0;"/><text fill="#000000" font-family="sans-serif" font-size="13" lengthAdjust="spacing" textLength="126" x="421.5" y="433.0669">tarifeinschraenkung</text><text fill="#000000" font-family="sans-serif" font-size="13" lengthAdjust="spacing" textLength="24" x="608.6105" y="502.7392">0..1</text></g><!--link Tarifpreisblatt to Preisgarantie--><g id="link_Tarifpreisblatt_Preisgarantie"><path codeLine="29" d="M378.37,362 C473.96,362 573.16,362 644.15,362 " fill="none" id="Tarifpreisblatt-to-Preisgarantie" style="stroke:#181818;stroke-width:1.0;"/><polygon fill="#181818" points="656.15,362,650.15,358,644.15,362,650.15,366,656.15,362" style="stroke:#181818;stroke-width:1.0;"/><text fill="#000000" font-family="sans-serif" font-size="13" lengthAdjust="spacing" textLength="84" x="442.5" y="358.0669">preisgarantie</text><text fill="#000000" font-family="sans-serif" font-size="13" lengthAdjust="spacing" textLength="24" x="624.5485" y="374.7409">0..1</text></g><!--link Tarifpreisblatt to AufAbschlag--><g id="link_Tarifpreisblatt_AufAbschlag"><path codeLine="30" d="M378.37,336.78 C475.17,323.57 576.09,309.7914 646.93,300.1314 " fill="none" id="Tarifpreisblatt-to-AufAbschlag" style="stroke:#181818;stroke-width:1.0;"/><polygon fill="#181818" points="658.82,298.51,652.3346,295.3574,646.93,300.1314,653.4155,303.284,658.82,298.51" style="stroke:#181818;stroke-width:1.0;"/><text fill="#000000" font-family="sans-serif" font-size="13" lengthAdjust="spacing" textLength="120" x="424.5" y="309.0669">tarifAufAbschlaege</text><text fill="#000000" font-family="sans-serif" font-size="13" lengthAdjust="spacing" textLength="23" x="627.9872" y="312.2046">0..*</text></g><!--SRC=[jLNBRfj055s7hxWoErSUF-8uBceZaIRRjekiwbhH01SO5GR438diDl_U0Onvsd9aPs5fpftxF7Dz2D2L82D8cETBS5Y2jcGHrpGxe4B0OBNofOo5CHvRqHo9nwIVMeH5u_iVyyTHl95-nCS1bIZacCQiyB8Yuiimq4iWQSBSE44cBEKgoLCJGmklrx_v5y6sQ4mdTmTo382ATXpyrQwUNp0HQW0mGCW4LXD2fclu2hF9R3wPaZcP4WTV5f-ywyNC-hnqRhIhRIget9fI9inA9Qh8NmrBdcIO9VaUSLGbcDFENbpadGX9UNPllj847nGnaeNOydpJD4v3536ryJoAOGVMwvoG7GBzVl5mQoupGYx-ZeoxKV62sGdsfyElbjrMxvKXnS2v1DXHM6D0eJe52eB-E36NYs_dSb3MqVSedyb2zK_nUSezDKIYPf6O5ApqtS31covhHqjKDFRTNdfIchhK4hOVK8-OgMlkpb0xz_TV2ymxhWLSkiVyJ-Sf1hXaI7xM4JHGVwUDyBpNHj27x4vUCuu4ovIs9eQb2Rgc8slIy6l9Ocd-a36GSVMa2KN-HsrXCKVJ1Zss8vCq7QjHclOBQ0Voj2uU6QohHuP1TwRszStP4helfLTGRcBoj8b1_Rfib1x5-9iu-rXqFfYZqR-xKkmhBUxwASSX3B9lpw0QBQzjmBCgSYHYEDXBQT-A6b0j7vvGU9-cLnuDw9MpTwHjBTwklTRcd9QlgI46D2JYHCRgQhdhfJAXXvhcCmSXn50DBZJXHw_GoUmo31pn7m00]--></g></svg>