<?xml version="1.0" encoding="us-ascii" standalone="no"?><svg xmlns="http://www.w3.org/2000/svg" xmlns:xlink="http://www.w3.org/1999/xlink" contentStyleType="text/css" height="906px" preserveAspectRatio="none" style="width:942px;height:906px;background:#FFFFFF;" version="1.1" viewBox="0 0 942 906" width="942px" zoomAndPan="magnify"><defs/><g><!--cluster bo4e--><g id="cluster_bo4e"><path d="M678.5,6 L719.5,6 A3.75,3.75 0 0 1 722,8.5 L729,28.2969 L932.5,28.2969 A2.5,2.5 0 0 1 935,30.7969 L935,896.5 A2.5,2.5 0 0 1 932.5,899 L678.5,899 A2.5,2.5 0 0 1 676,896.5 L676,8.5 A2.5,2.5 0 0 1 678.5,6 " fill="none" style="stroke:#000000;stroke-width:1.5;"/><line style="stroke:#000000;stroke-width:1.5;" x1="676" x2="729" y1="28.2969" y2="28.2969"/><text fill="#000000" font-family="sans-serif" font-size="14" font-weight="bold" lengthAdjust="spacing" textLength="40" x="680" y="20.9951">bo4e</text></g><!--cluster bo--><g id="cluster_bo"><path d="M714,49 L780,49 A3.75,3.75 0 0 1 782.5,51.5 L789.5,71.2969 L897,71.2969 A2.5,2.5 0 0 1 899.5,73.7969 L899.5,208.5 A2.5,2.5 0 0 1 897,211 L714,211 A2.5,2.5 0 0 1 711.5,208.5 L711.5,51.5 A2.5,2.5 0 0 1 714,49 " fill="#B6D7A8" style="stroke:#000000;stroke-width:1.5;"/><line style="stroke:#000000;stroke-width:1.5;" x1="711.5" x2="789.5" y1="71.2969" y2="71.2969"/><a href="https://bo4e.github.io/BO4E-python/latest/api/bo4e.bo.html" target="_top" title="https://bo4e.github.io/BO4E-python/latest/api/bo4e.bo.html" xlink:actuate="onRequest" xlink:href="https://bo4e.github.io/BO4E-python/latest/api/bo4e.bo.html" xlink:show="new" xlink:title="https://bo4e.github.io/BO4E-python/latest/api/bo4e.bo.html" xlink:type="simple"><text fill="#0000FF" font-family="sans-serif" font-size="14" font-weight="bold" lengthAdjust="spacing" text-decoration="underline" textLength="65" x="715.5" y="63.9951">bo4e.bo</text></a></g><!--cluster com--><g id="cluster_com"><path d="M702.5,235 L781.5,235 A3.75,3.75 0 0 1 784,237.5 L791,257.2969 L908.5,257.2969 A2.5,2.5 0 0 1 911,259.7969 L911,467.5 A2.5,2.5 0 0 1 908.5,470 L702.5,470 A2.5,2.5 0 0 1 700,467.5 L700,237.5 A2.5,2.5 0 0 1 702.5,235 " fill="#E0A86C" style="stroke:#000000;stroke-width:1.5;"/><line style="stroke:#000000;stroke-width:1.5;" x1="700" x2="791" y1="257.2969" y2="257.2969"/><a href="https://bo4e.github.io/BO4E-python/latest/api/bo4e.com.html" target="_top" title="https://bo4e.github.io/BO4E-python/latest/api/bo4e.com.html" xlink:actuate="onRequest" xlink:href="https://bo4e.github.io/BO4E-python/latest/api/bo4e.com.html" xlink:show="new" xlink:title="https://bo4e.github.io/BO4E-python/latest/api/bo4e.com.html" xlink:type="simple"><text fill="#0000FF" font-family="sans-serif" font-size="14" font-weight="bold" lengthAdjust="spacing" text-decoration="underline" textLength="78" x="704" y="249.9951">bo4e.com</text></a></g><!--cluster enum--><g id="cluster_enum"><path d="M713,494 L803,494 A3.75,3.75 0 0 1 805.5,496.5 L812.5,516.2969 L898,516.2969 A2.5,2.5 0 0 1 900.5,518.7969 L900.5,872.5 A2.5,2.5 0 0 1 898,875 L713,875 A2.5,2.5 0 0 1 710.5,872.5 L710.5,496.5 A2.5,2.5 0 0 1 713,494 " fill="#D1C358" style="stroke:#000000;stroke-width:1.5;"/><line style="stroke:#000000;stroke-width:1.5;" x1="710.5" x2="812.5" y1="516.2969" y2="516.2969"/><a href="https://bo4e.github.io/BO4E-python/latest/api/bo4e.enum.html" target="_top" title="https://bo4e.github.io/BO4E-python/latest/api/bo4e.enum.html" xlink:actuate="onRequest" xlink:href="https://bo4e.github.io/BO4E-python/latest/api/bo4e.enum.html" xlink:show="new" xlink:title="https://bo4e.github.io/BO4E-python/latest/api/bo4e.enum.html" xlink:type="simple"><text fill="#0000FF" font-family="sans-serif" font-size="14" font-weight="bold" lengthAdjust="spacing" text-decoration="underline" textLength="89" x="714.5" y="508.9951">bo4e.enum</text></a></g><!--class Geschaeftsobjekt--><g id="elem_Geschaeftsobjekt"><rect codeLine="13" fill="#F1F1F1" height="37.9375" id="Geschaeftsobjekt" rx="2.5" ry="2.5" style="stroke:#181818;stroke-width:0.5;" width="156" x="727.5" y="84.03"/><ellipse cx="742.5" cy="102.9987" fill="#ADD1B2" rx="11" ry="11" style="stroke:#181818;stroke-width:1.0;"/><path d="M745.4688,108.6394 Q744.8906,108.9362 744.25,109.0769 Q743.6094,109.2331 742.9063,109.2331 Q740.4063,109.2331 739.0781,107.5925 Q737.7656,105.9362 737.7656,102.8112 Q737.7656,99.6862 739.0781,98.03 Q740.4063,96.3737 742.9063,96.3737 Q743.6094,96.3737 744.25,96.53 Q744.9063,96.6862 745.4688,96.9831 L745.4688,99.7019 Q744.8438,99.1237 744.25,98.8581 Q743.6563,98.5769 743.0313,98.5769 Q741.6875,98.5769 741,99.655 Q740.3125,100.7175 740.3125,102.8112 Q740.3125,104.905 741,105.9831 Q741.6875,107.0456 743.0313,107.0456 Q743.6563,107.0456 744.25,106.78 Q744.8438,106.4987 745.4688,105.9206 L745.4688,108.6394 Z " fill="#000000"/><a href="https://bo4e.github.io/BO4E-python/latest/api/bo4e.bo.html#bo4e.bo.geschaeftsobjekt.Geschaeftsobjekt" target="_top" title="https://bo4e.github.io/BO4E-python/latest/api/bo4e.bo.html#bo4e.bo.geschaeftsobjekt.Geschaeftsobjekt" xlink:actuate="onRequest" xlink:href="https://bo4e.github.io/BO4E-python/latest/api/bo4e.bo.html#bo4e.bo.geschaeftsobjekt.Geschaeftsobjekt" xlink:show="new" xlink:title="https://bo4e.github.io/BO4E-python/latest/api/bo4e.bo.html#bo4e.bo.geschaeftsobjekt.Geschaeftsobjekt" xlink:type="simple"><text fill="#0000FF" font-family="sans-serif" font-size="14" lengthAdjust="spacing" text-decoration="underline" textLength="122" x="757.5" y="102.0251">Geschaeftsobjekt</text></a><text fill="#000000" font-family="sans-serif" font-size="10" lengthAdjust="spacing" textLength="124" x="756.5" y="114.6091">bo4e.bo.geschaeftsobjekt</text></g><!--class Marktteilnehmer--><g id="elem_Marktteilnehmer"><rect codeLine="14" fill="#F1F1F1" height="37.9375" id="Marktteilnehmer" rx="2.5" ry="2.5" style="stroke:#181818;stroke-width:0.5;" width="155" x="728" y="157.03"/><ellipse cx="743" cy="175.9987" fill="#ADD1B2" rx="11" ry="11" style="stroke:#181818;stroke-width:1.0;"/><path d="M745.9688,181.6394 Q745.3906,181.9362 744.75,182.0769 Q744.1094,182.2331 743.4063,182.2331 Q740.9063,182.2331 739.5781,180.5925 Q738.2656,178.9362 738.2656,175.8112 Q738.2656,172.6862 739.5781,171.03 Q740.9063,169.3737 743.4063,169.3737 Q744.1094,169.3737 744.75,169.53 Q745.4063,169.6862 745.9688,169.9831 L745.9688,172.7019 Q745.3438,172.1237 744.75,171.8581 Q744.1563,171.5769 743.5313,171.5769 Q742.1875,171.5769 741.5,172.655 Q740.8125,173.7175 740.8125,175.8112 Q740.8125,177.905 741.5,178.9831 Q742.1875,180.0456 743.5313,180.0456 Q744.1563,180.0456 744.75,179.78 Q745.3438,179.4987 745.9688,178.9206 L745.9688,181.6394 Z " fill="#000000"/><a href="https://bo4e.github.io/BO4E-python/latest/api/bo4e.bo.html#bo4e.bo.marktteilnehmer.Marktteilnehmer" target="_top" title="https://bo4e.github.io/BO4E-python/latest/api/bo4e.bo.html#bo4e.bo.marktteilnehmer.Marktteilnehmer" xlink:actuate="onRequest" xlink:href="https://bo4e.github.io/BO4E-python/latest/api/bo4e.bo.html#bo4e.bo.marktteilnehmer.Marktteilnehmer" xlink:show="new" xlink:title="https://bo4e.github.io/BO4E-python/latest/api/bo4e.bo.html#bo4e.bo.marktteilnehmer.Marktteilnehmer" xlink:type="simple"><text fill="#0000FF" font-family="sans-serif" font-size="14" lengthAdjust="spacing" text-decoration="underline" textLength="112" x="762.5" y="175.0251">Marktteilnehmer</text></a><text fill="#000000" font-family="sans-serif" font-size="10" lengthAdjust="spacing" textLength="123" x="757" y="187.6091">bo4e.bo.marktteilnehmer</text></g><!--class Zeitraum--><g id="elem_Zeitraum"><rect codeLine="17" fill="#F1F1F1" height="37.9375" id="Zeitraum" rx="2.5" ry="2.5" style="stroke:#181818;stroke-width:0.5;" width="126" x="742.5" y="270.03"/><ellipse cx="757.5" cy="288.9988" fill="#ADD1B2" rx="11" ry="11" style="stroke:#181818;stroke-width:1.0;"/><path d="M760.4688,294.6394 Q759.8906,294.9363 759.25,295.0769 Q758.6094,295.2331 757.9063,295.2331 Q755.4063,295.2331 754.0781,293.5925 Q752.7656,291.9363 752.7656,288.8113 Q752.7656,285.6863 754.0781,284.03 Q755.4063,282.3738 757.9063,282.3738 Q758.6094,282.3738 759.25,282.53 Q759.9063,282.6863 760.4688,282.9831 L760.4688,285.7019 Q759.8438,285.1238 759.25,284.8581 Q758.6563,284.5769 758.0313,284.5769 Q756.6875,284.5769 756,285.655 Q755.3125,286.7175 755.3125,288.8113 Q755.3125,290.905 756,291.9831 Q756.6875,293.0456 758.0313,293.0456 Q758.6563,293.0456 759.25,292.78 Q759.8438,292.4988 760.4688,291.9206 L760.4688,294.6394 Z " fill="#000000"/><a href="https://bo4e.github.io/BO4E-python/latest/api/bo4e.com.html#bo4e.com.zeitraum.Zeitraum" target="_top" title="https://bo4e.github.io/BO4E-python/latest/api/bo4e.com.html#bo4e.com.zeitraum.Zeitraum" xlink:actuate="onRequest" xlink:href="https://bo4e.github.io/BO4E-python/latest/api/bo4e.com.html#bo4e.com.zeitraum.Zeitraum" xlink:show="new" xlink:title="https://bo4e.github.io/BO4E-python/latest/api/bo4e.com.html#bo4e.com.zeitraum.Zeitraum" xlink:type="simple"><text fill="#0000FF" font-family="sans-serif" font-size="14" lengthAdjust="spacing" text-decoration="underline" textLength="62" x="787.5" y="288.0251">Zeitraum</text></a><text fill="#000000" font-family="sans-serif" font-size="10" lengthAdjust="spacing" textLength="94" x="771.5" y="300.6091">bo4e.com.zeitraum</text></g><!--class Energiemix--><g id="elem_Energiemix"><rect codeLine="18" fill="#F1F1F1" height="37.9375" id="Energiemix" rx="2.5" ry="2.5" style="stroke:#181818;stroke-width:0.5;" width="137" x="737" y="343.03"/><ellipse cx="752" cy="361.9988" fill="#ADD1B2" rx="11" ry="11" style="stroke:#181818;stroke-width:1.0;"/><path d="M754.9688,367.6394 Q754.3906,367.9363 753.75,368.0769 Q753.1094,368.2331 752.4063,368.2331 Q749.9063,368.2331 748.5781,366.5925 Q747.2656,364.9363 747.2656,361.8113 Q747.2656,358.6863 748.5781,357.03 Q749.9063,355.3738 752.4063,355.3738 Q753.1094,355.3738 753.75,355.53 Q754.4063,355.6863 754.9688,355.9831 L754.9688,358.7019 Q754.3438,358.1238 753.75,357.8581 Q753.1563,357.5769 752.5313,357.5769 Q751.1875,357.5769 750.5,358.655 Q749.8125,359.7175 749.8125,361.8113 Q749.8125,363.905 750.5,364.9831 Q751.1875,366.0456 752.5313,366.0456 Q753.1563,366.0456 753.75,365.78 Q754.3438,365.4988 754.9688,364.9206 L754.9688,367.6394 Z " fill="#000000"/><a href="https://bo4e.github.io/BO4E-python/latest/api/bo4e.com.html#bo4e.com.energiemix.Energiemix" target="_top" title="https://bo4e.github.io/BO4E-python/latest/api/bo4e.com.html#bo4e.com.energiemix.Energiemix" xlink:actuate="onRequest" xlink:href="https://bo4e.github.io/BO4E-python/latest/api/bo4e.com.html#bo4e.com.energiemix.Energiemix" xlink:show="new" xlink:title="https://bo4e.github.io/BO4E-python/latest/api/bo4e.com.html#bo4e.com.energiemix.Energiemix" xlink:type="simple"><text fill="#0000FF" font-family="sans-serif" font-size="14" lengthAdjust="spacing" text-decoration="underline" textLength="76" x="780.5" y="361.0251">Energiemix</text></a><text fill="#000000" font-family="sans-serif" font-size="10" lengthAdjust="spacing" textLength="105" x="766" y="373.6091">bo4e.com.energiemix</text></g><!--class Vertragskonditionen--><g id="elem_Vertragskonditionen"><rect codeLine="19" fill="#F1F1F1" height="37.9375" id="Vertragskonditionen" rx="2.5" ry="2.5" style="stroke:#181818;stroke-width:0.5;" width="179" x="716" y="416.03"/><ellipse cx="731" cy="434.9988" fill="#ADD1B2" rx="11" ry="11" style="stroke:#181818;stroke-width:1.0;"/><path d="M733.9688,440.6394 Q733.3906,440.9363 732.75,441.0769 Q732.1094,441.2331 731.4063,441.2331 Q728.9063,441.2331 727.5781,439.5925 Q726.2656,437.9363 726.2656,434.8113 Q726.2656,431.6863 727.5781,430.03 Q728.9063,428.3738 731.4063,428.3738 Q732.1094,428.3738 732.75,428.53 Q733.4063,428.6863 733.9688,428.9831 L733.9688,431.7019 Q733.3438,431.1238 732.75,430.8581 Q732.1563,430.5769 731.5313,430.5769 Q730.1875,430.5769 729.5,431.655 Q728.8125,432.7175 728.8125,434.8113 Q728.8125,436.905 729.5,437.9831 Q730.1875,439.0456 731.5313,439.0456 Q732.1563,439.0456 732.75,438.78 Q733.3438,438.4988 733.9688,437.9206 L733.9688,440.6394 Z " fill="#000000"/><a href="https://bo4e.github.io/BO4E-python/latest/api/bo4e.com.html#bo4e.com.vertragskonditionen.Vertragskonditionen" target="_top" title="https://bo4e.github.io/BO4E-python/latest/api/bo4e.com.html#bo4e.com.vertragskonditionen.Vertragskonditionen" xlink:actuate="onRequest" xlink:href="https://bo4e.github.io/BO4E-python/latest/api/bo4e.com.html#bo4e.com.vertragskonditionen.Vertragskonditionen" xlink:show="new" xlink:title="https://bo4e.github.io/BO4E-python/latest/api/bo4e.com.html#bo4e.com.vertragskonditionen.Vertragskonditionen" xlink:type="simple"><text fill="#0000FF" font-family="sans-serif" font-size="14" lengthAdjust="spacing" text-decoration="underline" textLength="140" x="748.5" y="434.0251">Vertragskonditionen</text></a><text fill="#000000" font-family="sans-serif" font-size="10" lengthAdjust="spacing" textLength="147" x="745" y="446.6091">bo4e.com.vertragskonditionen</text></g><!--class Tarifmerkmal--><g id="elem_Tarifmerkmal"><rect codeLine="22" fill="#F1F1F1" height="37.9375" id="Tarifmerkmal" rx="2.5" ry="2.5" style="stroke:#181818;stroke-width:0.5;" width="153" x="729" y="529.03"/><ellipse cx="744" cy="547.9988" fill="#ADD1B2" rx="11" ry="11" style="stroke:#181818;stroke-width:1.0;"/><path d="M746.9688,553.6394 Q746.3906,553.9363 745.75,554.0769 Q745.1094,554.2331 744.4063,554.2331 Q741.9063,554.2331 740.5781,552.5925 Q739.2656,550.9363 739.2656,547.8113 Q739.2656,544.6863 740.5781,543.03 Q741.9063,541.3738 744.4063,541.3738 Q745.1094,541.3738 745.75,541.53 Q746.4063,541.6863 746.9688,541.9831 L746.9688,544.7019 Q746.3438,544.1238 745.75,543.8581 Q745.1563,543.5769 744.5313,543.5769 Q743.1875,543.5769 742.5,544.655 Q741.8125,545.7175 741.8125,547.8113 Q741.8125,549.905 742.5,550.9831 Q743.1875,552.0456 744.5313,552.0456 Q745.1563,552.0456 745.75,551.78 Q746.3438,551.4988 746.9688,550.9206 L746.9688,553.6394 Z " fill="#000000"/><a href="https://bo4e.github.io/BO4E-python/latest/api/bo4e.enum.html#bo4e.enum.tarifmerkmal.Tarifmerkmal" target="_top" title="https://bo4e.github.io/BO4E-python/latest/api/bo4e.enum.html#bo4e.enum.tarifmerkmal.Tarifmerkmal" xlink:actuate="onRequest" xlink:href="https://bo4e.github.io/BO4E-python/latest/api/bo4e.enum.html#bo4e.enum.tarifmerkmal.Tarifmerkmal" xlink:show="new" xlink:title="https://bo4e.github.io/BO4E-python/latest/api/bo4e.enum.html#bo4e.enum.tarifmerkmal.Tarifmerkmal" xlink:type="simple"><text fill="#0000FF" font-family="sans-serif" font-size="14" lengthAdjust="spacing" text-decoration="underline" textLength="88" x="774.5" y="547.0251">Tarifmerkmal</text></a><text fill="#000000" font-family="sans-serif" font-size="10" lengthAdjust="spacing" textLength="121" x="758" y="559.6091">bo4e.enum.tarifmerkmal</text></g><!--class Registeranzahl--><g id="elem_Registeranzahl"><rect codeLine="23" fill="#F1F1F1" height="37.9375" id="Registeranzahl" rx="2.5" ry="2.5" style="stroke:#181818;stroke-width:0.5;" width="158" x="726.5" y="602.03"/><ellipse cx="741.5" cy="620.9988" fill="#ADD1B2" rx="11" ry="11" style="stroke:#181818;stroke-width:1.0;"/><path d="M744.4688,626.6394 Q743.8906,626.9363 743.25,627.0769 Q742.6094,627.2331 741.9063,627.2331 Q739.4063,627.2331 738.0781,625.5925 Q736.7656,623.9363 736.7656,620.8113 Q736.7656,617.6863 738.0781,616.03 Q739.4063,614.3738 741.9063,614.3738 Q742.6094,614.3738 743.25,614.53 Q743.9063,614.6863 744.4688,614.9831 L744.4688,617.7019 Q743.8438,617.1238 743.25,616.8581 Q742.6563,616.5769 742.0313,616.5769 Q740.6875,616.5769 740,617.655 Q739.3125,618.7175 739.3125,620.8113 Q739.3125,622.905 740,623.9831 Q740.6875,625.0456 742.0313,625.0456 Q742.6563,625.0456 743.25,624.78 Q743.8438,624.4988 744.4688,623.9206 L744.4688,626.6394 Z " fill="#000000"/><a href="https://bo4e.github.io/BO4E-python/latest/api/bo4e.enum.html#bo4e.enum.registeranzahl.Registeranzahl" target="_top" title="https://bo4e.github.io/BO4E-python/latest/api/bo4e.enum.html#bo4e.enum.registeranzahl.Registeranzahl" xlink:actuate="onRequest" xlink:href="https://bo4e.github.io/BO4E-python/latest/api/bo4e.enum.html#bo4e.enum.registeranzahl.Registeranzahl" xlink:show="new" xlink:title="https://bo4e.github.io/BO4E-python/latest/api/bo4e.enum.html#bo4e.enum.registeranzahl.Registeranzahl" xlink:type="simple"><text fill="#0000FF" font-family="sans-serif" font-size="14" lengthAdjust="spacing" text-decoration="underline" textLength="103" x="767" y="620.0251">Registeranzahl</text></a><text fill="#000000" font-family="sans-serif" font-size="10" lengthAdjust="spacing" textLength="126" x="755.5" y="632.6091">bo4e.enum.registeranzahl</text></g><!--class Kundentyp--><g id="elem_Kundentyp"><rect codeLine="24" fill="#F1F1F1" height="37.9375" id="Kundentyp" rx="2.5" ry="2.5" style="stroke:#181818;stroke-width:0.5;" width="141" x="735" y="675.03"/><ellipse cx="750" cy="693.9988" fill="#ADD1B2" rx="11" ry="11" style="stroke:#181818;stroke-width:1.0;"/><path d="M752.9688,699.6394 Q752.3906,699.9363 751.75,700.0769 Q751.1094,700.2331 750.4063,700.2331 Q747.9063,700.2331 746.5781,698.5925 Q745.2656,696.9363 745.2656,693.8113 Q745.2656,690.6863 746.5781,689.03 Q747.9063,687.3738 750.4063,687.3738 Q751.1094,687.3738 751.75,687.53 Q752.4063,687.6863 752.9688,687.9831 L752.9688,690.7019 Q752.3438,690.1238 751.75,689.8581 Q751.1563,689.5769 750.5313,689.5769 Q749.1875,689.5769 748.5,690.655 Q747.8125,691.7175 747.8125,693.8113 Q747.8125,695.905 748.5,696.9831 Q749.1875,698.0456 750.5313,698.0456 Q751.1563,698.0456 751.75,697.78 Q752.3438,697.4988 752.9688,696.9206 L752.9688,699.6394 Z " fill="#000000"/><a href="https://bo4e.github.io/BO4E-python/latest/api/bo4e.enum.html#bo4e.enum.kundentyp.Kundentyp" target="_top" title="https://bo4e.github.io/BO4E-python/latest/api/bo4e.enum.html#bo4e.enum.kundentyp.Kundentyp" xlink:actuate="onRequest" xlink:href="https://bo4e.github.io/BO4E-python/latest/api/bo4e.enum.html#bo4e.enum.kundentyp.Kundentyp" xlink:show="new" xlink:title="https://bo4e.github.io/BO4E-python/latest/api/bo4e.enum.html#bo4e.enum.kundentyp.Kundentyp" xlink:type="simple"><text fill="#0000FF" font-family="sans-serif" font-size="14" lengthAdjust="spacing" text-decoration="underline" textLength="75" x="781" y="693.0251">Kundentyp</text></a><text fill="#000000" font-family="sans-serif" font-size="10" lengthAdjust="spacing" textLength="109" x="764" y="705.6091">bo4e.enum.kundentyp</text></g><!--class Sparte--><g id="elem_Sparte"><rect codeLine="25" fill="#F1F1F1" height="37.9375" id="Sparte" rx="2.5" ry="2.5" style="stroke:#181818;stroke-width:0.5;" width="121" x="745" y="748.03"/><ellipse cx="760" cy="766.9988" fill="#ADD1B2" rx="11" ry="11" style="stroke:#181818;stroke-width:1.0;"/><path d="M762.9688,772.6394 Q762.3906,772.9363 761.75,773.0769 Q761.1094,773.2331 760.4063,773.2331 Q757.9063,773.2331 756.5781,771.5925 Q755.2656,769.9363 755.2656,766.8113 Q755.2656,763.6863 756.5781,762.03 Q757.9063,760.3738 760.4063,760.3738 Q761.1094,760.3738 761.75,760.53 Q762.4063,760.6863 762.9688,760.9831 L762.9688,763.7019 Q762.3438,763.1238 761.75,762.8581 Q761.1563,762.5769 760.5313,762.5769 Q759.1875,762.5769 758.5,763.655 Q757.8125,764.7175 757.8125,766.8113 Q757.8125,768.905 758.5,769.9831 Q759.1875,771.0456 760.5313,771.0456 Q761.1563,771.0456 761.75,770.78 Q762.3438,770.4988 762.9688,769.9206 L762.9688,772.6394 Z " fill="#000000"/><a href="https://bo4e.github.io/BO4E-python/latest/api/bo4e.enum.html#bo4e.enum.sparte.Sparte" target="_top" title="https://bo4e.github.io/BO4E-python/latest/api/bo4e.enum.html#bo4e.enum.sparte.Sparte" xlink:actuate="onRequest" xlink:href="https://bo4e.github.io/BO4E-python/latest/api/bo4e.enum.html#bo4e.enum.sparte.Sparte" xlink:show="new" xlink:title="https://bo4e.github.io/BO4E-python/latest/api/bo4e.enum.html#bo4e.enum.sparte.Sparte" xlink:type="simple"><text fill="#0000FF" font-family="sans-serif" font-size="14" lengthAdjust="spacing" text-decoration="underline" textLength="45" x="796" y="766.0251">Sparte</text></a><text fill="#000000" font-family="sans-serif" font-size="10" lengthAdjust="spacing" textLength="89" x="774" y="778.6091">bo4e.enum.sparte</text></g><!--class Tariftyp--><g id="elem_Tariftyp"><rect codeLine="26" fill="#F1F1F1" height="37.9375" id="Tariftyp" rx="2.5" ry="2.5" style="stroke:#181818;stroke-width:0.5;" width="126" x="742.5" y="821.03"/><ellipse cx="757.5" cy="839.9988" fill="#ADD1B2" rx="11" ry="11" style="stroke:#181818;stroke-width:1.0;"/><path d="M760.4688,845.6394 Q759.8906,845.9363 759.25,846.0769 Q758.6094,846.2331 757.9063,846.2331 Q755.4063,846.2331 754.0781,844.5925 Q752.7656,842.9363 752.7656,839.8113 Q752.7656,836.6863 754.0781,835.03 Q755.4063,833.3738 757.9063,833.3738 Q758.6094,833.3738 759.25,833.53 Q759.9063,833.6863 760.4688,833.9831 L760.4688,836.7019 Q759.8438,836.1238 759.25,835.8581 Q758.6563,835.5769 758.0313,835.5769 Q756.6875,835.5769 756,836.655 Q755.3125,837.7175 755.3125,839.8113 Q755.3125,841.905 756,842.9831 Q756.6875,844.0456 758.0313,844.0456 Q758.6563,844.0456 759.25,843.78 Q759.8438,843.4988 760.4688,842.9206 L760.4688,845.6394 Z " fill="#000000"/><a href="https://bo4e.github.io/BO4E-python/latest/api/bo4e.enum.html#bo4e.enum.tariftyp.Tariftyp" target="_top" title="https://bo4e.github.io/BO4E-python/latest/api/bo4e.enum.html#bo4e.enum.tariftyp.Tariftyp" xlink:actuate="onRequest" xlink:href="https://bo4e.github.io/BO4E-python/latest/api/bo4e.enum.html#bo4e.enum.tariftyp.Tariftyp" xlink:show="new" xlink:title="https://bo4e.github.io/BO4E-python/latest/api/bo4e.enum.html#bo4e.enum.tariftyp.Tariftyp" xlink:type="simple"><text fill="#0000FF" font-family="sans-serif" font-size="14" lengthAdjust="spacing" text-decoration="underline" textLength="50" x="793.5" y="839.0251">Tariftyp</text></a><text fill="#000000" font-family="sans-serif" font-size="10" lengthAdjust="spacing" textLength="94" x="771.5" y="851.6091">bo4e.enum.tariftyp</text></g><!--class Tarifinfo--><g id="elem_Tarifinfo"><rect codeLine="3" fill="#F1F1F1" height="143.7188" id="Tarifinfo" rx="2.5" ry="2.5" style="stroke:#181818;stroke-width:0.5;" width="494" x="7" y="439.14"/><ellipse cx="209.75" cy="458.1088" fill="#ADD1B2" rx="11" ry="11" style="stroke:#181818;stroke-width:1.0;"/><path d="M212.7188,463.7494 Q212.1406,464.0463 211.5,464.1869 Q210.8594,464.3431 210.1563,464.3431 Q207.6563,464.3431 206.3281,462.7025 Q205.0156,461.0463 205.0156,457.9213 Q205.0156,454.7963 206.3281,453.14 Q207.6563,451.4838 210.1563,451.4838 Q210.8594,451.4838 211.5,451.64 Q212.1563,451.7963 212.7188,452.0931 L212.7188,454.8119 Q212.0938,454.2338 211.5,453.9681 Q210.9063,453.6869 210.2813,453.6869 Q208.9375,453.6869 208.25,454.765 Q207.5625,455.8275 207.5625,457.9213 Q207.5625,460.015 208.25,461.0931 Q208.9375,462.1556 210.2813,462.1556 Q210.9063,462.1556 211.5,461.89 Q212.0938,461.6088 212.7188,461.0306 L212.7188,463.7494 Z " fill="#000000"/><a href="https://bo4e.github.io/BO4E-python/latest/api/bo4e.bo.html#bo4e.bo.tarifinfo.Tarifinfo" target="_top" title="https://bo4e.github.io/BO4E-python/latest/api/bo4e.bo.html#bo4e.bo.tarifinfo.Tarifinfo" xlink:actuate="onRequest" xlink:href="https://bo4e.github.io/BO4E-python/latest/api/bo4e.bo.html#bo4e.bo.tarifinfo.Tarifinfo" xlink:show="new" xlink:title="https://bo4e.github.io/BO4E-python/latest/api/bo4e.bo.html#bo4e.bo.tarifinfo.Tarifinfo" xlink:type="simple"><text fill="#0000FF" font-family="sans-serif" font-size="14" lengthAdjust="spacing" text-decoration="underline" textLength="54" x="243.25" y="457.1351">Tarifinfo</text></a><text fill="#000000" font-family="sans-serif" font-size="10" lengthAdjust="spacing" textLength="80" x="230.25" y="469.7191">bo4e.bo.tarifinfo</text><line style="stroke:#181818;stroke-width:0.5;" x1="8" x2="500" y1="477.0775" y2="477.0775"/><text fill="#000000" font-family="sans-serif" font-size="14" lengthAdjust="spacing" textLength="482" x="13" y="494.0726">_typ : Literal[&lt;BoTyp.TARIFINFO: 'TARIFINFO'&gt;] [1] = BoTyp.TARIFINFO</text><text fill="#000000" font-family="sans-serif" font-size="14" lengthAdjust="spacing" textLength="219" x="13" y="510.3695">bezeichnung : str [0..1] = None</text><text fill="#000000" font-family="sans-serif" font-size="14" lengthAdjust="spacing" textLength="224" x="13" y="526.6664">anbietername : str [0..1] = None</text><text fill="#000000" font-family="sans-serif" font-size="14" lengthAdjust="spacing" textLength="182" x="13" y="542.9632">website : str [0..1] = None</text><text fill="#000000" font-family="sans-serif" font-size="14" lengthAdjust="spacing" textLength="208" x="13" y="559.2601">bemerkung : str [0..1] = None</text><text fill="#000000" font-family="sans-serif" font-size="14" lengthAdjust="spacing" textLength="324" x="13" y="575.557">anwendungVon : AwareDatetime [0..1] = None</text></g><!--link Tarifinfo to Geschaeftsobjekt--><g id="link_Tarifinfo_Geschaeftsobjekt"><path codeLine="29" d="M311.09,438.78 C363.3,374.72 445.7,281.29 531,215 C585.81,172.41 603.61,165.93 668,140 C686.79,132.43 690.2902,130.6578 709.9202,125.2778 " fill="none" id="Tarifinfo-to-Geschaeftsobjekt" style="stroke:#181818;stroke-width:1.0;"/><polygon fill="none" points="727.28,120.52,708.3342,119.4912,711.5061,131.0644,727.28,120.52" style="stroke:#181818;stroke-width:1.0;"/></g><!--link Tarifinfo to Sparte--><g id="link_Tarifinfo_Sparte"><path codeLine="30" d="M361.65,583.19 C411.74,615.28 473.06,652.04 531,680 C589.37,708.17 606.22,710.39 668,730 C692.92,737.91 709.1283,742.5739 733.1183,748.9139 " fill="none" id="Tarifinfo-to-Sparte" style="stroke:#181818;stroke-width:1.0;"/><polygon fill="#181818" points="744.72,751.98,739.9412,746.5797,733.1183,748.9139,737.8971,754.3142,744.72,751.98" style="stroke:#181818;stroke-width:1.0;"/><text fill="#000000" font-family="sans-serif" font-size="13" lengthAdjust="spacing" textLength="41" x="575" y="676.0669">sparte</text><text fill="#000000" font-family="sans-serif" font-size="13" lengthAdjust="spacing" textLength="24" x="713.2146" y="763.2784">0..1</text></g><!--link Tarifinfo to Kundentyp--><g id="link_Tarifinfo_Kundentyp"><path codeLine="31" d="M436.84,583.27 C468.08,594.99 500.36,606.66 531,617 C591.1,637.28 606.94,639.81 668,657 C689.63,663.09 701.6461,666.4173 723.0561,672.2073 " fill="none" id="Tarifinfo-to-Kundentyp" style="stroke:#181818;stroke-width:1.0;"/><polygon fill="#181818" points="734.64,675.34,729.8923,669.9124,723.0561,672.2073,727.8038,677.635,734.64,675.34" style="stroke:#181818;stroke-width:1.0;"/><text fill="#000000" font-family="sans-serif" font-size="13" lengthAdjust="spacing" textLength="83" x="554" y="613.0669">kundentypen</text><text fill="#000000" font-family="sans-serif" font-size="13" lengthAdjust="spacing" textLength="23" x="704.0474" y="686.3843">0..*</text></g><!--link Tarifinfo to Registeranzahl--><g id="link_Tarifinfo_Registeranzahl"><path codeLine="32" d="M501.22,560.29 C582.46,576.55 655.2831,591.1362 714.4231,602.9662 " fill="none" id="Tarifinfo-to-Registeranzahl" style="stroke:#181818;stroke-width:1.0;"/><polygon fill="#181818" points="726.19,605.32,721.0911,600.2208,714.4231,602.9662,719.522,608.0654,726.19,605.32" style="stroke:#181818;stroke-width:1.0;"/><text fill="#000000" font-family="sans-serif" font-size="13" lengthAdjust="spacing" textLength="91" x="550" y="564.0669">registeranzahl</text><text fill="#000000" font-family="sans-serif" font-size="13" lengthAdjust="spacing" textLength="24" x="694.6284" y="616.7151">0..1</text></g><!--link Tarifinfo to Tariftyp--><g id="link_Tarifinfo_Tariftyp"><path codeLine="33" d="M323.17,583.21 C375.88,635.71 452.84,705.46 531,752 C586.82,785.24 606.14,783.15 668,803 C692.08,810.73 707.2793,815.1602 730.7093,821.3602 " fill="none" id="Tarifinfo-to-Tariftyp" style="stroke:#181818;stroke-width:1.0;"/><polygon fill="#181818" points="742.31,824.43,737.5329,819.0282,730.7093,821.3602,735.4864,826.762,742.31,824.43" style="stroke:#181818;stroke-width:1.0;"/><text fill="#000000" font-family="sans-serif" font-size="13" lengthAdjust="spacing" textLength="45" x="573" y="748.0669">tariftyp</text><text fill="#000000" font-family="sans-serif" font-size="13" lengthAdjust="spacing" textLength="24" x="710.556" y="835.6717">0..1</text></g><!--link Tarifinfo to Tarifmerkmal--><g id="link_Tarifinfo_Tarifmerkmal"><path codeLine="34" d="M501.22,527.58 C583.6,533.13 657.457,538.1056 716.697,542.0856 " fill="none" id="Tarifinfo-to-Tarifmerkmal" style="stroke:#181818;stroke-width:1.0;"/><polygon fill="#181818" points="728.67,542.89,722.9516,538.4968,716.697,542.0856,722.4154,546.4788,728.67,542.89" style="stroke:#181818;stroke-width:1.0;"/><text fill="#000000" font-family="sans-serif" font-size="13" lengthAdjust="spacing" textLength="90" x="550.5" y="527.0669">tarifmerkmale</text><text fill="#000000" font-family="sans-serif" font-size="13" lengthAdjust="spacing" textLength="23" x="698.0791" y="555.1681">0..*</text></g><!--link Tarifinfo to Marktteilnehmer--><g id="link_Tarifinfo_Marktteilnehmer"><path codeLine="35" d="M342.26,438.78 C395.05,396.92 464.75,344.8 531,305 C606.27,259.78 688.842,223.1787 744.732,200.0487 " fill="none" id="Tarifinfo-to-Marktteilnehmer" style="stroke:#181818;stroke-width:1.0;"/><polygon fill="#181818" points="755.82,195.46,748.7464,194.0584,744.732,200.0487,751.8056,201.4504,755.82,195.46" style="stroke:#181818;stroke-width:1.0;"/><text fill="#000000" font-family="sans-serif" font-size="13" lengthAdjust="spacing" textLength="53" x="569" y="236.0669">anbieter</text><text fill="#000000" font-family="sans-serif" font-size="13" lengthAdjust="spacing" textLength="24" x="714.4725" y="215.1284">0..1</text></g><!--link Tarifinfo to Zeitraum--><g id="link_Tarifinfo_Zeitraum"><path codeLine="36" d="M390.55,438.73 C434.75,416.38 484.44,392.53 531,373 C590.36,348.11 606.46,344.88 668,326 C692.06,318.62 707.1447,314.3101 730.4847,308.0901 " fill="none" id="Tarifinfo-to-Zeitraum" style="stroke:#181818;stroke-width:1.0;"/><polygon fill="#181818" points="742.08,305,735.2523,302.6799,730.4847,308.0901,737.3124,310.4102,742.08,305" style="stroke:#181818;stroke-width:1.0;"/><text fill="#000000" font-family="sans-serif" font-size="13" lengthAdjust="spacing" textLength="120" x="535.5" y="326.0669">zeitlicheGueltigkeit</text><text fill="#000000" font-family="sans-serif" font-size="13" lengthAdjust="spacing" textLength="24" x="710.3023" y="319.4973">0..1</text></g><!--link Tarifinfo to Energiemix--><g id="link_Tarifinfo_Energiemix"><path codeLine="37" d="M501.28,439.14 C511.31,436.37 521.25,433.64 531,431 C600.84,412.08 669.5045,394.8645 724.9545,381.2845 " fill="none" id="Tarifinfo-to-Energiemix" style="stroke:#181818;stroke-width:1.0;"/><polygon fill="#181818" points="736.61,378.43,729.8307,375.9721,724.9545,381.2845,731.7337,383.7424,736.61,378.43" style="stroke:#181818;stroke-width:1.0;"/><text fill="#000000" font-family="sans-serif" font-size="13" lengthAdjust="spacing" textLength="71" x="560" y="394.0669">energiemix</text><text fill="#000000" font-family="sans-serif" font-size="13" lengthAdjust="spacing" textLength="24" x="704.9002" y="392.7842">0..1</text></g><!--link Tarifinfo to Vertragskonditionen--><g id="link_Tarifinfo_Vertragskonditionen"><path codeLine="38" d="M501.22,476.95 C577.74,466.36 645.3632,457.0146 703.7632,448.9346 " fill="none" id="Tarifinfo-to-Vertragskonditionen" style="stroke:#181818;stroke-width:1.0;"/><polygon fill="#181818" points="715.65,447.29,709.1584,444.15,703.7632,448.9346,710.2548,452.0746,715.65,447.29" style="stroke:#181818;stroke-width:1.0;"/><text fill="#000000" font-family="sans-serif" font-size="13" lengthAdjust="spacing" textLength="127" x="532" y="452.0669">vertragskonditionen</text><text fill="#000000" font-family="sans-serif" font-size="13" lengthAdjust="spacing" textLength="24" x="683.8521" y="460.8772">0..1</text></g><!--SRC=[jLPDRzim33tNlu983WKAL6cnhYkCha2wVg3OrW9TqCEoO91jnjPYIu6aB6kt_VV9ZkMlkCaXtibyyYFrJDAYOfngq08a2oCD0PFeQoQuu_WnLGfwut6azLovWu4dJf24J4SBZp0nk7mukJwSF-j8y45CDIeze7EsOdc2H3g9-nPeAjcKyQaW8sj1OKqct_YvOY_e7XzTh7dqWAgI2x-TlU_wUGukV68Q9Ot7vvTYz3mde-7ZtStT_Ss32_k5lNynWV7n1Dv3W-JiUVY2p8_uWeSccD8InaU4PDnxmT7PeznZQBRWDC5snX8zPKIql_GmGJdR47s9F32ldmGtZE6IIhmoMTJCx5Rd_dMSL8EQKnztgmVaO3B9ifeZw5-UNhqRdgMvxRBe8Ie_egQzbF1-u4oJsyO2D1TQEw4P9fFUzEnMUKBbJ6jaCSV8L95yhcDeu5RPZHYPweQVgUokXVL5KgciGTNI6WZzwwFXsUc7NMjhz-aNoFmzMj95Ghxc1bXZFHrLVYRFKhiMXHnbo31XlyXrOK9fjaihlJ9n9RrhUJzHciyErKpmWAMdB7BojBu6BMljobi2Pf_G4g23PaE-g7PR2gljbcBe1yV-cxSxdoN5LlqIPYCXFLGJ6g_cI0wW2jOJjUPSZfHyeNkj4aEcqld4NsWKaySQX3fyHN4zHAQvxjUzQZEk0kHcl9AFreB2UaLcuPCfBDZTYpETApMIBza3LezNDAsecQ0LxpyrOvgfKMw0DJOre4sJvQQplN8bEZpySs6dyjgqh18Dym1wwIsXL_vxDZNclh7ww3Q7Wwf3MMKNYZgQesBhJer-Tg7UhDi355bpmIPckzpQFvyxvX0tRccosHpXBjZxtKRFz90j1fmBwH2BpQqHRnSOQnRE3DxgNvb4BfIpPgjVssHmeUN8Tvo81GW99XvAvQX8BA4IVCem3jG_]--></g></svg>