<?xml version="1.0" encoding="us-ascii" standalone="no"?><svg xmlns="http://www.w3.org/2000/svg" xmlns:xlink="http://www.w3.org/1999/xlink" contentStyleType="text/css" height="574px" preserveAspectRatio="none" style="width:898px;height:574px;background:#FFFFFF;" version="1.1" viewBox="0 0 898 574" width="898px" zoomAndPan="magnify"><defs/><g><!--cluster bo4e--><g id="cluster_bo4e"><path d="M588.5,6 L629.5,6 A3.75,3.75 0 0 1 632,8.5 L639,28.2969 L888.5,28.2969 A2.5,2.5 0 0 1 891,30.7969 L891,564.5 A2.5,2.5 0 0 1 888.5,567 L588.5,567 A2.5,2.5 0 0 1 586,564.5 L586,8.5 A2.5,2.5 0 0 1 588.5,6 " fill="none" style="stroke:#000000;stroke-width:1.5;"/><line style="stroke:#000000;stroke-width:1.5;" x1="586" x2="639" y1="28.2969" y2="28.2969"/><text fill="#000000" font-family="sans-serif" font-size="14" font-weight="bold" lengthAdjust="spacing" textLength="40" x="590" y="20.9951">bo4e</text></g><!--cluster bo--><g id="cluster_bo"><path d="M669,49 L735,49 A3.75,3.75 0 0 1 737.5,51.5 L744.5,71.2969 L808,71.2969 A2.5,2.5 0 0 1 810.5,73.7969 L810.5,135.5 A2.5,2.5 0 0 1 808,138 L669,138 A2.5,2.5 0 0 1 666.5,135.5 L666.5,51.5 A2.5,2.5 0 0 1 669,49 " fill="#B6D7A8" style="stroke:#000000;stroke-width:1.5;"/><line style="stroke:#000000;stroke-width:1.5;" x1="666.5" x2="744.5" y1="71.2969" y2="71.2969"/><a href="https://bo4e.github.io/BO4E-python/latest/api/bo4e.bo.html" target="_top" title="https://bo4e.github.io/BO4E-python/latest/api/bo4e.bo.html" xlink:actuate="onRequest" xlink:href="https://bo4e.github.io/BO4E-python/latest/api/bo4e.bo.html" xlink:show="new" xlink:title="https://bo4e.github.io/BO4E-python/latest/api/bo4e.bo.html" xlink:type="simple"><text fill="#0000FF" font-family="sans-serif" font-size="14" font-weight="bold" lengthAdjust="spacing" text-decoration="underline" textLength="65" x="670.5" y="63.9951">bo4e.bo</text></a></g><!--cluster com--><g id="cluster_com"><path d="M612.5,162 L691.5,162 A3.75,3.75 0 0 1 694,164.5 L701,184.2969 L864.5,184.2969 A2.5,2.5 0 0 1 867,186.7969 L867,540.5 A2.5,2.5 0 0 1 864.5,543 L612.5,543 A2.5,2.5 0 0 1 610,540.5 L610,164.5 A2.5,2.5 0 0 1 612.5,162 " fill="#E0A86C" style="stroke:#000000;stroke-width:1.5;"/><line style="stroke:#000000;stroke-width:1.5;" x1="610" x2="701" y1="184.2969" y2="184.2969"/><a href="https://bo4e.github.io/BO4E-python/latest/api/bo4e.com.html" target="_top" title="https://bo4e.github.io/BO4E-python/latest/api/bo4e.com.html" xlink:actuate="onRequest" xlink:href="https://bo4e.github.io/BO4E-python/latest/api/bo4e.com.html" xlink:show="new" xlink:title="https://bo4e.github.io/BO4E-python/latest/api/bo4e.com.html" xlink:type="simple"><text fill="#0000FF" font-family="sans-serif" font-size="14" font-weight="bold" lengthAdjust="spacing" text-decoration="underline" textLength="78" x="614" y="176.9951">bo4e.com</text></a></g><!--class Tarifinfo--><g id="elem_Tarifinfo"><rect codeLine="11" fill="#F1F1F1" height="37.9375" id="Tarifinfo" rx="2.5" ry="2.5" style="stroke:#181818;stroke-width:0.5;" width="112" x="682.5" y="84.03"/><ellipse cx="697.5" cy="102.9987" fill="#ADD1B2" rx="11" ry="11" style="stroke:#181818;stroke-width:1.0;"/><path d="M700.4688,108.6394 Q699.8906,108.9362 699.25,109.0769 Q698.6094,109.2331 697.9063,109.2331 Q695.4063,109.2331 694.0781,107.5925 Q692.7656,105.9362 692.7656,102.8112 Q692.7656,99.6862 694.0781,98.03 Q695.4063,96.3737 697.9063,96.3737 Q698.6094,96.3737 699.25,96.53 Q699.9063,96.6862 700.4688,96.9831 L700.4688,99.7019 Q699.8438,99.1237 699.25,98.8581 Q698.6563,98.5769 698.0313,98.5769 Q696.6875,98.5769 696,99.655 Q695.3125,100.7175 695.3125,102.8112 Q695.3125,104.905 696,105.9831 Q696.6875,107.0456 698.0313,107.0456 Q698.6563,107.0456 699.25,106.78 Q699.8438,106.4987 700.4688,105.9206 L700.4688,108.6394 Z " fill="#000000"/><a href="https://bo4e.github.io/BO4E-python/latest/api/bo4e.bo.html#bo4e.bo.tarifinfo.Tarifinfo" target="_top" title="https://bo4e.github.io/BO4E-python/latest/api/bo4e.bo.html#bo4e.bo.tarifinfo.Tarifinfo" xlink:actuate="onRequest" xlink:href="https://bo4e.github.io/BO4E-python/latest/api/bo4e.bo.html#bo4e.bo.tarifinfo.Tarifinfo" xlink:show="new" xlink:title="https://bo4e.github.io/BO4E-python/latest/api/bo4e.bo.html#bo4e.bo.tarifinfo.Tarifinfo" xlink:type="simple"><text fill="#0000FF" font-family="sans-serif" font-size="14" lengthAdjust="spacing" text-decoration="underline" textLength="54" x="724.5" y="102.0251">Tarifinfo</text></a><text fill="#000000" font-family="sans-serif" font-size="10" lengthAdjust="spacing" textLength="80" x="711.5" y="114.6091">bo4e.bo.tarifinfo</text></g><!--class Tarifeinschraenkung--><g id="elem_Tarifeinschraenkung"><rect codeLine="14" fill="#F1F1F1" height="37.9375" id="Tarifeinschraenkung" rx="2.5" ry="2.5" style="stroke:#181818;stroke-width:0.5;" width="178" x="649.5" y="197.03"/><ellipse cx="664.5" cy="215.9987" fill="#ADD1B2" rx="11" ry="11" style="stroke:#181818;stroke-width:1.0;"/><path d="M667.4688,221.6394 Q666.8906,221.9362 666.25,222.0769 Q665.6094,222.2331 664.9063,222.2331 Q662.4063,222.2331 661.0781,220.5925 Q659.7656,218.9362 659.7656,215.8112 Q659.7656,212.6862 661.0781,211.03 Q662.4063,209.3737 664.9063,209.3737 Q665.6094,209.3737 666.25,209.53 Q666.9063,209.6862 667.4688,209.9831 L667.4688,212.7019 Q666.8438,212.1237 666.25,211.8581 Q665.6563,211.5769 665.0313,211.5769 Q663.6875,211.5769 663,212.655 Q662.3125,213.7175 662.3125,215.8112 Q662.3125,217.905 663,218.9831 Q663.6875,220.0456 665.0313,220.0456 Q665.6563,220.0456 666.25,219.78 Q666.8438,219.4987 667.4688,218.9206 L667.4688,221.6394 Z " fill="#000000"/><a href="https://bo4e.github.io/BO4E-python/latest/api/bo4e.com.html#bo4e.com.tarifeinschraenkung.Tarifeinschraenkung" target="_top" title="https://bo4e.github.io/BO4E-python/latest/api/bo4e.com.html#bo4e.com.tarifeinschraenkung.Tarifeinschraenkung" xlink:actuate="onRequest" xlink:href="https://bo4e.github.io/BO4E-python/latest/api/bo4e.com.html#bo4e.com.tarifeinschraenkung.Tarifeinschraenkung" xlink:show="new" xlink:title="https://bo4e.github.io/BO4E-python/latest/api/bo4e.com.html#bo4e.com.tarifeinschraenkung.Tarifeinschraenkung" xlink:type="simple"><text fill="#0000FF" font-family="sans-serif" font-size="14" lengthAdjust="spacing" text-decoration="underline" textLength="141" x="681" y="215.0251">Tarifeinschraenkung</text></a><text fill="#000000" font-family="sans-serif" font-size="10" lengthAdjust="spacing" textLength="146" x="678.5" y="227.6091">bo4e.com.tarifeinschraenkung</text></g><!--class AufAbschlag--><g id="elem_AufAbschlag"><rect codeLine="15" fill="#F1F1F1" height="37.9375" id="AufAbschlag" rx="2.5" ry="2.5" style="stroke:#181818;stroke-width:0.5;" width="141" x="668" y="270.03"/><ellipse cx="683" cy="288.9988" fill="#ADD1B2" rx="11" ry="11" style="stroke:#181818;stroke-width:1.0;"/><path d="M685.9688,294.6394 Q685.3906,294.9363 684.75,295.0769 Q684.1094,295.2331 683.4063,295.2331 Q680.9063,295.2331 679.5781,293.5925 Q678.2656,291.9363 678.2656,288.8113 Q678.2656,285.6863 679.5781,284.03 Q680.9063,282.3738 683.4063,282.3738 Q684.1094,282.3738 684.75,282.53 Q685.4063,282.6863 685.9688,282.9831 L685.9688,285.7019 Q685.3438,285.1238 684.75,284.8581 Q684.1563,284.5769 683.5313,284.5769 Q682.1875,284.5769 681.5,285.655 Q680.8125,286.7175 680.8125,288.8113 Q680.8125,290.905 681.5,291.9831 Q682.1875,293.0456 683.5313,293.0456 Q684.1563,293.0456 684.75,292.78 Q685.3438,292.4988 685.9688,291.9206 L685.9688,294.6394 Z " fill="#000000"/><a href="https://bo4e.github.io/BO4E-python/latest/api/bo4e.com.html#bo4e.com.aufabschlag.AufAbschlag" target="_top" title="https://bo4e.github.io/BO4E-python/latest/api/bo4e.com.html#bo4e.com.aufabschlag.AufAbschlag" xlink:actuate="onRequest" xlink:href="https://bo4e.github.io/BO4E-python/latest/api/bo4e.com.html#bo4e.com.aufabschlag.AufAbschlag" xlink:show="new" xlink:title="https://bo4e.github.io/BO4E-python/latest/api/bo4e.com.html#bo4e.com.aufabschlag.AufAbschlag" xlink:type="simple"><text fill="#0000FF" font-family="sans-serif" font-size="14" lengthAdjust="spacing" text-decoration="underline" textLength="85" x="709" y="288.0251">AufAbschlag</text></a><text fill="#000000" font-family="sans-serif" font-size="10" lengthAdjust="spacing" textLength="109" x="697" y="300.6091">bo4e.com.aufabschlag</text></g><!--class Preisgarantie--><g id="elem_Preisgarantie"><rect codeLine="16" fill="#F1F1F1" height="37.9375" id="Preisgarantie" rx="2.5" ry="2.5" style="stroke:#181818;stroke-width:0.5;" width="146" x="665.5" y="343.03"/><ellipse cx="680.5" cy="361.9988" fill="#ADD1B2" rx="11" ry="11" style="stroke:#181818;stroke-width:1.0;"/><path d="M683.4688,367.6394 Q682.8906,367.9363 682.25,368.0769 Q681.6094,368.2331 680.9063,368.2331 Q678.4063,368.2331 677.0781,366.5925 Q675.7656,364.9363 675.7656,361.8113 Q675.7656,358.6863 677.0781,357.03 Q678.4063,355.3738 680.9063,355.3738 Q681.6094,355.3738 682.25,355.53 Q682.9063,355.6863 683.4688,355.9831 L683.4688,358.7019 Q682.8438,358.1238 682.25,357.8581 Q681.6563,357.5769 681.0313,357.5769 Q679.6875,357.5769 679,358.655 Q678.3125,359.7175 678.3125,361.8113 Q678.3125,363.905 679,364.9831 Q679.6875,366.0456 681.0313,366.0456 Q681.6563,366.0456 682.25,365.78 Q682.8438,365.4988 683.4688,364.9206 L683.4688,367.6394 Z " fill="#000000"/><a href="https://bo4e.github.io/BO4E-python/latest/api/bo4e.com.html#bo4e.com.preisgarantie.Preisgarantie" target="_top" title="https://bo4e.github.io/BO4E-python/latest/api/bo4e.com.html#bo4e.com.preisgarantie.Preisgarantie" xlink:actuate="onRequest" xlink:href="https://bo4e.github.io/BO4E-python/latest/api/bo4e.com.html#bo4e.com.preisgarantie.Preisgarantie" xlink:show="new" xlink:title="https://bo4e.github.io/BO4E-python/latest/api/bo4e.com.html#bo4e.com.preisgarantie.Preisgarantie" xlink:type="simple"><text fill="#0000FF" font-family="sans-serif" font-size="14" lengthAdjust="spacing" text-decoration="underline" textLength="90" x="706.5" y="361.0251">Preisgarantie</text></a><text fill="#000000" font-family="sans-serif" font-size="10" lengthAdjust="spacing" textLength="114" x="694.5" y="373.6091">bo4e.com.preisgarantie</text></g><!--class Tarifpreisposition--><g id="elem_Tarifpreisposition"><rect codeLine="17" fill="#F1F1F1" height="37.9375" id="Tarifpreisposition" rx="2.5" ry="2.5" style="stroke:#181818;stroke-width:0.5;" width="163" x="657" y="416.03"/><ellipse cx="672" cy="434.9988" fill="#ADD1B2" rx="11" ry="11" style="stroke:#181818;stroke-width:1.0;"/><path d="M674.9688,440.6394 Q674.3906,440.9363 673.75,441.0769 Q673.1094,441.2331 672.4063,441.2331 Q669.9063,441.2331 668.5781,439.5925 Q667.2656,437.9363 667.2656,434.8113 Q667.2656,431.6863 668.5781,430.03 Q669.9063,428.3738 672.4063,428.3738 Q673.1094,428.3738 673.75,428.53 Q674.4063,428.6863 674.9688,428.9831 L674.9688,431.7019 Q674.3438,431.1238 673.75,430.8581 Q673.1563,430.5769 672.5313,430.5769 Q671.1875,430.5769 670.5,431.655 Q669.8125,432.7175 669.8125,434.8113 Q669.8125,436.905 670.5,437.9831 Q671.1875,439.0456 672.5313,439.0456 Q673.1563,439.0456 673.75,438.78 Q674.3438,438.4988 674.9688,437.9206 L674.9688,440.6394 Z " fill="#000000"/><a href="https://bo4e.github.io/BO4E-python/latest/api/bo4e.com.html#bo4e.com.tarifpreisposition.Tarifpreisposition" target="_top" title="https://bo4e.github.io/BO4E-python/latest/api/bo4e.com.html#bo4e.com.tarifpreisposition.Tarifpreisposition" xlink:actuate="onRequest" xlink:href="https://bo4e.github.io/BO4E-python/latest/api/bo4e.com.html#bo4e.com.tarifpreisposition.Tarifpreisposition" xlink:show="new" xlink:title="https://bo4e.github.io/BO4E-python/latest/api/bo4e.com.html#bo4e.com.tarifpreisposition.Tarifpreisposition" xlink:type="simple"><text fill="#0000FF" font-family="sans-serif" font-size="14" lengthAdjust="spacing" text-decoration="underline" textLength="118" x="692.5" y="434.0251">Tarifpreisposition</text></a><text fill="#000000" font-family="sans-serif" font-size="10" lengthAdjust="spacing" textLength="131" x="686" y="446.6091">bo4e.com.tarifpreisposition</text></g><!--class Tarifberechnungsparameter--><g id="elem_Tarifberechnungsparameter"><rect codeLine="18" fill="#F1F1F1" height="37.9375" id="Tarifberechnungsparameter" rx="2.5" ry="2.5" style="stroke:#181818;stroke-width:0.5;" width="225" x="626" y="489.03"/><ellipse cx="641" cy="507.9988" fill="#ADD1B2" rx="11" ry="11" style="stroke:#181818;stroke-width:1.0;"/><path d="M643.9688,513.6394 Q643.3906,513.9363 642.75,514.0769 Q642.1094,514.2331 641.4063,514.2331 Q638.9063,514.2331 637.5781,512.5925 Q636.2656,510.9363 636.2656,507.8113 Q636.2656,504.6863 637.5781,503.03 Q638.9063,501.3738 641.4063,501.3738 Q642.1094,501.3738 642.75,501.53 Q643.4063,501.6863 643.9688,501.9831 L643.9688,504.7019 Q643.3438,504.1238 642.75,503.8581 Q642.1563,503.5769 641.5313,503.5769 Q640.1875,503.5769 639.5,504.655 Q638.8125,505.7175 638.8125,507.8113 Q638.8125,509.905 639.5,510.9831 Q640.1875,512.0456 641.5313,512.0456 Q642.1563,512.0456 642.75,511.78 Q643.3438,511.4988 643.9688,510.9206 L643.9688,513.6394 Z " fill="#000000"/><a href="https://bo4e.github.io/BO4E-python/latest/api/bo4e.com.html#bo4e.com.tarifberechnungsparameter.Tarifberechnungsparameter" target="_top" title="https://bo4e.github.io/BO4E-python/latest/api/bo4e.com.html#bo4e.com.tarifberechnungsparameter.Tarifberechnungsparameter" xlink:actuate="onRequest" xlink:href="https://bo4e.github.io/BO4E-python/latest/api/bo4e.com.html#bo4e.com.tarifberechnungsparameter.Tarifberechnungsparameter" xlink:show="new" xlink:title="https://bo4e.github.io/BO4E-python/latest/api/bo4e.com.html#bo4e.com.tarifberechnungsparameter.Tarifberechnungsparameter" xlink:type="simple"><text fill="#0000FF" font-family="sans-serif" font-size="14" lengthAdjust="spacing" text-decoration="underline" textLength="193" x="655" y="507.0251">Tarifberechnungsparameter</text></a><text fill="#000000" font-family="sans-serif" font-size="10" lengthAdjust="spacing" textLength="185" x="659" y="519.6091">bo4e.com.tarifberechnungsparameter</text></g><!--class Tarifpreisblatt--><g id="elem_Tarifpreisblatt"><rect codeLine="3" fill="#F1F1F1" height="111.125" id="Tarifpreisblatt" rx="2.5" ry="2.5" style="stroke:#181818;stroke-width:0.5;" width="380" x="7" y="274.44"/><ellipse cx="139.25" cy="293.4088" fill="#ADD1B2" rx="11" ry="11" style="stroke:#181818;stroke-width:1.0;"/><path d="M142.2188,299.0494 Q141.6406,299.3463 141,299.4869 Q140.3594,299.6431 139.6563,299.6431 Q137.1563,299.6431 135.8281,298.0025 Q134.5156,296.3463 134.5156,293.2213 Q134.5156,290.0963 135.8281,288.44 Q137.1563,286.7838 139.6563,286.7838 Q140.3594,286.7838 141,286.94 Q141.6563,287.0963 142.2188,287.3931 L142.2188,290.1119 Q141.5938,289.5338 141,289.2681 Q140.4063,288.9869 139.7813,288.9869 Q138.4375,288.9869 137.75,290.065 Q137.0625,291.1275 137.0625,293.2213 Q137.0625,295.315 137.75,296.3931 Q138.4375,297.4556 139.7813,297.4556 Q140.4063,297.4556 141,297.19 Q141.5938,296.9088 142.2188,296.3306 L142.2188,299.0494 Z " fill="#000000"/><a href="https://bo4e.github.io/BO4E-python/latest/api/bo4e.bo.html#bo4e.bo.tarifpreisblatt.Tarifpreisblatt" target="_top" title="https://bo4e.github.io/BO4E-python/latest/api/bo4e.bo.html#bo4e.bo.tarifpreisblatt.Tarifpreisblatt" xlink:actuate="onRequest" xlink:href="https://bo4e.github.io/BO4E-python/latest/api/bo4e.bo.html#bo4e.bo.tarifpreisblatt.Tarifpreisblatt" xlink:show="new" xlink:title="https://bo4e.github.io/BO4E-python/latest/api/bo4e.bo.html#bo4e.bo.tarifpreisblatt.Tarifpreisblatt" xlink:type="simple"><text fill="#0000FF" font-family="sans-serif" font-size="14" lengthAdjust="spacing" text-decoration="underline" textLength="93" x="166.75" y="292.4351">Tarifpreisblatt</text></a><text fill="#000000" font-family="sans-serif" font-size="10" lengthAdjust="spacing" textLength="107" x="159.75" y="305.0191">bo4e.bo.tarifpreisblatt</text><line style="stroke:#181818;stroke-width:0.5;" x1="8" x2="386" y1="312.3775" y2="312.3775"/><text fill="#000000" font-family="sans-serif" font-size="14" lengthAdjust="spacing" textLength="368" x="13" y="329.3726">_version : str [0..1] = 202401.6.1.dev12+g40b5b4d4</text><text fill="#000000" font-family="sans-serif" font-size="14" lengthAdjust="spacing" textLength="311" x="13" y="345.6695">zusatzAttribute : ZusatzAttribut [0..*] = None</text><text fill="#000000" font-family="sans-serif" font-size="14" lengthAdjust="spacing" textLength="147" x="13" y="361.9664">_id : str [0..1] = None</text><text fill="#000000" font-family="sans-serif" font-size="14" lengthAdjust="spacing" textLength="288" x="13" y="378.2632">preisstand : AwareDatetime [0..1] = None</text></g><!--link Tarifpreisblatt to Tarifinfo--><g id="link_Tarifpreisblatt_Tarifinfo"><path codeLine="21" d="M307.33,274.02 C342.06,256.93 380.85,238.56 417,223 C508.55,183.6 600.7399,150.2257 665.1399,127.8157 " fill="none" id="Tarifpreisblatt-to-Tarifinfo" style="stroke:#181818;stroke-width:1.0;"/><polygon fill="none" points="682.14,121.9,663.168,122.149,667.1118,133.4824,682.14,121.9" style="stroke:#181818;stroke-width:1.0;"/></g><!--link Tarifpreisblatt to Tarifpreisposition--><g id="link_Tarifpreisblatt_Tarifpreisposition"><path codeLine="22" d="M387.39,378.7 C397.38,380.91 407.3,383.03 417,385 C498.13,401.48 579.8726,413.8803 644.9026,422.8503 " fill="none" id="Tarifpreisblatt-to-Tarifpreisposition" style="stroke:#181818;stroke-width:1.0;"/><polygon fill="#181818" points="656.79,424.49,651.3928,419.7077,644.9026,422.8503,650.2997,427.6326,656.79,424.49" style="stroke:#181818;stroke-width:1.0;"/><text fill="#000000" font-family="sans-serif" font-size="13" lengthAdjust="spacing" textLength="64" x="461.5" y="381.0669">tarifpreise</text><text fill="#000000" font-family="sans-serif" font-size="13" lengthAdjust="spacing" textLength="23" x="626.071" y="436.3132">0..*</text></g><!--link Tarifpreisblatt to Tarifberechnungsparameter--><g id="link_Tarifpreisblatt_Tarifberechnungsparameter"><path codeLine="23" d="M300,386.05 C336.16,404.24 377.65,423.25 417,437 C484.65,460.65 551.387,475.9705 613.767,487.7105 " fill="none" id="Tarifpreisblatt-to-Tarifberechnungsparameter" style="stroke:#181818;stroke-width:1.0;"/><polygon fill="#181818" points="625.56,489.93,620.4033,484.8893,613.767,487.7105,618.9237,492.7513,625.56,489.93" style="stroke:#181818;stroke-width:1.0;"/><text fill="#000000" font-family="sans-serif" font-size="13" lengthAdjust="spacing" textLength="151" x="418" y="433.0669">berechnungsparameter</text><text fill="#000000" font-family="sans-serif" font-size="13" lengthAdjust="spacing" textLength="24" x="593.9465" y="501.3569">0..1</text></g><!--link Tarifpreisblatt to Tarifeinschraenkung--><g id="link_Tarifpreisblatt_Tarifeinschraenkung"><path codeLine="24" d="M387.22,284.55 C397.28,282.29 407.26,280.1 417,278 C495.26,261.15 572.9316,246.2102 637.4116,234.2402 " fill="none" id="Tarifpreisblatt-to-Tarifeinschraenkung" style="stroke:#181818;stroke-width:1.0;"/><polygon fill="#181818" points="649.21,232.05,642.5807,229.2123,637.4116,234.2402,644.0409,237.0779,649.21,232.05" style="stroke:#181818;stroke-width:1.0;"/><text fill="#000000" font-family="sans-serif" font-size="13" lengthAdjust="spacing" textLength="126" x="430.5" y="244.0669">tarifeinschraenkung</text><text fill="#000000" font-family="sans-serif" font-size="13" lengthAdjust="spacing" textLength="24" x="617.455" y="245.9251">0..1</text></g><!--link Tarifpreisblatt to Preisgarantie--><g id="link_Tarifpreisblatt_Preisgarantie"><path codeLine="25" d="M387.26,350.79 C397.31,351.61 407.27,352.35 417,353 C502.12,358.66 588.1809,360.626 653.1909,361.406 " fill="none" id="Tarifpreisblatt-to-Preisgarantie" style="stroke:#181818;stroke-width:1.0;"/><polygon fill="#181818" points="665.19,361.55,659.2384,357.4783,653.1909,361.406,659.1424,365.4777,665.19,361.55" style="stroke:#181818;stroke-width:1.0;"/><text fill="#000000" font-family="sans-serif" font-size="13" lengthAdjust="spacing" textLength="84" x="451.5" y="349.0669">preisgarantie</text><text fill="#000000" font-family="sans-serif" font-size="13" lengthAdjust="spacing" textLength="24" x="633.5921" y="374.2508">0..1</text></g><!--link Tarifpreisblatt to AufAbschlag--><g id="link_Tarifpreisblatt_AufAbschlag"><path codeLine="26" d="M387.45,315.6 C484.61,308.22 585.0945,300.5792 655.7645,295.2092 " fill="none" id="Tarifpreisblatt-to-AufAbschlag" style="stroke:#181818;stroke-width:1.0;"/><polygon fill="#181818" points="667.73,294.3,661.4442,290.7661,655.7645,295.2092,662.0503,298.7431,667.73,294.3" style="stroke:#181818;stroke-width:1.0;"/><text fill="#000000" font-family="sans-serif" font-size="13" lengthAdjust="spacing" textLength="120" x="433.5" y="299.0669">tarifAufAbschlaege</text><text fill="#000000" font-family="sans-serif" font-size="13" lengthAdjust="spacing" textLength="23" x="636.8886" y="307.5933">0..*</text></g><!--SRC=[jLN9Rjim43r7Np6mRoaiIuRg1a8QG6boRNlegQvHKDP88YgH0ZbAKBVzzrBoeiMoaS3EZRCzpZoIZnd612H1yIGbYBZ25N4fB6kLCQrXj5YaH8NsfzDGUcWddD8ojBcStd_n7YV5Rqgbc6QCKDEK5NoJ5KexfJmRxmnYYiU5Ggv3aqhsjwuDFNkv_25kDL-ZxpftHp16m7I_3lvOLp-VK6ap0FYWIS72iMrt2HzXvimynxNdjcj7-EJEtYMU4xuFlSYphjQbPhGEY1GFIq9J-htZgL6kAvJFKg3PWqTz-4sWRaKJ4rKyU6OA7mmpn7FiPVwpBC5or0LRuNaSmzPOBcj6jXQCx-SF7uARYf6B7oGNiTmSORM2_UhuiLNHvi0gop1mBW4hcRSOC5QR0cF2-D49RkQVpkLWjyzuRzKp8HTwbIg6ubSfaWqVNHyC-0uvEWBOqDNrNteMLiOiDFWPI-oWZ8Fj6bhhuPvRXNMlhO9BzrW_guGf9eYZ_RLjGSSQxhHJNlVQANgJsr7lMKZDAp5jwTtE1OUk4rUZazTJlftxJSO8qVm7gJ3tphnKPHuieTfCCnI1ev4JimsbDoCEHIlrFFX29fE_TplrQyJfCCyaNiEeqlFHNYc6piU7Xday0UFsOGQ9yM5ma5V0zgHbsrvF6rw6rtr0FdJUnmiPQql5jfV6XGbQLieZX1npCxYsT2gVuG0vvfX5-Zy0]--></g></svg>