<svg xmlns="http://www.w3.org/2000/svg" xmlns:xlink="http://www.w3.org/1999/xlink" contentStyleType="text/css" data-diagram-type="CLASS" height="242px" preserveAspectRatio="none" style="width:644px;height:242px;background:#FFFFFF;" version="1.1" viewBox="0 0 644 242" width="644px" zoomAndPan="magnify"><defs/><g><!--cluster bo4e--><g class="cluster" data-entity="bo4e" data-source-line="10" data-uid="ent0005" id="cluster_bo4e"><path d="M445.36,6 L485.236,6 A3.75,3.75 0 0 1 487.736,8.5 L494.736,28.2969 L635.38,28.2969 A2.5,2.5 0 0 1 637.88,30.7969 L637.88,232.5 A2.5,2.5 0 0 1 635.38,235 L445.36,235 A2.5,2.5 0 0 1 442.86,232.5 L442.86,8.5 A2.5,2.5 0 0 1 445.36,6" fill="none" style="stroke:#000000;stroke-width:1.5;"/><line style="stroke:#000000;stroke-width:1.5;" x1="442.86" x2="494.736" y1="28.2969" y2="28.2969"/><text fill="#000000" font-family="sans-serif" font-size="14" font-weight="bold" lengthAdjust="spacing" textLength="38.876" x="446.86" y="20.9951">bo4e</text></g><!--cluster bo--><g class="cluster" data-entity="bo" data-source-line="9" data-uid="ent0003" id="cluster_bo"><path d="M469.36,49 L534.194,49 A3.75,3.75 0 0 1 536.694,51.5 L543.694,71.2969 L611.38,71.2969 A2.5,2.5 0 0 1 613.88,73.7969 L613.88,208.5 A2.5,2.5 0 0 1 611.38,211 L469.36,211 A2.5,2.5 0 0 1 466.86,208.5 L466.86,51.5 A2.5,2.5 0 0 1 469.36,49" fill="#B6D7A8" style="stroke:#000000;stroke-width:1.5;"/><line style="stroke:#000000;stroke-width:1.5;" x1="466.86" x2="543.694" y1="71.2969" y2="71.2969"/><a href="file:////home/runner/work/BO4E-python/BO4E-python/docs/../.tox/docs/tmp/html/api/bo4e.bo.html" target="_top" title="file:////home/runner/work/BO4E-python/BO4E-python/docs/../.tox/docs/tmp/html/api/bo4e.bo.html" xlink:actuate="onRequest" xlink:href="file:////home/runner/work/BO4E-python/BO4E-python/docs/../.tox/docs/tmp/html/api/bo4e.bo.html" xlink:show="new" xlink:title="file:////home/runner/work/BO4E-python/BO4E-python/docs/../.tox/docs/tmp/html/api/bo4e.bo.html" xlink:type="simple"><text fill="#0000FF" font-family="sans-serif" font-size="14" font-weight="bold" lengthAdjust="spacing" text-decoration="underline" textLength="63.834" x="470.86" y="63.9951">bo4e.bo</text></a></g><!--class Tarifinfo--><g class="entity" data-entity="Tarifinfo" data-source-line="10" data-uid="ent0004" id="entity_Tarifinfo"><rect fill="#F1F1F1" height="37.9375" rx="2.5" ry="2.5" style="stroke:#181818;stroke-width:0.5;" width="115.0176" x="482.86" y="84.03"/><ellipse cx="497.86" cy="102.9988" fill="#ADD1B2" rx="11" ry="11" style="stroke:#181818;stroke-width:1;"/><path d="M500.8288,108.6394 Q500.2506,108.9363 499.61,109.0769 Q498.9694,109.2331 498.2663,109.2331 Q495.7663,109.2331 494.4381,107.5925 Q493.1256,105.9363 493.1256,102.8113 Q493.1256,99.6863 494.4381,98.03 Q495.7663,96.3738 498.2663,96.3738 Q498.9694,96.3738 499.61,96.53 Q500.2663,96.6863 500.8288,96.9831 L500.8288,99.7019 Q500.2038,99.1238 499.61,98.8581 Q499.0163,98.5769 498.3913,98.5769 Q497.0475,98.5769 496.36,99.655 Q495.6725,100.7175 495.6725,102.8113 Q495.6725,104.905 496.36,105.9831 Q497.0475,107.0456 498.3913,107.0456 Q499.0163,107.0456 499.61,106.78 Q500.2038,106.4988 500.8288,105.9206 L500.8288,108.6394 Z " fill="#000000"/><a href="file:////home/runner/work/BO4E-python/BO4E-python/docs/../.tox/docs/tmp/html/api/bo4e.bo.html#bo4e.bo.tarifinfo.Tarifinfo" target="_top" title="file:////home/runner/work/BO4E-python/BO4E-python/docs/../.tox/docs/tmp/html/api/bo4e.bo.html#bo4e.bo.tarifinfo.Tarifinfo" xlink:actuate="onRequest" xlink:href="file:////home/runner/work/BO4E-python/BO4E-python/docs/../.tox/docs/tmp/html/api/bo4e.bo.html#bo4e.bo.tarifinfo.Tarifinfo" xlink:show="new" xlink:title="file:////home/runner/work/BO4E-python/BO4E-python/docs/../.tox/docs/tmp/html/api/bo4e.bo.html#bo4e.bo.tarifinfo.Tarifinfo" xlink:type="simple"><text fill="#0000FF" font-family="sans-serif" font-size="14" lengthAdjust="spacing" text-decoration="underline" textLength="57.9619" x="524.3878" y="102.0251">Tarifinfo</text></a><text fill="#000000" font-family="sans-serif" font-size="10" lengthAdjust="spacing" textLength="83.0176" x="511.86" y="114.6091">bo4e.bo.tarifinfo</text></g><!--class Kosten--><g class="entity" data-entity="Kosten" data-source-line="11" data-uid="ent0006" id="entity_Kosten"><rect fill="#F1F1F1" height="37.9375" rx="2.5" ry="2.5" style="stroke:#181818;stroke-width:0.5;" width="109.334" x="485.7" y="157.03"/><ellipse cx="500.7" cy="175.9988" fill="#ADD1B2" rx="11" ry="11" style="stroke:#181818;stroke-width:1;"/><path d="M503.6688,181.6394 Q503.0906,181.9363 502.45,182.0769 Q501.8094,182.2331 501.1063,182.2331 Q498.6063,182.2331 497.2781,180.5925 Q495.9656,178.9363 495.9656,175.8113 Q495.9656,172.6863 497.2781,171.03 Q498.6063,169.3738 501.1063,169.3738 Q501.8094,169.3738 502.45,169.53 Q503.1063,169.6863 503.6688,169.9831 L503.6688,172.7019 Q503.0438,172.1238 502.45,171.8581 Q501.8563,171.5769 501.2313,171.5769 Q499.8875,171.5769 499.2,172.655 Q498.5125,173.7175 498.5125,175.8113 Q498.5125,177.905 499.2,178.9831 Q499.8875,180.0456 501.2313,180.0456 Q501.8563,180.0456 502.45,179.78 Q503.0438,179.4988 503.6688,178.9206 L503.6688,181.6394 Z " fill="#000000"/><a href="file:////home/runner/work/BO4E-python/BO4E-python/docs/../.tox/docs/tmp/html/api/bo4e.bo.html#bo4e.bo.kosten.Kosten" target="_top" title="file:////home/runner/work/BO4E-python/BO4E-python/docs/../.tox/docs/tmp/html/api/bo4e.bo.html#bo4e.bo.kosten.Kosten" xlink:actuate="onRequest" xlink:href="file:////home/runner/work/BO4E-python/BO4E-python/docs/../.tox/docs/tmp/html/api/bo4e.bo.html#bo4e.bo.kosten.Kosten" xlink:show="new" xlink:title="file:////home/runner/work/BO4E-python/BO4E-python/docs/../.tox/docs/tmp/html/api/bo4e.bo.html#bo4e.bo.kosten.Kosten" xlink:type="simple"><text fill="#0000FF" font-family="sans-serif" font-size="14" lengthAdjust="spacing" text-decoration="underline" textLength="48.0156" x="529.3592" y="175.0251">Kosten</text></a><text fill="#000000" font-family="sans-serif" font-size="10" lengthAdjust="spacing" textLength="77.334" x="514.7" y="187.6091">bo4e.bo.kosten</text></g><!--class Tarifkosten--><g class="entity" data-entity="Tarifkosten" data-source-line="3" data-uid="ent0002" id="entity_Tarifkosten"><rect fill="#F1F1F1" height="94.8281" rx="2.5" ry="2.5" style="stroke:#181818;stroke-width:0.5;" width="344.8623" x="7" y="92.59"/><ellipse cx="126.2847" cy="111.5588" fill="#ADD1B2" rx="11" ry="11" style="stroke:#181818;stroke-width:1;"/><path d="M129.2534,117.1994 Q128.6753,117.4963 128.0347,117.6369 Q127.394,117.7931 126.6909,117.7931 Q124.1909,117.7931 122.8628,116.1525 Q121.5503,114.4963 121.5503,111.3713 Q121.5503,108.2463 122.8628,106.59 Q124.1909,104.9338 126.6909,104.9338 Q127.394,104.9338 128.0347,105.09 Q128.6909,105.2463 129.2534,105.5431 L129.2534,108.2619 Q128.6284,107.6838 128.0347,107.4181 Q127.4409,107.1369 126.8159,107.1369 Q125.4722,107.1369 124.7847,108.215 Q124.0972,109.2775 124.0972,111.3713 Q124.0972,113.465 124.7847,114.5431 Q125.4722,115.6056 126.8159,115.6056 Q127.4409,115.6056 128.0347,115.34 Q128.6284,115.0588 129.2534,114.4806 L129.2534,117.1994 Z " fill="#000000"/><a href="file:////home/runner/work/BO4E-python/BO4E-python/docs/../.tox/docs/tmp/html/api/bo4e.bo.html#bo4e.bo.tarifkosten.Tarifkosten" target="_top" title="file:////home/runner/work/BO4E-python/BO4E-python/docs/../.tox/docs/tmp/html/api/bo4e.bo.html#bo4e.bo.tarifkosten.Tarifkosten" xlink:actuate="onRequest" xlink:href="file:////home/runner/work/BO4E-python/BO4E-python/docs/../.tox/docs/tmp/html/api/bo4e.bo.html#bo4e.bo.tarifkosten.Tarifkosten" xlink:show="new" xlink:title="file:////home/runner/work/BO4E-python/BO4E-python/docs/../.tox/docs/tmp/html/api/bo4e.bo.html#bo4e.bo.tarifkosten.Tarifkosten" xlink:type="simple"><text fill="#0000FF" font-family="sans-serif" font-size="14" lengthAdjust="spacing" text-decoration="underline" textLength="78.6475" x="156.3574" y="110.5851">Tarifkosten</text></a><text fill="#000000" font-family="sans-serif" font-size="10" lengthAdjust="spacing" textLength="97.793" x="146.7847" y="123.1691">bo4e.bo.tarifkosten</text><line style="stroke:#181818;stroke-width:0.5;" x1="8" x2="350.8623" y1="130.5275" y2="130.5275"/><text fill="#000000" font-family="sans-serif" font-size="14" lengthAdjust="spacing" textLength="332.8623" x="13" y="147.5226">_version : str [0..1] = 202501.0.0+g7b47c8326</text><text fill="#000000" font-family="sans-serif" font-size="14" lengthAdjust="spacing" textLength="318.5752" x="13" y="163.8195">zusatzAttribute : ZusatzAttribut [0..*] = None</text><text fill="#000000" font-family="sans-serif" font-size="14" lengthAdjust="spacing" textLength="151.1768" x="13" y="180.1164">_id : str [0..1] = None</text></g><!--link Tarifkosten to Tarifinfo--><g class="link" data-entity-1="Tarifkosten" data-entity-2="Tarifinfo" data-source-line="14" data-uid="lnk7" id="link_Tarifkosten_Tarifinfo"><path codeLine="14" d="M352.28,122.29 C399.28,117.44 429.0746,114.3625 464.5446,110.7125" fill="none" id="Tarifkosten-to-Tarifinfo" style="stroke:#181818;stroke-width:1;"/><polygon fill="none" points="482.45,108.87,463.9304,104.7441,465.1587,116.681,482.45,108.87" style="stroke:#181818;stroke-width:1;"/></g><!--link Tarifkosten to Kosten--><g class="link" data-entity-1="Tarifkosten" data-entity-2="Kosten" data-source-line="15" data-uid="lnk8" id="link_Tarifkosten_Kosten"><path codeLine="15" d="M352.28,157.24 C400.54,162.08 437.5998,165.794 473.3398,169.374" fill="none" id="Tarifkosten-to-Kosten" style="stroke:#181818;stroke-width:1;"/><polygon fill="#181818" points="485.28,170.57,479.7086,165.9919,473.3398,169.374,478.9112,173.9521,485.28,170.57" style="stroke:#181818;stroke-width:1;"/><text fill="#000000" font-family="sans-serif" font-size="13" lengthAdjust="spacing" textLength="43.5894" x="382.86" y="158.0669">kosten</text><text fill="#000000" font-family="sans-serif" font-size="13" lengthAdjust="spacing" textLength="24.8066" x="452.7362" y="182.9108">0..1</text></g><!--SRC=[nL9TJy8m57ssl-9cl65e1oAGHKaW-aIYBpw9Yzd77MlOsgKjegZ_tPMDZnbvLFjqJdjwjjvpCamC60cABr83CLSO6Iu58L4MQ0tEV9xm33rMhbJcoDHA25HiBTMIJU_xjvtYpQHID70i8yqePTJ8rugOl62foJCM59o5ieyqbDHkj7R418edIwaD2lfmm724VVz9N6c-GQ_hZd-uvq2WZ_NmJiwUNr3fyZtWWJOAvYwbNH-keUVsBjqkTQbxlXY6_M4qkkWDoDbcfGEpcHYZUBWoMDvwREni3ThMu4uABErv_DrvU_19Y0Xor4KGuQ_F46hY-zi9r0nQqy7DS3AoK_YFBBb8P9MaHR17frEqfuSCBVlpFwyBEAlwCpjTkwF6LIeRUQEudSx7U9V5OGvDJIbgWsERu-obzRSzg3I4f3n6o34FooOJdSerD3mIZbcilm00]--></g></svg>