<svg xmlns="http://www.w3.org/2000/svg" xmlns:xlink="http://www.w3.org/1999/xlink" contentStyleType="text/css" data-diagram-type="CLASS" height="574px" preserveAspectRatio="none" style="width:869px;height:574px;background:#FFFFFF;" version="1.1" viewBox="0 0 869 574" width="869px" zoomAndPan="magnify"><defs/><g><!--cluster bo4e--><g class="cluster" data-entity="bo4e" data-source-line="11" data-uid="ent0005" id="cluster_bo4e"><path d="M556.26,6 L596.136,6 A3.75,3.75 0 0 1 598.636,8.5 L605.636,28.2969 L860.12,28.2969 A2.5,2.5 0 0 1 862.62,30.7969 L862.62,564.5 A2.5,2.5 0 0 1 860.12,567 L556.26,567 A2.5,2.5 0 0 1 553.76,564.5 L553.76,8.5 A2.5,2.5 0 0 1 556.26,6" fill="none" style="stroke:#000000;stroke-width:1.5;"/><line style="stroke:#000000;stroke-width:1.5;" x1="553.76" x2="605.636" y1="28.2969" y2="28.2969"/><text fill="#000000" font-family="sans-serif" font-size="14" font-weight="bold" lengthAdjust="spacing" textLength="38.876" x="557.76" y="20.9951">bo4e</text></g><!--cluster bo--><g class="cluster" data-entity="bo" data-source-line="10" data-uid="ent0003" id="cluster_bo"><path d="M637.18,49 L702.014,49 A3.75,3.75 0 0 1 704.514,51.5 L711.514,71.2969 L779.2,71.2969 A2.5,2.5 0 0 1 781.7,73.7969 L781.7,135.5 A2.5,2.5 0 0 1 779.2,138 L637.18,138 A2.5,2.5 0 0 1 634.68,135.5 L634.68,51.5 A2.5,2.5 0 0 1 637.18,49" fill="#B6D7A8" style="stroke:#000000;stroke-width:1.5;"/><line style="stroke:#000000;stroke-width:1.5;" x1="634.68" x2="711.514" y1="71.2969" y2="71.2969"/><a href="file:////home/runner/work/BO4E-python/BO4E-python/docs/../.tox/docs/tmp/html/api/bo4e.bo.html" target="_top" title="file:////home/runner/work/BO4E-python/BO4E-python/docs/../.tox/docs/tmp/html/api/bo4e.bo.html" xlink:actuate="onRequest" xlink:href="file:////home/runner/work/BO4E-python/BO4E-python/docs/../.tox/docs/tmp/html/api/bo4e.bo.html" xlink:show="new" xlink:title="file:////home/runner/work/BO4E-python/BO4E-python/docs/../.tox/docs/tmp/html/api/bo4e.bo.html" xlink:type="simple"><text fill="#0000FF" font-family="sans-serif" font-size="14" font-weight="bold" lengthAdjust="spacing" text-decoration="underline" textLength="63.834" x="638.68" y="63.9951">bo4e.bo</text></a></g><!--cluster com--><g class="cluster" data-entity="com" data-source-line="13" data-uid="ent0006" id="cluster_com"><path d="M580.26,162 L657.9592,162 A3.75,3.75 0 0 1 660.4592,164.5 L667.4592,184.2969 L836.12,184.2969 A2.5,2.5 0 0 1 838.62,186.7969 L838.62,540.5 A2.5,2.5 0 0 1 836.12,543 L580.26,543 A2.5,2.5 0 0 1 577.76,540.5 L577.76,164.5 A2.5,2.5 0 0 1 580.26,162" fill="#E0A86C" style="stroke:#000000;stroke-width:1.5;"/><line style="stroke:#000000;stroke-width:1.5;" x1="577.76" x2="667.4592" y1="184.2969" y2="184.2969"/><a href="file:////home/runner/work/BO4E-python/BO4E-python/docs/../.tox/docs/tmp/html/api/bo4e.com.html" target="_top" title="file:////home/runner/work/BO4E-python/BO4E-python/docs/../.tox/docs/tmp/html/api/bo4e.com.html" xlink:actuate="onRequest" xlink:href="file:////home/runner/work/BO4E-python/BO4E-python/docs/../.tox/docs/tmp/html/api/bo4e.com.html" xlink:show="new" xlink:title="file:////home/runner/work/BO4E-python/BO4E-python/docs/../.tox/docs/tmp/html/api/bo4e.com.html" xlink:type="simple"><text fill="#0000FF" font-family="sans-serif" font-size="14" font-weight="bold" lengthAdjust="spacing" text-decoration="underline" textLength="76.6992" x="581.76" y="176.9951">bo4e.com</text></a></g><!--class Tarifinfo--><g class="entity" data-entity="Tarifinfo" data-source-line="11" data-uid="ent0004" id="entity_Tarifinfo"><rect fill="#F1F1F1" height="37.9375" rx="2.5" ry="2.5" style="stroke:#181818;stroke-width:0.5;" width="115.0176" x="650.68" y="84.03"/><ellipse cx="665.68" cy="102.9987" fill="#ADD1B2" rx="11" ry="11" style="stroke:#181818;stroke-width:1;"/><path d="M668.6488,108.6394 Q668.0706,108.9362 667.43,109.0769 Q666.7894,109.2331 666.0863,109.2331 Q663.5863,109.2331 662.2581,107.5925 Q660.9456,105.9362 660.9456,102.8112 Q660.9456,99.6862 662.2581,98.03 Q663.5863,96.3737 666.0863,96.3737 Q666.7894,96.3737 667.43,96.53 Q668.0863,96.6862 668.6488,96.9831 L668.6488,99.7019 Q668.0238,99.1237 667.43,98.8581 Q666.8363,98.5769 666.2113,98.5769 Q664.8675,98.5769 664.18,99.655 Q663.4925,100.7175 663.4925,102.8112 Q663.4925,104.905 664.18,105.9831 Q664.8675,107.0456 666.2113,107.0456 Q666.8363,107.0456 667.43,106.78 Q668.0238,106.4987 668.6488,105.9206 L668.6488,108.6394 Z " fill="#000000"/><a href="file:////home/runner/work/BO4E-python/BO4E-python/docs/../.tox/docs/tmp/html/api/bo4e.bo.html#bo4e.bo.tarifinfo.Tarifinfo" target="_top" title="file:////home/runner/work/BO4E-python/BO4E-python/docs/../.tox/docs/tmp/html/api/bo4e.bo.html#bo4e.bo.tarifinfo.Tarifinfo" xlink:actuate="onRequest" xlink:href="file:////home/runner/work/BO4E-python/BO4E-python/docs/../.tox/docs/tmp/html/api/bo4e.bo.html#bo4e.bo.tarifinfo.Tarifinfo" xlink:show="new" xlink:title="file:////home/runner/work/BO4E-python/BO4E-python/docs/../.tox/docs/tmp/html/api/bo4e.bo.html#bo4e.bo.tarifinfo.Tarifinfo" xlink:type="simple"><text fill="#0000FF" font-family="sans-serif" font-size="14" lengthAdjust="spacing" text-decoration="underline" textLength="57.9619" x="692.2078" y="102.0251">Tarifinfo</text></a><text fill="#000000" font-family="sans-serif" font-size="10" lengthAdjust="spacing" textLength="83.0176" x="679.68" y="114.6091">bo4e.bo.tarifinfo</text></g><!--class AufAbschlagRegional--><g class="entity" data-entity="AufAbschlagRegional" data-source-line="14" data-uid="ent0007" id="entity_AufAbschlagRegional"><rect fill="#F1F1F1" height="37.9375" rx="2.5" ry="2.5" style="stroke:#181818;stroke-width:0.5;" width="186.209" x="615.09" y="197.03"/><ellipse cx="630.09" cy="215.9987" fill="#ADD1B2" rx="11" ry="11" style="stroke:#181818;stroke-width:1;"/><path d="M633.0588,221.6394 Q632.4806,221.9362 631.84,222.0769 Q631.1994,222.2331 630.4963,222.2331 Q627.9963,222.2331 626.6681,220.5925 Q625.3556,218.9362 625.3556,215.8112 Q625.3556,212.6862 626.6681,211.03 Q627.9963,209.3737 630.4963,209.3737 Q631.1994,209.3737 631.84,209.53 Q632.4963,209.6862 633.0588,209.9831 L633.0588,212.7019 Q632.4338,212.1237 631.84,211.8581 Q631.2463,211.5769 630.6213,211.5769 Q629.2775,211.5769 628.59,212.655 Q627.9025,213.7175 627.9025,215.8112 Q627.9025,217.905 628.59,218.9831 Q629.2775,220.0456 630.6213,220.0456 Q631.2463,220.0456 631.84,219.78 Q632.4338,219.4987 633.0588,218.9206 L633.0588,221.6394 Z " fill="#000000"/><a href="file:////home/runner/work/BO4E-python/BO4E-python/docs/../.tox/docs/tmp/html/api/bo4e.com.html#bo4e.com.aufabschlagregional.AufAbschlagRegional" target="_top" title="file:////home/runner/work/BO4E-python/BO4E-python/docs/../.tox/docs/tmp/html/api/bo4e.com.html#bo4e.com.aufabschlagregional.AufAbschlagRegional" xlink:actuate="onRequest" xlink:href="file:////home/runner/work/BO4E-python/BO4E-python/docs/../.tox/docs/tmp/html/api/bo4e.com.html#bo4e.com.aufabschlagregional.AufAbschlagRegional" xlink:show="new" xlink:title="file:////home/runner/work/BO4E-python/BO4E-python/docs/../.tox/docs/tmp/html/api/bo4e.com.html#bo4e.com.aufabschlagregional.AufAbschlagRegional" xlink:type="simple"><text fill="#0000FF" font-family="sans-serif" font-size="14" lengthAdjust="spacing" text-decoration="underline" textLength="148.0869" x="647.151" y="215.0251">AufAbschlagRegional</text></a><text fill="#000000" font-family="sans-serif" font-size="10" lengthAdjust="spacing" textLength="154.209" x="644.09" y="227.6091">bo4e.com.aufabschlagregional</text></g><!--class Tarifeinschraenkung--><g class="entity" data-entity="Tarifeinschraenkung" data-source-line="15" data-uid="ent0008" id="entity_Tarifeinschraenkung"><rect fill="#F1F1F1" height="37.9375" rx="2.5" ry="2.5" style="stroke:#181818;stroke-width:0.5;" width="185.0127" x="615.69" y="270.03"/><ellipse cx="630.69" cy="288.9988" fill="#ADD1B2" rx="11" ry="11" style="stroke:#181818;stroke-width:1;"/><path d="M633.6588,294.6394 Q633.0806,294.9363 632.44,295.0769 Q631.7994,295.2331 631.0963,295.2331 Q628.5963,295.2331 627.2681,293.5925 Q625.9556,291.9363 625.9556,288.8113 Q625.9556,285.6863 627.2681,284.03 Q628.5963,282.3738 631.0963,282.3738 Q631.7994,282.3738 632.44,282.53 Q633.0963,282.6863 633.6588,282.9831 L633.6588,285.7019 Q633.0338,285.1238 632.44,284.8581 Q631.8463,284.5769 631.2213,284.5769 Q629.8775,284.5769 629.19,285.655 Q628.5025,286.7175 628.5025,288.8113 Q628.5025,290.905 629.19,291.9831 Q629.8775,293.0456 631.2213,293.0456 Q631.8463,293.0456 632.44,292.78 Q633.0338,292.4988 633.6588,291.9206 L633.6588,294.6394 Z " fill="#000000"/><a href="file:////home/runner/work/BO4E-python/BO4E-python/docs/../.tox/docs/tmp/html/api/bo4e.com.html#bo4e.com.tarifeinschraenkung.Tarifeinschraenkung" target="_top" title="file:////home/runner/work/BO4E-python/BO4E-python/docs/../.tox/docs/tmp/html/api/bo4e.com.html#bo4e.com.tarifeinschraenkung.Tarifeinschraenkung" xlink:actuate="onRequest" xlink:href="file:////home/runner/work/BO4E-python/BO4E-python/docs/../.tox/docs/tmp/html/api/bo4e.com.html#bo4e.com.tarifeinschraenkung.Tarifeinschraenkung" xlink:show="new" xlink:title="file:////home/runner/work/BO4E-python/BO4E-python/docs/../.tox/docs/tmp/html/api/bo4e.com.html#bo4e.com.tarifeinschraenkung.Tarifeinschraenkung" xlink:type="simple"><text fill="#0000FF" font-family="sans-serif" font-size="14" lengthAdjust="spacing" text-decoration="underline" textLength="143.5068" x="649.4429" y="288.0251">Tarifeinschraenkung</text></a><text fill="#000000" font-family="sans-serif" font-size="10" lengthAdjust="spacing" textLength="153.0127" x="644.69" y="300.6091">bo4e.com.tarifeinschraenkung</text></g><!--class Preisgarantie--><g class="entity" data-entity="Preisgarantie" data-source-line="16" data-uid="ent0009" id="entity_Preisgarantie"><rect fill="#F1F1F1" height="37.9375" rx="2.5" ry="2.5" style="stroke:#181818;stroke-width:0.5;" width="151.1992" x="632.59" y="343.03"/><ellipse cx="647.59" cy="361.9988" fill="#ADD1B2" rx="11" ry="11" style="stroke:#181818;stroke-width:1;"/><path d="M650.5588,367.6394 Q649.9806,367.9363 649.34,368.0769 Q648.6994,368.2331 647.9963,368.2331 Q645.4963,368.2331 644.1681,366.5925 Q642.8556,364.9363 642.8556,361.8113 Q642.8556,358.6863 644.1681,357.03 Q645.4963,355.3738 647.9963,355.3738 Q648.6994,355.3738 649.34,355.53 Q649.9963,355.6863 650.5588,355.9831 L650.5588,358.7019 Q649.9338,358.1238 649.34,357.8581 Q648.7463,357.5769 648.1213,357.5769 Q646.7775,357.5769 646.09,358.655 Q645.4025,359.7175 645.4025,361.8113 Q645.4025,363.905 646.09,364.9831 Q646.7775,366.0456 648.1213,366.0456 Q648.7463,366.0456 649.34,365.78 Q649.9338,365.4988 650.5588,364.9206 L650.5588,367.6394 Z " fill="#000000"/><a href="file:////home/runner/work/BO4E-python/BO4E-python/docs/../.tox/docs/tmp/html/api/bo4e.com.html#bo4e.com.preisgarantie.Preisgarantie" target="_top" title="file:////home/runner/work/BO4E-python/BO4E-python/docs/../.tox/docs/tmp/html/api/bo4e.com.html#bo4e.com.preisgarantie.Preisgarantie" xlink:actuate="onRequest" xlink:href="file:////home/runner/work/BO4E-python/BO4E-python/docs/../.tox/docs/tmp/html/api/bo4e.com.html#bo4e.com.preisgarantie.Preisgarantie" xlink:show="new" xlink:title="file:////home/runner/work/BO4E-python/BO4E-python/docs/../.tox/docs/tmp/html/api/bo4e.com.html#bo4e.com.preisgarantie.Preisgarantie" xlink:type="simple"><text fill="#0000FF" font-family="sans-serif" font-size="14" lengthAdjust="spacing" text-decoration="underline" textLength="92.6611" x="674.859" y="361.0251">Preisgarantie</text></a><text fill="#000000" font-family="sans-serif" font-size="10" lengthAdjust="spacing" textLength="119.1992" x="661.59" y="373.6091">bo4e.com.preisgarantie</text></g><!--class Tarifberechnungsparameter--><g class="entity" data-entity="Tarifberechnungsparameter" data-source-line="17" data-uid="ent0010" id="entity_Tarifberechnungsparameter"><rect fill="#F1F1F1" height="37.9375" rx="2.5" ry="2.5" style="stroke:#181818;stroke-width:0.5;" width="228.8545" x="593.76" y="416.03"/><ellipse cx="608.76" cy="434.9988" fill="#ADD1B2" rx="11" ry="11" style="stroke:#181818;stroke-width:1;"/><path d="M611.7288,440.6394 Q611.1506,440.9363 610.51,441.0769 Q609.8694,441.2331 609.1663,441.2331 Q606.6663,441.2331 605.3381,439.5925 Q604.0256,437.9363 604.0256,434.8113 Q604.0256,431.6863 605.3381,430.03 Q606.6663,428.3738 609.1663,428.3738 Q609.8694,428.3738 610.51,428.53 Q611.1663,428.6863 611.7288,428.9831 L611.7288,431.7019 Q611.1038,431.1238 610.51,430.8581 Q609.9163,430.5769 609.2913,430.5769 Q607.9475,430.5769 607.26,431.655 Q606.5725,432.7175 606.5725,434.8113 Q606.5725,436.905 607.26,437.9831 Q607.9475,439.0456 609.2913,439.0456 Q609.9163,439.0456 610.51,438.78 Q611.1038,438.4988 611.7288,437.9206 L611.7288,440.6394 Z " fill="#000000"/><a href="file:////home/runner/work/BO4E-python/BO4E-python/docs/../.tox/docs/tmp/html/api/bo4e.com.html#bo4e.com.tarifberechnungsparameter.Tarifberechnungsparameter" target="_top" title="file:////home/runner/work/BO4E-python/BO4E-python/docs/../.tox/docs/tmp/html/api/bo4e.com.html#bo4e.com.tarifberechnungsparameter.Tarifberechnungsparameter" xlink:actuate="onRequest" xlink:href="file:////home/runner/work/BO4E-python/BO4E-python/docs/../.tox/docs/tmp/html/api/bo4e.com.html#bo4e.com.tarifberechnungsparameter.Tarifberechnungsparameter" xlink:show="new" xlink:title="file:////home/runner/work/BO4E-python/BO4E-python/docs/../.tox/docs/tmp/html/api/bo4e.com.html#bo4e.com.tarifberechnungsparameter.Tarifberechnungsparameter" xlink:type="simple"><text fill="#0000FF" font-family="sans-serif" font-size="14" lengthAdjust="spacing" text-decoration="underline" textLength="196.8545" x="622.76" y="434.0251">Tarifberechnungsparameter</text></a><text fill="#000000" font-family="sans-serif" font-size="10" lengthAdjust="spacing" textLength="191.1182" x="625.6282" y="446.6091">bo4e.com.tarifberechnungsparameter</text></g><!--class TarifpreispositionProOrt--><g class="entity" data-entity="TarifpreispositionProOrt" data-source-line="18" data-uid="ent0011" id="entity_TarifpreispositionProOrt"><rect fill="#F1F1F1" height="37.9375" rx="2.5" ry="2.5" style="stroke:#181818;stroke-width:0.5;" width="200.0908" x="608.15" y="489.03"/><ellipse cx="623.15" cy="507.9988" fill="#ADD1B2" rx="11" ry="11" style="stroke:#181818;stroke-width:1;"/><path d="M626.1188,513.6394 Q625.5406,513.9363 624.9,514.0769 Q624.2594,514.2331 623.5563,514.2331 Q621.0563,514.2331 619.7281,512.5925 Q618.4156,510.9363 618.4156,507.8113 Q618.4156,504.6863 619.7281,503.03 Q621.0563,501.3738 623.5563,501.3738 Q624.2594,501.3738 624.9,501.53 Q625.5563,501.6863 626.1188,501.9831 L626.1188,504.7019 Q625.4938,504.1238 624.9,503.8581 Q624.3063,503.5769 623.6813,503.5769 Q622.3375,503.5769 621.65,504.655 Q620.9625,505.7175 620.9625,507.8113 Q620.9625,509.905 621.65,510.9831 Q622.3375,512.0456 623.6813,512.0456 Q624.3063,512.0456 624.9,511.78 Q625.4938,511.4988 626.1188,510.9206 L626.1188,513.6394 Z " fill="#000000"/><a href="file:////home/runner/work/BO4E-python/BO4E-python/docs/../.tox/docs/tmp/html/api/bo4e.com.html#bo4e.com.tarifpreispositionproort.TarifpreispositionProOrt" target="_top" title="file:////home/runner/work/BO4E-python/BO4E-python/docs/../.tox/docs/tmp/html/api/bo4e.com.html#bo4e.com.tarifpreispositionproort.TarifpreispositionProOrt" xlink:actuate="onRequest" xlink:href="file:////home/runner/work/BO4E-python/BO4E-python/docs/../.tox/docs/tmp/html/api/bo4e.com.html#bo4e.com.tarifpreispositionproort.TarifpreispositionProOrt" xlink:show="new" xlink:title="file:////home/runner/work/BO4E-python/BO4E-python/docs/../.tox/docs/tmp/html/api/bo4e.com.html#bo4e.com.tarifpreispositionproort.TarifpreispositionProOrt" xlink:type="simple"><text fill="#0000FF" font-family="sans-serif" font-size="14" lengthAdjust="spacing" text-decoration="underline" textLength="166.626" x="637.8824" y="507.0251">TarifpreispositionProOrt</text></a><text fill="#000000" font-family="sans-serif" font-size="10" lengthAdjust="spacing" textLength="168.0908" x="637.15" y="519.6091">bo4e.com.tarifpreispositionproort</text></g><!--class Tarif--><g class="entity" data-entity="Tarif" data-source-line="3" data-uid="ent0002" id="entity_Tarif"><rect fill="#F1F1F1" height="111.125" rx="2.5" ry="2.5" style="stroke:#181818;stroke-width:0.5;" width="345.7646" x="7" y="274.44"/><ellipse cx="143.501" cy="293.4088" fill="#ADD1B2" rx="11" ry="11" style="stroke:#181818;stroke-width:1;"/><path d="M146.4697,299.0494 Q145.8916,299.3463 145.251,299.4869 Q144.6104,299.6431 143.9072,299.6431 Q141.4072,299.6431 140.0791,298.0025 Q138.7666,296.3463 138.7666,293.2213 Q138.7666,290.0963 140.0791,288.44 Q141.4072,286.7838 143.9072,286.7838 Q144.6104,286.7838 145.251,286.94 Q145.9072,287.0963 146.4697,287.3931 L146.4697,290.1119 Q145.8447,289.5338 145.251,289.2681 Q144.6572,288.9869 144.0322,288.9869 Q142.6885,288.9869 142.001,290.065 Q141.3135,291.1275 141.3135,293.2213 Q141.3135,295.315 142.001,296.3931 Q142.6885,297.4556 144.0322,297.4556 Q144.6572,297.4556 145.251,297.19 Q145.8447,296.9088 146.4697,296.3306 L146.4697,299.0494 Z " fill="#000000"/><a href="file:////home/runner/work/BO4E-python/BO4E-python/docs/../.tox/docs/tmp/html/api/bo4e.bo.html#bo4e.bo.tarif.Tarif" target="_top" title="file:////home/runner/work/BO4E-python/BO4E-python/docs/../.tox/docs/tmp/html/api/bo4e.bo.html#bo4e.bo.tarif.Tarif" xlink:actuate="onRequest" xlink:href="file:////home/runner/work/BO4E-python/BO4E-python/docs/../.tox/docs/tmp/html/api/bo4e.bo.html#bo4e.bo.tarif.Tarif" xlink:show="new" xlink:title="file:////home/runner/work/BO4E-python/BO4E-python/docs/../.tox/docs/tmp/html/api/bo4e.bo.html#bo4e.bo.tarif.Tarif" xlink:type="simple"><text fill="#0000FF" font-family="sans-serif" font-size="14" lengthAdjust="spacing" text-decoration="underline" textLength="31.7051" x="180.2798" y="292.4351">Tarif</text></a><text fill="#000000" font-family="sans-serif" font-size="10" lengthAdjust="spacing" textLength="64.2627" x="164.001" y="305.0191">bo4e.bo.tarif</text><line style="stroke:#181818;stroke-width:0.5;" x1="8" x2="351.7646" y1="312.3775" y2="312.3775"/><text fill="#000000" font-family="sans-serif" font-size="14" lengthAdjust="spacing" textLength="333.7646" x="13" y="329.3726">_version : str [0..1] = 202501.0.0+g5a3185351</text><text fill="#000000" font-family="sans-serif" font-size="14" lengthAdjust="spacing" textLength="318.5752" x="13" y="345.6695">zusatzAttribute : ZusatzAttribut [0..*] = None</text><text fill="#000000" font-family="sans-serif" font-size="14" lengthAdjust="spacing" textLength="151.1768" x="13" y="361.9664">_id : str [0..1] = None</text><text fill="#000000" font-family="sans-serif" font-size="14" lengthAdjust="spacing" textLength="295.4902" x="13" y="378.2632">preisstand : AwareDatetime [0..1] = None</text></g><!--link Tarif to Tarifinfo--><g class="link" data-entity-1="Tarif" data-entity-2="Tarifinfo" data-source-line="21" data-uid="lnk12" id="link_Tarif_Tarifinfo"><path codeLine="21" d="M280.21,273.98 C312.47,256.7 348.73,238.23 382.76,223 C474.44,181.97 567.7255,149.0276 633.2355,127.1676" fill="none" id="Tarif-to-Tarifinfo" style="stroke:#181818;stroke-width:1;"/><polygon fill="none" points="650.31,121.47,631.3363,121.4761,635.1347,132.8591,650.31,121.47" style="stroke:#181818;stroke-width:1;"/></g><!--link Tarif to Tarifberechnungsparameter--><g class="link" data-entity-1="Tarif" data-entity-2="Tarifberechnungsparameter" data-source-line="22" data-uid="lnk13" id="link_Tarif_Tarifberechnungsparameter"><path codeLine="22" d="M353.2,378.33 C363.17,380.7 373.08,382.94 382.76,385 C452.3,399.78 519.2237,410.3819 581.7537,419.0519" fill="none" id="Tarif-to-Tarifberechnungsparameter" style="stroke:#181818;stroke-width:1;"/><polygon fill="#181818" points="593.64,420.7,588.2462,415.9139,581.7537,419.0519,587.1475,423.8381,593.64,420.7" style="stroke:#181818;stroke-width:1;"/><text fill="#000000" font-family="sans-serif" font-size="13" lengthAdjust="spacing" textLength="153.353" x="383.76" y="381.0669">berechnungsparameter</text><text fill="#000000" font-family="sans-serif" font-size="13" lengthAdjust="spacing" textLength="24.8066" x="560.7705" y="432.2935">0..1</text></g><!--link Tarif to TarifpreispositionProOrt--><g class="link" data-entity-1="Tarif" data-entity-2="TarifpreispositionProOrt" data-source-line="23" data-uid="lnk14" id="link_Tarif_TarifpreispositionProOrt"><path codeLine="23" d="M273.68,385.98 C307.15,404.32 345.8,423.45 382.76,437 C456.12,463.89 530.8853,480.1661 596.1453,491.4461" fill="none" id="Tarif-to-TarifpreispositionProOrt" style="stroke:#181818;stroke-width:1;"/><polygon fill="#181818" points="607.97,493.49,602.739,488.5265,596.1453,491.4461,601.3764,496.4096,607.97,493.49" style="stroke:#181818;stroke-width:1;"/><text fill="#000000" font-family="sans-serif" font-size="13" lengthAdjust="spacing" textLength="66.5742" x="427.26" y="433.0669">tarifpreise</text><text fill="#000000" font-family="sans-serif" font-size="13" lengthAdjust="spacing" textLength="23.0356" x="577.1156" y="505.0688">0..*</text></g><!--link Tarif to AufAbschlagRegional--><g class="link" data-entity-1="Tarif" data-entity-2="AufAbschlagRegional" data-source-line="24" data-uid="lnk15" id="link_Tarif_AufAbschlagRegional"><path codeLine="24" d="M353.06,284.87 C363.1,282.49 373.05,280.18 382.76,278 C460.68,260.54 538.0092,245.8524 603.1192,234.1524" fill="none" id="Tarif-to-AufAbschlagRegional" style="stroke:#181818;stroke-width:1;"/><polygon fill="#181818" points="614.93,232.03,608.3171,229.1542,603.1192,234.1524,609.732,237.0281,614.93,232.03" style="stroke:#181818;stroke-width:1;"/><text fill="#000000" font-family="sans-serif" font-size="13" lengthAdjust="spacing" textLength="123.4365" x="398.76" y="244.0669">tarifAufAbschlaege</text><text fill="#000000" font-family="sans-serif" font-size="13" lengthAdjust="spacing" textLength="23.0356" x="583.9103" y="245.9036">0..*</text></g><!--link Tarif to Preisgarantie--><g class="link" data-entity-1="Tarif" data-entity-2="Preisgarantie" data-source-line="25" data-uid="lnk16" id="link_Tarif_Preisgarantie"><path codeLine="25" d="M353.15,350.63 C363.16,351.51 373.09,352.32 382.76,353 C468.2,359.04 554.5506,360.9597 620.3706,361.6197" fill="none" id="Tarif-to-Preisgarantie" style="stroke:#181818;stroke-width:1;"/><polygon fill="#181818" points="632.37,361.74,626.4104,357.68,620.3706,361.6197,626.3302,365.6796,632.37,361.74" style="stroke:#181818;stroke-width:1;"/><text fill="#000000" font-family="sans-serif" font-size="13" lengthAdjust="spacing" textLength="86.4551" x="417.26" y="349.0669">preisgarantie</text><text fill="#000000" font-family="sans-serif" font-size="13" lengthAdjust="spacing" textLength="24.8066" x="599.765" y="374.5262">0..1</text></g><!--link Tarif to Tarifeinschraenkung--><g class="link" data-entity-1="Tarif" data-entity-2="Tarifeinschraenkung" data-source-line="26" data-uid="lnk17" id="link_Tarif_Tarifeinschraenkung"><path codeLine="26" d="M353.22,316.58 C440.61,309.77 531.2662,302.7015 603.4462,297.0815" fill="none" id="Tarif-to-Tarifeinschraenkung" style="stroke:#181818;stroke-width:1;"/><polygon fill="#181818" points="615.41,296.15,609.1176,292.6278,603.4462,297.0815,609.7386,300.6037,615.41,296.15" style="stroke:#181818;stroke-width:1;"/><text fill="#000000" font-family="sans-serif" font-size="13" lengthAdjust="spacing" textLength="130.4126" x="395.26" y="299.0669">tarifeinschraenkung</text><text fill="#000000" font-family="sans-serif" font-size="13" lengthAdjust="spacing" textLength="24.8066" x="582.7658" y="309.4357">0..1</text></g><!--SRC=[nLLDRzim33tNlu98RXaYEstJ1SPMm5rxNOjXfsN6e3YqBTIM34bUjgpxxvC_4iUUaftM-228VDAp-2YH6SOQj039abJ3cacCD1FSSQACAWMZvJ9c6Vgk-LAHeojBpb6w6o6VtRl7wuTfyLEdWlVcQn4fbn2NQF6ZCNHUkAdECvSMp5s9QoGhGIh7U6TeAbbCFbSZr6COVkNl5DkYF_DkUwj6G5Mp1duv5z- -erJcnE23qXAM7Y6p4Dx3fNSvzsR48zwRP4wlPelvrNpcN6nBHVKsq5goLQdHxFhIyzG4auhWe-1ewDbwoDm0XKIcbAQymeCDbNXFDMgMus3bRyVXD4TLq0Z_kvxG6c5OgzHQCBwxkNyRB2gzpf5NncFHvBQQmNvsFCSLskMvieoEho1Z9F837OrrAAGnOVpW1OkR3w-WvEueuxr5ovYkL9HcD96Oc3jFCnAKST3wFhK-iFZ-Lle8OHsjXU0CuTON0Hat1v4K-NF9a-OIzNrWyTd3jH1sTwplFqEuTK59gAHSCoHFXnRqB7jmlUrrMBrDvyhV2ar7IRcHrBnSQHwmHjbaqOR0KUH4HctBkxpQq7E9KUUe48fLBRQGGaZTQD43dgHub1gE0IUKiF1tGbYegjxKzjpfzELsrowwKhr33Jo1KTNMHljIU2ABFbXL7v9DXcGs6NpeGiEJ5BPIsExk84pmP53zT-T3xrdzMuv1QMf_FwWjJihM23dcHYNbg5Hie2ME6MPhzGS0]--></g></svg>