<?xml version="1.0" encoding="us-ascii" standalone="no"?><svg xmlns="http://www.w3.org/2000/svg" xmlns:xlink="http://www.w3.org/1999/xlink" contentStyleType="text/css" height="687px" preserveAspectRatio="none" style="width:891px;height:687px;background:#FFFFFF;" version="1.1" viewBox="0 0 891 687" width="891px" zoomAndPan="magnify"><defs/><g><!--cluster bo4e--><g id="cluster_bo4e"><path d="M581.5,6 L622.5,6 A3.75,3.75 0 0 1 625,8.5 L632,28.2969 L881.5,28.2969 A2.5,2.5 0 0 1 884,30.7969 L884,677.5 A2.5,2.5 0 0 1 881.5,680 L581.5,680 A2.5,2.5 0 0 1 579,677.5 L579,8.5 A2.5,2.5 0 0 1 581.5,6 " fill="none" style="stroke:#000000;stroke-width:1.5;"/><line style="stroke:#000000;stroke-width:1.5;" x1="579" x2="632" y1="28.2969" y2="28.2969"/><text fill="#000000" font-family="sans-serif" font-size="14" font-weight="bold" lengthAdjust="spacing" textLength="40" x="583" y="20.9951">bo4e</text></g><!--cluster bo--><g id="cluster_bo"><path d="M662,49 L728,49 A3.75,3.75 0 0 1 730.5,51.5 L737.5,71.2969 L801,71.2969 A2.5,2.5 0 0 1 803.5,73.7969 L803.5,135.5 A2.5,2.5 0 0 1 801,138 L662,138 A2.5,2.5 0 0 1 659.5,135.5 L659.5,51.5 A2.5,2.5 0 0 1 662,49 " fill="#B6D7A8" style="stroke:#000000;stroke-width:1.5;"/><line style="stroke:#000000;stroke-width:1.5;" x1="659.5" x2="737.5" y1="71.2969" y2="71.2969"/><a href="https://bo4e.github.io/BO4E-python/latest/api/bo4e.bo.html" target="_top" title="https://bo4e.github.io/BO4E-python/latest/api/bo4e.bo.html" xlink:actuate="onRequest" xlink:href="https://bo4e.github.io/BO4E-python/latest/api/bo4e.bo.html" xlink:show="new" xlink:title="https://bo4e.github.io/BO4E-python/latest/api/bo4e.bo.html" xlink:type="simple"><text fill="#0000FF" font-family="sans-serif" font-size="14" font-weight="bold" lengthAdjust="spacing" text-decoration="underline" textLength="65" x="663.5" y="63.9951">bo4e.bo</text></a></g><!--cluster com--><g id="cluster_com"><path d="M605.5,162 L684.5,162 A3.75,3.75 0 0 1 687,164.5 L694,184.2969 L857.5,184.2969 A2.5,2.5 0 0 1 860,186.7969 L860,540.5 A2.5,2.5 0 0 1 857.5,543 L605.5,543 A2.5,2.5 0 0 1 603,540.5 L603,164.5 A2.5,2.5 0 0 1 605.5,162 " fill="#E0A86C" style="stroke:#000000;stroke-width:1.5;"/><line style="stroke:#000000;stroke-width:1.5;" x1="603" x2="694" y1="184.2969" y2="184.2969"/><a href="https://bo4e.github.io/BO4E-python/latest/api/bo4e.com.html" target="_top" title="https://bo4e.github.io/BO4E-python/latest/api/bo4e.com.html" xlink:actuate="onRequest" xlink:href="https://bo4e.github.io/BO4E-python/latest/api/bo4e.com.html" xlink:show="new" xlink:title="https://bo4e.github.io/BO4E-python/latest/api/bo4e.com.html" xlink:type="simple"><text fill="#0000FF" font-family="sans-serif" font-size="14" font-weight="bold" lengthAdjust="spacing" text-decoration="underline" textLength="78" x="607" y="176.9951">bo4e.com</text></a></g><!--cluster enum--><g id="cluster_enum"><path d="M665,567 L755,567 A3.75,3.75 0 0 1 757.5,569.5 L764.5,589.2969 L798,589.2969 A2.5,2.5 0 0 1 800.5,591.7969 L800.5,653.5 A2.5,2.5 0 0 1 798,656 L665,656 A2.5,2.5 0 0 1 662.5,653.5 L662.5,569.5 A2.5,2.5 0 0 1 665,567 " fill="#D1C358" style="stroke:#000000;stroke-width:1.5;"/><line style="stroke:#000000;stroke-width:1.5;" x1="662.5" x2="764.5" y1="589.2969" y2="589.2969"/><a href="https://bo4e.github.io/BO4E-python/latest/api/bo4e.enum.html" target="_top" title="https://bo4e.github.io/BO4E-python/latest/api/bo4e.enum.html" xlink:actuate="onRequest" xlink:href="https://bo4e.github.io/BO4E-python/latest/api/bo4e.enum.html" xlink:show="new" xlink:title="https://bo4e.github.io/BO4E-python/latest/api/bo4e.enum.html" xlink:type="simple"><text fill="#0000FF" font-family="sans-serif" font-size="14" font-weight="bold" lengthAdjust="spacing" text-decoration="underline" textLength="89" x="666.5" y="581.9951">bo4e.enum</text></a></g><!--class Tarifinfo--><g id="elem_Tarifinfo"><rect codeLine="11" fill="#F1F1F1" height="37.9375" id="Tarifinfo" rx="2.5" ry="2.5" style="stroke:#181818;stroke-width:0.5;" width="112" x="675.5" y="84.03"/><ellipse cx="690.5" cy="102.9987" fill="#ADD1B2" rx="11" ry="11" style="stroke:#181818;stroke-width:1.0;"/><path d="M693.4688,108.6394 Q692.8906,108.9362 692.25,109.0769 Q691.6094,109.2331 690.9063,109.2331 Q688.4063,109.2331 687.0781,107.5925 Q685.7656,105.9362 685.7656,102.8112 Q685.7656,99.6862 687.0781,98.03 Q688.4063,96.3737 690.9063,96.3737 Q691.6094,96.3737 692.25,96.53 Q692.9063,96.6862 693.4688,96.9831 L693.4688,99.7019 Q692.8438,99.1237 692.25,98.8581 Q691.6563,98.5769 691.0313,98.5769 Q689.6875,98.5769 689,99.655 Q688.3125,100.7175 688.3125,102.8112 Q688.3125,104.905 689,105.9831 Q689.6875,107.0456 691.0313,107.0456 Q691.6563,107.0456 692.25,106.78 Q692.8438,106.4987 693.4688,105.9206 L693.4688,108.6394 Z " fill="#000000"/><a href="https://bo4e.github.io/BO4E-python/latest/api/bo4e.bo.html#bo4e.bo.tarifinfo.Tarifinfo" target="_top" title="https://bo4e.github.io/BO4E-python/latest/api/bo4e.bo.html#bo4e.bo.tarifinfo.Tarifinfo" xlink:actuate="onRequest" xlink:href="https://bo4e.github.io/BO4E-python/latest/api/bo4e.bo.html#bo4e.bo.tarifinfo.Tarifinfo" xlink:show="new" xlink:title="https://bo4e.github.io/BO4E-python/latest/api/bo4e.bo.html#bo4e.bo.tarifinfo.Tarifinfo" xlink:type="simple"><text fill="#0000FF" font-family="sans-serif" font-size="14" lengthAdjust="spacing" text-decoration="underline" textLength="54" x="717.5" y="102.0251">Tarifinfo</text></a><text fill="#000000" font-family="sans-serif" font-size="10" lengthAdjust="spacing" textLength="80" x="704.5" y="114.6091">bo4e.bo.tarifinfo</text></g><!--class AufAbschlagRegional--><g id="elem_AufAbschlagRegional"><rect codeLine="14" fill="#F1F1F1" height="37.9375" id="AufAbschlagRegional" rx="2.5" ry="2.5" style="stroke:#181818;stroke-width:0.5;" width="179" x="642" y="197.03"/><ellipse cx="657" cy="215.9987" fill="#ADD1B2" rx="11" ry="11" style="stroke:#181818;stroke-width:1.0;"/><path d="M659.9688,221.6394 Q659.3906,221.9362 658.75,222.0769 Q658.1094,222.2331 657.4063,222.2331 Q654.9063,222.2331 653.5781,220.5925 Q652.2656,218.9362 652.2656,215.8112 Q652.2656,212.6862 653.5781,211.03 Q654.9063,209.3737 657.4063,209.3737 Q658.1094,209.3737 658.75,209.53 Q659.4063,209.6862 659.9688,209.9831 L659.9688,212.7019 Q659.3438,212.1237 658.75,211.8581 Q658.1563,211.5769 657.5313,211.5769 Q656.1875,211.5769 655.5,212.655 Q654.8125,213.7175 654.8125,215.8112 Q654.8125,217.905 655.5,218.9831 Q656.1875,220.0456 657.5313,220.0456 Q658.1563,220.0456 658.75,219.78 Q659.3438,219.4987 659.9688,218.9206 L659.9688,221.6394 Z " fill="#000000"/><a href="https://bo4e.github.io/BO4E-python/latest/api/bo4e.com.html#bo4e.com.aufabschlagregional.AufAbschlagRegional" target="_top" title="https://bo4e.github.io/BO4E-python/latest/api/bo4e.com.html#bo4e.com.aufabschlagregional.AufAbschlagRegional" xlink:actuate="onRequest" xlink:href="https://bo4e.github.io/BO4E-python/latest/api/bo4e.com.html#bo4e.com.aufabschlagregional.AufAbschlagRegional" xlink:show="new" xlink:title="https://bo4e.github.io/BO4E-python/latest/api/bo4e.com.html#bo4e.com.aufabschlagregional.AufAbschlagRegional" xlink:type="simple"><text fill="#0000FF" font-family="sans-serif" font-size="14" lengthAdjust="spacing" text-decoration="underline" textLength="145" x="672" y="215.0251">AufAbschlagRegional</text></a><text fill="#000000" font-family="sans-serif" font-size="10" lengthAdjust="spacing" textLength="147" x="671" y="227.6091">bo4e.com.aufabschlagregional</text></g><!--class Tarifberechnungsparameter--><g id="elem_Tarifberechnungsparameter"><rect codeLine="15" fill="#F1F1F1" height="37.9375" id="Tarifberechnungsparameter" rx="2.5" ry="2.5" style="stroke:#181818;stroke-width:0.5;" width="225" x="619" y="270.03"/><ellipse cx="634" cy="288.9988" fill="#ADD1B2" rx="11" ry="11" style="stroke:#181818;stroke-width:1.0;"/><path d="M636.9688,294.6394 Q636.3906,294.9363 635.75,295.0769 Q635.1094,295.2331 634.4063,295.2331 Q631.9063,295.2331 630.5781,293.5925 Q629.2656,291.9363 629.2656,288.8113 Q629.2656,285.6863 630.5781,284.03 Q631.9063,282.3738 634.4063,282.3738 Q635.1094,282.3738 635.75,282.53 Q636.4063,282.6863 636.9688,282.9831 L636.9688,285.7019 Q636.3438,285.1238 635.75,284.8581 Q635.1563,284.5769 634.5313,284.5769 Q633.1875,284.5769 632.5,285.655 Q631.8125,286.7175 631.8125,288.8113 Q631.8125,290.905 632.5,291.9831 Q633.1875,293.0456 634.5313,293.0456 Q635.1563,293.0456 635.75,292.78 Q636.3438,292.4988 636.9688,291.9206 L636.9688,294.6394 Z " fill="#000000"/><a href="https://bo4e.github.io/BO4E-python/latest/api/bo4e.com.html#bo4e.com.tarifberechnungsparameter.Tarifberechnungsparameter" target="_top" title="https://bo4e.github.io/BO4E-python/latest/api/bo4e.com.html#bo4e.com.tarifberechnungsparameter.Tarifberechnungsparameter" xlink:actuate="onRequest" xlink:href="https://bo4e.github.io/BO4E-python/latest/api/bo4e.com.html#bo4e.com.tarifberechnungsparameter.Tarifberechnungsparameter" xlink:show="new" xlink:title="https://bo4e.github.io/BO4E-python/latest/api/bo4e.com.html#bo4e.com.tarifberechnungsparameter.Tarifberechnungsparameter" xlink:type="simple"><text fill="#0000FF" font-family="sans-serif" font-size="14" lengthAdjust="spacing" text-decoration="underline" textLength="193" x="648" y="288.0251">Tarifberechnungsparameter</text></a><text fill="#000000" font-family="sans-serif" font-size="10" lengthAdjust="spacing" textLength="185" x="652" y="300.6091">bo4e.com.tarifberechnungsparameter</text></g><!--class Tarifeinschraenkung--><g id="elem_Tarifeinschraenkung"><rect codeLine="16" fill="#F1F1F1" height="37.9375" id="Tarifeinschraenkung" rx="2.5" ry="2.5" style="stroke:#181818;stroke-width:0.5;" width="178" x="642.5" y="343.03"/><ellipse cx="657.5" cy="361.9988" fill="#ADD1B2" rx="11" ry="11" style="stroke:#181818;stroke-width:1.0;"/><path d="M660.4688,367.6394 Q659.8906,367.9363 659.25,368.0769 Q658.6094,368.2331 657.9063,368.2331 Q655.4063,368.2331 654.0781,366.5925 Q652.7656,364.9363 652.7656,361.8113 Q652.7656,358.6863 654.0781,357.03 Q655.4063,355.3738 657.9063,355.3738 Q658.6094,355.3738 659.25,355.53 Q659.9063,355.6863 660.4688,355.9831 L660.4688,358.7019 Q659.8438,358.1238 659.25,357.8581 Q658.6563,357.5769 658.0313,357.5769 Q656.6875,357.5769 656,358.655 Q655.3125,359.7175 655.3125,361.8113 Q655.3125,363.905 656,364.9831 Q656.6875,366.0456 658.0313,366.0456 Q658.6563,366.0456 659.25,365.78 Q659.8438,365.4988 660.4688,364.9206 L660.4688,367.6394 Z " fill="#000000"/><a href="https://bo4e.github.io/BO4E-python/latest/api/bo4e.com.html#bo4e.com.tarifeinschraenkung.Tarifeinschraenkung" target="_top" title="https://bo4e.github.io/BO4E-python/latest/api/bo4e.com.html#bo4e.com.tarifeinschraenkung.Tarifeinschraenkung" xlink:actuate="onRequest" xlink:href="https://bo4e.github.io/BO4E-python/latest/api/bo4e.com.html#bo4e.com.tarifeinschraenkung.Tarifeinschraenkung" xlink:show="new" xlink:title="https://bo4e.github.io/BO4E-python/latest/api/bo4e.com.html#bo4e.com.tarifeinschraenkung.Tarifeinschraenkung" xlink:type="simple"><text fill="#0000FF" font-family="sans-serif" font-size="14" lengthAdjust="spacing" text-decoration="underline" textLength="141" x="674" y="361.0251">Tarifeinschraenkung</text></a><text fill="#000000" font-family="sans-serif" font-size="10" lengthAdjust="spacing" textLength="146" x="671.5" y="373.6091">bo4e.com.tarifeinschraenkung</text></g><!--class Preisgarantie--><g id="elem_Preisgarantie"><rect codeLine="17" fill="#F1F1F1" height="37.9375" id="Preisgarantie" rx="2.5" ry="2.5" style="stroke:#181818;stroke-width:0.5;" width="146" x="658.5" y="416.03"/><ellipse cx="673.5" cy="434.9988" fill="#ADD1B2" rx="11" ry="11" style="stroke:#181818;stroke-width:1.0;"/><path d="M676.4688,440.6394 Q675.8906,440.9363 675.25,441.0769 Q674.6094,441.2331 673.9063,441.2331 Q671.4063,441.2331 670.0781,439.5925 Q668.7656,437.9363 668.7656,434.8113 Q668.7656,431.6863 670.0781,430.03 Q671.4063,428.3738 673.9063,428.3738 Q674.6094,428.3738 675.25,428.53 Q675.9063,428.6863 676.4688,428.9831 L676.4688,431.7019 Q675.8438,431.1238 675.25,430.8581 Q674.6563,430.5769 674.0313,430.5769 Q672.6875,430.5769 672,431.655 Q671.3125,432.7175 671.3125,434.8113 Q671.3125,436.905 672,437.9831 Q672.6875,439.0456 674.0313,439.0456 Q674.6563,439.0456 675.25,438.78 Q675.8438,438.4988 676.4688,437.9206 L676.4688,440.6394 Z " fill="#000000"/><a href="https://bo4e.github.io/BO4E-python/latest/api/bo4e.com.html#bo4e.com.preisgarantie.Preisgarantie" target="_top" title="https://bo4e.github.io/BO4E-python/latest/api/bo4e.com.html#bo4e.com.preisgarantie.Preisgarantie" xlink:actuate="onRequest" xlink:href="https://bo4e.github.io/BO4E-python/latest/api/bo4e.com.html#bo4e.com.preisgarantie.Preisgarantie" xlink:show="new" xlink:title="https://bo4e.github.io/BO4E-python/latest/api/bo4e.com.html#bo4e.com.preisgarantie.Preisgarantie" xlink:type="simple"><text fill="#0000FF" font-family="sans-serif" font-size="14" lengthAdjust="spacing" text-decoration="underline" textLength="90" x="699.5" y="434.0251">Preisgarantie</text></a><text fill="#000000" font-family="sans-serif" font-size="10" lengthAdjust="spacing" textLength="114" x="687.5" y="446.6091">bo4e.com.preisgarantie</text></g><!--class TarifpreispositionProOrt--><g id="elem_TarifpreispositionProOrt"><rect codeLine="18" fill="#F1F1F1" height="37.9375" id="TarifpreispositionProOrt" rx="2.5" ry="2.5" style="stroke:#181818;stroke-width:0.5;" width="194" x="634.5" y="489.03"/><ellipse cx="649.5" cy="507.9988" fill="#ADD1B2" rx="11" ry="11" style="stroke:#181818;stroke-width:1.0;"/><path d="M652.4688,513.6394 Q651.8906,513.9363 651.25,514.0769 Q650.6094,514.2331 649.9063,514.2331 Q647.4063,514.2331 646.0781,512.5925 Q644.7656,510.9363 644.7656,507.8113 Q644.7656,504.6863 646.0781,503.03 Q647.4063,501.3738 649.9063,501.3738 Q650.6094,501.3738 651.25,501.53 Q651.9063,501.6863 652.4688,501.9831 L652.4688,504.7019 Q651.8438,504.1238 651.25,503.8581 Q650.6563,503.5769 650.0313,503.5769 Q648.6875,503.5769 648,504.655 Q647.3125,505.7175 647.3125,507.8113 Q647.3125,509.905 648,510.9831 Q648.6875,512.0456 650.0313,512.0456 Q650.6563,512.0456 651.25,511.78 Q651.8438,511.4988 652.4688,510.9206 L652.4688,513.6394 Z " fill="#000000"/><a href="https://bo4e.github.io/BO4E-python/latest/api/bo4e.com.html#bo4e.com.tarifpreispositionproort.TarifpreispositionProOrt" target="_top" title="https://bo4e.github.io/BO4E-python/latest/api/bo4e.com.html#bo4e.com.tarifpreispositionproort.TarifpreispositionProOrt" xlink:actuate="onRequest" xlink:href="https://bo4e.github.io/BO4E-python/latest/api/bo4e.com.html#bo4e.com.tarifpreispositionproort.TarifpreispositionProOrt" xlink:show="new" xlink:title="https://bo4e.github.io/BO4E-python/latest/api/bo4e.com.html#bo4e.com.tarifpreispositionproort.TarifpreispositionProOrt" xlink:type="simple"><text fill="#0000FF" font-family="sans-serif" font-size="14" lengthAdjust="spacing" text-decoration="underline" textLength="162" x="663.5" y="507.0251">TarifpreispositionProOrt</text></a><text fill="#000000" font-family="sans-serif" font-size="10" lengthAdjust="spacing" textLength="161" x="664" y="519.6091">bo4e.com.tarifpreispositionproort</text></g><!--class Typ--><g id="elem_Typ"><rect codeLine="21" fill="#F1F1F1" height="37.9375" id="Typ" rx="2.5" ry="2.5" style="stroke:#181818;stroke-width:0.5;" width="106" x="678.5" y="602.03"/><ellipse cx="693.5" cy="620.9988" fill="#ADD1B2" rx="11" ry="11" style="stroke:#181818;stroke-width:1.0;"/><path d="M696.4688,626.6394 Q695.8906,626.9363 695.25,627.0769 Q694.6094,627.2331 693.9063,627.2331 Q691.4063,627.2331 690.0781,625.5925 Q688.7656,623.9363 688.7656,620.8113 Q688.7656,617.6863 690.0781,616.03 Q691.4063,614.3738 693.9063,614.3738 Q694.6094,614.3738 695.25,614.53 Q695.9063,614.6863 696.4688,614.9831 L696.4688,617.7019 Q695.8438,617.1238 695.25,616.8581 Q694.6563,616.5769 694.0313,616.5769 Q692.6875,616.5769 692,617.655 Q691.3125,618.7175 691.3125,620.8113 Q691.3125,622.905 692,623.9831 Q692.6875,625.0456 694.0313,625.0456 Q694.6563,625.0456 695.25,624.78 Q695.8438,624.4988 696.4688,623.9206 L696.4688,626.6394 Z " fill="#000000"/><a href="https://bo4e.github.io/BO4E-python/latest/api/bo4e.enum.html#bo4e.enum.typ.Typ" target="_top" title="https://bo4e.github.io/BO4E-python/latest/api/bo4e.enum.html#bo4e.enum.typ.Typ" xlink:actuate="onRequest" xlink:href="https://bo4e.github.io/BO4E-python/latest/api/bo4e.enum.html#bo4e.enum.typ.Typ" xlink:show="new" xlink:title="https://bo4e.github.io/BO4E-python/latest/api/bo4e.enum.html#bo4e.enum.typ.Typ" xlink:type="simple"><text fill="#0000FF" font-family="sans-serif" font-size="14" lengthAdjust="spacing" text-decoration="underline" textLength="25" x="732" y="620.0251">Typ</text></a><text fill="#000000" font-family="sans-serif" font-size="10" lengthAdjust="spacing" textLength="74" x="707.5" y="632.6091">bo4e.enum.typ</text></g><!--class Tarif--><g id="elem_Tarif"><rect codeLine="3" fill="#F1F1F1" height="111.125" id="Tarif" rx="2.5" ry="2.5" style="stroke:#181818;stroke-width:0.5;" width="373" x="7" y="306.44"/><ellipse cx="158.25" cy="325.4088" fill="#ADD1B2" rx="11" ry="11" style="stroke:#181818;stroke-width:1.0;"/><path d="M161.2188,331.0494 Q160.6406,331.3463 160,331.4869 Q159.3594,331.6431 158.6563,331.6431 Q156.1563,331.6431 154.8281,330.0025 Q153.5156,328.3463 153.5156,325.2213 Q153.5156,322.0963 154.8281,320.44 Q156.1563,318.7838 158.6563,318.7838 Q159.3594,318.7838 160,318.94 Q160.6563,319.0963 161.2188,319.3931 L161.2188,322.1119 Q160.5938,321.5338 160,321.2681 Q159.4063,320.9869 158.7813,320.9869 Q157.4375,320.9869 156.75,322.065 Q156.0625,323.1275 156.0625,325.2213 Q156.0625,327.315 156.75,328.3931 Q157.4375,329.4556 158.7813,329.4556 Q159.4063,329.4556 160,329.19 Q160.5938,328.9088 161.2188,328.3306 L161.2188,331.0494 Z " fill="#000000"/><a href="https://bo4e.github.io/BO4E-python/latest/api/bo4e.bo.html#bo4e.bo.tarif.Tarif" target="_top" title="https://bo4e.github.io/BO4E-python/latest/api/bo4e.bo.html#bo4e.bo.tarif.Tarif" xlink:actuate="onRequest" xlink:href="https://bo4e.github.io/BO4E-python/latest/api/bo4e.bo.html#bo4e.bo.tarif.Tarif" xlink:show="new" xlink:title="https://bo4e.github.io/BO4E-python/latest/api/bo4e.bo.html#bo4e.bo.tarif.Tarif" xlink:type="simple"><text fill="#0000FF" font-family="sans-serif" font-size="14" lengthAdjust="spacing" text-decoration="underline" textLength="29" x="195.25" y="324.4351">Tarif</text></a><text fill="#000000" font-family="sans-serif" font-size="10" lengthAdjust="spacing" textLength="62" x="178.75" y="337.0191">bo4e.bo.tarif</text><line style="stroke:#181818;stroke-width:0.5;" x1="8" x2="379" y1="344.3775" y2="344.3775"/><text fill="#000000" font-family="sans-serif" font-size="14" lengthAdjust="spacing" textLength="361" x="13" y="361.3726">_version : str [0..1] = 202401.4.1.dev12+gcf38e0cb</text><text fill="#000000" font-family="sans-serif" font-size="14" lengthAdjust="spacing" textLength="311" x="13" y="377.6695">zusatzAttribute : ZusatzAttribut [0..*] = None</text><text fill="#000000" font-family="sans-serif" font-size="14" lengthAdjust="spacing" textLength="147" x="13" y="393.9664">_id : str [0..1] = None</text><text fill="#000000" font-family="sans-serif" font-size="14" lengthAdjust="spacing" textLength="288" x="13" y="410.2632">preisstand : AwareDatetime [0..1] = None</text></g><!--link Tarif to Tarifinfo--><g id="link_Tarif_Tarifinfo"><path codeLine="24" d="M275.77,305.95 C315.25,280.06 364.01,250.04 410,227 C499.88,181.97 593.2184,148.2063 658.1984,126.4863 " fill="none" id="Tarif-to-Tarifinfo" style="stroke:#181818;stroke-width:1.0;"/><polygon fill="none" points="675.27,120.78,656.2963,120.7958,660.1005,132.1768,675.27,120.78" style="stroke:#181818;stroke-width:1.0;"/></g><!--link Tarif to Typ--><g id="link_Tarif_Typ"><path codeLine="25" d="M274.09,418.06 C313.8,444.6 363.24,475.54 410,499 C501,544.65 602.0137,580.0529 666.6437,600.9829 " fill="none" id="Tarif-to-Typ" style="stroke:#181818;stroke-width:1.0;"/><polygon fill="#181818" points="678.06,604.68,673.5842,599.026,666.6437,600.9829,671.1195,606.6369,678.06,604.68" style="stroke:#181818;stroke-width:1.0;"/><text fill="#000000" font-family="sans-serif" font-size="13" lengthAdjust="spacing" textLength="27" x="473" y="495.0669">_typ</text><text fill="#000000" font-family="sans-serif" font-size="13" lengthAdjust="spacing" textLength="24" x="646.4935" y="615.7349">0..1</text></g><!--link Tarif to Tarifberechnungsparameter--><g id="link_Tarif_Tarifberechnungsparameter"><path codeLine="26" d="M380.46,336.67 C459.83,325.86 537.9398,315.2297 606.7998,305.8497 " fill="none" id="Tarif-to-Tarifberechnungsparameter" style="stroke:#181818;stroke-width:1.0;"/><polygon fill="#181818" points="618.69,304.23,612.205,301.0764,606.7998,305.8497,613.2848,309.0032,618.69,304.23" style="stroke:#181818;stroke-width:1.0;"/><text fill="#000000" font-family="sans-serif" font-size="13" lengthAdjust="spacing" textLength="151" x="411" y="309.0669">berechnungsparameter</text><text fill="#000000" font-family="sans-serif" font-size="13" lengthAdjust="spacing" textLength="24" x="587.0844" y="317.6861">0..1</text></g><!--link Tarif to TarifpreispositionProOrt--><g id="link_Tarif_TarifpreispositionProOrt"><path codeLine="27" d="M348.31,417.97 C368.93,424.76 389.9,431.3 410,437 C484.43,458.12 558.2765,474.4293 622.2865,487.3293 " fill="none" id="Tarif-to-TarifpreispositionProOrt" style="stroke:#181818;stroke-width:1.0;"/><polygon fill="#181818" points="634.05,489.7,628.9585,484.5935,622.2865,487.3293,627.378,492.4358,634.05,489.7" style="stroke:#181818;stroke-width:1.0;"/><text fill="#000000" font-family="sans-serif" font-size="13" lengthAdjust="spacing" textLength="64" x="454.5" y="433.0669">tarifpreise</text><text fill="#000000" font-family="sans-serif" font-size="13" lengthAdjust="spacing" textLength="23" x="603.3895" y="501.0123">0..*</text></g><!--link Tarif to AufAbschlagRegional--><g id="link_Tarif_AufAbschlagRegional"><path codeLine="28" d="M350.99,306.02 C370.76,299.62 390.78,293.44 410,288 C487.51,266.06 565.3026,248.8106 630.0026,235.6006 " fill="none" id="Tarif-to-AufAbschlagRegional" style="stroke:#181818;stroke-width:1.0;"/><polygon fill="#181818" points="641.76,233.2,635.0811,230.4811,630.0026,235.6006,636.6815,238.3194,641.76,233.2" style="stroke:#181818;stroke-width:1.0;"/><text fill="#000000" font-family="sans-serif" font-size="13" lengthAdjust="spacing" textLength="120" x="426.5" y="248.0669">tarifAufAbschlaege</text><text fill="#000000" font-family="sans-serif" font-size="13" lengthAdjust="spacing" textLength="23" x="611.0088" y="247.1632">0..*</text></g><!--link Tarif to Preisgarantie--><g id="link_Tarif_Preisgarantie"><path codeLine="29" d="M380.46,387.33 C476.16,400.36 575.4098,413.8807 646.3398,423.5407 " fill="none" id="Tarif-to-Preisgarantie" style="stroke:#181818;stroke-width:1.0;"/><polygon fill="#181818" points="658.23,425.16,652.8247,420.3869,646.3398,423.5407,651.7451,428.3137,658.23,425.16" style="stroke:#181818;stroke-width:1.0;"/><text fill="#000000" font-family="sans-serif" font-size="13" lengthAdjust="spacing" textLength="84" x="444.5" y="388.0669">preisgarantie</text><text fill="#000000" font-family="sans-serif" font-size="13" lengthAdjust="spacing" textLength="24" x="626.3692" y="437.0174">0..1</text></g><!--link Tarif to Tarifeinschraenkung--><g id="link_Tarif_Tarifeinschraenkung"><path codeLine="30" d="M380.46,362 C469.21,362 559.23,362 630.15,362 " fill="none" id="Tarif-to-Tarifeinschraenkung" style="stroke:#181818;stroke-width:1.0;"/><polygon fill="#181818" points="642.15,362,636.15,358,630.15,362,636.15,366,642.15,362" style="stroke:#181818;stroke-width:1.0;"/><text fill="#000000" font-family="sans-serif" font-size="13" lengthAdjust="spacing" textLength="126" x="423.5" y="358.0669">tarifeinschraenkung</text><text fill="#000000" font-family="sans-serif" font-size="13" lengthAdjust="spacing" textLength="24" x="610.3904" y="374.6463">0..1</text></g><!--SRC=[jLLHRvim47ukl-8KtZA5a3Jh8hHLecjVrshgqxAeCd20DM8ZsxHAj_ttsK12e90z97q0yTsTl_DzXyyPnWeK1q6JL4541OQAScPPOKQaXD5gbIgLIsyw3VW2dOIgj0WSogStzukxIRvLAMVJZ2YKQafoMaK5t4dL9hDtG151O-VHlA5yhzS_sMT9Nz6RkTUjg14GMSN0R-lYwHc5rDi13wGIi78TPxQ6Bp1tvmjtvYoScHFXysp-8GdZooMwOM1Tl1QIg5TVAK63Gg5U-gDbALd6XkKRPwXpqAXBNpboWLHAHPZn-oz4uAskKz4DTYB_MXOZ6vGv2V4qnQ06wtMfGut0lhcw_UGlZI9dRmjbCQzQOxvW_pNS8kDjscIGLk1K0KA-EL10eqC9D0JxplMNLrzFrM2NnzuZKiGaa66QaKHWedysaZb-4VkrxNjjWnxRMuq62CjIUWZENKlPdm3r8KvPmHBT4A7xeb1K7UxpmA2dlxh15CqlqUTzbqgHCgsd8CX-wMHLZMqRzDYErDKER2fgsyzTIpbe4gqKKnITXqC4BTI_yzRoSi-jHU-YV9apvvAQoo8Nd0jLoTzoF0X-BnGCEOuqeeU_wKOFrHac4BBYS0GPU3Y330OxceMN7qyUnFjKTWFLDdSUjpdevwqkkuXAWsrkhfpwFfrC_bplBefcZk-ysZs6aRcjHaqPPHuFdZJXO9pfnF3CyA3tZ7V9nbsolh_3WwRZU9IYRohNgniN9dYqgFRnyg1rUlulHsUyrEaxyy5AQOImmOrMILeovIzG4ySKiqZ-0m00]--></g></svg>