<?xml version="1.0" encoding="us-ascii" standalone="no"?><svg xmlns="http://www.w3.org/2000/svg" xmlns:xlink="http://www.w3.org/1999/xlink" contentStyleType="text/css" height="687px" preserveAspectRatio="none" style="width:886px;height:687px;background:#FFFFFF;" version="1.1" viewBox="0 0 886 687" width="886px" zoomAndPan="magnify"><defs/><g><!--cluster bo4e--><g id="cluster_bo4e"><path d="M576.5,6 L617.5,6 A3.75,3.75 0 0 1 620,8.5 L627,28.2969 L876.5,28.2969 A2.5,2.5 0 0 1 879,30.7969 L879,677.5 A2.5,2.5 0 0 1 876.5,680 L576.5,680 A2.5,2.5 0 0 1 574,677.5 L574,8.5 A2.5,2.5 0 0 1 576.5,6 " fill="none" style="stroke:#000000;stroke-width:1.5;"/><line style="stroke:#000000;stroke-width:1.5;" x1="574" x2="627" y1="28.2969" y2="28.2969"/><text fill="#000000" font-family="sans-serif" font-size="14" font-weight="bold" lengthAdjust="spacing" textLength="40" x="578" y="20.9951">bo4e</text></g><!--cluster bo--><g id="cluster_bo"><path d="M657,49 L723,49 A3.75,3.75 0 0 1 725.5,51.5 L732.5,71.2969 L796,71.2969 A2.5,2.5 0 0 1 798.5,73.7969 L798.5,135.5 A2.5,2.5 0 0 1 796,138 L657,138 A2.5,2.5 0 0 1 654.5,135.5 L654.5,51.5 A2.5,2.5 0 0 1 657,49 " fill="#B6D7A8" style="stroke:#000000;stroke-width:1.5;"/><line style="stroke:#000000;stroke-width:1.5;" x1="654.5" x2="732.5" y1="71.2969" y2="71.2969"/><a href="https://bo4e.github.io/BO4E-python/latest/api/bo4e.bo.html" target="_top" title="https://bo4e.github.io/BO4E-python/latest/api/bo4e.bo.html" xlink:actuate="onRequest" xlink:href="https://bo4e.github.io/BO4E-python/latest/api/bo4e.bo.html" xlink:show="new" xlink:title="https://bo4e.github.io/BO4E-python/latest/api/bo4e.bo.html" xlink:type="simple"><text fill="#0000FF" font-family="sans-serif" font-size="14" font-weight="bold" lengthAdjust="spacing" text-decoration="underline" textLength="65" x="658.5" y="63.9951">bo4e.bo</text></a></g><!--cluster com--><g id="cluster_com"><path d="M600.5,162 L679.5,162 A3.75,3.75 0 0 1 682,164.5 L689,184.2969 L852.5,184.2969 A2.5,2.5 0 0 1 855,186.7969 L855,540.5 A2.5,2.5 0 0 1 852.5,543 L600.5,543 A2.5,2.5 0 0 1 598,540.5 L598,164.5 A2.5,2.5 0 0 1 600.5,162 " fill="#E0A86C" style="stroke:#000000;stroke-width:1.5;"/><line style="stroke:#000000;stroke-width:1.5;" x1="598" x2="689" y1="184.2969" y2="184.2969"/><a href="https://bo4e.github.io/BO4E-python/latest/api/bo4e.com.html" target="_top" title="https://bo4e.github.io/BO4E-python/latest/api/bo4e.com.html" xlink:actuate="onRequest" xlink:href="https://bo4e.github.io/BO4E-python/latest/api/bo4e.com.html" xlink:show="new" xlink:title="https://bo4e.github.io/BO4E-python/latest/api/bo4e.com.html" xlink:type="simple"><text fill="#0000FF" font-family="sans-serif" font-size="14" font-weight="bold" lengthAdjust="spacing" text-decoration="underline" textLength="78" x="602" y="176.9951">bo4e.com</text></a></g><!--cluster enum--><g id="cluster_enum"><path d="M660,567 L750,567 A3.75,3.75 0 0 1 752.5,569.5 L759.5,589.2969 L793,589.2969 A2.5,2.5 0 0 1 795.5,591.7969 L795.5,653.5 A2.5,2.5 0 0 1 793,656 L660,656 A2.5,2.5 0 0 1 657.5,653.5 L657.5,569.5 A2.5,2.5 0 0 1 660,567 " fill="#D1C358" style="stroke:#000000;stroke-width:1.5;"/><line style="stroke:#000000;stroke-width:1.5;" x1="657.5" x2="759.5" y1="589.2969" y2="589.2969"/><a href="https://bo4e.github.io/BO4E-python/latest/api/bo4e.enum.html" target="_top" title="https://bo4e.github.io/BO4E-python/latest/api/bo4e.enum.html" xlink:actuate="onRequest" xlink:href="https://bo4e.github.io/BO4E-python/latest/api/bo4e.enum.html" xlink:show="new" xlink:title="https://bo4e.github.io/BO4E-python/latest/api/bo4e.enum.html" xlink:type="simple"><text fill="#0000FF" font-family="sans-serif" font-size="14" font-weight="bold" lengthAdjust="spacing" text-decoration="underline" textLength="89" x="661.5" y="581.9951">bo4e.enum</text></a></g><!--class Tarifinfo--><g id="elem_Tarifinfo"><rect codeLine="11" fill="#F1F1F1" height="37.9375" id="Tarifinfo" rx="2.5" ry="2.5" style="stroke:#181818;stroke-width:0.5;" width="112" x="670.5" y="84.03"/><ellipse cx="685.5" cy="102.9987" fill="#ADD1B2" rx="11" ry="11" style="stroke:#181818;stroke-width:1.0;"/><path d="M688.4688,108.6394 Q687.8906,108.9362 687.25,109.0769 Q686.6094,109.2331 685.9063,109.2331 Q683.4063,109.2331 682.0781,107.5925 Q680.7656,105.9362 680.7656,102.8112 Q680.7656,99.6862 682.0781,98.03 Q683.4063,96.3737 685.9063,96.3737 Q686.6094,96.3737 687.25,96.53 Q687.9063,96.6862 688.4688,96.9831 L688.4688,99.7019 Q687.8438,99.1237 687.25,98.8581 Q686.6563,98.5769 686.0313,98.5769 Q684.6875,98.5769 684,99.655 Q683.3125,100.7175 683.3125,102.8112 Q683.3125,104.905 684,105.9831 Q684.6875,107.0456 686.0313,107.0456 Q686.6563,107.0456 687.25,106.78 Q687.8438,106.4987 688.4688,105.9206 L688.4688,108.6394 Z " fill="#000000"/><a href="https://bo4e.github.io/BO4E-python/latest/api/bo4e.bo.html#bo4e.bo.tarifinfo.Tarifinfo" target="_top" title="https://bo4e.github.io/BO4E-python/latest/api/bo4e.bo.html#bo4e.bo.tarifinfo.Tarifinfo" xlink:actuate="onRequest" xlink:href="https://bo4e.github.io/BO4E-python/latest/api/bo4e.bo.html#bo4e.bo.tarifinfo.Tarifinfo" xlink:show="new" xlink:title="https://bo4e.github.io/BO4E-python/latest/api/bo4e.bo.html#bo4e.bo.tarifinfo.Tarifinfo" xlink:type="simple"><text fill="#0000FF" font-family="sans-serif" font-size="14" lengthAdjust="spacing" text-decoration="underline" textLength="54" x="712.5" y="102.0251">Tarifinfo</text></a><text fill="#000000" font-family="sans-serif" font-size="10" lengthAdjust="spacing" textLength="80" x="699.5" y="114.6091">bo4e.bo.tarifinfo</text></g><!--class Tarifberechnungsparameter--><g id="elem_Tarifberechnungsparameter"><rect codeLine="14" fill="#F1F1F1" height="37.9375" id="Tarifberechnungsparameter" rx="2.5" ry="2.5" style="stroke:#181818;stroke-width:0.5;" width="225" x="614" y="197.03"/><ellipse cx="629" cy="215.9987" fill="#ADD1B2" rx="11" ry="11" style="stroke:#181818;stroke-width:1.0;"/><path d="M631.9688,221.6394 Q631.3906,221.9362 630.75,222.0769 Q630.1094,222.2331 629.4063,222.2331 Q626.9063,222.2331 625.5781,220.5925 Q624.2656,218.9362 624.2656,215.8112 Q624.2656,212.6862 625.5781,211.03 Q626.9063,209.3737 629.4063,209.3737 Q630.1094,209.3737 630.75,209.53 Q631.4063,209.6862 631.9688,209.9831 L631.9688,212.7019 Q631.3438,212.1237 630.75,211.8581 Q630.1563,211.5769 629.5313,211.5769 Q628.1875,211.5769 627.5,212.655 Q626.8125,213.7175 626.8125,215.8112 Q626.8125,217.905 627.5,218.9831 Q628.1875,220.0456 629.5313,220.0456 Q630.1563,220.0456 630.75,219.78 Q631.3438,219.4987 631.9688,218.9206 L631.9688,221.6394 Z " fill="#000000"/><a href="https://bo4e.github.io/BO4E-python/latest/api/bo4e.com.html#bo4e.com.tarifberechnungsparameter.Tarifberechnungsparameter" target="_top" title="https://bo4e.github.io/BO4E-python/latest/api/bo4e.com.html#bo4e.com.tarifberechnungsparameter.Tarifberechnungsparameter" xlink:actuate="onRequest" xlink:href="https://bo4e.github.io/BO4E-python/latest/api/bo4e.com.html#bo4e.com.tarifberechnungsparameter.Tarifberechnungsparameter" xlink:show="new" xlink:title="https://bo4e.github.io/BO4E-python/latest/api/bo4e.com.html#bo4e.com.tarifberechnungsparameter.Tarifberechnungsparameter" xlink:type="simple"><text fill="#0000FF" font-family="sans-serif" font-size="14" lengthAdjust="spacing" text-decoration="underline" textLength="193" x="643" y="215.0251">Tarifberechnungsparameter</text></a><text fill="#000000" font-family="sans-serif" font-size="10" lengthAdjust="spacing" textLength="185" x="647" y="227.6091">bo4e.com.tarifberechnungsparameter</text></g><!--class AufAbschlagRegional--><g id="elem_AufAbschlagRegional"><rect codeLine="15" fill="#F1F1F1" height="37.9375" id="AufAbschlagRegional" rx="2.5" ry="2.5" style="stroke:#181818;stroke-width:0.5;" width="179" x="637" y="270.03"/><ellipse cx="652" cy="288.9988" fill="#ADD1B2" rx="11" ry="11" style="stroke:#181818;stroke-width:1.0;"/><path d="M654.9688,294.6394 Q654.3906,294.9363 653.75,295.0769 Q653.1094,295.2331 652.4063,295.2331 Q649.9063,295.2331 648.5781,293.5925 Q647.2656,291.9363 647.2656,288.8113 Q647.2656,285.6863 648.5781,284.03 Q649.9063,282.3738 652.4063,282.3738 Q653.1094,282.3738 653.75,282.53 Q654.4063,282.6863 654.9688,282.9831 L654.9688,285.7019 Q654.3438,285.1238 653.75,284.8581 Q653.1563,284.5769 652.5313,284.5769 Q651.1875,284.5769 650.5,285.655 Q649.8125,286.7175 649.8125,288.8113 Q649.8125,290.905 650.5,291.9831 Q651.1875,293.0456 652.5313,293.0456 Q653.1563,293.0456 653.75,292.78 Q654.3438,292.4988 654.9688,291.9206 L654.9688,294.6394 Z " fill="#000000"/><a href="https://bo4e.github.io/BO4E-python/latest/api/bo4e.com.html#bo4e.com.aufabschlagregional.AufAbschlagRegional" target="_top" title="https://bo4e.github.io/BO4E-python/latest/api/bo4e.com.html#bo4e.com.aufabschlagregional.AufAbschlagRegional" xlink:actuate="onRequest" xlink:href="https://bo4e.github.io/BO4E-python/latest/api/bo4e.com.html#bo4e.com.aufabschlagregional.AufAbschlagRegional" xlink:show="new" xlink:title="https://bo4e.github.io/BO4E-python/latest/api/bo4e.com.html#bo4e.com.aufabschlagregional.AufAbschlagRegional" xlink:type="simple"><text fill="#0000FF" font-family="sans-serif" font-size="14" lengthAdjust="spacing" text-decoration="underline" textLength="145" x="667" y="288.0251">AufAbschlagRegional</text></a><text fill="#000000" font-family="sans-serif" font-size="10" lengthAdjust="spacing" textLength="147" x="666" y="300.6091">bo4e.com.aufabschlagregional</text></g><!--class TarifpreispositionProOrt--><g id="elem_TarifpreispositionProOrt"><rect codeLine="16" fill="#F1F1F1" height="37.9375" id="TarifpreispositionProOrt" rx="2.5" ry="2.5" style="stroke:#181818;stroke-width:0.5;" width="194" x="629.5" y="343.03"/><ellipse cx="644.5" cy="361.9988" fill="#ADD1B2" rx="11" ry="11" style="stroke:#181818;stroke-width:1.0;"/><path d="M647.4688,367.6394 Q646.8906,367.9363 646.25,368.0769 Q645.6094,368.2331 644.9063,368.2331 Q642.4063,368.2331 641.0781,366.5925 Q639.7656,364.9363 639.7656,361.8113 Q639.7656,358.6863 641.0781,357.03 Q642.4063,355.3738 644.9063,355.3738 Q645.6094,355.3738 646.25,355.53 Q646.9063,355.6863 647.4688,355.9831 L647.4688,358.7019 Q646.8438,358.1238 646.25,357.8581 Q645.6563,357.5769 645.0313,357.5769 Q643.6875,357.5769 643,358.655 Q642.3125,359.7175 642.3125,361.8113 Q642.3125,363.905 643,364.9831 Q643.6875,366.0456 645.0313,366.0456 Q645.6563,366.0456 646.25,365.78 Q646.8438,365.4988 647.4688,364.9206 L647.4688,367.6394 Z " fill="#000000"/><a href="https://bo4e.github.io/BO4E-python/latest/api/bo4e.com.html#bo4e.com.tarifpreispositionproort.TarifpreispositionProOrt" target="_top" title="https://bo4e.github.io/BO4E-python/latest/api/bo4e.com.html#bo4e.com.tarifpreispositionproort.TarifpreispositionProOrt" xlink:actuate="onRequest" xlink:href="https://bo4e.github.io/BO4E-python/latest/api/bo4e.com.html#bo4e.com.tarifpreispositionproort.TarifpreispositionProOrt" xlink:show="new" xlink:title="https://bo4e.github.io/BO4E-python/latest/api/bo4e.com.html#bo4e.com.tarifpreispositionproort.TarifpreispositionProOrt" xlink:type="simple"><text fill="#0000FF" font-family="sans-serif" font-size="14" lengthAdjust="spacing" text-decoration="underline" textLength="162" x="658.5" y="361.0251">TarifpreispositionProOrt</text></a><text fill="#000000" font-family="sans-serif" font-size="10" lengthAdjust="spacing" textLength="161" x="659" y="373.6091">bo4e.com.tarifpreispositionproort</text></g><!--class Preisgarantie--><g id="elem_Preisgarantie"><rect codeLine="17" fill="#F1F1F1" height="37.9375" id="Preisgarantie" rx="2.5" ry="2.5" style="stroke:#181818;stroke-width:0.5;" width="146" x="653.5" y="416.03"/><ellipse cx="668.5" cy="434.9988" fill="#ADD1B2" rx="11" ry="11" style="stroke:#181818;stroke-width:1.0;"/><path d="M671.4688,440.6394 Q670.8906,440.9363 670.25,441.0769 Q669.6094,441.2331 668.9063,441.2331 Q666.4063,441.2331 665.0781,439.5925 Q663.7656,437.9363 663.7656,434.8113 Q663.7656,431.6863 665.0781,430.03 Q666.4063,428.3738 668.9063,428.3738 Q669.6094,428.3738 670.25,428.53 Q670.9063,428.6863 671.4688,428.9831 L671.4688,431.7019 Q670.8438,431.1238 670.25,430.8581 Q669.6563,430.5769 669.0313,430.5769 Q667.6875,430.5769 667,431.655 Q666.3125,432.7175 666.3125,434.8113 Q666.3125,436.905 667,437.9831 Q667.6875,439.0456 669.0313,439.0456 Q669.6563,439.0456 670.25,438.78 Q670.8438,438.4988 671.4688,437.9206 L671.4688,440.6394 Z " fill="#000000"/><a href="https://bo4e.github.io/BO4E-python/latest/api/bo4e.com.html#bo4e.com.preisgarantie.Preisgarantie" target="_top" title="https://bo4e.github.io/BO4E-python/latest/api/bo4e.com.html#bo4e.com.preisgarantie.Preisgarantie" xlink:actuate="onRequest" xlink:href="https://bo4e.github.io/BO4E-python/latest/api/bo4e.com.html#bo4e.com.preisgarantie.Preisgarantie" xlink:show="new" xlink:title="https://bo4e.github.io/BO4E-python/latest/api/bo4e.com.html#bo4e.com.preisgarantie.Preisgarantie" xlink:type="simple"><text fill="#0000FF" font-family="sans-serif" font-size="14" lengthAdjust="spacing" text-decoration="underline" textLength="90" x="694.5" y="434.0251">Preisgarantie</text></a><text fill="#000000" font-family="sans-serif" font-size="10" lengthAdjust="spacing" textLength="114" x="682.5" y="446.6091">bo4e.com.preisgarantie</text></g><!--class Tarifeinschraenkung--><g id="elem_Tarifeinschraenkung"><rect codeLine="18" fill="#F1F1F1" height="37.9375" id="Tarifeinschraenkung" rx="2.5" ry="2.5" style="stroke:#181818;stroke-width:0.5;" width="178" x="637.5" y="489.03"/><ellipse cx="652.5" cy="507.9988" fill="#ADD1B2" rx="11" ry="11" style="stroke:#181818;stroke-width:1.0;"/><path d="M655.4688,513.6394 Q654.8906,513.9363 654.25,514.0769 Q653.6094,514.2331 652.9063,514.2331 Q650.4063,514.2331 649.0781,512.5925 Q647.7656,510.9363 647.7656,507.8113 Q647.7656,504.6863 649.0781,503.03 Q650.4063,501.3738 652.9063,501.3738 Q653.6094,501.3738 654.25,501.53 Q654.9063,501.6863 655.4688,501.9831 L655.4688,504.7019 Q654.8438,504.1238 654.25,503.8581 Q653.6563,503.5769 653.0313,503.5769 Q651.6875,503.5769 651,504.655 Q650.3125,505.7175 650.3125,507.8113 Q650.3125,509.905 651,510.9831 Q651.6875,512.0456 653.0313,512.0456 Q653.6563,512.0456 654.25,511.78 Q654.8438,511.4988 655.4688,510.9206 L655.4688,513.6394 Z " fill="#000000"/><a href="https://bo4e.github.io/BO4E-python/latest/api/bo4e.com.html#bo4e.com.tarifeinschraenkung.Tarifeinschraenkung" target="_top" title="https://bo4e.github.io/BO4E-python/latest/api/bo4e.com.html#bo4e.com.tarifeinschraenkung.Tarifeinschraenkung" xlink:actuate="onRequest" xlink:href="https://bo4e.github.io/BO4E-python/latest/api/bo4e.com.html#bo4e.com.tarifeinschraenkung.Tarifeinschraenkung" xlink:show="new" xlink:title="https://bo4e.github.io/BO4E-python/latest/api/bo4e.com.html#bo4e.com.tarifeinschraenkung.Tarifeinschraenkung" xlink:type="simple"><text fill="#0000FF" font-family="sans-serif" font-size="14" lengthAdjust="spacing" text-decoration="underline" textLength="141" x="669" y="507.0251">Tarifeinschraenkung</text></a><text fill="#000000" font-family="sans-serif" font-size="10" lengthAdjust="spacing" textLength="146" x="666.5" y="519.6091">bo4e.com.tarifeinschraenkung</text></g><!--class Typ--><g id="elem_Typ"><rect codeLine="21" fill="#F1F1F1" height="37.9375" id="Typ" rx="2.5" ry="2.5" style="stroke:#181818;stroke-width:0.5;" width="106" x="673.5" y="602.03"/><ellipse cx="688.5" cy="620.9988" fill="#ADD1B2" rx="11" ry="11" style="stroke:#181818;stroke-width:1.0;"/><path d="M691.4688,626.6394 Q690.8906,626.9363 690.25,627.0769 Q689.6094,627.2331 688.9063,627.2331 Q686.4063,627.2331 685.0781,625.5925 Q683.7656,623.9363 683.7656,620.8113 Q683.7656,617.6863 685.0781,616.03 Q686.4063,614.3738 688.9063,614.3738 Q689.6094,614.3738 690.25,614.53 Q690.9063,614.6863 691.4688,614.9831 L691.4688,617.7019 Q690.8438,617.1238 690.25,616.8581 Q689.6563,616.5769 689.0313,616.5769 Q687.6875,616.5769 687,617.655 Q686.3125,618.7175 686.3125,620.8113 Q686.3125,622.905 687,623.9831 Q687.6875,625.0456 689.0313,625.0456 Q689.6563,625.0456 690.25,624.78 Q690.8438,624.4988 691.4688,623.9206 L691.4688,626.6394 Z " fill="#000000"/><a href="https://bo4e.github.io/BO4E-python/latest/api/bo4e.enum.html#bo4e.enum.typ.Typ" target="_top" title="https://bo4e.github.io/BO4E-python/latest/api/bo4e.enum.html#bo4e.enum.typ.Typ" xlink:actuate="onRequest" xlink:href="https://bo4e.github.io/BO4E-python/latest/api/bo4e.enum.html#bo4e.enum.typ.Typ" xlink:show="new" xlink:title="https://bo4e.github.io/BO4E-python/latest/api/bo4e.enum.html#bo4e.enum.typ.Typ" xlink:type="simple"><text fill="#0000FF" font-family="sans-serif" font-size="14" lengthAdjust="spacing" text-decoration="underline" textLength="25" x="727" y="620.0251">Typ</text></a><text fill="#000000" font-family="sans-serif" font-size="10" lengthAdjust="spacing" textLength="74" x="702.5" y="632.6091">bo4e.enum.typ</text></g><!--class Tarif--><g id="elem_Tarif"><rect codeLine="3" fill="#F1F1F1" height="111.125" id="Tarif" rx="2.5" ry="2.5" style="stroke:#181818;stroke-width:0.5;" width="368" x="7" y="306.44"/><ellipse cx="155.75" cy="325.4088" fill="#ADD1B2" rx="11" ry="11" style="stroke:#181818;stroke-width:1.0;"/><path d="M158.7188,331.0494 Q158.1406,331.3463 157.5,331.4869 Q156.8594,331.6431 156.1563,331.6431 Q153.6563,331.6431 152.3281,330.0025 Q151.0156,328.3463 151.0156,325.2213 Q151.0156,322.0963 152.3281,320.44 Q153.6563,318.7838 156.1563,318.7838 Q156.8594,318.7838 157.5,318.94 Q158.1563,319.0963 158.7188,319.3931 L158.7188,322.1119 Q158.0938,321.5338 157.5,321.2681 Q156.9063,320.9869 156.2813,320.9869 Q154.9375,320.9869 154.25,322.065 Q153.5625,323.1275 153.5625,325.2213 Q153.5625,327.315 154.25,328.3931 Q154.9375,329.4556 156.2813,329.4556 Q156.9063,329.4556 157.5,329.19 Q158.0938,328.9088 158.7188,328.3306 L158.7188,331.0494 Z " fill="#000000"/><a href="https://bo4e.github.io/BO4E-python/latest/api/bo4e.bo.html#bo4e.bo.tarif.Tarif" target="_top" title="https://bo4e.github.io/BO4E-python/latest/api/bo4e.bo.html#bo4e.bo.tarif.Tarif" xlink:actuate="onRequest" xlink:href="https://bo4e.github.io/BO4E-python/latest/api/bo4e.bo.html#bo4e.bo.tarif.Tarif" xlink:show="new" xlink:title="https://bo4e.github.io/BO4E-python/latest/api/bo4e.bo.html#bo4e.bo.tarif.Tarif" xlink:type="simple"><text fill="#0000FF" font-family="sans-serif" font-size="14" lengthAdjust="spacing" text-decoration="underline" textLength="29" x="192.75" y="324.4351">Tarif</text></a><text fill="#000000" font-family="sans-serif" font-size="10" lengthAdjust="spacing" textLength="62" x="176.25" y="337.0191">bo4e.bo.tarif</text><line style="stroke:#181818;stroke-width:0.5;" x1="8" x2="374" y1="344.3775" y2="344.3775"/><text fill="#000000" font-family="sans-serif" font-size="14" lengthAdjust="spacing" textLength="356" x="13" y="361.3726">_version : str [0..1] = 202401.2.1.dev10+g6c8c16c</text><text fill="#000000" font-family="sans-serif" font-size="14" lengthAdjust="spacing" textLength="311" x="13" y="377.6695">zusatzAttribute : ZusatzAttribut [0..*] = None</text><text fill="#000000" font-family="sans-serif" font-size="14" lengthAdjust="spacing" textLength="147" x="13" y="393.9664">_id : str [0..1] = None</text><text fill="#000000" font-family="sans-serif" font-size="14" lengthAdjust="spacing" textLength="288" x="13" y="410.2632">preisstand : AwareDatetime [0..1] = None</text></g><!--link Tarif to Tarifinfo--><g id="link_Tarif_Tarifinfo"><path codeLine="24" d="M271.16,306.05 C310.33,279.78 358.98,249.23 405,226 C494.66,180.76 588.0376,147.3932 653.0876,126.0432 " fill="none" id="Tarif-to-Tarifinfo" style="stroke:#181818;stroke-width:1.0;"/><polygon fill="none" points="670.19,120.43,651.2165,120.3424,654.9586,131.744,670.19,120.43" style="stroke:#181818;stroke-width:1.0;"/></g><!--link Tarif to Typ--><g id="link_Tarif_Typ"><path codeLine="25" d="M270.08,417.79 C309.4,444.42 358.49,475.51 405,499 C495.88,544.89 596.9289,580.2278 661.5989,601.0778 " fill="none" id="Tarif-to-Typ" style="stroke:#181818;stroke-width:1.0;"/><polygon fill="#181818" points="673.02,604.76,668.5369,599.1119,661.5989,601.0778,666.082,606.7259,673.02,604.76" style="stroke:#181818;stroke-width:1.0;"/><text fill="#000000" font-family="sans-serif" font-size="13" lengthAdjust="spacing" textLength="27" x="468" y="495.0669">_typ</text><text fill="#000000" font-family="sans-serif" font-size="13" lengthAdjust="spacing" textLength="24" x="641.4489" y="615.8242">0..1</text></g><!--link Tarif to Tarifberechnungsparameter--><g id="link_Tarif_Tarifberechnungsparameter"><path codeLine="26" d="M346.65,305.98 C366.19,299.58 385.99,293.42 405,288 C478.08,267.17 550.1668,250.9412 613.7568,237.8412 " fill="none" id="Tarif-to-Tarifberechnungsparameter" style="stroke:#181818;stroke-width:1.0;"/><polygon fill="#181818" points="625.51,235.42,618.8263,232.7129,613.7568,237.8412,620.4405,240.5484,625.51,235.42" style="stroke:#181818;stroke-width:1.0;"/><text fill="#000000" font-family="sans-serif" font-size="13" lengthAdjust="spacing" textLength="151" x="406" y="247.0669">berechnungsparameter</text><text fill="#000000" font-family="sans-serif" font-size="13" lengthAdjust="spacing" textLength="24" x="582.0898" y="252.1254">0..1</text></g><!--link Tarif to TarifpreispositionProOrt--><g id="link_Tarif_TarifpreispositionProOrt"><path codeLine="27" d="M375.23,362 C460.56,362 546.57,362 617.18,362 " fill="none" id="Tarif-to-TarifpreispositionProOrt" style="stroke:#181818;stroke-width:1.0;"/><polygon fill="#181818" points="629.18,362,623.18,358,617.18,362,623.18,366,629.18,362" style="stroke:#181818;stroke-width:1.0;"/><text fill="#000000" font-family="sans-serif" font-size="13" lengthAdjust="spacing" textLength="64" x="449.5" y="358.0669">tarifpreise</text><text fill="#000000" font-family="sans-serif" font-size="13" lengthAdjust="spacing" textLength="23" x="598.5286" y="374.599">0..*</text></g><!--link Tarif to AufAbschlagRegional--><g id="link_Tarif_AufAbschlagRegional"><path codeLine="28" d="M375.23,336.93 C463.57,324.84 553.6207,312.5165 624.6707,302.7965 " fill="none" id="Tarif-to-AufAbschlagRegional" style="stroke:#181818;stroke-width:1.0;"/><polygon fill="#181818" points="636.56,301.17,630.0732,298.0202,624.6707,302.7965,631.1575,305.9463,636.56,301.17" style="stroke:#181818;stroke-width:1.0;"/><text fill="#000000" font-family="sans-serif" font-size="13" lengthAdjust="spacing" textLength="120" x="421.5" y="309.0669">tarifAufAbschlaege</text><text fill="#000000" font-family="sans-serif" font-size="13" lengthAdjust="spacing" textLength="23" x="606.1105" y="314.6864">0..*</text></g><!--link Tarif to Preisgarantie--><g id="link_Tarif_Preisgarantie"><path codeLine="29" d="M375.23,387.07 C470.66,400.13 570.0606,413.7342 641.1406,423.4542 " fill="none" id="Tarif-to-Preisgarantie" style="stroke:#181818;stroke-width:1.0;"/><polygon fill="#181818" points="653.03,425.08,647.6273,420.304,641.1406,423.4542,646.5434,428.2302,653.03,425.08" style="stroke:#181818;stroke-width:1.0;"/><text fill="#000000" font-family="sans-serif" font-size="13" lengthAdjust="spacing" textLength="84" x="439.5" y="388.0669">preisgarantie</text><text fill="#000000" font-family="sans-serif" font-size="13" lengthAdjust="spacing" textLength="24" x="621.4178" y="436.9374">0..1</text></g><!--link Tarif to Tarifeinschraenkung--><g id="link_Tarif_Tarifeinschraenkung"><path codeLine="30" d="M343.99,418.02 C364.38,424.79 385.12,431.32 405,437 C482.54,459.15 560.5105,476.1692 625.2705,489.0492 " fill="none" id="Tarif-to-Tarifeinschraenkung" style="stroke:#181818;stroke-width:1.0;"/><polygon fill="#181818" points="637.04,491.39,631.9355,486.2964,625.2705,489.0492,630.375,494.1428,637.04,491.39" style="stroke:#181818;stroke-width:1.0;"/><text fill="#000000" font-family="sans-serif" font-size="13" lengthAdjust="spacing" textLength="126" x="418.5" y="433.0669">tarifeinschraenkung</text><text fill="#000000" font-family="sans-serif" font-size="13" lengthAdjust="spacing" textLength="24" x="605.589" y="502.7928">0..1</text></g><!--SRC=[jLLTRvim57qkl-8gUSiK4h8iYz1MYQvzNQkfJykYoe4Ri0OsiashPEj_dmqa1Efa3qaVGDmFtyivnxvESQr0SH0qJXH4L62eA6UE4wP4IkWj5ebIkVH7enMVeXjJbHGhb_BHpVtqRfXlLCBPA2KAfHgHd5PPA-ucAalxEqCHGTVketb3-LukVx4lacxHzyRNhQmU45dbm1_dwkaPXTI_0pv89M0nTbrl2LzXCfvCnvuxSJqtmcTl_26UXVFGcuNErRQGH6q3fGHT5GhrofyjJrbaO8fyvmnr2nfrgrU1N22LKX5cui4B4NYhOIgQOIVprN4OoL3c9CJp28FQM2vB6ceB-ZUpsy_1t11oSLKeM_DA6VC5-w_Z2fbeevAnD0Fd4X3ox801RHrIe4tetus3-UpRkHpi-lJtLebfXNhV9wnWiGOXD1Q5ecB55e6ZaRUidMpHq6YBNXefATPa9SCa9R70M9ygahf1iGvgtu_Q1nQV7PUbO8d8Kk1TL2jFQCubDHCh5vmBLOdM2Zm8VYyK70kSaCnIlr7CKkhI8CiMiTuEJ55q7mujQ5bs3AtbvO-t5hsB94YP5buGPB_rNgxKQFl0uZkXGJkneR_jly04GbOSZY1Z7iuWOqC_yiAFdyuUnFjM_SPKcznztEIWdxTix38g-9lSN3drTJeS_htUNHJD7Dz5TNW0FNDRzHeOPHyVddJ1etc6_-FppmVhlEeM6tIBsSwb3yrPmvCbRBEgNjs4CCQJeDgdo8VM8Va_7PszNBVlR4OdeH52XfbcIJeouIzG5rvJJ2Fv3m00]--></g></svg>