<?xml version="1.0" encoding="us-ascii" standalone="no"?><svg xmlns="http://www.w3.org/2000/svg" xmlns:xlink="http://www.w3.org/1999/xlink" contentStyleType="text/css" height="687px" preserveAspectRatio="none" style="width:875px;height:687px;background:#FFFFFF;" version="1.1" viewBox="0 0 875 687" width="875px" zoomAndPan="magnify"><defs/><g><!--cluster bo4e--><g id="cluster_bo4e"><path d="M565.5,6 L606.5,6 A3.75,3.75 0 0 1 609,8.5 L616,28.2969 L865.5,28.2969 A2.5,2.5 0 0 1 868,30.7969 L868,677.5 A2.5,2.5 0 0 1 865.5,680 L565.5,680 A2.5,2.5 0 0 1 563,677.5 L563,8.5 A2.5,2.5 0 0 1 565.5,6 " fill="none" style="stroke:#000000;stroke-width:1.5;"/><line style="stroke:#000000;stroke-width:1.5;" x1="563" x2="616" y1="28.2969" y2="28.2969"/><text fill="#000000" font-family="sans-serif" font-size="14" font-weight="bold" lengthAdjust="spacing" textLength="40" x="567" y="20.9951">bo4e</text></g><!--cluster bo--><g id="cluster_bo"><path d="M646,49 L712,49 A3.75,3.75 0 0 1 714.5,51.5 L721.5,71.2969 L785,71.2969 A2.5,2.5 0 0 1 787.5,73.7969 L787.5,135.5 A2.5,2.5 0 0 1 785,138 L646,138 A2.5,2.5 0 0 1 643.5,135.5 L643.5,51.5 A2.5,2.5 0 0 1 646,49 " fill="#B6D7A8" style="stroke:#000000;stroke-width:1.5;"/><line style="stroke:#000000;stroke-width:1.5;" x1="643.5" x2="721.5" y1="71.2969" y2="71.2969"/><a href="https://bo4e.github.io/BO4E-python/latest/api/bo4e.bo.html" target="_top" title="https://bo4e.github.io/BO4E-python/latest/api/bo4e.bo.html" xlink:actuate="onRequest" xlink:href="https://bo4e.github.io/BO4E-python/latest/api/bo4e.bo.html" xlink:show="new" xlink:title="https://bo4e.github.io/BO4E-python/latest/api/bo4e.bo.html" xlink:type="simple"><text fill="#0000FF" font-family="sans-serif" font-size="14" font-weight="bold" lengthAdjust="spacing" text-decoration="underline" textLength="65" x="647.5" y="63.9951">bo4e.bo</text></a></g><!--cluster com--><g id="cluster_com"><path d="M589.5,162 L668.5,162 A3.75,3.75 0 0 1 671,164.5 L678,184.2969 L841.5,184.2969 A2.5,2.5 0 0 1 844,186.7969 L844,540.5 A2.5,2.5 0 0 1 841.5,543 L589.5,543 A2.5,2.5 0 0 1 587,540.5 L587,164.5 A2.5,2.5 0 0 1 589.5,162 " fill="#E0A86C" style="stroke:#000000;stroke-width:1.5;"/><line style="stroke:#000000;stroke-width:1.5;" x1="587" x2="678" y1="184.2969" y2="184.2969"/><a href="https://bo4e.github.io/BO4E-python/latest/api/bo4e.com.html" target="_top" title="https://bo4e.github.io/BO4E-python/latest/api/bo4e.com.html" xlink:actuate="onRequest" xlink:href="https://bo4e.github.io/BO4E-python/latest/api/bo4e.com.html" xlink:show="new" xlink:title="https://bo4e.github.io/BO4E-python/latest/api/bo4e.com.html" xlink:type="simple"><text fill="#0000FF" font-family="sans-serif" font-size="14" font-weight="bold" lengthAdjust="spacing" text-decoration="underline" textLength="78" x="591" y="176.9951">bo4e.com</text></a></g><!--cluster enum--><g id="cluster_enum"><path d="M649,567 L739,567 A3.75,3.75 0 0 1 741.5,569.5 L748.5,589.2969 L782,589.2969 A2.5,2.5 0 0 1 784.5,591.7969 L784.5,653.5 A2.5,2.5 0 0 1 782,656 L649,656 A2.5,2.5 0 0 1 646.5,653.5 L646.5,569.5 A2.5,2.5 0 0 1 649,567 " fill="#D1C358" style="stroke:#000000;stroke-width:1.5;"/><line style="stroke:#000000;stroke-width:1.5;" x1="646.5" x2="748.5" y1="589.2969" y2="589.2969"/><a href="https://bo4e.github.io/BO4E-python/latest/api/bo4e.enum.html" target="_top" title="https://bo4e.github.io/BO4E-python/latest/api/bo4e.enum.html" xlink:actuate="onRequest" xlink:href="https://bo4e.github.io/BO4E-python/latest/api/bo4e.enum.html" xlink:show="new" xlink:title="https://bo4e.github.io/BO4E-python/latest/api/bo4e.enum.html" xlink:type="simple"><text fill="#0000FF" font-family="sans-serif" font-size="14" font-weight="bold" lengthAdjust="spacing" text-decoration="underline" textLength="89" x="650.5" y="581.9951">bo4e.enum</text></a></g><!--class Tarifinfo--><g id="elem_Tarifinfo"><rect codeLine="11" fill="#F1F1F1" height="37.9375" id="Tarifinfo" rx="2.5" ry="2.5" style="stroke:#181818;stroke-width:0.5;" width="112" x="659.5" y="84.03"/><ellipse cx="674.5" cy="102.9987" fill="#ADD1B2" rx="11" ry="11" style="stroke:#181818;stroke-width:1.0;"/><path d="M677.4688,108.6394 Q676.8906,108.9362 676.25,109.0769 Q675.6094,109.2331 674.9063,109.2331 Q672.4063,109.2331 671.0781,107.5925 Q669.7656,105.9362 669.7656,102.8112 Q669.7656,99.6862 671.0781,98.03 Q672.4063,96.3737 674.9063,96.3737 Q675.6094,96.3737 676.25,96.53 Q676.9063,96.6862 677.4688,96.9831 L677.4688,99.7019 Q676.8438,99.1237 676.25,98.8581 Q675.6563,98.5769 675.0313,98.5769 Q673.6875,98.5769 673,99.655 Q672.3125,100.7175 672.3125,102.8112 Q672.3125,104.905 673,105.9831 Q673.6875,107.0456 675.0313,107.0456 Q675.6563,107.0456 676.25,106.78 Q676.8438,106.4987 677.4688,105.9206 L677.4688,108.6394 Z " fill="#000000"/><a href="https://bo4e.github.io/BO4E-python/latest/api/bo4e.bo.html#bo4e.bo.tarifinfo.Tarifinfo" target="_top" title="https://bo4e.github.io/BO4E-python/latest/api/bo4e.bo.html#bo4e.bo.tarifinfo.Tarifinfo" xlink:actuate="onRequest" xlink:href="https://bo4e.github.io/BO4E-python/latest/api/bo4e.bo.html#bo4e.bo.tarifinfo.Tarifinfo" xlink:show="new" xlink:title="https://bo4e.github.io/BO4E-python/latest/api/bo4e.bo.html#bo4e.bo.tarifinfo.Tarifinfo" xlink:type="simple"><text fill="#0000FF" font-family="sans-serif" font-size="14" lengthAdjust="spacing" text-decoration="underline" textLength="54" x="701.5" y="102.0251">Tarifinfo</text></a><text fill="#000000" font-family="sans-serif" font-size="10" lengthAdjust="spacing" textLength="80" x="688.5" y="114.6091">bo4e.bo.tarifinfo</text></g><!--class TarifpreispositionProOrt--><g id="elem_TarifpreispositionProOrt"><rect codeLine="14" fill="#F1F1F1" height="37.9375" id="TarifpreispositionProOrt" rx="2.5" ry="2.5" style="stroke:#181818;stroke-width:0.5;" width="194" x="618.5" y="197.03"/><ellipse cx="633.5" cy="215.9987" fill="#ADD1B2" rx="11" ry="11" style="stroke:#181818;stroke-width:1.0;"/><path d="M636.4688,221.6394 Q635.8906,221.9362 635.25,222.0769 Q634.6094,222.2331 633.9063,222.2331 Q631.4063,222.2331 630.0781,220.5925 Q628.7656,218.9362 628.7656,215.8112 Q628.7656,212.6862 630.0781,211.03 Q631.4063,209.3737 633.9063,209.3737 Q634.6094,209.3737 635.25,209.53 Q635.9063,209.6862 636.4688,209.9831 L636.4688,212.7019 Q635.8438,212.1237 635.25,211.8581 Q634.6563,211.5769 634.0313,211.5769 Q632.6875,211.5769 632,212.655 Q631.3125,213.7175 631.3125,215.8112 Q631.3125,217.905 632,218.9831 Q632.6875,220.0456 634.0313,220.0456 Q634.6563,220.0456 635.25,219.78 Q635.8438,219.4987 636.4688,218.9206 L636.4688,221.6394 Z " fill="#000000"/><a href="https://bo4e.github.io/BO4E-python/latest/api/bo4e.com.html#bo4e.com.tarifpreispositionproort.TarifpreispositionProOrt" target="_top" title="https://bo4e.github.io/BO4E-python/latest/api/bo4e.com.html#bo4e.com.tarifpreispositionproort.TarifpreispositionProOrt" xlink:actuate="onRequest" xlink:href="https://bo4e.github.io/BO4E-python/latest/api/bo4e.com.html#bo4e.com.tarifpreispositionproort.TarifpreispositionProOrt" xlink:show="new" xlink:title="https://bo4e.github.io/BO4E-python/latest/api/bo4e.com.html#bo4e.com.tarifpreispositionproort.TarifpreispositionProOrt" xlink:type="simple"><text fill="#0000FF" font-family="sans-serif" font-size="14" lengthAdjust="spacing" text-decoration="underline" textLength="162" x="647.5" y="215.0251">TarifpreispositionProOrt</text></a><text fill="#000000" font-family="sans-serif" font-size="10" lengthAdjust="spacing" textLength="161" x="648" y="227.6091">bo4e.com.tarifpreispositionproort</text></g><!--class AufAbschlagRegional--><g id="elem_AufAbschlagRegional"><rect codeLine="15" fill="#F1F1F1" height="37.9375" id="AufAbschlagRegional" rx="2.5" ry="2.5" style="stroke:#181818;stroke-width:0.5;" width="179" x="626" y="270.03"/><ellipse cx="641" cy="288.9988" fill="#ADD1B2" rx="11" ry="11" style="stroke:#181818;stroke-width:1.0;"/><path d="M643.9688,294.6394 Q643.3906,294.9363 642.75,295.0769 Q642.1094,295.2331 641.4063,295.2331 Q638.9063,295.2331 637.5781,293.5925 Q636.2656,291.9363 636.2656,288.8113 Q636.2656,285.6863 637.5781,284.03 Q638.9063,282.3738 641.4063,282.3738 Q642.1094,282.3738 642.75,282.53 Q643.4063,282.6863 643.9688,282.9831 L643.9688,285.7019 Q643.3438,285.1238 642.75,284.8581 Q642.1563,284.5769 641.5313,284.5769 Q640.1875,284.5769 639.5,285.655 Q638.8125,286.7175 638.8125,288.8113 Q638.8125,290.905 639.5,291.9831 Q640.1875,293.0456 641.5313,293.0456 Q642.1563,293.0456 642.75,292.78 Q643.3438,292.4988 643.9688,291.9206 L643.9688,294.6394 Z " fill="#000000"/><a href="https://bo4e.github.io/BO4E-python/latest/api/bo4e.com.html#bo4e.com.aufabschlagregional.AufAbschlagRegional" target="_top" title="https://bo4e.github.io/BO4E-python/latest/api/bo4e.com.html#bo4e.com.aufabschlagregional.AufAbschlagRegional" xlink:actuate="onRequest" xlink:href="https://bo4e.github.io/BO4E-python/latest/api/bo4e.com.html#bo4e.com.aufabschlagregional.AufAbschlagRegional" xlink:show="new" xlink:title="https://bo4e.github.io/BO4E-python/latest/api/bo4e.com.html#bo4e.com.aufabschlagregional.AufAbschlagRegional" xlink:type="simple"><text fill="#0000FF" font-family="sans-serif" font-size="14" lengthAdjust="spacing" text-decoration="underline" textLength="145" x="656" y="288.0251">AufAbschlagRegional</text></a><text fill="#000000" font-family="sans-serif" font-size="10" lengthAdjust="spacing" textLength="147" x="655" y="300.6091">bo4e.com.aufabschlagregional</text></g><!--class Tarifberechnungsparameter--><g id="elem_Tarifberechnungsparameter"><rect codeLine="16" fill="#F1F1F1" height="37.9375" id="Tarifberechnungsparameter" rx="2.5" ry="2.5" style="stroke:#181818;stroke-width:0.5;" width="225" x="603" y="343.03"/><ellipse cx="618" cy="361.9988" fill="#ADD1B2" rx="11" ry="11" style="stroke:#181818;stroke-width:1.0;"/><path d="M620.9688,367.6394 Q620.3906,367.9363 619.75,368.0769 Q619.1094,368.2331 618.4063,368.2331 Q615.9063,368.2331 614.5781,366.5925 Q613.2656,364.9363 613.2656,361.8113 Q613.2656,358.6863 614.5781,357.03 Q615.9063,355.3738 618.4063,355.3738 Q619.1094,355.3738 619.75,355.53 Q620.4063,355.6863 620.9688,355.9831 L620.9688,358.7019 Q620.3438,358.1238 619.75,357.8581 Q619.1563,357.5769 618.5313,357.5769 Q617.1875,357.5769 616.5,358.655 Q615.8125,359.7175 615.8125,361.8113 Q615.8125,363.905 616.5,364.9831 Q617.1875,366.0456 618.5313,366.0456 Q619.1563,366.0456 619.75,365.78 Q620.3438,365.4988 620.9688,364.9206 L620.9688,367.6394 Z " fill="#000000"/><a href="https://bo4e.github.io/BO4E-python/latest/api/bo4e.com.html#bo4e.com.tarifberechnungsparameter.Tarifberechnungsparameter" target="_top" title="https://bo4e.github.io/BO4E-python/latest/api/bo4e.com.html#bo4e.com.tarifberechnungsparameter.Tarifberechnungsparameter" xlink:actuate="onRequest" xlink:href="https://bo4e.github.io/BO4E-python/latest/api/bo4e.com.html#bo4e.com.tarifberechnungsparameter.Tarifberechnungsparameter" xlink:show="new" xlink:title="https://bo4e.github.io/BO4E-python/latest/api/bo4e.com.html#bo4e.com.tarifberechnungsparameter.Tarifberechnungsparameter" xlink:type="simple"><text fill="#0000FF" font-family="sans-serif" font-size="14" lengthAdjust="spacing" text-decoration="underline" textLength="193" x="632" y="361.0251">Tarifberechnungsparameter</text></a><text fill="#000000" font-family="sans-serif" font-size="10" lengthAdjust="spacing" textLength="185" x="636" y="373.6091">bo4e.com.tarifberechnungsparameter</text></g><!--class Tarifeinschraenkung--><g id="elem_Tarifeinschraenkung"><rect codeLine="17" fill="#F1F1F1" height="37.9375" id="Tarifeinschraenkung" rx="2.5" ry="2.5" style="stroke:#181818;stroke-width:0.5;" width="178" x="626.5" y="416.03"/><ellipse cx="641.5" cy="434.9988" fill="#ADD1B2" rx="11" ry="11" style="stroke:#181818;stroke-width:1.0;"/><path d="M644.4688,440.6394 Q643.8906,440.9363 643.25,441.0769 Q642.6094,441.2331 641.9063,441.2331 Q639.4063,441.2331 638.0781,439.5925 Q636.7656,437.9363 636.7656,434.8113 Q636.7656,431.6863 638.0781,430.03 Q639.4063,428.3738 641.9063,428.3738 Q642.6094,428.3738 643.25,428.53 Q643.9063,428.6863 644.4688,428.9831 L644.4688,431.7019 Q643.8438,431.1238 643.25,430.8581 Q642.6563,430.5769 642.0313,430.5769 Q640.6875,430.5769 640,431.655 Q639.3125,432.7175 639.3125,434.8113 Q639.3125,436.905 640,437.9831 Q640.6875,439.0456 642.0313,439.0456 Q642.6563,439.0456 643.25,438.78 Q643.8438,438.4988 644.4688,437.9206 L644.4688,440.6394 Z " fill="#000000"/><a href="https://bo4e.github.io/BO4E-python/latest/api/bo4e.com.html#bo4e.com.tarifeinschraenkung.Tarifeinschraenkung" target="_top" title="https://bo4e.github.io/BO4E-python/latest/api/bo4e.com.html#bo4e.com.tarifeinschraenkung.Tarifeinschraenkung" xlink:actuate="onRequest" xlink:href="https://bo4e.github.io/BO4E-python/latest/api/bo4e.com.html#bo4e.com.tarifeinschraenkung.Tarifeinschraenkung" xlink:show="new" xlink:title="https://bo4e.github.io/BO4E-python/latest/api/bo4e.com.html#bo4e.com.tarifeinschraenkung.Tarifeinschraenkung" xlink:type="simple"><text fill="#0000FF" font-family="sans-serif" font-size="14" lengthAdjust="spacing" text-decoration="underline" textLength="141" x="658" y="434.0251">Tarifeinschraenkung</text></a><text fill="#000000" font-family="sans-serif" font-size="10" lengthAdjust="spacing" textLength="146" x="655.5" y="446.6091">bo4e.com.tarifeinschraenkung</text></g><!--class Preisgarantie--><g id="elem_Preisgarantie"><rect codeLine="18" fill="#F1F1F1" height="37.9375" id="Preisgarantie" rx="2.5" ry="2.5" style="stroke:#181818;stroke-width:0.5;" width="146" x="642.5" y="489.03"/><ellipse cx="657.5" cy="507.9988" fill="#ADD1B2" rx="11" ry="11" style="stroke:#181818;stroke-width:1.0;"/><path d="M660.4688,513.6394 Q659.8906,513.9363 659.25,514.0769 Q658.6094,514.2331 657.9063,514.2331 Q655.4063,514.2331 654.0781,512.5925 Q652.7656,510.9363 652.7656,507.8113 Q652.7656,504.6863 654.0781,503.03 Q655.4063,501.3738 657.9063,501.3738 Q658.6094,501.3738 659.25,501.53 Q659.9063,501.6863 660.4688,501.9831 L660.4688,504.7019 Q659.8438,504.1238 659.25,503.8581 Q658.6563,503.5769 658.0313,503.5769 Q656.6875,503.5769 656,504.655 Q655.3125,505.7175 655.3125,507.8113 Q655.3125,509.905 656,510.9831 Q656.6875,512.0456 658.0313,512.0456 Q658.6563,512.0456 659.25,511.78 Q659.8438,511.4988 660.4688,510.9206 L660.4688,513.6394 Z " fill="#000000"/><a href="https://bo4e.github.io/BO4E-python/latest/api/bo4e.com.html#bo4e.com.preisgarantie.Preisgarantie" target="_top" title="https://bo4e.github.io/BO4E-python/latest/api/bo4e.com.html#bo4e.com.preisgarantie.Preisgarantie" xlink:actuate="onRequest" xlink:href="https://bo4e.github.io/BO4E-python/latest/api/bo4e.com.html#bo4e.com.preisgarantie.Preisgarantie" xlink:show="new" xlink:title="https://bo4e.github.io/BO4E-python/latest/api/bo4e.com.html#bo4e.com.preisgarantie.Preisgarantie" xlink:type="simple"><text fill="#0000FF" font-family="sans-serif" font-size="14" lengthAdjust="spacing" text-decoration="underline" textLength="90" x="683.5" y="507.0251">Preisgarantie</text></a><text fill="#000000" font-family="sans-serif" font-size="10" lengthAdjust="spacing" textLength="114" x="671.5" y="519.6091">bo4e.com.preisgarantie</text></g><!--class Typ--><g id="elem_Typ"><rect codeLine="21" fill="#F1F1F1" height="37.9375" id="Typ" rx="2.5" ry="2.5" style="stroke:#181818;stroke-width:0.5;" width="106" x="662.5" y="602.03"/><ellipse cx="677.5" cy="620.9988" fill="#ADD1B2" rx="11" ry="11" style="stroke:#181818;stroke-width:1.0;"/><path d="M680.4688,626.6394 Q679.8906,626.9363 679.25,627.0769 Q678.6094,627.2331 677.9063,627.2331 Q675.4063,627.2331 674.0781,625.5925 Q672.7656,623.9363 672.7656,620.8113 Q672.7656,617.6863 674.0781,616.03 Q675.4063,614.3738 677.9063,614.3738 Q678.6094,614.3738 679.25,614.53 Q679.9063,614.6863 680.4688,614.9831 L680.4688,617.7019 Q679.8438,617.1238 679.25,616.8581 Q678.6563,616.5769 678.0313,616.5769 Q676.6875,616.5769 676,617.655 Q675.3125,618.7175 675.3125,620.8113 Q675.3125,622.905 676,623.9831 Q676.6875,625.0456 678.0313,625.0456 Q678.6563,625.0456 679.25,624.78 Q679.8438,624.4988 680.4688,623.9206 L680.4688,626.6394 Z " fill="#000000"/><a href="https://bo4e.github.io/BO4E-python/latest/api/bo4e.enum.html#bo4e.enum.typ.Typ" target="_top" title="https://bo4e.github.io/BO4E-python/latest/api/bo4e.enum.html#bo4e.enum.typ.Typ" xlink:actuate="onRequest" xlink:href="https://bo4e.github.io/BO4E-python/latest/api/bo4e.enum.html#bo4e.enum.typ.Typ" xlink:show="new" xlink:title="https://bo4e.github.io/BO4E-python/latest/api/bo4e.enum.html#bo4e.enum.typ.Typ" xlink:type="simple"><text fill="#0000FF" font-family="sans-serif" font-size="14" lengthAdjust="spacing" text-decoration="underline" textLength="25" x="716" y="620.0251">Typ</text></a><text fill="#000000" font-family="sans-serif" font-size="10" lengthAdjust="spacing" textLength="74" x="691.5" y="632.6091">bo4e.enum.typ</text></g><!--class Tarif--><g id="elem_Tarif"><rect codeLine="3" fill="#F1F1F1" height="111.125" id="Tarif" rx="2.5" ry="2.5" style="stroke:#181818;stroke-width:0.5;" width="357" x="7" y="306.44"/><ellipse cx="150.25" cy="325.4088" fill="#ADD1B2" rx="11" ry="11" style="stroke:#181818;stroke-width:1.0;"/><path d="M153.2188,331.0494 Q152.6406,331.3463 152,331.4869 Q151.3594,331.6431 150.6563,331.6431 Q148.1563,331.6431 146.8281,330.0025 Q145.5156,328.3463 145.5156,325.2213 Q145.5156,322.0963 146.8281,320.44 Q148.1563,318.7838 150.6563,318.7838 Q151.3594,318.7838 152,318.94 Q152.6563,319.0963 153.2188,319.3931 L153.2188,322.1119 Q152.5938,321.5338 152,321.2681 Q151.4063,320.9869 150.7813,320.9869 Q149.4375,320.9869 148.75,322.065 Q148.0625,323.1275 148.0625,325.2213 Q148.0625,327.315 148.75,328.3931 Q149.4375,329.4556 150.7813,329.4556 Q151.4063,329.4556 152,329.19 Q152.5938,328.9088 153.2188,328.3306 L153.2188,331.0494 Z " fill="#000000"/><a href="https://bo4e.github.io/BO4E-python/latest/api/bo4e.bo.html#bo4e.bo.tarif.Tarif" target="_top" title="https://bo4e.github.io/BO4E-python/latest/api/bo4e.bo.html#bo4e.bo.tarif.Tarif" xlink:actuate="onRequest" xlink:href="https://bo4e.github.io/BO4E-python/latest/api/bo4e.bo.html#bo4e.bo.tarif.Tarif" xlink:show="new" xlink:title="https://bo4e.github.io/BO4E-python/latest/api/bo4e.bo.html#bo4e.bo.tarif.Tarif" xlink:type="simple"><text fill="#0000FF" font-family="sans-serif" font-size="14" lengthAdjust="spacing" text-decoration="underline" textLength="29" x="187.25" y="324.4351">Tarif</text></a><text fill="#000000" font-family="sans-serif" font-size="10" lengthAdjust="spacing" textLength="62" x="170.75" y="337.0191">bo4e.bo.tarif</text><line style="stroke:#181818;stroke-width:0.5;" x1="8" x2="363" y1="344.3775" y2="344.3775"/><text fill="#000000" font-family="sans-serif" font-size="14" lengthAdjust="spacing" textLength="345" x="13" y="361.3726">_version : str [0..1] = 202401.2.2.dev9+g97f0633</text><text fill="#000000" font-family="sans-serif" font-size="14" lengthAdjust="spacing" textLength="311" x="13" y="377.6695">zusatzAttribute : ZusatzAttribut [0..*] = None</text><text fill="#000000" font-family="sans-serif" font-size="14" lengthAdjust="spacing" textLength="147" x="13" y="393.9664">_id : str [0..1] = None</text><text fill="#000000" font-family="sans-serif" font-size="14" lengthAdjust="spacing" textLength="288" x="13" y="410.2632">preisstand : AwareDatetime [0..1] = None</text></g><!--link Tarif to Tarifinfo--><g id="link_Tarif_Tarifinfo"><path codeLine="24" d="M262.95,306.24 C301.14,279.87 348.76,249.17 394,226 C483.38,180.22 576.8319,146.985 641.9819,125.805 " fill="none" id="Tarif-to-Tarifinfo" style="stroke:#181818;stroke-width:1.0;"/><polygon fill="none" points="659.1,120.24,640.1269,120.099,643.8369,131.5111,659.1,120.24" style="stroke:#181818;stroke-width:1.0;"/></g><!--link Tarif to Typ--><g id="link_Tarif_Typ"><path codeLine="25" d="M261.33,417.74 C299.73,444.77 348,476.4 394,500 C484.63,546.48 585.9724,581.321 650.7324,601.681 " fill="none" id="Tarif-to-Typ" style="stroke:#181818;stroke-width:1.0;"/><polygon fill="#181818" points="662.18,605.28,657.6559,599.6646,650.7324,601.681,655.2565,607.2963,662.18,605.28" style="stroke:#181818;stroke-width:1.0;"/><text fill="#000000" font-family="sans-serif" font-size="13" lengthAdjust="spacing" textLength="27" x="457" y="496.0669">_typ</text><text fill="#000000" font-family="sans-serif" font-size="13" lengthAdjust="spacing" textLength="24" x="630.6274" y="616.4043">0..1</text></g><!--link Tarif to Tarifberechnungsparameter--><g id="link_Tarif_Tarifberechnungsparameter"><path codeLine="26" d="M364.15,362 C443.07,362 521.55,362 590.79,362 " fill="none" id="Tarif-to-Tarifberechnungsparameter" style="stroke:#181818;stroke-width:1.0;"/><polygon fill="#181818" points="602.79,362,596.79,358,590.79,362,596.79,366,602.79,362" style="stroke:#181818;stroke-width:1.0;"/><text fill="#000000" font-family="sans-serif" font-size="13" lengthAdjust="spacing" textLength="151" x="395" y="358.0669">berechnungsparameter</text><text fill="#000000" font-family="sans-serif" font-size="13" lengthAdjust="spacing" textLength="24" x="571.1905" y="374.528">0..1</text></g><!--link Tarif to TarifpreispositionProOrt--><g id="link_Tarif_TarifpreispositionProOrt"><path codeLine="27" d="M336.81,305.98 C355.95,299.56 375.36,293.4 394,288 C468.36,266.47 542.2214,249.9247 606.2514,236.8847 " fill="none" id="Tarif-to-TarifpreispositionProOrt" style="stroke:#181818;stroke-width:1.0;"/><polygon fill="#181818" points="618.01,234.49,611.3325,231.7678,606.2514,236.8847,612.9289,239.6069,618.01,234.49" style="stroke:#181818;stroke-width:1.0;"/><text fill="#000000" font-family="sans-serif" font-size="13" lengthAdjust="spacing" textLength="64" x="438.5" y="247.0669">tarifpreise</text><text fill="#000000" font-family="sans-serif" font-size="13" lengthAdjust="spacing" textLength="23" x="587.3466" y="248.3891">0..*</text></g><!--link Tarif to AufAbschlagRegional--><g id="link_Tarif_AufAbschlagRegional"><path codeLine="28" d="M364.15,337.44 C452.05,325.29 542.413,312.7929 613.683,302.9429 " fill="none" id="Tarif-to-AufAbschlagRegional" style="stroke:#181818;stroke-width:1.0;"/><polygon fill="#181818" points="625.57,301.3,619.0789,298.1591,613.683,302.9429,620.1741,306.0838,625.57,301.3" style="stroke:#181818;stroke-width:1.0;"/><text fill="#000000" font-family="sans-serif" font-size="13" lengthAdjust="spacing" textLength="120" x="410.5" y="309.0669">tarifAufAbschlaege</text><text fill="#000000" font-family="sans-serif" font-size="13" lengthAdjust="spacing" textLength="23" x="595.1212" y="314.8259">0..*</text></g><!--link Tarif to Preisgarantie--><g id="link_Tarif_Preisgarantie"><path codeLine="29" d="M334.22,418.01 C354.18,424.81 374.5,431.34 394,437 C478.15,461.42 565.0477,479.8446 630.4477,492.4746 " fill="none" id="Tarif-to-Preisgarantie" style="stroke:#181818;stroke-width:1.0;"/><polygon fill="#181818" points="642.23,494.75,637.0973,489.6849,630.4477,492.4746,635.5804,497.5397,642.23,494.75" style="stroke:#181818;stroke-width:1.0;"/><text fill="#000000" font-family="sans-serif" font-size="13" lengthAdjust="spacing" textLength="84" x="428.5" y="433.0669">preisgarantie</text><text fill="#000000" font-family="sans-serif" font-size="13" lengthAdjust="spacing" textLength="24" x="610.3692" y="506.2931">0..1</text></g><!--link Tarif to Tarifeinschraenkung--><g id="link_Tarif_Tarifeinschraenkung"><path codeLine="30" d="M364.15,386.56 C452.35,398.76 543.1129,411.3076 614.4029,421.1576 " fill="none" id="Tarif-to-Tarifeinschraenkung" style="stroke:#181818;stroke-width:1.0;"/><polygon fill="#181818" points="626.29,422.8,620.8939,418.0164,614.4029,421.1576,619.799,425.9412,626.29,422.8" style="stroke:#181818;stroke-width:1.0;"/><text fill="#000000" font-family="sans-serif" font-size="13" lengthAdjust="spacing" textLength="126" x="407.5" y="387.0669">tarifeinschraenkung</text><text fill="#000000" font-family="sans-serif" font-size="13" lengthAdjust="spacing" textLength="24" x="594.5411" y="434.5122">0..1</text></g><!--SRC=[jLNTRvim47ykVyKfUSiKyhcqHLibklPrhQO-BOigGmwmHcnacrR9klzzDf0Gg9Cz91K2SH- -y-ztvtEAaGB5GT0uKR2a0aD5ENESC2LIGcS-JvJAf3SO17oARanLaWSkvOFRX-bzFrkhXBD1IXHADI0PBRq2xYPgbNQtWYA2HkwJ-KBnNIn-iI-IRj0R3MyQNXqWilI1Fyx5ymiAgRS37aWbO3vqtT42li9uE9uEH-vOFqjykVuKNrz6mzbaubniSadKnbTAq21Ng1V-R6YA63qJupjdg3FGPJjuQSW4KYaLOSRklnA1TngbeYjiUVvr74PMA3CIucbyGIKi5WKBbGJTszdTfNzb-3XxKIYBU5aOymUxlyC5CjQwI4RI39nAGCXNUmneQPy2BKBtVkXVpRwToi4sJtSd5PYAMcTSKjFwcU1Sg9AKXk5Hy0UXu93XFMN7ujSKMaAT6oJ98nB8C4b9B33MQKZg-ddaLxeVbGuiEZigIy02a2N0XnGiG3sd4fQpM7UTqCsdK9GLirdWeEL8pMpkTT5irWz1YfHfFWL1zbidAp4sTM3H7S7LTAmHDVNdnb8qUQoPOegY-xWlGKEoxxonlDXpOz4P9X2oV7y46N5_1XaPkijHEFbyyY3UfUhMebfdxjCw0_s-Ps3hKHPhdPahfxfD-_stc-r5KS_nhLMRUz0njrMdXb7ayU1P1ppePpW_V9myiBP_ErYl7SmsJJse9oGU3M4RMDNgseGn7WNLx3mF6etrVpfQ9wzAtpewJaAN22jSQPQa8nF-2bNWY6AwbFy0]--></g></svg>