<?xml version="1.0" encoding="us-ascii" standalone="no"?><svg xmlns="http://www.w3.org/2000/svg" xmlns:xlink="http://www.w3.org/1999/xlink" contentStyleType="text/css" height="242px" preserveAspectRatio="none" style="width:647px;height:242px;background:#FFFFFF;" version="1.1" viewBox="0 0 647 242" width="647px" zoomAndPan="magnify"><defs/><g><!--cluster bo4e--><g id="cluster_bo4e"><path d="M450.5,6 L491.5,6 A3.75,3.75 0 0 1 494,8.5 L501,28.2969 L637.5,28.2969 A2.5,2.5 0 0 1 640,30.7969 L640,232.5 A2.5,2.5 0 0 1 637.5,235 L450.5,235 A2.5,2.5 0 0 1 448,232.5 L448,8.5 A2.5,2.5 0 0 1 450.5,6 " fill="none" style="stroke:#000000;stroke-width:1.5;"/><line style="stroke:#000000;stroke-width:1.5;" x1="448" x2="501" y1="28.2969" y2="28.2969"/><text fill="#000000" font-family="sans-serif" font-size="14" font-weight="bold" lengthAdjust="spacing" textLength="40" x="452" y="20.9951">bo4e</text></g><!--cluster bo--><g id="cluster_bo"><path d="M474.5,49 L540.5,49 A3.75,3.75 0 0 1 543,51.5 L550,71.2969 L613.5,71.2969 A2.5,2.5 0 0 1 616,73.7969 L616,208.5 A2.5,2.5 0 0 1 613.5,211 L474.5,211 A2.5,2.5 0 0 1 472,208.5 L472,51.5 A2.5,2.5 0 0 1 474.5,49 " fill="#B6D7A8" style="stroke:#000000;stroke-width:1.5;"/><line style="stroke:#000000;stroke-width:1.5;" x1="472" x2="550" y1="71.2969" y2="71.2969"/><a href="https://bo4e.github.io/BO4E-python/latest/api/bo4e.bo.html" target="_top" title="https://bo4e.github.io/BO4E-python/latest/api/bo4e.bo.html" xlink:actuate="onRequest" xlink:href="https://bo4e.github.io/BO4E-python/latest/api/bo4e.bo.html" xlink:show="new" xlink:title="https://bo4e.github.io/BO4E-python/latest/api/bo4e.bo.html" xlink:type="simple"><text fill="#0000FF" font-family="sans-serif" font-size="14" font-weight="bold" lengthAdjust="spacing" text-decoration="underline" textLength="65" x="476" y="63.9951">bo4e.bo</text></a></g><!--class Tarifinfo--><g id="elem_Tarifinfo"><rect codeLine="10" fill="#F1F1F1" height="37.9375" id="Tarifinfo" rx="2.5" ry="2.5" style="stroke:#181818;stroke-width:0.5;" width="112" x="488" y="84.03"/><ellipse cx="503" cy="102.9988" fill="#ADD1B2" rx="11" ry="11" style="stroke:#181818;stroke-width:1.0;"/><path d="M505.9688,108.6394 Q505.3906,108.9363 504.75,109.0769 Q504.1094,109.2331 503.4063,109.2331 Q500.9063,109.2331 499.5781,107.5925 Q498.2656,105.9363 498.2656,102.8113 Q498.2656,99.6863 499.5781,98.03 Q500.9063,96.3738 503.4063,96.3738 Q504.1094,96.3738 504.75,96.53 Q505.4063,96.6863 505.9688,96.9831 L505.9688,99.7019 Q505.3438,99.1238 504.75,98.8581 Q504.1563,98.5769 503.5313,98.5769 Q502.1875,98.5769 501.5,99.655 Q500.8125,100.7175 500.8125,102.8113 Q500.8125,104.905 501.5,105.9831 Q502.1875,107.0456 503.5313,107.0456 Q504.1563,107.0456 504.75,106.78 Q505.3438,106.4988 505.9688,105.9206 L505.9688,108.6394 Z " fill="#000000"/><a href="https://bo4e.github.io/BO4E-python/latest/api/bo4e.bo.html#bo4e.bo.tarifinfo.Tarifinfo" target="_top" title="https://bo4e.github.io/BO4E-python/latest/api/bo4e.bo.html#bo4e.bo.tarifinfo.Tarifinfo" xlink:actuate="onRequest" xlink:href="https://bo4e.github.io/BO4E-python/latest/api/bo4e.bo.html#bo4e.bo.tarifinfo.Tarifinfo" xlink:show="new" xlink:title="https://bo4e.github.io/BO4E-python/latest/api/bo4e.bo.html#bo4e.bo.tarifinfo.Tarifinfo" xlink:type="simple"><text fill="#0000FF" font-family="sans-serif" font-size="14" lengthAdjust="spacing" text-decoration="underline" textLength="54" x="530" y="102.0251">Tarifinfo</text></a><text fill="#000000" font-family="sans-serif" font-size="10" lengthAdjust="spacing" textLength="80" x="517" y="114.6091">bo4e.bo.tarifinfo</text></g><!--class Kosten--><g id="elem_Kosten"><rect codeLine="11" fill="#F1F1F1" height="37.9375" id="Kosten" rx="2.5" ry="2.5" style="stroke:#181818;stroke-width:0.5;" width="106" x="491" y="157.03"/><ellipse cx="506" cy="175.9988" fill="#ADD1B2" rx="11" ry="11" style="stroke:#181818;stroke-width:1.0;"/><path d="M508.9688,181.6394 Q508.3906,181.9363 507.75,182.0769 Q507.1094,182.2331 506.4063,182.2331 Q503.9063,182.2331 502.5781,180.5925 Q501.2656,178.9363 501.2656,175.8113 Q501.2656,172.6863 502.5781,171.03 Q503.9063,169.3738 506.4063,169.3738 Q507.1094,169.3738 507.75,169.53 Q508.4063,169.6863 508.9688,169.9831 L508.9688,172.7019 Q508.3438,172.1238 507.75,171.8581 Q507.1563,171.5769 506.5313,171.5769 Q505.1875,171.5769 504.5,172.655 Q503.8125,173.7175 503.8125,175.8113 Q503.8125,177.905 504.5,178.9831 Q505.1875,180.0456 506.5313,180.0456 Q507.1563,180.0456 507.75,179.78 Q508.3438,179.4988 508.9688,178.9206 L508.9688,181.6394 Z " fill="#000000"/><a href="https://bo4e.github.io/BO4E-python/latest/api/bo4e.bo.html#bo4e.bo.kosten.Kosten" target="_top" title="https://bo4e.github.io/BO4E-python/latest/api/bo4e.bo.html#bo4e.bo.kosten.Kosten" xlink:actuate="onRequest" xlink:href="https://bo4e.github.io/BO4E-python/latest/api/bo4e.bo.html#bo4e.bo.kosten.Kosten" xlink:show="new" xlink:title="https://bo4e.github.io/BO4E-python/latest/api/bo4e.bo.html#bo4e.bo.kosten.Kosten" xlink:type="simple"><text fill="#0000FF" font-family="sans-serif" font-size="14" lengthAdjust="spacing" text-decoration="underline" textLength="49" x="532.5" y="175.0251">Kosten</text></a><text fill="#000000" font-family="sans-serif" font-size="10" lengthAdjust="spacing" textLength="74" x="520" y="187.6091">bo4e.bo.kosten</text></g><!--class Tarifkosten--><g id="elem_Tarifkosten"><rect codeLine="3" fill="#F1F1F1" height="94.8281" id="Tarifkosten" rx="2.5" ry="2.5" style="stroke:#181818;stroke-width:0.5;" width="350" x="7" y="92.59"/><ellipse cx="130.75" cy="111.5588" fill="#ADD1B2" rx="11" ry="11" style="stroke:#181818;stroke-width:1.0;"/><path d="M133.7188,117.1994 Q133.1406,117.4963 132.5,117.6369 Q131.8594,117.7931 131.1563,117.7931 Q128.6563,117.7931 127.3281,116.1525 Q126.0156,114.4963 126.0156,111.3713 Q126.0156,108.2463 127.3281,106.59 Q128.6563,104.9338 131.1563,104.9338 Q131.8594,104.9338 132.5,105.09 Q133.1563,105.2463 133.7188,105.5431 L133.7188,108.2619 Q133.0938,107.6838 132.5,107.4181 Q131.9063,107.1369 131.2813,107.1369 Q129.9375,107.1369 129.25,108.215 Q128.5625,109.2775 128.5625,111.3713 Q128.5625,113.465 129.25,114.5431 Q129.9375,115.6056 131.2813,115.6056 Q131.9063,115.6056 132.5,115.34 Q133.0938,115.0588 133.7188,114.4806 L133.7188,117.1994 Z " fill="#000000"/><a href="https://bo4e.github.io/BO4E-python/latest/api/bo4e.bo.html#bo4e.bo.tarifkosten.Tarifkosten" target="_top" title="https://bo4e.github.io/BO4E-python/latest/api/bo4e.bo.html#bo4e.bo.tarifkosten.Tarifkosten" xlink:actuate="onRequest" xlink:href="https://bo4e.github.io/BO4E-python/latest/api/bo4e.bo.html#bo4e.bo.tarifkosten.Tarifkosten" xlink:show="new" xlink:title="https://bo4e.github.io/BO4E-python/latest/api/bo4e.bo.html#bo4e.bo.tarifkosten.Tarifkosten" xlink:type="simple"><text fill="#0000FF" font-family="sans-serif" font-size="14" lengthAdjust="spacing" text-decoration="underline" textLength="77" x="159.75" y="110.5851">Tarifkosten</text></a><text fill="#000000" font-family="sans-serif" font-size="10" lengthAdjust="spacing" textLength="94" x="151.25" y="123.1691">bo4e.bo.tarifkosten</text><line style="stroke:#181818;stroke-width:0.5;" x1="8" x2="356" y1="130.5275" y2="130.5275"/><text fill="#000000" font-family="sans-serif" font-size="14" lengthAdjust="spacing" textLength="338" x="13" y="147.5226">_version : str [0..1] = 202401.5.1.dev1+g6faf2fbf</text><text fill="#000000" font-family="sans-serif" font-size="14" lengthAdjust="spacing" textLength="311" x="13" y="163.8195">zusatzAttribute : ZusatzAttribut [0..*] = None</text><text fill="#000000" font-family="sans-serif" font-size="14" lengthAdjust="spacing" textLength="147" x="13" y="180.1164">_id : str [0..1] = None</text></g><!--link Tarifkosten to Tarifinfo--><g id="link_Tarifkosten_Tarifinfo"><path codeLine="14" d="M357.46,122.07 C404.8,117.2 434.7447,114.1339 469.9947,110.5039 " fill="none" id="Tarifkosten-to-Tarifinfo" style="stroke:#181818;stroke-width:1.0;"/><polygon fill="none" points="487.9,108.66,469.3801,104.5354,470.6093,116.4723,487.9,108.66" style="stroke:#181818;stroke-width:1.0;"/></g><!--link Tarifkosten to Kosten--><g id="link_Tarifkosten_Kosten"><path codeLine="15" d="M357.46,157.45 C406.06,162.31 443.2496,166.0256 478.7396,169.5756 " fill="none" id="Tarifkosten-to-Kosten" style="stroke:#181818;stroke-width:1.0;"/><polygon fill="#181818" points="490.68,170.77,485.1079,166.1927,478.7396,169.5756,484.3117,174.1529,490.68,170.77" style="stroke:#181818;stroke-width:1.0;"/><text fill="#000000" font-family="sans-serif" font-size="13" lengthAdjust="spacing" textLength="43" x="388" y="158.0669">kosten</text><text fill="#000000" font-family="sans-serif" font-size="13" lengthAdjust="spacing" textLength="24" x="459.1274" y="183.1072">0..1</text></g><!--SRC=[hL9DJy9043spls9IRXYsBK4qZP90z4IY5qzYOxPqbcvikqrtm8Zwt-tIyb4Z9xdDstaxN- -bA0b8GwcM2K6iIboGqZbZYrGO0yvydX0L9d3TI0-HBnKbguWhxKuVX_VzueCIdRkf83JaYaBLh4ZpXBAqkmCaIYNVj27C-TCXXgCu35_o6wCs6FZU-8z_3WXpp8TFrdbTOscgOI40GoNCFSxz46vXu0s6diylkSzZNFiNov4KSY0ZoJgRbH6qcH2LAbeHLZ-VMo_R8ZrRv47dMBLGyU_gsyGtOxd8q1HYWVyx4ZGW3BShDWYwqz7TrUJQhdbs9LGkTQs3ZM0VdTR0PWyAM7JUiHflp6ffPwSTSMI6ccMLQ7cgt_yQxwvuMBBDgKWzSAoWpfxQz0wWvZ2Mg1WXmoogJCPCej-XLKCgJ6Fp0m00]--></g></svg>