<?xml version="1.0" encoding="us-ascii" standalone="no"?><svg xmlns="http://www.w3.org/2000/svg" xmlns:xlink="http://www.w3.org/1999/xlink" contentStyleType="text/css" height="574px" preserveAspectRatio="none" style="width:880px;height:574px;background:#FFFFFF;" version="1.1" viewBox="0 0 880 574" width="880px" zoomAndPan="magnify"><defs/><g><!--cluster bo4e--><g id="cluster_bo4e"><path d="M570.5,6 L611.5,6 A3.75,3.75 0 0 1 614,8.5 L621,28.2969 L870.5,28.2969 A2.5,2.5 0 0 1 873,30.7969 L873,564.5 A2.5,2.5 0 0 1 870.5,567 L570.5,567 A2.5,2.5 0 0 1 568,564.5 L568,8.5 A2.5,2.5 0 0 1 570.5,6 " fill="none" style="stroke:#000000;stroke-width:1.5;"/><line style="stroke:#000000;stroke-width:1.5;" x1="568" x2="621" y1="28.2969" y2="28.2969"/><text fill="#000000" font-family="sans-serif" font-size="14" font-weight="bold" lengthAdjust="spacing" textLength="40" x="572" y="20.9951">bo4e</text></g><!--cluster bo--><g id="cluster_bo"><path d="M651,49 L717,49 A3.75,3.75 0 0 1 719.5,51.5 L726.5,71.2969 L790,71.2969 A2.5,2.5 0 0 1 792.5,73.7969 L792.5,135.5 A2.5,2.5 0 0 1 790,138 L651,138 A2.5,2.5 0 0 1 648.5,135.5 L648.5,51.5 A2.5,2.5 0 0 1 651,49 " fill="#B6D7A8" style="stroke:#000000;stroke-width:1.5;"/><line style="stroke:#000000;stroke-width:1.5;" x1="648.5" x2="726.5" y1="71.2969" y2="71.2969"/><a href="https://bo4e.github.io/BO4E-python/latest/api/bo4e.bo.html" target="_top" title="https://bo4e.github.io/BO4E-python/latest/api/bo4e.bo.html" xlink:actuate="onRequest" xlink:href="https://bo4e.github.io/BO4E-python/latest/api/bo4e.bo.html" xlink:show="new" xlink:title="https://bo4e.github.io/BO4E-python/latest/api/bo4e.bo.html" xlink:type="simple"><text fill="#0000FF" font-family="sans-serif" font-size="14" font-weight="bold" lengthAdjust="spacing" text-decoration="underline" textLength="65" x="652.5" y="63.9951">bo4e.bo</text></a></g><!--cluster com--><g id="cluster_com"><path d="M594.5,162 L673.5,162 A3.75,3.75 0 0 1 676,164.5 L683,184.2969 L846.5,184.2969 A2.5,2.5 0 0 1 849,186.7969 L849,540.5 A2.5,2.5 0 0 1 846.5,543 L594.5,543 A2.5,2.5 0 0 1 592,540.5 L592,164.5 A2.5,2.5 0 0 1 594.5,162 " fill="#E0A86C" style="stroke:#000000;stroke-width:1.5;"/><line style="stroke:#000000;stroke-width:1.5;" x1="592" x2="683" y1="184.2969" y2="184.2969"/><a href="https://bo4e.github.io/BO4E-python/latest/api/bo4e.com.html" target="_top" title="https://bo4e.github.io/BO4E-python/latest/api/bo4e.com.html" xlink:actuate="onRequest" xlink:href="https://bo4e.github.io/BO4E-python/latest/api/bo4e.com.html" xlink:show="new" xlink:title="https://bo4e.github.io/BO4E-python/latest/api/bo4e.com.html" xlink:type="simple"><text fill="#0000FF" font-family="sans-serif" font-size="14" font-weight="bold" lengthAdjust="spacing" text-decoration="underline" textLength="78" x="596" y="176.9951">bo4e.com</text></a></g><!--class Tarifinfo--><g id="elem_Tarifinfo"><rect codeLine="11" fill="#F1F1F1" height="37.9375" id="Tarifinfo" rx="2.5" ry="2.5" style="stroke:#181818;stroke-width:0.5;" width="112" x="664.5" y="84.03"/><ellipse cx="679.5" cy="102.9987" fill="#ADD1B2" rx="11" ry="11" style="stroke:#181818;stroke-width:1.0;"/><path d="M682.4688,108.6394 Q681.8906,108.9362 681.25,109.0769 Q680.6094,109.2331 679.9063,109.2331 Q677.4063,109.2331 676.0781,107.5925 Q674.7656,105.9362 674.7656,102.8112 Q674.7656,99.6862 676.0781,98.03 Q677.4063,96.3737 679.9063,96.3737 Q680.6094,96.3737 681.25,96.53 Q681.9063,96.6862 682.4688,96.9831 L682.4688,99.7019 Q681.8438,99.1237 681.25,98.8581 Q680.6563,98.5769 680.0313,98.5769 Q678.6875,98.5769 678,99.655 Q677.3125,100.7175 677.3125,102.8112 Q677.3125,104.905 678,105.9831 Q678.6875,107.0456 680.0313,107.0456 Q680.6563,107.0456 681.25,106.78 Q681.8438,106.4987 682.4688,105.9206 L682.4688,108.6394 Z " fill="#000000"/><a href="https://bo4e.github.io/BO4E-python/latest/api/bo4e.bo.html#bo4e.bo.tarifinfo.Tarifinfo" target="_top" title="https://bo4e.github.io/BO4E-python/latest/api/bo4e.bo.html#bo4e.bo.tarifinfo.Tarifinfo" xlink:actuate="onRequest" xlink:href="https://bo4e.github.io/BO4E-python/latest/api/bo4e.bo.html#bo4e.bo.tarifinfo.Tarifinfo" xlink:show="new" xlink:title="https://bo4e.github.io/BO4E-python/latest/api/bo4e.bo.html#bo4e.bo.tarifinfo.Tarifinfo" xlink:type="simple"><text fill="#0000FF" font-family="sans-serif" font-size="14" lengthAdjust="spacing" text-decoration="underline" textLength="54" x="706.5" y="102.0251">Tarifinfo</text></a><text fill="#000000" font-family="sans-serif" font-size="10" lengthAdjust="spacing" textLength="80" x="693.5" y="114.6091">bo4e.bo.tarifinfo</text></g><!--class Tarifberechnungsparameter--><g id="elem_Tarifberechnungsparameter"><rect codeLine="14" fill="#F1F1F1" height="37.9375" id="Tarifberechnungsparameter" rx="2.5" ry="2.5" style="stroke:#181818;stroke-width:0.5;" width="225" x="608" y="197.03"/><ellipse cx="623" cy="215.9987" fill="#ADD1B2" rx="11" ry="11" style="stroke:#181818;stroke-width:1.0;"/><path d="M625.9688,221.6394 Q625.3906,221.9362 624.75,222.0769 Q624.1094,222.2331 623.4063,222.2331 Q620.9063,222.2331 619.5781,220.5925 Q618.2656,218.9362 618.2656,215.8112 Q618.2656,212.6862 619.5781,211.03 Q620.9063,209.3737 623.4063,209.3737 Q624.1094,209.3737 624.75,209.53 Q625.4063,209.6862 625.9688,209.9831 L625.9688,212.7019 Q625.3438,212.1237 624.75,211.8581 Q624.1563,211.5769 623.5313,211.5769 Q622.1875,211.5769 621.5,212.655 Q620.8125,213.7175 620.8125,215.8112 Q620.8125,217.905 621.5,218.9831 Q622.1875,220.0456 623.5313,220.0456 Q624.1563,220.0456 624.75,219.78 Q625.3438,219.4987 625.9688,218.9206 L625.9688,221.6394 Z " fill="#000000"/><a href="https://bo4e.github.io/BO4E-python/latest/api/bo4e.com.html#bo4e.com.tarifberechnungsparameter.Tarifberechnungsparameter" target="_top" title="https://bo4e.github.io/BO4E-python/latest/api/bo4e.com.html#bo4e.com.tarifberechnungsparameter.Tarifberechnungsparameter" xlink:actuate="onRequest" xlink:href="https://bo4e.github.io/BO4E-python/latest/api/bo4e.com.html#bo4e.com.tarifberechnungsparameter.Tarifberechnungsparameter" xlink:show="new" xlink:title="https://bo4e.github.io/BO4E-python/latest/api/bo4e.com.html#bo4e.com.tarifberechnungsparameter.Tarifberechnungsparameter" xlink:type="simple"><text fill="#0000FF" font-family="sans-serif" font-size="14" lengthAdjust="spacing" text-decoration="underline" textLength="193" x="637" y="215.0251">Tarifberechnungsparameter</text></a><text fill="#000000" font-family="sans-serif" font-size="10" lengthAdjust="spacing" textLength="185" x="641" y="227.6091">bo4e.com.tarifberechnungsparameter</text></g><!--class AufAbschlag--><g id="elem_AufAbschlag"><rect codeLine="15" fill="#F1F1F1" height="37.9375" id="AufAbschlag" rx="2.5" ry="2.5" style="stroke:#181818;stroke-width:0.5;" width="141" x="650" y="270.03"/><ellipse cx="665" cy="288.9988" fill="#ADD1B2" rx="11" ry="11" style="stroke:#181818;stroke-width:1.0;"/><path d="M667.9688,294.6394 Q667.3906,294.9363 666.75,295.0769 Q666.1094,295.2331 665.4063,295.2331 Q662.9063,295.2331 661.5781,293.5925 Q660.2656,291.9363 660.2656,288.8113 Q660.2656,285.6863 661.5781,284.03 Q662.9063,282.3738 665.4063,282.3738 Q666.1094,282.3738 666.75,282.53 Q667.4063,282.6863 667.9688,282.9831 L667.9688,285.7019 Q667.3438,285.1238 666.75,284.8581 Q666.1563,284.5769 665.5313,284.5769 Q664.1875,284.5769 663.5,285.655 Q662.8125,286.7175 662.8125,288.8113 Q662.8125,290.905 663.5,291.9831 Q664.1875,293.0456 665.5313,293.0456 Q666.1563,293.0456 666.75,292.78 Q667.3438,292.4988 667.9688,291.9206 L667.9688,294.6394 Z " fill="#000000"/><a href="https://bo4e.github.io/BO4E-python/latest/api/bo4e.com.html#bo4e.com.aufabschlag.AufAbschlag" target="_top" title="https://bo4e.github.io/BO4E-python/latest/api/bo4e.com.html#bo4e.com.aufabschlag.AufAbschlag" xlink:actuate="onRequest" xlink:href="https://bo4e.github.io/BO4E-python/latest/api/bo4e.com.html#bo4e.com.aufabschlag.AufAbschlag" xlink:show="new" xlink:title="https://bo4e.github.io/BO4E-python/latest/api/bo4e.com.html#bo4e.com.aufabschlag.AufAbschlag" xlink:type="simple"><text fill="#0000FF" font-family="sans-serif" font-size="14" lengthAdjust="spacing" text-decoration="underline" textLength="85" x="691" y="288.0251">AufAbschlag</text></a><text fill="#000000" font-family="sans-serif" font-size="10" lengthAdjust="spacing" textLength="109" x="679" y="300.6091">bo4e.com.aufabschlag</text></g><!--class Tarifeinschraenkung--><g id="elem_Tarifeinschraenkung"><rect codeLine="16" fill="#F1F1F1" height="37.9375" id="Tarifeinschraenkung" rx="2.5" ry="2.5" style="stroke:#181818;stroke-width:0.5;" width="178" x="631.5" y="343.03"/><ellipse cx="646.5" cy="361.9988" fill="#ADD1B2" rx="11" ry="11" style="stroke:#181818;stroke-width:1.0;"/><path d="M649.4688,367.6394 Q648.8906,367.9363 648.25,368.0769 Q647.6094,368.2331 646.9063,368.2331 Q644.4063,368.2331 643.0781,366.5925 Q641.7656,364.9363 641.7656,361.8113 Q641.7656,358.6863 643.0781,357.03 Q644.4063,355.3738 646.9063,355.3738 Q647.6094,355.3738 648.25,355.53 Q648.9063,355.6863 649.4688,355.9831 L649.4688,358.7019 Q648.8438,358.1238 648.25,357.8581 Q647.6563,357.5769 647.0313,357.5769 Q645.6875,357.5769 645,358.655 Q644.3125,359.7175 644.3125,361.8113 Q644.3125,363.905 645,364.9831 Q645.6875,366.0456 647.0313,366.0456 Q647.6563,366.0456 648.25,365.78 Q648.8438,365.4988 649.4688,364.9206 L649.4688,367.6394 Z " fill="#000000"/><a href="https://bo4e.github.io/BO4E-python/latest/api/bo4e.com.html#bo4e.com.tarifeinschraenkung.Tarifeinschraenkung" target="_top" title="https://bo4e.github.io/BO4E-python/latest/api/bo4e.com.html#bo4e.com.tarifeinschraenkung.Tarifeinschraenkung" xlink:actuate="onRequest" xlink:href="https://bo4e.github.io/BO4E-python/latest/api/bo4e.com.html#bo4e.com.tarifeinschraenkung.Tarifeinschraenkung" xlink:show="new" xlink:title="https://bo4e.github.io/BO4E-python/latest/api/bo4e.com.html#bo4e.com.tarifeinschraenkung.Tarifeinschraenkung" xlink:type="simple"><text fill="#0000FF" font-family="sans-serif" font-size="14" lengthAdjust="spacing" text-decoration="underline" textLength="141" x="663" y="361.0251">Tarifeinschraenkung</text></a><text fill="#000000" font-family="sans-serif" font-size="10" lengthAdjust="spacing" textLength="146" x="660.5" y="373.6091">bo4e.com.tarifeinschraenkung</text></g><!--class Tarifpreisposition--><g id="elem_Tarifpreisposition"><rect codeLine="17" fill="#F1F1F1" height="37.9375" id="Tarifpreisposition" rx="2.5" ry="2.5" style="stroke:#181818;stroke-width:0.5;" width="163" x="639" y="416.03"/><ellipse cx="654" cy="434.9988" fill="#ADD1B2" rx="11" ry="11" style="stroke:#181818;stroke-width:1.0;"/><path d="M656.9688,440.6394 Q656.3906,440.9363 655.75,441.0769 Q655.1094,441.2331 654.4063,441.2331 Q651.9063,441.2331 650.5781,439.5925 Q649.2656,437.9363 649.2656,434.8113 Q649.2656,431.6863 650.5781,430.03 Q651.9063,428.3738 654.4063,428.3738 Q655.1094,428.3738 655.75,428.53 Q656.4063,428.6863 656.9688,428.9831 L656.9688,431.7019 Q656.3438,431.1238 655.75,430.8581 Q655.1563,430.5769 654.5313,430.5769 Q653.1875,430.5769 652.5,431.655 Q651.8125,432.7175 651.8125,434.8113 Q651.8125,436.905 652.5,437.9831 Q653.1875,439.0456 654.5313,439.0456 Q655.1563,439.0456 655.75,438.78 Q656.3438,438.4988 656.9688,437.9206 L656.9688,440.6394 Z " fill="#000000"/><a href="https://bo4e.github.io/BO4E-python/latest/api/bo4e.com.html#bo4e.com.tarifpreisposition.Tarifpreisposition" target="_top" title="https://bo4e.github.io/BO4E-python/latest/api/bo4e.com.html#bo4e.com.tarifpreisposition.Tarifpreisposition" xlink:actuate="onRequest" xlink:href="https://bo4e.github.io/BO4E-python/latest/api/bo4e.com.html#bo4e.com.tarifpreisposition.Tarifpreisposition" xlink:show="new" xlink:title="https://bo4e.github.io/BO4E-python/latest/api/bo4e.com.html#bo4e.com.tarifpreisposition.Tarifpreisposition" xlink:type="simple"><text fill="#0000FF" font-family="sans-serif" font-size="14" lengthAdjust="spacing" text-decoration="underline" textLength="118" x="674.5" y="434.0251">Tarifpreisposition</text></a><text fill="#000000" font-family="sans-serif" font-size="10" lengthAdjust="spacing" textLength="131" x="668" y="446.6091">bo4e.com.tarifpreisposition</text></g><!--class Preisgarantie--><g id="elem_Preisgarantie"><rect codeLine="18" fill="#F1F1F1" height="37.9375" id="Preisgarantie" rx="2.5" ry="2.5" style="stroke:#181818;stroke-width:0.5;" width="146" x="647.5" y="489.03"/><ellipse cx="662.5" cy="507.9988" fill="#ADD1B2" rx="11" ry="11" style="stroke:#181818;stroke-width:1.0;"/><path d="M665.4688,513.6394 Q664.8906,513.9363 664.25,514.0769 Q663.6094,514.2331 662.9063,514.2331 Q660.4063,514.2331 659.0781,512.5925 Q657.7656,510.9363 657.7656,507.8113 Q657.7656,504.6863 659.0781,503.03 Q660.4063,501.3738 662.9063,501.3738 Q663.6094,501.3738 664.25,501.53 Q664.9063,501.6863 665.4688,501.9831 L665.4688,504.7019 Q664.8438,504.1238 664.25,503.8581 Q663.6563,503.5769 663.0313,503.5769 Q661.6875,503.5769 661,504.655 Q660.3125,505.7175 660.3125,507.8113 Q660.3125,509.905 661,510.9831 Q661.6875,512.0456 663.0313,512.0456 Q663.6563,512.0456 664.25,511.78 Q664.8438,511.4988 665.4688,510.9206 L665.4688,513.6394 Z " fill="#000000"/><a href="https://bo4e.github.io/BO4E-python/latest/api/bo4e.com.html#bo4e.com.preisgarantie.Preisgarantie" target="_top" title="https://bo4e.github.io/BO4E-python/latest/api/bo4e.com.html#bo4e.com.preisgarantie.Preisgarantie" xlink:actuate="onRequest" xlink:href="https://bo4e.github.io/BO4E-python/latest/api/bo4e.com.html#bo4e.com.preisgarantie.Preisgarantie" xlink:show="new" xlink:title="https://bo4e.github.io/BO4E-python/latest/api/bo4e.com.html#bo4e.com.preisgarantie.Preisgarantie" xlink:type="simple"><text fill="#0000FF" font-family="sans-serif" font-size="14" lengthAdjust="spacing" text-decoration="underline" textLength="90" x="688.5" y="507.0251">Preisgarantie</text></a><text fill="#000000" font-family="sans-serif" font-size="10" lengthAdjust="spacing" textLength="114" x="676.5" y="519.6091">bo4e.com.preisgarantie</text></g><!--class Tarifpreisblatt--><g id="elem_Tarifpreisblatt"><rect codeLine="3" fill="#F1F1F1" height="111.125" id="Tarifpreisblatt" rx="2.5" ry="2.5" style="stroke:#181818;stroke-width:0.5;" width="362" x="7" y="274.44"/><ellipse cx="130.25" cy="293.4088" fill="#ADD1B2" rx="11" ry="11" style="stroke:#181818;stroke-width:1.0;"/><path d="M133.2188,299.0494 Q132.6406,299.3463 132,299.4869 Q131.3594,299.6431 130.6563,299.6431 Q128.1563,299.6431 126.8281,298.0025 Q125.5156,296.3463 125.5156,293.2213 Q125.5156,290.0963 126.8281,288.44 Q128.1563,286.7838 130.6563,286.7838 Q131.3594,286.7838 132,286.94 Q132.6563,287.0963 133.2188,287.3931 L133.2188,290.1119 Q132.5938,289.5338 132,289.2681 Q131.4063,288.9869 130.7813,288.9869 Q129.4375,288.9869 128.75,290.065 Q128.0625,291.1275 128.0625,293.2213 Q128.0625,295.315 128.75,296.3931 Q129.4375,297.4556 130.7813,297.4556 Q131.4063,297.4556 132,297.19 Q132.5938,296.9088 133.2188,296.3306 L133.2188,299.0494 Z " fill="#000000"/><a href="https://bo4e.github.io/BO4E-python/latest/api/bo4e.bo.html#bo4e.bo.tarifpreisblatt.Tarifpreisblatt" target="_top" title="https://bo4e.github.io/BO4E-python/latest/api/bo4e.bo.html#bo4e.bo.tarifpreisblatt.Tarifpreisblatt" xlink:actuate="onRequest" xlink:href="https://bo4e.github.io/BO4E-python/latest/api/bo4e.bo.html#bo4e.bo.tarifpreisblatt.Tarifpreisblatt" xlink:show="new" xlink:title="https://bo4e.github.io/BO4E-python/latest/api/bo4e.bo.html#bo4e.bo.tarifpreisblatt.Tarifpreisblatt" xlink:type="simple"><text fill="#0000FF" font-family="sans-serif" font-size="14" lengthAdjust="spacing" text-decoration="underline" textLength="93" x="157.75" y="292.4351">Tarifpreisblatt</text></a><text fill="#000000" font-family="sans-serif" font-size="10" lengthAdjust="spacing" textLength="107" x="150.75" y="305.0191">bo4e.bo.tarifpreisblatt</text><line style="stroke:#181818;stroke-width:0.5;" x1="8" x2="368" y1="312.3775" y2="312.3775"/><text fill="#000000" font-family="sans-serif" font-size="14" lengthAdjust="spacing" textLength="350" x="13" y="329.3726">_version : str [0..1] = 202401.6.1.dev5+gcf2aca71</text><text fill="#000000" font-family="sans-serif" font-size="14" lengthAdjust="spacing" textLength="311" x="13" y="345.6695">zusatzAttribute : ZusatzAttribut [0..*] = None</text><text fill="#000000" font-family="sans-serif" font-size="14" lengthAdjust="spacing" textLength="147" x="13" y="361.9664">_id : str [0..1] = None</text><text fill="#000000" font-family="sans-serif" font-size="14" lengthAdjust="spacing" textLength="288" x="13" y="378.2632">preisstand : AwareDatetime [0..1] = None</text></g><!--link Tarifpreisblatt to Tarifinfo--><g id="link_Tarifpreisblatt_Tarifinfo"><path codeLine="21" d="M293.1,274.03 C326.53,256.85 363.99,238.42 399,223 C490.22,182.84 582.4856,149.6255 646.9956,127.4755 " fill="none" id="Tarifpreisblatt-to-Tarifinfo" style="stroke:#181818;stroke-width:1.0;"/><polygon fill="none" points="664.02,121.63,645.0471,121.8007,648.9441,133.1503,664.02,121.63" style="stroke:#181818;stroke-width:1.0;"/></g><!--link Tarifpreisblatt to Tarifpreisposition--><g id="link_Tarifpreisblatt_Tarifpreisposition"><path codeLine="22" d="M369.43,378.51 C379.41,380.8 389.31,382.98 399,385 C480.04,401.89 561.7993,414.2544 626.8593,423.0944 " fill="none" id="Tarifpreisblatt-to-Tarifpreisposition" style="stroke:#181818;stroke-width:1.0;"/><polygon fill="#181818" points="638.75,424.71,633.3432,419.9386,626.8593,423.0944,632.2661,427.8658,638.75,424.71" style="stroke:#181818;stroke-width:1.0;"/><text fill="#000000" font-family="sans-serif" font-size="13" lengthAdjust="spacing" textLength="64" x="443.5" y="381.0669">tarifpreise</text><text fill="#000000" font-family="sans-serif" font-size="13" lengthAdjust="spacing" textLength="23" x="608.0277" y="436.5515">0..*</text></g><!--link Tarifpreisblatt to Tarifberechnungsparameter--><g id="link_Tarifpreisblatt_Tarifberechnungsparameter"><path codeLine="23" d="M369.28,284.72 C379.32,282.4 389.28,280.14 399,278 C469.57,262.45 537.542,249.2026 599.852,237.6226 " fill="none" id="Tarifpreisblatt-to-Tarifberechnungsparameter" style="stroke:#181818;stroke-width:1.0;"/><polygon fill="#181818" points="611.65,235.43,605.0201,232.5936,599.852,237.6226,606.4819,240.459,611.65,235.43" style="stroke:#181818;stroke-width:1.0;"/><text fill="#000000" font-family="sans-serif" font-size="13" lengthAdjust="spacing" textLength="151" x="400" y="244.0669">berechnungsparameter</text><text fill="#000000" font-family="sans-serif" font-size="13" lengthAdjust="spacing" textLength="24" x="576.1315" y="250.0701">0..1</text></g><!--link Tarifpreisblatt to Tarifeinschraenkung--><g id="link_Tarifpreisblatt_Tarifeinschraenkung"><path codeLine="24" d="M369.34,350.71 C379.36,351.56 389.3,352.33 399,353 C477.44,358.39 554.8911,360.408 619.3311,361.278 " fill="none" id="Tarifpreisblatt-to-Tarifeinschraenkung" style="stroke:#181818;stroke-width:1.0;"/><polygon fill="#181818" points="631.33,361.44,625.3845,357.3594,619.3311,361.278,625.2765,365.3586,631.33,361.44" style="stroke:#181818;stroke-width:1.0;"/><text fill="#000000" font-family="sans-serif" font-size="13" lengthAdjust="spacing" textLength="126" x="412.5" y="349.0669">tarifeinschraenkung</text><text fill="#000000" font-family="sans-serif" font-size="13" lengthAdjust="spacing" textLength="24" x="599.5842" y="374.0434">0..1</text></g><!--link Tarifpreisblatt to Preisgarantie--><g id="link_Tarifpreisblatt_Preisgarantie"><path codeLine="25" d="M286.05,385.93 C320.83,404.21 360.87,423.31 399,437 C481.74,466.7 569.2921,484.4242 635.2321,495.3742 " fill="none" id="Tarifpreisblatt-to-Preisgarantie" style="stroke:#181818;stroke-width:1.0;"/><polygon fill="#181818" points="647.07,497.34,641.8063,492.4111,635.2321,495.3742,640.4958,500.3031,647.07,497.34" style="stroke:#181818;stroke-width:1.0;"/><text fill="#000000" font-family="sans-serif" font-size="13" lengthAdjust="spacing" textLength="84" x="433.5" y="433.0669">preisgarantie</text><text fill="#000000" font-family="sans-serif" font-size="13" lengthAdjust="spacing" textLength="24" x="615.4614" y="509.1315">0..1</text></g><!--link Tarifpreisblatt to AufAbschlag--><g id="link_Tarifpreisblatt_AufAbschlag"><path codeLine="26" d="M369.34,316.06 C465.61,308.62 566.6057,300.8149 637.6257,295.3249 " fill="none" id="Tarifpreisblatt-to-AufAbschlag" style="stroke:#181818;stroke-width:1.0;"/><polygon fill="#181818" points="649.59,294.4,643.2996,290.8743,637.6257,295.3249,643.9161,298.8505,649.59,294.4" style="stroke:#181818;stroke-width:1.0;"/><text fill="#000000" font-family="sans-serif" font-size="13" lengthAdjust="spacing" textLength="120" x="415.5" y="299.0669">tarifAufAbschlaege</text><text fill="#000000" font-family="sans-serif" font-size="13" lengthAdjust="spacing" textLength="23" x="618.9928" y="307.6624">0..*</text></g><!--SRC=[jLLDRvj043s7Np6oRwcyDfRhHAYDH9fSsnvwYcjL2nvWLTX5x92eRllVk-0FM8ojL7Pk- -RZxSoRPKWn8Y05XOWJWfKeC2IXfEE4ATSQ1ej5GfHhRpmEr0nPB2Wf0oRK-FxBx76K_w94oN7A2JMDUIusKO5Y2MNfS0U85oBA2nGwCA74ljaOEdYv_2u_QB56pvtS7U4O0DVTFFZjNFrunaAR1i03JGKi9eovI_W8qybqDd7PdBbiXS_ltyLXDEKXlt6TgtMfEQrzea849Q79VB8iDSbrHV9PIJHNY5MNVUEeAz74PUNtNtY13qOO4Xbs8lywZkGPwfo7U9x4i0NBPIt85i7mVlvmuzzMWbnyZa96QZF1wWJxq_6fLTvcNXKo2fmhGAYobW86jIKm48QF4_zs_kbS3NRt3FUexYb0ywKaifInQQ8mlH0M6rNwF73KSwZQoIiQ6Vkyb-wKbn4FT9YaF6P-6VdRCxJE_VMt4kkAMmblCWqKqh0N7ELF8yXc3hODUcmdjBS36zLj-vlqKc-HN6bHxU7MgjoPuD1qeX4hhhCqT-PBjr6Jn-PHIXB8lhOHMAY_RYkzBjbAghRdmHzaDFfpjzj-pN8wZ3E1rp2ezlbWlodwDFQWKGzFqBXTcjwltuFUh_K_Q3kFULjUvpM-Zi-UXmUMtAzKhBqCjhKq9epHSHAnGiWmCurhHoVg1GwO8u7fIly3]--></g></svg>