<?xml version="1.0" encoding="us-ascii" standalone="no"?><svg xmlns="http://www.w3.org/2000/svg" xmlns:xlink="http://www.w3.org/1999/xlink" contentStyleType="text/css" height="574px" preserveAspectRatio="none" style="width:892px;height:574px;background:#FFFFFF;" version="1.1" viewBox="0 0 892 574" width="892px" zoomAndPan="magnify"><defs/><g><!--cluster bo4e--><g id="cluster_bo4e"><path d="M582.5,6 L623.5,6 A3.75,3.75 0 0 1 626,8.5 L633,28.2969 L882.5,28.2969 A2.5,2.5 0 0 1 885,30.7969 L885,564.5 A2.5,2.5 0 0 1 882.5,567 L582.5,567 A2.5,2.5 0 0 1 580,564.5 L580,8.5 A2.5,2.5 0 0 1 582.5,6 " fill="none" style="stroke:#000000;stroke-width:1.5;"/><line style="stroke:#000000;stroke-width:1.5;" x1="580" x2="633" y1="28.2969" y2="28.2969"/><text fill="#000000" font-family="sans-serif" font-size="14" font-weight="bold" lengthAdjust="spacing" textLength="40" x="584" y="20.9951">bo4e</text></g><!--cluster bo--><g id="cluster_bo"><path d="M663,49 L729,49 A3.75,3.75 0 0 1 731.5,51.5 L738.5,71.2969 L802,71.2969 A2.5,2.5 0 0 1 804.5,73.7969 L804.5,135.5 A2.5,2.5 0 0 1 802,138 L663,138 A2.5,2.5 0 0 1 660.5,135.5 L660.5,51.5 A2.5,2.5 0 0 1 663,49 " fill="#B6D7A8" style="stroke:#000000;stroke-width:1.5;"/><line style="stroke:#000000;stroke-width:1.5;" x1="660.5" x2="738.5" y1="71.2969" y2="71.2969"/><a href="https://bo4e.github.io/BO4E-python/latest/api/bo4e.bo.html" target="_top" title="https://bo4e.github.io/BO4E-python/latest/api/bo4e.bo.html" xlink:actuate="onRequest" xlink:href="https://bo4e.github.io/BO4E-python/latest/api/bo4e.bo.html" xlink:show="new" xlink:title="https://bo4e.github.io/BO4E-python/latest/api/bo4e.bo.html" xlink:type="simple"><text fill="#0000FF" font-family="sans-serif" font-size="14" font-weight="bold" lengthAdjust="spacing" text-decoration="underline" textLength="65" x="664.5" y="63.9951">bo4e.bo</text></a></g><!--cluster com--><g id="cluster_com"><path d="M606.5,162 L685.5,162 A3.75,3.75 0 0 1 688,164.5 L695,184.2969 L858.5,184.2969 A2.5,2.5 0 0 1 861,186.7969 L861,540.5 A2.5,2.5 0 0 1 858.5,543 L606.5,543 A2.5,2.5 0 0 1 604,540.5 L604,164.5 A2.5,2.5 0 0 1 606.5,162 " fill="#E0A86C" style="stroke:#000000;stroke-width:1.5;"/><line style="stroke:#000000;stroke-width:1.5;" x1="604" x2="695" y1="184.2969" y2="184.2969"/><a href="https://bo4e.github.io/BO4E-python/latest/api/bo4e.com.html" target="_top" title="https://bo4e.github.io/BO4E-python/latest/api/bo4e.com.html" xlink:actuate="onRequest" xlink:href="https://bo4e.github.io/BO4E-python/latest/api/bo4e.com.html" xlink:show="new" xlink:title="https://bo4e.github.io/BO4E-python/latest/api/bo4e.com.html" xlink:type="simple"><text fill="#0000FF" font-family="sans-serif" font-size="14" font-weight="bold" lengthAdjust="spacing" text-decoration="underline" textLength="78" x="608" y="176.9951">bo4e.com</text></a></g><!--class Tarifinfo--><g id="elem_Tarifinfo"><rect codeLine="11" fill="#F1F1F1" height="37.9375" id="Tarifinfo" rx="2.5" ry="2.5" style="stroke:#181818;stroke-width:0.5;" width="112" x="676.5" y="84.03"/><ellipse cx="691.5" cy="102.9987" fill="#ADD1B2" rx="11" ry="11" style="stroke:#181818;stroke-width:1.0;"/><path d="M694.4688,108.6394 Q693.8906,108.9362 693.25,109.0769 Q692.6094,109.2331 691.9063,109.2331 Q689.4063,109.2331 688.0781,107.5925 Q686.7656,105.9362 686.7656,102.8112 Q686.7656,99.6862 688.0781,98.03 Q689.4063,96.3737 691.9063,96.3737 Q692.6094,96.3737 693.25,96.53 Q693.9063,96.6862 694.4688,96.9831 L694.4688,99.7019 Q693.8438,99.1237 693.25,98.8581 Q692.6563,98.5769 692.0313,98.5769 Q690.6875,98.5769 690,99.655 Q689.3125,100.7175 689.3125,102.8112 Q689.3125,104.905 690,105.9831 Q690.6875,107.0456 692.0313,107.0456 Q692.6563,107.0456 693.25,106.78 Q693.8438,106.4987 694.4688,105.9206 L694.4688,108.6394 Z " fill="#000000"/><a href="https://bo4e.github.io/BO4E-python/latest/api/bo4e.bo.html#bo4e.bo.tarifinfo.Tarifinfo" target="_top" title="https://bo4e.github.io/BO4E-python/latest/api/bo4e.bo.html#bo4e.bo.tarifinfo.Tarifinfo" xlink:actuate="onRequest" xlink:href="https://bo4e.github.io/BO4E-python/latest/api/bo4e.bo.html#bo4e.bo.tarifinfo.Tarifinfo" xlink:show="new" xlink:title="https://bo4e.github.io/BO4E-python/latest/api/bo4e.bo.html#bo4e.bo.tarifinfo.Tarifinfo" xlink:type="simple"><text fill="#0000FF" font-family="sans-serif" font-size="14" lengthAdjust="spacing" text-decoration="underline" textLength="54" x="718.5" y="102.0251">Tarifinfo</text></a><text fill="#000000" font-family="sans-serif" font-size="10" lengthAdjust="spacing" textLength="80" x="705.5" y="114.6091">bo4e.bo.tarifinfo</text></g><!--class Tarifeinschraenkung--><g id="elem_Tarifeinschraenkung"><rect codeLine="14" fill="#F1F1F1" height="37.9375" id="Tarifeinschraenkung" rx="2.5" ry="2.5" style="stroke:#181818;stroke-width:0.5;" width="178" x="643.5" y="197.03"/><ellipse cx="658.5" cy="215.9987" fill="#ADD1B2" rx="11" ry="11" style="stroke:#181818;stroke-width:1.0;"/><path d="M661.4688,221.6394 Q660.8906,221.9362 660.25,222.0769 Q659.6094,222.2331 658.9063,222.2331 Q656.4063,222.2331 655.0781,220.5925 Q653.7656,218.9362 653.7656,215.8112 Q653.7656,212.6862 655.0781,211.03 Q656.4063,209.3737 658.9063,209.3737 Q659.6094,209.3737 660.25,209.53 Q660.9063,209.6862 661.4688,209.9831 L661.4688,212.7019 Q660.8438,212.1237 660.25,211.8581 Q659.6563,211.5769 659.0313,211.5769 Q657.6875,211.5769 657,212.655 Q656.3125,213.7175 656.3125,215.8112 Q656.3125,217.905 657,218.9831 Q657.6875,220.0456 659.0313,220.0456 Q659.6563,220.0456 660.25,219.78 Q660.8438,219.4987 661.4688,218.9206 L661.4688,221.6394 Z " fill="#000000"/><a href="https://bo4e.github.io/BO4E-python/latest/api/bo4e.com.html#bo4e.com.tarifeinschraenkung.Tarifeinschraenkung" target="_top" title="https://bo4e.github.io/BO4E-python/latest/api/bo4e.com.html#bo4e.com.tarifeinschraenkung.Tarifeinschraenkung" xlink:actuate="onRequest" xlink:href="https://bo4e.github.io/BO4E-python/latest/api/bo4e.com.html#bo4e.com.tarifeinschraenkung.Tarifeinschraenkung" xlink:show="new" xlink:title="https://bo4e.github.io/BO4E-python/latest/api/bo4e.com.html#bo4e.com.tarifeinschraenkung.Tarifeinschraenkung" xlink:type="simple"><text fill="#0000FF" font-family="sans-serif" font-size="14" lengthAdjust="spacing" text-decoration="underline" textLength="141" x="675" y="215.0251">Tarifeinschraenkung</text></a><text fill="#000000" font-family="sans-serif" font-size="10" lengthAdjust="spacing" textLength="146" x="672.5" y="227.6091">bo4e.com.tarifeinschraenkung</text></g><!--class Preisgarantie--><g id="elem_Preisgarantie"><rect codeLine="15" fill="#F1F1F1" height="37.9375" id="Preisgarantie" rx="2.5" ry="2.5" style="stroke:#181818;stroke-width:0.5;" width="146" x="659.5" y="270.03"/><ellipse cx="674.5" cy="288.9988" fill="#ADD1B2" rx="11" ry="11" style="stroke:#181818;stroke-width:1.0;"/><path d="M677.4688,294.6394 Q676.8906,294.9363 676.25,295.0769 Q675.6094,295.2331 674.9063,295.2331 Q672.4063,295.2331 671.0781,293.5925 Q669.7656,291.9363 669.7656,288.8113 Q669.7656,285.6863 671.0781,284.03 Q672.4063,282.3738 674.9063,282.3738 Q675.6094,282.3738 676.25,282.53 Q676.9063,282.6863 677.4688,282.9831 L677.4688,285.7019 Q676.8438,285.1238 676.25,284.8581 Q675.6563,284.5769 675.0313,284.5769 Q673.6875,284.5769 673,285.655 Q672.3125,286.7175 672.3125,288.8113 Q672.3125,290.905 673,291.9831 Q673.6875,293.0456 675.0313,293.0456 Q675.6563,293.0456 676.25,292.78 Q676.8438,292.4988 677.4688,291.9206 L677.4688,294.6394 Z " fill="#000000"/><a href="https://bo4e.github.io/BO4E-python/latest/api/bo4e.com.html#bo4e.com.preisgarantie.Preisgarantie" target="_top" title="https://bo4e.github.io/BO4E-python/latest/api/bo4e.com.html#bo4e.com.preisgarantie.Preisgarantie" xlink:actuate="onRequest" xlink:href="https://bo4e.github.io/BO4E-python/latest/api/bo4e.com.html#bo4e.com.preisgarantie.Preisgarantie" xlink:show="new" xlink:title="https://bo4e.github.io/BO4E-python/latest/api/bo4e.com.html#bo4e.com.preisgarantie.Preisgarantie" xlink:type="simple"><text fill="#0000FF" font-family="sans-serif" font-size="14" lengthAdjust="spacing" text-decoration="underline" textLength="90" x="700.5" y="288.0251">Preisgarantie</text></a><text fill="#000000" font-family="sans-serif" font-size="10" lengthAdjust="spacing" textLength="114" x="688.5" y="300.6091">bo4e.com.preisgarantie</text></g><!--class Tarifpreisposition--><g id="elem_Tarifpreisposition"><rect codeLine="16" fill="#F1F1F1" height="37.9375" id="Tarifpreisposition" rx="2.5" ry="2.5" style="stroke:#181818;stroke-width:0.5;" width="163" x="651" y="343.03"/><ellipse cx="666" cy="361.9988" fill="#ADD1B2" rx="11" ry="11" style="stroke:#181818;stroke-width:1.0;"/><path d="M668.9688,367.6394 Q668.3906,367.9363 667.75,368.0769 Q667.1094,368.2331 666.4063,368.2331 Q663.9063,368.2331 662.5781,366.5925 Q661.2656,364.9363 661.2656,361.8113 Q661.2656,358.6863 662.5781,357.03 Q663.9063,355.3738 666.4063,355.3738 Q667.1094,355.3738 667.75,355.53 Q668.4063,355.6863 668.9688,355.9831 L668.9688,358.7019 Q668.3438,358.1238 667.75,357.8581 Q667.1563,357.5769 666.5313,357.5769 Q665.1875,357.5769 664.5,358.655 Q663.8125,359.7175 663.8125,361.8113 Q663.8125,363.905 664.5,364.9831 Q665.1875,366.0456 666.5313,366.0456 Q667.1563,366.0456 667.75,365.78 Q668.3438,365.4988 668.9688,364.9206 L668.9688,367.6394 Z " fill="#000000"/><a href="https://bo4e.github.io/BO4E-python/latest/api/bo4e.com.html#bo4e.com.tarifpreisposition.Tarifpreisposition" target="_top" title="https://bo4e.github.io/BO4E-python/latest/api/bo4e.com.html#bo4e.com.tarifpreisposition.Tarifpreisposition" xlink:actuate="onRequest" xlink:href="https://bo4e.github.io/BO4E-python/latest/api/bo4e.com.html#bo4e.com.tarifpreisposition.Tarifpreisposition" xlink:show="new" xlink:title="https://bo4e.github.io/BO4E-python/latest/api/bo4e.com.html#bo4e.com.tarifpreisposition.Tarifpreisposition" xlink:type="simple"><text fill="#0000FF" font-family="sans-serif" font-size="14" lengthAdjust="spacing" text-decoration="underline" textLength="118" x="686.5" y="361.0251">Tarifpreisposition</text></a><text fill="#000000" font-family="sans-serif" font-size="10" lengthAdjust="spacing" textLength="131" x="680" y="373.6091">bo4e.com.tarifpreisposition</text></g><!--class AufAbschlag--><g id="elem_AufAbschlag"><rect codeLine="17" fill="#F1F1F1" height="37.9375" id="AufAbschlag" rx="2.5" ry="2.5" style="stroke:#181818;stroke-width:0.5;" width="141" x="662" y="416.03"/><ellipse cx="677" cy="434.9988" fill="#ADD1B2" rx="11" ry="11" style="stroke:#181818;stroke-width:1.0;"/><path d="M679.9688,440.6394 Q679.3906,440.9363 678.75,441.0769 Q678.1094,441.2331 677.4063,441.2331 Q674.9063,441.2331 673.5781,439.5925 Q672.2656,437.9363 672.2656,434.8113 Q672.2656,431.6863 673.5781,430.03 Q674.9063,428.3738 677.4063,428.3738 Q678.1094,428.3738 678.75,428.53 Q679.4063,428.6863 679.9688,428.9831 L679.9688,431.7019 Q679.3438,431.1238 678.75,430.8581 Q678.1563,430.5769 677.5313,430.5769 Q676.1875,430.5769 675.5,431.655 Q674.8125,432.7175 674.8125,434.8113 Q674.8125,436.905 675.5,437.9831 Q676.1875,439.0456 677.5313,439.0456 Q678.1563,439.0456 678.75,438.78 Q679.3438,438.4988 679.9688,437.9206 L679.9688,440.6394 Z " fill="#000000"/><a href="https://bo4e.github.io/BO4E-python/latest/api/bo4e.com.html#bo4e.com.aufabschlag.AufAbschlag" target="_top" title="https://bo4e.github.io/BO4E-python/latest/api/bo4e.com.html#bo4e.com.aufabschlag.AufAbschlag" xlink:actuate="onRequest" xlink:href="https://bo4e.github.io/BO4E-python/latest/api/bo4e.com.html#bo4e.com.aufabschlag.AufAbschlag" xlink:show="new" xlink:title="https://bo4e.github.io/BO4E-python/latest/api/bo4e.com.html#bo4e.com.aufabschlag.AufAbschlag" xlink:type="simple"><text fill="#0000FF" font-family="sans-serif" font-size="14" lengthAdjust="spacing" text-decoration="underline" textLength="85" x="703" y="434.0251">AufAbschlag</text></a><text fill="#000000" font-family="sans-serif" font-size="10" lengthAdjust="spacing" textLength="109" x="691" y="446.6091">bo4e.com.aufabschlag</text></g><!--class Tarifberechnungsparameter--><g id="elem_Tarifberechnungsparameter"><rect codeLine="18" fill="#F1F1F1" height="37.9375" id="Tarifberechnungsparameter" rx="2.5" ry="2.5" style="stroke:#181818;stroke-width:0.5;" width="225" x="620" y="489.03"/><ellipse cx="635" cy="507.9988" fill="#ADD1B2" rx="11" ry="11" style="stroke:#181818;stroke-width:1.0;"/><path d="M637.9688,513.6394 Q637.3906,513.9363 636.75,514.0769 Q636.1094,514.2331 635.4063,514.2331 Q632.9063,514.2331 631.5781,512.5925 Q630.2656,510.9363 630.2656,507.8113 Q630.2656,504.6863 631.5781,503.03 Q632.9063,501.3738 635.4063,501.3738 Q636.1094,501.3738 636.75,501.53 Q637.4063,501.6863 637.9688,501.9831 L637.9688,504.7019 Q637.3438,504.1238 636.75,503.8581 Q636.1563,503.5769 635.5313,503.5769 Q634.1875,503.5769 633.5,504.655 Q632.8125,505.7175 632.8125,507.8113 Q632.8125,509.905 633.5,510.9831 Q634.1875,512.0456 635.5313,512.0456 Q636.1563,512.0456 636.75,511.78 Q637.3438,511.4988 637.9688,510.9206 L637.9688,513.6394 Z " fill="#000000"/><a href="https://bo4e.github.io/BO4E-python/latest/api/bo4e.com.html#bo4e.com.tarifberechnungsparameter.Tarifberechnungsparameter" target="_top" title="https://bo4e.github.io/BO4E-python/latest/api/bo4e.com.html#bo4e.com.tarifberechnungsparameter.Tarifberechnungsparameter" xlink:actuate="onRequest" xlink:href="https://bo4e.github.io/BO4E-python/latest/api/bo4e.com.html#bo4e.com.tarifberechnungsparameter.Tarifberechnungsparameter" xlink:show="new" xlink:title="https://bo4e.github.io/BO4E-python/latest/api/bo4e.com.html#bo4e.com.tarifberechnungsparameter.Tarifberechnungsparameter" xlink:type="simple"><text fill="#0000FF" font-family="sans-serif" font-size="14" lengthAdjust="spacing" text-decoration="underline" textLength="193" x="649" y="507.0251">Tarifberechnungsparameter</text></a><text fill="#000000" font-family="sans-serif" font-size="10" lengthAdjust="spacing" textLength="185" x="653" y="519.6091">bo4e.com.tarifberechnungsparameter</text></g><!--class Tarifpreisblatt--><g id="elem_Tarifpreisblatt"><rect codeLine="3" fill="#F1F1F1" height="111.125" id="Tarifpreisblatt" rx="2.5" ry="2.5" style="stroke:#181818;stroke-width:0.5;" width="374" x="7" y="274.44"/><ellipse cx="136.25" cy="293.4088" fill="#ADD1B2" rx="11" ry="11" style="stroke:#181818;stroke-width:1.0;"/><path d="M139.2188,299.0494 Q138.6406,299.3463 138,299.4869 Q137.3594,299.6431 136.6563,299.6431 Q134.1563,299.6431 132.8281,298.0025 Q131.5156,296.3463 131.5156,293.2213 Q131.5156,290.0963 132.8281,288.44 Q134.1563,286.7838 136.6563,286.7838 Q137.3594,286.7838 138,286.94 Q138.6563,287.0963 139.2188,287.3931 L139.2188,290.1119 Q138.5938,289.5338 138,289.2681 Q137.4063,288.9869 136.7813,288.9869 Q135.4375,288.9869 134.75,290.065 Q134.0625,291.1275 134.0625,293.2213 Q134.0625,295.315 134.75,296.3931 Q135.4375,297.4556 136.7813,297.4556 Q137.4063,297.4556 138,297.19 Q138.5938,296.9088 139.2188,296.3306 L139.2188,299.0494 Z " fill="#000000"/><a href="https://bo4e.github.io/BO4E-python/latest/api/bo4e.bo.html#bo4e.bo.tarifpreisblatt.Tarifpreisblatt" target="_top" title="https://bo4e.github.io/BO4E-python/latest/api/bo4e.bo.html#bo4e.bo.tarifpreisblatt.Tarifpreisblatt" xlink:actuate="onRequest" xlink:href="https://bo4e.github.io/BO4E-python/latest/api/bo4e.bo.html#bo4e.bo.tarifpreisblatt.Tarifpreisblatt" xlink:show="new" xlink:title="https://bo4e.github.io/BO4E-python/latest/api/bo4e.bo.html#bo4e.bo.tarifpreisblatt.Tarifpreisblatt" xlink:type="simple"><text fill="#0000FF" font-family="sans-serif" font-size="14" lengthAdjust="spacing" text-decoration="underline" textLength="93" x="163.75" y="292.4351">Tarifpreisblatt</text></a><text fill="#000000" font-family="sans-serif" font-size="10" lengthAdjust="spacing" textLength="107" x="156.75" y="305.0191">bo4e.bo.tarifpreisblatt</text><line style="stroke:#181818;stroke-width:0.5;" x1="8" x2="380" y1="312.3775" y2="312.3775"/><text fill="#000000" font-family="sans-serif" font-size="14" lengthAdjust="spacing" textLength="362" x="13" y="329.3726">_version : str [0..1] = 202401.4.1.dev22+gb29fc2eb</text><text fill="#000000" font-family="sans-serif" font-size="14" lengthAdjust="spacing" textLength="311" x="13" y="345.6695">zusatzAttribute : ZusatzAttribut [0..*] = None</text><text fill="#000000" font-family="sans-serif" font-size="14" lengthAdjust="spacing" textLength="147" x="13" y="361.9664">_id : str [0..1] = None</text><text fill="#000000" font-family="sans-serif" font-size="14" lengthAdjust="spacing" textLength="288" x="13" y="378.2632">preisstand : AwareDatetime [0..1] = None</text></g><!--link Tarifpreisblatt to Tarifinfo--><g id="link_Tarifpreisblatt_Tarifinfo"><path codeLine="21" d="M302.49,274.07 C336.82,256.93 375.2,238.52 411,223 C502.44,183.35 594.6514,150.0313 659.0914,127.7113 " fill="none" id="Tarifpreisblatt-to-Tarifinfo" style="stroke:#181818;stroke-width:1.0;"/><polygon fill="none" points="676.1,121.82,657.1276,122.0417,661.0551,133.3808,676.1,121.82" style="stroke:#181818;stroke-width:1.0;"/></g><!--link Tarifpreisblatt to Tarifpreisposition--><g id="link_Tarifpreisblatt_Tarifpreisposition"><path codeLine="22" d="M381.37,350.77 C391.39,351.6 401.31,352.35 411,353 C492.5,358.48 573.881,360.4746 638.741,361.3146 " fill="none" id="Tarifpreisblatt-to-Tarifpreisposition" style="stroke:#181818;stroke-width:1.0;"/><polygon fill="#181818" points="650.74,361.47,644.7923,357.3926,638.741,361.3146,644.6887,365.392,650.74,361.47" style="stroke:#181818;stroke-width:1.0;"/><text fill="#000000" font-family="sans-serif" font-size="13" lengthAdjust="spacing" textLength="64" x="455.5" y="349.0669">tarifpreise</text><text fill="#000000" font-family="sans-serif" font-size="13" lengthAdjust="spacing" textLength="23" x="620.0169" y="374.1197">0..*</text></g><!--link Tarifpreisblatt to Tarifberechnungsparameter--><g id="link_Tarifpreisblatt_Tarifberechnungsparameter"><path codeLine="23" d="M295.26,385.96 C330.98,404.2 372.03,423.26 411,437 C478.59,460.83 545.3152,476.1704 607.7152,487.8604 " fill="none" id="Tarifpreisblatt-to-Tarifberechnungsparameter" style="stroke:#181818;stroke-width:1.0;"/><polygon fill="#181818" points="619.51,490.07,614.3491,485.0336,607.7152,487.8604,612.8761,492.8968,619.51,490.07" style="stroke:#181818;stroke-width:1.0;"/><text fill="#000000" font-family="sans-serif" font-size="13" lengthAdjust="spacing" textLength="151" x="412" y="433.0669">berechnungsparameter</text><text fill="#000000" font-family="sans-serif" font-size="13" lengthAdjust="spacing" textLength="24" x="587.8934" y="501.5054">0..1</text></g><!--link Tarifpreisblatt to Tarifeinschraenkung--><g id="link_Tarifpreisblatt_Tarifeinschraenkung"><path codeLine="24" d="M381.33,284.58 C391.35,282.31 401.29,280.11 411,278 C489.23,261.03 566.9105,246.0946 631.4005,234.1546 " fill="none" id="Tarifpreisblatt-to-Tarifeinschraenkung" style="stroke:#181818;stroke-width:1.0;"/><polygon fill="#181818" points="643.2,231.97,636.5721,229.1291,631.4005,234.1546,638.0285,236.9955,643.2,231.97" style="stroke:#181818;stroke-width:1.0;"/><text fill="#000000" font-family="sans-serif" font-size="13" lengthAdjust="spacing" textLength="126" x="424.5" y="244.0669">tarifeinschraenkung</text><text fill="#000000" font-family="sans-serif" font-size="13" lengthAdjust="spacing" textLength="24" x="611.4442" y="245.839">0..1</text></g><!--link Tarifpreisblatt to Preisgarantie--><g id="link_Tarifpreisblatt_Preisgarantie"><path codeLine="25" d="M381.14,315.78 C476.92,308.46 576.2048,300.8635 647.1948,295.4435 " fill="none" id="Tarifpreisblatt-to-Preisgarantie" style="stroke:#181818;stroke-width:1.0;"/><polygon fill="#181818" points="659.16,294.53,652.8729,290.9984,647.1948,295.4435,653.4819,298.9752,659.16,294.53" style="stroke:#181818;stroke-width:1.0;"/><text fill="#000000" font-family="sans-serif" font-size="13" lengthAdjust="spacing" textLength="84" x="445.5" y="299.0669">preisgarantie</text><text fill="#000000" font-family="sans-serif" font-size="13" lengthAdjust="spacing" textLength="24" x="627.5594" y="307.7634">0..1</text></g><!--link Tarifpreisblatt to AufAbschlag--><g id="link_Tarifpreisblatt_AufAbschlag"><path codeLine="26" d="M381.49,378.66 C391.45,380.89 401.33,383.02 411,385 C496.79,402.57 584.7182,415.6419 649.8682,424.4519 " fill="none" id="Tarifpreisblatt-to-AufAbschlag" style="stroke:#181818;stroke-width:1.0;"/><polygon fill="#181818" points="661.76,426.06,656.3501,421.292,649.8682,424.4519,655.2781,429.2199,661.76,426.06" style="stroke:#181818;stroke-width:1.0;"/><text fill="#000000" font-family="sans-serif" font-size="13" lengthAdjust="spacing" textLength="120" x="427.5" y="381.0669">tarifAufAbschlaege</text><text fill="#000000" font-family="sans-serif" font-size="13" lengthAdjust="spacing" textLength="23" x="630.9215" y="437.9961">0..*</text></g><!--SRC=[jLLBRzim33xNlu98RXsY94RGTSPMm5rxtNROQLamo0vj2xCbGw9RBDl- -sGdZXznWWv9R_hu4lcHebAC24Y15d52i1OQGn9AEawOScDWj5mcHBdnfjD0BP35Wf8YO49Dxpyl7YVvBqgKdAQSqD2Kvs9h5IYMK9QEQq1SYoZNA4nWJObzxMBeuTNgktnln0Qz-UpkI8mHSDFtWz_ErOydrCOM01uOqh2SCJPVmGTmP-vYDcSBDcThV7BTDt7Wlej25mFdQbCOJXkVI8kW8BIktpgIAifr6UMJacZl4Ej- -AsYIiKGbwNUV-OQ7omp93BiMVvr7CapD3aFyJoEOGTMgugH7OBn_St3M_-sPEJYZHGoKjiMbYVOduwthTGs3IkHPU1S0aALjHYmg4s1XJ1-dFctDn_FvQ2-Pxn7LKqef0aJpL7-B6IyvQChWm7P8KT70ZPqTUMNhgKQsPXhBaaW-z96q473cNVSgvmxJg_2V7Ldheme5rLhbzGYE1ITeBrZrzigjVZIPV0Yue5jQifZvXUHlpj3wpoSSSknIhNby2fK1sZ_WqJQkRClLTi7IwYtZ0zfuAZc1Fz3vaqRXhJbzZpuGYQJFtVrzckMqw6TDRo6KRdFH_jDCJH37ZJJWIV2pFjX1ednOB2G_mZRMosxz7gxuMNnke_SWyuRVY5ZxQdTvTA8C4R7ISGQ8SFC5cuSawXdE8WS2KpNvXy0]--></g></svg>