<svg xmlns="http://www.w3.org/2000/svg" xmlns:xlink="http://www.w3.org/1999/xlink" contentStyleType="text/css" data-diagram-type="CLASS" height="574px" preserveAspectRatio="none" style="width:895px;height:574px;background:#FFFFFF;" version="1.1" viewBox="0 0 895 574" width="895px" zoomAndPan="magnify"><defs/><g><!--cluster bo4e--><g class="cluster" data-entity="bo4e" data-source-line="11" data-uid="ent0005" id="cluster_bo4e"><path d="M582.5,6 L622.376,6 A3.75,3.75 0 0 1 624.876,8.5 L631.876,28.2969 L886.36,28.2969 A2.5,2.5 0 0 1 888.86,30.7969 L888.86,564.5 A2.5,2.5 0 0 1 886.36,567 L582.5,567 A2.5,2.5 0 0 1 580,564.5 L580,8.5 A2.5,2.5 0 0 1 582.5,6" fill="none" style="stroke:#000000;stroke-width:1.5;"/><line style="stroke:#000000;stroke-width:1.5;" x1="580" x2="631.876" y1="28.2969" y2="28.2969"/><text fill="#000000" font-family="sans-serif" font-size="14" font-weight="bold" lengthAdjust="spacing" textLength="38.876" x="584" y="20.9951">bo4e</text></g><!--cluster bo--><g class="cluster" data-entity="bo" data-source-line="10" data-uid="ent0003" id="cluster_bo"><path d="M663.42,49 L728.254,49 A3.75,3.75 0 0 1 730.754,51.5 L737.754,71.2969 L805.44,71.2969 A2.5,2.5 0 0 1 807.94,73.7969 L807.94,135.5 A2.5,2.5 0 0 1 805.44,138 L663.42,138 A2.5,2.5 0 0 1 660.92,135.5 L660.92,51.5 A2.5,2.5 0 0 1 663.42,49" fill="#B6D7A8" style="stroke:#000000;stroke-width:1.5;"/><line style="stroke:#000000;stroke-width:1.5;" x1="660.92" x2="737.754" y1="71.2969" y2="71.2969"/><a href="https://bo4e.github.io/BO4E-python/latest/api/bo4e.bo.html" target="_top" title="https://bo4e.github.io/BO4E-python/latest/api/bo4e.bo.html" xlink:actuate="onRequest" xlink:href="https://bo4e.github.io/BO4E-python/latest/api/bo4e.bo.html" xlink:show="new" xlink:title="https://bo4e.github.io/BO4E-python/latest/api/bo4e.bo.html" xlink:type="simple"><text fill="#0000FF" font-family="sans-serif" font-size="14" font-weight="bold" lengthAdjust="spacing" text-decoration="underline" textLength="63.834" x="664.92" y="63.9951">bo4e.bo</text></a></g><!--cluster com--><g class="cluster" data-entity="com" data-source-line="13" data-uid="ent0006" id="cluster_com"><path d="M606.5,162 L684.1992,162 A3.75,3.75 0 0 1 686.6992,164.5 L693.6992,184.2969 L862.36,184.2969 A2.5,2.5 0 0 1 864.86,186.7969 L864.86,540.5 A2.5,2.5 0 0 1 862.36,543 L606.5,543 A2.5,2.5 0 0 1 604,540.5 L604,164.5 A2.5,2.5 0 0 1 606.5,162" fill="#E0A86C" style="stroke:#000000;stroke-width:1.5;"/><line style="stroke:#000000;stroke-width:1.5;" x1="604" x2="693.6992" y1="184.2969" y2="184.2969"/><a href="https://bo4e.github.io/BO4E-python/latest/api/bo4e.com.html" target="_top" title="https://bo4e.github.io/BO4E-python/latest/api/bo4e.com.html" xlink:actuate="onRequest" xlink:href="https://bo4e.github.io/BO4E-python/latest/api/bo4e.com.html" xlink:show="new" xlink:title="https://bo4e.github.io/BO4E-python/latest/api/bo4e.com.html" xlink:type="simple"><text fill="#0000FF" font-family="sans-serif" font-size="14" font-weight="bold" lengthAdjust="spacing" text-decoration="underline" textLength="76.6992" x="608" y="176.9951">bo4e.com</text></a></g><!--class Tarifinfo--><g class="entity" data-entity="Tarifinfo" data-source-line="11" data-uid="ent0004" id="entity_Tarifinfo"><rect fill="#F1F1F1" height="37.9375" rx="2.5" ry="2.5" style="stroke:#181818;stroke-width:0.5;" width="115.0176" x="676.92" y="84.03"/><ellipse cx="691.92" cy="102.9987" fill="#ADD1B2" rx="11" ry="11" style="stroke:#181818;stroke-width:1;"/><path d="M694.8888,108.6394 Q694.3106,108.9362 693.67,109.0769 Q693.0294,109.2331 692.3263,109.2331 Q689.8263,109.2331 688.4981,107.5925 Q687.1856,105.9362 687.1856,102.8112 Q687.1856,99.6862 688.4981,98.03 Q689.8263,96.3737 692.3263,96.3737 Q693.0294,96.3737 693.67,96.53 Q694.3263,96.6862 694.8888,96.9831 L694.8888,99.7019 Q694.2638,99.1237 693.67,98.8581 Q693.0763,98.5769 692.4513,98.5769 Q691.1075,98.5769 690.42,99.655 Q689.7325,100.7175 689.7325,102.8112 Q689.7325,104.905 690.42,105.9831 Q691.1075,107.0456 692.4513,107.0456 Q693.0763,107.0456 693.67,106.78 Q694.2638,106.4987 694.8888,105.9206 L694.8888,108.6394 Z " fill="#000000"/><a href="https://bo4e.github.io/BO4E-python/latest/api/bo4e.bo.html#bo4e.bo.tarifinfo.Tarifinfo" target="_top" title="https://bo4e.github.io/BO4E-python/latest/api/bo4e.bo.html#bo4e.bo.tarifinfo.Tarifinfo" xlink:actuate="onRequest" xlink:href="https://bo4e.github.io/BO4E-python/latest/api/bo4e.bo.html#bo4e.bo.tarifinfo.Tarifinfo" xlink:show="new" xlink:title="https://bo4e.github.io/BO4E-python/latest/api/bo4e.bo.html#bo4e.bo.tarifinfo.Tarifinfo" xlink:type="simple"><text fill="#0000FF" font-family="sans-serif" font-size="14" lengthAdjust="spacing" text-decoration="underline" textLength="57.9619" x="718.4478" y="102.0251">Tarifinfo</text></a><text fill="#000000" font-family="sans-serif" font-size="10" lengthAdjust="spacing" textLength="83.0176" x="705.92" y="114.6091">bo4e.bo.tarifinfo</text></g><!--class Tarifberechnungsparameter--><g class="entity" data-entity="Tarifberechnungsparameter" data-source-line="14" data-uid="ent0007" id="entity_Tarifberechnungsparameter"><rect fill="#F1F1F1" height="37.9375" rx="2.5" ry="2.5" style="stroke:#181818;stroke-width:0.5;" width="228.8545" x="620" y="197.03"/><ellipse cx="635" cy="215.9987" fill="#ADD1B2" rx="11" ry="11" style="stroke:#181818;stroke-width:1;"/><path d="M637.9688,221.6394 Q637.3906,221.9362 636.75,222.0769 Q636.1094,222.2331 635.4063,222.2331 Q632.9063,222.2331 631.5781,220.5925 Q630.2656,218.9362 630.2656,215.8112 Q630.2656,212.6862 631.5781,211.03 Q632.9063,209.3737 635.4063,209.3737 Q636.1094,209.3737 636.75,209.53 Q637.4063,209.6862 637.9688,209.9831 L637.9688,212.7019 Q637.3438,212.1237 636.75,211.8581 Q636.1563,211.5769 635.5313,211.5769 Q634.1875,211.5769 633.5,212.655 Q632.8125,213.7175 632.8125,215.8112 Q632.8125,217.905 633.5,218.9831 Q634.1875,220.0456 635.5313,220.0456 Q636.1563,220.0456 636.75,219.78 Q637.3438,219.4987 637.9688,218.9206 L637.9688,221.6394 Z " fill="#000000"/><a href="https://bo4e.github.io/BO4E-python/latest/api/bo4e.com.html#bo4e.com.tarifberechnungsparameter.Tarifberechnungsparameter" target="_top" title="https://bo4e.github.io/BO4E-python/latest/api/bo4e.com.html#bo4e.com.tarifberechnungsparameter.Tarifberechnungsparameter" xlink:actuate="onRequest" xlink:href="https://bo4e.github.io/BO4E-python/latest/api/bo4e.com.html#bo4e.com.tarifberechnungsparameter.Tarifberechnungsparameter" xlink:show="new" xlink:title="https://bo4e.github.io/BO4E-python/latest/api/bo4e.com.html#bo4e.com.tarifberechnungsparameter.Tarifberechnungsparameter" xlink:type="simple"><text fill="#0000FF" font-family="sans-serif" font-size="14" lengthAdjust="spacing" text-decoration="underline" textLength="196.8545" x="649" y="215.0251">Tarifberechnungsparameter</text></a><text fill="#000000" font-family="sans-serif" font-size="10" lengthAdjust="spacing" textLength="191.1182" x="651.8682" y="227.6091">bo4e.com.tarifberechnungsparameter</text></g><!--class AufAbschlag--><g class="entity" data-entity="AufAbschlag" data-source-line="15" data-uid="ent0008" id="entity_AufAbschlag"><rect fill="#F1F1F1" height="37.9375" rx="2.5" ry="2.5" style="stroke:#181818;stroke-width:0.5;" width="145.457" x="661.7" y="270.03"/><ellipse cx="676.7" cy="288.9988" fill="#ADD1B2" rx="11" ry="11" style="stroke:#181818;stroke-width:1;"/><path d="M679.6688,294.6394 Q679.0906,294.9363 678.45,295.0769 Q677.8094,295.2331 677.1063,295.2331 Q674.6063,295.2331 673.2781,293.5925 Q671.9656,291.9363 671.9656,288.8113 Q671.9656,285.6863 673.2781,284.03 Q674.6063,282.3738 677.1063,282.3738 Q677.8094,282.3738 678.45,282.53 Q679.1063,282.6863 679.6688,282.9831 L679.6688,285.7019 Q679.0438,285.1238 678.45,284.8581 Q677.8563,284.5769 677.2313,284.5769 Q675.8875,284.5769 675.2,285.655 Q674.5125,286.7175 674.5125,288.8113 Q674.5125,290.905 675.2,291.9831 Q675.8875,293.0456 677.2313,293.0456 Q677.8563,293.0456 678.45,292.78 Q679.0438,292.4988 679.6688,291.9206 L679.6688,294.6394 Z " fill="#000000"/><a href="https://bo4e.github.io/BO4E-python/latest/api/bo4e.com.html#bo4e.com.aufabschlag.AufAbschlag" target="_top" title="https://bo4e.github.io/BO4E-python/latest/api/bo4e.com.html#bo4e.com.aufabschlag.AufAbschlag" xlink:actuate="onRequest" xlink:href="https://bo4e.github.io/BO4E-python/latest/api/bo4e.com.html#bo4e.com.aufabschlag.AufAbschlag" xlink:show="new" xlink:title="https://bo4e.github.io/BO4E-python/latest/api/bo4e.com.html#bo4e.com.aufabschlag.AufAbschlag" xlink:type="simple"><text fill="#0000FF" font-family="sans-serif" font-size="14" lengthAdjust="spacing" text-decoration="underline" textLength="87.0625" x="703.8973" y="288.0251">AufAbschlag</text></a><text fill="#000000" font-family="sans-serif" font-size="10" lengthAdjust="spacing" textLength="113.457" x="690.7" y="300.6091">bo4e.com.aufabschlag</text></g><!--class Preisgarantie--><g class="entity" data-entity="Preisgarantie" data-source-line="16" data-uid="ent0009" id="entity_Preisgarantie"><rect fill="#F1F1F1" height="37.9375" rx="2.5" ry="2.5" style="stroke:#181818;stroke-width:0.5;" width="151.1992" x="658.83" y="343.03"/><ellipse cx="673.83" cy="361.9988" fill="#ADD1B2" rx="11" ry="11" style="stroke:#181818;stroke-width:1;"/><path d="M676.7988,367.6394 Q676.2206,367.9363 675.58,368.0769 Q674.9394,368.2331 674.2363,368.2331 Q671.7363,368.2331 670.4081,366.5925 Q669.0956,364.9363 669.0956,361.8113 Q669.0956,358.6863 670.4081,357.03 Q671.7363,355.3738 674.2363,355.3738 Q674.9394,355.3738 675.58,355.53 Q676.2363,355.6863 676.7988,355.9831 L676.7988,358.7019 Q676.1738,358.1238 675.58,357.8581 Q674.9863,357.5769 674.3613,357.5769 Q673.0175,357.5769 672.33,358.655 Q671.6425,359.7175 671.6425,361.8113 Q671.6425,363.905 672.33,364.9831 Q673.0175,366.0456 674.3613,366.0456 Q674.9863,366.0456 675.58,365.78 Q676.1738,365.4988 676.7988,364.9206 L676.7988,367.6394 Z " fill="#000000"/><a href="https://bo4e.github.io/BO4E-python/latest/api/bo4e.com.html#bo4e.com.preisgarantie.Preisgarantie" target="_top" title="https://bo4e.github.io/BO4E-python/latest/api/bo4e.com.html#bo4e.com.preisgarantie.Preisgarantie" xlink:actuate="onRequest" xlink:href="https://bo4e.github.io/BO4E-python/latest/api/bo4e.com.html#bo4e.com.preisgarantie.Preisgarantie" xlink:show="new" xlink:title="https://bo4e.github.io/BO4E-python/latest/api/bo4e.com.html#bo4e.com.preisgarantie.Preisgarantie" xlink:type="simple"><text fill="#0000FF" font-family="sans-serif" font-size="14" lengthAdjust="spacing" text-decoration="underline" textLength="92.6611" x="701.099" y="361.0251">Preisgarantie</text></a><text fill="#000000" font-family="sans-serif" font-size="10" lengthAdjust="spacing" textLength="119.1992" x="687.83" y="373.6091">bo4e.com.preisgarantie</text></g><!--class Tarifpreisposition--><g class="entity" data-entity="Tarifpreisposition" data-source-line="17" data-uid="ent0010" id="entity_Tarifpreisposition"><rect fill="#F1F1F1" height="37.9375" rx="2.5" ry="2.5" style="stroke:#181818;stroke-width:0.5;" width="169.3633" x="649.75" y="416.03"/><ellipse cx="664.75" cy="434.9988" fill="#ADD1B2" rx="11" ry="11" style="stroke:#181818;stroke-width:1;"/><path d="M667.7188,440.6394 Q667.1406,440.9363 666.5,441.0769 Q665.8594,441.2331 665.1563,441.2331 Q662.6563,441.2331 661.3281,439.5925 Q660.0156,437.9363 660.0156,434.8113 Q660.0156,431.6863 661.3281,430.03 Q662.6563,428.3738 665.1563,428.3738 Q665.8594,428.3738 666.5,428.53 Q667.1563,428.6863 667.7188,428.9831 L667.7188,431.7019 Q667.0938,431.1238 666.5,430.8581 Q665.9063,430.5769 665.2813,430.5769 Q663.9375,430.5769 663.25,431.655 Q662.5625,432.7175 662.5625,434.8113 Q662.5625,436.905 663.25,437.9831 Q663.9375,439.0456 665.2813,439.0456 Q665.9063,439.0456 666.5,438.78 Q667.0938,438.4988 667.7188,437.9206 L667.7188,440.6394 Z " fill="#000000"/><a href="https://bo4e.github.io/BO4E-python/latest/api/bo4e.com.html#bo4e.com.tarifpreisposition.Tarifpreisposition" target="_top" title="https://bo4e.github.io/BO4E-python/latest/api/bo4e.com.html#bo4e.com.tarifpreisposition.Tarifpreisposition" xlink:actuate="onRequest" xlink:href="https://bo4e.github.io/BO4E-python/latest/api/bo4e.com.html#bo4e.com.tarifpreisposition.Tarifpreisposition" xlink:show="new" xlink:title="https://bo4e.github.io/BO4E-python/latest/api/bo4e.com.html#bo4e.com.tarifpreisposition.Tarifpreisposition" xlink:type="simple"><text fill="#0000FF" font-family="sans-serif" font-size="14" lengthAdjust="spacing" text-decoration="underline" textLength="121.5977" x="686.6328" y="434.0251">Tarifpreisposition</text></a><text fill="#000000" font-family="sans-serif" font-size="10" lengthAdjust="spacing" textLength="137.3633" x="678.75" y="446.6091">bo4e.com.tarifpreisposition</text></g><!--class Tarifeinschraenkung--><g class="entity" data-entity="Tarifeinschraenkung" data-source-line="18" data-uid="ent0011" id="entity_Tarifeinschraenkung"><rect fill="#F1F1F1" height="37.9375" rx="2.5" ry="2.5" style="stroke:#181818;stroke-width:0.5;" width="185.0127" x="641.92" y="489.03"/><ellipse cx="656.92" cy="507.9988" fill="#ADD1B2" rx="11" ry="11" style="stroke:#181818;stroke-width:1;"/><path d="M659.8888,513.6394 Q659.3106,513.9363 658.67,514.0769 Q658.0294,514.2331 657.3263,514.2331 Q654.8263,514.2331 653.4981,512.5925 Q652.1856,510.9363 652.1856,507.8113 Q652.1856,504.6863 653.4981,503.03 Q654.8263,501.3738 657.3263,501.3738 Q658.0294,501.3738 658.67,501.53 Q659.3263,501.6863 659.8888,501.9831 L659.8888,504.7019 Q659.2638,504.1238 658.67,503.8581 Q658.0763,503.5769 657.4513,503.5769 Q656.1075,503.5769 655.42,504.655 Q654.7325,505.7175 654.7325,507.8113 Q654.7325,509.905 655.42,510.9831 Q656.1075,512.0456 657.4513,512.0456 Q658.0763,512.0456 658.67,511.78 Q659.2638,511.4988 659.8888,510.9206 L659.8888,513.6394 Z " fill="#000000"/><a href="https://bo4e.github.io/BO4E-python/latest/api/bo4e.com.html#bo4e.com.tarifeinschraenkung.Tarifeinschraenkung" target="_top" title="https://bo4e.github.io/BO4E-python/latest/api/bo4e.com.html#bo4e.com.tarifeinschraenkung.Tarifeinschraenkung" xlink:actuate="onRequest" xlink:href="https://bo4e.github.io/BO4E-python/latest/api/bo4e.com.html#bo4e.com.tarifeinschraenkung.Tarifeinschraenkung" xlink:show="new" xlink:title="https://bo4e.github.io/BO4E-python/latest/api/bo4e.com.html#bo4e.com.tarifeinschraenkung.Tarifeinschraenkung" xlink:type="simple"><text fill="#0000FF" font-family="sans-serif" font-size="14" lengthAdjust="spacing" text-decoration="underline" textLength="143.5068" x="675.6729" y="507.0251">Tarifeinschraenkung</text></a><text fill="#000000" font-family="sans-serif" font-size="10" lengthAdjust="spacing" textLength="153.0127" x="670.92" y="519.6091">bo4e.com.tarifeinschraenkung</text></g><!--class Tarifpreisblatt--><g class="entity" data-entity="Tarifpreisblatt" data-source-line="3" data-uid="ent0002" id="entity_Tarifpreisblatt"><rect fill="#F1F1F1" height="111.125" rx="2.5" ry="2.5" style="stroke:#181818;stroke-width:0.5;" width="372.001" x="7" y="274.44"/><ellipse cx="132.7715" cy="293.4088" fill="#ADD1B2" rx="11" ry="11" style="stroke:#181818;stroke-width:1;"/><path d="M135.7402,299.0494 Q135.1621,299.3463 134.5215,299.4869 Q133.8809,299.6431 133.1777,299.6431 Q130.6777,299.6431 129.3496,298.0025 Q128.0371,296.3463 128.0371,293.2213 Q128.0371,290.0963 129.3496,288.44 Q130.6777,286.7838 133.1777,286.7838 Q133.8809,286.7838 134.5215,286.94 Q135.1777,287.0963 135.7402,287.3931 L135.7402,290.1119 Q135.1152,289.5338 134.5215,289.2681 Q133.9277,288.9869 133.3027,288.9869 Q131.959,288.9869 131.2715,290.065 Q130.584,291.1275 130.584,293.2213 Q130.584,295.315 131.2715,296.3931 Q131.959,297.4556 133.3027,297.4556 Q133.9277,297.4556 134.5215,297.19 Q135.1152,296.9088 135.7402,296.3306 L135.7402,299.0494 Z " fill="#000000"/><a href="https://bo4e.github.io/BO4E-python/latest/api/bo4e.bo.html#bo4e.bo.tarifpreisblatt.Tarifpreisblatt" target="_top" title="https://bo4e.github.io/BO4E-python/latest/api/bo4e.bo.html#bo4e.bo.tarifpreisblatt.Tarifpreisblatt" xlink:actuate="onRequest" xlink:href="https://bo4e.github.io/BO4E-python/latest/api/bo4e.bo.html#bo4e.bo.tarifpreisblatt.Tarifpreisblatt" xlink:show="new" xlink:title="https://bo4e.github.io/BO4E-python/latest/api/bo4e.bo.html#bo4e.bo.tarifpreisblatt.Tarifpreisblatt" xlink:type="simple"><text fill="#0000FF" font-family="sans-serif" font-size="14" lengthAdjust="spacing" text-decoration="underline" textLength="98.4785" x="160.0112" y="292.4351">Tarifpreisblatt</text></a><text fill="#000000" font-family="sans-serif" font-size="10" lengthAdjust="spacing" textLength="111.958" x="153.2715" y="305.0191">bo4e.bo.tarifpreisblatt</text><line style="stroke:#181818;stroke-width:0.5;" x1="8" x2="378.001" y1="312.3775" y2="312.3775"/><text fill="#000000" font-family="sans-serif" font-size="14" lengthAdjust="spacing" textLength="360.001" x="13" y="329.3726">_version : str [0..1] = 202501.0.1.dev3+g694da5f6</text><text fill="#000000" font-family="sans-serif" font-size="14" lengthAdjust="spacing" textLength="318.5752" x="13" y="345.6695">zusatzAttribute : ZusatzAttribut [0..*] = None</text><text fill="#000000" font-family="sans-serif" font-size="14" lengthAdjust="spacing" textLength="151.1768" x="13" y="361.9664">_id : str [0..1] = None</text><text fill="#000000" font-family="sans-serif" font-size="14" lengthAdjust="spacing" textLength="295.4902" x="13" y="378.2632">preisstand : AwareDatetime [0..1] = None</text></g><!--link Tarifpreisblatt to Tarifinfo--><g class="link" data-entity-1="Tarifpreisblatt" data-entity-2="Tarifinfo" data-source-line="21" data-uid="lnk12" id="link_Tarifpreisblatt_Tarifinfo"><path codeLine="21" d="M300.93,273.95 C335.1,256.81 373.31,238.43 409,223 C501.06,183.2 594.0308,150.0622 659.4008,127.8022" fill="none" id="Tarifpreisblatt-to-Tarifinfo" style="stroke:#181818;stroke-width:1;"/><polygon fill="none" points="676.44,122,657.4667,122.1225,661.3349,133.482,676.44,122" style="stroke:#181818;stroke-width:1;"/></g><!--link Tarifpreisblatt to Tarifpreisposition--><g class="link" data-entity-1="Tarifpreisblatt" data-entity-2="Tarifpreisposition" data-source-line="22" data-uid="lnk13" id="link_Tarifpreisblatt_Tarifpreisposition"><path codeLine="22" d="M379.32,378.62 C389.34,380.87 399.28,383.01 409,385 C490.1,401.58 571.7183,413.8316 637.4483,422.7216" fill="none" id="Tarifpreisblatt-to-Tarifpreisposition" style="stroke:#181818;stroke-width:1;"/><polygon fill="#181818" points="649.34,424.33,643.9303,419.5619,637.4483,422.7216,642.858,427.4897,649.34,424.33" style="stroke:#181818;stroke-width:1;"/><text fill="#000000" font-family="sans-serif" font-size="13" lengthAdjust="spacing" textLength="66.5742" x="453.5" y="381.0669">tarifpreise</text><text fill="#000000" font-family="sans-serif" font-size="13" lengthAdjust="spacing" textLength="23.0356" x="618.6443" y="436.1497">0..*</text></g><!--link Tarifpreisblatt to Tarifberechnungsparameter--><g class="link" data-entity-1="Tarifpreisblatt" data-entity-2="Tarifberechnungsparameter" data-source-line="23" data-uid="lnk14" id="link_Tarifpreisblatt_Tarifberechnungsparameter"><path codeLine="23" d="M379.46,284.55 C389.44,282.29 399.34,280.09 409,278 C480.6,262.51 549.728,249.2108 612.848,237.6008" fill="none" id="Tarifpreisblatt-to-Tarifberechnungsparameter" style="stroke:#181818;stroke-width:1;"/><polygon fill="#181818" points="624.65,235.43,618.0254,232.5814,612.848,237.6008,619.4726,240.4494,624.65,235.43" style="stroke:#181818;stroke-width:1;"/><text fill="#000000" font-family="sans-serif" font-size="13" lengthAdjust="spacing" textLength="153.353" x="410" y="244.0669">berechnungsparameter</text><text fill="#000000" font-family="sans-serif" font-size="13" lengthAdjust="spacing" textLength="24.8066" x="587.3747" y="250.4498">0..1</text></g><!--link Tarifpreisblatt to Tarifeinschraenkung--><g class="link" data-entity-1="Tarifpreisblatt" data-entity-2="Tarifeinschraenkung" data-source-line="24" data-uid="lnk15" id="link_Tarifpreisblatt_Tarifeinschraenkung"><path codeLine="24" d="M293.75,386.04 C329.3,404.28 370.17,423.32 409,437 C485.41,463.91 563.8472,480.6155 629.7372,492.0655" fill="none" id="Tarifpreisblatt-to-Tarifeinschraenkung" style="stroke:#181818;stroke-width:1;"/><polygon fill="#181818" points="641.56,494.12,636.3334,489.1518,629.7372,492.0655,634.9638,497.0337,641.56,494.12" style="stroke:#181818;stroke-width:1;"/><text fill="#000000" font-family="sans-serif" font-size="13" lengthAdjust="spacing" textLength="130.4126" x="421.5" y="433.0669">tarifeinschraenkung</text><text fill="#000000" font-family="sans-serif" font-size="13" lengthAdjust="spacing" textLength="24.8066" x="609.2356" y="505.6839">0..1</text></g><!--link Tarifpreisblatt to Preisgarantie--><g class="link" data-entity-1="Tarifpreisblatt" data-entity-2="Preisgarantie" data-source-line="25" data-uid="lnk16" id="link_Tarifpreisblatt_Preisgarantie"><path codeLine="25" d="M379.22,350.75 C389.28,351.59 399.26,352.35 409,353 C494.45,358.75 580.8008,360.7014 646.6108,361.4614" fill="none" id="Tarifpreisblatt-to-Preisgarantie" style="stroke:#181818;stroke-width:1;"/><polygon fill="#181818" points="658.61,361.6,652.6566,357.531,646.6108,361.4614,652.5642,365.5304,658.61,361.6" style="stroke:#181818;stroke-width:1;"/><text fill="#000000" font-family="sans-serif" font-size="13" lengthAdjust="spacing" textLength="86.4551" x="443.5" y="349.0669">preisgarantie</text><text fill="#000000" font-family="sans-serif" font-size="13" lengthAdjust="spacing" textLength="24.8066" x="626.005" y="374.3725">0..1</text></g><!--link Tarifpreisblatt to AufAbschlag--><g class="link" data-entity-1="Tarifpreisblatt" data-entity-2="AufAbschlag" data-source-line="26" data-uid="lnk17" id="link_Tarifpreisblatt_AufAbschlag"><path codeLine="26" d="M379.26,315.92 C476.37,308.54 577.7444,300.8283 649.5444,295.3783" fill="none" id="Tarifpreisblatt-to-AufAbschlag" style="stroke:#181818;stroke-width:1;"/><polygon fill="#181818" points="661.51,294.47,655.2245,290.9356,649.5444,295.3783,655.83,298.9127,661.51,294.47" style="stroke:#181818;stroke-width:1;"/><text fill="#000000" font-family="sans-serif" font-size="13" lengthAdjust="spacing" textLength="123.4365" x="425" y="299.0669">tarifAufAbschlaege</text><text fill="#000000" font-family="sans-serif" font-size="13" lengthAdjust="spacing" textLength="23.0356" x="630.7293" y="307.7388">0..*</text></g><!--SRC=[jLLBRzim33xNlu98RXsYE5sQTSPMm5rxtNROQLamo35j2xCbmw9RB5l_-sJdOSjnWWv9R_hu4lbHf5AC24X18UA481G5BaaewJZBb6iDW_ay8SgrDnu7Qeei5fIK0HDgVFTb-Z3AVrEYv3ZbX9h6F1Thgq2nXB9qk0N42n7b1GeT65DYtsmC7RnO_90Vj5YXDt5l3yGO0DTTF_ZZNFnyn4AR0i03JGNCNSOc2_W8L-xLjJjXBfkm41_VlebdxwSXluvcpiMgr9nMFb4XWfBGU7wt97MGooh8PoNHN272RlIreiv44vULtd_Y1TuROaXasB5yTXp9CzGvN-9f5CC6B1Or8Hi4mxlP_Jl_fYBax7qKCbBh3bOds9qETwtIDlsga67WL0AMAcinO52R0WDX-E3wDxDFftAmlMUuGtLD0Pf9IMGfOrD4OMeXBDQiz6dWe6QVjQDND3JsQSzTAIyZ7kXbalAO-MNaRyxGElVdttAiCsuvd3l7UkXYmu0aWUnh6u65-ZErtEjSBQTNUJlrdRdIejgqhMMu5S6-wCWpiUmwQt4hVfKoK4ZJqeAZ_6LUuReEMmOziYELs8PDARQysfvxFyXezFTsk_sQvRHlPmmlOL3jyy5kK_Hrm8E6MpmIPj8Dqplz7lHEwt-4xV2wIQz3pClYsIFYWJK1BsIilGmskJGYZD5n4X4YP9YPmhMZ4_K4Uv4ZWMce_m40]--></g></svg>