<?xml version="1.0" encoding="us-ascii" standalone="no"?><svg xmlns="http://www.w3.org/2000/svg" xmlns:xlink="http://www.w3.org/1999/xlink" contentStyleType="text/css" height="687px" preserveAspectRatio="none" style="width:879px;height:687px;background:#FFFFFF;" version="1.1" viewBox="0 0 879 687" width="879px" zoomAndPan="magnify"><defs/><g><!--cluster bo4e--><g id="cluster_bo4e"><path d="M569.5,6 L610.5,6 A3.75,3.75 0 0 1 613,8.5 L620,28.2969 L869.5,28.2969 A2.5,2.5 0 0 1 872,30.7969 L872,677.5 A2.5,2.5 0 0 1 869.5,680 L569.5,680 A2.5,2.5 0 0 1 567,677.5 L567,8.5 A2.5,2.5 0 0 1 569.5,6 " fill="none" style="stroke:#000000;stroke-width:1.5;"/><line style="stroke:#000000;stroke-width:1.5;" x1="567" x2="620" y1="28.2969" y2="28.2969"/><text fill="#000000" font-family="sans-serif" font-size="14" font-weight="bold" lengthAdjust="spacing" textLength="40" x="571" y="20.9951">bo4e</text></g><!--cluster bo--><g id="cluster_bo"><path d="M650,49 L716,49 A3.75,3.75 0 0 1 718.5,51.5 L725.5,71.2969 L789,71.2969 A2.5,2.5 0 0 1 791.5,73.7969 L791.5,135.5 A2.5,2.5 0 0 1 789,138 L650,138 A2.5,2.5 0 0 1 647.5,135.5 L647.5,51.5 A2.5,2.5 0 0 1 650,49 " fill="#B6D7A8" style="stroke:#000000;stroke-width:1.5;"/><line style="stroke:#000000;stroke-width:1.5;" x1="647.5" x2="725.5" y1="71.2969" y2="71.2969"/><a href="https://bo4e.github.io/BO4E-python/latest/api/bo4e.bo.html" target="_top" title="https://bo4e.github.io/BO4E-python/latest/api/bo4e.bo.html" xlink:actuate="onRequest" xlink:href="https://bo4e.github.io/BO4E-python/latest/api/bo4e.bo.html" xlink:show="new" xlink:title="https://bo4e.github.io/BO4E-python/latest/api/bo4e.bo.html" xlink:type="simple"><text fill="#0000FF" font-family="sans-serif" font-size="14" font-weight="bold" lengthAdjust="spacing" text-decoration="underline" textLength="65" x="651.5" y="63.9951">bo4e.bo</text></a></g><!--cluster com--><g id="cluster_com"><path d="M593.5,162 L672.5,162 A3.75,3.75 0 0 1 675,164.5 L682,184.2969 L845.5,184.2969 A2.5,2.5 0 0 1 848,186.7969 L848,540.5 A2.5,2.5 0 0 1 845.5,543 L593.5,543 A2.5,2.5 0 0 1 591,540.5 L591,164.5 A2.5,2.5 0 0 1 593.5,162 " fill="#E0A86C" style="stroke:#000000;stroke-width:1.5;"/><line style="stroke:#000000;stroke-width:1.5;" x1="591" x2="682" y1="184.2969" y2="184.2969"/><a href="https://bo4e.github.io/BO4E-python/latest/api/bo4e.com.html" target="_top" title="https://bo4e.github.io/BO4E-python/latest/api/bo4e.com.html" xlink:actuate="onRequest" xlink:href="https://bo4e.github.io/BO4E-python/latest/api/bo4e.com.html" xlink:show="new" xlink:title="https://bo4e.github.io/BO4E-python/latest/api/bo4e.com.html" xlink:type="simple"><text fill="#0000FF" font-family="sans-serif" font-size="14" font-weight="bold" lengthAdjust="spacing" text-decoration="underline" textLength="78" x="595" y="176.9951">bo4e.com</text></a></g><!--cluster enum--><g id="cluster_enum"><path d="M653,567 L743,567 A3.75,3.75 0 0 1 745.5,569.5 L752.5,589.2969 L786,589.2969 A2.5,2.5 0 0 1 788.5,591.7969 L788.5,653.5 A2.5,2.5 0 0 1 786,656 L653,656 A2.5,2.5 0 0 1 650.5,653.5 L650.5,569.5 A2.5,2.5 0 0 1 653,567 " fill="#D1C358" style="stroke:#000000;stroke-width:1.5;"/><line style="stroke:#000000;stroke-width:1.5;" x1="650.5" x2="752.5" y1="589.2969" y2="589.2969"/><a href="https://bo4e.github.io/BO4E-python/latest/api/bo4e.enum.html" target="_top" title="https://bo4e.github.io/BO4E-python/latest/api/bo4e.enum.html" xlink:actuate="onRequest" xlink:href="https://bo4e.github.io/BO4E-python/latest/api/bo4e.enum.html" xlink:show="new" xlink:title="https://bo4e.github.io/BO4E-python/latest/api/bo4e.enum.html" xlink:type="simple"><text fill="#0000FF" font-family="sans-serif" font-size="14" font-weight="bold" lengthAdjust="spacing" text-decoration="underline" textLength="89" x="654.5" y="581.9951">bo4e.enum</text></a></g><!--class Tarifinfo--><g id="elem_Tarifinfo"><rect codeLine="11" fill="#F1F1F1" height="37.9375" id="Tarifinfo" rx="2.5" ry="2.5" style="stroke:#181818;stroke-width:0.5;" width="112" x="663.5" y="84.03"/><ellipse cx="678.5" cy="102.9987" fill="#ADD1B2" rx="11" ry="11" style="stroke:#181818;stroke-width:1.0;"/><path d="M681.4688,108.6394 Q680.8906,108.9362 680.25,109.0769 Q679.6094,109.2331 678.9063,109.2331 Q676.4063,109.2331 675.0781,107.5925 Q673.7656,105.9362 673.7656,102.8112 Q673.7656,99.6862 675.0781,98.03 Q676.4063,96.3737 678.9063,96.3737 Q679.6094,96.3737 680.25,96.53 Q680.9063,96.6862 681.4688,96.9831 L681.4688,99.7019 Q680.8438,99.1237 680.25,98.8581 Q679.6563,98.5769 679.0313,98.5769 Q677.6875,98.5769 677,99.655 Q676.3125,100.7175 676.3125,102.8112 Q676.3125,104.905 677,105.9831 Q677.6875,107.0456 679.0313,107.0456 Q679.6563,107.0456 680.25,106.78 Q680.8438,106.4987 681.4688,105.9206 L681.4688,108.6394 Z " fill="#000000"/><a href="https://bo4e.github.io/BO4E-python/latest/api/bo4e.bo.html#bo4e.bo.tarifinfo.Tarifinfo" target="_top" title="https://bo4e.github.io/BO4E-python/latest/api/bo4e.bo.html#bo4e.bo.tarifinfo.Tarifinfo" xlink:actuate="onRequest" xlink:href="https://bo4e.github.io/BO4E-python/latest/api/bo4e.bo.html#bo4e.bo.tarifinfo.Tarifinfo" xlink:show="new" xlink:title="https://bo4e.github.io/BO4E-python/latest/api/bo4e.bo.html#bo4e.bo.tarifinfo.Tarifinfo" xlink:type="simple"><text fill="#0000FF" font-family="sans-serif" font-size="14" lengthAdjust="spacing" text-decoration="underline" textLength="54" x="705.5" y="102.0251">Tarifinfo</text></a><text fill="#000000" font-family="sans-serif" font-size="10" lengthAdjust="spacing" textLength="80" x="692.5" y="114.6091">bo4e.bo.tarifinfo</text></g><!--class AufAbschlagRegional--><g id="elem_AufAbschlagRegional"><rect codeLine="14" fill="#F1F1F1" height="37.9375" id="AufAbschlagRegional" rx="2.5" ry="2.5" style="stroke:#181818;stroke-width:0.5;" width="179" x="630" y="197.03"/><ellipse cx="645" cy="215.9987" fill="#ADD1B2" rx="11" ry="11" style="stroke:#181818;stroke-width:1.0;"/><path d="M647.9688,221.6394 Q647.3906,221.9362 646.75,222.0769 Q646.1094,222.2331 645.4063,222.2331 Q642.9063,222.2331 641.5781,220.5925 Q640.2656,218.9362 640.2656,215.8112 Q640.2656,212.6862 641.5781,211.03 Q642.9063,209.3737 645.4063,209.3737 Q646.1094,209.3737 646.75,209.53 Q647.4063,209.6862 647.9688,209.9831 L647.9688,212.7019 Q647.3438,212.1237 646.75,211.8581 Q646.1563,211.5769 645.5313,211.5769 Q644.1875,211.5769 643.5,212.655 Q642.8125,213.7175 642.8125,215.8112 Q642.8125,217.905 643.5,218.9831 Q644.1875,220.0456 645.5313,220.0456 Q646.1563,220.0456 646.75,219.78 Q647.3438,219.4987 647.9688,218.9206 L647.9688,221.6394 Z " fill="#000000"/><a href="https://bo4e.github.io/BO4E-python/latest/api/bo4e.com.html#bo4e.com.aufabschlagregional.AufAbschlagRegional" target="_top" title="https://bo4e.github.io/BO4E-python/latest/api/bo4e.com.html#bo4e.com.aufabschlagregional.AufAbschlagRegional" xlink:actuate="onRequest" xlink:href="https://bo4e.github.io/BO4E-python/latest/api/bo4e.com.html#bo4e.com.aufabschlagregional.AufAbschlagRegional" xlink:show="new" xlink:title="https://bo4e.github.io/BO4E-python/latest/api/bo4e.com.html#bo4e.com.aufabschlagregional.AufAbschlagRegional" xlink:type="simple"><text fill="#0000FF" font-family="sans-serif" font-size="14" lengthAdjust="spacing" text-decoration="underline" textLength="145" x="660" y="215.0251">AufAbschlagRegional</text></a><text fill="#000000" font-family="sans-serif" font-size="10" lengthAdjust="spacing" textLength="147" x="659" y="227.6091">bo4e.com.aufabschlagregional</text></g><!--class Tarifeinschraenkung--><g id="elem_Tarifeinschraenkung"><rect codeLine="15" fill="#F1F1F1" height="37.9375" id="Tarifeinschraenkung" rx="2.5" ry="2.5" style="stroke:#181818;stroke-width:0.5;" width="178" x="630.5" y="270.03"/><ellipse cx="645.5" cy="288.9988" fill="#ADD1B2" rx="11" ry="11" style="stroke:#181818;stroke-width:1.0;"/><path d="M648.4688,294.6394 Q647.8906,294.9363 647.25,295.0769 Q646.6094,295.2331 645.9063,295.2331 Q643.4063,295.2331 642.0781,293.5925 Q640.7656,291.9363 640.7656,288.8113 Q640.7656,285.6863 642.0781,284.03 Q643.4063,282.3738 645.9063,282.3738 Q646.6094,282.3738 647.25,282.53 Q647.9063,282.6863 648.4688,282.9831 L648.4688,285.7019 Q647.8438,285.1238 647.25,284.8581 Q646.6563,284.5769 646.0313,284.5769 Q644.6875,284.5769 644,285.655 Q643.3125,286.7175 643.3125,288.8113 Q643.3125,290.905 644,291.9831 Q644.6875,293.0456 646.0313,293.0456 Q646.6563,293.0456 647.25,292.78 Q647.8438,292.4988 648.4688,291.9206 L648.4688,294.6394 Z " fill="#000000"/><a href="https://bo4e.github.io/BO4E-python/latest/api/bo4e.com.html#bo4e.com.tarifeinschraenkung.Tarifeinschraenkung" target="_top" title="https://bo4e.github.io/BO4E-python/latest/api/bo4e.com.html#bo4e.com.tarifeinschraenkung.Tarifeinschraenkung" xlink:actuate="onRequest" xlink:href="https://bo4e.github.io/BO4E-python/latest/api/bo4e.com.html#bo4e.com.tarifeinschraenkung.Tarifeinschraenkung" xlink:show="new" xlink:title="https://bo4e.github.io/BO4E-python/latest/api/bo4e.com.html#bo4e.com.tarifeinschraenkung.Tarifeinschraenkung" xlink:type="simple"><text fill="#0000FF" font-family="sans-serif" font-size="14" lengthAdjust="spacing" text-decoration="underline" textLength="141" x="662" y="288.0251">Tarifeinschraenkung</text></a><text fill="#000000" font-family="sans-serif" font-size="10" lengthAdjust="spacing" textLength="146" x="659.5" y="300.6091">bo4e.com.tarifeinschraenkung</text></g><!--class Tarifberechnungsparameter--><g id="elem_Tarifberechnungsparameter"><rect codeLine="16" fill="#F1F1F1" height="37.9375" id="Tarifberechnungsparameter" rx="2.5" ry="2.5" style="stroke:#181818;stroke-width:0.5;" width="225" x="607" y="343.03"/><ellipse cx="622" cy="361.9988" fill="#ADD1B2" rx="11" ry="11" style="stroke:#181818;stroke-width:1.0;"/><path d="M624.9688,367.6394 Q624.3906,367.9363 623.75,368.0769 Q623.1094,368.2331 622.4063,368.2331 Q619.9063,368.2331 618.5781,366.5925 Q617.2656,364.9363 617.2656,361.8113 Q617.2656,358.6863 618.5781,357.03 Q619.9063,355.3738 622.4063,355.3738 Q623.1094,355.3738 623.75,355.53 Q624.4063,355.6863 624.9688,355.9831 L624.9688,358.7019 Q624.3438,358.1238 623.75,357.8581 Q623.1563,357.5769 622.5313,357.5769 Q621.1875,357.5769 620.5,358.655 Q619.8125,359.7175 619.8125,361.8113 Q619.8125,363.905 620.5,364.9831 Q621.1875,366.0456 622.5313,366.0456 Q623.1563,366.0456 623.75,365.78 Q624.3438,365.4988 624.9688,364.9206 L624.9688,367.6394 Z " fill="#000000"/><a href="https://bo4e.github.io/BO4E-python/latest/api/bo4e.com.html#bo4e.com.tarifberechnungsparameter.Tarifberechnungsparameter" target="_top" title="https://bo4e.github.io/BO4E-python/latest/api/bo4e.com.html#bo4e.com.tarifberechnungsparameter.Tarifberechnungsparameter" xlink:actuate="onRequest" xlink:href="https://bo4e.github.io/BO4E-python/latest/api/bo4e.com.html#bo4e.com.tarifberechnungsparameter.Tarifberechnungsparameter" xlink:show="new" xlink:title="https://bo4e.github.io/BO4E-python/latest/api/bo4e.com.html#bo4e.com.tarifberechnungsparameter.Tarifberechnungsparameter" xlink:type="simple"><text fill="#0000FF" font-family="sans-serif" font-size="14" lengthAdjust="spacing" text-decoration="underline" textLength="193" x="636" y="361.0251">Tarifberechnungsparameter</text></a><text fill="#000000" font-family="sans-serif" font-size="10" lengthAdjust="spacing" textLength="185" x="640" y="373.6091">bo4e.com.tarifberechnungsparameter</text></g><!--class TarifpreispositionProOrt--><g id="elem_TarifpreispositionProOrt"><rect codeLine="17" fill="#F1F1F1" height="37.9375" id="TarifpreispositionProOrt" rx="2.5" ry="2.5" style="stroke:#181818;stroke-width:0.5;" width="194" x="622.5" y="416.03"/><ellipse cx="637.5" cy="434.9988" fill="#ADD1B2" rx="11" ry="11" style="stroke:#181818;stroke-width:1.0;"/><path d="M640.4688,440.6394 Q639.8906,440.9363 639.25,441.0769 Q638.6094,441.2331 637.9063,441.2331 Q635.4063,441.2331 634.0781,439.5925 Q632.7656,437.9363 632.7656,434.8113 Q632.7656,431.6863 634.0781,430.03 Q635.4063,428.3738 637.9063,428.3738 Q638.6094,428.3738 639.25,428.53 Q639.9063,428.6863 640.4688,428.9831 L640.4688,431.7019 Q639.8438,431.1238 639.25,430.8581 Q638.6563,430.5769 638.0313,430.5769 Q636.6875,430.5769 636,431.655 Q635.3125,432.7175 635.3125,434.8113 Q635.3125,436.905 636,437.9831 Q636.6875,439.0456 638.0313,439.0456 Q638.6563,439.0456 639.25,438.78 Q639.8438,438.4988 640.4688,437.9206 L640.4688,440.6394 Z " fill="#000000"/><a href="https://bo4e.github.io/BO4E-python/latest/api/bo4e.com.html#bo4e.com.tarifpreispositionproort.TarifpreispositionProOrt" target="_top" title="https://bo4e.github.io/BO4E-python/latest/api/bo4e.com.html#bo4e.com.tarifpreispositionproort.TarifpreispositionProOrt" xlink:actuate="onRequest" xlink:href="https://bo4e.github.io/BO4E-python/latest/api/bo4e.com.html#bo4e.com.tarifpreispositionproort.TarifpreispositionProOrt" xlink:show="new" xlink:title="https://bo4e.github.io/BO4E-python/latest/api/bo4e.com.html#bo4e.com.tarifpreispositionproort.TarifpreispositionProOrt" xlink:type="simple"><text fill="#0000FF" font-family="sans-serif" font-size="14" lengthAdjust="spacing" text-decoration="underline" textLength="162" x="651.5" y="434.0251">TarifpreispositionProOrt</text></a><text fill="#000000" font-family="sans-serif" font-size="10" lengthAdjust="spacing" textLength="161" x="652" y="446.6091">bo4e.com.tarifpreispositionproort</text></g><!--class Preisgarantie--><g id="elem_Preisgarantie"><rect codeLine="18" fill="#F1F1F1" height="37.9375" id="Preisgarantie" rx="2.5" ry="2.5" style="stroke:#181818;stroke-width:0.5;" width="146" x="646.5" y="489.03"/><ellipse cx="661.5" cy="507.9988" fill="#ADD1B2" rx="11" ry="11" style="stroke:#181818;stroke-width:1.0;"/><path d="M664.4688,513.6394 Q663.8906,513.9363 663.25,514.0769 Q662.6094,514.2331 661.9063,514.2331 Q659.4063,514.2331 658.0781,512.5925 Q656.7656,510.9363 656.7656,507.8113 Q656.7656,504.6863 658.0781,503.03 Q659.4063,501.3738 661.9063,501.3738 Q662.6094,501.3738 663.25,501.53 Q663.9063,501.6863 664.4688,501.9831 L664.4688,504.7019 Q663.8438,504.1238 663.25,503.8581 Q662.6563,503.5769 662.0313,503.5769 Q660.6875,503.5769 660,504.655 Q659.3125,505.7175 659.3125,507.8113 Q659.3125,509.905 660,510.9831 Q660.6875,512.0456 662.0313,512.0456 Q662.6563,512.0456 663.25,511.78 Q663.8438,511.4988 664.4688,510.9206 L664.4688,513.6394 Z " fill="#000000"/><a href="https://bo4e.github.io/BO4E-python/latest/api/bo4e.com.html#bo4e.com.preisgarantie.Preisgarantie" target="_top" title="https://bo4e.github.io/BO4E-python/latest/api/bo4e.com.html#bo4e.com.preisgarantie.Preisgarantie" xlink:actuate="onRequest" xlink:href="https://bo4e.github.io/BO4E-python/latest/api/bo4e.com.html#bo4e.com.preisgarantie.Preisgarantie" xlink:show="new" xlink:title="https://bo4e.github.io/BO4E-python/latest/api/bo4e.com.html#bo4e.com.preisgarantie.Preisgarantie" xlink:type="simple"><text fill="#0000FF" font-family="sans-serif" font-size="14" lengthAdjust="spacing" text-decoration="underline" textLength="90" x="687.5" y="507.0251">Preisgarantie</text></a><text fill="#000000" font-family="sans-serif" font-size="10" lengthAdjust="spacing" textLength="114" x="675.5" y="519.6091">bo4e.com.preisgarantie</text></g><!--class Typ--><g id="elem_Typ"><rect codeLine="21" fill="#F1F1F1" height="37.9375" id="Typ" rx="2.5" ry="2.5" style="stroke:#181818;stroke-width:0.5;" width="106" x="666.5" y="602.03"/><ellipse cx="681.5" cy="620.9988" fill="#ADD1B2" rx="11" ry="11" style="stroke:#181818;stroke-width:1.0;"/><path d="M684.4688,626.6394 Q683.8906,626.9363 683.25,627.0769 Q682.6094,627.2331 681.9063,627.2331 Q679.4063,627.2331 678.0781,625.5925 Q676.7656,623.9363 676.7656,620.8113 Q676.7656,617.6863 678.0781,616.03 Q679.4063,614.3738 681.9063,614.3738 Q682.6094,614.3738 683.25,614.53 Q683.9063,614.6863 684.4688,614.9831 L684.4688,617.7019 Q683.8438,617.1238 683.25,616.8581 Q682.6563,616.5769 682.0313,616.5769 Q680.6875,616.5769 680,617.655 Q679.3125,618.7175 679.3125,620.8113 Q679.3125,622.905 680,623.9831 Q680.6875,625.0456 682.0313,625.0456 Q682.6563,625.0456 683.25,624.78 Q683.8438,624.4988 684.4688,623.9206 L684.4688,626.6394 Z " fill="#000000"/><a href="https://bo4e.github.io/BO4E-python/latest/api/bo4e.enum.html#bo4e.enum.typ.Typ" target="_top" title="https://bo4e.github.io/BO4E-python/latest/api/bo4e.enum.html#bo4e.enum.typ.Typ" xlink:actuate="onRequest" xlink:href="https://bo4e.github.io/BO4E-python/latest/api/bo4e.enum.html#bo4e.enum.typ.Typ" xlink:show="new" xlink:title="https://bo4e.github.io/BO4E-python/latest/api/bo4e.enum.html#bo4e.enum.typ.Typ" xlink:type="simple"><text fill="#0000FF" font-family="sans-serif" font-size="14" lengthAdjust="spacing" text-decoration="underline" textLength="25" x="720" y="620.0251">Typ</text></a><text fill="#000000" font-family="sans-serif" font-size="10" lengthAdjust="spacing" textLength="74" x="695.5" y="632.6091">bo4e.enum.typ</text></g><!--class Tarif--><g id="elem_Tarif"><rect codeLine="3" fill="#F1F1F1" height="111.125" id="Tarif" rx="2.5" ry="2.5" style="stroke:#181818;stroke-width:0.5;" width="361" x="7" y="306.44"/><ellipse cx="152.25" cy="325.4088" fill="#ADD1B2" rx="11" ry="11" style="stroke:#181818;stroke-width:1.0;"/><path d="M155.2188,331.0494 Q154.6406,331.3463 154,331.4869 Q153.3594,331.6431 152.6563,331.6431 Q150.1563,331.6431 148.8281,330.0025 Q147.5156,328.3463 147.5156,325.2213 Q147.5156,322.0963 148.8281,320.44 Q150.1563,318.7838 152.6563,318.7838 Q153.3594,318.7838 154,318.94 Q154.6563,319.0963 155.2188,319.3931 L155.2188,322.1119 Q154.5938,321.5338 154,321.2681 Q153.4063,320.9869 152.7813,320.9869 Q151.4375,320.9869 150.75,322.065 Q150.0625,323.1275 150.0625,325.2213 Q150.0625,327.315 150.75,328.3931 Q151.4375,329.4556 152.7813,329.4556 Q153.4063,329.4556 154,329.19 Q154.5938,328.9088 155.2188,328.3306 L155.2188,331.0494 Z " fill="#000000"/><a href="https://bo4e.github.io/BO4E-python/latest/api/bo4e.bo.html#bo4e.bo.tarif.Tarif" target="_top" title="https://bo4e.github.io/BO4E-python/latest/api/bo4e.bo.html#bo4e.bo.tarif.Tarif" xlink:actuate="onRequest" xlink:href="https://bo4e.github.io/BO4E-python/latest/api/bo4e.bo.html#bo4e.bo.tarif.Tarif" xlink:show="new" xlink:title="https://bo4e.github.io/BO4E-python/latest/api/bo4e.bo.html#bo4e.bo.tarif.Tarif" xlink:type="simple"><text fill="#0000FF" font-family="sans-serif" font-size="14" lengthAdjust="spacing" text-decoration="underline" textLength="29" x="189.25" y="324.4351">Tarif</text></a><text fill="#000000" font-family="sans-serif" font-size="10" lengthAdjust="spacing" textLength="62" x="172.75" y="337.0191">bo4e.bo.tarif</text><line style="stroke:#181818;stroke-width:0.5;" x1="8" x2="367" y1="344.3775" y2="344.3775"/><text fill="#000000" font-family="sans-serif" font-size="14" lengthAdjust="spacing" textLength="349" x="13" y="361.3726">_version : str [0..1] = 202401.2.1.dev1+g946552c</text><text fill="#000000" font-family="sans-serif" font-size="14" lengthAdjust="spacing" textLength="311" x="13" y="377.6695">zusatzAttribute : ZusatzAttribut [0..*] = None</text><text fill="#000000" font-family="sans-serif" font-size="14" lengthAdjust="spacing" textLength="147" x="13" y="393.9664">_id : str [0..1] = None</text><text fill="#000000" font-family="sans-serif" font-size="14" lengthAdjust="spacing" textLength="288" x="13" y="410.2632">preisstand : AwareDatetime [0..1] = None</text></g><!--link Tarif to Tarifinfo--><g id="link_Tarif_Tarifinfo"><path codeLine="24" d="M266.24,305.96 C304.74,279.67 352.6,249.13 398,226 C487.48,180.42 580.9075,147.1324 646.0175,125.8924 " fill="none" id="Tarif-to-Tarifinfo" style="stroke:#181818;stroke-width:1.0;"/><polygon fill="none" points="663.13,120.31,644.1567,120.1882,647.8783,131.5965,663.13,120.31" style="stroke:#181818;stroke-width:1.0;"/></g><!--link Tarif to Typ--><g id="link_Tarif_Typ"><path codeLine="25" d="M264.61,418.03 C303.32,444.97 351.83,476.45 398,500 C488.73,546.28 590.0461,581.1793 654.7661,601.5993 " fill="none" id="Tarif-to-Typ" style="stroke:#181818;stroke-width:1.0;"/><polygon fill="#181818" points="666.21,605.21,661.6916,599.59,654.7661,601.5993,659.2845,607.2193,666.21,605.21" style="stroke:#181818;stroke-width:1.0;"/><text fill="#000000" font-family="sans-serif" font-size="13" lengthAdjust="spacing" textLength="27" x="461" y="496.0669">_typ</text><text fill="#000000" font-family="sans-serif" font-size="13" lengthAdjust="spacing" textLength="24" x="634.6608" y="616.3262">0..1</text></g><!--link Tarif to Tarifberechnungsparameter--><g id="link_Tarif_Tarifberechnungsparameter"><path codeLine="26" d="M368.3,362 C447.26,362 525.5,362 594.6,362 " fill="none" id="Tarif-to-Tarifberechnungsparameter" style="stroke:#181818;stroke-width:1.0;"/><polygon fill="#181818" points="606.6,362,600.6,358,594.6,362,600.6,366,606.6,362" style="stroke:#181818;stroke-width:1.0;"/><text fill="#000000" font-family="sans-serif" font-size="13" lengthAdjust="spacing" textLength="151" x="399" y="358.0669">berechnungsparameter</text><text fill="#000000" font-family="sans-serif" font-size="13" lengthAdjust="spacing" textLength="24" x="574.9889" y="374.528">0..1</text></g><!--link Tarif to TarifpreispositionProOrt--><g id="link_Tarif_TarifpreispositionProOrt"><path codeLine="27" d="M368.3,386.77 C453.41,398.49 539.7522,410.3827 610.4722,420.1227 " fill="none" id="Tarif-to-TarifpreispositionProOrt" style="stroke:#181818;stroke-width:1.0;"/><polygon fill="#181818" points="622.36,421.76,616.9619,416.9788,610.4722,420.1227,615.8704,424.904,622.36,421.76" style="stroke:#181818;stroke-width:1.0;"/><text fill="#000000" font-family="sans-serif" font-size="13" lengthAdjust="spacing" textLength="64" x="442.5" y="387.0669">tarifpreise</text><text fill="#000000" font-family="sans-serif" font-size="13" lengthAdjust="spacing" textLength="23" x="591.3818" y="433.4103">0..*</text></g><!--link Tarif to AufAbschlagRegional--><g id="link_Tarif_AufAbschlagRegional"><path codeLine="28" d="M340.29,306.01 C359.6,299.59 379.19,293.41 398,288 C475.41,265.72 553.2088,248.492 617.9388,235.382 " fill="none" id="Tarif-to-AufAbschlagRegional" style="stroke:#181818;stroke-width:1.0;"/><polygon fill="#181818" points="629.7,233,623.0254,230.2706,617.9388,235.382,624.6134,238.1114,629.7,233" style="stroke:#181818;stroke-width:1.0;"/><text fill="#000000" font-family="sans-serif" font-size="13" lengthAdjust="spacing" textLength="120" x="414.5" y="247.0669">tarifAufAbschlaege</text><text fill="#000000" font-family="sans-serif" font-size="13" lengthAdjust="spacing" textLength="23" x="598.9442" y="246.9479">0..*</text></g><!--link Tarif to Preisgarantie--><g id="link_Tarif_Preisgarantie"><path codeLine="29" d="M337.67,417.98 C357.82,424.78 378.33,431.32 398,437 C482.19,461.29 569.0794,479.7256 634.4694,492.4056 " fill="none" id="Tarif-to-Preisgarantie" style="stroke:#181818;stroke-width:1.0;"/><polygon fill="#181818" points="646.25,494.69,641.1212,489.6209,634.4694,492.4056,639.5983,497.4746,646.25,494.69" style="stroke:#181818;stroke-width:1.0;"/><text fill="#000000" font-family="sans-serif" font-size="13" lengthAdjust="spacing" textLength="84" x="432.5" y="433.0669">preisgarantie</text><text fill="#000000" font-family="sans-serif" font-size="13" lengthAdjust="spacing" textLength="24" x="614.391" y="506.2275">0..1</text></g><!--link Tarif to Tarifeinschraenkung--><g id="link_Tarif_Tarifeinschraenkung"><path codeLine="30" d="M368.3,337.23 C456.56,325.08 547.0422,312.6169 618.2122,302.8169 " fill="none" id="Tarif-to-Tarifeinschraenkung" style="stroke:#181818;stroke-width:1.0;"/><polygon fill="#181818" points="630.1,301.18,623.6104,298.0359,618.2122,302.8169,624.7017,305.9611,630.1,301.18" style="stroke:#181818;stroke-width:1.0;"/><text fill="#000000" font-family="sans-serif" font-size="13" lengthAdjust="spacing" textLength="126" x="411.5" y="309.0669">tarifeinschraenkung</text><text fill="#000000" font-family="sans-serif" font-size="13" lengthAdjust="spacing" textLength="24" x="598.6534" y="314.6971">0..1</text></g><!--SRC=[jLLDRzf043t7ls84DoeCfa1JgutaDBasKPLJAOeMCzYhshlMxZeHQVhVksiRZ9qrFK0EMCp7ll5xCvvDSAD0SH0qYXMigS1GKSuS9qo8bD1RB6AbCkcFHYi-HJUYAivNBkMZwxlfxJ3RgfYpKK8KIZKY6IspLjoDLPhqTuOYWcxS1_E4uhbS_c9V97r1tnjVDR9wG6IP0t-SYySd55A_3lWWbO35s7Mz9No5oNWo7NlknFNSDJvv7wBFq_biDWcTYvTS4lKIA2NeAbUe3_viU0gCWS7upXdg2dJT1Yy3cK0gfIBCn8Dd8l16irGqnLRcNyTX94MPaH1FqmigOxaiLAWiw5_FRpu5bqQFipU5iWql6sF-mVvVTuDCj6wIiRG2fmeGylH00MqTIg1DwD-EWylvjrCrsDNfxosIRyXAXd528e6H7ZMIk46-2IhVZye75jzRZJe02oeMW7DpAVg3bEagWY3xdREex6tJ1nQVdOi5i6vzq_ykN5Qerr7CDBmUBg5dJA4e6TaYq1avmiwMNdEqHT-5QR5jCYwfMRwPu5oeacWZS2_udL3G5JX2qu9VixH0dPjaKIBI4Z95qRq_jA1XsJaqZXSltZXqXWs4B3zSGSOyt476XlxQ2p_EJbx4-rBzsbJRp7tOPg1_RnNOPPGTssRcogbkq-7mzMftKTHxV1VLuG7qp6tLgsaKTNnur82TUKRpxk_C1-jtqGORjC5ii-n3FPzu5CAsbQlJTGWZF4ggENa-D0Rh_tAq5cbLlhK9dPYk4L9CjKhIaJ5_XWfuGp5Poty0]--></g></svg>