<?xml version="1.0" encoding="us-ascii" standalone="no"?><svg xmlns="http://www.w3.org/2000/svg" xmlns:xlink="http://www.w3.org/1999/xlink" contentStyleType="text/css" height="242px" preserveAspectRatio="none" style="width:671px;height:242px;background:#FFFFFF;" version="1.1" viewBox="0 0 671 242" width="671px" zoomAndPan="magnify"><defs/><g><!--cluster bo4e--><g id="cluster_bo4e"><path d="M474.5,6 L515.5,6 A3.75,3.75 0 0 1 518,8.5 L525,28.2969 L661.5,28.2969 A2.5,2.5 0 0 1 664,30.7969 L664,232.5 A2.5,2.5 0 0 1 661.5,235 L474.5,235 A2.5,2.5 0 0 1 472,232.5 L472,8.5 A2.5,2.5 0 0 1 474.5,6 " fill="none" style="stroke:#000000;stroke-width:1.5;"/><line style="stroke:#000000;stroke-width:1.5;" x1="472" x2="525" y1="28.2969" y2="28.2969"/><text fill="#000000" font-family="sans-serif" font-size="14" font-weight="bold" lengthAdjust="spacing" textLength="40" x="476" y="20.9951">bo4e</text></g><!--cluster bo--><g id="cluster_bo"><path d="M498.5,49 L564.5,49 A3.75,3.75 0 0 1 567,51.5 L574,71.2969 L637.5,71.2969 A2.5,2.5 0 0 1 640,73.7969 L640,208.5 A2.5,2.5 0 0 1 637.5,211 L498.5,211 A2.5,2.5 0 0 1 496,208.5 L496,51.5 A2.5,2.5 0 0 1 498.5,49 " fill="#B6D7A8" style="stroke:#000000;stroke-width:1.5;"/><line style="stroke:#000000;stroke-width:1.5;" x1="496" x2="574" y1="71.2969" y2="71.2969"/><a href="https://bo4e.github.io/BO4E-python/latest/api/bo4e.bo.html" target="_top" title="https://bo4e.github.io/BO4E-python/latest/api/bo4e.bo.html" xlink:actuate="onRequest" xlink:href="https://bo4e.github.io/BO4E-python/latest/api/bo4e.bo.html" xlink:show="new" xlink:title="https://bo4e.github.io/BO4E-python/latest/api/bo4e.bo.html" xlink:type="simple"><text fill="#0000FF" font-family="sans-serif" font-size="14" font-weight="bold" lengthAdjust="spacing" text-decoration="underline" textLength="65" x="500" y="63.9951">bo4e.bo</text></a></g><!--class Kosten--><g id="elem_Kosten"><rect codeLine="10" fill="#F1F1F1" height="37.9375" id="Kosten" rx="2.5" ry="2.5" style="stroke:#181818;stroke-width:0.5;" width="106" x="515" y="84.03"/><ellipse cx="530" cy="102.9988" fill="#ADD1B2" rx="11" ry="11" style="stroke:#181818;stroke-width:1.0;"/><path d="M532.9688,108.6394 Q532.3906,108.9363 531.75,109.0769 Q531.1094,109.2331 530.4063,109.2331 Q527.9063,109.2331 526.5781,107.5925 Q525.2656,105.9363 525.2656,102.8113 Q525.2656,99.6863 526.5781,98.03 Q527.9063,96.3738 530.4063,96.3738 Q531.1094,96.3738 531.75,96.53 Q532.4063,96.6863 532.9688,96.9831 L532.9688,99.7019 Q532.3438,99.1238 531.75,98.8581 Q531.1563,98.5769 530.5313,98.5769 Q529.1875,98.5769 528.5,99.655 Q527.8125,100.7175 527.8125,102.8113 Q527.8125,104.905 528.5,105.9831 Q529.1875,107.0456 530.5313,107.0456 Q531.1563,107.0456 531.75,106.78 Q532.3438,106.4988 532.9688,105.9206 L532.9688,108.6394 Z " fill="#000000"/><a href="https://bo4e.github.io/BO4E-python/latest/api/bo4e.bo.html#bo4e.bo.kosten.Kosten" target="_top" title="https://bo4e.github.io/BO4E-python/latest/api/bo4e.bo.html#bo4e.bo.kosten.Kosten" xlink:actuate="onRequest" xlink:href="https://bo4e.github.io/BO4E-python/latest/api/bo4e.bo.html#bo4e.bo.kosten.Kosten" xlink:show="new" xlink:title="https://bo4e.github.io/BO4E-python/latest/api/bo4e.bo.html#bo4e.bo.kosten.Kosten" xlink:type="simple"><text fill="#0000FF" font-family="sans-serif" font-size="14" lengthAdjust="spacing" text-decoration="underline" textLength="49" x="556.5" y="102.0251">Kosten</text></a><text fill="#000000" font-family="sans-serif" font-size="10" lengthAdjust="spacing" textLength="74" x="544" y="114.6091">bo4e.bo.kosten</text></g><!--class Tarifinfo--><g id="elem_Tarifinfo"><rect codeLine="11" fill="#F1F1F1" height="37.9375" id="Tarifinfo" rx="2.5" ry="2.5" style="stroke:#181818;stroke-width:0.5;" width="112" x="512" y="157.03"/><ellipse cx="527" cy="175.9988" fill="#ADD1B2" rx="11" ry="11" style="stroke:#181818;stroke-width:1.0;"/><path d="M529.9688,181.6394 Q529.3906,181.9363 528.75,182.0769 Q528.1094,182.2331 527.4063,182.2331 Q524.9063,182.2331 523.5781,180.5925 Q522.2656,178.9363 522.2656,175.8113 Q522.2656,172.6863 523.5781,171.03 Q524.9063,169.3738 527.4063,169.3738 Q528.1094,169.3738 528.75,169.53 Q529.4063,169.6863 529.9688,169.9831 L529.9688,172.7019 Q529.3438,172.1238 528.75,171.8581 Q528.1563,171.5769 527.5313,171.5769 Q526.1875,171.5769 525.5,172.655 Q524.8125,173.7175 524.8125,175.8113 Q524.8125,177.905 525.5,178.9831 Q526.1875,180.0456 527.5313,180.0456 Q528.1563,180.0456 528.75,179.78 Q529.3438,179.4988 529.9688,178.9206 L529.9688,181.6394 Z " fill="#000000"/><a href="https://bo4e.github.io/BO4E-python/latest/api/bo4e.bo.html#bo4e.bo.tarifinfo.Tarifinfo" target="_top" title="https://bo4e.github.io/BO4E-python/latest/api/bo4e.bo.html#bo4e.bo.tarifinfo.Tarifinfo" xlink:actuate="onRequest" xlink:href="https://bo4e.github.io/BO4E-python/latest/api/bo4e.bo.html#bo4e.bo.tarifinfo.Tarifinfo" xlink:show="new" xlink:title="https://bo4e.github.io/BO4E-python/latest/api/bo4e.bo.html#bo4e.bo.tarifinfo.Tarifinfo" xlink:type="simple"><text fill="#0000FF" font-family="sans-serif" font-size="14" lengthAdjust="spacing" text-decoration="underline" textLength="54" x="554" y="175.0251">Tarifinfo</text></a><text fill="#000000" font-family="sans-serif" font-size="10" lengthAdjust="spacing" textLength="80" x="541" y="187.6091">bo4e.bo.tarifinfo</text></g><!--class Tarifkosten--><g id="elem_Tarifkosten"><rect codeLine="3" fill="#F1F1F1" height="94.8281" id="Tarifkosten" rx="2.5" ry="2.5" style="stroke:#181818;stroke-width:0.5;" width="374" x="7" y="92.59"/><ellipse cx="142.75" cy="111.5588" fill="#ADD1B2" rx="11" ry="11" style="stroke:#181818;stroke-width:1.0;"/><path d="M145.7188,117.1994 Q145.1406,117.4963 144.5,117.6369 Q143.8594,117.7931 143.1563,117.7931 Q140.6563,117.7931 139.3281,116.1525 Q138.0156,114.4963 138.0156,111.3713 Q138.0156,108.2463 139.3281,106.59 Q140.6563,104.9338 143.1563,104.9338 Q143.8594,104.9338 144.5,105.09 Q145.1563,105.2463 145.7188,105.5431 L145.7188,108.2619 Q145.0938,107.6838 144.5,107.4181 Q143.9063,107.1369 143.2813,107.1369 Q141.9375,107.1369 141.25,108.215 Q140.5625,109.2775 140.5625,111.3713 Q140.5625,113.465 141.25,114.5431 Q141.9375,115.6056 143.2813,115.6056 Q143.9063,115.6056 144.5,115.34 Q145.0938,115.0588 145.7188,114.4806 L145.7188,117.1994 Z " fill="#000000"/><a href="https://bo4e.github.io/BO4E-python/latest/api/bo4e.bo.html#bo4e.bo.tarifkosten.Tarifkosten" target="_top" title="https://bo4e.github.io/BO4E-python/latest/api/bo4e.bo.html#bo4e.bo.tarifkosten.Tarifkosten" xlink:actuate="onRequest" xlink:href="https://bo4e.github.io/BO4E-python/latest/api/bo4e.bo.html#bo4e.bo.tarifkosten.Tarifkosten" xlink:show="new" xlink:title="https://bo4e.github.io/BO4E-python/latest/api/bo4e.bo.html#bo4e.bo.tarifkosten.Tarifkosten" xlink:type="simple"><text fill="#0000FF" font-family="sans-serif" font-size="14" lengthAdjust="spacing" text-decoration="underline" textLength="77" x="171.75" y="110.5851">Tarifkosten</text></a><text fill="#000000" font-family="sans-serif" font-size="10" lengthAdjust="spacing" textLength="94" x="163.25" y="123.1691">bo4e.bo.tarifkosten</text><line style="stroke:#181818;stroke-width:0.5;" x1="8" x2="380" y1="130.5275" y2="130.5275"/><text fill="#000000" font-family="sans-serif" font-size="14" lengthAdjust="spacing" textLength="362" x="13" y="147.5226">_version : str [0..1] = 202401.4.1.dev22+gb29fc2eb</text><text fill="#000000" font-family="sans-serif" font-size="14" lengthAdjust="spacing" textLength="311" x="13" y="163.8195">zusatzAttribute : ZusatzAttribut [0..*] = None</text><text fill="#000000" font-family="sans-serif" font-size="14" lengthAdjust="spacing" textLength="147" x="13" y="180.1164">_id : str [0..1] = None</text></g><!--link Tarifkosten to Tarifinfo--><g id="link_Tarifkosten_Tarifinfo"><path codeLine="14" d="M381.27,158.03 C429,162.64 458.7838,165.525 493.8938,168.925 " fill="none" id="Tarifkosten-to-Tarifinfo" style="stroke:#181818;stroke-width:1.0;"/><polygon fill="none" points="511.81,170.66,494.4721,162.953,493.3155,174.8971,511.81,170.66" style="stroke:#181818;stroke-width:1.0;"/></g><!--link Tarifkosten to Kosten--><g id="link_Tarifkosten_Kosten"><path codeLine="15" d="M381.27,121.47 C430.27,116.6 467.2991,112.9194 502.6391,109.3994 " fill="none" id="Tarifkosten-to-Kosten" style="stroke:#181818;stroke-width:1.0;"/><polygon fill="#181818" points="514.58,108.21,508.2131,104.8244,502.6391,109.3994,509.006,112.785,514.58,108.21" style="stroke:#181818;stroke-width:1.0;"/><text fill="#000000" font-family="sans-serif" font-size="13" lengthAdjust="spacing" textLength="43" x="412" y="111.0669">kosten</text><text fill="#000000" font-family="sans-serif" font-size="13" lengthAdjust="spacing" textLength="24" x="483.0158" y="121.7543">0..1</text></g><!--SRC=[hLBBJiCm43pNNx5ARqLr7efuH52f5PmgmOKJROISPDDO974KRuieyE_arKSGFT7RhZqxzivCYZ41AIZbAY68P8aXIPKp5gP2Qp0MYuIeq9vf1if5lfAKh0CkbJbxSX_6nGSbAZTJGQZ958LiKO7Y2MNfSDUGA6NyfZHXpfyFDHpLlh_CRxNSecTRap_c313w60-VRF2wmL9NdmKFD9Mmi3YtVRW3nt9So-Okjtc46yUvM0NEJHmw6B31Tgq5RQT4fGpMXDNeI- -aOHdLB8ygn-eD6VscRow-6Sj5XheG8VvF9UWQtszsx3eOpYxlhwRNzPxdjA9pOTwAE3-j_P7iBUgy_sYibNcisa3K5Uohqs6eRmzHgBlQYLwenkEloKx50taVKu56ODI66dje9ua7BOQnH4O86MP1bJAc4_KEFOvOOXhf7m00]--></g></svg>