<svg xmlns="http://www.w3.org/2000/svg" xmlns:xlink="http://www.w3.org/1999/xlink" contentStyleType="text/css" data-diagram-type="CLASS" height="574px" preserveAspectRatio="none" style="width:868px;height:574px;background:#FFFFFF;" version="1.1" viewBox="0 0 868 574" width="868px" zoomAndPan="magnify"><defs/><g><!--cluster bo4e--><g class="cluster" data-entity="bo4e" data-source-line="11" data-uid="ent0005" id="cluster_bo4e"><path d="M554.71,6 L594.586,6 A3.75,3.75 0 0 1 597.086,8.5 L604.086,28.2969 L858.56,28.2969 A2.5,2.5 0 0 1 861.06,30.7969 L861.06,564.5 A2.5,2.5 0 0 1 858.56,567 L554.71,567 A2.5,2.5 0 0 1 552.21,564.5 L552.21,8.5 A2.5,2.5 0 0 1 554.71,6" fill="none" style="stroke:#000000;stroke-width:1.5;"/><line style="stroke:#000000;stroke-width:1.5;" x1="552.21" x2="604.086" y1="28.2969" y2="28.2969"/><text fill="#000000" font-family="sans-serif" font-size="14" font-weight="bold" lengthAdjust="spacing" textLength="38.876" x="556.21" y="20.9951">bo4e</text></g><!--cluster bo--><g class="cluster" data-entity="bo" data-source-line="10" data-uid="ent0003" id="cluster_bo"><path d="M635.62,49 L700.454,49 A3.75,3.75 0 0 1 702.954,51.5 L709.954,71.2969 L777.64,71.2969 A2.5,2.5 0 0 1 780.14,73.7969 L780.14,135.5 A2.5,2.5 0 0 1 777.64,138 L635.62,138 A2.5,2.5 0 0 1 633.12,135.5 L633.12,51.5 A2.5,2.5 0 0 1 635.62,49" fill="#B6D7A8" style="stroke:#000000;stroke-width:1.5;"/><line style="stroke:#000000;stroke-width:1.5;" x1="633.12" x2="709.954" y1="71.2969" y2="71.2969"/><a href="file:////home/runner/work/BO4E-python/BO4E-python/docs/../.tox/docs/tmp/html/api/bo4e.bo.html" target="_top" title="file:////home/runner/work/BO4E-python/BO4E-python/docs/../.tox/docs/tmp/html/api/bo4e.bo.html" xlink:actuate="onRequest" xlink:href="file:////home/runner/work/BO4E-python/BO4E-python/docs/../.tox/docs/tmp/html/api/bo4e.bo.html" xlink:show="new" xlink:title="file:////home/runner/work/BO4E-python/BO4E-python/docs/../.tox/docs/tmp/html/api/bo4e.bo.html" xlink:type="simple"><text fill="#0000FF" font-family="sans-serif" font-size="14" font-weight="bold" lengthAdjust="spacing" text-decoration="underline" textLength="63.834" x="637.12" y="63.9951">bo4e.bo</text></a></g><!--cluster com--><g class="cluster" data-entity="com" data-source-line="13" data-uid="ent0006" id="cluster_com"><path d="M578.71,162 L656.4092,162 A3.75,3.75 0 0 1 658.9092,164.5 L665.9092,184.2969 L834.56,184.2969 A2.5,2.5 0 0 1 837.06,186.7969 L837.06,540.5 A2.5,2.5 0 0 1 834.56,543 L578.71,543 A2.5,2.5 0 0 1 576.21,540.5 L576.21,164.5 A2.5,2.5 0 0 1 578.71,162" fill="#E0A86C" style="stroke:#000000;stroke-width:1.5;"/><line style="stroke:#000000;stroke-width:1.5;" x1="576.21" x2="665.9092" y1="184.2969" y2="184.2969"/><a href="file:////home/runner/work/BO4E-python/BO4E-python/docs/../.tox/docs/tmp/html/api/bo4e.com.html" target="_top" title="file:////home/runner/work/BO4E-python/BO4E-python/docs/../.tox/docs/tmp/html/api/bo4e.com.html" xlink:actuate="onRequest" xlink:href="file:////home/runner/work/BO4E-python/BO4E-python/docs/../.tox/docs/tmp/html/api/bo4e.com.html" xlink:show="new" xlink:title="file:////home/runner/work/BO4E-python/BO4E-python/docs/../.tox/docs/tmp/html/api/bo4e.com.html" xlink:type="simple"><text fill="#0000FF" font-family="sans-serif" font-size="14" font-weight="bold" lengthAdjust="spacing" text-decoration="underline" textLength="76.6992" x="580.21" y="176.9951">bo4e.com</text></a></g><!--class Tarifinfo--><g class="entity" data-entity="Tarifinfo" data-source-line="11" data-uid="ent0004" id="entity_Tarifinfo"><rect fill="#F1F1F1" height="37.9375" rx="2.5" ry="2.5" style="stroke:#181818;stroke-width:0.5;" width="115.0176" x="649.12" y="84.03"/><ellipse cx="664.12" cy="102.9987" fill="#ADD1B2" rx="11" ry="11" style="stroke:#181818;stroke-width:1;"/><path d="M667.0888,108.6394 Q666.5106,108.9362 665.87,109.0769 Q665.2294,109.2331 664.5263,109.2331 Q662.0263,109.2331 660.6981,107.5925 Q659.3856,105.9362 659.3856,102.8112 Q659.3856,99.6862 660.6981,98.03 Q662.0263,96.3737 664.5263,96.3737 Q665.2294,96.3737 665.87,96.53 Q666.5263,96.6862 667.0888,96.9831 L667.0888,99.7019 Q666.4638,99.1237 665.87,98.8581 Q665.2763,98.5769 664.6513,98.5769 Q663.3075,98.5769 662.62,99.655 Q661.9325,100.7175 661.9325,102.8112 Q661.9325,104.905 662.62,105.9831 Q663.3075,107.0456 664.6513,107.0456 Q665.2763,107.0456 665.87,106.78 Q666.4638,106.4987 667.0888,105.9206 L667.0888,108.6394 Z " fill="#000000"/><a href="file:////home/runner/work/BO4E-python/BO4E-python/docs/../.tox/docs/tmp/html/api/bo4e.bo.html#bo4e.bo.tarifinfo.Tarifinfo" target="_top" title="file:////home/runner/work/BO4E-python/BO4E-python/docs/../.tox/docs/tmp/html/api/bo4e.bo.html#bo4e.bo.tarifinfo.Tarifinfo" xlink:actuate="onRequest" xlink:href="file:////home/runner/work/BO4E-python/BO4E-python/docs/../.tox/docs/tmp/html/api/bo4e.bo.html#bo4e.bo.tarifinfo.Tarifinfo" xlink:show="new" xlink:title="file:////home/runner/work/BO4E-python/BO4E-python/docs/../.tox/docs/tmp/html/api/bo4e.bo.html#bo4e.bo.tarifinfo.Tarifinfo" xlink:type="simple"><text fill="#0000FF" font-family="sans-serif" font-size="14" lengthAdjust="spacing" text-decoration="underline" textLength="57.9619" x="690.6478" y="102.0251">Tarifinfo</text></a><text fill="#000000" font-family="sans-serif" font-size="10" lengthAdjust="spacing" textLength="83.0176" x="678.12" y="114.6091">bo4e.bo.tarifinfo</text></g><!--class Tarifeinschraenkung--><g class="entity" data-entity="Tarifeinschraenkung" data-source-line="14" data-uid="ent0007" id="entity_Tarifeinschraenkung"><rect fill="#F1F1F1" height="37.9375" rx="2.5" ry="2.5" style="stroke:#181818;stroke-width:0.5;" width="185.0127" x="614.13" y="197.03"/><ellipse cx="629.13" cy="215.9987" fill="#ADD1B2" rx="11" ry="11" style="stroke:#181818;stroke-width:1;"/><path d="M632.0988,221.6394 Q631.5206,221.9362 630.88,222.0769 Q630.2394,222.2331 629.5363,222.2331 Q627.0363,222.2331 625.7081,220.5925 Q624.3956,218.9362 624.3956,215.8112 Q624.3956,212.6862 625.7081,211.03 Q627.0363,209.3737 629.5363,209.3737 Q630.2394,209.3737 630.88,209.53 Q631.5363,209.6862 632.0988,209.9831 L632.0988,212.7019 Q631.4738,212.1237 630.88,211.8581 Q630.2863,211.5769 629.6613,211.5769 Q628.3175,211.5769 627.63,212.655 Q626.9425,213.7175 626.9425,215.8112 Q626.9425,217.905 627.63,218.9831 Q628.3175,220.0456 629.6613,220.0456 Q630.2863,220.0456 630.88,219.78 Q631.4738,219.4987 632.0988,218.9206 L632.0988,221.6394 Z " fill="#000000"/><a href="file:////home/runner/work/BO4E-python/BO4E-python/docs/../.tox/docs/tmp/html/api/bo4e.com.html#bo4e.com.tarifeinschraenkung.Tarifeinschraenkung" target="_top" title="file:////home/runner/work/BO4E-python/BO4E-python/docs/../.tox/docs/tmp/html/api/bo4e.com.html#bo4e.com.tarifeinschraenkung.Tarifeinschraenkung" xlink:actuate="onRequest" xlink:href="file:////home/runner/work/BO4E-python/BO4E-python/docs/../.tox/docs/tmp/html/api/bo4e.com.html#bo4e.com.tarifeinschraenkung.Tarifeinschraenkung" xlink:show="new" xlink:title="file:////home/runner/work/BO4E-python/BO4E-python/docs/../.tox/docs/tmp/html/api/bo4e.com.html#bo4e.com.tarifeinschraenkung.Tarifeinschraenkung" xlink:type="simple"><text fill="#0000FF" font-family="sans-serif" font-size="14" lengthAdjust="spacing" text-decoration="underline" textLength="143.5068" x="647.8829" y="215.0251">Tarifeinschraenkung</text></a><text fill="#000000" font-family="sans-serif" font-size="10" lengthAdjust="spacing" textLength="153.0127" x="643.13" y="227.6091">bo4e.com.tarifeinschraenkung</text></g><!--class AufAbschlag--><g class="entity" data-entity="AufAbschlag" data-source-line="15" data-uid="ent0008" id="entity_AufAbschlag"><rect fill="#F1F1F1" height="37.9375" rx="2.5" ry="2.5" style="stroke:#181818;stroke-width:0.5;" width="145.457" x="633.9" y="270.03"/><ellipse cx="648.9" cy="288.9988" fill="#ADD1B2" rx="11" ry="11" style="stroke:#181818;stroke-width:1;"/><path d="M651.8688,294.6394 Q651.2906,294.9363 650.65,295.0769 Q650.0094,295.2331 649.3063,295.2331 Q646.8063,295.2331 645.4781,293.5925 Q644.1656,291.9363 644.1656,288.8113 Q644.1656,285.6863 645.4781,284.03 Q646.8063,282.3738 649.3063,282.3738 Q650.0094,282.3738 650.65,282.53 Q651.3063,282.6863 651.8688,282.9831 L651.8688,285.7019 Q651.2438,285.1238 650.65,284.8581 Q650.0563,284.5769 649.4313,284.5769 Q648.0875,284.5769 647.4,285.655 Q646.7125,286.7175 646.7125,288.8113 Q646.7125,290.905 647.4,291.9831 Q648.0875,293.0456 649.4313,293.0456 Q650.0563,293.0456 650.65,292.78 Q651.2438,292.4988 651.8688,291.9206 L651.8688,294.6394 Z " fill="#000000"/><a href="file:////home/runner/work/BO4E-python/BO4E-python/docs/../.tox/docs/tmp/html/api/bo4e.com.html#bo4e.com.aufabschlag.AufAbschlag" target="_top" title="file:////home/runner/work/BO4E-python/BO4E-python/docs/../.tox/docs/tmp/html/api/bo4e.com.html#bo4e.com.aufabschlag.AufAbschlag" xlink:actuate="onRequest" xlink:href="file:////home/runner/work/BO4E-python/BO4E-python/docs/../.tox/docs/tmp/html/api/bo4e.com.html#bo4e.com.aufabschlag.AufAbschlag" xlink:show="new" xlink:title="file:////home/runner/work/BO4E-python/BO4E-python/docs/../.tox/docs/tmp/html/api/bo4e.com.html#bo4e.com.aufabschlag.AufAbschlag" xlink:type="simple"><text fill="#0000FF" font-family="sans-serif" font-size="14" lengthAdjust="spacing" text-decoration="underline" textLength="87.0625" x="676.0973" y="288.0251">AufAbschlag</text></a><text fill="#000000" font-family="sans-serif" font-size="10" lengthAdjust="spacing" textLength="113.457" x="662.9" y="300.6091">bo4e.com.aufabschlag</text></g><!--class Tarifpreisposition--><g class="entity" data-entity="Tarifpreisposition" data-source-line="16" data-uid="ent0009" id="entity_Tarifpreisposition"><rect fill="#F1F1F1" height="37.9375" rx="2.5" ry="2.5" style="stroke:#181818;stroke-width:0.5;" width="169.3633" x="621.95" y="343.03"/><ellipse cx="636.95" cy="361.9988" fill="#ADD1B2" rx="11" ry="11" style="stroke:#181818;stroke-width:1;"/><path d="M639.9188,367.6394 Q639.3406,367.9363 638.7,368.0769 Q638.0594,368.2331 637.3563,368.2331 Q634.8563,368.2331 633.5281,366.5925 Q632.2156,364.9363 632.2156,361.8113 Q632.2156,358.6863 633.5281,357.03 Q634.8563,355.3738 637.3563,355.3738 Q638.0594,355.3738 638.7,355.53 Q639.3563,355.6863 639.9188,355.9831 L639.9188,358.7019 Q639.2938,358.1238 638.7,357.8581 Q638.1063,357.5769 637.4813,357.5769 Q636.1375,357.5769 635.45,358.655 Q634.7625,359.7175 634.7625,361.8113 Q634.7625,363.905 635.45,364.9831 Q636.1375,366.0456 637.4813,366.0456 Q638.1063,366.0456 638.7,365.78 Q639.2938,365.4988 639.9188,364.9206 L639.9188,367.6394 Z " fill="#000000"/><a href="file:////home/runner/work/BO4E-python/BO4E-python/docs/../.tox/docs/tmp/html/api/bo4e.com.html#bo4e.com.tarifpreisposition.Tarifpreisposition" target="_top" title="file:////home/runner/work/BO4E-python/BO4E-python/docs/../.tox/docs/tmp/html/api/bo4e.com.html#bo4e.com.tarifpreisposition.Tarifpreisposition" xlink:actuate="onRequest" xlink:href="file:////home/runner/work/BO4E-python/BO4E-python/docs/../.tox/docs/tmp/html/api/bo4e.com.html#bo4e.com.tarifpreisposition.Tarifpreisposition" xlink:show="new" xlink:title="file:////home/runner/work/BO4E-python/BO4E-python/docs/../.tox/docs/tmp/html/api/bo4e.com.html#bo4e.com.tarifpreisposition.Tarifpreisposition" xlink:type="simple"><text fill="#0000FF" font-family="sans-serif" font-size="14" lengthAdjust="spacing" text-decoration="underline" textLength="121.5977" x="658.8328" y="361.0251">Tarifpreisposition</text></a><text fill="#000000" font-family="sans-serif" font-size="10" lengthAdjust="spacing" textLength="137.3633" x="650.95" y="373.6091">bo4e.com.tarifpreisposition</text></g><!--class Tarifberechnungsparameter--><g class="entity" data-entity="Tarifberechnungsparameter" data-source-line="17" data-uid="ent0010" id="entity_Tarifberechnungsparameter"><rect fill="#F1F1F1" height="37.9375" rx="2.5" ry="2.5" style="stroke:#181818;stroke-width:0.5;" width="228.8545" x="592.21" y="416.03"/><ellipse cx="607.21" cy="434.9988" fill="#ADD1B2" rx="11" ry="11" style="stroke:#181818;stroke-width:1;"/><path d="M610.1788,440.6394 Q609.6006,440.9363 608.96,441.0769 Q608.3194,441.2331 607.6163,441.2331 Q605.1163,441.2331 603.7881,439.5925 Q602.4756,437.9363 602.4756,434.8113 Q602.4756,431.6863 603.7881,430.03 Q605.1163,428.3738 607.6163,428.3738 Q608.3194,428.3738 608.96,428.53 Q609.6163,428.6863 610.1788,428.9831 L610.1788,431.7019 Q609.5538,431.1238 608.96,430.8581 Q608.3663,430.5769 607.7413,430.5769 Q606.3975,430.5769 605.71,431.655 Q605.0225,432.7175 605.0225,434.8113 Q605.0225,436.905 605.71,437.9831 Q606.3975,439.0456 607.7413,439.0456 Q608.3663,439.0456 608.96,438.78 Q609.5538,438.4988 610.1788,437.9206 L610.1788,440.6394 Z " fill="#000000"/><a href="file:////home/runner/work/BO4E-python/BO4E-python/docs/../.tox/docs/tmp/html/api/bo4e.com.html#bo4e.com.tarifberechnungsparameter.Tarifberechnungsparameter" target="_top" title="file:////home/runner/work/BO4E-python/BO4E-python/docs/../.tox/docs/tmp/html/api/bo4e.com.html#bo4e.com.tarifberechnungsparameter.Tarifberechnungsparameter" xlink:actuate="onRequest" xlink:href="file:////home/runner/work/BO4E-python/BO4E-python/docs/../.tox/docs/tmp/html/api/bo4e.com.html#bo4e.com.tarifberechnungsparameter.Tarifberechnungsparameter" xlink:show="new" xlink:title="file:////home/runner/work/BO4E-python/BO4E-python/docs/../.tox/docs/tmp/html/api/bo4e.com.html#bo4e.com.tarifberechnungsparameter.Tarifberechnungsparameter" xlink:type="simple"><text fill="#0000FF" font-family="sans-serif" font-size="14" lengthAdjust="spacing" text-decoration="underline" textLength="196.8545" x="621.21" y="434.0251">Tarifberechnungsparameter</text></a><text fill="#000000" font-family="sans-serif" font-size="10" lengthAdjust="spacing" textLength="191.1182" x="624.0782" y="446.6091">bo4e.com.tarifberechnungsparameter</text></g><!--class Preisgarantie--><g class="entity" data-entity="Preisgarantie" data-source-line="18" data-uid="ent0011" id="entity_Preisgarantie"><rect fill="#F1F1F1" height="37.9375" rx="2.5" ry="2.5" style="stroke:#181818;stroke-width:0.5;" width="151.1992" x="631.03" y="489.03"/><ellipse cx="646.03" cy="507.9988" fill="#ADD1B2" rx="11" ry="11" style="stroke:#181818;stroke-width:1;"/><path d="M648.9988,513.6394 Q648.4206,513.9363 647.78,514.0769 Q647.1394,514.2331 646.4363,514.2331 Q643.9363,514.2331 642.6081,512.5925 Q641.2956,510.9363 641.2956,507.8113 Q641.2956,504.6863 642.6081,503.03 Q643.9363,501.3738 646.4363,501.3738 Q647.1394,501.3738 647.78,501.53 Q648.4363,501.6863 648.9988,501.9831 L648.9988,504.7019 Q648.3738,504.1238 647.78,503.8581 Q647.1863,503.5769 646.5613,503.5769 Q645.2175,503.5769 644.53,504.655 Q643.8425,505.7175 643.8425,507.8113 Q643.8425,509.905 644.53,510.9831 Q645.2175,512.0456 646.5613,512.0456 Q647.1863,512.0456 647.78,511.78 Q648.3738,511.4988 648.9988,510.9206 L648.9988,513.6394 Z " fill="#000000"/><a href="file:////home/runner/work/BO4E-python/BO4E-python/docs/../.tox/docs/tmp/html/api/bo4e.com.html#bo4e.com.preisgarantie.Preisgarantie" target="_top" title="file:////home/runner/work/BO4E-python/BO4E-python/docs/../.tox/docs/tmp/html/api/bo4e.com.html#bo4e.com.preisgarantie.Preisgarantie" xlink:actuate="onRequest" xlink:href="file:////home/runner/work/BO4E-python/BO4E-python/docs/../.tox/docs/tmp/html/api/bo4e.com.html#bo4e.com.preisgarantie.Preisgarantie" xlink:show="new" xlink:title="file:////home/runner/work/BO4E-python/BO4E-python/docs/../.tox/docs/tmp/html/api/bo4e.com.html#bo4e.com.preisgarantie.Preisgarantie" xlink:type="simple"><text fill="#0000FF" font-family="sans-serif" font-size="14" lengthAdjust="spacing" text-decoration="underline" textLength="92.6611" x="673.299" y="507.0251">Preisgarantie</text></a><text fill="#000000" font-family="sans-serif" font-size="10" lengthAdjust="spacing" textLength="119.1992" x="660.03" y="519.6091">bo4e.com.preisgarantie</text></g><!--class Tarifpreisblatt--><g class="entity" data-entity="Tarifpreisblatt" data-source-line="3" data-uid="ent0002" id="entity_Tarifpreisblatt"><rect fill="#F1F1F1" height="111.125" rx="2.5" ry="2.5" style="stroke:#181818;stroke-width:0.5;" width="344.2061" x="7" y="274.44"/><ellipse cx="118.874" cy="293.4088" fill="#ADD1B2" rx="11" ry="11" style="stroke:#181818;stroke-width:1;"/><path d="M121.8428,299.0494 Q121.2646,299.3463 120.624,299.4869 Q119.9834,299.6431 119.2803,299.6431 Q116.7803,299.6431 115.4521,298.0025 Q114.1396,296.3463 114.1396,293.2213 Q114.1396,290.0963 115.4521,288.44 Q116.7803,286.7838 119.2803,286.7838 Q119.9834,286.7838 120.624,286.94 Q121.2803,287.0963 121.8428,287.3931 L121.8428,290.1119 Q121.2178,289.5338 120.624,289.2681 Q120.0303,288.9869 119.4053,288.9869 Q118.0615,288.9869 117.374,290.065 Q116.6865,291.1275 116.6865,293.2213 Q116.6865,295.315 117.374,296.3931 Q118.0615,297.4556 119.4053,297.4556 Q120.0303,297.4556 120.624,297.19 Q121.2178,296.9088 121.8428,296.3306 L121.8428,299.0494 Z " fill="#000000"/><a href="file:////home/runner/work/BO4E-python/BO4E-python/docs/../.tox/docs/tmp/html/api/bo4e.bo.html#bo4e.bo.tarifpreisblatt.Tarifpreisblatt" target="_top" title="file:////home/runner/work/BO4E-python/BO4E-python/docs/../.tox/docs/tmp/html/api/bo4e.bo.html#bo4e.bo.tarifpreisblatt.Tarifpreisblatt" xlink:actuate="onRequest" xlink:href="file:////home/runner/work/BO4E-python/BO4E-python/docs/../.tox/docs/tmp/html/api/bo4e.bo.html#bo4e.bo.tarifpreisblatt.Tarifpreisblatt" xlink:show="new" xlink:title="file:////home/runner/work/BO4E-python/BO4E-python/docs/../.tox/docs/tmp/html/api/bo4e.bo.html#bo4e.bo.tarifpreisblatt.Tarifpreisblatt" xlink:type="simple"><text fill="#0000FF" font-family="sans-serif" font-size="14" lengthAdjust="spacing" text-decoration="underline" textLength="98.4785" x="146.1138" y="292.4351">Tarifpreisblatt</text></a><text fill="#000000" font-family="sans-serif" font-size="10" lengthAdjust="spacing" textLength="111.958" x="139.374" y="305.0191">bo4e.bo.tarifpreisblatt</text><line style="stroke:#181818;stroke-width:0.5;" x1="8" x2="350.2061" y1="312.3775" y2="312.3775"/><text fill="#000000" font-family="sans-serif" font-size="14" lengthAdjust="spacing" textLength="332.2061" x="13" y="329.3726">_version : str [0..1] = 202501.0.0+g245ac3b0a</text><text fill="#000000" font-family="sans-serif" font-size="14" lengthAdjust="spacing" textLength="318.5752" x="13" y="345.6695">zusatzAttribute : ZusatzAttribut [0..*] = None</text><text fill="#000000" font-family="sans-serif" font-size="14" lengthAdjust="spacing" textLength="151.1768" x="13" y="361.9664">_id : str [0..1] = None</text><text fill="#000000" font-family="sans-serif" font-size="14" lengthAdjust="spacing" textLength="295.4902" x="13" y="378.2632">preisstand : AwareDatetime [0..1] = None</text></g><!--link Tarifpreisblatt to Tarifinfo--><g class="link" data-entity-1="Tarifpreisblatt" data-entity-2="Tarifinfo" data-source-line="21" data-uid="lnk12" id="link_Tarifpreisblatt_Tarifinfo"><path codeLine="21" d="M279.03,273.96 C311.16,256.68 347.29,238.21 381.21,223 C472.85,181.9 566.1429,148.9698 631.6629,127.1398" fill="none" id="Tarifpreisblatt-to-Tarifinfo" style="stroke:#181818;stroke-width:1;"/><polygon fill="none" points="648.74,121.45,629.7663,121.4474,633.5595,132.8321,648.74,121.45" style="stroke:#181818;stroke-width:1;"/></g><!--link Tarifpreisblatt to Tarifpreisposition--><g class="link" data-entity-1="Tarifpreisblatt" data-entity-2="Tarifpreisposition" data-source-line="22" data-uid="lnk13" id="link_Tarifpreisblatt_Tarifpreisposition"><path codeLine="22" d="M351.7,350.63 C361.68,351.51 371.57,352.32 381.21,353 C462.7,358.78 543.9608,360.7627 609.5108,361.5127" fill="none" id="Tarifpreisblatt-to-Tarifpreisposition" style="stroke:#181818;stroke-width:1;"/><polygon fill="#181818" points="621.51,361.65,615.5562,357.5816,609.5108,361.5127,615.4646,365.5811,621.51,361.65" style="stroke:#181818;stroke-width:1;"/><text fill="#000000" font-family="sans-serif" font-size="13" lengthAdjust="spacing" textLength="66.5742" x="425.71" y="349.0669">tarifpreise</text><text fill="#000000" font-family="sans-serif" font-size="13" lengthAdjust="spacing" textLength="23.0356" x="590.8119" y="374.2921">0..*</text></g><!--link Tarifpreisblatt to Tarifberechnungsparameter--><g class="link" data-entity-1="Tarifpreisblatt" data-entity-2="Tarifberechnungsparameter" data-source-line="23" data-uid="lnk14" id="link_Tarifpreisblatt_Tarifberechnungsparameter"><path codeLine="23" d="M351.47,378.27 C361.51,380.66 371.47,382.93 381.21,385 C450.74,399.82 517.6535,410.4238 580.1835,419.0838" fill="none" id="Tarifpreisblatt-to-Tarifberechnungsparameter" style="stroke:#181818;stroke-width:1;"/><polygon fill="#181818" points="592.07,420.73,586.6755,415.9447,580.1835,419.0838,585.578,423.8691,592.07,420.73" style="stroke:#181818;stroke-width:1;"/><text fill="#000000" font-family="sans-serif" font-size="13" lengthAdjust="spacing" textLength="153.353" x="382.21" y="381.0669">berechnungsparameter</text><text fill="#000000" font-family="sans-serif" font-size="13" lengthAdjust="spacing" textLength="24.8066" x="559.5934" y="432.3466">0..1</text></g><!--link Tarifpreisblatt to Tarifeinschraenkung--><g class="link" data-entity-1="Tarifpreisblatt" data-entity-2="Tarifeinschraenkung" data-source-line="24" data-uid="lnk15" id="link_Tarifpreisblatt_Tarifeinschraenkung"><path codeLine="24" d="M351.62,284.87 C361.61,282.48 371.53,280.17 381.21,278 C459.26,260.47 536.7687,245.75 601.8987,234.06" fill="none" id="Tarifpreisblatt-to-Tarifeinschraenkung" style="stroke:#181818;stroke-width:1;"/><polygon fill="#181818" points="613.71,231.94,607.0977,229.0629,601.8987,234.06,608.511,236.9371,613.71,231.94" style="stroke:#181818;stroke-width:1;"/><text fill="#000000" font-family="sans-serif" font-size="13" lengthAdjust="spacing" textLength="130.4126" x="393.71" y="244.0669">tarifeinschraenkung</text><text fill="#000000" font-family="sans-serif" font-size="13" lengthAdjust="spacing" textLength="24.8066" x="581.3808" y="245.8802">0..1</text></g><!--link Tarifpreisblatt to Preisgarantie--><g class="link" data-entity-1="Tarifpreisblatt" data-entity-2="Preisgarantie" data-source-line="25" data-uid="lnk16" id="link_Tarifpreisblatt_Preisgarantie"><path codeLine="25" d="M272.52,385.99 C305.86,404.34 344.36,423.46 381.21,437 C464.01,467.43 551.8709,484.9529 618.7009,495.6529" fill="none" id="Tarifpreisblatt-to-Preisgarantie" style="stroke:#181818;stroke-width:1;"/><polygon fill="#181818" points="630.55,497.55,625.2578,492.6517,618.7009,495.6529,623.9931,500.5511,630.55,497.55" style="stroke:#181818;stroke-width:1;"/><text fill="#000000" font-family="sans-serif" font-size="13" lengthAdjust="spacing" textLength="86.4551" x="415.71" y="433.0669">preisgarantie</text><text fill="#000000" font-family="sans-serif" font-size="13" lengthAdjust="spacing" textLength="24.8066" x="598.1934" y="509.3422">0..1</text></g><!--link Tarifpreisblatt to AufAbschlag--><g class="link" data-entity-1="Tarifpreisblatt" data-entity-2="AufAbschlag" data-source-line="26" data-uid="lnk17" id="link_Tarifpreisblatt_AufAbschlag"><path codeLine="26" d="M351.45,316.63 C447.15,309.17 549.3764,301.1945 621.7064,295.5445" fill="none" id="Tarifpreisblatt-to-AufAbschlag" style="stroke:#181818;stroke-width:1;"/><polygon fill="#181818" points="633.67,294.61,627.3767,291.0894,621.7064,295.5445,627.9997,299.0651,633.67,294.61" style="stroke:#181818;stroke-width:1;"/><text fill="#000000" font-family="sans-serif" font-size="13" lengthAdjust="spacing" textLength="123.4365" x="397.21" y="299.0669">tarifAufAbschlaege</text><text fill="#000000" font-family="sans-serif" font-size="13" lengthAdjust="spacing" textLength="23.0356" x="602.8856" y="307.8917">0..*</text></g><!--SRC=[nLLDZvim43qllsAKtBQA8MdsGwXTYUtkjUsXfwPHPSW0reADRDEqQVlVQmW9c91ezz0DftapdgUPDsQSOQn12v0iIJMicCH8Cy4T9ygeKZ1QB6AMeU-QBnKvkhBa7AMx5lB9lVyqVvmKltGgk6MlHAHSGboYnSyjq7dXfZhFN5emDnHp9A4WbMEy0vfA5XSIcGepgZNvOcFeuUNo6t-ds0RzgNTtX6C4LFNpuBTpyVq7IcLw11-Kbh3m29akuJtClDcLDoKUyTuai_aLZTw67dKkDgMYUXDeBLbOQZHPNorFJN1P4NmK70qzM_MPju6w2gKfh-B1cafye1erox5tyg_ZS9gZAcY4_tq2q83bijQhGJ2-ltwu2MuhlSvn4nYFnVOEL1RihUDphwBjn2jaT7m56IEHTtGqg2kaWJ1-z8BRwm-leEIkbF4UrSeWuofA9KN-LF9agwhjWm7VeT9725lHRVyPsgLbJ4DJGaOJ4fHnqDZGiOVRwYJMxNGIpZMrUbiKGh5g7NVMuSu5XwuJ8xFEzHRZpdskJaCqZqxApPKnlweqVwn6kMruA0978oVQ7phUgZ0KFOCOzJ0IKm3N3CddBW8B3JTgfTVDMKdLgtBmgaucV-vsAxzTjuVdpC5B65Nlt6Y_s8Rkf0_jRSCJDDC-pU2aVHYSp0jeUskkAQ-tfvx7Py_31qlkPohMtKbDBQqB4tISbAqGSinDuyfHgLZ30NFCC5kfVm00]--></g></svg>