<svg xmlns="http://www.w3.org/2000/svg" xmlns:xlink="http://www.w3.org/1999/xlink" contentStyleType="text/css" data-diagram-type="CLASS" height="1133px" preserveAspectRatio="none" style="width:837px;height:1133px;background:#FFFFFF;" version="1.1" viewBox="0 0 837 1133" width="837px" zoomAndPan="magnify"><?plantuml 1.2026.6?><defs/><g><!--cluster bo4e--><g class="cluster" data-qualified-name="bo4e" data-source-line="17" id="ent0004"><path d="M515.72,6 L555.596,6 A3.75,3.75 0 0 1 558.096,8.5 L565.096,28.2969 L819.58,28.2969 A2.5,2.5 0 0 1 822.08,30.7969 L822.08,1115.5 A2.5,2.5 0 0 1 819.58,1118 L515.72,1118 A2.5,2.5 0 0 1 513.22,1115.5 L513.22,8.5 A2.5,2.5 0 0 1 515.72,6" fill="none" style="stroke:#000000;stroke-width:1.5;"/><line style="stroke:#000000;stroke-width:1.5;" x1="513.22" x2="565.096" y1="28.2969" y2="28.2969"/><text fill="#000000" font-family="sans-serif" font-size="14" font-weight="700" lengthAdjust="spacing" textLength="38.876" x="517.22" y="20.9951">bo4e</text></g><!--cluster bo--><g class="cluster" data-qualified-name="bo4e.bo" data-source-line="16" id="ent0002"><path d="M580.02,49 L644.854,49 A3.75,3.75 0 0 1 647.354,51.5 L654.354,71.2969 L755.28,71.2969 A2.5,2.5 0 0 1 757.78,73.7969 L757.78,135.5 A2.5,2.5 0 0 1 755.28,138 L580.02,138 A2.5,2.5 0 0 1 577.52,135.5 L577.52,51.5 A2.5,2.5 0 0 1 580.02,49" fill="#B6D7A8" style="stroke:#000000;stroke-width:1.5;"/><line style="stroke:#000000;stroke-width:1.5;" x1="577.52" x2="654.354" y1="71.2969" y2="71.2969"/><text fill="#000000" font-family="sans-serif" font-size="14" font-weight="700" lengthAdjust="spacing" textLength="63.834" x="581.52" y="63.9951">bo4e.bo</text></g><!--cluster com--><g class="cluster" data-qualified-name="bo4e.com" data-source-line="25" id="ent0005"><path d="M539.72,162 L617.4192,162 A3.75,3.75 0 0 1 619.9192,164.5 L626.9192,184.2969 L795.58,184.2969 A2.5,2.5 0 0 1 798.08,186.7969 L798.08,686.5 A2.5,2.5 0 0 1 795.58,689 L539.72,689 A2.5,2.5 0 0 1 537.22,686.5 L537.22,164.5 A2.5,2.5 0 0 1 539.72,162" fill="#E0A86C" style="stroke:#000000;stroke-width:1.5;"/><line style="stroke:#000000;stroke-width:1.5;" x1="537.22" x2="626.9192" y1="184.2969" y2="184.2969"/><text fill="#000000" font-family="sans-serif" font-size="14" font-weight="700" lengthAdjust="spacing" textLength="76.6992" x="541.22" y="176.9951">bo4e.com</text></g><!--cluster enum--><g class="cluster" data-qualified-name="bo4e.enum" data-source-line="83" id="ent0013"><path d="M584.98,713 L674.1909,713 A3.75,3.75 0 0 1 676.6909,715.5 L683.6909,735.2969 L750.31,735.2969 A2.5,2.5 0 0 1 752.81,737.7969 L752.81,1091.5 A2.5,2.5 0 0 1 750.31,1094 L584.98,1094 A2.5,2.5 0 0 1 582.48,1091.5 L582.48,715.5 A2.5,2.5 0 0 1 584.98,713" fill="#D1C358" style="stroke:#000000;stroke-width:1.5;"/><line style="stroke:#000000;stroke-width:1.5;" x1="582.48" x2="683.6909" y1="735.2969" y2="735.2969"/><text fill="#000000" font-family="sans-serif" font-size="14" font-weight="700" lengthAdjust="spacing" textLength="88.2109" x="586.48" y="727.9951">bo4e.enum</text></g><!--class Marktteilnehmer--><g class="entity" data-qualified-name="bo4e.bo.Marktteilnehmer" data-source-line="17" id="ent0003"><rect fill="#F1F1F1" height="37.9375" rx="2.5" ry="2.5" style="stroke:#181818;stroke-width:0.5;" width="148.2588" x="593.52" y="84.03"/><ellipse cx="608.52" cy="102.9987" fill="#ADD1B2" rx="11" ry="11" style="stroke:#181818;stroke-width:1;"/><path d="M611.4888,108.6394 Q610.9106,108.9362 610.27,109.0769 Q609.6294,109.2331 608.9263,109.2331 Q606.4263,109.2331 605.0981,107.5925 Q603.7856,105.9362 603.7856,102.8112 Q603.7856,99.6862 605.0981,98.03 Q606.4263,96.3737 608.9263,96.3737 Q609.6294,96.3737 610.27,96.53 Q610.9263,96.6862 611.4888,96.9831 L611.4888,99.7019 Q610.8638,99.1237 610.27,98.8581 Q609.6763,98.5769 609.0513,98.5769 Q607.7075,98.5769 607.02,99.655 Q606.3325,100.7175 606.3325,102.8112 Q606.3325,104.905 607.02,105.9831 Q607.7075,107.0456 609.0513,107.0456 Q609.6763,107.0456 610.27,106.78 Q610.8638,106.4987 611.4888,105.9206 L611.4888,108.6394 Z " fill="#000000"/><a href="https://bo4e.github.io/BO4E-python/latest/api/bo.Marktteilnehmer.html" target="_top" title="https://bo4e.github.io/BO4E-python/latest/api/bo.Marktteilnehmer.html" xlink:actuate="onRequest" xlink:href="https://bo4e.github.io/BO4E-python/latest/api/bo.Marktteilnehmer.html" xlink:show="new" xlink:title="https://bo4e.github.io/BO4E-python/latest/api/bo.Marktteilnehmer.html" xlink:type="simple"><text fill="#0000FF" font-family="sans-serif" font-size="14" lengthAdjust="spacing" text-decoration="underline" textLength="116.2588" x="622.52" y="102.0251">Marktteilnehmer</text></a><text fill="#000000" font-family="sans-serif" font-size="10" lengthAdjust="spacing" textLength="98.6865" x="631.3061" y="114.6091">bo.Marktteilnehmer</text></g><!--class Energiemix--><g class="entity" data-qualified-name="bo4e.com.Energiemix" data-source-line="26" id="ent0006"><rect fill="#F1F1F1" height="37.9375" rx="2.5" ry="2.5" style="stroke:#181818;stroke-width:0.5;" width="113.1719" x="611.06" y="197.03"/><ellipse cx="626.06" cy="215.9987" fill="#ADD1B2" rx="11" ry="11" style="stroke:#181818;stroke-width:1;"/><path d="M629.0288,221.6394 Q628.4506,221.9362 627.81,222.0769 Q627.1694,222.2331 626.4663,222.2331 Q623.9663,222.2331 622.6381,220.5925 Q621.3256,218.9362 621.3256,215.8112 Q621.3256,212.6862 622.6381,211.03 Q623.9663,209.3737 626.4663,209.3737 Q627.1694,209.3737 627.81,209.53 Q628.4663,209.6862 629.0288,209.9831 L629.0288,212.7019 Q628.4038,212.1237 627.81,211.8581 Q627.2163,211.5769 626.5913,211.5769 Q625.2475,211.5769 624.56,212.655 Q623.8725,213.7175 623.8725,215.8112 Q623.8725,217.905 624.56,218.9831 Q625.2475,220.0456 626.5913,220.0456 Q627.2163,220.0456 627.81,219.78 Q628.4038,219.4987 629.0288,218.9206 L629.0288,221.6394 Z " fill="#000000"/><a href="https://bo4e.github.io/BO4E-python/latest/api/com.Energiemix.html" target="_top" title="https://bo4e.github.io/BO4E-python/latest/api/com.Energiemix.html" xlink:actuate="onRequest" xlink:href="https://bo4e.github.io/BO4E-python/latest/api/com.Energiemix.html" xlink:show="new" xlink:title="https://bo4e.github.io/BO4E-python/latest/api/com.Energiemix.html" xlink:type="simple"><text fill="#0000FF" font-family="sans-serif" font-size="14" lengthAdjust="spacing" text-decoration="underline" textLength="79.29" x="641.0009" y="215.0251">Energiemix</text></a><text fill="#000000" font-family="sans-serif" font-size="10" lengthAdjust="spacing" textLength="81.1719" x="640.06" y="227.6091">com.Energiemix</text></g><!--class Preisgarantie--><g class="entity" data-qualified-name="bo4e.com.Preisgarantie" data-source-line="39" id="ent0007"><rect fill="#F1F1F1" height="37.9375" rx="2.5" ry="2.5" style="stroke:#181818;stroke-width:0.5;" width="124.6611" x="605.32" y="270.03"/><ellipse cx="620.32" cy="288.9988" fill="#ADD1B2" rx="11" ry="11" style="stroke:#181818;stroke-width:1;"/><path d="M623.2888,294.6394 Q622.7106,294.9363 622.07,295.0769 Q621.4294,295.2331 620.7263,295.2331 Q618.2263,295.2331 616.8981,293.5925 Q615.5856,291.9363 615.5856,288.8113 Q615.5856,285.6863 616.8981,284.03 Q618.2263,282.3738 620.7263,282.3738 Q621.4294,282.3738 622.07,282.53 Q622.7263,282.6863 623.2888,282.9831 L623.2888,285.7019 Q622.6638,285.1238 622.07,284.8581 Q621.4763,284.5769 620.8513,284.5769 Q619.5075,284.5769 618.82,285.655 Q618.1325,286.7175 618.1325,288.8113 Q618.1325,290.905 618.82,291.9831 Q619.5075,293.0456 620.8513,293.0456 Q621.4763,293.0456 622.07,292.78 Q622.6638,292.4988 623.2888,291.9206 L623.2888,294.6394 Z " fill="#000000"/><a href="https://bo4e.github.io/BO4E-python/latest/api/com.Preisgarantie.html" target="_top" title="https://bo4e.github.io/BO4E-python/latest/api/com.Preisgarantie.html" xlink:actuate="onRequest" xlink:href="https://bo4e.github.io/BO4E-python/latest/api/com.Preisgarantie.html" xlink:show="new" xlink:title="https://bo4e.github.io/BO4E-python/latest/api/com.Preisgarantie.html" xlink:type="simple"><text fill="#0000FF" font-family="sans-serif" font-size="14" lengthAdjust="spacing" text-decoration="underline" textLength="92.6611" x="634.32" y="288.0251">Preisgarantie</text></a><text fill="#000000" font-family="sans-serif" font-size="10" lengthAdjust="spacing" textLength="90.7227" x="635.2892" y="300.6091">com.Preisgarantie</text></g><!--class Regionspreis--><g class="entity" data-qualified-name="bo4e.com.Regionspreis" data-source-line="45" id="ent0008"><rect fill="#F1F1F1" height="37.9375" rx="2.5" ry="2.5" style="stroke:#181818;stroke-width:0.5;" width="122.2891" x="606.5" y="343.03"/><ellipse cx="621.5" cy="361.9988" fill="#ADD1B2" rx="11" ry="11" style="stroke:#181818;stroke-width:1;"/><path d="M624.4688,367.6394 Q623.8906,367.9363 623.25,368.0769 Q622.6094,368.2331 621.9063,368.2331 Q619.4063,368.2331 618.0781,366.5925 Q616.7656,364.9363 616.7656,361.8113 Q616.7656,358.6863 618.0781,357.03 Q619.4063,355.3738 621.9063,355.3738 Q622.6094,355.3738 623.25,355.53 Q623.9063,355.6863 624.4688,355.9831 L624.4688,358.7019 Q623.8438,358.1238 623.25,357.8581 Q622.6563,357.5769 622.0313,357.5769 Q620.6875,357.5769 620,358.655 Q619.3125,359.7175 619.3125,361.8113 Q619.3125,363.905 620,364.9831 Q620.6875,366.0456 622.0313,366.0456 Q622.6563,366.0456 623.25,365.78 Q623.8438,365.4988 624.4688,364.9206 L624.4688,367.6394 Z " fill="#000000"/><a href="https://bo4e.github.io/BO4E-python/latest/api/com.Regionspreis.html" target="_top" title="https://bo4e.github.io/BO4E-python/latest/api/com.Regionspreis.html" xlink:actuate="onRequest" xlink:href="https://bo4e.github.io/BO4E-python/latest/api/com.Regionspreis.html" xlink:show="new" xlink:title="https://bo4e.github.io/BO4E-python/latest/api/com.Regionspreis.html" xlink:type="simple"><text fill="#0000FF" font-family="sans-serif" font-size="14" lengthAdjust="spacing" text-decoration="underline" textLength="90.2891" x="635.5" y="361.0251">Regionspreis</text></a><text fill="#000000" font-family="sans-serif" font-size="10" lengthAdjust="spacing" textLength="89.0283" x="636.1304" y="373.6091">com.Regionspreis</text></g><!--class Tarifberechnungsparameter--><g class="entity" data-qualified-name="bo4e.com.Tarifberechnungsparameter" data-source-line="50" id="ent0009"><rect fill="#F1F1F1" height="37.9375" rx="2.5" ry="2.5" style="stroke:#181818;stroke-width:0.5;" width="228.8545" x="553.22" y="416.03"/><ellipse cx="568.22" cy="434.9988" fill="#ADD1B2" rx="11" ry="11" style="stroke:#181818;stroke-width:1;"/><path d="M571.1888,440.6394 Q570.6106,440.9363 569.97,441.0769 Q569.3294,441.2331 568.6263,441.2331 Q566.1263,441.2331 564.7981,439.5925 Q563.4856,437.9363 563.4856,434.8113 Q563.4856,431.6863 564.7981,430.03 Q566.1263,428.3738 568.6263,428.3738 Q569.3294,428.3738 569.97,428.53 Q570.6263,428.6863 571.1888,428.9831 L571.1888,431.7019 Q570.5638,431.1238 569.97,430.8581 Q569.3763,430.5769 568.7513,430.5769 Q567.4075,430.5769 566.72,431.655 Q566.0325,432.7175 566.0325,434.8113 Q566.0325,436.905 566.72,437.9831 Q567.4075,439.0456 568.7513,439.0456 Q569.3763,439.0456 569.97,438.78 Q570.5638,438.4988 571.1888,437.9206 L571.1888,440.6394 Z " fill="#000000"/><a href="https://bo4e.github.io/BO4E-python/latest/api/com.Tarifberechnungsparameter.html" target="_top" title="https://bo4e.github.io/BO4E-python/latest/api/com.Tarifberechnungsparameter.html" xlink:actuate="onRequest" xlink:href="https://bo4e.github.io/BO4E-python/latest/api/com.Tarifberechnungsparameter.html" xlink:show="new" xlink:title="https://bo4e.github.io/BO4E-python/latest/api/com.Tarifberechnungsparameter.html" xlink:type="simple"><text fill="#0000FF" font-family="sans-serif" font-size="14" lengthAdjust="spacing" text-decoration="underline" textLength="196.8545" x="582.22" y="434.0251">Tarifberechnungsparameter</text></a><text fill="#000000" font-family="sans-serif" font-size="10" lengthAdjust="spacing" textLength="165.1465" x="598.074" y="446.6091">com.Tarifberechnungsparameter</text></g><!--class Tarifeinschraenkung--><g class="entity" data-qualified-name="bo4e.com.Tarifeinschraenkung" data-source-line="59" id="ent0010"><rect fill="#F1F1F1" height="37.9375" rx="2.5" ry="2.5" style="stroke:#181818;stroke-width:0.5;" width="175.5068" x="579.89" y="489.03"/><ellipse cx="594.89" cy="507.9988" fill="#ADD1B2" rx="11" ry="11" style="stroke:#181818;stroke-width:1;"/><path d="M597.8588,513.6394 Q597.2806,513.9363 596.64,514.0769 Q595.9994,514.2331 595.2963,514.2331 Q592.7963,514.2331 591.4681,512.5925 Q590.1556,510.9363 590.1556,507.8113 Q590.1556,504.6863 591.4681,503.03 Q592.7963,501.3738 595.2963,501.3738 Q595.9994,501.3738 596.64,501.53 Q597.2963,501.6863 597.8588,501.9831 L597.8588,504.7019 Q597.2338,504.1238 596.64,503.8581 Q596.0463,503.5769 595.4213,503.5769 Q594.0775,503.5769 593.39,504.655 Q592.7025,505.7175 592.7025,507.8113 Q592.7025,509.905 593.39,510.9831 Q594.0775,512.0456 595.4213,512.0456 Q596.0463,512.0456 596.64,511.78 Q597.2338,511.4988 597.8588,510.9206 L597.8588,513.6394 Z " fill="#000000"/><a href="https://bo4e.github.io/BO4E-python/latest/api/com.Tarifeinschraenkung.html" target="_top" title="https://bo4e.github.io/BO4E-python/latest/api/com.Tarifeinschraenkung.html" xlink:actuate="onRequest" xlink:href="https://bo4e.github.io/BO4E-python/latest/api/com.Tarifeinschraenkung.html" xlink:show="new" xlink:title="https://bo4e.github.io/BO4E-python/latest/api/com.Tarifeinschraenkung.html" xlink:type="simple"><text fill="#0000FF" font-family="sans-serif" font-size="14" lengthAdjust="spacing" text-decoration="underline" textLength="143.5068" x="608.89" y="507.0251">Tarifeinschraenkung</text></a><text fill="#000000" font-family="sans-serif" font-size="10" lengthAdjust="spacing" textLength="127.041" x="617.1229" y="519.6091">com.Tarifeinschraenkung</text></g><!--class Vertragskonditionen--><g class="entity" data-qualified-name="bo4e.com.Vertragskonditionen" data-source-line="65" id="ent0011"><rect fill="#F1F1F1" height="37.9375" rx="2.5" ry="2.5" style="stroke:#181818;stroke-width:0.5;" width="174.5771" x="580.36" y="562.03"/><ellipse cx="595.36" cy="580.9988" fill="#ADD1B2" rx="11" ry="11" style="stroke:#181818;stroke-width:1;"/><path d="M598.3288,586.6394 Q597.7506,586.9363 597.11,587.0769 Q596.4694,587.2331 595.7663,587.2331 Q593.2663,587.2331 591.9381,585.5925 Q590.6256,583.9363 590.6256,580.8113 Q590.6256,577.6863 591.9381,576.03 Q593.2663,574.3738 595.7663,574.3738 Q596.4694,574.3738 597.11,574.53 Q597.7663,574.6863 598.3288,574.9831 L598.3288,577.7019 Q597.7038,577.1238 597.11,576.8581 Q596.5163,576.5769 595.8913,576.5769 Q594.5475,576.5769 593.86,577.655 Q593.1725,578.7175 593.1725,580.8113 Q593.1725,582.905 593.86,583.9831 Q594.5475,585.0456 595.8913,585.0456 Q596.5163,585.0456 597.11,584.78 Q597.7038,584.4988 598.3288,583.9206 L598.3288,586.6394 Z " fill="#000000"/><a href="https://bo4e.github.io/BO4E-python/latest/api/com.Vertragskonditionen.html" target="_top" title="https://bo4e.github.io/BO4E-python/latest/api/com.Vertragskonditionen.html" xlink:actuate="onRequest" xlink:href="https://bo4e.github.io/BO4E-python/latest/api/com.Vertragskonditionen.html" xlink:show="new" xlink:title="https://bo4e.github.io/BO4E-python/latest/api/com.Vertragskonditionen.html" xlink:type="simple"><text fill="#0000FF" font-family="sans-serif" font-size="14" lengthAdjust="spacing" text-decoration="underline" textLength="142.5771" x="609.36" y="580.0251">Vertragskonditionen</text></a><text fill="#000000" font-family="sans-serif" font-size="10" lengthAdjust="spacing" textLength="126.377" x="617.4601" y="592.6091">com.Vertragskonditionen</text></g><!--class Zeitraum--><g class="entity" data-qualified-name="bo4e.com.Zeitraum" data-source-line="72" id="ent0012"><rect fill="#F1F1F1" height="37.9375" rx="2.5" ry="2.5" style="stroke:#181818;stroke-width:0.5;" width="102.5566" x="616.37" y="635.03"/><ellipse cx="631.37" cy="653.9988" fill="#ADD1B2" rx="11" ry="11" style="stroke:#181818;stroke-width:1;"/><path d="M634.3388,659.6394 Q633.7606,659.9363 633.12,660.0769 Q632.4794,660.2331 631.7763,660.2331 Q629.2763,660.2331 627.9481,658.5925 Q626.6356,656.9363 626.6356,653.8113 Q626.6356,650.6863 627.9481,649.03 Q629.2763,647.3738 631.7763,647.3738 Q632.4794,647.3738 633.12,647.53 Q633.7763,647.6863 634.3388,647.9831 L634.3388,650.7019 Q633.7138,650.1238 633.12,649.8581 Q632.5263,649.5769 631.9013,649.5769 Q630.5575,649.5769 629.87,650.655 Q629.1825,651.7175 629.1825,653.8113 Q629.1825,655.905 629.87,656.9831 Q630.5575,658.0456 631.9013,658.0456 Q632.5263,658.0456 633.12,657.78 Q633.7138,657.4988 634.3388,656.9206 L634.3388,659.6394 Z " fill="#000000"/><a href="https://bo4e.github.io/BO4E-python/latest/api/com.Zeitraum.html" target="_top" title="https://bo4e.github.io/BO4E-python/latest/api/com.Zeitraum.html" xlink:actuate="onRequest" xlink:href="https://bo4e.github.io/BO4E-python/latest/api/com.Zeitraum.html" xlink:show="new" xlink:title="https://bo4e.github.io/BO4E-python/latest/api/com.Zeitraum.html" xlink:type="simple"><text fill="#0000FF" font-family="sans-serif" font-size="14" lengthAdjust="spacing" text-decoration="underline" textLength="64.4287" x="648.434" y="653.0251">Zeitraum</text></a><text fill="#000000" font-family="sans-serif" font-size="10" lengthAdjust="spacing" textLength="70.5566" x="645.37" y="665.6091">com.Zeitraum</text></g><!--class Kundentyp--><g class="entity" data-qualified-name="bo4e.enum.Kundentyp" data-source-line="84" id="ent0014"><rect fill="#F1F1F1" height="37.9375" rx="2.5" ry="2.5" style="stroke:#181818;stroke-width:0.5;" width="118.0059" x="608.65" y="748.03"/><ellipse cx="623.65" cy="766.9988" fill="#ADD1B2" rx="11" ry="11" style="stroke:#181818;stroke-width:1;"/><path d="M626.6188,772.6394 Q626.0406,772.9363 625.4,773.0769 Q624.7594,773.2331 624.0563,773.2331 Q621.5563,773.2331 620.2281,771.5925 Q618.9156,769.9363 618.9156,766.8113 Q618.9156,763.6863 620.2281,762.03 Q621.5563,760.3738 624.0563,760.3738 Q624.7594,760.3738 625.4,760.53 Q626.0563,760.6863 626.6188,760.9831 L626.6188,763.7019 Q625.9938,763.1238 625.4,762.8581 Q624.8063,762.5769 624.1813,762.5769 Q622.8375,762.5769 622.15,763.655 Q621.4625,764.7175 621.4625,766.8113 Q621.4625,768.905 622.15,769.9831 Q622.8375,771.0456 624.1813,771.0456 Q624.8063,771.0456 625.4,770.78 Q625.9938,770.4988 626.6188,769.9206 L626.6188,772.6394 Z " fill="#000000"/><a href="https://bo4e.github.io/BO4E-python/latest/api/enum.Kundentyp.html" target="_top" title="https://bo4e.github.io/BO4E-python/latest/api/enum.Kundentyp.html" xlink:actuate="onRequest" xlink:href="https://bo4e.github.io/BO4E-python/latest/api/enum.Kundentyp.html" xlink:show="new" xlink:title="https://bo4e.github.io/BO4E-python/latest/api/enum.Kundentyp.html" xlink:type="simple"><text fill="#0000FF" font-family="sans-serif" font-size="14" lengthAdjust="spacing" text-decoration="underline" textLength="75.9609" x="642.6725" y="766.0251">Kundentyp</text></a><text fill="#000000" font-family="sans-serif" font-size="10" lengthAdjust="spacing" textLength="86.0059" x="637.65" y="778.6091">enum.Kundentyp</text></g><!--class Registeranzahl--><g class="entity" data-qualified-name="bo4e.enum.Registeranzahl" data-source-line="86" id="ent0015"><rect fill="#F1F1F1" height="37.9375" rx="2.5" ry="2.5" style="stroke:#181818;stroke-width:0.5;" width="138.3281" x="598.48" y="821.03"/><ellipse cx="613.48" cy="839.9988" fill="#ADD1B2" rx="11" ry="11" style="stroke:#181818;stroke-width:1;"/><path d="M616.4488,845.6394 Q615.8706,845.9363 615.23,846.0769 Q614.5894,846.2331 613.8863,846.2331 Q611.3863,846.2331 610.0581,844.5925 Q608.7456,842.9363 608.7456,839.8113 Q608.7456,836.6863 610.0581,835.03 Q611.3863,833.3738 613.8863,833.3738 Q614.5894,833.3738 615.23,833.53 Q615.8863,833.6863 616.4488,833.9831 L616.4488,836.7019 Q615.8238,836.1238 615.23,835.8581 Q614.6363,835.5769 614.0113,835.5769 Q612.6675,835.5769 611.98,836.655 Q611.2925,837.7175 611.2925,839.8113 Q611.2925,841.905 611.98,842.9831 Q612.6675,844.0456 614.0113,844.0456 Q614.6363,844.0456 615.23,843.78 Q615.8238,843.4988 616.4488,842.9206 L616.4488,845.6394 Z " fill="#000000"/><a href="https://bo4e.github.io/BO4E-python/latest/api/enum.Registeranzahl.html" target="_top" title="https://bo4e.github.io/BO4E-python/latest/api/enum.Registeranzahl.html" xlink:actuate="onRequest" xlink:href="https://bo4e.github.io/BO4E-python/latest/api/enum.Registeranzahl.html" xlink:show="new" xlink:title="https://bo4e.github.io/BO4E-python/latest/api/enum.Registeranzahl.html" xlink:type="simple"><text fill="#0000FF" font-family="sans-serif" font-size="14" lengthAdjust="spacing" text-decoration="underline" textLength="104.4121" x="628.438" y="839.0251">Registeranzahl</text></a><text fill="#000000" font-family="sans-serif" font-size="10" lengthAdjust="spacing" textLength="106.3281" x="627.48" y="851.6091">enum.Registeranzahl</text></g><!--class Sparte--><g class="entity" data-qualified-name="bo4e.enum.Sparte" data-source-line="88" id="ent0016"><rect fill="#F1F1F1" height="37.9375" rx="2.5" ry="2.5" style="stroke:#181818;stroke-width:0.5;" width="96.7559" x="619.27" y="894.03"/><ellipse cx="634.27" cy="912.9988" fill="#ADD1B2" rx="11" ry="11" style="stroke:#181818;stroke-width:1;"/><path d="M637.2388,918.6394 Q636.6606,918.9363 636.02,919.0769 Q635.3794,919.2331 634.6763,919.2331 Q632.1763,919.2331 630.8481,917.5925 Q629.5356,915.9363 629.5356,912.8113 Q629.5356,909.6863 630.8481,908.03 Q632.1763,906.3738 634.6763,906.3738 Q635.3794,906.3738 636.02,906.53 Q636.6763,906.6863 637.2388,906.9831 L637.2388,909.7019 Q636.6138,909.1238 636.02,908.8581 Q635.4263,908.5769 634.8013,908.5769 Q633.4575,908.5769 632.77,909.655 Q632.0825,910.7175 632.0825,912.8113 Q632.0825,914.905 632.77,915.9831 Q633.4575,917.0456 634.8013,917.0456 Q635.4263,917.0456 636.02,916.78 Q636.6138,916.4988 637.2388,915.9206 L637.2388,918.6394 Z " fill="#000000"/><a href="https://bo4e.github.io/BO4E-python/latest/api/enum.Sparte.html" target="_top" title="https://bo4e.github.io/BO4E-python/latest/api/enum.Sparte.html" xlink:actuate="onRequest" xlink:href="https://bo4e.github.io/BO4E-python/latest/api/enum.Sparte.html" xlink:show="new" xlink:title="https://bo4e.github.io/BO4E-python/latest/api/enum.Sparte.html" xlink:type="simple"><text fill="#0000FF" font-family="sans-serif" font-size="14" lengthAdjust="spacing" text-decoration="underline" textLength="46.2109" x="657.5425" y="912.0251">Sparte</text></a><text fill="#000000" font-family="sans-serif" font-size="10" lengthAdjust="spacing" textLength="64.7559" x="648.27" y="924.6091">enum.Sparte</text></g><!--class Tarifmerkmal--><g class="entity" data-qualified-name="bo4e.enum.Tarifmerkmal" data-source-line="90" id="ent0017"><rect fill="#F1F1F1" height="37.9375" rx="2.5" ry="2.5" style="stroke:#181818;stroke-width:0.5;" width="130.8379" x="602.23" y="967.03"/><ellipse cx="617.23" cy="985.9988" fill="#ADD1B2" rx="11" ry="11" style="stroke:#181818;stroke-width:1;"/><path d="M620.1988,991.6394 Q619.6206,991.9363 618.98,992.0769 Q618.3394,992.2331 617.6363,992.2331 Q615.1363,992.2331 613.8081,990.5925 Q612.4956,988.9363 612.4956,985.8113 Q612.4956,982.6863 613.8081,981.03 Q615.1363,979.3738 617.6363,979.3738 Q618.3394,979.3738 618.98,979.53 Q619.6363,979.6863 620.1988,979.9831 L620.1988,982.7019 Q619.5738,982.1238 618.98,981.8581 Q618.3863,981.5769 617.7613,981.5769 Q616.4175,981.5769 615.73,982.655 Q615.0425,983.7175 615.0425,985.8113 Q615.0425,987.905 615.73,988.9831 Q616.4175,990.0456 617.7613,990.0456 Q618.3863,990.0456 618.98,989.78 Q619.5738,989.4988 620.1988,988.9206 L620.1988,991.6394 Z " fill="#000000"/><a href="https://bo4e.github.io/BO4E-python/latest/api/enum.Tarifmerkmal.html" target="_top" title="https://bo4e.github.io/BO4E-python/latest/api/enum.Tarifmerkmal.html" xlink:actuate="onRequest" xlink:href="https://bo4e.github.io/BO4E-python/latest/api/enum.Tarifmerkmal.html" xlink:show="new" xlink:title="https://bo4e.github.io/BO4E-python/latest/api/enum.Tarifmerkmal.html" xlink:type="simple"><text fill="#0000FF" font-family="sans-serif" font-size="14" lengthAdjust="spacing" text-decoration="underline" textLength="93.9258" x="633.6861" y="985.0251">Tarifmerkmal</text></a><text fill="#000000" font-family="sans-serif" font-size="10" lengthAdjust="spacing" textLength="98.8379" x="631.23" y="997.6091">enum.Tarifmerkmal</text></g><!--class Tariftyp--><g class="entity" data-qualified-name="bo4e.enum.Tariftyp" data-source-line="92" id="ent0018"><rect fill="#F1F1F1" height="37.9375" rx="2.5" ry="2.5" style="stroke:#181818;stroke-width:0.5;" width="102.5811" x="616.36" y="1040.03"/><ellipse cx="631.36" cy="1058.9988" fill="#ADD1B2" rx="11" ry="11" style="stroke:#181818;stroke-width:1;"/><path d="M634.3288,1064.6394 Q633.7506,1064.9363 633.11,1065.0769 Q632.4694,1065.2331 631.7663,1065.2331 Q629.2663,1065.2331 627.9381,1063.5925 Q626.6256,1061.9363 626.6256,1058.8113 Q626.6256,1055.6863 627.9381,1054.03 Q629.2663,1052.3738 631.7663,1052.3738 Q632.4694,1052.3738 633.11,1052.53 Q633.7663,1052.6863 634.3288,1052.9831 L634.3288,1055.7019 Q633.7038,1055.1238 633.11,1054.8581 Q632.5163,1054.5769 631.8913,1054.5769 Q630.5475,1054.5769 629.86,1055.655 Q629.1725,1056.7175 629.1725,1058.8113 Q629.1725,1060.905 629.86,1061.9831 Q630.5475,1063.0456 631.8913,1063.0456 Q632.5163,1063.0456 633.11,1062.78 Q633.7038,1062.4988 634.3288,1061.9206 L634.3288,1064.6394 Z " fill="#000000"/><a href="https://bo4e.github.io/BO4E-python/latest/api/enum.Tariftyp.html" target="_top" title="https://bo4e.github.io/BO4E-python/latest/api/enum.Tariftyp.html" xlink:actuate="onRequest" xlink:href="https://bo4e.github.io/BO4E-python/latest/api/enum.Tariftyp.html" xlink:show="new" xlink:title="https://bo4e.github.io/BO4E-python/latest/api/enum.Tariftyp.html" xlink:type="simple"><text fill="#0000FF" font-family="sans-serif" font-size="14" lengthAdjust="spacing" text-decoration="underline" textLength="54.3662" x="653.4674" y="1058.0251">Tariftyp</text></a><text fill="#000000" font-family="sans-serif" font-size="10" lengthAdjust="spacing" textLength="70.5811" x="645.36" y="1070.6091">enum.Tariftyp</text></g><!--class Tarif--><g class="entity" data-qualified-name="Tarif" data-source-line="3" id="ent0001"><rect fill="#F1F1F1" height="208.9063" rx="2.5" ry="2.5" style="stroke:#181818;stroke-width:0.5;" width="305.2207" x="7" y="501.55"/><ellipse cx="136.2148" cy="520.5188" fill="#ADD1B2" rx="11" ry="11" style="stroke:#181818;stroke-width:1;"/><path d="M139.1836,526.1594 Q138.6055,526.4563 137.9648,526.5969 Q137.3242,526.7531 136.6211,526.7531 Q134.1211,526.7531 132.793,525.1125 Q131.4805,523.4563 131.4805,520.3313 Q131.4805,517.2063 132.793,515.55 Q134.1211,513.8938 136.6211,513.8938 Q137.3242,513.8938 137.9648,514.05 Q138.6211,514.2063 139.1836,514.5031 L139.1836,517.2219 Q138.5586,516.6438 137.9648,516.3781 Q137.3711,516.0969 136.7461,516.0969 Q135.4023,516.0969 134.7148,517.175 Q134.0273,518.2375 134.0273,520.3313 Q134.0273,522.425 134.7148,523.5031 Q135.4023,524.5656 136.7461,524.5656 Q137.3711,524.5656 137.9648,524.3 Q138.5586,524.0188 139.1836,523.4406 L139.1836,526.1594 Z " fill="#000000"/><a href="https://bo4e.github.io/BO4E-python/latest/api/bo.Tarif.html" target="_top" title="https://bo4e.github.io/BO4E-python/latest/api/bo.Tarif.html" xlink:actuate="onRequest" xlink:href="https://bo4e.github.io/BO4E-python/latest/api/bo.Tarif.html" xlink:show="new" xlink:title="https://bo4e.github.io/BO4E-python/latest/api/bo.Tarif.html" xlink:type="simple"><text fill="#0000FF" font-family="sans-serif" font-size="14" lengthAdjust="spacing" text-decoration="underline" textLength="31.7051" x="160.0078" y="519.5451">Tarif</text></a><text fill="#000000" font-family="sans-serif" font-size="10" lengthAdjust="spacing" textLength="38.291" x="156.7148" y="532.1291">bo.Tarif</text><line style="stroke:#181818;stroke-width:0.5;" x1="8" x2="311.2207" y1="539.4875" y2="539.4875"/><text fill="#000000" font-family="sans-serif" font-size="14" lengthAdjust="spacing" textLength="94.0215" x="13" y="556.4826">_id : str [0..1]</text><text fill="#000000" font-family="sans-serif" font-size="14" lengthAdjust="spacing" textLength="193.2246" x="13" y="572.7795">_typ : Literal["TARIF"] [0..1]</text><text fill="#000000" font-family="sans-serif" font-size="14" lengthAdjust="spacing" textLength="132.5215" x="13" y="589.0764">_version : str [0..1]</text><text fill="#000000" font-family="sans-serif" font-size="14" lengthAdjust="spacing" textLength="172.6484" x="13" y="605.3732">anbietername : str [0..1]</text><text fill="#000000" font-family="sans-serif" font-size="14" lengthAdjust="spacing" textLength="227.8281" x="13" y="621.6701">anwendungVon : datetime [0..1]</text><text fill="#000000" font-family="sans-serif" font-size="14" lengthAdjust="spacing" textLength="154.4922" x="13" y="637.967">bemerkung : str [0..1]</text><text fill="#000000" font-family="sans-serif" font-size="14" lengthAdjust="spacing" textLength="169.3877" x="13" y="654.2639">beschreibung : str [0..1]</text><text fill="#000000" font-family="sans-serif" font-size="14" lengthAdjust="spacing" textLength="163.6729" x="13" y="670.5607">bezeichnung : str [0..1]</text><text fill="#000000" font-family="sans-serif" font-size="14" lengthAdjust="spacing" textLength="293.2207" x="13" y="686.8576">dynamischePreispositionQuelle : str [0..1]</text><text fill="#000000" font-family="sans-serif" font-size="14" lengthAdjust="spacing" textLength="128.4814" x="13" y="703.1545">website : str [0..1]</text></g><!--link Tarif to Marktteilnehmer--><g class="link" data-entity-1="ent0001" data-entity-2="ent0003" data-link-type="composition" data-source-line="96" id="lnk19"><path codeLine="96" d="M180.97,501.32 C204.35,408.55 251.78,275.92 342.22,197 C412.69,135.5 509.3524,115.3727 581.2124,108.0127" fill="none" id="Tarif-to-Marktteilnehmer" style="stroke:#181818;stroke-width:1;"/><polygon fill="#181818" points="593.15,106.79,586.7737,103.4221,581.2124,108.0127,587.5888,111.3805,593.15,106.79" style="stroke:#181818;stroke-width:1;stroke-linejoin:miter;stroke-miterlimit:10;"/><text fill="#000000" font-family="sans-serif" font-size="13" lengthAdjust="spacing" textLength="54.5073" x="392.72" y="119.4069">anbieter</text><text fill="#000000" font-family="sans-serif" font-size="13" lengthAdjust="spacing" textLength="24.8066" x="560.6749" y="119.9749">0..1</text></g><!--link Tarif to Energiemix--><g class="link" data-entity-1="ent0001" data-entity-2="ent0006" data-link-type="composition" data-source-line="97" id="lnk20"><path codeLine="97" d="M192.33,501.05 C220.04,427.52 267.72,333.07 342.22,279 C422.09,221.03 529.0905,212.4078 598.5805,213.0578" fill="none" id="Tarif-to-Energiemix" style="stroke:#181818;stroke-width:1;"/><polygon fill="#181818" points="610.58,213.17,604.6177,209.1141,598.5805,213.0578,604.5428,217.1137,610.58,213.17" style="stroke:#181818;stroke-width:1;stroke-linejoin:miter;stroke-miterlimit:10;"/><text fill="#000000" font-family="sans-serif" font-size="13" lengthAdjust="spacing" textLength="73.4106" x="383.22" y="218.2869">energiemix</text><text fill="#000000" font-family="sans-serif" font-size="13" lengthAdjust="spacing" textLength="23.0356" x="580.0825" y="225.7551">0..*</text></g><!--link Tarif to Preisgarantie--><g class="link" data-entity-1="ent0001" data-entity-2="ent0007" data-link-type="composition" data-source-line="98" id="lnk21"><path codeLine="98" d="M214.47,501.14 C245.34,451.1 288.66,394.72 342.22,360 C422.77,307.78 523.7965,294.0789 592.9665,290.4489" fill="none" id="Tarif-to-Preisgarantie" style="stroke:#181818;stroke-width:1;"/><polygon fill="#181818" points="604.95,289.82,598.7486,286.1399,592.9665,290.4489,599.1679,294.1289,604.95,289.82" style="stroke:#181818;stroke-width:1;stroke-linejoin:miter;stroke-miterlimit:10;"/><text fill="#000000" font-family="sans-serif" font-size="13" lengthAdjust="spacing" textLength="86.4551" x="376.72" y="299.5669">preisgarantie</text><text fill="#000000" font-family="sans-serif" font-size="13" lengthAdjust="spacing" textLength="24.8066" x="572.3594" y="302.8567">0..1</text></g><!--link Tarif to Regionspreis--><g class="link" data-entity-1="ent0001" data-entity-2="ent0008" data-link-type="composition" data-source-line="99" id="lnk22"><path codeLine="99" d="M256.79,501.12 C282.6,477.85 311.83,455.29 342.22,439 C427.04,393.53 526.5958,375.9866 594.3358,368.3366" fill="none" id="Tarif-to-Regionspreis" style="stroke:#181818;stroke-width:1;"/><polygon fill="#181818" points="606.26,366.99,599.849,363.6886,594.3358,368.3366,600.7468,371.638,606.26,366.99" style="stroke:#181818;stroke-width:1;stroke-linejoin:miter;stroke-miterlimit:10;"/><text fill="#000000" font-family="sans-serif" font-size="13" lengthAdjust="spacing" textLength="88.1499" x="375.72" y="381.3369">regionspreise</text><text fill="#000000" font-family="sans-serif" font-size="13" lengthAdjust="spacing" textLength="23.0356" x="575.2902" y="380.4304">0..*</text></g><!--link Tarif to Tarifberechnungsparameter--><g class="link" data-entity-1="ent0001" data-entity-2="ent0009" data-link-type="composition" data-source-line="100" id="lnk23"><path codeLine="100" d="M312.71,518.22 C322.56,513.79 332.45,509.67 342.22,506 C410.09,480.5 477.7564,465.027 541.0564,453.737" fill="none" id="Tarif-to-Tarifberechnungsparameter" style="stroke:#181818;stroke-width:1;"/><polygon fill="#181818" points="552.87,451.63,546.2609,448.7457,541.0564,453.737,547.6656,456.6214,552.87,451.63" style="stroke:#181818;stroke-width:1;stroke-linejoin:miter;stroke-miterlimit:10;"/><text fill="#000000" font-family="sans-serif" font-size="13" lengthAdjust="spacing" textLength="153.353" x="343.22" y="459.9569">berechnungsparameter</text><text fill="#000000" font-family="sans-serif" font-size="13" lengthAdjust="spacing" textLength="24.8066" x="520.3793" y="465.3227">0..1</text></g><!--link Tarif to Tarifeinschraenkung--><g class="link" data-entity-1="ent0001" data-entity-2="ent0010" data-link-type="composition" data-source-line="101" id="lnk24"><path codeLine="101" d="M312.41,563.68 C322.47,561.3 332.47,559.04 342.22,557 C421.94,540.28 501.9297,528.494 567.5197,519.984" fill="none" id="Tarif-to-Tarifeinschraenkung" style="stroke:#181818;stroke-width:1;"/><polygon fill="#181818" points="579.42,518.44,572.9552,515.2453,567.5197,519.984,573.9845,523.1788,579.42,518.44" style="stroke:#181818;stroke-width:1;stroke-linejoin:miter;stroke-miterlimit:10;"/><text fill="#000000" font-family="sans-serif" font-size="13" lengthAdjust="spacing" textLength="130.4126" x="354.72" y="526.6269">tarifeinschraenkung</text><text fill="#000000" font-family="sans-serif" font-size="13" lengthAdjust="spacing" textLength="24.8066" x="547.1536" y="531.9982">0..1</text></g><!--link Tarif to Vertragskonditionen--><g class="link" data-entity-1="ent0001" data-entity-2="ent0011" data-link-type="composition" data-source-line="102" id="lnk25"><path codeLine="102" d="M312.65,590.06 C322.65,589.28 332.57,588.58 342.22,588 C422.78,583.15 502.7603,581.6181 568.1703,581.1381" fill="none" id="Tarif-to-Vertragskonditionen" style="stroke:#181818;stroke-width:1;"/><polygon fill="#181818" points="580.17,581.05,574.1408,577.0941,568.1703,581.1381,574.1995,585.0939,580.17,581.05" style="stroke:#181818;stroke-width:1;stroke-linejoin:miter;stroke-miterlimit:10;"/><text fill="#000000" font-family="sans-serif" font-size="13" lengthAdjust="spacing" textLength="131.1934" x="354.22" y="578.3369">vertragskonditionen</text><text fill="#000000" font-family="sans-serif" font-size="13" lengthAdjust="spacing" textLength="24.8066" x="547.6557" y="593.7715">0..1</text></g><!--link Tarif to Zeitraum--><g class="link" data-entity-1="ent0001" data-entity-2="ent0012" data-link-type="composition" data-source-line="103" id="lnk26"><path codeLine="103" d="M312.44,620.4 C415.64,630.19 533.7937,641.3961 604.0637,648.0661" fill="none" id="Tarif-to-Zeitraum" style="stroke:#181818;stroke-width:1;"/><polygon fill="#181818" points="616.01,649.2,610.4148,644.6509,604.0637,648.0661,609.6589,652.6151,616.01,649.2" style="stroke:#181818;stroke-width:1;stroke-linejoin:miter;stroke-miterlimit:10;"/><text fill="#000000" font-family="sans-serif" font-size="13" lengthAdjust="spacing" textLength="125.2583" x="357.22" y="620.3569">zeitlicheGueltigkeit</text><text fill="#000000" font-family="sans-serif" font-size="13" lengthAdjust="spacing" textLength="24.8066" x="583.5128" y="644.6232">0..1</text></g><!--link Tarif to Zeitraum--><g class="link" data-entity-1="ent0001" data-entity-2="ent0012" data-link-type="composition" data-source-line="104" id="lnk27"><path codeLine="104" d="M312.69,656.48 C322.61,658.66 332.51,660.54 342.22,662 C438.19,676.46 539.9647,669.1772 604.0847,661.9872" fill="none" id="Tarif-to-Zeitraum-1" style="stroke:#181818;stroke-width:1;"/><polygon fill="#181818" points="616.01,660.65,609.6016,657.3435,604.0847,661.9872,610.4931,665.2937,616.01,660.65" style="stroke:#181818;stroke-width:1;stroke-linejoin:miter;stroke-miterlimit:10;"/><text fill="#000000" font-family="sans-serif" font-size="13" lengthAdjust="spacing" textLength="153.6006" x="343.22" y="658.0669">zeitraumBelieferbarkeit</text><text fill="#000000" font-family="sans-serif" font-size="13" lengthAdjust="spacing" textLength="24.8066" x="583.5128" y="674.6274">0..1</text></g><!--link Tarif to Zeitraum--><g class="link" data-entity-1="ent0001" data-entity-2="ent0012" data-link-type="composition" data-source-line="105" id="lnk28"><path codeLine="105" d="M312.62,686.49 C322.47,689.83 332.39,692.72 342.22,695 C437.62,717.12 540.2768,694.2937 604.5868,674.7837" fill="none" id="Tarif-to-Zeitraum-2" style="stroke:#181818;stroke-width:1;"/><polygon fill="#181818" points="616.07,671.3,609.1672,669.2141,604.5868,674.7837,611.4896,676.8696,616.07,671.3" style="stroke:#181818;stroke-width:1;stroke-linejoin:miter;stroke-miterlimit:10;"/><text fill="#000000" font-family="sans-serif" font-size="13" lengthAdjust="spacing" textLength="143.311" x="348.22" y="691.0669">zeitraumVermarktung</text><text fill="#000000" font-family="sans-serif" font-size="13" lengthAdjust="spacing" textLength="24.8066" x="600.6448" y="693.1585">0..1</text></g><!--link Tarif to Kundentyp--><g class="link" data-entity-1="ent0001" data-entity-2="ent0014" data-link-type="composition" data-source-line="106" id="lnk29"><path codeLine="106" d="M304.06,710.89 C316.6,717.41 329.4,723.24 342.22,728 C430.9,760.93 529.7005,767.4053 596.1805,767.9853" fill="none" id="Tarif-to-Kundentyp" style="stroke:#181818;stroke-width:1;"/><polygon fill="#181818" points="608.18,768.09,602.2151,764.0378,596.1805,767.9853,602.1453,772.0375,608.18,768.09" style="stroke:#181818;stroke-width:1;stroke-linejoin:miter;stroke-miterlimit:10;"/><text fill="#000000" font-family="sans-serif" font-size="13" lengthAdjust="spacing" textLength="85.7759" x="377.22" y="724.0669">kundentypen</text><text fill="#000000" font-family="sans-serif" font-size="13" lengthAdjust="spacing" textLength="23.0356" x="577.4193" y="781.1038">0..*</text></g><!--link Tarif to Registeranzahl--><g class="link" data-entity-1="ent0001" data-entity-2="ent0015" data-link-type="composition" data-source-line="107" id="lnk30"><path codeLine="107" d="M244.41,710.53 C272.55,739.23 306.06,767.5 342.22,786 C423.42,827.55 517.6262,837.8858 585.9962,840.0758" fill="none" id="Tarif-to-Registeranzahl" style="stroke:#181818;stroke-width:1;"/><polygon fill="#181818" points="597.99,840.46,592.1211,836.27,585.9962,840.0758,591.865,844.2659,597.99,840.46" style="stroke:#181818;stroke-width:1;stroke-linejoin:miter;stroke-miterlimit:10;"/><text fill="#000000" font-family="sans-serif" font-size="13" lengthAdjust="spacing" textLength="93.2661" x="373.22" y="782.0669">registeranzahl</text><text fill="#000000" font-family="sans-serif" font-size="13" lengthAdjust="spacing" textLength="24.8066" x="565.611" y="853.3547">0..1</text></g><!--link Tarif to Sparte--><g class="link" data-entity-1="ent0001" data-entity-2="ent0016" data-link-type="composition" data-source-line="108" id="lnk31"><path codeLine="108" d="M211.79,710.65 C242.5,762.45 286.48,821.19 342.22,856 C428.68,909.99 540.0315,916.6218 606.9715,915.5518" fill="none" id="Tarif-to-Sparte" style="stroke:#181818;stroke-width:1;"/><polygon fill="#181818" points="618.97,915.36,612.9068,911.4564,606.9715,915.5518,613.0347,919.4554,618.97,915.36" style="stroke:#181818;stroke-width:1;stroke-linejoin:miter;stroke-miterlimit:10;"/><text fill="#000000" font-family="sans-serif" font-size="13" lengthAdjust="spacing" textLength="41.4312" x="399.22" y="852.0669">sparte</text><text fill="#000000" font-family="sans-serif" font-size="13" lengthAdjust="spacing" textLength="24.8066" x="586.4939" y="928.823">0..1</text></g><!--link Tarif to Tarifmerkmal--><g class="link" data-entity-1="ent0001" data-entity-2="ent0017" data-link-type="composition" data-source-line="109" id="lnk32"><path codeLine="109" d="M191.83,710.84 C219.36,784.51 267.01,879.02 342.22,932 C419.24,986.26 519.7552,993.3617 590.0152,991.3017" fill="none" id="Tarif-to-Tarifmerkmal" style="stroke:#181818;stroke-width:1;"/><polygon fill="#181818" points="602.01,990.95,595.8953,987.1276,590.0152,991.3017,596.1298,995.1241,602.01,990.95" style="stroke:#181818;stroke-width:1;stroke-linejoin:miter;stroke-miterlimit:10;"/><text fill="#000000" font-family="sans-serif" font-size="13" lengthAdjust="spacing" textLength="92.3711" x="373.72" y="928.0669">tarifmerkmale</text><text fill="#000000" font-family="sans-serif" font-size="13" lengthAdjust="spacing" textLength="23.0356" x="571.0569" y="1004.3078">0..*</text></g><!--link Tarif to Tariftyp--><g class="link" data-entity-1="ent0001" data-entity-2="ent0018" data-link-type="composition" data-source-line="110" id="lnk33"><path codeLine="110" d="M178.66,710.94 C200.57,804.61 247.11,937.83 342.22,1010 C422.54,1070.95 534.9213,1072.0351 604.0213,1066.2851" fill="none" id="Tarif-to-Tariftyp" style="stroke:#181818;stroke-width:1;"/><polygon fill="#181818" points="615.98,1065.29,609.669,1061.8013,604.0213,1066.2851,610.3324,1069.7738,615.98,1065.29" style="stroke:#181818;stroke-width:1;stroke-linejoin:miter;stroke-miterlimit:10;"/><text fill="#000000" font-family="sans-serif" font-size="13" lengthAdjust="spacing" textLength="47.6392" x="396.22" y="1006.0669">tariftyp</text><text fill="#000000" font-family="sans-serif" font-size="13" lengthAdjust="spacing" textLength="24.8066" x="583.4785" y="1079.219">0..1</text></g><?plantuml-src jLVRRkCs47ttLn3EMu0uIRlTBeoYW9rb7I5h9vMzQH4tA2XhOh6IA8EauYP5_hqZohOkb5kvJlL4peKQdaFE32DuqaGdHF9be8dF9ImqJqIdiuYOKgGxdmTQhrJ__DnBFa1loNMGUZsUd0zlFz2prOiE4d4UCGrAdxCLHwlUZ4d-r0jq714pV7pyJVoW-2lqBoz-tEgxXAbSJVxg4Fn-vpxf4wKbcL_qUfUFkL2_h53wXMkGB9ftPmFN-QdxM35v1gamOjkP2Oy3EWeMGvDs3S9FnVBU-Fgu1StHi6JYGGmoH1FRsmEr22HmRu_s5VWY48rA_mK3ukWETxY0MYMAPuZ_d48KDSIv1WyDQegtJYVRbLgn1P2kOSPB3AIRCJaPVlpy_U3J1jp_JkQOoL1hu9600D78QQq9wmJNr2QkckmGqiS3zsOseywN2RqUKxSj_J4B4-PBK2e3B-9Apz4YTpxDJMI2a8j5ueD8uoog6iXl5igB92vWnWaveHU3Jn-lZiCP5-fH0NB98UP_vXWNymgyLLCJIp4z15KweUx8eMFdrzRtIITnd9rIL3r52TEjxye_t8P5yWt5sx3vexKixFQsOuYBYiKI8z9y6GBNwWyMD5WWyuwuXJ2P9QiPPB_naYHgSSUEPDHSxoMJJ6WEEQaLaSLhHMkehKWEOVVEfSvqD707avb3snAyFwaTZOKBI_obMcNxoQ4eIomaoae3H5bm20uk7Jctawc1emqCHs_Kb3GFi8oQ0u-vGs8AqTlCkLTjGR3NigYSJTg3g-cGklJgUl9rCfhUuNaPqrdx58itQupvrR3YY95CXM_6LEY0HRhnhfLz7j8Xo1GMeSByW9UuqI5SEoACKiMVeIb3XEjV8DiGZ47a2rHCteTGu2Ax6Wn4bk9AL5OLpIHMRGhwglA3YQFEP7frxGxev0R9QqlPQwgOVbt9n4z3tLWOZqRi7gIMRAd2HFYcjG6H8zQWi11hi368DSWFGUoUkZDtC9hUt4u-EpDC2NJIleryPK4qy92hYC4IcglV_vOv7_1qIvR6EOJRcONRLc70sauEGUY1EeZGrt5RM7oMrXkcl63xs4hZh_EMkgPA0uczW4PblTTMcaczpzCectsRchIicokwj6n6JlpBnRVV7TaEPolrRZ39WK3mSa9sqmeZLKiJosw6CRmT7KLM3rN6d3cSHKKjP7OyLVskh1QYTubiYgL8RzgTV6n7aijD1FdmNVviachMXSOiAgNeZSIEegmjil96y7uHxOxAThOdakr1sKvC1FZGon_9PsUdf9iT-QxrbEhlNherszDk-MtGBpNJzgBLJhDFLkMvlMwb7-iJMPg2lVZ-RWNBVODupmgrWec9m9RQhasLeq-URQdjkikZVPAbdWYx51WLxur_TSY6GuWuF87qaBMsFXXod95ixmUXBn99duJRSLFqjSkTirG8R8VDNSISRWRshoiNP0F_PhgFzJnElHbsEW7tWSGG8-sgeu9aJVBJJvuuHBxw6m00?></g></svg>