<svg xmlns="http://www.w3.org/2000/svg" xmlns:xlink="http://www.w3.org/1999/xlink" contentStyleType="text/css" data-diagram-type="CLASS" height="574px" preserveAspectRatio="none" style="width:867px;height:574px;background:#FFFFFF;" version="1.1" viewBox="0 0 867 574" width="867px" zoomAndPan="magnify"><defs/><g><!--cluster bo4e--><g class="cluster" data-entity="bo4e" data-source-line="11" data-uid="ent0005" id="cluster_bo4e"><path d="M554.11,6 L593.986,6 A3.75,3.75 0 0 1 596.486,8.5 L603.486,28.2969 L857.97,28.2969 A2.5,2.5 0 0 1 860.47,30.7969 L860.47,564.5 A2.5,2.5 0 0 1 857.97,567 L554.11,567 A2.5,2.5 0 0 1 551.61,564.5 L551.61,8.5 A2.5,2.5 0 0 1 554.11,6" fill="none" style="stroke:#000000;stroke-width:1.5;"/><line style="stroke:#000000;stroke-width:1.5;" x1="551.61" x2="603.486" y1="28.2969" y2="28.2969"/><text fill="#000000" font-family="sans-serif" font-size="14" font-weight="bold" lengthAdjust="spacing" textLength="38.876" x="555.61" y="20.9951">bo4e</text></g><!--cluster bo--><g class="cluster" data-entity="bo" data-source-line="10" data-uid="ent0003" id="cluster_bo"><path d="M635.03,49 L699.864,49 A3.75,3.75 0 0 1 702.364,51.5 L709.364,71.2969 L777.05,71.2969 A2.5,2.5 0 0 1 779.55,73.7969 L779.55,135.5 A2.5,2.5 0 0 1 777.05,138 L635.03,138 A2.5,2.5 0 0 1 632.53,135.5 L632.53,51.5 A2.5,2.5 0 0 1 635.03,49" fill="#B6D7A8" style="stroke:#000000;stroke-width:1.5;"/><line style="stroke:#000000;stroke-width:1.5;" x1="632.53" x2="709.364" y1="71.2969" y2="71.2969"/><a href="file:////home/runner/work/BO4E-python/BO4E-python/docs/../.tox/docs/tmp/html/api/bo4e.bo.html" target="_top" title="file:////home/runner/work/BO4E-python/BO4E-python/docs/../.tox/docs/tmp/html/api/bo4e.bo.html" xlink:actuate="onRequest" xlink:href="file:////home/runner/work/BO4E-python/BO4E-python/docs/../.tox/docs/tmp/html/api/bo4e.bo.html" xlink:show="new" xlink:title="file:////home/runner/work/BO4E-python/BO4E-python/docs/../.tox/docs/tmp/html/api/bo4e.bo.html" xlink:type="simple"><text fill="#0000FF" font-family="sans-serif" font-size="14" font-weight="bold" lengthAdjust="spacing" text-decoration="underline" textLength="63.834" x="636.53" y="63.9951">bo4e.bo</text></a></g><!--cluster com--><g class="cluster" data-entity="com" data-source-line="13" data-uid="ent0006" id="cluster_com"><path d="M578.11,162 L655.8092,162 A3.75,3.75 0 0 1 658.3092,164.5 L665.3092,184.2969 L833.97,184.2969 A2.5,2.5 0 0 1 836.47,186.7969 L836.47,540.5 A2.5,2.5 0 0 1 833.97,543 L578.11,543 A2.5,2.5 0 0 1 575.61,540.5 L575.61,164.5 A2.5,2.5 0 0 1 578.11,162" fill="#E0A86C" style="stroke:#000000;stroke-width:1.5;"/><line style="stroke:#000000;stroke-width:1.5;" x1="575.61" x2="665.3092" y1="184.2969" y2="184.2969"/><a href="file:////home/runner/work/BO4E-python/BO4E-python/docs/../.tox/docs/tmp/html/api/bo4e.com.html" target="_top" title="file:////home/runner/work/BO4E-python/BO4E-python/docs/../.tox/docs/tmp/html/api/bo4e.com.html" xlink:actuate="onRequest" xlink:href="file:////home/runner/work/BO4E-python/BO4E-python/docs/../.tox/docs/tmp/html/api/bo4e.com.html" xlink:show="new" xlink:title="file:////home/runner/work/BO4E-python/BO4E-python/docs/../.tox/docs/tmp/html/api/bo4e.com.html" xlink:type="simple"><text fill="#0000FF" font-family="sans-serif" font-size="14" font-weight="bold" lengthAdjust="spacing" text-decoration="underline" textLength="76.6992" x="579.61" y="176.9951">bo4e.com</text></a></g><!--class Tarifinfo--><g class="entity" data-entity="Tarifinfo" data-source-line="11" data-uid="ent0004" id="entity_Tarifinfo"><rect fill="#F1F1F1" height="37.9375" rx="2.5" ry="2.5" style="stroke:#181818;stroke-width:0.5;" width="115.0176" x="648.53" y="84.03"/><ellipse cx="663.53" cy="102.9987" fill="#ADD1B2" rx="11" ry="11" style="stroke:#181818;stroke-width:1;"/><path d="M666.4988,108.6394 Q665.9206,108.9362 665.28,109.0769 Q664.6394,109.2331 663.9363,109.2331 Q661.4363,109.2331 660.1081,107.5925 Q658.7956,105.9362 658.7956,102.8112 Q658.7956,99.6862 660.1081,98.03 Q661.4363,96.3737 663.9363,96.3737 Q664.6394,96.3737 665.28,96.53 Q665.9363,96.6862 666.4988,96.9831 L666.4988,99.7019 Q665.8738,99.1237 665.28,98.8581 Q664.6863,98.5769 664.0613,98.5769 Q662.7175,98.5769 662.03,99.655 Q661.3425,100.7175 661.3425,102.8112 Q661.3425,104.905 662.03,105.9831 Q662.7175,107.0456 664.0613,107.0456 Q664.6863,107.0456 665.28,106.78 Q665.8738,106.4987 666.4988,105.9206 L666.4988,108.6394 Z " fill="#000000"/><a href="file:////home/runner/work/BO4E-python/BO4E-python/docs/../.tox/docs/tmp/html/api/bo4e.bo.html#bo4e.bo.tarifinfo.Tarifinfo" target="_top" title="file:////home/runner/work/BO4E-python/BO4E-python/docs/../.tox/docs/tmp/html/api/bo4e.bo.html#bo4e.bo.tarifinfo.Tarifinfo" xlink:actuate="onRequest" xlink:href="file:////home/runner/work/BO4E-python/BO4E-python/docs/../.tox/docs/tmp/html/api/bo4e.bo.html#bo4e.bo.tarifinfo.Tarifinfo" xlink:show="new" xlink:title="file:////home/runner/work/BO4E-python/BO4E-python/docs/../.tox/docs/tmp/html/api/bo4e.bo.html#bo4e.bo.tarifinfo.Tarifinfo" xlink:type="simple"><text fill="#0000FF" font-family="sans-serif" font-size="14" lengthAdjust="spacing" text-decoration="underline" textLength="57.9619" x="690.0578" y="102.0251">Tarifinfo</text></a><text fill="#000000" font-family="sans-serif" font-size="10" lengthAdjust="spacing" textLength="83.0176" x="677.53" y="114.6091">bo4e.bo.tarifinfo</text></g><!--class AufAbschlag--><g class="entity" data-entity="AufAbschlag" data-source-line="14" data-uid="ent0007" id="entity_AufAbschlag"><rect fill="#F1F1F1" height="37.9375" rx="2.5" ry="2.5" style="stroke:#181818;stroke-width:0.5;" width="145.457" x="633.31" y="197.03"/><ellipse cx="648.31" cy="215.9987" fill="#ADD1B2" rx="11" ry="11" style="stroke:#181818;stroke-width:1;"/><path d="M651.2788,221.6394 Q650.7006,221.9362 650.06,222.0769 Q649.4194,222.2331 648.7163,222.2331 Q646.2163,222.2331 644.8881,220.5925 Q643.5756,218.9362 643.5756,215.8112 Q643.5756,212.6862 644.8881,211.03 Q646.2163,209.3737 648.7163,209.3737 Q649.4194,209.3737 650.06,209.53 Q650.7163,209.6862 651.2788,209.9831 L651.2788,212.7019 Q650.6538,212.1237 650.06,211.8581 Q649.4663,211.5769 648.8413,211.5769 Q647.4975,211.5769 646.81,212.655 Q646.1225,213.7175 646.1225,215.8112 Q646.1225,217.905 646.81,218.9831 Q647.4975,220.0456 648.8413,220.0456 Q649.4663,220.0456 650.06,219.78 Q650.6538,219.4987 651.2788,218.9206 L651.2788,221.6394 Z " fill="#000000"/><a href="file:////home/runner/work/BO4E-python/BO4E-python/docs/../.tox/docs/tmp/html/api/bo4e.com.html#bo4e.com.aufabschlag.AufAbschlag" target="_top" title="file:////home/runner/work/BO4E-python/BO4E-python/docs/../.tox/docs/tmp/html/api/bo4e.com.html#bo4e.com.aufabschlag.AufAbschlag" xlink:actuate="onRequest" xlink:href="file:////home/runner/work/BO4E-python/BO4E-python/docs/../.tox/docs/tmp/html/api/bo4e.com.html#bo4e.com.aufabschlag.AufAbschlag" xlink:show="new" xlink:title="file:////home/runner/work/BO4E-python/BO4E-python/docs/../.tox/docs/tmp/html/api/bo4e.com.html#bo4e.com.aufabschlag.AufAbschlag" xlink:type="simple"><text fill="#0000FF" font-family="sans-serif" font-size="14" lengthAdjust="spacing" text-decoration="underline" textLength="87.0625" x="675.5073" y="215.0251">AufAbschlag</text></a><text fill="#000000" font-family="sans-serif" font-size="10" lengthAdjust="spacing" textLength="113.457" x="662.31" y="227.6091">bo4e.com.aufabschlag</text></g><!--class Preisgarantie--><g class="entity" data-entity="Preisgarantie" data-source-line="15" data-uid="ent0008" id="entity_Preisgarantie"><rect fill="#F1F1F1" height="37.9375" rx="2.5" ry="2.5" style="stroke:#181818;stroke-width:0.5;" width="151.1992" x="630.44" y="270.03"/><ellipse cx="645.44" cy="288.9988" fill="#ADD1B2" rx="11" ry="11" style="stroke:#181818;stroke-width:1;"/><path d="M648.4088,294.6394 Q647.8306,294.9363 647.19,295.0769 Q646.5494,295.2331 645.8463,295.2331 Q643.3463,295.2331 642.0181,293.5925 Q640.7056,291.9363 640.7056,288.8113 Q640.7056,285.6863 642.0181,284.03 Q643.3463,282.3738 645.8463,282.3738 Q646.5494,282.3738 647.19,282.53 Q647.8463,282.6863 648.4088,282.9831 L648.4088,285.7019 Q647.7838,285.1238 647.19,284.8581 Q646.5963,284.5769 645.9713,284.5769 Q644.6275,284.5769 643.94,285.655 Q643.2525,286.7175 643.2525,288.8113 Q643.2525,290.905 643.94,291.9831 Q644.6275,293.0456 645.9713,293.0456 Q646.5963,293.0456 647.19,292.78 Q647.7838,292.4988 648.4088,291.9206 L648.4088,294.6394 Z " fill="#000000"/><a href="file:////home/runner/work/BO4E-python/BO4E-python/docs/../.tox/docs/tmp/html/api/bo4e.com.html#bo4e.com.preisgarantie.Preisgarantie" target="_top" title="file:////home/runner/work/BO4E-python/BO4E-python/docs/../.tox/docs/tmp/html/api/bo4e.com.html#bo4e.com.preisgarantie.Preisgarantie" xlink:actuate="onRequest" xlink:href="file:////home/runner/work/BO4E-python/BO4E-python/docs/../.tox/docs/tmp/html/api/bo4e.com.html#bo4e.com.preisgarantie.Preisgarantie" xlink:show="new" xlink:title="file:////home/runner/work/BO4E-python/BO4E-python/docs/../.tox/docs/tmp/html/api/bo4e.com.html#bo4e.com.preisgarantie.Preisgarantie" xlink:type="simple"><text fill="#0000FF" font-family="sans-serif" font-size="14" lengthAdjust="spacing" text-decoration="underline" textLength="92.6611" x="672.709" y="288.0251">Preisgarantie</text></a><text fill="#000000" font-family="sans-serif" font-size="10" lengthAdjust="spacing" textLength="119.1992" x="659.44" y="300.6091">bo4e.com.preisgarantie</text></g><!--class Tarifberechnungsparameter--><g class="entity" data-entity="Tarifberechnungsparameter" data-source-line="16" data-uid="ent0009" id="entity_Tarifberechnungsparameter"><rect fill="#F1F1F1" height="37.9375" rx="2.5" ry="2.5" style="stroke:#181818;stroke-width:0.5;" width="228.8545" x="591.61" y="343.03"/><ellipse cx="606.61" cy="361.9988" fill="#ADD1B2" rx="11" ry="11" style="stroke:#181818;stroke-width:1;"/><path d="M609.5788,367.6394 Q609.0006,367.9363 608.36,368.0769 Q607.7194,368.2331 607.0163,368.2331 Q604.5163,368.2331 603.1881,366.5925 Q601.8756,364.9363 601.8756,361.8113 Q601.8756,358.6863 603.1881,357.03 Q604.5163,355.3738 607.0163,355.3738 Q607.7194,355.3738 608.36,355.53 Q609.0163,355.6863 609.5788,355.9831 L609.5788,358.7019 Q608.9538,358.1238 608.36,357.8581 Q607.7663,357.5769 607.1413,357.5769 Q605.7975,357.5769 605.11,358.655 Q604.4225,359.7175 604.4225,361.8113 Q604.4225,363.905 605.11,364.9831 Q605.7975,366.0456 607.1413,366.0456 Q607.7663,366.0456 608.36,365.78 Q608.9538,365.4988 609.5788,364.9206 L609.5788,367.6394 Z " fill="#000000"/><a href="file:////home/runner/work/BO4E-python/BO4E-python/docs/../.tox/docs/tmp/html/api/bo4e.com.html#bo4e.com.tarifberechnungsparameter.Tarifberechnungsparameter" target="_top" title="file:////home/runner/work/BO4E-python/BO4E-python/docs/../.tox/docs/tmp/html/api/bo4e.com.html#bo4e.com.tarifberechnungsparameter.Tarifberechnungsparameter" xlink:actuate="onRequest" xlink:href="file:////home/runner/work/BO4E-python/BO4E-python/docs/../.tox/docs/tmp/html/api/bo4e.com.html#bo4e.com.tarifberechnungsparameter.Tarifberechnungsparameter" xlink:show="new" xlink:title="file:////home/runner/work/BO4E-python/BO4E-python/docs/../.tox/docs/tmp/html/api/bo4e.com.html#bo4e.com.tarifberechnungsparameter.Tarifberechnungsparameter" xlink:type="simple"><text fill="#0000FF" font-family="sans-serif" font-size="14" lengthAdjust="spacing" text-decoration="underline" textLength="196.8545" x="620.61" y="361.0251">Tarifberechnungsparameter</text></a><text fill="#000000" font-family="sans-serif" font-size="10" lengthAdjust="spacing" textLength="191.1182" x="623.4782" y="373.6091">bo4e.com.tarifberechnungsparameter</text></g><!--class Tarifpreisposition--><g class="entity" data-entity="Tarifpreisposition" data-source-line="17" data-uid="ent0010" id="entity_Tarifpreisposition"><rect fill="#F1F1F1" height="37.9375" rx="2.5" ry="2.5" style="stroke:#181818;stroke-width:0.5;" width="169.3633" x="621.36" y="416.03"/><ellipse cx="636.36" cy="434.9988" fill="#ADD1B2" rx="11" ry="11" style="stroke:#181818;stroke-width:1;"/><path d="M639.3288,440.6394 Q638.7506,440.9363 638.11,441.0769 Q637.4694,441.2331 636.7663,441.2331 Q634.2663,441.2331 632.9381,439.5925 Q631.6256,437.9363 631.6256,434.8113 Q631.6256,431.6863 632.9381,430.03 Q634.2663,428.3738 636.7663,428.3738 Q637.4694,428.3738 638.11,428.53 Q638.7663,428.6863 639.3288,428.9831 L639.3288,431.7019 Q638.7038,431.1238 638.11,430.8581 Q637.5163,430.5769 636.8913,430.5769 Q635.5475,430.5769 634.86,431.655 Q634.1725,432.7175 634.1725,434.8113 Q634.1725,436.905 634.86,437.9831 Q635.5475,439.0456 636.8913,439.0456 Q637.5163,439.0456 638.11,438.78 Q638.7038,438.4988 639.3288,437.9206 L639.3288,440.6394 Z " fill="#000000"/><a href="file:////home/runner/work/BO4E-python/BO4E-python/docs/../.tox/docs/tmp/html/api/bo4e.com.html#bo4e.com.tarifpreisposition.Tarifpreisposition" target="_top" title="file:////home/runner/work/BO4E-python/BO4E-python/docs/../.tox/docs/tmp/html/api/bo4e.com.html#bo4e.com.tarifpreisposition.Tarifpreisposition" xlink:actuate="onRequest" xlink:href="file:////home/runner/work/BO4E-python/BO4E-python/docs/../.tox/docs/tmp/html/api/bo4e.com.html#bo4e.com.tarifpreisposition.Tarifpreisposition" xlink:show="new" xlink:title="file:////home/runner/work/BO4E-python/BO4E-python/docs/../.tox/docs/tmp/html/api/bo4e.com.html#bo4e.com.tarifpreisposition.Tarifpreisposition" xlink:type="simple"><text fill="#0000FF" font-family="sans-serif" font-size="14" lengthAdjust="spacing" text-decoration="underline" textLength="121.5977" x="658.2428" y="434.0251">Tarifpreisposition</text></a><text fill="#000000" font-family="sans-serif" font-size="10" lengthAdjust="spacing" textLength="137.3633" x="650.36" y="446.6091">bo4e.com.tarifpreisposition</text></g><!--class Tarifeinschraenkung--><g class="entity" data-entity="Tarifeinschraenkung" data-source-line="18" data-uid="ent0011" id="entity_Tarifeinschraenkung"><rect fill="#F1F1F1" height="37.9375" rx="2.5" ry="2.5" style="stroke:#181818;stroke-width:0.5;" width="185.0127" x="613.53" y="489.03"/><ellipse cx="628.53" cy="507.9988" fill="#ADD1B2" rx="11" ry="11" style="stroke:#181818;stroke-width:1;"/><path d="M631.4988,513.6394 Q630.9206,513.9363 630.28,514.0769 Q629.6394,514.2331 628.9363,514.2331 Q626.4363,514.2331 625.1081,512.5925 Q623.7956,510.9363 623.7956,507.8113 Q623.7956,504.6863 625.1081,503.03 Q626.4363,501.3738 628.9363,501.3738 Q629.6394,501.3738 630.28,501.53 Q630.9363,501.6863 631.4988,501.9831 L631.4988,504.7019 Q630.8738,504.1238 630.28,503.8581 Q629.6863,503.5769 629.0613,503.5769 Q627.7175,503.5769 627.03,504.655 Q626.3425,505.7175 626.3425,507.8113 Q626.3425,509.905 627.03,510.9831 Q627.7175,512.0456 629.0613,512.0456 Q629.6863,512.0456 630.28,511.78 Q630.8738,511.4988 631.4988,510.9206 L631.4988,513.6394 Z " fill="#000000"/><a href="file:////home/runner/work/BO4E-python/BO4E-python/docs/../.tox/docs/tmp/html/api/bo4e.com.html#bo4e.com.tarifeinschraenkung.Tarifeinschraenkung" target="_top" title="file:////home/runner/work/BO4E-python/BO4E-python/docs/../.tox/docs/tmp/html/api/bo4e.com.html#bo4e.com.tarifeinschraenkung.Tarifeinschraenkung" xlink:actuate="onRequest" xlink:href="file:////home/runner/work/BO4E-python/BO4E-python/docs/../.tox/docs/tmp/html/api/bo4e.com.html#bo4e.com.tarifeinschraenkung.Tarifeinschraenkung" xlink:show="new" xlink:title="file:////home/runner/work/BO4E-python/BO4E-python/docs/../.tox/docs/tmp/html/api/bo4e.com.html#bo4e.com.tarifeinschraenkung.Tarifeinschraenkung" xlink:type="simple"><text fill="#0000FF" font-family="sans-serif" font-size="14" lengthAdjust="spacing" text-decoration="underline" textLength="143.5068" x="647.2829" y="507.0251">Tarifeinschraenkung</text></a><text fill="#000000" font-family="sans-serif" font-size="10" lengthAdjust="spacing" textLength="153.0127" x="642.53" y="519.6091">bo4e.com.tarifeinschraenkung</text></g><!--class Tarifpreisblatt--><g class="entity" data-entity="Tarifpreisblatt" data-source-line="3" data-uid="ent0002" id="entity_Tarifpreisblatt"><rect fill="#F1F1F1" height="111.125" rx="2.5" ry="2.5" style="stroke:#181818;stroke-width:0.5;" width="343.6113" x="7" y="274.44"/><ellipse cx="118.5767" cy="293.4088" fill="#ADD1B2" rx="11" ry="11" style="stroke:#181818;stroke-width:1;"/><path d="M121.5454,299.0494 Q120.9673,299.3463 120.3267,299.4869 Q119.686,299.6431 118.9829,299.6431 Q116.4829,299.6431 115.1548,298.0025 Q113.8423,296.3463 113.8423,293.2213 Q113.8423,290.0963 115.1548,288.44 Q116.4829,286.7838 118.9829,286.7838 Q119.686,286.7838 120.3267,286.94 Q120.9829,287.0963 121.5454,287.3931 L121.5454,290.1119 Q120.9204,289.5338 120.3267,289.2681 Q119.7329,288.9869 119.1079,288.9869 Q117.7642,288.9869 117.0767,290.065 Q116.3892,291.1275 116.3892,293.2213 Q116.3892,295.315 117.0767,296.3931 Q117.7642,297.4556 119.1079,297.4556 Q119.7329,297.4556 120.3267,297.19 Q120.9204,296.9088 121.5454,296.3306 L121.5454,299.0494 Z " fill="#000000"/><a href="file:////home/runner/work/BO4E-python/BO4E-python/docs/../.tox/docs/tmp/html/api/bo4e.bo.html#bo4e.bo.tarifpreisblatt.Tarifpreisblatt" target="_top" title="file:////home/runner/work/BO4E-python/BO4E-python/docs/../.tox/docs/tmp/html/api/bo4e.bo.html#bo4e.bo.tarifpreisblatt.Tarifpreisblatt" xlink:actuate="onRequest" xlink:href="file:////home/runner/work/BO4E-python/BO4E-python/docs/../.tox/docs/tmp/html/api/bo4e.bo.html#bo4e.bo.tarifpreisblatt.Tarifpreisblatt" xlink:show="new" xlink:title="file:////home/runner/work/BO4E-python/BO4E-python/docs/../.tox/docs/tmp/html/api/bo4e.bo.html#bo4e.bo.tarifpreisblatt.Tarifpreisblatt" xlink:type="simple"><text fill="#0000FF" font-family="sans-serif" font-size="14" lengthAdjust="spacing" text-decoration="underline" textLength="98.4785" x="145.8164" y="292.4351">Tarifpreisblatt</text></a><text fill="#000000" font-family="sans-serif" font-size="10" lengthAdjust="spacing" textLength="111.958" x="139.0767" y="305.0191">bo4e.bo.tarifpreisblatt</text><line style="stroke:#181818;stroke-width:0.5;" x1="8" x2="349.6113" y1="312.3775" y2="312.3775"/><text fill="#000000" font-family="sans-serif" font-size="14" lengthAdjust="spacing" textLength="331.6113" x="13" y="329.3726">_version : str [0..1] = 202501.0.0+gcd9cb333d</text><text fill="#000000" font-family="sans-serif" font-size="14" lengthAdjust="spacing" textLength="318.5752" x="13" y="345.6695">zusatzAttribute : ZusatzAttribut [0..*] = None</text><text fill="#000000" font-family="sans-serif" font-size="14" lengthAdjust="spacing" textLength="151.1768" x="13" y="361.9664">_id : str [0..1] = None</text><text fill="#000000" font-family="sans-serif" font-size="14" lengthAdjust="spacing" textLength="295.4902" x="13" y="378.2632">preisstand : AwareDatetime [0..1] = None</text></g><!--link Tarifpreisblatt to Tarifinfo--><g class="link" data-entity-1="Tarifpreisblatt" data-entity-2="Tarifinfo" data-source-line="21" data-uid="lnk12" id="link_Tarifpreisblatt_Tarifinfo"><path codeLine="21" d="M278.57,273.95 C310.66,256.67 346.74,238.21 380.61,223 C472.24,181.87 565.5421,148.9474 631.0621,127.1274" fill="none" id="Tarifpreisblatt-to-Tarifinfo" style="stroke:#181818;stroke-width:1;"/><polygon fill="none" points="648.14,121.44,629.1663,121.4348,632.9579,132.82,648.14,121.44" style="stroke:#181818;stroke-width:1;"/></g><!--link Tarifpreisblatt to Tarifpreisposition--><g class="link" data-entity-1="Tarifpreisblatt" data-entity-2="Tarifpreisposition" data-source-line="22" data-uid="lnk13" id="link_Tarifpreisblatt_Tarifpreisposition"><path codeLine="22" d="M350.92,378.28 C360.94,380.66 370.89,382.93 380.61,385 C461.57,402.27 543.2032,414.4699 608.9732,423.1499" fill="none" id="Tarifpreisblatt-to-Tarifpreisposition" style="stroke:#181818;stroke-width:1;"/><polygon fill="#181818" points="620.87,424.72,615.4449,419.9693,608.9732,423.1499,614.3982,427.9006,620.87,424.72" style="stroke:#181818;stroke-width:1;"/><text fill="#000000" font-family="sans-serif" font-size="13" lengthAdjust="spacing" textLength="66.5742" x="425.11" y="381.0669">tarifpreise</text><text fill="#000000" font-family="sans-serif" font-size="13" lengthAdjust="spacing" textLength="23.0356" x="590.4699" y="436.5792">0..*</text></g><!--link Tarifpreisblatt to Tarifberechnungsparameter--><g class="link" data-entity-1="Tarifpreisblatt" data-entity-2="Tarifberechnungsparameter" data-source-line="23" data-uid="lnk14" id="link_Tarifpreisblatt_Tarifberechnungsparameter"><path codeLine="23" d="M350.88,350.6 C360.93,351.5 370.9,352.31 380.61,353 C450.45,357.96 516.9216,360.0235 579.1916,361.0435" fill="none" id="Tarifpreisblatt-to-Tarifberechnungsparameter" style="stroke:#181818;stroke-width:1;"/><polygon fill="#181818" points="591.19,361.24,585.2563,357.1423,579.1916,361.0435,585.1253,365.1412,591.19,361.24" style="stroke:#181818;stroke-width:1;"/><text fill="#000000" font-family="sans-serif" font-size="13" lengthAdjust="spacing" textLength="153.353" x="381.61" y="349.0669">berechnungsparameter</text><text fill="#000000" font-family="sans-serif" font-size="13" lengthAdjust="spacing" textLength="24.8066" x="558.6945" y="373.7643">0..1</text></g><!--link Tarifpreisblatt to Tarifeinschraenkung--><g class="link" data-entity-1="Tarifpreisblatt" data-entity-2="Tarifeinschraenkung" data-source-line="24" data-uid="lnk15" id="link_Tarifpreisblatt_Tarifeinschraenkung"><path codeLine="24" d="M272.08,386 C305.37,404.34 343.82,423.46 380.61,437 C456.77,465.02 535.4269,481.6954 601.4569,492.8254" fill="none" id="Tarifpreisblatt-to-Tarifeinschraenkung" style="stroke:#181818;stroke-width:1;"/><polygon fill="#181818" points="613.29,494.82,608.0383,489.8784,601.4569,492.8254,606.7086,497.7671,613.29,494.82" style="stroke:#181818;stroke-width:1;"/><text fill="#000000" font-family="sans-serif" font-size="13" lengthAdjust="spacing" textLength="130.4126" x="393.11" y="433.0669">tarifeinschraenkung</text><text fill="#000000" font-family="sans-serif" font-size="13" lengthAdjust="spacing" textLength="24.8066" x="580.6491" y="506.4221">0..1</text></g><!--link Tarifpreisblatt to Preisgarantie--><g class="link" data-entity-1="Tarifpreisblatt" data-entity-2="Preisgarantie" data-source-line="25" data-uid="lnk16" id="link_Tarifpreisblatt_Preisgarantie"><path codeLine="25" d="M351.06,316.63 C445.36,309.27 545.6465,301.445 618.0665,295.785" fill="none" id="Tarifpreisblatt-to-Preisgarantie" style="stroke:#181818;stroke-width:1;"/><polygon fill="#181818" points="630.03,294.85,623.7366,291.3297,618.0665,295.785,624.3599,299.3053,630.03,294.85" style="stroke:#181818;stroke-width:1;"/><text fill="#000000" font-family="sans-serif" font-size="13" lengthAdjust="spacing" textLength="86.4551" x="415.11" y="299.0669">preisgarantie</text><text fill="#000000" font-family="sans-serif" font-size="13" lengthAdjust="spacing" textLength="24.8066" x="597.68" y="308.1958">0..1</text></g><!--link Tarifpreisblatt to AufAbschlag--><g class="link" data-entity-1="Tarifpreisblatt" data-entity-2="AufAbschlag" data-source-line="26" data-uid="lnk17" id="link_Tarifpreisblatt_AufAbschlag"><path codeLine="26" d="M351.06,284.86 C361.05,282.48 370.95,280.17 380.61,278 C466.91,258.6 555.1837,242.1619 621.1037,230.4919" fill="none" id="Tarifpreisblatt-to-AufAbschlag" style="stroke:#181818;stroke-width:1;"/><polygon fill="#181818" points="632.92,228.4,626.3146,225.5072,621.1037,230.4919,627.7092,233.3847,632.92,228.4" style="stroke:#181818;stroke-width:1;"/><text fill="#000000" font-family="sans-serif" font-size="13" lengthAdjust="spacing" textLength="123.4365" x="396.61" y="244.0669">tarifAufAbschlaege</text><text fill="#000000" font-family="sans-serif" font-size="13" lengthAdjust="spacing" textLength="23.0356" x="602.3853" y="242.2453">0..*</text></g><!--SRC=[nLLDSvim43s7Nx5ZtzAnm76Qf4oR6TBaslRGKnrFHy02ce34IA9ktVI_L-0F4CQUzD2OazwkTj5xMktcc6ZG0YHBCmqnanXf9hZZH3bL2aRpUS9oz5tpPQ90LrQSetINGZwvTvyl7oRbBvq9RgrZ4IcN49TeyNCDT56wcIvobvRC3SKbab2GsZ3U0aqbIqg9J8KvrPfyjJ7qy6BnoDyhja9_wjqUo342glfnyDiv-_u3fJ8SmGUb9SmzGgOB-00NtiLRRqeyuhr9e_XT5CvcizWvMrMAwbMWjMHXfT54VRCiJOBpEi4dmT6aPt4_yzhHd49focj_iAGIxwb6pGhixVpZE9mMg4eQuN-_0TY0nQBHQuDWV7TrVntSr7gTeX8OJyIw1keLx5Q7xxtsjZTU8wFZAyWOYQAZeq5T8Gs4yOCNt5nzV0KbjqSPxn2j4XggACjfIe8g2JPhwApt5Uq5Dcmw0IUWqRoSb4hADKFofOl0GiDahF26ZXLq0a9DnOPecct6AvwQ4fMcKZNATSqFUU2WPvZqmL-qZsJ8UoencZigXMBrzEbq_wq9zar7U5lxUdDWQpuLKsJSF2H9aJyPvTTKRHiCs8wGjJUsR6rxFLNsfkfaydoxRVbjkztVPpQUmwYUSwDTOnkw91zQ-V58cca_pM35-p1OeV-GjgVhvdWzOLwMp-uwFbXDvOMATLlmvYoj2LDqd8p520KMXhXoL2QMi9SvOPZ7wYy0]--></g></svg>