<svg xmlns="http://www.w3.org/2000/svg" xmlns:xlink="http://www.w3.org/1999/xlink" contentStyleType="text/css" data-diagram-type="CLASS" height="833px" preserveAspectRatio="none" style="width:1476px;height:833px;background:#FFFFFF;" version="1.1" viewBox="0 0 1476 833" width="1476px" zoomAndPan="magnify"><defs/><g><!--cluster bo4e--><g class="cluster" data-entity="bo4e" data-source-line="13" data-uid="ent0005" id="cluster_bo4e"><path d="M1108.54,6 L1148.416,6 A3.75,3.75 0 0 1 1150.916,8.5 L1157.916,28.2969 L1466.68,28.2969 A2.5,2.5 0 0 1 1469.18,30.7969 L1469.18,823.5 A2.5,2.5 0 0 1 1466.68,826 L1108.54,826 A2.5,2.5 0 0 1 1106.04,823.5 L1106.04,8.5 A2.5,2.5 0 0 1 1108.54,6" fill="none" style="stroke:#000000;stroke-width:1.5;"/><line style="stroke:#000000;stroke-width:1.5;" x1="1106.04" x2="1157.916" y1="28.2969" y2="28.2969"/><text fill="#000000" font-family="sans-serif" font-size="14" font-weight="bold" lengthAdjust="spacing" textLength="38.876" x="1110.04" y="20.9951">bo4e</text></g><!--cluster bo--><g class="cluster" data-entity="bo" data-source-line="12" data-uid="ent0003" id="cluster_bo"><path d="M1186.85,49 L1251.684,49 A3.75,3.75 0 0 1 1254.184,51.5 L1261.184,71.2969 L1388.36,71.2969 A2.5,2.5 0 0 1 1390.86,73.7969 L1390.86,208.5 A2.5,2.5 0 0 1 1388.36,211 L1186.85,211 A2.5,2.5 0 0 1 1184.35,208.5 L1184.35,51.5 A2.5,2.5 0 0 1 1186.85,49" fill="#B6D7A8" style="stroke:#000000;stroke-width:1.5;"/><line style="stroke:#000000;stroke-width:1.5;" x1="1184.35" x2="1261.184" y1="71.2969" y2="71.2969"/><a href="file:////home/runner/work/BO4E-python/BO4E-python/docs/../.tox/docs/tmp/html/api/bo4e.bo.html" target="_top" title="file:////home/runner/work/BO4E-python/BO4E-python/docs/../.tox/docs/tmp/html/api/bo4e.bo.html" xlink:actuate="onRequest" xlink:href="file:////home/runner/work/BO4E-python/BO4E-python/docs/../.tox/docs/tmp/html/api/bo4e.bo.html" xlink:show="new" xlink:title="file:////home/runner/work/BO4E-python/BO4E-python/docs/../.tox/docs/tmp/html/api/bo4e.bo.html" xlink:type="simple"><text fill="#0000FF" font-family="sans-serif" font-size="14" font-weight="bold" lengthAdjust="spacing" text-decoration="underline" textLength="63.834" x="1188.35" y="63.9951">bo4e.bo</text></a></g><!--cluster com--><g class="cluster" data-entity="com" data-source-line="16" data-uid="ent0007" id="cluster_com"><path d="M1214.4,235 L1292.0992,235 A3.75,3.75 0 0 1 1294.5992,237.5 L1301.5992,257.2969 L1360.82,257.2969 A2.5,2.5 0 0 1 1363.32,259.7969 L1363.32,321.5 A2.5,2.5 0 0 1 1360.82,324 L1214.4,324 A2.5,2.5 0 0 1 1211.9,321.5 L1211.9,237.5 A2.5,2.5 0 0 1 1214.4,235" fill="#E0A86C" style="stroke:#000000;stroke-width:1.5;"/><line style="stroke:#000000;stroke-width:1.5;" x1="1211.9" x2="1301.5992" y1="257.2969" y2="257.2969"/><a href="file:////home/runner/work/BO4E-python/BO4E-python/docs/../.tox/docs/tmp/html/api/bo4e.com.html" target="_top" title="file:////home/runner/work/BO4E-python/BO4E-python/docs/../.tox/docs/tmp/html/api/bo4e.com.html" xlink:actuate="onRequest" xlink:href="file:////home/runner/work/BO4E-python/BO4E-python/docs/../.tox/docs/tmp/html/api/bo4e.com.html" xlink:show="new" xlink:title="file:////home/runner/work/BO4E-python/BO4E-python/docs/../.tox/docs/tmp/html/api/bo4e.com.html" xlink:type="simple"><text fill="#0000FF" font-family="sans-serif" font-size="14" font-weight="bold" lengthAdjust="spacing" text-decoration="underline" textLength="76.6992" x="1215.9" y="249.9951">bo4e.com</text></a></g><!--cluster enum--><g class="cluster" data-entity="enum" data-source-line="19" data-uid="ent0009" id="cluster_enum"><path d="M1132.54,348 L1221.7509,348 A3.75,3.75 0 0 1 1224.2509,350.5 L1231.2509,370.2969 L1442.68,370.2969 A2.5,2.5 0 0 1 1445.18,372.7969 L1445.18,799.5 A2.5,2.5 0 0 1 1442.68,802 L1132.54,802 A2.5,2.5 0 0 1 1130.04,799.5 L1130.04,350.5 A2.5,2.5 0 0 1 1132.54,348" fill="#D1C358" style="stroke:#000000;stroke-width:1.5;"/><line style="stroke:#000000;stroke-width:1.5;" x1="1130.04" x2="1231.2509" y1="370.2969" y2="370.2969"/><a href="file:////home/runner/work/BO4E-python/BO4E-python/docs/../.tox/docs/tmp/html/api/bo4e.enum.html" target="_top" title="file:////home/runner/work/BO4E-python/BO4E-python/docs/../.tox/docs/tmp/html/api/bo4e.enum.html" xlink:actuate="onRequest" xlink:href="file:////home/runner/work/BO4E-python/BO4E-python/docs/../.tox/docs/tmp/html/api/bo4e.enum.html" xlink:show="new" xlink:title="file:////home/runner/work/BO4E-python/BO4E-python/docs/../.tox/docs/tmp/html/api/bo4e.enum.html" xlink:type="simple"><text fill="#0000FF" font-family="sans-serif" font-size="14" font-weight="bold" lengthAdjust="spacing" text-decoration="underline" textLength="88.2109" x="1134.04" y="362.9951">bo4e.enum</text></a></g><!--class Geschaeftsobjekt--><g class="entity" data-entity="Geschaeftsobjekt" data-source-line="13" data-uid="ent0004" id="entity_Geschaeftsobjekt"><rect fill="#F1F1F1" height="37.9375" rx="2.5" ry="2.5" style="stroke:#181818;stroke-width:0.5;" width="161.3896" x="1206.91" y="84.03"/><ellipse cx="1221.91" cy="102.9987" fill="#ADD1B2" rx="11" ry="11" style="stroke:#181818;stroke-width:1;"/><path d="M1224.8788,108.6394 Q1224.3006,108.9362 1223.66,109.0769 Q1223.0194,109.2331 1222.3163,109.2331 Q1219.8163,109.2331 1218.4881,107.5925 Q1217.1756,105.9362 1217.1756,102.8112 Q1217.1756,99.6862 1218.4881,98.03 Q1219.8163,96.3737 1222.3163,96.3737 Q1223.0194,96.3737 1223.66,96.53 Q1224.3163,96.6862 1224.8788,96.9831 L1224.8788,99.7019 Q1224.2538,99.1237 1223.66,98.8581 Q1223.0663,98.5769 1222.4413,98.5769 Q1221.0975,98.5769 1220.41,99.655 Q1219.7225,100.7175 1219.7225,102.8112 Q1219.7225,104.905 1220.41,105.9831 Q1221.0975,107.0456 1222.4413,107.0456 Q1223.0663,107.0456 1223.66,106.78 Q1224.2538,106.4987 1224.8788,105.9206 L1224.8788,108.6394 Z " fill="#000000"/><a href="file:////home/runner/work/BO4E-python/BO4E-python/docs/../.tox/docs/tmp/html/api/bo4e.bo.html#bo4e.bo.geschaeftsobjekt.Geschaeftsobjekt" target="_top" title="file:////home/runner/work/BO4E-python/BO4E-python/docs/../.tox/docs/tmp/html/api/bo4e.bo.html#bo4e.bo.geschaeftsobjekt.Geschaeftsobjekt" xlink:actuate="onRequest" xlink:href="file:////home/runner/work/BO4E-python/BO4E-python/docs/../.tox/docs/tmp/html/api/bo4e.bo.html#bo4e.bo.geschaeftsobjekt.Geschaeftsobjekt" xlink:show="new" xlink:title="file:////home/runner/work/BO4E-python/BO4E-python/docs/../.tox/docs/tmp/html/api/bo4e.bo.html#bo4e.bo.geschaeftsobjekt.Geschaeftsobjekt" xlink:type="simple"><text fill="#0000FF" font-family="sans-serif" font-size="14" lengthAdjust="spacing" text-decoration="underline" textLength="121.7822" x="1239.7137" y="102.0251">Geschaeftsobjekt</text></a><text fill="#000000" font-family="sans-serif" font-size="10" lengthAdjust="spacing" textLength="129.3896" x="1235.91" y="114.6091">bo4e.bo.geschaeftsobjekt</text></g><!--class Lokationszuordnung--><g class="entity" data-entity="Lokationszuordnung" data-source-line="14" data-uid="ent0006" id="entity_Lokationszuordnung"><rect fill="#F1F1F1" height="37.9375" rx="2.5" ry="2.5" style="stroke:#181818;stroke-width:0.5;" width="174.5098" x="1200.35" y="157.03"/><ellipse cx="1215.35" cy="175.9987" fill="#ADD1B2" rx="11" ry="11" style="stroke:#181818;stroke-width:1;"/><path d="M1218.3188,181.6394 Q1217.7406,181.9362 1217.1,182.0769 Q1216.4594,182.2331 1215.7563,182.2331 Q1213.2563,182.2331 1211.9281,180.5925 Q1210.6156,178.9362 1210.6156,175.8112 Q1210.6156,172.6862 1211.9281,171.03 Q1213.2563,169.3737 1215.7563,169.3737 Q1216.4594,169.3737 1217.1,169.53 Q1217.7563,169.6862 1218.3188,169.9831 L1218.3188,172.7019 Q1217.6938,172.1237 1217.1,171.8581 Q1216.5063,171.5769 1215.8813,171.5769 Q1214.5375,171.5769 1213.85,172.655 Q1213.1625,173.7175 1213.1625,175.8112 Q1213.1625,177.905 1213.85,178.9831 Q1214.5375,180.0456 1215.8813,180.0456 Q1216.5063,180.0456 1217.1,179.78 Q1217.6938,179.4987 1218.3188,178.9206 L1218.3188,181.6394 Z " fill="#000000"/><a href="file:////home/runner/work/BO4E-python/BO4E-python/docs/../.tox/docs/tmp/html/api/bo4e.bo.html#bo4e.bo.lokationszuordnung.Lokationszuordnung" target="_top" title="file:////home/runner/work/BO4E-python/BO4E-python/docs/../.tox/docs/tmp/html/api/bo4e.bo.html#bo4e.bo.lokationszuordnung.Lokationszuordnung" xlink:actuate="onRequest" xlink:href="file:////home/runner/work/BO4E-python/BO4E-python/docs/../.tox/docs/tmp/html/api/bo4e.bo.html#bo4e.bo.lokationszuordnung.Lokationszuordnung" xlink:show="new" xlink:title="file:////home/runner/work/BO4E-python/BO4E-python/docs/../.tox/docs/tmp/html/api/bo4e.bo.html#bo4e.bo.lokationszuordnung.Lokationszuordnung" xlink:type="simple"><text fill="#0000FF" font-family="sans-serif" font-size="14" lengthAdjust="spacing" text-decoration="underline" textLength="142.0986" x="1229.5556" y="175.0251">Lokationszuordnung</text></a><text fill="#000000" font-family="sans-serif" font-size="10" lengthAdjust="spacing" textLength="142.5098" x="1229.35" y="187.6091">bo4e.bo.lokationszuordnung</text></g><!--class Menge--><g class="entity" data-entity="Menge" data-source-line="17" data-uid="ent0008" id="entity_Menge"><rect fill="#F1F1F1" height="37.9375" rx="2.5" ry="2.5" style="stroke:#181818;stroke-width:0.5;" width="119.4268" x="1227.9" y="270.03"/><ellipse cx="1242.9" cy="288.9988" fill="#ADD1B2" rx="11" ry="11" style="stroke:#181818;stroke-width:1;"/><path d="M1245.8688,294.6394 Q1245.2906,294.9363 1244.65,295.0769 Q1244.0094,295.2331 1243.3063,295.2331 Q1240.8063,295.2331 1239.4781,293.5925 Q1238.1656,291.9363 1238.1656,288.8113 Q1238.1656,285.6863 1239.4781,284.03 Q1240.8063,282.3738 1243.3063,282.3738 Q1244.0094,282.3738 1244.65,282.53 Q1245.3063,282.6863 1245.8688,282.9831 L1245.8688,285.7019 Q1245.2438,285.1238 1244.65,284.8581 Q1244.0563,284.5769 1243.4313,284.5769 Q1242.0875,284.5769 1241.4,285.655 Q1240.7125,286.7175 1240.7125,288.8113 Q1240.7125,290.905 1241.4,291.9831 Q1242.0875,293.0456 1243.4313,293.0456 Q1244.0563,293.0456 1244.65,292.78 Q1245.2438,292.4988 1245.8688,291.9206 L1245.8688,294.6394 Z " fill="#000000"/><a href="file:////home/runner/work/BO4E-python/BO4E-python/docs/../.tox/docs/tmp/html/api/bo4e.com.html#bo4e.com.menge.Menge" target="_top" title="file:////home/runner/work/BO4E-python/BO4E-python/docs/../.tox/docs/tmp/html/api/bo4e.com.html#bo4e.com.menge.Menge" xlink:actuate="onRequest" xlink:href="file:////home/runner/work/BO4E-python/BO4E-python/docs/../.tox/docs/tmp/html/api/bo4e.com.html#bo4e.com.menge.Menge" xlink:show="new" xlink:title="file:////home/runner/work/BO4E-python/BO4E-python/docs/../.tox/docs/tmp/html/api/bo4e.com.html#bo4e.com.menge.Menge" xlink:type="simple"><text fill="#0000FF" font-family="sans-serif" font-size="14" lengthAdjust="spacing" text-decoration="underline" textLength="47.0654" x="1277.0807" y="288.0251">Menge</text></a><text fill="#000000" font-family="sans-serif" font-size="10" lengthAdjust="spacing" textLength="87.4268" x="1256.9" y="300.6091">bo4e.com.menge</text></g><!--class Erzeugungsart--><g class="entity" data-entity="Erzeugungsart" data-source-line="20" data-uid="ent0010" id="entity_Erzeugungsart"><rect fill="#F1F1F1" height="37.9375" rx="2.5" ry="2.5" style="stroke:#181818;stroke-width:0.5;" width="164.6514" x="1205.28" y="383.03"/><ellipse cx="1220.28" cy="401.9988" fill="#ADD1B2" rx="11" ry="11" style="stroke:#181818;stroke-width:1;"/><path d="M1223.2488,407.6394 Q1222.6706,407.9363 1222.03,408.0769 Q1221.3894,408.2331 1220.6863,408.2331 Q1218.1863,408.2331 1216.8581,406.5925 Q1215.5456,404.9363 1215.5456,401.8113 Q1215.5456,398.6863 1216.8581,397.03 Q1218.1863,395.3738 1220.6863,395.3738 Q1221.3894,395.3738 1222.03,395.53 Q1222.6863,395.6863 1223.2488,395.9831 L1223.2488,398.7019 Q1222.6238,398.1238 1222.03,397.8581 Q1221.4363,397.5769 1220.8113,397.5769 Q1219.4675,397.5769 1218.78,398.655 Q1218.0925,399.7175 1218.0925,401.8113 Q1218.0925,403.905 1218.78,404.9831 Q1219.4675,406.0456 1220.8113,406.0456 Q1221.4363,406.0456 1222.03,405.78 Q1222.6238,405.4988 1223.2488,404.9206 L1223.2488,407.6394 Z " fill="#000000"/><a href="file:////home/runner/work/BO4E-python/BO4E-python/docs/../.tox/docs/tmp/html/api/bo4e.enum.html#bo4e.enum.erzeugungsart.Erzeugungsart" target="_top" title="file:////home/runner/work/BO4E-python/BO4E-python/docs/../.tox/docs/tmp/html/api/bo4e.enum.html#bo4e.enum.erzeugungsart.Erzeugungsart" xlink:actuate="onRequest" xlink:href="file:////home/runner/work/BO4E-python/BO4E-python/docs/../.tox/docs/tmp/html/api/bo4e.enum.html#bo4e.enum.erzeugungsart.Erzeugungsart" xlink:show="new" xlink:title="file:////home/runner/work/BO4E-python/BO4E-python/docs/../.tox/docs/tmp/html/api/bo4e.enum.html#bo4e.enum.erzeugungsart.Erzeugungsart" xlink:type="simple"><text fill="#0000FF" font-family="sans-serif" font-size="14" lengthAdjust="spacing" text-decoration="underline" textLength="102.0742" x="1249.5686" y="401.0251">Erzeugungsart</text></a><text fill="#000000" font-family="sans-serif" font-size="10" lengthAdjust="spacing" textLength="132.6514" x="1234.28" y="413.6091">bo4e.enum.erzeugungsart</text></g><!--class TechnischeRessourceNutzung--><g class="entity" data-entity="TechnischeRessourceNutzung" data-source-line="21" data-uid="ent0011" id="entity_TechnischeRessourceNutzung"><rect fill="#F1F1F1" height="37.9375" rx="2.5" ry="2.5" style="stroke:#181818;stroke-width:0.5;" width="242.2256" x="1166.5" y="456.03"/><ellipse cx="1181.5" cy="474.9988" fill="#ADD1B2" rx="11" ry="11" style="stroke:#181818;stroke-width:1;"/><path d="M1184.4688,480.6394 Q1183.8906,480.9363 1183.25,481.0769 Q1182.6094,481.2331 1181.9063,481.2331 Q1179.4063,481.2331 1178.0781,479.5925 Q1176.7656,477.9363 1176.7656,474.8113 Q1176.7656,471.6863 1178.0781,470.03 Q1179.4063,468.3738 1181.9063,468.3738 Q1182.6094,468.3738 1183.25,468.53 Q1183.9063,468.6863 1184.4688,468.9831 L1184.4688,471.7019 Q1183.8438,471.1238 1183.25,470.8581 Q1182.6563,470.5769 1182.0313,470.5769 Q1180.6875,470.5769 1180,471.655 Q1179.3125,472.7175 1179.3125,474.8113 Q1179.3125,476.905 1180,477.9831 Q1180.6875,479.0456 1182.0313,479.0456 Q1182.6563,479.0456 1183.25,478.78 Q1183.8438,478.4988 1184.4688,477.9206 L1184.4688,480.6394 Z " fill="#000000"/><a href="file:////home/runner/work/BO4E-python/BO4E-python/docs/../.tox/docs/tmp/html/api/bo4e.enum.html#bo4e.enum.technischeressourcenutzung.TechnischeRessourceNutzung" target="_top" title="file:////home/runner/work/BO4E-python/BO4E-python/docs/../.tox/docs/tmp/html/api/bo4e.enum.html#bo4e.enum.technischeressourcenutzung.TechnischeRessourceNutzung" xlink:actuate="onRequest" xlink:href="file:////home/runner/work/BO4E-python/BO4E-python/docs/../.tox/docs/tmp/html/api/bo4e.enum.html#bo4e.enum.technischeressourcenutzung.TechnischeRessourceNutzung" xlink:show="new" xlink:title="file:////home/runner/work/BO4E-python/BO4E-python/docs/../.tox/docs/tmp/html/api/bo4e.enum.html#bo4e.enum.technischeressourcenutzung.TechnischeRessourceNutzung" xlink:type="simple"><text fill="#0000FF" font-family="sans-serif" font-size="14" lengthAdjust="spacing" text-decoration="underline" textLength="210.2256" x="1195.5" y="474.0251">TechnischeRessourceNutzung</text></a><text fill="#000000" font-family="sans-serif" font-size="10" lengthAdjust="spacing" textLength="203.9014" x="1198.6621" y="486.6091">bo4e.enum.technischeressourcenutzung</text></g><!--class EMobilitaetsart--><g class="entity" data-entity="EMobilitaetsart" data-source-line="22" data-uid="ent0012" id="entity_EMobilitaetsart"><rect fill="#F1F1F1" height="37.9375" rx="2.5" ry="2.5" style="stroke:#181818;stroke-width:0.5;" width="168.0938" x="1203.56" y="529.03"/><ellipse cx="1218.56" cy="547.9988" fill="#ADD1B2" rx="11" ry="11" style="stroke:#181818;stroke-width:1;"/><path d="M1221.5288,553.6394 Q1220.9506,553.9363 1220.31,554.0769 Q1219.6694,554.2331 1218.9663,554.2331 Q1216.4663,554.2331 1215.1381,552.5925 Q1213.8256,550.9363 1213.8256,547.8113 Q1213.8256,544.6863 1215.1381,543.03 Q1216.4663,541.3738 1218.9663,541.3738 Q1219.6694,541.3738 1220.31,541.53 Q1220.9663,541.6863 1221.5288,541.9831 L1221.5288,544.7019 Q1220.9038,544.1238 1220.31,543.8581 Q1219.7163,543.5769 1219.0913,543.5769 Q1217.7475,543.5769 1217.06,544.655 Q1216.3725,545.7175 1216.3725,547.8113 Q1216.3725,549.905 1217.06,550.9831 Q1217.7475,552.0456 1219.0913,552.0456 Q1219.7163,552.0456 1220.31,551.78 Q1220.9038,551.4988 1221.5288,550.9206 L1221.5288,553.6394 Z " fill="#000000"/><a href="file:////home/runner/work/BO4E-python/BO4E-python/docs/../.tox/docs/tmp/html/api/bo4e.enum.html#bo4e.enum.emobilitaetsart.EMobilitaetsart" target="_top" title="file:////home/runner/work/BO4E-python/BO4E-python/docs/../.tox/docs/tmp/html/api/bo4e.enum.html#bo4e.enum.emobilitaetsart.EMobilitaetsart" xlink:actuate="onRequest" xlink:href="file:////home/runner/work/BO4E-python/BO4E-python/docs/../.tox/docs/tmp/html/api/bo4e.enum.html#bo4e.enum.emobilitaetsart.EMobilitaetsart" xlink:show="new" xlink:title="file:////home/runner/work/BO4E-python/BO4E-python/docs/../.tox/docs/tmp/html/api/bo4e.enum.html#bo4e.enum.emobilitaetsart.EMobilitaetsart" xlink:type="simple"><text fill="#0000FF" font-family="sans-serif" font-size="14" lengthAdjust="spacing" text-decoration="underline" textLength="105.335" x="1247.9394" y="547.0251">EMobilitaetsart</text></a><text fill="#000000" font-family="sans-serif" font-size="10" lengthAdjust="spacing" textLength="136.0938" x="1232.56" y="559.6091">bo4e.enum.emobilitaetsart</text></g><!--class Waermenutzung--><g class="entity" data-entity="Waermenutzung" data-source-line="23" data-uid="ent0013" id="entity_Waermenutzung"><rect fill="#F1F1F1" height="37.9375" rx="2.5" ry="2.5" style="stroke:#181818;stroke-width:0.5;" width="173.2402" x="1200.99" y="602.03"/><ellipse cx="1215.99" cy="620.9988" fill="#ADD1B2" rx="11" ry="11" style="stroke:#181818;stroke-width:1;"/><path d="M1218.9588,626.6394 Q1218.3806,626.9363 1217.74,627.0769 Q1217.0994,627.2331 1216.3963,627.2331 Q1213.8963,627.2331 1212.5681,625.5925 Q1211.2556,623.9363 1211.2556,620.8113 Q1211.2556,617.6863 1212.5681,616.03 Q1213.8963,614.3738 1216.3963,614.3738 Q1217.0994,614.3738 1217.74,614.53 Q1218.3963,614.6863 1218.9588,614.9831 L1218.9588,617.7019 Q1218.3338,617.1238 1217.74,616.8581 Q1217.1463,616.5769 1216.5213,616.5769 Q1215.1775,616.5769 1214.49,617.655 Q1213.8025,618.7175 1213.8025,620.8113 Q1213.8025,622.905 1214.49,623.9831 Q1215.1775,625.0456 1216.5213,625.0456 Q1217.1463,625.0456 1217.74,624.78 Q1218.3338,624.4988 1218.9588,623.9206 L1218.9588,626.6394 Z " fill="#000000"/><a href="file:////home/runner/work/BO4E-python/BO4E-python/docs/../.tox/docs/tmp/html/api/bo4e.enum.html#bo4e.enum.waermenutzung.Waermenutzung" target="_top" title="file:////home/runner/work/BO4E-python/BO4E-python/docs/../.tox/docs/tmp/html/api/bo4e.enum.html#bo4e.enum.waermenutzung.Waermenutzung" xlink:actuate="onRequest" xlink:href="file:////home/runner/work/BO4E-python/BO4E-python/docs/../.tox/docs/tmp/html/api/bo4e.enum.html#bo4e.enum.waermenutzung.Waermenutzung" xlink:show="new" xlink:title="file:////home/runner/work/BO4E-python/BO4E-python/docs/../.tox/docs/tmp/html/api/bo4e.enum.html#bo4e.enum.waermenutzung.Waermenutzung" xlink:type="simple"><text fill="#0000FF" font-family="sans-serif" font-size="14" lengthAdjust="spacing" text-decoration="underline" textLength="116.2588" x="1242.4807" y="620.0251">Waermenutzung</text></a><text fill="#000000" font-family="sans-serif" font-size="10" lengthAdjust="spacing" textLength="141.2402" x="1229.99" y="632.6091">bo4e.enum.waermenutzung</text></g><!--class Speicherart--><g class="entity" data-entity="Speicherart" data-source-line="24" data-uid="ent0014" id="entity_Speicherart"><rect fill="#F1F1F1" height="37.9375" rx="2.5" ry="2.5" style="stroke:#181818;stroke-width:0.5;" width="148.6553" x="1213.28" y="675.03"/><ellipse cx="1228.28" cy="693.9988" fill="#ADD1B2" rx="11" ry="11" style="stroke:#181818;stroke-width:1;"/><path d="M1231.2488,699.6394 Q1230.6706,699.9363 1230.03,700.0769 Q1229.3894,700.2331 1228.6863,700.2331 Q1226.1863,700.2331 1224.8581,698.5925 Q1223.5456,696.9363 1223.5456,693.8113 Q1223.5456,690.6863 1224.8581,689.03 Q1226.1863,687.3738 1228.6863,687.3738 Q1229.3894,687.3738 1230.03,687.53 Q1230.6863,687.6863 1231.2488,687.9831 L1231.2488,690.7019 Q1230.6238,690.1238 1230.03,689.8581 Q1229.4363,689.5769 1228.8113,689.5769 Q1227.4675,689.5769 1226.78,690.655 Q1226.0925,691.7175 1226.0925,693.8113 Q1226.0925,695.905 1226.78,696.9831 Q1227.4675,698.0456 1228.8113,698.0456 Q1229.4363,698.0456 1230.03,697.78 Q1230.6238,697.4988 1231.2488,696.9206 L1231.2488,699.6394 Z " fill="#000000"/><a href="file:////home/runner/work/BO4E-python/BO4E-python/docs/../.tox/docs/tmp/html/api/bo4e.enum.html#bo4e.enum.speicherart.Speicherart" target="_top" title="file:////home/runner/work/BO4E-python/BO4E-python/docs/../.tox/docs/tmp/html/api/bo4e.enum.html#bo4e.enum.speicherart.Speicherart" xlink:actuate="onRequest" xlink:href="file:////home/runner/work/BO4E-python/BO4E-python/docs/../.tox/docs/tmp/html/api/bo4e.enum.html#bo4e.enum.speicherart.Speicherart" xlink:show="new" xlink:title="file:////home/runner/work/BO4E-python/BO4E-python/docs/../.tox/docs/tmp/html/api/bo4e.enum.html#bo4e.enum.speicherart.Speicherart" xlink:type="simple"><text fill="#0000FF" font-family="sans-serif" font-size="14" lengthAdjust="spacing" text-decoration="underline" textLength="81.04" x="1260.0876" y="693.0251">Speicherart</text></a><text fill="#000000" font-family="sans-serif" font-size="10" lengthAdjust="spacing" textLength="116.6553" x="1242.28" y="705.6091">bo4e.enum.speicherart</text></g><!--class TechnischeRessourceVerbrauchsart--><g class="entity" data-entity="TechnischeRessourceVerbrauchsart" data-source-line="25" data-uid="ent0015" id="entity_TechnischeRessourceVerbrauchsart"><rect fill="#F1F1F1" height="37.9375" rx="2.5" ry="2.5" style="stroke:#181818;stroke-width:0.5;" width="283.1387" x="1146.04" y="748.03"/><ellipse cx="1161.04" cy="766.9988" fill="#ADD1B2" rx="11" ry="11" style="stroke:#181818;stroke-width:1;"/><path d="M1164.0088,772.6394 Q1163.4306,772.9363 1162.79,773.0769 Q1162.1494,773.2331 1161.4463,773.2331 Q1158.9463,773.2331 1157.6181,771.5925 Q1156.3056,769.9363 1156.3056,766.8113 Q1156.3056,763.6863 1157.6181,762.03 Q1158.9463,760.3738 1161.4463,760.3738 Q1162.1494,760.3738 1162.79,760.53 Q1163.4463,760.6863 1164.0088,760.9831 L1164.0088,763.7019 Q1163.3838,763.1238 1162.79,762.8581 Q1162.1963,762.5769 1161.5713,762.5769 Q1160.2275,762.5769 1159.54,763.655 Q1158.8525,764.7175 1158.8525,766.8113 Q1158.8525,768.905 1159.54,769.9831 Q1160.2275,771.0456 1161.5713,771.0456 Q1162.1963,771.0456 1162.79,770.78 Q1163.3838,770.4988 1164.0088,769.9206 L1164.0088,772.6394 Z " fill="#000000"/><a href="file:////home/runner/work/BO4E-python/BO4E-python/docs/../.tox/docs/tmp/html/api/bo4e.enum.html#bo4e.enum.technischeressourceverbrauchsart.TechnischeRessourceVerbrauchsart" target="_top" title="file:////home/runner/work/BO4E-python/BO4E-python/docs/../.tox/docs/tmp/html/api/bo4e.enum.html#bo4e.enum.technischeressourceverbrauchsart.TechnischeRessourceVerbrauchsart" xlink:actuate="onRequest" xlink:href="file:////home/runner/work/BO4E-python/BO4E-python/docs/../.tox/docs/tmp/html/api/bo4e.enum.html#bo4e.enum.technischeressourceverbrauchsart.TechnischeRessourceVerbrauchsart" xlink:show="new" xlink:title="file:////home/runner/work/BO4E-python/BO4E-python/docs/../.tox/docs/tmp/html/api/bo4e.enum.html#bo4e.enum.technischeressourceverbrauchsart.TechnischeRessourceVerbrauchsart" xlink:type="simple"><text fill="#0000FF" font-family="sans-serif" font-size="14" lengthAdjust="spacing" text-decoration="underline" textLength="251.1387" x="1175.04" y="766.0251">TechnischeRessourceVerbrauchsart</text></a><text fill="#000000" font-family="sans-serif" font-size="10" lengthAdjust="spacing" textLength="233.3447" x="1183.937" y="778.6091">bo4e.enum.technischeressourceverbrauchsart</text></g><!--class TechnischeRessource--><g class="entity" data-entity="TechnischeRessource" data-source-line="3" data-uid="ent0002" id="entity_TechnischeRessource"><rect fill="#F1F1F1" height="143.7188" rx="2.5" ry="2.5" style="stroke:#181818;stroke-width:0.5;" width="821.04" x="7" y="330.14"/><ellipse cx="337.5654" cy="349.1088" fill="#ADD1B2" rx="11" ry="11" style="stroke:#181818;stroke-width:1;"/><path d="M340.5342,354.7494 Q339.9561,355.0463 339.3154,355.1869 Q338.6748,355.3431 337.9717,355.3431 Q335.4717,355.3431 334.1436,353.7025 Q332.8311,352.0463 332.8311,348.9213 Q332.8311,345.7963 334.1436,344.14 Q335.4717,342.4838 337.9717,342.4838 Q338.6748,342.4838 339.3154,342.64 Q339.9717,342.7963 340.5342,343.0931 L340.5342,345.8119 Q339.9092,345.2338 339.3154,344.9681 Q338.7217,344.6869 338.0967,344.6869 Q336.7529,344.6869 336.0654,345.765 Q335.3779,346.8275 335.3779,348.9213 Q335.3779,351.015 336.0654,352.0931 Q336.7529,353.1556 338.0967,353.1556 Q338.7217,353.1556 339.3154,352.89 Q339.9092,352.6088 340.5342,352.0306 L340.5342,354.7494 Z " fill="#000000"/><a href="file:////home/runner/work/BO4E-python/BO4E-python/docs/../.tox/docs/tmp/html/api/bo4e.bo.html#bo4e.bo.technischeressource.TechnischeRessource" target="_top" title="file:////home/runner/work/BO4E-python/BO4E-python/docs/../.tox/docs/tmp/html/api/bo4e.bo.html#bo4e.bo.technischeressource.TechnischeRessource" xlink:actuate="onRequest" xlink:href="file:////home/runner/work/BO4E-python/BO4E-python/docs/../.tox/docs/tmp/html/api/bo4e.bo.html#bo4e.bo.technischeressource.TechnischeRessource" xlink:show="new" xlink:title="file:////home/runner/work/BO4E-python/BO4E-python/docs/../.tox/docs/tmp/html/api/bo4e.bo.html#bo4e.bo.technischeressource.TechnischeRessource" xlink:type="simple"><text fill="#0000FF" font-family="sans-serif" font-size="14" lengthAdjust="spacing" text-decoration="underline" textLength="151.4092" x="358.0654" y="348.1351">TechnischeRessource</text></a><text fill="#000000" font-family="sans-serif" font-size="10" lengthAdjust="spacing" textLength="146.9287" x="360.3057" y="360.7191">bo4e.bo.technischeressource</text><line style="stroke:#181818;stroke-width:0.5;" x1="8" x2="827.04" y1="368.0775" y2="368.0775"/><text fill="#000000" font-family="sans-serif" font-size="14" lengthAdjust="spacing" textLength="809.04" x="13" y="385.0726">_typ : Literal[&lt;BoTyp.TECHNISCHERESSOURCE: 'TECHNISCHERESSOURCE'&gt;] [1] = BoTyp.TECHNISCHERESSOURCE</text><text fill="#000000" font-family="sans-serif" font-size="14" lengthAdjust="spacing" textLength="292.7627" x="13" y="401.3695">technischeRessourceId : str [0..1] = None</text><text fill="#000000" font-family="sans-serif" font-size="14" lengthAdjust="spacing" textLength="325.5889" x="13" y="417.6664">vorgelagerteMesslokationId : str [0..1] = None</text><text fill="#000000" font-family="sans-serif" font-size="14" lengthAdjust="spacing" textLength="328.9043" x="13" y="433.9632">zugeordneteMarktlokationId : str [0..1] = None</text><text fill="#000000" font-family="sans-serif" font-size="14" lengthAdjust="spacing" textLength="383.4346" x="13" y="450.2601">zugeordneteSteuerbareRessourceId : str [0..1] = None</text><text fill="#000000" font-family="sans-serif" font-size="14" lengthAdjust="spacing" textLength="331.0576" x="13" y="466.557">lokationsbuendelObjektcode : str [0..1] = None</text></g><!--link TechnischeRessource to Geschaeftsobjekt--><g class="link" data-entity-1="TechnischeRessource" data-entity-2="Geschaeftsobjekt" data-source-line="28" data-uid="lnk16" id="link_TechnischeRessource_Geschaeftsobjekt"><path codeLine="28" d="M509.2,329.92 C594.02,266.91 726.98,179.11 858.04,137 C975.11,99.39 1101.007,95.5994 1188.707,98.0394" fill="none" id="TechnischeRessource-to-Geschaeftsobjekt" style="stroke:#181818;stroke-width:1;"/><polygon fill="none" points="1206.7,98.54,1188.8738,92.0417,1188.5401,104.0371,1206.7,98.54" style="stroke:#181818;stroke-width:1;"/></g><!--link TechnischeRessource to Menge--><g class="link" data-entity-1="TechnischeRessource" data-entity-2="Menge" data-source-line="29" data-uid="lnk17" id="link_TechnischeRessource_Menge"><path codeLine="29" d="M683.86,329.7 C740.91,316.84 801.16,305.24 858.04,298 C989.26,281.29 1132.8772,283.0232 1215.7472,285.9032" fill="none" id="TechnischeRessource-to-Menge" style="stroke:#181818;stroke-width:1;"/><polygon fill="#181818" points="1227.74,286.32,1221.8825,282.114,1215.7472,285.9032,1221.6047,290.1092,1227.74,286.32" style="stroke:#181818;stroke-width:1;"/><text fill="#000000" font-family="sans-serif" font-size="13" lengthAdjust="spacing" textLength="150.4268" x="899.04" y="281.0669">nennleistungaufnahme</text><text fill="#000000" font-family="sans-serif" font-size="13" lengthAdjust="spacing" textLength="24.8066" x="1195.0296" y="298.9826">0..1</text></g><!--link TechnischeRessource to Menge--><g class="link" data-entity-1="TechnischeRessource" data-entity-2="Menge" data-source-line="30" data-uid="lnk18" id="link_TechnischeRessource_Menge"><path codeLine="30" d="M828.26,357.38 C914.82,346.95 1005.53,335.27 1090.04,323 C1136.48,316.26 1177.0241,309.2798 1216.0141,302.1798" fill="none" id="TechnischeRessource-to-Menge-1" style="stroke:#181818;stroke-width:1;"/><polygon fill="#181818" points="1227.82,300.03,1221.2005,297.1696,1216.0141,302.1798,1222.6337,305.0402,1227.82,300.03" style="stroke:#181818;stroke-width:1;"/><text fill="#000000" font-family="sans-serif" font-size="13" lengthAdjust="spacing" textLength="133.2246" x="907.54" y="319.0669">nennleistungabgabe</text><text fill="#000000" font-family="sans-serif" font-size="13" lengthAdjust="spacing" textLength="24.8066" x="1195.1193" y="314.3635">0..1</text></g><!--link TechnischeRessource to Menge--><g class="link" data-entity-1="TechnischeRessource" data-entity-2="Menge" data-source-line="31" data-uid="lnk19" id="link_TechnischeRessource_Menge"><path codeLine="31" d="M828.5,401.52 C952.93,398.55 1063.91,391.9 1090.04,378 C1095.38,375.16 1093.29,370.74 1098.04,367 C1136.31,336.86 1176.4127,320.1679 1215.9427,307.8579" fill="none" id="TechnischeRessource-to-Menge-2" style="stroke:#181818;stroke-width:1;"/><polygon fill="#181818" points="1227.4,304.29,1220.482,302.2549,1215.9427,307.8579,1222.8606,309.8931,1227.4,304.29" style="stroke:#181818;stroke-width:1;"/><text fill="#000000" font-family="sans-serif" font-size="13" lengthAdjust="spacing" textLength="123.6714" x="912.54" y="374.0669">speicherkapazitaet</text><text fill="#000000" font-family="sans-serif" font-size="13" lengthAdjust="spacing" textLength="24.8066" x="1202.8973" y="328.0714">0..1</text></g><!--link TechnischeRessource to TechnischeRessourceNutzung--><g class="link" data-entity-1="TechnischeRessource" data-entity-2="TechnischeRessourceNutzung" data-source-line="32" data-uid="lnk20" id="link_TechnischeRessource_TechnischeRessourceNutzung"><path codeLine="32" d="M828.36,461.35 C838.34,462.3 848.25,463.19 858.04,464 C961.88,472.63 1068.3202,475.043 1154.3302,475.523" fill="none" id="TechnischeRessource-to-TechnischeRessourceNutzung" style="stroke:#181818;stroke-width:1;"/><polygon fill="#181818" points="1166.33,475.59,1160.3524,471.5566,1154.3302,475.523,1160.3078,479.5565,1166.33,475.59" style="stroke:#181818;stroke-width:1;"/><text fill="#000000" font-family="sans-serif" font-size="13" lengthAdjust="spacing" textLength="192.3657" x="878.04" y="460.0669">technischeRessourceNutzung</text><text fill="#000000" font-family="sans-serif" font-size="13" lengthAdjust="spacing" textLength="24.8066" x="1133.8174" y="488.1795">0..1</text></g><!--link TechnischeRessource to TechnischeRessourceVerbrauchsart--><g class="link" data-entity-1="TechnischeRessource" data-entity-2="TechnischeRessourceVerbrauchsart" data-source-line="33" data-uid="lnk21" id="link_TechnischeRessource_TechnischeRessourceVerbrauchsart"><path codeLine="33" d="M500.48,474.12 C584.29,543.67 721.24,646.08 858.04,700 C950,736.24 1048.3577,751.8714 1134.0377,759.5314" fill="none" id="TechnischeRessource-to-TechnischeRessourceVerbrauchsart" style="stroke:#181818;stroke-width:1;"/><polygon fill="#181818" points="1145.99,760.6,1140.37,756.0816,1134.0377,759.5314,1139.6576,764.0498,1145.99,760.6" style="stroke:#181818;stroke-width:1;"/><text fill="#000000" font-family="sans-serif" font-size="13" lengthAdjust="spacing" textLength="230.3564" x="859.04" y="696.0669">technischeRessourceVerbrauchsart</text><text fill="#000000" font-family="sans-serif" font-size="13" lengthAdjust="spacing" textLength="24.8066" x="1113.1322" y="772.7344">0..1</text></g><!--link TechnischeRessource to Waermenutzung--><g class="link" data-entity-1="TechnischeRessource" data-entity-2="Waermenutzung" data-source-line="34" data-uid="lnk22" id="link_TechnischeRessource_Waermenutzung"><path codeLine="34" d="M602.05,474.27 C680,502.77 772.48,533.71 858.04,555 C975.11,584.13 1101.6248,601.3122 1188.8048,611.0922" fill="none" id="TechnischeRessource-to-Waermenutzung" style="stroke:#181818;stroke-width:1;"/><polygon fill="#181818" points="1200.73,612.43,1195.2133,607.786,1188.8048,611.0922,1194.3215,615.7362,1200.73,612.43" style="stroke:#181818;stroke-width:1;"/><text fill="#000000" font-family="sans-serif" font-size="13" lengthAdjust="spacing" textLength="105.7329" x="921.54" y="551.0669">waermenutzung</text><text fill="#000000" font-family="sans-serif" font-size="13" lengthAdjust="spacing" textLength="24.8066" x="1168.2672" y="624.4108">0..1</text></g><!--link TechnischeRessource to EMobilitaetsart--><g class="link" data-entity-1="TechnischeRessource" data-entity-2="EMobilitaetsart" data-source-line="35" data-uid="lnk23" id="link_TechnischeRessource_EMobilitaetsart"><path codeLine="35" d="M722.99,474.35 C768.12,483.77 814.18,492.68 858.04,500 C977.3,519.92 1104.6952,532.7695 1191.3252,540.3095" fill="none" id="TechnischeRessource-to-EMobilitaetsart" style="stroke:#181818;stroke-width:1;"/><polygon fill="#181818" points="1203.28,541.35,1197.6494,536.8448,1191.3252,540.3095,1196.9558,544.8147,1203.28,541.35" style="stroke:#181818;stroke-width:1;"/><text fill="#000000" font-family="sans-serif" font-size="13" lengthAdjust="spacing" textLength="99.0425" x="924.54" y="496.0669">emobilitaetsart</text><text fill="#000000" font-family="sans-serif" font-size="13" lengthAdjust="spacing" textLength="24.8066" x="1170.7368" y="553.4986">0..1</text></g><!--link TechnischeRessource to Erzeugungsart--><g class="link" data-entity-1="TechnischeRessource" data-entity-2="Erzeugungsart" data-source-line="36" data-uid="lnk24" id="link_TechnischeRessource_Erzeugungsart"><path codeLine="36" d="M828.5,437.12 C914.94,439.99 1005.54,439.62 1090.04,433 C1128.1,430.02 1158.1035,425.8632 1193.3535,419.8032" fill="none" id="TechnischeRessource-to-Erzeugungsart" style="stroke:#181818;stroke-width:1;"/><polygon fill="#181818" points="1205.18,417.77,1198.589,414.8444,1193.3535,419.8032,1199.9445,422.7287,1205.18,417.77" style="stroke:#181818;stroke-width:1;"/><text fill="#000000" font-family="sans-serif" font-size="13" lengthAdjust="spacing" textLength="94.5674" x="927.04" y="429.0669">erzeugungsart</text><text fill="#000000" font-family="sans-serif" font-size="13" lengthAdjust="spacing" textLength="24.8066" x="1172.5123" y="431.9883">0..1</text></g><!--link TechnischeRessource to Speicherart--><g class="link" data-entity-1="TechnischeRessource" data-entity-2="Speicherart" data-source-line="37" data-uid="lnk25" id="link_TechnischeRessource_Speicherart"><path codeLine="37" d="M536.91,474.35 C623.03,523.8 744.04,586.88 858.04,624 C978.83,663.33 1114.3262,680.1579 1201.0162,687.7879" fill="none" id="TechnischeRessource-to-Speicherart" style="stroke:#181818;stroke-width:1;"/><polygon fill="#181818" points="1212.97,688.84,1207.3438,684.3293,1201.0162,687.7879,1206.6424,692.2985,1212.97,688.84" style="stroke:#181818;stroke-width:1;"/><text fill="#000000" font-family="sans-serif" font-size="13" lengthAdjust="spacing" textLength="73.7725" x="937.54" y="620.0669">speicherart</text><text fill="#000000" font-family="sans-serif" font-size="13" lengthAdjust="spacing" textLength="24.8066" x="1180.4813" y="701.1439">0..1</text></g><!--link TechnischeRessource to Lokationszuordnung--><g class="link" data-entity-1="TechnischeRessource" data-entity-2="Lokationszuordnung" data-source-line="38" data-uid="lnk26" id="link_TechnischeRessource_Lokationszuordnung"><path codeLine="38" d="M529.32,329.77 C615.15,278.21 739.1,213.05 858.04,184 C973.89,155.7 1100.6676,158.7507 1188.2476,165.7007" fill="none" id="TechnischeRessource-to-Lokationszuordnung" style="stroke:#181818;stroke-width:1;"/><polygon fill="#181818" points="1200.21,166.65,1194.5452,162.1879,1188.2476,165.7007,1193.9124,170.1628,1200.21,166.65" style="stroke:#181818;stroke-width:1;"/><text fill="#000000" font-family="sans-serif" font-size="13" lengthAdjust="spacing" textLength="144.5552" x="902.04" y="158.0669">lokationszuordnungen</text><text fill="#000000" font-family="sans-serif" font-size="13" lengthAdjust="spacing" textLength="23.0356" x="1169.3307" y="178.5749">0..*</text></g><!--reverse link TechnischeRessource to Lokationszuordnung--><g class="link" data-entity-1="TechnischeRessource" data-entity-2="Lokationszuordnung" data-source-line="39" data-uid="lnk27" id="link_TechnischeRessource_Lokationszuordnung"><path codeLine="39" d="M636.3563,325.9518 C709.4363,301.8518 781.18,279.87 858.04,260 C975.31,229.68 1113.11,204.49 1200.15,189.84" fill="none" id="TechnischeRessource-backto-Lokationszuordnung" style="stroke:#181818;stroke-width:1;"/><polygon fill="#181818" points="624.96,329.71,631.9109,331.6297,636.3563,325.9518,629.4054,324.0321,624.96,329.71" style="stroke:#181818;stroke-width:1;"/><text fill="#000000" font-family="sans-serif" font-size="13" lengthAdjust="spacing" textLength="145.9897" x="901.54" y="208.0669">technischeRessourcen</text><text fill="#000000" font-family="sans-serif" font-size="13" lengthAdjust="spacing" textLength="23.0356" x="620.6372" y="319.1783">0..*</text></g><!--SRC=[pLTjJzim4FvCViMf_O24r0Gqnb34aA2h1X8l4cNRXwwQdEIQP4tiodPWTDj_dvEs8MuSe4DhLrLHdilTSpdVdNr9S2H1Ck1n64a8Oew-Z1crB3yXGa1hC1Z52RgE-aKiHOTdb29txXaVEwVN-xtEv456Z6ht0VE5OzkEBTcF6P3fn8bacZXa4ZiUsqVROtOkQ2-0H3-YiV0Zv2W4oxYFzcqfkrd8m20R3h_I8n5FqTtRFNw2hmL4cEpXfxNrJJvCm8MBM28doU3ebDq-JEpRNlViwhpVFUlTzFhzwqyttPuBsmRfzl4G1dj3U0-DXjQMhBi-3vHJ8JaCTcsxiBzY5AsjEyP3J4Y8NEAbKaxOcEHfQTAVPY4o7b1KweIFvGhwVOaPSe_mvzzgmIgy36c0oRNt7SVIPm4QzNzR5YKfYWbHQ_ol2mdcO3WiqZn7q3uz-F3kv31FyPeBEaILQQAwIx1YcUoFIm9O5XZhU9ccY6xPSkt1bPKmpV8oocXeNzH4K1SPGwoJ5K7MhLL5hQ6WV9PMAagXQaaf2EtUxidXGNSDDRLubNQ9KgGXsfVv5OfhVKLBjUAj2wNrB1pIhBfoEQmkNOwX7UpvRzwken_Bjsa_GkHJp49LIO9mQVUg23HKNzMwVH6PPhMHc0m77StaD6z9mrbtDNi4pOyQGczsqtIiplasa-YKUN4IIu9obkfB3SCIRagtpZ9Bk6wvaUZk2VAqpFANAW8DDSIbsHTHQLORYKbCCCwBAyzM__4UAlSDqLGiYrWg5lzBGzwf0OkJp8-AOZJqokUg0ZodyF8MrHmtDQh6dKzjni6xq_brl1YhQhECsKJPx40hdmbRvUavFxjSe4XfWh6Ggk98Dg8aIl6rD9xw_mt9eeJ6P4AcHM-_aAHOzoUsMHTayyRuEXTwoHWTwObTmPs-fRYWRHYh42tlkouixQahaMddjQBIpjuLYAhxosFodoVPQPKDO9XsNQWFiaZDb7EsdKu7dgOqP5LzcqUn-kHACVMG2qj4x1wCNaOn9e7u0m00]--></g></svg>