<?xml version="1.0" encoding="us-ascii" standalone="no"?><svg xmlns="http://www.w3.org/2000/svg" xmlns:xlink="http://www.w3.org/1999/xlink" contentStyleType="text/css" height="760px" preserveAspectRatio="none" style="width:930px;height:760px;background:#FFFFFF;" version="1.1" viewBox="0 0 930 760" width="930px" zoomAndPan="magnify"><defs/><g><!--cluster bo4e--><g id="cluster_bo4e"><path d="M666.5,6 L707.5,6 A3.75,3.75 0 0 1 710,8.5 L717,28.2969 L920.5,28.2969 A2.5,2.5 0 0 1 923,30.7969 L923,750.5 A2.5,2.5 0 0 1 920.5,753 L666.5,753 A2.5,2.5 0 0 1 664,750.5 L664,8.5 A2.5,2.5 0 0 1 666.5,6 " fill="none" style="stroke:#000000;stroke-width:1.5;"/><line style="stroke:#000000;stroke-width:1.5;" x1="664" x2="717" y1="28.2969" y2="28.2969"/><text fill="#000000" font-family="sans-serif" font-size="14" font-weight="bold" lengthAdjust="spacing" textLength="40" x="668" y="20.9951">bo4e</text></g><!--cluster bo--><g id="cluster_bo"><path d="M698.5,49 L764.5,49 A3.75,3.75 0 0 1 767,51.5 L774,71.2969 L888.5,71.2969 A2.5,2.5 0 0 1 891,73.7969 L891,208.5 A2.5,2.5 0 0 1 888.5,211 L698.5,211 A2.5,2.5 0 0 1 696,208.5 L696,51.5 A2.5,2.5 0 0 1 698.5,49 " fill="#B6D7A8" style="stroke:#000000;stroke-width:1.5;"/><line style="stroke:#000000;stroke-width:1.5;" x1="696" x2="774" y1="71.2969" y2="71.2969"/><a href="https://bo4e.github.io/BO4E-python/latest/api/bo4e.bo.html" target="_top" title="https://bo4e.github.io/BO4E-python/latest/api/bo4e.bo.html" xlink:actuate="onRequest" xlink:href="https://bo4e.github.io/BO4E-python/latest/api/bo4e.bo.html" xlink:show="new" xlink:title="https://bo4e.github.io/BO4E-python/latest/api/bo4e.bo.html" xlink:type="simple"><text fill="#0000FF" font-family="sans-serif" font-size="14" font-weight="bold" lengthAdjust="spacing" text-decoration="underline" textLength="65" x="700" y="63.9951">bo4e.bo</text></a></g><!--cluster com--><g id="cluster_com"><path d="M690.5,235 L769.5,235 A3.75,3.75 0 0 1 772,237.5 L779,257.2969 L896.5,257.2969 A2.5,2.5 0 0 1 899,259.7969 L899,467.5 A2.5,2.5 0 0 1 896.5,470 L690.5,470 A2.5,2.5 0 0 1 688,467.5 L688,237.5 A2.5,2.5 0 0 1 690.5,235 " fill="#E0A86C" style="stroke:#000000;stroke-width:1.5;"/><line style="stroke:#000000;stroke-width:1.5;" x1="688" x2="779" y1="257.2969" y2="257.2969"/><a href="https://bo4e.github.io/BO4E-python/latest/api/bo4e.com.html" target="_top" title="https://bo4e.github.io/BO4E-python/latest/api/bo4e.com.html" xlink:actuate="onRequest" xlink:href="https://bo4e.github.io/BO4E-python/latest/api/bo4e.com.html" xlink:show="new" xlink:title="https://bo4e.github.io/BO4E-python/latest/api/bo4e.com.html" xlink:type="simple"><text fill="#0000FF" font-family="sans-serif" font-size="14" font-weight="bold" lengthAdjust="spacing" text-decoration="underline" textLength="78" x="692" y="249.9951">bo4e.com</text></a></g><!--cluster enum--><g id="cluster_enum"><path d="M699.5,494 L789.5,494 A3.75,3.75 0 0 1 792,496.5 L799,516.2969 L887.5,516.2969 A2.5,2.5 0 0 1 890,518.7969 L890,726.5 A2.5,2.5 0 0 1 887.5,729 L699.5,729 A2.5,2.5 0 0 1 697,726.5 L697,496.5 A2.5,2.5 0 0 1 699.5,494 " fill="#D1C358" style="stroke:#000000;stroke-width:1.5;"/><line style="stroke:#000000;stroke-width:1.5;" x1="697" x2="799" y1="516.2969" y2="516.2969"/><a href="https://bo4e.github.io/BO4E-python/latest/api/bo4e.enum.html" target="_top" title="https://bo4e.github.io/BO4E-python/latest/api/bo4e.enum.html" xlink:actuate="onRequest" xlink:href="https://bo4e.github.io/BO4E-python/latest/api/bo4e.enum.html" xlink:show="new" xlink:title="https://bo4e.github.io/BO4E-python/latest/api/bo4e.enum.html" xlink:type="simple"><text fill="#0000FF" font-family="sans-serif" font-size="14" font-weight="bold" lengthAdjust="spacing" text-decoration="underline" textLength="89" x="701" y="508.9951">bo4e.enum</text></a></g><!--class Geschaeftsobjekt--><g id="elem_Geschaeftsobjekt"><rect codeLine="12" fill="#F1F1F1" height="37.9375" id="Geschaeftsobjekt" rx="2.5" ry="2.5" style="stroke:#181818;stroke-width:0.5;" width="156" x="715.5" y="84.03"/><ellipse cx="730.5" cy="102.9987" fill="#ADD1B2" rx="11" ry="11" style="stroke:#181818;stroke-width:1.0;"/><path d="M733.4688,108.6394 Q732.8906,108.9362 732.25,109.0769 Q731.6094,109.2331 730.9063,109.2331 Q728.4063,109.2331 727.0781,107.5925 Q725.7656,105.9362 725.7656,102.8112 Q725.7656,99.6862 727.0781,98.03 Q728.4063,96.3737 730.9063,96.3737 Q731.6094,96.3737 732.25,96.53 Q732.9063,96.6862 733.4688,96.9831 L733.4688,99.7019 Q732.8438,99.1237 732.25,98.8581 Q731.6563,98.5769 731.0313,98.5769 Q729.6875,98.5769 729,99.655 Q728.3125,100.7175 728.3125,102.8112 Q728.3125,104.905 729,105.9831 Q729.6875,107.0456 731.0313,107.0456 Q731.6563,107.0456 732.25,106.78 Q732.8438,106.4987 733.4688,105.9206 L733.4688,108.6394 Z " fill="#000000"/><a href="https://bo4e.github.io/BO4E-python/latest/api/bo4e.bo.html#bo4e.bo.geschaeftsobjekt.Geschaeftsobjekt" target="_top" title="https://bo4e.github.io/BO4E-python/latest/api/bo4e.bo.html#bo4e.bo.geschaeftsobjekt.Geschaeftsobjekt" xlink:actuate="onRequest" xlink:href="https://bo4e.github.io/BO4E-python/latest/api/bo4e.bo.html#bo4e.bo.geschaeftsobjekt.Geschaeftsobjekt" xlink:show="new" xlink:title="https://bo4e.github.io/BO4E-python/latest/api/bo4e.bo.html#bo4e.bo.geschaeftsobjekt.Geschaeftsobjekt" xlink:type="simple"><text fill="#0000FF" font-family="sans-serif" font-size="14" lengthAdjust="spacing" text-decoration="underline" textLength="122" x="745.5" y="102.0251">Geschaeftsobjekt</text></a><text fill="#000000" font-family="sans-serif" font-size="10" lengthAdjust="spacing" textLength="124" x="744.5" y="114.6091">bo4e.bo.geschaeftsobjekt</text></g><!--class Geschaeftspartner--><g id="elem_Geschaeftspartner"><rect codeLine="13" fill="#F1F1F1" height="37.9375" id="Geschaeftspartner" rx="2.5" ry="2.5" style="stroke:#181818;stroke-width:0.5;" width="163" x="712" y="157.03"/><ellipse cx="727" cy="175.9987" fill="#ADD1B2" rx="11" ry="11" style="stroke:#181818;stroke-width:1.0;"/><path d="M729.9688,181.6394 Q729.3906,181.9362 728.75,182.0769 Q728.1094,182.2331 727.4063,182.2331 Q724.9063,182.2331 723.5781,180.5925 Q722.2656,178.9362 722.2656,175.8112 Q722.2656,172.6862 723.5781,171.03 Q724.9063,169.3737 727.4063,169.3737 Q728.1094,169.3737 728.75,169.53 Q729.4063,169.6862 729.9688,169.9831 L729.9688,172.7019 Q729.3438,172.1237 728.75,171.8581 Q728.1563,171.5769 727.5313,171.5769 Q726.1875,171.5769 725.5,172.655 Q724.8125,173.7175 724.8125,175.8112 Q724.8125,177.905 725.5,178.9831 Q726.1875,180.0456 727.5313,180.0456 Q728.1563,180.0456 728.75,179.78 Q729.3438,179.4987 729.9688,178.9206 L729.9688,181.6394 Z " fill="#000000"/><a href="https://bo4e.github.io/BO4E-python/latest/api/bo4e.bo.html#bo4e.bo.geschaeftspartner.Geschaeftspartner" target="_top" title="https://bo4e.github.io/BO4E-python/latest/api/bo4e.bo.html#bo4e.bo.geschaeftspartner.Geschaeftspartner" xlink:actuate="onRequest" xlink:href="https://bo4e.github.io/BO4E-python/latest/api/bo4e.bo.html#bo4e.bo.geschaeftspartner.Geschaeftspartner" xlink:show="new" xlink:title="https://bo4e.github.io/BO4E-python/latest/api/bo4e.bo.html#bo4e.bo.geschaeftspartner.Geschaeftspartner" xlink:type="simple"><text fill="#0000FF" font-family="sans-serif" font-size="14" lengthAdjust="spacing" text-decoration="underline" textLength="129" x="742" y="175.0251">Geschaeftspartner</text></a><text fill="#000000" font-family="sans-serif" font-size="10" lengthAdjust="spacing" textLength="131" x="741" y="187.6091">bo4e.bo.geschaeftspartner</text></g><!--class Unterschrift--><g id="elem_Unterschrift"><rect codeLine="16" fill="#F1F1F1" height="37.9375" id="Unterschrift" rx="2.5" ry="2.5" style="stroke:#181818;stroke-width:0.5;" width="139" x="724" y="270.03"/><ellipse cx="739" cy="288.9988" fill="#ADD1B2" rx="11" ry="11" style="stroke:#181818;stroke-width:1.0;"/><path d="M741.9688,294.6394 Q741.3906,294.9363 740.75,295.0769 Q740.1094,295.2331 739.4063,295.2331 Q736.9063,295.2331 735.5781,293.5925 Q734.2656,291.9363 734.2656,288.8113 Q734.2656,285.6863 735.5781,284.03 Q736.9063,282.3738 739.4063,282.3738 Q740.1094,282.3738 740.75,282.53 Q741.4063,282.6863 741.9688,282.9831 L741.9688,285.7019 Q741.3438,285.1238 740.75,284.8581 Q740.1563,284.5769 739.5313,284.5769 Q738.1875,284.5769 737.5,285.655 Q736.8125,286.7175 736.8125,288.8113 Q736.8125,290.905 737.5,291.9831 Q738.1875,293.0456 739.5313,293.0456 Q740.1563,293.0456 740.75,292.78 Q741.3438,292.4988 741.9688,291.9206 L741.9688,294.6394 Z " fill="#000000"/><a href="https://bo4e.github.io/BO4E-python/latest/api/bo4e.com.html#bo4e.com.unterschrift.Unterschrift" target="_top" title="https://bo4e.github.io/BO4E-python/latest/api/bo4e.com.html#bo4e.com.unterschrift.Unterschrift" xlink:actuate="onRequest" xlink:href="https://bo4e.github.io/BO4E-python/latest/api/bo4e.com.html#bo4e.com.unterschrift.Unterschrift" xlink:show="new" xlink:title="https://bo4e.github.io/BO4E-python/latest/api/bo4e.com.html#bo4e.com.unterschrift.Unterschrift" xlink:type="simple"><text fill="#0000FF" font-family="sans-serif" font-size="14" lengthAdjust="spacing" text-decoration="underline" textLength="80" x="766.5" y="288.0251">Unterschrift</text></a><text fill="#000000" font-family="sans-serif" font-size="10" lengthAdjust="spacing" textLength="107" x="753" y="300.6091">bo4e.com.unterschrift</text></g><!--class Vertragsteil--><g id="elem_Vertragsteil"><rect codeLine="17" fill="#F1F1F1" height="37.9375" id="Vertragsteil" rx="2.5" ry="2.5" style="stroke:#181818;stroke-width:0.5;" width="138" x="724.5" y="343.03"/><ellipse cx="739.5" cy="361.9988" fill="#ADD1B2" rx="11" ry="11" style="stroke:#181818;stroke-width:1.0;"/><path d="M742.4688,367.6394 Q741.8906,367.9363 741.25,368.0769 Q740.6094,368.2331 739.9063,368.2331 Q737.4063,368.2331 736.0781,366.5925 Q734.7656,364.9363 734.7656,361.8113 Q734.7656,358.6863 736.0781,357.03 Q737.4063,355.3738 739.9063,355.3738 Q740.6094,355.3738 741.25,355.53 Q741.9063,355.6863 742.4688,355.9831 L742.4688,358.7019 Q741.8438,358.1238 741.25,357.8581 Q740.6563,357.5769 740.0313,357.5769 Q738.6875,357.5769 738,358.655 Q737.3125,359.7175 737.3125,361.8113 Q737.3125,363.905 738,364.9831 Q738.6875,366.0456 740.0313,366.0456 Q740.6563,366.0456 741.25,365.78 Q741.8438,365.4988 742.4688,364.9206 L742.4688,367.6394 Z " fill="#000000"/><a href="https://bo4e.github.io/BO4E-python/latest/api/bo4e.com.html#bo4e.com.vertragsteil.Vertragsteil" target="_top" title="https://bo4e.github.io/BO4E-python/latest/api/bo4e.com.html#bo4e.com.vertragsteil.Vertragsteil" xlink:actuate="onRequest" xlink:href="https://bo4e.github.io/BO4E-python/latest/api/bo4e.com.html#bo4e.com.vertragsteil.Vertragsteil" xlink:show="new" xlink:title="https://bo4e.github.io/BO4E-python/latest/api/bo4e.com.html#bo4e.com.vertragsteil.Vertragsteil" xlink:type="simple"><text fill="#0000FF" font-family="sans-serif" font-size="14" lengthAdjust="spacing" text-decoration="underline" textLength="78" x="767.5" y="361.0251">Vertragsteil</text></a><text fill="#000000" font-family="sans-serif" font-size="10" lengthAdjust="spacing" textLength="106" x="753.5" y="373.6091">bo4e.com.vertragsteil</text></g><!--class Vertragskonditionen--><g id="elem_Vertragskonditionen"><rect codeLine="18" fill="#F1F1F1" height="37.9375" id="Vertragskonditionen" rx="2.5" ry="2.5" style="stroke:#181818;stroke-width:0.5;" width="179" x="704" y="416.03"/><ellipse cx="719" cy="434.9988" fill="#ADD1B2" rx="11" ry="11" style="stroke:#181818;stroke-width:1.0;"/><path d="M721.9688,440.6394 Q721.3906,440.9363 720.75,441.0769 Q720.1094,441.2331 719.4063,441.2331 Q716.9063,441.2331 715.5781,439.5925 Q714.2656,437.9363 714.2656,434.8113 Q714.2656,431.6863 715.5781,430.03 Q716.9063,428.3738 719.4063,428.3738 Q720.1094,428.3738 720.75,428.53 Q721.4063,428.6863 721.9688,428.9831 L721.9688,431.7019 Q721.3438,431.1238 720.75,430.8581 Q720.1563,430.5769 719.5313,430.5769 Q718.1875,430.5769 717.5,431.655 Q716.8125,432.7175 716.8125,434.8113 Q716.8125,436.905 717.5,437.9831 Q718.1875,439.0456 719.5313,439.0456 Q720.1563,439.0456 720.75,438.78 Q721.3438,438.4988 721.9688,437.9206 L721.9688,440.6394 Z " fill="#000000"/><a href="https://bo4e.github.io/BO4E-python/latest/api/bo4e.com.html#bo4e.com.vertragskonditionen.Vertragskonditionen" target="_top" title="https://bo4e.github.io/BO4E-python/latest/api/bo4e.com.html#bo4e.com.vertragskonditionen.Vertragskonditionen" xlink:actuate="onRequest" xlink:href="https://bo4e.github.io/BO4E-python/latest/api/bo4e.com.html#bo4e.com.vertragskonditionen.Vertragskonditionen" xlink:show="new" xlink:title="https://bo4e.github.io/BO4E-python/latest/api/bo4e.com.html#bo4e.com.vertragskonditionen.Vertragskonditionen" xlink:type="simple"><text fill="#0000FF" font-family="sans-serif" font-size="14" lengthAdjust="spacing" text-decoration="underline" textLength="140" x="736.5" y="434.0251">Vertragskonditionen</text></a><text fill="#000000" font-family="sans-serif" font-size="10" lengthAdjust="spacing" textLength="147" x="733" y="446.6091">bo4e.com.vertragskonditionen</text></g><!--class Vertragsart--><g id="elem_Vertragsart"><rect codeLine="21" fill="#F1F1F1" height="37.9375" id="Vertragsart" rx="2.5" ry="2.5" style="stroke:#181818;stroke-width:0.5;" width="145" x="721" y="529.03"/><ellipse cx="736" cy="547.9988" fill="#ADD1B2" rx="11" ry="11" style="stroke:#181818;stroke-width:1.0;"/><path d="M738.9688,553.6394 Q738.3906,553.9363 737.75,554.0769 Q737.1094,554.2331 736.4063,554.2331 Q733.9063,554.2331 732.5781,552.5925 Q731.2656,550.9363 731.2656,547.8113 Q731.2656,544.6863 732.5781,543.03 Q733.9063,541.3738 736.4063,541.3738 Q737.1094,541.3738 737.75,541.53 Q738.4063,541.6863 738.9688,541.9831 L738.9688,544.7019 Q738.3438,544.1238 737.75,543.8581 Q737.1563,543.5769 736.5313,543.5769 Q735.1875,543.5769 734.5,544.655 Q733.8125,545.7175 733.8125,547.8113 Q733.8125,549.905 734.5,550.9831 Q735.1875,552.0456 736.5313,552.0456 Q737.1563,552.0456 737.75,551.78 Q738.3438,551.4988 738.9688,550.9206 L738.9688,553.6394 Z " fill="#000000"/><a href="https://bo4e.github.io/BO4E-python/latest/api/bo4e.enum.html#bo4e.enum.vertragsart.Vertragsart" target="_top" title="https://bo4e.github.io/BO4E-python/latest/api/bo4e.enum.html#bo4e.enum.vertragsart.Vertragsart" xlink:actuate="onRequest" xlink:href="https://bo4e.github.io/BO4E-python/latest/api/bo4e.enum.html#bo4e.enum.vertragsart.Vertragsart" xlink:show="new" xlink:title="https://bo4e.github.io/BO4E-python/latest/api/bo4e.enum.html#bo4e.enum.vertragsart.Vertragsart" xlink:type="simple"><text fill="#0000FF" font-family="sans-serif" font-size="14" lengthAdjust="spacing" text-decoration="underline" textLength="76" x="768.5" y="547.0251">Vertragsart</text></a><text fill="#000000" font-family="sans-serif" font-size="10" lengthAdjust="spacing" textLength="113" x="750" y="559.6091">bo4e.enum.vertragsart</text></g><!--class Vertragsstatus--><g id="elem_Vertragsstatus"><rect codeLine="22" fill="#F1F1F1" height="37.9375" id="Vertragsstatus" rx="2.5" ry="2.5" style="stroke:#181818;stroke-width:0.5;" width="161" x="713" y="602.03"/><ellipse cx="728" cy="620.9988" fill="#ADD1B2" rx="11" ry="11" style="stroke:#181818;stroke-width:1.0;"/><path d="M730.9688,626.6394 Q730.3906,626.9363 729.75,627.0769 Q729.1094,627.2331 728.4063,627.2331 Q725.9063,627.2331 724.5781,625.5925 Q723.2656,623.9363 723.2656,620.8113 Q723.2656,617.6863 724.5781,616.03 Q725.9063,614.3738 728.4063,614.3738 Q729.1094,614.3738 729.75,614.53 Q730.4063,614.6863 730.9688,614.9831 L730.9688,617.7019 Q730.3438,617.1238 729.75,616.8581 Q729.1563,616.5769 728.5313,616.5769 Q727.1875,616.5769 726.5,617.655 Q725.8125,618.7175 725.8125,620.8113 Q725.8125,622.905 726.5,623.9831 Q727.1875,625.0456 728.5313,625.0456 Q729.1563,625.0456 729.75,624.78 Q730.3438,624.4988 730.9688,623.9206 L730.9688,626.6394 Z " fill="#000000"/><a href="https://bo4e.github.io/BO4E-python/latest/api/bo4e.enum.html#bo4e.enum.vertragsstatus.Vertragsstatus" target="_top" title="https://bo4e.github.io/BO4E-python/latest/api/bo4e.enum.html#bo4e.enum.vertragsstatus.Vertragsstatus" xlink:actuate="onRequest" xlink:href="https://bo4e.github.io/BO4E-python/latest/api/bo4e.enum.html#bo4e.enum.vertragsstatus.Vertragsstatus" xlink:show="new" xlink:title="https://bo4e.github.io/BO4E-python/latest/api/bo4e.enum.html#bo4e.enum.vertragsstatus.Vertragsstatus" xlink:type="simple"><text fill="#0000FF" font-family="sans-serif" font-size="14" lengthAdjust="spacing" text-decoration="underline" textLength="101" x="756" y="620.0251">Vertragsstatus</text></a><text fill="#000000" font-family="sans-serif" font-size="10" lengthAdjust="spacing" textLength="129" x="742" y="632.6091">bo4e.enum.vertragsstatus</text></g><!--class Sparte--><g id="elem_Sparte"><rect codeLine="23" fill="#F1F1F1" height="37.9375" id="Sparte" rx="2.5" ry="2.5" style="stroke:#181818;stroke-width:0.5;" width="121" x="733" y="675.03"/><ellipse cx="748" cy="693.9988" fill="#ADD1B2" rx="11" ry="11" style="stroke:#181818;stroke-width:1.0;"/><path d="M750.9688,699.6394 Q750.3906,699.9363 749.75,700.0769 Q749.1094,700.2331 748.4063,700.2331 Q745.9063,700.2331 744.5781,698.5925 Q743.2656,696.9363 743.2656,693.8113 Q743.2656,690.6863 744.5781,689.03 Q745.9063,687.3738 748.4063,687.3738 Q749.1094,687.3738 749.75,687.53 Q750.4063,687.6863 750.9688,687.9831 L750.9688,690.7019 Q750.3438,690.1238 749.75,689.8581 Q749.1563,689.5769 748.5313,689.5769 Q747.1875,689.5769 746.5,690.655 Q745.8125,691.7175 745.8125,693.8113 Q745.8125,695.905 746.5,696.9831 Q747.1875,698.0456 748.5313,698.0456 Q749.1563,698.0456 749.75,697.78 Q750.3438,697.4988 750.9688,696.9206 L750.9688,699.6394 Z " fill="#000000"/><a href="https://bo4e.github.io/BO4E-python/latest/api/bo4e.enum.html#bo4e.enum.sparte.Sparte" target="_top" title="https://bo4e.github.io/BO4E-python/latest/api/bo4e.enum.html#bo4e.enum.sparte.Sparte" xlink:actuate="onRequest" xlink:href="https://bo4e.github.io/BO4E-python/latest/api/bo4e.enum.html#bo4e.enum.sparte.Sparte" xlink:show="new" xlink:title="https://bo4e.github.io/BO4E-python/latest/api/bo4e.enum.html#bo4e.enum.sparte.Sparte" xlink:type="simple"><text fill="#0000FF" font-family="sans-serif" font-size="14" lengthAdjust="spacing" text-decoration="underline" textLength="45" x="784" y="693.0251">Sparte</text></a><text fill="#000000" font-family="sans-serif" font-size="10" lengthAdjust="spacing" textLength="89" x="762" y="705.6091">bo4e.enum.sparte</text></g><!--class Vertrag--><g id="elem_Vertrag"><rect codeLine="3" fill="#F1F1F1" height="127.4219" id="Vertrag" rx="2.5" ry="2.5" style="stroke:#181818;stroke-width:0.5;" width="482" x="7" y="303.29"/><ellipse cx="204.75" cy="322.2588" fill="#ADD1B2" rx="11" ry="11" style="stroke:#181818;stroke-width:1.0;"/><path d="M207.7188,327.8994 Q207.1406,328.1963 206.5,328.3369 Q205.8594,328.4931 205.1563,328.4931 Q202.6563,328.4931 201.3281,326.8525 Q200.0156,325.1963 200.0156,322.0713 Q200.0156,318.9463 201.3281,317.29 Q202.6563,315.6338 205.1563,315.6338 Q205.8594,315.6338 206.5,315.79 Q207.1563,315.9463 207.7188,316.2431 L207.7188,318.9619 Q207.0938,318.3838 206.5,318.1181 Q205.9063,317.8369 205.2813,317.8369 Q203.9375,317.8369 203.25,318.915 Q202.5625,319.9775 202.5625,322.0713 Q202.5625,324.165 203.25,325.2431 Q203.9375,326.3056 205.2813,326.3056 Q205.9063,326.3056 206.5,326.04 Q207.0938,325.7588 207.7188,325.1806 L207.7188,327.8994 Z " fill="#000000"/><a href="https://bo4e.github.io/BO4E-python/latest/api/bo4e.bo.html#bo4e.bo.vertrag.Vertrag" target="_top" title="https://bo4e.github.io/BO4E-python/latest/api/bo4e.bo.html#bo4e.bo.vertrag.Vertrag" xlink:actuate="onRequest" xlink:href="https://bo4e.github.io/BO4E-python/latest/api/bo4e.bo.html#bo4e.bo.vertrag.Vertrag" xlink:show="new" xlink:title="https://bo4e.github.io/BO4E-python/latest/api/bo4e.bo.html#bo4e.bo.vertrag.Vertrag" xlink:type="simple"><text fill="#0000FF" font-family="sans-serif" font-size="14" lengthAdjust="spacing" text-decoration="underline" textLength="50" x="239.25" y="321.2851">Vertrag</text></a><text fill="#000000" font-family="sans-serif" font-size="10" lengthAdjust="spacing" textLength="78" x="225.25" y="333.8691">bo4e.bo.vertrag</text><line style="stroke:#181818;stroke-width:0.5;" x1="8" x2="488" y1="341.2275" y2="341.2275"/><text fill="#000000" font-family="sans-serif" font-size="14" lengthAdjust="spacing" textLength="470" x="13" y="358.2226">_typ : Literal[&lt;BoTyp.VERTRAG: 'VERTRAG'&gt;] [1] = BoTyp.VERTRAG</text><text fill="#000000" font-family="sans-serif" font-size="14" lengthAdjust="spacing" textLength="242" x="13" y="374.5195">vertragsnummer : str [0..1] = None</text><text fill="#000000" font-family="sans-serif" font-size="14" lengthAdjust="spacing" textLength="319" x="13" y="390.8164">vertragsbeginn : AwareDatetime [0..1] = None</text><text fill="#000000" font-family="sans-serif" font-size="14" lengthAdjust="spacing" textLength="307" x="13" y="407.1132">vertragsende : AwareDatetime [0..1] = None</text><text fill="#000000" font-family="sans-serif" font-size="14" lengthAdjust="spacing" textLength="224" x="13" y="423.4101">beschreibung : str [0..1] = None</text></g><!--link Vertrag to Geschaeftsobjekt--><g id="link_Vertrag_Geschaeftsobjekt"><path codeLine="26" d="M312.72,302.81 C364.04,254.92 440.36,191.82 519,156 C581.5,127.53 640.9245,116.2766 697.3845,110.1666 " fill="none" id="Vertrag-to-Geschaeftsobjekt" style="stroke:#181818;stroke-width:1.0;"/><polygon fill="none" points="715.28,108.23,696.7389,104.2014,698.03,116.1318,715.28,108.23" style="stroke:#181818;stroke-width:1.0;"/></g><!--link Vertrag to Vertragsart--><g id="link_Vertrag_Vertragsart"><path codeLine="27" d="M426.2,431.15 C457.06,442 488.91,452.98 519,463 C589.88,486.61 660.2819,508.3125 715.8419,525.0825 " fill="none" id="Vertrag-to-Vertragsart" style="stroke:#181818;stroke-width:1.0;"/><polygon fill="#181818" points="727.33,528.55,722.7418,522.9869,715.8419,525.0825,720.4301,530.6456,727.33,528.55" style="stroke:#181818;stroke-width:1.0;"/><text fill="#000000" font-family="sans-serif" font-size="13" lengthAdjust="spacing" textLength="71" x="548" y="459.0669">vertragsart</text><text fill="#000000" font-family="sans-serif" font-size="13" lengthAdjust="spacing" textLength="24" x="688.9174" y="520.6605">0..1</text></g><!--link Vertrag to Vertragsstatus--><g id="link_Vertrag_Vertragsstatus"><path codeLine="28" d="M347.21,431.07 C397.52,462.55 460.37,499.87 519,529 C577.76,558.19 593.79,563.16 656,584 C674.86,590.32 683.8737,593.1796 703.2137,598.4596 " fill="none" id="Vertrag-to-Vertragsstatus" style="stroke:#181818;stroke-width:1.0;"/><polygon fill="#181818" points="714.79,601.62,710.0553,596.181,703.2137,598.4596,707.9483,603.8986,714.79,601.62" style="stroke:#181818;stroke-width:1.0;"/><text fill="#000000" font-family="sans-serif" font-size="13" lengthAdjust="spacing" textLength="93" x="537" y="525.0669">vertragsstatus</text><text fill="#000000" font-family="sans-serif" font-size="13" lengthAdjust="spacing" textLength="24" x="680.8686" y="595.7543">0..1</text></g><!--link Vertrag to Sparte--><g id="link_Vertrag_Sparte"><path codeLine="29" d="M308.12,431.14 C359.62,483.93 438.48,557.68 519,606 C574.71,639.43 594.14,637.15 656,657 C680.9,664.99 697.0959,669.683 721.0859,676.003 " fill="none" id="Vertrag-to-Sparte" style="stroke:#181818;stroke-width:1.0;"/><polygon fill="#181818" points="732.69,679.06,727.907,673.6635,721.0859,676.003,725.869,681.3995,732.69,679.06" style="stroke:#181818;stroke-width:1.0;"/><text fill="#000000" font-family="sans-serif" font-size="13" lengthAdjust="spacing" textLength="41" x="563" y="602.0669">sparte</text><text fill="#000000" font-family="sans-serif" font-size="13" lengthAdjust="spacing" textLength="24" x="701.1815" y="690.3666">0..1</text></g><!--link Vertrag to Geschaeftspartner--><g id="link_Vertrag_Geschaeftspartner"><path codeLine="30" d="M334.62,302.95 C385.53,268.3 452.89,228.16 519,206 C581.5,185.05 644.0984,178.4195 699.5884,176.3395 " fill="none" id="Vertrag-to-Geschaeftspartner" style="stroke:#181818;stroke-width:1.0;"/><polygon fill="#181818" points="711.58,175.89,705.4344,172.1176,699.5884,176.3395,705.734,180.1119,711.58,175.89" style="stroke:#181818;stroke-width:1.0;"/><text fill="#000000" font-family="sans-serif" font-size="13" lengthAdjust="spacing" textLength="108" x="529.5" y="177.0669">vertragspartner1</text><text fill="#000000" font-family="sans-serif" font-size="13" lengthAdjust="spacing" textLength="24" x="680.0958" y="188.5512">0..1</text></g><!--link Vertrag to Geschaeftspartner--><g id="link_Vertrag_Geschaeftspartner"><path codeLine="31" d="M441.77,302.82 C507.38,280.57 581.05,255.14 648,231 C679.69,219.57 703.8449,210.451 731.6449,199.721 " fill="none" id="Vertrag-to-Geschaeftspartner-1" style="stroke:#181818;stroke-width:1.0;"/><polygon fill="#181818" points="742.84,195.4,735.8022,193.8288,731.6449,199.721,738.6828,201.2922,742.84,195.4" style="stroke:#181818;stroke-width:1.0;"/><text fill="#000000" font-family="sans-serif" font-size="13" lengthAdjust="spacing" textLength="108" x="529.5" y="227.0669">vertragspartner2</text><text fill="#000000" font-family="sans-serif" font-size="13" lengthAdjust="spacing" textLength="24" x="701.2169" y="215.0515">0..1</text></g><!--link Vertrag to Vertragsteil--><g id="link_Vertrag_Vertragsteil"><path codeLine="32" d="M489.35,401.19 C541.73,404.31 596.8,404.28 648,398 C674.82,394.71 692.2277,391.2115 717.1577,384.5415 " fill="none" id="Vertrag-to-Vertragsteil" style="stroke:#181818;stroke-width:1.0;"/><polygon fill="#181818" points="728.75,381.44,721.92,379.1267,717.1577,384.5415,723.9877,386.8548,728.75,381.44" style="stroke:#181818;stroke-width:1.0;"/><text fill="#000000" font-family="sans-serif" font-size="13" lengthAdjust="spacing" textLength="80" x="543.5" y="394.0669">vertragsteile</text><text fill="#000000" font-family="sans-serif" font-size="13" lengthAdjust="spacing" textLength="23" x="693.5977" y="397.8112">0..*</text></g><!--link Vertrag to Vertragskonditionen--><g id="link_Vertrag_Vertragskonditionen"><path codeLine="33" d="M489.24,424.78 C499.27,426.36 509.22,427.78 519,429 C580.39,436.64 638.1104,438.1606 691.7904,437.7106 " fill="none" id="Vertrag-to-Vertragskonditionen" style="stroke:#181818;stroke-width:1.0;"/><polygon fill="#181818" points="703.79,437.61,697.7567,433.6604,691.7904,437.7106,697.8237,441.6602,703.79,437.61" style="stroke:#181818;stroke-width:1.0;"/><text fill="#000000" font-family="sans-serif" font-size="13" lengthAdjust="spacing" textLength="127" x="520" y="425.0669">vertragskonditionen</text><text fill="#000000" font-family="sans-serif" font-size="13" lengthAdjust="spacing" textLength="24" x="672.0028" y="450.4561">0..1</text></g><!--link Vertrag to Unterschrift--><g id="link_Vertrag_Unterschrift"><path codeLine="34" d="M489.21,324.43 C499.27,322.89 509.23,321.4 519,320 C588.42,310.03 656.1817,302.5256 711.5717,296.8856 " fill="none" id="Vertrag-to-Unterschrift" style="stroke:#181818;stroke-width:1.0;"/><polygon fill="#181818" points="723.51,295.67,717.1357,292.2984,711.5717,296.8856,717.9461,300.2572,723.51,295.67" style="stroke:#181818;stroke-width:1.0;"/><text fill="#000000" font-family="sans-serif" font-size="13" lengthAdjust="spacing" textLength="111" x="528" y="300.0669">unterzeichnervp1</text><text fill="#000000" font-family="sans-serif" font-size="13" lengthAdjust="spacing" textLength="23" x="692.9976" y="309.0494">0..*</text></g><!--link Vertrag to Unterschrift--><g id="link_Vertrag_Unterschrift"><path codeLine="35" d="M489.32,374.45 C557.53,372.11 620.7,364.23 648,345 C655.49,339.72 649.1,332.03 656,326 C674.67,309.68 688.1256,303.027 711.7856,297.867 " fill="none" id="Vertrag-to-Unterschrift-1" style="stroke:#181818;stroke-width:1.0;"/><polygon fill="#181818" points="723.51,295.31,716.7955,292.6803,711.7856,297.867,718.5001,300.4966,723.51,295.31" style="stroke:#181818;stroke-width:1.0;"/><text fill="#000000" font-family="sans-serif" font-size="13" lengthAdjust="spacing" textLength="111" x="528" y="341.0669">unterzeichnervp2</text><text fill="#000000" font-family="sans-serif" font-size="13" lengthAdjust="spacing" textLength="23" x="692.9976" y="292.2734">0..*</text></g><!--SRC=[jLRVRvim47ukVyKfF5Ig599qNLUXBbAoHdsPDgdh-fAXoP0BU0M3iDCgtVQ_pu01GtvD8dcolzDtzdTtveuGbm9432dr0m4Bcg8dQCmCmmi9vz2RpmCX4cuF1cvyXPPFHR1oBHeFfb-lPlraBOAO3K8Ya8i1IMZ1ScCh455ebk05Kv4IttegLb2hu_nWjvo-eJqQZblS7X1Uyk2tSVPJh1EmuJCLc99mVZkD7zU9zJHxU7oOtDjmhdRdOmVc8mS-GeDWdAbZELj54QRo92vIc0yjAoT_YHdM71TzofZaJ5v9YdSoE44ZtCL6ji13N1Uv5wH8tHNpjzxzrp0OYP0dnCDkIGS572TFeK9WJg_lFankibGUix9-5XYHRuZ7xYzy5jPzom1jmzQYju_9fRSzJwKy8QbWc6hIbGKsB0V4ArPBlRBA6dSjiHT7Meqbqeii8PYpuUJc-bFNAfVtc1LQCVdTPM-OBeNrNGEWWytqj7rpkRhBiOMMNwL06fRz9WUWW-r2TL-z_-I6KmbzZjc2PYqNMQLNiy4Mstxr6h4HX6O_mbD4sKYrjvX1_J5c6Cp5o7ltldFFgQuoQrW6Ap-jAcjo3zf-CqjjpqPw93wTJ2w8MF5AQG6X2G_eBKWDoONf-AhpZeNMjto1OjcXhg3cgWfUDicgET_l_ncN4sXZCjGqoRk0NZOFU_NhQPJL1gri_-keibpxgdmTS5TXoobT1BIRtWYgd1drTSeowdp2vPOJBdfLrs-skTexW_lawwvwnwbFq5l6VWcDaM13tlBVa7g1bF-IZ3fvNnf6GEK_LeIHAsa63-9Ng0vSKWmN_1y0]--></g></svg>