<?xml version="1.0" encoding="us-ascii" standalone="no"?><svg xmlns="http://www.w3.org/2000/svg" xmlns:xlink="http://www.w3.org/1999/xlink" contentStyleType="text/css" height="760px" preserveAspectRatio="none" style="width:779px;height:760px;background:#FFFFFF;" version="1.1" viewBox="0 0 779 760" width="779px" zoomAndPan="magnify"><defs/><g><!--cluster bo4e--><g id="cluster_bo4e"><path d="M515.5,6 L556.5,6 A3.75,3.75 0 0 1 559,8.5 L566,28.2969 L769.5,28.2969 A2.5,2.5 0 0 1 772,30.7969 L772,750.5 A2.5,2.5 0 0 1 769.5,753 L515.5,753 A2.5,2.5 0 0 1 513,750.5 L513,8.5 A2.5,2.5 0 0 1 515.5,6 " fill="none" style="stroke:#000000;stroke-width:1.5;"/><line style="stroke:#000000;stroke-width:1.5;" x1="513" x2="566" y1="28.2969" y2="28.2969"/><text fill="#000000" font-family="sans-serif" font-size="14" font-weight="bold" lengthAdjust="spacing" textLength="40" x="517" y="20.9951">bo4e</text></g><!--cluster bo--><g id="cluster_bo"><path d="M547.5,49 L613.5,49 A3.75,3.75 0 0 1 616,51.5 L623,71.2969 L737.5,71.2969 A2.5,2.5 0 0 1 740,73.7969 L740,208.5 A2.5,2.5 0 0 1 737.5,211 L547.5,211 A2.5,2.5 0 0 1 545,208.5 L545,51.5 A2.5,2.5 0 0 1 547.5,49 " fill="#B6D7A8" style="stroke:#000000;stroke-width:1.5;"/><line style="stroke:#000000;stroke-width:1.5;" x1="545" x2="623" y1="71.2969" y2="71.2969"/><a href="https://bo4e.github.io/BO4E-python/latest/api/bo4e.bo.html" target="_top" title="https://bo4e.github.io/BO4E-python/latest/api/bo4e.bo.html" xlink:actuate="onRequest" xlink:href="https://bo4e.github.io/BO4E-python/latest/api/bo4e.bo.html" xlink:show="new" xlink:title="https://bo4e.github.io/BO4E-python/latest/api/bo4e.bo.html" xlink:type="simple"><text fill="#0000FF" font-family="sans-serif" font-size="14" font-weight="bold" lengthAdjust="spacing" text-decoration="underline" textLength="65" x="549" y="63.9951">bo4e.bo</text></a></g><!--cluster com--><g id="cluster_com"><path d="M539.5,235 L618.5,235 A3.75,3.75 0 0 1 621,237.5 L628,257.2969 L745.5,257.2969 A2.5,2.5 0 0 1 748,259.7969 L748,467.5 A2.5,2.5 0 0 1 745.5,470 L539.5,470 A2.5,2.5 0 0 1 537,467.5 L537,237.5 A2.5,2.5 0 0 1 539.5,235 " fill="#E0A86C" style="stroke:#000000;stroke-width:1.5;"/><line style="stroke:#000000;stroke-width:1.5;" x1="537" x2="628" y1="257.2969" y2="257.2969"/><a href="https://bo4e.github.io/BO4E-python/latest/api/bo4e.com.html" target="_top" title="https://bo4e.github.io/BO4E-python/latest/api/bo4e.com.html" xlink:actuate="onRequest" xlink:href="https://bo4e.github.io/BO4E-python/latest/api/bo4e.com.html" xlink:show="new" xlink:title="https://bo4e.github.io/BO4E-python/latest/api/bo4e.com.html" xlink:type="simple"><text fill="#0000FF" font-family="sans-serif" font-size="14" font-weight="bold" lengthAdjust="spacing" text-decoration="underline" textLength="78" x="541" y="249.9951">bo4e.com</text></a></g><!--cluster enum--><g id="cluster_enum"><path d="M548.5,494 L638.5,494 A3.75,3.75 0 0 1 641,496.5 L648,516.2969 L736.5,516.2969 A2.5,2.5 0 0 1 739,518.7969 L739,726.5 A2.5,2.5 0 0 1 736.5,729 L548.5,729 A2.5,2.5 0 0 1 546,726.5 L546,496.5 A2.5,2.5 0 0 1 548.5,494 " fill="#D1C358" style="stroke:#000000;stroke-width:1.5;"/><line style="stroke:#000000;stroke-width:1.5;" x1="546" x2="648" y1="516.2969" y2="516.2969"/><a href="https://bo4e.github.io/BO4E-python/latest/api/bo4e.enum.html" target="_top" title="https://bo4e.github.io/BO4E-python/latest/api/bo4e.enum.html" xlink:actuate="onRequest" xlink:href="https://bo4e.github.io/BO4E-python/latest/api/bo4e.enum.html" xlink:show="new" xlink:title="https://bo4e.github.io/BO4E-python/latest/api/bo4e.enum.html" xlink:type="simple"><text fill="#0000FF" font-family="sans-serif" font-size="14" font-weight="bold" lengthAdjust="spacing" text-decoration="underline" textLength="89" x="550" y="508.9951">bo4e.enum</text></a></g><!--class Geschaeftspartner--><g id="elem_Geschaeftspartner"><rect codeLine="11" fill="#F1F1F1" height="37.9375" id="Geschaeftspartner" rx="2.5" ry="2.5" style="stroke:#181818;stroke-width:0.5;" width="163" x="561" y="84.03"/><ellipse cx="576" cy="102.9987" fill="#ADD1B2" rx="11" ry="11" style="stroke:#181818;stroke-width:1.0;"/><path d="M578.9688,108.6394 Q578.3906,108.9362 577.75,109.0769 Q577.1094,109.2331 576.4063,109.2331 Q573.9063,109.2331 572.5781,107.5925 Q571.2656,105.9362 571.2656,102.8112 Q571.2656,99.6862 572.5781,98.03 Q573.9063,96.3737 576.4063,96.3737 Q577.1094,96.3737 577.75,96.53 Q578.4063,96.6862 578.9688,96.9831 L578.9688,99.7019 Q578.3438,99.1237 577.75,98.8581 Q577.1563,98.5769 576.5313,98.5769 Q575.1875,98.5769 574.5,99.655 Q573.8125,100.7175 573.8125,102.8112 Q573.8125,104.905 574.5,105.9831 Q575.1875,107.0456 576.5313,107.0456 Q577.1563,107.0456 577.75,106.78 Q578.3438,106.4987 578.9688,105.9206 L578.9688,108.6394 Z " fill="#000000"/><a href="https://bo4e.github.io/BO4E-python/latest/api/bo4e.bo.html#bo4e.bo.geschaeftspartner.Geschaeftspartner" target="_top" title="https://bo4e.github.io/BO4E-python/latest/api/bo4e.bo.html#bo4e.bo.geschaeftspartner.Geschaeftspartner" xlink:actuate="onRequest" xlink:href="https://bo4e.github.io/BO4E-python/latest/api/bo4e.bo.html#bo4e.bo.geschaeftspartner.Geschaeftspartner" xlink:show="new" xlink:title="https://bo4e.github.io/BO4E-python/latest/api/bo4e.bo.html#bo4e.bo.geschaeftspartner.Geschaeftspartner" xlink:type="simple"><text fill="#0000FF" font-family="sans-serif" font-size="14" lengthAdjust="spacing" text-decoration="underline" textLength="129" x="591" y="102.0251">Geschaeftspartner</text></a><text fill="#000000" font-family="sans-serif" font-size="10" lengthAdjust="spacing" textLength="131" x="590" y="114.6091">bo4e.bo.geschaeftspartner</text></g><!--class Geschaeftsobjekt--><g id="elem_Geschaeftsobjekt"><rect codeLine="12" fill="#F1F1F1" height="37.9375" id="Geschaeftsobjekt" rx="2.5" ry="2.5" style="stroke:#181818;stroke-width:0.5;" width="156" x="564.5" y="157.03"/><ellipse cx="579.5" cy="175.9987" fill="#ADD1B2" rx="11" ry="11" style="stroke:#181818;stroke-width:1.0;"/><path d="M582.4688,181.6394 Q581.8906,181.9362 581.25,182.0769 Q580.6094,182.2331 579.9063,182.2331 Q577.4063,182.2331 576.0781,180.5925 Q574.7656,178.9362 574.7656,175.8112 Q574.7656,172.6862 576.0781,171.03 Q577.4063,169.3737 579.9063,169.3737 Q580.6094,169.3737 581.25,169.53 Q581.9063,169.6862 582.4688,169.9831 L582.4688,172.7019 Q581.8438,172.1237 581.25,171.8581 Q580.6563,171.5769 580.0313,171.5769 Q578.6875,171.5769 578,172.655 Q577.3125,173.7175 577.3125,175.8112 Q577.3125,177.905 578,178.9831 Q578.6875,180.0456 580.0313,180.0456 Q580.6563,180.0456 581.25,179.78 Q581.8438,179.4987 582.4688,178.9206 L582.4688,181.6394 Z " fill="#000000"/><a href="https://bo4e.github.io/BO4E-python/latest/api/bo4e.bo.html#bo4e.bo.geschaeftsobjekt.Geschaeftsobjekt" target="_top" title="https://bo4e.github.io/BO4E-python/latest/api/bo4e.bo.html#bo4e.bo.geschaeftsobjekt.Geschaeftsobjekt" xlink:actuate="onRequest" xlink:href="https://bo4e.github.io/BO4E-python/latest/api/bo4e.bo.html#bo4e.bo.geschaeftsobjekt.Geschaeftsobjekt" xlink:show="new" xlink:title="https://bo4e.github.io/BO4E-python/latest/api/bo4e.bo.html#bo4e.bo.geschaeftsobjekt.Geschaeftsobjekt" xlink:type="simple"><text fill="#0000FF" font-family="sans-serif" font-size="14" lengthAdjust="spacing" text-decoration="underline" textLength="122" x="594.5" y="175.0251">Geschaeftsobjekt</text></a><text fill="#000000" font-family="sans-serif" font-size="10" lengthAdjust="spacing" textLength="124" x="593.5" y="187.6091">bo4e.bo.geschaeftsobjekt</text></g><!--class Vertragsteil--><g id="elem_Vertragsteil"><rect codeLine="15" fill="#F1F1F1" height="37.9375" id="Vertragsteil" rx="2.5" ry="2.5" style="stroke:#181818;stroke-width:0.5;" width="138" x="573.5" y="270.03"/><ellipse cx="588.5" cy="288.9988" fill="#ADD1B2" rx="11" ry="11" style="stroke:#181818;stroke-width:1.0;"/><path d="M591.4688,294.6394 Q590.8906,294.9363 590.25,295.0769 Q589.6094,295.2331 588.9063,295.2331 Q586.4063,295.2331 585.0781,293.5925 Q583.7656,291.9363 583.7656,288.8113 Q583.7656,285.6863 585.0781,284.03 Q586.4063,282.3738 588.9063,282.3738 Q589.6094,282.3738 590.25,282.53 Q590.9063,282.6863 591.4688,282.9831 L591.4688,285.7019 Q590.8438,285.1238 590.25,284.8581 Q589.6563,284.5769 589.0313,284.5769 Q587.6875,284.5769 587,285.655 Q586.3125,286.7175 586.3125,288.8113 Q586.3125,290.905 587,291.9831 Q587.6875,293.0456 589.0313,293.0456 Q589.6563,293.0456 590.25,292.78 Q590.8438,292.4988 591.4688,291.9206 L591.4688,294.6394 Z " fill="#000000"/><a href="https://bo4e.github.io/BO4E-python/latest/api/bo4e.com.html#bo4e.com.vertragsteil.Vertragsteil" target="_top" title="https://bo4e.github.io/BO4E-python/latest/api/bo4e.com.html#bo4e.com.vertragsteil.Vertragsteil" xlink:actuate="onRequest" xlink:href="https://bo4e.github.io/BO4E-python/latest/api/bo4e.com.html#bo4e.com.vertragsteil.Vertragsteil" xlink:show="new" xlink:title="https://bo4e.github.io/BO4E-python/latest/api/bo4e.com.html#bo4e.com.vertragsteil.Vertragsteil" xlink:type="simple"><text fill="#0000FF" font-family="sans-serif" font-size="14" lengthAdjust="spacing" text-decoration="underline" textLength="78" x="616.5" y="288.0251">Vertragsteil</text></a><text fill="#000000" font-family="sans-serif" font-size="10" lengthAdjust="spacing" textLength="106" x="602.5" y="300.6091">bo4e.com.vertragsteil</text></g><!--class Vertragskonditionen--><g id="elem_Vertragskonditionen"><rect codeLine="16" fill="#F1F1F1" height="37.9375" id="Vertragskonditionen" rx="2.5" ry="2.5" style="stroke:#181818;stroke-width:0.5;" width="179" x="553" y="343.03"/><ellipse cx="568" cy="361.9988" fill="#ADD1B2" rx="11" ry="11" style="stroke:#181818;stroke-width:1.0;"/><path d="M570.9688,367.6394 Q570.3906,367.9363 569.75,368.0769 Q569.1094,368.2331 568.4063,368.2331 Q565.9063,368.2331 564.5781,366.5925 Q563.2656,364.9363 563.2656,361.8113 Q563.2656,358.6863 564.5781,357.03 Q565.9063,355.3738 568.4063,355.3738 Q569.1094,355.3738 569.75,355.53 Q570.4063,355.6863 570.9688,355.9831 L570.9688,358.7019 Q570.3438,358.1238 569.75,357.8581 Q569.1563,357.5769 568.5313,357.5769 Q567.1875,357.5769 566.5,358.655 Q565.8125,359.7175 565.8125,361.8113 Q565.8125,363.905 566.5,364.9831 Q567.1875,366.0456 568.5313,366.0456 Q569.1563,366.0456 569.75,365.78 Q570.3438,365.4988 570.9688,364.9206 L570.9688,367.6394 Z " fill="#000000"/><a href="https://bo4e.github.io/BO4E-python/latest/api/bo4e.com.html#bo4e.com.vertragskonditionen.Vertragskonditionen" target="_top" title="https://bo4e.github.io/BO4E-python/latest/api/bo4e.com.html#bo4e.com.vertragskonditionen.Vertragskonditionen" xlink:actuate="onRequest" xlink:href="https://bo4e.github.io/BO4E-python/latest/api/bo4e.com.html#bo4e.com.vertragskonditionen.Vertragskonditionen" xlink:show="new" xlink:title="https://bo4e.github.io/BO4E-python/latest/api/bo4e.com.html#bo4e.com.vertragskonditionen.Vertragskonditionen" xlink:type="simple"><text fill="#0000FF" font-family="sans-serif" font-size="14" lengthAdjust="spacing" text-decoration="underline" textLength="140" x="585.5" y="361.0251">Vertragskonditionen</text></a><text fill="#000000" font-family="sans-serif" font-size="10" lengthAdjust="spacing" textLength="147" x="582" y="373.6091">bo4e.com.vertragskonditionen</text></g><!--class Unterschrift--><g id="elem_Unterschrift"><rect codeLine="17" fill="#F1F1F1" height="37.9375" id="Unterschrift" rx="2.5" ry="2.5" style="stroke:#181818;stroke-width:0.5;" width="139" x="573" y="416.03"/><ellipse cx="588" cy="434.9988" fill="#ADD1B2" rx="11" ry="11" style="stroke:#181818;stroke-width:1.0;"/><path d="M590.9688,440.6394 Q590.3906,440.9363 589.75,441.0769 Q589.1094,441.2331 588.4063,441.2331 Q585.9063,441.2331 584.5781,439.5925 Q583.2656,437.9363 583.2656,434.8113 Q583.2656,431.6863 584.5781,430.03 Q585.9063,428.3738 588.4063,428.3738 Q589.1094,428.3738 589.75,428.53 Q590.4063,428.6863 590.9688,428.9831 L590.9688,431.7019 Q590.3438,431.1238 589.75,430.8581 Q589.1563,430.5769 588.5313,430.5769 Q587.1875,430.5769 586.5,431.655 Q585.8125,432.7175 585.8125,434.8113 Q585.8125,436.905 586.5,437.9831 Q587.1875,439.0456 588.5313,439.0456 Q589.1563,439.0456 589.75,438.78 Q590.3438,438.4988 590.9688,437.9206 L590.9688,440.6394 Z " fill="#000000"/><a href="https://bo4e.github.io/BO4E-python/latest/api/bo4e.com.html#bo4e.com.unterschrift.Unterschrift" target="_top" title="https://bo4e.github.io/BO4E-python/latest/api/bo4e.com.html#bo4e.com.unterschrift.Unterschrift" xlink:actuate="onRequest" xlink:href="https://bo4e.github.io/BO4E-python/latest/api/bo4e.com.html#bo4e.com.unterschrift.Unterschrift" xlink:show="new" xlink:title="https://bo4e.github.io/BO4E-python/latest/api/bo4e.com.html#bo4e.com.unterschrift.Unterschrift" xlink:type="simple"><text fill="#0000FF" font-family="sans-serif" font-size="14" lengthAdjust="spacing" text-decoration="underline" textLength="80" x="615.5" y="434.0251">Unterschrift</text></a><text fill="#000000" font-family="sans-serif" font-size="10" lengthAdjust="spacing" textLength="107" x="602" y="446.6091">bo4e.com.unterschrift</text></g><!--class Vertragsart--><g id="elem_Vertragsart"><rect codeLine="20" fill="#F1F1F1" height="37.9375" id="Vertragsart" rx="2.5" ry="2.5" style="stroke:#181818;stroke-width:0.5;" width="145" x="570" y="529.03"/><ellipse cx="585" cy="547.9988" fill="#ADD1B2" rx="11" ry="11" style="stroke:#181818;stroke-width:1.0;"/><path d="M587.9688,553.6394 Q587.3906,553.9363 586.75,554.0769 Q586.1094,554.2331 585.4063,554.2331 Q582.9063,554.2331 581.5781,552.5925 Q580.2656,550.9363 580.2656,547.8113 Q580.2656,544.6863 581.5781,543.03 Q582.9063,541.3738 585.4063,541.3738 Q586.1094,541.3738 586.75,541.53 Q587.4063,541.6863 587.9688,541.9831 L587.9688,544.7019 Q587.3438,544.1238 586.75,543.8581 Q586.1563,543.5769 585.5313,543.5769 Q584.1875,543.5769 583.5,544.655 Q582.8125,545.7175 582.8125,547.8113 Q582.8125,549.905 583.5,550.9831 Q584.1875,552.0456 585.5313,552.0456 Q586.1563,552.0456 586.75,551.78 Q587.3438,551.4988 587.9688,550.9206 L587.9688,553.6394 Z " fill="#000000"/><a href="https://bo4e.github.io/BO4E-python/latest/api/bo4e.enum.html#bo4e.enum.vertragsart.Vertragsart" target="_top" title="https://bo4e.github.io/BO4E-python/latest/api/bo4e.enum.html#bo4e.enum.vertragsart.Vertragsart" xlink:actuate="onRequest" xlink:href="https://bo4e.github.io/BO4E-python/latest/api/bo4e.enum.html#bo4e.enum.vertragsart.Vertragsart" xlink:show="new" xlink:title="https://bo4e.github.io/BO4E-python/latest/api/bo4e.enum.html#bo4e.enum.vertragsart.Vertragsart" xlink:type="simple"><text fill="#0000FF" font-family="sans-serif" font-size="14" lengthAdjust="spacing" text-decoration="underline" textLength="76" x="617.5" y="547.0251">Vertragsart</text></a><text fill="#000000" font-family="sans-serif" font-size="10" lengthAdjust="spacing" textLength="113" x="599" y="559.6091">bo4e.enum.vertragsart</text></g><!--class Vertragsstatus--><g id="elem_Vertragsstatus"><rect codeLine="21" fill="#F1F1F1" height="37.9375" id="Vertragsstatus" rx="2.5" ry="2.5" style="stroke:#181818;stroke-width:0.5;" width="161" x="562" y="602.03"/><ellipse cx="577" cy="620.9988" fill="#ADD1B2" rx="11" ry="11" style="stroke:#181818;stroke-width:1.0;"/><path d="M579.9688,626.6394 Q579.3906,626.9363 578.75,627.0769 Q578.1094,627.2331 577.4063,627.2331 Q574.9063,627.2331 573.5781,625.5925 Q572.2656,623.9363 572.2656,620.8113 Q572.2656,617.6863 573.5781,616.03 Q574.9063,614.3738 577.4063,614.3738 Q578.1094,614.3738 578.75,614.53 Q579.4063,614.6863 579.9688,614.9831 L579.9688,617.7019 Q579.3438,617.1238 578.75,616.8581 Q578.1563,616.5769 577.5313,616.5769 Q576.1875,616.5769 575.5,617.655 Q574.8125,618.7175 574.8125,620.8113 Q574.8125,622.905 575.5,623.9831 Q576.1875,625.0456 577.5313,625.0456 Q578.1563,625.0456 578.75,624.78 Q579.3438,624.4988 579.9688,623.9206 L579.9688,626.6394 Z " fill="#000000"/><a href="https://bo4e.github.io/BO4E-python/latest/api/bo4e.enum.html#bo4e.enum.vertragsstatus.Vertragsstatus" target="_top" title="https://bo4e.github.io/BO4E-python/latest/api/bo4e.enum.html#bo4e.enum.vertragsstatus.Vertragsstatus" xlink:actuate="onRequest" xlink:href="https://bo4e.github.io/BO4E-python/latest/api/bo4e.enum.html#bo4e.enum.vertragsstatus.Vertragsstatus" xlink:show="new" xlink:title="https://bo4e.github.io/BO4E-python/latest/api/bo4e.enum.html#bo4e.enum.vertragsstatus.Vertragsstatus" xlink:type="simple"><text fill="#0000FF" font-family="sans-serif" font-size="14" lengthAdjust="spacing" text-decoration="underline" textLength="101" x="605" y="620.0251">Vertragsstatus</text></a><text fill="#000000" font-family="sans-serif" font-size="10" lengthAdjust="spacing" textLength="129" x="591" y="632.6091">bo4e.enum.vertragsstatus</text></g><!--class Sparte--><g id="elem_Sparte"><rect codeLine="22" fill="#F1F1F1" height="37.9375" id="Sparte" rx="2.5" ry="2.5" style="stroke:#181818;stroke-width:0.5;" width="121" x="582" y="675.03"/><ellipse cx="597" cy="693.9988" fill="#ADD1B2" rx="11" ry="11" style="stroke:#181818;stroke-width:1.0;"/><path d="M599.9688,699.6394 Q599.3906,699.9363 598.75,700.0769 Q598.1094,700.2331 597.4063,700.2331 Q594.9063,700.2331 593.5781,698.5925 Q592.2656,696.9363 592.2656,693.8113 Q592.2656,690.6863 593.5781,689.03 Q594.9063,687.3738 597.4063,687.3738 Q598.1094,687.3738 598.75,687.53 Q599.4063,687.6863 599.9688,687.9831 L599.9688,690.7019 Q599.3438,690.1238 598.75,689.8581 Q598.1563,689.5769 597.5313,689.5769 Q596.1875,689.5769 595.5,690.655 Q594.8125,691.7175 594.8125,693.8113 Q594.8125,695.905 595.5,696.9831 Q596.1875,698.0456 597.5313,698.0456 Q598.1563,698.0456 598.75,697.78 Q599.3438,697.4988 599.9688,696.9206 L599.9688,699.6394 Z " fill="#000000"/><a href="https://bo4e.github.io/BO4E-python/latest/api/bo4e.enum.html#bo4e.enum.sparte.Sparte" target="_top" title="https://bo4e.github.io/BO4E-python/latest/api/bo4e.enum.html#bo4e.enum.sparte.Sparte" xlink:actuate="onRequest" xlink:href="https://bo4e.github.io/BO4E-python/latest/api/bo4e.enum.html#bo4e.enum.sparte.Sparte" xlink:show="new" xlink:title="https://bo4e.github.io/BO4E-python/latest/api/bo4e.enum.html#bo4e.enum.sparte.Sparte" xlink:type="simple"><text fill="#0000FF" font-family="sans-serif" font-size="14" lengthAdjust="spacing" text-decoration="underline" textLength="45" x="633" y="693.0251">Sparte</text></a><text fill="#000000" font-family="sans-serif" font-size="10" lengthAdjust="spacing" textLength="89" x="611" y="705.6091">bo4e.enum.sparte</text></g><!--class Vertrag--><g id="elem_Vertrag"><rect codeLine="3" fill="#F1F1F1" height="111.125" id="Vertrag" rx="2.5" ry="2.5" style="stroke:#181818;stroke-width:0.5;" width="331" x="7" y="333.44"/><ellipse cx="129.25" cy="352.4088" fill="#ADD1B2" rx="11" ry="11" style="stroke:#181818;stroke-width:1.0;"/><path d="M132.2188,358.0494 Q131.6406,358.3463 131,358.4869 Q130.3594,358.6431 129.6563,358.6431 Q127.1563,358.6431 125.8281,357.0025 Q124.5156,355.3463 124.5156,352.2213 Q124.5156,349.0963 125.8281,347.44 Q127.1563,345.7838 129.6563,345.7838 Q130.3594,345.7838 131,345.94 Q131.6563,346.0963 132.2188,346.3931 L132.2188,349.1119 Q131.5938,348.5338 131,348.2681 Q130.4063,347.9869 129.7813,347.9869 Q128.4375,347.9869 127.75,349.065 Q127.0625,350.1275 127.0625,352.2213 Q127.0625,354.315 127.75,355.3931 Q128.4375,356.4556 129.7813,356.4556 Q130.4063,356.4556 131,356.19 Q131.5938,355.9088 132.2188,355.3306 L132.2188,358.0494 Z " fill="#000000"/><a href="https://bo4e.github.io/BO4E-python/latest/api/bo4e.bo.html#bo4e.bo.vertrag.Vertrag" target="_top" title="https://bo4e.github.io/BO4E-python/latest/api/bo4e.bo.html#bo4e.bo.vertrag.Vertrag" xlink:actuate="onRequest" xlink:href="https://bo4e.github.io/BO4E-python/latest/api/bo4e.bo.html#bo4e.bo.vertrag.Vertrag" xlink:show="new" xlink:title="https://bo4e.github.io/BO4E-python/latest/api/bo4e.bo.html#bo4e.bo.vertrag.Vertrag" xlink:type="simple"><text fill="#0000FF" font-family="sans-serif" font-size="14" lengthAdjust="spacing" text-decoration="underline" textLength="50" x="163.75" y="351.4351">Vertrag</text></a><text fill="#000000" font-family="sans-serif" font-size="10" lengthAdjust="spacing" textLength="78" x="149.75" y="364.0191">bo4e.bo.vertrag</text><line style="stroke:#181818;stroke-width:0.5;" x1="8" x2="337" y1="371.3775" y2="371.3775"/><text fill="#000000" font-family="sans-serif" font-size="14" lengthAdjust="spacing" textLength="242" x="13" y="388.3726">vertragsnummer : str [0..1] = None</text><text fill="#000000" font-family="sans-serif" font-size="14" lengthAdjust="spacing" textLength="319" x="13" y="404.6695">vertragsbeginn : AwareDatetime [0..1] = None</text><text fill="#000000" font-family="sans-serif" font-size="14" lengthAdjust="spacing" textLength="307" x="13" y="420.9664">vertragsende : AwareDatetime [0..1] = None</text><text fill="#000000" font-family="sans-serif" font-size="14" lengthAdjust="spacing" textLength="224" x="13" y="437.2632">beschreibung : str [0..1] = None</text></g><!--link Vertrag to Geschaeftsobjekt--><g id="link_Vertrag_Geschaeftsobjekt"><path codeLine="25" d="M287.56,332.94 C313.88,320.26 341.84,307.01 368,295 C447.3,258.6 524.1246,225.5783 578.7046,202.4683 " fill="none" id="Vertrag-to-Geschaeftsobjekt" style="stroke:#181818;stroke-width:1.0;"/><polygon fill="none" points="595.28,195.45,576.3652,196.9431,581.044,207.9934,595.28,195.45" style="stroke:#181818;stroke-width:1.0;"/></g><!--link Vertrag to Vertragsart--><g id="link_Vertrag_Vertragsart"><path codeLine="26" d="M290.53,445.04 C315.77,456.09 342.53,467.02 368,476 C435.14,499.68 502.2768,516.9338 558.0068,529.7838 " fill="none" id="Vertrag-to-Vertragsart" style="stroke:#181818;stroke-width:1.0;"/><polygon fill="#181818" points="569.7,532.48,564.7521,527.2342,558.0068,529.7838,562.9547,535.0296,569.7,532.48" style="stroke:#181818;stroke-width:1.0;"/><text fill="#000000" font-family="sans-serif" font-size="13" lengthAdjust="spacing" textLength="71" x="397" y="472.0669">vertragsart</text><text fill="#000000" font-family="sans-serif" font-size="13" lengthAdjust="spacing" textLength="24" x="537.8825" y="543.8138">0..1</text></g><!--link Vertrag to Vertragsstatus--><g id="link_Vertrag_Vertragsstatus"><path codeLine="27" d="M234.58,444.84 C271.14,475.95 319.77,513.45 368,539 C424.63,569 443.61,565.61 505,584 C524.99,589.99 535.1777,592.9416 555.3277,598.4016 " fill="none" id="Vertrag-to-Vertragsstatus" style="stroke:#181818;stroke-width:1.0;"/><polygon fill="#181818" points="566.91,601.54,562.165,596.11,555.3277,598.4016,560.0727,603.8316,566.91,601.54" style="stroke:#181818;stroke-width:1.0;"/><text fill="#000000" font-family="sans-serif" font-size="13" lengthAdjust="spacing" textLength="93" x="386" y="535.0669">vertragsstatus</text><text fill="#000000" font-family="sans-serif" font-size="13" lengthAdjust="spacing" textLength="24" x="530.0452" y="594.6571">0..1</text></g><!--link Vertrag to Sparte--><g id="link_Vertrag_Sparte"><path codeLine="28" d="M211.56,444.95 C247.05,493.41 304.04,562.41 368,606 C433.54,650.66 511.381,671.5495 569.891,682.6695 " fill="none" id="Vertrag-to-Sparte" style="stroke:#181818;stroke-width:1.0;"/><polygon fill="#181818" points="581.68,684.91,576.5324,679.8601,569.891,682.6695,575.0387,687.7194,581.68,684.91" style="stroke:#181818;stroke-width:1.0;"/><text fill="#000000" font-family="sans-serif" font-size="13" lengthAdjust="spacing" textLength="41" x="412" y="602.0669">sparte</text><text fill="#000000" font-family="sans-serif" font-size="13" lengthAdjust="spacing" textLength="24" x="550.1704" y="696.8199">0..1</text></g><!--link Vertrag to Geschaeftspartner--><g id="link_Vertrag_Geschaeftspartner"><path codeLine="29" d="M201.75,333.05 C233.81,275.82 291.71,189.2 368,145 C426.51,111.11 491.3543,102.1101 548.6943,100.5801 " fill="none" id="Vertrag-to-Geschaeftspartner" style="stroke:#181818;stroke-width:1.0;"/><polygon fill="#181818" points="560.69,100.26,554.5854,96.4215,548.6943,100.5801,554.7988,104.4186,560.69,100.26" style="stroke:#181818;stroke-width:1.0;"/><text fill="#000000" font-family="sans-serif" font-size="13" lengthAdjust="spacing" textLength="108" x="378.5" y="102.0669">vertragspartner1</text><text fill="#000000" font-family="sans-serif" font-size="13" lengthAdjust="spacing" textLength="24" x="528.9214" y="96.4845">0..1</text></g><!--link Vertrag to Geschaeftspartner--><g id="link_Vertrag_Geschaeftspartner"><path codeLine="30" d="M241.92,333.01 C278.4,304.17 324.61,269.23 368,241 C422.86,205.31 456.66,221.53 497,170 C505.51,159.13 495.26,149.78 505,140 C519.9,125.04 528.5984,119.054 548.9884,113.594 " fill="none" id="Vertrag-to-Geschaeftspartner-1" style="stroke:#181818;stroke-width:1.0;"/><polygon fill="#181818" points="560.58,110.49,553.7495,108.1781,548.9884,113.594,555.8189,115.9059,560.58,110.49" style="stroke:#181818;stroke-width:1.0;"/><text fill="#000000" font-family="sans-serif" font-size="13" lengthAdjust="spacing" textLength="108" x="378.5" y="166.0669">vertragspartner2</text><text fill="#000000" font-family="sans-serif" font-size="13" lengthAdjust="spacing" textLength="24" x="529.0958" y="123.7568">0..1</text></g><!--link Vertrag to Vertragsteil--><g id="link_Vertrag_Vertragsteil"><path codeLine="31" d="M338.47,352.38 C348.46,350.21 358.36,348.07 368,346 C437.83,331.01 506.0566,316.8203 561.4166,305.4203 " fill="none" id="Vertrag-to-Vertragsteil" style="stroke:#181818;stroke-width:1.0;"/><polygon fill="#181818" points="573.17,303,566.4865,300.2924,561.4166,305.4203,568.1001,308.128,573.17,303" style="stroke:#181818;stroke-width:1.0;"/><text fill="#000000" font-family="sans-serif" font-size="13" lengthAdjust="spacing" textLength="80" x="392.5" y="316.0669">vertragsteile</text><text fill="#000000" font-family="sans-serif" font-size="13" lengthAdjust="spacing" textLength="23" x="542.4659" y="317.1226">0..*</text></g><!--link Vertrag to Vertragskonditionen--><g id="link_Vertrag_Vertragskonditionen"><path codeLine="32" d="M338.5,379.48 C410.61,375.32 480.33,371.3025 540.71,367.8125 " fill="none" id="Vertrag-to-Vertragskonditionen" style="stroke:#181818;stroke-width:1.0;"/><polygon fill="#181818" points="552.69,367.12,546.4692,363.4729,540.71,367.8125,546.9308,371.4596,552.69,367.12" style="stroke:#181818;stroke-width:1.0;"/><text fill="#000000" font-family="sans-serif" font-size="13" lengthAdjust="spacing" textLength="127" x="369" y="367.0669">vertragskonditionen</text><text fill="#000000" font-family="sans-serif" font-size="13" lengthAdjust="spacing" textLength="24" x="520.8952" y="380.1583">0..1</text></g><!--link Vertrag to Unterschrift--><g id="link_Vertrag_Unterschrift"><path codeLine="33" d="M338.5,405.22 C418.9,413.12 499.2875,421.0271 560.6875,427.0571 " fill="none" id="Vertrag-to-Unterschrift" style="stroke:#181818;stroke-width:1.0;"/><polygon fill="#181818" points="572.63,428.23,567.0497,423.6627,560.6875,427.0571,566.2678,431.6244,572.63,428.23" style="stroke:#181818;stroke-width:1.0;"/><text fill="#000000" font-family="sans-serif" font-size="13" lengthAdjust="spacing" textLength="111" x="377" y="406.0669">unterzeichnervp1</text><text fill="#000000" font-family="sans-serif" font-size="13" lengthAdjust="spacing" textLength="23" x="541.8744" y="440.3729">0..*</text></g><!--link Vertrag to Unterschrift--><g id="link_Vertrag_Unterschrift"><path codeLine="34" d="M338.32,440.77 C348.3,442.83 358.25,444.6 368,446 C424.75,454.14 439.71,448.18 497,446 C521.76,445.06 536.8979,444.1628 560.8779,442.2528 " fill="none" id="Vertrag-to-Unterschrift-1" style="stroke:#181818;stroke-width:1.0;"/><polygon fill="#181818" points="572.84,441.3,566.5413,437.789,560.8779,442.2528,567.1765,445.7638,572.84,441.3" style="stroke:#181818;stroke-width:1.0;"/><text fill="#000000" font-family="sans-serif" font-size="13" lengthAdjust="spacing" textLength="111" x="377" y="442.0669">unterzeichnervp2</text><text fill="#000000" font-family="sans-serif" font-size="13" lengthAdjust="spacing" textLength="23" x="542.1044" y="454.6887">0..*</text></g><!--SRC=[jLRBRjim43nNNx6GRW4isscQ1aORm6c2tjf3qLvS7oHvBR6HI8DS9sZQ_dieKGzAygE0x1CrYrbok4lFEiKr0GcGB4u8LanYH4nmnudIG2bm5uk4QADcut4ehj2F6INRq6TYVFVrwc6q-Ks9uECq85Gq3ZRCi4BX9vIbNWMUK98COl-7MQ5SbykV_8DYBpYRJcuxN1S2LV7WZ_Ec32k-pJAKC0D54XOJtvykuIDy4HmRJeWnurnpvi-1n7ijZbY6-zZ8LtYC6wAA4eaitF9uvzd_78S76QfD4E6mea49bikY12K2x-xw_lty9Y_5AJiJvnSBz1lGoYLnbFxdRWHwaPrzw-rKoE_bdak-27_X8rdgJG2wWIFQ3QaZtGHrZuUsE1APrMEDx2Ph2Dx3P7vp_Mbebwjpl1fLZvsGfTNFi01WWtvnkhdspx88d4lee-0hbZiHybgl5OCTiSFgBMBh4bRyr7VPSaAP6mTRa__T0c23tRBjt4AldNA2fuZQIAstc4FxCUOOlDKqUljkiEVKHtaDhBgYJQ5kh_u6wxjVbsvcguyQdq-cee2sgbPg8BJX4Rs6r99iGgTNNNWj-j-A1SooHvsX5geCBvzazPmUZVxULXEePwqDJVCkmCtdeTkydbPRPs2rxNyJooetkMMzZgINrzPJsbneFxrrgMhQDSULaUdW7Ivtx73XrgxVzkCcEuU7vDkfjZKsEzZUTbX2ovrcKBZF2x8eqVAVDjD1sPUEap3z7ol3BDGqHoNY6UeDrmpJbNe5]--></g></svg>