<?xml version="1.0" encoding="us-ascii" standalone="no"?><svg xmlns="http://www.w3.org/2000/svg" xmlns:xlink="http://www.w3.org/1999/xlink" contentStyleType="text/css" height="1052px" preserveAspectRatio="none" style="width:812px;height:1052px;background:#FFFFFF;" version="1.1" viewBox="0 0 812 1052" width="812px" zoomAndPan="magnify"><defs/><g><!--cluster bo4e--><g id="cluster_bo4e"><path d="M527.5,6 L568.5,6 A3.75,3.75 0 0 1 571,8.5 L578,28.2969 L802.5,28.2969 A2.5,2.5 0 0 1 805,30.7969 L805,1042.5 A2.5,2.5 0 0 1 802.5,1045 L527.5,1045 A2.5,2.5 0 0 1 525,1042.5 L525,8.5 A2.5,2.5 0 0 1 527.5,6 " fill="none" style="stroke:#000000;stroke-width:1.5;"/><line style="stroke:#000000;stroke-width:1.5;" x1="525" x2="578" y1="28.2969" y2="28.2969"/><text fill="#000000" font-family="sans-serif" font-size="14" font-weight="bold" lengthAdjust="spacing" textLength="40" x="529" y="20.9951">bo4e</text></g><!--cluster bo--><g id="cluster_bo"><path d="M570,49 L636,49 A3.75,3.75 0 0 1 638.5,51.5 L645.5,71.2969 L760,71.2969 A2.5,2.5 0 0 1 762.5,73.7969 L762.5,281.5 A2.5,2.5 0 0 1 760,284 L570,284 A2.5,2.5 0 0 1 567.5,281.5 L567.5,51.5 A2.5,2.5 0 0 1 570,49 " fill="#B6D7A8" style="stroke:#000000;stroke-width:1.5;"/><line style="stroke:#000000;stroke-width:1.5;" x1="567.5" x2="645.5" y1="71.2969" y2="71.2969"/><a href="https://bo4e.github.io/BO4E-python/latest/api/bo4e.bo.html" target="_top" title="https://bo4e.github.io/BO4E-python/latest/api/bo4e.bo.html" xlink:actuate="onRequest" xlink:href="https://bo4e.github.io/BO4E-python/latest/api/bo4e.bo.html" xlink:show="new" xlink:title="https://bo4e.github.io/BO4E-python/latest/api/bo4e.bo.html" xlink:type="simple"><text fill="#0000FF" font-family="sans-serif" font-size="14" font-weight="bold" lengthAdjust="spacing" text-decoration="underline" textLength="65" x="571.5" y="63.9951">bo4e.bo</text></a></g><!--cluster com--><g id="cluster_com"><path d="M586,308 L665,308 A3.75,3.75 0 0 1 667.5,310.5 L674.5,330.2969 L744,330.2969 A2.5,2.5 0 0 1 746.5,332.7969 L746.5,394.5 A2.5,2.5 0 0 1 744,397 L586,397 A2.5,2.5 0 0 1 583.5,394.5 L583.5,310.5 A2.5,2.5 0 0 1 586,308 " fill="#E0A86C" style="stroke:#000000;stroke-width:1.5;"/><line style="stroke:#000000;stroke-width:1.5;" x1="583.5" x2="674.5" y1="330.2969" y2="330.2969"/><a href="https://bo4e.github.io/BO4E-python/latest/api/bo4e.com.html" target="_top" title="https://bo4e.github.io/BO4E-python/latest/api/bo4e.com.html" xlink:actuate="onRequest" xlink:href="https://bo4e.github.io/BO4E-python/latest/api/bo4e.com.html" xlink:show="new" xlink:title="https://bo4e.github.io/BO4E-python/latest/api/bo4e.com.html" xlink:type="simple"><text fill="#0000FF" font-family="sans-serif" font-size="14" font-weight="bold" lengthAdjust="spacing" text-decoration="underline" textLength="78" x="587.5" y="322.9951">bo4e.com</text></a></g><!--cluster enum--><g id="cluster_enum"><path d="M551.5,421 L641.5,421 A3.75,3.75 0 0 1 644,423.5 L651,443.2969 L778.5,443.2969 A2.5,2.5 0 0 1 781,445.7969 L781,1018.5 A2.5,2.5 0 0 1 778.5,1021 L551.5,1021 A2.5,2.5 0 0 1 549,1018.5 L549,423.5 A2.5,2.5 0 0 1 551.5,421 " fill="#D1C358" style="stroke:#000000;stroke-width:1.5;"/><line style="stroke:#000000;stroke-width:1.5;" x1="549" x2="651" y1="443.2969" y2="443.2969"/><a href="https://bo4e.github.io/BO4E-python/latest/api/bo4e.enum.html" target="_top" title="https://bo4e.github.io/BO4E-python/latest/api/bo4e.enum.html" xlink:actuate="onRequest" xlink:href="https://bo4e.github.io/BO4E-python/latest/api/bo4e.enum.html" xlink:show="new" xlink:title="https://bo4e.github.io/BO4E-python/latest/api/bo4e.enum.html" xlink:type="simple"><text fill="#0000FF" font-family="sans-serif" font-size="14" font-weight="bold" lengthAdjust="spacing" text-decoration="underline" textLength="89" x="553" y="435.9951">bo4e.enum</text></a></g><!--class Geschaeftsobjekt--><g id="elem_Geschaeftsobjekt"><rect codeLine="12" fill="#F1F1F1" height="37.9375" id="Geschaeftsobjekt" rx="2.5" ry="2.5" style="stroke:#181818;stroke-width:0.5;" width="156" x="587" y="84.03"/><ellipse cx="602" cy="102.9987" fill="#ADD1B2" rx="11" ry="11" style="stroke:#181818;stroke-width:1.0;"/><path d="M604.9688,108.6394 Q604.3906,108.9362 603.75,109.0769 Q603.1094,109.2331 602.4063,109.2331 Q599.9063,109.2331 598.5781,107.5925 Q597.2656,105.9362 597.2656,102.8112 Q597.2656,99.6862 598.5781,98.03 Q599.9063,96.3737 602.4063,96.3737 Q603.1094,96.3737 603.75,96.53 Q604.4063,96.6862 604.9688,96.9831 L604.9688,99.7019 Q604.3438,99.1237 603.75,98.8581 Q603.1563,98.5769 602.5313,98.5769 Q601.1875,98.5769 600.5,99.655 Q599.8125,100.7175 599.8125,102.8112 Q599.8125,104.905 600.5,105.9831 Q601.1875,107.0456 602.5313,107.0456 Q603.1563,107.0456 603.75,106.78 Q604.3438,106.4987 604.9688,105.9206 L604.9688,108.6394 Z " fill="#000000"/><a href="https://bo4e.github.io/BO4E-python/latest/api/bo4e.bo.html#bo4e.bo.geschaeftsobjekt.Geschaeftsobjekt" target="_top" title="https://bo4e.github.io/BO4E-python/latest/api/bo4e.bo.html#bo4e.bo.geschaeftsobjekt.Geschaeftsobjekt" xlink:actuate="onRequest" xlink:href="https://bo4e.github.io/BO4E-python/latest/api/bo4e.bo.html#bo4e.bo.geschaeftsobjekt.Geschaeftsobjekt" xlink:show="new" xlink:title="https://bo4e.github.io/BO4E-python/latest/api/bo4e.bo.html#bo4e.bo.geschaeftsobjekt.Geschaeftsobjekt" xlink:type="simple"><text fill="#0000FF" font-family="sans-serif" font-size="14" lengthAdjust="spacing" text-decoration="underline" textLength="122" x="617" y="102.0251">Geschaeftsobjekt</text></a><text fill="#000000" font-family="sans-serif" font-size="10" lengthAdjust="spacing" textLength="124" x="616" y="114.6091">bo4e.bo.geschaeftsobjekt</text></g><!--class Geschaeftspartner--><g id="elem_Geschaeftspartner"><rect codeLine="13" fill="#F1F1F1" height="37.9375" id="Geschaeftspartner" rx="2.5" ry="2.5" style="stroke:#181818;stroke-width:0.5;" width="163" x="583.5" y="157.03"/><ellipse cx="598.5" cy="175.9987" fill="#ADD1B2" rx="11" ry="11" style="stroke:#181818;stroke-width:1.0;"/><path d="M601.4688,181.6394 Q600.8906,181.9362 600.25,182.0769 Q599.6094,182.2331 598.9063,182.2331 Q596.4063,182.2331 595.0781,180.5925 Q593.7656,178.9362 593.7656,175.8112 Q593.7656,172.6862 595.0781,171.03 Q596.4063,169.3737 598.9063,169.3737 Q599.6094,169.3737 600.25,169.53 Q600.9063,169.6862 601.4688,169.9831 L601.4688,172.7019 Q600.8438,172.1237 600.25,171.8581 Q599.6563,171.5769 599.0313,171.5769 Q597.6875,171.5769 597,172.655 Q596.3125,173.7175 596.3125,175.8112 Q596.3125,177.905 597,178.9831 Q597.6875,180.0456 599.0313,180.0456 Q599.6563,180.0456 600.25,179.78 Q600.8438,179.4987 601.4688,178.9206 L601.4688,181.6394 Z " fill="#000000"/><a href="https://bo4e.github.io/BO4E-python/latest/api/bo4e.bo.html#bo4e.bo.geschaeftspartner.Geschaeftspartner" target="_top" title="https://bo4e.github.io/BO4E-python/latest/api/bo4e.bo.html#bo4e.bo.geschaeftspartner.Geschaeftspartner" xlink:actuate="onRequest" xlink:href="https://bo4e.github.io/BO4E-python/latest/api/bo4e.bo.html#bo4e.bo.geschaeftspartner.Geschaeftspartner" xlink:show="new" xlink:title="https://bo4e.github.io/BO4E-python/latest/api/bo4e.bo.html#bo4e.bo.geschaeftspartner.Geschaeftspartner" xlink:type="simple"><text fill="#0000FF" font-family="sans-serif" font-size="14" lengthAdjust="spacing" text-decoration="underline" textLength="129" x="613.5" y="175.0251">Geschaeftspartner</text></a><text fill="#000000" font-family="sans-serif" font-size="10" lengthAdjust="spacing" textLength="131" x="612.5" y="187.6091">bo4e.bo.geschaeftspartner</text></g><!--class Geraet--><g id="elem_Geraet"><rect codeLine="14" fill="#F1F1F1" height="37.9375" id="Geraet" rx="2.5" ry="2.5" style="stroke:#181818;stroke-width:0.5;" width="106" x="612" y="230.03"/><ellipse cx="627" cy="248.9987" fill="#ADD1B2" rx="11" ry="11" style="stroke:#181818;stroke-width:1.0;"/><path d="M629.9688,254.6394 Q629.3906,254.9362 628.75,255.0769 Q628.1094,255.2331 627.4063,255.2331 Q624.9063,255.2331 623.5781,253.5925 Q622.2656,251.9362 622.2656,248.8112 Q622.2656,245.6862 623.5781,244.03 Q624.9063,242.3737 627.4063,242.3737 Q628.1094,242.3737 628.75,242.53 Q629.4063,242.6862 629.9688,242.9831 L629.9688,245.7019 Q629.3438,245.1237 628.75,244.8581 Q628.1563,244.5769 627.5313,244.5769 Q626.1875,244.5769 625.5,245.655 Q624.8125,246.7175 624.8125,248.8112 Q624.8125,250.905 625.5,251.9831 Q626.1875,253.0456 627.5313,253.0456 Q628.1563,253.0456 628.75,252.78 Q629.3438,252.4987 629.9688,251.9206 L629.9688,254.6394 Z " fill="#000000"/><a href="https://bo4e.github.io/BO4E-python/latest/api/bo4e.bo.html#bo4e.bo.geraet.Geraet" target="_top" title="https://bo4e.github.io/BO4E-python/latest/api/bo4e.bo.html#bo4e.bo.geraet.Geraet" xlink:actuate="onRequest" xlink:href="https://bo4e.github.io/BO4E-python/latest/api/bo4e.bo.html#bo4e.bo.geraet.Geraet" xlink:show="new" xlink:title="https://bo4e.github.io/BO4E-python/latest/api/bo4e.bo.html#bo4e.bo.geraet.Geraet" xlink:type="simple"><text fill="#0000FF" font-family="sans-serif" font-size="14" lengthAdjust="spacing" text-decoration="underline" textLength="47" x="654.5" y="248.0251">Geraet</text></a><text fill="#000000" font-family="sans-serif" font-size="10" lengthAdjust="spacing" textLength="74" x="641" y="260.6091">bo4e.bo.geraet</text></g><!--class Zaehlwerk--><g id="elem_Zaehlwerk"><rect codeLine="17" fill="#F1F1F1" height="37.9375" id="Zaehlwerk" rx="2.5" ry="2.5" style="stroke:#181818;stroke-width:0.5;" width="131" x="599.5" y="343.03"/><ellipse cx="614.5" cy="361.9988" fill="#ADD1B2" rx="11" ry="11" style="stroke:#181818;stroke-width:1.0;"/><path d="M617.4688,367.6394 Q616.8906,367.9363 616.25,368.0769 Q615.6094,368.2331 614.9063,368.2331 Q612.4063,368.2331 611.0781,366.5925 Q609.7656,364.9363 609.7656,361.8113 Q609.7656,358.6863 611.0781,357.03 Q612.4063,355.3738 614.9063,355.3738 Q615.6094,355.3738 616.25,355.53 Q616.9063,355.6863 617.4688,355.9831 L617.4688,358.7019 Q616.8438,358.1238 616.25,357.8581 Q615.6563,357.5769 615.0313,357.5769 Q613.6875,357.5769 613,358.655 Q612.3125,359.7175 612.3125,361.8113 Q612.3125,363.905 613,364.9831 Q613.6875,366.0456 615.0313,366.0456 Q615.6563,366.0456 616.25,365.78 Q616.8438,365.4988 617.4688,364.9206 L617.4688,367.6394 Z " fill="#000000"/><a href="https://bo4e.github.io/BO4E-python/latest/api/bo4e.com.html#bo4e.com.zaehlwerk.Zaehlwerk" target="_top" title="https://bo4e.github.io/BO4E-python/latest/api/bo4e.com.html#bo4e.com.zaehlwerk.Zaehlwerk" xlink:actuate="onRequest" xlink:href="https://bo4e.github.io/BO4E-python/latest/api/bo4e.com.html#bo4e.com.zaehlwerk.Zaehlwerk" xlink:show="new" xlink:title="https://bo4e.github.io/BO4E-python/latest/api/bo4e.com.html#bo4e.com.zaehlwerk.Zaehlwerk" xlink:type="simple"><text fill="#0000FF" font-family="sans-serif" font-size="14" lengthAdjust="spacing" text-decoration="underline" textLength="72" x="642" y="361.0251">Zaehlwerk</text></a><text fill="#000000" font-family="sans-serif" font-size="10" lengthAdjust="spacing" textLength="99" x="628.5" y="373.6091">bo4e.com.zaehlwerk</text></g><!--class Befestigungsart--><g id="elem_Befestigungsart"><rect codeLine="20" fill="#F1F1F1" height="37.9375" id="Befestigungsart" rx="2.5" ry="2.5" style="stroke:#181818;stroke-width:0.5;" width="166" x="582" y="456.03"/><ellipse cx="597" cy="474.9988" fill="#ADD1B2" rx="11" ry="11" style="stroke:#181818;stroke-width:1.0;"/><path d="M599.9688,480.6394 Q599.3906,480.9363 598.75,481.0769 Q598.1094,481.2331 597.4063,481.2331 Q594.9063,481.2331 593.5781,479.5925 Q592.2656,477.9363 592.2656,474.8113 Q592.2656,471.6863 593.5781,470.03 Q594.9063,468.3738 597.4063,468.3738 Q598.1094,468.3738 598.75,468.53 Q599.4063,468.6863 599.9688,468.9831 L599.9688,471.7019 Q599.3438,471.1238 598.75,470.8581 Q598.1563,470.5769 597.5313,470.5769 Q596.1875,470.5769 595.5,471.655 Q594.8125,472.7175 594.8125,474.8113 Q594.8125,476.905 595.5,477.9831 Q596.1875,479.0456 597.5313,479.0456 Q598.1563,479.0456 598.75,478.78 Q599.3438,478.4988 599.9688,477.9206 L599.9688,480.6394 Z " fill="#000000"/><a href="https://bo4e.github.io/BO4E-python/latest/api/bo4e.enum.html#bo4e.enum.befestigungsart.Befestigungsart" target="_top" title="https://bo4e.github.io/BO4E-python/latest/api/bo4e.enum.html#bo4e.enum.befestigungsart.Befestigungsart" xlink:actuate="onRequest" xlink:href="https://bo4e.github.io/BO4E-python/latest/api/bo4e.enum.html#bo4e.enum.befestigungsart.Befestigungsart" xlink:show="new" xlink:title="https://bo4e.github.io/BO4E-python/latest/api/bo4e.enum.html#bo4e.enum.befestigungsart.Befestigungsart" xlink:type="simple"><text fill="#0000FF" font-family="sans-serif" font-size="14" lengthAdjust="spacing" text-decoration="underline" textLength="110" x="623" y="474.0251">Befestigungsart</text></a><text fill="#000000" font-family="sans-serif" font-size="10" lengthAdjust="spacing" textLength="134" x="611" y="486.6091">bo4e.enum.befestigungsart</text></g><!--class Zaehlertyp--><g id="elem_Zaehlertyp"><rect codeLine="21" fill="#F1F1F1" height="37.9375" id="Zaehlertyp" rx="2.5" ry="2.5" style="stroke:#181818;stroke-width:0.5;" width="141" x="594.5" y="529.03"/><ellipse cx="609.5" cy="547.9988" fill="#ADD1B2" rx="11" ry="11" style="stroke:#181818;stroke-width:1.0;"/><path d="M612.4688,553.6394 Q611.8906,553.9363 611.25,554.0769 Q610.6094,554.2331 609.9063,554.2331 Q607.4063,554.2331 606.0781,552.5925 Q604.7656,550.9363 604.7656,547.8113 Q604.7656,544.6863 606.0781,543.03 Q607.4063,541.3738 609.9063,541.3738 Q610.6094,541.3738 611.25,541.53 Q611.9063,541.6863 612.4688,541.9831 L612.4688,544.7019 Q611.8438,544.1238 611.25,543.8581 Q610.6563,543.5769 610.0313,543.5769 Q608.6875,543.5769 608,544.655 Q607.3125,545.7175 607.3125,547.8113 Q607.3125,549.905 608,550.9831 Q608.6875,552.0456 610.0313,552.0456 Q610.6563,552.0456 611.25,551.78 Q611.8438,551.4988 612.4688,550.9206 L612.4688,553.6394 Z " fill="#000000"/><a href="https://bo4e.github.io/BO4E-python/latest/api/bo4e.enum.html#bo4e.enum.zaehlertyp.Zaehlertyp" target="_top" title="https://bo4e.github.io/BO4E-python/latest/api/bo4e.enum.html#bo4e.enum.zaehlertyp.Zaehlertyp" xlink:actuate="onRequest" xlink:href="https://bo4e.github.io/BO4E-python/latest/api/bo4e.enum.html#bo4e.enum.zaehlertyp.Zaehlertyp" xlink:show="new" xlink:title="https://bo4e.github.io/BO4E-python/latest/api/bo4e.enum.html#bo4e.enum.zaehlertyp.Zaehlertyp" xlink:type="simple"><text fill="#0000FF" font-family="sans-serif" font-size="14" lengthAdjust="spacing" text-decoration="underline" textLength="74" x="641" y="547.0251">Zaehlertyp</text></a><text fill="#000000" font-family="sans-serif" font-size="10" lengthAdjust="spacing" textLength="109" x="623.5" y="559.6091">bo4e.enum.zaehlertyp</text></g><!--class Sparte--><g id="elem_Sparte"><rect codeLine="22" fill="#F1F1F1" height="37.9375" id="Sparte" rx="2.5" ry="2.5" style="stroke:#181818;stroke-width:0.5;" width="121" x="604.5" y="602.03"/><ellipse cx="619.5" cy="620.9988" fill="#ADD1B2" rx="11" ry="11" style="stroke:#181818;stroke-width:1.0;"/><path d="M622.4688,626.6394 Q621.8906,626.9363 621.25,627.0769 Q620.6094,627.2331 619.9063,627.2331 Q617.4063,627.2331 616.0781,625.5925 Q614.7656,623.9363 614.7656,620.8113 Q614.7656,617.6863 616.0781,616.03 Q617.4063,614.3738 619.9063,614.3738 Q620.6094,614.3738 621.25,614.53 Q621.9063,614.6863 622.4688,614.9831 L622.4688,617.7019 Q621.8438,617.1238 621.25,616.8581 Q620.6563,616.5769 620.0313,616.5769 Q618.6875,616.5769 618,617.655 Q617.3125,618.7175 617.3125,620.8113 Q617.3125,622.905 618,623.9831 Q618.6875,625.0456 620.0313,625.0456 Q620.6563,625.0456 621.25,624.78 Q621.8438,624.4988 622.4688,623.9206 L622.4688,626.6394 Z " fill="#000000"/><a href="https://bo4e.github.io/BO4E-python/latest/api/bo4e.enum.html#bo4e.enum.sparte.Sparte" target="_top" title="https://bo4e.github.io/BO4E-python/latest/api/bo4e.enum.html#bo4e.enum.sparte.Sparte" xlink:actuate="onRequest" xlink:href="https://bo4e.github.io/BO4E-python/latest/api/bo4e.enum.html#bo4e.enum.sparte.Sparte" xlink:show="new" xlink:title="https://bo4e.github.io/BO4E-python/latest/api/bo4e.enum.html#bo4e.enum.sparte.Sparte" xlink:type="simple"><text fill="#0000FF" font-family="sans-serif" font-size="14" lengthAdjust="spacing" text-decoration="underline" textLength="45" x="655.5" y="620.0251">Sparte</text></a><text fill="#000000" font-family="sans-serif" font-size="10" lengthAdjust="spacing" textLength="89" x="633.5" y="632.6091">bo4e.enum.sparte</text></g><!--class Zaehlerauspraegung--><g id="elem_Zaehlerauspraegung"><rect codeLine="23" fill="#F1F1F1" height="37.9375" id="Zaehlerauspraegung" rx="2.5" ry="2.5" style="stroke:#181818;stroke-width:0.5;" width="188" x="571" y="675.03"/><ellipse cx="586" cy="693.9988" fill="#ADD1B2" rx="11" ry="11" style="stroke:#181818;stroke-width:1.0;"/><path d="M588.9688,699.6394 Q588.3906,699.9363 587.75,700.0769 Q587.1094,700.2331 586.4063,700.2331 Q583.9063,700.2331 582.5781,698.5925 Q581.2656,696.9363 581.2656,693.8113 Q581.2656,690.6863 582.5781,689.03 Q583.9063,687.3738 586.4063,687.3738 Q587.1094,687.3738 587.75,687.53 Q588.4063,687.6863 588.9688,687.9831 L588.9688,690.7019 Q588.3438,690.1238 587.75,689.8581 Q587.1563,689.5769 586.5313,689.5769 Q585.1875,689.5769 584.5,690.655 Q583.8125,691.7175 583.8125,693.8113 Q583.8125,695.905 584.5,696.9831 Q585.1875,698.0456 586.5313,698.0456 Q587.1563,698.0456 587.75,697.78 Q588.3438,697.4988 588.9688,696.9206 L588.9688,699.6394 Z " fill="#000000"/><a href="https://bo4e.github.io/BO4E-python/latest/api/bo4e.enum.html#bo4e.enum.zaehlerauspraegung.Zaehlerauspraegung" target="_top" title="https://bo4e.github.io/BO4E-python/latest/api/bo4e.enum.html#bo4e.enum.zaehlerauspraegung.Zaehlerauspraegung" xlink:actuate="onRequest" xlink:href="https://bo4e.github.io/BO4E-python/latest/api/bo4e.enum.html#bo4e.enum.zaehlerauspraegung.Zaehlerauspraegung" xlink:show="new" xlink:title="https://bo4e.github.io/BO4E-python/latest/api/bo4e.enum.html#bo4e.enum.zaehlerauspraegung.Zaehlerauspraegung" xlink:type="simple"><text fill="#0000FF" font-family="sans-serif" font-size="14" lengthAdjust="spacing" text-decoration="underline" textLength="145" x="605.5" y="693.0251">Zaehlerauspraegung</text></a><text fill="#000000" font-family="sans-serif" font-size="10" lengthAdjust="spacing" textLength="156" x="600" y="705.6091">bo4e.enum.zaehlerauspraegung</text></g><!--class ZaehlertypSpezifikation--><g id="elem_ZaehlertypSpezifikation"><rect codeLine="24" fill="#F1F1F1" height="37.9375" id="ZaehlertypSpezifikation" rx="2.5" ry="2.5" style="stroke:#181818;stroke-width:0.5;" width="200" x="565" y="748.03"/><ellipse cx="580" cy="766.9988" fill="#ADD1B2" rx="11" ry="11" style="stroke:#181818;stroke-width:1.0;"/><path d="M582.9688,772.6394 Q582.3906,772.9363 581.75,773.0769 Q581.1094,773.2331 580.4063,773.2331 Q577.9063,773.2331 576.5781,771.5925 Q575.2656,769.9363 575.2656,766.8113 Q575.2656,763.6863 576.5781,762.03 Q577.9063,760.3738 580.4063,760.3738 Q581.1094,760.3738 581.75,760.53 Q582.4063,760.6863 582.9688,760.9831 L582.9688,763.7019 Q582.3438,763.1238 581.75,762.8581 Q581.1563,762.5769 580.5313,762.5769 Q579.1875,762.5769 578.5,763.655 Q577.8125,764.7175 577.8125,766.8113 Q577.8125,768.905 578.5,769.9831 Q579.1875,771.0456 580.5313,771.0456 Q581.1563,771.0456 581.75,770.78 Q582.3438,770.4988 582.9688,769.9206 L582.9688,772.6394 Z " fill="#000000"/><a href="https://bo4e.github.io/BO4E-python/latest/api/bo4e.enum.html#bo4e.enum.zaehlertypspezifikation.ZaehlertypSpezifikation" target="_top" title="https://bo4e.github.io/BO4E-python/latest/api/bo4e.enum.html#bo4e.enum.zaehlertypspezifikation.ZaehlertypSpezifikation" xlink:actuate="onRequest" xlink:href="https://bo4e.github.io/BO4E-python/latest/api/bo4e.enum.html#bo4e.enum.zaehlertypspezifikation.ZaehlertypSpezifikation" xlink:show="new" xlink:title="https://bo4e.github.io/BO4E-python/latest/api/bo4e.enum.html#bo4e.enum.zaehlertypspezifikation.ZaehlertypSpezifikation" xlink:type="simple"><text fill="#0000FF" font-family="sans-serif" font-size="14" lengthAdjust="spacing" text-decoration="underline" textLength="161" x="597.5" y="766.0251">ZaehlertypSpezifikation</text></a><text fill="#000000" font-family="sans-serif" font-size="10" lengthAdjust="spacing" textLength="168" x="594" y="778.6091">bo4e.enum.zaehlertypspezifikation</text></g><!--class Messwerterfassung--><g id="elem_Messwerterfassung"><rect codeLine="25" fill="#F1F1F1" height="37.9375" id="Messwerterfassung" rx="2.5" ry="2.5" style="stroke:#181818;stroke-width:0.5;" width="186" x="572" y="821.03"/><ellipse cx="587" cy="839.9988" fill="#ADD1B2" rx="11" ry="11" style="stroke:#181818;stroke-width:1.0;"/><path d="M589.9688,845.6394 Q589.3906,845.9363 588.75,846.0769 Q588.1094,846.2331 587.4063,846.2331 Q584.9063,846.2331 583.5781,844.5925 Q582.2656,842.9363 582.2656,839.8113 Q582.2656,836.6863 583.5781,835.03 Q584.9063,833.3738 587.4063,833.3738 Q588.1094,833.3738 588.75,833.53 Q589.4063,833.6863 589.9688,833.9831 L589.9688,836.7019 Q589.3438,836.1238 588.75,835.8581 Q588.1563,835.5769 587.5313,835.5769 Q586.1875,835.5769 585.5,836.655 Q584.8125,837.7175 584.8125,839.8113 Q584.8125,841.905 585.5,842.9831 Q586.1875,844.0456 587.5313,844.0456 Q588.1563,844.0456 588.75,843.78 Q589.3438,843.4988 589.9688,842.9206 L589.9688,845.6394 Z " fill="#000000"/><a href="https://bo4e.github.io/BO4E-python/latest/api/bo4e.enum.html#bo4e.enum.messwerterfassung.Messwerterfassung" target="_top" title="https://bo4e.github.io/BO4E-python/latest/api/bo4e.enum.html#bo4e.enum.messwerterfassung.Messwerterfassung" xlink:actuate="onRequest" xlink:href="https://bo4e.github.io/BO4E-python/latest/api/bo4e.enum.html#bo4e.enum.messwerterfassung.Messwerterfassung" xlink:show="new" xlink:title="https://bo4e.github.io/BO4E-python/latest/api/bo4e.enum.html#bo4e.enum.messwerterfassung.Messwerterfassung" xlink:type="simple"><text fill="#0000FF" font-family="sans-serif" font-size="14" lengthAdjust="spacing" text-decoration="underline" textLength="136" x="610" y="839.0251">Messwerterfassung</text></a><text fill="#000000" font-family="sans-serif" font-size="10" lengthAdjust="spacing" textLength="154" x="601" y="851.6091">bo4e.enum.messwerterfassung</text></g><!--class Zaehlergroesse--><g id="elem_Zaehlergroesse"><rect codeLine="26" fill="#F1F1F1" height="37.9375" id="Zaehlergroesse" rx="2.5" ry="2.5" style="stroke:#181818;stroke-width:0.5;" width="163" x="583.5" y="894.03"/><ellipse cx="598.5" cy="912.9988" fill="#ADD1B2" rx="11" ry="11" style="stroke:#181818;stroke-width:1.0;"/><path d="M601.4688,918.6394 Q600.8906,918.9363 600.25,919.0769 Q599.6094,919.2331 598.9063,919.2331 Q596.4063,919.2331 595.0781,917.5925 Q593.7656,915.9363 593.7656,912.8113 Q593.7656,909.6863 595.0781,908.03 Q596.4063,906.3738 598.9063,906.3738 Q599.6094,906.3738 600.25,906.53 Q600.9063,906.6863 601.4688,906.9831 L601.4688,909.7019 Q600.8438,909.1238 600.25,908.8581 Q599.6563,908.5769 599.0313,908.5769 Q597.6875,908.5769 597,909.655 Q596.3125,910.7175 596.3125,912.8113 Q596.3125,914.905 597,915.9831 Q597.6875,917.0456 599.0313,917.0456 Q599.6563,917.0456 600.25,916.78 Q600.8438,916.4988 601.4688,915.9206 L601.4688,918.6394 Z " fill="#000000"/><a href="https://bo4e.github.io/BO4E-python/latest/api/bo4e.enum.html#bo4e.enum.zaehlergroesse.Zaehlergroesse" target="_top" title="https://bo4e.github.io/BO4E-python/latest/api/bo4e.enum.html#bo4e.enum.zaehlergroesse.Zaehlergroesse" xlink:actuate="onRequest" xlink:href="https://bo4e.github.io/BO4E-python/latest/api/bo4e.enum.html#bo4e.enum.zaehlergroesse.Zaehlergroesse" xlink:show="new" xlink:title="https://bo4e.github.io/BO4E-python/latest/api/bo4e.enum.html#bo4e.enum.zaehlergroesse.Zaehlergroesse" xlink:type="simple"><text fill="#0000FF" font-family="sans-serif" font-size="14" lengthAdjust="spacing" text-decoration="underline" textLength="110" x="623" y="912.0251">Zaehlergroesse</text></a><text fill="#000000" font-family="sans-serif" font-size="10" lengthAdjust="spacing" textLength="131" x="612.5" y="924.6091">bo4e.enum.zaehlergroesse</text></g><!--class Registeranzahl--><g id="elem_Registeranzahl"><rect codeLine="27" fill="#F1F1F1" height="37.9375" id="Registeranzahl" rx="2.5" ry="2.5" style="stroke:#181818;stroke-width:0.5;" width="158" x="586" y="967.03"/><ellipse cx="601" cy="985.9988" fill="#ADD1B2" rx="11" ry="11" style="stroke:#181818;stroke-width:1.0;"/><path d="M603.9688,991.6394 Q603.3906,991.9363 602.75,992.0769 Q602.1094,992.2331 601.4063,992.2331 Q598.9063,992.2331 597.5781,990.5925 Q596.2656,988.9363 596.2656,985.8113 Q596.2656,982.6863 597.5781,981.03 Q598.9063,979.3738 601.4063,979.3738 Q602.1094,979.3738 602.75,979.53 Q603.4063,979.6863 603.9688,979.9831 L603.9688,982.7019 Q603.3438,982.1238 602.75,981.8581 Q602.1563,981.5769 601.5313,981.5769 Q600.1875,981.5769 599.5,982.655 Q598.8125,983.7175 598.8125,985.8113 Q598.8125,987.905 599.5,988.9831 Q600.1875,990.0456 601.5313,990.0456 Q602.1563,990.0456 602.75,989.78 Q603.3438,989.4988 603.9688,988.9206 L603.9688,991.6394 Z " fill="#000000"/><a href="https://bo4e.github.io/BO4E-python/latest/api/bo4e.enum.html#bo4e.enum.registeranzahl.Registeranzahl" target="_top" title="https://bo4e.github.io/BO4E-python/latest/api/bo4e.enum.html#bo4e.enum.registeranzahl.Registeranzahl" xlink:actuate="onRequest" xlink:href="https://bo4e.github.io/BO4E-python/latest/api/bo4e.enum.html#bo4e.enum.registeranzahl.Registeranzahl" xlink:show="new" xlink:title="https://bo4e.github.io/BO4E-python/latest/api/bo4e.enum.html#bo4e.enum.registeranzahl.Registeranzahl" xlink:type="simple"><text fill="#0000FF" font-family="sans-serif" font-size="14" lengthAdjust="spacing" text-decoration="underline" textLength="103" x="626.5" y="985.0251">Registeranzahl</text></a><text fill="#000000" font-family="sans-serif" font-size="10" lengthAdjust="spacing" textLength="126" x="615" y="997.6091">bo4e.enum.registeranzahl</text></g><!--class Zaehler--><g id="elem_Zaehler"><rect codeLine="3" fill="#F1F1F1" height="127.4219" id="Zaehler" rx="2.5" ry="2.5" style="stroke:#181818;stroke-width:0.5;" width="322" x="7" y="525.29"/><ellipse cx="125.25" cy="544.2588" fill="#ADD1B2" rx="11" ry="11" style="stroke:#181818;stroke-width:1.0;"/><path d="M128.2188,549.8994 Q127.6406,550.1963 127,550.3369 Q126.3594,550.4931 125.6563,550.4931 Q123.1563,550.4931 121.8281,548.8525 Q120.5156,547.1963 120.5156,544.0713 Q120.5156,540.9463 121.8281,539.29 Q123.1563,537.6338 125.6563,537.6338 Q126.3594,537.6338 127,537.79 Q127.6563,537.9463 128.2188,538.2431 L128.2188,540.9619 Q127.5938,540.3838 127,540.1181 Q126.4063,539.8369 125.7813,539.8369 Q124.4375,539.8369 123.75,540.915 Q123.0625,541.9775 123.0625,544.0713 Q123.0625,546.165 123.75,547.2431 Q124.4375,548.3056 125.7813,548.3056 Q126.4063,548.3056 127,548.04 Q127.5938,547.7588 128.2188,547.1806 L128.2188,549.8994 Z " fill="#000000"/><a href="https://bo4e.github.io/BO4E-python/latest/api/bo4e.bo.html#bo4e.bo.zaehler.Zaehler" target="_top" title="https://bo4e.github.io/BO4E-python/latest/api/bo4e.bo.html#bo4e.bo.zaehler.Zaehler" xlink:actuate="onRequest" xlink:href="https://bo4e.github.io/BO4E-python/latest/api/bo4e.bo.html#bo4e.bo.zaehler.Zaehler" xlink:show="new" xlink:title="https://bo4e.github.io/BO4E-python/latest/api/bo4e.bo.html#bo4e.bo.zaehler.Zaehler" xlink:type="simple"><text fill="#0000FF" font-family="sans-serif" font-size="14" lengthAdjust="spacing" text-decoration="underline" textLength="53" x="157.75" y="543.2851">Zaehler</text></a><text fill="#000000" font-family="sans-serif" font-size="10" lengthAdjust="spacing" textLength="77" x="145.75" y="555.8691">bo4e.bo.zaehler</text><line style="stroke:#181818;stroke-width:0.5;" x1="8" x2="328" y1="563.2275" y2="563.2275"/><text fill="#000000" font-family="sans-serif" font-size="14" lengthAdjust="spacing" textLength="237" x="13" y="580.2226">zaehlernummer : str [0..1] = None</text><text fill="#000000" font-family="sans-serif" font-size="14" lengthAdjust="spacing" textLength="286" x="13" y="596.5195">zaehlerkonstante : Decimal [0..1] = None</text><text fill="#000000" font-family="sans-serif" font-size="14" lengthAdjust="spacing" textLength="292" x="13" y="612.8164">eichungBis : AwareDatetime [0..1] = None</text><text fill="#000000" font-family="sans-serif" font-size="14" lengthAdjust="spacing" textLength="310" x="13" y="629.1132">letzteEichung : AwareDatetime [0..1] = None</text><text fill="#000000" font-family="sans-serif" font-size="14" lengthAdjust="spacing" textLength="250" x="13" y="645.4101">istFernschaltbar : bool [0..1] = None</text></g><!--link Zaehler to Geschaeftsobjekt--><g id="link_Zaehler_Geschaeftsobjekt"><path codeLine="30" d="M181.71,524.97 C202.79,435.66 253.57,274.59 359,185 C422.93,130.68 501.4669,113.6626 568.7369,107.4226 " fill="none" id="Zaehler-to-Geschaeftsobjekt" style="stroke:#181818;stroke-width:1.0;"/><polygon fill="none" points="586.66,105.76,568.1828,101.4482,569.2911,113.3969,586.66,105.76" style="stroke:#181818;stroke-width:1.0;"/></g><!--link Zaehler to Sparte--><g id="link_Zaehler_Sparte"><path codeLine="31" d="M329.32,609.45 C339.35,610.41 349.31,611.27 359,612 C443.92,618.38 530.4505,620.1948 592.0205,620.7348 " fill="none" id="Zaehler-to-Sparte" style="stroke:#181818;stroke-width:1.0;"/><polygon fill="#181818" points="604.02,620.84,598.0553,616.7875,592.0205,620.7348,597.9852,624.7872,604.02,620.84" style="stroke:#181818;stroke-width:1.0;"/><text fill="#000000" font-family="sans-serif" font-size="13" lengthAdjust="spacing" textLength="41" x="413.5" y="608.0669">sparte</text><text fill="#000000" font-family="sans-serif" font-size="13" lengthAdjust="spacing" textLength="24" x="572.4939" y="633.6708">0..1</text></g><!--link Zaehler to Zaehlerauspraegung--><g id="link_Zaehler_Zaehlerauspraegung"><path codeLine="32" d="M329.3,637.81 C339.31,640.37 349.27,642.79 359,645 C429.35,660.95 498.0853,672.0108 558.7553,680.4808 " fill="none" id="Zaehler-to-Zaehlerauspraegung" style="stroke:#181818;stroke-width:1.0;"/><polygon fill="#181818" points="570.64,682.14,565.2507,677.3488,558.7553,680.4808,564.1446,685.272,570.64,682.14" style="stroke:#181818;stroke-width:1.0;"/><text fill="#000000" font-family="sans-serif" font-size="13" lengthAdjust="spacing" textLength="131" x="368.5" y="641.0669">zaehlerauspraegung</text><text fill="#000000" font-family="sans-serif" font-size="13" lengthAdjust="spacing" textLength="24" x="539.1616" y="693.9051">0..1</text></g><!--link Zaehler to Zaehlertyp--><g id="link_Zaehler_Zaehlertyp"><path codeLine="33" d="M329.37,575.72 C418.89,568.3 513.8709,560.4302 582.3509,554.7602 " fill="none" id="Zaehler-to-Zaehlertyp" style="stroke:#181818;stroke-width:1.0;"/><polygon fill="#181818" points="594.31,553.77,588.0004,550.2787,582.3509,554.7602,588.6605,558.2515,594.31,553.77" style="stroke:#181818;stroke-width:1.0;"/><text fill="#000000" font-family="sans-serif" font-size="13" lengthAdjust="spacing" textLength="67" x="400.5" y="558.0669">zaehlertyp</text><text fill="#000000" font-family="sans-serif" font-size="13" lengthAdjust="spacing" textLength="24" x="562.4286" y="567.1081">0..1</text></g><!--link Zaehler to Zaehlwerk--><g id="link_Zaehler_Zaehlwerk"><path codeLine="34" d="M274,524.99 C301.24,509.43 330.85,493.42 359,480 C442.79,440.04 532.6224,406.9218 594.7924,385.3618 " fill="none" id="Zaehler-to-Zaehlwerk" style="stroke:#181818;stroke-width:1.0;"/><polygon fill="#181818" points="606.13,381.43,599.1506,379.6167,594.7924,385.3618,601.7718,387.1751,606.13,381.43" style="stroke:#181818;stroke-width:1.0;"/><text fill="#000000" font-family="sans-serif" font-size="13" lengthAdjust="spacing" textLength="71" x="398.5" y="414.0669">zaehlwerke</text><text fill="#000000" font-family="sans-serif" font-size="13" lengthAdjust="spacing" textLength="23" x="568.6162" y="399.0652">0..*</text></g><!--link Zaehler to Registeranzahl--><g id="link_Zaehler_Registeranzahl"><path codeLine="35" d="M187.32,653.06 C212.77,729.94 266.46,856.85 359,924 C425.15,972 507.6088,984.4601 573.8288,987.0001 " fill="none" id="Zaehler-to-Registeranzahl" style="stroke:#181818;stroke-width:1.0;"/><polygon fill="#181818" points="585.82,987.46,579.9777,983.233,573.8288,987.0001,579.6711,991.2271,585.82,987.46" style="stroke:#181818;stroke-width:1.0;"/><text fill="#000000" font-family="sans-serif" font-size="13" lengthAdjust="spacing" textLength="91" x="388.5" y="920.0669">registeranzahl</text><text fill="#000000" font-family="sans-serif" font-size="13" lengthAdjust="spacing" textLength="24" x="553.9842" y="1000.3027">0..1</text></g><!--link Zaehler to Geschaeftspartner--><g id="link_Zaehler_Geschaeftspartner"><path codeLine="36" d="M196.05,524.86 C226.99,458.01 283.33,353.85 359,287 C422.34,231.04 504.4249,205.0101 571.2649,191.0101 " fill="none" id="Zaehler-to-Geschaeftspartner" style="stroke:#181818;stroke-width:1.0;"/><polygon fill="#181818" points="583.01,188.55,576.3174,185.865,571.2649,191.0101,577.9575,193.6951,583.01,188.55" style="stroke:#181818;stroke-width:1.0;"/><text fill="#000000" font-family="sans-serif" font-size="13" lengthAdjust="spacing" textLength="107" x="380.5" y="206.0669">zaehlerhersteller</text><text fill="#000000" font-family="sans-serif" font-size="13" lengthAdjust="spacing" textLength="24" x="551.5202" y="202.22">0..1</text></g><!--link Zaehler to Messwerterfassung--><g id="link_Zaehler_Messwerterfassung"><path codeLine="37" d="M222.27,653.06 C257.36,691.26 306.41,737.68 359,766 C425.2,801.65 496.7998,818.5439 559.6698,828.2239 " fill="none" id="Zaehler-to-Messwerterfassung" style="stroke:#181818;stroke-width:1.0;"/><polygon fill="#181818" points="571.53,830.05,566.2086,825.1835,559.6698,828.2239,564.9912,833.0904,571.53,830.05" style="stroke:#181818;stroke-width:1.0;"/><text fill="#000000" font-family="sans-serif" font-size="13" lengthAdjust="spacing" textLength="125" x="371.5" y="762.0669">messwerterfassung</text><text fill="#000000" font-family="sans-serif" font-size="13" lengthAdjust="spacing" textLength="24" x="540.1141" y="841.9494">0..1</text></g><!--link Zaehler to ZaehlertypSpezifikation--><g id="link_Zaehler_ZaehlertypSpezifikation"><path codeLine="38" d="M267.78,653.08 C296.36,669.55 328.17,685.98 359,698 C425.39,723.88 492.0685,739.2416 552.7885,750.1316 " fill="none" id="Zaehler-to-ZaehlertypSpezifikation" style="stroke:#181818;stroke-width:1.0;"/><polygon fill="#181818" points="564.6,752.25,559.4004,747.2536,552.7885,750.1316,557.9881,755.128,564.6,752.25" style="stroke:#181818;stroke-width:1.0;"/><text fill="#000000" font-family="sans-serif" font-size="13" lengthAdjust="spacing" textLength="148" x="360" y="694.0669">zaehlertypSpezifikation</text><text fill="#000000" font-family="sans-serif" font-size="13" lengthAdjust="spacing" textLength="24" x="533.0481" y="763.8343">0..1</text></g><!--link Zaehler to Befestigungsart--><g id="link_Zaehler_Befestigungsart"><path codeLine="39" d="M329.48,544.27 C339.45,541.74 349.35,539.3 359,537 C434.03,519.13 508.4323,504.1573 570.0123,492.4173 " fill="none" id="Zaehler-to-Befestigungsart" style="stroke:#181818;stroke-width:1.0;"/><polygon fill="#181818" points="581.8,490.17,575.1571,487.3644,570.0123,492.4173,576.6552,495.2229,581.8,490.17" style="stroke:#181818;stroke-width:1.0;"/><text fill="#000000" font-family="sans-serif" font-size="13" lengthAdjust="spacing" textLength="100" x="384" y="501.0669">befestigungsart</text><text fill="#000000" font-family="sans-serif" font-size="13" lengthAdjust="spacing" textLength="24" x="549.9163" y="504.1199">0..1</text></g><!--link Zaehler to Zaehlergroesse--><g id="link_Zaehler_Zaehlergroesse"><path codeLine="40" d="M200.06,652.98 C231.85,711.52 286.77,795.98 359,843 C426.5,886.94 506.1526,902.3479 571.3126,908.4679 " fill="none" id="Zaehler-to-Zaehlergroesse" style="stroke:#181818;stroke-width:1.0;"/><polygon fill="#181818" points="583.26,909.59,577.6603,905.0465,571.3126,908.4679,576.9122,913.0114,583.26,909.59" style="stroke:#181818;stroke-width:1.0;"/><text fill="#000000" font-family="sans-serif" font-size="13" lengthAdjust="spacing" textLength="98" x="385" y="839.0669">zaehlergroesse</text><text fill="#000000" font-family="sans-serif" font-size="13" lengthAdjust="spacing" textLength="24" x="551.4972" y="922.0012">0..1</text></g><!--link Zaehler to Geraet--><g id="link_Zaehler_Geraet"><path codeLine="41" d="M220.55,524.9 C256.23,483.48 306.58,430.5 359,393 C440.08,334.99 536.9495,294.5976 600.2895,271.2676 " fill="none" id="Zaehler-to-Geraet" style="stroke:#181818;stroke-width:1.0;"/><polygon fill="#181818" points="611.55,267.12,604.5373,265.4403,600.2895,271.2676,607.3023,272.9473,611.55,267.12" style="stroke:#181818;stroke-width:1.0;"/><text fill="#000000" font-family="sans-serif" font-size="13" lengthAdjust="spacing" textLength="50" x="409" y="308.0669">geraete</text><text fill="#000000" font-family="sans-serif" font-size="13" lengthAdjust="spacing" textLength="23" x="581.0402" y="282.157">0..*</text></g><!--SRC=[jLTBRzim33xFlu98RWNgj5ZN5SPMe5cxdhO1wsrT3hB3s5fjox0K5Css_rxAhyXo7GU8SvB8VA8_yIKcnfK29I3dOQHWoNCC51UfumGnan8cZu-HKfdqPZDVNA0RSXMjVPUBsVp7nTrfzg8YaSvYfb2g6SjuYVA56waadjR2Xc4KO-x-AbUeriNYT_f9yWrwvsVN5dO2JDOu-EkygzJfEab8uO5KEJoUkUxv0Zx3Tv5Y0taIgLGiLKYeMmnumc8RYJo8rcauvv8mDyyinrkwWU89siWOrKRXNOaV0dEflX956KGiLZxJD7qXxA__TvoK9IWp5k1X_eLAM2mARrKIJEUNjnzlhhJNnWnYYFfYb2vI-7_mIRdtbW9inPlnjSqKrEsJnsAUiLobb8ZtjWOwcW7o5SfYNsd7ffyprExM2vHB3plzKqL9RodN3asrG2H6hf5a9Xk9CBqxkxcw_79ejjNVcJPIKSxFLCzbsz0xQ7RT-xUERBk7baPm0rBZCVoWHTCHMeRfyZnu_-7Wkci-DTsAFgu8mqDgGf9Ip9stPR3ahdVUibBGjqwEJxtgokebgzi_RM6xxU6wFMQ-12IEpx2eMdGVYWNAfOTL2IqObRYZ-OkjPKObhEDI-yrGGLUrsuy6qFIdeJvcv6M66xxYJqoF5aOQF9XwwD4F9aZBkfKjBKlZNv6QYgGEep1VaM4Tgs-s1ZgQdWjrR1LNwPm-Mfp2ND2ti0vF9K9Rt1sC2cJ6e5ADpph7aEOjIk5qmwBO_TaIeItsi6wRA5Ytp-bPhHbQJq__NTSpLcVssS88Tm8JFV5Djcz3tLneRYtRnW3yZOhte5lAUvhH3RSvhbjezzZ9f7dHZUUsEgJtWvIj07ZGzkwEuortrlDOmpV2dAp4j1jYq2qz3pf5jR_Bsit9z5-xgGmOj9zg-azWFRdxCQhhiI5ILrP_C0l75aEZ1-LiY8uJyIMIMnAV_Eh8I3n3Os35CLxALm00]--></g></svg>