<?xml version="1.0" encoding="us-ascii" standalone="no"?><svg xmlns="http://www.w3.org/2000/svg" xmlns:xlink="http://www.w3.org/1999/xlink" contentStyleType="text/css" height="1052px" preserveAspectRatio="none" style="width:925px;height:1052px;background:#FFFFFF;" version="1.1" viewBox="0 0 925 1052" width="925px" zoomAndPan="magnify"><defs/><g><!--cluster bo4e--><g id="cluster_bo4e"><path d="M640.5,6 L681.5,6 A3.75,3.75 0 0 1 684,8.5 L691,28.2969 L915.5,28.2969 A2.5,2.5 0 0 1 918,30.7969 L918,1042.5 A2.5,2.5 0 0 1 915.5,1045 L640.5,1045 A2.5,2.5 0 0 1 638,1042.5 L638,8.5 A2.5,2.5 0 0 1 640.5,6 " fill="none" style="stroke:#000000;stroke-width:1.5;"/><line style="stroke:#000000;stroke-width:1.5;" x1="638" x2="691" y1="28.2969" y2="28.2969"/><text fill="#000000" font-family="sans-serif" font-size="14" font-weight="bold" lengthAdjust="spacing" textLength="40" x="642" y="20.9951">bo4e</text></g><!--cluster bo--><g id="cluster_bo"><path d="M683,49 L749,49 A3.75,3.75 0 0 1 751.5,51.5 L758.5,71.2969 L873,71.2969 A2.5,2.5 0 0 1 875.5,73.7969 L875.5,281.5 A2.5,2.5 0 0 1 873,284 L683,284 A2.5,2.5 0 0 1 680.5,281.5 L680.5,51.5 A2.5,2.5 0 0 1 683,49 " fill="#B6D7A8" style="stroke:#000000;stroke-width:1.5;"/><line style="stroke:#000000;stroke-width:1.5;" x1="680.5" x2="758.5" y1="71.2969" y2="71.2969"/><a href="https://bo4e.github.io/BO4E-python/latest/api/bo4e.bo.html" target="_top" title="https://bo4e.github.io/BO4E-python/latest/api/bo4e.bo.html" xlink:actuate="onRequest" xlink:href="https://bo4e.github.io/BO4E-python/latest/api/bo4e.bo.html" xlink:show="new" xlink:title="https://bo4e.github.io/BO4E-python/latest/api/bo4e.bo.html" xlink:type="simple"><text fill="#0000FF" font-family="sans-serif" font-size="14" font-weight="bold" lengthAdjust="spacing" text-decoration="underline" textLength="65" x="684.5" y="63.9951">bo4e.bo</text></a></g><!--cluster com--><g id="cluster_com"><path d="M699,308 L778,308 A3.75,3.75 0 0 1 780.5,310.5 L787.5,330.2969 L857,330.2969 A2.5,2.5 0 0 1 859.5,332.7969 L859.5,394.5 A2.5,2.5 0 0 1 857,397 L699,397 A2.5,2.5 0 0 1 696.5,394.5 L696.5,310.5 A2.5,2.5 0 0 1 699,308 " fill="#E0A86C" style="stroke:#000000;stroke-width:1.5;"/><line style="stroke:#000000;stroke-width:1.5;" x1="696.5" x2="787.5" y1="330.2969" y2="330.2969"/><a href="https://bo4e.github.io/BO4E-python/latest/api/bo4e.com.html" target="_top" title="https://bo4e.github.io/BO4E-python/latest/api/bo4e.com.html" xlink:actuate="onRequest" xlink:href="https://bo4e.github.io/BO4E-python/latest/api/bo4e.com.html" xlink:show="new" xlink:title="https://bo4e.github.io/BO4E-python/latest/api/bo4e.com.html" xlink:type="simple"><text fill="#0000FF" font-family="sans-serif" font-size="14" font-weight="bold" lengthAdjust="spacing" text-decoration="underline" textLength="78" x="700.5" y="322.9951">bo4e.com</text></a></g><!--cluster enum--><g id="cluster_enum"><path d="M664.5,421 L754.5,421 A3.75,3.75 0 0 1 757,423.5 L764,443.2969 L891.5,443.2969 A2.5,2.5 0 0 1 894,445.7969 L894,1018.5 A2.5,2.5 0 0 1 891.5,1021 L664.5,1021 A2.5,2.5 0 0 1 662,1018.5 L662,423.5 A2.5,2.5 0 0 1 664.5,421 " fill="#D1C358" style="stroke:#000000;stroke-width:1.5;"/><line style="stroke:#000000;stroke-width:1.5;" x1="662" x2="764" y1="443.2969" y2="443.2969"/><a href="https://bo4e.github.io/BO4E-python/latest/api/bo4e.enum.html" target="_top" title="https://bo4e.github.io/BO4E-python/latest/api/bo4e.enum.html" xlink:actuate="onRequest" xlink:href="https://bo4e.github.io/BO4E-python/latest/api/bo4e.enum.html" xlink:show="new" xlink:title="https://bo4e.github.io/BO4E-python/latest/api/bo4e.enum.html" xlink:type="simple"><text fill="#0000FF" font-family="sans-serif" font-size="14" font-weight="bold" lengthAdjust="spacing" text-decoration="underline" textLength="89" x="666" y="435.9951">bo4e.enum</text></a></g><!--class Geschaeftspartner--><g id="elem_Geschaeftspartner"><rect codeLine="13" fill="#F1F1F1" height="37.9375" id="Geschaeftspartner" rx="2.5" ry="2.5" style="stroke:#181818;stroke-width:0.5;" width="163" x="696.5" y="84.03"/><ellipse cx="711.5" cy="102.9987" fill="#ADD1B2" rx="11" ry="11" style="stroke:#181818;stroke-width:1.0;"/><path d="M714.4688,108.6394 Q713.8906,108.9362 713.25,109.0769 Q712.6094,109.2331 711.9063,109.2331 Q709.4063,109.2331 708.0781,107.5925 Q706.7656,105.9362 706.7656,102.8112 Q706.7656,99.6862 708.0781,98.03 Q709.4063,96.3737 711.9063,96.3737 Q712.6094,96.3737 713.25,96.53 Q713.9063,96.6862 714.4688,96.9831 L714.4688,99.7019 Q713.8438,99.1237 713.25,98.8581 Q712.6563,98.5769 712.0313,98.5769 Q710.6875,98.5769 710,99.655 Q709.3125,100.7175 709.3125,102.8112 Q709.3125,104.905 710,105.9831 Q710.6875,107.0456 712.0313,107.0456 Q712.6563,107.0456 713.25,106.78 Q713.8438,106.4987 714.4688,105.9206 L714.4688,108.6394 Z " fill="#000000"/><a href="https://bo4e.github.io/BO4E-python/latest/api/bo4e.bo.html#bo4e.bo.geschaeftspartner.Geschaeftspartner" target="_top" title="https://bo4e.github.io/BO4E-python/latest/api/bo4e.bo.html#bo4e.bo.geschaeftspartner.Geschaeftspartner" xlink:actuate="onRequest" xlink:href="https://bo4e.github.io/BO4E-python/latest/api/bo4e.bo.html#bo4e.bo.geschaeftspartner.Geschaeftspartner" xlink:show="new" xlink:title="https://bo4e.github.io/BO4E-python/latest/api/bo4e.bo.html#bo4e.bo.geschaeftspartner.Geschaeftspartner" xlink:type="simple"><text fill="#0000FF" font-family="sans-serif" font-size="14" lengthAdjust="spacing" text-decoration="underline" textLength="129" x="726.5" y="102.0251">Geschaeftspartner</text></a><text fill="#000000" font-family="sans-serif" font-size="10" lengthAdjust="spacing" textLength="131" x="725.5" y="114.6091">bo4e.bo.geschaeftspartner</text></g><!--class Geschaeftsobjekt--><g id="elem_Geschaeftsobjekt"><rect codeLine="14" fill="#F1F1F1" height="37.9375" id="Geschaeftsobjekt" rx="2.5" ry="2.5" style="stroke:#181818;stroke-width:0.5;" width="156" x="700" y="157.03"/><ellipse cx="715" cy="175.9987" fill="#ADD1B2" rx="11" ry="11" style="stroke:#181818;stroke-width:1.0;"/><path d="M717.9688,181.6394 Q717.3906,181.9362 716.75,182.0769 Q716.1094,182.2331 715.4063,182.2331 Q712.9063,182.2331 711.5781,180.5925 Q710.2656,178.9362 710.2656,175.8112 Q710.2656,172.6862 711.5781,171.03 Q712.9063,169.3737 715.4063,169.3737 Q716.1094,169.3737 716.75,169.53 Q717.4063,169.6862 717.9688,169.9831 L717.9688,172.7019 Q717.3438,172.1237 716.75,171.8581 Q716.1563,171.5769 715.5313,171.5769 Q714.1875,171.5769 713.5,172.655 Q712.8125,173.7175 712.8125,175.8112 Q712.8125,177.905 713.5,178.9831 Q714.1875,180.0456 715.5313,180.0456 Q716.1563,180.0456 716.75,179.78 Q717.3438,179.4987 717.9688,178.9206 L717.9688,181.6394 Z " fill="#000000"/><a href="https://bo4e.github.io/BO4E-python/latest/api/bo4e.bo.html#bo4e.bo.geschaeftsobjekt.Geschaeftsobjekt" target="_top" title="https://bo4e.github.io/BO4E-python/latest/api/bo4e.bo.html#bo4e.bo.geschaeftsobjekt.Geschaeftsobjekt" xlink:actuate="onRequest" xlink:href="https://bo4e.github.io/BO4E-python/latest/api/bo4e.bo.html#bo4e.bo.geschaeftsobjekt.Geschaeftsobjekt" xlink:show="new" xlink:title="https://bo4e.github.io/BO4E-python/latest/api/bo4e.bo.html#bo4e.bo.geschaeftsobjekt.Geschaeftsobjekt" xlink:type="simple"><text fill="#0000FF" font-family="sans-serif" font-size="14" lengthAdjust="spacing" text-decoration="underline" textLength="122" x="730" y="175.0251">Geschaeftsobjekt</text></a><text fill="#000000" font-family="sans-serif" font-size="10" lengthAdjust="spacing" textLength="124" x="729" y="187.6091">bo4e.bo.geschaeftsobjekt</text></g><!--class Geraet--><g id="elem_Geraet"><rect codeLine="15" fill="#F1F1F1" height="37.9375" id="Geraet" rx="2.5" ry="2.5" style="stroke:#181818;stroke-width:0.5;" width="106" x="725" y="230.03"/><ellipse cx="740" cy="248.9987" fill="#ADD1B2" rx="11" ry="11" style="stroke:#181818;stroke-width:1.0;"/><path d="M742.9688,254.6394 Q742.3906,254.9362 741.75,255.0769 Q741.1094,255.2331 740.4063,255.2331 Q737.9063,255.2331 736.5781,253.5925 Q735.2656,251.9362 735.2656,248.8112 Q735.2656,245.6862 736.5781,244.03 Q737.9063,242.3737 740.4063,242.3737 Q741.1094,242.3737 741.75,242.53 Q742.4063,242.6862 742.9688,242.9831 L742.9688,245.7019 Q742.3438,245.1237 741.75,244.8581 Q741.1563,244.5769 740.5313,244.5769 Q739.1875,244.5769 738.5,245.655 Q737.8125,246.7175 737.8125,248.8112 Q737.8125,250.905 738.5,251.9831 Q739.1875,253.0456 740.5313,253.0456 Q741.1563,253.0456 741.75,252.78 Q742.3438,252.4987 742.9688,251.9206 L742.9688,254.6394 Z " fill="#000000"/><a href="https://bo4e.github.io/BO4E-python/latest/api/bo4e.bo.html#bo4e.bo.geraet.Geraet" target="_top" title="https://bo4e.github.io/BO4E-python/latest/api/bo4e.bo.html#bo4e.bo.geraet.Geraet" xlink:actuate="onRequest" xlink:href="https://bo4e.github.io/BO4E-python/latest/api/bo4e.bo.html#bo4e.bo.geraet.Geraet" xlink:show="new" xlink:title="https://bo4e.github.io/BO4E-python/latest/api/bo4e.bo.html#bo4e.bo.geraet.Geraet" xlink:type="simple"><text fill="#0000FF" font-family="sans-serif" font-size="14" lengthAdjust="spacing" text-decoration="underline" textLength="47" x="767.5" y="248.0251">Geraet</text></a><text fill="#000000" font-family="sans-serif" font-size="10" lengthAdjust="spacing" textLength="74" x="754" y="260.6091">bo4e.bo.geraet</text></g><!--class Zaehlwerk--><g id="elem_Zaehlwerk"><rect codeLine="18" fill="#F1F1F1" height="37.9375" id="Zaehlwerk" rx="2.5" ry="2.5" style="stroke:#181818;stroke-width:0.5;" width="131" x="712.5" y="343.03"/><ellipse cx="727.5" cy="361.9988" fill="#ADD1B2" rx="11" ry="11" style="stroke:#181818;stroke-width:1.0;"/><path d="M730.4688,367.6394 Q729.8906,367.9363 729.25,368.0769 Q728.6094,368.2331 727.9063,368.2331 Q725.4063,368.2331 724.0781,366.5925 Q722.7656,364.9363 722.7656,361.8113 Q722.7656,358.6863 724.0781,357.03 Q725.4063,355.3738 727.9063,355.3738 Q728.6094,355.3738 729.25,355.53 Q729.9063,355.6863 730.4688,355.9831 L730.4688,358.7019 Q729.8438,358.1238 729.25,357.8581 Q728.6563,357.5769 728.0313,357.5769 Q726.6875,357.5769 726,358.655 Q725.3125,359.7175 725.3125,361.8113 Q725.3125,363.905 726,364.9831 Q726.6875,366.0456 728.0313,366.0456 Q728.6563,366.0456 729.25,365.78 Q729.8438,365.4988 730.4688,364.9206 L730.4688,367.6394 Z " fill="#000000"/><a href="https://bo4e.github.io/BO4E-python/latest/api/bo4e.com.html#bo4e.com.zaehlwerk.Zaehlwerk" target="_top" title="https://bo4e.github.io/BO4E-python/latest/api/bo4e.com.html#bo4e.com.zaehlwerk.Zaehlwerk" xlink:actuate="onRequest" xlink:href="https://bo4e.github.io/BO4E-python/latest/api/bo4e.com.html#bo4e.com.zaehlwerk.Zaehlwerk" xlink:show="new" xlink:title="https://bo4e.github.io/BO4E-python/latest/api/bo4e.com.html#bo4e.com.zaehlwerk.Zaehlwerk" xlink:type="simple"><text fill="#0000FF" font-family="sans-serif" font-size="14" lengthAdjust="spacing" text-decoration="underline" textLength="72" x="755" y="361.0251">Zaehlwerk</text></a><text fill="#000000" font-family="sans-serif" font-size="10" lengthAdjust="spacing" textLength="99" x="741.5" y="373.6091">bo4e.com.zaehlwerk</text></g><!--class Messwerterfassung--><g id="elem_Messwerterfassung"><rect codeLine="21" fill="#F1F1F1" height="37.9375" id="Messwerterfassung" rx="2.5" ry="2.5" style="stroke:#181818;stroke-width:0.5;" width="186" x="685" y="456.03"/><ellipse cx="700" cy="474.9988" fill="#ADD1B2" rx="11" ry="11" style="stroke:#181818;stroke-width:1.0;"/><path d="M702.9688,480.6394 Q702.3906,480.9363 701.75,481.0769 Q701.1094,481.2331 700.4063,481.2331 Q697.9063,481.2331 696.5781,479.5925 Q695.2656,477.9363 695.2656,474.8113 Q695.2656,471.6863 696.5781,470.03 Q697.9063,468.3738 700.4063,468.3738 Q701.1094,468.3738 701.75,468.53 Q702.4063,468.6863 702.9688,468.9831 L702.9688,471.7019 Q702.3438,471.1238 701.75,470.8581 Q701.1563,470.5769 700.5313,470.5769 Q699.1875,470.5769 698.5,471.655 Q697.8125,472.7175 697.8125,474.8113 Q697.8125,476.905 698.5,477.9831 Q699.1875,479.0456 700.5313,479.0456 Q701.1563,479.0456 701.75,478.78 Q702.3438,478.4988 702.9688,477.9206 L702.9688,480.6394 Z " fill="#000000"/><a href="https://bo4e.github.io/BO4E-python/latest/api/bo4e.enum.html#bo4e.enum.messwerterfassung.Messwerterfassung" target="_top" title="https://bo4e.github.io/BO4E-python/latest/api/bo4e.enum.html#bo4e.enum.messwerterfassung.Messwerterfassung" xlink:actuate="onRequest" xlink:href="https://bo4e.github.io/BO4E-python/latest/api/bo4e.enum.html#bo4e.enum.messwerterfassung.Messwerterfassung" xlink:show="new" xlink:title="https://bo4e.github.io/BO4E-python/latest/api/bo4e.enum.html#bo4e.enum.messwerterfassung.Messwerterfassung" xlink:type="simple"><text fill="#0000FF" font-family="sans-serif" font-size="14" lengthAdjust="spacing" text-decoration="underline" textLength="136" x="723" y="474.0251">Messwerterfassung</text></a><text fill="#000000" font-family="sans-serif" font-size="10" lengthAdjust="spacing" textLength="154" x="714" y="486.6091">bo4e.enum.messwerterfassung</text></g><!--class ZaehlertypSpezifikation--><g id="elem_ZaehlertypSpezifikation"><rect codeLine="22" fill="#F1F1F1" height="37.9375" id="ZaehlertypSpezifikation" rx="2.5" ry="2.5" style="stroke:#181818;stroke-width:0.5;" width="200" x="678" y="529.03"/><ellipse cx="693" cy="547.9988" fill="#ADD1B2" rx="11" ry="11" style="stroke:#181818;stroke-width:1.0;"/><path d="M695.9688,553.6394 Q695.3906,553.9363 694.75,554.0769 Q694.1094,554.2331 693.4063,554.2331 Q690.9063,554.2331 689.5781,552.5925 Q688.2656,550.9363 688.2656,547.8113 Q688.2656,544.6863 689.5781,543.03 Q690.9063,541.3738 693.4063,541.3738 Q694.1094,541.3738 694.75,541.53 Q695.4063,541.6863 695.9688,541.9831 L695.9688,544.7019 Q695.3438,544.1238 694.75,543.8581 Q694.1563,543.5769 693.5313,543.5769 Q692.1875,543.5769 691.5,544.655 Q690.8125,545.7175 690.8125,547.8113 Q690.8125,549.905 691.5,550.9831 Q692.1875,552.0456 693.5313,552.0456 Q694.1563,552.0456 694.75,551.78 Q695.3438,551.4988 695.9688,550.9206 L695.9688,553.6394 Z " fill="#000000"/><a href="https://bo4e.github.io/BO4E-python/latest/api/bo4e.enum.html#bo4e.enum.zaehlertypspezifikation.ZaehlertypSpezifikation" target="_top" title="https://bo4e.github.io/BO4E-python/latest/api/bo4e.enum.html#bo4e.enum.zaehlertypspezifikation.ZaehlertypSpezifikation" xlink:actuate="onRequest" xlink:href="https://bo4e.github.io/BO4E-python/latest/api/bo4e.enum.html#bo4e.enum.zaehlertypspezifikation.ZaehlertypSpezifikation" xlink:show="new" xlink:title="https://bo4e.github.io/BO4E-python/latest/api/bo4e.enum.html#bo4e.enum.zaehlertypspezifikation.ZaehlertypSpezifikation" xlink:type="simple"><text fill="#0000FF" font-family="sans-serif" font-size="14" lengthAdjust="spacing" text-decoration="underline" textLength="161" x="710.5" y="547.0251">ZaehlertypSpezifikation</text></a><text fill="#000000" font-family="sans-serif" font-size="10" lengthAdjust="spacing" textLength="168" x="707" y="559.6091">bo4e.enum.zaehlertypspezifikation</text></g><!--class Befestigungsart--><g id="elem_Befestigungsart"><rect codeLine="23" fill="#F1F1F1" height="37.9375" id="Befestigungsart" rx="2.5" ry="2.5" style="stroke:#181818;stroke-width:0.5;" width="166" x="695" y="602.03"/><ellipse cx="710" cy="620.9988" fill="#ADD1B2" rx="11" ry="11" style="stroke:#181818;stroke-width:1.0;"/><path d="M712.9688,626.6394 Q712.3906,626.9363 711.75,627.0769 Q711.1094,627.2331 710.4063,627.2331 Q707.9063,627.2331 706.5781,625.5925 Q705.2656,623.9363 705.2656,620.8113 Q705.2656,617.6863 706.5781,616.03 Q707.9063,614.3738 710.4063,614.3738 Q711.1094,614.3738 711.75,614.53 Q712.4063,614.6863 712.9688,614.9831 L712.9688,617.7019 Q712.3438,617.1238 711.75,616.8581 Q711.1563,616.5769 710.5313,616.5769 Q709.1875,616.5769 708.5,617.655 Q707.8125,618.7175 707.8125,620.8113 Q707.8125,622.905 708.5,623.9831 Q709.1875,625.0456 710.5313,625.0456 Q711.1563,625.0456 711.75,624.78 Q712.3438,624.4988 712.9688,623.9206 L712.9688,626.6394 Z " fill="#000000"/><a href="https://bo4e.github.io/BO4E-python/latest/api/bo4e.enum.html#bo4e.enum.befestigungsart.Befestigungsart" target="_top" title="https://bo4e.github.io/BO4E-python/latest/api/bo4e.enum.html#bo4e.enum.befestigungsart.Befestigungsart" xlink:actuate="onRequest" xlink:href="https://bo4e.github.io/BO4E-python/latest/api/bo4e.enum.html#bo4e.enum.befestigungsart.Befestigungsart" xlink:show="new" xlink:title="https://bo4e.github.io/BO4E-python/latest/api/bo4e.enum.html#bo4e.enum.befestigungsart.Befestigungsart" xlink:type="simple"><text fill="#0000FF" font-family="sans-serif" font-size="14" lengthAdjust="spacing" text-decoration="underline" textLength="110" x="736" y="620.0251">Befestigungsart</text></a><text fill="#000000" font-family="sans-serif" font-size="10" lengthAdjust="spacing" textLength="134" x="724" y="632.6091">bo4e.enum.befestigungsart</text></g><!--class Registeranzahl--><g id="elem_Registeranzahl"><rect codeLine="24" fill="#F1F1F1" height="37.9375" id="Registeranzahl" rx="2.5" ry="2.5" style="stroke:#181818;stroke-width:0.5;" width="158" x="699" y="675.03"/><ellipse cx="714" cy="693.9988" fill="#ADD1B2" rx="11" ry="11" style="stroke:#181818;stroke-width:1.0;"/><path d="M716.9688,699.6394 Q716.3906,699.9363 715.75,700.0769 Q715.1094,700.2331 714.4063,700.2331 Q711.9063,700.2331 710.5781,698.5925 Q709.2656,696.9363 709.2656,693.8113 Q709.2656,690.6863 710.5781,689.03 Q711.9063,687.3738 714.4063,687.3738 Q715.1094,687.3738 715.75,687.53 Q716.4063,687.6863 716.9688,687.9831 L716.9688,690.7019 Q716.3438,690.1238 715.75,689.8581 Q715.1563,689.5769 714.5313,689.5769 Q713.1875,689.5769 712.5,690.655 Q711.8125,691.7175 711.8125,693.8113 Q711.8125,695.905 712.5,696.9831 Q713.1875,698.0456 714.5313,698.0456 Q715.1563,698.0456 715.75,697.78 Q716.3438,697.4988 716.9688,696.9206 L716.9688,699.6394 Z " fill="#000000"/><a href="https://bo4e.github.io/BO4E-python/latest/api/bo4e.enum.html#bo4e.enum.registeranzahl.Registeranzahl" target="_top" title="https://bo4e.github.io/BO4E-python/latest/api/bo4e.enum.html#bo4e.enum.registeranzahl.Registeranzahl" xlink:actuate="onRequest" xlink:href="https://bo4e.github.io/BO4E-python/latest/api/bo4e.enum.html#bo4e.enum.registeranzahl.Registeranzahl" xlink:show="new" xlink:title="https://bo4e.github.io/BO4E-python/latest/api/bo4e.enum.html#bo4e.enum.registeranzahl.Registeranzahl" xlink:type="simple"><text fill="#0000FF" font-family="sans-serif" font-size="14" lengthAdjust="spacing" text-decoration="underline" textLength="103" x="739.5" y="693.0251">Registeranzahl</text></a><text fill="#000000" font-family="sans-serif" font-size="10" lengthAdjust="spacing" textLength="126" x="728" y="705.6091">bo4e.enum.registeranzahl</text></g><!--class Zaehlertyp--><g id="elem_Zaehlertyp"><rect codeLine="25" fill="#F1F1F1" height="37.9375" id="Zaehlertyp" rx="2.5" ry="2.5" style="stroke:#181818;stroke-width:0.5;" width="141" x="707.5" y="748.03"/><ellipse cx="722.5" cy="766.9988" fill="#ADD1B2" rx="11" ry="11" style="stroke:#181818;stroke-width:1.0;"/><path d="M725.4688,772.6394 Q724.8906,772.9363 724.25,773.0769 Q723.6094,773.2331 722.9063,773.2331 Q720.4063,773.2331 719.0781,771.5925 Q717.7656,769.9363 717.7656,766.8113 Q717.7656,763.6863 719.0781,762.03 Q720.4063,760.3738 722.9063,760.3738 Q723.6094,760.3738 724.25,760.53 Q724.9063,760.6863 725.4688,760.9831 L725.4688,763.7019 Q724.8438,763.1238 724.25,762.8581 Q723.6563,762.5769 723.0313,762.5769 Q721.6875,762.5769 721,763.655 Q720.3125,764.7175 720.3125,766.8113 Q720.3125,768.905 721,769.9831 Q721.6875,771.0456 723.0313,771.0456 Q723.6563,771.0456 724.25,770.78 Q724.8438,770.4988 725.4688,769.9206 L725.4688,772.6394 Z " fill="#000000"/><a href="https://bo4e.github.io/BO4E-python/latest/api/bo4e.enum.html#bo4e.enum.zaehlertyp.Zaehlertyp" target="_top" title="https://bo4e.github.io/BO4E-python/latest/api/bo4e.enum.html#bo4e.enum.zaehlertyp.Zaehlertyp" xlink:actuate="onRequest" xlink:href="https://bo4e.github.io/BO4E-python/latest/api/bo4e.enum.html#bo4e.enum.zaehlertyp.Zaehlertyp" xlink:show="new" xlink:title="https://bo4e.github.io/BO4E-python/latest/api/bo4e.enum.html#bo4e.enum.zaehlertyp.Zaehlertyp" xlink:type="simple"><text fill="#0000FF" font-family="sans-serif" font-size="14" lengthAdjust="spacing" text-decoration="underline" textLength="74" x="754" y="766.0251">Zaehlertyp</text></a><text fill="#000000" font-family="sans-serif" font-size="10" lengthAdjust="spacing" textLength="109" x="736.5" y="778.6091">bo4e.enum.zaehlertyp</text></g><!--class Zaehlerauspraegung--><g id="elem_Zaehlerauspraegung"><rect codeLine="26" fill="#F1F1F1" height="37.9375" id="Zaehlerauspraegung" rx="2.5" ry="2.5" style="stroke:#181818;stroke-width:0.5;" width="188" x="684" y="821.03"/><ellipse cx="699" cy="839.9988" fill="#ADD1B2" rx="11" ry="11" style="stroke:#181818;stroke-width:1.0;"/><path d="M701.9688,845.6394 Q701.3906,845.9363 700.75,846.0769 Q700.1094,846.2331 699.4063,846.2331 Q696.9063,846.2331 695.5781,844.5925 Q694.2656,842.9363 694.2656,839.8113 Q694.2656,836.6863 695.5781,835.03 Q696.9063,833.3738 699.4063,833.3738 Q700.1094,833.3738 700.75,833.53 Q701.4063,833.6863 701.9688,833.9831 L701.9688,836.7019 Q701.3438,836.1238 700.75,835.8581 Q700.1563,835.5769 699.5313,835.5769 Q698.1875,835.5769 697.5,836.655 Q696.8125,837.7175 696.8125,839.8113 Q696.8125,841.905 697.5,842.9831 Q698.1875,844.0456 699.5313,844.0456 Q700.1563,844.0456 700.75,843.78 Q701.3438,843.4988 701.9688,842.9206 L701.9688,845.6394 Z " fill="#000000"/><a href="https://bo4e.github.io/BO4E-python/latest/api/bo4e.enum.html#bo4e.enum.zaehlerauspraegung.Zaehlerauspraegung" target="_top" title="https://bo4e.github.io/BO4E-python/latest/api/bo4e.enum.html#bo4e.enum.zaehlerauspraegung.Zaehlerauspraegung" xlink:actuate="onRequest" xlink:href="https://bo4e.github.io/BO4E-python/latest/api/bo4e.enum.html#bo4e.enum.zaehlerauspraegung.Zaehlerauspraegung" xlink:show="new" xlink:title="https://bo4e.github.io/BO4E-python/latest/api/bo4e.enum.html#bo4e.enum.zaehlerauspraegung.Zaehlerauspraegung" xlink:type="simple"><text fill="#0000FF" font-family="sans-serif" font-size="14" lengthAdjust="spacing" text-decoration="underline" textLength="145" x="718.5" y="839.0251">Zaehlerauspraegung</text></a><text fill="#000000" font-family="sans-serif" font-size="10" lengthAdjust="spacing" textLength="156" x="713" y="851.6091">bo4e.enum.zaehlerauspraegung</text></g><!--class Zaehlergroesse--><g id="elem_Zaehlergroesse"><rect codeLine="27" fill="#F1F1F1" height="37.9375" id="Zaehlergroesse" rx="2.5" ry="2.5" style="stroke:#181818;stroke-width:0.5;" width="163" x="696.5" y="894.03"/><ellipse cx="711.5" cy="912.9988" fill="#ADD1B2" rx="11" ry="11" style="stroke:#181818;stroke-width:1.0;"/><path d="M714.4688,918.6394 Q713.8906,918.9363 713.25,919.0769 Q712.6094,919.2331 711.9063,919.2331 Q709.4063,919.2331 708.0781,917.5925 Q706.7656,915.9363 706.7656,912.8113 Q706.7656,909.6863 708.0781,908.03 Q709.4063,906.3738 711.9063,906.3738 Q712.6094,906.3738 713.25,906.53 Q713.9063,906.6863 714.4688,906.9831 L714.4688,909.7019 Q713.8438,909.1238 713.25,908.8581 Q712.6563,908.5769 712.0313,908.5769 Q710.6875,908.5769 710,909.655 Q709.3125,910.7175 709.3125,912.8113 Q709.3125,914.905 710,915.9831 Q710.6875,917.0456 712.0313,917.0456 Q712.6563,917.0456 713.25,916.78 Q713.8438,916.4988 714.4688,915.9206 L714.4688,918.6394 Z " fill="#000000"/><a href="https://bo4e.github.io/BO4E-python/latest/api/bo4e.enum.html#bo4e.enum.zaehlergroesse.Zaehlergroesse" target="_top" title="https://bo4e.github.io/BO4E-python/latest/api/bo4e.enum.html#bo4e.enum.zaehlergroesse.Zaehlergroesse" xlink:actuate="onRequest" xlink:href="https://bo4e.github.io/BO4E-python/latest/api/bo4e.enum.html#bo4e.enum.zaehlergroesse.Zaehlergroesse" xlink:show="new" xlink:title="https://bo4e.github.io/BO4E-python/latest/api/bo4e.enum.html#bo4e.enum.zaehlergroesse.Zaehlergroesse" xlink:type="simple"><text fill="#0000FF" font-family="sans-serif" font-size="14" lengthAdjust="spacing" text-decoration="underline" textLength="110" x="736" y="912.0251">Zaehlergroesse</text></a><text fill="#000000" font-family="sans-serif" font-size="10" lengthAdjust="spacing" textLength="131" x="725.5" y="924.6091">bo4e.enum.zaehlergroesse</text></g><!--class Sparte--><g id="elem_Sparte"><rect codeLine="28" fill="#F1F1F1" height="37.9375" id="Sparte" rx="2.5" ry="2.5" style="stroke:#181818;stroke-width:0.5;" width="121" x="717.5" y="967.03"/><ellipse cx="732.5" cy="985.9988" fill="#ADD1B2" rx="11" ry="11" style="stroke:#181818;stroke-width:1.0;"/><path d="M735.4688,991.6394 Q734.8906,991.9363 734.25,992.0769 Q733.6094,992.2331 732.9063,992.2331 Q730.4063,992.2331 729.0781,990.5925 Q727.7656,988.9363 727.7656,985.8113 Q727.7656,982.6863 729.0781,981.03 Q730.4063,979.3738 732.9063,979.3738 Q733.6094,979.3738 734.25,979.53 Q734.9063,979.6863 735.4688,979.9831 L735.4688,982.7019 Q734.8438,982.1238 734.25,981.8581 Q733.6563,981.5769 733.0313,981.5769 Q731.6875,981.5769 731,982.655 Q730.3125,983.7175 730.3125,985.8113 Q730.3125,987.905 731,988.9831 Q731.6875,990.0456 733.0313,990.0456 Q733.6563,990.0456 734.25,989.78 Q734.8438,989.4988 735.4688,988.9206 L735.4688,991.6394 Z " fill="#000000"/><a href="https://bo4e.github.io/BO4E-python/latest/api/bo4e.enum.html#bo4e.enum.sparte.Sparte" target="_top" title="https://bo4e.github.io/BO4E-python/latest/api/bo4e.enum.html#bo4e.enum.sparte.Sparte" xlink:actuate="onRequest" xlink:href="https://bo4e.github.io/BO4E-python/latest/api/bo4e.enum.html#bo4e.enum.sparte.Sparte" xlink:show="new" xlink:title="https://bo4e.github.io/BO4E-python/latest/api/bo4e.enum.html#bo4e.enum.sparte.Sparte" xlink:type="simple"><text fill="#0000FF" font-family="sans-serif" font-size="14" lengthAdjust="spacing" text-decoration="underline" textLength="45" x="768.5" y="985.0251">Sparte</text></a><text fill="#000000" font-family="sans-serif" font-size="10" lengthAdjust="spacing" textLength="89" x="746.5" y="997.6091">bo4e.enum.sparte</text></g><!--class Zaehler--><g id="elem_Zaehler"><rect codeLine="3" fill="#F1F1F1" height="143.7188" id="Zaehler" rx="2.5" ry="2.5" style="stroke:#181818;stroke-width:0.5;" width="435" x="7" y="517.14"/><ellipse cx="181.75" cy="536.1088" fill="#ADD1B2" rx="11" ry="11" style="stroke:#181818;stroke-width:1.0;"/><path d="M184.7188,541.7494 Q184.1406,542.0463 183.5,542.1869 Q182.8594,542.3431 182.1563,542.3431 Q179.6563,542.3431 178.3281,540.7025 Q177.0156,539.0463 177.0156,535.9213 Q177.0156,532.7963 178.3281,531.14 Q179.6563,529.4838 182.1563,529.4838 Q182.8594,529.4838 183.5,529.64 Q184.1563,529.7963 184.7188,530.0931 L184.7188,532.8119 Q184.0938,532.2338 183.5,531.9681 Q182.9063,531.6869 182.2813,531.6869 Q180.9375,531.6869 180.25,532.765 Q179.5625,533.8275 179.5625,535.9213 Q179.5625,538.015 180.25,539.0931 Q180.9375,540.1556 182.2813,540.1556 Q182.9063,540.1556 183.5,539.89 Q184.0938,539.6088 184.7188,539.0306 L184.7188,541.7494 Z " fill="#000000"/><a href="https://bo4e.github.io/BO4E-python/latest/api/bo4e.bo.html#bo4e.bo.zaehler.Zaehler" target="_top" title="https://bo4e.github.io/BO4E-python/latest/api/bo4e.bo.html#bo4e.bo.zaehler.Zaehler" xlink:actuate="onRequest" xlink:href="https://bo4e.github.io/BO4E-python/latest/api/bo4e.bo.html#bo4e.bo.zaehler.Zaehler" xlink:show="new" xlink:title="https://bo4e.github.io/BO4E-python/latest/api/bo4e.bo.html#bo4e.bo.zaehler.Zaehler" xlink:type="simple"><text fill="#0000FF" font-family="sans-serif" font-size="14" lengthAdjust="spacing" text-decoration="underline" textLength="53" x="214.25" y="535.1351">Zaehler</text></a><text fill="#000000" font-family="sans-serif" font-size="10" lengthAdjust="spacing" textLength="77" x="202.25" y="547.7191">bo4e.bo.zaehler</text><line style="stroke:#181818;stroke-width:0.5;" x1="8" x2="441" y1="555.0775" y2="555.0775"/><text fill="#000000" font-family="sans-serif" font-size="14" lengthAdjust="spacing" textLength="423" x="13" y="572.0726">_typ : Literal[&lt;Typ.ZAEHLER: 'ZAEHLER'&gt;] [1] = Typ.ZAEHLER</text><text fill="#000000" font-family="sans-serif" font-size="14" lengthAdjust="spacing" textLength="237" x="13" y="588.3695">zaehlernummer : str [0..1] = None</text><text fill="#000000" font-family="sans-serif" font-size="14" lengthAdjust="spacing" textLength="286" x="13" y="604.6664">zaehlerkonstante : Decimal [0..1] = None</text><text fill="#000000" font-family="sans-serif" font-size="14" lengthAdjust="spacing" textLength="292" x="13" y="620.9632">eichungBis : AwareDatetime [0..1] = None</text><text fill="#000000" font-family="sans-serif" font-size="14" lengthAdjust="spacing" textLength="310" x="13" y="637.2601">letzteEichung : AwareDatetime [0..1] = None</text><text fill="#000000" font-family="sans-serif" font-size="14" lengthAdjust="spacing" textLength="250" x="13" y="653.557">istFernschaltbar : bool [0..1] = None</text></g><!--link Zaehler to Geschaeftsobjekt--><g id="link_Zaehler_Geschaeftsobjekt"><path codeLine="31" d="M273.25,516.7 C318.58,452.19 391.58,358.27 472,294 C539.19,240.3 616.2334,213.2591 682.1734,196.5191 " fill="none" id="Zaehler-to-Geschaeftsobjekt" style="stroke:#181818;stroke-width:1.0;"/><polygon fill="none" points="699.62,192.09,680.6971,190.7036,683.6498,202.3346,699.62,192.09" style="stroke:#181818;stroke-width:1.0;"/></g><!--link Zaehler to Sparte--><g id="link_Zaehler_Sparte"><path codeLine="32" d="M262.2,661.18 C303.33,734.71 376.9,846.53 472,909 C547.2,958.4 639.9865,974.947 705.0965,981.287 " fill="none" id="Zaehler-to-Sparte" style="stroke:#181818;stroke-width:1.0;"/><polygon fill="#181818" points="717.04,982.45,711.4559,977.8873,705.0965,981.287,710.6806,985.8497,717.04,982.45" style="stroke:#181818;stroke-width:1.0;"/><text fill="#000000" font-family="sans-serif" font-size="13" lengthAdjust="spacing" textLength="41" x="526.5" y="905.0669">sparte</text><text fill="#000000" font-family="sans-serif" font-size="13" lengthAdjust="spacing" textLength="24" x="685.516" y="994.9312">0..1</text></g><!--link Zaehler to Zaehlerauspraegung--><g id="link_Zaehler_Zaehlerauspraegung"><path codeLine="33" d="M312.07,661.31 C357.33,696.02 415.05,735.68 472,762 C537.86,792.44 559.71,785.03 630,803 C652.57,808.77 665.4632,812.0401 687.9032,817.6901 " fill="none" id="Zaehler-to-Zaehlerauspraegung" style="stroke:#181818;stroke-width:1.0;"/><polygon fill="#181818" points="699.54,820.62,694.6982,815.2761,687.9032,817.6901,692.7449,823.034,699.54,820.62" style="stroke:#181818;stroke-width:1.0;"/><text fill="#000000" font-family="sans-serif" font-size="13" lengthAdjust="spacing" textLength="131" x="481.5" y="758.0669">zaehlerauspraegung</text><text fill="#000000" font-family="sans-serif" font-size="13" lengthAdjust="spacing" textLength="24" x="652.3596" y="810.8162">0..1</text></g><!--link Zaehler to Zaehlertyp--><g id="link_Zaehler_Zaehlertyp"><path codeLine="34" d="M380.33,661.26 C410.37,673.83 441.88,686.05 472,696 C551.11,722.14 633.028,740.1532 695.488,752.2232 " fill="none" id="Zaehler-to-Zaehlertyp" style="stroke:#181818;stroke-width:1.0;"/><polygon fill="#181818" points="707.27,754.5,702.1379,749.4343,695.488,752.2232,700.6201,757.2889,707.27,754.5" style="stroke:#181818;stroke-width:1.0;"/><text fill="#000000" font-family="sans-serif" font-size="13" lengthAdjust="spacing" textLength="67" x="513.5" y="692.0669">zaehlertyp</text><text fill="#000000" font-family="sans-serif" font-size="13" lengthAdjust="spacing" textLength="24" x="675.3848" y="766.0968">0..1</text></g><!--link Zaehler to Zaehlwerk--><g id="link_Zaehler_Zaehlwerk"><path codeLine="35" d="M391.97,516.65 C418.68,505.27 446.06,493.72 472,483 C561.37,446.07 655.1348,409.2563 715.7148,385.7163 " fill="none" id="Zaehler-to-Zaehlwerk" style="stroke:#181818;stroke-width:1.0;"/><polygon fill="#181818" points="726.9,381.37,719.8586,379.8148,715.7148,385.7163,722.7562,387.2716,726.9,381.37" style="stroke:#181818;stroke-width:1.0;"/><text fill="#000000" font-family="sans-serif" font-size="13" lengthAdjust="spacing" textLength="71" x="511.5" y="419.0669">zaehlwerke</text><text fill="#000000" font-family="sans-serif" font-size="13" lengthAdjust="spacing" textLength="23" x="686.2937" y="401.0131">0..*</text></g><!--link Zaehler to Registeranzahl--><g id="link_Zaehler_Registeranzahl"><path codeLine="36" d="M442.45,638.13 C452.43,640.16 462.31,642.13 472,644 C548.78,658.85 625.1376,671.1882 686.8776,680.6182 " fill="none" id="Zaehler-to-Registeranzahl" style="stroke:#181818;stroke-width:1.0;"/><polygon fill="#181818" points="698.74,682.43,693.4127,677.5699,686.8776,680.6182,692.2048,685.4782,698.74,682.43" style="stroke:#181818;stroke-width:1.0;"/><text fill="#000000" font-family="sans-serif" font-size="13" lengthAdjust="spacing" textLength="91" x="501.5" y="640.0669">registeranzahl</text><text fill="#000000" font-family="sans-serif" font-size="13" lengthAdjust="spacing" textLength="24" x="666.8973" y="694.1529">0..1</text></g><!--link Zaehler to Geschaeftspartner--><g id="link_Zaehler_Geschaeftspartner"><path codeLine="37" d="M262.18,516.81 C304.54,438.78 380.31,314.3 472,230 C531.49,175.3 555.01,170.14 630,140 C650.88,131.61 662.5718,127.6142 684.3818,122.1342 " fill="none" id="Zaehler-to-Geschaeftspartner" style="stroke:#181818;stroke-width:1.0;"/><polygon fill="#181818" points="696.02,119.21,689.2261,116.7927,684.3818,122.1342,691.1756,124.5515,696.02,119.21" style="stroke:#181818;stroke-width:1.0;"/><text fill="#000000" font-family="sans-serif" font-size="13" lengthAdjust="spacing" textLength="107" x="493.5" y="140.0669">zaehlerhersteller</text><text fill="#000000" font-family="sans-serif" font-size="13" lengthAdjust="spacing" textLength="24" x="664.531" y="133.1717">0..1</text></g><!--link Zaehler to Messwerterfassung--><g id="link_Zaehler_Messwerterfassung"><path codeLine="38" d="M442.22,542.22 C452.28,540.11 462.25,538.02 472,536 C543.25,521.22 612.2177,507.4268 672.7277,495.4668 " fill="none" id="Zaehler-to-Messwerterfassung" style="stroke:#181818;stroke-width:1.0;"/><polygon fill="#181818" points="684.5,493.14,677.8383,490.3793,672.7277,495.4668,679.3895,498.2275,684.5,493.14" style="stroke:#181818;stroke-width:1.0;"/><text fill="#000000" font-family="sans-serif" font-size="13" lengthAdjust="spacing" textLength="125" x="484.5" y="504.0669">messwerterfassung</text><text fill="#000000" font-family="sans-serif" font-size="13" lengthAdjust="spacing" textLength="24" x="653.082" y="507.0145">0..1</text></g><!--link Zaehler to ZaehlertypSpezifikation--><g id="link_Zaehler_ZaehlertypSpezifikation"><path codeLine="39" d="M442.28,572.88 C523.56,566.84 600.0431,561.1608 665.6031,556.2808 " fill="none" id="Zaehler-to-ZaehlertypSpezifikation" style="stroke:#181818;stroke-width:1.0;"/><polygon fill="#181818" points="677.57,555.39,671.2896,551.8464,665.6031,556.2808,671.8835,559.8243,677.57,555.39" style="stroke:#181818;stroke-width:1.0;"/><text fill="#000000" font-family="sans-serif" font-size="13" lengthAdjust="spacing" textLength="148" x="473" y="557.0669">zaehlertypSpezifikation</text><text fill="#000000" font-family="sans-serif" font-size="13" lengthAdjust="spacing" textLength="24" x="646.0161" y="568.4619">0..1</text></g><!--link Zaehler to Befestigungsart--><g id="link_Zaehler_Befestigungsart"><path codeLine="40" d="M442.2,610 C452.27,610.73 462.24,611.4 472,612 C547.35,616.62 621.3219,618.6751 682.7319,619.7751 " fill="none" id="Zaehler-to-Befestigungsart" style="stroke:#181818;stroke-width:1.0;"/><polygon fill="#181818" points="694.73,619.99,688.8026,615.8832,682.7319,619.7751,688.6593,623.8819,694.73,619.99" style="stroke:#181818;stroke-width:1.0;"/><text fill="#000000" font-family="sans-serif" font-size="13" lengthAdjust="spacing" textLength="100" x="497" y="608.0669">befestigungsart</text><text fill="#000000" font-family="sans-serif" font-size="13" lengthAdjust="spacing" textLength="24" x="663.1382" y="632.5795">0..1</text></g><!--link Zaehler to Zaehlergroesse--><g id="link_Zaehler_Zaehlergroesse"><path codeLine="41" d="M284.28,661.14 C330.42,713.53 398.89,782.56 472,826 C541.59,867.35 620.0143,887.7495 684.2443,899.4495 " fill="none" id="Zaehler-to-Zaehlergroesse" style="stroke:#181818;stroke-width:1.0;"/><polygon fill="#181818" points="696.05,901.6,690.864,896.5895,684.2443,899.4495,689.4303,904.46,696.05,901.6" style="stroke:#181818;stroke-width:1.0;"/><text fill="#000000" font-family="sans-serif" font-size="13" lengthAdjust="spacing" textLength="98" x="498" y="822.0669">zaehlergroesse</text><text fill="#000000" font-family="sans-serif" font-size="13" lengthAdjust="spacing" textLength="24" x="664.5634" y="913.3615">0..1</text></g><!--link Zaehler to Geraet--><g id="link_Zaehler_Geraet"><path codeLine="42" d="M309.63,516.86 C355.88,479.03 415.24,433.34 472,398 C559.05,343.81 657.6268,299.1455 718.9168,273.0855 " fill="none" id="Zaehler-to-Geraet" style="stroke:#181818;stroke-width:1.0;"/><polygon fill="#181818" points="729.96,268.39,722.8732,267.0567,718.9168,273.0855,726.0036,274.4188,729.96,268.39" style="stroke:#181818;stroke-width:1.0;"/><text fill="#000000" font-family="sans-serif" font-size="13" lengthAdjust="spacing" textLength="50" x="522" y="315.0669">geraete</text><text fill="#000000" font-family="sans-serif" font-size="13" lengthAdjust="spacing" textLength="23" x="693.9356" y="286.3539">0..*</text></g><!--SRC=[jLTBRzim33xNlu983WKAr6cnhYkCha2oPjjX3w3TgLamo0vZQ_KBbeAYsVRVH_aLMOxh0abE4fbFz4UA8faGbn9a0Xdt0maBdg4dUH9RbXSo8M0mcmLIfi8PZTpa0csVos3bsZmPJRvVJ4_JPnaayIXa4eKSiPGNA3Un0nc5mqfOCmn2pEo7OeLodSz_njU2hz4vFxini0DWeiB17-lebtnEmO4lN6B6mjdrZ-VKVXXFFt-PtZbmNEwER-OmEv_3Uz1-jevAa_4gYiYO0q9cC3kpxHpvBOcnXZmciP0ibaYeM_Hun48JYTmBLh4_uO8muoUMuIrvBtc49Z94kPOuBV1zO2xaHw8el825qcMAffiavjV_MLRC8XGfyt2tku5IcC_pI9SI32UNj-_6LohY-qm07vLZb6h4F9CnfS8dKmCjpTRqQ5dAwRVE7ef-ulx6HwcnBnHWAdgu5o23Ug7SD_ECeUAh5YYM3cxgfvAHsbAkxPfgNX9fkKQIdcmamd1wDhww_B1hjbNV6TPI_foVw3qN9KVjeDwr_MySsLGU9UqX34Y5Huk34lL0A1c6YtFlpTkTtrtzgU569FA2FA6wkIJ3L8hihwO6MffsZBRRojredTw_4sLzfYOWKbpp9NzagarL7ONqzxeUElGTRdLOrtkGQMd_Bhgu90ptANw2YfWzQSfWo1sk65Po5uoJ-wUUeK_zYyf6l6P1QDyrH6YA7RoR9dBQpNE7p2ajZRJxxaqM8pyEnf2jH4ebMTrVnLHJGLlrCdCDg7kWgG_cYPybL2kmyg8KeIc-pBu4wSnBrVvPvzC4slVv0iNImQw0vgmAd9hLwe7tzFJlJJLZjOQ73Onm9p1G4zzWqnkgpzFSMXZkWM_940VQL_zACyNOlSdvBSTE1dL7rzfjUKZjUoaR1SE1PZLuuNWZdDKaMVCDC2Ch8Utw6BHReWEjPlVwa3MRaHw_PXFfCMYs0FfFO9Jorp6gtbbDf7entPUP1pOV6XqePaEqh80laC8IkHHNImJ94zG6bXp3XVWF]--></g></svg>