<?xml version="1.0" encoding="us-ascii" standalone="no"?><svg xmlns="http://www.w3.org/2000/svg" xmlns:xlink="http://www.w3.org/1999/xlink" contentStyleType="text/css" height="1052px" preserveAspectRatio="none" style="width:963px;height:1052px;background:#FFFFFF;" version="1.1" viewBox="0 0 963 1052" width="963px" zoomAndPan="magnify"><defs/><g><!--cluster bo4e--><g id="cluster_bo4e"><path d="M678.5,6 L719.5,6 A3.75,3.75 0 0 1 722,8.5 L729,28.2969 L953.5,28.2969 A2.5,2.5 0 0 1 956,30.7969 L956,1042.5 A2.5,2.5 0 0 1 953.5,1045 L678.5,1045 A2.5,2.5 0 0 1 676,1042.5 L676,8.5 A2.5,2.5 0 0 1 678.5,6 " fill="none" style="stroke:#000000;stroke-width:1.5;"/><line style="stroke:#000000;stroke-width:1.5;" x1="676" x2="729" y1="28.2969" y2="28.2969"/><text fill="#000000" font-family="sans-serif" font-size="14" font-weight="bold" lengthAdjust="spacing" textLength="40" x="680" y="20.9951">bo4e</text></g><!--cluster bo--><g id="cluster_bo"><path d="M721,49 L787,49 A3.75,3.75 0 0 1 789.5,51.5 L796.5,71.2969 L911,71.2969 A2.5,2.5 0 0 1 913.5,73.7969 L913.5,281.5 A2.5,2.5 0 0 1 911,284 L721,284 A2.5,2.5 0 0 1 718.5,281.5 L718.5,51.5 A2.5,2.5 0 0 1 721,49 " fill="#B6D7A8" style="stroke:#000000;stroke-width:1.5;"/><line style="stroke:#000000;stroke-width:1.5;" x1="718.5" x2="796.5" y1="71.2969" y2="71.2969"/><a href="https://bo4e.github.io/BO4E-python/latest/api/bo4e.bo.html" target="_top" title="https://bo4e.github.io/BO4E-python/latest/api/bo4e.bo.html" xlink:actuate="onRequest" xlink:href="https://bo4e.github.io/BO4E-python/latest/api/bo4e.bo.html" xlink:show="new" xlink:title="https://bo4e.github.io/BO4E-python/latest/api/bo4e.bo.html" xlink:type="simple"><text fill="#0000FF" font-family="sans-serif" font-size="14" font-weight="bold" lengthAdjust="spacing" text-decoration="underline" textLength="65" x="722.5" y="63.9951">bo4e.bo</text></a></g><!--cluster com--><g id="cluster_com"><path d="M737,308 L816,308 A3.75,3.75 0 0 1 818.5,310.5 L825.5,330.2969 L895,330.2969 A2.5,2.5 0 0 1 897.5,332.7969 L897.5,394.5 A2.5,2.5 0 0 1 895,397 L737,397 A2.5,2.5 0 0 1 734.5,394.5 L734.5,310.5 A2.5,2.5 0 0 1 737,308 " fill="#E0A86C" style="stroke:#000000;stroke-width:1.5;"/><line style="stroke:#000000;stroke-width:1.5;" x1="734.5" x2="825.5" y1="330.2969" y2="330.2969"/><a href="https://bo4e.github.io/BO4E-python/latest/api/bo4e.com.html" target="_top" title="https://bo4e.github.io/BO4E-python/latest/api/bo4e.com.html" xlink:actuate="onRequest" xlink:href="https://bo4e.github.io/BO4E-python/latest/api/bo4e.com.html" xlink:show="new" xlink:title="https://bo4e.github.io/BO4E-python/latest/api/bo4e.com.html" xlink:type="simple"><text fill="#0000FF" font-family="sans-serif" font-size="14" font-weight="bold" lengthAdjust="spacing" text-decoration="underline" textLength="78" x="738.5" y="322.9951">bo4e.com</text></a></g><!--cluster enum--><g id="cluster_enum"><path d="M702.5,421 L792.5,421 A3.75,3.75 0 0 1 795,423.5 L802,443.2969 L929.5,443.2969 A2.5,2.5 0 0 1 932,445.7969 L932,1018.5 A2.5,2.5 0 0 1 929.5,1021 L702.5,1021 A2.5,2.5 0 0 1 700,1018.5 L700,423.5 A2.5,2.5 0 0 1 702.5,421 " fill="#D1C358" style="stroke:#000000;stroke-width:1.5;"/><line style="stroke:#000000;stroke-width:1.5;" x1="700" x2="802" y1="443.2969" y2="443.2969"/><a href="https://bo4e.github.io/BO4E-python/latest/api/bo4e.enum.html" target="_top" title="https://bo4e.github.io/BO4E-python/latest/api/bo4e.enum.html" xlink:actuate="onRequest" xlink:href="https://bo4e.github.io/BO4E-python/latest/api/bo4e.enum.html" xlink:show="new" xlink:title="https://bo4e.github.io/BO4E-python/latest/api/bo4e.enum.html" xlink:type="simple"><text fill="#0000FF" font-family="sans-serif" font-size="14" font-weight="bold" lengthAdjust="spacing" text-decoration="underline" textLength="89" x="704" y="435.9951">bo4e.enum</text></a></g><!--class Geschaeftspartner--><g id="elem_Geschaeftspartner"><rect codeLine="13" fill="#F1F1F1" height="37.9375" id="Geschaeftspartner" rx="2.5" ry="2.5" style="stroke:#181818;stroke-width:0.5;" width="163" x="734.5" y="84.03"/><ellipse cx="749.5" cy="102.9987" fill="#ADD1B2" rx="11" ry="11" style="stroke:#181818;stroke-width:1.0;"/><path d="M752.4688,108.6394 Q751.8906,108.9362 751.25,109.0769 Q750.6094,109.2331 749.9063,109.2331 Q747.4063,109.2331 746.0781,107.5925 Q744.7656,105.9362 744.7656,102.8112 Q744.7656,99.6862 746.0781,98.03 Q747.4063,96.3737 749.9063,96.3737 Q750.6094,96.3737 751.25,96.53 Q751.9063,96.6862 752.4688,96.9831 L752.4688,99.7019 Q751.8438,99.1237 751.25,98.8581 Q750.6563,98.5769 750.0313,98.5769 Q748.6875,98.5769 748,99.655 Q747.3125,100.7175 747.3125,102.8112 Q747.3125,104.905 748,105.9831 Q748.6875,107.0456 750.0313,107.0456 Q750.6563,107.0456 751.25,106.78 Q751.8438,106.4987 752.4688,105.9206 L752.4688,108.6394 Z " fill="#000000"/><a href="https://bo4e.github.io/BO4E-python/latest/api/bo4e.bo.html#bo4e.bo.geschaeftspartner.Geschaeftspartner" target="_top" title="https://bo4e.github.io/BO4E-python/latest/api/bo4e.bo.html#bo4e.bo.geschaeftspartner.Geschaeftspartner" xlink:actuate="onRequest" xlink:href="https://bo4e.github.io/BO4E-python/latest/api/bo4e.bo.html#bo4e.bo.geschaeftspartner.Geschaeftspartner" xlink:show="new" xlink:title="https://bo4e.github.io/BO4E-python/latest/api/bo4e.bo.html#bo4e.bo.geschaeftspartner.Geschaeftspartner" xlink:type="simple"><text fill="#0000FF" font-family="sans-serif" font-size="14" lengthAdjust="spacing" text-decoration="underline" textLength="129" x="764.5" y="102.0251">Geschaeftspartner</text></a><text fill="#000000" font-family="sans-serif" font-size="10" lengthAdjust="spacing" textLength="131" x="763.5" y="114.6091">bo4e.bo.geschaeftspartner</text></g><!--class Geraet--><g id="elem_Geraet"><rect codeLine="14" fill="#F1F1F1" height="37.9375" id="Geraet" rx="2.5" ry="2.5" style="stroke:#181818;stroke-width:0.5;" width="106" x="763" y="157.03"/><ellipse cx="778" cy="175.9987" fill="#ADD1B2" rx="11" ry="11" style="stroke:#181818;stroke-width:1.0;"/><path d="M780.9688,181.6394 Q780.3906,181.9362 779.75,182.0769 Q779.1094,182.2331 778.4063,182.2331 Q775.9063,182.2331 774.5781,180.5925 Q773.2656,178.9362 773.2656,175.8112 Q773.2656,172.6862 774.5781,171.03 Q775.9063,169.3737 778.4063,169.3737 Q779.1094,169.3737 779.75,169.53 Q780.4063,169.6862 780.9688,169.9831 L780.9688,172.7019 Q780.3438,172.1237 779.75,171.8581 Q779.1563,171.5769 778.5313,171.5769 Q777.1875,171.5769 776.5,172.655 Q775.8125,173.7175 775.8125,175.8112 Q775.8125,177.905 776.5,178.9831 Q777.1875,180.0456 778.5313,180.0456 Q779.1563,180.0456 779.75,179.78 Q780.3438,179.4987 780.9688,178.9206 L780.9688,181.6394 Z " fill="#000000"/><a href="https://bo4e.github.io/BO4E-python/latest/api/bo4e.bo.html#bo4e.bo.geraet.Geraet" target="_top" title="https://bo4e.github.io/BO4E-python/latest/api/bo4e.bo.html#bo4e.bo.geraet.Geraet" xlink:actuate="onRequest" xlink:href="https://bo4e.github.io/BO4E-python/latest/api/bo4e.bo.html#bo4e.bo.geraet.Geraet" xlink:show="new" xlink:title="https://bo4e.github.io/BO4E-python/latest/api/bo4e.bo.html#bo4e.bo.geraet.Geraet" xlink:type="simple"><text fill="#0000FF" font-family="sans-serif" font-size="14" lengthAdjust="spacing" text-decoration="underline" textLength="47" x="805.5" y="175.0251">Geraet</text></a><text fill="#000000" font-family="sans-serif" font-size="10" lengthAdjust="spacing" textLength="74" x="792" y="187.6091">bo4e.bo.geraet</text></g><!--class Geschaeftsobjekt--><g id="elem_Geschaeftsobjekt"><rect codeLine="15" fill="#F1F1F1" height="37.9375" id="Geschaeftsobjekt" rx="2.5" ry="2.5" style="stroke:#181818;stroke-width:0.5;" width="156" x="738" y="230.03"/><ellipse cx="753" cy="248.9987" fill="#ADD1B2" rx="11" ry="11" style="stroke:#181818;stroke-width:1.0;"/><path d="M755.9688,254.6394 Q755.3906,254.9362 754.75,255.0769 Q754.1094,255.2331 753.4063,255.2331 Q750.9063,255.2331 749.5781,253.5925 Q748.2656,251.9362 748.2656,248.8112 Q748.2656,245.6862 749.5781,244.03 Q750.9063,242.3737 753.4063,242.3737 Q754.1094,242.3737 754.75,242.53 Q755.4063,242.6862 755.9688,242.9831 L755.9688,245.7019 Q755.3438,245.1237 754.75,244.8581 Q754.1563,244.5769 753.5313,244.5769 Q752.1875,244.5769 751.5,245.655 Q750.8125,246.7175 750.8125,248.8112 Q750.8125,250.905 751.5,251.9831 Q752.1875,253.0456 753.5313,253.0456 Q754.1563,253.0456 754.75,252.78 Q755.3438,252.4987 755.9688,251.9206 L755.9688,254.6394 Z " fill="#000000"/><a href="https://bo4e.github.io/BO4E-python/latest/api/bo4e.bo.html#bo4e.bo.geschaeftsobjekt.Geschaeftsobjekt" target="_top" title="https://bo4e.github.io/BO4E-python/latest/api/bo4e.bo.html#bo4e.bo.geschaeftsobjekt.Geschaeftsobjekt" xlink:actuate="onRequest" xlink:href="https://bo4e.github.io/BO4E-python/latest/api/bo4e.bo.html#bo4e.bo.geschaeftsobjekt.Geschaeftsobjekt" xlink:show="new" xlink:title="https://bo4e.github.io/BO4E-python/latest/api/bo4e.bo.html#bo4e.bo.geschaeftsobjekt.Geschaeftsobjekt" xlink:type="simple"><text fill="#0000FF" font-family="sans-serif" font-size="14" lengthAdjust="spacing" text-decoration="underline" textLength="122" x="768" y="248.0251">Geschaeftsobjekt</text></a><text fill="#000000" font-family="sans-serif" font-size="10" lengthAdjust="spacing" textLength="124" x="767" y="260.6091">bo4e.bo.geschaeftsobjekt</text></g><!--class Zaehlwerk--><g id="elem_Zaehlwerk"><rect codeLine="18" fill="#F1F1F1" height="37.9375" id="Zaehlwerk" rx="2.5" ry="2.5" style="stroke:#181818;stroke-width:0.5;" width="131" x="750.5" y="343.03"/><ellipse cx="765.5" cy="361.9988" fill="#ADD1B2" rx="11" ry="11" style="stroke:#181818;stroke-width:1.0;"/><path d="M768.4688,367.6394 Q767.8906,367.9363 767.25,368.0769 Q766.6094,368.2331 765.9063,368.2331 Q763.4063,368.2331 762.0781,366.5925 Q760.7656,364.9363 760.7656,361.8113 Q760.7656,358.6863 762.0781,357.03 Q763.4063,355.3738 765.9063,355.3738 Q766.6094,355.3738 767.25,355.53 Q767.9063,355.6863 768.4688,355.9831 L768.4688,358.7019 Q767.8438,358.1238 767.25,357.8581 Q766.6563,357.5769 766.0313,357.5769 Q764.6875,357.5769 764,358.655 Q763.3125,359.7175 763.3125,361.8113 Q763.3125,363.905 764,364.9831 Q764.6875,366.0456 766.0313,366.0456 Q766.6563,366.0456 767.25,365.78 Q767.8438,365.4988 768.4688,364.9206 L768.4688,367.6394 Z " fill="#000000"/><a href="https://bo4e.github.io/BO4E-python/latest/api/bo4e.com.html#bo4e.com.zaehlwerk.Zaehlwerk" target="_top" title="https://bo4e.github.io/BO4E-python/latest/api/bo4e.com.html#bo4e.com.zaehlwerk.Zaehlwerk" xlink:actuate="onRequest" xlink:href="https://bo4e.github.io/BO4E-python/latest/api/bo4e.com.html#bo4e.com.zaehlwerk.Zaehlwerk" xlink:show="new" xlink:title="https://bo4e.github.io/BO4E-python/latest/api/bo4e.com.html#bo4e.com.zaehlwerk.Zaehlwerk" xlink:type="simple"><text fill="#0000FF" font-family="sans-serif" font-size="14" lengthAdjust="spacing" text-decoration="underline" textLength="72" x="793" y="361.0251">Zaehlwerk</text></a><text fill="#000000" font-family="sans-serif" font-size="10" lengthAdjust="spacing" textLength="99" x="779.5" y="373.6091">bo4e.com.zaehlwerk</text></g><!--class Zaehlerauspraegung--><g id="elem_Zaehlerauspraegung"><rect codeLine="21" fill="#F1F1F1" height="37.9375" id="Zaehlerauspraegung" rx="2.5" ry="2.5" style="stroke:#181818;stroke-width:0.5;" width="188" x="722" y="456.03"/><ellipse cx="737" cy="474.9988" fill="#ADD1B2" rx="11" ry="11" style="stroke:#181818;stroke-width:1.0;"/><path d="M739.9688,480.6394 Q739.3906,480.9363 738.75,481.0769 Q738.1094,481.2331 737.4063,481.2331 Q734.9063,481.2331 733.5781,479.5925 Q732.2656,477.9363 732.2656,474.8113 Q732.2656,471.6863 733.5781,470.03 Q734.9063,468.3738 737.4063,468.3738 Q738.1094,468.3738 738.75,468.53 Q739.4063,468.6863 739.9688,468.9831 L739.9688,471.7019 Q739.3438,471.1238 738.75,470.8581 Q738.1563,470.5769 737.5313,470.5769 Q736.1875,470.5769 735.5,471.655 Q734.8125,472.7175 734.8125,474.8113 Q734.8125,476.905 735.5,477.9831 Q736.1875,479.0456 737.5313,479.0456 Q738.1563,479.0456 738.75,478.78 Q739.3438,478.4988 739.9688,477.9206 L739.9688,480.6394 Z " fill="#000000"/><a href="https://bo4e.github.io/BO4E-python/latest/api/bo4e.enum.html#bo4e.enum.zaehlerauspraegung.Zaehlerauspraegung" target="_top" title="https://bo4e.github.io/BO4E-python/latest/api/bo4e.enum.html#bo4e.enum.zaehlerauspraegung.Zaehlerauspraegung" xlink:actuate="onRequest" xlink:href="https://bo4e.github.io/BO4E-python/latest/api/bo4e.enum.html#bo4e.enum.zaehlerauspraegung.Zaehlerauspraegung" xlink:show="new" xlink:title="https://bo4e.github.io/BO4E-python/latest/api/bo4e.enum.html#bo4e.enum.zaehlerauspraegung.Zaehlerauspraegung" xlink:type="simple"><text fill="#0000FF" font-family="sans-serif" font-size="14" lengthAdjust="spacing" text-decoration="underline" textLength="145" x="756.5" y="474.0251">Zaehlerauspraegung</text></a><text fill="#000000" font-family="sans-serif" font-size="10" lengthAdjust="spacing" textLength="156" x="751" y="486.6091">bo4e.enum.zaehlerauspraegung</text></g><!--class Befestigungsart--><g id="elem_Befestigungsart"><rect codeLine="22" fill="#F1F1F1" height="37.9375" id="Befestigungsart" rx="2.5" ry="2.5" style="stroke:#181818;stroke-width:0.5;" width="166" x="733" y="529.03"/><ellipse cx="748" cy="547.9988" fill="#ADD1B2" rx="11" ry="11" style="stroke:#181818;stroke-width:1.0;"/><path d="M750.9688,553.6394 Q750.3906,553.9363 749.75,554.0769 Q749.1094,554.2331 748.4063,554.2331 Q745.9063,554.2331 744.5781,552.5925 Q743.2656,550.9363 743.2656,547.8113 Q743.2656,544.6863 744.5781,543.03 Q745.9063,541.3738 748.4063,541.3738 Q749.1094,541.3738 749.75,541.53 Q750.4063,541.6863 750.9688,541.9831 L750.9688,544.7019 Q750.3438,544.1238 749.75,543.8581 Q749.1563,543.5769 748.5313,543.5769 Q747.1875,543.5769 746.5,544.655 Q745.8125,545.7175 745.8125,547.8113 Q745.8125,549.905 746.5,550.9831 Q747.1875,552.0456 748.5313,552.0456 Q749.1563,552.0456 749.75,551.78 Q750.3438,551.4988 750.9688,550.9206 L750.9688,553.6394 Z " fill="#000000"/><a href="https://bo4e.github.io/BO4E-python/latest/api/bo4e.enum.html#bo4e.enum.befestigungsart.Befestigungsart" target="_top" title="https://bo4e.github.io/BO4E-python/latest/api/bo4e.enum.html#bo4e.enum.befestigungsart.Befestigungsart" xlink:actuate="onRequest" xlink:href="https://bo4e.github.io/BO4E-python/latest/api/bo4e.enum.html#bo4e.enum.befestigungsart.Befestigungsart" xlink:show="new" xlink:title="https://bo4e.github.io/BO4E-python/latest/api/bo4e.enum.html#bo4e.enum.befestigungsart.Befestigungsart" xlink:type="simple"><text fill="#0000FF" font-family="sans-serif" font-size="14" lengthAdjust="spacing" text-decoration="underline" textLength="110" x="774" y="547.0251">Befestigungsart</text></a><text fill="#000000" font-family="sans-serif" font-size="10" lengthAdjust="spacing" textLength="134" x="762" y="559.6091">bo4e.enum.befestigungsart</text></g><!--class Registeranzahl--><g id="elem_Registeranzahl"><rect codeLine="23" fill="#F1F1F1" height="37.9375" id="Registeranzahl" rx="2.5" ry="2.5" style="stroke:#181818;stroke-width:0.5;" width="158" x="737" y="602.03"/><ellipse cx="752" cy="620.9988" fill="#ADD1B2" rx="11" ry="11" style="stroke:#181818;stroke-width:1.0;"/><path d="M754.9688,626.6394 Q754.3906,626.9363 753.75,627.0769 Q753.1094,627.2331 752.4063,627.2331 Q749.9063,627.2331 748.5781,625.5925 Q747.2656,623.9363 747.2656,620.8113 Q747.2656,617.6863 748.5781,616.03 Q749.9063,614.3738 752.4063,614.3738 Q753.1094,614.3738 753.75,614.53 Q754.4063,614.6863 754.9688,614.9831 L754.9688,617.7019 Q754.3438,617.1238 753.75,616.8581 Q753.1563,616.5769 752.5313,616.5769 Q751.1875,616.5769 750.5,617.655 Q749.8125,618.7175 749.8125,620.8113 Q749.8125,622.905 750.5,623.9831 Q751.1875,625.0456 752.5313,625.0456 Q753.1563,625.0456 753.75,624.78 Q754.3438,624.4988 754.9688,623.9206 L754.9688,626.6394 Z " fill="#000000"/><a href="https://bo4e.github.io/BO4E-python/latest/api/bo4e.enum.html#bo4e.enum.registeranzahl.Registeranzahl" target="_top" title="https://bo4e.github.io/BO4E-python/latest/api/bo4e.enum.html#bo4e.enum.registeranzahl.Registeranzahl" xlink:actuate="onRequest" xlink:href="https://bo4e.github.io/BO4E-python/latest/api/bo4e.enum.html#bo4e.enum.registeranzahl.Registeranzahl" xlink:show="new" xlink:title="https://bo4e.github.io/BO4E-python/latest/api/bo4e.enum.html#bo4e.enum.registeranzahl.Registeranzahl" xlink:type="simple"><text fill="#0000FF" font-family="sans-serif" font-size="14" lengthAdjust="spacing" text-decoration="underline" textLength="103" x="777.5" y="620.0251">Registeranzahl</text></a><text fill="#000000" font-family="sans-serif" font-size="10" lengthAdjust="spacing" textLength="126" x="766" y="632.6091">bo4e.enum.registeranzahl</text></g><!--class Sparte--><g id="elem_Sparte"><rect codeLine="24" fill="#F1F1F1" height="37.9375" id="Sparte" rx="2.5" ry="2.5" style="stroke:#181818;stroke-width:0.5;" width="121" x="755.5" y="675.03"/><ellipse cx="770.5" cy="693.9988" fill="#ADD1B2" rx="11" ry="11" style="stroke:#181818;stroke-width:1.0;"/><path d="M773.4688,699.6394 Q772.8906,699.9363 772.25,700.0769 Q771.6094,700.2331 770.9063,700.2331 Q768.4063,700.2331 767.0781,698.5925 Q765.7656,696.9363 765.7656,693.8113 Q765.7656,690.6863 767.0781,689.03 Q768.4063,687.3738 770.9063,687.3738 Q771.6094,687.3738 772.25,687.53 Q772.9063,687.6863 773.4688,687.9831 L773.4688,690.7019 Q772.8438,690.1238 772.25,689.8581 Q771.6563,689.5769 771.0313,689.5769 Q769.6875,689.5769 769,690.655 Q768.3125,691.7175 768.3125,693.8113 Q768.3125,695.905 769,696.9831 Q769.6875,698.0456 771.0313,698.0456 Q771.6563,698.0456 772.25,697.78 Q772.8438,697.4988 773.4688,696.9206 L773.4688,699.6394 Z " fill="#000000"/><a href="https://bo4e.github.io/BO4E-python/latest/api/bo4e.enum.html#bo4e.enum.sparte.Sparte" target="_top" title="https://bo4e.github.io/BO4E-python/latest/api/bo4e.enum.html#bo4e.enum.sparte.Sparte" xlink:actuate="onRequest" xlink:href="https://bo4e.github.io/BO4E-python/latest/api/bo4e.enum.html#bo4e.enum.sparte.Sparte" xlink:show="new" xlink:title="https://bo4e.github.io/BO4E-python/latest/api/bo4e.enum.html#bo4e.enum.sparte.Sparte" xlink:type="simple"><text fill="#0000FF" font-family="sans-serif" font-size="14" lengthAdjust="spacing" text-decoration="underline" textLength="45" x="806.5" y="693.0251">Sparte</text></a><text fill="#000000" font-family="sans-serif" font-size="10" lengthAdjust="spacing" textLength="89" x="784.5" y="705.6091">bo4e.enum.sparte</text></g><!--class Messwerterfassung--><g id="elem_Messwerterfassung"><rect codeLine="25" fill="#F1F1F1" height="37.9375" id="Messwerterfassung" rx="2.5" ry="2.5" style="stroke:#181818;stroke-width:0.5;" width="186" x="723" y="748.03"/><ellipse cx="738" cy="766.9988" fill="#ADD1B2" rx="11" ry="11" style="stroke:#181818;stroke-width:1.0;"/><path d="M740.9688,772.6394 Q740.3906,772.9363 739.75,773.0769 Q739.1094,773.2331 738.4063,773.2331 Q735.9063,773.2331 734.5781,771.5925 Q733.2656,769.9363 733.2656,766.8113 Q733.2656,763.6863 734.5781,762.03 Q735.9063,760.3738 738.4063,760.3738 Q739.1094,760.3738 739.75,760.53 Q740.4063,760.6863 740.9688,760.9831 L740.9688,763.7019 Q740.3438,763.1238 739.75,762.8581 Q739.1563,762.5769 738.5313,762.5769 Q737.1875,762.5769 736.5,763.655 Q735.8125,764.7175 735.8125,766.8113 Q735.8125,768.905 736.5,769.9831 Q737.1875,771.0456 738.5313,771.0456 Q739.1563,771.0456 739.75,770.78 Q740.3438,770.4988 740.9688,769.9206 L740.9688,772.6394 Z " fill="#000000"/><a href="https://bo4e.github.io/BO4E-python/latest/api/bo4e.enum.html#bo4e.enum.messwerterfassung.Messwerterfassung" target="_top" title="https://bo4e.github.io/BO4E-python/latest/api/bo4e.enum.html#bo4e.enum.messwerterfassung.Messwerterfassung" xlink:actuate="onRequest" xlink:href="https://bo4e.github.io/BO4E-python/latest/api/bo4e.enum.html#bo4e.enum.messwerterfassung.Messwerterfassung" xlink:show="new" xlink:title="https://bo4e.github.io/BO4E-python/latest/api/bo4e.enum.html#bo4e.enum.messwerterfassung.Messwerterfassung" xlink:type="simple"><text fill="#0000FF" font-family="sans-serif" font-size="14" lengthAdjust="spacing" text-decoration="underline" textLength="136" x="761" y="766.0251">Messwerterfassung</text></a><text fill="#000000" font-family="sans-serif" font-size="10" lengthAdjust="spacing" textLength="154" x="752" y="778.6091">bo4e.enum.messwerterfassung</text></g><!--class Zaehlergroesse--><g id="elem_Zaehlergroesse"><rect codeLine="26" fill="#F1F1F1" height="37.9375" id="Zaehlergroesse" rx="2.5" ry="2.5" style="stroke:#181818;stroke-width:0.5;" width="163" x="734.5" y="821.03"/><ellipse cx="749.5" cy="839.9988" fill="#ADD1B2" rx="11" ry="11" style="stroke:#181818;stroke-width:1.0;"/><path d="M752.4688,845.6394 Q751.8906,845.9363 751.25,846.0769 Q750.6094,846.2331 749.9063,846.2331 Q747.4063,846.2331 746.0781,844.5925 Q744.7656,842.9363 744.7656,839.8113 Q744.7656,836.6863 746.0781,835.03 Q747.4063,833.3738 749.9063,833.3738 Q750.6094,833.3738 751.25,833.53 Q751.9063,833.6863 752.4688,833.9831 L752.4688,836.7019 Q751.8438,836.1238 751.25,835.8581 Q750.6563,835.5769 750.0313,835.5769 Q748.6875,835.5769 748,836.655 Q747.3125,837.7175 747.3125,839.8113 Q747.3125,841.905 748,842.9831 Q748.6875,844.0456 750.0313,844.0456 Q750.6563,844.0456 751.25,843.78 Q751.8438,843.4988 752.4688,842.9206 L752.4688,845.6394 Z " fill="#000000"/><a href="https://bo4e.github.io/BO4E-python/latest/api/bo4e.enum.html#bo4e.enum.zaehlergroesse.Zaehlergroesse" target="_top" title="https://bo4e.github.io/BO4E-python/latest/api/bo4e.enum.html#bo4e.enum.zaehlergroesse.Zaehlergroesse" xlink:actuate="onRequest" xlink:href="https://bo4e.github.io/BO4E-python/latest/api/bo4e.enum.html#bo4e.enum.zaehlergroesse.Zaehlergroesse" xlink:show="new" xlink:title="https://bo4e.github.io/BO4E-python/latest/api/bo4e.enum.html#bo4e.enum.zaehlergroesse.Zaehlergroesse" xlink:type="simple"><text fill="#0000FF" font-family="sans-serif" font-size="14" lengthAdjust="spacing" text-decoration="underline" textLength="110" x="774" y="839.0251">Zaehlergroesse</text></a><text fill="#000000" font-family="sans-serif" font-size="10" lengthAdjust="spacing" textLength="131" x="763.5" y="851.6091">bo4e.enum.zaehlergroesse</text></g><!--class ZaehlertypSpezifikation--><g id="elem_ZaehlertypSpezifikation"><rect codeLine="27" fill="#F1F1F1" height="37.9375" id="ZaehlertypSpezifikation" rx="2.5" ry="2.5" style="stroke:#181818;stroke-width:0.5;" width="200" x="716" y="894.03"/><ellipse cx="731" cy="912.9988" fill="#ADD1B2" rx="11" ry="11" style="stroke:#181818;stroke-width:1.0;"/><path d="M733.9688,918.6394 Q733.3906,918.9363 732.75,919.0769 Q732.1094,919.2331 731.4063,919.2331 Q728.9063,919.2331 727.5781,917.5925 Q726.2656,915.9363 726.2656,912.8113 Q726.2656,909.6863 727.5781,908.03 Q728.9063,906.3738 731.4063,906.3738 Q732.1094,906.3738 732.75,906.53 Q733.4063,906.6863 733.9688,906.9831 L733.9688,909.7019 Q733.3438,909.1238 732.75,908.8581 Q732.1563,908.5769 731.5313,908.5769 Q730.1875,908.5769 729.5,909.655 Q728.8125,910.7175 728.8125,912.8113 Q728.8125,914.905 729.5,915.9831 Q730.1875,917.0456 731.5313,917.0456 Q732.1563,917.0456 732.75,916.78 Q733.3438,916.4988 733.9688,915.9206 L733.9688,918.6394 Z " fill="#000000"/><a href="https://bo4e.github.io/BO4E-python/latest/api/bo4e.enum.html#bo4e.enum.zaehlertypspezifikation.ZaehlertypSpezifikation" target="_top" title="https://bo4e.github.io/BO4E-python/latest/api/bo4e.enum.html#bo4e.enum.zaehlertypspezifikation.ZaehlertypSpezifikation" xlink:actuate="onRequest" xlink:href="https://bo4e.github.io/BO4E-python/latest/api/bo4e.enum.html#bo4e.enum.zaehlertypspezifikation.ZaehlertypSpezifikation" xlink:show="new" xlink:title="https://bo4e.github.io/BO4E-python/latest/api/bo4e.enum.html#bo4e.enum.zaehlertypspezifikation.ZaehlertypSpezifikation" xlink:type="simple"><text fill="#0000FF" font-family="sans-serif" font-size="14" lengthAdjust="spacing" text-decoration="underline" textLength="161" x="748.5" y="912.0251">ZaehlertypSpezifikation</text></a><text fill="#000000" font-family="sans-serif" font-size="10" lengthAdjust="spacing" textLength="168" x="745" y="924.6091">bo4e.enum.zaehlertypspezifikation</text></g><!--class Zaehlertyp--><g id="elem_Zaehlertyp"><rect codeLine="28" fill="#F1F1F1" height="37.9375" id="Zaehlertyp" rx="2.5" ry="2.5" style="stroke:#181818;stroke-width:0.5;" width="141" x="745.5" y="967.03"/><ellipse cx="760.5" cy="985.9988" fill="#ADD1B2" rx="11" ry="11" style="stroke:#181818;stroke-width:1.0;"/><path d="M763.4688,991.6394 Q762.8906,991.9363 762.25,992.0769 Q761.6094,992.2331 760.9063,992.2331 Q758.4063,992.2331 757.0781,990.5925 Q755.7656,988.9363 755.7656,985.8113 Q755.7656,982.6863 757.0781,981.03 Q758.4063,979.3738 760.9063,979.3738 Q761.6094,979.3738 762.25,979.53 Q762.9063,979.6863 763.4688,979.9831 L763.4688,982.7019 Q762.8438,982.1238 762.25,981.8581 Q761.6563,981.5769 761.0313,981.5769 Q759.6875,981.5769 759,982.655 Q758.3125,983.7175 758.3125,985.8113 Q758.3125,987.905 759,988.9831 Q759.6875,990.0456 761.0313,990.0456 Q761.6563,990.0456 762.25,989.78 Q762.8438,989.4988 763.4688,988.9206 L763.4688,991.6394 Z " fill="#000000"/><a href="https://bo4e.github.io/BO4E-python/latest/api/bo4e.enum.html#bo4e.enum.zaehlertyp.Zaehlertyp" target="_top" title="https://bo4e.github.io/BO4E-python/latest/api/bo4e.enum.html#bo4e.enum.zaehlertyp.Zaehlertyp" xlink:actuate="onRequest" xlink:href="https://bo4e.github.io/BO4E-python/latest/api/bo4e.enum.html#bo4e.enum.zaehlertyp.Zaehlertyp" xlink:show="new" xlink:title="https://bo4e.github.io/BO4E-python/latest/api/bo4e.enum.html#bo4e.enum.zaehlertyp.Zaehlertyp" xlink:type="simple"><text fill="#0000FF" font-family="sans-serif" font-size="14" lengthAdjust="spacing" text-decoration="underline" textLength="74" x="792" y="985.0251">Zaehlertyp</text></a><text fill="#000000" font-family="sans-serif" font-size="10" lengthAdjust="spacing" textLength="109" x="774.5" y="997.6091">bo4e.enum.zaehlertyp</text></g><!--class Zaehler--><g id="elem_Zaehler"><rect codeLine="3" fill="#F1F1F1" height="143.7188" id="Zaehler" rx="2.5" ry="2.5" style="stroke:#181818;stroke-width:0.5;" width="473" x="7" y="517.14"/><ellipse cx="200.75" cy="536.1088" fill="#ADD1B2" rx="11" ry="11" style="stroke:#181818;stroke-width:1.0;"/><path d="M203.7188,541.7494 Q203.1406,542.0463 202.5,542.1869 Q201.8594,542.3431 201.1563,542.3431 Q198.6563,542.3431 197.3281,540.7025 Q196.0156,539.0463 196.0156,535.9213 Q196.0156,532.7963 197.3281,531.14 Q198.6563,529.4838 201.1563,529.4838 Q201.8594,529.4838 202.5,529.64 Q203.1563,529.7963 203.7188,530.0931 L203.7188,532.8119 Q203.0938,532.2338 202.5,531.9681 Q201.9063,531.6869 201.2813,531.6869 Q199.9375,531.6869 199.25,532.765 Q198.5625,533.8275 198.5625,535.9213 Q198.5625,538.015 199.25,539.0931 Q199.9375,540.1556 201.2813,540.1556 Q201.9063,540.1556 202.5,539.89 Q203.0938,539.6088 203.7188,539.0306 L203.7188,541.7494 Z " fill="#000000"/><a href="https://bo4e.github.io/BO4E-python/latest/api/bo4e.bo.html#bo4e.bo.zaehler.Zaehler" target="_top" title="https://bo4e.github.io/BO4E-python/latest/api/bo4e.bo.html#bo4e.bo.zaehler.Zaehler" xlink:actuate="onRequest" xlink:href="https://bo4e.github.io/BO4E-python/latest/api/bo4e.bo.html#bo4e.bo.zaehler.Zaehler" xlink:show="new" xlink:title="https://bo4e.github.io/BO4E-python/latest/api/bo4e.bo.html#bo4e.bo.zaehler.Zaehler" xlink:type="simple"><text fill="#0000FF" font-family="sans-serif" font-size="14" lengthAdjust="spacing" text-decoration="underline" textLength="53" x="233.25" y="535.1351">Zaehler</text></a><text fill="#000000" font-family="sans-serif" font-size="10" lengthAdjust="spacing" textLength="77" x="221.25" y="547.7191">bo4e.bo.zaehler</text><line style="stroke:#181818;stroke-width:0.5;" x1="8" x2="479" y1="555.0775" y2="555.0775"/><text fill="#000000" font-family="sans-serif" font-size="14" lengthAdjust="spacing" textLength="461" x="13" y="572.0726">_typ : Literal[&lt;BoTyp.ZAEHLER: 'ZAEHLER'&gt;] [1] = BoTyp.ZAEHLER</text><text fill="#000000" font-family="sans-serif" font-size="14" lengthAdjust="spacing" textLength="237" x="13" y="588.3695">zaehlernummer : str [0..1] = None</text><text fill="#000000" font-family="sans-serif" font-size="14" lengthAdjust="spacing" textLength="286" x="13" y="604.6664">zaehlerkonstante : Decimal [0..1] = None</text><text fill="#000000" font-family="sans-serif" font-size="14" lengthAdjust="spacing" textLength="292" x="13" y="620.9632">eichungBis : AwareDatetime [0..1] = None</text><text fill="#000000" font-family="sans-serif" font-size="14" lengthAdjust="spacing" textLength="310" x="13" y="637.2601">letzteEichung : AwareDatetime [0..1] = None</text><text fill="#000000" font-family="sans-serif" font-size="14" lengthAdjust="spacing" textLength="250" x="13" y="653.557">istFernschaltbar : bool [0..1] = None</text></g><!--link Zaehler to Geschaeftsobjekt--><g id="link_Zaehler_Geschaeftsobjekt"><path codeLine="31" d="M342.03,516.76 C391.34,481.45 452.74,439.28 510,405 C600.96,350.55 696.8141,303.9134 756.5541,275.9834 " fill="none" id="Zaehler-to-Geschaeftsobjekt" style="stroke:#181818;stroke-width:1.0;"/><polygon fill="none" points="772.86,268.36,754.0129,270.5481,759.0952,281.4187,772.86,268.36" style="stroke:#181818;stroke-width:1.0;"/></g><!--link Zaehler to Sparte--><g id="link_Zaehler_Sparte"><path codeLine="32" d="M480.38,637.42 C490.38,639.33 500.29,641.2 510,643 C594.99,658.74 681.8589,672.9756 743.4289,682.7656 " fill="none" id="Zaehler-to-Sparte" style="stroke:#181818;stroke-width:1.0;"/><polygon fill="#181818" points="755.28,684.65,749.9826,679.7574,743.4289,682.7656,748.7263,687.6582,755.28,684.65" style="stroke:#181818;stroke-width:1.0;"/><text fill="#000000" font-family="sans-serif" font-size="13" lengthAdjust="spacing" textLength="41" x="564.5" y="639.0669">sparte</text><text fill="#000000" font-family="sans-serif" font-size="13" lengthAdjust="spacing" textLength="24" x="723.3263" y="696.522">0..1</text></g><!--link Zaehler to Zaehlerauspraegung--><g id="link_Zaehler_Zaehlerauspraegung"><path codeLine="33" d="M480.25,541.89 C565.06,524.94 644.1325,509.141 709.7525,496.031 " fill="none" id="Zaehler-to-Zaehlerauspraegung" style="stroke:#181818;stroke-width:1.0;"/><polygon fill="#181818" points="721.52,493.68,714.8526,490.933,709.7525,496.031,716.4199,498.778,721.52,493.68" style="stroke:#181818;stroke-width:1.0;"/><text fill="#000000" font-family="sans-serif" font-size="13" lengthAdjust="spacing" textLength="131" x="519.5" y="505.0669">zaehlerauspraegung</text><text fill="#000000" font-family="sans-serif" font-size="13" lengthAdjust="spacing" textLength="24" x="690.0331" y="507.5924">0..1</text></g><!--link Zaehler to Zaehlertyp--><g id="link_Zaehler_Zaehlertyp"><path codeLine="34" d="M285.73,661.15 C331.29,734.34 411.43,845.47 510,908 C582.11,953.74 667.9056,971.279 733.0956,979.109 " fill="none" id="Zaehler-to-Zaehlertyp" style="stroke:#181818;stroke-width:1.0;"/><polygon fill="#181818" points="745.01,980.54,739.5298,975.853,733.0956,979.109,738.5758,983.7959,745.01,980.54" style="stroke:#181818;stroke-width:1.0;"/><text fill="#000000" font-family="sans-serif" font-size="13" lengthAdjust="spacing" textLength="67" x="551.5" y="904.0669">zaehlertyp</text><text fill="#000000" font-family="sans-serif" font-size="13" lengthAdjust="spacing" textLength="24" x="713.6187" y="992.7946">0..1</text></g><!--link Zaehler to Zaehlwerk--><g id="link_Zaehler_Zaehlwerk"><path codeLine="35" d="M426.19,516.71 C544.92,469.47 680.2,415.6358 754.93,385.9058 " fill="none" id="Zaehler-to-Zaehlwerk" style="stroke:#181818;stroke-width:1.0;"/><polygon fill="#181818" points="766.08,381.47,759.0264,379.9712,754.93,385.9058,761.9836,387.4046,766.08,381.47" style="stroke:#181818;stroke-width:1.0;"/><text fill="#000000" font-family="sans-serif" font-size="13" lengthAdjust="spacing" textLength="71" x="549.5" y="426.0669">zaehlwerke</text><text fill="#000000" font-family="sans-serif" font-size="13" lengthAdjust="spacing" textLength="23" x="725.8056" y="401.1412">0..*</text></g><!--link Zaehler to Registeranzahl--><g id="link_Zaehler_Registeranzahl"><path codeLine="36" d="M480.41,610.14 C490.41,610.81 500.3,611.44 510,612 C586.95,616.46 662.9521,618.5362 724.5921,619.6862 " fill="none" id="Zaehler-to-Registeranzahl" style="stroke:#181818;stroke-width:1.0;"/><polygon fill="#181818" points="736.59,619.91,730.6657,615.7988,724.5921,619.6862,730.5164,623.7974,736.59,619.91" style="stroke:#181818;stroke-width:1.0;"/><text fill="#000000" font-family="sans-serif" font-size="13" lengthAdjust="spacing" textLength="91" x="539.5" y="608.0669">registeranzahl</text><text fill="#000000" font-family="sans-serif" font-size="13" lengthAdjust="spacing" textLength="24" x="705.0201" y="632.5133">0..1</text></g><!--link Zaehler to Geschaeftspartner--><g id="link_Zaehler_Geschaeftspartner"><path codeLine="37" d="M275.56,516.77 C316.87,428.82 397.94,281.33 510,195 C575.39,144.62 656.3548,123.5783 722.3848,113.2283 " fill="none" id="Zaehler-to-Geschaeftspartner" style="stroke:#181818;stroke-width:1.0;"/><polygon fill="#181818" points="734.24,111.37,727.693,108.3474,722.3848,113.2283,728.9318,116.2509,734.24,111.37" style="stroke:#181818;stroke-width:1.0;"/><text fill="#000000" font-family="sans-serif" font-size="13" lengthAdjust="spacing" textLength="107" x="531.5" y="124.0669">zaehlerhersteller</text><text fill="#000000" font-family="sans-serif" font-size="13" lengthAdjust="spacing" textLength="24" x="702.4755" y="124.7567">0..1</text></g><!--link Zaehler to Messwerterfassung--><g id="link_Zaehler_Messwerterfassung"><path codeLine="38" d="M414.9,661.34 C446.23,673.4 478.88,685.17 510,695 C580.3,717.2 649.8874,733.5979 710.8774,746.4379 " fill="none" id="Zaehler-to-Messwerterfassung" style="stroke:#181818;stroke-width:1.0;"/><polygon fill="#181818" points="722.62,748.91,717.5727,743.7597,710.8774,746.4379,715.9247,751.5881,722.62,748.91" style="stroke:#181818;stroke-width:1.0;"/><text fill="#000000" font-family="sans-serif" font-size="13" lengthAdjust="spacing" textLength="125" x="522.5" y="691.0669">messwerterfassung</text><text fill="#000000" font-family="sans-serif" font-size="13" lengthAdjust="spacing" textLength="24" x="690.8812" y="760.2042">0..1</text></g><!--link Zaehler to ZaehlertypSpezifikation--><g id="link_Zaehler_ZaehlertypSpezifikation"><path codeLine="39" d="M309.14,661.21 C359.37,713.45 433.22,782.28 510,826 C573.64,862.24 641.7291,881.8676 703.7591,894.7076 " fill="none" id="Zaehler-to-ZaehlertypSpezifikation" style="stroke:#181818;stroke-width:1.0;"/><polygon fill="#181818" points="715.51,897.14,710.4454,892.0068,703.7591,894.7076,708.8238,899.8408,715.51,897.14" style="stroke:#181818;stroke-width:1.0;"/><text fill="#000000" font-family="sans-serif" font-size="13" lengthAdjust="spacing" textLength="148" x="511" y="822.0669">zaehlertypSpezifikation</text><text fill="#000000" font-family="sans-serif" font-size="13" lengthAdjust="spacing" textLength="24" x="683.9521" y="908.6498">0..1</text></g><!--link Zaehler to Befestigungsart--><g id="link_Zaehler_Befestigungsart"><path codeLine="40" d="M480.25,572.06 C569.97,565.61 654.4609,559.5404 720.6809,554.7804 " fill="none" id="Zaehler-to-Befestigungsart" style="stroke:#181818;stroke-width:1.0;"/><polygon fill="#181818" points="732.65,553.92,726.3787,550.3605,720.6809,554.7804,726.9522,558.3399,732.65,553.92" style="stroke:#181818;stroke-width:1.0;"/><text fill="#000000" font-family="sans-serif" font-size="13" lengthAdjust="spacing" textLength="100" x="535" y="557.0669">befestigungsart</text><text fill="#000000" font-family="sans-serif" font-size="13" lengthAdjust="spacing" textLength="24" x="701.0518" y="567.0617">0..1</text></g><!--link Zaehler to Zaehlergroesse--><g id="link_Zaehler_Zaehlergroesse"><path codeLine="41" d="M340.94,661.34 C389.61,695.13 450.77,733.63 510,760 C576.48,789.61 597.6,784.56 668,803 C690.28,808.83 702.8635,812.0686 725.0935,817.6686 " fill="none" id="Zaehler-to-Zaehlergroesse" style="stroke:#181818;stroke-width:1.0;"/><polygon fill="#181818" points="736.73,820.6,731.8889,815.2555,725.0935,817.6686,729.9347,823.0131,736.73,820.6" style="stroke:#181818;stroke-width:1.0;"/><text fill="#000000" font-family="sans-serif" font-size="13" lengthAdjust="spacing" textLength="98" x="536" y="756.0669">zaehlergroesse</text><text fill="#000000" font-family="sans-serif" font-size="13" lengthAdjust="spacing" textLength="24" x="702.7473" y="814.7321">0..1</text></g><!--link Zaehler to Geraet--><g id="link_Zaehler_Geraet"><path codeLine="42" d="M303.73,516.85 C378.99,430.32 517.34,287.62 668,213 C697.71,198.28 722.0036,191.3439 750.9736,185.8039 " fill="none" id="Zaehler-to-Geraet" style="stroke:#181818;stroke-width:1.0;"/><polygon fill="#181818" points="762.76,183.55,756.1155,180.7482,750.9736,185.8039,757.6181,188.6058,762.76,183.55" style="stroke:#181818;stroke-width:1.0;"/><text fill="#000000" font-family="sans-serif" font-size="13" lengthAdjust="spacing" textLength="50" x="560" y="216.0669">geraete</text><text fill="#000000" font-family="sans-serif" font-size="13" lengthAdjust="spacing" textLength="23" x="731.8698" y="197.4594">0..*</text></g><!--SRC=[jLVVJzim47ucVyMfVK128WMDCHGnf7PqsmDi4ko9hfgSzDfu974Kkq9qs_- -StxLSGX5Qljat_7vyldhtVc8SAv02SZu8bGmuna6Yel4SOA8IGczoIHKAfNUOE2BCtGNN8LBt-LYCFf-DZvEdrKeaa7454erO2alKBvmGnL7_SfOCGmZpDo7OeLodKv_9fUIhz0xFRcoi3rWiiB17-VWbtfEmOCRhZ1ZqUHo97uyf-x3SFprPdpdmM6vExoQmkHq2X-X0N0Eoh39Ceufe0TIPJ0vSTqS-qqaM4CUHI8LInGIwXe37hF8HY8FmcMo6759cE4Jo_2Q550yHXiPeLef71VuJM0krMUYA8EGHSfdcgOlXFtrVuwJi1XboWBSxlU1qfXESxLB2_gZy-iFmmkj-YwJO87wOfHkn3nJ2QN35zi3BS-BATAAbDDldTqr_OoX8ivwWMBfOAV_L5BIstt9AFpV-AWC5Gi7s8uD6XOWIyB2IRcsRQe58ZPoZImpsSY4_lXaU77-QTjigxxJhwsyd9-edeksetTGxzgQD8wiku-sTY03KkCnTD2cAOIseJyx3Twztxhkwa_rrsRPsjXIffIH2-f5LIysND1sjMNg26UsQyEz-vluE2SCry4bbRaxQjfWsHqNiABaxAsJkwUUuO8wFEcJh5WOkNSD4vfc1-zcY9nsyzpkMUVT5DtxV85YwM1NG7DM1MxtRAWA9PKatNTEWNKUtzeUQ7awwBPYvSnRf_TMZOjCqBUmgiJIXARvUWMM8BFwIjVUMDCS9bDSyJb_P7fIhEYJ_zxqGuV_zGlPqSsRsP7sUKNZLiRdDtAtwEfPhHvwZu__NbKpLklHNiC8TmGzFV7rrcz3LNuqjnQ5jG7-GdFteDsrtnYc6BtNjtpXs56lVj6DvxOyfFSRALljq8DchtlbU4FEQfAi-OQOKPI8TfiOj3k91wqUyNR9cjLWwjVCuWq1xGUE_YUm7ggtCQhQIqsaQXJTFsOkR3xkUb1CjUWu8PyXoHBxfAiZG_44TO0vnsWc_mC0]--></g></svg>