<svg xmlns="http://www.w3.org/2000/svg" xmlns:xlink="http://www.w3.org/1999/xlink" contentStyleType="text/css" data-diagram-type="CLASS" height="979px" preserveAspectRatio="none" style="width:989px;height:979px;background:#FFFFFF;" version="1.1" viewBox="0 0 989 979" width="989px" zoomAndPan="magnify"><defs/><g><!--cluster bo4e--><g class="cluster" data-entity="bo4e" data-source-line="14" data-uid="ent0005" id="cluster_bo4e"><path d="M696.39,6 L736.266,6 A3.75,3.75 0 0 1 738.766,8.5 L745.766,28.2969 L979.5,28.2969 A2.5,2.5 0 0 1 982,30.7969 L982,969.5 A2.5,2.5 0 0 1 979.5,972 L696.39,972 A2.5,2.5 0 0 1 693.89,969.5 L693.89,8.5 A2.5,2.5 0 0 1 696.39,6" fill="none" style="stroke:#000000;stroke-width:1.5;"/><line style="stroke:#000000;stroke-width:1.5;" x1="693.89" x2="745.766" y1="28.2969" y2="28.2969"/><text fill="#000000" font-family="sans-serif" font-size="14" font-weight="bold" lengthAdjust="spacing" textLength="38.876" x="697.89" y="20.9951">bo4e</text></g><!--cluster bo--><g class="cluster" data-entity="bo" data-source-line="13" data-uid="ent0003" id="cluster_bo"><path d="M740.75,49 L805.584,49 A3.75,3.75 0 0 1 808.084,51.5 L815.084,71.2969 L935.14,71.2969 A2.5,2.5 0 0 1 937.64,73.7969 L937.64,281.5 A2.5,2.5 0 0 1 935.14,284 L740.75,284 A2.5,2.5 0 0 1 738.25,281.5 L738.25,51.5 A2.5,2.5 0 0 1 740.75,49" fill="#B6D7A8" style="stroke:#000000;stroke-width:1.5;"/><line style="stroke:#000000;stroke-width:1.5;" x1="738.25" x2="815.084" y1="71.2969" y2="71.2969"/><a href="file:////home/runner/work/BO4E-python/BO4E-python/docs/../.tox/docs/tmp/html/api/bo4e.bo.html" target="_top" title="file:////home/runner/work/BO4E-python/BO4E-python/docs/../.tox/docs/tmp/html/api/bo4e.bo.html" xlink:actuate="onRequest" xlink:href="file:////home/runner/work/BO4E-python/BO4E-python/docs/../.tox/docs/tmp/html/api/bo4e.bo.html" xlink:show="new" xlink:title="file:////home/runner/work/BO4E-python/BO4E-python/docs/../.tox/docs/tmp/html/api/bo4e.bo.html" xlink:type="simple"><text fill="#0000FF" font-family="sans-serif" font-size="14" font-weight="bold" lengthAdjust="spacing" text-decoration="underline" textLength="63.834" x="742.25" y="63.9951">bo4e.bo</text></a></g><!--cluster com--><g class="cluster" data-entity="com" data-source-line="18" data-uid="ent0008" id="cluster_com"><path d="M756.66,308 L834.3592,308 A3.75,3.75 0 0 1 836.8592,310.5 L843.8592,330.2969 L919.23,330.2969 A2.5,2.5 0 0 1 921.73,332.7969 L921.73,394.5 A2.5,2.5 0 0 1 919.23,397 L756.66,397 A2.5,2.5 0 0 1 754.16,394.5 L754.16,310.5 A2.5,2.5 0 0 1 756.66,308" fill="#E0A86C" style="stroke:#000000;stroke-width:1.5;"/><line style="stroke:#000000;stroke-width:1.5;" x1="754.16" x2="843.8592" y1="330.2969" y2="330.2969"/><a href="file:////home/runner/work/BO4E-python/BO4E-python/docs/../.tox/docs/tmp/html/api/bo4e.com.html" target="_top" title="file:////home/runner/work/BO4E-python/BO4E-python/docs/../.tox/docs/tmp/html/api/bo4e.com.html" xlink:actuate="onRequest" xlink:href="file:////home/runner/work/BO4E-python/BO4E-python/docs/../.tox/docs/tmp/html/api/bo4e.com.html" xlink:show="new" xlink:title="file:////home/runner/work/BO4E-python/BO4E-python/docs/../.tox/docs/tmp/html/api/bo4e.com.html" xlink:type="simple"><text fill="#0000FF" font-family="sans-serif" font-size="14" font-weight="bold" lengthAdjust="spacing" text-decoration="underline" textLength="76.6992" x="758.16" y="322.9951">bo4e.com</text></a></g><!--cluster enum--><g class="cluster" data-entity="enum" data-source-line="21" data-uid="ent0010" id="cluster_enum"><path d="M720.39,421 L809.6009,421 A3.75,3.75 0 0 1 812.1009,423.5 L819.1009,443.2969 L955.5,443.2969 A2.5,2.5 0 0 1 958,445.7969 L958,945.5 A2.5,2.5 0 0 1 955.5,948 L720.39,948 A2.5,2.5 0 0 1 717.89,945.5 L717.89,423.5 A2.5,2.5 0 0 1 720.39,421" fill="#D1C358" style="stroke:#000000;stroke-width:1.5;"/><line style="stroke:#000000;stroke-width:1.5;" x1="717.89" x2="819.1009" y1="443.2969" y2="443.2969"/><a href="file:////home/runner/work/BO4E-python/BO4E-python/docs/../.tox/docs/tmp/html/api/bo4e.enum.html" target="_top" title="file:////home/runner/work/BO4E-python/BO4E-python/docs/../.tox/docs/tmp/html/api/bo4e.enum.html" xlink:actuate="onRequest" xlink:href="file:////home/runner/work/BO4E-python/BO4E-python/docs/../.tox/docs/tmp/html/api/bo4e.enum.html" xlink:show="new" xlink:title="file:////home/runner/work/BO4E-python/BO4E-python/docs/../.tox/docs/tmp/html/api/bo4e.enum.html" xlink:type="simple"><text fill="#0000FF" font-family="sans-serif" font-size="14" font-weight="bold" lengthAdjust="spacing" text-decoration="underline" textLength="88.2109" x="721.89" y="435.9951">bo4e.enum</text></a></g><!--class Geraet--><g class="entity" data-entity="Geraet" data-source-line="14" data-uid="ent0004" id="entity_Geraet"><rect fill="#F1F1F1" height="37.9375" rx="2.5" ry="2.5" style="stroke:#181818;stroke-width:0.5;" width="108.6162" x="783.63" y="84.03"/><ellipse cx="798.63" cy="102.9987" fill="#ADD1B2" rx="11" ry="11" style="stroke:#181818;stroke-width:1;"/><path d="M801.5988,108.6394 Q801.0206,108.9362 800.38,109.0769 Q799.7394,109.2331 799.0363,109.2331 Q796.5363,109.2331 795.2081,107.5925 Q793.8956,105.9362 793.8956,102.8112 Q793.8956,99.6862 795.2081,98.03 Q796.5363,96.3737 799.0363,96.3737 Q799.7394,96.3737 800.38,96.53 Q801.0363,96.6862 801.5988,96.9831 L801.5988,99.7019 Q800.9738,99.1237 800.38,98.8581 Q799.7863,98.5769 799.1613,98.5769 Q797.8175,98.5769 797.13,99.655 Q796.4425,100.7175 796.4425,102.8112 Q796.4425,104.905 797.13,105.9831 Q797.8175,107.0456 799.1613,107.0456 Q799.7863,107.0456 800.38,106.78 Q800.9738,106.4987 801.5988,105.9206 L801.5988,108.6394 Z " fill="#000000"/><a href="file:////home/runner/work/BO4E-python/BO4E-python/docs/../.tox/docs/tmp/html/api/bo4e.bo.html#bo4e.bo.geraet.Geraet" target="_top" title="file:////home/runner/work/BO4E-python/BO4E-python/docs/../.tox/docs/tmp/html/api/bo4e.bo.html#bo4e.bo.geraet.Geraet" xlink:actuate="onRequest" xlink:href="file:////home/runner/work/BO4E-python/BO4E-python/docs/../.tox/docs/tmp/html/api/bo4e.bo.html#bo4e.bo.geraet.Geraet" xlink:show="new" xlink:title="file:////home/runner/work/BO4E-python/BO4E-python/docs/../.tox/docs/tmp/html/api/bo4e.bo.html#bo4e.bo.geraet.Geraet" xlink:type="simple"><text fill="#0000FF" font-family="sans-serif" font-size="14" lengthAdjust="spacing" text-decoration="underline" textLength="47.8994" x="826.9884" y="102.0251">Geraet</text></a><text fill="#000000" font-family="sans-serif" font-size="10" lengthAdjust="spacing" textLength="76.6162" x="812.63" y="114.6091">bo4e.bo.geraet</text></g><!--class Geschaeftspartner--><g class="entity" data-entity="Geschaeftspartner" data-source-line="15" data-uid="ent0006" id="entity_Geschaeftspartner"><rect fill="#F1F1F1" height="37.9375" rx="2.5" ry="2.5" style="stroke:#181818;stroke-width:0.5;" width="167.3906" x="754.25" y="157.03"/><ellipse cx="769.25" cy="175.9987" fill="#ADD1B2" rx="11" ry="11" style="stroke:#181818;stroke-width:1;"/><path d="M772.2188,181.6394 Q771.6406,181.9362 771,182.0769 Q770.3594,182.2331 769.6563,182.2331 Q767.1563,182.2331 765.8281,180.5925 Q764.5156,178.9362 764.5156,175.8112 Q764.5156,172.6862 765.8281,171.03 Q767.1563,169.3737 769.6563,169.3737 Q770.3594,169.3737 771,169.53 Q771.6563,169.6862 772.2188,169.9831 L772.2188,172.7019 Q771.5938,172.1237 771,171.8581 Q770.4063,171.5769 769.7813,171.5769 Q768.4375,171.5769 767.75,172.655 Q767.0625,173.7175 767.0625,175.8112 Q767.0625,177.905 767.75,178.9831 Q768.4375,180.0456 769.7813,180.0456 Q770.4063,180.0456 771,179.78 Q771.5938,179.4987 772.2188,178.9206 L772.2188,181.6394 Z " fill="#000000"/><a href="file:////home/runner/work/BO4E-python/BO4E-python/docs/../.tox/docs/tmp/html/api/bo4e.bo.html#bo4e.bo.geschaeftspartner.Geschaeftspartner" target="_top" title="file:////home/runner/work/BO4E-python/BO4E-python/docs/../.tox/docs/tmp/html/api/bo4e.bo.html#bo4e.bo.geschaeftspartner.Geschaeftspartner" xlink:actuate="onRequest" xlink:href="file:////home/runner/work/BO4E-python/BO4E-python/docs/../.tox/docs/tmp/html/api/bo4e.bo.html#bo4e.bo.geschaeftspartner.Geschaeftspartner" xlink:show="new" xlink:title="file:////home/runner/work/BO4E-python/BO4E-python/docs/../.tox/docs/tmp/html/api/bo4e.bo.html#bo4e.bo.geschaeftspartner.Geschaeftspartner" xlink:type="simple"><text fill="#0000FF" font-family="sans-serif" font-size="14" lengthAdjust="spacing" text-decoration="underline" textLength="130.1836" x="785.8535" y="175.0251">Geschaeftspartner</text></a><text fill="#000000" font-family="sans-serif" font-size="10" lengthAdjust="spacing" textLength="135.3906" x="783.25" y="187.6091">bo4e.bo.geschaeftspartner</text></g><!--class Geschaeftsobjekt--><g class="entity" data-entity="Geschaeftsobjekt" data-source-line="16" data-uid="ent0007" id="entity_Geschaeftsobjekt"><rect fill="#F1F1F1" height="37.9375" rx="2.5" ry="2.5" style="stroke:#181818;stroke-width:0.5;" width="161.3896" x="757.25" y="230.03"/><ellipse cx="772.25" cy="248.9987" fill="#ADD1B2" rx="11" ry="11" style="stroke:#181818;stroke-width:1;"/><path d="M775.2188,254.6394 Q774.6406,254.9362 774,255.0769 Q773.3594,255.2331 772.6563,255.2331 Q770.1563,255.2331 768.8281,253.5925 Q767.5156,251.9362 767.5156,248.8112 Q767.5156,245.6862 768.8281,244.03 Q770.1563,242.3737 772.6563,242.3737 Q773.3594,242.3737 774,242.53 Q774.6563,242.6862 775.2188,242.9831 L775.2188,245.7019 Q774.5938,245.1237 774,244.8581 Q773.4063,244.5769 772.7813,244.5769 Q771.4375,244.5769 770.75,245.655 Q770.0625,246.7175 770.0625,248.8112 Q770.0625,250.905 770.75,251.9831 Q771.4375,253.0456 772.7813,253.0456 Q773.4063,253.0456 774,252.78 Q774.5938,252.4987 775.2188,251.9206 L775.2188,254.6394 Z " fill="#000000"/><a href="file:////home/runner/work/BO4E-python/BO4E-python/docs/../.tox/docs/tmp/html/api/bo4e.bo.html#bo4e.bo.geschaeftsobjekt.Geschaeftsobjekt" target="_top" title="file:////home/runner/work/BO4E-python/BO4E-python/docs/../.tox/docs/tmp/html/api/bo4e.bo.html#bo4e.bo.geschaeftsobjekt.Geschaeftsobjekt" xlink:actuate="onRequest" xlink:href="file:////home/runner/work/BO4E-python/BO4E-python/docs/../.tox/docs/tmp/html/api/bo4e.bo.html#bo4e.bo.geschaeftsobjekt.Geschaeftsobjekt" xlink:show="new" xlink:title="file:////home/runner/work/BO4E-python/BO4E-python/docs/../.tox/docs/tmp/html/api/bo4e.bo.html#bo4e.bo.geschaeftsobjekt.Geschaeftsobjekt" xlink:type="simple"><text fill="#0000FF" font-family="sans-serif" font-size="14" lengthAdjust="spacing" text-decoration="underline" textLength="121.7822" x="790.0537" y="248.0251">Geschaeftsobjekt</text></a><text fill="#000000" font-family="sans-serif" font-size="10" lengthAdjust="spacing" textLength="129.3896" x="786.25" y="260.6091">bo4e.bo.geschaeftsobjekt</text></g><!--class Zaehlwerk--><g class="entity" data-entity="Zaehlwerk" data-source-line="19" data-uid="ent0009" id="entity_Zaehlwerk"><rect fill="#F1F1F1" height="37.9375" rx="2.5" ry="2.5" style="stroke:#181818;stroke-width:0.5;" width="135.5742" x="770.16" y="343.03"/><ellipse cx="785.16" cy="361.9988" fill="#ADD1B2" rx="11" ry="11" style="stroke:#181818;stroke-width:1;"/><path d="M788.1288,367.6394 Q787.5506,367.9363 786.91,368.0769 Q786.2694,368.2331 785.5663,368.2331 Q783.0663,368.2331 781.7381,366.5925 Q780.4256,364.9363 780.4256,361.8113 Q780.4256,358.6863 781.7381,357.03 Q783.0663,355.3738 785.5663,355.3738 Q786.2694,355.3738 786.91,355.53 Q787.5663,355.6863 788.1288,355.9831 L788.1288,358.7019 Q787.5038,358.1238 786.91,357.8581 Q786.3163,357.5769 785.6913,357.5769 Q784.3475,357.5769 783.66,358.655 Q782.9725,359.7175 782.9725,361.8113 Q782.9725,363.905 783.66,364.9831 Q784.3475,366.0456 785.6913,366.0456 Q786.3163,366.0456 786.91,365.78 Q787.5038,365.4988 788.1288,364.9206 L788.1288,367.6394 Z " fill="#000000"/><a href="file:////home/runner/work/BO4E-python/BO4E-python/docs/../.tox/docs/tmp/html/api/bo4e.com.html#bo4e.com.zaehlwerk.Zaehlwerk" target="_top" title="file:////home/runner/work/BO4E-python/BO4E-python/docs/../.tox/docs/tmp/html/api/bo4e.com.html#bo4e.com.zaehlwerk.Zaehlwerk" xlink:actuate="onRequest" xlink:href="file:////home/runner/work/BO4E-python/BO4E-python/docs/../.tox/docs/tmp/html/api/bo4e.com.html#bo4e.com.zaehlwerk.Zaehlwerk" xlink:show="new" xlink:title="file:////home/runner/work/BO4E-python/BO4E-python/docs/../.tox/docs/tmp/html/api/bo4e.com.html#bo4e.com.zaehlwerk.Zaehlwerk" xlink:type="simple"><text fill="#0000FF" font-family="sans-serif" font-size="14" lengthAdjust="spacing" text-decoration="underline" textLength="73.4727" x="814.2108" y="361.0251">Zaehlwerk</text></a><text fill="#000000" font-family="sans-serif" font-size="10" lengthAdjust="spacing" textLength="103.5742" x="799.16" y="373.6091">bo4e.com.zaehlwerk</text></g><!--class Registeranzahl--><g class="entity" data-entity="Registeranzahl" data-source-line="22" data-uid="ent0011" id="entity_Registeranzahl"><rect fill="#F1F1F1" height="37.9375" rx="2.5" ry="2.5" style="stroke:#181818;stroke-width:0.5;" width="163.6504" x="756.12" y="456.03"/><ellipse cx="771.12" cy="474.9988" fill="#ADD1B2" rx="11" ry="11" style="stroke:#181818;stroke-width:1;"/><path d="M774.0888,480.6394 Q773.5106,480.9363 772.87,481.0769 Q772.2294,481.2331 771.5263,481.2331 Q769.0263,481.2331 767.6981,479.5925 Q766.3856,477.9363 766.3856,474.8113 Q766.3856,471.6863 767.6981,470.03 Q769.0263,468.3738 771.5263,468.3738 Q772.2294,468.3738 772.87,468.53 Q773.5263,468.6863 774.0888,468.9831 L774.0888,471.7019 Q773.4638,471.1238 772.87,470.8581 Q772.2763,470.5769 771.6513,470.5769 Q770.3075,470.5769 769.62,471.655 Q768.9325,472.7175 768.9325,474.8113 Q768.9325,476.905 769.62,477.9831 Q770.3075,479.0456 771.6513,479.0456 Q772.2763,479.0456 772.87,478.78 Q773.4638,478.4988 774.0888,477.9206 L774.0888,480.6394 Z " fill="#000000"/><a href="file:////home/runner/work/BO4E-python/BO4E-python/docs/../.tox/docs/tmp/html/api/bo4e.enum.html#bo4e.enum.registeranzahl.Registeranzahl" target="_top" title="file:////home/runner/work/BO4E-python/BO4E-python/docs/../.tox/docs/tmp/html/api/bo4e.enum.html#bo4e.enum.registeranzahl.Registeranzahl" xlink:actuate="onRequest" xlink:href="file:////home/runner/work/BO4E-python/BO4E-python/docs/../.tox/docs/tmp/html/api/bo4e.enum.html#bo4e.enum.registeranzahl.Registeranzahl" xlink:show="new" xlink:title="file:////home/runner/work/BO4E-python/BO4E-python/docs/../.tox/docs/tmp/html/api/bo4e.enum.html#bo4e.enum.registeranzahl.Registeranzahl" xlink:type="simple"><text fill="#0000FF" font-family="sans-serif" font-size="14" lengthAdjust="spacing" text-decoration="underline" textLength="104.4121" x="798.7391" y="474.0251">Registeranzahl</text></a><text fill="#000000" font-family="sans-serif" font-size="10" lengthAdjust="spacing" textLength="131.6504" x="785.12" y="486.6091">bo4e.enum.registeranzahl</text></g><!--class Zaehlerauspraegung--><g class="entity" data-entity="Zaehlerauspraegung" data-source-line="23" data-uid="ent0012" id="entity_Zaehlerauspraegung"><rect fill="#F1F1F1" height="37.9375" rx="2.5" ry="2.5" style="stroke:#181818;stroke-width:0.5;" width="194.6025" x="740.64" y="529.03"/><ellipse cx="755.64" cy="547.9988" fill="#ADD1B2" rx="11" ry="11" style="stroke:#181818;stroke-width:1;"/><path d="M758.6088,553.6394 Q758.0306,553.9363 757.39,554.0769 Q756.7494,554.2331 756.0463,554.2331 Q753.5463,554.2331 752.2181,552.5925 Q750.9056,550.9363 750.9056,547.8113 Q750.9056,544.6863 752.2181,543.03 Q753.5463,541.3738 756.0463,541.3738 Q756.7494,541.3738 757.39,541.53 Q758.0463,541.6863 758.6088,541.9831 L758.6088,544.7019 Q757.9838,544.1238 757.39,543.8581 Q756.7963,543.5769 756.1713,543.5769 Q754.8275,543.5769 754.14,544.655 Q753.4525,545.7175 753.4525,547.8113 Q753.4525,549.905 754.14,550.9831 Q754.8275,552.0456 756.1713,552.0456 Q756.7963,552.0456 757.39,551.78 Q757.9838,551.4988 758.6088,550.9206 L758.6088,553.6394 Z " fill="#000000"/><a href="file:////home/runner/work/BO4E-python/BO4E-python/docs/../.tox/docs/tmp/html/api/bo4e.enum.html#bo4e.enum.zaehlerauspraegung.Zaehlerauspraegung" target="_top" title="file:////home/runner/work/BO4E-python/BO4E-python/docs/../.tox/docs/tmp/html/api/bo4e.enum.html#bo4e.enum.zaehlerauspraegung.Zaehlerauspraegung" xlink:actuate="onRequest" xlink:href="file:////home/runner/work/BO4E-python/BO4E-python/docs/../.tox/docs/tmp/html/api/bo4e.enum.html#bo4e.enum.zaehlerauspraegung.Zaehlerauspraegung" xlink:show="new" xlink:title="file:////home/runner/work/BO4E-python/BO4E-python/docs/../.tox/docs/tmp/html/api/bo4e.enum.html#bo4e.enum.zaehlerauspraegung.Zaehlerauspraegung" xlink:type="simple"><text fill="#0000FF" font-family="sans-serif" font-size="14" lengthAdjust="spacing" text-decoration="underline" textLength="146.0156" x="777.9335" y="547.0251">Zaehlerauspraegung</text></a><text fill="#000000" font-family="sans-serif" font-size="10" lengthAdjust="spacing" textLength="162.6025" x="769.64" y="559.6091">bo4e.enum.zaehlerauspraegung</text></g><!--class ZaehlertypSpezifikation--><g class="entity" data-entity="ZaehlertypSpezifikation" data-source-line="24" data-uid="ent0013" id="entity_ZaehlertypSpezifikation"><rect fill="#F1F1F1" height="37.9375" rx="2.5" ry="2.5" style="stroke:#181818;stroke-width:0.5;" width="208.1133" x="733.89" y="602.03"/><ellipse cx="748.89" cy="620.9988" fill="#ADD1B2" rx="11" ry="11" style="stroke:#181818;stroke-width:1;"/><path d="M751.8588,626.6394 Q751.2806,626.9363 750.64,627.0769 Q749.9994,627.2331 749.2963,627.2331 Q746.7963,627.2331 745.4681,625.5925 Q744.1556,623.9363 744.1556,620.8113 Q744.1556,617.6863 745.4681,616.03 Q746.7963,614.3738 749.2963,614.3738 Q749.9994,614.3738 750.64,614.53 Q751.2963,614.6863 751.8588,614.9831 L751.8588,617.7019 Q751.2338,617.1238 750.64,616.8581 Q750.0463,616.5769 749.4213,616.5769 Q748.0775,616.5769 747.39,617.655 Q746.7025,618.7175 746.7025,620.8113 Q746.7025,622.905 747.39,623.9831 Q748.0775,625.0456 749.4213,625.0456 Q750.0463,625.0456 750.64,624.78 Q751.2338,624.4988 751.8588,623.9206 L751.8588,626.6394 Z " fill="#000000"/><a href="file:////home/runner/work/BO4E-python/BO4E-python/docs/../.tox/docs/tmp/html/api/bo4e.enum.html#bo4e.enum.zaehlertypspezifikation.ZaehlertypSpezifikation" target="_top" title="file:////home/runner/work/BO4E-python/BO4E-python/docs/../.tox/docs/tmp/html/api/bo4e.enum.html#bo4e.enum.zaehlertypspezifikation.ZaehlertypSpezifikation" xlink:actuate="onRequest" xlink:href="file:////home/runner/work/BO4E-python/BO4E-python/docs/../.tox/docs/tmp/html/api/bo4e.enum.html#bo4e.enum.zaehlertypspezifikation.ZaehlertypSpezifikation" xlink:show="new" xlink:title="file:////home/runner/work/BO4E-python/BO4E-python/docs/../.tox/docs/tmp/html/api/bo4e.enum.html#bo4e.enum.zaehlertypspezifikation.ZaehlertypSpezifikation" xlink:type="simple"><text fill="#0000FF" font-family="sans-serif" font-size="14" lengthAdjust="spacing" text-decoration="underline" textLength="166.5234" x="767.6849" y="620.0251">ZaehlertypSpezifikation</text></a><text fill="#000000" font-family="sans-serif" font-size="10" lengthAdjust="spacing" textLength="176.1133" x="762.89" y="632.6091">bo4e.enum.zaehlertypspezifikation</text></g><!--class Zaehlergroesse--><g class="entity" data-entity="Zaehlergroesse" data-source-line="25" data-uid="ent0014" id="entity_Zaehlergroesse"><rect fill="#F1F1F1" height="37.9375" rx="2.5" ry="2.5" style="stroke:#181818;stroke-width:0.5;" width="168.1182" x="753.88" y="675.03"/><ellipse cx="768.88" cy="693.9988" fill="#ADD1B2" rx="11" ry="11" style="stroke:#181818;stroke-width:1;"/><path d="M771.8488,699.6394 Q771.2706,699.9363 770.63,700.0769 Q769.9894,700.2331 769.2863,700.2331 Q766.7863,700.2331 765.4581,698.5925 Q764.1456,696.9363 764.1456,693.8113 Q764.1456,690.6863 765.4581,689.03 Q766.7863,687.3738 769.2863,687.3738 Q769.9894,687.3738 770.63,687.53 Q771.2863,687.6863 771.8488,687.9831 L771.8488,690.7019 Q771.2238,690.1238 770.63,689.8581 Q770.0363,689.5769 769.4113,689.5769 Q768.0675,689.5769 767.38,690.655 Q766.6925,691.7175 766.6925,693.8113 Q766.6925,695.905 767.38,696.9831 Q768.0675,698.0456 769.4113,698.0456 Q770.0363,698.0456 770.63,697.78 Q771.2238,697.4988 771.8488,696.9206 L771.8488,699.6394 Z " fill="#000000"/><a href="file:////home/runner/work/BO4E-python/BO4E-python/docs/../.tox/docs/tmp/html/api/bo4e.enum.html#bo4e.enum.zaehlergroesse.Zaehlergroesse" target="_top" title="file:////home/runner/work/BO4E-python/BO4E-python/docs/../.tox/docs/tmp/html/api/bo4e.enum.html#bo4e.enum.zaehlergroesse.Zaehlergroesse" xlink:actuate="onRequest" xlink:href="file:////home/runner/work/BO4E-python/BO4E-python/docs/../.tox/docs/tmp/html/api/bo4e.enum.html#bo4e.enum.zaehlergroesse.Zaehlergroesse" xlink:show="new" xlink:title="file:////home/runner/work/BO4E-python/BO4E-python/docs/../.tox/docs/tmp/html/api/bo4e.enum.html#bo4e.enum.zaehlergroesse.Zaehlergroesse" xlink:type="simple"><text fill="#0000FF" font-family="sans-serif" font-size="14" lengthAdjust="spacing" text-decoration="underline" textLength="108.9375" x="796.4703" y="693.0251">Zaehlergroesse</text></a><text fill="#000000" font-family="sans-serif" font-size="10" lengthAdjust="spacing" textLength="136.1182" x="782.88" y="705.6091">bo4e.enum.zaehlergroesse</text></g><!--class Befestigungsart--><g class="entity" data-entity="Befestigungsart" data-source-line="26" data-uid="ent0015" id="entity_Befestigungsart"><rect fill="#F1F1F1" height="37.9375" rx="2.5" ry="2.5" style="stroke:#181818;stroke-width:0.5;" width="170.7305" x="752.58" y="748.03"/><ellipse cx="767.58" cy="766.9988" fill="#ADD1B2" rx="11" ry="11" style="stroke:#181818;stroke-width:1;"/><path d="M770.5488,772.6394 Q769.9706,772.9363 769.33,773.0769 Q768.6894,773.2331 767.9863,773.2331 Q765.4863,773.2331 764.1581,771.5925 Q762.8456,769.9363 762.8456,766.8113 Q762.8456,763.6863 764.1581,762.03 Q765.4863,760.3738 767.9863,760.3738 Q768.6894,760.3738 769.33,760.53 Q769.9863,760.6863 770.5488,760.9831 L770.5488,763.7019 Q769.9238,763.1238 769.33,762.8581 Q768.7363,762.5769 768.1113,762.5769 Q766.7675,762.5769 766.08,763.655 Q765.3925,764.7175 765.3925,766.8113 Q765.3925,768.905 766.08,769.9831 Q766.7675,771.0456 768.1113,771.0456 Q768.7363,771.0456 769.33,770.78 Q769.9238,770.4988 770.5488,769.9206 L770.5488,772.6394 Z " fill="#000000"/><a href="file:////home/runner/work/BO4E-python/BO4E-python/docs/../.tox/docs/tmp/html/api/bo4e.enum.html#bo4e.enum.befestigungsart.Befestigungsart" target="_top" title="file:////home/runner/work/BO4E-python/BO4E-python/docs/../.tox/docs/tmp/html/api/bo4e.enum.html#bo4e.enum.befestigungsart.Befestigungsart" xlink:actuate="onRequest" xlink:href="file:////home/runner/work/BO4E-python/BO4E-python/docs/../.tox/docs/tmp/html/api/bo4e.enum.html#bo4e.enum.befestigungsart.Befestigungsart" xlink:show="new" xlink:title="file:////home/runner/work/BO4E-python/BO4E-python/docs/../.tox/docs/tmp/html/api/bo4e.enum.html#bo4e.enum.befestigungsart.Befestigungsart" xlink:type="simple"><text fill="#0000FF" font-family="sans-serif" font-size="14" lengthAdjust="spacing" text-decoration="underline" textLength="111.0703" x="795.4101" y="766.0251">Befestigungsart</text></a><text fill="#000000" font-family="sans-serif" font-size="10" lengthAdjust="spacing" textLength="138.7305" x="781.58" y="778.6091">bo4e.enum.befestigungsart</text></g><!--class Sparte--><g class="entity" data-entity="Sparte" data-source-line="27" data-uid="ent0016" id="entity_Sparte"><rect fill="#F1F1F1" height="37.9375" rx="2.5" ry="2.5" style="stroke:#181818;stroke-width:0.5;" width="123.7773" x="776.05" y="821.03"/><ellipse cx="791.05" cy="839.9988" fill="#ADD1B2" rx="11" ry="11" style="stroke:#181818;stroke-width:1;"/><path d="M794.0188,845.6394 Q793.4406,845.9363 792.8,846.0769 Q792.1594,846.2331 791.4563,846.2331 Q788.9563,846.2331 787.6281,844.5925 Q786.3156,842.9363 786.3156,839.8113 Q786.3156,836.6863 787.6281,835.03 Q788.9563,833.3738 791.4563,833.3738 Q792.1594,833.3738 792.8,833.53 Q793.4563,833.6863 794.0188,833.9831 L794.0188,836.7019 Q793.3938,836.1238 792.8,835.8581 Q792.2063,835.5769 791.5813,835.5769 Q790.2375,835.5769 789.55,836.655 Q788.8625,837.7175 788.8625,839.8113 Q788.8625,841.905 789.55,842.9831 Q790.2375,844.0456 791.5813,844.0456 Q792.2063,844.0456 792.8,843.78 Q793.3938,843.4988 794.0188,842.9206 L794.0188,845.6394 Z " fill="#000000"/><a href="file:////home/runner/work/BO4E-python/BO4E-python/docs/../.tox/docs/tmp/html/api/bo4e.enum.html#bo4e.enum.sparte.Sparte" target="_top" title="file:////home/runner/work/BO4E-python/BO4E-python/docs/../.tox/docs/tmp/html/api/bo4e.enum.html#bo4e.enum.sparte.Sparte" xlink:actuate="onRequest" xlink:href="file:////home/runner/work/BO4E-python/BO4E-python/docs/../.tox/docs/tmp/html/api/bo4e.enum.html#bo4e.enum.sparte.Sparte" xlink:show="new" xlink:title="file:////home/runner/work/BO4E-python/BO4E-python/docs/../.tox/docs/tmp/html/api/bo4e.enum.html#bo4e.enum.sparte.Sparte" xlink:type="simple"><text fill="#0000FF" font-family="sans-serif" font-size="14" lengthAdjust="spacing" text-decoration="underline" textLength="46.2109" x="827.8332" y="839.0251">Sparte</text></a><text fill="#000000" font-family="sans-serif" font-size="10" lengthAdjust="spacing" textLength="91.7773" x="805.05" y="851.6091">bo4e.enum.sparte</text></g><!--class Zaehlertyp--><g class="entity" data-entity="Zaehlertyp" data-source-line="28" data-uid="ent0017" id="entity_Zaehlertyp"><rect fill="#F1F1F1" height="37.9375" rx="2.5" ry="2.5" style="stroke:#181818;stroke-width:0.5;" width="145.0029" x="765.44" y="894.03"/><ellipse cx="780.44" cy="912.9988" fill="#ADD1B2" rx="11" ry="11" style="stroke:#181818;stroke-width:1;"/><path d="M783.4088,918.6394 Q782.8306,918.9363 782.19,919.0769 Q781.5494,919.2331 780.8463,919.2331 Q778.3463,919.2331 777.0181,917.5925 Q775.7056,915.9363 775.7056,912.8113 Q775.7056,909.6863 777.0181,908.03 Q778.3463,906.3738 780.8463,906.3738 Q781.5494,906.3738 782.19,906.53 Q782.8463,906.6863 783.4088,906.9831 L783.4088,909.7019 Q782.7838,909.1238 782.19,908.8581 Q781.5963,908.5769 780.9713,908.5769 Q779.6275,908.5769 778.94,909.655 Q778.2525,910.7175 778.2525,912.8113 Q778.2525,914.905 778.94,915.9831 Q779.6275,917.0456 780.9713,917.0456 Q781.5963,917.0456 782.19,916.78 Q782.7838,916.4988 783.4088,915.9206 L783.4088,918.6394 Z " fill="#000000"/><a href="file:////home/runner/work/BO4E-python/BO4E-python/docs/../.tox/docs/tmp/html/api/bo4e.enum.html#bo4e.enum.zaehlertyp.Zaehlertyp" target="_top" title="file:////home/runner/work/BO4E-python/BO4E-python/docs/../.tox/docs/tmp/html/api/bo4e.enum.html#bo4e.enum.zaehlertyp.Zaehlertyp" xlink:actuate="onRequest" xlink:href="file:////home/runner/work/BO4E-python/BO4E-python/docs/../.tox/docs/tmp/html/api/bo4e.enum.html#bo4e.enum.zaehlertyp.Zaehlertyp" xlink:show="new" xlink:title="file:////home/runner/work/BO4E-python/BO4E-python/docs/../.tox/docs/tmp/html/api/bo4e.enum.html#bo4e.enum.zaehlertyp.Zaehlertyp" xlink:type="simple"><text fill="#0000FF" font-family="sans-serif" font-size="14" lengthAdjust="spacing" text-decoration="underline" textLength="76.5762" x="812.6534" y="912.0251">Zaehlertyp</text></a><text fill="#000000" font-family="sans-serif" font-size="10" lengthAdjust="spacing" textLength="113.0029" x="794.44" y="924.6091">bo4e.enum.zaehlertyp</text></g><!--class Zaehler--><g class="entity" data-entity="Zaehler" data-source-line="3" data-uid="ent0002" id="entity_Zaehler"><rect fill="#F1F1F1" height="160.0156" rx="2.5" ry="2.5" style="stroke:#181818;stroke-width:0.5;" width="486.8857" x="7" y="467.99"/><ellipse cx="205.8364" cy="486.9588" fill="#ADD1B2" rx="11" ry="11" style="stroke:#181818;stroke-width:1;"/><path d="M208.8052,492.5994 Q208.2271,492.8963 207.5864,493.0369 Q206.9458,493.1931 206.2427,493.1931 Q203.7427,493.1931 202.4146,491.5525 Q201.1021,489.8963 201.1021,486.7713 Q201.1021,483.6463 202.4146,481.99 Q203.7427,480.3338 206.2427,480.3338 Q206.9458,480.3338 207.5864,480.49 Q208.2427,480.6463 208.8052,480.9431 L208.8052,483.6619 Q208.1802,483.0838 207.5864,482.8181 Q206.9927,482.5369 206.3677,482.5369 Q205.0239,482.5369 204.3364,483.615 Q203.6489,484.6775 203.6489,486.7713 Q203.6489,488.865 204.3364,489.9431 Q205.0239,491.0056 206.3677,491.0056 Q206.9927,491.0056 207.5864,490.74 Q208.1802,490.4588 208.8052,489.8806 L208.8052,492.5994 Z " fill="#000000"/><a href="file:////home/runner/work/BO4E-python/BO4E-python/docs/../.tox/docs/tmp/html/api/bo4e.bo.html#bo4e.bo.zaehler.Zaehler" target="_top" title="file:////home/runner/work/BO4E-python/BO4E-python/docs/../.tox/docs/tmp/html/api/bo4e.bo.html#bo4e.bo.zaehler.Zaehler" xlink:actuate="onRequest" xlink:href="file:////home/runner/work/BO4E-python/BO4E-python/docs/../.tox/docs/tmp/html/api/bo4e.bo.html#bo4e.bo.zaehler.Zaehler" xlink:show="new" xlink:title="file:////home/runner/work/BO4E-python/BO4E-python/docs/../.tox/docs/tmp/html/api/bo4e.bo.html#bo4e.bo.zaehler.Zaehler" xlink:type="simple"><text fill="#0000FF" font-family="sans-serif" font-size="14" lengthAdjust="spacing" text-decoration="underline" textLength="53.915" x="239.7354" y="485.9851">Zaehler</text></a><text fill="#000000" font-family="sans-serif" font-size="10" lengthAdjust="spacing" textLength="80.7129" x="226.3364" y="498.5691">bo4e.bo.zaehler</text><line style="stroke:#181818;stroke-width:0.5;" x1="8" x2="492.8857" y1="505.9275" y2="505.9275"/><text fill="#000000" font-family="sans-serif" font-size="14" lengthAdjust="spacing" textLength="474.8857" x="13" y="522.9226">_typ : Literal[&lt;BoTyp.ZAEHLER: 'ZAEHLER'&gt;] [1] = BoTyp.ZAEHLER</text><text fill="#000000" font-family="sans-serif" font-size="14" lengthAdjust="spacing" textLength="242.4639" x="13" y="539.2195">zaehlernummer : str [0..1] = None</text><text fill="#000000" font-family="sans-serif" font-size="14" lengthAdjust="spacing" textLength="291.5049" x="13" y="555.5164">zaehlerkonstante : Decimal [0..1] = None</text><text fill="#000000" font-family="sans-serif" font-size="14" lengthAdjust="spacing" textLength="298.4229" x="13" y="571.8132">eichungBis : AwareDatetime [0..1] = None</text><text fill="#000000" font-family="sans-serif" font-size="14" lengthAdjust="spacing" textLength="317.3105" x="13" y="588.1101">letzteEichung : AwareDatetime [0..1] = None</text><text fill="#000000" font-family="sans-serif" font-size="14" lengthAdjust="spacing" textLength="255.7803" x="13" y="604.407">istFernschaltbar : bool [0..1] = None</text><text fill="#000000" font-family="sans-serif" font-size="14" lengthAdjust="spacing" textLength="258.501" x="13" y="620.7039">istFernauslesbar : bool [0..1] = None</text></g><!--link Zaehler to Geschaeftsobjekt--><g class="link" data-entity-1="Zaehler" data-entity-2="Geschaeftsobjekt" data-source-line="31" data-uid="lnk18" id="link_Zaehler_Geschaeftsobjekt"><path codeLine="31" d="M386.25,467.56 C429.73,442.5 478.43,415.34 523.89,392 C617.04,344.18 712.8248,301.9093 774.4148,275.5193" fill="none" id="Zaehler-to-Geschaeftsobjekt" style="stroke:#181818;stroke-width:1;"/><polygon fill="none" points="790.96,268.43,772.0518,270.0042,776.7779,281.0343,790.96,268.43" style="stroke:#181818;stroke-width:1;"/></g><!--link Zaehler to Sparte--><g class="link" data-entity-1="Zaehler" data-entity-2="Sparte" data-source-line="32" data-uid="lnk19" id="link_Zaehler_Sparte"><path codeLine="32" d="M341.6,628.42 C392.29,670.27 458.39,719.55 523.89,753 C590.99,787.27 613.26,782.92 685.89,803 C715.29,811.13 736.499,816.4993 764.059,823.0893" fill="none" id="Zaehler-to-Sparte" style="stroke:#181818;stroke-width:1;"/><polygon fill="#181818" points="775.73,825.88,770.8247,820.5943,764.059,823.0893,768.9643,828.375,775.73,825.88" style="stroke:#181818;stroke-width:1;"/><text fill="#000000" font-family="sans-serif" font-size="13" lengthAdjust="spacing" textLength="41.4312" x="580.39" y="749.0669">sparte</text><text fill="#000000" font-family="sans-serif" font-size="13" lengthAdjust="spacing" textLength="24.8066" x="743.1963" y="837.1893">0..1</text></g><!--link Zaehler to Zaehlerauspraegung--><g class="link" data-entity-1="Zaehler" data-entity-2="Zaehlerauspraegung" data-source-line="33" data-uid="lnk20" id="link_Zaehler_Zaehlerauspraegung"><path codeLine="33" d="M494.24,548 C580.7,548 661.14,548 728.21,548" fill="none" id="Zaehler-to-Zaehlerauspraegung" style="stroke:#181818;stroke-width:1;"/><polygon fill="#181818" points="740.21,548,734.21,544,728.21,548,734.21,552,740.21,548" style="stroke:#181818;stroke-width:1;"/><text fill="#000000" font-family="sans-serif" font-size="13" lengthAdjust="spacing" textLength="133.5039" x="534.39" y="544.0669">zaehlerauspraegung</text><text fill="#000000" font-family="sans-serif" font-size="13" lengthAdjust="spacing" textLength="24.8066" x="707.8396" y="560.6463">0..1</text></g><!--link Zaehler to Zaehlertyp--><g class="link" data-entity-1="Zaehler" data-entity-2="Zaehlertyp" data-source-line="34" data-uid="lnk21" id="link_Zaehler_Zaehlertyp"><path codeLine="34" d="M311.68,628.47 C362.09,690.59 439.21,774.38 523.89,826 C598.9,871.73 686.6652,892.1592 753.1752,902.5992" fill="none" id="Zaehler-to-Zaehlertyp" style="stroke:#181818;stroke-width:1;"/><polygon fill="#181818" points="765.03,904.46,759.7229,899.578,753.1752,902.5992,758.4823,907.4812,765.03,904.46" style="stroke:#181818;stroke-width:1;"/><text fill="#000000" font-family="sans-serif" font-size="13" lengthAdjust="spacing" textLength="69.0244" x="566.39" y="822.0669">zaehlertyp</text><text fill="#000000" font-family="sans-serif" font-size="13" lengthAdjust="spacing" textLength="24.8066" x="732.7112" y="916.4312">0..1</text></g><!--link Zaehler to Zaehlwerk--><g class="link" data-entity-1="Zaehler" data-entity-2="Zaehlwerk" data-source-line="35" data-uid="lnk22" id="link_Zaehler_Zaehlwerk"><path codeLine="35" d="M494.24,470.87 C597.36,438.11 697.5631,406.2729 764.4931,385.0129" fill="none" id="Zaehler-to-Zaehlwerk" style="stroke:#181818;stroke-width:1;"/><polygon fill="#181818" points="775.93,381.38,769.0006,379.3841,764.4931,385.0129,771.4225,387.0087,775.93,381.38" style="stroke:#181818;stroke-width:1;"/><text fill="#000000" font-family="sans-serif" font-size="13" lengthAdjust="spacing" textLength="74.1406" x="563.89" y="413.0669">zaehlwerke</text><text fill="#000000" font-family="sans-serif" font-size="13" lengthAdjust="spacing" textLength="23.0356" x="738.9192" y="398.5838">0..*</text></g><!--link Zaehler to Registeranzahl--><g class="link" data-entity-1="Zaehler" data-entity-2="Registeranzahl" data-source-line="36" data-uid="lnk23" id="link_Zaehler_Registeranzahl"><path codeLine="36" d="M494.24,517.73 C587.61,506.09 676.0721,495.0537 743.8921,486.6037" fill="none" id="Zaehler-to-Registeranzahl" style="stroke:#181818;stroke-width:1;"/><polygon fill="#181818" points="755.8,485.12,749.3515,481.8925,743.8921,486.6037,750.3406,489.8311,755.8,485.12" style="stroke:#181818;stroke-width:1;"/><text fill="#000000" font-family="sans-serif" font-size="13" lengthAdjust="spacing" textLength="93.2661" x="554.39" y="493.0669">registeranzahl</text><text fill="#000000" font-family="sans-serif" font-size="13" lengthAdjust="spacing" textLength="24.8066" x="723.4511" y="498.7622">0..1</text></g><!--link Zaehler to Geschaeftspartner--><g class="link" data-entity-1="Zaehler" data-entity-2="Geschaeftspartner" data-source-line="37" data-uid="lnk24" id="link_Zaehler_Geschaeftspartner"><path codeLine="37" d="M332.08,467.52 C414.12,390.37 548.41,276.52 685.89,213 C707.09,203.2 719.5492,198.6328 742.1892,193.1328" fill="none" id="Zaehler-to-Geschaeftspartner" style="stroke:#181818;stroke-width:1;"/><polygon fill="#181818" points="753.85,190.3,747.0753,187.8295,742.1892,193.1328,748.9638,195.6033,753.85,190.3" style="stroke:#181818;stroke-width:1;"/><text fill="#000000" font-family="sans-serif" font-size="13" lengthAdjust="spacing" textLength="109.9985" x="546.39" y="216.0669">zaehlerhersteller</text><text fill="#000000" font-family="sans-serif" font-size="13" lengthAdjust="spacing" textLength="24.8066" x="721.3274" y="204.3145">0..1</text></g><!--link Zaehler to ZaehlertypSpezifikation--><g class="link" data-entity-1="Zaehler" data-entity-2="ZaehlertypSpezifikation" data-source-line="38" data-uid="lnk25" id="link_Zaehler_ZaehlertypSpezifikation"><path codeLine="38" d="M494.24,578.27 C577.87,588.7 655.1923,598.3342 721.6323,606.6242" fill="none" id="Zaehler-to-ZaehlertypSpezifikation" style="stroke:#181818;stroke-width:1;"/><polygon fill="#181818" points="733.54,608.11,728.0814,603.3979,721.6323,606.6242,727.0909,611.3363,733.54,608.11" style="stroke:#181818;stroke-width:1;"/><text fill="#000000" font-family="sans-serif" font-size="13" lengthAdjust="spacing" textLength="152.5469" x="524.89" y="579.0669">zaehlertypSpezifikation</text><text fill="#000000" font-family="sans-serif" font-size="13" lengthAdjust="spacing" textLength="24.8066" x="701.021" y="619.786">0..1</text></g><!--link Zaehler to Befestigungsart--><g class="link" data-entity-1="Zaehler" data-entity-2="Befestigungsart" data-source-line="39" data-uid="lnk26" id="link_Zaehler_Befestigungsart"><path codeLine="39" d="M396.71,628.45 C437.13,648.94 481.57,669.73 523.89,686 C593.53,712.77 613.65,711.35 685.89,730 C708.63,735.87 721.7034,739.1799 744.4434,744.7399" fill="none" id="Zaehler-to-Befestigungsart" style="stroke:#181818;stroke-width:1;"/><polygon fill="#181818" points="756.1,747.59,751.2217,742.2794,744.4434,744.7399,749.3217,750.0505,756.1,747.59" style="stroke:#181818;stroke-width:1;"/><text fill="#000000" font-family="sans-serif" font-size="13" lengthAdjust="spacing" textLength="102.4702" x="549.89" y="682.0669">befestigungsart</text><text fill="#000000" font-family="sans-serif" font-size="13" lengthAdjust="spacing" textLength="24.8066" x="719.5437" y="741.05">0..1</text></g><!--link Zaehler to Zaehlergroesse--><g class="link" data-entity-1="Zaehler" data-entity-2="Zaehlergroesse" data-source-line="40" data-uid="lnk27" id="link_Zaehler_Zaehlergroesse"><path codeLine="40" d="M494.11,617.36 C504.16,619.99 514.11,622.54 523.89,625 C601.34,644.46 678.5838,661.3349 741.8338,674.5549" fill="none" id="Zaehler-to-Zaehlergroesse" style="stroke:#181818;stroke-width:1;"/><polygon fill="#181818" points="753.58,677.01,748.5253,671.8671,741.8338,674.5549,746.8886,679.6978,753.58,677.01" style="stroke:#181818;stroke-width:1;"/><text fill="#000000" font-family="sans-serif" font-size="13" lengthAdjust="spacing" textLength="99.0742" x="551.39" y="621.0669">zaehlergroesse</text><text fill="#000000" font-family="sans-serif" font-size="13" lengthAdjust="spacing" textLength="24.8066" x="721.0339" y="688.2377">0..1</text></g><!--link Zaehler to Geraet--><g class="link" data-entity-1="Zaehler" data-entity-2="Geraet" data-source-line="41" data-uid="lnk28" id="link_Zaehler_Geraet"><path codeLine="41" d="M294.47,467.81 C341.12,388.02 422.63,267.35 523.89,195 C603.05,138.44 704.995,117.867 771.355,109.467" fill="none" id="Zaehler-to-Geraet" style="stroke:#181818;stroke-width:1;"/><polygon fill="#181818" points="783.26,107.96,776.8052,104.7451,771.355,109.467,777.8098,112.6818,783.26,107.96" style="stroke:#181818;stroke-width:1;"/><text fill="#000000" font-family="sans-serif" font-size="13" lengthAdjust="spacing" textLength="50.6543" x="575.89" y="125.0669">geraete</text><text fill="#000000" font-family="sans-serif" font-size="13" lengthAdjust="spacing" textLength="23.0356" x="752.6102" y="121.4754">0..*</text></g><!--SRC=[nLV1Rjim33tNNq4aXm85QhTOrnL6Lo1Pi-rGR42xKxDWK1mcrc9RXgMWQxRz-sZBTcGbRdfPx8j4uedceoXIYd2kG0d8-29KCECP1egBn762Y4a9lV5upYFqFVf24QENhP84C-z9P4jl-FLYT9e-gr0aZVbC1D9pNSzLufSML9nweOeZZwNScueBTAV2pHNzIbWp32FCt4SzGZbE9j-JQydNw9-VtLZO7Z1PuU2tS_H3FQVWmnrNcB5eV3qKtvvJzt4m-dmtklVXk9mTtqnWV3w1zz00E4UbsMGLnsJG1wao69-vRe7z8XAi8KkHICKIXOIwnO37BBAHo8DmbIo6N19cyCGol6KA5O_HHaQerWf76hyFpANwI2xA86IHchBSpQaGKGkChMI4iXNsrt4I5gDCMO3_VQUX52QJOjzA2Vh3ozjtWwjy_mwSSGlA4bJkfs80FUnCDmqilDQe3bpDDvnEAcrLfkWNvBMbWIrD2nSBLTAoj1qo5DEVk5G6GQq0Mx67dWPPxBIIylu0QH-8sCXxaip49n7wexF1rUM70sH-vKg_beewzaI5JDVRV0RrR3koZIMRifjBXmacKb4sefcBPZXp6Vgpy-3DsqDKajgR_aRCS455byf3icPXvDutH6YAsm7UOQ9WrrpN2R6ovL4hIQdsBQX7LJtQKC6sgeNajZcpZHlgBidIHKAckEPplcJvRQXYJFe7Kmyj-fUvszRD0DYMkep28XCe9LRaIn6QuijKIv39i5HrGcoASvIAv-abgT6vmwOCbjp2pR9IaBDMTiAkQDxeFXG3wA65WeOMdcjSnwVDE636ITXxZAoJarzewmV4wUcVc-gMkNMRsC08TmAz_5hSs_IIAeRq1j3HsGFVKH1zsAvqhpIZdp4RbZkMdVJgUuJHmSj5-NolorQ3yg7PVLvOtWXdTVki_Gqn8oiHpLxFjbbJJUhDMhZ7e7sQwSrZdShNULGLkjgHgcIrxqCHa-8TuOD-Bg3ZX7o646CyfP0uCXHFK1kOSuncyXy0]--></g></svg>