<?xml version="1.0" encoding="us-ascii" standalone="no"?><svg xmlns="http://www.w3.org/2000/svg" xmlns:xlink="http://www.w3.org/1999/xlink" contentStyleType="text/css" height="687px" preserveAspectRatio="none" style="width:902px;height:687px;background:#FFFFFF;" version="1.1" viewBox="0 0 902 687" width="902px" zoomAndPan="magnify"><defs/><g><!--cluster bo4e--><g id="cluster_bo4e"><path d="M602.5,6 L643.5,6 A3.75,3.75 0 0 1 646,8.5 L653,28.2969 L892.5,28.2969 A2.5,2.5 0 0 1 895,30.7969 L895,677.5 A2.5,2.5 0 0 1 892.5,680 L602.5,680 A2.5,2.5 0 0 1 600,677.5 L600,8.5 A2.5,2.5 0 0 1 602.5,6 " fill="none" style="stroke:#000000;stroke-width:1.5;"/><line style="stroke:#000000;stroke-width:1.5;" x1="600" x2="653" y1="28.2969" y2="28.2969"/><text fill="#000000" font-family="sans-serif" font-size="14" font-weight="bold" lengthAdjust="spacing" textLength="40" x="604" y="20.9951">bo4e</text></g><!--cluster bo--><g id="cluster_bo"><path d="M656,49 L722,49 A3.75,3.75 0 0 1 724.5,51.5 L731.5,71.2969 L839,71.2969 A2.5,2.5 0 0 1 841.5,73.7969 L841.5,135.5 A2.5,2.5 0 0 1 839,138 L656,138 A2.5,2.5 0 0 1 653.5,135.5 L653.5,51.5 A2.5,2.5 0 0 1 656,49 " fill="#B6D7A8" style="stroke:#000000;stroke-width:1.5;"/><line style="stroke:#000000;stroke-width:1.5;" x1="653.5" x2="731.5" y1="71.2969" y2="71.2969"/><a href="https://bo4e.github.io/BO4E-python/latest/api/bo4e.bo.html" target="_top" title="https://bo4e.github.io/BO4E-python/latest/api/bo4e.bo.html" xlink:actuate="onRequest" xlink:href="https://bo4e.github.io/BO4E-python/latest/api/bo4e.bo.html" xlink:show="new" xlink:title="https://bo4e.github.io/BO4E-python/latest/api/bo4e.bo.html" xlink:type="simple"><text fill="#0000FF" font-family="sans-serif" font-size="14" font-weight="bold" lengthAdjust="spacing" text-decoration="underline" textLength="65" x="657.5" y="63.9951">bo4e.bo</text></a></g><!--cluster com--><g id="cluster_com"><path d="M658,162 L737,162 A3.75,3.75 0 0 1 739.5,164.5 L746.5,184.2969 L837,184.2969 A2.5,2.5 0 0 1 839.5,186.7969 L839.5,248.5 A2.5,2.5 0 0 1 837,251 L658,251 A2.5,2.5 0 0 1 655.5,248.5 L655.5,164.5 A2.5,2.5 0 0 1 658,162 " fill="#E0A86C" style="stroke:#000000;stroke-width:1.5;"/><line style="stroke:#000000;stroke-width:1.5;" x1="655.5" x2="746.5" y1="184.2969" y2="184.2969"/><a href="https://bo4e.github.io/BO4E-python/latest/api/bo4e.com.html" target="_top" title="https://bo4e.github.io/BO4E-python/latest/api/bo4e.com.html" xlink:actuate="onRequest" xlink:href="https://bo4e.github.io/BO4E-python/latest/api/bo4e.com.html" xlink:show="new" xlink:title="https://bo4e.github.io/BO4E-python/latest/api/bo4e.com.html" xlink:type="simple"><text fill="#0000FF" font-family="sans-serif" font-size="14" font-weight="bold" lengthAdjust="spacing" text-decoration="underline" textLength="78" x="659.5" y="176.9951">bo4e.com</text></a></g><!--cluster enum--><g id="cluster_enum"><path d="M626.5,275 L716.5,275 A3.75,3.75 0 0 1 719,277.5 L726,297.2969 L868.5,297.2969 A2.5,2.5 0 0 1 871,299.7969 L871,653.5 A2.5,2.5 0 0 1 868.5,656 L626.5,656 A2.5,2.5 0 0 1 624,653.5 L624,277.5 A2.5,2.5 0 0 1 626.5,275 " fill="#D1C358" style="stroke:#000000;stroke-width:1.5;"/><line style="stroke:#000000;stroke-width:1.5;" x1="624" x2="726" y1="297.2969" y2="297.2969"/><a href="https://bo4e.github.io/BO4E-python/latest/api/bo4e.enum.html" target="_top" title="https://bo4e.github.io/BO4E-python/latest/api/bo4e.enum.html" xlink:actuate="onRequest" xlink:href="https://bo4e.github.io/BO4E-python/latest/api/bo4e.enum.html" xlink:show="new" xlink:title="https://bo4e.github.io/BO4E-python/latest/api/bo4e.enum.html" xlink:type="simple"><text fill="#0000FF" font-family="sans-serif" font-size="14" font-weight="bold" lengthAdjust="spacing" text-decoration="underline" textLength="89" x="628" y="289.9951">bo4e.enum</text></a></g><!--class Geschaeftsobjekt--><g id="elem_Geschaeftsobjekt"><rect codeLine="10" fill="#F1F1F1" height="37.9375" id="Geschaeftsobjekt" rx="2.5" ry="2.5" style="stroke:#181818;stroke-width:0.5;" width="156" x="669.5" y="84.03"/><ellipse cx="684.5" cy="102.9987" fill="#ADD1B2" rx="11" ry="11" style="stroke:#181818;stroke-width:1.0;"/><path d="M687.4688,108.6394 Q686.8906,108.9362 686.25,109.0769 Q685.6094,109.2331 684.9063,109.2331 Q682.4063,109.2331 681.0781,107.5925 Q679.7656,105.9362 679.7656,102.8112 Q679.7656,99.6862 681.0781,98.03 Q682.4063,96.3737 684.9063,96.3737 Q685.6094,96.3737 686.25,96.53 Q686.9063,96.6862 687.4688,96.9831 L687.4688,99.7019 Q686.8438,99.1237 686.25,98.8581 Q685.6563,98.5769 685.0313,98.5769 Q683.6875,98.5769 683,99.655 Q682.3125,100.7175 682.3125,102.8112 Q682.3125,104.905 683,105.9831 Q683.6875,107.0456 685.0313,107.0456 Q685.6563,107.0456 686.25,106.78 Q686.8438,106.4987 687.4688,105.9206 L687.4688,108.6394 Z " fill="#000000"/><a href="https://bo4e.github.io/BO4E-python/latest/api/bo4e.bo.html#bo4e.bo.geschaeftsobjekt.Geschaeftsobjekt" target="_top" title="https://bo4e.github.io/BO4E-python/latest/api/bo4e.bo.html#bo4e.bo.geschaeftsobjekt.Geschaeftsobjekt" xlink:actuate="onRequest" xlink:href="https://bo4e.github.io/BO4E-python/latest/api/bo4e.bo.html#bo4e.bo.geschaeftsobjekt.Geschaeftsobjekt" xlink:show="new" xlink:title="https://bo4e.github.io/BO4E-python/latest/api/bo4e.bo.html#bo4e.bo.geschaeftsobjekt.Geschaeftsobjekt" xlink:type="simple"><text fill="#0000FF" font-family="sans-serif" font-size="14" lengthAdjust="spacing" text-decoration="underline" textLength="122" x="699.5" y="102.0251">Geschaeftsobjekt</text></a><text fill="#000000" font-family="sans-serif" font-size="10" lengthAdjust="spacing" textLength="124" x="698.5" y="114.6091">bo4e.bo.geschaeftsobjekt</text></g><!--class Zeitreihenwert--><g id="elem_Zeitreihenwert"><rect codeLine="13" fill="#F1F1F1" height="37.9375" id="Zeitreihenwert" rx="2.5" ry="2.5" style="stroke:#181818;stroke-width:0.5;" width="152" x="671.5" y="197.03"/><ellipse cx="686.5" cy="215.9987" fill="#ADD1B2" rx="11" ry="11" style="stroke:#181818;stroke-width:1.0;"/><path d="M689.4688,221.6394 Q688.8906,221.9362 688.25,222.0769 Q687.6094,222.2331 686.9063,222.2331 Q684.4063,222.2331 683.0781,220.5925 Q681.7656,218.9362 681.7656,215.8112 Q681.7656,212.6862 683.0781,211.03 Q684.4063,209.3737 686.9063,209.3737 Q687.6094,209.3737 688.25,209.53 Q688.9063,209.6862 689.4688,209.9831 L689.4688,212.7019 Q688.8438,212.1237 688.25,211.8581 Q687.6563,211.5769 687.0313,211.5769 Q685.6875,211.5769 685,212.655 Q684.3125,213.7175 684.3125,215.8112 Q684.3125,217.905 685,218.9831 Q685.6875,220.0456 687.0313,220.0456 Q687.6563,220.0456 688.25,219.78 Q688.8438,219.4987 689.4688,218.9206 L689.4688,221.6394 Z " fill="#000000"/><a href="https://bo4e.github.io/BO4E-python/latest/api/bo4e.com.html#bo4e.com.zeitreihenwert.Zeitreihenwert" target="_top" title="https://bo4e.github.io/BO4E-python/latest/api/bo4e.com.html#bo4e.com.zeitreihenwert.Zeitreihenwert" xlink:actuate="onRequest" xlink:href="https://bo4e.github.io/BO4E-python/latest/api/bo4e.com.html#bo4e.com.zeitreihenwert.Zeitreihenwert" xlink:show="new" xlink:title="https://bo4e.github.io/BO4E-python/latest/api/bo4e.com.html#bo4e.com.zeitreihenwert.Zeitreihenwert" xlink:type="simple"><text fill="#0000FF" font-family="sans-serif" font-size="14" lengthAdjust="spacing" text-decoration="underline" textLength="101" x="710" y="215.0251">Zeitreihenwert</text></a><text fill="#000000" font-family="sans-serif" font-size="10" lengthAdjust="spacing" textLength="120" x="700.5" y="227.6091">bo4e.com.zeitreihenwert</text></g><!--class Messart--><g id="elem_Messart"><rect codeLine="16" fill="#F1F1F1" height="37.9375" id="Messart" rx="2.5" ry="2.5" style="stroke:#181818;stroke-width:0.5;" width="130" x="682.5" y="310.03"/><ellipse cx="697.5" cy="328.9988" fill="#ADD1B2" rx="11" ry="11" style="stroke:#181818;stroke-width:1.0;"/><path d="M700.4688,334.6394 Q699.8906,334.9363 699.25,335.0769 Q698.6094,335.2331 697.9063,335.2331 Q695.4063,335.2331 694.0781,333.5925 Q692.7656,331.9363 692.7656,328.8113 Q692.7656,325.6863 694.0781,324.03 Q695.4063,322.3738 697.9063,322.3738 Q698.6094,322.3738 699.25,322.53 Q699.9063,322.6863 700.4688,322.9831 L700.4688,325.7019 Q699.8438,325.1238 699.25,324.8581 Q698.6563,324.5769 698.0313,324.5769 Q696.6875,324.5769 696,325.655 Q695.3125,326.7175 695.3125,328.8113 Q695.3125,330.905 696,331.9831 Q696.6875,333.0456 698.0313,333.0456 Q698.6563,333.0456 699.25,332.78 Q699.8438,332.4988 700.4688,331.9206 L700.4688,334.6394 Z " fill="#000000"/><a href="https://bo4e.github.io/BO4E-python/latest/api/bo4e.enum.html#bo4e.enum.messart.Messart" target="_top" title="https://bo4e.github.io/BO4E-python/latest/api/bo4e.enum.html#bo4e.enum.messart.Messart" xlink:actuate="onRequest" xlink:href="https://bo4e.github.io/BO4E-python/latest/api/bo4e.enum.html#bo4e.enum.messart.Messart" xlink:show="new" xlink:title="https://bo4e.github.io/BO4E-python/latest/api/bo4e.enum.html#bo4e.enum.messart.Messart" xlink:type="simple"><text fill="#0000FF" font-family="sans-serif" font-size="14" lengthAdjust="spacing" text-decoration="underline" textLength="55" x="733" y="328.0251">Messart</text></a><text fill="#000000" font-family="sans-serif" font-size="10" lengthAdjust="spacing" textLength="98" x="711.5" y="340.6091">bo4e.enum.messart</text></g><!--class Mengeneinheit--><g id="elem_Mengeneinheit"><rect codeLine="17" fill="#F1F1F1" height="37.9375" id="Mengeneinheit" rx="2.5" ry="2.5" style="stroke:#181818;stroke-width:0.5;" width="162" x="666.5" y="383.03"/><ellipse cx="681.5" cy="401.9988" fill="#ADD1B2" rx="11" ry="11" style="stroke:#181818;stroke-width:1.0;"/><path d="M684.4688,407.6394 Q683.8906,407.9363 683.25,408.0769 Q682.6094,408.2331 681.9063,408.2331 Q679.4063,408.2331 678.0781,406.5925 Q676.7656,404.9363 676.7656,401.8113 Q676.7656,398.6863 678.0781,397.03 Q679.4063,395.3738 681.9063,395.3738 Q682.6094,395.3738 683.25,395.53 Q683.9063,395.6863 684.4688,395.9831 L684.4688,398.7019 Q683.8438,398.1238 683.25,397.8581 Q682.6563,397.5769 682.0313,397.5769 Q680.6875,397.5769 680,398.655 Q679.3125,399.7175 679.3125,401.8113 Q679.3125,403.905 680,404.9831 Q680.6875,406.0456 682.0313,406.0456 Q682.6563,406.0456 683.25,405.78 Q683.8438,405.4988 684.4688,404.9206 L684.4688,407.6394 Z " fill="#000000"/><a href="https://bo4e.github.io/BO4E-python/latest/api/bo4e.enum.html#bo4e.enum.mengeneinheit.Mengeneinheit" target="_top" title="https://bo4e.github.io/BO4E-python/latest/api/bo4e.enum.html#bo4e.enum.mengeneinheit.Mengeneinheit" xlink:actuate="onRequest" xlink:href="https://bo4e.github.io/BO4E-python/latest/api/bo4e.enum.html#bo4e.enum.mengeneinheit.Mengeneinheit" xlink:show="new" xlink:title="https://bo4e.github.io/BO4E-python/latest/api/bo4e.enum.html#bo4e.enum.mengeneinheit.Mengeneinheit" xlink:type="simple"><text fill="#0000FF" font-family="sans-serif" font-size="14" lengthAdjust="spacing" text-decoration="underline" textLength="104" x="708.5" y="401.0251">Mengeneinheit</text></a><text fill="#000000" font-family="sans-serif" font-size="10" lengthAdjust="spacing" textLength="130" x="695.5" y="413.6091">bo4e.enum.mengeneinheit</text></g><!--class Messgroesse--><g id="elem_Messgroesse"><rect codeLine="18" fill="#F1F1F1" height="37.9375" id="Messgroesse" rx="2.5" ry="2.5" style="stroke:#181818;stroke-width:0.5;" width="154" x="670.5" y="456.03"/><ellipse cx="685.5" cy="474.9988" fill="#ADD1B2" rx="11" ry="11" style="stroke:#181818;stroke-width:1.0;"/><path d="M688.4688,480.6394 Q687.8906,480.9363 687.25,481.0769 Q686.6094,481.2331 685.9063,481.2331 Q683.4063,481.2331 682.0781,479.5925 Q680.7656,477.9363 680.7656,474.8113 Q680.7656,471.6863 682.0781,470.03 Q683.4063,468.3738 685.9063,468.3738 Q686.6094,468.3738 687.25,468.53 Q687.9063,468.6863 688.4688,468.9831 L688.4688,471.7019 Q687.8438,471.1238 687.25,470.8581 Q686.6563,470.5769 686.0313,470.5769 Q684.6875,470.5769 684,471.655 Q683.3125,472.7175 683.3125,474.8113 Q683.3125,476.905 684,477.9831 Q684.6875,479.0456 686.0313,479.0456 Q686.6563,479.0456 687.25,478.78 Q687.8438,478.4988 688.4688,477.9206 L688.4688,480.6394 Z " fill="#000000"/><a href="https://bo4e.github.io/BO4E-python/latest/api/bo4e.enum.html#bo4e.enum.messgroesse.Messgroesse" target="_top" title="https://bo4e.github.io/BO4E-python/latest/api/bo4e.enum.html#bo4e.enum.messgroesse.Messgroesse" xlink:actuate="onRequest" xlink:href="https://bo4e.github.io/BO4E-python/latest/api/bo4e.enum.html#bo4e.enum.messgroesse.Messgroesse" xlink:show="new" xlink:title="https://bo4e.github.io/BO4E-python/latest/api/bo4e.enum.html#bo4e.enum.messgroesse.Messgroesse" xlink:type="simple"><text fill="#0000FF" font-family="sans-serif" font-size="14" lengthAdjust="spacing" text-decoration="underline" textLength="94" x="713.5" y="474.0251">Messgroesse</text></a><text fill="#000000" font-family="sans-serif" font-size="10" lengthAdjust="spacing" textLength="122" x="699.5" y="486.6091">bo4e.enum.messgroesse</text></g><!--class Medium--><g id="elem_Medium"><rect codeLine="19" fill="#F1F1F1" height="37.9375" id="Medium" rx="2.5" ry="2.5" style="stroke:#181818;stroke-width:0.5;" width="130" x="682.5" y="529.03"/><ellipse cx="697.5" cy="547.9988" fill="#ADD1B2" rx="11" ry="11" style="stroke:#181818;stroke-width:1.0;"/><path d="M700.4688,553.6394 Q699.8906,553.9363 699.25,554.0769 Q698.6094,554.2331 697.9063,554.2331 Q695.4063,554.2331 694.0781,552.5925 Q692.7656,550.9363 692.7656,547.8113 Q692.7656,544.6863 694.0781,543.03 Q695.4063,541.3738 697.9063,541.3738 Q698.6094,541.3738 699.25,541.53 Q699.9063,541.6863 700.4688,541.9831 L700.4688,544.7019 Q699.8438,544.1238 699.25,543.8581 Q698.6563,543.5769 698.0313,543.5769 Q696.6875,543.5769 696,544.655 Q695.3125,545.7175 695.3125,547.8113 Q695.3125,549.905 696,550.9831 Q696.6875,552.0456 698.0313,552.0456 Q698.6563,552.0456 699.25,551.78 Q699.8438,551.4988 700.4688,550.9206 L700.4688,553.6394 Z " fill="#000000"/><a href="https://bo4e.github.io/BO4E-python/latest/api/bo4e.enum.html#bo4e.enum.medium.Medium" target="_top" title="https://bo4e.github.io/BO4E-python/latest/api/bo4e.enum.html#bo4e.enum.medium.Medium" xlink:actuate="onRequest" xlink:href="https://bo4e.github.io/BO4E-python/latest/api/bo4e.enum.html#bo4e.enum.medium.Medium" xlink:show="new" xlink:title="https://bo4e.github.io/BO4E-python/latest/api/bo4e.enum.html#bo4e.enum.medium.Medium" xlink:type="simple"><text fill="#0000FF" font-family="sans-serif" font-size="14" lengthAdjust="spacing" text-decoration="underline" textLength="55" x="733" y="547.0251">Medium</text></a><text fill="#000000" font-family="sans-serif" font-size="10" lengthAdjust="spacing" textLength="98" x="711.5" y="559.6091">bo4e.enum.medium</text></g><!--class Wertermittlungsverfahren--><g id="elem_Wertermittlungsverfahren"><rect codeLine="20" fill="#F1F1F1" height="37.9375" id="Wertermittlungsverfahren" rx="2.5" ry="2.5" style="stroke:#181818;stroke-width:0.5;" width="215" x="640" y="602.03"/><ellipse cx="655" cy="620.9988" fill="#ADD1B2" rx="11" ry="11" style="stroke:#181818;stroke-width:1.0;"/><path d="M657.9688,626.6394 Q657.3906,626.9363 656.75,627.0769 Q656.1094,627.2331 655.4063,627.2331 Q652.9063,627.2331 651.5781,625.5925 Q650.2656,623.9363 650.2656,620.8113 Q650.2656,617.6863 651.5781,616.03 Q652.9063,614.3738 655.4063,614.3738 Q656.1094,614.3738 656.75,614.53 Q657.4063,614.6863 657.9688,614.9831 L657.9688,617.7019 Q657.3438,617.1238 656.75,616.8581 Q656.1563,616.5769 655.5313,616.5769 Q654.1875,616.5769 653.5,617.655 Q652.8125,618.7175 652.8125,620.8113 Q652.8125,622.905 653.5,623.9831 Q654.1875,625.0456 655.5313,625.0456 Q656.1563,625.0456 656.75,624.78 Q657.3438,624.4988 657.9688,623.9206 L657.9688,626.6394 Z " fill="#000000"/><a href="https://bo4e.github.io/BO4E-python/latest/api/bo4e.enum.html#bo4e.enum.wertermittlungsverfahren.Wertermittlungsverfahren" target="_top" title="https://bo4e.github.io/BO4E-python/latest/api/bo4e.enum.html#bo4e.enum.wertermittlungsverfahren.Wertermittlungsverfahren" xlink:actuate="onRequest" xlink:href="https://bo4e.github.io/BO4E-python/latest/api/bo4e.enum.html#bo4e.enum.wertermittlungsverfahren.Wertermittlungsverfahren" xlink:show="new" xlink:title="https://bo4e.github.io/BO4E-python/latest/api/bo4e.enum.html#bo4e.enum.wertermittlungsverfahren.Wertermittlungsverfahren" xlink:type="simple"><text fill="#0000FF" font-family="sans-serif" font-size="14" lengthAdjust="spacing" text-decoration="underline" textLength="175" x="673" y="620.0251">Wertermittlungsverfahren</text></a><text fill="#000000" font-family="sans-serif" font-size="10" lengthAdjust="spacing" textLength="183" x="669" y="632.6091">bo4e.enum.wertermittlungsverfahren</text></g><!--class Zeitreihe--><g id="elem_Zeitreihe"><rect codeLine="3" fill="#F1F1F1" height="94.8281" id="Zeitreihe" rx="2.5" ry="2.5" style="stroke:#181818;stroke-width:0.5;" width="459" x="7" y="354.59"/><ellipse cx="190.75" cy="373.5588" fill="#ADD1B2" rx="11" ry="11" style="stroke:#181818;stroke-width:1.0;"/><path d="M193.7188,379.1994 Q193.1406,379.4963 192.5,379.6369 Q191.8594,379.7931 191.1563,379.7931 Q188.6563,379.7931 187.3281,378.1525 Q186.0156,376.4963 186.0156,373.3713 Q186.0156,370.2463 187.3281,368.59 Q188.6563,366.9338 191.1563,366.9338 Q191.8594,366.9338 192.5,367.09 Q193.1563,367.2463 193.7188,367.5431 L193.7188,370.2619 Q193.0938,369.6838 192.5,369.4181 Q191.9063,369.1369 191.2813,369.1369 Q189.9375,369.1369 189.25,370.215 Q188.5625,371.2775 188.5625,373.3713 Q188.5625,375.465 189.25,376.5431 Q189.9375,377.6056 191.2813,377.6056 Q191.9063,377.6056 192.5,377.34 Q193.0938,377.0588 193.7188,376.4806 L193.7188,379.1994 Z " fill="#000000"/><a href="https://bo4e.github.io/BO4E-python/latest/api/bo4e.bo.html#bo4e.bo.zeitreihe.Zeitreihe" target="_top" title="https://bo4e.github.io/BO4E-python/latest/api/bo4e.bo.html#bo4e.bo.zeitreihe.Zeitreihe" xlink:actuate="onRequest" xlink:href="https://bo4e.github.io/BO4E-python/latest/api/bo4e.bo.html#bo4e.bo.zeitreihe.Zeitreihe" xlink:show="new" xlink:title="https://bo4e.github.io/BO4E-python/latest/api/bo4e.bo.html#bo4e.bo.zeitreihe.Zeitreihe" xlink:type="simple"><text fill="#0000FF" font-family="sans-serif" font-size="14" lengthAdjust="spacing" text-decoration="underline" textLength="62" x="221.75" y="372.5851">Zeitreihe</text></a><text fill="#000000" font-family="sans-serif" font-size="10" lengthAdjust="spacing" textLength="83" x="211.25" y="385.1691">bo4e.bo.zeitreihe</text><line style="stroke:#181818;stroke-width:0.5;" x1="8" x2="465" y1="392.5275" y2="392.5275"/><text fill="#000000" font-family="sans-serif" font-size="14" lengthAdjust="spacing" textLength="447" x="13" y="409.5226">_typ : Literal[&lt;Typ.ZEITREIHE: 'ZEITREIHE'&gt;] [1] = Typ.ZEITREIHE</text><text fill="#000000" font-family="sans-serif" font-size="14" lengthAdjust="spacing" textLength="219" x="13" y="425.8195">bezeichnung : str [0..1] = None</text><text fill="#000000" font-family="sans-serif" font-size="14" lengthAdjust="spacing" textLength="224" x="13" y="442.1164">beschreibung : str [0..1] = None</text></g><!--link Zeitreihe to Geschaeftsobjekt--><g id="link_Zeitreihe_Geschaeftsobjekt"><path codeLine="23" d="M310.01,354.12 C380.86,307.98 492.29,237.1 592,181 C629.84,159.71 657.9876,145.441 689.4376,130.221 " fill="none" id="Zeitreihe-to-Geschaeftsobjekt" style="stroke:#181818;stroke-width:1.0;"/><polygon fill="none" points="705.64,122.38,686.8239,124.8202,692.0513,135.6218,705.64,122.38" style="stroke:#181818;stroke-width:1.0;"/></g><!--link Zeitreihe to Messgroesse--><g id="link_Zeitreihe_Messgroesse"><path codeLine="24" d="M466.32,434.82 C539.6,445.33 603.8716,454.5462 658.2516,462.3462 " fill="none" id="Zeitreihe-to-Messgroesse" style="stroke:#181818;stroke-width:1.0;"/><polygon fill="#181818" points="670.13,464.05,664.7587,459.2386,658.2516,462.3462,663.6229,467.1576,670.13,464.05" style="stroke:#181818;stroke-width:1.0;"/><text fill="#000000" font-family="sans-serif" font-size="13" lengthAdjust="spacing" textLength="86" x="497" y="436.0669">messgroesse</text><text fill="#000000" font-family="sans-serif" font-size="13" lengthAdjust="spacing" textLength="24" x="638.4498" y="475.8262">0..1</text></g><!--link Zeitreihe to Messart--><g id="link_Zeitreihe_Messart"><path codeLine="25" d="M466.32,369.18 C545.14,357.88 615.4116,347.8037 670.2116,339.9437 " fill="none" id="Zeitreihe-to-Messart" style="stroke:#181818;stroke-width:1.0;"/><polygon fill="#181818" points="682.09,338.24,675.5829,335.1324,670.2116,339.9437,676.7187,343.0513,682.09,338.24" style="stroke:#181818;stroke-width:1.0;"/><text fill="#000000" font-family="sans-serif" font-size="13" lengthAdjust="spacing" textLength="53" x="513.5" y="349.0669">messart</text><text fill="#000000" font-family="sans-serif" font-size="13" lengthAdjust="spacing" textLength="24" x="650.47" y="351.9614">0..1</text></g><!--link Zeitreihe to Medium--><g id="link_Zeitreihe_Medium"><path codeLine="26" d="M385.66,449.84 C448.96,469.69 523.83,492.38 592,511 C621.53,519.07 642.8136,524.3744 670.6836,530.8744 " fill="none" id="Zeitreihe-to-Medium" style="stroke:#181818;stroke-width:1.0;"/><polygon fill="#181818" points="682.37,533.6,677.4353,528.3418,670.6836,530.8744,675.6183,536.1327,682.37,533.6" style="stroke:#181818;stroke-width:1.0;"/><text fill="#000000" font-family="sans-serif" font-size="13" lengthAdjust="spacing" textLength="53" x="513.5" y="482.0669">medium</text><text fill="#000000" font-family="sans-serif" font-size="13" lengthAdjust="spacing" textLength="24" x="650.416" y="544.9623">0..1</text></g><!--link Zeitreihe to Mengeneinheit--><g id="link_Zeitreihe_Mengeneinheit"><path codeLine="27" d="M466.32,402 C537.88,402 600.18,402 654.27,402 " fill="none" id="Zeitreihe-to-Mengeneinheit" style="stroke:#181818;stroke-width:1.0;"/><polygon fill="#181818" points="666.27,402,660.27,398,654.27,402,660.27,406,666.27,402" style="stroke:#181818;stroke-width:1.0;"/><text fill="#000000" font-family="sans-serif" font-size="13" lengthAdjust="spacing" textLength="43" x="518.5" y="398.0669">einheit</text><text fill="#000000" font-family="sans-serif" font-size="13" lengthAdjust="spacing" textLength="24" x="634.5494" y="414.6936">0..1</text></g><!--link Zeitreihe to Zeitreihenwert--><g id="link_Zeitreihe_Zeitreihenwert"><path codeLine="28" d="M368.58,354.1 C474.18,315.51 605.9091,267.3791 682.1691,239.5091 " fill="none" id="Zeitreihe-to-Zeitreihenwert" style="stroke:#181818;stroke-width:1.0;"/><polygon fill="#181818" points="693.44,235.39,686.4315,233.6926,682.1691,239.5091,689.1776,241.2065,693.44,235.39" style="stroke:#181818;stroke-width:1.0;"/><text fill="#000000" font-family="sans-serif" font-size="13" lengthAdjust="spacing" textLength="35" x="522.5" y="273.0669">werte</text><text fill="#000000" font-family="sans-serif" font-size="13" lengthAdjust="spacing" textLength="23" x="652.0013" y="255.0387">0..*</text></g><!--link Zeitreihe to Wertermittlungsverfahren--><g id="link_Zeitreihe_Wertermittlungsverfahren"><path codeLine="29" d="M317.01,449.82 C387.25,490.35 493.55,547.54 592,584 C610.36,590.8 618.7997,593.7245 638.1997,598.6545 " fill="none" id="Zeitreihe-to-Wertermittlungsverfahren" style="stroke:#181818;stroke-width:1.0;"/><polygon fill="#181818" points="649.83,601.61,645,596.2554,638.1997,598.6545,643.0296,604.009,649.83,601.61" style="stroke:#181818;stroke-width:1.0;"/><text fill="#000000" font-family="sans-serif" font-size="13" lengthAdjust="spacing" textLength="80" x="500" y="543.0669">wertherkunft</text><text fill="#000000" font-family="sans-serif" font-size="13" lengthAdjust="spacing" textLength="24" x="607.6659" y="594.2344">0..1</text></g><!--SRC=[jLLjQzim4FvS_ueZ_b0en4vOrnNJ1TejR8LrWr8OD3F3BnTBgoCPILb9k_ttIehZA4cz1P9yiUwHxqvtp-bE9OuLA0w25aH1JWLcYdBcULcPI0cTqOWeLSae35D-Ya515Pcc0UNXrRVJORUQAS9PM2OAfGgJYiwrKXuGDIdz1NX2gWHIWi7zGe96YkCVx4BI9upwlS66HGSIkTI5P-_efvfL4C4Ngb0avUZYRbO5zyFhkzlXzUTX1CUDV3o8OTIFuJsig7X7AMht6M5JLcX7KWaOzOB0Qdxb38s2p8W-C6tJ-EjvB9cWh98CT-C8QX37DjCQWNzrzl7TvRd9Tv-5A4nYYIwvvEalV531fxKDMDzujJhhRcpewvQQf5qvolZ48KaZboKDmH_sBi_FFknAq-8Slq7D_MEFADJosbe8gt2JeaqFgzVORks17sHJbo03NOOC1Z_lPs_UxdoJcgFy9TJ1oqIpSpDVeLut-N2rRNYrvY52OWKof8nehdLW3e8Lr1gaerE7wkmSXiD2SFr5osCjWoF_WyzQe-6qneS8CwTwkR4Bp9VMkCpFEYGZxZyQqpue9bIfKaze-Hl5ED7pcWNVMtv0su-M7DeEi5cr-JAlWlF0TRj_1ejvlZ5dNKMjUG8TyxvqbdsxSXaYS8gzdQdfnxcPwRCjJ6nXZOKjsHO6Rcj5i6YGrmnFEit4Nf-a4LYg_tzUQsNd7WYAXoaRAyyZD4UTnIH58Jr9-2CuliSKoro-0000]--></g></svg>