<?xml version="1.0" encoding="us-ascii" standalone="no"?><svg xmlns="http://www.w3.org/2000/svg" xmlns:xlink="http://www.w3.org/1999/xlink" contentStyleType="text/css" height="169px" preserveAspectRatio="none" style="width:476px;height:169px;background:#FFFFFF;" version="1.1" viewBox="0 0 476 169" width="476px" zoomAndPan="magnify"><defs/><g><!--cluster bo4e--><g id="cluster_bo4e"><path d="M287.5,6 L328.5,6 A3.75,3.75 0 0 1 331,8.5 L338,28.2969 L466.5,28.2969 A2.5,2.5 0 0 1 469,30.7969 L469,159.5 A2.5,2.5 0 0 1 466.5,162 L287.5,162 A2.5,2.5 0 0 1 285,159.5 L285,8.5 A2.5,2.5 0 0 1 287.5,6 " fill="none" style="stroke:#000000;stroke-width:1.5;"/><line style="stroke:#000000;stroke-width:1.5;" x1="285" x2="338" y1="28.2969" y2="28.2969"/><text fill="#000000" font-family="sans-serif" font-size="14" font-weight="bold" lengthAdjust="spacing" textLength="40" x="289" y="20.9951">bo4e</text></g><!--cluster com--><g id="cluster_com"><path d="M311.5,49 L390.5,49 A3.75,3.75 0 0 1 393,51.5 L400,71.2969 L442.5,71.2969 A2.5,2.5 0 0 1 445,73.7969 L445,135.5 A2.5,2.5 0 0 1 442.5,138 L311.5,138 A2.5,2.5 0 0 1 309,135.5 L309,51.5 A2.5,2.5 0 0 1 311.5,49 " fill="#E0A86C" style="stroke:#000000;stroke-width:1.5;"/><line style="stroke:#000000;stroke-width:1.5;" x1="309" x2="400" y1="71.2969" y2="71.2969"/><a href="https://bo4e.github.io/BO4E-python/v202401.5.0/api/bo4e.com.html" target="_top" title="https://bo4e.github.io/BO4E-python/v202401.5.0/api/bo4e.com.html" xlink:actuate="onRequest" xlink:href="https://bo4e.github.io/BO4E-python/v202401.5.0/api/bo4e.com.html" xlink:show="new" xlink:title="https://bo4e.github.io/BO4E-python/v202401.5.0/api/bo4e.com.html" xlink:type="simple"><text fill="#0000FF" font-family="sans-serif" font-size="14" font-weight="bold" lengthAdjust="spacing" text-decoration="underline" textLength="78" x="313" y="63.9951">bo4e.com</text></a></g><!--class COM--><g id="elem_COM"><rect codeLine="9" fill="#F1F1F1" height="37.9375" id="COM" rx="2.5" ry="2.5" style="stroke:#181818;stroke-width:0.5;" width="104" x="325" y="84.03"/><ellipse cx="340" cy="102.9988" fill="#ADD1B2" rx="11" ry="11" style="stroke:#181818;stroke-width:1.0;"/><path d="M342.9688,108.6394 Q342.3906,108.9363 341.75,109.0769 Q341.1094,109.2331 340.4063,109.2331 Q337.9063,109.2331 336.5781,107.5925 Q335.2656,105.9363 335.2656,102.8113 Q335.2656,99.6863 336.5781,98.03 Q337.9063,96.3738 340.4063,96.3738 Q341.1094,96.3738 341.75,96.53 Q342.4063,96.6863 342.9688,96.9831 L342.9688,99.7019 Q342.3438,99.1238 341.75,98.8581 Q341.1563,98.5769 340.5313,98.5769 Q339.1875,98.5769 338.5,99.655 Q337.8125,100.7175 337.8125,102.8113 Q337.8125,104.905 338.5,105.9831 Q339.1875,107.0456 340.5313,107.0456 Q341.1563,107.0456 341.75,106.78 Q342.3438,106.4988 342.9688,105.9206 L342.9688,108.6394 Z " fill="#000000"/><a href="https://bo4e.github.io/BO4E-python/v202401.5.0/api/bo4e.com.html#bo4e.com.com.COM" target="_top" title="https://bo4e.github.io/BO4E-python/v202401.5.0/api/bo4e.com.html#bo4e.com.com.COM" xlink:actuate="onRequest" xlink:href="https://bo4e.github.io/BO4E-python/v202401.5.0/api/bo4e.com.html#bo4e.com.com.COM" xlink:show="new" xlink:title="https://bo4e.github.io/BO4E-python/v202401.5.0/api/bo4e.com.html#bo4e.com.com.COM" xlink:type="simple"><text fill="#0000FF" font-family="sans-serif" font-size="14" lengthAdjust="spacing" text-decoration="underline" textLength="33" x="373.5" y="102.0251">COM</text></a><text fill="#000000" font-family="sans-serif" font-size="10" lengthAdjust="spacing" textLength="72" x="354" y="114.6091">bo4e.com.com</text></g><!--class MarktgebietInfo--><g id="elem_MarktgebietInfo"><rect codeLine="3" fill="#F1F1F1" height="78.5313" id="MarktgebietInfo" rx="2.5" ry="2.5" style="stroke:#181818;stroke-width:0.5;" width="258" x="7" y="63.73"/><ellipse cx="67.75" cy="82.6988" fill="#ADD1B2" rx="11" ry="11" style="stroke:#181818;stroke-width:1.0;"/><path d="M70.7188,88.3394 Q70.1406,88.6363 69.5,88.7769 Q68.8594,88.9331 68.1563,88.9331 Q65.6563,88.9331 64.3281,87.2925 Q63.0156,85.6363 63.0156,82.5113 Q63.0156,79.3863 64.3281,77.73 Q65.6563,76.0738 68.1563,76.0738 Q68.8594,76.0738 69.5,76.23 Q70.1563,76.3863 70.7188,76.6831 L70.7188,79.4019 Q70.0938,78.8238 69.5,78.5581 Q68.9063,78.2769 68.2813,78.2769 Q66.9375,78.2769 66.25,79.355 Q65.5625,80.4175 65.5625,82.5113 Q65.5625,84.605 66.25,85.6831 Q66.9375,86.7456 68.2813,86.7456 Q68.9063,86.7456 69.5,86.48 Q70.0938,86.1988 70.7188,85.6206 L70.7188,88.3394 Z " fill="#000000"/><a href="https://bo4e.github.io/BO4E-python/v202401.5.0/api/bo4e.com.html#bo4e.com.marktgebietinfo.MarktgebietInfo" target="_top" title="https://bo4e.github.io/BO4E-python/v202401.5.0/api/bo4e.com.html#bo4e.com.marktgebietinfo.MarktgebietInfo" xlink:actuate="onRequest" xlink:href="https://bo4e.github.io/BO4E-python/v202401.5.0/api/bo4e.com.html#bo4e.com.marktgebietinfo.MarktgebietInfo" xlink:show="new" xlink:title="https://bo4e.github.io/BO4E-python/v202401.5.0/api/bo4e.com.html#bo4e.com.marktgebietinfo.MarktgebietInfo" xlink:type="simple"><text fill="#0000FF" font-family="sans-serif" font-size="14" lengthAdjust="spacing" text-decoration="underline" textLength="107" x="98.75" y="81.7251">MarktgebietInfo</text></a><text fill="#000000" font-family="sans-serif" font-size="10" lengthAdjust="spacing" textLength="128" x="88.25" y="94.3091">bo4e.com.marktgebietinfo</text><line style="stroke:#181818;stroke-width:0.5;" x1="8" x2="264" y1="101.6675" y2="101.6675"/><text fill="#000000" font-family="sans-serif" font-size="14" lengthAdjust="spacing" textLength="211" x="13" y="118.6626">marktgebiet : str [0..1] = None</text><text fill="#000000" font-family="sans-serif" font-size="14" lengthAdjust="spacing" textLength="246" x="13" y="134.9595">marktgebietcode : str [0..1] = None</text></g><!--link MarktgebietInfo to COM--><g id="link_MarktgebietInfo_COM"><path codeLine="12" d="M265.25,103 C286.29,103 288.96,103 306.65,103 " fill="none" id="MarktgebietInfo-to-COM" style="stroke:#181818;stroke-width:1.0;"/><polygon fill="none" points="324.65,103,306.65,97,306.65,109,324.65,103" style="stroke:#181818;stroke-width:1.0;"/></g><!--SRC=[jP7DJiCm48JF-2bMxJcEKmM48gW4LGySIXyW-E0aczWYjgDu0V7txYH5BT2M6npcy4cpgzdP5ci2yj2RHXDKfiUIZ7UCbQqA0IPvhecwaCLnuLFaZI7zK73Zu-jrkeowPzBUnOypCKj5ma-vY5LdFgsbjroJRQSxigg_fmOBWsHSxVdgYsy6XZsMyivT1FE2MIBclosPW0hxW_3AJhxP88D0FUI2yqJ29TnwXpyCfQ_mgEcTCQSiXawL-1TLm9QatEJU8aoNukhyR346_uVUHotMAnXqlDD1cpo3ORpvu35Hz3RVXHrNCQRDq9b5Ms0VMD3-2GwcQeDj5Ju0]--></g></svg>