<?xml version="1.0" encoding="us-ascii" standalone="no"?><svg xmlns="http://www.w3.org/2000/svg" xmlns:xlink="http://www.w3.org/1999/xlink" contentStyleType="text/css" height="169px" preserveAspectRatio="none" style="width:514px;height:169px;background:#FFFFFF;" version="1.1" viewBox="0 0 514 169" width="514px" zoomAndPan="magnify"><defs/><g><!--cluster bo4e--><g id="cluster_bo4e"><path d="M325.5,6 L366.5,6 A3.75,3.75 0 0 1 369,8.5 L376,28.2969 L504.5,28.2969 A2.5,2.5 0 0 1 507,30.7969 L507,159.5 A2.5,2.5 0 0 1 504.5,162 L325.5,162 A2.5,2.5 0 0 1 323,159.5 L323,8.5 A2.5,2.5 0 0 1 325.5,6 " fill="none" style="stroke:#000000;stroke-width:1.5;"/><line style="stroke:#000000;stroke-width:1.5;" x1="323" x2="376" y1="28.2969" y2="28.2969"/><text fill="#000000" font-family="sans-serif" font-size="14" font-weight="bold" lengthAdjust="spacing" textLength="40" x="327" y="20.9951">bo4e</text></g><!--cluster com--><g id="cluster_com"><path d="M349.5,49 L428.5,49 A3.75,3.75 0 0 1 431,51.5 L438,71.2969 L480.5,71.2969 A2.5,2.5 0 0 1 483,73.7969 L483,135.5 A2.5,2.5 0 0 1 480.5,138 L349.5,138 A2.5,2.5 0 0 1 347,135.5 L347,51.5 A2.5,2.5 0 0 1 349.5,49 " fill="#E0A86C" style="stroke:#000000;stroke-width:1.5;"/><line style="stroke:#000000;stroke-width:1.5;" x1="347" x2="438" y1="71.2969" y2="71.2969"/><a href="https://bo4e.github.io/BO4E-python/v202401.5.0/api/bo4e.com.html" target="_top" title="https://bo4e.github.io/BO4E-python/v202401.5.0/api/bo4e.com.html" xlink:actuate="onRequest" xlink:href="https://bo4e.github.io/BO4E-python/v202401.5.0/api/bo4e.com.html" xlink:show="new" xlink:title="https://bo4e.github.io/BO4E-python/v202401.5.0/api/bo4e.com.html" xlink:type="simple"><text fill="#0000FF" font-family="sans-serif" font-size="14" font-weight="bold" lengthAdjust="spacing" text-decoration="underline" textLength="78" x="351" y="63.9951">bo4e.com</text></a></g><!--class COM--><g id="elem_COM"><rect codeLine="10" fill="#F1F1F1" height="37.9375" id="COM" rx="2.5" ry="2.5" style="stroke:#181818;stroke-width:0.5;" width="104" x="363" y="84.03"/><ellipse cx="378" cy="102.9988" fill="#ADD1B2" rx="11" ry="11" style="stroke:#181818;stroke-width:1.0;"/><path d="M380.9688,108.6394 Q380.3906,108.9363 379.75,109.0769 Q379.1094,109.2331 378.4063,109.2331 Q375.9063,109.2331 374.5781,107.5925 Q373.2656,105.9363 373.2656,102.8113 Q373.2656,99.6863 374.5781,98.03 Q375.9063,96.3738 378.4063,96.3738 Q379.1094,96.3738 379.75,96.53 Q380.4063,96.6863 380.9688,96.9831 L380.9688,99.7019 Q380.3438,99.1238 379.75,98.8581 Q379.1563,98.5769 378.5313,98.5769 Q377.1875,98.5769 376.5,99.655 Q375.8125,100.7175 375.8125,102.8113 Q375.8125,104.905 376.5,105.9831 Q377.1875,107.0456 378.5313,107.0456 Q379.1563,107.0456 379.75,106.78 Q380.3438,106.4988 380.9688,105.9206 L380.9688,108.6394 Z " fill="#000000"/><a href="https://bo4e.github.io/BO4E-python/v202401.5.0/api/bo4e.com.html#bo4e.com.com.COM" target="_top" title="https://bo4e.github.io/BO4E-python/v202401.5.0/api/bo4e.com.html#bo4e.com.com.COM" xlink:actuate="onRequest" xlink:href="https://bo4e.github.io/BO4E-python/v202401.5.0/api/bo4e.com.html#bo4e.com.com.COM" xlink:show="new" xlink:title="https://bo4e.github.io/BO4E-python/v202401.5.0/api/bo4e.com.html#bo4e.com.com.COM" xlink:type="simple"><text fill="#0000FF" font-family="sans-serif" font-size="14" lengthAdjust="spacing" text-decoration="underline" textLength="33" x="411.5" y="102.0251">COM</text></a><text fill="#000000" font-family="sans-serif" font-size="10" lengthAdjust="spacing" textLength="72" x="392" y="114.6091">bo4e.com.com</text></g><!--class Zaehlzeitregister--><g id="elem_Zaehlzeitregister"><rect codeLine="3" fill="#F1F1F1" height="94.8281" id="Zaehlzeitregister" rx="2.5" ry="2.5" style="stroke:#181818;stroke-width:0.5;" width="296" x="7" y="55.59"/><ellipse cx="85.75" cy="74.5588" fill="#ADD1B2" rx="11" ry="11" style="stroke:#181818;stroke-width:1.0;"/><path d="M88.7188,80.1994 Q88.1406,80.4963 87.5,80.6369 Q86.8594,80.7931 86.1563,80.7931 Q83.6563,80.7931 82.3281,79.1525 Q81.0156,77.4963 81.0156,74.3713 Q81.0156,71.2463 82.3281,69.59 Q83.6563,67.9338 86.1563,67.9338 Q86.8594,67.9338 87.5,68.09 Q88.1563,68.2463 88.7188,68.5431 L88.7188,71.2619 Q88.0938,70.6838 87.5,70.4181 Q86.9063,70.1369 86.2813,70.1369 Q84.9375,70.1369 84.25,71.215 Q83.5625,72.2775 83.5625,74.3713 Q83.5625,76.465 84.25,77.5431 Q84.9375,78.6056 86.2813,78.6056 Q86.9063,78.6056 87.5,78.34 Q88.0938,78.0588 88.7188,77.4806 L88.7188,80.1994 Z " fill="#000000"/><a href="https://bo4e.github.io/BO4E-python/v202401.5.0/api/bo4e.com.html#bo4e.com.zaehlzeitregister.Zaehlzeitregister" target="_top" title="https://bo4e.github.io/BO4E-python/v202401.5.0/api/bo4e.com.html#bo4e.com.zaehlzeitregister.Zaehlzeitregister" xlink:actuate="onRequest" xlink:href="https://bo4e.github.io/BO4E-python/v202401.5.0/api/bo4e.com.html#bo4e.com.zaehlzeitregister.Zaehlzeitregister" xlink:show="new" xlink:title="https://bo4e.github.io/BO4E-python/v202401.5.0/api/bo4e.com.html#bo4e.com.zaehlzeitregister.Zaehlzeitregister" xlink:type="simple"><text fill="#0000FF" font-family="sans-serif" font-size="14" lengthAdjust="spacing" text-decoration="underline" textLength="117" x="112.75" y="73.5851">Zaehlzeitregister</text></a><text fill="#000000" font-family="sans-serif" font-size="10" lengthAdjust="spacing" textLength="130" x="106.25" y="86.1691">bo4e.com.zaehlzeitregister</text><line style="stroke:#181818;stroke-width:0.5;" x1="8" x2="302" y1="93.5275" y2="93.5275"/><text fill="#000000" font-family="sans-serif" font-size="14" lengthAdjust="spacing" textLength="255" x="13" y="110.5226">zaehlzeitDefinition : str [0..1] = None</text><text fill="#000000" font-family="sans-serif" font-size="14" lengthAdjust="spacing" textLength="248" x="13" y="126.8195">zaehlzeitRegister : str [0..1] = None</text><text fill="#000000" font-family="sans-serif" font-size="14" lengthAdjust="spacing" textLength="284" x="13" y="143.1164">istSchwachlastfaehig : bool [0..1] = None</text></g><!--link Zaehlzeitregister to COM--><g id="link_Zaehlzeitregister_COM"><path codeLine="13" d="M303.46,103 C324.68,103 327.22,103 344.72,103 " fill="none" id="Zaehlzeitregister-to-COM" style="stroke:#181818;stroke-width:1.0;"/><polygon fill="none" points="362.72,103,344.72,97,344.72,109,362.72,103" style="stroke:#181818;stroke-width:1.0;"/></g><!--SRC=[jP6nJiD038PdxYciTkubgG924LI2qX4gmKQRuP8uEKj9BiePAWAyEvUYHgWD6mmUR7-_vTykCMTW0oqLcY6Z5bCcKmkHbifQc6mschcnaUSb9aHP4EkNH9BnRjVXQjQyiJQrzphtvw4Vo7FfUwgXRpGrbTHSbTCXwnJgiaFY5WkoZAryFgx0IIMEj_MLfGwZm5_yFce2ofwAuLsS3UWTvbHJxmuYiDp2nfSoYE4Q7aoDFy37WteKSwsdLEzKgjs5E7SYAXoP65CUePz2rAf2swWK_-AISCZYU6_taC9qvTzSNYnxj__mjZwMwtjmCVuC5_jz7D1x7ldgRFQn6DRjXmcXAKEei4gmjS9giuCHNKvOPlOB]--></g></svg>