<svg xmlns="http://www.w3.org/2000/svg" xmlns:xlink="http://www.w3.org/1999/xlink" contentStyleType="text/css" data-diagram-type="CLASS" height="428px" preserveAspectRatio="none" style="width:821px;height:428px;background:#FFFFFF;" version="1.1" viewBox="0 0 821 428" width="821px" zoomAndPan="magnify"><defs/><g><!--cluster bo4e--><g class="cluster" data-entity="bo4e" data-source-line="10" data-uid="ent0005" id="cluster_bo4e"><path d="M533.08,6 L572.956,6 A3.75,3.75 0 0 1 575.456,8.5 L582.456,28.2969 L811.65,28.2969 A2.5,2.5 0 0 1 814.15,30.7969 L814.15,418.5 A2.5,2.5 0 0 1 811.65,421 L533.08,421 A2.5,2.5 0 0 1 530.58,418.5 L530.58,8.5 A2.5,2.5 0 0 1 533.08,6" fill="none" style="stroke:#000000;stroke-width:1.5;"/><line style="stroke:#000000;stroke-width:1.5;" x1="530.58" x2="582.456" y1="28.2969" y2="28.2969"/><text fill="#000000" font-family="sans-serif" font-size="14" font-weight="bold" lengthAdjust="spacing" textLength="38.876" x="534.58" y="20.9951">bo4e</text></g><!--cluster bo--><g class="cluster" data-entity="bo" data-source-line="9" data-uid="ent0003" id="cluster_bo"><path d="M597.11,49 L661.944,49 A3.75,3.75 0 0 1 664.444,51.5 L671.444,71.2969 L747.61,71.2969 A2.5,2.5 0 0 1 750.11,73.7969 L750.11,135.5 A2.5,2.5 0 0 1 747.61,138 L597.11,138 A2.5,2.5 0 0 1 594.61,135.5 L594.61,51.5 A2.5,2.5 0 0 1 597.11,49" fill="#B6D7A8" style="stroke:#000000;stroke-width:1.5;"/><line style="stroke:#000000;stroke-width:1.5;" x1="594.61" x2="671.444" y1="71.2969" y2="71.2969"/><a href="https://bo4e.github.io/BO4E-python/v202501.1.0-rc1/api/bo4e.bo.html" target="_top" title="https://bo4e.github.io/BO4E-python/v202501.1.0-rc1/api/bo4e.bo.html" xlink:actuate="onRequest" xlink:href="https://bo4e.github.io/BO4E-python/v202501.1.0-rc1/api/bo4e.bo.html" xlink:show="new" xlink:title="https://bo4e.github.io/BO4E-python/v202501.1.0-rc1/api/bo4e.bo.html" xlink:type="simple"><text fill="#0000FF" font-family="sans-serif" font-size="14" font-weight="bold" lengthAdjust="spacing" text-decoration="underline" textLength="63.834" x="598.61" y="63.9951">bo4e.bo</text></a></g><!--cluster enum--><g class="cluster" data-entity="enum" data-source-line="12" data-uid="ent0006" id="cluster_enum"><path d="M557.08,162 L646.2909,162 A3.75,3.75 0 0 1 648.7909,164.5 L655.7909,184.2969 L787.65,184.2969 A2.5,2.5 0 0 1 790.15,186.7969 L790.15,394.5 A2.5,2.5 0 0 1 787.65,397 L557.08,397 A2.5,2.5 0 0 1 554.58,394.5 L554.58,164.5 A2.5,2.5 0 0 1 557.08,162" fill="#D1C358" style="stroke:#000000;stroke-width:1.5;"/><line style="stroke:#000000;stroke-width:1.5;" x1="554.58" x2="655.7909" y1="184.2969" y2="184.2969"/><a href="https://bo4e.github.io/BO4E-python/v202501.1.0-rc1/api/bo4e.enum.html" target="_top" title="https://bo4e.github.io/BO4E-python/v202501.1.0-rc1/api/bo4e.enum.html" xlink:actuate="onRequest" xlink:href="https://bo4e.github.io/BO4E-python/v202501.1.0-rc1/api/bo4e.enum.html" xlink:show="new" xlink:title="https://bo4e.github.io/BO4E-python/v202501.1.0-rc1/api/bo4e.enum.html" xlink:type="simple"><text fill="#0000FF" font-family="sans-serif" font-size="14" font-weight="bold" lengthAdjust="spacing" text-decoration="underline" textLength="88.2109" x="558.58" y="176.9951">bo4e.enum</text></a></g><!--class Preisblatt--><g class="entity" data-entity="Preisblatt" data-source-line="10" data-uid="ent0004" id="entity_Preisblatt"><rect fill="#F1F1F1" height="37.9375" rx="2.5" ry="2.5" style="stroke:#181818;stroke-width:0.5;" width="123.499" x="610.61" y="84.03"/><ellipse cx="625.61" cy="102.9987" fill="#ADD1B2" rx="11" ry="11" style="stroke:#181818;stroke-width:1;"/><path d="M628.5788,108.6394 Q628.0006,108.9362 627.36,109.0769 Q626.7194,109.2331 626.0163,109.2331 Q623.5163,109.2331 622.1881,107.5925 Q620.8756,105.9362 620.8756,102.8112 Q620.8756,99.6862 622.1881,98.03 Q623.5163,96.3737 626.0163,96.3737 Q626.7194,96.3737 627.36,96.53 Q628.0163,96.6862 628.5788,96.9831 L628.5788,99.7019 Q627.9538,99.1237 627.36,98.8581 Q626.7663,98.5769 626.1413,98.5769 Q624.7975,98.5769 624.11,99.655 Q623.4225,100.7175 623.4225,102.8112 Q623.4225,104.905 624.11,105.9831 Q624.7975,107.0456 626.1413,107.0456 Q626.7663,107.0456 627.36,106.78 Q627.9538,106.4987 628.5788,105.9206 L628.5788,108.6394 Z " fill="#000000"/><a href="https://bo4e.github.io/BO4E-python/v202501.1.0-rc1/api/bo4e.bo.html#bo4e.bo.preisblatt.Preisblatt" target="_top" title="https://bo4e.github.io/BO4E-python/v202501.1.0-rc1/api/bo4e.bo.html#bo4e.bo.preisblatt.Preisblatt" xlink:actuate="onRequest" xlink:href="https://bo4e.github.io/BO4E-python/v202501.1.0-rc1/api/bo4e.bo.html#bo4e.bo.preisblatt.Preisblatt" xlink:show="new" xlink:title="https://bo4e.github.io/BO4E-python/v202501.1.0-rc1/api/bo4e.bo.html#bo4e.bo.preisblatt.Preisblatt" xlink:type="simple"><text fill="#0000FF" font-family="sans-serif" font-size="14" lengthAdjust="spacing" text-decoration="underline" textLength="66.3291" x="652.195" y="102.0251">Preisblatt</text></a><text fill="#000000" font-family="sans-serif" font-size="10" lengthAdjust="spacing" textLength="91.499" x="639.61" y="114.6091">bo4e.bo.preisblatt</text></g><!--class Kundengruppe--><g class="entity" data-entity="Kundengruppe" data-source-line="13" data-uid="ent0007" id="entity_Kundengruppe"><rect fill="#F1F1F1" height="37.9375" rx="2.5" ry="2.5" style="stroke:#181818;stroke-width:0.5;" width="164.8564" x="589.93" y="197.03"/><ellipse cx="604.93" cy="215.9988" fill="#ADD1B2" rx="11" ry="11" style="stroke:#181818;stroke-width:1;"/><path d="M607.8988,221.6394 Q607.3206,221.9363 606.68,222.0769 Q606.0394,222.2331 605.3363,222.2331 Q602.8363,222.2331 601.5081,220.5925 Q600.1956,218.9363 600.1956,215.8113 Q600.1956,212.6863 601.5081,211.03 Q602.8363,209.3738 605.3363,209.3738 Q606.0394,209.3738 606.68,209.53 Q607.3363,209.6863 607.8988,209.9831 L607.8988,212.7019 Q607.2738,212.1238 606.68,211.8581 Q606.0863,211.5769 605.4613,211.5769 Q604.1175,211.5769 603.43,212.655 Q602.7425,213.7175 602.7425,215.8113 Q602.7425,217.905 603.43,218.9831 Q604.1175,220.0456 605.4613,220.0456 Q606.0863,220.0456 606.68,219.78 Q607.2738,219.4988 607.8988,218.9206 L607.8988,221.6394 Z " fill="#000000"/><a href="https://bo4e.github.io/BO4E-python/v202501.1.0-rc1/api/bo4e.enum.html#bo4e.enum.kundengruppe.Kundengruppe" target="_top" title="https://bo4e.github.io/BO4E-python/v202501.1.0-rc1/api/bo4e.enum.html#bo4e.enum.kundengruppe.Kundengruppe" xlink:actuate="onRequest" xlink:href="https://bo4e.github.io/BO4E-python/v202501.1.0-rc1/api/bo4e.enum.html#bo4e.enum.kundengruppe.Kundengruppe" xlink:show="new" xlink:title="https://bo4e.github.io/BO4E-python/v202501.1.0-rc1/api/bo4e.enum.html#bo4e.enum.kundengruppe.Kundengruppe" xlink:type="simple"><text fill="#0000FF" font-family="sans-serif" font-size="14" lengthAdjust="spacing" text-decoration="underline" textLength="103.2021" x="633.7571" y="215.0251">Kundengruppe</text></a><text fill="#000000" font-family="sans-serif" font-size="10" lengthAdjust="spacing" textLength="132.8564" x="618.93" y="227.6091">bo4e.enum.kundengruppe</text></g><!--class Netzebene--><g class="entity" data-entity="Netzebene" data-source-line="14" data-uid="ent0008" id="entity_Netzebene"><rect fill="#F1F1F1" height="37.9375" rx="2.5" ry="2.5" style="stroke:#181818;stroke-width:0.5;" width="144.71" x="600.01" y="270.03"/><ellipse cx="615.01" cy="288.9988" fill="#ADD1B2" rx="11" ry="11" style="stroke:#181818;stroke-width:1;"/><path d="M617.9788,294.6394 Q617.4006,294.9363 616.76,295.0769 Q616.1194,295.2331 615.4163,295.2331 Q612.9163,295.2331 611.5881,293.5925 Q610.2756,291.9363 610.2756,288.8113 Q610.2756,285.6863 611.5881,284.03 Q612.9163,282.3738 615.4163,282.3738 Q616.1194,282.3738 616.76,282.53 Q617.4163,282.6863 617.9788,282.9831 L617.9788,285.7019 Q617.3538,285.1238 616.76,284.8581 Q616.1663,284.5769 615.5413,284.5769 Q614.1975,284.5769 613.51,285.655 Q612.8225,286.7175 612.8225,288.8113 Q612.8225,290.905 613.51,291.9831 Q614.1975,293.0456 615.5413,293.0456 Q616.1663,293.0456 616.76,292.78 Q617.3538,292.4988 617.9788,291.9206 L617.9788,294.6394 Z " fill="#000000"/><a href="https://bo4e.github.io/BO4E-python/v202501.1.0-rc1/api/bo4e.enum.html#bo4e.enum.netzebene.Netzebene" target="_top" title="https://bo4e.github.io/BO4E-python/v202501.1.0-rc1/api/bo4e.enum.html#bo4e.enum.netzebene.Netzebene" xlink:actuate="onRequest" xlink:href="https://bo4e.github.io/BO4E-python/v202501.1.0-rc1/api/bo4e.enum.html#bo4e.enum.netzebene.Netzebene" xlink:show="new" xlink:title="https://bo4e.github.io/BO4E-python/v202501.1.0-rc1/api/bo4e.enum.html#bo4e.enum.netzebene.Netzebene" xlink:type="simple"><text fill="#0000FF" font-family="sans-serif" font-size="14" lengthAdjust="spacing" text-decoration="underline" textLength="75.5234" x="647.6033" y="288.0251">Netzebene</text></a><text fill="#000000" font-family="sans-serif" font-size="10" lengthAdjust="spacing" textLength="112.71" x="629.01" y="300.6091">bo4e.enum.netzebene</text></g><!--class Bilanzierungsmethode--><g class="entity" data-entity="Bilanzierungsmethode" data-source-line="15" data-uid="ent0009" id="entity_Bilanzierungsmethode"><rect fill="#F1F1F1" height="37.9375" rx="2.5" ry="2.5" style="stroke:#181818;stroke-width:0.5;" width="203.5723" x="570.58" y="343.03"/><ellipse cx="585.58" cy="361.9988" fill="#ADD1B2" rx="11" ry="11" style="stroke:#181818;stroke-width:1;"/><path d="M588.5488,367.6394 Q587.9706,367.9363 587.33,368.0769 Q586.6894,368.2331 585.9863,368.2331 Q583.4863,368.2331 582.1581,366.5925 Q580.8456,364.9363 580.8456,361.8113 Q580.8456,358.6863 582.1581,357.03 Q583.4863,355.3738 585.9863,355.3738 Q586.6894,355.3738 587.33,355.53 Q587.9863,355.6863 588.5488,355.9831 L588.5488,358.7019 Q587.9238,358.1238 587.33,357.8581 Q586.7363,357.5769 586.1113,357.5769 Q584.7675,357.5769 584.08,358.655 Q583.3925,359.7175 583.3925,361.8113 Q583.3925,363.905 584.08,364.9831 Q584.7675,366.0456 586.1113,366.0456 Q586.7363,366.0456 587.33,365.78 Q587.9238,365.4988 588.5488,364.9206 L588.5488,367.6394 Z " fill="#000000"/><a href="https://bo4e.github.io/BO4E-python/v202501.1.0-rc1/api/bo4e.enum.html#bo4e.enum.bilanzierungsmethode.Bilanzierungsmethode" target="_top" title="https://bo4e.github.io/BO4E-python/v202501.1.0-rc1/api/bo4e.enum.html#bo4e.enum.bilanzierungsmethode.Bilanzierungsmethode" xlink:actuate="onRequest" xlink:href="https://bo4e.github.io/BO4E-python/v202501.1.0-rc1/api/bo4e.enum.html#bo4e.enum.bilanzierungsmethode.Bilanzierungsmethode" xlink:show="new" xlink:title="https://bo4e.github.io/BO4E-python/v202501.1.0-rc1/api/bo4e.enum.html#bo4e.enum.bilanzierungsmethode.Bilanzierungsmethode" xlink:type="simple"><text fill="#0000FF" font-family="sans-serif" font-size="14" lengthAdjust="spacing" text-decoration="underline" textLength="157.0488" x="606.8417" y="361.0251">Bilanzierungsmethode</text></a><text fill="#000000" font-family="sans-serif" font-size="10" lengthAdjust="spacing" textLength="171.5723" x="599.58" y="373.6091">bo4e.enum.bilanzierungsmethode</text></g><!--class PreisblattNetznutzung--><g class="entity" data-entity="PreisblattNetznutzung" data-source-line="3" data-uid="ent0002" id="entity_PreisblattNetznutzung"><rect fill="#F1F1F1" height="94.8281" rx="2.5" ry="2.5" style="stroke:#181818;stroke-width:0.5;" width="330.5752" x="7" y="209.59"/><ellipse cx="90.3027" cy="228.5588" fill="#ADD1B2" rx="11" ry="11" style="stroke:#181818;stroke-width:1;"/><path d="M93.2715,234.1994 Q92.6934,234.4963 92.0527,234.6369 Q91.4121,234.7931 90.709,234.7931 Q88.209,234.7931 86.8809,233.1525 Q85.5684,231.4963 85.5684,228.3713 Q85.5684,225.2463 86.8809,223.59 Q88.209,221.9338 90.709,221.9338 Q91.4121,221.9338 92.0527,222.09 Q92.709,222.2463 93.2715,222.5431 L93.2715,225.2619 Q92.6465,224.6838 92.0527,224.4181 Q91.459,224.1369 90.834,224.1369 Q89.4902,224.1369 88.8027,225.215 Q88.1152,226.2775 88.1152,228.3713 Q88.1152,230.465 88.8027,231.5431 Q89.4902,232.6056 90.834,232.6056 Q91.459,232.6056 92.0527,232.34 Q92.6465,232.0588 93.2715,231.4806 L93.2715,234.1994 Z " fill="#000000"/><a href="https://bo4e.github.io/BO4E-python/v202501.1.0-rc1/api/bo4e.bo.html#bo4e.bo.preisblattnetznutzung.PreisblattNetznutzung" target="_top" title="https://bo4e.github.io/BO4E-python/v202501.1.0-rc1/api/bo4e.bo.html#bo4e.bo.preisblattnetznutzung.PreisblattNetznutzung" xlink:actuate="onRequest" xlink:href="https://bo4e.github.io/BO4E-python/v202501.1.0-rc1/api/bo4e.bo.html#bo4e.bo.preisblattnetznutzung.PreisblattNetznutzung" xlink:show="new" xlink:title="https://bo4e.github.io/BO4E-python/v202501.1.0-rc1/api/bo4e.bo.html#bo4e.bo.preisblattnetznutzung.PreisblattNetznutzung" xlink:type="simple"><text fill="#0000FF" font-family="sans-serif" font-size="14" lengthAdjust="spacing" text-decoration="underline" textLength="155.4697" x="110.8027" y="227.5851">PreisblattNetznutzung</text></a><text fill="#000000" font-family="sans-serif" font-size="10" lengthAdjust="spacing" textLength="154.0283" x="111.5234" y="240.1691">bo4e.bo.preisblattnetznutzung</text><line style="stroke:#181818;stroke-width:0.5;" x1="8" x2="336.5752" y1="247.5275" y2="247.5275"/><text fill="#000000" font-family="sans-serif" font-size="14" lengthAdjust="spacing" textLength="255.6709" x="13" y="264.5226">_version : str [0..1] = 202501.0.1rc2</text><text fill="#000000" font-family="sans-serif" font-size="14" lengthAdjust="spacing" textLength="318.5752" x="13" y="280.8195">zusatzAttribute : ZusatzAttribut [0..*] = None</text><text fill="#000000" font-family="sans-serif" font-size="14" lengthAdjust="spacing" textLength="151.1768" x="13" y="297.1164">_id : str [0..1] = None</text></g><!--link PreisblattNetznutzung to Preisblatt--><g class="link" data-entity-1="PreisblattNetznutzung" data-entity-2="Preisblatt" data-source-line="18" data-uid="lnk10" id="link_PreisblattNetznutzung_Preisblatt"><path codeLine="18" d="M328.15,209.12 C423.53,179.63 523.3227,148.7653 593.1427,127.1853" fill="none" id="PreisblattNetznutzung-to-Preisblatt" style="stroke:#181818;stroke-width:1;"/><polygon fill="none" points="610.34,121.87,591.3709,121.4529,594.9145,132.9178,610.34,121.87" style="stroke:#181818;stroke-width:1;"/></g><!--link PreisblattNetznutzung to Bilanzierungsmethode--><g class="link" data-entity-1="PreisblattNetznutzung" data-entity-2="Bilanzierungsmethode" data-source-line="19" data-uid="lnk11" id="link_PreisblattNetznutzung_Bilanzierungsmethode"><path codeLine="19" d="M337.52,304.89 C347.66,307.41 357.74,309.81 367.58,312 C434.61,326.96 499.0195,337.7319 558.3695,346.5219" fill="none" id="PreisblattNetznutzung-to-Bilanzierungsmethode" style="stroke:#181818;stroke-width:1;"/><polygon fill="#181818" points="570.24,348.28,564.8908,343.4441,558.3695,346.5219,563.7187,351.3578,570.24,348.28" style="stroke:#181818;stroke-width:1;"/><text fill="#000000" font-family="sans-serif" font-size="13" lengthAdjust="spacing" textLength="145.1646" x="368.58" y="308.0669">bilanzierungsmethode</text><text fill="#000000" font-family="sans-serif" font-size="13" lengthAdjust="spacing" textLength="24.8066" x="537.8885" y="359.8951">0..1</text></g><!--link PreisblattNetznutzung to Netzebene--><g class="link" data-entity-1="PreisblattNetznutzung" data-entity-2="Netzebene" data-source-line="20" data-uid="lnk12" id="link_PreisblattNetznutzung_Netzebene"><path codeLine="20" d="M338.01,277.52 C348.01,278.45 357.92,279.29 367.58,280 C446.9,285.86 526.1408,287.7998 587.7608,288.5198" fill="none" id="PreisblattNetznutzung-to-Netzebene" style="stroke:#181818;stroke-width:1;"/><polygon fill="#181818" points="599.76,288.66,593.8071,284.5902,587.7608,288.5198,593.7137,292.5896,599.76,288.66" style="stroke:#181818;stroke-width:1;"/><text fill="#000000" font-family="sans-serif" font-size="13" lengthAdjust="spacing" textLength="68.6436" x="407.08" y="276.0669">netzebene</text><text fill="#000000" font-family="sans-serif" font-size="13" lengthAdjust="spacing" textLength="24.8066" x="567.0767" y="301.4722">0..1</text></g><!--link PreisblattNetznutzung to Kundengruppe--><g class="link" data-entity-1="PreisblattNetznutzung" data-entity-2="Kundengruppe" data-source-line="21" data-uid="lnk13" id="link_PreisblattNetznutzung_Kundengruppe"><path codeLine="21" d="M337.76,243.46 C422.2,236.51 509.3905,229.3346 577.5305,223.7246" fill="none" id="PreisblattNetznutzung-to-Kundengruppe" style="stroke:#181818;stroke-width:1;"/><polygon fill="#181818" points="589.49,222.74,583.182,219.2458,577.5305,223.7246,583.8384,227.2188,589.49,222.74" style="stroke:#181818;stroke-width:1;"/><text fill="#000000" font-family="sans-serif" font-size="13" lengthAdjust="spacing" textLength="94.834" x="394.08" y="226.0669">kundengruppe</text><text fill="#000000" font-family="sans-serif" font-size="13" lengthAdjust="spacing" textLength="24.8066" x="557.0767" y="236.0812">0..1</text></g><!--SRC=[jLHDRzim33rNlu98RWKYsscx5iOM845t6f3jlCmO_C74GctPaEWKyxR_FjbB7BMnMmH8Rdeq-VpuA2h3DG4LeCGc9KY4mfX48HcBir1h6ArMAL6fVSU9Ybla6q5f5N5HE8kljvydvIzA2-bif-xqplMunzs9YZqdBCN_zAZWAUNPU0zAXK97MKWaaMfPKLt93V_MHPU7AFH6W-27_AX5ZRxdpjva7K6e-pdWDxlwkKMbJP_WWoO5AvTpBu1Fi6l4vPwAf-oghdH8zPn8YQWYDDdVNqJQmkkcS5b8DBGYUStOVlZBc0npr6KOuvayXHq8WhRJ7OBnuiFZ_VoXwV724xJ6Pldype1UJSKOSpPVK5QvvKm3RMyQ3EF4Ys_kpkTEzy_n0JvLCa6vKLLP8lzY0R31iKz7nQrsk-Q2efl5mGWbykN-1DrfG6jNqmhjiY-eCX9PA6k1oconpj4G9CWNFK7e2mwqqKVQTjJ7qMpom7ircVoPxTVGIXbAD_dNC6fUYT7XWlOtuqEVnjE83sFreHlSQHGlxh8FzbLbB1L6Q8vvPDvLfjFY6GQurmApHFy3]--></g></svg>