<svg xmlns="http://www.w3.org/2000/svg" xmlns:xlink="http://www.w3.org/1999/xlink" contentStyleType="text/css" data-diagram-type="CLASS" height="282px" preserveAspectRatio="none" style="width:845px;height:282px;background:#FFFFFF;" version="1.1" viewBox="0 0 845 282" width="845px" zoomAndPan="magnify"><defs/><g><!--cluster bo4e--><g class="cluster" data-entity="bo4e" data-source-line="9" data-uid="ent0005" id="cluster_bo4e"><path d="M593.77,6 L633.646,6 A3.75,3.75 0 0 1 636.146,8.5 L643.146,28.2969 L836.25,28.2969 A2.5,2.5 0 0 1 838.75,30.7969 L838.75,272.5 A2.5,2.5 0 0 1 836.25,275 L593.77,275 A2.5,2.5 0 0 1 591.27,272.5 L591.27,8.5 A2.5,2.5 0 0 1 593.77,6" fill="none" style="stroke:#000000;stroke-width:1.5;"/><line style="stroke:#000000;stroke-width:1.5;" x1="591.27" x2="643.146" y1="28.2969" y2="28.2969"/><text fill="#000000" font-family="sans-serif" font-size="14" font-weight="bold" lengthAdjust="spacing" textLength="38.876" x="595.27" y="20.9951">bo4e</text></g><!--cluster bo--><g class="cluster" data-entity="bo" data-source-line="8" data-uid="ent0003" id="cluster_bo"><path d="M620.81,49 L685.644,49 A3.75,3.75 0 0 1 688.144,51.5 L695.144,71.2969 L809.2,71.2969 A2.5,2.5 0 0 1 811.7,73.7969 L811.7,135.5 A2.5,2.5 0 0 1 809.2,138 L620.81,138 A2.5,2.5 0 0 1 618.31,135.5 L618.31,51.5 A2.5,2.5 0 0 1 620.81,49" fill="#B6D7A8" style="stroke:#000000;stroke-width:1.5;"/><line style="stroke:#000000;stroke-width:1.5;" x1="618.31" x2="695.144" y1="71.2969" y2="71.2969"/><a href="https://bo4e.github.io/BO4E-python/v202501.1.0-rc1/api/bo4e.bo.html" target="_top" title="https://bo4e.github.io/BO4E-python/v202501.1.0-rc1/api/bo4e.bo.html" xlink:actuate="onRequest" xlink:href="https://bo4e.github.io/BO4E-python/v202501.1.0-rc1/api/bo4e.bo.html" xlink:show="new" xlink:title="https://bo4e.github.io/BO4E-python/v202501.1.0-rc1/api/bo4e.bo.html" xlink:type="simple"><text fill="#0000FF" font-family="sans-serif" font-size="14" font-weight="bold" lengthAdjust="spacing" text-decoration="underline" textLength="63.834" x="622.31" y="63.9951">bo4e.bo</text></a></g><!--cluster com--><g class="cluster" data-entity="com" data-source-line="11" data-uid="ent0006" id="cluster_com"><path d="M617.77,162 L695.4692,162 A3.75,3.75 0 0 1 697.9692,164.5 L704.9692,184.2969 L812.25,184.2969 A2.5,2.5 0 0 1 814.75,186.7969 L814.75,248.5 A2.5,2.5 0 0 1 812.25,251 L617.77,251 A2.5,2.5 0 0 1 615.27,248.5 L615.27,164.5 A2.5,2.5 0 0 1 617.77,162" fill="#E0A86C" style="stroke:#000000;stroke-width:1.5;"/><line style="stroke:#000000;stroke-width:1.5;" x1="615.27" x2="704.9692" y1="184.2969" y2="184.2969"/><a href="https://bo4e.github.io/BO4E-python/v202501.1.0-rc1/api/bo4e.com.html" target="_top" title="https://bo4e.github.io/BO4E-python/v202501.1.0-rc1/api/bo4e.com.html" xlink:actuate="onRequest" xlink:href="https://bo4e.github.io/BO4E-python/v202501.1.0-rc1/api/bo4e.com.html" xlink:show="new" xlink:title="https://bo4e.github.io/BO4E-python/v202501.1.0-rc1/api/bo4e.com.html" xlink:type="simple"><text fill="#0000FF" font-family="sans-serif" font-size="14" font-weight="bold" lengthAdjust="spacing" text-decoration="underline" textLength="76.6992" x="619.27" y="176.9951">bo4e.com</text></a></g><!--class Geschaeftsobjekt--><g class="entity" data-entity="Geschaeftsobjekt" data-source-line="9" data-uid="ent0004" id="entity_Geschaeftsobjekt"><rect fill="#F1F1F1" height="37.9375" rx="2.5" ry="2.5" style="stroke:#181818;stroke-width:0.5;" width="161.3896" x="634.31" y="84.03"/><ellipse cx="649.31" cy="102.9988" fill="#ADD1B2" rx="11" ry="11" style="stroke:#181818;stroke-width:1;"/><path d="M652.2788,108.6394 Q651.7006,108.9363 651.06,109.0769 Q650.4194,109.2331 649.7163,109.2331 Q647.2163,109.2331 645.8881,107.5925 Q644.5756,105.9363 644.5756,102.8113 Q644.5756,99.6863 645.8881,98.03 Q647.2163,96.3738 649.7163,96.3738 Q650.4194,96.3738 651.06,96.53 Q651.7163,96.6863 652.2788,96.9831 L652.2788,99.7019 Q651.6538,99.1238 651.06,98.8581 Q650.4663,98.5769 649.8413,98.5769 Q648.4975,98.5769 647.81,99.655 Q647.1225,100.7175 647.1225,102.8113 Q647.1225,104.905 647.81,105.9831 Q648.4975,107.0456 649.8413,107.0456 Q650.4663,107.0456 651.06,106.78 Q651.6538,106.4988 652.2788,105.9206 L652.2788,108.6394 Z " fill="#000000"/><a href="https://bo4e.github.io/BO4E-python/v202501.1.0-rc1/api/bo4e.bo.html#bo4e.bo.geschaeftsobjekt.Geschaeftsobjekt" target="_top" title="https://bo4e.github.io/BO4E-python/v202501.1.0-rc1/api/bo4e.bo.html#bo4e.bo.geschaeftsobjekt.Geschaeftsobjekt" xlink:actuate="onRequest" xlink:href="https://bo4e.github.io/BO4E-python/v202501.1.0-rc1/api/bo4e.bo.html#bo4e.bo.geschaeftsobjekt.Geschaeftsobjekt" xlink:show="new" xlink:title="https://bo4e.github.io/BO4E-python/v202501.1.0-rc1/api/bo4e.bo.html#bo4e.bo.geschaeftsobjekt.Geschaeftsobjekt" xlink:type="simple"><text fill="#0000FF" font-family="sans-serif" font-size="14" lengthAdjust="spacing" text-decoration="underline" textLength="121.7822" x="667.1137" y="102.0251">Geschaeftsobjekt</text></a><text fill="#000000" font-family="sans-serif" font-size="10" lengthAdjust="spacing" textLength="129.3896" x="663.31" y="114.6091">bo4e.bo.geschaeftsobjekt</text></g><!--class Regionskriterium--><g class="entity" data-entity="Regionskriterium" data-source-line="12" data-uid="ent0007" id="entity_Regionskriterium"><rect fill="#F1F1F1" height="37.9375" rx="2.5" ry="2.5" style="stroke:#181818;stroke-width:0.5;" width="167.4736" x="631.27" y="197.03"/><ellipse cx="646.27" cy="215.9988" fill="#ADD1B2" rx="11" ry="11" style="stroke:#181818;stroke-width:1;"/><path d="M649.2388,221.6394 Q648.6606,221.9363 648.02,222.0769 Q647.3794,222.2331 646.6763,222.2331 Q644.1763,222.2331 642.8481,220.5925 Q641.5356,218.9363 641.5356,215.8113 Q641.5356,212.6863 642.8481,211.03 Q644.1763,209.3738 646.6763,209.3738 Q647.3794,209.3738 648.02,209.53 Q648.6763,209.6863 649.2388,209.9831 L649.2388,212.7019 Q648.6138,212.1238 648.02,211.8581 Q647.4263,211.5769 646.8013,211.5769 Q645.4575,211.5769 644.77,212.655 Q644.0825,213.7175 644.0825,215.8113 Q644.0825,217.905 644.77,218.9831 Q645.4575,220.0456 646.8013,220.0456 Q647.4263,220.0456 648.02,219.78 Q648.6138,219.4988 649.2388,218.9206 L649.2388,221.6394 Z " fill="#000000"/><a href="https://bo4e.github.io/BO4E-python/v202501.1.0-rc1/api/bo4e.com.html#bo4e.com.regionskriterium.Regionskriterium" target="_top" title="https://bo4e.github.io/BO4E-python/v202501.1.0-rc1/api/bo4e.com.html#bo4e.com.regionskriterium.Regionskriterium" xlink:actuate="onRequest" xlink:href="https://bo4e.github.io/BO4E-python/v202501.1.0-rc1/api/bo4e.com.html#bo4e.com.regionskriterium.Regionskriterium" xlink:show="new" xlink:title="https://bo4e.github.io/BO4E-python/v202501.1.0-rc1/api/bo4e.com.html#bo4e.com.regionskriterium.Regionskriterium" xlink:type="simple"><text fill="#0000FF" font-family="sans-serif" font-size="14" lengthAdjust="spacing" text-decoration="underline" textLength="119.8613" x="668.0762" y="215.0251">Regionskriterium</text></a><text fill="#000000" font-family="sans-serif" font-size="10" lengthAdjust="spacing" textLength="135.4736" x="660.27" y="227.6091">bo4e.com.regionskriterium</text></g><!--class Region--><g class="entity" data-entity="Region" data-source-line="3" data-uid="ent0002" id="entity_Region"><rect fill="#F1F1F1" height="78.5313" rx="2.5" ry="2.5" style="stroke:#181818;stroke-width:0.5;" width="457.2725" x="7" y="119.73"/><ellipse cx="193.5615" cy="138.6988" fill="#ADD1B2" rx="11" ry="11" style="stroke:#181818;stroke-width:1;"/><path d="M196.5303,144.3394 Q195.9521,144.6363 195.3115,144.7769 Q194.6709,144.9331 193.9678,144.9331 Q191.4678,144.9331 190.1396,143.2925 Q188.8271,141.6363 188.8271,138.5113 Q188.8271,135.3863 190.1396,133.73 Q191.4678,132.0738 193.9678,132.0738 Q194.6709,132.0738 195.3115,132.23 Q195.9678,132.3863 196.5303,132.6831 L196.5303,135.4019 Q195.9053,134.8238 195.3115,134.5581 Q194.7178,134.2769 194.0928,134.2769 Q192.749,134.2769 192.0615,135.355 Q191.374,136.4175 191.374,138.5113 Q191.374,140.605 192.0615,141.6831 Q192.749,142.7456 194.0928,142.7456 Q194.7178,142.7456 195.3115,142.48 Q195.9053,142.1988 196.5303,141.6206 L196.5303,144.3394 Z " fill="#000000"/><a href="https://bo4e.github.io/BO4E-python/v202501.1.0-rc1/api/bo4e.bo.html#bo4e.bo.region.Region" target="_top" title="https://bo4e.github.io/BO4E-python/v202501.1.0-rc1/api/bo4e.bo.html#bo4e.bo.region.Region" xlink:actuate="onRequest" xlink:href="https://bo4e.github.io/BO4E-python/v202501.1.0-rc1/api/bo4e.bo.html#bo4e.bo.region.Region" xlink:show="new" xlink:title="https://bo4e.github.io/BO4E-python/v202501.1.0-rc1/api/bo4e.bo.html#bo4e.bo.region.Region" xlink:type="simple"><text fill="#0000FF" font-family="sans-serif" font-size="14" lengthAdjust="spacing" text-decoration="underline" textLength="48.5557" x="227.6084" y="137.7251">Region</text></a><text fill="#000000" font-family="sans-serif" font-size="10" lengthAdjust="spacing" textLength="75.6494" x="214.0615" y="150.3091">bo4e.bo.region</text><line style="stroke:#181818;stroke-width:0.5;" x1="8" x2="463.2725" y1="157.6675" y2="157.6675"/><text fill="#000000" font-family="sans-serif" font-size="14" lengthAdjust="spacing" textLength="445.2725" x="13" y="174.6626">_typ : Literal[&lt;BoTyp.REGION: 'REGION'&gt;] [1] = BoTyp.REGION</text><text fill="#000000" font-family="sans-serif" font-size="14" lengthAdjust="spacing" textLength="220.8281" x="13" y="190.9595">bezeichnung : str [0..1] = None</text></g><!--link Region to Geschaeftsobjekt--><g class="link" data-entity-1="Region" data-entity-2="Geschaeftsobjekt" data-source-line="15" data-uid="lnk8" id="link_Region_Geschaeftsobjekt"><path codeLine="15" d="M464.49,132.27 C525.31,125.14 569.1927,119.9883 616.0527,114.4883" fill="none" id="Region-to-Geschaeftsobjekt" style="stroke:#181818;stroke-width:1;"/><polygon fill="none" points="633.93,112.39,615.3533,108.5292,616.7521,120.4474,633.93,112.39" style="stroke:#181818;stroke-width:1;"/></g><!--link Region to Regionskriterium--><g class="link" data-entity-1="Region" data-entity-2="Regionskriterium" data-source-line="16" data-uid="lnk9" id="link_Region_Regionskriterium"><path codeLine="16" d="M464.38,184.78 C501.46,189.1 539.44,193.61 575.27,198 C593.35,200.21 600.8485,201.1454 619.2285,203.5154" fill="none" id="Region-to-Regionskriterium" style="stroke:#181818;stroke-width:1;"/><polygon fill="#181818" points="631.13,205.05,625.6908,200.3155,619.2285,203.5154,624.6677,208.2498,631.13,205.05" style="stroke:#181818;stroke-width:1;"/><text fill="#000000" font-family="sans-serif" font-size="13" lengthAdjust="spacing" textLength="73.7153" x="498.27" y="186.0669">positivListe</text><text fill="#000000" font-family="sans-serif" font-size="13" lengthAdjust="spacing" textLength="23.0356" x="600.2331" y="216.8368">0..*</text></g><!--link Region to Regionskriterium--><g class="link" data-entity-1="Region" data-entity-2="Regionskriterium" data-source-line="17" data-uid="lnk10" id="link_Region_Regionskriterium"><path codeLine="17" d="M370.2,198.73 C409.77,208.71 453.44,218 494.27,223 C530.01,227.37 539.28,223.91 575.27,223 C593.35,222.54 600.7637,222.3236 619.1537,221.4436" fill="none" id="Region-to-Regionskriterium-1" style="stroke:#181818;stroke-width:1;"/><polygon fill="#181818" points="631.14,220.87,624.9557,217.1614,619.1537,221.4436,625.338,225.1522,631.14,220.87" style="stroke:#181818;stroke-width:1;"/><text fill="#000000" font-family="sans-serif" font-size="13" lengthAdjust="spacing" textLength="79.5806" x="495.27" y="219.0669">negativListe</text><text fill="#000000" font-family="sans-serif" font-size="13" lengthAdjust="spacing" textLength="23.0356" x="600.2439" y="233.9669">0..*</text></g><!--SRC=[jLDDRu9043sxls8Y1nCJ5Z3M6c9Dj3McYT74z4P90pYoMu4bx6gZRVzxyGErwAM9FIrlUFEMUVE8SAv02SXuo1JCU8Q1uY8X98WyAQ7gE4ofLDg6uOicqf0hjlGf5qP_qXpewLenaHYhXjcuCorgKLFF0ilmKhwd-u8o5KTQ0J8CSt4wtHsmFrptDUb8la7RChk_YLNmv845dwJofjOfs33Y2ZClSZfzyR9EwNGmV9wCRQZj7sfT5npBXGSuVqqgFcwG1onP9c6k8LK6ZadfZZWM2P9lGX8lHfbw0TveR3W0rzqDSa2WzLjFzxtsTg9_CJb46J0ltwiK_Zik51sM2b0kN5r1MMOtGxapj-rchWKYFhCjH-U-vH2qWTbhjnvlPbnneNP4-zZ9HRQD65_6XwIU2b0kN5ftJUSioAVYDdB5hw3hNzqY81VxEh9oMXsgUMphrQChbvzeGoeaLtmrubBXdviJ3BrZCs5yXX1Zx6CcYMJY0mgzESTe9dy0]--></g></svg>