<svg xmlns="http://www.w3.org/2000/svg" xmlns:xlink="http://www.w3.org/1999/xlink" contentStyleType="text/css" data-diagram-type="CLASS" height="760px" preserveAspectRatio="none" style="width:951px;height:760px;background:#FFFFFF;" version="1.1" viewBox="0 0 951 760" width="951px" zoomAndPan="magnify"><defs/><g><!--cluster bo4e--><g class="cluster" data-entity="bo4e" data-source-line="12" data-uid="ent0005" id="cluster_bo4e"><path d="M681.21,6 L721.086,6 A3.75,3.75 0 0 1 723.586,8.5 L730.586,28.2969 L941.82,28.2969 A2.5,2.5 0 0 1 944.32,30.7969 L944.32,750.5 A2.5,2.5 0 0 1 941.82,753 L681.21,753 A2.5,2.5 0 0 1 678.71,750.5 L678.71,8.5 A2.5,2.5 0 0 1 681.21,6" fill="none" style="stroke:#000000;stroke-width:1.5;"/><line style="stroke:#000000;stroke-width:1.5;" x1="678.71" x2="730.586" y1="28.2969" y2="28.2969"/><text fill="#000000" font-family="sans-serif" font-size="14" font-weight="bold" lengthAdjust="spacing" textLength="38.876" x="682.71" y="20.9951">bo4e</text></g><!--cluster bo--><g class="cluster" data-entity="bo" data-source-line="11" data-uid="ent0003" id="cluster_bo"><path d="M714.32,49 L779.154,49 A3.75,3.75 0 0 1 781.654,51.5 L788.654,71.2969 L908.71,71.2969 A2.5,2.5 0 0 1 911.21,73.7969 L911.21,208.5 A2.5,2.5 0 0 1 908.71,211 L714.32,211 A2.5,2.5 0 0 1 711.82,208.5 L711.82,51.5 A2.5,2.5 0 0 1 714.32,49" fill="#B6D7A8" style="stroke:#000000;stroke-width:1.5;"/><line style="stroke:#000000;stroke-width:1.5;" x1="711.82" x2="788.654" y1="71.2969" y2="71.2969"/><a href="https://bo4e.github.io/BO4E-python/v202501.1.0-rc1/api/bo4e.bo.html" target="_top" title="https://bo4e.github.io/BO4E-python/v202501.1.0-rc1/api/bo4e.bo.html" xlink:actuate="onRequest" xlink:href="https://bo4e.github.io/BO4E-python/v202501.1.0-rc1/api/bo4e.bo.html" xlink:show="new" xlink:title="https://bo4e.github.io/BO4E-python/v202501.1.0-rc1/api/bo4e.bo.html" xlink:type="simple"><text fill="#0000FF" font-family="sans-serif" font-size="14" font-weight="bold" lengthAdjust="spacing" text-decoration="underline" textLength="63.834" x="715.82" y="63.9951">bo4e.bo</text></a></g><!--cluster com--><g class="cluster" data-entity="com" data-source-line="15" data-uid="ent0007" id="cluster_com"><path d="M705.21,235 L782.9092,235 A3.75,3.75 0 0 1 785.4092,237.5 L792.4092,257.2969 L917.82,257.2969 A2.5,2.5 0 0 1 920.32,259.7969 L920.32,467.5 A2.5,2.5 0 0 1 917.82,470 L705.21,470 A2.5,2.5 0 0 1 702.71,467.5 L702.71,237.5 A2.5,2.5 0 0 1 705.21,235" fill="#E0A86C" style="stroke:#000000;stroke-width:1.5;"/><line style="stroke:#000000;stroke-width:1.5;" x1="702.71" x2="792.4092" y1="257.2969" y2="257.2969"/><a href="https://bo4e.github.io/BO4E-python/v202501.1.0-rc1/api/bo4e.com.html" target="_top" title="https://bo4e.github.io/BO4E-python/v202501.1.0-rc1/api/bo4e.com.html" xlink:actuate="onRequest" xlink:href="https://bo4e.github.io/BO4E-python/v202501.1.0-rc1/api/bo4e.com.html" xlink:show="new" xlink:title="https://bo4e.github.io/BO4E-python/v202501.1.0-rc1/api/bo4e.com.html" xlink:type="simple"><text fill="#0000FF" font-family="sans-serif" font-size="14" font-weight="bold" lengthAdjust="spacing" text-decoration="underline" textLength="76.6992" x="706.71" y="249.9951">bo4e.com</text></a></g><!--cluster enum--><g class="cluster" data-entity="enum" data-source-line="20" data-uid="ent0011" id="cluster_enum"><path d="M715.75,494 L804.9609,494 A3.75,3.75 0 0 1 807.4609,496.5 L814.4609,516.2969 L907.28,516.2969 A2.5,2.5 0 0 1 909.78,518.7969 L909.78,726.5 A2.5,2.5 0 0 1 907.28,729 L715.75,729 A2.5,2.5 0 0 1 713.25,726.5 L713.25,496.5 A2.5,2.5 0 0 1 715.75,494" fill="#D1C358" style="stroke:#000000;stroke-width:1.5;"/><line style="stroke:#000000;stroke-width:1.5;" x1="713.25" x2="814.4609" y1="516.2969" y2="516.2969"/><a href="https://bo4e.github.io/BO4E-python/v202501.1.0-rc1/api/bo4e.enum.html" target="_top" title="https://bo4e.github.io/BO4E-python/v202501.1.0-rc1/api/bo4e.enum.html" xlink:actuate="onRequest" xlink:href="https://bo4e.github.io/BO4E-python/v202501.1.0-rc1/api/bo4e.enum.html" xlink:show="new" xlink:title="https://bo4e.github.io/BO4E-python/v202501.1.0-rc1/api/bo4e.enum.html" xlink:type="simple"><text fill="#0000FF" font-family="sans-serif" font-size="14" font-weight="bold" lengthAdjust="spacing" text-decoration="underline" textLength="88.2109" x="717.25" y="508.9951">bo4e.enum</text></a></g><!--class Geschaeftspartner--><g class="entity" data-entity="Geschaeftspartner" data-source-line="12" data-uid="ent0004" id="entity_Geschaeftspartner"><rect fill="#F1F1F1" height="37.9375" rx="2.5" ry="2.5" style="stroke:#181818;stroke-width:0.5;" width="167.3906" x="727.82" y="84.03"/><ellipse cx="742.82" cy="102.9987" fill="#ADD1B2" rx="11" ry="11" style="stroke:#181818;stroke-width:1;"/><path d="M745.7888,108.6394 Q745.2106,108.9362 744.57,109.0769 Q743.9294,109.2331 743.2263,109.2331 Q740.7263,109.2331 739.3981,107.5925 Q738.0856,105.9362 738.0856,102.8112 Q738.0856,99.6862 739.3981,98.03 Q740.7263,96.3737 743.2263,96.3737 Q743.9294,96.3737 744.57,96.53 Q745.2263,96.6862 745.7888,96.9831 L745.7888,99.7019 Q745.1638,99.1237 744.57,98.8581 Q743.9763,98.5769 743.3513,98.5769 Q742.0075,98.5769 741.32,99.655 Q740.6325,100.7175 740.6325,102.8112 Q740.6325,104.905 741.32,105.9831 Q742.0075,107.0456 743.3513,107.0456 Q743.9763,107.0456 744.57,106.78 Q745.1638,106.4987 745.7888,105.9206 L745.7888,108.6394 Z " fill="#000000"/><a href="https://bo4e.github.io/BO4E-python/v202501.1.0-rc1/api/bo4e.bo.html#bo4e.bo.geschaeftspartner.Geschaeftspartner" target="_top" title="https://bo4e.github.io/BO4E-python/v202501.1.0-rc1/api/bo4e.bo.html#bo4e.bo.geschaeftspartner.Geschaeftspartner" xlink:actuate="onRequest" xlink:href="https://bo4e.github.io/BO4E-python/v202501.1.0-rc1/api/bo4e.bo.html#bo4e.bo.geschaeftspartner.Geschaeftspartner" xlink:show="new" xlink:title="https://bo4e.github.io/BO4E-python/v202501.1.0-rc1/api/bo4e.bo.html#bo4e.bo.geschaeftspartner.Geschaeftspartner" xlink:type="simple"><text fill="#0000FF" font-family="sans-serif" font-size="14" lengthAdjust="spacing" text-decoration="underline" textLength="130.1836" x="759.4235" y="102.0251">Geschaeftspartner</text></a><text fill="#000000" font-family="sans-serif" font-size="10" lengthAdjust="spacing" textLength="135.3906" x="756.82" y="114.6091">bo4e.bo.geschaeftspartner</text></g><!--class Geschaeftsobjekt--><g class="entity" data-entity="Geschaeftsobjekt" data-source-line="13" data-uid="ent0006" id="entity_Geschaeftsobjekt"><rect fill="#F1F1F1" height="37.9375" rx="2.5" ry="2.5" style="stroke:#181818;stroke-width:0.5;" width="161.3896" x="730.82" y="157.03"/><ellipse cx="745.82" cy="175.9987" fill="#ADD1B2" rx="11" ry="11" style="stroke:#181818;stroke-width:1;"/><path d="M748.7888,181.6394 Q748.2106,181.9362 747.57,182.0769 Q746.9294,182.2331 746.2263,182.2331 Q743.7263,182.2331 742.3981,180.5925 Q741.0856,178.9362 741.0856,175.8112 Q741.0856,172.6862 742.3981,171.03 Q743.7263,169.3737 746.2263,169.3737 Q746.9294,169.3737 747.57,169.53 Q748.2263,169.6862 748.7888,169.9831 L748.7888,172.7019 Q748.1638,172.1237 747.57,171.8581 Q746.9763,171.5769 746.3513,171.5769 Q745.0075,171.5769 744.32,172.655 Q743.6325,173.7175 743.6325,175.8112 Q743.6325,177.905 744.32,178.9831 Q745.0075,180.0456 746.3513,180.0456 Q746.9763,180.0456 747.57,179.78 Q748.1638,179.4987 748.7888,178.9206 L748.7888,181.6394 Z " fill="#000000"/><a href="https://bo4e.github.io/BO4E-python/v202501.1.0-rc1/api/bo4e.bo.html#bo4e.bo.geschaeftsobjekt.Geschaeftsobjekt" target="_top" title="https://bo4e.github.io/BO4E-python/v202501.1.0-rc1/api/bo4e.bo.html#bo4e.bo.geschaeftsobjekt.Geschaeftsobjekt" xlink:actuate="onRequest" xlink:href="https://bo4e.github.io/BO4E-python/v202501.1.0-rc1/api/bo4e.bo.html#bo4e.bo.geschaeftsobjekt.Geschaeftsobjekt" xlink:show="new" xlink:title="https://bo4e.github.io/BO4E-python/v202501.1.0-rc1/api/bo4e.bo.html#bo4e.bo.geschaeftsobjekt.Geschaeftsobjekt" xlink:type="simple"><text fill="#0000FF" font-family="sans-serif" font-size="14" lengthAdjust="spacing" text-decoration="underline" textLength="121.7822" x="763.6237" y="175.0251">Geschaeftsobjekt</text></a><text fill="#000000" font-family="sans-serif" font-size="10" lengthAdjust="spacing" textLength="129.3896" x="759.82" y="187.6091">bo4e.bo.geschaeftsobjekt</text></g><!--class Unterschrift--><g class="entity" data-entity="Unterschrift" data-source-line="16" data-uid="ent0008" id="entity_Unterschrift"><rect fill="#F1F1F1" height="37.9375" rx="2.5" ry="2.5" style="stroke:#181818;stroke-width:0.5;" width="142.9326" x="740.05" y="270.03"/><ellipse cx="755.05" cy="288.9988" fill="#ADD1B2" rx="11" ry="11" style="stroke:#181818;stroke-width:1;"/><path d="M758.0188,294.6394 Q757.4406,294.9363 756.8,295.0769 Q756.1594,295.2331 755.4563,295.2331 Q752.9563,295.2331 751.6281,293.5925 Q750.3156,291.9363 750.3156,288.8113 Q750.3156,285.6863 751.6281,284.03 Q752.9563,282.3738 755.4563,282.3738 Q756.1594,282.3738 756.8,282.53 Q757.4563,282.6863 758.0188,282.9831 L758.0188,285.7019 Q757.3938,285.1238 756.8,284.8581 Q756.2063,284.5769 755.5813,284.5769 Q754.2375,284.5769 753.55,285.655 Q752.8625,286.7175 752.8625,288.8113 Q752.8625,290.905 753.55,291.9831 Q754.2375,293.0456 755.5813,293.0456 Q756.2063,293.0456 756.8,292.78 Q757.3938,292.4988 758.0188,291.9206 L758.0188,294.6394 Z " fill="#000000"/><a href="https://bo4e.github.io/BO4E-python/v202501.1.0-rc1/api/bo4e.com.html#bo4e.com.unterschrift.Unterschrift" target="_top" title="https://bo4e.github.io/BO4E-python/v202501.1.0-rc1/api/bo4e.com.html#bo4e.com.unterschrift.Unterschrift" xlink:actuate="onRequest" xlink:href="https://bo4e.github.io/BO4E-python/v202501.1.0-rc1/api/bo4e.com.html#bo4e.com.unterschrift.Unterschrift" xlink:show="new" xlink:title="https://bo4e.github.io/BO4E-python/v202501.1.0-rc1/api/bo4e.com.html#bo4e.com.unterschrift.Unterschrift" xlink:type="simple"><text fill="#0000FF" font-family="sans-serif" font-size="14" lengthAdjust="spacing" text-decoration="underline" textLength="82.9063" x="783.0632" y="288.0251">Unterschrift</text></a><text fill="#000000" font-family="sans-serif" font-size="10" lengthAdjust="spacing" textLength="110.9326" x="769.05" y="300.6091">bo4e.com.unterschrift</text></g><!--class Vertragsteil--><g class="entity" data-entity="Vertragsteil" data-source-line="17" data-uid="ent0009" id="entity_Vertragsteil"><rect fill="#F1F1F1" height="37.9375" rx="2.5" ry="2.5" style="stroke:#181818;stroke-width:0.5;" width="142.2246" x="740.4" y="343.03"/><ellipse cx="755.4" cy="361.9988" fill="#ADD1B2" rx="11" ry="11" style="stroke:#181818;stroke-width:1;"/><path d="M758.3688,367.6394 Q757.7906,367.9363 757.15,368.0769 Q756.5094,368.2331 755.8063,368.2331 Q753.3063,368.2331 751.9781,366.5925 Q750.6656,364.9363 750.6656,361.8113 Q750.6656,358.6863 751.9781,357.03 Q753.3063,355.3738 755.8063,355.3738 Q756.5094,355.3738 757.15,355.53 Q757.8063,355.6863 758.3688,355.9831 L758.3688,358.7019 Q757.7438,358.1238 757.15,357.8581 Q756.5563,357.5769 755.9313,357.5769 Q754.5875,357.5769 753.9,358.655 Q753.2125,359.7175 753.2125,361.8113 Q753.2125,363.905 753.9,364.9831 Q754.5875,366.0456 755.9313,366.0456 Q756.5563,366.0456 757.15,365.78 Q757.7438,365.4988 758.3688,364.9206 L758.3688,367.6394 Z " fill="#000000"/><a href="https://bo4e.github.io/BO4E-python/v202501.1.0-rc1/api/bo4e.com.html#bo4e.com.vertragsteil.Vertragsteil" target="_top" title="https://bo4e.github.io/BO4E-python/v202501.1.0-rc1/api/bo4e.com.html#bo4e.com.vertragsteil.Vertragsteil" xlink:actuate="onRequest" xlink:href="https://bo4e.github.io/BO4E-python/v202501.1.0-rc1/api/bo4e.com.html#bo4e.com.vertragsteil.Vertragsteil" xlink:show="new" xlink:title="https://bo4e.github.io/BO4E-python/v202501.1.0-rc1/api/bo4e.com.html#bo4e.com.vertragsteil.Vertragsteil" xlink:type="simple"><text fill="#0000FF" font-family="sans-serif" font-size="14" lengthAdjust="spacing" text-decoration="underline" textLength="81.833" x="783.5958" y="361.0251">Vertragsteil</text></a><text fill="#000000" font-family="sans-serif" font-size="10" lengthAdjust="spacing" textLength="110.2246" x="769.4" y="373.6091">bo4e.com.vertragsteil</text></g><!--class Vertragskonditionen--><g class="entity" data-entity="Vertragskonditionen" data-source-line="18" data-uid="ent0010" id="entity_Vertragskonditionen"><rect fill="#F1F1F1" height="37.9375" rx="2.5" ry="2.5" style="stroke:#181818;stroke-width:0.5;" width="185.6133" x="718.71" y="416.03"/><ellipse cx="733.71" cy="434.9988" fill="#ADD1B2" rx="11" ry="11" style="stroke:#181818;stroke-width:1;"/><path d="M736.6788,440.6394 Q736.1006,440.9363 735.46,441.0769 Q734.8194,441.2331 734.1163,441.2331 Q731.6163,441.2331 730.2881,439.5925 Q728.9756,437.9363 728.9756,434.8113 Q728.9756,431.6863 730.2881,430.03 Q731.6163,428.3738 734.1163,428.3738 Q734.8194,428.3738 735.46,428.53 Q736.1163,428.6863 736.6788,428.9831 L736.6788,431.7019 Q736.0538,431.1238 735.46,430.8581 Q734.8663,430.5769 734.2413,430.5769 Q732.8975,430.5769 732.21,431.655 Q731.5225,432.7175 731.5225,434.8113 Q731.5225,436.905 732.21,437.9831 Q732.8975,439.0456 734.2413,439.0456 Q734.8663,439.0456 735.46,438.78 Q736.0538,438.4988 736.6788,437.9206 L736.6788,440.6394 Z " fill="#000000"/><a href="https://bo4e.github.io/BO4E-python/v202501.1.0-rc1/api/bo4e.com.html#bo4e.com.vertragskonditionen.Vertragskonditionen" target="_top" title="https://bo4e.github.io/BO4E-python/v202501.1.0-rc1/api/bo4e.com.html#bo4e.com.vertragskonditionen.Vertragskonditionen" xlink:actuate="onRequest" xlink:href="https://bo4e.github.io/BO4E-python/v202501.1.0-rc1/api/bo4e.com.html#bo4e.com.vertragskonditionen.Vertragskonditionen" xlink:show="new" xlink:title="https://bo4e.github.io/BO4E-python/v202501.1.0-rc1/api/bo4e.com.html#bo4e.com.vertragskonditionen.Vertragskonditionen" xlink:type="simple"><text fill="#0000FF" font-family="sans-serif" font-size="14" lengthAdjust="spacing" text-decoration="underline" textLength="142.5771" x="753.2281" y="434.0251">Vertragskonditionen</text></a><text fill="#000000" font-family="sans-serif" font-size="10" lengthAdjust="spacing" textLength="153.6133" x="747.71" y="446.6091">bo4e.com.vertragskonditionen</text></g><!--class Vertragsstatus--><g class="entity" data-entity="Vertragsstatus" data-source-line="21" data-uid="ent0012" id="entity_Vertragsstatus"><rect fill="#F1F1F1" height="37.9375" rx="2.5" ry="2.5" style="stroke:#181818;stroke-width:0.5;" width="164.5342" x="729.25" y="529.03"/><ellipse cx="744.25" cy="547.9988" fill="#ADD1B2" rx="11" ry="11" style="stroke:#181818;stroke-width:1;"/><path d="M747.2188,553.6394 Q746.6406,553.9363 746,554.0769 Q745.3594,554.2331 744.6563,554.2331 Q742.1563,554.2331 740.8281,552.5925 Q739.5156,550.9363 739.5156,547.8113 Q739.5156,544.6863 740.8281,543.03 Q742.1563,541.3738 744.6563,541.3738 Q745.3594,541.3738 746,541.53 Q746.6563,541.6863 747.2188,541.9831 L747.2188,544.7019 Q746.5938,544.1238 746,543.8581 Q745.4063,543.5769 744.7813,543.5769 Q743.4375,543.5769 742.75,544.655 Q742.0625,545.7175 742.0625,547.8113 Q742.0625,549.905 742.75,550.9831 Q743.4375,552.0456 744.7813,552.0456 Q745.4063,552.0456 746,551.78 Q746.5938,551.4988 747.2188,550.9206 L747.2188,553.6394 Z " fill="#000000"/><a href="https://bo4e.github.io/BO4E-python/v202501.1.0-rc1/api/bo4e.enum.html#bo4e.enum.vertragsstatus.Vertragsstatus" target="_top" title="https://bo4e.github.io/BO4E-python/v202501.1.0-rc1/api/bo4e.enum.html#bo4e.enum.vertragsstatus.Vertragsstatus" xlink:actuate="onRequest" xlink:href="https://bo4e.github.io/BO4E-python/v202501.1.0-rc1/api/bo4e.enum.html#bo4e.enum.vertragsstatus.Vertragsstatus" xlink:show="new" xlink:title="https://bo4e.github.io/BO4E-python/v202501.1.0-rc1/api/bo4e.enum.html#bo4e.enum.vertragsstatus.Vertragsstatus" xlink:type="simple"><text fill="#0000FF" font-family="sans-serif" font-size="14" lengthAdjust="spacing" text-decoration="underline" textLength="102.9697" x="773.0322" y="547.0251">Vertragsstatus</text></a><text fill="#000000" font-family="sans-serif" font-size="10" lengthAdjust="spacing" textLength="132.5342" x="758.25" y="559.6091">bo4e.enum.vertragsstatus</text></g><!--class Sparte--><g class="entity" data-entity="Sparte" data-source-line="22" data-uid="ent0013" id="entity_Sparte"><rect fill="#F1F1F1" height="37.9375" rx="2.5" ry="2.5" style="stroke:#181818;stroke-width:0.5;" width="123.7773" x="749.63" y="602.03"/><ellipse cx="764.63" cy="620.9988" fill="#ADD1B2" rx="11" ry="11" style="stroke:#181818;stroke-width:1;"/><path d="M767.5988,626.6394 Q767.0206,626.9363 766.38,627.0769 Q765.7394,627.2331 765.0363,627.2331 Q762.5363,627.2331 761.2081,625.5925 Q759.8956,623.9363 759.8956,620.8113 Q759.8956,617.6863 761.2081,616.03 Q762.5363,614.3738 765.0363,614.3738 Q765.7394,614.3738 766.38,614.53 Q767.0363,614.6863 767.5988,614.9831 L767.5988,617.7019 Q766.9738,617.1238 766.38,616.8581 Q765.7863,616.5769 765.1613,616.5769 Q763.8175,616.5769 763.13,617.655 Q762.4425,618.7175 762.4425,620.8113 Q762.4425,622.905 763.13,623.9831 Q763.8175,625.0456 765.1613,625.0456 Q765.7863,625.0456 766.38,624.78 Q766.9738,624.4988 767.5988,623.9206 L767.5988,626.6394 Z " fill="#000000"/><a href="https://bo4e.github.io/BO4E-python/v202501.1.0-rc1/api/bo4e.enum.html#bo4e.enum.sparte.Sparte" target="_top" title="https://bo4e.github.io/BO4E-python/v202501.1.0-rc1/api/bo4e.enum.html#bo4e.enum.sparte.Sparte" xlink:actuate="onRequest" xlink:href="https://bo4e.github.io/BO4E-python/v202501.1.0-rc1/api/bo4e.enum.html#bo4e.enum.sparte.Sparte" xlink:show="new" xlink:title="https://bo4e.github.io/BO4E-python/v202501.1.0-rc1/api/bo4e.enum.html#bo4e.enum.sparte.Sparte" xlink:type="simple"><text fill="#0000FF" font-family="sans-serif" font-size="14" lengthAdjust="spacing" text-decoration="underline" textLength="46.2109" x="801.4132" y="620.0251">Sparte</text></a><text fill="#000000" font-family="sans-serif" font-size="10" lengthAdjust="spacing" textLength="91.7773" x="778.63" y="632.6091">bo4e.enum.sparte</text></g><!--class Vertragsart--><g class="entity" data-entity="Vertragsart" data-source-line="23" data-uid="ent0014" id="entity_Vertragsart"><rect fill="#F1F1F1" height="37.9375" rx="2.5" ry="2.5" style="stroke:#181818;stroke-width:0.5;" width="147.9668" x="737.53" y="675.03"/><ellipse cx="752.53" cy="693.9988" fill="#ADD1B2" rx="11" ry="11" style="stroke:#181818;stroke-width:1;"/><path d="M755.4988,699.6394 Q754.9206,699.9363 754.28,700.0769 Q753.6394,700.2331 752.9363,700.2331 Q750.4363,700.2331 749.1081,698.5925 Q747.7956,696.9363 747.7956,693.8113 Q747.7956,690.6863 749.1081,689.03 Q750.4363,687.3738 752.9363,687.3738 Q753.6394,687.3738 754.28,687.53 Q754.9363,687.6863 755.4988,687.9831 L755.4988,690.7019 Q754.8738,690.1238 754.28,689.8581 Q753.6863,689.5769 753.0613,689.5769 Q751.7175,689.5769 751.03,690.655 Q750.3425,691.7175 750.3425,693.8113 Q750.3425,695.905 751.03,696.9831 Q751.7175,698.0456 753.0613,698.0456 Q753.6863,698.0456 754.28,697.78 Q754.8738,697.4988 755.4988,696.9206 L755.4988,699.6394 Z " fill="#000000"/><a href="https://bo4e.github.io/BO4E-python/v202501.1.0-rc1/api/bo4e.enum.html#bo4e.enum.vertragsart.Vertragsart" target="_top" title="https://bo4e.github.io/BO4E-python/v202501.1.0-rc1/api/bo4e.enum.html#bo4e.enum.vertragsart.Vertragsart" xlink:actuate="onRequest" xlink:href="https://bo4e.github.io/BO4E-python/v202501.1.0-rc1/api/bo4e.enum.html#bo4e.enum.vertragsart.Vertragsart" xlink:show="new" xlink:title="https://bo4e.github.io/BO4E-python/v202501.1.0-rc1/api/bo4e.enum.html#bo4e.enum.vertragsart.Vertragsart" xlink:type="simple"><text fill="#0000FF" font-family="sans-serif" font-size="14" lengthAdjust="spacing" text-decoration="underline" textLength="79.7754" x="784.6257" y="693.0251">Vertragsart</text></a><text fill="#000000" font-family="sans-serif" font-size="10" lengthAdjust="spacing" textLength="115.9668" x="766.53" y="705.6091">bo4e.enum.vertragsart</text></g><!--class Vertrag--><g class="entity" data-entity="Vertrag" data-source-line="3" data-uid="ent0002" id="entity_Vertrag"><rect fill="#F1F1F1" height="127.4219" rx="2.5" ry="2.5" style="stroke:#181818;stroke-width:0.5;" width="492.71" x="7" y="283.29"/><ellipse cx="208.8584" cy="302.2588" fill="#ADD1B2" rx="11" ry="11" style="stroke:#181818;stroke-width:1;"/><path d="M211.8271,307.8994 Q211.249,308.1963 210.6084,308.3369 Q209.9678,308.4931 209.2646,308.4931 Q206.7646,308.4931 205.4365,306.8525 Q204.124,305.1963 204.124,302.0713 Q204.124,298.9463 205.4365,297.29 Q206.7646,295.6338 209.2646,295.6338 Q209.9678,295.6338 210.6084,295.79 Q211.2646,295.9463 211.8271,296.2431 L211.8271,298.9619 Q211.2021,298.3838 210.6084,298.1181 Q210.0146,297.8369 209.3896,297.8369 Q208.0459,297.8369 207.3584,298.915 Q206.6709,299.9775 206.6709,302.0713 Q206.6709,304.165 207.3584,305.2431 Q208.0459,306.3056 209.3896,306.3056 Q210.0146,306.3056 210.6084,306.04 Q211.2021,305.7588 211.8271,305.1806 L211.8271,307.8994 Z " fill="#000000"/><a href="https://bo4e.github.io/BO4E-python/v202501.1.0-rc1/api/bo4e.bo.html#bo4e.bo.vertrag.Vertrag" target="_top" title="https://bo4e.github.io/BO4E-python/v202501.1.0-rc1/api/bo4e.bo.html#bo4e.bo.vertrag.Vertrag" xlink:actuate="onRequest" xlink:href="https://bo4e.github.io/BO4E-python/v202501.1.0-rc1/api/bo4e.bo.html#bo4e.bo.vertrag.Vertrag" xlink:show="new" xlink:title="https://bo4e.github.io/BO4E-python/v202501.1.0-rc1/api/bo4e.bo.html#bo4e.bo.vertrag.Vertrag" xlink:type="simple"><text fill="#0000FF" font-family="sans-serif" font-size="14" lengthAdjust="spacing" text-decoration="underline" textLength="52.6572" x="243.2764" y="301.2851">Vertrag</text></a><text fill="#000000" font-family="sans-serif" font-size="10" lengthAdjust="spacing" textLength="80.4932" x="229.3584" y="313.8691">bo4e.bo.vertrag</text><line style="stroke:#181818;stroke-width:0.5;" x1="8" x2="498.71" y1="321.2275" y2="321.2275"/><text fill="#000000" font-family="sans-serif" font-size="14" lengthAdjust="spacing" textLength="480.71" x="13" y="338.2226">_typ : Literal[&lt;BoTyp.VERTRAG: 'VERTRAG'&gt;] [1] = BoTyp.VERTRAG</text><text fill="#000000" font-family="sans-serif" font-size="14" lengthAdjust="spacing" textLength="249.4502" x="13" y="354.5195">vertragsnummer : str [0..1] = None</text><text fill="#000000" font-family="sans-serif" font-size="14" lengthAdjust="spacing" textLength="328.6104" x="13" y="370.8164">vertragsbeginn : AwareDatetime [0..1] = None</text><text fill="#000000" font-family="sans-serif" font-size="14" lengthAdjust="spacing" textLength="315.5742" x="13" y="387.1132">vertragsende : AwareDatetime [0..1] = None</text><text fill="#000000" font-family="sans-serif" font-size="14" lengthAdjust="spacing" textLength="226.543" x="13" y="403.4101">beschreibung : str [0..1] = None</text></g><!--link Vertrag to Geschaeftsobjekt--><g class="link" data-entity-1="Vertrag" data-entity-2="Geschaeftsobjekt" data-source-line="26" data-uid="lnk15" id="link_Vertrag_Geschaeftsobjekt"><path codeLine="26" d="M463.03,282.84 C564.13,251.76 661.095,221.9404 730.105,200.7204" fill="none" id="Vertrag-to-Geschaeftsobjekt" style="stroke:#181818;stroke-width:1;"/><polygon fill="none" points="747.31,195.43,728.3415,194.9854,731.8685,206.4554,747.31,195.43" style="stroke:#181818;stroke-width:1;"/></g><!--link Vertrag to Vertragsart--><g class="link" data-entity-1="Vertrag" data-entity-2="Vertragsart" data-source-line="27" data-uid="lnk16" id="link_Vertrag_Vertragsart"><path codeLine="27" d="M309.02,411.16 C360.86,468.6 443.45,551.74 529.71,605 C594.11,644.76 666.1699,665.7594 725.4099,678.5394" fill="none" id="Vertrag-to-Vertragsart" style="stroke:#181818;stroke-width:1;"/><polygon fill="#181818" points="737.14,681.07,732.1185,675.8947,725.4099,678.5394,730.4314,683.7148,737.14,681.07" style="stroke:#181818;stroke-width:1;"/><text fill="#000000" font-family="sans-serif" font-size="13" lengthAdjust="spacing" textLength="72.8774" x="560.21" y="601.0669">vertragsart</text><text fill="#000000" font-family="sans-serif" font-size="13" lengthAdjust="spacing" textLength="24.8066" x="704.6773" y="692.609">0..1</text></g><!--link Vertrag to Vertragsstatus--><g class="link" data-entity-1="Vertrag" data-entity-2="Vertragsstatus" data-source-line="28" data-uid="lnk17" id="link_Vertrag_Vertragsstatus"><path codeLine="28" d="M428.33,411.09 C461.94,423.4 496.91,436.14 529.71,448 C608.07,476.32 687.617,504.568 744.267,524.608" fill="none" id="Vertrag-to-Vertragsstatus" style="stroke:#181818;stroke-width:1;"/><polygon fill="#181818" points="755.58,528.61,751.2575,522.838,744.267,524.608,748.5895,530.38,755.58,528.61" style="stroke:#181818;stroke-width:1;"/><text fill="#000000" font-family="sans-serif" font-size="13" lengthAdjust="spacing" textLength="94.415" x="549.21" y="444.0669">vertragsstatus</text><text fill="#000000" font-family="sans-serif" font-size="13" lengthAdjust="spacing" textLength="24.8066" x="711.742" y="517.7978">0..1</text></g><!--link Vertrag to Sparte--><g class="link" data-entity-1="Vertrag" data-entity-2="Sparte" data-source-line="29" data-uid="lnk18" id="link_Vertrag_Sparte"><path codeLine="29" d="M344.9,411.01 C426.35,465.46 551.23,541.41 670.71,584 C696.02,593.02 712.9513,598.0374 737.6413,604.2374" fill="none" id="Vertrag-to-Sparte" style="stroke:#181818;stroke-width:1;"/><polygon fill="#181818" points="749.28,607.16,744.4349,601.8191,737.6413,604.2374,742.4865,609.5782,749.28,607.16" style="stroke:#181818;stroke-width:1;"/><text fill="#000000" font-family="sans-serif" font-size="13" lengthAdjust="spacing" textLength="41.4312" x="575.71" y="522.0669">sparte</text><text fill="#000000" font-family="sans-serif" font-size="13" lengthAdjust="spacing" textLength="24.8066" x="716.7428" y="618.5017">0..1</text></g><!--link Vertrag to Geschaeftspartner--><g class="link" data-entity-1="Vertrag" data-entity-2="Geschaeftspartner" data-source-line="30" data-uid="lnk19" id="link_Vertrag_Geschaeftspartner"><path codeLine="30" d="M320.57,282.95 C372.97,236.23 450.32,175.59 529.71,143 C592.92,117.05 658.12,108.1724 715.56,104.8524" fill="none" id="Vertrag-to-Geschaeftspartner" style="stroke:#181818;stroke-width:1;"/><polygon fill="#181818" points="727.54,104.16,721.3192,100.5129,715.56,104.8524,721.7808,108.4996,727.54,104.16" style="stroke:#181818;stroke-width:1;"/><text fill="#000000" font-family="sans-serif" font-size="13" lengthAdjust="spacing" textLength="110.9824" x="541.21" y="108.0669">vertragspartner1</text><text fill="#000000" font-family="sans-serif" font-size="13" lengthAdjust="spacing" textLength="24.8066" x="695.0281" y="100.6683">0..1</text></g><!--link Vertrag to Geschaeftspartner--><g class="link" data-entity-1="Vertrag" data-entity-2="Geschaeftspartner" data-source-line="31" data-uid="lnk20" id="link_Vertrag_Geschaeftspartner"><path codeLine="31" d="M382.4,282.89 C428.41,260.71 480.97,236.33 529.71,216 C587.71,191.81 619.81,213.92 662.71,168 C671.54,158.54 661.47,149.06 670.71,140 C686.04,124.97 695.1178,118.9141 715.8678,113.4341" fill="none" id="Vertrag-to-Geschaeftspartner-1" style="stroke:#181818;stroke-width:1;"/><polygon fill="#181818" points="727.47,110.37,720.6475,108.0346,715.8678,113.4341,722.6903,115.7695,727.47,110.37" style="stroke:#181818;stroke-width:1;"/><text fill="#000000" font-family="sans-serif" font-size="13" lengthAdjust="spacing" textLength="110.9824" x="541.21" y="164.0669">vertragspartner2</text><text fill="#000000" font-family="sans-serif" font-size="13" lengthAdjust="spacing" textLength="24.8066" x="694.9519" y="123.7673">0..1</text></g><!--link Vertrag to Vertragsteil--><g class="link" data-entity-1="Vertrag" data-entity-2="Vertragsteil" data-source-line="32" data-uid="lnk21" id="link_Vertrag_Vertragsteil"><path codeLine="32" d="M500.07,376.06 C510.07,376.8 519.98,377.45 529.71,378 C588.73,381.31 603.68,381.19 662.71,378 C687.97,376.64 703.6265,375.3225 728.0465,372.5525" fill="none" id="Vertrag-to-Vertragsteil" style="stroke:#181818;stroke-width:1;"/><polygon fill="#181818" points="739.97,371.2,733.5574,367.9017,728.0465,372.5525,734.4591,375.8508,739.97,371.2" style="stroke:#181818;stroke-width:1;"/><text fill="#000000" font-family="sans-serif" font-size="13" lengthAdjust="spacing" textLength="82.7861" x="555.21" y="374.0669">vertragsteile</text><text fill="#000000" font-family="sans-serif" font-size="13" lengthAdjust="spacing" textLength="23.0356" x="709.3162" y="384.8127">0..*</text></g><!--link Vertrag to Vertragskonditionen--><g class="link" data-entity-1="Vertrag" data-entity-2="Vertragskonditionen" data-source-line="33" data-uid="lnk22" id="link_Vertrag_Vertragskonditionen"><path codeLine="33" d="M499.94,401.01 C509.98,402.78 519.93,404.45 529.71,406 C592.4,415.92 651.5653,422.1885 706.5453,426.9785" fill="none" id="Vertrag-to-Vertragskonditionen" style="stroke:#181818;stroke-width:1;"/><polygon fill="#181818" points="718.5,428.02,712.8698,423.5143,706.5453,426.9785,712.1755,431.4841,718.5,428.02" style="stroke:#181818;stroke-width:1;"/><text fill="#000000" font-family="sans-serif" font-size="13" lengthAdjust="spacing" textLength="131.1934" x="530.71" y="402.0669">vertragskonditionen</text><text fill="#000000" font-family="sans-serif" font-size="13" lengthAdjust="spacing" textLength="24.8066" x="685.8367" y="440.1356">0..1</text></g><!--link Vertrag to Unterschrift--><g class="link" data-entity-1="Vertrag" data-entity-2="Unterschrift" data-source-line="34" data-uid="lnk23" id="link_Vertrag_Unterschrift"><path codeLine="34" d="M499.96,303.43 C510,302.17 519.94,301.02 529.71,300 C600.92,292.56 670.7612,290.1966 727.6512,289.4066" fill="none" id="Vertrag-to-Unterschrift" style="stroke:#181818;stroke-width:1;"/><polygon fill="#181818" points="739.65,289.24,733.595,285.3237,727.6512,289.4066,733.7061,293.3229,739.65,289.24" style="stroke:#181818;stroke-width:1;"/><text fill="#000000" font-family="sans-serif" font-size="13" lengthAdjust="spacing" textLength="114.5371" x="539.21" y="288.0669">unterzeichnervp1</text><text fill="#000000" font-family="sans-serif" font-size="13" lengthAdjust="spacing" textLength="23.0356" x="708.9663" y="302.0267">0..*</text></g><!--link Vertrag to Unterschrift--><g class="link" data-entity-1="Vertrag" data-entity-2="Unterschrift" data-source-line="35" data-uid="lnk24" id="link_Vertrag_Unterschrift"><path codeLine="35" d="M500.18,341.14 C553.93,337.8 610.38,332.71 662.71,325 C688.97,321.13 705.7605,317.7089 730.6005,311.3889" fill="none" id="Vertrag-to-Unterschrift-1" style="stroke:#181818;stroke-width:1;"/><polygon fill="#181818" points="742.23,308.43,735.429,306.0329,730.6005,311.3889,737.4015,313.7859,742.23,308.43" style="stroke:#181818;stroke-width:1;"/><text fill="#000000" font-family="sans-serif" font-size="13" lengthAdjust="spacing" textLength="114.5371" x="539.21" y="321.0669">unterzeichnervp2</text><text fill="#000000" font-family="sans-serif" font-size="13" lengthAdjust="spacing" textLength="23.0356" x="708.8815" y="323.956">0..*</text></g><!--SRC=[lLPBRvj043w7Np4oXqYHl3PkaaOejMGtLYvLAwLfBYwg08zX6rWGktRajFtlNTwBmNQbs3qjt-YRsNanim4k1OW84khv0XOqGLVGY6cQ6zYSGsy-zuM8kJaOED4b4eyAV-KG6WscNovd_NWZ_8WDrgFXw6fe48CC-ubh3EoOvdGd8hu80xq4Qqn4OdlaAJ-XE2thExlbz1LDOpZUulR0vYKFVcbdFyGc1XC-KO697Snlfz7Z9YPFiuV7Xycz2UV5r_dOWhbXmGTe4BIpmYndgp34H5hY8e7va92C_3bYM7CSz2XZaZDviHEyimKA6k8kDh857k8wo5q_GUgicDTvznzDOtQ8FBPTF5BseG2MbUMoGA1Fh-_UJsxId9warbuQgYtRIyQI28O9kT-MG4lIsGajIraSBTsJnn4vF_5PA67a0jWM70WY9st5a0jb-OzMVJSAbV9BfDPVGj1dmydDzSUZDK1veLwX5PC_QThmT2d8DmM02jhfsjRD_5PLJkPn-IyBf44vfJ80AkZsMDLLfrOcEBd7pn5Rq7Hq8wiSLsJG8TiVXa9iHAF8ZzckA0UoqgyfL1isnQ0l3FVTrV56LdMdNiCoV2viiU9LAdC8JTXEO8U9Hl9oqGdTpuOXag_P0VcnmysSchcNy_v3LkKrLKhbDoZV1v8f6OrCIfmko-efqU__7fUxhJMYQvhaNK0lNRczkh4QBfcWNFclYaLxrBf5eG-e5sMI3u6y0BlfZQ3AzLbVLqYCDriOTLYuw5LBepaJQ-qKxdDVLLMdKcr17IlxNMWi4XEoHV6ArFMb- -lOU9FsIDDyAfzn8OQEf6dSZrwWChYa62puNm00]--></g></svg>