<?xml version="1.0" encoding="us-ascii" standalone="no"?><svg xmlns="http://www.w3.org/2000/svg" xmlns:xlink="http://www.w3.org/1999/xlink" contentStyleType="text/css" height="743px" preserveAspectRatio="none" style="width:1261px;height:743px;background:#FFFFFF;" version="1.1" viewBox="0 0 1261 743" width="1261px" zoomAndPan="magnify"><defs/><g><!--cluster bo4e--><g id="cluster_bo4e"><path d="M993.5,29.5659 L1034.5,29.5659 A3.75,3.75 0 0 1 1037,32.0659 L1044,51.8628 L1251.5,51.8628 A2.5,2.5 0 0 1 1254,54.3628 L1254,734.0659 A2.5,2.5 0 0 1 1251.5,736.5659 L993.5,736.5659 A2.5,2.5 0 0 1 991,734.0659 L991,32.0659 A2.5,2.5 0 0 1 993.5,29.5659 " fill="none" style="stroke:#000000;stroke-width:1.5;"/><line style="stroke:#000000;stroke-width:1.5;" x1="991" x2="1044" y1="51.8628" y2="51.8628"/><text fill="#000000" font-family="sans-serif" font-size="14" font-weight="bold" lengthAdjust="spacing" textLength="40" x="995" y="44.561">bo4e</text></g><!--cluster com--><g id="cluster_com"><path d="M1017.5,72.5659 L1096.5,72.5659 A3.75,3.75 0 0 1 1099,75.0659 L1106,94.8628 L1227.5,94.8628 A2.5,2.5 0 0 1 1230,97.3628 L1230,378.0659 A2.5,2.5 0 0 1 1227.5,380.5659 L1017.5,380.5659 A2.5,2.5 0 0 1 1015,378.0659 L1015,75.0659 A2.5,2.5 0 0 1 1017.5,72.5659 " fill="#E0A86C" style="stroke:#000000;stroke-width:1.5;"/><line style="stroke:#000000;stroke-width:1.5;" x1="1015" x2="1106" y1="94.8628" y2="94.8628"/><a href="https://bo4e.github.io/BO4E-python/v202401.7.0/api/bo4e.com.html" target="_top" title="https://bo4e.github.io/BO4E-python/v202401.7.0/api/bo4e.com.html" xlink:actuate="onRequest" xlink:href="https://bo4e.github.io/BO4E-python/v202401.7.0/api/bo4e.com.html" xlink:show="new" xlink:title="https://bo4e.github.io/BO4E-python/v202401.7.0/api/bo4e.com.html" xlink:type="simple"><text fill="#0000FF" font-family="sans-serif" font-size="14" font-weight="bold" lengthAdjust="spacing" text-decoration="underline" textLength="78" x="1019" y="87.561">bo4e.com</text></a></g><!--cluster enum--><g id="cluster_enum"><path d="M1023,404.5659 L1113,404.5659 A3.75,3.75 0 0 1 1115.5,407.0659 L1122.5,426.8628 L1222,426.8628 A2.5,2.5 0 0 1 1224.5,429.3628 L1224.5,710.0659 A2.5,2.5 0 0 1 1222,712.5659 L1023,712.5659 A2.5,2.5 0 0 1 1020.5,710.0659 L1020.5,407.0659 A2.5,2.5 0 0 1 1023,404.5659 " fill="#D1C358" style="stroke:#000000;stroke-width:1.5;"/><line style="stroke:#000000;stroke-width:1.5;" x1="1020.5" x2="1122.5" y1="426.8628" y2="426.8628"/><a href="https://bo4e.github.io/BO4E-python/v202401.7.0/api/bo4e.enum.html" target="_top" title="https://bo4e.github.io/BO4E-python/v202401.7.0/api/bo4e.enum.html" xlink:actuate="onRequest" xlink:href="https://bo4e.github.io/BO4E-python/v202401.7.0/api/bo4e.enum.html" xlink:show="new" xlink:title="https://bo4e.github.io/BO4E-python/v202401.7.0/api/bo4e.enum.html" xlink:type="simple"><text fill="#0000FF" font-family="sans-serif" font-size="14" font-weight="bold" lengthAdjust="spacing" text-decoration="underline" textLength="89" x="1024.5" y="419.561">bo4e.enum</text></a></g><!--class Ausschreibungsdetail--><g id="elem_Ausschreibungsdetail"><rect codeLine="13" fill="#F1F1F1" height="37.9375" id="Ausschreibungsdetail" rx="2.5" ry="2.5" style="stroke:#181818;stroke-width:0.5;" width="183" x="1031" y="107.5959"/><ellipse cx="1046" cy="126.5647" fill="#ADD1B2" rx="11" ry="11" style="stroke:#181818;stroke-width:1.0;"/><path d="M1048.9688,132.2053 Q1048.3906,132.5022 1047.75,132.6428 Q1047.1094,132.799 1046.4063,132.799 Q1043.9063,132.799 1042.5781,131.1584 Q1041.2656,129.5022 1041.2656,126.3772 Q1041.2656,123.2522 1042.5781,121.5959 Q1043.9063,119.9397 1046.4063,119.9397 Q1047.1094,119.9397 1047.75,120.0959 Q1048.4063,120.2522 1048.9688,120.549 L1048.9688,123.2678 Q1048.3438,122.6897 1047.75,122.424 Q1047.1563,122.1428 1046.5313,122.1428 Q1045.1875,122.1428 1044.5,123.2209 Q1043.8125,124.2834 1043.8125,126.3772 Q1043.8125,128.4709 1044.5,129.549 Q1045.1875,130.6115 1046.5313,130.6115 Q1047.1563,130.6115 1047.75,130.3459 Q1048.3438,130.0647 1048.9688,129.4865 L1048.9688,132.2053 Z " fill="#000000"/><a href="https://bo4e.github.io/BO4E-python/v202401.7.0/api/bo4e.com.html#bo4e.com.ausschreibungsdetail.Ausschreibungsdetail" target="_top" title="https://bo4e.github.io/BO4E-python/v202401.7.0/api/bo4e.com.html#bo4e.com.ausschreibungsdetail.Ausschreibungsdetail" xlink:actuate="onRequest" xlink:href="https://bo4e.github.io/BO4E-python/v202401.7.0/api/bo4e.com.html#bo4e.com.ausschreibungsdetail.Ausschreibungsdetail" xlink:show="new" xlink:title="https://bo4e.github.io/BO4E-python/v202401.7.0/api/bo4e.com.html#bo4e.com.ausschreibungsdetail.Ausschreibungsdetail" xlink:type="simple"><text fill="#0000FF" font-family="sans-serif" font-size="14" lengthAdjust="spacing" text-decoration="underline" textLength="149" x="1061" y="125.591">Ausschreibungsdetail</text></a><text fill="#000000" font-family="sans-serif" font-size="10" lengthAdjust="spacing" textLength="151" x="1060" y="138.175">bo4e.com.ausschreibungsdetail</text></g><!--class Zeitraum--><g id="elem_Zeitraum"><rect codeLine="14" fill="#F1F1F1" height="37.9375" id="Zeitraum" rx="2.5" ry="2.5" style="stroke:#181818;stroke-width:0.5;" width="126" x="1059.5" y="180.5959"/><ellipse cx="1074.5" cy="199.5647" fill="#ADD1B2" rx="11" ry="11" style="stroke:#181818;stroke-width:1.0;"/><path d="M1077.4688,205.2053 Q1076.8906,205.5022 1076.25,205.6428 Q1075.6094,205.799 1074.9063,205.799 Q1072.4063,205.799 1071.0781,204.1584 Q1069.7656,202.5022 1069.7656,199.3772 Q1069.7656,196.2522 1071.0781,194.5959 Q1072.4063,192.9397 1074.9063,192.9397 Q1075.6094,192.9397 1076.25,193.0959 Q1076.9063,193.2522 1077.4688,193.549 L1077.4688,196.2678 Q1076.8438,195.6897 1076.25,195.424 Q1075.6563,195.1428 1075.0313,195.1428 Q1073.6875,195.1428 1073,196.2209 Q1072.3125,197.2834 1072.3125,199.3772 Q1072.3125,201.4709 1073,202.549 Q1073.6875,203.6115 1075.0313,203.6115 Q1075.6563,203.6115 1076.25,203.3459 Q1076.8438,203.0647 1077.4688,202.4865 L1077.4688,205.2053 Z " fill="#000000"/><a href="https://bo4e.github.io/BO4E-python/v202401.7.0/api/bo4e.com.html#bo4e.com.zeitraum.Zeitraum" target="_top" title="https://bo4e.github.io/BO4E-python/v202401.7.0/api/bo4e.com.html#bo4e.com.zeitraum.Zeitraum" xlink:actuate="onRequest" xlink:href="https://bo4e.github.io/BO4E-python/v202401.7.0/api/bo4e.com.html#bo4e.com.zeitraum.Zeitraum" xlink:show="new" xlink:title="https://bo4e.github.io/BO4E-python/v202401.7.0/api/bo4e.com.html#bo4e.com.zeitraum.Zeitraum" xlink:type="simple"><text fill="#0000FF" font-family="sans-serif" font-size="14" lengthAdjust="spacing" text-decoration="underline" textLength="62" x="1104.5" y="198.591">Zeitraum</text></a><text fill="#000000" font-family="sans-serif" font-size="10" lengthAdjust="spacing" textLength="94" x="1088.5" y="211.175">bo4e.com.zeitraum</text></g><!--class COM--><g id="elem_COM"><rect codeLine="15" fill="#F1F1F1" height="37.9375" id="COM" rx="2.5" ry="2.5" style="stroke:#181818;stroke-width:0.5;" width="104" x="1070.5" y="253.5959"/><ellipse cx="1085.5" cy="272.5647" fill="#ADD1B2" rx="11" ry="11" style="stroke:#181818;stroke-width:1.0;"/><path d="M1088.4688,278.2053 Q1087.8906,278.5022 1087.25,278.6428 Q1086.6094,278.799 1085.9063,278.799 Q1083.4063,278.799 1082.0781,277.1584 Q1080.7656,275.5022 1080.7656,272.3772 Q1080.7656,269.2522 1082.0781,267.5959 Q1083.4063,265.9397 1085.9063,265.9397 Q1086.6094,265.9397 1087.25,266.0959 Q1087.9063,266.2522 1088.4688,266.549 L1088.4688,269.2678 Q1087.8438,268.6897 1087.25,268.424 Q1086.6563,268.1428 1086.0313,268.1428 Q1084.6875,268.1428 1084,269.2209 Q1083.3125,270.2834 1083.3125,272.3772 Q1083.3125,274.4709 1084,275.549 Q1084.6875,276.6115 1086.0313,276.6115 Q1086.6563,276.6115 1087.25,276.3459 Q1087.8438,276.0647 1088.4688,275.4865 L1088.4688,278.2053 Z " fill="#000000"/><a href="https://bo4e.github.io/BO4E-python/v202401.7.0/api/bo4e.com.html#bo4e.com.com.COM" target="_top" title="https://bo4e.github.io/BO4E-python/v202401.7.0/api/bo4e.com.html#bo4e.com.com.COM" xlink:actuate="onRequest" xlink:href="https://bo4e.github.io/BO4E-python/v202401.7.0/api/bo4e.com.html#bo4e.com.com.COM" xlink:show="new" xlink:title="https://bo4e.github.io/BO4E-python/v202401.7.0/api/bo4e.com.html#bo4e.com.com.COM" xlink:type="simple"><text fill="#0000FF" font-family="sans-serif" font-size="14" lengthAdjust="spacing" text-decoration="underline" textLength="33" x="1119" y="271.591">COM</text></a><text fill="#000000" font-family="sans-serif" font-size="10" lengthAdjust="spacing" textLength="72" x="1099.5" y="284.175">bo4e.com.com</text></g><!--class Menge--><g id="elem_Menge"><rect codeLine="16" fill="#F1F1F1" height="37.9375" id="Menge" rx="2.5" ry="2.5" style="stroke:#181818;stroke-width:0.5;" width="117" x="1064" y="326.5959"/><ellipse cx="1079" cy="345.5647" fill="#ADD1B2" rx="11" ry="11" style="stroke:#181818;stroke-width:1.0;"/><path d="M1081.9688,351.2053 Q1081.3906,351.5022 1080.75,351.6428 Q1080.1094,351.799 1079.4063,351.799 Q1076.9063,351.799 1075.5781,350.1584 Q1074.2656,348.5022 1074.2656,345.3772 Q1074.2656,342.2522 1075.5781,340.5959 Q1076.9063,338.9397 1079.4063,338.9397 Q1080.1094,338.9397 1080.75,339.0959 Q1081.4063,339.2522 1081.9688,339.549 L1081.9688,342.2678 Q1081.3438,341.6897 1080.75,341.424 Q1080.1563,341.1428 1079.5313,341.1428 Q1078.1875,341.1428 1077.5,342.2209 Q1076.8125,343.2834 1076.8125,345.3772 Q1076.8125,347.4709 1077.5,348.549 Q1078.1875,349.6115 1079.5313,349.6115 Q1080.1563,349.6115 1080.75,349.3459 Q1081.3438,349.0647 1081.9688,348.4865 L1081.9688,351.2053 Z " fill="#000000"/><a href="https://bo4e.github.io/BO4E-python/v202401.7.0/api/bo4e.com.html#bo4e.com.menge.Menge" target="_top" title="https://bo4e.github.io/BO4E-python/v202401.7.0/api/bo4e.com.html#bo4e.com.menge.Menge" xlink:actuate="onRequest" xlink:href="https://bo4e.github.io/BO4E-python/v202401.7.0/api/bo4e.com.html#bo4e.com.menge.Menge" xlink:show="new" xlink:title="https://bo4e.github.io/BO4E-python/v202401.7.0/api/bo4e.com.html#bo4e.com.menge.Menge" xlink:type="simple"><text fill="#0000FF" font-family="sans-serif" font-size="14" lengthAdjust="spacing" text-decoration="underline" textLength="48" x="1111.5" y="344.591">Menge</text></a><text fill="#000000" font-family="sans-serif" font-size="10" lengthAdjust="spacing" textLength="85" x="1093" y="357.175">bo4e.com.menge</text></g><!--class Vertragsform--><g id="elem_Vertragsform"><rect codeLine="19" fill="#F1F1F1" height="37.9375" id="Vertragsform" rx="2.5" ry="2.5" style="stroke:#181818;stroke-width:0.5;" width="155" x="1045" y="439.5959"/><ellipse cx="1060" cy="458.5647" fill="#ADD1B2" rx="11" ry="11" style="stroke:#181818;stroke-width:1.0;"/><path d="M1062.9688,464.2053 Q1062.3906,464.5022 1061.75,464.6428 Q1061.1094,464.799 1060.4063,464.799 Q1057.9063,464.799 1056.5781,463.1584 Q1055.2656,461.5022 1055.2656,458.3772 Q1055.2656,455.2522 1056.5781,453.5959 Q1057.9063,451.9397 1060.4063,451.9397 Q1061.1094,451.9397 1061.75,452.0959 Q1062.4063,452.2522 1062.9688,452.549 L1062.9688,455.2678 Q1062.3438,454.6897 1061.75,454.424 Q1061.1563,454.1428 1060.5313,454.1428 Q1059.1875,454.1428 1058.5,455.2209 Q1057.8125,456.2834 1057.8125,458.3772 Q1057.8125,460.4709 1058.5,461.549 Q1059.1875,462.6115 1060.5313,462.6115 Q1061.1563,462.6115 1061.75,462.3459 Q1062.3438,462.0647 1062.9688,461.4865 L1062.9688,464.2053 Z " fill="#000000"/><a href="https://bo4e.github.io/BO4E-python/v202401.7.0/api/bo4e.enum.html#bo4e.enum.vertragsform.Vertragsform" target="_top" title="https://bo4e.github.io/BO4E-python/v202401.7.0/api/bo4e.enum.html#bo4e.enum.vertragsform.Vertragsform" xlink:actuate="onRequest" xlink:href="https://bo4e.github.io/BO4E-python/v202401.7.0/api/bo4e.enum.html#bo4e.enum.vertragsform.Vertragsform" xlink:show="new" xlink:title="https://bo4e.github.io/BO4E-python/v202401.7.0/api/bo4e.enum.html#bo4e.enum.vertragsform.Vertragsform" xlink:type="simple"><text fill="#0000FF" font-family="sans-serif" font-size="14" lengthAdjust="spacing" text-decoration="underline" textLength="89" x="1091" y="457.591">Vertragsform</text></a><text fill="#000000" font-family="sans-serif" font-size="10" lengthAdjust="spacing" textLength="123" x="1074" y="470.175">bo4e.enum.vertragsform</text></g><!--class Sparte--><g id="elem_Sparte"><rect codeLine="20" fill="#F1F1F1" height="37.9375" id="Sparte" rx="2.5" ry="2.5" style="stroke:#181818;stroke-width:0.5;" width="121" x="1062" y="512.5959"/><ellipse cx="1077" cy="531.5647" fill="#ADD1B2" rx="11" ry="11" style="stroke:#181818;stroke-width:1.0;"/><path d="M1079.9688,537.2053 Q1079.3906,537.5022 1078.75,537.6428 Q1078.1094,537.799 1077.4063,537.799 Q1074.9063,537.799 1073.5781,536.1584 Q1072.2656,534.5022 1072.2656,531.3772 Q1072.2656,528.2522 1073.5781,526.5959 Q1074.9063,524.9397 1077.4063,524.9397 Q1078.1094,524.9397 1078.75,525.0959 Q1079.4063,525.2522 1079.9688,525.549 L1079.9688,528.2678 Q1079.3438,527.6897 1078.75,527.424 Q1078.1563,527.1428 1077.5313,527.1428 Q1076.1875,527.1428 1075.5,528.2209 Q1074.8125,529.2834 1074.8125,531.3772 Q1074.8125,533.4709 1075.5,534.549 Q1076.1875,535.6115 1077.5313,535.6115 Q1078.1563,535.6115 1078.75,535.3459 Q1079.3438,535.0647 1079.9688,534.4865 L1079.9688,537.2053 Z " fill="#000000"/><a href="https://bo4e.github.io/BO4E-python/v202401.7.0/api/bo4e.enum.html#bo4e.enum.sparte.Sparte" target="_top" title="https://bo4e.github.io/BO4E-python/v202401.7.0/api/bo4e.enum.html#bo4e.enum.sparte.Sparte" xlink:actuate="onRequest" xlink:href="https://bo4e.github.io/BO4E-python/v202401.7.0/api/bo4e.enum.html#bo4e.enum.sparte.Sparte" xlink:show="new" xlink:title="https://bo4e.github.io/BO4E-python/v202401.7.0/api/bo4e.enum.html#bo4e.enum.sparte.Sparte" xlink:type="simple"><text fill="#0000FF" font-family="sans-serif" font-size="14" lengthAdjust="spacing" text-decoration="underline" textLength="45" x="1113" y="530.591">Sparte</text></a><text fill="#000000" font-family="sans-serif" font-size="10" lengthAdjust="spacing" textLength="89" x="1091" y="543.175">bo4e.enum.sparte</text></g><!--class Preismodell--><g id="elem_Preismodell"><rect codeLine="21" fill="#F1F1F1" height="37.9375" id="Preismodell" rx="2.5" ry="2.5" style="stroke:#181818;stroke-width:0.5;" width="145" x="1050" y="585.5959"/><ellipse cx="1065" cy="604.5647" fill="#ADD1B2" rx="11" ry="11" style="stroke:#181818;stroke-width:1.0;"/><path d="M1067.9688,610.2053 Q1067.3906,610.5022 1066.75,610.6428 Q1066.1094,610.799 1065.4063,610.799 Q1062.9063,610.799 1061.5781,609.1584 Q1060.2656,607.5022 1060.2656,604.3772 Q1060.2656,601.2522 1061.5781,599.5959 Q1062.9063,597.9397 1065.4063,597.9397 Q1066.1094,597.9397 1066.75,598.0959 Q1067.4063,598.2522 1067.9688,598.549 L1067.9688,601.2678 Q1067.3438,600.6897 1066.75,600.424 Q1066.1563,600.1428 1065.5313,600.1428 Q1064.1875,600.1428 1063.5,601.2209 Q1062.8125,602.2834 1062.8125,604.3772 Q1062.8125,606.4709 1063.5,607.549 Q1064.1875,608.6115 1065.5313,608.6115 Q1066.1563,608.6115 1066.75,608.3459 Q1067.3438,608.0647 1067.9688,607.4865 L1067.9688,610.2053 Z " fill="#000000"/><a href="https://bo4e.github.io/BO4E-python/v202401.7.0/api/bo4e.enum.html#bo4e.enum.preismodell.Preismodell" target="_top" title="https://bo4e.github.io/BO4E-python/v202401.7.0/api/bo4e.enum.html#bo4e.enum.preismodell.Preismodell" xlink:actuate="onRequest" xlink:href="https://bo4e.github.io/BO4E-python/v202401.7.0/api/bo4e.enum.html#bo4e.enum.preismodell.Preismodell" xlink:show="new" xlink:title="https://bo4e.github.io/BO4E-python/v202401.7.0/api/bo4e.enum.html#bo4e.enum.preismodell.Preismodell" xlink:type="simple"><text fill="#0000FF" font-family="sans-serif" font-size="14" lengthAdjust="spacing" text-decoration="underline" textLength="80" x="1095.5" y="603.591">Preismodell</text></a><text fill="#000000" font-family="sans-serif" font-size="10" lengthAdjust="spacing" textLength="113" x="1079" y="616.175">bo4e.enum.preismodell</text></g><!--class Rechnungslegung--><g id="elem_Rechnungslegung"><rect codeLine="22" fill="#F1F1F1" height="37.9375" id="Rechnungslegung" rx="2.5" ry="2.5" style="stroke:#181818;stroke-width:0.5;" width="172" x="1036.5" y="658.5959"/><ellipse cx="1051.5" cy="677.5647" fill="#ADD1B2" rx="11" ry="11" style="stroke:#181818;stroke-width:1.0;"/><path d="M1054.4688,683.2053 Q1053.8906,683.5022 1053.25,683.6428 Q1052.6094,683.799 1051.9063,683.799 Q1049.4063,683.799 1048.0781,682.1584 Q1046.7656,680.5022 1046.7656,677.3772 Q1046.7656,674.2522 1048.0781,672.5959 Q1049.4063,670.9397 1051.9063,670.9397 Q1052.6094,670.9397 1053.25,671.0959 Q1053.9063,671.2522 1054.4688,671.549 L1054.4688,674.2678 Q1053.8438,673.6897 1053.25,673.424 Q1052.6563,673.1428 1052.0313,673.1428 Q1050.6875,673.1428 1050,674.2209 Q1049.3125,675.2834 1049.3125,677.3772 Q1049.3125,679.4709 1050,680.549 Q1050.6875,681.6115 1052.0313,681.6115 Q1052.6563,681.6115 1053.25,681.3459 Q1053.8438,681.0647 1054.4688,680.4865 L1054.4688,683.2053 Z " fill="#000000"/><a href="https://bo4e.github.io/BO4E-python/v202401.7.0/api/bo4e.enum.html#bo4e.enum.rechnungslegung.Rechnungslegung" target="_top" title="https://bo4e.github.io/BO4E-python/v202401.7.0/api/bo4e.enum.html#bo4e.enum.rechnungslegung.Rechnungslegung" xlink:actuate="onRequest" xlink:href="https://bo4e.github.io/BO4E-python/v202401.7.0/api/bo4e.enum.html#bo4e.enum.rechnungslegung.Rechnungslegung" xlink:show="new" xlink:title="https://bo4e.github.io/BO4E-python/v202401.7.0/api/bo4e.enum.html#bo4e.enum.rechnungslegung.Rechnungslegung" xlink:type="simple"><text fill="#0000FF" font-family="sans-serif" font-size="14" lengthAdjust="spacing" text-decoration="underline" textLength="128" x="1071.5" y="676.591">Rechnungslegung</text></a><text fill="#000000" font-family="sans-serif" font-size="10" lengthAdjust="spacing" textLength="140" x="1065.5" y="689.175">bo4e.enum.rechnungslegung</text></g><!--class Ausschreibungslos--><g id="elem_Ausschreibungslos"><rect codeLine="3" fill="#F1F1F1" height="143.7188" id="Ausschreibungslos" rx="2.5" ry="2.5" style="stroke:#181818;stroke-width:0.5;" width="775" x="7" y="247.7059"/><ellipse cx="321.25" cy="266.6747" fill="#ADD1B2" rx="11" ry="11" style="stroke:#181818;stroke-width:1.0;"/><path d="M324.2188,272.3153 Q323.6406,272.6122 323,272.7528 Q322.3594,272.909 321.6563,272.909 Q319.1563,272.909 317.8281,271.2684 Q316.5156,269.6122 316.5156,266.4872 Q316.5156,263.3622 317.8281,261.7059 Q319.1563,260.0497 321.6563,260.0497 Q322.3594,260.0497 323,260.2059 Q323.6563,260.3622 324.2188,260.659 L324.2188,263.3778 Q323.5938,262.7997 323,262.534 Q322.4063,262.2528 321.7813,262.2528 Q320.4375,262.2528 319.75,263.3309 Q319.0625,264.3934 319.0625,266.4872 Q319.0625,268.5809 319.75,269.659 Q320.4375,270.7215 321.7813,270.7215 Q322.4063,270.7215 323,270.4559 Q323.5938,270.1747 324.2188,269.5965 L324.2188,272.3153 Z " fill="#000000"/><a href="https://bo4e.github.io/BO4E-python/v202401.7.0/api/bo4e.com.html#bo4e.com.ausschreibungslos.Ausschreibungslos" target="_top" title="https://bo4e.github.io/BO4E-python/v202401.7.0/api/bo4e.com.html#bo4e.com.ausschreibungslos.Ausschreibungslos" xlink:actuate="onRequest" xlink:href="https://bo4e.github.io/BO4E-python/v202401.7.0/api/bo4e.com.html#bo4e.com.ausschreibungslos.Ausschreibungslos" xlink:show="new" xlink:title="https://bo4e.github.io/BO4E-python/v202401.7.0/api/bo4e.com.html#bo4e.com.ausschreibungslos.Ausschreibungslos" xlink:type="simple"><text fill="#0000FF" font-family="sans-serif" font-size="14" lengthAdjust="spacing" text-decoration="underline" textLength="132" x="344.75" y="265.701">Ausschreibungslos</text></a><text fill="#000000" font-family="sans-serif" font-size="10" lengthAdjust="spacing" textLength="138" x="341.75" y="278.285">bo4e.com.ausschreibungslos</text><line style="stroke:#181818;stroke-width:0.5;" x1="8" x2="781" y1="285.6434" y2="285.6434"/><text fill="#000000" font-family="sans-serif" font-size="14" lengthAdjust="spacing" textLength="763" x="13" y="302.6385">_typ : Literal[&lt;ComTyp.AUSSCHREIBUNGSLOS: 'AUSSCHREIBUNGSLOS'&gt;] [1] = ComTyp.AUSSCHREIBUNGSLOS</text><text fill="#000000" font-family="sans-serif" font-size="14" lengthAdjust="spacing" textLength="206" x="13" y="318.9354">losnummer : str [0..1] = None</text><text fill="#000000" font-family="sans-serif" font-size="14" lengthAdjust="spacing" textLength="219" x="13" y="335.2323">bezeichnung : str [0..1] = None</text><text fill="#000000" font-family="sans-serif" font-size="14" lengthAdjust="spacing" textLength="221" x="13" y="351.5292">betreutDurch : str [0..1] = None</text><text fill="#000000" font-family="sans-serif" font-size="14" lengthAdjust="spacing" textLength="255" x="13" y="367.826">anzahlLieferstellen : int [0..1] = None</text><text fill="#000000" font-family="sans-serif" font-size="14" lengthAdjust="spacing" textLength="208" x="13" y="384.1229">bemerkung : str [0..1] = None</text></g><!--link Ausschreibungslos to COM--><g id="link_Ausschreibungslos_COM"><path codeLine="25" d="M782.41,294.5159 C896.74,287.1159 989.9375,281.0771 1052.2775,277.0471 " fill="none" id="Ausschreibungslos-to-COM" style="stroke:#181818;stroke-width:1.0;"/><polygon fill="none" points="1070.24,275.8859,1051.8904,271.0596,1052.6646,283.0346,1070.24,275.8859" style="stroke:#181818;stroke-width:1.0;"/></g><!--link Ausschreibungslos to Preismodell--><g id="link_Ausschreibungslos_Preismodell"><path codeLine="26" d="M515.26,391.7659 C596.56,438.1459 707.83,496.6059 812,534.5659 C891.06,563.3759 974.1429,580.6962 1037.8329,591.6262 " fill="none" id="Ausschreibungslos-to-Preismodell" style="stroke:#181818;stroke-width:1.0;"/><polygon fill="#181818" points="1049.66,593.6559,1044.423,588.6987,1037.8329,591.6262,1043.0699,596.5834,1049.66,593.6559" style="stroke:#181818;stroke-width:1.0;"/><text fill="#000000" font-family="sans-serif" font-size="13" lengthAdjust="spacing" textLength="74" x="856.5" y="530.6328">preismodell</text><text fill="#000000" font-family="sans-serif" font-size="13" lengthAdjust="spacing" textLength="24" x="1018.1039" y="605.4251">0..1</text></g><!--link Ausschreibungslos to Sparte--><g id="link_Ausschreibungslos_Sparte"><path codeLine="27" d="M569.08,391.8759 C642.99,420.6359 730.75,452.1459 812,474.5659 C897.45,498.1459 987.0309,513.0267 1049.8809,522.0167 " fill="none" id="Ausschreibungslos-to-Sparte" style="stroke:#181818;stroke-width:1.0;"/><polygon fill="#181818" points="1061.76,523.7159,1056.3868,518.9066,1049.8809,522.0167,1055.2541,526.826,1061.76,523.7159" style="stroke:#181818;stroke-width:1.0;"/><text fill="#000000" font-family="sans-serif" font-size="13" lengthAdjust="spacing" textLength="66" x="860.5" y="470.6328">energieart</text><text fill="#000000" font-family="sans-serif" font-size="13" lengthAdjust="spacing" textLength="24" x="1029.8041" y="535.7519">0..1</text></g><!--link Ausschreibungslos to Rechnungslegung--><g id="link_Ausschreibungslos_Rechnungslegung"><path codeLine="28" d="M480.91,391.6759 C561.43,456.1459 687.95,548.6759 812,603.5659 C884.25,635.5359 960.5203,652.8613 1024.2303,663.7113 " fill="none" id="Ausschreibungslos-to-Rechnungslegung" style="stroke:#181818;stroke-width:1.0;"/><polygon fill="#181818" points="1036.06,665.7259,1030.8167,660.7754,1024.2303,663.7113,1029.4736,668.6618,1036.06,665.7259" style="stroke:#181818;stroke-width:1.0;"/><text fill="#000000" font-family="sans-serif" font-size="13" lengthAdjust="spacing" textLength="160" x="813.5" y="599.6328">wunschRechnungslegung</text><text fill="#000000" font-family="sans-serif" font-size="13" lengthAdjust="spacing" textLength="24" x="1004.5232" y="677.4657">0..1</text></g><!--link Ausschreibungslos to Vertragsform--><g id="link_Ausschreibungslos_Vertragsform"><path codeLine="29" d="M645.42,391.8659 C699.97,405.7059 757.64,418.8859 812,428.5659 C890.66,442.5759 969.8357,449.6317 1032.7457,453.7517 " fill="none" id="Ausschreibungslos-to-Vertragsform" style="stroke:#181818;stroke-width:1.0;"/><polygon fill="#181818" points="1044.72,454.5359,1038.9942,450.1524,1032.7457,453.7517,1038.4714,458.1353,1044.72,454.5359" style="stroke:#181818;stroke-width:1.0;"/><text fill="#000000" font-family="sans-serif" font-size="13" lengthAdjust="spacing" textLength="132" x="827.5" y="424.6328">wunschVertragsform</text><text fill="#000000" font-family="sans-serif" font-size="13" lengthAdjust="spacing" textLength="24" x="1013.0045" y="466.9068">0..1</text></g><!--link Ausschreibungslos to Ausschreibungsdetail--><g id="link_Ausschreibungslos_Ausschreibungsdetail"><path codeLine="30" d="M471.71,247.2259 C550.02,178.3159 678.95,79.2459 812,38.5659 C881.28,17.3859 905.19,19.2059 975,38.5659 C1023.03,51.8859 1061.7021,78.1793 1089.0821,99.7993 " fill="none" id="Ausschreibungslos-to-Ausschreibungsdetail" style="stroke:#181818;stroke-width:1.0;"/><polygon fill="#181818" points="1098.5,107.2359,1096.2699,100.3783,1089.0821,99.7993,1091.3122,106.6569,1098.5,107.2359" style="stroke:#181818;stroke-width:1.0;"/><text fill="#000000" font-family="sans-serif" font-size="13" lengthAdjust="spacing" textLength="73" x="857" y="19.6328">lieferstellen</text><text fill="#000000" font-family="sans-serif" font-size="13" lengthAdjust="spacing" textLength="23" x="1065.0719" y="96.4414">0..*</text></g><!--link Ausschreibungslos to Zeitraum--><g id="link_Ausschreibungslos_Zeitraum"><path codeLine="31" d="M492.54,247.3159 C573.32,191.9459 693.82,120.0259 812,89.5659 C882.15,71.4859 921.06,41.2059 975,89.5659 C987.15,100.4559 972.37,150.1859 983,162.5659 C1001.73,184.3759 1019.8792,192.2799 1047.1892,196.3199 " fill="none" id="Ausschreibungslos-to-Zeitraum" style="stroke:#181818;stroke-width:1.0;"/><polygon fill="#181818" points="1059.06,198.0759,1053.7099,193.2409,1047.1892,196.3199,1052.5392,201.1548,1059.06,198.0759" style="stroke:#181818;stroke-width:1.0;"/><text fill="#000000" font-family="sans-serif" font-size="13" lengthAdjust="spacing" textLength="88" x="849.5" y="59.6328">lieferzeitraum</text><text fill="#000000" font-family="sans-serif" font-size="13" lengthAdjust="spacing" textLength="24" x="1027.2802" y="210.7696">0..1</text></g><!--link Ausschreibungslos to Zeitraum--><g id="link_Ausschreibungslos_Zeitraum"><path codeLine="32" d="M530.97,247.3159 C610.4,209.0759 714.1,166.0859 812,146.5659 C883.05,132.3959 913.38,108.4759 975,146.5659 C981.76,150.7459 976.84,157.5459 983,162.5659 C1004.41,180.0259 1021.5008,187.0567 1047.3508,191.9667 " fill="none" id="Ausschreibungslos-to-Zeitraum-1" style="stroke:#181818;stroke-width:1.0;"/><polygon fill="#181818" points="1059.14,194.2059,1053.9918,189.1565,1047.3508,191.9667,1052.499,197.016,1059.14,194.2059" style="stroke:#181818;stroke-width:1.0;"/><text fill="#000000" font-family="sans-serif" font-size="13" lengthAdjust="spacing" textLength="141" x="823" y="122.6328">wiederholungsintervall</text><text fill="#000000" font-family="sans-serif" font-size="13" lengthAdjust="spacing" textLength="24" x="1027.3685" y="189.9536">0..1</text></g><!--link Ausschreibungslos to Zeitraum--><g id="link_Ausschreibungslos_Zeitraum"><path codeLine="33" d="M614.25,247.2159 C677.36,229.4759 746.8,212.9059 812,203.5659 C896.98,191.3959 984.4321,192.3173 1047.1921,195.1373 " fill="none" id="Ausschreibungslos-to-Zeitraum-2" style="stroke:#181818;stroke-width:1.0;"/><polygon fill="#181818" points="1059.18,195.6759,1053.3656,191.4106,1047.1921,195.1373,1053.0065,199.4026,1059.18,195.6759" style="stroke:#181818;stroke-width:1.0;"/><text fill="#000000" font-family="sans-serif" font-size="13" lengthAdjust="spacing" textLength="161" x="813" y="190.6328">wunschKuendingungsfrist</text><text fill="#000000" font-family="sans-serif" font-size="13" lengthAdjust="spacing" textLength="24" x="1027.4126" y="208.1221">0..1</text></g><!--link Ausschreibungslos to Zeitraum--><g id="link_Ausschreibungslos_Zeitraum"><path codeLine="34" d="M782.38,260.9959 C846.78,250.6259 912.83,239.5959 975,228.5659 C1002.7,223.6559 1021.4665,220.0667 1047.4665,214.8267 " fill="none" id="Ausschreibungslos-to-Zeitraum-3" style="stroke:#181818;stroke-width:1.0;"/><polygon fill="#181818" points="1059.23,212.4559,1052.558,209.7202,1047.4665,214.8267,1054.1385,217.5625,1059.23,212.4559" style="stroke:#181818;stroke-width:1.0;"/><text fill="#000000" font-family="sans-serif" font-size="13" lengthAdjust="spacing" textLength="128" x="829.5" y="224.6328">wunschZahlungsziel</text><text fill="#000000" font-family="sans-serif" font-size="13" lengthAdjust="spacing" textLength="24" x="1027.4678" y="226.6325">0..1</text></g><!--link Ausschreibungslos to Menge--><g id="link_Ausschreibungslos_Menge"><path codeLine="35" d="M782.41,333.4259 C892.85,337.3759 988.3377,340.7964 1051.7177,343.0664 " fill="none" id="Ausschreibungslos-to-Menge" style="stroke:#181818;stroke-width:1.0;"/><polygon fill="#181818" points="1063.71,343.4959,1057.857,339.2837,1051.7177,343.0664,1057.5707,347.2786,1063.71,343.4959" style="stroke:#181818;stroke-width:1.0;"/><text fill="#000000" font-family="sans-serif" font-size="13" lengthAdjust="spacing" textLength="92" x="847.5" y="331.6328">gesamtMenge</text><text fill="#000000" font-family="sans-serif" font-size="13" lengthAdjust="spacing" textLength="24" x="1031.9673" y="339.5235">0..1</text></g><!--link Ausschreibungslos to Menge--><g id="link_Ausschreibungslos_Menge"><path codeLine="36" d="M782.33,366.1059 C846.66,369.2959 912.7,369.7959 975,365.5659 C1004.32,363.5759 1024.8541,361.1551 1051.7141,357.1051 " fill="none" id="Ausschreibungslos-to-Menge-1" style="stroke:#181818;stroke-width:1.0;"/><polygon fill="#181818" points="1063.58,355.3159,1057.0507,352.2552,1051.7141,357.1051,1058.2435,360.1658,1063.58,355.3159" style="stroke:#181818;stroke-width:1.0;"/><text fill="#000000" font-family="sans-serif" font-size="13" lengthAdjust="spacing" textLength="142" x="822.5" y="361.6328">wunschMindestmenge</text><text fill="#000000" font-family="sans-serif" font-size="13" lengthAdjust="spacing" textLength="24" x="1031.8231" y="369.2769">0..1</text></g><!--link Ausschreibungslos to Menge--><g id="link_Ausschreibungslos_Menge"><path codeLine="37" d="M697.56,391.8859 C787.05,404.3459 885.13,409.1959 975,394.5659 C1009.94,388.8759 1036.6205,380.387 1065.1005,369.277 " fill="none" id="Ausschreibungslos-to-Menge-2" style="stroke:#181818;stroke-width:1.0;"/><polygon fill="#181818" points="1076.28,364.9159,1069.2366,363.37,1065.1005,369.277,1072.144,370.823,1076.28,364.9159" style="stroke:#181818;stroke-width:1.0;"/><text fill="#000000" font-family="sans-serif" font-size="13" lengthAdjust="spacing" textLength="145" x="821" y="390.6328">wunschMaximalmenge</text><text fill="#000000" font-family="sans-serif" font-size="13" lengthAdjust="spacing" textLength="24" x="1066.6556" y="384.5534">0..1</text></g><!--SRC=[jLPTRzCm57rUViLL-p1fqjns39YYCMah4o3sWLR6mqg5tEGsiOYTo7OwLk2_upXBcwOf2cDvIEFhddDySdsTcmXd6dGCaWMX1fz9z3IBXUDu4LKAEkDng7MYt5vl6XyY2PWEqobXSU_i-l1yFtdGOInwyuF-mM5_G5wJVeycB8TwCIUXvb5t6T5KAI-KoAQf25GKAt9QdO6DcSdagpXMR87ke7-oNQe3j8OCFvsTR_eX0HSkc4P9e_7nCEQV7n9oUZiQ3T_Vd7yukxrwDxgu7hcmkp6tUpA1yM02Rs0RozanouYKSvHc4QKbZFk4MCfLBD3PcU82cHSAusWRG4jCzTjKUc4zWee53QCBXZEKIcCKeJ109lIcbB7nVTjAlnr7K8ugeHu-nyP24KqcDlj52Dtp_kdHgs6M_DQho4TDMLGff7mIwYQRb5EEhAce_8zMdieKYPOqvUJkSG35eDvnWRSk2sWhph9hU7q9vggtOYxhmW1QCS1H14Wkir-ml_KsBCmQiI1JxizIxMWETwdSix1SxraCNN_WlNXvz2m5lrolkmhdACt-1ceMIqw-b08e1vjfsI1RtsLEIuPDrgL6Ch8to6zRxELGQop7jMGfCOTOyTWthq_oQJM6qdYBmnBJsYmnMl9gch1j62h2mDp8pNeCbNYBxugAzLvXPZsXfWdlx_ywMRxEiyDV1pAeFUXa7QQpEWfhgNMXbBhc4ezLum8Ab0534pKdLrFbmdqg3BFwu8q5ruvReRPsXFucjTTPvR6sHxaGbVjw8r-PsB9D5095GtYAmZr37sKOHnd1V5UWdDE6ErPLikdvcABmcSWIhMQIAVrqgJlpvPCn5WoR6yfxXGi1AifrtWx-bPilVyc4Zqhp_v6WFnYdKIxXXCn7uCYdPiiT5SRtKACwCm_hgpy0]--></g></svg>