<?xml version="1.0" encoding="us-ascii" standalone="no"?><svg xmlns="http://www.w3.org/2000/svg" xmlns:xlink="http://www.w3.org/1999/xlink" contentStyleType="text/css" height="388px" preserveAspectRatio="none" style="width:1068px;height:388px;background:#FFFFFF;" version="1.1" viewBox="0 0 1068 388" width="1068px" zoomAndPan="magnify"><defs/><g><!--cluster bo4e--><g id="cluster_bo4e"><path d="M866.5,6 L907.5,6 A3.75,3.75 0 0 1 910,8.5 L917,28.2969 L1058.5,28.2969 A2.5,2.5 0 0 1 1061,30.7969 L1061,378.5 A2.5,2.5 0 0 1 1058.5,381 L866.5,381 A2.5,2.5 0 0 1 864,378.5 L864,8.5 A2.5,2.5 0 0 1 866.5,6 " fill="none" style="stroke:#000000;stroke-width:1.5;"/><line style="stroke:#000000;stroke-width:1.5;" x1="864" x2="917" y1="28.2969" y2="28.2969"/><text fill="#000000" font-family="sans-serif" font-size="14" font-weight="bold" lengthAdjust="spacing" textLength="40" x="868" y="20.9951">bo4e</text></g><!--cluster com--><g id="cluster_com"><path d="M890.5,49 L969.5,49 A3.75,3.75 0 0 1 972,51.5 L979,71.2969 L1034.5,71.2969 A2.5,2.5 0 0 1 1037,73.7969 L1037,354.5 A2.5,2.5 0 0 1 1034.5,357 L890.5,357 A2.5,2.5 0 0 1 888,354.5 L888,51.5 A2.5,2.5 0 0 1 890.5,49 " fill="#E0A86C" style="stroke:#000000;stroke-width:1.5;"/><line style="stroke:#000000;stroke-width:1.5;" x1="888" x2="979" y1="71.2969" y2="71.2969"/><a href="https://bo4e.github.io/BO4E-python/v202401.7.0/api/bo4e.com.html" target="_top" title="https://bo4e.github.io/BO4E-python/v202401.7.0/api/bo4e.com.html" xlink:actuate="onRequest" xlink:href="https://bo4e.github.io/BO4E-python/v202401.7.0/api/bo4e.com.html" xlink:show="new" xlink:title="https://bo4e.github.io/BO4E-python/v202401.7.0/api/bo4e.com.html" xlink:type="simple"><text fill="#0000FF" font-family="sans-serif" font-size="14" font-weight="bold" lengthAdjust="spacing" text-decoration="underline" textLength="78" x="892" y="63.9951">bo4e.com</text></a></g><!--class Preis--><g id="elem_Preis"><rect codeLine="13" fill="#F1F1F1" height="37.9375" id="Preis" rx="2.5" ry="2.5" style="stroke:#181818;stroke-width:0.5;" width="106" x="909.5" y="84.03"/><ellipse cx="924.5" cy="102.9987" fill="#ADD1B2" rx="11" ry="11" style="stroke:#181818;stroke-width:1.0;"/><path d="M927.4688,108.6394 Q926.8906,108.9362 926.25,109.0769 Q925.6094,109.2331 924.9063,109.2331 Q922.4063,109.2331 921.0781,107.5925 Q919.7656,105.9362 919.7656,102.8112 Q919.7656,99.6862 921.0781,98.03 Q922.4063,96.3737 924.9063,96.3737 Q925.6094,96.3737 926.25,96.53 Q926.9063,96.6862 927.4688,96.9831 L927.4688,99.7019 Q926.8438,99.1237 926.25,98.8581 Q925.6563,98.5769 925.0313,98.5769 Q923.6875,98.5769 923,99.655 Q922.3125,100.7175 922.3125,102.8112 Q922.3125,104.905 923,105.9831 Q923.6875,107.0456 925.0313,107.0456 Q925.6563,107.0456 926.25,106.78 Q926.8438,106.4987 927.4688,105.9206 L927.4688,108.6394 Z " fill="#000000"/><a href="https://bo4e.github.io/BO4E-python/v202401.7.0/api/bo4e.com.html#bo4e.com.preis.Preis" target="_top" title="https://bo4e.github.io/BO4E-python/v202401.7.0/api/bo4e.com.html#bo4e.com.preis.Preis" xlink:actuate="onRequest" xlink:href="https://bo4e.github.io/BO4E-python/v202401.7.0/api/bo4e.com.html#bo4e.com.preis.Preis" xlink:show="new" xlink:title="https://bo4e.github.io/BO4E-python/v202401.7.0/api/bo4e.com.html#bo4e.com.preis.Preis" xlink:type="simple"><text fill="#0000FF" font-family="sans-serif" font-size="14" lengthAdjust="spacing" text-decoration="underline" textLength="34" x="958.5" y="102.0251">Preis</text></a><text fill="#000000" font-family="sans-serif" font-size="10" lengthAdjust="spacing" textLength="74" x="938.5" y="114.6091">bo4e.com.preis</text></g><!--class COM--><g id="elem_COM"><rect codeLine="14" fill="#F1F1F1" height="37.9375" id="COM" rx="2.5" ry="2.5" style="stroke:#181818;stroke-width:0.5;" width="104" x="910.5" y="157.03"/><ellipse cx="925.5" cy="175.9988" fill="#ADD1B2" rx="11" ry="11" style="stroke:#181818;stroke-width:1.0;"/><path d="M928.4688,181.6394 Q927.8906,181.9363 927.25,182.0769 Q926.6094,182.2331 925.9063,182.2331 Q923.4063,182.2331 922.0781,180.5925 Q920.7656,178.9363 920.7656,175.8113 Q920.7656,172.6863 922.0781,171.03 Q923.4063,169.3738 925.9063,169.3738 Q926.6094,169.3738 927.25,169.53 Q927.9063,169.6863 928.4688,169.9831 L928.4688,172.7019 Q927.8438,172.1238 927.25,171.8581 Q926.6563,171.5769 926.0313,171.5769 Q924.6875,171.5769 924,172.655 Q923.3125,173.7175 923.3125,175.8113 Q923.3125,177.905 924,178.9831 Q924.6875,180.0456 926.0313,180.0456 Q926.6563,180.0456 927.25,179.78 Q927.8438,179.4988 928.4688,178.9206 L928.4688,181.6394 Z " fill="#000000"/><a href="https://bo4e.github.io/BO4E-python/v202401.7.0/api/bo4e.com.html#bo4e.com.com.COM" target="_top" title="https://bo4e.github.io/BO4E-python/v202401.7.0/api/bo4e.com.html#bo4e.com.com.COM" xlink:actuate="onRequest" xlink:href="https://bo4e.github.io/BO4E-python/v202401.7.0/api/bo4e.com.html#bo4e.com.com.COM" xlink:show="new" xlink:title="https://bo4e.github.io/BO4E-python/v202401.7.0/api/bo4e.com.html#bo4e.com.com.COM" xlink:type="simple"><text fill="#0000FF" font-family="sans-serif" font-size="14" lengthAdjust="spacing" text-decoration="underline" textLength="33" x="959" y="175.0251">COM</text></a><text fill="#000000" font-family="sans-serif" font-size="10" lengthAdjust="spacing" textLength="72" x="939.5" y="187.6091">bo4e.com.com</text></g><!--class Betrag--><g id="elem_Betrag"><rect codeLine="15" fill="#F1F1F1" height="37.9375" id="Betrag" rx="2.5" ry="2.5" style="stroke:#181818;stroke-width:0.5;" width="115" x="905" y="230.03"/><ellipse cx="920" cy="248.9988" fill="#ADD1B2" rx="11" ry="11" style="stroke:#181818;stroke-width:1.0;"/><path d="M922.9688,254.6394 Q922.3906,254.9363 921.75,255.0769 Q921.1094,255.2331 920.4063,255.2331 Q917.9063,255.2331 916.5781,253.5925 Q915.2656,251.9363 915.2656,248.8113 Q915.2656,245.6863 916.5781,244.03 Q917.9063,242.3738 920.4063,242.3738 Q921.1094,242.3738 921.75,242.53 Q922.4063,242.6863 922.9688,242.9831 L922.9688,245.7019 Q922.3438,245.1238 921.75,244.8581 Q921.1563,244.5769 920.5313,244.5769 Q919.1875,244.5769 918.5,245.655 Q917.8125,246.7175 917.8125,248.8113 Q917.8125,250.905 918.5,251.9831 Q919.1875,253.0456 920.5313,253.0456 Q921.1563,253.0456 921.75,252.78 Q922.3438,252.4988 922.9688,251.9206 L922.9688,254.6394 Z " fill="#000000"/><a href="https://bo4e.github.io/BO4E-python/v202401.7.0/api/bo4e.com.html#bo4e.com.betrag.Betrag" target="_top" title="https://bo4e.github.io/BO4E-python/v202401.7.0/api/bo4e.com.html#bo4e.com.betrag.Betrag" xlink:actuate="onRequest" xlink:href="https://bo4e.github.io/BO4E-python/v202401.7.0/api/bo4e.com.html#bo4e.com.betrag.Betrag" xlink:show="new" xlink:title="https://bo4e.github.io/BO4E-python/v202401.7.0/api/bo4e.com.html#bo4e.com.betrag.Betrag" xlink:type="simple"><text fill="#0000FF" font-family="sans-serif" font-size="14" lengthAdjust="spacing" text-decoration="underline" textLength="46" x="952.5" y="248.0251">Betrag</text></a><text fill="#000000" font-family="sans-serif" font-size="10" lengthAdjust="spacing" textLength="83" x="934" y="260.6091">bo4e.com.betrag</text></g><!--class Menge--><g id="elem_Menge"><rect codeLine="16" fill="#F1F1F1" height="37.9375" id="Menge" rx="2.5" ry="2.5" style="stroke:#181818;stroke-width:0.5;" width="117" x="904" y="303.03"/><ellipse cx="919" cy="321.9988" fill="#ADD1B2" rx="11" ry="11" style="stroke:#181818;stroke-width:1.0;"/><path d="M921.9688,327.6394 Q921.3906,327.9363 920.75,328.0769 Q920.1094,328.2331 919.4063,328.2331 Q916.9063,328.2331 915.5781,326.5925 Q914.2656,324.9363 914.2656,321.8113 Q914.2656,318.6863 915.5781,317.03 Q916.9063,315.3738 919.4063,315.3738 Q920.1094,315.3738 920.75,315.53 Q921.4063,315.6863 921.9688,315.9831 L921.9688,318.7019 Q921.3438,318.1238 920.75,317.8581 Q920.1563,317.5769 919.5313,317.5769 Q918.1875,317.5769 917.5,318.655 Q916.8125,319.7175 916.8125,321.8113 Q916.8125,323.905 917.5,324.9831 Q918.1875,326.0456 919.5313,326.0456 Q920.1563,326.0456 920.75,325.78 Q921.3438,325.4988 921.9688,324.9206 L921.9688,327.6394 Z " fill="#000000"/><a href="https://bo4e.github.io/BO4E-python/v202401.7.0/api/bo4e.com.html#bo4e.com.menge.Menge" target="_top" title="https://bo4e.github.io/BO4E-python/v202401.7.0/api/bo4e.com.html#bo4e.com.menge.Menge" xlink:actuate="onRequest" xlink:href="https://bo4e.github.io/BO4E-python/v202401.7.0/api/bo4e.com.html#bo4e.com.menge.Menge" xlink:show="new" xlink:title="https://bo4e.github.io/BO4E-python/v202401.7.0/api/bo4e.com.html#bo4e.com.menge.Menge" xlink:type="simple"><text fill="#0000FF" font-family="sans-serif" font-size="14" lengthAdjust="spacing" text-decoration="underline" textLength="48" x="951.5" y="321.0251">Menge</text></a><text fill="#000000" font-family="sans-serif" font-size="10" lengthAdjust="spacing" textLength="85" x="933" y="333.6091">bo4e.com.menge</text></g><!--class Kostenposition--><g id="elem_Kostenposition"><rect codeLine="3" fill="#F1F1F1" height="143.7188" id="Kostenposition" rx="2.5" ry="2.5" style="stroke:#181818;stroke-width:0.5;" width="673" x="7" y="144.14"/><ellipse cx="279.25" cy="163.1088" fill="#ADD1B2" rx="11" ry="11" style="stroke:#181818;stroke-width:1.0;"/><path d="M282.2188,168.7494 Q281.6406,169.0463 281,169.1869 Q280.3594,169.3431 279.6563,169.3431 Q277.1563,169.3431 275.8281,167.7025 Q274.5156,166.0463 274.5156,162.9213 Q274.5156,159.7963 275.8281,158.14 Q277.1563,156.4838 279.6563,156.4838 Q280.3594,156.4838 281,156.64 Q281.6563,156.7963 282.2188,157.0931 L282.2188,159.8119 Q281.5938,159.2338 281,158.9681 Q280.4063,158.6869 279.7813,158.6869 Q278.4375,158.6869 277.75,159.765 Q277.0625,160.8275 277.0625,162.9213 Q277.0625,165.015 277.75,166.0931 Q278.4375,167.1556 279.7813,167.1556 Q280.4063,167.1556 281,166.89 Q281.5938,166.6088 282.2188,166.0306 L282.2188,168.7494 Z " fill="#000000"/><a href="https://bo4e.github.io/BO4E-python/v202401.7.0/api/bo4e.com.html#bo4e.com.kostenposition.Kostenposition" target="_top" title="https://bo4e.github.io/BO4E-python/v202401.7.0/api/bo4e.com.html#bo4e.com.kostenposition.Kostenposition" xlink:actuate="onRequest" xlink:href="https://bo4e.github.io/BO4E-python/v202401.7.0/api/bo4e.com.html#bo4e.com.kostenposition.Kostenposition" xlink:show="new" xlink:title="https://bo4e.github.io/BO4E-python/v202401.7.0/api/bo4e.com.html#bo4e.com.kostenposition.Kostenposition" xlink:type="simple"><text fill="#0000FF" font-family="sans-serif" font-size="14" lengthAdjust="spacing" text-decoration="underline" textLength="104" x="307.75" y="162.1351">Kostenposition</text></a><text fill="#000000" font-family="sans-serif" font-size="10" lengthAdjust="spacing" textLength="120" x="299.75" y="174.7191">bo4e.com.kostenposition</text><line style="stroke:#181818;stroke-width:0.5;" x1="8" x2="679" y1="182.0775" y2="182.0775"/><text fill="#000000" font-family="sans-serif" font-size="14" lengthAdjust="spacing" textLength="661" x="13" y="199.0726">_typ : Literal[&lt;ComTyp.KOSTENPOSITION: 'KOSTENPOSITION'&gt;] [1] = ComTyp.KOSTENPOSITION</text><text fill="#000000" font-family="sans-serif" font-size="14" lengthAdjust="spacing" textLength="216" x="13" y="215.3695">positionstitel : str [0..1] = None</text><text fill="#000000" font-family="sans-serif" font-size="14" lengthAdjust="spacing" textLength="260" x="13" y="231.6664">artikelbezeichnung : str [0..1] = None</text><text fill="#000000" font-family="sans-serif" font-size="14" lengthAdjust="spacing" textLength="240" x="13" y="247.9632">von : AwareDatetime [0..1] = None</text><text fill="#000000" font-family="sans-serif" font-size="14" lengthAdjust="spacing" textLength="235" x="13" y="264.2601">bis : AwareDatetime [0..1] = None</text><text fill="#000000" font-family="sans-serif" font-size="14" lengthAdjust="spacing" textLength="206" x="13" y="280.557">artikeldetail : str [0..1] = None</text></g><!--link Kostenposition to COM--><g id="link_Kostenposition_COM"><path codeLine="19" d="M680.08,194.24 C770.25,188.4 839.3378,183.9264 892.1578,180.4964 " fill="none" id="Kostenposition-to-COM" style="stroke:#181818;stroke-width:1.0;"/><polygon fill="none" points="910.12,179.33,891.769,174.509,892.5466,186.4838,910.12,179.33" style="stroke:#181818;stroke-width:1.0;"/></g><!--link Kostenposition to Betrag--><g id="link_Kostenposition_Betrag"><path codeLine="20" d="M680.08,233.95 C767.14,238.6 839.307,242.4708 892.547,245.3108 " fill="none" id="Kostenposition-to-Betrag" style="stroke:#181818;stroke-width:1.0;"/><polygon fill="#181818" points="904.53,245.95,898.7516,241.6361,892.547,245.3108,898.3254,249.6247,904.53,245.95" style="stroke:#181818;stroke-width:1.0;"/><text fill="#000000" font-family="sans-serif" font-size="13" lengthAdjust="spacing" textLength="136" x="711" y="232.0669">betragKostenposition</text><text fill="#000000" font-family="sans-serif" font-size="13" lengthAdjust="spacing" textLength="24" x="872.877" y="258.511">0..1</text></g><!--link Kostenposition to Preis--><g id="link_Kostenposition_Preis"><path codeLine="21" d="M680.08,154.54 C769.68,138.13 844.4063,124.4417 897.3163,114.7517 " fill="none" id="Kostenposition-to-Preis" style="stroke:#181818;stroke-width:1.0;"/><polygon fill="#181818" points="909.12,112.59,902.4976,109.7363,897.3163,114.7517,903.9387,117.6054,909.12,112.59" style="stroke:#181818;stroke-width:1.0;"/><text fill="#000000" font-family="sans-serif" font-size="13" lengthAdjust="spacing" textLength="68" x="745" y="121.0669">einzelpreis</text><text fill="#000000" font-family="sans-serif" font-size="13" lengthAdjust="spacing" textLength="24" x="877.5604" y="126.6407">0..1</text></g><!--link Kostenposition to Menge--><g id="link_Kostenposition_Menge"><path codeLine="22" d="M680.08,273.65 C766.71,288.54 838.6431,300.8989 891.9231,310.0489 " fill="none" id="Kostenposition-to-Menge" style="stroke:#181818;stroke-width:1.0;"/><polygon fill="#181818" points="903.75,312.08,898.5136,307.1222,891.9231,310.0489,897.1595,315.0067,903.75,312.08" style="stroke:#181818;stroke-width:1.0;"/><text fill="#000000" font-family="sans-serif" font-size="13" lengthAdjust="spacing" textLength="45" x="756.5" y="277.0669">menge</text><text fill="#000000" font-family="sans-serif" font-size="13" lengthAdjust="spacing" textLength="24" x="872.0117" y="323.8896">0..1</text></g><!--link Kostenposition to Menge--><g id="link_Kostenposition_Menge"><path codeLine="23" d="M544.58,288.34 C597.65,304.32 655.39,318.89 710,327 C770.67,336.01 786.68,328.35 848,327 C866.14,326.6 873.912,326.3764 891.792,325.5764 " fill="none" id="Kostenposition-to-Menge-1" style="stroke:#181818;stroke-width:1.0;"/><polygon fill="#181818" points="903.78,325.04,897.6072,321.3122,891.792,325.5764,897.9648,329.3042,903.78,325.04" style="stroke:#181818;stroke-width:1.0;"/><text fill="#000000" font-family="sans-serif" font-size="13" lengthAdjust="spacing" textLength="68" x="745" y="323.0669">zeitmenge</text><text fill="#000000" font-family="sans-serif" font-size="13" lengthAdjust="spacing" textLength="24" x="872.045" y="338.2671">0..1</text></g><!--SRC=[jPHHQzim4CUVeqznf0-5GMIdX6sOBj1cUIXTuqBpvfeXErTRr9QCT6r9rdttoNBJainZ7ImFEd7YTtT_dS-gy8w0D1XPb0GhQJ0dgHLZUIMiXM6Ib4IDZO8WqnFaXQJo8UDI1-VnP3vgrbHg5JoUX2UJSCm_yJ0GZUpGNDUyfBewUlNkjILKZRQoBS4lTrpOTTFqLfrQkS5e74x_a648mkw5mGys-4xh1YBu9WcDg9BJcQwNwuPVnZVB-U8wlhbONiIB28vt3uwdAIJZ5Bv0Byy6snAMNEBA5R1a80avzq4BhP0DX25vZrM66vHvgHvKqSyzEgKHd3q9Wry58SaQzv5CshyXBzLMI4Bs2_h9c18rsaRa-3- -9MozDFNDtxfmD0_FFd-SjUq_mE0q1gNbrwq5R_kdmsDUbuSE8gLTi_WAtEeNuPQNu8232CYGZ2ZukT-Ws_gLTAGNqs47qLEZAf1VjHQyxHVZCQ_5G-raxZy0ez7pz7MYsYR_HZZa0mpR2H- -WI-TYA2xxsx8-r9qanK1IhN1oe_H-mAxQqVWR_Tl8Uw5e2wCbNA5BaMTeR7Cble9zZFTIVURsry0]--></g></svg>