<?xml version="1.0" encoding="us-ascii" standalone="no"?><svg xmlns="http://www.w3.org/2000/svg" xmlns:xlink="http://www.w3.org/1999/xlink" contentStyleType="text/css" height="428px" preserveAspectRatio="none" style="width:961px;height:428px;background:#FFFFFF;" version="1.1" viewBox="0 0 961 428" width="961px" zoomAndPan="magnify"><defs/><g><!--cluster bo4e--><g id="cluster_bo4e"><path d="M714.5,6 L755.5,6 A3.75,3.75 0 0 1 758,8.5 L765,28.2969 L951.5,28.2969 A2.5,2.5 0 0 1 954,30.7969 L954,418.5 A2.5,2.5 0 0 1 951.5,421 L714.5,421 A2.5,2.5 0 0 1 712,418.5 L712,8.5 A2.5,2.5 0 0 1 714.5,6 " fill="none" style="stroke:#000000;stroke-width:1.5;"/><line style="stroke:#000000;stroke-width:1.5;" x1="712" x2="765" y1="28.2969" y2="28.2969"/><text fill="#000000" font-family="sans-serif" font-size="14" font-weight="bold" lengthAdjust="spacing" textLength="40" x="716" y="20.9951">bo4e</text></g><!--cluster com--><g id="cluster_com"><path d="M738.5,49 L817.5,49 A3.75,3.75 0 0 1 820,51.5 L827,71.2969 L927.5,71.2969 A2.5,2.5 0 0 1 930,73.7969 L930,208.5 A2.5,2.5 0 0 1 927.5,211 L738.5,211 A2.5,2.5 0 0 1 736,208.5 L736,51.5 A2.5,2.5 0 0 1 738.5,49 " fill="#E0A86C" style="stroke:#000000;stroke-width:1.5;"/><line style="stroke:#000000;stroke-width:1.5;" x1="736" x2="827" y1="71.2969" y2="71.2969"/><a href="https://bo4e.github.io/BO4E-python/v202401.7.0/api/bo4e.com.html" target="_top" title="https://bo4e.github.io/BO4E-python/v202401.7.0/api/bo4e.com.html" xlink:actuate="onRequest" xlink:href="https://bo4e.github.io/BO4E-python/v202401.7.0/api/bo4e.com.html" xlink:show="new" xlink:title="https://bo4e.github.io/BO4E-python/v202401.7.0/api/bo4e.com.html" xlink:type="simple"><text fill="#0000FF" font-family="sans-serif" font-size="14" font-weight="bold" lengthAdjust="spacing" text-decoration="underline" textLength="78" x="740" y="63.9951">bo4e.com</text></a></g><!--cluster enum--><g id="cluster_enum"><path d="M738.5,235 L828.5,235 A3.75,3.75 0 0 1 831,237.5 L838,257.2969 L927.5,257.2969 A2.5,2.5 0 0 1 930,259.7969 L930,394.5 A2.5,2.5 0 0 1 927.5,397 L738.5,397 A2.5,2.5 0 0 1 736,394.5 L736,237.5 A2.5,2.5 0 0 1 738.5,235 " fill="#D1C358" style="stroke:#000000;stroke-width:1.5;"/><line style="stroke:#000000;stroke-width:1.5;" x1="736" x2="838" y1="257.2969" y2="257.2969"/><a href="https://bo4e.github.io/BO4E-python/v202401.7.0/api/bo4e.enum.html" target="_top" title="https://bo4e.github.io/BO4E-python/v202401.7.0/api/bo4e.enum.html" xlink:actuate="onRequest" xlink:href="https://bo4e.github.io/BO4E-python/v202401.7.0/api/bo4e.enum.html" xlink:show="new" xlink:title="https://bo4e.github.io/BO4E-python/v202401.7.0/api/bo4e.enum.html" xlink:type="simple"><text fill="#0000FF" font-family="sans-serif" font-size="14" font-weight="bold" lengthAdjust="spacing" text-decoration="underline" textLength="89" x="740" y="249.9951">bo4e.enum</text></a></g><!--class COM--><g id="elem_COM"><rect codeLine="12" fill="#F1F1F1" height="37.9375" id="COM" rx="2.5" ry="2.5" style="stroke:#181818;stroke-width:0.5;" width="104" x="781" y="84.03"/><ellipse cx="796" cy="102.9987" fill="#ADD1B2" rx="11" ry="11" style="stroke:#181818;stroke-width:1.0;"/><path d="M798.9688,108.6394 Q798.3906,108.9362 797.75,109.0769 Q797.1094,109.2331 796.4063,109.2331 Q793.9063,109.2331 792.5781,107.5925 Q791.2656,105.9362 791.2656,102.8112 Q791.2656,99.6862 792.5781,98.03 Q793.9063,96.3737 796.4063,96.3737 Q797.1094,96.3737 797.75,96.53 Q798.4063,96.6862 798.9688,96.9831 L798.9688,99.7019 Q798.3438,99.1237 797.75,98.8581 Q797.1563,98.5769 796.5313,98.5769 Q795.1875,98.5769 794.5,99.655 Q793.8125,100.7175 793.8125,102.8112 Q793.8125,104.905 794.5,105.9831 Q795.1875,107.0456 796.5313,107.0456 Q797.1563,107.0456 797.75,106.78 Q798.3438,106.4987 798.9688,105.9206 L798.9688,108.6394 Z " fill="#000000"/><a href="https://bo4e.github.io/BO4E-python/v202401.7.0/api/bo4e.com.html#bo4e.com.com.COM" target="_top" title="https://bo4e.github.io/BO4E-python/v202401.7.0/api/bo4e.com.html#bo4e.com.com.COM" xlink:actuate="onRequest" xlink:href="https://bo4e.github.io/BO4E-python/v202401.7.0/api/bo4e.com.html#bo4e.com.com.COM" xlink:show="new" xlink:title="https://bo4e.github.io/BO4E-python/v202401.7.0/api/bo4e.com.html#bo4e.com.com.COM" xlink:type="simple"><text fill="#0000FF" font-family="sans-serif" font-size="14" lengthAdjust="spacing" text-decoration="underline" textLength="33" x="829.5" y="102.0251">COM</text></a><text fill="#000000" font-family="sans-serif" font-size="10" lengthAdjust="spacing" textLength="72" x="810" y="114.6091">bo4e.com.com</text></g><!--class Tagesparameter--><g id="elem_Tagesparameter"><rect codeLine="13" fill="#F1F1F1" height="37.9375" id="Tagesparameter" rx="2.5" ry="2.5" style="stroke:#181818;stroke-width:0.5;" width="162" x="752" y="157.03"/><ellipse cx="767" cy="175.9987" fill="#ADD1B2" rx="11" ry="11" style="stroke:#181818;stroke-width:1.0;"/><path d="M769.9688,181.6394 Q769.3906,181.9362 768.75,182.0769 Q768.1094,182.2331 767.4063,182.2331 Q764.9063,182.2331 763.5781,180.5925 Q762.2656,178.9362 762.2656,175.8112 Q762.2656,172.6862 763.5781,171.03 Q764.9063,169.3737 767.4063,169.3737 Q768.1094,169.3737 768.75,169.53 Q769.4063,169.6862 769.9688,169.9831 L769.9688,172.7019 Q769.3438,172.1237 768.75,171.8581 Q768.1563,171.5769 767.5313,171.5769 Q766.1875,171.5769 765.5,172.655 Q764.8125,173.7175 764.8125,175.8112 Q764.8125,177.905 765.5,178.9831 Q766.1875,180.0456 767.5313,180.0456 Q768.1563,180.0456 768.75,179.78 Q769.3438,179.4987 769.9688,178.9206 L769.9688,181.6394 Z " fill="#000000"/><a href="https://bo4e.github.io/BO4E-python/v202401.7.0/api/bo4e.com.html#bo4e.com.tagesparameter.Tagesparameter" target="_top" title="https://bo4e.github.io/BO4E-python/v202401.7.0/api/bo4e.com.html#bo4e.com.tagesparameter.Tagesparameter" xlink:actuate="onRequest" xlink:href="https://bo4e.github.io/BO4E-python/v202401.7.0/api/bo4e.com.html#bo4e.com.tagesparameter.Tagesparameter" xlink:show="new" xlink:title="https://bo4e.github.io/BO4E-python/v202401.7.0/api/bo4e.com.html#bo4e.com.tagesparameter.Tagesparameter" xlink:type="simple"><text fill="#0000FF" font-family="sans-serif" font-size="14" lengthAdjust="spacing" text-decoration="underline" textLength="114" x="789" y="175.0251">Tagesparameter</text></a><text fill="#000000" font-family="sans-serif" font-size="10" lengthAdjust="spacing" textLength="130" x="781" y="187.6091">bo4e.com.tagesparameter</text></g><!--class Profilverfahren--><g id="elem_Profilverfahren"><rect codeLine="16" fill="#F1F1F1" height="37.9375" id="Profilverfahren" rx="2.5" ry="2.5" style="stroke:#181818;stroke-width:0.5;" width="162" x="752" y="270.03"/><ellipse cx="767" cy="288.9988" fill="#ADD1B2" rx="11" ry="11" style="stroke:#181818;stroke-width:1.0;"/><path d="M769.9688,294.6394 Q769.3906,294.9363 768.75,295.0769 Q768.1094,295.2331 767.4063,295.2331 Q764.9063,295.2331 763.5781,293.5925 Q762.2656,291.9363 762.2656,288.8113 Q762.2656,285.6863 763.5781,284.03 Q764.9063,282.3738 767.4063,282.3738 Q768.1094,282.3738 768.75,282.53 Q769.4063,282.6863 769.9688,282.9831 L769.9688,285.7019 Q769.3438,285.1238 768.75,284.8581 Q768.1563,284.5769 767.5313,284.5769 Q766.1875,284.5769 765.5,285.655 Q764.8125,286.7175 764.8125,288.8113 Q764.8125,290.905 765.5,291.9831 Q766.1875,293.0456 767.5313,293.0456 Q768.1563,293.0456 768.75,292.78 Q769.3438,292.4988 769.9688,291.9206 L769.9688,294.6394 Z " fill="#000000"/><a href="https://bo4e.github.io/BO4E-python/v202401.7.0/api/bo4e.enum.html#bo4e.enum.profilverfahren.Profilverfahren" target="_top" title="https://bo4e.github.io/BO4E-python/v202401.7.0/api/bo4e.enum.html#bo4e.enum.profilverfahren.Profilverfahren" xlink:actuate="onRequest" xlink:href="https://bo4e.github.io/BO4E-python/v202401.7.0/api/bo4e.enum.html#bo4e.enum.profilverfahren.Profilverfahren" xlink:show="new" xlink:title="https://bo4e.github.io/BO4E-python/v202401.7.0/api/bo4e.enum.html#bo4e.enum.profilverfahren.Profilverfahren" xlink:type="simple"><text fill="#0000FF" font-family="sans-serif" font-size="14" lengthAdjust="spacing" text-decoration="underline" textLength="98" x="797" y="288.0251">Profilverfahren</text></a><text fill="#000000" font-family="sans-serif" font-size="10" lengthAdjust="spacing" textLength="130" x="781" y="300.6091">bo4e.enum.profilverfahren</text></g><!--class Profilart--><g id="elem_Profilart"><rect codeLine="17" fill="#F1F1F1" height="37.9375" id="Profilart" rx="2.5" ry="2.5" style="stroke:#181818;stroke-width:0.5;" width="128" x="769" y="343.03"/><ellipse cx="784" cy="361.9988" fill="#ADD1B2" rx="11" ry="11" style="stroke:#181818;stroke-width:1.0;"/><path d="M786.9688,367.6394 Q786.3906,367.9363 785.75,368.0769 Q785.1094,368.2331 784.4063,368.2331 Q781.9063,368.2331 780.5781,366.5925 Q779.2656,364.9363 779.2656,361.8113 Q779.2656,358.6863 780.5781,357.03 Q781.9063,355.3738 784.4063,355.3738 Q785.1094,355.3738 785.75,355.53 Q786.4063,355.6863 786.9688,355.9831 L786.9688,358.7019 Q786.3438,358.1238 785.75,357.8581 Q785.1563,357.5769 784.5313,357.5769 Q783.1875,357.5769 782.5,358.655 Q781.8125,359.7175 781.8125,361.8113 Q781.8125,363.905 782.5,364.9831 Q783.1875,366.0456 784.5313,366.0456 Q785.1563,366.0456 785.75,365.78 Q786.3438,365.4988 786.9688,364.9206 L786.9688,367.6394 Z " fill="#000000"/><a href="https://bo4e.github.io/BO4E-python/v202401.7.0/api/bo4e.enum.html#bo4e.enum.profilart.Profilart" target="_top" title="https://bo4e.github.io/BO4E-python/v202401.7.0/api/bo4e.enum.html#bo4e.enum.profilart.Profilart" xlink:actuate="onRequest" xlink:href="https://bo4e.github.io/BO4E-python/v202401.7.0/api/bo4e.enum.html#bo4e.enum.profilart.Profilart" xlink:show="new" xlink:title="https://bo4e.github.io/BO4E-python/v202401.7.0/api/bo4e.enum.html#bo4e.enum.profilart.Profilart" xlink:type="simple"><text fill="#0000FF" font-family="sans-serif" font-size="14" lengthAdjust="spacing" text-decoration="underline" textLength="51" x="820.5" y="361.0251">Profilart</text></a><text fill="#000000" font-family="sans-serif" font-size="10" lengthAdjust="spacing" textLength="96" x="798" y="373.6091">bo4e.enum.profilart</text></g><!--class Lastprofil--><g id="elem_Lastprofil"><rect codeLine="3" fill="#F1F1F1" height="127.4219" id="Lastprofil" rx="2.5" ry="2.5" style="stroke:#181818;stroke-width:0.5;" width="553" x="7" y="183.29"/><ellipse cx="233.25" cy="202.2588" fill="#ADD1B2" rx="11" ry="11" style="stroke:#181818;stroke-width:1.0;"/><path d="M236.2188,207.8994 Q235.6406,208.1963 235,208.3369 Q234.3594,208.4931 233.6563,208.4931 Q231.1563,208.4931 229.8281,206.8525 Q228.5156,205.1963 228.5156,202.0713 Q228.5156,198.9463 229.8281,197.29 Q231.1563,195.6338 233.6563,195.6338 Q234.3594,195.6338 235,195.79 Q235.6563,195.9463 236.2188,196.2431 L236.2188,198.9619 Q235.5938,198.3838 235,198.1181 Q234.4063,197.8369 233.7813,197.8369 Q232.4375,197.8369 231.75,198.915 Q231.0625,199.9775 231.0625,202.0713 Q231.0625,204.165 231.75,205.2431 Q232.4375,206.3056 233.7813,206.3056 Q234.4063,206.3056 235,206.04 Q235.5938,205.7588 236.2188,205.1806 L236.2188,207.8994 Z " fill="#000000"/><a href="https://bo4e.github.io/BO4E-python/v202401.7.0/api/bo4e.com.html#bo4e.com.lastprofil.Lastprofil" target="_top" title="https://bo4e.github.io/BO4E-python/v202401.7.0/api/bo4e.com.html#bo4e.com.lastprofil.Lastprofil" xlink:actuate="onRequest" xlink:href="https://bo4e.github.io/BO4E-python/v202401.7.0/api/bo4e.com.html#bo4e.com.lastprofil.Lastprofil" xlink:show="new" xlink:title="https://bo4e.github.io/BO4E-python/v202401.7.0/api/bo4e.com.html#bo4e.com.lastprofil.Lastprofil" xlink:type="simple"><text fill="#0000FF" font-family="sans-serif" font-size="14" lengthAdjust="spacing" text-decoration="underline" textLength="61" x="269.25" y="201.2851">Lastprofil</text></a><text fill="#000000" font-family="sans-serif" font-size="10" lengthAdjust="spacing" textLength="92" x="253.75" y="213.8691">bo4e.com.lastprofil</text><line style="stroke:#181818;stroke-width:0.5;" x1="8" x2="559" y1="221.2275" y2="221.2275"/><text fill="#000000" font-family="sans-serif" font-size="14" lengthAdjust="spacing" textLength="541" x="13" y="238.2226">_typ : Literal[&lt;ComTyp.LASTPROFIL: 'LASTPROFIL'&gt;] [1] = ComTyp.LASTPROFIL</text><text fill="#000000" font-family="sans-serif" font-size="14" lengthAdjust="spacing" textLength="219" x="13" y="254.5195">bezeichnung : str [0..1] = None</text><text fill="#000000" font-family="sans-serif" font-size="14" lengthAdjust="spacing" textLength="199" x="13" y="270.8164">profilschar : str [0..1] = None</text><text fill="#000000" font-family="sans-serif" font-size="14" lengthAdjust="spacing" textLength="241" x="13" y="287.1132">istEinspeisung : bool [0..1] = None</text><text fill="#000000" font-family="sans-serif" font-size="14" lengthAdjust="spacing" textLength="217" x="13" y="303.4101">herausgeber : str [0..1] = None</text></g><!--link Lastprofil to COM--><g id="link_Lastprofil_COM"><path codeLine="20" d="M528.63,182.79 C623.16,157.93 705.0416,136.3869 763.3116,121.0669 " fill="none" id="Lastprofil-to-COM" style="stroke:#181818;stroke-width:1.0;"/><polygon fill="none" points="780.72,116.49,761.786,115.2641,764.8373,126.8697,780.72,116.49" style="stroke:#181818;stroke-width:1.0;"/></g><!--link Lastprofil to Profilverfahren--><g id="link_Lastprofil_Profilverfahren"><path codeLine="21" d="M560.26,268.15 C630.35,273.53 688.3052,277.9721 739.6652,281.9121 " fill="none" id="Lastprofil-to-Profilverfahren" style="stroke:#181818;stroke-width:1.0;"/><polygon fill="#181818" points="751.63,282.83,745.9535,278.3828,739.6652,281.9121,745.3416,286.3593,751.63,282.83" style="stroke:#181818;stroke-width:1.0;"/><text fill="#000000" font-family="sans-serif" font-size="13" lengthAdjust="spacing" textLength="61" x="612.5" y="267.0669">verfahren</text><text fill="#000000" font-family="sans-serif" font-size="13" lengthAdjust="spacing" textLength="24" x="719.8978" y="295.0126">0..1</text></g><!--link Lastprofil to Tagesparameter--><g id="link_Lastprofil_Tagesparameter"><path codeLine="22" d="M560.26,211.24 C630.35,202.15 688.3696,194.6232 739.7296,187.9632 " fill="none" id="Lastprofil-to-Tagesparameter" style="stroke:#181818;stroke-width:1.0;"/><polygon fill="#181818" points="751.63,186.42,745.1654,183.2248,739.7296,187.9632,746.1942,191.1584,751.63,186.42" style="stroke:#181818;stroke-width:1.0;"/><text fill="#000000" font-family="sans-serif" font-size="13" lengthAdjust="spacing" textLength="104" x="591" y="192.0669">tagesparameter</text><text fill="#000000" font-family="sans-serif" font-size="13" lengthAdjust="spacing" textLength="24" x="719.8978" y="199.9765">0..1</text></g><!--link Lastprofil to Profilart--><g id="link_Lastprofil_Profilart"><path codeLine="23" d="M560.26,304.92 C638.47,321.35 704.7162,335.2634 756.9462,346.2334 " fill="none" id="Lastprofil-to-Profilart" style="stroke:#181818;stroke-width:1.0;"/><polygon fill="#181818" points="768.69,348.7,763.6403,343.5521,756.9462,346.2334,761.9959,351.3813,768.69,348.7" style="stroke:#181818;stroke-width:1.0;"/><text fill="#000000" font-family="sans-serif" font-size="13" lengthAdjust="spacing" textLength="49" x="618.5" y="308.0669">profilart</text><text fill="#000000" font-family="sans-serif" font-size="13" lengthAdjust="spacing" textLength="24" x="736.8205" y="360.1757">0..1</text></g><!--SRC=[jLHDYzim43r7ls983Wk5oCustIvc6zY650ffisnpSqsndOabi2KZALkoRVzx9QVhZyGiFIG7mJmqcdbwRwGSjmQC1CKpPc335QQ6Iq58ciTQmp0CcJ6b3ZmlaLEa6JTibr0klO-hwM9SxWsJmdkwzg-d_eI-fxuNb_oGcig2CbFaenhPYgPKSijpkgn3QC8e-YxkD7_6OEBFUauD8TQjTFX51Z_CleG0bjoWYlFmRYwBzRwao_jlwuV7rQVFom2k6d0rYo2SHF01JlB88C5dv2aJEv7PYjee27rAg-olKY0P7BhgbCMgFu5hi-12byZreKWYPNwSn2pHdSummVugVmWHSO6wZ5CyX_pmWgAeqky5mcZXtz_Up9sA5_3QhVdg2zZLRwjT5H-RS1429iwSYCfgQMU3hZiGkh2VORT2HRPxp7fr5gjGxDfUETWsos4ORIRfstUtPt6hxZTgu66udr1jOwPGq8SkXYDygbXVbUeEHoSloZzMvXzp6q4TlShMxhTuMkIUOFk36ez_p-fduuQwisktty3GFU5XOzU9V04q0hnwshKucjK0kfFut-sT1W7KjoI4yGr2WONzUpJHJFw4TgajntoZ_m80]--></g></svg>