<?xml version="1.0" encoding="us-ascii" standalone="no"?><svg xmlns="http://www.w3.org/2000/svg" xmlns:xlink="http://www.w3.org/1999/xlink" contentStyleType="text/css" height="242px" preserveAspectRatio="none" style="width:1364px;height:242px;background:#FFFFFF;" version="1.1" viewBox="0 0 1364 242" width="1364px" zoomAndPan="magnify"><defs/><g><!--cluster bo4e--><g id="cluster_bo4e"><path d="M1119.5,6 L1160.5,6 A3.75,3.75 0 0 1 1163,8.5 L1170,28.2969 L1354.5,28.2969 A2.5,2.5 0 0 1 1357,30.7969 L1357,232.5 A2.5,2.5 0 0 1 1354.5,235 L1119.5,235 A2.5,2.5 0 0 1 1117,232.5 L1117,8.5 A2.5,2.5 0 0 1 1119.5,6 " fill="none" style="stroke:#000000;stroke-width:1.5;"/><line style="stroke:#000000;stroke-width:1.5;" x1="1117" x2="1170" y1="28.2969" y2="28.2969"/><text fill="#000000" font-family="sans-serif" font-size="14" font-weight="bold" lengthAdjust="spacing" textLength="40" x="1121" y="20.9951">bo4e</text></g><!--cluster com--><g id="cluster_com"><path d="M1143.5,49 L1222.5,49 A3.75,3.75 0 0 1 1225,51.5 L1232,71.2969 L1330.5,71.2969 A2.5,2.5 0 0 1 1333,73.7969 L1333,208.5 A2.5,2.5 0 0 1 1330.5,211 L1143.5,211 A2.5,2.5 0 0 1 1141,208.5 L1141,51.5 A2.5,2.5 0 0 1 1143.5,49 " fill="#E0A86C" style="stroke:#000000;stroke-width:1.5;"/><line style="stroke:#000000;stroke-width:1.5;" x1="1141" x2="1232" y1="71.2969" y2="71.2969"/><a href="https://bo4e.github.io/BO4E-python/v202401.7.0/api/bo4e.com.html" target="_top" title="https://bo4e.github.io/BO4E-python/v202401.7.0/api/bo4e.com.html" xlink:actuate="onRequest" xlink:href="https://bo4e.github.io/BO4E-python/v202401.7.0/api/bo4e.com.html" xlink:show="new" xlink:title="https://bo4e.github.io/BO4E-python/v202401.7.0/api/bo4e.com.html" xlink:type="simple"><text fill="#0000FF" font-family="sans-serif" font-size="14" font-weight="bold" lengthAdjust="spacing" text-decoration="underline" textLength="78" x="1145" y="63.9951">bo4e.com</text></a></g><!--class MarktgebietInfo--><g id="elem_MarktgebietInfo"><rect codeLine="9" fill="#F1F1F1" height="37.9375" id="MarktgebietInfo" rx="2.5" ry="2.5" style="stroke:#181818;stroke-width:0.5;" width="160" x="1157" y="84.03"/><ellipse cx="1172" cy="102.9988" fill="#ADD1B2" rx="11" ry="11" style="stroke:#181818;stroke-width:1.0;"/><path d="M1174.9688,108.6394 Q1174.3906,108.9363 1173.75,109.0769 Q1173.1094,109.2331 1172.4063,109.2331 Q1169.9063,109.2331 1168.5781,107.5925 Q1167.2656,105.9363 1167.2656,102.8113 Q1167.2656,99.6863 1168.5781,98.03 Q1169.9063,96.3738 1172.4063,96.3738 Q1173.1094,96.3738 1173.75,96.53 Q1174.4063,96.6863 1174.9688,96.9831 L1174.9688,99.7019 Q1174.3438,99.1238 1173.75,98.8581 Q1173.1563,98.5769 1172.5313,98.5769 Q1171.1875,98.5769 1170.5,99.655 Q1169.8125,100.7175 1169.8125,102.8113 Q1169.8125,104.905 1170.5,105.9831 Q1171.1875,107.0456 1172.5313,107.0456 Q1173.1563,107.0456 1173.75,106.78 Q1174.3438,106.4988 1174.9688,105.9206 L1174.9688,108.6394 Z " fill="#000000"/><a href="https://bo4e.github.io/BO4E-python/v202401.7.0/api/bo4e.com.html#bo4e.com.marktgebietinfo.MarktgebietInfo" target="_top" title="https://bo4e.github.io/BO4E-python/v202401.7.0/api/bo4e.com.html#bo4e.com.marktgebietinfo.MarktgebietInfo" xlink:actuate="onRequest" xlink:href="https://bo4e.github.io/BO4E-python/v202401.7.0/api/bo4e.com.html#bo4e.com.marktgebietinfo.MarktgebietInfo" xlink:show="new" xlink:title="https://bo4e.github.io/BO4E-python/v202401.7.0/api/bo4e.com.html#bo4e.com.marktgebietinfo.MarktgebietInfo" xlink:type="simple"><text fill="#0000FF" font-family="sans-serif" font-size="14" lengthAdjust="spacing" text-decoration="underline" textLength="107" x="1196.5" y="102.0251">MarktgebietInfo</text></a><text fill="#000000" font-family="sans-serif" font-size="10" lengthAdjust="spacing" textLength="128" x="1186" y="114.6091">bo4e.com.marktgebietinfo</text></g><!--class COM--><g id="elem_COM"><rect codeLine="10" fill="#F1F1F1" height="37.9375" id="COM" rx="2.5" ry="2.5" style="stroke:#181818;stroke-width:0.5;" width="104" x="1185" y="157.03"/><ellipse cx="1200" cy="175.9988" fill="#ADD1B2" rx="11" ry="11" style="stroke:#181818;stroke-width:1.0;"/><path d="M1202.9688,181.6394 Q1202.3906,181.9363 1201.75,182.0769 Q1201.1094,182.2331 1200.4063,182.2331 Q1197.9063,182.2331 1196.5781,180.5925 Q1195.2656,178.9363 1195.2656,175.8113 Q1195.2656,172.6863 1196.5781,171.03 Q1197.9063,169.3738 1200.4063,169.3738 Q1201.1094,169.3738 1201.75,169.53 Q1202.4063,169.6863 1202.9688,169.9831 L1202.9688,172.7019 Q1202.3438,172.1238 1201.75,171.8581 Q1201.1563,171.5769 1200.5313,171.5769 Q1199.1875,171.5769 1198.5,172.655 Q1197.8125,173.7175 1197.8125,175.8113 Q1197.8125,177.905 1198.5,178.9831 Q1199.1875,180.0456 1200.5313,180.0456 Q1201.1563,180.0456 1201.75,179.78 Q1202.3438,179.4988 1202.9688,178.9206 L1202.9688,181.6394 Z " fill="#000000"/><a href="https://bo4e.github.io/BO4E-python/v202401.7.0/api/bo4e.com.html#bo4e.com.com.COM" target="_top" title="https://bo4e.github.io/BO4E-python/v202401.7.0/api/bo4e.com.html#bo4e.com.com.COM" xlink:actuate="onRequest" xlink:href="https://bo4e.github.io/BO4E-python/v202401.7.0/api/bo4e.com.html#bo4e.com.com.COM" xlink:show="new" xlink:title="https://bo4e.github.io/BO4E-python/v202401.7.0/api/bo4e.com.html#bo4e.com.com.COM" xlink:type="simple"><text fill="#0000FF" font-family="sans-serif" font-size="14" lengthAdjust="spacing" text-decoration="underline" textLength="33" x="1233.5" y="175.0251">COM</text></a><text fill="#000000" font-family="sans-serif" font-size="10" lengthAdjust="spacing" textLength="72" x="1214" y="187.6091">bo4e.com.com</text></g><!--class StandorteigenschaftenGas--><g id="elem_StandorteigenschaftenGas"><rect codeLine="3" fill="#F1F1F1" height="78.5313" id="StandorteigenschaftenGas" rx="2.5" ry="2.5" style="stroke:#181818;stroke-width:0.5;" width="976" x="7" y="100.73"/><ellipse cx="398.25" cy="119.6987" fill="#ADD1B2" rx="11" ry="11" style="stroke:#181818;stroke-width:1.0;"/><path d="M401.2188,125.3394 Q400.6406,125.6362 400,125.7769 Q399.3594,125.9331 398.6563,125.9331 Q396.1563,125.9331 394.8281,124.2925 Q393.5156,122.6362 393.5156,119.5112 Q393.5156,116.3862 394.8281,114.73 Q396.1563,113.0737 398.6563,113.0737 Q399.3594,113.0737 400,113.23 Q400.6563,113.3862 401.2188,113.6831 L401.2188,116.4019 Q400.5938,115.8237 400,115.5581 Q399.4063,115.2769 398.7813,115.2769 Q397.4375,115.2769 396.75,116.355 Q396.0625,117.4175 396.0625,119.5112 Q396.0625,121.605 396.75,122.6831 Q397.4375,123.7456 398.7813,123.7456 Q399.4063,123.7456 400,123.48 Q400.5938,123.1987 401.2188,122.6206 L401.2188,125.3394 Z " fill="#000000"/><a href="https://bo4e.github.io/BO4E-python/v202401.7.0/api/bo4e.com.html#bo4e.com.standorteigenschaftengas.StandorteigenschaftenGas" target="_top" title="https://bo4e.github.io/BO4E-python/v202401.7.0/api/bo4e.com.html#bo4e.com.standorteigenschaftengas.StandorteigenschaftenGas" xlink:actuate="onRequest" xlink:href="https://bo4e.github.io/BO4E-python/v202401.7.0/api/bo4e.com.html#bo4e.com.standorteigenschaftengas.StandorteigenschaftenGas" xlink:show="new" xlink:title="https://bo4e.github.io/BO4E-python/v202401.7.0/api/bo4e.com.html#bo4e.com.standorteigenschaftengas.StandorteigenschaftenGas" xlink:type="simple"><text fill="#0000FF" font-family="sans-serif" font-size="14" lengthAdjust="spacing" text-decoration="underline" textLength="185" x="418.75" y="118.7251">StandorteigenschaftenGas</text></a><text fill="#000000" font-family="sans-serif" font-size="10" lengthAdjust="spacing" textLength="177" x="422.75" y="131.3091">bo4e.com.standorteigenschaftengas</text><line style="stroke:#181818;stroke-width:0.5;" x1="8" x2="982" y1="138.6675" y2="138.6675"/><text fill="#000000" font-family="sans-serif" font-size="14" lengthAdjust="spacing" textLength="964" x="13" y="155.6626">_typ : Literal[&lt;ComTyp.STANDORTEIGENSCHAFTENGAS: 'STANDORTEIGENSCHAFTENGAS'&gt;] [1] = ComTyp.STANDORTEIGENSCHAFTENGAS</text><text fill="#000000" font-family="sans-serif" font-size="14" lengthAdjust="spacing" textLength="264" x="13" y="171.9595">netzkontonummern : str [0..*] = None</text></g><!--link StandorteigenschaftenGas to COM--><g id="link_StandorteigenschaftenGas_COM"><path codeLine="13" d="M983.4,163.71 C1065.13,167.69 1120.3412,170.3763 1166.6412,172.6263 " fill="none" id="StandorteigenschaftenGas-to-COM" style="stroke:#181818;stroke-width:1.0;"/><polygon fill="none" points="1184.62,173.5,1166.9324,166.6334,1166.35,178.6192,1184.62,173.5" style="stroke:#181818;stroke-width:1.0;"/></g><!--link StandorteigenschaftenGas to MarktgebietInfo--><g id="link_StandorteigenschaftenGas_MarktgebietInfo"><path codeLine="14" d="M983.4,115.63 C1050.24,112.29 1099.395,109.8295 1144.775,107.5595 " fill="none" id="StandorteigenschaftenGas-to-MarktgebietInfo" style="stroke:#181818;stroke-width:1.0;"/><polygon fill="#181818" points="1156.76,106.96,1150.5677,103.2648,1144.775,107.5595,1150.9673,111.2548,1156.76,106.96" style="stroke:#181818;stroke-width:1.0;"/><text fill="#000000" font-family="sans-serif" font-size="13" lengthAdjust="spacing" textLength="86" x="1014" y="107.0669">marktgebiete</text><text fill="#000000" font-family="sans-serif" font-size="13" lengthAdjust="spacing" textLength="23" x="1125.8761" y="120.0176">0..*</text></g><!--SRC=[jLB1Ji9053oxN_621nCJjiKGDGsI85OqaP88jzgOfJpQZTtTfllKWFhljXZ0492B7DvXycPd9pClmoa16IXaaX9CP84nIQCPYpDXBTJ2C2NAhUSuOzD4daXANyTS6kTwqFJh-OnIevstC_UiwJRu1NSTaSiVQcmKJqbbnojaIUY9AGXbWjh6gPWIwaHOFjosw0aBknPHzAHRLixHQxZjlVer-4CAFjZHCyroyE114XOY2rjTeqQpd0z7dU1cy3Zoxtj-CEpUTMv7Vj3h33qusRKwQKSGDYAuWZqQx4WZpL-C9gDVbS92bmOi5H2wd9zM0e7HoBuOqqAXpKMC_r46B54KBL9PGZZstSxbURTAum3DAr6yK89ZYIJrrF3-6j-N63RmzdetH1R-DnuUn7mrtK4Vojbkh9o5cP9G5RRxdElrp_Ogyahp3sv9FeLQTGorzPFDt3pu5Geobie9Wa8rni8ocvftsFt1L68siTy0]--></g></svg>