<?xml version="1.0" encoding="us-ascii" standalone="no"?><svg xmlns="http://www.w3.org/2000/svg" xmlns:xlink="http://www.w3.org/1999/xlink" contentStyleType="text/css" height="242px" preserveAspectRatio="none" style="width:1326px;height:242px;background:#FFFFFF;" version="1.1" viewBox="0 0 1326 242" width="1326px" zoomAndPan="magnify"><defs/><g><!--cluster bo4e--><g id="cluster_bo4e"><path d="M1054.5,6 L1095.5,6 A3.75,3.75 0 0 1 1098,8.5 L1105,28.2969 L1316.5,28.2969 A2.5,2.5 0 0 1 1319,30.7969 L1319,232.5 A2.5,2.5 0 0 1 1316.5,235 L1054.5,235 A2.5,2.5 0 0 1 1052,232.5 L1052,8.5 A2.5,2.5 0 0 1 1054.5,6 " fill="none" style="stroke:#000000;stroke-width:1.5;"/><line style="stroke:#000000;stroke-width:1.5;" x1="1052" x2="1105" y1="28.2969" y2="28.2969"/><text fill="#000000" font-family="sans-serif" font-size="14" font-weight="bold" lengthAdjust="spacing" textLength="40" x="1056" y="20.9951">bo4e</text></g><!--cluster com--><g id="cluster_com"><path d="M1078.5,49 L1157.5,49 A3.75,3.75 0 0 1 1160,51.5 L1167,71.2969 L1292.5,71.2969 A2.5,2.5 0 0 1 1295,73.7969 L1295,208.5 A2.5,2.5 0 0 1 1292.5,211 L1078.5,211 A2.5,2.5 0 0 1 1076,208.5 L1076,51.5 A2.5,2.5 0 0 1 1078.5,49 " fill="#E0A86C" style="stroke:#000000;stroke-width:1.5;"/><line style="stroke:#000000;stroke-width:1.5;" x1="1076" x2="1167" y1="71.2969" y2="71.2969"/><a href="https://bo4e.github.io/BO4E-python/v202401.7.0/api/bo4e.com.html" target="_top" title="https://bo4e.github.io/BO4E-python/v202401.7.0/api/bo4e.com.html" xlink:actuate="onRequest" xlink:href="https://bo4e.github.io/BO4E-python/v202401.7.0/api/bo4e.com.html" xlink:show="new" xlink:title="https://bo4e.github.io/BO4E-python/v202401.7.0/api/bo4e.com.html" xlink:type="simple"><text fill="#0000FF" font-family="sans-serif" font-size="14" font-weight="bold" lengthAdjust="spacing" text-decoration="underline" textLength="78" x="1080" y="63.9951">bo4e.com</text></a></g><!--class TarifpreisstaffelProOrt--><g id="elem_TarifpreisstaffelProOrt"><rect codeLine="11" fill="#F1F1F1" height="37.9375" id="TarifpreisstaffelProOrt" rx="2.5" ry="2.5" style="stroke:#181818;stroke-width:0.5;" width="187" x="1092" y="84.03"/><ellipse cx="1107" cy="102.9988" fill="#ADD1B2" rx="11" ry="11" style="stroke:#181818;stroke-width:1.0;"/><path d="M1109.9688,108.6394 Q1109.3906,108.9363 1108.75,109.0769 Q1108.1094,109.2331 1107.4063,109.2331 Q1104.9063,109.2331 1103.5781,107.5925 Q1102.2656,105.9363 1102.2656,102.8113 Q1102.2656,99.6863 1103.5781,98.03 Q1104.9063,96.3738 1107.4063,96.3738 Q1108.1094,96.3738 1108.75,96.53 Q1109.4063,96.6863 1109.9688,96.9831 L1109.9688,99.7019 Q1109.3438,99.1238 1108.75,98.8581 Q1108.1563,98.5769 1107.5313,98.5769 Q1106.1875,98.5769 1105.5,99.655 Q1104.8125,100.7175 1104.8125,102.8113 Q1104.8125,104.905 1105.5,105.9831 Q1106.1875,107.0456 1107.5313,107.0456 Q1108.1563,107.0456 1108.75,106.78 Q1109.3438,106.4988 1109.9688,105.9206 L1109.9688,108.6394 Z " fill="#000000"/><a href="https://bo4e.github.io/BO4E-python/v202401.7.0/api/bo4e.com.html#bo4e.com.tarifpreisstaffelproort.TarifpreisstaffelProOrt" target="_top" title="https://bo4e.github.io/BO4E-python/v202401.7.0/api/bo4e.com.html#bo4e.com.tarifpreisstaffelproort.TarifpreisstaffelProOrt" xlink:actuate="onRequest" xlink:href="https://bo4e.github.io/BO4E-python/v202401.7.0/api/bo4e.com.html#bo4e.com.tarifpreisstaffelproort.TarifpreisstaffelProOrt" xlink:show="new" xlink:title="https://bo4e.github.io/BO4E-python/v202401.7.0/api/bo4e.com.html#bo4e.com.tarifpreisstaffelproort.TarifpreisstaffelProOrt" xlink:type="simple"><text fill="#0000FF" font-family="sans-serif" font-size="14" lengthAdjust="spacing" text-decoration="underline" textLength="148" x="1124.5" y="102.0251">TarifpreisstaffelProOrt</text></a><text fill="#000000" font-family="sans-serif" font-size="10" lengthAdjust="spacing" textLength="155" x="1121" y="114.6091">bo4e.com.tarifpreisstaffelproort</text></g><!--class COM--><g id="elem_COM"><rect codeLine="12" fill="#F1F1F1" height="37.9375" id="COM" rx="2.5" ry="2.5" style="stroke:#181818;stroke-width:0.5;" width="104" x="1133.5" y="157.03"/><ellipse cx="1148.5" cy="175.9988" fill="#ADD1B2" rx="11" ry="11" style="stroke:#181818;stroke-width:1.0;"/><path d="M1151.4688,181.6394 Q1150.8906,181.9363 1150.25,182.0769 Q1149.6094,182.2331 1148.9063,182.2331 Q1146.4063,182.2331 1145.0781,180.5925 Q1143.7656,178.9363 1143.7656,175.8113 Q1143.7656,172.6863 1145.0781,171.03 Q1146.4063,169.3738 1148.9063,169.3738 Q1149.6094,169.3738 1150.25,169.53 Q1150.9063,169.6863 1151.4688,169.9831 L1151.4688,172.7019 Q1150.8438,172.1238 1150.25,171.8581 Q1149.6563,171.5769 1149.0313,171.5769 Q1147.6875,171.5769 1147,172.655 Q1146.3125,173.7175 1146.3125,175.8113 Q1146.3125,177.905 1147,178.9831 Q1147.6875,180.0456 1149.0313,180.0456 Q1149.6563,180.0456 1150.25,179.78 Q1150.8438,179.4988 1151.4688,178.9206 L1151.4688,181.6394 Z " fill="#000000"/><a href="https://bo4e.github.io/BO4E-python/v202401.7.0/api/bo4e.com.html#bo4e.com.com.COM" target="_top" title="https://bo4e.github.io/BO4E-python/v202401.7.0/api/bo4e.com.html#bo4e.com.com.COM" xlink:actuate="onRequest" xlink:href="https://bo4e.github.io/BO4E-python/v202401.7.0/api/bo4e.com.html#bo4e.com.com.COM" xlink:show="new" xlink:title="https://bo4e.github.io/BO4E-python/v202401.7.0/api/bo4e.com.html#bo4e.com.com.COM" xlink:type="simple"><text fill="#0000FF" font-family="sans-serif" font-size="14" lengthAdjust="spacing" text-decoration="underline" textLength="33" x="1182" y="175.0251">COM</text></a><text fill="#000000" font-family="sans-serif" font-size="10" lengthAdjust="spacing" textLength="72" x="1162.5" y="187.6091">bo4e.com.com</text></g><!--class TarifpreispositionProOrt--><g id="elem_TarifpreispositionProOrt"><rect codeLine="3" fill="#F1F1F1" height="111.125" id="TarifpreispositionProOrt" rx="2.5" ry="2.5" style="stroke:#181818;stroke-width:0.5;" width="919" x="7" y="84.44"/><ellipse cx="381.25" cy="103.4088" fill="#ADD1B2" rx="11" ry="11" style="stroke:#181818;stroke-width:1.0;"/><path d="M384.2188,109.0494 Q383.6406,109.3463 383,109.4869 Q382.3594,109.6431 381.6563,109.6431 Q379.1563,109.6431 377.8281,108.0025 Q376.5156,106.3463 376.5156,103.2213 Q376.5156,100.0963 377.8281,98.44 Q379.1563,96.7838 381.6563,96.7838 Q382.3594,96.7838 383,96.94 Q383.6563,97.0963 384.2188,97.3931 L384.2188,100.1119 Q383.5938,99.5338 383,99.2681 Q382.4063,98.9869 381.7813,98.9869 Q380.4375,98.9869 379.75,100.065 Q379.0625,101.1275 379.0625,103.2213 Q379.0625,105.315 379.75,106.3931 Q380.4375,107.4556 381.7813,107.4556 Q382.4063,107.4556 383,107.19 Q383.5938,106.9088 384.2188,106.3306 L384.2188,109.0494 Z " fill="#000000"/><a href="https://bo4e.github.io/BO4E-python/v202401.7.0/api/bo4e.com.html#bo4e.com.tarifpreispositionproort.TarifpreispositionProOrt" target="_top" title="https://bo4e.github.io/BO4E-python/v202401.7.0/api/bo4e.com.html#bo4e.com.tarifpreispositionproort.TarifpreispositionProOrt" xlink:actuate="onRequest" xlink:href="https://bo4e.github.io/BO4E-python/v202401.7.0/api/bo4e.com.html#bo4e.com.tarifpreispositionproort.TarifpreispositionProOrt" xlink:show="new" xlink:title="https://bo4e.github.io/BO4E-python/v202401.7.0/api/bo4e.com.html#bo4e.com.tarifpreispositionproort.TarifpreispositionProOrt" xlink:type="simple"><text fill="#0000FF" font-family="sans-serif" font-size="14" lengthAdjust="spacing" text-decoration="underline" textLength="162" x="401.75" y="102.4351">TarifpreispositionProOrt</text></a><text fill="#000000" font-family="sans-serif" font-size="10" lengthAdjust="spacing" textLength="161" x="402.25" y="115.0191">bo4e.com.tarifpreispositionproort</text><line style="stroke:#181818;stroke-width:0.5;" x1="8" x2="925" y1="122.3775" y2="122.3775"/><text fill="#000000" font-family="sans-serif" font-size="14" lengthAdjust="spacing" textLength="907" x="13" y="139.3726">_typ : Literal[&lt;ComTyp.TARIFPREISPOSITIONPROORT: 'TARIFPREISPOSITIONPROORT'&gt;] [1] = ComTyp.TARIFPREISPOSITIONPROORT</text><text fill="#000000" font-family="sans-serif" font-size="14" lengthAdjust="spacing" textLength="207" x="13" y="155.6695">postleitzahl : str [0..1] = None</text><text fill="#000000" font-family="sans-serif" font-size="14" lengthAdjust="spacing" textLength="147" x="13" y="171.9664">ort : str [0..1] = None</text><text fill="#000000" font-family="sans-serif" font-size="14" lengthAdjust="spacing" textLength="173" x="13" y="188.2632">netznr : str [0..1] = None</text></g><!--link TarifpreispositionProOrt to COM--><g id="link_TarifpreispositionProOrt_COM"><path codeLine="15" d="M926.41,163.04 C1009.92,167.23 1067.5426,170.1289 1115.0226,172.5089 " fill="none" id="TarifpreispositionProOrt-to-COM" style="stroke:#181818;stroke-width:1.0;"/><polygon fill="none" points="1133,173.41,1115.323,166.5164,1114.7222,178.5013,1133,173.41" style="stroke:#181818;stroke-width:1.0;"/></g><!--link TarifpreispositionProOrt to TarifpreisstaffelProOrt--><g id="link_TarifpreispositionProOrt_TarifpreisstaffelProOrt"><path codeLine="16" d="M926.41,116.32 C988.7,113.1 1034.606,110.7391 1079.706,108.4091 " fill="none" id="TarifpreispositionProOrt-to-TarifpreisstaffelProOrt" style="stroke:#181818;stroke-width:1.0;"/><polygon fill="#181818" points="1091.69,107.79,1085.4916,104.1049,1079.706,108.4091,1085.9044,112.0942,1091.69,107.79" style="stroke:#181818;stroke-width:1.0;"/><text fill="#000000" font-family="sans-serif" font-size="13" lengthAdjust="spacing" textLength="78" x="957" y="107.0669">preisstaffeln</text><text fill="#000000" font-family="sans-serif" font-size="13" lengthAdjust="spacing" textLength="23" x="1060.9563" y="120.7644">0..*</text></g><!--SRC=[jLHHJy8m47vcl-823oGaT8CGDGkI8C64H1aPUvkBAT2n9jlQjAS6rFzkXu8YJ5xauHxklkjtrxklJLcCW08KNoO82wxO7Bd8BMkUKgsX6eO9ejIkRSz4Xv4bn-HfHhYmRxpEi2bNc8ZSVcuxxOxJ8fV4iQdadwbpaP44ixIsyv0g7al5k9P2ywACL48e9C41C572KmXbG1Gzv5tDrynjERsJ_5MWkfGANgtA8wuak737aIcQXjs1o8AL947V7zrE_E5eEl6ces3aZIU-v_c12_KogDwB86n5S0qdEAoAQGDJnd5DazGKrwWWT0ZP71wBd5aLq_fn86UupjLHxDsoSfenBUcS_SVsOEj5qMQCMnTgGwT_TJ4endTMgMYaSSpI0wLynG-4iXS_fPCzybyosICwooKB6tZtOEnueyOsJPc4Oh7bxwJPVEljLbDm_f5haXjGDQ9fLB-FbCtLXPz1yoqaVC4WOzcCAMtfHBn0UQMOitIXFm00]--></g></svg>