<svg xmlns="http://www.w3.org/2000/svg" xmlns:xlink="http://www.w3.org/1999/xlink" contentStyleType="text/css" data-diagram-type="CLASS" height="841px" preserveAspectRatio="none" style="width:782px;height:841px;background:#FFFFFF;" version="1.1" viewBox="0 0 782 841" width="782px" zoomAndPan="magnify"><?plantuml 1.2026.6?><defs/><g><!--cluster bo4e--><g class="cluster" data-qualified-name="bo4e" data-source-line="15" id="ent0004"><path d="M516.38,6 L556.256,6 A3.75,3.75 0 0 1 558.756,8.5 L565.756,28.2969 L765.48,28.2969 A2.5,2.5 0 0 1 767.98,30.7969 L767.98,823.5 A2.5,2.5 0 0 1 765.48,826 L516.38,826 A2.5,2.5 0 0 1 513.88,823.5 L513.88,8.5 A2.5,2.5 0 0 1 516.38,6" fill="none" style="stroke:#000000;stroke-width:1.5;"/><line style="stroke:#000000;stroke-width:1.5;" x1="513.88" x2="565.756" y1="28.2969" y2="28.2969"/><text fill="#000000" font-family="sans-serif" font-size="14" font-weight="700" lengthAdjust="spacing" textLength="38.876" x="517.88" y="20.9951">bo4e</text></g><!--cluster bo--><g class="cluster" data-qualified-name="bo4e.bo" data-source-line="14" id="ent0002"><path d="M540.38,49 L605.214,49 A3.75,3.75 0 0 1 607.714,51.5 L614.714,71.2969 L741.48,71.2969 A2.5,2.5 0 0 1 743.98,73.7969 L743.98,281.5 A2.5,2.5 0 0 1 741.48,284 L540.38,284 A2.5,2.5 0 0 1 537.88,281.5 L537.88,51.5 A2.5,2.5 0 0 1 540.38,49" fill="#B6D7A8" style="stroke:#000000;stroke-width:1.5;"/><line style="stroke:#000000;stroke-width:1.5;" x1="537.88" x2="614.714" y1="71.2969" y2="71.2969"/><text fill="#000000" font-family="sans-serif" font-size="14" font-weight="700" lengthAdjust="spacing" textLength="63.834" x="541.88" y="63.9951">bo4e.bo</text></g><!--cluster com--><g class="cluster" data-qualified-name="bo4e.com" data-source-line="40" id="ent0007"><path d="M554.42,308 L632.1192,308 A3.75,3.75 0 0 1 634.6192,310.5 L641.6192,330.2969 L727.44,330.2969 A2.5,2.5 0 0 1 729.94,332.7969 L729.94,613.5 A2.5,2.5 0 0 1 727.44,616 L554.42,616 A2.5,2.5 0 0 1 551.92,613.5 L551.92,310.5 A2.5,2.5 0 0 1 554.42,308" fill="#E0A86C" style="stroke:#000000;stroke-width:1.5;"/><line style="stroke:#000000;stroke-width:1.5;" x1="551.92" x2="641.6192" y1="330.2969" y2="330.2969"/><text fill="#000000" font-family="sans-serif" font-size="14" font-weight="700" lengthAdjust="spacing" textLength="76.6992" x="555.92" y="322.9951">bo4e.com</text></g><!--cluster enum--><g class="cluster" data-qualified-name="bo4e.enum" data-source-line="75" id="ent0012"><path d="M568.58,640 L657.7909,640 A3.75,3.75 0 0 1 660.2909,642.5 L667.2909,662.2969 L713.28,662.2969 A2.5,2.5 0 0 1 715.78,664.7969 L715.78,799.5 A2.5,2.5 0 0 1 713.28,802 L568.58,802 A2.5,2.5 0 0 1 566.08,799.5 L566.08,642.5 A2.5,2.5 0 0 1 568.58,640" fill="#D1C358" style="stroke:#000000;stroke-width:1.5;"/><line style="stroke:#000000;stroke-width:1.5;" x1="566.08" x2="667.2909" y1="662.2969" y2="662.2969"/><text fill="#000000" font-family="sans-serif" font-size="14" font-weight="700" lengthAdjust="spacing" textLength="88.2109" x="570.08" y="654.9951">bo4e.enum</text></g><!--class Geraet--><g class="entity" data-qualified-name="bo4e.bo.Geraet" data-source-line="15" id="ent0003"><rect fill="#F1F1F1" height="37.9375" rx="2.5" ry="2.5" style="stroke:#181818;stroke-width:0.5;" width="81.8584" x="600" y="84.03"/><ellipse cx="615" cy="102.9987" fill="#ADD1B2" rx="11" ry="11" style="stroke:#181818;stroke-width:1;"/><path d="M617.9688,108.6394 Q617.3906,108.9362 616.75,109.0769 Q616.1094,109.2331 615.4063,109.2331 Q612.9063,109.2331 611.5781,107.5925 Q610.2656,105.9362 610.2656,102.8112 Q610.2656,99.6862 611.5781,98.03 Q612.9063,96.3737 615.4063,96.3737 Q616.1094,96.3737 616.75,96.53 Q617.4063,96.6862 617.9688,96.9831 L617.9688,99.7019 Q617.3438,99.1237 616.75,98.8581 Q616.1563,98.5769 615.5313,98.5769 Q614.1875,98.5769 613.5,99.655 Q612.8125,100.7175 612.8125,102.8112 Q612.8125,104.905 613.5,105.9831 Q614.1875,107.0456 615.5313,107.0456 Q616.1563,107.0456 616.75,106.78 Q617.3438,106.4987 617.9688,105.9206 L617.9688,108.6394 Z " fill="#000000"/><a href="https://bo4e.github.io/BO4E-python/v202601.0.0/api/bo.Geraet.html" target="_top" title="https://bo4e.github.io/BO4E-python/v202601.0.0/api/bo.Geraet.html" xlink:actuate="onRequest" xlink:href="https://bo4e.github.io/BO4E-python/v202601.0.0/api/bo.Geraet.html" xlink:show="new" xlink:title="https://bo4e.github.io/BO4E-python/v202601.0.0/api/bo.Geraet.html" xlink:type="simple"><text fill="#0000FF" font-family="sans-serif" font-size="14" lengthAdjust="spacing" text-decoration="underline" textLength="47.8994" x="629.9795" y="102.0251">Geraet</text></a><text fill="#000000" font-family="sans-serif" font-size="10" lengthAdjust="spacing" textLength="49.8584" x="629" y="114.6091">bo.Geraet</text></g><!--class Lokationszuordnung--><g class="entity" data-qualified-name="bo4e.bo.Lokationszuordnung" data-source-line="22" id="ent0005"><rect fill="#F1F1F1" height="37.9375" rx="2.5" ry="2.5" style="stroke:#181818;stroke-width:0.5;" width="174.0986" x="553.88" y="230.03"/><ellipse cx="568.88" cy="248.9987" fill="#ADD1B2" rx="11" ry="11" style="stroke:#181818;stroke-width:1;"/><path d="M571.8488,254.6394 Q571.2706,254.9362 570.63,255.0769 Q569.9894,255.2331 569.2863,255.2331 Q566.7863,255.2331 565.4581,253.5925 Q564.1456,251.9362 564.1456,248.8112 Q564.1456,245.6862 565.4581,244.03 Q566.7863,242.3737 569.2863,242.3737 Q569.9894,242.3737 570.63,242.53 Q571.2863,242.6862 571.8488,242.9831 L571.8488,245.7019 Q571.2238,245.1237 570.63,244.8581 Q570.0363,244.5769 569.4113,244.5769 Q568.0675,244.5769 567.38,245.655 Q566.6925,246.7175 566.6925,248.8112 Q566.6925,250.905 567.38,251.9831 Q568.0675,253.0456 569.4113,253.0456 Q570.0363,253.0456 570.63,252.78 Q571.2238,252.4987 571.8488,251.9206 L571.8488,254.6394 Z " fill="#000000"/><a href="https://bo4e.github.io/BO4E-python/v202601.0.0/api/bo.Lokationszuordnung.html" target="_top" title="https://bo4e.github.io/BO4E-python/v202601.0.0/api/bo.Lokationszuordnung.html" xlink:actuate="onRequest" xlink:href="https://bo4e.github.io/BO4E-python/v202601.0.0/api/bo.Lokationszuordnung.html" xlink:show="new" xlink:title="https://bo4e.github.io/BO4E-python/v202601.0.0/api/bo.Lokationszuordnung.html" xlink:type="simple"><text fill="#0000FF" font-family="sans-serif" font-size="14" lengthAdjust="spacing" text-decoration="underline" textLength="142.0986" x="582.88" y="248.0251">Lokationszuordnung</text></a><text fill="#000000" font-family="sans-serif" font-size="10" lengthAdjust="spacing" textLength="117.1436" x="595.3575" y="260.6091">bo.Lokationszuordnung</text></g><!--class Zaehler--><g class="entity" data-qualified-name="bo4e.bo.Zaehler" data-source-line="29" id="ent0006"><rect fill="#F1F1F1" height="37.9375" rx="2.5" ry="2.5" style="stroke:#181818;stroke-width:0.5;" width="86.1553" x="597.85" y="157.03"/><ellipse cx="612.85" cy="175.9987" fill="#ADD1B2" rx="11" ry="11" style="stroke:#181818;stroke-width:1;"/><path d="M615.8188,181.6394 Q615.2406,181.9362 614.6,182.0769 Q613.9594,182.2331 613.2563,182.2331 Q610.7563,182.2331 609.4281,180.5925 Q608.1156,178.9362 608.1156,175.8112 Q608.1156,172.6862 609.4281,171.03 Q610.7563,169.3737 613.2563,169.3737 Q613.9594,169.3737 614.6,169.53 Q615.2563,169.6862 615.8188,169.9831 L615.8188,172.7019 Q615.1938,172.1237 614.6,171.8581 Q614.0063,171.5769 613.3813,171.5769 Q612.0375,171.5769 611.35,172.655 Q610.6625,173.7175 610.6625,175.8112 Q610.6625,177.905 611.35,178.9831 Q612.0375,180.0456 613.3813,180.0456 Q614.0063,180.0456 614.6,179.78 Q615.1938,179.4987 615.8188,178.9206 L615.8188,181.6394 Z " fill="#000000"/><a href="https://bo4e.github.io/BO4E-python/v202601.0.0/api/bo.Zaehler.html" target="_top" title="https://bo4e.github.io/BO4E-python/v202601.0.0/api/bo.Zaehler.html" xlink:actuate="onRequest" xlink:href="https://bo4e.github.io/BO4E-python/v202601.0.0/api/bo.Zaehler.html" xlink:show="new" xlink:title="https://bo4e.github.io/BO4E-python/v202601.0.0/api/bo.Zaehler.html" xlink:type="simple"><text fill="#0000FF" font-family="sans-serif" font-size="14" lengthAdjust="spacing" text-decoration="underline" textLength="53.915" x="626.9701" y="175.0251">Zaehler</text></a><text fill="#000000" font-family="sans-serif" font-size="10" lengthAdjust="spacing" textLength="54.1553" x="626.85" y="187.6091">bo.Zaehler</text></g><!--class Adresse--><g class="entity" data-qualified-name="bo4e.com.Adresse" data-source-line="41" id="ent0008"><rect fill="#F1F1F1" height="37.9375" rx="2.5" ry="2.5" style="stroke:#181818;stroke-width:0.5;" width="96.5605" x="592.65" y="343.03"/><ellipse cx="607.65" cy="361.9988" fill="#ADD1B2" rx="11" ry="11" style="stroke:#181818;stroke-width:1;"/><path d="M610.6188,367.6394 Q610.0406,367.9363 609.4,368.0769 Q608.7594,368.2331 608.0563,368.2331 Q605.5563,368.2331 604.2281,366.5925 Q602.9156,364.9363 602.9156,361.8113 Q602.9156,358.6863 604.2281,357.03 Q605.5563,355.3738 608.0563,355.3738 Q608.7594,355.3738 609.4,355.53 Q610.0563,355.6863 610.6188,355.9831 L610.6188,358.7019 Q609.9938,358.1238 609.4,357.8581 Q608.8063,357.5769 608.1813,357.5769 Q606.8375,357.5769 606.15,358.655 Q605.4625,359.7175 605.4625,361.8113 Q605.4625,363.905 606.15,364.9831 Q606.8375,366.0456 608.1813,366.0456 Q608.8063,366.0456 609.4,365.78 Q609.9938,365.4988 610.6188,364.9206 L610.6188,367.6394 Z " fill="#000000"/><a href="https://bo4e.github.io/BO4E-python/v202601.0.0/api/com.Adresse.html" target="_top" title="https://bo4e.github.io/BO4E-python/v202601.0.0/api/com.Adresse.html" xlink:actuate="onRequest" xlink:href="https://bo4e.github.io/BO4E-python/v202601.0.0/api/com.Adresse.html" xlink:show="new" xlink:title="https://bo4e.github.io/BO4E-python/v202601.0.0/api/com.Adresse.html" xlink:type="simple"><text fill="#0000FF" font-family="sans-serif" font-size="14" lengthAdjust="spacing" text-decoration="underline" textLength="56.0342" x="625.9132" y="361.0251">Adresse</text></a><text fill="#000000" font-family="sans-serif" font-size="10" lengthAdjust="spacing" textLength="64.5605" x="621.65" y="373.6091">com.Adresse</text></g><!--class Dienstleistung--><g class="entity" data-qualified-name="bo4e.com.Dienstleistung" data-source-line="54" id="ent0009"><rect fill="#F1F1F1" height="37.9375" rx="2.5" ry="2.5" style="stroke:#181818;stroke-width:0.5;" width="132.748" x="574.56" y="416.03"/><ellipse cx="589.56" cy="434.9988" fill="#ADD1B2" rx="11" ry="11" style="stroke:#181818;stroke-width:1;"/><path d="M592.5288,440.6394 Q591.9506,440.9363 591.31,441.0769 Q590.6694,441.2331 589.9663,441.2331 Q587.4663,441.2331 586.1381,439.5925 Q584.8256,437.9363 584.8256,434.8113 Q584.8256,431.6863 586.1381,430.03 Q587.4663,428.3738 589.9663,428.3738 Q590.6694,428.3738 591.31,428.53 Q591.9663,428.6863 592.5288,428.9831 L592.5288,431.7019 Q591.9038,431.1238 591.31,430.8581 Q590.7163,430.5769 590.0913,430.5769 Q588.7475,430.5769 588.06,431.655 Q587.3725,432.7175 587.3725,434.8113 Q587.3725,436.905 588.06,437.9831 Q588.7475,439.0456 590.0913,439.0456 Q590.7163,439.0456 591.31,438.78 Q591.9038,438.4988 592.5288,437.9206 L592.5288,440.6394 Z " fill="#000000"/><a href="https://bo4e.github.io/BO4E-python/v202601.0.0/api/com.Dienstleistung.html" target="_top" title="https://bo4e.github.io/BO4E-python/v202601.0.0/api/com.Dienstleistung.html" xlink:actuate="onRequest" xlink:href="https://bo4e.github.io/BO4E-python/v202601.0.0/api/com.Dienstleistung.html" xlink:show="new" xlink:title="https://bo4e.github.io/BO4E-python/v202601.0.0/api/com.Dienstleistung.html" xlink:type="simple"><text fill="#0000FF" font-family="sans-serif" font-size="14" lengthAdjust="spacing" text-decoration="underline" textLength="100.748" x="603.56" y="434.0251">Dienstleistung</text></a><text fill="#000000" font-family="sans-serif" font-size="10" lengthAdjust="spacing" textLength="96.499" x="605.6845" y="446.6091">com.Dienstleistung</text></g><!--class Geokoordinaten--><g class="entity" data-qualified-name="bo4e.com.Geokoordinaten" data-source-line="60" id="ent0010"><rect fill="#F1F1F1" height="37.9375" rx="2.5" ry="2.5" style="stroke:#181818;stroke-width:0.5;" width="144.2256" x="568.82" y="489.03"/><ellipse cx="583.82" cy="507.9988" fill="#ADD1B2" rx="11" ry="11" style="stroke:#181818;stroke-width:1;"/><path d="M586.7888,513.6394 Q586.2106,513.9363 585.57,514.0769 Q584.9294,514.2331 584.2263,514.2331 Q581.7263,514.2331 580.3981,512.5925 Q579.0856,510.9363 579.0856,507.8113 Q579.0856,504.6863 580.3981,503.03 Q581.7263,501.3738 584.2263,501.3738 Q584.9294,501.3738 585.57,501.53 Q586.2263,501.6863 586.7888,501.9831 L586.7888,504.7019 Q586.1638,504.1238 585.57,503.8581 Q584.9763,503.5769 584.3513,503.5769 Q583.0075,503.5769 582.32,504.655 Q581.6325,505.7175 581.6325,507.8113 Q581.6325,509.905 582.32,510.9831 Q583.0075,512.0456 584.3513,512.0456 Q584.9763,512.0456 585.57,511.78 Q586.1638,511.4988 586.7888,510.9206 L586.7888,513.6394 Z " fill="#000000"/><a href="https://bo4e.github.io/BO4E-python/v202601.0.0/api/com.Geokoordinaten.html" target="_top" title="https://bo4e.github.io/BO4E-python/v202601.0.0/api/com.Geokoordinaten.html" xlink:actuate="onRequest" xlink:href="https://bo4e.github.io/BO4E-python/v202601.0.0/api/com.Geokoordinaten.html" xlink:show="new" xlink:title="https://bo4e.github.io/BO4E-python/v202601.0.0/api/com.Geokoordinaten.html" xlink:type="simple"><text fill="#0000FF" font-family="sans-serif" font-size="14" lengthAdjust="spacing" text-decoration="underline" textLength="112.2256" x="597.82" y="507.0251">Geokoordinaten</text></a><text fill="#000000" font-family="sans-serif" font-size="10" lengthAdjust="spacing" textLength="104.6973" x="601.5842" y="519.6091">com.Geokoordinaten</text></g><!--class Katasteradresse--><g class="entity" data-qualified-name="bo4e.com.Katasteradresse" data-source-line="67" id="ent0011"><rect fill="#F1F1F1" height="37.9375" rx="2.5" ry="2.5" style="stroke:#181818;stroke-width:0.5;" width="146.0166" x="567.92" y="562.03"/><ellipse cx="582.92" cy="580.9988" fill="#ADD1B2" rx="11" ry="11" style="stroke:#181818;stroke-width:1;"/><path d="M585.8888,586.6394 Q585.3106,586.9363 584.67,587.0769 Q584.0294,587.2331 583.3263,587.2331 Q580.8263,587.2331 579.4981,585.5925 Q578.1856,583.9363 578.1856,580.8113 Q578.1856,577.6863 579.4981,576.03 Q580.8263,574.3738 583.3263,574.3738 Q584.0294,574.3738 584.67,574.53 Q585.3263,574.6863 585.8888,574.9831 L585.8888,577.7019 Q585.2638,577.1238 584.67,576.8581 Q584.0763,576.5769 583.4513,576.5769 Q582.1075,576.5769 581.42,577.655 Q580.7325,578.7175 580.7325,580.8113 Q580.7325,582.905 581.42,583.9831 Q582.1075,585.0456 583.4513,585.0456 Q584.0763,585.0456 584.67,584.78 Q585.2638,584.4988 585.8888,583.9206 L585.8888,586.6394 Z " fill="#000000"/><a href="https://bo4e.github.io/BO4E-python/v202601.0.0/api/com.Katasteradresse.html" target="_top" title="https://bo4e.github.io/BO4E-python/v202601.0.0/api/com.Katasteradresse.html" xlink:actuate="onRequest" xlink:href="https://bo4e.github.io/BO4E-python/v202601.0.0/api/com.Katasteradresse.html" xlink:show="new" xlink:title="https://bo4e.github.io/BO4E-python/v202601.0.0/api/com.Katasteradresse.html" xlink:type="simple"><text fill="#0000FF" font-family="sans-serif" font-size="14" lengthAdjust="spacing" text-decoration="underline" textLength="114.0166" x="596.92" y="580.0251">Katasteradresse</text></a><text fill="#000000" font-family="sans-serif" font-size="10" lengthAdjust="spacing" textLength="105.9766" x="600.94" y="592.6091">com.Katasteradresse</text></g><!--class Netzebene--><g class="entity" data-qualified-name="bo4e.enum.Netzebene" data-source-line="76" id="ent0013"><rect fill="#F1F1F1" height="37.9375" rx="2.5" ry="2.5" style="stroke:#181818;stroke-width:0.5;" width="117.6934" x="582.08" y="675.03"/><ellipse cx="597.08" cy="693.9988" fill="#ADD1B2" rx="11" ry="11" style="stroke:#181818;stroke-width:1;"/><path d="M600.0488,699.6394 Q599.4706,699.9363 598.83,700.0769 Q598.1894,700.2331 597.4863,700.2331 Q594.9863,700.2331 593.6581,698.5925 Q592.3456,696.9363 592.3456,693.8113 Q592.3456,690.6863 593.6581,689.03 Q594.9863,687.3738 597.4863,687.3738 Q598.1894,687.3738 598.83,687.53 Q599.4863,687.6863 600.0488,687.9831 L600.0488,690.7019 Q599.4238,690.1238 598.83,689.8581 Q598.2363,689.5769 597.6113,689.5769 Q596.2675,689.5769 595.58,690.655 Q594.8925,691.7175 594.8925,693.8113 Q594.8925,695.905 595.58,696.9831 Q596.2675,698.0456 597.6113,698.0456 Q598.2363,698.0456 598.83,697.78 Q599.4238,697.4988 600.0488,696.9206 L600.0488,699.6394 Z " fill="#000000"/><a href="https://bo4e.github.io/BO4E-python/v202601.0.0/api/enum.Netzebene.html" target="_top" title="https://bo4e.github.io/BO4E-python/v202601.0.0/api/enum.Netzebene.html" xlink:actuate="onRequest" xlink:href="https://bo4e.github.io/BO4E-python/v202601.0.0/api/enum.Netzebene.html" xlink:show="new" xlink:title="https://bo4e.github.io/BO4E-python/v202601.0.0/api/enum.Netzebene.html" xlink:type="simple"><text fill="#0000FF" font-family="sans-serif" font-size="14" lengthAdjust="spacing" text-decoration="underline" textLength="75.5234" x="616.165" y="693.0251">Netzebene</text></a><text fill="#000000" font-family="sans-serif" font-size="10" lengthAdjust="spacing" textLength="85.6934" x="611.08" y="705.6091">enum.Netzebene</text></g><!--class Sparte--><g class="entity" data-qualified-name="bo4e.enum.Sparte" data-source-line="78" id="ent0014"><rect fill="#F1F1F1" height="37.9375" rx="2.5" ry="2.5" style="stroke:#181818;stroke-width:0.5;" width="96.7559" x="592.55" y="748.03"/><ellipse cx="607.55" cy="766.9988" fill="#ADD1B2" rx="11" ry="11" style="stroke:#181818;stroke-width:1;"/><path d="M610.5188,772.6394 Q609.9406,772.9363 609.3,773.0769 Q608.6594,773.2331 607.9563,773.2331 Q605.4563,773.2331 604.1281,771.5925 Q602.8156,769.9363 602.8156,766.8113 Q602.8156,763.6863 604.1281,762.03 Q605.4563,760.3738 607.9563,760.3738 Q608.6594,760.3738 609.3,760.53 Q609.9563,760.6863 610.5188,760.9831 L610.5188,763.7019 Q609.8938,763.1238 609.3,762.8581 Q608.7063,762.5769 608.0813,762.5769 Q606.7375,762.5769 606.05,763.655 Q605.3625,764.7175 605.3625,766.8113 Q605.3625,768.905 606.05,769.9831 Q606.7375,771.0456 608.0813,771.0456 Q608.7063,771.0456 609.3,770.78 Q609.8938,770.4988 610.5188,769.9206 L610.5188,772.6394 Z " fill="#000000"/><a href="https://bo4e.github.io/BO4E-python/v202601.0.0/api/enum.Sparte.html" target="_top" title="https://bo4e.github.io/BO4E-python/v202601.0.0/api/enum.Sparte.html" xlink:actuate="onRequest" xlink:href="https://bo4e.github.io/BO4E-python/v202601.0.0/api/enum.Sparte.html" xlink:show="new" xlink:title="https://bo4e.github.io/BO4E-python/v202601.0.0/api/enum.Sparte.html" xlink:type="simple"><text fill="#0000FF" font-family="sans-serif" font-size="14" lengthAdjust="spacing" text-decoration="underline" textLength="46.2109" x="630.8225" y="766.0251">Sparte</text></a><text fill="#000000" font-family="sans-serif" font-size="10" lengthAdjust="spacing" textLength="64.7559" x="621.55" y="778.6091">enum.Sparte</text></g><!--class Messlokation--><g class="entity" data-qualified-name="Messlokation" data-source-line="3" id="ent0001"><rect fill="#F1F1F1" height="176.3125" rx="2.5" ry="2.5" style="stroke:#181818;stroke-width:0.5;" width="314.8799" x="7" y="317.84"/><ellipse cx="114.5703" cy="336.8088" fill="#ADD1B2" rx="11" ry="11" style="stroke:#181818;stroke-width:1;"/><path d="M117.5391,342.4494 Q116.9609,342.7463 116.3203,342.8869 Q115.6797,343.0431 114.9766,343.0431 Q112.4766,343.0431 111.1484,341.4025 Q109.8359,339.7463 109.8359,336.6213 Q109.8359,333.4963 111.1484,331.84 Q112.4766,330.1838 114.9766,330.1838 Q115.6797,330.1838 116.3203,330.34 Q116.9766,330.4963 117.5391,330.7931 L117.5391,333.5119 Q116.9141,332.9338 116.3203,332.6681 Q115.7266,332.3869 115.1016,332.3869 Q113.7578,332.3869 113.0703,333.465 Q112.3828,334.5275 112.3828,336.6213 Q112.3828,338.715 113.0703,339.7931 Q113.7578,340.8556 115.1016,340.8556 Q115.7266,340.8556 116.3203,340.59 Q116.9141,340.3088 117.5391,339.7306 L117.5391,342.4494 Z " fill="#000000"/><a href="https://bo4e.github.io/BO4E-python/v202601.0.0/api/bo.Messlokation.html" target="_top" title="https://bo4e.github.io/BO4E-python/v202601.0.0/api/bo.Messlokation.html" xlink:actuate="onRequest" xlink:href="https://bo4e.github.io/BO4E-python/v202601.0.0/api/bo.Messlokation.html" xlink:show="new" xlink:title="https://bo4e.github.io/BO4E-python/v202601.0.0/api/bo.Messlokation.html" xlink:type="simple"><text fill="#0000FF" font-family="sans-serif" font-size="14" lengthAdjust="spacing" text-decoration="underline" textLength="91.2393" x="135.0703" y="335.8351">Messlokation</text></a><text fill="#000000" font-family="sans-serif" font-size="10" lengthAdjust="spacing" textLength="80.8154" x="140.2822" y="348.4191">bo.Messlokation</text><line style="stroke:#181818;stroke-width:0.5;" x1="8" x2="320.8799" y1="355.7775" y2="355.7775"/><text fill="#000000" font-family="sans-serif" font-size="14" lengthAdjust="spacing" textLength="94.0215" x="13" y="372.7726">_id : str [0..1]</text><text fill="#000000" font-family="sans-serif" font-size="14" lengthAdjust="spacing" textLength="263.6348" x="13" y="389.0695">_typ : Literal["MESSLOKATION"] [0..1]</text><text fill="#000000" font-family="sans-serif" font-size="14" lengthAdjust="spacing" textLength="132.5215" x="13" y="405.3664">_version : str [0..1]</text><text fill="#000000" font-family="sans-serif" font-size="14" lengthAdjust="spacing" textLength="285.3525" x="13" y="421.6632">grundzustaendigerMsbCodenr : str [0..1]</text><text fill="#000000" font-family="sans-serif" font-size="14" lengthAdjust="spacing" textLength="302.8799" x="13" y="437.9601">grundzustaendigerMsbimCodenr : str [0..1]</text><text fill="#000000" font-family="sans-serif" font-size="14" lengthAdjust="spacing" textLength="273.9023" x="13" y="454.257">lokationsbuendelObjektcode : str [0..1]</text><text fill="#000000" font-family="sans-serif" font-size="14" lengthAdjust="spacing" textLength="170.0918" x="13" y="470.5539">messgebietnr : str [0..1]</text><text fill="#000000" font-family="sans-serif" font-size="14" lengthAdjust="spacing" textLength="187.3525" x="13" y="486.8507">messlokationsId : str [0..1]</text></g><!--link Lokationszuordnung to Messlokation--><g class="link" data-entity-1="ent0005" data-entity-2="ent0001" data-link-type="composition" data-source-line="82" id="lnk15"><path codeLine="82" d="M598.86,268.35 C570.79,281.14 532.55,297.75 497.88,310 C434.33,332.46 416.65,332.35 351.88,351 C342.23,353.78 343.833,353.3002 333.823,356.2102" fill="none" id="Lokationszuordnung-to-Messlokation" style="stroke:#181818;stroke-width:1;"/><polygon fill="#181818" points="322.3,359.56,329.1781,361.7261,333.823,356.2102,326.9449,354.0441,322.3,359.56" style="stroke:#181818;stroke-width:1;stroke-linejoin:miter;stroke-miterlimit:10;"/><text fill="#000000" font-family="sans-serif" font-size="13" lengthAdjust="spacing" textLength="102.4067" x="373.88" y="306.0669">messlokationen</text><text fill="#000000" font-family="sans-serif" font-size="13" lengthAdjust="spacing" textLength="23.0356" x="329.9749" y="369.8656">0..*</text></g><!--link Messlokation to Lokationszuordnung--><g class="link" data-entity-1="ent0001" data-entity-2="ent0005" data-link-type="composition" data-source-line="84" id="lnk17"><path codeLine="84" d="M290.91,317.47 C310.64,306.47 331.32,296.49 351.88,289 C416.99,265.29 483.1077,256.3254 541.5477,252.3454" fill="none" id="Messlokation-to-Lokationszuordnung" style="stroke:#181818;stroke-width:1;"/><polygon fill="#181818" points="553.52,251.53,547.2621,247.9469,541.5477,252.3454,547.8057,255.9284,553.52,251.53" style="stroke:#181818;stroke-width:1;stroke-linejoin:miter;stroke-miterlimit:10;"/><text fill="#000000" font-family="sans-serif" font-size="13" lengthAdjust="spacing" textLength="144.5552" x="352.88" y="253.6869">lokationszuordnungen</text><text fill="#000000" font-family="sans-serif" font-size="13" lengthAdjust="spacing" textLength="23.0356" x="522.9486" y="264.37">0..*</text></g><!--link Messlokation to Geraet--><g class="link" data-entity-1="ent0001" data-entity-2="ent0003" data-link-type="composition" data-source-line="83" id="lnk16"><path codeLine="83" d="M212.22,317.5 C244.54,264.93 292.4,201.42 351.88,164 C429.98,114.87 529.1552,105.0531 587.9252,103.3231" fill="none" id="Messlokation-to-Geraet" style="stroke:#181818;stroke-width:1;"/><polygon fill="#181818" points="599.92,102.97,593.8049,99.1483,587.9252,103.3231,594.0403,107.1448,599.92,102.97" style="stroke:#181818;stroke-width:1;stroke-linejoin:miter;stroke-miterlimit:10;"/><text fill="#000000" font-family="sans-serif" font-size="13" lengthAdjust="spacing" textLength="50.6543" x="399.88" y="109.7969">geraete</text><text fill="#000000" font-family="sans-serif" font-size="13" lengthAdjust="spacing" textLength="23.0356" x="568.8823" y="116.1911">0..*</text></g><!--link Messlokation to Zaehler--><g class="link" data-entity-1="ent0001" data-entity-2="ent0006" data-link-type="composition" data-source-line="85" id="lnk18"><path codeLine="85" d="M241.31,317.53 C272.53,286.33 310.97,253.87 351.88,233 C432.26,192 527.2083,181.1134 585.5483,177.8834" fill="none" id="Messlokation-to-Zaehler" style="stroke:#181818;stroke-width:1;"/><polygon fill="#181818" points="597.53,177.22,591.3181,173.5578,585.5483,177.8834,591.7603,181.5456,597.53,177.22" style="stroke:#181818;stroke-width:1;stroke-linejoin:miter;stroke-miterlimit:10;"/><text fill="#000000" font-family="sans-serif" font-size="13" lengthAdjust="spacing" textLength="140.9243" x="354.88" y="184.6469">messlokationszaehler</text><text fill="#000000" font-family="sans-serif" font-size="13" lengthAdjust="spacing" textLength="23.0356" x="566.8125" y="190.5227">0..*</text></g><!--link Messlokation to Adresse--><g class="link" data-entity-1="ent0001" data-entity-2="ent0008" data-link-type="composition" data-source-line="86" id="lnk19"><path codeLine="86" d="M322.12,391.47 C416.19,382.75 517.4913,373.3584 580.2313,367.5384" fill="none" id="Messlokation-to-Adresse" style="stroke:#181818;stroke-width:1;"/><polygon fill="#181818" points="592.18,366.43,585.8362,363.0013,580.2313,367.5384,586.5751,370.9671,592.18,366.43" style="stroke:#181818;stroke-width:1;stroke-linejoin:miter;stroke-miterlimit:10;"/><text fill="#000000" font-family="sans-serif" font-size="13" lengthAdjust="spacing" textLength="85.3125" x="382.38" y="372.2969">messadresse</text><text fill="#000000" font-family="sans-serif" font-size="13" lengthAdjust="spacing" textLength="24.8066" x="559.6937" y="380.1841">0..1</text></g><!--link Messlokation to Dienstleistung--><g class="link" data-entity-1="ent0001" data-entity-2="ent0009" data-link-type="composition" data-source-line="87" id="lnk20"><path codeLine="87" d="M322.22,427.45 C332.25,428.43 342.2,429.29 351.88,430 C428.08,435.55 503.9002,436.3298 562.3402,435.9898" fill="none" id="Messlokation-to-Dienstleistung" style="stroke:#181818;stroke-width:1;"/><polygon fill="#181818" points="574.34,435.92,568.3168,431.955,562.3402,435.9898,568.3634,439.9548,574.34,435.92" style="stroke:#181818;stroke-width:1;stroke-linejoin:miter;stroke-miterlimit:10;"/><text fill="#000000" font-family="sans-serif" font-size="13" lengthAdjust="spacing" textLength="126.001" x="361.88" y="426.0669">messdienstleistung</text><text fill="#000000" font-family="sans-serif" font-size="13" lengthAdjust="spacing" textLength="23.0356" x="543.2884" y="448.8622">0..*</text></g><!--link Messlokation to Geokoordinaten--><g class="link" data-entity-1="ent0001" data-entity-2="ent0010" data-link-type="composition" data-source-line="88" id="lnk21"><path codeLine="88" d="M322.23,453.78 C332.23,456.35 342.17,458.79 351.88,461 C424.99,477.68 497.9528,489.1384 556.5328,497.2284" fill="none" id="Messlokation-to-Geokoordinaten" style="stroke:#181818;stroke-width:1;"/><polygon fill="#181818" points="568.42,498.87,563.0236,494.0868,556.5328,497.2284,561.9292,502.0116,568.42,498.87" style="stroke:#181818;stroke-width:1;stroke-linejoin:miter;stroke-miterlimit:10;"/><text fill="#000000" font-family="sans-serif" font-size="13" lengthAdjust="spacing" textLength="75.3086" x="387.38" y="457.0669">geoadresse</text><text fill="#000000" font-family="sans-serif" font-size="13" lengthAdjust="spacing" textLength="24.8066" x="536.1405" y="510.7831">0..1</text></g><!--link Messlokation to Katasteradresse--><g class="link" data-entity-1="ent0001" data-entity-2="ent0011" data-link-type="composition" data-source-line="89" id="lnk22"><path codeLine="89" d="M310.78,494.65 C324.43,501.37 338.26,507.62 351.88,513 C422.72,541 496.2936,557.2891 555.6336,567.7891" fill="none" id="Messlokation-to-Katasteradresse" style="stroke:#181818;stroke-width:1;"/><polygon fill="#181818" points="567.45,569.88,562.2387,564.8957,555.6336,567.7891,560.8448,572.7734,567.45,569.88" style="stroke:#181818;stroke-width:1;stroke-linejoin:miter;stroke-miterlimit:10;"/><text fill="#000000" font-family="sans-serif" font-size="13" lengthAdjust="spacing" textLength="129.0288" x="360.38" y="509.0669">katasterinformation</text><text fill="#000000" font-family="sans-serif" font-size="13" lengthAdjust="spacing" textLength="24.8066" x="535.0754" y="581.5972">0..1</text></g><!--link Messlokation to Netzebene--><g class="link" data-entity-1="ent0001" data-entity-2="ent0013" data-link-type="composition" data-source-line="90" id="lnk23"><path codeLine="90" d="M247.65,494.58 C278.32,524.15 314.75,555.52 351.88,579 C425.6,625.63 509.8931,655.7856 570.2831,674.2256" fill="none" id="Messlokation-to-Netzebene" style="stroke:#181818;stroke-width:1;"/><polygon fill="#181818" points="581.76,677.73,577.1897,672.1521,570.2831,674.2256,574.8534,679.8034,581.76,677.73" style="stroke:#181818;stroke-width:1;stroke-linejoin:miter;stroke-miterlimit:10;"/><text fill="#000000" font-family="sans-serif" font-size="13" lengthAdjust="spacing" textLength="126.1343" x="361.88" y="575.0669">netzebeneMessung</text><text fill="#000000" font-family="sans-serif" font-size="13" lengthAdjust="spacing" textLength="24.8066" x="549.1357" y="688.7363">0..1</text></g><!--link Messlokation to Sparte--><g class="link" data-entity-1="ent0001" data-entity-2="ent0014" data-link-type="composition" data-source-line="91" id="lnk24"><path codeLine="91" d="M208.94,494.43 C241.32,552.24 290.48,625.56 351.88,673 C424.2,728.88 519.1739,750.422 580.3639,759.642" fill="none" id="Messlokation-to-Sparte" style="stroke:#181818;stroke-width:1;"/><polygon fill="#181818" points="592.23,761.43,586.893,756.5807,580.3639,759.642,585.701,764.4914,592.23,761.43" style="stroke:#181818;stroke-width:1;stroke-linejoin:miter;stroke-miterlimit:10;"/><text fill="#000000" font-family="sans-serif" font-size="13" lengthAdjust="spacing" textLength="41.4312" x="404.38" y="669.0669">sparte</text><text fill="#000000" font-family="sans-serif" font-size="13" lengthAdjust="spacing" textLength="24.8066" x="559.7511" y="773.7778">0..1</text></g><?plantuml-src hLTjJzim4FwUNs6LRqYaBMCCLTEaG0EhAAr4onSOcfpacdXDxCfscCZ4Vz_bfQLvAMkqzjFvxkoxF7T-V0rXeOaMH38_qCHZ4bpD13SCDwHAaSxJKw3rIWswNKUSWUap7SIEoKJtSdfcdwnUTI1uz-MqTthUwvizizUbAuQkvXqe5OebJGyp0ns5P5lp_Fo3VrKiWK6_zwtYtI5KbPp97uFWxoVpo80eBSbJppJxpxbIlwvGEsOQ90sVEdVsR3QUtbhpqNJIUIvvle1KwMcrCtmPSo-9bQR0FUQ3l5FEbV20o_ryMRJBU_q5oedH7SAfymkMsaNlkc-4N-o3mq0tdHHjuQ565I3U38DJz5XH5qWdgvCZCXWBcHnTdW-_M1S5alzPsXk46dHUr5okbZFNPXdaOfiItjZtbZtVjtWE9C3SWCVSRwXM5Xnu74KWgvWT08dnkY99BAINvf2ZKjTN4QfxP6ZLrMsGMpV-xF5XUZ-SF4nkzaMnsgZDBRf9IkM13mtd8uKW19bZM2ogm1Ng3Ar2RWFHesL_7zlt--AIjXP-xoLJQFEe1iqYs7PWIb-3v3HM8IY7fatc216Mi0MTQB3patOSa-HViiGAQCfrYlqY55Gt-3GtyrkD0LmHlLC0BiYHtRCkpgyEm05uccbv4Ya9ybeLYrAjjfooF0gvJR6iuJtIkRrliMWM0ScPwgHkTOKjVMJjf94f0gnW4xAfJKZTg5GQM5Yth8JI2-e6pPOGc4veqB0FbpG5wC3tAgt3a07FGYkzuQYohbQwiZchO5dLff33aJsPpSVsQ3PlGKexgVqmeDo0M0eaDCRnGlBrSxQjgu5IDXVlsxQgtJitlPqYJuycrjpUUrXn93OGS5zIhuaaGknmlzby6DHkgQOg_OBj-rzHrd2hs3FWAhesoE4hPytcE2QquuT564jiNN2NJPD2HEKIE-qQdVvDhkb8ySwkwOeSUNttq-T3Z5ZfSUO4NmrmW1S8RvObRCkUMKAR5IRoTfXKPYigTP57BjUJoFLP1hcOXSV1j66YEJav9Xt4zhXJ7lC7fIaNk56oRkqgPih1UhxRwTWGVF0-wsoK7uHQZnZbt5Jn5ZTlwtSsZrs-hMZndK4gn9flyahAdP4g_9DY8ZwCXtkgLsz0beM6yOMGKRPXv-xt3XiGlfPJvu_IB9e2BrOc64R0SCAC87BmjXeg4Bz9wKyWMJ08FVKN?></g></svg>