<svg xmlns="http://www.w3.org/2000/svg" xmlns:xlink="http://www.w3.org/1999/xlink" contentStyleType="text/css" data-diagram-type="CLASS" height="914px" preserveAspectRatio="none" style="width:825px;height:914px;background:#FFFFFF;" version="1.1" viewBox="0 0 825 914" width="825px" zoomAndPan="magnify"><?plantuml 1.2026.6?><defs/><g><!--cluster bo4e--><g class="cluster" data-qualified-name="bo4e" data-source-line="11" id="ent0004"><path d="M544.07,6 L583.946,6 A3.75,3.75 0 0 1 586.446,8.5 L593.446,28.2969 L808.12,28.2969 A2.5,2.5 0 0 1 810.62,30.7969 L810.62,896.5 A2.5,2.5 0 0 1 808.12,899 L544.07,899 A2.5,2.5 0 0 1 541.57,896.5 L541.57,8.5 A2.5,2.5 0 0 1 544.07,6" fill="none" style="stroke:#000000;stroke-width:1.5;"/><line style="stroke:#000000;stroke-width:1.5;" x1="541.57" x2="593.446" y1="28.2969" y2="28.2969"/><text fill="#000000" font-family="sans-serif" font-size="14" font-weight="700" lengthAdjust="spacing" textLength="38.876" x="545.57" y="20.9951">bo4e</text></g><!--cluster bo--><g class="cluster" data-qualified-name="bo4e.bo" data-source-line="10" id="ent0002"><path d="M588.46,49 L653.294,49 A3.75,3.75 0 0 1 655.794,51.5 L662.794,71.2969 L763.72,71.2969 A2.5,2.5 0 0 1 766.22,73.7969 L766.22,281.5 A2.5,2.5 0 0 1 763.72,284 L588.46,284 A2.5,2.5 0 0 1 585.96,281.5 L585.96,51.5 A2.5,2.5 0 0 1 588.46,49" fill="#B6D7A8" style="stroke:#000000;stroke-width:1.5;"/><line style="stroke:#000000;stroke-width:1.5;" x1="585.96" x2="662.794" y1="71.2969" y2="71.2969"/><text fill="#000000" font-family="sans-serif" font-size="14" font-weight="700" lengthAdjust="spacing" textLength="63.834" x="589.96" y="63.9951">bo4e.bo</text></g><!--cluster com--><g class="cluster" data-qualified-name="bo4e.com" data-source-line="36" id="ent0007"><path d="M601.87,308 L679.5692,308 A3.75,3.75 0 0 1 682.0692,310.5 L689.0692,330.2969 L750.32,330.2969 A2.5,2.5 0 0 1 752.82,332.7969 L752.82,467.5 A2.5,2.5 0 0 1 750.32,470 L601.87,470 A2.5,2.5 0 0 1 599.37,467.5 L599.37,310.5 A2.5,2.5 0 0 1 601.87,308" fill="#E0A86C" style="stroke:#000000;stroke-width:1.5;"/><line style="stroke:#000000;stroke-width:1.5;" x1="599.37" x2="689.0692" y1="330.2969" y2="330.2969"/><text fill="#000000" font-family="sans-serif" font-size="14" font-weight="700" lengthAdjust="spacing" textLength="76.6992" x="603.37" y="322.9951">bo4e.com</text></g><!--cluster enum--><g class="cluster" data-qualified-name="bo4e.enum" data-source-line="57" id="ent0010"><path d="M568.07,494 L657.2809,494 A3.75,3.75 0 0 1 659.7809,496.5 L666.7809,516.2969 L784.12,516.2969 A2.5,2.5 0 0 1 786.62,518.7969 L786.62,872.5 A2.5,2.5 0 0 1 784.12,875 L568.07,875 A2.5,2.5 0 0 1 565.57,872.5 L565.57,496.5 A2.5,2.5 0 0 1 568.07,494" fill="#D1C358" style="stroke:#000000;stroke-width:1.5;"/><line style="stroke:#000000;stroke-width:1.5;" x1="565.57" x2="666.7809" y1="516.2969" y2="516.2969"/><text fill="#000000" font-family="sans-serif" font-size="14" font-weight="700" lengthAdjust="spacing" textLength="88.2109" x="569.57" y="508.9951">bo4e.enum</text></g><!--class Geraet--><g class="entity" data-qualified-name="bo4e.bo.Geraet" data-source-line="11" id="ent0003"><rect fill="#F1F1F1" height="37.9375" rx="2.5" ry="2.5" style="stroke:#181818;stroke-width:0.5;" width="81.8584" x="635.16" y="84.03"/><ellipse cx="650.16" cy="102.9987" fill="#ADD1B2" rx="11" ry="11" style="stroke:#181818;stroke-width:1;"/><path d="M653.1288,108.6394 Q652.5506,108.9362 651.91,109.0769 Q651.2694,109.2331 650.5663,109.2331 Q648.0663,109.2331 646.7381,107.5925 Q645.4256,105.9362 645.4256,102.8112 Q645.4256,99.6862 646.7381,98.03 Q648.0663,96.3737 650.5663,96.3737 Q651.2694,96.3737 651.91,96.53 Q652.5663,96.6862 653.1288,96.9831 L653.1288,99.7019 Q652.5038,99.1237 651.91,98.8581 Q651.3163,98.5769 650.6913,98.5769 Q649.3475,98.5769 648.66,99.655 Q647.9725,100.7175 647.9725,102.8112 Q647.9725,104.905 648.66,105.9831 Q649.3475,107.0456 650.6913,107.0456 Q651.3163,107.0456 651.91,106.78 Q652.5038,106.4987 653.1288,105.9206 L653.1288,108.6394 Z " fill="#000000"/><a href="https://bo4e.github.io/BO4E-python/v202601.0.0/api/bo.Geraet.html" target="_top" title="https://bo4e.github.io/BO4E-python/v202601.0.0/api/bo.Geraet.html" xlink:actuate="onRequest" xlink:href="https://bo4e.github.io/BO4E-python/v202601.0.0/api/bo.Geraet.html" xlink:show="new" xlink:title="https://bo4e.github.io/BO4E-python/v202601.0.0/api/bo.Geraet.html" xlink:type="simple"><text fill="#0000FF" font-family="sans-serif" font-size="14" lengthAdjust="spacing" text-decoration="underline" textLength="47.8994" x="665.1395" y="102.0251">Geraet</text></a><text fill="#000000" font-family="sans-serif" font-size="10" lengthAdjust="spacing" textLength="49.8584" x="664.16" y="114.6091">bo.Geraet</text></g><!--class Marktteilnehmer--><g class="entity" data-qualified-name="bo4e.bo.Marktteilnehmer" data-source-line="18" id="ent0005"><rect fill="#F1F1F1" height="37.9375" rx="2.5" ry="2.5" style="stroke:#181818;stroke-width:0.5;" width="148.2588" x="601.96" y="157.03"/><ellipse cx="616.96" cy="175.9987" fill="#ADD1B2" rx="11" ry="11" style="stroke:#181818;stroke-width:1;"/><path d="M619.9288,181.6394 Q619.3506,181.9362 618.71,182.0769 Q618.0694,182.2331 617.3663,182.2331 Q614.8663,182.2331 613.5381,180.5925 Q612.2256,178.9362 612.2256,175.8112 Q612.2256,172.6862 613.5381,171.03 Q614.8663,169.3737 617.3663,169.3737 Q618.0694,169.3737 618.71,169.53 Q619.3663,169.6862 619.9288,169.9831 L619.9288,172.7019 Q619.3038,172.1237 618.71,171.8581 Q618.1163,171.5769 617.4913,171.5769 Q616.1475,171.5769 615.46,172.655 Q614.7725,173.7175 614.7725,175.8112 Q614.7725,177.905 615.46,178.9831 Q616.1475,180.0456 617.4913,180.0456 Q618.1163,180.0456 618.71,179.78 Q619.3038,179.4987 619.9288,178.9206 L619.9288,181.6394 Z " fill="#000000"/><a href="https://bo4e.github.io/BO4E-python/v202601.0.0/api/bo.Marktteilnehmer.html" target="_top" title="https://bo4e.github.io/BO4E-python/v202601.0.0/api/bo.Marktteilnehmer.html" xlink:actuate="onRequest" xlink:href="https://bo4e.github.io/BO4E-python/v202601.0.0/api/bo.Marktteilnehmer.html" xlink:show="new" xlink:title="https://bo4e.github.io/BO4E-python/v202601.0.0/api/bo.Marktteilnehmer.html" xlink:type="simple"><text fill="#0000FF" font-family="sans-serif" font-size="14" lengthAdjust="spacing" text-decoration="underline" textLength="116.2588" x="630.96" y="175.0251">Marktteilnehmer</text></a><text fill="#000000" font-family="sans-serif" font-size="10" lengthAdjust="spacing" textLength="98.6865" x="639.7461" y="187.6091">bo.Marktteilnehmer</text></g><!--class Zaehler--><g class="entity" data-qualified-name="bo4e.bo.Zaehler" data-source-line="25" id="ent0006"><rect fill="#F1F1F1" height="37.9375" rx="2.5" ry="2.5" style="stroke:#181818;stroke-width:0.5;" width="86.1553" x="633.02" y="230.03"/><ellipse cx="648.02" cy="248.9987" fill="#ADD1B2" rx="11" ry="11" style="stroke:#181818;stroke-width:1;"/><path d="M650.9888,254.6394 Q650.4106,254.9362 649.77,255.0769 Q649.1294,255.2331 648.4263,255.2331 Q645.9263,255.2331 644.5981,253.5925 Q643.2856,251.9362 643.2856,248.8112 Q643.2856,245.6862 644.5981,244.03 Q645.9263,242.3737 648.4263,242.3737 Q649.1294,242.3737 649.77,242.53 Q650.4263,242.6862 650.9888,242.9831 L650.9888,245.7019 Q650.3638,245.1237 649.77,244.8581 Q649.1763,244.5769 648.5513,244.5769 Q647.2075,244.5769 646.52,245.655 Q645.8325,246.7175 645.8325,248.8112 Q645.8325,250.905 646.52,251.9831 Q647.2075,253.0456 648.5513,253.0456 Q649.1763,253.0456 649.77,252.78 Q650.3638,252.4987 650.9888,251.9206 L650.9888,254.6394 Z " fill="#000000"/><a href="https://bo4e.github.io/BO4E-python/v202601.0.0/api/bo.Zaehler.html" target="_top" title="https://bo4e.github.io/BO4E-python/v202601.0.0/api/bo.Zaehler.html" xlink:actuate="onRequest" xlink:href="https://bo4e.github.io/BO4E-python/v202601.0.0/api/bo.Zaehler.html" xlink:show="new" xlink:title="https://bo4e.github.io/BO4E-python/v202601.0.0/api/bo.Zaehler.html" xlink:type="simple"><text fill="#0000FF" font-family="sans-serif" font-size="14" lengthAdjust="spacing" text-decoration="underline" textLength="53.915" x="662.1401" y="248.0251">Zaehler</text></a><text fill="#000000" font-family="sans-serif" font-size="10" lengthAdjust="spacing" textLength="54.1553" x="662.02" y="260.6091">bo.Zaehler</text></g><!--class Preisposition--><g class="entity" data-qualified-name="bo4e.com.Preisposition" data-source-line="37" id="ent0008"><rect fill="#F1F1F1" height="37.9375" rx="2.5" ry="2.5" style="stroke:#181818;stroke-width:0.5;" width="121.4482" x="615.37" y="343.03"/><ellipse cx="630.37" cy="361.9988" fill="#ADD1B2" rx="11" ry="11" style="stroke:#181818;stroke-width:1;"/><path d="M633.3388,367.6394 Q632.7606,367.9363 632.12,368.0769 Q631.4794,368.2331 630.7763,368.2331 Q628.2763,368.2331 626.9481,366.5925 Q625.6356,364.9363 625.6356,361.8113 Q625.6356,358.6863 626.9481,357.03 Q628.2763,355.3738 630.7763,355.3738 Q631.4794,355.3738 632.12,355.53 Q632.7763,355.6863 633.3388,355.9831 L633.3388,358.7019 Q632.7138,358.1238 632.12,357.8581 Q631.5263,357.5769 630.9013,357.5769 Q629.5575,357.5769 628.87,358.655 Q628.1825,359.7175 628.1825,361.8113 Q628.1825,363.905 628.87,364.9831 Q629.5575,366.0456 630.9013,366.0456 Q631.5263,366.0456 632.12,365.78 Q632.7138,365.4988 633.3388,364.9206 L633.3388,367.6394 Z " fill="#000000"/><a href="https://bo4e.github.io/BO4E-python/v202601.0.0/api/com.Preisposition.html" target="_top" title="https://bo4e.github.io/BO4E-python/v202601.0.0/api/com.Preisposition.html" xlink:actuate="onRequest" xlink:href="https://bo4e.github.io/BO4E-python/v202601.0.0/api/com.Preisposition.html" xlink:show="new" xlink:title="https://bo4e.github.io/BO4E-python/v202601.0.0/api/com.Preisposition.html" xlink:type="simple"><text fill="#0000FF" font-family="sans-serif" font-size="14" lengthAdjust="spacing" text-decoration="underline" textLength="89.4482" x="644.37" y="361.0251">Preisposition</text></a><text fill="#000000" font-family="sans-serif" font-size="10" lengthAdjust="spacing" textLength="88.4277" x="644.8803" y="373.6091">com.Preisposition</text></g><!--class Zeitraum--><g class="entity" data-qualified-name="bo4e.com.Zeitraum" data-source-line="46" id="ent0009"><rect fill="#F1F1F1" height="37.9375" rx="2.5" ry="2.5" style="stroke:#181818;stroke-width:0.5;" width="102.5566" x="624.82" y="416.03"/><ellipse cx="639.82" cy="434.9988" fill="#ADD1B2" rx="11" ry="11" style="stroke:#181818;stroke-width:1;"/><path d="M642.7888,440.6394 Q642.2106,440.9363 641.57,441.0769 Q640.9294,441.2331 640.2263,441.2331 Q637.7263,441.2331 636.3981,439.5925 Q635.0856,437.9363 635.0856,434.8113 Q635.0856,431.6863 636.3981,430.03 Q637.7263,428.3738 640.2263,428.3738 Q640.9294,428.3738 641.57,428.53 Q642.2263,428.6863 642.7888,428.9831 L642.7888,431.7019 Q642.1638,431.1238 641.57,430.8581 Q640.9763,430.5769 640.3513,430.5769 Q639.0075,430.5769 638.32,431.655 Q637.6325,432.7175 637.6325,434.8113 Q637.6325,436.905 638.32,437.9831 Q639.0075,439.0456 640.3513,439.0456 Q640.9763,439.0456 641.57,438.78 Q642.1638,438.4988 642.7888,437.9206 L642.7888,440.6394 Z " fill="#000000"/><a href="https://bo4e.github.io/BO4E-python/v202601.0.0/api/com.Zeitraum.html" target="_top" title="https://bo4e.github.io/BO4E-python/v202601.0.0/api/com.Zeitraum.html" xlink:actuate="onRequest" xlink:href="https://bo4e.github.io/BO4E-python/v202601.0.0/api/com.Zeitraum.html" xlink:show="new" xlink:title="https://bo4e.github.io/BO4E-python/v202601.0.0/api/com.Zeitraum.html" xlink:type="simple"><text fill="#0000FF" font-family="sans-serif" font-size="14" lengthAdjust="spacing" text-decoration="underline" textLength="64.4287" x="656.884" y="434.0251">Zeitraum</text></a><text fill="#000000" font-family="sans-serif" font-size="10" lengthAdjust="spacing" textLength="70.5566" x="653.82" y="446.6091">com.Zeitraum</text></g><!--class Bilanzierungsmethode--><g class="entity" data-qualified-name="bo4e.enum.Bilanzierungsmethode" data-source-line="58" id="ent0011"><rect fill="#F1F1F1" height="37.9375" rx="2.5" ry="2.5" style="stroke:#181818;stroke-width:0.5;" width="189.0488" x="581.57" y="529.03"/><ellipse cx="596.57" cy="547.9988" fill="#ADD1B2" rx="11" ry="11" style="stroke:#181818;stroke-width:1;"/><path d="M599.5388,553.6394 Q598.9606,553.9363 598.32,554.0769 Q597.6794,554.2331 596.9763,554.2331 Q594.4763,554.2331 593.1481,552.5925 Q591.8356,550.9363 591.8356,547.8113 Q591.8356,544.6863 593.1481,543.03 Q594.4763,541.3738 596.9763,541.3738 Q597.6794,541.3738 598.32,541.53 Q598.9763,541.6863 599.5388,541.9831 L599.5388,544.7019 Q598.9138,544.1238 598.32,543.8581 Q597.7263,543.5769 597.1013,543.5769 Q595.7575,543.5769 595.07,544.655 Q594.3825,545.7175 594.3825,547.8113 Q594.3825,549.905 595.07,550.9831 Q595.7575,552.0456 597.1013,552.0456 Q597.7263,552.0456 598.32,551.78 Q598.9138,551.4988 599.5388,550.9206 L599.5388,553.6394 Z " fill="#000000"/><a href="https://bo4e.github.io/BO4E-python/v202601.0.0/api/enum.Bilanzierungsmethode.html" target="_top" title="https://bo4e.github.io/BO4E-python/v202601.0.0/api/enum.Bilanzierungsmethode.html" xlink:actuate="onRequest" xlink:href="https://bo4e.github.io/BO4E-python/v202601.0.0/api/enum.Bilanzierungsmethode.html" xlink:show="new" xlink:title="https://bo4e.github.io/BO4E-python/v202601.0.0/api/enum.Bilanzierungsmethode.html" xlink:type="simple"><text fill="#0000FF" font-family="sans-serif" font-size="14" lengthAdjust="spacing" text-decoration="underline" textLength="157.0488" x="610.57" y="547.0251">Bilanzierungsmethode</text></a><text fill="#000000" font-family="sans-serif" font-size="10" lengthAdjust="spacing" textLength="143.9258" x="617.1315" y="559.6091">enum.Bilanzierungsmethode</text></g><!--class Dienstleistungstyp--><g class="entity" data-qualified-name="bo4e.enum.Dienstleistungstyp" data-source-line="60" id="ent0012"><rect fill="#F1F1F1" height="37.9375" rx="2.5" ry="2.5" style="stroke:#181818;stroke-width:0.5;" width="162.7031" x="594.74" y="602.03"/><ellipse cx="609.74" cy="620.9988" fill="#ADD1B2" rx="11" ry="11" style="stroke:#181818;stroke-width:1;"/><path d="M612.7088,626.6394 Q612.1306,626.9363 611.49,627.0769 Q610.8494,627.2331 610.1463,627.2331 Q607.6463,627.2331 606.3181,625.5925 Q605.0056,623.9363 605.0056,620.8113 Q605.0056,617.6863 606.3181,616.03 Q607.6463,614.3738 610.1463,614.3738 Q610.8494,614.3738 611.49,614.53 Q612.1463,614.6863 612.7088,614.9831 L612.7088,617.7019 Q612.0838,617.1238 611.49,616.8581 Q610.8963,616.5769 610.2713,616.5769 Q608.9275,616.5769 608.24,617.655 Q607.5525,618.7175 607.5525,620.8113 Q607.5525,622.905 608.24,623.9831 Q608.9275,625.0456 610.2713,625.0456 Q610.8963,625.0456 611.49,624.78 Q612.0838,624.4988 612.7088,623.9206 L612.7088,626.6394 Z " fill="#000000"/><a href="https://bo4e.github.io/BO4E-python/v202601.0.0/api/enum.Dienstleistungstyp.html" target="_top" title="https://bo4e.github.io/BO4E-python/v202601.0.0/api/enum.Dienstleistungstyp.html" xlink:actuate="onRequest" xlink:href="https://bo4e.github.io/BO4E-python/v202601.0.0/api/enum.Dienstleistungstyp.html" xlink:show="new" xlink:title="https://bo4e.github.io/BO4E-python/v202601.0.0/api/enum.Dienstleistungstyp.html" xlink:type="simple"><text fill="#0000FF" font-family="sans-serif" font-size="14" lengthAdjust="spacing" text-decoration="underline" textLength="130.7031" x="623.74" y="620.0251">Dienstleistungstyp</text></a><text fill="#000000" font-family="sans-serif" font-size="10" lengthAdjust="spacing" textLength="125.1074" x="626.5379" y="632.6091">enum.Dienstleistungstyp</text></g><!--class Netzebene--><g class="entity" data-qualified-name="bo4e.enum.Netzebene" data-source-line="62" id="ent0013"><rect fill="#F1F1F1" height="37.9375" rx="2.5" ry="2.5" style="stroke:#181818;stroke-width:0.5;" width="117.6934" x="617.25" y="675.03"/><ellipse cx="632.25" cy="693.9988" fill="#ADD1B2" rx="11" ry="11" style="stroke:#181818;stroke-width:1;"/><path d="M635.2188,699.6394 Q634.6406,699.9363 634,700.0769 Q633.3594,700.2331 632.6563,700.2331 Q630.1563,700.2331 628.8281,698.5925 Q627.5156,696.9363 627.5156,693.8113 Q627.5156,690.6863 628.8281,689.03 Q630.1563,687.3738 632.6563,687.3738 Q633.3594,687.3738 634,687.53 Q634.6563,687.6863 635.2188,687.9831 L635.2188,690.7019 Q634.5938,690.1238 634,689.8581 Q633.4063,689.5769 632.7813,689.5769 Q631.4375,689.5769 630.75,690.655 Q630.0625,691.7175 630.0625,693.8113 Q630.0625,695.905 630.75,696.9831 Q631.4375,698.0456 632.7813,698.0456 Q633.4063,698.0456 634,697.78 Q634.5938,697.4988 635.2188,696.9206 L635.2188,699.6394 Z " fill="#000000"/><a href="https://bo4e.github.io/BO4E-python/v202601.0.0/api/enum.Netzebene.html" target="_top" title="https://bo4e.github.io/BO4E-python/v202601.0.0/api/enum.Netzebene.html" xlink:actuate="onRequest" xlink:href="https://bo4e.github.io/BO4E-python/v202601.0.0/api/enum.Netzebene.html" xlink:show="new" xlink:title="https://bo4e.github.io/BO4E-python/v202601.0.0/api/enum.Netzebene.html" xlink:type="simple"><text fill="#0000FF" font-family="sans-serif" font-size="14" lengthAdjust="spacing" text-decoration="underline" textLength="75.5234" x="651.335" y="693.0251">Netzebene</text></a><text fill="#000000" font-family="sans-serif" font-size="10" lengthAdjust="spacing" textLength="85.6934" x="646.25" y="705.6091">enum.Netzebene</text></g><!--class Preisstatus--><g class="entity" data-qualified-name="bo4e.enum.Preisstatus" data-source-line="64" id="ent0014"><rect fill="#F1F1F1" height="37.9375" rx="2.5" ry="2.5" style="stroke:#181818;stroke-width:0.5;" width="118.7578" x="616.71" y="748.03"/><ellipse cx="631.71" cy="766.9988" fill="#ADD1B2" rx="11" ry="11" style="stroke:#181818;stroke-width:1;"/><path d="M634.6788,772.6394 Q634.1006,772.9363 633.46,773.0769 Q632.8194,773.2331 632.1163,773.2331 Q629.6163,773.2331 628.2881,771.5925 Q626.9756,769.9363 626.9756,766.8113 Q626.9756,763.6863 628.2881,762.03 Q629.6163,760.3738 632.1163,760.3738 Q632.8194,760.3738 633.46,760.53 Q634.1163,760.6863 634.6788,760.9831 L634.6788,763.7019 Q634.0538,763.1238 633.46,762.8581 Q632.8663,762.5769 632.2413,762.5769 Q630.8975,762.5769 630.21,763.655 Q629.5225,764.7175 629.5225,766.8113 Q629.5225,768.905 630.21,769.9831 Q630.8975,771.0456 632.2413,771.0456 Q632.8663,771.0456 633.46,770.78 Q634.0538,770.4988 634.6788,769.9206 L634.6788,772.6394 Z " fill="#000000"/><a href="https://bo4e.github.io/BO4E-python/v202601.0.0/api/enum.Preisstatus.html" target="_top" title="https://bo4e.github.io/BO4E-python/v202601.0.0/api/enum.Preisstatus.html" xlink:actuate="onRequest" xlink:href="https://bo4e.github.io/BO4E-python/v202601.0.0/api/enum.Preisstatus.html" xlink:show="new" xlink:title="https://bo4e.github.io/BO4E-python/v202601.0.0/api/enum.Preisstatus.html" xlink:type="simple"><text fill="#0000FF" font-family="sans-serif" font-size="14" lengthAdjust="spacing" text-decoration="underline" textLength="77.0137" x="650.5821" y="766.0251">Preisstatus</text></a><text fill="#000000" font-family="sans-serif" font-size="10" lengthAdjust="spacing" textLength="86.7578" x="645.71" y="778.6091">enum.Preisstatus</text></g><!--class Sparte--><g class="entity" data-qualified-name="bo4e.enum.Sparte" data-source-line="66" id="ent0015"><rect fill="#F1F1F1" height="37.9375" rx="2.5" ry="2.5" style="stroke:#181818;stroke-width:0.5;" width="96.7559" x="627.72" y="821.03"/><ellipse cx="642.72" cy="839.9988" fill="#ADD1B2" rx="11" ry="11" style="stroke:#181818;stroke-width:1;"/><path d="M645.6888,845.6394 Q645.1106,845.9363 644.47,846.0769 Q643.8294,846.2331 643.1263,846.2331 Q640.6263,846.2331 639.2981,844.5925 Q637.9856,842.9363 637.9856,839.8113 Q637.9856,836.6863 639.2981,835.03 Q640.6263,833.3738 643.1263,833.3738 Q643.8294,833.3738 644.47,833.53 Q645.1263,833.6863 645.6888,833.9831 L645.6888,836.7019 Q645.0638,836.1238 644.47,835.8581 Q643.8763,835.5769 643.2513,835.5769 Q641.9075,835.5769 641.22,836.655 Q640.5325,837.7175 640.5325,839.8113 Q640.5325,841.905 641.22,842.9831 Q641.9075,844.0456 643.2513,844.0456 Q643.8763,844.0456 644.47,843.78 Q645.0638,843.4988 645.6888,842.9206 L645.6888,845.6394 Z " fill="#000000"/><a href="https://bo4e.github.io/BO4E-python/v202601.0.0/api/enum.Sparte.html" target="_top" title="https://bo4e.github.io/BO4E-python/v202601.0.0/api/enum.Sparte.html" xlink:actuate="onRequest" xlink:href="https://bo4e.github.io/BO4E-python/v202601.0.0/api/enum.Sparte.html" xlink:show="new" xlink:title="https://bo4e.github.io/BO4E-python/v202601.0.0/api/enum.Sparte.html" xlink:type="simple"><text fill="#0000FF" font-family="sans-serif" font-size="14" lengthAdjust="spacing" text-decoration="underline" textLength="46.2109" x="665.9925" y="839.0251">Sparte</text></a><text fill="#000000" font-family="sans-serif" font-size="10" lengthAdjust="spacing" textLength="64.7559" x="656.72" y="851.6091">enum.Sparte</text></g><!--class PreisblattMessung--><g class="entity" data-qualified-name="PreisblattMessung" data-source-line="3" id="ent0001"><rect fill="#F1F1F1" height="111.125" rx="2.5" ry="2.5" style="stroke:#181818;stroke-width:0.5;" width="319.5693" x="7" y="453.44"/><ellipse cx="98.4136" cy="472.4088" fill="#ADD1B2" rx="11" ry="11" style="stroke:#181818;stroke-width:1;"/><path d="M101.3823,478.0494 Q100.8042,478.3463 100.1636,478.4869 Q99.5229,478.6431 98.8198,478.6431 Q96.3198,478.6431 94.9917,477.0025 Q93.6792,475.3463 93.6792,472.2213 Q93.6792,469.0963 94.9917,467.44 Q96.3198,465.7838 98.8198,465.7838 Q99.5229,465.7838 100.1636,465.94 Q100.8198,466.0963 101.3823,466.3931 L101.3823,469.1119 Q100.7573,468.5338 100.1636,468.2681 Q99.5698,467.9869 98.9448,467.9869 Q97.6011,467.9869 96.9136,469.065 Q96.2261,470.1275 96.2261,472.2213 Q96.2261,474.315 96.9136,475.3931 Q97.6011,476.4556 98.9448,476.4556 Q99.5698,476.4556 100.1636,476.19 Q100.7573,475.9088 101.3823,475.3306 L101.3823,478.0494 Z " fill="#000000"/><a href="https://bo4e.github.io/BO4E-python/v202601.0.0/api/bo.PreisblattMessung.html" target="_top" title="https://bo4e.github.io/BO4E-python/v202601.0.0/api/bo.PreisblattMessung.html" xlink:actuate="onRequest" xlink:href="https://bo4e.github.io/BO4E-python/v202601.0.0/api/bo.PreisblattMessung.html" xlink:show="new" xlink:title="https://bo4e.github.io/BO4E-python/v202601.0.0/api/bo.PreisblattMessung.html" xlink:type="simple"><text fill="#0000FF" font-family="sans-serif" font-size="14" lengthAdjust="spacing" text-decoration="underline" textLength="128.2422" x="118.9136" y="471.4351">PreisblattMessung</text></a><text fill="#000000" font-family="sans-serif" font-size="10" lengthAdjust="spacing" textLength="107.2461" x="129.4116" y="484.0191">bo.PreisblattMessung</text><line style="stroke:#181818;stroke-width:0.5;" x1="8" x2="325.5693" y1="491.3775" y2="491.3775"/><text fill="#000000" font-family="sans-serif" font-size="14" lengthAdjust="spacing" textLength="94.0215" x="13" y="508.3726">_id : str [0..1]</text><text fill="#000000" font-family="sans-serif" font-size="14" lengthAdjust="spacing" textLength="307.5693" x="13" y="524.6695">_typ : Literal["PREISBLATTMESSUNG"] [0..1]</text><text fill="#000000" font-family="sans-serif" font-size="14" lengthAdjust="spacing" textLength="132.5215" x="13" y="540.9664">_version : str [0..1]</text><text fill="#000000" font-family="sans-serif" font-size="14" lengthAdjust="spacing" textLength="163.6729" x="13" y="557.2632">bezeichnung : str [0..1]</text></g><!--link PreisblattMessung to Geraet--><g class="link" data-entity-1="ent0001" data-entity-2="ent0003" data-link-type="composition" data-source-line="70" id="lnk16"><path codeLine="70" d="M183.78,453.19 C208.25,378.18 262.37,246.16 356.57,176 C440.86,113.22 557.9509,103.2197 622.8709,102.4097" fill="none" id="PreisblattMessung-to-Geraet" style="stroke:#181818;stroke-width:1;"/><polygon fill="#181818" points="634.87,102.26,628.8206,98.3352,622.8709,102.4097,628.9204,106.3345,634.87,102.26" style="stroke:#181818;stroke-width:1;stroke-linejoin:miter;stroke-miterlimit:10;"/><text fill="#000000" font-family="sans-serif" font-size="13" lengthAdjust="spacing" textLength="109.7827" x="386.57" y="108.8969">inklusiveGeraete</text><text fill="#000000" font-family="sans-serif" font-size="13" lengthAdjust="spacing" textLength="23.0356" x="604.1295" y="115.3297">0..*</text></g><!--link PreisblattMessung to Marktteilnehmer--><g class="link" data-entity-1="ent0001" data-entity-2="ent0005" data-link-type="composition" data-source-line="71" id="lnk17"><path codeLine="71" d="M198.92,453.03 C231.6,399.13 287.76,318.93 356.57,271 C430.67,219.38 521.3582,197.2502 589.8782,186.3802" fill="none" id="PreisblattMessung-to-Marktteilnehmer" style="stroke:#181818;stroke-width:1;"/><polygon fill="#181818" points="601.73,184.5,595.1774,181.4895,589.8782,186.3802,596.4308,189.3907,601.73,184.5" style="stroke:#181818;stroke-width:1;stroke-linejoin:miter;stroke-miterlimit:10;"/><text fill="#000000" font-family="sans-serif" font-size="13" lengthAdjust="spacing" textLength="82.4053" x="400.07" y="197.1469">herausgeber</text><text fill="#000000" font-family="sans-serif" font-size="13" lengthAdjust="spacing" textLength="24.8066" x="569.2687" y="198.1486">0..1</text></g><!--link PreisblattMessung to Zaehler--><g class="link" data-entity-1="ent0001" data-entity-2="ent0006" data-link-type="composition" data-source-line="72" id="lnk18"><path codeLine="72" d="M230.83,453.19 C266.03,424.08 311.72,389.53 356.57,365 C449.77,314.03 558.3192,280.4508 621.0692,263.2008" fill="none" id="PreisblattMessung-to-Zaehler" style="stroke:#181818;stroke-width:1;"/><polygon fill="#181818" points="632.64,260.02,625.7944,257.7535,621.0692,263.2008,627.9149,265.4673,632.64,260.02" style="stroke:#181818;stroke-width:1;stroke-linejoin:miter;stroke-miterlimit:10;"/><text fill="#000000" font-family="sans-serif" font-size="13" lengthAdjust="spacing" textLength="47.9819" x="417.57" y="291.8669">zaehler</text><text fill="#000000" font-family="sans-serif" font-size="13" lengthAdjust="spacing" textLength="24.8066" x="600.2098" y="274.9331">0..1</text></g><!--link PreisblattMessung to Preisposition--><g class="link" data-entity-1="ent0001" data-entity-2="ent0008" data-link-type="composition" data-source-line="73" id="lnk19"><path codeLine="73" d="M296.71,453.02 C316.56,445.39 336.97,438.1 356.57,432 C444.96,404.48 538.5561,385.6654 603.1961,374.1454" fill="none" id="PreisblattMessung-to-Preisposition" style="stroke:#181818;stroke-width:1;"/><polygon fill="#181818" points="615.01,372.04,608.4013,369.1548,603.1961,374.1454,609.8049,377.0307,615.01,372.04" style="stroke:#181818;stroke-width:1;stroke-linejoin:miter;stroke-miterlimit:10;"/><text fill="#000000" font-family="sans-serif" font-size="13" lengthAdjust="spacing" textLength="99.709" x="391.57" y="386.5469">preispositionen</text><text fill="#000000" font-family="sans-serif" font-size="13" lengthAdjust="spacing" textLength="23.0356" x="584.5266" y="385.9227">0..*</text></g><!--link PreisblattMessung to Zeitraum--><g class="link" data-entity-1="ent0001" data-entity-2="ent0009" data-link-type="composition" data-source-line="74" id="lnk20"><path codeLine="74" d="M326.91,485.79 C429.34,470.85 543.8957,454.1421 612.7257,444.1021" fill="none" id="PreisblattMessung-to-Zeitraum" style="stroke:#181818;stroke-width:1;"/><polygon fill="#181818" points="624.6,442.37,618.0855,439.2779,612.7257,444.1021,619.2402,447.1941,624.6,442.37" style="stroke:#181818;stroke-width:1;stroke-linejoin:miter;stroke-miterlimit:10;"/><text fill="#000000" font-family="sans-serif" font-size="13" lengthAdjust="spacing" textLength="69.2974" x="406.57" y="452.9369">gueltigkeit</text><text fill="#000000" font-family="sans-serif" font-size="13" lengthAdjust="spacing" textLength="24.8066" x="592.1216" y="456.4441">0..1</text></g><!--link PreisblattMessung to Bilanzierungsmethode--><g class="link" data-entity-1="ent0001" data-entity-2="ent0011" data-link-type="composition" data-source-line="75" id="lnk21"><path codeLine="75" d="M326.91,521.23 C410.45,527.66 497.9954,534.3791 569.1954,539.8591" fill="none" id="PreisblattMessung-to-Bilanzierungsmethode" style="stroke:#181818;stroke-width:1;"/><polygon fill="#181818" points="581.16,540.78,575.4847,536.3314,569.1954,539.8591,574.8707,544.3078,581.16,540.78" style="stroke:#181818;stroke-width:1;stroke-linejoin:miter;stroke-miterlimit:10;"/><text fill="#000000" font-family="sans-serif" font-size="13" lengthAdjust="spacing" textLength="145.1646" x="368.57" y="519.9269">bilanzierungsmethode</text><text fill="#000000" font-family="sans-serif" font-size="13" lengthAdjust="spacing" textLength="24.8066" x="548.6708" y="552.8746">0..1</text></g><!--link PreisblattMessung to Dienstleistungstyp--><g class="link" data-entity-1="ent0001" data-entity-2="ent0012" data-link-type="composition" data-source-line="76" id="lnk22"><path codeLine="76" d="M326.94,553.84 C336.94,556.35 346.88,558.76 356.57,561 C437.02,579.62 518.0835,594.5767 582.7035,605.6867" fill="none" id="PreisblattMessung-to-Dienstleistungstyp" style="stroke:#181818;stroke-width:1;"/><polygon fill="#181818" points="594.53,607.72,589.2945,602.7612,582.7035,605.6867,587.939,610.6455,594.53,607.72" style="stroke:#181818;stroke-width:1;stroke-linejoin:miter;stroke-miterlimit:10;"/><text fill="#000000" font-family="sans-serif" font-size="13" lengthAdjust="spacing" textLength="167.0957" x="357.57" y="557.0669">inklusiveDienstleistungen</text><text fill="#000000" font-family="sans-serif" font-size="13" lengthAdjust="spacing" textLength="23.0356" x="563.8248" y="619.3138">0..*</text></g><!--link PreisblattMessung to Netzebene--><g class="link" data-entity-1="ent0001" data-entity-2="ent0013" data-link-type="composition" data-source-line="77" id="lnk23"><path codeLine="77" d="M250.51,564.99 C282.54,584.67 320.2,605.48 356.57,620 C443.96,654.89 539.8568,673.7488 604.9768,684.0288" fill="none" id="PreisblattMessung-to-Netzebene" style="stroke:#181818;stroke-width:1;"/><polygon fill="#181818" points="616.83,685.9,611.5271,681.0133,604.9768,684.0288,610.2797,688.9155,616.83,685.9" style="stroke:#181818;stroke-width:1;stroke-linejoin:miter;stroke-miterlimit:10;"/><text fill="#000000" font-family="sans-serif" font-size="13" lengthAdjust="spacing" textLength="74.6929" x="404.07" y="616.0669">messebene</text><text fill="#000000" font-family="sans-serif" font-size="13" lengthAdjust="spacing" textLength="24.8066" x="584.6364" y="697.9053">0..1</text></g><!--link PreisblattMessung to Preisstatus--><g class="link" data-entity-1="ent0001" data-entity-2="ent0014" data-link-type="composition" data-source-line="78" id="lnk24"><path codeLine="78" d="M210.64,564.82 C245.51,606.36 298.34,661.16 356.57,693 C439.63,738.42 537.6917,754.8547 604.2917,761.6347" fill="none" id="PreisblattMessung-to-Preisstatus" style="stroke:#181818;stroke-width:1;"/><polygon fill="#181818" points="616.23,762.85,610.666,758.2629,604.2917,761.6347,609.8557,766.2218,616.23,762.85" style="stroke:#181818;stroke-width:1;stroke-linejoin:miter;stroke-miterlimit:10;"/><text fill="#000000" font-family="sans-serif" font-size="13" lengthAdjust="spacing" textLength="71.9253" x="405.57" y="689.0669">preisstatus</text><text fill="#000000" font-family="sans-serif" font-size="13" lengthAdjust="spacing" textLength="24.8066" x="583.9679" y="775.3121">0..1</text></g><!--link PreisblattMessung to Sparte--><g class="link" data-entity-1="ent0001" data-entity-2="ent0015" data-link-type="composition" data-source-line="79" id="lnk25"><path codeLine="79" d="M192.12,564.96 C221.8,626.26 277.92,722.69 356.57,774 C440.52,828.77 549.1924,839.0804 615.2924,840.4004" fill="none" id="PreisblattMessung-to-Sparte" style="stroke:#181818;stroke-width:1;"/><polygon fill="#181818" points="627.29,840.64,621.3711,836.521,615.2924,840.4004,621.2113,844.5194,627.29,840.64" style="stroke:#181818;stroke-width:1;stroke-linejoin:miter;stroke-miterlimit:10;"/><text fill="#000000" font-family="sans-serif" font-size="13" lengthAdjust="spacing" textLength="41.4312" x="420.57" y="770.0669">sparte</text><text fill="#000000" font-family="sans-serif" font-size="13" lengthAdjust="spacing" textLength="24.8066" x="594.7956" y="853.8611">0..1</text></g><?plantuml-src jLTRRzem57xdLrZqhL83xD9DqJG9jgn3WxO2zb9MJGuv91QE7TbEfp7rl-yaJhWaAIiguyddPd_-pYM6mz8G8ubYOMH8m1Gi39EYrLfmgZLfp-UHCObsEnrVlW4dP2PAVOV9pk3cZNUH_3QH59s7LzrNbzsUqtMw7PemT7Lk5J3jSshC6BHEHUX49kQafhw__o4-QBO6jzVzs1JN9bJNmyYV5i7VJnOGbsYZoBphEBrxgpI_4zIEc055-RnzE_66qy6eFvkDlUdq-_LL-txF_G6KnYlND_9X3MmHYUoyFUDZgoLe33gX2o3jd1XVva2BDJaRN7v-rtzVm7mXbrTu3p2MGBkkicQrEGAxF8QVAs_IzsOl9YKpXldX8D8u1bNbx0HCZAbQ6GEC2uZm14j9HLdbfcBEIQheZc5ht9zycysyuUZQ-phs9i-bBQOhIGE5rGjev4oRENhOu7FheYJd81Oo-7_ytL68UCbR8LJvAjGvJyNw67xk-jxNqVDvoMe9Isd0DDe2Qi2m67OTaAale0HDDGVjqumLNqg-wyB1h0ruTgSdjbdRcwoaq8OAaoLXoIKr3JxDx3_MMduXustFeq3El6x__UMd4pGzxcOdOI8ro-RnplGiLNjvgmLinsQfENfatjvCXxFXpVLpKxd4qs8G8Gmu4m5LFZ3JHFF6RuJe3APCB-dAIDNa6weqIK1GPTWA-B01EYytEJ2jJv6EExoDecbSz4uXrP9G6cpx5C9H_UCDPvF-z_5pMGzeMYtMlAz4W6s0Hzjsg9ZIIArjTgfzWjsXp5EHkR4vjgb1iZcsxP1C8cT1R_7wxIc-Yzbspe1nAjOCL5O0CQ1Z03P1JPQzP3qPdoDkCY3enzF0_im0nz2cSh42BEYwlWwvxfC3hgjF1_SQvolu80fgDs8TtCQKOzf8fuEIJpGiGvFgdP5e5NKuEyRjFBJowI1D4soAWXgxhWEn-Xo3NUR7upEo_h2zk3WdxUnHq2wVSYvXOiLJpHx0Qk10MAzTUzou9CAmL8UO2tKujFpUk-Mty330_U-BIv9T6SG_pYg7eql25BXXuGerXsCQsn8V10tgmyWRscM7vdthlowoBNENnDa3BriV3jajn88sAnqEAse7Xts-QBKYXlUF8SR4wfQEv2zI_mD5bWnueFy2?></g></svg>