<svg xmlns="http://www.w3.org/2000/svg" xmlns:xlink="http://www.w3.org/1999/xlink" contentStyleType="text/css" data-diagram-type="CLASS" height="250px" preserveAspectRatio="none" style="width:775px;height:250px;background:#FFFFFF;" version="1.1" viewBox="0 0 775 250" width="775px" zoomAndPan="magnify"><?plantuml 1.2026.6?><defs/><g><!--cluster bo4e--><g class="cluster" data-qualified-name="bo4e" data-source-line="11" id="ent0004"><path d="M503.51,6 L543.386,6 A3.75,3.75 0 0 1 545.886,8.5 L552.886,28.2969 L757.85,28.2969 A2.5,2.5 0 0 1 760.35,30.7969 L760.35,232.5 A2.5,2.5 0 0 1 757.85,235 L503.51,235 A2.5,2.5 0 0 1 501.01,232.5 L501.01,8.5 A2.5,2.5 0 0 1 503.51,6" fill="none" style="stroke:#000000;stroke-width:1.5;"/><line style="stroke:#000000;stroke-width:1.5;" x1="501.01" x2="552.886" y1="28.2969" y2="28.2969"/><text fill="#000000" font-family="sans-serif" font-size="14" font-weight="700" lengthAdjust="spacing" textLength="38.876" x="505.01" y="20.9951">bo4e</text></g><!--cluster com--><g class="cluster" data-qualified-name="bo4e.com" data-source-line="10" id="ent0002"><path d="M527.51,49 L605.2092,49 A3.75,3.75 0 0 1 607.7092,51.5 L614.7092,71.2969 L733.85,71.2969 A2.5,2.5 0 0 1 736.35,73.7969 L736.35,208.5 A2.5,2.5 0 0 1 733.85,211 L527.51,211 A2.5,2.5 0 0 1 525.01,208.5 L525.01,51.5 A2.5,2.5 0 0 1 527.51,49" fill="#E0A86C" style="stroke:#000000;stroke-width:1.5;"/><line style="stroke:#000000;stroke-width:1.5;" x1="525.01" x2="614.7092" y1="71.2969" y2="71.2969"/><text fill="#000000" font-family="sans-serif" font-size="14" font-weight="700" lengthAdjust="spacing" textLength="76.6992" x="529.01" y="63.9951">bo4e.com</text></g><!--class Betrag--><g class="entity" data-qualified-name="bo4e.com.Betrag" data-source-line="11" id="ent0003"><rect fill="#F1F1F1" height="37.9375" rx="2.5" ry="2.5" style="stroke:#181818;stroke-width:0.5;" width="90.0566" x="585.65" y="84.03"/><ellipse cx="600.65" cy="102.9988" fill="#ADD1B2" rx="11" ry="11" style="stroke:#181818;stroke-width:1;"/><path d="M603.6188,108.6394 Q603.0406,108.9363 602.4,109.0769 Q601.7594,109.2331 601.0563,109.2331 Q598.5563,109.2331 597.2281,107.5925 Q595.9156,105.9363 595.9156,102.8113 Q595.9156,99.6863 597.2281,98.03 Q598.5563,96.3738 601.0563,96.3738 Q601.7594,96.3738 602.4,96.53 Q603.0563,96.6863 603.6188,96.9831 L603.6188,99.7019 Q602.9938,99.1238 602.4,98.8581 Q601.8063,98.5769 601.1813,98.5769 Q599.8375,98.5769 599.15,99.655 Q598.4625,100.7175 598.4625,102.8113 Q598.4625,104.905 599.15,105.9831 Q599.8375,107.0456 601.1813,107.0456 Q601.8063,107.0456 602.4,106.78 Q602.9938,106.4988 603.6188,105.9206 L603.6188,108.6394 Z " fill="#000000"/><a href="https://bo4e.github.io/BO4E-python/v202601.0.0/api/com.Betrag.html" target="_top" title="https://bo4e.github.io/BO4E-python/v202601.0.0/api/com.Betrag.html" xlink:actuate="onRequest" xlink:href="https://bo4e.github.io/BO4E-python/v202601.0.0/api/com.Betrag.html" xlink:show="new" xlink:title="https://bo4e.github.io/BO4E-python/v202601.0.0/api/com.Betrag.html" xlink:type="simple"><text fill="#0000FF" font-family="sans-serif" font-size="14" lengthAdjust="spacing" text-decoration="underline" textLength="46.9287" x="620.214" y="102.0251">Betrag</text></a><text fill="#000000" font-family="sans-serif" font-size="10" lengthAdjust="spacing" textLength="58.0566" x="614.65" y="114.6091">com.Betrag</text></g><!--class Fremdkostenposition--><g class="entity" data-qualified-name="bo4e.com.Fremdkostenposition" data-source-line="17" id="ent0005"><rect fill="#F1F1F1" height="37.9375" rx="2.5" ry="2.5" style="stroke:#181818;stroke-width:0.5;" width="179.3418" x="541.01" y="157.03"/><ellipse cx="556.01" cy="175.9988" fill="#ADD1B2" rx="11" ry="11" style="stroke:#181818;stroke-width:1;"/><path d="M558.9788,181.6394 Q558.4006,181.9363 557.76,182.0769 Q557.1194,182.2331 556.4163,182.2331 Q553.9163,182.2331 552.5881,180.5925 Q551.2756,178.9363 551.2756,175.8113 Q551.2756,172.6863 552.5881,171.03 Q553.9163,169.3738 556.4163,169.3738 Q557.1194,169.3738 557.76,169.53 Q558.4163,169.6863 558.9788,169.9831 L558.9788,172.7019 Q558.3538,172.1238 557.76,171.8581 Q557.1663,171.5769 556.5413,171.5769 Q555.1975,171.5769 554.51,172.655 Q553.8225,173.7175 553.8225,175.8113 Q553.8225,177.905 554.51,178.9831 Q555.1975,180.0456 556.5413,180.0456 Q557.1663,180.0456 557.76,179.78 Q558.3538,179.4988 558.9788,178.9206 L558.9788,181.6394 Z " fill="#000000"/><a href="https://bo4e.github.io/BO4E-python/v202601.0.0/api/com.Fremdkostenposition.html" target="_top" title="https://bo4e.github.io/BO4E-python/v202601.0.0/api/com.Fremdkostenposition.html" xlink:actuate="onRequest" xlink:href="https://bo4e.github.io/BO4E-python/v202601.0.0/api/com.Fremdkostenposition.html" xlink:show="new" xlink:title="https://bo4e.github.io/BO4E-python/v202601.0.0/api/com.Fremdkostenposition.html" xlink:type="simple"><text fill="#0000FF" font-family="sans-serif" font-size="14" lengthAdjust="spacing" text-decoration="underline" textLength="147.3418" x="570.01" y="175.0251">Fremdkostenposition</text></a><text fill="#000000" font-family="sans-serif" font-size="10" lengthAdjust="spacing" textLength="129.7803" x="578.7908" y="187.6091">com.Fremdkostenposition</text></g><!--class Fremdkostenblock--><g class="entity" data-qualified-name="Fremdkostenblock" data-source-line="3" id="ent0001"><rect fill="#F1F1F1" height="111.125" rx="2.5" ry="2.5" style="stroke:#181818;stroke-width:0.5;" width="319.0088" x="7" y="84.44"/><ellipse cx="97.7368" cy="103.4088" fill="#ADD1B2" rx="11" ry="11" style="stroke:#181818;stroke-width:1;"/><path d="M100.7056,109.0494 Q100.1274,109.3463 99.4868,109.4869 Q98.8462,109.6431 98.1431,109.6431 Q95.6431,109.6431 94.3149,108.0025 Q93.0024,106.3463 93.0024,103.2213 Q93.0024,100.0963 94.3149,98.44 Q95.6431,96.7838 98.1431,96.7838 Q98.8462,96.7838 99.4868,96.94 Q100.1431,97.0963 100.7056,97.3931 L100.7056,100.1119 Q100.0806,99.5338 99.4868,99.2681 Q98.8931,98.9869 98.2681,98.9869 Q96.9243,98.9869 96.2368,100.065 Q95.5493,101.1275 95.5493,103.2213 Q95.5493,105.315 96.2368,106.3931 Q96.9243,107.4556 98.2681,107.4556 Q98.8931,107.4556 99.4868,107.19 Q100.0806,106.9088 100.7056,106.3306 L100.7056,109.0494 Z " fill="#000000"/><a href="https://bo4e.github.io/BO4E-python/v202601.0.0/api/com.Fremdkostenblock.html" target="_top" title="https://bo4e.github.io/BO4E-python/v202601.0.0/api/com.Fremdkostenblock.html" xlink:actuate="onRequest" xlink:href="https://bo4e.github.io/BO4E-python/v202601.0.0/api/com.Fremdkostenblock.html" xlink:show="new" xlink:title="https://bo4e.github.io/BO4E-python/v202601.0.0/api/com.Fremdkostenblock.html" xlink:type="simple"><text fill="#0000FF" font-family="sans-serif" font-size="14" lengthAdjust="spacing" text-decoration="underline" textLength="129.0352" x="118.2368" y="102.4351">Fremdkostenblock</text></a><text fill="#000000" font-family="sans-serif" font-size="10" lengthAdjust="spacing" textLength="116.7041" x="124.4023" y="115.0191">com.Fremdkostenblock</text><line style="stroke:#181818;stroke-width:0.5;" x1="8" x2="325.0088" y1="122.3775" y2="122.3775"/><text fill="#000000" font-family="sans-serif" font-size="14" lengthAdjust="spacing" textLength="94.0215" x="13" y="139.3726">_id : str [0..1]</text><text fill="#000000" font-family="sans-serif" font-size="14" lengthAdjust="spacing" textLength="307.0088" x="13" y="155.6695">_typ : Literal["FREMDKOSTENBLOCK"] [0..1]</text><text fill="#000000" font-family="sans-serif" font-size="14" lengthAdjust="spacing" textLength="132.5215" x="13" y="171.9664">_version : str [0..1]</text><text fill="#000000" font-family="sans-serif" font-size="14" lengthAdjust="spacing" textLength="247.7617" x="13" y="188.2632">kostenblockbezeichnung : str [0..1]</text></g><!--link Fremdkostenblock to Betrag--><g class="link" data-entity-1="ent0001" data-entity-2="ent0003" data-link-type="composition" data-source-line="33" id="lnk6"><path codeLine="33" d="M326.24,127.29 C417.66,119.97 513.9283,112.2675 573.2683,107.5175" fill="none" id="Fremdkostenblock-to-Betrag" style="stroke:#181818;stroke-width:1;"/><polygon fill="#181818" points="585.23,106.56,578.93,103.0515,573.2683,107.5175,579.5683,111.026,585.23,106.56" style="stroke:#181818;stroke-width:1;stroke-linejoin:miter;stroke-miterlimit:10;"/><text fill="#000000" font-family="sans-serif" font-size="13" lengthAdjust="spacing" textLength="127.4165" x="357.01" y="111.0369">summeKostenblock</text><text fill="#000000" font-family="sans-serif" font-size="13" lengthAdjust="spacing" textLength="24.8066" x="552.8515" y="120.2613">0..1</text></g><!--link Fremdkostenblock to Fremdkostenposition--><g class="link" data-entity-1="ent0001" data-entity-2="ent0005" data-link-type="composition" data-source-line="34" id="lnk7"><path codeLine="34" d="M326.26,164 C336.31,165.13 346.29,166.15 356.01,167 C417.57,172.4 475.1817,174.4408 528.7917,175.3308" fill="none" id="Fremdkostenblock-to-Fremdkostenposition" style="stroke:#181818;stroke-width:1;"/><polygon fill="#181818" points="540.79,175.53,534.8572,171.431,528.7917,175.3308,534.7244,179.4299,540.79,175.53" style="stroke:#181818;stroke-width:1;stroke-linejoin:miter;stroke-miterlimit:10;"/><text fill="#000000" font-family="sans-serif" font-size="13" lengthAdjust="spacing" textLength="111.3188" x="365.01" y="163.0669">kostenpositionen</text><text fill="#000000" font-family="sans-serif" font-size="13" lengthAdjust="spacing" textLength="23.0356" x="510.0286" y="188.1403">0..*</text></g><?plantuml-src hLHTJ-Cm47pFhx1oRqXDKeJGgJeXKIuWL208-bOgv2JRP1KxZknj4Ppux-SqHBHrGTn7dfpPMNjtTcm12sAacCQY99QZXenGrPwN2MuCysUpagWnep1CrH441LAvJ0DKuJWvYWVDCvMg3bU7qU5nD0oY80fvWs6cP72kGUQLCWHrAbHM1IL9mNRH-VoX_c7m1KR3w6HVci-uSRBOBu_Pxn5pDcA6D9j5GJ2STo0zDnQzGWBDnSm_luklVqwI-sbyCxvApYR-V8kz0cril-u-6yUby0AObVMoBhPvhvvNSmccuHamVosGxM5TSl_3liNHwVVZixUI_rNLCP3cHQTbjtOKxE1r4TtoJzGQnzExquklQlG4cYow48hJkoR_ey-DYJVAO6j9nq1zu3CFzPnT6_NuNphfDhc_d5ucDryLYcl22iI7HjhWv40SXHjEqLWmvmI44ZOZ1QG8bAaSOipSH85rTQi1JIeuaHkNN5VKsDDhqEqcdpDQlxkCNav3LgmznQ_MekmM_zfU8ETk3mO7p6y9VkzVkzrIIfYyapxEEl3tZdd4jW6mBro9jba9ChLJyqofdfZp-h05secOtm00?></g></svg>