<svg xmlns="http://www.w3.org/2000/svg" xmlns:xlink="http://www.w3.org/1999/xlink" contentStyleType="text/css" data-diagram-type="CLASS" height="363px" preserveAspectRatio="none" style="width:651px;height:363px;background:#FFFFFF;" version="1.1" viewBox="0 0 651 363" width="651px" zoomAndPan="magnify"><?plantuml 1.2026.6?><defs/><g><!--cluster bo4e--><g class="cluster" data-qualified-name="bo4e" data-source-line="14" id="ent0004"><path d="M410.67,6 L450.546,6 A3.75,3.75 0 0 1 453.046,8.5 L460.046,28.2969 L633.51,28.2969 A2.5,2.5 0 0 1 636.01,30.7969 L636.01,345.5 A2.5,2.5 0 0 1 633.51,348 L410.67,348 A2.5,2.5 0 0 1 408.17,345.5 L408.17,8.5 A2.5,2.5 0 0 1 410.67,6" fill="none" style="stroke:#000000;stroke-width:1.5;"/><line style="stroke:#000000;stroke-width:1.5;" x1="408.17" x2="460.046" y1="28.2969" y2="28.2969"/><text fill="#000000" font-family="sans-serif" font-size="14" font-weight="700" lengthAdjust="spacing" textLength="38.876" x="412.17" y="20.9951">bo4e</text></g><!--cluster com--><g class="cluster" data-qualified-name="bo4e.com" data-source-line="13" id="ent0002"><path d="M434.67,49 L512.3692,49 A3.75,3.75 0 0 1 514.8692,51.5 L521.8692,71.2969 L609.51,71.2969 A2.5,2.5 0 0 1 612.01,73.7969 L612.01,135.5 A2.5,2.5 0 0 1 609.51,138 L434.67,138 A2.5,2.5 0 0 1 432.17,135.5 L432.17,51.5 A2.5,2.5 0 0 1 434.67,49" fill="#E0A86C" style="stroke:#000000;stroke-width:1.5;"/><line style="stroke:#000000;stroke-width:1.5;" x1="432.17" x2="521.8692" y1="71.2969" y2="71.2969"/><text fill="#000000" font-family="sans-serif" font-size="14" font-weight="700" lengthAdjust="spacing" textLength="76.6992" x="436.17" y="63.9951">bo4e.com</text></g><!--cluster enum--><g class="cluster" data-qualified-name="bo4e.enum" data-source-line="24" id="ent0005"><path d="M439.66,162 L528.8709,162 A3.75,3.75 0 0 1 531.3709,164.5 L538.3709,184.2969 L604.52,184.2969 A2.5,2.5 0 0 1 607.02,186.7969 L607.02,321.5 A2.5,2.5 0 0 1 604.52,324 L439.66,324 A2.5,2.5 0 0 1 437.16,321.5 L437.16,164.5 A2.5,2.5 0 0 1 439.66,162" fill="#D1C358" style="stroke:#000000;stroke-width:1.5;"/><line style="stroke:#000000;stroke-width:1.5;" x1="437.16" x2="538.3709" y1="184.2969" y2="184.2969"/><text fill="#000000" font-family="sans-serif" font-size="14" font-weight="700" lengthAdjust="spacing" textLength="88.2109" x="441.16" y="176.9951">bo4e.enum</text></g><!--class Tagesparameter--><g class="entity" data-qualified-name="bo4e.com.Tagesparameter" data-source-line="14" id="ent0003"><rect fill="#F1F1F1" height="37.9375" rx="2.5" ry="2.5" style="stroke:#181818;stroke-width:0.5;" width="147.835" x="448.17" y="84.03"/><ellipse cx="463.17" cy="102.9987" fill="#ADD1B2" rx="11" ry="11" style="stroke:#181818;stroke-width:1;"/><path d="M466.1388,108.6394 Q465.5606,108.9362 464.92,109.0769 Q464.2794,109.2331 463.5763,109.2331 Q461.0763,109.2331 459.7481,107.5925 Q458.4356,105.9362 458.4356,102.8112 Q458.4356,99.6862 459.7481,98.03 Q461.0763,96.3737 463.5763,96.3737 Q464.2794,96.3737 464.92,96.53 Q465.5763,96.6862 466.1388,96.9831 L466.1388,99.7019 Q465.5138,99.1237 464.92,98.8581 Q464.3263,98.5769 463.7013,98.5769 Q462.3575,98.5769 461.67,99.655 Q460.9825,100.7175 460.9825,102.8112 Q460.9825,104.905 461.67,105.9831 Q462.3575,107.0456 463.7013,107.0456 Q464.3263,107.0456 464.92,106.78 Q465.5138,106.4987 466.1388,105.9206 L466.1388,108.6394 Z " fill="#000000"/><a href="https://bo4e.github.io/BO4E-python/v202601.0.0/api/com.Tagesparameter.html" target="_top" title="https://bo4e.github.io/BO4E-python/v202601.0.0/api/com.Tagesparameter.html" xlink:actuate="onRequest" xlink:href="https://bo4e.github.io/BO4E-python/v202601.0.0/api/com.Tagesparameter.html" xlink:show="new" xlink:title="https://bo4e.github.io/BO4E-python/v202601.0.0/api/com.Tagesparameter.html" xlink:type="simple"><text fill="#0000FF" font-family="sans-serif" font-size="14" lengthAdjust="spacing" text-decoration="underline" textLength="115.835" x="477.17" y="102.0251">Tagesparameter</text></a><text fill="#000000" font-family="sans-serif" font-size="10" lengthAdjust="spacing" textLength="107.2754" x="481.4498" y="114.6091">com.Tagesparameter</text></g><!--class Profilart--><g class="entity" data-qualified-name="bo4e.enum.Profilart" data-source-line="25" id="ent0006"><rect fill="#F1F1F1" height="37.9375" rx="2.5" ry="2.5" style="stroke:#181818;stroke-width:0.5;" width="103.2451" x="470.47" y="197.03"/><ellipse cx="485.47" cy="215.9988" fill="#ADD1B2" rx="11" ry="11" style="stroke:#181818;stroke-width:1;"/><path d="M488.4388,221.6394 Q487.8606,221.9363 487.22,222.0769 Q486.5794,222.2331 485.8763,222.2331 Q483.3763,222.2331 482.0481,220.5925 Q480.7356,218.9363 480.7356,215.8113 Q480.7356,212.6863 482.0481,211.03 Q483.3763,209.3738 485.8763,209.3738 Q486.5794,209.3738 487.22,209.53 Q487.8763,209.6863 488.4388,209.9831 L488.4388,212.7019 Q487.8138,212.1238 487.22,211.8581 Q486.6263,211.5769 486.0013,211.5769 Q484.6575,211.5769 483.97,212.655 Q483.2825,213.7175 483.2825,215.8113 Q483.2825,217.905 483.97,218.9831 Q484.6575,220.0456 486.0013,220.0456 Q486.6263,220.0456 487.22,219.78 Q487.8138,219.4988 488.4388,218.9206 L488.4388,221.6394 Z " fill="#000000"/><a href="https://bo4e.github.io/BO4E-python/v202601.0.0/api/enum.Profilart.html" target="_top" title="https://bo4e.github.io/BO4E-python/v202601.0.0/api/enum.Profilart.html" xlink:actuate="onRequest" xlink:href="https://bo4e.github.io/BO4E-python/v202601.0.0/api/enum.Profilart.html" xlink:show="new" xlink:title="https://bo4e.github.io/BO4E-python/v202601.0.0/api/enum.Profilart.html" xlink:type="simple"><text fill="#0000FF" font-family="sans-serif" font-size="14" lengthAdjust="spacing" text-decoration="underline" textLength="55.2959" x="507.4446" y="215.0251">Profilart</text></a><text fill="#000000" font-family="sans-serif" font-size="10" lengthAdjust="spacing" textLength="71.2451" x="499.47" y="227.6091">enum.Profilart</text></g><!--class Profilverfahren--><g class="entity" data-qualified-name="bo4e.enum.Profilverfahren" data-source-line="27" id="ent0007"><rect fill="#F1F1F1" height="37.9375" rx="2.5" ry="2.5" style="stroke:#181818;stroke-width:0.5;" width="137.8545" x="453.16" y="270.03"/><ellipse cx="468.16" cy="288.9988" fill="#ADD1B2" rx="11" ry="11" style="stroke:#181818;stroke-width:1;"/><path d="M471.1288,294.6394 Q470.5506,294.9363 469.91,295.0769 Q469.2694,295.2331 468.5663,295.2331 Q466.0663,295.2331 464.7381,293.5925 Q463.4256,291.9363 463.4256,288.8113 Q463.4256,285.6863 464.7381,284.03 Q466.0663,282.3738 468.5663,282.3738 Q469.2694,282.3738 469.91,282.53 Q470.5663,282.6863 471.1288,282.9831 L471.1288,285.7019 Q470.5038,285.1238 469.91,284.8581 Q469.3163,284.5769 468.6913,284.5769 Q467.3475,284.5769 466.66,285.655 Q465.9725,286.7175 465.9725,288.8113 Q465.9725,290.905 466.66,291.9831 Q467.3475,293.0456 468.6913,293.0456 Q469.3163,293.0456 469.91,292.78 Q470.5038,292.4988 471.1288,291.9206 L471.1288,294.6394 Z " fill="#000000"/><a href="https://bo4e.github.io/BO4E-python/v202601.0.0/api/enum.Profilverfahren.html" target="_top" title="https://bo4e.github.io/BO4E-python/v202601.0.0/api/enum.Profilverfahren.html" xlink:actuate="onRequest" xlink:href="https://bo4e.github.io/BO4E-python/v202601.0.0/api/enum.Profilverfahren.html" xlink:show="new" xlink:title="https://bo4e.github.io/BO4E-python/v202601.0.0/api/enum.Profilverfahren.html" xlink:type="simple"><text fill="#0000FF" font-family="sans-serif" font-size="14" lengthAdjust="spacing" text-decoration="underline" textLength="103.749" x="483.2127" y="288.0251">Profilverfahren</text></a><text fill="#000000" font-family="sans-serif" font-size="10" lengthAdjust="spacing" textLength="105.8545" x="482.16" y="300.6091">enum.Profilverfahren</text></g><!--class Lastprofil--><g class="entity" data-qualified-name="Lastprofil" data-source-line="3" id="ent0001"><rect fill="#F1F1F1" height="160.0156" rx="2.5" ry="2.5" style="stroke:#181818;stroke-width:0.5;" width="249.1729" x="7" y="135.99"/><ellipse cx="91.8262" cy="154.9588" fill="#ADD1B2" rx="11" ry="11" style="stroke:#181818;stroke-width:1;"/><path d="M94.7949,160.5994 Q94.2168,160.8963 93.5762,161.0369 Q92.9355,161.1931 92.2324,161.1931 Q89.7324,161.1931 88.4043,159.5525 Q87.0918,157.8963 87.0918,154.7713 Q87.0918,151.6463 88.4043,149.99 Q89.7324,148.3338 92.2324,148.3338 Q92.9355,148.3338 93.5762,148.49 Q94.2324,148.6463 94.7949,148.9431 L94.7949,151.6619 Q94.1699,151.0838 93.5762,150.8181 Q92.9824,150.5369 92.3574,150.5369 Q91.0137,150.5369 90.3262,151.615 Q89.6387,152.6775 89.6387,154.7713 Q89.6387,156.865 90.3262,157.9431 Q91.0137,159.0056 92.3574,159.0056 Q92.9824,159.0056 93.5762,158.74 Q94.1699,158.4588 94.7949,157.8806 L94.7949,160.5994 Z " fill="#000000"/><a href="https://bo4e.github.io/BO4E-python/v202601.0.0/api/com.Lastprofil.html" target="_top" title="https://bo4e.github.io/BO4E-python/v202601.0.0/api/com.Lastprofil.html" xlink:actuate="onRequest" xlink:href="https://bo4e.github.io/BO4E-python/v202601.0.0/api/com.Lastprofil.html" xlink:show="new" xlink:title="https://bo4e.github.io/BO4E-python/v202601.0.0/api/com.Lastprofil.html" xlink:type="simple"><text fill="#0000FF" font-family="sans-serif" font-size="14" lengthAdjust="spacing" text-decoration="underline" textLength="65.0781" x="115.2974" y="153.9851">Lastprofil</text></a><text fill="#000000" font-family="sans-serif" font-size="10" lengthAdjust="spacing" textLength="71.0205" x="112.3262" y="166.5691">com.Lastprofil</text><line style="stroke:#181818;stroke-width:0.5;" x1="8" x2="255.1729" y1="173.9275" y2="173.9275"/><text fill="#000000" font-family="sans-serif" font-size="14" lengthAdjust="spacing" textLength="94.0215" x="13" y="190.9226">_id : str [0..1]</text><text fill="#000000" font-family="sans-serif" font-size="14" lengthAdjust="spacing" textLength="237.1729" x="13" y="207.2195">_typ : Literal["LASTPROFIL"] [0..1]</text><text fill="#000000" font-family="sans-serif" font-size="14" lengthAdjust="spacing" textLength="132.5215" x="13" y="223.5164">_version : str [0..1]</text><text fill="#000000" font-family="sans-serif" font-size="14" lengthAdjust="spacing" textLength="163.6729" x="13" y="239.8132">bezeichnung : str [0..1]</text><text fill="#000000" font-family="sans-serif" font-size="14" lengthAdjust="spacing" textLength="162.9893" x="13" y="256.1101">herausgeber : str [0..1]</text><text fill="#000000" font-family="sans-serif" font-size="14" lengthAdjust="spacing" textLength="186.5049" x="13" y="272.407">istEinspeisung : bool [0..1]</text><text fill="#000000" font-family="sans-serif" font-size="14" lengthAdjust="spacing" textLength="148.3604" x="13" y="288.7039">profilschar : str [0..1]</text></g><!--link Lastprofil to Tagesparameter--><g class="link" data-entity-1="ent0001" data-entity-2="ent0003" data-link-type="composition" data-source-line="31" id="lnk8"><path codeLine="31" d="M256.58,179.94 C322.2,160.85 388.6575,141.5213 442.8775,125.7513" fill="none" id="Lastprofil-to-Tagesparameter" style="stroke:#181818;stroke-width:1;"/><polygon fill="#181818" points="454.4,122.4,447.5216,120.2348,442.8775,125.7513,449.7559,127.9165,454.4,122.4" style="stroke:#181818;stroke-width:1;stroke-linejoin:miter;stroke-miterlimit:10;"/><text fill="#000000" font-family="sans-serif" font-size="13" lengthAdjust="spacing" textLength="104.7173" x="287.17" y="138.8469">tagesparameter</text><text fill="#000000" font-family="sans-serif" font-size="13" lengthAdjust="spacing" textLength="24.8066" x="415.2865" y="139.6076">0..1</text></g><!--link Lastprofil to Profilart--><g class="link" data-entity-1="ent0001" data-entity-2="ent0006" data-link-type="composition" data-source-line="32" id="lnk9"><path codeLine="32" d="M256.58,216 C328.97,216 404.41,216 458.39,216" fill="none" id="Lastprofil-to-Profilart" style="stroke:#181818;stroke-width:1;"/><polygon fill="#181818" points="470.39,216,464.39,212,458.39,216,464.39,220,470.39,216" style="stroke:#181818;stroke-width:1;stroke-linejoin:miter;stroke-miterlimit:10;"/><text fill="#000000" font-family="sans-serif" font-size="13" lengthAdjust="spacing" textLength="51.7588" x="313.67" y="212.0669">profilart</text><text fill="#000000" font-family="sans-serif" font-size="13" lengthAdjust="spacing" textLength="24.8066" x="437.4885" y="229.1311">0..1</text></g><!--link Lastprofil to Profilverfahren--><g class="link" data-entity-1="ent0001" data-entity-2="ent0007" data-link-type="composition" data-source-line="33" id="lnk10"><path codeLine="33" d="M256.58,239.3 C321.53,251.5 386.8067,263.7625 440.9467,273.9425" fill="none" id="Lastprofil-to-Profilverfahren" style="stroke:#181818;stroke-width:1;"/><polygon fill="#181818" points="452.74,276.16,447.5825,271.1201,440.9467,273.9425,446.1042,278.9824,452.74,276.16" style="stroke:#181818;stroke-width:1;stroke-linejoin:miter;stroke-miterlimit:10;"/><text fill="#000000" font-family="sans-serif" font-size="13" lengthAdjust="spacing" textLength="63.4004" x="307.67" y="242.0269">verfahren</text><text fill="#000000" font-family="sans-serif" font-size="13" lengthAdjust="spacing" textLength="24.8066" x="420.3927" y="287.6832">0..1</text></g><?plantuml-src hLHHQzim47xthn3kso2sqtMbc37mXZS66Grfth8mPFjYYScIqPqxcf7_FiLk7JkcOsNra-wxxwJlxfEiO4UC3BEo5CGAQI4dQRJdvOeZCd-p4KGrnc6OcIi8IacYoG9fme-tL-ciVY1XT7X_6LrUH_CW2gAGrpBCJHKiE59jpKwgG52bs2dURh_hzoZt4C-Z3sEgppWEcEotnzptGnOiPaYMRQ8Wc6yxa1vgXouaWULguo-Ik_LoTVlvwyBVZdZtOD5rDDqXWpt8NEX6bzEaSBisM486TfgKIAdKM8F4hZWpHWq9dNpC1J-hFdYUvXLWpNDWVZjIDu6sxQU0NQHHSdFzwR7v__LXpSlZSTQTwYRLUJ769dwCqwsuCVGINzR9b_HkcQoIR-awNVshDuK4ZSHr9jlpNcRFJoKhlZSQfYc2gdQbr5Xd0YA1Kd3kq65Y4UXcuD4nOXV5F7_xxkOLJ3fk5opR2yCjTGRruSYRCRCLr4TEoE4rfJXdTbnOq4D1FVYSh9um4DTZhKJt00RlUpPxm_pZtFtp6nOp6W7FL9twZnyVdLl_bNkI4xD-xNb25i0ggDo5GW-5-SK6loMsaw0A_0C0?></g></svg>