<svg xmlns="http://www.w3.org/2000/svg" xmlns:xlink="http://www.w3.org/1999/xlink" contentStyleType="text/css" data-diagram-type="CLASS" height="469px" preserveAspectRatio="none" style="width:869px;height:469px;background:#FFFFFF;" version="1.1" viewBox="0 0 869 469" width="869px" zoomAndPan="magnify"><?plantuml 1.2026.6?><defs/><g><!--cluster bo4e--><g class="cluster" data-qualified-name="bo4e" data-source-line="10" id="ent0004"><path d="M569.49,6 L609.366,6 A3.75,3.75 0 0 1 611.866,8.5 L618.866,28.2969 L851.58,28.2969 A2.5,2.5 0 0 1 854.08,30.7969 L854.08,451.5 A2.5,2.5 0 0 1 851.58,454 L569.49,454 A2.5,2.5 0 0 1 566.99,451.5 L566.99,8.5 A2.5,2.5 0 0 1 569.49,6" fill="none" style="stroke:#000000;stroke-width:1.5;"/><line style="stroke:#000000;stroke-width:1.5;" x1="566.99" x2="618.866" y1="28.2969" y2="28.2969"/><text fill="#000000" font-family="sans-serif" font-size="14" font-weight="700" lengthAdjust="spacing" textLength="38.876" x="570.99" y="20.9951">bo4e</text></g><!--cluster com--><g class="cluster" data-qualified-name="bo4e.com" data-source-line="9" id="ent0002"><path d="M593.49,49 L671.1892,49 A3.75,3.75 0 0 1 673.6892,51.5 L680.6892,71.2969 L827.58,71.2969 A2.5,2.5 0 0 1 830.08,73.7969 L830.08,427.5 A2.5,2.5 0 0 1 827.58,430 L593.49,430 A2.5,2.5 0 0 1 590.99,427.5 L590.99,51.5 A2.5,2.5 0 0 1 593.49,49" fill="#E0A86C" style="stroke:#000000;stroke-width:1.5;"/><line style="stroke:#000000;stroke-width:1.5;" x1="590.99" x2="680.6892" y1="71.2969" y2="71.2969"/><text fill="#000000" font-family="sans-serif" font-size="14" font-weight="700" lengthAdjust="spacing" textLength="76.6992" x="594.99" y="63.9951">bo4e.com</text></g><!--class EinheitsPreisposition--><g class="entity" data-qualified-name="bo4e.com.EinheitsPreisposition" data-source-line="10" id="ent0003"><rect fill="#F1F1F1" height="37.9375" rx="2.5" ry="2.5" style="stroke:#181818;stroke-width:0.5;" width="177.2158" x="621.92" y="84.03"/><ellipse cx="636.92" cy="102.9987" fill="#ADD1B2" rx="11" ry="11" style="stroke:#181818;stroke-width:1;"/><path d="M639.8888,108.6394 Q639.3106,108.9362 638.67,109.0769 Q638.0294,109.2331 637.3263,109.2331 Q634.8263,109.2331 633.4981,107.5925 Q632.1856,105.9362 632.1856,102.8112 Q632.1856,99.6862 633.4981,98.03 Q634.8263,96.3737 637.3263,96.3737 Q638.0294,96.3737 638.67,96.53 Q639.3263,96.6862 639.8888,96.9831 L639.8888,99.7019 Q639.2638,99.1237 638.67,98.8581 Q638.0763,98.5769 637.4513,98.5769 Q636.1075,98.5769 635.42,99.655 Q634.7325,100.7175 634.7325,102.8112 Q634.7325,104.905 635.42,105.9831 Q636.1075,107.0456 637.4513,107.0456 Q638.0763,107.0456 638.67,106.78 Q639.2638,106.4987 639.8888,105.9206 L639.8888,108.6394 Z " fill="#000000"/><a href="https://bo4e.github.io/BO4E-python/v202601.0.0/api/com.EinheitsPreisposition.html" target="_top" title="https://bo4e.github.io/BO4E-python/v202601.0.0/api/com.EinheitsPreisposition.html" xlink:actuate="onRequest" xlink:href="https://bo4e.github.io/BO4E-python/v202601.0.0/api/com.EinheitsPreisposition.html" xlink:show="new" xlink:title="https://bo4e.github.io/BO4E-python/v202601.0.0/api/com.EinheitsPreisposition.html" xlink:type="simple"><text fill="#0000FF" font-family="sans-serif" font-size="14" lengthAdjust="spacing" text-decoration="underline" textLength="145.2158" x="650.92" y="102.0251">EinheitsPreisposition</text></a><text fill="#000000" font-family="sans-serif" font-size="10" lengthAdjust="spacing" textLength="128.2617" x="659.3971" y="114.6091">com.EinheitsPreisposition</text></g><!--class LastvariablePreisposition--><g class="entity" data-qualified-name="bo4e.com.LastvariablePreisposition" data-source-line="16" id="ent0005"><rect fill="#F1F1F1" height="37.9375" rx="2.5" ry="2.5" style="stroke:#181818;stroke-width:0.5;" width="207.0889" x="606.99" y="157.03"/><ellipse cx="621.99" cy="175.9987" fill="#ADD1B2" rx="11" ry="11" style="stroke:#181818;stroke-width:1;"/><path d="M624.9588,181.6394 Q624.3806,181.9362 623.74,182.0769 Q623.0994,182.2331 622.3963,182.2331 Q619.8963,182.2331 618.5681,180.5925 Q617.2556,178.9362 617.2556,175.8112 Q617.2556,172.6862 618.5681,171.03 Q619.8963,169.3737 622.3963,169.3737 Q623.0994,169.3737 623.74,169.53 Q624.3963,169.6862 624.9588,169.9831 L624.9588,172.7019 Q624.3338,172.1237 623.74,171.8581 Q623.1463,171.5769 622.5213,171.5769 Q621.1775,171.5769 620.49,172.655 Q619.8025,173.7175 619.8025,175.8112 Q619.8025,177.905 620.49,178.9831 Q621.1775,180.0456 622.5213,180.0456 Q623.1463,180.0456 623.74,179.78 Q624.3338,179.4987 624.9588,178.9206 L624.9588,181.6394 Z " fill="#000000"/><a href="https://bo4e.github.io/BO4E-python/v202601.0.0/api/com.LastvariablePreisposition.html" target="_top" title="https://bo4e.github.io/BO4E-python/v202601.0.0/api/com.LastvariablePreisposition.html" xlink:actuate="onRequest" xlink:href="https://bo4e.github.io/BO4E-python/v202601.0.0/api/com.LastvariablePreisposition.html" xlink:show="new" xlink:title="https://bo4e.github.io/BO4E-python/v202601.0.0/api/com.LastvariablePreisposition.html" xlink:type="simple"><text fill="#0000FF" font-family="sans-serif" font-size="14" lengthAdjust="spacing" text-decoration="underline" textLength="175.0889" x="635.99" y="175.0251">LastvariablePreisposition</text></a><text fill="#000000" font-family="sans-serif" font-size="10" lengthAdjust="spacing" textLength="149.5996" x="648.7346" y="187.6091">com.LastvariablePreisposition</text></g><!--class RelativePreisposition--><g class="entity" data-qualified-name="bo4e.com.RelativePreisposition" data-source-line="22" id="ent0006"><rect fill="#F1F1F1" height="37.9375" rx="2.5" ry="2.5" style="stroke:#181818;stroke-width:0.5;" width="178.5352" x="621.26" y="230.03"/><ellipse cx="636.26" cy="248.9988" fill="#ADD1B2" rx="11" ry="11" style="stroke:#181818;stroke-width:1;"/><path d="M639.2288,254.6394 Q638.6506,254.9363 638.01,255.0769 Q637.3694,255.2331 636.6663,255.2331 Q634.1663,255.2331 632.8381,253.5925 Q631.5256,251.9363 631.5256,248.8113 Q631.5256,245.6863 632.8381,244.03 Q634.1663,242.3738 636.6663,242.3738 Q637.3694,242.3738 638.01,242.53 Q638.6663,242.6863 639.2288,242.9831 L639.2288,245.7019 Q638.6038,245.1238 638.01,244.8581 Q637.4163,244.5769 636.7913,244.5769 Q635.4475,244.5769 634.76,245.655 Q634.0725,246.7175 634.0725,248.8113 Q634.0725,250.905 634.76,251.9831 Q635.4475,253.0456 636.7913,253.0456 Q637.4163,253.0456 638.01,252.78 Q638.6038,252.4988 639.2288,251.9206 L639.2288,254.6394 Z " fill="#000000"/><a href="https://bo4e.github.io/BO4E-python/v202601.0.0/api/com.RelativePreisposition.html" target="_top" title="https://bo4e.github.io/BO4E-python/v202601.0.0/api/com.RelativePreisposition.html" xlink:actuate="onRequest" xlink:href="https://bo4e.github.io/BO4E-python/v202601.0.0/api/com.RelativePreisposition.html" xlink:show="new" xlink:title="https://bo4e.github.io/BO4E-python/v202601.0.0/api/com.RelativePreisposition.html" xlink:type="simple"><text fill="#0000FF" font-family="sans-serif" font-size="14" lengthAdjust="spacing" text-decoration="underline" textLength="146.5352" x="650.26" y="248.0251">RelativePreisposition</text></a><text fill="#000000" font-family="sans-serif" font-size="10" lengthAdjust="spacing" textLength="129.2041" x="658.9255" y="260.6091">com.RelativePreisposition</text></g><!--class Zeitraum--><g class="entity" data-qualified-name="bo4e.com.Zeitraum" data-source-line="30" id="ent0007"><rect fill="#F1F1F1" height="37.9375" rx="2.5" ry="2.5" style="stroke:#181818;stroke-width:0.5;" width="102.5566" x="659.25" y="303.03"/><ellipse cx="674.25" cy="321.9988" fill="#ADD1B2" rx="11" ry="11" style="stroke:#181818;stroke-width:1;"/><path d="M677.2188,327.6394 Q676.6406,327.9363 676,328.0769 Q675.3594,328.2331 674.6563,328.2331 Q672.1563,328.2331 670.8281,326.5925 Q669.5156,324.9363 669.5156,321.8113 Q669.5156,318.6863 670.8281,317.03 Q672.1563,315.3738 674.6563,315.3738 Q675.3594,315.3738 676,315.53 Q676.6563,315.6863 677.2188,315.9831 L677.2188,318.7019 Q676.5938,318.1238 676,317.8581 Q675.4063,317.5769 674.7813,317.5769 Q673.4375,317.5769 672.75,318.655 Q672.0625,319.7175 672.0625,321.8113 Q672.0625,323.905 672.75,324.9831 Q673.4375,326.0456 674.7813,326.0456 Q675.4063,326.0456 676,325.78 Q676.5938,325.4988 677.2188,324.9206 L677.2188,327.6394 Z " fill="#000000"/><a href="https://bo4e.github.io/BO4E-python/v202601.0.0/api/com.Zeitraum.html" target="_top" title="https://bo4e.github.io/BO4E-python/v202601.0.0/api/com.Zeitraum.html" xlink:actuate="onRequest" xlink:href="https://bo4e.github.io/BO4E-python/v202601.0.0/api/com.Zeitraum.html" xlink:show="new" xlink:title="https://bo4e.github.io/BO4E-python/v202601.0.0/api/com.Zeitraum.html" xlink:type="simple"><text fill="#0000FF" font-family="sans-serif" font-size="14" lengthAdjust="spacing" text-decoration="underline" textLength="64.4287" x="691.314" y="321.0251">Zeitraum</text></a><text fill="#000000" font-family="sans-serif" font-size="10" lengthAdjust="spacing" textLength="70.5566" x="688.25" y="333.6091">com.Zeitraum</text></g><!--class ZeitvariablePreisposition--><g class="entity" data-qualified-name="bo4e.com.ZeitvariablePreisposition" data-source-line="40" id="ent0008"><rect fill="#F1F1F1" height="37.9375" rx="2.5" ry="2.5" style="stroke:#181818;stroke-width:0.5;" width="205.5098" x="607.78" y="376.03"/><ellipse cx="622.78" cy="394.9988" fill="#ADD1B2" rx="11" ry="11" style="stroke:#181818;stroke-width:1;"/><path d="M625.7488,400.6394 Q625.1706,400.9363 624.53,401.0769 Q623.8894,401.2331 623.1863,401.2331 Q620.6863,401.2331 619.3581,399.5925 Q618.0456,397.9363 618.0456,394.8113 Q618.0456,391.6863 619.3581,390.03 Q620.6863,388.3738 623.1863,388.3738 Q623.8894,388.3738 624.53,388.53 Q625.1863,388.6863 625.7488,388.9831 L625.7488,391.7019 Q625.1238,391.1238 624.53,390.8581 Q623.9363,390.5769 623.3113,390.5769 Q621.9675,390.5769 621.28,391.655 Q620.5925,392.7175 620.5925,394.8113 Q620.5925,396.905 621.28,397.9831 Q621.9675,399.0456 623.3113,399.0456 Q623.9363,399.0456 624.53,398.78 Q625.1238,398.4988 625.7488,397.9206 L625.7488,400.6394 Z " fill="#000000"/><a href="https://bo4e.github.io/BO4E-python/v202601.0.0/api/com.ZeitvariablePreisposition.html" target="_top" title="https://bo4e.github.io/BO4E-python/v202601.0.0/api/com.ZeitvariablePreisposition.html" xlink:actuate="onRequest" xlink:href="https://bo4e.github.io/BO4E-python/v202601.0.0/api/com.ZeitvariablePreisposition.html" xlink:show="new" xlink:title="https://bo4e.github.io/BO4E-python/v202601.0.0/api/com.ZeitvariablePreisposition.html" xlink:type="simple"><text fill="#0000FF" font-family="sans-serif" font-size="14" lengthAdjust="spacing" text-decoration="underline" textLength="173.5098" x="636.78" y="394.0251">ZeitvariablePreisposition</text></a><text fill="#000000" font-family="sans-serif" font-size="10" lengthAdjust="spacing" textLength="148.4717" x="649.299" y="406.6091">com.ZeitvariablePreisposition</text></g><!--class Tarifpreiszeitscheibe--><g class="entity" data-qualified-name="Tarifpreiszeitscheibe" data-source-line="3" id="ent0001"><rect fill="#F1F1F1" height="94.8281" rx="2.5" ry="2.5" style="stroke:#181818;stroke-width:0.5;" width="336.9873" x="7" y="201.59"/><ellipse cx="98.5674" cy="220.5587" fill="#ADD1B2" rx="11" ry="11" style="stroke:#181818;stroke-width:1;"/><path d="M101.5361,226.1994 Q100.958,226.4962 100.3174,226.6369 Q99.6768,226.7931 98.9736,226.7931 Q96.4736,226.7931 95.1455,225.1525 Q93.833,223.4962 93.833,220.3712 Q93.833,217.2462 95.1455,215.59 Q96.4736,213.9337 98.9736,213.9337 Q99.6768,213.9337 100.3174,214.09 Q100.9736,214.2462 101.5361,214.5431 L101.5361,217.2619 Q100.9111,216.6837 100.3174,216.4181 Q99.7236,216.1369 99.0986,216.1369 Q97.7549,216.1369 97.0674,217.215 Q96.3799,218.2775 96.3799,220.3712 Q96.3799,222.465 97.0674,223.5431 Q97.7549,224.6056 99.0986,224.6056 Q99.7236,224.6056 100.3174,224.34 Q100.9111,224.0587 101.5361,223.4806 L101.5361,226.1994 Z " fill="#000000"/><a href="https://bo4e.github.io/BO4E-python/v202601.0.0/api/com.Tarifpreiszeitscheibe.html" target="_top" title="https://bo4e.github.io/BO4E-python/v202601.0.0/api/com.Tarifpreiszeitscheibe.html" xlink:actuate="onRequest" xlink:href="https://bo4e.github.io/BO4E-python/v202601.0.0/api/com.Tarifpreiszeitscheibe.html" xlink:show="new" xlink:title="https://bo4e.github.io/BO4E-python/v202601.0.0/api/com.Tarifpreiszeitscheibe.html" xlink:type="simple"><text fill="#0000FF" font-family="sans-serif" font-size="14" lengthAdjust="spacing" text-decoration="underline" textLength="145.3525" x="119.0674" y="219.5851">Tarifpreiszeitscheibe</text></a><text fill="#000000" font-family="sans-serif" font-size="10" lengthAdjust="spacing" textLength="128.3594" x="127.564" y="232.1691">com.Tarifpreiszeitscheibe</text><line style="stroke:#181818;stroke-width:0.5;" x1="8" x2="342.9873" y1="239.5275" y2="239.5275"/><text fill="#000000" font-family="sans-serif" font-size="14" lengthAdjust="spacing" textLength="94.0215" x="13" y="256.5226">_id : str [0..1]</text><text fill="#000000" font-family="sans-serif" font-size="14" lengthAdjust="spacing" textLength="324.9873" x="13" y="272.8195">_typ : Literal["TARIFPREISZEITSCHEIBE"] [0..1]</text><text fill="#000000" font-family="sans-serif" font-size="14" lengthAdjust="spacing" textLength="132.5215" x="13" y="289.1164">_version : str [0..1]</text></g><!--link Tarifpreiszeitscheibe to EinheitsPreisposition--><g class="link" data-entity-1="ent0001" data-entity-2="ent0003" data-link-type="composition" data-source-line="49" id="lnk9"><path codeLine="49" d="M295.65,201.14 C321.26,191.76 348.34,182.51 373.99,175 C456.9,150.72 541.7318,133.0312 609.9518,120.3612" fill="none" id="Tarifpreiszeitscheibe-to-EinheitsPreisposition" style="stroke:#181818;stroke-width:1;"/><polygon fill="#181818" points="621.75,118.17,615.1205,115.3329,609.9518,120.3612,616.5813,123.1983,621.75,118.17" style="stroke:#181818;stroke-width:1;stroke-linejoin:miter;stroke-miterlimit:10;"/><text fill="#000000" font-family="sans-serif" font-size="13" lengthAdjust="spacing" textLength="150.8647" x="387.49" y="128.9869">einheitsPreispositionen</text><text fill="#000000" font-family="sans-serif" font-size="13" lengthAdjust="spacing" textLength="23.0356" x="590.7605" y="132.0488">0..*</text></g><!--link Tarifpreiszeitscheibe to LastvariablePreisposition--><g class="link" data-entity-1="ent0001" data-entity-2="ent0005" data-link-type="composition" data-source-line="50" id="lnk10"><path codeLine="50" d="M344.42,226 C430.47,214.22 520.6111,201.8791 594.9011,191.6991" fill="none" id="Tarifpreiszeitscheibe-to-LastvariablePreisposition" style="stroke:#181818;stroke-width:1;"/><polygon fill="#181818" points="606.79,190.07,600.3025,186.9216,594.9011,191.6991,601.3886,194.8475,606.79,190.07" style="stroke:#181818;stroke-width:1;stroke-linejoin:miter;stroke-miterlimit:10;"/><text fill="#000000" font-family="sans-serif" font-size="13" lengthAdjust="spacing" textLength="175.189" x="374.99" y="195.6769">lastvariablePreispositionen</text><text fill="#000000" font-family="sans-serif" font-size="13" lengthAdjust="spacing" textLength="23.0356" x="576.0482" y="203.5907">0..*</text></g><!--link Tarifpreiszeitscheibe to RelativePreisposition--><g class="link" data-entity-1="ent0001" data-entity-2="ent0006" data-link-type="composition" data-source-line="51" id="lnk11"><path codeLine="51" d="M344.42,249 C436.12,249 533.95,249 609.04,249" fill="none" id="Tarifpreiszeitscheibe-to-RelativePreisposition" style="stroke:#181818;stroke-width:1;"/><polygon fill="#181818" points="621.04,249,615.04,245,609.04,249,615.04,253,621.04,249" style="stroke:#181818;stroke-width:1;stroke-linejoin:miter;stroke-miterlimit:10;"/><text fill="#000000" font-family="sans-serif" font-size="13" lengthAdjust="spacing" textLength="148.6177" x="388.49" y="245.0669">relativePreispositionen</text><text fill="#000000" font-family="sans-serif" font-size="13" lengthAdjust="spacing" textLength="23.0356" x="590.3095" y="261.6463">0..*</text></g><!--link Tarifpreiszeitscheibe to Zeitraum--><g class="link" data-entity-1="ent0001" data-entity-2="ent0007" data-link-type="composition" data-source-line="52" id="lnk12"><path codeLine="52" d="M344.42,272 C453.06,286.88 575.251,303.6115 646.871,313.4215" fill="none" id="Tarifpreiszeitscheibe-to-Zeitraum" style="stroke:#181818;stroke-width:1;"/><polygon fill="#181818" points="658.76,315.05,653.3583,310.2728,646.871,313.4215,652.2727,318.1988,658.76,315.05" style="stroke:#181818;stroke-width:1;stroke-linejoin:miter;stroke-miterlimit:10;"/><text fill="#000000" font-family="sans-serif" font-size="13" lengthAdjust="spacing" textLength="151.0869" x="386.99" y="272.8769">zeitscheibengueltigkeit</text><text fill="#000000" font-family="sans-serif" font-size="13" lengthAdjust="spacing" textLength="24.8066" x="626.6414" y="327.196">0..1</text></g><!--link Tarifpreiszeitscheibe to ZeitvariablePreisposition--><g class="link" data-entity-1="ent0001" data-entity-2="ent0008" data-link-type="composition" data-source-line="53" id="lnk13"><path codeLine="53" d="M295.65,296.86 C321.26,306.24 348.34,315.49 373.99,323 C451.32,345.65 528.8099,362.2355 595.8199,374.9355" fill="none" id="Tarifpreiszeitscheibe-to-ZeitvariablePreisposition" style="stroke:#181818;stroke-width:1;"/><polygon fill="#181818" points="607.61,377.17,602.4598,372.1227,595.8199,374.9355,600.9701,379.9828,607.61,377.17" style="stroke:#181818;stroke-width:1;stroke-linejoin:miter;stroke-miterlimit:10;"/><text fill="#000000" font-family="sans-serif" font-size="13" lengthAdjust="spacing" textLength="175.2715" x="374.99" y="319.0669">zeitvariablePreispositionen</text><text fill="#000000" font-family="sans-serif" font-size="13" lengthAdjust="spacing" textLength="23.0356" x="576.5658" y="388.5153">0..*</text></g><?plantuml-src pPRVQzim4CVV_LS8xwqGsocb33C6Jl6e8Mk2u_MXMHXoVB75_0lfdDAC_k-LdOKjiRGaB8FvJVUzEvy-9v-Smme9LeIpD4EIC0vBP5Lf6CkS2a7C-Jn3h8Lhst5r0rRAC6jYYrNsQ7BZ3-eNpAhINbyxrxVEq78inwOrivTLOKMKirNDWOaDC1JB35WCLeP5JfJIOl6r_23O1joXyr6Rm2HKgEF93uF8vnjBY4i4SZ9tB6kus1hnfPRMCKFWD9-RaHS6dwQX7yoU_22QtTtxmSWt5tiXQ-12WjXFzceO9Ir0r7G9nEo8o5AxedOByivtlFUtTp_h-LkCFYkpTfFJThjr9LZRdIr6fTJ3gFJgAbOgvs3qWuVxbbz7SZgP1L4mUJW5Owl489ktpCgcJ0yPNuBRc0fSotD2unmKxBHoZv_MisEeLS_XEFPcqQCyajvexF-FB4F8ARArYgDIwZ5KUdNybCevx49_x4N1uuMvjI9BGbW1XtBJrvw1exIkyehYPLa_oI-IqwROujsjUaHtGWTnjpY7MpluGk_BvrDH9RG1tZT3cIGKvQjTwO5m83KPRoUq594LUw90ob4NsOdgsCj1_iDmqChADkY7WrOzjr7_PZYqueP2bhUSEQHCu66BNziRJttT3WPNn9HULwRc8d49gEnG7a-edwekoNNQAOdLuyObN6K_cd1e_lhqNFARHvasa2DBlqlJyQBqnsIRLBTR8sC9a0AAMBRU45drJDG_JMJ584_46m00?></g></svg>