<?xml version="1.0" encoding="us-ascii" standalone="no"?><svg xmlns="http://www.w3.org/2000/svg" xmlns:xlink="http://www.w3.org/1999/xlink" contentStyleType="text/css" height="501px" preserveAspectRatio="none" style="width:669px;height:501px;background:#FFFFFF;" version="1.1" viewBox="0 0 669 501" width="669px" zoomAndPan="magnify"><defs/><g><!--cluster bo4e--><g id="cluster_bo4e"><path d="M424.5,6 L465.5,6 A3.75,3.75 0 0 1 468,8.5 L475,28.2969 L659.5,28.2969 A2.5,2.5 0 0 1 662,30.7969 L662,491.5 A2.5,2.5 0 0 1 659.5,494 L424.5,494 A2.5,2.5 0 0 1 422,491.5 L422,8.5 A2.5,2.5 0 0 1 424.5,6 " fill="none" style="stroke:#000000;stroke-width:1.5;"/><line style="stroke:#000000;stroke-width:1.5;" x1="422" x2="475" y1="28.2969" y2="28.2969"/><text fill="#000000" font-family="sans-serif" font-size="14" font-weight="bold" lengthAdjust="spacing" textLength="40" x="426" y="20.9951">bo4e</text></g><!--cluster com--><g id="cluster_com"><path d="M448.5,49 L527.5,49 A3.75,3.75 0 0 1 530,51.5 L537,71.2969 L635.5,71.2969 A2.5,2.5 0 0 1 638,73.7969 L638,208.5 A2.5,2.5 0 0 1 635.5,211 L448.5,211 A2.5,2.5 0 0 1 446,208.5 L446,51.5 A2.5,2.5 0 0 1 448.5,49 " fill="#E0A86C" style="stroke:#000000;stroke-width:1.5;"/><line style="stroke:#000000;stroke-width:1.5;" x1="446" x2="537" y1="71.2969" y2="71.2969"/><a href="https://bo4e.github.io/BO4E-python/v202401.1.0-rc2/api/bo4e.com.html" target="_top" title="https://bo4e.github.io/BO4E-python/v202401.1.0-rc2/api/bo4e.com.html" xlink:actuate="onRequest" xlink:href="https://bo4e.github.io/BO4E-python/v202401.1.0-rc2/api/bo4e.com.html" xlink:show="new" xlink:title="https://bo4e.github.io/BO4E-python/v202401.1.0-rc2/api/bo4e.com.html" xlink:type="simple"><text fill="#0000FF" font-family="sans-serif" font-size="14" font-weight="bold" lengthAdjust="spacing" text-decoration="underline" textLength="78" x="450" y="63.9951">bo4e.com</text></a></g><!--cluster enum--><g id="cluster_enum"><path d="M451,235 L541,235 A3.75,3.75 0 0 1 543.5,237.5 L550.5,257.2969 L633,257.2969 A2.5,2.5 0 0 1 635.5,259.7969 L635.5,467.5 A2.5,2.5 0 0 1 633,470 L451,470 A2.5,2.5 0 0 1 448.5,467.5 L448.5,237.5 A2.5,2.5 0 0 1 451,235 " fill="#D1C358" style="stroke:#000000;stroke-width:1.5;"/><line style="stroke:#000000;stroke-width:1.5;" x1="448.5" x2="550.5" y1="257.2969" y2="257.2969"/><a href="https://bo4e.github.io/BO4E-python/v202401.1.0-rc2/api/bo4e.enum.html" target="_top" title="https://bo4e.github.io/BO4E-python/v202401.1.0-rc2/api/bo4e.enum.html" xlink:actuate="onRequest" xlink:href="https://bo4e.github.io/BO4E-python/v202401.1.0-rc2/api/bo4e.enum.html" xlink:show="new" xlink:title="https://bo4e.github.io/BO4E-python/v202401.1.0-rc2/api/bo4e.enum.html" xlink:type="simple"><text fill="#0000FF" font-family="sans-serif" font-size="14" font-weight="bold" lengthAdjust="spacing" text-decoration="underline" textLength="89" x="452.5" y="249.9951">bo4e.enum</text></a></g><!--class COM--><g id="elem_COM"><rect codeLine="15" fill="#F1F1F1" height="37.9375" id="COM" rx="2.5" ry="2.5" style="stroke:#181818;stroke-width:0.5;" width="104" x="490" y="84.03"/><ellipse cx="505" cy="102.9987" fill="#ADD1B2" rx="11" ry="11" style="stroke:#181818;stroke-width:1.0;"/><path d="M507.9688,108.6394 Q507.3906,108.9362 506.75,109.0769 Q506.1094,109.2331 505.4063,109.2331 Q502.9063,109.2331 501.5781,107.5925 Q500.2656,105.9362 500.2656,102.8112 Q500.2656,99.6862 501.5781,98.03 Q502.9063,96.3737 505.4063,96.3737 Q506.1094,96.3737 506.75,96.53 Q507.4063,96.6862 507.9688,96.9831 L507.9688,99.7019 Q507.3438,99.1237 506.75,98.8581 Q506.1563,98.5769 505.5313,98.5769 Q504.1875,98.5769 503.5,99.655 Q502.8125,100.7175 502.8125,102.8112 Q502.8125,104.905 503.5,105.9831 Q504.1875,107.0456 505.5313,107.0456 Q506.1563,107.0456 506.75,106.78 Q507.3438,106.4987 507.9688,105.9206 L507.9688,108.6394 Z " fill="#000000"/><a href="https://bo4e.github.io/BO4E-python/v202401.1.0-rc2/api/bo4e.com.html#bo4e.com.com.COM" target="_top" title="https://bo4e.github.io/BO4E-python/v202401.1.0-rc2/api/bo4e.com.html#bo4e.com.com.COM" xlink:actuate="onRequest" xlink:href="https://bo4e.github.io/BO4E-python/v202401.1.0-rc2/api/bo4e.com.html#bo4e.com.com.COM" xlink:show="new" xlink:title="https://bo4e.github.io/BO4E-python/v202401.1.0-rc2/api/bo4e.com.html#bo4e.com.com.COM" xlink:type="simple"><text fill="#0000FF" font-family="sans-serif" font-size="14" lengthAdjust="spacing" text-decoration="underline" textLength="33" x="538.5" y="102.0251">COM</text></a><text fill="#000000" font-family="sans-serif" font-size="10" lengthAdjust="spacing" textLength="72" x="519" y="114.6091">bo4e.com.com</text></g><!--class Energieherkunft--><g id="elem_Energieherkunft"><rect codeLine="16" fill="#F1F1F1" height="37.9375" id="Energieherkunft" rx="2.5" ry="2.5" style="stroke:#181818;stroke-width:0.5;" width="160" x="462" y="157.03"/><ellipse cx="477" cy="175.9987" fill="#ADD1B2" rx="11" ry="11" style="stroke:#181818;stroke-width:1.0;"/><path d="M479.9688,181.6394 Q479.3906,181.9362 478.75,182.0769 Q478.1094,182.2331 477.4063,182.2331 Q474.9063,182.2331 473.5781,180.5925 Q472.2656,178.9362 472.2656,175.8112 Q472.2656,172.6862 473.5781,171.03 Q474.9063,169.3737 477.4063,169.3737 Q478.1094,169.3737 478.75,169.53 Q479.4063,169.6862 479.9688,169.9831 L479.9688,172.7019 Q479.3438,172.1237 478.75,171.8581 Q478.1563,171.5769 477.5313,171.5769 Q476.1875,171.5769 475.5,172.655 Q474.8125,173.7175 474.8125,175.8112 Q474.8125,177.905 475.5,178.9831 Q476.1875,180.0456 477.5313,180.0456 Q478.1563,180.0456 478.75,179.78 Q479.3438,179.4987 479.9688,178.9206 L479.9688,181.6394 Z " fill="#000000"/><a href="https://bo4e.github.io/BO4E-python/v202401.1.0-rc2/api/bo4e.com.html#bo4e.com.energieherkunft.Energieherkunft" target="_top" title="https://bo4e.github.io/BO4E-python/v202401.1.0-rc2/api/bo4e.com.html#bo4e.com.energieherkunft.Energieherkunft" xlink:actuate="onRequest" xlink:href="https://bo4e.github.io/BO4E-python/v202401.1.0-rc2/api/bo4e.com.html#bo4e.com.energieherkunft.Energieherkunft" xlink:show="new" xlink:title="https://bo4e.github.io/BO4E-python/v202401.1.0-rc2/api/bo4e.com.html#bo4e.com.energieherkunft.Energieherkunft" xlink:type="simple"><text fill="#0000FF" font-family="sans-serif" font-size="14" lengthAdjust="spacing" text-decoration="underline" textLength="111" x="499.5" y="175.0251">Energieherkunft</text></a><text fill="#000000" font-family="sans-serif" font-size="10" lengthAdjust="spacing" textLength="128" x="491" y="187.6091">bo4e.com.energieherkunft</text></g><!--class Oekozertifikat--><g id="elem_Oekozertifikat"><rect codeLine="19" fill="#F1F1F1" height="37.9375" id="Oekozertifikat" rx="2.5" ry="2.5" style="stroke:#181818;stroke-width:0.5;" width="155" x="464.5" y="270.03"/><ellipse cx="479.5" cy="288.9988" fill="#ADD1B2" rx="11" ry="11" style="stroke:#181818;stroke-width:1.0;"/><path d="M482.4688,294.6394 Q481.8906,294.9363 481.25,295.0769 Q480.6094,295.2331 479.9063,295.2331 Q477.4063,295.2331 476.0781,293.5925 Q474.7656,291.9363 474.7656,288.8113 Q474.7656,285.6863 476.0781,284.03 Q477.4063,282.3738 479.9063,282.3738 Q480.6094,282.3738 481.25,282.53 Q481.9063,282.6863 482.4688,282.9831 L482.4688,285.7019 Q481.8438,285.1238 481.25,284.8581 Q480.6563,284.5769 480.0313,284.5769 Q478.6875,284.5769 478,285.655 Q477.3125,286.7175 477.3125,288.8113 Q477.3125,290.905 478,291.9831 Q478.6875,293.0456 480.0313,293.0456 Q480.6563,293.0456 481.25,292.78 Q481.8438,292.4988 482.4688,291.9206 L482.4688,294.6394 Z " fill="#000000"/><a href="https://bo4e.github.io/BO4E-python/v202401.1.0-rc2/api/bo4e.enum.html#bo4e.enum.oekozertifikat.Oekozertifikat" target="_top" title="https://bo4e.github.io/BO4E-python/v202401.1.0-rc2/api/bo4e.enum.html#bo4e.enum.oekozertifikat.Oekozertifikat" xlink:actuate="onRequest" xlink:href="https://bo4e.github.io/BO4E-python/v202401.1.0-rc2/api/bo4e.enum.html#bo4e.enum.oekozertifikat.Oekozertifikat" xlink:show="new" xlink:title="https://bo4e.github.io/BO4E-python/v202401.1.0-rc2/api/bo4e.enum.html#bo4e.enum.oekozertifikat.Oekozertifikat" xlink:type="simple"><text fill="#0000FF" font-family="sans-serif" font-size="14" lengthAdjust="spacing" text-decoration="underline" textLength="95" x="507.5" y="288.0251">Oekozertifikat</text></a><text fill="#000000" font-family="sans-serif" font-size="10" lengthAdjust="spacing" textLength="123" x="493.5" y="300.6091">bo4e.enum.oekozertifikat</text></g><!--class Oekolabel--><g id="elem_Oekolabel"><rect codeLine="20" fill="#F1F1F1" height="37.9375" id="Oekolabel" rx="2.5" ry="2.5" style="stroke:#181818;stroke-width:0.5;" width="135" x="474.5" y="343.03"/><ellipse cx="489.5" cy="361.9988" fill="#ADD1B2" rx="11" ry="11" style="stroke:#181818;stroke-width:1.0;"/><path d="M492.4688,367.6394 Q491.8906,367.9363 491.25,368.0769 Q490.6094,368.2331 489.9063,368.2331 Q487.4063,368.2331 486.0781,366.5925 Q484.7656,364.9363 484.7656,361.8113 Q484.7656,358.6863 486.0781,357.03 Q487.4063,355.3738 489.9063,355.3738 Q490.6094,355.3738 491.25,355.53 Q491.9063,355.6863 492.4688,355.9831 L492.4688,358.7019 Q491.8438,358.1238 491.25,357.8581 Q490.6563,357.5769 490.0313,357.5769 Q488.6875,357.5769 488,358.655 Q487.3125,359.7175 487.3125,361.8113 Q487.3125,363.905 488,364.9831 Q488.6875,366.0456 490.0313,366.0456 Q490.6563,366.0456 491.25,365.78 Q491.8438,365.4988 492.4688,364.9206 L492.4688,367.6394 Z " fill="#000000"/><a href="https://bo4e.github.io/BO4E-python/v202401.1.0-rc2/api/bo4e.enum.html#bo4e.enum.oekolabel.Oekolabel" target="_top" title="https://bo4e.github.io/BO4E-python/v202401.1.0-rc2/api/bo4e.enum.html#bo4e.enum.oekolabel.Oekolabel" xlink:actuate="onRequest" xlink:href="https://bo4e.github.io/BO4E-python/v202401.1.0-rc2/api/bo4e.enum.html#bo4e.enum.oekolabel.Oekolabel" xlink:show="new" xlink:title="https://bo4e.github.io/BO4E-python/v202401.1.0-rc2/api/bo4e.enum.html#bo4e.enum.oekolabel.Oekolabel" xlink:type="simple"><text fill="#0000FF" font-family="sans-serif" font-size="14" lengthAdjust="spacing" text-decoration="underline" textLength="69" x="520.5" y="361.0251">Oekolabel</text></a><text fill="#000000" font-family="sans-serif" font-size="10" lengthAdjust="spacing" textLength="103" x="503.5" y="373.6091">bo4e.enum.oekolabel</text></g><!--class Sparte--><g id="elem_Sparte"><rect codeLine="21" fill="#F1F1F1" height="37.9375" id="Sparte" rx="2.5" ry="2.5" style="stroke:#181818;stroke-width:0.5;" width="121" x="481.5" y="416.03"/><ellipse cx="496.5" cy="434.9988" fill="#ADD1B2" rx="11" ry="11" style="stroke:#181818;stroke-width:1.0;"/><path d="M499.4688,440.6394 Q498.8906,440.9363 498.25,441.0769 Q497.6094,441.2331 496.9063,441.2331 Q494.4063,441.2331 493.0781,439.5925 Q491.7656,437.9363 491.7656,434.8113 Q491.7656,431.6863 493.0781,430.03 Q494.4063,428.3738 496.9063,428.3738 Q497.6094,428.3738 498.25,428.53 Q498.9063,428.6863 499.4688,428.9831 L499.4688,431.7019 Q498.8438,431.1238 498.25,430.8581 Q497.6563,430.5769 497.0313,430.5769 Q495.6875,430.5769 495,431.655 Q494.3125,432.7175 494.3125,434.8113 Q494.3125,436.905 495,437.9831 Q495.6875,439.0456 497.0313,439.0456 Q497.6563,439.0456 498.25,438.78 Q498.8438,438.4988 499.4688,437.9206 L499.4688,440.6394 Z " fill="#000000"/><a href="https://bo4e.github.io/BO4E-python/v202401.1.0-rc2/api/bo4e.enum.html#bo4e.enum.sparte.Sparte" target="_top" title="https://bo4e.github.io/BO4E-python/v202401.1.0-rc2/api/bo4e.enum.html#bo4e.enum.sparte.Sparte" xlink:actuate="onRequest" xlink:href="https://bo4e.github.io/BO4E-python/v202401.1.0-rc2/api/bo4e.enum.html#bo4e.enum.sparte.Sparte" xlink:show="new" xlink:title="https://bo4e.github.io/BO4E-python/v202401.1.0-rc2/api/bo4e.enum.html#bo4e.enum.sparte.Sparte" xlink:type="simple"><text fill="#0000FF" font-family="sans-serif" font-size="14" lengthAdjust="spacing" text-decoration="underline" textLength="45" x="532.5" y="434.0251">Sparte</text></a><text fill="#000000" font-family="sans-serif" font-size="10" lengthAdjust="spacing" textLength="89" x="510.5" y="446.6091">bo4e.enum.sparte</text></g><!--class Energiemix--><g id="elem_Energiemix"><rect codeLine="3" fill="#F1F1F1" height="176.3125" id="Energiemix" rx="2.5" ry="2.5" style="stroke:#181818;stroke-width:0.5;" width="273" x="7" y="200.84"/><ellipse cx="86.75" cy="219.8087" fill="#ADD1B2" rx="11" ry="11" style="stroke:#181818;stroke-width:1.0;"/><path d="M89.7188,225.4494 Q89.1406,225.7462 88.5,225.8869 Q87.8594,226.0431 87.1563,226.0431 Q84.6563,226.0431 83.3281,224.4025 Q82.0156,222.7462 82.0156,219.6212 Q82.0156,216.4962 83.3281,214.84 Q84.6563,213.1837 87.1563,213.1837 Q87.8594,213.1837 88.5,213.34 Q89.1563,213.4962 89.7188,213.7931 L89.7188,216.5119 Q89.0938,215.9337 88.5,215.6681 Q87.9063,215.3869 87.2813,215.3869 Q85.9375,215.3869 85.25,216.465 Q84.5625,217.5275 84.5625,219.6212 Q84.5625,221.715 85.25,222.7931 Q85.9375,223.8556 87.2813,223.8556 Q87.9063,223.8556 88.5,223.59 Q89.0938,223.3087 89.7188,222.7306 L89.7188,225.4494 Z " fill="#000000"/><a href="https://bo4e.github.io/BO4E-python/v202401.1.0-rc2/api/bo4e.com.html#bo4e.com.energiemix.Energiemix" target="_top" title="https://bo4e.github.io/BO4E-python/v202401.1.0-rc2/api/bo4e.com.html#bo4e.com.energiemix.Energiemix" xlink:actuate="onRequest" xlink:href="https://bo4e.github.io/BO4E-python/v202401.1.0-rc2/api/bo4e.com.html#bo4e.com.energiemix.Energiemix" xlink:show="new" xlink:title="https://bo4e.github.io/BO4E-python/v202401.1.0-rc2/api/bo4e.com.html#bo4e.com.energiemix.Energiemix" xlink:type="simple"><text fill="#0000FF" font-family="sans-serif" font-size="14" lengthAdjust="spacing" text-decoration="underline" textLength="76" x="121.75" y="218.8351">Energiemix</text></a><text fill="#000000" font-family="sans-serif" font-size="10" lengthAdjust="spacing" textLength="105" x="107.25" y="231.4191">bo4e.com.energiemix</text><line style="stroke:#181818;stroke-width:0.5;" x1="8" x2="279" y1="238.7775" y2="238.7775"/><text fill="#000000" font-family="sans-serif" font-size="14" lengthAdjust="spacing" textLength="261" x="13" y="255.7726">energiemixnummer : int [0..1] = None</text><text fill="#000000" font-family="sans-serif" font-size="14" lengthAdjust="spacing" textLength="219" x="13" y="272.0695">bezeichnung : str [0..1] = None</text><text fill="#000000" font-family="sans-serif" font-size="14" lengthAdjust="spacing" textLength="232" x="13" y="288.3664">gueltigkeitsjahr : int [0..1] = None</text><text fill="#000000" font-family="sans-serif" font-size="14" lengthAdjust="spacing" textLength="208" x="13" y="304.6632">bemerkung : str [0..1] = None</text><text fill="#000000" font-family="sans-serif" font-size="14" lengthAdjust="spacing" textLength="253" x="13" y="320.9601">co2Emission : Decimal [0..1] = None</text><text fill="#000000" font-family="sans-serif" font-size="14" lengthAdjust="spacing" textLength="237" x="13" y="337.257">atommuell : Decimal [0..1] = None</text><text fill="#000000" font-family="sans-serif" font-size="14" lengthAdjust="spacing" textLength="259" x="13" y="353.5539">istInOekoTopTen : bool [0..1] = None</text><text fill="#000000" font-family="sans-serif" font-size="14" lengthAdjust="spacing" textLength="182" x="13" y="369.8507">website : str [0..1] = None</text></g><!--link Energiemix to COM--><g id="link_Energiemix_COM"><path codeLine="24" d="M280.21,204.62 C321.99,181.23 368.89,157.48 414,140 C438.41,130.54 448.9044,126.9067 472.2944,120.5267 " fill="none" id="Energiemix-to-COM" style="stroke:#181818;stroke-width:1.0;"/><polygon fill="none" points="489.66,115.79,470.7155,114.7382,473.8733,126.3153,489.66,115.79" style="stroke:#181818;stroke-width:1.0;"/></g><!--link Energiemix to Sparte--><g id="link_Energiemix_Sparte"><path codeLine="25" d="M280.05,349.86 C290.15,354.06 300.21,358.15 310,362 C355.53,379.89 367.39,383.15 414,398 C435.77,404.94 448.2806,408.7425 469.5206,414.8725 " fill="none" id="Energiemix-to-Sparte" style="stroke:#181818;stroke-width:1.0;"/><polygon fill="#181818" points="481.05,418.2,476.3944,412.6931,469.5206,414.8725,474.1761,420.3794,481.05,418.2" style="stroke:#181818;stroke-width:1.0;"/><text fill="#000000" font-family="sans-serif" font-size="13" lengthAdjust="spacing" textLength="66" x="325" y="358.0669">energieart</text><text fill="#000000" font-family="sans-serif" font-size="13" lengthAdjust="spacing" textLength="24" x="449.527" y="429.3148">0..1</text></g><!--link Energiemix to Energieherkunft--><g id="link_Energiemix_Energieherkunft"><path codeLine="26" d="M280.4,250.27 C345.3,231.77 408.5794,213.7386 461.3594,198.6986 " fill="none" id="Energiemix-to-Energieherkunft" style="stroke:#181818;stroke-width:1.0;"/><polygon fill="#181818" points="472.9,195.41,466.0335,193.2074,461.3594,198.6986,468.2259,200.9011,472.9,195.41" style="stroke:#181818;stroke-width:1.0;"/><text fill="#000000" font-family="sans-serif" font-size="13" lengthAdjust="spacing" textLength="35" x="340.5" y="212.0669">anteil</text><text fill="#000000" font-family="sans-serif" font-size="13" lengthAdjust="spacing" textLength="23" x="431.2612" y="213.7155">0..*</text></g><!--link Energiemix to Oekozertifikat--><g id="link_Energiemix_Oekozertifikat"><path codeLine="27" d="M280.4,289 C341.82,289 400.14,289 452.24,289 " fill="none" id="Energiemix-to-Oekozertifikat" style="stroke:#181818;stroke-width:1.0;"/><polygon fill="#181818" points="464.24,289,458.24,285,452.24,289,458.24,293,464.24,289" style="stroke:#181818;stroke-width:1.0;"/><text fill="#000000" font-family="sans-serif" font-size="13" lengthAdjust="spacing" textLength="94" x="311" y="285.0669">oekozertifikate</text><text fill="#000000" font-family="sans-serif" font-size="13" lengthAdjust="spacing" textLength="23" x="433.5692" y="301.7172">0..*</text></g><!--link Energiemix to Oekolabel--><g id="link_Energiemix_Oekolabel"><path codeLine="28" d="M280.4,314.02 C345.86,326.07 409.6184,337.8068 462.4584,347.5368 " fill="none" id="Energiemix-to-Oekolabel" style="stroke:#181818;stroke-width:1.0;"/><polygon fill="#181818" points="474.26,349.71,469.0836,344.6896,462.4584,347.5368,467.6348,352.5573,474.26,349.71" style="stroke:#181818;stroke-width:1.0;"/><text fill="#000000" font-family="sans-serif" font-size="13" lengthAdjust="spacing" textLength="61" x="327.5" y="318.0669">oekolabel</text><text fill="#000000" font-family="sans-serif" font-size="13" lengthAdjust="spacing" textLength="23" x="443.4598" y="361.312">0..*</text></g><!--SRC=[jLJ1Zfim43qlNp5ARYi5I9fMAzIkr6vpwA7DeNjBEHWoWMcm7U59jqtRVwyn2o5i4lMG72pyyFFCW_Vi0bSChA6aB6TOKeafarQUbnR261Wi5ZdpnaH1aEWf-Xbnlaryqi67-NGsslpYNAlWnoISJCEnF_R3KPbE0h6XcfvgwUSiYs6BK66P4KhwwS_QAUodSVnDlJMqmsWStX_PDG1XEdJuxTti5zLMIYmX0b8CYz3tnp6yWozQeNUJu0ufpTLMPPPWkEmJiYqMJDaQYSrtaPyiOpkiJnP9zMGcoHZx2otX8wOaHT4d2TPIscx5QGeP_gJckDQFUlE8LQr4wnUi9qmCCHwLyjVpb91eDYB5Iza83OfZvqC3OJWBtz-zUQZSk59kgl4m_mns78-87KwJ9LnDn7FISfU05JS9RZ3qyDaiDwHke9jtrhoBUOVsK7JCgs3NlGh3S3bENxs-kvXzRS_X7ceRvXsMJ2jQ2_Rd1n0EuSiVTwI4-uR3VLUMNuW42wVSpQ2TdT7hrbkf3brHfKrCoUX_TG-e7oV4rLIdhEPLDqRtJXwD_jot9xmwUmUhTlaM1jMDCzW7gMaSmNF8BJg-wtQmBzq_HH48nKZ5-PskNoz54Hn61F-pH6rdlRksoCjfYI1H9bWQp-Jw2RgbLeJ5qlm3]--></g></svg>