<?xml version="1.0" encoding="us-ascii" standalone="no"?><svg xmlns="http://www.w3.org/2000/svg" xmlns:xlink="http://www.w3.org/1999/xlink" contentStyleType="text/css" height="687px" preserveAspectRatio="none" style="width:1117px;height:687px;background:#FFFFFF;" version="1.1" viewBox="0 0 1117 687" width="1117px" zoomAndPan="magnify"><defs/><g><!--cluster bo4e--><g id="cluster_bo4e"><path d="M838.5,6 L879.5,6 A3.75,3.75 0 0 1 882,8.5 L889,28.2969 L1107.5,28.2969 A2.5,2.5 0 0 1 1110,30.7969 L1110,677.5 A2.5,2.5 0 0 1 1107.5,680 L838.5,680 A2.5,2.5 0 0 1 836,677.5 L836,8.5 A2.5,2.5 0 0 1 838.5,6 " fill="none" style="stroke:#000000;stroke-width:1.5;"/><line style="stroke:#000000;stroke-width:1.5;" x1="836" x2="889" y1="28.2969" y2="28.2969"/><text fill="#000000" font-family="sans-serif" font-size="14" font-weight="bold" lengthAdjust="spacing" textLength="40" x="840" y="20.9951">bo4e</text></g><!--cluster bo--><g id="cluster_bo"><path d="M878,49 L944,49 A3.75,3.75 0 0 1 946.5,51.5 L953.5,71.2969 L1068,71.2969 A2.5,2.5 0 0 1 1070.5,73.7969 L1070.5,208.5 A2.5,2.5 0 0 1 1068,211 L878,211 A2.5,2.5 0 0 1 875.5,208.5 L875.5,51.5 A2.5,2.5 0 0 1 878,49 " fill="#B6D7A8" style="stroke:#000000;stroke-width:1.5;"/><line style="stroke:#000000;stroke-width:1.5;" x1="875.5" x2="953.5" y1="71.2969" y2="71.2969"/><a href="https://bo4e.github.io/BO4E-python/v202501.0.0/api/bo4e.bo.html" target="_top" title="https://bo4e.github.io/BO4E-python/v202501.0.0/api/bo4e.bo.html" xlink:actuate="onRequest" xlink:href="https://bo4e.github.io/BO4E-python/v202501.0.0/api/bo4e.bo.html" xlink:show="new" xlink:title="https://bo4e.github.io/BO4E-python/v202501.0.0/api/bo4e.bo.html" xlink:type="simple"><text fill="#0000FF" font-family="sans-serif" font-size="14" font-weight="bold" lengthAdjust="spacing" text-decoration="underline" textLength="65" x="879.5" y="63.9951">bo4e.bo</text></a></g><!--cluster com--><g id="cluster_com"><path d="M874.5,235 L953.5,235 A3.75,3.75 0 0 1 956,237.5 L963,257.2969 L1071.5,257.2969 A2.5,2.5 0 0 1 1074,259.7969 L1074,394.5 A2.5,2.5 0 0 1 1071.5,397 L874.5,397 A2.5,2.5 0 0 1 872,394.5 L872,237.5 A2.5,2.5 0 0 1 874.5,235 " fill="#E0A86C" style="stroke:#000000;stroke-width:1.5;"/><line style="stroke:#000000;stroke-width:1.5;" x1="872" x2="963" y1="257.2969" y2="257.2969"/><a href="https://bo4e.github.io/BO4E-python/v202501.0.0/api/bo4e.com.html" target="_top" title="https://bo4e.github.io/BO4E-python/v202501.0.0/api/bo4e.com.html" xlink:actuate="onRequest" xlink:href="https://bo4e.github.io/BO4E-python/v202501.0.0/api/bo4e.com.html" xlink:show="new" xlink:title="https://bo4e.github.io/BO4E-python/v202501.0.0/api/bo4e.com.html" xlink:type="simple"><text fill="#0000FF" font-family="sans-serif" font-size="14" font-weight="bold" lengthAdjust="spacing" text-decoration="underline" textLength="78" x="876" y="249.9951">bo4e.com</text></a></g><!--cluster enum--><g id="cluster_enum"><path d="M862.5,421 L952.5,421 A3.75,3.75 0 0 1 955,423.5 L962,443.2969 L1083.5,443.2969 A2.5,2.5 0 0 1 1086,445.7969 L1086,653.5 A2.5,2.5 0 0 1 1083.5,656 L862.5,656 A2.5,2.5 0 0 1 860,653.5 L860,423.5 A2.5,2.5 0 0 1 862.5,421 " fill="#D1C358" style="stroke:#000000;stroke-width:1.5;"/><line style="stroke:#000000;stroke-width:1.5;" x1="860" x2="962" y1="443.2969" y2="443.2969"/><a href="https://bo4e.github.io/BO4E-python/v202501.0.0/api/bo4e.enum.html" target="_top" title="https://bo4e.github.io/BO4E-python/v202501.0.0/api/bo4e.enum.html" xlink:actuate="onRequest" xlink:href="https://bo4e.github.io/BO4E-python/v202501.0.0/api/bo4e.enum.html" xlink:show="new" xlink:title="https://bo4e.github.io/BO4E-python/v202501.0.0/api/bo4e.enum.html" xlink:type="simple"><text fill="#0000FF" font-family="sans-serif" font-size="14" font-weight="bold" lengthAdjust="spacing" text-decoration="underline" textLength="89" x="864" y="435.9951">bo4e.enum</text></a></g><!--class Geschaeftsobjekt--><g id="elem_Geschaeftsobjekt"><rect codeLine="12" fill="#F1F1F1" height="37.9375" id="Geschaeftsobjekt" rx="2.5" ry="2.5" style="stroke:#181818;stroke-width:0.5;" width="156" x="895" y="84.03"/><ellipse cx="910" cy="102.9987" fill="#ADD1B2" rx="11" ry="11" style="stroke:#181818;stroke-width:1.0;"/><path d="M912.9688,108.6394 Q912.3906,108.9362 911.75,109.0769 Q911.1094,109.2331 910.4063,109.2331 Q907.9063,109.2331 906.5781,107.5925 Q905.2656,105.9362 905.2656,102.8112 Q905.2656,99.6862 906.5781,98.03 Q907.9063,96.3737 910.4063,96.3737 Q911.1094,96.3737 911.75,96.53 Q912.4063,96.6862 912.9688,96.9831 L912.9688,99.7019 Q912.3438,99.1237 911.75,98.8581 Q911.1563,98.5769 910.5313,98.5769 Q909.1875,98.5769 908.5,99.655 Q907.8125,100.7175 907.8125,102.8112 Q907.8125,104.905 908.5,105.9831 Q909.1875,107.0456 910.5313,107.0456 Q911.1563,107.0456 911.75,106.78 Q912.3438,106.4987 912.9688,105.9206 L912.9688,108.6394 Z " fill="#000000"/><a href="https://bo4e.github.io/BO4E-python/v202501.0.0/api/bo4e.bo.html#bo4e.bo.geschaeftsobjekt.Geschaeftsobjekt" target="_top" title="https://bo4e.github.io/BO4E-python/v202501.0.0/api/bo4e.bo.html#bo4e.bo.geschaeftsobjekt.Geschaeftsobjekt" xlink:actuate="onRequest" xlink:href="https://bo4e.github.io/BO4E-python/v202501.0.0/api/bo4e.bo.html#bo4e.bo.geschaeftsobjekt.Geschaeftsobjekt" xlink:show="new" xlink:title="https://bo4e.github.io/BO4E-python/v202501.0.0/api/bo4e.bo.html#bo4e.bo.geschaeftsobjekt.Geschaeftsobjekt" xlink:type="simple"><text fill="#0000FF" font-family="sans-serif" font-size="14" lengthAdjust="spacing" text-decoration="underline" textLength="122" x="925" y="102.0251">Geschaeftsobjekt</text></a><text fill="#000000" font-family="sans-serif" font-size="10" lengthAdjust="spacing" textLength="124" x="924" y="114.6091">bo4e.bo.geschaeftsobjekt</text></g><!--class Geschaeftspartner--><g id="elem_Geschaeftspartner"><rect codeLine="13" fill="#F1F1F1" height="37.9375" id="Geschaeftspartner" rx="2.5" ry="2.5" style="stroke:#181818;stroke-width:0.5;" width="163" x="891.5" y="157.03"/><ellipse cx="906.5" cy="175.9987" fill="#ADD1B2" rx="11" ry="11" style="stroke:#181818;stroke-width:1.0;"/><path d="M909.4688,181.6394 Q908.8906,181.9362 908.25,182.0769 Q907.6094,182.2331 906.9063,182.2331 Q904.4063,182.2331 903.0781,180.5925 Q901.7656,178.9362 901.7656,175.8112 Q901.7656,172.6862 903.0781,171.03 Q904.4063,169.3737 906.9063,169.3737 Q907.6094,169.3737 908.25,169.53 Q908.9063,169.6862 909.4688,169.9831 L909.4688,172.7019 Q908.8438,172.1237 908.25,171.8581 Q907.6563,171.5769 907.0313,171.5769 Q905.6875,171.5769 905,172.655 Q904.3125,173.7175 904.3125,175.8112 Q904.3125,177.905 905,178.9831 Q905.6875,180.0456 907.0313,180.0456 Q907.6563,180.0456 908.25,179.78 Q908.8438,179.4987 909.4688,178.9206 L909.4688,181.6394 Z " fill="#000000"/><a href="https://bo4e.github.io/BO4E-python/v202501.0.0/api/bo4e.bo.html#bo4e.bo.geschaeftspartner.Geschaeftspartner" target="_top" title="https://bo4e.github.io/BO4E-python/v202501.0.0/api/bo4e.bo.html#bo4e.bo.geschaeftspartner.Geschaeftspartner" xlink:actuate="onRequest" xlink:href="https://bo4e.github.io/BO4E-python/v202501.0.0/api/bo4e.bo.html#bo4e.bo.geschaeftspartner.Geschaeftspartner" xlink:show="new" xlink:title="https://bo4e.github.io/BO4E-python/v202501.0.0/api/bo4e.bo.html#bo4e.bo.geschaeftspartner.Geschaeftspartner" xlink:type="simple"><text fill="#0000FF" font-family="sans-serif" font-size="14" lengthAdjust="spacing" text-decoration="underline" textLength="129" x="921.5" y="175.0251">Geschaeftspartner</text></a><text fill="#000000" font-family="sans-serif" font-size="10" lengthAdjust="spacing" textLength="131" x="920.5" y="187.6091">bo4e.bo.geschaeftspartner</text></g><!--class Ausschreibungslos--><g id="elem_Ausschreibungslos"><rect codeLine="16" fill="#F1F1F1" height="37.9375" id="Ausschreibungslos" rx="2.5" ry="2.5" style="stroke:#181818;stroke-width:0.5;" width="170" x="888" y="270.03"/><ellipse cx="903" cy="288.9988" fill="#ADD1B2" rx="11" ry="11" style="stroke:#181818;stroke-width:1.0;"/><path d="M905.9688,294.6394 Q905.3906,294.9363 904.75,295.0769 Q904.1094,295.2331 903.4063,295.2331 Q900.9063,295.2331 899.5781,293.5925 Q898.2656,291.9363 898.2656,288.8113 Q898.2656,285.6863 899.5781,284.03 Q900.9063,282.3738 903.4063,282.3738 Q904.1094,282.3738 904.75,282.53 Q905.4063,282.6863 905.9688,282.9831 L905.9688,285.7019 Q905.3438,285.1238 904.75,284.8581 Q904.1563,284.5769 903.5313,284.5769 Q902.1875,284.5769 901.5,285.655 Q900.8125,286.7175 900.8125,288.8113 Q900.8125,290.905 901.5,291.9831 Q902.1875,293.0456 903.5313,293.0456 Q904.1563,293.0456 904.75,292.78 Q905.3438,292.4988 905.9688,291.9206 L905.9688,294.6394 Z " fill="#000000"/><a href="https://bo4e.github.io/BO4E-python/v202501.0.0/api/bo4e.com.html#bo4e.com.ausschreibungslos.Ausschreibungslos" target="_top" title="https://bo4e.github.io/BO4E-python/v202501.0.0/api/bo4e.com.html#bo4e.com.ausschreibungslos.Ausschreibungslos" xlink:actuate="onRequest" xlink:href="https://bo4e.github.io/BO4E-python/v202501.0.0/api/bo4e.com.html#bo4e.com.ausschreibungslos.Ausschreibungslos" xlink:show="new" xlink:title="https://bo4e.github.io/BO4E-python/v202501.0.0/api/bo4e.com.html#bo4e.com.ausschreibungslos.Ausschreibungslos" xlink:type="simple"><text fill="#0000FF" font-family="sans-serif" font-size="14" lengthAdjust="spacing" text-decoration="underline" textLength="132" x="920" y="288.0251">Ausschreibungslos</text></a><text fill="#000000" font-family="sans-serif" font-size="10" lengthAdjust="spacing" textLength="138" x="917" y="300.6091">bo4e.com.ausschreibungslos</text></g><!--class Zeitraum--><g id="elem_Zeitraum"><rect codeLine="17" fill="#F1F1F1" height="37.9375" id="Zeitraum" rx="2.5" ry="2.5" style="stroke:#181818;stroke-width:0.5;" width="126" x="910" y="343.03"/><ellipse cx="925" cy="361.9988" fill="#ADD1B2" rx="11" ry="11" style="stroke:#181818;stroke-width:1.0;"/><path d="M927.9688,367.6394 Q927.3906,367.9363 926.75,368.0769 Q926.1094,368.2331 925.4063,368.2331 Q922.9063,368.2331 921.5781,366.5925 Q920.2656,364.9363 920.2656,361.8113 Q920.2656,358.6863 921.5781,357.03 Q922.9063,355.3738 925.4063,355.3738 Q926.1094,355.3738 926.75,355.53 Q927.4063,355.6863 927.9688,355.9831 L927.9688,358.7019 Q927.3438,358.1238 926.75,357.8581 Q926.1563,357.5769 925.5313,357.5769 Q924.1875,357.5769 923.5,358.655 Q922.8125,359.7175 922.8125,361.8113 Q922.8125,363.905 923.5,364.9831 Q924.1875,366.0456 925.5313,366.0456 Q926.1563,366.0456 926.75,365.78 Q927.3438,365.4988 927.9688,364.9206 L927.9688,367.6394 Z " fill="#000000"/><a href="https://bo4e.github.io/BO4E-python/v202501.0.0/api/bo4e.com.html#bo4e.com.zeitraum.Zeitraum" target="_top" title="https://bo4e.github.io/BO4E-python/v202501.0.0/api/bo4e.com.html#bo4e.com.zeitraum.Zeitraum" xlink:actuate="onRequest" xlink:href="https://bo4e.github.io/BO4E-python/v202501.0.0/api/bo4e.com.html#bo4e.com.zeitraum.Zeitraum" xlink:show="new" xlink:title="https://bo4e.github.io/BO4E-python/v202501.0.0/api/bo4e.com.html#bo4e.com.zeitraum.Zeitraum" xlink:type="simple"><text fill="#0000FF" font-family="sans-serif" font-size="14" lengthAdjust="spacing" text-decoration="underline" textLength="62" x="955" y="361.0251">Zeitraum</text></a><text fill="#000000" font-family="sans-serif" font-size="10" lengthAdjust="spacing" textLength="94" x="939" y="373.6091">bo4e.com.zeitraum</text></g><!--class Ausschreibungsportal--><g id="elem_Ausschreibungsportal"><rect codeLine="20" fill="#F1F1F1" height="37.9375" id="Ausschreibungsportal" rx="2.5" ry="2.5" style="stroke:#181818;stroke-width:0.5;" width="192" x="877" y="456.03"/><ellipse cx="892" cy="474.9988" fill="#ADD1B2" rx="11" ry="11" style="stroke:#181818;stroke-width:1.0;"/><path d="M894.9688,480.6394 Q894.3906,480.9363 893.75,481.0769 Q893.1094,481.2331 892.4063,481.2331 Q889.9063,481.2331 888.5781,479.5925 Q887.2656,477.9363 887.2656,474.8113 Q887.2656,471.6863 888.5781,470.03 Q889.9063,468.3738 892.4063,468.3738 Q893.1094,468.3738 893.75,468.53 Q894.4063,468.6863 894.9688,468.9831 L894.9688,471.7019 Q894.3438,471.1238 893.75,470.8581 Q893.1563,470.5769 892.5313,470.5769 Q891.1875,470.5769 890.5,471.655 Q889.8125,472.7175 889.8125,474.8113 Q889.8125,476.905 890.5,477.9831 Q891.1875,479.0456 892.5313,479.0456 Q893.1563,479.0456 893.75,478.78 Q894.3438,478.4988 894.9688,477.9206 L894.9688,480.6394 Z " fill="#000000"/><a href="https://bo4e.github.io/BO4E-python/v202501.0.0/api/bo4e.enum.html#bo4e.enum.ausschreibungsportal.Ausschreibungsportal" target="_top" title="https://bo4e.github.io/BO4E-python/v202501.0.0/api/bo4e.enum.html#bo4e.enum.ausschreibungsportal.Ausschreibungsportal" xlink:actuate="onRequest" xlink:href="https://bo4e.github.io/BO4E-python/v202501.0.0/api/bo4e.enum.html#bo4e.enum.ausschreibungsportal.Ausschreibungsportal" xlink:show="new" xlink:title="https://bo4e.github.io/BO4E-python/v202501.0.0/api/bo4e.enum.html#bo4e.enum.ausschreibungsportal.Ausschreibungsportal" xlink:type="simple"><text fill="#0000FF" font-family="sans-serif" font-size="14" lengthAdjust="spacing" text-decoration="underline" textLength="151" x="910.5" y="474.0251">Ausschreibungsportal</text></a><text fill="#000000" font-family="sans-serif" font-size="10" lengthAdjust="spacing" textLength="160" x="906" y="486.6091">bo4e.enum.ausschreibungsportal</text></g><!--class Ausschreibungsstatus--><g id="elem_Ausschreibungsstatus"><rect codeLine="21" fill="#F1F1F1" height="37.9375" id="Ausschreibungsstatus" rx="2.5" ry="2.5" style="stroke:#181818;stroke-width:0.5;" width="194" x="876" y="529.03"/><ellipse cx="891" cy="547.9988" fill="#ADD1B2" rx="11" ry="11" style="stroke:#181818;stroke-width:1.0;"/><path d="M893.9688,553.6394 Q893.3906,553.9363 892.75,554.0769 Q892.1094,554.2331 891.4063,554.2331 Q888.9063,554.2331 887.5781,552.5925 Q886.2656,550.9363 886.2656,547.8113 Q886.2656,544.6863 887.5781,543.03 Q888.9063,541.3738 891.4063,541.3738 Q892.1094,541.3738 892.75,541.53 Q893.4063,541.6863 893.9688,541.9831 L893.9688,544.7019 Q893.3438,544.1238 892.75,543.8581 Q892.1563,543.5769 891.5313,543.5769 Q890.1875,543.5769 889.5,544.655 Q888.8125,545.7175 888.8125,547.8113 Q888.8125,549.905 889.5,550.9831 Q890.1875,552.0456 891.5313,552.0456 Q892.1563,552.0456 892.75,551.78 Q893.3438,551.4988 893.9688,550.9206 L893.9688,553.6394 Z " fill="#000000"/><a href="https://bo4e.github.io/BO4E-python/v202501.0.0/api/bo4e.enum.html#bo4e.enum.ausschreibungsstatus.Ausschreibungsstatus" target="_top" title="https://bo4e.github.io/BO4E-python/v202501.0.0/api/bo4e.enum.html#bo4e.enum.ausschreibungsstatus.Ausschreibungsstatus" xlink:actuate="onRequest" xlink:href="https://bo4e.github.io/BO4E-python/v202501.0.0/api/bo4e.enum.html#bo4e.enum.ausschreibungsstatus.Ausschreibungsstatus" xlink:show="new" xlink:title="https://bo4e.github.io/BO4E-python/v202501.0.0/api/bo4e.enum.html#bo4e.enum.ausschreibungsstatus.Ausschreibungsstatus" xlink:type="simple"><text fill="#0000FF" font-family="sans-serif" font-size="14" lengthAdjust="spacing" text-decoration="underline" textLength="155" x="908.5" y="547.0251">Ausschreibungsstatus</text></a><text fill="#000000" font-family="sans-serif" font-size="10" lengthAdjust="spacing" textLength="162" x="905" y="559.6091">bo4e.enum.ausschreibungsstatus</text></g><!--class Ausschreibungstyp--><g id="elem_Ausschreibungstyp"><rect codeLine="22" fill="#F1F1F1" height="37.9375" id="Ausschreibungstyp" rx="2.5" ry="2.5" style="stroke:#181818;stroke-width:0.5;" width="180" x="883" y="602.03"/><ellipse cx="898" cy="620.9988" fill="#ADD1B2" rx="11" ry="11" style="stroke:#181818;stroke-width:1.0;"/><path d="M900.9688,626.6394 Q900.3906,626.9363 899.75,627.0769 Q899.1094,627.2331 898.4063,627.2331 Q895.9063,627.2331 894.5781,625.5925 Q893.2656,623.9363 893.2656,620.8113 Q893.2656,617.6863 894.5781,616.03 Q895.9063,614.3738 898.4063,614.3738 Q899.1094,614.3738 899.75,614.53 Q900.4063,614.6863 900.9688,614.9831 L900.9688,617.7019 Q900.3438,617.1238 899.75,616.8581 Q899.1563,616.5769 898.5313,616.5769 Q897.1875,616.5769 896.5,617.655 Q895.8125,618.7175 895.8125,620.8113 Q895.8125,622.905 896.5,623.9831 Q897.1875,625.0456 898.5313,625.0456 Q899.1563,625.0456 899.75,624.78 Q900.3438,624.4988 900.9688,623.9206 L900.9688,626.6394 Z " fill="#000000"/><a href="https://bo4e.github.io/BO4E-python/v202501.0.0/api/bo4e.enum.html#bo4e.enum.ausschreibungstyp.Ausschreibungstyp" target="_top" title="https://bo4e.github.io/BO4E-python/v202501.0.0/api/bo4e.enum.html#bo4e.enum.ausschreibungstyp.Ausschreibungstyp" xlink:actuate="onRequest" xlink:href="https://bo4e.github.io/BO4E-python/v202501.0.0/api/bo4e.enum.html#bo4e.enum.ausschreibungstyp.Ausschreibungstyp" xlink:show="new" xlink:title="https://bo4e.github.io/BO4E-python/v202501.0.0/api/bo4e.enum.html#bo4e.enum.ausschreibungstyp.Ausschreibungstyp" xlink:type="simple"><text fill="#0000FF" font-family="sans-serif" font-size="14" lengthAdjust="spacing" text-decoration="underline" textLength="133" x="919.5" y="620.0251">Ausschreibungstyp</text></a><text fill="#000000" font-family="sans-serif" font-size="10" lengthAdjust="spacing" textLength="148" x="912" y="632.6091">bo4e.enum.ausschreibungstyp</text></g><!--class Ausschreibung--><g id="elem_Ausschreibung"><rect codeLine="3" fill="#F1F1F1" height="127.4219" id="Ausschreibung" rx="2.5" ry="2.5" style="stroke:#181818;stroke-width:0.5;" width="641" x="7" y="317.29"/><ellipse cx="267.75" cy="336.2588" fill="#ADD1B2" rx="11" ry="11" style="stroke:#181818;stroke-width:1.0;"/><path d="M270.7188,341.8994 Q270.1406,342.1963 269.5,342.3369 Q268.8594,342.4931 268.1563,342.4931 Q265.6563,342.4931 264.3281,340.8525 Q263.0156,339.1963 263.0156,336.0713 Q263.0156,332.9463 264.3281,331.29 Q265.6563,329.6338 268.1563,329.6338 Q268.8594,329.6338 269.5,329.79 Q270.1563,329.9463 270.7188,330.2431 L270.7188,332.9619 Q270.0938,332.3838 269.5,332.1181 Q268.9063,331.8369 268.2813,331.8369 Q266.9375,331.8369 266.25,332.915 Q265.5625,333.9775 265.5625,336.0713 Q265.5625,338.165 266.25,339.2431 Q266.9375,340.3056 268.2813,340.3056 Q268.9063,340.3056 269.5,340.04 Q270.0938,339.7588 270.7188,339.1806 L270.7188,341.8994 Z " fill="#000000"/><a href="https://bo4e.github.io/BO4E-python/v202501.0.0/api/bo4e.bo.html#bo4e.bo.ausschreibung.Ausschreibung" target="_top" title="https://bo4e.github.io/BO4E-python/v202501.0.0/api/bo4e.bo.html#bo4e.bo.ausschreibung.Ausschreibung" xlink:actuate="onRequest" xlink:href="https://bo4e.github.io/BO4E-python/v202501.0.0/api/bo4e.bo.html#bo4e.bo.ausschreibung.Ausschreibung" xlink:show="new" xlink:title="https://bo4e.github.io/BO4E-python/v202501.0.0/api/bo4e.bo.html#bo4e.bo.ausschreibung.Ausschreibung" xlink:type="simple"><text fill="#0000FF" font-family="sans-serif" font-size="14" lengthAdjust="spacing" text-decoration="underline" textLength="104" x="291.75" y="335.2851">Ausschreibung</text></a><text fill="#000000" font-family="sans-serif" font-size="10" lengthAdjust="spacing" textLength="111" x="288.25" y="347.8691">bo4e.bo.ausschreibung</text><line style="stroke:#181818;stroke-width:0.5;" x1="8" x2="647" y1="355.2275" y2="355.2275"/><text fill="#000000" font-family="sans-serif" font-size="14" lengthAdjust="spacing" textLength="629" x="13" y="372.2226">_typ : Literal[&lt;BoTyp.AUSSCHREIBUNG: 'AUSSCHREIBUNG'&gt;] [1] = BoTyp.AUSSCHREIBUNG</text><text fill="#000000" font-family="sans-serif" font-size="14" lengthAdjust="spacing" textLength="297" x="13" y="388.5195">ausschreibungsnummer : str [0..1] = None</text><text fill="#000000" font-family="sans-serif" font-size="14" lengthAdjust="spacing" textLength="258" x="13" y="404.8164">istKostenpflichtig : bool [0..1] = None</text><text fill="#000000" font-family="sans-serif" font-size="14" lengthAdjust="spacing" textLength="408" x="13" y="421.1132">veroeffentlichungszeitpunkt : AwareDatetime [0..1] = None</text><text fill="#000000" font-family="sans-serif" font-size="14" lengthAdjust="spacing" textLength="191" x="13" y="437.4101">webseite : str [0..1] = None</text></g><!--link Ausschreibung to Geschaeftsobjekt--><g id="link_Ausschreibung_Geschaeftsobjekt"><path codeLine="25" d="M439.53,316.98 C538.5,262.49 688.8,185.96 828,140 C849.45,132.92 855.6232,130.8273 877.4032,125.2473 " fill="none" id="Ausschreibung-to-Geschaeftsobjekt" style="stroke:#181818;stroke-width:1.0;"/><polygon fill="none" points="894.84,120.78,875.9141,119.435,878.8923,131.0596,894.84,120.78" style="stroke:#181818;stroke-width:1.0;"/></g><!--link Ausschreibung to Ausschreibungstyp--><g id="link_Ausschreibung_Ausschreibungstyp"><path codeLine="26" d="M462.24,445.08 C526.71,474.84 605.6,509.6 678,537 C743.34,561.72 760.81,564.86 828,584 C849.1,590.01 860.4382,593.1212 881.7082,598.5912 " fill="none" id="Ausschreibung-to-Ausschreibungstyp" style="stroke:#181818;stroke-width:1.0;"/><polygon fill="#181818" points="893.33,601.58,888.5153,596.2117,881.7082,598.5912,886.5228,603.9596,893.33,601.58" style="stroke:#181818;stroke-width:1.0;"/><text fill="#000000" font-family="sans-serif" font-size="13" lengthAdjust="spacing" textLength="120" x="689" y="533.0669">ausschreibungstyp</text><text fill="#000000" font-family="sans-serif" font-size="13" lengthAdjust="spacing" textLength="24" x="851.2825" y="593.3603">0..1</text></g><!--link Ausschreibung to Ausschreibungsstatus--><g id="link_Ausschreibung_Ausschreibungsstatus"><path codeLine="27" d="M554.72,445.1 C595.68,456.33 638.06,467.71 678,478 C747.99,496.04 816.0893,512.2231 874.8693,525.8331 " fill="none" id="Ausschreibung-to-Ausschreibungsstatus" style="stroke:#181818;stroke-width:1.0;"/><polygon fill="#181818" points="886.56,528.54,881.6169,523.2897,874.8693,525.8331,879.8123,531.0835,886.56,528.54" style="stroke:#181818;stroke-width:1.0;"/><text fill="#000000" font-family="sans-serif" font-size="13" lengthAdjust="spacing" textLength="140" x="679" y="474.0669">ausschreibungsstatus</text><text fill="#000000" font-family="sans-serif" font-size="13" lengthAdjust="spacing" textLength="24" x="843.7949" y="520.4805">0..1</text></g><!--link Ausschreibung to Geschaeftspartner--><g id="link_Ausschreibung_Geschaeftspartner"><path codeLine="28" d="M529.9,316.84 C661.52,274.91 813.0961,226.6224 899.7361,199.0224 " fill="none" id="Ausschreibung-to-Geschaeftspartner" style="stroke:#181818;stroke-width:1.0;"/><polygon fill="#181818" points="911.17,195.38,904.2389,193.3899,899.7361,199.0224,906.6672,201.0125,911.17,195.38" style="stroke:#181818;stroke-width:1.0;"/><text fill="#000000" font-family="sans-serif" font-size="13" lengthAdjust="spacing" textLength="106" x="696" y="222.0669">ausschreibender</text><text fill="#000000" font-family="sans-serif" font-size="13" lengthAdjust="spacing" textLength="24" x="866.4053" y="215.0259">0..1</text></g><!--link Ausschreibung to Zeitraum--><g id="link_Ausschreibung_Zeitraum"><path codeLine="29" d="M648.36,371.56 C747.88,368.62 835.6452,366.0245 897.5652,364.1945 " fill="none" id="Ausschreibung-to-Zeitraum" style="stroke:#181818;stroke-width:1.0;"/><polygon fill="#181818" points="909.56,363.84,903.4445,360.019,897.5652,364.1945,903.6808,368.0155,909.56,363.84" style="stroke:#181818;stroke-width:1.0;"/><text fill="#000000" font-family="sans-serif" font-size="13" lengthAdjust="spacing" textLength="72" x="713" y="363.0669">abgabefrist</text><text fill="#000000" font-family="sans-serif" font-size="13" lengthAdjust="spacing" textLength="24" x="877.7802" y="376.8771">0..1</text></g><!--link Ausschreibung to Zeitraum--><g id="link_Ausschreibung_Zeitraum"><path codeLine="30" d="M648.27,403.76 C705.56,404.14 764.63,402.12 820,396 C849.83,392.7 870.7141,388.7231 898.0041,382.0431 " fill="none" id="Ausschreibung-to-Zeitraum-1" style="stroke:#181818;stroke-width:1.0;"/><polygon fill="#181818" points="909.66,379.19,902.881,376.7313,898.0041,382.0431,904.7831,384.5019,909.66,379.19" style="stroke:#181818;stroke-width:1.0;"/><text fill="#000000" font-family="sans-serif" font-size="13" lengthAdjust="spacing" textLength="59" x="719.5" y="392.0669">bindefrist</text><text fill="#000000" font-family="sans-serif" font-size="13" lengthAdjust="spacing" textLength="24" x="877.8906" y="393.81">0..1</text></g><!--link Ausschreibung to Ausschreibungslos--><g id="link_Ausschreibung_Ausschreibungslos"><path codeLine="31" d="M648.36,335.27 C736.84,322.62 813.6306,311.6368 875.7306,302.7668 " fill="none" id="Ausschreibung-to-Ausschreibungslos" style="stroke:#181818;stroke-width:1.0;"/><polygon fill="#181818" points="887.61,301.07,881.1047,297.9586,875.7306,302.7668,882.2359,305.8782,887.61,301.07" style="stroke:#181818;stroke-width:1.0;"/><text fill="#000000" font-family="sans-serif" font-size="13" lengthAdjust="spacing" textLength="26" x="736" y="308.0669">lose</text><text fill="#000000" font-family="sans-serif" font-size="13" lengthAdjust="spacing" textLength="23" x="856.8891" y="314.7018">0..*</text></g><!--link Ausschreibung to Ausschreibungsportal--><g id="link_Ausschreibung_Ausschreibungsportal"><path codeLine="32" d="M648.36,427.72 C731.8,439.91 803.526,450.3853 864.856,459.3453 " fill="none" id="Ausschreibung-to-Ausschreibungsportal" style="stroke:#181818;stroke-width:1.0;"/><polygon fill="#181818" points="876.73,461.08,871.3713,456.2547,864.856,459.3453,870.2148,464.1706,876.73,461.08" style="stroke:#181818;stroke-width:1.0;"/><text fill="#000000" font-family="sans-serif" font-size="13" lengthAdjust="spacing" textLength="130" x="684" y="429.0669">ausschreibungportal</text><text fill="#000000" font-family="sans-serif" font-size="13" lengthAdjust="spacing" textLength="24" x="845.1173" y="472.7002">0..1</text></g><!--SRC=[lLPHJzim47ucl-BKF20XDKqPC5InIYrKR69YqXWlwwh9IQ-DHn97zeMgRFllSzga94wsCbHuYN9VlZlVtMUV4-ACW0H8FWy8fboYJrp4bkM7J2beZSS1KQ9wdOudZj2PSmfIp-6YC_nqD6edImf4tBa_T0-FtQxZEcw79NnDzOGJK1JQXS5IfVn08lVIUEuCoXPKhCdaMtoc-0Fskcw_qRi5J5LzuAUrzvsM2VJW8oUKB1oV3SMNPU8CRczkpjz_7dqOtbvVzc2_Ok_t9p3kJk0TD92jlSgYAawZ2ALUGP64iUiuAyTh4QErnnLT2KKO9xEG-m7nkUPvGeGcyHwbmDaCOyfuMTW7v9IayHrfZy62IRnWXCGZD5qNw2dDnSOCVbjMp29K2VDn1wf1Ramcgrxd5jZ3auktWzEisplV7tFKlMPwEohX_S0xSYuD04oWSQEOOLRvcvulcdx29CKeI_dd2DIGBHNaBAE47DMIxqHnNqGboRLLrboRO8_SmUd9-Kv4BnQpDrRrZ8L2LKT3Xa0DgVUjCLHzJcJeYvIHdMB9qiZvchz0yTASQy5VfLXGToKfwb5LqZGpow9cDjZJhl_cU3T7UREU_MXMnKY491OQqgv1Q0BhJVjhq0QHrnzUfJ15Z59ppwv1Q0AVLDYQsb3O-iEh54RPTMWYK4EUL8_cDHIZqUpQCdu5skrV_UA-gLq19bcp3w2LNOIjnwtTa7OFQWaz9rIkgnajLsLRm4eznPLGZeNnL8_rRM6owR4PCjhTcpCFPrB_WVolgyVrWl_sF2XvrkTo3_GJdzF9_EWRdSpFhHNmAKA4aOTIMIeG2p2Mc74Cf-eF]--></g></svg>