<?xml version="1.0" encoding="us-ascii" standalone="no"?><svg xmlns="http://www.w3.org/2000/svg" xmlns:xlink="http://www.w3.org/1999/xlink" contentStyleType="text/css" height="395px" preserveAspectRatio="none" style="width:1027px;height:395px;background:#FFFFFF;" version="1.1" viewBox="0 0 1027 395" width="1027px" zoomAndPan="magnify"><defs/><g><!--cluster bo4e--><g id="cluster_bo4e"><path d="M786.5,6 L827.5,6 A3.75,3.75 0 0 1 830,8.5 L837,28.2969 L1017.5,28.2969 A2.5,2.5 0 0 1 1020,30.7969 L1020,385.5 A2.5,2.5 0 0 1 1017.5,388 L786.5,388 A2.5,2.5 0 0 1 784,385.5 L784,8.5 A2.5,2.5 0 0 1 786.5,6 " fill="none" style="stroke:#000000;stroke-width:1.5;"/><line style="stroke:#000000;stroke-width:1.5;" x1="784" x2="837" y1="28.2969" y2="28.2969"/><text fill="#000000" font-family="sans-serif" font-size="14" font-weight="bold" lengthAdjust="spacing" textLength="40" x="788" y="20.9951">bo4e</text></g><!--cluster bo--><g id="cluster_bo"><path d="M810.5,49 L876.5,49 A3.75,3.75 0 0 1 879,51.5 L886,71.2969 L993.5,71.2969 A2.5,2.5 0 0 1 996,73.7969 L996,135.5 A2.5,2.5 0 0 1 993.5,138 L810.5,138 A2.5,2.5 0 0 1 808,135.5 L808,51.5 A2.5,2.5 0 0 1 810.5,49 " fill="#B6D7A8" style="stroke:#000000;stroke-width:1.5;"/><line style="stroke:#000000;stroke-width:1.5;" x1="808" x2="886" y1="71.2969" y2="71.2969"/><a href="https://bo4e.github.io/BO4E-python/v202501.0.0/api/bo4e.bo.html" target="_top" title="https://bo4e.github.io/BO4E-python/v202501.0.0/api/bo4e.bo.html" xlink:actuate="onRequest" xlink:href="https://bo4e.github.io/BO4E-python/v202501.0.0/api/bo4e.bo.html" xlink:show="new" xlink:title="https://bo4e.github.io/BO4E-python/v202501.0.0/api/bo4e.bo.html" xlink:type="simple"><text fill="#0000FF" font-family="sans-serif" font-size="14" font-weight="bold" lengthAdjust="spacing" text-decoration="underline" textLength="65" x="812" y="63.9951">bo4e.bo</text></a></g><!--cluster com--><g id="cluster_com"><path d="M822.5,162 L901.5,162 A3.75,3.75 0 0 1 904,164.5 L911,184.2969 L981.5,184.2969 A2.5,2.5 0 0 1 984,186.7969 L984,248.5 A2.5,2.5 0 0 1 981.5,251 L822.5,251 A2.5,2.5 0 0 1 820,248.5 L820,164.5 A2.5,2.5 0 0 1 822.5,162 " fill="#E0A86C" style="stroke:#000000;stroke-width:1.5;"/><line style="stroke:#000000;stroke-width:1.5;" x1="820" x2="911" y1="184.2969" y2="184.2969"/><a href="https://bo4e.github.io/BO4E-python/v202501.0.0/api/bo4e.com.html" target="_top" title="https://bo4e.github.io/BO4E-python/v202501.0.0/api/bo4e.com.html" xlink:actuate="onRequest" xlink:href="https://bo4e.github.io/BO4E-python/v202501.0.0/api/bo4e.com.html" xlink:show="new" xlink:title="https://bo4e.github.io/BO4E-python/v202501.0.0/api/bo4e.com.html" xlink:type="simple"><text fill="#0000FF" font-family="sans-serif" font-size="14" font-weight="bold" lengthAdjust="spacing" text-decoration="underline" textLength="78" x="824" y="176.9951">bo4e.com</text></a></g><!--cluster enum--><g id="cluster_enum"><path d="M814.5,275 L904.5,275 A3.75,3.75 0 0 1 907,277.5 L914,297.2969 L989.5,297.2969 A2.5,2.5 0 0 1 992,299.7969 L992,361.5 A2.5,2.5 0 0 1 989.5,364 L814.5,364 A2.5,2.5 0 0 1 812,361.5 L812,277.5 A2.5,2.5 0 0 1 814.5,275 " fill="#D1C358" style="stroke:#000000;stroke-width:1.5;"/><line style="stroke:#000000;stroke-width:1.5;" x1="812" x2="914" y1="297.2969" y2="297.2969"/><a href="https://bo4e.github.io/BO4E-python/v202501.0.0/api/bo4e.enum.html" target="_top" title="https://bo4e.github.io/BO4E-python/v202501.0.0/api/bo4e.enum.html" xlink:actuate="onRequest" xlink:href="https://bo4e.github.io/BO4E-python/v202501.0.0/api/bo4e.enum.html" xlink:show="new" xlink:title="https://bo4e.github.io/BO4E-python/v202501.0.0/api/bo4e.enum.html" xlink:type="simple"><text fill="#0000FF" font-family="sans-serif" font-size="14" font-weight="bold" lengthAdjust="spacing" text-decoration="underline" textLength="89" x="816" y="289.9951">bo4e.enum</text></a></g><!--class Geschaeftsobjekt--><g id="elem_Geschaeftsobjekt"><rect codeLine="9" fill="#F1F1F1" height="37.9375" id="Geschaeftsobjekt" rx="2.5" ry="2.5" style="stroke:#181818;stroke-width:0.5;" width="156" x="824" y="84.03"/><ellipse cx="839" cy="102.9987" fill="#ADD1B2" rx="11" ry="11" style="stroke:#181818;stroke-width:1.0;"/><path d="M841.9688,108.6394 Q841.3906,108.9362 840.75,109.0769 Q840.1094,109.2331 839.4063,109.2331 Q836.9063,109.2331 835.5781,107.5925 Q834.2656,105.9362 834.2656,102.8112 Q834.2656,99.6862 835.5781,98.03 Q836.9063,96.3737 839.4063,96.3737 Q840.1094,96.3737 840.75,96.53 Q841.4063,96.6862 841.9688,96.9831 L841.9688,99.7019 Q841.3438,99.1237 840.75,98.8581 Q840.1563,98.5769 839.5313,98.5769 Q838.1875,98.5769 837.5,99.655 Q836.8125,100.7175 836.8125,102.8112 Q836.8125,104.905 837.5,105.9831 Q838.1875,107.0456 839.5313,107.0456 Q840.1563,107.0456 840.75,106.78 Q841.3438,106.4987 841.9688,105.9206 L841.9688,108.6394 Z " fill="#000000"/><a href="https://bo4e.github.io/BO4E-python/v202501.0.0/api/bo4e.bo.html#bo4e.bo.geschaeftsobjekt.Geschaeftsobjekt" target="_top" title="https://bo4e.github.io/BO4E-python/v202501.0.0/api/bo4e.bo.html#bo4e.bo.geschaeftsobjekt.Geschaeftsobjekt" xlink:actuate="onRequest" xlink:href="https://bo4e.github.io/BO4E-python/v202501.0.0/api/bo4e.bo.html#bo4e.bo.geschaeftsobjekt.Geschaeftsobjekt" xlink:show="new" xlink:title="https://bo4e.github.io/BO4E-python/v202501.0.0/api/bo4e.bo.html#bo4e.bo.geschaeftsobjekt.Geschaeftsobjekt" xlink:type="simple"><text fill="#0000FF" font-family="sans-serif" font-size="14" lengthAdjust="spacing" text-decoration="underline" textLength="122" x="854" y="102.0251">Geschaeftsobjekt</text></a><text fill="#000000" font-family="sans-serif" font-size="10" lengthAdjust="spacing" textLength="124" x="853" y="114.6091">bo4e.bo.geschaeftsobjekt</text></g><!--class Verbrauch--><g id="elem_Verbrauch"><rect codeLine="12" fill="#F1F1F1" height="37.9375" id="Verbrauch" rx="2.5" ry="2.5" style="stroke:#181818;stroke-width:0.5;" width="132" x="836" y="197.03"/><ellipse cx="851" cy="215.9988" fill="#ADD1B2" rx="11" ry="11" style="stroke:#181818;stroke-width:1.0;"/><path d="M853.9688,221.6394 Q853.3906,221.9363 852.75,222.0769 Q852.1094,222.2331 851.4063,222.2331 Q848.9063,222.2331 847.5781,220.5925 Q846.2656,218.9363 846.2656,215.8113 Q846.2656,212.6863 847.5781,211.03 Q848.9063,209.3738 851.4063,209.3738 Q852.1094,209.3738 852.75,209.53 Q853.4063,209.6863 853.9688,209.9831 L853.9688,212.7019 Q853.3438,212.1238 852.75,211.8581 Q852.1563,211.5769 851.5313,211.5769 Q850.1875,211.5769 849.5,212.655 Q848.8125,213.7175 848.8125,215.8113 Q848.8125,217.905 849.5,218.9831 Q850.1875,220.0456 851.5313,220.0456 Q852.1563,220.0456 852.75,219.78 Q853.3438,219.4988 853.9688,218.9206 L853.9688,221.6394 Z " fill="#000000"/><a href="https://bo4e.github.io/BO4E-python/v202501.0.0/api/bo4e.com.html#bo4e.com.verbrauch.Verbrauch" target="_top" title="https://bo4e.github.io/BO4E-python/v202501.0.0/api/bo4e.com.html#bo4e.com.verbrauch.Verbrauch" xlink:actuate="onRequest" xlink:href="https://bo4e.github.io/BO4E-python/v202501.0.0/api/bo4e.com.html#bo4e.com.verbrauch.Verbrauch" xlink:show="new" xlink:title="https://bo4e.github.io/BO4E-python/v202501.0.0/api/bo4e.com.html#bo4e.com.verbrauch.Verbrauch" xlink:type="simple"><text fill="#0000FF" font-family="sans-serif" font-size="14" lengthAdjust="spacing" text-decoration="underline" textLength="71" x="879.5" y="215.0251">Verbrauch</text></a><text fill="#000000" font-family="sans-serif" font-size="10" lengthAdjust="spacing" textLength="100" x="865" y="227.6091">bo4e.com.verbrauch</text></g><!--class Lokationstyp--><g id="elem_Lokationstyp"><rect codeLine="15" fill="#F1F1F1" height="37.9375" id="Lokationstyp" rx="2.5" ry="2.5" style="stroke:#181818;stroke-width:0.5;" width="148" x="828" y="310.03"/><ellipse cx="843" cy="328.9988" fill="#ADD1B2" rx="11" ry="11" style="stroke:#181818;stroke-width:1.0;"/><path d="M845.9688,334.6394 Q845.3906,334.9363 844.75,335.0769 Q844.1094,335.2331 843.4063,335.2331 Q840.9063,335.2331 839.5781,333.5925 Q838.2656,331.9363 838.2656,328.8113 Q838.2656,325.6863 839.5781,324.03 Q840.9063,322.3738 843.4063,322.3738 Q844.1094,322.3738 844.75,322.53 Q845.4063,322.6863 845.9688,322.9831 L845.9688,325.7019 Q845.3438,325.1238 844.75,324.8581 Q844.1563,324.5769 843.5313,324.5769 Q842.1875,324.5769 841.5,325.655 Q840.8125,326.7175 840.8125,328.8113 Q840.8125,330.905 841.5,331.9831 Q842.1875,333.0456 843.5313,333.0456 Q844.1563,333.0456 844.75,332.78 Q845.3438,332.4988 845.9688,331.9206 L845.9688,334.6394 Z " fill="#000000"/><a href="https://bo4e.github.io/BO4E-python/v202501.0.0/api/bo4e.enum.html#bo4e.enum.lokationstyp.Lokationstyp" target="_top" title="https://bo4e.github.io/BO4E-python/v202501.0.0/api/bo4e.enum.html#bo4e.enum.lokationstyp.Lokationstyp" xlink:actuate="onRequest" xlink:href="https://bo4e.github.io/BO4E-python/v202501.0.0/api/bo4e.enum.html#bo4e.enum.lokationstyp.Lokationstyp" xlink:show="new" xlink:title="https://bo4e.github.io/BO4E-python/v202501.0.0/api/bo4e.enum.html#bo4e.enum.lokationstyp.Lokationstyp" xlink:type="simple"><text fill="#0000FF" font-family="sans-serif" font-size="14" lengthAdjust="spacing" text-decoration="underline" textLength="87" x="871.5" y="328.0251">Lokationstyp</text></a><text fill="#000000" font-family="sans-serif" font-size="10" lengthAdjust="spacing" textLength="116" x="857" y="340.6091">bo4e.enum.lokationstyp</text></g><!--class Energiemenge--><g id="elem_Energiemenge"><rect codeLine="3" fill="#F1F1F1" height="78.5313" id="Energiemenge" rx="2.5" ry="2.5" style="stroke:#181818;stroke-width:0.5;" width="617" x="7" y="176.73"/><ellipse cx="255.25" cy="195.6988" fill="#ADD1B2" rx="11" ry="11" style="stroke:#181818;stroke-width:1.0;"/><path d="M258.2188,201.3394 Q257.6406,201.6363 257,201.7769 Q256.3594,201.9331 255.6563,201.9331 Q253.1563,201.9331 251.8281,200.2925 Q250.5156,198.6363 250.5156,195.5113 Q250.5156,192.3863 251.8281,190.73 Q253.1563,189.0738 255.6563,189.0738 Q256.3594,189.0738 257,189.23 Q257.6563,189.3863 258.2188,189.6831 L258.2188,192.4019 Q257.5938,191.8238 257,191.5581 Q256.4063,191.2769 255.7813,191.2769 Q254.4375,191.2769 253.75,192.355 Q253.0625,193.4175 253.0625,195.5113 Q253.0625,197.605 253.75,198.6831 Q254.4375,199.7456 255.7813,199.7456 Q256.4063,199.7456 257,199.48 Q257.5938,199.1988 258.2188,198.6206 L258.2188,201.3394 Z " fill="#000000"/><a href="https://bo4e.github.io/BO4E-python/v202501.0.0/api/bo4e.bo.html#bo4e.bo.energiemenge.Energiemenge" target="_top" title="https://bo4e.github.io/BO4E-python/v202501.0.0/api/bo4e.bo.html#bo4e.bo.energiemenge.Energiemenge" xlink:actuate="onRequest" xlink:href="https://bo4e.github.io/BO4E-python/v202501.0.0/api/bo4e.bo.html#bo4e.bo.energiemenge.Energiemenge" xlink:show="new" xlink:title="https://bo4e.github.io/BO4E-python/v202501.0.0/api/bo4e.bo.html#bo4e.bo.energiemenge.Energiemenge" xlink:type="simple"><text fill="#0000FF" font-family="sans-serif" font-size="14" lengthAdjust="spacing" text-decoration="underline" textLength="102" x="280.75" y="194.7251">Energiemenge</text></a><text fill="#000000" font-family="sans-serif" font-size="10" lengthAdjust="spacing" textLength="112" x="275.75" y="207.3091">bo4e.bo.energiemenge</text><line style="stroke:#181818;stroke-width:0.5;" x1="8" x2="623" y1="214.6675" y2="214.6675"/><text fill="#000000" font-family="sans-serif" font-size="14" lengthAdjust="spacing" textLength="605" x="13" y="231.6626">_typ : Literal[&lt;BoTyp.ENERGIEMENGE: 'ENERGIEMENGE'&gt;] [1] = BoTyp.ENERGIEMENGE</text><text fill="#000000" font-family="sans-serif" font-size="14" lengthAdjust="spacing" textLength="202" x="13" y="247.9595">lokationsId : str [0..1] = None</text></g><!--link Energiemenge to Geschaeftsobjekt--><g id="link_Energiemenge_Geschaeftsobjekt"><path codeLine="18" d="M522.16,176.24 C626.56,156.06 729.4872,136.1564 806.0472,121.3564 " fill="none" id="Energiemenge-to-Geschaeftsobjekt" style="stroke:#181818;stroke-width:1.0;"/><polygon fill="none" points="823.72,117.94,804.9084,115.4654,807.186,127.2473,823.72,117.94" style="stroke:#181818;stroke-width:1.0;"/></g><!--link Energiemenge to Lokationstyp--><g id="link_Energiemenge_Lokationstyp"><path codeLine="19" d="M522.16,255.76 C628.37,276.29 739.558,297.793 815.878,312.543 " fill="none" id="Energiemenge-to-Lokationstyp" style="stroke:#181818;stroke-width:1.0;"/><polygon fill="#181818" points="827.66,314.82,822.528,309.7541,815.878,312.543,821.01,317.6088,827.66,314.82" style="stroke:#181818;stroke-width:1.0;"/><text fill="#000000" font-family="sans-serif" font-size="13" lengthAdjust="spacing" textLength="77" x="672.5" y="279.0669">lokationstyp</text><text fill="#000000" font-family="sans-serif" font-size="13" lengthAdjust="spacing" textLength="24" x="795.9703" y="326.298">0..1</text></g><!--link Energiemenge to Verbrauch--><g id="link_Energiemenge_Verbrauch"><path codeLine="20" d="M624.16,216 C704.19,216 770.68,216 823.52,216 " fill="none" id="Energiemenge-to-Verbrauch" style="stroke:#181818;stroke-width:1.0;"/><polygon fill="#181818" points="835.52,216,829.52,212,823.52,216,829.52,220,835.52,216" style="stroke:#181818;stroke-width:1.0;"/><text fill="#000000" font-family="sans-serif" font-size="13" lengthAdjust="spacing" textLength="112" x="655" y="212.0669">energieverbrauch</text><text fill="#000000" font-family="sans-serif" font-size="13" lengthAdjust="spacing" textLength="23" x="805.0875" y="228.7882">0..*</text></g><!--SRC=[hPHHRvim4CUVwqznWeTAaM98btOLwY8r6uegTQbKJNjXQ39mnLu18-nqIhTzzm9Dg87kZJV_hFlRv__TESC73Lf29LAk8H4Lnbh8Wf0uOqg15GHSwr9vZXF99T9KQBwBg93E-cxfpykzvh9mdixSitDtGLtgEgmKhw6Hf5pdcNq4BB1A1UPOf4Xz0y24CFnHN2dnZDx2NRqdjO2fdWB-a9EVUb-21xT2OyMou6ejl-rBwc_z-ysD_zNVRdmFJaqyNOKGB4Bu1EDGSfB9HzQue6wI-bIbAmXSIjlmhIoG_2EaO3cgaiKuWKLmW31i7tSWiDSNNpvUNpRlcxmOAQgOixhsIaQ_y57JpM03XXll5cPuJ9l_K5dRDObRiSmDkseo_QeHRD-zlhpuF8bXnyliZfwmYYgsYpdzVbn1jngxqvEqUNR1Knc2nSvqf47JaeR1JXRnX_DfcgYxptx3RbJg2QIt1e09Otj6uZPlKzDCMV-VcC__hexJCMhOGMmTF0EhcLhhpOr-WXwOz_zFFxEw1ZCAxy7XJ-fAJ0WN2KAEUOIL8ehBtz0_ya5WbgWN]--></g></svg>