<?xml version="1.0" encoding="us-ascii" standalone="no"?><svg xmlns="http://www.w3.org/2000/svg" xmlns:xlink="http://www.w3.org/1999/xlink" contentStyleType="text/css" height="574px" preserveAspectRatio="none" style="width:841px;height:574px;background:#FFFFFF;" version="1.1" viewBox="0 0 841 574" width="841px" zoomAndPan="magnify"><defs/><g><!--cluster bo4e--><g id="cluster_bo4e"><path d="M531.5,6 L572.5,6 A3.75,3.75 0 0 1 575,8.5 L582,28.2969 L831.5,28.2969 A2.5,2.5 0 0 1 834,30.7969 L834,564.5 A2.5,2.5 0 0 1 831.5,567 L531.5,567 A2.5,2.5 0 0 1 529,564.5 L529,8.5 A2.5,2.5 0 0 1 531.5,6 " fill="none" style="stroke:#000000;stroke-width:1.5;"/><line style="stroke:#000000;stroke-width:1.5;" x1="529" x2="582" y1="28.2969" y2="28.2969"/><text fill="#000000" font-family="sans-serif" font-size="14" font-weight="bold" lengthAdjust="spacing" textLength="40" x="533" y="20.9951">bo4e</text></g><!--cluster bo--><g id="cluster_bo"><path d="M612,49 L678,49 A3.75,3.75 0 0 1 680.5,51.5 L687.5,71.2969 L751,71.2969 A2.5,2.5 0 0 1 753.5,73.7969 L753.5,135.5 A2.5,2.5 0 0 1 751,138 L612,138 A2.5,2.5 0 0 1 609.5,135.5 L609.5,51.5 A2.5,2.5 0 0 1 612,49 " fill="#B6D7A8" style="stroke:#000000;stroke-width:1.5;"/><line style="stroke:#000000;stroke-width:1.5;" x1="609.5" x2="687.5" y1="71.2969" y2="71.2969"/><a href="https://bo4e.github.io/BO4E-python/v202501.0.0/api/bo4e.bo.html" target="_top" title="https://bo4e.github.io/BO4E-python/v202501.0.0/api/bo4e.bo.html" xlink:actuate="onRequest" xlink:href="https://bo4e.github.io/BO4E-python/v202501.0.0/api/bo4e.bo.html" xlink:show="new" xlink:title="https://bo4e.github.io/BO4E-python/v202501.0.0/api/bo4e.bo.html" xlink:type="simple"><text fill="#0000FF" font-family="sans-serif" font-size="14" font-weight="bold" lengthAdjust="spacing" text-decoration="underline" textLength="65" x="613.5" y="63.9951">bo4e.bo</text></a></g><!--cluster com--><g id="cluster_com"><path d="M555.5,162 L634.5,162 A3.75,3.75 0 0 1 637,164.5 L644,184.2969 L807.5,184.2969 A2.5,2.5 0 0 1 810,186.7969 L810,540.5 A2.5,2.5 0 0 1 807.5,543 L555.5,543 A2.5,2.5 0 0 1 553,540.5 L553,164.5 A2.5,2.5 0 0 1 555.5,162 " fill="#E0A86C" style="stroke:#000000;stroke-width:1.5;"/><line style="stroke:#000000;stroke-width:1.5;" x1="553" x2="644" y1="184.2969" y2="184.2969"/><a href="https://bo4e.github.io/BO4E-python/v202501.0.0/api/bo4e.com.html" target="_top" title="https://bo4e.github.io/BO4E-python/v202501.0.0/api/bo4e.com.html" xlink:actuate="onRequest" xlink:href="https://bo4e.github.io/BO4E-python/v202501.0.0/api/bo4e.com.html" xlink:show="new" xlink:title="https://bo4e.github.io/BO4E-python/v202501.0.0/api/bo4e.com.html" xlink:type="simple"><text fill="#0000FF" font-family="sans-serif" font-size="14" font-weight="bold" lengthAdjust="spacing" text-decoration="underline" textLength="78" x="557" y="176.9951">bo4e.com</text></a></g><!--class Tarifinfo--><g id="elem_Tarifinfo"><rect codeLine="11" fill="#F1F1F1" height="37.9375" id="Tarifinfo" rx="2.5" ry="2.5" style="stroke:#181818;stroke-width:0.5;" width="112" x="625.5" y="84.03"/><ellipse cx="640.5" cy="102.9987" fill="#ADD1B2" rx="11" ry="11" style="stroke:#181818;stroke-width:1.0;"/><path d="M643.4688,108.6394 Q642.8906,108.9362 642.25,109.0769 Q641.6094,109.2331 640.9063,109.2331 Q638.4063,109.2331 637.0781,107.5925 Q635.7656,105.9362 635.7656,102.8112 Q635.7656,99.6862 637.0781,98.03 Q638.4063,96.3737 640.9063,96.3737 Q641.6094,96.3737 642.25,96.53 Q642.9063,96.6862 643.4688,96.9831 L643.4688,99.7019 Q642.8438,99.1237 642.25,98.8581 Q641.6563,98.5769 641.0313,98.5769 Q639.6875,98.5769 639,99.655 Q638.3125,100.7175 638.3125,102.8112 Q638.3125,104.905 639,105.9831 Q639.6875,107.0456 641.0313,107.0456 Q641.6563,107.0456 642.25,106.78 Q642.8438,106.4987 643.4688,105.9206 L643.4688,108.6394 Z " fill="#000000"/><a href="https://bo4e.github.io/BO4E-python/v202501.0.0/api/bo4e.bo.html#bo4e.bo.tarifinfo.Tarifinfo" target="_top" title="https://bo4e.github.io/BO4E-python/v202501.0.0/api/bo4e.bo.html#bo4e.bo.tarifinfo.Tarifinfo" xlink:actuate="onRequest" xlink:href="https://bo4e.github.io/BO4E-python/v202501.0.0/api/bo4e.bo.html#bo4e.bo.tarifinfo.Tarifinfo" xlink:show="new" xlink:title="https://bo4e.github.io/BO4E-python/v202501.0.0/api/bo4e.bo.html#bo4e.bo.tarifinfo.Tarifinfo" xlink:type="simple"><text fill="#0000FF" font-family="sans-serif" font-size="14" lengthAdjust="spacing" text-decoration="underline" textLength="54" x="667.5" y="102.0251">Tarifinfo</text></a><text fill="#000000" font-family="sans-serif" font-size="10" lengthAdjust="spacing" textLength="80" x="654.5" y="114.6091">bo4e.bo.tarifinfo</text></g><!--class RegionalerAufAbschlag--><g id="elem_RegionalerAufAbschlag"><rect codeLine="14" fill="#F1F1F1" height="37.9375" id="RegionalerAufAbschlag" rx="2.5" ry="2.5" style="stroke:#181818;stroke-width:0.5;" width="191" x="586" y="197.03"/><ellipse cx="601" cy="215.9987" fill="#ADD1B2" rx="11" ry="11" style="stroke:#181818;stroke-width:1.0;"/><path d="M603.9688,221.6394 Q603.3906,221.9362 602.75,222.0769 Q602.1094,222.2331 601.4063,222.2331 Q598.9063,222.2331 597.5781,220.5925 Q596.2656,218.9362 596.2656,215.8112 Q596.2656,212.6862 597.5781,211.03 Q598.9063,209.3737 601.4063,209.3737 Q602.1094,209.3737 602.75,209.53 Q603.4063,209.6862 603.9688,209.9831 L603.9688,212.7019 Q603.3438,212.1237 602.75,211.8581 Q602.1563,211.5769 601.5313,211.5769 Q600.1875,211.5769 599.5,212.655 Q598.8125,213.7175 598.8125,215.8112 Q598.8125,217.905 599.5,218.9831 Q600.1875,220.0456 601.5313,220.0456 Q602.1563,220.0456 602.75,219.78 Q603.3438,219.4987 603.9688,218.9206 L603.9688,221.6394 Z " fill="#000000"/><a href="https://bo4e.github.io/BO4E-python/v202501.0.0/api/bo4e.com.html#bo4e.com.regionaleraufabschlag.RegionalerAufAbschlag" target="_top" title="https://bo4e.github.io/BO4E-python/v202501.0.0/api/bo4e.com.html#bo4e.com.regionaleraufabschlag.RegionalerAufAbschlag" xlink:actuate="onRequest" xlink:href="https://bo4e.github.io/BO4E-python/v202501.0.0/api/bo4e.com.html#bo4e.com.regionaleraufabschlag.RegionalerAufAbschlag" xlink:show="new" xlink:title="https://bo4e.github.io/BO4E-python/v202501.0.0/api/bo4e.com.html#bo4e.com.regionaleraufabschlag.RegionalerAufAbschlag" xlink:type="simple"><text fill="#0000FF" font-family="sans-serif" font-size="14" lengthAdjust="spacing" text-decoration="underline" textLength="159" x="615" y="215.0251">RegionalerAufAbschlag</text></a><text fill="#000000" font-family="sans-serif" font-size="10" lengthAdjust="spacing" textLength="157" x="616" y="227.6091">bo4e.com.regionaleraufabschlag</text></g><!--class Tarifberechnungsparameter--><g id="elem_Tarifberechnungsparameter"><rect codeLine="15" fill="#F1F1F1" height="37.9375" id="Tarifberechnungsparameter" rx="2.5" ry="2.5" style="stroke:#181818;stroke-width:0.5;" width="225" x="569" y="270.03"/><ellipse cx="584" cy="288.9988" fill="#ADD1B2" rx="11" ry="11" style="stroke:#181818;stroke-width:1.0;"/><path d="M586.9688,294.6394 Q586.3906,294.9363 585.75,295.0769 Q585.1094,295.2331 584.4063,295.2331 Q581.9063,295.2331 580.5781,293.5925 Q579.2656,291.9363 579.2656,288.8113 Q579.2656,285.6863 580.5781,284.03 Q581.9063,282.3738 584.4063,282.3738 Q585.1094,282.3738 585.75,282.53 Q586.4063,282.6863 586.9688,282.9831 L586.9688,285.7019 Q586.3438,285.1238 585.75,284.8581 Q585.1563,284.5769 584.5313,284.5769 Q583.1875,284.5769 582.5,285.655 Q581.8125,286.7175 581.8125,288.8113 Q581.8125,290.905 582.5,291.9831 Q583.1875,293.0456 584.5313,293.0456 Q585.1563,293.0456 585.75,292.78 Q586.3438,292.4988 586.9688,291.9206 L586.9688,294.6394 Z " fill="#000000"/><a href="https://bo4e.github.io/BO4E-python/v202501.0.0/api/bo4e.com.html#bo4e.com.tarifberechnungsparameter.Tarifberechnungsparameter" target="_top" title="https://bo4e.github.io/BO4E-python/v202501.0.0/api/bo4e.com.html#bo4e.com.tarifberechnungsparameter.Tarifberechnungsparameter" xlink:actuate="onRequest" xlink:href="https://bo4e.github.io/BO4E-python/v202501.0.0/api/bo4e.com.html#bo4e.com.tarifberechnungsparameter.Tarifberechnungsparameter" xlink:show="new" xlink:title="https://bo4e.github.io/BO4E-python/v202501.0.0/api/bo4e.com.html#bo4e.com.tarifberechnungsparameter.Tarifberechnungsparameter" xlink:type="simple"><text fill="#0000FF" font-family="sans-serif" font-size="14" lengthAdjust="spacing" text-decoration="underline" textLength="193" x="598" y="288.0251">Tarifberechnungsparameter</text></a><text fill="#000000" font-family="sans-serif" font-size="10" lengthAdjust="spacing" textLength="185" x="602" y="300.6091">bo4e.com.tarifberechnungsparameter</text></g><!--class Tarifeinschraenkung--><g id="elem_Tarifeinschraenkung"><rect codeLine="16" fill="#F1F1F1" height="37.9375" id="Tarifeinschraenkung" rx="2.5" ry="2.5" style="stroke:#181818;stroke-width:0.5;" width="178" x="592.5" y="343.03"/><ellipse cx="607.5" cy="361.9988" fill="#ADD1B2" rx="11" ry="11" style="stroke:#181818;stroke-width:1.0;"/><path d="M610.4688,367.6394 Q609.8906,367.9363 609.25,368.0769 Q608.6094,368.2331 607.9063,368.2331 Q605.4063,368.2331 604.0781,366.5925 Q602.7656,364.9363 602.7656,361.8113 Q602.7656,358.6863 604.0781,357.03 Q605.4063,355.3738 607.9063,355.3738 Q608.6094,355.3738 609.25,355.53 Q609.9063,355.6863 610.4688,355.9831 L610.4688,358.7019 Q609.8438,358.1238 609.25,357.8581 Q608.6563,357.5769 608.0313,357.5769 Q606.6875,357.5769 606,358.655 Q605.3125,359.7175 605.3125,361.8113 Q605.3125,363.905 606,364.9831 Q606.6875,366.0456 608.0313,366.0456 Q608.6563,366.0456 609.25,365.78 Q609.8438,365.4988 610.4688,364.9206 L610.4688,367.6394 Z " fill="#000000"/><a href="https://bo4e.github.io/BO4E-python/v202501.0.0/api/bo4e.com.html#bo4e.com.tarifeinschraenkung.Tarifeinschraenkung" target="_top" title="https://bo4e.github.io/BO4E-python/v202501.0.0/api/bo4e.com.html#bo4e.com.tarifeinschraenkung.Tarifeinschraenkung" xlink:actuate="onRequest" xlink:href="https://bo4e.github.io/BO4E-python/v202501.0.0/api/bo4e.com.html#bo4e.com.tarifeinschraenkung.Tarifeinschraenkung" xlink:show="new" xlink:title="https://bo4e.github.io/BO4E-python/v202501.0.0/api/bo4e.com.html#bo4e.com.tarifeinschraenkung.Tarifeinschraenkung" xlink:type="simple"><text fill="#0000FF" font-family="sans-serif" font-size="14" lengthAdjust="spacing" text-decoration="underline" textLength="141" x="624" y="361.0251">Tarifeinschraenkung</text></a><text fill="#000000" font-family="sans-serif" font-size="10" lengthAdjust="spacing" textLength="146" x="621.5" y="373.6091">bo4e.com.tarifeinschraenkung</text></g><!--class RegionalePreisgarantie--><g id="elem_RegionalePreisgarantie"><rect codeLine="17" fill="#F1F1F1" height="37.9375" id="RegionalePreisgarantie" rx="2.5" ry="2.5" style="stroke:#181818;stroke-width:0.5;" width="191" x="586" y="416.03"/><ellipse cx="601" cy="434.9988" fill="#ADD1B2" rx="11" ry="11" style="stroke:#181818;stroke-width:1.0;"/><path d="M603.9688,440.6394 Q603.3906,440.9363 602.75,441.0769 Q602.1094,441.2331 601.4063,441.2331 Q598.9063,441.2331 597.5781,439.5925 Q596.2656,437.9363 596.2656,434.8113 Q596.2656,431.6863 597.5781,430.03 Q598.9063,428.3738 601.4063,428.3738 Q602.1094,428.3738 602.75,428.53 Q603.4063,428.6863 603.9688,428.9831 L603.9688,431.7019 Q603.3438,431.1238 602.75,430.8581 Q602.1563,430.5769 601.5313,430.5769 Q600.1875,430.5769 599.5,431.655 Q598.8125,432.7175 598.8125,434.8113 Q598.8125,436.905 599.5,437.9831 Q600.1875,439.0456 601.5313,439.0456 Q602.1563,439.0456 602.75,438.78 Q603.3438,438.4988 603.9688,437.9206 L603.9688,440.6394 Z " fill="#000000"/><a href="https://bo4e.github.io/BO4E-python/v202501.0.0/api/bo4e.com.html#bo4e.com.regionalepreisgarantie.RegionalePreisgarantie" target="_top" title="https://bo4e.github.io/BO4E-python/v202501.0.0/api/bo4e.com.html#bo4e.com.regionalepreisgarantie.RegionalePreisgarantie" xlink:actuate="onRequest" xlink:href="https://bo4e.github.io/BO4E-python/v202501.0.0/api/bo4e.com.html#bo4e.com.regionalepreisgarantie.RegionalePreisgarantie" xlink:show="new" xlink:title="https://bo4e.github.io/BO4E-python/v202501.0.0/api/bo4e.com.html#bo4e.com.regionalepreisgarantie.RegionalePreisgarantie" xlink:type="simple"><text fill="#0000FF" font-family="sans-serif" font-size="14" lengthAdjust="spacing" text-decoration="underline" textLength="159" x="615" y="434.0251">RegionalePreisgarantie</text></a><text fill="#000000" font-family="sans-serif" font-size="10" lengthAdjust="spacing" textLength="158" x="615.5" y="446.6091">bo4e.com.regionalepreisgarantie</text></g><!--class RegionaleTarifpreisposition--><g id="elem_RegionaleTarifpreisposition"><rect codeLine="18" fill="#F1F1F1" height="37.9375" id="RegionaleTarifpreisposition" rx="2.5" ry="2.5" style="stroke:#181818;stroke-width:0.5;" width="219" x="572" y="489.03"/><ellipse cx="587" cy="507.9988" fill="#ADD1B2" rx="11" ry="11" style="stroke:#181818;stroke-width:1.0;"/><path d="M589.9688,513.6394 Q589.3906,513.9363 588.75,514.0769 Q588.1094,514.2331 587.4063,514.2331 Q584.9063,514.2331 583.5781,512.5925 Q582.2656,510.9363 582.2656,507.8113 Q582.2656,504.6863 583.5781,503.03 Q584.9063,501.3738 587.4063,501.3738 Q588.1094,501.3738 588.75,501.53 Q589.4063,501.6863 589.9688,501.9831 L589.9688,504.7019 Q589.3438,504.1238 588.75,503.8581 Q588.1563,503.5769 587.5313,503.5769 Q586.1875,503.5769 585.5,504.655 Q584.8125,505.7175 584.8125,507.8113 Q584.8125,509.905 585.5,510.9831 Q586.1875,512.0456 587.5313,512.0456 Q588.1563,512.0456 588.75,511.78 Q589.3438,511.4988 589.9688,510.9206 L589.9688,513.6394 Z " fill="#000000"/><a href="https://bo4e.github.io/BO4E-python/v202501.0.0/api/bo4e.com.html#bo4e.com.regionaletarifpreisposition.RegionaleTarifpreisposition" target="_top" title="https://bo4e.github.io/BO4E-python/v202501.0.0/api/bo4e.com.html#bo4e.com.regionaletarifpreisposition.RegionaleTarifpreisposition" xlink:actuate="onRequest" xlink:href="https://bo4e.github.io/BO4E-python/v202501.0.0/api/bo4e.com.html#bo4e.com.regionaletarifpreisposition.RegionaleTarifpreisposition" xlink:show="new" xlink:title="https://bo4e.github.io/BO4E-python/v202501.0.0/api/bo4e.com.html#bo4e.com.regionaletarifpreisposition.RegionaleTarifpreisposition" xlink:type="simple"><text fill="#0000FF" font-family="sans-serif" font-size="14" lengthAdjust="spacing" text-decoration="underline" textLength="187" x="601" y="507.0251">RegionaleTarifpreisposition</text></a><text fill="#000000" font-family="sans-serif" font-size="10" lengthAdjust="spacing" textLength="175" x="607" y="519.6091">bo4e.com.regionaletarifpreisposition</text></g><!--class Regionaltarif--><g id="elem_Regionaltarif"><rect codeLine="3" fill="#F1F1F1" height="111.125" id="Regionaltarif" rx="2.5" ry="2.5" style="stroke:#181818;stroke-width:0.5;" width="323" x="7" y="274.44"/><ellipse cx="114.25" cy="293.4088" fill="#ADD1B2" rx="11" ry="11" style="stroke:#181818;stroke-width:1.0;"/><path d="M117.2188,299.0494 Q116.6406,299.3463 116,299.4869 Q115.3594,299.6431 114.6563,299.6431 Q112.1563,299.6431 110.8281,298.0025 Q109.5156,296.3463 109.5156,293.2213 Q109.5156,290.0963 110.8281,288.44 Q112.1563,286.7838 114.6563,286.7838 Q115.3594,286.7838 116,286.94 Q116.6563,287.0963 117.2188,287.3931 L117.2188,290.1119 Q116.5938,289.5338 116,289.2681 Q115.4063,288.9869 114.7813,288.9869 Q113.4375,288.9869 112.75,290.065 Q112.0625,291.1275 112.0625,293.2213 Q112.0625,295.315 112.75,296.3931 Q113.4375,297.4556 114.7813,297.4556 Q115.4063,297.4556 116,297.19 Q116.5938,296.9088 117.2188,296.3306 L117.2188,299.0494 Z " fill="#000000"/><a href="https://bo4e.github.io/BO4E-python/v202501.0.0/api/bo4e.bo.html#bo4e.bo.regionaltarif.Regionaltarif" target="_top" title="https://bo4e.github.io/BO4E-python/v202501.0.0/api/bo4e.bo.html#bo4e.bo.regionaltarif.Regionaltarif" xlink:actuate="onRequest" xlink:href="https://bo4e.github.io/BO4E-python/v202501.0.0/api/bo4e.bo.html#bo4e.bo.regionaltarif.Regionaltarif" xlink:show="new" xlink:title="https://bo4e.github.io/BO4E-python/v202501.0.0/api/bo4e.bo.html#bo4e.bo.regionaltarif.Regionaltarif" xlink:type="simple"><text fill="#0000FF" font-family="sans-serif" font-size="14" lengthAdjust="spacing" text-decoration="underline" textLength="85" x="142.25" y="292.4351">Regionaltarif</text></a><text fill="#000000" font-family="sans-serif" font-size="10" lengthAdjust="spacing" textLength="100" x="134.75" y="305.0191">bo4e.bo.regionaltarif</text><line style="stroke:#181818;stroke-width:0.5;" x1="8" x2="329" y1="312.3775" y2="312.3775"/><text fill="#000000" font-family="sans-serif" font-size="14" lengthAdjust="spacing" textLength="228" x="13" y="329.3726">_version : str [0..1] = 202501.0.0</text><text fill="#000000" font-family="sans-serif" font-size="14" lengthAdjust="spacing" textLength="311" x="13" y="345.6695">zusatzAttribute : ZusatzAttribut [0..*] = None</text><text fill="#000000" font-family="sans-serif" font-size="14" lengthAdjust="spacing" textLength="147" x="13" y="361.9664">_id : str [0..1] = None</text><text fill="#000000" font-family="sans-serif" font-size="14" lengthAdjust="spacing" textLength="288" x="13" y="378.2632">preisstand : AwareDatetime [0..1] = None</text></g><!--link Regionaltarif to Tarifinfo--><g id="link_Regionaltarif_Tarifinfo"><path codeLine="21" d="M262.48,274.01 C293.03,256.64 327.49,238.11 360,223 C450.52,180.94 543.1787,148.0771 607.9287,126.5571 " fill="none" id="Regionaltarif-to-Tarifinfo" style="stroke:#181818;stroke-width:1.0;"/><polygon fill="none" points="625.01,120.88,606.0363,120.8633,609.821,132.2508,625.01,120.88" style="stroke:#181818;stroke-width:1.0;"/></g><!--link Regionaltarif to Tarifberechnungsparameter--><g id="link_Regionaltarif_Tarifberechnungsparameter"><path codeLine="22" d="M330.48,317.08 C408.01,310.86 487.0884,304.5198 556.8784,298.9198 " fill="none" id="Regionaltarif-to-Tarifberechnungsparameter" style="stroke:#181818;stroke-width:1.0;"/><polygon fill="#181818" points="568.84,297.96,562.5393,294.4527,556.8784,298.9198,563.1792,302.4271,568.84,297.96" style="stroke:#181818;stroke-width:1.0;"/><text fill="#000000" font-family="sans-serif" font-size="13" lengthAdjust="spacing" textLength="151" x="361" y="300.0669">berechnungsparameter</text><text fill="#000000" font-family="sans-serif" font-size="13" lengthAdjust="spacing" textLength="24" x="536.854" y="311.0857">0..1</text></g><!--link Regionaltarif to RegionaleTarifpreisposition--><g id="link_Regionaltarif_RegionaleTarifpreisposition"><path codeLine="23" d="M253.97,385.78 C286.09,404.97 323.71,425.09 360,439 C428.16,465.12 496.6395,480.3705 559.8095,491.1005 " fill="none" id="Regionaltarif-to-RegionaleTarifpreisposition" style="stroke:#181818;stroke-width:1.0;"/><polygon fill="#181818" points="571.64,493.11,566.3946,488.1617,559.8095,491.1005,565.0549,496.0488,571.64,493.11" style="stroke:#181818;stroke-width:1.0;"/><text fill="#000000" font-family="sans-serif" font-size="13" lengthAdjust="spacing" textLength="64" x="404.5" y="435.0669">tarifpreise</text><text fill="#000000" font-family="sans-serif" font-size="13" lengthAdjust="spacing" textLength="23" x="540.8654" y="504.7078">0..*</text></g><!--link Regionaltarif to RegionalerAufAbschlag--><g id="link_Regionaltarif_RegionalerAufAbschlag"><path codeLine="24" d="M330.4,286.11 C340.4,283.63 350.33,281.24 360,279 C435.54,261.48 510.0299,246.8812 574.0299,235.0512 " fill="none" id="Regionaltarif-to-RegionalerAufAbschlag" style="stroke:#181818;stroke-width:1.0;"/><polygon fill="#181818" points="585.83,232.87,579.2029,230.0272,574.0299,235.0512,580.657,237.894,585.83,232.87" style="stroke:#181818;stroke-width:1.0;"/><text fill="#000000" font-family="sans-serif" font-size="13" lengthAdjust="spacing" textLength="120" x="376.5" y="244.0669">tarifAufAbschlaege</text><text fill="#000000" font-family="sans-serif" font-size="13" lengthAdjust="spacing" textLength="23" x="554.9597" y="246.7315">0..*</text></g><!--link Regionaltarif to RegionalePreisgarantie--><g id="link_Regionaltarif_RegionalePreisgarantie"><path codeLine="25" d="M330.46,378.95 C340.42,381.47 350.33,383.85 360,386 C435.14,402.71 509.5603,414.002 573.6703,422.342 " fill="none" id="Regionaltarif-to-RegionalePreisgarantie" style="stroke:#181818;stroke-width:1.0;"/><polygon fill="#181818" points="585.57,423.89,580.1361,419.1494,573.6703,422.342,579.1041,427.0826,585.57,423.89" style="stroke:#181818;stroke-width:1.0;"/><text fill="#000000" font-family="sans-serif" font-size="13" lengthAdjust="spacing" textLength="92" x="390.5" y="382.0669">preisgarantien</text><text fill="#000000" font-family="sans-serif" font-size="13" lengthAdjust="spacing" textLength="23" x="555.0163" y="435.7078">0..*</text></g><!--link Regionaltarif to Tarifeinschraenkung--><g id="link_Regionaltarif_Tarifeinschraenkung"><path codeLine="26" d="M330.49,350.49 C340.47,351.44 350.37,352.28 360,353 C438.41,358.82 515.8708,360.8203 580.3108,361.5703 " fill="none" id="Regionaltarif-to-Tarifeinschraenkung" style="stroke:#181818;stroke-width:1.0;"/><polygon fill="#181818" points="592.31,361.71,586.357,357.6404,580.3108,361.5703,586.2639,365.6399,592.31,361.71" style="stroke:#181818;stroke-width:1.0;"/><text fill="#000000" font-family="sans-serif" font-size="13" lengthAdjust="spacing" textLength="126" x="373.5" y="349.0669">tarifeinschraenkung</text><text fill="#000000" font-family="sans-serif" font-size="13" lengthAdjust="spacing" textLength="24" x="560.5626" y="374.3341">0..1</text></g><!--SRC=[jLLTRvim57qkl-8gUOiK85NNLMYhHDU-RjFKfsPeCkG2ri16jccrRFllCuGl4vAkKlBc- -5ZdtElhpEC5IWEWYQfWWqL62dAcML56P4IPkjrgbGXFSS9-HNQ2LLf6TgKEtTVhXwMnI-LSkOyNxgNxzoLxTgkGmgwImsvdQeycxU6m4G3aqmHGMFxsz02mmg2x-o3f5lqLkxjvEuP46dkWT_MnOzd55Axm0Ef1AnTsru5y17woraNsr8IjVML4ZGi5UhK9yDJxrfKkpvpXXgJRiPmkq0Xa4gf2AlY_WiHU4yKAfhZAFElPJ6Ieon8X2UG4neZ26eH6WlcTzVtx_sRIeQJ5wuMcBAOsu_j2hhLPB6w7VKTkrojnKcaY7W-q49RGp6q2VC7rx-v_dGIDTh3vftLjY8AKiOab56QaQHhQ1H-6VkD5oQz-veTX3KwtG0v2xMwS27g8P2oaYMwKa8NJA7ObNug0WSZqpGF7j7tobJqV7IHCgse8CX-wXDtH4qVJFYEa3CJUrgc_xojMO-dH8l75CM-DxyEtJ3jVgKx3MIpFGsOy_AhXQwlKd19gn-h9_cu5uCZiLVexXzaSju7h2R-w7jRBl_SjgEw7wBZB9ssW5drUSowKNRatNam-KuEWIu6eCUayg2dZ6z3CoPVWzExC7aZdDci7XYTn_vVlT5ZRYusUerMIZS8EUPQL6d9bB_0w82OOhQH_m00]--></g></svg>