<svg xmlns="http://www.w3.org/2000/svg" xmlns:xlink="http://www.w3.org/1999/xlink" contentStyleType="text/css" data-diagram-type="CLASS" height="436px" preserveAspectRatio="none" style="width:807px;height:436px;background:#FFFFFF;" version="1.1" viewBox="0 0 807 436" width="807px" zoomAndPan="magnify"><?plantuml 1.2026.6?><defs/><g><!--cluster bo4e--><g class="cluster" data-qualified-name="bo4e" data-source-line="18" id="ent0004"><path d="M597.03,6 L636.906,6 A3.75,3.75 0 0 1 639.406,8.5 L646.406,28.2969 L790.48,28.2969 A2.5,2.5 0 0 1 792.98,30.7969 L792.98,418.5 A2.5,2.5 0 0 1 790.48,421 L597.03,421 A2.5,2.5 0 0 1 594.53,418.5 L594.53,8.5 A2.5,2.5 0 0 1 597.03,6" fill="none" style="stroke:#000000;stroke-width:1.5;"/><line style="stroke:#000000;stroke-width:1.5;" x1="594.53" x2="646.406" y1="28.2969" y2="28.2969"/><text fill="#000000" font-family="sans-serif" font-size="14" font-weight="700" lengthAdjust="spacing" textLength="38.876" x="598.53" y="20.9951">bo4e</text></g><!--cluster com--><g class="cluster" data-qualified-name="bo4e.com" data-source-line="17" id="ent0002"><path d="M628.98,49 L706.6792,49 A3.75,3.75 0 0 1 709.1792,51.5 L716.1792,71.2969 L758.53,71.2969 A2.5,2.5 0 0 1 761.03,73.7969 L761.03,281.5 A2.5,2.5 0 0 1 758.53,284 L628.98,284 A2.5,2.5 0 0 1 626.48,281.5 L626.48,51.5 A2.5,2.5 0 0 1 628.98,49" fill="#E0A86C" style="stroke:#000000;stroke-width:1.5;"/><line style="stroke:#000000;stroke-width:1.5;" x1="626.48" x2="716.1792" y1="71.2969" y2="71.2969"/><text fill="#000000" font-family="sans-serif" font-size="14" font-weight="700" lengthAdjust="spacing" textLength="76.6992" x="630.48" y="63.9951">bo4e.com</text></g><!--cluster enum--><g class="cluster" data-qualified-name="bo4e.enum" data-source-line="48" id="ent0007"><path d="M621.03,308 L710.2409,308 A3.75,3.75 0 0 1 712.7409,310.5 L719.7409,330.2969 L766.48,330.2969 A2.5,2.5 0 0 1 768.98,332.7969 L768.98,394.5 A2.5,2.5 0 0 1 766.48,397 L621.03,397 A2.5,2.5 0 0 1 618.53,394.5 L618.53,310.5 A2.5,2.5 0 0 1 621.03,308" fill="#D1C358" style="stroke:#000000;stroke-width:1.5;"/><line style="stroke:#000000;stroke-width:1.5;" x1="618.53" x2="719.7409" y1="330.2969" y2="330.2969"/><text fill="#000000" font-family="sans-serif" font-size="14" font-weight="700" lengthAdjust="spacing" textLength="88.2109" x="622.53" y="322.9951">bo4e.enum</text></g><!--class Adresse--><g class="entity" data-qualified-name="bo4e.com.Adresse" data-source-line="18" id="ent0003"><rect fill="#F1F1F1" height="37.9375" rx="2.5" ry="2.5" style="stroke:#181818;stroke-width:0.5;" width="96.5605" x="645.47" y="84.03"/><ellipse cx="660.47" cy="102.9987" fill="#ADD1B2" rx="11" ry="11" style="stroke:#181818;stroke-width:1;"/><path d="M663.4388,108.6394 Q662.8606,108.9362 662.22,109.0769 Q661.5794,109.2331 660.8763,109.2331 Q658.3763,109.2331 657.0481,107.5925 Q655.7356,105.9362 655.7356,102.8112 Q655.7356,99.6862 657.0481,98.03 Q658.3763,96.3737 660.8763,96.3737 Q661.5794,96.3737 662.22,96.53 Q662.8763,96.6862 663.4388,96.9831 L663.4388,99.7019 Q662.8138,99.1237 662.22,98.8581 Q661.6263,98.5769 661.0013,98.5769 Q659.6575,98.5769 658.97,99.655 Q658.2825,100.7175 658.2825,102.8112 Q658.2825,104.905 658.97,105.9831 Q659.6575,107.0456 661.0013,107.0456 Q661.6263,107.0456 662.22,106.78 Q662.8138,106.4987 663.4388,105.9206 L663.4388,108.6394 Z " fill="#000000"/><a href="https://bo4e.github.io/BO4E-python/v202607.1.0-rc1/api/bo4e.com.html#module-bo4e.com.adresse" target="_top" title="https://bo4e.github.io/BO4E-python/v202607.1.0-rc1/api/bo4e.com.html#module-bo4e.com.adresse" xlink:actuate="onRequest" xlink:href="https://bo4e.github.io/BO4E-python/v202607.1.0-rc1/api/bo4e.com.html#module-bo4e.com.adresse" xlink:show="new" xlink:title="https://bo4e.github.io/BO4E-python/v202607.1.0-rc1/api/bo4e.com.html#module-bo4e.com.adresse" xlink:type="simple"><text fill="#0000FF" font-family="sans-serif" font-size="14" lengthAdjust="spacing" text-decoration="underline" textLength="56.0342" x="678.7332" y="102.0251">Adresse</text></a><text fill="#000000" font-family="sans-serif" font-size="10" lengthAdjust="spacing" textLength="64.5605" x="674.47" y="114.6091">com.Adresse</text></g><!--class Menge--><g class="entity" data-qualified-name="bo4e.com.Menge" data-source-line="31" id="ent0005"><rect fill="#F1F1F1" height="37.9375" rx="2.5" ry="2.5" style="stroke:#181818;stroke-width:0.5;" width="90.1543" x="648.68" y="157.03"/><ellipse cx="663.68" cy="175.9987" fill="#ADD1B2" rx="11" ry="11" style="stroke:#181818;stroke-width:1;"/><path d="M666.6488,181.6394 Q666.0706,181.9362 665.43,182.0769 Q664.7894,182.2331 664.0863,182.2331 Q661.5863,182.2331 660.2581,180.5925 Q658.9456,178.9362 658.9456,175.8112 Q658.9456,172.6862 660.2581,171.03 Q661.5863,169.3737 664.0863,169.3737 Q664.7894,169.3737 665.43,169.53 Q666.0863,169.6862 666.6488,169.9831 L666.6488,172.7019 Q666.0238,172.1237 665.43,171.8581 Q664.8363,171.5769 664.2113,171.5769 Q662.8675,171.5769 662.18,172.655 Q661.4925,173.7175 661.4925,175.8112 Q661.4925,177.905 662.18,178.9831 Q662.8675,180.0456 664.2113,180.0456 Q664.8363,180.0456 665.43,179.78 Q666.0238,179.4987 666.6488,178.9206 L666.6488,181.6394 Z " fill="#000000"/><a href="https://bo4e.github.io/BO4E-python/v202607.1.0-rc1/api/bo4e.com.html#module-bo4e.com.menge" target="_top" title="https://bo4e.github.io/BO4E-python/v202607.1.0-rc1/api/bo4e.com.html#module-bo4e.com.menge" xlink:actuate="onRequest" xlink:href="https://bo4e.github.io/BO4E-python/v202607.1.0-rc1/api/bo4e.com.html#module-bo4e.com.menge" xlink:show="new" xlink:title="https://bo4e.github.io/BO4E-python/v202607.1.0-rc1/api/bo4e.com.html#module-bo4e.com.menge" xlink:type="simple"><text fill="#0000FF" font-family="sans-serif" font-size="14" lengthAdjust="spacing" text-decoration="underline" textLength="47.0654" x="683.2244" y="175.0251">Menge</text></a><text fill="#000000" font-family="sans-serif" font-size="10" lengthAdjust="spacing" textLength="58.1543" x="677.68" y="187.6091">com.Menge</text></g><!--class Zeitraum--><g class="entity" data-qualified-name="bo4e.com.Zeitraum" data-source-line="37" id="ent0006"><rect fill="#F1F1F1" height="37.9375" rx="2.5" ry="2.5" style="stroke:#181818;stroke-width:0.5;" width="102.5566" x="642.48" y="230.03"/><ellipse cx="657.48" cy="248.9988" fill="#ADD1B2" rx="11" ry="11" style="stroke:#181818;stroke-width:1;"/><path d="M660.4488,254.6394 Q659.8706,254.9363 659.23,255.0769 Q658.5894,255.2331 657.8863,255.2331 Q655.3863,255.2331 654.0581,253.5925 Q652.7456,251.9363 652.7456,248.8113 Q652.7456,245.6863 654.0581,244.03 Q655.3863,242.3738 657.8863,242.3738 Q658.5894,242.3738 659.23,242.53 Q659.8863,242.6863 660.4488,242.9831 L660.4488,245.7019 Q659.8238,245.1238 659.23,244.8581 Q658.6363,244.5769 658.0113,244.5769 Q656.6675,244.5769 655.98,245.655 Q655.2925,246.7175 655.2925,248.8113 Q655.2925,250.905 655.98,251.9831 Q656.6675,253.0456 658.0113,253.0456 Q658.6363,253.0456 659.23,252.78 Q659.8238,252.4988 660.4488,251.9206 L660.4488,254.6394 Z " fill="#000000"/><a href="https://bo4e.github.io/BO4E-python/v202607.1.0-rc1/api/bo4e.com.html#module-bo4e.com.zeitraum" target="_top" title="https://bo4e.github.io/BO4E-python/v202607.1.0-rc1/api/bo4e.com.html#module-bo4e.com.zeitraum" xlink:actuate="onRequest" xlink:href="https://bo4e.github.io/BO4E-python/v202607.1.0-rc1/api/bo4e.com.html#module-bo4e.com.zeitraum" xlink:show="new" xlink:title="https://bo4e.github.io/BO4E-python/v202607.1.0-rc1/api/bo4e.com.html#module-bo4e.com.zeitraum" xlink:type="simple"><text fill="#0000FF" font-family="sans-serif" font-size="14" lengthAdjust="spacing" text-decoration="underline" textLength="64.4287" x="674.544" y="248.0251">Zeitraum</text></a><text fill="#000000" font-family="sans-serif" font-size="10" lengthAdjust="spacing" textLength="70.5566" x="671.48" y="260.6091">com.Zeitraum</text></g><!--class Zaehlertyp--><g class="entity" data-qualified-name="bo4e.enum.Zaehlertyp" data-source-line="49" id="ent0008"><rect fill="#F1F1F1" height="37.9375" rx="2.5" ry="2.5" style="stroke:#181818;stroke-width:0.5;" width="118.4453" x="634.53" y="343.03"/><ellipse cx="649.53" cy="361.9988" fill="#ADD1B2" rx="11" ry="11" style="stroke:#181818;stroke-width:1;"/><path d="M652.4988,367.6394 Q651.9206,367.9363 651.28,368.0769 Q650.6394,368.2331 649.9363,368.2331 Q647.4363,368.2331 646.1081,366.5925 Q644.7956,364.9363 644.7956,361.8113 Q644.7956,358.6863 646.1081,357.03 Q647.4363,355.3738 649.9363,355.3738 Q650.6394,355.3738 651.28,355.53 Q651.9363,355.6863 652.4988,355.9831 L652.4988,358.7019 Q651.8738,358.1238 651.28,357.8581 Q650.6863,357.5769 650.0613,357.5769 Q648.7175,357.5769 648.03,358.655 Q647.3425,359.7175 647.3425,361.8113 Q647.3425,363.905 648.03,364.9831 Q648.7175,366.0456 650.0613,366.0456 Q650.6863,366.0456 651.28,365.78 Q651.8738,365.4988 652.4988,364.9206 L652.4988,367.6394 Z " fill="#000000"/><a href="https://bo4e.github.io/BO4E-python/v202607.1.0-rc1/api/bo4e.enum.html#module-bo4e.enum.zaehlertyp" target="_top" title="https://bo4e.github.io/BO4E-python/v202607.1.0-rc1/api/bo4e.enum.html#module-bo4e.enum.zaehlertyp" xlink:actuate="onRequest" xlink:href="https://bo4e.github.io/BO4E-python/v202607.1.0-rc1/api/bo4e.enum.html#module-bo4e.enum.zaehlertyp" xlink:show="new" xlink:title="https://bo4e.github.io/BO4E-python/v202607.1.0-rc1/api/bo4e.enum.html#module-bo4e.enum.zaehlertyp" xlink:type="simple"><text fill="#0000FF" font-family="sans-serif" font-size="14" lengthAdjust="spacing" text-decoration="underline" textLength="76.5762" x="668.4646" y="361.0251">Zaehlertyp</text></a><text fill="#000000" font-family="sans-serif" font-size="10" lengthAdjust="spacing" textLength="86.4453" x="663.53" y="373.6091">enum.Zaehlertyp</text></g><!--class Ausschreibungsdetail--><g class="entity" data-qualified-name="Ausschreibungsdetail" data-source-line="3" id="ent0001"><rect fill="#F1F1F1" height="225.2031" rx="2.5" ry="2.5" style="stroke:#181818;stroke-width:0.5;" width="345.5322" x="7" y="78.4"/><ellipse cx="100.502" cy="97.3687" fill="#ADD1B2" rx="11" ry="11" style="stroke:#181818;stroke-width:1;"/><path d="M103.4707,103.0094 Q102.8926,103.3062 102.252,103.4469 Q101.6113,103.6031 100.9082,103.6031 Q98.4082,103.6031 97.0801,101.9625 Q95.7676,100.3062 95.7676,97.1812 Q95.7676,94.0562 97.0801,92.4 Q98.4082,90.7437 100.9082,90.7437 Q101.6113,90.7437 102.252,90.9 Q102.9082,91.0562 103.4707,91.3531 L103.4707,94.0719 Q102.8457,93.4937 102.252,93.2281 Q101.6582,92.9469 101.0332,92.9469 Q99.6895,92.9469 99.002,94.025 Q98.3145,95.0875 98.3145,97.1812 Q98.3145,99.275 99.002,100.3531 Q99.6895,101.4156 101.0332,101.4156 Q101.6582,101.4156 102.252,101.15 Q102.8457,100.8687 103.4707,100.2906 L103.4707,103.0094 Z " fill="#000000"/><a href="https://bo4e.github.io/BO4E-python/v202607.1.0-rc1/api/bo4e.com.html#module-bo4e.com.ausschreibungsdetail" target="_top" title="https://bo4e.github.io/BO4E-python/v202607.1.0-rc1/api/bo4e.com.html#module-bo4e.com.ausschreibungsdetail" xlink:actuate="onRequest" xlink:href="https://bo4e.github.io/BO4E-python/v202607.1.0-rc1/api/bo4e.com.html#module-bo4e.com.ausschreibungsdetail" xlink:show="new" xlink:title="https://bo4e.github.io/BO4E-python/v202607.1.0-rc1/api/bo4e.com.html#module-bo4e.com.ausschreibungsdetail" xlink:type="simple"><text fill="#0000FF" font-family="sans-serif" font-size="14" lengthAdjust="spacing" text-decoration="underline" textLength="150.0283" x="121.002" y="96.3951">Ausschreibungsdetail</text></a><text fill="#000000" font-family="sans-serif" font-size="10" lengthAdjust="spacing" textLength="131.6992" x="130.1665" y="108.9791">com.Ausschreibungsdetail</text><line style="stroke:#181818;stroke-width:0.5;" x1="8" x2="351.5322" y1="116.3375" y2="116.3375"/><text fill="#000000" font-family="sans-serif" font-size="14" lengthAdjust="spacing" textLength="94.0215" x="13" y="133.3326">_id : str [0..1]</text><text fill="#000000" font-family="sans-serif" font-size="14" lengthAdjust="spacing" textLength="333.5322" x="13" y="149.6295">_typ : Literal["AUSSCHREIBUNGSDETAIL"] [0..1]</text><text fill="#000000" font-family="sans-serif" font-size="14" lengthAdjust="spacing" textLength="132.5215" x="13" y="165.9264">_version : str [0..1]</text><text fill="#000000" font-family="sans-serif" font-size="14" lengthAdjust="spacing" textLength="243.2705" x="13" y="182.2232">istLastgangVorhanden : bool [0..1]</text><text fill="#000000" font-family="sans-serif" font-size="14" lengthAdjust="spacing" textLength="117.5986" x="13" y="198.5201">kunde : str [0..1]</text><text fill="#000000" font-family="sans-serif" font-size="14" lengthAdjust="spacing" textLength="192.083" x="13" y="214.817">marktlokationsId : str [0..1]</text><text fill="#000000" font-family="sans-serif" font-size="14" lengthAdjust="spacing" textLength="268.4951" x="13" y="231.1139">marktlokationsbezeichnung : str [0..1]</text><text fill="#000000" font-family="sans-serif" font-size="14" lengthAdjust="spacing" textLength="169.0732" x="13" y="247.4107">netzbetreiber : str [0..1]</text><text fill="#000000" font-family="sans-serif" font-size="14" lengthAdjust="spacing" textLength="214.4023" x="13" y="263.7076">netzebeneLieferung : str [0..1]</text><text fill="#000000" font-family="sans-serif" font-size="14" lengthAdjust="spacing" textLength="210.082" x="13" y="280.0045">netzebeneMessung : str [0..1]</text><text fill="#000000" font-family="sans-serif" font-size="14" lengthAdjust="spacing" textLength="185.3086" x="13" y="296.3014">zaehlernummer : str [0..1]</text></g><!--link Ausschreibungsdetail to Adresse--><g class="link" data-entity-1="ent0001" data-entity-2="ent0003" data-link-type="composition" data-source-line="53" id="lnk9"><path codeLine="53" d="M334.73,78.02 C350.33,70.37 366.39,63.81 382.53,59 C466.01,34.12 492.89,43.07 578.53,59 C604.23,63.78 620.6154,69.289 642.1254,78.749" fill="none" id="Ausschreibungsdetail-to-Adresse" style="stroke:#181818;stroke-width:1;"/><polygon fill="#181818" points="653.11,83.58,649.228,77.503,642.1254,78.749,646.0074,84.826,653.11,83.58" style="stroke:#181818;stroke-width:1;stroke-linejoin:miter;stroke-miterlimit:10;"/><text fill="#000000" font-family="sans-serif" font-size="13" lengthAdjust="spacing" textLength="148.4399" x="406.53" y="39.5869">marktlokationsadresse</text><text fill="#000000" font-family="sans-serif" font-size="13" lengthAdjust="spacing" textLength="24.8066" x="614.4184" y="73.0947">0..1</text></g><!--link Ausschreibungsdetail to Adresse--><g class="link" data-entity-1="ent0001" data-entity-2="ent0003" data-link-type="composition" data-source-line="54" id="lnk10"><path codeLine="54" d="M352.83,151.64 C362.87,149.65 372.82,147.75 382.53,146 C474.97,129.31 571.992,116.9707 633.082,109.7907" fill="none" id="Ausschreibungsdetail-to-Adresse-1" style="stroke:#181818;stroke-width:1;"/><polygon fill="#181818" points="645,108.39,638.5741,105.1177,633.082,109.7907,639.5079,113.063,645,108.39" style="stroke:#181818;stroke-width:1;stroke-linejoin:miter;stroke-miterlimit:10;"/><text fill="#000000" font-family="sans-serif" font-size="13" lengthAdjust="spacing" textLength="119.5771" x="421.03" y="113.1869">rechnungsadresse</text><text fill="#000000" font-family="sans-serif" font-size="13" lengthAdjust="spacing" textLength="24.8066" x="612.5137" y="122.2791">0..1</text></g><!--link Ausschreibungsdetail to Menge--><g class="link" data-entity-1="ent0001" data-entity-2="ent0005" data-link-type="composition" data-source-line="55" id="lnk11"><path codeLine="55" d="M352.96,174.61 C362.96,173.98 372.87,173.43 382.53,173 C469.56,169.13 491.43,171.86 578.53,173 C601.54,173.3 615.155,173.6037 636.285,174.2137" fill="none" id="Ausschreibungsdetail-to-Menge" style="stroke:#181818;stroke-width:1;"/><polygon fill="#181818" points="648.28,174.56,642.3979,170.3885,636.285,174.2137,642.1671,178.3852,648.28,174.56" style="stroke:#181818;stroke-width:1;stroke-linejoin:miter;stroke-miterlimit:10;"/><text fill="#000000" font-family="sans-serif" font-size="13" lengthAdjust="spacing" textLength="194.4795" x="383.53" y="167.0669">prognoseArbeitLieferzeitraum</text><text fill="#000000" font-family="sans-serif" font-size="13" lengthAdjust="spacing" textLength="24.8066" x="615.8973" y="170.3238">0..1</text></g><!--link Ausschreibungsdetail to Menge--><g class="link" data-entity-1="ent0001" data-entity-2="ent0005" data-link-type="composition" data-source-line="56" id="lnk12"><path codeLine="56" d="M352.9,202.47 C423.02,204.95 504.79,205.04 578.53,198 C601.75,195.78 615.5347,193.5967 636.5547,189.1067" fill="none" id="Ausschreibungsdetail-to-Menge-1" style="stroke:#181818;stroke-width:1;"/><polygon fill="#181818" points="648.29,186.6,641.5868,183.9416,636.5547,189.1067,643.2579,191.7651,648.29,186.6" style="stroke:#181818;stroke-width:1;stroke-linejoin:miter;stroke-miterlimit:10;"/><text fill="#000000" font-family="sans-serif" font-size="13" lengthAdjust="spacing" textLength="139.1914" x="411.03" y="194.0669">prognoseJahresarbeit</text><text fill="#000000" font-family="sans-serif" font-size="13" lengthAdjust="spacing" textLength="24.8066" x="615.9088" y="201.3353">0..1</text></g><!--link Ausschreibungsdetail to Menge--><g class="link" data-entity-1="ent0001" data-entity-2="ent0005" data-link-type="composition" data-source-line="57" id="lnk13"><path codeLine="57" d="M353.02,252.11 C427.29,267.66 512.15,270.03 578.53,229 C585.3,224.82 580.56,218.25 586.53,213 C603.77,197.85 615.9404,191.8075 636.6404,186.4675" fill="none" id="Ausschreibungsdetail-to-Menge-2" style="stroke:#181818;stroke-width:1;"/><polygon fill="#181818" points="648.26,183.47,641.451,181.0956,636.6404,186.4675,643.4494,188.842,648.26,183.47" style="stroke:#181818;stroke-width:1;stroke-linejoin:miter;stroke-miterlimit:10;"/><text fill="#000000" font-family="sans-serif" font-size="13" lengthAdjust="spacing" textLength="116.2192" x="422.53" y="225.0669">prognoseLeistung</text><text fill="#000000" font-family="sans-serif" font-size="13" lengthAdjust="spacing" textLength="24.8066" x="615.8743" y="180.5424">0..1</text></g><!--link Ausschreibungsdetail to Zeitraum--><g class="link" data-entity-1="ent0001" data-entity-2="ent0006" data-link-type="composition" data-source-line="58" id="lnk14"><path codeLine="58" d="M352.85,279.76 C362.75,282.96 372.68,285.75 382.53,288 C467.47,307.36 492.6,302.27 578.53,288 C601.79,284.14 615.4299,280.369 636.0099,272.619" fill="none" id="Ausschreibungsdetail-to-Zeitraum" style="stroke:#181818;stroke-width:1;"/><polygon fill="#181818" points="647.24,268.39,640.2153,266.7611,636.0099,272.619,643.0346,274.2479,647.24,268.39" style="stroke:#181818;stroke-width:1;stroke-linejoin:miter;stroke-miterlimit:10;"/><text fill="#000000" font-family="sans-serif" font-size="13" lengthAdjust="spacing" textLength="90.8857" x="435.53" y="284.0669">lieferzeitraum</text><text fill="#000000" font-family="sans-serif" font-size="13" lengthAdjust="spacing" textLength="24.8066" x="609.8009" y="286.6909">0..1</text></g><!--link Ausschreibungsdetail to Zaehlertyp--><g class="link" data-entity-1="ent0001" data-entity-2="ent0008" data-link-type="composition" data-source-line="59" id="lnk15"><path codeLine="59" d="M334.35,304.09 C350.12,312.51 366.32,320.03 382.53,326 C466.24,356.8 558.4603,362.801 622.2703,363.221" fill="none" id="Ausschreibungsdetail-to-Zaehlertyp" style="stroke:#181818;stroke-width:1;"/><polygon fill="#181818" points="634.27,363.3,628.2965,359.2606,622.2703,363.221,628.2438,367.2604,634.27,363.3" style="stroke:#181818;stroke-width:1;stroke-linejoin:miter;stroke-miterlimit:10;"/><text fill="#000000" font-family="sans-serif" font-size="13" lengthAdjust="spacing" textLength="95.8433" x="433.03" y="322.0669">zaehlertechnik</text><text fill="#000000" font-family="sans-serif" font-size="13" lengthAdjust="spacing" textLength="24.8066" x="601.6072" y="376.4476">0..1</text></g><?plantuml-src lLPjJzim4FwUNs65RvFwnXX3qJGfGCGwjKoYi0zqrUGarzXgOaVs1KGG_trEqXPeZ6YaRQtKn7VFERddETyrXIKIb4JnX269kO88kHIE4wLKQ-BEvmmnrzvW4CeZw2SSMH7skHoS_ZWAUla3CYa6TuV3m-FXv_weF-ofQ3IWEM_WaSpw3BFq89DnaK9lQwI5rX5JmCD293e6f3mbliMuMFmINpGlmHiDlrQHDf1BgBP6aqU7cCzl7XEFQ5HaFkptHul6Y0-viKuuWgBftFLlPhEpRrV1-FJcyc9s7bpxuucxU1Ln1qeRSjfxSOqJgZ6X8laf5QCYXWeLIfc-XAqAusX7PrIjC9KhMZ6ln_5xY11Au14J9iysL02M8M350oYx6q8GCE6m1FNc5ZLc2bfR4IK5be8IHPRjFkJ9SGJDGESq0k9k1AyLsYp8GJ3qJuxFrkhyuqgBbSa2YDzSs_NKs9iIMcExLCtvLJ2R1ViMIlCsPQ4fbcrl90ELK12bbNHc3esDySed5LgD6i6SWfOdbngND69sJmeSIyeiSMP9Au9s5F_tAcOW4Y3JwhUbO6sjzQllkgWt3IulzjRk7cgIbwca-3zpDuVTq5vav7Pzqs9WuwX9s2owy70RZA-l_9lflbJ4jB1L8OWufcWUxHa4mewhOAfAnJYHP_2whAZ2jo9hfptsoNntcms8uaMtgLRa81v57p-T_CrsK-tRLgkshdjZnV3jzlQLP3NisTUezXprMEVbMETPh_U1k5NoxhPPUJlJOTtmEiIRcLyFaxr3ctFcaLp9H4WDlWgDECr4sLHhvqs-KmFMjDwgS_04p0Wsq7S3jwV38sctztsXaBSPW5WnnrUEmxWPx1baPkPgHpDvJwn_LCYIGnhhFm00?></g></svg>