<svg xmlns="http://www.w3.org/2000/svg" xmlns:xlink="http://www.w3.org/1999/xlink" contentStyleType="text/css" data-diagram-type="CLASS" height="363px" preserveAspectRatio="none" style="width:725px;height:363px;background:#FFFFFF;" version="1.1" viewBox="0 0 725 363" width="725px" zoomAndPan="magnify"><?plantuml 1.2026.6?><defs/><g><!--cluster bo4e--><g class="cluster" data-qualified-name="bo4e" data-source-line="11" id="ent0004"><path d="M446.35,6 L486.226,6 A3.75,3.75 0 0 1 488.726,8.5 L495.726,28.2969 L707.89,28.2969 A2.5,2.5 0 0 1 710.39,30.7969 L710.39,345.5 A2.5,2.5 0 0 1 707.89,348 L446.35,348 A2.5,2.5 0 0 1 443.85,345.5 L443.85,8.5 A2.5,2.5 0 0 1 446.35,6" fill="none" style="stroke:#000000;stroke-width:1.5;"/><line style="stroke:#000000;stroke-width:1.5;" x1="443.85" x2="495.726" y1="28.2969" y2="28.2969"/><text fill="#000000" font-family="sans-serif" font-size="14" font-weight="700" lengthAdjust="spacing" textLength="38.876" x="447.85" y="20.9951">bo4e</text></g><!--cluster com--><g class="cluster" data-qualified-name="bo4e.com" data-source-line="10" id="ent0002"><path d="M518.55,49 L596.2492,49 A3.75,3.75 0 0 1 598.7492,51.5 L605.7492,71.2969 L635.7,71.2969 A2.5,2.5 0 0 1 638.2,73.7969 L638.2,135.5 A2.5,2.5 0 0 1 635.7,138 L518.55,138 A2.5,2.5 0 0 1 516.05,135.5 L516.05,51.5 A2.5,2.5 0 0 1 518.55,49" fill="#E0A86C" style="stroke:#000000;stroke-width:1.5;"/><line style="stroke:#000000;stroke-width:1.5;" x1="516.05" x2="605.7492" y1="71.2969" y2="71.2969"/><text fill="#000000" font-family="sans-serif" font-size="14" font-weight="700" lengthAdjust="spacing" textLength="76.6992" x="520.05" y="63.9951">bo4e.com</text></g><!--cluster enum--><g class="cluster" data-qualified-name="bo4e.enum" data-source-line="18" id="ent0005"><path d="M470.35,162 L559.5609,162 A3.75,3.75 0 0 1 562.0609,164.5 L569.0609,184.2969 L683.89,184.2969 A2.5,2.5 0 0 1 686.39,186.7969 L686.39,321.5 A2.5,2.5 0 0 1 683.89,324 L470.35,324 A2.5,2.5 0 0 1 467.85,321.5 L467.85,164.5 A2.5,2.5 0 0 1 470.35,162" fill="#D1C358" style="stroke:#000000;stroke-width:1.5;"/><line style="stroke:#000000;stroke-width:1.5;" x1="467.85" x2="569.0609" y1="184.2969" y2="184.2969"/><text fill="#000000" font-family="sans-serif" font-size="14" font-weight="700" lengthAdjust="spacing" textLength="88.2109" x="471.85" y="176.9951">bo4e.enum</text></g><!--class Menge--><g class="entity" data-qualified-name="bo4e.com.Menge" data-source-line="11" id="ent0003"><rect fill="#F1F1F1" height="37.9375" rx="2.5" ry="2.5" style="stroke:#181818;stroke-width:0.5;" width="90.1543" x="532.05" y="84.03"/><ellipse cx="547.05" cy="102.9987" fill="#ADD1B2" rx="11" ry="11" style="stroke:#181818;stroke-width:1;"/><path d="M550.0188,108.6394 Q549.4406,108.9362 548.8,109.0769 Q548.1594,109.2331 547.4563,109.2331 Q544.9563,109.2331 543.6281,107.5925 Q542.3156,105.9362 542.3156,102.8112 Q542.3156,99.6862 543.6281,98.03 Q544.9563,96.3737 547.4563,96.3737 Q548.1594,96.3737 548.8,96.53 Q549.4563,96.6862 550.0188,96.9831 L550.0188,99.7019 Q549.3938,99.1237 548.8,98.8581 Q548.2063,98.5769 547.5813,98.5769 Q546.2375,98.5769 545.55,99.655 Q544.8625,100.7175 544.8625,102.8112 Q544.8625,104.905 545.55,105.9831 Q546.2375,107.0456 547.5813,107.0456 Q548.2063,107.0456 548.8,106.78 Q549.3938,106.4987 550.0188,105.9206 L550.0188,108.6394 Z " fill="#000000"/><a href="https://bo4e.github.io/BO4E-python/v202607.1.0-rc1/api/bo4e.com.html#module-bo4e.com.menge" target="_top" title="https://bo4e.github.io/BO4E-python/v202607.1.0-rc1/api/bo4e.com.html#module-bo4e.com.menge" xlink:actuate="onRequest" xlink:href="https://bo4e.github.io/BO4E-python/v202607.1.0-rc1/api/bo4e.com.html#module-bo4e.com.menge" xlink:show="new" xlink:title="https://bo4e.github.io/BO4E-python/v202607.1.0-rc1/api/bo4e.com.html#module-bo4e.com.menge" xlink:type="simple"><text fill="#0000FF" font-family="sans-serif" font-size="14" lengthAdjust="spacing" text-decoration="underline" textLength="47.0654" x="566.5944" y="102.0251">Menge</text></a><text fill="#000000" font-family="sans-serif" font-size="10" lengthAdjust="spacing" textLength="58.1543" x="561.05" y="114.6091">com.Menge</text></g><!--class Messwertstatus--><g class="entity" data-qualified-name="bo4e.enum.Messwertstatus" data-source-line="19" id="ent0006"><rect fill="#F1F1F1" height="37.9375" rx="2.5" ry="2.5" style="stroke:#181818;stroke-width:0.5;" width="142.0391" x="506.1" y="197.03"/><ellipse cx="521.1" cy="215.9988" fill="#ADD1B2" rx="11" ry="11" style="stroke:#181818;stroke-width:1;"/><path d="M524.0688,221.6394 Q523.4906,221.9363 522.85,222.0769 Q522.2094,222.2331 521.5063,222.2331 Q519.0063,222.2331 517.6781,220.5925 Q516.3656,218.9363 516.3656,215.8113 Q516.3656,212.6863 517.6781,211.03 Q519.0063,209.3738 521.5063,209.3738 Q522.2094,209.3738 522.85,209.53 Q523.5063,209.6863 524.0688,209.9831 L524.0688,212.7019 Q523.4438,212.1238 522.85,211.8581 Q522.2563,211.5769 521.6313,211.5769 Q520.2875,211.5769 519.6,212.655 Q518.9125,213.7175 518.9125,215.8113 Q518.9125,217.905 519.6,218.9831 Q520.2875,220.0456 521.6313,220.0456 Q522.2563,220.0456 522.85,219.78 Q523.4438,219.4988 524.0688,218.9206 L524.0688,221.6394 Z " fill="#000000"/><a href="https://bo4e.github.io/BO4E-python/v202607.1.0-rc1/api/bo4e.enum.html#module-bo4e.enum.messwertstatus" target="_top" title="https://bo4e.github.io/BO4E-python/v202607.1.0-rc1/api/bo4e.enum.html#module-bo4e.enum.messwertstatus" xlink:actuate="onRequest" xlink:href="https://bo4e.github.io/BO4E-python/v202607.1.0-rc1/api/bo4e.enum.html#module-bo4e.enum.messwertstatus" xlink:show="new" xlink:title="https://bo4e.github.io/BO4E-python/v202607.1.0-rc1/api/bo4e.enum.html#module-bo4e.enum.messwertstatus" xlink:type="simple"><text fill="#0000FF" font-family="sans-serif" font-size="14" lengthAdjust="spacing" text-decoration="underline" textLength="109.6074" x="535.3158" y="215.0251">Messwertstatus</text></a><text fill="#000000" font-family="sans-serif" font-size="10" lengthAdjust="spacing" textLength="110.0391" x="535.1" y="227.6091">enum.Messwertstatus</text></g><!--class Messwertstatuszusatz--><g class="entity" data-qualified-name="bo4e.enum.Messwertstatuszusatz" data-source-line="21" id="ent0007"><rect fill="#F1F1F1" height="37.9375" rx="2.5" ry="2.5" style="stroke:#181818;stroke-width:0.5;" width="186.54" x="483.85" y="270.03"/><ellipse cx="498.85" cy="288.9988" fill="#ADD1B2" rx="11" ry="11" style="stroke:#181818;stroke-width:1;"/><path d="M501.8188,294.6394 Q501.2406,294.9363 500.6,295.0769 Q499.9594,295.2331 499.2563,295.2331 Q496.7563,295.2331 495.4281,293.5925 Q494.1156,291.9363 494.1156,288.8113 Q494.1156,285.6863 495.4281,284.03 Q496.7563,282.3738 499.2563,282.3738 Q499.9594,282.3738 500.6,282.53 Q501.2563,282.6863 501.8188,282.9831 L501.8188,285.7019 Q501.1938,285.1238 500.6,284.8581 Q500.0063,284.5769 499.3813,284.5769 Q498.0375,284.5769 497.35,285.655 Q496.6625,286.7175 496.6625,288.8113 Q496.6625,290.905 497.35,291.9831 Q498.0375,293.0456 499.3813,293.0456 Q500.0063,293.0456 500.6,292.78 Q501.1938,292.4988 501.8188,291.9206 L501.8188,294.6394 Z " fill="#000000"/><a href="https://bo4e.github.io/BO4E-python/v202607.1.0-rc1/api/bo4e.enum.html#module-bo4e.enum.messwertstatuszusatz" target="_top" title="https://bo4e.github.io/BO4E-python/v202607.1.0-rc1/api/bo4e.enum.html#module-bo4e.enum.messwertstatuszusatz" xlink:actuate="onRequest" xlink:href="https://bo4e.github.io/BO4E-python/v202607.1.0-rc1/api/bo4e.enum.html#module-bo4e.enum.messwertstatuszusatz" xlink:show="new" xlink:title="https://bo4e.github.io/BO4E-python/v202607.1.0-rc1/api/bo4e.enum.html#module-bo4e.enum.messwertstatuszusatz" xlink:type="simple"><text fill="#0000FF" font-family="sans-serif" font-size="14" lengthAdjust="spacing" text-decoration="underline" textLength="154.54" x="512.85" y="288.0251">Messwertstatuszusatz</text></a><text fill="#000000" font-family="sans-serif" font-size="10" lengthAdjust="spacing" textLength="142.1338" x="519.0531" y="300.6091">enum.Messwertstatuszusatz</text></g><!--class Messwert--><g class="entity" data-qualified-name="Messwert" data-source-line="3" id="ent0001"><rect fill="#F1F1F1" height="111.125" rx="2.5" ry="2.5" style="stroke:#181818;stroke-width:0.5;" width="244.8525" x="7" y="160.44"/><ellipse cx="89.1265" cy="179.4088" fill="#ADD1B2" rx="11" ry="11" style="stroke:#181818;stroke-width:1;"/><path d="M92.0952,185.0494 Q91.5171,185.3463 90.8765,185.4869 Q90.2358,185.6431 89.5327,185.6431 Q87.0327,185.6431 85.7046,184.0025 Q84.3921,182.3463 84.3921,179.2213 Q84.3921,176.0963 85.7046,174.44 Q87.0327,172.7838 89.5327,172.7838 Q90.2358,172.7838 90.8765,172.94 Q91.5327,173.0963 92.0952,173.3931 L92.0952,176.1119 Q91.4702,175.5338 90.8765,175.2681 Q90.2827,174.9869 89.6577,174.9869 Q88.314,174.9869 87.6265,176.065 Q86.939,177.1275 86.939,179.2213 Q86.939,181.315 87.6265,182.3931 Q88.314,183.4556 89.6577,183.4556 Q90.2827,183.4556 90.8765,183.19 Q91.4702,182.9088 92.0952,182.3306 L92.0952,185.0494 Z " fill="#000000"/><a href="https://bo4e.github.io/BO4E-python/v202607.1.0-rc1/api/bo4e.com.html#module-bo4e.com.messwert" target="_top" title="https://bo4e.github.io/BO4E-python/v202607.1.0-rc1/api/bo4e.com.html#module-bo4e.com.messwert" xlink:actuate="onRequest" xlink:href="https://bo4e.github.io/BO4E-python/v202607.1.0-rc1/api/bo4e.com.html#module-bo4e.com.messwert" xlink:show="new" xlink:title="https://bo4e.github.io/BO4E-python/v202607.1.0-rc1/api/bo4e.com.html#module-bo4e.com.messwert" xlink:type="simple"><text fill="#0000FF" font-family="sans-serif" font-size="14" lengthAdjust="spacing" text-decoration="underline" textLength="66.5889" x="112.3818" y="178.4351">Messwert</text></a><text fill="#000000" font-family="sans-serif" font-size="10" lengthAdjust="spacing" textLength="72.0996" x="109.6265" y="191.0191">com.Messwert</text><line style="stroke:#181818;stroke-width:0.5;" x1="8" x2="250.8525" y1="198.3775" y2="198.3775"/><text fill="#000000" font-family="sans-serif" font-size="14" lengthAdjust="spacing" textLength="94.0215" x="13" y="215.3726">_id : str [0..1]</text><text fill="#000000" font-family="sans-serif" font-size="14" lengthAdjust="spacing" textLength="232.8525" x="13" y="231.6695">_typ : Literal["MESSWERT"] [0..1]</text><text fill="#000000" font-family="sans-serif" font-size="14" lengthAdjust="spacing" textLength="132.5215" x="13" y="247.9664">_version : str [0..1]</text><text fill="#000000" font-family="sans-serif" font-size="14" lengthAdjust="spacing" textLength="184.4746" x="13" y="264.2632">zeitpunkt : datetime [0..1]</text></g><!--link Messwert to Menge--><g class="link" data-entity-1="ent0001" data-entity-2="ent0003" data-link-type="composition" data-source-line="25" id="lnk8"><path codeLine="25" d="M252.21,185.12 C344.87,161.63 455.4682,133.5898 520.0582,117.2098" fill="none" id="Messwert-to-Menge" style="stroke:#181818;stroke-width:1;"/><polygon fill="#181818" points="531.69,114.26,524.8908,111.8576,520.0582,117.2098,526.8574,119.6122,531.69,114.26" style="stroke:#181818;stroke-width:1;stroke-linejoin:miter;stroke-miterlimit:10;"/><text fill="#000000" font-family="sans-serif" font-size="13" lengthAdjust="spacing" textLength="29.0723" x="340.35" y="138.8469">wert</text><text fill="#000000" font-family="sans-serif" font-size="13" lengthAdjust="spacing" textLength="24.8066" x="499.3132" y="129.0922">0..1</text></g><!--link Messwert to Messwertstatus--><g class="link" data-entity-1="ent0001" data-entity-2="ent0006" data-link-type="composition" data-source-line="26" id="lnk9"><path codeLine="26" d="M252.21,216 C333.66,216 425.95,216 493.87,216" fill="none" id="Messwert-to-Messwertstatus" style="stroke:#181818;stroke-width:1;"/><polygon fill="#181818" points="505.87,216,499.87,212,493.87,216,499.87,220,505.87,216" style="stroke:#181818;stroke-width:1;stroke-linejoin:miter;stroke-miterlimit:10;"/><text fill="#000000" font-family="sans-serif" font-size="13" lengthAdjust="spacing" textLength="103.2256" x="303.35" y="212.0669">messwertstatus</text><text fill="#000000" font-family="sans-serif" font-size="13" lengthAdjust="spacing" textLength="24.8066" x="473.3265" y="228.8473">0..1</text></g><!--link Messwert to Messwertstatuszusatz--><g class="link" data-entity-1="ent0001" data-entity-2="ent0007" data-link-type="composition" data-source-line="27" id="lnk10"><path codeLine="27" d="M252.33,236.15 C262.32,237.79 272.26,239.43 281.85,241 C349.41,252.09 413.856,262.6013 471.826,272.0413" fill="none" id="Messwert-to-Messwertstatuszusatz" style="stroke:#181818;stroke-width:1;"/><polygon fill="#181818" points="483.67,273.97,478.3909,269.0576,471.826,272.0413,477.1051,276.9536,483.67,273.97" style="stroke:#181818;stroke-width:1;stroke-linejoin:miter;stroke-miterlimit:10;"/><text fill="#000000" font-family="sans-serif" font-size="13" lengthAdjust="spacing" textLength="144.9487" x="282.85" y="237.0669">messwertstatuszusatz</text><text fill="#000000" font-family="sans-serif" font-size="13" lengthAdjust="spacing" textLength="24.8066" x="450.9708" y="285.4189">0..1</text></g><?plantuml-src lLFRIiD047tVhnZIDo6tMhK44LI2Brv01HzgaMqoRHQJRCXE55lyTpUtrhGLAwXv29apPuOpPoOnJWb8GYvc4K4eSWn8o9In8EPAWJ4QHKIPycnx8WTepGH5nSGIqZwx6VXczaQHJEsNljC_T8uirtBCF71jdecQ7iZ4YYY9UuaCYnZD9PYWKg-O4rmr7-FnOtgin1mzrpaf6Mt20AwMB5WmqC-J2C43HJcC7CjonpL8Rvb6BmLXpkEHSUNVtJtuj_V6kCDwmLpf0JVhvoWeAz9dqgcG4v98iCs_CvPohJdZ0OBHJb59QmFe-SxfyF2yaVZNzgKprAxeznRZDDguLh9-PDdrXR-hNzK-F9Z6ajFAf_SDep0jFZbLHj0BtM3_OFYRLfLzDxsgqFRM574gLhTKXntxAdettpc_fiD2J_d_mkU5uZHVqrA3tmrHixQCqlHSL8jZox_CDFV0A3TgD3VaLTl-Wj3nneEkwXrg6X7hbJNCM2H2rAbaeW-HgKY-md8wc0gCG_K1?></g></svg>