<?plantuml 1.2026.1?><svg xmlns="http://www.w3.org/2000/svg" xmlns:xlink="http://www.w3.org/1999/xlink" contentStyleType="text/css" data-diagram-type="CLASS" height="760px" preserveAspectRatio="none" style="width:868px;height:760px;background:#FFFFFF;" version="1.1" viewBox="0 0 868 760" width="868px" zoomAndPan="magnify"><defs/><g><!--cluster bo4e--><g class="cluster" data-qualified-name="bo4e" data-source-line="11" id="ent0005"><path d="M595.25,6 L635.126,6 A3.75,3.75 0 0 1 637.626,8.5 L644.626,28.2969 L859.3,28.2969 A2.5,2.5 0 0 1 861.8,30.7969 L861.8,750.5 A2.5,2.5 0 0 1 859.3,753 L595.25,753 A2.5,2.5 0 0 1 592.75,750.5 L592.75,8.5 A2.5,2.5 0 0 1 595.25,6" fill="none" style="stroke:#000000;stroke-width:1.5;"/><line style="stroke:#000000;stroke-width:1.5;" x1="592.75" x2="644.626" y1="28.2969" y2="28.2969"/><text fill="#000000" font-family="sans-serif" font-size="14" font-weight="bold" lengthAdjust="spacing" textLength="38.876" x="596.75" y="20.9951">bo4e</text></g><!--cluster bo--><g class="cluster" data-qualified-name="bo4e.bo" data-source-line="10" id="ent0003"><path d="M639.65,49 L704.484,49 A3.75,3.75 0 0 1 706.984,51.5 L713.984,71.2969 L814.9,71.2969 A2.5,2.5 0 0 1 817.4,73.7969 L817.4,208.5 A2.5,2.5 0 0 1 814.9,211 L639.65,211 A2.5,2.5 0 0 1 637.15,208.5 L637.15,51.5 A2.5,2.5 0 0 1 639.65,49" fill="#B6D7A8" style="stroke:#000000;stroke-width:1.5;"/><line style="stroke:#000000;stroke-width:1.5;" x1="637.15" x2="713.984" y1="71.2969" y2="71.2969"/><text fill="#000000" font-family="sans-serif" font-size="14" font-weight="bold" lengthAdjust="spacing" textLength="63.834" x="641.15" y="63.9951">bo4e.bo</text></g><!--cluster com--><g class="cluster" data-qualified-name="bo4e.com" data-source-line="26" id="ent0007"><path d="M653.05,235 L730.7492,235 A3.75,3.75 0 0 1 733.2492,237.5 L740.2492,257.2969 L801.5,257.2969 A2.5,2.5 0 0 1 804,259.7969 L804,394.5 A2.5,2.5 0 0 1 801.5,397 L653.05,397 A2.5,2.5 0 0 1 650.55,394.5 L650.55,237.5 A2.5,2.5 0 0 1 653.05,235" fill="#E0A86C" style="stroke:#000000;stroke-width:1.5;"/><line style="stroke:#000000;stroke-width:1.5;" x1="650.55" x2="740.2492" y1="257.2969" y2="257.2969"/><text fill="#000000" font-family="sans-serif" font-size="14" font-weight="bold" lengthAdjust="spacing" textLength="76.6992" x="654.55" y="249.9951">bo4e.com</text></g><!--cluster enum--><g class="cluster" data-qualified-name="bo4e.enum" data-source-line="47" id="ent0010"><path d="M619.25,421 L708.4609,421 A3.75,3.75 0 0 1 710.9609,423.5 L717.9609,443.2969 L835.3,443.2969 A2.5,2.5 0 0 1 837.8,445.7969 L837.8,726.5 A2.5,2.5 0 0 1 835.3,729 L619.25,729 A2.5,2.5 0 0 1 616.75,726.5 L616.75,423.5 A2.5,2.5 0 0 1 619.25,421" fill="#D1C358" style="stroke:#000000;stroke-width:1.5;"/><line style="stroke:#000000;stroke-width:1.5;" x1="616.75" x2="717.9609" y1="443.2969" y2="443.2969"/><text fill="#000000" font-family="sans-serif" font-size="14" font-weight="bold" lengthAdjust="spacing" textLength="88.2109" x="620.75" y="435.9951">bo4e.enum</text></g><!--class Geraet--><g class="entity" data-qualified-name="bo4e.bo.Geraet" data-source-line="11" id="ent0004"><rect fill="#F1F1F1" height="37.9375" rx="2.5" ry="2.5" style="stroke:#181818;stroke-width:0.5;" width="81.8584" x="686.35" y="84.03"/><ellipse cx="701.35" cy="102.9987" fill="#ADD1B2" rx="11" ry="11" style="stroke:#181818;stroke-width:1;"/><path d="M704.3188,108.6394 Q703.7406,108.9362 703.1,109.0769 Q702.4594,109.2331 701.7563,109.2331 Q699.2563,109.2331 697.9281,107.5925 Q696.6156,105.9362 696.6156,102.8112 Q696.6156,99.6862 697.9281,98.03 Q699.2563,96.3737 701.7563,96.3737 Q702.4594,96.3737 703.1,96.53 Q703.7563,96.6862 704.3188,96.9831 L704.3188,99.7019 Q703.6938,99.1237 703.1,98.8581 Q702.5063,98.5769 701.8813,98.5769 Q700.5375,98.5769 699.85,99.655 Q699.1625,100.7175 699.1625,102.8112 Q699.1625,104.905 699.85,105.9831 Q700.5375,107.0456 701.8813,107.0456 Q702.5063,107.0456 703.1,106.78 Q703.6938,106.4987 704.3188,105.9206 L704.3188,108.6394 Z " fill="#000000"/><a href="https://bo4e.github.io/BO4E-python/test-304506/api/bo.Geraet.html" target="_top" title="https://bo4e.github.io/BO4E-python/test-304506/api/bo.Geraet.html" xlink:actuate="onRequest" xlink:href="https://bo4e.github.io/BO4E-python/test-304506/api/bo.Geraet.html" xlink:show="new" xlink:title="https://bo4e.github.io/BO4E-python/test-304506/api/bo.Geraet.html" xlink:type="simple"><text fill="#0000FF" font-family="sans-serif" font-size="14" lengthAdjust="spacing" text-decoration="underline" textLength="47.8994" x="716.3295" y="102.0251">Geraet</text></a><text fill="#000000" font-family="sans-serif" font-size="10" lengthAdjust="spacing" textLength="49.8584" x="715.35" y="114.6091">bo.Geraet</text></g><!--class Marktteilnehmer--><g class="entity" data-qualified-name="bo4e.bo.Marktteilnehmer" data-source-line="18" id="ent0006"><rect fill="#F1F1F1" height="37.9375" rx="2.5" ry="2.5" style="stroke:#181818;stroke-width:0.5;" width="148.2588" x="653.15" y="157.03"/><ellipse cx="668.15" cy="175.9987" fill="#ADD1B2" rx="11" ry="11" style="stroke:#181818;stroke-width:1;"/><path d="M671.1188,181.6394 Q670.5406,181.9362 669.9,182.0769 Q669.2594,182.2331 668.5563,182.2331 Q666.0563,182.2331 664.7281,180.5925 Q663.4156,178.9362 663.4156,175.8112 Q663.4156,172.6862 664.7281,171.03 Q666.0563,169.3737 668.5563,169.3737 Q669.2594,169.3737 669.9,169.53 Q670.5563,169.6862 671.1188,169.9831 L671.1188,172.7019 Q670.4938,172.1237 669.9,171.8581 Q669.3063,171.5769 668.6813,171.5769 Q667.3375,171.5769 666.65,172.655 Q665.9625,173.7175 665.9625,175.8112 Q665.9625,177.905 666.65,178.9831 Q667.3375,180.0456 668.6813,180.0456 Q669.3063,180.0456 669.9,179.78 Q670.4938,179.4987 671.1188,178.9206 L671.1188,181.6394 Z " fill="#000000"/><a href="https://bo4e.github.io/BO4E-python/test-304506/api/bo.Marktteilnehmer.html" target="_top" title="https://bo4e.github.io/BO4E-python/test-304506/api/bo.Marktteilnehmer.html" xlink:actuate="onRequest" xlink:href="https://bo4e.github.io/BO4E-python/test-304506/api/bo.Marktteilnehmer.html" xlink:show="new" xlink:title="https://bo4e.github.io/BO4E-python/test-304506/api/bo.Marktteilnehmer.html" xlink:type="simple"><text fill="#0000FF" font-family="sans-serif" font-size="14" lengthAdjust="spacing" text-decoration="underline" textLength="116.2588" x="682.15" y="175.0251">Marktteilnehmer</text></a><text fill="#000000" font-family="sans-serif" font-size="10" lengthAdjust="spacing" textLength="98.6865" x="690.9361" y="187.6091">bo.Marktteilnehmer</text></g><!--class Preisposition--><g class="entity" data-qualified-name="bo4e.com.Preisposition" data-source-line="27" id="ent0008"><rect fill="#F1F1F1" height="37.9375" rx="2.5" ry="2.5" style="stroke:#181818;stroke-width:0.5;" width="121.4482" x="666.55" y="270.03"/><ellipse cx="681.55" cy="288.9988" fill="#ADD1B2" rx="11" ry="11" style="stroke:#181818;stroke-width:1;"/><path d="M684.5188,294.6394 Q683.9406,294.9363 683.3,295.0769 Q682.6594,295.2331 681.9563,295.2331 Q679.4563,295.2331 678.1281,293.5925 Q676.8156,291.9363 676.8156,288.8113 Q676.8156,285.6863 678.1281,284.03 Q679.4563,282.3738 681.9563,282.3738 Q682.6594,282.3738 683.3,282.53 Q683.9563,282.6863 684.5188,282.9831 L684.5188,285.7019 Q683.8938,285.1238 683.3,284.8581 Q682.7063,284.5769 682.0813,284.5769 Q680.7375,284.5769 680.05,285.655 Q679.3625,286.7175 679.3625,288.8113 Q679.3625,290.905 680.05,291.9831 Q680.7375,293.0456 682.0813,293.0456 Q682.7063,293.0456 683.3,292.78 Q683.8938,292.4988 684.5188,291.9206 L684.5188,294.6394 Z " fill="#000000"/><a href="https://bo4e.github.io/BO4E-python/test-304506/api/com.Preisposition.html" target="_top" title="https://bo4e.github.io/BO4E-python/test-304506/api/com.Preisposition.html" xlink:actuate="onRequest" xlink:href="https://bo4e.github.io/BO4E-python/test-304506/api/com.Preisposition.html" xlink:show="new" xlink:title="https://bo4e.github.io/BO4E-python/test-304506/api/com.Preisposition.html" xlink:type="simple"><text fill="#0000FF" font-family="sans-serif" font-size="14" lengthAdjust="spacing" text-decoration="underline" textLength="89.4482" x="695.55" y="288.0251">Preisposition</text></a><text fill="#000000" font-family="sans-serif" font-size="10" lengthAdjust="spacing" textLength="88.4277" x="696.0603" y="300.6091">com.Preisposition</text></g><!--class Zeitraum--><g class="entity" data-qualified-name="bo4e.com.Zeitraum" data-source-line="36" id="ent0009"><rect fill="#F1F1F1" height="37.9375" rx="2.5" ry="2.5" style="stroke:#181818;stroke-width:0.5;" width="102.5566" x="676" y="343.03"/><ellipse cx="691" cy="361.9988" fill="#ADD1B2" rx="11" ry="11" style="stroke:#181818;stroke-width:1;"/><path d="M693.9688,367.6394 Q693.3906,367.9363 692.75,368.0769 Q692.1094,368.2331 691.4063,368.2331 Q688.9063,368.2331 687.5781,366.5925 Q686.2656,364.9363 686.2656,361.8113 Q686.2656,358.6863 687.5781,357.03 Q688.9063,355.3738 691.4063,355.3738 Q692.1094,355.3738 692.75,355.53 Q693.4063,355.6863 693.9688,355.9831 L693.9688,358.7019 Q693.3438,358.1238 692.75,357.8581 Q692.1563,357.5769 691.5313,357.5769 Q690.1875,357.5769 689.5,358.655 Q688.8125,359.7175 688.8125,361.8113 Q688.8125,363.905 689.5,364.9831 Q690.1875,366.0456 691.5313,366.0456 Q692.1563,366.0456 692.75,365.78 Q693.3438,365.4988 693.9688,364.9206 L693.9688,367.6394 Z " fill="#000000"/><a href="https://bo4e.github.io/BO4E-python/test-304506/api/com.Zeitraum.html" target="_top" title="https://bo4e.github.io/BO4E-python/test-304506/api/com.Zeitraum.html" xlink:actuate="onRequest" xlink:href="https://bo4e.github.io/BO4E-python/test-304506/api/com.Zeitraum.html" xlink:show="new" xlink:title="https://bo4e.github.io/BO4E-python/test-304506/api/com.Zeitraum.html" xlink:type="simple"><text fill="#0000FF" font-family="sans-serif" font-size="14" lengthAdjust="spacing" text-decoration="underline" textLength="64.4287" x="708.064" y="361.0251">Zeitraum</text></a><text fill="#000000" font-family="sans-serif" font-size="10" lengthAdjust="spacing" textLength="70.5566" x="705" y="373.6091">com.Zeitraum</text></g><!--class Bilanzierungsmethode--><g class="entity" data-qualified-name="bo4e.enum.Bilanzierungsmethode" data-source-line="48" id="ent0011"><rect fill="#F1F1F1" height="37.9375" rx="2.5" ry="2.5" style="stroke:#181818;stroke-width:0.5;" width="189.0488" x="632.75" y="456.03"/><ellipse cx="647.75" cy="474.9988" fill="#ADD1B2" rx="11" ry="11" style="stroke:#181818;stroke-width:1;"/><path d="M650.7188,480.6394 Q650.1406,480.9363 649.5,481.0769 Q648.8594,481.2331 648.1563,481.2331 Q645.6563,481.2331 644.3281,479.5925 Q643.0156,477.9363 643.0156,474.8113 Q643.0156,471.6863 644.3281,470.03 Q645.6563,468.3738 648.1563,468.3738 Q648.8594,468.3738 649.5,468.53 Q650.1563,468.6863 650.7188,468.9831 L650.7188,471.7019 Q650.0938,471.1238 649.5,470.8581 Q648.9063,470.5769 648.2813,470.5769 Q646.9375,470.5769 646.25,471.655 Q645.5625,472.7175 645.5625,474.8113 Q645.5625,476.905 646.25,477.9831 Q646.9375,479.0456 648.2813,479.0456 Q648.9063,479.0456 649.5,478.78 Q650.0938,478.4988 650.7188,477.9206 L650.7188,480.6394 Z " fill="#000000"/><a href="https://bo4e.github.io/BO4E-python/test-304506/api/enum.Bilanzierungsmethode.html" target="_top" title="https://bo4e.github.io/BO4E-python/test-304506/api/enum.Bilanzierungsmethode.html" xlink:actuate="onRequest" xlink:href="https://bo4e.github.io/BO4E-python/test-304506/api/enum.Bilanzierungsmethode.html" xlink:show="new" xlink:title="https://bo4e.github.io/BO4E-python/test-304506/api/enum.Bilanzierungsmethode.html" xlink:type="simple"><text fill="#0000FF" font-family="sans-serif" font-size="14" lengthAdjust="spacing" text-decoration="underline" textLength="157.0488" x="661.75" y="474.0251">Bilanzierungsmethode</text></a><text fill="#000000" font-family="sans-serif" font-size="10" lengthAdjust="spacing" textLength="143.9258" x="668.3115" y="486.6091">enum.Bilanzierungsmethode</text></g><!--class Dienstleistungstyp--><g class="entity" data-qualified-name="bo4e.enum.Dienstleistungstyp" data-source-line="50" id="ent0012"><rect fill="#F1F1F1" height="37.9375" rx="2.5" ry="2.5" style="stroke:#181818;stroke-width:0.5;" width="162.7031" x="645.92" y="529.03"/><ellipse cx="660.92" cy="547.9988" fill="#ADD1B2" rx="11" ry="11" style="stroke:#181818;stroke-width:1;"/><path d="M663.8888,553.6394 Q663.3106,553.9363 662.67,554.0769 Q662.0294,554.2331 661.3263,554.2331 Q658.8263,554.2331 657.4981,552.5925 Q656.1856,550.9363 656.1856,547.8113 Q656.1856,544.6863 657.4981,543.03 Q658.8263,541.3738 661.3263,541.3738 Q662.0294,541.3738 662.67,541.53 Q663.3263,541.6863 663.8888,541.9831 L663.8888,544.7019 Q663.2638,544.1238 662.67,543.8581 Q662.0763,543.5769 661.4513,543.5769 Q660.1075,543.5769 659.42,544.655 Q658.7325,545.7175 658.7325,547.8113 Q658.7325,549.905 659.42,550.9831 Q660.1075,552.0456 661.4513,552.0456 Q662.0763,552.0456 662.67,551.78 Q663.2638,551.4988 663.8888,550.9206 L663.8888,553.6394 Z " fill="#000000"/><a href="https://bo4e.github.io/BO4E-python/test-304506/api/enum.Dienstleistungstyp.html" target="_top" title="https://bo4e.github.io/BO4E-python/test-304506/api/enum.Dienstleistungstyp.html" xlink:actuate="onRequest" xlink:href="https://bo4e.github.io/BO4E-python/test-304506/api/enum.Dienstleistungstyp.html" xlink:show="new" xlink:title="https://bo4e.github.io/BO4E-python/test-304506/api/enum.Dienstleistungstyp.html" xlink:type="simple"><text fill="#0000FF" font-family="sans-serif" font-size="14" lengthAdjust="spacing" text-decoration="underline" textLength="130.7031" x="674.92" y="547.0251">Dienstleistungstyp</text></a><text fill="#000000" font-family="sans-serif" font-size="10" lengthAdjust="spacing" textLength="125.1074" x="677.7179" y="559.6091">enum.Dienstleistungstyp</text></g><!--class Preisstatus--><g class="entity" data-qualified-name="bo4e.enum.Preisstatus" data-source-line="52" id="ent0013"><rect fill="#F1F1F1" height="37.9375" rx="2.5" ry="2.5" style="stroke:#181818;stroke-width:0.5;" width="118.7578" x="667.9" y="602.03"/><ellipse cx="682.9" cy="620.9988" fill="#ADD1B2" rx="11" ry="11" style="stroke:#181818;stroke-width:1;"/><path d="M685.8688,626.6394 Q685.2906,626.9363 684.65,627.0769 Q684.0094,627.2331 683.3063,627.2331 Q680.8063,627.2331 679.4781,625.5925 Q678.1656,623.9363 678.1656,620.8113 Q678.1656,617.6863 679.4781,616.03 Q680.8063,614.3738 683.3063,614.3738 Q684.0094,614.3738 684.65,614.53 Q685.3063,614.6863 685.8688,614.9831 L685.8688,617.7019 Q685.2438,617.1238 684.65,616.8581 Q684.0563,616.5769 683.4313,616.5769 Q682.0875,616.5769 681.4,617.655 Q680.7125,618.7175 680.7125,620.8113 Q680.7125,622.905 681.4,623.9831 Q682.0875,625.0456 683.4313,625.0456 Q684.0563,625.0456 684.65,624.78 Q685.2438,624.4988 685.8688,623.9206 L685.8688,626.6394 Z " fill="#000000"/><a href="https://bo4e.github.io/BO4E-python/test-304506/api/enum.Preisstatus.html" target="_top" title="https://bo4e.github.io/BO4E-python/test-304506/api/enum.Preisstatus.html" xlink:actuate="onRequest" xlink:href="https://bo4e.github.io/BO4E-python/test-304506/api/enum.Preisstatus.html" xlink:show="new" xlink:title="https://bo4e.github.io/BO4E-python/test-304506/api/enum.Preisstatus.html" xlink:type="simple"><text fill="#0000FF" font-family="sans-serif" font-size="14" lengthAdjust="spacing" text-decoration="underline" textLength="77.0137" x="701.7721" y="620.0251">Preisstatus</text></a><text fill="#000000" font-family="sans-serif" font-size="10" lengthAdjust="spacing" textLength="86.7578" x="696.9" y="632.6091">enum.Preisstatus</text></g><!--class Sparte--><g class="entity" data-qualified-name="bo4e.enum.Sparte" data-source-line="54" id="ent0014"><rect fill="#F1F1F1" height="37.9375" rx="2.5" ry="2.5" style="stroke:#181818;stroke-width:0.5;" width="96.7559" x="678.9" y="675.03"/><ellipse cx="693.9" cy="693.9988" fill="#ADD1B2" rx="11" ry="11" style="stroke:#181818;stroke-width:1;"/><path d="M696.8688,699.6394 Q696.2906,699.9363 695.65,700.0769 Q695.0094,700.2331 694.3063,700.2331 Q691.8063,700.2331 690.4781,698.5925 Q689.1656,696.9363 689.1656,693.8113 Q689.1656,690.6863 690.4781,689.03 Q691.8063,687.3738 694.3063,687.3738 Q695.0094,687.3738 695.65,687.53 Q696.3063,687.6863 696.8688,687.9831 L696.8688,690.7019 Q696.2438,690.1238 695.65,689.8581 Q695.0563,689.5769 694.4313,689.5769 Q693.0875,689.5769 692.4,690.655 Q691.7125,691.7175 691.7125,693.8113 Q691.7125,695.905 692.4,696.9831 Q693.0875,698.0456 694.4313,698.0456 Q695.0563,698.0456 695.65,697.78 Q696.2438,697.4988 696.8688,696.9206 L696.8688,699.6394 Z " fill="#000000"/><a href="https://bo4e.github.io/BO4E-python/test-304506/api/enum.Sparte.html" target="_top" title="https://bo4e.github.io/BO4E-python/test-304506/api/enum.Sparte.html" xlink:actuate="onRequest" xlink:href="https://bo4e.github.io/BO4E-python/test-304506/api/enum.Sparte.html" xlink:show="new" xlink:title="https://bo4e.github.io/BO4E-python/test-304506/api/enum.Sparte.html" xlink:type="simple"><text fill="#0000FF" font-family="sans-serif" font-size="14" lengthAdjust="spacing" text-decoration="underline" textLength="46.2109" x="717.1725" y="693.0251">Sparte</text></a><text fill="#000000" font-family="sans-serif" font-size="10" lengthAdjust="spacing" textLength="64.7559" x="707.9" y="705.6091">enum.Sparte</text></g><!--class PreisblattDienstleistung--><g class="entity" data-qualified-name="PreisblattDienstleistung" data-source-line="3" id="ent0002"><rect fill="#F1F1F1" height="111.125" rx="2.5" ry="2.5" style="stroke:#181818;stroke-width:0.5;" width="370.75" x="7" y="378.44"/><ellipse cx="104.5864" cy="397.4088" fill="#ADD1B2" rx="11" ry="11" style="stroke:#181818;stroke-width:1;"/><path d="M107.5552,403.0494 Q106.9771,403.3463 106.3364,403.4869 Q105.6958,403.6431 104.9927,403.6431 Q102.4927,403.6431 101.1646,402.0025 Q99.8521,400.3463 99.8521,397.2213 Q99.8521,394.0963 101.1646,392.44 Q102.4927,390.7838 104.9927,390.7838 Q105.6958,390.7838 106.3364,390.94 Q106.9927,391.0963 107.5552,391.3931 L107.5552,394.1119 Q106.9302,393.5338 106.3364,393.2681 Q105.7427,392.9869 105.1177,392.9869 Q103.7739,392.9869 103.0864,394.065 Q102.3989,395.1275 102.3989,397.2213 Q102.3989,399.315 103.0864,400.3931 Q103.7739,401.4556 105.1177,401.4556 Q105.7427,401.4556 106.3364,401.19 Q106.9302,400.9088 107.5552,400.3306 L107.5552,403.0494 Z " fill="#000000"/><a href="https://bo4e.github.io/BO4E-python/test-304506/api/bo.PreisblattDienstleistung.html" target="_top" title="https://bo4e.github.io/BO4E-python/test-304506/api/bo.PreisblattDienstleistung.html" xlink:actuate="onRequest" xlink:href="https://bo4e.github.io/BO4E-python/test-304506/api/bo.PreisblattDienstleistung.html" xlink:show="new" xlink:title="https://bo4e.github.io/BO4E-python/test-304506/api/bo.PreisblattDienstleistung.html" xlink:type="simple"><text fill="#0000FF" font-family="sans-serif" font-size="14" lengthAdjust="spacing" text-decoration="underline" textLength="167.0771" x="125.0864" y="396.4351">PreisblattDienstleistung</text></a><text fill="#000000" font-family="sans-serif" font-size="10" lengthAdjust="spacing" textLength="134.9854" x="141.1323" y="409.0191">bo.PreisblattDienstleistung</text><line style="stroke:#181818;stroke-width:0.5;" x1="8" x2="376.75" y1="416.3775" y2="416.3775"/><text fill="#000000" font-family="sans-serif" font-size="14" lengthAdjust="spacing" textLength="94.0215" x="13" y="433.3726">_id : str [0..1]</text><text fill="#000000" font-family="sans-serif" font-size="14" lengthAdjust="spacing" textLength="358.75" x="13" y="449.6695">_typ : Literal["PREISBLATTDIENSTLEISTUNG"] [0..1]</text><text fill="#000000" font-family="sans-serif" font-size="14" lengthAdjust="spacing" textLength="132.5215" x="13" y="465.9664">_version : str [0..1]</text><text fill="#000000" font-family="sans-serif" font-size="14" lengthAdjust="spacing" textLength="163.6729" x="13" y="482.2632">bezeichnung : str [0..1]</text></g><!--link PreisblattDienstleistung to Geraet--><g class="link" data-entity-1="ent0002" data-entity-2="ent0004" data-link-type="composition" data-source-line="58" id="lnk15"><path codeLine="58" d="M232.47,377.95 C271.45,325.8 335.77,249.25 407.75,202 C496.82,143.53 610.5389,119.7902 674.1389,110.0302" fill="none" id="PreisblattDienstleistung-to-Geraet" style="stroke:#181818;stroke-width:1;"/><polygon fill="#181818" points="686,108.21,679.4627,105.1664,674.1389,110.0302,680.6762,113.0738,686,108.21" style="stroke:#181818;stroke-width:1;"/><text fill="#000000" font-family="sans-serif" font-size="13" lengthAdjust="spacing" textLength="93.9644" x="445.75" y="129.0669">geraetedetails</text><text fill="#000000" font-family="sans-serif" font-size="13" lengthAdjust="spacing" textLength="24.8066" x="653.5729" y="122.3133">0..1</text></g><!--link PreisblattDienstleistung to Marktteilnehmer--><g class="link" data-entity-1="ent0002" data-entity-2="ent0006" data-link-type="composition" data-source-line="59" id="lnk16"><path codeLine="59" d="M270.34,378.26 C310.13,350.97 360.21,318.93 407.75,295 C492.51,252.33 584.9861,219.9722 650.5661,199.0822" fill="none" id="PreisblattDienstleistung-to-Marktteilnehmer" style="stroke:#181818;stroke-width:1;"/><polygon fill="#181818" points="662,195.44,655.069,193.4498,650.5661,199.0822,657.4971,201.0724,662,195.44" style="stroke:#181818;stroke-width:1;"/><text fill="#000000" font-family="sans-serif" font-size="13" lengthAdjust="spacing" textLength="82.4053" x="451.25" y="223.0669">herausgeber</text><text fill="#000000" font-family="sans-serif" font-size="13" lengthAdjust="spacing" textLength="24.8066" x="620.2224" y="213.7524">0..1</text></g><!--link PreisblattDienstleistung to Preisposition--><g class="link" data-entity-1="ent0002" data-entity-2="ent0008" data-link-type="composition" data-source-line="60" id="lnk17"><path codeLine="60" d="M346.36,377.98 C366.87,371.2 387.74,364.68 407.75,359 C496.67,333.77 589.9221,314.4964 654.3621,302.2164" fill="none" id="PreisblattDienstleistung-to-Preisposition" style="stroke:#181818;stroke-width:1;"/><polygon fill="#181818" points="666.15,299.97,659.5073,297.1639,654.3621,302.2164,661.0048,305.0225,666.15,299.97" style="stroke:#181818;stroke-width:1;"/><text fill="#000000" font-family="sans-serif" font-size="13" lengthAdjust="spacing" textLength="99.709" x="442.75" y="316.0669">preispositionen</text><text fill="#000000" font-family="sans-serif" font-size="13" lengthAdjust="spacing" textLength="23.0356" x="635.6625" y="313.9486">0..*</text></g><!--link PreisblattDienstleistung to Zeitraum--><g class="link" data-entity-1="ent0002" data-entity-2="ent0009" data-link-type="composition" data-source-line="61" id="lnk18"><path codeLine="61" d="M377.89,409.07 C483.29,394.83 595.7582,379.6379 663.7282,370.4479" fill="none" id="PreisblattDienstleistung-to-Zeitraum" style="stroke:#181818;stroke-width:1;"/><polygon fill="#181818" points="675.62,368.84,669.1382,365.68,663.7282,370.4479,670.2101,373.6079,675.62,368.84" style="stroke:#181818;stroke-width:1;"/><text fill="#000000" font-family="sans-serif" font-size="13" lengthAdjust="spacing" textLength="69.2974" x="457.75" y="380.0669">gueltigkeit</text><text fill="#000000" font-family="sans-serif" font-size="13" lengthAdjust="spacing" textLength="24.8066" x="643.1201" y="382.8429">0..1</text></g><!--link PreisblattDienstleistung to Bilanzierungsmethode--><g class="link" data-entity-1="ent0002" data-entity-2="ent0011" data-link-type="composition" data-source-line="62" id="lnk19"><path codeLine="62" d="M377.89,448.2 C463.75,454.8 550.2154,461.4491 620.5054,466.8591" fill="none" id="PreisblattDienstleistung-to-Bilanzierungsmethode" style="stroke:#181818;stroke-width:1;"/><polygon fill="#181818" points="632.47,467.78,626.7947,463.3314,620.5054,466.8591,626.1807,471.3078,632.47,467.78" style="stroke:#181818;stroke-width:1;"/><text fill="#000000" font-family="sans-serif" font-size="13" lengthAdjust="spacing" textLength="145.1646" x="419.75" y="447.0669">bilanzierungsmethode</text><text fill="#000000" font-family="sans-serif" font-size="13" lengthAdjust="spacing" textLength="24.8066" x="599.9912" y="479.8746">0..1</text></g><!--link PreisblattDienstleistung to Dienstleistungstyp--><g class="link" data-entity-1="ent0002" data-entity-2="ent0012" data-link-type="composition" data-source-line="63" id="lnk20"><path codeLine="63" d="M377.96,481.25 C388.03,483.59 398,485.86 407.75,488 C488.26,505.71 569.1222,520.7166 633.6722,532.0966" fill="none" id="PreisblattDienstleistung-to-Dienstleistungstyp" style="stroke:#181818;stroke-width:1;"/><polygon fill="#181818" points="645.49,534.18,640.2756,529.199,633.6722,532.0966,638.8866,537.0775,645.49,534.18" style="stroke:#181818;stroke-width:1;"/><text fill="#000000" font-family="sans-serif" font-size="13" lengthAdjust="spacing" textLength="125.1694" x="429.75" y="484.0669">basisdienstleistung</text><text fill="#000000" font-family="sans-serif" font-size="13" lengthAdjust="spacing" textLength="24.8066" x="613.1735" y="545.69">0..1</text></g><!--link PreisblattDienstleistung to Dienstleistungstyp--><g class="link" data-entity-1="ent0002" data-entity-2="ent0012" data-link-type="composition" data-source-line="64" id="lnk21"><path codeLine="64" d="M277.75,489.96 C315.79,511.99 362.32,534.7 407.75,546 C486.77,565.66 568.3125,564.379 633.4925,558.879" fill="none" id="PreisblattDienstleistung-to-Dienstleistungstyp-1" style="stroke:#181818;stroke-width:1;"/><polygon fill="#181818" points="645.45,557.87,639.1349,554.3887,633.4925,558.879,639.8076,562.3603,645.45,557.87" style="stroke:#181818;stroke-width:1;"/><text fill="#000000" font-family="sans-serif" font-size="13" lengthAdjust="spacing" textLength="167.0957" x="408.75" y="542.0669">inklusiveDienstleistungen</text><text fill="#000000" font-family="sans-serif" font-size="13" lengthAdjust="spacing" textLength="23.0356" x="615.0149" y="571.3265">0..*</text></g><!--link PreisblattDienstleistung to Preisstatus--><g class="link" data-entity-1="ent0002" data-entity-2="ent0013" data-link-type="composition" data-source-line="65" id="lnk22"><path codeLine="65" d="M253.56,489.92 C294,524.03 350.26,565.16 407.75,587 C493.92,619.74 590.031,624.492 655.551,623.662" fill="none" id="PreisblattDienstleistung-to-Preisstatus" style="stroke:#181818;stroke-width:1;"/><polygon fill="#181818" points="667.55,623.51,661.4998,619.5863,655.551,623.662,661.6011,627.5857,667.55,623.51" style="stroke:#181818;stroke-width:1;"/><text fill="#000000" font-family="sans-serif" font-size="13" lengthAdjust="spacing" textLength="71.9253" x="456.75" y="583.0669">preisstatus</text><text fill="#000000" font-family="sans-serif" font-size="13" lengthAdjust="spacing" textLength="24.8066" x="635.303" y="636.7421">0..1</text></g><!--link PreisblattDienstleistung to Sparte--><g class="link" data-entity-1="ent0002" data-entity-2="ent0014" data-link-type="composition" data-source-line="66" id="lnk23"><path codeLine="66" d="M233.28,489.98 C271.93,539.59 335.22,609.64 407.75,646 C495.86,690.17 601.6303,696.3589 666.4503,695.8789" fill="none" id="PreisblattDienstleistung-to-Sparte" style="stroke:#181818;stroke-width:1;"/><polygon fill="#181818" points="678.45,695.79,672.4205,691.8345,666.4503,695.8789,672.4798,699.8343,678.45,695.79" style="stroke:#181818;stroke-width:1;"/><text fill="#000000" font-family="sans-serif" font-size="13" lengthAdjust="spacing" textLength="41.4312" x="471.75" y="642.0669">sparte</text><text fill="#000000" font-family="sans-serif" font-size="13" lengthAdjust="spacing" textLength="24.8066" x="645.9528" y="709.1728">0..1</text></g><?plantuml-src hLPRRzem57xFhx3eMoKkLI-hecaIh5671cq5wKiPcXnoI2mS9xATJMNgVzz9J0OaeGigUVAv-ijtZe_DOQc9ZebaGQY9poGiD8k5PIquLOgqPhDGwqJPtQuNNq4dO3fClGwBkuF7AwUTlEem5bqDIhSlUrVNlPikJHYwTfuaCELnglKT0w4qHr6d8kY4EkBaa7K-_o4-AxO6-wBtvPqiBKBLmIJaZqNm-ybyOXEb9PdrEfsBkL7grmIr8wP1KZvhFKsSuNGmwhlktT1vcBeZ5DtdX_lMV2_g5qY5h5JpUR06jWX5jksUySso18r09NG1f9LpvyKvxCsQd0rkxZxrRpTeFqZtFVuEQ4EkMPUfDDeSWLaUGzEzC-axxeT9oOn1lZc8D8f0bZax0HDZAbTQ0-C2Gjp1K59IbhafcNEIIhfZs1ht9zzTrncE7fnlOsVIbBQ8hcBgIr0AqCYncMVeOOBFZOkCEGUnYFq3_BrLccuHHzkkGu6SERt-xStN4xGTPZC7D8aLouR6pjakL7jCLmAsnxZG77rsdnwdGtVu-D2Kv2Nk5e48OC2PyAdqW6dqMlAOwbg_qMQgg2LTwLZM-GOoJH8GL6gs0ZwiWLwC9lNEl3X5ELxmRoHD8rE9GgeKeJ3a_1V2CTI_E4DtqdyUDsNTfscvMJCr2D-d6hUsqKD3oPI6Scsgex4KkqQbaUj3aRcnFhRkW6GdQNj2CecS-HUBo-jJJEOiNMV0E1Lh1Z9hW0ZGqGTJe3hBNh4EnkU8wmm8-kqqiFSlLOKTO41NzLN8LPySS5LzEhZv6C7QwrJjp26Zg0BSCMw7a95F1scQO2TkIctMLI16dsCmotnxV3qSVDsqs-UabVLpgxZ8xU9IzK5JnbMZsFBzPfCGawGg00_a_pESjqg3soR9hWoY4Of_mmV_8GMkMR12JQFGskwtYLUZRfIlfZan6rLC-NkMHjpK9cDYnLF5Vi6-jI5Lkosw8Tj8ZQ8tpOKZE5zOLiYGhWWYhBQoL1Z_9WTVssJ9WFlgBm00?></g></svg>