<?xml version="1.0" encoding="us-ascii" standalone="no"?><svg xmlns="http://www.w3.org/2000/svg" xmlns:xlink="http://www.w3.org/1999/xlink" contentStyleType="text/css" height="793px" preserveAspectRatio="none" style="width:825px;height:793px;background:#FFFFFF;" version="1.1" viewBox="0 0 825 793" width="825px" zoomAndPan="magnify"><defs/><g><!--cluster bo4e--><g id="cluster_bo4e"><path d="M551.5,6 L592.5,6 A3.75,3.75 0 0 1 595,8.5 L602,28.2969 L815.5,28.2969 A2.5,2.5 0 0 1 818,30.7969 L818,783.5 A2.5,2.5 0 0 1 815.5,786 L551.5,786 A2.5,2.5 0 0 1 549,783.5 L549,8.5 A2.5,2.5 0 0 1 551.5,6 " fill="none" style="stroke:#000000;stroke-width:1.5;"/><line style="stroke:#000000;stroke-width:1.5;" x1="549" x2="602" y1="28.2969" y2="28.2969"/><text fill="#000000" font-family="sans-serif" font-size="14" font-weight="bold" lengthAdjust="spacing" textLength="40" x="553" y="20.9951">bo4e</text></g><!--cluster com--><g id="cluster_com"><path d="M601.5,49 L680.5,49 A3.75,3.75 0 0 1 683,51.5 L690,71.2969 L765.5,71.2969 A2.5,2.5 0 0 1 768,73.7969 L768,208.5 A2.5,2.5 0 0 1 765.5,211 L601.5,211 A2.5,2.5 0 0 1 599,208.5 L599,51.5 A2.5,2.5 0 0 1 601.5,49 " fill="#E0A86C" style="stroke:#000000;stroke-width:1.5;"/><line style="stroke:#000000;stroke-width:1.5;" x1="599" x2="690" y1="71.2969" y2="71.2969"/><a href="https://bo4e.github.io/BO4E-python/v202401.4.0/api/bo4e.com.html" target="_top" title="https://bo4e.github.io/BO4E-python/v202401.4.0/api/bo4e.com.html" xlink:actuate="onRequest" xlink:href="https://bo4e.github.io/BO4E-python/v202401.4.0/api/bo4e.com.html" xlink:show="new" xlink:title="https://bo4e.github.io/BO4E-python/v202401.4.0/api/bo4e.com.html" xlink:type="simple"><text fill="#0000FF" font-family="sans-serif" font-size="14" font-weight="bold" lengthAdjust="spacing" text-decoration="underline" textLength="78" x="603" y="63.9951">bo4e.com</text></a></g><!--cluster enum--><g id="cluster_enum"><path d="M575.5,235 L665.5,235 A3.75,3.75 0 0 1 668,237.5 L675,257.2969 L791.5,257.2969 A2.5,2.5 0 0 1 794,259.7969 L794,759.5 A2.5,2.5 0 0 1 791.5,762 L575.5,762 A2.5,2.5 0 0 1 573,759.5 L573,237.5 A2.5,2.5 0 0 1 575.5,235 " fill="#D1C358" style="stroke:#000000;stroke-width:1.5;"/><line style="stroke:#000000;stroke-width:1.5;" x1="573" x2="675" y1="257.2969" y2="257.2969"/><a href="https://bo4e.github.io/BO4E-python/v202401.4.0/api/bo4e.enum.html" target="_top" title="https://bo4e.github.io/BO4E-python/v202401.4.0/api/bo4e.enum.html" xlink:actuate="onRequest" xlink:href="https://bo4e.github.io/BO4E-python/v202401.4.0/api/bo4e.enum.html" xlink:show="new" xlink:title="https://bo4e.github.io/BO4E-python/v202401.4.0/api/bo4e.enum.html" xlink:type="simple"><text fill="#0000FF" font-family="sans-serif" font-size="14" font-weight="bold" lengthAdjust="spacing" text-decoration="underline" textLength="89" x="577" y="249.9951">bo4e.enum</text></a></g><!--class Preisstaffel--><g id="elem_Preisstaffel"><rect codeLine="11" fill="#F1F1F1" height="37.9375" id="Preisstaffel" rx="2.5" ry="2.5" style="stroke:#181818;stroke-width:0.5;" width="137" x="615" y="84.03"/><ellipse cx="630" cy="102.9987" fill="#ADD1B2" rx="11" ry="11" style="stroke:#181818;stroke-width:1.0;"/><path d="M632.9688,108.6394 Q632.3906,108.9362 631.75,109.0769 Q631.1094,109.2331 630.4063,109.2331 Q627.9063,109.2331 626.5781,107.5925 Q625.2656,105.9362 625.2656,102.8112 Q625.2656,99.6862 626.5781,98.03 Q627.9063,96.3737 630.4063,96.3737 Q631.1094,96.3737 631.75,96.53 Q632.4063,96.6862 632.9688,96.9831 L632.9688,99.7019 Q632.3438,99.1237 631.75,98.8581 Q631.1563,98.5769 630.5313,98.5769 Q629.1875,98.5769 628.5,99.655 Q627.8125,100.7175 627.8125,102.8112 Q627.8125,104.905 628.5,105.9831 Q629.1875,107.0456 630.5313,107.0456 Q631.1563,107.0456 631.75,106.78 Q632.3438,106.4987 632.9688,105.9206 L632.9688,108.6394 Z " fill="#000000"/><a href="https://bo4e.github.io/BO4E-python/v202401.4.0/api/bo4e.com.html#bo4e.com.preisstaffel.Preisstaffel" target="_top" title="https://bo4e.github.io/BO4E-python/v202401.4.0/api/bo4e.com.html#bo4e.com.preisstaffel.Preisstaffel" xlink:actuate="onRequest" xlink:href="https://bo4e.github.io/BO4E-python/v202401.4.0/api/bo4e.com.html#bo4e.com.preisstaffel.Preisstaffel" xlink:show="new" xlink:title="https://bo4e.github.io/BO4E-python/v202401.4.0/api/bo4e.com.html#bo4e.com.preisstaffel.Preisstaffel" xlink:type="simple"><text fill="#0000FF" font-family="sans-serif" font-size="14" lengthAdjust="spacing" text-decoration="underline" textLength="75" x="659" y="102.0251">Preisstaffel</text></a><text fill="#000000" font-family="sans-serif" font-size="10" lengthAdjust="spacing" textLength="105" x="644" y="114.6091">bo4e.com.preisstaffel</text></g><!--class COM--><g id="elem_COM"><rect codeLine="12" fill="#F1F1F1" height="37.9375" id="COM" rx="2.5" ry="2.5" style="stroke:#181818;stroke-width:0.5;" width="104" x="631.5" y="157.03"/><ellipse cx="646.5" cy="175.9987" fill="#ADD1B2" rx="11" ry="11" style="stroke:#181818;stroke-width:1.0;"/><path d="M649.4688,181.6394 Q648.8906,181.9362 648.25,182.0769 Q647.6094,182.2331 646.9063,182.2331 Q644.4063,182.2331 643.0781,180.5925 Q641.7656,178.9362 641.7656,175.8112 Q641.7656,172.6862 643.0781,171.03 Q644.4063,169.3737 646.9063,169.3737 Q647.6094,169.3737 648.25,169.53 Q648.9063,169.6862 649.4688,169.9831 L649.4688,172.7019 Q648.8438,172.1237 648.25,171.8581 Q647.6563,171.5769 647.0313,171.5769 Q645.6875,171.5769 645,172.655 Q644.3125,173.7175 644.3125,175.8112 Q644.3125,177.905 645,178.9831 Q645.6875,180.0456 647.0313,180.0456 Q647.6563,180.0456 648.25,179.78 Q648.8438,179.4987 649.4688,178.9206 L649.4688,181.6394 Z " fill="#000000"/><a href="https://bo4e.github.io/BO4E-python/v202401.4.0/api/bo4e.com.html#bo4e.com.com.COM" target="_top" title="https://bo4e.github.io/BO4E-python/v202401.4.0/api/bo4e.com.html#bo4e.com.com.COM" xlink:actuate="onRequest" xlink:href="https://bo4e.github.io/BO4E-python/v202401.4.0/api/bo4e.com.html#bo4e.com.com.COM" xlink:show="new" xlink:title="https://bo4e.github.io/BO4E-python/v202401.4.0/api/bo4e.com.html#bo4e.com.com.COM" xlink:type="simple"><text fill="#0000FF" font-family="sans-serif" font-size="14" lengthAdjust="spacing" text-decoration="underline" textLength="33" x="680" y="175.0251">COM</text></a><text fill="#000000" font-family="sans-serif" font-size="10" lengthAdjust="spacing" textLength="72" x="660.5" y="187.6091">bo4e.com.com</text></g><!--class Waehrungseinheit--><g id="elem_Waehrungseinheit"><rect codeLine="15" fill="#F1F1F1" height="37.9375" id="Waehrungseinheit" rx="2.5" ry="2.5" style="stroke:#181818;stroke-width:0.5;" width="175" x="596" y="270.03"/><ellipse cx="611" cy="288.9988" fill="#ADD1B2" rx="11" ry="11" style="stroke:#181818;stroke-width:1.0;"/><path d="M613.9688,294.6394 Q613.3906,294.9363 612.75,295.0769 Q612.1094,295.2331 611.4063,295.2331 Q608.9063,295.2331 607.5781,293.5925 Q606.2656,291.9363 606.2656,288.8113 Q606.2656,285.6863 607.5781,284.03 Q608.9063,282.3738 611.4063,282.3738 Q612.1094,282.3738 612.75,282.53 Q613.4063,282.6863 613.9688,282.9831 L613.9688,285.7019 Q613.3438,285.1238 612.75,284.8581 Q612.1563,284.5769 611.5313,284.5769 Q610.1875,284.5769 609.5,285.655 Q608.8125,286.7175 608.8125,288.8113 Q608.8125,290.905 609.5,291.9831 Q610.1875,293.0456 611.5313,293.0456 Q612.1563,293.0456 612.75,292.78 Q613.3438,292.4988 613.9688,291.9206 L613.9688,294.6394 Z " fill="#000000"/><a href="https://bo4e.github.io/BO4E-python/v202401.4.0/api/bo4e.enum.html#bo4e.enum.waehrungseinheit.Waehrungseinheit" target="_top" title="https://bo4e.github.io/BO4E-python/v202401.4.0/api/bo4e.enum.html#bo4e.enum.waehrungseinheit.Waehrungseinheit" xlink:actuate="onRequest" xlink:href="https://bo4e.github.io/BO4E-python/v202401.4.0/api/bo4e.enum.html#bo4e.enum.waehrungseinheit.Waehrungseinheit" xlink:show="new" xlink:title="https://bo4e.github.io/BO4E-python/v202401.4.0/api/bo4e.enum.html#bo4e.enum.waehrungseinheit.Waehrungseinheit" xlink:type="simple"><text fill="#0000FF" font-family="sans-serif" font-size="14" lengthAdjust="spacing" text-decoration="underline" textLength="126" x="633.5" y="288.0251">Waehrungseinheit</text></a><text fill="#000000" font-family="sans-serif" font-size="10" lengthAdjust="spacing" textLength="143" x="625" y="300.6091">bo4e.enum.waehrungseinheit</text></g><!--class BDEWArtikelnummer--><g id="elem_BDEWArtikelnummer"><rect codeLine="16" fill="#F1F1F1" height="37.9375" id="BDEWArtikelnummer" rx="2.5" ry="2.5" style="stroke:#181818;stroke-width:0.5;" width="187" x="590" y="343.03"/><ellipse cx="605" cy="361.9988" fill="#ADD1B2" rx="11" ry="11" style="stroke:#181818;stroke-width:1.0;"/><path d="M607.9688,367.6394 Q607.3906,367.9363 606.75,368.0769 Q606.1094,368.2331 605.4063,368.2331 Q602.9063,368.2331 601.5781,366.5925 Q600.2656,364.9363 600.2656,361.8113 Q600.2656,358.6863 601.5781,357.03 Q602.9063,355.3738 605.4063,355.3738 Q606.1094,355.3738 606.75,355.53 Q607.4063,355.6863 607.9688,355.9831 L607.9688,358.7019 Q607.3438,358.1238 606.75,357.8581 Q606.1563,357.5769 605.5313,357.5769 Q604.1875,357.5769 603.5,358.655 Q602.8125,359.7175 602.8125,361.8113 Q602.8125,363.905 603.5,364.9831 Q604.1875,366.0456 605.5313,366.0456 Q606.1563,366.0456 606.75,365.78 Q607.3438,365.4988 607.9688,364.9206 L607.9688,367.6394 Z " fill="#000000"/><a href="https://bo4e.github.io/BO4E-python/v202401.4.0/api/bo4e.enum.html#bo4e.enum.bdewartikelnummer.BDEWArtikelnummer" target="_top" title="https://bo4e.github.io/BO4E-python/v202401.4.0/api/bo4e.enum.html#bo4e.enum.bdewartikelnummer.BDEWArtikelnummer" xlink:actuate="onRequest" xlink:href="https://bo4e.github.io/BO4E-python/v202401.4.0/api/bo4e.enum.html#bo4e.enum.bdewartikelnummer.BDEWArtikelnummer" xlink:show="new" xlink:title="https://bo4e.github.io/BO4E-python/v202401.4.0/api/bo4e.enum.html#bo4e.enum.bdewartikelnummer.BDEWArtikelnummer" xlink:type="simple"><text fill="#0000FF" font-family="sans-serif" font-size="14" lengthAdjust="spacing" text-decoration="underline" textLength="143" x="625" y="361.0251">BDEWArtikelnummer</text></a><text fill="#000000" font-family="sans-serif" font-size="10" lengthAdjust="spacing" textLength="155" x="619" y="373.6091">bo4e.enum.bdewartikelnummer</text></g><!--class Mengeneinheit--><g id="elem_Mengeneinheit"><rect codeLine="17" fill="#F1F1F1" height="37.9375" id="Mengeneinheit" rx="2.5" ry="2.5" style="stroke:#181818;stroke-width:0.5;" width="162" x="602.5" y="416.03"/><ellipse cx="617.5" cy="434.9988" fill="#ADD1B2" rx="11" ry="11" style="stroke:#181818;stroke-width:1.0;"/><path d="M620.4688,440.6394 Q619.8906,440.9363 619.25,441.0769 Q618.6094,441.2331 617.9063,441.2331 Q615.4063,441.2331 614.0781,439.5925 Q612.7656,437.9363 612.7656,434.8113 Q612.7656,431.6863 614.0781,430.03 Q615.4063,428.3738 617.9063,428.3738 Q618.6094,428.3738 619.25,428.53 Q619.9063,428.6863 620.4688,428.9831 L620.4688,431.7019 Q619.8438,431.1238 619.25,430.8581 Q618.6563,430.5769 618.0313,430.5769 Q616.6875,430.5769 616,431.655 Q615.3125,432.7175 615.3125,434.8113 Q615.3125,436.905 616,437.9831 Q616.6875,439.0456 618.0313,439.0456 Q618.6563,439.0456 619.25,438.78 Q619.8438,438.4988 620.4688,437.9206 L620.4688,440.6394 Z " fill="#000000"/><a href="https://bo4e.github.io/BO4E-python/v202401.4.0/api/bo4e.enum.html#bo4e.enum.mengeneinheit.Mengeneinheit" target="_top" title="https://bo4e.github.io/BO4E-python/v202401.4.0/api/bo4e.enum.html#bo4e.enum.mengeneinheit.Mengeneinheit" xlink:actuate="onRequest" xlink:href="https://bo4e.github.io/BO4E-python/v202401.4.0/api/bo4e.enum.html#bo4e.enum.mengeneinheit.Mengeneinheit" xlink:show="new" xlink:title="https://bo4e.github.io/BO4E-python/v202401.4.0/api/bo4e.enum.html#bo4e.enum.mengeneinheit.Mengeneinheit" xlink:type="simple"><text fill="#0000FF" font-family="sans-serif" font-size="14" lengthAdjust="spacing" text-decoration="underline" textLength="104" x="644.5" y="434.0251">Mengeneinheit</text></a><text fill="#000000" font-family="sans-serif" font-size="10" lengthAdjust="spacing" textLength="130" x="631.5" y="446.6091">bo4e.enum.mengeneinheit</text></g><!--class Leistungstyp--><g id="elem_Leistungstyp"><rect codeLine="18" fill="#F1F1F1" height="37.9375" id="Leistungstyp" rx="2.5" ry="2.5" style="stroke:#181818;stroke-width:0.5;" width="148" x="609.5" y="489.03"/><ellipse cx="624.5" cy="507.9988" fill="#ADD1B2" rx="11" ry="11" style="stroke:#181818;stroke-width:1.0;"/><path d="M627.4688,513.6394 Q626.8906,513.9363 626.25,514.0769 Q625.6094,514.2331 624.9063,514.2331 Q622.4063,514.2331 621.0781,512.5925 Q619.7656,510.9363 619.7656,507.8113 Q619.7656,504.6863 621.0781,503.03 Q622.4063,501.3738 624.9063,501.3738 Q625.6094,501.3738 626.25,501.53 Q626.9063,501.6863 627.4688,501.9831 L627.4688,504.7019 Q626.8438,504.1238 626.25,503.8581 Q625.6563,503.5769 625.0313,503.5769 Q623.6875,503.5769 623,504.655 Q622.3125,505.7175 622.3125,507.8113 Q622.3125,509.905 623,510.9831 Q623.6875,512.0456 625.0313,512.0456 Q625.6563,512.0456 626.25,511.78 Q626.8438,511.4988 627.4688,510.9206 L627.4688,513.6394 Z " fill="#000000"/><a href="https://bo4e.github.io/BO4E-python/v202401.4.0/api/bo4e.enum.html#bo4e.enum.leistungstyp.Leistungstyp" target="_top" title="https://bo4e.github.io/BO4E-python/v202401.4.0/api/bo4e.enum.html#bo4e.enum.leistungstyp.Leistungstyp" xlink:actuate="onRequest" xlink:href="https://bo4e.github.io/BO4E-python/v202401.4.0/api/bo4e.enum.html#bo4e.enum.leistungstyp.Leistungstyp" xlink:show="new" xlink:title="https://bo4e.github.io/BO4E-python/v202401.4.0/api/bo4e.enum.html#bo4e.enum.leistungstyp.Leistungstyp" xlink:type="simple"><text fill="#0000FF" font-family="sans-serif" font-size="14" lengthAdjust="spacing" text-decoration="underline" textLength="88" x="652.5" y="507.0251">Leistungstyp</text></a><text fill="#000000" font-family="sans-serif" font-size="10" lengthAdjust="spacing" textLength="116" x="638.5" y="519.6091">bo4e.enum.leistungstyp</text></g><!--class Tarifzeit--><g id="elem_Tarifzeit"><rect codeLine="19" fill="#F1F1F1" height="37.9375" id="Tarifzeit" rx="2.5" ry="2.5" style="stroke:#181818;stroke-width:0.5;" width="127" x="620" y="562.03"/><ellipse cx="635" cy="580.9988" fill="#ADD1B2" rx="11" ry="11" style="stroke:#181818;stroke-width:1.0;"/><path d="M637.9688,586.6394 Q637.3906,586.9363 636.75,587.0769 Q636.1094,587.2331 635.4063,587.2331 Q632.9063,587.2331 631.5781,585.5925 Q630.2656,583.9363 630.2656,580.8113 Q630.2656,577.6863 631.5781,576.03 Q632.9063,574.3738 635.4063,574.3738 Q636.1094,574.3738 636.75,574.53 Q637.4063,574.6863 637.9688,574.9831 L637.9688,577.7019 Q637.3438,577.1238 636.75,576.8581 Q636.1563,576.5769 635.5313,576.5769 Q634.1875,576.5769 633.5,577.655 Q632.8125,578.7175 632.8125,580.8113 Q632.8125,582.905 633.5,583.9831 Q634.1875,585.0456 635.5313,585.0456 Q636.1563,585.0456 636.75,584.78 Q637.3438,584.4988 637.9688,583.9206 L637.9688,586.6394 Z " fill="#000000"/><a href="https://bo4e.github.io/BO4E-python/v202401.4.0/api/bo4e.enum.html#bo4e.enum.tarifzeit.Tarifzeit" target="_top" title="https://bo4e.github.io/BO4E-python/v202401.4.0/api/bo4e.enum.html#bo4e.enum.tarifzeit.Tarifzeit" xlink:actuate="onRequest" xlink:href="https://bo4e.github.io/BO4E-python/v202401.4.0/api/bo4e.enum.html#bo4e.enum.tarifzeit.Tarifzeit" xlink:show="new" xlink:title="https://bo4e.github.io/BO4E-python/v202401.4.0/api/bo4e.enum.html#bo4e.enum.tarifzeit.Tarifzeit" xlink:type="simple"><text fill="#0000FF" font-family="sans-serif" font-size="14" lengthAdjust="spacing" text-decoration="underline" textLength="54" x="669.5" y="580.0251">Tarifzeit</text></a><text fill="#000000" font-family="sans-serif" font-size="10" lengthAdjust="spacing" textLength="95" x="649" y="592.6091">bo4e.enum.tarifzeit</text></g><!--class Bemessungsgroesse--><g id="elem_Bemessungsgroesse"><rect codeLine="20" fill="#F1F1F1" height="37.9375" id="Bemessungsgroesse" rx="2.5" ry="2.5" style="stroke:#181818;stroke-width:0.5;" width="189" x="589" y="635.03"/><ellipse cx="604" cy="653.9988" fill="#ADD1B2" rx="11" ry="11" style="stroke:#181818;stroke-width:1.0;"/><path d="M606.9688,659.6394 Q606.3906,659.9363 605.75,660.0769 Q605.1094,660.2331 604.4063,660.2331 Q601.9063,660.2331 600.5781,658.5925 Q599.2656,656.9363 599.2656,653.8113 Q599.2656,650.6863 600.5781,649.03 Q601.9063,647.3738 604.4063,647.3738 Q605.1094,647.3738 605.75,647.53 Q606.4063,647.6863 606.9688,647.9831 L606.9688,650.7019 Q606.3438,650.1238 605.75,649.8581 Q605.1563,649.5769 604.5313,649.5769 Q603.1875,649.5769 602.5,650.655 Q601.8125,651.7175 601.8125,653.8113 Q601.8125,655.905 602.5,656.9831 Q603.1875,658.0456 604.5313,658.0456 Q605.1563,658.0456 605.75,657.78 Q606.3438,657.4988 606.9688,656.9206 L606.9688,659.6394 Z " fill="#000000"/><a href="https://bo4e.github.io/BO4E-python/v202401.4.0/api/bo4e.enum.html#bo4e.enum.bemessungsgroesse.Bemessungsgroesse" target="_top" title="https://bo4e.github.io/BO4E-python/v202401.4.0/api/bo4e.enum.html#bo4e.enum.bemessungsgroesse.Bemessungsgroesse" xlink:actuate="onRequest" xlink:href="https://bo4e.github.io/BO4E-python/v202401.4.0/api/bo4e.enum.html#bo4e.enum.bemessungsgroesse.Bemessungsgroesse" xlink:show="new" xlink:title="https://bo4e.github.io/BO4E-python/v202401.4.0/api/bo4e.enum.html#bo4e.enum.bemessungsgroesse.Bemessungsgroesse" xlink:type="simple"><text fill="#0000FF" font-family="sans-serif" font-size="14" lengthAdjust="spacing" text-decoration="underline" textLength="149" x="622" y="653.0251">Bemessungsgroesse</text></a><text fill="#000000" font-family="sans-serif" font-size="10" lengthAdjust="spacing" textLength="157" x="618" y="665.6091">bo4e.enum.bemessungsgroesse</text></g><!--class Kalkulationsmethode--><g id="elem_Kalkulationsmethode"><rect codeLine="21" fill="#F1F1F1" height="37.9375" id="Kalkulationsmethode" rx="2.5" ry="2.5" style="stroke:#181818;stroke-width:0.5;" width="189" x="589" y="708.03"/><ellipse cx="604" cy="726.9988" fill="#ADD1B2" rx="11" ry="11" style="stroke:#181818;stroke-width:1.0;"/><path d="M606.9688,732.6394 Q606.3906,732.9363 605.75,733.0769 Q605.1094,733.2331 604.4063,733.2331 Q601.9063,733.2331 600.5781,731.5925 Q599.2656,729.9363 599.2656,726.8113 Q599.2656,723.6863 600.5781,722.03 Q601.9063,720.3738 604.4063,720.3738 Q605.1094,720.3738 605.75,720.53 Q606.4063,720.6863 606.9688,720.9831 L606.9688,723.7019 Q606.3438,723.1238 605.75,722.8581 Q605.1563,722.5769 604.5313,722.5769 Q603.1875,722.5769 602.5,723.655 Q601.8125,724.7175 601.8125,726.8113 Q601.8125,728.905 602.5,729.9831 Q603.1875,731.0456 604.5313,731.0456 Q605.1563,731.0456 605.75,730.78 Q606.3438,730.4988 606.9688,729.9206 L606.9688,732.6394 Z " fill="#000000"/><a href="https://bo4e.github.io/BO4E-python/v202401.4.0/api/bo4e.enum.html#bo4e.enum.kalkulationsmethode.Kalkulationsmethode" target="_top" title="https://bo4e.github.io/BO4E-python/v202401.4.0/api/bo4e.enum.html#bo4e.enum.kalkulationsmethode.Kalkulationsmethode" xlink:actuate="onRequest" xlink:href="https://bo4e.github.io/BO4E-python/v202401.4.0/api/bo4e.enum.html#bo4e.enum.kalkulationsmethode.Kalkulationsmethode" xlink:show="new" xlink:title="https://bo4e.github.io/BO4E-python/v202401.4.0/api/bo4e.enum.html#bo4e.enum.kalkulationsmethode.Kalkulationsmethode" xlink:type="simple"><text fill="#0000FF" font-family="sans-serif" font-size="14" lengthAdjust="spacing" text-decoration="underline" textLength="145" x="624" y="726.0251">Kalkulationsmethode</text></a><text fill="#000000" font-family="sans-serif" font-size="10" lengthAdjust="spacing" textLength="157" x="618" y="738.6091">bo4e.enum.kalkulationsmethode</text></g><!--class Preisposition--><g id="elem_Preisposition"><rect codeLine="3" fill="#F1F1F1" height="111.125" id="Preisposition" rx="2.5" ry="2.5" style="stroke:#181818;stroke-width:0.5;" width="353" x="7" y="379.44"/><ellipse cx="123.75" cy="398.4088" fill="#ADD1B2" rx="11" ry="11" style="stroke:#181818;stroke-width:1.0;"/><path d="M126.7188,404.0494 Q126.1406,404.3463 125.5,404.4869 Q124.8594,404.6431 124.1563,404.6431 Q121.6563,404.6431 120.3281,403.0025 Q119.0156,401.3463 119.0156,398.2213 Q119.0156,395.0963 120.3281,393.44 Q121.6563,391.7838 124.1563,391.7838 Q124.8594,391.7838 125.5,391.94 Q126.1563,392.0963 126.7188,392.3931 L126.7188,395.1119 Q126.0938,394.5338 125.5,394.2681 Q124.9063,393.9869 124.2813,393.9869 Q122.9375,393.9869 122.25,395.065 Q121.5625,396.1275 121.5625,398.2213 Q121.5625,400.315 122.25,401.3931 Q122.9375,402.4556 124.2813,402.4556 Q124.9063,402.4556 125.5,402.19 Q126.0938,401.9088 126.7188,401.3306 L126.7188,404.0494 Z " fill="#000000"/><a href="https://bo4e.github.io/BO4E-python/v202401.4.0/api/bo4e.com.html#bo4e.com.preisposition.Preisposition" target="_top" title="https://bo4e.github.io/BO4E-python/v202401.4.0/api/bo4e.com.html#bo4e.com.preisposition.Preisposition" xlink:actuate="onRequest" xlink:href="https://bo4e.github.io/BO4E-python/v202401.4.0/api/bo4e.com.html#bo4e.com.preisposition.Preisposition" xlink:show="new" xlink:title="https://bo4e.github.io/BO4E-python/v202401.4.0/api/bo4e.com.html#bo4e.com.preisposition.Preisposition" xlink:type="simple"><text fill="#0000FF" font-family="sans-serif" font-size="14" lengthAdjust="spacing" text-decoration="underline" textLength="89" x="155.25" y="397.4351">Preisposition</text></a><text fill="#000000" font-family="sans-serif" font-size="10" lengthAdjust="spacing" textLength="111" x="144.25" y="410.0191">bo4e.com.preisposition</text><line style="stroke:#181818;stroke-width:0.5;" x1="8" x2="359" y1="417.3775" y2="417.3775"/><text fill="#000000" font-family="sans-serif" font-size="14" lengthAdjust="spacing" textLength="282" x="13" y="434.3726">leistungsbezeichnung : str [0..1] = None</text><text fill="#000000" font-family="sans-serif" font-size="14" lengthAdjust="spacing" textLength="308" x="13" y="450.6695">freimengeBlindarbeit : Decimal [0..1] = None</text><text fill="#000000" font-family="sans-serif" font-size="14" lengthAdjust="spacing" textLength="341" x="13" y="466.9664">freimengeLeistungsfaktor : Decimal [0..1] = None</text><text fill="#000000" font-family="sans-serif" font-size="14" lengthAdjust="spacing" textLength="240" x="13" y="483.2632">gruppenartikelId : str [0..1] = None</text></g><!--link Preisposition to COM--><g id="link_Preisposition_COM"><path codeLine="24" d="M262.48,378.99 C300.05,353.26 346.34,323.35 390,300 C471.47,256.43 554.687,223.086 614.147,200.886 " fill="none" id="Preisposition-to-COM" style="stroke:#181818;stroke-width:1.0;"/><polygon fill="none" points="631.01,194.59,612.0483,195.265,616.2457,206.507,631.01,194.59" style="stroke:#181818;stroke-width:1.0;"/></g><!--link Preisposition to Kalkulationsmethode--><g id="link_Preisposition_Kalkulationsmethode"><path codeLine="25" d="M221.35,490.73 C258.06,541.76 319.06,615.49 390,657 C450.73,692.54 516.6915,708.3566 576.8015,716.9766 " fill="none" id="Preisposition-to-Kalkulationsmethode" style="stroke:#181818;stroke-width:1.0;"/><polygon fill="#181818" points="588.68,718.68,583.3086,713.8688,576.8015,716.9766,582.173,721.7878,588.68,718.68" style="stroke:#181818;stroke-width:1.0;"/><text fill="#000000" font-family="sans-serif" font-size="13" lengthAdjust="spacing" textLength="141" x="391" y="653.0669">berechnungsmethode</text><text fill="#000000" font-family="sans-serif" font-size="13" lengthAdjust="spacing" textLength="24" x="556.8354" y="730.6916">0..1</text></g><!--link Preisposition to Leistungstyp--><g id="link_Preisposition_Leistungstyp"><path codeLine="26" d="M360.33,482.6 C370.33,484.6 380.27,486.43 390,488 C463.99,499.97 537.6364,504.3884 597.0564,506.3284 " fill="none" id="Preisposition-to-Leistungstyp" style="stroke:#181818;stroke-width:1.0;"/><polygon fill="#181818" points="609.05,506.72,603.1837,502.5263,597.0564,506.3284,602.9227,510.5221,609.05,506.72" style="stroke:#181818;stroke-width:1.0;"/><text fill="#000000" font-family="sans-serif" font-size="13" lengthAdjust="spacing" textLength="77" x="423" y="484.0669">leistungstyp</text><text fill="#000000" font-family="sans-serif" font-size="13" lengthAdjust="spacing" textLength="24" x="577.6207" y="519.3272">0..1</text></g><!--link Preisposition to Waehrungseinheit--><g id="link_Preisposition_Waehrungseinheit"><path codeLine="27" d="M334.29,379.02 C352.95,372.65 371.85,366.49 390,361 C458.46,340.31 525.5394,323.8439 584.0894,310.5139 " fill="none" id="Preisposition-to-Waehrungseinheit" style="stroke:#181818;stroke-width:1.0;"/><polygon fill="#181818" points="595.79,307.85,589.0518,305.2817,584.0894,310.5139,590.8277,313.0821,595.79,307.85" style="stroke:#181818;stroke-width:1.0;"/><text fill="#000000" font-family="sans-serif" font-size="13" lengthAdjust="spacing" textLength="74" x="424.5" y="321.0669">preiseinheit</text><text fill="#000000" font-family="sans-serif" font-size="13" lengthAdjust="spacing" textLength="24" x="563.8444" y="322.0221">0..1</text></g><!--link Preisposition to Mengeneinheit--><g id="link_Preisposition_Mengeneinheit"><path codeLine="28" d="M360.43,435 C442.86,435 525.02,435 590.15,435 " fill="none" id="Preisposition-to-Mengeneinheit" style="stroke:#181818;stroke-width:1.0;"/><polygon fill="#181818" points="602.15,435,596.15,431,590.15,435,596.15,439,602.15,435" style="stroke:#181818;stroke-width:1.0;"/><text fill="#000000" font-family="sans-serif" font-size="13" lengthAdjust="spacing" textLength="97" x="413" y="431.0669">bezugsgroesse</text><text fill="#000000" font-family="sans-serif" font-size="13" lengthAdjust="spacing" textLength="24" x="570.4195" y="447.6936">0..1</text></g><!--link Preisposition to Mengeneinheit--><g id="link_Preisposition_Mengeneinheit"><path codeLine="29" d="M360.06,458.18 C415.42,462.65 476.78,464.67 533,460 C555.55,458.13 567.9954,456.6757 590.2854,452.9357 " fill="none" id="Preisposition-to-Mengeneinheit-1" style="stroke:#181818;stroke-width:1.0;"/><polygon fill="#181818" points="602.12,450.95,595.5408,447.998,590.2854,452.9357,596.8646,455.8877,602.12,450.95" style="stroke:#181818;stroke-width:1.0;"/><text fill="#000000" font-family="sans-serif" font-size="13" lengthAdjust="spacing" textLength="56" x="433.5" y="456.0669">zeitbasis</text><text fill="#000000" font-family="sans-serif" font-size="13" lengthAdjust="spacing" textLength="24" x="570.387" y="464.9645">0..1</text></g><!--link Preisposition to Preisstaffel--><g id="link_Preisposition_Preisstaffel"><path codeLine="30" d="M233.48,379.16 C297.03,310.69 414.8,196.76 541,140 C564.16,129.58 579.1476,124.4865 603.0376,118.6965 " fill="none" id="Preisposition-to-Preisstaffel" style="stroke:#181818;stroke-width:1.0;"/><polygon fill="#181818" points="614.7,115.87,607.9266,113.3958,603.0376,118.6965,609.811,121.1707,614.7,115.87" style="stroke:#181818;stroke-width:1.0;"/><text fill="#000000" font-family="sans-serif" font-size="13" lengthAdjust="spacing" textLength="78" x="422.5" y="142.0669">preisstaffeln</text><text fill="#000000" font-family="sans-serif" font-size="13" lengthAdjust="spacing" textLength="23" x="584.0464" y="129.8849">0..*</text></g><!--link Preisposition to Tarifzeit--><g id="link_Preisposition_Tarifzeit"><path codeLine="31" d="M295.08,491.04 C325.28,504.68 358.41,518.15 390,528 C467.23,552.07 547.6452,565.0213 607.6152,572.6213 " fill="none" id="Preisposition-to-Tarifzeit" style="stroke:#181818;stroke-width:1.0;"/><polygon fill="#181818" points="619.52,574.13,614.0705,569.4074,607.6152,572.6213,613.0647,577.3439,619.52,574.13" style="stroke:#181818;stroke-width:1.0;"/><text fill="#000000" font-family="sans-serif" font-size="13" lengthAdjust="spacing" textLength="48" x="437.5" y="524.0669">tarifzeit</text><text fill="#000000" font-family="sans-serif" font-size="13" lengthAdjust="spacing" textLength="24" x="588.0407" y="586.2656">0..1</text></g><!--link Preisposition to BDEWArtikelnummer--><g id="link_Preisposition_BDEWArtikelnummer"><path codeLine="32" d="M360.43,409.21 C437.68,397.89 513.3667,386.7894 577.6667,377.3694 " fill="none" id="Preisposition-to-BDEWArtikelnummer" style="stroke:#181818;stroke-width:1.0;"/><polygon fill="#181818" points="589.54,375.63,583.0236,372.542,577.6667,377.3694,584.1832,380.4575,589.54,375.63" style="stroke:#181818;stroke-width:1.0;"/><text fill="#000000" font-family="sans-serif" font-size="13" lengthAdjust="spacing" textLength="128" x="397.5" y="382.0669">bdewArtikelnummer</text><text fill="#000000" font-family="sans-serif" font-size="13" lengthAdjust="spacing" textLength="24" x="558.0897" y="389.1874">0..1</text></g><!--link Preisposition to Bemessungsgroesse--><g id="link_Preisposition_Bemessungsgroesse"><path codeLine="33" d="M245.86,490.96 C284.61,523.48 337.18,562.71 390,587 C453.07,616 517.8854,631.0451 576.8954,640.6351 " fill="none" id="Preisposition-to-Bemessungsgroesse" style="stroke:#181818;stroke-width:1.0;"/><polygon fill="#181818" points="588.74,642.56,583.4593,637.6493,576.8954,640.6351,582.1761,645.5457,588.74,642.56" style="stroke:#181818;stroke-width:1.0;"/><text fill="#000000" font-family="sans-serif" font-size="13" lengthAdjust="spacing" textLength="105" x="409" y="583.0669">zonungsgroesse</text><text fill="#000000" font-family="sans-serif" font-size="13" lengthAdjust="spacing" textLength="24" x="556.8998" y="654.3425">0..1</text></g><!--SRC=[jLPBQzj043v7lsAmRm6lvTGjGRI1EF6XD6bwAEJW-h2IHj9YQIMqwvguxN_lhgptevXY7GJwXlbcvxqReYT1nf0oFv3WiXGToM9k64v8XO39PXD8cGXhFhVZ9HAVoM1l4nRFLo_BzInvaq7Cvpzlp9kbkI1BOivfmawgJXoHG4RXj4H9YamaiM3w1FAjZg21jjiV_ADWHxGMvbq_VG9KD4dmoxWA5PPxxWiRZyYSWAj_i43853Oc8OijV8AlCKVZobFK2BcFgv1nbwOsCgaq7z5X4Gq7jP-A0powat4wpF3JVP8WfwbaEmm_kxrU_34CJYCK2NNm4gc60cstMNuA2DErUN_xuK6dQAow2aaz3yDJMNC0TV2FekOQLKrpmIZUwk_XvHdKr- -I-Z9Fb8Agq4KAX7nVhv26zH9f35DtuRnxVtkH6fNdJIjue1YakdMHyK1rEtbj2Q0jwAQdrr0MHvixKX2sYuTyfXICC2Mhn_NhVLq27Sb071rRMI0TzaYHPEk45xLuhYDee07l6_pCymPh9A_B1IlV4l9K0r070oxNoPd7TSv83akQCk-eK_oz-8FoRy3FafCvMMgFrTAe5epGMV3JMFqXMRKbq94CjNHRxzJIRUb8aUnekDk7L5_68aB5TP5ywSgWHpOGJu_5BA8U2_eoRRqfPhFVT-KTg7T-Mq5fNCD4NycJQX7tkco1ZUffb3qeoXFFijOO4WlgCt2UWSwQjY2xD8j1Fyj8Sx_eQ8xxgXt-ouGU2PiA9WRfrvCg-urdGHv13lbvvrVpQq4veUTHktU4oe3Q_iqzVvwfpcogJCIyFbn6m5J7H1YfbX662E83j4nx34DN_0K0]--></g></svg>