<?xml version="1.0" encoding="us-ascii" standalone="no"?><svg xmlns="http://www.w3.org/2000/svg" xmlns:xlink="http://www.w3.org/1999/xlink" contentStyleType="text/css" height="242px" preserveAspectRatio="none" style="width:626px;height:242px;background:#FFFFFF;" version="1.1" viewBox="0 0 626 242" width="626px" zoomAndPan="magnify"><defs/><g><!--cluster bo4e--><g id="cluster_bo4e"><path d="M354.5,6 L395.5,6 A3.75,3.75 0 0 1 398,8.5 L405,28.2969 L616.5,28.2969 A2.5,2.5 0 0 1 619,30.7969 L619,232.5 A2.5,2.5 0 0 1 616.5,235 L354.5,235 A2.5,2.5 0 0 1 352,232.5 L352,8.5 A2.5,2.5 0 0 1 354.5,6 " fill="none" style="stroke:#000000;stroke-width:1.5;"/><line style="stroke:#000000;stroke-width:1.5;" x1="352" x2="405" y1="28.2969" y2="28.2969"/><text fill="#000000" font-family="sans-serif" font-size="14" font-weight="bold" lengthAdjust="spacing" textLength="40" x="356" y="20.9951">bo4e</text></g><!--cluster com--><g id="cluster_com"><path d="M378.5,49 L457.5,49 A3.75,3.75 0 0 1 460,51.5 L467,71.2969 L592.5,71.2969 A2.5,2.5 0 0 1 595,73.7969 L595,208.5 A2.5,2.5 0 0 1 592.5,211 L378.5,211 A2.5,2.5 0 0 1 376,208.5 L376,51.5 A2.5,2.5 0 0 1 378.5,49 " fill="#E0A86C" style="stroke:#000000;stroke-width:1.5;"/><line style="stroke:#000000;stroke-width:1.5;" x1="376" x2="467" y1="71.2969" y2="71.2969"/><a href="https://bo4e.github.io/BO4E-python/v202401.4.0/api/bo4e.com.html" target="_top" title="https://bo4e.github.io/BO4E-python/v202401.4.0/api/bo4e.com.html" xlink:actuate="onRequest" xlink:href="https://bo4e.github.io/BO4E-python/v202401.4.0/api/bo4e.com.html" xlink:show="new" xlink:title="https://bo4e.github.io/BO4E-python/v202401.4.0/api/bo4e.com.html" xlink:type="simple"><text fill="#0000FF" font-family="sans-serif" font-size="14" font-weight="bold" lengthAdjust="spacing" text-decoration="underline" textLength="78" x="380" y="63.9951">bo4e.com</text></a></g><!--class COM--><g id="elem_COM"><rect codeLine="10" fill="#F1F1F1" height="37.9375" id="COM" rx="2.5" ry="2.5" style="stroke:#181818;stroke-width:0.5;" width="104" x="433.5" y="84.03"/><ellipse cx="448.5" cy="102.9988" fill="#ADD1B2" rx="11" ry="11" style="stroke:#181818;stroke-width:1.0;"/><path d="M451.4688,108.6394 Q450.8906,108.9363 450.25,109.0769 Q449.6094,109.2331 448.9063,109.2331 Q446.4063,109.2331 445.0781,107.5925 Q443.7656,105.9363 443.7656,102.8113 Q443.7656,99.6863 445.0781,98.03 Q446.4063,96.3738 448.9063,96.3738 Q449.6094,96.3738 450.25,96.53 Q450.9063,96.6863 451.4688,96.9831 L451.4688,99.7019 Q450.8438,99.1238 450.25,98.8581 Q449.6563,98.5769 449.0313,98.5769 Q447.6875,98.5769 447,99.655 Q446.3125,100.7175 446.3125,102.8113 Q446.3125,104.905 447,105.9831 Q447.6875,107.0456 449.0313,107.0456 Q449.6563,107.0456 450.25,106.78 Q450.8438,106.4988 451.4688,105.9206 L451.4688,108.6394 Z " fill="#000000"/><a href="https://bo4e.github.io/BO4E-python/v202401.4.0/api/bo4e.com.html#bo4e.com.com.COM" target="_top" title="https://bo4e.github.io/BO4E-python/v202401.4.0/api/bo4e.com.html#bo4e.com.com.COM" xlink:actuate="onRequest" xlink:href="https://bo4e.github.io/BO4E-python/v202401.4.0/api/bo4e.com.html#bo4e.com.com.COM" xlink:show="new" xlink:title="https://bo4e.github.io/BO4E-python/v202401.4.0/api/bo4e.com.html#bo4e.com.com.COM" xlink:type="simple"><text fill="#0000FF" font-family="sans-serif" font-size="14" lengthAdjust="spacing" text-decoration="underline" textLength="33" x="482" y="102.0251">COM</text></a><text fill="#000000" font-family="sans-serif" font-size="10" lengthAdjust="spacing" textLength="72" x="462.5" y="114.6091">bo4e.com.com</text></g><!--class TarifpreisstaffelProOrt--><g id="elem_TarifpreisstaffelProOrt"><rect codeLine="11" fill="#F1F1F1" height="37.9375" id="TarifpreisstaffelProOrt" rx="2.5" ry="2.5" style="stroke:#181818;stroke-width:0.5;" width="187" x="392" y="157.03"/><ellipse cx="407" cy="175.9988" fill="#ADD1B2" rx="11" ry="11" style="stroke:#181818;stroke-width:1.0;"/><path d="M409.9688,181.6394 Q409.3906,181.9363 408.75,182.0769 Q408.1094,182.2331 407.4063,182.2331 Q404.9063,182.2331 403.5781,180.5925 Q402.2656,178.9363 402.2656,175.8113 Q402.2656,172.6863 403.5781,171.03 Q404.9063,169.3738 407.4063,169.3738 Q408.1094,169.3738 408.75,169.53 Q409.4063,169.6863 409.9688,169.9831 L409.9688,172.7019 Q409.3438,172.1238 408.75,171.8581 Q408.1563,171.5769 407.5313,171.5769 Q406.1875,171.5769 405.5,172.655 Q404.8125,173.7175 404.8125,175.8113 Q404.8125,177.905 405.5,178.9831 Q406.1875,180.0456 407.5313,180.0456 Q408.1563,180.0456 408.75,179.78 Q409.3438,179.4988 409.9688,178.9206 L409.9688,181.6394 Z " fill="#000000"/><a href="https://bo4e.github.io/BO4E-python/v202401.4.0/api/bo4e.com.html#bo4e.com.tarifpreisstaffelproort.TarifpreisstaffelProOrt" target="_top" title="https://bo4e.github.io/BO4E-python/v202401.4.0/api/bo4e.com.html#bo4e.com.tarifpreisstaffelproort.TarifpreisstaffelProOrt" xlink:actuate="onRequest" xlink:href="https://bo4e.github.io/BO4E-python/v202401.4.0/api/bo4e.com.html#bo4e.com.tarifpreisstaffelproort.TarifpreisstaffelProOrt" xlink:show="new" xlink:title="https://bo4e.github.io/BO4E-python/v202401.4.0/api/bo4e.com.html#bo4e.com.tarifpreisstaffelproort.TarifpreisstaffelProOrt" xlink:type="simple"><text fill="#0000FF" font-family="sans-serif" font-size="14" lengthAdjust="spacing" text-decoration="underline" textLength="148" x="424.5" y="175.0251">TarifpreisstaffelProOrt</text></a><text fill="#000000" font-family="sans-serif" font-size="10" lengthAdjust="spacing" textLength="155" x="421" y="187.6091">bo4e.com.tarifpreisstaffelproort</text></g><!--class TarifpreispositionProOrt--><g id="elem_TarifpreispositionProOrt"><rect codeLine="3" fill="#F1F1F1" height="94.8281" id="TarifpreispositionProOrt" rx="2.5" ry="2.5" style="stroke:#181818;stroke-width:0.5;" width="219" x="7" y="92.59"/><ellipse cx="33.25" cy="111.5588" fill="#ADD1B2" rx="11" ry="11" style="stroke:#181818;stroke-width:1.0;"/><path d="M36.2188,117.1994 Q35.6406,117.4963 35,117.6369 Q34.3594,117.7931 33.6563,117.7931 Q31.1563,117.7931 29.8281,116.1525 Q28.5156,114.4963 28.5156,111.3713 Q28.5156,108.2463 29.8281,106.59 Q31.1563,104.9338 33.6563,104.9338 Q34.3594,104.9338 35,105.09 Q35.6563,105.2463 36.2188,105.5431 L36.2188,108.2619 Q35.5938,107.6838 35,107.4181 Q34.4063,107.1369 33.7813,107.1369 Q32.4375,107.1369 31.75,108.215 Q31.0625,109.2775 31.0625,111.3713 Q31.0625,113.465 31.75,114.5431 Q32.4375,115.6056 33.7813,115.6056 Q34.4063,115.6056 35,115.34 Q35.5938,115.0588 36.2188,114.4806 L36.2188,117.1994 Z " fill="#000000"/><a href="https://bo4e.github.io/BO4E-python/v202401.4.0/api/bo4e.com.html#bo4e.com.tarifpreispositionproort.TarifpreispositionProOrt" target="_top" title="https://bo4e.github.io/BO4E-python/v202401.4.0/api/bo4e.com.html#bo4e.com.tarifpreispositionproort.TarifpreispositionProOrt" xlink:actuate="onRequest" xlink:href="https://bo4e.github.io/BO4E-python/v202401.4.0/api/bo4e.com.html#bo4e.com.tarifpreispositionproort.TarifpreispositionProOrt" xlink:show="new" xlink:title="https://bo4e.github.io/BO4E-python/v202401.4.0/api/bo4e.com.html#bo4e.com.tarifpreispositionproort.TarifpreispositionProOrt" xlink:type="simple"><text fill="#0000FF" font-family="sans-serif" font-size="14" lengthAdjust="spacing" text-decoration="underline" textLength="162" x="49.75" y="110.5851">TarifpreispositionProOrt</text></a><text fill="#000000" font-family="sans-serif" font-size="10" lengthAdjust="spacing" textLength="161" x="50.25" y="123.1691">bo4e.com.tarifpreispositionproort</text><line style="stroke:#181818;stroke-width:0.5;" x1="8" x2="225" y1="130.5275" y2="130.5275"/><text fill="#000000" font-family="sans-serif" font-size="14" lengthAdjust="spacing" textLength="207" x="13" y="147.5226">postleitzahl : str [0..1] = None</text><text fill="#000000" font-family="sans-serif" font-size="14" lengthAdjust="spacing" textLength="147" x="13" y="163.8195">ort : str [0..1] = None</text><text fill="#000000" font-family="sans-serif" font-size="14" lengthAdjust="spacing" textLength="173" x="13" y="180.1164">netznr : str [0..1] = None</text></g><!--link TarifpreispositionProOrt to COM--><g id="link_TarifpreispositionProOrt_COM"><path codeLine="14" d="M226.12,129.05 C294.61,122.14 361.971,115.358 415.361,109.968 " fill="none" id="TarifpreispositionProOrt-to-COM" style="stroke:#181818;stroke-width:1.0;"/><polygon fill="none" points="433.27,108.16,414.7584,103.9983,415.9637,115.9377,433.27,108.16" style="stroke:#181818;stroke-width:1.0;"/></g><!--link TarifpreispositionProOrt to TarifpreisstaffelProOrt--><g id="link_TarifpreispositionProOrt_TarifpreisstaffelProOrt"><path codeLine="15" d="M226.35,151.96 C236.37,153.01 246.37,154.04 256,155 C300.59,159.46 338.1686,162.9806 379.6886,166.7306 " fill="none" id="TarifpreispositionProOrt-to-TarifpreisstaffelProOrt" style="stroke:#181818;stroke-width:1.0;"/><polygon fill="#181818" points="391.64,167.81,386.0241,163.2865,379.6886,166.7306,385.3045,171.2541,391.64,167.81" style="stroke:#181818;stroke-width:1.0;"/><text fill="#000000" font-family="sans-serif" font-size="13" lengthAdjust="spacing" textLength="78" x="257" y="151.0669">preisstaffeln</text><text fill="#000000" font-family="sans-serif" font-size="13" lengthAdjust="spacing" textLength="23" x="360.9026" y="179.8312">0..*</text></g><!--SRC=[jLDDJm8n43tJNp5PRYHq5x8nPgCaIZWg7hpX7ieoIvjqsqqxQaJzxtPHGOILYnpcCFEcRxvUDPO4PC6ffIHOA8S5AMiOAxJm7gBPJ1BLFelZkKsHBnN9npbNDhwUffD-_KBIclXfc0pJPC1JdiIYLf-fXQsuf4ftDnu9fyhQeVArzQefKpjh7V7xFU3EsQaZQ0Fo_C5SUBN2R92CZl9787mh5RooJeYGHaKh8JLauCd1BE5yaCCbt5g3h1DO3WC6QMNSGUoTCICgzBKey3yM2TzUdgyd-dQXEqckpi_6pIGdk5fZu-aD13kyzc3hVaB2IHhOdjMJA4lKUwhvYk-9PYT-J3CxvByaiqFK7BPTilt-ssXpccPnV-I6v1v4GJIzQFkaRQmCVWR33vLgWL1XDKVdcPVs6TehbGhrmdy0]--></g></svg>