<svg xmlns="http://www.w3.org/2000/svg" xmlns:xlink="http://www.w3.org/1999/xlink" contentStyleType="text/css" data-diagram-type="CLASS" height="355px" preserveAspectRatio="none" style="width:990px;height:355px;background:#FFFFFF;" version="1.1" viewBox="0 0 990 355" width="990px" zoomAndPan="magnify"><defs/><g><!--cluster bo4e--><g class="cluster" data-entity="bo4e" data-source-line="10" data-uid="ent0005" id="cluster_bo4e"><path d="M745.06,6 L784.936,6 A3.75,3.75 0 0 1 787.436,8.5 L794.436,28.2969 L981.45,28.2969 A2.5,2.5 0 0 1 983.95,30.7969 L983.95,345.5 A2.5,2.5 0 0 1 981.45,348 L745.06,348 A2.5,2.5 0 0 1 742.56,345.5 L742.56,8.5 A2.5,2.5 0 0 1 745.06,6" fill="none" style="stroke:#000000;stroke-width:1.5;"/><line style="stroke:#000000;stroke-width:1.5;" x1="742.56" x2="794.436" y1="28.2969" y2="28.2969"/><text fill="#000000" font-family="sans-serif" font-size="14" font-weight="bold" lengthAdjust="spacing" textLength="38.876" x="746.56" y="20.9951">bo4e</text></g><!--cluster bo--><g class="cluster" data-entity="bo" data-source-line="9" data-uid="ent0003" id="cluster_bo"><path d="M769.06,49 L833.894,49 A3.75,3.75 0 0 1 836.394,51.5 L843.394,71.2969 L957.45,71.2969 A2.5,2.5 0 0 1 959.95,73.7969 L959.95,135.5 A2.5,2.5 0 0 1 957.45,138 L769.06,138 A2.5,2.5 0 0 1 766.56,135.5 L766.56,51.5 A2.5,2.5 0 0 1 769.06,49" fill="#B6D7A8" style="stroke:#000000;stroke-width:1.5;"/><line style="stroke:#000000;stroke-width:1.5;" x1="766.56" x2="843.394" y1="71.2969" y2="71.2969"/><a href="https://bo4e.github.io/BO4E-python/v202501.1.0-rc2/api/bo4e.bo.html" target="_top" title="https://bo4e.github.io/BO4E-python/v202501.1.0-rc2/api/bo4e.bo.html" xlink:actuate="onRequest" xlink:href="https://bo4e.github.io/BO4E-python/v202501.1.0-rc2/api/bo4e.bo.html" xlink:show="new" xlink:title="https://bo4e.github.io/BO4E-python/v202501.1.0-rc2/api/bo4e.bo.html" xlink:type="simple"><text fill="#0000FF" font-family="sans-serif" font-size="14" font-weight="bold" lengthAdjust="spacing" text-decoration="underline" textLength="63.834" x="770.56" y="63.9951">bo4e.bo</text></a></g><!--cluster com--><g class="cluster" data-entity="com" data-source-line="12" data-uid="ent0006" id="cluster_com"><path d="M785.2,162 L862.8992,162 A3.75,3.75 0 0 1 865.3992,164.5 L872.3992,184.2969 L941.32,184.2969 A2.5,2.5 0 0 1 943.82,186.7969 L943.82,321.5 A2.5,2.5 0 0 1 941.32,324 L785.2,324 A2.5,2.5 0 0 1 782.7,321.5 L782.7,164.5 A2.5,2.5 0 0 1 785.2,162" fill="#E0A86C" style="stroke:#000000;stroke-width:1.5;"/><line style="stroke:#000000;stroke-width:1.5;" x1="782.7" x2="872.3992" y1="184.2969" y2="184.2969"/><a href="https://bo4e.github.io/BO4E-python/v202501.1.0-rc2/api/bo4e.com.html" target="_top" title="https://bo4e.github.io/BO4E-python/v202501.1.0-rc2/api/bo4e.com.html" xlink:actuate="onRequest" xlink:href="https://bo4e.github.io/BO4E-python/v202501.1.0-rc2/api/bo4e.com.html" xlink:show="new" xlink:title="https://bo4e.github.io/BO4E-python/v202501.1.0-rc2/api/bo4e.com.html" xlink:type="simple"><text fill="#0000FF" font-family="sans-serif" font-size="14" font-weight="bold" lengthAdjust="spacing" text-decoration="underline" textLength="76.6992" x="786.7" y="176.9951">bo4e.com</text></a></g><!--class Geschaeftsobjekt--><g class="entity" data-entity="Geschaeftsobjekt" data-source-line="10" data-uid="ent0004" id="entity_Geschaeftsobjekt"><rect fill="#F1F1F1" height="37.9375" rx="2.5" ry="2.5" style="stroke:#181818;stroke-width:0.5;" width="161.3896" x="782.56" y="84.03"/><ellipse cx="797.56" cy="102.9987" fill="#ADD1B2" rx="11" ry="11" style="stroke:#181818;stroke-width:1;"/><path d="M800.5288,108.6394 Q799.9506,108.9362 799.31,109.0769 Q798.6694,109.2331 797.9663,109.2331 Q795.4663,109.2331 794.1381,107.5925 Q792.8256,105.9362 792.8256,102.8112 Q792.8256,99.6862 794.1381,98.03 Q795.4663,96.3737 797.9663,96.3737 Q798.6694,96.3737 799.31,96.53 Q799.9663,96.6862 800.5288,96.9831 L800.5288,99.7019 Q799.9038,99.1237 799.31,98.8581 Q798.7163,98.5769 798.0913,98.5769 Q796.7475,98.5769 796.06,99.655 Q795.3725,100.7175 795.3725,102.8112 Q795.3725,104.905 796.06,105.9831 Q796.7475,107.0456 798.0913,107.0456 Q798.7163,107.0456 799.31,106.78 Q799.9038,106.4987 800.5288,105.9206 L800.5288,108.6394 Z " fill="#000000"/><a href="https://bo4e.github.io/BO4E-python/v202501.1.0-rc2/api/bo4e.bo.html#bo4e.bo.geschaeftsobjekt.Geschaeftsobjekt" target="_top" title="https://bo4e.github.io/BO4E-python/v202501.1.0-rc2/api/bo4e.bo.html#bo4e.bo.geschaeftsobjekt.Geschaeftsobjekt" xlink:actuate="onRequest" xlink:href="https://bo4e.github.io/BO4E-python/v202501.1.0-rc2/api/bo4e.bo.html#bo4e.bo.geschaeftsobjekt.Geschaeftsobjekt" xlink:show="new" xlink:title="https://bo4e.github.io/BO4E-python/v202501.1.0-rc2/api/bo4e.bo.html#bo4e.bo.geschaeftsobjekt.Geschaeftsobjekt" xlink:type="simple"><text fill="#0000FF" font-family="sans-serif" font-size="14" lengthAdjust="spacing" text-decoration="underline" textLength="121.7822" x="815.3637" y="102.0251">Geschaeftsobjekt</text></a><text fill="#000000" font-family="sans-serif" font-size="10" lengthAdjust="spacing" textLength="129.3896" x="811.56" y="114.6091">bo4e.bo.geschaeftsobjekt</text></g><!--class Menge--><g class="entity" data-entity="Menge" data-source-line="13" data-uid="ent0007" id="entity_Menge"><rect fill="#F1F1F1" height="37.9375" rx="2.5" ry="2.5" style="stroke:#181818;stroke-width:0.5;" width="119.4268" x="803.54" y="197.03"/><ellipse cx="818.54" cy="215.9988" fill="#ADD1B2" rx="11" ry="11" style="stroke:#181818;stroke-width:1;"/><path d="M821.5088,221.6394 Q820.9306,221.9363 820.29,222.0769 Q819.6494,222.2331 818.9463,222.2331 Q816.4463,222.2331 815.1181,220.5925 Q813.8056,218.9363 813.8056,215.8113 Q813.8056,212.6863 815.1181,211.03 Q816.4463,209.3738 818.9463,209.3738 Q819.6494,209.3738 820.29,209.53 Q820.9463,209.6863 821.5088,209.9831 L821.5088,212.7019 Q820.8838,212.1238 820.29,211.8581 Q819.6963,211.5769 819.0713,211.5769 Q817.7275,211.5769 817.04,212.655 Q816.3525,213.7175 816.3525,215.8113 Q816.3525,217.905 817.04,218.9831 Q817.7275,220.0456 819.0713,220.0456 Q819.6963,220.0456 820.29,219.78 Q820.8838,219.4988 821.5088,218.9206 L821.5088,221.6394 Z " fill="#000000"/><a href="https://bo4e.github.io/BO4E-python/v202501.1.0-rc2/api/bo4e.com.html#bo4e.com.menge.Menge" target="_top" title="https://bo4e.github.io/BO4E-python/v202501.1.0-rc2/api/bo4e.com.html#bo4e.com.menge.Menge" xlink:actuate="onRequest" xlink:href="https://bo4e.github.io/BO4E-python/v202501.1.0-rc2/api/bo4e.com.html#bo4e.com.menge.Menge" xlink:show="new" xlink:title="https://bo4e.github.io/BO4E-python/v202501.1.0-rc2/api/bo4e.com.html#bo4e.com.menge.Menge" xlink:type="simple"><text fill="#0000FF" font-family="sans-serif" font-size="14" lengthAdjust="spacing" text-decoration="underline" textLength="47.0654" x="852.7207" y="215.0251">Menge</text></a><text fill="#000000" font-family="sans-serif" font-size="10" lengthAdjust="spacing" textLength="87.4268" x="832.54" y="227.6091">bo4e.com.menge</text></g><!--class Zeitraum--><g class="entity" data-entity="Zeitraum" data-source-line="14" data-uid="ent0008" id="entity_Zeitraum"><rect fill="#F1F1F1" height="37.9375" rx="2.5" ry="2.5" style="stroke:#181818;stroke-width:0.5;" width="129.1143" x="798.7" y="270.03"/><ellipse cx="813.7" cy="288.9988" fill="#ADD1B2" rx="11" ry="11" style="stroke:#181818;stroke-width:1;"/><path d="M816.6688,294.6394 Q816.0906,294.9363 815.45,295.0769 Q814.8094,295.2331 814.1063,295.2331 Q811.6063,295.2331 810.2781,293.5925 Q808.9656,291.9363 808.9656,288.8113 Q808.9656,285.6863 810.2781,284.03 Q811.6063,282.3738 814.1063,282.3738 Q814.8094,282.3738 815.45,282.53 Q816.1063,282.6863 816.6688,282.9831 L816.6688,285.7019 Q816.0438,285.1238 815.45,284.8581 Q814.8563,284.5769 814.2313,284.5769 Q812.8875,284.5769 812.2,285.655 Q811.5125,286.7175 811.5125,288.8113 Q811.5125,290.905 812.2,291.9831 Q812.8875,293.0456 814.2313,293.0456 Q814.8563,293.0456 815.45,292.78 Q816.0438,292.4988 816.6688,291.9206 L816.6688,294.6394 Z " fill="#000000"/><a href="https://bo4e.github.io/BO4E-python/v202501.1.0-rc2/api/bo4e.com.html#bo4e.com.zeitraum.Zeitraum" target="_top" title="https://bo4e.github.io/BO4E-python/v202501.1.0-rc2/api/bo4e.com.html#bo4e.com.zeitraum.Zeitraum" xlink:actuate="onRequest" xlink:href="https://bo4e.github.io/BO4E-python/v202501.1.0-rc2/api/bo4e.com.html#bo4e.com.zeitraum.Zeitraum" xlink:show="new" xlink:title="https://bo4e.github.io/BO4E-python/v202501.1.0-rc2/api/bo4e.com.html#bo4e.com.zeitraum.Zeitraum" xlink:type="simple"><text fill="#0000FF" font-family="sans-serif" font-size="14" lengthAdjust="spacing" text-decoration="underline" textLength="64.4287" x="844.0428" y="288.0251">Zeitraum</text></a><text fill="#000000" font-family="sans-serif" font-size="10" lengthAdjust="spacing" textLength="97.1143" x="827.7" y="300.6091">bo4e.com.zeitraum</text></g><!--class Energiemenge--><g class="entity" data-entity="Energiemenge" data-source-line="3" data-uid="ent0002" id="entity_Energiemenge"><rect fill="#F1F1F1" height="94.8281" rx="2.5" ry="2.5" style="stroke:#181818;stroke-width:0.5;" width="630.5635" x="7" y="168.59"/><ellipse cx="259.748" cy="187.5588" fill="#ADD1B2" rx="11" ry="11" style="stroke:#181818;stroke-width:1;"/><path d="M262.7168,193.1994 Q262.1387,193.4963 261.498,193.6369 Q260.8574,193.7931 260.1543,193.7931 Q257.6543,193.7931 256.3262,192.1525 Q255.0137,190.4963 255.0137,187.3713 Q255.0137,184.2463 256.3262,182.59 Q257.6543,180.9338 260.1543,180.9338 Q260.8574,180.9338 261.498,181.09 Q262.1543,181.2463 262.7168,181.5431 L262.7168,184.2619 Q262.0918,183.6838 261.498,183.4181 Q260.9043,183.1369 260.2793,183.1369 Q258.9355,183.1369 258.248,184.215 Q257.5605,185.2775 257.5605,187.3713 Q257.5605,189.465 258.248,190.5431 Q258.9355,191.6056 260.2793,191.6056 Q260.9043,191.6056 261.498,191.34 Q262.0918,191.0588 262.7168,190.4806 L262.7168,193.1994 Z " fill="#000000"/><a href="https://bo4e.github.io/BO4E-python/v202501.1.0-rc2/api/bo4e.bo.html#bo4e.bo.energiemenge.Energiemenge" target="_top" title="https://bo4e.github.io/BO4E-python/v202501.1.0-rc2/api/bo4e.bo.html#bo4e.bo.energiemenge.Energiemenge" xlink:actuate="onRequest" xlink:href="https://bo4e.github.io/BO4E-python/v202501.1.0-rc2/api/bo4e.bo.html#bo4e.bo.energiemenge.Energiemenge" xlink:show="new" xlink:title="https://bo4e.github.io/BO4E-python/v202501.1.0-rc2/api/bo4e.bo.html#bo4e.bo.energiemenge.Energiemenge" xlink:type="simple"><text fill="#0000FF" font-family="sans-serif" font-size="14" lengthAdjust="spacing" text-decoration="underline" textLength="102.1016" x="287.481" y="186.5851">Energiemenge</text></a><text fill="#000000" font-family="sans-serif" font-size="10" lengthAdjust="spacing" textLength="116.5674" x="280.248" y="199.1691">bo4e.bo.energiemenge</text><line style="stroke:#181818;stroke-width:0.5;" x1="8" x2="636.5635" y1="206.5275" y2="206.5275"/><text fill="#000000" font-family="sans-serif" font-size="14" lengthAdjust="spacing" textLength="618.5635" x="13" y="223.5226">_typ : Literal[&lt;BoTyp.ENERGIEMENGE: 'ENERGIEMENGE'&gt;] [1] = BoTyp.ENERGIEMENGE</text><text fill="#000000" font-family="sans-serif" font-size="14" lengthAdjust="spacing" textLength="224.2666" x="13" y="239.8195">obisKennzahl : str [0..1] = None</text><text fill="#000000" font-family="sans-serif" font-size="14" lengthAdjust="spacing" textLength="226.543" x="13" y="256.1164">beschreibung : str [0..1] = None</text></g><!--link Energiemenge to Geschaeftsobjekt--><g class="link" data-entity-1="Energiemenge" data-entity-2="Geschaeftsobjekt" data-source-line="17" data-uid="lnk9" id="link_Energiemenge_Geschaeftsobjekt"><path codeLine="17" d="M551.47,168.16 C633.72,150.91 703.6232,136.2645 764.7532,123.4445" fill="none" id="Energiemenge-to-Geschaeftsobjekt" style="stroke:#181818;stroke-width:1;"/><polygon fill="none" points="782.37,119.75,763.5217,117.5723,765.9847,129.3168,782.37,119.75" style="stroke:#181818;stroke-width:1;"/></g><!--link Energiemenge to Zeitraum--><g class="link" data-entity-1="Energiemenge" data-entity-2="Zeitraum" data-source-line="18" data-uid="lnk10" id="link_Energiemenge_Zeitraum"><path codeLine="18" d="M637.98,258.62 C698.87,266.87 744.7086,273.079 786.3386,278.719" fill="none" id="Energiemenge-to-Zeitraum" style="stroke:#181818;stroke-width:1;"/><polygon fill="#181818" points="798.23,280.33,792.8213,275.5607,786.3386,278.719,791.7473,283.4883,798.23,280.33" style="stroke:#181818;stroke-width:1;"/><text fill="#000000" font-family="sans-serif" font-size="13" lengthAdjust="spacing" textLength="57.7446" x="668.56" y="260.0669">zeitraum</text><text fill="#000000" font-family="sans-serif" font-size="13" lengthAdjust="spacing" textLength="24.8066" x="765.8493" y="292.2763">0..1</text></g><!--link Energiemenge to Menge--><g class="link" data-entity-1="Energiemenge" data-entity-2="Menge" data-source-line="19" data-uid="lnk11" id="link_Energiemenge_Menge"><path codeLine="19" d="M637.98,216 C701.41,216 749.4,216 791.35,216" fill="none" id="Energiemenge-to-Menge" style="stroke:#181818;stroke-width:1;"/><polygon fill="#181818" points="803.35,216,797.35,212,791.35,216,797.35,220,803.35,216" style="stroke:#181818;stroke-width:1;"/><text fill="#000000" font-family="sans-serif" font-size="13" lengthAdjust="spacing" textLength="45.1509" x="674.56" y="212.0669">menge</text><text fill="#000000" font-family="sans-serif" font-size="13" lengthAdjust="spacing" textLength="24.8066" x="770.6359" y="228.9892">0..1</text></g><!--SRC=[jLFHRjem57t6Nt453vKcuGJKKHHrI6MBqDH2fMfFowB92PVOMs97jca5tVwz8H0MqZpi0TxkiSwzFZxtECML1Qj0YuHRM0gDiHLA4XAdp1Ze1W6tDZUUuqJg6caYB5z7L2Xd-dZjz_EDvKewpqDt-D4Tq05r-peUEYmNUtgaABTPsgi0IjI9m0nbWjIl0QY3CFmXRutOeZTm9ssjNM3cf0DUIUUdtUJWmOEmg5aQt4xLjqrE_ON_DFlgp_t5pFVWgWwl9Y44Wn0-mNigwQX8c7kKSijuMemrLaFWKbho5qeYwKHeOgvHH6kPj3B-4Y9PXYPdCPx9IJY0C2mzE23eJKTVRkx6EnikihTazrHMHCMew1V-jdJME83cGUiEcsFADpGx2zlEvbgiiffj1QhxLa3e-UxTUFJvRCPL5_QEQ9_rUPdIUNkwZxHIMqcwc9mj2glPEgFV3mLKHRkkYbzAgwYxP9z-ttx_pwHAuxjmDBW5-GDqTp-bUrp4FpaUL5V-JzlULmzA2Y5SBB6eimYr8OQh5pYTiHAOBiqR]--></g></svg>