<svg xmlns="http://www.w3.org/2000/svg" xmlns:xlink="http://www.w3.org/1999/xlink" contentStyleType="text/css" data-diagram-type="CLASS" height="574px" preserveAspectRatio="none" style="width:854px;height:574px;background:#FFFFFF;" version="1.1" viewBox="0 0 854 574" width="854px" zoomAndPan="magnify"><defs/><g><!--cluster bo4e--><g class="cluster" data-entity="bo4e" data-source-line="11" data-uid="ent0005" id="cluster_bo4e"><path d="M541.08,6 L580.956,6 A3.75,3.75 0 0 1 583.456,8.5 L590.456,28.2969 L844.93,28.2969 A2.5,2.5 0 0 1 847.43,30.7969 L847.43,564.5 A2.5,2.5 0 0 1 844.93,567 L541.08,567 A2.5,2.5 0 0 1 538.58,564.5 L538.58,8.5 A2.5,2.5 0 0 1 541.08,6" fill="none" style="stroke:#000000;stroke-width:1.5;"/><line style="stroke:#000000;stroke-width:1.5;" x1="538.58" x2="590.456" y1="28.2969" y2="28.2969"/><text fill="#000000" font-family="sans-serif" font-size="14" font-weight="bold" lengthAdjust="spacing" textLength="38.876" x="542.58" y="20.9951">bo4e</text></g><!--cluster bo--><g class="cluster" data-entity="bo" data-source-line="10" data-uid="ent0003" id="cluster_bo"><path d="M621.99,49 L686.824,49 A3.75,3.75 0 0 1 689.324,51.5 L696.324,71.2969 L764.01,71.2969 A2.5,2.5 0 0 1 766.51,73.7969 L766.51,135.5 A2.5,2.5 0 0 1 764.01,138 L621.99,138 A2.5,2.5 0 0 1 619.49,135.5 L619.49,51.5 A2.5,2.5 0 0 1 621.99,49" fill="#B6D7A8" style="stroke:#000000;stroke-width:1.5;"/><line style="stroke:#000000;stroke-width:1.5;" x1="619.49" x2="696.324" y1="71.2969" y2="71.2969"/><a href="https://bo4e.github.io/BO4E-python/v202501.1.0-rc2/api/bo4e.bo.html" target="_top" title="https://bo4e.github.io/BO4E-python/v202501.1.0-rc2/api/bo4e.bo.html" xlink:actuate="onRequest" xlink:href="https://bo4e.github.io/BO4E-python/v202501.1.0-rc2/api/bo4e.bo.html" xlink:show="new" xlink:title="https://bo4e.github.io/BO4E-python/v202501.1.0-rc2/api/bo4e.bo.html" xlink:type="simple"><text fill="#0000FF" font-family="sans-serif" font-size="14" font-weight="bold" lengthAdjust="spacing" text-decoration="underline" textLength="63.834" x="623.49" y="63.9951">bo4e.bo</text></a></g><!--cluster com--><g class="cluster" data-entity="com" data-source-line="13" data-uid="ent0006" id="cluster_com"><path d="M565.08,162 L642.7792,162 A3.75,3.75 0 0 1 645.2792,164.5 L652.2792,184.2969 L820.93,184.2969 A2.5,2.5 0 0 1 823.43,186.7969 L823.43,540.5 A2.5,2.5 0 0 1 820.93,543 L565.08,543 A2.5,2.5 0 0 1 562.58,540.5 L562.58,164.5 A2.5,2.5 0 0 1 565.08,162" fill="#E0A86C" style="stroke:#000000;stroke-width:1.5;"/><line style="stroke:#000000;stroke-width:1.5;" x1="562.58" x2="652.2792" y1="184.2969" y2="184.2969"/><a href="https://bo4e.github.io/BO4E-python/v202501.1.0-rc2/api/bo4e.com.html" target="_top" title="https://bo4e.github.io/BO4E-python/v202501.1.0-rc2/api/bo4e.com.html" xlink:actuate="onRequest" xlink:href="https://bo4e.github.io/BO4E-python/v202501.1.0-rc2/api/bo4e.com.html" xlink:show="new" xlink:title="https://bo4e.github.io/BO4E-python/v202501.1.0-rc2/api/bo4e.com.html" xlink:type="simple"><text fill="#0000FF" font-family="sans-serif" font-size="14" font-weight="bold" lengthAdjust="spacing" text-decoration="underline" textLength="76.6992" x="566.58" y="176.9951">bo4e.com</text></a></g><!--class Tarifinfo--><g class="entity" data-entity="Tarifinfo" data-source-line="11" data-uid="ent0004" id="entity_Tarifinfo"><rect fill="#F1F1F1" height="37.9375" rx="2.5" ry="2.5" style="stroke:#181818;stroke-width:0.5;" width="115.0176" x="635.49" y="84.03"/><ellipse cx="650.49" cy="102.9987" fill="#ADD1B2" rx="11" ry="11" style="stroke:#181818;stroke-width:1;"/><path d="M653.4588,108.6394 Q652.8806,108.9362 652.24,109.0769 Q651.5994,109.2331 650.8963,109.2331 Q648.3963,109.2331 647.0681,107.5925 Q645.7556,105.9362 645.7556,102.8112 Q645.7556,99.6862 647.0681,98.03 Q648.3963,96.3737 650.8963,96.3737 Q651.5994,96.3737 652.24,96.53 Q652.8963,96.6862 653.4588,96.9831 L653.4588,99.7019 Q652.8338,99.1237 652.24,98.8581 Q651.6463,98.5769 651.0213,98.5769 Q649.6775,98.5769 648.99,99.655 Q648.3025,100.7175 648.3025,102.8112 Q648.3025,104.905 648.99,105.9831 Q649.6775,107.0456 651.0213,107.0456 Q651.6463,107.0456 652.24,106.78 Q652.8338,106.4987 653.4588,105.9206 L653.4588,108.6394 Z " fill="#000000"/><a href="https://bo4e.github.io/BO4E-python/v202501.1.0-rc2/api/bo4e.bo.html#bo4e.bo.tarifinfo.Tarifinfo" target="_top" title="https://bo4e.github.io/BO4E-python/v202501.1.0-rc2/api/bo4e.bo.html#bo4e.bo.tarifinfo.Tarifinfo" xlink:actuate="onRequest" xlink:href="https://bo4e.github.io/BO4E-python/v202501.1.0-rc2/api/bo4e.bo.html#bo4e.bo.tarifinfo.Tarifinfo" xlink:show="new" xlink:title="https://bo4e.github.io/BO4E-python/v202501.1.0-rc2/api/bo4e.bo.html#bo4e.bo.tarifinfo.Tarifinfo" xlink:type="simple"><text fill="#0000FF" font-family="sans-serif" font-size="14" lengthAdjust="spacing" text-decoration="underline" textLength="57.9619" x="677.0178" y="102.0251">Tarifinfo</text></a><text fill="#000000" font-family="sans-serif" font-size="10" lengthAdjust="spacing" textLength="83.0176" x="664.49" y="114.6091">bo4e.bo.tarifinfo</text></g><!--class Tarifberechnungsparameter--><g class="entity" data-entity="Tarifberechnungsparameter" data-source-line="14" data-uid="ent0007" id="entity_Tarifberechnungsparameter"><rect fill="#F1F1F1" height="37.9375" rx="2.5" ry="2.5" style="stroke:#181818;stroke-width:0.5;" width="228.8545" x="578.58" y="197.03"/><ellipse cx="593.58" cy="215.9987" fill="#ADD1B2" rx="11" ry="11" style="stroke:#181818;stroke-width:1;"/><path d="M596.5488,221.6394 Q595.9706,221.9362 595.33,222.0769 Q594.6894,222.2331 593.9863,222.2331 Q591.4863,222.2331 590.1581,220.5925 Q588.8456,218.9362 588.8456,215.8112 Q588.8456,212.6862 590.1581,211.03 Q591.4863,209.3737 593.9863,209.3737 Q594.6894,209.3737 595.33,209.53 Q595.9863,209.6862 596.5488,209.9831 L596.5488,212.7019 Q595.9238,212.1237 595.33,211.8581 Q594.7363,211.5769 594.1113,211.5769 Q592.7675,211.5769 592.08,212.655 Q591.3925,213.7175 591.3925,215.8112 Q591.3925,217.905 592.08,218.9831 Q592.7675,220.0456 594.1113,220.0456 Q594.7363,220.0456 595.33,219.78 Q595.9238,219.4987 596.5488,218.9206 L596.5488,221.6394 Z " fill="#000000"/><a href="https://bo4e.github.io/BO4E-python/v202501.1.0-rc2/api/bo4e.com.html#bo4e.com.tarifberechnungsparameter.Tarifberechnungsparameter" target="_top" title="https://bo4e.github.io/BO4E-python/v202501.1.0-rc2/api/bo4e.com.html#bo4e.com.tarifberechnungsparameter.Tarifberechnungsparameter" xlink:actuate="onRequest" xlink:href="https://bo4e.github.io/BO4E-python/v202501.1.0-rc2/api/bo4e.com.html#bo4e.com.tarifberechnungsparameter.Tarifberechnungsparameter" xlink:show="new" xlink:title="https://bo4e.github.io/BO4E-python/v202501.1.0-rc2/api/bo4e.com.html#bo4e.com.tarifberechnungsparameter.Tarifberechnungsparameter" xlink:type="simple"><text fill="#0000FF" font-family="sans-serif" font-size="14" lengthAdjust="spacing" text-decoration="underline" textLength="196.8545" x="607.58" y="215.0251">Tarifberechnungsparameter</text></a><text fill="#000000" font-family="sans-serif" font-size="10" lengthAdjust="spacing" textLength="191.1182" x="610.4482" y="227.6091">bo4e.com.tarifberechnungsparameter</text></g><!--class Tarifeinschraenkung--><g class="entity" data-entity="Tarifeinschraenkung" data-source-line="15" data-uid="ent0008" id="entity_Tarifeinschraenkung"><rect fill="#F1F1F1" height="37.9375" rx="2.5" ry="2.5" style="stroke:#181818;stroke-width:0.5;" width="185.0127" x="600.5" y="270.03"/><ellipse cx="615.5" cy="288.9988" fill="#ADD1B2" rx="11" ry="11" style="stroke:#181818;stroke-width:1;"/><path d="M618.4688,294.6394 Q617.8906,294.9363 617.25,295.0769 Q616.6094,295.2331 615.9063,295.2331 Q613.4063,295.2331 612.0781,293.5925 Q610.7656,291.9363 610.7656,288.8113 Q610.7656,285.6863 612.0781,284.03 Q613.4063,282.3738 615.9063,282.3738 Q616.6094,282.3738 617.25,282.53 Q617.9063,282.6863 618.4688,282.9831 L618.4688,285.7019 Q617.8438,285.1238 617.25,284.8581 Q616.6563,284.5769 616.0313,284.5769 Q614.6875,284.5769 614,285.655 Q613.3125,286.7175 613.3125,288.8113 Q613.3125,290.905 614,291.9831 Q614.6875,293.0456 616.0313,293.0456 Q616.6563,293.0456 617.25,292.78 Q617.8438,292.4988 618.4688,291.9206 L618.4688,294.6394 Z " fill="#000000"/><a href="https://bo4e.github.io/BO4E-python/v202501.1.0-rc2/api/bo4e.com.html#bo4e.com.tarifeinschraenkung.Tarifeinschraenkung" target="_top" title="https://bo4e.github.io/BO4E-python/v202501.1.0-rc2/api/bo4e.com.html#bo4e.com.tarifeinschraenkung.Tarifeinschraenkung" xlink:actuate="onRequest" xlink:href="https://bo4e.github.io/BO4E-python/v202501.1.0-rc2/api/bo4e.com.html#bo4e.com.tarifeinschraenkung.Tarifeinschraenkung" xlink:show="new" xlink:title="https://bo4e.github.io/BO4E-python/v202501.1.0-rc2/api/bo4e.com.html#bo4e.com.tarifeinschraenkung.Tarifeinschraenkung" xlink:type="simple"><text fill="#0000FF" font-family="sans-serif" font-size="14" lengthAdjust="spacing" text-decoration="underline" textLength="143.5068" x="634.2529" y="288.0251">Tarifeinschraenkung</text></a><text fill="#000000" font-family="sans-serif" font-size="10" lengthAdjust="spacing" textLength="153.0127" x="629.5" y="300.6091">bo4e.com.tarifeinschraenkung</text></g><!--class Preisgarantie--><g class="entity" data-entity="Preisgarantie" data-source-line="16" data-uid="ent0009" id="entity_Preisgarantie"><rect fill="#F1F1F1" height="37.9375" rx="2.5" ry="2.5" style="stroke:#181818;stroke-width:0.5;" width="151.1992" x="617.4" y="343.03"/><ellipse cx="632.4" cy="361.9988" fill="#ADD1B2" rx="11" ry="11" style="stroke:#181818;stroke-width:1;"/><path d="M635.3688,367.6394 Q634.7906,367.9363 634.15,368.0769 Q633.5094,368.2331 632.8063,368.2331 Q630.3063,368.2331 628.9781,366.5925 Q627.6656,364.9363 627.6656,361.8113 Q627.6656,358.6863 628.9781,357.03 Q630.3063,355.3738 632.8063,355.3738 Q633.5094,355.3738 634.15,355.53 Q634.8063,355.6863 635.3688,355.9831 L635.3688,358.7019 Q634.7438,358.1238 634.15,357.8581 Q633.5563,357.5769 632.9313,357.5769 Q631.5875,357.5769 630.9,358.655 Q630.2125,359.7175 630.2125,361.8113 Q630.2125,363.905 630.9,364.9831 Q631.5875,366.0456 632.9313,366.0456 Q633.5563,366.0456 634.15,365.78 Q634.7438,365.4988 635.3688,364.9206 L635.3688,367.6394 Z " fill="#000000"/><a href="https://bo4e.github.io/BO4E-python/v202501.1.0-rc2/api/bo4e.com.html#bo4e.com.preisgarantie.Preisgarantie" target="_top" title="https://bo4e.github.io/BO4E-python/v202501.1.0-rc2/api/bo4e.com.html#bo4e.com.preisgarantie.Preisgarantie" xlink:actuate="onRequest" xlink:href="https://bo4e.github.io/BO4E-python/v202501.1.0-rc2/api/bo4e.com.html#bo4e.com.preisgarantie.Preisgarantie" xlink:show="new" xlink:title="https://bo4e.github.io/BO4E-python/v202501.1.0-rc2/api/bo4e.com.html#bo4e.com.preisgarantie.Preisgarantie" xlink:type="simple"><text fill="#0000FF" font-family="sans-serif" font-size="14" lengthAdjust="spacing" text-decoration="underline" textLength="92.6611" x="659.669" y="361.0251">Preisgarantie</text></a><text fill="#000000" font-family="sans-serif" font-size="10" lengthAdjust="spacing" textLength="119.1992" x="646.4" y="373.6091">bo4e.com.preisgarantie</text></g><!--class TarifpreispositionProOrt--><g class="entity" data-entity="TarifpreispositionProOrt" data-source-line="17" data-uid="ent0010" id="entity_TarifpreispositionProOrt"><rect fill="#F1F1F1" height="37.9375" rx="2.5" ry="2.5" style="stroke:#181818;stroke-width:0.5;" width="200.0908" x="592.96" y="416.03"/><ellipse cx="607.96" cy="434.9988" fill="#ADD1B2" rx="11" ry="11" style="stroke:#181818;stroke-width:1;"/><path d="M610.9288,440.6394 Q610.3506,440.9363 609.71,441.0769 Q609.0694,441.2331 608.3663,441.2331 Q605.8663,441.2331 604.5381,439.5925 Q603.2256,437.9363 603.2256,434.8113 Q603.2256,431.6863 604.5381,430.03 Q605.8663,428.3738 608.3663,428.3738 Q609.0694,428.3738 609.71,428.53 Q610.3663,428.6863 610.9288,428.9831 L610.9288,431.7019 Q610.3038,431.1238 609.71,430.8581 Q609.1163,430.5769 608.4913,430.5769 Q607.1475,430.5769 606.46,431.655 Q605.7725,432.7175 605.7725,434.8113 Q605.7725,436.905 606.46,437.9831 Q607.1475,439.0456 608.4913,439.0456 Q609.1163,439.0456 609.71,438.78 Q610.3038,438.4988 610.9288,437.9206 L610.9288,440.6394 Z " fill="#000000"/><a href="https://bo4e.github.io/BO4E-python/v202501.1.0-rc2/api/bo4e.com.html#bo4e.com.tarifpreispositionproort.TarifpreispositionProOrt" target="_top" title="https://bo4e.github.io/BO4E-python/v202501.1.0-rc2/api/bo4e.com.html#bo4e.com.tarifpreispositionproort.TarifpreispositionProOrt" xlink:actuate="onRequest" xlink:href="https://bo4e.github.io/BO4E-python/v202501.1.0-rc2/api/bo4e.com.html#bo4e.com.tarifpreispositionproort.TarifpreispositionProOrt" xlink:show="new" xlink:title="https://bo4e.github.io/BO4E-python/v202501.1.0-rc2/api/bo4e.com.html#bo4e.com.tarifpreispositionproort.TarifpreispositionProOrt" xlink:type="simple"><text fill="#0000FF" font-family="sans-serif" font-size="14" lengthAdjust="spacing" text-decoration="underline" textLength="166.626" x="622.6924" y="434.0251">TarifpreispositionProOrt</text></a><text fill="#000000" font-family="sans-serif" font-size="10" lengthAdjust="spacing" textLength="168.0908" x="621.96" y="446.6091">bo4e.com.tarifpreispositionproort</text></g><!--class AufAbschlagRegional--><g class="entity" data-entity="AufAbschlagRegional" data-source-line="18" data-uid="ent0011" id="entity_AufAbschlagRegional"><rect fill="#F1F1F1" height="37.9375" rx="2.5" ry="2.5" style="stroke:#181818;stroke-width:0.5;" width="186.209" x="599.9" y="489.03"/><ellipse cx="614.9" cy="507.9988" fill="#ADD1B2" rx="11" ry="11" style="stroke:#181818;stroke-width:1;"/><path d="M617.8688,513.6394 Q617.2906,513.9363 616.65,514.0769 Q616.0094,514.2331 615.3063,514.2331 Q612.8063,514.2331 611.4781,512.5925 Q610.1656,510.9363 610.1656,507.8113 Q610.1656,504.6863 611.4781,503.03 Q612.8063,501.3738 615.3063,501.3738 Q616.0094,501.3738 616.65,501.53 Q617.3063,501.6863 617.8688,501.9831 L617.8688,504.7019 Q617.2438,504.1238 616.65,503.8581 Q616.0563,503.5769 615.4313,503.5769 Q614.0875,503.5769 613.4,504.655 Q612.7125,505.7175 612.7125,507.8113 Q612.7125,509.905 613.4,510.9831 Q614.0875,512.0456 615.4313,512.0456 Q616.0563,512.0456 616.65,511.78 Q617.2438,511.4988 617.8688,510.9206 L617.8688,513.6394 Z " fill="#000000"/><a href="https://bo4e.github.io/BO4E-python/v202501.1.0-rc2/api/bo4e.com.html#bo4e.com.aufabschlagregional.AufAbschlagRegional" target="_top" title="https://bo4e.github.io/BO4E-python/v202501.1.0-rc2/api/bo4e.com.html#bo4e.com.aufabschlagregional.AufAbschlagRegional" xlink:actuate="onRequest" xlink:href="https://bo4e.github.io/BO4E-python/v202501.1.0-rc2/api/bo4e.com.html#bo4e.com.aufabschlagregional.AufAbschlagRegional" xlink:show="new" xlink:title="https://bo4e.github.io/BO4E-python/v202501.1.0-rc2/api/bo4e.com.html#bo4e.com.aufabschlagregional.AufAbschlagRegional" xlink:type="simple"><text fill="#0000FF" font-family="sans-serif" font-size="14" lengthAdjust="spacing" text-decoration="underline" textLength="148.0869" x="631.961" y="507.0251">AufAbschlagRegional</text></a><text fill="#000000" font-family="sans-serif" font-size="10" lengthAdjust="spacing" textLength="154.209" x="628.9" y="519.6091">bo4e.com.aufabschlagregional</text></g><!--class Tarif--><g class="entity" data-entity="Tarif" data-source-line="3" data-uid="ent0002" id="entity_Tarif"><rect fill="#F1F1F1" height="111.125" rx="2.5" ry="2.5" style="stroke:#181818;stroke-width:0.5;" width="330.5752" x="7" y="274.44"/><ellipse cx="135.9063" cy="293.4088" fill="#ADD1B2" rx="11" ry="11" style="stroke:#181818;stroke-width:1;"/><path d="M138.875,299.0494 Q138.2969,299.3463 137.6563,299.4869 Q137.0156,299.6431 136.3125,299.6431 Q133.8125,299.6431 132.4844,298.0025 Q131.1719,296.3463 131.1719,293.2213 Q131.1719,290.0963 132.4844,288.44 Q133.8125,286.7838 136.3125,286.7838 Q137.0156,286.7838 137.6563,286.94 Q138.3125,287.0963 138.875,287.3931 L138.875,290.1119 Q138.25,289.5338 137.6563,289.2681 Q137.0625,288.9869 136.4375,288.9869 Q135.0938,288.9869 134.4063,290.065 Q133.7188,291.1275 133.7188,293.2213 Q133.7188,295.315 134.4063,296.3931 Q135.0938,297.4556 136.4375,297.4556 Q137.0625,297.4556 137.6563,297.19 Q138.25,296.9088 138.875,296.3306 L138.875,299.0494 Z " fill="#000000"/><a href="https://bo4e.github.io/BO4E-python/v202501.1.0-rc2/api/bo4e.bo.html#bo4e.bo.tarif.Tarif" target="_top" title="https://bo4e.github.io/BO4E-python/v202501.1.0-rc2/api/bo4e.bo.html#bo4e.bo.tarif.Tarif" xlink:actuate="onRequest" xlink:href="https://bo4e.github.io/BO4E-python/v202501.1.0-rc2/api/bo4e.bo.html#bo4e.bo.tarif.Tarif" xlink:show="new" xlink:title="https://bo4e.github.io/BO4E-python/v202501.1.0-rc2/api/bo4e.bo.html#bo4e.bo.tarif.Tarif" xlink:type="simple"><text fill="#0000FF" font-family="sans-serif" font-size="14" lengthAdjust="spacing" text-decoration="underline" textLength="31.7051" x="172.6851" y="292.4351">Tarif</text></a><text fill="#000000" font-family="sans-serif" font-size="10" lengthAdjust="spacing" textLength="64.2627" x="156.4063" y="305.0191">bo4e.bo.tarif</text><line style="stroke:#181818;stroke-width:0.5;" x1="8" x2="336.5752" y1="312.3775" y2="312.3775"/><text fill="#000000" font-family="sans-serif" font-size="14" lengthAdjust="spacing" textLength="255.6709" x="13" y="329.3726">_version : str [0..1] = 202501.1.0rc2</text><text fill="#000000" font-family="sans-serif" font-size="14" lengthAdjust="spacing" textLength="318.5752" x="13" y="345.6695">zusatzAttribute : ZusatzAttribut [0..*] = None</text><text fill="#000000" font-family="sans-serif" font-size="14" lengthAdjust="spacing" textLength="151.1768" x="13" y="361.9664">_id : str [0..1] = None</text><text fill="#000000" font-family="sans-serif" font-size="14" lengthAdjust="spacing" textLength="295.4902" x="13" y="378.2632">preisstand : AwareDatetime [0..1] = None</text></g><!--link Tarif to Tarifinfo--><g class="link" data-entity-1="Tarif" data-entity-2="Tarifinfo" data-source-line="21" data-uid="lnk12" id="link_Tarif_Tarifinfo"><path codeLine="21" d="M268.18,274.04 C299.34,256.67 334.48,238.13 367.58,223 C458.92,181.24 552.2832,148.4503 617.9032,126.8403" fill="none" id="Tarif-to-Tarifinfo" style="stroke:#181818;stroke-width:1;"/><polygon fill="none" points="635,121.21,616.0265,121.1414,619.78,132.5392,635,121.21" style="stroke:#181818;stroke-width:1;"/></g><!--link Tarif to Tarifberechnungsparameter--><g class="link" data-entity-1="Tarif" data-entity-2="Tarifberechnungsparameter" data-source-line="22" data-uid="lnk13" id="link_Tarif_Tarifberechnungsparameter"><path codeLine="22" d="M337.93,285.99 C347.94,283.56 357.89,281.21 367.58,279 C438.76,262.76 507.5294,249.2786 570.5794,237.6386" fill="none" id="Tarif-to-Tarifberechnungsparameter" style="stroke:#181818;stroke-width:1;"/><polygon fill="#181818" points="582.38,235.46,575.7535,232.6158,570.5794,237.6386,577.2059,240.4828,582.38,235.46" style="stroke:#181818;stroke-width:1;"/><text fill="#000000" font-family="sans-serif" font-size="13" lengthAdjust="spacing" textLength="153.353" x="368.58" y="244.0669">berechnungsparameter</text><text fill="#000000" font-family="sans-serif" font-size="13" lengthAdjust="spacing" textLength="24.8066" x="545.7757" y="250.3141">0..1</text></g><!--link Tarif to TarifpreispositionProOrt--><g class="link" data-entity-1="Tarif" data-entity-2="TarifpreispositionProOrt" data-source-line="23" data-uid="lnk14" id="link_Tarif_TarifpreispositionProOrt"><path codeLine="23" d="M338,379.07 C347.97,381.55 357.89,383.88 367.58,386 C442.42,402.37 516.2694,413.5185 580.8094,421.8785" fill="none" id="Tarif-to-TarifpreispositionProOrt" style="stroke:#181818;stroke-width:1;"/><polygon fill="#181818" points="592.71,423.42,587.2735,418.6824,580.8094,421.8785,586.2459,426.6161,592.71,423.42" style="stroke:#181818;stroke-width:1;"/><text fill="#000000" font-family="sans-serif" font-size="13" lengthAdjust="spacing" textLength="66.5742" x="412.08" y="382.0669">tarifpreise</text><text fill="#000000" font-family="sans-serif" font-size="13" lengthAdjust="spacing" textLength="23.0356" x="561.8506" y="435.2048">0..*</text></g><!--link Tarif to AufAbschlagRegional--><g class="link" data-entity-1="Tarif" data-entity-2="AufAbschlagRegional" data-source-line="24" data-uid="lnk15" id="link_Tarif_AufAbschlagRegional"><path codeLine="24" d="M261.08,386.01 C293.53,404.76 331.28,424.34 367.58,438 C443.34,466.51 521.8246,482.8899 587.8946,493.5999" fill="none" id="Tarif-to-AufAbschlagRegional" style="stroke:#181818;stroke-width:1;"/><polygon fill="#181818" points="599.74,495.52,594.4574,490.6115,587.8946,493.5999,593.1773,498.5084,599.74,495.52" style="stroke:#181818;stroke-width:1;"/><text fill="#000000" font-family="sans-serif" font-size="13" lengthAdjust="spacing" textLength="123.4365" x="383.58" y="434.0669">tarifAufAbschlaege</text><text fill="#000000" font-family="sans-serif" font-size="13" lengthAdjust="spacing" textLength="23.0356" x="568.7203" y="507.2108">0..*</text></g><!--link Tarif to Preisgarantie--><g class="link" data-entity-1="Tarif" data-entity-2="Preisgarantie" data-source-line="25" data-uid="lnk16" id="link_Tarif_Preisgarantie"><path codeLine="25" d="M338.01,350.54 C348.01,351.46 357.92,352.3 367.58,353 C452.99,359.23 539.3505,361.1206 605.1705,361.7206" fill="none" id="Tarif-to-Preisgarantie" style="stroke:#181818;stroke-width:1;"/><polygon fill="#181818" points="617.17,361.83,611.2067,357.7755,605.1705,361.7206,611.1338,365.7751,617.17,361.83" style="stroke:#181818;stroke-width:1;"/><text fill="#000000" font-family="sans-serif" font-size="13" lengthAdjust="spacing" textLength="86.4551" x="402.08" y="349.0669">preisgarantie</text><text fill="#000000" font-family="sans-serif" font-size="13" lengthAdjust="spacing" textLength="24.8066" x="584.564" y="374.6251">0..1</text></g><!--link Tarif to Tarifeinschraenkung--><g class="link" data-entity-1="Tarif" data-entity-2="Tarifeinschraenkung" data-source-line="26" data-uid="lnk17" id="link_Tarif_Tarifeinschraenkung"><path codeLine="26" d="M337.77,317 C424.56,310.14 515.8374,302.9263 588.3974,297.1863" fill="none" id="Tarif-to-Tarifeinschraenkung" style="stroke:#181818;stroke-width:1;"/><polygon fill="#181818" points="600.36,296.24,594.0632,292.7256,588.3974,297.1863,594.6941,300.7007,600.36,296.24" style="stroke:#181818;stroke-width:1;"/><text fill="#000000" font-family="sans-serif" font-size="13" lengthAdjust="spacing" textLength="130.4126" x="380.08" y="300.0669">tarifeinschraenkung</text><text fill="#000000" font-family="sans-serif" font-size="13" lengthAdjust="spacing" textLength="24.8066" x="567.7274" y="309.5332">0..1</text></g><!--SRC=[jLLDRvj043s7Np6oRvQCiPMc4MeZaIRN9gfwYcjL2nvWLTX5kqEYkkr_x_9XO-YQNkmBOkRDpl3UCBCPnWGaGV4a9TXoXH5nAHmdofZMC5clKw92-uj5AA_HJJYbPUXokRX_kdwS5pyfbMBnkl9MxxobktIzkOfM2rRm9ZoKRafvDjqRn1IFtQ_L4-hdPlDDVD1yX_xIk-j5JO3f9WP-ELVVNr5fyrtWWoO5Qyzrbnlu25rXKzUvsfMQqIuWKZmi2KtqIyzJ7vnL1pzBWIOjtmupDa2Xa6jDJ5HuyCOKFZ12uZaE8lyuZc0vwe95U2Qre3Kscrg3reBf_St3- -2sKkDolU4Ybar_gZSul9tkKuLslQeieydP98baVgI9iOv5CIPC7xtWzkRJsLJP5vmUh9fbY6OmKb6AnD1IXXsXQdIo8N0I-LV7qHATi3RqifIH2nsbYg7uOQesPFi-iFX62FO3Esfz_yL8rIET6Eq4SNIVZoteMNOAlUFrn_SENRONTV52Qbxjva99gQXfI0zuLl994Pm2HbfZoT_rnvBgOcnP6RFG_0qPInGcfXxBtA2CWzRtfVM1nMUdPqbOCxCag7PvUpVDvx_lzektMuTxrC0pc5JNmEImY4QMWG_MuHqccmsJsNhhGzSl74rXKwqztK6Ou2Yf_fJuq1k2_yinM1Tj-S6yEodV8kIO6vMqerFv1ctYc6EsrNy1]--></g></svg>