<?xml version="1.0" encoding="us-ascii" standalone="no"?><svg xmlns="http://www.w3.org/2000/svg" xmlns:xlink="http://www.w3.org/1999/xlink" contentStyleType="text/css" height="501px" preserveAspectRatio="none" style="width:958px;height:501px;background:#FFFFFF;" version="1.1" viewBox="0 0 958 501" width="958px" zoomAndPan="magnify"><defs/><g><!--cluster bo4e--><g id="cluster_bo4e"><path d="M713.5,6 L754.5,6 A3.75,3.75 0 0 1 757,8.5 L764,28.2969 L948.5,28.2969 A2.5,2.5 0 0 1 951,30.7969 L951,491.5 A2.5,2.5 0 0 1 948.5,494 L713.5,494 A2.5,2.5 0 0 1 711,491.5 L711,8.5 A2.5,2.5 0 0 1 713.5,6 " fill="none" style="stroke:#000000;stroke-width:1.5;"/><line style="stroke:#000000;stroke-width:1.5;" x1="711" x2="764" y1="28.2969" y2="28.2969"/><text fill="#000000" font-family="sans-serif" font-size="14" font-weight="bold" lengthAdjust="spacing" textLength="40" x="715" y="20.9951">bo4e</text></g><!--cluster com--><g id="cluster_com"><path d="M737.5,49 L816.5,49 A3.75,3.75 0 0 1 819,51.5 L826,71.2969 L924.5,71.2969 A2.5,2.5 0 0 1 927,73.7969 L927,208.5 A2.5,2.5 0 0 1 924.5,211 L737.5,211 A2.5,2.5 0 0 1 735,208.5 L735,51.5 A2.5,2.5 0 0 1 737.5,49 " fill="#E0A86C" style="stroke:#000000;stroke-width:1.5;"/><line style="stroke:#000000;stroke-width:1.5;" x1="735" x2="826" y1="71.2969" y2="71.2969"/><a href="https://bo4e.github.io/BO4E-python/v202501.0.0/api/bo4e.com.html" target="_top" title="https://bo4e.github.io/BO4E-python/v202501.0.0/api/bo4e.com.html" xlink:actuate="onRequest" xlink:href="https://bo4e.github.io/BO4E-python/v202501.0.0/api/bo4e.com.html" xlink:show="new" xlink:title="https://bo4e.github.io/BO4E-python/v202501.0.0/api/bo4e.com.html" xlink:type="simple"><text fill="#0000FF" font-family="sans-serif" font-size="14" font-weight="bold" lengthAdjust="spacing" text-decoration="underline" textLength="78" x="739" y="63.9951">bo4e.com</text></a></g><!--cluster enum--><g id="cluster_enum"><path d="M740,235 L830,235 A3.75,3.75 0 0 1 832.5,237.5 L839.5,257.2969 L922,257.2969 A2.5,2.5 0 0 1 924.5,259.7969 L924.5,467.5 A2.5,2.5 0 0 1 922,470 L740,470 A2.5,2.5 0 0 1 737.5,467.5 L737.5,237.5 A2.5,2.5 0 0 1 740,235 " fill="#D1C358" style="stroke:#000000;stroke-width:1.5;"/><line style="stroke:#000000;stroke-width:1.5;" x1="737.5" x2="839.5" y1="257.2969" y2="257.2969"/><a href="https://bo4e.github.io/BO4E-python/v202501.0.0/api/bo4e.enum.html" target="_top" title="https://bo4e.github.io/BO4E-python/v202501.0.0/api/bo4e.enum.html" xlink:actuate="onRequest" xlink:href="https://bo4e.github.io/BO4E-python/v202501.0.0/api/bo4e.enum.html" xlink:show="new" xlink:title="https://bo4e.github.io/BO4E-python/v202501.0.0/api/bo4e.enum.html" xlink:type="simple"><text fill="#0000FF" font-family="sans-serif" font-size="14" font-weight="bold" lengthAdjust="spacing" text-decoration="underline" textLength="89" x="741.5" y="249.9951">bo4e.enum</text></a></g><!--class COM--><g id="elem_COM"><rect codeLine="16" fill="#F1F1F1" height="37.9375" id="COM" rx="2.5" ry="2.5" style="stroke:#181818;stroke-width:0.5;" width="104" x="779" y="84.03"/><ellipse cx="794" cy="102.9987" fill="#ADD1B2" rx="11" ry="11" style="stroke:#181818;stroke-width:1.0;"/><path d="M796.9688,108.6394 Q796.3906,108.9362 795.75,109.0769 Q795.1094,109.2331 794.4063,109.2331 Q791.9063,109.2331 790.5781,107.5925 Q789.2656,105.9362 789.2656,102.8112 Q789.2656,99.6862 790.5781,98.03 Q791.9063,96.3737 794.4063,96.3737 Q795.1094,96.3737 795.75,96.53 Q796.4063,96.6862 796.9688,96.9831 L796.9688,99.7019 Q796.3438,99.1237 795.75,98.8581 Q795.1563,98.5769 794.5313,98.5769 Q793.1875,98.5769 792.5,99.655 Q791.8125,100.7175 791.8125,102.8112 Q791.8125,104.905 792.5,105.9831 Q793.1875,107.0456 794.5313,107.0456 Q795.1563,107.0456 795.75,106.78 Q796.3438,106.4987 796.9688,105.9206 L796.9688,108.6394 Z " fill="#000000"/><a href="https://bo4e.github.io/BO4E-python/v202501.0.0/api/bo4e.com.html#bo4e.com.com.COM" target="_top" title="https://bo4e.github.io/BO4E-python/v202501.0.0/api/bo4e.com.html#bo4e.com.com.COM" xlink:actuate="onRequest" xlink:href="https://bo4e.github.io/BO4E-python/v202501.0.0/api/bo4e.com.html#bo4e.com.com.COM" xlink:show="new" xlink:title="https://bo4e.github.io/BO4E-python/v202501.0.0/api/bo4e.com.html#bo4e.com.com.COM" xlink:type="simple"><text fill="#0000FF" font-family="sans-serif" font-size="14" lengthAdjust="spacing" text-decoration="underline" textLength="33" x="827.5" y="102.0251">COM</text></a><text fill="#000000" font-family="sans-serif" font-size="10" lengthAdjust="spacing" textLength="72" x="808" y="114.6091">bo4e.com.com</text></g><!--class Energieherkunft--><g id="elem_Energieherkunft"><rect codeLine="17" fill="#F1F1F1" height="37.9375" id="Energieherkunft" rx="2.5" ry="2.5" style="stroke:#181818;stroke-width:0.5;" width="160" x="751" y="157.03"/><ellipse cx="766" cy="175.9987" fill="#ADD1B2" rx="11" ry="11" style="stroke:#181818;stroke-width:1.0;"/><path d="M768.9688,181.6394 Q768.3906,181.9362 767.75,182.0769 Q767.1094,182.2331 766.4063,182.2331 Q763.9063,182.2331 762.5781,180.5925 Q761.2656,178.9362 761.2656,175.8112 Q761.2656,172.6862 762.5781,171.03 Q763.9063,169.3737 766.4063,169.3737 Q767.1094,169.3737 767.75,169.53 Q768.4063,169.6862 768.9688,169.9831 L768.9688,172.7019 Q768.3438,172.1237 767.75,171.8581 Q767.1563,171.5769 766.5313,171.5769 Q765.1875,171.5769 764.5,172.655 Q763.8125,173.7175 763.8125,175.8112 Q763.8125,177.905 764.5,178.9831 Q765.1875,180.0456 766.5313,180.0456 Q767.1563,180.0456 767.75,179.78 Q768.3438,179.4987 768.9688,178.9206 L768.9688,181.6394 Z " fill="#000000"/><a href="https://bo4e.github.io/BO4E-python/v202501.0.0/api/bo4e.com.html#bo4e.com.energieherkunft.Energieherkunft" target="_top" title="https://bo4e.github.io/BO4E-python/v202501.0.0/api/bo4e.com.html#bo4e.com.energieherkunft.Energieherkunft" xlink:actuate="onRequest" xlink:href="https://bo4e.github.io/BO4E-python/v202501.0.0/api/bo4e.com.html#bo4e.com.energieherkunft.Energieherkunft" xlink:show="new" xlink:title="https://bo4e.github.io/BO4E-python/v202501.0.0/api/bo4e.com.html#bo4e.com.energieherkunft.Energieherkunft" xlink:type="simple"><text fill="#0000FF" font-family="sans-serif" font-size="14" lengthAdjust="spacing" text-decoration="underline" textLength="111" x="788.5" y="175.0251">Energieherkunft</text></a><text fill="#000000" font-family="sans-serif" font-size="10" lengthAdjust="spacing" textLength="128" x="780" y="187.6091">bo4e.com.energieherkunft</text></g><!--class Sparte--><g id="elem_Sparte"><rect codeLine="20" fill="#F1F1F1" height="37.9375" id="Sparte" rx="2.5" ry="2.5" style="stroke:#181818;stroke-width:0.5;" width="121" x="770.5" y="270.03"/><ellipse cx="785.5" cy="288.9988" fill="#ADD1B2" rx="11" ry="11" style="stroke:#181818;stroke-width:1.0;"/><path d="M788.4688,294.6394 Q787.8906,294.9363 787.25,295.0769 Q786.6094,295.2331 785.9063,295.2331 Q783.4063,295.2331 782.0781,293.5925 Q780.7656,291.9363 780.7656,288.8113 Q780.7656,285.6863 782.0781,284.03 Q783.4063,282.3738 785.9063,282.3738 Q786.6094,282.3738 787.25,282.53 Q787.9063,282.6863 788.4688,282.9831 L788.4688,285.7019 Q787.8438,285.1238 787.25,284.8581 Q786.6563,284.5769 786.0313,284.5769 Q784.6875,284.5769 784,285.655 Q783.3125,286.7175 783.3125,288.8113 Q783.3125,290.905 784,291.9831 Q784.6875,293.0456 786.0313,293.0456 Q786.6563,293.0456 787.25,292.78 Q787.8438,292.4988 788.4688,291.9206 L788.4688,294.6394 Z " fill="#000000"/><a href="https://bo4e.github.io/BO4E-python/v202501.0.0/api/bo4e.enum.html#bo4e.enum.sparte.Sparte" target="_top" title="https://bo4e.github.io/BO4E-python/v202501.0.0/api/bo4e.enum.html#bo4e.enum.sparte.Sparte" xlink:actuate="onRequest" xlink:href="https://bo4e.github.io/BO4E-python/v202501.0.0/api/bo4e.enum.html#bo4e.enum.sparte.Sparte" xlink:show="new" xlink:title="https://bo4e.github.io/BO4E-python/v202501.0.0/api/bo4e.enum.html#bo4e.enum.sparte.Sparte" xlink:type="simple"><text fill="#0000FF" font-family="sans-serif" font-size="14" lengthAdjust="spacing" text-decoration="underline" textLength="45" x="821.5" y="288.0251">Sparte</text></a><text fill="#000000" font-family="sans-serif" font-size="10" lengthAdjust="spacing" textLength="89" x="799.5" y="300.6091">bo4e.enum.sparte</text></g><!--class Oekozertifikat--><g id="elem_Oekozertifikat"><rect codeLine="21" fill="#F1F1F1" height="37.9375" id="Oekozertifikat" rx="2.5" ry="2.5" style="stroke:#181818;stroke-width:0.5;" width="155" x="753.5" y="343.03"/><ellipse cx="768.5" cy="361.9988" fill="#ADD1B2" rx="11" ry="11" style="stroke:#181818;stroke-width:1.0;"/><path d="M771.4688,367.6394 Q770.8906,367.9363 770.25,368.0769 Q769.6094,368.2331 768.9063,368.2331 Q766.4063,368.2331 765.0781,366.5925 Q763.7656,364.9363 763.7656,361.8113 Q763.7656,358.6863 765.0781,357.03 Q766.4063,355.3738 768.9063,355.3738 Q769.6094,355.3738 770.25,355.53 Q770.9063,355.6863 771.4688,355.9831 L771.4688,358.7019 Q770.8438,358.1238 770.25,357.8581 Q769.6563,357.5769 769.0313,357.5769 Q767.6875,357.5769 767,358.655 Q766.3125,359.7175 766.3125,361.8113 Q766.3125,363.905 767,364.9831 Q767.6875,366.0456 769.0313,366.0456 Q769.6563,366.0456 770.25,365.78 Q770.8438,365.4988 771.4688,364.9206 L771.4688,367.6394 Z " fill="#000000"/><a href="https://bo4e.github.io/BO4E-python/v202501.0.0/api/bo4e.enum.html#bo4e.enum.oekozertifikat.Oekozertifikat" target="_top" title="https://bo4e.github.io/BO4E-python/v202501.0.0/api/bo4e.enum.html#bo4e.enum.oekozertifikat.Oekozertifikat" xlink:actuate="onRequest" xlink:href="https://bo4e.github.io/BO4E-python/v202501.0.0/api/bo4e.enum.html#bo4e.enum.oekozertifikat.Oekozertifikat" xlink:show="new" xlink:title="https://bo4e.github.io/BO4E-python/v202501.0.0/api/bo4e.enum.html#bo4e.enum.oekozertifikat.Oekozertifikat" xlink:type="simple"><text fill="#0000FF" font-family="sans-serif" font-size="14" lengthAdjust="spacing" text-decoration="underline" textLength="95" x="796.5" y="361.0251">Oekozertifikat</text></a><text fill="#000000" font-family="sans-serif" font-size="10" lengthAdjust="spacing" textLength="123" x="782.5" y="373.6091">bo4e.enum.oekozertifikat</text></g><!--class Oekolabel--><g id="elem_Oekolabel"><rect codeLine="22" fill="#F1F1F1" height="37.9375" id="Oekolabel" rx="2.5" ry="2.5" style="stroke:#181818;stroke-width:0.5;" width="135" x="763.5" y="416.03"/><ellipse cx="778.5" cy="434.9988" fill="#ADD1B2" rx="11" ry="11" style="stroke:#181818;stroke-width:1.0;"/><path d="M781.4688,440.6394 Q780.8906,440.9363 780.25,441.0769 Q779.6094,441.2331 778.9063,441.2331 Q776.4063,441.2331 775.0781,439.5925 Q773.7656,437.9363 773.7656,434.8113 Q773.7656,431.6863 775.0781,430.03 Q776.4063,428.3738 778.9063,428.3738 Q779.6094,428.3738 780.25,428.53 Q780.9063,428.6863 781.4688,428.9831 L781.4688,431.7019 Q780.8438,431.1238 780.25,430.8581 Q779.6563,430.5769 779.0313,430.5769 Q777.6875,430.5769 777,431.655 Q776.3125,432.7175 776.3125,434.8113 Q776.3125,436.905 777,437.9831 Q777.6875,439.0456 779.0313,439.0456 Q779.6563,439.0456 780.25,438.78 Q780.8438,438.4988 781.4688,437.9206 L781.4688,440.6394 Z " fill="#000000"/><a href="https://bo4e.github.io/BO4E-python/v202501.0.0/api/bo4e.enum.html#bo4e.enum.oekolabel.Oekolabel" target="_top" title="https://bo4e.github.io/BO4E-python/v202501.0.0/api/bo4e.enum.html#bo4e.enum.oekolabel.Oekolabel" xlink:actuate="onRequest" xlink:href="https://bo4e.github.io/BO4E-python/v202501.0.0/api/bo4e.enum.html#bo4e.enum.oekolabel.Oekolabel" xlink:show="new" xlink:title="https://bo4e.github.io/BO4E-python/v202501.0.0/api/bo4e.enum.html#bo4e.enum.oekolabel.Oekolabel" xlink:type="simple"><text fill="#0000FF" font-family="sans-serif" font-size="14" lengthAdjust="spacing" text-decoration="underline" textLength="69" x="809.5" y="434.0251">Oekolabel</text></a><text fill="#000000" font-family="sans-serif" font-size="10" lengthAdjust="spacing" textLength="103" x="792.5" y="446.6091">bo4e.enum.oekolabel</text></g><!--class Energiemix--><g id="elem_Energiemix"><rect codeLine="3" fill="#F1F1F1" height="192.6094" id="Energiemix" rx="2.5" ry="2.5" style="stroke:#181818;stroke-width:0.5;" width="562" x="7" y="192.7"/><ellipse cx="231.25" cy="211.6688" fill="#ADD1B2" rx="11" ry="11" style="stroke:#181818;stroke-width:1.0;"/><path d="M234.2188,217.3094 Q233.6406,217.6063 233,217.7469 Q232.3594,217.9031 231.6563,217.9031 Q229.1563,217.9031 227.8281,216.2625 Q226.5156,214.6063 226.5156,211.4813 Q226.5156,208.3563 227.8281,206.7 Q229.1563,205.0438 231.6563,205.0438 Q232.3594,205.0438 233,205.2 Q233.6563,205.3563 234.2188,205.6531 L234.2188,208.3719 Q233.5938,207.7938 233,207.5281 Q232.4063,207.2469 231.7813,207.2469 Q230.4375,207.2469 229.75,208.325 Q229.0625,209.3875 229.0625,211.4813 Q229.0625,213.575 229.75,214.6531 Q230.4375,215.7156 231.7813,215.7156 Q232.4063,215.7156 233,215.45 Q233.5938,215.1688 234.2188,214.5906 L234.2188,217.3094 Z " fill="#000000"/><a href="https://bo4e.github.io/BO4E-python/v202501.0.0/api/bo4e.com.html#bo4e.com.energiemix.Energiemix" target="_top" title="https://bo4e.github.io/BO4E-python/v202501.0.0/api/bo4e.com.html#bo4e.com.energiemix.Energiemix" xlink:actuate="onRequest" xlink:href="https://bo4e.github.io/BO4E-python/v202501.0.0/api/bo4e.com.html#bo4e.com.energiemix.Energiemix" xlink:show="new" xlink:title="https://bo4e.github.io/BO4E-python/v202501.0.0/api/bo4e.com.html#bo4e.com.energiemix.Energiemix" xlink:type="simple"><text fill="#0000FF" font-family="sans-serif" font-size="14" lengthAdjust="spacing" text-decoration="underline" textLength="76" x="266.25" y="210.6951">Energiemix</text></a><text fill="#000000" font-family="sans-serif" font-size="10" lengthAdjust="spacing" textLength="105" x="251.75" y="223.2791">bo4e.com.energiemix</text><line style="stroke:#181818;stroke-width:0.5;" x1="8" x2="568" y1="230.6375" y2="230.6375"/><text fill="#000000" font-family="sans-serif" font-size="14" lengthAdjust="spacing" textLength="550" x="13" y="247.6326">_typ : Literal[&lt;ComTyp.ENERGIEMIX: 'ENERGIEMIX'&gt;] [1] = ComTyp.ENERGIEMIX</text><text fill="#000000" font-family="sans-serif" font-size="14" lengthAdjust="spacing" textLength="261" x="13" y="263.9295">energiemixnummer : int [0..1] = None</text><text fill="#000000" font-family="sans-serif" font-size="14" lengthAdjust="spacing" textLength="219" x="13" y="280.2264">bezeichnung : str [0..1] = None</text><text fill="#000000" font-family="sans-serif" font-size="14" lengthAdjust="spacing" textLength="232" x="13" y="296.5232">gueltigkeitsjahr : int [0..1] = None</text><text fill="#000000" font-family="sans-serif" font-size="14" lengthAdjust="spacing" textLength="208" x="13" y="312.8201">bemerkung : str [0..1] = None</text><text fill="#000000" font-family="sans-serif" font-size="14" lengthAdjust="spacing" textLength="253" x="13" y="329.117">co2Emission : Decimal [0..1] = None</text><text fill="#000000" font-family="sans-serif" font-size="14" lengthAdjust="spacing" textLength="237" x="13" y="345.4139">atommuell : Decimal [0..1] = None</text><text fill="#000000" font-family="sans-serif" font-size="14" lengthAdjust="spacing" textLength="259" x="13" y="361.7107">istInOekoTopTen : bool [0..1] = None</text><text fill="#000000" font-family="sans-serif" font-size="14" lengthAdjust="spacing" textLength="182" x="13" y="378.0076">website : str [0..1] = None</text></g><!--link Energiemix to COM--><g id="link_Energiemix_COM"><path codeLine="25" d="M550.14,192.24 C600.66,174.31 653.33,156.16 703,140 C727.79,131.94 738.2467,128.6743 761.4867,122.0643 " fill="none" id="Energiemix-to-COM" style="stroke:#181818;stroke-width:1.0;"/><polygon fill="none" points="778.8,117.14,759.8452,116.2932,763.1281,127.8354,778.8,117.14" style="stroke:#181818;stroke-width:1.0;"/></g><!--link Energiemix to Sparte--><g id="link_Energiemix_Sparte"><path codeLine="26" d="M569.4,289 C645.38,289 708.32,289 758.19,289 " fill="none" id="Energiemix-to-Sparte" style="stroke:#181818;stroke-width:1.0;"/><polygon fill="#181818" points="770.19,289,764.19,285,758.19,289,764.19,293,770.19,289" style="stroke:#181818;stroke-width:1.0;"/><text fill="#000000" font-family="sans-serif" font-size="13" lengthAdjust="spacing" textLength="66" x="614" y="285.0669">energieart</text><text fill="#000000" font-family="sans-serif" font-size="13" lengthAdjust="spacing" textLength="24" x="738.6815" y="301.8473">0..1</text></g><!--link Energiemix to Energieherkunft--><g id="link_Energiemix_Energieherkunft"><path codeLine="27" d="M569.4,230.43 C635.98,216.52 690.0137,205.2447 738.8237,195.0447 " fill="none" id="Energiemix-to-Energieherkunft" style="stroke:#181818;stroke-width:1.0;"/><polygon fill="#181818" points="750.57,192.59,743.8786,189.9019,738.8237,195.0447,745.5151,197.7327,750.57,192.59" style="stroke:#181818;stroke-width:1.0;"/><text fill="#000000" font-family="sans-serif" font-size="13" lengthAdjust="spacing" textLength="35" x="629.5" y="203.0669">anteil</text><text fill="#000000" font-family="sans-serif" font-size="13" lengthAdjust="spacing" textLength="23" x="719.957" y="206.6575">0..*</text></g><!--link Energiemix to Oekozertifikat--><g id="link_Energiemix_Oekozertifikat"><path codeLine="28" d="M569.4,326.84 C637.14,335.98 692.1578,343.3953 741.2178,350.0153 " fill="none" id="Energiemix-to-Oekozertifikat" style="stroke:#181818;stroke-width:1.0;"/><polygon fill="#181818" points="753.11,351.62,747.6988,346.8536,741.2178,350.0153,746.629,354.7817,753.11,351.62" style="stroke:#181818;stroke-width:1.0;"/><text fill="#000000" font-family="sans-serif" font-size="13" lengthAdjust="spacing" textLength="94" x="600" y="329.0669">oekozertifikate</text><text fill="#000000" font-family="sans-serif" font-size="13" lengthAdjust="spacing" textLength="23" x="722.428" y="363.4452">0..*</text></g><!--link Energiemix to Oekolabel--><g id="link_Energiemix_Oekolabel"><path codeLine="29" d="M569.4,364.67 C641.91,384.24 701.8744,400.4236 751.6044,413.8436 " fill="none" id="Energiemix-to-Oekolabel" style="stroke:#181818;stroke-width:1.0;"/><polygon fill="#181818" points="763.19,416.97,758.4394,411.5449,751.6044,413.8436,756.3551,419.2686,763.19,416.97" style="stroke:#181818;stroke-width:1.0;"/><text fill="#000000" font-family="sans-serif" font-size="13" lengthAdjust="spacing" textLength="61" x="616.5" y="372.0669">oekolabel</text><text fill="#000000" font-family="sans-serif" font-size="13" lengthAdjust="spacing" textLength="23" x="732.3829" y="428.007">0..*</text></g><!--SRC=[jLHDYzim43t7ls983WiBSPnqjonc6sXJKnQw6sXpAAIcoCx4LcD9nbAwcxJzxvNbzLU-w24v2Ej5RsPUz6QKu5A14f3HA5Qme1c6YWfkMM52f8JkV1uhbKftC0Z43TeHLV4wiAaOV9ZUUFrqesB11xz6pkZM6TgExGn8IWjgA9WTAvRqAeGSiuWYeo-sLssXtlh-TtulwHRTeJC-4DK58Xjq-6rrVgXD2YvyfWepaipl9uBDDgdjFNbVFZruZm_VNBYgmTNOX_dGXtUmnxCwTHs-PWmpdPPo1NF7jat8a-1eTGBS8WrZlkQH9aYLxHAYDIQAHYkaIluayT4qkiBgQ99GZ3n6fTHEQC9732aZoIw9AC6OhfOSfr2f7lWKLs8cqXdckG8XzbZF64XzWGUb_BKiJXZAb8HuZcw04lc-iRE4qFESztTl9xcf5sYzV4scZw3NuIxJo-ZHX8i8UEsksBY-LEK0b1XsyCbHA4dDUIX_quQTnI_KGz0mB8TDnt8ClSKmV7DxTnRBgdgz6ke_aIcqlveF59_zYsbGZRw2To59Gi_I5ZD5btH5b3rjGMZ38rBRAOpaTjm5fISamCIeDZkeTYUqclDAfa7vgz1ymllzF-DgalCvQvtguslevgzAjswUqbKNNfjQeyDHrzqwzUxKk42uGfgSZZJrTgnoeUq3_cUAujwAwE8kh9Wk41Yo03DfoLWyGpFLacAoaFy0]--></g></svg>