<?xml version="1.0" encoding="us-ascii" standalone="no"?><svg xmlns="http://www.w3.org/2000/svg" xmlns:xlink="http://www.w3.org/1999/xlink" contentStyleType="text/css" height="282px" preserveAspectRatio="none" style="width:1042px;height:282px;background:#FFFFFF;" version="1.1" viewBox="0 0 1042 282" width="1042px" zoomAndPan="magnify"><defs/><g><!--cluster bo4e--><g id="cluster_bo4e"><path d="M769.5,6 L810.5,6 A3.75,3.75 0 0 1 813,8.5 L820,28.2969 L1032.5,28.2969 A2.5,2.5 0 0 1 1035,30.7969 L1035,272.5 A2.5,2.5 0 0 1 1032.5,275 L769.5,275 A2.5,2.5 0 0 1 767,272.5 L767,8.5 A2.5,2.5 0 0 1 769.5,6 " fill="none" style="stroke:#000000;stroke-width:1.5;"/><line style="stroke:#000000;stroke-width:1.5;" x1="767" x2="820" y1="28.2969" y2="28.2969"/><text fill="#000000" font-family="sans-serif" font-size="14" font-weight="bold" lengthAdjust="spacing" textLength="40" x="771" y="20.9951">bo4e</text></g><!--cluster com--><g id="cluster_com"><path d="M835.5,49 L914.5,49 A3.75,3.75 0 0 1 917,51.5 L924,71.2969 L966.5,71.2969 A2.5,2.5 0 0 1 969,73.7969 L969,135.5 A2.5,2.5 0 0 1 966.5,138 L835.5,138 A2.5,2.5 0 0 1 833,135.5 L833,51.5 A2.5,2.5 0 0 1 835.5,49 " fill="#E0A86C" style="stroke:#000000;stroke-width:1.5;"/><line style="stroke:#000000;stroke-width:1.5;" x1="833" x2="924" y1="71.2969" y2="71.2969"/><a href="https://bo4e.github.io/BO4E-python/v202501.0.0/api/bo4e.com.html" target="_top" title="https://bo4e.github.io/BO4E-python/v202501.0.0/api/bo4e.com.html" xlink:actuate="onRequest" xlink:href="https://bo4e.github.io/BO4E-python/v202501.0.0/api/bo4e.com.html" xlink:show="new" xlink:title="https://bo4e.github.io/BO4E-python/v202501.0.0/api/bo4e.com.html" xlink:type="simple"><text fill="#0000FF" font-family="sans-serif" font-size="14" font-weight="bold" lengthAdjust="spacing" text-decoration="underline" textLength="78" x="837" y="63.9951">bo4e.com</text></a></g><!--cluster enum--><g id="cluster_enum"><path d="M793.5,162 L883.5,162 A3.75,3.75 0 0 1 886,164.5 L893,184.2969 L1008.5,184.2969 A2.5,2.5 0 0 1 1011,186.7969 L1011,248.5 A2.5,2.5 0 0 1 1008.5,251 L793.5,251 A2.5,2.5 0 0 1 791,248.5 L791,164.5 A2.5,2.5 0 0 1 793.5,162 " fill="#D1C358" style="stroke:#000000;stroke-width:1.5;"/><line style="stroke:#000000;stroke-width:1.5;" x1="791" x2="893" y1="184.2969" y2="184.2969"/><a href="https://bo4e.github.io/BO4E-python/v202501.0.0/api/bo4e.enum.html" target="_top" title="https://bo4e.github.io/BO4E-python/v202501.0.0/api/bo4e.enum.html" xlink:actuate="onRequest" xlink:href="https://bo4e.github.io/BO4E-python/v202501.0.0/api/bo4e.enum.html" xlink:show="new" xlink:title="https://bo4e.github.io/BO4E-python/v202501.0.0/api/bo4e.enum.html" xlink:type="simple"><text fill="#0000FF" font-family="sans-serif" font-size="14" font-weight="bold" lengthAdjust="spacing" text-decoration="underline" textLength="89" x="795" y="176.9951">bo4e.enum</text></a></g><!--class COM--><g id="elem_COM"><rect codeLine="9" fill="#F1F1F1" height="37.9375" id="COM" rx="2.5" ry="2.5" style="stroke:#181818;stroke-width:0.5;" width="104" x="849" y="84.03"/><ellipse cx="864" cy="102.9988" fill="#ADD1B2" rx="11" ry="11" style="stroke:#181818;stroke-width:1.0;"/><path d="M866.9688,108.6394 Q866.3906,108.9363 865.75,109.0769 Q865.1094,109.2331 864.4063,109.2331 Q861.9063,109.2331 860.5781,107.5925 Q859.2656,105.9363 859.2656,102.8113 Q859.2656,99.6863 860.5781,98.03 Q861.9063,96.3738 864.4063,96.3738 Q865.1094,96.3738 865.75,96.53 Q866.4063,96.6863 866.9688,96.9831 L866.9688,99.7019 Q866.3438,99.1238 865.75,98.8581 Q865.1563,98.5769 864.5313,98.5769 Q863.1875,98.5769 862.5,99.655 Q861.8125,100.7175 861.8125,102.8113 Q861.8125,104.905 862.5,105.9831 Q863.1875,107.0456 864.5313,107.0456 Q865.1563,107.0456 865.75,106.78 Q866.3438,106.4988 866.9688,105.9206 L866.9688,108.6394 Z " fill="#000000"/><a href="https://bo4e.github.io/BO4E-python/v202501.0.0/api/bo4e.com.html#bo4e.com.com.COM" target="_top" title="https://bo4e.github.io/BO4E-python/v202501.0.0/api/bo4e.com.html#bo4e.com.com.COM" xlink:actuate="onRequest" xlink:href="https://bo4e.github.io/BO4E-python/v202501.0.0/api/bo4e.com.html#bo4e.com.com.COM" xlink:show="new" xlink:title="https://bo4e.github.io/BO4E-python/v202501.0.0/api/bo4e.com.html#bo4e.com.com.COM" xlink:type="simple"><text fill="#0000FF" font-family="sans-serif" font-size="14" lengthAdjust="spacing" text-decoration="underline" textLength="33" x="897.5" y="102.0251">COM</text></a><text fill="#000000" font-family="sans-serif" font-size="10" lengthAdjust="spacing" textLength="72" x="878" y="114.6091">bo4e.com.com</text></g><!--class Tarifregionskriterium--><g id="elem_Tarifregionskriterium"><rect codeLine="12" fill="#F1F1F1" height="37.9375" id="Tarifregionskriterium" rx="2.5" ry="2.5" style="stroke:#181818;stroke-width:0.5;" width="188" x="807" y="197.03"/><ellipse cx="822" cy="215.9988" fill="#ADD1B2" rx="11" ry="11" style="stroke:#181818;stroke-width:1.0;"/><path d="M824.9688,221.6394 Q824.3906,221.9363 823.75,222.0769 Q823.1094,222.2331 822.4063,222.2331 Q819.9063,222.2331 818.5781,220.5925 Q817.2656,218.9363 817.2656,215.8113 Q817.2656,212.6863 818.5781,211.03 Q819.9063,209.3738 822.4063,209.3738 Q823.1094,209.3738 823.75,209.53 Q824.4063,209.6863 824.9688,209.9831 L824.9688,212.7019 Q824.3438,212.1238 823.75,211.8581 Q823.1563,211.5769 822.5313,211.5769 Q821.1875,211.5769 820.5,212.655 Q819.8125,213.7175 819.8125,215.8113 Q819.8125,217.905 820.5,218.9831 Q821.1875,220.0456 822.5313,220.0456 Q823.1563,220.0456 823.75,219.78 Q824.3438,219.4988 824.9688,218.9206 L824.9688,221.6394 Z " fill="#000000"/><a href="https://bo4e.github.io/BO4E-python/v202501.0.0/api/bo4e.enum.html#bo4e.enum.tarifregionskriterium.Tarifregionskriterium" target="_top" title="https://bo4e.github.io/BO4E-python/v202501.0.0/api/bo4e.enum.html#bo4e.enum.tarifregionskriterium.Tarifregionskriterium" xlink:actuate="onRequest" xlink:href="https://bo4e.github.io/BO4E-python/v202501.0.0/api/bo4e.enum.html#bo4e.enum.tarifregionskriterium.Tarifregionskriterium" xlink:show="new" xlink:title="https://bo4e.github.io/BO4E-python/v202501.0.0/api/bo4e.enum.html#bo4e.enum.tarifregionskriterium.Tarifregionskriterium" xlink:type="simple"><text fill="#0000FF" font-family="sans-serif" font-size="14" lengthAdjust="spacing" text-decoration="underline" textLength="141" x="843.5" y="215.0251">Tarifregionskriterium</text></a><text fill="#000000" font-family="sans-serif" font-size="10" lengthAdjust="spacing" textLength="156" x="836" y="227.6091">bo4e.enum.tarifregionskriterium</text></g><!--class KriteriumWert--><g id="elem_KriteriumWert"><rect codeLine="3" fill="#F1F1F1" height="78.5313" id="KriteriumWert" rx="2.5" ry="2.5" style="stroke:#181818;stroke-width:0.5;" width="655" x="7" y="120.73"/><ellipse cx="272.25" cy="139.6988" fill="#ADD1B2" rx="11" ry="11" style="stroke:#181818;stroke-width:1.0;"/><path d="M275.2188,145.3394 Q274.6406,145.6363 274,145.7769 Q273.3594,145.9331 272.6563,145.9331 Q270.1563,145.9331 268.8281,144.2925 Q267.5156,142.6363 267.5156,139.5113 Q267.5156,136.3863 268.8281,134.73 Q270.1563,133.0738 272.6563,133.0738 Q273.3594,133.0738 274,133.23 Q274.6563,133.3863 275.2188,133.6831 L275.2188,136.4019 Q274.5938,135.8238 274,135.5581 Q273.4063,135.2769 272.7813,135.2769 Q271.4375,135.2769 270.75,136.355 Q270.0625,137.4175 270.0625,139.5113 Q270.0625,141.605 270.75,142.6831 Q271.4375,143.7456 272.7813,143.7456 Q273.4063,143.7456 274,143.48 Q274.5938,143.1988 275.2188,142.6206 L275.2188,145.3394 Z " fill="#000000"/><a href="https://bo4e.github.io/BO4E-python/v202501.0.0/api/bo4e.com.html#bo4e.com.kriteriumwert.KriteriumWert" target="_top" title="https://bo4e.github.io/BO4E-python/v202501.0.0/api/bo4e.com.html#bo4e.com.kriteriumwert.KriteriumWert" xlink:actuate="onRequest" xlink:href="https://bo4e.github.io/BO4E-python/v202501.0.0/api/bo4e.com.html#bo4e.com.kriteriumwert.KriteriumWert" xlink:show="new" xlink:title="https://bo4e.github.io/BO4E-python/v202501.0.0/api/bo4e.com.html#bo4e.com.kriteriumwert.KriteriumWert" xlink:type="simple"><text fill="#0000FF" font-family="sans-serif" font-size="14" lengthAdjust="spacing" text-decoration="underline" textLength="93" x="304.25" y="138.7251">KriteriumWert</text></a><text fill="#000000" font-family="sans-serif" font-size="10" lengthAdjust="spacing" textLength="116" x="292.75" y="151.3091">bo4e.com.kriteriumwert</text><line style="stroke:#181818;stroke-width:0.5;" x1="8" x2="661" y1="158.6675" y2="158.6675"/><text fill="#000000" font-family="sans-serif" font-size="14" lengthAdjust="spacing" textLength="643" x="13" y="175.6626">_typ : Literal[&lt;ComTyp.KRITERIUMWERT: 'KRITERIUMWERT'&gt;] [1] = ComTyp.KRITERIUMWERT</text><text fill="#000000" font-family="sans-serif" font-size="14" lengthAdjust="spacing" textLength="158" x="13" y="191.9595">wert : str [0..1] = None</text></g><!--link KriteriumWert to COM--><g id="link_KriteriumWert_COM"><path codeLine="15" d="M662.24,127.01 C735.14,119.65 786.0711,114.5085 830.7311,109.9985 " fill="none" id="KriteriumWert-to-COM" style="stroke:#181818;stroke-width:1.0;"/><polygon fill="none" points="848.64,108.19,830.1282,104.0289,831.3339,115.9682,848.64,108.19" style="stroke:#181818;stroke-width:1.0;"/></g><!--link KriteriumWert to Tarifregionskriterium--><g id="link_KriteriumWert_Tarifregionskriterium"><path codeLine="16" d="M662.24,192.41 C715.02,197.65 753.7384,201.4972 794.6284,205.5472 " fill="none" id="KriteriumWert-to-Tarifregionskriterium" style="stroke:#181818;stroke-width:1.0;"/><polygon fill="#181818" points="806.57,206.73,800.9935,202.1581,794.6284,205.5472,800.205,210.1191,806.57,206.73" style="stroke:#181818;stroke-width:1.0;"/><text fill="#000000" font-family="sans-serif" font-size="13" lengthAdjust="spacing" textLength="57" x="693" y="192.0669">kriterium</text><text fill="#000000" font-family="sans-serif" font-size="13" lengthAdjust="spacing" textLength="24" x="775.0866" y="218.6772">0..1</text></g><!--SRC=[jPDDQy9048RFxgyOaeDGS9FOMYHOePKSn5f1KZoaeSHaDKkJRDXTA_RZltStnS_6cptiuHdUdTbtPZOZ2mcI0QVBL492EOabPGL2SHO90KOGf5AMmhMiERiXU4bbkffZogo7oOtNAZSoPONrthRR7Tl1DhQjgAI_qfZbE9LvPkxeZLD9E5tbQy8b7crffWYEA0nVYfwW7yHrx7xzTGCYSNm9Fb7ZLMvASE5HXwCiw0rOxczAF9eEVMywV1xFlAdlGlE8c_qG0YU4EwXJeuQkfd8AoI6mCQwKJwmWw1kX8ig9AAEONA9HiAKmhDnj4KpFlk_U3hJ1VvYAFeF96DIfxxiwrNkKG7c-Y6LIh0uzQpmqhHdCn8clEzsBkDxLC_Se8quNd2pLjelTQc6_BWgrqR_TEf-tybQRHQ_HoLzejRxwk-dhsPmAbE8A3BsCnhvXPvxkmhuKIcb282Vvd721HChMS99vGKcMY1y0]--></g></svg>