<?xml version="1.0" encoding="us-ascii" standalone="no"?><svg xmlns="http://www.w3.org/2000/svg" xmlns:xlink="http://www.w3.org/1999/xlink" contentStyleType="text/css" height="282px" preserveAspectRatio="none" style="width:807px;height:282px;background:#FFFFFF;" version="1.1" viewBox="0 0 807 282" width="807px" zoomAndPan="magnify"><defs/><g><!--cluster bo4e--><g id="cluster_bo4e"><path d="M560.5,6 L601.5,6 A3.75,3.75 0 0 1 604,8.5 L611,28.2969 L797.5,28.2969 A2.5,2.5 0 0 1 800,30.7969 L800,272.5 A2.5,2.5 0 0 1 797.5,275 L560.5,275 A2.5,2.5 0 0 1 558,272.5 L558,8.5 A2.5,2.5 0 0 1 560.5,6 " fill="none" style="stroke:#000000;stroke-width:1.5;"/><line style="stroke:#000000;stroke-width:1.5;" x1="558" x2="611" y1="28.2969" y2="28.2969"/><text fill="#000000" font-family="sans-serif" font-size="14" font-weight="bold" lengthAdjust="spacing" textLength="40" x="562" y="20.9951">bo4e</text></g><!--cluster com--><g id="cluster_com"><path d="M613.5,49 L692.5,49 A3.75,3.75 0 0 1 695,51.5 L702,71.2969 L744.5,71.2969 A2.5,2.5 0 0 1 747,73.7969 L747,135.5 A2.5,2.5 0 0 1 744.5,138 L613.5,138 A2.5,2.5 0 0 1 611,135.5 L611,51.5 A2.5,2.5 0 0 1 613.5,49 " fill="#E0A86C" style="stroke:#000000;stroke-width:1.5;"/><line style="stroke:#000000;stroke-width:1.5;" x1="611" x2="702" y1="71.2969" y2="71.2969"/><a href="https://bo4e.github.io/BO4E-python/v202501.0.0/api/bo4e.com.html" target="_top" title="https://bo4e.github.io/BO4E-python/v202501.0.0/api/bo4e.com.html" xlink:actuate="onRequest" xlink:href="https://bo4e.github.io/BO4E-python/v202501.0.0/api/bo4e.com.html" xlink:show="new" xlink:title="https://bo4e.github.io/BO4E-python/v202501.0.0/api/bo4e.com.html" xlink:type="simple"><text fill="#0000FF" font-family="sans-serif" font-size="14" font-weight="bold" lengthAdjust="spacing" text-decoration="underline" textLength="78" x="615" y="63.9951">bo4e.com</text></a></g><!--cluster enum--><g id="cluster_enum"><path d="M584.5,162 L674.5,162 A3.75,3.75 0 0 1 677,164.5 L684,184.2969 L773.5,184.2969 A2.5,2.5 0 0 1 776,186.7969 L776,248.5 A2.5,2.5 0 0 1 773.5,251 L584.5,251 A2.5,2.5 0 0 1 582,248.5 L582,164.5 A2.5,2.5 0 0 1 584.5,162 " fill="#D1C358" style="stroke:#000000;stroke-width:1.5;"/><line style="stroke:#000000;stroke-width:1.5;" x1="582" x2="684" y1="184.2969" y2="184.2969"/><a href="https://bo4e.github.io/BO4E-python/v202501.0.0/api/bo4e.enum.html" target="_top" title="https://bo4e.github.io/BO4E-python/v202501.0.0/api/bo4e.enum.html" xlink:actuate="onRequest" xlink:href="https://bo4e.github.io/BO4E-python/v202501.0.0/api/bo4e.enum.html" xlink:show="new" xlink:title="https://bo4e.github.io/BO4E-python/v202501.0.0/api/bo4e.enum.html" xlink:type="simple"><text fill="#0000FF" font-family="sans-serif" font-size="14" font-weight="bold" lengthAdjust="spacing" text-decoration="underline" textLength="89" x="586" y="176.9951">bo4e.enum</text></a></g><!--class COM--><g id="elem_COM"><rect codeLine="9" fill="#F1F1F1" height="37.9375" id="COM" rx="2.5" ry="2.5" style="stroke:#181818;stroke-width:0.5;" width="104" x="627" y="84.03"/><ellipse cx="642" cy="102.9988" fill="#ADD1B2" rx="11" ry="11" style="stroke:#181818;stroke-width:1.0;"/><path d="M644.9688,108.6394 Q644.3906,108.9363 643.75,109.0769 Q643.1094,109.2331 642.4063,109.2331 Q639.9063,109.2331 638.5781,107.5925 Q637.2656,105.9363 637.2656,102.8113 Q637.2656,99.6863 638.5781,98.03 Q639.9063,96.3738 642.4063,96.3738 Q643.1094,96.3738 643.75,96.53 Q644.4063,96.6863 644.9688,96.9831 L644.9688,99.7019 Q644.3438,99.1238 643.75,98.8581 Q643.1563,98.5769 642.5313,98.5769 Q641.1875,98.5769 640.5,99.655 Q639.8125,100.7175 639.8125,102.8113 Q639.8125,104.905 640.5,105.9831 Q641.1875,107.0456 642.5313,107.0456 Q643.1563,107.0456 643.75,106.78 Q644.3438,106.4988 644.9688,105.9206 L644.9688,108.6394 Z " fill="#000000"/><a href="https://bo4e.github.io/BO4E-python/v202501.0.0/api/bo4e.com.html#bo4e.com.com.COM" target="_top" title="https://bo4e.github.io/BO4E-python/v202501.0.0/api/bo4e.com.html#bo4e.com.com.COM" xlink:actuate="onRequest" xlink:href="https://bo4e.github.io/BO4E-python/v202501.0.0/api/bo4e.com.html#bo4e.com.com.COM" xlink:show="new" xlink:title="https://bo4e.github.io/BO4E-python/v202501.0.0/api/bo4e.com.html#bo4e.com.com.COM" xlink:type="simple"><text fill="#0000FF" font-family="sans-serif" font-size="14" lengthAdjust="spacing" text-decoration="underline" textLength="33" x="675.5" y="102.0251">COM</text></a><text fill="#000000" font-family="sans-serif" font-size="10" lengthAdjust="spacing" textLength="72" x="656" y="114.6091">bo4e.com.com</text></g><!--class Mengeneinheit--><g id="elem_Mengeneinheit"><rect codeLine="12" fill="#F1F1F1" height="37.9375" id="Mengeneinheit" rx="2.5" ry="2.5" style="stroke:#181818;stroke-width:0.5;" width="162" x="598" y="197.03"/><ellipse cx="613" cy="215.9988" fill="#ADD1B2" rx="11" ry="11" style="stroke:#181818;stroke-width:1.0;"/><path d="M615.9688,221.6394 Q615.3906,221.9363 614.75,222.0769 Q614.1094,222.2331 613.4063,222.2331 Q610.9063,222.2331 609.5781,220.5925 Q608.2656,218.9363 608.2656,215.8113 Q608.2656,212.6863 609.5781,211.03 Q610.9063,209.3738 613.4063,209.3738 Q614.1094,209.3738 614.75,209.53 Q615.4063,209.6863 615.9688,209.9831 L615.9688,212.7019 Q615.3438,212.1238 614.75,211.8581 Q614.1563,211.5769 613.5313,211.5769 Q612.1875,211.5769 611.5,212.655 Q610.8125,213.7175 610.8125,215.8113 Q610.8125,217.905 611.5,218.9831 Q612.1875,220.0456 613.5313,220.0456 Q614.1563,220.0456 614.75,219.78 Q615.3438,219.4988 615.9688,218.9206 L615.9688,221.6394 Z " fill="#000000"/><a href="https://bo4e.github.io/BO4E-python/v202501.0.0/api/bo4e.enum.html#bo4e.enum.mengeneinheit.Mengeneinheit" target="_top" title="https://bo4e.github.io/BO4E-python/v202501.0.0/api/bo4e.enum.html#bo4e.enum.mengeneinheit.Mengeneinheit" xlink:actuate="onRequest" xlink:href="https://bo4e.github.io/BO4E-python/v202501.0.0/api/bo4e.enum.html#bo4e.enum.mengeneinheit.Mengeneinheit" xlink:show="new" xlink:title="https://bo4e.github.io/BO4E-python/v202501.0.0/api/bo4e.enum.html#bo4e.enum.mengeneinheit.Mengeneinheit" xlink:type="simple"><text fill="#0000FF" font-family="sans-serif" font-size="14" lengthAdjust="spacing" text-decoration="underline" textLength="104" x="640" y="215.0251">Mengeneinheit</text></a><text fill="#000000" font-family="sans-serif" font-size="10" lengthAdjust="spacing" textLength="130" x="627" y="227.6091">bo4e.enum.mengeneinheit</text></g><!--class Menge--><g id="elem_Menge"><rect codeLine="3" fill="#F1F1F1" height="78.5313" id="Menge" rx="2.5" ry="2.5" style="stroke:#181818;stroke-width:0.5;" width="460" x="7" y="120.73"/><ellipse cx="190.25" cy="139.6988" fill="#ADD1B2" rx="11" ry="11" style="stroke:#181818;stroke-width:1.0;"/><path d="M193.2188,145.3394 Q192.6406,145.6363 192,145.7769 Q191.3594,145.9331 190.6563,145.9331 Q188.1563,145.9331 186.8281,144.2925 Q185.5156,142.6363 185.5156,139.5113 Q185.5156,136.3863 186.8281,134.73 Q188.1563,133.0738 190.6563,133.0738 Q191.3594,133.0738 192,133.23 Q192.6563,133.3863 193.2188,133.6831 L193.2188,136.4019 Q192.5938,135.8238 192,135.5581 Q191.4063,135.2769 190.7813,135.2769 Q189.4375,135.2769 188.75,136.355 Q188.0625,137.4175 188.0625,139.5113 Q188.0625,141.605 188.75,142.6831 Q189.4375,143.7456 190.7813,143.7456 Q191.4063,143.7456 192,143.48 Q192.5938,143.1988 193.2188,142.6206 L193.2188,145.3394 Z " fill="#000000"/><a href="https://bo4e.github.io/BO4E-python/v202501.0.0/api/bo4e.com.html#bo4e.com.menge.Menge" target="_top" title="https://bo4e.github.io/BO4E-python/v202501.0.0/api/bo4e.com.html#bo4e.com.menge.Menge" xlink:actuate="onRequest" xlink:href="https://bo4e.github.io/BO4E-python/v202501.0.0/api/bo4e.com.html#bo4e.com.menge.Menge" xlink:show="new" xlink:title="https://bo4e.github.io/BO4E-python/v202501.0.0/api/bo4e.com.html#bo4e.com.menge.Menge" xlink:type="simple"><text fill="#0000FF" font-family="sans-serif" font-size="14" lengthAdjust="spacing" text-decoration="underline" textLength="48" x="229.25" y="138.7251">Menge</text></a><text fill="#000000" font-family="sans-serif" font-size="10" lengthAdjust="spacing" textLength="85" x="210.75" y="151.3091">bo4e.com.menge</text><line style="stroke:#181818;stroke-width:0.5;" x1="8" x2="466" y1="158.6675" y2="158.6675"/><text fill="#000000" font-family="sans-serif" font-size="14" lengthAdjust="spacing" textLength="448" x="13" y="175.6626">_typ : Literal[&lt;ComTyp.MENGE: 'MENGE'&gt;] [1] = ComTyp.MENGE</text><text fill="#000000" font-family="sans-serif" font-size="14" lengthAdjust="spacing" textLength="195" x="13" y="191.9595">wert : Decimal [0..1] = None</text></g><!--link Menge to COM--><g id="link_Menge_COM"><path codeLine="15" d="M467.34,130.29 C527.42,122.51 568.7095,117.165 608.9595,111.945 " fill="none" id="Menge-to-COM" style="stroke:#181818;stroke-width:1.0;"/><polygon fill="none" points="626.81,109.63,608.1878,105.9949,609.7312,117.8952,626.81,109.63" style="stroke:#181818;stroke-width:1.0;"/></g><!--link Menge to Mengeneinheit--><g id="link_Menge_Mengeneinheit"><path codeLine="16" d="M467.34,189.19 C514.28,195.16 548.7361,199.5444 585.9661,204.2844 " fill="none" id="Menge-to-Mengeneinheit" style="stroke:#181818;stroke-width:1.0;"/><polygon fill="#181818" points="597.87,205.8,592.4232,201.0742,585.9661,204.2844,591.4129,209.0102,597.87,205.8" style="stroke:#181818;stroke-width:1.0;"/><text fill="#000000" font-family="sans-serif" font-size="13" lengthAdjust="spacing" textLength="43" x="498" y="190.0669">einheit</text><text fill="#000000" font-family="sans-serif" font-size="13" lengthAdjust="spacing" textLength="24" x="565.8666" y="217.6407">0..1</text></g><!--SRC=[jP9TRu8m58QlxQyuWGkJ9HPmkXZYJ3PdTZFdpUuOMH2EjWbj2QqpxkE_ZwBuCNVfBax9otbR-XpU71S6Z8AIBvc1Z9UO6gua8McUQ0rE535Z2Xrwtbpra2wvOQivvSgxd_KcdM9Zc9BUUzVlzls0-jJtae9lhQaIb1cHktibK2wHJkqAzHh7htAe-GU6WJywjJcGwAq9FadhpMmA2E696ooJF1gEbNZP57GwUNwSXD2kd-rH354GmoqSTqbhZQMfzZvWoaMIG-HJMhkUbKJoJOXC1EeYIV4IiD2eEAu96WdknByRt8mjp3zCrjPuDeMg_fvfLVLzAaF5V15abAjZPYkFeQq6DmlIw_xW8jJxxxa7MKT58fSCkTacgr5meiwdShx_4BdcZOt7Bg-TpjTe_pVjh9j6rRa2nuRAEO3_kae8pO64yGn1e9XZgObcQWsxSnOSyqp_0000]--></g></svg>