<?xml version="1.0" encoding="us-ascii" standalone="no"?><svg xmlns="http://www.w3.org/2000/svg" xmlns:xlink="http://www.w3.org/1999/xlink" contentStyleType="text/css" height="355px" preserveAspectRatio="none" style="width:1068px;height:355px;background:#FFFFFF;" version="1.1" viewBox="0 0 1068 355" width="1068px" zoomAndPan="magnify"><defs/><g><!--cluster bo4e--><g id="cluster_bo4e"><path d="M814.5,6 L855.5,6 A3.75,3.75 0 0 1 858,8.5 L865,28.2969 L1058.5,28.2969 A2.5,2.5 0 0 1 1061,30.7969 L1061,345.5 A2.5,2.5 0 0 1 1058.5,348 L814.5,348 A2.5,2.5 0 0 1 812,345.5 L812,8.5 A2.5,2.5 0 0 1 814.5,6 " fill="none" style="stroke:#000000;stroke-width:1.5;"/><line style="stroke:#000000;stroke-width:1.5;" x1="812" x2="865" y1="28.2969" y2="28.2969"/><text fill="#000000" font-family="sans-serif" font-size="14" font-weight="bold" lengthAdjust="spacing" textLength="40" x="816" y="20.9951">bo4e</text></g><!--cluster com--><g id="cluster_com"><path d="M860,49 L939,49 A3.75,3.75 0 0 1 941.5,51.5 L948.5,71.2969 L1013,71.2969 A2.5,2.5 0 0 1 1015.5,73.7969 L1015.5,208.5 A2.5,2.5 0 0 1 1013,211 L860,211 A2.5,2.5 0 0 1 857.5,208.5 L857.5,51.5 A2.5,2.5 0 0 1 860,49 " fill="#E0A86C" style="stroke:#000000;stroke-width:1.5;"/><line style="stroke:#000000;stroke-width:1.5;" x1="857.5" x2="948.5" y1="71.2969" y2="71.2969"/><a href="https://bo4e.github.io/BO4E-python/v202501.0.0/api/bo4e.com.html" target="_top" title="https://bo4e.github.io/BO4E-python/v202501.0.0/api/bo4e.com.html" xlink:actuate="onRequest" xlink:href="https://bo4e.github.io/BO4E-python/v202501.0.0/api/bo4e.com.html" xlink:show="new" xlink:title="https://bo4e.github.io/BO4E-python/v202501.0.0/api/bo4e.com.html" xlink:type="simple"><text fill="#0000FF" font-family="sans-serif" font-size="14" font-weight="bold" lengthAdjust="spacing" text-decoration="underline" textLength="78" x="861.5" y="63.9951">bo4e.com</text></a></g><!--cluster enum--><g id="cluster_enum"><path d="M838.5,235 L928.5,235 A3.75,3.75 0 0 1 931,237.5 L938,257.2969 L1034.5,257.2969 A2.5,2.5 0 0 1 1037,259.7969 L1037,321.5 A2.5,2.5 0 0 1 1034.5,324 L838.5,324 A2.5,2.5 0 0 1 836,321.5 L836,237.5 A2.5,2.5 0 0 1 838.5,235 " fill="#D1C358" style="stroke:#000000;stroke-width:1.5;"/><line style="stroke:#000000;stroke-width:1.5;" x1="836" x2="938" y1="257.2969" y2="257.2969"/><a href="https://bo4e.github.io/BO4E-python/v202501.0.0/api/bo4e.enum.html" target="_top" title="https://bo4e.github.io/BO4E-python/v202501.0.0/api/bo4e.enum.html" xlink:actuate="onRequest" xlink:href="https://bo4e.github.io/BO4E-python/v202501.0.0/api/bo4e.enum.html" xlink:show="new" xlink:title="https://bo4e.github.io/BO4E-python/v202501.0.0/api/bo4e.enum.html" xlink:type="simple"><text fill="#0000FF" font-family="sans-serif" font-size="14" font-weight="bold" lengthAdjust="spacing" text-decoration="underline" textLength="89" x="840" y="249.9951">bo4e.enum</text></a></g><!--class Zeitraum--><g id="elem_Zeitraum"><rect codeLine="9" fill="#F1F1F1" height="37.9375" id="Zeitraum" rx="2.5" ry="2.5" style="stroke:#181818;stroke-width:0.5;" width="126" x="873.5" y="84.03"/><ellipse cx="888.5" cy="102.9987" fill="#ADD1B2" rx="11" ry="11" style="stroke:#181818;stroke-width:1.0;"/><path d="M891.4688,108.6394 Q890.8906,108.9362 890.25,109.0769 Q889.6094,109.2331 888.9063,109.2331 Q886.4063,109.2331 885.0781,107.5925 Q883.7656,105.9362 883.7656,102.8112 Q883.7656,99.6862 885.0781,98.03 Q886.4063,96.3737 888.9063,96.3737 Q889.6094,96.3737 890.25,96.53 Q890.9063,96.6862 891.4688,96.9831 L891.4688,99.7019 Q890.8438,99.1237 890.25,98.8581 Q889.6563,98.5769 889.0313,98.5769 Q887.6875,98.5769 887,99.655 Q886.3125,100.7175 886.3125,102.8112 Q886.3125,104.905 887,105.9831 Q887.6875,107.0456 889.0313,107.0456 Q889.6563,107.0456 890.25,106.78 Q890.8438,106.4987 891.4688,105.9206 L891.4688,108.6394 Z " fill="#000000"/><a href="https://bo4e.github.io/BO4E-python/v202501.0.0/api/bo4e.com.html#bo4e.com.zeitraum.Zeitraum" target="_top" title="https://bo4e.github.io/BO4E-python/v202501.0.0/api/bo4e.com.html#bo4e.com.zeitraum.Zeitraum" xlink:actuate="onRequest" xlink:href="https://bo4e.github.io/BO4E-python/v202501.0.0/api/bo4e.com.html#bo4e.com.zeitraum.Zeitraum" xlink:show="new" xlink:title="https://bo4e.github.io/BO4E-python/v202501.0.0/api/bo4e.com.html#bo4e.com.zeitraum.Zeitraum" xlink:type="simple"><text fill="#0000FF" font-family="sans-serif" font-size="14" lengthAdjust="spacing" text-decoration="underline" textLength="62" x="918.5" y="102.0251">Zeitraum</text></a><text fill="#000000" font-family="sans-serif" font-size="10" lengthAdjust="spacing" textLength="94" x="902.5" y="114.6091">bo4e.com.zeitraum</text></g><!--class COM--><g id="elem_COM"><rect codeLine="10" fill="#F1F1F1" height="37.9375" id="COM" rx="2.5" ry="2.5" style="stroke:#181818;stroke-width:0.5;" width="104" x="884.5" y="157.03"/><ellipse cx="899.5" cy="175.9988" fill="#ADD1B2" rx="11" ry="11" style="stroke:#181818;stroke-width:1.0;"/><path d="M902.4688,181.6394 Q901.8906,181.9363 901.25,182.0769 Q900.6094,182.2331 899.9063,182.2331 Q897.4063,182.2331 896.0781,180.5925 Q894.7656,178.9363 894.7656,175.8113 Q894.7656,172.6863 896.0781,171.03 Q897.4063,169.3738 899.9063,169.3738 Q900.6094,169.3738 901.25,169.53 Q901.9063,169.6863 902.4688,169.9831 L902.4688,172.7019 Q901.8438,172.1238 901.25,171.8581 Q900.6563,171.5769 900.0313,171.5769 Q898.6875,171.5769 898,172.655 Q897.3125,173.7175 897.3125,175.8113 Q897.3125,177.905 898,178.9831 Q898.6875,180.0456 900.0313,180.0456 Q900.6563,180.0456 901.25,179.78 Q901.8438,179.4988 902.4688,178.9206 L902.4688,181.6394 Z " fill="#000000"/><a href="https://bo4e.github.io/BO4E-python/v202501.0.0/api/bo4e.com.html#bo4e.com.com.COM" target="_top" title="https://bo4e.github.io/BO4E-python/v202501.0.0/api/bo4e.com.html#bo4e.com.com.COM" xlink:actuate="onRequest" xlink:href="https://bo4e.github.io/BO4E-python/v202501.0.0/api/bo4e.com.html#bo4e.com.com.COM" xlink:show="new" xlink:title="https://bo4e.github.io/BO4E-python/v202501.0.0/api/bo4e.com.html#bo4e.com.com.COM" xlink:type="simple"><text fill="#0000FF" font-family="sans-serif" font-size="14" lengthAdjust="spacing" text-decoration="underline" textLength="33" x="933" y="175.0251">COM</text></a><text fill="#000000" font-family="sans-serif" font-size="10" lengthAdjust="spacing" textLength="72" x="913.5" y="187.6091">bo4e.com.com</text></g><!--class Preisgarantietyp--><g id="elem_Preisgarantietyp"><rect codeLine="13" fill="#F1F1F1" height="37.9375" id="Preisgarantietyp" rx="2.5" ry="2.5" style="stroke:#181818;stroke-width:0.5;" width="169" x="852" y="270.03"/><ellipse cx="867" cy="288.9988" fill="#ADD1B2" rx="11" ry="11" style="stroke:#181818;stroke-width:1.0;"/><path d="M869.9688,294.6394 Q869.3906,294.9363 868.75,295.0769 Q868.1094,295.2331 867.4063,295.2331 Q864.9063,295.2331 863.5781,293.5925 Q862.2656,291.9363 862.2656,288.8113 Q862.2656,285.6863 863.5781,284.03 Q864.9063,282.3738 867.4063,282.3738 Q868.1094,282.3738 868.75,282.53 Q869.4063,282.6863 869.9688,282.9831 L869.9688,285.7019 Q869.3438,285.1238 868.75,284.8581 Q868.1563,284.5769 867.5313,284.5769 Q866.1875,284.5769 865.5,285.655 Q864.8125,286.7175 864.8125,288.8113 Q864.8125,290.905 865.5,291.9831 Q866.1875,293.0456 867.5313,293.0456 Q868.1563,293.0456 868.75,292.78 Q869.3438,292.4988 869.9688,291.9206 L869.9688,294.6394 Z " fill="#000000"/><a href="https://bo4e.github.io/BO4E-python/v202501.0.0/api/bo4e.enum.html#bo4e.enum.preisgarantietyp.Preisgarantietyp" target="_top" title="https://bo4e.github.io/BO4E-python/v202501.0.0/api/bo4e.enum.html#bo4e.enum.preisgarantietyp.Preisgarantietyp" xlink:actuate="onRequest" xlink:href="https://bo4e.github.io/BO4E-python/v202501.0.0/api/bo4e.enum.html#bo4e.enum.preisgarantietyp.Preisgarantietyp" xlink:show="new" xlink:title="https://bo4e.github.io/BO4E-python/v202501.0.0/api/bo4e.enum.html#bo4e.enum.preisgarantietyp.Preisgarantietyp" xlink:type="simple"><text fill="#0000FF" font-family="sans-serif" font-size="14" lengthAdjust="spacing" text-decoration="underline" textLength="111" x="894" y="288.0251">Preisgarantietyp</text></a><text fill="#000000" font-family="sans-serif" font-size="10" lengthAdjust="spacing" textLength="137" x="881" y="300.6091">bo4e.enum.preisgarantietyp</text></g><!--class Preisgarantie--><g id="elem_Preisgarantie"><rect codeLine="3" fill="#F1F1F1" height="78.5313" id="Preisgarantie" rx="2.5" ry="2.5" style="stroke:#181818;stroke-width:0.5;" width="637" x="7" y="136.73"/><ellipse cx="264.25" cy="155.6988" fill="#ADD1B2" rx="11" ry="11" style="stroke:#181818;stroke-width:1.0;"/><path d="M267.2188,161.3394 Q266.6406,161.6363 266,161.7769 Q265.3594,161.9331 264.6563,161.9331 Q262.1563,161.9331 260.8281,160.2925 Q259.5156,158.6363 259.5156,155.5113 Q259.5156,152.3863 260.8281,150.73 Q262.1563,149.0738 264.6563,149.0738 Q265.3594,149.0738 266,149.23 Q266.6563,149.3863 267.2188,149.6831 L267.2188,152.4019 Q266.5938,151.8238 266,151.5581 Q265.4063,151.2769 264.7813,151.2769 Q263.4375,151.2769 262.75,152.355 Q262.0625,153.4175 262.0625,155.5113 Q262.0625,157.605 262.75,158.6831 Q263.4375,159.7456 264.7813,159.7456 Q265.4063,159.7456 266,159.48 Q266.5938,159.1988 267.2188,158.6206 L267.2188,161.3394 Z " fill="#000000"/><a href="https://bo4e.github.io/BO4E-python/v202501.0.0/api/bo4e.com.html#bo4e.com.preisgarantie.Preisgarantie" target="_top" title="https://bo4e.github.io/BO4E-python/v202501.0.0/api/bo4e.com.html#bo4e.com.preisgarantie.Preisgarantie" xlink:actuate="onRequest" xlink:href="https://bo4e.github.io/BO4E-python/v202501.0.0/api/bo4e.com.html#bo4e.com.preisgarantie.Preisgarantie" xlink:show="new" xlink:title="https://bo4e.github.io/BO4E-python/v202501.0.0/api/bo4e.com.html#bo4e.com.preisgarantie.Preisgarantie" xlink:type="simple"><text fill="#0000FF" font-family="sans-serif" font-size="14" lengthAdjust="spacing" text-decoration="underline" textLength="90" x="296.75" y="154.7251">Preisgarantie</text></a><text fill="#000000" font-family="sans-serif" font-size="10" lengthAdjust="spacing" textLength="114" x="284.75" y="167.3091">bo4e.com.preisgarantie</text><line style="stroke:#181818;stroke-width:0.5;" x1="8" x2="643" y1="174.6675" y2="174.6675"/><text fill="#000000" font-family="sans-serif" font-size="14" lengthAdjust="spacing" textLength="625" x="13" y="191.6626">_typ : Literal[&lt;ComTyp.PREISGARANTIE: 'PREISGARANTIE'&gt;] [1] = ComTyp.PREISGARANTIE</text><text fill="#000000" font-family="sans-serif" font-size="14" lengthAdjust="spacing" textLength="224" x="13" y="207.9595">beschreibung : str [0..1] = None</text></g><!--link Preisgarantie to COM--><g id="link_Preisgarantie_COM"><path codeLine="16" d="M644.38,176 C737.68,176 811.3,176 866.11,176 " fill="none" id="Preisgarantie-to-COM" style="stroke:#181818;stroke-width:1.0;"/><polygon fill="none" points="884.11,176,866.11,170,866.11,182,884.11,176" style="stroke:#181818;stroke-width:1.0;"/></g><!--link Preisgarantie to Preisgarantietyp--><g id="link_Preisgarantie_Preisgarantietyp"><path codeLine="17" d="M540.78,215.76 C648.01,235.66 759.8515,256.4104 839.7615,271.2404 " fill="none" id="Preisgarantie-to-Preisgarantietyp" style="stroke:#181818;stroke-width:1.0;"/><polygon fill="#181818" points="851.56,273.43,846.3906,268.4023,839.7615,271.2404,844.9309,276.268,851.56,273.43" style="stroke:#181818;stroke-width:1.0;"/><text fill="#000000" font-family="sans-serif" font-size="13" lengthAdjust="spacing" textLength="104" x="683" y="239.0669">preisgarantietyp</text><text fill="#000000" font-family="sans-serif" font-size="13" lengthAdjust="spacing" textLength="24" x="820.138" y="284.8842">0..1</text></g><!--link Preisgarantie to Zeitraum--><g id="link_Preisgarantie_Zeitraum"><path codeLine="18" d="M644.38,137.9 C731.76,127.42 805.7652,118.5477 861.3452,111.8877 " fill="none" id="Preisgarantie-to-Zeitraum" style="stroke:#181818;stroke-width:1.0;"/><polygon fill="#181818" points="873.26,110.46,866.8267,107.2023,861.3452,111.8877,867.7785,115.1454,873.26,110.46" style="stroke:#181818;stroke-width:1.0;"/><text fill="#000000" font-family="sans-serif" font-size="13" lengthAdjust="spacing" textLength="120" x="675" y="117.0669">zeitlicheGueltigkeit</text><text fill="#000000" font-family="sans-serif" font-size="13" lengthAdjust="spacing" textLength="24" x="841.5009" y="124.0766">0..1</text></g><!--SRC=[jLFVIyCm47usVyMnFGo4fPqwaQA3ESOGr8dwP2sITcSJR9lIfCgc_kycqywjA_Wo7mxo7T_zo7rt2Jvhq18A4NCDCr5Wf8NC28aIfXIqV9zhdIlFSK9vX3GMcfSX5T8vdnwDk_bSSvavhmVkGT_jKPUw3il5DpMIAUKwJTehb1SeLCmAbcc1z6OTmGOAWiViL8a5UZrtq1pU0gOsW-2Tx3tfUGuUN0gD1Klyqv5Cx-SvlRaTNznDXhV3w_kBiGUT3TmP1E3t0ZY39ZRP2r55t1GAoomskPKkm7SfNKPSomp99o4PIr7bBC9T30mg50JBNrOGscDtU78yiX_z1tKMA7J1ofG-_3oWUZJBKV6NFLRKV-dCscXw1SQQMp6sxC8GZ1ex4GEpSbqD2zVbi1ZQirvqs3_PYHwhUkrVkB7mscvcpG5rn_Pu6XDj7uznsZsk7MMt-p5OhP-Le4umZ7resMje_SvbkqqFwXtycSWMN2sY1tRP4X5nd9IOQ16_64m85pE45DCG2qKKbszGI_iiC9cfBm00]--></g></svg>