<?xml version="1.0" encoding="us-ascii" standalone="no"?><svg xmlns="http://www.w3.org/2000/svg" xmlns:xlink="http://www.w3.org/1999/xlink" contentStyleType="text/css" height="428px" preserveAspectRatio="none" style="width:817px;height:428px;background:#FFFFFF;" version="1.1" viewBox="0 0 817 428" width="817px" zoomAndPan="magnify"><defs/><g><!--cluster bo4e--><g id="cluster_bo4e"><path d="M557.5,6 L598.5,6 A3.75,3.75 0 0 1 601,8.5 L608,28.2969 L807.5,28.2969 A2.5,2.5 0 0 1 810,30.7969 L810,418.5 A2.5,2.5 0 0 1 807.5,421 L557.5,421 A2.5,2.5 0 0 1 555,418.5 L555,8.5 A2.5,2.5 0 0 1 557.5,6 " fill="none" style="stroke:#000000;stroke-width:1.5;"/><line style="stroke:#000000;stroke-width:1.5;" x1="555" x2="608" y1="28.2969" y2="28.2969"/><text fill="#000000" font-family="sans-serif" font-size="14" font-weight="bold" lengthAdjust="spacing" textLength="40" x="559" y="20.9951">bo4e</text></g><!--cluster com--><g id="cluster_com"><path d="M617,49 L696,49 A3.75,3.75 0 0 1 698.5,51.5 L705.5,71.2969 L748,71.2969 A2.5,2.5 0 0 1 750.5,73.7969 L750.5,135.5 A2.5,2.5 0 0 1 748,138 L617,138 A2.5,2.5 0 0 1 614.5,135.5 L614.5,51.5 A2.5,2.5 0 0 1 617,49 " fill="#E0A86C" style="stroke:#000000;stroke-width:1.5;"/><line style="stroke:#000000;stroke-width:1.5;" x1="614.5" x2="705.5" y1="71.2969" y2="71.2969"/><a href="https://bo4e.github.io/BO4E-python/v202501.0.0/api/bo4e.com.html" target="_top" title="https://bo4e.github.io/BO4E-python/v202501.0.0/api/bo4e.com.html" xlink:actuate="onRequest" xlink:href="https://bo4e.github.io/BO4E-python/v202501.0.0/api/bo4e.com.html" xlink:show="new" xlink:title="https://bo4e.github.io/BO4E-python/v202501.0.0/api/bo4e.com.html" xlink:type="simple"><text fill="#0000FF" font-family="sans-serif" font-size="14" font-weight="bold" lengthAdjust="spacing" text-decoration="underline" textLength="78" x="618.5" y="63.9951">bo4e.com</text></a></g><!--cluster enum--><g id="cluster_enum"><path d="M581.5,162 L671.5,162 A3.75,3.75 0 0 1 674,164.5 L681,184.2969 L783.5,184.2969 A2.5,2.5 0 0 1 786,186.7969 L786,394.5 A2.5,2.5 0 0 1 783.5,397 L581.5,397 A2.5,2.5 0 0 1 579,394.5 L579,164.5 A2.5,2.5 0 0 1 581.5,162 " fill="#D1C358" style="stroke:#000000;stroke-width:1.5;"/><line style="stroke:#000000;stroke-width:1.5;" x1="579" x2="681" y1="184.2969" y2="184.2969"/><a href="https://bo4e.github.io/BO4E-python/v202501.0.0/api/bo4e.enum.html" target="_top" title="https://bo4e.github.io/BO4E-python/v202501.0.0/api/bo4e.enum.html" xlink:actuate="onRequest" xlink:href="https://bo4e.github.io/BO4E-python/v202501.0.0/api/bo4e.enum.html" xlink:show="new" xlink:title="https://bo4e.github.io/BO4E-python/v202501.0.0/api/bo4e.enum.html" xlink:type="simple"><text fill="#0000FF" font-family="sans-serif" font-size="14" font-weight="bold" lengthAdjust="spacing" text-decoration="underline" textLength="89" x="583" y="176.9951">bo4e.enum</text></a></g><!--class COM--><g id="elem_COM"><rect codeLine="9" fill="#F1F1F1" height="37.9375" id="COM" rx="2.5" ry="2.5" style="stroke:#181818;stroke-width:0.5;" width="104" x="630.5" y="84.03"/><ellipse cx="645.5" cy="102.9987" fill="#ADD1B2" rx="11" ry="11" style="stroke:#181818;stroke-width:1.0;"/><path d="M648.4688,108.6394 Q647.8906,108.9362 647.25,109.0769 Q646.6094,109.2331 645.9063,109.2331 Q643.4063,109.2331 642.0781,107.5925 Q640.7656,105.9362 640.7656,102.8112 Q640.7656,99.6862 642.0781,98.03 Q643.4063,96.3737 645.9063,96.3737 Q646.6094,96.3737 647.25,96.53 Q647.9063,96.6862 648.4688,96.9831 L648.4688,99.7019 Q647.8438,99.1237 647.25,98.8581 Q646.6563,98.5769 646.0313,98.5769 Q644.6875,98.5769 644,99.655 Q643.3125,100.7175 643.3125,102.8112 Q643.3125,104.905 644,105.9831 Q644.6875,107.0456 646.0313,107.0456 Q646.6563,107.0456 647.25,106.78 Q647.8438,106.4987 648.4688,105.9206 L648.4688,108.6394 Z " fill="#000000"/><a href="https://bo4e.github.io/BO4E-python/v202501.0.0/api/bo4e.com.html#bo4e.com.com.COM" target="_top" title="https://bo4e.github.io/BO4E-python/v202501.0.0/api/bo4e.com.html#bo4e.com.com.COM" xlink:actuate="onRequest" xlink:href="https://bo4e.github.io/BO4E-python/v202501.0.0/api/bo4e.com.html#bo4e.com.com.COM" xlink:show="new" xlink:title="https://bo4e.github.io/BO4E-python/v202501.0.0/api/bo4e.com.html#bo4e.com.com.COM" xlink:type="simple"><text fill="#0000FF" font-family="sans-serif" font-size="14" lengthAdjust="spacing" text-decoration="underline" textLength="33" x="679" y="102.0251">COM</text></a><text fill="#000000" font-family="sans-serif" font-size="10" lengthAdjust="spacing" textLength="72" x="659.5" y="114.6091">bo4e.com.com</text></g><!--class Waehrungseinheit--><g id="elem_Waehrungseinheit"><rect codeLine="12" fill="#F1F1F1" height="37.9375" id="Waehrungseinheit" rx="2.5" ry="2.5" style="stroke:#181818;stroke-width:0.5;" width="175" x="595" y="197.03"/><ellipse cx="610" cy="215.9988" fill="#ADD1B2" rx="11" ry="11" style="stroke:#181818;stroke-width:1.0;"/><path d="M612.9688,221.6394 Q612.3906,221.9363 611.75,222.0769 Q611.1094,222.2331 610.4063,222.2331 Q607.9063,222.2331 606.5781,220.5925 Q605.2656,218.9363 605.2656,215.8113 Q605.2656,212.6863 606.5781,211.03 Q607.9063,209.3738 610.4063,209.3738 Q611.1094,209.3738 611.75,209.53 Q612.4063,209.6863 612.9688,209.9831 L612.9688,212.7019 Q612.3438,212.1238 611.75,211.8581 Q611.1563,211.5769 610.5313,211.5769 Q609.1875,211.5769 608.5,212.655 Q607.8125,213.7175 607.8125,215.8113 Q607.8125,217.905 608.5,218.9831 Q609.1875,220.0456 610.5313,220.0456 Q611.1563,220.0456 611.75,219.78 Q612.3438,219.4988 612.9688,218.9206 L612.9688,221.6394 Z " fill="#000000"/><a href="https://bo4e.github.io/BO4E-python/v202501.0.0/api/bo4e.enum.html#bo4e.enum.waehrungseinheit.Waehrungseinheit" target="_top" title="https://bo4e.github.io/BO4E-python/v202501.0.0/api/bo4e.enum.html#bo4e.enum.waehrungseinheit.Waehrungseinheit" xlink:actuate="onRequest" xlink:href="https://bo4e.github.io/BO4E-python/v202501.0.0/api/bo4e.enum.html#bo4e.enum.waehrungseinheit.Waehrungseinheit" xlink:show="new" xlink:title="https://bo4e.github.io/BO4E-python/v202501.0.0/api/bo4e.enum.html#bo4e.enum.waehrungseinheit.Waehrungseinheit" xlink:type="simple"><text fill="#0000FF" font-family="sans-serif" font-size="14" lengthAdjust="spacing" text-decoration="underline" textLength="126" x="632.5" y="215.0251">Waehrungseinheit</text></a><text fill="#000000" font-family="sans-serif" font-size="10" lengthAdjust="spacing" textLength="143" x="624" y="227.6091">bo4e.enum.waehrungseinheit</text></g><!--class Mengeneinheit--><g id="elem_Mengeneinheit"><rect codeLine="13" fill="#F1F1F1" height="37.9375" id="Mengeneinheit" rx="2.5" ry="2.5" style="stroke:#181818;stroke-width:0.5;" width="162" x="601.5" y="270.03"/><ellipse cx="616.5" cy="288.9988" fill="#ADD1B2" rx="11" ry="11" style="stroke:#181818;stroke-width:1.0;"/><path d="M619.4688,294.6394 Q618.8906,294.9363 618.25,295.0769 Q617.6094,295.2331 616.9063,295.2331 Q614.4063,295.2331 613.0781,293.5925 Q611.7656,291.9363 611.7656,288.8113 Q611.7656,285.6863 613.0781,284.03 Q614.4063,282.3738 616.9063,282.3738 Q617.6094,282.3738 618.25,282.53 Q618.9063,282.6863 619.4688,282.9831 L619.4688,285.7019 Q618.8438,285.1238 618.25,284.8581 Q617.6563,284.5769 617.0313,284.5769 Q615.6875,284.5769 615,285.655 Q614.3125,286.7175 614.3125,288.8113 Q614.3125,290.905 615,291.9831 Q615.6875,293.0456 617.0313,293.0456 Q617.6563,293.0456 618.25,292.78 Q618.8438,292.4988 619.4688,291.9206 L619.4688,294.6394 Z " fill="#000000"/><a href="https://bo4e.github.io/BO4E-python/v202501.0.0/api/bo4e.enum.html#bo4e.enum.mengeneinheit.Mengeneinheit" target="_top" title="https://bo4e.github.io/BO4E-python/v202501.0.0/api/bo4e.enum.html#bo4e.enum.mengeneinheit.Mengeneinheit" xlink:actuate="onRequest" xlink:href="https://bo4e.github.io/BO4E-python/v202501.0.0/api/bo4e.enum.html#bo4e.enum.mengeneinheit.Mengeneinheit" xlink:show="new" xlink:title="https://bo4e.github.io/BO4E-python/v202501.0.0/api/bo4e.enum.html#bo4e.enum.mengeneinheit.Mengeneinheit" xlink:type="simple"><text fill="#0000FF" font-family="sans-serif" font-size="14" lengthAdjust="spacing" text-decoration="underline" textLength="104" x="643.5" y="288.0251">Mengeneinheit</text></a><text fill="#000000" font-family="sans-serif" font-size="10" lengthAdjust="spacing" textLength="130" x="630.5" y="300.6091">bo4e.enum.mengeneinheit</text></g><!--class Preisstatus--><g id="elem_Preisstatus"><rect codeLine="14" fill="#F1F1F1" height="37.9375" id="Preisstatus" rx="2.5" ry="2.5" style="stroke:#181818;stroke-width:0.5;" width="143" x="611" y="343.03"/><ellipse cx="626" cy="361.9988" fill="#ADD1B2" rx="11" ry="11" style="stroke:#181818;stroke-width:1.0;"/><path d="M628.9688,367.6394 Q628.3906,367.9363 627.75,368.0769 Q627.1094,368.2331 626.4063,368.2331 Q623.9063,368.2331 622.5781,366.5925 Q621.2656,364.9363 621.2656,361.8113 Q621.2656,358.6863 622.5781,357.03 Q623.9063,355.3738 626.4063,355.3738 Q627.1094,355.3738 627.75,355.53 Q628.4063,355.6863 628.9688,355.9831 L628.9688,358.7019 Q628.3438,358.1238 627.75,357.8581 Q627.1563,357.5769 626.5313,357.5769 Q625.1875,357.5769 624.5,358.655 Q623.8125,359.7175 623.8125,361.8113 Q623.8125,363.905 624.5,364.9831 Q625.1875,366.0456 626.5313,366.0456 Q627.1563,366.0456 627.75,365.78 Q628.3438,365.4988 628.9688,364.9206 L628.9688,367.6394 Z " fill="#000000"/><a href="https://bo4e.github.io/BO4E-python/v202501.0.0/api/bo4e.enum.html#bo4e.enum.preisstatus.Preisstatus" target="_top" title="https://bo4e.github.io/BO4E-python/v202501.0.0/api/bo4e.enum.html#bo4e.enum.preisstatus.Preisstatus" xlink:actuate="onRequest" xlink:href="https://bo4e.github.io/BO4E-python/v202501.0.0/api/bo4e.enum.html#bo4e.enum.preisstatus.Preisstatus" xlink:show="new" xlink:title="https://bo4e.github.io/BO4E-python/v202501.0.0/api/bo4e.enum.html#bo4e.enum.preisstatus.Preisstatus" xlink:type="simple"><text fill="#0000FF" font-family="sans-serif" font-size="14" lengthAdjust="spacing" text-decoration="underline" textLength="77" x="657" y="361.0251">Preisstatus</text></a><text fill="#000000" font-family="sans-serif" font-size="10" lengthAdjust="spacing" textLength="111" x="640" y="373.6091">bo4e.enum.preisstatus</text></g><!--class Preis--><g id="elem_Preis"><rect codeLine="3" fill="#F1F1F1" height="78.5313" id="Preis" rx="2.5" ry="2.5" style="stroke:#181818;stroke-width:0.5;" width="427" x="7" y="217.73"/><ellipse cx="179.25" cy="236.6988" fill="#ADD1B2" rx="11" ry="11" style="stroke:#181818;stroke-width:1.0;"/><path d="M182.2188,242.3394 Q181.6406,242.6363 181,242.7769 Q180.3594,242.9331 179.6563,242.9331 Q177.1563,242.9331 175.8281,241.2925 Q174.5156,239.6363 174.5156,236.5113 Q174.5156,233.3863 175.8281,231.73 Q177.1563,230.0738 179.6563,230.0738 Q180.3594,230.0738 181,230.23 Q181.6563,230.3863 182.2188,230.6831 L182.2188,233.4019 Q181.5938,232.8238 181,232.5581 Q180.4063,232.2769 179.7813,232.2769 Q178.4375,232.2769 177.75,233.355 Q177.0625,234.4175 177.0625,236.5113 Q177.0625,238.605 177.75,239.6831 Q178.4375,240.7456 179.7813,240.7456 Q180.4063,240.7456 181,240.48 Q181.5938,240.1988 182.2188,239.6206 L182.2188,242.3394 Z " fill="#000000"/><a href="https://bo4e.github.io/BO4E-python/v202501.0.0/api/bo4e.com.html#bo4e.com.preis.Preis" target="_top" title="https://bo4e.github.io/BO4E-python/v202501.0.0/api/bo4e.com.html#bo4e.com.preis.Preis" xlink:actuate="onRequest" xlink:href="https://bo4e.github.io/BO4E-python/v202501.0.0/api/bo4e.com.html#bo4e.com.preis.Preis" xlink:show="new" xlink:title="https://bo4e.github.io/BO4E-python/v202501.0.0/api/bo4e.com.html#bo4e.com.preis.Preis" xlink:type="simple"><text fill="#0000FF" font-family="sans-serif" font-size="14" lengthAdjust="spacing" text-decoration="underline" textLength="34" x="219.75" y="235.7251">Preis</text></a><text fill="#000000" font-family="sans-serif" font-size="10" lengthAdjust="spacing" textLength="74" x="199.75" y="248.3091">bo4e.com.preis</text><line style="stroke:#181818;stroke-width:0.5;" x1="8" x2="433" y1="255.6675" y2="255.6675"/><text fill="#000000" font-family="sans-serif" font-size="14" lengthAdjust="spacing" textLength="415" x="13" y="272.6626">_typ : Literal[&lt;ComTyp.PREIS: 'PREIS'&gt;] [1] = ComTyp.PREIS</text><text fill="#000000" font-family="sans-serif" font-size="14" lengthAdjust="spacing" textLength="195" x="13" y="288.9595">wert : Decimal [0..1] = None</text></g><!--link Preis to COM--><g id="link_Preis_COM"><path codeLine="17" d="M340.26,217.24 C434.1,185.83 543.4011,149.2342 613.0311,125.9242 " fill="none" id="Preis-to-COM" style="stroke:#181818;stroke-width:1.0;"/><polygon fill="none" points="630.1,120.21,611.1263,120.2345,614.9358,131.6138,630.1,120.21" style="stroke:#181818;stroke-width:1.0;"/></g><!--link Preis to Waehrungseinheit--><g id="link_Preis_Waehrungseinheit"><path codeLine="18" d="M434.33,238.03 C491.02,232.98 537.1473,228.864 582.7573,224.804 " fill="none" id="Preis-to-Waehrungseinheit" style="stroke:#181818;stroke-width:1.0;"/><polygon fill="#181818" points="594.71,223.74,588.379,220.2877,582.7573,224.804,589.0883,228.2562,594.71,223.74" style="stroke:#181818;stroke-width:1.0;"/><text fill="#000000" font-family="sans-serif" font-size="13" lengthAdjust="spacing" textLength="43" x="480" y="226.0669">einheit</text><text fill="#000000" font-family="sans-serif" font-size="13" lengthAdjust="spacing" textLength="24" x="563.0698" y="236.9789">0..1</text></g><!--link Preis to Mengeneinheit--><g id="link_Preis_Mengeneinheit"><path codeLine="19" d="M434.36,277.83 C444.38,278.61 454.3,279.34 464,280 C509.34,283.09 548.0874,284.8393 589.1374,286.2793 " fill="none" id="Preis-to-Mengeneinheit" style="stroke:#181818;stroke-width:1.0;"/><polygon fill="#181818" points="601.13,286.7,595.2739,282.4921,589.1374,286.2793,594.9935,290.4872,601.13,286.7" style="stroke:#181818;stroke-width:1.0;"/><text fill="#000000" font-family="sans-serif" font-size="13" lengthAdjust="spacing" textLength="73" x="465" y="276.0669">bezugswert</text><text fill="#000000" font-family="sans-serif" font-size="13" lengthAdjust="spacing" textLength="24" x="569.3978" y="299.2031">0..1</text></g><!--link Preis to Preisstatus--><g id="link_Preis_Preisstatus"><path codeLine="20" d="M395.41,296.7 C470.21,313.77 541.7408,330.0999 599.0508,343.1799 " fill="none" id="Preis-to-Preisstatus" style="stroke:#181818;stroke-width:1.0;"/><polygon fill="#181818" points="610.75,345.85,605.7905,340.6152,599.0508,343.1799,604.0104,348.4147,610.75,345.85" style="stroke:#181818;stroke-width:1.0;"/><text fill="#000000" font-family="sans-serif" font-size="13" lengthAdjust="spacing" textLength="40" x="481.5" y="309.0669">status</text><text fill="#000000" font-family="sans-serif" font-size="13" lengthAdjust="spacing" textLength="24" x="579.0293" y="357.1257">0..1</text></g><!--SRC=[jLJ9JiCm43tZhnYr1oIaEYcRK0ILeFI011G14eSG8JSTOak97SKELLd-dJXDsgGif_OmZfzddZrlud6ChmQCWan4tC1KP1WQeIGXOSoqXexlSsDIxJdEH1qYZOJX-OGAvLoC3qUzT6wuaixRlhj_vFQfIrs7fM8H6gg4SfF4tILACnIQtjaHoZ48dkMf5k_ezTr1Ewm3h0g23xBpOkOfU70j36Oiza-7AdcSf_JkVdJruC5k-TqT1E3t0pY3ffVip30p1VSIGv6m67oNqZBgLaaaNuH8bg1EMOYR40ir2e9IGGsXEtBFJuw7LimMAcjjEBw1mdwlQM5bFaL0eNaZab7cJSqMDaLR3DrfFpmuEjc8wkLvtHMSCUHPBYEDGd8KXZwjBS3wmi_o_BfHgMETkoKH2Se8PQtWfecWXVx8lSKl4s-njfHrsQNQC9DNBRsOGsF-HxuDvghB5zZsO_L0z7gVWsNxsCjTEmhF7dHi5tTMD-tdZ_UWrlylhrrk3oRudaVQlXd_yvgIFQYo9rnC4H9C9fXfehcQGRN9gy1ughy1]--></g></svg>