<?xml version="1.0" encoding="us-ascii" standalone="no"?><svg xmlns="http://www.w3.org/2000/svg" xmlns:xlink="http://www.w3.org/1999/xlink" contentStyleType="text/css" height="173px" preserveAspectRatio="none" style="width:963px;height:173px;background:#FFFFFF;" version="1.1" viewBox="0 0 963 173" width="963px" zoomAndPan="magnify"><defs/><g><!--cluster bo4e--><g id="cluster_bo4e"><path d="M774.5,6 L815.5,6 A3.75,3.75 0 0 1 818,8.5 L825,28.2969 L953.5,28.2969 A2.5,2.5 0 0 1 956,30.7969 L956,159.5 A2.5,2.5 0 0 1 953.5,162 L774.5,162 A2.5,2.5 0 0 1 772,159.5 L772,8.5 A2.5,2.5 0 0 1 774.5,6 " fill="none" style="stroke:#000000;stroke-width:1.5;"/><line style="stroke:#000000;stroke-width:1.5;" x1="772" x2="825" y1="28.2969" y2="28.2969"/><text fill="#000000" font-family="sans-serif" font-size="14" font-weight="bold" lengthAdjust="spacing" textLength="40" x="776" y="20.9951">bo4e</text></g><!--cluster com--><g id="cluster_com"><path d="M798.5,49 L877.5,49 A3.75,3.75 0 0 1 880,51.5 L887,71.2969 L929.5,71.2969 A2.5,2.5 0 0 1 932,73.7969 L932,135.5 A2.5,2.5 0 0 1 929.5,138 L798.5,138 A2.5,2.5 0 0 1 796,135.5 L796,51.5 A2.5,2.5 0 0 1 798.5,49 " fill="#E0A86C" style="stroke:#000000;stroke-width:1.5;"/><line style="stroke:#000000;stroke-width:1.5;" x1="796" x2="887" y1="71.2969" y2="71.2969"/><a href="https://bo4e.github.io/BO4E-python/v202501.0.0/api/bo4e.com.html" target="_top" title="https://bo4e.github.io/BO4E-python/v202501.0.0/api/bo4e.com.html" xlink:actuate="onRequest" xlink:href="https://bo4e.github.io/BO4E-python/v202501.0.0/api/bo4e.com.html" xlink:show="new" xlink:title="https://bo4e.github.io/BO4E-python/v202501.0.0/api/bo4e.com.html" xlink:type="simple"><text fill="#0000FF" font-family="sans-serif" font-size="14" font-weight="bold" lengthAdjust="spacing" text-decoration="underline" textLength="78" x="800" y="63.9951">bo4e.com</text></a></g><!--class COM--><g id="elem_COM"><rect codeLine="12" fill="#F1F1F1" height="37.9375" id="COM" rx="2.5" ry="2.5" style="stroke:#181818;stroke-width:0.5;" width="104" x="812" y="84.03"/><ellipse cx="827" cy="102.9988" fill="#ADD1B2" rx="11" ry="11" style="stroke:#181818;stroke-width:1.0;"/><path d="M829.9688,108.6394 Q829.3906,108.9363 828.75,109.0769 Q828.1094,109.2331 827.4063,109.2331 Q824.9063,109.2331 823.5781,107.5925 Q822.2656,105.9363 822.2656,102.8113 Q822.2656,99.6863 823.5781,98.03 Q824.9063,96.3738 827.4063,96.3738 Q828.1094,96.3738 828.75,96.53 Q829.4063,96.6863 829.9688,96.9831 L829.9688,99.7019 Q829.3438,99.1238 828.75,98.8581 Q828.1563,98.5769 827.5313,98.5769 Q826.1875,98.5769 825.5,99.655 Q824.8125,100.7175 824.8125,102.8113 Q824.8125,104.905 825.5,105.9831 Q826.1875,107.0456 827.5313,107.0456 Q828.1563,107.0456 828.75,106.78 Q829.3438,106.4988 829.9688,105.9206 L829.9688,108.6394 Z " fill="#000000"/><a href="https://bo4e.github.io/BO4E-python/v202501.0.0/api/bo4e.com.html#bo4e.com.com.COM" target="_top" title="https://bo4e.github.io/BO4E-python/v202501.0.0/api/bo4e.com.html#bo4e.com.com.COM" xlink:actuate="onRequest" xlink:href="https://bo4e.github.io/BO4E-python/v202501.0.0/api/bo4e.com.html#bo4e.com.com.COM" xlink:show="new" xlink:title="https://bo4e.github.io/BO4E-python/v202501.0.0/api/bo4e.com.html#bo4e.com.com.COM" xlink:type="simple"><text fill="#0000FF" font-family="sans-serif" font-size="14" lengthAdjust="spacing" text-decoration="underline" textLength="33" x="860.5" y="102.0251">COM</text></a><text fill="#000000" font-family="sans-serif" font-size="10" lengthAdjust="spacing" textLength="72" x="841" y="114.6091">bo4e.com.com</text></g><!--class Sigmoidparameter--><g id="elem_Sigmoidparameter"><rect codeLine="3" fill="#F1F1F1" height="127.4219" id="Sigmoidparameter" rx="2.5" ry="2.5" style="stroke:#181818;stroke-width:0.5;" width="745" x="7" y="39.29"/><ellipse cx="305.25" cy="58.2587" fill="#ADD1B2" rx="11" ry="11" style="stroke:#181818;stroke-width:1.0;"/><path d="M308.2188,63.8994 Q307.6406,64.1962 307,64.3369 Q306.3594,64.4931 305.6563,64.4931 Q303.1563,64.4931 301.8281,62.8525 Q300.5156,61.1962 300.5156,58.0712 Q300.5156,54.9462 301.8281,53.29 Q303.1563,51.6337 305.6563,51.6337 Q306.3594,51.6337 307,51.79 Q307.6563,51.9462 308.2188,52.2431 L308.2188,54.9619 Q307.5938,54.3837 307,54.1181 Q306.4063,53.8369 305.7813,53.8369 Q304.4375,53.8369 303.75,54.915 Q303.0625,55.9775 303.0625,58.0712 Q303.0625,60.165 303.75,61.2431 Q304.4375,62.3056 305.7813,62.3056 Q306.4063,62.3056 307,62.04 Q307.5938,61.7587 308.2188,61.1806 L308.2188,63.8994 Z " fill="#000000"/><a href="https://bo4e.github.io/BO4E-python/v202501.0.0/api/bo4e.com.html#bo4e.com.sigmoidparameter.Sigmoidparameter" target="_top" title="https://bo4e.github.io/BO4E-python/v202501.0.0/api/bo4e.com.html#bo4e.com.sigmoidparameter.Sigmoidparameter" xlink:actuate="onRequest" xlink:href="https://bo4e.github.io/BO4E-python/v202501.0.0/api/bo4e.com.html#bo4e.com.sigmoidparameter.Sigmoidparameter" xlink:show="new" xlink:title="https://bo4e.github.io/BO4E-python/v202501.0.0/api/bo4e.com.html#bo4e.com.sigmoidparameter.Sigmoidparameter" xlink:type="simple"><text fill="#0000FF" font-family="sans-serif" font-size="14" lengthAdjust="spacing" text-decoration="underline" textLength="126" x="332.75" y="57.2851">Sigmoidparameter</text></a><text fill="#000000" font-family="sans-serif" font-size="10" lengthAdjust="spacing" textLength="140" x="325.75" y="69.8691">bo4e.com.sigmoidparameter</text><line style="stroke:#181818;stroke-width:0.5;" x1="8" x2="751" y1="77.2275" y2="77.2275"/><text fill="#000000" font-family="sans-serif" font-size="14" lengthAdjust="spacing" textLength="733" x="13" y="94.2226">_typ : Literal[&lt;ComTyp.SIGMOIDPARAMETER: 'SIGMOIDPARAMETER'&gt;] [1] = ComTyp.SIGMOIDPARAMETER</text><text fill="#000000" font-family="sans-serif" font-size="14" lengthAdjust="spacing" textLength="174" x="13" y="110.5195">A : Decimal [0..1] = None</text><text fill="#000000" font-family="sans-serif" font-size="14" lengthAdjust="spacing" textLength="175" x="13" y="126.8164">B : Decimal [0..1] = None</text><text fill="#000000" font-family="sans-serif" font-size="14" lengthAdjust="spacing" textLength="175" x="13" y="143.1132">C : Decimal [0..1] = None</text><text fill="#000000" font-family="sans-serif" font-size="14" lengthAdjust="spacing" textLength="176" x="13" y="159.4101">D : Decimal [0..1] = None</text></g><!--link Sigmoidparameter to COM--><g id="link_Sigmoidparameter_COM"><path codeLine="15" d="M752.3,103 C774.61,103 776.79,103 793.62,103 " fill="none" id="Sigmoidparameter-to-COM" style="stroke:#181818;stroke-width:1.0;"/><polygon fill="none" points="811.62,103,793.62,97,793.62,109,811.62,103" style="stroke:#181818;stroke-width:1.0;"/></g><!--SRC=[jL9DRy8m33sJNs71WHDfG6oQAePKIZKXZJ41jwwQGcj8fAQ9ccmJ-_ZlQvdW0EjjE_ZmdlqisyyvRXqu3QNS2GUPB35rKXU4f3ct5jfnB9mprlUyZHuYtKadNZPKQc-o64OzitT25zxhW0skM9yooZnkv4zfgXKLJkMT4x9ofxJC32-vGeSbNPqHS4uaoLCnil8T_JuRD_Pf0xSNKlWWhMUtD-33lQmmp-DHgDLwR-XgTZTVpAQFmJAOH-jewKFtdEgE4uZx2Tn2WuQqWghp55EfU0une_HG_Q0B9Ar9SofiJaqRKr-45DLMrl0K_y8IEA8aETpk2A4JiU3cEgnlzm_-rn4kvb35xyPMSPYdAgXtlloFNkzpV9gsxaM8a1c2GhN1qX8hz1jSohOIyyn-0m00]--></g></svg>