<?xml version="1.0" encoding="us-ascii" standalone="no"?><svg xmlns="http://www.w3.org/2000/svg" xmlns:xlink="http://www.w3.org/1999/xlink" contentStyleType="text/css" height="242px" preserveAspectRatio="none" style="width:1048px;height:242px;background:#FFFFFF;" version="1.1" viewBox="0 0 1048 242" width="1048px" zoomAndPan="magnify"><defs/><g><!--cluster bo4e--><g id="cluster_bo4e"><path d="M846.5,6 L887.5,6 A3.75,3.75 0 0 1 890,8.5 L897,28.2969 L1038.5,28.2969 A2.5,2.5 0 0 1 1041,30.7969 L1041,232.5 A2.5,2.5 0 0 1 1038.5,235 L846.5,235 A2.5,2.5 0 0 1 844,232.5 L844,8.5 A2.5,2.5 0 0 1 846.5,6 " fill="none" style="stroke:#000000;stroke-width:1.5;"/><line style="stroke:#000000;stroke-width:1.5;" x1="844" x2="897" y1="28.2969" y2="28.2969"/><text fill="#000000" font-family="sans-serif" font-size="14" font-weight="bold" lengthAdjust="spacing" textLength="40" x="848" y="20.9951">bo4e</text></g><!--cluster com--><g id="cluster_com"><path d="M870.5,49 L949.5,49 A3.75,3.75 0 0 1 952,51.5 L959,71.2969 L1014.5,71.2969 A2.5,2.5 0 0 1 1017,73.7969 L1017,208.5 A2.5,2.5 0 0 1 1014.5,211 L870.5,211 A2.5,2.5 0 0 1 868,208.5 L868,51.5 A2.5,2.5 0 0 1 870.5,49 " fill="#E0A86C" style="stroke:#000000;stroke-width:1.5;"/><line style="stroke:#000000;stroke-width:1.5;" x1="868" x2="959" y1="71.2969" y2="71.2969"/><a href="https://bo4e.github.io/BO4E-python/v202501.0.0/api/bo4e.com.html" target="_top" title="https://bo4e.github.io/BO4E-python/v202501.0.0/api/bo4e.com.html" xlink:actuate="onRequest" xlink:href="https://bo4e.github.io/BO4E-python/v202501.0.0/api/bo4e.com.html" xlink:show="new" xlink:title="https://bo4e.github.io/BO4E-python/v202501.0.0/api/bo4e.com.html" xlink:type="simple"><text fill="#0000FF" font-family="sans-serif" font-size="14" font-weight="bold" lengthAdjust="spacing" text-decoration="underline" textLength="78" x="872" y="63.9951">bo4e.com</text></a></g><!--class Menge--><g id="elem_Menge"><rect codeLine="11" fill="#F1F1F1" height="37.9375" id="Menge" rx="2.5" ry="2.5" style="stroke:#181818;stroke-width:0.5;" width="117" x="884" y="84.03"/><ellipse cx="899" cy="102.9988" fill="#ADD1B2" rx="11" ry="11" style="stroke:#181818;stroke-width:1.0;"/><path d="M901.9688,108.6394 Q901.3906,108.9363 900.75,109.0769 Q900.1094,109.2331 899.4063,109.2331 Q896.9063,109.2331 895.5781,107.5925 Q894.2656,105.9363 894.2656,102.8113 Q894.2656,99.6863 895.5781,98.03 Q896.9063,96.3738 899.4063,96.3738 Q900.1094,96.3738 900.75,96.53 Q901.4063,96.6863 901.9688,96.9831 L901.9688,99.7019 Q901.3438,99.1238 900.75,98.8581 Q900.1563,98.5769 899.5313,98.5769 Q898.1875,98.5769 897.5,99.655 Q896.8125,100.7175 896.8125,102.8113 Q896.8125,104.905 897.5,105.9831 Q898.1875,107.0456 899.5313,107.0456 Q900.1563,107.0456 900.75,106.78 Q901.3438,106.4988 901.9688,105.9206 L901.9688,108.6394 Z " fill="#000000"/><a href="https://bo4e.github.io/BO4E-python/v202501.0.0/api/bo4e.com.html#bo4e.com.menge.Menge" target="_top" title="https://bo4e.github.io/BO4E-python/v202501.0.0/api/bo4e.com.html#bo4e.com.menge.Menge" xlink:actuate="onRequest" xlink:href="https://bo4e.github.io/BO4E-python/v202501.0.0/api/bo4e.com.html#bo4e.com.menge.Menge" xlink:show="new" xlink:title="https://bo4e.github.io/BO4E-python/v202501.0.0/api/bo4e.com.html#bo4e.com.menge.Menge" xlink:type="simple"><text fill="#0000FF" font-family="sans-serif" font-size="14" lengthAdjust="spacing" text-decoration="underline" textLength="48" x="931.5" y="102.0251">Menge</text></a><text fill="#000000" font-family="sans-serif" font-size="10" lengthAdjust="spacing" textLength="85" x="913" y="114.6091">bo4e.com.menge</text></g><!--class COM--><g id="elem_COM"><rect codeLine="12" fill="#F1F1F1" height="37.9375" id="COM" rx="2.5" ry="2.5" style="stroke:#181818;stroke-width:0.5;" width="104" x="890.5" y="157.03"/><ellipse cx="905.5" cy="175.9988" fill="#ADD1B2" rx="11" ry="11" style="stroke:#181818;stroke-width:1.0;"/><path d="M908.4688,181.6394 Q907.8906,181.9363 907.25,182.0769 Q906.6094,182.2331 905.9063,182.2331 Q903.4063,182.2331 902.0781,180.5925 Q900.7656,178.9363 900.7656,175.8113 Q900.7656,172.6863 902.0781,171.03 Q903.4063,169.3738 905.9063,169.3738 Q906.6094,169.3738 907.25,169.53 Q907.9063,169.6863 908.4688,169.9831 L908.4688,172.7019 Q907.8438,172.1238 907.25,171.8581 Q906.6563,171.5769 906.0313,171.5769 Q904.6875,171.5769 904,172.655 Q903.3125,173.7175 903.3125,175.8113 Q903.3125,177.905 904,178.9831 Q904.6875,180.0456 906.0313,180.0456 Q906.6563,180.0456 907.25,179.78 Q907.8438,179.4988 908.4688,178.9206 L908.4688,181.6394 Z " fill="#000000"/><a href="https://bo4e.github.io/BO4E-python/v202501.0.0/api/bo4e.com.html#bo4e.com.com.COM" target="_top" title="https://bo4e.github.io/BO4E-python/v202501.0.0/api/bo4e.com.html#bo4e.com.com.COM" xlink:actuate="onRequest" xlink:href="https://bo4e.github.io/BO4E-python/v202501.0.0/api/bo4e.com.html#bo4e.com.com.COM" xlink:show="new" xlink:title="https://bo4e.github.io/BO4E-python/v202501.0.0/api/bo4e.com.html#bo4e.com.com.COM" xlink:type="simple"><text fill="#0000FF" font-family="sans-serif" font-size="14" lengthAdjust="spacing" text-decoration="underline" textLength="33" x="939" y="175.0251">COM</text></a><text fill="#000000" font-family="sans-serif" font-size="10" lengthAdjust="spacing" textLength="72" x="919.5" y="187.6091">bo4e.com.com</text></g><!--class Vertragsteil--><g id="elem_Vertragsteil"><rect codeLine="3" fill="#F1F1F1" height="111.125" id="Vertragsteil" rx="2.5" ry="2.5" style="stroke:#181818;stroke-width:0.5;" width="619" x="7" y="55.44"/><ellipse cx="259.25" cy="74.4088" fill="#ADD1B2" rx="11" ry="11" style="stroke:#181818;stroke-width:1.0;"/><path d="M262.2188,80.0494 Q261.6406,80.3463 261,80.4869 Q260.3594,80.6431 259.6563,80.6431 Q257.1563,80.6431 255.8281,79.0025 Q254.5156,77.3463 254.5156,74.2213 Q254.5156,71.0963 255.8281,69.44 Q257.1563,67.7838 259.6563,67.7838 Q260.3594,67.7838 261,67.94 Q261.6563,68.0963 262.2188,68.3931 L262.2188,71.1119 Q261.5938,70.5338 261,70.2681 Q260.4063,69.9869 259.7813,69.9869 Q258.4375,69.9869 257.75,71.065 Q257.0625,72.1275 257.0625,74.2213 Q257.0625,76.315 257.75,77.3931 Q258.4375,78.4556 259.7813,78.4556 Q260.4063,78.4556 261,78.19 Q261.5938,77.9088 262.2188,77.3306 L262.2188,80.0494 Z " fill="#000000"/><a href="https://bo4e.github.io/BO4E-python/v202501.0.0/api/bo4e.com.html#bo4e.com.vertragsteil.Vertragsteil" target="_top" title="https://bo4e.github.io/BO4E-python/v202501.0.0/api/bo4e.com.html#bo4e.com.vertragsteil.Vertragsteil" xlink:actuate="onRequest" xlink:href="https://bo4e.github.io/BO4E-python/v202501.0.0/api/bo4e.com.html#bo4e.com.vertragsteil.Vertragsteil" xlink:show="new" xlink:title="https://bo4e.github.io/BO4E-python/v202501.0.0/api/bo4e.com.html#bo4e.com.vertragsteil.Vertragsteil" xlink:type="simple"><text fill="#0000FF" font-family="sans-serif" font-size="14" lengthAdjust="spacing" text-decoration="underline" textLength="78" x="293.75" y="73.4351">Vertragsteil</text></a><text fill="#000000" font-family="sans-serif" font-size="10" lengthAdjust="spacing" textLength="106" x="279.75" y="86.0191">bo4e.com.vertragsteil</text><line style="stroke:#181818;stroke-width:0.5;" x1="8" x2="625" y1="93.3775" y2="93.3775"/><text fill="#000000" font-family="sans-serif" font-size="14" lengthAdjust="spacing" textLength="607" x="13" y="110.3726">_typ : Literal[&lt;ComTyp.VERTRAGSTEIL: 'VERTRAGSTEIL'&gt;] [1] = ComTyp.VERTRAGSTEIL</text><text fill="#000000" font-family="sans-serif" font-size="14" lengthAdjust="spacing" textLength="339" x="13" y="126.6695">vertragsteilbeginn : AwareDatetime [0..1] = None</text><text fill="#000000" font-family="sans-serif" font-size="14" lengthAdjust="spacing" textLength="327" x="13" y="142.9664">vertragsteilende : AwareDatetime [0..1] = None</text><text fill="#000000" font-family="sans-serif" font-size="14" lengthAdjust="spacing" textLength="182" x="13" y="159.2632">lokation : str [0..1] = None</text></g><!--link Vertragsteil to COM--><g id="link_Vertragsteil_COM"><path codeLine="15" d="M626.48,145.91 C636.43,146.96 646.29,148 656,149 C737.84,157.46 815.0531,164.6291 872.2331,169.7991 " fill="none" id="Vertragsteil-to-COM" style="stroke:#181818;stroke-width:1.0;"/><polygon fill="none" points="890.16,171.42,872.7734,163.8235,871.6928,175.7747,890.16,171.42" style="stroke:#181818;stroke-width:1.0;"/></g><!--link Vertragsteil to Menge--><g id="link_Vertragsteil_Menge"><path codeLine="16" d="M626.19,57.06 C692.98,52.5 763.04,53.15 828,64 C851.12,67.86 864.6206,71.6027 885.0706,79.3627 " fill="none" id="Vertragsteil-to-Menge" style="stroke:#181818;stroke-width:1.0;"/><polygon fill="#181818" points="896.29,83.62,892.0994,77.7515,885.0706,79.3627,889.2612,85.2311,896.29,83.62" style="stroke:#181818;stroke-width:1.0;"/><text fill="#000000" font-family="sans-serif" font-size="13" lengthAdjust="spacing" textLength="156" x="664" y="51.0669">vertraglichFixierteMenge</text><text fill="#000000" font-family="sans-serif" font-size="13" lengthAdjust="spacing" textLength="24" x="855.1908" y="72.8108">0..1</text></g><!--link Vertragsteil to Menge--><g id="link_Vertragsteil_Menge"><path codeLine="17" d="M626.3,107.04 C724.77,105.78 811.661,104.6638 871.741,103.8938 " fill="none" id="Vertragsteil-to-Menge-1" style="stroke:#181818;stroke-width:1.0;"/><polygon fill="#181818" points="883.74,103.74,877.6892,99.8172,871.741,103.8938,877.7918,107.8166,883.74,103.74" style="stroke:#181818;stroke-width:1.0;"/><text fill="#000000" font-family="sans-serif" font-size="13" lengthAdjust="spacing" textLength="166" x="659" y="101.0669">minimaleAbnahmemenge</text><text fill="#000000" font-family="sans-serif" font-size="13" lengthAdjust="spacing" textLength="24" x="852.0006" y="116.7155">0..1</text></g><!--link Vertragsteil to Menge--><g id="link_Vertragsteil_Menge"><path codeLine="18" d="M626.28,140.18 C692.98,141.88 762.98,140.17 828,132 C846.36,129.69 854.4006,128.3968 872.1006,123.7668 " fill="none" id="Vertragsteil-to-Menge-2" style="stroke:#181818;stroke-width:1.0;"/><polygon fill="#181818" points="883.71,120.73,876.893,118.3786,872.1006,123.7668,878.9176,126.1182,883.71,120.73" style="stroke:#181818;stroke-width:1.0;"/><text fill="#000000" font-family="sans-serif" font-size="13" lengthAdjust="spacing" textLength="170" x="657" y="128.0669">maximaleAbnahmemenge</text><text fill="#000000" font-family="sans-serif" font-size="13" lengthAdjust="spacing" textLength="24" x="851.9673" y="135.5638">0..1</text></g><!--SRC=[jLBRIiD047qsNp7K1q7e9XKL2RLGQnN12sZn9GRPf6DsS2yXkrxgvT_Tf5fRBOYW3xDms7FEpfuPYJSEd86A2k5WJ1NcZemEWbnoQw6L9CAvqiPXc9bDP0KvSPSnCk7UsUQmNKwSC3gytuWsjg8EYrWKyfAcrDme9foIgpDqZvMhU64TacINSm3cGPfUwQwb9umxKM-fjWNSBaZWELYvTfCIOZWcXnMNINTWr6XIiilX-UYyVtWn6XuTnx0s3zTwAIIT57PX2JTOcNynmuAqzlRz1rxXFdVeI24a4MEDmQdHkAX0FSQV-DBSyZfipxEk-dBx6WIQAxGbp_4lnW0VA4sR_3uWh0wZ_ixseCxm7sQkK1V8JkeJcdFvU1jQqrT3-fTMwXgSdO2lvKtuQbhmX3h-nHLjjrzwiz1gdo_tdh0EhNg4hK_QzDynl6-6f5mSq2DvXDD__i93aIR59VOppOL2zMizV_ok3mJvFVKemye6LfW7MBIy8PHZ-mO0]--></g></svg>